<?xml version="1.0" encoding="utf-8"?>
<!-- Generator: Moho 12.5 build 22414 -->
<!DOCTYPE svg PUBLIC "-//W3C//DTD SVG 1.1//EN" "http://www.w3.org/Graphics/SVG/1.1/DTD/svg11.dtd">
<svg version="1.1" id="Frame_0" xmlns="http://www.w3.org/2000/svg" xmlns:xlink="http://www.w3.org/1999/xlink" width="720px" height="720px">
<g id="BG_square">
<g id="square_BG_2">
<clipPath id="B16F0F73-45DE-4818-B5AD-8C6173D38F2B">
<path fill="#c10077" fill-rule="evenodd" stroke="none" d="M 0.000 0.000 C 0.072 0.000 719.928 0.000 720.000 0.000 C 720.000 0.072 720.000 719.928 720.000 720.000 C 719.928 720.000 0.072 720.000 0.000 720.000 C 0.000 719.928 0.000 0.072 0.000 0.000 Z"/>
</clipPath>
<path fill="#c10077" fill-rule="evenodd" stroke="#000000" stroke-width="4" stroke-linecap="round" stroke-linejoin="round" d="M 0.000 0.000 C 0.072 0.000 719.928 0.000 720.000 0.000 C 720.000 0.072 720.000 719.928 720.000 720.000 C 719.928 720.000 0.072 720.000 0.000 720.000 C 0.000 719.928 0.000 0.072 0.000 0.000 Z"/>
</g>
</g>
<g id="knight_1_2">
<g id="horse_rearing">
<path fill="#000000" fill-rule="evenodd" stroke="#ffffff" stroke-width="4" stroke-linecap="round" stroke-linejoin="round" d="M 179.303 436.530 C 199.003 414.822 210.991 411.279 243.345 412.308 C 232.175 401.131 178.748 343.114 115.294 412.636 C 70.864 461.314 104.942 483.092 48.578 566.169 C 82.892 547.376 91.958 524.489 91.868 525.832 C 89.572 560.112 69.951 585.067 71.342 584.291 C 97.002 569.993 118.540 531.287 118.766 533.679 C 121.054 557.866 105.038 594.101 106.369 593.435 C 135.680 578.764 145.895 532.033 146.167 533.043 C 153.594 560.533 134.584 591.813 135.166 591.355 C 203.009 538.025 129.313 491.614 179.303 436.530 M 464.307 213.403 C 502.333 170.438 554.473 195.102 559.034 197.355 C 584.126 209.746 596.706 249.125 596.709 249.130 C 596.709 249.124 615.516 215.059 596.241 193.248 C 576.885 171.345 556.228 181.404 556.224 181.403 C 556.222 181.401 549.197 166.608 542.535 160.439 C 530.954 149.716 503.794 140.616 503.791 140.614 C 503.792 140.617 517.372 169.969 517.373 169.972 C 517.371 169.970 503.816 158.164 495.140 153.987 C 478.997 146.216 445.798 141.316 445.793 141.315 C 445.796 141.318 475.010 172.597 475.013 172.600 C 475.011 172.599 464.733 165.448 453.970 163.895 C 435.834 161.280 415.941 168.992 415.938 168.993 C 415.941 168.995 449.330 192.679 449.334 192.682 C 449.331 192.681 434.387 187.683 420.084 190.924 C 404.080 194.550 391.509 206.993 391.506 206.995 C 391.510 206.996 425.158 225.408 425.162 225.409 C 425.158 225.410 405.677 221.292 392.291 227.794 C 380.336 233.602 372.278 249.376 372.276 249.378 C 372.280 249.379 412.798 261.810 412.802 261.812 C 412.799 261.812 390.424 263.636 382.644 269.358 C 374.459 275.379 365.734 297.346 365.732 297.349 C 365.736 297.349 404.244 292.921 404.248 292.920 C 404.245 292.922 386.699 305.534 382.486 310.679 C 377.784 316.422 367.971 338.462 367.970 338.465 C 367.973 338.464 400.613 330.138 400.616 330.138 C 400.614 330.139 387.266 339.739 383.256 346.243 C 375.698 358.499 372.395 389.519 372.394 389.523 C 372.400 389.521 429.366 364.304 429.372 364.302 C 429.376 364.287 407.743 277.314 464.307 213.403 Z"/>
<path fill="#ffffff" fill-rule="evenodd" stroke="#000000" stroke-width="4" stroke-linecap="round" stroke-linejoin="round" d="M 257.065 465.916 C 255.605 429.980 353.265 396.621 375.110 466.313 C 377.014 472.386 374.170 493.438 365.666 517.225 C 352.593 553.791 301.518 563.907 301.529 579.744 C 301.538 592.042 340.731 625.961 348.956 630.611 C 357.930 635.685 378.284 662.030 378.287 662.033 C 378.283 662.033 335.481 661.294 335.477 661.294 C 335.476 661.293 333.393 647.977 327.968 642.469 C 324.818 639.269 316.796 644.395 314.423 638.209 C 303.524 609.796 268.538 585.969 271.204 575.772 C 273.127 568.415 292.711 545.845 291.767 525.443 C 291.073 510.453 258.185 493.488 257.065 465.916 M 513.532 412.773 C 513.532 412.770 516.757 380.352 516.757 380.349 C 516.764 380.346 558.823 371.421 591.044 350.975 C 600.762 344.809 606.200 356.650 609.001 359.266 C 614.566 364.465 643.711 398.464 654.047 409.490 C 657.220 412.876 657.002 426.562 661.120 438.813 C 663.652 446.345 654.213 469.353 654.212 469.356 C 654.211 469.354 635.496 446.428 635.494 446.425 C 635.495 446.424 645.906 432.810 643.975 427.243 C 641.315 419.578 631.094 425.175 630.440 420.213 C 628.159 402.917 601.332 372.341 597.049 371.493 C 591.953 370.484 539.620 411.978 539.615 411.982 C 539.612 411.983 513.534 412.773 513.532 412.773 Z"/>
<path fill="#ffffff" fill-rule="evenodd" stroke="none" d="M 599.060 397.951 C 582.618 399.488 561.091 400.166 542.420 400.817 C 542.579 375.482 530.258 349.834 515.489 334.388 C 509.254 309.111 501.414 256.019 526.550 245.725 C 536.803 260.135 553.066 266.412 553.069 266.414 C 553.070 266.417 558.134 277.708 562.416 289.882 C 562.877 291.191 570.977 292.110 570.978 292.110 C 570.978 292.109 571.417 279.762 571.417 279.761 C 571.418 279.762 580.538 292.564 580.538 292.566 C 580.539 292.565 588.598 287.551 589.385 283.709 C 590.347 279.011 578.057 216.846 575.012 207.624 C 571.038 195.590 562.444 190.935 562.442 190.934 C 562.442 190.931 554.485 163.944 554.484 163.942 C 554.484 163.944 547.382 186.975 547.382 186.978 C 547.372 186.980 493.046 164.899 448.260 213.813 C 417.453 247.459 427.463 304.304 413.238 347.398 C 401.281 383.620 347.067 379.023 298.278 384.504 C 223.297 392.928 220.781 425.107 221.749 465.467 C 222.776 508.283 256.514 509.339 251.872 536.482 C 250.040 547.195 219.654 560.081 213.016 568.761 C 203.160 581.648 238.461 595.800 241.023 635.517 C 241.537 643.487 248.491 639.375 253.536 643.640 C 262.109 650.886 263.317 667.795 263.318 667.798 C 263.322 667.798 308.823 667.863 308.827 667.863 C 308.824 667.859 288.629 639.649 279.272 635.350 C 256.486 624.879 239.921 584.784 240.488 581.939 C 246.702 550.803 299.707 574.284 323.853 514.454 C 335.972 484.425 331.327 447.909 331.328 447.902 C 331.328 447.906 333.784 480.211 332.223 486.426 C 340.361 481.916 350.527 486.193 382.729 490.656 C 455.957 500.802 499.989 475.384 533.160 435.167 C 528.400 437.711 518.578 440.657 516.041 440.484 C 508.926 439.998 497.832 430.823 497.830 430.822 C 497.832 430.823 508.685 440.194 516.606 440.284 C 525.554 440.385 585.824 412.694 589.816 417.527 C 593.993 422.583 573.112 460.157 571.922 467.359 C 571.669 468.893 575.491 473.864 571.645 478.639 C 570.504 480.057 553.811 483.191 553.810 483.192 C 553.809 483.194 545.249 509.053 545.248 509.056 C 545.251 509.055 566.998 506.435 570.888 502.080 C 581.041 490.714 592.448 484.728 592.205 477.090 C 591.649 459.591 603.172 421.637 610.069 412.313 C 612.042 409.646 607.526 397.160 599.060 397.951 Z"/>
<path fill="none" stroke="#000000" stroke-width="4" stroke-linecap="round" stroke-linejoin="round" d="M 542.420 400.817 C 527.101 401.291 513.838 401.685 506.962 401.512 M 599.060 397.951 C 582.618 399.488 561.091 400.166 542.420 400.817 C 542.579 375.482 530.258 349.834 515.489 334.388 C 509.254 309.111 501.414 256.019 526.550 245.725 C 536.803 260.135 553.066 266.412 553.069 266.414 C 553.070 266.417 558.134 277.708 562.416 289.882 C 562.877 291.191 570.977 292.110 570.978 292.110 C 570.978 292.109 571.417 279.762 571.417 279.761 C 571.418 279.762 580.538 292.564 580.538 292.566 C 580.539 292.565 588.598 287.551 589.385 283.709 C 590.347 279.011 578.057 216.846 575.012 207.624 C 571.038 195.590 562.444 190.935 562.442 190.934 C 562.442 190.931 554.485 163.944 554.484 163.942 C 554.484 163.944 547.382 186.975 547.382 186.978 C 547.372 186.980 493.046 164.899 448.260 213.813 C 417.453 247.459 427.463 304.304 413.238 347.398 C 401.281 383.620 347.067 379.023 298.278 384.504 C 223.297 392.928 220.781 425.107 221.749 465.467 C 222.776 508.283 256.514 509.339 251.872 536.482 C 250.040 547.195 219.654 560.081 213.016 568.761 C 203.160 581.648 238.461 595.800 241.023 635.517 C 241.537 643.487 248.491 639.375 253.536 643.640 C 262.109 650.886 263.317 667.795 263.318 667.798 C 263.322 667.798 308.823 667.863 308.827 667.863 C 308.824 667.859 288.629 639.649 279.272 635.350 C 256.486 624.879 239.921 584.784 240.488 581.939 C 246.702 550.803 299.707 574.284 323.853 514.454 C 335.972 484.425 331.327 447.909 331.328 447.902 C 331.328 447.906 333.784 480.211 332.223 486.426 C 340.361 481.916 350.527 486.193 382.729 490.656 C 455.957 500.802 499.989 475.384 533.160 435.167 C 528.400 437.711 518.578 440.657 516.041 440.484 C 508.926 439.998 497.832 430.823 497.830 430.822 C 497.832 430.823 508.685 440.194 516.606 440.284 C 525.554 440.385 585.824 412.694 589.816 417.527 C 593.993 422.583 573.112 460.157 571.922 467.359 C 571.669 468.893 575.491 473.864 571.645 478.639 C 570.504 480.057 553.811 483.191 553.810 483.192 C 553.809 483.194 545.249 509.053 545.248 509.056 C 545.251 509.055 566.998 506.435 570.888 502.080 C 581.041 490.714 592.448 484.728 592.205 477.090 C 591.649 459.591 603.172 421.637 610.069 412.313 C 612.042 409.646 607.526 397.160 599.060 397.951 "/>
<path fill="#000000" fill-rule="evenodd" stroke="none" d="M 561.510 226.300 C 565.398 223.490 566.268 218.088 563.459 214.200 C 560.650 210.312 555.247 209.441 551.359 212.251 C 547.471 215.060 546.601 220.463 549.410 224.351 C 552.219 228.239 557.622 229.109 561.510 226.300 M 569.893 237.633 C 569.892 237.630 576.493 225.276 566.856 211.939 C 557.219 198.602 543.417 200.990 543.415 200.989 C 543.415 200.992 536.816 213.345 546.453 226.682 C 556.090 240.019 569.890 237.632 569.893 237.633 M 584.778 281.259 C 585.038 279.646 583.946 278.135 582.333 277.875 C 580.720 277.615 579.209 278.707 578.949 280.320 C 578.689 281.933 579.781 283.444 581.394 283.704 C 583.007 283.964 584.518 282.872 584.778 281.259 Z"/>
</g>
<g id="specs">
<path fill="#239e46" fill-rule="evenodd" stroke="none" d="M 335.920 87.439 C 335.922 87.441 360.806 107.794 360.809 107.796 C 360.808 107.794 354.964 94.231 354.963 94.230 C 354.965 94.229 368.072 87.424 368.073 87.424 C 368.070 87.424 335.923 87.439 335.920 87.439 Z"/>
<path fill="none" stroke="#239e46" stroke-width="4" stroke-linecap="round" stroke-linejoin="round" d="M 165.358 53.148 C 165.360 53.144 181.643 7.481 181.645 7.476 C 181.669 7.485 421.983 93.179 422.007 93.187 C 422.005 93.192 405.722 138.855 405.721 138.859 C 405.697 138.851 165.382 53.157 165.358 53.148 "/>
<path fill="#239e46" fill-rule="evenodd" stroke="none" d="M 157.409 206.009 C 157.408 206.012 146.763 235.818 146.762 235.821 C 146.763 235.820 157.408 225.916 157.409 225.915 C 157.410 225.916 168.055 235.820 168.056 235.821 C 168.055 235.818 157.410 206.012 157.409 206.009 Z"/>
<path fill="none" stroke="#299e44" stroke-width="4" stroke-linecap="round" stroke-linejoin="round" d="M 82.911 247.601 C 82.911 247.588 82.911 109.993 82.911 109.979 C 82.925 109.979 220.519 109.979 220.533 109.979 C 220.533 109.993 220.533 247.588 220.533 247.601 C 220.519 247.601 82.925 247.601 82.911 247.601 "/>
</g>
<g id="mask">
<path fill="#381578" fill-rule="evenodd" stroke="none" d="M 278.100 252.796 C 276.458 254.173 274.645 255.660 272.800 257.135 C 287.737 291.995 299.812 300.166 304.696 353.059 C 328.358 363.788 366.402 356.834 378.482 349.147 C 395.106 287.795 385.271 254.938 374.571 235.777 C 371.677 230.597 370.457 226.986 367.902 223.520 C 365.452 237.278 357.237 255.092 335.941 262.747 C 312.408 271.206 278.100 252.796 278.100 252.796 Z"/>
<path fill="none" stroke="#381578" stroke-width="1" stroke-linecap="butt" stroke-linejoin="round" d="M 378.482 349.147 C 366.402 356.834 328.358 363.788 304.696 353.059 "/>
<path fill="#381578" fill-rule="evenodd" stroke="none" d="M 378.482 349.147 C 366.402 356.834 328.358 363.788 304.696 353.059 C 304.695 353.062 297.628 371.735 293.902 382.386 C 290.618 391.233 288.110 398.689 288.461 399.297 C 303.491 404.553 323.588 408.398 344.833 408.518 C 363.901 408.626 383.888 405.679 402.383 397.727 C 411.021 394.013 419.333 389.207 427.061 383.110 C 418.766 372.993 410.833 365.896 403.602 361.358 C 392.974 353.040 379.402 349.108 378.482 349.147 Z"/>
<path fill="none" stroke="#381578" stroke-width="1" stroke-linecap="butt" stroke-linejoin="round" d="M 344.833 408.518 C 323.588 408.398 303.491 404.553 288.461 399.297 "/>
<path fill="none" stroke="#381578" stroke-width="1" stroke-linecap="butt" stroke-linejoin="round" d="M 288.461 399.297 C 288.110 398.689 290.618 391.233 293.902 382.386 "/>
<path fill="#381578" fill-rule="evenodd" stroke="none" d="M 198.491 534.002 C 253.777 550.167 319.034 542.620 375.369 527.804 C 382.397 464.733 370.010 435.422 344.833 408.518 C 323.588 408.398 303.491 404.553 288.461 399.297 C 288.110 398.689 290.618 391.233 293.902 382.386 C 273.915 384.143 264.780 386.962 243.136 396.460 C 247.105 400.389 247.672 411.076 241.954 416.589 C 234.540 423.739 225.751 421.954 222.377 420.694 C 207.628 457.767 224.160 470.055 198.491 534.002 Z"/>
<path fill="none" stroke="#381578" stroke-width="1" stroke-linecap="butt" stroke-linejoin="round" d="M 403.602 361.358 C 410.833 365.896 418.766 372.993 427.061 383.110 "/>
<path fill="none" stroke="#381578" stroke-width="1" stroke-linecap="butt" stroke-linejoin="round" d="M 427.061 383.110 C 419.333 389.207 411.021 394.013 402.383 397.727 "/>
<path fill="#381578" fill-rule="evenodd" stroke="none" d="M 411.166 355.051 C 408.570 357.400 406.029 359.508 403.602 361.358 C 410.833 365.896 418.766 372.993 427.061 383.110 C 419.333 389.207 411.021 394.013 402.383 397.727 C 417.850 446.482 397.233 514.735 397.232 514.746 C 397.233 514.746 409.368 517.749 409.368 517.749 C 412.453 516.715 421.706 513.613 427.589 511.391 C 501.504 483.476 488.215 398.350 566.332 398.779 C 538.333 368.471 533.010 349.002 533.006 348.997 C 533.000 348.999 496.887 369.815 464.891 367.685 C 434.717 365.676 419.496 363.656 411.166 355.051 Z"/>
<path fill="#381578" fill-rule="evenodd" stroke="none" d="M 529.568 232.283 C 534.157 246.023 548.407 260.232 557.413 268.261 C 554.433 269.100 550.024 270.365 550.023 270.365 C 550.023 270.366 552.513 280.452 552.513 280.453 C 552.514 280.452 554.092 280.026 555.365 279.628 C 544.419 289.512 519.165 310.124 492.937 316.283 C 467.618 322.229 433.714 313.302 418.942 310.001 C 414.506 333.564 408.917 352.640 408.916 352.644 C 408.925 352.644 462.237 368.357 502.407 348.968 C 565.065 318.726 563.989 283.668 562.298 277.599 C 566.217 283.683 578.351 280.488 578.528 273.241 C 583.299 272.126 593.020 269.497 593.021 269.497 C 593.021 269.496 589.039 259.174 589.038 259.174 C 589.036 259.174 582.212 261.280 574.086 263.791 C 569.708 260.515 565.906 263.304 565.906 263.304 C 558.846 256.000 545.208 238.202 540.367 219.596 C 537.289 207.768 544.618 185.466 544.618 185.462 C 544.617 185.462 537.163 184.444 531.750 182.822 C 529.357 189.065 521.885 209.281 529.568 232.283 Z"/>
<path fill="#381578" fill-rule="evenodd" stroke="none" d="M 297.246 149.452 C 297.245 149.450 297.449 140.002 287.788 130.480 C 272.954 115.858 252.952 114.951 242.915 119.521 C 233.504 123.805 226.349 139.739 234.174 149.116 C 251.409 169.771 269.816 143.942 283.887 145.421 C 292.948 146.373 297.245 149.452 297.246 149.452 Z"/>
</g>
<g id="knight">
<path fill="none" stroke="#000000" stroke-width="4" stroke-linecap="round" stroke-linejoin="round" d="M 293.902 382.386 C 273.915 384.143 264.780 386.962 243.136 396.460 C 247.105 400.389 247.672 411.076 241.954 416.589 C 234.540 423.739 225.751 421.954 222.377 420.694 C 207.628 457.767 224.160 470.055 198.491 534.002 C 253.777 550.167 319.034 542.620 375.369 527.804 "/>
<path fill="none" stroke="#000000" stroke-width="4" stroke-linecap="round" stroke-linejoin="round" d="M 409.368 517.749 C 415.603 515.694 421.706 513.613 427.589 511.391 C 501.504 483.476 488.215 398.350 566.332 398.779 C 538.333 368.471 533.010 349.002 533.006 348.997 C 533.000 348.999 496.887 369.815 464.891 367.685 C 434.717 365.676 419.496 363.656 411.166 355.051 C 408.570 357.400 406.029 359.508 403.602 361.358 "/>
<path fill="#ffffff" fill-rule="evenodd" stroke="#000000" stroke-width="4" stroke-linecap="round" stroke-linejoin="round" d="M 179.802 247.979 C 179.810 247.978 226.754 289.925 258.849 230.500 C 265.636 240.083 270.249 246.303 278.100 252.796 C 276.458 254.173 274.850 255.497 272.800 257.135 C 222.301 297.858 204.625 284.151 173.593 258.875 C 145.421 266.469 125.224 252.726 124.456 248.585 C 139.329 248.572 179.797 247.979 179.802 247.979 Z"/>
<path fill="#ffffff" fill-rule="evenodd" stroke="#000000" stroke-width="4" stroke-linecap="round" stroke-linejoin="round" d="M 384.053 135.299 C 399.406 156.876 386.858 189.739 368.294 208.272 C 368.454 211.528 369.055 217.045 367.902 223.520 C 370.457 226.986 371.677 230.597 374.571 235.777 C 400.223 214.881 431.423 163.792 397.510 128.255 C 394.750 125.362 393.002 123.965 393.002 123.965 C 393.003 123.963 402.820 106.367 402.821 106.365 C 402.818 106.364 379.737 94.205 379.734 94.204 C 379.734 94.205 376.481 103.860 376.481 103.861 C 376.480 103.862 370.444 120.192 370.443 120.193 C 370.445 120.195 378.531 127.540 384.053 135.299 Z"/>
<path fill="none" stroke="#000000" stroke-width="4" stroke-linecap="round" stroke-linejoin="round" d="M 376.481 103.861 C 387.656 110.728 398.810 110.892 395.039 115.189 C 390.830 119.985 384.867 114.731 384.866 114.731 C 384.866 114.731 385.856 119.045 380.485 121.613 "/>
<path fill="none" stroke="#ffffff" stroke-width="1" stroke-linecap="butt" stroke-linejoin="round" d="M 368.294 208.272 C 368.454 211.528 369.055 217.045 367.902 223.520 "/>
<path fill="none" stroke="#ffffff" stroke-width="1" stroke-linecap="butt" stroke-linejoin="round" d="M 278.100 252.796 C 270.249 246.303 265.636 240.083 258.849 230.500 "/>
<path fill="#ffffff" fill-rule="evenodd" stroke="#000000" stroke-width="4" stroke-linecap="round" stroke-linejoin="round" d="M 367.330 204.524 C 368.779 203.964 368.173 205.790 368.294 208.272 C 368.454 211.528 369.055 217.045 367.902 223.520 C 365.452 237.278 357.237 255.092 335.941 262.747 C 312.408 271.206 281.578 255.673 278.100 252.796 C 270.249 246.303 265.636 240.083 258.849 230.500 C 256.704 227.473 254.749 223.221 254.749 223.220 C 254.753 223.219 300.732 219.999 300.737 219.998 C 300.738 219.994 280.989 201.080 276.215 186.286 C 278.857 170.510 297.417 150.316 297.419 150.313 C 297.423 150.314 329.446 157.285 335.078 169.244 C 335.077 169.248 336.312 184.602 333.189 214.588 C 344.038 211.669 357.093 208.478 367.330 204.524 Z"/>
<path fill="#ffffff" fill-rule="evenodd" stroke="none" d="M 292.104 184.861 C 292.109 184.860 342.980 170.226 342.985 170.225 C 342.985 170.228 345.288 203.506 345.288 203.509 C 345.283 203.508 296.548 197.372 294.737 195.531 C 294.472 195.262 292.104 184.862 292.104 184.861 Z"/>
<path fill="none" stroke="#000000" stroke-width="4" stroke-linecap="round" stroke-linejoin="round" d="M 303.799 189.406 C 317.198 188.104 330.596 186.802 343.994 185.500 M 294.737 195.531 C 294.472 195.262 292.104 184.862 292.104 184.861 C 292.109 184.860 342.980 170.226 342.985 170.225 C 342.985 170.228 345.288 203.506 345.288 203.509 C 345.283 203.508 296.548 197.372 294.737 195.531 "/>
<path fill="#ffffff" fill-rule="evenodd" stroke="#000000" stroke-width="4" stroke-linecap="round" stroke-linejoin="round" d="M 402.383 397.727 C 383.888 405.679 363.901 408.626 344.833 408.518 C 370.010 435.422 382.397 464.733 375.369 527.804 C 374.995 530.435 374.571 533.812 374.093 537.285 C 398.674 536.534 449.211 527.727 449.218 527.726 C 449.214 527.725 422.532 521.062 409.368 517.749 C 405.203 516.736 397.233 514.746 397.232 514.746 C 397.233 514.735 417.850 446.482 402.383 397.727 Z"/>
<path fill="none" stroke="#000000" stroke-width="4" stroke-linecap="round" stroke-linejoin="round" d="M 374.571 235.777 C 385.271 254.938 395.106 287.795 378.482 349.147 C 366.402 356.834 328.358 363.788 304.696 353.059 C 299.812 300.166 287.737 291.995 272.800 257.135 M 378.482 349.147 C 379.402 349.108 392.974 353.040 403.602 361.358 C 410.833 365.896 418.766 372.993 427.061 383.110 C 419.333 389.207 411.021 394.013 402.383 397.727 C 383.888 405.679 363.901 408.626 344.833 408.518 C 323.588 408.398 303.491 404.553 288.461 399.297 C 288.110 398.689 290.618 391.233 293.902 382.386 C 297.628 371.735 304.695 353.062 304.696 353.059 "/>
<path fill="none" stroke="#000000" stroke-width="4" stroke-linecap="round" stroke-linejoin="round" d="M 574.086 263.791 C 569.708 260.515 565.906 263.304 565.906 263.304 C 558.846 256.000 545.208 238.202 540.367 219.596 C 537.289 207.768 544.618 185.466 544.618 185.462 C 544.617 185.462 537.163 184.444 531.750 182.822 C 529.357 189.065 521.885 209.281 529.568 232.283 C 534.157 246.023 548.407 260.232 557.413 268.261 C 554.433 269.100 550.024 270.365 550.023 270.365 C 550.023 270.366 552.513 280.452 552.513 280.453 C 552.514 280.452 554.092 280.026 555.365 279.628 C 544.419 289.512 519.165 310.124 492.937 316.283 C 467.618 322.229 433.714 313.302 418.942 310.001 C 414.506 333.564 408.917 352.640 408.916 352.644 C 408.925 352.644 462.237 368.357 502.407 348.968 C 565.065 318.726 563.989 283.668 562.298 277.599 C 562.359 277.681 562.368 277.707 562.413 277.755 C 569.191 284.874 578.351 280.488 578.528 273.241 C 583.299 272.126 593.020 269.497 593.021 269.497 C 593.021 269.496 589.039 259.174 589.038 259.174 C 589.036 259.174 582.212 261.280 574.086 263.791 "/>
<path fill="none" stroke="#000000" stroke-width="4" stroke-linecap="round" stroke-linejoin="round" d="M 283.887 145.421 C 292.948 146.373 297.245 149.452 297.246 149.452 C 297.245 149.450 297.449 140.002 287.788 130.480 C 272.954 115.858 252.952 114.951 242.915 119.521 C 233.504 123.805 226.349 139.739 234.174 149.116 C 251.409 169.771 269.816 143.942 283.887 145.421 "/>
</g>
</g>
</svg>
