<?xml version="1.0" encoding="utf-8"?>
<!-- Generator: Moho 12.5 build 22414 -->
<!DOCTYPE svg PUBLIC "-//W3C//DTD SVG 1.1//EN" "http://www.w3.org/Graphics/SVG/1.1/DTD/svg11.dtd">
<svg version="1.1" id="Frame_0" xmlns="http://www.w3.org/2000/svg" xmlns:xlink="http://www.w3.org/1999/xlink" width="720px" height="720px">
<g id="square_BG_2">
<path fill="#c10077" fill-rule="evenodd" stroke="#000000" stroke-width="4" stroke-linecap="round" stroke-linejoin="round" d="M 0.000 0.000 C 0.072 0.000 719.928 0.000 720.000 0.000 C 720.000 0.072 720.000 719.928 720.000 720.000 C 719.928 720.000 0.072 720.000 0.000 720.000 C 0.000 719.928 0.000 0.072 0.000 0.000 Z"/>
</g>
<g id="knight_1">
<g id="horse_rearing">
<path fill="#000000" fill-rule="evenodd" stroke="#ffffff" stroke-width="5" stroke-linecap="round" stroke-linejoin="round" d="M 169.700 463.162 C 190.464 440.282 203.099 436.547 237.200 437.632 C 225.426 425.852 169.116 364.703 102.237 437.978 C 55.409 489.284 91.326 512.237 31.920 599.798 C 68.086 579.991 77.640 555.869 77.546 557.284 C 75.126 593.414 54.445 619.716 55.912 618.899 C 82.957 603.829 105.658 563.033 105.896 565.554 C 108.307 591.047 91.427 629.238 92.829 628.536 C 123.723 613.073 134.489 563.819 134.776 564.884 C 142.604 593.858 122.567 626.827 123.181 626.344 C 194.686 570.135 117.012 521.219 169.700 463.162 M 470.088 227.991 C 510.167 182.706 565.122 208.702 569.929 211.076 C 596.375 224.136 609.634 265.641 609.638 265.646 C 609.638 265.640 629.459 229.736 609.144 206.748 C 588.743 183.663 566.971 194.265 566.967 194.263 C 566.965 194.261 559.561 178.669 552.539 172.168 C 540.334 160.866 511.708 151.275 511.704 151.273 C 511.705 151.276 526.018 182.212 526.019 182.215 C 526.017 182.213 511.730 169.770 502.586 165.368 C 485.572 157.177 450.581 152.012 450.576 152.011 C 450.579 152.014 481.369 184.982 481.373 184.985 C 481.370 184.984 470.538 177.446 459.194 175.811 C 440.079 173.054 419.112 181.182 419.108 181.183 C 419.112 181.185 454.304 206.148 454.307 206.150 C 454.304 206.150 438.554 200.882 423.478 204.298 C 406.611 208.120 393.361 221.234 393.358 221.236 C 393.362 221.238 428.827 240.643 428.830 240.645 C 428.827 240.645 408.294 236.305 394.186 243.158 C 381.585 249.280 373.092 265.905 373.090 265.907 C 373.095 265.909 415.799 279.011 415.803 279.012 C 415.800 279.013 392.218 280.935 384.017 286.966 C 375.391 293.311 366.194 316.465 366.193 316.468 C 366.197 316.467 406.783 311.800 406.787 311.800 C 406.785 311.802 388.292 325.094 383.851 330.517 C 378.895 336.570 368.553 359.800 368.552 359.803 C 368.555 359.802 402.956 351.027 402.960 351.026 C 402.958 351.028 388.889 361.146 384.662 368.001 C 376.697 380.918 373.215 413.613 373.214 413.617 C 373.220 413.615 433.262 387.037 433.268 387.034 C 433.272 387.019 410.472 295.352 470.088 227.991 Z"/>
<path fill="#ffffff" fill-rule="evenodd" stroke="#000000" stroke-width="5" stroke-linecap="round" stroke-linejoin="round" d="M 251.660 494.134 C 250.121 456.258 353.053 421.099 376.077 494.552 C 378.084 500.953 375.086 523.141 366.123 548.212 C 352.344 586.752 298.512 597.414 298.525 614.106 C 298.534 627.068 339.842 662.817 348.512 667.719 C 357.970 673.066 379.422 700.833 379.425 700.837 C 379.421 700.837 334.309 700.058 334.305 700.058 C 334.304 700.056 332.108 686.022 326.391 680.216 C 323.070 676.844 314.615 682.247 312.114 675.727 C 300.627 645.780 263.753 620.667 266.562 609.920 C 268.589 602.166 289.230 578.377 288.235 556.874 C 287.504 541.075 252.840 523.194 251.660 494.134 M 521.971 438.122 C 521.971 438.119 525.369 403.951 525.370 403.948 C 525.377 403.944 569.707 394.538 603.667 372.989 C 613.910 366.489 619.641 378.970 622.593 381.727 C 628.458 387.207 659.177 423.040 670.070 434.662 C 673.415 438.230 673.185 452.655 677.526 465.568 C 680.194 473.507 670.246 497.757 670.245 497.760 C 670.243 497.757 650.518 473.594 650.516 473.591 C 650.517 473.589 661.491 459.240 659.454 453.373 C 656.651 445.294 645.879 451.194 645.189 445.964 C 642.785 427.734 614.510 395.508 609.995 394.614 C 604.624 393.550 549.467 437.285 549.461 437.289 C 549.458 437.289 521.973 438.122 521.971 438.122 Z"/>
<path fill="#ffffff" fill-rule="evenodd" stroke="none" d="M 612.116 422.500 C 594.785 424.120 572.096 424.835 552.418 425.521 C 552.586 398.818 539.600 371.786 524.034 355.506 C 517.462 328.865 509.198 272.907 535.692 262.058 C 546.498 277.246 563.639 283.861 563.642 283.863 C 563.643 283.866 568.980 295.766 573.494 308.598 C 573.979 309.978 582.516 310.946 582.517 310.946 C 582.517 310.945 582.980 297.932 582.980 297.931 C 582.981 297.932 592.593 311.425 592.594 311.426 C 592.595 311.425 601.089 306.141 601.918 302.092 C 602.932 297.140 589.979 231.619 586.769 221.900 C 582.580 209.216 573.523 204.310 573.521 204.308 C 573.520 204.306 565.135 175.862 565.134 175.859 C 565.133 175.862 557.648 200.136 557.648 200.139 C 557.637 200.141 500.378 176.869 453.175 228.422 C 420.706 263.884 431.256 323.799 416.263 369.219 C 403.661 407.396 346.520 402.550 295.098 408.327 C 216.070 417.206 213.418 451.122 214.438 493.661 C 215.520 538.787 251.079 539.901 246.187 568.508 C 244.256 579.800 212.230 593.382 205.234 602.530 C 194.846 616.112 232.052 631.028 234.752 672.890 C 235.293 681.290 242.623 676.956 247.941 681.451 C 256.976 689.088 258.249 706.910 258.250 706.913 C 258.255 706.913 306.212 706.981 306.216 706.981 C 306.213 706.978 284.927 677.245 275.065 672.713 C 251.050 661.677 233.590 619.418 234.189 616.420 C 240.738 583.603 296.604 608.351 322.053 545.292 C 334.826 513.642 329.931 475.155 329.931 475.148 C 329.931 475.152 332.520 509.201 330.875 515.751 C 339.453 510.997 350.167 515.506 384.107 520.209 C 461.287 530.903 507.697 504.113 542.658 461.725 C 537.641 464.407 527.289 467.512 524.615 467.329 C 517.116 466.816 505.423 457.147 505.421 457.146 C 505.423 457.147 516.862 467.024 525.210 467.118 C 534.641 467.224 598.165 438.039 602.373 443.132 C 606.775 448.462 584.766 488.064 583.513 495.654 C 583.245 497.272 587.274 502.510 583.221 507.543 C 582.018 509.038 564.424 512.341 564.423 512.342 C 564.422 512.344 555.400 539.599 555.399 539.602 C 555.402 539.602 578.323 536.840 582.423 532.250 C 593.123 520.271 605.147 513.961 604.891 505.911 C 604.304 487.467 616.450 447.464 623.719 437.637 C 625.798 434.827 621.039 421.667 612.116 422.500 Z"/>
<path fill="none" stroke="#000000" stroke-width="5" stroke-linecap="round" stroke-linejoin="round" d="M 552.418 425.521 C 536.272 426.020 522.293 426.436 515.046 426.253 M 612.116 422.500 C 594.785 424.120 572.096 424.835 552.418 425.521 C 552.586 398.818 539.600 371.786 524.034 355.506 C 517.462 328.865 509.198 272.907 535.692 262.058 C 546.498 277.246 563.639 283.861 563.642 283.863 C 563.643 283.866 568.980 295.766 573.494 308.598 C 573.979 309.978 582.516 310.946 582.517 310.946 C 582.517 310.945 582.980 297.932 582.980 297.931 C 582.981 297.932 592.593 311.425 592.594 311.426 C 592.595 311.425 601.089 306.141 601.918 302.092 C 602.932 297.140 589.979 231.619 586.769 221.900 C 582.580 209.216 573.523 204.310 573.521 204.308 C 573.520 204.306 565.135 175.862 565.134 175.859 C 565.133 175.862 557.648 200.136 557.648 200.139 C 557.637 200.141 500.378 176.869 453.175 228.422 C 420.706 263.884 431.256 323.799 416.263 369.219 C 403.661 407.396 346.520 402.550 295.098 408.327 C 216.070 417.206 213.418 451.122 214.438 493.661 C 215.520 538.787 251.079 539.901 246.187 568.508 C 244.256 579.800 212.230 593.382 205.234 602.530 C 194.846 616.112 232.052 631.028 234.752 672.890 C 235.293 681.290 242.623 676.956 247.941 681.451 C 256.976 689.088 258.249 706.910 258.250 706.913 C 258.255 706.913 306.212 706.981 306.216 706.981 C 306.213 706.978 284.927 677.245 275.065 672.713 C 251.050 661.677 233.590 619.418 234.189 616.420 C 240.738 583.603 296.604 608.351 322.053 545.292 C 334.826 513.642 329.931 475.155 329.931 475.148 C 329.931 475.152 332.520 509.201 330.875 515.751 C 339.453 510.997 350.167 515.506 384.107 520.209 C 461.287 530.903 507.697 504.113 542.658 461.725 C 537.641 464.407 527.289 467.512 524.615 467.329 C 517.116 466.816 505.423 457.147 505.421 457.146 C 505.423 457.147 516.862 467.024 525.210 467.118 C 534.641 467.224 598.165 438.039 602.373 443.132 C 606.775 448.462 584.766 488.064 583.513 495.654 C 583.245 497.272 587.274 502.510 583.221 507.543 C 582.018 509.038 564.424 512.341 564.423 512.342 C 564.422 512.344 555.400 539.599 555.399 539.602 C 555.402 539.602 578.323 536.840 582.423 532.250 C 593.123 520.271 605.147 513.961 604.891 505.911 C 604.304 487.467 616.450 447.464 623.719 437.637 C 625.798 434.827 621.039 421.667 612.116 422.500 "/>
<path fill="#000000" fill-rule="evenodd" stroke="none" d="M 572.539 241.583 C 576.637 238.622 577.554 232.928 574.593 228.830 C 571.632 224.732 565.937 223.815 561.839 226.776 C 557.742 229.737 556.825 235.431 559.786 239.529 C 562.747 243.627 568.441 244.544 572.539 241.583 M 581.374 253.528 C 581.373 253.525 588.330 240.505 578.173 226.448 C 568.016 212.391 553.469 214.908 553.467 214.906 C 553.467 214.909 546.512 227.929 556.669 241.986 C 566.826 256.043 581.371 253.527 581.374 253.528 M 597.062 299.509 C 597.336 297.809 596.185 296.217 594.485 295.943 C 592.785 295.669 591.193 296.820 590.919 298.520 C 590.645 300.220 591.796 301.812 593.496 302.086 C 595.196 302.360 596.788 301.209 597.062 299.509 Z"/>
</g>
<g id="tack">
<path fill="#381578" fill-rule="evenodd" stroke="#000000" stroke-width="5" stroke-linecap="round" stroke-linejoin="round" d="M 422.275 329.803 C 417.599 354.637 411.708 374.743 411.707 374.748 C 411.717 374.747 468.224 391.954 510.245 370.874 C 577.160 337.306 572.160 292.030 572.161 292.027 C 572.154 292.032 537.123 327.768 500.264 336.424 C 473.578 342.691 437.844 333.282 422.275 329.803 M 540.815 197.191 C 546.685 198.504 554.733 198.541 554.735 198.542 C 554.734 198.545 547.010 222.051 550.254 234.517 C 556.709 259.325 582.688 286.694 582.691 286.700 C 582.690 286.700 573.468 290.622 573.467 290.622 C 573.464 290.618 544.877 265.757 538.872 247.889 C 530.955 224.333 538.823 203.748 540.815 197.191 M 601.553 276.232 C 601.553 276.233 605.750 287.111 605.751 287.112 C 605.747 287.114 563.060 298.658 563.056 298.659 C 563.056 298.658 560.432 288.028 560.431 288.027 C 560.435 288.026 601.548 276.233 601.553 276.232 Z"/>
<path fill="#381578" fill-rule="evenodd" stroke="#000000" stroke-width="5" stroke-linecap="round" stroke-linejoin="round" d="M 582.408 279.968 C 577.106 279.131 572.155 282.733 571.318 288.035 C 570.481 293.336 574.083 298.288 579.385 299.125 C 584.686 299.962 589.638 296.360 590.475 291.058 C 591.312 285.756 587.710 280.804 582.408 279.968 Z"/>
<path fill="#381578" fill-rule="evenodd" stroke="#000000" stroke-width="5" stroke-linecap="round" stroke-linejoin="round" d="M 431.389 542.064 C 508.564 513.638 499.095 409.522 578.105 427.730 C 547.826 392.851 542.500 370.909 542.496 370.903 C 542.489 370.905 504.428 392.845 470.704 390.600 C 438.901 388.483 423.028 386.187 414.079 377.284 C 389.646 400.247 362.959 405.073 354.924 404.926 C 276.519 403.495 274.981 404.660 236.979 420.929 C 241.125 425.107 241.771 436.345 235.734 442.144 C 227.199 450.342 213.165 446.470 213.163 446.471 C 213.160 446.483 216.338 498.488 189.924 565.895 C 266.779 587.679 361.346 567.862 431.389 542.064 Z"/>
<path fill="#000000" fill-rule="evenodd" stroke="#ffffff" stroke-width="5" stroke-linecap="round" stroke-linejoin="round" d="M 430.812 444.266 C 433.355 424.916 421.788 400.363 407.140 381.278 C 375.862 395.143 369.647 403.406 328.283 404.377 C 327.834 428.102 338.871 461.267 349.737 469.957 C 365.464 482.534 427.463 469.746 430.812 444.266 Z"/>
</g>
<g id="knight">
<path fill="#ffffff" fill-rule="evenodd" stroke="#000000" stroke-width="5" stroke-linecap="round" stroke-linejoin="round" d="M 403.211 132.672 C 443.683 175.373 395.463 238.939 368.311 252.855 C 387.754 299.948 375.710 372.514 375.710 372.526 C 375.714 372.532 399.451 397.801 411.730 426.042 C 429.508 466.929 401.529 540.010 401.528 540.022 C 401.533 540.023 456.268 553.888 456.274 553.889 C 456.266 553.890 402.969 562.991 377.059 563.694 C 390.845 466.128 363.344 440.511 313.428 396.727 C 313.157 346.642 328.656 335.395 278.889 261.838 C 219.447 311.978 200.703 297.395 166.738 269.537 C 137.018 277.440 115.781 262.882 114.986 258.515 C 130.662 258.555 173.316 258.076 173.322 258.076 C 173.330 258.074 224.172 303.818 259.153 235.246 C 259.155 235.247 353.466 229.864 354.083 229.618 C 381.422 218.707 409.822 169.520 389.001 140.048 C 383.210 131.850 374.713 124.080 374.712 124.078 C 374.712 124.077 381.133 106.888 381.134 106.886 C 381.134 106.885 384.597 96.721 384.598 96.720 C 384.600 96.721 408.884 109.619 408.886 109.620 C 408.885 109.622 398.475 128.132 398.474 128.134 C 398.475 128.134 400.311 129.613 403.211 132.672 Z"/>
<path fill="#381578" fill-rule="evenodd" stroke="#000000" stroke-width="5" stroke-linecap="round" stroke-linejoin="round" d="M 287.302 417.951 C 286.479 416.553 303.814 368.527 303.815 368.522 C 303.823 368.522 384.595 365.330 384.603 365.329 C 384.608 365.333 411.115 373.971 433.441 401.389 C 388.066 436.931 323.843 430.431 287.302 417.951 Z"/>
<path fill="#381578" fill-rule="evenodd" stroke="#000000" stroke-width="5" stroke-linecap="round" stroke-linejoin="round" d="M 304.579 369.276 C 298.459 300.429 280.541 303.387 260.325 237.564 C 273.736 237.204 365.048 225.382 365.058 225.381 C 365.060 225.395 409.295 267.295 382.259 365.881 C 360.288 376.370 333.712 377.770 304.579 369.276 Z"/>
<path fill="#ffffff" fill-rule="evenodd" stroke="#000000" stroke-width="5" stroke-linecap="round" stroke-linejoin="round" d="M 370.355 213.715 C 374.302 212.122 377.653 260.042 337.835 274.202 C 282.650 293.827 252.411 232.254 252.402 232.249 C 252.407 232.249 300.879 229.020 300.884 229.019 C 300.886 229.015 280.139 209.008 275.160 193.399 C 278.001 176.781 297.636 155.564 297.638 155.561 C 297.642 155.563 331.369 163.024 337.262 175.649 C 337.260 175.653 338.638 191.854 335.107 223.433 C 346.274 220.519 359.905 217.934 370.355 213.715 Z"/>
<path fill="#ffffff" fill-rule="evenodd" stroke="#000000" stroke-width="5" stroke-linecap="round" stroke-linejoin="round" d="M 291.912 191.955 C 291.917 191.953 345.586 176.713 345.592 176.711 C 345.592 176.715 347.899 211.797 347.899 211.800 C 347.894 211.799 296.551 205.157 294.649 203.210 C 294.370 202.925 291.912 191.956 291.912 191.955 Z"/>
<path fill="none" stroke="#000000" stroke-width="5" stroke-linecap="round" stroke-linejoin="round" d="M 304.222 196.787 C 318.348 195.463 332.474 194.139 346.601 192.815 "/>
<path fill="#ffffff" fill-rule="evenodd" stroke="#000000" stroke-width="5" stroke-linecap="round" stroke-linejoin="round" d="M 297.459 154.653 C 297.458 154.651 297.706 144.694 287.558 134.623 C 271.976 119.159 250.898 118.131 240.303 122.911 C 230.369 127.392 222.770 144.160 230.983 154.072 C 249.074 175.904 268.568 148.747 283.393 150.356 C 292.940 151.392 297.458 154.652 297.459 154.653 Z"/>
<path fill="none" stroke="#000000" stroke-width="5" stroke-linecap="round" stroke-linejoin="round" d="M 381.134 106.886 C 392.888 114.164 404.643 114.376 400.653 118.892 C 396.200 123.932 389.934 118.373 389.933 118.373 C 389.932 118.373 390.960 122.924 385.291 125.611 "/>
<path fill="none" stroke="#000000" stroke-width="5" stroke-linecap="round" stroke-linejoin="round" d="M 253.747 160.570 C 258.094 158.858 263.097 153.602 263.837 147.491 C 264.585 141.313 262.589 135.096 257.069 132.225 C 251.391 129.272 243.437 130.078 240.233 135.618 C 235.146 144.414 241.882 153.782 248.501 150.342 C 251.358 148.857 254.200 142.964 248.521 141.703 "/>
<path fill="none" stroke="#000000" stroke-width="5" stroke-linecap="round" stroke-linejoin="round" d="M 294.062 151.181 C 285.902 142.132 281.405 140.112 271.847 137.908 C 267.434 136.890 265.551 137.790 262.403 137.731 "/>
</g>
<g id="specs">
<path fill="#239e46" fill-rule="evenodd" stroke="none" d="M 334.771 95.227 C 334.774 95.230 361.001 116.681 361.004 116.683 C 361.003 116.681 354.844 102.386 354.843 102.385 C 354.844 102.384 368.659 95.212 368.660 95.211 C 368.657 95.211 334.774 95.227 334.771 95.227 Z"/>
<path fill="none" stroke="#239e46" stroke-width="5" stroke-linecap="round" stroke-linejoin="round" d="M 155.003 59.085 C 155.005 59.081 172.167 10.953 172.168 10.948 C 172.194 10.957 425.480 101.277 425.505 101.286 C 425.503 101.290 408.342 149.418 408.340 149.423 C 408.315 149.414 155.028 59.094 155.003 59.085 "/>
<path fill="#239e46" fill-rule="evenodd" stroke="none" d="M 147.223 217.895 C 147.222 217.898 137.284 245.727 137.283 245.729 C 137.284 245.728 147.222 236.481 147.223 236.480 C 147.224 236.481 157.163 245.728 157.164 245.729 C 157.163 245.727 147.224 217.898 147.223 217.895 Z"/>
<path fill="#239e46" fill-rule="evenodd" stroke="none" d="M 284.495 514.505 C 284.494 514.508 276.729 543.020 276.729 543.023 C 276.729 543.022 285.926 533.036 285.927 533.035 C 285.928 533.036 296.549 541.490 296.551 541.491 C 296.549 541.488 284.496 514.508 284.495 514.505 Z"/>
<path fill="#239e46" fill-rule="evenodd" stroke="none" d="M 343.263 313.152 C 343.262 313.155 336.759 341.980 336.759 341.983 C 336.760 341.982 345.508 331.602 345.509 331.601 C 345.510 331.602 356.493 339.580 356.494 339.581 C 356.493 339.578 343.264 313.155 343.263 313.152 Z"/>
<path fill="none" stroke="#299e44" stroke-width="5" stroke-linecap="round" stroke-linejoin="round" d="M 310.543 358.782 C 310.542 358.774 301.704 286.168 301.703 286.161 C 301.710 286.160 374.316 277.322 374.323 277.321 C 374.324 277.329 383.162 349.935 383.163 349.942 C 383.156 349.943 310.550 358.781 310.543 358.782 M 232.698 557.456 C 232.697 557.446 224.703 454.006 224.702 453.996 C 224.713 453.995 328.153 446.001 328.163 446.001 C 328.164 446.011 336.157 549.451 336.158 549.461 C 336.148 549.462 232.708 557.455 232.698 557.456 M 77.670 256.728 C 77.670 256.715 77.670 128.252 77.670 128.240 C 77.683 128.240 206.145 128.240 206.158 128.240 C 206.158 128.252 206.158 256.715 206.158 256.728 C 206.145 256.728 77.683 256.728 77.670 256.728 "/>
</g>
</g>
</svg>
