<?xml version="1.0" encoding="utf-8"?>
<!-- Generator: Moho 12.5 build 22414 -->
<!DOCTYPE svg PUBLIC "-//W3C//DTD SVG 1.1//EN" "http://www.w3.org/Graphics/SVG/1.1/DTD/svg11.dtd">
<svg version="1.1" id="Frame_0" xmlns="http://www.w3.org/2000/svg" xmlns:xlink="http://www.w3.org/1999/xlink" width="720px" height="720px">
<g id="knight_1_3">
<g id="BG_mask_square_2">
<path fill="#c10077" fill-rule="evenodd" stroke="#000000" stroke-width="4" stroke-linecap="round" stroke-linejoin="round" d="M 716.168 3.417 C 716.097 3.417 3.977 3.417 3.906 3.417 C 3.906 3.488 3.906 715.608 3.906 715.679 C 3.977 715.679 716.097 715.679 716.168 715.679 C 716.168 715.608 716.168 3.488 716.168 3.417 Z"/>
</g>
<g id="boundingboxes">
<g id="boundingbox_left">
<path fill="#239e46" fill-rule="evenodd" stroke="none" d="M 335.601 90.809 C 335.604 90.811 360.222 110.946 360.224 110.948 C 360.224 110.946 354.442 97.528 354.442 97.527 C 354.443 97.526 367.410 90.794 367.411 90.793 C 367.408 90.793 335.604 90.809 335.601 90.809 Z"/>
<path fill="none" stroke="#239e46" stroke-width="4" stroke-linecap="round" stroke-linejoin="round" d="M 166.862 56.884 C 166.863 56.880 182.973 11.705 182.974 11.700 C 182.998 11.709 420.745 96.487 420.769 96.495 C 420.767 96.500 404.658 141.675 404.657 141.679 C 404.633 141.671 166.886 56.893 166.862 56.884 "/>
<path fill="#239e46" fill-rule="evenodd" stroke="none" d="M 158.998 208.111 C 158.997 208.114 148.465 237.603 148.464 237.606 C 148.465 237.605 158.997 227.806 158.998 227.805 C 158.999 227.806 169.530 237.605 169.531 237.606 C 169.530 237.603 158.999 208.114 158.998 208.111 Z"/>
<path fill="none" stroke="#299e44" stroke-width="4" stroke-linecap="round" stroke-linejoin="round" d="M 85.295 249.260 C 85.295 249.246 85.295 113.122 85.295 113.108 C 85.309 113.108 221.433 113.108 221.447 113.108 C 221.447 113.122 221.447 249.246 221.447 249.260 C 221.433 249.260 85.309 249.260 85.295 249.260 "/>
</g>
<g id="boundingbox_sword">
<path fill="#239e46" fill-rule="evenodd" stroke="none" d="M 335.601 90.809 C 335.604 90.811 360.222 110.946 360.224 110.948 C 360.224 110.946 354.442 97.528 354.442 97.527 C 354.443 97.526 367.410 90.794 367.411 90.793 C 367.408 90.793 335.604 90.809 335.601 90.809 Z"/>
<path fill="none" stroke="#239e46" stroke-width="4" stroke-linecap="round" stroke-linejoin="round" d="M 166.862 56.884 C 166.863 56.880 182.973 11.705 182.974 11.700 C 182.998 11.709 420.745 96.487 420.769 96.495 C 420.767 96.500 404.658 141.675 404.657 141.679 C 404.633 141.671 166.886 56.893 166.862 56.884 "/>
<path fill="#239e46" fill-rule="evenodd" stroke="none" d="M 158.998 208.111 C 158.997 208.114 148.465 237.603 148.464 237.606 C 148.465 237.605 158.997 227.806 158.998 227.805 C 158.999 227.806 169.530 237.605 169.531 237.606 C 169.530 237.603 158.999 208.114 158.998 208.111 Z"/>
<path fill="none" stroke="#299e44" stroke-width="4" stroke-linecap="round" stroke-linejoin="round" d="M 85.295 249.260 C 85.295 249.246 85.295 113.122 85.295 113.108 C 85.309 113.108 221.433 113.108 221.447 113.108 C 221.447 113.122 221.447 249.246 221.447 249.260 C 221.433 249.260 85.309 249.260 85.295 249.260 "/>
</g>
</g>
<g id="mask">
<path fill="#381578" fill-rule="evenodd" stroke="none" d="M 526.928 232.427 C 531.426 246.034 545.479 260.136 554.364 268.107 C 551.413 268.928 547.047 270.166 547.046 270.166 C 547.046 270.167 549.478 280.152 549.478 280.153 C 549.479 280.153 551.042 279.736 552.302 279.347 C 541.442 289.091 516.394 309.403 490.427 315.415 C 465.360 321.219 431.846 312.281 417.242 308.969 C 412.780 332.266 407.191 351.121 407.190 351.125 C 407.199 351.125 459.964 366.987 499.694 347.781 C 561.422 317.940 559.524 284.661 558.429 277.210 C 562.704 283.592 575.040 280.269 575.237 273.100 C 579.961 272.012 589.586 269.442 589.588 269.442 C 589.587 269.441 585.680 259.217 585.679 259.216 C 585.677 259.216 578.919 261.278 570.873 263.737 C 566.551 260.482 562.781 263.230 562.781 263.230 C 555.820 255.982 542.383 238.331 537.651 219.909 C 534.643 208.198 541.963 186.157 541.964 186.154 C 541.963 186.153 534.591 185.123 529.242 183.501 C 526.855 189.671 519.400 209.647 526.928 232.427 Z"/>
<path fill="#381578" fill-rule="evenodd" stroke="none" d="M 395.125 511.458 C 395.126 511.447 415.736 443.988 400.586 395.706 C 409.143 392.058 417.382 387.330 425.047 381.323 C 416.871 371.288 409.045 364.242 401.906 359.729 C 404.313 357.907 406.833 355.829 409.409 353.513 C 417.623 362.053 432.675 364.099 462.520 366.180 C 494.168 368.387 529.959 347.906 529.966 347.904 C 529.969 347.909 535.175 367.187 562.780 397.258 C 485.499 396.591 498.381 480.848 425.169 508.234 C 419.341 510.414 413.297 512.453 407.122 514.467 C 403.005 513.452 395.126 511.458 395.125 511.458 Z"/>
<path fill="#381578" fill-rule="evenodd" stroke="none" d="M 198.448 529.888 C 253.093 546.053 317.676 538.790 373.455 524.309 C 380.605 461.933 368.442 432.897 343.618 406.202 C 322.601 406.017 302.730 402.150 287.877 396.904 C 287.531 396.302 290.036 388.933 293.312 380.190 C 273.534 381.866 264.488 384.626 243.046 393.956 C 246.960 397.855 247.487 408.429 241.814 413.866 C 234.456 420.916 225.767 419.123 222.432 417.866 C 207.726 454.496 224.042 466.705 198.448 529.888 Z"/>
<path fill="none" stroke="#381578" stroke-width="1" stroke-linecap="butt" stroke-linejoin="round" d="M 293.312 380.190 C 290.036 388.933 287.531 396.302 287.877 396.904 "/>
<path fill="none" stroke="#381578" stroke-width="1" stroke-linecap="butt" stroke-linejoin="round" d="M 287.877 396.904 C 302.730 402.150 322.601 406.017 343.618 406.202 "/>
<path fill="none" stroke="#381578" stroke-width="1" stroke-linecap="butt" stroke-linejoin="round" d="M 400.586 395.706 C 409.143 392.058 417.382 387.330 425.047 381.323 "/>
<path fill="none" stroke="#381578" stroke-width="1" stroke-linecap="butt" stroke-linejoin="round" d="M 425.047 381.323 C 416.871 371.288 409.045 364.242 401.906 359.729 "/>
<path fill="#381578" fill-rule="evenodd" stroke="none" d="M 377.092 347.571 C 365.118 355.138 327.459 361.899 304.083 351.210 C 304.082 351.213 297.032 369.665 293.312 380.190 C 290.036 388.933 287.531 396.302 287.877 396.904 C 302.730 402.150 322.601 406.017 343.618 406.202 C 362.481 406.369 382.264 403.515 400.586 395.706 C 409.143 392.058 417.382 387.330 425.047 381.323 C 416.871 371.288 409.045 364.242 401.906 359.729 C 391.418 351.467 378.003 347.534 377.092 347.571 Z"/>
<path fill="none" stroke="#381578" stroke-width="1" stroke-linecap="butt" stroke-linejoin="round" d="M 377.092 347.571 C 365.118 355.138 327.459 361.899 304.083 351.210 "/>
<path fill="#381578" fill-rule="evenodd" stroke="none" d="M 304.083 351.210 C 299.417 298.867 287.496 290.746 272.827 256.212 C 274.860 254.598 276.456 253.293 278.084 251.936 C 281.516 254.793 311.968 270.257 335.276 261.961 C 356.368 254.454 364.551 236.856 367.018 223.253 C 369.534 226.690 370.731 230.266 373.577 235.400 C 384.103 254.389 393.730 286.926 377.092 347.571 C 365.118 355.138 327.459 361.899 304.083 351.210 Z"/>
</g>
<g id="art_knight">
<path fill="#000000" fill-rule="evenodd" stroke="#ffffff" stroke-width="4" stroke-linecap="round" stroke-linejoin="round" d="M 542.487 195.168 C 563.076 194.942 567.811 210.963 575.520 231.840 C 582.330 221.263 593.930 208.364 583.304 187.888 C 577.271 176.265 559.966 170.239 551.755 173.959 C 553.014 183.999 548.777 190.130 542.487 195.168 Z"/>
<path fill="none" stroke="#000000" stroke-width="1" stroke-linecap="butt" stroke-linejoin="round" d="M 551.755 173.959 C 553.014 183.999 548.777 190.130 542.487 195.168 "/>
<path fill="#000000" fill-rule="evenodd" stroke="#ffffff" stroke-width="4" stroke-linecap="round" stroke-linejoin="round" d="M 551.755 173.959 C 553.014 183.999 548.777 190.130 542.487 195.168 C 539.946 195.196 537.375 193.944 534.356 193.546 C 536.406 185.787 540.414 177.667 529.594 160.090 C 539.598 160.608 548.101 169.188 551.755 173.959 Z"/>
<path fill="none" stroke="#000000" stroke-width="1" stroke-linecap="butt" stroke-linejoin="round" d="M 529.594 160.090 C 540.414 177.667 536.406 185.787 534.356 193.546 "/>
<path fill="#000000" fill-rule="evenodd" stroke="#ffffff" stroke-width="4" stroke-linecap="round" stroke-linejoin="round" d="M 529.594 160.090 C 540.414 177.667 536.406 185.787 534.356 193.546 C 528.475 192.772 522.667 192.484 516.287 192.645 C 513.261 174.987 503.837 163.073 486.609 158.923 C 501.295 151.829 516.923 152.148 529.594 160.090 Z"/>
<path fill="none" stroke="#000000" stroke-width="1" stroke-linecap="butt" stroke-linejoin="round" d="M 486.609 158.923 C 503.837 163.073 513.261 174.987 516.287 192.645 "/>
<path fill="#000000" fill-rule="evenodd" stroke="#ffffff" stroke-width="4" stroke-linecap="round" stroke-linejoin="round" d="M 486.609 158.923 C 503.837 163.073 513.261 174.987 516.287 192.645 C 509.857 192.807 503.374 193.558 496.543 195.275 C 487.007 182.756 473.826 169.833 447.285 172.301 C 454.703 163.198 476.601 156.682 486.609 158.923 Z"/>
<path fill="none" stroke="#000000" stroke-width="1" stroke-linecap="butt" stroke-linejoin="round" d="M 447.285 172.301 C 473.826 169.833 487.007 182.756 496.543 195.275 "/>
<path fill="#000000" fill-rule="evenodd" stroke="#ffffff" stroke-width="4" stroke-linecap="round" stroke-linejoin="round" d="M 447.285 172.301 C 473.826 169.833 487.007 182.756 496.543 195.275 C 487.744 197.485 478.495 200.381 469.610 206.342 C 458.856 194.686 439.099 189.648 417.881 194.787 C 421.673 187.171 434.913 174.640 447.285 172.301 Z"/>
<path fill="none" stroke="#000000" stroke-width="1" stroke-linecap="butt" stroke-linejoin="round" d="M 417.881 194.787 C 439.099 189.648 458.856 194.686 469.610 206.342 "/>
<path fill="#000000" fill-rule="evenodd" stroke="#ffffff" stroke-width="4" stroke-linecap="round" stroke-linejoin="round" d="M 417.881 194.787 C 439.099 189.648 458.856 194.686 469.610 206.342 C 462.949 210.810 456.472 215.747 451.280 222.719 C 437.650 219.699 419.191 215.590 391.295 235.927 C 393.742 214.983 407.644 200.103 417.881 194.787 Z"/>
<path fill="none" stroke="#000000" stroke-width="1" stroke-linecap="butt" stroke-linejoin="round" d="M 391.295 235.927 C 419.191 215.590 437.650 219.699 451.280 222.719 "/>
<path fill="#000000" fill-rule="evenodd" stroke="#ffffff" stroke-width="4" stroke-linecap="round" stroke-linejoin="round" d="M 391.295 235.927 C 419.191 215.590 437.650 219.699 451.280 222.719 C 443.511 233.154 438.418 244.436 435.824 255.208 C 413.750 255.056 395.653 258.155 378.644 276.107 C 377.482 268.422 380.691 245.464 391.295 235.927 Z"/>
<path fill="none" stroke="#000000" stroke-width="1" stroke-linecap="butt" stroke-linejoin="round" d="M 378.644 276.107 C 395.653 258.155 413.750 255.056 435.824 255.208 "/>
<path fill="#000000" fill-rule="evenodd" stroke="#ffffff" stroke-width="4" stroke-linecap="round" stroke-linejoin="round" d="M 378.644 276.107 C 395.653 258.155 413.750 255.056 435.824 255.208 C 431.482 273.237 427.616 287.101 427.586 301.038 C 411.165 297.673 380.783 313.907 367.971 338.239 C 366.363 330.169 359.588 304.482 378.644 276.107 Z"/>
<path fill="none" stroke="#000000" stroke-width="1" stroke-linecap="butt" stroke-linejoin="round" d="M 367.971 338.239 C 380.783 313.907 411.165 297.673 427.586 301.038 "/>
<path fill="#000000" fill-rule="evenodd" stroke="#ffffff" stroke-width="4" stroke-linecap="round" stroke-linejoin="round" d="M 367.971 338.239 C 380.783 313.907 411.165 297.673 427.586 301.038 C 427.557 315.077 428.055 364.707 428.055 364.714 C 428.050 364.716 386.771 380.936 374.840 386.510 C 366.721 375.038 357.532 360.532 367.971 338.239 Z"/>
<path fill="#000000" fill-rule="evenodd" stroke="#ffffff" stroke-width="4" stroke-linecap="round" stroke-linejoin="round" d="M 244.016 412.207 C 208.136 407.740 226.587 432.265 194.576 436.277 C 189.468 406.111 204.820 394.686 222.849 390.866 C 236.465 391.983 240.332 408.458 244.016 412.207 Z"/>
<path fill="#ffffff" fill-rule="evenodd" stroke="#000000" stroke-width="4" stroke-linecap="round" stroke-linejoin="round" d="M 257.589 465.242 C 256.145 429.690 352.762 396.688 374.373 465.635 C 376.257 471.644 373.443 492.470 365.030 516.003 C 352.097 552.179 301.567 562.187 301.578 577.855 C 301.587 590.021 340.361 623.578 348.499 628.178 C 357.377 633.198 377.513 659.261 377.516 659.265 C 377.512 659.264 335.168 658.534 335.163 658.534 C 335.163 658.532 333.102 645.359 327.735 639.909 C 324.618 636.744 316.682 641.815 314.334 635.695 C 303.552 607.585 268.940 584.013 271.577 573.925 C 273.479 566.647 292.854 544.318 291.920 524.133 C 291.234 509.304 258.697 492.520 257.589 465.242 M 511.316 412.667 C 511.316 412.664 514.506 380.592 514.507 380.589 C 514.514 380.586 556.124 371.757 588.000 351.530 C 597.615 345.429 602.995 357.144 605.765 359.732 C 611.271 364.876 640.105 398.511 650.330 409.419 C 653.470 412.769 653.254 426.309 657.328 438.430 C 659.833 445.881 650.495 468.643 650.494 468.646 C 650.492 468.644 631.977 445.963 631.975 445.960 C 631.976 445.958 642.277 432.490 640.365 426.982 C 637.734 419.399 627.623 424.937 626.975 420.028 C 624.719 402.917 598.178 372.667 593.941 371.828 C 588.899 370.830 537.126 411.881 537.120 411.885 C 537.118 411.885 511.319 412.667 511.316 412.667 Z"/>
<path fill="#ffffff" fill-rule="evenodd" stroke="none" d="M 595.931 398.004 C 579.664 399.524 558.367 400.195 539.896 400.839 C 540.053 375.775 527.864 350.400 513.253 335.119 C 507.084 310.113 499.328 257.588 524.196 247.404 C 534.339 261.660 550.428 267.870 550.431 267.872 C 550.432 267.874 555.442 279.045 559.678 291.089 C 560.134 292.384 568.148 293.293 568.148 293.294 C 568.148 293.292 568.583 281.077 568.583 281.076 C 568.584 281.078 577.606 293.743 577.607 293.744 C 577.608 293.743 585.581 288.783 586.359 284.982 C 587.311 280.334 575.152 218.833 572.139 209.710 C 568.208 197.804 559.706 193.199 559.704 193.198 C 559.704 193.195 551.832 166.497 551.831 166.494 C 551.831 166.496 544.805 189.282 544.805 189.284 C 544.795 189.286 486.681 172.212 446.741 215.832 C 419.269 245.837 426.167 305.357 412.094 347.991 C 400.265 383.826 346.629 379.277 298.362 384.700 C 224.182 393.034 221.693 424.869 222.650 464.798 C 223.666 507.157 257.044 508.202 252.451 535.054 C 250.639 545.653 220.578 558.402 214.011 566.989 C 204.260 579.738 239.184 593.739 241.718 633.032 C 242.226 640.917 249.106 636.849 254.098 641.068 C 262.579 648.237 263.774 664.965 263.775 664.968 C 263.779 664.968 308.794 665.032 308.798 665.032 C 308.796 665.029 288.816 637.120 279.558 632.866 C 257.016 622.507 240.628 582.841 241.189 580.026 C 247.337 549.223 299.776 572.453 323.664 513.262 C 335.653 483.554 331.058 447.428 331.058 447.421 C 331.059 447.425 333.488 479.385 331.944 485.533 C 339.996 481.072 350.052 485.303 381.911 489.718 C 454.356 499.756 497.918 474.609 530.734 434.822 C 526.025 437.339 516.309 440.254 513.799 440.082 C 506.760 439.601 495.784 430.525 495.782 430.524 C 495.784 430.525 506.521 439.796 514.357 439.884 C 523.210 439.984 582.836 412.589 586.786 417.370 C 590.918 422.373 570.260 459.545 569.083 466.670 C 568.832 468.188 572.613 473.105 568.809 477.830 C 567.679 479.232 551.166 482.333 551.164 482.334 C 551.163 482.336 542.695 507.919 542.694 507.922 C 542.696 507.921 564.211 505.329 568.060 501.020 C 578.104 489.776 589.390 483.854 589.149 476.298 C 588.599 458.985 599.999 421.436 606.822 412.212 C 608.774 409.574 604.307 397.221 595.931 398.004 Z"/>
<path fill="none" stroke="#000000" stroke-width="4" stroke-linecap="round" stroke-linejoin="round" d="M 539.896 400.839 C 524.741 401.308 511.619 401.698 504.816 401.526 M 595.931 398.004 C 579.664 399.524 558.367 400.195 539.896 400.839 C 540.053 375.775 527.864 350.400 513.253 335.119 C 507.084 310.113 499.328 257.588 524.196 247.404 C 534.339 261.660 550.428 267.870 550.431 267.872 C 550.432 267.874 555.442 279.045 559.678 291.089 C 560.134 292.384 568.148 293.293 568.148 293.294 C 568.148 293.292 568.583 281.077 568.583 281.076 C 568.584 281.078 577.606 293.743 577.607 293.744 C 577.608 293.743 585.581 288.783 586.359 284.982 C 587.311 280.334 575.152 218.833 572.139 209.710 C 568.208 197.804 559.706 193.199 559.704 193.198 C 559.704 193.195 551.832 166.497 551.831 166.494 C 551.831 166.496 544.805 189.282 544.805 189.284 C 544.795 189.286 486.681 172.212 446.741 215.832 C 419.269 245.837 426.167 305.357 412.094 347.991 C 400.265 383.826 346.629 379.277 298.362 384.700 C 224.182 393.034 221.693 424.869 222.650 464.798 C 223.666 507.157 257.044 508.202 252.451 535.054 C 250.639 545.653 220.578 558.402 214.011 566.989 C 204.260 579.738 239.184 593.739 241.718 633.032 C 242.226 640.917 249.106 636.849 254.098 641.068 C 262.579 648.237 263.774 664.965 263.775 664.968 C 263.779 664.968 308.794 665.032 308.798 665.032 C 308.796 665.029 288.816 637.120 279.558 632.866 C 257.016 622.507 240.628 582.841 241.189 580.026 C 247.337 549.223 299.776 572.453 323.664 513.262 C 335.653 483.554 331.058 447.428 331.058 447.421 C 331.059 447.425 333.488 479.385 331.944 485.533 C 339.996 481.072 350.052 485.303 381.911 489.718 C 454.356 499.756 497.918 474.609 530.734 434.822 C 526.025 437.339 516.309 440.254 513.799 440.082 C 506.760 439.601 495.784 430.525 495.782 430.524 C 495.784 430.525 506.521 439.796 514.357 439.884 C 523.210 439.984 582.836 412.589 586.786 417.370 C 590.918 422.373 570.260 459.545 569.083 466.670 C 568.832 468.188 572.613 473.105 568.809 477.830 C 567.679 479.232 551.166 482.333 551.164 482.334 C 551.163 482.336 542.695 507.919 542.694 507.922 C 542.696 507.921 564.211 505.329 568.060 501.020 C 578.104 489.776 589.390 483.854 589.149 476.298 C 588.599 458.985 599.999 421.436 606.822 412.212 C 608.774 409.574 604.307 397.221 595.931 398.004 "/>
<path fill="#ffffff" fill-rule="evenodd" stroke="#000000" stroke-width="4" stroke-linecap="round" stroke-linejoin="round" d="M 180.852 246.864 C 180.859 246.862 227.171 288.508 259.108 229.818 C 265.793 239.320 270.337 245.488 278.084 251.936 C 276.456 253.293 274.860 254.598 272.827 256.212 C 222.741 296.343 205.297 282.726 174.675 257.623 C 146.780 265.049 126.842 251.389 126.095 247.290 C 140.809 247.324 180.846 246.864 180.852 246.864 Z"/>
<path fill="#ffffff" fill-rule="evenodd" stroke="#000000" stroke-width="4" stroke-linecap="round" stroke-linejoin="round" d="M 383.271 136.025 C 398.393 157.420 385.876 189.893 367.453 208.169 C 367.601 211.391 368.179 216.851 367.018 223.253 C 369.534 226.690 370.731 230.266 373.577 235.400 C 399.020 214.807 430.047 164.361 396.607 129.099 C 393.885 126.228 392.160 124.840 392.160 124.840 C 392.161 124.838 401.928 107.461 401.929 107.459 C 401.927 107.458 379.130 95.357 379.127 95.356 C 379.127 95.357 375.878 104.899 375.878 104.900 C 375.878 104.901 369.855 121.037 369.854 121.039 C 369.856 121.040 377.833 128.332 383.271 136.025 Z"/>
<path fill="none" stroke="#000000" stroke-width="4" stroke-linecap="round" stroke-linejoin="round" d="M 375.878 104.900 C 386.913 111.729 397.947 111.925 394.203 116.164 C 390.024 120.896 384.141 115.680 384.140 115.680 C 384.140 115.680 385.106 119.951 379.785 122.475 "/>
<path fill="none" stroke="#000000" stroke-width="1" stroke-linecap="butt" stroke-linejoin="round" d="M 272.827 256.212 C 274.860 254.598 276.456 253.293 278.084 251.936 "/>
<path fill="none" stroke="#000000" stroke-width="1" stroke-linecap="butt" stroke-linejoin="round" d="M 367.018 223.253 C 369.534 226.690 370.731 230.266 373.577 235.400 "/>
<path fill="#000000" fill-rule="evenodd" stroke="#ffffff" stroke-width="4" stroke-linecap="round" stroke-linejoin="round" d="M 304.083 351.210 C 299.417 298.867 287.496 290.746 272.827 256.212 C 274.860 254.598 276.456 253.293 278.084 251.936 C 281.516 254.793 311.968 270.257 335.276 261.961 C 356.368 254.454 364.551 236.856 367.018 223.253 C 369.534 226.690 370.731 230.266 373.577 235.400 C 384.103 254.389 393.730 286.926 377.092 347.571 C 365.118 355.138 327.459 361.899 304.083 351.210 Z"/>
<path fill="#000000" fill-rule="evenodd" stroke="#ffffff" stroke-width="4" stroke-linecap="round" stroke-linejoin="round" d="M 198.448 529.888 C 253.093 546.053 317.676 538.790 373.455 524.309 C 380.605 461.933 368.442 432.897 343.618 406.202 C 322.601 406.017 302.730 402.150 287.877 396.904 C 287.531 396.302 290.036 388.933 293.312 380.190 C 273.534 381.866 264.488 384.626 243.046 393.956 C 246.960 397.855 247.487 408.429 241.814 413.866 C 234.456 420.916 225.767 419.123 222.432 417.866 C 207.726 454.496 224.042 466.705 198.448 529.888 Z"/>
<path fill="#000000" fill-rule="evenodd" stroke="#ffffff" stroke-width="4" stroke-linecap="round" stroke-linejoin="round" d="M 395.125 511.458 C 395.126 511.447 415.736 443.988 400.586 395.706 C 409.143 392.058 417.382 387.330 425.047 381.323 C 416.871 371.288 409.045 364.242 401.906 359.729 C 404.313 357.907 406.833 355.829 409.409 353.513 C 417.623 362.053 432.675 364.099 462.520 366.180 C 494.168 368.387 529.959 347.906 529.966 347.904 C 529.969 347.909 535.175 367.187 562.780 397.258 C 485.499 396.591 498.381 480.848 425.169 508.234 C 419.341 510.414 413.297 512.453 407.122 514.467 C 403.005 513.452 395.126 511.458 395.125 511.458 Z"/>
<path fill="#000000" fill-rule="evenodd" stroke="#ffffff" stroke-width="4" stroke-linecap="round" stroke-linejoin="round" d="M 526.928 232.427 C 531.426 246.034 545.479 260.136 554.364 268.107 C 551.413 268.928 547.047 270.166 547.046 270.166 C 547.046 270.167 549.478 280.152 549.478 280.153 C 549.479 280.153 551.042 279.736 552.302 279.347 C 541.442 289.091 516.394 309.403 490.427 315.415 C 465.360 321.219 431.846 312.281 417.242 308.969 C 412.780 332.266 407.191 351.121 407.190 351.125 C 407.199 351.125 459.964 366.987 499.694 347.781 C 561.422 317.940 559.524 284.661 558.429 277.210 C 562.704 283.592 575.040 280.269 575.237 273.100 C 579.961 272.012 589.586 269.442 589.588 269.442 C 589.587 269.441 585.680 259.217 585.679 259.216 C 585.677 259.216 578.919 261.278 570.873 263.737 C 566.551 260.482 562.781 263.230 562.781 263.230 C 555.820 255.982 542.383 238.331 537.651 219.909 C 534.643 208.198 541.963 186.157 541.964 186.154 C 541.963 186.153 534.591 185.123 529.242 183.501 C 526.855 189.671 519.400 209.647 526.928 232.427 Z"/>
<path fill="none" stroke="#ffffff" stroke-width="1" stroke-linecap="butt" stroke-linejoin="round" d="M 343.618 406.202 C 368.442 432.897 380.605 461.933 373.455 524.309 "/>
<path fill="none" stroke="#ffffff" stroke-width="1" stroke-linecap="butt" stroke-linejoin="round" d="M 407.122 514.467 C 403.005 513.452 395.126 511.458 395.125 511.458 "/>
<path fill="none" stroke="#ffffff" stroke-width="1" stroke-linecap="butt" stroke-linejoin="round" d="M 395.125 511.458 C 395.126 511.447 415.736 443.988 400.586 395.706 "/>
<path fill="#ffffff" fill-rule="evenodd" stroke="#000000" stroke-width="4" stroke-linecap="round" stroke-linejoin="round" d="M 400.586 395.706 C 382.264 403.515 362.481 406.369 343.618 406.202 C 368.442 432.897 380.605 461.933 373.455 524.309 C 373.077 526.910 372.647 530.250 372.163 533.684 C 396.484 533.018 446.508 524.463 446.515 524.462 C 446.512 524.461 420.135 517.786 407.122 514.467 C 403.005 513.452 395.126 511.458 395.125 511.458 C 395.126 511.447 415.736 443.988 400.586 395.706 Z"/>
<path fill="none" stroke="#ffffff" stroke-width="1" stroke-linecap="butt" stroke-linejoin="round" d="M 367.453 208.169 C 367.601 211.391 368.179 216.851 367.018 223.253 "/>
<path fill="none" stroke="#ffffff" stroke-width="1" stroke-linecap="butt" stroke-linejoin="round" d="M 367.018 223.253 C 364.551 236.856 356.368 254.454 335.276 261.961 "/>
<path fill="none" stroke="#ffffff" stroke-width="1" stroke-linecap="butt" stroke-linejoin="round" d="M 335.276 261.961 C 311.968 270.257 281.516 254.793 278.084 251.936 "/>
<path fill="none" stroke="#ffffff" stroke-width="1" stroke-linecap="butt" stroke-linejoin="round" d="M 278.084 251.936 C 270.337 245.488 265.793 239.320 259.108 229.818 "/>
<path fill="#ffffff" fill-rule="evenodd" stroke="#000000" stroke-width="4" stroke-linecap="round" stroke-linejoin="round" d="M 366.511 204.458 C 367.947 203.909 367.341 205.714 367.453 208.169 C 367.601 211.391 368.179 216.851 367.018 223.253 C 364.551 236.856 356.368 254.454 335.276 261.961 C 311.968 270.257 281.516 254.793 278.084 251.936 C 270.337 245.488 265.793 239.320 259.108 229.818 C 256.996 226.817 255.075 222.604 255.074 222.603 C 255.079 222.603 300.577 219.560 300.581 219.559 C 300.583 219.556 281.104 200.781 276.426 186.130 C 279.090 170.532 297.515 150.612 297.517 150.608 C 297.521 150.610 329.180 157.606 334.714 169.455 C 334.713 169.459 335.887 184.652 332.703 214.308 C 343.446 211.454 356.371 208.338 366.511 204.458 Z"/>
<path fill="#ffffff" fill-rule="evenodd" stroke="none" d="M 292.150 184.771 C 292.155 184.769 342.528 170.451 342.533 170.450 C 342.534 170.453 344.707 203.382 344.708 203.385 C 344.703 203.385 296.508 197.162 294.722 195.335 C 294.461 195.067 292.151 184.772 292.150 184.771 Z"/>
<path fill="none" stroke="#000000" stroke-width="4" stroke-linecap="round" stroke-linejoin="round" d="M 303.707 189.303 C 316.966 188.057 330.225 186.811 343.484 185.565 M 294.722 195.335 C 294.461 195.067 292.151 184.772 292.150 184.771 C 292.155 184.769 342.528 170.451 342.533 170.450 C 342.534 170.453 344.707 203.382 344.708 203.385 C 344.703 203.385 296.508 197.162 294.722 195.335 "/>
<path fill="none" stroke="#000000" stroke-width="1" stroke-linecap="butt" stroke-linejoin="round" d="M 377.092 347.571 C 365.118 355.138 327.459 361.899 304.083 351.210 "/>
<path fill="none" stroke="#000000" stroke-width="1" stroke-linecap="butt" stroke-linejoin="round" d="M 293.312 380.190 C 290.036 388.933 287.531 396.302 287.877 396.904 "/>
<path fill="none" stroke="#000000" stroke-width="1" stroke-linecap="butt" stroke-linejoin="round" d="M 287.877 396.904 C 302.730 402.150 322.601 406.017 343.618 406.202 "/>
<path fill="none" stroke="#000000" stroke-width="1" stroke-linecap="butt" stroke-linejoin="round" d="M 343.618 406.202 C 362.481 406.369 382.264 403.515 400.586 395.706 "/>
<path fill="none" stroke="#000000" stroke-width="1" stroke-linecap="butt" stroke-linejoin="round" d="M 400.586 395.706 C 409.143 392.058 417.382 387.330 425.047 381.323 "/>
<path fill="none" stroke="#000000" stroke-width="1" stroke-linecap="butt" stroke-linejoin="round" d="M 425.047 381.323 C 416.871 371.288 409.045 364.242 401.906 359.729 "/>
<path fill="#000000" fill-rule="evenodd" stroke="#ffffff" stroke-width="4" stroke-linecap="round" stroke-linejoin="round" d="M 377.092 347.571 C 365.118 355.138 327.459 361.899 304.083 351.210 C 304.082 351.213 297.032 369.665 293.312 380.190 C 290.036 388.933 287.531 396.302 287.877 396.904 C 302.730 402.150 322.601 406.017 343.618 406.202 C 362.481 406.369 382.264 403.515 400.586 395.706 C 409.143 392.058 417.382 387.330 425.047 381.323 C 416.871 371.288 409.045 364.242 401.906 359.729 C 391.418 351.467 378.003 347.534 377.092 347.571 Z"/>
<path fill="#000000" fill-rule="evenodd" stroke="none" d="M 579.382 279.211 C 577.786 278.954 576.292 280.034 576.035 281.629 C 575.778 283.225 576.858 284.720 578.453 284.977 C 580.049 285.234 581.544 284.154 581.801 282.558 C 582.058 280.962 580.978 279.468 579.382 279.211 Z"/>
<path fill="none" stroke="#000000" stroke-width="4" stroke-linecap="round" stroke-linejoin="round" d="M 394.203 116.164 C 390.024 120.896 384.141 115.680 384.140 115.680 C 384.140 115.680 385.106 119.951 379.785 122.475 "/>
<path fill="none" stroke="#000000" stroke-width="1" stroke-linecap="butt" stroke-linejoin="round" d="M 222.849 390.866 C 204.820 394.686 189.468 406.111 194.576 436.277 "/>
<path fill="#000000" fill-rule="evenodd" stroke="#ffffff" stroke-width="4" stroke-linecap="round" stroke-linejoin="round" d="M 188.283 384.488 C 197.076 379.170 214.060 378.121 222.849 390.866 C 204.820 394.686 189.468 406.111 194.576 436.277 C 196.700 448.817 195.930 474.754 175.528 480.239 C 167.228 440.907 159.506 403.829 188.283 384.488 Z"/>
<path fill="none" stroke="#000000" stroke-width="1" stroke-linecap="butt" stroke-linejoin="round" d="M 175.528 480.239 C 167.228 440.907 159.506 403.829 188.283 384.488 "/>
<path fill="#000000" fill-rule="evenodd" stroke="#ffffff" stroke-width="4" stroke-linecap="round" stroke-linejoin="round" d="M 151.792 394.720 C 126.089 426.701 157.276 490.537 151.560 551.025 C 172.717 537.041 181.317 507.670 175.528 480.239 C 167.228 440.907 159.506 403.829 188.283 384.488 C 168.894 379.938 156.960 389.467 151.792 394.720 Z"/>
<path fill="none" stroke="#000000" stroke-width="1" stroke-linecap="butt" stroke-linejoin="round" d="M 151.792 394.720 C 126.089 426.701 157.276 490.537 151.560 551.025 "/>
<path fill="#000000" fill-rule="evenodd" stroke="#ffffff" stroke-width="4" stroke-linecap="round" stroke-linejoin="round" d="M 151.560 551.025 C 147.752 591.313 124.713 601.342 112.952 599.280 C 133.709 530.874 105.070 458.271 125.091 418.103 C 130.285 407.678 138.548 394.238 151.792 394.720 C 126.089 426.701 157.276 490.537 151.560 551.025 Z"/>
<path fill="none" stroke="#000000" stroke-width="1" stroke-linecap="butt" stroke-linejoin="round" d="M 125.091 418.103 C 105.070 458.271 133.709 530.874 112.952 599.280 "/>
<path fill="#000000" fill-rule="evenodd" stroke="#ffffff" stroke-width="4" stroke-linecap="round" stroke-linejoin="round" d="M 112.952 599.280 C 99.744 624.217 79.117 632.802 61.904 616.342 C 104.586 572.761 84.062 509.223 92.315 468.345 C 96.410 448.061 106.299 429.373 125.091 418.103 C 105.070 458.271 133.709 530.874 112.952 599.280 Z"/>
<path fill="none" stroke="#ffffff" stroke-width="4" stroke-linecap="round" stroke-linejoin="round" d="M 61.904 616.342 C 104.586 572.761 84.062 509.223 92.315 468.345 "/>
<path fill="#000000" fill-rule="evenodd" stroke="none" d="M 558.782 228.186 C 562.629 225.406 563.490 220.062 560.710 216.215 C 557.931 212.369 552.586 211.508 548.739 214.287 C 544.893 217.066 544.032 222.411 546.811 226.258 C 549.591 230.104 554.936 230.965 558.782 228.186 M 567.075 239.398 C 567.075 239.395 573.605 227.174 564.070 213.979 C 554.536 200.784 540.882 203.147 540.880 203.146 C 540.880 203.148 534.352 215.369 543.886 228.564 C 553.420 241.758 567.073 239.397 567.075 239.398 Z"/>
<path fill="none" stroke="#ffffff" stroke-width="4" stroke-linecap="round" stroke-linejoin="round" d="M 204.175 521.293 C 257.196 536.430 319.616 528.808 373.452 514.283 "/>
<path fill="none" stroke="#ffffff" stroke-width="4" stroke-linecap="round" stroke-linejoin="round" d="M 398.527 506.831 C 404.702 504.817 410.684 502.606 416.573 500.598 C 488.791 475.973 483.648 386.939 555.139 389.144 "/>
<path fill="none" stroke="#ffffff" stroke-width="4" stroke-linecap="round" stroke-linejoin="round" d="M 409.575 342.531 C 414.291 343.442 463.244 357.222 500.646 338.709 C 549.726 314.415 558.993 284.557 558.429 277.688 "/>
</g>
</g>
</svg>
