<?xml version="1.0" encoding="utf-8"?>
<!-- Generator: Moho 12.5 build 22414 -->
<!DOCTYPE svg PUBLIC "-//W3C//DTD SVG 1.1//EN" "http://www.w3.org/Graphics/SVG/1.1/DTD/svg11.dtd">
<svg version="1.1" id="Frame_0" xmlns="http://www.w3.org/2000/svg" xmlns:xlink="http://www.w3.org/1999/xlink" width="720px" height="720px">
<g id="Queen_1_3">
<g id="square_BG">
<path fill="#c10077" fill-rule="evenodd" stroke="#000000" stroke-width="3" stroke-linecap="round" stroke-linejoin="round" d="M 90.417 171.467 C 90.471 171.467 629.529 171.467 629.583 171.467 C 629.583 171.521 629.583 710.579 629.583 710.633 C 629.529 710.633 90.471 710.633 90.417 710.633 C 90.417 710.579 90.417 171.521 90.417 171.467 Z"/>
</g>
<g id="specs">
<path fill="none" stroke="#299e44" stroke-width="3" stroke-linecap="round" stroke-linejoin="round" d="M 563.029 438.998 C 563.029 438.989 563.029 344.295 563.029 344.286 C 563.035 344.286 632.099 344.286 632.106 344.286 C 632.106 344.295 632.106 438.989 632.106 438.998 C 632.099 438.998 563.035 438.998 563.029 438.998 "/>
<path fill="none" stroke="#299e44" stroke-width="3" stroke-linecap="round" stroke-linejoin="round" d="M 91.073 486.235 C 91.073 486.205 91.073 178.726 91.073 178.695 C 91.079 178.695 154.545 178.695 154.551 178.695 C 154.551 178.726 154.551 486.205 154.551 486.235 C 154.545 486.235 91.079 486.235 91.073 486.235 "/>
<path fill="#239e46" fill-rule="evenodd" stroke="none" d="M 122.411 397.792 C 122.412 397.795 131.709 423.826 131.710 423.829 C 131.709 423.828 122.412 415.178 122.411 415.177 C 122.410 415.178 113.114 423.828 113.113 423.829 C 113.114 423.826 122.410 397.795 122.411 397.792 Z"/>
<path fill="#239e46" fill-rule="evenodd" stroke="none" d="M 599.775 397.792 C 599.776 397.795 609.073 423.826 609.074 423.829 C 609.073 423.828 599.776 415.178 599.775 415.177 C 599.774 415.178 590.477 423.828 590.476 423.829 C 590.477 423.826 599.774 397.795 599.775 397.792 Z"/>
<path fill="none" stroke="#299e44" stroke-width="3" stroke-linecap="round" stroke-linejoin="round" d="M 195.255 336.212 C 195.255 336.179 195.255 6.755 195.255 6.722 C 195.288 6.722 524.712 6.722 524.745 6.722 C 524.745 6.755 524.745 336.179 524.745 336.212 C 524.712 336.212 195.288 336.212 195.255 336.212 "/>
<path fill="#239e46" fill-rule="evenodd" stroke="none" d="M 360.000 186.444 C 368.290 186.444 374.977 179.757 374.977 171.467 C 374.977 163.177 368.290 156.490 360.000 156.490 C 351.710 156.490 345.023 163.177 345.023 171.467 C 345.023 179.757 351.710 186.444 360.000 186.444 Z"/>
</g>
<g id="mask_cloak">
<path fill="#381578" fill-rule="evenodd" stroke="none" d="M 314.260 231.408 C 344.755 231.418 375.251 231.427 405.746 231.437 C 405.746 231.431 407.182 175.072 407.182 175.066 C 407.180 175.069 382.494 203.074 382.492 203.077 C 382.490 203.074 360.002 174.614 360.000 174.611 C 359.998 174.614 337.510 202.814 337.508 202.817 C 337.506 202.814 312.820 174.809 312.818 174.807 C 312.818 174.812 314.260 231.403 314.260 231.408 Z"/>
<path fill="#381578" fill-rule="evenodd" stroke="none" d="M 361.933 335.949 C 361.937 335.947 387.275 322.786 399.815 316.231 C 402.177 317.723 403.921 319.379 404.952 321.235 C 479.814 456.027 584.634 441.038 584.652 441.050 C 584.652 441.077 584.652 710.606 584.652 710.633 C 584.607 710.633 135.393 710.633 135.348 710.633 C 135.348 710.606 135.348 441.077 135.348 441.050 C 135.366 441.038 240.187 456.027 315.119 321.235 C 316.074 319.517 317.641 317.970 319.884 316.472 C 329.852 321.081 361.929 335.947 361.933 335.949 Z"/>
</g>
<g id="hands">
<path fill="#ffffff" fill-rule="evenodd" stroke="none" d="M 135.348 471.004 C 135.348 471.001 135.348 441.053 135.348 441.050 C 135.345 441.050 110.928 441.050 110.926 441.050 C 110.925 441.050 95.951 441.050 95.949 441.050 C 95.949 441.051 95.949 471.002 95.949 471.004 C 95.952 471.004 120.767 471.004 120.769 471.004 C 120.770 471.004 135.346 471.004 135.348 471.004 Z"/>
<path fill="none" stroke="#000000" stroke-width="3" stroke-linecap="round" stroke-linejoin="round" d="M 95.949 448.241 C 100.941 448.241 105.934 448.241 110.926 448.241 M 95.949 463.198 C 100.941 463.198 105.934 463.198 110.926 463.198 M 95.949 456.027 C 100.941 456.027 105.934 456.027 110.926 456.027 M 120.985 452.921 C 120.986 452.922 123.647 461.935 134.507 465.009 M 120.769 471.004 C 120.841 464.976 120.985 452.923 120.985 452.921 M 110.926 441.050 C 110.926 446.042 110.926 466.011 110.926 471.004 M 120.769 471.004 C 120.770 471.004 135.346 471.004 135.348 471.004 C 135.348 471.001 135.348 441.053 135.348 441.050 C 135.345 441.050 110.928 441.050 110.926 441.050 C 110.925 441.050 95.951 441.050 95.949 441.050 C 95.949 441.051 95.949 471.002 95.949 471.004 C 95.952 471.004 120.767 471.004 120.769 471.004 "/>
<path fill="#ffffff" fill-rule="evenodd" stroke="none" d="M 569.676 441.050 C 569.682 441.050 629.577 441.050 629.583 441.050 C 629.580 441.051 613.875 452.703 599.629 456.027 C 586.887 458.999 569.679 456.027 569.676 456.027 C 569.676 456.025 569.676 441.051 569.676 441.050 Z"/>
<path fill="none" stroke="#000000" stroke-width="3" stroke-linecap="round" stroke-linejoin="round" d="M 592.712 445.884 C 597.600 444.200 600.542 443.251 604.240 441.102 M 602.671 446.781 C 607.552 444.592 610.908 443.277 614.024 441.126 M 611.488 447.111 C 615.255 445.318 619.067 443.382 622.199 440.976 M 569.676 456.027 C 569.676 456.025 569.676 441.051 569.676 441.050 C 569.682 441.050 629.577 441.050 629.583 441.050 C 629.580 441.051 613.875 452.703 599.629 456.027 C 586.887 458.999 569.679 456.027 569.676 456.027 "/>
</g>
<g id="queen">
<path fill="none" stroke="#000000" stroke-width="3" stroke-linecap="round" stroke-linejoin="round" d="M 135.348 710.633 C 135.348 710.606 135.348 441.077 135.348 441.050 C 135.366 441.038 240.186 456.026 315.119 321.235 C 324.672 304.051 395.406 304.047 404.952 321.235 C 479.814 456.026 584.634 441.038 584.652 441.050 C 584.652 441.077 584.652 710.606 584.652 710.633 C 584.607 710.633 135.393 710.633 135.348 710.633 "/>
<path fill="#000000" fill-rule="evenodd" stroke="none" d="M 330.046 366.166 C 330.052 366.166 389.948 366.166 389.954 366.166 C 389.954 366.200 389.954 710.598 389.954 710.633 C 389.948 710.633 330.052 710.633 330.046 710.633 C 330.046 710.598 330.046 366.200 330.046 366.166 Z"/>
<path fill="none" stroke="#ffffff" stroke-width="3" stroke-linecap="round" stroke-linejoin="round" d="M 360.000 358.409 C 360.000 475.816 360.000 593.225 360.000 710.633 M 330.046 710.633 C 330.046 710.598 330.046 366.200 330.046 366.166 C 330.052 366.166 389.948 366.166 389.954 366.166 C 389.954 366.200 389.954 710.598 389.954 710.633 C 389.948 710.633 330.052 710.633 330.046 710.633 "/>
<path fill="#000000" fill-rule="evenodd" stroke="#ffffff" stroke-width="3" stroke-linecap="round" stroke-linejoin="round" d="M 290.033 354.630 C 322.732 316.287 315.067 246.362 315.069 246.351 C 314.800 241.370 314.260 231.410 314.260 231.408 C 344.755 231.418 375.251 231.427 405.746 231.437 C 405.745 231.439 404.931 246.350 404.931 246.351 C 404.933 246.362 397.102 316.538 429.967 354.889 C 430.682 355.724 397.752 381.743 360.000 380.665 C 321.936 381.037 289.323 355.462 290.033 354.630 Z"/>
<path fill="#ffffff" fill-rule="evenodd" stroke="#000000" stroke-width="3" stroke-linecap="round" stroke-linejoin="round" d="M 360.000 325.749 C 406.871 317.509 400.358 248.165 400.361 248.161 C 386.908 248.075 333.092 247.902 319.639 247.902 C 319.642 247.905 313.212 317.640 360.000 325.749 Z"/>
<path fill="none" stroke="#000000" stroke-width="3" stroke-linecap="round" stroke-linejoin="round" d="M 349.322 304.340 C 349.323 304.341 355.364 310.077 360.000 310.119 C 364.590 310.160 370.677 304.600 370.678 304.600 C 370.677 304.600 360.001 304.986 360.000 304.986 C 360.000 304.986 349.323 304.340 349.322 304.340 C 349.323 304.340 355.614 300.064 360.000 300.108 C 364.423 300.153 370.677 304.599 370.678 304.600 "/>
<path fill="#000000" fill-rule="evenodd" stroke="none" d="M 387.791 264.508 C 386.037 264.193 383.984 264.196 381.635 264.196 C 379.081 264.196 376.876 264.195 374.970 264.564 C 374.704 265.298 374.570 266.057 374.570 266.849 C 374.570 270.619 377.612 273.660 381.382 273.660 C 385.152 273.660 388.193 270.619 388.193 266.849 C 388.193 266.019 388.046 265.225 387.791 264.508 M 332.209 264.248 C 333.963 263.933 336.016 263.936 338.365 263.936 C 340.919 263.936 343.124 263.935 345.030 264.304 C 345.296 265.038 345.430 265.797 345.430 266.589 C 345.430 270.359 342.388 273.400 338.618 273.400 C 334.848 273.400 331.807 270.359 331.807 266.589 C 331.807 265.760 331.954 264.965 332.209 264.248 Z"/>
<path fill="none" stroke="#000000" stroke-width="3" stroke-linecap="round" stroke-linejoin="round" d="M 314.260 231.408 C 344.755 231.418 375.251 231.427 405.746 231.437 C 405.746 231.431 407.182 175.072 407.182 175.066 C 407.180 175.069 382.494 203.074 382.492 203.077 C 382.490 203.074 360.002 174.614 360.000 174.611 C 359.998 174.614 337.510 202.814 337.508 202.817 C 337.506 202.814 312.820 174.809 312.818 174.807 C 312.818 174.812 314.260 231.403 314.260 231.408 "/>
<path fill="none" stroke="#000000" stroke-width="3" stroke-linecap="round" stroke-linejoin="round" d="M 398.870 259.303 C 385.351 254.479 373.201 254.358 362.504 258.339 C 361.408 258.747 362.115 291.950 362.115 291.954 C 362.115 291.954 357.904 291.933 357.903 291.933 C 357.903 291.930 358.600 258.489 357.496 258.079 C 346.795 254.109 334.649 254.219 321.130 259.043 M 387.791 264.508 C 386.037 264.193 383.984 264.196 381.635 264.196 C 379.081 264.196 376.876 264.195 374.970 264.564 C 369.267 265.406 365.649 267.939 365.648 267.939 C 365.649 267.940 370.541 275.217 381.635 275.217 C 392.728 275.217 397.619 267.940 397.621 267.939 C 397.620 267.939 393.855 265.343 387.791 264.508 M 332.209 264.248 C 333.963 263.933 336.016 263.936 338.365 263.936 C 340.919 263.936 343.124 263.935 345.030 264.304 C 350.733 265.146 354.351 267.679 354.352 267.679 C 354.351 267.680 349.459 274.957 338.365 274.957 C 327.272 274.957 322.381 267.680 322.379 267.679 C 322.380 267.679 326.145 265.083 332.209 264.248 "/>
<path fill="none" stroke="#000000" stroke-width="3" stroke-linecap="round" stroke-linejoin="round" d="M 314.390 221.731 C 344.782 221.731 375.175 221.731 405.568 221.731 "/>
<path fill="none" stroke="#ffffff" stroke-width="3" stroke-linecap="round" stroke-linejoin="round" d="M 294.895 348.397 C 294.902 348.399 322.604 370.826 360.481 370.723 C 397.860 370.621 425.098 348.399 425.105 348.397 M 315.295 239.128 C 345.084 239.128 374.874 239.128 404.663 239.128 "/>
<path fill="#000000" fill-rule="evenodd" stroke="#ffffff" stroke-width="3" stroke-linecap="round" stroke-linejoin="round" d="M 554.699 710.633 C 554.699 710.605 554.699 436.872 554.699 436.845 C 554.702 436.845 584.649 436.845 584.652 436.845 C 584.652 436.872 584.652 710.605 584.652 710.633 C 584.649 710.633 554.702 710.633 554.699 710.633 M 135.348 710.633 C 135.348 710.605 135.348 436.872 135.348 436.845 C 135.351 436.845 165.298 436.845 165.301 436.845 C 165.301 436.872 165.301 710.605 165.301 710.633 C 165.298 710.633 135.351 710.633 135.348 710.633 Z"/>
<path fill="none" stroke="#000000" stroke-width="3" stroke-linecap="round" stroke-linejoin="round" d="M 90.417 710.633 C 90.417 710.579 90.417 171.521 90.417 171.467 C 90.471 171.467 629.529 171.467 629.583 171.467 C 629.583 171.521 629.583 710.579 629.583 710.633 C 629.529 710.633 90.471 710.633 90.417 710.633 "/>
</g>
</g>
</svg>
