<?xml version="1.0" encoding="utf-8"?>
<!-- Generator: Moho 12.5 build 22414 -->
<!DOCTYPE svg PUBLIC "-//W3C//DTD SVG 1.1//EN" "http://www.w3.org/Graphics/SVG/1.1/DTD/svg11.dtd">
<svg version="1.1" id="Frame_0" xmlns="http://www.w3.org/2000/svg" xmlns:xlink="http://www.w3.org/1999/xlink" width="720px" height="720px">
<g id="antler">
<g id="antler">
<path fill="#ffffff" fill-rule="evenodd" stroke="#000000" stroke-width="4" stroke-linecap="round" stroke-linejoin="round" d="M 101.548 613.672 C 101.555 613.662 126.259 554.400 166.826 512.025 C 195.044 482.548 219.865 465.586 238.695 448.219 C 263.166 425.649 298.626 355.713 285.075 300.093 C 267.194 226.705 203.274 206.090 203.266 206.081 C 203.278 206.090 286.407 193.851 321.111 299.116 C 338.351 351.406 315.503 412.346 315.503 412.357 C 315.512 412.353 376.858 382.006 407.121 366.189 C 446.096 345.819 478.175 323.433 511.967 269.697 C 566.517 182.951 473.148 64.862 473.144 64.853 C 473.151 64.860 606.472 158.517 555.534 286.796 C 520.715 374.480 430.610 411.051 430.598 411.063 C 430.605 411.067 462.508 448.721 501.526 448.810 C 564.956 448.955 609.593 402.332 609.604 402.328 C 609.594 402.336 598.065 472.537 506.850 487.464 C 443.041 497.906 383.873 436.466 383.861 436.460 C 383.847 436.469 301.005 450.027 239.473 525.429 C 191.040 584.778 188.303 658.921 188.305 658.930 C 188.300 658.929 154.651 661.149 131.834 650.297 C 115.742 642.644 101.551 613.675 101.548 613.672 Z"/>
</g>
<g id="specs">
<path fill="#ff0000" fill-rule="evenodd" stroke="none" d="M 162.084 589.605 C 162.084 589.609 161.764 626.566 161.764 626.570 C 161.763 626.568 154.078 611.428 154.077 611.427 C 154.076 611.427 138.422 618.004 138.420 618.004 C 138.422 618.001 162.082 589.608 162.084 589.605 Z"/>
<path fill="#0000ff" fill-rule="evenodd" stroke="none" d="M 474.476 64.482 C 474.477 64.483 492.502 76.147 492.503 76.148 C 492.503 76.148 482.685 75.203 482.685 75.203 C 482.684 75.204 481.036 84.928 481.035 84.929 C 481.035 84.927 474.476 64.484 474.476 64.482 Z"/>
<path fill="#00ff00" fill-rule="evenodd" stroke="none" d="M 202.064 205.212 C 202.067 205.211 223.474 203.584 223.476 203.583 C 223.475 203.584 215.089 208.775 215.088 208.776 C 215.088 208.777 219.662 217.515 219.663 217.515 C 219.661 217.514 202.066 205.213 202.064 205.212 Z"/>
<path fill="#ffff00" fill-rule="evenodd" stroke="none" d="M 166.688 498.899 C 166.689 498.901 176.476 518.009 176.477 518.011 C 176.476 518.010 168.443 512.288 168.442 512.287 C 168.442 512.288 162.155 519.887 162.155 519.888 C 162.155 519.886 166.687 498.901 166.688 498.899 Z"/>
<path fill="#ffff00" fill-rule="evenodd" stroke="none" d="M 238.991 546.502 C 238.989 546.501 219.238 538.086 219.236 538.085 C 219.236 538.086 225.511 545.695 225.512 545.696 C 225.511 545.697 218.374 552.503 218.374 552.504 C 218.376 552.503 238.989 546.502 238.991 546.502 Z"/>
<path fill="#00ff00" fill-rule="evenodd" stroke="none" d="M 612.348 398.520 C 612.346 398.521 594.596 410.597 594.594 410.598 C 594.595 410.598 604.388 409.427 604.389 409.427 C 604.389 409.428 606.262 419.111 606.262 419.112 C 606.263 419.110 612.348 398.522 612.348 398.520 Z"/>
<path fill="#00ffff" fill-rule="evenodd" stroke="none" d="M 579.517 226.194 C 579.515 226.196 562.792 239.659 562.790 239.660 C 562.790 239.659 566.763 230.632 566.764 230.631 C 566.763 230.631 558.046 226.018 558.045 226.017 C 558.047 226.017 579.515 226.194 579.517 226.194 Z"/>
<path fill="#00ffff" fill-rule="evenodd" stroke="none" d="M 515.037 223.757 C 515.038 223.758 529.331 239.778 529.332 239.780 C 529.332 239.779 526.891 230.223 526.891 230.222 C 526.892 230.222 536.247 227.099 536.248 227.099 C 536.246 227.099 515.039 223.757 515.037 223.757 Z"/>
</g>
</g>
</svg>
