<?xml version="1.0" encoding="utf-8"?>
<!-- Generator: Moho 13.0.3 build 635 -->
<!DOCTYPE svg PUBLIC "-//W3C//DTD SVG 1.1//EN" "http://www.w3.org/Graphics/SVG/1.1/DTD/svg11.dtd">
<svg version="1.1" id="Frame_0" xmlns="http://www.w3.org/2000/svg" xmlns:xlink="http://www.w3.org/1999/xlink" width="720px" height="720px">
<g id="antler">
<path fill="#ffffff" fill-rule="evenodd" stroke="#000000" stroke-width="5" stroke-linecap="round" stroke-linejoin="round" d="M 57.900 656.513 C 57.908 656.501 86.784 587.231 134.203 537.699 C 167.186 503.245 196.199 483.418 218.209 463.118 C 246.812 436.736 288.261 354.989 272.421 289.976 C 251.521 204.194 176.806 180.097 176.796 180.087 C 176.810 180.097 273.978 165.791 314.544 288.833 C 334.695 349.955 307.988 421.186 307.988 421.200 C 307.998 421.194 379.705 385.723 415.079 367.234 C 460.636 343.424 498.133 317.258 537.632 254.446 C 601.394 153.050 492.257 15.018 492.252 15.007 C 492.260 15.016 648.097 124.489 588.556 274.433 C 547.857 376.926 442.535 419.672 442.521 419.687 C 442.529 419.691 479.821 463.705 525.428 463.809 C 599.569 463.978 651.745 409.482 651.758 409.476 C 651.746 409.486 638.271 491.543 531.650 508.991 C 457.066 521.196 387.905 449.380 387.891 449.374 C 387.874 449.384 291.042 465.231 219.117 553.367 C 162.505 622.739 159.306 709.404 159.308 709.415 C 159.302 709.413 119.971 712.008 93.301 699.323 C 74.491 690.378 57.904 656.517 57.900 656.513 Z"/>
</g>
</svg>
