<?xml version="1.0" encoding="utf-8"?>
<!-- Generator: Moho 13.0.3 build 635 -->
<!DOCTYPE svg PUBLIC "-//W3C//DTD SVG 1.1//EN" "http://www.w3.org/Graphics/SVG/1.1/DTD/svg11.dtd">
<svg version="1.1" id="Frame_0" xmlns="http://www.w3.org/2000/svg" xmlns:xlink="http://www.w3.org/1999/xlink" width="720px" height="720px">
<g id="antler">
<g id="antler">
<path fill="#ffffff" fill-rule="evenodd" stroke="#000000" stroke-width="9" stroke-linecap="round" stroke-linejoin="round" d="M 40.427 654.962 C 40.434 654.952 65.736 595.766 106.485 553.234 C 139.533 518.741 168.576 498.871 190.619 478.539 C 219.266 452.118 260.779 370.246 244.915 305.135 C 223.982 219.222 149.153 195.089 149.143 195.078 C 149.157 195.089 246.474 180.760 287.101 303.990 C 307.282 365.205 280.535 436.544 280.535 436.558 C 280.545 436.552 352.361 401.027 387.789 382.510 C 433.415 358.664 470.969 332.458 510.528 269.551 C 574.388 168.000 465.085 29.758 465.080 29.748 C 465.087 29.756 621.162 139.396 561.530 289.567 C 520.769 392.217 415.287 435.028 415.272 435.042 C 415.281 435.047 452.629 479.127 498.305 479.232 C 572.560 479.401 624.815 424.822 624.828 424.816 C 624.816 424.826 611.320 507.007 504.537 524.482 C 429.839 536.706 360.573 464.780 360.559 464.774 C 360.542 464.785 262.103 479.485 191.529 568.926 C 142.548 631.002 141.987 707.934 141.989 707.944 C 141.983 707.942 102.592 710.541 75.881 697.838 C 57.043 688.878 40.431 654.966 40.427 654.962 Z"/>
</g>
<g id="specs_2">
<path fill="#ffff00" fill-rule="evenodd" stroke="none" d="M 144.253 619.360 C 144.253 609.686 152.058 601.883 161.731 601.883 C 171.405 601.883 179.208 609.686 179.208 619.360 C 179.208 629.033 171.405 636.836 161.731 636.836 C 152.058 636.837 144.253 629.033 144.253 619.360 M 42.348 615.025 C 42.348 605.351 50.153 597.547 59.826 597.548 C 69.500 597.548 77.303 605.351 77.303 615.025 C 77.303 624.698 69.500 632.501 59.826 632.501 C 50.153 632.502 42.348 624.698 42.348 615.025 Z"/>
<path fill="#00ff00" fill-rule="evenodd" stroke="none" d="M 263.284 312.556 C 263.284 302.882 255.479 295.079 245.805 295.079 C 236.132 295.079 228.329 302.882 228.329 312.556 C 228.329 322.229 236.132 330.032 245.805 330.033 C 255.479 330.033 263.284 322.230 263.284 312.556 M 567.087 490.289 C 567.087 480.615 574.892 472.812 584.566 472.812 C 594.239 472.813 602.043 480.616 602.043 490.289 C 602.043 499.963 594.239 507.766 584.566 507.766 C 574.892 507.766 567.087 499.963 567.087 490.289 Z"/>
<path fill="#0000ff" fill-rule="evenodd" stroke="none" d="M 466.551 6.834 C 476.224 6.835 484.028 14.638 484.028 24.311 C 484.028 33.985 476.224 41.788 466.551 41.788 C 456.877 41.788 449.073 33.985 449.073 24.311 C 449.073 14.638 456.877 6.834 466.551 6.834 Z"/>
<path fill="#ff0000" fill-rule="evenodd" stroke="none" d="M 94.933 638.469 C 104.607 638.470 112.410 646.273 112.410 655.946 C 112.410 665.619 104.607 673.423 94.933 673.423 C 85.259 673.423 77.455 665.620 77.455 655.946 C 77.455 646.272 85.259 638.469 94.933 638.469 Z"/>
<path fill="#00ffff" fill-rule="evenodd" stroke="none" d="M 575.045 222.313 C 565.371 222.313 557.568 230.116 557.568 239.790 C 557.568 249.463 565.371 257.266 575.045 257.267 C 584.719 257.267 592.523 249.464 592.523 239.790 C 592.523 230.116 584.719 222.313 575.045 222.313 Z"/>
<path fill="#00ffff" fill-rule="evenodd" stroke="none" d="M 520.858 222.313 C 511.184 222.314 503.381 230.117 503.381 239.790 C 503.381 249.464 511.184 257.267 520.858 257.267 C 530.532 257.267 538.336 249.464 538.336 239.790 C 538.336 230.116 530.532 222.313 520.858 222.313 Z"/>
</g>
</g>
</svg>
