<?xml version="1.0" encoding="utf-8"?>
<!-- Generator: Moho 12.5 build 22414 -->
<!DOCTYPE svg PUBLIC "-//W3C//DTD SVG 1.1//EN" "http://www.w3.org/Graphics/SVG/1.1/DTD/svg11.dtd">
<svg version="1.1" id="Frame_0" xmlns="http://www.w3.org/2000/svg" xmlns:xlink="http://www.w3.org/1999/xlink" width="720px" height="720px">
<g id="apple">
<g id="apple">
<path fill="#ffffff" fill-rule="evenodd" stroke="#000000" stroke-width="4" stroke-linecap="round" stroke-linejoin="round" d="M 166.583 79.360 C 166.586 79.355 193.748 31.822 193.750 31.818 C 193.761 31.825 248.760 41.764 298.344 102.452 C 365.433 184.567 373.349 263.225 360.828 261.379 C 350.040 259.789 359.692 186.213 284.760 122.827 C 225.066 72.332 166.595 79.364 166.583 79.360 M 356.808 204.422 C 356.814 204.409 355.731 121.032 415.052 69.919 C 474.373 18.806 556.673 32.203 556.687 32.199 C 556.681 32.213 557.764 115.589 498.443 166.702 C 439.123 217.815 356.823 204.418 356.808 204.422 M 243.887 668.691 C 279.632 684.128 359.988 658.306 360.000 658.305 C 360.012 658.306 440.368 684.128 476.113 668.691 C 545.292 638.814 587.166 561.546 601.787 481.312 C 617.077 397.413 614.308 292.865 547.041 251.824 C 447.269 190.949 374.261 262.210 360.000 262.210 C 345.739 262.210 274.089 195.024 172.959 251.824 C 104.255 290.411 102.923 397.413 118.213 481.312 C 132.834 561.546 174.707 638.814 243.887 668.691 Z"/>
</g>
<g id="specs">
<path fill="#ff00ff" fill-rule="evenodd" stroke="none" d="M 184.192 621.769 C 184.227 621.769 535.773 621.769 535.808 621.769 C 535.808 621.734 535.808 270.189 535.808 270.154 C 535.773 270.154 184.227 270.154 184.192 270.154 C 184.192 270.189 184.192 621.734 184.192 621.769 Z"/>
<path fill="#ff0000" fill-rule="evenodd" stroke="none" d="M 360.000 678.337 C 360.001 678.341 372.432 713.147 372.433 713.150 C 372.432 713.149 360.001 701.583 360.000 701.582 C 359.999 701.583 347.568 713.149 347.567 713.150 C 347.568 713.147 359.999 678.341 360.000 678.337 Z"/>
<path fill="#0000ff" fill-rule="evenodd" stroke="none" d="M 360.000 12.562 C 360.001 12.564 367.221 32.782 367.222 32.784 C 367.221 32.783 360.001 26.065 360.000 26.065 C 359.999 26.065 352.779 32.783 352.778 32.784 C 352.779 32.782 359.999 12.564 360.000 12.562 Z"/>
<path fill="#00ff00" fill-rule="evenodd" stroke="none" d="M 97.054 441.758 C 97.056 441.757 117.543 434.323 117.545 434.323 C 117.545 434.323 110.762 441.688 110.761 441.689 C 110.762 441.689 117.619 448.985 117.619 448.986 C 117.617 448.985 97.056 441.759 97.054 441.758 Z"/>
<path fill="#ffff00" fill-rule="evenodd" stroke="none" d="M 209.461 659.735 C 209.461 659.734 215.053 647.560 215.054 647.558 C 215.054 647.559 215.348 653.707 215.348 653.707 C 215.349 653.707 221.501 653.856 221.502 653.856 C 221.501 653.857 209.462 659.735 209.461 659.735 Z"/>
<path fill="#ffff00" fill-rule="evenodd" stroke="none" d="M 511.865 659.586 C 511.864 659.585 506.029 647.525 506.029 647.524 C 506.029 647.524 505.858 653.677 505.858 653.677 C 505.857 653.677 499.708 653.950 499.708 653.950 C 499.709 653.951 511.863 659.586 511.865 659.586 Z"/>
<path fill="#00ff00" fill-rule="evenodd" stroke="none" d="M 622.689 441.758 C 622.687 441.757 602.200 434.323 602.198 434.323 C 602.199 434.323 608.982 441.688 608.982 441.689 C 608.982 441.689 602.125 448.985 602.124 448.986 C 602.126 448.985 622.687 441.759 622.689 441.758 Z"/>
<path fill="#00ffff" fill-rule="evenodd" stroke="none" d="M 558.782 247.154 C 558.782 247.156 552.879 263.822 552.878 263.824 C 552.878 263.823 551.761 255.778 551.761 255.777 C 551.760 255.777 543.655 256.312 543.654 256.312 C 543.656 256.311 558.781 247.155 558.782 247.154 Z"/>
<path fill="#00ffff" fill-rule="evenodd" stroke="none" d="M 161.330 247.707 C 161.330 247.708 168.331 263.944 168.332 263.946 C 168.332 263.945 168.910 255.843 168.910 255.842 C 168.911 255.842 177.033 255.836 177.034 255.836 C 177.033 255.835 161.331 247.707 161.330 247.707 Z"/>
</g>
</g>
</svg>
