<?xml version="1.0" encoding="utf-8"?>
<!-- Generator: Moho 12.5 build 22414 -->
<!DOCTYPE svg PUBLIC "-//W3C//DTD SVG 1.1//EN" "http://www.w3.org/Graphics/SVG/1.1/DTD/svg11.dtd">
<svg version="1.1" id="Frame_0" xmlns="http://www.w3.org/2000/svg" xmlns:xlink="http://www.w3.org/1999/xlink" width="720px" height="720px">
<g id="arches">
<g id="arches">
<path fill="#000000" fill-rule="evenodd" stroke="#ffffff" stroke-width="4" stroke-linejoin="round" d="M 126.185 591.980 C 117.124 591.987 108.173 591.992 101.189 591.980 C 101.189 566.970 101.189 517.589 101.189 517.581 C 101.191 517.576 99.217 478.807 122.495 468.536 C 145.485 458.392 155.032 469.482 156.622 480.712 C 118.472 470.262 126.188 536.599 126.185 536.605 C 126.185 536.611 126.185 573.365 126.185 591.980 M 254.206 591.965 C 244.290 591.971 234.393 591.976 224.645 591.965 C 224.645 552.712 224.645 475.027 224.645 475.016 C 224.648 475.008 223.404 416.657 258.878 397.431 C 287.737 381.789 304.326 399.438 308.314 417.227 C 304.940 406.868 291.691 407.458 282.352 408.845 C 248.778 413.830 254.209 494.031 254.206 494.040 C 254.207 494.049 254.206 559.097 254.206 591.965 M 438.433 591.903 C 426.305 591.911 414.072 591.920 402.022 591.903 C 402.022 536.001 402.022 423.858 402.022 423.841 C 402.027 423.829 396.720 327.959 454.224 300.789 C 494.901 281.570 522.760 312.214 530.549 330.648 C 513.681 309.249 498.817 314.559 481.502 320.257 C 429.470 337.380 438.437 442.853 438.433 442.865 C 438.433 442.880 438.433 542.328 438.433 591.903 M 654.480 163.515 C 654.477 163.511 623.114 127.906 623.111 127.903 C 623.111 127.949 623.111 592.051 623.111 592.097 C 633.859 592.039 644.608 592.034 655.496 591.920 C 654.500 431.549 654.481 163.557 654.480 163.515 Z"/>
<path fill="none" stroke="#ffffff" stroke-width="1" stroke-linecap="butt" stroke-linejoin="round" d="M 623.111 127.903 C 623.111 127.949 623.111 592.051 623.111 592.097 "/>
<path fill="none" stroke="#ffffff" stroke-width="1" stroke-linecap="butt" stroke-linejoin="round" d="M 530.549 330.648 C 522.760 312.214 494.901 281.570 454.224 300.789 "/>
<path fill="none" stroke="#ffffff" stroke-width="1" stroke-linecap="butt" stroke-linejoin="round" d="M 454.224 300.789 C 396.720 327.959 402.027 423.829 402.022 423.841 "/>
<path fill="none" stroke="#ffffff" stroke-width="1" stroke-linecap="butt" stroke-linejoin="round" d="M 402.022 423.841 C 402.022 423.858 402.022 536.001 402.022 591.903 "/>
<path fill="none" stroke="#ffffff" stroke-width="1" stroke-linecap="butt" stroke-linejoin="round" d="M 308.314 417.227 C 304.326 399.438 287.737 381.789 258.878 397.431 "/>
<path fill="none" stroke="#ffffff" stroke-width="1" stroke-linecap="butt" stroke-linejoin="round" d="M 258.878 397.431 C 223.404 416.657 224.648 475.008 224.645 475.016 "/>
<path fill="none" stroke="#ffffff" stroke-width="1" stroke-linecap="butt" stroke-linejoin="round" d="M 224.645 475.016 C 224.645 475.027 224.645 552.712 224.645 591.965 "/>
<path fill="none" stroke="#ffffff" stroke-width="1" stroke-linecap="butt" stroke-linejoin="round" d="M 156.622 480.712 C 155.032 469.482 145.485 458.392 122.495 468.536 "/>
<path fill="none" stroke="#ffffff" stroke-width="1" stroke-linecap="butt" stroke-linejoin="round" d="M 122.495 468.536 C 99.217 478.807 101.191 517.576 101.189 517.581 "/>
<path fill="none" stroke="#ffffff" stroke-width="1" stroke-linecap="butt" stroke-linejoin="round" d="M 101.189 517.581 C 101.189 517.589 101.189 566.970 101.189 591.980 "/>
<path fill="#ffffff" fill-rule="evenodd" stroke="#000000" stroke-width="4" stroke-linejoin="round" d="M 64.741 592.006 C 64.878 544.724 64.752 488.413 64.504 450.415 C 303.995 312.145 623.055 127.935 623.111 127.903 C 623.111 127.949 623.111 592.051 623.111 592.097 C 623.102 592.097 543.536 592.075 533.164 592.072 C 533.416 517.572 533.925 367.157 533.925 367.135 C 533.924 367.131 535.805 343.089 530.549 330.648 C 522.760 312.214 494.901 281.570 454.224 300.789 C 396.720 327.959 402.027 423.829 402.022 423.841 C 402.022 423.858 402.022 536.001 402.022 591.903 C 383.052 591.917 324.746 592.027 311.912 592.022 C 311.912 540.318 311.912 436.817 311.912 436.801 C 311.912 436.799 310.354 426.329 308.314 417.227 C 304.326 399.438 287.737 381.789 258.878 397.431 C 223.404 416.657 224.648 475.008 224.645 475.016 C 224.645 475.027 224.645 552.712 224.645 591.965 C 214.072 591.971 167.819 592.009 158.027 591.999 C 158.027 564.989 158.027 510.944 158.027 510.936 C 158.027 510.932 158.447 493.605 156.622 480.712 C 155.032 469.482 145.485 458.392 122.495 468.536 C 99.217 478.807 101.191 517.576 101.189 517.581 C 101.189 517.589 101.189 566.970 101.189 591.980 C 88.493 591.989 64.741 592.006 64.741 592.006 Z"/>
</g>
<g id="specs_2">
<path fill="#ff00ff" fill-rule="evenodd" stroke="none" d="M 111.860 591.488 C 111.902 591.488 532.852 591.488 532.894 591.488 C 532.894 591.462 532.894 338.150 532.894 338.125 C 532.852 338.125 111.902 338.125 111.860 338.125 C 111.860 338.150 111.860 591.462 111.860 591.488 Z"/>
<path fill="#ff0000" fill-rule="evenodd" stroke="none" d="M 631.778 391.314 C 631.782 391.313 666.544 378.898 666.548 378.896 C 666.547 378.898 654.995 391.313 654.994 391.314 C 654.995 391.315 666.547 403.730 666.548 403.731 C 666.544 403.730 631.782 391.315 631.778 391.314 Z"/>
<path fill="#0000ff" fill-rule="evenodd" stroke="none" d="M 277.817 318.014 C 277.818 318.016 285.029 338.209 285.030 338.211 C 285.029 338.210 277.818 331.500 277.817 331.500 C 277.816 331.500 270.605 338.210 270.604 338.211 C 270.605 338.209 277.816 318.016 277.817 318.014 Z"/>
<path fill="#00ff00" fill-rule="evenodd" stroke="none" d="M 51.838 501.008 C 51.840 501.007 70.046 494.401 70.047 494.401 C 70.047 494.401 64.019 500.946 64.018 500.947 C 64.019 500.948 70.112 507.430 70.113 507.431 C 70.111 507.430 51.840 501.009 51.838 501.008 Z"/>
<path fill="#ffff00" fill-rule="evenodd" stroke="none" d="M 91.334 597.425 C 91.335 597.422 101.270 575.790 101.271 575.788 C 101.271 575.789 101.794 586.713 101.794 586.714 C 101.796 586.714 112.728 586.979 112.729 586.979 C 112.727 586.980 91.336 597.424 91.334 597.425 Z"/>
<path fill="#ffff00" fill-rule="evenodd" stroke="none" d="M 628.666 597.160 C 628.665 597.157 618.298 575.728 618.297 575.726 C 618.297 575.727 617.993 586.659 617.993 586.661 C 617.992 586.661 607.066 587.145 607.065 587.145 C 607.067 587.146 628.664 597.159 628.666 597.160 Z"/>
<path fill="#00ff00" fill-rule="evenodd" stroke="none" d="M 668.162 501.008 C 668.160 501.007 649.954 494.401 649.953 494.401 C 649.953 494.401 655.981 500.946 655.982 500.947 C 655.981 500.948 649.888 507.430 649.887 507.431 C 649.889 507.430 668.160 501.009 668.162 501.008 Z"/>
<path fill="#be0027" fill-rule="evenodd" stroke="none" d="M 360.000 618.486 C 360.001 618.482 372.416 583.720 372.417 583.716 C 372.416 583.717 360.001 595.269 360.000 595.270 C 359.999 595.269 347.584 583.717 347.583 583.716 C 347.584 583.720 359.999 618.482 360.000 618.486 Z"/>
</g>
</g>
</svg>
