<?xml version="1.0" encoding="utf-8"?>
<!-- Generator: Moho 12.3 build 22017 -->
<!DOCTYPE svg PUBLIC "-//W3C//DTD SVG 1.1//EN" "http://www.w3.org/Graphics/SVG/1.1/DTD/svg11.dtd">
<svg version="1.1" id="Frame_0" xmlns="http://www.w3.org/2000/svg" xmlns:xlink="http://www.w3.org/1999/xlink" width="720px" height="720px">
<g id="arm">
<g id="arm">
<path fill="#ffffff" fill-rule="evenodd" stroke="#000000" stroke-width="4" stroke-linecap="round" stroke-linejoin="round" d="M 411.373 356.921 C 410.772 339.898 417.352 312.094 425.221 301.820 C 438.644 284.294 462.722 265.851 469.480 262.085 C 475.290 258.847 508.207 243.454 519.039 237.591 C 531.017 231.106 549.425 211.819 556.211 213.099 C 561.264 214.053 564.194 226.952 561.756 232.453 C 558.108 240.687 548.716 249.326 546.824 251.545 C 539.382 260.276 503.399 278.881 504.607 285.268 C 506.001 292.639 518.711 296.808 525.683 299.319 C 531.411 301.382 570.184 301.005 576.265 300.724 C 583.139 300.406 627.832 294.376 633.031 293.758 C 637.543 293.221 676.710 286.105 682.348 288.078 C 684.189 288.723 694.139 291.177 694.745 298.531 C 695.260 304.774 689.178 308.241 687.968 309.154 C 682.976 312.924 641.504 317.658 636.863 318.713 C 632.172 319.779 588.731 326.587 586.101 332.338 C 585.708 333.197 586.883 339.355 587.506 340.066 C 591.586 344.721 634.057 344.303 638.758 344.583 C 644.156 344.906 691.695 342.755 697.803 346.388 C 699.170 347.201 706.107 350.347 705.793 356.918 C 705.518 362.675 699.128 366.006 697.803 366.762 C 691.772 370.202 645.397 368.234 640.124 368.541 C 635.233 368.826 590.993 368.196 586.803 373.085 C 586.080 373.929 584.876 381.236 585.398 382.218 C 588.065 387.228 627.557 389.899 631.810 390.645 C 635.982 391.378 673.006 394.996 677.430 398.376 C 678.701 399.347 685.730 404.016 684.223 409.807 C 682.811 415.237 672.947 418.237 671.107 418.749 C 665.800 420.227 629.882 413.180 625.703 412.854 C 620.350 412.438 573.146 407.883 567.069 411.468 C 566.188 411.988 561.883 417.289 562.023 418.302 C 562.821 424.090 604.746 429.314 609.091 430.254 C 612.721 431.039 644.223 434.868 649.010 437.462 C 650.315 438.169 655.857 443.522 654.659 448.427 C 653.525 453.073 645.283 456.191 643.708 456.686 C 637.693 458.576 596.523 450.333 591.765 449.709 C 582.633 448.513 503.558 440.483 491.961 437.015 C 483.894 434.602 444.580 426.477 428.734 407.003 C 414.003 388.900 411.810 369.339 411.373 356.921 Z"/>
<path fill="#ffffff" fill-rule="evenodd" stroke="none" d="M 426.749 398.207 C 426.682 370.469 426.615 342.731 426.548 314.993 C 397.364 314.940 100.239 302.710 30.840 305.474 C -1.647 306.768 -2.289 411.825 30.160 413.846 C 66.860 416.132 398.634 397.592 426.749 398.207 Z"/>
<path fill="none" stroke="#000000" stroke-width="4" stroke-linecap="round" stroke-linejoin="round" d="M 426.749 398.207 C 398.634 397.592 66.860 416.132 30.160 413.846 C -2.289 411.825 -1.647 306.768 30.840 305.474 C 100.239 302.710 397.364 314.940 426.548 314.993 "/>
</g>
<g id="specs_2">
<path fill="#ff00ff" fill-rule="evenodd" stroke="none" d="M 433.517 425.877 C 433.536 425.877 623.422 425.877 623.441 425.877 C 623.441 425.862 623.441 277.811 623.441 277.796 C 623.422 277.796 433.536 277.796 433.517 277.796 C 433.517 277.811 433.517 425.862 433.517 425.877 Z"/>
<path fill="#ff0000" fill-rule="evenodd" stroke="none" d="M 54.212 350.108 C 59.506 350.108 63.778 354.379 63.778 359.674 C 63.778 364.968 59.506 369.239 54.212 369.239 C 48.917 369.239 44.646 364.968 44.646 359.674 C 44.646 354.379 48.917 350.108 54.212 350.108 Z"/>
<path fill="#ffff00" fill-rule="evenodd" stroke="none" d="M 439.676 396.405 C 439.676 391.111 443.947 386.839 449.242 386.839 C 454.536 386.839 458.807 391.111 458.807 396.405 C 458.807 401.700 454.536 405.971 449.242 405.971 C 443.947 405.971 439.676 401.700 439.676 396.405 M 152.703 396.405 C 152.703 391.111 156.975 386.839 162.269 386.839 C 167.564 386.839 171.835 391.111 171.835 396.405 C 171.835 401.700 167.564 405.971 162.269 405.971 C 156.975 405.971 152.703 401.700 152.703 396.405 Z"/>
<path fill="#00ff00" fill-rule="evenodd" stroke="none" d="M 1.335 356.992 C 1.335 351.698 5.606 347.427 10.901 347.427 C 16.196 347.427 20.467 351.698 20.467 356.992 C 20.467 362.287 16.196 366.558 10.901 366.558 C 5.606 366.558 1.335 362.287 1.335 356.992 M 692.845 356.992 C 692.845 351.698 697.116 347.427 702.411 347.427 C 707.705 347.427 711.977 351.698 711.977 356.992 C 711.977 362.287 707.705 366.558 702.411 366.558 C 697.116 366.558 692.845 362.287 692.845 356.992 Z"/>
<path fill="#00ffff" fill-rule="evenodd" stroke="none" d="M 359.150 314.003 C 364.445 314.003 368.716 318.274 368.716 323.569 C 368.716 328.864 364.445 333.135 359.150 333.135 C 353.856 333.135 349.584 328.864 349.584 323.569 C 349.584 318.274 353.856 314.003 359.150 314.003 Z"/>
<path fill="#00ffff" fill-rule="evenodd" stroke="none" d="M 218.442 310.197 C 223.736 310.197 228.007 314.468 228.007 319.762 C 228.007 325.057 223.736 329.328 218.442 329.328 C 213.147 329.328 208.876 325.057 208.876 319.762 C 208.876 314.468 213.147 310.197 218.442 310.197 Z"/>
<path fill="#0000ff" fill-rule="evenodd" stroke="none" d="M 556.689 199.433 C 561.983 199.433 566.254 203.705 566.254 208.999 C 566.254 214.294 561.983 218.565 556.689 218.565 C 551.394 218.565 547.123 214.294 547.123 208.999 C 547.123 203.705 551.394 199.433 556.689 199.433 Z"/>
</g>
</g>
</svg>
