<?xml version="1.0" encoding="utf-8"?>
<!-- Generator: Moho 12.5 build 22414 -->
<!DOCTYPE svg PUBLIC "-//W3C//DTD SVG 1.1//EN" "http://www.w3.org/Graphics/SVG/1.1/DTD/svg11.dtd">
<svg version="1.1" id="Frame_0" xmlns="http://www.w3.org/2000/svg" xmlns:xlink="http://www.w3.org/1999/xlink" width="720px" height="720px">
<g id="arm">
<g id="arm">
<path fill="#ffffff" fill-rule="evenodd" stroke="#000000" stroke-width="4" stroke-linecap="round" stroke-linejoin="round" d="M 361.959 377.281 C 341.043 378.018 306.880 369.934 294.256 360.265 C 272.721 343.772 250.060 314.187 245.433 305.883 C 241.454 298.745 222.541 258.299 215.337 244.991 C 207.369 230.272 183.671 207.654 185.244 199.317 C 186.416 193.108 202.265 189.508 209.024 192.503 C 219.141 196.986 229.756 208.526 232.483 210.851 C 243.210 219.994 266.070 264.207 273.918 262.723 C 282.975 261.010 288.098 245.393 291.183 236.827 C 293.718 229.789 293.255 182.148 292.909 174.676 C 292.518 166.230 285.109 111.315 284.350 104.927 C 283.691 99.383 274.947 51.258 277.371 44.331 C 278.163 42.069 281.178 29.843 290.215 29.098 C 297.885 28.465 302.146 35.939 303.268 37.426 C 307.899 43.560 313.716 94.516 315.013 100.218 C 316.323 105.983 324.688 159.359 331.754 162.590 C 332.809 163.073 340.376 161.630 341.249 160.865 C 346.969 155.851 346.455 103.667 346.800 97.890 C 347.196 91.257 344.553 32.846 349.018 25.341 C 350.017 23.661 353.882 15.138 361.956 15.524 C 369.029 15.861 373.122 23.713 374.050 25.341 C 378.277 32.751 375.860 89.733 376.237 96.212 C 376.587 102.222 375.814 156.579 381.820 161.728 C 382.857 162.617 391.836 164.096 393.042 163.454 C 399.197 160.178 402.480 111.653 403.397 106.427 C 404.296 101.301 408.742 55.809 412.895 50.374 C 414.088 48.811 419.825 40.176 426.942 42.026 C 433.612 43.761 437.299 55.882 437.928 58.143 C 439.744 64.663 431.085 108.797 430.685 113.931 C 430.173 120.508 424.576 178.508 428.982 185.976 C 429.620 187.057 436.135 192.347 437.379 192.175 C 444.490 191.195 450.909 139.681 452.064 134.342 C 453.028 129.882 457.734 91.176 460.921 85.294 C 461.789 83.691 468.366 76.881 474.394 78.353 C 480.103 79.746 483.934 89.873 484.542 91.808 C 486.863 99.199 476.735 149.786 475.969 155.631 C 474.500 166.851 464.632 264.011 460.371 278.261 C 457.407 288.174 447.423 336.479 423.496 355.949 C 401.252 374.049 377.217 376.743 361.959 377.281 Z"/>
<path fill="#ffffff" fill-rule="evenodd" stroke="none" d="M 420.109 358.388 C 381.257 358.470 342.405 358.553 303.553 358.635 C 303.663 382.380 296.883 624.150 297.890 680.653 C 298.550 717.710 419.562 718.349 421.430 681.333 C 422.939 651.451 418.802 381.233 420.109 358.388 Z"/>
<path fill="none" stroke="#000000" stroke-width="4" stroke-linecap="round" stroke-linejoin="round" d="M 420.109 358.388 C 418.802 381.233 422.939 651.451 421.430 681.333 C 419.562 718.349 298.550 717.710 297.890 680.653 C 296.883 624.150 303.663 382.380 303.553 358.635 "/>
</g>
<g id="specs">
<path fill="#ff00ff" fill-rule="evenodd" stroke="none" d="M 432.284 329.166 C 432.284 329.152 432.284 198.037 432.284 198.024 C 432.271 198.024 301.156 198.024 301.143 198.024 C 301.143 198.037 301.143 329.152 301.143 329.166 C 301.156 329.166 432.271 329.166 432.284 329.166 Z"/>
<path fill="#ff0000" fill-rule="evenodd" stroke="none" d="M 359.564 597.785 C 359.566 597.790 377.774 648.774 377.776 648.780 C 377.774 648.778 359.566 631.836 359.564 631.834 C 359.562 631.836 341.354 648.778 341.352 648.780 C 341.354 648.774 359.562 597.790 359.564 597.785 Z"/>
<path fill="#0000ff" fill-rule="evenodd" stroke="none" d="M 361.040 1.872 C 361.040 1.874 368.417 22.528 368.417 22.530 C 368.417 22.529 361.040 15.666 361.040 15.666 C 361.039 15.666 353.662 22.529 353.662 22.530 C 353.662 22.528 361.039 1.874 361.040 1.872 Z"/>
<path fill="#00ffff" fill-rule="evenodd" stroke="none" d="M 432.724 25.418 C 432.724 25.421 435.431 56.752 435.431 56.755 C 435.430 56.754 427.700 44.549 427.699 44.547 C 427.698 44.548 414.968 51.379 414.967 51.380 C 414.968 51.377 432.722 25.420 432.724 25.418 Z"/>
<path fill="#00ffff" fill-rule="evenodd" stroke="none" d="M 282.804 11.722 C 282.804 11.725 278.661 43.658 278.661 43.662 C 278.662 43.660 287.105 31.514 287.106 31.512 C 287.107 31.513 299.831 39.059 299.832 39.060 C 299.830 39.057 282.806 11.725 282.804 11.722 Z"/>
<path fill="#00ff00" fill-rule="evenodd" stroke="none" d="M 433.262 412.509 C 433.260 412.511 407.478 430.519 407.475 430.520 C 407.476 430.519 414.182 417.723 414.182 417.721 C 414.181 417.721 401.901 410.110 401.900 410.110 C 401.903 410.110 433.259 412.509 433.262 412.509 Z"/>
<path fill="#00ff00" fill-rule="evenodd" stroke="none" d="M 288.709 415.232 C 288.712 415.232 319.723 410.010 319.726 410.009 C 319.725 410.010 308.183 418.698 308.182 418.699 C 308.182 418.700 316.016 430.839 316.017 430.840 C 316.014 430.838 288.712 415.234 288.709 415.232 Z"/>
<path fill="#ffff00" fill-rule="evenodd" stroke="none" d="M 300.854 704.070 C 300.854 704.067 309.640 673.872 309.641 673.869 C 309.641 673.870 312.444 688.042 312.444 688.044 C 312.446 688.044 326.783 686.268 326.785 686.268 C 326.782 686.270 300.856 704.068 300.854 704.070 Z"/>
<path fill="#ffff00" fill-rule="evenodd" stroke="none" d="M 416.570 703.659 C 416.570 703.656 407.784 673.461 407.783 673.458 C 407.783 673.459 404.980 687.632 404.980 687.633 C 404.978 687.633 390.641 685.858 390.639 685.857 C 390.642 685.859 416.568 703.657 416.570 703.659 Z"/>
<path fill="#be0027" fill-rule="evenodd" stroke="none" d="M 360.000 716.635 C 360.001 716.632 369.045 691.309 369.046 691.306 C 369.045 691.307 360.001 699.722 360.000 699.723 C 359.999 699.722 350.955 691.307 350.954 691.306 C 350.955 691.309 359.999 716.632 360.000 716.635 Z"/>
</g>
</g>
</svg>
