<?xml version="1.0" encoding="utf-8"?>
<!-- Generator: Moho 12.5 build 22414 -->
<!DOCTYPE svg PUBLIC "-//W3C//DTD SVG 1.1//EN" "http://www.w3.org/Graphics/SVG/1.1/DTD/svg11.dtd">
<svg version="1.1" id="Frame_0" xmlns="http://www.w3.org/2000/svg" xmlns:xlink="http://www.w3.org/1999/xlink" width="720px" height="720px">
<g id="arm">
<g id="arm">
<path fill="#ffffff" fill-rule="evenodd" stroke="#000000" stroke-width="4" stroke-linecap="round" stroke-linejoin="round" d="M 361.959 378.869 C 341.043 379.606 306.880 371.522 294.256 361.853 C 272.721 345.360 250.060 315.775 245.433 307.471 C 241.454 300.333 222.541 259.887 215.337 246.578 C 207.369 231.860 183.671 209.242 185.244 200.904 C 186.416 194.695 202.265 191.095 209.024 194.091 C 219.141 198.574 229.756 210.114 232.483 212.438 C 243.210 221.582 266.070 265.795 273.919 264.310 C 282.976 262.598 288.097 246.980 291.183 238.414 C 293.718 231.376 293.255 183.736 292.909 176.263 C 292.518 167.818 285.109 112.903 284.350 106.515 C 283.691 100.970 274.947 52.845 277.371 45.919 C 278.163 43.656 281.178 31.431 290.215 30.686 C 297.885 30.053 302.145 37.527 303.268 39.013 C 307.899 45.147 313.716 96.103 315.012 101.806 C 316.323 107.571 324.688 160.946 331.753 164.178 C 332.809 164.661 340.376 163.218 341.249 162.452 C 346.969 157.439 346.455 105.255 346.800 99.478 C 347.196 92.845 344.553 34.433 349.018 26.928 C 350.017 25.249 353.882 16.726 361.956 17.111 C 369.029 17.449 373.122 25.300 374.051 26.928 C 378.277 34.338 375.860 91.320 376.237 97.800 C 376.587 103.809 375.813 158.167 381.820 163.315 C 382.857 164.204 391.836 165.684 393.042 165.042 C 399.197 161.765 402.480 113.241 403.397 108.015 C 404.296 102.889 408.742 57.396 412.895 51.961 C 414.088 50.399 419.825 41.763 426.941 43.614 C 433.612 45.349 437.299 57.470 437.928 59.730 C 439.744 66.251 431.085 110.384 430.685 115.519 C 430.173 122.096 424.576 180.096 428.982 187.563 C 429.620 188.645 436.135 193.934 437.378 193.763 C 444.490 192.782 450.909 141.268 452.064 135.929 C 453.028 131.470 457.734 92.763 460.921 86.882 C 461.789 85.278 468.366 78.469 474.394 79.940 C 480.103 81.334 483.934 91.461 484.542 93.395 C 486.863 100.787 476.735 151.373 475.969 157.218 C 474.500 168.439 464.633 265.599 460.371 279.849 C 457.407 289.761 447.423 338.067 423.496 357.537 C 401.252 375.636 377.217 378.331 361.959 378.869 Z"/>
<path fill="#ffffff" fill-rule="evenodd" stroke="none" d="M 420.109 359.976 C 381.257 360.058 342.405 360.140 303.553 360.222 C 303.663 383.968 296.883 625.737 297.890 682.241 C 298.550 719.298 419.562 719.936 421.430 682.921 C 422.939 653.039 418.802 382.821 420.109 359.976 Z"/>
<path fill="none" stroke="#000000" stroke-width="4" stroke-linecap="round" stroke-linejoin="round" d="M 420.109 359.976 C 418.802 382.821 422.939 653.039 421.430 682.921 C 419.562 719.936 298.550 719.298 297.890 682.241 C 296.883 625.737 303.663 383.968 303.553 360.222 "/>
</g>
<g id="specs">
<path fill="#ff00ff" fill-rule="evenodd" stroke="none" d="M 432.284 330.753 C 432.284 330.740 432.284 199.625 432.284 199.612 C 432.270 199.612 301.156 199.612 301.143 199.612 C 301.143 199.625 301.143 330.740 301.143 330.753 C 301.156 330.753 432.270 330.753 432.284 330.753 Z"/>
<path fill="#ff0000" fill-rule="evenodd" stroke="none" d="M 359.564 599.373 C 359.566 599.378 377.774 650.362 377.776 650.367 C 377.774 650.366 359.566 633.424 359.564 633.422 C 359.562 633.424 341.354 650.366 341.352 650.367 C 341.354 650.362 359.562 599.378 359.564 599.373 Z"/>
<path fill="#0000ff" fill-rule="evenodd" stroke="none" d="M 361.040 3.459 C 361.040 3.461 368.417 24.115 368.417 24.117 C 368.417 24.117 361.040 17.254 361.040 17.253 C 361.039 17.254 353.662 24.117 353.662 24.117 C 353.662 24.115 361.039 3.461 361.040 3.459 Z"/>
<path fill="#00ffff" fill-rule="evenodd" stroke="none" d="M 432.724 27.005 C 432.724 27.008 435.430 58.339 435.431 58.342 C 435.430 58.341 427.700 46.136 427.699 46.135 C 427.698 46.136 414.968 52.966 414.967 52.967 C 414.968 52.965 432.722 27.008 432.724 27.005 Z"/>
<path fill="#00ffff" fill-rule="evenodd" stroke="none" d="M 282.804 13.310 C 282.804 13.313 278.661 45.246 278.661 45.249 C 278.662 45.248 287.105 33.101 287.106 33.100 C 287.107 33.101 299.831 40.647 299.832 40.648 C 299.830 40.645 282.806 13.313 282.804 13.310 Z"/>
<path fill="#00ff00" fill-rule="evenodd" stroke="none" d="M 433.262 414.096 C 433.260 414.098 407.478 432.106 407.475 432.108 C 407.476 432.107 414.182 419.310 414.182 419.309 C 414.181 419.308 401.901 411.698 401.900 411.697 C 401.903 411.698 433.259 414.096 433.262 414.096 Z"/>
<path fill="#00ff00" fill-rule="evenodd" stroke="none" d="M 288.709 416.820 C 288.712 416.819 319.723 411.597 319.726 411.597 C 319.725 411.598 308.183 420.286 308.182 420.287 C 308.182 420.288 316.016 432.426 316.017 432.427 C 316.014 432.426 288.712 416.821 288.709 416.820 Z"/>
<path fill="#ffff00" fill-rule="evenodd" stroke="none" d="M 300.854 705.658 C 300.854 705.655 309.640 675.459 309.641 675.456 C 309.641 675.458 312.444 689.630 312.444 689.632 C 312.446 689.631 326.783 687.856 326.785 687.856 C 326.782 687.858 300.856 705.656 300.854 705.658 Z"/>
<path fill="#ffff00" fill-rule="evenodd" stroke="none" d="M 416.570 705.247 C 416.570 705.244 407.784 675.048 407.783 675.045 C 407.783 675.047 404.980 689.219 404.980 689.221 C 404.978 689.220 390.641 687.445 390.639 687.445 C 390.642 687.447 416.568 705.245 416.570 705.247 Z"/>
</g>
</g>
</svg>
