<?xml version="1.0" encoding="utf-8"?>
<!-- Generator: Moho 12.5 build 22414 -->
<!DOCTYPE svg PUBLIC "-//W3C//DTD SVG 1.1//EN" "http://www.w3.org/Graphics/SVG/1.1/DTD/svg11.dtd">
<svg version="1.1" id="Frame_0" xmlns="http://www.w3.org/2000/svg" xmlns:xlink="http://www.w3.org/1999/xlink" width="720px" height="720px">
<g id="arm_claw">
<g id="arm_claw">
<path fill="#ffffff" fill-rule="evenodd" stroke="#000000" stroke-width="4" stroke-linecap="round" stroke-linejoin="round" d="M 301.559 697.946 C 301.561 697.912 324.917 351.113 324.919 351.078 C 324.913 351.075 277.109 336.840 260.262 324.314 C 237.905 307.690 212.540 277.543 202.598 251.517 C 194.054 229.152 197.076 171.912 197.076 171.904 C 197.079 171.911 216.037 219.613 229.647 236.527 C 240.365 249.847 258.304 265.096 273.510 272.910 C 286.343 279.505 319.933 285.473 319.935 285.474 C 319.939 285.463 356.144 217.206 360.584 184.993 C 363.510 163.759 362.833 133.420 354.118 113.837 C 345.534 94.549 306.369 62.152 306.367 62.146 C 306.366 62.149 363.015 78.092 378.444 96.398 C 393.895 114.732 398.532 149.422 400.014 173.352 C 401.542 197.997 387.652 254.718 387.651 254.726 C 387.656 254.719 427.443 207.386 436.657 183.011 C 444.412 162.501 447.146 132.461 446.251 110.551 C 445.565 93.752 434.881 55.679 434.879 55.673 C 434.883 55.679 465.565 91.205 471.247 109.969 C 478.456 133.774 475.602 168.670 469.842 192.866 C 463.386 219.987 428.962 276.309 428.958 276.317 C 428.962 276.316 461.805 271.865 472.817 263.734 C 490.673 250.550 502.917 221.015 510.908 200.308 C 520.429 175.637 527.516 113.747 527.518 113.739 C 527.519 113.748 543.400 182.260 538.736 211.371 C 534.216 239.587 518.587 277.132 498.998 297.937 C 474.626 323.821 393.647 352.183 393.637 352.189 C 393.639 352.223 418.439 695.014 418.441 695.049 C 418.435 695.051 390.610 712.713 360.000 713.401 C 329.792 714.081 301.565 697.948 301.559 697.946 Z"/>
</g>
<g id="specs">
<path fill="#ff00ff" fill-rule="evenodd" stroke="none" d="M 232.541 221.050 C 232.553 221.041 355.303 126.928 355.315 126.919 C 355.306 126.907 261.193 4.157 261.184 4.145 C 261.171 4.154 138.422 98.266 138.410 98.276 C 138.419 98.288 232.531 221.038 232.541 221.050 Z"/>
<path fill="#ff0000" fill-rule="evenodd" stroke="none" d="M 360.000 645.748 C 360.001 645.751 371.707 678.527 371.708 678.530 C 371.707 678.529 360.001 667.638 360.000 667.637 C 359.999 667.638 348.293 678.529 348.292 678.530 C 348.293 678.527 359.999 645.751 360.000 645.748 Z"/>
<path fill="#0000ff" fill-rule="evenodd" stroke="none" d="M 388.013 45.462 C 388.014 45.464 394.813 64.503 394.814 64.505 C 394.813 64.504 388.014 58.178 388.013 58.177 C 388.012 58.178 381.213 64.504 381.212 64.505 C 381.213 64.503 388.012 45.464 388.013 45.462 Z"/>
<path fill="#00ff00" fill-rule="evenodd" stroke="none" d="M 297.656 531.942 C 297.658 531.941 319.756 523.923 319.758 523.922 C 319.757 523.923 312.441 531.867 312.440 531.867 C 312.441 531.868 319.837 539.737 319.838 539.738 C 319.835 539.737 297.658 531.943 297.656 531.942 Z"/>
<path fill="#ffff00" fill-rule="evenodd" stroke="none" d="M 301.501 696.527 C 301.502 696.526 309.940 678.154 309.941 678.152 C 309.941 678.153 310.385 687.430 310.385 687.431 C 310.386 687.431 319.670 687.656 319.671 687.656 C 319.669 687.657 301.502 696.526 301.501 696.527 Z"/>
<path fill="#ffff00" fill-rule="evenodd" stroke="none" d="M 422.645 696.302 C 422.645 696.300 413.840 678.102 413.839 678.100 C 413.839 678.101 413.581 687.385 413.581 687.386 C 413.580 687.386 404.301 687.797 404.300 687.797 C 404.302 687.798 422.644 696.301 422.645 696.302 Z"/>
<path fill="#00ff00" fill-rule="evenodd" stroke="none" d="M 422.364 531.942 C 422.362 531.941 400.264 523.923 400.262 523.922 C 400.262 523.923 407.579 531.867 407.579 531.867 C 407.579 531.868 400.183 539.737 400.182 539.738 C 400.184 539.737 422.362 531.943 422.364 531.942 Z"/>
<path fill="#00ffff" fill-rule="evenodd" stroke="none" d="M 400.473 357.151 C 400.472 357.149 391.793 344.521 391.792 344.520 C 391.792 344.520 392.661 351.506 392.661 351.507 C 392.660 351.507 385.754 352.878 385.754 352.878 C 385.755 352.879 400.472 357.150 400.473 357.151 Z"/>
<path fill="#00ffff" fill-rule="evenodd" stroke="none" d="M 318.397 355.940 C 318.398 355.939 327.196 344.808 327.197 344.807 C 327.197 344.807 325.963 351.208 325.963 351.209 C 325.964 351.209 332.258 352.901 332.259 352.902 C 332.258 352.902 318.398 355.940 318.397 355.940 Z"/>
<path fill="#be0027" fill-rule="evenodd" stroke="none" d="M 360.000 724.994 C 360.001 724.991 368.517 701.145 368.518 701.142 C 368.517 701.143 360.001 709.067 360.000 709.068 C 359.999 709.067 351.483 701.143 351.482 701.142 C 351.483 701.145 359.999 724.991 360.000 724.994 Z"/>
</g>
</g>
</svg>
