<?xml version="1.0" encoding="utf-8"?>
<!-- Generator: Moho 12.5 build 22414 -->
<!DOCTYPE svg PUBLIC "-//W3C//DTD SVG 1.1//EN" "http://www.w3.org/Graphics/SVG/1.1/DTD/svg11.dtd">
<svg version="1.1" id="Frame_0" xmlns="http://www.w3.org/2000/svg" xmlns:xlink="http://www.w3.org/1999/xlink" width="720px" height="720px">
<g id="arm_hold_up">
<g id="arm_hold_up">
<path fill="#ffffff" fill-rule="evenodd" stroke="#000000" stroke-width="4" stroke-linejoin="round" d="M 366.257 311.094 C 384.606 302.831 400.986 301.948 423.020 270.715 C 428.816 262.499 450.137 276.516 398.480 322.723 C 395.141 325.709 398.846 334.083 393.875 345.156 C 391.474 350.505 399.474 381.605 354.680 355.909 C 333.594 343.813 350.107 318.367 366.257 311.094 Z"/>
<path fill="#ffffff" fill-rule="evenodd" stroke="none" d="M 360.305 323.204 C 369.578 322.409 484.024 321.661 484.036 321.661 C 484.988 321.661 498.947 321.661 498.948 321.661 C 503.612 321.661 512.939 321.661 512.941 321.661 C 517.827 321.728 527.598 321.863 527.600 321.863 C 527.599 321.864 523.210 330.543 520.393 334.397 C 488.379 378.202 382.925 352.722 396.259 384.638 C 471.846 565.566 449.084 585.612 463.763 620.377 C 477.330 652.509 454.010 667.685 440.934 668.121 C 402.057 669.418 350.818 685.111 280.332 684.591 C 210.202 684.074 187.016 673.295 157.440 681.855 C 118.509 693.123 75.672 654.516 77.514 607.449 C 79.329 561.041 108.291 532.237 150.437 531.803 C 202.416 531.266 211.968 562.067 221.926 561.066 C 227.570 560.498 258.245 552.200 296.164 552.648 C 338.587 553.148 379.094 576.196 375.428 566.172 C 343.278 478.254 346.580 383.766 341.781 342.528 C 340.570 332.121 350.810 324.018 360.305 323.204 Z"/>
<path fill="none" stroke="#000000" stroke-width="4" stroke-linejoin="round" d="M 498.948 321.661 C 498.947 321.663 495.800 329.203 484.897 334.252 C 461.111 345.268 431.234 344.190 431.228 344.191 M 469.528 330.204 C 453.036 333.653 439.595 334.074 415.838 333.333 M 484.036 321.661 C 484.035 321.662 479.421 328.136 469.528 330.204 M 505.548 333.287 C 491.560 347.493 449.102 351.673 449.097 351.675 M 512.941 321.661 C 512.940 321.662 509.328 329.448 505.548 333.287 M 360.305 323.204 C 369.578 322.409 484.024 321.661 484.036 321.661 C 484.988 321.661 498.947 321.661 498.948 321.661 C 503.612 321.661 512.939 321.661 512.941 321.661 C 517.827 321.728 527.598 321.863 527.600 321.863 C 527.599 321.864 523.210 330.543 520.393 334.397 C 488.379 378.202 382.925 352.722 396.259 384.638 C 471.846 565.566 449.084 585.612 463.763 620.377 C 477.330 652.509 454.010 667.685 440.934 668.121 C 402.057 669.418 350.818 685.111 280.332 684.591 C 210.202 684.074 187.016 673.295 157.440 681.855 C 118.509 693.123 75.672 654.516 77.514 607.449 C 79.329 561.041 108.291 532.237 150.437 531.803 C 202.416 531.266 211.968 562.067 221.926 561.066 C 227.570 560.498 258.245 552.200 296.164 552.648 C 338.587 553.148 379.094 576.196 375.428 566.172 C 343.278 478.254 346.580 383.766 341.781 342.528 C 340.570 332.121 350.810 324.018 360.305 323.204 "/>
</g>
<g id="specs_2">
<path fill="#ff00ff" fill-rule="evenodd" stroke="none" d="M 285.507 321.822 C 285.539 321.822 606.047 321.822 606.079 321.822 C 606.079 321.791 606.079 3.524 606.079 3.492 C 606.047 3.492 285.539 3.492 285.507 3.492 C 285.507 3.524 285.507 321.791 285.507 321.822 Z"/>
<path fill="#ff0000" fill-rule="evenodd" stroke="none" d="M 182.321 608.303 C 182.317 608.304 143.655 622.112 143.651 622.114 C 143.652 622.112 156.500 608.304 156.501 608.303 C 156.500 608.302 143.652 594.494 143.651 594.492 C 143.655 594.494 182.317 608.302 182.321 608.303 Z"/>
<path fill="#0000ff" fill-rule="evenodd" stroke="none" d="M 151.812 516.935 C 151.813 516.937 159.833 539.396 159.834 539.398 C 159.833 539.397 151.813 531.935 151.812 531.934 C 151.811 531.935 143.791 539.397 143.790 539.398 C 143.791 539.396 151.811 516.937 151.812 516.935 Z"/>
<path fill="#00ff00" fill-rule="evenodd" stroke="none" d="M 338.505 479.175 C 338.508 479.174 360.925 471.040 360.927 471.039 C 360.927 471.040 353.505 479.098 353.504 479.099 C 353.505 479.100 361.008 487.083 361.008 487.083 C 361.006 487.083 338.508 479.176 338.505 479.175 Z"/>
<path fill="#ffff00" fill-rule="evenodd" stroke="none" d="M 162.947 689.848 C 162.948 689.845 178.005 657.062 178.006 657.059 C 178.006 657.061 178.799 673.614 178.799 673.616 C 178.801 673.616 195.368 674.018 195.370 674.018 C 195.367 674.019 162.950 689.846 162.947 689.848 Z"/>
<path fill="#ffff00" fill-rule="evenodd" stroke="none" d="M 401.117 689.446 C 401.116 689.443 385.404 656.969 385.403 656.966 C 385.403 656.967 384.942 673.534 384.942 673.536 C 384.941 673.536 368.384 674.270 368.382 674.270 C 368.386 674.271 401.114 689.445 401.117 689.446 Z"/>
<path fill="#00ff00" fill-rule="evenodd" stroke="none" d="M 449.323 479.175 C 449.321 479.174 426.903 471.040 426.901 471.039 C 426.902 471.040 434.324 479.098 434.324 479.099 C 434.324 479.100 426.821 487.083 426.820 487.083 C 426.822 487.083 449.321 479.176 449.323 479.175 Z"/>
<path fill="#be0027" fill-rule="evenodd" stroke="none" d="M 56.121 610.260 C 56.125 610.261 94.788 624.069 94.792 624.071 C 94.791 624.069 81.943 610.261 81.942 610.260 C 81.943 610.259 94.791 596.451 94.792 596.450 C 94.788 596.451 56.125 610.259 56.121 610.260 Z"/>
</g>
</g>
</svg>
