<?xml version="1.0" encoding="utf-8"?>
<!-- Generator: Moho 12.5 build 22414 -->
<!DOCTYPE svg PUBLIC "-//W3C//DTD SVG 1.1//EN" "http://www.w3.org/Graphics/SVG/1.1/DTD/svg11.dtd">
<svg version="1.1" id="Frame_0" xmlns="http://www.w3.org/2000/svg" xmlns:xlink="http://www.w3.org/1999/xlink" width="720px" height="720px">
<g id="arms_strong">
<g id="arms_strong_2">
<path fill="#ffffff" fill-rule="evenodd" stroke="none" d="M 587.659 221.192 C 617.309 244.320 666.662 368.872 671.733 401.729 C 675.909 428.791 656.753 546.255 652.326 564.604 C 651.329 568.738 640.431 596.800 640.410 599.585 C 640.395 601.561 645.241 612.020 647.942 624.693 C 651.092 639.473 649.669 641.924 680.035 664.597 C 683.214 666.970 678.716 676.225 658.070 669.559 C 650.976 667.269 631.992 649.201 631.990 649.199 C 631.991 649.201 630.864 658.810 640.918 674.710 C 644.878 680.974 628.503 685.826 616.863 678.379 C 611.725 675.091 605.921 654.211 605.920 654.208 C 605.919 654.211 601.225 675.947 596.509 678.379 C 584.515 684.563 569.532 684.210 570.207 677.872 C 570.797 672.338 578.164 660.126 578.734 658.192 C 579.971 653.996 580.429 650.405 580.429 650.404 C 580.426 650.407 555.448 675.979 548.922 678.653 C 546.069 679.822 535.137 682.914 527.480 680.149 C 517.909 676.693 535.211 663.811 537.832 661.966 C 551.165 652.579 557.541 641.804 557.543 641.802 C 557.541 641.803 548.054 640.886 539.917 646.231 C 535.438 649.173 509.168 652.108 500.332 645.333 C 493.847 640.362 492.531 633.525 495.141 632.633 C 508.415 628.097 520.037 630.064 523.940 628.820 C 546.190 621.729 581.864 595.602 581.869 595.599 C 581.870 595.596 587.651 576.461 585.578 568.128 C 556.008 449.274 588.419 443.944 581.464 438.899 C 489.048 371.865 521.291 356.404 483.230 335.355 C 475.820 331.257 452.302 345.253 434.029 346.654 C 406.510 348.763 358.292 340.169 358.285 340.168 C 358.277 340.169 309.837 348.654 282.242 346.289 C 265.325 344.840 243.670 331.622 236.770 335.355 C 198.515 356.051 232.099 373.012 138.536 438.899 C 131.511 443.846 163.993 449.274 134.422 568.128 C 132.349 576.461 138.130 595.596 138.131 595.599 C 138.136 595.602 175.430 622.701 196.060 628.820 C 199.987 629.985 211.585 628.097 224.860 632.633 C 227.469 633.525 226.153 640.362 219.668 645.333 C 210.833 652.108 184.562 649.173 180.083 646.231 C 171.947 640.886 162.459 641.803 162.457 641.802 C 162.459 641.804 169.368 652.075 183.934 661.378 C 187.700 663.782 202.098 677.144 192.520 680.149 C 184.752 682.586 173.923 679.841 171.078 678.653 C 164.188 675.776 138.278 648.139 138.275 648.136 C 138.275 648.137 139.406 652.742 141.266 658.192 C 141.917 660.100 149.203 672.338 149.793 677.872 C 150.468 684.210 135.464 684.604 123.491 678.379 C 118.377 675.721 113.757 651.943 113.756 651.941 C 113.755 651.943 108.599 674.763 103.137 678.379 C 91.615 686.008 75.162 680.999 79.082 674.710 C 89.259 658.384 88.009 648.553 88.010 648.551 C 88.008 648.553 69.094 667.193 61.930 669.559 C 41.329 676.364 36.786 666.970 39.965 664.597 C 70.331 641.924 68.908 639.473 72.058 624.694 C 74.759 612.021 79.635 601.560 79.590 599.585 C 79.541 597.429 70.783 575.823 69.967 572.632 C 65.060 553.424 43.953 430.163 48.267 401.729 C 53.254 368.860 102.196 243.671 132.341 221.192 C 238.609 141.951 304.421 192.823 356.622 189.837 C 415.166 186.488 493.715 147.911 587.659 221.192 Z"/>
<path fill="none" stroke="#000000" stroke-width="2" stroke-linejoin="round" d="M 356.622 189.837 C 415.166 186.488 493.715 147.911 587.659 221.192 C 617.309 244.320 666.662 368.872 671.733 401.729 C 675.909 428.791 656.753 546.255 652.326 564.604 C 651.329 568.738 640.431 596.800 640.410 599.585 C 640.395 601.561 645.241 612.020 647.942 624.693 C 651.092 639.473 649.669 641.924 680.035 664.597 C 683.214 666.970 678.716 676.225 658.070 669.559 C 650.976 667.269 631.992 649.201 631.990 649.199 C 631.991 649.201 630.864 658.810 640.918 674.710 C 644.878 680.974 628.503 685.826 616.863 678.379 C 611.725 675.091 605.921 654.211 605.920 654.208 C 605.919 654.211 601.225 675.947 596.509 678.379 C 584.515 684.563 569.532 684.210 570.207 677.872 C 570.797 672.338 578.164 660.126 578.734 658.192 C 579.971 653.996 580.429 650.405 580.429 650.404 C 580.426 650.407 555.448 675.979 548.922 678.653 C 546.069 679.822 535.137 682.914 527.480 680.149 C 517.909 676.693 535.211 663.811 537.832 661.966 C 551.165 652.579 557.541 641.804 557.543 641.802 C 557.541 641.803 548.054 640.886 539.917 646.231 C 535.438 649.173 509.168 652.108 500.332 645.333 C 493.847 640.362 492.531 633.525 495.141 632.633 C 508.415 628.097 520.037 630.064 523.940 628.820 C 546.190 621.729 581.864 595.602 581.869 595.599 C 581.870 595.596 587.651 576.461 585.578 568.128 C 556.008 449.274 588.419 443.944 581.464 438.899 C 489.048 371.865 521.291 356.404 483.230 335.355 C 475.820 331.257 452.302 345.253 434.029 346.654 C 406.510 348.763 358.292 340.169 358.285 340.168 C 358.277 340.169 309.837 348.654 282.242 346.289 C 265.325 344.840 243.670 331.622 236.770 335.355 C 198.515 356.051 232.099 373.012 138.536 438.899 C 131.511 443.846 163.993 449.274 134.422 568.128 C 132.349 576.461 138.130 595.596 138.131 595.599 C 138.136 595.602 175.430 622.701 196.060 628.820 C 199.987 629.985 211.585 628.097 224.860 632.633 C 227.469 633.525 226.153 640.362 219.668 645.333 C 210.833 652.108 184.562 649.173 180.083 646.231 C 171.947 640.886 162.459 641.803 162.457 641.802 C 162.459 641.804 169.368 652.075 183.934 661.378 C 187.700 663.782 202.098 677.144 192.520 680.149 C 184.752 682.586 173.923 679.841 171.078 678.653 C 164.188 675.776 138.278 648.139 138.275 648.136 C 138.275 648.137 139.406 652.742 141.266 658.192 C 141.917 660.100 149.203 672.338 149.793 677.872 C 150.468 684.210 135.464 684.604 123.491 678.379 C 118.377 675.721 113.757 651.943 113.756 651.941 C 113.755 651.943 108.599 674.763 103.137 678.379 C 91.615 686.008 75.162 680.999 79.082 674.710 C 89.259 658.384 88.009 648.553 88.010 648.551 C 88.008 648.553 69.094 667.193 61.930 669.559 C 41.329 676.364 36.786 666.970 39.965 664.597 C 70.331 641.924 68.908 639.473 72.058 624.694 C 74.759 612.021 79.635 601.560 79.590 599.585 C 79.541 597.429 70.783 575.823 69.967 572.632 C 65.060 553.424 43.953 430.163 48.267 401.729 C 53.254 368.860 102.196 243.671 132.341 221.192 C 238.609 141.951 304.421 192.823 356.622 189.837 M 88.010 648.551 C 88.767 643.440 89.525 638.329 90.282 633.218 M 113.756 651.941 C 113.460 647.178 113.164 642.414 112.869 637.651 M 138.275 648.136 C 137.684 642.533 136.553 639.754 135.693 635.563 M 162.457 641.802 C 157.104 634.532 157.888 632.831 155.604 628.346 M 111.929 592.022 C 108.077 592.432 98.255 593.658 98.254 593.658 M 138.131 595.599 C 138.128 595.599 127.141 590.404 111.929 592.022 M 631.990 649.199 C 631.233 643.872 630.475 638.545 629.718 633.218 M 605.920 654.208 C 606.324 648.689 606.728 643.170 607.132 637.651 M 580.429 650.404 C 581.489 643.755 583.015 640.510 584.307 635.562 M 557.543 641.802 C 562.896 634.532 562.112 632.831 564.396 628.346 M 608.396 591.050 C 613.129 591.253 624.985 593.982 624.987 593.982 M 581.869 595.599 C 581.872 595.598 591.431 590.322 608.396 591.050 "/>
</g>
<g id="specs_2">
<path fill="#ff00ff" fill-rule="evenodd" stroke="none" d="M 125.046 475.712 C 125.093 475.712 594.907 475.712 594.954 475.712 C 594.954 475.665 594.954 5.852 594.954 5.805 C 594.907 5.805 125.093 5.805 125.046 5.805 C 125.046 5.852 125.046 475.665 125.046 475.712 Z"/>
<path fill="#ff0000" fill-rule="evenodd" stroke="none" d="M 360.000 682.110 C 360.001 682.113 371.416 714.074 371.417 714.077 C 371.416 714.076 360.001 703.455 360.000 703.454 C 359.999 703.455 348.584 714.076 348.583 714.077 C 348.584 714.074 359.999 682.113 360.000 682.110 Z"/>
<path fill="#0000ff" fill-rule="evenodd" stroke="none" d="M 360.000 89.890 C 360.001 89.892 366.631 108.457 366.632 108.459 C 366.631 108.459 360.001 102.290 360.000 102.289 C 359.999 102.290 353.369 108.459 353.368 108.459 C 353.369 108.457 359.999 89.892 360.000 89.890 Z"/>
<path fill="#00ff00" fill-rule="evenodd" stroke="none" d="M 46.320 405.066 C 46.321 405.066 64.853 398.341 64.855 398.341 C 64.854 398.341 58.719 405.003 58.718 405.004 C 58.719 405.005 64.921 411.603 64.922 411.604 C 64.920 411.603 46.321 405.067 46.320 405.066 Z"/>
<path fill="#00ff00" fill-rule="evenodd" stroke="none" d="M 673.681 405.066 C 673.679 405.066 655.147 398.341 655.145 398.341 C 655.146 398.341 661.281 405.003 661.282 405.004 C 661.281 405.005 655.079 411.603 655.078 411.604 C 655.080 411.603 673.679 405.067 673.681 405.066 Z"/>
<path fill="#00ffff" fill-rule="evenodd" stroke="none" d="M 581.633 202.755 C 581.632 202.757 575.051 221.340 575.050 221.342 C 575.050 221.341 573.804 212.370 573.804 212.370 C 573.803 212.370 564.766 212.966 564.765 212.966 C 564.767 212.965 581.631 202.756 581.633 202.755 Z"/>
<path fill="#00ffff" fill-rule="evenodd" stroke="none" d="M 138.470 203.371 C 138.471 203.373 146.276 221.476 146.277 221.478 C 146.277 221.477 146.923 212.443 146.923 212.442 C 146.924 212.442 155.980 212.435 155.981 212.435 C 155.979 212.434 138.472 203.372 138.470 203.371 Z"/>
<path fill="#be0027" fill-rule="evenodd" stroke="none" d="M 108.977 709.013 C 108.978 709.010 120.392 677.049 120.393 677.046 C 120.392 677.047 108.978 687.667 108.977 687.668 C 108.976 687.667 97.561 677.047 97.560 677.046 C 97.561 677.049 108.976 709.010 108.977 709.013 Z"/>
<path fill="#be0027" fill-rule="evenodd" stroke="none" d="M 611.023 709.013 C 611.024 709.010 622.439 677.049 622.440 677.046 C 622.439 677.047 611.024 687.667 611.023 687.668 C 611.022 687.667 599.608 677.047 599.607 677.046 C 599.608 677.049 611.022 709.010 611.023 709.013 Z"/>
</g>
</g>
</svg>
