<?xml version="1.0" encoding="utf-8"?>
<!-- Generator: Moho 12.5 build 22414 -->
<!DOCTYPE svg PUBLIC "-//W3C//DTD SVG 1.1//EN" "http://www.w3.org/Graphics/SVG/1.1/DTD/svg11.dtd">
<svg version="1.1" id="Frame_0" xmlns="http://www.w3.org/2000/svg" xmlns:xlink="http://www.w3.org/1999/xlink" width="720px" height="720px">
<g id="arms_strong">
<g id="arms_strong">
<path fill="#ffffff" fill-rule="evenodd" stroke="none" d="M 492.760 149.020 C 478.178 151.525 439.257 166.642 434.503 202.746 C 428.077 251.537 447.812 274.638 468.810 286.249 C 488.665 297.228 521.654 310.352 525.126 316.672 C 540.172 344.061 558.528 379.171 602.155 425.419 C 602.520 425.806 603.296 441.852 598.918 456.490 C 592.142 479.144 607.902 555.671 600.213 593.071 C 596.523 611.016 599.569 622.196 599.565 622.200 C 599.547 622.195 569.838 638.237 561.374 643.561 C 556.252 646.783 534.896 654.045 534.188 656.507 C 533.152 660.106 533.119 666.533 537.424 668.806 C 544.627 672.609 554.158 670.247 555.549 670.101 C 557.620 669.882 581.429 662.202 581.432 662.201 C 581.431 662.204 575.333 681.231 579.499 684.341 C 580.134 684.816 590.252 685.016 591.151 684.341 C 594.749 681.639 602.801 669.455 602.802 669.453 C 602.802 669.455 601.880 684.905 606.039 687.578 C 607.280 688.376 617.062 690.113 618.985 688.872 C 621.284 687.388 623.515 673.986 623.516 673.984 C 623.516 673.986 627.911 686.982 629.989 688.225 C 631.797 689.306 642.235 688.866 643.582 687.578 C 644.870 686.346 644.877 674.633 644.877 674.632 C 644.878 674.633 649.676 684.946 651.350 685.636 C 652.565 686.137 659.664 684.422 660.412 683.694 C 662.459 681.699 662.855 675.614 663.001 658.449 C 663.074 649.935 656.106 628.602 655.881 624.789 C 655.004 609.956 672.225 510.061 673.358 492.092 C 674.131 479.838 674.919 410.234 673.358 400.822 C 671.199 387.794 641.143 299.893 631.284 281.717 C 619.187 259.416 564.289 177.160 536.130 159.377 C 536.130 159.377 506.612 146.640 492.760 149.020 Z"/>
<path fill="none" stroke="#000000" stroke-width="4" stroke-linejoin="round" d="M 625.332 618.512 C 633.243 618.662 639.091 620.920 645.971 622.123 M 599.565 622.200 C 599.568 622.199 615.504 618.326 625.332 618.512 M 644.877 674.632 C 644.898 666.760 644.918 658.888 644.939 651.017 M 623.516 673.984 C 624.121 665.124 624.727 656.265 625.332 647.405 M 581.432 662.201 C 581.619 657.269 581.806 652.337 581.993 647.405 M 602.802 669.453 C 603.605 661.760 604.408 654.066 605.211 646.373 M 536.130 159.377 C 536.130 159.377 506.612 146.640 492.760 149.020 C 478.178 151.525 439.257 166.642 434.503 202.746 C 428.077 251.537 447.812 274.638 468.810 286.249 C 488.665 297.228 521.654 310.352 525.126 316.672 C 540.172 344.061 558.528 379.171 602.155 425.419 C 602.520 425.806 603.296 441.852 598.918 456.490 C 592.142 479.144 607.902 555.671 600.213 593.071 C 596.523 611.016 599.569 622.196 599.565 622.200 C 599.547 622.195 569.838 638.237 561.374 643.561 C 556.252 646.783 534.896 654.045 534.188 656.507 C 533.152 660.106 533.119 666.533 537.424 668.806 C 544.627 672.609 554.158 670.247 555.549 670.101 C 557.620 669.882 581.429 662.202 581.432 662.201 C 581.431 662.204 575.333 681.231 579.499 684.341 C 580.134 684.816 590.252 685.016 591.151 684.341 C 594.749 681.639 602.801 669.455 602.802 669.453 C 602.802 669.455 601.880 684.905 606.039 687.578 C 607.280 688.376 617.062 690.113 618.985 688.872 C 621.284 687.388 623.515 673.986 623.516 673.984 C 623.516 673.986 627.911 686.982 629.989 688.225 C 631.797 689.306 642.235 688.866 643.582 687.578 C 644.870 686.346 644.877 674.633 644.877 674.632 C 644.878 674.633 649.676 684.946 651.350 685.636 C 652.565 686.137 659.664 684.422 660.412 683.694 C 662.459 681.699 662.855 675.614 663.001 658.449 C 663.074 649.935 656.106 628.602 655.881 624.789 C 655.004 609.956 672.225 510.061 673.358 492.092 C 674.131 479.838 674.919 410.234 673.358 400.822 C 671.199 387.794 641.143 299.893 631.284 281.717 C 619.187 259.416 564.289 177.160 536.130 159.377 "/>
<path fill="#ffffff" fill-rule="evenodd" stroke="none" d="M 227.240 149.020 C 241.822 151.525 280.743 166.642 285.498 202.746 C 291.923 251.537 272.189 274.638 251.191 286.249 C 231.335 297.228 198.346 310.352 194.874 316.672 C 179.828 344.061 161.472 379.171 117.845 425.419 C 117.480 425.806 116.704 441.852 121.082 456.490 C 127.858 479.144 112.098 555.671 119.787 593.071 C 123.477 611.016 120.431 622.196 120.435 622.200 C 120.453 622.195 150.162 638.237 158.626 643.561 C 163.748 646.783 185.104 654.045 185.812 656.507 C 186.848 660.106 186.881 666.533 182.576 668.806 C 175.373 672.609 165.843 670.247 164.451 670.101 C 162.380 669.882 138.571 662.202 138.569 662.201 C 138.569 662.204 144.667 681.231 140.501 684.341 C 139.866 684.816 129.748 685.016 128.849 684.341 C 125.251 681.639 117.199 669.455 117.198 669.453 C 117.198 669.455 118.120 684.905 113.961 687.578 C 112.720 688.376 102.938 690.113 101.015 688.872 C 98.716 687.388 96.485 673.986 96.484 673.984 C 96.484 673.986 92.089 686.982 90.011 688.225 C 88.203 689.306 77.765 688.866 76.418 687.578 C 75.130 686.346 75.123 674.633 75.123 674.632 C 75.122 674.633 70.324 684.946 68.650 685.636 C 67.435 686.137 60.336 684.422 59.588 683.694 C 57.541 681.699 57.145 675.614 56.999 658.449 C 56.926 649.935 63.894 628.602 64.119 624.789 C 64.996 609.956 47.775 510.061 46.642 492.092 C 45.869 479.838 45.081 410.234 46.642 400.822 C 48.801 387.794 78.857 299.893 88.716 281.717 C 100.813 259.416 155.711 177.160 183.870 159.377 C 183.871 159.377 213.388 146.640 227.240 149.020 Z"/>
<path fill="none" stroke="#000000" stroke-width="4" stroke-linejoin="round" d="M 94.668 618.512 C 86.757 618.662 80.909 620.920 74.029 622.123 M 120.435 622.200 C 120.432 622.199 104.496 618.326 94.668 618.512 M 75.123 674.632 C 75.102 666.760 75.082 658.888 75.061 651.017 M 96.484 673.984 C 95.879 665.124 95.273 656.265 94.668 647.405 M 138.569 662.201 C 138.382 657.269 138.194 652.337 138.007 647.405 M 117.198 669.453 C 116.395 661.760 115.592 654.066 114.789 646.373 M 183.870 159.377 C 183.871 159.377 213.388 146.640 227.240 149.020 C 241.822 151.525 280.743 166.642 285.498 202.746 C 291.923 251.537 272.189 274.638 251.191 286.249 C 231.335 297.228 198.346 310.352 194.874 316.672 C 179.828 344.061 161.472 379.171 117.845 425.419 C 117.480 425.806 116.704 441.852 121.082 456.490 C 127.858 479.144 112.098 555.671 119.787 593.071 C 123.477 611.016 120.431 622.196 120.435 622.200 C 120.453 622.195 150.162 638.237 158.626 643.561 C 163.748 646.783 185.104 654.045 185.812 656.507 C 186.848 660.106 186.881 666.533 182.576 668.806 C 175.373 672.609 165.843 670.247 164.451 670.101 C 162.380 669.882 138.571 662.202 138.569 662.201 C 138.569 662.204 144.667 681.231 140.501 684.341 C 139.866 684.816 129.748 685.016 128.849 684.341 C 125.251 681.639 117.199 669.455 117.198 669.453 C 117.198 669.455 118.120 684.905 113.961 687.578 C 112.720 688.376 102.938 690.113 101.015 688.872 C 98.716 687.388 96.485 673.986 96.484 673.984 C 96.484 673.986 92.089 686.982 90.011 688.225 C 88.203 689.306 77.765 688.866 76.418 687.578 C 75.130 686.346 75.123 674.633 75.123 674.632 C 75.122 674.633 70.324 684.946 68.650 685.636 C 67.435 686.137 60.336 684.422 59.588 683.694 C 57.541 681.699 57.145 675.614 56.999 658.449 C 56.926 649.935 63.894 628.602 64.119 624.789 C 64.996 609.956 47.775 510.061 46.642 492.092 C 45.869 479.838 45.081 410.234 46.642 400.822 C 48.801 387.794 78.857 299.893 88.716 281.717 C 100.813 259.416 155.711 177.160 183.870 159.377 "/>
</g>
<g id="specs_2">
<path fill="#ff00ff" fill-rule="evenodd" stroke="none" d="M 170.092 396.500 C 170.130 396.500 549.870 396.500 549.908 396.500 C 549.908 396.462 549.908 16.722 549.908 16.684 C 549.870 16.684 170.130 16.684 170.092 16.684 C 170.092 16.722 170.092 396.462 170.092 396.500 Z"/>
<path fill="#ff0000" fill-rule="evenodd" stroke="none" d="M 360.000 677.902 C 360.001 677.905 371.503 710.112 371.504 710.115 C 371.503 710.114 360.001 699.411 360.000 699.410 C 359.999 699.411 348.497 710.114 348.496 710.115 C 348.497 710.112 359.999 677.905 360.000 677.902 Z"/>
<path fill="#0000ff" fill-rule="evenodd" stroke="none" d="M 360.000 81.130 C 360.001 81.131 366.682 99.840 366.683 99.842 C 366.682 99.841 360.001 93.625 360.000 93.624 C 359.999 93.625 353.318 99.841 353.317 99.842 C 353.318 99.840 359.999 81.131 360.000 81.130 Z"/>
<path fill="#00ff00" fill-rule="evenodd" stroke="none" d="M 43.908 398.729 C 43.910 398.728 62.584 391.952 62.586 391.951 C 62.586 391.952 56.403 398.665 56.402 398.666 C 56.403 398.666 62.653 405.316 62.654 405.317 C 62.652 405.316 43.910 398.729 43.908 398.729 Z"/>
<path fill="#00ff00" fill-rule="evenodd" stroke="none" d="M 676.092 398.729 C 676.090 398.728 657.416 391.952 657.414 391.951 C 657.414 391.952 663.597 398.665 663.598 398.666 C 663.597 398.666 657.347 405.316 657.346 405.317 C 657.348 405.316 676.090 398.729 676.092 398.729 Z"/>
<path fill="#00ffff" fill-rule="evenodd" stroke="none" d="M 583.336 173.610 C 583.336 173.612 576.704 192.338 576.703 192.339 C 576.703 192.339 575.447 183.299 575.447 183.298 C 575.446 183.298 566.340 183.899 566.339 183.899 C 566.341 183.898 583.335 173.611 583.336 173.610 Z"/>
<path fill="#00ffff" fill-rule="evenodd" stroke="none" d="M 136.767 174.230 C 136.768 174.232 144.634 192.474 144.634 192.476 C 144.634 192.475 145.285 183.372 145.285 183.371 C 145.286 183.371 154.412 183.364 154.412 183.364 C 154.411 183.363 136.769 174.231 136.767 174.230 Z"/>
<path fill="#be0027" fill-rule="evenodd" stroke="none" d="M 107.047 705.012 C 107.048 705.008 118.550 672.802 118.552 672.799 C 118.550 672.800 107.048 683.502 107.047 683.503 C 107.046 683.502 95.544 672.800 95.543 672.799 C 95.544 672.802 107.046 705.008 107.047 705.012 Z"/>
<path fill="#be0027" fill-rule="evenodd" stroke="none" d="M 612.953 705.012 C 612.954 705.008 624.456 672.802 624.457 672.799 C 624.456 672.800 612.954 683.502 612.953 683.503 C 612.952 683.502 601.450 672.800 601.448 672.799 C 601.450 672.802 612.952 705.008 612.953 705.012 Z"/>
</g>
</g>
</svg>
