<?xml version="1.0" encoding="utf-8"?>
<!-- Generator: Moho 12.5 build 22414 -->
<!DOCTYPE svg PUBLIC "-//W3C//DTD SVG 1.1//EN" "http://www.w3.org/Graphics/SVG/1.1/DTD/svg11.dtd">
<svg version="1.1" id="Frame_0" xmlns="http://www.w3.org/2000/svg" xmlns:xlink="http://www.w3.org/1999/xlink" width="720px" height="720px">
<g id="atlas">
<g id="atlas">
<path fill="#ffffff" fill-rule="evenodd" stroke="none" d="M 193.023 151.219 C 192.579 155.728 192.407 163.307 194.434 169.120 C 160.765 168.223 128.640 183.423 133.066 176.849 C 166.844 126.681 149.509 72.771 152.243 49.241 C 152.933 43.303 147.090 38.680 141.672 38.217 C 136.381 37.764 71.082 37.348 71.075 37.348 C 70.532 37.348 62.567 37.350 62.567 37.349 C 59.905 37.350 54.584 37.351 54.583 37.351 C 51.795 37.390 46.220 37.468 46.219 37.468 C 46.219 37.469 48.724 42.419 50.331 44.618 C 68.601 69.610 129.863 55.558 121.164 73.273 C 74.648 168.003 91.327 188.070 82.671 207.785 C 74.262 226.939 87.890 235.983 95.701 236.726 C 117.215 238.774 144.100 254.632 183.223 256.341 C 226.437 258.229 255.164 244.758 257.286 248.642 C 268.601 269.350 277.147 287.466 303.159 299.799 C 340.204 317.363 371.227 359.573 362.657 399.853 C 346.875 400.564 335.382 399.621 323.112 403.064 C 219.823 432.046 215.925 467.413 173.839 489.797 C 157.553 498.458 162.515 532.406 174.098 538.502 C 193.307 548.611 209.507 572.666 237.755 594.160 C 263.781 613.965 298.341 631.253 302.771 637.089 C 308.997 645.292 282.230 648.388 271.853 651.265 C 268.732 652.130 258.347 654.050 256.049 654.491 C 247.247 656.182 248.241 659.084 245.094 658.444 C 238.945 657.193 227.937 665.960 230.121 665.061 C 225.721 667.431 233.375 668.696 234.582 668.193 C 238.040 666.754 243.272 668.019 243.273 668.019 C 243.272 668.019 223.991 667.299 225.172 671.414 C 225.738 673.389 229.036 672.924 229.982 672.871 C 235.643 672.555 244.016 672.741 244.017 672.741 C 244.015 672.741 225.940 672.148 222.077 675.097 C 211.155 683.436 235.808 676.450 242.054 679.293 C 242.677 679.387 205.271 678.380 212.256 687.935 C 217.602 695.247 234.097 692.926 237.889 690.602 C 245.432 685.979 253.550 693.493 277.128 686.605 C 293.327 681.872 306.545 686.414 313.170 687.020 C 324.849 688.088 339.361 687.871 354.332 684.909 C 368.713 682.064 364.963 670.386 361.671 659.676 C 360.307 655.242 351.825 645.671 347.975 637.632 C 333.444 607.290 329.422 587.301 298.924 550.173 C 286.770 535.376 250.970 528.336 250.966 528.334 C 250.975 528.330 300.035 520.730 343.919 496.692 C 369.903 502.864 383.605 506.363 397.659 500.222 C 381.665 556.483 391.272 578.180 379.234 615.733 C 374.103 631.741 398.946 651.223 410.268 647.468 C 431.309 640.490 459.154 640.212 495.796 635.558 C 540.785 629.845 591.475 621.084 601.478 620.199 C 611.671 619.298 605.748 648.343 604.467 653.864 C 603.824 656.637 602.389 675.419 600.146 678.220 C 587.990 693.402 581.616 685.408 578.829 691.796 C 575.853 698.615 594.644 702.917 597.149 698.210 C 599.465 701.792 606.138 698.414 607.425 696.260 C 610.430 691.235 612.205 689.502 612.206 689.501 C 612.205 689.502 604.337 700.506 606.720 701.622 C 611.547 703.880 616.601 698.329 617.102 696.176 C 618.086 691.952 621.223 688.494 621.224 688.493 C 621.223 688.495 615.613 699.424 618.477 699.948 C 623.227 700.818 625.394 698.056 626.075 695.400 C 627.619 689.383 629.847 687.837 629.848 687.836 C 629.847 687.837 623.907 699.104 628.044 698.947 C 630.239 698.863 633.034 696.723 633.387 695.704 C 634.503 692.492 639.322 688.957 643.480 684.394 C 661.043 665.122 653.967 652.743 655.110 630.839 C 655.774 618.103 665.330 604.376 663.903 588.388 C 662.528 572.988 652.260 570.845 645.615 570.386 C 632.813 569.501 623.079 577.050 613.538 575.269 C 584.083 569.772 572.681 561.077 531.205 554.901 C 512.198 552.070 480.572 570.139 480.567 570.140 C 480.571 570.133 514.385 540.181 522.616 498.787 C 579.947 469.577 543.996 395.867 531.966 382.866 C 531.035 352.611 533.273 318.431 510.950 280.572 C 507.349 274.465 503.687 259.490 495.514 245.147 C 505.843 242.588 518.817 250.251 535.155 251.026 C 575.180 252.925 604.052 239.777 626.155 239.112 C 634.670 238.856 650.490 229.171 641.562 208.289 C 632.989 188.240 647.945 150.857 598.847 73.194 C 588.302 56.512 651.407 69.512 669.670 44.516 C 671.277 42.317 673.781 37.364 673.781 37.364 C 673.780 37.364 668.206 37.287 665.418 37.249 C 665.417 37.249 660.095 37.250 657.433 37.251 C 657.433 37.251 649.469 37.252 648.925 37.252 C 648.918 37.252 583.618 37.690 578.327 38.144 C 572.910 38.610 567.743 43.194 567.760 49.172 C 567.823 70.851 556.333 107.613 585.785 171.405 C 588.286 176.823 568.096 156.182 544.523 153.569 C 522.433 151.120 504.526 160.962 501.260 160.342 C 494.829 159.120 496.624 154.024 467.031 142.486 C 419.588 123.987 376.250 144.106 365.585 142.102 C 356.006 140.302 352.910 138.430 346.844 133.929 C 327.011 119.212 307.071 96.978 289.363 90.495 C 268.738 82.945 233.669 84.782 215.261 100.462 C 199.615 113.788 193.993 141.387 193.023 151.219 M 607.070 685.123 C 607.069 685.124 594.714 694.444 597.149 698.210 C 601.425 690.177 607.069 685.124 607.070 685.123 M 242.054 679.293 C 242.846 679.654 242.680 679.386 242.680 679.386 M 242.837 663.022 C 242.836 663.022 234.225 662.851 230.121 665.061 C 236.908 662.270 242.836 663.022 242.837 663.022 M 194.434 169.120 C 194.434 169.120 194.434 169.120 194.434 169.120 Z"/>
<path fill="none" stroke="#000000" stroke-width="2" stroke-linejoin="round" d="M 354.360 215.918 C 354.362 215.913 351.951 194.271 373.632 173.741 C 391.197 157.108 404.375 158.435 419.747 150.781 M 357.966 301.173 C 336.902 306.552 323.124 307.216 305.153 301.023 M 385.703 300.259 C 385.707 300.259 411.061 303.305 426.592 300.707 C 447.349 297.235 463.324 276.763 463.328 276.761 M 610.014 43.918 C 623.569 44.339 631.238 44.097 640.647 42.128 C 646.292 40.947 648.924 37.253 648.925 37.252 C 648.918 37.252 583.618 37.690 578.327 38.144 C 572.910 38.610 567.743 43.194 567.760 49.172 C 567.823 70.851 556.333 107.613 585.785 171.405 C 588.286 176.823 568.096 156.182 544.523 153.569 C 522.433 151.120 504.526 160.962 501.260 160.342 C 494.829 159.120 496.624 154.024 467.031 142.486 C 419.588 123.987 376.250 144.106 365.585 142.102 C 356.006 140.302 352.910 138.430 346.844 133.929 C 327.011 119.212 307.071 96.978 289.363 90.495 C 268.738 82.945 233.669 84.782 215.261 100.462 C 199.615 113.788 193.993 141.387 193.023 151.219 C 192.579 155.728 192.407 163.307 194.434 169.120 C 200.359 186.114 228.868 221.231 228.871 221.236 C 228.872 221.235 237.574 208.820 237.575 208.819 C 237.579 208.821 265.814 229.629 276.786 226.988 C 289.943 223.820 295.080 209.446 299.336 201.097 C 303.463 204.850 315.133 215.801 323.032 223.153 M 362.657 399.853 C 371.227 359.573 340.204 317.363 303.159 299.799 C 277.147 287.466 268.601 269.350 257.286 248.642 C 255.164 244.758 226.437 258.229 183.223 256.341 C 144.100 254.632 117.215 238.774 95.701 236.726 C 87.890 235.983 74.262 226.939 82.671 207.785 C 91.327 188.070 74.648 168.003 121.164 73.273 C 129.863 55.558 68.601 69.610 50.331 44.618 C 48.724 42.419 46.219 37.469 46.219 37.468 C 46.220 37.468 51.795 37.390 54.583 37.351 C 54.584 37.351 59.905 37.350 62.567 37.349 C 62.567 37.350 70.532 37.348 71.075 37.348 C 71.082 37.348 136.381 37.764 141.672 38.217 C 147.090 38.680 152.933 43.303 152.243 49.241 C 149.509 72.771 166.844 126.681 133.066 176.849 C 128.640 183.423 160.765 168.223 194.434 169.120 C 194.434 169.120 194.434 169.120 194.434 169.120 M 431.935 422.067 C 427.619 429.303 423.649 436.104 420.295 442.687 C 411.645 460.066 406.977 476.175 401.629 490.020 C 400.218 493.716 398.571 497.015 397.659 500.222 C 381.665 556.483 391.272 578.180 379.234 615.733 C 374.103 631.741 398.946 651.223 410.268 647.468 C 431.309 640.490 459.154 640.212 495.796 635.558 C 540.785 629.845 591.475 621.084 601.478 620.199 C 611.671 619.298 605.748 648.343 604.467 653.864 C 603.824 656.637 602.389 675.419 600.146 678.220 C 587.990 693.402 581.616 685.408 578.829 691.796 C 575.853 698.615 594.644 702.917 597.149 698.210 C 601.425 690.177 607.069 685.124 607.070 685.123 C 607.069 685.124 594.714 694.444 597.149 698.210 C 599.465 701.792 606.138 698.414 607.425 696.260 C 610.430 691.235 612.205 689.502 612.206 689.501 C 612.205 689.502 604.337 700.506 606.720 701.622 C 611.547 703.880 616.601 698.329 617.102 696.176 C 618.086 691.952 621.223 688.494 621.224 688.493 C 621.223 688.495 615.613 699.424 618.477 699.948 C 623.227 700.818 625.394 698.056 626.075 695.400 C 627.619 689.383 629.847 687.837 629.848 687.836 C 629.847 687.837 623.907 699.104 628.044 698.947 C 630.239 698.863 633.034 696.723 633.387 695.704 C 634.503 692.492 639.322 688.957 643.480 684.394 C 661.043 665.122 653.967 652.743 655.110 630.839 C 655.774 618.103 665.330 604.376 663.903 588.388 C 662.528 572.988 652.260 570.845 645.615 570.386 C 632.813 569.501 623.079 577.050 613.538 575.269 C 584.083 569.772 572.681 561.077 531.205 554.901 C 512.198 552.070 480.572 570.139 480.567 570.140 C 480.571 570.133 514.385 540.181 522.616 498.787 C 579.947 469.577 543.996 395.867 531.966 382.866 C 531.035 352.611 533.273 318.431 510.950 280.572 C 507.349 274.465 503.687 259.490 495.514 245.147 C 505.843 242.588 518.817 250.251 535.155 251.026 C 575.180 252.925 604.052 239.777 626.155 239.112 C 634.670 238.856 650.490 229.171 641.562 208.289 C 632.989 188.240 647.945 150.857 598.847 73.194 C 588.302 56.512 651.407 69.512 669.670 44.516 C 671.277 42.317 673.781 37.364 673.781 37.364 C 673.780 37.364 668.206 37.287 665.418 37.249 C 665.417 37.249 660.095 37.250 657.433 37.251 C 657.433 37.251 649.469 37.252 648.925 37.252 M 362.657 399.853 C 346.875 400.564 335.382 399.621 323.112 403.064 C 219.823 432.046 215.925 467.413 173.839 489.797 C 157.553 498.458 162.515 532.406 174.098 538.502 C 193.307 548.611 209.507 572.666 237.755 594.160 C 263.781 613.965 298.341 631.253 302.771 637.089 C 308.997 645.292 282.230 648.388 271.853 651.265 C 268.732 652.130 258.347 654.050 256.049 654.491 C 247.247 656.182 248.241 659.084 245.094 658.444 C 238.945 657.193 227.937 665.960 230.121 665.061 C 236.908 662.270 242.836 663.022 242.837 663.022 C 242.836 663.022 234.225 662.851 230.121 665.061 C 225.721 667.431 233.375 668.696 234.582 668.193 C 238.040 666.754 243.272 668.019 243.273 668.019 C 243.272 668.019 223.991 667.299 225.172 671.414 C 225.738 673.389 229.036 672.924 229.982 672.871 C 235.643 672.555 244.016 672.741 244.017 672.741 C 244.015 672.741 225.940 672.148 222.077 675.097 C 211.155 683.436 235.808 676.450 242.054 679.293 C 242.846 679.654 242.680 679.386 242.680 679.386 C 242.677 679.387 205.271 678.380 212.256 687.935 C 217.602 695.247 234.097 692.926 237.889 690.602 C 245.432 685.979 253.550 693.493 277.128 686.605 C 293.327 681.872 306.545 686.414 313.170 687.020 C 324.849 688.088 339.361 687.871 354.332 684.909 C 368.713 682.064 364.963 670.386 361.671 659.676 C 360.307 655.242 351.825 645.671 347.975 637.632 C 333.444 607.290 329.422 587.301 298.924 550.173 C 286.770 535.376 250.970 528.336 250.966 528.334 C 250.975 528.330 300.035 520.730 343.919 496.692 C 369.903 502.864 383.605 506.363 397.659 500.222 M 401.629 490.020 C 365.987 468.845 360.022 435.873 364.342 410.069 M 71.075 37.348 C 71.076 37.348 73.709 41.042 79.353 42.221 C 88.763 44.188 96.433 44.426 109.988 44.001 M 54.583 37.351 C 54.583 37.351 56.710 41.731 58.802 43.984 C 64.135 49.725 80.283 53.095 80.286 53.096 M 62.567 37.349 C 62.567 37.350 64.389 41.598 70.584 44.532 C 80.286 49.126 92.403 49.374 92.405 49.374 M 495.514 245.147 C 491.699 246.091 474.721 256.266 456.331 252.226 M 665.418 37.249 C 665.417 37.250 663.280 41.620 661.200 43.884 C 656.407 49.101 641.922 52.453 641.920 52.454 M 657.433 37.251 C 657.433 37.252 655.579 41.431 649.417 44.436 C 639.715 49.168 627.601 49.836 627.598 49.836 "/>
</g>
<g id="specs_2">
<path fill="#ff0000" fill-rule="evenodd" stroke="none" d="M 360.000 88.336 C 360.002 88.330 383.232 23.285 383.235 23.278 C 383.232 23.280 360.002 44.895 360.000 44.897 C 359.998 44.895 336.768 23.280 336.765 23.278 C 336.768 23.285 359.998 88.330 360.000 88.336 Z"/>
<path fill="#0000ff" fill-rule="evenodd" stroke="none" d="M 622.513 13.766 C 622.514 13.770 636.008 51.553 636.009 51.557 C 636.008 51.556 622.514 39.001 622.513 39.000 C 622.511 39.001 609.018 51.556 609.016 51.557 C 609.018 51.553 622.511 13.770 622.513 13.766 Z"/>
<path fill="#00ff00" fill-rule="evenodd" stroke="none" d="M 61.432 219.353 C 61.436 219.352 95.364 207.040 95.368 207.039 C 95.367 207.040 84.134 219.238 84.133 219.239 C 84.134 219.240 95.489 231.321 95.490 231.323 C 95.487 231.321 61.436 219.355 61.432 219.353 Z"/>
<path fill="#ffff00" fill-rule="evenodd" stroke="none" d="M 232.871 707.465 C 232.874 707.459 262.040 643.956 262.043 643.950 C 262.043 643.953 263.579 676.019 263.579 676.022 C 263.582 676.023 295.675 676.800 295.678 676.801 C 295.672 676.804 232.878 707.462 232.871 707.465 Z"/>
<path fill="#ffff00" fill-rule="evenodd" stroke="none" d="M 676.995 706.687 C 676.992 706.681 646.558 643.775 646.555 643.769 C 646.555 643.772 645.664 675.864 645.664 675.867 C 645.661 675.867 613.588 677.289 613.584 677.289 C 613.591 677.292 676.989 706.684 676.995 706.687 Z"/>
<path fill="#00ff00" fill-rule="evenodd" stroke="none" d="M 663.081 219.353 C 663.078 219.352 629.149 207.040 629.146 207.039 C 629.147 207.040 640.380 219.238 640.381 219.239 C 640.380 219.240 629.025 231.321 629.024 231.323 C 629.027 231.321 663.078 219.355 663.081 219.353 Z"/>
<path fill="#00ffff" fill-rule="evenodd" stroke="none" d="M 671.617 552.922 C 671.616 552.926 658.222 590.745 658.221 590.749 C 658.221 590.747 655.684 572.491 655.684 572.489 C 655.682 572.489 637.291 573.703 637.289 573.704 C 637.293 573.701 671.614 552.924 671.617 552.922 Z"/>
<path fill="#00ffff" fill-rule="evenodd" stroke="none" d="M 150.965 486.854 C 150.966 486.858 166.852 523.700 166.854 523.703 C 166.854 523.701 168.167 505.317 168.167 505.315 C 168.169 505.315 186.600 505.301 186.602 505.301 C 186.598 505.299 150.968 486.856 150.965 486.854 Z"/>
<path fill="#be0027" fill-rule="evenodd" stroke="none" d="M 572.988 495.326 C 572.985 495.320 543.418 432.900 543.415 432.894 C 543.414 432.897 542.272 464.606 542.272 464.609 C 542.269 464.610 510.559 465.752 510.556 465.752 C 510.562 465.755 572.982 495.323 572.988 495.326 Z"/>
<path fill="#ff00ff" fill-rule="evenodd" stroke="none" d="M 213.117 196.959 C 213.127 196.959 309.919 196.959 309.928 196.959 C 309.928 196.950 309.928 103.256 309.928 103.246 C 309.919 103.246 213.127 103.246 213.117 103.246 C 213.117 103.256 213.117 196.950 213.117 196.959 Z"/>
<path fill="#0000ff" fill-rule="evenodd" stroke="none" d="M 97.487 13.766 C 97.489 13.770 110.982 51.553 110.984 51.557 C 110.982 51.556 97.489 39.001 97.487 39.000 C 97.486 39.001 83.992 51.556 83.991 51.557 C 83.992 51.553 97.486 13.770 97.487 13.766 Z"/>
</g>
</g>
</svg>
