<?xml version="1.0" encoding="utf-8"?>
<!-- Generator: Moho 12.5 build 22414 -->
<!DOCTYPE svg PUBLIC "-//W3C//DTD SVG 1.1//EN" "http://www.w3.org/Graphics/SVG/1.1/DTD/svg11.dtd">
<svg version="1.1" id="Frame_0" xmlns="http://www.w3.org/2000/svg" xmlns:xlink="http://www.w3.org/1999/xlink" width="720px" height="720px">
<g id="atlas">
<g id="atlas">
<path fill="#ffffff" fill-rule="evenodd" stroke="none" d="M 193.004 151.191 C 192.559 155.700 192.386 163.279 194.412 169.092 C 160.744 168.190 128.616 183.385 133.043 176.811 C 166.829 126.649 149.503 72.736 152.241 49.207 C 152.932 43.268 147.090 38.645 141.672 38.180 C 136.381 37.727 71.082 37.300 71.075 37.300 C 70.531 37.300 62.567 37.300 62.567 37.300 C 59.905 37.300 54.584 37.300 54.583 37.300 C 51.795 37.339 46.220 37.416 46.219 37.416 C 46.219 37.417 48.723 42.368 50.330 44.567 C 68.595 69.562 129.860 55.520 121.158 73.233 C 74.626 167.955 91.302 188.025 82.643 207.739 C 74.230 226.891 87.857 235.938 95.668 236.682 C 117.181 238.734 144.064 254.597 183.187 256.312 C 226.400 258.207 255.129 244.741 257.251 248.625 C 268.563 269.335 277.106 287.453 303.116 299.790 C 340.158 317.360 371.174 359.575 362.597 399.853 C 346.815 400.562 335.316 399.596 323.051 403.058 C 216.781 433.053 213.072 469.880 169.822 493.050 C 153.562 501.761 158.400 535.833 170.073 541.755 C 188.944 551.330 205.881 573.590 233.720 594.140 C 260.033 613.563 294.411 631.161 298.730 637.080 C 305.272 646.045 270.862 650.243 264.741 650.811 C 261.125 651.146 238.176 656.310 233.609 655.993 C 213.127 654.569 213.598 649.112 207.142 652.640 C 200.813 656.098 212.479 670.392 217.285 668.488 C 216.838 672.847 224.404 674.239 226.841 673.400 C 232.683 671.388 235.364 671.487 235.365 671.487 C 235.364 671.488 221.432 674.300 222.543 676.811 C 224.810 681.935 232.735 680.641 234.620 679.280 C 238.306 676.617 243.261 676.302 243.262 676.301 C 243.261 676.302 231.248 680.475 233.086 682.830 C 236.219 686.845 239.932 685.867 242.319 684.234 C 247.684 680.563 250.599 681.125 250.600 681.125 C 250.599 681.126 238.153 685.316 241.417 687.986 C 243.210 689.453 246.958 689.517 247.939 688.941 C 251.042 687.117 257.386 686.236 263.874 687.028 C 285.319 689.647 294.875 685.628 307.806 685.519 C 319.544 685.420 333.033 687.950 347.703 686.197 C 363.730 684.283 361.257 665.593 357.626 659.019 C 355.303 654.814 344.647 644.963 341.355 637.629 C 327.024 605.710 324.843 588.905 294.898 550.163 C 282.787 534.495 244.977 528.317 244.972 528.315 C 244.981 528.312 297.204 521.648 343.843 496.689 C 369.766 503.114 383.527 506.366 397.582 500.228 C 381.578 556.487 391.182 578.185 379.138 615.736 C 374.004 631.743 398.844 651.230 410.167 647.476 C 431.208 640.501 459.054 640.228 495.696 635.580 C 540.686 629.875 591.378 621.122 601.382 620.239 C 611.575 619.340 605.647 648.384 604.365 653.905 C 603.721 656.678 602.283 675.459 600.040 678.259 C 587.881 693.440 581.509 685.445 578.720 691.832 C 575.743 698.651 594.533 702.956 597.040 698.250 C 599.355 701.832 606.029 698.455 607.316 696.302 C 610.322 691.276 612.097 689.543 612.097 689.543 C 612.097 689.544 604.227 700.547 606.610 701.663 C 611.437 703.922 616.492 698.371 616.993 696.218 C 617.977 691.994 621.115 688.537 621.116 688.536 C 621.115 688.538 615.503 699.467 618.367 699.992 C 623.117 700.862 625.284 698.100 625.966 695.444 C 627.511 689.427 629.739 687.881 629.740 687.881 C 629.740 687.882 623.797 699.147 627.935 698.991 C 630.130 698.908 632.924 696.768 633.278 695.749 C 634.394 692.538 639.214 689.003 643.373 684.441 C 660.939 665.172 653.865 652.792 655.011 630.888 C 655.678 618.153 665.236 604.426 663.811 588.438 C 662.440 573.039 652.171 570.894 645.526 570.433 C 632.725 569.546 622.989 577.094 613.449 575.312 C 583.994 569.809 572.595 561.112 531.119 554.929 C 512.113 552.096 480.484 570.159 480.479 570.161 C 480.483 570.154 514.302 540.207 522.539 498.814 C 579.875 469.614 543.936 395.898 531.908 382.894 C 530.982 352.639 533.226 318.460 510.909 280.597 C 507.310 274.489 503.650 259.514 495.479 245.169 C 505.809 242.613 518.781 250.277 535.119 251.055 C 575.144 252.961 604.018 239.818 626.121 239.157 C 634.636 238.902 650.458 229.220 641.533 208.336 C 632.964 188.285 647.926 150.904 598.841 73.233 C 588.298 56.550 651.402 69.561 669.669 44.568 C 671.276 42.368 673.781 37.417 673.781 37.416 C 673.780 37.416 668.206 37.339 665.418 37.300 C 665.417 37.300 660.095 37.300 657.433 37.300 C 657.433 37.300 649.469 37.300 648.925 37.300 C 648.918 37.300 583.618 37.727 578.327 38.180 C 572.909 38.645 567.742 43.228 567.758 49.207 C 567.817 70.886 556.321 107.646 585.763 171.443 C 588.263 176.861 568.076 156.217 544.503 153.600 C 522.414 151.147 504.506 160.986 501.240 160.365 C 494.809 159.143 496.604 154.047 467.013 142.503 C 419.574 123.997 376.232 144.109 365.567 142.103 C 355.989 140.302 352.893 138.429 346.828 133.927 C 326.998 119.207 307.061 96.970 289.354 90.484 C 268.731 82.930 233.661 84.761 215.250 100.437 C 199.603 113.761 193.976 141.360 193.004 151.191 M 606.963 685.164 C 606.962 685.165 594.605 694.483 597.040 698.250 C 601.317 690.217 606.962 685.165 606.963 685.164 M 234.321 665.194 C 234.319 665.195 217.769 663.774 217.285 668.488 C 226.224 664.948 234.319 665.195 234.321 665.194 M 194.412 169.092 C 194.412 169.092 194.412 169.092 194.412 169.092 Z"/>
<path fill="none" stroke="#000000" stroke-width="2" stroke-linejoin="round" d="M 354.330 215.917 C 354.332 215.912 351.925 194.270 373.609 173.743 C 391.177 157.113 404.355 158.442 419.728 150.791 M 357.923 301.173 C 336.857 306.548 323.079 307.210 305.109 301.014 M 385.659 300.263 C 385.663 300.263 411.017 303.314 426.548 300.719 C 447.306 297.250 463.285 276.780 463.288 276.778 M 610.013 43.960 C 623.568 44.383 631.237 44.142 640.647 42.175 C 646.291 40.995 648.924 37.300 648.925 37.300 C 648.918 37.300 583.618 37.727 578.327 38.180 C 572.909 38.645 567.742 43.228 567.758 49.207 C 567.817 70.886 556.321 107.646 585.763 171.443 C 588.263 176.861 568.076 156.217 544.503 153.600 C 522.414 151.147 504.506 160.986 501.240 160.365 C 494.809 159.143 496.604 154.047 467.013 142.503 C 419.574 123.997 376.232 144.109 365.567 142.103 C 355.989 140.302 352.893 138.429 346.828 133.927 C 326.998 119.207 307.061 96.970 289.354 90.484 C 268.731 82.930 233.661 84.761 215.250 100.437 C 199.603 113.761 193.976 141.360 193.004 151.191 C 192.559 155.700 192.386 163.279 194.412 169.092 C 200.334 186.088 228.837 221.209 228.841 221.214 C 228.842 221.213 237.546 208.800 237.546 208.799 C 237.550 208.800 265.782 229.613 276.755 226.974 C 289.912 223.809 295.051 209.435 299.308 201.087 C 303.435 204.841 315.103 215.793 323.001 223.146 M 362.597 399.853 C 371.174 359.575 340.158 317.360 303.116 299.790 C 277.106 287.453 268.563 269.335 257.251 248.625 C 255.129 244.741 226.400 258.207 183.187 256.312 C 144.064 254.597 117.181 238.734 95.668 236.682 C 87.857 235.938 74.230 226.891 82.643 207.739 C 91.302 188.025 74.626 167.955 121.158 73.233 C 129.860 55.520 68.595 69.562 50.330 44.567 C 48.723 42.368 46.219 37.417 46.219 37.416 C 46.220 37.416 51.795 37.339 54.583 37.300 C 54.584 37.300 59.905 37.300 62.567 37.300 C 62.567 37.300 70.531 37.300 71.075 37.300 C 71.082 37.300 136.381 37.727 141.672 38.180 C 147.090 38.645 152.932 43.268 152.241 49.207 C 149.503 72.736 166.829 126.649 133.043 176.811 C 128.616 183.385 160.744 168.190 194.412 169.092 C 194.412 169.092 194.412 169.092 194.412 169.092 M 431.871 422.079 C 427.553 429.314 423.583 436.115 420.227 442.697 C 411.575 460.074 406.905 476.184 401.554 490.027 C 400.142 493.723 398.495 497.021 397.582 500.228 C 381.578 556.487 391.182 578.185 379.138 615.736 C 374.004 631.743 398.844 651.230 410.167 647.476 C 431.208 640.501 459.054 640.228 495.696 635.580 C 540.686 629.875 591.378 621.122 601.382 620.239 C 611.575 619.340 605.647 648.384 604.365 653.905 C 603.721 656.678 602.283 675.459 600.040 678.259 C 587.881 693.440 581.509 685.445 578.720 691.832 C 575.743 698.651 594.533 702.956 597.040 698.250 C 601.317 690.217 606.962 685.165 606.963 685.164 C 606.962 685.165 594.605 694.483 597.040 698.250 C 599.355 701.832 606.029 698.455 607.316 696.302 C 610.322 691.276 612.097 689.543 612.097 689.543 C 612.097 689.544 604.227 700.547 606.610 701.663 C 611.437 703.922 616.492 698.371 616.993 696.218 C 617.977 691.994 621.115 688.537 621.116 688.536 C 621.115 688.538 615.503 699.467 618.367 699.992 C 623.117 700.862 625.284 698.100 625.966 695.444 C 627.511 689.427 629.739 687.881 629.740 687.881 C 629.740 687.882 623.797 699.147 627.935 698.991 C 630.130 698.908 632.924 696.768 633.278 695.749 C 634.394 692.538 639.214 689.003 643.373 684.441 C 660.939 665.172 653.865 652.792 655.011 630.888 C 655.678 618.153 665.236 604.426 663.811 588.438 C 662.440 573.039 652.171 570.894 645.526 570.433 C 632.725 569.546 622.989 577.094 613.449 575.312 C 583.994 569.809 572.595 561.112 531.119 554.929 C 512.113 552.096 480.484 570.159 480.479 570.161 C 480.483 570.154 514.302 540.207 522.539 498.814 C 579.875 469.614 543.936 395.898 531.908 382.894 C 530.982 352.639 533.226 318.460 510.909 280.597 C 507.310 274.489 503.650 259.514 495.479 245.169 C 505.809 242.613 518.781 250.277 535.119 251.055 C 575.144 252.961 604.018 239.818 626.121 239.157 C 634.636 238.902 650.458 229.220 641.533 208.336 C 632.964 188.285 647.926 150.904 598.841 73.233 C 588.298 56.550 651.402 69.561 669.669 44.568 C 671.276 42.368 673.781 37.417 673.781 37.416 C 673.780 37.416 668.206 37.339 665.418 37.300 C 665.417 37.300 660.095 37.300 657.433 37.300 C 657.433 37.300 649.469 37.300 648.925 37.300 M 362.597 399.853 C 346.815 400.562 335.316 399.596 323.051 403.058 C 216.781 433.053 213.072 469.880 169.822 493.050 C 153.562 501.761 158.400 535.833 170.073 541.755 C 188.944 551.330 205.881 573.590 233.720 594.140 C 260.033 613.563 294.411 631.161 298.730 637.080 C 305.272 646.045 270.862 650.243 264.741 650.811 C 261.125 651.146 238.176 656.310 233.609 655.993 C 213.127 654.569 213.598 649.112 207.142 652.640 C 200.813 656.098 212.479 670.392 217.285 668.488 C 226.224 664.948 234.319 665.195 234.321 665.194 C 234.319 665.195 217.769 663.774 217.285 668.488 C 216.838 672.847 224.404 674.239 226.841 673.400 C 232.683 671.388 235.364 671.487 235.365 671.487 C 235.364 671.488 221.432 674.300 222.543 676.811 C 224.810 681.935 232.735 680.641 234.620 679.280 C 238.306 676.617 243.261 676.302 243.262 676.301 C 243.261 676.302 231.248 680.475 233.086 682.830 C 236.219 686.845 239.932 685.867 242.319 684.234 C 247.684 680.563 250.599 681.125 250.600 681.125 C 250.599 681.126 238.153 685.316 241.417 687.986 C 243.210 689.453 246.958 689.517 247.939 688.941 C 251.042 687.117 257.386 686.236 263.874 687.028 C 285.319 689.647 294.875 685.628 307.806 685.519 C 319.544 685.420 333.033 687.950 347.703 686.197 C 363.730 684.283 361.257 665.593 357.626 659.019 C 355.303 654.814 344.647 644.963 341.355 637.629 C 327.024 605.710 324.843 588.905 294.898 550.163 C 282.787 534.495 244.977 528.317 244.972 528.315 C 244.981 528.312 297.204 521.648 343.843 496.689 C 369.766 503.114 383.527 506.366 397.582 500.228 M 401.554 490.027 C 365.915 468.846 359.956 435.873 364.280 410.070 M 71.075 37.300 C 71.076 37.300 73.708 40.995 79.352 42.175 C 88.762 44.143 96.432 44.383 109.987 43.960 M 54.583 37.300 C 54.583 37.301 56.710 41.681 58.801 43.934 C 64.133 49.676 80.281 53.049 80.283 53.050 M 62.567 37.300 C 62.567 37.301 64.388 41.549 70.583 44.484 C 80.284 49.080 92.401 49.329 92.403 49.330 M 495.479 245.169 C 491.664 246.113 474.685 256.285 456.296 252.242 M 665.418 37.300 C 665.417 37.301 663.279 41.670 661.199 43.934 C 656.405 49.150 641.919 52.500 641.918 52.501 M 657.433 37.300 C 657.433 37.301 655.579 41.480 649.416 44.484 C 639.713 49.214 627.598 49.880 627.596 49.881 "/>
</g>
<g id="specs_2">
<path fill="#ff0000" fill-rule="evenodd" stroke="none" d="M 360.000 88.336 C 360.002 88.330 383.232 23.285 383.235 23.278 C 383.232 23.280 360.002 44.895 360.000 44.897 C 359.998 44.895 336.768 23.280 336.765 23.278 C 336.768 23.285 359.998 88.330 360.000 88.336 Z"/>
<path fill="#0000ff" fill-rule="evenodd" stroke="none" d="M 622.513 13.766 C 622.514 13.770 636.008 51.553 636.009 51.557 C 636.008 51.556 622.514 39.001 622.513 39.000 C 622.511 39.001 609.018 51.556 609.016 51.557 C 609.018 51.553 622.511 13.770 622.513 13.766 Z"/>
<path fill="#00ff00" fill-rule="evenodd" stroke="none" d="M 61.432 219.353 C 61.436 219.352 95.364 207.040 95.368 207.039 C 95.367 207.040 84.134 219.238 84.133 219.239 C 84.134 219.240 95.489 231.321 95.490 231.323 C 95.487 231.321 61.436 219.355 61.432 219.353 Z"/>
<path fill="#ffff00" fill-rule="evenodd" stroke="none" d="M 232.871 707.465 C 232.874 707.459 262.040 643.956 262.043 643.950 C 262.043 643.953 263.579 676.019 263.579 676.022 C 263.582 676.023 295.675 676.800 295.678 676.801 C 295.672 676.804 232.878 707.462 232.871 707.465 Z"/>
<path fill="#ffff00" fill-rule="evenodd" stroke="none" d="M 676.995 706.687 C 676.992 706.681 646.558 643.775 646.555 643.769 C 646.555 643.772 645.664 675.864 645.664 675.867 C 645.661 675.867 613.588 677.289 613.584 677.289 C 613.591 677.292 676.989 706.684 676.995 706.687 Z"/>
<path fill="#00ff00" fill-rule="evenodd" stroke="none" d="M 663.081 219.353 C 663.078 219.352 629.149 207.040 629.146 207.039 C 629.147 207.040 640.380 219.238 640.381 219.239 C 640.380 219.240 629.025 231.321 629.024 231.323 C 629.027 231.321 663.078 219.355 663.081 219.353 Z"/>
<path fill="#00ffff" fill-rule="evenodd" stroke="none" d="M 671.617 552.922 C 671.616 552.926 658.222 590.745 658.221 590.749 C 658.221 590.747 655.684 572.491 655.684 572.489 C 655.682 572.489 637.291 573.703 637.289 573.704 C 637.293 573.701 671.614 552.924 671.617 552.922 Z"/>
<path fill="#00ffff" fill-rule="evenodd" stroke="none" d="M 150.965 486.854 C 150.966 486.858 166.852 523.700 166.854 523.703 C 166.854 523.701 168.167 505.317 168.167 505.315 C 168.169 505.315 186.600 505.301 186.602 505.301 C 186.598 505.299 150.968 486.856 150.965 486.854 Z"/>
<path fill="#be0027" fill-rule="evenodd" stroke="none" d="M 572.988 495.326 C 572.985 495.320 543.418 432.900 543.415 432.894 C 543.414 432.897 542.272 464.606 542.272 464.609 C 542.269 464.610 510.559 465.752 510.556 465.752 C 510.562 465.755 572.982 495.323 572.988 495.326 Z"/>
<path fill="#ff00ff" fill-rule="evenodd" stroke="none" d="M 213.117 196.959 C 213.127 196.959 309.919 196.959 309.928 196.959 C 309.928 196.950 309.928 103.256 309.928 103.246 C 309.919 103.246 213.127 103.246 213.117 103.246 C 213.117 103.256 213.117 196.950 213.117 196.959 Z"/>
<path fill="#0000ff" fill-rule="evenodd" stroke="none" d="M 97.487 13.766 C 97.489 13.770 110.982 51.553 110.984 51.557 C 110.982 51.556 97.489 39.001 97.487 39.000 C 97.486 39.001 83.992 51.556 83.991 51.557 C 83.992 51.553 97.486 13.770 97.487 13.766 Z"/>
</g>
</g>
</svg>
