<?xml version="1.0" encoding="utf-8"?>
<!-- Generator: Moho 12.5 build 22414 -->
<!DOCTYPE svg PUBLIC "-//W3C//DTD SVG 1.1//EN" "http://www.w3.org/Graphics/SVG/1.1/DTD/svg11.dtd">
<svg version="1.1" id="Frame_0" xmlns="http://www.w3.org/2000/svg" xmlns:xlink="http://www.w3.org/1999/xlink" width="720px" height="720px">
<g id="atlas">
<g id="atlas">
<path fill="#ffffff" fill-rule="evenodd" stroke="none" d="M 270.640 421.011 C 270.401 423.424 270.309 427.479 271.393 430.590 C 253.377 430.107 236.185 438.237 238.554 434.720 C 256.634 407.878 247.362 379.029 248.827 366.438 C 249.197 363.261 246.071 360.787 243.171 360.538 C 240.340 360.296 205.398 360.067 205.395 360.067 C 205.104 360.067 200.842 360.067 200.842 360.067 C 199.418 360.067 196.570 360.067 196.570 360.067 C 195.078 360.088 192.094 360.129 192.094 360.129 C 192.094 360.129 193.434 362.779 194.294 363.956 C 204.068 377.330 236.851 369.816 232.194 379.295 C 207.295 429.981 216.218 440.721 211.584 451.270 C 207.083 461.518 214.375 466.359 218.555 466.758 C 230.066 467.855 244.451 476.344 265.386 477.261 C 288.510 478.275 303.883 471.070 305.018 473.148 C 311.072 484.230 315.643 493.925 329.561 500.527 C 349.382 509.928 365.979 532.518 361.390 554.071 C 352.945 554.450 346.792 553.933 340.228 555.786 C 283.362 571.836 281.378 591.543 258.234 603.942 C 249.534 608.603 252.123 626.835 258.369 630.004 C 268.467 635.127 277.530 647.038 292.427 658.035 C 306.507 668.428 324.903 677.845 327.214 681.012 C 330.715 685.810 312.302 688.056 309.026 688.360 C 307.091 688.539 294.811 691.303 292.368 691.133 C 281.408 690.371 281.659 687.451 278.205 689.339 C 274.818 691.189 281.061 698.838 283.632 697.819 C 283.393 700.152 287.442 700.897 288.746 700.447 C 291.872 699.371 293.307 699.424 293.307 699.424 C 293.307 699.424 285.851 700.929 286.446 702.272 C 287.659 705.014 291.900 704.322 292.908 703.594 C 294.881 702.169 297.532 702.000 297.533 702.000 C 297.532 702.000 291.104 704.233 292.087 705.493 C 293.764 707.642 295.751 707.119 297.028 706.245 C 299.899 704.281 301.459 704.581 301.460 704.581 C 301.459 704.582 294.799 706.823 296.546 708.252 C 297.505 709.037 299.511 709.072 300.036 708.763 C 301.696 707.788 305.091 707.316 308.562 707.740 C 320.038 709.141 325.151 706.991 332.071 706.932 C 338.352 706.880 345.570 708.233 353.420 707.295 C 361.996 706.271 360.672 696.270 358.729 692.752 C 357.486 690.502 351.785 685.231 350.023 681.306 C 342.354 664.226 341.188 655.234 325.163 634.503 C 318.683 626.119 298.450 622.813 298.448 622.812 C 298.453 622.810 325.018 618.690 348.953 605.888 C 361.094 608.900 367.496 610.595 374.106 607.782 C 369.083 630.285 375.766 643.611 370.117 660.525 C 367.143 669.429 379.653 681.320 386.062 679.503 C 397.149 676.358 411.929 676.431 430.611 673.952 C 449.818 671.402 471.985 667.763 476.318 667.510 C 482.247 667.164 477.181 683.953 476.313 687.126 C 475.891 688.670 475.190 699.212 473.999 700.840 C 467.509 709.705 463.752 705.661 462.591 709.422 C 461.451 713.110 471.259 714.245 472.393 711.722 C 473.847 713.562 477.270 711.275 477.892 710.044 C 479.384 707.093 480.450 706.131 480.451 706.131 C 480.450 706.132 476.152 712.407 477.514 712.956 C 480.295 714.077 482.855 710.625 483.070 709.400 C 483.492 707.004 485.276 705.035 485.276 705.034 C 485.276 705.035 482.222 711.116 483.805 711.334 C 486.505 711.706 487.565 709.947 487.872 708.430 C 488.562 705.021 489.891 704.150 489.891 704.149 C 489.891 704.150 486.677 710.398 488.925 710.206 C 490.160 710.101 491.623 708.728 491.785 708.141 C 492.296 706.284 494.889 704.101 497.186 701.465 C 505.743 691.647 502.757 685.745 503.414 674.810 C 503.823 667.998 508.885 660.650 508.123 652.095 C 507.389 643.854 501.895 642.706 498.339 642.460 C 491.489 641.985 486.279 646.024 481.174 645.071 C 465.413 642.126 459.475 636.087 437.119 634.164 C 426.382 633.240 409.963 646.076 409.961 646.077 C 409.963 646.073 425.771 627.447 432.528 604.137 C 468.205 587.880 455.113 555.506 449.987 548.199 C 451.755 531.284 452.871 511.772 440.752 490.256 C 438.891 486.951 436.868 478.975 432.495 471.299 C 438.023 469.931 444.965 474.032 453.707 474.449 C 475.125 475.468 490.575 468.435 502.403 468.081 C 506.959 467.945 515.426 462.764 510.650 451.589 C 506.065 440.860 514.071 420.857 487.805 379.295 C 482.164 370.368 515.931 377.330 525.705 363.956 C 526.566 362.779 527.906 360.129 527.906 360.129 C 527.906 360.129 524.922 360.088 523.431 360.067 C 523.430 360.067 520.582 360.067 519.158 360.067 C 519.158 360.067 514.896 360.067 514.605 360.067 C 514.602 360.067 479.659 360.295 476.828 360.538 C 473.929 360.787 471.164 363.239 471.172 366.438 C 471.204 378.039 465.052 397.710 480.807 431.848 C 482.145 434.747 471.343 423.700 458.729 422.300 C 446.909 420.987 437.326 426.252 435.578 425.920 C 432.137 425.266 433.098 422.539 417.263 416.362 C 391.878 406.459 368.686 417.221 362.979 416.148 C 357.854 415.184 356.197 414.182 352.951 411.772 C 342.340 403.896 331.672 391.997 322.197 388.526 C 311.161 384.484 292.395 385.464 282.544 393.852 C 274.171 400.982 271.159 415.750 270.640 421.011 M 477.703 704.106 C 477.702 704.107 470.821 709.733 472.393 711.722 C 474.504 707.030 477.702 704.107 477.703 704.106 M 292.749 696.056 C 292.748 696.057 283.891 695.297 283.632 697.819 C 288.416 695.925 292.748 696.057 292.749 696.056 M 271.393 430.590 C 271.393 430.590 271.393 430.590 271.393 430.590 Z"/>
<path fill="none" stroke="#000000" stroke-width="2" stroke-linejoin="round" d="M 356.966 455.646 C 356.967 455.643 355.679 444.062 367.283 433.078 C 376.683 424.180 383.735 424.891 391.961 420.797 M 358.888 501.267 C 347.616 504.143 340.243 504.497 330.627 501.182 M 373.730 500.780 C 373.733 500.780 387.300 502.412 395.610 501.023 C 406.718 499.167 415.268 488.214 415.270 488.213 M 493.783 363.631 C 501.036 363.857 505.140 363.728 510.176 362.676 C 513.196 362.044 514.605 360.067 514.605 360.067 C 514.602 360.067 479.659 360.295 476.828 360.538 C 473.929 360.787 471.164 363.239 471.172 366.438 C 471.204 378.039 465.052 397.710 480.807 431.848 C 482.145 434.747 471.343 423.700 458.729 422.300 C 446.909 420.987 437.326 426.252 435.578 425.920 C 432.137 425.266 433.098 422.539 417.263 416.362 C 391.878 406.459 368.686 417.221 362.979 416.148 C 357.854 415.184 356.197 414.182 352.951 411.772 C 342.340 403.896 331.672 391.997 322.197 388.526 C 311.161 384.484 292.395 385.464 282.544 393.852 C 274.171 400.982 271.159 415.750 270.640 421.011 C 270.401 423.424 270.309 427.479 271.393 430.590 C 274.562 439.684 289.814 458.478 289.816 458.481 C 289.817 458.480 294.474 451.838 294.475 451.837 C 294.477 451.838 309.584 462.975 315.455 461.562 C 322.496 459.869 325.245 452.177 327.523 447.710 C 329.732 449.719 335.976 455.579 340.202 459.514 M 361.390 554.071 C 365.979 532.518 349.382 509.928 329.561 500.527 C 315.643 493.925 311.072 484.230 305.018 473.148 C 303.883 471.070 288.510 478.275 265.386 477.261 C 244.451 476.344 230.066 467.855 218.555 466.758 C 214.375 466.359 207.083 461.518 211.584 451.270 C 216.218 440.721 207.295 429.981 232.194 379.295 C 236.851 369.816 204.068 377.330 194.294 363.956 C 193.434 362.779 192.094 360.129 192.094 360.129 C 192.094 360.129 195.078 360.088 196.570 360.067 C 196.570 360.067 199.418 360.067 200.842 360.067 C 200.842 360.067 205.104 360.067 205.395 360.067 C 205.398 360.067 240.340 360.296 243.171 360.538 C 246.071 360.787 249.197 363.261 248.827 366.438 C 247.362 379.029 256.634 407.878 238.554 434.720 C 236.185 438.237 253.377 430.107 271.393 430.590 C 271.393 430.590 271.393 430.590 271.393 430.590 M 392.454 565.964 C 390.144 569.836 388.086 573.510 386.224 576.997 C 382.411 584.300 379.577 590.797 377.432 596.720 C 376.027 600.651 374.872 604.348 374.106 607.782 C 369.083 630.285 375.766 643.611 370.117 660.525 C 367.143 669.429 379.653 681.320 386.062 679.503 C 397.149 676.358 411.929 676.431 430.611 673.952 C 449.818 671.402 471.985 667.763 476.318 667.510 C 482.247 667.164 477.181 683.953 476.313 687.126 C 475.891 688.670 475.190 699.212 473.999 700.840 C 467.509 709.705 463.752 705.661 462.591 709.422 C 461.451 713.110 471.259 714.245 472.393 711.722 C 474.504 707.030 477.702 704.107 477.703 704.106 C 477.702 704.107 470.821 709.733 472.393 711.722 C 473.847 713.562 477.270 711.275 477.892 710.044 C 479.384 707.093 480.450 706.131 480.451 706.131 C 480.450 706.132 476.152 712.407 477.514 712.956 C 480.295 714.077 482.855 710.625 483.070 709.400 C 483.492 707.004 485.276 705.035 485.276 705.034 C 485.276 705.035 482.222 711.116 483.805 711.334 C 486.505 711.706 487.565 709.947 487.872 708.430 C 488.562 705.021 489.891 704.150 489.891 704.149 C 489.891 704.150 486.677 710.398 488.925 710.206 C 490.160 710.101 491.623 708.728 491.785 708.141 C 492.296 706.284 494.889 704.101 497.186 701.465 C 505.743 691.647 502.757 685.745 503.414 674.810 C 503.823 667.998 508.885 660.650 508.123 652.095 C 507.389 643.854 501.895 642.706 498.339 642.460 C 491.489 641.985 486.279 646.024 481.174 645.071 C 465.413 642.126 459.475 636.087 437.119 634.164 C 426.382 633.240 409.963 646.076 409.961 646.077 C 409.963 646.073 425.771 627.447 432.528 604.137 C 468.205 587.880 455.113 555.506 449.987 548.199 C 451.755 531.284 452.871 511.772 440.752 490.256 C 438.891 486.951 436.868 478.975 432.495 471.299 C 438.023 469.931 444.965 474.032 453.707 474.449 C 475.125 475.468 490.575 468.435 502.403 468.081 C 506.959 467.945 515.426 462.764 510.650 451.589 C 506.065 440.860 514.071 420.857 487.805 379.295 C 482.164 370.368 515.931 377.330 525.705 363.956 C 526.566 362.779 527.906 360.129 527.906 360.129 C 527.906 360.129 524.922 360.088 523.431 360.067 C 523.430 360.067 520.582 360.067 519.158 360.067 C 519.158 360.067 514.896 360.067 514.605 360.067 M 361.390 554.071 C 352.945 554.450 346.792 553.933 340.228 555.786 C 283.362 571.836 281.378 591.543 258.234 603.942 C 249.534 608.603 252.123 626.835 258.369 630.004 C 268.467 635.127 277.530 647.038 292.427 658.035 C 306.507 668.428 324.903 677.845 327.214 681.012 C 330.715 685.810 312.302 688.056 309.026 688.360 C 307.091 688.539 294.811 691.303 292.368 691.133 C 281.408 690.371 281.659 687.451 278.205 689.339 C 274.818 691.189 281.061 698.838 283.632 697.819 C 288.416 695.925 292.748 696.057 292.749 696.056 C 292.748 696.057 283.891 695.297 283.632 697.819 C 283.393 700.152 287.442 700.897 288.746 700.447 C 291.872 699.371 293.307 699.424 293.307 699.424 C 293.307 699.424 285.851 700.929 286.446 702.272 C 287.659 705.014 291.900 704.322 292.908 703.594 C 294.881 702.169 297.532 702.000 297.533 702.000 C 297.532 702.000 291.104 704.233 292.087 705.493 C 293.764 707.642 295.751 707.119 297.028 706.245 C 299.899 704.281 301.459 704.581 301.460 704.581 C 301.459 704.582 294.799 706.823 296.546 708.252 C 297.505 709.037 299.511 709.072 300.036 708.763 C 301.696 707.788 305.091 707.316 308.562 707.740 C 320.038 709.141 325.151 706.991 332.071 706.932 C 338.352 706.880 345.570 708.233 353.420 707.295 C 361.996 706.271 360.672 696.270 358.729 692.752 C 357.486 690.502 351.785 685.231 350.023 681.306 C 342.354 664.226 341.188 655.234 325.163 634.503 C 318.683 626.119 298.450 622.813 298.448 622.812 C 298.453 622.810 325.018 618.690 348.953 605.888 C 361.094 608.900 367.496 610.595 374.106 607.782 M 377.432 596.720 C 361.710 586.290 359.744 571.169 362.290 559.538 M 205.395 360.067 C 205.395 360.067 206.804 362.044 209.824 362.676 C 214.859 363.729 218.963 363.857 226.217 363.631 M 196.570 360.067 C 196.570 360.068 197.673 362.445 198.827 363.617 C 203.097 367.954 216.060 369.230 216.062 369.231 M 200.842 360.067 C 200.842 360.068 201.803 362.370 205.132 363.911 C 212.394 367.275 221.516 366.945 221.518 366.946 M 432.495 471.299 C 430.454 471.804 421.368 477.247 411.528 475.084 M 523.431 360.067 C 523.430 360.068 522.327 362.445 521.173 363.617 C 516.902 367.954 503.940 369.230 503.938 369.231 M 519.158 360.067 C 519.158 360.068 518.197 362.370 514.868 363.911 C 507.606 367.275 498.484 366.946 498.482 366.946 "/>
<path fill="#000000" fill-rule="evenodd" stroke="none" d="M 290.114 424.020 C 295.167 418.203 303.371 418.341 303.372 418.341 C 303.372 418.342 304.658 426.446 299.606 432.263 C 294.553 438.081 286.349 437.942 286.348 437.943 C 286.348 437.941 285.062 429.838 290.114 424.020 Z"/>
<path fill="#ffffff" fill-rule="evenodd" stroke="none" d="M 290.937 424.734 C 292.823 422.563 296.096 422.333 298.267 424.219 C 300.438 426.104 300.669 429.377 298.783 431.549 C 296.897 433.720 293.624 433.951 291.453 432.065 C 289.281 430.179 289.051 426.906 290.937 424.734 Z"/>
<path fill="#000000" fill-rule="evenodd" stroke="none" d="M 293.112 426.624 C 293.952 425.656 295.410 425.553 296.378 426.393 C 297.345 427.234 297.448 428.692 296.608 429.660 C 295.767 430.627 294.309 430.730 293.342 429.890 C 292.374 429.050 292.272 427.591 293.112 426.624 Z"/>
</g>
<g id="specs_2">
<path fill="#ff0000" fill-rule="evenodd" stroke="none" d="M 360.000 385.799 C 360.001 385.796 372.432 350.990 372.433 350.987 C 372.432 350.988 360.001 362.554 360.000 362.555 C 359.999 362.554 347.568 350.988 347.567 350.987 C 347.568 350.990 359.999 385.796 360.000 385.799 Z"/>
<path fill="#0000ff" fill-rule="evenodd" stroke="none" d="M 360.000 17.772 C 360.001 17.774 367.221 37.992 367.222 37.994 C 367.221 37.993 360.001 31.275 360.000 31.274 C 359.999 31.275 352.779 37.993 352.778 37.994 C 352.779 37.992 359.999 17.774 360.000 17.772 Z"/>
<path fill="#00ff00" fill-rule="evenodd" stroke="none" d="M 200.235 457.485 C 200.237 457.484 218.392 450.896 218.394 450.896 C 218.393 450.896 212.382 457.423 212.382 457.424 C 212.382 457.424 218.459 463.889 218.459 463.890 C 218.458 463.889 200.237 457.486 200.235 457.485 Z"/>
<path fill="#ffff00" fill-rule="evenodd" stroke="none" d="M 314.638 718.676 C 314.640 718.672 330.246 684.692 330.248 684.688 C 330.248 684.690 331.070 701.849 331.070 701.851 C 331.071 701.851 348.244 702.267 348.246 702.267 C 348.243 702.269 314.641 718.674 314.638 718.676 Z"/>
<path fill="#ffff00" fill-rule="evenodd" stroke="none" d="M 508.411 718.259 C 508.409 718.256 492.124 684.595 492.122 684.592 C 492.122 684.593 491.645 701.766 491.645 701.767 C 491.643 701.767 474.481 702.528 474.479 702.528 C 474.483 702.530 508.407 718.258 508.411 718.259 Z"/>
<path fill="#00ff00" fill-rule="evenodd" stroke="none" d="M 522.180 457.485 C 522.178 457.484 504.023 450.896 504.021 450.896 C 504.022 450.896 510.033 457.423 510.033 457.424 C 510.033 457.424 503.956 463.889 503.956 463.890 C 503.958 463.889 522.178 457.486 522.180 457.485 Z"/>
<path fill="#00ffff" fill-rule="evenodd" stroke="none" d="M 513.138 635.979 C 513.138 635.981 505.970 656.218 505.970 656.220 C 505.970 656.219 504.612 646.450 504.612 646.449 C 504.611 646.449 494.770 647.099 494.769 647.099 C 494.771 647.098 513.137 635.980 513.138 635.979 Z"/>
<path fill="#00ffff" fill-rule="evenodd" stroke="none" d="M 248.144 600.625 C 248.145 600.628 256.646 620.342 256.646 620.344 C 256.646 620.343 257.349 610.505 257.349 610.504 C 257.350 610.504 267.213 610.496 267.214 610.496 C 267.212 610.495 248.146 600.627 248.144 600.625 Z"/>
<path fill="#be0027" fill-rule="evenodd" stroke="none" d="M 466.366 605.159 C 466.364 605.156 450.542 571.754 450.541 571.751 C 450.541 571.753 449.929 588.721 449.929 588.722 C 449.928 588.723 432.960 589.334 432.958 589.334 C 432.961 589.335 466.362 605.157 466.366 605.159 Z"/>
<path fill="#ff00ff" fill-rule="evenodd" stroke="none" d="M 19.029 361.324 C 19.097 361.324 700.903 361.324 700.971 361.324 C 700.971 361.289 700.971 7.545 700.971 7.509 C 700.903 7.509 19.097 7.509 19.029 7.509 C 19.029 7.545 19.029 361.289 19.029 361.324 Z"/>
</g>
</g>
</svg>
