<?xml version="1.0" encoding="utf-8"?>
<!-- Generator: Moho 12.5 build 22414 -->
<!DOCTYPE svg PUBLIC "-//W3C//DTD SVG 1.1//EN" "http://www.w3.org/Graphics/SVG/1.1/DTD/svg11.dtd">
<svg version="1.1" id="Frame_0" xmlns="http://www.w3.org/2000/svg" xmlns:xlink="http://www.w3.org/1999/xlink" width="720px" height="720px">
<g id="atlas">
<g id="atlas">
<path fill="#ffffff" fill-rule="evenodd" stroke="none" d="M 193.004 151.191 C 192.559 155.700 192.386 163.279 194.412 169.092 C 160.744 168.190 128.616 183.385 133.043 176.811 C 166.829 126.649 149.503 72.736 152.241 49.207 C 152.932 43.268 147.090 38.645 141.672 38.180 C 136.381 37.727 71.082 37.300 71.075 37.300 C 70.531 37.300 62.567 37.300 62.567 37.300 C 59.905 37.300 54.584 37.300 54.583 37.300 C 51.795 37.339 46.220 37.416 46.219 37.416 C 46.219 37.417 48.723 42.368 50.330 44.567 C 68.595 69.562 129.860 55.520 121.158 73.233 C 74.626 167.955 91.302 188.025 82.643 207.739 C 74.230 226.891 87.857 235.938 95.668 236.682 C 117.181 238.734 144.064 254.597 183.187 256.312 C 226.400 258.207 255.129 244.741 257.251 248.625 C 268.563 269.335 277.106 287.453 303.116 299.790 C 340.158 317.360 371.174 359.575 362.597 399.853 C 346.815 400.562 335.316 399.596 323.051 403.058 C 216.781 433.053 213.072 469.880 169.822 493.050 C 153.562 501.761 158.400 535.833 170.073 541.755 C 188.944 551.330 205.881 573.590 233.720 594.140 C 260.033 613.563 294.411 631.161 298.730 637.080 C 305.272 646.045 270.862 650.243 264.741 650.811 C 261.125 651.146 238.176 656.310 233.609 655.993 C 213.127 654.569 213.598 649.112 207.142 652.640 C 200.813 656.098 212.479 670.392 217.285 668.488 C 216.838 672.847 224.404 674.239 226.841 673.400 C 232.683 671.388 235.364 671.487 235.365 671.487 C 235.364 671.488 221.432 674.300 222.543 676.811 C 224.810 681.935 232.735 680.641 234.620 679.280 C 238.306 676.617 243.261 676.302 243.262 676.301 C 243.261 676.302 231.248 680.475 233.086 682.830 C 236.219 686.845 239.932 685.867 242.319 684.234 C 247.684 680.563 250.599 681.125 250.600 681.125 C 250.599 681.126 238.153 685.316 241.417 687.986 C 243.210 689.453 246.958 689.517 247.939 688.941 C 251.042 687.117 257.386 686.236 263.874 687.028 C 285.319 689.647 294.875 685.628 307.806 685.519 C 319.544 685.420 333.033 687.950 347.703 686.197 C 363.730 684.283 361.257 665.593 357.626 659.019 C 355.303 654.814 344.647 644.963 341.355 637.629 C 327.024 605.710 324.843 588.905 294.898 550.163 C 282.787 534.495 244.977 528.317 244.972 528.315 C 244.981 528.312 294.627 520.613 339.355 496.689 C 362.044 502.318 374.009 505.485 386.361 500.228 C 374.882 549.808 381.789 577.601 375.690 616.485 C 373.264 631.954 400.346 643.994 410.313 639.083 C 429.436 629.662 457.553 632.729 491.956 623.886 C 527.026 614.871 569.276 612.321 577.374 611.848 C 588.453 611.201 578.986 642.575 577.365 648.505 C 576.576 651.390 575.267 671.091 573.040 674.133 C 560.912 690.700 553.892 683.143 551.720 690.172 C 549.591 697.063 567.919 699.185 570.040 694.470 C 572.756 697.908 579.153 693.634 580.316 691.333 C 583.104 685.819 585.097 684.022 585.097 684.022 C 585.097 684.023 577.063 695.749 579.610 696.776 C 584.807 698.871 589.590 692.420 589.993 690.130 C 590.781 685.652 594.115 681.973 594.115 681.972 C 594.115 681.973 588.407 693.337 591.367 693.745 C 596.411 694.441 598.392 691.152 598.966 688.318 C 600.256 681.947 602.739 680.319 602.740 680.318 C 602.739 680.319 596.733 691.996 600.934 691.637 C 603.243 691.440 605.976 688.875 606.278 687.778 C 607.233 684.307 612.078 680.228 616.373 675.301 C 632.363 656.953 626.784 645.925 628.011 625.488 C 628.775 612.758 638.235 599.027 636.811 583.038 C 635.439 567.639 625.171 565.494 618.526 565.034 C 605.725 564.146 595.989 571.694 586.448 569.912 C 556.994 564.410 546.021 551.162 504.119 549.529 C 483.743 548.736 454.980 576.616 454.975 576.619 C 454.979 576.611 483.349 538.982 495.539 493.415 C 561.569 461.661 537.747 402.534 528.168 388.879 C 531.471 357.269 533.556 320.804 510.909 280.597 C 507.430 274.420 503.650 259.514 495.479 245.169 C 505.809 242.613 518.781 250.277 535.119 251.055 C 575.144 252.961 604.018 239.818 626.121 239.157 C 634.636 238.902 650.458 229.220 641.533 208.336 C 632.964 188.285 647.926 150.904 598.841 73.233 C 588.298 56.550 651.402 69.561 669.669 44.568 C 671.276 42.368 673.781 37.417 673.781 37.416 C 673.780 37.416 668.206 37.339 665.418 37.300 C 665.417 37.300 660.095 37.300 657.433 37.300 C 657.433 37.300 649.469 37.300 648.925 37.300 C 648.918 37.300 583.618 37.727 578.327 38.180 C 572.909 38.645 567.742 43.228 567.758 49.207 C 567.817 70.886 556.321 107.646 585.763 171.443 C 588.263 176.861 568.076 156.217 544.503 153.600 C 522.414 151.147 504.506 160.986 501.240 160.365 C 494.809 159.143 496.604 154.047 467.013 142.503 C 419.574 123.997 376.232 144.109 365.567 142.103 C 355.989 140.302 352.893 138.429 346.828 133.927 C 326.998 119.207 307.061 96.970 289.354 90.484 C 268.731 82.930 233.661 84.761 215.250 100.437 C 199.603 113.761 193.976 141.360 193.004 151.191 M 579.962 680.237 C 579.961 680.238 567.102 690.753 570.040 694.470 C 573.984 685.702 579.961 680.238 579.962 680.237 M 234.321 665.194 C 234.319 665.195 217.769 663.774 217.285 668.488 C 226.224 664.948 234.319 665.195 234.321 665.194 M 194.412 169.092 C 194.412 169.092 194.412 169.092 194.412 169.092 Z"/>
<path fill="none" stroke="#000000" stroke-width="2" stroke-linejoin="round" d="M 354.330 215.917 C 354.332 215.912 351.925 194.270 373.609 173.743 C 391.177 157.113 404.355 158.442 419.728 150.791 M 357.923 301.173 C 336.857 306.548 323.079 307.210 305.109 301.014 M 385.659 300.263 C 385.663 300.263 411.017 303.314 426.548 300.719 C 447.306 297.250 463.285 276.780 463.288 276.778 M 610.013 43.960 C 623.568 44.383 631.237 44.142 640.647 42.175 C 646.291 40.995 648.924 37.300 648.925 37.300 C 648.918 37.300 583.618 37.727 578.327 38.180 C 572.909 38.645 567.742 43.228 567.758 49.207 C 567.817 70.886 556.321 107.646 585.763 171.443 C 588.263 176.861 568.076 156.217 544.503 153.600 C 522.414 151.147 504.506 160.986 501.240 160.365 C 494.809 159.143 496.604 154.047 467.013 142.503 C 419.574 123.997 376.232 144.109 365.567 142.103 C 355.989 140.302 352.893 138.429 346.828 133.927 C 326.998 119.207 307.061 96.970 289.354 90.484 C 268.731 82.930 233.661 84.761 215.250 100.437 C 199.603 113.761 193.976 141.360 193.004 151.191 C 192.559 155.700 192.386 163.279 194.412 169.092 C 200.334 186.088 228.837 221.209 228.841 221.214 C 228.842 221.213 237.546 208.800 237.546 208.799 C 237.550 208.800 265.782 229.613 276.755 226.974 C 289.912 223.809 295.051 209.435 299.308 201.087 C 303.435 204.841 315.103 215.793 323.001 223.146 M 362.597 399.853 C 371.174 359.575 340.158 317.360 303.116 299.790 C 277.106 287.453 268.563 269.335 257.251 248.625 C 255.129 244.741 226.400 258.207 183.187 256.312 C 144.064 254.597 117.181 238.734 95.668 236.682 C 87.857 235.938 74.230 226.891 82.643 207.739 C 91.302 188.025 74.626 167.955 121.158 73.233 C 129.860 55.520 68.595 69.562 50.330 44.567 C 48.723 42.368 46.219 37.417 46.219 37.416 C 46.220 37.416 51.795 37.339 54.583 37.300 C 54.584 37.300 59.905 37.300 62.567 37.300 C 62.567 37.300 70.531 37.300 71.075 37.300 C 71.082 37.300 136.381 37.727 141.672 38.180 C 147.090 38.645 152.932 43.268 152.241 49.207 C 149.503 72.736 166.829 126.649 133.043 176.811 C 128.616 183.385 160.744 168.190 194.412 169.092 C 194.412 169.092 194.412 169.092 194.412 169.092 M 420.651 422.079 C 416.333 429.314 412.487 436.180 409.007 442.697 C 401.882 456.345 396.585 468.487 392.577 479.554 C 389.950 486.902 387.844 493.822 386.361 500.228 C 374.882 549.808 381.789 577.601 375.690 616.485 C 373.264 631.954 400.346 643.994 410.313 639.083 C 429.436 629.662 457.553 632.729 491.956 623.886 C 527.026 614.871 569.276 612.321 577.374 611.848 C 588.453 611.201 578.986 642.575 577.365 648.505 C 576.576 651.390 575.267 671.091 573.040 674.133 C 560.912 690.700 553.892 683.143 551.720 690.172 C 549.591 697.063 567.919 699.185 570.040 694.470 C 573.984 685.702 579.961 680.238 579.962 680.237 C 579.961 680.238 567.102 690.753 570.040 694.470 C 572.756 697.908 579.153 693.634 580.316 691.333 C 583.104 685.819 585.097 684.022 585.097 684.022 C 585.097 684.023 577.063 695.749 579.610 696.776 C 584.807 698.871 589.590 692.420 589.993 690.130 C 590.781 685.652 594.115 681.973 594.115 681.972 C 594.115 681.973 588.407 693.337 591.367 693.745 C 596.411 694.441 598.392 691.152 598.966 688.318 C 600.256 681.947 602.739 680.319 602.740 680.318 C 602.739 680.319 596.733 691.996 600.934 691.637 C 603.243 691.440 605.976 688.875 606.278 687.778 C 607.233 684.307 612.078 680.228 616.373 675.301 C 632.363 656.953 626.784 645.925 628.011 625.488 C 628.775 612.758 638.235 599.027 636.811 583.038 C 635.439 567.639 625.171 565.494 618.526 565.034 C 605.725 564.146 595.989 571.694 586.448 569.912 C 556.994 564.410 546.021 551.162 504.119 549.529 C 483.743 548.736 454.980 576.616 454.975 576.619 C 454.979 576.611 483.349 538.982 495.539 493.415 C 561.569 461.661 537.747 402.534 528.168 388.879 C 531.471 357.269 533.556 320.804 510.909 280.597 C 507.430 274.420 503.650 259.514 495.479 245.169 C 505.809 242.613 518.781 250.277 535.119 251.055 C 575.144 252.961 604.018 239.818 626.121 239.157 C 634.636 238.902 650.458 229.220 641.533 208.336 C 632.964 188.285 647.926 150.904 598.841 73.233 C 588.298 56.550 651.402 69.561 669.669 44.568 C 671.276 42.368 673.781 37.417 673.781 37.416 C 673.780 37.416 668.206 37.339 665.418 37.300 C 665.417 37.300 660.095 37.300 657.433 37.300 C 657.433 37.300 649.469 37.300 648.925 37.300 M 362.597 399.853 C 346.815 400.562 335.316 399.596 323.051 403.058 C 216.781 433.053 213.072 469.880 169.822 493.050 C 153.562 501.761 158.400 535.833 170.073 541.755 C 188.944 551.330 205.881 573.590 233.720 594.140 C 260.033 613.563 294.411 631.161 298.730 637.080 C 305.272 646.045 270.862 650.243 264.741 650.811 C 261.125 651.146 238.176 656.310 233.609 655.993 C 213.127 654.569 213.598 649.112 207.142 652.640 C 200.813 656.098 212.479 670.392 217.285 668.488 C 226.224 664.948 234.319 665.195 234.321 665.194 C 234.319 665.195 217.769 663.774 217.285 668.488 C 216.838 672.847 224.404 674.239 226.841 673.400 C 232.683 671.388 235.364 671.487 235.365 671.487 C 235.364 671.488 221.432 674.300 222.543 676.811 C 224.810 681.935 232.735 680.641 234.620 679.280 C 238.306 676.617 243.261 676.302 243.262 676.301 C 243.261 676.302 231.248 680.475 233.086 682.830 C 236.219 686.845 239.932 685.867 242.319 684.234 C 247.684 680.563 250.599 681.125 250.600 681.125 C 250.599 681.126 238.153 685.316 241.417 687.986 C 243.210 689.453 246.958 689.517 247.939 688.941 C 251.042 687.117 257.386 686.236 263.874 687.028 C 285.319 689.647 294.875 685.628 307.806 685.519 C 319.544 685.420 333.033 687.950 347.703 686.197 C 363.730 684.283 361.257 665.593 357.626 659.019 C 355.303 654.814 344.647 644.963 341.355 637.629 C 327.024 605.710 324.843 588.905 294.898 550.163 C 282.787 534.495 244.977 528.317 244.972 528.315 C 244.981 528.312 294.627 520.613 339.355 496.689 C 362.044 502.318 374.009 505.485 386.361 500.228 M 392.577 479.554 C 363.196 460.064 359.521 431.805 364.280 410.070 M 71.075 37.300 C 71.076 37.300 73.708 40.995 79.352 42.175 C 88.762 44.143 96.432 44.383 109.987 43.960 M 54.583 37.300 C 54.583 37.301 56.710 41.681 58.801 43.934 C 64.133 49.676 80.281 53.049 80.283 53.050 M 62.567 37.300 C 62.567 37.301 64.388 41.549 70.583 44.484 C 80.284 49.080 92.401 49.329 92.403 49.330 M 495.479 245.169 C 491.664 246.113 474.685 256.285 456.296 252.242 M 665.418 37.300 C 665.417 37.301 663.279 41.670 661.199 43.934 C 656.405 49.150 641.919 52.500 641.918 52.501 M 657.433 37.300 C 657.433 37.301 655.579 41.480 649.416 44.484 C 639.713 49.214 627.598 49.880 627.596 49.881 "/>
</g>
<g id="specs_2">
<path fill="#ff0000" fill-rule="evenodd" stroke="none" d="M 360.000 88.336 C 360.002 88.330 383.232 23.285 383.235 23.278 C 383.232 23.280 360.002 44.895 360.000 44.897 C 359.998 44.895 336.768 23.280 336.765 23.278 C 336.768 23.285 359.998 88.330 360.000 88.336 Z"/>
<path fill="#0000ff" fill-rule="evenodd" stroke="none" d="M 622.513 13.766 C 622.514 13.770 636.008 51.553 636.009 51.557 C 636.008 51.556 622.514 39.001 622.513 39.000 C 622.511 39.001 609.018 51.556 609.016 51.557 C 609.018 51.553 622.511 13.770 622.513 13.766 Z"/>
<path fill="#00ff00" fill-rule="evenodd" stroke="none" d="M 61.432 219.353 C 61.436 219.352 95.364 207.040 95.368 207.039 C 95.367 207.040 84.134 219.238 84.133 219.239 C 84.134 219.240 95.489 231.321 95.490 231.323 C 95.487 231.321 61.436 219.355 61.432 219.353 Z"/>
<path fill="#ffff00" fill-rule="evenodd" stroke="none" d="M 232.871 707.465 C 232.874 707.459 262.040 643.956 262.043 643.950 C 262.043 643.953 263.579 676.019 263.579 676.022 C 263.582 676.023 295.675 676.800 295.678 676.801 C 295.672 676.804 232.878 707.462 232.871 707.465 Z"/>
<path fill="#ffff00" fill-rule="evenodd" stroke="none" d="M 637.349 706.687 C 637.346 706.681 606.912 643.775 606.909 643.769 C 606.908 643.772 606.017 675.864 606.017 675.867 C 606.014 675.867 573.941 677.289 573.938 677.289 C 573.944 677.292 637.342 706.684 637.349 706.687 Z"/>
<path fill="#00ff00" fill-rule="evenodd" stroke="none" d="M 663.081 219.353 C 663.078 219.352 629.149 207.040 629.146 207.039 C 629.147 207.040 640.380 219.238 640.381 219.239 C 640.380 219.240 629.025 231.321 629.024 231.323 C 629.027 231.321 663.078 219.355 663.081 219.353 Z"/>
<path fill="#00ffff" fill-rule="evenodd" stroke="none" d="M 646.184 552.922 C 646.182 552.926 632.788 590.745 632.787 590.749 C 632.787 590.747 630.251 572.491 630.250 572.489 C 630.248 572.489 611.857 573.703 611.855 573.704 C 611.859 573.701 646.180 552.924 646.184 552.922 Z"/>
<path fill="#00ffff" fill-rule="evenodd" stroke="none" d="M 150.965 486.854 C 150.966 486.858 166.852 523.700 166.854 523.703 C 166.854 523.701 168.167 505.317 168.167 505.315 C 168.169 505.315 186.600 505.301 186.602 505.301 C 186.598 505.299 150.968 486.856 150.965 486.854 Z"/>
<path fill="#be0027" fill-rule="evenodd" stroke="none" d="M 558.775 495.326 C 558.772 495.320 529.205 432.900 529.202 432.894 C 529.202 432.897 528.059 464.606 528.059 464.609 C 528.056 464.610 496.346 465.752 496.343 465.752 C 496.349 465.755 558.769 495.323 558.775 495.326 Z"/>
<path fill="#ff00ff" fill-rule="evenodd" stroke="none" d="M 213.117 196.959 C 213.127 196.959 309.919 196.959 309.928 196.959 C 309.928 196.950 309.928 103.256 309.928 103.246 C 309.919 103.246 213.127 103.246 213.117 103.246 C 213.117 103.256 213.117 196.950 213.117 196.959 Z"/>
<path fill="#0000ff" fill-rule="evenodd" stroke="none" d="M 97.487 13.766 C 97.489 13.770 110.982 51.553 110.984 51.557 C 110.982 51.556 97.489 39.001 97.487 39.000 C 97.486 39.001 83.992 51.556 83.991 51.557 C 83.992 51.553 97.486 13.770 97.487 13.766 Z"/>
</g>
</g>
</svg>
