<?xml version="1.0" encoding="utf-8"?>
<!-- Generator: Moho 12.5 build 22414 -->
<!DOCTYPE svg PUBLIC "-//W3C//DTD SVG 1.1//EN" "http://www.w3.org/Graphics/SVG/1.1/DTD/svg11.dtd">
<svg version="1.1" id="Frame_0" xmlns="http://www.w3.org/2000/svg" xmlns:xlink="http://www.w3.org/1999/xlink" width="720px" height="720px">
<g id="banner_2">
<g id="banner_2">
<path fill="#ffffff" fill-rule="evenodd" stroke="#000000" stroke-width="4" stroke-linejoin="round" d="M 450.152 493.511 C 454.420 479.293 563.544 479.710 564.980 469.378 C 564.980 469.378 564.980 469.378 564.980 469.378 C 564.980 469.378 564.980 469.378 564.980 469.378 C 564.979 469.364 560.288 371.363 560.077 323.151 C 623.338 328.149 704.488 322.086 704.503 322.086 C 704.491 322.095 587.790 412.794 587.779 412.803 C 587.790 412.811 702.254 487.918 702.266 487.926 C 702.241 487.926 450.766 504.490 450.152 493.511 Z"/>
<path fill="#ffffff" fill-rule="evenodd" stroke="#000000" stroke-width="4" stroke-linejoin="round" d="M 155.021 469.378 C 155.021 469.364 159.713 371.363 159.924 323.151 C 96.662 328.149 15.512 322.086 15.497 322.086 C 15.509 322.095 132.210 412.794 132.222 412.803 C 132.210 412.810 17.746 487.918 17.735 487.926 C 17.760 487.926 265.620 507.295 269.848 493.511 C 264.662 479.293 154.621 479.710 155.021 469.378 C 155.021 469.378 155.021 469.378 155.021 469.378 C 155.021 469.378 155.021 469.378 155.021 469.378 Z"/>
<path fill="none" stroke="#ffffff" stroke-width="1" stroke-linecap="butt" stroke-linejoin="round" d="M 560.077 323.151 C 560.288 371.363 564.979 469.364 564.980 469.378 "/>
<path fill="none" stroke="#ffffff" stroke-width="1" stroke-linecap="butt" stroke-linejoin="round" d="M 155.021 469.378 C 155.021 469.364 159.713 371.363 159.924 323.151 "/>
<path fill="none" stroke="#ffffff" stroke-width="1" stroke-linecap="butt" stroke-linejoin="round" d="M 155.021 469.378 C 155.021 469.378 155.021 469.378 155.021 469.378 "/>
<path fill="none" stroke="#ffffff" stroke-width="1" stroke-linecap="butt" stroke-linejoin="round" d="M 155.021 469.378 C 155.021 469.378 155.021 469.378 155.021 469.378 "/>
<path fill="none" stroke="#ffffff" stroke-width="1" stroke-linecap="butt" stroke-linejoin="round" d="M 564.980 469.378 C 564.980 469.378 564.980 469.378 564.980 469.378 "/>
<path fill="none" stroke="#ffffff" stroke-width="1" stroke-linecap="butt" stroke-linejoin="round" d="M 564.980 469.378 C 564.980 469.378 564.980 469.378 564.980 469.378 "/>
<path fill="#ffffff" fill-rule="evenodd" stroke="#000000" stroke-width="4" stroke-linejoin="round" d="M 560.077 323.151 C 560.288 371.363 564.979 469.364 564.980 469.378 C 543.181 456.955 491.124 464.314 450.481 468.293 C 415.706 471.696 399.836 471.209 360.517 471.848 C 321.532 472.482 304.695 471.694 269.520 468.292 C 228.872 464.361 175.902 455.120 155.021 469.378 C 155.021 469.364 159.713 371.363 159.924 323.151 C 160.450 299.906 159.074 272.037 159.242 258.577 C 164.726 246.272 218.179 247.243 361.303 248.865 C 502.712 247.422 552.739 241.079 560.759 258.577 C 560.759 258.583 559.550 299.907 560.077 323.151 M 155.021 469.378 C 155.021 469.378 155.021 469.378 155.021 469.378 C 155.021 469.378 155.021 469.378 155.021 469.378 M 564.980 469.378 C 564.980 469.378 564.980 469.378 564.980 469.378 C 564.980 469.378 564.980 469.378 564.980 469.378 Z"/>
<path fill="none" stroke="#000000" stroke-width="1" stroke-linecap="butt" stroke-linejoin="round" d="M 269.520 468.292 C 228.872 464.361 175.902 455.120 155.021 469.378 "/>
<path fill="none" stroke="#000000" stroke-width="1" stroke-linecap="butt" stroke-linejoin="round" d="M 155.021 469.378 C 155.021 469.378 155.021 469.378 155.021 469.378 "/>
<path fill="none" stroke="#000000" stroke-width="1" stroke-linecap="butt" stroke-linejoin="round" d="M 155.021 469.378 C 155.021 469.378 155.021 469.378 155.021 469.378 "/>
<path fill="none" stroke="#000000" stroke-width="1" stroke-linecap="butt" stroke-linejoin="round" d="M 155.021 469.378 C 154.621 479.710 264.662 479.293 269.848 493.511 "/>
<path fill="#000000" fill-rule="evenodd" stroke="#000000" stroke-width="4" stroke-linejoin="round" d="M 269.520 468.292 C 228.872 464.361 175.902 455.120 155.021 469.378 C 155.021 469.378 155.021 469.378 155.021 469.378 C 155.021 469.378 155.021 469.378 155.021 469.378 C 154.621 479.710 264.662 479.293 269.848 493.511 C 269.907 484.117 269.631 476.819 269.520 468.292 Z"/>
<path fill="none" stroke="#000000" stroke-width="1" stroke-linecap="butt" stroke-linejoin="round" d="M 564.980 469.378 C 543.181 456.955 491.124 464.314 450.481 468.293 "/>
<path fill="none" stroke="#000000" stroke-width="1" stroke-linecap="butt" stroke-linejoin="round" d="M 450.152 493.511 C 454.420 479.293 563.544 479.710 564.980 469.378 "/>
<path fill="none" stroke="#000000" stroke-width="1" stroke-linecap="butt" stroke-linejoin="round" d="M 564.980 469.378 C 564.980 469.378 564.980 469.378 564.980 469.378 "/>
<path fill="none" stroke="#000000" stroke-width="1" stroke-linecap="butt" stroke-linejoin="round" d="M 564.980 469.378 C 564.980 469.378 564.980 469.378 564.980 469.378 "/>
<path fill="#000000" fill-rule="evenodd" stroke="#000000" stroke-width="4" stroke-linejoin="round" d="M 564.980 469.378 C 543.181 456.955 491.124 464.314 450.481 468.293 C 450.369 476.819 450.093 484.117 450.152 493.511 C 454.420 479.293 563.544 479.710 564.980 469.378 C 564.980 469.378 564.980 469.378 564.980 469.378 C 564.980 469.378 564.980 469.378 564.980 469.378 Z"/>
</g>
<g id="specs_2">
<path fill="#ff00ff" fill-rule="evenodd" stroke="none" d="M 184.511 449.122 C 184.546 449.122 535.454 449.122 535.489 449.122 C 535.489 449.103 535.489 263.570 535.489 263.552 C 535.454 263.552 184.546 263.552 184.511 263.552 C 184.511 263.570 184.511 449.103 184.511 449.122 Z"/>
<path fill="#ff0000" fill-rule="evenodd" stroke="none" d="M 360.000 537.567 C 360.001 537.571 372.416 572.333 372.417 572.337 C 372.416 572.336 360.001 560.784 360.000 560.783 C 359.999 560.784 347.584 572.336 347.583 572.337 C 347.584 572.333 359.999 537.571 360.000 537.567 Z"/>
<path fill="#0000ff" fill-rule="evenodd" stroke="none" d="M 360.000 237.452 C 360.001 237.454 367.212 257.647 367.213 257.649 C 367.212 257.648 360.001 250.938 360.000 250.938 C 359.999 250.938 352.788 257.648 352.787 257.649 C 352.788 257.647 359.999 237.454 360.000 237.452 Z"/>
<path fill="#ffff00" fill-rule="evenodd" stroke="none" d="M 599.085 495.710 C 599.085 495.709 592.323 481.733 592.323 481.731 C 592.323 481.732 592.124 488.862 592.124 488.863 C 592.124 488.863 584.998 489.178 584.997 489.179 C 584.999 489.179 599.084 495.709 599.085 495.710 Z"/>
<path fill="#00ff00" fill-rule="evenodd" stroke="none" d="M 611.914 410.908 C 611.912 410.907 591.756 403.593 591.754 403.592 C 591.754 403.593 598.428 410.839 598.428 410.840 C 598.428 410.841 591.682 418.018 591.681 418.019 C 591.683 418.018 611.912 410.909 611.914 410.908 Z"/>
<path fill="#00ffff" fill-rule="evenodd" stroke="none" d="M 559.878 247.330 C 559.878 247.331 554.695 261.966 554.694 261.968 C 554.694 261.967 553.713 254.902 553.712 254.902 C 553.712 254.902 546.595 255.372 546.594 255.372 C 546.596 255.371 559.877 247.331 559.878 247.330 Z"/>
<path fill="#be0027" fill-rule="evenodd" stroke="none" d="M 360.000 493.722 C 360.001 493.718 372.416 458.956 372.417 458.952 C 372.416 458.953 360.001 470.505 360.000 470.506 C 359.999 470.505 347.584 458.953 347.583 458.952 C 347.584 458.956 359.999 493.718 360.000 493.722 Z"/>
<path fill="#ffff00" fill-rule="evenodd" stroke="none" d="M 120.915 495.710 C 120.916 495.709 127.677 481.733 127.677 481.731 C 127.678 481.732 127.876 488.862 127.876 488.863 C 127.877 488.863 135.002 489.179 135.003 489.179 C 135.001 489.179 120.916 495.709 120.915 495.710 Z"/>
<path fill="#00ff00" fill-rule="evenodd" stroke="none" d="M 108.086 410.908 C 108.088 410.907 128.244 403.593 128.246 403.592 C 128.246 403.593 121.572 410.839 121.572 410.840 C 121.572 410.840 128.318 418.018 128.319 418.018 C 128.317 418.018 108.088 410.909 108.086 410.908 Z"/>
<path fill="#00ffff" fill-rule="evenodd" stroke="none" d="M 160.122 247.330 C 160.123 247.331 165.306 261.966 165.306 261.967 C 165.306 261.967 166.288 254.902 166.288 254.902 C 166.289 254.902 173.405 255.372 173.406 255.372 C 173.404 255.371 160.123 247.331 160.122 247.330 Z"/>
</g>
</g>
</svg>
