<?xml version="1.0" encoding="utf-8"?>
<!-- Generator: Moho 12.5 build 22414 -->
<!DOCTYPE svg PUBLIC "-//W3C//DTD SVG 1.1//EN" "http://www.w3.org/Graphics/SVG/1.1/DTD/svg11.dtd">
<svg version="1.1" id="Frame_0" xmlns="http://www.w3.org/2000/svg" xmlns:xlink="http://www.w3.org/1999/xlink" width="720px" height="720px">
<g id="banner_1">
<g id="banner_1">
<path fill="#000000" fill-rule="evenodd" stroke="#000000" stroke-width="4" stroke-linejoin="round" d="M 155.544 250.607 C 185.429 238.469 233.150 235.552 270.372 226.474 C 270.542 226.481 270.125 243.338 269.986 252.817 C 232.448 253.504 214.693 256.312 155.544 250.607 M 564.453 469.393 C 564.453 469.393 564.453 469.393 564.453 469.393 C 527.240 482.477 465.820 485.730 449.626 493.526 C 449.475 485.158 449.843 478.655 449.954 471.059 C 490.790 470.457 534.327 466.867 564.453 469.393 C 564.453 469.393 564.453 469.393 564.453 469.393 Z"/>
<path fill="none" stroke="#ffffff" stroke-width="1" stroke-linecap="butt" stroke-linejoin="round" d="M 155.544 250.607 C 185.429 238.469 233.150 235.552 270.372 226.474 "/>
<path fill="none" stroke="#ffffff" stroke-width="1" stroke-linecap="butt" stroke-linejoin="round" d="M 449.626 493.526 C 465.820 485.730 527.240 482.477 564.453 469.393 "/>
<path fill="none" stroke="#ffffff" stroke-width="1" stroke-linecap="butt" stroke-linejoin="round" d="M 564.453 469.393 C 564.453 469.393 564.453 469.393 564.453 469.393 "/>
<path fill="none" stroke="#ffffff" stroke-width="1" stroke-linecap="butt" stroke-linejoin="round" d="M 564.453 469.393 C 564.453 469.393 564.453 469.393 564.453 469.393 "/>
<path fill="#ffffff" fill-rule="evenodd" stroke="#000000" stroke-width="4" stroke-linejoin="round" d="M 153.196 402.416 C 154.153 352.394 153.462 250.406 155.544 250.607 C 185.429 238.469 233.150 235.552 270.372 226.474 C 91.005 219.172 18.283 244.901 18.258 244.903 C 18.269 244.909 132.747 309.050 132.758 309.057 C 132.746 309.065 16.053 396.444 16.042 396.453 C 16.056 396.454 92.389 393.534 153.196 402.416 M 449.626 493.526 C 465.820 485.730 527.240 482.477 564.453 469.393 C 564.453 469.393 564.453 469.393 564.453 469.393 C 564.453 469.393 564.453 469.393 564.453 469.393 C 564.454 469.378 565.859 366.428 566.829 315.827 C 626.627 323.762 703.963 322.100 703.977 322.100 C 703.965 322.109 587.264 410.057 587.252 410.065 C 587.264 410.072 701.728 475.090 701.739 475.097 C 701.714 475.099 608.195 497.960 449.626 493.526 Z"/>
<path fill="none" stroke="#ffffff" stroke-width="1" stroke-linecap="butt" stroke-linejoin="round" d="M 564.453 469.393 C 564.453 469.393 564.453 469.393 564.453 469.393 "/>
<path fill="none" stroke="#ffffff" stroke-width="1" stroke-linecap="butt" stroke-linejoin="round" d="M 564.453 469.393 C 534.327 466.867 490.790 470.457 449.954 471.059 "/>
<path fill="none" stroke="#ffffff" stroke-width="1" stroke-linecap="butt" stroke-linejoin="round" d="M 153.196 402.416 C 154.153 352.394 153.462 250.406 155.544 250.607 "/>
<path fill="none" stroke="#ffffff" stroke-width="1" stroke-linecap="butt" stroke-linejoin="round" d="M 155.544 250.607 C 214.693 256.312 232.448 253.504 269.986 252.817 "/>
<path fill="none" stroke="#ffffff" stroke-width="1" stroke-linecap="butt" stroke-linejoin="round" d="M 566.829 315.827 C 565.859 366.428 564.454 469.378 564.453 469.393 "/>
<path fill="none" stroke="#ffffff" stroke-width="1" stroke-linecap="butt" stroke-linejoin="round" d="M 564.453 469.393 C 564.453 469.393 564.453 469.393 564.453 469.393 "/>
<path fill="#ffffff" fill-rule="evenodd" stroke="#000000" stroke-width="4" stroke-linejoin="round" d="M 564.453 469.393 C 564.453 469.393 564.453 469.393 564.453 469.393 C 534.327 466.867 490.790 470.457 449.954 471.059 C 159.883 475.335 152.491 461.410 152.461 461.409 C 152.462 461.403 153.171 423.657 153.196 402.416 C 154.153 352.394 153.462 250.406 155.544 250.607 C 214.693 256.312 232.448 253.504 269.986 252.817 C 545.433 247.775 567.506 258.591 567.536 258.591 C 567.536 258.597 566.847 295.218 566.829 315.827 C 565.859 366.428 564.454 469.378 564.453 469.393 C 564.453 469.393 564.453 469.393 564.453 469.393 Z"/>
</g>
<g id="specs_2">
<path fill="#ff00ff" fill-rule="evenodd" stroke="none" d="M 184.511 443.645 C 184.546 443.645 535.454 443.645 535.489 443.645 C 535.489 443.628 535.489 276.372 535.489 276.355 C 535.454 276.355 184.546 276.355 184.511 276.355 C 184.511 276.372 184.511 443.628 184.511 443.645 Z"/>
<path fill="#ff0000" fill-rule="evenodd" stroke="none" d="M 360.000 537.567 C 360.001 537.571 372.416 572.333 372.417 572.337 C 372.416 572.336 360.001 560.784 360.000 560.783 C 359.999 560.784 347.584 572.336 347.583 572.337 C 347.584 572.333 359.999 537.571 360.000 537.567 Z"/>
<path fill="#0000ff" fill-rule="evenodd" stroke="none" d="M 360.000 237.452 C 360.001 237.454 367.212 257.647 367.213 257.649 C 367.212 257.648 360.001 250.938 360.000 250.938 C 359.999 250.938 352.788 257.648 352.787 257.649 C 352.788 257.647 359.999 237.454 360.000 237.452 Z"/>
<path fill="#00ff00" fill-rule="evenodd" stroke="none" d="M 109.539 310.201 C 109.541 310.200 129.697 302.886 129.699 302.886 C 129.698 302.886 123.025 310.132 123.024 310.133 C 123.025 310.134 129.771 317.311 129.772 317.312 C 129.770 317.311 109.541 310.202 109.539 310.201 Z"/>
<path fill="#ffff00" fill-rule="evenodd" stroke="none" d="M 160.928 469.288 C 160.929 469.286 167.408 455.178 167.409 455.176 C 167.409 455.177 167.750 462.301 167.750 462.302 C 167.751 462.302 174.881 462.475 174.882 462.475 C 174.880 462.476 160.929 469.287 160.928 469.288 Z"/>
<path fill="#ffff00" fill-rule="evenodd" stroke="none" d="M 598.520 493.884 C 598.519 493.883 591.757 479.907 591.757 479.906 C 591.757 479.906 591.559 487.036 591.559 487.037 C 591.558 487.037 584.432 487.353 584.432 487.353 C 584.433 487.353 598.518 493.883 598.520 493.884 Z"/>
<path fill="#00ff00" fill-rule="evenodd" stroke="none" d="M 613.183 409.082 C 613.181 409.081 593.025 401.767 593.023 401.766 C 593.023 401.767 599.697 409.013 599.697 409.014 C 599.697 409.015 592.951 416.192 592.950 416.193 C 592.952 416.192 613.181 409.083 613.183 409.082 Z"/>
<path fill="#00ffff" fill-rule="evenodd" stroke="none" d="M 551.056 249.174 C 551.055 249.175 545.872 263.810 545.872 263.811 C 545.872 263.811 544.890 256.746 544.890 256.745 C 544.889 256.745 537.773 257.215 537.772 257.215 C 537.773 257.214 551.055 249.174 551.056 249.174 Z"/>
<path fill="#00ffff" fill-rule="evenodd" stroke="none" d="M 123.156 221.220 C 123.156 221.221 129.304 235.478 129.304 235.479 C 129.304 235.479 129.813 228.364 129.813 228.363 C 129.813 228.363 136.945 228.358 136.946 228.358 C 136.945 228.357 123.157 221.221 123.156 221.220 Z"/>
<path fill="#be0027" fill-rule="evenodd" stroke="none" d="M 360.000 493.722 C 360.001 493.718 372.416 458.956 372.417 458.952 C 372.416 458.953 360.001 470.505 360.000 470.506 C 359.999 470.505 347.584 458.953 347.583 458.952 C 347.584 458.956 359.999 493.718 360.000 493.722 Z"/>
</g>
</g>
</svg>
