<?xml version="1.0" encoding="utf-8"?>
<!-- Generator: Moho 12.5 build 22414 -->
<!DOCTYPE svg PUBLIC "-//W3C//DTD SVG 1.1//EN" "http://www.w3.org/Graphics/SVG/1.1/DTD/svg11.dtd">
<svg version="1.1" id="Frame_0" xmlns="http://www.w3.org/2000/svg" xmlns:xlink="http://www.w3.org/1999/xlink" width="720px" height="720px">
<g id="banner">
<g id="banner_2">
<path fill="#ffffff" fill-rule="evenodd" stroke="#000000" stroke-width="4" stroke-linejoin="round" d="M 449.383 488.619 C 454.881 474.810 563.688 484.749 566.022 474.569 C 566.022 474.569 566.022 474.569 566.022 474.569 C 566.022 474.569 566.022 474.569 566.022 474.569 C 566.021 474.554 560.635 373.051 560.326 323.105 C 623.666 328.109 704.917 322.039 704.932 322.039 C 704.920 322.048 588.074 412.860 588.062 412.869 C 588.074 412.876 702.681 488.077 702.692 488.085 C 702.667 488.085 449.086 499.661 449.383 488.619 Z"/>
<path fill="#ffffff" fill-rule="evenodd" stroke="#000000" stroke-width="4" stroke-linejoin="round" d="M 153.979 474.569 C 153.979 474.554 159.366 373.051 159.674 323.105 C 96.334 328.109 15.083 322.039 15.068 322.039 C 15.080 322.048 131.926 412.859 131.938 412.868 C 131.927 412.876 17.320 488.077 17.308 488.085 C 17.334 488.085 267.529 502.768 270.617 488.619 C 264.204 474.890 154.482 484.909 153.979 474.569 C 153.979 474.569 153.979 474.569 153.979 474.569 C 153.979 474.569 153.979 474.569 153.979 474.569 Z"/>
<path fill="none" stroke="#ffffff" stroke-width="1" stroke-linecap="butt" stroke-linejoin="round" d="M 560.326 323.105 C 560.635 373.051 566.021 474.554 566.022 474.569 "/>
<path fill="none" stroke="#ffffff" stroke-width="1" stroke-linecap="butt" stroke-linejoin="round" d="M 153.979 474.569 C 153.979 474.554 159.366 373.051 159.674 323.105 "/>
<path fill="none" stroke="#ffffff" stroke-width="1" stroke-linecap="butt" stroke-linejoin="round" d="M 153.979 474.569 C 153.979 474.569 153.979 474.569 153.979 474.569 "/>
<path fill="none" stroke="#ffffff" stroke-width="1" stroke-linecap="butt" stroke-linejoin="round" d="M 153.979 474.569 C 153.979 474.569 153.979 474.569 153.979 474.569 "/>
<path fill="none" stroke="#ffffff" stroke-width="1" stroke-linecap="butt" stroke-linejoin="round" d="M 566.022 474.569 C 566.022 474.569 566.022 474.569 566.022 474.569 "/>
<path fill="none" stroke="#ffffff" stroke-width="1" stroke-linecap="butt" stroke-linejoin="round" d="M 566.022 474.569 C 566.022 474.569 566.022 474.569 566.022 474.569 "/>
<path fill="#ffffff" fill-rule="evenodd" stroke="#000000" stroke-width="4" stroke-linejoin="round" d="M 560.326 323.105 C 560.635 373.051 566.021 474.554 566.022 474.569 C 564.036 463.222 492.639 465.247 451.911 467.303 C 416.488 469.092 400.430 466.588 360.518 467.226 C 320.949 467.858 303.913 469.079 268.089 467.303 C 227.360 465.284 158.685 463.467 153.979 474.569 C 153.979 474.554 159.366 373.051 159.674 323.105 C 160.244 299.833 158.824 279.546 158.992 258.450 C 165.435 242.321 218.002 247.102 361.304 248.726 C 502.890 247.282 555.836 239.979 561.009 258.451 C 559.104 288.930 559.756 299.833 560.326 323.105 M 153.979 474.569 C 153.979 474.569 153.979 474.569 153.979 474.569 C 153.979 474.569 153.979 474.569 153.979 474.569 M 566.022 474.569 C 566.022 474.569 566.022 474.569 566.022 474.569 C 566.022 474.569 566.022 474.569 566.022 474.569 Z"/>
<path fill="none" stroke="#000000" stroke-width="1" stroke-linecap="butt" stroke-linejoin="round" d="M 268.089 467.303 C 227.360 465.284 158.685 463.467 153.979 474.569 "/>
<path fill="none" stroke="#000000" stroke-width="1" stroke-linecap="butt" stroke-linejoin="round" d="M 153.979 474.569 C 153.979 474.569 153.979 474.569 153.979 474.569 "/>
<path fill="none" stroke="#000000" stroke-width="1" stroke-linecap="butt" stroke-linejoin="round" d="M 153.979 474.569 C 153.979 474.569 153.979 474.569 153.979 474.569 "/>
<path fill="none" stroke="#000000" stroke-width="1" stroke-linecap="butt" stroke-linejoin="round" d="M 153.979 474.569 C 154.482 484.909 264.204 474.890 270.617 488.619 "/>
<path fill="#000000" fill-rule="evenodd" stroke="#000000" stroke-width="4" stroke-linejoin="round" d="M 268.089 467.303 C 227.360 465.284 158.685 463.467 153.979 474.569 C 153.979 474.569 153.979 474.569 153.979 474.569 C 153.979 474.569 153.979 474.569 153.979 474.569 C 154.482 484.909 264.204 474.890 270.617 488.619 C 270.006 480.647 268.944 474.510 268.089 467.303 Z"/>
<path fill="none" stroke="#000000" stroke-width="1" stroke-linecap="butt" stroke-linejoin="round" d="M 566.022 474.569 C 564.036 463.222 492.639 465.247 451.911 467.303 "/>
<path fill="none" stroke="#000000" stroke-width="1" stroke-linecap="butt" stroke-linejoin="round" d="M 449.383 488.619 C 454.881 474.810 563.688 484.749 566.022 474.569 "/>
<path fill="none" stroke="#000000" stroke-width="1" stroke-linecap="butt" stroke-linejoin="round" d="M 566.022 474.569 C 566.022 474.569 566.022 474.569 566.022 474.569 "/>
<path fill="none" stroke="#000000" stroke-width="1" stroke-linecap="butt" stroke-linejoin="round" d="M 566.022 474.569 C 566.022 474.569 566.022 474.569 566.022 474.569 "/>
<path fill="#000000" fill-rule="evenodd" stroke="#000000" stroke-width="4" stroke-linejoin="round" d="M 566.022 474.569 C 564.036 463.222 492.639 465.247 451.911 467.303 C 451.056 474.510 449.994 480.647 449.383 488.619 C 454.881 474.810 563.688 484.749 566.022 474.569 C 566.022 474.569 566.022 474.569 566.022 474.569 C 566.022 474.569 566.022 474.569 566.022 474.569 Z"/>
</g>
<g id="specs_2">
<path fill="#ff00ff" fill-rule="evenodd" stroke="none" d="M 184.293 451.135 C 184.328 451.135 535.672 451.135 535.707 451.135 C 535.707 451.116 535.707 265.352 535.707 265.333 C 535.672 265.333 184.328 265.333 184.293 265.333 C 184.293 265.352 184.293 451.116 184.293 451.135 Z"/>
<path fill="#ff0000" fill-rule="evenodd" stroke="none" d="M 360.000 537.788 C 360.001 537.792 372.432 572.598 372.433 572.601 C 372.432 572.600 360.001 561.034 360.000 561.033 C 359.999 561.034 347.568 572.600 347.567 572.601 C 347.568 572.598 359.999 537.792 360.000 537.788 Z"/>
<path fill="#0000ff" fill-rule="evenodd" stroke="none" d="M 360.000 237.299 C 360.001 237.301 367.221 257.519 367.222 257.521 C 367.221 257.521 360.001 250.802 360.000 250.802 C 359.999 250.802 352.779 257.521 352.778 257.521 C 352.779 257.519 359.999 237.301 360.000 237.299 Z"/>
<path fill="#ffff00" fill-rule="evenodd" stroke="none" d="M 599.383 495.879 C 599.382 495.878 592.612 481.885 592.612 481.883 C 592.612 481.884 592.414 489.023 592.414 489.023 C 592.413 489.023 585.279 489.339 585.278 489.339 C 585.279 489.340 599.382 495.878 599.383 495.879 Z"/>
<path fill="#00ff00" fill-rule="evenodd" stroke="none" d="M 612.228 410.971 C 612.226 410.971 592.044 403.647 592.042 403.647 C 592.043 403.647 598.725 410.903 598.725 410.903 C 598.725 410.904 591.970 418.090 591.969 418.091 C 591.971 418.090 612.226 410.972 612.228 410.971 Z"/>
<path fill="#00ffff" fill-rule="evenodd" stroke="none" d="M 560.127 247.190 C 560.127 247.191 554.937 261.844 554.937 261.846 C 554.937 261.845 553.954 254.771 553.954 254.771 C 553.953 254.771 546.827 255.241 546.827 255.241 C 546.828 255.241 560.126 247.191 560.127 247.190 Z"/>
<path fill="#be0027" fill-rule="evenodd" stroke="none" d="M 360.000 483.078 C 360.001 483.074 372.432 448.268 372.433 448.265 C 372.432 448.266 360.001 459.832 360.000 459.833 C 359.999 459.832 347.568 448.266 347.567 448.265 C 347.568 448.268 359.999 483.074 360.000 483.078 Z"/>
<path fill="#ffff00" fill-rule="evenodd" stroke="none" d="M 120.617 495.879 C 120.618 495.878 127.388 481.885 127.388 481.883 C 127.388 481.884 127.587 489.022 127.587 489.023 C 127.588 489.023 134.722 489.339 134.723 489.339 C 134.721 489.340 120.619 495.878 120.617 495.879 Z"/>
<path fill="#00ff00" fill-rule="evenodd" stroke="none" d="M 107.772 410.971 C 107.774 410.970 127.956 403.647 127.958 403.647 C 127.957 403.647 121.275 410.903 121.275 410.903 C 121.275 410.904 128.030 418.090 128.031 418.091 C 128.029 418.090 107.774 410.972 107.772 410.971 Z"/>
<path fill="#00ffff" fill-rule="evenodd" stroke="none" d="M 159.873 247.190 C 159.874 247.191 165.063 261.844 165.064 261.846 C 165.064 261.845 166.047 254.772 166.047 254.771 C 166.047 254.771 173.173 255.241 173.173 255.241 C 173.172 255.241 159.875 247.191 159.873 247.190 Z"/>
</g>
</g>
</svg>
