<?xml version="1.0" encoding="utf-8"?>
<!-- Generator: Moho 12.5 build 22414 -->
<!DOCTYPE svg PUBLIC "-//W3C//DTD SVG 1.1//EN" "http://www.w3.org/Graphics/SVG/1.1/DTD/svg11.dtd">
<svg version="1.1" id="Frame_0" xmlns="http://www.w3.org/2000/svg" xmlns:xlink="http://www.w3.org/1999/xlink" width="720px" height="720px">
<g id="bed">
<g id="bed">
<path fill="#ffffff" fill-rule="evenodd" stroke="#000000" stroke-width="4" stroke-linejoin="round" d="M 152.879 441.544 C 152.878 441.540 152.565 407.464 152.565 407.461 C 142.283 401.580 121.722 389.819 121.719 389.818 C 121.409 413.235 120.790 460.063 120.789 460.070 C 131.486 453.895 152.875 441.546 152.879 441.544 Z"/>
<path fill="#ffffff" fill-rule="evenodd" stroke="#000000" stroke-width="4" stroke-linejoin="round" d="M 439.133 201.437 C 354.460 251.078 185.139 350.346 185.114 350.361 C 185.108 350.357 121.243 313.404 121.237 313.401 C 121.262 313.386 376.507 165.628 376.533 165.613 C 376.539 165.617 439.127 201.433 439.133 201.437 Z"/>
<path fill="none" stroke="#ffffff" stroke-width="1" stroke-linecap="butt" stroke-linejoin="round" d="M 439.133 201.437 C 354.460 251.078 185.139 350.346 185.114 350.361 "/>
<path fill="#ffffff" fill-rule="evenodd" stroke="#000000" stroke-width="4" stroke-linejoin="round" d="M 248.630 387.112 C 248.655 387.098 419.100 289.357 504.336 240.480 C 504.329 240.476 439.140 201.441 439.133 201.437 C 354.460 251.078 185.139 350.346 185.114 350.361 C 185.120 350.364 248.623 387.109 248.630 387.112 Z"/>
<path fill="none" stroke="#ffffff" stroke-width="1" stroke-linecap="butt" stroke-linejoin="round" d="M 248.630 387.112 C 248.655 387.098 419.100 289.357 504.336 240.480 "/>
<path fill="#ffffff" fill-rule="evenodd" stroke="#000000" stroke-width="4" stroke-linejoin="round" d="M 504.336 240.480 C 504.355 240.491 695.097 352.310 695.116 352.322 C 610.164 400.536 440.284 496.951 440.258 496.965 C 440.239 496.954 248.649 387.123 248.630 387.112 C 248.655 387.098 419.100 289.357 504.336 240.480 Z"/>
<path fill="none" stroke="#000000" stroke-width="1" stroke-linecap="butt" stroke-linejoin="round" d="M 440.258 496.965 C 440.239 496.954 248.649 387.123 248.630 387.112 "/>
<path fill="#000000" fill-rule="evenodd" stroke="#ffffff" stroke-width="4" stroke-linejoin="round" d="M 405.025 583.042 C 405.029 583.045 440.456 604.449 440.459 604.451 C 440.459 604.441 440.325 532.794 440.258 496.965 C 440.239 496.954 248.649 387.123 248.630 387.112 C 248.629 387.123 247.511 457.458 246.952 492.631 C 246.968 492.640 405.009 583.033 405.025 583.042 Z"/>
<path fill="none" stroke="#000000" stroke-width="1" stroke-linecap="butt" stroke-linejoin="round" d="M 152.565 407.461 C 142.283 401.580 121.722 389.819 121.719 389.818 "/>
<path fill="none" stroke="#000000" stroke-width="1" stroke-linecap="butt" stroke-linejoin="round" d="M 121.237 313.401 C 121.243 313.404 185.108 350.357 185.114 350.361 "/>
<path fill="#000000" fill-rule="evenodd" stroke="#ffffff" stroke-width="4" stroke-linejoin="round" d="M 185.114 350.361 C 185.114 350.368 183.107 426.080 183.107 426.088 C 172.926 419.879 152.568 407.463 152.565 407.461 C 142.283 401.580 121.722 389.819 121.719 389.818 C 121.719 389.817 121.237 313.408 121.237 313.401 C 121.243 313.404 185.108 350.357 185.114 350.361 Z"/>
<path fill="none" stroke="#000000" stroke-width="1" stroke-linecap="butt" stroke-linejoin="round" d="M 121.237 313.401 C 121.237 313.408 121.719 389.817 121.719 389.818 "/>
<path fill="none" stroke="#000000" stroke-width="1" stroke-linecap="butt" stroke-linejoin="round" d="M 121.719 389.818 C 121.409 413.235 120.790 460.063 120.789 460.070 "/>
<path fill="#000000" fill-rule="evenodd" stroke="#ffffff" stroke-width="4" stroke-linejoin="round" d="M 121.237 313.401 C 121.237 313.408 121.719 389.817 121.719 389.818 C 121.409 413.235 120.790 460.063 120.789 460.070 C 120.786 460.068 87.538 441.137 87.535 441.135 C 87.535 441.113 89.047 219.849 89.047 219.826 C 89.051 219.828 110.567 231.927 121.327 237.977 C 121.327 237.984 121.237 313.393 121.237 313.401 Z"/>
<path fill="none" stroke="#000000" stroke-width="1" stroke-linecap="butt" stroke-linejoin="round" d="M 405.025 583.042 C 405.029 583.045 440.456 604.449 440.459 604.451 "/>
<path fill="#000000" fill-rule="evenodd" stroke="#ffffff" stroke-width="4" stroke-linejoin="round" d="M 405.033 624.028 C 405.033 624.024 405.028 596.704 405.025 583.042 C 405.029 583.045 440.456 604.449 440.459 604.451 C 440.459 604.456 440.426 646.575 440.426 646.579 C 440.422 646.577 405.036 624.030 405.033 624.028 Z"/>
<path fill="#000000" fill-rule="evenodd" stroke="#ffffff" stroke-width="4" stroke-linejoin="round" d="M 631.304 500.747 C 631.304 500.746 631.273 496.225 631.258 493.964 C 631.261 493.962 664.941 474.274 664.944 474.272 C 664.945 488.773 664.945 517.769 664.945 517.773 C 653.732 512.098 631.307 500.749 631.304 500.747 Z"/>
<path fill="none" stroke="#ffffff" stroke-width="1" stroke-linecap="butt" stroke-linejoin="round" d="M 440.459 604.451 C 440.459 604.441 440.325 532.794 440.258 496.965 "/>
<path fill="none" stroke="#ffffff" stroke-width="1" stroke-linecap="butt" stroke-linejoin="round" d="M 440.258 496.965 C 440.284 496.951 610.164 400.536 695.116 352.322 "/>
<path fill="none" stroke="#ffffff" stroke-width="1" stroke-linecap="butt" stroke-linejoin="round" d="M 664.944 474.272 C 664.941 474.274 631.261 493.962 631.258 493.964 "/>
<path fill="#ffffff" fill-rule="evenodd" stroke="#000000" stroke-width="4" stroke-linejoin="round" d="M 440.459 604.451 C 440.459 604.441 440.325 532.794 440.258 496.965 C 440.284 496.951 610.164 400.536 695.116 352.322 C 695.116 352.332 694.507 455.195 694.507 455.205 C 694.504 455.207 664.947 474.270 664.944 474.272 C 664.941 474.274 631.261 493.962 631.258 493.964 C 631.242 493.973 477.091 584.121 477.076 584.130 C 477.072 584.132 440.463 604.449 440.459 604.451 Z"/>
<path fill="none" stroke="#ffffff" stroke-width="1" stroke-linecap="butt" stroke-linejoin="round" d="M 440.426 646.579 C 440.426 646.575 440.459 604.456 440.459 604.451 "/>
<path fill="none" stroke="#ffffff" stroke-width="1" stroke-linecap="butt" stroke-linejoin="round" d="M 440.459 604.451 C 440.463 604.449 477.072 584.132 477.076 584.130 "/>
<path fill="#ffffff" fill-rule="evenodd" stroke="#000000" stroke-width="4" stroke-linejoin="round" d="M 477.076 584.130 C 477.057 597.924 477.018 625.508 477.018 625.512 C 477.015 625.514 452.623 639.557 440.426 646.579 C 440.426 646.575 440.459 604.456 440.459 604.451 C 440.463 604.449 477.072 584.132 477.076 584.130 Z"/>
<path fill="none" stroke="#ffffff" stroke-width="1" stroke-linecap="butt" stroke-linejoin="round" d="M 664.945 517.773 C 664.945 517.769 664.945 488.773 664.944 474.272 "/>
<path fill="none" stroke="#ffffff" stroke-width="1" stroke-linecap="butt" stroke-linejoin="round" d="M 664.944 474.272 C 664.947 474.270 694.504 455.207 694.507 455.205 "/>
<path fill="#ffffff" fill-rule="evenodd" stroke="#000000" stroke-width="4" stroke-linejoin="round" d="M 664.945 517.773 C 664.945 517.769 664.945 488.773 664.944 474.272 C 664.947 474.270 694.504 455.207 694.507 455.205 C 694.556 469.604 694.655 498.397 694.655 498.401 C 694.652 498.403 664.948 517.771 664.945 517.773 Z"/>
<path fill="none" stroke="#ffffff" stroke-width="1" stroke-linecap="butt" stroke-linejoin="round" d="M 121.327 237.977 C 110.567 231.927 89.051 219.828 89.047 219.826 "/>
<path fill="#ffffff" fill-rule="evenodd" stroke="#000000" stroke-width="4" stroke-linejoin="round" d="M 376.927 90.121 C 376.902 90.135 121.353 237.962 121.327 237.977 C 110.567 231.927 89.051 219.828 89.047 219.826 C 173.324 171.132 341.851 73.758 341.876 73.744 C 341.880 73.745 365.244 84.662 376.927 90.121 Z"/>
<path fill="none" stroke="#ffffff" stroke-width="1" stroke-linecap="butt" stroke-linejoin="round" d="M 121.327 237.977 C 121.327 237.984 121.237 313.393 121.237 313.401 "/>
<path fill="none" stroke="#ffffff" stroke-width="1" stroke-linecap="butt" stroke-linejoin="round" d="M 121.237 313.401 C 121.262 313.386 376.507 165.628 376.533 165.613 "/>
<path fill="none" stroke="#ffffff" stroke-width="1" stroke-linecap="butt" stroke-linejoin="round" d="M 376.927 90.121 C 376.902 90.135 121.353 237.962 121.327 237.977 "/>
<path fill="#ffffff" fill-rule="evenodd" stroke="#000000" stroke-width="4" stroke-linejoin="round" d="M 121.327 237.977 C 121.327 237.984 121.237 313.393 121.237 313.401 C 121.262 313.386 376.507 165.628 376.533 165.613 C 376.664 140.449 376.927 90.128 376.927 90.121 C 376.902 90.135 121.353 237.962 121.327 237.977 Z"/>
<path fill="none" stroke="#000000" stroke-width="1" stroke-linecap="butt" stroke-linejoin="round" d="M 246.952 492.631 C 247.511 457.458 248.629 387.123 248.630 387.112 "/>
<path fill="none" stroke="#000000" stroke-width="1" stroke-linecap="butt" stroke-linejoin="round" d="M 248.630 387.112 C 248.623 387.109 185.120 350.364 185.114 350.361 "/>
<path fill="none" stroke="#000000" stroke-width="1" stroke-linecap="butt" stroke-linejoin="round" d="M 185.114 350.361 C 185.114 350.368 183.107 426.080 183.107 426.088 "/>
<path fill="#000000" fill-rule="evenodd" stroke="#ffffff" stroke-width="4" stroke-linejoin="round" d="M 246.952 492.631 C 247.511 457.458 248.629 387.123 248.630 387.112 C 248.623 387.109 185.120 350.364 185.114 350.361 C 185.114 350.368 183.107 426.080 183.107 426.088 C 183.107 426.091 182.463 446.270 182.142 456.362 C 203.745 468.451 246.945 492.627 246.952 492.631 Z"/>
<path fill="#ffffff" fill-rule="evenodd" stroke="#000000" stroke-width="4" stroke-linejoin="round" d="M 258.057 215.918 C 259.478 201.060 364.249 147.665 375.921 150.116 C 405.685 156.368 434.511 172.859 450.201 206.678 C 455.517 218.136 340.702 281.146 327.050 279.279 C 318.105 278.055 256.983 227.152 258.057 215.918 Z"/>
<path fill="#000000" fill-rule="evenodd" stroke="#000000" stroke-width="4" stroke-linejoin="round" d="M 258.057 215.918 C 292.051 221.297 323.666 263.716 327.050 279.279 C 318.105 278.055 257.185 227.170 258.057 215.918 Z"/>
<path fill="#ffffff" fill-rule="evenodd" stroke="#000000" stroke-width="4" stroke-linejoin="round" d="M 127.354 293.306 C 124.995 277.676 237.876 220.555 250.505 220.705 C 281.368 221.072 319.258 259.935 319.498 284.066 C 319.616 295.838 220.486 353.074 205.412 352.889 C 187.172 352.666 130.551 314.484 127.354 293.306 Z"/>
<path fill="#000000" fill-rule="evenodd" stroke="#000000" stroke-width="4" stroke-linejoin="round" d="M 127.354 293.306 C 160.983 295.860 199.216 334.709 202.390 353.645 C 193.151 352.770 126.840 304.895 127.354 293.306 Z"/>
</g>
<g id="specs_2">
<path fill="#0000ff" fill-rule="evenodd" stroke="none" d="M 220.668 130.821 C 220.668 130.823 227.138 148.939 227.139 148.941 C 227.138 148.941 220.668 142.921 220.668 142.920 C 220.667 142.921 214.197 148.941 214.197 148.941 C 214.197 148.939 220.667 130.823 220.668 130.821 Z"/>
<path fill="#00ff00" fill-rule="evenodd" stroke="none" d="M 76.256 354.163 C 76.258 354.162 94.341 347.600 94.343 347.599 C 94.342 347.600 88.355 354.101 88.355 354.102 C 88.355 354.102 94.408 360.541 94.408 360.542 C 94.406 360.541 76.258 354.163 76.256 354.163 Z"/>
<path fill="#ffff00" fill-rule="evenodd" stroke="none" d="M 582.943 536.525 C 582.943 536.523 579.332 517.628 579.332 517.626 C 579.332 517.627 576.808 526.097 576.808 526.098 C 576.807 526.098 568.178 524.190 568.177 524.190 C 568.178 524.191 582.942 536.524 582.943 536.525 Z"/>
<path fill="#00ff00" fill-rule="evenodd" stroke="none" d="M 705.272 354.163 C 705.270 354.162 687.187 347.600 687.185 347.599 C 687.186 347.600 693.173 354.101 693.174 354.102 C 693.173 354.102 687.121 360.541 687.120 360.542 C 687.122 360.541 705.270 354.163 705.272 354.163 Z"/>
<path fill="#00ffff" fill-rule="evenodd" stroke="none" d="M 339.416 64.518 C 339.417 64.520 347.698 81.883 347.699 81.884 C 347.698 81.884 340.648 76.554 340.648 76.554 C 340.647 76.554 334.823 83.201 334.823 83.202 C 334.823 83.200 339.415 64.520 339.416 64.518 Z"/>
<path fill="#00ffff" fill-rule="evenodd" stroke="none" d="M 95.210 207.417 C 95.209 207.419 88.104 225.296 88.104 225.298 C 88.104 225.297 94.783 219.509 94.783 219.508 C 94.784 219.509 101.037 225.753 101.038 225.754 C 101.037 225.752 95.211 207.419 95.210 207.417 Z"/>
<path fill="#be0027" fill-rule="evenodd" stroke="none" d="M 440.726 663.756 C 440.727 663.753 451.866 632.566 451.867 632.563 C 451.866 632.564 440.727 642.927 440.726 642.928 C 440.725 642.927 429.587 632.564 429.586 632.563 C 429.587 632.566 440.725 663.753 440.726 663.756 Z"/>
<path fill="#ffff00" fill-rule="evenodd" stroke="none" d="M 241.457 501.720 C 241.458 501.718 245.068 482.823 245.068 482.821 C 245.069 482.822 247.592 491.292 247.593 491.292 C 247.593 491.292 256.223 489.385 256.224 489.385 C 256.222 489.386 241.459 501.719 241.457 501.720 Z"/>
<path fill="#ff0000" fill-rule="evenodd" stroke="none" d="M 60.200 322.356 C 60.197 322.355 29.010 311.217 29.007 311.215 C 29.008 311.217 39.371 322.355 39.372 322.356 C 39.371 322.357 29.008 333.495 29.007 333.496 C 29.010 333.495 60.197 322.357 60.200 322.356 Z"/>
<path fill="#ff00ff" fill-rule="evenodd" stroke="none" d="M 299.127 413.318 C 299.155 413.318 584.299 413.318 584.327 413.318 C 584.327 413.290 584.327 128.147 584.327 128.118 C 584.299 128.118 299.155 128.118 299.127 128.118 C 299.127 128.147 299.127 413.290 299.127 413.318 Z"/>
</g>
</g>
</svg>
