<?xml version="1.0" encoding="utf-8"?>
<!-- Generator: Moho 12.5 build 22414 -->
<!DOCTYPE svg PUBLIC "-//W3C//DTD SVG 1.1//EN" "http://www.w3.org/Graphics/SVG/1.1/DTD/svg11.dtd">
<svg version="1.1" id="Frame_0" xmlns="http://www.w3.org/2000/svg" xmlns:xlink="http://www.w3.org/1999/xlink" width="720px" height="720px">
<g id="bed">
<g id="bed">
<path fill="#000000" fill-rule="evenodd" stroke="#ffffff" stroke-width="4" stroke-linejoin="round" d="M 93.886 451.005 C 93.886 451.002 93.536 412.971 93.536 412.968 C 82.061 406.404 59.115 393.279 59.111 393.277 C 58.765 419.412 58.074 471.673 58.074 471.681 C 70.011 464.789 93.882 451.007 93.886 451.005 Z"/>
<path fill="#ffffff" fill-rule="evenodd" stroke="#000000" stroke-width="4" stroke-linejoin="round" d="M 413.355 183.039 C 318.857 238.440 129.890 349.226 129.862 349.242 C 129.854 349.238 58.580 307.998 58.573 307.994 C 58.601 307.977 343.463 143.075 343.491 143.059 C 343.498 143.063 413.348 183.035 413.355 183.039 Z"/>
<path fill="none" stroke="#ffffff" stroke-width="1" stroke-linecap="butt" stroke-linejoin="round" d="M 413.355 183.039 C 318.857 238.440 129.890 349.226 129.862 349.242 "/>
<path fill="#ffffff" fill-rule="evenodd" stroke="#000000" stroke-width="4" stroke-linejoin="round" d="M 200.747 390.258 C 200.776 390.242 390.998 281.161 486.123 226.612 C 486.115 226.608 413.362 183.043 413.355 183.039 C 318.857 238.440 129.890 349.226 129.862 349.242 C 129.869 349.246 200.740 390.254 200.747 390.258 Z"/>
<path fill="none" stroke="#ffffff" stroke-width="1" stroke-linecap="butt" stroke-linejoin="round" d="M 200.747 390.258 C 200.776 390.242 390.998 281.161 486.123 226.612 "/>
<path fill="#ffffff" fill-rule="evenodd" stroke="#000000" stroke-width="4" stroke-linejoin="round" d="M 486.123 226.612 C 486.144 226.625 699.018 351.418 699.040 351.431 C 604.230 405.240 414.638 512.842 414.610 512.858 C 414.589 512.845 200.769 390.270 200.747 390.258 C 200.776 390.242 390.998 281.161 486.123 226.612 Z"/>
<path fill="none" stroke="#000000" stroke-width="1" stroke-linecap="butt" stroke-linejoin="round" d="M 414.610 512.858 C 414.589 512.845 200.769 390.270 200.747 390.258 "/>
<path fill="#000000" fill-rule="evenodd" stroke="#ffffff" stroke-width="4" stroke-linejoin="round" d="M 375.289 608.922 C 375.293 608.924 414.831 632.813 414.835 632.815 C 414.835 632.803 414.685 552.844 414.610 512.858 C 414.589 512.845 200.769 390.270 200.747 390.258 C 200.747 390.270 199.499 468.766 198.875 508.020 C 198.892 508.030 375.272 608.912 375.289 608.922 Z"/>
<path fill="none" stroke="#000000" stroke-width="1" stroke-linecap="butt" stroke-linejoin="round" d="M 93.536 412.968 C 82.061 406.404 59.115 393.279 59.111 393.277 "/>
<path fill="none" stroke="#000000" stroke-width="1" stroke-linecap="butt" stroke-linejoin="round" d="M 58.573 307.994 C 58.580 307.998 129.854 349.238 129.862 349.242 "/>
<path fill="#000000" fill-rule="evenodd" stroke="#ffffff" stroke-width="4" stroke-linejoin="round" d="M 129.862 349.242 C 129.861 349.251 127.621 433.748 127.621 433.756 C 116.260 426.827 93.540 412.970 93.536 412.968 C 82.061 406.404 59.115 393.279 59.111 393.277 C 59.111 393.276 58.573 308.001 58.573 307.994 C 58.580 307.998 129.854 349.238 129.862 349.242 Z"/>
<path fill="none" stroke="#000000" stroke-width="1" stroke-linecap="butt" stroke-linejoin="round" d="M 58.573 307.994 C 58.573 308.001 59.111 393.276 59.111 393.277 "/>
<path fill="none" stroke="#000000" stroke-width="1" stroke-linecap="butt" stroke-linejoin="round" d="M 59.111 393.277 C 58.765 419.412 58.074 471.673 58.074 471.681 "/>
<path fill="#000000" fill-rule="evenodd" stroke="#ffffff" stroke-width="4" stroke-linejoin="round" d="M 58.573 307.994 C 58.573 308.001 59.111 393.276 59.111 393.277 C 58.765 419.412 58.074 471.673 58.074 471.681 C 58.070 471.679 20.964 450.551 20.961 450.549 C 20.961 450.524 22.648 203.587 22.648 203.562 C 22.652 203.564 46.665 217.066 58.674 223.818 C 58.674 223.827 58.573 307.985 58.573 307.994 Z"/>
<path fill="none" stroke="#000000" stroke-width="1" stroke-linecap="butt" stroke-linejoin="round" d="M 375.289 608.922 C 375.293 608.924 414.831 632.813 414.835 632.815 "/>
<path fill="#000000" fill-rule="evenodd" stroke="#ffffff" stroke-width="4" stroke-linejoin="round" d="M 375.298 654.663 C 375.298 654.658 375.292 624.169 375.289 608.922 C 375.293 608.924 414.831 632.813 414.835 632.815 C 414.835 632.820 414.797 679.827 414.797 679.831 C 414.793 679.829 375.302 654.665 375.298 654.663 Z"/>
<path fill="#000000" fill-rule="evenodd" stroke="#ffffff" stroke-width="4" stroke-linejoin="round" d="M 627.823 517.078 C 627.823 517.077 627.789 512.031 627.771 509.508 C 627.775 509.506 665.363 487.534 665.367 487.531 C 665.367 503.714 665.368 536.075 665.368 536.080 C 652.853 529.746 627.827 517.079 627.823 517.078 Z"/>
<path fill="none" stroke="#000000" stroke-width="1" stroke-linecap="butt" stroke-linejoin="round" d="M 414.835 632.815 C 414.835 632.803 414.685 552.844 414.610 512.858 "/>
<path fill="none" stroke="#000000" stroke-width="1" stroke-linecap="butt" stroke-linejoin="round" d="M 414.610 512.858 C 414.638 512.842 604.230 405.240 699.040 351.431 "/>
<path fill="none" stroke="#000000" stroke-width="1" stroke-linecap="butt" stroke-linejoin="round" d="M 665.367 487.531 C 665.363 487.534 627.775 509.506 627.771 509.508 "/>
<path fill="#000000" fill-rule="evenodd" stroke="#ffffff" stroke-width="4" stroke-linejoin="round" d="M 414.835 632.815 C 414.835 632.803 414.685 552.844 414.610 512.858 C 414.638 512.842 604.230 405.240 699.040 351.431 C 699.039 351.442 698.360 466.240 698.360 466.252 C 698.356 466.254 665.370 487.529 665.367 487.531 C 665.363 487.534 627.775 509.506 627.771 509.508 C 627.754 509.518 455.717 610.126 455.700 610.136 C 455.696 610.138 414.839 632.813 414.835 632.815 Z"/>
<path fill="none" stroke="#000000" stroke-width="1" stroke-linecap="butt" stroke-linejoin="round" d="M 414.797 679.831 C 414.797 679.827 414.835 632.820 414.835 632.815 "/>
<path fill="none" stroke="#000000" stroke-width="1" stroke-linecap="butt" stroke-linejoin="round" d="M 414.835 632.815 C 414.839 632.813 455.696 610.138 455.700 610.136 "/>
<path fill="#000000" fill-rule="evenodd" stroke="#ffffff" stroke-width="4" stroke-linejoin="round" d="M 455.700 610.136 C 455.679 625.530 455.635 656.315 455.635 656.319 C 455.631 656.322 428.410 671.994 414.797 679.831 C 414.797 679.827 414.835 632.820 414.835 632.815 C 414.839 632.813 455.696 610.138 455.700 610.136 Z"/>
<path fill="none" stroke="#000000" stroke-width="1" stroke-linecap="butt" stroke-linejoin="round" d="M 665.368 536.080 C 665.368 536.075 665.367 503.714 665.367 487.531 "/>
<path fill="none" stroke="#000000" stroke-width="1" stroke-linecap="butt" stroke-linejoin="round" d="M 665.367 487.531 C 665.370 487.529 698.356 466.254 698.360 466.252 "/>
<path fill="#000000" fill-rule="evenodd" stroke="#ffffff" stroke-width="4" stroke-linejoin="round" d="M 665.368 536.080 C 665.368 536.075 665.367 503.714 665.367 487.531 C 665.370 487.529 698.356 466.254 698.360 466.252 C 698.415 482.321 698.525 514.455 698.525 514.460 C 698.522 514.462 665.371 536.077 665.368 536.080 Z"/>
<path fill="none" stroke="#ffffff" stroke-width="1" stroke-linecap="butt" stroke-linejoin="round" d="M 58.674 223.818 C 46.665 217.066 22.652 203.564 22.648 203.562 "/>
<path fill="#ffffff" fill-rule="evenodd" stroke="#000000" stroke-width="4" stroke-linejoin="round" d="M 343.931 58.806 C 343.903 58.823 58.702 223.802 58.674 223.818 C 46.665 217.066 22.652 203.564 22.648 203.562 C 116.703 149.218 304.785 40.546 304.813 40.529 C 304.817 40.531 330.892 52.714 343.931 58.806 Z"/>
<path fill="none" stroke="#000000" stroke-width="1" stroke-linecap="butt" stroke-linejoin="round" d="M 58.674 223.818 C 58.674 223.827 58.573 307.985 58.573 307.994 "/>
<path fill="none" stroke="#000000" stroke-width="1" stroke-linecap="butt" stroke-linejoin="round" d="M 58.573 307.994 C 58.601 307.977 343.463 143.075 343.491 143.059 "/>
<path fill="none" stroke="#000000" stroke-width="1" stroke-linecap="butt" stroke-linejoin="round" d="M 343.931 58.806 C 343.903 58.823 58.702 223.802 58.674 223.818 "/>
<path fill="#000000" fill-rule="evenodd" stroke="#ffffff" stroke-width="4" stroke-linejoin="round" d="M 58.674 223.818 C 58.674 223.827 58.573 307.985 58.573 307.994 C 58.601 307.977 343.463 143.075 343.491 143.059 C 343.638 114.975 343.931 58.815 343.931 58.806 C 343.903 58.823 58.702 223.802 58.674 223.818 Z"/>
<path fill="none" stroke="#ffffff" stroke-width="1" stroke-linecap="butt" stroke-linejoin="round" d="M 198.875 508.020 C 199.499 468.766 200.747 390.270 200.747 390.258 "/>
<path fill="none" stroke="#ffffff" stroke-width="1" stroke-linecap="butt" stroke-linejoin="round" d="M 200.747 390.258 C 200.740 390.254 129.869 349.246 129.862 349.242 "/>
<path fill="none" stroke="#ffffff" stroke-width="1" stroke-linecap="butt" stroke-linejoin="round" d="M 129.862 349.242 C 129.861 349.251 127.621 433.748 127.621 433.756 "/>
<path fill="#ffffff" fill-rule="evenodd" stroke="#000000" stroke-width="4" stroke-linejoin="round" d="M 198.875 508.020 C 199.499 468.766 200.747 390.270 200.747 390.258 C 200.740 390.254 129.869 349.246 129.862 349.242 C 129.861 349.251 127.621 433.748 127.621 433.756 C 127.621 433.759 126.904 456.280 126.545 467.542 C 150.655 481.035 198.867 508.016 198.875 508.020 Z"/>
<path fill="#ffffff" fill-rule="evenodd" stroke="#000000" stroke-width="4" stroke-linejoin="round" d="M 211.269 199.200 C 212.632 181.612 334.743 116.265 348.709 118.176 C 357.861 119.428 426.159 179.663 425.707 188.888 C 425.018 202.968 303.502 271.997 288.266 269.912 C 278.283 268.547 210.295 211.758 211.269 199.200 Z"/>
<path fill="#000000" fill-rule="evenodd" stroke="none" d="M 211.269 199.200 C 241.619 207.733 284.490 252.544 288.266 269.912 C 278.283 268.547 210.295 211.758 211.269 199.200 Z"/>
<path fill="#ffffff" fill-rule="evenodd" stroke="#000000" stroke-width="4" stroke-linejoin="round" d="M 65.400 285.567 C 66.764 267.979 188.874 202.632 202.841 204.543 C 211.992 205.795 280.291 266.030 279.839 275.256 C 279.149 289.335 157.634 358.364 142.398 356.280 C 132.415 354.914 64.426 298.125 65.400 285.567 Z"/>
<path fill="#000000" fill-rule="evenodd" stroke="none" d="M 65.400 285.567 C 95.750 294.100 138.621 338.912 142.398 356.280 C 132.415 354.914 64.426 298.125 65.400 285.567 Z"/>
</g>
<g id="specs_2">
<path fill="#ff00ff" fill-rule="evenodd" stroke="none" d="M 189.422 354.081 C 189.462 354.081 592.379 354.081 592.420 354.081 C 592.420 354.046 592.420 6.491 592.420 6.457 C 592.379 6.457 189.462 6.457 189.422 6.457 C 189.422 6.491 189.422 354.046 189.422 354.081 Z"/>
<path fill="#0000ff" fill-rule="evenodd" stroke="none" d="M 169.541 104.230 C 169.542 104.232 176.762 124.450 176.763 124.452 C 176.762 124.451 169.542 117.733 169.541 117.733 C 169.540 117.733 162.320 124.451 162.319 124.452 C 162.320 124.450 169.540 104.232 169.541 104.230 Z"/>
<path fill="#00ff00" fill-rule="evenodd" stroke="none" d="M 8.373 353.485 C 8.375 353.485 28.557 346.161 28.559 346.161 C 28.558 346.161 21.876 353.416 21.876 353.417 C 21.876 353.418 28.631 360.604 28.631 360.605 C 28.629 360.604 8.375 353.486 8.373 353.485 Z"/>
<path fill="#ffff00" fill-rule="evenodd" stroke="none" d="M 573.851 557.007 C 573.851 557.005 569.821 535.918 569.821 535.916 C 569.821 535.917 567.004 545.369 567.004 545.370 C 567.003 545.370 557.372 543.241 557.371 543.241 C 557.373 543.243 573.849 557.006 573.851 557.007 Z"/>
<path fill="#00ff00" fill-rule="evenodd" stroke="none" d="M 710.374 353.485 C 710.372 353.485 690.190 346.161 690.188 346.161 C 690.189 346.161 696.871 353.416 696.871 353.417 C 696.871 353.418 690.116 360.604 690.116 360.605 C 690.118 360.604 710.372 353.486 710.374 353.485 Z"/>
<path fill="#00ffff" fill-rule="evenodd" stroke="none" d="M 302.067 30.233 C 302.068 30.235 311.310 49.613 311.311 49.615 C 311.310 49.614 303.443 43.666 303.442 43.665 C 303.441 43.666 296.942 51.085 296.941 51.085 C 296.942 51.083 302.067 30.235 302.067 30.233 Z"/>
<path fill="#00ffff" fill-rule="evenodd" stroke="none" d="M 29.526 189.713 C 29.525 189.715 21.596 209.666 21.595 209.668 C 21.596 209.668 29.049 203.208 29.050 203.207 C 29.051 203.208 36.030 210.176 36.030 210.177 C 36.030 210.175 29.527 189.715 29.526 189.713 Z"/>
<path fill="#be0027" fill-rule="evenodd" stroke="none" d="M 415.133 699.001 C 415.134 698.998 427.564 664.192 427.566 664.188 C 427.564 664.189 415.134 675.755 415.133 675.756 C 415.132 675.755 402.701 664.189 402.700 664.188 C 402.701 664.192 415.132 698.998 415.133 699.001 Z"/>
<path fill="#ffff00" fill-rule="evenodd" stroke="none" d="M 192.743 518.164 C 192.743 518.162 196.772 497.074 196.773 497.072 C 196.773 497.073 199.589 506.525 199.590 506.526 C 199.591 506.526 209.221 504.398 209.222 504.397 C 209.221 504.399 192.744 518.162 192.743 518.164 Z"/>
<path fill="#ff0000" fill-rule="evenodd" stroke="none" d="M 126.870 101.484 C 126.870 101.481 120.232 65.123 120.231 65.119 C 120.231 65.121 115.249 81.352 115.248 81.354 C 115.246 81.354 98.698 77.552 98.697 77.552 C 98.700 77.554 126.868 101.482 126.870 101.484 Z"/>
</g>
</g>
</svg>
