<?xml version="1.0" encoding="utf-8"?>
<!-- Generator: Moho 12.5 build 22414 -->
<!DOCTYPE svg PUBLIC "-//W3C//DTD SVG 1.1//EN" "http://www.w3.org/Graphics/SVG/1.1/DTD/svg11.dtd">
<svg version="1.1" id="Frame_0" xmlns="http://www.w3.org/2000/svg" xmlns:xlink="http://www.w3.org/1999/xlink" width="720px" height="720px">
<g id="bicycle">
<g id="bicycle_2">
<path fill="#ffffff" fill-rule="evenodd" stroke="#000000" stroke-width="4" stroke-linecap="round" stroke-linejoin="round" d="M 50.891 424.217 C 50.891 363.169 100.138 313.922 161.186 313.921 C 222.234 313.921 271.482 363.169 271.482 424.217 C 271.482 485.264 222.234 534.512 161.186 534.511 C 100.139 534.511 50.891 485.264 50.891 424.217 M 448.596 424.217 C 448.596 363.401 497.656 314.340 558.472 314.340 C 619.288 314.340 668.349 363.401 668.349 424.217 C 668.349 485.033 619.288 534.093 558.472 534.093 C 497.656 534.092 448.596 485.032 448.596 424.217 M 29.213 424.217 C 29.213 350.981 88.293 291.902 161.528 291.902 C 234.763 291.902 293.842 350.982 293.842 424.217 C 293.842 497.452 234.763 556.531 161.528 556.531 C 88.293 556.531 29.213 497.452 29.213 424.217 M 426.158 424.217 C 426.158 350.982 485.237 291.902 558.472 291.902 C 631.707 291.902 690.787 350.981 690.787 424.217 C 690.787 497.452 631.707 556.531 558.472 556.531 C 485.237 556.531 426.158 497.452 426.158 424.217 Z"/>
<path fill="#ffffff" fill-rule="evenodd" stroke="#000000" stroke-width="4" stroke-linecap="round" stroke-linejoin="round" d="M 353.687 399.930 C 356.651 398.969 363.317 399.739 363.318 399.739 C 396.547 349.500 462.996 249.037 463.006 249.022 C 462.985 249.022 324.317 249.216 254.972 249.313 C 254.982 249.328 320.874 349.866 353.687 399.930 M 481.332 231.989 C 481.332 231.981 460.770 180.763 450.489 155.151 C 450.490 155.150 458.766 153.730 458.457 147.233 C 458.070 139.082 448.647 137.920 448.646 137.920 C 448.637 137.920 360.313 138.522 360.304 138.522 C 360.303 138.523 356.426 142.549 356.366 146.900 C 356.301 151.499 360.325 155.848 360.326 155.849 C 360.333 155.849 432.133 155.530 432.140 155.530 C 432.143 155.538 462.938 231.981 462.941 231.989 C 462.919 231.989 244.025 231.989 244.003 231.989 C 244.001 231.985 216.526 190.304 216.523 190.300 C 216.528 190.300 266.642 190.670 270.278 184.742 C 277.931 172.266 190.355 165.232 157.592 169.212 C 146.512 170.558 145.182 195.369 166.645 191.025 C 166.648 191.024 195.876 189.935 195.879 189.935 C 208.743 209.890 221.608 229.846 234.473 249.801 C 234.465 249.819 161.535 423.371 161.528 423.387 C 216.691 424.889 294.613 423.825 361.156 424.044 C 361.157 424.045 382.628 408.733 379.005 406.767 C 411.407 358.002 476.240 260.428 476.249 260.413 C 476.257 260.430 548.447 425.709 548.454 425.726 C 548.456 425.725 559.539 423.932 565.109 422.558 C 565.099 422.539 481.345 232.003 481.332 231.989 M 338.566 408.304 C 338.566 408.305 185.936 408.305 185.920 408.304 C 185.927 408.290 246.475 265.628 246.481 265.614 C 246.490 265.628 338.557 408.290 338.566 408.304 Z"/>
<path fill="#ffffff" fill-rule="evenodd" stroke="#000000" stroke-width="4" stroke-linecap="round" stroke-linejoin="round" d="M 324.440 424.216 C 324.440 403.914 340.817 387.537 361.119 387.536 C 381.421 387.536 397.799 403.914 397.799 424.216 C 397.799 444.519 381.421 460.896 361.119 460.896 C 340.817 460.896 324.440 444.518 324.440 424.216 M 137.247 424.216 C 137.247 410.966 147.936 400.277 161.186 400.277 C 174.437 400.277 185.126 410.966 185.126 424.216 C 185.126 437.467 174.437 448.156 161.186 448.156 C 147.936 448.156 137.247 437.467 137.247 424.216 M 536.533 424.216 C 536.533 412.073 546.329 402.276 558.472 402.276 C 570.616 402.276 580.412 412.073 580.412 424.216 C 580.412 436.360 570.616 446.157 558.472 446.157 C 546.329 446.156 536.533 436.360 536.533 424.216 Z"/>
</g>
<g id="specs_2">
<path fill="#ff00ff" fill-rule="evenodd" stroke="none" d="M 81.737 177.958 C 81.762 177.958 328.824 177.958 328.849 177.958 C 328.849 177.943 328.849 20.439 328.849 20.423 C 328.824 20.423 81.762 20.423 81.737 20.423 C 81.737 20.439 81.737 177.943 81.737 177.958 Z"/>
<path fill="#ff0000" fill-rule="evenodd" stroke="none" d="M 360.000 564.815 C 360.001 564.819 372.432 599.625 372.433 599.628 C 372.432 599.627 360.001 588.061 360.000 588.060 C 359.999 588.061 347.568 599.627 347.567 599.628 C 347.568 599.625 359.999 564.819 360.000 564.815 Z"/>
<path fill="#0000ff" fill-rule="evenodd" stroke="none" d="M 360.000 176.225 C 360.001 176.227 367.221 196.445 367.222 196.447 C 367.221 196.446 360.001 189.728 360.000 189.727 C 359.999 189.728 352.779 196.446 352.778 196.447 C 352.779 196.445 359.999 176.227 360.000 176.225 Z"/>
<path fill="#00ff00" fill-rule="evenodd" stroke="none" d="M 15.614 418.247 C 15.616 418.246 35.969 410.923 35.971 410.922 C 35.970 410.923 29.232 418.178 29.231 418.179 C 29.232 418.179 36.043 425.366 36.044 425.367 C 36.042 425.366 15.616 418.247 15.614 418.247 Z"/>
<path fill="#ffff00" fill-rule="evenodd" stroke="none" d="M 92.673 550.407 C 92.674 550.405 102.586 530.896 102.587 530.894 C 102.587 530.895 103.108 540.747 103.108 540.748 C 103.109 540.748 114.014 540.987 114.015 540.987 C 114.013 540.988 92.676 550.406 92.673 550.407 Z"/>
<path fill="#ffff00" fill-rule="evenodd" stroke="none" d="M 628.652 550.168 C 628.651 550.166 618.310 530.840 618.309 530.839 C 618.308 530.839 618.005 540.699 618.005 540.700 C 618.004 540.700 607.106 541.136 607.105 541.137 C 607.107 541.137 628.650 550.167 628.652 550.168 Z"/>
<path fill="#00ff00" fill-rule="evenodd" stroke="none" d="M 704.615 418.247 C 704.613 418.246 684.260 410.923 684.258 410.922 C 684.259 410.923 690.997 418.178 690.998 418.179 C 690.997 418.179 684.185 425.366 684.184 425.367 C 684.186 425.366 704.613 418.247 704.615 418.247 Z"/>
<path fill="#00ffff" fill-rule="evenodd" stroke="none" d="M 550.501 151.039 C 550.500 151.040 544.597 167.708 544.597 167.709 C 544.597 167.709 543.479 159.663 543.479 159.662 C 543.478 159.662 535.373 160.197 535.372 160.197 C 535.374 160.196 550.499 151.040 550.501 151.039 Z"/>
<path fill="#00ffff" fill-rule="evenodd" stroke="none" d="M 145.552 163.205 C 145.553 163.207 152.554 179.444 152.555 179.446 C 152.555 179.445 153.134 171.342 153.134 171.341 C 153.135 171.341 161.257 171.335 161.258 171.335 C 161.257 171.334 145.554 163.206 145.552 163.205 Z"/>
<path fill="#be0027" fill-rule="evenodd" stroke="none" d="M 363.318 481.924 C 363.320 481.921 375.750 447.115 375.751 447.111 C 375.750 447.113 363.320 458.678 363.318 458.680 C 363.317 458.678 350.887 447.113 350.885 447.111 C 350.887 447.115 363.317 481.921 363.318 481.924 Z"/>
</g>
</g>
</svg>
