<?xml version="1.0" encoding="utf-8"?>
<!-- Generator: Moho 13.0.3 build 635 -->
<!DOCTYPE svg PUBLIC "-//W3C//DTD SVG 1.1//EN" "http://www.w3.org/Graphics/SVG/1.1/DTD/svg11.dtd">
<svg version="1.1" id="Frame_0" xmlns="http://www.w3.org/2000/svg" xmlns:xlink="http://www.w3.org/1999/xlink" width="1280px" height="720px">
<g id="bicycle">
<path fill="none" stroke="#000000" stroke-width="9" stroke-linecap="round" stroke-linejoin="round" d="M 906.764 120.315 C 906.770 120.309 972.940 128.890 962.517 57.768 C 955.251 8.187 789.768 26.208 789.753 26.208 C 789.758 26.220 837.820 153.076 837.824 153.089 C 837.837 153.120 965.810 467.267 965.823 467.298 M 837.824 153.089 C 837.807 153.116 723.086 335.330 665.752 426.395 C 679.234 434.690 688.356 449.901 688.355 467.298 C 688.355 494.062 666.764 515.652 640.000 515.652 C 613.236 515.652 591.595 494.062 591.506 467.016 C 519.808 466.657 390.832 466.229 314.177 467.298 C 314.188 467.270 446.837 153.120 446.850 153.089 C 446.889 153.089 837.785 153.089 837.824 153.089 M 614.654 426.067 C 621.898 421.587 630.632 418.943 640.000 418.943 C 649.368 418.943 658.102 421.587 665.752 426.395 M 965.823 684.513 C 845.596 684.512 748.609 587.525 748.608 467.298 C 748.608 347.071 845.596 250.083 965.823 250.083 C 1086.050 250.083 1183.038 347.071 1183.038 467.298 C 1183.038 587.525 1086.050 684.513 965.823 684.513 M 314.177 684.513 C 193.950 684.513 96.962 587.525 96.962 467.298 C 96.962 347.071 193.950 250.083 314.177 250.083 C 434.404 250.083 531.392 347.071 531.392 467.298 C 531.392 587.525 434.404 684.512 314.177 684.513 M 614.654 426.067 C 558.877 335.330 446.867 153.116 446.850 153.089 C 446.846 153.082 404.464 83.295 404.460 83.288 C 404.467 83.288 476.356 82.336 476.364 82.336 C 476.349 82.334 325.435 60.928 325.420 60.926 C 325.420 60.929 323.941 84.475 323.940 84.477 C 323.949 84.477 404.452 83.288 404.460 83.288 M 591.506 467.016 C 591.606 449.803 600.749 434.655 614.654 426.067 M 591.645 467.298 C 591.645 467.298 591.645 467.298 591.506 467.016 C 591.644 467.298 591.645 467.298 591.645 467.298 "/>
</g>
</svg>
