<?xml version="1.0" encoding="utf-8"?>
<!-- Generator: Moho 12.5 build 22414 -->
<!DOCTYPE svg PUBLIC "-//W3C//DTD SVG 1.1//EN" "http://www.w3.org/Graphics/SVG/1.1/DTD/svg11.dtd">
<svg version="1.1" id="Frame_0" xmlns="http://www.w3.org/2000/svg" xmlns:xlink="http://www.w3.org/1999/xlink" width="720px" height="720px">
<g id="bird_head">
<g id="bird_head_3">
<path fill="#ffffff" fill-rule="evenodd" stroke="#000000" stroke-width="4" stroke-linejoin="round" d="M 211.154 217.455 C 185.038 -37.215 590.108 -35.626 575.110 195.366 C 563.311 377.089 597.311 500.179 660.000 630.638 C 660.000 630.638 517.733 585.999 503.217 524.234 C 499.292 507.531 497.383 508.125 497.321 524.286 C 497.053 594.411 439.889 620.132 422.288 633.307 C 412.212 640.850 405.333 652.976 405.331 652.978 C 405.329 652.976 396.367 640.623 388.074 633.968 C 369.842 619.334 309.066 593.523 310.322 528.932 C 310.793 504.683 310.448 504.119 304.276 527.799 C 283.942 605.814 150.662 630.638 150.662 630.638 C 199.841 516.631 227.483 376.695 211.154 217.455 Z"/>
<path fill="#ffffff" fill-rule="evenodd" stroke="none" d="M 213.405 292.713 C 142.845 275.677 154.735 251.113 91.272 241.395 C 91.284 241.388 99.535 139.037 223.202 133.938 C 225.134 133.858 256.571 135.301 261.278 197.079 C 261.922 205.540 323.455 234.628 322.062 242.367 C 320.914 248.750 269.336 261.673 263.429 264.096 C 236.574 275.113 215.940 293.325 213.405 292.713 Z"/>
<path fill="none" stroke="#000000" stroke-width="4" stroke-linejoin="round" d="M 213.405 292.713 C 142.845 275.677 154.735 251.113 91.272 241.395 C 91.284 241.388 99.535 139.037 223.202 133.938 C 225.134 133.858 256.571 135.301 261.278 197.079 C 261.922 205.540 323.455 234.628 322.062 242.367 C 320.914 248.750 269.336 261.673 263.429 264.096 C 236.574 275.113 215.940 293.325 213.405 292.713 M 312.712 241.395 C 312.690 241.395 91.294 241.395 91.272 241.395 "/>
<path fill="#000000" fill-rule="evenodd" stroke="none" d="M 350.118 91.407 C 375.499 91.129 396.079 111.849 396.013 137.231 C 395.949 161.766 376.255 181.325 351.721 181.595 C 326.760 181.869 306.270 162.261 305.826 137.302 C 305.383 112.343 325.157 91.681 350.118 91.407 Z"/>
<path fill="#ffffff" fill-rule="evenodd" stroke="#000000" stroke-width="4" stroke-linejoin="round" d="M 227.444 155.482 C 229.917 154.526 233.706 155.504 236.442 162.588 C 239.179 169.673 237.031 172.943 234.558 173.898 C 232.084 174.854 228.296 173.876 225.560 166.792 C 222.823 159.708 224.970 156.437 227.444 155.482 Z"/>
</g>
<g id="specs_2">
<path fill="#ff00ff" fill-rule="evenodd" stroke="none" d="M 315.695 171.005 C 315.702 171.005 385.103 171.005 385.110 171.005 C 385.110 170.999 385.110 101.597 385.110 101.590 C 385.103 101.590 315.702 101.590 315.695 101.590 C 315.695 101.597 315.695 170.999 315.695 171.005 Z"/>
<path fill="#ff0000" fill-rule="evenodd" stroke="none" d="M 399.822 671.868 C 399.823 671.871 411.044 703.289 411.045 703.292 C 411.044 703.291 399.823 692.851 399.822 692.850 C 399.821 692.851 388.601 703.291 388.600 703.292 C 388.601 703.289 399.821 671.871 399.822 671.868 Z"/>
<path fill="#0000ff" fill-rule="evenodd" stroke="none" d="M 388.788 13.575 C 388.789 13.577 395.306 31.827 395.307 31.828 C 395.306 31.828 388.789 25.764 388.788 25.763 C 388.787 25.764 382.270 31.828 382.269 31.828 C 382.270 31.827 388.787 13.577 388.788 13.575 Z"/>
<path fill="#00ff00" fill-rule="evenodd" stroke="none" d="M 189.707 464.529 C 189.708 464.528 206.247 458.526 206.248 458.526 C 206.248 458.526 200.772 464.472 200.772 464.473 C 200.772 464.473 206.307 470.362 206.308 470.363 C 206.306 470.362 189.708 464.529 189.707 464.529 Z"/>
<path fill="#ffff00" fill-rule="evenodd" stroke="none" d="M 145.080 629.149 C 145.081 629.147 154.570 608.487 154.571 608.485 C 154.571 608.486 155.071 618.919 155.071 618.920 C 155.072 618.920 165.513 619.172 165.514 619.172 C 165.512 619.174 145.083 629.148 145.080 629.149 Z"/>
<path fill="#ffff00" fill-rule="evenodd" stroke="none" d="M 658.243 628.896 C 658.242 628.894 648.341 608.428 648.340 608.426 C 648.340 608.428 648.049 618.868 648.049 618.869 C 648.048 618.869 637.614 619.332 637.613 619.332 C 637.615 619.333 658.241 628.895 658.243 628.896 Z"/>
<path fill="#00ff00" fill-rule="evenodd" stroke="none" d="M 607.668 464.529 C 607.666 464.528 591.128 458.526 591.126 458.526 C 591.127 458.526 596.602 464.472 596.603 464.473 C 596.602 464.473 591.067 470.362 591.067 470.363 C 591.068 470.362 607.666 464.529 607.668 464.529 Z"/>
<path fill="#00ffff" fill-rule="evenodd" stroke="none" d="M 535.823 59.803 C 535.822 59.805 528.803 79.626 528.802 79.628 C 528.802 79.627 527.472 70.059 527.472 70.058 C 527.471 70.058 517.833 70.694 517.832 70.694 C 517.834 70.693 535.821 59.805 535.823 59.803 Z"/>
<path fill="#00ffff" fill-rule="evenodd" stroke="none" d="M 255.338 60.461 C 255.339 60.463 263.664 79.770 263.665 79.772 C 263.665 79.771 264.353 70.136 264.353 70.135 C 264.354 70.135 274.013 70.128 274.014 70.128 C 274.013 70.127 255.340 60.462 255.338 60.461 Z"/>
<path fill="#be0027" fill-rule="evenodd" stroke="none" d="M 399.822 661.936 C 399.823 661.933 411.044 630.516 411.045 630.513 C 411.044 630.514 399.823 640.954 399.822 640.955 C 399.821 640.954 388.601 630.514 388.600 630.513 C 388.601 630.516 399.821 661.933 399.822 661.936 Z"/>
</g>
</g>
</svg>
