<?xml version="1.0" encoding="utf-8"?>
<!-- Generator: Moho 12.5 build 22414 -->
<!DOCTYPE svg PUBLIC "-//W3C//DTD SVG 1.1//EN" "http://www.w3.org/Graphics/SVG/1.1/DTD/svg11.dtd">
<svg version="1.1" id="Frame_0" xmlns="http://www.w3.org/2000/svg" xmlns:xlink="http://www.w3.org/1999/xlink" width="720px" height="720px">
<g id="bird_2">
<g id="bird">
<path fill="#ffffff" fill-rule="evenodd" stroke="#000000" stroke-width="3" stroke-linecap="round" stroke-linejoin="round" d="M 430.786 427.519 C 415.030 426.751 408.479 409.358 403.820 392.092 C 402.168 403.285 400.531 413.369 394.233 419.954 C 390.949 424.709 386.368 427.981 381.975 430.687 C 394.341 498.006 422.268 578.108 392.836 561.884 C 381.751 555.773 370.507 499.606 370.505 499.600 C 370.504 499.608 380.628 576.261 360.000 576.557 C 337.215 576.885 349.497 499.608 349.495 499.600 C 349.493 499.606 338.989 553.617 327.164 561.884 C 293.127 585.678 326.961 497.790 338.196 430.791 C 336.014 429.191 329.024 424.727 325.767 419.954 C 320.774 412.638 316.679 393.172 316.679 393.172 C 314.658 402.788 312.392 422.663 292.734 427.519 C 269.039 433.371 305.862 332.535 305.863 332.526 C 305.857 332.534 287.733 408.737 239.446 414.390 C 219.468 416.728 278.057 314.773 278.061 314.763 C 278.052 314.771 237.578 395.052 193.108 391.993 C 174.019 390.680 242.530 303.187 242.535 303.178 C 242.526 303.184 192.128 370.455 152.176 361.101 C 133.472 356.722 217.043 282.334 217.049 282.327 C 217.039 282.331 151.134 344.994 118.195 326.347 C 102.706 317.579 187.695 262.253 187.702 262.247 C 187.690 262.250 119.202 312.615 75.718 290.822 C 57.730 281.807 164.524 231.361 164.533 231.355 C 164.521 231.355 89.695 262.451 51.005 229.038 C 37.022 216.963 143.349 195.832 143.358 195.829 C 143.347 195.826 68.295 205.177 26.291 164.165 C 6.810 145.143 124.909 155.551 170.926 162.620 C 188.742 165.357 206.383 220.164 225.040 246.028 C 251.445 282.636 282.918 303.349 335.211 310.901 C 349.858 313.017 344.224 289.960 344.224 289.960 C 339.979 286.493 326.810 276.642 325.626 265.639 C 324.156 251.970 331.832 238.233 342.698 231.654 C 347.168 228.947 359.998 182.981 360.000 182.976 C 360.002 182.981 373.067 230.040 377.302 231.654 C 389.172 236.176 395.844 251.970 394.374 265.639 C 393.190 276.642 375.776 289.960 375.776 289.960 C 374.930 299.194 371.992 312.888 386.057 310.901 C 441.829 303.023 470.808 278.599 496.228 246.028 C 512.505 225.173 532.525 165.357 550.342 162.620 C 596.359 155.551 714.458 145.143 694.976 164.165 C 652.973 205.177 577.921 195.826 577.909 195.829 C 577.919 195.832 684.246 216.963 670.263 229.038 C 631.572 262.451 556.746 231.355 556.735 231.355 C 556.744 231.361 663.537 281.807 645.549 290.822 C 602.066 312.615 533.577 262.250 533.566 262.247 C 533.573 262.253 618.562 317.579 603.073 326.347 C 570.134 344.994 504.229 282.331 504.219 282.327 C 504.225 282.334 587.796 356.722 569.092 361.101 C 529.140 370.455 478.742 303.184 478.733 303.178 C 478.738 303.187 547.248 390.680 528.160 391.993 C 483.690 395.052 443.216 314.771 443.207 314.763 C 443.211 314.773 501.799 416.728 481.822 414.390 C 433.535 408.737 415.411 332.534 415.404 332.526 C 415.406 332.535 451.435 428.525 430.786 427.519 M 345.845 258.511 C 345.845 250.679 352.163 244.361 359.995 244.361 C 367.827 244.361 374.145 250.679 374.145 258.511 C 374.145 266.343 367.827 272.661 359.995 272.661 C 352.163 272.661 345.845 266.343 345.845 258.511 Z"/>
</g>
<g id="specs_2">
<path fill="#ff00ff" fill-rule="evenodd" stroke="none" d="M 315.449 422.248 C 315.457 422.248 404.543 422.248 404.551 422.248 C 404.551 422.236 404.551 308.670 404.551 308.659 C 404.543 308.659 315.457 308.659 315.449 308.659 C 315.449 308.670 315.449 422.236 315.449 422.248 Z"/>
<path fill="#ff0000" fill-rule="evenodd" stroke="none" d="M 360.000 606.150 C 360.001 606.153 370.574 635.757 370.575 635.760 C 370.574 635.759 360.001 625.922 360.000 625.921 C 359.999 625.922 349.426 635.759 349.425 635.760 C 349.426 635.757 359.999 606.153 360.000 606.150 Z"/>
<path fill="#0000ff" fill-rule="evenodd" stroke="none" d="M 360.000 184.341 C 360.001 184.342 366.142 201.539 366.143 201.541 C 366.142 201.540 360.001 195.826 360.000 195.825 C 359.999 195.826 353.858 201.540 353.857 201.541 C 353.858 201.539 359.999 184.342 360.000 184.341 Z"/>
<path fill="#00ff00" fill-rule="evenodd" stroke="none" d="M 326.765 432.144 C 326.766 432.143 343.931 425.915 343.933 425.914 C 343.933 425.915 338.250 432.085 338.249 432.086 C 338.250 432.086 343.995 438.199 343.995 438.199 C 343.993 438.199 326.766 432.144 326.765 432.144 Z"/>
<path fill="#ffff00" fill-rule="evenodd" stroke="none" d="M 308.373 567.108 C 308.374 567.107 315.995 550.513 315.996 550.512 C 315.996 550.512 316.397 558.892 316.397 558.892 C 316.398 558.892 324.784 559.096 324.785 559.096 C 324.783 559.097 308.375 567.108 308.373 567.108 Z"/>
<path fill="#ffff00" fill-rule="evenodd" stroke="none" d="M 410.491 566.905 C 410.490 566.904 402.538 550.466 402.537 550.464 C 402.537 550.465 402.304 558.851 402.304 558.852 C 402.303 558.852 393.922 559.223 393.922 559.223 C 393.923 559.224 410.489 566.904 410.491 566.905 Z"/>
<path fill="#00ff00" fill-rule="evenodd" stroke="none" d="M 392.994 432.144 C 392.992 432.143 375.827 425.915 375.825 425.914 C 375.826 425.915 381.509 432.085 381.509 432.086 C 381.509 432.086 375.764 438.199 375.763 438.199 C 375.765 438.199 392.992 432.144 392.994 432.144 Z"/>
<path fill="#00ffff" fill-rule="evenodd" stroke="none" d="M 565.288 153.927 C 565.288 153.928 559.192 171.141 559.191 171.143 C 559.191 171.142 558.037 162.833 558.036 162.832 C 558.036 162.832 549.665 163.385 549.664 163.385 C 549.666 163.384 565.287 153.928 565.288 153.927 Z"/>
<path fill="#00ffff" fill-rule="evenodd" stroke="none" d="M 154.807 154.497 C 154.808 154.499 162.038 171.267 162.038 171.268 C 162.038 171.268 162.636 162.900 162.636 162.899 C 162.637 162.899 171.025 162.893 171.026 162.893 C 171.025 162.892 154.808 154.498 154.807 154.497 Z"/>
<path fill="#be0027" fill-rule="evenodd" stroke="none" d="M 360.000 591.443 C 360.001 591.440 370.574 561.836 370.575 561.833 C 370.574 561.834 360.001 571.671 360.000 571.672 C 359.999 571.671 349.426 561.834 349.425 561.833 C 349.426 561.836 359.999 591.440 360.000 591.443 Z"/>
</g>
</g>
</svg>
