<?xml version="1.0" encoding="utf-8"?>
<!-- Generator: Moho 12.5 build 22414 -->
<!DOCTYPE svg PUBLIC "-//W3C//DTD SVG 1.1//EN" "http://www.w3.org/Graphics/SVG/1.1/DTD/svg11.dtd">
<svg version="1.1" id="Frame_0" xmlns="http://www.w3.org/2000/svg" xmlns:xlink="http://www.w3.org/1999/xlink" width="720px" height="720px">
<g id="bird_head">
<g id="bird_head_2">
<path fill="#ffffff" fill-rule="evenodd" stroke="#000000" stroke-width="4" stroke-linejoin="round" d="M 206.556 217.455 C 171.728 -0.915 582.606 -5.133 570.512 195.366 C 559.548 377.142 592.713 500.179 655.402 630.638 C 655.402 630.638 513.135 585.999 498.619 524.234 C 494.694 507.531 492.785 508.125 492.723 524.286 C 492.455 594.411 435.291 620.132 417.690 633.308 C 407.615 640.850 400.735 652.976 400.733 652.978 C 400.732 652.976 391.769 640.623 383.476 633.968 C 365.244 619.334 304.468 593.523 305.724 528.932 C 306.195 504.683 305.850 504.119 299.678 527.799 C 279.345 605.814 146.065 630.638 146.065 630.638 C 195.243 516.631 231.767 375.532 206.556 217.455 Z"/>
<path fill="#ffffff" fill-rule="evenodd" stroke="none" d="M 214.029 284.873 C 108.157 273.925 99.868 235.883 32.879 228.280 C 32.893 228.272 80.628 147.499 214.029 143.390 C 217.738 143.276 220.399 285.531 214.029 284.873 Z"/>
<path fill="none" stroke="#000000" stroke-width="4" stroke-linejoin="round" d="M 214.029 284.873 C 108.157 273.925 99.868 235.883 32.879 228.280 C 32.893 228.272 80.628 147.499 214.029 143.390 C 217.738 143.276 220.399 285.531 214.029 284.873 M 214.029 228.280 C 214.011 228.280 32.897 228.280 32.879 228.280 "/>
<path fill="#000000" fill-rule="evenodd" stroke="none" d="M 314.989 129.251 C 338.635 128.831 358.050 147.567 358.471 171.213 C 358.891 194.860 340.155 214.275 316.508 214.695 C 292.862 215.115 273.447 196.379 273.027 172.733 C 272.606 149.086 291.343 129.671 314.989 129.251 Z"/>
</g>
<g id="specs_2">
<path fill="#ff00ff" fill-rule="evenodd" stroke="none" d="M 279.011 208.465 C 279.019 208.465 352.179 208.465 352.187 208.465 C 352.187 208.458 352.187 135.297 352.187 135.290 C 352.179 135.290 279.019 135.290 279.011 135.290 C 279.011 135.297 279.011 208.458 279.011 208.465 Z"/>
<path fill="#ff0000" fill-rule="evenodd" stroke="none" d="M 399.822 671.868 C 399.823 671.871 411.044 703.289 411.045 703.292 C 411.044 703.291 399.823 692.851 399.822 692.850 C 399.821 692.851 388.601 703.291 388.600 703.292 C 388.601 703.289 399.821 671.871 399.822 671.868 Z"/>
<path fill="#0000ff" fill-rule="evenodd" stroke="none" d="M 388.788 40.065 C 388.789 40.067 395.306 58.317 395.307 58.318 C 395.306 58.318 388.789 52.254 388.788 52.253 C 388.787 52.254 382.270 58.318 382.269 58.318 C 382.270 58.317 388.787 40.067 388.788 40.065 Z"/>
<path fill="#00ff00" fill-rule="evenodd" stroke="none" d="M 189.707 464.529 C 189.708 464.528 206.247 458.526 206.248 458.526 C 206.248 458.526 200.772 464.472 200.772 464.473 C 200.772 464.473 206.307 470.362 206.308 470.363 C 206.306 470.362 189.708 464.529 189.707 464.529 Z"/>
<path fill="#ffff00" fill-rule="evenodd" stroke="none" d="M 145.080 629.149 C 145.081 629.147 154.570 608.487 154.571 608.485 C 154.571 608.486 155.071 618.919 155.071 618.920 C 155.072 618.920 165.513 619.172 165.514 619.172 C 165.512 619.174 145.083 629.148 145.080 629.149 Z"/>
<path fill="#ffff00" fill-rule="evenodd" stroke="none" d="M 658.243 628.896 C 658.242 628.894 648.341 608.428 648.340 608.426 C 648.340 608.428 648.049 618.868 648.049 618.869 C 648.048 618.869 637.614 619.332 637.613 619.332 C 637.615 619.333 658.241 628.895 658.243 628.896 Z"/>
<path fill="#00ff00" fill-rule="evenodd" stroke="none" d="M 607.668 464.529 C 607.666 464.528 591.128 458.526 591.126 458.526 C 591.127 458.526 596.602 464.472 596.603 464.473 C 596.602 464.473 591.067 470.362 591.067 470.363 C 591.068 470.362 607.666 464.529 607.668 464.529 Z"/>
<path fill="#00ffff" fill-rule="evenodd" stroke="none" d="M 535.823 86.294 C 535.822 86.296 528.803 106.116 528.802 106.118 C 528.802 106.117 527.472 96.549 527.472 96.548 C 527.471 96.548 517.833 97.184 517.832 97.184 C 517.834 97.183 535.821 86.295 535.823 86.294 Z"/>
<path fill="#00ffff" fill-rule="evenodd" stroke="none" d="M 241.753 86.951 C 241.754 86.953 250.079 106.260 250.080 106.262 C 250.080 106.261 250.769 96.626 250.769 96.625 C 250.770 96.625 260.429 96.618 260.430 96.618 C 260.428 96.617 241.755 86.952 241.753 86.951 Z"/>
<path fill="#be0027" fill-rule="evenodd" stroke="none" d="M 399.822 661.936 C 399.823 661.933 411.044 630.516 411.045 630.513 C 411.044 630.514 399.823 640.954 399.822 640.955 C 399.821 640.954 388.601 630.514 388.600 630.513 C 388.601 630.516 399.821 661.933 399.822 661.936 Z"/>
</g>
</g>
</svg>
