<?xml version="1.0" encoding="utf-8"?>
<!-- Generator: Moho 12.5 build 22414 -->
<!DOCTYPE svg PUBLIC "-//W3C//DTD SVG 1.1//EN" "http://www.w3.org/Graphics/SVG/1.1/DTD/svg11.dtd">
<svg version="1.1" id="Frame_0" xmlns="http://www.w3.org/2000/svg" xmlns:xlink="http://www.w3.org/1999/xlink" width="720px" height="720px">
<g id="bird">
<g id="bird">
<path fill="#ffffff" fill-rule="evenodd" stroke="#000000" stroke-width="4" stroke-linecap="round" stroke-linejoin="round" d="M 499.739 245.676 C 490.903 251.690 419.692 294.060 398.013 300.756 C 390.458 303.089 392.245 289.124 390.010 281.384 C 383.601 259.204 393.416 258.322 394.640 236.437 C 395.054 229.026 391.272 220.384 391.400 212.250 C 391.660 195.751 391.301 161.628 391.303 161.623 C 391.300 161.626 365.477 186.440 357.389 202.062 C 354.037 208.540 345.763 211.253 341.685 217.302 C 330.148 234.418 339.397 251.356 337.415 267.975 C 336.235 277.881 338.954 291.040 331.134 297.234 C 324.120 302.791 240.109 258.259 209.364 235.272 C 196.360 227.741 179.813 220.269 170.896 208.041 C 160.441 193.704 157.413 170.866 142.665 160.334 C 119.481 143.780 87.762 127.920 29.635 133.750 C 19.206 134.797 5.035 152.206 16.207 164.644 C 18.849 167.586 24.080 163.855 27.997 163.309 C 35.676 162.235 50.281 159.518 58.474 159.255 C 83.805 158.443 120.040 171.491 126.100 184.730 C 131.331 196.159 76.153 195.029 51.121 192.626 C 39.562 193.130 27.934 194.198 26.564 208.396 C 26.155 210.002 26.495 215.768 26.907 217.281 C 36.311 219.992 46.509 216.970 56.261 217.792 C 59.899 218.098 90.821 221.689 94.389 221.426 C 109.699 220.307 122.389 217.763 137.590 215.078 C 141.460 215.239 149.931 216.527 151.419 220.963 C 155.564 228.943 135.270 234.835 129.765 237.112 C 110.352 242.785 88.507 248.077 71.815 259.495 C 64.050 264.806 45.405 272.999 52.060 279.645 C 58.211 285.785 69.225 283.905 77.891 283.224 C 84.312 282.718 108.185 269.741 113.775 266.988 C 133.958 257.042 175.335 222.975 171.830 249.379 C 168.623 257.935 126.744 282.698 109.188 304.055 C 105.807 308.171 101.399 312.007 100.044 317.158 C 98.925 321.415 101.149 329.509 105.537 329.164 C 111.759 328.677 118.141 327.324 123.627 324.351 C 144.848 312.857 159.723 286.757 179.525 272.257 C 187.438 266.463 193.441 253.781 203.195 254.783 C 209.029 255.382 208.718 266.312 207.073 271.939 C 204.227 281.661 195.378 288.524 188.758 296.191 C 175.188 311.907 157.400 323.898 144.071 339.820 C 140.281 347.193 115.999 378.337 144.323 370.637 C 151.656 368.641 162.782 360.549 168.113 355.449 C 188.166 336.267 202.143 313.106 217.974 290.582 C 222.967 283.478 224.483 269.649 233.164 269.419 C 240.187 269.233 239.902 282.494 239.545 289.511 C 239.255 295.180 234.327 299.613 231.271 304.396 C 219.788 322.372 202.984 339.872 192.758 358.654 C 189.314 364.978 182.713 371.961 184.961 378.801 C 187.046 385.148 198.423 386.412 204.442 383.509 C 211.166 380.264 212.581 370.988 216.568 364.674 C 228.099 346.415 237.624 322.997 252.687 307.481 C 259.006 300.972 266.389 286.458 274.282 290.926 C 281.622 295.078 268.763 306.937 264.789 314.375 C 264.416 315.076 240.685 347.647 240.301 348.273 C 227.042 369.801 229.789 367.163 220.701 390.619 C 224.947 397.625 226.083 410.608 234.257 411.117 C 242.930 411.655 255.826 380.994 257.111 378.512 C 267.130 359.148 273.593 335.268 287.183 318.533 C 291.205 313.580 297.405 310.891 302.399 306.917 C 313.576 314.612 310.348 309.945 302.143 332.467 C 296.026 349.264 283.709 364.767 280.718 382.660 C 279.734 388.544 278.211 395.346 281.125 400.554 C 294.120 423.782 298.508 399.376 304.360 386.087 C 307.355 379.286 310.314 379.303 314.297 379.431 C 321.754 379.671 338.391 434.880 338.358 440.262 C 338.308 448.286 323.661 495.883 320.836 512.369 C 319.601 519.580 312.694 550.469 322.830 554.894 C 331.651 558.744 340.665 522.953 341.351 515.904 C 343.222 496.663 346.512 462.749 353.457 462.665 C 364.211 462.537 357.003 478.469 357.683 486.486 C 360.801 511.759 356.550 537.446 354.906 562.852 C 358.689 568.088 359.809 578.318 366.263 578.549 C 371.842 578.751 372.542 568.985 373.621 563.507 C 374.965 556.690 373.210 549.612 373.336 542.664 C 373.568 529.874 375.422 513.453 375.970 500.685 C 375.762 488.030 373.940 475.309 377.531 462.732 C 388.892 438.159 391.005 519.634 396.366 548.963 C 397.653 556.009 395.298 569.260 402.454 569.573 C 410.440 569.925 413.602 557.217 415.499 549.452 C 417.268 542.203 414.057 534.591 412.971 527.207 C 409.367 502.654 402.892 478.339 399.016 453.846 C 398.199 431.459 409.995 391.699 415.442 387.547 C 422.586 382.102 422.683 424.681 434.829 418.915 C 450.441 411.502 421.180 340.051 415.602 326.941 C 414.202 313.925 415.509 315.658 427.691 308.756 C 441.580 322.100 478.860 424.324 501.316 412.942 C 519.770 403.590 432.458 308.145 448.210 293.332 C 460.954 281.346 522.499 380.509 531.911 391.845 C 540.994 402.786 547.921 382.149 546.250 374.954 C 539.720 348.231 462.687 296.934 484.790 274.421 C 486.463 273.458 489.593 271.962 491.423 272.234 C 508.147 291.055 575.687 386.478 597.123 363.115 C 588.379 347.366 501.144 275.427 511.151 263.593 C 534.175 236.371 577.788 317.369 616.255 323.945 C 671.407 333.375 532.007 251.961 541.408 240.528 C 556.787 221.823 654.087 306.003 665.209 287.514 C 674.124 272.698 555.468 219.072 560.046 212.536 C 575.642 190.270 673.068 245.378 685.985 232.782 C 704.859 214.379 673.060 208.221 661.660 204.318 C 649.924 200.301 637.760 197.524 625.924 193.804 C 609.465 188.629 592.577 184.812 576.626 178.245 C 574.833 177.164 580.425 165.600 583.311 164.986 C 592.055 164.368 599.570 158.511 608.125 156.608 C 634.509 152.648 655.396 164.322 681.012 170.709 C 682.876 171.369 707.420 174.890 709.087 166.528 C 714.086 141.482 618.602 122.157 583.068 137.694 C 556.926 149.124 550.331 179.125 532.181 218.044 C 527.925 227.171 503.481 243.616 499.739 245.676 M 367.432 241.326 C 362.660 241.088 356.109 235.253 356.469 228.726 C 356.822 222.261 363.880 217.237 368.605 217.486 C 373.345 217.736 379.841 223.495 379.520 229.978 C 379.198 236.459 372.171 241.560 367.432 241.326 Z"/>
</g>
<g id="specs_2">
<path fill="#ff00ff" fill-rule="evenodd" stroke="none" d="M 319.357 411.431 C 319.366 411.431 410.961 411.431 410.971 411.431 C 410.971 411.420 410.971 300.434 410.971 300.423 C 410.961 300.423 319.366 300.423 319.357 300.423 C 319.357 300.434 319.357 411.420 319.357 411.431 Z"/>
<path fill="#ff0000" fill-rule="evenodd" stroke="none" d="M 365.164 599.623 C 365.165 599.627 377.267 633.512 377.268 633.516 C 377.267 633.514 365.165 622.254 365.164 622.253 C 365.163 622.254 353.061 633.514 353.060 633.516 C 353.061 633.512 365.163 599.627 365.164 599.623 Z"/>
<path fill="#0000ff" fill-rule="evenodd" stroke="none" d="M 365.164 182.594 C 365.164 182.596 372.194 202.279 372.195 202.281 C 372.194 202.280 365.164 195.740 365.164 195.739 C 365.163 195.740 358.133 202.280 358.133 202.281 C 358.133 202.279 365.163 182.596 365.164 182.594 Z"/>
<path fill="#00ff00" fill-rule="evenodd" stroke="none" d="M 4.469 156.392 C 4.471 156.391 21.981 144.979 21.983 144.977 C 21.982 144.978 17.255 153.336 17.254 153.337 C 17.255 153.337 25.250 158.654 25.251 158.655 C 25.249 158.655 4.471 156.393 4.469 156.392 Z"/>
<path fill="#ffff00" fill-rule="evenodd" stroke="none" d="M 329.582 444.733 C 329.582 444.731 338.306 425.737 338.307 425.735 C 338.307 425.736 338.766 435.327 338.766 435.328 C 338.767 435.328 348.366 435.561 348.367 435.561 C 348.365 435.562 329.583 444.732 329.582 444.733 Z"/>
<path fill="#ffff00" fill-rule="evenodd" stroke="none" d="M 407.200 446.221 C 407.199 446.219 398.096 427.405 398.095 427.403 C 398.095 427.404 397.828 437.002 397.828 437.003 C 397.827 437.003 388.235 437.428 388.234 437.428 C 388.236 437.429 407.198 446.220 407.200 446.221 Z"/>
<path fill="#00ff00" fill-rule="evenodd" stroke="none" d="M 718.268 168.985 C 718.267 168.983 702.242 155.565 702.240 155.563 C 702.240 155.564 705.938 164.426 705.938 164.427 C 705.937 164.427 697.365 168.753 697.364 168.753 C 697.366 168.753 718.266 168.985 718.268 168.985 Z"/>
<path fill="#00ffff" fill-rule="evenodd" stroke="none" d="M 575.094 133.726 C 575.094 133.728 580.230 153.988 580.231 153.990 C 580.230 153.989 573.850 146.813 573.850 146.812 C 573.849 146.813 566.232 152.658 566.231 152.659 C 566.232 152.657 575.093 133.728 575.094 133.726 Z"/>
<path fill="#00ffff" fill-rule="evenodd" stroke="none" d="M 145.483 153.761 C 145.483 153.763 139.541 173.802 139.540 173.804 C 139.541 173.803 146.203 166.887 146.203 166.887 C 146.204 166.887 153.581 173.033 153.582 173.034 C 153.581 173.032 145.484 153.763 145.483 153.761 Z"/>
<path fill="#be0027" fill-rule="evenodd" stroke="none" d="M 365.164 591.309 C 365.165 591.305 377.267 557.420 377.268 557.416 C 377.267 557.418 365.165 568.678 365.164 568.679 C 365.163 568.678 353.061 557.418 353.060 557.416 C 353.061 557.420 365.163 591.305 365.164 591.309 Z"/>
</g>
</g>
</svg>
