<?xml version="1.0" encoding="utf-8"?>
<!-- Generator: Moho 12.5 build 22414 -->
<!DOCTYPE svg PUBLIC "-//W3C//DTD SVG 1.1//EN" "http://www.w3.org/Graphics/SVG/1.1/DTD/svg11.dtd">
<svg version="1.1" id="Frame_0" xmlns="http://www.w3.org/2000/svg" xmlns:xlink="http://www.w3.org/1999/xlink" width="720px" height="720px">
<g id="bird_head">
<g id="bird_head_3">
<path fill="#ffffff" fill-rule="evenodd" stroke="#000000" stroke-width="4" stroke-linejoin="round" d="M 211.154 217.455 C 185.038 -37.215 590.108 -35.626 575.110 195.366 C 563.311 377.089 597.311 500.179 660.000 630.638 C 660.000 630.638 517.733 585.999 503.217 524.234 C 499.292 507.531 497.383 508.125 497.321 524.286 C 497.053 594.411 439.889 620.132 422.288 633.307 C 412.212 640.850 405.333 652.976 405.331 652.978 C 405.329 652.976 396.367 640.623 388.074 633.968 C 369.842 619.334 309.066 593.523 310.322 528.932 C 310.793 504.683 310.448 504.119 304.276 527.799 C 283.942 605.814 150.662 630.638 150.662 630.638 C 199.841 516.631 227.483 376.695 211.154 217.455 Z"/>
<path fill="#000000" fill-rule="evenodd" stroke="none" d="M 214.763 328.740 C 121.887 301.369 136.503 273.249 51.848 260.286 C 51.865 260.278 63.750 135.258 227.831 116.947 C 230.591 116.639 274.582 113.926 291.983 201.173 C 294.738 214.987 404.319 248.676 402.369 261.582 C 400.659 272.901 306.634 287.174 295.889 290.568 C 252.829 304.169 218.655 329.887 214.763 328.740 Z"/>
<path fill="none" stroke="#ffffff" stroke-width="4" stroke-linejoin="round" d="M 214.763 328.740 C 121.887 301.369 136.503 273.249 51.848 260.286 C 51.865 260.278 63.750 135.258 227.831 116.947 C 230.591 116.639 274.582 113.926 291.983 201.173 C 294.738 214.987 404.319 248.676 402.369 261.582 C 400.659 272.901 306.634 287.174 295.889 290.568 C 252.829 304.169 218.655 329.887 214.763 328.740 M 385.389 260.286 C 385.356 260.286 51.882 260.287 51.848 260.286 "/>
<path fill="#000000" fill-rule="evenodd" stroke="none" d="M 387.758 83.750 C 420.342 83.393 446.761 109.991 446.676 142.576 C 446.594 174.072 421.311 199.180 389.817 199.527 C 357.773 199.879 331.470 174.708 330.900 142.667 C 330.331 110.627 355.715 84.102 387.758 83.750 Z"/>
<path fill="#000000" fill-rule="evenodd" stroke="#ffffff" stroke-width="4" stroke-linejoin="round" d="M 241.570 155.266 C 245.415 153.781 251.303 155.301 255.557 166.313 C 259.811 177.324 256.474 182.408 252.629 183.894 C 248.783 185.379 242.895 183.859 238.641 172.847 C 234.387 161.836 237.725 156.752 241.570 155.266 Z"/>
</g>
<g id="specs_2">
<path fill="#ff00ff" fill-rule="evenodd" stroke="none" d="M 344.853 186.592 C 344.862 186.592 432.714 186.592 432.723 186.592 C 432.723 186.583 432.723 98.731 432.723 98.722 C 432.714 98.722 344.862 98.722 344.853 98.722 C 344.853 98.731 344.853 186.583 344.853 186.592 Z"/>
<path fill="#ff0000" fill-rule="evenodd" stroke="none" d="M 399.822 671.868 C 399.823 671.871 411.044 703.289 411.045 703.292 C 411.044 703.291 399.823 692.851 399.822 692.850 C 399.821 692.851 388.601 703.291 388.600 703.292 C 388.601 703.289 399.821 671.871 399.822 671.868 Z"/>
<path fill="#0000ff" fill-rule="evenodd" stroke="none" d="M 388.788 13.575 C 388.789 13.577 395.306 31.827 395.307 31.828 C 395.306 31.828 388.789 25.764 388.788 25.763 C 388.787 25.764 382.270 31.828 382.269 31.828 C 382.270 31.827 388.787 13.577 388.788 13.575 Z"/>
<path fill="#00ff00" fill-rule="evenodd" stroke="none" d="M 189.707 464.529 C 189.708 464.528 206.247 458.526 206.248 458.526 C 206.248 458.526 200.772 464.472 200.772 464.473 C 200.772 464.473 206.307 470.362 206.308 470.363 C 206.306 470.362 189.708 464.529 189.707 464.529 Z"/>
<path fill="#ffff00" fill-rule="evenodd" stroke="none" d="M 145.080 629.149 C 145.081 629.147 154.570 608.487 154.571 608.485 C 154.571 608.486 155.071 618.919 155.071 618.920 C 155.072 618.920 165.513 619.172 165.514 619.172 C 165.512 619.174 145.083 629.148 145.080 629.149 Z"/>
<path fill="#ffff00" fill-rule="evenodd" stroke="none" d="M 658.243 628.896 C 658.242 628.894 648.341 608.428 648.340 608.426 C 648.340 608.428 648.049 618.868 648.049 618.869 C 648.048 618.869 637.614 619.332 637.613 619.332 C 637.615 619.333 658.241 628.895 658.243 628.896 Z"/>
<path fill="#00ff00" fill-rule="evenodd" stroke="none" d="M 607.668 464.529 C 607.666 464.528 591.128 458.526 591.126 458.526 C 591.127 458.526 596.602 464.472 596.603 464.473 C 596.602 464.473 591.067 470.362 591.067 470.363 C 591.068 470.362 607.666 464.529 607.668 464.529 Z"/>
<path fill="#00ffff" fill-rule="evenodd" stroke="none" d="M 535.823 59.803 C 535.822 59.805 528.803 79.626 528.802 79.628 C 528.802 79.627 527.472 70.059 527.472 70.058 C 527.471 70.058 517.833 70.694 517.832 70.694 C 517.834 70.693 535.821 59.805 535.823 59.803 Z"/>
<path fill="#00ffff" fill-rule="evenodd" stroke="none" d="M 255.338 60.461 C 255.339 60.463 263.664 79.770 263.665 79.772 C 263.665 79.771 264.353 70.136 264.353 70.135 C 264.354 70.135 274.013 70.128 274.014 70.128 C 274.013 70.127 255.340 60.462 255.338 60.461 Z"/>
<path fill="#be0027" fill-rule="evenodd" stroke="none" d="M 399.822 661.936 C 399.823 661.933 411.044 630.516 411.045 630.513 C 411.044 630.514 399.823 640.954 399.822 640.955 C 399.821 640.954 388.601 630.514 388.600 630.513 C 388.601 630.516 399.821 661.933 399.822 661.936 Z"/>
</g>
</g>
</svg>
