<?xml version="1.0" encoding="utf-8"?>
<!-- Generator: Moho 12.5 build 22414 -->
<!DOCTYPE svg PUBLIC "-//W3C//DTD SVG 1.1//EN" "http://www.w3.org/Graphics/SVG/1.1/DTD/svg11.dtd">
<svg version="1.1" id="Frame_0" xmlns="http://www.w3.org/2000/svg" xmlns:xlink="http://www.w3.org/1999/xlink" width="720px" height="720px">
<g id="bird">
<g id="bird">
<path fill="#ffffff" fill-rule="evenodd" stroke="#000000" stroke-width="3" stroke-linecap="round" stroke-linejoin="round" d="M 430.786 427.519 C 398.773 416.491 402.622 398.877 398.210 372.631 C 393.451 408.420 379.892 422.784 382.060 430.053 C 400.332 491.314 428.570 561.865 399.987 549.978 C 385.754 544.060 372.795 474.138 372.792 474.131 C 372.791 474.140 385.120 567.487 360.000 567.848 C 332.253 568.246 347.209 474.140 347.208 474.131 C 347.205 474.138 335.423 541.538 320.013 549.978 C 286.468 568.353 318.877 492.412 338.147 430.180 C 340.150 423.713 325.737 408.767 322.289 373.711 C 322.302 391.683 323.087 418.593 292.734 427.519 C 271.683 433.709 303.073 341.938 303.074 341.930 C 303.068 341.937 283.677 409.765 239.446 414.390 C 220.935 416.325 274.851 322.086 274.855 322.077 C 274.847 322.084 234.835 393.718 193.108 391.993 C 173.991 391.203 242.530 303.187 242.535 303.178 C 242.526 303.184 192.128 370.455 152.176 361.101 C 133.472 356.722 217.043 282.334 217.049 282.327 C 217.039 282.331 151.134 344.994 118.195 326.347 C 102.706 317.579 187.695 262.253 187.702 262.247 C 187.690 262.250 119.202 312.615 75.718 290.822 C 57.730 281.807 164.524 231.361 164.533 231.355 C 164.521 231.355 90.767 261.168 51.005 229.038 C 35.182 216.253 153.831 195.832 153.841 195.829 C 153.828 195.826 75.187 204.864 26.291 164.165 C 2.072 144.005 140.701 157.245 193.661 167.162 C 219.342 171.971 236.245 226.545 254.499 255.802 C 278.525 294.311 315.652 315.984 321.890 307.778 C 326.921 301.160 324.285 288.622 325.626 278.177 C 327.377 264.542 331.832 250.771 342.698 244.192 C 347.169 241.486 359.998 195.519 360.000 195.514 C 360.002 195.519 373.067 242.579 377.302 244.192 C 389.172 248.715 392.840 264.516 394.374 278.177 C 395.564 288.785 392.669 301.502 398.306 307.778 C 404.500 314.673 435.636 295.478 461.210 257.434 C 479.200 230.670 502.183 170.642 527.607 167.162 C 580.990 159.855 719.196 144.005 694.976 164.165 C 646.081 204.864 567.439 195.826 567.427 195.829 C 567.437 195.832 686.086 216.253 670.263 229.038 C 630.501 261.168 556.746 231.355 556.735 231.355 C 556.744 231.361 663.537 281.807 645.549 290.822 C 602.066 312.615 533.577 262.250 533.566 262.247 C 533.573 262.253 618.562 317.579 603.073 326.347 C 570.134 344.994 504.229 282.331 504.219 282.327 C 504.225 282.334 587.796 356.722 569.092 361.101 C 529.140 370.455 478.742 303.184 478.733 303.178 C 478.738 303.187 547.277 391.203 528.160 391.993 C 486.432 393.718 446.421 322.084 446.413 322.077 C 446.417 322.086 500.333 416.325 481.822 414.390 C 437.591 409.765 418.200 341.937 418.194 341.930 C 418.195 341.938 448.357 433.572 430.786 427.519 M 345.845 271.049 C 345.845 263.217 352.163 256.899 359.995 256.899 C 367.827 256.899 374.145 263.217 374.145 271.049 C 374.146 278.882 367.827 285.200 359.995 285.200 C 352.163 285.200 345.845 278.882 345.845 271.049 Z"/>
</g>
<g id="specs_2">
<path fill="#ff00ff" fill-rule="evenodd" stroke="none" d="M 292.698 435.192 C 292.711 435.192 427.289 435.192 427.303 435.192 C 427.303 435.180 427.303 308.672 427.303 308.659 C 427.289 308.659 292.711 308.659 292.698 308.659 C 292.698 308.672 292.698 435.180 292.698 435.192 Z"/>
<path fill="#ff0000" fill-rule="evenodd" stroke="none" d="M 360.000 606.150 C 360.001 606.153 370.574 635.757 370.575 635.760 C 370.574 635.759 360.001 625.922 360.000 625.921 C 359.999 625.922 349.426 635.759 349.425 635.760 C 349.426 635.757 359.999 606.153 360.000 606.150 Z"/>
<path fill="#0000ff" fill-rule="evenodd" stroke="none" d="M 360.000 184.341 C 360.001 184.342 366.142 201.539 366.143 201.541 C 366.142 201.540 360.001 195.826 360.000 195.825 C 359.999 195.826 353.858 201.540 353.857 201.541 C 353.858 201.539 359.999 184.342 360.000 184.341 Z"/>
<path fill="#00ff00" fill-rule="evenodd" stroke="none" d="M 326.765 432.144 C 326.766 432.143 343.932 425.915 343.933 425.914 C 343.933 425.915 338.250 432.085 338.249 432.086 C 338.250 432.086 343.995 438.199 343.995 438.199 C 343.993 438.199 326.766 432.144 326.765 432.144 Z"/>
<path fill="#ffff00" fill-rule="evenodd" stroke="none" d="M 308.373 567.108 C 308.374 567.107 315.995 550.513 315.996 550.511 C 315.996 550.512 316.397 558.892 316.397 558.892 C 316.398 558.892 324.784 559.096 324.785 559.096 C 324.783 559.096 308.375 567.108 308.373 567.108 Z"/>
<path fill="#ffff00" fill-rule="evenodd" stroke="none" d="M 410.491 566.905 C 410.490 566.903 402.538 550.466 402.537 550.464 C 402.537 550.465 402.304 558.851 402.304 558.852 C 402.303 558.852 393.922 559.223 393.922 559.223 C 393.923 559.224 410.489 566.904 410.491 566.905 Z"/>
<path fill="#00ff00" fill-rule="evenodd" stroke="none" d="M 392.993 432.144 C 392.992 432.143 375.827 425.915 375.825 425.914 C 375.825 425.915 381.509 432.085 381.509 432.086 C 381.509 432.086 375.764 438.199 375.763 438.199 C 375.765 438.199 392.992 432.144 392.993 432.144 Z"/>
<path fill="#00ffff" fill-rule="evenodd" stroke="none" d="M 565.288 153.927 C 565.288 153.928 559.192 171.141 559.191 171.143 C 559.191 171.142 558.036 162.833 558.036 162.832 C 558.036 162.832 549.665 163.385 549.664 163.385 C 549.666 163.384 565.287 153.928 565.288 153.927 Z"/>
<path fill="#00ffff" fill-rule="evenodd" stroke="none" d="M 154.807 154.497 C 154.808 154.499 162.038 171.267 162.038 171.269 C 162.038 171.268 162.636 162.900 162.636 162.899 C 162.637 162.899 171.025 162.893 171.026 162.893 C 171.025 162.892 154.809 154.498 154.807 154.497 Z"/>
<path fill="#be0027" fill-rule="evenodd" stroke="none" d="M 360.000 591.443 C 360.001 591.440 370.574 561.836 370.575 561.833 C 370.574 561.834 360.001 571.671 360.000 571.672 C 359.999 571.671 349.426 561.834 349.425 561.833 C 349.426 561.836 359.999 591.440 360.000 591.443 Z"/>
</g>
</g>
</svg>
