<?xml version="1.0" encoding="utf-8"?>
<!-- Generator: Moho 12.5 build 22414 -->
<!DOCTYPE svg PUBLIC "-//W3C//DTD SVG 1.1//EN" "http://www.w3.org/Graphics/SVG/1.1/DTD/svg11.dtd">
<svg version="1.1" id="Frame_0" xmlns="http://www.w3.org/2000/svg" xmlns:xlink="http://www.w3.org/1999/xlink" width="720px" height="720px">
<g id="bird_head">
<g id="bird_head">
<path fill="#ffffff" fill-rule="evenodd" stroke="#000000" stroke-width="4" stroke-linejoin="round" d="M 249.466 140.456 C 249.479 140.456 380.684 140.456 380.697 140.456 C 380.691 140.462 382.833 206.071 315.082 206.072 C 247.331 206.072 249.473 140.462 249.466 140.456 M 146.331 630.301 C 188.399 513.647 231.927 375.513 206.747 217.632 C 171.962 -0.466 582.329 -4.679 570.250 195.570 C 559.300 377.120 601.203 496.139 655.034 630.301 C 655.034 630.301 393.814 475.146 485.467 477.025 C 548.556 478.318 400.691 630.286 400.683 630.301 C 400.674 630.286 239.356 479.987 315.899 477.025 C 399.422 473.793 146.331 630.301 146.331 630.301 Z"/>
<path fill="#ffffff" fill-rule="evenodd" stroke="none" d="M 214.211 284.966 C 108.470 274.032 100.192 236.037 33.286 228.444 C 33.300 228.436 80.976 147.763 214.211 143.659 C 217.915 143.545 220.572 285.624 214.211 284.966 Z"/>
<path fill="none" stroke="#000000" stroke-width="4" stroke-linejoin="round" d="M 214.211 284.966 C 108.470 274.032 100.192 236.037 33.286 228.444 C 33.300 228.436 80.976 147.763 214.211 143.659 C 217.915 143.545 220.572 285.624 214.211 284.966 M 214.211 228.444 C 214.193 228.444 33.304 228.444 33.286 228.444 "/>
</g>
<g id="specs_2">
<path fill="#ff00ff" fill-rule="evenodd" stroke="none" d="M 279.112 208.654 C 279.119 208.654 352.189 208.654 352.196 208.654 C 352.196 208.646 352.196 135.577 352.196 135.569 C 352.189 135.569 279.119 135.569 279.112 135.569 C 279.112 135.577 279.112 208.646 279.112 208.654 Z"/>
<path fill="#ff0000" fill-rule="evenodd" stroke="none" d="M 399.773 671.480 C 399.774 671.483 410.980 702.862 410.981 702.865 C 410.980 702.864 399.774 692.437 399.773 692.436 C 399.772 692.437 388.565 702.864 388.564 702.865 C 388.565 702.862 399.772 671.483 399.773 671.480 Z"/>
<path fill="#0000ff" fill-rule="evenodd" stroke="none" d="M 388.752 40.463 C 388.753 40.465 395.262 58.692 395.263 58.694 C 395.262 58.693 388.753 52.637 388.752 52.636 C 388.751 52.637 382.242 58.693 382.242 58.694 C 382.242 58.692 388.751 40.465 388.752 40.463 Z"/>
<path fill="#00ff00" fill-rule="evenodd" stroke="none" d="M 189.918 464.398 C 189.920 464.398 206.438 458.404 206.440 458.403 C 206.439 458.404 200.970 464.342 200.970 464.343 C 200.970 464.344 206.499 470.225 206.499 470.225 C 206.497 470.225 189.920 464.399 189.918 464.398 Z"/>
<path fill="#ffff00" fill-rule="evenodd" stroke="none" d="M 145.348 628.814 C 145.349 628.812 154.826 608.178 154.827 608.176 C 154.827 608.177 155.326 618.597 155.326 618.598 C 155.327 618.598 165.754 618.850 165.756 618.850 C 165.753 618.851 145.350 628.813 145.348 628.814 Z"/>
<path fill="#ffff00" fill-rule="evenodd" stroke="none" d="M 657.872 628.561 C 657.871 628.559 647.982 608.119 647.981 608.117 C 647.981 608.118 647.691 618.546 647.691 618.547 C 647.690 618.547 637.269 619.009 637.268 619.009 C 637.270 619.010 657.870 628.560 657.872 628.561 Z"/>
<path fill="#00ff00" fill-rule="evenodd" stroke="none" d="M 607.360 464.398 C 607.358 464.398 590.840 458.404 590.839 458.403 C 590.839 458.404 596.308 464.342 596.309 464.343 C 596.308 464.344 590.780 470.225 590.779 470.225 C 590.781 470.225 607.358 464.399 607.360 464.398 Z"/>
<path fill="#00ffff" fill-rule="evenodd" stroke="none" d="M 535.604 86.634 C 535.603 86.636 528.593 106.432 528.592 106.434 C 528.592 106.433 527.264 96.877 527.264 96.876 C 527.263 96.876 517.637 97.511 517.636 97.511 C 517.638 97.510 535.602 86.635 535.604 86.634 Z"/>
<path fill="#00ffff" fill-rule="evenodd" stroke="none" d="M 241.900 87.290 C 241.901 87.292 250.216 106.576 250.217 106.578 C 250.217 106.577 250.904 96.954 250.905 96.953 C 250.905 96.953 260.553 96.945 260.554 96.945 C 260.552 96.944 241.902 87.291 241.900 87.290 Z"/>
<path fill="#be0027" fill-rule="evenodd" stroke="none" d="M 399.773 643.843 C 399.774 643.840 410.980 612.461 410.981 612.458 C 410.980 612.459 399.774 622.886 399.773 622.887 C 399.772 622.886 388.565 612.459 388.564 612.458 C 388.565 612.461 399.772 643.840 399.773 643.843 Z"/>
</g>
</g>
</svg>
