<?xml version="1.0" encoding="utf-8"?>
<!-- Generator: Moho 12.5 build 22414 -->
<!DOCTYPE svg PUBLIC "-//W3C//DTD SVG 1.1//EN" "http://www.w3.org/Graphics/SVG/1.1/DTD/svg11.dtd">
<svg version="1.1" id="Frame_0" xmlns="http://www.w3.org/2000/svg" xmlns:xlink="http://www.w3.org/1999/xlink" width="720px" height="720px">
<g id="halves">
<g id="bitey_half">
<g id="bitey">
<path fill="#000000" fill-rule="evenodd" stroke="none" d="M 511.964 487.519 C 511.957 487.520 442.538 495.197 442.531 495.197 C 442.533 495.186 465.726 387.218 465.729 387.207 C 465.733 387.217 511.959 487.509 511.964 487.519 M 390.574 521.596 C 390.567 521.597 321.148 529.274 321.141 529.275 C 321.144 529.264 344.337 421.296 344.339 421.285 C 344.344 421.295 390.570 521.586 390.574 521.596 M 256.966 563.251 C 256.959 563.251 187.538 569.586 187.531 569.587 C 187.534 569.576 210.728 461.607 210.731 461.596 C 210.735 461.607 256.961 563.240 256.966 563.251 M 468.337 292.661 C 468.330 292.659 402.335 269.794 402.329 269.792 C 402.328 269.803 401.031 380.228 401.031 380.239 C 401.038 380.230 468.330 292.670 468.337 292.661 M 352.430 236.709 C 352.423 236.707 286.429 213.844 286.422 213.841 C 286.422 213.852 285.124 324.276 285.124 324.287 C 285.131 324.278 352.423 236.718 352.430 236.709 M 237.616 171.709 C 237.610 171.706 171.616 148.843 171.609 148.841 C 171.609 148.852 170.310 259.276 170.310 259.287 C 170.317 259.278 237.610 171.717 237.616 171.709 Z"/>
<path fill="#ffffff" fill-rule="evenodd" stroke="#000000" stroke-width="4" stroke-linecap="round" stroke-linejoin="round" d="M 676.727 60.303 C 676.655 236.297 676.633 467.196 676.954 654.183 C 327.765 650.796 144.619 564.190 144.566 564.181 C 144.611 564.166 594.753 406.239 594.798 406.224 C 594.750 406.197 110.000 144.287 109.952 144.261 C 110.008 144.253 303.652 39.228 676.727 60.303 Z"/>
<path fill="#000000" fill-rule="evenodd" stroke="none" d="M 337.992 167.876 C 338.008 167.870 405.512 99.645 496.312 109.931 C 587.112 120.217 637.644 201.812 637.658 201.822 C 637.643 201.827 570.139 270.051 479.339 259.765 C 388.539 249.479 338.006 167.885 337.992 167.876 Z"/>
<path fill="#ffffff" fill-rule="evenodd" stroke="none" d="M 494.527 125.687 C 527.272 129.396 550.696 158.804 546.987 191.549 C 543.278 224.295 513.870 247.719 481.124 244.009 C 448.378 240.300 424.955 210.891 428.664 178.146 C 432.374 145.401 461.782 121.978 494.527 125.687 Z"/>
</g>
<g id="specs_2">
<path fill="#ff00ff" fill-rule="evenodd" stroke="none" d="M 55.800 471.192 C 55.822 471.192 278.161 471.192 278.184 471.192 C 278.184 471.170 278.184 248.830 278.184 248.808 C 278.161 248.808 55.822 248.808 55.800 248.808 C 55.800 248.830 55.800 471.170 55.800 471.192 Z"/>
<path fill="#ff0000" fill-rule="evenodd" stroke="none" d="M 641.705 360.000 C 641.710 359.998 694.616 341.103 694.622 341.101 C 694.620 341.103 677.040 359.998 677.038 360.000 C 677.040 360.002 694.620 378.897 694.622 378.899 C 694.616 378.897 641.710 360.002 641.705 360.000 Z"/>
<path fill="#0000ff" fill-rule="evenodd" stroke="none" d="M 345.779 401.639 C 345.782 401.638 383.867 388.037 383.871 388.035 C 383.870 388.037 371.215 401.638 371.214 401.639 C 371.215 401.641 383.870 415.242 383.871 415.243 C 383.867 415.242 345.782 401.641 345.779 401.639 Z"/>
<path fill="#ffff00" fill-rule="evenodd" stroke="none" d="M 677.769 661.337 C 677.768 661.335 666.708 635.701 666.707 635.698 C 666.707 635.699 665.000 648.777 665.000 648.778 C 664.999 648.778 651.929 649.357 651.928 649.357 C 651.931 649.359 677.766 661.336 677.769 661.337 Z"/>
<path fill="#00ff00" fill-rule="evenodd" stroke="none" d="M 701.670 210.552 C 701.666 210.551 663.651 196.757 663.647 196.756 C 663.648 196.757 676.234 210.423 676.236 210.424 C 676.234 210.426 663.511 223.963 663.510 223.964 C 663.514 223.963 701.666 210.554 701.670 210.552 Z"/>
<path fill="#00ffff" fill-rule="evenodd" stroke="none" d="M 669.792 56.901 C 669.792 56.903 662.349 77.918 662.348 77.920 C 662.348 77.919 660.939 67.775 660.939 67.774 C 660.938 67.774 650.718 68.449 650.717 68.449 C 650.719 68.448 669.790 56.902 669.792 56.901 Z"/>
<path fill="#be0027" fill-rule="evenodd" stroke="none" d="M 712.385 360.000 C 712.380 359.998 659.473 341.103 659.468 341.101 C 659.470 341.103 677.051 359.998 677.053 360.000 C 677.051 360.002 659.470 378.897 659.468 378.899 C 659.473 378.897 712.380 360.002 712.385 360.000 Z"/>
<path fill="none" stroke="#ffff00" stroke-width="8" stroke-linecap="round" stroke-linejoin="round" d="M 676.727 60.303 C 676.802 258.263 676.878 456.223 676.954 654.183 "/>
<path fill="#00ff00" fill-rule="evenodd" stroke="none" d="M 701.669 509.833 C 701.666 509.831 663.650 496.037 663.646 496.036 C 663.648 496.037 676.234 509.703 676.235 509.704 C 676.234 509.706 663.510 523.243 663.509 523.244 C 663.513 523.243 701.666 509.834 701.669 509.833 Z"/>
<path fill="#00ffff" fill-rule="evenodd" stroke="none" d="M 386.106 56.901 C 386.107 56.903 393.550 77.918 393.550 77.920 C 393.550 77.919 394.960 67.775 394.960 67.774 C 394.961 67.774 405.181 68.449 405.182 68.449 C 405.180 68.448 386.108 56.902 386.106 56.901 Z"/>
<path fill="#ffff00" fill-rule="evenodd" stroke="none" d="M 392.690 661.337 C 392.691 661.335 403.751 635.701 403.752 635.698 C 403.752 635.699 405.459 648.777 405.459 648.778 C 405.460 648.778 418.530 649.357 418.531 649.358 C 418.529 649.359 392.693 661.336 392.690 661.337 Z"/>
</g>
</g>
</g>
</svg>
