<?xml version="1.0" encoding="utf-8"?>
<!-- Generator: Moho 12.5 build 22414 -->
<!DOCTYPE svg PUBLIC "-//W3C//DTD SVG 1.1//EN" "http://www.w3.org/Graphics/SVG/1.1/DTD/svg11.dtd">
<svg version="1.1" id="Frame_0" xmlns="http://www.w3.org/2000/svg" xmlns:xlink="http://www.w3.org/1999/xlink" width="720px" height="720px">
<g id="halves">
<g id="bitey_half">
<g id="bitey">
<path fill="#000000" fill-rule="evenodd" stroke="#ffffff" stroke-width="4" stroke-linecap="round" stroke-linejoin="round" d="M 490.473 487.519 C 490.466 487.520 421.047 495.197 421.040 495.198 C 421.042 495.187 444.236 387.218 444.238 387.207 C 444.242 387.217 490.468 487.509 490.473 487.519 M 369.083 521.596 C 369.076 521.597 299.657 529.274 299.650 529.275 C 299.652 529.264 322.846 421.296 322.848 421.285 C 322.853 421.295 369.078 521.586 369.083 521.596 M 235.475 563.251 C 235.468 563.251 166.048 569.586 166.041 569.587 C 166.043 569.576 189.237 461.607 189.239 461.597 C 189.244 461.607 235.470 563.240 235.475 563.251 M 446.846 292.661 C 446.839 292.659 380.844 269.795 380.838 269.792 C 380.838 269.803 379.540 380.228 379.540 380.239 C 379.546 380.230 446.839 292.670 446.846 292.661 M 330.938 236.709 C 330.932 236.707 264.938 213.844 264.931 213.841 C 264.931 213.852 263.633 324.276 263.633 324.287 C 263.640 324.278 330.932 236.718 330.938 236.709 M 216.125 171.709 C 216.119 171.706 150.124 148.843 150.118 148.841 C 150.118 148.852 148.819 259.276 148.819 259.287 C 148.826 259.278 216.118 171.717 216.125 171.709 Z"/>
<path fill="#ffffff" fill-rule="evenodd" stroke="#000000" stroke-width="4" stroke-linecap="round" stroke-linejoin="round" d="M 676.727 60.303 C 676.655 236.297 676.633 467.196 676.954 654.183 C 314.038 652.980 123.130 564.190 123.075 564.181 C 123.120 564.166 573.262 406.239 573.307 406.223 C 573.259 406.197 88.509 144.288 88.461 144.261 C 88.519 144.253 289.926 36.395 676.727 60.303 Z"/>
<path fill="#000000" fill-rule="evenodd" stroke="none" d="M 316.501 167.876 C 316.517 167.870 384.021 99.646 474.821 109.931 C 565.621 120.217 616.153 201.813 616.167 201.822 C 616.152 201.828 548.648 270.051 457.848 259.765 C 367.048 249.480 316.515 167.885 316.501 167.876 Z"/>
<path fill="#ffffff" fill-rule="evenodd" stroke="none" d="M 473.036 125.688 C 505.782 129.397 529.205 158.804 525.496 191.549 C 521.787 224.295 492.379 247.719 459.633 244.010 C 426.887 240.300 403.464 210.892 407.174 178.146 C 410.883 145.401 440.291 121.978 473.036 125.688 Z"/>
</g>
<g id="specs_2">
<path fill="#ff00ff" fill-rule="evenodd" stroke="none" d="M 24.906 471.192 C 24.928 471.192 247.268 471.192 247.290 471.192 C 247.290 471.170 247.290 248.830 247.290 248.808 C 247.268 248.808 24.928 248.808 24.906 248.808 C 24.906 248.830 24.906 471.170 24.906 471.192 Z"/>
<path fill="#ff0000" fill-rule="evenodd" stroke="none" d="M 641.705 360.000 C 641.710 359.998 694.616 341.103 694.622 341.101 C 694.620 341.103 677.040 359.998 677.038 360.000 C 677.040 360.002 694.620 378.897 694.622 378.899 C 694.616 378.897 641.710 360.002 641.705 360.000 Z"/>
<path fill="#0000ff" fill-rule="evenodd" stroke="none" d="M 281.305 360.000 C 281.309 359.999 319.394 346.398 319.397 346.396 C 319.396 346.398 306.741 359.999 306.740 360.000 C 306.741 360.001 319.396 373.602 319.397 373.604 C 319.394 373.602 281.309 360.001 281.305 360.000 Z"/>
<path fill="#ffff00" fill-rule="evenodd" stroke="none" d="M 425.211 648.223 C 425.212 648.220 437.098 622.343 437.100 622.340 C 437.100 622.341 437.725 635.409 437.725 635.410 C 437.726 635.410 450.805 635.727 450.806 635.727 C 450.803 635.728 425.213 648.222 425.211 648.223 Z"/>
<path fill="#ffff00" fill-rule="evenodd" stroke="none" d="M 677.769 661.337 C 677.768 661.335 665.365 635.701 665.364 635.698 C 665.364 635.699 665.000 648.777 665.000 648.778 C 664.999 648.778 651.929 649.357 651.928 649.357 C 651.931 649.359 677.766 661.336 677.769 661.337 Z"/>
<path fill="#00ff00" fill-rule="evenodd" stroke="none" d="M 701.670 210.552 C 701.666 210.551 663.651 196.757 663.647 196.756 C 663.648 196.757 676.234 210.423 676.236 210.424 C 676.234 210.426 663.511 223.963 663.510 223.964 C 663.514 223.963 701.666 210.554 701.670 210.552 Z"/>
<path fill="#00ffff" fill-rule="evenodd" stroke="none" d="M 669.792 56.901 C 669.792 56.903 662.349 77.918 662.348 77.920 C 662.348 77.919 660.939 67.775 660.939 67.774 C 660.938 67.774 650.718 68.449 650.717 68.449 C 650.719 68.448 669.790 56.902 669.792 56.901 Z"/>
<path fill="#00ffff" fill-rule="evenodd" stroke="none" d="M 417.828 57.597 C 417.829 57.599 426.657 78.072 426.658 78.074 C 426.658 78.073 427.388 67.857 427.388 67.856 C 427.389 67.856 437.630 67.848 437.631 67.848 C 437.629 67.847 417.831 57.598 417.828 57.597 Z"/>
<path fill="#be0027" fill-rule="evenodd" stroke="none" d="M 712.385 360.000 C 712.380 359.998 659.473 341.103 659.468 341.101 C 659.470 341.103 677.051 359.998 677.053 360.000 C 677.051 360.002 659.470 378.897 659.468 378.899 C 659.473 378.897 712.380 360.002 712.385 360.000 Z"/>
<path fill="none" stroke="#ffff00" stroke-width="8" stroke-linecap="round" stroke-linejoin="round" d="M 676.727 60.303 C 676.802 258.263 676.878 456.223 676.954 654.183 "/>
<path fill="#00ff00" fill-rule="evenodd" stroke="none" d="M 701.669 509.833 C 701.666 509.831 663.650 496.037 663.646 496.036 C 663.648 496.037 676.234 509.703 676.235 509.704 C 676.234 509.706 663.510 523.243 663.509 523.244 C 663.513 523.243 701.666 509.834 701.669 509.833 Z"/>
</g>
</g>
</g>
</svg>
