<?xml version="1.0" encoding="utf-8"?>
<!-- Generator: Moho 12.5 build 22414 -->
<!DOCTYPE svg PUBLIC "-//W3C//DTD SVG 1.1//EN" "http://www.w3.org/Graphics/SVG/1.1/DTD/svg11.dtd">
<svg version="1.1" id="Frame_0" xmlns="http://www.w3.org/2000/svg" xmlns:xlink="http://www.w3.org/1999/xlink" width="720px" height="720px">
<g id="halves">
<g id="bitey_half">
<g id="bitey_2">
<path fill="#000000" fill-rule="evenodd" stroke="none" d="M 491.573 447.262 C 491.566 447.264 423.953 464.765 423.946 464.767 C 423.947 464.756 431.499 354.583 431.500 354.572 C 431.506 354.581 491.567 447.253 491.573 447.262 M 376.286 498.308 C 376.280 498.310 308.666 515.812 308.659 515.814 C 308.660 515.803 316.213 405.630 316.214 405.619 C 316.220 405.629 376.280 498.299 376.286 498.308 M 249.987 558.597 C 249.980 558.599 182.174 574.772 182.167 574.774 C 182.168 574.763 189.722 464.590 189.723 464.579 C 189.729 464.588 249.981 558.588 249.987 558.597 M 472.366 265.797 C 472.359 265.795 406.365 242.930 406.359 242.928 C 406.358 242.939 405.061 353.364 405.061 353.375 C 405.068 353.366 472.359 265.806 472.366 265.797 M 353.773 216.561 C 353.767 216.559 287.772 193.696 287.766 193.693 C 287.766 193.704 286.468 304.128 286.468 304.139 C 286.474 304.130 353.767 216.570 353.773 216.561 M 225.528 166.336 C 225.521 166.333 159.527 143.470 159.521 143.468 C 159.520 143.479 158.222 253.903 158.222 253.914 C 158.228 253.905 225.521 166.345 225.528 166.336 Z"/>
<path fill="#ffffff" fill-rule="evenodd" stroke="#000000" stroke-width="4" stroke-linecap="round" stroke-linejoin="round" d="M 676.727 60.303 C 676.655 236.297 676.633 467.196 676.954 654.183 C 328.353 654.487 144.620 569.969 144.567 569.960 C 144.612 569.939 594.754 360.021 594.799 360.000 C 594.750 359.979 110.001 150.061 109.952 150.040 C 110.009 150.031 302.891 42.919 676.727 60.303 Z"/>
<path fill="#000000" fill-rule="evenodd" stroke="none" d="M 324.997 167.456 C 325.012 167.449 386.368 93.646 477.717 96.046 C 569.066 98.446 626.461 175.370 626.476 175.378 C 626.461 175.385 565.105 249.186 473.756 246.786 C 382.407 244.386 325.012 167.464 324.997 167.456 Z"/>
<path fill="#ffffff" fill-rule="evenodd" stroke="none" d="M 477.301 111.897 C 510.244 112.763 536.122 140.036 535.257 172.979 C 534.391 205.923 507.117 231.801 474.173 230.935 C 441.229 230.069 415.352 202.795 416.218 169.852 C 417.084 136.908 444.358 111.032 477.301 111.897 Z"/>
</g>
<g id="specs_2">
<path fill="#ff00ff" fill-rule="evenodd" stroke="none" d="M 35.846 471.192 C 35.871 471.192 284.916 471.192 284.941 471.192 C 284.941 471.170 284.941 248.830 284.941 248.808 C 284.916 248.808 35.871 248.808 35.846 248.808 C 35.846 248.830 35.846 471.170 35.846 471.192 Z"/>
<path fill="#ff0000" fill-rule="evenodd" stroke="none" d="M 641.705 360.000 C 641.710 359.998 694.616 341.103 694.622 341.101 C 694.620 341.103 677.040 359.998 677.038 360.000 C 677.040 360.002 694.620 378.897 694.622 378.899 C 694.616 378.897 641.710 360.002 641.705 360.000 Z"/>
<path fill="#0000ff" fill-rule="evenodd" stroke="none" d="M 345.786 360.000 C 345.790 359.999 383.874 346.398 383.877 346.396 C 383.876 346.398 371.221 359.999 371.220 360.000 C 371.221 360.001 383.876 373.602 383.877 373.604 C 383.874 373.602 345.790 360.001 345.786 360.000 Z"/>
<path fill="#ffff00" fill-rule="evenodd" stroke="none" d="M 677.769 661.337 C 677.768 661.335 666.708 635.701 666.707 635.698 C 666.707 635.699 665.000 648.777 665.000 648.778 C 664.999 648.778 651.929 649.357 651.928 649.358 C 651.931 649.359 677.766 661.336 677.769 661.337 Z"/>
<path fill="#00ff00" fill-rule="evenodd" stroke="none" d="M 701.670 210.552 C 701.666 210.551 663.651 196.757 663.647 196.756 C 663.648 196.757 676.235 210.423 676.236 210.424 C 676.235 210.426 663.511 223.963 663.510 223.964 C 663.514 223.963 701.666 210.554 701.670 210.552 Z"/>
<path fill="#00ffff" fill-rule="evenodd" stroke="none" d="M 669.793 56.901 C 669.792 56.903 662.349 77.918 662.348 77.920 C 662.348 77.919 660.939 67.775 660.939 67.774 C 660.938 67.774 650.718 68.449 650.717 68.449 C 650.719 68.448 669.791 56.902 669.793 56.901 Z"/>
<path fill="#be0027" fill-rule="evenodd" stroke="none" d="M 712.386 360.000 C 712.380 359.998 659.473 341.103 659.468 341.101 C 659.470 341.103 677.051 359.998 677.053 360.000 C 677.051 360.002 659.470 378.897 659.468 378.899 C 659.473 378.897 712.380 360.002 712.386 360.000 Z"/>
<path fill="none" stroke="#ffff00" stroke-width="8" stroke-linecap="round" stroke-linejoin="round" d="M 676.727 60.303 C 676.803 258.263 676.878 456.223 676.954 654.183 "/>
<path fill="#00ff00" fill-rule="evenodd" stroke="none" d="M 701.669 509.833 C 701.666 509.831 663.650 496.037 663.646 496.036 C 663.648 496.037 676.234 509.703 676.235 509.704 C 676.234 509.706 663.511 523.243 663.509 523.244 C 663.513 523.243 701.666 509.834 701.669 509.833 Z"/>
<path fill="#00ffff" fill-rule="evenodd" stroke="none" d="M 386.106 56.901 C 386.107 56.903 393.550 77.918 393.551 77.920 C 393.551 77.919 394.960 67.775 394.960 67.774 C 394.961 67.774 405.181 68.449 405.182 68.449 C 405.180 68.448 386.108 56.902 386.106 56.901 Z"/>
<path fill="#ffff00" fill-rule="evenodd" stroke="none" d="M 392.690 661.337 C 392.691 661.335 403.751 635.701 403.752 635.698 C 403.752 635.699 405.459 648.777 405.459 648.778 C 405.460 648.778 418.530 649.357 418.531 649.358 C 418.529 649.359 392.693 661.336 392.690 661.337 Z"/>
</g>
</g>
</g>
</svg>
