<?xml version="1.0" encoding="utf-8"?>
<!-- Generator: Moho 12.5 build 22414 -->
<!DOCTYPE svg PUBLIC "-//W3C//DTD SVG 1.1//EN" "http://www.w3.org/Graphics/SVG/1.1/DTD/svg11.dtd">
<svg version="1.1" id="Frame_0" xmlns="http://www.w3.org/2000/svg" xmlns:xlink="http://www.w3.org/1999/xlink" width="720px" height="720px">
<g id="halves">
<g id="bitey_half">
<g id="bitey">
<path fill="#000000" fill-rule="evenodd" stroke="#ffffff" stroke-width="4" stroke-linecap="round" stroke-linejoin="round" d="M 502.073 448.631 C 502.066 448.632 433.935 463.999 433.928 464.000 C 433.930 463.989 444.946 354.108 444.947 354.097 C 444.952 354.107 502.068 448.621 502.073 448.631 M 375.145 490.398 C 375.138 490.400 307.007 505.766 307.000 505.768 C 307.001 505.757 318.017 395.876 318.018 395.865 C 318.024 395.875 375.139 490.389 375.145 490.398 M 254.721 543.116 C 254.714 543.117 186.582 558.484 186.575 558.486 C 186.577 558.475 197.593 448.594 197.594 448.583 C 197.600 448.592 254.715 543.107 254.721 543.116 M 437.001 259.849 C 436.994 259.848 368.863 244.481 368.856 244.480 C 368.857 244.491 379.873 354.371 379.875 354.382 C 379.880 354.373 436.995 259.859 437.001 259.849 M 315.580 217.164 C 315.573 217.162 247.442 201.796 247.435 201.794 C 247.437 201.805 258.453 311.685 258.454 311.696 C 258.460 311.687 315.575 217.173 315.580 217.164 M 194.238 165.364 C 194.232 165.362 126.100 149.996 126.093 149.994 C 126.095 150.005 137.111 259.886 137.112 259.897 C 137.117 259.888 194.233 165.373 194.238 165.364 Z"/>
<path fill="#ffffff" fill-rule="evenodd" stroke="#000000" stroke-width="4" stroke-linecap="round" stroke-linejoin="round" d="M 676.727 60.303 C 676.655 236.297 676.633 467.196 676.954 654.183 C 314.039 652.980 123.131 564.190 123.075 564.181 C 123.120 564.161 575.286 358.631 575.331 358.610 C 575.282 358.589 82.011 153.059 81.962 153.039 C 82.021 153.030 284.618 41.145 676.727 60.303 Z"/>
<path fill="#000000" fill-rule="evenodd" stroke="none" d="M 319.187 157.130 C 319.203 157.124 386.708 88.900 477.507 99.186 C 568.307 109.472 618.840 191.067 618.854 191.076 C 618.838 191.082 551.334 259.305 460.534 249.020 C 369.734 238.734 319.202 157.139 319.187 157.130 Z"/>
<path fill="#ffffff" fill-rule="evenodd" stroke="none" d="M 475.723 114.942 C 508.468 118.651 531.892 148.059 528.182 180.804 C 524.473 213.549 495.065 236.974 462.319 233.264 C 429.573 229.555 406.150 200.146 409.860 167.400 C 413.569 134.655 442.978 111.232 475.723 114.942 Z"/>
</g>
<g id="specs_2">
<path fill="#ff00ff" fill-rule="evenodd" stroke="none" d="M 24.906 471.192 C 24.928 471.192 247.268 471.192 247.290 471.192 C 247.290 471.170 247.290 248.830 247.290 248.808 C 247.268 248.808 24.928 248.808 24.906 248.808 C 24.906 248.830 24.906 471.170 24.906 471.192 Z"/>
<path fill="#ff0000" fill-rule="evenodd" stroke="none" d="M 641.705 360.000 C 641.710 359.998 694.616 341.103 694.622 341.101 C 694.620 341.103 677.040 359.998 677.038 360.000 C 677.040 360.002 694.620 378.897 694.622 378.899 C 694.616 378.897 641.710 360.002 641.705 360.000 Z"/>
<path fill="#0000ff" fill-rule="evenodd" stroke="none" d="M 281.305 360.000 C 281.309 359.999 319.394 346.398 319.397 346.396 C 319.396 346.398 306.741 359.999 306.740 360.000 C 306.741 360.001 319.396 373.602 319.397 373.604 C 319.394 373.602 281.309 360.001 281.305 360.000 Z"/>
<path fill="#ffff00" fill-rule="evenodd" stroke="none" d="M 425.211 648.223 C 425.212 648.220 437.098 622.343 437.100 622.340 C 437.100 622.341 437.725 635.409 437.725 635.410 C 437.726 635.410 450.805 635.727 450.806 635.727 C 450.803 635.728 425.213 648.222 425.211 648.223 Z"/>
<path fill="#ffff00" fill-rule="evenodd" stroke="none" d="M 668.367 647.905 C 668.365 647.903 655.963 622.268 655.962 622.266 C 655.962 622.267 655.598 635.345 655.598 635.346 C 655.596 635.346 642.527 635.925 642.526 635.925 C 642.528 635.927 668.364 647.904 668.367 647.905 Z"/>
<path fill="#00ff00" fill-rule="evenodd" stroke="none" d="M 701.670 210.552 C 701.666 210.551 663.651 196.757 663.647 196.756 C 663.648 196.757 676.234 210.423 676.236 210.424 C 676.234 210.426 663.511 223.963 663.510 223.964 C 663.514 223.963 701.666 210.554 701.670 210.552 Z"/>
<path fill="#00ffff" fill-rule="evenodd" stroke="none" d="M 669.792 56.901 C 669.792 56.903 662.349 77.918 662.348 77.920 C 662.348 77.919 660.939 67.775 660.939 67.774 C 660.938 67.774 650.718 68.449 650.717 68.449 C 650.719 68.448 669.790 56.902 669.792 56.901 Z"/>
<path fill="#00ffff" fill-rule="evenodd" stroke="none" d="M 417.828 57.597 C 417.829 57.599 426.657 78.072 426.658 78.074 C 426.658 78.073 427.388 67.857 427.388 67.856 C 427.389 67.856 437.630 67.848 437.631 67.848 C 437.629 67.847 417.831 57.598 417.828 57.597 Z"/>
<path fill="#be0027" fill-rule="evenodd" stroke="none" d="M 712.385 360.000 C 712.380 359.998 659.473 341.103 659.468 341.101 C 659.470 341.103 677.051 359.998 677.053 360.000 C 677.051 360.002 659.470 378.897 659.468 378.899 C 659.473 378.897 712.380 360.002 712.385 360.000 Z"/>
<path fill="none" stroke="#ffff00" stroke-width="8" stroke-linecap="round" stroke-linejoin="round" d="M 676.727 60.303 C 676.802 258.263 676.878 456.223 676.954 654.183 "/>
<path fill="#00ff00" fill-rule="evenodd" stroke="none" d="M 701.669 509.833 C 701.666 509.831 663.650 496.037 663.646 496.036 C 663.648 496.037 676.234 509.703 676.235 509.704 C 676.234 509.706 663.510 523.243 663.509 523.244 C 663.513 523.243 701.666 509.834 701.669 509.833 Z"/>
</g>
</g>
</g>
</svg>
