<?xml version="1.0" encoding="utf-8"?>
<!-- Generator: Moho 12.3 build 22017 -->
<!DOCTYPE svg PUBLIC "-//W3C//DTD SVG 1.1//EN" "http://www.w3.org/Graphics/SVG/1.1/DTD/svg11.dtd">
<svg version="1.1" id="Frame_0" xmlns="http://www.w3.org/2000/svg" xmlns:xlink="http://www.w3.org/1999/xlink" width="720px" height="720px">
<g id="bone">
<g id="bone">
<path fill="#ffffff" fill-rule="evenodd" stroke="none" d="M 707.772 327.640 C 707.772 339.995 703.188 351.252 695.473 360.028 C 703.188 368.749 707.772 380.006 707.772 392.361 C 707.772 419.220 686.105 440.887 659.246 440.887 C 638.027 440.887 620.049 427.364 613.484 408.586 C 453.466 408.509 236.278 408.497 106.541 408.514 C 99.951 427.364 81.973 440.887 60.755 440.887 C 33.896 440.887 12.228 419.220 12.228 392.361 C 12.228 380.005 21.452 365.022 24.527 360.028 C 24.527 360.028 12.228 339.995 12.228 327.640 C 12.228 300.781 33.895 279.113 60.755 279.113 C 81.973 279.113 101.185 298.008 106.516 311.414 C 106.293 311.352 506.282 311.445 613.459 311.486 C 620.049 292.636 638.027 279.113 659.246 279.113 C 686.105 279.113 707.772 300.781 707.772 327.640 Z"/>
<path fill="none" stroke="#000000" stroke-width="2" stroke-linecap="round" stroke-linejoin="round" d="M 106.516 311.414 C 107.798 314.910 109.383 319.653 109.689 324.640 M 613.484 408.586 C 611.675 403.413 610.719 398.001 610.719 392.361 M 707.772 327.640 C 707.772 339.995 703.188 351.252 695.473 360.028 C 703.188 368.749 707.772 380.006 707.772 392.361 C 707.772 419.220 686.105 440.887 659.246 440.887 C 638.027 440.887 620.049 427.364 613.484 408.586 C 453.466 408.509 236.278 408.497 106.541 408.514 C 108.325 403.413 109.281 398.001 109.281 392.361 M 659.246 279.113 C 686.105 279.113 707.772 300.781 707.772 327.640 M 613.459 311.486 C 620.049 292.636 638.027 279.113 659.246 279.113 M 610.719 327.640 C 610.719 321.999 611.675 316.588 613.459 311.486 C 506.282 311.445 106.293 311.352 106.516 311.414 C 101.185 298.008 81.973 279.113 60.755 279.113 C 33.895 279.113 12.228 300.781 12.228 327.640 C 12.228 339.995 24.527 360.028 24.527 360.028 C 21.452 365.022 12.228 380.005 12.228 392.361 C 12.228 419.220 33.896 440.887 60.755 440.887 C 81.973 440.887 99.951 427.364 106.541 408.514 "/>
</g>
<g id="arrows_2">
<path fill="#ff00ff" fill-rule="evenodd" stroke="none" d="M 115.056 401.486 C 115.105 401.486 604.895 401.486 604.944 401.486 C 604.944 401.478 604.944 318.522 604.944 318.514 C 604.895 318.514 115.105 318.514 115.056 318.514 C 115.056 318.522 115.056 401.478 115.056 401.486 Z"/>
<path fill="#ff0000" fill-rule="evenodd" stroke="none" d="M 85.220 360.000 C 85.218 360.001 62.374 368.159 62.372 368.160 C 62.373 368.159 69.964 360.001 69.964 360.000 C 69.964 359.999 62.373 351.841 62.372 351.840 C 62.374 351.841 85.218 359.999 85.220 360.000 Z"/>
<path fill="#0000ff" fill-rule="evenodd" stroke="none" d="M 360.000 270.540 C 360.000 270.541 364.740 283.811 364.740 283.812 C 364.740 283.812 360.000 279.402 360.000 279.402 C 360.000 279.402 355.261 283.812 355.260 283.812 C 355.261 283.811 360.000 270.541 360.000 270.540 Z"/>
<path fill="#00ff00" fill-rule="evenodd" stroke="none" d="M 14.720 360.659 C 14.722 360.659 27.967 355.853 27.968 355.852 C 27.968 355.853 23.583 360.614 23.582 360.615 C 23.583 360.615 28.016 365.332 28.016 365.332 C 28.015 365.332 14.722 360.660 14.720 360.659 Z"/>
<path fill="#ffff00" fill-rule="evenodd" stroke="none" d="M 203.981 416.075 C 203.981 416.074 205.128 402.030 205.128 402.029 C 205.128 402.029 207.631 407.999 207.631 408.000 C 207.632 408.000 213.766 405.934 213.767 405.933 C 213.766 405.934 203.982 416.074 203.981 416.075 Z"/>
<path fill="#ffff00" fill-rule="evenodd" stroke="none" d="M 516.906 415.943 C 516.906 415.941 515.477 401.923 515.477 401.922 C 515.477 401.922 513.095 407.942 513.094 407.942 C 513.094 407.942 506.919 406.000 506.919 405.999 C 506.920 406.000 516.905 415.942 516.906 415.943 Z"/>
<path fill="#00ff00" fill-rule="evenodd" stroke="none" d="M 706.689 360.659 C 706.688 360.659 693.442 355.853 693.441 355.852 C 693.441 355.853 697.827 360.614 697.827 360.615 C 697.827 360.615 693.393 365.332 693.393 365.332 C 693.394 365.332 706.688 360.660 706.689 360.659 Z"/>
<path fill="#00ffff" fill-rule="evenodd" stroke="none" d="M 515.776 301.951 C 515.776 301.953 515.899 316.043 515.899 316.044 C 515.898 316.043 512.868 310.323 512.868 310.323 C 512.867 310.323 506.944 312.932 506.943 312.933 C 506.944 312.932 515.775 301.952 515.776 301.951 Z"/>
<path fill="#00ffff" fill-rule="evenodd" stroke="none" d="M 204.253 302.302 C 204.253 302.304 205.070 316.371 205.070 316.372 C 205.070 316.371 207.712 310.462 207.712 310.461 C 207.713 310.461 213.797 312.670 213.798 312.671 C 213.797 312.670 204.254 302.303 204.253 302.302 Z"/>
</g>
</g>
</svg>
