<?xml version="1.0" encoding="utf-8"?>
<!-- Generator: Moho 12.5 build 22414 -->
<!DOCTYPE svg PUBLIC "-//W3C//DTD SVG 1.1//EN" "http://www.w3.org/Graphics/SVG/1.1/DTD/svg11.dtd">
<svg version="1.1" id="Frame_0" xmlns="http://www.w3.org/2000/svg" xmlns:xlink="http://www.w3.org/1999/xlink" width="720px" height="720px">
<g id="bone_vertical">
<g id="bone">
<path fill="#ffffff" fill-rule="evenodd" stroke="none" d="M 328.709 23.715 C 340.656 23.715 351.540 28.148 360.027 35.607 C 368.460 28.148 379.345 23.715 391.292 23.715 C 417.264 23.715 438.215 44.666 438.215 70.638 C 438.215 91.156 425.139 108.541 406.982 114.889 C 406.907 269.621 406.895 479.635 406.912 605.087 C 425.139 611.459 438.215 628.844 438.215 649.361 C 438.215 675.333 417.264 696.285 391.292 696.285 C 379.345 696.285 364.856 687.366 360.027 684.392 C 360.027 684.392 340.656 696.285 328.709 696.285 C 302.737 696.285 281.785 675.333 281.785 649.361 C 281.785 628.844 300.055 610.267 313.019 605.112 C 312.959 605.327 313.048 218.549 313.088 114.913 C 294.861 108.541 281.785 91.156 281.785 70.638 C 281.785 44.666 302.737 23.715 328.709 23.715 Z"/>
<path fill="none" stroke="#000000" stroke-width="4" stroke-linecap="round" stroke-linejoin="round" d="M 313.019 605.112 C 316.399 603.872 320.985 602.339 325.808 602.043 M 406.982 114.889 C 401.979 116.638 396.746 117.562 391.292 117.562 M 328.709 23.715 C 340.656 23.715 351.540 28.148 360.027 35.607 C 368.460 28.148 379.345 23.715 391.292 23.715 C 417.264 23.715 438.215 44.666 438.215 70.638 C 438.215 91.156 425.139 108.541 406.982 114.889 C 406.907 269.621 406.895 479.635 406.912 605.087 C 401.979 603.362 396.746 602.438 391.292 602.438 M 281.785 70.638 C 281.785 44.666 302.737 23.715 328.709 23.715 M 313.088 114.913 C 294.861 108.541 281.785 91.156 281.785 70.638 M 328.709 117.562 C 323.254 117.562 318.022 116.638 313.088 114.913 C 313.048 218.549 312.959 605.327 313.019 605.112 C 300.055 610.267 281.785 628.844 281.785 649.361 C 281.785 675.333 302.737 696.285 328.709 696.285 C 340.656 696.285 360.027 684.392 360.027 684.392 C 364.856 687.366 379.345 696.285 391.292 696.285 C 417.264 696.285 438.215 675.333 438.215 649.361 C 438.215 628.844 425.139 611.459 406.912 605.087 "/>
</g>
<g id="specs">
<path fill="#ff00ff" fill-rule="evenodd" stroke="none" d="M 400.116 596.854 C 400.116 596.806 400.116 123.194 400.116 123.146 C 400.108 123.146 319.892 123.146 319.884 123.146 C 319.884 123.194 319.884 596.806 319.884 596.854 C 319.892 596.854 400.108 596.854 400.116 596.854 Z"/>
<path fill="#ff0000" fill-rule="evenodd" stroke="none" d="M 360.000 692.974 C 360.001 692.976 367.890 715.065 367.891 715.068 C 367.890 715.067 360.001 707.727 360.000 707.726 C 359.999 707.727 352.110 715.067 352.109 715.068 C 352.110 715.065 359.999 692.976 360.000 692.974 Z"/>
<path fill="#0000ff" fill-rule="evenodd" stroke="none" d="M 360.000 1.219 C 360.000 1.220 364.583 14.052 364.583 14.053 C 364.583 14.053 360.000 9.789 360.000 9.789 C 360.000 9.789 355.417 14.053 355.417 14.053 C 355.417 14.052 360.000 1.220 360.000 1.219 Z"/>
<path fill="#00ff00" fill-rule="evenodd" stroke="none" d="M 304.298 360.638 C 304.299 360.637 317.108 355.990 317.109 355.989 C 317.108 355.990 312.868 360.594 312.867 360.594 C 312.868 360.595 317.155 365.156 317.155 365.156 C 317.154 365.156 304.299 360.638 304.298 360.638 Z"/>
<path fill="#ffff00" fill-rule="evenodd" stroke="none" d="M 430.036 691.421 C 430.035 691.420 424.522 678.960 424.521 678.959 C 424.521 678.959 424.134 685.207 424.134 685.208 C 424.134 685.208 417.875 685.272 417.874 685.272 C 417.876 685.273 430.035 691.421 430.036 691.421 Z"/>
<path fill="#00ff00" fill-rule="evenodd" stroke="none" d="M 417.065 360.638 C 417.063 360.637 404.255 355.990 404.254 355.989 C 404.254 355.990 408.495 360.594 408.495 360.594 C 408.495 360.595 404.208 365.156 404.208 365.156 C 404.209 365.156 417.063 360.638 417.065 360.638 Z"/>
<path fill="#00ffff" fill-rule="evenodd" stroke="none" d="M 433.575 31.880 C 433.575 31.881 428.162 44.385 428.162 44.387 C 428.162 44.386 427.724 38.142 427.724 38.141 C 427.724 38.141 421.465 38.127 421.464 38.127 C 421.465 38.127 433.574 31.880 433.575 31.880 Z"/>
<path fill="#ffff00" fill-rule="evenodd" stroke="none" d="M 291.075 691.421 C 291.075 691.420 296.589 678.960 296.589 678.959 C 296.589 678.959 296.976 685.207 296.976 685.208 C 296.977 685.208 303.236 685.272 303.236 685.272 C 303.235 685.273 291.076 691.421 291.075 691.421 Z"/>
<path fill="#00ffff" fill-rule="evenodd" stroke="none" d="M 286.800 31.880 C 286.801 31.881 292.213 44.385 292.214 44.387 C 292.214 44.386 292.651 38.142 292.651 38.141 C 292.652 38.141 298.911 38.127 298.912 38.127 C 298.911 38.127 286.802 31.880 286.800 31.880 Z"/>
</g>
</g>
</svg>
