<?xml version="1.0" encoding="utf-8"?>
<!-- Generator: Moho 12.5 build 22414 -->
<!DOCTYPE svg PUBLIC "-//W3C//DTD SVG 1.1//EN" "http://www.w3.org/Graphics/SVG/1.1/DTD/svg11.dtd">
<svg version="1.1" id="Frame_0" xmlns="http://www.w3.org/2000/svg" xmlns:xlink="http://www.w3.org/1999/xlink" width="720px" height="720px">
<g id="bone_vertical">
<g id="bone">
<path fill="#ffffff" fill-rule="evenodd" stroke="none" d="M 328.709 11.525 C 340.656 11.525 351.540 15.959 360.027 23.418 C 368.460 15.959 379.345 11.525 391.292 11.525 C 417.264 11.526 438.215 32.477 438.215 58.449 C 438.215 78.967 425.139 96.351 406.982 102.699 C 406.907 257.432 406.895 467.446 406.912 592.898 C 425.139 599.270 438.215 616.654 438.215 637.172 C 438.215 663.144 417.264 684.096 391.292 684.096 C 379.345 684.096 364.856 675.176 360.027 672.203 C 360.027 672.203 340.656 684.096 328.709 684.096 C 302.737 684.096 281.785 663.144 281.785 637.172 C 281.785 616.654 300.055 598.077 313.019 592.922 C 312.959 593.137 313.048 206.360 313.088 102.724 C 294.861 96.351 281.785 78.966 281.785 58.449 C 281.785 32.477 302.737 11.526 328.709 11.525 Z"/>
<path fill="none" stroke="#000000" stroke-width="4" stroke-linecap="round" stroke-linejoin="round" d="M 313.019 592.922 C 316.399 591.682 320.985 590.150 325.808 589.853 M 406.982 102.699 C 401.979 104.449 396.746 105.373 391.292 105.373 M 328.709 11.525 C 340.656 11.525 351.540 15.959 360.027 23.418 C 368.460 15.959 379.345 11.525 391.292 11.525 C 417.264 11.526 438.215 32.477 438.215 58.449 C 438.215 78.967 425.139 96.351 406.982 102.699 C 406.907 257.432 406.895 467.446 406.912 592.898 C 401.979 591.173 396.746 590.249 391.292 590.249 M 281.785 58.449 C 281.785 32.477 302.737 11.526 328.709 11.525 M 313.088 102.724 C 294.861 96.351 281.785 78.966 281.785 58.449 M 328.709 105.373 C 323.254 105.373 318.022 104.449 313.088 102.724 C 313.048 206.360 312.959 593.137 313.019 592.922 C 300.055 598.077 281.785 616.654 281.785 637.172 C 281.785 663.144 302.737 684.096 328.709 684.096 C 340.656 684.096 360.027 672.203 360.027 672.203 C 364.856 675.176 379.345 684.096 391.292 684.096 C 417.264 684.096 438.215 663.144 438.215 637.172 C 438.215 616.654 425.139 599.270 406.912 592.898 "/>
</g>
<g id="specs">
<path fill="#ff00ff" fill-rule="evenodd" stroke="none" d="M 400.116 584.664 C 400.116 584.617 400.116 111.004 400.116 110.957 C 400.108 110.957 319.892 110.957 319.884 110.957 C 319.884 111.004 319.884 584.617 319.884 584.664 C 319.892 584.664 400.108 584.664 400.116 584.664 Z"/>
<path fill="#ff0000" fill-rule="evenodd" stroke="none" d="M 360.000 682.660 C 360.001 682.662 367.890 704.751 367.891 704.753 C 367.890 704.753 360.001 697.412 360.000 697.412 C 359.999 697.412 352.110 704.753 352.109 704.753 C 352.110 704.751 359.999 682.662 360.000 682.660 Z"/>
<path fill="#0000ff" fill-rule="evenodd" stroke="none" d="M 360.000 14.346 C 360.000 14.347 364.583 27.179 364.583 27.180 C 364.583 27.180 360.000 22.916 360.000 22.916 C 360.000 22.916 355.417 27.180 355.417 27.180 C 355.417 27.179 360.000 14.347 360.000 14.346 Z"/>
<path fill="#00ff00" fill-rule="evenodd" stroke="none" d="M 304.298 348.448 C 304.299 348.448 317.108 343.800 317.109 343.800 C 317.108 343.800 312.868 348.405 312.867 348.405 C 312.868 348.405 317.155 352.966 317.155 352.967 C 317.154 352.966 304.299 348.449 304.298 348.448 Z"/>
<path fill="#ffff00" fill-rule="evenodd" stroke="none" d="M 430.036 679.232 C 430.035 679.231 424.522 666.771 424.521 666.769 C 424.521 666.770 424.134 673.018 424.134 673.018 C 424.134 673.018 417.875 673.083 417.874 673.083 C 417.876 673.083 430.035 679.231 430.036 679.232 Z"/>
<path fill="#00ff00" fill-rule="evenodd" stroke="none" d="M 417.065 348.448 C 417.063 348.448 404.255 343.800 404.254 343.800 C 404.254 343.800 408.495 348.405 408.495 348.405 C 408.495 348.405 404.208 352.966 404.208 352.967 C 404.209 352.966 417.063 348.449 417.065 348.448 Z"/>
<path fill="#00ffff" fill-rule="evenodd" stroke="none" d="M 433.575 19.690 C 433.575 19.692 428.162 32.196 428.162 32.197 C 428.162 32.197 427.724 25.952 427.724 25.952 C 427.724 25.952 421.465 25.938 421.464 25.938 C 421.465 25.937 433.574 19.691 433.575 19.690 Z"/>
<path fill="#ffff00" fill-rule="evenodd" stroke="none" d="M 291.075 679.232 C 291.075 679.231 296.589 666.771 296.589 666.769 C 296.589 666.770 296.976 673.018 296.976 673.018 C 296.977 673.018 303.236 673.083 303.236 673.083 C 303.235 673.083 291.076 679.231 291.075 679.232 Z"/>
<path fill="#00ffff" fill-rule="evenodd" stroke="none" d="M 286.800 19.690 C 286.801 19.692 292.213 32.196 292.214 32.197 C 292.214 32.197 292.651 25.952 292.651 25.952 C 292.652 25.952 298.911 25.938 298.912 25.938 C 298.911 25.937 286.802 19.691 286.800 19.690 Z"/>
</g>
</g>
</svg>
