<?xml version="1.0" encoding="utf-8"?>
<!-- Generator: Moho 12.5 build 22414 -->
<!DOCTYPE svg PUBLIC "-//W3C//DTD SVG 1.1//EN" "http://www.w3.org/Graphics/SVG/1.1/DTD/svg11.dtd">
<svg version="1.1" id="Frame_0" xmlns="http://www.w3.org/2000/svg" xmlns:xlink="http://www.w3.org/1999/xlink" width="720px" height="720px">
<g id="bone_vertical">
<g id="bone">
<path fill="#ffffff" fill-rule="evenodd" stroke="none" d="M 328.709 16.463 C 340.656 16.463 351.541 20.896 360.027 28.356 C 368.460 20.896 379.345 16.463 391.292 16.463 C 417.264 16.463 438.215 37.415 438.215 63.386 C 438.215 83.904 425.139 101.289 406.982 107.637 C 406.907 262.370 406.895 472.383 406.912 597.835 C 425.139 604.207 438.215 621.592 438.215 642.109 C 438.215 668.081 417.264 689.033 391.292 689.033 C 379.345 689.033 364.856 680.113 360.027 677.140 C 360.027 677.140 340.656 689.033 328.709 689.033 C 302.737 689.033 281.785 668.081 281.785 642.109 C 281.785 621.591 300.055 603.015 313.019 597.859 C 312.959 598.075 313.048 211.298 313.088 107.661 C 294.861 101.289 281.785 83.904 281.785 63.386 C 281.785 37.415 302.737 16.463 328.709 16.463 Z"/>
<path fill="none" stroke="#000000" stroke-width="4" stroke-linecap="round" stroke-linejoin="round" d="M 313.019 597.859 C 316.399 596.620 320.985 595.087 325.808 594.791 M 406.982 107.637 C 401.979 109.386 396.746 110.310 391.292 110.310 M 328.709 16.463 C 340.656 16.463 351.541 20.896 360.027 28.356 C 368.460 20.896 379.345 16.463 391.292 16.463 C 417.264 16.463 438.215 37.415 438.215 63.386 C 438.215 83.904 425.139 101.289 406.982 107.637 C 406.907 262.370 406.895 472.383 406.912 597.835 C 401.979 596.110 396.746 595.186 391.292 595.186 M 281.785 63.386 C 281.785 37.415 302.737 16.463 328.709 16.463 M 313.088 107.661 C 294.861 101.289 281.785 83.904 281.785 63.386 M 328.709 110.310 C 323.255 110.310 318.022 109.386 313.088 107.661 C 313.048 211.298 312.959 598.075 313.019 597.859 C 300.055 603.015 281.785 621.591 281.785 642.109 C 281.785 668.081 302.737 689.033 328.709 689.033 C 340.656 689.033 360.027 677.140 360.027 677.140 C 364.856 680.113 379.345 689.033 391.292 689.033 C 417.264 689.033 438.215 668.081 438.215 642.109 C 438.215 621.592 425.139 604.207 406.912 597.835 "/>
</g>
<g id="specs">
<path fill="#ff00ff" fill-rule="evenodd" stroke="none" d="M 400.116 589.602 C 400.116 589.554 400.116 115.942 400.116 115.895 C 400.108 115.895 319.893 115.895 319.884 115.895 C 319.884 115.942 319.884 589.554 319.884 589.602 C 319.893 589.602 400.108 589.602 400.116 589.602 Z"/>
<path fill="#ff0000" fill-rule="evenodd" stroke="none" d="M 360.000 690.066 C 360.001 690.068 367.890 712.157 367.891 712.159 C 367.890 712.159 360.001 704.818 360.000 704.818 C 359.999 704.818 352.110 712.159 352.109 712.159 C 352.110 712.157 359.999 690.068 360.000 690.066 Z"/>
<path fill="#0000ff" fill-rule="evenodd" stroke="none" d="M 360.000 8.175 C 360.000 8.176 364.583 21.007 364.583 21.009 C 364.583 21.008 360.000 16.745 360.000 16.744 C 360.000 16.745 355.417 21.008 355.417 21.009 C 355.417 21.007 360.000 8.176 360.000 8.175 Z"/>
<path fill="#00ff00" fill-rule="evenodd" stroke="none" d="M 304.298 353.386 C 304.300 353.385 317.107 348.738 317.109 348.737 C 317.108 348.738 312.868 353.342 312.867 353.342 C 312.868 353.343 317.155 357.904 317.155 357.904 C 317.154 357.904 304.300 353.386 304.298 353.386 Z"/>
<path fill="#ffff00" fill-rule="evenodd" stroke="none" d="M 430.036 684.169 C 430.035 684.168 424.522 671.708 424.521 671.707 C 424.521 671.707 424.134 677.955 424.134 677.956 C 424.134 677.956 417.875 678.020 417.874 678.020 C 417.876 678.021 430.035 684.169 430.036 684.169 Z"/>
<path fill="#00ff00" fill-rule="evenodd" stroke="none" d="M 417.064 353.386 C 417.063 353.385 404.255 348.738 404.254 348.737 C 404.254 348.738 408.495 353.342 408.495 353.342 C 408.495 353.343 404.208 357.904 404.208 357.904 C 404.209 357.904 417.063 353.386 417.064 353.386 Z"/>
<path fill="#00ffff" fill-rule="evenodd" stroke="none" d="M 433.575 24.628 C 433.575 24.629 428.162 37.134 428.162 37.135 C 428.162 37.134 427.725 30.890 427.724 30.890 C 427.724 30.890 421.464 30.876 421.464 30.876 C 421.465 30.875 433.574 24.629 433.575 24.628 Z"/>
<path fill="#ffff00" fill-rule="evenodd" stroke="none" d="M 291.075 684.169 C 291.075 684.168 296.589 671.708 296.589 671.707 C 296.589 671.707 296.976 677.955 296.976 677.956 C 296.977 677.956 303.236 678.020 303.236 678.020 C 303.235 678.021 291.076 684.169 291.075 684.169 Z"/>
<path fill="#00ffff" fill-rule="evenodd" stroke="none" d="M 286.801 24.628 C 286.801 24.629 292.213 37.134 292.214 37.135 C 292.214 37.134 292.651 30.890 292.651 30.890 C 292.652 30.890 298.911 30.876 298.912 30.876 C 298.911 30.875 286.802 24.629 286.801 24.628 Z"/>
</g>
</g>
</svg>
