<?xml version="1.0" encoding="utf-8"?>
<!-- Generator: Moho 13.0.3 build 635 -->
<!DOCTYPE svg PUBLIC "-//W3C//DTD SVG 1.1//EN" "http://www.w3.org/Graphics/SVG/1.1/DTD/svg11.dtd">
<svg version="1.1" id="Frame_0" xmlns="http://www.w3.org/2000/svg" xmlns:xlink="http://www.w3.org/1999/xlink" width="1280px" height="720px">
<g id="bone">
<path fill="#ffffff" fill-rule="evenodd" stroke="none" d="M 1259.366 302.368 C 1259.366 324.372 1251.201 344.420 1237.462 360.049 C 1251.201 375.582 1259.366 395.629 1259.366 417.633 C 1259.366 465.467 1220.778 504.056 1172.943 504.056 C 1135.154 504.056 1103.135 479.973 1091.443 446.530 C 806.458 446.392 419.658 446.371 188.602 446.401 C 176.866 479.973 144.847 504.056 107.058 504.056 C 59.223 504.056 20.634 465.468 20.634 417.633 C 20.634 395.629 37.062 368.944 42.538 360.049 C 42.538 360.049 20.634 324.372 20.634 302.368 C 20.634 254.533 59.223 215.944 107.058 215.944 C 144.847 215.945 179.062 249.595 188.557 273.471 C 188.160 273.360 900.522 273.525 1091.398 273.599 C 1103.135 240.027 1135.154 215.944 1172.943 215.944 C 1220.778 215.945 1259.366 254.533 1259.366 302.368 Z"/>
<path fill="none" stroke="#000000" stroke-width="4" stroke-linecap="round" stroke-linejoin="round" d="M 188.557 273.471 C 190.840 279.697 193.662 288.143 194.209 297.025 M 1091.443 446.530 C 1088.221 437.316 1086.520 427.678 1086.519 417.633 M 1259.366 302.368 C 1259.366 324.372 1251.201 344.420 1237.462 360.049 C 1251.201 375.582 1259.366 395.629 1259.366 417.633 C 1259.366 465.467 1220.778 504.056 1172.943 504.056 C 1135.154 504.056 1103.135 479.973 1091.443 446.530 C 806.458 446.392 419.658 446.371 188.602 446.401 C 191.779 437.316 193.481 427.678 193.481 417.633 M 1172.943 215.944 C 1220.778 215.945 1259.366 254.533 1259.366 302.368 M 1091.398 273.599 C 1103.135 240.027 1135.154 215.944 1172.943 215.944 M 1086.519 302.368 C 1086.519 292.323 1088.221 282.685 1091.398 273.599 C 900.522 273.525 188.160 273.360 188.557 273.471 C 179.062 249.595 144.847 215.945 107.058 215.944 C 59.223 215.944 20.634 254.533 20.634 302.368 C 20.634 324.372 42.538 360.049 42.538 360.049 C 37.062 368.944 20.634 395.629 20.634 417.633 C 20.634 465.468 59.223 504.056 107.058 504.056 C 144.847 504.056 176.866 479.973 188.602 446.401 "/>
</g>
</svg>
