<?xml version="1.0" encoding="utf-8"?>
<!-- Generator: Moho 12.5 build 22414 -->
<!DOCTYPE svg PUBLIC "-//W3C//DTD SVG 1.1//EN" "http://www.w3.org/Graphics/SVG/1.1/DTD/svg11.dtd">
<svg version="1.1" id="Frame_0" xmlns="http://www.w3.org/2000/svg" xmlns:xlink="http://www.w3.org/1999/xlink" width="720px" height="720px">
<g id="bone_vertical">
<g id="bone">
<path fill="#ffffff" fill-rule="evenodd" stroke="none" d="M 328.709 10.422 C 340.656 10.422 351.541 14.855 360.027 22.315 C 368.460 14.855 379.345 10.422 391.292 10.422 C 417.264 10.422 438.215 31.374 438.215 57.345 C 438.215 77.863 425.139 95.248 406.982 101.596 C 406.907 256.328 406.895 466.342 406.912 591.794 C 425.139 598.166 438.215 615.551 438.215 636.068 C 438.215 662.040 417.264 682.992 391.292 682.992 C 379.345 682.992 364.856 674.072 360.027 671.099 C 360.027 671.099 340.656 682.992 328.709 682.992 C 302.737 682.992 281.785 662.040 281.785 636.068 C 281.785 615.550 300.055 596.974 313.019 591.818 C 312.959 592.034 313.048 205.256 313.088 101.620 C 294.861 95.248 281.785 77.863 281.785 57.345 C 281.785 31.373 302.737 10.422 328.709 10.422 Z"/>
<path fill="none" stroke="#000000" stroke-width="4" stroke-linecap="round" stroke-linejoin="round" d="M 313.019 591.818 C 316.399 590.579 320.985 589.046 325.808 588.750 M 406.982 101.596 C 401.979 103.345 396.746 104.269 391.292 104.269 M 328.709 10.422 C 340.656 10.422 351.541 14.855 360.027 22.315 C 368.460 14.855 379.345 10.422 391.292 10.422 C 417.264 10.422 438.215 31.374 438.215 57.345 C 438.215 77.863 425.139 95.248 406.982 101.596 C 406.907 256.328 406.895 466.342 406.912 591.794 C 401.979 590.069 396.746 589.145 391.292 589.145 M 281.785 57.345 C 281.785 31.373 302.737 10.422 328.709 10.422 M 313.088 101.620 C 294.861 95.248 281.785 77.863 281.785 57.345 M 328.709 104.269 C 323.255 104.269 318.022 103.345 313.088 101.620 C 313.048 205.256 312.959 592.034 313.019 591.818 C 300.055 596.974 281.785 615.550 281.785 636.068 C 281.785 662.040 302.737 682.992 328.709 682.992 C 340.656 682.992 360.027 671.099 360.027 671.099 C 364.856 674.072 379.345 682.992 391.292 682.992 C 417.264 682.992 438.215 662.040 438.215 636.068 C 438.215 615.551 425.139 598.166 406.912 591.794 "/>
</g>
<g id="specs">
<path fill="#ff00ff" fill-rule="evenodd" stroke="none" d="M 404.827 650.847 C 404.827 650.786 404.827 42.628 404.827 42.567 C 404.818 42.567 315.182 42.567 315.173 42.567 C 315.173 42.628 315.173 650.786 315.173 650.847 C 315.182 650.847 404.818 650.847 404.827 650.847 Z"/>
<path fill="#ff0000" fill-rule="evenodd" stroke="none" d="M 360.000 689.059 C 360.001 689.061 367.890 711.150 367.891 711.152 C 367.890 711.152 360.001 703.811 360.000 703.811 C 359.999 703.811 352.110 711.152 352.109 711.152 C 352.110 711.150 359.999 689.061 360.000 689.059 Z"/>
<path fill="#0000ff" fill-rule="evenodd" stroke="none" d="M 360.000 2.134 C 360.000 2.135 364.583 14.966 364.583 14.968 C 364.583 14.967 360.000 10.704 360.000 10.703 C 360.000 10.704 355.417 14.967 355.417 14.968 C 355.417 14.966 360.000 2.135 360.000 2.134 Z"/>
<path fill="#00ff00" fill-rule="evenodd" stroke="none" d="M 304.298 347.345 C 304.300 347.344 317.107 342.697 317.109 342.696 C 317.108 342.697 312.868 347.301 312.867 347.301 C 312.868 347.302 317.155 351.863 317.155 351.863 C 317.154 351.863 304.300 347.345 304.298 347.345 Z"/>
<path fill="#ffff00" fill-rule="evenodd" stroke="none" d="M 430.036 678.128 C 430.035 678.127 424.522 665.667 424.521 665.666 C 424.521 665.666 424.134 671.914 424.134 671.915 C 424.134 671.915 417.875 671.979 417.874 671.979 C 417.876 671.979 430.035 678.127 430.036 678.128 Z"/>
<path fill="#00ff00" fill-rule="evenodd" stroke="none" d="M 417.064 347.345 C 417.063 347.344 404.255 342.697 404.254 342.696 C 404.254 342.697 408.495 347.301 408.495 347.301 C 408.495 347.302 404.208 351.863 404.208 351.863 C 404.209 351.863 417.063 347.345 417.064 347.345 Z"/>
<path fill="#00ffff" fill-rule="evenodd" stroke="none" d="M 433.575 18.587 C 433.575 18.588 428.162 31.093 428.162 31.094 C 428.162 31.093 427.725 24.849 427.724 24.848 C 427.724 24.848 421.464 24.835 421.464 24.835 C 421.465 24.834 433.574 18.588 433.575 18.587 Z"/>
<path fill="#ffff00" fill-rule="evenodd" stroke="none" d="M 291.075 678.128 C 291.075 678.127 296.589 665.667 296.589 665.666 C 296.589 665.666 296.976 671.914 296.976 671.915 C 296.977 671.915 303.236 671.979 303.236 671.979 C 303.235 671.979 291.076 678.127 291.075 678.128 Z"/>
<path fill="#00ffff" fill-rule="evenodd" stroke="none" d="M 286.801 18.587 C 286.801 18.588 292.213 31.093 292.214 31.094 C 292.214 31.093 292.651 24.849 292.651 24.848 C 292.652 24.848 298.911 24.835 298.912 24.835 C 298.911 24.834 286.802 18.588 286.801 18.587 Z"/>
<path fill="#be0027" fill-rule="evenodd" stroke="none" d="M 359.973 680.920 C 359.974 680.918 365.713 664.847 365.714 664.845 C 365.713 664.846 359.974 670.186 359.973 670.187 C 359.972 670.186 354.233 664.846 354.232 664.845 C 354.233 664.847 359.972 680.918 359.973 680.920 Z"/>
</g>
</g>
</svg>
