<?xml version="1.0" encoding="utf-8"?>
<!-- Generator: Moho 12.5 build 22414 -->
<!DOCTYPE svg PUBLIC "-//W3C//DTD SVG 1.1//EN" "http://www.w3.org/Graphics/SVG/1.1/DTD/svg11.dtd">
<svg version="1.1" id="Frame_0" xmlns="http://www.w3.org/2000/svg" xmlns:xlink="http://www.w3.org/1999/xlink" width="720px" height="720px">
<g id="book_open">
<g id="book">
<path fill="#ffffff" fill-rule="evenodd" stroke="#000000" stroke-width="4" stroke-linecap="round" stroke-linejoin="round" d="M 643.669 176.090 C 643.675 176.127 700.388 546.638 700.394 546.675 C 700.362 546.675 379.946 549.511 379.914 549.511 C 379.912 549.510 370.858 540.264 360.885 540.058 C 350.161 539.836 340.088 549.510 340.086 549.511 C 340.054 549.511 19.638 546.675 19.606 546.675 C 19.611 546.638 76.325 176.127 76.331 176.090 C 76.387 176.090 453.244 177.691 643.669 176.090 Z"/>
<path fill="#ffffff" fill-rule="evenodd" stroke="#000000" stroke-width="4" stroke-linecap="round" stroke-linejoin="round" d="M 534.420 151.937 C 573.272 156.401 607.467 151.026 607.474 151.026 C 615.414 158.088 631.290 172.210 631.293 172.213 C 631.293 172.214 681.570 534.740 681.575 534.775 C 681.563 534.775 613.660 540.116 568.238 539.432 C 523.730 538.762 501.880 531.588 457.366 531.551 C 428.702 531.528 385.943 536.093 385.936 536.093 C 385.935 536.092 379.835 524.827 374.293 521.135 C 370.207 518.414 360.886 517.202 360.885 517.202 C 360.883 517.202 350.329 518.140 345.707 521.135 C 340.119 524.757 334.065 536.092 334.064 536.093 C 334.057 536.093 291.298 531.528 262.634 531.551 C 218.120 531.588 196.270 538.762 151.762 539.432 C 106.340 540.116 38.437 534.775 38.425 534.775 C 38.430 534.740 86.829 185.760 86.833 185.725 C 86.834 185.724 88.707 172.214 88.707 172.213 C 88.710 172.210 104.586 158.088 112.526 151.026 C 112.526 151.026 146.728 156.401 185.580 151.937 C 239.241 145.771 235.271 124.113 283.356 127.001 C 322.792 129.371 360.877 155.945 360.885 155.948 C 360.892 155.945 398.007 129.499 436.644 127.001 C 484.716 123.895 480.759 145.771 534.420 151.937 Z"/>
<path fill="#ffffff" fill-rule="evenodd" stroke="#000000" stroke-width="4" stroke-linecap="round" stroke-linejoin="round" d="M 651.329 504.339 C 651.325 504.304 607.479 151.061 607.474 151.026 C 607.467 151.026 573.272 156.401 534.420 151.937 C 480.759 145.771 484.716 123.895 436.644 127.001 C 398.007 129.499 360.892 155.945 360.885 155.948 C 360.885 155.984 360.885 517.166 360.885 517.202 C 360.894 517.199 406.754 492.507 452.141 490.047 C 506.975 487.075 525.998 510.288 565.096 511.787 C 611.394 513.562 651.321 504.340 651.329 504.339 M 68.671 504.339 C 68.675 504.304 112.521 151.061 112.526 151.026 C 112.533 151.026 146.728 156.401 185.580 151.937 C 239.241 145.771 235.271 124.113 283.356 127.001 C 322.792 129.371 360.877 155.945 360.885 155.948 C 360.885 155.984 360.885 517.166 360.885 517.202 C 360.875 517.199 314.062 492.409 267.859 490.047 C 213.016 487.244 194.002 510.288 154.904 511.787 C 108.606 513.562 68.679 504.340 68.671 504.339 Z"/>
<path fill="none" stroke="#000000" stroke-width="4" stroke-linecap="round" stroke-linejoin="round" d="M 68.671 504.339 C 58.589 514.484 48.507 524.629 38.425 534.775 M 651.329 504.339 C 661.411 514.484 671.493 524.629 681.575 534.775 "/>
</g>
<g id="specs">
<path fill="#ff00ff" fill-rule="evenodd" stroke="none" d="M 121.499 471.710 C 121.547 471.710 598.198 471.710 598.246 471.710 C 598.246 471.680 598.246 172.051 598.246 172.021 C 598.198 172.021 121.547 172.021 121.499 172.021 C 121.499 172.051 121.499 471.680 121.499 471.710 Z"/>
<path fill="#ff0000" fill-rule="evenodd" stroke="none" d="M 360.000 544.935 C 360.001 544.938 372.432 579.744 372.433 579.748 C 372.432 579.747 360.001 568.181 360.000 568.180 C 359.999 568.181 347.568 579.747 347.567 579.748 C 347.568 579.744 359.999 544.938 360.000 544.935 Z"/>
<path fill="#0000ff" fill-rule="evenodd" stroke="none" d="M 360.000 92.894 C 360.001 92.896 367.221 113.114 367.222 113.116 C 367.221 113.116 360.001 106.397 360.000 106.397 C 359.999 106.397 352.779 113.116 352.778 113.116 C 352.779 113.114 359.999 92.896 360.000 92.894 Z"/>
<path fill="#00ff00" fill-rule="evenodd" stroke="none" d="M 37.701 342.224 C 37.703 342.223 57.884 334.900 57.886 334.899 C 57.886 334.900 51.204 342.155 51.203 342.156 C 51.204 342.156 57.958 349.343 57.959 349.344 C 57.957 349.343 37.703 342.224 37.701 342.224 Z"/>
<path fill="#ffff00" fill-rule="evenodd" stroke="none" d="M 118.365 556.055 C 118.366 556.054 127.326 536.544 127.327 536.542 C 127.327 536.543 127.799 546.395 127.799 546.396 C 127.800 546.396 137.660 546.635 137.661 546.635 C 137.659 546.636 118.367 556.055 118.365 556.055 Z"/>
<path fill="#ffff00" fill-rule="evenodd" stroke="none" d="M 602.961 555.817 C 602.960 555.815 593.610 536.489 593.609 536.487 C 593.609 536.488 593.334 546.347 593.334 546.348 C 593.333 546.348 583.480 546.785 583.479 546.785 C 583.481 546.786 602.959 555.816 602.961 555.817 Z"/>
<path fill="#00ff00" fill-rule="evenodd" stroke="none" d="M 683.345 342.224 C 683.343 342.223 663.161 334.900 663.159 334.899 C 663.160 334.900 669.842 342.155 669.843 342.156 C 669.842 342.156 663.087 349.343 663.087 349.344 C 663.089 349.343 683.343 342.224 683.345 342.224 Z"/>
<path fill="#00ffff" fill-rule="evenodd" stroke="none" d="M 497.574 127.600 C 497.573 127.602 490.406 147.839 490.405 147.841 C 490.405 147.840 489.048 138.071 489.047 138.070 C 489.046 138.071 479.205 138.720 479.204 138.720 C 479.206 138.719 497.572 127.601 497.574 127.600 Z"/>
<path fill="#00ffff" fill-rule="evenodd" stroke="none" d="M 223.527 128.271 C 223.528 128.273 232.028 147.987 232.029 147.989 C 232.029 147.988 232.731 138.150 232.731 138.149 C 232.732 138.149 242.595 138.142 242.596 138.142 C 242.594 138.141 223.529 128.272 223.527 128.271 Z"/>
<path fill="#be0027" fill-rule="evenodd" stroke="none" d="M 359.957 552.463 C 359.958 552.461 369.002 527.137 369.003 527.135 C 369.002 527.135 359.958 535.550 359.957 535.551 C 359.957 535.550 350.913 527.135 350.912 527.135 C 350.913 527.137 359.957 552.461 359.957 552.463 Z"/>
</g>
</g>
</svg>
