<?xml version="1.0" encoding="utf-8"?>
<!-- Generator: Moho 12.5 build 22414 -->
<!DOCTYPE svg PUBLIC "-//W3C//DTD SVG 1.1//EN" "http://www.w3.org/Graphics/SVG/1.1/DTD/svg11.dtd">
<svg version="1.1" id="Frame_0" xmlns="http://www.w3.org/2000/svg" xmlns:xlink="http://www.w3.org/1999/xlink" width="720px" height="720px">
<g id="boot">
<g id="boot">
<path fill="#ffffff" fill-rule="evenodd" stroke="#000000" stroke-width="4" stroke-linecap="round" stroke-linejoin="round" d="M 364.359 164.268 C 364.360 164.295 382.393 332.414 381.588 432.042 C 381.375 458.294 343.396 493.194 327.815 519.295 C 311.784 546.152 302.412 584.518 275.057 610.608 C 260.481 624.510 212.323 635.494 202.391 655.551 C 197.806 664.811 194.936 676.456 194.935 676.459 C 194.947 676.459 314.614 678.582 314.626 678.584 C 314.627 678.584 346.066 676.829 360.125 667.931 C 392.036 647.733 386.627 603.398 421.156 581.185 C 445.107 565.777 464.548 570.619 464.552 570.618 C 464.552 570.629 464.552 676.448 464.552 676.459 C 464.554 676.459 485.718 676.459 485.720 676.459 C 485.722 676.448 499.777 592.478 507.176 572.054 C 511.057 561.340 529.815 545.504 532.759 522.339 C 536.810 490.466 504.689 454.714 505.366 431.027 C 508.084 335.821 533.701 164.295 533.703 164.268 C 533.686 164.268 364.375 164.268 364.359 164.268 Z"/>
</g>
<g id="specs">
<path fill="#ff00ff" fill-rule="evenodd" stroke="none" d="M 391.294 560.671 C 391.305 560.671 498.344 560.671 498.355 560.671 C 498.355 560.632 498.355 169.655 498.355 169.616 C 498.344 169.616 391.305 169.616 391.294 169.616 C 391.294 169.655 391.294 560.632 391.294 560.671 Z"/>
<path fill="#ff0000" fill-rule="evenodd" stroke="none" d="M 450.220 225.308 C 450.221 225.304 462.651 190.498 462.652 190.495 C 462.651 190.496 450.221 202.062 450.220 202.063 C 450.218 202.062 437.788 190.496 437.787 190.495 C 437.788 190.498 450.218 225.304 450.220 225.308 Z"/>
<path fill="#0000ff" fill-rule="evenodd" stroke="none" d="M 449.260 148.302 C 449.260 148.304 456.481 168.522 456.482 168.524 C 456.481 168.524 449.260 161.805 449.260 161.805 C 449.259 161.805 442.038 168.524 442.038 168.524 C 442.038 168.522 449.259 148.304 449.260 148.302 Z"/>
<path fill="#00ff00" fill-rule="evenodd" stroke="none" d="M 368.281 434.908 C 368.283 434.907 388.465 427.584 388.467 427.584 C 388.466 427.584 381.784 434.839 381.784 434.840 C 381.784 434.841 388.539 442.027 388.540 442.028 C 388.538 442.027 368.283 434.909 368.281 434.908 Z"/>
<path fill="#ffff00" fill-rule="evenodd" stroke="none" d="M 197.067 679.324 C 197.068 679.322 206.029 659.813 206.030 659.811 C 206.030 659.812 206.501 669.664 206.501 669.665 C 206.502 669.665 216.362 669.903 216.363 669.904 C 216.361 669.904 197.069 679.323 197.067 679.324 Z"/>
<path fill="#ffff00" fill-rule="evenodd" stroke="none" d="M 488.746 680.045 C 488.745 680.043 479.396 660.717 479.395 660.715 C 479.395 660.716 479.120 670.575 479.120 670.576 C 479.119 670.576 469.266 671.013 469.265 671.013 C 469.267 671.014 488.745 680.044 488.746 680.045 Z"/>
<path fill="#00ff00" fill-rule="evenodd" stroke="none" d="M 518.807 434.908 C 518.805 434.907 498.624 427.584 498.622 427.584 C 498.622 427.584 505.304 434.839 505.305 434.840 C 505.304 434.841 498.549 442.027 498.549 442.028 C 498.551 442.027 518.805 434.909 518.807 434.908 Z"/>
<path fill="#00ffff" fill-rule="evenodd" stroke="none" d="M 538.016 158.986 C 538.015 158.988 530.848 179.225 530.847 179.227 C 530.847 179.227 529.490 169.457 529.490 169.456 C 529.489 169.456 519.648 170.106 519.647 170.106 C 519.648 170.105 538.014 158.987 538.016 158.986 Z"/>
<path fill="#00ffff" fill-rule="evenodd" stroke="none" d="M 357.736 156.778 C 357.737 156.780 366.238 176.494 366.239 176.496 C 366.239 176.495 366.941 166.657 366.942 166.656 C 366.943 166.656 376.805 166.649 376.806 166.649 C 376.804 166.648 357.738 156.779 357.736 156.778 Z"/>
<path fill="#be0027" fill-rule="evenodd" stroke="none" d="M 547.207 529.665 C 547.205 529.662 521.570 503.038 521.568 503.035 C 521.568 503.037 526.392 519.316 526.393 519.318 C 526.391 519.319 510.501 525.301 510.499 525.302 C 510.503 525.302 547.204 529.664 547.207 529.665 Z"/>
</g>
</g>
</svg>
