<?xml version="1.0" encoding="utf-8"?>
<!-- Generator: Moho 12.5 build 22414 -->
<!DOCTYPE svg PUBLIC "-//W3C//DTD SVG 1.1//EN" "http://www.w3.org/Graphics/SVG/1.1/DTD/svg11.dtd">
<svg version="1.1" id="Frame_0" xmlns="http://www.w3.org/2000/svg" xmlns:xlink="http://www.w3.org/1999/xlink" width="720px" height="720px">
<g id="boot">
<g id="boot">
<path fill="#ffffff" fill-rule="evenodd" stroke="#000000" stroke-width="4" stroke-linecap="round" stroke-linejoin="round" d="M 364.359 41.416 C 364.360 41.455 385.307 286.907 381.588 432.042 C 380.915 458.286 343.396 493.194 327.815 519.295 C 311.784 546.152 302.412 584.518 275.057 610.608 C 260.481 624.510 212.323 635.494 202.391 655.551 C 197.806 664.811 194.936 676.456 194.935 676.459 C 194.947 676.459 314.614 678.582 314.626 678.584 C 314.627 678.584 346.066 676.829 360.125 667.931 C 392.036 647.733 386.627 603.398 421.156 581.185 C 445.107 565.777 464.548 570.619 464.552 570.618 C 464.552 570.629 464.552 676.448 464.552 676.459 C 464.554 676.459 485.718 676.459 485.720 676.459 C 485.722 676.448 499.777 592.478 507.176 572.054 C 511.057 561.340 529.815 545.504 532.759 522.339 C 536.810 490.466 505.159 454.722 505.366 431.027 C 506.574 292.336 533.701 41.455 533.703 41.416 C 533.686 41.416 364.375 41.416 364.359 41.416 Z"/>
</g>
<g id="specs">
<path fill="#ff00ff" fill-rule="evenodd" stroke="none" d="M 391.294 560.671 C 391.305 560.671 498.344 560.671 498.355 560.671 C 498.355 560.620 498.355 46.815 498.355 46.764 C 498.344 46.764 391.305 46.764 391.294 46.764 C 391.294 46.815 391.294 560.620 391.294 560.671 Z"/>
<path fill="#ff0000" fill-rule="evenodd" stroke="none" d="M 450.220 102.455 C 450.221 102.452 462.651 67.646 462.652 67.642 C 462.651 67.644 450.221 79.210 450.220 79.211 C 450.218 79.210 437.788 67.644 437.787 67.642 C 437.788 67.646 450.218 102.452 450.220 102.455 Z"/>
<path fill="#0000ff" fill-rule="evenodd" stroke="none" d="M 449.260 25.450 C 449.260 25.452 456.481 45.670 456.482 45.672 C 456.481 45.671 449.260 38.953 449.260 38.953 C 449.259 38.953 442.038 45.671 442.038 45.672 C 442.038 45.670 449.259 25.452 449.260 25.450 Z"/>
<path fill="#00ff00" fill-rule="evenodd" stroke="none" d="M 368.281 434.908 C 368.283 434.907 388.465 427.584 388.467 427.584 C 388.466 427.584 381.784 434.839 381.784 434.840 C 381.784 434.841 388.539 442.027 388.540 442.028 C 388.538 442.027 368.283 434.909 368.281 434.908 Z"/>
<path fill="#ffff00" fill-rule="evenodd" stroke="none" d="M 197.067 679.324 C 197.068 679.322 206.029 659.813 206.030 659.811 C 206.030 659.812 206.501 669.664 206.501 669.665 C 206.502 669.665 216.362 669.903 216.363 669.904 C 216.361 669.904 197.069 679.323 197.067 679.324 Z"/>
<path fill="#ffff00" fill-rule="evenodd" stroke="none" d="M 488.746 680.045 C 488.745 680.043 479.396 660.717 479.395 660.715 C 479.395 660.716 479.120 670.575 479.120 670.576 C 479.119 670.576 469.266 671.013 469.265 671.013 C 469.267 671.014 488.745 680.044 488.746 680.045 Z"/>
<path fill="#00ff00" fill-rule="evenodd" stroke="none" d="M 518.807 434.908 C 518.805 434.907 498.624 427.584 498.622 427.584 C 498.622 427.584 505.304 434.839 505.305 434.840 C 505.304 434.841 498.549 442.027 498.549 442.028 C 498.551 442.027 518.805 434.909 518.807 434.908 Z"/>
<path fill="#00ffff" fill-rule="evenodd" stroke="none" d="M 538.016 36.134 C 538.015 36.136 530.848 56.373 530.847 56.375 C 530.847 56.374 529.490 46.605 529.490 46.604 C 529.489 46.604 519.648 47.254 519.647 47.254 C 519.648 47.253 538.014 36.135 538.016 36.134 Z"/>
<path fill="#00ffff" fill-rule="evenodd" stroke="none" d="M 357.736 33.925 C 357.737 33.927 366.238 53.642 366.239 53.644 C 366.239 53.643 366.941 43.805 366.942 43.804 C 366.943 43.804 376.805 43.796 376.806 43.796 C 376.804 43.795 357.738 33.926 357.736 33.925 Z"/>
</g>
</g>
</svg>
