<?xml version="1.0" encoding="utf-8"?>
<!-- Generator: Moho 12.5 build 22414 -->
<!DOCTYPE svg PUBLIC "-//W3C//DTD SVG 1.1//EN" "http://www.w3.org/Graphics/SVG/1.1/DTD/svg11.dtd">
<svg version="1.1" id="Frame_0" xmlns="http://www.w3.org/2000/svg" xmlns:xlink="http://www.w3.org/1999/xlink" width="720px" height="720px">
<g id="bottle">
<g id="bottle">
<path fill="#000000" fill-rule="evenodd" stroke="#ffffff" stroke-width="4" stroke-linecap="round" stroke-linejoin="round" d="M 338.980 15.929 C 338.984 15.929 381.016 15.929 381.020 15.929 C 381.020 15.934 379.522 64.512 379.522 64.517 C 379.518 64.517 340.482 64.517 340.478 64.517 C 340.478 64.512 338.980 15.934 338.980 15.929 Z"/>
<path fill="#ffffff" fill-rule="evenodd" stroke="#000000" stroke-width="4" stroke-linecap="round" stroke-linejoin="round" d="M 377.907 42.455 C 377.908 42.457 395.813 42.455 395.813 60.361 C 395.813 76.370 381.959 78.266 381.958 78.267 C 381.958 78.281 381.374 184.035 381.958 209.372 C 382.476 231.844 449.532 270.822 449.532 328.957 C 449.532 436.396 449.532 490.115 449.532 597.553 C 449.532 616.070 384.588 625.004 360.000 625.004 C 335.412 625.004 270.468 616.070 270.468 597.553 C 270.468 490.115 270.468 436.396 270.468 328.957 C 270.468 270.822 337.829 232.087 338.042 209.372 C 338.271 185.050 338.042 78.281 338.042 78.267 C 338.041 78.266 324.187 76.370 324.187 60.361 C 324.187 42.455 342.093 42.455 342.093 42.455 C 338.553 42.455 359.998 42.455 360.000 42.455 C 360.000 42.455 377.905 42.455 377.907 42.455 Z"/>
<path fill="#000000" fill-rule="evenodd" stroke="none" d="M 288.374 346.864 C 288.382 346.864 332.889 351.755 360.000 351.755 C 387.111 351.755 431.618 346.864 431.626 346.864 C 431.626 346.885 431.626 561.719 431.626 561.741 C 431.618 561.741 404.646 570.103 360.000 570.103 C 315.354 570.103 288.382 561.741 288.374 561.741 C 288.374 561.719 288.374 346.885 288.374 346.864 Z"/>
</g>
<g id="specs_2">
<path fill="#ff00ff" fill-rule="evenodd" stroke="none" d="M 296.855 555.500 C 296.867 555.500 423.133 555.500 423.145 555.500 C 423.145 555.480 423.145 359.319 423.145 359.300 C 423.133 359.300 296.867 359.300 296.855 359.300 C 296.855 359.319 296.855 555.480 296.855 555.500 Z"/>
<path fill="#ff0000" fill-rule="evenodd" stroke="none" d="M 360.000 681.384 C 360.001 681.387 371.117 712.511 371.118 712.514 C 371.117 712.513 360.001 702.171 360.000 702.170 C 359.999 702.171 348.883 712.513 348.882 712.514 C 348.883 712.511 359.999 681.387 360.000 681.384 Z"/>
<path fill="#0000ff" fill-rule="evenodd" stroke="none" d="M 360.000 6.635 C 360.001 6.637 366.457 24.716 366.458 24.718 C 366.457 24.717 360.001 18.710 360.000 18.709 C 359.999 18.710 353.543 24.717 353.542 24.718 C 353.543 24.716 359.999 6.637 360.000 6.635 Z"/>
<path fill="#00ff00" fill-rule="evenodd" stroke="none" d="M 257.998 454.113 C 257.999 454.112 276.046 447.564 276.048 447.563 C 276.047 447.564 270.072 454.051 270.072 454.052 C 270.072 454.052 276.112 460.478 276.113 460.479 C 276.111 460.478 258.000 454.113 257.998 454.113 Z"/>
<path fill="#ffff00" fill-rule="evenodd" stroke="none" d="M 260.480 620.690 C 260.482 620.687 274.906 589.283 274.907 589.280 C 274.907 589.281 275.667 605.140 275.667 605.141 C 275.668 605.141 291.539 605.526 291.541 605.526 C 291.538 605.527 260.484 620.689 260.480 620.690 Z"/>
<path fill="#ffff00" fill-rule="evenodd" stroke="none" d="M 459.520 620.306 C 459.518 620.303 444.467 589.193 444.466 589.190 C 444.466 589.192 444.025 605.062 444.025 605.064 C 444.023 605.064 428.162 605.767 428.160 605.767 C 428.164 605.769 459.516 620.304 459.520 620.306 Z"/>
<path fill="#00ff00" fill-rule="evenodd" stroke="none" d="M 462.002 454.113 C 462.001 454.112 443.954 447.564 443.952 447.563 C 443.953 447.564 449.928 454.051 449.928 454.052 C 449.928 454.052 443.888 460.478 443.887 460.479 C 443.889 460.478 462.001 454.113 462.002 454.113 Z"/>
<path fill="#00ffff" fill-rule="evenodd" stroke="none" d="M 393.449 209.960 C 393.448 209.961 387.857 225.747 387.857 225.749 C 387.857 225.748 386.798 218.128 386.798 218.127 C 386.797 218.127 379.121 218.634 379.120 218.634 C 379.122 218.633 393.447 209.961 393.449 209.960 Z"/>
<path fill="#00ffff" fill-rule="evenodd" stroke="none" d="M 326.552 210.483 C 326.552 210.485 333.183 225.862 333.183 225.864 C 333.184 225.863 333.732 218.189 333.732 218.189 C 333.732 218.189 341.425 218.183 341.426 218.183 C 341.425 218.182 326.553 210.484 326.552 210.483 Z"/>
<path fill="#be0027" fill-rule="evenodd" stroke="none" d="M 360.000 642.129 C 360.001 642.125 371.117 611.002 371.118 610.999 C 371.117 611.000 360.001 621.342 360.000 621.343 C 359.999 621.342 348.883 611.000 348.882 610.999 C 348.883 611.002 359.999 642.125 360.000 642.129 Z"/>
</g>
</g>
</svg>
