<?xml version="1.0" encoding="utf-8"?>
<!-- Generator: Moho 12.5 build 22414 -->
<!DOCTYPE svg PUBLIC "-//W3C//DTD SVG 1.1//EN" "http://www.w3.org/Graphics/SVG/1.1/DTD/svg11.dtd">
<svg version="1.1" id="Frame_0" xmlns="http://www.w3.org/2000/svg" xmlns:xlink="http://www.w3.org/1999/xlink" width="720px" height="720px">
<g id="branch">
<g id="branch">
<path fill="#ffffff" fill-rule="evenodd" stroke="#000000" stroke-width="4" stroke-linecap="round" stroke-linejoin="round" d="M 187.080 144.552 C 187.075 144.544 181.262 90.846 138.707 65.872 C 94.006 39.638 41.764 62.322 41.754 62.322 C 41.760 62.329 52.085 110.969 93.097 135.060 C 136.610 160.619 187.071 144.551 187.080 144.552 M 266.621 189.854 C 266.624 189.845 307.709 150.891 300.095 100.475 C 293.083 54.054 246.983 30.473 246.978 30.466 C 246.975 30.476 212.652 75.897 223.566 128.766 C 231.638 167.868 266.617 189.848 266.621 189.854 M 353.985 260.465 C 353.991 260.456 408.976 228.769 414.595 171.562 C 419.739 119.188 376.870 80.575 376.867 80.566 C 376.861 80.575 329.352 119.182 325.423 177.835 C 322.301 224.437 353.982 260.456 353.985 260.465 M 431.030 356.886 C 431.038 356.878 492.045 331.223 510.521 271.839 C 527.409 217.560 495.698 166.482 495.696 166.471 C 495.689 166.480 438.996 192.557 420.308 249.467 C 402.316 304.261 431.029 356.876 431.030 356.886 M 492.937 475.057 C 492.946 475.051 557.133 462.115 586.030 408.096 C 613.008 357.662 590.508 301.139 590.508 301.129 C 590.499 301.135 532.363 314.388 503.817 363.951 C 474.051 415.633 492.938 475.046 492.937 475.057 M 526.061 594.397 C 526.072 594.393 590.316 599.784 635.516 557.867 C 677.721 518.727 677.827 458.791 677.831 458.781 C 677.821 458.784 617.715 449.754 573.858 487.034 C 526.021 527.697 526.066 594.386 526.061 594.397 M 281.716 224.163 C 281.705 224.159 236.064 180.427 176.201 185.340 C 124.946 189.547 91.834 231.676 91.826 231.681 C 91.835 231.684 129.077 269.298 180.504 269.134 C 239.672 268.945 281.706 224.167 281.716 224.163 M 366.991 314.138 C 366.980 314.134 320.884 269.998 259.896 273.926 C 205.066 277.458 168.605 321.264 168.596 321.269 C 168.605 321.273 207.412 363.717 262.355 363.533 C 324.170 363.326 366.980 314.143 366.991 314.138 M 446.947 454.994 C 446.937 454.987 411.672 397.863 349.278 388.699 C 289.607 379.935 241.452 422.100 241.441 422.103 C 241.450 422.109 275.057 475.913 334.521 485.984 C 395.948 496.387 446.936 454.997 446.947 454.994 M 486.574 601.762 C 486.565 601.755 452.950 545.275 391.272 532.057 C 331.981 519.350 280.174 555.244 280.163 555.247 C 280.171 555.254 308.407 613.420 367.259 628.029 C 430.605 643.754 486.562 601.765 486.574 601.762 M 492.298 677.310 C 492.348 695.136 531.934 702.957 531.283 682.829 C 529.633 631.863 530.631 499.466 411.216 329.319 C 321.646 201.696 184.452 143.894 184.429 143.875 C 184.452 143.899 334.947 244.579 410.357 375.933 C 497.039 526.921 492.193 639.409 492.298 677.310 Z"/>
</g>
<g id="specs">
<path fill="#ff0000" fill-rule="evenodd" stroke="none" d="M 506.658 633.278 C 506.660 633.282 525.017 665.359 525.019 665.362 C 525.018 665.361 510.747 656.161 510.746 656.161 C 510.745 656.162 500.542 669.734 500.541 669.735 C 500.541 669.732 506.658 633.282 506.658 633.278 Z"/>
<path fill="#0000ff" fill-rule="evenodd" stroke="none" d="M 33.388 57.004 C 33.390 57.004 54.631 60.131 54.633 60.131 C 54.632 60.131 45.309 63.348 45.308 63.349 C 45.308 63.350 47.845 72.880 47.845 72.881 C 47.844 72.879 33.390 57.005 33.388 57.004 Z"/>
<path fill="#00ff00" fill-rule="evenodd" stroke="none" d="M 231.394 420.042 C 231.396 420.042 252.702 417.407 252.705 417.407 C 252.704 417.408 244.572 422.989 244.571 422.989 C 244.572 422.990 249.552 431.502 249.552 431.503 C 249.551 431.502 231.396 420.044 231.394 420.042 Z"/>
<path fill="#ffff00" fill-rule="evenodd" stroke="none" d="M 345.241 623.990 C 345.242 623.988 354.203 604.478 354.204 604.476 C 354.204 604.477 354.676 614.329 354.676 614.330 C 354.677 614.330 364.536 614.569 364.537 614.569 C 364.535 614.570 345.243 623.989 345.241 623.990 Z"/>
<path fill="#ffff00" fill-rule="evenodd" stroke="none" d="M 656.693 546.737 C 656.692 546.735 647.342 527.409 647.341 527.407 C 647.341 527.408 647.067 537.268 647.067 537.269 C 647.065 537.269 637.212 537.705 637.212 537.705 C 637.214 537.706 656.691 546.736 656.693 546.737 Z"/>
<path fill="#00ff00" fill-rule="evenodd" stroke="none" d="M 592.659 291.903 C 592.658 291.905 578.797 308.300 578.796 308.302 C 578.797 308.302 587.917 304.546 587.918 304.546 C 587.918 304.547 592.320 313.373 592.321 313.374 C 592.321 313.372 592.659 291.906 592.659 291.903 Z"/>
<path fill="#00ffff" fill-rule="evenodd" stroke="none" d="M 246.931 21.348 C 246.932 21.350 257.345 40.124 257.346 40.126 C 257.346 40.125 249.128 34.671 249.127 34.671 C 249.126 34.671 243.094 42.474 243.094 42.475 C 243.094 42.473 246.930 21.350 246.931 21.348 Z"/>
<path fill="#00ffff" fill-rule="evenodd" stroke="none" d="M 82.209 231.745 C 82.211 231.746 102.162 239.675 102.164 239.676 C 102.163 239.675 95.704 232.222 95.703 232.221 C 95.704 232.221 102.672 225.242 102.673 225.241 C 102.671 225.242 82.211 231.745 82.209 231.745 Z"/>
<path fill="#be0027" fill-rule="evenodd" stroke="none" d="M 513.536 708.930 C 513.537 708.927 522.581 683.604 522.582 683.601 C 522.581 683.602 513.537 692.017 513.536 692.018 C 513.535 692.017 504.491 683.602 504.490 683.601 C 504.491 683.604 513.535 708.927 513.536 708.930 Z"/>
</g>
</g>
</svg>
