<?xml version="1.0" encoding="utf-8"?>
<!-- Generator: Moho 12.5 build 22414 -->
<!DOCTYPE svg PUBLIC "-//W3C//DTD SVG 1.1//EN" "http://www.w3.org/Graphics/SVG/1.1/DTD/svg11.dtd">
<svg version="1.1" id="Frame_0" xmlns="http://www.w3.org/2000/svg" xmlns:xlink="http://www.w3.org/1999/xlink" width="720px" height="720px">
<g id="branch">
<g id="branch">
<path fill="#ffffff" fill-rule="evenodd" stroke="#000000" stroke-width="4" stroke-linecap="round" stroke-linejoin="round" d="M 198.162 166.763 C 198.156 166.754 186.771 104.573 135.170 75.223 C 83.568 45.874 24.305 67.872 24.293 67.871 C 24.300 67.880 35.684 130.061 87.285 159.411 C 138.887 188.761 198.151 166.763 198.162 166.763 M 284.042 195.605 C 284.042 195.594 307.322 136.822 279.100 84.595 C 250.879 32.369 188.959 19.636 188.950 19.629 C 188.951 19.640 165.671 78.412 193.892 130.639 C 222.114 182.866 284.033 195.599 284.042 195.605 M 381.279 278.664 C 381.282 278.653 423.141 227.558 411.657 166.602 C 400.173 105.646 342.592 73.285 342.585 73.276 C 342.582 73.287 300.723 124.382 312.207 185.338 C 323.691 246.294 381.272 278.655 381.279 278.664 M 444.867 362.610 C 444.875 362.601 505.688 332.838 520.992 271.126 C 536.296 209.414 496.435 154.685 496.433 154.673 C 496.425 154.683 435.612 184.445 420.308 246.158 C 405.004 307.870 444.865 362.599 444.867 362.610 M 499.339 479.719 C 499.349 479.712 569.464 465.100 601.282 405.844 C 633.100 346.588 606.548 280.070 606.548 280.057 C 606.538 280.065 536.423 294.676 504.605 353.933 C 472.787 413.189 499.339 479.707 499.339 479.719 M 531.544 594.922 C 531.556 594.918 602.304 606.067 653.034 561.908 C 703.765 517.748 702.474 446.139 702.479 446.127 C 702.466 446.130 631.718 434.981 580.988 479.140 C 530.257 523.300 531.549 594.910 531.544 594.922 M 266.261 227.886 C 266.251 227.881 222.998 181.409 163.458 184.467 C 103.918 187.525 65.654 238.183 65.644 238.189 C 65.654 238.193 108.907 284.665 168.447 281.607 C 227.987 278.549 266.251 227.891 266.261 227.886 M 363.365 329.448 C 363.355 329.443 322.965 280.463 263.348 279.947 C 203.732 279.431 162.501 327.705 162.491 327.710 C 162.501 327.715 202.891 376.695 262.507 377.211 C 322.123 377.727 363.355 329.453 363.365 329.448 M 439.946 464.544 C 439.935 464.537 403.391 404.620 338.230 394.736 C 273.068 384.852 220.399 431.236 220.387 431.239 C 220.397 431.246 256.942 491.163 322.103 501.047 C 387.265 510.932 439.934 464.548 439.946 464.544 M 478.368 610.817 C 478.358 610.808 446.653 545.680 380.664 529.169 C 314.675 512.658 256.034 555.181 256.021 555.183 C 256.031 555.191 287.737 620.319 353.726 636.831 C 419.715 653.342 478.356 610.819 478.368 610.817 M 492.298 686.111 C 492.348 703.938 531.934 711.758 531.283 691.630 C 529.633 640.665 530.848 508.115 411.216 338.121 C 331.977 225.524 211.668 173.534 211.648 173.518 C 211.668 173.539 343.514 266.732 410.357 384.734 C 496.167 536.220 492.193 648.210 492.298 686.111 Z"/>
<path fill="none" stroke="#000000" stroke-width="4" stroke-linecap="round" stroke-linejoin="round" d="M 535.769 592.646 C 535.776 592.639 557.167 542.400 613.438 517.411 C 662.220 495.749 690.432 459.031 690.440 459.025 "/>
<path fill="none" stroke="#000000" stroke-width="4" stroke-linecap="round" stroke-linejoin="round" d="M 501.670 475.384 C 501.674 475.374 504.214 420.829 548.246 377.795 C 586.419 340.489 600.064 296.240 600.069 296.232 "/>
<path fill="none" stroke="#000000" stroke-width="4" stroke-linecap="round" stroke-linejoin="round" d="M 445.205 360.163 C 445.207 360.153 434.461 306.617 466.760 254.200 C 494.761 208.759 497.283 162.523 497.287 162.514 "/>
<path fill="none" stroke="#000000" stroke-width="4" stroke-linecap="round" stroke-linejoin="round" d="M 380.290 272.136 C 380.288 272.126 349.219 230.292 355.759 171.901 C 361.428 121.281 344.783 80.346 344.782 80.337 "/>
<path fill="none" stroke="#000000" stroke-width="4" stroke-linecap="round" stroke-linejoin="round" d="M 282.247 191.759 C 282.242 191.750 243.041 163.541 232.399 110.134 C 223.173 63.835 196.963 32.364 196.959 32.356 "/>
<path fill="none" stroke="#000000" stroke-width="4" stroke-linecap="round" stroke-linejoin="round" d="M 261.993 228.543 C 261.984 228.544 217.088 210.743 166.373 230.581 C 122.407 247.779 81.770 242.678 81.762 242.679 "/>
<path fill="none" stroke="#000000" stroke-width="4" stroke-linecap="round" stroke-linejoin="round" d="M 194.490 164.300 C 194.482 164.295 167.413 124.297 114.335 112.122 C 68.320 101.567 37.617 74.462 37.609 74.458 "/>
<path fill="none" stroke="#000000" stroke-width="4" stroke-linecap="round" stroke-linejoin="round" d="M 360.228 329.761 C 360.218 329.760 316.824 308.560 264.734 324.439 C 219.576 338.205 179.452 329.994 179.443 329.994 "/>
<path fill="none" stroke="#000000" stroke-width="4" stroke-linecap="round" stroke-linejoin="round" d="M 436.697 463.459 C 436.686 463.457 390.980 432.424 329.422 441.971 C 276.056 450.248 231.950 434.454 231.940 434.453 "/>
<path fill="none" stroke="#000000" stroke-width="4" stroke-linecap="round" stroke-linejoin="round" d="M 474.309 609.987 C 474.298 609.984 430.196 573.770 365.978 577.812 C 310.307 581.315 266.420 560.928 266.410 560.926 "/>
</g>
<g id="specs">
<path fill="#ff0000" fill-rule="evenodd" stroke="none" d="M 510.237 641.873 C 510.239 641.876 525.022 675.750 525.023 675.753 C 525.022 675.752 511.829 665.064 511.828 665.063 C 511.827 665.064 500.217 677.454 500.216 677.455 C 500.217 677.451 510.236 641.876 510.237 641.873 Z"/>
<path fill="#0000ff" fill-rule="evenodd" stroke="none" d="M 26.526 68.624 C 26.528 68.625 47.399 73.656 47.401 73.656 C 47.400 73.657 37.825 76.019 37.824 76.019 C 37.824 76.020 39.491 85.741 39.491 85.742 C 39.489 85.740 26.527 68.626 26.526 68.624 Z"/>
<path fill="#00ff00" fill-rule="evenodd" stroke="none" d="M 225.699 431.691 C 225.702 431.691 247.008 429.056 247.010 429.056 C 247.010 429.056 238.877 434.637 238.877 434.638 C 238.877 434.639 243.858 443.151 243.858 443.152 C 243.856 443.151 225.701 431.692 225.699 431.691 Z"/>
<path fill="#ffff00" fill-rule="evenodd" stroke="none" d="M 345.241 632.791 C 345.242 632.789 354.203 613.280 354.204 613.278 C 354.204 613.279 354.676 623.130 354.676 623.131 C 354.677 623.131 364.536 623.370 364.537 623.370 C 364.535 623.371 345.243 632.790 345.241 632.791 Z"/>
<path fill="#ffff00" fill-rule="evenodd" stroke="none" d="M 661.438 559.335 C 661.437 559.333 652.087 540.007 652.086 540.005 C 652.086 540.006 651.812 549.865 651.812 549.866 C 651.811 549.866 641.958 550.303 641.957 550.303 C 641.959 550.304 661.436 559.334 661.438 559.335 Z"/>
<path fill="#00ff00" fill-rule="evenodd" stroke="none" d="M 604.997 285.520 C 604.995 285.522 591.135 301.917 591.134 301.918 C 591.134 301.918 600.255 298.163 600.256 298.163 C 600.256 298.164 604.658 306.989 604.658 306.990 C 604.658 306.988 604.997 285.522 604.997 285.520 Z"/>
<path fill="#00ffff" fill-rule="evenodd" stroke="none" d="M 190.171 21.528 C 190.172 21.529 207.073 34.768 207.075 34.769 C 207.074 34.769 197.381 32.945 197.380 32.944 C 197.380 32.945 194.862 42.481 194.862 42.482 C 194.861 42.480 190.171 21.530 190.171 21.528 Z"/>
<path fill="#00ffff" fill-rule="evenodd" stroke="none" d="M 67.973 237.699 C 67.975 237.700 87.926 245.630 87.928 245.630 C 87.927 245.630 81.468 238.176 81.467 238.176 C 81.468 238.175 88.436 231.196 88.437 231.195 C 88.435 231.196 67.975 237.699 67.973 237.699 Z"/>
</g>
</g>
</svg>
