<?xml version="1.0" encoding="utf-8"?>
<!-- Generator: Moho 12.5 build 22414 -->
<!DOCTYPE svg PUBLIC "-//W3C//DTD SVG 1.1//EN" "http://www.w3.org/Graphics/SVG/1.1/DTD/svg11.dtd">
<svg version="1.1" id="Frame_0" xmlns="http://www.w3.org/2000/svg" xmlns:xlink="http://www.w3.org/1999/xlink" width="720px" height="720px">
<g id="branch">
<g id="branch">
<path fill="#ffffff" fill-rule="evenodd" stroke="#000000" stroke-width="4" stroke-linecap="round" stroke-linejoin="round" d="M 187.080 153.353 C 187.075 153.345 181.262 99.648 138.707 74.673 C 94.006 48.439 41.764 71.123 41.754 71.123 C 41.760 71.130 52.085 119.770 93.097 143.861 C 136.610 169.420 187.071 153.352 187.080 153.353 M 266.621 198.655 C 266.624 198.646 307.709 159.693 300.095 109.277 C 293.083 62.855 246.983 39.275 246.978 39.268 C 246.975 39.278 212.652 84.698 223.566 137.567 C 231.638 176.669 266.617 198.649 266.621 198.655 M 353.985 269.266 C 353.991 269.257 408.976 237.570 414.595 180.363 C 419.739 127.989 376.870 89.376 376.867 89.367 C 376.861 89.377 329.352 127.983 325.423 186.636 C 322.301 233.238 353.982 269.258 353.985 269.266 M 431.030 365.688 C 431.038 365.679 492.045 340.024 510.521 280.640 C 527.409 226.362 495.698 175.283 495.696 175.273 C 495.689 175.281 438.996 201.358 420.308 258.269 C 402.316 313.062 431.029 365.677 431.030 365.688 M 492.937 483.859 C 492.946 483.852 557.133 470.917 586.030 416.897 C 613.008 366.464 590.508 309.941 590.508 309.930 C 590.499 309.936 532.363 323.190 503.817 372.753 C 474.051 424.434 492.938 483.848 492.937 483.859 M 526.061 603.198 C 526.072 603.194 590.316 608.586 635.516 566.668 C 677.721 527.528 677.827 467.592 677.831 467.582 C 677.821 467.585 617.715 458.556 573.858 495.835 C 526.021 536.498 526.066 603.187 526.061 603.198 M 281.716 232.964 C 281.705 232.960 236.064 189.228 176.201 194.142 C 124.946 198.349 91.834 240.478 91.826 240.482 C 91.835 240.486 129.077 278.099 180.504 277.935 C 239.672 277.747 281.706 232.969 281.716 232.964 M 366.991 322.940 C 366.980 322.936 320.884 278.799 259.896 282.728 C 205.066 286.259 168.605 330.066 168.596 330.071 C 168.605 330.075 207.412 372.518 262.355 372.334 C 324.170 372.127 366.980 322.945 366.991 322.940 M 446.947 463.795 C 446.937 463.789 411.672 406.664 349.278 397.500 C 289.607 388.736 241.452 430.901 241.441 430.904 C 241.450 430.911 275.057 484.715 334.521 494.785 C 395.948 505.188 446.936 463.799 446.947 463.795 M 486.574 610.564 C 486.565 610.557 452.950 554.077 391.272 540.859 C 331.981 528.152 280.174 564.046 280.163 564.048 C 280.171 564.055 308.407 622.221 367.259 636.831 C 430.605 652.556 486.562 610.566 486.574 610.564 M 492.298 686.111 C 492.348 703.938 531.934 711.758 531.283 691.630 C 529.633 640.665 530.631 508.268 411.216 338.121 C 321.646 210.497 184.452 152.695 184.429 152.677 C 184.452 152.700 334.947 253.380 410.357 384.734 C 497.039 535.722 492.193 648.210 492.298 686.111 Z"/>
</g>
<g id="specs">
<path fill="#ff0000" fill-rule="evenodd" stroke="none" d="M 505.609 642.504 C 505.611 642.507 525.748 673.498 525.750 673.501 C 525.749 673.501 510.982 665.120 510.981 665.120 C 510.980 665.121 501.558 679.247 501.557 679.248 C 501.558 679.244 505.609 642.508 505.609 642.504 Z"/>
<path fill="#0000ff" fill-rule="evenodd" stroke="none" d="M 33.388 65.805 C 33.390 65.806 54.631 68.932 54.633 68.933 C 54.632 68.933 45.309 72.150 45.308 72.150 C 45.308 72.151 47.845 81.681 47.845 81.682 C 47.844 81.681 33.390 65.807 33.388 65.805 Z"/>
<path fill="#00ff00" fill-rule="evenodd" stroke="none" d="M 231.394 428.844 C 231.396 428.844 252.702 426.209 252.705 426.209 C 252.704 426.209 244.572 431.790 244.571 431.790 C 244.572 431.791 249.552 440.304 249.552 440.305 C 249.551 440.304 231.396 428.845 231.394 428.844 Z"/>
<path fill="#ffff00" fill-rule="evenodd" stroke="none" d="M 345.241 632.791 C 345.242 632.789 354.203 613.280 354.204 613.278 C 354.204 613.279 354.676 623.130 354.676 623.131 C 354.677 623.131 364.536 623.370 364.537 623.370 C 364.535 623.371 345.243 632.790 345.241 632.791 Z"/>
<path fill="#ffff00" fill-rule="evenodd" stroke="none" d="M 656.693 555.539 C 656.692 555.537 647.342 536.211 647.341 536.209 C 647.341 536.210 647.067 546.069 647.067 546.070 C 647.065 546.070 637.212 546.507 637.212 546.507 C 637.214 546.508 656.691 555.538 656.693 555.539 Z"/>
<path fill="#00ff00" fill-rule="evenodd" stroke="none" d="M 592.659 300.705 C 592.658 300.706 578.797 317.102 578.796 317.103 C 578.797 317.103 587.917 313.348 587.918 313.348 C 587.918 313.348 592.320 322.174 592.321 322.175 C 592.321 322.173 592.659 300.707 592.659 300.705 Z"/>
<path fill="#00ffff" fill-rule="evenodd" stroke="none" d="M 246.931 30.149 C 246.932 30.151 257.345 48.925 257.346 48.927 C 257.346 48.927 249.128 43.473 249.127 43.472 C 249.126 43.473 243.094 51.276 243.094 51.276 C 243.094 51.274 246.930 30.151 246.931 30.149 Z"/>
<path fill="#00ffff" fill-rule="evenodd" stroke="none" d="M 82.209 240.547 C 82.211 240.547 102.162 248.477 102.164 248.478 C 102.163 248.477 95.704 241.024 95.703 241.023 C 95.704 241.022 102.672 234.043 102.673 234.042 C 102.671 234.043 82.211 240.546 82.209 240.547 Z"/>
</g>
</g>
</svg>
