<?xml version="1.0" encoding="utf-8"?>
<!-- Generator: Moho 12.5 build 22414 -->
<!DOCTYPE svg PUBLIC "-//W3C//DTD SVG 1.1//EN" "http://www.w3.org/Graphics/SVG/1.1/DTD/svg11.dtd">
<svg version="1.1" id="Frame_0" xmlns="http://www.w3.org/2000/svg" xmlns:xlink="http://www.w3.org/1999/xlink" width="720px" height="720px">
<g id="branch">
<g id="branch">
<path fill="#ffffff" fill-rule="evenodd" stroke="#000000" stroke-width="4" stroke-linecap="round" stroke-linejoin="round" d="M 187.080 153.353 C 187.075 153.345 181.262 99.648 138.707 74.673 C 94.006 48.439 41.764 71.123 41.754 71.123 C 41.760 71.130 52.085 119.770 93.097 143.861 C 136.610 169.420 187.071 153.352 187.080 153.353 M 276.879 194.552 C 276.881 194.543 312.516 154.829 300.095 109.277 C 286.939 61.029 232.623 44.403 232.617 44.397 C 232.616 44.406 207.085 90.352 223.566 137.567 C 237.306 176.927 276.873 194.546 276.879 194.552 M 369.372 271.318 C 369.376 271.308 416.188 234.606 414.595 180.363 C 412.986 125.596 363.536 91.428 363.531 91.419 C 363.527 91.428 322.557 131.920 325.423 186.636 C 328.088 237.536 369.367 271.309 369.372 271.318 M 442.313 362.610 C 442.320 362.602 496.809 335.935 510.521 280.640 C 524.233 225.346 488.518 176.309 488.516 176.299 C 488.509 176.307 434.020 202.974 420.308 258.269 C 406.596 313.563 442.311 362.600 442.313 362.610 M 498.066 474.627 C 498.075 474.621 558.255 465.766 586.030 416.897 C 614.291 367.172 590.508 309.941 590.508 309.930 C 590.499 309.936 531.126 322.498 503.817 372.753 C 477.790 420.649 498.066 474.617 498.066 474.627 M 533.241 597.043 C 533.252 597.040 592.948 604.571 635.516 566.668 C 678.505 528.391 677.827 467.592 677.831 467.582 C 677.821 467.585 616.879 457.595 573.858 495.835 C 530.314 534.541 533.245 597.033 533.241 597.043 M 265.303 231.939 C 265.294 231.935 227.841 191.517 176.201 194.142 C 124.840 196.753 91.834 240.478 91.826 240.482 C 91.835 240.486 129.138 280.433 180.504 277.935 C 231.981 275.432 265.295 231.943 265.303 231.939 M 353.656 324.991 C 353.646 324.987 314.819 281.220 259.896 282.728 C 204.973 284.235 168.605 330.066 168.596 330.071 C 168.605 330.075 207.433 373.842 262.355 372.334 C 317.278 370.827 353.647 324.996 353.656 324.991 M 437.715 459.692 C 437.706 459.686 406.314 406.610 349.278 397.500 C 289.722 387.988 241.452 430.901 241.441 430.904 C 241.450 430.911 274.759 486.663 334.521 494.785 C 392.221 502.627 437.705 459.696 437.715 459.692 M 478.368 613.641 C 478.359 613.634 450.096 555.577 391.272 540.859 C 332.448 526.140 280.174 564.046 280.163 564.048 C 280.171 564.055 308.435 622.112 367.259 636.831 C 426.083 651.549 478.357 613.643 478.368 613.641 M 492.298 686.111 C 492.348 703.938 531.934 711.758 531.283 691.630 C 529.633 640.665 530.631 508.268 411.216 338.121 C 321.646 210.497 184.452 152.695 184.429 152.677 C 184.452 152.700 334.947 253.380 410.357 384.734 C 497.039 535.722 492.193 648.210 492.298 686.111 Z"/>
<path fill="#000000" d="M 524.089 608.516 C 523.736 609.057 542.504 566.921 591.653 536.440 L 593.760 539.847 C 545.428 569.658 527.398 610.678 527.031 611.233 L 524.089 608.516 Z"/>
<path fill="#000000" d="M 591.653 536.440 C 623.368 516.838 646.206 496.347 646.211 496.343 L 646.211 496.343 C 646.206 496.347 625.834 519.994 593.760 539.847 L 591.653 536.440 Z"/>
<path fill="none" stroke="#000000" stroke-width="1" stroke-linecap="butt" stroke-linejoin="round" d="M 591.653 536.440 L 593.760 539.847 "/>
<path fill="#000000" d="M 492.941 491.553 C 492.760 492.351 493.697 447.994 528.884 413.676 L 531.673 416.551 C 497.337 449.667 496.765 492.421 496.577 493.234 L 492.941 491.553 Z"/>
<path fill="#000000" d="M 528.884 413.676 C 563.575 380.089 579.332 341.850 579.337 341.843 L 579.337 341.843 C 579.332 341.850 566.903 382.317 531.673 416.551 L 528.884 413.676 Z"/>
<path fill="none" stroke="#000000" stroke-width="1" stroke-linecap="butt" stroke-linejoin="round" d="M 528.884 413.676 L 531.673 416.551 "/>
<path fill="#000000" d="M 441.226 386.577 C 441.211 387.228 434.793 340.974 459.649 291.466 L 463.227 293.268 C 438.726 341.732 445.177 386.668 445.158 387.338 L 441.226 386.577 Z"/>
<path fill="#000000" d="M 459.649 291.466 C 480.200 250.775 482.081 212.279 482.083 212.271 L 482.083 212.271 C 482.081 212.279 484.078 251.775 463.227 293.268 L 459.649 291.466 Z"/>
<path fill="none" stroke="#000000" stroke-width="1" stroke-linecap="butt" stroke-linejoin="round" d="M 459.649 291.466 L 463.227 293.268 "/>
<path fill="#000000" d="M 372.996 291.668 C 373.193 292.371 353.349 251.672 364.854 194.996 L 368.778 195.798 C 357.340 251.332 376.788 290.605 376.987 291.326 L 372.996 291.668 Z"/>
<path fill="#000000" d="M 364.854 194.996 C 373.111 154.776 368.278 120.427 368.278 120.419 L 368.278 120.419 C 368.278 120.427 377.116 154.854 368.778 195.798 L 364.854 194.996 Z"/>
<path fill="none" stroke="#000000" stroke-width="1" stroke-linecap="butt" stroke-linejoin="round" d="M 364.854 194.996 L 368.778 195.798 "/>
<path fill="#000000" d="M 284.522 213.292 C 284.806 213.813 263.663 185.728 259.431 143.502 L 263.417 143.108 C 267.431 184.370 288.000 211.396 288.289 211.931 L 284.522 213.292 Z"/>
<path fill="#000000" d="M 259.431 143.502 C 255.058 99.030 243.954 72.445 243.952 72.438 L 243.952 72.438 C 243.954 72.445 258.947 98.072 263.417 143.108 L 259.431 143.502 Z"/>
<path fill="none" stroke="#000000" stroke-width="1" stroke-linecap="butt" stroke-linejoin="round" d="M 259.431 143.502 L 263.417 143.108 "/>
<path fill="#000000" d="M 285.059 235.332 C 284.580 235.301 251.900 229.138 201.325 239.454 L 200.527 235.529 C 251.702 225.137 285.316 231.364 284.854 231.332 L 285.059 235.332 Z"/>
<path fill="#000000" d="M 201.325 239.454 C 164.162 246.996 132.908 241.297 132.901 241.297 L 132.901 241.297 C 132.908 241.297 163.938 242.997 200.527 235.529 L 201.325 239.454 Z"/>
<path fill="none" stroke="#000000" stroke-width="1" stroke-linecap="butt" stroke-linejoin="round" d="M 201.325 239.454 L 200.527 235.529 "/>
<path fill="#000000" d="M 182.305 153.515 C 181.773 152.985 164.896 127.989 126.152 115.407 L 127.396 111.600 C 167.142 124.672 185.082 150.728 184.561 150.206 L 182.305 153.515 Z"/>
<path fill="#000000" d="M 126.152 115.407 C 92.422 104.358 70.046 84.549 70.041 84.546 L 70.041 84.546 C 70.046 84.549 94.243 100.790 127.396 111.600 L 126.152 115.407 Z"/>
<path fill="none" stroke="#000000" stroke-width="1" stroke-linecap="butt" stroke-linejoin="round" d="M 126.152 115.407 L 127.396 111.600 "/>
<path fill="#000000" d="M 375.201 335.896 C 374.448 335.655 339.113 315.770 294.214 326.389 L 293.302 322.489 C 339.574 311.792 376.398 332.157 375.661 331.917 L 375.201 335.896 Z"/>
<path fill="#000000" d="M 294.214 326.389 C 246.090 337.611 204.331 329.994 204.322 329.994 L 204.322 329.994 C 204.331 329.994 245.842 333.614 293.302 322.489 L 294.214 326.389 Z"/>
<path fill="none" stroke="#000000" stroke-width="1" stroke-linecap="butt" stroke-linejoin="round" d="M 294.214 326.389 L 293.302 322.489 "/>
<path fill="#000000" d="M 450.207 468.591 C 449.461 468.208 421.200 444.861 380.782 449.490 L 380.340 445.509 C 422.255 440.997 451.997 465.107 451.265 464.728 L 450.207 468.591 Z"/>
<path fill="#000000" d="M 380.782 449.490 C 324.382 455.713 278.943 438.600 278.933 438.600 L 278.933 438.600 C 278.943 438.600 324.731 451.723 380.340 445.509 L 380.782 449.490 Z"/>
<path fill="none" stroke="#000000" stroke-width="1" stroke-linecap="butt" stroke-linejoin="round" d="M 380.782 449.490 L 380.340 445.509 "/>
<path fill="#000000" d="M 489.515 623.682 C 488.901 623.349 459.023 599.434 410.080 596.396 L 410.334 592.399 C 460.321 595.645 491.394 620.214 490.795 619.886 L 489.515 623.682 Z"/>
<path fill="#000000" d="M 410.080 596.396 C 358.574 593.102 319.365 574.956 319.356 574.954 L 319.356 574.954 C 319.365 574.956 359.412 589.186 410.334 592.399 L 410.080 596.396 Z"/>
<path fill="none" stroke="#000000" stroke-width="1" stroke-linecap="butt" stroke-linejoin="round" d="M 410.080 596.396 L 410.334 592.399 "/>
</g>
<g id="specs">
<path fill="#ff0000" fill-rule="evenodd" stroke="none" d="M 505.609 642.504 C 505.611 642.507 525.748 673.498 525.750 673.501 C 525.749 673.501 510.982 665.121 510.981 665.120 C 510.980 665.121 501.558 679.247 501.557 679.248 C 501.558 679.244 505.609 642.508 505.609 642.504 Z"/>
<path fill="#0000ff" fill-rule="evenodd" stroke="none" d="M 33.388 65.805 C 33.390 65.805 54.631 68.932 54.633 68.933 C 54.632 68.933 45.308 72.150 45.308 72.150 C 45.308 72.151 47.845 81.681 47.845 81.682 C 47.844 81.681 33.390 65.807 33.388 65.805 Z"/>
<path fill="#00ff00" fill-rule="evenodd" stroke="none" d="M 231.394 428.844 C 231.396 428.844 252.702 426.209 252.705 426.209 C 252.704 426.209 244.572 431.790 244.571 431.791 C 244.572 431.791 249.552 440.304 249.552 440.305 C 249.551 440.304 231.396 428.845 231.394 428.844 Z"/>
<path fill="#ffff00" fill-rule="evenodd" stroke="none" d="M 345.241 632.791 C 345.242 632.789 354.203 613.280 354.204 613.278 C 354.204 613.279 354.676 623.130 354.676 623.131 C 354.677 623.131 364.536 623.370 364.537 623.370 C 364.535 623.371 345.243 632.790 345.241 632.791 Z"/>
<path fill="#ffff00" fill-rule="evenodd" stroke="none" d="M 656.693 555.539 C 656.692 555.537 647.342 536.211 647.341 536.209 C 647.341 536.210 647.067 546.069 647.067 546.070 C 647.066 546.070 637.212 546.507 637.212 546.507 C 637.214 546.508 656.691 555.538 656.693 555.539 Z"/>
<path fill="#00ff00" fill-rule="evenodd" stroke="none" d="M 592.659 300.705 C 592.658 300.706 578.797 317.102 578.796 317.103 C 578.797 317.103 587.917 313.348 587.918 313.347 C 587.918 313.348 592.320 322.174 592.321 322.175 C 592.321 322.173 592.659 300.707 592.659 300.705 Z"/>
<path fill="#00ffff" fill-rule="evenodd" stroke="none" d="M 232.450 33.726 C 232.451 33.728 244.765 51.314 244.767 51.316 C 244.766 51.316 236.024 46.748 236.023 46.747 C 236.023 46.748 230.837 55.138 230.837 55.138 C 230.837 55.136 232.450 33.728 232.450 33.726 Z"/>
<path fill="#00ffff" fill-rule="evenodd" stroke="none" d="M 82.209 240.547 C 82.211 240.547 102.162 248.477 102.164 248.478 C 102.163 248.477 95.704 241.024 95.703 241.023 C 95.704 241.022 102.672 234.043 102.673 234.042 C 102.671 234.043 82.211 240.546 82.209 240.547 Z"/>
</g>
</g>
</svg>
