<?xml version="1.0" encoding="utf-8"?>
<!-- Generator: Moho 12.5 build 22414 -->
<!DOCTYPE svg PUBLIC "-//W3C//DTD SVG 1.1//EN" "http://www.w3.org/Graphics/SVG/1.1/DTD/svg11.dtd">
<svg version="1.1" id="Frame_0" xmlns="http://www.w3.org/2000/svg" xmlns:xlink="http://www.w3.org/1999/xlink" width="720px" height="720px">
<g id="castle_tower">
<g id="castle_tower">
<path fill="#ffffff" fill-rule="evenodd" stroke="#000000" stroke-width="4" stroke-linecap="round" stroke-linejoin="round" d="M 300.178 496.633 C 300.178 496.651 300.178 676.082 300.178 676.100 C 300.190 676.100 419.811 676.100 419.822 676.100 C 419.822 676.082 419.822 496.651 419.822 496.633 C 419.817 496.625 360.006 416.878 360.000 416.870 C 359.994 416.878 300.184 496.625 300.178 496.633 M 343.862 334.165 C 343.862 334.152 343.862 205.075 343.862 205.062 C 343.864 205.061 359.998 188.926 360.000 188.925 C 360.002 188.926 376.136 205.061 376.138 205.062 C 376.138 205.075 376.138 334.152 376.138 334.165 C 376.135 334.165 343.865 334.165 343.862 334.165 M 240.355 676.100 C 240.355 676.046 240.355 137.753 240.355 137.699 C 240.353 137.695 220.416 97.822 220.414 97.818 C 220.414 97.810 220.414 18.062 220.414 18.054 C 220.418 18.054 260.292 18.054 260.296 18.054 C 260.296 18.058 260.296 57.932 260.296 57.936 C 260.300 57.936 300.174 57.936 300.178 57.936 C 300.178 57.932 300.178 18.058 300.178 18.054 C 300.182 18.054 340.055 18.054 340.059 18.054 C 340.059 18.058 340.059 57.932 340.059 57.936 C 340.063 57.936 379.937 57.936 379.941 57.936 C 379.941 57.932 379.941 18.058 379.941 18.054 C 379.945 18.054 419.818 18.054 419.822 18.054 C 419.822 18.058 419.822 57.932 419.822 57.936 C 419.826 57.936 459.700 57.936 459.704 57.936 C 459.704 57.932 459.704 18.058 459.704 18.054 C 459.708 18.054 499.581 18.054 499.585 18.054 C 499.585 18.062 499.585 97.810 499.585 97.818 C 499.583 97.822 479.647 137.695 479.645 137.699 C 479.645 137.753 479.645 676.046 479.645 676.100 C 479.621 676.100 240.379 676.100 240.355 676.100 Z"/>
<path fill="none" stroke="#000000" stroke-width="4" stroke-linecap="round" stroke-linejoin="round" d="M 260.296 137.699 C 326.765 137.699 393.234 137.699 459.704 137.699 M 240.355 97.817 C 320.118 97.817 399.882 97.817 479.645 97.817 "/>
</g>
<g id="specs">
<path fill="#ff00ff" fill-rule="evenodd" stroke="none" d="M 301.605 670.012 C 301.617 670.012 418.383 670.012 418.395 670.012 C 418.395 669.995 418.395 496.829 418.395 496.812 C 418.383 496.812 301.617 496.812 301.605 496.812 C 301.605 496.829 301.605 669.995 301.605 670.012 Z"/>
<path fill="#ff0000" fill-rule="evenodd" stroke="none" d="M 360.000 682.202 C 360.001 682.205 372.379 716.865 372.381 716.868 C 372.379 716.867 360.001 705.350 360.000 705.349 C 359.999 705.350 347.621 716.867 347.619 716.868 C 347.621 716.865 359.999 682.205 360.000 682.202 Z"/>
<path fill="#0000ff" fill-rule="evenodd" stroke="none" d="M 360.000 3.407 C 360.001 3.409 367.191 23.543 367.192 23.545 C 367.191 23.544 360.001 16.853 360.000 16.853 C 359.999 16.853 352.809 23.544 352.808 23.545 C 352.809 23.543 359.999 3.409 360.000 3.407 Z"/>
<path fill="#00ff00" fill-rule="evenodd" stroke="none" d="M 226.339 358.048 C 226.341 358.047 246.438 350.755 246.440 350.754 C 246.439 350.755 239.786 357.979 239.785 357.980 C 239.786 357.981 246.512 365.137 246.513 365.138 C 246.511 365.137 226.341 358.049 226.339 358.048 Z"/>
<path fill="#ffff00" fill-rule="evenodd" stroke="none" d="M 232.147 683.537 C 232.148 683.535 241.071 664.108 241.072 664.106 C 241.072 664.107 241.542 673.917 241.542 673.918 C 241.543 673.918 251.361 674.156 251.362 674.156 C 251.360 674.157 232.149 683.536 232.147 683.537 Z"/>
<path fill="#ffff00" fill-rule="evenodd" stroke="none" d="M 488.209 683.299 C 488.208 683.297 478.897 664.052 478.896 664.050 C 478.896 664.051 478.623 673.869 478.623 673.870 C 478.622 673.870 468.811 674.305 468.810 674.305 C 468.812 674.306 488.207 683.298 488.209 683.299 Z"/>
<path fill="#00ff00" fill-rule="evenodd" stroke="none" d="M 493.739 358.048 C 493.737 358.047 473.640 350.755 473.638 350.754 C 473.639 350.755 480.293 357.979 480.293 357.980 C 480.293 357.981 473.566 365.137 473.566 365.138 C 473.568 365.137 493.737 358.049 493.739 358.048 Z"/>
<path fill="#00ffff" fill-rule="evenodd" stroke="none" d="M 509.209 61.652 C 509.208 61.654 496.479 78.831 496.478 78.832 C 496.478 78.831 498.036 69.134 498.036 69.133 C 498.035 69.133 488.476 66.880 488.475 66.879 C 488.477 66.879 509.207 61.653 509.209 61.652 Z"/>
<path fill="#00ffff" fill-rule="evenodd" stroke="none" d="M 210.106 61.652 C 210.108 61.654 222.837 78.831 222.838 78.832 C 222.838 78.831 221.279 69.134 221.279 69.133 C 221.280 69.133 230.839 66.880 230.840 66.879 C 230.838 66.879 210.108 61.653 210.106 61.652 Z"/>
<path fill="#0000ff" fill-rule="evenodd" stroke="none" d="M 360.000 68.124 C 360.001 68.126 367.191 88.260 367.192 88.262 C 367.191 88.261 360.001 81.571 360.000 81.570 C 359.999 81.571 352.809 88.261 352.808 88.262 C 352.809 88.260 359.999 68.126 360.000 68.124 Z"/>
<path fill="#be0027" fill-rule="evenodd" stroke="none" d="M 359.958 690.479 C 359.959 690.476 368.965 665.259 368.965 665.256 C 368.965 665.257 359.959 673.637 359.958 673.638 C 359.957 673.637 350.951 665.257 350.950 665.256 C 350.951 665.259 359.957 690.476 359.958 690.479 Z"/>
</g>
</g>
</svg>
