<?xml version="1.0" encoding="utf-8"?>
<!-- Generator: Moho 12.5 build 22414 -->
<!DOCTYPE svg PUBLIC "-//W3C//DTD SVG 1.1//EN" "http://www.w3.org/Graphics/SVG/1.1/DTD/svg11.dtd">
<svg version="1.1" id="Frame_0" xmlns="http://www.w3.org/2000/svg" xmlns:xlink="http://www.w3.org/1999/xlink" width="720px" height="720px">
<g id="castle_tower_pointy">
<g id="castle_tower">
<path fill="#ffffff" fill-rule="evenodd" stroke="#000000" stroke-width="4" stroke-linecap="round" stroke-linejoin="round" d="M 358.998 15.838 C 359.007 15.856 445.799 200.429 445.808 200.447 C 445.790 200.447 272.205 200.447 272.188 200.447 C 272.197 200.429 358.989 15.856 358.998 15.838 Z"/>
<path fill="#ffffff" fill-rule="evenodd" stroke="#000000" stroke-width="4" stroke-linecap="round" stroke-linejoin="round" d="M 347.227 585.036 C 347.227 585.026 347.227 482.865 347.227 482.854 C 347.228 482.853 359.999 470.083 360.000 470.082 C 360.001 470.083 372.771 482.853 372.773 482.854 C 372.773 482.865 372.773 585.026 372.773 585.036 C 372.770 585.036 347.229 585.036 347.227 585.036 M 347.227 410.673 C 347.227 410.663 347.227 308.501 347.227 308.491 C 347.228 308.490 359.999 295.719 360.000 295.718 C 360.001 295.719 372.771 308.490 372.773 308.491 C 372.773 308.501 372.773 410.663 372.773 410.673 C 372.770 410.673 347.229 410.673 347.227 410.673 M 265.304 681.307 C 265.304 681.264 265.304 255.217 265.304 255.174 C 265.302 255.171 249.523 223.612 249.521 223.609 C 249.521 223.603 249.521 160.484 249.521 160.478 C 249.524 160.478 281.083 160.478 281.086 160.478 C 281.086 160.481 281.086 192.040 281.086 192.044 C 281.089 192.044 312.649 192.044 312.652 192.044 C 312.652 192.040 312.652 160.481 312.652 160.478 C 312.655 160.478 344.214 160.478 344.217 160.478 C 344.217 160.481 344.217 192.040 344.217 192.044 C 344.220 192.044 375.780 192.044 375.783 192.044 C 375.783 192.040 375.783 160.481 375.783 160.478 C 375.786 160.478 407.345 160.478 407.348 160.478 C 407.348 160.481 407.348 192.040 407.348 192.044 C 407.351 192.044 438.910 192.044 438.913 192.044 C 438.913 192.040 438.913 160.481 438.913 160.478 C 438.917 160.478 470.475 160.478 470.478 160.478 C 470.478 160.484 470.478 223.603 470.478 223.609 C 470.477 223.612 454.698 255.171 454.696 255.174 C 454.696 255.217 454.696 681.264 454.696 681.307 C 454.677 681.307 265.323 681.307 265.304 681.307 Z"/>
<path fill="none" stroke="#000000" stroke-width="4" stroke-linecap="round" stroke-linejoin="round" d="M 281.086 255.174 C 333.695 255.174 386.304 255.174 438.913 255.174 M 265.304 223.609 C 328.434 223.609 391.565 223.609 454.696 223.609 "/>
<path fill="none" stroke="#000000" stroke-width="1" stroke-linecap="butt" stroke-linejoin="round" d="M 347.227 585.036 C 347.227 585.026 347.227 482.865 347.227 482.854 "/>
<path fill="none" stroke="#000000" stroke-width="1" stroke-linecap="butt" stroke-linejoin="round" d="M 347.227 482.854 C 347.228 482.853 359.999 470.083 360.000 470.082 "/>
<path fill="none" stroke="#000000" stroke-width="1" stroke-linecap="butt" stroke-linejoin="round" d="M 360.000 470.082 C 360.001 470.083 372.771 482.853 372.773 482.854 "/>
<path fill="none" stroke="#000000" stroke-width="1" stroke-linecap="butt" stroke-linejoin="round" d="M 372.773 482.854 C 372.773 482.865 372.773 585.026 372.773 585.036 "/>
<path fill="none" stroke="#000000" stroke-width="1" stroke-linecap="butt" stroke-linejoin="round" d="M 372.773 585.036 C 372.770 585.036 347.229 585.036 347.227 585.036 "/>
<path fill="none" stroke="#000000" stroke-width="1" stroke-linecap="butt" stroke-linejoin="round" d="M 347.227 410.673 C 347.227 410.663 347.227 308.501 347.227 308.491 "/>
<path fill="none" stroke="#000000" stroke-width="1" stroke-linecap="butt" stroke-linejoin="round" d="M 347.227 308.491 C 347.228 308.490 359.999 295.719 360.000 295.718 "/>
<path fill="none" stroke="#000000" stroke-width="1" stroke-linecap="butt" stroke-linejoin="round" d="M 360.000 295.718 C 360.001 295.719 372.771 308.490 372.773 308.491 "/>
<path fill="none" stroke="#000000" stroke-width="1" stroke-linecap="butt" stroke-linejoin="round" d="M 372.773 308.491 C 372.773 308.501 372.773 410.663 372.773 410.673 "/>
<path fill="none" stroke="#000000" stroke-width="1" stroke-linecap="butt" stroke-linejoin="round" d="M 372.773 410.673 C 372.770 410.673 347.229 410.673 347.227 410.673 "/>
<path fill="#000000" fill-rule="evenodd" stroke="none" d="M 347.227 585.036 C 347.227 585.026 347.227 482.865 347.227 482.854 C 347.228 482.853 359.999 470.083 360.000 470.082 C 360.001 470.083 372.771 482.853 372.773 482.854 C 372.773 482.865 372.773 585.026 372.773 585.036 C 372.770 585.036 347.229 585.036 347.227 585.036 M 347.227 410.673 C 347.227 410.663 347.227 308.501 347.227 308.491 C 347.228 308.490 359.999 295.719 360.000 295.718 C 360.001 295.719 372.771 308.490 372.773 308.491 C 372.773 308.501 372.773 410.663 372.773 410.673 C 372.770 410.673 347.229 410.673 347.227 410.673 Z"/>
</g>
<g id="specs">
<path fill="#ff0000" fill-rule="evenodd" stroke="none" d="M 360.000 679.595 C 360.001 679.599 372.255 713.910 372.256 713.914 C 372.255 713.913 360.001 702.511 360.000 702.510 C 359.999 702.511 347.745 713.913 347.744 713.914 C 347.745 713.910 359.999 679.599 360.000 679.595 Z"/>
<path fill="#0000ff" fill-rule="evenodd" stroke="none" d="M 360.000 6.058 C 360.001 6.060 367.119 25.991 367.119 25.993 C 367.119 25.992 360.001 19.369 360.000 19.369 C 359.999 19.369 352.881 25.992 352.881 25.993 C 352.881 25.991 359.999 6.060 360.000 6.058 Z"/>
<path fill="#00ff00" fill-rule="evenodd" stroke="none" d="M 250.729 343.569 C 250.731 343.568 270.626 336.350 270.628 336.349 C 270.627 336.350 264.040 343.501 264.040 343.502 C 264.040 343.503 270.699 350.587 270.700 350.588 C 270.698 350.587 250.731 343.570 250.729 343.569 Z"/>
<path fill="#ffff00" fill-rule="evenodd" stroke="none" d="M 259.485 685.833 C 259.486 685.831 268.319 666.598 268.320 666.596 C 268.320 666.597 268.785 676.309 268.785 676.310 C 268.786 676.310 278.506 676.546 278.507 676.546 C 278.505 676.547 259.487 685.832 259.485 685.833 Z"/>
<path fill="#ffff00" fill-rule="evenodd" stroke="none" d="M 459.866 685.597 C 459.865 685.596 450.647 666.544 450.646 666.542 C 450.646 666.543 450.376 676.262 450.376 676.263 C 450.375 676.263 440.662 676.693 440.661 676.694 C 440.663 676.694 459.864 685.597 459.866 685.597 Z"/>
<path fill="#00ff00" fill-rule="evenodd" stroke="none" d="M 469.348 343.569 C 469.346 343.568 449.451 336.350 449.449 336.349 C 449.450 336.350 456.037 343.501 456.038 343.502 C 456.037 343.503 449.378 350.587 449.378 350.588 C 449.380 350.587 469.346 343.570 469.348 343.569 Z"/>
<path fill="#00ffff" fill-rule="evenodd" stroke="none" d="M 422.534 116.287 C 422.532 116.288 409.931 133.292 409.930 133.294 C 409.930 133.293 411.473 123.693 411.473 123.692 C 411.472 123.692 402.009 121.461 402.008 121.461 C 402.010 121.461 422.532 116.287 422.534 116.287 Z"/>
<path fill="#00ffff" fill-rule="evenodd" stroke="none" d="M 296.788 116.287 C 296.790 116.288 309.391 133.292 309.392 133.294 C 309.392 133.293 307.849 123.693 307.849 123.692 C 307.850 123.692 317.314 121.461 317.314 121.461 C 317.312 121.461 296.790 116.287 296.788 116.287 Z"/>
<path fill="#be0027" fill-rule="evenodd" stroke="none" d="M 359.958 694.185 C 359.959 694.183 368.875 669.218 368.875 669.216 C 368.875 669.217 359.959 677.512 359.958 677.513 C 359.957 677.512 351.042 669.217 351.041 669.216 C 351.042 669.218 359.957 694.183 359.958 694.185 Z"/>
</g>
</g>
</svg>
