<?xml version="1.0" encoding="utf-8"?>
<!-- Generator: Moho 12.5 build 22414 -->
<!DOCTYPE svg PUBLIC "-//W3C//DTD SVG 1.1//EN" "http://www.w3.org/Graphics/SVG/1.1/DTD/svg11.dtd">
<svg version="1.1" id="Frame_0" xmlns="http://www.w3.org/2000/svg" xmlns:xlink="http://www.w3.org/1999/xlink" width="720px" height="720px">
<g id="castle_tower">
<g id="castle_tower">
<path fill="#000000" fill-rule="evenodd" stroke="none" d="M 299.925 507.290 C 299.925 507.308 299.925 687.496 299.925 687.514 C 299.937 687.514 420.063 687.514 420.075 687.514 C 420.075 687.496 420.075 507.308 420.075 507.290 C 420.069 507.282 360.006 427.198 360.000 427.190 C 359.994 427.198 299.931 507.282 299.925 507.290 M 343.794 344.137 C 343.794 344.124 343.794 214.502 343.794 214.489 C 343.796 214.488 359.998 198.285 360.000 198.283 C 360.002 198.285 376.205 214.488 376.206 214.489 C 376.206 214.502 376.206 344.124 376.206 344.137 C 376.203 344.137 343.797 344.137 343.794 344.137 Z"/>
<path fill="none" stroke="#ffffff" stroke-width="1" stroke-linecap="butt" stroke-linejoin="round" d="M 299.925 507.290 C 299.925 507.308 299.925 687.496 299.925 687.514 "/>
<path fill="none" stroke="#ffffff" stroke-width="1" stroke-linecap="butt" stroke-linejoin="round" d="M 299.925 687.514 C 299.937 687.514 420.063 687.514 420.075 687.514 "/>
<path fill="none" stroke="#ffffff" stroke-width="1" stroke-linecap="butt" stroke-linejoin="round" d="M 420.075 687.514 C 420.075 687.496 420.075 507.308 420.075 507.290 "/>
<path fill="none" stroke="#ffffff" stroke-width="1" stroke-linecap="butt" stroke-linejoin="round" d="M 420.075 507.290 C 420.069 507.282 360.006 427.198 360.000 427.190 "/>
<path fill="none" stroke="#ffffff" stroke-width="1" stroke-linecap="butt" stroke-linejoin="round" d="M 360.000 427.190 C 359.994 427.198 299.931 507.282 299.925 507.290 "/>
<path fill="none" stroke="#ffffff" stroke-width="1" stroke-linecap="butt" stroke-linejoin="round" d="M 343.794 344.137 C 343.794 344.124 343.794 214.502 343.794 214.489 "/>
<path fill="none" stroke="#ffffff" stroke-width="1" stroke-linecap="butt" stroke-linejoin="round" d="M 343.794 214.489 C 343.796 214.488 359.998 198.285 360.000 198.283 "/>
<path fill="none" stroke="#ffffff" stroke-width="1" stroke-linecap="butt" stroke-linejoin="round" d="M 360.000 198.283 C 360.002 198.285 376.205 214.488 376.206 214.489 "/>
<path fill="none" stroke="#ffffff" stroke-width="1" stroke-linecap="butt" stroke-linejoin="round" d="M 376.206 214.489 C 376.206 214.502 376.206 344.124 376.206 344.137 "/>
<path fill="none" stroke="#ffffff" stroke-width="1" stroke-linecap="butt" stroke-linejoin="round" d="M 376.206 344.137 C 376.203 344.137 343.797 344.137 343.794 344.137 "/>
<path fill="#ffffff" fill-rule="evenodd" stroke="#000000" stroke-width="4" stroke-linecap="round" stroke-linejoin="round" d="M 299.925 507.290 C 299.925 507.308 299.925 687.496 299.925 687.514 C 299.937 687.514 420.063 687.514 420.075 687.514 C 420.075 687.496 420.075 507.308 420.075 507.290 C 420.069 507.282 360.006 427.198 360.000 427.190 C 359.994 427.198 299.931 507.282 299.925 507.290 M 343.794 344.137 C 343.794 344.124 343.794 214.502 343.794 214.489 C 343.796 214.488 359.998 198.285 360.000 198.283 C 360.002 198.285 376.205 214.488 376.206 214.489 C 376.206 214.502 376.206 344.124 376.206 344.137 C 376.203 344.137 343.797 344.137 343.794 344.137 M 239.851 687.514 C 239.851 687.460 239.851 146.896 239.851 146.842 C 239.849 146.838 219.828 106.796 219.826 106.792 C 219.826 106.784 219.826 26.700 219.826 26.692 C 219.830 26.692 259.871 26.692 259.875 26.692 C 259.875 26.696 259.875 66.738 259.875 66.742 C 259.879 66.742 299.921 66.742 299.925 66.742 C 299.925 66.738 299.925 26.696 299.925 26.692 C 299.929 26.692 339.971 26.692 339.975 26.692 C 339.975 26.696 339.975 66.738 339.975 66.742 C 339.979 66.742 380.021 66.742 380.025 66.742 C 380.025 66.738 380.025 26.696 380.025 26.692 C 380.029 26.692 420.071 26.692 420.075 26.692 C 420.075 26.696 420.074 66.738 420.074 66.742 C 420.079 66.742 460.120 66.742 460.124 66.742 C 460.124 66.738 460.124 26.696 460.124 26.692 C 460.128 26.692 500.170 26.692 500.174 26.692 C 500.174 26.700 500.174 106.784 500.174 106.792 C 500.172 106.796 480.151 146.838 480.149 146.842 C 480.149 146.896 480.149 687.460 480.149 687.514 C 480.125 687.514 239.875 687.514 239.851 687.514 Z"/>
<path fill="none" stroke="#000000" stroke-width="4" stroke-linecap="round" stroke-linejoin="round" d="M 259.875 146.842 C 326.625 146.842 393.375 146.842 460.124 146.842 M 239.850 106.792 C 319.950 106.792 400.050 106.792 480.149 106.792 "/>
</g>
<g id="specs">
<path fill="#ff00ff" fill-rule="evenodd" stroke="none" d="M 305.182 681.401 C 305.193 681.401 414.807 681.401 414.818 681.401 C 414.818 681.383 414.818 507.487 414.818 507.470 C 414.807 507.470 305.193 507.470 305.182 507.470 C 305.182 507.487 305.182 681.383 305.182 681.401 Z"/>
<path fill="#ff0000" fill-rule="evenodd" stroke="none" d="M 360.000 674.512 C 360.001 674.515 372.432 709.321 372.433 709.325 C 372.432 709.323 360.001 697.758 360.000 697.756 C 359.999 697.758 347.568 709.323 347.567 709.325 C 347.568 709.321 359.999 674.515 360.000 674.512 Z"/>
<path fill="#0000ff" fill-rule="evenodd" stroke="none" d="M 360.000 11.983 C 360.001 11.985 367.221 32.203 367.222 32.206 C 367.221 32.205 360.001 25.486 360.000 25.486 C 359.999 25.486 352.779 32.205 352.778 32.206 C 352.779 32.203 359.999 11.985 360.000 11.983 Z"/>
<path fill="#00ff00" fill-rule="evenodd" stroke="none" d="M 225.776 368.120 C 225.778 368.119 245.959 360.797 245.961 360.796 C 245.960 360.797 239.279 368.051 239.278 368.052 C 239.279 368.053 246.033 375.239 246.034 375.240 C 246.032 375.239 225.778 368.121 225.776 368.120 Z"/>
<path fill="#ffff00" fill-rule="evenodd" stroke="none" d="M 231.608 694.982 C 231.609 694.980 240.570 675.471 240.570 675.469 C 240.571 675.470 241.042 685.322 241.042 685.323 C 241.043 685.323 250.903 685.562 250.904 685.562 C 250.902 685.563 231.610 694.981 231.608 694.982 Z"/>
<path fill="#ffff00" fill-rule="evenodd" stroke="none" d="M 488.750 694.744 C 488.749 694.742 479.399 675.416 479.398 675.414 C 479.398 675.415 479.124 685.274 479.124 685.275 C 479.123 685.275 469.270 685.712 469.269 685.712 C 469.271 685.713 488.748 694.743 488.750 694.744 Z"/>
<path fill="#00ff00" fill-rule="evenodd" stroke="none" d="M 494.303 368.120 C 494.301 368.119 474.120 360.797 474.118 360.796 C 474.118 360.797 480.800 368.051 480.801 368.052 C 480.800 368.053 474.046 375.239 474.045 375.240 C 474.047 375.239 494.301 368.121 494.303 368.120 Z"/>
<path fill="#00ffff" fill-rule="evenodd" stroke="none" d="M 509.839 70.474 C 509.838 70.476 497.055 87.725 497.053 87.727 C 497.053 87.726 498.619 77.988 498.619 77.987 C 498.618 77.986 489.018 75.724 489.017 75.723 C 489.019 75.723 509.837 70.475 509.839 70.474 Z"/>
<path fill="#00ffff" fill-rule="evenodd" stroke="none" d="M 209.474 70.474 C 209.475 70.476 222.258 87.725 222.259 87.727 C 222.259 87.726 220.694 77.988 220.694 77.987 C 220.695 77.986 230.295 75.724 230.296 75.723 C 230.293 75.723 209.476 70.475 209.474 70.474 Z"/>
<path fill="#0000ff" fill-rule="evenodd" stroke="none" d="M 360.000 76.973 C 360.001 76.975 367.221 97.194 367.222 97.196 C 367.221 97.195 360.001 90.476 360.000 90.476 C 359.999 90.476 352.779 97.195 352.778 97.196 C 352.779 97.194 359.999 76.975 360.000 76.973 Z"/>
</g>
</g>
</svg>
