<?xml version="1.0" encoding="utf-8"?>
<!-- Generator: Moho 12.5 build 22414 -->
<!DOCTYPE svg PUBLIC "-//W3C//DTD SVG 1.1//EN" "http://www.w3.org/Graphics/SVG/1.1/DTD/svg11.dtd">
<svg version="1.1" id="Frame_0" xmlns="http://www.w3.org/2000/svg" xmlns:xlink="http://www.w3.org/1999/xlink" width="720px" height="720px">
<g id="castle_tower_2">
<g id="castle_tower">
<path fill="#ffffff" fill-rule="evenodd" stroke="#000000" stroke-width="4" stroke-linecap="round" stroke-linejoin="round" d="M 358.984 29.570 C 358.992 29.589 447.035 216.819 447.044 216.838 C 447.026 216.838 270.941 216.838 270.923 216.838 C 270.932 216.819 358.975 29.589 358.984 29.570 Z"/>
<path fill="#ffffff" fill-rule="evenodd" stroke="#000000" stroke-width="4" stroke-linecap="round" stroke-linejoin="round" d="M 347.043 606.966 C 347.043 606.955 347.043 503.323 347.043 503.312 C 347.044 503.311 359.999 490.357 360.000 490.356 C 360.001 490.357 372.955 503.311 372.957 503.312 C 372.957 503.323 372.957 606.955 372.957 606.966 C 372.954 606.966 347.046 606.966 347.043 606.966 M 347.043 430.091 C 347.043 430.081 347.043 326.448 347.043 326.438 C 347.044 326.436 359.999 313.482 360.000 313.481 C 360.001 313.482 372.955 326.436 372.957 326.438 C 372.957 326.448 372.957 430.081 372.957 430.091 C 372.954 430.091 347.046 430.091 347.043 430.091 M 263.940 704.623 C 263.940 704.579 263.940 272.396 263.940 272.353 C 263.939 272.350 247.932 240.337 247.930 240.333 C 247.930 240.327 247.930 176.300 247.930 176.293 C 247.933 176.293 279.947 176.293 279.950 176.293 C 279.950 176.296 279.950 208.310 279.950 208.313 C 279.953 208.313 311.967 208.313 311.970 208.313 C 311.970 208.310 311.970 176.296 311.970 176.293 C 311.973 176.293 343.987 176.293 343.990 176.293 C 343.990 176.296 343.990 208.310 343.990 208.313 C 343.993 208.313 376.007 208.313 376.010 208.313 C 376.010 208.310 376.010 176.296 376.010 176.293 C 376.013 176.293 408.027 176.293 408.030 176.293 C 408.030 176.296 408.030 208.310 408.030 208.313 C 408.033 208.313 440.047 208.313 440.050 208.313 C 440.050 208.310 440.050 176.296 440.050 176.293 C 440.053 176.293 472.066 176.293 472.070 176.293 C 472.070 176.300 472.070 240.327 472.070 240.333 C 472.068 240.337 456.061 272.350 456.060 272.353 C 456.060 272.396 456.060 704.579 456.060 704.623 C 456.041 704.623 263.959 704.623 263.940 704.623 Z"/>
<path fill="none" stroke="#000000" stroke-width="4" stroke-linecap="round" stroke-linejoin="round" d="M 279.950 272.353 C 333.316 272.353 386.683 272.353 440.050 272.353 M 263.940 240.333 C 327.980 240.333 392.020 240.333 456.060 240.333 "/>
</g>
<g id="specs">
<path fill="#ff00ff" fill-rule="evenodd" stroke="none" d="M 333.080 173.610 C 333.085 173.610 386.915 173.610 386.920 173.610 C 386.920 173.601 386.920 88.203 386.920 88.194 C 386.915 88.194 333.085 88.194 333.080 88.194 C 333.080 88.203 333.080 173.601 333.080 173.610 Z"/>
<path fill="#ff0000" fill-rule="evenodd" stroke="none" d="M 360.000 682.022 C 360.001 682.025 372.432 716.831 372.433 716.835 C 372.432 716.833 360.001 705.268 360.000 705.266 C 359.999 705.268 347.568 716.833 347.567 716.835 C 347.568 716.831 359.999 682.025 360.000 682.022 Z"/>
<path fill="#0000ff" fill-rule="evenodd" stroke="none" d="M 360.000 7.460 C 360.001 7.462 367.221 27.680 367.222 27.682 C 367.221 27.682 360.001 20.963 360.000 20.962 C 359.999 20.963 352.779 27.682 352.778 27.682 C 352.779 27.680 359.999 7.462 360.000 7.460 Z"/>
<path fill="#00ff00" fill-rule="evenodd" stroke="none" d="M 249.155 362.021 C 249.157 362.020 269.339 354.698 269.341 354.697 C 269.340 354.698 262.659 361.952 262.658 361.953 C 262.659 361.954 269.413 369.140 269.414 369.141 C 269.412 369.140 249.157 362.022 249.155 362.021 Z"/>
<path fill="#ffff00" fill-rule="evenodd" stroke="none" d="M 258.038 709.214 C 258.039 709.212 266.999 689.702 267.000 689.700 C 267.000 689.701 267.472 699.553 267.472 699.554 C 267.473 699.554 277.333 699.793 277.333 699.793 C 277.332 699.794 258.040 709.213 258.038 709.214 Z"/>
<path fill="#ffff00" fill-rule="evenodd" stroke="none" d="M 461.304 708.975 C 461.303 708.973 451.953 689.647 451.952 689.645 C 451.952 689.646 451.678 699.505 451.678 699.506 C 451.677 699.506 441.824 699.943 441.823 699.943 C 441.825 699.944 461.302 708.974 461.304 708.975 Z"/>
<path fill="#00ff00" fill-rule="evenodd" stroke="none" d="M 470.923 362.021 C 470.921 362.020 450.740 354.698 450.737 354.697 C 450.738 354.698 457.420 361.952 457.421 361.953 C 457.420 361.954 450.665 369.140 450.665 369.141 C 450.667 369.140 470.921 362.022 470.923 362.021 Z"/>
<path fill="#00ffff" fill-rule="evenodd" stroke="none" d="M 423.434 131.465 C 423.433 131.467 410.650 148.716 410.649 148.718 C 410.649 148.717 412.214 138.979 412.214 138.978 C 412.214 138.977 402.614 136.715 402.613 136.715 C 402.615 136.714 423.432 131.466 423.434 131.465 Z"/>
<path fill="#00ffff" fill-rule="evenodd" stroke="none" d="M 295.878 131.465 C 295.879 131.467 308.662 148.716 308.664 148.718 C 308.664 148.717 307.098 138.979 307.098 138.978 C 307.099 138.978 316.699 136.715 316.700 136.715 C 316.698 136.714 295.880 131.466 295.878 131.465 Z"/>
</g>
</g>
</svg>
