<?xml version="1.0" encoding="utf-8"?>
<!-- Generator: Moho 12.5 build 22414 -->
<!DOCTYPE svg PUBLIC "-//W3C//DTD SVG 1.1//EN" "http://www.w3.org/Graphics/SVG/1.1/DTD/svg11.dtd">
<svg version="1.1" id="Frame_0" xmlns="http://www.w3.org/2000/svg" xmlns:xlink="http://www.w3.org/1999/xlink" width="720px" height="720px">
<g id="castle_tower_2">
<g id="castle_tower">
<path fill="#000000" fill-rule="evenodd" stroke="none" d="M 347.043 597.589 C 347.043 597.579 347.043 493.946 347.043 493.936 C 347.044 493.935 359.999 480.980 360.000 480.979 C 360.001 480.980 372.955 493.935 372.957 493.936 C 372.957 493.946 372.957 597.579 372.957 597.589 C 372.954 597.589 347.046 597.589 347.043 597.589 M 347.043 420.715 C 347.043 420.704 347.043 317.072 347.043 317.061 C 347.044 317.060 359.999 304.106 360.000 304.105 C 360.001 304.106 372.955 317.060 372.957 317.061 C 372.957 317.072 372.957 420.704 372.957 420.715 C 372.954 420.715 347.046 420.715 347.043 420.715 Z"/>
<path fill="#ffffff" fill-rule="evenodd" stroke="#000000" stroke-width="4" stroke-linecap="round" stroke-linejoin="round" d="M 358.984 20.194 C 358.992 20.213 447.035 207.443 447.044 207.461 C 447.026 207.461 270.941 207.461 270.923 207.461 C 270.932 207.443 358.975 20.213 358.984 20.194 Z"/>
<path fill="none" stroke="#ffffff" stroke-width="1" stroke-linecap="butt" stroke-linejoin="round" d="M 347.043 597.589 C 347.043 597.579 347.043 493.946 347.043 493.936 "/>
<path fill="none" stroke="#ffffff" stroke-width="1" stroke-linecap="butt" stroke-linejoin="round" d="M 347.043 493.936 C 347.044 493.935 359.999 480.980 360.000 480.979 "/>
<path fill="none" stroke="#ffffff" stroke-width="1" stroke-linecap="butt" stroke-linejoin="round" d="M 360.000 480.979 C 360.001 480.980 372.955 493.935 372.957 493.936 "/>
<path fill="none" stroke="#ffffff" stroke-width="1" stroke-linecap="butt" stroke-linejoin="round" d="M 372.957 493.936 C 372.957 493.946 372.957 597.579 372.957 597.589 "/>
<path fill="none" stroke="#ffffff" stroke-width="1" stroke-linecap="butt" stroke-linejoin="round" d="M 372.957 597.589 C 372.954 597.589 347.046 597.589 347.043 597.589 "/>
<path fill="none" stroke="#ffffff" stroke-width="1" stroke-linecap="butt" stroke-linejoin="round" d="M 347.043 420.715 C 347.043 420.704 347.043 317.072 347.043 317.061 "/>
<path fill="none" stroke="#ffffff" stroke-width="1" stroke-linecap="butt" stroke-linejoin="round" d="M 347.043 317.061 C 347.044 317.060 359.999 304.106 360.000 304.105 "/>
<path fill="none" stroke="#ffffff" stroke-width="1" stroke-linecap="butt" stroke-linejoin="round" d="M 360.000 304.105 C 360.001 304.106 372.955 317.060 372.957 317.061 "/>
<path fill="none" stroke="#ffffff" stroke-width="1" stroke-linecap="butt" stroke-linejoin="round" d="M 372.957 317.061 C 372.957 317.072 372.957 420.704 372.957 420.715 "/>
<path fill="none" stroke="#ffffff" stroke-width="1" stroke-linecap="butt" stroke-linejoin="round" d="M 372.957 420.715 C 372.954 420.715 347.046 420.715 347.043 420.715 "/>
<path fill="#ffffff" fill-rule="evenodd" stroke="#000000" stroke-width="4" stroke-linecap="round" stroke-linejoin="round" d="M 347.043 597.589 C 347.043 597.579 347.043 493.946 347.043 493.936 C 347.044 493.935 359.999 480.980 360.000 480.979 C 360.001 480.980 372.955 493.935 372.957 493.936 C 372.957 493.946 372.957 597.579 372.957 597.589 C 372.954 597.589 347.046 597.589 347.043 597.589 M 347.043 420.715 C 347.043 420.704 347.043 317.072 347.043 317.061 C 347.044 317.060 359.999 304.106 360.000 304.105 C 360.001 304.106 372.955 317.060 372.957 317.061 C 372.957 317.072 372.957 420.704 372.957 420.715 C 372.954 420.715 347.046 420.715 347.043 420.715 M 263.940 695.246 C 263.940 695.203 263.940 263.020 263.940 262.977 C 263.939 262.973 247.932 230.960 247.930 230.957 C 247.930 230.951 247.930 166.923 247.930 166.917 C 247.933 166.917 279.947 166.917 279.950 166.917 C 279.950 166.920 279.950 198.934 279.950 198.937 C 279.953 198.937 311.967 198.937 311.970 198.937 C 311.970 198.934 311.970 166.920 311.970 166.917 C 311.973 166.917 343.987 166.917 343.990 166.917 C 343.990 166.920 343.990 198.934 343.990 198.937 C 343.993 198.937 376.007 198.937 376.010 198.937 C 376.010 198.934 376.010 166.920 376.010 166.917 C 376.013 166.917 408.027 166.917 408.030 166.917 C 408.030 166.920 408.030 198.934 408.030 198.937 C 408.033 198.937 440.047 198.937 440.050 198.937 C 440.050 198.934 440.050 166.920 440.050 166.917 C 440.053 166.917 472.066 166.917 472.070 166.917 C 472.070 166.923 472.070 230.951 472.070 230.957 C 472.068 230.960 456.061 262.973 456.060 262.977 C 456.060 263.020 456.060 695.203 456.060 695.246 C 456.041 695.246 263.959 695.246 263.940 695.246 Z"/>
<path fill="none" stroke="#000000" stroke-width="4" stroke-linecap="round" stroke-linejoin="round" d="M 279.950 262.977 C 333.316 262.977 386.683 262.977 440.050 262.977 M 263.940 230.957 C 327.980 230.957 392.020 230.957 456.060 230.957 "/>
</g>
<g id="specs">
<path fill="#ff00ff" fill-rule="evenodd" stroke="none" d="M 333.080 164.233 C 333.085 164.233 386.915 164.233 386.920 164.233 C 386.920 164.225 386.920 78.826 386.920 78.818 C 386.915 78.818 333.085 78.818 333.080 78.818 C 333.080 78.826 333.080 164.225 333.080 164.233 Z"/>
<path fill="#ff0000" fill-rule="evenodd" stroke="none" d="M 360.000 680.147 C 360.001 680.150 372.432 714.956 372.433 714.959 C 372.432 714.958 360.001 703.392 360.000 703.391 C 359.999 703.392 347.568 714.958 347.567 714.959 C 347.568 714.956 359.999 680.150 360.000 680.147 Z"/>
<path fill="#0000ff" fill-rule="evenodd" stroke="none" d="M 360.000 10.273 C 360.001 10.275 367.221 30.493 367.222 30.495 C 367.221 30.494 360.001 23.776 360.000 23.775 C 359.999 23.776 352.779 30.494 352.778 30.495 C 352.779 30.493 359.999 10.275 360.000 10.273 Z"/>
<path fill="#00ff00" fill-rule="evenodd" stroke="none" d="M 249.155 352.645 C 249.157 352.644 269.339 345.321 269.341 345.320 C 269.340 345.321 262.659 352.576 262.658 352.577 C 262.659 352.577 269.413 359.764 269.414 359.765 C 269.412 359.764 249.157 352.645 249.155 352.645 Z"/>
<path fill="#ffff00" fill-rule="evenodd" stroke="none" d="M 258.038 699.837 C 258.039 699.835 266.999 680.326 267.000 680.324 C 267.000 680.325 267.472 690.177 267.472 690.178 C 267.473 690.178 277.333 690.417 277.333 690.417 C 277.332 690.418 258.040 699.836 258.038 699.837 Z"/>
<path fill="#ffff00" fill-rule="evenodd" stroke="none" d="M 461.304 699.599 C 461.303 699.597 451.953 680.270 451.952 680.268 C 451.952 680.269 451.678 690.129 451.678 690.130 C 451.677 690.130 441.824 690.566 441.823 690.567 C 441.825 690.567 461.302 699.598 461.304 699.599 Z"/>
<path fill="#00ff00" fill-rule="evenodd" stroke="none" d="M 470.923 352.645 C 470.921 352.644 450.740 345.321 450.737 345.320 C 450.738 345.321 457.420 352.576 457.421 352.577 C 457.420 352.577 450.665 359.764 450.665 359.765 C 450.667 359.764 470.921 352.645 470.923 352.645 Z"/>
<path fill="#00ffff" fill-rule="evenodd" stroke="none" d="M 423.434 122.089 C 423.433 122.091 410.650 139.340 410.649 139.342 C 410.649 139.341 412.214 129.602 412.214 129.601 C 412.214 129.601 402.614 127.339 402.613 127.338 C 402.615 127.338 423.432 122.090 423.434 122.089 Z"/>
<path fill="#00ffff" fill-rule="evenodd" stroke="none" d="M 295.878 122.089 C 295.879 122.091 308.662 139.340 308.664 139.342 C 308.664 139.341 307.098 129.602 307.098 129.601 C 307.099 129.601 316.699 127.338 316.700 127.338 C 316.698 127.338 295.880 122.090 295.878 122.089 Z"/>
</g>
</g>
</svg>
