<?xml version="1.0" encoding="utf-8"?>
<!-- Generator: Moho 12.5 build 22414 -->
<!DOCTYPE svg PUBLIC "-//W3C//DTD SVG 1.1//EN" "http://www.w3.org/Graphics/SVG/1.1/DTD/svg11.dtd">
<svg version="1.1" id="Frame_0" xmlns="http://www.w3.org/2000/svg" xmlns:xlink="http://www.w3.org/1999/xlink" width="720px" height="720px">
<g id="castle_tower_pointy">
<g id="castle_tower">
<path fill="#ffffff" fill-rule="evenodd" stroke="#000000" stroke-width="4" stroke-linecap="round" stroke-linejoin="round" d="M 358.998 15.838 C 359.007 15.856 445.799 200.429 445.808 200.447 C 445.790 200.447 272.205 200.447 272.188 200.447 C 272.197 200.429 358.989 15.856 358.998 15.838 Z"/>
<path fill="#ffffff" fill-rule="evenodd" stroke="#000000" stroke-width="4" stroke-linecap="round" stroke-linejoin="round" d="M 265.304 255.174 C 265.302 255.171 249.523 223.612 249.521 223.609 C 249.521 223.603 249.521 160.484 249.521 160.478 C 249.524 160.478 281.083 160.478 281.086 160.478 C 281.086 160.481 281.086 192.040 281.086 192.044 C 281.089 192.044 312.649 192.044 312.652 192.044 C 312.652 192.040 312.652 160.481 312.652 160.478 C 312.655 160.478 344.214 160.478 344.217 160.478 C 344.217 160.481 344.217 192.040 344.217 192.044 C 344.220 192.044 375.780 192.044 375.783 192.044 C 375.783 192.040 375.783 160.481 375.783 160.478 C 375.786 160.478 407.345 160.478 407.348 160.478 C 407.348 160.481 407.348 192.040 407.348 192.044 C 407.351 192.044 438.910 192.044 438.913 192.044 C 438.913 192.040 438.913 160.481 438.913 160.478 C 438.917 160.478 470.475 160.478 470.478 160.478 C 470.478 160.484 470.478 223.603 470.478 223.609 C 470.477 223.612 454.698 255.171 454.696 255.174 C 454.696 255.217 454.696 681.264 454.696 681.307 C 454.677 681.307 265.323 681.307 265.304 681.307 C 265.304 681.264 265.304 255.217 265.304 255.174 Z"/>
<path fill="none" stroke="#000000" stroke-width="4" stroke-linecap="round" stroke-linejoin="round" d="M 281.086 255.174 C 333.695 255.174 386.304 255.174 438.913 255.174 M 265.304 223.609 C 328.434 223.609 391.565 223.609 454.696 223.609 "/>
</g>
<g id="windows">
<path fill="#000000" fill-rule="evenodd" stroke="none" d="M 347.227 585.036 C 347.227 585.026 347.227 482.865 347.227 482.854 C 347.228 482.853 359.999 470.083 360.000 470.082 C 360.001 470.083 372.771 482.853 372.773 482.854 C 372.773 482.865 372.773 585.026 372.773 585.036 C 372.770 585.036 347.229 585.036 347.227 585.036 M 347.227 410.673 C 347.227 410.663 347.227 308.501 347.227 308.491 C 347.228 308.490 359.999 295.719 360.000 295.718 C 360.001 295.719 372.771 308.490 372.773 308.491 C 372.773 308.501 372.773 410.663 372.773 410.673 C 372.770 410.673 347.229 410.673 347.227 410.673 Z"/>
</g>
<g id="specs">
<path fill="#ff0000" fill-rule="evenodd" stroke="none" d="M 360.000 679.595 C 360.001 679.599 372.255 713.910 372.256 713.914 C 372.255 713.913 360.001 702.511 360.000 702.510 C 359.999 702.511 347.745 713.913 347.744 713.914 C 347.745 713.910 359.999 679.599 360.000 679.595 Z"/>
<path fill="#0000ff" fill-rule="evenodd" stroke="none" d="M 360.000 6.058 C 360.001 6.060 367.119 25.991 367.119 25.993 C 367.119 25.992 360.001 19.369 360.000 19.369 C 359.999 19.369 352.881 25.992 352.881 25.993 C 352.881 25.991 359.999 6.060 360.000 6.058 Z"/>
<path fill="#00ff00" fill-rule="evenodd" stroke="none" d="M 250.729 343.569 C 250.731 343.568 270.626 336.350 270.628 336.349 C 270.627 336.350 264.040 343.501 264.040 343.502 C 264.040 343.503 270.699 350.587 270.700 350.588 C 270.698 350.587 250.731 343.570 250.729 343.569 Z"/>
<path fill="#ffff00" fill-rule="evenodd" stroke="none" d="M 259.810 685.845 C 259.810 685.843 268.644 666.610 268.645 666.609 C 268.645 666.609 269.110 676.321 269.110 676.322 C 269.111 676.322 278.831 676.558 278.832 676.558 C 278.830 676.559 259.812 685.844 259.810 685.845 Z"/>
<path fill="#ffff00" fill-rule="evenodd" stroke="none" d="M 460.190 685.609 C 460.189 685.608 450.972 666.556 450.971 666.554 C 450.971 666.555 450.701 676.274 450.701 676.275 C 450.700 676.275 440.987 676.706 440.986 676.706 C 440.988 676.706 460.189 685.609 460.190 685.609 Z"/>
<path fill="#00ff00" fill-rule="evenodd" stroke="none" d="M 469.348 343.569 C 469.346 343.568 449.451 336.350 449.449 336.349 C 449.450 336.350 456.037 343.501 456.038 343.502 C 456.037 343.503 449.378 350.587 449.378 350.588 C 449.380 350.587 469.346 343.570 469.348 343.569 Z"/>
<path fill="#00ffff" fill-rule="evenodd" stroke="none" d="M 422.873 116.293 C 422.871 116.294 410.270 133.298 410.269 133.300 C 410.269 133.299 411.812 123.699 411.812 123.698 C 411.811 123.698 402.348 121.468 402.347 121.467 C 402.349 121.467 422.871 116.293 422.873 116.293 Z"/>
<path fill="#00ffff" fill-rule="evenodd" stroke="none" d="M 297.127 116.293 C 297.129 116.294 309.730 133.298 309.731 133.300 C 309.731 133.299 308.188 123.699 308.188 123.698 C 308.189 123.698 317.652 121.468 317.653 121.467 C 317.651 121.467 297.129 116.293 297.127 116.293 Z"/>
<path fill="#be0027" fill-rule="evenodd" stroke="none" d="M 359.958 694.185 C 359.959 694.183 368.875 669.218 368.875 669.216 C 368.875 669.217 359.959 677.512 359.958 677.513 C 359.957 677.512 351.042 669.217 351.041 669.216 C 351.042 669.218 359.957 694.183 359.958 694.185 Z"/>
</g>
</g>
</svg>
