<?xml version="1.0" encoding="utf-8"?>
<!-- Generator: Moho 12.5 build 22414 -->
<!DOCTYPE svg PUBLIC "-//W3C//DTD SVG 1.1//EN" "http://www.w3.org/Graphics/SVG/1.1/DTD/svg11.dtd">
<svg version="1.1" id="Frame_0" xmlns="http://www.w3.org/2000/svg" xmlns:xlink="http://www.w3.org/1999/xlink" width="720px" height="720px">
<g id="castle_wall">
<g id="castle_wall">
<path fill="#ffffff" fill-rule="evenodd" stroke="#000000" stroke-width="4" stroke-linecap="round" stroke-linejoin="round" d="M 319.950 520.199 C 319.920 520.199 19.607 520.199 19.577 520.199 C 19.577 520.167 19.577 199.833 19.577 199.801 C 19.581 199.801 59.622 199.801 59.626 199.801 C 59.626 199.805 59.626 239.847 59.626 239.851 C 59.630 239.851 99.672 239.851 99.676 239.851 C 99.676 239.847 99.676 199.805 99.676 199.801 C 99.680 199.801 139.722 199.801 139.726 199.801 C 139.726 199.805 139.726 239.847 139.726 239.851 C 139.730 239.851 179.772 239.851 179.776 239.851 C 179.776 239.847 179.776 199.805 179.776 199.801 C 179.780 199.801 219.822 199.801 219.826 199.801 C 219.826 199.805 219.826 239.847 219.826 239.851 C 219.830 239.851 259.871 239.851 259.875 239.851 C 259.875 239.847 259.875 199.805 259.875 199.801 C 259.879 199.801 299.921 199.801 299.925 199.801 C 299.925 199.805 299.925 239.847 299.925 239.851 C 299.929 239.851 339.971 239.851 339.975 239.851 C 339.975 239.847 339.975 199.805 339.975 199.801 C 339.979 199.801 380.021 199.801 380.025 199.801 C 380.025 199.805 380.025 239.847 380.025 239.851 C 380.029 239.851 420.071 239.851 420.075 239.851 C 420.075 239.847 420.075 199.805 420.075 199.801 C 420.079 199.801 460.121 199.801 460.125 199.801 C 460.125 199.805 460.125 239.847 460.125 239.851 C 460.129 239.851 500.170 239.851 500.174 239.851 C 500.174 239.847 500.174 199.805 500.174 199.801 C 500.178 199.801 540.220 199.801 540.224 199.801 C 540.224 199.805 540.224 239.847 540.224 239.851 C 540.228 239.851 580.270 239.851 580.274 239.851 C 580.274 239.847 580.274 199.805 580.274 199.801 C 580.278 199.801 620.320 199.801 620.324 199.801 C 620.324 199.805 620.324 239.847 620.324 239.851 C 620.328 239.851 660.370 239.851 660.374 239.851 C 660.374 239.847 660.374 199.805 660.374 199.801 C 660.378 199.801 700.419 199.801 700.423 199.801 C 700.423 199.833 700.423 520.167 700.423 520.199 C 700.393 520.199 400.080 520.199 400.050 520.199 C 400.050 520.189 400.050 420.085 400.050 420.075 C 400.046 420.071 360.004 380.029 360.000 380.025 C 359.996 380.029 319.954 420.071 319.950 420.075 C 319.950 420.085 319.950 520.189 319.950 520.199 M 630.337 400.050 C 630.337 400.040 630.336 294.142 630.336 294.132 C 630.337 294.130 640.348 279.902 640.349 279.900 C 640.350 279.902 650.360 294.130 650.361 294.132 C 650.361 294.142 650.361 400.040 650.361 400.050 C 650.360 400.050 640.350 400.050 640.349 400.050 C 640.348 400.050 630.338 400.050 630.337 400.050 M 550.237 400.050 C 550.237 400.040 550.237 294.142 550.237 294.132 C 550.238 294.130 560.248 279.902 560.249 279.900 C 560.250 279.902 570.260 294.130 570.261 294.132 C 570.261 294.142 570.262 400.040 570.262 400.050 C 570.261 400.050 560.251 400.050 560.250 400.050 C 560.249 400.050 550.238 400.050 550.237 400.050 M 470.137 400.050 C 470.137 400.040 470.137 294.142 470.137 294.132 C 470.138 294.130 480.148 279.902 480.149 279.900 C 480.150 279.902 490.161 294.130 490.162 294.132 C 490.162 294.142 490.162 400.040 490.162 400.050 C 490.161 400.050 480.151 400.050 480.150 400.050 C 480.149 400.050 470.138 400.050 470.137 400.050 M 229.838 400.050 C 229.838 400.040 229.838 294.142 229.838 294.132 C 229.839 294.130 239.849 279.902 239.850 279.900 C 239.851 279.902 249.861 294.130 249.862 294.132 C 249.862 294.142 249.863 400.040 249.863 400.050 C 249.862 400.050 239.852 400.050 239.851 400.050 C 239.850 400.050 229.839 400.050 229.838 400.050 M 149.739 400.050 C 149.739 400.040 149.738 294.142 149.738 294.132 C 149.739 294.130 159.750 279.902 159.751 279.900 C 159.752 279.902 169.762 294.130 169.763 294.132 C 169.763 294.142 169.763 400.040 169.763 400.050 C 169.762 400.050 159.752 400.050 159.751 400.050 C 159.750 400.050 149.740 400.050 149.739 400.050 M 69.639 400.050 C 69.639 400.040 69.639 294.142 69.639 294.132 C 69.640 294.130 79.650 279.902 79.651 279.900 C 79.652 279.902 89.662 294.130 89.663 294.132 C 89.663 294.142 89.664 400.040 89.664 400.050 C 89.663 400.050 79.653 400.050 79.652 400.050 C 79.651 400.050 69.640 400.050 69.639 400.050 Z"/>
</g>
<g id="specs">
<path fill="#ff00ff" fill-rule="evenodd" stroke="none" d="M 275.681 367.895 C 275.698 367.895 444.302 367.895 444.319 367.895 C 444.319 367.883 444.319 252.870 444.319 252.859 C 444.302 252.859 275.698 252.859 275.681 252.859 C 275.681 252.870 275.681 367.883 275.681 367.895 Z"/>
<path fill="#ff0000" fill-rule="evenodd" stroke="none" d="M 360.000 513.552 C 360.001 513.556 372.432 548.362 372.433 548.365 C 372.432 548.364 360.001 536.798 360.000 536.797 C 359.999 536.798 347.568 548.364 347.567 548.365 C 347.568 548.362 359.999 513.556 360.000 513.552 Z"/>
<path fill="#0000ff" fill-rule="evenodd" stroke="none" d="M 360.000 186.426 C 360.001 186.428 367.221 206.646 367.222 206.648 C 367.221 206.648 360.001 199.930 360.000 199.929 C 359.999 199.930 352.779 206.648 352.778 206.648 C 352.779 206.646 359.999 186.428 360.000 186.426 Z"/>
<path fill="#00ff00" fill-rule="evenodd" stroke="none" d="M 7.738 361.005 C 7.740 361.004 27.922 353.681 27.924 353.680 C 27.923 353.681 21.242 360.936 21.241 360.936 C 21.242 360.937 27.996 368.124 27.997 368.125 C 27.995 368.124 7.740 361.005 7.738 361.005 Z"/>
<path fill="#ffff00" fill-rule="evenodd" stroke="none" d="M 117.702 526.255 C 117.703 526.253 126.664 506.744 126.664 506.742 C 126.664 506.743 127.136 516.594 127.136 516.595 C 127.137 516.595 136.997 516.834 136.998 516.834 C 136.996 516.835 117.704 526.254 117.702 526.255 Z"/>
<path fill="#ffff00" fill-rule="evenodd" stroke="none" d="M 602.298 526.016 C 602.297 526.014 592.947 506.688 592.946 506.686 C 592.946 506.687 592.672 516.546 592.672 516.547 C 592.671 516.547 582.818 516.984 582.817 516.984 C 582.819 516.985 602.296 526.015 602.298 526.016 Z"/>
<path fill="#00ff00" fill-rule="evenodd" stroke="none" d="M 714.324 361.005 C 714.322 361.004 694.141 353.681 694.139 353.680 C 694.139 353.681 700.821 360.936 700.822 360.936 C 700.821 360.937 694.066 368.124 694.066 368.125 C 694.068 368.124 714.322 361.005 714.324 361.005 Z"/>
<path fill="#00ffff" fill-rule="evenodd" stroke="none" d="M 706.063 244.781 C 706.062 244.783 698.895 265.020 698.894 265.022 C 698.894 265.021 697.537 255.252 697.537 255.251 C 697.536 255.251 687.695 255.901 687.694 255.901 C 687.696 255.900 706.061 244.782 706.063 244.781 Z"/>
<path fill="#00ffff" fill-rule="evenodd" stroke="none" d="M 14.049 245.451 C 14.050 245.453 22.550 265.168 22.551 265.170 C 22.551 265.169 23.254 255.331 23.254 255.330 C 23.255 255.330 33.117 255.322 33.118 255.322 C 33.116 255.321 14.051 245.452 14.049 245.451 Z"/>
<path fill="#be0027" fill-rule="evenodd" stroke="none" d="M 359.957 479.417 C 359.958 479.415 369.002 454.091 369.003 454.089 C 369.002 454.090 359.958 462.504 359.957 462.505 C 359.957 462.504 350.913 454.090 350.912 454.089 C 350.913 454.091 359.957 479.415 359.957 479.417 Z"/>
</g>
</g>
</svg>
