<?xml version="1.0" encoding="utf-8"?>
<!-- Generator: Moho 12.5 build 22414 -->
<!DOCTYPE svg PUBLIC "-//W3C//DTD SVG 1.1//EN" "http://www.w3.org/Graphics/SVG/1.1/DTD/svg11.dtd">
<svg version="1.1" id="Frame_0" xmlns="http://www.w3.org/2000/svg" xmlns:xlink="http://www.w3.org/1999/xlink" width="720px" height="720px">
<g id="cathedral">
<g id="cathedral">
<path fill="#ffffff" fill-rule="evenodd" stroke="#000000" stroke-width="4" stroke-linecap="round" stroke-linejoin="round" d="M 413.943 557.139 C 414.219 489.882 359.758 479.688 359.753 479.681 C 359.747 479.688 305.562 489.483 305.562 557.139 C 305.562 557.329 306.231 666.770 306.231 666.770 C 306.231 666.770 224.284 665.384 224.276 665.384 C 224.276 665.370 224.276 530.091 224.276 530.078 C 224.271 530.085 170.086 557.138 170.086 597.731 C 170.086 598.199 170.086 665.384 170.086 665.384 C 170.086 665.384 115.901 665.384 115.896 665.384 C 115.896 665.357 115.896 394.800 115.896 394.774 C 115.894 394.774 102.349 394.774 102.348 394.774 C 102.348 394.772 102.348 381.244 102.348 381.243 C 102.349 381.243 115.894 381.243 115.896 381.243 C 115.896 381.241 115.896 367.713 115.896 367.712 C 115.897 367.712 129.442 367.712 129.444 367.712 C 129.444 367.713 129.444 381.241 129.444 381.243 C 129.445 381.243 142.990 381.243 142.991 381.243 C 142.991 381.244 142.991 394.772 142.991 394.774 C 142.990 394.774 129.445 394.774 129.444 394.774 C 129.444 394.776 129.444 421.832 129.444 421.835 C 129.446 421.840 156.536 475.951 156.539 475.956 C 156.546 475.951 224.269 421.840 224.276 421.835 C 224.276 421.809 224.276 164.781 224.276 164.755 C 224.279 164.758 251.369 191.813 251.372 191.816 C 251.382 191.809 346.196 124.170 346.205 124.163 C 346.205 124.159 346.205 83.575 346.205 83.571 C 346.202 83.571 319.113 83.571 319.110 83.571 C 319.110 83.569 319.110 56.513 319.110 56.510 C 319.113 56.510 346.202 56.510 346.205 56.510 C 346.205 56.508 346.205 29.452 346.205 29.450 C 346.206 29.450 359.752 29.450 359.753 29.450 C 359.754 29.450 373.299 29.450 373.300 29.450 C 373.300 29.452 373.300 56.508 373.300 56.510 C 373.303 56.510 400.393 56.510 400.396 56.510 C 400.396 56.513 400.396 83.569 400.396 83.571 C 400.393 83.571 373.303 83.571 373.300 83.571 C 373.300 83.575 373.300 124.159 373.300 124.163 C 373.310 124.170 468.124 191.809 468.133 191.816 C 468.136 191.813 495.227 164.758 495.229 164.755 C 495.229 164.781 495.229 421.809 495.229 421.835 C 495.236 421.840 562.960 475.951 562.966 475.956 C 562.969 475.951 590.059 421.840 590.062 421.835 C 590.062 421.832 590.062 394.776 590.062 394.774 C 590.060 394.774 576.516 394.774 576.514 394.774 C 576.514 394.772 576.514 381.244 576.514 381.243 C 576.516 381.243 590.060 381.243 590.062 381.243 C 590.062 381.241 590.062 367.713 590.062 367.712 C 590.063 367.712 603.608 367.712 603.609 367.712 C 603.609 367.713 603.609 381.241 603.609 381.243 C 603.611 381.243 617.156 381.243 617.158 381.243 C 617.158 381.244 617.158 394.772 617.158 394.774 C 617.156 394.774 603.611 394.774 603.609 394.774 C 603.609 394.800 603.609 665.357 603.609 665.384 C 603.604 665.384 549.425 665.384 549.419 665.384 C 549.419 665.377 549.419 597.731 549.419 597.731 C 549.419 557.137 495.235 530.085 495.229 530.078 C 495.229 530.091 495.229 665.384 495.229 665.384 C 495.229 665.384 413.951 665.384 413.943 665.384 C 413.943 665.373 413.906 566.160 413.943 557.139 M 359.753 380.241 C 411.835 378.227 439.944 337.134 440.035 300.060 C 440.128 262.068 411.202 219.879 359.753 219.879 C 308.304 219.879 279.471 262.042 279.471 300.060 C 279.471 338.077 308.291 380.087 359.753 380.241 Z"/>
<path fill="none" stroke="#000000" stroke-width="1" stroke-linecap="butt" stroke-linejoin="round" d="M 440.035 300.060 C 440.128 262.068 411.202 219.879 359.753 219.879 "/>
<path fill="none" stroke="#000000" stroke-width="1" stroke-linecap="butt" stroke-linejoin="round" d="M 359.753 219.879 C 308.304 219.879 279.471 262.042 279.471 300.060 "/>
<path fill="none" stroke="#000000" stroke-width="1" stroke-linecap="butt" stroke-linejoin="round" d="M 279.471 300.060 C 279.471 338.077 308.291 380.087 359.753 380.241 "/>
<path fill="none" stroke="#000000" stroke-width="1" stroke-linecap="butt" stroke-linejoin="round" d="M 359.753 380.241 C 411.835 378.227 439.944 337.134 440.035 300.060 "/>
<path fill="#000000" fill-rule="evenodd" stroke="#000000" stroke-width="4" stroke-linejoin="round" d="M 440.035 300.060 C 440.128 262.068 411.202 219.879 359.753 219.879 C 308.304 219.879 279.471 262.042 279.471 300.060 C 279.471 338.077 308.291 380.087 359.753 380.241 C 411.835 378.227 439.944 337.134 440.035 300.060 Z"/>
<path fill="none" stroke="#000000" stroke-width="1" stroke-linecap="butt" stroke-linejoin="round" d="M 224.276 665.384 C 224.276 665.370 224.276 530.091 224.276 530.078 "/>
<path fill="none" stroke="#000000" stroke-width="1" stroke-linecap="butt" stroke-linejoin="round" d="M 224.276 530.078 C 224.271 530.085 170.086 557.138 170.086 597.731 "/>
<path fill="none" stroke="#000000" stroke-width="1" stroke-linecap="butt" stroke-linejoin="round" d="M 170.086 597.731 C 170.086 598.199 170.086 665.384 170.086 665.384 "/>
<path fill="#000000" fill-rule="evenodd" stroke="#000000" stroke-width="4" stroke-linejoin="round" d="M 170.086 665.384 C 188.149 665.384 206.213 665.384 224.276 665.384 C 224.276 665.370 224.276 530.091 224.276 530.078 C 224.271 530.085 170.086 557.138 170.086 597.731 C 170.086 598.199 170.086 665.384 170.086 665.384 Z"/>
<path fill="none" stroke="#000000" stroke-width="1" stroke-linecap="butt" stroke-linejoin="round" d="M 413.943 557.139 C 414.219 489.882 359.758 479.688 359.753 479.681 "/>
<path fill="none" stroke="#000000" stroke-width="1" stroke-linecap="butt" stroke-linejoin="round" d="M 359.753 479.681 C 359.747 479.688 305.562 489.483 305.562 557.139 "/>
<path fill="none" stroke="#000000" stroke-width="1" stroke-linecap="butt" stroke-linejoin="round" d="M 305.562 557.139 C 305.562 557.329 306.231 666.770 306.231 666.770 "/>
<path fill="none" stroke="#000000" stroke-width="1" stroke-linecap="butt" stroke-linejoin="round" d="M 413.943 665.384 C 413.943 665.373 413.906 566.160 413.943 557.139 "/>
<path fill="#000000" fill-rule="evenodd" stroke="#000000" stroke-width="4" stroke-linejoin="round" d="M 413.943 557.139 C 414.219 489.882 359.758 479.688 359.753 479.681 C 359.747 479.688 305.562 489.483 305.562 557.139 C 305.562 557.329 306.231 666.770 306.231 666.770 C 342.135 666.308 378.039 665.846 413.943 665.384 C 413.943 665.373 413.906 566.160 413.943 557.139 Z"/>
<path fill="none" stroke="#000000" stroke-width="1" stroke-linecap="butt" stroke-linejoin="round" d="M 549.419 665.384 C 549.419 665.377 549.419 597.731 549.419 597.731 "/>
<path fill="none" stroke="#000000" stroke-width="1" stroke-linecap="butt" stroke-linejoin="round" d="M 549.419 597.731 C 549.419 557.137 495.235 530.085 495.229 530.078 "/>
<path fill="none" stroke="#000000" stroke-width="1" stroke-linecap="butt" stroke-linejoin="round" d="M 495.229 530.078 C 495.229 530.091 495.229 665.384 495.229 665.384 "/>
<path fill="#000000" fill-rule="evenodd" stroke="#000000" stroke-width="4" stroke-linejoin="round" d="M 495.229 665.384 C 513.293 665.384 531.356 665.384 549.419 665.384 C 549.419 665.377 549.419 597.731 549.419 597.731 C 549.419 557.137 495.235 530.085 495.229 530.078 C 495.229 530.091 495.229 665.384 495.229 665.384 Z"/>
</g>
<g id="specs_2">
<path fill="#ff00ff" fill-rule="evenodd" stroke="none" d="M 292.069 368.631 C 292.083 368.631 427.917 368.631 427.931 368.631 C 427.931 368.617 427.931 232.783 427.931 232.769 C 427.917 232.769 292.083 232.769 292.069 232.769 C 292.069 232.783 292.069 368.617 292.069 368.631 Z"/>
<path fill="#ff0000" fill-rule="evenodd" stroke="none" d="M 360.000 676.208 C 360.001 676.211 372.157 710.249 372.159 710.252 C 372.157 710.251 360.001 698.941 360.000 698.939 C 359.999 698.941 347.843 710.251 347.841 710.252 C 347.843 710.249 359.999 676.211 360.000 676.208 Z"/>
<path fill="#0000ff" fill-rule="evenodd" stroke="none" d="M 360.000 17.394 C 360.001 17.396 367.062 37.168 367.063 37.170 C 367.062 37.169 360.001 30.599 360.000 30.599 C 359.999 30.599 352.938 37.169 352.937 37.170 C 352.938 37.168 359.999 17.396 360.000 17.394 Z"/>
<path fill="#00ff00" fill-rule="evenodd" stroke="none" d="M 103.018 522.674 C 103.020 522.673 122.756 515.512 122.758 515.511 C 122.758 515.512 116.223 522.607 116.223 522.607 C 116.223 522.608 122.829 529.636 122.830 529.637 C 122.828 529.636 103.020 522.675 103.018 522.674 Z"/>
<path fill="#ffff00" fill-rule="evenodd" stroke="none" d="M 132.411 671.265 C 132.412 671.263 140.853 652.886 140.854 652.884 C 140.854 652.885 141.298 662.165 141.298 662.166 C 141.299 662.166 150.587 662.391 150.587 662.391 C 150.586 662.392 132.413 671.264 132.411 671.265 Z"/>
<path fill="#ffff00" fill-rule="evenodd" stroke="none" d="M 588.885 671.040 C 588.884 671.038 580.076 652.834 580.076 652.832 C 580.076 652.833 579.817 662.120 579.817 662.121 C 579.816 662.121 570.535 662.532 570.534 662.532 C 570.536 662.533 588.883 671.039 588.885 671.040 Z"/>
<path fill="#00ff00" fill-rule="evenodd" stroke="none" d="M 616.066 522.674 C 616.064 522.673 596.328 515.512 596.326 515.511 C 596.327 515.512 602.861 522.607 602.862 522.607 C 602.861 522.608 596.255 529.636 596.255 529.637 C 596.257 529.636 616.064 522.675 616.066 522.674 Z"/>
<path fill="#00ffff" fill-rule="evenodd" stroke="none" d="M 500.078 160.688 C 500.078 160.690 493.069 180.481 493.068 180.483 C 493.068 180.482 491.740 170.928 491.740 170.927 C 491.739 170.927 482.115 171.563 482.114 171.563 C 482.116 171.562 500.076 160.689 500.078 160.688 Z"/>
<path fill="#00ffff" fill-rule="evenodd" stroke="none" d="M 218.092 161.344 C 218.093 161.346 226.406 180.625 226.407 180.627 C 226.407 180.626 227.094 171.006 227.094 171.005 C 227.095 171.005 236.740 170.997 236.741 170.997 C 236.739 170.996 218.094 161.345 218.092 161.344 Z"/>
<path fill="#be0027" fill-rule="evenodd" stroke="none" d="M 360.000 605.168 C 360.001 605.164 372.157 571.127 372.159 571.123 C 372.157 571.124 360.001 582.435 360.000 582.436 C 359.999 582.435 347.843 571.124 347.841 571.123 C 347.843 571.127 359.999 605.164 360.000 605.168 Z"/>
</g>
</g>
</svg>
