<?xml version="1.0" encoding="utf-8"?>
<!-- Generator: Moho 12.5 build 22414 -->
<!DOCTYPE svg PUBLIC "-//W3C//DTD SVG 1.1//EN" "http://www.w3.org/Graphics/SVG/1.1/DTD/svg11.dtd">
<svg version="1.1" id="Frame_0" xmlns="http://www.w3.org/2000/svg" xmlns:xlink="http://www.w3.org/1999/xlink" width="720px" height="720px">
<g id="halves">
<g id="centaur_half">
<g id="centaur_half">
<path fill="#ffffff" fill-rule="evenodd" stroke="#000000" stroke-width="2" stroke-linejoin="round" d="M 158.339 357.313 C 158.339 357.316 153.248 373.401 153.924 383.573 C 155.087 401.062 168.582 426.941 168.584 426.945 C 168.580 426.948 140.718 448.636 129.369 458.234 C 122.331 464.186 107.453 473.582 106.141 478.934 C 104.259 486.615 113.294 502.506 124.106 519.804 C 127.444 525.145 131.240 557.971 135.684 565.527 C 138.457 570.242 151.308 582.957 156.582 586.251 C 163.095 590.318 191.012 597.869 191.016 597.870 C 191.016 597.867 193.628 580.047 190.910 572.535 C 188.014 564.530 173.632 551.797 173.630 551.795 C 173.629 551.795 161.107 556.459 160.077 556.376 C 154.124 555.896 158.509 545.862 157.306 542.815 C 154.666 536.129 145.560 528.165 140.685 517.397 C 136.488 508.128 133.568 492.244 133.567 492.241 C 133.573 492.238 195.851 457.600 195.858 457.596 C 195.859 457.597 205.821 460.269 205.822 460.269 C 205.824 460.271 210.470 472.469 216.779 483.750 C 221.241 491.726 226.796 499.089 226.797 499.090 C 226.798 499.094 235.078 531.604 235.076 531.631 C 235.076 531.638 232.353 536.323 232.396 539.786 C 232.532 550.573 243.356 564.169 243.357 564.171 C 243.358 564.176 251.723 617.518 251.724 617.523 C 251.723 617.524 246.702 622.145 245.435 628.408 C 244.519 632.939 246.377 637.452 246.378 637.452 C 246.376 637.454 231.795 645.895 228.330 649.291 C 223.093 654.425 210.348 676.510 210.347 676.512 C 210.349 676.513 222.367 680.561 233.888 680.033 C 248.334 679.371 262.810 672.674 262.813 672.673 C 262.813 672.672 268.222 660.714 268.177 657.268 C 268.141 654.426 263.393 649.394 263.600 644.619 C 264.081 633.536 268.276 645.238 273.554 644.578 C 279.570 643.825 279.853 636.409 279.853 636.408 C 279.852 636.403 268.803 590.310 268.802 590.306 C 268.801 590.302 264.142 557.754 264.142 557.750 C 264.142 557.749 266.733 545.729 266.795 543.261 C 267.003 534.962 259.382 498.619 258.448 494.434 C 257.818 491.612 249.671 462.221 249.670 462.217 C 249.667 462.217 220.345 456.127 220.342 456.126 C 220.345 456.127 249.256 460.992 249.259 460.992 C 249.267 460.992 289.309 466.693 329.786 459.750 C 340.477 457.917 350.746 455.434 360.057 452.727 C 396.390 442.166 422.772 427.397 425.564 426.775 C 426.786 426.503 460.295 422.356 460.299 422.356 C 460.295 422.357 425.778 427.824 425.775 427.825 C 425.775 427.828 422.942 444.227 427.873 456.098 C 435.627 474.761 463.403 492.209 463.580 501.418 C 463.752 510.413 430.595 547.096 430.592 547.100 C 430.588 547.104 405.922 570.233 396.346 580.270 C 391.397 585.457 390.692 607.579 390.135 609.705 C 389.854 610.778 385.672 620.070 385.671 624.202 C 385.669 633.637 397.569 656.724 397.570 656.727 C 397.572 656.726 407.941 651.733 413.866 645.145 C 419.810 638.537 423.689 627.664 423.690 627.662 C 423.689 627.660 412.343 612.975 414.531 601.459 C 416.462 591.295 424.965 593.503 427.150 589.643 C 429.259 585.919 428.153 576.182 430.702 573.341 C 445.107 557.281 482.444 519.626 502.198 516.963 C 504.850 516.605 509.509 503.900 498.795 495.152 C 481.341 480.900 491.253 458.706 491.252 458.703 C 491.249 458.699 464.026 423.391 464.023 423.387 C 464.026 423.391 490.743 457.757 490.746 457.760 C 490.749 457.762 522.981 474.296 526.214 477.026 C 528.534 478.986 536.934 494.117 544.405 499.571 C 553.579 506.269 568.468 509.762 570.032 514.697 C 573.655 526.131 594.689 560.405 597.178 569.025 C 600.119 579.211 606.799 634.904 603.811 640.481 C 603.037 641.926 591.626 648.075 588.775 651.405 C 583.539 657.521 574.127 682.226 574.125 682.229 C 574.127 682.230 586.533 688.300 594.963 688.476 C 604.744 688.681 619.365 682.041 619.368 682.040 C 619.368 682.039 621.117 667.556 621.117 667.555 C 621.117 667.554 625.965 664.220 626.523 662.103 C 627.721 657.557 620.170 650.478 620.729 646.669 C 622.740 632.963 634.721 647.293 634.419 638.845 C 633.105 602.043 624.626 612.451 614.298 551.761 C 612.527 541.353 612.907 507.600 609.566 502.014 C 607.488 498.540 591.243 492.193 584.454 483.718 C 571.694 467.792 560.114 454.682 563.114 429.365 C 564.897 414.313 577.035 421.668 586.441 381.763 C 591.467 360.442 586.138 309.383 586.138 309.376 C 586.141 309.378 606.583 321.387 610.273 328.580 C 625.456 358.176 588.790 373.944 600.096 455.077 C 606.288 499.507 649.673 543.994 681.089 548.398 C 651.859 512.579 658.491 479.332 652.439 440.531 C 645.997 399.228 662.491 359.221 636.649 325.000 C 620.327 303.387 570.690 292.251 570.684 292.248 C 570.677 292.246 537.529 268.723 505.429 267.185 C 480.032 265.969 458.443 274.240 405.071 286.607 C 389.157 290.294 373.749 291.265 359.986 290.269 C 342.451 289.001 320.004 280.001 320.000 280.000 C 319.984 280.000 160.016 280.000 160.000 280.000 C 160.000 280.008 158.339 357.306 158.339 357.313 Z"/>
</g>
<g id="specs_2">
<path fill="#ff0000" fill-rule="evenodd" stroke="none" d="M 243.552 303.316 C 243.553 303.313 255.968 268.550 255.969 268.547 C 255.968 268.548 243.553 280.099 243.552 280.101 C 243.550 280.099 231.135 268.548 231.134 268.547 C 231.135 268.550 243.550 303.313 243.552 303.316 Z"/>
<path fill="#0000ff" fill-rule="evenodd" stroke="none" d="M 243.419 267.076 C 243.420 267.078 250.631 287.271 250.632 287.273 C 250.631 287.272 243.420 280.562 243.419 280.562 C 243.418 280.562 236.207 287.272 236.206 287.273 C 236.207 287.271 243.418 267.078 243.419 267.076 Z"/>
<path fill="#ffff00" fill-rule="evenodd" stroke="none" d="M 118.665 603.198 C 118.666 603.196 127.616 583.711 127.617 583.709 C 127.617 583.710 128.088 593.550 128.088 593.551 C 128.089 593.551 137.936 593.789 137.937 593.789 C 137.935 593.790 118.667 603.197 118.665 603.198 Z"/>
<path fill="#ffff00" fill-rule="evenodd" stroke="none" d="M 678.276 602.960 C 678.275 602.958 668.936 583.656 668.936 583.654 C 668.936 583.655 668.662 593.502 668.662 593.503 C 668.661 593.503 658.820 593.939 658.819 593.939 C 658.821 593.940 678.274 602.959 678.276 602.960 Z"/>
<path fill="#00ff00" fill-rule="evenodd" stroke="none" d="M 498.533 252.975 C 498.532 252.977 491.218 273.134 491.217 273.136 C 491.218 273.135 498.464 266.462 498.464 266.461 C 498.465 266.462 505.643 273.208 505.644 273.208 C 505.643 273.206 498.533 252.977 498.533 252.975 Z"/>
<path fill="#00ffff" fill-rule="evenodd" stroke="none" d="M 336.400 274.183 C 336.399 274.185 329.241 294.398 329.241 294.400 C 329.240 294.399 327.885 284.642 327.885 284.641 C 327.884 284.641 318.055 285.290 318.054 285.290 C 318.056 285.289 336.398 274.185 336.400 274.183 Z"/>
<path fill="#00ffff" fill-rule="evenodd" stroke="none" d="M 151.928 274.853 C 151.929 274.855 160.419 294.545 160.419 294.547 C 160.419 294.546 161.121 284.720 161.121 284.720 C 161.122 284.720 170.973 284.712 170.973 284.712 C 170.972 284.711 151.930 274.854 151.928 274.853 Z"/>
<path fill="#be0027" fill-rule="evenodd" stroke="none" d="M 360.000 703.966 C 360.001 703.963 372.416 669.200 372.417 669.197 C 372.416 669.198 360.001 680.749 360.000 680.751 C 359.999 680.749 347.584 669.198 347.583 669.197 C 347.584 669.200 359.999 703.963 360.000 703.966 Z"/>
<path fill="none" stroke="#ffff00" stroke-width="2" stroke-linejoin="round" d="M 320.000 280.000 C 319.984 280.000 160.016 280.000 160.000 280.000 "/>
</g>
</g>
</g>
</svg>
