<?xml version="1.0" encoding="utf-8"?>
<!-- Generator: Moho 12.5 build 22414 -->
<!DOCTYPE svg PUBLIC "-//W3C//DTD SVG 1.1//EN" "http://www.w3.org/Graphics/SVG/1.1/DTD/svg11.dtd">
<svg version="1.1" id="Frame_0" xmlns="http://www.w3.org/2000/svg" xmlns:xlink="http://www.w3.org/1999/xlink" width="720px" height="720px">
<g id="chair">
<g id="chair">
<path fill="#ffffff" fill-rule="evenodd" stroke="none" d="M 188.316 403.794 C 213.909 416.871 265.089 443.022 265.097 443.026 C 265.097 443.048 264.436 657.884 264.436 657.906 C 264.439 657.908 296.909 678.392 296.912 678.394 C 306.492 674.957 325.651 668.085 325.653 668.084 C 325.653 668.061 325.653 444.546 325.653 444.523 C 325.671 444.518 497.146 395.525 497.164 395.520 C 497.164 395.541 498.465 607.070 498.465 607.091 C 498.467 607.093 517.382 618.046 526.841 623.523 C 526.844 623.522 555.580 616.971 555.582 616.970 C 555.582 616.944 555.582 351.255 555.582 351.228 C 555.586 351.199 588.564 63.845 588.567 63.816 C 533.407 45.902 423.105 10.078 423.088 10.072 C 423.085 10.073 390.107 20.606 390.104 20.607 C 380.523 106.299 361.365 277.656 361.362 277.682 C 361.339 277.687 131.456 328.088 131.433 328.093 C 131.433 416.673 131.433 593.808 131.433 593.835 C 131.436 593.836 159.754 609.625 159.757 609.627 C 169.412 606.896 188.719 601.434 188.722 601.433 C 188.722 601.414 188.316 403.814 188.316 403.794 Z"/>
<path fill="#ffffff" fill-rule="evenodd" stroke="none" d="M 361.362 542.905 C 361.365 542.904 390.101 536.353 390.104 536.352 C 390.104 536.341 391.021 426.139 391.021 426.128 C 391.015 426.130 338.364 440.256 338.359 440.258 C 338.359 440.267 338.643 532.121 338.643 532.130 C 338.645 532.132 361.360 542.904 361.362 542.905 Z"/>
<path fill="none" stroke="#000000" stroke-width="4" stroke-linecap="round" stroke-linejoin="round" d="M 361.362 277.682 C 416.522 302.197 526.824 351.221 526.841 351.228 C 526.841 351.255 526.841 623.496 526.841 623.523 C 526.844 623.522 555.580 616.971 555.582 616.970 C 555.582 616.944 555.582 351.255 555.582 351.228 C 555.586 351.199 588.564 63.845 588.567 63.816 C 588.564 63.817 555.586 75.130 555.582 75.131 C 555.580 75.159 526.844 351.200 526.841 351.228 C 526.818 351.234 297.920 408.705 297.897 408.710 C 297.881 408.702 131.450 328.101 131.433 328.093 C 131.433 416.673 131.433 593.808 131.433 593.835 C 131.436 593.836 159.754 609.625 159.757 609.627 C 159.757 609.605 163.413 391.814 163.414 391.793 C 163.416 391.794 188.313 403.793 188.316 403.794 C 213.909 416.871 265.089 443.022 265.097 443.026 C 265.097 443.048 264.436 657.884 264.436 657.906 C 264.439 657.908 296.909 678.392 296.912 678.394 C 296.912 678.367 297.569 498.605 297.897 408.710 M 361.362 542.905 C 361.074 506.987 360.786 471.069 360.498 435.151 M 338.643 532.130 C 338.645 532.132 361.360 542.904 361.362 542.905 C 361.365 542.904 390.101 536.353 390.104 536.352 C 390.104 536.341 391.021 426.139 391.021 426.128 C 391.015 426.130 338.364 440.256 338.359 440.258 C 338.359 440.267 338.643 532.121 338.643 532.130 M 188.316 403.794 C 188.316 403.814 188.722 601.414 188.722 601.433 C 188.719 601.434 169.412 606.896 159.757 609.627 M 390.104 20.607 C 380.523 106.299 361.365 277.656 361.362 277.682 C 361.339 277.687 131.456 328.088 131.433 328.093 M 555.582 75.131 C 555.566 75.126 390.120 20.613 390.104 20.607 C 390.107 20.606 423.085 10.073 423.088 10.072 C 423.105 10.078 533.407 45.902 588.567 63.816 M 526.841 623.523 C 517.382 618.046 498.467 607.093 498.465 607.091 C 498.465 607.070 497.164 395.541 497.164 395.520 C 497.146 395.525 325.671 444.518 325.653 444.523 C 325.653 444.546 325.653 668.061 325.653 668.084 C 325.651 668.085 306.492 674.957 296.912 678.394 "/>
</g>
<g id="specs">
<path fill="#ff00ff" fill-rule="evenodd" stroke="none" d="M 183.870 352.282 C 183.901 352.282 493.605 352.282 493.636 352.282 C 493.636 352.251 493.636 42.547 493.636 42.516 C 493.605 42.516 183.901 42.516 183.870 42.516 C 183.870 42.547 183.870 352.251 183.870 352.282 Z"/>
<path fill="#ff0000" fill-rule="evenodd" stroke="none" d="M 298.192 675.628 C 298.193 675.631 310.375 709.742 310.376 709.746 C 310.375 709.745 298.193 698.410 298.192 698.408 C 298.190 698.410 286.008 709.745 286.007 709.746 C 286.008 709.742 298.190 675.631 298.192 675.628 Z"/>
<path fill="#0000ff" fill-rule="evenodd" stroke="none" d="M 497.138 20.384 C 497.138 20.386 504.215 40.201 504.215 40.203 C 504.215 40.202 497.138 33.618 497.138 33.618 C 497.137 33.618 490.060 40.202 490.060 40.203 C 490.060 40.201 497.137 20.386 497.138 20.384 Z"/>
<path fill="#00ff00" fill-rule="evenodd" stroke="none" d="M 117.474 343.247 C 117.476 343.246 137.255 336.069 137.257 336.069 C 137.256 336.069 130.708 343.179 130.707 343.180 C 130.708 343.181 137.328 350.224 137.328 350.225 C 137.326 350.224 117.476 343.248 117.474 343.247 Z"/>
<path fill="#ffff00" fill-rule="evenodd" stroke="none" d="M 128.016 600.219 C 128.017 600.217 136.799 581.097 136.800 581.095 C 136.800 581.096 137.262 590.751 137.262 590.752 C 137.263 590.752 146.926 590.987 146.927 590.987 C 146.925 590.987 128.018 600.218 128.016 600.219 Z"/>
<path fill="#ffff00" fill-rule="evenodd" stroke="none" d="M 559.482 624.129 C 559.481 624.127 550.317 605.187 550.316 605.185 C 550.316 605.186 550.048 614.848 550.048 614.849 C 550.047 614.849 540.390 615.277 540.389 615.277 C 540.391 615.278 559.480 624.128 559.482 624.129 Z"/>
<path fill="#00ff00" fill-rule="evenodd" stroke="none" d="M 570.715 343.247 C 570.713 343.246 550.935 336.069 550.932 336.069 C 550.933 336.069 557.482 343.179 557.482 343.180 C 557.482 343.181 550.862 350.224 550.861 350.225 C 550.863 350.224 570.713 343.248 570.715 343.247 Z"/>
<path fill="#00ffff" fill-rule="evenodd" stroke="none" d="M 588.818 62.320 C 588.818 62.322 581.794 82.155 581.793 82.157 C 581.793 82.156 580.463 72.582 580.462 72.581 C 580.462 72.581 570.817 73.218 570.816 73.218 C 570.818 73.217 588.817 62.321 588.818 62.320 Z"/>
<path fill="#00ffff" fill-rule="evenodd" stroke="none" d="M 423.574 11.232 C 423.573 11.235 420.593 32.063 420.593 32.065 C 420.593 32.064 426.214 24.200 426.214 24.199 C 426.215 24.200 434.463 29.239 434.464 29.240 C 434.463 29.238 423.575 11.234 423.574 11.232 Z"/>
</g>
</g>
</svg>
