<?xml version="1.0" encoding="utf-8"?>
<!-- Generator: Moho 13.0.3 build 635 -->
<!DOCTYPE svg PUBLIC "-//W3C//DTD SVG 1.1//EN" "http://www.w3.org/Graphics/SVG/1.1/DTD/svg11.dtd">
<svg version="1.1" id="Frame_0" xmlns="http://www.w3.org/2000/svg" xmlns:xlink="http://www.w3.org/1999/xlink" width="720px" height="720px">
<g id="church">
<path fill="none" stroke="#000000" stroke-width="3" stroke-linecap="round" stroke-linejoin="round" d="M 163.482 51.439 C 148.473 51.439 125.605 51.439 125.601 51.439 C 125.601 51.441 125.601 65.867 125.601 65.869 C 125.605 65.869 148.473 65.869 163.481 65.869 C 163.470 83.717 163.462 114.235 163.277 139.456 M 177.710 141.071 C 177.881 118.292 177.912 89.418 177.940 65.869 C 187.388 65.869 215.733 65.869 215.737 65.869 C 215.737 65.867 215.737 51.441 215.737 51.439 C 215.733 51.439 190.499 51.439 177.941 51.439 C 177.884 38.409 177.884 13.402 177.884 13.399 C 177.882 13.399 163.456 13.399 163.454 13.399 C 163.454 13.402 163.455 36.377 163.482 51.439 "/>
<path fill="none" stroke="#000000" stroke-width="3" stroke-linecap="round" stroke-linejoin="round" d="M 614.774 516.471 C 617.384 540.244 614.429 628.943 614.429 628.954 C 614.426 628.954 582.070 629.029 582.067 629.029 C 582.067 629.017 579.685 541.286 581.743 516.471 C 582.550 506.742 589.117 499.955 598.258 499.955 C 607.400 499.955 613.574 505.545 614.774 516.471 M 177.710 141.071 C 207.100 208.700 265.606 343.324 265.615 343.345 C 265.649 343.345 608.905 343.345 608.940 343.345 C 608.945 343.357 662.278 465.407 662.283 465.420 C 662.283 465.443 665.361 694.158 665.361 694.181 C 665.302 694.181 73.841 695.207 73.782 695.207 C 73.782 695.172 73.782 341.370 73.782 341.335 C 73.782 341.335 163.277 139.456 163.277 139.456 M 136.871 342.319 C 136.872 360.772 151.758 375.658 170.211 375.658 C 188.664 375.658 203.550 360.772 203.551 342.319 C 203.551 323.865 188.664 308.979 170.211 308.979 C 151.758 308.979 136.871 323.865 136.871 342.319 M 505.401 516.471 C 506.208 506.742 512.776 499.955 521.917 499.955 C 531.058 499.955 537.233 505.545 538.432 516.471 C 541.043 540.244 538.087 628.943 538.087 628.954 C 538.084 628.954 505.728 629.029 505.724 629.029 C 505.724 629.017 503.342 541.286 505.401 516.471 M 425.385 516.471 C 426.193 506.742 432.760 499.955 441.902 499.955 C 451.043 499.955 457.217 505.545 458.417 516.471 C 461.027 540.244 458.073 628.943 458.073 628.954 C 458.069 628.954 425.713 629.029 425.710 629.029 C 425.709 629.017 423.327 541.286 425.385 516.471 M 346.466 516.471 C 347.273 506.742 353.840 499.955 362.981 499.955 C 372.123 499.955 378.297 505.545 379.497 516.471 C 382.108 540.244 379.152 628.943 379.152 628.954 C 379.148 628.954 346.793 629.029 346.790 629.029 C 346.790 629.017 344.408 541.286 346.466 516.471 M 266.381 516.471 C 267.188 506.742 273.756 499.955 282.897 499.955 C 292.038 499.955 298.213 505.545 299.413 516.471 C 302.023 540.244 299.068 628.943 299.068 628.954 C 299.064 628.954 266.708 629.029 266.705 629.029 C 266.705 629.017 264.323 541.286 266.381 516.471 M 143.280 522.003 C 144.560 506.036 155.382 494.903 170.382 494.903 C 185.382 494.903 195.564 504.069 197.483 522.003 C 201.230 557.021 196.917 687.626 196.917 687.643 C 196.911 687.643 143.817 687.765 143.812 687.765 C 143.812 687.748 140.350 558.556 143.280 522.003 "/>
<path fill="#ffffff" fill-rule="evenodd" stroke="#000000" stroke-width="6" stroke-linecap="round" stroke-linejoin="round" d="M 163.277 139.456 C 163.462 114.235 163.470 83.717 163.481 65.869 C 148.473 65.869 125.605 65.869 125.601 65.869 C 125.601 65.867 125.601 51.441 125.601 51.439 C 125.605 51.439 148.473 51.439 163.482 51.439 C 163.455 36.377 163.454 13.402 163.454 13.399 C 163.456 13.399 177.882 13.399 177.884 13.399 C 177.884 13.402 177.884 38.409 177.941 51.439 C 190.499 51.439 215.733 51.439 215.737 51.439 C 215.737 51.441 215.737 65.867 215.737 65.869 C 215.733 65.869 187.388 65.869 177.940 65.869 C 177.912 89.418 177.881 118.292 177.710 141.071 C 207.100 208.700 265.606 343.324 265.615 343.345 C 265.649 343.345 608.905 343.345 608.940 343.345 C 608.945 343.357 662.278 465.407 662.283 465.420 C 662.283 465.443 665.361 694.158 665.361 694.181 C 665.302 694.181 73.841 695.207 73.782 695.207 C 73.782 695.172 73.782 341.370 73.782 341.335 C 73.782 341.335 163.277 139.456 163.277 139.456 M 581.743 516.471 C 582.550 506.742 589.117 499.955 598.258 499.955 C 607.400 499.955 613.574 505.545 614.774 516.471 C 617.384 540.244 614.429 628.943 614.429 628.954 C 614.426 628.954 582.070 629.029 582.067 629.029 C 582.067 629.017 579.685 541.286 581.743 516.471 M 136.871 342.319 C 136.872 360.772 151.758 375.658 170.211 375.658 C 188.664 375.658 203.550 360.772 203.551 342.319 C 203.551 323.865 188.664 308.979 170.211 308.979 C 151.758 308.979 136.871 323.865 136.871 342.319 M 505.401 516.471 C 506.208 506.742 512.776 499.955 521.917 499.955 C 531.058 499.955 537.233 505.545 538.432 516.471 C 541.043 540.244 538.087 628.943 538.087 628.954 C 538.084 628.954 505.728 629.029 505.724 629.029 C 505.724 629.017 503.342 541.286 505.401 516.471 M 425.385 516.471 C 426.193 506.742 432.760 499.955 441.902 499.955 C 451.043 499.955 457.217 505.545 458.417 516.471 C 461.027 540.244 458.073 628.943 458.073 628.954 C 458.069 628.954 425.713 629.029 425.710 629.029 C 425.709 629.017 423.327 541.286 425.385 516.471 M 346.466 516.471 C 347.273 506.742 353.840 499.955 362.981 499.955 C 372.123 499.955 378.297 505.545 379.497 516.471 C 382.108 540.244 379.152 628.943 379.152 628.954 C 379.148 628.954 346.793 629.029 346.790 629.029 C 346.790 629.017 344.408 541.286 346.466 516.471 M 266.381 516.471 C 267.188 506.742 273.756 499.955 282.897 499.955 C 292.038 499.955 298.213 505.545 299.413 516.471 C 302.023 540.244 299.068 628.943 299.068 628.954 C 299.064 628.954 266.708 629.029 266.705 629.029 C 266.705 629.017 264.323 541.286 266.381 516.471 M 143.280 522.003 C 144.560 506.036 155.382 494.903 170.382 494.903 C 185.382 494.903 195.564 504.069 197.483 522.003 C 201.230 557.021 196.917 687.626 196.917 687.643 C 196.911 687.643 143.817 687.765 143.812 687.765 C 143.812 687.748 140.350 558.556 143.280 522.003 Z"/>
</g>
</svg>
