<?xml version="1.0" encoding="utf-8"?>
<!-- Generator: Moho 12.3 build 22017 -->
<!DOCTYPE svg PUBLIC "-//W3C//DTD SVG 1.1//EN" "http://www.w3.org/Graphics/SVG/1.1/DTD/svg11.dtd">
<svg version="1.1" id="Frame_0" xmlns="http://www.w3.org/2000/svg" xmlns:xlink="http://www.w3.org/1999/xlink" width="720px" height="720px">
<g id="church">
<g id="church">
<path fill="none" stroke="#000000" stroke-width="3" stroke-linecap="round" stroke-linejoin="round" d="M 191.876 96.021 C 179.035 96.021 159.471 96.021 159.468 96.021 C 159.468 96.022 159.468 108.365 159.468 108.366 C 159.471 108.366 179.035 108.366 191.875 108.366 C 191.865 123.636 191.858 149.744 191.700 171.321 M 204.048 172.702 C 204.195 153.215 204.220 128.512 204.244 108.366 C 212.328 108.366 236.577 108.366 236.580 108.366 C 236.580 108.365 236.580 96.022 236.580 96.021 C 236.577 96.021 214.989 96.021 204.246 96.021 C 204.197 84.874 204.196 63.480 204.196 63.477 C 204.195 63.477 191.853 63.477 191.852 63.477 C 191.852 63.480 191.852 83.135 191.876 96.021 "/>
<path fill="none" stroke="#000000" stroke-width="3" stroke-linecap="round" stroke-linejoin="round" d="M 577.963 493.864 C 580.196 514.202 577.669 590.085 577.669 590.095 C 577.666 590.095 549.985 590.159 549.982 590.159 C 549.982 590.149 547.945 515.093 549.705 493.864 C 550.395 485.541 556.014 479.734 563.834 479.734 C 571.655 479.734 576.937 484.516 577.963 493.864 M 204.048 172.702 C 229.192 230.560 279.244 345.734 279.252 345.751 C 279.281 345.751 572.943 345.751 572.972 345.751 C 572.977 345.762 618.604 450.178 618.608 450.189 C 618.609 450.208 621.242 645.878 621.242 645.898 C 621.191 645.898 115.186 646.775 115.136 646.776 C 115.136 646.745 115.136 344.062 115.136 344.032 C 115.136 344.032 191.700 171.321 191.700 171.321 M 169.110 344.874 C 169.110 360.661 181.845 373.396 197.632 373.396 C 213.419 373.396 226.155 360.661 226.155 344.874 C 226.155 329.086 213.420 316.351 197.632 316.351 C 181.845 316.351 169.110 329.086 169.110 344.874 M 484.393 493.864 C 485.083 485.541 490.702 479.734 498.523 479.734 C 506.343 479.734 511.625 484.516 512.652 493.864 C 514.885 514.202 512.357 590.085 512.357 590.095 C 512.354 590.095 484.672 590.159 484.670 590.159 C 484.670 590.149 482.632 515.093 484.393 493.864 M 415.938 493.864 C 416.629 485.541 422.248 479.734 430.068 479.734 C 437.889 479.734 443.171 484.516 444.197 493.864 C 446.431 514.202 443.903 590.085 443.903 590.095 C 443.900 590.095 416.218 590.159 416.216 590.159 C 416.216 590.149 414.177 515.093 415.938 493.864 M 348.421 493.864 C 349.112 485.541 354.730 479.734 362.551 479.734 C 370.371 479.734 375.654 484.516 376.680 493.864 C 378.913 514.202 376.385 590.085 376.385 590.095 C 376.382 590.095 348.701 590.159 348.698 590.159 C 348.698 590.149 346.660 515.093 348.421 493.864 M 279.908 493.864 C 280.598 485.541 286.216 479.734 294.037 479.734 C 301.858 479.734 307.140 484.516 308.167 493.864 C 310.400 514.202 307.871 590.085 307.871 590.095 C 307.869 590.095 280.187 590.159 280.184 590.159 C 280.184 590.149 278.147 515.093 279.908 493.864 M 174.593 498.596 C 175.688 484.936 184.946 475.412 197.779 475.412 C 210.611 475.412 219.323 483.253 220.964 498.596 C 224.170 528.555 220.480 640.290 220.480 640.304 C 220.475 640.304 175.052 640.409 175.047 640.409 C 175.047 640.395 172.086 529.868 174.593 498.596 "/>
<path fill="#ffffff" fill-rule="evenodd" stroke="#000000" stroke-width="5" stroke-linecap="round" stroke-linejoin="round" d="M 191.700 171.321 C 191.858 149.744 191.865 123.636 191.875 108.366 C 179.035 108.366 159.471 108.366 159.468 108.366 C 159.468 108.365 159.468 96.022 159.468 96.021 C 159.471 96.021 179.035 96.021 191.876 96.021 C 191.852 83.135 191.852 63.480 191.852 63.477 C 191.853 63.477 204.195 63.477 204.196 63.477 C 204.196 63.480 204.197 84.874 204.246 96.021 C 214.989 96.021 236.577 96.021 236.580 96.021 C 236.580 96.022 236.580 108.365 236.580 108.366 C 236.577 108.366 212.328 108.366 204.244 108.366 C 204.220 128.512 204.195 153.215 204.048 172.702 C 229.192 230.560 279.244 345.734 279.252 345.751 C 279.281 345.751 572.943 345.751 572.972 345.751 C 572.977 345.762 618.604 450.178 618.608 450.189 C 618.609 450.208 621.242 645.878 621.242 645.898 C 621.191 645.898 115.186 646.775 115.136 646.776 C 115.136 646.745 115.136 344.062 115.136 344.032 C 115.136 344.032 191.700 171.321 191.700 171.321 M 549.705 493.864 C 550.395 485.541 556.014 479.734 563.834 479.734 C 571.655 479.734 576.937 484.516 577.963 493.864 C 580.196 514.202 577.669 590.085 577.669 590.095 C 577.666 590.095 549.985 590.159 549.982 590.159 C 549.982 590.149 547.945 515.093 549.705 493.864 M 169.110 344.874 C 169.110 360.661 181.845 373.396 197.632 373.396 C 213.419 373.396 226.155 360.661 226.155 344.874 C 226.155 329.086 213.420 316.351 197.632 316.351 C 181.845 316.351 169.110 329.086 169.110 344.874 M 484.393 493.864 C 485.083 485.541 490.702 479.734 498.523 479.734 C 506.343 479.734 511.625 484.516 512.652 493.864 C 514.885 514.202 512.357 590.085 512.357 590.095 C 512.354 590.095 484.672 590.159 484.670 590.159 C 484.670 590.149 482.632 515.093 484.393 493.864 M 415.938 493.864 C 416.629 485.541 422.248 479.734 430.068 479.734 C 437.889 479.734 443.171 484.516 444.197 493.864 C 446.431 514.202 443.903 590.085 443.903 590.095 C 443.900 590.095 416.218 590.159 416.216 590.159 C 416.216 590.149 414.177 515.093 415.938 493.864 M 348.421 493.864 C 349.112 485.541 354.730 479.734 362.551 479.734 C 370.371 479.734 375.654 484.516 376.680 493.864 C 378.913 514.202 376.385 590.085 376.385 590.095 C 376.382 590.095 348.701 590.159 348.698 590.159 C 348.698 590.149 346.660 515.093 348.421 493.864 M 279.908 493.864 C 280.598 485.541 286.216 479.734 294.037 479.734 C 301.858 479.734 307.140 484.516 308.167 493.864 C 310.400 514.202 307.871 590.085 307.871 590.095 C 307.869 590.095 280.187 590.159 280.184 590.159 C 280.184 590.149 278.147 515.093 279.908 493.864 M 174.593 498.596 C 175.688 484.936 184.946 475.412 197.779 475.412 C 210.611 475.412 219.323 483.253 220.964 498.596 C 224.170 528.555 220.480 640.290 220.480 640.304 C 220.475 640.304 175.052 640.409 175.047 640.409 C 175.047 640.395 172.086 529.868 174.593 498.596 Z"/>
</g>
<g id="arrows">
<path fill="#ff00ff" fill-rule="evenodd" stroke="none" d="M 236.564 472.404 C 236.597 472.404 564.960 472.404 564.993 472.404 C 564.993 472.393 564.993 354.611 564.993 354.600 C 564.960 354.600 236.597 354.600 236.564 354.600 C 236.564 354.611 236.564 472.393 236.564 472.404 Z"/>
<path fill="#ff0000" fill-rule="evenodd" stroke="none" d="M 360.000 620.862 C 360.001 620.866 372.432 655.672 372.433 655.675 C 372.432 655.674 360.001 644.108 360.000 644.107 C 359.999 644.108 347.568 655.674 347.567 655.675 C 347.568 655.672 359.999 620.866 360.000 620.862 Z"/>
<path fill="#0000ff" fill-rule="evenodd" stroke="none" d="M 198.124 29.885 C 198.125 29.887 205.345 50.105 205.346 50.107 C 205.345 50.106 198.125 43.388 198.124 43.387 C 198.123 43.388 190.903 50.106 190.902 50.107 C 190.903 50.105 198.123 29.887 198.124 29.885 Z"/>
<path fill="#00ff00" fill-rule="evenodd" stroke="none" d="M 101.510 451.303 C 101.512 451.302 121.693 443.979 121.695 443.978 C 121.695 443.979 115.013 451.234 115.012 451.235 C 115.013 451.235 121.767 458.422 121.768 458.423 C 121.766 458.422 101.512 451.303 101.510 451.303 Z"/>
<path fill="#ffff00" fill-rule="evenodd" stroke="none" d="M 110.657 651.954 C 110.657 651.952 119.618 632.443 119.619 632.441 C 119.619 632.442 120.091 642.293 120.091 642.294 C 120.092 642.294 129.951 642.533 129.952 642.533 C 129.951 642.534 110.659 651.953 110.657 651.954 Z"/>
<path fill="#ffff00" fill-rule="evenodd" stroke="none" d="M 626.086 651.715 C 626.085 651.713 616.735 632.387 616.734 632.385 C 616.734 632.386 616.459 642.246 616.459 642.247 C 616.458 642.247 606.606 642.683 606.605 642.683 C 606.607 642.684 626.084 651.714 626.086 651.715 Z"/>
<path fill="#00ff00" fill-rule="evenodd" stroke="none" d="M 632.750 451.303 C 632.748 451.302 612.567 443.979 612.565 443.978 C 612.565 443.979 619.247 451.234 619.248 451.235 C 619.247 451.235 612.493 458.422 612.492 458.423 C 612.494 458.422 632.748 451.303 632.750 451.303 Z"/>
<path fill="#00ffff" fill-rule="evenodd" stroke="none" d="M 581.540 334.651 C 581.539 334.653 574.372 354.891 574.371 354.893 C 574.371 354.892 573.014 345.123 573.014 345.122 C 573.013 345.122 563.172 345.771 563.171 345.771 C 563.172 345.770 581.538 334.652 581.540 334.651 Z"/>
<path fill="#00ffff" fill-rule="evenodd" stroke="none" d="M 106.637 335.322 C 106.638 335.324 115.139 355.038 115.140 355.040 C 115.140 355.039 115.842 345.202 115.842 345.201 C 115.843 345.201 125.706 345.193 125.707 345.193 C 125.705 345.192 106.639 335.323 106.637 335.322 Z"/>
</g>
</g>
</svg>
