<?xml version="1.0" encoding="utf-8"?>
<!-- Generator: Moho 12.5 build 22414 -->
<!DOCTYPE svg PUBLIC "-//W3C//DTD SVG 1.1//EN" "http://www.w3.org/Graphics/SVG/1.1/DTD/svg11.dtd">
<svg version="1.1" id="Frame_0" xmlns="http://www.w3.org/2000/svg" xmlns:xlink="http://www.w3.org/1999/xlink" width="720px" height="720px">
<g id="church">
<g id="church">
<path fill="#ffffff" fill-rule="evenodd" stroke="#000000" stroke-width="4" stroke-linecap="round" stroke-linejoin="round" d="M 549.705 493.864 C 550.395 485.541 556.014 479.734 563.834 479.734 C 571.655 479.734 577.798 484.461 577.963 493.864 C 578.321 514.202 577.669 590.085 577.669 590.095 C 577.666 590.095 549.985 590.159 549.982 590.159 C 549.982 590.149 547.945 515.093 549.705 493.864 M 169.110 344.874 C 169.110 360.661 181.845 373.396 197.632 373.396 C 213.419 373.396 226.155 360.661 226.155 344.874 C 226.155 329.086 213.420 316.351 197.632 316.351 C 181.845 316.351 169.110 329.086 169.110 344.874 M 484.393 493.864 C 484.717 485.518 490.702 479.734 498.523 479.734 C 506.343 479.734 512.486 484.461 512.652 493.864 C 513.010 514.202 512.357 590.085 512.357 590.095 C 512.354 590.095 484.672 590.159 484.670 590.159 C 484.670 590.149 483.570 515.093 484.393 493.864 M 415.938 493.864 C 416.277 485.519 422.248 479.734 430.068 479.734 C 437.889 479.734 443.600 484.479 444.197 493.864 C 445.493 514.202 443.903 590.085 443.903 590.095 C 443.900 590.095 416.218 590.159 416.216 590.159 C 416.216 590.149 415.115 514.155 415.938 493.864 M 348.421 493.864 C 349.112 485.541 354.730 479.734 362.551 479.734 C 370.371 479.734 376.082 484.479 376.680 493.864 C 377.976 514.202 376.385 590.085 376.385 590.095 C 376.382 590.095 348.701 590.159 348.698 590.159 C 348.698 590.149 346.660 515.093 348.421 493.864 M 279.908 493.864 C 280.231 485.518 286.216 479.734 294.037 479.734 C 301.858 479.734 308.001 484.461 308.167 493.864 C 308.525 514.202 307.871 590.085 307.871 590.095 C 307.869 590.095 280.187 590.159 280.184 590.159 C 280.184 590.149 279.084 515.093 279.908 493.864 M 174.593 498.596 C 174.917 484.896 184.946 475.412 197.779 475.412 C 210.611 475.412 221.170 483.167 220.964 498.596 C 220.552 529.544 220.480 644.978 220.480 644.992 C 220.475 644.992 175.052 645.097 175.047 645.097 C 175.047 645.082 173.851 529.962 174.593 498.596 M 191.700 171.321 C 191.858 149.744 191.865 123.636 191.875 108.366 C 179.035 108.366 159.471 108.366 159.468 108.366 C 159.468 108.365 159.468 96.022 159.468 96.021 C 159.471 96.021 179.035 96.021 191.876 96.021 C 191.852 83.135 191.852 63.480 191.852 63.477 C 191.853 63.477 204.195 63.477 204.196 63.477 C 204.196 63.480 204.197 84.874 204.246 96.021 C 214.989 96.021 236.577 96.021 236.580 96.021 C 236.580 96.022 236.580 108.365 236.580 108.366 C 236.577 108.366 212.328 108.366 204.244 108.366 C 204.220 128.512 204.195 153.215 204.048 172.702 C 229.192 230.560 279.244 345.734 279.252 345.751 C 279.281 345.751 572.943 345.751 572.972 345.751 C 572.977 345.762 618.604 450.178 618.608 450.189 C 618.609 450.208 621.242 645.878 621.242 645.898 C 621.191 645.898 115.186 646.775 115.136 646.776 C 115.136 646.745 115.136 344.062 115.136 344.032 C 115.136 344.032 191.700 171.321 191.700 171.321 Z"/>
<path fill="none" stroke="#000000" stroke-width="1" stroke-linecap="butt" stroke-linejoin="round" d="M 549.705 493.864 C 550.395 485.541 556.014 479.734 563.834 479.734 "/>
<path fill="none" stroke="#000000" stroke-width="1" stroke-linecap="butt" stroke-linejoin="round" d="M 563.834 479.734 C 571.655 479.734 577.798 484.461 577.963 493.864 "/>
<path fill="none" stroke="#000000" stroke-width="1" stroke-linecap="butt" stroke-linejoin="round" d="M 577.963 493.864 C 578.321 514.202 577.669 590.085 577.669 590.095 "/>
<path fill="none" stroke="#000000" stroke-width="1" stroke-linecap="butt" stroke-linejoin="round" d="M 577.669 590.095 C 577.666 590.095 549.985 590.159 549.982 590.159 "/>
<path fill="none" stroke="#000000" stroke-width="1" stroke-linecap="butt" stroke-linejoin="round" d="M 549.982 590.159 C 549.982 590.149 547.945 515.093 549.705 493.864 "/>
<path fill="none" stroke="#000000" stroke-width="1" stroke-linecap="butt" stroke-linejoin="round" d="M 169.110 344.874 C 169.110 360.661 181.845 373.396 197.632 373.396 "/>
<path fill="none" stroke="#000000" stroke-width="1" stroke-linecap="butt" stroke-linejoin="round" d="M 197.632 373.396 C 213.419 373.396 226.155 360.661 226.155 344.874 "/>
<path fill="none" stroke="#000000" stroke-width="1" stroke-linecap="butt" stroke-linejoin="round" d="M 226.155 344.874 C 226.155 329.086 213.420 316.351 197.632 316.351 "/>
<path fill="none" stroke="#000000" stroke-width="1" stroke-linecap="butt" stroke-linejoin="round" d="M 197.632 316.351 C 181.845 316.351 169.110 329.086 169.110 344.874 "/>
<path fill="none" stroke="#000000" stroke-width="1" stroke-linecap="butt" stroke-linejoin="round" d="M 484.393 493.864 C 484.717 485.518 490.702 479.734 498.523 479.734 "/>
<path fill="none" stroke="#000000" stroke-width="1" stroke-linecap="butt" stroke-linejoin="round" d="M 498.523 479.734 C 506.343 479.734 512.486 484.461 512.652 493.864 "/>
<path fill="none" stroke="#000000" stroke-width="1" stroke-linecap="butt" stroke-linejoin="round" d="M 512.652 493.864 C 513.010 514.202 512.357 590.085 512.357 590.095 "/>
<path fill="none" stroke="#000000" stroke-width="1" stroke-linecap="butt" stroke-linejoin="round" d="M 512.357 590.095 C 512.354 590.095 484.672 590.159 484.670 590.159 "/>
<path fill="none" stroke="#000000" stroke-width="1" stroke-linecap="butt" stroke-linejoin="round" d="M 484.670 590.159 C 484.670 590.149 483.570 515.093 484.393 493.864 "/>
<path fill="none" stroke="#000000" stroke-width="1" stroke-linecap="butt" stroke-linejoin="round" d="M 415.938 493.864 C 416.277 485.519 422.248 479.734 430.068 479.734 "/>
<path fill="none" stroke="#000000" stroke-width="1" stroke-linecap="butt" stroke-linejoin="round" d="M 430.068 479.734 C 437.889 479.734 443.600 484.479 444.197 493.864 "/>
<path fill="none" stroke="#000000" stroke-width="1" stroke-linecap="butt" stroke-linejoin="round" d="M 444.197 493.864 C 445.493 514.202 443.903 590.085 443.903 590.095 "/>
<path fill="none" stroke="#000000" stroke-width="1" stroke-linecap="butt" stroke-linejoin="round" d="M 443.903 590.095 C 443.900 590.095 416.218 590.159 416.216 590.159 "/>
<path fill="none" stroke="#000000" stroke-width="1" stroke-linecap="butt" stroke-linejoin="round" d="M 416.216 590.159 C 416.216 590.149 415.115 514.155 415.938 493.864 "/>
<path fill="none" stroke="#000000" stroke-width="1" stroke-linecap="butt" stroke-linejoin="round" d="M 348.421 493.864 C 349.112 485.541 354.730 479.734 362.551 479.734 "/>
<path fill="none" stroke="#000000" stroke-width="1" stroke-linecap="butt" stroke-linejoin="round" d="M 362.551 479.734 C 370.371 479.734 376.082 484.479 376.680 493.864 "/>
<path fill="none" stroke="#000000" stroke-width="1" stroke-linecap="butt" stroke-linejoin="round" d="M 376.680 493.864 C 377.976 514.202 376.385 590.085 376.385 590.095 "/>
<path fill="none" stroke="#000000" stroke-width="1" stroke-linecap="butt" stroke-linejoin="round" d="M 376.385 590.095 C 376.382 590.095 348.701 590.159 348.698 590.159 "/>
<path fill="none" stroke="#000000" stroke-width="1" stroke-linecap="butt" stroke-linejoin="round" d="M 348.698 590.159 C 348.698 590.149 346.660 515.093 348.421 493.864 "/>
<path fill="none" stroke="#000000" stroke-width="1" stroke-linecap="butt" stroke-linejoin="round" d="M 279.908 493.864 C 280.231 485.518 286.216 479.734 294.037 479.734 "/>
<path fill="none" stroke="#000000" stroke-width="1" stroke-linecap="butt" stroke-linejoin="round" d="M 294.037 479.734 C 301.858 479.734 308.001 484.461 308.167 493.864 "/>
<path fill="none" stroke="#000000" stroke-width="1" stroke-linecap="butt" stroke-linejoin="round" d="M 308.167 493.864 C 308.525 514.202 307.871 590.085 307.871 590.095 "/>
<path fill="none" stroke="#000000" stroke-width="1" stroke-linecap="butt" stroke-linejoin="round" d="M 307.871 590.095 C 307.869 590.095 280.187 590.159 280.184 590.159 "/>
<path fill="none" stroke="#000000" stroke-width="1" stroke-linecap="butt" stroke-linejoin="round" d="M 280.184 590.159 C 280.184 590.149 279.084 515.093 279.908 493.864 "/>
<path fill="none" stroke="#000000" stroke-width="1" stroke-linecap="butt" stroke-linejoin="round" d="M 174.593 498.596 C 174.917 484.896 184.946 475.412 197.779 475.412 "/>
<path fill="none" stroke="#000000" stroke-width="1" stroke-linecap="butt" stroke-linejoin="round" d="M 197.779 475.412 C 210.611 475.412 221.170 483.167 220.964 498.596 "/>
<path fill="none" stroke="#000000" stroke-width="1" stroke-linecap="butt" stroke-linejoin="round" d="M 220.964 498.596 C 220.552 529.544 220.480 644.978 220.480 644.992 "/>
<path fill="none" stroke="#000000" stroke-width="1" stroke-linecap="butt" stroke-linejoin="round" d="M 220.480 644.992 C 220.475 644.992 175.052 645.097 175.047 645.097 "/>
<path fill="none" stroke="#000000" stroke-width="1" stroke-linecap="butt" stroke-linejoin="round" d="M 175.047 645.097 C 175.047 645.082 173.851 529.962 174.593 498.596 "/>
<path fill="#000000" fill-rule="evenodd" stroke="none" d="M 549.705 493.864 C 550.395 485.541 556.014 479.734 563.834 479.734 C 571.655 479.734 577.798 484.461 577.963 493.864 C 578.321 514.202 577.669 590.085 577.669 590.095 C 577.666 590.095 549.985 590.159 549.982 590.159 C 549.982 590.149 547.945 515.093 549.705 493.864 M 169.110 344.874 C 169.110 360.661 181.845 373.396 197.632 373.396 C 213.419 373.396 226.155 360.661 226.155 344.874 C 226.155 329.086 213.420 316.351 197.632 316.351 C 181.845 316.351 169.110 329.086 169.110 344.874 M 484.393 493.864 C 484.717 485.518 490.702 479.734 498.523 479.734 C 506.343 479.734 512.486 484.461 512.652 493.864 C 513.010 514.202 512.357 590.085 512.357 590.095 C 512.354 590.095 484.672 590.159 484.670 590.159 C 484.670 590.149 483.570 515.093 484.393 493.864 M 415.938 493.864 C 416.277 485.519 422.248 479.734 430.068 479.734 C 437.889 479.734 443.600 484.479 444.197 493.864 C 445.493 514.202 443.903 590.085 443.903 590.095 C 443.900 590.095 416.218 590.159 416.216 590.159 C 416.216 590.149 415.115 514.155 415.938 493.864 M 348.421 493.864 C 349.112 485.541 354.730 479.734 362.551 479.734 C 370.371 479.734 376.082 484.479 376.680 493.864 C 377.976 514.202 376.385 590.085 376.385 590.095 C 376.382 590.095 348.701 590.159 348.698 590.159 C 348.698 590.149 346.660 515.093 348.421 493.864 M 279.908 493.864 C 280.231 485.518 286.216 479.734 294.037 479.734 C 301.858 479.734 308.001 484.461 308.167 493.864 C 308.525 514.202 307.871 590.085 307.871 590.095 C 307.869 590.095 280.187 590.159 280.184 590.159 C 280.184 590.149 279.084 515.093 279.908 493.864 M 174.593 498.596 C 174.917 484.896 184.946 475.412 197.779 475.412 C 210.611 475.412 221.170 483.167 220.964 498.596 C 220.552 529.544 220.480 644.978 220.480 644.992 C 220.475 644.992 175.052 645.097 175.047 645.097 C 175.047 645.082 173.851 529.962 174.593 498.596 Z"/>
</g>
<g id="specs">
<path fill="#ff00ff" fill-rule="evenodd" stroke="none" d="M 236.564 472.404 C 236.597 472.404 564.960 472.404 564.993 472.404 C 564.993 472.393 564.993 354.611 564.993 354.599 C 564.960 354.599 236.597 354.599 236.564 354.599 C 236.564 354.611 236.564 472.393 236.564 472.404 Z"/>
<path fill="#ff0000" fill-rule="evenodd" stroke="none" d="M 360.000 644.303 C 360.001 644.307 372.432 679.113 372.433 679.116 C 372.432 679.115 360.001 667.549 360.000 667.548 C 359.999 667.549 347.568 679.115 347.567 679.116 C 347.568 679.113 359.999 644.307 360.000 644.303 Z"/>
<path fill="#0000ff" fill-rule="evenodd" stroke="none" d="M 198.124 53.326 C 198.125 53.328 205.345 73.546 205.346 73.548 C 205.345 73.547 198.125 66.829 198.124 66.829 C 198.123 66.829 190.903 73.547 190.902 73.548 C 190.903 73.546 198.123 53.328 198.124 53.326 Z"/>
<path fill="#00ff00" fill-rule="evenodd" stroke="none" d="M 101.510 451.303 C 101.512 451.302 121.693 443.979 121.695 443.978 C 121.695 443.979 115.013 451.234 115.012 451.235 C 115.013 451.235 121.767 458.422 121.768 458.423 C 121.766 458.422 101.512 451.303 101.510 451.303 Z"/>
<path fill="#ffff00" fill-rule="evenodd" stroke="none" d="M 110.657 651.954 C 110.657 651.952 119.618 632.443 119.619 632.441 C 119.619 632.442 120.091 642.293 120.091 642.294 C 120.092 642.294 129.951 642.533 129.952 642.533 C 129.951 642.534 110.659 651.953 110.657 651.954 Z"/>
<path fill="#ffff00" fill-rule="evenodd" stroke="none" d="M 626.086 651.715 C 626.085 651.713 616.735 632.387 616.734 632.385 C 616.734 632.386 616.459 642.246 616.459 642.247 C 616.458 642.247 606.606 642.683 606.605 642.683 C 606.607 642.684 626.084 651.714 626.086 651.715 Z"/>
<path fill="#00ff00" fill-rule="evenodd" stroke="none" d="M 632.750 451.303 C 632.748 451.302 612.567 443.979 612.565 443.978 C 612.565 443.979 619.247 451.234 619.248 451.235 C 619.247 451.235 612.493 458.422 612.492 458.423 C 612.494 458.422 632.748 451.303 632.750 451.303 Z"/>
<path fill="#00ffff" fill-rule="evenodd" stroke="none" d="M 581.540 334.651 C 581.539 334.654 574.372 354.890 574.371 354.892 C 574.371 354.891 573.014 345.122 573.014 345.121 C 573.013 345.121 563.172 345.772 563.171 345.772 C 563.173 345.771 581.538 334.653 581.540 334.651 Z"/>
<path fill="#00ffff" fill-rule="evenodd" stroke="none" d="M 106.637 335.322 C 106.638 335.324 115.139 355.039 115.139 355.041 C 115.140 355.040 115.842 345.202 115.842 345.201 C 115.843 345.201 125.706 345.193 125.707 345.193 C 125.705 345.192 106.639 335.323 106.637 335.322 Z"/>
</g>
</g>
</svg>
