<?xml version="1.0" encoding="utf-8"?>
<!-- Generator: Moho 12.5 build 22414 -->
<!DOCTYPE svg PUBLIC "-//W3C//DTD SVG 1.1//EN" "http://www.w3.org/Graphics/SVG/1.1/DTD/svg11.dtd">
<svg version="1.1" id="Frame_0" xmlns="http://www.w3.org/2000/svg" xmlns:xlink="http://www.w3.org/1999/xlink" width="720px" height="720px">
<g id="circle">
<g id="Circle">
<path fill="#ffffff" fill-rule="evenodd" stroke="#000000" stroke-width="4" stroke-linecap="round" stroke-linejoin="round" d="M 360.000 17.588 C 538.126 17.588 681.822 161.283 681.822 339.409 C 681.822 517.536 538.126 661.231 360.000 661.231 C 181.874 661.231 38.178 517.536 38.178 339.409 C 38.178 161.283 181.874 17.588 360.000 17.588 Z"/>
</g>
<g id="specs">
<path fill="#ff00ff" fill-rule="evenodd" stroke="none" d="M 144.210 555.200 C 144.253 555.200 575.747 555.200 575.790 555.200 C 575.790 555.156 575.790 123.662 575.790 123.619 C 575.747 123.619 144.253 123.619 144.210 123.619 C 144.210 123.662 144.210 555.156 144.210 555.200 Z"/>
<path fill="#ff0000" fill-rule="evenodd" stroke="none" d="M 360.000 679.153 C 360.001 679.156 372.114 713.074 372.116 713.077 C 372.114 713.076 360.001 701.805 360.000 701.804 C 359.999 701.805 347.886 713.076 347.884 713.077 C 347.886 713.074 359.999 679.156 360.000 679.153 Z"/>
<path fill="#0000ff" fill-rule="evenodd" stroke="none" d="M 360.000 5.914 C 360.001 5.916 367.037 25.618 367.038 25.620 C 367.037 25.620 360.001 19.073 360.000 19.072 C 359.999 19.073 352.963 25.620 352.962 25.620 C 352.963 25.618 359.999 5.916 360.000 5.914 Z"/>
<path fill="#00ff00" fill-rule="evenodd" stroke="none" d="M 27.115 340.387 C 27.117 340.386 46.783 333.250 46.785 333.250 C 46.784 333.250 40.273 340.320 40.272 340.321 C 40.273 340.321 46.855 347.325 46.856 347.325 C 46.854 347.325 27.117 340.388 27.115 340.387 Z"/>
<path fill="#ffff00" fill-rule="evenodd" stroke="none" d="M 123.885 576.695 C 123.886 576.693 132.618 557.681 132.619 557.679 C 132.619 557.680 133.079 567.281 133.079 567.281 C 133.080 567.282 142.688 567.514 142.689 567.514 C 142.687 567.515 123.887 576.694 123.885 576.695 Z"/>
<path fill="#ffff00" fill-rule="evenodd" stroke="none" d="M 596.115 576.462 C 596.114 576.460 587.003 557.627 587.002 557.625 C 587.002 557.626 586.734 567.234 586.734 567.235 C 586.733 567.235 577.132 567.660 577.131 567.661 C 577.133 567.661 596.113 576.461 596.115 576.462 Z"/>
<path fill="#00ff00" fill-rule="evenodd" stroke="none" d="M 692.885 340.387 C 692.883 340.386 673.217 333.250 673.215 333.250 C 673.216 333.250 679.727 340.320 679.728 340.321 C 679.727 340.321 673.145 347.325 673.144 347.325 C 673.146 347.325 692.883 340.388 692.885 340.387 Z"/>
<path fill="#00ffff" fill-rule="evenodd" stroke="none" d="M 595.202 103.308 C 595.201 103.310 588.217 123.031 588.216 123.033 C 588.216 123.032 586.894 113.512 586.893 113.511 C 586.893 113.511 577.303 114.144 577.302 114.144 C 577.303 114.143 595.200 103.309 595.202 103.308 Z"/>
<path fill="#00ffff" fill-rule="evenodd" stroke="none" d="M 124.907 103.962 C 124.908 103.963 133.191 123.175 133.192 123.177 C 133.192 123.176 133.877 113.589 133.877 113.588 C 133.878 113.588 143.489 113.580 143.490 113.580 C 143.488 113.580 124.909 103.962 124.907 103.962 Z"/>
<path fill="#be0027" fill-rule="evenodd" stroke="none" d="M 359.959 674.808 C 359.959 674.805 368.773 650.128 368.774 650.126 C 368.773 650.126 359.959 658.326 359.959 658.327 C 359.958 658.326 351.144 650.126 351.144 650.126 C 351.144 650.128 359.958 674.805 359.959 674.808 Z"/>
</g>
</g>
</svg>
