<?xml version="1.0" encoding="utf-8"?>
<!-- Generator: Moho 12.5 build 22414 -->
<!DOCTYPE svg PUBLIC "-//W3C//DTD SVG 1.1//EN" "http://www.w3.org/Graphics/SVG/1.1/DTD/svg11.dtd">
<svg version="1.1" id="Frame_0" xmlns="http://www.w3.org/2000/svg" xmlns:xlink="http://www.w3.org/1999/xlink" width="720px" height="720px">
<g id="circle">
<g id="Circle">
<path fill="#ffffff" fill-rule="evenodd" stroke="#000000" stroke-width="4" stroke-linecap="round" stroke-linejoin="round" d="M 360.000 17.588 C 538.126 17.588 681.822 161.283 681.822 339.409 C 681.822 517.536 538.126 661.231 360.000 661.231 C 181.874 661.231 38.178 517.536 38.178 339.409 C 38.178 161.283 181.874 17.588 360.000 17.588 Z"/>
</g>
<g id="specs">
<path fill="#ff00ff" fill-rule="evenodd" stroke="none" d="M 132.825 566.585 C 132.870 566.585 587.130 566.585 587.175 566.585 C 587.175 566.539 587.175 112.280 587.175 112.234 C 587.130 112.234 132.870 112.234 132.825 112.234 C 132.825 112.280 132.825 566.539 132.825 566.585 Z"/>
<path fill="#ff0000" fill-rule="evenodd" stroke="none" d="M 360.000 679.153 C 360.001 679.156 372.114 713.074 372.116 713.077 C 372.114 713.076 360.001 701.805 360.000 701.804 C 359.999 701.805 347.886 713.076 347.884 713.077 C 347.886 713.074 359.999 679.156 360.000 679.153 Z"/>
<path fill="#0000ff" fill-rule="evenodd" stroke="none" d="M 360.000 5.914 C 360.001 5.916 367.037 25.618 367.038 25.620 C 367.037 25.620 360.001 19.073 360.000 19.072 C 359.999 19.073 352.963 25.620 352.962 25.620 C 352.963 25.618 359.999 5.916 360.000 5.914 Z"/>
<path fill="#00ff00" fill-rule="evenodd" stroke="none" d="M 27.624 340.388 C 27.626 340.388 47.293 333.252 47.295 333.251 C 47.294 333.252 40.783 340.321 40.782 340.322 C 40.783 340.323 47.365 347.326 47.366 347.327 C 47.364 347.326 27.626 340.389 27.624 340.388 Z"/>
<path fill="#ffff00" fill-rule="evenodd" stroke="none" d="M 124.531 576.697 C 124.532 576.695 133.264 557.683 133.265 557.682 C 133.265 557.682 133.725 567.283 133.725 567.284 C 133.726 567.284 143.334 567.517 143.335 567.517 C 143.333 567.517 124.533 576.696 124.531 576.697 Z"/>
<path fill="#ffff00" fill-rule="evenodd" stroke="none" d="M 596.761 576.464 C 596.760 576.462 587.648 557.629 587.647 557.627 C 587.647 557.628 587.380 567.236 587.380 567.237 C 587.379 567.237 577.777 567.663 577.776 567.663 C 577.778 567.664 596.759 576.463 596.761 576.464 Z"/>
<path fill="#00ff00" fill-rule="evenodd" stroke="none" d="M 693.395 340.388 C 693.393 340.388 673.727 333.252 673.725 333.251 C 673.725 333.252 680.237 340.321 680.237 340.322 C 680.237 340.323 673.654 347.326 673.654 347.327 C 673.656 347.326 693.393 340.389 693.395 340.388 Z"/>
<path fill="#00ffff" fill-rule="evenodd" stroke="none" d="M 595.202 103.308 C 595.201 103.310 588.217 123.031 588.216 123.033 C 588.216 123.032 586.894 113.512 586.893 113.511 C 586.893 113.511 577.303 114.144 577.302 114.144 C 577.303 114.143 595.200 103.309 595.202 103.308 Z"/>
<path fill="#00ffff" fill-rule="evenodd" stroke="none" d="M 124.907 103.962 C 124.908 103.963 133.191 123.175 133.192 123.177 C 133.192 123.176 133.877 113.589 133.877 113.588 C 133.878 113.588 143.489 113.580 143.490 113.580 C 143.488 113.580 124.909 103.962 124.907 103.962 Z"/>
<path fill="#be0027" fill-rule="evenodd" stroke="none" d="M 359.959 674.808 C 359.959 674.805 368.773 650.128 368.774 650.126 C 368.773 650.126 359.959 658.326 359.959 658.327 C 359.958 658.326 351.144 650.126 351.144 650.126 C 351.144 650.128 359.958 674.805 359.959 674.808 Z"/>
</g>
</g>
</svg>
