<?xml version="1.0" encoding="utf-8"?>
<!-- Generator: Moho 12.3 build 22017 -->
<!DOCTYPE svg PUBLIC "-//W3C//DTD SVG 1.1//EN" "http://www.w3.org/Graphics/SVG/1.1/DTD/svg11.dtd">
<svg version="1.1" id="Frame_0" xmlns="http://www.w3.org/2000/svg" xmlns:xlink="http://www.w3.org/1999/xlink" width="720px" height="720px">
<g id="circle">
<g id="Circle">
<path fill="#ffffff" fill-rule="evenodd" stroke="#000000" stroke-width="5" stroke-linecap="round" stroke-linejoin="round" d="M 360.000 20.725 C 547.787 20.725 699.275 172.213 699.275 360.000 C 699.275 547.787 547.787 699.275 360.000 699.275 C 172.213 699.275 20.725 547.787 20.725 360.000 C 20.725 172.213 172.213 20.725 360.000 20.725 Z"/>
</g>
<g id="specs">
<path fill="#ff00ff" fill-rule="evenodd" stroke="none" d="M 120.488 599.512 C 120.536 599.512 599.464 599.512 599.512 599.512 C 599.512 599.464 599.512 120.536 599.512 120.488 C 599.464 120.488 120.536 120.488 120.488 120.488 C 120.488 120.536 120.488 599.464 120.488 599.512 Z"/>
<path fill="#ff0000" fill-rule="evenodd" stroke="none" d="M 360.000 682.844 C 368.858 682.844 376.004 689.991 376.004 698.849 C 376.004 707.707 368.858 714.853 360.000 714.853 C 351.142 714.853 343.996 707.707 343.996 698.849 C 343.996 689.991 351.142 682.844 360.000 682.844 Z"/>
<path fill="#ffff00" fill-rule="evenodd" stroke="none" d="M 584.612 599.512 C 584.612 590.654 591.758 583.508 600.616 583.508 C 609.474 583.508 616.621 590.654 616.621 599.512 C 616.621 608.370 609.474 615.516 600.616 615.516 C 591.758 615.516 584.612 608.370 584.612 599.512 M 104.484 599.512 C 104.484 590.654 111.630 583.508 120.488 583.508 C 129.346 583.508 136.492 590.654 136.492 599.512 C 136.492 608.370 129.346 615.516 120.488 615.516 C 111.630 615.516 104.484 608.370 104.484 599.512 Z"/>
<path fill="#00ff00" fill-rule="evenodd" stroke="none" d="M 4.043 360.000 C 4.043 351.142 11.189 343.996 20.047 343.996 C 28.906 343.996 36.052 351.142 36.052 360.000 C 36.052 368.858 28.906 376.004 20.047 376.004 C 11.189 376.004 4.043 368.858 4.043 360.000 M 681.741 360.000 C 681.741 351.142 688.887 343.996 697.745 343.996 C 706.603 343.996 713.750 351.142 713.750 360.000 C 713.750 368.858 706.603 376.004 697.745 376.004 C 688.887 376.004 681.741 368.858 681.741 360.000 Z"/>
<path fill="#00ffff" fill-rule="evenodd" stroke="none" d="M 599.512 103.380 C 608.370 103.380 615.516 110.526 615.516 119.384 C 615.516 128.243 608.370 135.389 599.512 135.389 C 590.654 135.389 583.508 128.243 583.508 119.384 C 583.508 110.526 590.654 103.380 599.512 103.380 Z"/>
<path fill="#00ffff" fill-rule="evenodd" stroke="none" d="M 120.488 103.380 C 129.346 103.380 136.492 110.526 136.492 119.384 C 136.492 128.243 129.346 135.389 120.488 135.389 C 111.629 135.389 104.483 128.243 104.483 119.384 C 104.483 110.526 111.629 103.380 120.488 103.380 Z"/>
<path fill="#0000ff" fill-rule="evenodd" stroke="none" d="M 360.000 4.043 C 368.858 4.043 376.004 11.189 376.004 20.047 C 376.004 28.906 368.858 36.052 360.000 36.052 C 351.142 36.052 343.996 28.906 343.996 20.047 C 343.996 11.189 351.142 4.043 360.000 4.043 Z"/>
</g>
</g>
</svg>
