<?xml version="1.0" encoding="utf-8"?>
<!-- Generator: Moho 13.0.3 build 635 -->
<!DOCTYPE svg PUBLIC "-//W3C//DTD SVG 1.1//EN" "http://www.w3.org/Graphics/SVG/1.1/DTD/svg11.dtd">
<svg version="1.1" id="Frame_0" xmlns="http://www.w3.org/2000/svg" xmlns:xlink="http://www.w3.org/1999/xlink" width="1280px" height="720px">
<g id="cloud">
<path fill="#ffffff" fill-rule="evenodd" stroke="#000000" stroke-width="4" stroke-linecap="round" stroke-linejoin="round" d="M 110.551 493.788 C 110.551 419.164 167.138 358.100 239.401 351.086 C 230.500 331.069 225.295 307.871 225.296 283.426 C 225.296 190.809 300.212 122.209 392.627 116.093 C 443.502 112.726 491.121 127.729 524.194 162.409 C 543.078 74.527 623.643 17.008 715.340 20.474 C 817.702 24.342 907.561 97.983 904.097 202.911 C 918.838 196.413 936.184 191.541 954.386 192.588 C 1024.173 196.601 1087.978 271.035 1058.967 350.866 C 1115.942 369.043 1164.402 416.695 1169.449 479.445 C 1176.553 567.763 1097.107 627.175 1009.369 639.526 C 958.581 646.675 909.339 638.021 878.468 602.173 C 858.534 622.878 831.824 643.278 799.898 643.779 C 779.150 644.105 760.395 634.103 744.319 624.069 C 701.151 690.338 622.359 708.748 540.837 699.367 C 466.366 690.799 399.315 662.959 365.196 600.046 C 336.087 627.322 296.430 639.663 253.980 637.215 C 174.725 632.644 110.551 573.174 110.551 493.788 Z"/>
</g>
</svg>
