<?xml version="1.0" encoding="utf-8"?>
<!-- Generator: Moho 13.0.3 build 635 -->
<!DOCTYPE svg PUBLIC "-//W3C//DTD SVG 1.1//EN" "http://www.w3.org/Graphics/SVG/1.1/DTD/svg11.dtd">
<svg version="1.1" id="Frame_0" xmlns="http://www.w3.org/2000/svg" xmlns:xlink="http://www.w3.org/1999/xlink" width="1280px" height="720px">
<g id="cloud">
<path fill="#ffffff" fill-rule="evenodd" stroke="#000000" stroke-width="4" stroke-linecap="round" stroke-linejoin="round" d="M 530.127 378.396 C 530.127 362.910 541.870 350.237 556.866 348.782 C 555.019 344.628 553.939 339.814 553.939 334.741 C 553.939 315.521 569.486 301.285 588.664 300.015 C 599.222 299.317 609.104 302.430 615.968 309.627 C 619.886 291.389 636.606 279.453 655.635 280.172 C 676.877 280.975 695.525 296.257 694.806 318.032 C 697.865 316.684 701.465 315.673 705.242 315.890 C 719.725 316.723 732.966 332.170 726.945 348.736 C 738.769 352.509 748.826 362.397 749.873 375.420 C 751.347 393.748 734.860 406.077 716.653 408.640 C 706.113 410.124 695.894 408.328 689.488 400.888 C 685.351 405.185 679.808 409.419 673.183 409.523 C 668.877 409.590 664.985 407.515 661.649 405.432 C 652.690 419.185 636.339 423.005 619.421 421.059 C 603.967 419.280 590.052 413.503 582.972 400.447 C 576.931 406.107 568.701 408.669 559.892 408.160 C 543.445 407.212 530.127 394.871 530.127 378.396 Z"/>
</g>
</svg>
