<?xml version="1.0" encoding="utf-8"?>
<!-- Generator: Moho 13.0.3 build 635 -->
<!DOCTYPE svg PUBLIC "-//W3C//DTD SVG 1.1//EN" "http://www.w3.org/Graphics/SVG/1.1/DTD/svg11.dtd">
<svg version="1.1" id="Frame_0" xmlns="http://www.w3.org/2000/svg" xmlns:xlink="http://www.w3.org/1999/xlink" width="720px" height="720px">
<g id="cloud">
<g id="cloud">
<path fill="#ffffff" fill-rule="evenodd" stroke="#000000" stroke-width="4" stroke-linecap="round" stroke-linejoin="round" d="M 10.986 448.176 C 10.985 398.984 48.288 358.730 95.924 354.106 C 90.056 340.911 86.626 325.619 86.626 309.505 C 86.626 248.451 136.011 203.230 196.931 199.198 C 230.468 196.979 261.859 206.869 283.660 229.730 C 296.109 171.798 349.218 133.881 409.664 136.166 C 477.142 138.716 536.377 187.260 534.094 256.429 C 543.811 252.145 555.245 248.934 567.244 249.624 C 613.248 252.270 655.308 301.337 636.184 353.961 C 673.742 365.944 705.687 397.356 709.014 438.721 C 713.697 496.941 661.326 536.105 603.489 544.247 C 570.009 548.960 537.549 543.255 517.199 519.624 C 504.059 533.272 486.451 546.720 465.405 547.050 C 451.728 547.265 439.365 540.672 428.767 534.057 C 400.311 577.742 348.371 589.878 294.631 583.694 C 245.540 578.046 201.340 559.694 178.848 518.221 C 159.660 536.201 133.517 544.337 105.534 542.723 C 53.289 539.710 10.986 500.508 10.986 448.176 Z"/>
</g>
<g id="specs">
<path fill="#ff00ff" fill-rule="evenodd" stroke="none" d="M 200.149 501.879 C 200.182 501.879 523.010 501.879 523.043 501.879 C 523.043 501.854 523.043 249.156 523.043 249.131 C 523.010 249.131 200.182 249.131 200.149 249.131 C 200.149 249.156 200.149 501.854 200.149 501.879 Z"/>
<path fill="#ff0000" fill-rule="evenodd" stroke="none" d="M 363.553 561.976 C 363.555 561.980 373.497 594.063 373.498 594.067 C 373.497 594.066 363.555 584.020 363.553 584.019 C 363.552 584.020 351.764 594.989 351.763 594.990 C 351.764 594.987 363.552 561.980 363.553 561.976 Z"/>
<path fill="#0000ff" fill-rule="evenodd" stroke="none" d="M 406.825 119.437 C 406.826 119.439 413.673 138.612 413.674 138.614 C 413.673 138.613 406.826 132.242 406.825 132.242 C 406.825 132.242 399.977 138.613 399.976 138.614 C 399.977 138.612 406.825 119.439 406.825 119.437 Z"/>
<path fill="#00ff00" fill-rule="evenodd" stroke="none" d="M 20.684 383.549 C 20.686 383.550 39.841 390.449 39.843 390.450 C 39.842 390.450 30.571 391.688 30.570 391.688 C 30.570 391.689 31.137 401.024 31.137 401.025 C 31.136 401.023 20.685 383.551 20.684 383.549 Z"/>
<path fill="#ffff00" fill-rule="evenodd" stroke="none" d="M 173.980 529.154 C 173.980 529.151 174.841 508.810 174.841 508.808 C 174.841 508.809 178.793 517.287 178.793 517.288 C 178.794 517.287 187.533 513.957 187.534 513.957 C 187.533 513.958 173.982 529.152 173.980 529.154 Z"/>
<path fill="#ffff00" fill-rule="evenodd" stroke="none" d="M 626.860 551.783 C 626.860 551.781 624.546 531.554 624.546 531.552 C 624.546 531.553 621.211 540.292 621.211 540.293 C 621.210 540.292 612.254 537.596 612.253 537.596 C 612.255 537.597 626.859 551.782 626.860 551.783 Z"/>
<path fill="#00ff00" fill-rule="evenodd" stroke="none" d="M 692.406 373.286 C 692.404 373.287 674.157 382.318 674.155 382.319 C 674.156 382.319 683.508 382.494 683.509 382.494 C 683.509 382.495 684.007 391.835 684.007 391.836 C 684.007 391.834 692.405 373.288 692.406 373.286 Z"/>
<path fill="#00ffff" fill-rule="evenodd" stroke="none" d="M 528.532 185.211 C 528.531 185.213 517.880 202.564 517.879 202.566 C 517.879 202.565 518.553 193.236 518.553 193.235 C 518.552 193.235 509.296 191.891 509.295 191.891 C 509.297 191.890 528.530 185.212 528.532 185.211 Z"/>
<path fill="#00ffff" fill-rule="evenodd" stroke="none" d="M 299.368 167.901 C 299.369 167.903 308.765 185.964 308.766 185.966 C 308.766 185.965 308.754 176.612 308.754 176.611 C 308.755 176.611 318.083 175.925 318.084 175.925 C 318.082 175.924 299.370 167.902 299.368 167.901 Z"/>
</g>
</g>
</svg>
