<?xml version="1.0" encoding="utf-8"?>
<!-- Generator: Moho 12.5 build 22414 -->
<!DOCTYPE svg PUBLIC "-//W3C//DTD SVG 1.1//EN" "http://www.w3.org/Graphics/SVG/1.1/DTD/svg11.dtd">
<svg version="1.1" id="Frame_0" xmlns="http://www.w3.org/2000/svg" xmlns:xlink="http://www.w3.org/1999/xlink" width="720px" height="720px">
<g id="cloud_spiraly_vertical">
<g id="cloud_spiraly">
<path fill="#ffffff" fill-rule="evenodd" stroke="none" d="M 365.638 250.044 C 365.638 221.788 348.478 206.002 331.730 206.002 C 314.981 206.002 297.822 221.788 297.822 250.044 C 297.822 278.299 314.981 294.085 331.730 294.085 C 348.478 294.085 365.638 278.299 365.638 250.044 Z"/>
<path fill="#ffffff" fill-rule="evenodd" stroke="none" d="M 309.572 392.453 C 304.860 346.303 325.318 317.519 348.122 294.323 C 338.120 278.834 333.453 254.760 340.946 234.054 C 351.072 206.067 380.521 179.357 406.428 177.282 C 447.515 173.991 482.723 200.302 497.083 222.436 C 526.212 267.335 503.266 317.499 492.604 329.258 C 451.599 374.486 409.946 369.425 392.221 371.728 C 365.494 375.201 351.464 386.552 341.108 400.527 C 332.340 412.359 324.286 438.828 324.284 438.832 C 324.283 438.827 311.143 407.844 309.572 392.453 Z"/>
<path fill="none" stroke="#000000" stroke-width="2" stroke-linejoin="round" d="M 309.572 392.453 C 304.860 346.303 325.318 317.519 348.122 294.323 C 338.120 278.834 333.453 254.760 340.946 234.054 C 351.072 206.067 380.521 179.357 406.428 177.282 C 447.515 173.991 482.723 200.302 497.083 222.436 C 526.212 267.335 503.266 317.499 492.604 329.258 C 451.599 374.486 409.946 369.425 392.221 371.728 C 365.494 375.201 351.464 386.552 341.108 400.527 C 332.340 412.359 324.286 438.828 324.284 438.832 C 324.283 438.827 311.143 407.844 309.572 392.453 M 464.977 291.659 C 441.666 337.208 384.959 351.367 348.122 294.323 M 403.622 226.316 C 444.761 207.844 484.585 253.343 464.977 291.659 M 392.472 281.264 C 371.972 264.849 382.953 235.598 403.622 226.316 M 426.950 267.316 C 429.470 283.050 410.934 296.046 392.472 281.264 M 412.206 265.054 C 412.216 256.797 425.239 256.631 426.950 267.316 "/>
<path fill="#ffffff" fill-rule="evenodd" stroke="none" d="M 290.698 346.424 C 325.798 328.409 354.931 335.706 380.363 346.591 C 389.537 333.874 407.163 322.727 425.885 322.254 C 451.188 321.614 481.461 336.676 491.123 356.555 C 506.446 388.084 496.501 424.118 483.411 442.344 C 456.859 479.314 410.020 476.662 397.405 471.855 C 348.888 453.371 340.005 418.809 332.695 405.481 C 321.672 385.384 308.339 377.783 294.062 373.904 C 281.976 370.621 258.516 372.433 258.512 372.433 C 258.516 372.430 278.993 352.432 290.698 346.424 Z"/>
<path fill="none" stroke="#000000" stroke-width="2" stroke-linejoin="round" d="M 290.698 346.424 C 325.798 328.409 354.931 335.706 380.363 346.591 C 389.537 333.874 407.163 322.727 425.885 322.254 C 451.188 321.614 481.461 336.676 491.123 356.555 C 506.446 388.084 496.501 424.118 483.411 442.344 C 456.859 479.314 410.020 476.662 397.405 471.855 C 348.888 453.371 340.005 418.809 332.695 405.481 C 321.672 385.384 308.339 377.783 294.062 373.904 C 281.976 370.621 258.516 372.433 258.512 372.433 C 258.516 372.430 278.993 352.432 290.698 346.424 M 418.639 438.334 C 375.342 433.966 346.576 393.427 380.363 346.591 M 451.412 369.509 C 478.777 396.380 455.060 442.009 418.639 438.334 M 404.434 377.682 C 411.091 356.362 437.662 356.008 451.412 369.509 M 426.154 400.677 C 414.470 407.544 398.437 396.882 404.434 377.682 M 423.382 388.297 C 429.926 385.749 434.089 396.014 426.154 400.677 "/>
<path fill="#ffffff" fill-rule="evenodd" stroke="none" d="M 370.832 606.470 C 395.066 574.939 393.119 544.728 386.943 517.535 C 401.218 510.748 415.471 495.294 419.339 476.817 C 424.567 451.844 415.129 419.093 397.171 405.904 C 368.692 384.987 331.158 388.307 310.710 397.978 C 269.233 417.593 263.359 464.516 265.835 477.897 C 275.355 529.359 308.011 544.441 319.899 554.109 C 337.825 568.686 342.941 583.287 344.195 598.146 C 345.257 610.726 339.201 633.659 339.200 633.662 C 339.204 633.659 362.750 616.986 370.832 606.470 Z"/>
<path fill="none" stroke="#000000" stroke-width="2" stroke-linejoin="round" d="M 361.398 581.498 C 364.222 548.080 351.965 526.566 351.964 526.560 M 341.975 630.333 C 341.977 630.328 359.079 608.940 361.398 581.498 M 370.832 606.470 C 395.066 574.939 393.119 544.728 386.943 517.535 C 401.218 510.748 415.471 495.294 419.339 476.817 C 424.567 451.844 415.129 419.093 397.171 405.904 C 368.692 384.987 331.158 388.307 310.710 397.978 C 269.233 417.593 263.359 464.516 265.835 477.897 C 275.355 529.359 308.011 544.441 319.899 554.109 C 337.825 568.686 342.941 583.287 344.195 598.146 C 345.257 610.726 339.201 633.659 339.200 633.662 C 339.204 633.659 362.750 616.986 370.832 606.470 M 302.927 462.929 C 299.398 506.651 334.371 542.534 386.943 517.535 M 377.118 442.928 C 355.443 410.917 305.895 426.150 302.927 462.929 M 360.486 488.024 C 382.833 485.293 388.009 459.012 377.118 442.928 M 341.629 462.314 C 332.701 472.653 340.361 490.483 360.486 488.024 M 353.401 467.309 C 357.115 461.283 347.692 455.293 341.629 462.314 "/>
<path fill="#ffffff" fill-rule="evenodd" stroke="none" d="M 368.931 34.659 C 396.437 65.076 401.709 95.879 391.971 124.970 C 406.158 130.202 421.072 143.693 426.355 160.961 C 433.495 184.301 427.335 216.319 411.368 230.437 C 386.044 252.828 349.885 253.211 329.681 245.466 C 287.131 229.156 280.234 182.195 280.770 168.691 C 282.605 122.419 309.791 105.526 319.281 95.924 C 336.815 78.184 341.207 62.305 341.105 46.207 C 341.019 32.579 332.270 8.515 332.270 8.511 C 332.273 8.513 359.327 24.039 368.931 34.659 Z"/>
<path fill="none" stroke="#000000" stroke-width="2" stroke-linejoin="round" d="M 361.224 62.427 C 367.494 96.185 357.865 119.391 357.865 119.396 M 335.578 11.820 C 335.581 11.825 355.795 33.197 361.224 62.427 M 368.931 34.659 C 396.437 65.076 401.709 95.879 391.971 124.970 C 406.158 130.202 421.072 143.693 426.355 160.961 C 433.495 184.301 427.335 216.319 411.368 230.437 C 386.044 252.828 349.885 253.211 329.681 245.466 C 287.131 229.156 280.234 182.195 280.770 168.691 C 282.605 122.419 309.791 105.526 319.281 95.924 C 336.815 78.184 341.207 62.305 341.105 46.207 C 341.019 32.579 332.270 8.515 332.270 8.511 C 332.273 8.513 359.327 24.039 368.931 34.659 M 316.649 184.259 C 309.506 142.910 339.723 105.700 391.971 124.970 M 389.062 196.899 C 371.179 229.271 322.657 219.043 316.649 184.259 M 369.317 155.373 C 390.844 156.042 398.047 180.634 389.062 196.899 M 353.575 181.498 C 344.174 172.421 349.930 154.770 369.317 155.373 M 364.358 175.721 C 368.417 181.141 359.958 187.663 353.575 181.498 "/>
<path fill="#ffffff" fill-rule="evenodd" stroke="none" d="M 264.074 182.022 C 242.992 216.313 239.795 247.063 257.233 285.261 C 242.084 292.508 226.980 308.960 222.917 328.600 C 217.424 355.144 227.531 389.915 246.641 403.882 C 276.950 426.034 316.817 422.414 338.517 412.090 C 382.533 391.149 388.658 341.284 385.995 327.074 C 375.754 272.425 342.353 254.576 328.370 246.241 C 306.602 233.266 297.828 221.089 289.711 206.890 C 278.224 186.795 280.852 162.447 280.851 162.442 C 280.849 162.444 271.952 169.208 264.074 182.022 Z"/>
<path fill="none" stroke="#000000" stroke-width="2" stroke-linejoin="round" d="M 270.135 223.948 C 275.780 257.802 294.370 275.582 294.372 275.587 M 279.464 164.282 C 279.463 164.288 264.931 192.733 270.135 223.948 M 264.074 182.022 C 242.992 216.313 239.795 247.063 257.233 285.261 C 242.084 292.508 226.980 308.960 222.917 328.600 C 217.424 355.144 227.531 389.915 246.641 403.882 C 276.950 426.034 316.817 422.414 338.517 412.090 C 382.533 391.149 388.658 341.284 385.995 327.074 C 375.754 272.425 342.353 254.576 328.370 246.241 C 306.602 233.266 297.828 221.089 289.711 206.890 C 278.224 186.795 280.852 162.447 280.851 162.442 C 280.849 162.444 271.952 169.208 264.074 182.022 M 346.626 343.068 C 350.267 296.609 313.024 258.574 257.233 285.261 M 267.854 364.500 C 290.960 398.455 343.563 382.150 346.626 343.068 M 285.413 316.549 C 261.678 319.506 256.244 347.439 267.854 364.500 M 305.510 343.817 C 314.971 332.811 306.788 313.886 285.413 316.549 M 292.992 338.538 C 289.061 344.950 299.086 351.290 305.510 343.817 "/>
</g>
<g id="specs_2">
<path fill="#ff00ff" fill-rule="evenodd" stroke="none" d="M 292.110 443.754 C 292.110 443.730 292.110 198.443 292.110 198.419 C 292.127 198.419 457.494 198.419 457.511 198.419 C 457.511 198.443 457.511 443.730 457.511 443.754 C 457.494 443.754 292.127 443.754 292.110 443.754 Z"/>
<path fill="#ff0000" fill-rule="evenodd" stroke="none" d="M 354.128 652.529 C 354.127 652.532 342.749 684.390 342.748 684.393 C 342.749 684.392 354.127 673.806 354.128 673.805 C 354.129 673.806 365.506 684.392 365.507 684.393 C 365.506 684.390 354.129 652.532 354.128 652.529 Z"/>
<path fill="#0000ff" fill-rule="evenodd" stroke="none" d="M 487.097 340.995 C 487.096 340.995 476.666 337.270 476.665 337.270 C 476.665 337.270 480.131 340.995 480.131 340.995 C 480.131 340.996 476.665 344.721 476.665 344.721 C 476.666 344.721 487.096 340.996 487.097 340.995 Z"/>
<path fill="#00ff00" fill-rule="evenodd" stroke="none" d="M 353.624 628.598 C 353.625 628.596 360.327 610.124 360.328 610.123 C 360.327 610.123 353.687 616.239 353.686 616.240 C 353.686 616.239 347.108 610.057 347.107 610.056 C 347.108 610.058 353.623 628.596 353.624 628.598 Z"/>
<path fill="#ffff00" fill-rule="evenodd" stroke="none" d="M 268.592 471.700 C 268.593 471.699 280.769 466.107 280.770 466.107 C 280.770 466.107 274.621 465.812 274.621 465.812 C 274.621 465.811 274.471 459.658 274.471 459.657 C 274.471 459.659 268.592 471.699 268.592 471.700 Z"/>
<path fill="#ffff00" fill-rule="evenodd" stroke="none" d="M 268.741 169.260 C 268.742 169.260 280.804 175.096 280.805 175.096 C 280.804 175.096 274.651 175.267 274.650 175.267 C 274.650 175.268 274.378 181.417 274.378 181.418 C 274.377 181.417 268.742 169.261 268.741 169.260 Z"/>
<path fill="#00ff00" fill-rule="evenodd" stroke="none" d="M 353.624 14.956 C 353.625 14.958 360.327 33.430 360.328 33.432 C 360.327 33.431 353.687 27.315 353.686 27.315 C 353.686 27.315 347.108 33.498 347.107 33.498 C 347.108 33.497 353.623 14.958 353.624 14.956 Z"/>
<path fill="#00ffff" fill-rule="evenodd" stroke="none" d="M 486.960 199.670 C 486.959 199.671 476.519 203.368 476.518 203.368 C 476.519 203.368 481.558 204.068 481.559 204.068 C 481.559 204.069 481.224 209.146 481.224 209.146 C 481.224 209.145 486.960 199.671 486.960 199.670 Z"/>
<path fill="#00ffff" fill-rule="evenodd" stroke="none" d="M 486.614 448.637 C 486.613 448.636 476.443 444.251 476.442 444.251 C 476.442 444.251 481.517 443.888 481.518 443.888 C 481.518 443.888 481.522 438.800 481.522 438.799 C 481.522 438.800 486.614 448.636 486.614 448.637 Z"/>
<path fill="#be0027" fill-rule="evenodd" stroke="none" d="M 200.488 348.611 C 200.491 348.610 232.349 337.232 232.352 337.231 C 232.351 337.232 221.764 348.610 221.763 348.611 C 221.764 348.612 232.351 359.989 232.352 359.991 C 232.349 359.989 200.491 348.612 200.488 348.611 Z"/>
</g>
</g>
</svg>
