<?xml version="1.0" encoding="utf-8"?>
<!-- Generator: Moho 12.3 build 22017 -->
<!DOCTYPE svg PUBLIC "-//W3C//DTD SVG 1.1//EN" "http://www.w3.org/Graphics/SVG/1.1/DTD/svg11.dtd">
<svg version="1.1" id="Frame_0" xmlns="http://www.w3.org/2000/svg" xmlns:xlink="http://www.w3.org/1999/xlink" width="720px" height="720px">
<g id="cloud">
<g id="cloud">
<path fill="#ffffff" fill-rule="evenodd" stroke="#000000" stroke-width="4" stroke-linecap="round" stroke-linejoin="round" d="M 10.986 448.176 C 10.986 398.984 48.289 358.729 95.924 354.106 C 90.056 340.911 86.626 325.619 86.626 309.505 C 86.626 248.451 136.011 203.230 196.931 199.198 C 230.468 196.979 261.859 206.869 283.660 229.730 C 296.109 171.798 349.218 133.881 409.664 136.166 C 477.142 138.716 536.377 187.260 534.094 256.429 C 543.811 252.145 555.245 248.934 567.244 249.624 C 613.248 252.269 655.308 301.337 636.184 353.961 C 673.742 365.944 705.687 397.356 709.014 438.721 C 713.697 496.941 661.326 536.105 603.489 544.247 C 570.009 548.959 537.549 543.254 517.199 519.624 C 504.058 533.272 486.451 546.720 465.405 547.050 C 451.728 547.265 439.365 540.672 428.767 534.057 C 400.311 577.742 348.371 589.878 294.631 583.694 C 245.540 578.046 201.340 559.694 178.848 518.221 C 159.660 536.201 133.517 544.337 105.534 542.723 C 53.289 539.710 10.986 500.507 10.986 448.176 Z"/>
</g>
<g id="specs_2">
<path fill="#ff00ff" fill-rule="evenodd" stroke="none" d="M 219.153 510.945 C 219.182 510.945 500.819 510.945 500.847 510.945 C 500.847 510.918 500.847 243.325 500.847 243.298 C 500.819 243.298 219.182 243.298 219.153 243.298 C 219.153 243.325 219.153 510.918 219.153 510.945 Z"/>
<path fill="#ff0000" fill-rule="evenodd" stroke="none" d="M 360.000 559.821 C 367.973 559.821 374.404 566.253 374.404 574.225 C 374.404 582.198 367.973 588.629 360.000 588.629 C 352.027 588.629 345.596 582.198 345.596 574.225 C 345.596 566.253 352.027 559.821 360.000 559.821 Z"/>
<path fill="#ffff00" fill-rule="evenodd" stroke="none" d="M 503.885 512.912 C 503.885 504.939 510.316 498.508 518.289 498.508 C 526.261 498.508 532.693 504.939 532.693 512.912 C 532.693 520.884 526.261 527.315 518.289 527.315 C 510.316 527.315 503.885 520.884 503.885 512.912 M 163.484 513.991 C 163.484 506.018 169.915 499.587 177.888 499.587 C 185.860 499.587 192.292 506.018 192.292 513.991 C 192.292 521.963 185.860 528.395 177.888 528.395 C 169.915 528.395 163.484 521.963 163.484 513.991 Z"/>
<path fill="#00ff00" fill-rule="evenodd" stroke="none" d="M 82.798 353.526 C 82.798 345.554 89.230 339.122 97.202 339.122 C 105.175 339.122 111.606 345.554 111.606 353.526 C 111.606 361.499 105.175 367.930 97.202 367.930 C 89.230 367.930 82.798 361.499 82.798 353.526 M 620.434 351.368 C 620.434 343.395 626.866 336.964 634.838 336.964 C 642.811 336.964 649.242 343.395 649.242 351.368 C 649.242 359.340 642.811 365.772 634.838 365.772 C 626.866 365.772 620.434 359.340 620.434 351.368 Z"/>
<path fill="#00ffff" fill-rule="evenodd" stroke="none" d="M 504.467 163.478 C 512.440 163.478 518.871 169.909 518.871 177.882 C 518.871 185.854 512.440 192.286 504.467 192.286 C 496.495 192.286 490.063 185.854 490.063 177.882 C 490.063 169.909 496.495 163.478 504.467 163.478 Z"/>
<path fill="#00ffff" fill-rule="evenodd" stroke="none" d="M 311.066 164.589 C 319.038 164.589 325.470 171.020 325.470 178.993 C 325.470 186.965 319.038 193.397 311.066 193.397 C 303.093 193.397 296.662 186.965 296.662 178.993 C 296.662 171.020 303.093 164.589 311.066 164.589 Z"/>
<path fill="#0000ff" fill-rule="evenodd" stroke="none" d="M 409.988 119.619 C 417.961 119.619 424.392 126.050 424.392 134.023 C 424.392 141.995 417.961 148.427 409.988 148.427 C 402.016 148.427 395.584 141.995 395.584 134.023 C 395.584 126.050 402.015 119.619 409.988 119.619 Z"/>
</g>
</g>
</svg>
