<?xml version="1.0" encoding="utf-8"?>
<!-- Generator: Moho 12.5 build 22414 -->
<!DOCTYPE svg PUBLIC "-//W3C//DTD SVG 1.1//EN" "http://www.w3.org/Graphics/SVG/1.1/DTD/svg11.dtd">
<svg version="1.1" id="Frame_0" xmlns="http://www.w3.org/2000/svg" xmlns:xlink="http://www.w3.org/1999/xlink" width="720px" height="720px">
<g id="coffin">
<g id="coffin">
<path fill="#000000" fill-rule="evenodd" stroke="#ffffff" stroke-width="4" stroke-linejoin="round" d="M 420.075 660.368 C 420.063 660.368 299.937 660.368 299.925 660.368 C 299.919 660.322 239.857 199.853 239.851 199.807 C 239.857 199.793 299.919 59.646 299.925 59.632 C 299.937 59.632 420.063 59.632 420.075 59.632 C 420.081 59.646 480.142 199.794 480.149 199.807 C 480.149 199.807 420.081 660.322 420.075 660.368 Z"/>
</g>
<g id="specs_2">
<path fill="#ff00ff" fill-rule="evenodd" stroke="none" d="M 270.387 361.740 C 270.405 361.740 449.595 361.740 449.613 361.740 C 449.613 361.712 449.613 89.541 449.613 89.514 C 449.595 89.514 270.405 89.514 270.387 89.514 C 270.387 89.541 270.387 361.712 270.387 361.740 Z"/>
<path fill="#ff0000" fill-rule="evenodd" stroke="none" d="M 504.183 360.000 C 504.186 359.999 538.992 347.568 538.995 347.567 C 538.994 347.568 527.428 359.999 527.427 360.000 C 527.428 360.001 538.994 372.432 538.995 372.433 C 538.992 372.432 504.186 360.001 504.183 360.000 Z"/>
<path fill="#0000ff" fill-rule="evenodd" stroke="none" d="M 360.054 48.216 C 360.055 48.218 366.525 66.335 366.526 66.337 C 366.525 66.336 360.055 60.316 360.054 60.316 C 360.054 60.316 353.584 66.336 353.583 66.337 C 353.584 66.335 360.054 48.218 360.054 48.216 Z"/>
<path fill="#00ff00" fill-rule="evenodd" stroke="none" d="M 250.493 355.766 C 250.495 355.766 268.578 349.204 268.580 349.203 C 268.580 349.204 262.592 355.705 262.592 355.705 C 262.592 355.706 268.645 362.145 268.645 362.146 C 268.644 362.145 250.495 355.767 250.493 355.766 Z"/>
<path fill="#ffff00" fill-rule="evenodd" stroke="none" d="M 293.159 657.450 C 293.160 657.449 301.189 639.967 301.190 639.966 C 301.190 639.967 301.612 648.794 301.612 648.795 C 301.613 648.795 310.448 649.009 310.449 649.009 C 310.447 649.010 293.161 657.450 293.159 657.450 Z"/>
<path fill="#ffff00" fill-rule="evenodd" stroke="none" d="M 426.841 657.236 C 426.840 657.234 418.462 639.918 418.462 639.916 C 418.461 639.917 418.216 648.751 418.216 648.752 C 418.215 648.752 409.386 649.143 409.385 649.143 C 409.387 649.144 426.839 657.235 426.841 657.236 Z"/>
<path fill="#00ff00" fill-rule="evenodd" stroke="none" d="M 469.507 355.766 C 469.505 355.766 451.422 349.204 451.420 349.203 C 451.420 349.204 457.408 355.705 457.408 355.705 C 457.408 355.706 451.355 362.145 451.355 362.146 C 451.356 362.145 469.505 355.767 469.507 355.766 Z"/>
<path fill="#00ffff" fill-rule="evenodd" stroke="none" d="M 455.800 123.350 C 455.799 123.352 449.377 141.485 449.376 141.487 C 449.376 141.486 448.160 132.733 448.160 132.732 C 448.159 132.732 439.341 133.314 439.340 133.314 C 439.342 133.313 455.798 123.351 455.800 123.350 Z"/>
<path fill="#00ffff" fill-rule="evenodd" stroke="none" d="M 264.200 123.951 C 264.201 123.953 271.818 141.618 271.819 141.620 C 271.819 141.619 272.448 132.804 272.449 132.803 C 272.449 132.803 281.287 132.796 281.287 132.796 C 281.286 132.795 264.202 123.952 264.200 123.951 Z"/>
<path fill="#be0027" fill-rule="evenodd" stroke="none" d="M 360.000 678.503 C 360.001 678.500 372.432 643.694 372.433 643.691 C 372.432 643.692 360.001 655.258 360.000 655.259 C 359.999 655.258 347.568 643.692 347.567 643.691 C 347.568 643.694 359.999 678.500 360.000 678.503 Z"/>
</g>
</g>
</svg>
