<?xml version="1.0" encoding="utf-8"?>
<!-- Generator: Moho 12.5 build 22414 -->
<!DOCTYPE svg PUBLIC "-//W3C//DTD SVG 1.1//EN" "http://www.w3.org/Graphics/SVG/1.1/DTD/svg11.dtd">
<svg version="1.1" id="Frame_0" xmlns="http://www.w3.org/2000/svg" xmlns:xlink="http://www.w3.org/1999/xlink" width="720px" height="720px">
<g id="cone">
<g id="cone">
<path fill="#ffffff" fill-rule="evenodd" stroke="#000000" stroke-width="4" stroke-linecap="round" stroke-linejoin="round" d="M 360.000 693.412 C 360.023 693.354 592.001 119.172 592.024 119.114 C 592.024 129.712 504.345 141.332 360.000 141.332 C 215.655 141.332 127.976 131.283 127.976 119.114 C 205.317 310.547 359.977 693.354 360.000 693.412 Z"/>
<path fill="none" stroke="#000000" stroke-width="1" stroke-linecap="butt" stroke-linejoin="round" d="M 360.000 141.332 C 504.345 141.332 592.024 129.712 592.024 119.114 "/>
<path fill="none" stroke="#000000" stroke-width="1" stroke-linecap="butt" stroke-linejoin="round" d="M 127.976 119.114 C 127.976 131.283 215.655 141.332 360.000 141.332 "/>
<path fill="#000000" fill-rule="evenodd" stroke="#ffffff" stroke-width="4" stroke-linecap="round" stroke-linejoin="round" d="M 360.000 141.332 C 504.345 141.332 592.024 129.712 592.024 119.114 C 592.024 108.517 504.345 96.897 360.000 96.897 C 215.655 96.897 127.976 106.945 127.976 119.114 C 127.976 131.283 215.655 141.332 360.000 141.332 Z"/>
</g>
<g id="specs_2">
<path fill="#ff00ff" fill-rule="evenodd" stroke="none" d="M 250.062 166.718 C 250.084 166.718 469.916 166.718 469.938 166.718 C 469.938 166.740 469.938 386.572 469.938 386.594 C 469.916 386.594 250.084 386.594 250.062 386.594 C 250.062 386.572 250.062 166.740 250.062 166.718 Z"/>
<path fill="#ff0000" fill-rule="evenodd" stroke="none" d="M 360.000 36.803 C 360.001 36.800 371.135 5.625 371.136 5.622 C 371.135 5.623 360.001 15.982 360.000 15.983 C 359.999 15.982 348.865 5.623 348.864 5.622 C 348.865 5.625 359.999 36.800 360.000 36.803 Z"/>
<path fill="#0000ff" fill-rule="evenodd" stroke="none" d="M 360.000 701.681 C 360.001 701.679 366.468 683.570 366.469 683.568 C 366.468 683.569 360.001 689.586 360.000 689.587 C 359.999 689.586 353.532 683.569 353.531 683.568 C 353.532 683.570 359.999 701.679 360.000 701.681 Z"/>
<path fill="#00ff00" fill-rule="evenodd" stroke="none" d="M 210.091 351.159 C 210.093 351.159 230.372 358.518 230.374 358.519 C 230.373 358.518 223.659 351.228 223.659 351.227 C 223.659 351.226 230.447 344.005 230.447 344.005 C 230.445 344.005 210.093 351.158 210.091 351.159 Z"/>
<path fill="#ffff00" fill-rule="evenodd" stroke="none" d="M 125.140 104.878 C 125.141 104.880 133.826 123.790 133.827 123.792 C 133.827 123.791 134.284 114.242 134.284 114.241 C 134.285 114.241 143.842 114.009 143.843 114.009 C 143.841 114.008 125.142 104.879 125.140 104.878 Z"/>
<path fill="#ffff00" fill-rule="evenodd" stroke="none" d="M 594.860 105.109 C 594.859 105.111 585.796 123.844 585.796 123.846 C 585.795 123.845 585.530 114.288 585.530 114.287 C 585.529 114.287 575.978 113.864 575.977 113.864 C 575.979 113.863 594.858 105.110 594.860 105.109 Z"/>
<path fill="#00ff00" fill-rule="evenodd" stroke="none" d="M 509.909 351.159 C 509.907 351.159 489.628 358.518 489.626 358.519 C 489.627 358.518 496.341 351.228 496.341 351.227 C 496.341 351.226 489.553 344.005 489.553 344.005 C 489.555 344.005 509.907 351.158 509.909 351.159 Z"/>
<path fill="#00ffff" fill-rule="evenodd" stroke="none" d="M 426.083 543.575 C 426.083 543.574 422.819 534.357 422.818 534.356 C 422.818 534.356 422.200 538.805 422.200 538.806 C 422.200 538.806 417.718 538.510 417.717 538.510 C 417.718 538.511 426.082 543.574 426.083 543.575 Z"/>
<path fill="#00ffff" fill-rule="evenodd" stroke="none" d="M 293.917 543.269 C 293.917 543.268 297.788 534.289 297.789 534.289 C 297.789 534.289 298.109 538.770 298.109 538.770 C 298.110 538.770 302.601 538.774 302.602 538.774 C 302.601 538.774 293.918 543.269 293.917 543.269 Z"/>
<path fill="#be0027" fill-rule="evenodd" stroke="none" d="M 360.000 76.123 C 360.001 76.127 371.135 107.301 371.136 107.305 C 371.135 107.304 360.001 96.944 360.000 96.943 C 359.999 96.944 348.865 107.304 348.864 107.305 C 348.865 107.301 359.999 76.127 360.000 76.123 Z"/>
</g>
</g>
</svg>
