<?xml version="1.0" encoding="utf-8"?>
<!-- Generator: Moho 12.5 build 22414 -->
<!DOCTYPE svg PUBLIC "-//W3C//DTD SVG 1.1//EN" "http://www.w3.org/Graphics/SVG/1.1/DTD/svg11.dtd">
<svg version="1.1" id="Frame_0" xmlns="http://www.w3.org/2000/svg" xmlns:xlink="http://www.w3.org/1999/xlink" width="720px" height="720px">
<g id="cone">
<g id="cone">
<path fill="#ffffff" fill-rule="evenodd" stroke="#000000" stroke-width="2" stroke-linecap="round" stroke-linejoin="round" d="M 360.000 702.641 C 360.016 702.602 517.998 311.569 518.014 311.530 C 518.014 318.809 473.294 337.301 360.000 337.301 C 246.706 337.301 201.986 319.888 201.986 311.530 C 254.657 441.900 359.984 702.602 360.000 702.641 Z"/>
<path fill="none" stroke="#000000" stroke-width="1" stroke-linecap="butt" stroke-linejoin="round" d="M 360.000 337.301 C 473.294 337.301 518.014 318.809 518.014 311.530 "/>
<path fill="none" stroke="#000000" stroke-width="1" stroke-linecap="butt" stroke-linejoin="round" d="M 201.986 311.530 C 201.986 319.888 246.706 337.301 360.000 337.301 "/>
<path fill="#000000" fill-rule="evenodd" stroke="#ffffff" stroke-width="2" stroke-linecap="round" stroke-linejoin="round" d="M 360.000 337.301 C 473.294 337.301 518.014 318.809 518.014 311.530 C 518.014 304.250 473.294 285.758 360.000 285.758 C 246.706 285.758 201.986 303.171 201.986 311.530 C 201.986 319.888 246.706 337.301 360.000 337.301 Z"/>
<path fill="#000000" fill-rule="evenodd" stroke="none" d="M 360.000 394.526 C 398.533 394.526 429.617 425.611 429.617 464.143 C 429.617 502.676 398.533 533.761 360.000 533.761 C 321.467 533.761 290.383 502.676 290.383 464.143 C 290.383 425.611 321.467 394.526 360.000 394.526 Z"/>
</g>
<g id="specs_2">
<path fill="#ff0000" fill-rule="evenodd" stroke="none" d="M 360.000 249.047 C 360.001 249.045 367.583 227.814 367.584 227.812 C 367.583 227.813 360.001 234.868 360.000 234.869 C 359.999 234.868 352.417 227.813 352.416 227.812 C 352.417 227.814 359.999 249.045 360.000 249.047 Z"/>
<path fill="#0000ff" fill-rule="evenodd" stroke="none" d="M 360.000 708.272 C 360.000 708.271 364.405 695.938 364.405 695.937 C 364.405 695.937 360.000 700.035 360.000 700.036 C 360.000 700.035 355.595 695.937 355.595 695.937 C 355.595 695.938 360.000 708.271 360.000 708.272 Z"/>
<path fill="#00ff00" fill-rule="evenodd" stroke="none" d="M 257.908 469.558 C 257.910 469.558 271.720 474.570 271.722 474.570 C 271.721 474.570 267.149 469.605 267.148 469.604 C 267.149 469.604 271.771 464.686 271.771 464.686 C 271.770 464.686 257.910 469.557 257.908 469.558 Z"/>
<path fill="#ffff00" fill-rule="evenodd" stroke="none" d="M 200.054 301.834 C 200.055 301.836 205.970 314.714 205.970 314.715 C 205.970 314.715 206.282 308.212 206.282 308.211 C 206.283 308.211 212.791 308.053 212.792 308.053 C 212.790 308.052 200.056 301.835 200.054 301.834 Z"/>
<path fill="#ffff00" fill-rule="evenodd" stroke="none" d="M 519.946 301.992 C 519.945 301.993 513.773 314.751 513.772 314.752 C 513.772 314.751 513.592 308.243 513.592 308.243 C 513.591 308.242 507.086 307.954 507.086 307.954 C 507.087 307.953 519.944 301.993 519.946 301.992 Z"/>
<path fill="#00ff00" fill-rule="evenodd" stroke="none" d="M 462.092 469.558 C 462.090 469.558 448.280 474.570 448.278 474.570 C 448.279 474.570 452.851 469.605 452.852 469.604 C 452.851 469.604 448.229 464.686 448.229 464.686 C 448.230 464.686 462.090 469.557 462.092 469.558 Z"/>
<path fill="#00ffff" fill-rule="evenodd" stroke="none" d="M 405.004 600.598 C 405.004 600.597 402.781 594.320 402.781 594.319 C 402.781 594.320 402.360 597.350 402.360 597.350 C 402.360 597.350 399.307 597.149 399.307 597.149 C 399.308 597.149 405.004 600.598 405.004 600.598 Z"/>
<path fill="#00ffff" fill-rule="evenodd" stroke="none" d="M 314.996 600.390 C 314.996 600.389 317.632 594.274 317.633 594.274 C 317.633 594.274 317.851 597.326 317.851 597.326 C 317.851 597.326 320.910 597.328 320.910 597.328 C 320.910 597.328 314.996 600.389 314.996 600.390 Z"/>
<path fill="#be0027" fill-rule="evenodd" stroke="none" d="M 360.000 274.306 C 360.001 274.308 367.583 295.539 367.584 295.541 C 367.583 295.540 360.001 288.485 360.000 288.485 C 359.999 288.485 352.417 295.540 352.416 295.541 C 352.417 295.539 359.999 274.308 360.000 274.306 Z"/>
<path fill="#ff00ff" fill-rule="evenodd" stroke="none" d="M 200.329 10.410 C 200.361 10.410 519.639 10.410 519.671 10.410 C 519.671 10.442 519.671 329.720 519.671 329.752 C 519.639 329.752 200.361 329.752 200.329 329.752 C 200.329 329.720 200.329 10.442 200.329 10.410 Z"/>
<path fill="#ff00ff" fill-rule="evenodd" stroke="none" d="M 310.025 414.368 C 310.035 414.368 409.965 414.368 409.975 414.368 C 409.975 414.378 409.975 514.307 409.975 514.317 C 409.965 514.317 310.035 514.317 310.025 514.317 C 310.025 514.307 310.025 414.378 310.025 414.368 Z"/>
</g>
</g>
</svg>
