<?xml version="1.0" encoding="utf-8"?>
<!-- Generator: Moho 12.5 build 22414 -->
<!DOCTYPE svg PUBLIC "-//W3C//DTD SVG 1.1//EN" "http://www.w3.org/Graphics/SVG/1.1/DTD/svg11.dtd">
<svg version="1.1" id="Frame_0" xmlns="http://www.w3.org/2000/svg" xmlns:xlink="http://www.w3.org/1999/xlink" width="720px" height="720px">
<g id="cone">
<g id="cone">
<path fill="#ffffff" fill-rule="evenodd" stroke="#000000" stroke-width="4" stroke-linecap="round" stroke-linejoin="round" d="M 360.000 703.216 C 360.023 703.159 592.290 128.261 592.313 128.203 C 592.313 138.851 505.032 157.832 360.000 157.832 C 214.968 157.832 127.687 140.430 127.687 128.203 C 205.124 319.874 359.977 703.159 360.000 703.216 Z"/>
<path fill="none" stroke="#000000" stroke-width="1" stroke-linecap="butt" stroke-linejoin="round" d="M 360.000 157.832 C 505.032 157.832 592.313 138.851 592.313 128.203 "/>
<path fill="none" stroke="#000000" stroke-width="1" stroke-linecap="butt" stroke-linejoin="round" d="M 127.687 128.203 C 127.687 140.430 214.968 157.832 360.000 157.832 "/>
<path fill="#000000" fill-rule="evenodd" stroke="#ffffff" stroke-width="4" stroke-linecap="round" stroke-linejoin="round" d="M 360.000 157.832 C 505.032 157.832 592.313 138.851 592.313 128.203 C 592.313 117.555 505.032 98.574 360.000 98.574 C 214.968 98.574 127.687 115.976 127.687 128.203 C 127.687 140.430 214.968 157.832 360.000 157.832 Z"/>
</g>
<g id="specs_2">
<path fill="#ff00ff" fill-rule="evenodd" stroke="none" d="M 252.448 179.115 C 252.469 179.115 467.531 179.115 467.552 179.115 C 467.552 179.137 467.552 394.199 467.552 394.220 C 467.531 394.220 252.469 394.220 252.448 394.220 C 252.448 394.199 252.448 179.137 252.448 179.115 Z"/>
<path fill="#ff0000" fill-rule="evenodd" stroke="none" d="M 360.000 36.341 C 360.001 36.338 371.149 5.124 371.150 5.121 C 371.149 5.122 360.001 15.495 360.000 15.496 C 359.999 15.495 348.851 5.122 348.850 5.121 C 348.851 5.124 359.999 36.338 360.000 36.341 Z"/>
<path fill="#0000ff" fill-rule="evenodd" stroke="none" d="M 360.000 711.495 C 360.001 711.494 366.476 693.362 366.477 693.360 C 366.476 693.361 360.001 699.386 360.000 699.386 C 359.999 699.386 353.524 693.361 353.523 693.360 C 353.524 693.362 359.999 711.494 360.000 711.495 Z"/>
<path fill="#00ff00" fill-rule="evenodd" stroke="none" d="M 209.904 360.536 C 209.906 360.537 230.211 367.905 230.213 367.906 C 230.212 367.905 223.490 360.606 223.489 360.605 C 223.490 360.604 230.285 353.374 230.286 353.374 C 230.284 353.374 209.906 360.536 209.904 360.536 Z"/>
<path fill="#ffff00" fill-rule="evenodd" stroke="none" d="M 124.847 113.949 C 124.848 113.951 133.544 132.885 133.545 132.887 C 133.545 132.886 134.003 123.325 134.003 123.324 C 134.004 123.324 143.573 123.092 143.574 123.092 C 143.572 123.091 124.849 113.950 124.847 113.949 Z"/>
<path fill="#ffff00" fill-rule="evenodd" stroke="none" d="M 595.153 114.181 C 595.152 114.183 586.078 132.939 586.077 132.940 C 586.077 132.939 585.811 123.371 585.811 123.370 C 585.810 123.370 576.247 122.946 576.246 122.946 C 576.248 122.945 595.151 114.182 595.153 114.181 Z"/>
<path fill="#00ff00" fill-rule="evenodd" stroke="none" d="M 510.096 360.536 C 510.094 360.537 489.789 367.905 489.787 367.906 C 489.788 367.905 496.510 360.606 496.511 360.605 C 496.510 360.604 489.715 353.374 489.714 353.374 C 489.716 353.374 510.094 360.536 510.096 360.536 Z"/>
<path fill="#00ffff" fill-rule="evenodd" stroke="none" d="M 426.165 553.193 C 426.165 553.192 422.897 543.963 422.897 543.962 C 422.897 543.962 422.278 548.417 422.278 548.417 C 422.277 548.417 417.790 548.122 417.789 548.122 C 417.790 548.122 426.164 553.192 426.165 553.193 Z"/>
<path fill="#00ffff" fill-rule="evenodd" stroke="none" d="M 293.835 552.886 C 293.835 552.885 297.711 543.896 297.711 543.895 C 297.711 543.895 298.032 548.381 298.032 548.382 C 298.033 548.382 302.530 548.385 302.530 548.385 C 302.530 548.386 293.836 552.886 293.835 552.886 Z"/>
<path fill="#be0027" fill-rule="evenodd" stroke="none" d="M 360.000 79.345 C 360.001 79.348 371.149 110.561 371.150 110.564 C 371.149 110.563 360.001 100.191 360.000 100.190 C 359.999 100.191 348.851 110.563 348.850 110.564 C 348.851 110.561 359.999 79.348 360.000 79.345 Z"/>
</g>
</g>
</svg>
