<?xml version="1.0" encoding="utf-8"?>
<!-- Generator: Moho 12.5 build 22414 -->
<!DOCTYPE svg PUBLIC "-//W3C//DTD SVG 1.1//EN" "http://www.w3.org/Graphics/SVG/1.1/DTD/svg11.dtd">
<svg version="1.1" id="Frame_0" xmlns="http://www.w3.org/2000/svg" xmlns:xlink="http://www.w3.org/1999/xlink" width="720px" height="720px">
<g id="halves">
<g id="cornucopia_half">
<g id="cornucopia">
<path fill="#ffffff" fill-rule="evenodd" stroke="none" d="M 246.813 607.653 C 246.904 608.427 515.055 607.450 649.170 608.466 C 649.942 568.027 647.566 498.864 647.518 497.970 C 647.466 496.991 642.102 425.724 637.070 393.620 C 631.705 359.386 625.379 327.729 615.785 299.161 C 606.625 271.885 594.502 247.716 581.547 225.623 C 568.389 203.186 554.028 182.804 537.163 165.337 C 519.441 146.983 499.325 131.675 477.567 118.507 C 456.701 105.879 434.113 95.264 409.503 87.306 C 385.465 79.533 359.416 75.078 331.839 70.953 C 322.363 69.535 276.011 69.984 263.727 71.862 C 236.565 76.013 211.204 81.590 190.565 89.629 C 165.709 99.311 146.777 111.877 134.683 122.484 C 118.745 136.462 103.581 151.436 90.747 168.170 C 84.744 175.996 67.737 211.175 64.887 220.538 C 59.551 238.070 55.152 256.031 53.623 274.698 C 52.217 291.857 53.468 309.303 57.231 326.040 C 60.995 342.776 67.293 358.805 76.049 373.134 C 84.805 387.463 96.017 400.093 109.609 410.031 C 123.201 419.969 139.173 427.215 157.445 430.777 C 171.466 433.511 183.938 434.509 194.954 433.314 C 208.800 431.813 220.662 427.465 230.938 422.005 C 236.679 418.955 241.525 415.139 245.764 410.788 C 251.801 404.591 256.954 397.623 261.137 389.982 C 265.611 381.809 267.783 372.777 267.940 364.014 C 268.097 355.250 266.238 346.754 262.650 339.652 C 259.062 332.551 253.744 326.843 246.982 323.656 C 240.221 320.469 232.016 319.803 222.653 322.784 C 227.269 325.659 231.130 331.843 231.131 331.844 C 231.131 331.845 230.976 340.942 230.976 340.943 C 230.975 340.944 225.351 348.834 225.350 348.835 C 225.349 348.836 217.417 354.275 217.416 354.276 C 217.415 354.276 206.741 357.190 206.739 357.190 C 206.738 357.190 195.805 356.514 195.804 356.514 C 195.803 356.513 185.788 352.526 185.787 352.526 C 185.786 352.525 177.866 345.506 177.865 345.505 C 177.864 345.504 171.005 330.769 171.005 330.767 C 171.005 330.765 169.921 313.755 169.921 313.753 C 169.921 313.751 174.074 296.461 174.074 296.459 C 174.075 296.458 182.925 280.883 182.926 280.881 C 182.927 280.880 195.765 268.118 195.766 268.117 C 195.768 268.116 214.131 257.857 214.133 257.855 C 214.135 257.855 233.999 253.432 234.001 253.431 C 234.003 253.431 256.770 250.612 256.773 250.611 C 256.775 250.612 283.380 254.772 283.383 254.773 C 283.385 254.774 302.264 264.683 302.266 264.684 C 302.268 264.686 320.329 282.664 320.331 282.666 C 320.333 282.669 331.686 307.602 331.687 307.605 C 331.688 307.608 337.329 337.395 337.330 337.398 C 337.330 337.402 335.470 378.517 335.469 378.522 C 335.467 378.529 317.646 447.377 317.644 447.385 C 317.640 447.393 285.161 515.637 285.152 515.664 C 285.133 515.696 255.039 559.885 246.813 607.653 Z"/>
<path fill="none" stroke="#000000" stroke-width="4" stroke-linecap="round" stroke-linejoin="round" d="M 285.152 515.664 C 285.133 515.696 255.117 559.285 246.813 607.653 C 246.852 607.644 515.055 607.450 649.170 608.466 C 649.942 568.027 647.566 498.864 647.518 497.970 C 647.466 496.991 642.102 425.724 637.070 393.620 C 558.353 437.811 396.842 463.931 317.644 447.385 C 317.640 447.393 285.161 515.637 285.152 515.664 C 353.949 535.875 569.227 527.378 647.518 497.970 M 335.469 378.522 C 335.467 378.529 317.646 447.377 317.644 447.385 M 337.330 337.398 C 337.330 337.402 335.470 378.517 335.469 378.522 C 409.426 382.701 556.074 353.786 615.785 299.161 C 606.625 271.885 594.502 247.716 581.547 225.623 C 528.062 288.084 401.292 337.442 337.330 337.398 C 337.329 337.395 331.688 307.608 331.687 307.605 C 331.686 307.602 320.333 282.669 320.331 282.666 C 320.329 282.664 302.268 264.686 302.266 264.684 C 302.264 264.683 283.385 254.774 283.383 254.773 C 283.380 254.772 256.775 250.612 256.773 250.611 C 256.770 250.612 234.003 253.431 234.001 253.431 C 233.999 253.432 214.135 257.855 214.133 257.855 C 214.131 257.857 195.768 268.116 195.766 268.117 C 195.765 268.118 182.927 280.880 182.926 280.881 C 182.925 280.883 174.075 296.458 174.074 296.459 C 174.074 296.461 169.921 313.751 169.921 313.753 C 169.921 313.755 171.005 330.765 171.005 330.767 C 171.005 330.769 177.864 345.504 177.865 345.505 C 177.866 345.506 185.786 352.525 185.787 352.526 C 185.788 352.526 195.803 356.513 195.804 356.514 C 195.805 356.514 206.738 357.190 206.739 357.190 C 206.741 357.190 217.415 354.276 217.416 354.276 C 217.417 354.275 225.349 348.836 225.350 348.835 C 225.351 348.834 230.975 340.944 230.976 340.943 C 230.976 340.942 231.131 331.845 231.131 331.844 C 242.320 332.067 241.699 326.385 246.982 323.656 C 240.221 320.469 232.016 319.803 222.653 322.784 C 227.269 325.659 231.130 331.843 231.131 331.844 M 174.074 296.459 C 156.496 273.122 97.676 265.635 53.623 274.698 C 52.217 291.857 53.468 309.303 57.231 326.040 C 87.458 305.467 144.869 298.430 169.921 313.753 M 171.005 330.767 C 143.623 324.864 96.367 349.172 76.049 373.134 C 84.805 387.463 96.017 400.093 109.609 410.031 C 121.064 382.300 145.900 355.030 177.865 345.505 M 185.787 352.526 C 165.743 369.831 160.587 397.384 159.020 403.381 C 158.271 406.245 157.970 421.645 157.445 430.777 C 171.466 433.511 183.938 434.509 194.954 433.314 C 193.202 425.526 189.869 412.527 189.696 409.950 C 189.309 404.162 185.442 376.654 195.804 356.514 M 206.739 357.190 C 206.146 377.319 214.363 395.087 216.209 399.368 C 217.362 402.043 226.028 414.459 230.938 422.005 C 236.679 418.955 241.525 415.139 245.764 410.788 C 251.801 404.591 256.954 397.623 261.137 389.982 C 255.085 388.598 244.714 386.847 242.982 385.829 C 239.207 383.608 220.150 371.828 217.416 354.276 M 225.350 348.835 C 231.100 361.661 248.961 364.977 252.319 365.668 C 253.978 366.009 262.733 364.565 267.940 364.014 C 268.097 355.250 266.238 346.754 262.650 339.652 C 259.546 341.739 254.521 345.653 253.339 345.913 C 250.926 346.442 236.661 348.785 230.976 340.943 M 182.926 280.881 C 170.598 250.599 114.884 222.953 64.887 220.538 C 59.551 238.070 55.152 256.031 53.623 274.698 M 234.001 253.431 C 243.032 216.880 239.142 150.300 190.565 89.629 C 165.709 99.311 146.777 111.877 134.683 122.484 C 187.255 160.352 216.008 222.782 214.133 257.855 M 256.773 250.611 C 273.304 208.767 283.536 147.668 263.727 71.862 C 236.565 76.013 211.204 81.590 190.565 89.629 M 283.383 254.773 C 308.843 216.482 341.127 153.511 331.839 70.953 C 322.363 69.535 276.011 69.984 263.727 71.862 M 302.266 264.684 C 340.276 240.347 394.020 174.753 409.503 87.306 C 385.465 79.533 359.416 75.078 331.839 70.953 M 320.331 282.666 C 364.009 265.563 452.713 200.180 477.567 118.507 C 456.701 105.879 434.113 95.264 409.503 87.306 M 331.687 307.605 C 391.410 295.458 500.566 241.213 537.163 165.337 C 519.441 146.983 499.325 131.675 477.567 118.507 M 195.766 268.117 C 190.313 234.544 137.714 186.059 90.747 168.170 C 84.744 175.996 67.737 211.175 64.887 220.538 M 262.650 339.652 C 259.062 332.551 253.744 326.843 246.982 323.656 M 261.137 389.982 C 265.611 381.809 267.783 372.777 267.940 364.014 M 194.954 433.314 C 208.800 431.813 220.662 427.465 230.938 422.005 M 109.609 410.031 C 123.201 419.969 139.173 427.215 157.445 430.777 M 57.231 326.040 C 60.995 342.776 67.293 358.805 76.049 373.134 M 134.683 122.484 C 118.745 136.462 103.581 151.436 90.747 168.170 M 581.547 225.623 C 568.389 203.186 554.028 182.804 537.163 165.337 M 637.070 393.620 C 631.705 359.386 625.379 327.729 615.785 299.161 "/>
<path fill="none" stroke="#ffffff" stroke-width="4" stroke-linecap="round" stroke-linejoin="round" d="M 246.813 607.653 C 380.932 607.924 515.051 608.195 649.170 608.466 "/>
</g>
<g id="specs_2">
<path fill="#ff0000" fill-rule="evenodd" stroke="none" d="M 448.723 583.466 C 448.724 583.470 461.139 618.232 461.141 618.236 C 461.139 618.235 448.724 606.683 448.723 606.682 C 448.722 606.683 436.307 618.235 436.306 618.236 C 436.307 618.232 448.722 583.470 448.723 583.466 Z"/>
<path fill="#0000ff" fill-rule="evenodd" stroke="none" d="M 303.915 56.687 C 303.916 56.689 311.127 76.882 311.128 76.884 C 311.127 76.883 303.916 70.174 303.915 70.173 C 303.914 70.174 296.703 76.883 296.702 76.884 C 296.703 76.882 303.914 56.689 303.915 56.687 Z"/>
<path fill="#00ff00" fill-rule="evenodd" stroke="none" d="M 38.040 289.522 C 38.042 289.522 58.198 282.208 58.200 282.207 C 58.199 282.208 51.526 289.454 51.525 289.454 C 51.526 289.455 58.272 296.633 58.273 296.634 C 58.271 296.633 38.042 289.523 38.040 289.522 Z"/>
<path fill="#ffff00" fill-rule="evenodd" stroke="none" d="M 248.226 610.073 C 248.227 610.071 255.582 594.057 255.583 594.055 C 255.583 594.056 255.970 602.143 255.970 602.144 C 255.971 602.144 264.064 602.340 264.065 602.340 C 264.063 602.341 248.227 610.072 248.226 610.073 Z"/>
<path fill="#ffff00" fill-rule="evenodd" stroke="none" d="M 646.007 609.877 C 646.007 609.875 638.332 594.012 638.331 594.010 C 638.331 594.011 638.106 602.104 638.106 602.105 C 638.105 602.105 630.017 602.463 630.017 602.463 C 630.018 602.464 646.006 609.876 646.007 609.877 Z"/>
<path fill="#00ff00" fill-rule="evenodd" stroke="none" d="M 624.721 289.522 C 624.719 289.522 604.562 282.208 604.560 282.207 C 604.561 282.208 611.234 289.454 611.235 289.454 C 611.234 289.455 604.488 296.633 604.488 296.634 C 604.490 296.633 624.719 289.523 624.721 289.522 Z"/>
<path fill="#00ffff" fill-rule="evenodd" stroke="none" d="M 504.287 118.017 C 504.286 118.019 497.128 138.231 497.127 138.233 C 497.127 138.232 495.772 128.475 495.771 128.474 C 495.771 128.474 485.942 129.123 485.941 129.123 C 485.942 129.122 504.285 118.018 504.287 118.017 Z"/>
<path fill="#00ffff" fill-rule="evenodd" stroke="none" d="M 119.051 118.687 C 119.051 118.689 127.541 138.379 127.542 138.381 C 127.542 138.380 128.244 128.554 128.244 128.553 C 128.245 128.553 138.095 128.546 138.096 128.546 C 138.094 128.545 119.052 118.688 119.051 118.687 Z"/>
<path fill="#be0027" fill-rule="evenodd" stroke="none" d="M 449.271 631.082 C 449.272 631.079 461.687 596.316 461.688 596.313 C 461.687 596.314 449.272 607.865 449.271 607.867 C 449.269 607.865 436.854 596.314 436.853 596.313 C 436.854 596.316 449.269 631.079 449.271 631.082 Z"/>
<path fill="none" stroke="#ffff00" stroke-width="4" stroke-linecap="round" stroke-linejoin="round" d="M 246.813 607.653 C 380.932 607.924 515.051 608.195 649.170 608.466 "/>
</g>
</g>
</g>
</svg>
