<?xml version="1.0" encoding="utf-8"?>
<!-- Generator: Moho 12.5 build 22414 -->
<!DOCTYPE svg PUBLIC "-//W3C//DTD SVG 1.1//EN" "http://www.w3.org/Graphics/SVG/1.1/DTD/svg11.dtd">
<svg version="1.1" id="Frame_0" xmlns="http://www.w3.org/2000/svg" xmlns:xlink="http://www.w3.org/1999/xlink" width="720px" height="720px">
<g id="cornucopia">
<g id="cornucopia">
<path fill="#ffffff" fill-rule="evenodd" stroke="none" d="M 114.078 234.223 C 135.333 252.033 186.102 281.235 186.110 281.240 C 186.119 281.244 267.148 311.370 267.157 311.373 C 267.165 311.374 337.990 318.731 337.997 318.732 C 338.002 318.731 378.985 314.430 378.990 314.429 C 378.993 314.428 407.640 304.392 407.643 304.391 C 407.645 304.389 430.633 289.423 430.636 289.422 C 430.637 289.420 445.738 268.852 445.740 268.849 C 445.740 268.847 452.729 248.676 452.730 248.674 C 452.730 248.671 452.874 221.710 452.874 221.707 C 452.873 221.704 446.680 199.586 446.680 199.584 C 446.679 199.582 439.332 180.576 439.331 180.574 C 439.330 180.573 426.429 163.926 426.428 163.924 C 426.426 163.923 411.873 153.120 411.872 153.119 C 411.870 153.118 395.128 146.684 395.126 146.684 C 395.125 146.683 377.386 145.155 377.385 145.155 C 377.383 145.156 360.704 148.770 360.702 148.771 C 360.701 148.772 347.137 157.764 347.136 157.765 C 347.135 157.766 341.370 166.656 341.369 166.657 C 341.369 166.658 338.918 177.169 338.917 177.170 C 338.917 177.171 339.882 188.096 339.882 188.097 C 339.882 188.098 344.362 198.231 344.362 198.232 C 344.363 198.233 350.933 205.274 350.934 205.274 C 350.935 205.275 359.588 209.664 359.589 209.664 C 359.590 209.664 368.619 208.459 368.620 208.458 C 368.621 208.458 374.166 203.711 376.323 198.711 C 380.673 207.536 381.239 215.758 379.095 222.929 C 376.950 230.099 372.094 236.216 365.599 240.830 C 359.104 245.444 350.971 248.553 342.271 249.707 C 333.571 250.861 324.305 250.060 315.544 246.852 C 307.355 243.853 299.816 239.606 292.649 234.741 C 288.781 232.117 285.018 229.226 281.865 225.343 C 273.674 215.255 266.813 202.818 262.755 187.804 C 259.860 177.093 259.051 164.579 259.662 150.290 C 260.459 131.667 265.247 114.772 273.055 99.831 C 280.863 84.889 291.691 71.901 304.569 61.092 C 317.447 50.282 332.375 41.652 348.382 35.425 C 364.390 29.198 381.475 25.353 398.673 24.181 C 417.382 22.906 435.822 24.577 453.977 27.240 C 463.672 28.663 501.041 40.244 509.687 45.017 C 528.172 55.224 545.262 67.999 561.482 81.689 C 573.790 92.078 589.060 108.944 602.359 132.105 C 613.402 151.338 622.713 175.612 630.881 201.883 C 634.576 213.764 641.946 259.587 641.959 269.181 C 641.995 297.099 641.477 323.554 637.373 348.514 C 633.171 374.068 626.037 398.017 616.653 420.562 C 606.867 444.070 594.717 466.274 579.194 486.561 C 564.422 505.868 546.388 523.132 526.141 539.510 C 506.204 555.638 484.087 571.252 458.452 584.396 C 431.602 598.162 401.206 609.156 368.115 619.583 C 337.083 629.361 303.213 637.906 266.366 645.518 C 236.166 651.757 203.519 657.060 168.338 662.058 C 91.632 579.428 34.091 431.299 114.078 234.223 Z"/>
<path fill="none" stroke="#000000" stroke-width="4" stroke-linecap="round" stroke-linejoin="round" d="M 341.369 166.657 C 321.242 149.398 293.192 148.410 287.021 147.755 C 284.074 147.442 268.782 149.445 259.662 150.290 C 260.459 131.667 265.247 114.772 273.055 99.831 C 302.221 107.028 332.930 127.541 347.136 157.765 C 347.135 157.766 341.370 166.656 341.369 166.657 C 341.369 166.658 338.918 177.169 338.917 177.170 C 317.430 169.920 290.773 177.859 285.101 179.107 C 282.575 179.663 270.204 184.905 262.755 187.804 C 259.926 177.076 259.051 164.579 259.662 150.290 M 344.362 198.232 C 327.394 203.562 318.578 224.189 316.944 228.258 C 316.194 230.124 316.011 240.654 315.544 246.852 C 307.355 243.853 299.686 239.792 292.649 234.741 C 287.708 231.195 283.206 226.967 279.329 221.739 C 286.065 215.751 297.063 205.316 299.539 203.775 C 303.501 201.307 319.865 190.517 339.882 188.097 C 339.882 188.098 344.362 198.231 344.362 198.232 C 344.363 198.233 350.933 205.274 350.934 205.274 C 339.096 212.883 338.482 231.061 338.299 234.489 C 338.209 236.183 340.947 244.635 342.271 249.707 C 333.571 250.861 324.305 250.060 315.544 246.852 M 439.331 180.574 C 474.336 177.190 541.723 150.260 561.482 81.689 C 573.790 92.078 589.060 108.944 602.359 132.105 C 555.204 204.884 484.217 203.063 446.680 199.584 C 446.679 199.582 439.332 180.576 439.331 180.574 C 439.330 180.573 426.429 163.926 426.428 163.924 C 458.851 153.508 506.727 96.317 509.687 45.017 C 528.172 55.224 545.262 67.999 561.482 81.689 M 411.872 153.119 C 440.010 136.389 464.936 77.859 453.977 27.240 C 463.672 28.663 501.041 40.244 509.687 45.017 M 395.126 146.684 C 415.604 125.793 418.133 65.028 398.673 24.181 C 417.382 22.906 435.822 24.577 453.977 27.240 M 377.385 145.155 C 388.811 118.063 374.072 62.154 348.382 35.425 C 364.390 29.198 381.475 25.353 398.673 24.181 M 360.702 148.771 C 362.455 120.780 330.842 74.406 304.569 61.092 C 317.447 50.282 332.375 41.652 348.382 35.425 M 359.589 209.664 C 352.674 216.465 357.125 230.237 358.010 232.547 C 358.443 233.679 363.069 238.069 365.599 240.830 C 359.104 245.444 350.971 248.553 342.271 249.707 M 368.620 208.458 C 370.071 219.569 375.603 218.105 379.095 222.929 C 376.950 230.099 372.094 236.216 365.599 240.830 M 452.874 221.707 C 496.772 231.821 562.072 254.565 630.881 201.883 C 634.576 213.764 641.946 259.587 641.959 269.181 C 553.694 309.203 494.444 268.158 452.730 248.674 C 452.730 248.671 452.874 221.710 452.874 221.707 C 452.873 221.704 446.680 199.586 446.680 199.584 M 445.740 268.849 C 475.514 302.844 536.860 362.008 637.373 348.514 C 633.171 374.068 626.037 398.017 616.653 420.562 C 521.262 423.794 454.095 330.109 430.636 289.422 C 430.637 289.420 445.738 268.852 445.740 268.849 C 445.740 268.847 452.729 248.676 452.730 248.674 M 407.643 304.391 C 421.907 361.065 483.518 476.298 579.194 486.561 C 564.422 505.868 546.388 523.132 526.141 539.510 C 441.223 510.524 381.818 377.122 378.990 314.429 C 378.993 314.428 407.640 304.392 407.643 304.391 C 407.645 304.389 430.633 289.423 430.636 289.422 M 337.997 318.732 C 320.904 386.315 359.773 537.178 458.452 584.396 C 431.602 598.162 401.206 609.156 368.115 619.583 C 266.533 548.617 234.060 394.093 267.157 311.373 C 267.165 311.374 337.990 318.731 337.997 318.732 C 338.002 318.731 378.985 314.430 378.990 314.429 M 186.110 281.240 C 155.135 342.996 158.243 556.293 266.366 645.518 C 236.166 651.757 203.519 657.060 168.338 662.058 C 91.632 579.428 34.091 431.299 114.078 234.223 C 135.333 252.033 186.102 281.235 186.110 281.240 C 186.119 281.244 267.148 311.370 267.157 311.373 M 368.115 619.583 C 337.083 629.361 303.213 637.906 266.366 645.518 M 526.141 539.510 C 506.204 555.638 484.087 571.252 458.452 584.396 M 616.653 420.562 C 606.867 444.070 594.717 466.274 579.194 486.561 M 641.959 269.181 C 641.995 297.099 641.477 323.554 637.373 348.514 M 602.359 132.105 C 613.402 151.338 622.713 175.612 630.881 201.883 M 273.055 99.831 C 280.863 84.889 291.691 71.901 304.569 61.092 M 279.329 221.739 C 272.388 212.381 266.311 201.287 262.755 187.804 M 376.323 198.711 C 380.673 207.536 381.239 215.758 379.095 222.929 M 368.620 208.458 C 368.621 208.458 374.166 203.711 376.323 198.711 M 359.589 209.664 C 359.590 209.664 368.619 208.459 368.620 208.458 M 350.934 205.274 C 350.935 205.275 359.588 209.664 359.589 209.664 M 338.917 177.170 C 338.917 177.171 339.882 188.096 339.882 188.097 M 360.702 148.771 C 360.701 148.772 347.137 157.764 347.136 157.765 M 377.385 145.155 C 377.383 145.156 360.704 148.770 360.702 148.771 M 395.126 146.684 C 395.125 146.683 377.386 145.155 377.385 145.155 M 411.872 153.119 C 411.870 153.118 395.128 146.684 395.126 146.684 M 426.428 163.924 C 426.426 163.923 411.873 153.120 411.872 153.119 "/>
</g>
<g id="specs">
<path fill="#ff0000" fill-rule="evenodd" stroke="none" d="M 78.524 457.631 C 78.521 457.633 45.960 475.119 45.957 475.120 C 45.958 475.119 55.539 461.102 55.540 461.100 C 55.539 461.099 42.247 450.534 42.246 450.533 C 42.250 450.534 78.521 457.631 78.524 457.631 Z"/>
<path fill="#0000ff" fill-rule="evenodd" stroke="none" d="M 653.676 241.001 C 653.674 241.002 634.759 251.159 634.757 251.160 C 634.758 251.159 640.323 243.017 640.324 243.016 C 640.323 243.016 632.603 236.879 632.602 236.878 C 632.604 236.879 653.673 241.001 653.676 241.001 Z"/>
<path fill="#00ff00" fill-rule="evenodd" stroke="none" d="M 72.979 336.669 C 72.981 336.668 94.266 333.866 94.268 333.866 C 94.268 333.866 86.180 339.511 86.179 339.511 C 86.179 339.512 91.227 347.985 91.228 347.986 C 91.226 347.985 72.981 336.670 72.979 336.669 Z"/>
<path fill="#ffff00" fill-rule="evenodd" stroke="none" d="M 70.383 420.494 C 70.385 420.493 91.179 415.154 91.181 415.154 C 91.181 415.154 83.829 421.730 83.829 421.730 C 83.829 421.731 89.858 429.536 89.858 429.537 C 89.857 429.536 70.385 420.495 70.383 420.494 Z"/>
<path fill="#ffff00" fill-rule="evenodd" stroke="none" d="M 81.061 514.452 C 81.064 514.452 102.478 515.978 102.480 515.978 C 102.479 515.978 94.069 510.826 94.068 510.826 C 94.068 510.825 98.600 502.065 98.601 502.064 C 98.599 502.065 81.063 514.451 81.061 514.452 Z"/>
<path fill="#00ff00" fill-rule="evenodd" stroke="none" d="M 106.385 592.901 C 106.387 592.900 127.152 587.447 127.154 587.447 C 127.153 587.446 117.531 585.278 117.530 585.278 C 117.531 585.277 119.000 575.525 119.000 575.524 C 118.999 575.526 106.386 592.899 106.385 592.901 Z"/>
<path fill="#00ffff" fill-rule="evenodd" stroke="none" d="M 140.150 645.513 C 140.152 645.512 159.093 635.405 159.095 635.404 C 159.094 635.404 149.232 635.520 149.231 635.520 C 149.231 635.519 148.405 625.691 148.404 625.690 C 148.404 625.692 140.151 645.511 140.150 645.513 Z"/>
<path fill="#00ffff" fill-rule="evenodd" stroke="none" d="M 88.900 269.958 C 88.902 269.959 109.664 275.422 109.666 275.423 C 109.665 275.423 100.042 277.586 100.042 277.586 C 100.042 277.587 101.506 287.340 101.506 287.341 C 101.505 287.339 88.901 269.960 88.900 269.958 Z"/>
<path fill="#be0027" fill-rule="evenodd" stroke="none" d="M 62.157 468.151 C 62.160 468.152 88.550 473.315 88.552 473.316 C 88.551 473.315 78.881 465.628 78.880 465.627 C 78.881 465.626 85.852 455.428 85.853 455.427 C 85.850 455.428 62.160 468.150 62.157 468.151 Z"/>
</g>
</g>
</svg>
