<?xml version="1.0" encoding="utf-8"?>
<!-- Generator: Moho 12.5 build 22414 -->
<!DOCTYPE svg PUBLIC "-//W3C//DTD SVG 1.1//EN" "http://www.w3.org/Graphics/SVG/1.1/DTD/svg11.dtd">
<svg version="1.1" id="Frame_0" xmlns="http://www.w3.org/2000/svg" xmlns:xlink="http://www.w3.org/1999/xlink" width="720px" height="720px">
<g id="cornucopia">
<g id="cornucopia">
<path fill="#ffffff" fill-rule="evenodd" stroke="#000000" stroke-width="4" stroke-linecap="round" stroke-linejoin="round" d="M 463.015 629.536 C 383.006 627.967 291.928 623.202 218.460 567.596 C 301.588 494.157 364.338 362.920 324.491 283.130 C 311.788 257.693 289.119 236.983 245.841 232.921 C 222.091 230.692 197.713 241.893 182.705 261.033 C 167.993 279.796 164.383 308.469 177.638 325.737 C 186.292 337.010 203.681 340.931 217.239 334.519 C 227.964 329.447 240.969 314.502 222.482 302.988 C 259.980 291.051 278.931 337.537 261.014 370.270 C 244.263 400.872 213.346 422.065 157.193 411.116 C 84.011 396.847 47.699 323.569 53.242 254.843 C 58.388 191.032 93.983 134.521 143.271 94.555 C 172.490 70.863 269.621 41.344 347.571 53.799 C 558.678 87.532 655.203 239.977 649.602 577.791 C 574.559 631.808 482.217 629.913 463.015 629.536 Z"/>
</g>
<g id="specs">
<path fill="#ff00ff" fill-rule="evenodd" stroke="none" d="M 350.278 578.327 C 350.303 578.327 606.691 578.327 606.717 578.327 C 606.717 578.301 606.717 321.913 606.717 321.888 C 606.691 321.888 350.303 321.888 350.278 321.888 C 350.278 321.913 350.278 578.301 350.278 578.327 Z"/>
<path fill="#ff0000" fill-rule="evenodd" stroke="none" d="M 434.061 657.770 C 434.062 657.774 446.493 692.580 446.494 692.583 C 446.493 692.582 434.062 681.016 434.061 681.015 C 434.060 681.016 421.629 692.582 421.628 692.583 C 421.629 692.580 434.060 657.774 434.061 657.770 Z"/>
<path fill="#0000ff" fill-rule="evenodd" stroke="none" d="M 305.689 35.052 C 305.690 35.054 312.910 55.272 312.911 55.274 C 312.910 55.274 305.690 48.556 305.689 48.555 C 305.688 48.556 298.468 55.274 298.467 55.274 C 298.468 55.272 305.688 35.054 305.689 35.052 Z"/>
<path fill="#00ff00" fill-rule="evenodd" stroke="none" d="M 313.625 623.523 C 313.625 623.521 314.031 602.056 314.031 602.053 C 314.031 602.054 318.406 610.894 318.406 610.895 C 318.407 610.894 327.538 607.168 327.539 607.167 C 327.538 607.169 313.626 623.521 313.625 623.523 Z"/>
<path fill="#ffff00" fill-rule="evenodd" stroke="none" d="M 396.124 638.600 C 396.124 638.598 393.948 617.239 393.948 617.237 C 393.948 617.238 399.353 625.488 399.353 625.489 C 399.354 625.488 407.972 620.692 407.973 620.691 C 407.972 620.693 396.125 638.598 396.124 638.600 Z"/>
<path fill="#ffff00" fill-rule="evenodd" stroke="none" d="M 490.624 642.062 C 490.624 642.060 495.329 621.113 495.329 621.111 C 495.329 621.112 488.980 628.659 488.979 628.660 C 488.978 628.660 480.993 622.871 480.992 622.870 C 480.993 622.872 490.623 642.060 490.624 642.062 Z"/>
<path fill="#00ff00" fill-rule="evenodd" stroke="none" d="M 571.973 628.729 C 571.973 628.727 569.680 607.381 569.680 607.379 C 569.679 607.380 566.100 616.570 566.099 616.571 C 566.098 616.571 556.675 613.663 556.674 613.662 C 556.675 613.664 571.972 628.728 571.973 628.729 Z"/>
<path fill="#00ffff" fill-rule="evenodd" stroke="none" d="M 640.860 597.281 C 640.860 597.279 633.692 577.042 633.692 577.040 C 633.692 577.041 632.334 586.810 632.334 586.811 C 632.333 586.811 622.492 586.161 622.491 586.161 C 622.493 586.162 640.858 597.280 640.860 597.281 Z"/>
<path fill="#00ffff" fill-rule="evenodd" stroke="none" d="M 227.373 587.970 C 227.374 587.968 235.874 568.254 235.875 568.252 C 235.875 568.253 236.578 578.091 236.578 578.092 C 236.579 578.092 246.442 578.099 246.443 578.099 C 246.441 578.100 227.375 587.969 227.373 587.970 Z"/>
</g>
</g>
</svg>
