<?xml version="1.0" encoding="utf-8"?>
<!-- Generator: Moho 12.5 build 22414 -->
<!DOCTYPE svg PUBLIC "-//W3C//DTD SVG 1.1//EN" "http://www.w3.org/Graphics/SVG/1.1/DTD/svg11.dtd">
<svg version="1.1" id="Frame_0" xmlns="http://www.w3.org/2000/svg" xmlns:xlink="http://www.w3.org/1999/xlink" width="720px" height="720px">
<g id="cornucopia_2">
<g id="cornucopia">
<path fill="#ffffff" fill-rule="evenodd" stroke="none" d="M 218.460 567.596 C 239.242 549.236 275.694 503.394 275.701 503.387 C 275.705 503.378 317.586 427.753 317.591 427.745 C 317.593 427.736 335.437 358.803 335.439 358.795 C 335.439 358.790 337.302 317.624 337.302 317.620 C 337.301 317.617 331.652 287.793 331.652 287.790 C 331.651 287.787 320.283 262.823 320.282 262.820 C 320.280 262.818 302.196 244.818 302.194 244.816 C 302.192 244.814 283.290 234.893 283.287 234.892 C 283.284 234.891 256.647 230.726 256.644 230.726 C 256.641 230.726 233.846 233.549 233.844 233.549 C 233.842 233.549 213.953 237.978 213.951 237.979 C 213.949 237.980 195.564 248.252 195.562 248.253 C 195.560 248.254 182.707 261.032 182.705 261.033 C 182.704 261.035 173.844 276.629 173.843 276.630 C 173.842 276.632 169.684 293.944 169.684 293.946 C 169.684 293.948 170.769 310.979 170.769 310.981 C 170.770 310.983 177.638 325.736 177.638 325.738 C 177.639 325.738 185.569 332.766 185.570 332.767 C 185.571 332.767 195.598 336.759 195.599 336.760 C 195.601 336.760 206.547 337.437 206.548 337.437 C 206.550 337.437 217.237 334.519 217.239 334.519 C 217.239 334.518 225.182 329.072 225.183 329.072 C 225.183 329.071 230.814 321.170 230.815 321.169 C 230.815 321.168 230.970 312.060 230.970 312.059 C 230.970 312.058 227.104 305.866 222.482 302.988 C 231.856 300.003 240.072 300.670 246.842 303.861 C 253.611 307.052 258.936 312.767 262.529 319.877 C 266.121 326.988 267.982 335.494 267.825 344.269 C 267.668 353.044 265.493 362.087 261.014 370.270 C 256.826 377.920 251.501 384.740 245.621 391.102 C 242.449 394.534 239.029 397.824 234.719 400.362 C 223.521 406.956 210.200 411.884 194.749 413.656 C 183.726 414.920 171.231 413.853 157.193 411.116 C 138.897 407.549 122.906 400.294 109.297 390.343 C 95.688 380.393 84.462 367.748 75.695 353.401 C 66.929 339.054 60.623 323.005 56.854 306.248 C 53.086 289.490 51.834 272.022 53.241 254.842 C 54.773 236.152 59.177 218.168 64.520 200.614 C 67.373 191.240 84.401 156.017 90.411 148.181 C 103.262 131.426 118.444 116.434 134.402 102.439 C 146.512 91.819 165.467 79.236 190.354 69.543 C 211.019 61.493 236.411 55.910 263.607 51.753 C 275.906 49.873 322.316 49.424 331.804 50.843 C 359.415 54.974 385.497 59.434 409.564 67.217 C 434.205 75.185 456.822 85.813 477.713 98.457 C 499.498 111.641 519.640 126.968 537.384 145.345 C 554.269 162.833 568.649 183.241 581.823 205.706 C 594.794 227.827 606.933 252.026 616.104 279.335 C 625.709 307.939 632.043 339.636 637.416 373.912 C 642.453 406.056 645.848 440.822 647.876 478.393 C 649.538 509.185 649.909 542.258 649.602 577.791 C 556.449 641.307 401.393 676.098 218.460 567.596 Z"/>
<path fill="none" stroke="#000000" stroke-width="4" stroke-linecap="round" stroke-linejoin="round" d="M 185.570 332.767 C 165.501 350.093 160.338 377.681 158.769 383.686 C 158.020 386.553 157.718 401.973 157.193 411.116 C 138.897 407.549 122.906 400.294 109.297 390.343 C 120.767 362.578 145.633 335.274 177.638 325.738 C 177.639 325.738 185.569 332.766 185.570 332.767 C 185.571 332.767 195.598 336.759 195.599 336.760 C 185.224 356.925 189.097 384.468 189.484 390.263 C 189.657 392.843 192.994 405.858 194.749 413.656 C 183.718 414.852 171.231 413.853 157.193 411.116 M 217.239 334.519 C 219.976 352.093 239.057 363.888 242.837 366.111 C 244.570 367.131 254.955 368.884 261.014 370.270 C 256.826 377.920 251.666 384.897 245.621 391.102 C 241.378 395.458 236.525 399.279 230.777 402.333 C 225.861 394.778 217.185 382.346 216.030 379.668 C 214.181 375.381 205.954 357.591 206.548 337.437 C 206.550 337.437 217.237 334.519 217.239 334.519 C 217.239 334.518 225.182 329.072 225.183 329.072 C 230.940 341.913 248.822 345.233 252.185 345.925 C 253.846 346.267 262.612 344.821 267.825 344.269 C 267.668 353.044 265.493 362.087 261.014 370.270 M 213.951 237.979 C 215.828 202.861 199.256 132.210 134.402 102.439 C 146.512 91.819 165.467 79.236 190.354 69.543 C 255.280 127.031 242.886 196.952 233.844 233.549 C 233.842 233.549 213.953 237.978 213.951 237.979 C 213.949 237.980 195.564 248.252 195.562 248.253 C 190.101 214.638 140.695 158.763 90.411 148.181 C 103.262 131.426 118.444 116.434 134.402 102.439 M 182.705 261.033 C 170.362 230.713 116.207 197.332 64.520 200.614 C 67.373 191.240 84.401 156.017 90.411 148.181 M 173.843 276.630 C 156.242 253.265 96.535 241.696 53.241 254.842 C 54.773 236.152 59.177 218.168 64.520 200.614 M 169.684 293.946 C 144.601 278.604 87.118 284.835 56.854 306.248 C 53.086 289.490 51.834 272.022 53.241 254.842 M 170.769 310.981 C 143.353 305.071 92.781 329.409 75.695 353.401 C 66.929 339.054 60.623 323.005 56.854 306.248 M 230.815 321.169 C 236.508 329.021 250.790 326.676 253.206 326.145 C 254.390 325.886 259.421 321.967 262.529 319.877 C 266.121 326.988 267.982 335.494 267.825 344.269 M 230.970 312.059 C 242.173 312.283 241.551 306.594 246.842 303.861 C 253.611 307.052 258.936 312.767 262.529 319.877 M 256.644 230.726 C 273.196 188.829 305.430 127.654 263.607 51.753 C 275.906 49.873 322.316 49.424 331.804 50.843 C 358.207 144.092 308.779 196.554 283.287 234.892 C 283.284 234.891 256.647 230.726 256.644 230.726 C 256.641 230.726 233.846 233.549 233.844 233.549 M 302.194 244.816 C 340.251 220.448 407.907 168.617 409.564 67.217 C 434.205 75.185 456.822 85.813 477.713 98.457 C 466.674 193.262 364.014 245.696 320.282 262.820 C 320.280 262.818 302.196 244.818 302.194 244.816 C 302.192 244.814 283.290 234.893 283.287 234.892 M 331.652 287.790 C 389.820 282.143 512.958 238.418 537.384 145.345 C 554.269 162.833 568.649 183.241 581.823 205.706 C 540.488 285.348 399.714 324.179 337.302 317.620 C 337.301 317.617 331.652 287.793 331.652 287.790 C 331.651 287.787 320.283 262.823 320.282 262.820 M 335.439 358.795 C 399.714 385.783 554.689 369.863 616.104 279.335 C 625.709 307.939 632.043 339.636 637.416 373.912 C 552.085 463.766 394.445 472.815 317.591 427.745 C 317.593 427.736 335.437 358.803 335.439 358.795 C 335.439 358.790 337.302 317.624 337.302 317.620 M 275.701 503.387 C 332.143 543.232 543.514 571.989 647.876 478.393 C 649.538 509.185 649.909 542.258 649.602 577.791 C 556.449 641.307 401.393 676.098 218.460 567.596 C 239.242 549.236 275.694 503.394 275.701 503.387 C 275.705 503.378 317.586 427.753 317.591 427.745 M 637.416 373.912 C 642.453 406.056 645.848 440.822 647.876 478.393 M 581.823 205.706 C 594.794 227.827 606.933 252.026 616.104 279.335 M 477.713 98.457 C 499.498 111.641 519.640 126.968 537.384 145.345 M 331.804 50.843 C 359.415 54.974 385.497 59.434 409.564 67.217 M 190.354 69.543 C 211.019 61.493 236.411 55.910 263.607 51.753 M 109.297 390.343 C 95.688 380.393 84.462 367.748 75.695 353.401 M 230.777 402.333 C 220.488 407.799 208.611 412.153 194.749 413.656 M 222.482 302.988 C 231.856 300.003 240.072 300.670 246.842 303.861 M 230.970 312.059 C 230.970 312.058 227.104 305.866 222.482 302.988 M 230.815 321.169 C 230.815 321.168 230.970 312.060 230.970 312.059 M 225.183 329.072 C 225.183 329.071 230.814 321.170 230.815 321.169 M 195.599 336.760 C 195.601 336.760 206.547 337.437 206.548 337.437 M 170.769 310.981 C 170.770 310.983 177.638 325.736 177.638 325.738 M 169.684 293.946 C 169.684 293.948 170.769 310.979 170.769 310.981 M 173.843 276.630 C 173.842 276.632 169.684 293.944 169.684 293.946 M 182.705 261.033 C 182.704 261.035 173.844 276.629 173.843 276.630 M 195.562 248.253 C 195.560 248.254 182.707 261.032 182.705 261.033 "/>
</g>
</g>
</svg>
