<?xml version="1.0" encoding="utf-8"?>
<!-- Generator: Moho 12.5 build 22414 -->
<!DOCTYPE svg PUBLIC "-//W3C//DTD SVG 1.1//EN" "http://www.w3.org/Graphics/SVG/1.1/DTD/svg11.dtd">
<svg version="1.1" id="Frame_0" xmlns="http://www.w3.org/2000/svg" xmlns:xlink="http://www.w3.org/1999/xlink" width="720px" height="720px">
<g id="cow_head2">
<g id="cow_head_3">
<path fill="#000000" fill-rule="evenodd" stroke="none" d="M 357.799 211.194 C 357.799 211.194 447.828 219.022 447.837 219.023 C 447.846 219.020 512.802 210.310 542.768 191.620 C 568.603 175.507 600.503 128.992 600.509 128.985 C 600.505 128.996 593.623 202.016 557.448 238.596 C 529.302 267.057 473.291 274.803 473.282 274.807 C 473.283 274.809 486.982 298.293 486.983 298.295 C 486.993 298.294 554.275 281.083 581.914 287.530 C 623.457 297.220 702.205 359.479 700.333 368.759 C 698.481 377.938 593.972 413.076 561.362 398.119 C 543.851 390.088 533.860 339.965 519.279 334.506 C 517.213 333.732 508.515 335.484 508.514 335.484 C 508.516 335.495 534.821 405.307 530.045 439.223 C 522.953 489.584 452.738 576.223 452.730 576.237 C 452.728 576.241 450.280 606.546 436.092 620.277 C 412.473 643.134 365.217 641.764 360.735 641.807 C 355.984 641.853 305.641 644.389 280.484 620.277 C 266.231 606.615 263.848 576.241 263.847 576.237 C 263.839 576.223 193.624 489.584 186.532 439.223 C 181.756 405.307 208.061 335.495 208.063 335.484 C 208.062 335.484 199.364 333.732 197.298 334.506 C 182.716 339.965 172.726 390.088 155.215 398.119 C 122.605 413.076 18.096 377.938 16.244 368.759 C 14.372 359.479 93.120 297.220 134.663 287.530 C 162.302 281.083 229.584 298.294 229.593 298.295 C 229.595 298.293 243.293 274.809 243.295 274.807 C 243.286 274.803 187.274 267.057 159.129 238.596 C 122.954 202.016 116.072 128.996 116.068 128.985 C 116.074 128.992 147.974 175.507 173.809 191.620 C 203.775 210.310 268.731 219.020 268.740 219.023 C 268.749 219.022 357.790 211.194 357.799 211.194 M 288.493 386.699 C 288.494 386.698 294.767 382.046 297.904 379.720 C 297.901 379.716 293.861 341.534 265.804 331.178 C 246.028 323.879 225.879 340.573 225.875 340.574 C 225.877 340.579 224.794 377.528 249.363 390.681 C 266.825 400.030 288.489 386.699 288.493 386.699 M 425.804 387.818 C 425.803 387.817 421.049 383.203 418.672 380.895 C 418.676 380.889 417.791 333.452 449.794 323.740 C 471.774 317.070 490.698 341.746 490.702 341.748 C 490.700 341.753 491.702 378.553 467.214 391.856 C 448.803 401.857 425.808 387.819 425.804 387.818 Z"/>
<path fill="none" stroke="#ffffff" stroke-width="4" stroke-linejoin="round" d="M 357.799 211.194 C 357.799 211.194 447.828 219.022 447.837 219.023 C 447.846 219.020 512.802 210.310 542.768 191.620 C 568.603 175.507 600.503 128.992 600.509 128.985 C 600.505 128.996 593.623 202.016 557.448 238.596 C 529.302 267.057 473.291 274.803 473.282 274.807 C 473.283 274.809 486.982 298.293 486.983 298.295 C 486.993 298.294 554.275 281.083 581.914 287.530 C 623.457 297.220 702.205 359.479 700.333 368.759 C 698.481 377.938 593.972 413.076 561.362 398.119 C 543.851 390.088 533.860 339.965 519.279 334.506 C 517.213 333.732 508.515 335.484 508.514 335.484 C 508.516 335.495 534.821 405.307 530.045 439.223 C 522.953 489.584 452.738 576.223 452.730 576.237 C 452.728 576.241 450.280 606.546 436.092 620.277 C 412.473 643.134 365.217 641.764 360.735 641.807 C 355.984 641.853 305.641 644.389 280.484 620.277 C 266.231 606.615 263.848 576.241 263.847 576.237 C 263.839 576.223 193.624 489.584 186.532 439.223 C 181.756 405.307 208.061 335.495 208.063 335.484 C 208.062 335.484 199.364 333.732 197.298 334.506 C 182.716 339.965 172.726 390.088 155.215 398.119 C 122.605 413.076 18.096 377.938 16.244 368.759 C 14.372 359.479 93.120 297.220 134.663 287.530 C 162.302 281.083 229.584 298.294 229.593 298.295 C 229.595 298.293 243.293 274.809 243.295 274.807 C 243.286 274.803 187.274 267.057 159.129 238.596 C 122.954 202.016 116.072 128.996 116.068 128.985 C 116.074 128.992 147.974 175.507 173.809 191.620 C 203.775 210.310 268.731 219.020 268.740 219.023 C 268.749 219.022 357.790 211.194 357.799 211.194 M 288.493 386.699 C 288.494 386.698 294.767 382.046 297.904 379.720 C 297.901 379.716 293.861 341.534 265.804 331.178 C 246.028 323.879 225.879 340.573 225.875 340.574 C 225.877 340.579 224.794 377.528 249.363 390.681 C 266.825 400.030 288.489 386.699 288.493 386.699 M 312.634 520.442 C 312.632 520.428 297.906 379.734 297.904 379.720 M 425.804 387.818 C 425.803 387.817 421.049 383.203 418.672 380.895 C 418.676 380.889 417.791 333.452 449.794 323.740 C 471.774 317.070 490.698 341.746 490.702 341.748 C 490.700 341.753 491.702 378.553 467.214 391.856 C 448.803 401.857 425.808 387.819 425.804 387.818 M 403.943 520.442 C 403.944 520.428 418.672 380.909 418.672 380.895 "/>
<path fill="none" stroke="#000000" stroke-width="4" stroke-linejoin="round" d="M 473.282 274.807 C 473.280 274.805 463.587 264.229 457.153 250.517 C 449.907 235.071 450.942 229.521 447.837 219.023 M 243.295 274.807 C 243.296 274.805 253.858 264.494 260.402 250.517 C 267.578 235.190 265.961 229.521 268.740 219.023 "/>
<path fill="none" stroke="#ffffff" stroke-width="4" stroke-linejoin="round" d="M 527.322 322.765 C 527.327 322.763 557.030 304.967 575.063 306.124 C 616.073 308.757 632.479 334.294 673.909 364.844 "/>
<path fill="#000000" fill-rule="evenodd" stroke="#ffffff" stroke-width="4" stroke-linejoin="round" d="M 452.730 576.327 C 452.728 576.331 450.280 606.637 436.092 620.367 C 412.473 643.224 365.217 641.854 360.735 641.898 C 355.984 641.944 305.641 644.479 280.484 620.367 C 266.231 606.705 263.848 576.331 263.847 576.327 C 263.950 576.126 265.237 546.623 310.823 525.436 C 321.552 520.449 357.794 521.522 357.799 521.522 C 357.804 521.522 394.800 520.352 405.754 525.436 C 451.304 546.577 452.725 576.224 452.730 576.327 Z"/>
<path fill="none" stroke="#ffffff" stroke-width="4" stroke-linejoin="round" d="M 190.749 322.477 C 190.745 322.475 161.314 304.963 143.471 306.124 C 102.464 308.794 90.063 326.296 44.626 364.844 "/>
<path fill="none" stroke="#000000" stroke-width="1" stroke-linecap="butt" stroke-linejoin="round" d="M 159.129 238.596 C 122.954 202.016 116.072 128.996 116.068 128.985 "/>
<path fill="none" stroke="#000000" stroke-width="1" stroke-linecap="butt" stroke-linejoin="round" d="M 116.068 128.985 C 116.074 128.992 147.974 175.507 173.809 191.620 "/>
<path fill="none" stroke="#000000" stroke-width="1" stroke-linecap="butt" stroke-linejoin="round" d="M 173.809 191.620 C 203.775 210.310 268.731 219.020 268.740 219.023 "/>
<path fill="none" stroke="#000000" stroke-width="1" stroke-linecap="butt" stroke-linejoin="round" d="M 243.295 274.807 C 243.286 274.803 187.274 267.057 159.129 238.596 "/>
<path fill="none" stroke="#000000" stroke-width="1" stroke-linecap="butt" stroke-linejoin="round" d="M 447.837 219.023 C 447.846 219.020 512.802 210.310 542.768 191.620 "/>
<path fill="none" stroke="#000000" stroke-width="1" stroke-linecap="butt" stroke-linejoin="round" d="M 542.768 191.620 C 568.603 175.507 600.503 128.992 600.509 128.985 "/>
<path fill="none" stroke="#000000" stroke-width="1" stroke-linecap="butt" stroke-linejoin="round" d="M 600.509 128.985 C 600.505 128.996 593.623 202.016 557.448 238.596 "/>
<path fill="none" stroke="#000000" stroke-width="1" stroke-linecap="butt" stroke-linejoin="round" d="M 557.448 238.596 C 529.302 267.057 473.291 274.803 473.282 274.807 "/>
<path fill="#000000" fill-rule="evenodd" stroke="#ffffff" stroke-width="4" stroke-linejoin="round" d="M 159.129 238.596 C 122.954 202.016 116.072 128.996 116.068 128.985 C 116.074 128.992 147.974 175.507 173.809 191.620 C 203.775 210.310 268.731 219.020 268.740 219.023 C 265.961 229.521 267.578 235.190 260.402 250.517 C 253.858 264.494 243.296 274.805 243.295 274.807 C 243.286 274.803 187.274 267.057 159.129 238.596 M 457.153 250.517 C 449.907 235.071 450.942 229.521 447.837 219.023 C 447.846 219.020 512.802 210.310 542.768 191.620 C 568.603 175.507 600.503 128.992 600.509 128.985 C 600.505 128.996 593.623 202.016 557.448 238.596 C 529.302 267.057 473.291 274.803 473.282 274.807 C 473.280 274.805 463.587 264.229 457.153 250.517 Z"/>
<path fill="none" stroke="#ffffff" stroke-width="4" stroke-linejoin="round" d="M 380.308 570.365 C 391.798 570.650 429.046 572.293 427.285 555.685 C 426.877 551.844 413.882 546.436 404.775 547.855 C 388.561 550.381 383.436 562.743 380.308 570.365 C 375.314 582.534 387.910 613.089 385.276 623.213 C 384.083 627.798 380.343 635.372 358.233 635.427 C 341.386 635.469 332.740 627.709 331.301 623.213 C 327.758 612.140 341.263 582.534 336.268 570.365 C 333.140 562.743 331.786 551.329 311.802 547.855 C 301.160 546.006 289.699 551.844 289.292 555.685 C 287.531 572.293 324.779 570.650 336.268 570.365 "/>
</g>
<g id="specs">
<path fill="#ff00ff" fill-rule="evenodd" stroke="none" d="M 295.808 346.884 C 295.821 346.884 424.179 346.884 424.192 346.884 C 424.192 346.871 424.192 218.512 424.192 218.499 C 424.179 218.499 295.821 218.499 295.808 218.499 C 295.808 218.512 295.808 346.871 295.808 346.884 Z"/>
<path fill="#ff0000" fill-rule="evenodd" stroke="none" d="M 360.000 670.637 C 360.001 670.640 372.432 705.446 372.433 705.450 C 372.432 705.449 360.001 693.883 360.000 693.882 C 359.999 693.883 347.568 705.449 347.567 705.450 C 347.568 705.446 359.999 670.640 360.000 670.637 Z"/>
<path fill="#0000ff" fill-rule="evenodd" stroke="none" d="M 360.000 197.167 C 360.001 197.169 367.221 217.387 367.222 217.389 C 367.221 217.388 360.001 210.670 360.000 210.669 C 359.999 210.670 352.779 217.388 352.778 217.389 C 352.779 217.387 359.999 197.169 360.000 197.167 Z"/>
<path fill="#00ff00" fill-rule="evenodd" stroke="none" d="M 178.493 452.189 C 178.495 452.188 198.676 444.865 198.678 444.865 C 198.677 444.865 191.996 452.120 191.995 452.121 C 191.996 452.122 198.750 459.308 198.751 459.309 C 198.749 459.308 178.495 452.190 178.493 452.189 Z"/>
<path fill="#ffff00" fill-rule="evenodd" stroke="none" d="M 249.195 570.794 C 249.195 570.792 258.156 551.283 258.157 551.281 C 258.157 551.282 258.629 561.133 258.629 561.134 C 258.630 561.134 268.489 561.373 268.490 561.373 C 268.488 561.374 249.197 570.793 249.195 570.794 Z"/>
<path fill="#ffff00" fill-rule="evenodd" stroke="none" d="M 469.158 570.555 C 469.157 570.553 459.807 551.227 459.806 551.225 C 459.806 551.226 459.532 561.085 459.532 561.086 C 459.531 561.086 449.678 561.523 449.677 561.523 C 449.679 561.524 469.156 570.554 469.158 570.555 Z"/>
<path fill="#00ff00" fill-rule="evenodd" stroke="none" d="M 538.589 452.189 C 538.587 452.188 518.405 444.865 518.403 444.865 C 518.404 444.865 525.086 452.120 525.086 452.121 C 525.086 452.122 518.331 459.308 518.331 459.309 C 518.333 459.308 538.587 452.190 538.589 452.189 Z"/>
<path fill="#00ffff" fill-rule="evenodd" stroke="none" d="M 600.456 133.124 C 600.455 133.126 596.911 154.300 596.911 154.302 C 596.911 154.301 593.878 144.916 593.877 144.915 C 593.876 144.916 584.298 147.265 584.297 147.265 C 584.298 147.263 600.454 133.125 600.456 133.124 Z"/>
<path fill="#00ffff" fill-rule="evenodd" stroke="none" d="M 115.652 133.730 C 115.652 133.732 120.600 154.623 120.601 154.625 C 120.601 154.624 123.001 145.057 123.002 145.056 C 123.003 145.057 132.716 146.762 132.717 146.762 C 132.715 146.761 115.653 133.731 115.652 133.730 Z"/>
<path fill="#be0027" fill-rule="evenodd" stroke="none" d="M 360.000 655.480 C 360.001 655.476 372.432 620.670 372.433 620.667 C 372.432 620.668 360.001 632.234 360.000 632.235 C 359.999 632.234 347.568 620.668 347.567 620.667 C 347.568 620.670 359.999 655.476 360.000 655.480 Z"/>
</g>
</g>
</svg>
