<?xml version="1.0" encoding="utf-8"?>
<!-- Generator: Moho 12.5 build 22414 -->
<!DOCTYPE svg PUBLIC "-//W3C//DTD SVG 1.1//EN" "http://www.w3.org/Graphics/SVG/1.1/DTD/svg11.dtd">
<svg version="1.1" id="Frame_0" xmlns="http://www.w3.org/2000/svg" xmlns:xlink="http://www.w3.org/1999/xlink" width="720px" height="720px">
<g id="cow_head">
<g id="cow_head.svg">
<path fill="#ffffff" fill-rule="evenodd" stroke="#000000" stroke-width="4" stroke-linecap="round" stroke-linejoin="round" d="M 359.254 212.827 C 372.048 212.912 441.841 218.135 441.850 218.135 C 441.857 218.133 488.854 218.411 517.949 205.269 C 557.635 187.343 598.611 137.630 598.619 137.624 C 598.614 137.633 589.727 201.353 561.553 232.877 C 535.614 261.900 478.503 277.103 478.494 277.107 C 478.490 277.102 444.260 219.819 444.257 219.813 C 444.264 219.824 502.182 331.036 502.187 331.046 C 502.182 331.046 467.767 317.991 442.870 329.336 C 412.226 343.300 409.533 385.293 409.530 385.300 C 409.530 385.313 404.064 518.608 404.064 518.620 C 404.064 518.608 414.025 391.357 414.027 391.344 C 414.032 391.344 444.766 410.977 466.571 399.095 C 497.761 382.096 504.056 335.490 504.061 335.483 C 504.059 335.479 487.234 297.120 487.233 297.117 C 487.243 297.117 551.034 280.030 592.871 292.768 C 644.128 308.373 698.733 359.915 696.247 370.822 C 693.825 381.444 622.870 401.950 572.852 397.098 C 536.801 393.602 529.950 330.440 508.828 337.362 C 501.701 339.697 532.674 397.431 526.518 448.990 C 522.131 485.722 452.400 572.662 452.393 572.675 C 452.391 572.671 448.225 552.723 439.108 544.255 C 430.728 536.471 417.480 527.291 404.816 523.966 C 398.407 522.283 357.965 523.924 357.962 523.924 C 357.965 523.924 396.443 525.098 406.968 528.332 C 421.962 532.940 432.583 542.450 437.709 548.722 C 442.506 554.592 449.878 568.084 450.814 580.653 C 451.303 587.254 443.797 615.499 432.492 623.721 C 416.790 635.140 375.319 633.945 375.314 633.947 C 375.314 633.942 397.286 627.774 382.549 578.988 C 381.513 575.555 424.212 572.784 423.976 555.006 C 423.884 548.133 404.495 537.988 380.382 569.372 C 374.431 577.115 406.508 637.153 359.769 638.042 C 315.700 638.879 343.004 575.350 336.415 567.616 C 311.504 538.372 294.635 550.103 291.952 557.639 C 287.731 569.497 337.128 572.562 334.677 581.118 C 321.081 628.605 343.825 634.398 343.825 634.403 C 343.819 634.401 305.276 636.060 286.062 621.965 C 274.786 613.692 271.838 590.854 271.255 582.406 C 270.783 575.601 272.390 557.236 278.262 549.118 C 285.127 539.626 302.857 532.970 312.943 529.637 C 324.489 525.819 358.135 524.122 358.139 524.122 C 358.135 524.122 319.364 523.913 314.192 525.236 C 309.076 526.544 284.034 535.064 275.536 545.108 C 269.278 552.504 267.916 571.801 267.914 571.805 C 267.907 571.793 195.332 498.392 192.036 452.500 C 187.028 382.789 215.492 338.660 212.214 337.774 C 192.277 332.392 184.152 385.541 150.721 396.094 C 100.065 412.084 27.097 382.720 24.601 371.916 C 22.033 360.797 78.651 308.506 131.365 294.036 C 170.037 283.423 228.051 301.005 228.061 301.005 C 228.059 301.009 213.743 333.349 213.742 333.352 C 213.745 333.357 220.695 383.548 247.091 397.965 C 274.655 413.020 300.516 390.341 300.521 390.340 C 300.521 390.354 314.079 520.810 314.080 520.824 C 314.080 520.810 306.259 387.905 306.259 387.891 C 306.256 387.885 300.309 345.385 278.313 331.371 C 256.827 317.683 216.753 329.791 216.746 329.791 C 216.751 329.780 268.112 220.201 268.118 220.190 C 268.114 220.195 236.305 277.469 236.301 277.476 C 236.294 277.471 183.009 263.358 158.225 236.635 C 126.565 202.497 115.550 132.491 115.545 132.480 C 115.552 132.487 152.784 179.995 186.045 201.754 C 216.684 221.795 273.179 217.248 273.187 217.249 C 273.196 217.249 345.932 212.737 359.254 212.827 Z"/>
</g>
<g id="specs_2">
<path fill="#ff00ff" fill-rule="evenodd" stroke="none" d="M 295.808 346.884 C 295.821 346.884 424.179 346.884 424.192 346.884 C 424.192 346.871 424.192 218.512 424.192 218.499 C 424.179 218.499 295.821 218.499 295.808 218.499 C 295.808 218.512 295.808 346.871 295.808 346.884 Z"/>
<path fill="#ff0000" fill-rule="evenodd" stroke="none" d="M 360.000 670.637 C 360.001 670.640 372.432 705.446 372.433 705.450 C 372.432 705.449 360.001 693.883 360.000 693.882 C 359.999 693.883 347.568 705.449 347.567 705.450 C 347.568 705.446 359.999 670.640 360.000 670.637 Z"/>
<path fill="#0000ff" fill-rule="evenodd" stroke="none" d="M 360.000 197.167 C 360.001 197.169 367.221 217.387 367.222 217.389 C 367.221 217.388 360.001 210.670 360.000 210.669 C 359.999 210.670 352.779 217.388 352.778 217.389 C 352.779 217.387 359.999 197.169 360.000 197.167 Z"/>
<path fill="#00ff00" fill-rule="evenodd" stroke="none" d="M 178.493 452.189 C 178.495 452.188 198.676 444.865 198.678 444.865 C 198.677 444.865 191.996 452.120 191.995 452.121 C 191.996 452.121 198.750 459.308 198.751 459.309 C 198.749 459.308 178.495 452.190 178.493 452.189 Z"/>
<path fill="#ffff00" fill-rule="evenodd" stroke="none" d="M 249.194 570.794 C 249.195 570.792 258.156 551.283 258.157 551.281 C 258.157 551.282 258.629 561.133 258.629 561.134 C 258.630 561.134 268.489 561.373 268.490 561.373 C 268.488 561.374 249.196 570.793 249.194 570.794 Z"/>
<path fill="#ffff00" fill-rule="evenodd" stroke="none" d="M 469.158 570.555 C 469.157 570.553 459.807 551.227 459.806 551.225 C 459.806 551.226 459.532 561.085 459.532 561.086 C 459.531 561.086 449.677 561.523 449.677 561.523 C 449.678 561.524 469.156 570.554 469.158 570.555 Z"/>
<path fill="#00ff00" fill-rule="evenodd" stroke="none" d="M 538.589 452.189 C 538.587 452.188 518.405 444.865 518.403 444.865 C 518.404 444.865 525.086 452.120 525.086 452.121 C 525.086 452.121 518.331 459.308 518.331 459.309 C 518.333 459.308 538.587 452.190 538.589 452.189 Z"/>
<path fill="#00ffff" fill-rule="evenodd" stroke="none" d="M 602.353 134.565 C 602.352 134.567 595.185 154.804 595.184 154.806 C 595.184 154.805 593.827 145.036 593.826 145.035 C 593.825 145.035 583.984 145.685 583.983 145.685 C 583.985 145.684 602.351 134.566 602.353 134.565 Z"/>
<path fill="#00ffff" fill-rule="evenodd" stroke="none" d="M 113.795 135.236 C 113.796 135.238 122.296 154.952 122.297 154.954 C 122.297 154.953 123.000 145.115 123.000 145.114 C 123.001 145.114 132.863 145.107 132.864 145.107 C 132.862 145.106 113.797 135.237 113.795 135.236 Z"/>
<path fill="#be0027" fill-rule="evenodd" stroke="none" d="M 360.000 655.480 C 360.001 655.476 372.432 620.670 372.433 620.667 C 372.432 620.668 360.001 632.234 360.000 632.235 C 359.999 632.234 347.568 620.668 347.567 620.667 C 347.568 620.670 359.999 655.476 360.000 655.480 Z"/>
</g>
</g>
</svg>
