<?xml version="1.0" encoding="utf-8"?>
<!-- Generator: Moho 12.5 build 22414 -->
<!DOCTYPE svg PUBLIC "-//W3C//DTD SVG 1.1//EN" "http://www.w3.org/Graphics/SVG/1.1/DTD/svg11.dtd">
<svg version="1.1" id="Frame_0" xmlns="http://www.w3.org/2000/svg" xmlns:xlink="http://www.w3.org/1999/xlink" width="720px" height="720px">
<g id="crescent_interlock">
<g id="crescent_interlock">
<path fill="#000000" fill-rule="evenodd" stroke="#000000" stroke-width="3" stroke-linecap="round" stroke-linejoin="round" d="M 319.666 502.446 C 313.478 496.180 307.697 489.511 302.272 482.358 C 269.556 507.232 234.040 519.464 185.741 520.542 C 159.398 521.131 135.326 512.889 112.879 504.113 C 150.535 540.614 201.294 562.943 257.360 562.591 C 294.925 562.356 329.993 551.984 360.005 534.078 C 345.227 525.258 331.679 514.610 319.666 502.446 Z"/>
<path fill="#ffffff" fill-rule="evenodd" stroke="#000000" stroke-width="3" stroke-linecap="round" stroke-linejoin="round" d="M 398.535 215.755 C 387.108 204.471 374.343 194.541 360.040 185.901 C 390.323 167.706 426.496 157.166 465.182 157.409 C 520.688 157.757 570.744 180.237 606.360 216.416 C 584.839 205.490 561.396 198.208 536.035 196.818 C 490.941 194.347 448.667 207.545 415.986 235.391 C 410.665 228.539 404.802 221.943 398.535 215.755 Z"/>
<path fill="none" stroke="#000000" stroke-width="1" stroke-linecap="butt" stroke-linejoin="round" d="M 415.986 235.391 C 410.665 228.539 404.802 221.943 398.535 215.755 "/>
<path fill="none" stroke="#000000" stroke-width="1" stroke-linecap="butt" stroke-linejoin="round" d="M 398.535 215.755 C 387.108 204.471 374.343 194.541 360.040 185.901 "/>
<path fill="#000000" fill-rule="evenodd" stroke="#000000" stroke-width="3" stroke-linecap="round" stroke-linejoin="round" d="M 360.402 359.594 C 360.380 362.838 360.346 366.045 359.785 369.142 C 363.426 411.458 381.464 451.391 411.742 477.527 C 413.754 479.263 415.859 480.847 417.726 482.272 C 443.662 448.164 458.972 405.264 458.680 358.729 C 458.388 312.194 442.541 269.489 415.986 235.391 C 410.665 228.539 404.802 221.943 398.535 215.755 C 387.108 204.471 374.343 194.541 360.040 185.901 C 329.677 167.706 293.504 157.166 254.818 157.409 C 199.312 157.757 149.256 180.237 113.640 216.416 C 135.161 205.490 158.604 198.208 183.965 196.818 C 229.059 194.347 271.333 207.545 304.011 235.379 C 305.556 236.702 307.613 238.463 309.537 240.375 C 337.344 267.994 355.541 309.122 360.181 350.195 C 360.377 353.418 360.423 356.508 360.402 359.594 Z"/>
<path fill="none" stroke="#ffffff" stroke-width="1" stroke-linecap="butt" stroke-linejoin="round" d="M 309.537 240.375 C 337.344 267.994 355.541 309.122 360.181 350.195 "/>
<path fill="none" stroke="#ffffff" stroke-width="1" stroke-linecap="butt" stroke-linejoin="round" d="M 359.785 369.142 C 363.426 411.458 381.464 451.391 411.742 477.527 "/>
<path fill="none" stroke="#ffffff" stroke-width="1" stroke-linecap="butt" stroke-linejoin="round" d="M 411.742 477.527 C 413.754 479.263 415.859 480.847 417.726 482.272 "/>
<path fill="none" stroke="#ffffff" stroke-width="1" stroke-linecap="butt" stroke-linejoin="round" d="M 360.005 534.078 C 345.227 525.258 331.679 514.610 319.666 502.446 "/>
<path fill="none" stroke="#ffffff" stroke-width="1" stroke-linecap="butt" stroke-linejoin="round" d="M 319.666 502.446 C 313.478 496.180 307.697 489.511 302.272 482.358 "/>
<path fill="none" stroke="#ffffff" stroke-width="1" stroke-linecap="butt" stroke-linejoin="round" d="M 304.011 235.379 C 305.556 236.702 307.613 238.463 309.537 240.375 "/>
<path fill="#ffffff" fill-rule="evenodd" stroke="#000000" stroke-width="3" stroke-linecap="round" stroke-linejoin="round" d="M 309.537 240.375 C 337.344 267.994 355.541 309.122 360.181 350.195 C 359.728 353.413 359.657 356.507 359.598 359.594 C 359.536 362.836 359.517 366.037 359.785 369.142 C 363.426 411.458 381.464 451.391 411.742 477.527 C 413.754 479.263 415.859 480.847 417.726 482.272 C 450.445 507.232 485.960 519.464 534.259 520.542 C 560.602 521.131 584.674 512.889 607.121 504.113 C 569.465 540.614 518.706 562.943 462.640 562.591 C 425.075 562.356 390.007 551.984 360.005 534.078 C 345.227 525.258 331.679 514.610 319.666 502.446 C 313.478 496.180 307.697 489.511 302.272 482.358 C 276.338 448.164 261.028 405.264 261.320 358.729 C 261.612 312.194 277.459 269.489 304.011 235.379 C 305.556 236.702 307.613 238.463 309.537 240.375 Z"/>
</g>
<g id="specs">
<path fill="#ff00ff" fill-rule="evenodd" stroke="none" d="M 483.178 476.286 C 483.201 476.286 715.726 476.286 715.749 476.286 C 715.749 476.262 715.749 243.738 715.749 243.714 C 715.726 243.714 483.201 243.714 483.178 243.714 C 483.178 243.738 483.178 476.262 483.178 476.286 Z"/>
<path fill="#ff0000" fill-rule="evenodd" stroke="none" d="M 360.000 618.386 C 360.001 618.388 369.743 645.666 369.744 645.669 C 369.743 645.668 360.001 636.604 360.000 636.603 C 359.999 636.604 350.257 645.668 350.256 645.669 C 350.257 645.666 359.999 618.388 360.000 618.386 Z"/>
<path fill="#0000ff" fill-rule="evenodd" stroke="none" d="M 360.000 91.793 C 360.001 91.795 365.659 107.640 365.660 107.641 C 365.659 107.641 360.001 102.376 360.000 102.375 C 359.999 102.376 354.341 107.641 354.340 107.641 C 354.341 107.640 359.999 91.795 360.000 91.793 Z"/>
<path fill="#ffff00" fill-rule="evenodd" stroke="none" d="M 167.855 552.616 C 167.856 552.614 174.961 537.143 174.962 537.142 C 174.962 537.143 175.336 544.955 175.336 544.956 C 175.337 544.956 183.156 545.145 183.157 545.145 C 183.155 545.146 167.857 552.615 167.855 552.616 Z"/>
<path fill="#ffff00" fill-rule="evenodd" stroke="none" d="M 552.145 552.427 C 552.144 552.425 544.730 537.099 544.729 537.098 C 544.729 537.099 544.512 544.917 544.512 544.918 C 544.511 544.918 536.697 545.264 536.696 545.264 C 536.698 545.265 552.143 552.426 552.145 552.427 Z"/>
<path fill="#00ffff" fill-rule="evenodd" stroke="none" d="M 551.402 167.384 C 551.402 167.386 545.718 183.434 545.718 183.436 C 545.717 183.435 544.641 175.688 544.641 175.687 C 544.640 175.687 536.836 176.202 536.835 176.202 C 536.837 176.202 551.401 167.385 551.402 167.384 Z"/>
<path fill="#00ffff" fill-rule="evenodd" stroke="none" d="M 168.686 167.916 C 168.687 167.917 175.428 183.551 175.429 183.553 C 175.429 183.552 175.986 175.750 175.986 175.750 C 175.987 175.750 183.808 175.744 183.809 175.744 C 183.807 175.743 168.688 167.917 168.686 167.916 Z"/>
<path fill="#be0027" fill-rule="evenodd" stroke="none" d="M 360.000 582.470 C 360.001 582.467 369.743 555.190 369.744 555.187 C 369.743 555.188 360.001 564.252 360.000 564.253 C 359.999 564.252 350.257 555.188 350.256 555.187 C 350.257 555.190 359.999 582.467 360.000 582.470 Z"/>
<path fill="#ff00ff" fill-rule="evenodd" stroke="none" d="M 4.251 476.286 C 4.274 476.286 236.799 476.286 236.822 476.286 C 236.822 476.262 236.822 243.738 236.822 243.714 C 236.799 243.714 4.274 243.714 4.251 243.714 C 4.251 243.738 4.251 476.262 4.251 476.286 Z"/>
</g>
</g>
</svg>
