<?xml version="1.0" encoding="utf-8"?>
<!-- Generator: Moho 12.5 build 22414 -->
<!DOCTYPE svg PUBLIC "-//W3C//DTD SVG 1.1//EN" "http://www.w3.org/Graphics/SVG/1.1/DTD/svg11.dtd">
<svg version="1.1" id="Frame_0" xmlns="http://www.w3.org/2000/svg" xmlns:xlink="http://www.w3.org/1999/xlink" width="720px" height="720px">
<g id="crescent_interlock_3">
<g id="crescent_2">
<path fill="#ffffff" fill-rule="evenodd" stroke="#000000" stroke-width="4" stroke-linecap="round" stroke-linejoin="round" d="M 639.764 246.165 C 630.229 239.905 620.417 234.409 611.190 230.075 C 612.409 219.748 613.049 210.077 613.137 200.270 C 613.212 191.863 612.878 183.551 612.026 175.193 C 658.415 210.039 689.881 258.634 703.448 311.476 C 687.052 286.164 666.293 263.583 639.764 246.165 Z"/>
<path fill="#ffffff" fill-rule="evenodd" stroke="#000000" stroke-width="4" stroke-linecap="round" stroke-linejoin="round" d="M 225.964 279.219 C 255.644 304.678 294.894 323.163 335.656 328.675 C 338.496 322.432 341.683 316.294 345.219 310.292 C 349.794 302.525 354.956 295.099 360.990 287.583 C 386.375 255.956 422.389 231.753 459.923 219.209 C 465.407 217.376 471.078 215.758 476.750 214.418 C 497.676 209.474 519.022 208.121 540.286 210.198 C 549.359 189.870 555.325 168.094 558.376 144.163 C 505.705 121.673 448.687 118.356 396.042 131.962 C 384.134 135.039 372.450 138.983 361.449 143.615 C 322.909 159.842 288.274 185.498 261.017 219.922 C 254.032 228.745 247.377 238.427 241.327 248.694 C 235.426 258.708 230.290 268.955 225.964 279.219 Z"/>
<path fill="#ffffff" fill-rule="evenodd" stroke="#000000" stroke-width="4" stroke-linecap="round" stroke-linejoin="round" d="M 214.172 440.595 C 210.770 427.434 208.427 413.999 207.140 400.040 C 240.178 425.027 279.585 442.109 322.482 448.401 C 324.165 456.043 326.461 463.855 329.297 471.457 C 337.845 494.368 348.718 514.586 363.231 533.268 C 376.152 549.902 392.211 565.276 411.999 579.732 C 418.766 584.677 426.456 589.802 434.676 594.826 C 462.770 611.994 493.951 618.196 523.712 622.802 C 469.657 636.237 411.799 632.668 359.344 609.778 C 349.202 605.354 339.957 600.646 330.903 595.310 C 324.264 591.398 317.869 587.232 311.221 582.473 C 261.997 547.243 228.586 496.374 214.172 440.595 Z"/>
<path fill="none" stroke="#ffffff" stroke-width="1" stroke-linecap="butt" stroke-linejoin="round" d="M 361.449 143.615 C 322.909 159.842 288.274 185.498 261.017 219.922 "/>
<path fill="#ffffff" fill-rule="evenodd" stroke="#000000" stroke-width="4" stroke-linecap="round" stroke-linejoin="round" d="M 329.118 132.189 C 340.345 135.305 351.358 139.194 361.449 143.615 C 322.909 159.842 288.274 185.498 261.017 219.922 C 255.542 218.526 250.204 217.363 244.827 216.460 C 221.175 212.485 198.649 211.743 176.415 214.675 C 154.268 217.596 132.422 223.904 109.382 234.090 C 102.042 237.333 93.758 241.430 85.298 246.036 C 56.383 261.782 35.421 285.684 16.552 309.156 C 31.582 256.884 62.467 209.581 107.888 174.918 C 116.605 168.265 126.398 161.787 136.764 155.924 C 143.472 152.131 150.277 148.675 157.160 145.552 C 212.845 120.283 273.605 116.784 329.118 132.189 Z"/>
<path fill="none" stroke="#ffffff" stroke-width="1" stroke-linecap="butt" stroke-linejoin="round" d="M 360.990 287.583 C 386.375 255.956 422.389 231.753 459.923 219.209 "/>
<path fill="none" stroke="#ffffff" stroke-width="1" stroke-linecap="butt" stroke-linejoin="round" d="M 411.999 579.732 C 392.211 565.276 376.152 549.902 363.231 533.268 "/>
<path fill="#ffffff" fill-rule="evenodd" stroke="#000000" stroke-width="4" stroke-linecap="round" stroke-linejoin="round" d="M 376.439 310.832 C 371.827 302.680 366.688 294.950 360.990 287.583 C 386.375 255.956 422.389 231.753 459.923 219.209 C 467.966 229.359 475.226 240.156 481.731 251.657 C 486.511 260.109 490.754 268.715 494.348 277.141 C 511.410 317.140 517.447 359.141 513.645 399.322 C 512.166 414.968 509.447 429.664 505.466 444.010 C 490.753 497.029 458.796 545.261 411.999 579.732 C 392.211 565.276 376.152 549.902 363.231 533.268 C 376.708 515.045 387.099 494.678 393.703 472.678 C 396.141 464.558 398.066 456.146 399.360 448.189 C 405.773 408.797 401.418 365.996 385.381 328.879 C 382.639 322.533 379.698 316.592 376.439 310.832 Z"/>
<path fill="none" stroke="#ffffff" stroke-width="1" stroke-linecap="butt" stroke-linejoin="round" d="M 311.221 582.473 C 317.869 587.232 324.264 591.398 330.903 595.310 "/>
<path fill="none" stroke="#ffffff" stroke-width="1" stroke-linecap="butt" stroke-linejoin="round" d="M 330.903 595.310 C 339.957 600.646 349.202 605.354 359.344 609.778 "/>
<path fill="#ffffff" fill-rule="evenodd" stroke="#000000" stroke-width="4" stroke-linecap="round" stroke-linejoin="round" d="M 284.703 597.978 C 293.819 593.390 302.517 588.305 311.221 582.473 C 317.869 587.232 324.264 591.398 330.903 595.310 C 339.957 600.646 349.202 605.354 359.344 609.778 C 306.663 632.194 248.845 635.146 196.299 620.475 C 226.418 618.931 256.354 612.244 284.703 597.978 Z"/>
<path fill="none" stroke="#000000" stroke-width="1" stroke-linecap="butt" stroke-linejoin="round" d="M 385.381 328.879 C 401.418 365.996 405.773 408.797 399.360 448.189 "/>
<path fill="none" stroke="#000000" stroke-width="1" stroke-linecap="butt" stroke-linejoin="round" d="M 322.482 448.401 C 279.585 442.109 240.178 425.027 207.140 400.040 "/>
<path fill="none" stroke="#000000" stroke-width="1" stroke-linecap="butt" stroke-linejoin="round" d="M 109.382 234.090 C 132.422 223.904 154.268 217.596 176.415 214.675 "/>
<path fill="none" stroke="#000000" stroke-width="1" stroke-linecap="butt" stroke-linejoin="round" d="M 225.964 279.219 C 255.644 304.678 294.894 323.163 335.656 328.675 "/>
<path fill="#000000" fill-rule="evenodd" stroke="#ffffff" stroke-width="4" stroke-linecap="round" stroke-linejoin="round" d="M 359.145 330.381 C 367.926 330.458 376.618 329.947 385.381 328.879 C 401.418 365.996 405.773 408.797 399.360 448.189 C 385.728 450.254 371.870 451.279 357.747 451.153 C 345.838 451.047 334.131 450.127 322.482 448.401 C 279.585 442.109 240.178 425.027 207.140 400.040 C 197.260 392.530 187.956 384.347 179.296 375.532 C 142.553 338.128 117.401 289.336 109.382 234.090 C 132.422 223.904 154.268 217.596 176.415 214.675 C 185.134 232.991 196.455 249.658 210.350 264.408 C 215.074 269.422 220.133 274.239 225.964 279.219 C 255.644 304.678 294.894 323.163 335.656 328.675 C 343.482 329.732 351.313 330.312 359.145 330.381 Z"/>
<path fill="none" stroke="#000000" stroke-width="1" stroke-linecap="butt" stroke-linejoin="round" d="M 513.645 399.322 C 517.447 359.141 511.410 317.140 494.348 277.141 "/>
<path fill="none" stroke="#000000" stroke-width="1" stroke-linecap="butt" stroke-linejoin="round" d="M 540.286 210.198 C 549.359 189.870 555.325 168.094 558.376 144.163 "/>
<path fill="none" stroke="#000000" stroke-width="1" stroke-linecap="butt" stroke-linejoin="round" d="M 612.026 175.193 C 612.878 183.551 613.212 191.863 613.137 200.270 "/>
<path fill="none" stroke="#000000" stroke-width="1" stroke-linecap="butt" stroke-linejoin="round" d="M 613.137 200.270 C 613.049 210.077 612.409 219.748 611.190 230.075 "/>
<path fill="#000000" fill-rule="evenodd" stroke="#ffffff" stroke-width="4" stroke-linecap="round" stroke-linejoin="round" d="M 537.515 378.720 C 530.127 385.978 522.294 392.784 513.645 399.322 C 517.447 359.141 511.410 317.140 494.348 277.141 C 498.824 272.609 502.875 268.197 506.680 263.587 C 520.769 246.521 531.994 228.909 540.286 210.198 C 549.359 189.870 555.325 168.094 558.376 144.163 C 559.744 133.167 560.542 122.199 560.831 110.643 C 561.652 77.728 551.433 47.624 540.541 19.547 C 580.569 61.057 606.848 115.211 612.026 175.193 C 612.878 183.551 613.212 191.863 613.137 200.270 C 613.049 210.077 612.409 219.748 611.190 230.075 C 604.103 287.627 577.228 339.708 537.515 378.720 Z"/>
<path fill="none" stroke="#000000" stroke-width="1" stroke-linecap="butt" stroke-linejoin="round" d="M 157.160 145.552 C 150.277 148.675 143.472 152.131 136.764 155.924 "/>
<path fill="none" stroke="#000000" stroke-width="1" stroke-linecap="butt" stroke-linejoin="round" d="M 136.764 155.924 C 126.398 161.787 116.605 168.265 107.888 174.918 "/>
<path fill="#000000" fill-rule="evenodd" stroke="#ffffff" stroke-width="4" stroke-linecap="round" stroke-linejoin="round" d="M 156.338 107.362 C 155.581 120.547 155.897 133.542 157.160 145.552 C 150.277 148.675 143.472 152.131 136.764 155.924 C 126.398 161.787 116.605 168.265 107.888 174.918 C 113.301 114.096 140.265 59.499 181.057 19.553 C 167.334 46.409 158.157 75.677 156.338 107.362 Z"/>
</g>
<g id="specs_2">
<path fill="#ff00ff" fill-rule="evenodd" stroke="none" d="M 260.795 423.444 C 260.815 423.444 459.185 423.444 459.205 423.444 C 459.205 423.424 459.205 225.054 459.205 225.035 C 459.185 225.035 260.815 225.035 260.795 225.035 C 260.795 225.054 260.795 423.424 260.795 423.444 Z"/>
<path fill="#ff0000" fill-rule="evenodd" stroke="none" d="M 360.000 678.034 C 360.001 678.037 372.432 712.843 372.433 712.847 C 372.432 712.845 360.001 701.279 360.000 701.278 C 359.999 701.279 347.568 712.845 347.567 712.847 C 347.568 712.843 359.999 678.037 360.000 678.034 Z"/>
<path fill="#0000ff" fill-rule="evenodd" stroke="none" d="M 360.000 130.162 C 360.001 130.164 367.221 150.382 367.222 150.384 C 367.221 150.384 360.001 143.665 360.000 143.665 C 359.999 143.665 352.779 150.384 352.778 150.384 C 352.779 150.382 359.999 130.164 360.000 130.162 Z"/>
<path fill="#be0027" fill-rule="evenodd" stroke="none" d="M 360.000 630.047 C 360.001 630.043 372.432 595.237 372.433 595.234 C 372.432 595.235 360.001 606.801 360.000 606.802 C 359.999 606.801 347.568 595.235 347.567 595.234 C 347.568 595.237 359.999 630.043 360.000 630.047 Z"/>
<path fill="#00ff00" fill-rule="evenodd" stroke="none" d="M 96.049 167.896 C 96.051 167.896 117.171 171.752 117.173 171.752 C 117.172 171.753 107.744 174.647 107.743 174.647 C 107.743 174.648 109.951 184.260 109.951 184.261 C 109.949 184.260 96.050 167.897 96.049 167.896 Z"/>
<path fill="#00ff00" fill-rule="evenodd" stroke="none" d="M 623.951 167.896 C 623.949 167.896 602.829 171.752 602.827 171.752 C 602.828 171.753 612.256 174.647 612.257 174.647 C 612.257 174.648 610.049 184.260 610.049 184.261 C 610.050 184.259 623.950 167.897 623.951 167.896 Z"/>
<path fill="#ffff00" fill-rule="evenodd" stroke="none" d="M 192.755 406.814 C 192.757 406.813 213.355 403.053 213.357 403.052 C 213.356 403.052 204.161 400.229 204.160 400.229 C 204.160 400.228 206.313 390.854 206.313 390.853 C 206.312 390.854 192.757 406.812 192.755 406.814 Z"/>
<path fill="#ffff00" fill-rule="evenodd" stroke="none" d="M 527.245 406.814 C 527.243 406.813 506.645 403.053 506.643 403.052 C 506.644 403.052 515.839 400.230 515.840 400.229 C 515.840 400.228 513.686 390.854 513.686 390.853 C 513.688 390.855 527.243 406.812 527.245 406.814 Z"/>
</g>
</g>
</svg>
