<?xml version="1.0" encoding="utf-8"?>
<!-- Generator: Moho 12.5 build 22414 -->
<!DOCTYPE svg PUBLIC "-//W3C//DTD SVG 1.1//EN" "http://www.w3.org/Graphics/SVG/1.1/DTD/svg11.dtd">
<svg version="1.1" id="Frame_0" xmlns="http://www.w3.org/2000/svg" xmlns:xlink="http://www.w3.org/1999/xlink" width="720px" height="720px">
<g id="crescent">
<g id="crescent">
<path fill="#ffffff" fill-rule="evenodd" stroke="#000000" stroke-width="4" stroke-linecap="round" stroke-linejoin="round" d="M 655.930 491.343 C 655.930 491.343 655.930 491.343 655.930 491.343 C 617.462 567.084 551.460 628.012 465.387 656.990 C 379.314 685.967 289.872 677.427 214.703 640.124 C 139.534 602.820 78.639 536.754 49.662 450.681 C 20.684 364.608 29.224 275.166 66.528 199.997 C 103.831 124.828 169.897 63.933 255.970 34.955 C 341.182 6.267 429.696 14.352 503.304 51.024 C 464.583 45.617 424.837 46.802 385.255 58.025 C 310.384 79.254 249.736 125.967 215.824 190.857 C 184.008 251.737 174.902 331.993 198.186 401.121 C 222.411 473.040 276.923 529.006 342.636 553.475 C 409.849 578.503 473.647 580.163 552.962 554.870 C 593.627 541.903 626.163 516.605 655.930 491.343 Z"/>
</g>
<g id="specs_2">
<path fill="#ff00ff" fill-rule="evenodd" stroke="none" d="M 263.193 503.109 C 263.230 503.109 637.616 503.109 637.653 503.109 C 637.653 503.072 637.653 128.686 637.653 128.649 C 637.616 128.649 263.230 128.649 263.193 128.649 C 263.193 128.686 263.193 503.072 263.193 503.109 Z"/>
<path fill="#ff0000" fill-rule="evenodd" stroke="none" d="M 360.000 678.754 C 360.001 678.758 372.432 713.564 372.433 713.567 C 372.432 713.566 360.001 702.000 360.000 701.999 C 359.999 702.000 347.568 713.566 347.567 713.567 C 347.568 713.564 359.999 678.758 360.000 678.754 Z"/>
<path fill="#0000ff" fill-rule="evenodd" stroke="none" d="M 360.000 2.959 C 360.001 2.961 367.221 23.180 367.222 23.182 C 367.221 23.181 360.001 16.463 360.000 16.462 C 359.999 16.463 352.779 23.181 352.778 23.182 C 352.779 23.180 359.999 2.961 360.000 2.959 Z"/>
<path fill="#00ff00" fill-rule="evenodd" stroke="none" d="M 18.920 346.192 C 18.922 346.192 39.104 338.869 39.106 338.868 C 39.105 338.869 32.423 346.124 32.423 346.124 C 32.423 346.125 39.178 353.312 39.179 353.312 C 39.177 353.312 18.922 346.193 18.920 346.192 Z"/>
<path fill="#ffff00" fill-rule="evenodd" stroke="none" d="M 118.365 588.689 C 118.366 588.687 127.326 569.178 127.327 569.176 C 127.327 569.177 127.799 579.028 127.799 579.029 C 127.800 579.029 137.660 579.268 137.661 579.268 C 137.659 579.269 118.367 588.688 118.365 588.689 Z"/>
<path fill="#ffff00" fill-rule="evenodd" stroke="none" d="M 602.961 588.450 C 602.960 588.448 593.610 569.122 593.609 569.120 C 593.609 569.121 593.334 578.981 593.334 578.982 C 593.333 578.982 583.480 579.418 583.479 579.418 C 583.481 579.419 602.959 588.449 602.961 588.450 Z"/>
<path fill="#00ff00" fill-rule="evenodd" stroke="none" d="M 199.746 346.192 C 199.744 346.192 179.563 338.869 179.561 338.868 C 179.562 338.869 186.243 346.124 186.244 346.124 C 186.243 346.125 179.489 353.312 179.488 353.312 C 179.490 353.312 199.744 346.193 199.746 346.192 Z"/>
<path fill="#00ffff" fill-rule="evenodd" stroke="none" d="M 244.878 162.942 C 244.876 162.943 225.106 171.313 225.104 171.314 C 225.104 171.313 231.397 163.718 231.397 163.717 C 231.397 163.717 224.275 156.894 224.275 156.893 C 224.277 156.893 244.876 162.942 244.878 162.942 Z"/>
<path fill="#00ffff" fill-rule="evenodd" stroke="none" d="M 118.750 103.574 C 118.751 103.576 127.252 123.291 127.253 123.293 C 127.253 123.292 127.956 113.454 127.956 113.453 C 127.957 113.453 137.819 113.445 137.820 113.445 C 137.818 113.444 118.752 103.575 118.750 103.574 Z"/>
</g>
</g>
</svg>
