<?xml version="1.0" encoding="utf-8"?>
<!-- Generator: Moho 12.5 build 22414 -->
<!DOCTYPE svg PUBLIC "-//W3C//DTD SVG 1.1//EN" "http://www.w3.org/Graphics/SVG/1.1/DTD/svg11.dtd">
<svg version="1.1" id="Frame_0" xmlns="http://www.w3.org/2000/svg" xmlns:xlink="http://www.w3.org/1999/xlink" width="720px" height="720px">
<g id="cross">
<g id="cross">
<path fill="#ffffff" fill-rule="evenodd" stroke="#000000" stroke-width="4" stroke-linecap="round" stroke-linejoin="round" d="M 46.144 279.148 C 46.170 279.148 199.024 279.148 302.919 279.148 C 302.935 175.237 302.935 22.382 302.935 22.357 C 302.947 22.357 417.053 22.357 417.065 22.357 C 417.065 22.382 417.065 193.931 417.142 279.148 C 502.281 279.148 673.830 279.148 673.856 279.148 C 673.856 279.159 673.856 393.266 673.856 393.278 C 673.830 393.278 502.282 393.277 417.147 393.277 C 417.065 497.188 417.065 650.043 417.065 650.069 C 417.053 650.069 302.947 650.069 302.935 650.069 C 302.935 650.043 302.935 478.494 302.924 393.277 C 199.024 393.277 46.170 393.277 46.144 393.277 C 46.144 393.266 46.144 279.159 46.144 279.148 Z"/>
</g>
<g id="specs_2">
<path fill="#ff00ff" fill-rule="evenodd" stroke="none" d="M 201.285 494.928 C 201.316 494.928 518.684 494.928 518.715 494.928 C 518.715 494.896 518.715 177.529 518.715 177.497 C 518.684 177.497 201.316 177.497 201.285 177.497 C 201.285 177.529 201.285 494.896 201.285 494.928 Z"/>
<path fill="#ff0000" fill-rule="evenodd" stroke="none" d="M 360.000 682.223 C 360.001 682.226 371.855 715.418 371.856 715.421 C 371.855 715.420 360.001 704.391 360.000 704.390 C 359.999 704.391 348.145 715.420 348.144 715.421 C 348.145 715.418 359.999 682.226 360.000 682.223 Z"/>
<path fill="#0000ff" fill-rule="evenodd" stroke="none" d="M 360.000 9.854 C 360.001 9.856 366.886 29.136 366.887 29.138 C 366.886 29.138 360.001 22.731 360.000 22.730 C 359.999 22.731 353.114 29.138 353.113 29.138 C 353.114 29.136 359.999 9.856 360.000 9.854 Z"/>
<path fill="#00ff00" fill-rule="evenodd" stroke="none" d="M 34.736 337.171 C 34.738 337.170 53.984 330.187 53.986 330.186 C 53.985 330.187 47.613 337.105 47.613 337.106 C 47.613 337.106 54.055 343.960 54.055 343.961 C 54.053 343.960 34.738 337.171 34.736 337.171 Z"/>
<path fill="#ffff00" fill-rule="evenodd" stroke="none" d="M 129.570 568.423 C 129.570 568.421 138.116 549.816 138.117 549.814 C 138.117 549.815 138.566 559.210 138.566 559.211 C 138.567 559.211 147.970 559.439 147.971 559.439 C 147.969 559.440 129.571 568.422 129.570 568.423 Z"/>
<path fill="#ffff00" fill-rule="evenodd" stroke="none" d="M 591.694 568.195 C 591.693 568.193 582.777 549.763 582.776 549.761 C 582.776 549.762 582.515 559.164 582.515 559.165 C 582.514 559.165 573.117 559.582 573.117 559.582 C 573.118 559.583 591.692 568.194 591.694 568.195 Z"/>
<path fill="#00ff00" fill-rule="evenodd" stroke="none" d="M 686.261 337.171 C 686.259 337.170 667.014 330.187 667.012 330.186 C 667.012 330.187 673.384 337.105 673.385 337.106 C 673.384 337.106 666.943 343.960 666.942 343.961 C 666.944 343.960 686.259 337.171 686.261 337.171 Z"/>
<path fill="#00ffff" fill-rule="evenodd" stroke="none" d="M 590.169 105.163 C 590.169 105.165 583.334 124.464 583.333 124.466 C 583.333 124.465 582.039 115.149 582.039 115.148 C 582.038 115.148 572.653 115.768 572.652 115.768 C 572.654 115.767 590.167 105.164 590.169 105.163 Z"/>
<path fill="#00ffff" fill-rule="evenodd" stroke="none" d="M 129.937 105.803 C 129.938 105.805 138.045 124.605 138.045 124.607 C 138.045 124.606 138.716 115.224 138.716 115.223 C 138.717 115.223 148.122 115.216 148.123 115.216 C 148.121 115.215 129.939 105.804 129.937 105.803 Z"/>
<path fill="#be0027" fill-rule="evenodd" stroke="none" d="M 360.000 669.659 C 360.001 669.656 371.855 636.464 371.856 636.460 C 371.855 636.461 360.001 647.491 360.000 647.492 C 359.999 647.491 348.145 636.461 348.144 636.460 C 348.145 636.464 359.999 669.656 360.000 669.659 Z"/>
</g>
</g>
</svg>
