<?xml version="1.0" encoding="utf-8"?>
<!-- Generator: Moho 12.5 build 22414 -->
<!DOCTYPE svg PUBLIC "-//W3C//DTD SVG 1.1//EN" "http://www.w3.org/Graphics/SVG/1.1/DTD/svg11.dtd">
<svg version="1.1" id="Frame_0" xmlns="http://www.w3.org/2000/svg" xmlns:xlink="http://www.w3.org/1999/xlink" width="720px" height="720px">
<g id="cross_tall">
<g id="cross_tall">
<path fill="#000000" fill-rule="evenodd" stroke="#ffffff" stroke-width="4" stroke-linecap="round" stroke-linejoin="round" d="M 143.752 192.899 C 143.769 192.899 249.087 192.899 320.671 192.899 C 320.682 120.817 320.682 15.986 320.682 15.969 C 320.690 15.969 399.310 15.969 399.318 15.969 C 399.318 15.986 399.318 131.825 399.371 192.899 C 458.033 192.899 576.231 192.899 576.248 192.899 C 576.248 192.907 576.248 271.527 576.248 271.535 C 576.231 271.535 458.033 271.535 399.374 271.535 C 399.316 432.423 399.318 703.988 399.318 704.031 C 399.310 704.031 320.690 704.031 320.682 704.031 C 320.682 703.988 320.682 414.602 320.674 271.535 C 249.087 271.535 143.769 271.535 143.752 271.535 C 143.752 271.527 143.752 192.907 143.752 192.899 Z"/>
</g>
<g id="specs_2">
<path fill="#ff00ff" fill-rule="evenodd" stroke="none" d="M 232.962 359.963 C 232.987 359.963 487.346 359.963 487.371 359.963 C 487.371 359.938 487.371 105.578 487.371 105.553 C 487.346 105.553 232.987 105.553 232.962 105.553 C 232.962 105.578 232.962 359.938 232.962 359.963 Z"/>
<path fill="#ff0000" fill-rule="evenodd" stroke="none" d="M 360.167 687.522 C 360.168 687.525 368.413 710.614 368.414 710.616 C 368.413 710.615 360.168 702.943 360.167 702.942 C 360.166 702.943 351.920 710.615 351.919 710.616 C 351.920 710.614 360.166 687.525 360.167 687.522 Z"/>
<path fill="#0000ff" fill-rule="evenodd" stroke="none" d="M 360.167 5.735 C 360.167 5.736 364.957 19.148 364.957 19.150 C 364.957 19.149 360.167 14.693 360.167 14.692 C 360.166 14.693 355.376 19.149 355.376 19.150 C 355.376 19.148 360.166 5.736 360.167 5.735 Z"/>
<path fill="#00ff00" fill-rule="evenodd" stroke="none" d="M 133.906 233.424 C 133.907 233.424 147.294 228.566 147.296 228.566 C 147.295 228.566 142.863 233.379 142.863 233.379 C 142.863 233.380 147.344 238.147 147.344 238.148 C 147.343 238.147 133.907 233.425 133.906 233.424 Z"/>
<path fill="#ffff00" fill-rule="evenodd" stroke="none" d="M 199.874 394.289 C 199.874 394.287 205.818 381.345 205.819 381.344 C 205.819 381.345 206.132 387.880 206.132 387.881 C 206.133 387.881 212.673 388.040 212.674 388.040 C 212.673 388.040 199.875 394.288 199.874 394.289 Z"/>
<path fill="#ffff00" fill-rule="evenodd" stroke="none" d="M 521.339 394.130 C 521.338 394.129 515.135 381.309 515.135 381.307 C 515.135 381.308 514.953 387.849 514.953 387.849 C 514.952 387.849 508.416 388.139 508.415 388.139 C 508.417 388.140 521.337 394.130 521.339 394.130 Z"/>
<path fill="#00ff00" fill-rule="evenodd" stroke="none" d="M 587.121 233.424 C 587.120 233.424 573.733 228.566 573.731 228.566 C 573.732 228.566 578.164 233.379 578.164 233.379 C 578.164 233.380 573.683 238.147 573.683 238.148 C 573.684 238.147 587.120 233.425 587.121 233.424 Z"/>
<path fill="#00ffff" fill-rule="evenodd" stroke="none" d="M 520.278 72.034 C 520.277 72.036 515.523 85.461 515.522 85.462 C 515.522 85.461 514.622 78.981 514.622 78.980 C 514.621 78.980 508.093 79.411 508.092 79.411 C 508.093 79.411 520.277 72.035 520.278 72.034 Z"/>
<path fill="#00ffff" fill-rule="evenodd" stroke="none" d="M 200.130 72.480 C 200.130 72.481 205.769 85.559 205.770 85.560 C 205.770 85.559 206.236 79.033 206.236 79.033 C 206.236 79.033 212.779 79.027 212.780 79.027 C 212.778 79.027 200.131 72.480 200.130 72.480 Z"/>
<path fill="#be0027" fill-rule="evenodd" stroke="none" d="M 360.167 711.917 C 360.168 711.914 368.413 688.825 368.414 688.823 C 368.413 688.824 360.168 696.496 360.167 696.497 C 360.166 696.496 351.920 688.824 351.919 688.823 C 351.920 688.825 360.166 711.914 360.167 711.917 Z"/>
</g>
</g>
</svg>
