<?xml version="1.0" encoding="utf-8"?>
<!-- Generator: Moho 12.5 build 22414 -->
<!DOCTYPE svg PUBLIC "-//W3C//DTD SVG 1.1//EN" "http://www.w3.org/Graphics/SVG/1.1/DTD/svg11.dtd">
<svg version="1.1" id="Frame_0" xmlns="http://www.w3.org/2000/svg" xmlns:xlink="http://www.w3.org/1999/xlink" width="720px" height="720px">
<g id="cross">
<g id="cross">
<path fill="#ffffff" fill-rule="evenodd" stroke="#000000" stroke-width="4" stroke-linecap="round" stroke-linejoin="round" d="M 46.144 279.148 C 46.170 279.148 199.024 279.148 302.919 279.148 C 302.935 175.238 302.935 22.383 302.935 22.357 C 302.947 22.357 417.053 22.357 417.065 22.357 C 417.065 22.383 417.065 193.931 417.142 279.148 C 502.281 279.148 673.830 279.148 673.856 279.148 C 673.856 279.160 673.856 393.266 673.856 393.278 C 673.830 393.278 502.282 393.278 417.147 393.278 C 417.065 497.188 417.065 650.043 417.065 650.069 C 417.053 650.069 302.947 650.069 302.935 650.069 C 302.935 650.043 302.935 478.494 302.924 393.278 C 199.024 393.278 46.170 393.278 46.144 393.278 C 46.144 393.266 46.144 279.160 46.144 279.148 Z"/>
</g>
<g id="specs_2">
<path fill="#ff00ff" fill-rule="evenodd" stroke="none" d="M 201.285 494.928 C 201.316 494.928 518.684 494.928 518.715 494.928 C 518.715 494.897 518.715 177.529 518.715 177.498 C 518.684 177.498 201.316 177.498 201.285 177.498 C 201.285 177.529 201.285 494.897 201.285 494.928 Z"/>
<path fill="#ff0000" fill-rule="evenodd" stroke="none" d="M 360.000 682.223 C 360.001 682.226 371.855 715.418 371.856 715.421 C 371.855 715.420 360.001 704.391 360.000 704.390 C 359.999 704.391 348.145 715.420 348.144 715.421 C 348.145 715.418 359.999 682.226 360.000 682.223 Z"/>
<path fill="#0000ff" fill-rule="evenodd" stroke="none" d="M 360.000 9.854 C 360.001 9.856 366.886 29.137 366.887 29.138 C 366.886 29.138 360.001 22.731 360.000 22.731 C 359.999 22.731 353.114 29.138 353.113 29.138 C 353.114 29.137 359.999 9.856 360.000 9.854 Z"/>
<path fill="#00ff00" fill-rule="evenodd" stroke="none" d="M 34.238 337.170 C 34.240 337.169 53.485 330.186 53.487 330.185 C 53.487 330.186 47.115 337.104 47.114 337.105 C 47.115 337.105 53.556 343.959 53.557 343.960 C 53.555 343.959 34.240 337.170 34.238 337.170 Z"/>
<path fill="#ffff00" fill-rule="evenodd" stroke="none" d="M 128.938 568.421 C 128.939 568.419 137.484 549.814 137.485 549.812 C 137.485 549.813 137.935 559.208 137.935 559.209 C 137.936 559.209 147.338 559.437 147.339 559.437 C 147.337 559.438 128.940 568.420 128.938 568.421 Z"/>
<path fill="#ffff00" fill-rule="evenodd" stroke="none" d="M 591.062 568.193 C 591.061 568.191 582.145 549.761 582.144 549.759 C 582.144 549.760 581.883 559.162 581.883 559.163 C 581.882 559.163 572.485 559.580 572.485 559.580 C 572.486 559.581 591.060 568.192 591.062 568.193 Z"/>
<path fill="#00ff00" fill-rule="evenodd" stroke="none" d="M 685.762 337.170 C 685.760 337.169 666.515 330.186 666.513 330.185 C 666.513 330.186 672.885 337.104 672.886 337.105 C 672.885 337.105 666.444 343.959 666.443 343.960 C 666.445 343.959 685.760 337.170 685.762 337.170 Z"/>
<path fill="#00ffff" fill-rule="evenodd" stroke="none" d="M 590.169 105.164 C 590.168 105.165 583.334 124.464 583.333 124.466 C 583.333 124.465 582.039 115.149 582.038 115.148 C 582.037 115.148 572.653 115.768 572.652 115.768 C 572.654 115.767 590.167 105.165 590.169 105.164 Z"/>
<path fill="#00ffff" fill-rule="evenodd" stroke="none" d="M 129.937 105.803 C 129.938 105.805 138.045 124.605 138.045 124.607 C 138.046 124.606 138.716 115.225 138.716 115.224 C 138.717 115.224 148.122 115.216 148.123 115.216 C 148.121 115.215 129.939 105.804 129.937 105.803 Z"/>
<path fill="#be0027" fill-rule="evenodd" stroke="none" d="M 360.000 669.659 C 360.001 669.656 371.855 636.464 371.856 636.461 C 371.855 636.462 360.001 647.491 360.000 647.492 C 359.999 647.491 348.145 636.462 348.144 636.461 C 348.145 636.464 359.999 669.656 360.000 669.659 Z"/>
</g>
</g>
</svg>
