<?xml version="1.0" encoding="utf-8"?>
<!-- Generator: Moho 13.0.3 build 635 -->
<!DOCTYPE svg PUBLIC "-//W3C//DTD SVG 1.1//EN" "http://www.w3.org/Graphics/SVG/1.1/DTD/svg11.dtd">
<svg version="1.1" id="Frame_0" xmlns="http://www.w3.org/2000/svg" xmlns:xlink="http://www.w3.org/1999/xlink" width="720px" height="720px">
<g id="crown">
<g id="crown">
<path fill="none" stroke="#000000" stroke-width="3" stroke-linecap="round" stroke-linejoin="round" d="M 33.579 533.652 C 33.611 533.649 97.665 500.170 360.000 500.170 C 564.266 500.171 686.388 533.649 686.421 533.652 C 686.451 533.677 640.172 568.260 360.000 568.260 C 79.828 568.260 33.611 533.656 33.579 533.652 C 33.576 533.617 9.131 181.375 9.135 181.340 C 9.143 181.355 211.790 341.134 211.795 341.147 C 211.813 341.125 359.982 93.818 360.000 93.795 C 360.003 93.814 508.204 342.289 508.205 342.304 C 508.228 342.291 710.844 181.357 710.865 181.340 C 710.862 181.376 686.149 533.428 686.421 533.652 "/>
<path fill="#ffffff" fill-rule="evenodd" stroke="#000000" stroke-width="8" stroke-linecap="round" stroke-linejoin="round" d="M 9.135 181.340 C 9.143 181.355 211.790 341.134 211.795 341.147 C 211.813 341.125 359.982 93.818 360.000 93.795 C 360.003 93.814 508.204 342.289 508.205 342.304 C 508.228 342.291 710.844 181.357 710.865 181.340 C 710.862 181.376 686.149 533.428 686.421 533.652 C 686.451 533.677 640.172 568.260 360.000 568.260 C 79.828 568.260 33.611 533.656 33.579 533.652 C 33.576 533.617 9.131 181.375 9.135 181.340 Z"/>
<path fill="#000000" fill-rule="evenodd" stroke="none" d="M 359.712 500.341 C 541.816 501.146 651.131 525.543 651.160 525.545 C 651.185 525.568 609.112 546.598 360.139 545.462 C 110.967 544.326 69.109 522.873 69.080 522.871 C 69.109 522.869 126.664 499.310 359.712 500.341 Z"/>
<path fill="none" stroke="#000000" stroke-width="8" stroke-linecap="round" stroke-linejoin="round" d="M 33.579 533.652 C 33.611 533.649 97.665 500.170 360.000 500.170 C 564.266 500.171 686.388 533.649 686.421 533.652 "/>
</g>
<g id="specs">
<path fill="#ff0000" fill-rule="evenodd" stroke="none" d="M 360.000 554.311 C 367.452 554.311 373.464 560.323 373.464 567.775 C 373.464 575.227 367.452 581.239 360.000 581.239 C 352.548 581.239 346.536 575.227 346.536 567.775 C 346.536 560.323 352.548 554.311 360.000 554.311 Z"/>
<path fill="#ffff00" fill-rule="evenodd" stroke="none" d="M 587.147 555.625 C 587.147 548.173 593.159 542.161 600.611 542.161 C 608.063 542.161 614.075 548.173 614.075 555.625 C 614.075 563.077 608.063 569.089 600.611 569.089 C 593.159 569.089 587.147 563.077 587.147 555.625 M 112.874 555.625 C 112.874 548.173 118.886 542.161 126.338 542.161 C 133.790 542.161 139.801 548.173 139.801 555.625 C 139.801 563.077 133.790 569.089 126.338 569.089 C 118.886 569.089 112.874 563.077 112.874 555.625 Z"/>
<path fill="#00ff00" fill-rule="evenodd" stroke="none" d="M 682.697 384.505 C 682.697 377.053 688.709 371.041 696.161 371.041 C 703.613 371.041 709.624 377.053 709.624 384.505 C 709.624 391.957 703.613 397.969 696.161 397.969 C 688.709 397.969 682.697 391.957 682.697 384.505 M 10.376 384.505 C 10.376 377.053 16.387 371.041 23.839 371.041 C 31.291 371.041 37.303 377.053 37.303 384.505 C 37.303 391.957 31.291 397.969 23.839 397.969 C 16.387 397.969 10.376 391.957 10.376 384.505 Z"/>
<path fill="#00ffff" fill-rule="evenodd" stroke="none" d="M 428.188 231.625 C 428.188 224.173 434.199 218.161 441.652 218.161 C 449.104 218.161 455.115 224.173 455.115 231.625 C 455.115 239.077 449.104 245.089 441.652 245.089 C 434.199 245.089 428.188 239.077 428.188 231.625 M 265.392 227.291 C 265.392 219.839 271.404 213.827 278.856 213.827 C 286.308 213.827 292.320 219.839 292.320 227.291 C 292.320 234.743 286.308 240.755 278.856 240.755 C 271.404 240.755 265.392 234.743 265.392 227.291 Z"/>
<path fill="#0000ff" fill-rule="evenodd" stroke="none" d="M 360.000 81.786 C 367.452 81.786 373.464 87.798 373.464 95.250 C 373.464 102.702 367.452 108.714 360.000 108.714 C 352.548 108.714 346.536 102.702 346.536 95.250 C 346.536 87.798 352.548 81.786 360.000 81.786 Z"/>
<path fill="#ff00ff" fill-rule="evenodd" stroke="none" d="M 66.902 344.979 C 66.961 344.979 653.039 344.979 653.098 344.979 C 653.098 344.993 653.098 492.632 653.098 492.646 C 653.039 492.646 66.961 492.646 66.902 492.646 C 66.902 492.632 66.902 344.993 66.902 344.979 Z"/>
</g>
</g>
</svg>
