<?xml version="1.0" encoding="utf-8"?>
<!-- Generator: Moho 12.3 build 22017 -->
<!DOCTYPE svg PUBLIC "-//W3C//DTD SVG 1.1//EN" "http://www.w3.org/Graphics/SVG/1.1/DTD/svg11.dtd">
<svg version="1.1" id="Frame_0" xmlns="http://www.w3.org/2000/svg" xmlns:xlink="http://www.w3.org/1999/xlink" width="720px" height="720px">
<g id="crown">
<g id="crown">
<path fill="none" stroke="#000000" stroke-width="3" stroke-linecap="round" stroke-linejoin="round" d="M 32.399 563.090 C 32.431 563.087 96.716 529.486 360.000 529.487 C 565.004 529.488 687.569 563.087 687.601 563.090 C 687.631 563.114 641.185 597.822 360.000 597.822 C 78.815 597.822 32.431 563.093 32.399 563.090 C 32.396 563.055 7.862 209.539 7.867 209.504 C 7.874 209.519 211.254 369.876 211.259 369.889 C 211.278 369.866 359.982 121.665 360.000 121.642 C 360.003 121.661 508.740 371.035 508.741 371.050 C 508.763 371.037 712.113 209.521 712.133 209.504 C 712.131 209.540 687.328 562.865 687.601 563.090 "/>
<path fill="#ffffff" fill-rule="evenodd" stroke="#000000" stroke-width="8" stroke-linecap="round" stroke-linejoin="round" d="M 7.867 209.504 C 7.874 209.519 211.254 369.876 211.259 369.889 C 211.278 369.866 359.982 121.665 360.000 121.642 C 360.003 121.661 508.740 371.035 508.741 371.050 C 508.763 371.037 712.113 209.521 712.133 209.504 C 712.131 209.540 687.328 562.865 687.601 563.090 C 687.631 563.114 641.185 597.822 360.000 597.822 C 78.815 597.822 32.431 563.093 32.399 563.090 C 32.396 563.055 7.862 209.539 7.867 209.504 Z"/>
<path fill="#000000" fill-rule="evenodd" stroke="none" d="M 359.711 529.658 C 542.473 530.466 652.183 554.951 652.212 554.954 C 652.238 554.977 610.013 576.082 360.140 574.943 C 110.066 573.803 68.057 552.272 68.028 552.270 C 68.057 552.268 125.820 528.623 359.711 529.658 Z"/>
<path fill="none" stroke="#000000" stroke-width="8" stroke-linecap="round" stroke-linejoin="round" d="M 32.399 563.090 C 32.431 563.087 96.716 529.486 360.000 529.487 C 565.004 529.488 687.569 563.087 687.601 563.090 "/>
</g>
<g id="arrows">
<path fill="#ff00ff" fill-rule="evenodd" stroke="none" d="M 223.473 511.257 C 223.500 511.257 496.500 511.257 496.527 511.257 C 496.527 511.242 496.527 367.405 496.527 367.391 C 496.500 367.391 223.500 367.391 223.473 367.391 C 223.473 367.405 223.473 511.242 223.473 511.257 Z"/>
<path fill="#ff0000" fill-rule="evenodd" stroke="none" d="M 360.000 569.297 C 360.002 569.301 374.936 611.119 374.938 611.123 C 374.936 611.121 360.002 597.225 360.000 597.224 C 359.999 597.225 345.064 611.121 345.062 611.123 C 345.064 611.119 359.999 569.301 360.000 569.297 Z"/>
<path fill="#0000ff" fill-rule="evenodd" stroke="none" d="M 360.000 64.423 C 360.001 64.426 368.676 88.717 368.677 88.719 C 368.676 88.718 360.001 80.647 360.000 80.646 C 359.999 80.647 351.324 88.718 351.323 88.719 C 351.324 88.717 359.999 64.426 360.000 64.423 Z"/>
<path fill="#00ffff" fill-rule="evenodd" stroke="none" d="M 2.093 249.147 C 2.094 249.149 14.163 272.642 14.164 272.644 C 14.164 272.643 14.211 260.510 14.211 260.508 C 14.212 260.508 26.317 259.681 26.318 259.681 C 26.316 259.680 2.096 249.148 2.093 249.147 Z"/>
<path fill="#00ff00" fill-rule="evenodd" stroke="none" d="M 12.082 453.729 C 12.084 453.729 37.520 449.446 37.522 449.445 C 37.521 449.446 28.054 456.572 28.053 456.573 C 28.054 456.574 34.479 466.530 34.480 466.531 C 34.477 466.529 12.084 453.730 12.082 453.729 Z"/>
<path fill="#ffff00" fill-rule="evenodd" stroke="none" d="M 118.833 595.269 C 118.833 595.266 126.039 570.500 126.040 570.497 C 126.040 570.499 128.339 582.123 128.340 582.124 C 128.341 582.124 140.100 580.668 140.101 580.668 C 140.099 580.669 118.835 595.268 118.833 595.269 Z"/>
<path fill="#00ffff" fill-rule="evenodd" stroke="none" d="M 716.939 249.147 C 716.938 249.149 704.869 272.642 704.868 272.644 C 704.868 272.643 704.821 260.510 704.821 260.508 C 704.820 260.508 692.715 259.681 692.714 259.681 C 692.716 259.680 716.936 249.148 716.939 249.147 Z"/>
<path fill="#00ff00" fill-rule="evenodd" stroke="none" d="M 708.231 453.729 C 708.228 453.729 682.793 449.446 682.790 449.445 C 682.791 449.446 692.259 456.572 692.260 456.573 C 692.259 456.574 685.834 466.530 685.833 466.531 C 685.835 466.529 708.229 453.730 708.231 453.729 Z"/>
<path fill="#ffff00" fill-rule="evenodd" stroke="none" d="M 620.077 595.269 C 620.077 595.267 612.871 570.500 612.870 570.497 C 612.870 570.499 610.571 582.123 610.571 582.124 C 610.569 582.124 598.810 580.668 598.809 580.668 C 598.811 580.669 620.075 595.268 620.077 595.269 Z"/>
</g>
</g>
</svg>
