<?xml version="1.0" encoding="utf-8"?>
<!-- Generator: Moho 13.0.3 build 635 -->
<!DOCTYPE svg PUBLIC "-//W3C//DTD SVG 1.1//EN" "http://www.w3.org/Graphics/SVG/1.1/DTD/svg11.dtd">
<svg version="1.1" id="Frame_0" xmlns="http://www.w3.org/2000/svg" xmlns:xlink="http://www.w3.org/1999/xlink" width="1280px" height="720px">
<g id="crown">
<path fill="none" stroke="#000000" stroke-width="4" stroke-linecap="round" stroke-linejoin="round" d="M 544.119 349.835 C 544.128 349.834 601.152 341.549 640.422 341.567 C 679.350 341.585 704.062 347.079 735.881 349.835 C 735.872 349.836 685.414 358.558 642.014 358.658 C 596.767 358.762 544.128 349.836 544.119 349.835 C 544.117 349.828 526.264 281.958 526.262 281.952 C 526.267 281.955 569.630 319.496 569.635 319.500 C 569.636 319.495 583.130 271.345 583.131 271.340 C 583.134 271.344 614.714 310.517 614.717 310.521 C 614.720 310.515 639.997 250.940 640.000 250.934 C 640.003 250.940 665.280 310.515 665.283 310.521 C 665.286 310.517 696.866 271.344 696.869 271.340 C 696.870 271.345 710.364 319.495 710.365 319.500 C 710.370 319.496 753.733 281.955 753.738 281.952 C 753.736 281.958 735.883 349.828 735.881 349.835 "/>
</g>
</svg>
