<?xml version="1.0" encoding="utf-8"?>
<!-- Generator: Moho 12.5 build 22414 -->
<!DOCTYPE svg PUBLIC "-//W3C//DTD SVG 1.1//EN" "http://www.w3.org/Graphics/SVG/1.1/DTD/svg11.dtd">
<svg version="1.1" id="Frame_0" xmlns="http://www.w3.org/2000/svg" xmlns:xlink="http://www.w3.org/1999/xlink" width="720px" height="720px">
<g id="crown">
<g id="crown">
<path fill="none" stroke="#000000" stroke-width="4" stroke-linecap="round" stroke-linejoin="round" d="M 33.471 563.090 C 33.504 563.087 97.789 529.486 361.072 529.487 C 566.076 529.488 688.641 563.087 688.674 563.090 C 688.703 563.114 642.257 597.822 361.072 597.822 C 79.888 597.822 33.504 563.093 33.471 563.090 C 33.469 563.055 8.935 209.540 8.939 209.504 C 8.947 209.519 212.326 369.876 212.331 369.889 C 212.350 369.866 361.055 121.665 361.072 121.643 C 361.075 121.661 509.812 371.035 509.813 371.050 C 509.836 371.037 713.185 209.521 713.205 209.504 C 713.203 209.540 688.400 562.865 688.674 563.090 "/>
<path fill="#ffffff" fill-rule="evenodd" stroke="#000000" stroke-width="4" stroke-linecap="round" stroke-linejoin="round" d="M 8.939 209.504 C 8.947 209.519 212.326 369.876 212.331 369.889 C 212.350 369.866 361.055 121.665 361.072 121.643 C 361.075 121.661 509.812 371.035 509.813 371.050 C 509.836 371.037 713.185 209.521 713.205 209.504 C 713.203 209.540 688.400 562.865 688.674 563.090 C 688.703 563.114 642.257 597.822 361.072 597.822 C 79.888 597.822 33.504 563.093 33.471 563.090 C 33.469 563.055 8.935 209.540 8.939 209.504 Z"/>
<path fill="#000000" fill-rule="evenodd" stroke="none" d="M 360.784 529.658 C 543.546 530.466 653.255 554.951 653.285 554.954 C 653.310 554.977 611.085 576.082 361.212 574.943 C 111.139 573.802 69.130 552.272 69.101 552.270 C 69.130 552.268 126.893 528.623 360.784 529.658 Z"/>
<path fill="none" stroke="#000000" stroke-width="4" stroke-linecap="round" stroke-linejoin="round" d="M 33.471 563.090 C 33.504 563.087 97.789 529.486 361.072 529.487 C 566.076 529.488 688.641 563.087 688.674 563.090 "/>
</g>
<g id="specs">
<path fill="#ff00ff" fill-rule="evenodd" stroke="none" d="M 224.545 511.257 C 224.572 511.257 497.572 511.257 497.600 511.257 C 497.600 511.242 497.600 367.405 497.600 367.391 C 497.572 367.391 224.572 367.391 224.545 367.391 C 224.545 367.405 224.545 511.242 224.545 511.257 Z"/>
<path fill="#ff0000" fill-rule="evenodd" stroke="none" d="M 361.072 569.297 C 361.074 569.301 376.008 611.119 376.010 611.123 C 376.008 611.121 361.074 597.225 361.072 597.224 C 361.071 597.225 346.136 611.121 346.135 611.123 C 346.136 611.119 361.071 569.301 361.072 569.297 Z"/>
<path fill="#0000ff" fill-rule="evenodd" stroke="none" d="M 361.072 64.424 C 361.073 64.426 369.749 88.717 369.749 88.719 C 369.749 88.718 361.073 80.647 361.072 80.646 C 361.071 80.647 352.396 88.718 352.395 88.719 C 352.396 88.717 361.071 64.426 361.072 64.424 Z"/>
<path fill="#00ffff" fill-rule="evenodd" stroke="none" d="M 3.165 249.147 C 3.167 249.149 15.235 272.642 15.236 272.644 C 15.236 272.643 15.283 260.510 15.283 260.508 C 15.284 260.508 27.389 259.681 27.391 259.681 C 27.388 259.680 3.168 249.148 3.165 249.147 Z"/>
<path fill="#00ff00" fill-rule="evenodd" stroke="none" d="M 13.154 453.729 C 13.157 453.728 38.592 449.446 38.595 449.445 C 38.594 449.446 29.126 456.572 29.125 456.573 C 29.126 456.574 35.551 466.530 35.552 466.530 C 35.550 466.529 13.156 453.730 13.154 453.729 Z"/>
<path fill="#ffff00" fill-rule="evenodd" stroke="none" d="M 119.905 595.269 C 119.906 595.266 127.112 570.500 127.112 570.497 C 127.113 570.499 129.412 582.123 129.412 582.124 C 129.413 582.124 141.173 580.668 141.174 580.668 C 141.172 580.669 119.907 595.267 119.905 595.269 Z"/>
<path fill="#00ffff" fill-rule="evenodd" stroke="none" d="M 718.011 249.147 C 718.010 249.149 705.941 272.642 705.940 272.644 C 705.940 272.643 705.893 260.510 705.893 260.508 C 705.892 260.508 693.787 259.681 693.786 259.681 C 693.788 259.680 718.009 249.148 718.011 249.147 Z"/>
<path fill="#00ff00" fill-rule="evenodd" stroke="none" d="M 709.303 453.729 C 709.301 453.728 683.865 449.446 683.863 449.445 C 683.864 449.446 693.331 456.572 693.332 456.573 C 693.331 456.574 686.906 466.530 686.905 466.530 C 686.907 466.529 709.301 453.730 709.303 453.729 Z"/>
<path fill="#ffff00" fill-rule="evenodd" stroke="none" d="M 621.150 595.269 C 621.149 595.266 613.943 570.500 613.942 570.497 C 613.942 570.499 611.643 582.123 611.643 582.124 C 611.642 582.124 599.882 580.668 599.881 580.668 C 599.883 580.669 621.148 595.267 621.150 595.269 Z"/>
</g>
</g>
</svg>
