<?xml version="1.0" encoding="utf-8"?>
<!-- Generator: Moho 12.5 build 22414 -->
<!DOCTYPE svg PUBLIC "-//W3C//DTD SVG 1.1//EN" "http://www.w3.org/Graphics/SVG/1.1/DTD/svg11.dtd">
<svg version="1.1" id="Frame_0" xmlns="http://www.w3.org/2000/svg" xmlns:xlink="http://www.w3.org/1999/xlink" width="720px" height="720px">
<g id="crown">
<g id="crown">
<path fill="none" stroke="#000000" stroke-width="4" stroke-linecap="round" stroke-linejoin="round" d="M 50.305 459.012 C 50.336 459.008 111.107 427.245 360.000 427.245 C 553.799 427.246 669.664 459.008 669.695 459.012 C 669.723 459.035 625.815 491.846 360.000 491.846 C 94.185 491.846 50.336 459.015 50.305 459.012 C 50.303 458.978 27.110 124.786 27.115 124.753 C 27.121 124.767 219.384 276.358 219.389 276.371 C 219.407 276.350 359.983 41.715 360.000 41.694 C 360.003 41.711 500.610 277.455 500.611 277.468 C 500.632 277.456 692.866 124.768 692.885 124.753 C 692.883 124.786 669.436 458.799 669.695 459.012 "/>
<path fill="#ffffff" fill-rule="evenodd" stroke="#000000" stroke-width="4" stroke-linecap="round" stroke-linejoin="round" d="M 27.115 124.753 C 27.121 124.767 219.384 276.358 219.389 276.371 C 219.407 276.350 359.983 41.715 360.000 41.694 C 360.003 41.711 500.610 277.455 500.611 277.468 C 500.632 277.456 692.866 124.768 692.885 124.753 C 692.883 124.786 669.436 458.799 669.695 459.012 C 669.723 459.035 625.815 491.846 360.000 491.846 C 94.185 491.846 50.336 459.015 50.305 459.012 C 50.303 458.978 27.110 124.786 27.115 124.753 Z"/>
<path fill="#000000" fill-rule="evenodd" stroke="none" d="M 359.727 427.407 C 532.499 428.171 636.213 451.318 636.240 451.320 C 636.264 451.342 596.347 471.294 360.132 470.217 C 123.728 469.139 84.015 448.785 83.987 448.783 C 84.015 448.781 138.621 426.429 359.727 427.407 Z"/>
<path fill="none" stroke="#000000" stroke-width="4" stroke-linecap="round" stroke-linejoin="round" d="M 50.305 459.012 C 50.336 459.008 111.107 427.245 360.000 427.245 C 553.799 427.246 669.664 459.008 669.695 459.012 "/>
</g>
<g id="specs">
<path fill="#ff00ff" fill-rule="evenodd" stroke="none" d="M 197.046 449.848 C 197.078 449.848 522.922 449.848 522.954 449.848 C 522.954 449.820 522.954 170.904 522.954 170.876 C 522.922 170.876 197.078 170.876 197.046 170.876 C 197.046 170.904 197.046 449.820 197.046 449.848 Z"/>
<path fill="#ff0000" fill-rule="evenodd" stroke="none" d="M 360.000 656.350 C 360.001 656.354 374.120 695.885 374.121 695.890 C 374.120 695.888 360.001 682.752 360.000 682.750 C 359.999 682.752 345.880 695.888 345.879 695.890 C 345.880 695.885 359.999 656.354 360.000 656.350 Z"/>
<path fill="#0000ff" fill-rule="evenodd" stroke="none" d="M 360.000 25.790 C 360.001 25.792 368.202 48.755 368.203 48.758 C 368.202 48.757 360.001 41.126 360.000 41.125 C 359.999 41.126 351.798 48.757 351.797 48.758 C 351.798 48.755 359.999 25.792 360.000 25.790 Z"/>
<path fill="#00ffff" fill-rule="evenodd" stroke="none" d="M 21.835 115.678 C 21.835 115.680 25.701 140.347 25.701 140.349 C 25.702 140.348 29.342 129.471 29.342 129.470 C 29.343 129.470 40.454 132.318 40.455 132.318 C 40.453 132.316 21.837 115.679 21.835 115.678 Z"/>
<path fill="#00ff00" fill-rule="evenodd" stroke="none" d="M 30.951 355.620 C 30.953 355.619 54.999 351.570 55.001 351.570 C 55.000 351.571 46.050 358.307 46.049 358.308 C 46.050 358.309 52.124 367.721 52.125 367.721 C 52.123 367.720 30.953 355.621 30.951 355.620 Z"/>
<path fill="#ffff00" fill-rule="evenodd" stroke="none" d="M 123.076 489.435 C 123.077 489.433 129.889 466.020 129.890 466.018 C 129.890 466.019 132.064 477.008 132.064 477.009 C 132.065 477.009 143.182 475.633 143.183 475.632 C 143.181 475.634 123.078 489.434 123.076 489.435 Z"/>
<path fill="#00ffff" fill-rule="evenodd" stroke="none" d="M 698.165 116.773 C 698.165 116.775 693.748 141.349 693.747 141.351 C 693.747 141.350 690.351 130.395 690.351 130.394 C 690.349 130.394 679.177 132.992 679.176 132.992 C 679.178 132.991 698.163 116.774 698.165 116.773 Z"/>
<path fill="#00ff00" fill-rule="evenodd" stroke="none" d="M 689.049 355.620 C 689.047 355.619 665.001 351.570 664.999 351.570 C 665.000 351.571 673.950 358.307 673.951 358.308 C 673.950 358.309 667.876 367.721 667.875 367.721 C 667.877 367.720 689.047 355.621 689.049 355.620 Z"/>
<path fill="#ffff00" fill-rule="evenodd" stroke="none" d="M 596.924 489.435 C 596.923 489.433 590.111 466.020 590.110 466.018 C 590.110 466.019 587.936 477.008 587.936 477.009 C 587.935 477.009 576.818 475.633 576.817 475.632 C 576.819 475.634 596.922 489.434 596.924 489.435 Z"/>
<path fill="#be0027" fill-rule="evenodd" stroke="none" d="M 359.967 503.250 C 359.968 503.248 366.980 483.613 366.981 483.611 C 366.980 483.611 359.968 490.136 359.967 490.137 C 359.966 490.136 352.954 483.611 352.953 483.611 C 352.954 483.613 359.966 503.248 359.967 503.250 Z"/>
</g>
</g>
</svg>
