<?xml version="1.0" encoding="utf-8"?>
<!-- Generator: Moho 12.5 build 22414 -->
<!DOCTYPE svg PUBLIC "-//W3C//DTD SVG 1.1//EN" "http://www.w3.org/Graphics/SVG/1.1/DTD/svg11.dtd">
<svg version="1.1" id="Frame_0" xmlns="http://www.w3.org/2000/svg" xmlns:xlink="http://www.w3.org/1999/xlink" width="720px" height="720px">
<g id="crown_2">
<g id="crown2">
<path fill="#000000" fill-rule="evenodd" stroke="#ffffff" stroke-width="4" stroke-linecap="round" stroke-linejoin="round" d="M 360.204 565.875 C 495.269 565.875 600.408 587.515 600.418 587.516 C 600.394 587.517 520.858 606.706 360.204 606.706 C 199.550 606.706 120.013 587.517 119.989 587.516 C 120.000 587.515 225.139 565.875 360.204 565.875 Z"/>
<path fill="#000000" fill-rule="evenodd" stroke="#ffffff" stroke-width="4" stroke-linecap="round" stroke-linejoin="round" d="M 120.105 531.227 C 120.129 531.205 126.838 304.553 360.000 307.030 C 609.508 309.681 599.871 531.205 599.895 531.227 C 599.847 531.227 120.153 531.227 120.105 531.227 Z"/>
<path fill="#ffffff" fill-rule="evenodd" stroke="#000000" stroke-width="4" stroke-linecap="round" stroke-linejoin="round" d="M 309.880 119.411 C 309.880 91.670 332.259 69.291 360.000 69.291 C 387.741 69.291 410.120 91.670 410.120 119.411 C 410.120 147.152 387.741 169.531 360.000 169.531 C 332.259 169.531 309.880 147.152 309.880 119.411 M 706.180 235.388 C 706.180 216.038 690.570 200.428 671.221 200.428 C 651.871 200.428 636.261 216.038 636.261 235.388 C 636.261 254.738 651.871 270.347 671.221 270.348 C 690.570 270.348 706.180 254.738 706.180 235.388 M 565.148 167.374 C 565.148 145.037 547.128 127.017 524.791 127.017 C 502.453 127.017 484.434 145.037 484.434 167.374 C 484.434 189.711 502.453 207.731 524.791 207.731 C 547.128 207.731 565.148 189.711 565.148 167.374 M 13.820 235.388 C 13.820 216.038 29.430 200.428 48.779 200.428 C 68.129 200.428 83.739 216.038 83.739 235.388 C 83.739 254.738 68.129 270.347 48.779 270.348 C 29.430 270.348 13.820 254.738 13.820 235.388 M 154.852 167.374 C 154.852 145.037 172.872 127.017 195.209 127.017 C 217.547 127.017 235.566 145.037 235.566 167.374 C 235.566 189.711 217.547 207.731 195.209 207.731 C 172.872 207.731 154.852 189.711 154.852 167.374 Z"/>
<path fill="#ffffff" fill-rule="evenodd" stroke="#000000" stroke-width="4" stroke-linecap="round" stroke-linejoin="round" d="M 135.731 292.275 C 123.957 290.679 112.159 292.736 101.110 298.785 C 60.792 320.856 43.826 373.204 96.845 422.976 C 132.260 456.223 145.993 484.147 147.396 498.679 C 147.524 499.997 147.646 501.289 147.812 502.875 C 135.960 506.882 129.252 511.188 122.042 515.854 C 122.042 515.854 115.895 477.980 74.423 438.767 C 4.730 372.868 27.929 308.179 78.616 274.921 C 99.605 261.148 122.946 256.983 148.347 264.981 C 142.454 274.791 138.204 284.293 135.731 292.275 Z"/>
<path fill="none" stroke="#ffffff" stroke-width="1" stroke-linecap="butt" stroke-linejoin="round" d="M 148.347 264.981 C 142.454 274.791 138.204 284.293 135.731 292.275 "/>
<path fill="#ffffff" fill-rule="evenodd" stroke="#000000" stroke-width="4" stroke-linecap="round" stroke-linejoin="round" d="M 196.792 492.415 C 203.331 491.440 214.720 490.263 226.984 489.140 C 209.934 409.082 143.951 338.128 175.398 283.987 C 185.603 266.418 199.993 254.371 218.414 251.212 C 234.147 248.513 248.856 250.402 262.167 260.574 C 266.545 252.754 271.641 245.297 277.854 237.687 C 256.854 219.905 233.655 216.476 208.698 220.584 C 183.149 224.789 162.841 240.851 148.347 264.981 C 142.454 274.791 138.204 284.293 135.731 292.275 C 112.094 368.309 179.109 426.043 196.792 492.415 Z"/>
<path fill="none" stroke="#ffffff" stroke-width="1" stroke-linecap="butt" stroke-linejoin="round" d="M 277.854 237.687 C 271.641 245.297 266.545 252.754 262.167 260.574 "/>
<path fill="#ffffff" fill-rule="evenodd" stroke="#000000" stroke-width="4" stroke-linecap="round" stroke-linejoin="round" d="M 406.981 483.737 C 418.603 484.006 429.584 484.307 435.146 484.561 C 440.306 397.718 499.098 334.465 457.833 260.574 C 453.455 252.754 448.366 245.292 442.146 237.687 C 419.497 209.993 394.327 194.700 359.796 194.629 C 325.673 194.700 300.392 210.082 277.854 237.687 C 271.641 245.297 266.545 252.754 262.167 260.574 C 220.902 334.465 279.694 397.718 284.854 484.561 C 290.417 484.307 301.397 484.002 313.019 483.737 C 305.514 389.872 258.006 324.526 297.444 263.153 C 312.683 239.437 333.575 225.685 360.445 225.840 C 387.361 226.520 407.549 239.639 422.556 263.153 C 461.804 324.647 414.486 389.872 406.981 483.737 Z"/>
<path fill="none" stroke="#ffffff" stroke-width="1" stroke-linecap="butt" stroke-linejoin="round" d="M 442.146 237.687 C 448.366 245.292 453.455 252.754 457.833 260.574 "/>
<path fill="#ffffff" fill-rule="evenodd" stroke="#000000" stroke-width="4" stroke-linecap="round" stroke-linejoin="round" d="M 493.016 489.140 C 505.280 490.263 516.669 491.440 523.208 492.415 C 540.891 426.043 607.906 368.309 584.269 292.275 C 581.796 284.293 577.546 274.791 571.653 264.981 C 557.159 240.851 536.851 224.789 511.302 220.584 C 486.345 216.476 463.146 219.905 442.146 237.687 C 448.366 245.292 453.455 252.754 457.833 260.574 C 471.144 250.402 485.853 248.513 501.586 251.212 C 520.007 254.371 534.397 266.418 544.602 283.987 C 576.049 338.128 510.066 409.082 493.016 489.140 Z"/>
<path fill="none" stroke="#ffffff" stroke-width="1" stroke-linecap="butt" stroke-linejoin="round" d="M 571.653 264.981 C 577.546 274.791 581.796 284.293 584.269 292.275 "/>
<path fill="#ffffff" fill-rule="evenodd" stroke="#000000" stroke-width="4" stroke-linecap="round" stroke-linejoin="round" d="M 572.188 502.875 C 584.040 506.882 590.748 511.188 597.958 515.854 C 597.958 515.854 604.105 477.980 645.577 438.767 C 715.270 372.868 692.071 308.179 641.384 274.921 C 620.395 261.148 597.054 256.983 571.653 264.981 C 577.546 274.791 581.796 284.293 584.269 292.275 C 596.043 290.679 607.841 292.736 618.890 298.785 C 659.208 320.856 676.174 373.204 623.155 422.976 C 587.740 456.223 574.007 484.147 572.604 498.679 C 572.476 499.997 572.354 501.289 572.188 502.875 Z"/>
<path fill="none" stroke="#ffffff" stroke-width="1" stroke-linecap="butt" stroke-linejoin="round" d="M 119.989 587.516 C 120.000 587.515 225.139 565.875 360.204 565.875 "/>
<path fill="none" stroke="#ffffff" stroke-width="1" stroke-linecap="butt" stroke-linejoin="round" d="M 360.204 565.875 C 495.269 565.875 600.408 587.515 600.418 587.516 "/>
<path fill="#ffffff" fill-rule="evenodd" stroke="#000000" stroke-width="4" stroke-linecap="round" stroke-linejoin="round" d="M 119.989 508.214 C 119.989 534.648 119.989 561.082 119.989 587.516 C 120.000 587.515 225.139 565.875 360.204 565.875 C 495.269 565.875 600.408 587.515 600.418 587.516 C 600.418 561.082 600.418 534.648 600.418 508.214 C 600.394 508.212 556.234 471.841 360.204 471.841 C 164.174 471.841 120.014 508.212 119.989 508.214 Z"/>
</g>
<g id="specs_2">
<path fill="#ff00ff" fill-rule="evenodd" stroke="none" d="M 260.795 217.189 C 260.815 217.189 459.185 217.189 459.205 217.189 C 459.205 217.169 459.205 18.799 459.205 18.779 C 459.185 18.779 260.815 18.779 260.795 18.779 C 260.795 18.799 260.795 217.169 260.795 217.189 Z"/>
<path fill="#ff0000" fill-rule="evenodd" stroke="none" d="M 360.000 680.827 C 360.001 680.830 372.432 715.636 372.433 715.639 C 372.432 715.638 360.001 704.072 360.000 704.071 C 359.999 704.072 347.568 715.638 347.567 715.639 C 347.568 715.636 359.999 680.830 360.000 680.827 Z"/>
<path fill="#0000ff" fill-rule="evenodd" stroke="none" d="M 360.000 6.124 C 360.001 6.126 367.221 26.344 367.222 26.346 C 367.221 26.345 360.001 19.627 360.000 19.626 C 359.999 19.627 352.779 26.345 352.778 26.346 C 352.779 26.344 359.999 6.126 360.000 6.124 Z"/>
<path fill="#00ff00" fill-rule="evenodd" stroke="none" d="M 18.397 349.356 C 18.399 349.355 38.581 342.032 38.583 342.031 C 38.582 342.032 31.900 349.287 31.900 349.288 C 31.900 349.288 38.655 356.475 38.656 356.475 C 38.654 356.475 18.399 349.356 18.397 349.356 Z"/>
<path fill="#ffff00" fill-rule="evenodd" stroke="none" d="M 117.702 591.851 C 117.703 591.849 126.664 572.340 126.664 572.338 C 126.664 572.339 127.136 582.191 127.136 582.192 C 127.137 582.192 136.997 582.431 136.998 582.431 C 136.996 582.432 117.704 591.850 117.702 591.851 Z"/>
<path fill="#ffff00" fill-rule="evenodd" stroke="none" d="M 602.298 591.612 C 602.297 591.610 592.947 572.284 592.946 572.283 C 592.946 572.284 592.672 582.143 592.672 582.144 C 592.671 582.144 582.818 582.581 582.817 582.581 C 582.819 582.581 602.296 591.611 602.298 591.612 Z"/>
<path fill="#00ff00" fill-rule="evenodd" stroke="none" d="M 701.603 349.356 C 701.601 349.355 681.419 342.032 681.417 342.031 C 681.418 342.032 688.100 349.287 688.100 349.288 C 688.100 349.288 681.345 356.475 681.344 356.475 C 681.346 356.475 701.601 349.356 701.603 349.356 Z"/>
<path fill="#00ffff" fill-rule="evenodd" stroke="none" d="M 601.361 106.068 C 601.361 106.070 594.193 126.307 594.193 126.309 C 594.193 126.308 592.835 116.539 592.835 116.538 C 592.834 116.538 582.993 117.188 582.992 117.188 C 582.994 117.187 601.359 106.069 601.361 106.068 Z"/>
<path fill="#00ffff" fill-rule="evenodd" stroke="none" d="M 118.750 106.739 C 118.751 106.741 127.252 126.455 127.253 126.457 C 127.253 126.456 127.956 116.618 127.956 116.617 C 127.957 116.617 137.819 116.609 137.820 116.609 C 137.818 116.608 118.752 106.740 118.750 106.739 Z"/>
<path fill="#be0027" fill-rule="evenodd" stroke="none" d="M 360.000 607.160 C 360.001 607.156 372.432 572.351 372.433 572.347 C 372.432 572.348 360.001 583.914 360.000 583.915 C 359.999 583.914 347.568 572.348 347.567 572.347 C 347.568 572.351 359.999 607.156 360.000 607.160 Z"/>
</g>
</g>
</svg>
