<?xml version="1.0" encoding="utf-8"?>
<!-- Generator: Moho 13.0.3 build 635 -->
<!DOCTYPE svg PUBLIC "-//W3C//DTD SVG 1.1//EN" "http://www.w3.org/Graphics/SVG/1.1/DTD/svg11.dtd">
<svg version="1.1" id="Frame_0" xmlns="http://www.w3.org/2000/svg" xmlns:xlink="http://www.w3.org/1999/xlink" width="1280px" height="720px">
<g id="crown">
<path fill="#ffffff" fill-rule="evenodd" stroke="#000000" stroke-width="4" stroke-linecap="round" stroke-linejoin="round" d="M 20.278 202.420 C 20.302 202.441 256.578 406.987 256.601 407.008 C 256.609 406.982 330.132 144.629 330.139 144.602 C 330.157 144.624 502.225 358.064 502.242 358.085 C 502.256 358.053 639.986 33.445 640.000 33.413 C 640.014 33.445 777.744 358.053 777.758 358.085 C 777.775 358.064 949.844 144.624 949.861 144.602 C 949.868 144.629 1023.391 406.982 1023.399 407.008 C 1023.422 406.987 1259.698 202.441 1259.722 202.420 C 1259.712 202.457 1162.438 572.257 1162.428 572.294 C 1162.377 572.299 887.449 619.827 650.973 620.371 C 404.437 620.939 117.626 572.299 117.572 572.294 C 117.562 572.257 20.288 202.457 20.278 202.420 Z"/>
<path fill="none" stroke="#000000" stroke-width="4" stroke-linecap="round" stroke-linejoin="round" d="M 117.572 572.294 C 117.625 572.290 428.332 527.149 642.301 527.246 C 854.408 527.341 989.052 557.278 1162.428 572.294 "/>
</g>
</svg>
