<?xml version="1.0" encoding="utf-8"?>
<!-- Generator: Moho 12.5 build 22414 -->
<!DOCTYPE svg PUBLIC "-//W3C//DTD SVG 1.1//EN" "http://www.w3.org/Graphics/SVG/1.1/DTD/svg11.dtd">
<svg version="1.1" id="Frame_0" xmlns="http://www.w3.org/2000/svg" xmlns:xlink="http://www.w3.org/1999/xlink" width="720px" height="720px">
<g id="crown">
<g id="crown">
<path fill="none" stroke="#000000" stroke-width="4" stroke-linecap="round" stroke-linejoin="round" d="M 32.399 563.090 C 32.432 563.087 96.717 529.486 360.000 529.487 C 565.004 529.488 687.568 563.087 687.601 563.090 C 687.631 563.114 641.185 597.822 360.000 597.822 C 78.815 597.822 32.432 563.093 32.399 563.090 C 32.396 563.055 7.862 209.540 7.867 209.504 C 7.874 209.519 211.254 369.876 211.259 369.889 C 211.278 369.866 359.982 121.665 360.000 121.643 C 360.003 121.661 508.740 371.035 508.741 371.050 C 508.763 371.037 712.113 209.521 712.133 209.504 C 712.130 209.540 687.328 562.865 687.601 563.090 "/>
<path fill="#ffffff" fill-rule="evenodd" stroke="#000000" stroke-width="4" stroke-linecap="round" stroke-linejoin="round" d="M 7.867 209.504 C 7.874 209.519 211.254 369.876 211.259 369.889 C 211.278 369.866 359.982 121.665 360.000 121.643 C 360.003 121.661 508.740 371.035 508.741 371.050 C 508.763 371.037 712.113 209.521 712.133 209.504 C 712.130 209.540 687.328 562.865 687.601 563.090 C 687.631 563.114 641.185 597.822 360.000 597.822 C 78.815 597.822 32.432 563.093 32.399 563.090 C 32.396 563.055 7.862 209.540 7.867 209.504 Z"/>
<path fill="#000000" fill-rule="evenodd" stroke="none" d="M 359.711 529.658 C 542.473 530.466 652.183 554.951 652.212 554.954 C 652.238 554.977 610.013 576.082 360.140 574.943 C 110.066 573.802 68.057 552.272 68.028 552.270 C 68.057 552.268 125.820 528.623 359.711 529.658 Z"/>
<path fill="none" stroke="#000000" stroke-width="4" stroke-linecap="round" stroke-linejoin="round" d="M 32.399 563.090 C 32.432 563.087 96.717 529.486 360.000 529.487 C 565.004 529.488 687.568 563.087 687.601 563.090 "/>
</g>
<g id="specs">
<path fill="#ff00ff" fill-rule="evenodd" stroke="none" d="M 223.473 511.257 C 223.500 511.257 496.500 511.257 496.527 511.257 C 496.527 511.242 496.527 367.405 496.527 367.391 C 496.500 367.391 223.500 367.391 223.473 367.391 C 223.473 367.405 223.473 511.242 223.473 511.257 Z"/>
<path fill="#ff0000" fill-rule="evenodd" stroke="none" d="M 360.000 630.046 C 360.002 630.050 374.936 671.867 374.938 671.872 C 374.936 671.870 360.002 657.974 360.000 657.973 C 359.999 657.974 345.064 671.870 345.062 671.872 C 345.064 671.867 359.999 630.050 360.000 630.046 Z"/>
<path fill="#0000ff" fill-rule="evenodd" stroke="none" d="M 360.000 104.819 C 360.001 104.821 368.676 129.112 368.677 129.115 C 368.676 129.114 360.001 121.042 360.000 121.041 C 359.999 121.042 351.324 129.114 351.323 129.115 C 351.324 129.112 359.999 104.821 360.000 104.819 Z"/>
<path fill="#00ffff" fill-rule="evenodd" stroke="none" d="M 2.438 199.896 C 2.438 199.898 6.527 225.991 6.528 225.994 C 6.528 225.992 10.379 214.487 10.379 214.485 C 10.380 214.486 22.134 217.498 22.135 217.498 C 22.133 217.497 2.440 199.898 2.438 199.896 Z"/>
<path fill="#00ff00" fill-rule="evenodd" stroke="none" d="M 12.082 453.729 C 12.084 453.728 37.520 449.446 37.522 449.445 C 37.521 449.446 28.054 456.572 28.053 456.573 C 28.054 456.574 34.479 466.530 34.480 466.530 C 34.478 466.529 12.084 453.730 12.082 453.729 Z"/>
<path fill="#ffff00" fill-rule="evenodd" stroke="none" d="M 118.833 595.269 C 118.833 595.266 126.039 570.500 126.040 570.497 C 126.040 570.499 128.339 582.123 128.340 582.124 C 128.341 582.124 140.100 580.668 140.101 580.668 C 140.099 580.669 118.835 595.267 118.833 595.269 Z"/>
<path fill="#00ffff" fill-rule="evenodd" stroke="none" d="M 717.873 201.054 C 717.873 201.057 713.201 227.051 713.200 227.054 C 713.200 227.053 709.608 215.463 709.607 215.462 C 709.606 215.462 697.788 218.211 697.787 218.211 C 697.789 218.209 717.871 201.056 717.873 201.054 Z"/>
<path fill="#00ff00" fill-rule="evenodd" stroke="none" d="M 708.231 453.729 C 708.228 453.728 682.793 449.446 682.790 449.445 C 682.791 449.446 692.258 456.572 692.259 456.573 C 692.259 456.574 685.833 466.530 685.833 466.530 C 685.835 466.529 708.229 453.730 708.231 453.729 Z"/>
<path fill="#ffff00" fill-rule="evenodd" stroke="none" d="M 620.077 595.269 C 620.077 595.266 612.871 570.500 612.870 570.497 C 612.870 570.499 610.571 582.123 610.570 582.124 C 610.569 582.124 598.810 580.668 598.809 580.668 C 598.811 580.669 620.075 595.267 620.077 595.269 Z"/>
<path fill="#be0027" fill-rule="evenodd" stroke="none" d="M 359.965 609.886 C 359.966 609.884 367.384 589.113 367.385 589.111 C 367.384 589.112 359.966 596.014 359.965 596.015 C 359.964 596.014 352.546 589.112 352.546 589.111 C 352.546 589.113 359.964 609.884 359.965 609.886 Z"/>
</g>
</g>
</svg>
