<?xml version="1.0" encoding="utf-8"?>
<!-- Generator: Moho 12.5 build 22414 -->
<!DOCTYPE svg PUBLIC "-//W3C//DTD SVG 1.1//EN" "http://www.w3.org/Graphics/SVG/1.1/DTD/svg11.dtd">
<svg version="1.1" id="Frame_0" xmlns="http://www.w3.org/2000/svg" xmlns:xlink="http://www.w3.org/1999/xlink" width="720px" height="720px">
<g id="crown">
<g id="crown">
<path fill="none" stroke="#000000" stroke-width="4" stroke-linecap="round" stroke-linejoin="round" d="M 32.399 563.090 C 32.432 563.087 96.717 529.486 360.000 529.487 C 565.004 529.488 687.568 563.087 687.601 563.090 C 687.631 563.114 641.185 597.822 360.000 597.822 C 78.815 597.822 32.432 563.093 32.399 563.090 C 32.396 563.055 7.862 209.540 7.867 209.504 C 7.874 209.519 211.254 369.876 211.259 369.889 C 211.278 369.866 359.982 121.665 360.000 121.643 C 360.003 121.661 508.740 371.035 508.741 371.050 C 508.763 371.037 712.113 209.521 712.133 209.504 C 712.130 209.540 687.328 562.865 687.601 563.090 "/>
<path fill="#ffffff" fill-rule="evenodd" stroke="#000000" stroke-width="4" stroke-linecap="round" stroke-linejoin="round" d="M 7.867 209.504 C 7.874 209.519 211.254 369.876 211.259 369.889 C 211.278 369.866 359.982 121.665 360.000 121.643 C 360.003 121.661 508.740 371.035 508.741 371.050 C 508.763 371.037 712.113 209.521 712.133 209.504 C 712.130 209.540 687.328 562.865 687.601 563.090 C 687.631 563.114 641.185 597.822 360.000 597.822 C 78.815 597.822 32.432 563.093 32.399 563.090 C 32.396 563.055 7.862 209.540 7.867 209.504 Z"/>
<path fill="#000000" fill-rule="evenodd" stroke="none" d="M 359.711 529.658 C 542.473 530.466 652.183 554.951 652.212 554.954 C 652.238 554.977 610.013 576.082 360.140 574.943 C 110.066 573.802 68.057 552.272 68.028 552.270 C 68.057 552.268 125.820 528.623 359.711 529.658 Z"/>
<path fill="none" stroke="#000000" stroke-width="4" stroke-linecap="round" stroke-linejoin="round" d="M 32.399 563.090 C 32.432 563.087 96.717 529.486 360.000 529.487 C 565.004 529.488 687.568 563.087 687.601 563.090 "/>
</g>
<g id="specs">
<path fill="#ff00ff" fill-rule="evenodd" stroke="none" d="M 187.624 553.397 C 187.658 553.397 532.342 553.397 532.376 553.397 C 532.376 553.367 532.376 258.323 532.376 258.294 C 532.342 258.294 187.658 258.294 187.624 258.294 C 187.624 258.323 187.624 553.367 187.624 553.397 Z"/>
<path fill="#ff0000" fill-rule="evenodd" stroke="none" d="M 360.000 666.145 C 360.002 666.149 374.936 707.967 374.938 707.971 C 374.936 707.969 360.002 694.073 360.000 694.072 C 359.999 694.073 345.064 707.969 345.062 707.971 C 345.064 707.967 359.999 666.149 360.000 666.145 Z"/>
<path fill="#0000ff" fill-rule="evenodd" stroke="none" d="M 360.000 104.819 C 360.001 104.821 368.676 129.112 368.677 129.115 C 368.676 129.114 360.001 121.042 360.000 121.041 C 359.999 121.042 351.324 129.114 351.323 129.115 C 351.324 129.112 359.999 104.821 360.000 104.819 Z"/>
<path fill="#00ffff" fill-rule="evenodd" stroke="none" d="M 2.282 199.905 C 2.283 199.907 6.372 226.000 6.372 226.002 C 6.373 226.001 10.223 214.495 10.223 214.494 C 10.225 214.494 21.978 217.507 21.979 217.507 C 21.977 217.505 2.284 199.906 2.282 199.905 Z"/>
<path fill="#00ff00" fill-rule="evenodd" stroke="none" d="M 11.925 453.720 C 11.928 453.719 37.363 449.436 37.366 449.436 C 37.365 449.437 27.898 456.563 27.897 456.564 C 27.897 456.565 34.323 466.520 34.324 466.521 C 34.321 466.520 11.928 453.721 11.925 453.720 Z"/>
<path fill="#ffff00" fill-rule="evenodd" stroke="none" d="M 109.378 595.273 C 109.378 595.270 116.584 570.504 116.585 570.501 C 116.585 570.503 118.884 582.127 118.885 582.128 C 118.886 582.128 130.645 580.672 130.646 580.672 C 130.644 580.673 109.380 595.271 109.378 595.273 Z"/>
<path fill="#00ffff" fill-rule="evenodd" stroke="none" d="M 717.718 201.063 C 717.717 201.065 713.045 227.060 713.045 227.062 C 713.044 227.061 709.452 215.472 709.452 215.471 C 709.450 215.471 697.632 218.220 697.631 218.220 C 697.633 218.218 717.716 201.065 717.718 201.063 Z"/>
<path fill="#00ff00" fill-rule="evenodd" stroke="none" d="M 708.075 453.720 C 708.072 453.719 682.637 449.436 682.634 449.436 C 682.635 449.437 692.102 456.563 692.103 456.564 C 692.103 456.565 685.677 466.520 685.677 466.521 C 685.679 466.520 708.072 453.721 708.075 453.720 Z"/>
<path fill="#ffff00" fill-rule="evenodd" stroke="none" d="M 610.622 595.273 C 610.622 595.270 603.416 570.504 603.415 570.501 C 603.415 570.503 601.116 582.127 601.115 582.128 C 601.114 582.128 589.355 580.672 589.354 580.672 C 589.356 580.673 610.620 595.271 610.622 595.273 Z"/>
<path fill="#be0027" fill-rule="evenodd" stroke="none" d="M 359.965 609.886 C 359.966 609.884 367.384 589.113 367.385 589.111 C 367.384 589.112 359.966 596.014 359.965 596.015 C 359.964 596.014 352.546 589.112 352.546 589.111 C 352.546 589.113 359.964 609.884 359.965 609.886 Z"/>
</g>
</g>
</svg>
