<?xml version="1.0" encoding="utf-8"?>
<!-- Generator: Moho 13.0.3 build 635 -->
<!DOCTYPE svg PUBLIC "-//W3C//DTD SVG 1.1//EN" "http://www.w3.org/Graphics/SVG/1.1/DTD/svg11.dtd">
<svg version="1.1" id="Frame_0" xmlns="http://www.w3.org/2000/svg" xmlns:xlink="http://www.w3.org/1999/xlink" width="720px" height="720px">
<g id="cube_paradox">
<g id="cube2">
<path fill="#ffffff" fill-rule="evenodd" stroke="none" d="M 153.466 465.206 C 153.476 465.214 248.348 539.333 248.358 539.340 C 248.358 539.331 247.742 442.851 247.742 442.842 C 247.733 442.844 153.476 465.204 153.466 465.206 M 64.885 458.305 C 64.885 458.270 64.885 222.841 64.885 105.110 C 179.402 78.655 293.919 52.200 408.436 25.745 C 491.635 70.263 574.835 114.780 658.034 159.298 C 656.737 285.736 655.439 412.175 654.142 538.614 C 529.001 571.496 403.859 604.377 278.718 637.259 C 207.440 577.608 64.906 458.323 64.885 458.305 M 591.798 464.232 C 591.798 464.205 595.417 200.066 595.417 200.039 C 595.401 200.043 432.149 237.270 432.133 237.273 C 432.133 237.286 433.833 364.449 433.833 364.462 C 433.849 364.472 591.782 464.222 591.798 464.232 M 308.738 562.161 C 308.762 562.155 468.839 523.864 548.890 504.716 C 499.278 472.047 449.666 439.378 400.055 406.709 C 369.204 414.028 338.353 421.346 307.502 428.665 C 307.914 473.164 308.738 562.148 308.738 562.161 M 169.895 138.409 C 169.907 138.416 289.790 214.000 289.802 214.007 C 289.811 214.005 376.078 196.428 376.087 196.426 C 376.087 196.415 376.087 85.550 376.087 85.539 C 376.066 85.544 169.915 138.404 169.895 138.409 M 550.946 160.629 C 550.934 160.623 432.663 98.009 432.651 98.003 C 432.651 98.011 432.327 185.031 432.327 185.040 C 432.339 185.037 550.934 160.632 550.946 160.629 M 306.101 265.778 C 306.101 265.788 306.734 338.033 307.051 374.161 C 329.669 367.991 374.898 355.654 374.904 355.652 C 374.904 355.641 375.560 285.181 375.889 249.945 C 352.626 255.223 306.108 265.776 306.101 265.778 M 120.723 176.505 C 120.723 176.528 122.938 333.844 124.045 412.513 C 165.120 403.846 206.195 395.178 247.270 386.511 C 247.067 343.710 246.660 258.121 246.660 258.108 C 246.647 258.100 120.736 176.513 120.723 176.505 Z"/>
<path fill="none" stroke="#000000" stroke-width="5" stroke-linecap="round" stroke-linejoin="round" d="M 408.436 25.745 C 408.401 25.753 64.919 105.102 64.885 105.110 C 64.892 105.114 230.402 209.842 278.718 240.579 C 278.727 240.577 376.077 219.761 376.087 219.758 M 658.034 159.298 C 574.835 114.780 491.635 70.263 408.436 25.745 M 278.718 240.579 C 278.718 240.593 278.768 379.949 278.768 379.963 C 278.768 379.966 278.691 406.704 278.691 406.707 C 278.691 406.710 278.693 435.496 278.693 435.499 C 278.693 435.519 278.718 637.239 278.718 637.259 C 278.696 637.241 136.163 517.956 64.885 458.305 M 654.142 538.614 C 654.142 538.576 658.034 159.336 658.034 159.298 C 658.026 159.299 432.258 207.670 432.243 207.673 M 278.718 637.259 C 403.859 604.377 654.104 538.624 654.142 538.614 "/>
<path fill="none" stroke="#000000" stroke-width="5" stroke-linecap="round" stroke-linejoin="round" d="M 307.221 400.042 C 307.231 400.040 400.756 375.093 400.766 375.091 C 400.769 375.090 422.811 368.005 433.833 364.462 C 433.833 364.449 432.133 237.286 432.133 237.273 C 432.149 237.270 595.401 200.043 595.417 200.039 C 595.420 200.038 627.267 192.916 627.270 192.915 C 627.270 192.948 623.436 515.971 623.436 516.003 C 623.433 516.001 591.311 494.913 591.308 494.911 C 591.289 494.899 400.785 375.103 400.766 375.091 C 400.763 375.089 374.907 355.654 374.904 355.652 C 374.898 355.654 307.058 374.159 307.051 374.161 C 307.051 374.150 306.101 265.788 306.101 265.778 C 306.108 265.776 375.882 249.947 375.889 249.945 C 375.888 249.956 374.904 355.641 374.904 355.652 M 93.232 450.028 C 93.235 450.028 123.647 443.607 123.650 443.606 C 123.662 443.603 247.461 414.002 247.473 413.999 C 247.473 413.996 247.270 386.514 247.270 386.511 C 247.258 386.514 124.057 412.510 124.045 412.513 C 124.045 412.489 120.723 176.528 120.723 176.505 C 120.720 176.503 92.310 158.404 92.307 158.402 C 92.307 158.431 93.232 449.999 93.232 450.028 C 93.248 450.041 248.562 577.348 248.577 577.360 C 248.577 577.357 248.358 539.344 248.358 539.340 C 248.348 539.333 153.476 465.214 153.466 465.206 C 153.463 465.204 123.653 443.608 123.650 443.606 C 123.651 443.604 124.046 412.515 124.045 412.513 M 247.742 442.842 C 247.733 442.844 153.476 465.204 153.466 465.206 M 591.798 464.232 C 591.634 474.458 591.308 494.908 591.308 494.911 C 591.303 494.912 548.894 504.715 548.890 504.716 C 548.866 504.721 308.762 562.155 308.738 562.161 C 308.738 562.148 307.502 428.678 307.502 428.665 C 307.512 428.663 369.204 414.028 400.055 406.709 C 400.055 406.706 400.766 375.095 400.766 375.091 C 400.766 375.078 400.498 244.375 400.497 244.362 C 400.498 244.359 400.571 214.672 400.571 214.669 C 400.571 214.667 400.633 191.474 400.633 191.472 C 400.633 191.458 400.887 97.202 401.013 50.067 C 401.033 50.077 595.613 151.680 595.633 151.690 C 595.628 151.691 550.950 160.628 550.946 160.629 C 550.934 160.632 432.339 185.037 432.327 185.040 C 432.327 185.031 432.651 98.011 432.651 98.003 C 432.663 98.009 550.934 160.623 550.946 160.629 M 658.034 159.298 C 574.835 114.780 491.635 70.263 408.436 25.745 C 408.401 25.753 64.919 105.102 64.885 105.110 C 64.885 222.841 64.885 458.270 64.885 458.305 C 136.163 517.956 278.696 637.241 278.718 637.259 C 403.859 604.377 654.104 538.624 654.142 538.614 C 654.142 538.576 658.034 159.336 658.034 159.298 C 658.026 159.299 432.258 207.670 432.243 207.673 C 432.243 207.671 432.327 185.042 432.327 185.040 M 376.087 219.758 C 376.077 219.761 278.727 240.577 278.718 240.579 C 278.718 240.593 278.768 379.949 278.768 379.963 C 278.768 379.966 278.691 406.704 278.691 406.707 C 278.691 406.710 278.693 435.496 278.693 435.499 C 278.693 435.519 278.718 637.239 278.718 637.259 M 401.013 50.067 C 400.987 50.073 133.558 115.253 133.532 115.259 C 133.535 115.261 169.891 138.407 169.895 138.409 C 169.907 138.416 289.790 214.000 289.802 214.007 C 289.811 214.005 376.078 196.428 376.087 196.426 C 376.087 196.429 376.087 219.756 376.087 219.758 C 376.087 219.761 375.889 249.942 375.889 249.945 M 376.087 196.426 C 376.087 196.415 376.087 85.550 376.087 85.539 C 376.066 85.544 169.915 138.404 169.895 138.409 M 307.051 374.161 C 307.051 374.163 307.221 400.040 307.221 400.042 C 307.221 400.045 307.502 428.662 307.502 428.665 M 308.738 562.161 C 308.738 562.164 308.977 593.655 308.977 593.659 C 309.004 593.652 581.571 526.182 581.598 526.176 C 581.602 526.175 623.432 516.004 623.436 516.003 M 400.055 406.709 C 400.070 406.719 548.875 504.706 548.890 504.716 M 246.660 258.108 C 246.647 258.100 120.736 176.513 120.723 176.505 M 247.270 386.511 C 247.270 386.498 246.660 258.121 246.660 258.108 M 247.742 442.842 C 247.742 442.839 247.473 414.002 247.473 413.999 M 248.358 539.340 C 248.358 539.331 247.742 442.851 247.742 442.842 M 432.243 207.673 C 432.243 207.676 432.133 237.270 432.133 237.273 M 433.833 364.462 C 433.849 364.472 591.782 464.222 591.798 464.232 C 591.798 464.205 595.417 200.065 595.417 200.039 M 64.885 105.110 C 64.892 105.114 230.402 209.842 278.718 240.579 "/>
</g>
<g id="specs_2">
<path fill="#ff0000" fill-rule="evenodd" stroke="none" d="M 360.000 672.664 C 360.001 672.667 372.432 707.473 372.433 707.477 C 372.432 707.476 360.001 695.910 360.000 695.908 C 359.999 695.910 347.568 707.476 347.567 707.477 C 347.568 707.473 359.999 672.667 360.000 672.664 Z"/>
<path fill="#0000ff" fill-rule="evenodd" stroke="none" d="M 407.290 14.038 C 407.291 14.040 414.511 34.258 414.512 34.260 C 414.511 34.260 407.291 27.542 407.290 27.541 C 407.289 27.542 400.069 34.260 400.068 34.260 C 400.069 34.258 407.289 14.040 407.290 14.038 Z"/>
<path fill="#00ff00" fill-rule="evenodd" stroke="none" d="M 51.979 336.115 C 51.981 336.114 72.162 328.791 72.164 328.791 C 72.163 328.791 65.482 336.046 65.481 336.047 C 65.482 336.048 72.236 343.234 72.237 343.235 C 72.235 343.234 51.981 336.116 51.979 336.115 Z"/>
<path fill="#ffff00" fill-rule="evenodd" stroke="none" d="M 164.318 560.123 C 164.318 560.121 173.279 540.612 173.280 540.610 C 173.280 540.611 173.752 550.463 173.752 550.464 C 173.753 550.464 183.613 550.703 183.613 550.703 C 183.612 550.703 164.320 560.122 164.318 560.123 Z"/>
<path fill="#ffff00" fill-rule="evenodd" stroke="none" d="M 508.059 589.972 C 508.058 589.970 506.228 568.579 506.227 568.577 C 506.227 568.578 502.450 577.689 502.449 577.690 C 502.448 577.689 493.089 574.578 493.088 574.578 C 493.090 574.579 508.057 589.970 508.059 589.972 Z"/>
<path fill="#00ff00" fill-rule="evenodd" stroke="none" d="M 671.014 336.115 C 671.012 336.114 650.830 328.791 650.828 328.791 C 650.829 328.791 657.511 336.046 657.511 336.047 C 657.511 336.048 650.756 343.234 650.755 343.235 C 650.757 343.234 671.012 336.116 671.014 336.115 Z"/>
<path fill="#00ffff" fill-rule="evenodd" stroke="none" d="M 661.096 148.828 C 661.096 148.830 653.928 169.067 653.928 169.069 C 653.928 169.068 652.570 159.299 652.570 159.298 C 652.569 159.298 642.728 159.948 642.727 159.948 C 642.729 159.947 661.094 148.829 661.096 148.828 Z"/>
<path fill="#00ffff" fill-rule="evenodd" stroke="none" d="M 58.473 95.555 C 58.473 95.557 66.974 115.272 66.975 115.274 C 66.975 115.273 67.678 105.435 67.678 105.434 C 67.679 105.434 77.541 105.426 77.542 105.426 C 77.540 105.425 58.475 95.556 58.473 95.555 Z"/>
<path fill="#be0027" fill-rule="evenodd" stroke="none" d="M 667.363 552.730 C 667.361 552.727 651.540 519.326 651.538 519.322 C 651.538 519.324 650.927 536.292 650.927 536.294 C 650.925 536.294 633.957 536.905 633.955 536.905 C 633.958 536.907 667.359 552.729 667.363 552.730 Z"/>
</g>
</g>
</svg>
