<?xml version="1.0" encoding="utf-8"?>
<!-- Generator: Moho 12.5 build 22414 -->
<!DOCTYPE svg PUBLIC "-//W3C//DTD SVG 1.1//EN" "http://www.w3.org/Graphics/SVG/1.1/DTD/svg11.dtd">
<svg version="1.1" id="Frame_0" xmlns="http://www.w3.org/2000/svg" xmlns:xlink="http://www.w3.org/1999/xlink" width="720px" height="720px">
<g id="cube_die">
<g id="cube">
<path fill="#ffffff" fill-rule="evenodd" stroke="none" d="M 360.000 14.187 C 360.028 14.204 640.946 176.392 640.974 176.408 C 640.974 176.440 640.974 500.816 640.974 500.849 C 640.946 500.865 453.658 608.996 360.000 663.069 C 359.972 663.053 79.051 500.863 79.026 500.849 C 79.026 392.702 79.026 284.555 79.026 176.408 C 79.054 176.392 359.975 14.202 360.000 14.187 Z"/>
<path fill="none" stroke="#000000" stroke-width="4" stroke-linecap="round" stroke-linejoin="round" d="M 360.000 14.187 C 359.975 14.202 79.054 176.392 79.026 176.408 C 176.899 230.984 359.972 338.612 360.000 338.628 C 360.028 338.612 542.683 232.079 640.974 176.408 C 640.946 176.392 360.028 14.204 360.000 14.187 M 79.026 176.408 C 79.026 284.555 79.026 392.702 79.026 500.849 C 79.051 500.863 359.972 663.053 360.000 663.069 C 358.696 550.771 360.000 338.661 360.000 338.628 M 640.974 500.849 C 640.974 500.816 640.974 176.440 640.974 176.408 M 360.000 663.069 C 453.658 608.996 640.946 500.865 640.974 500.849 "/>
<path fill="none" stroke="#000000" stroke-width="1" stroke-linecap="butt" stroke-linejoin="round" d="M 360.000 663.069 C 359.972 663.053 79.051 500.863 79.026 500.849 "/>
<path fill="none" stroke="#000000" stroke-width="1" stroke-linecap="butt" stroke-linejoin="round" d="M 79.026 500.849 C 79.026 392.702 79.026 284.555 79.026 176.408 "/>
<path fill="#000000" fill-rule="evenodd" stroke="none" d="M 360.000 663.069 C 359.972 663.053 79.051 500.863 79.026 500.849 C 79.026 392.702 79.026 284.555 79.026 176.408 C 176.899 230.984 359.972 338.612 360.000 338.628 C 360.000 338.661 358.696 550.771 360.000 663.069 Z"/>
<path fill="none" stroke="#000000" stroke-width="4" stroke-linecap="round" stroke-linejoin="round" d="M 79.026 176.408 C 79.026 284.555 79.026 392.702 79.026 500.849 C 79.051 500.863 359.972 663.053 360.000 663.069 "/>
<path fill="none" stroke="#ffffff" stroke-width="4" stroke-linecap="round" stroke-linejoin="round" d="M 360.000 663.069 C 359.972 663.053 79.051 500.863 79.026 500.849 C 79.026 392.702 79.026 284.555 79.026 176.408 "/>
</g>
<g id="dots">
<path fill="#000000" fill-rule="evenodd" stroke="none" d="M 474.573 438.106 C 468.308 418.285 480.311 395.958 500.690 391.857 C 512.432 389.493 523.197 396.388 526.807 407.809 C 533.071 427.630 521.069 449.957 500.690 454.058 C 488.948 456.421 478.183 449.526 474.573 438.106 M 396.222 576.854 C 389.957 557.033 401.960 534.706 422.339 530.605 C 434.081 528.241 444.846 535.137 448.456 546.557 C 454.720 566.378 442.718 588.705 422.339 592.806 C 410.597 595.169 399.832 588.275 396.222 576.854 M 552.924 299.358 C 546.659 279.537 558.661 257.210 579.040 253.109 C 590.782 250.746 601.548 257.640 605.157 269.061 C 611.422 288.882 599.419 311.209 579.040 315.310 C 567.298 317.674 556.533 310.779 552.924 299.358 Z"/>
<path fill="#ffffff" fill-rule="evenodd" stroke="none" d="M 243.444 432.698 C 249.708 412.877 237.706 390.550 217.327 386.449 C 205.585 384.085 194.819 390.981 191.210 402.401 C 184.945 422.223 196.948 444.549 217.327 448.650 C 229.069 451.013 239.834 444.119 243.444 432.698 M 165.093 480.556 C 171.358 460.734 159.355 438.408 138.977 434.306 C 127.235 431.943 116.469 438.838 112.860 450.259 C 106.595 470.080 118.598 492.406 138.977 496.508 C 150.718 498.871 161.483 491.976 165.093 480.556 M 321.794 571.447 C 328.059 551.625 316.057 529.298 295.678 525.197 C 283.935 522.834 273.170 529.729 269.561 541.149 C 263.296 560.971 275.299 583.297 295.678 587.398 C 307.419 589.762 318.185 582.867 321.794 571.447 M 165.093 293.950 C 171.358 274.129 159.355 251.803 138.976 247.701 C 127.234 245.338 116.469 252.233 112.859 263.653 C 106.595 283.475 118.597 305.801 138.976 309.903 C 150.718 312.266 161.483 305.371 165.093 293.950 M 321.794 384.841 C 328.059 365.020 316.057 342.693 295.678 338.592 C 283.935 336.228 273.170 343.123 269.560 354.544 C 263.296 374.366 275.298 396.692 295.678 400.794 C 307.419 403.157 318.184 396.262 321.794 384.841 Z"/>
<path fill="#000000" fill-rule="evenodd" stroke="none" d="M 388.448 92.059 C 374.415 107.395 349.078 108.164 335.336 92.566 C 327.419 83.579 328.007 70.809 336.093 61.972 C 350.126 46.636 375.463 45.868 389.204 61.465 C 397.122 70.453 396.534 83.223 388.448 92.059 M 545.512 182.321 C 531.479 197.657 506.142 198.426 492.401 182.828 C 484.483 173.841 485.072 161.070 493.158 152.234 C 507.191 136.898 532.527 136.129 546.269 151.727 C 554.186 160.714 553.598 173.485 545.512 182.321 M 226.843 185.362 C 212.810 200.698 187.473 201.467 173.731 185.869 C 165.814 176.881 166.402 164.111 174.488 155.274 C 188.521 139.939 213.858 139.170 227.599 154.768 C 235.517 163.755 234.929 176.525 226.843 185.362 M 383.907 275.623 C 369.874 290.959 344.537 291.729 330.796 276.131 C 322.878 267.143 323.466 254.372 331.553 245.536 C 345.586 230.200 370.923 229.432 384.664 245.030 C 392.582 254.017 391.993 266.787 383.907 275.623 Z"/>
</g>
<g id="specs_2">
<path fill="#ff0000" fill-rule="evenodd" stroke="none" d="M 359.561 689.834 C 359.562 689.837 370.010 719.093 370.011 719.096 C 370.010 719.095 359.562 709.373 359.561 709.372 C 359.559 709.373 349.111 719.095 349.110 719.096 C 349.111 719.093 359.559 689.837 359.561 689.834 Z"/>
<path fill="#0000ff" fill-rule="evenodd" stroke="none" d="M 359.488 3.357 C 359.488 3.359 366.561 23.164 366.562 23.166 C 366.561 23.166 359.488 16.585 359.488 16.584 C 359.487 16.585 352.414 23.166 352.413 23.166 C 352.414 23.164 359.487 3.359 359.488 3.357 Z"/>
<path fill="#00ff00" fill-rule="evenodd" stroke="none" d="M 69.519 348.571 C 69.521 348.570 86.682 342.343 86.684 342.342 C 86.683 342.343 81.001 348.512 81.000 348.512 C 81.001 348.513 86.745 354.624 86.745 354.625 C 86.744 354.624 69.521 348.571 69.519 348.571 Z"/>
<path fill="#ffff00" fill-rule="evenodd" stroke="none" d="M 192.684 575.957 C 192.684 575.955 195.474 559.583 195.474 559.582 C 195.475 559.583 197.799 566.849 197.800 566.850 C 197.800 566.850 205.216 565.054 205.216 565.054 C 205.215 565.055 192.685 575.956 192.684 575.957 Z"/>
<path fill="#ffff00" fill-rule="evenodd" stroke="none" d="M 529.098 575.793 C 529.098 575.792 525.981 559.479 525.981 559.477 C 525.980 559.478 523.802 566.789 523.801 566.790 C 523.801 566.790 516.350 565.144 516.350 565.144 C 516.351 565.145 529.097 575.792 529.098 575.793 Z"/>
<path fill="#00ff00" fill-rule="evenodd" stroke="none" d="M 650.481 348.571 C 650.479 348.570 633.318 342.343 633.316 342.342 C 633.317 342.343 638.999 348.512 639.000 348.512 C 638.999 348.513 633.255 354.624 633.255 354.625 C 633.256 354.624 650.479 348.571 650.481 348.571 Z"/>
<path fill="#be0027" fill-rule="evenodd" stroke="none" d="M 359.488 679.788 C 359.489 679.784 371.666 645.689 371.667 645.685 C 371.666 645.687 359.489 657.016 359.488 657.017 C 359.486 657.016 347.310 645.687 347.308 645.685 C 347.310 645.689 359.486 679.784 359.488 679.788 Z"/>
<path fill="#00ffff" fill-rule="evenodd" stroke="none" d="M 211.997 90.426 C 211.997 90.427 214.466 104.919 214.466 104.920 C 214.467 104.920 216.525 98.487 216.525 98.487 C 216.526 98.487 223.089 100.076 223.090 100.076 C 223.089 100.075 211.998 90.427 211.997 90.426 Z"/>
<path fill="#00ffff" fill-rule="evenodd" stroke="none" d="M 509.786 90.570 C 509.785 90.572 507.026 105.012 507.026 105.013 C 507.026 105.012 505.097 98.540 505.097 98.540 C 505.096 98.540 498.501 99.996 498.501 99.997 C 498.502 99.996 509.784 90.571 509.786 90.570 Z"/>
</g>
</g>
</svg>
