<?xml version="1.0" encoding="utf-8"?>
<!-- Generator: Moho 13.0.3 build 635 -->
<!DOCTYPE svg PUBLIC "-//W3C//DTD SVG 1.1//EN" "http://www.w3.org/Graphics/SVG/1.1/DTD/svg11.dtd">
<svg version="1.1" id="Frame_0" xmlns="http://www.w3.org/2000/svg" xmlns:xlink="http://www.w3.org/1999/xlink" width="720px" height="720px">
<g id="cube">
<g id="cube">
<path fill="#ffffff" fill-rule="evenodd" stroke="none" d="M 360.000 14.187 C 360.028 14.204 640.946 176.392 640.974 176.408 C 640.974 176.440 640.974 500.816 640.974 500.849 C 640.946 500.865 453.658 608.996 360.000 663.069 C 359.972 663.053 79.051 500.863 79.026 500.849 C 79.026 392.702 79.026 284.555 79.026 176.408 C 79.054 176.392 359.975 14.202 360.000 14.187 Z"/>
<path fill="none" stroke="#000000" stroke-width="4" stroke-linecap="round" stroke-linejoin="round" d="M 360.000 14.187 C 359.975 14.202 79.054 176.392 79.026 176.408 C 176.899 230.984 359.972 338.612 360.000 338.628 C 360.028 338.612 542.683 232.079 640.974 176.408 C 640.946 176.392 360.028 14.204 360.000 14.187 M 79.026 176.408 C 79.026 284.555 79.026 392.702 79.026 500.849 C 79.051 500.863 359.972 663.053 360.000 663.069 C 358.696 550.771 360.000 338.661 360.000 338.628 M 640.974 500.849 C 640.974 500.816 640.974 176.440 640.974 176.408 M 360.000 663.069 C 453.658 608.996 640.946 500.865 640.974 500.849 "/>
</g>
<g id="specs_2">
<path fill="#ff00ff" fill-rule="evenodd" stroke="none" d="M 163.292 535.336 C 163.332 535.336 556.668 535.336 556.708 535.336 C 556.708 535.297 556.708 141.960 556.708 141.921 C 556.668 141.921 163.332 141.921 163.292 141.921 C 163.292 141.960 163.292 535.297 163.292 535.336 Z"/>
<path fill="#ff0000" fill-rule="evenodd" stroke="none" d="M 359.561 689.834 C 359.562 689.837 370.010 719.093 370.011 719.096 C 370.010 719.095 359.562 709.373 359.561 709.372 C 359.559 709.373 349.111 719.095 349.110 719.096 C 349.111 719.093 359.559 689.837 359.561 689.834 Z"/>
<path fill="#0000ff" fill-rule="evenodd" stroke="none" d="M 359.488 3.357 C 359.488 3.359 366.561 23.164 366.562 23.166 C 366.561 23.166 359.488 16.585 359.488 16.584 C 359.487 16.585 352.414 23.166 352.413 23.166 C 352.414 23.164 359.487 3.359 359.488 3.357 Z"/>
<path fill="#00ff00" fill-rule="evenodd" stroke="none" d="M 69.519 348.571 C 69.521 348.570 86.682 342.343 86.684 342.342 C 86.683 342.343 81.001 348.512 81.000 348.512 C 81.001 348.513 86.745 354.624 86.745 354.625 C 86.744 354.624 69.521 348.571 69.519 348.571 Z"/>
<path fill="#ffff00" fill-rule="evenodd" stroke="none" d="M 192.684 575.957 C 192.684 575.955 195.474 559.583 195.474 559.582 C 195.475 559.583 197.799 566.849 197.800 566.850 C 197.800 566.850 205.216 565.054 205.216 565.054 C 205.215 565.055 192.685 575.956 192.684 575.957 Z"/>
<path fill="#ffff00" fill-rule="evenodd" stroke="none" d="M 529.098 575.793 C 529.098 575.792 525.981 559.479 525.981 559.477 C 525.980 559.478 523.802 566.789 523.801 566.790 C 523.801 566.790 516.350 565.144 516.350 565.144 C 516.351 565.145 529.097 575.792 529.098 575.793 Z"/>
<path fill="#00ff00" fill-rule="evenodd" stroke="none" d="M 650.481 348.571 C 650.479 348.570 633.318 342.343 633.316 342.342 C 633.317 342.343 638.999 348.512 639.000 348.512 C 638.999 348.513 633.255 354.624 633.255 354.625 C 633.256 354.624 650.479 348.571 650.481 348.571 Z"/>
<path fill="#be0027" fill-rule="evenodd" stroke="none" d="M 359.488 679.788 C 359.489 679.784 371.666 645.689 371.667 645.685 C 371.666 645.687 359.489 657.016 359.488 657.017 C 359.486 657.016 347.310 645.687 347.308 645.685 C 347.310 645.689 359.486 679.784 359.488 679.788 Z"/>
<path fill="#00ffff" fill-rule="evenodd" stroke="none" d="M 211.997 90.426 C 211.997 90.427 214.466 104.919 214.467 104.920 C 214.467 104.920 216.525 98.487 216.525 98.487 C 216.526 98.487 223.089 100.076 223.090 100.076 C 223.089 100.075 211.998 90.426 211.997 90.426 Z"/>
<path fill="#00ffff" fill-rule="evenodd" stroke="none" d="M 509.786 90.570 C 509.785 90.572 507.026 105.012 507.026 105.013 C 507.026 105.012 505.097 98.540 505.097 98.539 C 505.096 98.540 498.501 99.997 498.501 99.997 C 498.502 99.996 509.785 90.571 509.786 90.570 Z"/>
</g>
</g>
</svg>
