<?xml version="1.0" encoding="utf-8"?>
<!-- Generator: Moho 12.5 build 22414 -->
<!DOCTYPE svg PUBLIC "-//W3C//DTD SVG 1.1//EN" "http://www.w3.org/Graphics/SVG/1.1/DTD/svg11.dtd">
<svg version="1.1" id="Frame_0" xmlns="http://www.w3.org/2000/svg" xmlns:xlink="http://www.w3.org/1999/xlink" width="720px" height="720px">
<g id="cube_die">
<g id="cube">
<path fill="#ffffff" fill-rule="evenodd" stroke="none" d="M 360.000 14.187 C 360.028 14.204 640.946 176.392 640.974 176.408 C 640.974 176.440 640.974 500.816 640.974 500.849 C 640.946 500.865 453.658 608.996 360.000 663.069 C 359.972 663.053 79.051 500.863 79.026 500.849 C 79.026 392.702 79.026 284.555 79.026 176.408 C 79.054 176.392 359.975 14.202 360.000 14.187 Z"/>
<path fill="none" stroke="#000000" stroke-width="4" stroke-linecap="round" stroke-linejoin="round" d="M 360.000 14.187 C 359.975 14.202 79.054 176.392 79.026 176.408 C 176.899 230.984 359.972 338.612 360.000 338.628 C 360.028 338.612 542.683 232.079 640.974 176.408 C 640.946 176.392 360.028 14.204 360.000 14.187 M 79.026 176.408 C 79.026 284.555 79.026 392.702 79.026 500.849 C 79.051 500.863 359.972 663.053 360.000 663.069 C 358.696 550.771 360.000 338.661 360.000 338.628 M 640.974 500.849 C 640.974 500.816 640.974 176.440 640.974 176.408 M 360.000 663.069 C 453.658 608.996 640.946 500.865 640.974 500.849 "/>
<path fill="none" stroke="#000000" stroke-width="1" stroke-linecap="butt" stroke-linejoin="round" d="M 360.000 663.069 C 359.972 663.053 79.051 500.863 79.026 500.849 "/>
<path fill="none" stroke="#000000" stroke-width="1" stroke-linecap="butt" stroke-linejoin="round" d="M 79.026 500.849 C 79.026 392.702 79.026 284.555 79.026 176.408 "/>
<path fill="#000000" fill-rule="evenodd" stroke="none" d="M 360.000 663.069 C 359.972 663.053 79.051 500.863 79.026 500.849 C 79.026 392.702 79.026 284.555 79.026 176.408 C 176.899 230.984 359.972 338.612 360.000 338.628 C 360.000 338.661 358.696 550.771 360.000 663.069 Z"/>
<path fill="none" stroke="#000000" stroke-width="4" stroke-linecap="round" stroke-linejoin="round" d="M 79.026 176.408 C 79.026 284.555 79.026 392.702 79.026 500.849 C 79.051 500.863 359.972 663.053 360.000 663.069 "/>
<path fill="none" stroke="#ffffff" stroke-width="4" stroke-linecap="round" stroke-linejoin="round" d="M 360.000 663.069 C 359.972 663.053 79.051 500.863 79.026 500.849 C 79.026 392.702 79.026 284.555 79.026 176.408 "/>
</g>
<g id="dots2">
<path fill="#ffffff" fill-rule="evenodd" stroke="none" d="M 175.223 478.169 C 182.193 456.092 168.792 431.249 146.095 426.683 C 133.001 424.049 120.989 431.728 116.968 444.465 C 109.998 466.542 123.398 491.385 146.095 495.950 C 159.189 498.585 171.202 490.906 175.223 478.169 M 262.605 528.727 C 266.626 515.990 278.639 508.311 291.732 510.945 C 314.429 515.511 327.830 540.354 320.860 562.431 C 316.839 575.168 304.826 582.846 291.732 580.212 C 269.035 575.646 255.635 550.804 262.605 528.727 M 248.041 433.716 C 255.011 411.639 241.611 386.796 218.914 382.230 C 205.820 379.596 193.807 387.275 189.786 400.011 C 182.816 422.089 196.217 446.932 218.914 451.497 C 232.008 454.132 244.020 446.453 248.041 433.716 M 175.223 305.001 C 171.202 317.738 159.189 325.417 146.095 322.782 C 123.398 318.217 109.998 293.374 116.968 271.297 C 120.989 258.560 133.001 250.881 146.095 253.515 C 168.792 258.081 182.193 282.924 175.223 305.001 M 320.860 389.263 C 327.830 367.186 314.429 342.343 291.732 337.777 C 278.639 335.143 266.626 342.822 262.605 355.558 C 255.635 377.636 269.035 402.478 291.732 407.044 C 304.826 409.678 316.839 402.000 320.860 389.263 Z"/>
<path fill="#000000" fill-rule="evenodd" stroke="none" d="M 548.217 478.169 C 541.247 456.092 554.647 431.249 577.344 426.684 C 590.438 424.049 602.450 431.728 606.471 444.464 C 613.441 466.542 600.041 491.385 577.344 495.951 C 564.250 498.585 552.237 490.906 548.217 478.169 M 460.834 528.727 C 456.813 515.990 444.801 508.311 431.707 510.945 C 409.010 515.511 395.609 540.354 402.579 562.431 C 406.600 575.168 418.613 582.846 431.707 580.212 C 454.404 575.646 467.804 550.804 460.834 528.727 M 548.217 305.001 C 552.238 317.738 564.250 325.417 577.344 322.782 C 600.041 318.216 613.441 293.374 606.471 271.297 C 602.450 258.560 590.438 250.881 577.344 253.515 C 554.647 258.081 541.246 282.924 548.217 305.001 M 402.579 389.263 C 395.609 367.186 409.010 342.343 431.707 337.777 C 444.801 335.143 456.813 342.822 460.834 355.558 C 467.804 377.636 454.404 402.479 431.707 407.044 C 418.613 409.679 406.600 402.000 402.579 389.263 Z"/>
<path fill="#000000" fill-rule="evenodd" stroke="none" d="M 330.007 187.367 C 321.178 177.345 321.822 163.102 330.842 153.252 C 346.477 136.177 374.691 135.361 389.994 152.734 C 398.822 162.756 398.178 176.999 389.159 186.850 C 373.524 203.925 345.309 204.741 330.007 187.367 Z"/>
</g>
<g id="specs_2">
<path fill="#ff0000" fill-rule="evenodd" stroke="none" d="M 359.561 689.834 C 359.562 689.837 370.010 719.093 370.011 719.096 C 370.010 719.095 359.562 709.373 359.561 709.372 C 359.559 709.373 349.111 719.095 349.110 719.096 C 349.111 719.093 359.559 689.837 359.561 689.834 Z"/>
<path fill="#0000ff" fill-rule="evenodd" stroke="none" d="M 359.488 3.357 C 359.488 3.359 366.561 23.164 366.562 23.166 C 366.561 23.166 359.488 16.585 359.488 16.584 C 359.487 16.585 352.414 23.166 352.413 23.166 C 352.414 23.164 359.487 3.359 359.488 3.357 Z"/>
<path fill="#00ff00" fill-rule="evenodd" stroke="none" d="M 69.519 348.571 C 69.521 348.570 86.682 342.343 86.684 342.342 C 86.683 342.343 81.001 348.512 81.000 348.512 C 81.001 348.513 86.745 354.624 86.745 354.625 C 86.744 354.624 69.521 348.571 69.519 348.571 Z"/>
<path fill="#ffff00" fill-rule="evenodd" stroke="none" d="M 192.684 575.957 C 192.684 575.955 195.474 559.583 195.474 559.582 C 195.475 559.583 197.799 566.849 197.800 566.850 C 197.800 566.850 205.216 565.054 205.216 565.054 C 205.215 565.055 192.685 575.956 192.684 575.957 Z"/>
<path fill="#ffff00" fill-rule="evenodd" stroke="none" d="M 529.098 575.793 C 529.098 575.792 525.981 559.479 525.981 559.477 C 525.980 559.478 523.802 566.789 523.801 566.790 C 523.801 566.790 516.350 565.144 516.350 565.144 C 516.351 565.145 529.097 575.792 529.098 575.793 Z"/>
<path fill="#00ff00" fill-rule="evenodd" stroke="none" d="M 650.481 348.571 C 650.479 348.570 633.318 342.343 633.316 342.342 C 633.317 342.343 638.999 348.512 639.000 348.512 C 638.999 348.513 633.255 354.624 633.255 354.625 C 633.256 354.624 650.479 348.571 650.481 348.571 Z"/>
<path fill="#be0027" fill-rule="evenodd" stroke="none" d="M 359.488 679.788 C 359.489 679.784 371.666 645.689 371.667 645.685 C 371.666 645.687 359.489 657.016 359.488 657.017 C 359.486 657.016 347.310 645.687 347.308 645.685 C 347.310 645.689 359.486 679.784 359.488 679.788 Z"/>
<path fill="#00ffff" fill-rule="evenodd" stroke="none" d="M 211.997 90.426 C 211.997 90.427 214.466 104.919 214.466 104.920 C 214.467 104.920 216.525 98.487 216.525 98.487 C 216.526 98.487 223.089 100.076 223.090 100.076 C 223.089 100.075 211.998 90.427 211.997 90.426 Z"/>
<path fill="#00ffff" fill-rule="evenodd" stroke="none" d="M 509.786 90.570 C 509.785 90.572 507.026 105.012 507.026 105.013 C 507.026 105.012 505.097 98.540 505.097 98.540 C 505.096 98.540 498.501 99.996 498.501 99.997 C 498.502 99.996 509.784 90.571 509.786 90.570 Z"/>
</g>
</g>
</svg>
