<?xml version="1.0" encoding="utf-8"?>
<!-- Generator: Moho 13.0.3 build 635 -->
<!DOCTYPE svg PUBLIC "-//W3C//DTD SVG 1.1//EN" "http://www.w3.org/Graphics/SVG/1.1/DTD/svg11.dtd">
<svg version="1.1" id="Frame_0" xmlns="http://www.w3.org/2000/svg" xmlns:xlink="http://www.w3.org/1999/xlink" width="720px" height="720px">
<g id="cup">
<g id="cup">
<path fill="#ffffff" fill-rule="evenodd" stroke="#000000" stroke-width="11" stroke-linecap="round" stroke-linejoin="round" d="M 98.490 67.024 C 98.517 67.021 184.870 43.331 360.000 43.331 C 535.130 43.331 621.483 67.021 621.510 67.024 C 621.505 67.054 637.376 285.421 576.465 367.581 C 536.568 421.394 410.421 443.304 400.435 460.524 C 392.920 473.484 392.222 597.804 400.435 610.333 C 410.821 626.176 578.538 657.229 576.465 680.342 C 575.053 696.075 426.625 703.674 360.000 703.674 C 293.375 703.674 143.362 695.664 143.535 680.342 C 143.814 655.668 309.179 626.176 319.565 610.333 C 327.778 597.804 327.080 473.484 319.565 460.524 C 309.579 443.304 183.432 421.394 143.535 367.581 C 82.624 285.421 98.495 67.054 98.490 67.024 Z"/>
<path fill="none" stroke="#000000" stroke-width="11" stroke-linecap="round" stroke-linejoin="round" d="M 98.490 67.024 C 98.517 67.026 231.603 83.835 360.000 83.835 C 488.397 83.835 534.340 72.628 621.510 67.024 "/>
</g>
<g id="specs_2">
<path fill="#ff0000" fill-rule="evenodd" stroke="none" d="M 356.746 691.018 C 363.976 691.018 369.808 696.850 369.808 704.080 C 369.808 711.310 363.976 717.142 356.746 717.143 C 349.516 717.143 343.683 711.310 343.683 704.080 C 343.683 696.850 349.516 691.018 356.746 691.018 Z"/>
<path fill="#ffff00" fill-rule="evenodd" stroke="none" d="M 517.454 694.306 C 517.454 687.076 523.286 681.243 530.517 681.243 C 537.747 681.244 543.579 687.076 543.579 694.306 C 543.579 701.536 537.746 707.368 530.517 707.368 C 523.286 707.368 517.454 701.536 517.454 694.306 M 185.817 695.505 C 185.817 688.275 191.650 682.442 198.880 682.442 C 206.110 682.442 211.943 688.275 211.943 695.505 C 211.943 702.734 206.110 708.567 198.880 708.567 C 191.650 708.567 185.817 702.735 185.817 695.505 Z"/>
<path fill="#00ff00" fill-rule="evenodd" stroke="none" d="M 113.942 237.003 C 113.942 229.773 108.108 223.941 100.878 223.941 C 93.648 223.941 87.816 229.774 87.816 237.003 C 87.816 244.233 93.648 250.066 100.878 250.066 C 108.108 250.066 113.942 244.234 113.942 237.003 M 604.125 237.003 C 604.125 229.773 609.958 223.941 617.188 223.941 C 624.418 223.941 630.251 229.774 630.251 237.003 C 630.251 244.233 624.418 250.066 617.188 250.066 C 609.958 250.066 604.125 244.234 604.125 237.003 Z"/>
<path fill="#00ffff" fill-rule="evenodd" stroke="none" d="M 154.441 58.915 C 154.441 51.685 148.607 45.853 141.377 45.853 C 134.147 45.853 128.315 51.685 128.315 58.915 C 128.315 66.145 134.147 71.977 141.377 71.978 C 148.607 71.978 154.441 66.146 154.441 58.915 M 560.029 58.915 C 560.029 51.685 565.862 45.853 573.093 45.853 C 580.323 45.853 586.155 51.685 586.155 58.915 C 586.155 66.145 580.323 71.977 573.093 71.978 C 565.862 71.978 560.029 66.146 560.029 58.915 Z"/>
<path fill="#0000ff" fill-rule="evenodd" stroke="none" d="M 356.746 30.019 C 363.976 30.019 369.808 35.851 369.808 43.081 C 369.808 50.311 363.976 56.143 356.746 56.143 C 349.516 56.143 343.683 50.311 343.683 43.081 C 343.683 35.851 349.516 30.019 356.746 30.019 Z"/>
<path fill="#ff00ff" fill-rule="evenodd" stroke="none" d="M 155.872 111.786 C 155.913 111.786 564.087 111.786 564.128 111.786 C 564.128 111.812 564.128 374.767 564.128 374.794 C 564.087 374.794 155.913 374.794 155.872 374.794 C 155.872 374.767 155.872 111.812 155.872 111.786 Z"/>
</g>
</g>
</svg>
