<?xml version="1.0" encoding="utf-8"?>
<!-- Generator: Moho 12.3 build 22017 -->
<!DOCTYPE svg PUBLIC "-//W3C//DTD SVG 1.1//EN" "http://www.w3.org/Graphics/SVG/1.1/DTD/svg11.dtd">
<svg version="1.1" id="Frame_0" xmlns="http://www.w3.org/2000/svg" xmlns:xlink="http://www.w3.org/1999/xlink" width="720px" height="720px">
<g id="cup">
<g id="cup">
<path fill="#ffffff" fill-rule="evenodd" stroke="#000000" stroke-width="4" stroke-linecap="round" stroke-linejoin="round" d="M 134.770 96.040 C 134.793 96.038 209.166 75.634 360.000 75.634 C 510.834 75.634 585.207 96.038 585.230 96.040 C 585.226 96.066 598.895 284.139 546.434 354.900 C 512.073 401.248 403.426 420.118 394.825 434.949 C 388.353 446.111 387.752 553.184 394.825 563.975 C 403.771 577.620 548.220 604.365 546.434 624.272 C 545.218 637.822 417.382 644.366 360.000 644.366 C 302.618 644.366 173.417 637.468 173.566 624.272 C 173.806 603.020 316.229 577.620 325.175 563.975 C 332.249 553.184 331.647 446.111 325.175 434.949 C 316.574 420.118 207.927 401.248 173.566 354.900 C 121.105 284.139 134.774 96.066 134.770 96.040 Z"/>
<path fill="none" stroke="#000000" stroke-width="4" stroke-linecap="round" stroke-linejoin="round" d="M 134.770 96.040 C 134.793 96.041 249.416 110.519 360.000 110.519 C 470.584 110.519 510.153 100.866 585.230 96.040 "/>
</g>
<g id="arrows">
<path fill="#ff00ff" fill-rule="evenodd" stroke="none" d="M 229.413 382.670 C 229.439 382.670 490.561 382.670 490.587 382.670 C 490.587 382.644 490.587 121.522 490.587 121.496 C 490.561 121.496 229.439 121.496 229.413 121.496 C 229.413 121.522 229.413 382.644 229.413 382.670 Z"/>
<path fill="#ff0000" fill-rule="evenodd" stroke="none" d="M 360.000 642.886 C 360.001 642.890 372.432 677.696 372.433 677.699 C 372.432 677.698 360.001 666.132 360.000 666.131 C 359.999 666.132 347.568 677.698 347.567 677.699 C 347.568 677.696 359.999 642.890 360.000 642.886 Z"/>
<path fill="#0000ff" fill-rule="evenodd" stroke="none" d="M 360.000 8.962 C 360.001 8.964 367.221 29.182 367.222 29.184 C 367.221 29.184 360.001 22.465 360.000 22.465 C 359.999 22.465 352.779 29.184 352.778 29.184 C 352.779 29.182 359.999 8.964 360.000 8.962 Z"/>
<path fill="#00ff00" fill-rule="evenodd" stroke="none" d="M 124.635 247.581 C 124.637 247.581 144.819 240.258 144.821 240.257 C 144.820 240.258 138.138 247.512 138.138 247.513 C 138.138 247.514 144.893 254.701 144.893 254.701 C 144.891 254.701 124.637 247.582 124.635 247.581 Z"/>
<path fill="#ffff00" fill-rule="evenodd" stroke="none" d="M 193.246 644.246 C 193.247 644.244 202.208 624.734 202.209 624.732 C 202.209 624.733 202.680 634.585 202.680 634.586 C 202.681 634.586 212.541 634.825 212.542 634.825 C 212.540 634.826 193.248 644.245 193.246 644.246 Z"/>
<path fill="#ffff00" fill-rule="evenodd" stroke="none" d="M 526.978 644.007 C 526.977 644.005 517.627 624.679 517.626 624.677 C 517.626 624.678 517.352 634.537 517.352 634.538 C 517.351 634.538 507.498 634.975 507.497 634.975 C 507.499 634.976 526.976 644.006 526.978 644.007 Z"/>
<path fill="#00ff00" fill-rule="evenodd" stroke="none" d="M 596.411 247.581 C 596.409 247.581 576.227 240.258 576.225 240.257 C 576.226 240.258 582.908 247.512 582.908 247.513 C 582.908 247.514 576.153 254.701 576.153 254.701 C 576.155 254.701 596.409 247.582 596.411 247.581 Z"/>
<path fill="#00ffff" fill-rule="evenodd" stroke="none" d="M 590.349 84.680 C 590.349 84.682 583.181 104.919 583.181 104.921 C 583.181 104.920 581.823 95.151 581.823 95.150 C 581.822 95.150 571.981 95.800 571.980 95.800 C 571.982 95.799 590.347 84.681 590.349 84.680 Z"/>
<path fill="#00ffff" fill-rule="evenodd" stroke="none" d="M 125.358 85.351 C 125.358 85.352 133.859 105.067 133.860 105.069 C 133.860 105.068 134.563 95.230 134.563 95.229 C 134.564 95.229 144.426 95.221 144.427 95.221 C 144.425 95.220 125.360 85.352 125.358 85.351 Z"/>
</g>
</g>
</svg>
