<?xml version="1.0" encoding="utf-8"?>
<!-- Generator: Moho 12.5 build 22414 -->
<!DOCTYPE svg PUBLIC "-//W3C//DTD SVG 1.1//EN" "http://www.w3.org/Graphics/SVG/1.1/DTD/svg11.dtd">
<svg version="1.1" id="Frame_0" xmlns="http://www.w3.org/2000/svg" xmlns:xlink="http://www.w3.org/1999/xlink" width="720px" height="720px">
<g id="cup">
<g id="cup">
<path fill="#ffffff" fill-rule="evenodd" stroke="#000000" stroke-width="4" stroke-linecap="round" stroke-linejoin="round" d="M 170.820 70.418 C 170.839 70.416 233.093 50.012 360.000 50.012 C 486.907 50.012 549.161 70.416 549.180 70.418 C 549.178 70.444 578.782 256.247 530.895 329.278 C 501.762 373.706 402.505 395.534 394.825 409.327 C 388.549 420.600 387.752 527.562 394.825 538.353 C 403.771 551.998 548.220 578.743 546.434 598.650 C 545.218 612.200 417.382 618.744 360.000 618.744 C 302.618 618.744 173.417 611.846 173.566 598.650 C 173.806 577.398 316.229 551.998 325.175 538.353 C 332.249 527.562 331.451 420.600 325.175 409.327 C 317.495 395.534 218.238 373.706 189.105 329.278 C 141.218 256.247 170.822 70.444 170.820 70.418 Z"/>
<path fill="#000000" fill-rule="evenodd" stroke="none" d="M 360.000 85.091 C 443.008 85.091 484.223 78.445 484.223 76.626 C 484.223 74.807 443.008 68.161 360.000 68.161 C 276.992 68.161 235.777 74.807 235.777 76.626 C 235.777 78.445 276.992 85.091 360.000 85.091 Z"/>
<path fill="none" stroke="#000000" stroke-width="4" stroke-linecap="round" stroke-linejoin="round" d="M 170.820 70.418 C 170.839 70.420 267.036 84.897 360.000 84.897 C 452.964 84.897 486.120 75.245 549.180 70.418 "/>
</g>
<g id="specs">
<path fill="#ff00ff" fill-rule="evenodd" stroke="none" d="M 229.413 348.784 C 229.439 348.784 490.561 348.784 490.587 348.784 C 490.587 348.760 490.587 104.095 490.587 104.070 C 490.561 104.070 229.439 104.070 229.413 104.070 C 229.413 104.095 229.413 348.760 229.413 348.784 Z"/>
<path fill="#ff0000" fill-rule="evenodd" stroke="none" d="M 360.000 668.935 C 360.001 668.938 372.432 703.744 372.433 703.748 C 372.432 703.747 360.001 692.180 360.000 692.179 C 359.999 692.180 347.568 703.747 347.567 703.748 C 347.568 703.744 359.999 668.938 360.000 668.935 Z"/>
<path fill="#0000ff" fill-rule="evenodd" stroke="none" d="M 360.000 35.848 C 360.001 35.850 367.221 56.069 367.222 56.071 C 367.221 56.070 360.001 49.351 360.000 49.351 C 359.999 49.351 352.779 56.070 352.778 56.071 C 352.779 56.069 359.999 35.850 360.000 35.848 Z"/>
<path fill="#00ff00" fill-rule="evenodd" stroke="none" d="M 153.123 221.936 C 153.124 221.935 170.824 215.513 170.826 215.512 C 170.825 215.513 164.965 221.876 164.964 221.876 C 164.965 221.877 170.889 228.180 170.889 228.180 C 170.888 228.180 153.124 221.936 153.123 221.936 Z"/>
<path fill="#ffff00" fill-rule="evenodd" stroke="none" d="M 193.246 618.624 C 193.247 618.622 202.208 599.113 202.209 599.111 C 202.209 599.112 202.680 608.963 202.680 608.964 C 202.681 608.964 212.541 609.203 212.542 609.203 C 212.540 609.204 193.248 618.623 193.246 618.624 Z"/>
<path fill="#ffff00" fill-rule="evenodd" stroke="none" d="M 526.978 618.385 C 526.977 618.383 517.627 599.057 517.626 599.055 C 517.626 599.056 517.352 608.915 517.352 608.916 C 517.351 608.916 507.498 609.353 507.497 609.353 C 507.499 609.354 526.976 618.384 526.978 618.385 Z"/>
<path fill="#00ff00" fill-rule="evenodd" stroke="none" d="M 566.877 221.936 C 566.876 221.935 549.176 215.513 549.174 215.512 C 549.175 215.513 555.035 221.876 555.036 221.876 C 555.035 221.877 549.111 228.180 549.111 228.180 C 549.112 228.180 566.876 221.936 566.877 221.936 Z"/>
<path fill="#00ffff" fill-rule="evenodd" stroke="none" d="M 553.914 63.525 C 553.914 63.527 547.900 80.509 547.899 80.511 C 547.899 80.510 546.760 72.312 546.760 72.311 C 546.759 72.311 538.501 72.857 538.500 72.857 C 538.502 72.856 553.913 63.526 553.914 63.525 Z"/>
<path fill="#00ffff" fill-rule="evenodd" stroke="none" d="M 166.086 64.088 C 166.086 64.090 173.219 80.633 173.220 80.635 C 173.220 80.634 173.810 72.378 173.810 72.378 C 173.811 72.378 182.087 72.371 182.088 72.371 C 182.086 72.370 166.087 64.089 166.086 64.088 Z"/>
<path fill="#be0027" fill-rule="evenodd" stroke="none" d="M 359.957 633.977 C 359.958 633.975 369.002 608.651 369.003 608.648 C 369.002 608.649 359.958 617.064 359.957 617.065 C 359.957 617.064 350.913 608.649 350.912 608.648 C 350.913 608.651 359.957 633.975 359.957 633.977 Z"/>
</g>
</g>
</svg>
