<?xml version="1.0" encoding="utf-8"?>
<!-- Generator: Moho 12.5 build 22414 -->
<!DOCTYPE svg PUBLIC "-//W3C//DTD SVG 1.1//EN" "http://www.w3.org/Graphics/SVG/1.1/DTD/svg11.dtd">
<svg version="1.1" id="Frame_0" xmlns="http://www.w3.org/2000/svg" xmlns:xlink="http://www.w3.org/1999/xlink" width="720px" height="720px">
<g id="cup">
<g id="cup">
<path fill="#ffffff" fill-rule="evenodd" stroke="#000000" stroke-width="4" stroke-linecap="round" stroke-linejoin="round" d="M 134.770 96.040 C 134.793 96.038 209.166 75.634 360.000 75.634 C 510.834 75.634 585.207 96.038 585.230 96.040 C 585.226 96.066 598.895 284.139 546.434 354.900 C 512.073 401.248 403.426 420.118 394.825 434.949 C 388.353 446.111 387.752 553.184 394.825 563.975 C 403.771 577.620 548.220 604.365 546.434 624.272 C 545.218 637.822 417.382 644.366 360.000 644.366 C 302.618 644.366 173.417 637.468 173.566 624.272 C 173.806 603.020 316.229 577.620 325.175 563.975 C 332.249 553.184 331.647 446.111 325.175 434.949 C 316.574 420.118 207.927 401.248 173.566 354.900 C 121.105 284.139 134.774 96.066 134.770 96.040 Z"/>
<path fill="#000000" fill-rule="evenodd" stroke="none" d="M 360.000 110.713 C 458.758 110.713 507.894 104.412 507.894 102.248 C 507.894 100.083 458.758 93.782 360.000 93.782 C 261.242 93.782 212.106 100.083 212.106 102.248 C 212.106 104.412 261.242 110.713 360.000 110.713 Z"/>
<path fill="none" stroke="#000000" stroke-width="4" stroke-linecap="round" stroke-linejoin="round" d="M 134.770 96.040 C 134.793 96.041 249.416 110.519 360.000 110.519 C 470.584 110.519 510.153 100.866 585.230 96.040 "/>
</g>
<g id="specs">
<path fill="#ff00ff" fill-rule="evenodd" stroke="none" d="M 229.413 382.670 C 229.439 382.670 490.561 382.670 490.587 382.670 C 490.587 382.644 490.587 121.522 490.587 121.496 C 490.561 121.496 229.439 121.496 229.413 121.496 C 229.413 121.522 229.413 382.644 229.413 382.670 Z"/>
<path fill="#ff0000" fill-rule="evenodd" stroke="none" d="M 360.000 647.575 C 360.001 647.578 372.432 682.384 372.433 682.388 C 372.432 682.386 360.001 670.820 360.000 670.819 C 359.999 670.820 347.568 682.386 347.567 682.388 C 347.568 682.384 359.999 647.578 360.000 647.575 Z"/>
<path fill="#0000ff" fill-rule="evenodd" stroke="none" d="M 360.000 61.470 C 360.001 61.472 367.221 81.690 367.222 81.692 C 367.221 81.692 360.001 74.973 360.000 74.973 C 359.999 74.973 352.779 81.692 352.778 81.692 C 352.779 81.690 359.999 61.472 360.000 61.470 Z"/>
<path fill="#00ff00" fill-rule="evenodd" stroke="none" d="M 124.635 247.581 C 124.637 247.580 144.819 240.258 144.821 240.257 C 144.820 240.258 138.138 247.512 138.138 247.513 C 138.138 247.514 144.893 254.700 144.893 254.701 C 144.891 254.700 124.637 247.582 124.635 247.581 Z"/>
<path fill="#ffff00" fill-rule="evenodd" stroke="none" d="M 193.246 644.246 C 193.247 644.244 202.208 624.734 202.209 624.732 C 202.209 624.733 202.680 634.585 202.680 634.586 C 202.681 634.586 212.541 634.825 212.542 634.825 C 212.540 634.826 193.248 644.245 193.246 644.246 Z"/>
<path fill="#ffff00" fill-rule="evenodd" stroke="none" d="M 526.978 644.007 C 526.977 644.005 517.627 624.679 517.626 624.677 C 517.626 624.678 517.352 634.537 517.352 634.538 C 517.351 634.538 507.498 634.975 507.497 634.975 C 507.499 634.976 526.976 644.006 526.978 644.007 Z"/>
<path fill="#00ff00" fill-rule="evenodd" stroke="none" d="M 596.411 247.581 C 596.409 247.580 576.227 240.258 576.225 240.257 C 576.226 240.258 582.908 247.512 582.909 247.513 C 582.908 247.514 576.153 254.700 576.153 254.701 C 576.155 254.700 596.409 247.582 596.411 247.581 Z"/>
<path fill="#00ffff" fill-rule="evenodd" stroke="none" d="M 590.349 87.493 C 590.349 87.495 583.181 107.732 583.181 107.734 C 583.181 107.733 581.823 97.964 581.823 97.963 C 581.822 97.963 571.981 98.613 571.980 98.613 C 571.982 98.612 590.347 87.494 590.349 87.493 Z"/>
<path fill="#00ffff" fill-rule="evenodd" stroke="none" d="M 128.170 88.164 C 128.171 88.165 136.672 107.880 136.673 107.882 C 136.673 107.881 137.375 98.043 137.375 98.042 C 137.376 98.042 147.239 98.034 147.240 98.034 C 147.238 98.033 128.172 88.164 128.170 88.164 Z"/>
</g>
</g>
</svg>
