<?xml version="1.0" encoding="utf-8"?>
<!-- Generator: Moho 12.5 build 22414 -->
<!DOCTYPE svg PUBLIC "-//W3C//DTD SVG 1.1//EN" "http://www.w3.org/Graphics/SVG/1.1/DTD/svg11.dtd">
<svg version="1.1" id="Frame_0" xmlns="http://www.w3.org/2000/svg" xmlns:xlink="http://www.w3.org/1999/xlink" width="720px" height="720px">
<g id="cup">
<g id="cup">
<path fill="#ffffff" fill-rule="evenodd" stroke="#000000" stroke-width="4" stroke-linecap="round" stroke-linejoin="round" d="M 134.770 70.418 C 134.793 70.416 209.166 50.012 360.000 50.012 C 510.834 50.012 585.207 70.416 585.230 70.418 C 585.226 70.444 598.895 258.517 546.434 329.278 C 512.073 375.626 403.426 394.496 394.825 409.327 C 388.353 420.489 387.752 527.562 394.825 538.353 C 403.771 551.998 548.220 578.743 546.434 598.650 C 545.218 612.200 417.382 618.744 360.000 618.744 C 302.618 618.744 173.417 611.846 173.566 598.650 C 173.806 577.398 316.229 551.998 325.175 538.353 C 332.249 527.562 331.647 420.489 325.175 409.327 C 316.574 394.496 207.927 375.626 173.566 329.278 C 121.105 258.517 134.774 70.444 134.770 70.418 Z"/>
<path fill="#000000" fill-rule="evenodd" stroke="none" d="M 360.000 85.091 C 458.758 85.091 507.894 78.790 507.894 76.626 C 507.894 74.461 458.758 68.161 360.000 68.161 C 261.242 68.161 212.106 74.461 212.106 76.626 C 212.106 78.790 261.242 85.091 360.000 85.091 Z"/>
<path fill="none" stroke="#000000" stroke-width="4" stroke-linecap="round" stroke-linejoin="round" d="M 134.770 70.418 C 134.793 70.420 249.416 84.897 360.000 84.897 C 470.584 84.897 510.153 75.244 585.230 70.418 "/>
</g>
<g id="specs">
<path fill="#ff00ff" fill-rule="evenodd" stroke="none" d="M 229.413 348.784 C 229.439 348.784 490.561 348.784 490.587 348.784 C 490.587 348.760 490.587 104.094 490.587 104.070 C 490.561 104.070 229.439 104.070 229.413 104.070 C 229.413 104.094 229.413 348.760 229.413 348.784 Z"/>
<path fill="#ff0000" fill-rule="evenodd" stroke="none" d="M 360.000 668.934 C 360.001 668.938 372.432 703.744 372.433 703.748 C 372.432 703.746 360.001 692.180 360.000 692.179 C 359.999 692.180 347.568 703.746 347.567 703.748 C 347.568 703.744 359.999 668.938 360.000 668.934 Z"/>
<path fill="#0000ff" fill-rule="evenodd" stroke="none" d="M 360.000 35.848 C 360.001 35.850 367.221 56.068 367.222 56.070 C 367.221 56.070 360.001 49.351 360.000 49.351 C 359.999 49.351 352.779 56.070 352.778 56.070 C 352.779 56.068 359.999 35.850 360.000 35.848 Z"/>
<path fill="#00ff00" fill-rule="evenodd" stroke="none" d="M 124.635 221.959 C 124.637 221.959 144.819 214.636 144.821 214.635 C 144.820 214.636 138.138 221.890 138.138 221.891 C 138.138 221.892 144.893 229.078 144.893 229.079 C 144.891 229.079 124.637 221.960 124.635 221.959 Z"/>
<path fill="#ffff00" fill-rule="evenodd" stroke="none" d="M 193.246 618.624 C 193.247 618.622 202.208 599.112 202.209 599.111 C 202.209 599.112 202.680 608.963 202.680 608.964 C 202.681 608.964 212.541 609.203 212.542 609.203 C 212.540 609.204 193.248 618.623 193.246 618.624 Z"/>
<path fill="#ffff00" fill-rule="evenodd" stroke="none" d="M 526.978 618.385 C 526.977 618.383 517.627 599.057 517.626 599.055 C 517.626 599.056 517.352 608.915 517.352 608.916 C 517.351 608.916 507.498 609.353 507.497 609.353 C 507.499 609.354 526.976 618.384 526.978 618.385 Z"/>
<path fill="#00ff00" fill-rule="evenodd" stroke="none" d="M 596.411 221.959 C 596.409 221.959 576.227 214.636 576.225 214.635 C 576.226 214.636 582.908 221.890 582.909 221.891 C 582.908 221.892 576.153 229.078 576.153 229.079 C 576.155 229.079 596.409 221.960 596.411 221.959 Z"/>
<path fill="#00ffff" fill-rule="evenodd" stroke="none" d="M 590.349 61.871 C 590.349 61.873 583.181 82.110 583.181 82.112 C 583.181 82.111 581.823 72.342 581.823 72.341 C 581.822 72.341 571.981 72.991 571.980 72.991 C 571.982 72.990 590.347 61.872 590.349 61.871 Z"/>
<path fill="#00ffff" fill-rule="evenodd" stroke="none" d="M 128.170 62.542 C 128.171 62.544 136.672 82.258 136.673 82.260 C 136.673 82.259 137.375 72.421 137.376 72.420 C 137.377 72.420 147.239 72.412 147.240 72.412 C 147.238 72.411 128.172 62.543 128.170 62.542 Z"/>
<path fill="#be0027" fill-rule="evenodd" stroke="none" d="M 359.957 633.977 C 359.958 633.975 369.002 608.651 369.003 608.648 C 369.002 608.649 359.958 617.064 359.957 617.065 C 359.957 617.064 350.913 608.649 350.912 608.648 C 350.913 608.651 359.957 633.975 359.957 633.977 Z"/>
</g>
</g>
</svg>
