<?xml version="1.0" encoding="utf-8"?>
<!-- Generator: Moho 12.5 build 22414 -->
<!DOCTYPE svg PUBLIC "-//W3C//DTD SVG 1.1//EN" "http://www.w3.org/Graphics/SVG/1.1/DTD/svg11.dtd">
<svg version="1.1" id="Frame_0" xmlns="http://www.w3.org/2000/svg" xmlns:xlink="http://www.w3.org/1999/xlink" width="720px" height="720px">
<g id="dagger">
<g id="dagger">
<path fill="#ffffff" fill-rule="evenodd" stroke="#000000" stroke-width="4" stroke-linecap="round" stroke-linejoin="round" d="M 339.235 228.319 C 345.546 233.658 374.454 233.658 380.765 228.319 C 396.101 215.344 396.101 140.374 380.765 127.399 C 374.454 122.060 345.546 122.060 339.235 127.399 C 323.899 140.374 323.899 215.344 339.235 228.319 Z"/>
<path fill="#ffffff" fill-rule="evenodd" stroke="#000000" stroke-width="4" stroke-linecap="round" stroke-linejoin="round" d="M 360.000 143.398 C 380.835 143.398 397.643 126.591 397.643 105.755 C 397.643 84.920 380.835 68.112 360.000 68.112 C 339.165 68.112 322.357 84.920 322.357 105.755 C 322.357 126.591 339.165 143.398 360.000 143.398 Z"/>
<path fill="#ffffff" fill-rule="evenodd" stroke="none" d="M 426.307 563.102 C 426.301 563.116 382.102 657.840 360.000 705.209 C 359.993 705.195 293.699 563.116 293.693 563.102 C 293.694 563.074 310.268 290.816 310.269 290.789 C 310.279 290.789 409.721 290.789 409.731 290.789 C 409.732 290.816 426.306 563.074 426.307 563.102 Z"/>
<path fill="none" stroke="#000000" stroke-width="4" stroke-linecap="round" stroke-linejoin="round" d="M 426.307 563.102 C 426.301 563.116 382.102 657.840 360.000 705.209 C 359.993 705.195 293.699 563.116 293.693 563.102 C 293.694 563.074 310.268 290.816 310.269 290.789 C 310.279 290.789 409.721 290.789 409.731 290.789 C 409.732 290.816 426.306 563.074 426.307 563.102 M 360.000 290.789 C 360.000 428.929 360.000 705.168 360.000 705.209 "/>
<path fill="#ffffff" fill-rule="evenodd" stroke="#000000" stroke-width="4" stroke-linejoin="round" d="M 323.038 216.013 C 323.046 216.013 396.954 216.013 396.962 216.013 C 396.962 216.011 396.962 201.478 396.962 201.477 C 396.954 201.477 323.046 201.477 323.038 201.477 C 323.038 201.478 323.038 216.011 323.038 216.013 Z"/>
<path fill="#ffffff" fill-rule="evenodd" stroke="none" d="M 232.734 223.942 C 255.794 186.476 302.846 208.379 297.467 238.605 C 299.902 230.377 304.769 213.922 304.770 213.920 C 304.782 213.920 381.469 213.968 419.819 213.992 C 433.306 206.193 449.686 204.007 464.201 210.029 C 487.673 219.768 502.757 246.080 487.266 271.250 C 464.206 308.716 417.154 286.813 422.533 256.587 C 420.098 264.815 415.231 281.269 415.230 281.272 C 415.218 281.272 338.531 281.224 300.181 281.200 C 286.288 288.248 270.315 291.185 255.800 285.162 C 232.327 275.424 217.243 249.112 232.734 223.942 Z"/>
<path fill="none" stroke="#000000" stroke-width="4" stroke-linecap="round" stroke-linejoin="round" d="M 262.230 229.994 C 274.465 226.068 275.769 239.369 269.983 241.717 M 264.377 259.878 C 251.441 254.964 249.093 234.209 262.230 229.994 M 297.467 238.605 C 294.748 253.885 279.902 265.775 264.377 259.878 M 232.734 223.942 C 255.794 186.476 302.846 208.379 297.467 238.605 C 299.902 230.377 304.769 213.922 304.770 213.920 C 304.782 213.920 381.469 213.968 419.819 213.992 C 433.306 206.193 449.686 204.007 464.201 210.029 C 487.673 219.768 502.757 246.080 487.266 271.250 C 464.206 308.716 417.154 286.813 422.533 256.587 C 420.098 264.815 415.231 281.269 415.230 281.272 C 415.218 281.272 338.531 281.224 300.181 281.200 C 286.288 288.248 270.315 291.185 255.800 285.162 C 232.327 275.424 217.243 249.112 232.734 223.942 M 455.623 235.313 C 440.098 229.416 425.252 241.307 422.533 256.587 M 457.770 265.198 C 470.907 260.983 468.559 240.228 455.623 235.313 M 450.017 253.475 C 444.231 255.823 445.535 269.123 457.770 265.198 "/>
<path fill="none" stroke="#000000" stroke-width="4" stroke-linecap="round" stroke-linejoin="round" d="M 300.459 280.603 C 340.132 258.535 379.805 236.468 419.479 214.401 "/>
<path fill="#ffffff" fill-rule="evenodd" stroke="#000000" stroke-width="4" stroke-linejoin="round" d="M 304.027 293.622 C 304.038 293.622 415.962 293.622 415.973 293.622 C 415.973 293.621 415.973 279.088 415.973 279.086 C 415.962 279.086 304.038 279.086 304.027 279.086 C 304.027 279.088 304.027 293.621 304.027 293.622 Z"/>
</g>
<g id="specs_2">
<path fill="#ff0000" fill-rule="evenodd" stroke="none" d="M 360.000 38.405 C 360.001 38.402 371.929 5.003 371.931 4.999 C 371.929 5.000 360.001 16.099 360.000 16.100 C 359.999 16.099 348.071 5.000 348.069 4.999 C 348.071 5.003 359.999 38.402 360.000 38.405 Z"/>
<path fill="#0000ff" fill-rule="evenodd" stroke="none" d="M 360.000 713.141 C 360.001 713.139 366.929 693.737 366.930 693.736 C 366.929 693.736 360.001 700.183 360.000 700.183 C 359.999 700.183 353.071 693.736 353.070 693.736 C 353.071 693.737 359.999 713.139 360.000 713.141 Z"/>
<path fill="#00ff00" fill-rule="evenodd" stroke="none" d="M 213.253 248.124 C 213.254 248.125 232.620 255.152 232.622 255.153 C 232.622 255.152 226.210 248.190 226.209 248.189 C 226.210 248.189 232.691 241.293 232.692 241.292 C 232.690 241.293 213.254 248.123 213.253 248.124 Z"/>
<path fill="#00ff00" fill-rule="evenodd" stroke="none" d="M 506.747 248.124 C 506.746 248.125 487.380 255.152 487.378 255.153 C 487.378 255.152 493.790 248.190 493.791 248.189 C 493.790 248.189 487.309 241.293 487.308 241.292 C 487.310 241.293 506.746 248.123 506.747 248.124 Z"/>
<path fill="#00ffff" fill-rule="evenodd" stroke="none" d="M 434.943 575.606 C 434.942 575.604 428.064 556.185 428.064 556.183 C 428.064 556.184 426.761 565.558 426.761 565.559 C 426.760 565.559 417.317 564.936 417.316 564.936 C 417.318 564.937 434.941 575.605 434.943 575.606 Z"/>
<path fill="#00ffff" fill-rule="evenodd" stroke="none" d="M 285.057 574.963 C 285.058 574.961 293.215 556.043 293.216 556.041 C 293.216 556.042 293.890 565.483 293.890 565.484 C 293.891 565.484 303.355 565.491 303.356 565.491 C 303.354 565.492 285.059 574.962 285.057 574.963 Z"/>
<path fill="#be0027" fill-rule="evenodd" stroke="none" d="M 360.000 45.618 C 360.001 45.621 371.929 79.021 371.931 79.024 C 371.929 79.023 360.001 67.924 360.000 67.923 C 359.999 67.924 348.071 79.023 348.069 79.024 C 348.071 79.021 359.999 45.621 360.000 45.618 Z"/>
</g>
</g>
</svg>
