<?xml version="1.0" encoding="utf-8"?>
<!-- Generator: Moho 13.0.3 build 635 -->
<!DOCTYPE svg PUBLIC "-//W3C//DTD SVG 1.1//EN" "http://www.w3.org/Graphics/SVG/1.1/DTD/svg11.dtd">
<svg version="1.1" id="Frame_0" xmlns="http://www.w3.org/2000/svg" xmlns:xlink="http://www.w3.org/1999/xlink" width="1280px" height="720px">
<g id="dagger">
<path fill="#ffffff" fill-rule="evenodd" stroke="#000000" stroke-width="5" stroke-linecap="round" stroke-linejoin="round" d="M 344.478 249.326 C 344.478 249.337 344.478 359.989 344.478 360.000 C 344.478 360.011 344.478 470.663 344.478 470.674 C 344.551 470.667 1077.604 403.775 1077.678 403.768 C 1077.696 403.764 1263.581 360.004 1263.600 360.000 C 1263.581 359.996 1077.696 316.236 1077.678 316.232 C 1077.604 316.225 344.551 249.333 344.478 249.326 Z"/>
<path fill="#ffffff" fill-rule="evenodd" stroke="#000000" stroke-width="5" stroke-linecap="round" stroke-linejoin="round" d="M 344.478 181.155 C 344.478 181.191 344.478 538.809 344.478 538.845 C 344.474 538.845 300.714 538.845 300.710 538.845 C 300.710 538.809 300.710 181.191 300.710 181.155 C 300.714 181.155 344.474 181.155 344.478 181.155 Z"/>
<path fill="#ffffff" fill-rule="evenodd" stroke="#000000" stroke-width="5" stroke-linecap="round" stroke-linejoin="round" d="M 138.715 327.265 C 144.158 336.846 147.342 348.042 147.342 360.000 C 147.342 371.958 144.158 383.154 138.715 392.735 C 192.168 392.831 300.694 393.025 300.710 393.025 C 300.710 393.018 300.710 326.982 300.710 326.975 C 300.694 326.975 192.168 327.169 138.715 327.265 Z"/>
<path fill="none" stroke="#ffffff" stroke-width="1" stroke-linecap="butt" stroke-linejoin="round" d="M 147.342 360.000 C 147.342 371.958 144.158 383.154 138.715 392.735 "/>
<path fill="none" stroke="#ffffff" stroke-width="1" stroke-linecap="butt" stroke-linejoin="round" d="M 138.715 327.265 C 144.158 336.846 147.342 348.042 147.342 360.000 "/>
<path fill="#ffffff" fill-rule="evenodd" stroke="#000000" stroke-width="5" stroke-linecap="round" stroke-linejoin="round" d="M 147.342 360.000 C 147.342 371.958 144.158 383.154 138.715 392.735 C 127.285 412.348 106.150 425.471 81.871 425.471 C 45.633 425.471 16.400 396.238 16.400 360.000 C 16.400 323.762 45.633 294.529 81.871 294.529 C 106.150 294.529 127.285 307.652 138.715 327.265 C 144.158 336.846 147.342 348.042 147.342 360.000 Z"/>
<path fill="none" stroke="#000000" stroke-width="5" stroke-linecap="round" stroke-linejoin="round" d="M 344.478 360.000 C 618.056 360.000 891.635 360.000 1165.213 360.000 "/>
</g>
</svg>
