<?xml version="1.0" encoding="utf-8"?>
<!-- Generator: Moho 12.5 build 22414 -->
<!DOCTYPE svg PUBLIC "-//W3C//DTD SVG 1.1//EN" "http://www.w3.org/Graphics/SVG/1.1/DTD/svg11.dtd">
<svg version="1.1" id="Frame_0" xmlns="http://www.w3.org/2000/svg" xmlns:xlink="http://www.w3.org/1999/xlink" width="720px" height="720px">
<g id="dagger">
<g id="dagger">
<path fill="#ffffff" fill-rule="evenodd" stroke="#000000" stroke-width="4" stroke-linecap="round" stroke-linejoin="round" d="M 339.235 490.394 C 345.546 485.055 374.454 485.055 380.765 490.394 C 396.101 503.369 396.101 578.340 380.765 591.315 C 374.454 596.654 345.546 596.654 339.235 591.315 C 323.899 578.340 323.899 503.369 339.235 490.394 Z"/>
<path fill="#ffffff" fill-rule="evenodd" stroke="#000000" stroke-width="4" stroke-linecap="round" stroke-linejoin="round" d="M 360.000 575.315 C 380.835 575.315 397.643 592.123 397.643 612.958 C 397.643 633.793 380.835 650.601 360.000 650.601 C 339.165 650.601 322.357 633.793 322.357 612.958 C 322.357 592.123 339.165 575.315 360.000 575.315 Z"/>
<path fill="#ffffff" fill-rule="evenodd" stroke="none" d="M 426.307 112.965 C 426.301 112.955 382.102 46.658 360.000 13.504 C 359.993 13.514 293.699 112.955 293.693 112.965 C 293.694 112.996 310.268 427.893 310.269 427.925 C 310.279 427.925 409.721 427.925 409.731 427.925 C 409.732 427.893 426.306 112.996 426.307 112.965 Z"/>
<path fill="none" stroke="#000000" stroke-width="4" stroke-linecap="round" stroke-linejoin="round" d="M 426.307 112.965 C 426.301 112.955 382.102 46.658 360.000 13.504 C 359.993 13.514 293.699 112.955 293.693 112.965 C 293.694 112.996 310.268 427.893 310.269 427.925 C 310.279 427.925 409.721 427.925 409.731 427.925 C 409.732 427.893 426.306 112.996 426.307 112.965 M 360.000 427.925 C 360.000 289.785 360.000 13.545 360.000 13.504 "/>
<path fill="#ffffff" fill-rule="evenodd" stroke="none" d="M 232.734 494.772 C 255.794 532.238 302.846 510.335 297.467 480.109 C 299.902 488.337 304.769 504.791 304.770 504.793 C 304.782 504.793 381.469 504.746 419.819 504.722 C 433.306 512.520 449.686 514.707 464.201 508.684 C 487.673 498.945 502.757 472.633 487.266 447.463 C 464.206 409.997 417.154 431.901 422.533 462.127 C 420.098 453.898 415.231 437.444 415.230 437.442 C 415.218 437.442 338.531 437.490 300.181 437.514 C 286.288 430.466 270.315 427.529 255.800 433.551 C 232.327 443.290 217.243 469.602 232.734 494.772 Z"/>
<path fill="none" stroke="#000000" stroke-width="4" stroke-linecap="round" stroke-linejoin="round" d="M 262.230 488.720 C 274.465 492.645 275.769 479.345 269.983 476.997 M 264.377 458.835 C 251.441 463.750 249.093 484.504 262.230 488.720 M 297.467 480.109 C 294.748 464.829 279.902 452.938 264.377 458.835 M 232.734 494.772 C 255.794 532.238 302.846 510.335 297.467 480.109 C 299.902 488.337 304.769 504.791 304.770 504.793 C 304.782 504.793 381.469 504.746 419.819 504.722 C 433.306 512.520 449.686 514.707 464.201 508.684 C 487.673 498.945 502.757 472.633 487.266 447.463 C 464.206 409.997 417.154 431.901 422.533 462.127 C 420.098 453.898 415.231 437.444 415.230 437.442 C 415.218 437.442 338.531 437.490 300.181 437.514 C 286.288 430.466 270.315 427.529 255.800 433.551 C 232.327 443.290 217.243 469.602 232.734 494.772 M 455.623 483.400 C 440.098 489.297 425.252 477.406 422.533 462.127 M 457.770 453.516 C 470.907 457.731 468.559 478.486 455.623 483.400 M 450.017 465.239 C 444.231 462.891 445.535 449.590 457.770 453.516 "/>
<path fill="none" stroke="#000000" stroke-width="4" stroke-linecap="round" stroke-linejoin="round" d="M 300.459 438.111 C 340.132 460.178 379.805 482.245 419.479 504.313 "/>
<path fill="#ffffff" fill-rule="evenodd" stroke="#000000" stroke-width="4" stroke-linejoin="round" d="M 304.027 425.091 C 304.038 425.091 415.962 425.091 415.973 425.091 C 415.973 425.092 415.973 439.626 415.973 439.627 C 415.962 439.627 304.038 439.627 304.027 439.627 C 304.027 439.626 304.027 425.092 304.027 425.091 Z"/>
<path fill="#ffffff" fill-rule="evenodd" stroke="#000000" stroke-width="4" stroke-linejoin="round" d="M 304.027 502.701 C 304.038 502.701 415.962 502.701 415.973 502.701 C 415.973 502.702 415.973 517.236 415.973 517.237 C 415.962 517.237 304.038 517.237 304.027 517.237 C 304.027 517.236 304.027 502.702 304.027 502.701 Z"/>
</g>
<g id="specs_2">
<path fill="#ff0000" fill-rule="evenodd" stroke="none" d="M 360.000 680.308 C 360.001 680.311 371.929 713.711 371.931 713.714 C 371.929 713.713 360.001 702.614 360.000 702.613 C 359.999 702.614 348.071 713.713 348.069 713.714 C 348.071 713.711 359.999 680.311 360.000 680.308 Z"/>
<path fill="#0000ff" fill-rule="evenodd" stroke="none" d="M 360.000 5.573 C 360.001 5.575 366.929 24.976 366.930 24.978 C 366.929 24.977 360.001 18.531 360.000 18.530 C 359.999 18.531 353.071 24.977 353.070 24.978 C 353.071 24.976 359.999 5.575 360.000 5.573 Z"/>
<path fill="#00ff00" fill-rule="evenodd" stroke="none" d="M 213.253 470.590 C 213.254 470.589 232.620 463.562 232.622 463.561 C 232.622 463.562 226.210 470.523 226.209 470.524 C 226.210 470.525 232.691 477.421 232.692 477.421 C 232.690 477.421 213.254 470.590 213.253 470.590 Z"/>
<path fill="#00ff00" fill-rule="evenodd" stroke="none" d="M 506.747 470.590 C 506.746 470.589 487.380 463.562 487.378 463.561 C 487.378 463.562 493.790 470.523 493.791 470.524 C 493.790 470.525 487.309 477.421 487.308 477.421 C 487.310 477.421 506.746 470.590 506.747 470.590 Z"/>
<path fill="#00ffff" fill-rule="evenodd" stroke="none" d="M 434.943 101.475 C 434.942 101.477 428.064 120.897 428.064 120.899 C 428.064 120.898 426.761 111.523 426.761 111.523 C 426.760 111.523 417.317 112.146 417.316 112.146 C 417.318 112.145 434.941 101.476 434.943 101.475 Z"/>
<path fill="#00ffff" fill-rule="evenodd" stroke="none" d="M 285.057 102.119 C 285.058 102.121 293.215 121.039 293.216 121.041 C 293.216 121.040 293.890 111.599 293.890 111.598 C 293.891 111.598 303.355 111.591 303.356 111.591 C 303.354 111.590 285.059 102.120 285.057 102.119 Z"/>
<path fill="#be0027" fill-rule="evenodd" stroke="none" d="M 360.000 673.095 C 360.001 673.092 371.929 639.693 371.931 639.689 C 371.929 639.690 360.001 650.789 360.000 650.790 C 359.999 650.789 348.071 639.690 348.069 639.689 C 348.071 639.693 359.999 673.092 360.000 673.095 Z"/>
</g>
</g>
</svg>
