<?xml version="1.0" encoding="utf-8"?>
<!-- Generator: Moho 12.5 build 22414 -->
<!DOCTYPE svg PUBLIC "-//W3C//DTD SVG 1.1//EN" "http://www.w3.org/Graphics/SVG/1.1/DTD/svg11.dtd">
<svg version="1.1" id="Frame_0" xmlns="http://www.w3.org/2000/svg" xmlns:xlink="http://www.w3.org/1999/xlink" width="720px" height="720px">
<g id="deer">
<g id="deer">
<path fill="none" stroke="#823424" stroke-width="1" stroke-linecap="round" stroke-linejoin="round" d=""/>
<path fill="#ffffff" fill-rule="evenodd" stroke="none" d="M 82.205 294.788 C 77.616 294.221 74.372 290.062 74.939 285.473 C 75.506 280.884 79.666 277.640 84.254 278.207 C 88.843 278.774 92.088 282.933 91.520 287.522 C 90.953 292.111 86.794 295.355 82.205 294.788 M 203.690 552.380 C 214.350 552.423 224.861 551.491 231.488 548.549 C 233.635 547.595 240.160 543.225 237.642 537.894 C 234.066 536.157 230.526 534.176 227.212 532.045 C 227.210 532.047 215.537 543.370 203.690 552.380 M 359.984 408.179 C 460.829 409.471 546.195 381.830 546.214 381.827 C 546.212 381.837 539.648 453.974 523.589 479.355 C 522.872 480.488 522.091 481.642 521.291 482.655 C 537.073 479.344 548.653 474.167 548.672 474.189 C 548.691 474.195 553.737 479.329 560.266 486.166 C 580.568 473.301 594.308 459.321 594.349 459.322 C 594.396 459.322 628.950 482.290 642.359 493.927 C 659.034 508.397 693.154 547.169 693.159 547.174 C 693.153 547.170 654.924 515.641 636.624 505.028 C 624.282 497.869 593.185 485.673 593.181 485.671 C 593.179 485.674 580.715 508.133 580.715 508.133 C 582.215 509.840 586.716 514.959 588.943 517.735 C 602.659 534.832 630.366 577.912 630.370 577.919 C 630.365 577.914 597.247 541.335 581.422 527.361 C 579.148 525.354 576.175 522.925 572.677 520.122 C 565.747 529.612 557.733 538.192 550.199 540.785 C 536.423 545.526 516.428 544.828 498.708 539.632 C 495.264 541.830 491.625 543.409 488.266 543.954 C 476.174 545.919 460.365 543.622 445.813 538.138 C 424.212 547.522 400.547 553.881 375.873 555.039 C 331.870 557.104 284.278 550.655 268.414 548.505 C 268.414 548.505 245.291 573.602 236.664 576.372 C 213.454 583.826 171.365 562.611 171.358 562.609 C 171.355 562.611 148.562 576.828 140.703 585.093 C 128.861 597.548 109.923 633.401 109.920 633.406 C 109.923 633.400 126.141 593.380 135.309 577.358 C 138.667 571.489 150.825 554.495 150.825 554.495 C 143.461 549.784 121.369 535.651 121.365 535.650 C 121.363 535.651 102.139 547.505 95.611 554.511 C 83.925 567.053 66.305 603.557 66.302 603.562 C 66.304 603.556 80.017 559.113 89.215 541.539 C 95.121 530.256 102.441 522.113 102.442 522.111 C 102.450 522.112 167.763 540.712 183.347 534.750 C 186.073 533.707 190.834 525.628 196.068 516.663 C 171.109 497.371 148.893 465.655 139.866 442.747 C 131.585 421.732 124.190 395.803 121.517 374.883 C 117.690 355.460 113.826 321.360 111.237 294.621 C 109.075 299.653 105.697 304.355 100.742 307.789 C 74.044 326.291 17.093 316.754 17.089 316.746 C 17.097 316.740 103.825 255.339 103.834 255.333 C 103.836 255.331 117.701 239.607 124.386 230.687 C 124.244 229.436 122.166 214.062 119.595 209.644 C 117.487 206.252 109.809 195.969 109.807 195.969 C 109.809 195.969 123.008 199.610 126.657 204.808 C 129.599 208.779 133.671 220.852 132.945 220.677 C 137.074 213.890 146.748 194.135 146.749 194.132 C 146.748 194.130 134.728 169.316 134.711 169.302 C 134.699 169.276 100.313 158.622 100.309 158.621 C 100.312 158.622 132.030 159.389 132.033 159.389 C 132.033 159.387 129.410 136.163 129.410 136.161 C 129.411 136.163 142.857 163.520 142.868 163.541 C 142.875 163.557 152.412 182.787 152.413 182.789 C 152.413 182.787 155.638 169.524 156.471 163.986 C 159.312 152.074 161.699 134.978 159.467 125.237 C 159.060 125.111 143.389 115.884 137.812 115.285 C 131.153 114.240 111.449 115.176 111.446 115.176 C 111.449 115.176 129.368 104.362 139.035 105.322 C 144.785 105.964 157.015 112.177 156.254 111.974 C 153.076 102.215 144.997 88.937 137.388 84.682 C 128.683 77.762 97.764 70.893 97.760 70.892 C 97.764 70.893 130.921 67.977 143.337 76.597 C 154.711 85.134 165.427 106.221 168.823 120.698 C 171.563 132.885 168.516 152.983 166.360 165.702 C 164.755 175.007 158.345 195.579 157.269 198.034 C 156.006 200.917 140.219 224.774 134.747 234.305 C 133.762 236.002 131.464 239.800 128.842 243.949 C 128.932 244.003 142.232 239.527 146.836 238.469 C 147.070 238.083 155.049 226.921 155.783 222.788 C 156.760 218.499 158.602 204.520 158.602 204.519 C 158.602 204.520 166.011 215.750 165.255 221.954 C 164.909 226.585 159.373 236.713 159.819 236.166 C 168.345 234.020 190.730 224.560 190.730 224.560 C 192.989 219.082 199.900 202.600 197.273 195.642 C 195.340 186.094 173.448 165.766 173.446 165.763 C 173.447 165.765 201.546 181.288 201.546 181.288 C 204.064 178.709 214.986 165.441 214.987 165.439 C 214.987 165.442 211.291 184.591 206.988 193.117 C 209.151 201.057 203.251 216.749 203.251 216.749 C 206.294 214.713 215.422 208.604 219.436 205.333 C 229.491 196.903 243.793 185.145 248.621 175.559 C 248.433 174.725 241.397 157.288 237.040 153.260 C 231.997 147.732 214.124 136.390 214.121 136.389 C 214.124 136.390 236.436 138.993 244.040 146.066 C 248.620 150.539 255.134 165.248 254.986 164.617 C 259.110 153.978 261.250 137.018 257.765 127.895 C 255.064 116.451 232.879 91.276 232.877 91.273 C 232.879 91.276 262.740 109.983 267.437 125.212 C 271.497 140.890 265.111 165.202 258.916 177.701 C 252.734 190.288 236.479 204.018 225.937 212.980 C 218.298 219.610 195.839 233.071 195.929 233.351 C 196.030 233.314 164.217 245.342 151.968 248.930 C 142.592 251.611 127.501 255.151 119.484 256.668 C 119.270 256.670 127.887 261.029 130.330 261.594 C 136.144 262.939 158.680 261.368 158.683 261.369 C 158.680 261.371 152.621 277.890 135.100 280.568 C 126.521 281.880 116.409 271.805 116.409 271.805 C 124.501 286.162 148.681 329.303 180.208 370.265 C 187.063 379.171 220.265 402.012 220.265 402.012 C 225.042 401.465 239.329 399.468 239.330 399.467 C 239.335 399.470 283.019 407.194 359.984 408.179 M 581.659 390.412 C 566.793 404.061 546.217 381.828 546.214 381.827 C 546.216 381.826 561.282 372.825 567.306 368.340 C 574.198 363.210 588.968 349.612 588.970 349.610 C 588.969 349.614 599.455 374.071 581.659 390.412 Z"/>
<path fill="none" stroke="#000000" stroke-width="4" stroke-linecap="round" stroke-linejoin="round" d="M 82.205 294.788 C 77.616 294.221 74.372 290.062 74.939 285.473 C 75.506 280.884 79.666 277.640 84.254 278.207 C 88.843 278.774 92.088 282.933 91.520 287.522 C 90.953 292.111 86.794 295.355 82.205 294.788 M 203.690 552.380 C 214.350 552.423 224.861 551.491 231.488 548.549 C 233.635 547.595 240.160 543.225 237.642 537.894 C 234.066 536.157 230.526 534.176 227.212 532.045 C 227.210 532.047 215.537 543.370 203.690 552.380 M 359.984 408.179 C 460.829 409.471 546.195 381.830 546.214 381.827 C 546.212 381.837 539.648 453.974 523.589 479.355 C 522.872 480.488 522.091 481.642 521.291 482.655 C 537.073 479.344 548.653 474.167 548.672 474.189 C 548.691 474.195 553.737 479.329 560.266 486.166 C 580.568 473.301 594.308 459.321 594.349 459.322 C 594.396 459.322 628.950 482.290 642.359 493.927 C 659.034 508.397 693.154 547.169 693.159 547.174 C 693.153 547.170 654.924 515.641 636.624 505.028 C 624.282 497.869 593.185 485.673 593.181 485.671 C 593.179 485.674 580.715 508.133 580.715 508.133 C 582.215 509.840 586.716 514.959 588.943 517.735 C 602.659 534.832 630.366 577.912 630.370 577.919 C 630.365 577.914 597.247 541.335 581.422 527.361 C 579.148 525.354 576.175 522.925 572.677 520.122 C 565.747 529.612 557.733 538.192 550.199 540.785 C 536.423 545.526 516.428 544.828 498.708 539.632 C 495.264 541.830 491.625 543.409 488.266 543.954 C 476.174 545.919 460.365 543.622 445.813 538.138 C 424.212 547.522 400.547 553.881 375.873 555.039 C 331.870 557.104 284.278 550.655 268.414 548.505 C 268.414 548.505 245.291 573.602 236.664 576.372 C 213.454 583.826 171.365 562.611 171.358 562.609 C 171.355 562.611 148.562 576.828 140.703 585.093 C 128.861 597.548 109.923 633.401 109.920 633.406 C 109.923 633.400 126.141 593.380 135.309 577.358 C 138.667 571.489 150.825 554.495 150.825 554.495 C 143.461 549.784 121.369 535.651 121.365 535.650 C 121.363 535.651 102.139 547.505 95.611 554.511 C 83.925 567.053 66.305 603.557 66.302 603.562 C 66.304 603.556 80.017 559.113 89.215 541.539 C 95.121 530.256 102.441 522.113 102.442 522.111 C 102.450 522.112 167.763 540.712 183.347 534.750 C 186.073 533.707 190.834 525.628 196.068 516.663 C 171.109 497.371 148.893 465.655 139.866 442.747 C 131.585 421.732 124.190 395.803 121.517 374.883 C 117.690 355.460 113.826 321.360 111.237 294.621 C 109.075 299.653 105.697 304.355 100.742 307.789 C 74.044 326.291 17.093 316.754 17.089 316.746 C 17.097 316.740 103.825 255.339 103.834 255.333 C 103.836 255.331 117.701 239.607 124.386 230.687 C 124.244 229.436 122.166 214.062 119.595 209.644 C 117.487 206.252 109.809 195.969 109.807 195.969 C 109.809 195.969 123.008 199.610 126.657 204.808 C 129.599 208.779 133.671 220.852 132.945 220.677 C 137.074 213.890 146.748 194.135 146.749 194.132 C 146.748 194.130 134.728 169.316 134.711 169.302 C 134.699 169.276 100.313 158.622 100.309 158.621 C 100.312 158.622 132.030 159.389 132.033 159.389 C 132.033 159.387 129.410 136.163 129.410 136.161 C 129.411 136.163 142.857 163.520 142.868 163.541 C 142.875 163.557 152.412 182.787 152.413 182.789 C 152.413 182.787 155.638 169.524 156.471 163.986 C 159.312 152.074 161.699 134.978 159.467 125.237 C 159.060 125.111 143.389 115.884 137.812 115.285 C 131.153 114.240 111.449 115.176 111.446 115.176 C 111.449 115.176 129.368 104.362 139.035 105.322 C 144.785 105.964 157.015 112.177 156.254 111.974 C 153.076 102.215 144.997 88.937 137.388 84.682 C 128.683 77.762 97.764 70.893 97.760 70.892 C 97.764 70.893 130.921 67.977 143.337 76.597 C 154.711 85.134 165.427 106.221 168.823 120.698 C 171.563 132.885 168.516 152.983 166.360 165.702 C 164.755 175.007 158.345 195.579 157.269 198.034 C 156.006 200.917 140.219 224.774 134.747 234.305 C 133.762 236.002 131.464 239.800 128.842 243.949 C 128.932 244.003 142.232 239.527 146.836 238.469 C 147.070 238.083 155.049 226.921 155.783 222.788 C 156.760 218.499 158.602 204.520 158.602 204.519 C 158.602 204.520 166.011 215.750 165.255 221.954 C 164.909 226.585 159.373 236.713 159.819 236.166 C 168.345 234.020 190.730 224.560 190.730 224.560 C 192.989 219.082 199.900 202.600 197.273 195.642 C 195.340 186.094 173.448 165.766 173.446 165.763 C 173.447 165.765 201.546 181.288 201.546 181.288 C 204.064 178.709 214.986 165.441 214.987 165.439 C 214.987 165.442 211.291 184.591 206.988 193.117 C 209.151 201.057 203.251 216.749 203.251 216.749 C 206.294 214.713 215.422 208.604 219.436 205.333 C 229.491 196.903 243.793 185.145 248.621 175.559 C 248.433 174.725 241.397 157.288 237.040 153.260 C 231.997 147.732 214.124 136.390 214.121 136.389 C 214.124 136.390 236.436 138.993 244.040 146.066 C 248.620 150.539 255.134 165.248 254.986 164.617 C 259.110 153.978 261.250 137.018 257.765 127.895 C 255.064 116.451 232.879 91.276 232.877 91.273 C 232.879 91.276 262.740 109.983 267.437 125.212 C 271.497 140.890 265.111 165.202 258.916 177.701 C 252.734 190.288 236.479 204.018 225.937 212.980 C 218.298 219.610 195.839 233.071 195.929 233.351 C 196.030 233.314 164.217 245.342 151.968 248.930 C 142.592 251.611 127.501 255.151 119.484 256.668 C 119.270 256.670 127.887 261.029 130.330 261.594 C 136.144 262.939 158.680 261.368 158.683 261.369 C 158.680 261.371 152.621 277.890 135.100 280.568 C 126.521 281.880 116.409 271.805 116.409 271.805 C 124.501 286.162 148.681 329.303 180.208 370.265 C 187.063 379.171 220.265 402.012 220.265 402.012 C 225.042 401.465 239.329 399.468 239.330 399.467 C 239.335 399.470 283.019 407.194 359.984 408.179 M 581.659 390.412 C 566.793 404.061 546.217 381.828 546.214 381.827 C 546.216 381.826 561.282 372.825 567.306 368.340 C 574.198 363.210 588.968 349.612 588.970 349.610 C 588.969 349.614 599.455 374.071 581.659 390.412 "/>
</g>
<g id="specs_2">
<path fill="#ff00ff" fill-rule="evenodd" stroke="none" d="M 240.164 534.352 C 240.188 534.352 479.812 534.352 479.836 534.352 C 479.836 534.340 479.836 412.686 479.836 412.673 C 479.812 412.673 240.188 412.673 240.164 412.673 C 240.164 412.686 240.164 534.340 240.164 534.352 Z"/>
<path fill="#ff0000" fill-rule="evenodd" stroke="none" d="M 360.000 662.708 C 360.001 662.711 372.432 697.517 372.433 697.521 C 372.432 697.520 360.001 685.954 360.000 685.952 C 359.999 685.954 347.568 697.520 347.567 697.521 C 347.568 697.517 359.999 662.711 360.000 662.708 Z"/>
<path fill="#0000ff" fill-rule="evenodd" stroke="none" d="M 92.992 248.116 C 92.993 248.118 107.280 264.142 107.282 264.144 C 107.281 264.143 98.065 260.630 98.064 260.630 C 98.064 260.631 93.896 269.569 93.896 269.570 C 93.896 269.568 92.992 248.118 92.992 248.116 Z"/>
<path fill="#00ff00" fill-rule="evenodd" stroke="none" d="M 281.290 394.673 C 281.289 394.675 273.778 414.787 273.778 414.789 C 273.777 414.788 272.587 404.997 272.587 404.996 C 272.586 404.996 262.735 405.479 262.734 405.479 C 262.736 405.478 281.288 394.674 281.290 394.673 Z"/>
<path fill="#ffff00" fill-rule="evenodd" stroke="none" d="M 252.732 539.854 C 252.733 539.852 261.694 520.342 261.694 520.341 C 261.694 520.341 262.166 530.193 262.166 530.194 C 262.167 530.194 272.027 530.433 272.028 530.433 C 272.026 530.434 252.734 539.853 252.732 539.854 Z"/>
<path fill="#ffff00" fill-rule="evenodd" stroke="none" d="M 480.085 539.615 C 480.085 539.613 470.735 520.287 470.734 520.285 C 470.734 520.286 470.459 530.145 470.459 530.146 C 470.458 530.146 460.605 530.583 460.604 530.583 C 460.606 530.584 480.083 539.614 480.085 539.615 Z"/>
<path fill="#00ff00" fill-rule="evenodd" stroke="none" d="M 244.437 386.833 C 244.436 386.834 232.098 404.404 232.096 404.405 C 232.097 404.405 240.845 399.849 240.846 399.849 C 240.846 399.850 246.020 408.246 246.021 408.247 C 246.021 408.245 244.437 386.835 244.437 386.833 Z"/>
<path fill="#00ffff" fill-rule="evenodd" stroke="none" d="M 264.562 110.798 C 264.562 110.800 269.691 131.647 269.691 131.649 C 269.691 131.649 263.190 124.231 263.189 124.231 C 263.189 124.231 255.322 130.180 255.321 130.181 C 255.322 130.179 264.561 110.800 264.562 110.798 Z"/>
<path fill="#00ffff" fill-rule="evenodd" stroke="none" d="M 129.358 67.999 C 129.359 68.001 137.860 87.715 137.861 87.717 C 137.861 87.716 138.564 77.878 138.564 77.877 C 138.565 77.877 148.427 77.869 148.428 77.869 C 148.426 77.868 129.360 68.000 129.358 67.999 Z"/>
<path fill="#be0027" fill-rule="evenodd" stroke="none" d="M 562.805 374.851 C 562.802 374.852 526.939 383.786 526.935 383.787 C 526.937 383.787 543.452 387.728 543.454 387.729 C 543.453 387.730 540.711 404.486 540.711 404.488 C 540.713 404.485 562.803 374.854 562.805 374.851 Z"/>
</g>
</g>
</svg>
