<?xml version="1.0" encoding="utf-8"?>
<!-- Generator: Moho 12.5 build 22414 -->
<!DOCTYPE svg PUBLIC "-//W3C//DTD SVG 1.1//EN" "http://www.w3.org/Graphics/SVG/1.1/DTD/svg11.dtd">
<svg version="1.1" id="Frame_0" xmlns="http://www.w3.org/2000/svg" xmlns:xlink="http://www.w3.org/1999/xlink" width="720px" height="720px">
<g id="diamond">
<g id="diamond">
<path fill="#ffffff" fill-rule="evenodd" stroke="#000000" stroke-width="4" stroke-linecap="round" stroke-linejoin="round" d="M 532.453 196.223 C 532.445 196.208 446.235 52.526 446.227 52.512 C 446.244 52.512 561.195 52.512 618.679 52.512 C 618.671 52.526 532.462 196.208 532.453 196.223 Z"/>
<path fill="#ffffff" fill-rule="evenodd" stroke="#000000" stroke-width="4" stroke-linecap="round" stroke-linejoin="round" d="M 446.227 52.512 C 446.218 52.526 360.009 196.208 360.000 196.223 C 359.991 196.208 273.609 52.526 273.601 52.512 C 273.618 52.512 446.209 52.512 446.227 52.512 M 273.773 52.512 C 273.773 52.512 273.601 52.512 273.601 52.512 C 273.601 52.512 273.773 52.512 273.773 52.512 Z"/>
<path fill="none" stroke="#ffffff" stroke-width="1" stroke-linecap="butt" stroke-linejoin="round" d="M 273.773 52.512 C 273.773 52.512 273.601 52.512 273.601 52.512 "/>
<path fill="none" stroke="#ffffff" stroke-width="1" stroke-linecap="butt" stroke-linejoin="round" d="M 273.601 52.512 C 273.601 52.512 273.773 52.512 273.773 52.512 "/>
<path fill="#ffffff" fill-rule="evenodd" stroke="#000000" stroke-width="4" stroke-linecap="round" stroke-linejoin="round" d="M 101.321 52.512 C 158.747 52.512 273.583 52.512 273.601 52.512 C 273.773 52.512 273.601 52.512 273.601 52.512 C 273.601 52.512 273.773 52.512 273.773 52.512 C 273.592 52.526 187.555 196.208 187.547 196.223 C 187.538 196.208 101.329 52.526 101.321 52.512 Z"/>
<path fill="#ffffff" fill-rule="evenodd" stroke="#000000" stroke-width="4" stroke-linecap="round" stroke-linejoin="round" d="M 360.000 569.870 C 360.000 569.833 360.000 320.772 360.000 196.223 C 359.983 196.223 187.564 196.223 187.547 196.223 C 245.031 320.772 359.983 569.833 360.000 569.870 Z"/>
<path fill="#ffffff" fill-rule="evenodd" stroke="#000000" stroke-width="4" stroke-linecap="round" stroke-linejoin="round" d="M 532.453 196.223 C 474.969 320.772 360.017 569.833 360.000 569.870 C 360.034 569.833 704.871 196.260 704.906 196.223 C 704.889 196.223 532.470 196.223 532.453 196.223 Z"/>
<path fill="none" stroke="#ffffff" stroke-width="1" stroke-linecap="butt" stroke-linejoin="round" d="M 532.453 196.223 C 532.470 196.223 704.889 196.223 704.906 196.223 "/>
<path fill="none" stroke="#ffffff" stroke-width="1" stroke-linecap="butt" stroke-linejoin="round" d="M 618.679 52.512 C 618.671 52.526 532.462 196.208 532.453 196.223 "/>
<path fill="#ffffff" fill-rule="evenodd" stroke="#000000" stroke-width="4" stroke-linecap="round" stroke-linejoin="round" d="M 532.453 196.223 C 532.470 196.223 704.889 196.223 704.906 196.223 C 676.164 148.319 618.688 52.526 618.679 52.512 C 618.671 52.526 532.462 196.208 532.453 196.223 Z"/>
<path fill="none" stroke="#ffffff" stroke-width="1" stroke-linecap="butt" stroke-linejoin="round" d="M 532.453 196.223 C 532.445 196.208 446.235 52.526 446.227 52.512 "/>
<path fill="none" stroke="#ffffff" stroke-width="1" stroke-linecap="butt" stroke-linejoin="round" d="M 446.227 52.512 C 446.218 52.526 360.009 196.208 360.000 196.223 "/>
<path fill="#ffffff" fill-rule="evenodd" stroke="#000000" stroke-width="4" stroke-linecap="round" stroke-linejoin="round" d="M 360.000 196.223 C 360.017 196.223 532.436 196.223 532.453 196.223 C 532.445 196.208 446.235 52.526 446.227 52.512 C 446.218 52.526 360.009 196.208 360.000 196.223 Z"/>
<path fill="none" stroke="#ffffff" stroke-width="1" stroke-linecap="butt" stroke-linejoin="round" d="M 360.000 196.223 C 359.983 196.223 187.564 196.223 187.547 196.223 "/>
<path fill="none" stroke="#ffffff" stroke-width="1" stroke-linecap="butt" stroke-linejoin="round" d="M 187.547 196.223 C 187.555 196.208 273.592 52.526 273.601 52.512 "/>
<path fill="none" stroke="#ffffff" stroke-width="1" stroke-linecap="butt" stroke-linejoin="round" d="M 273.601 52.512 C 273.609 52.526 359.991 196.208 360.000 196.223 "/>
<path fill="none" stroke="#ffffff" stroke-width="1" stroke-linecap="butt" stroke-linejoin="round" d="M 273.773 52.512 C 273.773 52.512 273.601 52.512 273.601 52.512 "/>
<path fill="none" stroke="#ffffff" stroke-width="1" stroke-linecap="butt" stroke-linejoin="round" d="M 273.601 52.512 C 273.601 52.512 273.773 52.512 273.773 52.512 "/>
<path fill="#ffffff" fill-rule="evenodd" stroke="#000000" stroke-width="4" stroke-linecap="round" stroke-linejoin="round" d="M 360.000 196.223 C 359.983 196.223 187.564 196.223 187.547 196.223 C 187.555 196.208 273.592 52.526 273.601 52.512 C 273.609 52.526 359.991 196.208 360.000 196.223 M 273.773 52.512 C 273.773 52.512 273.601 52.512 273.601 52.512 C 273.601 52.512 273.773 52.512 273.773 52.512 Z"/>
<path fill="none" stroke="#ffffff" stroke-width="1" stroke-linecap="butt" stroke-linejoin="round" d="M 101.321 52.512 C 101.329 52.526 187.538 196.208 187.547 196.223 "/>
<path fill="#ffffff" fill-rule="evenodd" stroke="#000000" stroke-width="4" stroke-linecap="round" stroke-linejoin="round" d="M 187.547 196.223 C 187.530 196.223 15.111 196.223 15.094 196.223 C 43.836 148.319 101.312 52.526 101.321 52.512 C 101.329 52.526 187.538 196.208 187.547 196.223 Z"/>
<path fill="none" stroke="#ffffff" stroke-width="1" stroke-linecap="butt" stroke-linejoin="round" d="M 360.000 569.870 C 360.000 569.833 360.000 320.772 360.000 196.223 "/>
<path fill="none" stroke="#ffffff" stroke-width="1" stroke-linecap="butt" stroke-linejoin="round" d="M 360.000 196.223 C 360.017 196.223 532.436 196.223 532.453 196.223 "/>
<path fill="none" stroke="#ffffff" stroke-width="1" stroke-linecap="butt" stroke-linejoin="round" d="M 532.453 196.223 C 474.969 320.772 360.017 569.833 360.000 569.870 "/>
<path fill="#ffffff" fill-rule="evenodd" stroke="#000000" stroke-width="4" stroke-linecap="round" stroke-linejoin="round" d="M 360.000 569.870 C 360.000 569.833 360.000 320.772 360.000 196.223 C 360.017 196.223 532.436 196.223 532.453 196.223 C 474.969 320.772 360.017 569.833 360.000 569.870 Z"/>
<path fill="none" stroke="#ffffff" stroke-width="1" stroke-linecap="butt" stroke-linejoin="round" d="M 360.000 569.870 C 359.983 569.833 245.031 320.772 187.547 196.223 "/>
<path fill="none" stroke="#ffffff" stroke-width="1" stroke-linecap="butt" stroke-linejoin="round" d="M 187.547 196.223 C 187.530 196.223 15.111 196.223 15.094 196.223 "/>
<path fill="#ffffff" fill-rule="evenodd" stroke="#000000" stroke-width="4" stroke-linecap="round" stroke-linejoin="round" d="M 360.000 569.870 C 359.983 569.833 245.031 320.772 187.547 196.223 C 187.530 196.223 15.111 196.223 15.094 196.223 C 15.129 196.260 245.032 445.321 360.000 569.870 Z"/>
</g>
<g id="specs_2">
<path fill="#ff00ff" fill-rule="evenodd" stroke="none" d="M 216.211 371.248 C 216.240 371.248 503.760 371.248 503.789 371.248 C 503.789 371.219 503.789 83.698 503.789 83.669 C 503.760 83.669 216.240 83.669 216.211 83.669 C 216.211 83.698 216.211 371.219 216.211 371.248 Z"/>
<path fill="#ff0000" fill-rule="evenodd" stroke="none" d="M 360.000 673.625 C 360.001 673.628 372.345 708.190 372.346 708.194 C 372.345 708.192 360.001 696.708 360.000 696.706 C 359.999 696.708 347.655 708.192 347.654 708.194 C 347.655 708.190 359.999 673.628 360.000 673.625 Z"/>
<path fill="#0000ff" fill-rule="evenodd" stroke="none" d="M 360.000 37.968 C 360.001 37.970 367.171 58.046 367.171 58.048 C 367.171 58.048 360.001 51.377 360.000 51.376 C 359.999 51.377 352.829 58.048 352.829 58.048 C 352.829 58.046 359.999 37.970 360.000 37.968 Z"/>
<path fill="#00ff00" fill-rule="evenodd" stroke="none" d="M 3.324 196.108 C 3.326 196.108 24.398 188.461 24.400 188.461 C 24.400 188.461 17.423 196.037 17.422 196.037 C 17.423 196.038 24.476 203.542 24.476 203.542 C 24.474 203.542 3.326 196.109 3.324 196.108 Z"/>
<path fill="#ffff00" fill-rule="evenodd" stroke="none" d="M 196.808 408.082 C 196.808 408.081 202.843 394.941 202.844 394.940 C 202.844 394.940 203.161 401.576 203.161 401.576 C 203.162 401.576 209.803 401.737 209.803 401.737 C 209.802 401.738 196.809 408.082 196.808 408.082 Z"/>
<path fill="#ffff00" fill-rule="evenodd" stroke="none" d="M 523.192 407.921 C 523.192 407.920 516.895 394.903 516.894 394.902 C 516.894 394.903 516.709 401.543 516.709 401.544 C 516.709 401.544 510.072 401.838 510.072 401.838 C 510.073 401.839 523.191 407.921 523.192 407.921 Z"/>
<path fill="#00ff00" fill-rule="evenodd" stroke="none" d="M 716.676 196.108 C 716.674 196.108 695.602 188.461 695.599 188.461 C 695.600 188.461 702.577 196.037 702.578 196.037 C 702.577 196.038 695.524 203.542 695.524 203.542 C 695.526 203.542 716.674 196.109 716.676 196.108 Z"/>
<path fill="#00ffff" fill-rule="evenodd" stroke="none" d="M 628.763 40.831 C 628.762 40.833 620.781 63.368 620.780 63.371 C 620.780 63.370 619.269 52.491 619.269 52.490 C 619.268 52.490 608.309 53.214 608.308 53.214 C 608.310 53.213 628.761 40.832 628.763 40.831 Z"/>
<path fill="#00ffff" fill-rule="evenodd" stroke="none" d="M 91.348 41.578 C 91.349 41.580 100.815 63.533 100.816 63.535 C 100.816 63.534 101.598 52.579 101.598 52.578 C 101.599 52.578 112.582 52.570 112.583 52.570 C 112.581 52.569 91.350 41.579 91.348 41.578 Z"/>
<path fill="#be0027" fill-rule="evenodd" stroke="none" d="M 360.000 586.263 C 360.001 586.259 372.345 551.698 372.346 551.694 C 372.345 551.695 360.001 563.180 360.000 563.181 C 359.999 563.180 347.655 551.695 347.654 551.694 C 347.655 551.698 359.999 586.259 360.000 586.263 Z"/>
</g>
</g>
</svg>
