<?xml version="1.0" encoding="utf-8"?>
<!-- Generator: Moho 12.5 build 22414 -->
<!DOCTYPE svg PUBLIC "-//W3C//DTD SVG 1.1//EN" "http://www.w3.org/Graphics/SVG/1.1/DTD/svg11.dtd">
<svg version="1.1" id="Frame_0" xmlns="http://www.w3.org/2000/svg" xmlns:xlink="http://www.w3.org/1999/xlink" width="720px" height="720px">
<g id="Dinosaur_2">
<g id="Dinosaur_2">
<path fill="#000000" fill-rule="evenodd" stroke="#ffffff" stroke-width="1" stroke-linecap="round" stroke-linejoin="round" d="M 515.476 295.559 C 522.391 296.187 535.282 310.729 536.340 316.134 C 538.679 328.080 530.628 347.170 532.907 347.908 C 544.968 351.813 546.386 354.272 552.721 355.946 C 557.379 357.177 560.857 368.601 561.349 371.882 C 561.506 372.930 559.919 375.768 558.898 377.210 C 554.167 383.891 548.803 381.598 548.802 381.599 C 548.803 381.598 555.159 377.730 555.880 375.996 C 557.177 372.876 554.242 364.588 554.242 364.587 C 554.242 364.588 557.377 375.249 553.381 376.678 C 544.915 379.708 541.299 375.126 541.298 375.126 C 541.299 375.125 549.780 374.415 551.154 371.129 C 552.103 368.861 549.414 364.901 548.816 364.172 C 548.340 363.593 545.521 364.776 543.806 361.190 C 542.401 358.253 529.400 363.184 525.398 360.332 C 520.079 356.542 518.465 338.522 517.204 337.252 C 516.335 336.378 504.685 334.212 501.559 330.983 C 497.300 326.585 493.319 317.810 494.330 309.195 C 496.746 299.815 509.538 295.019 515.476 295.559 Z"/>
<path fill="#000000" fill-rule="evenodd" stroke="#ffffff" stroke-width="1" stroke-linecap="round" stroke-linejoin="round" d="M 432.980 266.305 C 445.900 274.874 453.056 326.465 451.839 335.816 C 447.758 367.173 422.065 403.060 426.783 412.063 C 431.652 421.354 453.609 451.311 466.657 452.206 C 487.334 453.625 491.213 461.160 497.641 457.595 C 506.559 452.649 520.539 466.754 520.542 466.755 C 520.540 466.755 505.099 464.056 501.682 463.522 C 499.981 463.256 490.006 461.671 492.252 462.175 C 508.329 465.778 508.955 470.796 508.957 470.797 C 508.954 470.796 488.765 466.108 482.817 468.860 C 478.309 470.945 464.990 466.648 454.533 468.102 C 449.052 468.864 431.635 445.473 431.633 445.471 C 431.634 445.473 447.359 464.313 445.373 464.330 C 438.297 464.393 420.235 450.357 414.928 439.544 C 410.563 430.649 396.472 427.006 395.799 422.031 C 394.829 414.848 400.273 405.723 401.727 400.208 C 408.289 375.304 423.009 359.260 423.011 359.256 C 423.009 359.260 407.101 375.057 402.535 398.053 C 401.570 402.915 395.050 378.709 396.069 357.100 C 396.422 349.616 361.324 325.449 362.930 303.486 C 364.042 288.276 378.009 274.109 389.333 268.730 C 400.114 263.609 425.138 261.105 432.980 266.305 Z"/>
<path fill="none" stroke="#ffffff" stroke-width="1" stroke-linecap="round" stroke-linejoin="round" d="M 415.116 415.421 C 430.630 428.010 451.504 459.648 457.037 458.673 C 476.497 455.245 487.976 461.999 487.979 462.000 M 438.406 354.202 C 437.460 361.335 431.222 371.485 421.105 382.150 C 406.666 397.372 414.470 402.404 404.470 417.084 C 400.701 422.616 421.465 428.889 430.754 443.701 "/>
<path fill="none" stroke="#000000" stroke-width="1" stroke-linecap="round" stroke-linejoin="round" d="M 631.546 287.981 C 631.537 287.982 590.045 277.020 543.977 299.659 C 509.451 316.626 516.705 322.497 478.584 327.866 C 310.029 351.606 313.758 291.632 188.067 272.112 C 123.899 262.147 46.321 280.269 24.961 286.483 "/>
<path fill="#000000" fill-rule="evenodd" stroke="none" d="M 672.478 315.186 C 672.479 315.185 681.802 301.928 681.803 301.927 C 681.803 301.928 682.371 318.125 682.371 318.127 C 682.370 318.127 672.479 315.187 672.478 315.186 M 664.601 309.935 C 664.602 309.934 673.925 296.677 673.926 296.676 C 673.926 296.677 674.495 312.874 674.495 312.876 C 674.494 312.876 664.602 309.935 664.601 309.935 M 655.599 304.684 C 655.600 304.683 664.923 291.426 664.924 291.425 C 664.924 291.426 665.492 307.623 665.493 307.625 C 665.492 307.624 655.600 304.684 655.599 304.684 M 646.972 298.683 C 646.973 298.681 656.296 285.425 656.297 285.423 C 656.297 285.425 656.866 301.622 656.866 301.623 C 656.865 301.623 646.973 298.683 646.972 298.683 M 637.970 294.182 C 637.971 294.180 647.295 280.924 647.295 280.922 C 647.296 280.924 647.864 297.121 647.864 297.122 C 647.863 297.122 637.971 294.182 637.970 294.182 M 693.728 258.597 C 693.729 258.598 699.572 273.716 699.573 273.717 C 699.573 273.716 704.038 258.136 704.038 258.135 C 704.037 258.135 693.729 258.597 693.728 258.597 M 682.851 260.097 C 682.851 260.098 688.695 275.216 688.695 275.218 C 688.696 275.216 693.160 259.637 693.161 259.635 C 693.160 259.635 682.852 260.097 682.851 260.097 M 671.223 262.347 C 671.224 262.349 677.067 277.467 677.068 277.468 C 677.068 277.467 681.533 261.887 681.533 261.885 C 681.532 261.885 671.224 262.347 671.223 262.347 M 660.346 264.598 C 660.346 264.599 666.190 279.717 666.190 279.718 C 666.191 279.717 670.655 264.137 670.656 264.136 C 670.655 264.136 660.347 264.598 660.346 264.598 M 648.343 266.473 C 648.344 266.475 654.187 281.592 654.188 281.594 C 654.188 281.592 658.653 266.013 658.653 266.011 C 658.652 266.011 648.344 266.473 648.343 266.473 M 636.341 268.724 C 636.341 268.725 642.185 283.843 642.185 283.844 C 642.186 283.843 646.650 268.263 646.651 268.262 C 646.649 268.262 636.342 268.723 636.341 268.724 M 624.713 267.598 C 624.714 267.600 630.557 282.717 630.558 282.719 C 630.558 282.717 635.022 267.138 635.023 267.136 C 635.022 267.136 624.714 267.598 624.713 267.598 M 628.218 289.681 C 628.219 289.679 637.542 276.423 637.543 276.421 C 637.543 276.423 638.112 292.620 638.112 292.621 C 638.111 292.621 628.219 289.681 628.218 289.681 Z"/>
<path fill="#ffffff" fill-rule="evenodd" stroke="#000000" stroke-width="1" stroke-linecap="round" stroke-linejoin="round" d="M 660.404 322.131 C 680.362 327.300 684.782 318.381 684.784 318.380 C 684.778 318.376 621.401 276.750 621.395 276.746 C 621.404 276.744 706.906 260.619 706.915 260.618 C 706.913 260.616 703.210 247.532 694.162 245.989 C 685.548 244.521 672.832 229.917 634.164 231.142 C 559.569 233.505 592.125 262.495 525.372 258.502 C 511.066 257.646 481.859 244.550 467.240 243.337 C 453.245 242.175 422.607 248.219 409.950 248.391 C 396.794 248.570 365.308 242.115 340.866 249.234 C 332.064 251.798 311.676 257.460 301.269 258.283 C 268.026 260.910 217.591 239.985 172.198 245.158 C 47.727 259.343 7.149 294.953 7.133 294.958 C 7.148 294.957 48.731 273.709 160.634 281.236 C 219.719 285.210 290.970 347.671 348.448 357.073 C 392.970 364.355 477.275 357.868 505.152 349.491 C 517.624 345.743 551.776 324.899 566.735 315.815 C 589.604 301.929 594.319 301.858 622.502 308.483 C 639.378 312.450 648.058 318.934 660.404 322.131 Z"/>
<path fill="none" stroke="#000000" stroke-width="1" stroke-linecap="round" stroke-linejoin="round" d="M 631.546 287.981 C 631.537 287.982 590.045 277.020 543.977 299.659 C 509.451 316.626 516.705 322.497 478.584 327.866 C 310.029 351.606 313.758 291.632 188.067 272.112 C 123.899 262.147 46.321 280.269 24.961 286.483 "/>
<path fill="#000000" fill-rule="evenodd" stroke="none" d="M 690.035 255.742 C 690.035 254.232 691.170 253.116 692.473 253.116 C 693.775 253.116 694.911 254.232 694.911 255.742 C 694.911 257.252 693.775 258.367 692.473 258.367 C 691.170 258.367 690.035 257.252 690.035 255.742 M 631.522 248.240 C 631.522 244.919 634.201 242.239 637.523 242.239 C 640.845 242.239 643.524 244.919 643.524 248.240 C 643.524 251.562 640.845 254.242 637.523 254.242 C 634.201 254.242 631.522 251.562 631.522 248.240 M 622.520 248.053 C 622.522 248.052 628.630 240.739 637.336 240.738 C 646.042 240.738 652.150 248.052 652.151 248.053 C 652.150 248.053 646.042 255.367 637.336 255.367 C 628.630 255.367 622.522 248.053 622.520 248.053 Z"/>
<path fill="#ffffff" fill-rule="evenodd" stroke="none" d="M 344.948 468.244 C 343.643 468.495 332.350 462.949 332.349 462.948 C 345.182 466.747 342.929 471.900 342.930 471.901 C 342.928 471.900 332.498 466.623 327.056 469.730 C 322.687 472.225 317.038 469.308 294.097 470.273 C 291.681 470.375 289.622 443.011 289.621 443.008 C 289.621 443.010 288.446 453.085 290.351 462.281 C 291.683 468.706 281.419 458.193 281.482 457.658 C 285.126 426.578 274.083 406.945 280.262 397.839 C 282.799 394.099 294.855 394.619 302.236 386.851 C 315.385 373.015 307.469 368.027 314.037 360.807 C 328.184 345.256 341.299 350.228 341.302 350.227 C 341.300 350.220 313.668 302.735 321.738 282.477 C 327.044 269.159 345.984 258.359 360.213 256.617 C 379.540 254.251 413.461 267.965 404.415 293.384 C 387.333 341.386 396.715 355.207 382.204 377.307 C 375.125 388.087 321.778 406.012 308.601 415.153 C 303.796 418.486 302.652 439.583 309.791 450.134 C 312.263 453.789 334.126 459.931 341.709 458.879 C 357.244 456.724 368.157 471.899 368.160 471.901 C 368.157 471.900 351.284 467.029 344.948 468.244 Z"/>
<path fill="none" stroke="#000000" stroke-width="1" stroke-linecap="round" stroke-linejoin="round" d="M 344.948 468.244 C 343.643 468.495 332.350 462.949 332.349 462.948 C 345.182 466.747 342.929 471.900 342.930 471.901 C 342.928 471.900 332.498 466.623 327.056 469.730 C 322.687 472.225 317.038 469.308 294.097 470.273 C 291.681 470.375 289.622 443.011 289.621 443.008 C 289.621 443.010 288.446 453.085 290.351 462.281 C 291.683 468.706 281.419 458.193 281.482 457.658 C 285.126 426.578 274.083 406.945 280.262 397.839 C 282.799 394.099 294.855 394.619 302.236 386.851 C 315.385 373.015 307.469 368.027 314.037 360.807 C 328.184 345.256 341.299 350.228 341.302 350.227 C 341.300 350.220 313.668 302.735 321.738 282.477 C 327.044 269.159 345.984 258.359 360.213 256.617 C 379.540 254.251 413.461 267.965 404.415 293.384 C 387.333 341.386 396.715 355.207 382.204 377.307 C 375.125 388.087 321.778 406.012 308.601 415.153 C 303.796 418.486 302.652 439.583 309.791 450.134 C 312.263 453.789 334.126 459.931 341.709 458.879 C 357.244 456.724 368.157 471.899 368.160 471.901 C 368.157 471.900 351.284 467.029 344.948 468.244 M 304.678 461.728 C 304.681 461.728 330.877 462.513 332.349 462.948 "/>
<path fill="none" stroke="#000000" stroke-width="1" stroke-linecap="round" stroke-linejoin="round" d="M 303.495 458.298 C 303.495 458.297 297.766 447.743 297.039 443.604 C 295.426 434.423 294.183 414.748 300.824 408.206 C 307.840 401.294 364.491 380.601 364.497 380.599 M 315.518 367.241 C 315.518 367.242 317.626 378.160 319.970 379.931 C 324.748 383.540 347.352 378.818 347.355 378.818 C 347.349 378.820 297.079 391.498 289.915 403.085 C 285.745 409.828 289.692 439.371 289.692 439.374 M 334.442 286.647 C 334.442 286.650 335.312 308.052 340.230 321.155 C 346.516 337.902 364.050 358.999 364.052 359.003 "/>
<path fill="#ffffff" fill-rule="evenodd" stroke="#000000" stroke-width="1" stroke-linecap="round" stroke-linejoin="round" d="M 523.319 300.316 C 529.085 304.183 533.423 323.126 531.760 328.376 C 528.083 339.981 511.863 352.871 513.509 354.612 C 522.220 363.823 522.285 366.661 527.041 371.167 C 530.538 374.481 528.111 386.174 526.969 389.289 C 526.604 390.284 523.850 392.013 522.263 392.789 C 514.907 396.382 511.300 391.798 511.299 391.798 C 511.300 391.798 518.732 391.452 520.196 390.276 C 522.831 388.161 524.231 379.480 524.231 379.479 C 524.231 379.480 521.869 390.338 517.677 389.677 C 508.795 388.275 507.820 382.520 507.819 382.520 C 507.820 382.520 515.602 385.963 518.385 383.739 C 520.304 382.203 519.844 377.440 519.669 376.513 C 519.529 375.777 516.488 375.463 516.703 371.494 C 516.879 368.242 503.105 366.334 500.961 361.912 C 498.112 356.036 505.338 339.449 504.840 337.730 C 504.497 336.547 495.312 329.059 494.117 324.726 C 492.490 318.825 493.204 309.215 498.224 302.141 C 504.842 295.068 518.367 296.995 523.319 300.316 Z"/>
<path fill="none" stroke="#000000" stroke-width="1" stroke-linecap="round" stroke-linejoin="round" d="M 513.800 334.822 C 511.341 340.806 504.279 351.873 506.278 357.937 C 507.641 362.071 519.252 368.249 519.254 368.250 M 502.618 309.694 C 502.618 309.695 500.004 320.211 501.288 323.668 C 503.983 330.927 509.659 333.328 513.800 334.822 C 515.641 335.486 521.249 334.980 521.250 334.980 "/>
</g>
<g id="stripes">
<path fill="#ffffff" fill-rule="evenodd" stroke="none" d="M 363.394 251.854 C 400.803 250.621 414.710 269.829 413.969 276.231 C 413.318 281.861 399.505 290.127 366.583 290.127 C 333.662 290.127 319.845 281.861 319.197 276.231 C 318.535 270.475 329.763 252.962 363.394 251.854 Z"/>
<path fill="#000000" fill-rule="evenodd" stroke="none" d="M 53.503 271.765 C 56.292 269.673 60.985 269.107 60.985 269.107 C 60.985 269.108 58.383 275.551 58.383 275.552 C 58.382 275.552 53.968 273.159 53.503 271.765 M 76.520 264.142 C 80.704 261.818 88.537 261.165 88.539 261.165 C 88.538 261.165 84.611 269.714 84.610 269.715 C 84.610 269.714 77.451 266.465 76.520 264.142 M 101.220 257.727 C 104.009 256.565 113.292 254.695 113.293 254.695 C 113.293 254.696 110.145 266.767 110.144 266.768 C 110.143 266.768 102.847 259.819 101.220 257.727 M 123.722 252.528 C 128.137 251.134 136.082 250.362 136.084 250.362 C 136.083 250.363 132.732 264.312 132.732 264.313 C 132.731 264.312 123.955 256.712 123.722 252.528 M 150.060 248.312 C 154.011 246.917 166.845 245.654 166.847 245.654 C 166.846 245.656 159.280 264.311 159.279 264.313 C 159.278 264.312 149.828 252.960 150.060 248.312 M 180.130 245.194 C 186.637 244.032 199.511 245.365 199.513 245.365 C 199.512 245.368 189.203 266.766 189.202 266.769 C 189.201 266.766 180.827 250.772 180.130 245.194 M 215.196 246.433 C 221.239 245.737 233.915 249.582 233.917 249.582 C 233.915 249.585 218.315 273.180 218.314 273.183 C 218.314 273.180 214.034 251.780 215.196 246.433 M 245.554 251.835 C 249.971 251.603 263.696 255.100 263.698 255.100 C 263.697 255.103 247.778 281.528 247.776 281.530 C 247.776 281.527 243.928 260.434 245.554 251.835 M 272.961 256.397 C 281.438 257.501 289.812 257.288 289.814 257.288 C 289.812 257.292 277.037 293.772 277.036 293.775 C 277.036 293.772 272.625 265.587 272.961 256.397 M 296.739 257.930 C 304.408 256.303 316.961 255.904 316.964 255.904 C 316.963 255.909 313.434 306.537 313.434 306.543 C 313.432 306.538 298.135 271.643 296.739 257.930 M 327.183 253.020 C 336.479 249.534 349.253 247.011 349.256 247.010 C 349.256 247.016 354.190 303.100 354.190 303.105 C 354.188 303.100 328.115 259.065 327.183 253.020 M 366.086 245.365 C 373.523 244.204 390.439 246.924 390.441 246.924 C 390.440 246.930 377.658 305.211 377.656 305.217 C 377.655 305.211 366.319 255.130 366.086 245.365 M 401.330 248.281 C 408.535 246.887 423.424 247.416 423.427 247.416 C 423.426 247.422 413.355 308.501 413.354 308.507 C 413.353 308.501 401.099 255.954 401.330 248.281 M 434.892 245.856 C 445.118 243.533 458.810 243.807 458.812 243.806 C 458.811 243.814 449.066 316.645 449.065 316.652 C 449.063 316.645 433.964 264.218 434.892 245.856 M 468.798 243.340 C 482.277 244.735 490.813 249.901 490.815 249.901 C 490.815 249.907 483.414 306.193 483.413 306.199 C 483.412 306.193 472.750 258.216 468.798 243.340 M 502.422 253.799 C 502.424 253.799 519.325 257.813 519.326 257.813 C 519.326 257.817 514.754 294.846 514.753 294.850 C 514.752 294.846 502.423 253.803 502.422 253.799 M 528.073 258.740 C 535.277 258.972 544.711 258.912 544.713 258.912 C 544.713 258.915 543.492 292.158 543.491 292.161 C 543.490 292.158 529.933 266.643 528.073 258.740 M 552.821 258.047 C 560.490 256.652 568.048 252.903 568.050 252.903 C 568.050 252.906 570.437 283.639 570.437 283.642 C 570.435 283.639 554.682 263.161 552.821 258.047 M 576.336 247.446 C 579.125 244.193 588.181 239.965 588.182 239.964 C 588.183 239.968 595.657 278.408 595.658 278.412 C 595.656 278.409 578.429 252.096 576.336 247.446 M 598.580 235.919 C 604.854 232.898 614.596 232.914 614.598 232.913 C 614.598 232.917 612.765 270.343 612.765 270.347 C 612.763 270.343 599.511 238.246 598.580 235.919 Z"/>
<path fill="#000000" fill-rule="evenodd" stroke="none" d="M 310.179 450.427 C 310.179 450.427 305.765 442.529 305.764 442.528 C 305.764 442.529 296.472 452.750 296.471 452.751 C 296.472 452.751 306.117 453.783 310.179 450.427 M 305.532 437.417 C 305.532 437.416 304.835 428.124 304.835 428.123 C 304.834 428.123 291.129 432.537 291.127 432.537 C 291.129 432.538 299.023 437.267 305.532 437.417 M 305.300 422.779 C 306.069 416.822 309.249 414.416 309.250 414.415 C 309.248 414.414 292.988 407.910 292.986 407.910 C 292.987 407.911 295.590 416.723 305.300 422.779 M 314.826 411.162 C 320.220 409.669 325.280 406.051 325.281 406.051 C 325.279 406.050 308.090 392.809 308.088 392.808 C 308.089 392.809 308.623 405.006 314.826 411.162 M 333.645 402.798 C 339.629 401.610 343.635 398.384 343.636 398.384 C 343.634 398.383 327.141 386.768 327.140 386.767 C 327.140 386.768 328.082 397.639 333.645 402.798 M 351.768 394.899 C 354.642 394.414 361.060 390.717 361.061 390.717 C 361.059 390.715 342.011 374.455 342.009 374.453 C 342.010 374.455 343.707 389.231 351.768 394.899 M 374.304 383.979 C 381.275 381.422 383.365 374.454 383.366 374.453 C 383.362 374.452 351.771 361.908 351.768 361.907 C 351.770 361.909 366.403 379.794 374.304 383.979 M 388.477 364.230 C 390.568 359.350 391.032 352.150 391.033 352.148 C 391.030 352.148 361.761 352.613 361.758 352.613 C 361.761 352.614 375.463 361.905 388.477 364.230 M 391.962 343.784 C 392.194 343.793 394.285 329.845 394.285 329.844 C 394.282 329.845 361.297 336.349 361.293 336.349 C 361.296 336.350 380.572 343.375 391.962 343.784 M 396.376 319.156 C 398.624 313.501 399.861 304.056 399.862 304.054 C 399.858 304.056 360.833 317.064 360.829 317.065 C 360.832 317.066 385.354 321.907 396.376 319.156 Z"/>
<path fill="#000000" fill-rule="evenodd" stroke="none" d="M 512.756 353.622 C 514.114 352.151 517.839 347.077 517.840 347.076 C 517.839 347.077 505.013 348.109 505.012 348.109 C 505.012 348.110 505.584 352.152 512.756 353.622 M 522.661 341.739 C 527.395 336.591 529.364 333.054 529.365 333.053 C 529.363 333.054 508.188 337.360 508.186 337.360 C 508.188 337.361 512.063 342.140 522.661 341.739 M 531.082 327.547 C 532.606 321.406 531.170 316.449 531.170 316.448 C 531.168 316.449 508.788 324.365 508.786 324.366 C 508.788 324.366 518.411 328.385 531.082 327.547 M 529.534 311.117 C 528.946 304.070 524.459 300.617 524.458 300.616 C 524.456 300.617 506.887 312.057 506.885 312.058 C 506.887 312.058 515.978 314.988 529.534 311.117 Z"/>
</g>
<g id="specs_2">
<path fill="#ff0000" fill-rule="evenodd" stroke="none" d="M 407.806 505.805 C 407.807 505.808 420.222 540.571 420.224 540.574 C 420.222 540.573 407.807 529.022 407.806 529.020 C 407.805 529.022 395.390 540.573 395.389 540.574 C 395.390 540.571 407.805 505.808 407.806 505.805 Z"/>
<path fill="#0000ff" fill-rule="evenodd" stroke="none" d="M 639.126 215.590 C 639.127 215.592 646.338 235.785 646.339 235.787 C 646.338 235.787 639.127 229.077 639.126 229.076 C 639.125 229.077 631.914 235.787 631.913 235.787 C 631.914 235.785 639.125 215.592 639.126 215.590 Z"/>
<path fill="#00ff00" fill-rule="evenodd" stroke="none" d="M 389.530 234.042 C 389.531 234.043 402.758 250.921 402.759 250.922 C 402.758 250.922 393.794 246.836 393.793 246.836 C 393.793 246.837 389.073 255.482 389.072 255.483 C 389.073 255.481 389.530 234.044 389.530 234.042 Z"/>
<path fill="#ffff00" fill-rule="evenodd" stroke="none" d="M 272.988 337.853 C 272.989 337.852 280.835 320.768 280.836 320.767 C 280.836 320.768 281.249 329.394 281.249 329.395 C 281.250 329.395 289.883 329.604 289.884 329.604 C 289.883 329.605 272.990 337.853 272.988 337.853 Z"/>
<path fill="#ffff00" fill-rule="evenodd" stroke="none" d="M 571.639 326.849 C 571.639 326.848 563.451 309.925 563.450 309.923 C 563.450 309.924 563.211 318.557 563.211 318.558 C 563.210 318.558 554.582 318.941 554.581 318.941 C 554.582 318.941 571.638 326.848 571.639 326.849 Z"/>
<path fill="#00ff00" fill-rule="evenodd" stroke="none" d="M 470.842 229.397 C 470.842 229.399 463.528 249.555 463.527 249.557 C 463.528 249.557 470.774 242.883 470.774 242.882 C 470.775 242.883 477.952 249.629 477.953 249.630 C 477.952 249.628 470.843 229.399 470.842 229.397 Z"/>
<path fill="#00ffff" fill-rule="evenodd" stroke="none" d="M 596.900 221.788 C 596.902 221.789 613.663 235.161 613.665 235.163 C 613.664 235.163 604.000 233.254 603.999 233.254 C 603.999 233.255 601.399 242.756 601.399 242.757 C 601.398 242.755 596.900 221.790 596.900 221.788 Z"/>
<path fill="#00ffff" fill-rule="evenodd" stroke="none" d="M 683.804 225.539 C 683.803 225.540 667.519 239.490 667.517 239.492 C 667.518 239.492 677.110 237.246 677.111 237.246 C 677.111 237.247 680.041 246.651 680.041 246.652 C 680.042 246.650 683.804 225.541 683.804 225.539 Z"/>
<path fill="#be0027" fill-rule="evenodd" stroke="none" d="M 4.279 294.715 C 4.283 294.715 41.098 292.032 41.102 292.032 C 41.100 292.032 25.518 285.340 25.517 285.339 C 25.517 285.337 31.071 269.315 31.071 269.313 C 31.069 269.315 4.282 294.713 4.279 294.715 Z"/>
</g>
</g>
</svg>
