<?xml version="1.0" encoding="utf-8"?>
<!-- Generator: Moho 12.5 build 22414 -->
<!DOCTYPE svg PUBLIC "-//W3C//DTD SVG 1.1//EN" "http://www.w3.org/Graphics/SVG/1.1/DTD/svg11.dtd">
<svg version="1.1" id="Frame_0" xmlns="http://www.w3.org/2000/svg" xmlns:xlink="http://www.w3.org/1999/xlink" width="720px" height="720px">
<g id="Dinosaur_">
<g id="Dinosaur_2">
<path fill="#000000" fill-rule="evenodd" stroke="#ffffff" stroke-width="1" stroke-linecap="round" stroke-linejoin="round" d="M 515.669 295.478 C 522.593 296.108 535.500 310.667 536.560 316.079 C 538.902 328.040 530.840 347.154 533.123 347.893 C 545.199 351.803 546.619 354.265 552.961 355.941 C 557.625 357.173 561.107 368.612 561.600 371.897 C 561.757 372.946 560.168 375.788 559.146 377.232 C 554.409 383.921 549.038 381.625 549.037 381.626 C 549.038 381.625 555.402 377.752 556.124 376.016 C 557.422 372.892 554.484 364.593 554.484 364.592 C 554.484 364.593 557.622 375.267 553.622 376.699 C 545.145 379.733 541.525 375.145 541.524 375.145 C 541.525 375.144 550.016 374.433 551.392 371.142 C 552.342 368.872 549.650 364.907 549.051 364.177 C 548.575 363.598 545.752 364.782 544.035 361.192 C 542.628 358.250 529.611 363.188 525.604 360.332 C 520.278 356.537 518.663 338.495 517.399 337.223 C 516.530 336.348 504.865 334.180 501.735 330.947 C 497.471 326.544 493.485 317.758 494.498 309.132 C 496.916 299.740 509.725 294.938 515.669 295.478 Z"/>
<path fill="#000000" fill-rule="evenodd" stroke="#ffffff" stroke-width="1" stroke-linecap="round" stroke-linejoin="round" d="M 433.070 266.189 C 446.007 274.768 453.172 326.424 451.954 335.786 C 447.867 367.182 422.142 403.113 426.866 412.128 C 431.741 421.430 453.725 451.425 466.790 452.321 C 487.493 453.741 491.376 461.286 497.812 457.717 C 506.741 452.764 520.739 466.887 520.741 466.888 C 520.740 466.888 505.280 464.185 501.859 463.651 C 500.156 463.385 490.168 461.798 492.417 462.302 C 508.514 465.910 509.141 470.934 509.142 470.935 C 509.140 470.934 488.925 466.241 482.970 468.995 C 478.457 471.083 465.121 466.781 454.651 468.237 C 449.163 469.000 431.724 445.580 431.722 445.577 C 431.723 445.579 447.468 464.443 445.479 464.461 C 438.394 464.524 420.310 450.470 414.997 439.643 C 410.626 430.737 396.517 427.090 395.844 422.108 C 394.872 414.917 399.486 405.488 401.779 400.258 C 403.433 396.483 403.975 393.342 402.588 398.100 C 401.199 402.865 395.094 378.732 396.114 357.097 C 396.467 349.603 361.326 325.407 362.934 303.415 C 364.047 288.187 378.031 274.002 389.370 268.617 C 400.164 263.489 425.219 260.982 433.070 266.189 Z"/>
<path fill="none" stroke="#000000" stroke-width="1" stroke-linecap="round" stroke-linejoin="round" d="M 631.884 287.892 C 631.875 287.893 590.332 276.916 544.206 299.584 C 509.637 316.572 516.900 322.450 478.732 327.826 C 309.966 351.595 313.700 291.547 187.853 272.003 C 123.605 262.025 45.930 280.170 24.544 286.391 "/>
<path fill="#000000" fill-rule="evenodd" stroke="none" d="M 672.867 315.130 C 672.868 315.129 682.203 301.856 682.204 301.855 C 682.204 301.856 682.773 318.073 682.773 318.075 C 682.772 318.075 672.868 315.131 672.867 315.130 M 664.980 309.873 C 664.981 309.871 674.316 296.598 674.317 296.597 C 674.317 296.599 674.886 312.816 674.886 312.817 C 674.885 312.817 664.981 309.873 664.980 309.873 M 655.967 304.615 C 655.968 304.614 665.303 291.341 665.304 291.339 C 665.304 291.341 665.873 307.558 665.873 307.559 C 665.872 307.559 655.968 304.615 655.967 304.615 M 647.330 298.606 C 647.330 298.605 656.665 285.332 656.666 285.330 C 656.666 285.332 657.235 301.549 657.236 301.551 C 657.234 301.550 647.331 298.607 647.330 298.606 M 638.317 294.100 C 638.318 294.098 647.652 280.825 647.653 280.824 C 647.653 280.825 648.222 297.042 648.223 297.044 C 648.222 297.044 638.318 294.100 638.317 294.100 M 694.144 258.470 C 694.145 258.472 699.995 273.609 699.996 273.610 C 699.996 273.608 704.466 258.009 704.467 258.008 C 704.466 258.008 694.145 258.470 694.144 258.470 M 683.253 259.973 C 683.254 259.974 689.104 275.111 689.105 275.112 C 689.105 275.111 693.575 259.512 693.576 259.510 C 693.575 259.510 683.254 259.972 683.253 259.973 M 671.611 262.226 C 671.611 262.227 677.462 277.364 677.463 277.365 C 677.463 277.364 681.933 261.765 681.934 261.763 C 681.933 261.763 671.612 262.226 671.611 262.226 M 660.720 264.479 C 660.720 264.480 666.571 279.617 666.572 279.618 C 666.572 279.617 671.042 264.018 671.043 264.016 C 671.041 264.016 660.721 264.479 660.720 264.479 M 648.702 266.357 C 648.703 266.358 654.554 281.495 654.554 281.496 C 654.555 281.495 659.025 265.896 659.025 265.894 C 659.024 265.894 648.703 266.357 648.702 266.357 M 636.685 268.610 C 636.685 268.611 642.536 283.748 642.537 283.749 C 642.537 283.748 647.007 268.149 647.008 268.147 C 647.007 268.147 636.686 268.610 636.685 268.610 M 625.043 267.483 C 625.043 267.485 630.894 282.621 630.895 282.623 C 630.895 282.621 635.365 267.022 635.365 267.021 C 635.364 267.021 625.044 267.483 625.043 267.483 M 628.552 289.593 C 628.553 289.592 637.888 276.318 637.889 276.317 C 637.889 276.319 638.458 292.536 638.458 292.537 C 638.457 292.537 628.553 289.593 628.552 289.593 Z"/>
<path fill="#ffffff" fill-rule="evenodd" stroke="#000000" stroke-width="1" stroke-linecap="round" stroke-linejoin="round" d="M 660.778 322.084 C 680.761 327.260 685.186 318.329 685.189 318.329 C 685.182 318.324 621.727 276.647 621.721 276.642 C 621.729 276.641 707.338 260.496 707.347 260.494 C 707.345 260.492 703.637 247.392 694.578 245.847 C 685.954 244.377 673.222 229.755 634.505 230.982 C 559.817 233.347 592.414 262.374 525.578 258.375 C 511.254 257.518 482.011 244.406 467.373 243.191 C 453.361 242.028 422.685 248.080 410.013 248.252 C 396.840 248.432 365.314 241.968 340.842 249.096 C 332.029 251.663 311.616 257.333 301.196 258.156 C 267.912 260.787 217.414 239.836 171.964 245.015 C 47.338 259.218 6.710 294.872 6.693 294.877 C 6.709 294.876 48.343 273.601 160.386 281.138 C 219.545 285.117 290.884 347.656 348.434 357.069 C 393.011 364.361 477.421 357.866 505.333 349.478 C 517.820 345.725 552.014 324.855 566.992 315.760 C 589.890 301.857 594.611 301.786 622.829 308.419 C 639.726 312.391 648.417 318.883 660.778 322.084 Z"/>
<path fill="none" stroke="#000000" stroke-width="1" stroke-linecap="round" stroke-linejoin="round" d="M 631.884 287.892 C 631.875 287.893 590.332 276.916 544.206 299.584 C 509.637 316.572 516.900 322.450 478.732 327.826 C 309.966 351.595 313.700 291.547 187.853 272.003 C 123.605 262.025 45.930 280.170 24.544 286.391 "/>
<path fill="#000000" fill-rule="evenodd" stroke="none" d="M 690.446 255.612 C 690.446 254.100 691.583 252.983 692.887 252.983 C 694.191 252.983 695.328 254.100 695.328 255.612 C 695.328 257.124 694.191 258.241 692.887 258.241 C 691.583 258.241 690.446 257.124 690.446 255.612 M 631.860 248.101 C 631.860 244.775 634.543 242.092 637.869 242.092 C 641.195 242.092 643.877 244.775 643.877 248.101 C 643.877 251.427 641.195 254.110 637.869 254.110 C 634.543 254.110 631.860 251.427 631.860 248.101 M 622.847 247.913 C 622.849 247.912 628.964 240.590 637.681 240.590 C 646.398 240.590 652.514 247.912 652.515 247.913 C 652.514 247.914 646.398 255.237 637.681 255.237 C 628.964 255.237 622.849 247.914 622.847 247.913 Z"/>
<path fill="#ffffff" fill-rule="evenodd" stroke="none" d="M 344.929 468.379 C 343.623 468.630 332.316 463.077 332.315 463.077 C 345.164 466.880 342.907 472.039 342.909 472.040 C 342.907 472.040 332.464 466.755 327.015 469.867 C 322.641 472.365 316.984 469.444 294.015 470.411 C 291.595 470.512 289.534 443.114 289.534 443.112 C 289.534 443.113 288.356 453.201 290.264 462.408 C 291.598 468.841 281.322 458.315 281.384 457.780 C 285.033 426.661 273.976 407.004 280.162 397.886 C 282.703 394.142 294.774 394.662 302.164 386.885 C 315.330 373.031 307.404 368.037 313.980 360.808 C 328.145 345.238 341.276 350.216 341.279 350.215 C 341.277 350.208 313.610 302.664 321.691 282.380 C 327.003 269.046 345.966 258.232 360.213 256.488 C 379.564 254.120 413.528 267.851 404.471 293.301 C 387.368 341.362 396.760 355.201 382.231 377.329 C 375.144 388.122 321.730 406.069 308.537 415.221 C 303.727 418.559 302.581 439.682 309.728 450.247 C 312.204 453.906 334.094 460.056 341.686 459.002 C 357.240 456.844 368.167 472.039 368.170 472.040 C 368.168 472.040 351.273 467.162 344.929 468.379 Z"/>
<path fill="none" stroke="#000000" stroke-width="1" stroke-linecap="round" stroke-linejoin="round" d="M 344.929 468.379 C 343.623 468.630 332.316 463.077 332.315 463.077 C 345.164 466.880 342.907 472.039 342.909 472.040 C 342.907 472.040 332.464 466.755 327.015 469.867 C 322.641 472.365 316.984 469.444 294.015 470.411 C 291.595 470.512 289.534 443.114 289.534 443.112 C 289.534 443.113 288.356 453.201 290.264 462.408 C 291.598 468.841 281.322 458.315 281.384 457.780 C 285.033 426.661 273.976 407.004 280.162 397.886 C 282.703 394.142 294.774 394.662 302.164 386.885 C 315.330 373.031 307.404 368.037 313.980 360.808 C 328.145 345.238 341.276 350.216 341.279 350.215 C 341.277 350.208 313.610 302.664 321.691 282.380 C 327.003 269.046 345.966 258.232 360.213 256.488 C 379.564 254.120 413.528 267.851 404.471 293.301 C 387.368 341.362 396.760 355.201 382.231 377.329 C 375.144 388.122 321.730 406.069 308.537 415.221 C 303.727 418.559 302.581 439.682 309.728 450.247 C 312.204 453.906 334.094 460.056 341.686 459.002 C 357.240 456.844 368.167 472.039 368.170 472.040 C 368.168 472.040 351.273 467.162 344.929 468.379 M 304.609 461.855 C 304.612 461.855 330.841 462.640 332.315 463.077 "/>
<path fill="none" stroke="#000000" stroke-width="1" stroke-linecap="round" stroke-linejoin="round" d="M 315.462 367.250 C 315.463 367.251 317.573 378.183 319.920 379.956 C 324.704 383.569 347.336 378.841 347.339 378.841 C 347.333 378.843 297.001 391.537 289.827 403.138 C 285.652 409.890 289.605 439.470 289.605 439.473 M 334.410 286.555 C 334.410 286.559 335.281 307.987 340.205 321.107 C 346.500 337.875 364.055 358.998 364.057 359.002 "/>
<path fill="#ffffff" fill-rule="evenodd" stroke="#000000" stroke-width="1" stroke-linecap="round" stroke-linejoin="round" d="M 523.522 300.241 C 529.296 304.114 533.639 323.080 531.974 328.337 C 528.293 339.956 512.052 352.862 513.700 354.605 C 522.422 363.828 522.487 366.669 527.249 371.181 C 530.750 374.499 528.320 386.207 527.177 389.325 C 526.812 390.322 524.054 392.053 522.465 392.830 C 515.100 396.428 511.489 391.838 511.488 391.838 C 511.489 391.837 518.930 391.491 520.396 390.314 C 523.034 388.196 524.435 379.504 524.436 379.503 C 524.435 379.504 522.070 390.376 517.873 389.714 C 508.980 388.310 508.004 382.548 508.003 382.548 C 508.004 382.548 515.796 385.996 518.582 383.768 C 520.504 382.231 520.044 377.461 519.867 376.534 C 519.728 375.797 516.683 375.482 516.898 371.508 C 517.074 368.253 503.284 366.342 501.137 361.915 C 498.284 356.031 505.519 339.424 505.020 337.702 C 504.677 336.517 495.481 329.020 494.284 324.682 C 492.655 318.774 493.370 309.152 498.396 302.069 C 505.023 294.987 518.565 296.916 523.522 300.241 Z"/>
<path fill="none" stroke="#000000" stroke-width="1" stroke-linecap="round" stroke-linejoin="round" d="M 513.992 334.791 C 511.529 340.782 504.458 351.863 506.460 357.934 C 507.825 362.074 519.451 368.260 519.452 368.261 M 502.796 309.631 C 502.796 309.633 500.179 320.162 501.464 323.622 C 504.162 330.891 509.845 333.295 513.992 334.791 C 515.835 335.456 521.450 334.949 521.451 334.949 "/>
</g>
<g id="stripes">
<path fill="#ffffff" fill-rule="evenodd" stroke="none" d="M 504.430 295.102 C 515.637 290.553 519.970 292.480 522.393 292.560 C 533.254 292.918 523.131 311.812 504.250 314.750 C 492.789 316.534 488.319 315.057 488.947 306.473 C 489.134 303.913 492.564 299.918 504.430 295.102 Z"/>
<path fill="#ffffff" fill-rule="evenodd" stroke="none" d="M 363.398 251.720 C 400.853 250.485 414.778 269.717 414.037 276.126 C 413.384 281.764 399.554 290.041 366.592 290.041 C 333.629 290.041 319.796 281.764 319.146 276.126 C 318.483 270.364 329.725 252.829 363.398 251.720 Z"/>
<path fill="#000000" fill-rule="evenodd" stroke="none" d="M 53.121 271.655 C 55.914 269.561 60.612 268.994 60.613 268.994 C 60.613 268.994 58.007 275.446 58.007 275.447 C 58.006 275.446 53.587 273.051 53.121 271.655 M 76.167 264.022 C 80.356 261.695 88.199 261.042 88.201 261.041 C 88.200 261.042 84.268 269.602 84.267 269.602 C 84.267 269.602 77.099 266.349 76.167 264.022 M 100.897 257.600 C 103.690 256.436 112.985 254.564 112.986 254.564 C 112.985 254.565 109.834 266.651 109.833 266.653 C 109.832 266.652 102.527 259.694 100.897 257.600 M 123.427 252.395 C 127.849 250.999 135.803 250.225 135.805 250.225 C 135.804 250.226 132.449 264.193 132.449 264.194 C 132.448 264.193 123.661 256.583 123.427 252.395 M 149.798 248.173 C 153.755 246.776 166.605 245.512 166.606 245.512 C 166.606 245.513 159.030 264.192 159.029 264.194 C 159.028 264.193 149.566 252.827 149.798 248.173 M 179.906 245.050 C 186.421 243.887 199.312 245.223 199.314 245.223 C 199.313 245.225 188.990 266.650 188.989 266.653 C 188.988 266.650 180.604 250.636 179.906 245.050 M 215.015 246.292 C 221.066 245.594 233.758 249.444 233.760 249.445 C 233.758 249.447 218.139 273.072 218.137 273.075 C 218.137 273.072 213.853 251.645 215.015 246.292 M 245.412 251.700 C 249.833 251.468 263.576 254.969 263.578 254.970 C 263.577 254.972 247.638 281.430 247.636 281.432 C 247.636 281.429 243.783 260.310 245.412 251.700 M 272.853 256.268 C 281.340 257.373 289.725 257.160 289.726 257.160 C 289.725 257.164 276.934 293.689 276.933 293.693 C 276.932 293.689 272.516 265.469 272.853 256.268 M 296.660 257.803 C 304.339 256.174 316.908 255.775 316.910 255.775 C 316.909 255.780 313.376 306.471 313.376 306.476 C 313.374 306.471 298.058 271.533 296.660 257.803 M 327.142 252.886 C 336.450 249.396 349.240 246.870 349.242 246.870 C 349.243 246.875 354.183 303.029 354.183 303.034 C 354.180 303.029 328.075 258.940 327.142 252.886 M 366.093 245.223 C 373.540 244.060 390.477 246.783 390.479 246.784 C 390.478 246.789 377.680 305.143 377.678 305.148 C 377.677 305.142 366.327 254.999 366.093 245.223 M 401.381 248.142 C 408.595 246.746 423.503 247.275 423.506 247.275 C 423.505 247.281 413.422 308.436 413.421 308.443 C 413.420 308.436 401.150 255.824 401.381 248.142 M 434.986 245.714 C 445.224 243.388 458.933 243.662 458.935 243.662 C 458.934 243.669 449.177 316.590 449.176 316.598 C 449.174 316.591 434.057 264.099 434.986 245.714 M 468.934 243.195 C 482.429 244.591 490.976 249.764 490.978 249.764 C 490.978 249.770 483.568 306.126 483.567 306.132 C 483.565 306.125 472.890 258.089 468.934 243.195 M 502.600 253.667 C 502.601 253.667 519.523 257.686 519.525 257.686 C 519.524 257.690 514.946 294.765 514.946 294.769 C 514.945 294.764 502.601 253.671 502.600 253.667 M 528.282 258.614 C 535.495 258.847 544.942 258.786 544.943 258.786 C 544.943 258.789 543.720 292.073 543.720 292.077 C 543.718 292.073 530.145 266.527 528.282 258.614 M 553.061 257.920 C 560.740 256.523 568.307 252.770 568.309 252.770 C 568.309 252.773 570.699 283.544 570.699 283.547 C 570.697 283.544 554.924 263.040 553.061 257.920 M 576.605 247.306 C 579.398 244.049 588.465 239.815 588.466 239.815 C 588.467 239.818 595.951 278.307 595.951 278.311 C 595.949 278.307 578.701 251.962 576.605 247.306 M 598.877 235.765 C 605.159 232.740 614.914 232.755 614.915 232.755 C 614.915 232.759 613.080 270.231 613.080 270.235 C 613.078 270.232 599.809 238.094 598.877 235.765 Z"/>
<path fill="#000000" fill-rule="evenodd" stroke="none" d="M 310.117 450.540 C 310.116 450.539 305.697 442.631 305.697 442.631 C 305.696 442.632 296.393 452.865 296.392 452.866 C 296.393 452.866 306.050 453.900 310.117 450.540 M 305.464 437.513 C 305.464 437.512 304.766 428.209 304.766 428.208 C 304.765 428.208 291.043 432.627 291.042 432.628 C 291.043 432.628 298.947 437.363 305.464 437.513 M 305.232 422.858 C 306.002 416.893 309.186 414.484 309.187 414.483 C 309.185 414.482 292.904 407.970 292.903 407.969 C 292.904 407.971 295.510 416.794 305.232 422.858 M 314.770 411.226 C 320.170 409.731 325.237 406.109 325.238 406.108 C 325.236 406.107 308.025 392.850 308.023 392.848 C 308.024 392.850 308.559 405.062 314.770 411.226 M 333.612 402.852 C 339.604 401.661 343.614 398.432 343.615 398.431 C 343.613 398.430 327.100 386.801 327.099 386.800 C 327.099 386.802 328.042 397.686 333.612 402.852 M 351.757 394.942 C 354.635 394.457 361.061 390.755 361.062 390.755 C 361.060 390.753 341.989 374.473 341.987 374.471 C 341.988 374.473 343.687 389.268 351.757 394.942 M 374.322 384.009 C 381.302 381.449 383.394 374.472 383.395 374.471 C 383.391 374.470 351.760 361.910 351.757 361.909 C 351.760 361.911 366.410 379.819 374.322 384.009 M 388.513 364.235 C 390.606 359.349 391.071 352.140 391.071 352.139 C 391.068 352.139 361.763 352.604 361.760 352.604 C 361.763 352.605 375.483 361.908 388.513 364.235 M 392.002 343.764 C 392.234 343.772 394.328 329.808 394.328 329.806 C 394.325 329.807 361.298 336.319 361.295 336.320 C 361.298 336.321 380.597 343.354 392.002 343.764 M 396.422 319.106 C 398.672 313.444 399.911 303.986 399.911 303.985 C 399.907 303.986 360.834 317.011 360.830 317.012 C 360.833 317.012 385.385 321.860 396.422 319.106 Z"/>
<path fill="#000000" fill-rule="evenodd" stroke="none" d="M 512.946 353.614 C 514.306 352.142 518.036 347.061 518.036 347.060 C 518.035 347.060 505.194 348.094 505.192 348.094 C 505.193 348.095 505.765 352.142 512.946 353.614 M 522.864 341.716 C 527.604 336.562 529.575 333.021 529.576 333.020 C 529.574 333.020 508.373 337.332 508.371 337.332 C 508.372 337.333 512.252 342.117 522.864 341.716 M 531.296 327.506 C 532.821 321.358 531.383 316.395 531.383 316.394 C 531.381 316.395 508.973 324.320 508.971 324.321 C 508.973 324.321 518.609 328.346 531.296 327.506 M 529.745 311.056 C 529.156 304.000 524.663 300.543 524.663 300.542 C 524.661 300.543 507.070 311.997 507.068 311.998 C 507.070 311.998 516.172 314.932 529.745 311.056 Z"/>
</g>
<g id="specs_2">
<path fill="#ff0000" fill-rule="evenodd" stroke="none" d="M 407.866 505.986 C 407.867 505.990 420.297 540.796 420.299 540.799 C 420.297 540.798 407.867 529.232 407.866 529.231 C 407.865 529.232 395.434 540.798 395.433 540.799 C 395.434 540.796 407.865 505.990 407.866 505.986 Z"/>
<path fill="#0000ff" fill-rule="evenodd" stroke="none" d="M 639.474 215.410 C 639.475 215.412 646.695 235.631 646.696 235.633 C 646.695 235.632 639.475 228.914 639.474 228.913 C 639.473 228.914 632.253 235.632 632.252 235.633 C 632.253 235.631 639.473 215.412 639.474 215.410 Z"/>
<path fill="#00ff00" fill-rule="evenodd" stroke="none" d="M 389.567 233.885 C 389.568 233.887 402.811 250.785 402.812 250.786 C 402.811 250.786 393.837 246.695 393.836 246.695 C 393.835 246.696 389.109 255.352 389.109 255.353 C 389.109 255.351 389.566 233.887 389.567 233.885 Z"/>
<path fill="#ffff00" fill-rule="evenodd" stroke="none" d="M 272.880 337.826 C 272.880 337.824 280.737 320.720 280.737 320.718 C 280.737 320.719 281.151 329.356 281.151 329.357 C 281.152 329.357 289.796 329.566 289.797 329.566 C 289.795 329.567 272.881 337.825 272.880 337.826 Z"/>
<path fill="#ffff00" fill-rule="evenodd" stroke="none" d="M 571.903 326.808 C 571.902 326.806 563.705 309.863 563.704 309.861 C 563.704 309.862 563.464 318.505 563.464 318.506 C 563.463 318.506 554.824 318.889 554.823 318.889 C 554.825 318.890 571.901 326.807 571.903 326.808 Z"/>
<path fill="#00ff00" fill-rule="evenodd" stroke="none" d="M 470.981 229.234 C 470.980 229.236 463.657 249.417 463.656 249.419 C 463.657 249.419 470.912 242.737 470.913 242.736 C 470.913 242.737 478.099 249.492 478.100 249.492 C 478.099 249.490 470.981 229.236 470.981 229.234 Z"/>
<path fill="#00ffff" fill-rule="evenodd" stroke="none" d="M 597.195 221.616 C 597.197 221.617 613.979 235.006 613.981 235.007 C 613.980 235.007 604.304 233.096 604.303 233.096 C 604.303 233.097 601.700 242.610 601.699 242.611 C 601.699 242.609 597.196 221.618 597.195 221.616 Z"/>
<path fill="#00ffff" fill-rule="evenodd" stroke="none" d="M 684.208 225.371 C 684.206 225.373 667.902 239.340 667.900 239.342 C 667.901 239.341 677.505 237.093 677.506 237.093 C 677.506 237.094 680.439 246.510 680.440 246.511 C 680.440 246.509 684.207 225.374 684.208 225.371 Z"/>
<path fill="#be0027" fill-rule="evenodd" stroke="none" d="M 3.836 294.634 C 3.840 294.634 40.701 291.948 40.704 291.948 C 40.703 291.947 25.102 285.247 25.100 285.246 C 25.101 285.244 30.661 269.201 30.662 269.200 C 30.659 269.202 3.839 294.632 3.836 294.634 Z"/>
</g>
</g>
</svg>
