<?xml version="1.0" encoding="utf-8"?>
<!-- Generator: Moho 12.5 build 22414 -->
<!DOCTYPE svg PUBLIC "-//W3C//DTD SVG 1.1//EN" "http://www.w3.org/Graphics/SVG/1.1/DTD/svg11.dtd">
<svg version="1.1" id="Frame_0" xmlns="http://www.w3.org/2000/svg" xmlns:xlink="http://www.w3.org/1999/xlink" width="720px" height="720px">
<g id="dino_leg_fore">
<g id="dino_leg_fore">
<path fill="#ffffff" fill-rule="evenodd" stroke="#000000" stroke-width="1" stroke-linecap="round" stroke-linejoin="round" d="M 431.327 42.288 C 470.949 68.864 500.760 199.027 489.330 235.104 C 464.066 314.844 352.606 403.418 363.919 415.380 C 423.774 478.675 424.220 498.175 456.902 529.142 C 480.932 551.912 464.255 632.258 456.408 653.661 C 453.901 660.499 434.978 672.384 424.071 677.712 C 373.529 702.404 348.743 670.904 348.735 670.904 C 348.741 670.902 391.307 665.182 406.856 657.430 C 427.196 647.291 437.593 586.260 437.596 586.253 C 437.593 586.260 426.043 655.994 402.610 657.331 C 334.389 661.225 324.827 607.152 324.819 607.147 C 324.826 607.147 378.303 630.811 397.421 615.523 C 410.613 604.975 407.452 572.240 406.245 565.873 C 405.286 560.815 384.389 558.658 385.865 531.386 C 387.074 509.043 292.431 495.930 277.698 465.546 C 258.118 425.164 307.770 311.192 304.348 299.377 C 301.993 291.246 238.880 239.795 230.670 210.023 C 219.488 169.472 224.398 103.440 258.888 54.828 C 304.366 6.231 397.304 19.468 431.327 42.288 Z"/>
<path fill="none" stroke="#000000" stroke-width="1" stroke-linecap="round" stroke-linejoin="round" d="M 365.919 279.397 C 349.021 320.516 300.493 396.563 314.232 438.226 C 323.601 466.636 403.384 509.091 403.393 509.098 M 289.084 106.731 C 289.083 106.741 271.124 178.999 279.940 202.749 C 298.460 252.635 337.462 269.130 365.919 279.397 C 378.570 283.961 417.106 280.480 417.111 280.480 "/>
</g>
<g id="specs_2">
<path fill="#ff00ff" fill-rule="evenodd" stroke="none" d="M 269.458 228.411 C 269.475 228.411 436.453 228.411 436.470 228.411 C 436.470 228.394 436.470 61.415 436.470 61.399 C 436.453 61.399 269.475 61.399 269.458 61.399 C 269.458 61.415 269.458 228.394 269.458 228.411 Z"/>
<path fill="#ff0000" fill-rule="evenodd" stroke="none" d="M 360.000 662.331 C 360.001 662.335 372.416 697.097 372.417 697.101 C 372.416 697.100 360.001 685.548 360.000 685.547 C 359.999 685.548 347.584 697.100 347.583 697.101 C 347.584 697.097 359.999 662.335 360.000 662.331 Z"/>
<path fill="#0000ff" fill-rule="evenodd" stroke="none" d="M 353.969 11.161 C 353.970 11.163 361.182 31.356 361.182 31.359 C 361.182 31.358 353.970 24.648 353.969 24.647 C 353.969 24.648 346.757 31.358 346.756 31.359 C 346.757 31.356 353.969 11.163 353.969 11.161 Z"/>
<path fill="#00ff00" fill-rule="evenodd" stroke="none" d="M 258.040 446.437 C 258.042 446.437 278.199 439.123 278.201 439.122 C 278.200 439.123 271.527 446.369 271.526 446.369 C 271.527 446.370 278.273 453.547 278.274 453.548 C 278.272 453.547 258.042 446.438 258.040 446.437 Z"/>
<path fill="#ffff00" fill-rule="evenodd" stroke="none" d="M 318.732 605.052 C 318.734 605.053 339.554 610.179 339.556 610.179 C 339.556 610.179 329.980 612.492 329.979 612.492 C 329.979 612.493 331.597 622.210 331.597 622.211 C 331.596 622.209 318.733 605.054 318.732 605.052 Z"/>
<path fill="#ffff00" fill-rule="evenodd" stroke="none" d="M 475.351 567.778 C 475.350 567.776 466.012 548.475 466.011 548.473 C 466.011 548.474 465.737 558.321 465.737 558.321 C 465.736 558.322 455.895 558.758 455.894 558.758 C 455.896 558.759 475.349 567.777 475.351 567.778 Z"/>
<path fill="#00ff00" fill-rule="evenodd" stroke="none" d="M 422.760 353.966 C 422.758 353.966 402.602 346.652 402.600 346.651 C 402.600 346.652 409.274 353.898 409.274 353.898 C 409.274 353.899 402.527 361.076 402.527 361.077 C 402.529 361.076 422.758 353.967 422.760 353.966 Z"/>
<path fill="#00ffff" fill-rule="evenodd" stroke="none" d="M 502.311 213.250 C 502.309 213.252 486.180 227.381 486.178 227.382 C 486.179 227.381 489.768 218.208 489.768 218.207 C 489.768 218.206 480.877 213.965 480.876 213.965 C 480.878 213.965 502.308 213.250 502.311 213.250 Z"/>
<path fill="#00ffff" fill-rule="evenodd" stroke="none" d="M 222.075 107.345 C 222.076 107.347 233.728 125.347 233.730 125.348 C 233.730 125.347 232.784 115.542 232.784 115.541 C 232.785 115.541 242.496 113.892 242.497 113.892 C 242.495 113.891 222.077 107.345 222.075 107.345 Z"/>
<path fill="#be0027" fill-rule="evenodd" stroke="none" d="M 360.000 618.486 C 360.001 618.482 372.416 583.720 372.417 583.716 C 372.416 583.717 360.001 595.269 360.000 595.270 C 359.999 595.269 347.584 583.717 347.583 583.716 C 347.584 583.720 359.999 618.482 360.000 618.486 Z"/>
</g>
</g>
</svg>
