<?xml version="1.0" encoding="utf-8"?>
<!-- Generator: Moho 12.5 build 22414 -->
<!DOCTYPE svg PUBLIC "-//W3C//DTD SVG 1.1//EN" "http://www.w3.org/Graphics/SVG/1.1/DTD/svg11.dtd">
<svg version="1.1" id="Frame_0" xmlns="http://www.w3.org/2000/svg" xmlns:xlink="http://www.w3.org/1999/xlink" width="720px" height="720px">
<g id="dino_leg_hind">
<g id="dino_leg_hind_2">
<path fill="#ffffff" fill-rule="evenodd" stroke="#000000" stroke-width="1" stroke-linecap="round" stroke-linejoin="round" d="M 332.042 33.534 C 373.298 60.894 396.146 225.622 392.260 255.479 C 379.229 355.600 297.191 470.185 312.256 498.931 C 327.804 528.598 397.909 624.251 439.574 627.109 C 505.595 631.637 517.979 655.697 538.503 644.314 C 566.978 628.521 611.617 673.559 611.624 673.562 C 611.619 673.561 568.270 669.475 561.860 662.741 C 547.802 647.974 511.981 662.127 521.298 658.938 C 567.907 642.986 574.629 686.464 574.634 686.466 C 574.626 686.466 510.161 671.497 491.171 680.282 C 476.778 686.939 434.252 673.220 400.862 677.863 C 383.360 680.297 327.748 605.609 327.741 605.602 C 327.745 605.608 377.956 665.764 371.613 665.820 C 349.019 666.021 291.350 621.204 274.405 586.677 C 260.467 558.276 215.473 546.645 213.327 530.760 C 210.228 507.826 228.126 478.817 232.252 461.080 C 251.216 379.570 300.206 330.334 300.212 330.321 C 300.206 330.333 249.411 380.773 234.834 454.197 C 231.751 469.723 210.934 392.434 214.188 323.439 C 215.315 299.542 103.249 222.378 108.376 152.248 C 111.926 103.685 156.522 58.451 192.681 41.275 C 227.104 24.925 307.003 16.928 332.042 33.534 Z"/>
<path fill="none" stroke="#000000" stroke-width="1" stroke-linecap="round" stroke-linejoin="round" d="M 275.005 509.654 C 324.541 549.851 391.189 650.868 408.858 647.755 C 470.992 636.810 507.644 658.378 507.654 658.379 M 349.368 314.186 C 346.348 336.960 326.429 369.369 294.127 403.421 C 248.022 452.023 272.943 468.091 241.011 514.965 C 228.977 532.629 295.275 552.656 324.934 599.951 "/>
</g>
<g id="specs_2">
<path fill="#ff0000" fill-rule="evenodd" stroke="none" d="M 260.475 129.450 C 260.471 129.448 227.112 113.646 227.108 113.644 C 227.110 113.644 244.057 113.034 244.059 113.034 C 244.059 113.032 244.669 96.085 244.669 96.083 C 244.671 96.087 260.473 129.446 260.475 129.450 Z"/>
<path fill="#0000ff" fill-rule="evenodd" stroke="none" d="M 310.592 14.730 C 310.593 14.732 317.804 34.925 317.805 34.927 C 317.804 34.926 310.593 28.217 310.592 28.216 C 310.591 28.217 303.380 34.926 303.379 34.927 C 303.380 34.925 310.591 14.732 310.592 14.730 Z"/>
<path fill="#00ff00" fill-rule="evenodd" stroke="none" d="M 204.319 392.207 C 204.321 392.207 224.478 384.893 224.480 384.892 C 224.479 384.893 217.806 392.139 217.805 392.139 C 217.806 392.140 224.552 399.317 224.553 399.318 C 224.551 399.317 204.322 392.208 204.319 392.207 Z"/>
<path fill="#ffff00" fill-rule="evenodd" stroke="none" d="M 206.418 546.854 C 206.419 546.852 215.368 527.367 215.369 527.365 C 215.369 527.366 215.840 537.205 215.841 537.206 C 215.842 537.206 225.689 537.445 225.690 537.445 C 225.688 537.446 206.420 546.853 206.418 546.854 Z"/>
<path fill="#ffff00" fill-rule="evenodd" stroke="none" d="M 611.797 672.387 C 611.795 672.386 596.019 657.864 596.017 657.863 C 596.017 657.864 599.381 667.123 599.381 667.124 C 599.380 667.124 590.387 671.145 590.387 671.146 C 590.389 671.146 611.795 672.387 611.797 672.387 Z"/>
<path fill="#00ff00" fill-rule="evenodd" stroke="none" d="M 356.221 405.662 C 356.219 405.661 340.484 391.094 340.483 391.093 C 340.483 391.094 343.820 400.363 343.820 400.363 C 343.819 400.364 334.815 404.359 334.814 404.359 C 334.817 404.359 356.219 405.662 356.221 405.662 Z"/>
<path fill="#00ffff" fill-rule="evenodd" stroke="none" d="M 397.361 189.095 C 397.360 189.097 390.202 209.309 390.201 209.312 C 390.201 209.311 388.845 199.554 388.845 199.553 C 388.844 199.553 379.015 200.202 379.014 200.202 C 379.016 200.201 397.359 189.096 397.361 189.095 Z"/>
<path fill="#00ffff" fill-rule="evenodd" stroke="none" d="M 164.991 44.141 C 164.992 44.143 173.482 63.833 173.483 63.835 C 173.483 63.834 174.185 54.009 174.185 54.008 C 174.186 54.008 184.036 54.000 184.037 54.000 C 184.035 53.999 164.993 44.142 164.991 44.141 Z"/>
<path fill="#be0027" fill-rule="evenodd" stroke="none" d="M 97.857 192.070 C 97.861 192.069 133.662 183.078 133.665 183.077 C 133.664 183.077 117.161 179.172 117.160 179.172 C 117.160 179.170 119.867 162.430 119.867 162.428 C 119.865 162.431 97.859 192.067 97.857 192.070 Z"/>
</g>
</g>
</svg>
