<?xml version="1.0" encoding="utf-8"?>
<!-- Generator: Moho 13.0.3 build 635 -->
<!DOCTYPE svg PUBLIC "-//W3C//DTD SVG 1.1//EN" "http://www.w3.org/Graphics/SVG/1.1/DTD/svg11.dtd">
<svg version="1.1" id="Frame_0" xmlns="http://www.w3.org/2000/svg" xmlns:xlink="http://www.w3.org/1999/xlink" width="720px" height="720px">
<g id="door">
<g id="door">
<path fill="#ffffff" fill-rule="evenodd" stroke="#000000" stroke-width="4" stroke-linejoin="round" d="M 100.891 365.282 C 113.845 365.282 124.294 375.732 124.295 388.686 C 124.295 401.639 113.845 412.089 100.891 412.089 C 87.938 412.089 77.488 401.639 77.488 388.686 C 77.488 375.732 87.938 365.282 100.891 365.282 Z"/>
<path fill="#ffffff" fill-rule="evenodd" stroke="none" d="M 118.966 689.890 C 118.963 689.889 98.163 679.489 87.761 674.288 C 87.761 502.664 87.761 159.466 87.761 159.415 C 87.785 159.401 329.118 20.067 329.142 20.053 C 329.145 20.055 349.945 30.455 360.346 35.655 C 360.346 207.280 360.346 550.478 360.346 550.529 C 360.322 550.543 118.990 689.876 118.966 689.890 Z"/>
<path fill="none" stroke="#000000" stroke-width="4" stroke-linejoin="round" d="M 87.761 674.288 C 87.761 674.285 87.761 159.463 87.761 159.415 C 87.782 159.403 329.142 20.053 329.142 20.053 C 339.544 25.254 360.343 35.654 360.346 35.655 C 360.346 35.706 360.346 550.478 360.346 550.529 C 360.322 550.543 118.990 689.876 118.966 689.890 C 108.564 684.690 98.163 679.489 87.761 674.288 M 87.761 159.415 C 98.163 164.615 108.564 169.816 118.966 175.017 C 118.987 175.005 360.339 35.659 360.346 35.655 M 118.966 689.890 C 118.966 689.887 118.966 175.065 118.966 175.017 M 360.810 513.421 C 360.835 513.434 513.081 600.547 602.890 652.257 C 602.890 492.220 602.890 173.646 602.890 173.598 C 602.869 173.586 361.516 34.240 361.509 34.237 C 361.509 34.288 361.509 549.059 361.509 549.111 C 361.276 537.214 361.043 525.317 360.810 513.421 M 602.890 688.472 C 602.890 688.469 602.890 663.900 602.890 652.257 M 361.509 549.111 C 361.533 549.125 602.866 688.458 602.890 688.472 "/>
<path fill="#ffffff" fill-rule="evenodd" stroke="#000000" stroke-width="4" stroke-linejoin="round" d="M 361.147 549.496 C 361.031 537.365 360.916 525.235 360.800 513.104 C 360.824 513.118 522.110 605.722 602.968 652.422 C 602.968 663.995 602.968 688.414 602.968 688.418 C 602.944 688.404 361.171 549.510 361.147 549.496 Z"/>
<path fill="#000000" fill-rule="evenodd" stroke="#000000" stroke-width="4" stroke-linejoin="round" d="M 87.761 674.288 C 87.761 674.285 87.761 159.463 87.761 159.415 C 98.163 164.615 108.564 169.816 118.966 175.017 C 118.966 175.065 118.966 689.887 118.966 689.890 C 108.564 684.690 98.163 679.489 87.761 674.288 Z"/>
<path fill="#000000" fill-rule="evenodd" stroke="none" d="M 160.298 404.887 C 173.252 404.887 183.701 415.337 183.701 428.290 C 183.702 441.244 173.252 451.694 160.298 451.694 C 147.345 451.694 136.895 441.244 136.895 428.290 C 136.895 415.337 147.345 404.887 160.298 404.887 Z"/>
<path fill="#ffffff" fill-rule="evenodd" stroke="#000000" stroke-width="4" stroke-linejoin="round" d="M 160.298 393.006 C 173.252 393.006 183.701 403.455 183.701 416.409 C 183.702 429.362 173.252 439.812 160.298 439.812 C 147.345 439.812 136.895 429.362 136.895 416.409 C 136.895 403.455 147.345 393.005 160.298 393.006 Z"/>
</g>
<g id="specs_2">
<path fill="#ff00ff" fill-rule="evenodd" stroke="none" d="M 139.759 667.325 C 139.805 667.325 602.149 667.325 602.196 667.325 C 602.196 667.276 602.196 176.293 602.196 176.244 C 602.149 176.244 139.805 176.244 139.759 176.244 C 139.759 176.293 139.759 667.276 139.759 667.325 Z"/>
<path fill="#ff0000" fill-rule="evenodd" stroke="none" d="M 360.000 665.195 C 360.001 665.198 372.432 700.004 372.433 700.007 C 372.432 700.006 360.001 688.440 360.000 688.439 C 359.999 688.440 347.568 700.006 347.567 700.007 C 347.568 700.004 359.999 665.198 360.000 665.195 Z"/>
<path fill="#0000ff" fill-rule="evenodd" stroke="none" d="M 360.000 17.772 C 360.001 17.774 367.221 37.992 367.222 37.994 C 367.221 37.993 360.001 31.275 360.000 31.274 C 359.999 31.275 352.779 37.993 352.778 37.994 C 352.779 37.992 359.999 17.774 360.000 17.772 Z"/>
<path fill="#00ff00" fill-rule="evenodd" stroke="none" d="M 18.920 361.005 C 18.922 361.004 39.104 353.681 39.106 353.680 C 39.105 353.681 32.423 360.936 32.423 360.936 C 32.423 360.937 39.178 368.124 39.179 368.125 C 39.177 368.124 18.922 361.005 18.920 361.005 Z"/>
<path fill="#ffff00" fill-rule="evenodd" stroke="none" d="M 118.365 603.501 C 118.366 603.499 127.326 583.990 127.327 583.988 C 127.327 583.989 127.799 593.841 127.799 593.842 C 127.800 593.842 137.660 594.081 137.661 594.081 C 137.659 594.082 118.367 603.500 118.365 603.501 Z"/>
<path fill="#ffff00" fill-rule="evenodd" stroke="none" d="M 602.961 603.262 C 602.960 603.260 593.610 583.935 593.609 583.933 C 593.609 583.934 593.334 593.793 593.334 593.794 C 593.333 593.794 583.480 594.231 583.479 594.231 C 583.481 594.232 602.959 603.261 602.961 603.262 Z"/>
<path fill="#00ff00" fill-rule="evenodd" stroke="none" d="M 702.126 361.005 C 702.124 361.004 681.942 353.681 681.940 353.680 C 681.941 353.681 688.623 360.936 688.623 360.936 C 688.623 360.937 681.868 368.124 681.867 368.125 C 681.869 368.124 702.124 361.005 702.126 361.005 Z"/>
<path fill="#00ffff" fill-rule="evenodd" stroke="none" d="M 601.361 117.716 C 601.361 117.718 594.193 137.955 594.193 137.957 C 594.193 137.956 592.835 128.187 592.835 128.186 C 592.834 128.186 582.993 128.836 582.992 128.836 C 582.994 128.835 601.359 117.717 601.361 117.716 Z"/>
<path fill="#00ffff" fill-rule="evenodd" stroke="none" d="M 118.750 118.386 C 118.751 118.388 127.252 138.103 127.253 138.105 C 127.253 138.104 127.956 128.266 127.956 128.265 C 127.957 128.265 137.819 128.257 137.820 128.257 C 137.818 128.256 118.752 118.387 118.750 118.386 Z"/>
<path fill="#be0027" fill-rule="evenodd" stroke="none" d="M 360.000 566.585 C 360.001 566.582 372.432 531.776 372.433 531.772 C 372.432 531.773 360.001 543.339 360.000 543.340 C 359.999 543.339 347.568 531.773 347.567 531.772 C 347.568 531.776 359.999 566.582 360.000 566.585 Z"/>
</g>
</g>
</svg>
