<?xml version="1.0" encoding="utf-8"?>
<!-- Generator: Moho 13.0.3 build 635 -->
<!DOCTYPE svg PUBLIC "-//W3C//DTD SVG 1.1//EN" "http://www.w3.org/Graphics/SVG/1.1/DTD/svg11.dtd">
<svg version="1.1" id="Frame_0" xmlns="http://www.w3.org/2000/svg" xmlns:xlink="http://www.w3.org/1999/xlink" width="720px" height="720px">
<g id="door">
<g id="door">
<path fill="#ffffff" fill-rule="evenodd" stroke="#000000" stroke-width="4" stroke-linejoin="round" d="M 92.178 365.282 C 105.132 365.282 115.581 375.732 115.582 388.685 C 115.582 401.639 105.132 412.089 92.178 412.089 C 79.225 412.089 68.775 401.639 68.775 388.685 C 68.775 375.732 79.225 365.282 92.178 365.282 Z"/>
<path fill="#ffffff" fill-rule="evenodd" stroke="none" d="M 118.966 689.890 C 118.963 689.888 98.163 679.489 87.761 674.288 C 87.761 502.664 87.761 159.466 87.761 159.415 C 87.785 159.401 329.118 20.067 329.142 20.053 C 329.146 20.054 349.945 30.454 360.346 35.655 C 360.346 207.280 360.346 550.478 360.346 550.529 C 360.322 550.543 118.990 689.876 118.966 689.890 Z"/>
<path fill="none" stroke="#000000" stroke-width="4" stroke-linejoin="round" d="M 144.246 419.915 C 144.246 406.961 154.696 396.511 167.649 396.511 C 180.603 396.511 191.052 406.961 191.052 419.915 C 191.053 432.868 180.603 443.318 167.649 443.318 C 154.696 443.318 144.246 432.868 144.246 419.915 M 87.761 674.288 C 87.761 674.285 87.761 159.463 87.761 159.415 C 87.782 159.403 329.142 20.053 329.142 20.053 C 339.544 25.254 360.343 35.653 360.346 35.655 C 360.346 35.706 360.346 550.478 360.346 550.529 C 360.322 550.543 118.990 689.876 118.966 689.890 C 108.564 684.689 98.163 679.489 87.761 674.288 M 87.761 159.415 C 98.163 164.615 108.564 169.816 118.966 175.017 C 118.987 175.004 360.340 35.659 360.346 35.655 M 118.966 689.890 C 118.966 689.886 118.966 175.064 118.966 175.017 M 392.678 52.233 C 392.714 156.673 392.714 530.624 392.714 530.672 C 392.735 530.684 532.715 611.501 602.891 652.257 C 602.891 492.220 602.891 173.645 602.891 173.597 C 602.870 173.585 447.505 83.887 392.678 52.233 C 373.757 41.308 361.516 34.240 361.509 34.237 C 361.509 34.288 361.509 549.059 361.509 549.111 C 371.911 542.964 382.312 536.818 392.714 530.672 M 602.891 688.472 C 602.891 688.469 602.891 663.899 602.891 652.257 M 361.509 549.111 C 361.533 549.125 602.866 688.458 602.891 688.472 "/>
<path fill="#ffffff" fill-rule="evenodd" stroke="#000000" stroke-width="4" stroke-linejoin="round" d="M 392.678 52.818 C 392.714 157.258 392.714 531.208 392.714 531.256 C 382.312 537.403 371.911 543.549 361.509 549.695 C 361.509 549.644 361.509 34.873 361.509 34.821 C 361.516 34.825 373.757 41.893 392.678 52.818 Z"/>
<path fill="#ffffff" fill-rule="evenodd" stroke="#000000" stroke-width="4" stroke-linejoin="round" d="M 362.247 548.617 C 372.648 542.470 383.050 536.324 393.451 530.177 C 393.472 530.190 533.452 611.007 603.628 651.762 C 603.628 663.405 603.628 687.974 603.628 687.978 C 603.604 687.964 362.271 548.630 362.247 548.617 Z"/>
<path fill="#000000" fill-rule="evenodd" stroke="#000000" stroke-width="4" stroke-linejoin="round" d="M 87.761 674.288 C 87.761 674.285 87.761 159.463 87.761 159.415 C 98.163 164.615 108.564 169.816 118.966 175.017 C 118.966 175.064 118.966 689.886 118.966 689.890 C 108.564 684.689 98.163 679.489 87.761 674.288 Z"/>
</g>
<g id="specs_2">
<path fill="#ff00ff" fill-rule="evenodd" stroke="none" d="M 139.759 667.325 C 139.805 667.325 602.149 667.325 602.196 667.325 C 602.196 667.276 602.196 176.293 602.196 176.244 C 602.149 176.244 139.805 176.244 139.759 176.244 C 139.759 176.293 139.759 667.276 139.759 667.325 Z"/>
<path fill="#ff0000" fill-rule="evenodd" stroke="none" d="M 360.000 665.195 C 360.001 665.198 372.432 700.004 372.433 700.007 C 372.432 700.006 360.001 688.440 360.000 688.439 C 359.999 688.440 347.568 700.006 347.567 700.007 C 347.568 700.004 359.999 665.198 360.000 665.195 Z"/>
<path fill="#0000ff" fill-rule="evenodd" stroke="none" d="M 360.000 17.772 C 360.001 17.774 367.221 37.992 367.222 37.994 C 367.221 37.993 360.001 31.275 360.000 31.274 C 359.999 31.275 352.779 37.993 352.778 37.994 C 352.779 37.992 359.999 17.774 360.000 17.772 Z"/>
<path fill="#00ff00" fill-rule="evenodd" stroke="none" d="M 18.920 361.005 C 18.922 361.004 39.104 353.681 39.106 353.680 C 39.105 353.681 32.423 360.936 32.423 360.936 C 32.423 360.937 39.178 368.124 39.179 368.125 C 39.177 368.124 18.922 361.005 18.920 361.005 Z"/>
<path fill="#ffff00" fill-rule="evenodd" stroke="none" d="M 118.365 603.501 C 118.366 603.499 127.326 583.990 127.327 583.988 C 127.327 583.989 127.799 593.841 127.799 593.842 C 127.800 593.842 137.660 594.081 137.661 594.081 C 137.659 594.082 118.367 603.500 118.365 603.501 Z"/>
<path fill="#ffff00" fill-rule="evenodd" stroke="none" d="M 602.961 603.262 C 602.960 603.260 593.610 583.935 593.609 583.933 C 593.609 583.934 593.334 593.793 593.334 593.794 C 593.333 593.794 583.480 594.231 583.479 594.231 C 583.481 594.232 602.959 603.261 602.961 603.262 Z"/>
<path fill="#00ff00" fill-rule="evenodd" stroke="none" d="M 702.126 361.005 C 702.124 361.004 681.942 353.681 681.940 353.680 C 681.941 353.681 688.623 360.936 688.623 360.936 C 688.623 360.937 681.868 368.124 681.867 368.125 C 681.869 368.124 702.124 361.005 702.126 361.005 Z"/>
<path fill="#00ffff" fill-rule="evenodd" stroke="none" d="M 601.361 117.716 C 601.361 117.718 594.193 137.955 594.193 137.957 C 594.193 137.956 592.835 128.187 592.835 128.186 C 592.834 128.186 582.993 128.836 582.992 128.836 C 582.994 128.835 601.359 117.717 601.361 117.716 Z"/>
<path fill="#00ffff" fill-rule="evenodd" stroke="none" d="M 118.750 118.386 C 118.751 118.388 127.252 138.103 127.253 138.105 C 127.253 138.104 127.956 128.266 127.956 128.265 C 127.957 128.265 137.819 128.257 137.820 128.257 C 137.818 128.256 118.752 118.387 118.750 118.386 Z"/>
<path fill="#be0027" fill-rule="evenodd" stroke="none" d="M 360.000 566.585 C 360.001 566.582 372.432 531.776 372.433 531.772 C 372.432 531.773 360.001 543.339 360.000 543.340 C 359.999 543.339 347.568 531.773 347.567 531.772 C 347.568 531.776 359.999 566.582 360.000 566.585 Z"/>
</g>
</g>
</svg>
