<?xml version="1.0" encoding="utf-8"?>
<!-- Generator: Moho 12.5 build 22414 -->
<!DOCTYPE svg PUBLIC "-//W3C//DTD SVG 1.1//EN" "http://www.w3.org/Graphics/SVG/1.1/DTD/svg11.dtd">
<svg version="1.1" id="Frame_0" xmlns="http://www.w3.org/2000/svg" xmlns:xlink="http://www.w3.org/1999/xlink" width="720px" height="720px">
<g id="door">
<g id="door">
<path fill="#000000" fill-rule="evenodd" stroke="none" d="M 297.325 536.213 C 297.325 536.162 297.913 197.716 298.207 28.468 C 298.237 28.486 598.494 201.838 598.524 201.855 C 598.524 201.906 598.621 709.497 598.621 709.547 C 598.591 709.530 297.355 536.230 297.325 536.213 M 360.917 519.908 C 360.825 510.205 360.733 500.503 360.640 490.800 C 425.206 527.944 489.771 565.089 554.337 602.233 C 554.318 602.222 360.659 490.811 360.640 490.800 C 360.640 490.761 361.207 107.819 361.207 107.780 C 425.563 144.936 554.255 219.236 554.275 219.247 C 554.275 219.286 554.337 602.195 554.337 602.233 C 554.337 611.830 554.337 631.021 554.337 631.024 C 554.318 631.013 425.391 556.947 360.917 519.908 M 335.319 96.435 C 335.321 96.437 351.957 104.755 360.277 108.915 C 360.277 108.956 360.277 520.693 360.277 520.735 C 360.277 520.693 360.277 246.188 360.277 108.915 C 351.957 104.755 335.321 96.437 335.319 96.435 Z"/>
<path fill="none" stroke="#000000" stroke-width="3" stroke-linejoin="round" d="M 297.325 536.213 C 297.325 536.162 297.913 197.716 298.207 28.468 C 298.237 28.486 598.494 201.838 598.524 201.855 C 598.524 201.906 598.621 709.497 598.621 709.547 C 598.591 709.530 297.355 536.230 297.325 536.213 M 360.917 519.908 C 360.825 510.205 360.733 500.503 360.640 490.800 C 425.206 527.944 489.771 565.089 554.337 602.233 C 554.337 611.830 554.337 621.427 554.337 631.024 C 554.337 631.021 554.337 611.830 554.337 602.233 C 554.318 602.222 360.659 490.811 360.640 490.800 C 360.640 490.761 361.207 107.819 361.207 107.780 C 361.226 107.791 489.919 182.092 554.275 219.247 C 554.255 219.236 425.563 144.936 361.207 107.780 M 554.337 602.233 C 554.337 602.195 554.275 219.286 554.275 219.247 M 360.917 519.908 C 425.391 556.947 554.318 631.013 554.337 631.024 M 361.207 108.248 C 361.207 245.521 361.207 382.794 361.207 520.067 M 335.319 96.435 C 335.321 96.437 351.957 104.755 360.277 108.915 C 360.277 108.956 360.277 520.693 360.277 520.735 C 360.277 520.693 360.277 246.188 360.277 108.915 C 351.957 104.755 335.321 96.437 335.319 96.435 "/>
<path fill="none" stroke="#ffffff" stroke-width="1" stroke-linecap="butt" stroke-linejoin="round" d="M 335.319 96.435 C 335.321 96.437 351.957 104.755 360.277 108.915 "/>
<path fill="none" stroke="#ffffff" stroke-width="1" stroke-linecap="butt" stroke-linejoin="round" d="M 360.277 108.915 C 360.277 246.188 360.277 520.693 360.277 520.735 "/>
<path fill="#ffffff" fill-rule="evenodd" stroke="none" d="M 167.210 632.202 C 167.207 632.200 150.571 623.882 142.251 619.723 C 142.251 482.450 142.251 207.944 142.251 207.903 C 142.270 207.892 335.299 96.447 335.319 96.435 C 335.321 96.437 351.957 104.755 360.277 108.915 C 360.277 246.188 360.277 520.693 360.277 520.735 C 360.257 520.746 167.229 632.191 167.210 632.202 Z"/>
<path fill="none" stroke="#000000" stroke-width="3" stroke-linejoin="round" d="M 142.251 619.723 C 142.251 619.720 142.251 207.942 142.251 207.903 C 142.268 207.894 335.299 96.447 335.319 96.435 C 335.321 96.437 351.957 104.755 360.277 108.915 C 360.277 108.956 360.277 520.693 360.277 520.735 C 360.257 520.746 167.229 632.191 167.210 632.202 C 158.890 628.042 150.571 623.882 142.251 619.723 M 142.251 207.903 C 150.571 212.063 158.890 216.223 167.210 220.382 C 167.227 220.373 360.257 108.926 360.277 108.915 M 167.210 632.202 C 167.210 632.199 167.210 220.421 167.210 220.382 "/>
<path fill="none" stroke="#ffffff" stroke-width="1" stroke-linecap="butt" stroke-linejoin="round" d="M 360.917 519.908 C 360.825 510.205 360.733 500.503 360.640 490.800 "/>
<path fill="none" stroke="#ffffff" stroke-width="1" stroke-linecap="butt" stroke-linejoin="round" d="M 360.640 490.800 C 425.206 527.944 489.771 565.089 554.337 602.233 "/>
<path fill="none" stroke="#ffffff" stroke-width="1" stroke-linecap="butt" stroke-linejoin="round" d="M 554.337 602.233 C 554.337 611.830 554.337 631.021 554.337 631.024 "/>
<path fill="none" stroke="#ffffff" stroke-width="1" stroke-linecap="butt" stroke-linejoin="round" d="M 554.337 631.024 C 554.318 631.013 425.391 556.947 360.917 519.908 "/>
<path fill="#ffffff" fill-rule="evenodd" stroke="#000000" stroke-width="3" stroke-linejoin="round" d="M 360.917 519.908 C 360.825 510.205 360.733 500.503 360.640 490.800 C 425.206 527.944 489.771 565.089 554.337 602.233 C 554.337 611.830 554.337 631.021 554.337 631.024 C 554.318 631.013 425.391 556.947 360.917 519.908 Z"/>
<path fill="#000000" fill-rule="evenodd" stroke="#000000" stroke-width="3" stroke-linejoin="round" d="M 142.251 619.723 C 142.251 619.720 142.251 207.942 142.251 207.903 C 150.571 212.063 158.890 216.223 167.210 220.382 C 167.210 220.421 167.210 632.199 167.210 632.202 C 158.890 628.042 150.571 623.882 142.251 619.723 Z"/>
<path fill="#000000" fill-rule="evenodd" stroke="none" d="M 193.079 404.243 C 201.677 404.132 203.504 414.419 204.607 422.948 C 206.350 436.433 206.675 455.545 193.079 455.721 C 184.480 455.833 182.653 445.545 181.550 437.017 C 179.807 423.532 179.482 404.419 193.079 404.243 Z"/>
<path fill="#ffffff" fill-rule="evenodd" stroke="#000000" stroke-width="3" stroke-linejoin="round" d="M 200.269 394.740 C 210.630 394.740 218.988 403.098 218.988 413.459 C 218.988 423.820 210.630 432.178 200.269 432.178 C 189.909 432.178 181.550 423.820 181.550 413.459 C 181.550 403.098 189.909 394.740 200.269 394.740 Z"/>
<path fill="none" stroke="#000000" stroke-width="3" stroke-linejoin="round" d="M 554.337 631.024 C 554.337 621.427 554.337 611.830 554.337 602.233 "/>
<path fill="none" stroke="#ffffff" stroke-width="1" stroke-linecap="butt" stroke-linejoin="round" d="M 598.524 201.855 C 598.494 201.838 298.237 28.486 298.207 28.468 "/>
<path fill="#ffffff" fill-rule="evenodd" stroke="#000000" stroke-width="3" stroke-linejoin="round" d="M 321.513 15.521 C 421.618 73.317 621.799 188.891 621.829 188.908 C 614.061 193.224 606.292 197.540 598.524 201.855 C 598.494 201.838 298.237 28.486 298.207 28.468 C 298.210 28.467 313.744 19.837 321.513 15.521 Z"/>
<path fill="none" stroke="#ffffff" stroke-width="1" stroke-linecap="butt" stroke-linejoin="round" d="M 598.524 201.855 C 606.292 197.540 614.061 193.224 621.829 188.908 "/>
<path fill="none" stroke="#ffffff" stroke-width="1" stroke-linecap="butt" stroke-linejoin="round" d="M 598.621 709.547 C 598.621 709.497 598.524 201.906 598.524 201.855 "/>
<path fill="#ffffff" fill-rule="evenodd" stroke="#000000" stroke-width="3" stroke-linejoin="round" d="M 598.524 201.855 C 606.292 197.540 614.061 193.224 621.829 188.908 C 621.829 188.959 621.926 696.549 621.926 696.600 C 621.924 696.601 606.389 705.232 598.621 709.547 C 598.621 709.497 598.524 201.906 598.524 201.855 Z"/>
</g>
<g id="specs_2">
<path fill="#ff00ff" fill-rule="evenodd" stroke="none" d="M 232.660 614.153 C 232.692 614.153 553.687 614.153 553.719 614.153 C 553.719 614.114 553.719 221.403 553.719 221.364 C 553.687 221.364 232.692 221.364 232.660 221.364 C 232.660 221.403 232.660 614.114 232.660 614.153 Z"/>
<path fill="#ff0000" fill-rule="evenodd" stroke="none" d="M 360.000 681.952 C 360.001 681.955 369.943 709.794 369.944 709.797 C 369.943 709.796 360.001 700.545 360.000 700.544 C 359.999 700.545 350.057 709.796 350.056 709.797 C 350.057 709.794 359.999 681.955 360.000 681.952 Z"/>
<path fill="#0000ff" fill-rule="evenodd" stroke="none" d="M 360.000 94.611 C 360.001 94.612 365.776 110.784 365.776 110.785 C 365.776 110.785 360.001 105.411 360.000 105.411 C 359.999 105.411 354.224 110.785 354.224 110.785 C 354.224 110.784 359.999 94.612 360.000 94.611 Z"/>
<path fill="#00ff00" fill-rule="evenodd" stroke="none" d="M 87.189 369.144 C 87.191 369.143 103.333 363.286 103.334 363.286 C 103.334 363.286 97.989 369.089 97.989 369.089 C 97.989 369.090 103.392 374.838 103.392 374.839 C 103.391 374.838 87.191 369.145 87.189 369.144 Z"/>
<path fill="#ffff00" fill-rule="evenodd" stroke="none" d="M 166.729 563.104 C 166.730 563.102 173.897 547.498 173.898 547.496 C 173.898 547.497 174.275 555.377 174.275 555.378 C 174.276 555.378 182.162 555.569 182.163 555.569 C 182.161 555.570 166.731 563.103 166.729 563.104 Z"/>
<path fill="#ffff00" fill-rule="evenodd" stroke="none" d="M 554.331 562.913 C 554.330 562.911 546.852 547.453 546.851 547.452 C 546.851 547.453 546.632 555.338 546.632 555.339 C 546.631 555.339 538.750 555.689 538.749 555.689 C 538.751 555.689 554.329 562.912 554.331 562.913 Z"/>
<path fill="#00ff00" fill-rule="evenodd" stroke="none" d="M 633.648 369.144 C 633.646 369.143 617.504 363.286 617.502 363.286 C 617.503 363.286 622.847 369.089 622.848 369.089 C 622.847 369.090 617.445 374.838 617.444 374.839 C 617.446 374.838 633.646 369.145 633.648 369.144 Z"/>
<path fill="#00ffff" fill-rule="evenodd" stroke="none" d="M 553.052 174.550 C 553.051 174.552 547.319 190.739 547.318 190.740 C 547.318 190.740 546.232 182.926 546.232 182.925 C 546.231 182.925 538.360 183.445 538.359 183.445 C 538.361 183.444 553.050 174.551 553.052 174.550 Z"/>
<path fill="#00ffff" fill-rule="evenodd" stroke="none" d="M 167.038 175.087 C 167.038 175.088 173.837 190.857 173.838 190.858 C 173.838 190.858 174.400 182.989 174.400 182.988 C 174.401 182.988 182.290 182.982 182.290 182.982 C 182.289 182.981 167.039 175.088 167.038 175.087 Z"/>
<path fill="#be0027" fill-rule="evenodd" stroke="none" d="M 360.000 533.576 C 360.001 533.574 369.943 505.734 369.944 505.732 C 369.943 505.732 360.001 514.983 360.000 514.984 C 359.999 514.983 350.057 505.732 350.056 505.732 C 350.057 505.734 359.999 533.574 360.000 533.576 Z"/>
</g>
</g>
</svg>
