<?xml version="1.0" encoding="utf-8"?>
<!-- Generator: Moho 12.5 build 22414 -->
<!DOCTYPE svg PUBLIC "-//W3C//DTD SVG 1.1//EN" "http://www.w3.org/Graphics/SVG/1.1/DTD/svg11.dtd">
<svg version="1.1" id="Frame_0" xmlns="http://www.w3.org/2000/svg" xmlns:xlink="http://www.w3.org/1999/xlink" width="720px" height="720px">
<g id="halves">
<g id="dragon_hind">
<g id="dragon_hind">
<path fill="#ffffff" fill-rule="evenodd" stroke="none" d="M 294.470 351.021 C 294.482 351.015 354.769 307.186 413.603 293.061 C 503.790 271.407 554.321 318.929 579.224 350.196 C 588.961 362.421 598.601 385.781 604.544 411.806 C 582.000 397.640 555.900 372.866 504.422 370.920 C 497.396 371.766 489.455 371.518 480.864 373.422 C 444.150 381.557 411.342 428.336 411.335 428.343 C 404.037 436.932 370.394 461.819 341.778 473.243 C 330.337 477.810 309.459 480.379 309.456 480.379 C 304.461 437.260 299.465 394.140 294.470 351.021 Z"/>
<path fill="none" stroke="#000000" stroke-width="1" stroke-linejoin="round" d="M 294.470 351.021 C 294.482 351.015 354.769 307.186 413.603 293.061 C 503.790 271.407 554.321 318.929 579.224 350.196 C 588.961 362.421 598.601 385.781 604.544 411.806 C 582.000 397.640 555.900 372.866 504.422 370.920 C 484.995 348.976 441.454 361.565 417.218 375.510 C 399.389 385.769 357.746 432.729 305.391 439.938 M 480.864 373.422 C 489.455 371.518 497.396 371.766 504.422 370.920 M 411.335 428.343 C 411.342 428.336 444.150 381.557 480.864 373.422 M 294.470 351.021 C 299.465 394.140 304.461 437.260 309.456 480.379 C 309.459 480.379 330.337 477.810 341.778 473.243 C 370.394 461.819 404.037 436.932 411.335 428.343 "/>
<path fill="none" stroke="#ffffff" stroke-width="1" stroke-linecap="butt" stroke-linejoin="round" d="M 411.335 428.343 C 411.342 428.336 444.150 381.557 480.864 373.422 "/>
<path fill="none" stroke="#ffffff" stroke-width="1" stroke-linecap="butt" stroke-linejoin="round" d="M 480.864 373.422 C 489.455 371.518 497.396 371.766 504.422 370.920 "/>
<path fill="none" stroke="#ffffff" stroke-width="1" stroke-linecap="butt" stroke-linejoin="round" d="M 504.422 370.920 C 555.900 372.866 582.000 397.640 604.544 411.806 "/>
<path fill="#ffffff" fill-rule="evenodd" stroke="none" d="M 513.252 485.448 C 524.710 484.408 532.314 468.384 535.945 462.776 C 535.946 462.773 507.352 448.744 494.669 461.436 C 485.310 470.802 491.566 487.418 513.252 485.448 M 645.039 469.531 C 636.267 472.473 624.000 475.085 609.557 475.703 C 608.068 489.945 604.452 502.531 598.028 512.202 C 574.538 547.565 524.186 580.190 462.783 554.873 C 429.874 541.304 400.004 495.897 400.584 472.424 C 400.955 457.453 411.335 428.349 411.335 428.343 C 411.342 428.336 444.150 381.557 480.864 373.422 C 489.455 371.518 497.396 371.766 504.422 370.920 C 555.900 372.866 582.000 397.640 604.544 411.806 C 615.704 418.819 626.188 422.962 638.530 418.904 C 657.424 412.692 694.931 394.571 691.326 361.768 C 685.208 306.096 630.580 290.898 630.574 290.891 C 630.582 290.899 702.343 284.519 715.193 369.001 C 719.488 397.240 704.881 449.462 645.039 469.531 Z"/>
<path fill="none" stroke="#000000" stroke-width="1" stroke-linejoin="round" d="M 411.335 428.343 C 411.342 428.336 444.150 381.557 480.864 373.422 C 489.455 371.518 497.396 371.766 504.422 370.920 C 555.900 372.866 582.000 397.640 604.544 411.806 "/>
<path fill="none" stroke="#000000" stroke-width="1" stroke-linejoin="round" d="M 565.483 471.700 C 565.479 471.705 556.279 506.342 530.044 517.988 C 507.767 527.877 479.092 522.116 464.229 502.800 C 450.221 484.594 452.446 457.934 465.676 439.155 C 477.956 421.723 502.218 413.639 520.642 417.457 C 557.373 425.070 580.073 456.528 617.556 455.066 C 647.080 453.915 675.074 445.257 692.049 421.074 C 709.346 396.432 712.466 364.648 698.645 337.901 C 679.114 300.103 636.343 291.925 636.336 291.921 M 609.557 475.703 C 608.069 489.945 604.452 502.531 598.028 512.202 C 574.538 547.565 524.186 580.190 462.783 554.873 C 429.874 541.304 400.004 495.897 400.584 472.424 C 400.955 457.453 411.335 428.349 411.335 428.343 C 411.342 428.336 444.150 381.557 480.864 373.422 C 489.455 371.518 497.396 371.766 504.422 370.920 C 555.900 372.866 582.000 397.640 604.544 411.806 C 615.704 418.819 626.188 422.962 638.530 418.904 C 657.424 412.692 694.931 394.571 691.326 361.768 C 685.208 306.096 630.580 290.898 630.574 290.891 C 630.582 290.899 702.343 284.519 715.193 369.001 C 719.488 397.240 705.399 449.861 645.039 469.531 C 636.242 472.397 624.000 475.085 609.557 475.703 C 588.611 476.599 535.944 462.780 535.945 462.776 C 535.946 462.773 507.352 448.744 494.669 461.436 C 485.310 470.802 491.743 486.876 513.252 485.448 C 524.732 484.686 532.314 468.384 535.945 462.776 "/>
<path fill="none" stroke="#ffffff" stroke-width="1" stroke-linecap="butt" stroke-linejoin="round" d="M 294.470 351.021 C 299.465 394.140 304.461 437.260 309.456 480.379 "/>
<path fill="#ffffff" fill-rule="evenodd" stroke="#000000" stroke-width="1" stroke-linejoin="round" d="M 294.470 351.021 C 299.465 394.140 304.461 437.260 309.456 480.379 C 309.454 480.366 294.471 351.034 294.470 351.021 Z"/>
</g>
<g id="specs_2">
<path fill="#ff0000" fill-rule="evenodd" stroke="none" d="M 314.881 413.222 C 314.879 413.223 300.064 421.985 300.062 421.986 C 300.062 421.985 304.252 415.278 304.252 415.278 C 304.251 415.277 297.863 410.616 297.863 410.616 C 297.865 410.616 314.879 413.221 314.881 413.222 Z"/>
<path fill="#0000ff" fill-rule="evenodd" stroke="none" d="M 287.419 416.732 C 287.421 416.731 307.853 406.263 307.855 406.262 C 307.854 406.263 301.735 414.853 301.735 414.854 C 301.736 414.854 309.863 421.576 309.863 421.576 C 309.861 421.576 287.421 416.732 287.419 416.732 Z"/>
<path fill="#00ff00" fill-rule="evenodd" stroke="none" d="M 287.710 354.393 C 287.711 354.393 297.110 350.982 297.111 350.982 C 297.110 350.982 293.998 354.361 293.998 354.362 C 293.998 354.362 297.144 357.709 297.144 357.709 C 297.144 357.709 287.711 354.394 287.710 354.393 Z"/>
<path fill="#ffff00" fill-rule="evenodd" stroke="none" d="M 412.287 513.812 C 412.288 513.811 415.803 506.158 415.803 506.157 C 415.803 506.157 415.988 510.022 415.988 510.022 C 415.989 510.022 419.857 510.116 419.857 510.116 C 419.856 510.117 412.288 513.812 412.287 513.812 Z"/>
<path fill="#ffff00" fill-rule="evenodd" stroke="none" d="M 602.399 513.718 C 602.399 513.717 598.731 506.136 598.730 506.135 C 598.730 506.135 598.623 510.003 598.623 510.004 C 598.622 510.004 594.757 510.175 594.756 510.175 C 594.757 510.175 602.398 513.718 602.399 513.718 Z"/>
<path fill="#00ff00" fill-rule="evenodd" stroke="none" d="M 605.898 354.393 C 605.897 354.393 596.498 350.982 596.497 350.982 C 596.497 350.982 599.609 354.361 599.610 354.362 C 599.609 354.362 596.464 357.709 596.463 357.709 C 596.464 357.709 605.897 354.394 605.898 354.393 Z"/>
<path fill="#00ffff" fill-rule="evenodd" stroke="none" d="M 589.833 154.271 C 589.833 154.272 587.487 163.992 587.487 163.993 C 587.487 163.993 586.388 159.532 586.388 159.532 C 586.387 159.532 581.860 160.307 581.859 160.307 C 581.860 160.306 589.832 154.272 589.833 154.271 Z"/>
<path fill="#00ffff" fill-rule="evenodd" stroke="none" d="M 366.304 177.820 C 366.305 177.821 371.191 186.544 371.192 186.544 C 371.192 186.544 371.044 181.953 371.044 181.952 C 371.044 181.952 375.613 181.474 375.613 181.474 C 375.612 181.474 366.305 177.820 366.304 177.820 Z"/>
<path fill="#be0027" fill-rule="evenodd" stroke="none" d="M 633.854 290.614 C 633.855 290.615 646.970 301.763 646.971 301.764 C 646.971 301.764 643.980 294.444 643.980 294.443 C 643.980 294.442 651.066 290.932 651.067 290.932 C 651.065 290.932 633.855 290.614 633.854 290.614 Z"/>
<path fill="none" stroke="#ffff00" stroke-width="2" stroke-linejoin="round" d="M 294.470 351.021 C 299.465 394.140 304.461 437.260 309.456 480.379 "/>
</g>
</g>
</g>
<g id="combos">
</g>
</svg>
