<?xml version="1.0" encoding="utf-8"?>
<!-- Generator: Moho 12.5 build 22414 -->
<!DOCTYPE svg PUBLIC "-//W3C//DTD SVG 1.1//EN" "http://www.w3.org/Graphics/SVG/1.1/DTD/svg11.dtd">
<svg version="1.1" id="Frame_0" xmlns="http://www.w3.org/2000/svg" xmlns:xlink="http://www.w3.org/1999/xlink" width="720px" height="720px">
<g id="halves">
<g id="dragon_fore">
<g id="dragon_fore">
<path fill="#ffffff" fill-rule="evenodd" stroke="#000000" stroke-width="1" stroke-linejoin="round" d="M 418.118 59.448 C 418.121 59.449 446.594 62.639 446.597 62.640 C 446.598 62.636 460.659 29.398 460.660 29.394 C 460.656 29.397 418.122 59.445 418.118 59.448 M 525.280 394.642 C 525.284 394.641 570.486 384.475 570.491 384.474 C 570.491 384.469 572.871 329.251 572.871 329.245 C 572.866 329.252 525.285 394.635 525.280 394.642 M 468.128 341.446 C 468.130 341.450 485.349 377.106 485.351 377.109 C 485.356 377.105 533.456 331.361 533.461 331.357 C 533.454 331.358 468.134 341.445 468.128 341.446 M 535.794 261.976 C 535.792 261.979 509.672 296.043 509.669 296.046 C 509.675 296.046 569.437 291.864 569.443 291.864 C 569.440 291.861 535.798 261.979 535.794 261.976 M 551.025 194.041 C 551.024 194.044 545.199 231.469 545.198 231.473 C 545.204 231.471 600.686 207.226 600.692 207.224 C 600.687 207.223 551.030 194.042 551.025 194.041 M 533.293 128.940 C 533.294 128.943 549.680 162.330 549.682 162.333 C 549.686 162.329 586.318 121.829 586.322 121.825 C 586.317 121.826 533.298 128.939 533.293 128.940 M 478.874 90.197 C 478.877 90.198 507.220 104.253 507.223 104.255 C 507.226 104.251 532.512 67.919 532.515 67.915 C 532.509 67.918 478.879 90.194 478.874 90.197 Z"/>
<path fill="#ffffff" fill-rule="evenodd" stroke="#000000" stroke-width="1" stroke-linejoin="round" d="M 422.034 140.677 C 404.254 129.135 331.023 103.645 345.192 146.480 C 354.043 173.238 262.871 138.118 278.148 169.856 C 289.799 194.061 202.308 164.631 206.205 184.445 C 213.374 220.897 134.270 199.032 134.263 199.034 C 134.271 199.033 219.555 235.395 215.666 194.313 C 213.762 174.209 299.106 208.551 288.337 183.941 C 273.013 148.922 370.614 186.881 361.408 159.493 C 347.909 119.333 420.085 165.756 433.679 163.198 C 441.347 161.755 427.883 144.475 422.034 140.677 Z"/>
<path fill="none" stroke="#000000" stroke-width="1" stroke-linejoin="round" d="M 487.908 502.273 C 487.912 502.274 504.651 510.640 534.103 513.599 C 569.021 517.107 585.831 515.870 585.837 515.870 "/>
<path fill="#ffffff" fill-rule="evenodd" stroke="none" d="M 243.162 132.704 C 243.163 132.702 247.569 115.009 254.198 113.244 C 263.746 110.702 271.058 118.842 265.984 120.272 C 249.520 124.913 243.164 132.702 243.162 132.704 M 379.204 97.377 C 355.641 96.760 335.962 90.022 335.958 90.022 C 335.961 90.019 365.589 70.401 372.943 68.021 C 387.735 63.235 422.568 71.306 422.573 71.307 C 422.568 71.309 389.353 97.643 379.204 97.377 M 587.146 371.725 C 587.146 441.398 587.146 511.071 587.146 580.745 C 537.859 582.130 465.667 555.338 460.513 550.079 C 451.972 541.366 490.628 496.978 490.631 496.973 C 490.628 496.978 450.027 543.155 459.585 553.506 C 484.980 581.010 502.954 635.797 501.862 638.259 C 499.784 642.949 349.957 637.694 331.514 656.823 C 313.964 675.026 289.773 649.849 272.747 666.711 C 261.641 677.710 263.801 704.536 263.800 704.540 C 263.799 704.535 245.673 670.988 254.033 655.201 C 261.267 641.541 293.691 637.290 293.695 637.288 C 293.690 637.287 260.894 618.890 247.090 622.651 C 232.147 626.723 212.060 662.259 212.057 662.263 C 212.060 662.257 223.386 611.840 244.656 602.375 C 259.651 595.702 291.907 611.200 291.911 611.201 C 291.911 611.197 295.742 587.641 289.486 580.334 C 279.316 568.454 239.781 572.411 239.776 572.410 C 239.782 572.409 270.115 549.726 299.836 561.491 C 311.852 566.247 318.856 608.087 323.679 611.231 C 333.008 617.311 426.132 614.849 430.222 605.520 C 433.431 598.200 388.312 559.731 382.635 536.645 C 377.719 516.652 390.709 464.602 390.710 464.594 C 390.709 464.601 379.050 495.640 379.800 530.444 C 365.873 521.348 367.262 523.662 362.861 518.958 C 333.022 487.065 311.438 435.067 311.437 435.066 C 311.438 435.067 329.091 482.088 353.391 508.586 C 357.627 513.205 233.137 530.634 194.715 565.007 C 190.379 568.887 195.977 459.256 195.978 459.245 C 195.974 459.244 168.171 446.997 158.018 451.461 C 154.745 452.901 136.942 482.044 136.940 482.047 C 136.941 482.044 137.465 450.756 140.977 446.022 C 159.240 421.407 188.638 430.184 188.643 430.182 C 188.641 430.180 168.316 411.065 161.545 409.496 C 152.951 407.504 119.313 418.882 119.308 418.883 C 119.312 418.880 144.472 392.762 158.850 391.542 C 176.982 390.004 198.608 404.234 198.612 404.235 C 198.612 404.233 209.149 394.998 194.374 379.050 C 189.972 374.298 151.901 369.584 151.897 369.583 C 151.902 369.583 176.886 356.890 202.008 363.432 C 221.768 368.577 229.202 397.488 231.542 404.396 C 241.735 434.491 217.431 425.127 222.416 496.332 C 222.563 498.434 291.773 475.868 291.780 475.866 C 291.781 475.862 291.822 438.996 307.839 432.964 C 312.335 431.271 287.583 396.614 306.497 344.547 C 339.379 254.030 437.548 260.838 458.864 223.948 C 479.912 187.522 450.577 178.475 451.319 177.760 C 454.967 174.250 463.927 161.403 464.214 159.634 C 466.693 144.358 447.343 116.759 447.342 116.754 C 447.343 116.759 465.742 146.087 463.692 159.065 C 462.683 165.455 440.430 188.934 440.429 188.935 C 440.416 188.939 309.723 208.507 301.698 229.869 C 300.071 234.201 312.107 256.230 310.324 257.900 C 307.933 260.140 279.040 242.088 275.992 238.756 C 272.336 234.760 257.310 195.481 257.308 195.477 C 257.310 195.478 282.992 207.768 282.995 207.770 C 283.007 207.763 414.870 152.840 408.451 138.283 C 400.506 120.264 243.418 151.557 243.402 151.558 C 243.401 151.560 232.664 173.886 232.663 173.888 C 232.663 173.882 221.667 129.545 232.201 115.001 C 249.640 90.927 282.651 99.927 372.886 56.635 C 394.118 46.449 439.035 63.841 464.703 56.335 C 486.351 50.004 530.465 15.464 530.472 15.460 C 530.468 15.465 503.769 53.244 492.333 61.784 C 485.338 67.008 458.876 76.860 458.872 76.862 C 458.879 76.865 499.329 89.160 526.138 112.074 C 551.995 134.173 573.937 189.650 544.709 255.926 C 525.813 298.772 472.243 329.839 482.756 357.240 C 505.674 416.970 587.136 371.723 587.146 371.725 Z"/>
<path fill="none" stroke="#000000" stroke-width="1" stroke-linejoin="round" d="M 534.103 513.599 C 569.021 517.107 585.831 515.870 585.837 515.870 M 487.908 502.273 C 487.912 502.274 504.651 510.640 534.103 513.599 M 460.914 140.739 C 460.918 140.748 511.328 160.991 494.703 224.863 C 482.690 271.014 368.320 291.351 355.293 350.122 C 338.375 426.452 384.653 458.599 389.317 464.413 M 243.162 132.704 C 243.163 132.702 247.569 115.009 254.198 113.244 C 263.746 110.702 271.058 118.842 265.984 120.272 C 249.520 124.913 243.164 132.702 243.162 132.704 M 379.204 97.377 C 355.641 96.760 335.962 90.022 335.958 90.022 C 335.961 90.019 365.589 70.401 372.943 68.021 C 387.735 63.235 422.568 71.306 422.573 71.307 C 422.568 71.309 389.353 97.643 379.204 97.377 M 587.146 371.725 C 587.146 441.398 587.146 511.071 587.146 580.745 C 537.859 582.130 465.667 555.338 460.513 550.079 C 451.972 541.366 490.628 496.978 490.631 496.973 C 490.628 496.978 450.027 543.155 459.585 553.506 C 484.980 581.010 502.954 635.797 501.862 638.259 C 499.784 642.949 349.957 637.694 331.514 656.823 C 313.964 675.026 289.773 649.849 272.747 666.711 C 261.641 677.710 263.801 704.536 263.800 704.540 C 263.799 704.535 245.673 670.988 254.033 655.201 C 261.267 641.541 293.691 637.290 293.695 637.288 C 293.690 637.287 260.894 618.890 247.090 622.651 C 232.147 626.723 212.060 662.259 212.057 662.263 C 212.060 662.257 223.386 611.840 244.656 602.375 C 259.651 595.702 291.907 611.200 291.911 611.201 C 291.911 611.197 295.742 587.641 289.486 580.334 C 279.316 568.454 239.781 572.411 239.776 572.410 C 239.782 572.409 270.115 549.726 299.836 561.491 C 311.852 566.247 318.856 608.087 323.679 611.231 C 333.008 617.311 426.132 614.849 430.222 605.520 C 433.431 598.200 388.312 559.731 382.635 536.645 C 377.719 516.652 390.709 464.602 390.710 464.594 C 390.709 464.601 379.050 495.640 379.800 530.444 C 365.873 521.348 367.262 523.662 362.861 518.958 C 333.022 487.065 311.438 435.067 311.437 435.066 C 311.438 435.067 329.091 482.088 353.391 508.586 C 357.627 513.205 233.137 530.634 194.715 565.007 C 190.379 568.887 195.977 459.256 195.978 459.245 C 195.974 459.244 168.171 446.997 158.018 451.461 C 154.745 452.901 136.942 482.044 136.940 482.047 C 136.941 482.044 137.465 450.756 140.977 446.022 C 159.240 421.407 188.638 430.184 188.643 430.182 C 188.641 430.180 168.316 411.065 161.545 409.496 C 152.951 407.504 119.313 418.882 119.308 418.883 C 119.312 418.880 144.472 392.762 158.850 391.542 C 176.982 390.004 198.608 404.234 198.612 404.235 C 198.612 404.233 209.149 394.998 194.374 379.050 C 189.972 374.298 151.901 369.584 151.897 369.583 C 151.902 369.583 176.886 356.890 202.008 363.432 C 221.768 368.577 229.202 397.488 231.542 404.396 C 241.735 434.491 217.431 425.127 222.416 496.332 C 222.563 498.434 291.773 475.868 291.780 475.866 C 291.781 475.862 291.822 438.996 307.839 432.964 C 312.335 431.271 287.583 396.614 306.497 344.547 C 339.379 254.030 437.548 260.838 458.864 223.948 C 479.912 187.522 450.577 178.475 451.319 177.760 C 454.967 174.250 463.927 161.403 464.214 159.634 C 466.693 144.358 447.343 116.759 447.342 116.754 C 447.343 116.759 465.742 146.087 463.692 159.065 C 462.683 165.455 440.430 188.934 440.429 188.935 C 440.416 188.939 309.723 208.507 301.698 229.869 C 300.071 234.201 312.107 256.230 310.324 257.900 C 307.933 260.140 279.040 242.088 275.992 238.756 C 272.336 234.760 257.310 195.481 257.308 195.477 C 257.310 195.478 282.992 207.768 282.995 207.770 C 283.007 207.763 414.870 152.840 408.451 138.283 C 400.506 120.264 243.418 151.557 243.402 151.558 C 243.401 151.560 232.664 173.886 232.663 173.888 C 232.663 173.882 221.667 129.545 232.201 115.001 C 249.640 90.927 282.651 99.927 372.886 56.635 C 394.118 46.449 439.035 63.841 464.703 56.335 C 486.351 50.004 530.465 15.464 530.472 15.460 C 530.468 15.465 503.769 53.244 492.333 61.784 C 485.338 67.008 458.876 76.860 458.872 76.862 C 458.879 76.865 499.329 89.160 526.138 112.074 C 551.995 134.173 573.937 189.650 544.709 255.926 C 525.813 298.772 472.243 329.839 482.756 357.240 C 505.674 416.970 587.136 371.723 587.146 371.725 "/>
</g>
<g id="specs_2">
<path fill="#ff00ff" fill-rule="evenodd" stroke="none" d="M 387.360 537.098 C 387.379 537.098 576.568 537.098 576.587 537.098 C 576.587 537.084 576.587 395.750 576.587 395.736 C 576.568 395.736 387.379 395.736 387.360 395.736 C 387.360 395.750 387.360 537.084 387.360 537.098 Z"/>
<path fill="#ff0000" fill-rule="evenodd" stroke="none" d="M 563.906 474.337 C 563.909 474.335 598.672 461.921 598.675 461.919 C 598.674 461.921 587.122 474.335 587.121 474.337 C 587.122 474.338 598.674 486.753 598.675 486.754 C 598.672 486.753 563.909 474.338 563.906 474.337 Z"/>
<path fill="#0000ff" fill-rule="evenodd" stroke="none" d="M 379.057 41.442 C 379.058 41.444 388.663 60.614 388.664 60.616 C 388.664 60.615 380.692 54.829 380.691 54.828 C 380.691 54.829 374.345 62.363 374.345 62.364 C 374.345 62.362 379.056 41.444 379.057 41.442 Z"/>
<path fill="#00ff00" fill-rule="evenodd" stroke="none" d="M 227.459 195.611 C 227.461 195.610 242.968 180.801 242.970 180.800 C 242.969 180.801 239.777 190.120 239.777 190.121 C 239.777 190.121 248.842 193.976 248.843 193.977 C 248.841 193.977 227.461 195.611 227.459 195.611 Z"/>
<path fill="#ffff00" fill-rule="evenodd" stroke="none" d="M 188.612 567.329 C 188.612 567.327 197.562 547.842 197.563 547.840 C 197.563 547.841 198.034 557.680 198.034 557.681 C 198.035 557.681 207.882 557.920 207.883 557.920 C 207.881 557.921 188.613 567.328 188.612 567.329 Z"/>
<path fill="#ffff00" fill-rule="evenodd" stroke="none" d="M 507.604 646.900 C 507.603 646.898 498.264 627.596 498.263 627.595 C 498.263 627.596 497.990 637.442 497.989 637.443 C 497.988 637.443 488.148 637.880 488.147 637.880 C 488.149 637.881 507.602 646.899 507.604 646.900 Z"/>
<path fill="#00ff00" fill-rule="evenodd" stroke="none" d="M 593.420 362.648 C 593.418 362.650 570.255 380.808 570.252 380.809 C 570.254 380.809 583.541 378.303 583.542 378.303 C 583.542 378.304 586.999 391.376 586.999 391.377 C 587.000 391.374 593.420 362.651 593.420 362.648 Z"/>
<path fill="#00ffff" fill-rule="evenodd" stroke="none" d="M 460.419 50.475 C 460.418 50.476 453.331 70.488 453.330 70.490 C 453.330 70.489 451.988 60.829 451.988 60.828 C 451.987 60.828 442.256 61.470 442.255 61.470 C 442.256 61.469 460.417 50.476 460.419 50.475 Z"/>
<path fill="#00ffff" fill-rule="evenodd" stroke="none" d="M 228.173 100.676 C 228.174 100.678 236.580 120.172 236.580 120.174 C 236.581 120.173 237.276 110.445 237.276 110.444 C 237.277 110.444 247.029 110.437 247.030 110.437 C 247.028 110.436 228.175 100.677 228.173 100.676 Z"/>
<path fill="#be0027" fill-rule="evenodd" stroke="none" d="M 610.513 474.224 C 610.510 474.223 575.747 461.808 575.744 461.807 C 575.745 461.808 587.296 474.223 587.298 474.224 C 587.296 474.225 575.745 486.640 575.744 486.642 C 575.747 486.640 610.510 474.225 610.513 474.224 Z"/>
<path fill="none" stroke="#ffff00" stroke-width="2" stroke-linejoin="round" d="M 587.146 371.725 C 587.146 441.398 587.146 511.071 587.146 580.745 "/>
</g>
</g>
</g>
<g id="combos">
</g>
</svg>
