<?xml version="1.0" encoding="utf-8"?>
<!-- Generator: Moho 12.5 build 22414 -->
<!DOCTYPE svg PUBLIC "-//W3C//DTD SVG 1.1//EN" "http://www.w3.org/Graphics/SVG/1.1/DTD/svg11.dtd">
<svg version="1.1" id="Frame_0" xmlns="http://www.w3.org/2000/svg" xmlns:xlink="http://www.w3.org/1999/xlink" width="720px" height="720px">
<g id="halves">
<g id="dragon_fore">
<g id="dragon_fore">
<path fill="#ffffff" fill-rule="evenodd" stroke="#000000" stroke-width="1" stroke-linejoin="round" d="M 193.229 150.463 C 193.231 150.464 210.827 152.556 210.829 152.556 C 210.830 152.554 219.664 132.055 219.665 132.053 C 219.663 132.055 193.232 150.462 193.229 150.463 M 258.111 358.215 C 258.113 358.215 286.111 352.116 286.114 352.115 C 286.114 352.112 287.816 317.971 287.816 317.967 C 287.813 317.971 258.114 358.211 258.111 358.215 M 222.985 325.078 C 222.986 325.080 233.488 347.204 233.489 347.206 C 233.492 347.203 263.430 319.112 263.433 319.110 C 263.429 319.110 222.989 325.077 222.985 325.078 M 265.165 276.210 C 265.164 276.212 248.868 297.170 248.866 297.172 C 248.870 297.172 285.848 294.834 285.852 294.834 C 285.850 294.832 265.168 276.212 265.165 276.210 M 274.868 234.257 C 274.867 234.260 271.109 257.382 271.108 257.384 C 271.112 257.382 305.527 242.619 305.530 242.617 C 305.527 242.617 274.871 234.258 274.868 234.257 M 264.172 193.921 C 264.173 193.923 274.168 214.640 274.169 214.642 C 274.171 214.639 296.996 189.744 296.998 189.741 C 296.995 189.742 264.175 193.920 264.172 193.921 M 230.677 169.733 C 230.679 169.734 248.150 178.545 248.151 178.546 C 248.153 178.543 263.943 156.178 263.944 156.176 C 263.941 156.177 230.680 169.732 230.677 169.733 Z"/>
<path fill="#ffffff" fill-rule="evenodd" stroke="#000000" stroke-width="1" stroke-linejoin="round" d="M 195.313 200.717 C 184.365 193.504 139.180 177.435 147.765 203.986 C 153.127 220.572 96.887 198.472 106.203 218.164 C 113.308 233.183 59.321 214.618 61.648 226.888 C 65.930 249.462 17.098 235.611 17.094 235.611 C 17.099 235.611 69.693 258.454 67.458 233.030 C 66.365 220.589 119.004 242.183 112.446 226.918 C 103.114 205.196 163.320 229.079 157.740 212.102 C 149.558 187.208 194.003 216.219 202.421 214.694 C 207.170 213.833 198.915 203.090 195.313 200.717 Z"/>
<path fill="none" stroke="#000000" stroke-width="1" stroke-linejoin="round" d="M 234.549 424.626 C 234.552 424.627 244.869 429.870 263.072 431.823 C 284.654 434.137 295.055 433.443 295.059 433.443 "/>
<path fill="#ffffff" fill-rule="evenodd" stroke="none" d="M 84.720 195.041 C 84.721 195.040 91.369 181.995 91.370 181.994 C 91.371 181.994 101.799 186.146 101.800 186.147 C 101.799 186.148 84.722 195.040 84.720 195.041 M 167.939 175.073 C 152.001 174.919 138.581 170.855 138.579 170.854 C 138.582 170.853 162.757 155.969 168.696 154.280 C 177.476 151.783 197.788 156.772 197.791 156.772 C 197.788 156.774 174.964 175.141 167.939 175.073 M 295.988 343.348 C 295.858 386.755 295.728 430.163 295.598 473.571 C 265.111 474.222 220.574 457.352 217.408 454.078 C 212.162 448.654 236.254 421.363 236.256 421.359 C 236.254 421.363 210.951 449.752 216.819 456.194 C 232.411 473.310 243.299 507.268 242.614 508.787 C 241.309 511.678 148.668 507.805 137.182 519.559 C 126.252 530.744 111.395 515.072 100.795 525.430 C 93.881 532.186 95.106 548.786 95.105 548.789 C 95.104 548.786 84.033 527.962 89.270 518.233 C 93.801 509.815 113.871 507.321 113.874 507.320 C 113.871 507.319 93.664 495.805 85.111 498.074 C 75.852 500.530 63.282 522.424 63.279 522.426 C 63.281 522.423 70.496 491.289 83.690 485.523 C 92.992 481.459 112.876 491.178 112.879 491.178 C 112.879 491.177 115.346 476.624 111.508 472.079 C 105.267 464.689 80.800 466.972 80.797 466.971 C 80.801 466.970 99.655 453.068 117.987 460.467 C 125.399 463.459 129.556 489.365 132.526 491.329 C 138.270 495.128 195.875 493.993 198.443 488.241 C 200.458 483.727 172.714 459.747 169.299 445.446 C 166.341 433.060 174.592 400.923 174.593 400.919 C 174.592 400.923 167.252 420.070 167.571 441.599 C 158.996 435.915 159.845 437.352 157.143 434.425 C 138.821 414.576 125.688 382.327 125.688 382.326 C 125.688 382.327 136.411 411.481 151.329 427.970 C 153.930 430.845 76.864 441.106 52.959 462.205 C 50.260 464.586 54.179 396.807 54.179 396.800 C 54.177 396.800 37.033 389.110 30.735 391.828 C 28.705 392.705 17.573 410.655 17.572 410.657 C 17.572 410.654 18.027 391.307 20.219 388.393 C 31.616 373.245 49.762 378.796 49.764 378.795 C 49.763 378.794 37.272 366.887 33.091 365.888 C 27.784 364.621 6.933 371.518 6.930 371.518 C 6.932 371.517 22.601 355.468 31.499 354.774 C 42.719 353.898 56.035 362.789 56.038 362.789 C 56.037 362.788 62.593 357.120 53.522 347.196 C 50.818 344.238 27.293 341.164 27.290 341.164 C 27.293 341.163 42.798 333.418 58.308 337.568 C 70.507 340.832 74.985 358.744 76.403 363.026 C 82.582 381.681 67.590 375.789 70.376 419.847 C 70.458 421.147 113.357 407.479 113.361 407.478 C 113.362 407.476 113.540 384.675 123.471 381.011 C 126.259 379.983 111.095 358.446 123.009 326.323 C 143.722 270.478 204.408 275.097 217.745 252.371 C 230.914 229.930 212.808 224.212 213.271 223.774 C 215.541 221.618 221.137 213.709 221.321 212.617 C 222.918 203.179 211.066 186.030 211.065 186.027 C 211.066 186.030 222.323 204.245 221.001 212.262 C 220.350 216.210 206.490 230.639 206.489 230.639 C 206.481 230.642 125.570 242.200 120.518 255.379 C 119.494 258.051 126.847 271.725 125.736 272.751 C 124.248 274.126 106.454 262.841 104.583 260.768 C 102.339 258.281 93.209 233.926 93.208 233.924 C 93.209 233.924 109.041 241.632 109.043 241.633 C 109.051 241.629 190.832 208.209 186.923 199.180 C 182.084 188.003 84.800 206.703 84.790 206.703 C 84.789 206.705 78.056 220.468 78.056 220.469 C 78.056 220.465 71.440 192.998 78.015 184.048 C 88.900 169.231 109.279 174.935 165.267 148.536 C 178.440 142.324 206.148 153.267 222.053 148.732 C 235.468 144.907 262.895 123.728 262.900 123.726 C 262.897 123.729 246.227 146.983 239.119 152.217 C 234.771 155.419 218.364 161.402 218.362 161.403 C 218.366 161.405 243.332 169.177 259.817 183.460 C 275.717 197.235 289.057 231.637 270.704 272.505 C 258.839 298.925 225.435 317.971 231.967 334.906 C 246.073 371.480 295.982 343.347 295.988 343.348 Z"/>
<path fill="none" stroke="#000000" stroke-width="1" stroke-linejoin="round" d="M 263.072 431.823 C 284.654 434.137 295.055 433.443 295.059 433.443 M 234.549 424.626 C 234.552 424.627 244.869 429.870 263.072 431.823 M 219.359 200.917 C 219.361 200.923 250.454 213.652 239.906 253.085 C 232.285 281.578 161.466 293.680 153.165 329.974 C 142.384 377.111 170.871 397.185 173.731 400.801 M 84.720 195.041 C 84.721 195.040 91.369 181.995 91.370 181.994 C 91.371 181.994 101.799 186.146 101.800 186.147 C 101.799 186.148 84.722 195.040 84.720 195.041 M 167.939 175.073 C 152.001 174.919 138.581 170.855 138.579 170.854 C 138.582 170.853 162.757 155.969 168.696 154.280 C 177.476 151.783 197.788 156.772 197.791 156.772 C 197.788 156.774 174.964 175.141 167.939 175.073 M 295.988 343.348 C 295.858 386.755 295.728 430.163 295.598 473.571 C 265.111 474.222 220.574 457.352 217.408 454.078 C 212.162 448.654 236.254 421.363 236.256 421.359 C 236.254 421.363 210.951 449.752 216.819 456.194 C 232.411 473.310 243.299 507.268 242.614 508.787 C 241.309 511.678 148.668 507.805 137.182 519.559 C 126.252 530.744 111.395 515.072 100.795 525.430 C 93.881 532.186 95.106 548.786 95.105 548.789 C 95.104 548.786 84.033 527.962 89.270 518.233 C 93.801 509.815 113.871 507.321 113.874 507.320 C 113.871 507.319 93.664 495.805 85.111 498.074 C 75.852 500.530 63.282 522.424 63.279 522.426 C 63.281 522.423 70.496 491.289 83.690 485.523 C 92.992 481.459 112.876 491.178 112.879 491.178 C 112.879 491.177 115.346 476.624 111.508 472.079 C 105.267 464.689 80.800 466.972 80.797 466.971 C 80.801 466.970 99.655 453.068 117.987 460.467 C 125.399 463.459 129.556 489.365 132.526 491.329 C 138.270 495.128 195.875 493.993 198.443 488.241 C 200.458 483.727 172.714 459.747 169.299 445.446 C 166.341 433.060 174.592 400.923 174.593 400.919 C 174.592 400.923 167.252 420.070 167.571 441.599 C 158.996 435.915 159.845 437.352 157.143 434.425 C 138.821 414.576 125.688 382.327 125.688 382.326 C 125.688 382.327 136.411 411.481 151.329 427.970 C 153.930 430.845 76.864 441.106 52.959 462.205 C 50.260 464.586 54.179 396.807 54.179 396.800 C 54.177 396.800 37.033 389.110 30.735 391.828 C 28.705 392.705 17.573 410.655 17.572 410.657 C 17.572 410.654 18.027 391.307 20.219 388.393 C 31.616 373.245 49.762 378.796 49.764 378.795 C 49.763 378.794 37.272 366.887 33.091 365.888 C 27.784 364.621 6.933 371.518 6.930 371.518 C 6.932 371.517 22.601 355.468 31.499 354.774 C 42.719 353.898 56.035 362.789 56.038 362.789 C 56.037 362.788 62.593 357.120 53.522 347.196 C 50.818 344.238 27.293 341.164 27.290 341.164 C 27.293 341.163 42.798 333.418 58.308 337.568 C 70.507 340.832 74.985 358.744 76.403 363.026 C 82.582 381.681 67.590 375.789 70.376 419.847 C 70.458 421.147 113.357 407.479 113.361 407.478 C 113.362 407.476 113.540 384.675 123.471 381.011 C 126.259 379.983 111.095 358.446 123.009 326.323 C 143.722 270.478 204.408 275.097 217.745 252.371 C 230.914 229.930 212.808 224.212 213.271 223.774 C 215.541 221.618 221.137 213.709 221.321 212.617 C 222.918 203.179 211.066 186.030 211.065 186.027 C 211.066 186.030 222.323 204.245 221.001 212.262 C 220.350 216.210 206.490 230.639 206.489 230.639 C 206.481 230.642 125.570 242.200 120.518 255.379 C 119.494 258.051 126.847 271.725 125.736 272.751 C 124.248 274.126 106.454 262.841 104.583 260.768 C 102.339 258.281 93.209 233.926 93.208 233.924 C 93.209 233.924 109.041 241.632 109.043 241.633 C 109.051 241.629 190.832 208.209 186.923 199.180 C 182.084 188.003 84.800 206.703 84.790 206.703 C 84.789 206.705 78.056 220.468 78.056 220.469 C 78.056 220.465 71.440 192.998 78.015 184.048 C 88.900 169.231 109.279 174.935 165.267 148.536 C 178.440 142.324 206.148 153.267 222.053 148.732 C 235.468 144.907 262.895 123.728 262.900 123.726 C 262.897 123.729 246.227 146.983 239.119 152.217 C 234.771 155.419 218.364 161.402 218.362 161.403 C 218.366 161.405 243.332 169.177 259.817 183.460 C 275.717 197.235 289.057 231.637 270.704 272.505 C 258.839 298.925 225.435 317.971 231.967 334.906 C 246.073 371.480 295.982 343.347 295.988 343.348 "/>
</g>
<g id="specs_2">
<path fill="#ff0000" fill-rule="evenodd" stroke="none" d="M 283.694 406.383 C 283.696 406.382 301.279 399.419 301.280 399.419 C 301.280 399.419 295.582 405.977 295.581 405.978 C 295.582 405.979 301.713 412.134 301.714 412.135 C 301.712 412.134 283.696 406.384 283.694 406.383 Z"/>
<path fill="#0000ff" fill-rule="evenodd" stroke="none" d="M 181.561 138.395 C 181.561 138.396 185.490 148.655 185.491 148.656 C 185.490 148.655 181.718 145.303 181.718 145.302 C 181.718 145.303 178.102 148.824 178.102 148.824 C 178.102 148.823 181.560 138.396 181.561 138.395 Z"/>
<path fill="#00ff00" fill-rule="evenodd" stroke="none" d="M 28.223 340.689 C 28.224 340.689 38.921 338.187 38.922 338.187 C 38.921 338.187 35.088 341.470 35.088 341.470 C 35.088 341.470 38.086 345.530 38.086 345.530 C 38.085 345.530 28.224 340.690 28.223 340.689 Z"/>
<path fill="#ffff00" fill-rule="evenodd" stroke="none" d="M 52.333 462.517 C 52.333 462.516 53.534 451.596 53.534 451.595 C 53.534 451.596 55.354 456.303 55.354 456.303 C 55.354 456.303 60.180 454.828 60.181 454.827 C 60.180 454.828 52.333 462.516 52.333 462.517 Z"/>
<path fill="#ffff00" fill-rule="evenodd" stroke="none" d="M 297.658 477.387 C 297.657 477.386 294.074 467.002 294.074 467.001 C 294.074 467.001 293.339 471.994 293.339 471.995 C 293.338 471.995 288.306 471.621 288.305 471.621 C 288.306 471.622 297.657 477.387 297.658 477.387 Z"/>
<path fill="#00ff00" fill-rule="evenodd" stroke="none" d="M 303.347 350.507 C 303.346 350.507 293.534 345.567 293.533 345.567 C 293.534 345.567 296.490 349.657 296.491 349.657 C 296.490 349.658 292.624 352.901 292.624 352.901 C 292.625 352.901 303.346 350.508 303.347 350.507 Z"/>
<path fill="#00ffff" fill-rule="evenodd" stroke="none" d="M 258.168 128.762 C 258.167 128.763 253.303 138.613 253.302 138.614 C 253.302 138.614 253.203 133.568 253.203 133.567 C 253.202 133.567 248.163 133.303 248.162 133.303 C 248.163 133.302 258.167 128.763 258.168 128.762 Z"/>
<path fill="#00ffff" fill-rule="evenodd" stroke="none" d="M 77.537 175.212 C 77.537 175.213 80.666 185.743 80.666 185.744 C 80.666 185.743 81.617 180.787 81.617 180.787 C 81.618 180.787 86.630 181.379 86.630 181.379 C 86.629 181.378 77.538 175.212 77.537 175.212 Z"/>
<path fill="#be0027" fill-rule="evenodd" stroke="none" d="M 305.914 405.039 C 305.912 405.039 290.183 400.567 290.182 400.566 C 290.182 400.567 295.651 405.717 295.652 405.718 C 295.651 405.718 290.908 411.543 290.907 411.544 C 290.909 411.543 305.912 405.040 305.914 405.039 Z"/>
<path fill="none" stroke="#ffff00" stroke-width="2" stroke-linejoin="round" d="M 295.988 343.348 C 295.858 386.755 295.728 430.163 295.598 473.571 "/>
</g>
</g>
</g>
<g id="combos">
</g>
</svg>
