<?xml version="1.0" encoding="utf-8"?>
<!-- Generator: Moho 12.5 build 22414 -->
<!DOCTYPE svg PUBLIC "-//W3C//DTD SVG 1.1//EN" "http://www.w3.org/Graphics/SVG/1.1/DTD/svg11.dtd">
<svg version="1.1" id="Frame_0" xmlns="http://www.w3.org/2000/svg" xmlns:xlink="http://www.w3.org/1999/xlink" width="720px" height="720px">
<g id="halves">
<g id="dragon_hind">
<g id="dragon_hind">
<path fill="#ffffff" fill-rule="evenodd" stroke="none" d="M 245.657 343.348 C 245.670 343.343 310.710 306.938 370.799 299.857 C 462.912 289.001 507.480 342.156 528.518 376.145 C 536.743 389.434 543.558 413.768 546.388 440.313 C 532.613 428.027 520.539 407.696 487.803 393.536 C 471.781 386.605 450.263 385.233 428.104 387.596 C 383.049 392.401 352.585 433.920 352.578 433.925 C 344.316 441.592 307.970 462.334 278.206 470.300 C 266.306 473.485 245.271 473.570 245.268 473.571 C 245.398 430.163 245.527 386.755 245.657 343.348 Z"/>
<path fill="none" stroke="#000000" stroke-width="1" stroke-linejoin="round" d="M 245.657 343.348 C 245.670 343.343 310.710 306.938 370.799 299.857 C 462.912 289.001 507.480 342.156 528.518 376.145 C 536.743 389.434 543.558 413.768 546.388 440.313 C 532.613 428.027 520.539 407.696 487.803 393.536 C 448.106 351.404 396.069 351.873 348.438 384.122 C 333.939 393.939 297.424 418.932 245.913 423.583 M 428.104 387.596 C 450.263 385.233 471.781 386.605 487.803 393.536 M 352.578 433.925 C 352.585 433.920 383.049 392.401 428.104 387.596 M 245.657 343.348 C 245.527 386.755 245.398 430.163 245.268 473.571 C 245.271 473.570 266.306 473.485 278.206 470.300 C 307.970 462.334 344.316 441.592 352.578 433.925 "/>
<path fill="none" stroke="#ffffff" stroke-width="1" stroke-linecap="butt" stroke-linejoin="round" d="M 352.578 433.925 C 352.585 433.920 383.049 392.401 428.104 387.596 "/>
<path fill="none" stroke="#ffffff" stroke-width="1" stroke-linecap="butt" stroke-linejoin="round" d="M 428.104 387.596 C 450.263 385.233 471.781 386.605 487.803 393.536 "/>
<path fill="none" stroke="#ffffff" stroke-width="1" stroke-linecap="butt" stroke-linejoin="round" d="M 487.803 393.536 C 520.539 407.696 532.613 428.027 546.388 440.313 "/>
<path fill="#ffffff" fill-rule="evenodd" stroke="#000000" stroke-width="1" stroke-linejoin="round" d="M 447.041 502.663 C 458.541 502.982 472.249 482.827 472.251 482.828 C 472.251 482.828 445.514 465.518 431.422 476.624 C 421.022 484.820 425.273 502.058 447.041 502.663 M 649.088 437.456 C 648.303 461.155 626.447 514.304 542.341 507.317 C 538.639 519.863 534.894 531.122 528.065 539.237 C 500.734 571.723 450.155 590.902 388.728 565.644 C 351.499 550.336 334.098 499.764 336.698 476.429 C 339.595 450.426 352.576 433.931 352.578 433.925 C 352.585 433.920 383.049 392.401 428.104 387.596 C 450.263 385.233 471.781 386.605 487.803 393.536 C 520.539 407.696 532.613 428.027 546.388 440.313 C 559.937 452.397 589.861 449.441 602.828 430.563 C 627.734 394.305 603.229 357.253 603.229 357.246 C 603.234 357.254 651.182 374.190 649.088 437.456 Z"/>
<path fill="none" stroke="#ffffff" stroke-width="1" stroke-linecap="butt" stroke-linejoin="round" d="M 245.657 343.348 C 245.527 386.755 245.398 430.163 245.268 473.571 "/>
<path fill="#ffffff" fill-rule="evenodd" stroke="#000000" stroke-width="1" stroke-linejoin="round" d="M 245.657 343.348 C 245.527 386.755 245.398 430.163 245.268 473.571 C 245.268 473.558 245.657 343.361 245.657 343.348 Z"/>
<path fill="none" stroke="#000000" stroke-width="1" stroke-linejoin="round" d="M 472.251 482.828 C 501.315 499.402 515.272 503.955 542.084 507.363 M 502.256 497.632 C 502.251 497.636 487.280 529.257 459.873 536.957 C 436.409 543.550 408.790 535.042 396.312 514.106 C 384.551 494.373 389.908 468.163 405.262 451.076 C 419.514 435.216 444.401 430.551 462.405 436.020 C 498.609 447.017 519.888 479.779 557.725 479.716 C 580.984 479.678 606.342 472.190 617.302 455.117 C 649.873 404.381 611.162 365.361 605.756 359.469 "/>
</g>
<g id="specs_2">
<path fill="#ff0000" fill-rule="evenodd" stroke="none" d="M 258.583 407.523 C 258.581 407.524 242.835 414.476 242.833 414.476 C 242.833 414.476 247.785 408.311 247.785 408.310 C 247.785 408.309 241.992 402.927 241.991 402.926 C 241.993 402.927 258.581 407.523 258.583 407.523 Z"/>
<path fill="#0000ff" fill-rule="evenodd" stroke="none" d="M 230.898 407.767 C 230.900 407.766 252.425 399.784 252.427 399.783 C 252.427 399.784 245.336 407.591 245.336 407.592 C 245.337 407.593 252.613 415.226 252.614 415.227 C 252.612 415.226 230.900 407.767 230.898 407.767 Z"/>
<path fill="#00ff00" fill-rule="evenodd" stroke="none" d="M 238.546 345.898 C 238.547 345.898 248.283 343.621 248.284 343.621 C 248.284 343.621 244.795 346.609 244.794 346.609 C 244.795 346.610 247.523 350.305 247.524 350.305 C 247.523 350.305 238.547 345.899 238.546 345.898 Z"/>
<path fill="#ffff00" fill-rule="evenodd" stroke="none" d="M 343.433 518.909 C 343.433 518.908 347.828 511.723 347.828 511.722 C 347.828 511.723 347.556 515.583 347.556 515.583 C 347.556 515.583 351.386 516.133 351.386 516.133 C 351.386 516.133 343.434 518.909 343.433 518.909 Z"/>
<path fill="#ffff00" fill-rule="evenodd" stroke="none" d="M 532.227 541.259 C 532.226 541.258 529.479 533.296 529.478 533.296 C 529.478 533.296 528.915 537.124 528.915 537.125 C 528.914 537.125 525.056 536.839 525.056 536.839 C 525.056 536.839 532.226 541.259 532.227 541.259 Z"/>
<path fill="#00ff00" fill-rule="evenodd" stroke="none" d="M 554.510 383.461 C 554.509 383.461 545.578 378.965 545.577 378.964 C 545.577 378.964 548.269 382.687 548.269 382.688 C 548.269 382.688 544.750 385.640 544.749 385.640 C 544.750 385.640 554.509 383.462 554.510 383.461 Z"/>
<path fill="#00ffff" fill-rule="evenodd" stroke="none" d="M 562.182 182.842 C 562.182 182.843 558.705 192.218 558.704 192.219 C 558.704 192.218 558.140 187.660 558.140 187.660 C 558.139 187.660 553.552 187.894 553.552 187.894 C 553.552 187.894 562.181 182.843 562.182 182.842 Z"/>
<path fill="#00ffff" fill-rule="evenodd" stroke="none" d="M 337.436 179.838 C 337.436 179.839 341.259 189.078 341.260 189.079 C 341.260 189.078 341.655 184.502 341.655 184.501 C 341.655 184.501 346.248 184.565 346.248 184.565 C 346.247 184.565 337.437 179.838 337.436 179.838 Z"/>
<path fill="#be0027" fill-rule="evenodd" stroke="none" d="M 589.799 323.429 C 589.800 323.430 601.508 336.048 601.509 336.049 C 601.509 336.048 599.403 328.427 599.403 328.426 C 599.403 328.426 606.854 325.777 606.855 325.776 C 606.853 325.776 589.801 323.429 589.799 323.429 Z"/>
<path fill="none" stroke="#ffff00" stroke-width="2" stroke-linejoin="round" d="M 245.657 343.348 C 245.527 386.755 245.398 430.163 245.268 473.571 "/>
</g>
</g>
</g>
<g id="combos">
</g>
</svg>
