<?xml version="1.0" encoding="utf-8"?>
<!-- Generator: Moho 12.5 build 22414 -->
<!DOCTYPE svg PUBLIC "-//W3C//DTD SVG 1.1//EN" "http://www.w3.org/Graphics/SVG/1.1/DTD/svg11.dtd">
<svg version="1.1" id="Frame_0" xmlns="http://www.w3.org/2000/svg" xmlns:xlink="http://www.w3.org/1999/xlink" width="720px" height="720px">
<g id="dragon">
<g id="spines">
<path fill="#000000" fill-rule="evenodd" stroke="none" d="M 170.467 169.769 C 170.469 169.769 187.865 169.769 187.867 169.769 C 187.868 169.768 198.191 158.255 200.691 154.356 C 202.321 151.814 208.283 131.746 208.283 131.743 C 208.282 131.746 192.992 150.818 191.737 152.088 C 190.413 153.427 170.469 169.767 170.467 169.769 M 651.106 281.393 C 638.728 279.795 612.370 284.019 612.366 284.019 C 612.369 284.021 629.619 294.749 638.146 302.873 C 646.335 310.675 660.296 334.575 660.298 334.579 C 660.298 334.575 654.148 305.683 658.985 301.091 C 666.544 293.916 695.095 297.809 695.099 297.808 C 695.094 297.807 662.112 282.814 651.106 281.393 M 425.209 476.171 C 425.208 476.168 418.762 448.142 418.761 448.139 C 418.757 448.140 381.808 451.794 381.804 451.795 C 381.808 451.797 425.205 476.169 425.209 476.171 M 446.201 508.019 C 446.199 508.017 426.192 487.360 426.190 487.358 C 426.187 487.361 396.448 509.592 396.445 509.594 C 396.450 509.594 446.196 508.020 446.201 508.019 M 471.938 530.161 C 471.936 530.160 445.711 518.358 445.708 518.356 C 445.707 518.360 426.287 550.006 426.285 550.010 C 426.290 550.008 471.934 530.163 471.938 530.161 M 515.542 536.576 C 515.539 536.576 486.783 536.910 486.780 536.910 C 486.779 536.914 482.487 573.795 482.487 573.799 C 482.490 573.795 515.538 536.579 515.542 536.576 M 554.420 521.394 C 554.418 521.395 529.551 535.840 529.548 535.841 C 529.550 535.844 543.966 570.062 543.967 570.065 C 543.968 570.060 554.419 521.398 554.420 521.394 M 583.226 492.374 C 583.225 492.377 566.716 515.924 566.715 515.927 C 566.717 515.929 594.163 540.936 594.166 540.939 C 594.165 540.934 583.227 492.379 583.226 492.374 M 596.555 450.393 C 596.554 450.396 589.004 478.145 589.003 478.148 C 589.007 478.149 623.920 492.373 623.924 492.375 C 623.921 492.370 596.558 450.397 596.555 450.393 M 585.499 375.609 C 585.500 375.612 590.990 403.841 590.991 403.844 C 590.995 403.844 628.047 401.446 628.051 401.445 C 628.046 401.443 585.503 375.612 585.499 375.609 M 558.931 333.917 C 558.932 333.920 576.636 357.834 576.638 357.836 C 576.641 357.834 611.282 334.894 611.285 334.892 C 611.280 334.892 558.936 333.917 558.931 333.917 M 515.344 304.497 C 515.347 304.499 544.324 319.251 544.327 319.252 C 544.330 319.249 571.207 288.651 571.209 288.648 C 571.204 288.649 515.350 304.496 515.344 304.497 M 461.103 287.911 C 461.107 287.912 501.532 293.155 501.536 293.156 C 501.537 293.152 513.583 255.578 513.584 255.574 C 513.578 255.577 461.108 287.908 461.103 287.911 M 305.016 347.017 C 305.018 347.015 332.975 326.701 332.978 326.699 C 332.978 326.696 328.711 291.246 328.710 291.242 C 328.708 291.248 305.018 347.012 305.016 347.017 M 257.796 364.783 C 257.799 364.782 284.386 355.591 284.389 355.590 C 284.389 355.587 282.091 322.106 282.091 322.103 C 282.088 322.107 257.798 364.778 257.796 364.783 M 219.713 336.548 C 219.714 336.550 232.515 356.901 232.517 356.903 C 232.519 356.900 258.450 326.046 258.453 326.043 C 258.449 326.044 219.716 336.547 219.713 336.548 M 255.170 284.019 C 255.168 284.022 241.711 306.342 241.709 306.344 C 241.713 306.344 277.491 299.779 277.494 299.778 C 277.492 299.777 255.172 284.021 255.170 284.019 M 259.766 241.996 C 259.766 241.999 258.781 264.975 258.781 264.978 C 258.784 264.976 290.624 246.595 290.627 246.593 C 290.624 246.592 259.769 241.997 259.766 241.996 M 244.664 203.913 C 244.665 203.915 256.810 222.953 256.811 222.955 C 256.813 222.952 276.179 196.037 276.181 196.034 C 276.178 196.035 244.667 203.912 244.664 203.913 M 209.207 184.215 C 209.209 184.215 227.262 190.780 227.264 190.781 C 227.265 190.778 240.066 167.145 240.068 167.143 C 240.064 167.145 209.210 184.213 209.207 184.215 Z"/>
</g>
<g id="tongue">
<path fill="none" stroke="#000000" stroke-width="1" stroke-linejoin="round" d="M 186.872 231.321 C 191.401 229.932 182.109 220.415 178.322 218.519 C 166.813 212.757 120.901 202.328 132.348 227.217 C 139.498 242.764 82.109 227.737 93.473 245.855 C 102.140 259.673 47.357 247.832 51.049 259.524 C 57.839 281.034 8.628 273.190 8.624 273.192 C 8.629 273.191 62.550 289.365 57.425 264.838 C 54.917 252.837 108.736 267.788 100.574 253.666 C 88.959 233.571 150.420 249.877 143.013 233.973 C 132.152 210.652 178.842 233.784 186.872 231.321 "/>
<path fill="#000000" fill-rule="evenodd" stroke="none" d="M 178.322 218.519 C 166.813 212.757 120.901 202.328 132.348 227.217 C 139.498 242.764 82.109 227.737 93.473 245.855 C 102.140 259.673 47.357 247.832 51.049 259.524 C 57.839 281.034 8.628 273.190 8.624 273.192 C 8.629 273.191 62.550 289.365 57.425 264.838 C 54.917 252.837 108.736 267.788 100.574 253.666 C 88.959 233.571 150.420 249.877 143.013 233.973 C 132.152 210.652 178.842 233.784 186.872 231.321 C 191.401 229.932 182.109 220.415 178.322 218.519 Z"/>
</g>
<g id="dragon">
<path fill="#ffffff" fill-rule="evenodd" stroke="none" d="M 499.118 365.434 C 549.656 367.345 575.279 391.666 597.413 405.574 C 589.747 385.164 582.339 357.487 574.416 344.344 C 553.017 308.846 498.884 265.962 409.957 288.996 C 351.961 304.018 304.567 342.610 293.615 349.596 C 289.019 352.527 246.715 380.083 229.608 345.089 C 221.781 329.080 251.635 306.897 260.139 279.766 C 273.294 237.798 256.302 205.806 239.206 194.220 C 221.480 182.206 196.240 177.523 196.236 177.521 C 196.238 177.520 211.540 169.785 215.407 166.160 C 221.730 160.234 235.286 135.632 235.288 135.629 C 235.284 135.632 211.000 159.457 198.366 164.740 C 183.385 171.005 155.106 163.548 142.983 171.131 C 91.462 203.355 70.934 200.157 62.039 215.863 C 56.666 225.351 66.299 251.361 66.300 251.365 C 66.300 251.363 71.269 237.166 71.270 237.164 C 71.280 237.162 163.952 207.657 169.965 217.993 C 174.822 226.342 98.968 268.400 98.961 268.405 C 98.960 268.405 82.632 262.726 82.630 262.725 C 82.632 262.728 94.355 285.413 96.831 287.576 C 98.896 289.381 117.551 298.320 118.842 296.807 C 119.806 295.678 111.053 283.200 111.742 280.476 C 115.140 267.043 192.678 246.398 192.686 246.394 C 192.687 246.394 204.526 230.721 204.703 226.797 C 205.063 218.828 191.977 202.375 191.976 202.372 C 191.977 202.375 205.732 217.800 205.197 227.246 C 205.136 228.327 200.475 236.575 198.501 238.915 C 198.097 239.393 216.414 242.872 206.177 266.275 C 195.809 289.977 136.113 292.507 122.392 349.350 C 114.500 382.046 131.779 401.285 129.181 402.610 C 119.924 407.333 122.393 429.581 122.392 429.583 C 122.388 429.585 82.151 447.882 81.920 446.624 C 74.098 403.995 89.396 408.002 81.210 390.532 C 79.332 386.521 72.891 369.579 60.619 367.810 C 45.018 365.562 30.801 374.910 30.798 374.911 C 30.801 374.911 54.091 375.181 57.069 377.751 C 67.063 386.375 61.329 392.660 61.329 392.662 C 61.327 392.661 47.315 385.537 36.478 387.691 C 27.885 389.399 14.469 406.861 14.467 406.862 C 14.470 406.862 33.998 397.722 39.318 398.342 C 43.510 398.831 57.067 408.991 57.069 408.992 C 57.066 408.994 38.733 405.685 29.378 421.773 C 27.578 424.867 29.378 443.782 29.378 443.784 C 29.379 443.782 38.150 424.993 40.028 423.903 C 45.853 420.523 63.457 426.033 63.460 426.033 C 63.460 426.040 67.495 492.571 69.850 489.936 C 90.709 466.597 164.650 447.662 161.781 445.161 C 145.327 430.815 131.495 403.636 131.494 403.635 C 131.495 403.636 148.035 433.553 168.197 450.780 C 171.170 453.320 170.176 452.018 179.195 456.565 C 176.388 435.614 181.325 416.097 181.325 416.093 C 181.325 416.097 177.007 448.383 181.325 460.115 C 186.312 473.661 216.138 493.823 214.697 498.457 C 212.860 504.363 156.834 512.146 150.794 509.107 C 147.671 507.537 140.616 482.764 133.043 480.706 C 114.314 475.617 97.545 491.355 97.541 491.356 C 97.544 491.357 121.132 486.296 128.073 492.777 C 132.341 496.763 131.622 511.236 131.623 511.237 C 131.620 511.237 111.109 504.067 102.511 509.107 C 90.317 516.257 86.892 547.445 86.891 547.449 C 86.893 547.447 96.610 524.646 105.351 521.178 C 113.426 517.975 134.460 526.858 134.463 526.858 C 134.461 526.860 115.184 531.617 111.742 540.349 C 107.765 550.440 120.971 569.458 120.972 569.460 C 120.973 569.458 117.855 553.417 123.812 546.029 C 132.946 534.703 149.246 548.259 158.604 536.089 C 168.440 523.299 259.202 516.338 260.139 513.368 C 260.631 511.808 246.081 479.964 228.898 465.085 C 222.430 459.485 243.807 428.877 243.808 428.873 C 243.807 428.877 223.483 458.275 229.226 462.955 C 232.692 465.780 266.920 479.163 307.712 472.895 C 363.650 464.301 407.721 421.814 407.731 421.809 C 407.737 421.803 439.946 375.878 475.990 367.891 C 484.424 366.021 492.220 366.265 499.118 365.434 Z"/>
<path fill="none" stroke="#000000" stroke-width="1" stroke-linejoin="round" d="M 292.112 436.582 C 261.281 439.629 242.528 432.256 242.523 432.255 M 413.507 369.941 C 393.286 385.653 370.585 428.828 292.112 436.582 M 509.075 365.245 C 487.872 341.127 437.699 351.142 413.507 369.941 M 499.118 365.434 C 549.656 367.345 575.279 391.666 597.413 405.574 C 589.747 385.164 582.339 357.487 574.416 344.344 C 553.017 308.846 498.884 265.962 409.957 288.996 C 351.961 304.018 304.567 342.610 293.615 349.596 C 289.019 352.527 246.715 380.083 229.608 345.089 C 221.781 329.080 251.635 306.897 260.139 279.766 C 273.294 237.798 256.302 205.806 239.206 194.220 C 221.480 182.206 196.240 177.523 196.236 177.521 C 196.238 177.520 211.540 169.785 215.407 166.160 C 221.730 160.234 235.286 135.632 235.288 135.629 C 235.284 135.632 211.000 159.457 198.366 164.740 C 183.385 171.005 155.106 163.548 142.983 171.131 C 91.462 203.355 70.934 200.157 62.039 215.863 C 56.666 225.351 66.299 251.361 66.300 251.365 C 66.300 251.363 71.269 237.166 71.270 237.164 C 71.280 237.162 163.952 207.657 169.965 217.993 C 174.822 226.342 98.968 268.400 98.961 268.405 C 98.960 268.405 82.632 262.726 82.630 262.725 C 82.632 262.728 94.355 285.413 96.831 287.576 C 98.896 289.381 117.551 298.320 118.842 296.807 C 119.806 295.678 111.053 283.200 111.742 280.476 C 115.140 267.043 192.678 246.398 192.686 246.394 C 192.687 246.394 204.526 230.721 204.703 226.797 C 205.063 218.828 191.977 202.375 191.976 202.372 C 191.977 202.375 205.732 217.800 205.197 227.246 C 205.136 228.327 200.475 236.575 198.501 238.915 C 198.097 239.393 216.414 242.872 206.177 266.275 C 195.809 289.977 136.113 292.507 122.392 349.350 C 114.500 382.046 131.779 401.285 129.181 402.610 C 119.924 407.333 122.393 429.581 122.392 429.583 C 122.388 429.585 82.151 447.882 81.920 446.624 C 74.098 403.995 89.396 408.002 81.210 390.532 C 79.332 386.521 72.891 369.579 60.619 367.810 C 45.018 365.562 30.801 374.910 30.798 374.911 C 30.801 374.911 54.091 375.181 57.069 377.751 C 67.063 386.375 61.329 392.660 61.329 392.662 C 61.327 392.661 47.315 385.537 36.478 387.691 C 27.885 389.399 14.469 406.861 14.467 406.862 C 14.470 406.862 33.998 397.722 39.318 398.342 C 43.510 398.831 57.067 408.991 57.069 408.992 C 57.066 408.994 38.733 405.685 29.378 421.773 C 27.578 424.867 29.378 443.782 29.378 443.784 C 29.379 443.782 38.150 424.993 40.028 423.903 C 45.853 420.523 63.457 426.033 63.460 426.033 C 63.460 426.040 67.495 492.571 69.850 489.936 C 90.709 466.597 164.650 447.662 161.781 445.161 C 145.327 430.815 131.495 403.636 131.494 403.635 C 131.495 403.636 148.035 433.553 168.197 450.780 C 171.170 453.320 170.176 452.018 179.195 456.565 C 176.388 435.614 181.325 416.097 181.325 416.093 C 181.325 416.097 177.007 448.383 181.325 460.115 C 186.312 473.661 216.138 493.823 214.697 498.457 C 212.860 504.363 156.834 512.146 150.794 509.107 C 147.671 507.537 140.616 482.764 133.043 480.706 C 114.314 475.617 97.545 491.355 97.541 491.356 C 97.544 491.357 121.132 486.296 128.073 492.777 C 132.341 496.763 131.622 511.236 131.623 511.237 C 131.620 511.237 111.109 504.067 102.511 509.107 C 90.317 516.257 86.892 547.445 86.891 547.449 C 86.893 547.447 96.610 524.646 105.351 521.178 C 113.426 517.975 134.460 526.858 134.463 526.858 C 134.461 526.860 115.184 531.617 111.742 540.349 C 107.765 550.440 120.971 569.458 120.972 569.460 C 120.973 569.458 117.855 553.417 123.812 546.029 C 132.946 534.703 149.246 548.259 158.604 536.089 C 168.440 523.299 259.202 516.338 260.139 513.368 C 260.631 511.808 246.081 479.964 228.898 465.085 C 222.430 459.485 243.807 428.877 243.808 428.873 C 243.807 428.877 223.483 458.275 229.226 462.955 C 232.692 465.780 266.920 479.163 307.712 472.895 C 363.650 464.301 407.721 421.814 407.731 421.809 C 407.737 421.803 439.946 375.878 475.990 367.891 C 484.424 366.021 492.220 366.265 499.118 365.434 M 152.214 349.414 C 147.167 396.616 177.265 412.884 180.472 416.077 M 227.865 264.404 C 223.737 293.064 156.100 313.070 152.214 349.414 M 201.787 215.927 C 201.790 215.932 233.577 224.738 227.865 264.404 "/>
<path fill="none" stroke="#ffffff" stroke-width="1" stroke-linecap="butt" stroke-linejoin="round" d="M 407.731 421.809 C 407.737 421.803 439.946 375.878 475.990 367.891 "/>
<path fill="none" stroke="#ffffff" stroke-width="1" stroke-linecap="butt" stroke-linejoin="round" d="M 475.990 367.891 C 484.424 366.021 492.220 366.265 499.118 365.434 "/>
<path fill="none" stroke="#ffffff" stroke-width="1" stroke-linecap="butt" stroke-linejoin="round" d="M 499.118 365.434 C 549.656 367.345 575.279 391.666 597.413 405.574 "/>
<path fill="#ffffff" fill-rule="evenodd" stroke="#000000" stroke-width="1" stroke-linejoin="round" d="M 507.787 477.872 C 518.782 475.284 526.500 461.119 530.066 455.613 C 530.067 455.610 501.994 441.837 489.543 454.298 C 480.355 463.493 489.229 482.239 507.787 477.872 M 637.168 462.245 C 628.474 464.875 616.513 467.698 602.333 468.304 C 600.872 482.286 597.322 494.643 591.016 504.137 C 567.954 538.854 519.267 568.991 458.239 546.029 C 417.921 530.860 397.391 488.135 397.176 465.085 C 396.923 438.065 407.730 421.815 407.731 421.809 C 407.737 421.803 439.946 375.878 475.990 367.891 C 484.424 366.021 492.220 366.265 499.118 365.434 C 549.656 367.345 575.279 391.666 597.413 405.574 C 608.369 412.459 618.661 416.526 630.778 412.542 C 649.327 406.444 686.001 388.670 682.610 356.450 C 676.802 301.259 622.973 285.756 622.967 285.749 C 622.976 285.757 696.351 278.055 709.122 362.934 C 713.374 391.192 706.636 441.232 637.168 462.245 Z"/>
<path fill="none" stroke="#000000" stroke-width="1" stroke-linejoin="round" d="M 602.333 468.304 C 581.770 469.184 530.065 455.618 530.066 455.613 C 530.065 455.618 581.770 469.184 602.333 468.304 C 581.770 469.184 530.065 455.618 530.066 455.613 "/>
<path fill="none" stroke="#000000" stroke-width="1" stroke-linejoin="round" d="M 559.064 464.375 C 559.060 464.380 550.028 498.384 524.272 509.817 C 502.402 519.526 474.250 513.871 459.659 494.907 C 445.906 477.033 448.091 450.860 461.079 432.424 C 473.135 415.310 496.862 407.850 515.042 411.122 C 550.553 417.515 574.121 442.963 610.186 441.883 C 637.837 441.055 665.134 437.148 682.088 415.289 C 700.362 391.728 703.308 359.597 689.795 333.019 C 670.866 295.785 628.630 287.882 628.624 287.877 M 602.333 468.304 C 581.770 469.184 530.065 455.618 530.066 455.613 "/>
<path fill="#000000" fill-rule="evenodd" stroke="none" d="M 77.018 218.093 C 70.448 220.311 67.611 226.300 67.610 226.301 C 67.610 226.300 68.427 218.066 71.213 215.891 C 77.741 210.796 83.189 216.011 77.018 218.093 M 155.206 193.271 C 145.067 196.631 134.072 192.220 134.070 192.220 C 134.071 192.219 144.134 180.858 150.101 178.658 C 161.132 174.590 171.536 181.927 171.538 181.927 C 171.536 181.928 168.728 188.790 155.206 193.271 Z"/>
</g>
<g id="dragon_2">
<path fill="#000000" fill-rule="evenodd" stroke="#ffffff" stroke-width="1" stroke-linejoin="round" d="M 205.197 227.246 C 205.136 228.327 200.475 236.575 198.501 238.915 C 198.097 239.393 216.414 242.872 206.177 266.275 C 195.809 289.977 136.113 292.507 122.392 349.350 C 114.500 382.046 131.779 401.285 129.181 402.610 C 119.924 407.333 122.393 429.581 122.392 429.583 C 122.388 429.585 82.151 447.882 81.920 446.624 C 74.098 403.995 89.396 408.002 81.210 390.532 C 79.332 386.521 72.891 369.579 60.619 367.810 C 45.018 365.562 30.801 374.910 30.798 374.911 C 30.801 374.911 54.091 375.181 57.069 377.751 C 67.063 386.375 61.329 392.660 61.329 392.662 C 61.327 392.661 47.315 385.537 36.478 387.691 C 27.885 389.399 14.469 406.861 14.467 406.862 C 14.470 406.862 33.998 397.722 39.318 398.342 C 43.510 398.831 57.067 408.991 57.069 408.992 C 57.066 408.994 38.733 405.685 29.378 421.773 C 27.578 424.867 29.378 443.782 29.378 443.784 C 29.379 443.782 38.150 424.993 40.028 423.903 C 45.853 420.523 63.457 426.033 63.460 426.033 C 63.460 426.040 67.495 492.571 69.850 489.936 C 90.709 466.597 164.650 447.662 161.781 445.161 C 145.327 430.815 131.495 403.636 131.494 403.635 C 131.495 403.636 148.035 433.553 168.197 450.780 C 171.170 453.320 170.176 452.018 179.195 456.565 C 176.388 435.614 181.325 416.097 181.325 416.093 C 177.824 412.898 147.398 396.872 152.214 349.414 C 155.904 313.049 223.737 293.064 227.865 264.404 C 233.577 224.738 201.820 215.798 201.787 215.927 C 201.780 215.956 204.228 223.730 205.197 227.246 Z"/>
<path fill="#000000" fill-rule="evenodd" stroke="#ffffff" stroke-width="1" stroke-linejoin="round" d="M 407.731 421.809 C 407.721 421.814 363.650 464.301 307.712 472.895 C 266.920 479.163 232.700 465.769 229.226 462.955 C 223.807 458.567 241.693 431.599 242.424 430.653 C 242.528 430.872 261.069 439.106 292.112 436.582 C 370.707 430.193 393.269 385.631 413.507 369.941 C 437.717 351.170 488.449 340.834 509.075 365.443 C 499.411 366.219 489.309 365.225 475.990 367.891 C 439.790 375.136 407.737 421.803 407.731 421.809 Z"/>
<path fill="#000000" fill-rule="evenodd" stroke="#ffffff" stroke-width="1" stroke-linejoin="round" d="M 622.967 285.749 C 623.093 285.904 669.205 293.150 689.795 333.019 C 703.477 359.511 700.362 391.728 682.088 415.289 C 665.134 437.148 637.837 441.055 610.186 441.883 C 574.121 442.963 550.553 417.515 515.042 411.122 C 496.862 407.850 473.135 415.310 461.079 432.424 C 448.091 450.860 445.906 477.033 459.659 494.907 C 474.250 513.871 502.426 519.578 524.272 509.817 C 550.848 497.944 559.686 462.553 559.796 462.566 C 560.748 462.671 588.268 469.618 602.333 468.304 C 616.583 466.973 628.474 464.875 637.168 462.245 C 706.636 441.232 713.374 391.192 709.122 362.934 C 696.351 278.055 622.976 285.757 622.967 285.749 M 507.787 477.872 C 518.782 475.284 530.063 455.613 530.066 455.613 C 530.066 455.613 501.994 441.837 489.543 454.298 C 480.355 463.493 489.229 482.239 507.787 477.872 Z"/>
<path fill="none" stroke="#ffffff" stroke-width="1" stroke-linejoin="round" d="M 530.066 455.613 C 542.503 459.544 555.737 461.670 555.740 461.671 C 555.740 461.671 558.444 462.267 559.796 462.566 "/>
</g>
<g id="wing">
<path fill="#000000" fill-rule="evenodd" stroke="#ffffff" stroke-width="1" stroke-linejoin="round" d="M 566.173 154.848 C 566.167 154.850 524.403 161.356 515.535 175.106 C 502.845 194.784 507.321 221.659 507.320 221.664 C 507.316 221.667 478.793 235.695 469.937 254.480 C 463.273 268.614 463.004 295.112 463.004 295.116 C 463.001 295.118 442.576 300.579 434.973 310.663 C 427.999 319.913 428.120 339.250 428.119 339.253 C 428.114 339.254 402.281 339.606 382.996 348.166 C 364.491 356.380 347.562 374.471 347.559 374.474 C 347.556 374.472 323.862 358.294 323.859 358.292 C 323.861 358.288 345.396 315.915 345.398 315.911 C 345.399 315.905 346.792 262.072 346.793 262.067 C 346.790 262.064 322.624 226.739 322.621 226.736 C 322.629 226.731 360.479 193.843 397.095 182.324 C 532.650 139.678 566.156 154.851 566.173 154.848 Z"/>
<path fill="#ffffff" fill-rule="evenodd" stroke="#000000" stroke-width="1" stroke-linejoin="round" d="M 569.584 155.835 C 569.568 155.837 542.986 134.708 409.771 172.610 C 330.487 195.168 299.959 234.923 299.948 234.930 C 299.950 234.930 317.200 232.191 327.977 241.394 C 337.922 249.887 343.748 273.459 343.395 286.074 C 342.969 301.356 334.190 325.779 320.946 338.751 C 309.854 349.615 304.485 355.038 324.341 359.888 C 334.137 350.811 348.793 324.977 349.365 324.626 C 350.125 324.160 369.072 322.676 377.620 323.806 C 395.649 326.191 434.267 342.389 434.272 342.391 C 434.267 342.388 404.840 320.385 382.899 314.840 C 373.623 312.496 350.139 311.429 350.136 311.428 C 350.137 311.427 353.968 294.949 354.381 294.525 C 355.498 293.378 383.538 287.307 400.952 287.494 C 430.244 287.810 478.764 302.361 478.772 302.362 C 478.765 302.359 436.299 279.669 405.000 275.940 C 392.895 274.498 355.828 282.134 355.823 282.134 C 355.823 282.132 351.204 259.499 351.393 259.063 C 352.017 257.625 391.739 237.040 423.131 229.755 C 462.354 220.653 519.767 223.862 519.777 223.862 C 519.768 223.861 492.679 208.815 425.244 218.171 C 387.274 223.439 346.901 248.058 346.893 248.061 C 346.891 248.059 342.551 235.225 331.978 225.512 C 330.622 224.267 347.395 208.177 415.993 182.727 C 522.318 143.280 569.568 155.838 569.584 155.835 Z"/>
</g>
<g id="specs_2">
<path fill="#ff0000" fill-rule="evenodd" stroke="none" d="M 323.080 586.393 C 323.080 586.395 330.741 607.846 330.742 607.848 C 330.741 607.848 323.080 600.720 323.080 600.719 C 323.079 600.720 315.418 607.848 315.417 607.848 C 315.418 607.846 323.079 586.395 323.080 586.393 Z"/>
<path fill="#0000ff" fill-rule="evenodd" stroke="none" d="M 142.538 146.229 C 142.540 146.232 164.437 178.015 164.439 178.018 C 164.438 178.017 148.786 169.687 148.785 169.686 C 148.784 169.687 139.349 184.699 139.348 184.700 C 139.348 184.696 142.538 146.233 142.538 146.229 Z"/>
<path fill="#00ff00" fill-rule="evenodd" stroke="none" d="M 110.696 358.406 C 110.697 358.406 124.887 353.257 124.888 353.257 C 124.888 353.257 120.190 358.358 120.189 358.358 C 120.190 358.359 124.939 363.412 124.939 363.412 C 124.938 363.412 110.697 358.407 110.696 358.406 Z"/>
<path fill="#ffff00" fill-rule="evenodd" stroke="none" d="M 82.227 538.502 C 82.228 538.500 91.430 518.465 91.431 518.463 C 91.431 518.464 91.916 528.581 91.916 528.582 C 91.917 528.582 102.042 528.827 102.043 528.827 C 102.041 528.828 82.229 538.501 82.227 538.502 Z"/>
<path fill="#ffff00" fill-rule="evenodd" stroke="none" d="M 579.880 538.256 C 579.879 538.254 570.277 518.408 570.276 518.406 C 570.276 518.407 569.994 528.532 569.994 528.533 C 569.993 528.533 559.875 528.981 559.874 528.981 C 559.876 528.982 579.878 538.255 579.880 538.256 Z"/>
<path fill="#00ff00" fill-rule="evenodd" stroke="none" d="M 591.052 358.406 C 591.050 358.406 576.861 353.257 576.859 353.257 C 576.860 353.257 581.558 358.358 581.558 358.358 C 581.558 358.359 576.809 363.412 576.808 363.412 C 576.810 363.412 591.050 358.407 591.052 358.406 Z"/>
<path fill="#00ffff" fill-rule="evenodd" stroke="none" d="M 567.134 152.521 C 567.132 152.521 555.283 158.409 555.282 158.410 C 555.282 158.409 558.869 153.502 558.870 153.502 C 558.869 153.501 554.233 149.570 554.233 149.569 C 554.234 149.570 567.132 152.521 567.134 152.521 Z"/>
<path fill="#00ffff" fill-rule="evenodd" stroke="none" d="M 210.898 157.685 C 210.897 157.686 199.861 164.985 199.860 164.986 C 199.860 164.986 205.905 164.343 205.906 164.343 C 205.906 164.344 206.982 170.326 206.982 170.327 C 206.982 170.325 210.897 157.687 210.898 157.685 Z"/>
<path fill="#be0027" fill-rule="evenodd" stroke="none" d="M 43.557 270.475 C 43.559 270.475 66.224 268.210 66.227 268.210 C 66.226 268.210 56.503 264.340 56.502 264.340 C 56.502 264.339 59.663 254.363 59.663 254.362 C 59.661 254.364 43.559 270.474 43.557 270.475 Z"/>
</g>
</g>
</svg>
