<?xml version="1.0" encoding="utf-8"?>
<!-- Generator: Moho 12.5 build 22414 -->
<!DOCTYPE svg PUBLIC "-//W3C//DTD SVG 1.1//EN" "http://www.w3.org/Graphics/SVG/1.1/DTD/svg11.dtd">
<svg version="1.1" id="Frame_0" xmlns="http://www.w3.org/2000/svg" xmlns:xlink="http://www.w3.org/1999/xlink" width="720px" height="720px">
<g id="combos">
</g>
<g id="dragon_fore">
<g id="dragon_fore">
<path fill="#000000" fill-rule="evenodd" stroke="#ffffff" stroke-width="1" stroke-linejoin="round" d="M 169.659 171.616 C 169.661 171.616 187.381 171.616 187.383 171.616 C 187.384 171.614 193.736 150.216 193.737 150.214 C 193.734 150.216 169.662 171.614 169.659 171.616 M 258.612 370.256 C 258.615 370.255 285.697 360.893 285.700 360.892 C 285.700 360.889 283.359 326.786 283.359 326.783 C 283.356 326.787 258.615 370.252 258.612 370.256 M 219.821 341.497 C 219.822 341.499 232.862 362.228 232.863 362.230 C 232.866 362.227 259.279 330.799 259.281 330.795 C 259.277 330.796 219.825 341.496 219.821 341.497 M 255.937 287.991 C 255.936 287.993 242.228 310.729 242.226 310.731 C 242.230 310.730 278.673 304.044 278.677 304.043 C 278.675 304.041 255.939 287.993 255.937 287.991 M 260.619 245.187 C 260.619 245.189 259.616 268.593 259.616 268.595 C 259.619 268.593 292.050 249.870 292.054 249.868 C 292.050 249.868 260.622 245.187 260.619 245.187 M 245.236 206.395 C 245.237 206.397 257.608 225.789 257.609 225.791 C 257.611 225.788 277.337 198.372 277.339 198.369 C 277.336 198.370 245.239 206.394 245.236 206.395 M 209.120 186.330 C 209.122 186.331 227.511 193.018 227.512 193.018 C 227.514 193.016 240.553 168.943 240.554 168.941 C 240.551 168.943 209.123 186.329 209.120 186.330 Z"/>
<path fill="#000000" fill-rule="evenodd" stroke="#ffffff" stroke-width="1" stroke-linejoin="round" d="M 177.661 221.273 C 165.938 215.403 119.172 204.780 130.831 230.132 C 138.114 245.968 79.658 230.662 91.234 249.117 C 100.062 263.192 44.261 251.130 48.020 263.040 C 54.937 284.950 4.811 276.961 4.807 276.962 C 4.812 276.961 59.735 293.436 54.515 268.453 C 51.960 256.228 106.781 271.457 98.466 257.073 C 86.636 236.604 149.239 253.213 141.695 237.014 C 130.631 213.259 178.191 236.821 186.369 234.312 C 190.983 232.897 181.518 223.204 177.661 221.273 Z"/>
<path fill="none" stroke="#000000" stroke-width="1" stroke-linejoin="round" d="M 243.056 438.984 C 243.059 438.984 253.923 442.973 272.229 442.763 C 293.933 442.514 304.180 440.596 304.183 440.596 "/>
<path fill="#000000" fill-rule="evenodd" stroke="none" d="M 83.082 217.844 C 83.081 217.845 67.173 228.691 67.171 228.692 C 67.172 228.691 72.233 214.952 72.234 214.951 C 72.235 214.951 83.081 217.843 83.082 217.844 M 174.934 177.342 C 174.931 177.344 154.435 198.277 147.451 199.039 C 131.607 200.768 117.801 198.316 117.798 198.316 C 117.801 198.314 140.050 180.681 145.749 178.303 C 154.172 174.787 174.931 177.342 174.934 177.342 Z"/>
<path fill="none" stroke="#ffffff" stroke-width="1" stroke-linecap="butt" stroke-linejoin="round" d="M 67.171 228.692 C 67.172 228.691 72.233 214.952 72.234 214.951 "/>
<path fill="none" stroke="#ffffff" stroke-width="1" stroke-linecap="butt" stroke-linejoin="round" d="M 72.234 214.951 C 72.235 214.951 83.081 217.843 83.082 217.844 "/>
<path fill="none" stroke="#ffffff" stroke-width="1" stroke-linecap="butt" stroke-linejoin="round" d="M 83.082 217.844 C 83.081 217.845 67.173 228.691 67.171 228.692 "/>
<path fill="none" stroke="#ffffff" stroke-width="1" stroke-linecap="butt" stroke-linejoin="round" d="M 147.451 199.039 C 131.607 200.768 117.801 198.316 117.798 198.316 "/>
<path fill="none" stroke="#ffffff" stroke-width="1" stroke-linecap="butt" stroke-linejoin="round" d="M 117.798 198.316 C 117.801 198.314 140.050 180.681 145.749 178.303 "/>
<path fill="none" stroke="#ffffff" stroke-width="1" stroke-linecap="butt" stroke-linejoin="round" d="M 145.749 178.303 C 154.172 174.787 174.931 177.342 174.934 177.342 "/>
<path fill="none" stroke="#ffffff" stroke-width="1" stroke-linecap="butt" stroke-linejoin="round" d="M 174.934 177.342 C 174.931 177.344 154.435 198.277 147.451 199.039 "/>
<path fill="#ffffff" fill-rule="evenodd" stroke="none" d="M 67.171 228.692 C 67.172 228.691 72.233 214.952 72.234 214.951 C 72.235 214.951 83.081 217.843 83.082 217.844 C 83.081 217.845 67.173 228.691 67.171 228.692 M 147.451 199.039 C 131.607 200.768 117.801 198.316 117.798 198.316 C 117.801 198.314 140.050 180.681 145.749 178.303 C 154.172 174.787 174.931 177.342 174.934 177.342 C 174.931 177.344 154.435 198.277 147.451 199.039 M 294.470 351.021 C 299.465 394.140 304.461 437.260 309.456 480.379 C 279.258 484.626 233.041 473.131 229.511 470.254 C 223.661 465.487 244.363 435.542 244.365 435.538 C 244.363 435.542 222.589 466.720 229.176 472.424 C 246.679 487.580 261.501 520.015 260.999 521.604 C 260.045 524.630 167.595 531.720 157.576 544.748 C 148.043 557.144 131.440 543.336 122.137 554.873 C 116.069 562.398 119.245 578.738 119.244 578.740 C 119.243 578.737 105.791 559.366 109.842 549.087 C 113.348 540.193 132.984 535.347 132.986 535.346 C 132.983 535.345 111.558 526.297 103.333 529.560 C 94.429 533.092 84.531 556.316 84.529 556.319 C 84.531 556.315 88.019 524.547 100.440 517.265 C 109.197 512.130 130.090 519.434 130.093 519.434 C 130.092 519.432 130.825 504.690 126.477 500.630 C 119.407 494.029 95.380 499.184 95.377 499.184 C 95.381 499.182 112.462 483.151 131.539 488.335 C 139.253 490.431 146.439 515.665 149.620 517.265 C 155.773 520.359 212.841 512.432 214.712 506.416 C 216.180 501.696 185.799 481.159 180.720 467.361 C 176.321 455.411 180.720 422.525 180.720 422.520 C 180.719 422.524 175.691 442.405 178.550 463.745 C 169.363 459.114 170.376 460.440 167.347 457.852 C 146.810 440.305 129.963 409.832 129.962 409.831 C 129.963 409.832 144.052 437.517 160.812 452.129 C 163.734 454.676 88.419 473.964 67.171 497.737 C 64.773 500.421 60.663 432.652 60.662 432.646 C 60.660 432.645 42.728 427.033 36.795 430.476 C 34.882 431.586 25.948 450.725 25.947 450.727 C 25.947 450.725 24.114 431.458 25.947 428.306 C 35.476 411.919 54.150 415.289 54.153 415.288 C 54.151 415.287 40.342 404.937 36.072 404.439 C 30.653 403.808 10.761 413.117 10.759 413.118 C 10.761 413.116 24.426 395.330 33.179 393.591 C 44.218 391.396 58.490 398.653 58.492 398.653 C 58.492 398.652 64.332 392.250 54.153 383.466 C 51.120 380.848 27.396 380.573 27.393 380.573 C 27.396 380.572 41.878 371.050 57.769 373.340 C 70.269 375.142 76.829 392.399 78.743 396.484 C 87.081 414.279 71.498 410.198 79.466 453.619 C 79.702 454.901 120.687 436.264 120.691 436.262 C 120.691 436.260 118.177 413.598 127.606 408.787 C 130.253 407.437 112.652 387.840 120.691 354.536 C 134.666 296.636 195.473 294.059 206.033 269.917 C 216.461 246.078 197.808 242.538 198.215 242.048 C 200.215 239.639 204.838 231.125 204.892 230.019 C 205.364 220.459 191.570 204.828 191.568 204.826 C 191.570 204.828 204.898 221.587 204.532 229.704 C 204.352 233.702 192.292 249.665 192.291 249.666 C 192.283 249.670 113.303 270.699 109.842 284.382 C 109.140 287.156 118.056 299.866 117.075 301.016 C 115.759 302.557 96.758 293.452 94.654 291.614 C 92.132 289.410 80.191 266.303 80.190 266.301 C 80.191 266.301 96.822 272.086 96.824 272.087 C 96.831 272.081 174.096 229.241 169.148 220.737 C 163.023 210.209 68.628 240.262 68.617 240.264 C 68.617 240.266 63.556 254.727 63.555 254.729 C 63.555 254.725 53.742 228.231 59.215 218.567 C 68.275 202.569 89.185 205.827 141.665 173.003 C 154.013 165.280 182.818 172.875 198.077 166.494 C 210.947 161.112 235.682 136.844 235.686 136.841 C 235.684 136.844 221.876 161.904 215.435 167.940 C 211.496 171.633 195.910 179.511 195.908 179.512 C 195.912 179.514 221.621 184.284 239.677 196.521 C 257.091 208.323 274.399 240.910 260.999 283.658 C 252.337 311.294 221.415 334.150 229.900 350.196 C 248.225 384.850 294.463 351.021 294.470 351.021 Z"/>
<path fill="none" stroke="#000000" stroke-width="1" stroke-linejoin="round" d="M 272.229 442.763 C 293.933 442.514 304.180 440.596 304.183 440.596 M 243.056 438.984 C 243.059 438.984 253.923 442.973 272.229 442.763 M 201.562 218.633 C 201.565 218.638 233.943 227.607 228.124 268.010 C 223.920 297.203 155.025 317.581 151.067 354.601 C 145.926 402.682 176.584 419.252 179.851 422.505 M 67.171 228.692 C 67.172 228.691 72.233 214.952 72.234 214.951 C 72.235 214.951 83.081 217.843 83.082 217.844 C 83.081 217.845 67.173 228.691 67.171 228.692 M 147.451 199.039 C 131.607 200.768 117.801 198.316 117.798 198.316 C 117.801 198.314 140.050 180.681 145.749 178.303 C 154.172 174.787 174.931 177.342 174.934 177.342 C 174.931 177.344 154.435 198.277 147.451 199.039 M 294.470 351.021 C 299.465 394.140 304.461 437.260 309.456 480.379 C 279.258 484.626 233.041 473.131 229.511 470.254 C 223.661 465.487 244.363 435.542 244.365 435.538 C 244.363 435.542 222.589 466.720 229.176 472.424 C 246.679 487.580 261.501 520.015 260.999 521.604 C 260.045 524.630 167.595 531.720 157.576 544.748 C 148.043 557.144 131.440 543.336 122.137 554.873 C 116.069 562.398 119.245 578.738 119.244 578.740 C 119.243 578.737 105.791 559.366 109.842 549.087 C 113.348 540.193 132.984 535.347 132.986 535.346 C 132.983 535.345 111.558 526.297 103.333 529.560 C 94.429 533.092 84.531 556.316 84.529 556.319 C 84.531 556.315 88.019 524.547 100.440 517.265 C 109.197 512.130 130.090 519.434 130.093 519.434 C 130.092 519.432 130.825 504.690 126.477 500.630 C 119.407 494.029 95.380 499.184 95.377 499.184 C 95.381 499.182 112.462 483.151 131.539 488.335 C 139.253 490.431 146.439 515.665 149.620 517.265 C 155.773 520.359 212.841 512.432 214.712 506.416 C 216.180 501.696 185.799 481.159 180.720 467.361 C 176.321 455.411 180.720 422.525 180.720 422.520 C 180.719 422.524 175.691 442.405 178.550 463.745 C 169.363 459.114 170.376 460.440 167.347 457.852 C 146.810 440.305 129.963 409.832 129.962 409.831 C 129.963 409.832 144.052 437.517 160.812 452.129 C 163.734 454.676 88.419 473.964 67.171 497.737 C 64.773 500.421 60.663 432.652 60.662 432.646 C 60.660 432.645 42.728 427.033 36.795 430.476 C 34.882 431.586 25.948 450.725 25.947 450.727 C 25.947 450.725 24.114 431.458 25.947 428.306 C 35.476 411.919 54.150 415.289 54.153 415.288 C 54.151 415.287 40.342 404.937 36.072 404.439 C 30.653 403.808 10.761 413.117 10.759 413.118 C 10.761 413.116 24.426 395.330 33.179 393.591 C 44.218 391.396 58.490 398.653 58.492 398.653 C 58.492 398.652 64.332 392.250 54.153 383.466 C 51.120 380.848 27.396 380.573 27.393 380.573 C 27.396 380.572 41.878 371.050 57.769 373.340 C 70.269 375.142 76.829 392.399 78.743 396.484 C 87.081 414.279 71.498 410.198 79.466 453.619 C 79.702 454.901 120.687 436.264 120.691 436.262 C 120.691 436.260 118.177 413.598 127.606 408.787 C 130.253 407.437 112.652 387.840 120.691 354.536 C 134.666 296.636 195.473 294.059 206.033 269.917 C 216.461 246.078 197.808 242.538 198.215 242.048 C 200.215 239.639 204.838 231.125 204.892 230.019 C 205.364 220.459 191.570 204.828 191.568 204.826 C 191.570 204.828 204.898 221.587 204.532 229.704 C 204.352 233.702 192.292 249.665 192.291 249.666 C 192.283 249.670 113.303 270.699 109.842 284.382 C 109.140 287.156 118.056 299.866 117.075 301.016 C 115.759 302.557 96.758 293.452 94.654 291.614 C 92.132 289.410 80.191 266.303 80.190 266.301 C 80.191 266.301 96.822 272.086 96.824 272.087 C 96.831 272.081 174.096 229.241 169.148 220.737 C 163.023 210.209 68.628 240.262 68.617 240.264 C 68.617 240.266 63.556 254.727 63.555 254.729 C 63.555 254.725 53.742 228.231 59.215 218.567 C 68.275 202.569 89.185 205.827 141.665 173.003 C 154.013 165.280 182.818 172.875 198.077 166.494 C 210.947 161.112 235.682 136.844 235.686 136.841 C 235.684 136.844 221.876 161.904 215.435 167.940 C 211.496 171.633 195.910 179.511 195.908 179.512 C 195.912 179.514 221.621 184.284 239.677 196.521 C 257.091 208.323 274.399 240.910 260.999 283.658 C 252.337 311.294 221.415 334.150 229.900 350.196 C 248.225 384.850 294.463 351.021 294.470 351.021 "/>
</g>
<g id="specs_2">
<path fill="#ff0000" fill-rule="evenodd" stroke="none" d="M 289.704 415.067 C 289.705 415.066 306.343 406.076 306.344 406.075 C 306.344 406.076 301.460 413.261 301.459 413.261 C 301.460 413.262 308.275 418.650 308.276 418.651 C 308.274 418.651 289.705 415.067 289.704 415.067 Z"/>
<path fill="#0000ff" fill-rule="evenodd" stroke="none" d="M 156.648 161.010 C 156.648 161.011 161.761 170.734 161.761 170.735 C 161.761 170.735 157.620 167.851 157.619 167.851 C 157.619 167.851 154.445 171.774 154.444 171.774 C 154.444 171.773 156.647 161.011 156.648 161.010 Z"/>
<path fill="#00ff00" fill-rule="evenodd" stroke="none" d="M 28.263 379.991 C 28.264 379.991 38.591 376.244 38.592 376.243 C 38.591 376.244 35.172 379.956 35.172 379.956 C 35.172 379.957 38.629 383.634 38.629 383.634 C 38.628 383.634 28.264 379.991 28.263 379.991 Z"/>
<path fill="#ffff00" fill-rule="evenodd" stroke="none" d="M 66.586 498.121 C 66.586 498.120 66.490 487.135 66.490 487.134 C 66.490 487.134 68.853 491.594 68.853 491.594 C 68.853 491.594 73.471 489.559 73.472 489.559 C 73.471 489.560 66.587 498.120 66.586 498.121 Z"/>
<path fill="#ffff00" fill-rule="evenodd" stroke="none" d="M 311.952 483.926 C 311.951 483.925 307.167 474.036 307.166 474.035 C 307.166 474.036 307.026 479.081 307.026 479.081 C 307.026 479.081 301.984 479.305 301.983 479.305 C 301.984 479.305 311.951 483.925 311.952 483.926 Z"/>
<path fill="#00ff00" fill-rule="evenodd" stroke="none" d="M 302.622 357.262 C 302.621 357.262 292.295 353.515 292.294 353.514 C 292.294 353.515 295.713 357.227 295.714 357.227 C 295.713 357.227 292.257 360.905 292.257 360.905 C 292.258 360.905 302.621 357.262 302.622 357.262 Z"/>
<path fill="#00ffff" fill-rule="evenodd" stroke="none" d="M 231.581 142.401 C 231.581 142.402 227.914 152.757 227.913 152.758 C 227.913 152.757 227.219 147.759 227.219 147.758 C 227.218 147.758 222.183 148.091 222.182 148.091 C 222.183 148.090 231.580 142.401 231.581 142.401 Z"/>
<path fill="#00ffff" fill-rule="evenodd" stroke="none" d="M 57.697 209.849 C 57.698 209.850 62.047 219.938 62.048 219.939 C 62.048 219.938 62.407 214.904 62.408 214.904 C 62.408 214.904 67.454 214.900 67.455 214.900 C 67.454 214.899 57.698 209.850 57.697 209.849 Z"/>
<path fill="#be0027" fill-rule="evenodd" stroke="none" d="M 311.609 411.110 C 311.607 411.109 295.461 408.525 295.459 408.525 C 295.460 408.525 301.498 412.994 301.499 412.994 C 301.498 412.995 297.475 419.339 297.475 419.340 C 297.477 419.339 311.607 411.110 311.609 411.110 Z"/>
<path fill="none" stroke="#ffff00" stroke-width="2" stroke-linejoin="round" d="M 294.470 351.021 C 299.465 394.140 304.461 437.260 309.456 480.379 "/>
</g>
</g>
</svg>
