<?xml version="1.0" encoding="utf-8"?>
<!-- Generator: Moho 12.5 build 22414 -->
<!DOCTYPE svg PUBLIC "-//W3C//DTD SVG 1.1//EN" "http://www.w3.org/Graphics/SVG/1.1/DTD/svg11.dtd">
<svg version="1.1" id="Frame_0" xmlns="http://www.w3.org/2000/svg" xmlns:xlink="http://www.w3.org/1999/xlink" width="720px" height="720px">
<g id="eagle_head_2">
<g id="eagle_head_2">
<path fill="#000000" fill-rule="evenodd" stroke="#000000" stroke-width="4" stroke-linejoin="round" d="M 248.182 220.540 C 277.239 188.120 259.030 160.832 253.465 152.477 C 266.460 154.558 292.961 165.544 293.636 170.447 C 296.007 187.659 273.223 216.984 259.314 227.961 C 225.431 254.698 202.733 245.584 202.727 245.586 C 202.731 245.584 231.280 239.396 248.182 220.540 Z"/>
<path fill="#ffffff" fill-rule="evenodd" stroke="#000000" stroke-width="4" stroke-linejoin="round" d="M 326.104 165.809 C 309.012 143.529 264.992 143.957 226.822 166.931 C 198.345 184.071 197.977 210.625 168.404 215.902 C 133.128 222.196 107.186 211.264 107.180 211.263 C 107.186 211.265 135.356 234.952 168.404 231.671 C 208.061 227.734 214.057 206.771 237.172 199.424 C 285.612 184.028 321.466 210.336 321.466 210.336 C 321.466 210.336 333.811 175.854 326.104 165.809 Z"/>
<path fill="#ffffff" fill-rule="evenodd" stroke="#000000" stroke-width="4" stroke-linejoin="round" d="M 361.644 241.592 C 362.815 211.398 332.833 189.895 332.831 189.890 C 332.830 189.896 332.677 233.595 324.952 243.887 C 303.277 272.760 278.806 279.022 278.802 279.026 C 278.810 279.022 359.680 292.251 361.644 241.592 M 307.993 353.666 C 343.069 339.849 333.383 285.974 333.385 285.967 C 333.380 285.971 291.802 323.360 275.390 325.706 C 233.696 331.666 207.980 319.890 207.973 319.889 C 207.983 319.893 227.812 385.250 307.993 353.666 M 235.158 445.012 C 261.433 418.717 243.516 376.028 243.517 376.022 C 243.513 376.026 212.156 417.893 197.742 423.924 C 167.540 436.561 146.644 435.056 146.482 435.719 C 146.209 436.842 200.012 480.186 235.158 445.012 M 243.845 560.760 C 260.207 527.963 229.770 493.706 229.768 493.699 C 229.766 493.705 213.337 542.244 201.748 552.241 C 176.958 573.625 156.537 578.082 156.626 579.272 C 156.777 581.289 221.647 605.253 243.845 560.760 M 308.060 638.544 C 301.262 602.188 255.033 594.176 255.028 594.171 C 255.029 594.178 269.287 641.790 266.218 656.374 C 259.606 687.788 247.942 704.328 248.343 704.753 C 249.037 705.489 317.198 687.420 308.060 638.544 M 495.783 557.945 C 456.547 544.732 451.421 494.528 451.417 494.522 C 451.423 494.524 481.203 512.879 513.639 516.637 C 551.632 521.039 574.447 511.804 574.973 512.878 C 575.752 514.469 543.939 574.161 495.783 557.945 M 440.823 445.168 C 404.818 436.705 398.942 390.156 398.938 390.151 C 398.944 390.152 445.605 409.432 460.433 406.956 C 492.725 401.566 509.460 388.329 509.710 388.561 C 510.134 388.955 489.227 456.546 440.823 445.168 M 457.973 341.615 C 427.746 320.300 439.705 274.932 439.703 274.925 C 439.709 274.929 475.773 310.260 490.451 313.510 C 522.416 320.588 542.905 314.609 543.032 314.879 C 543.247 315.337 498.610 370.270 457.973 341.615 M 489.107 252.140 C 453.331 242.756 448.651 196.072 448.647 196.066 C 448.653 196.068 494.804 216.538 509.691 214.444 C 542.111 209.884 559.272 197.171 559.424 197.320 C 559.682 197.572 537.203 264.756 489.107 252.140 M 468.778 155.669 C 432.178 161.004 409.635 119.857 409.629 119.853 C 409.636 119.852 460.116 120.670 473.002 112.927 C 501.065 96.066 511.937 77.675 512.096 77.737 C 512.365 77.842 517.981 148.495 468.778 155.669 M 403.098 84.176 C 366.480 90.368 339.097 57.277 339.091 57.274 C 339.098 57.273 393.704 55.942 408.664 48.925 C 433.239 37.400 437.131 35.572 446.698 27.589 C 448.877 25.771 442.378 77.533 403.098 84.176 Z"/>
<path fill="none" stroke="#000000" stroke-width="4" stroke-linejoin="round" d="M 339.091 57.274 C 369.440 64.991 386.448 70.553 401.243 67.478 C 416.088 64.392 432.782 53.565 446.698 27.589 M 409.629 119.853 C 409.636 119.854 454.970 138.679 474.527 131.486 C 501.101 121.712 512.092 77.742 512.096 77.737 M 448.647 196.066 C 448.652 196.070 476.335 232.936 495.863 233.526 C 535.249 234.718 559.418 197.323 559.424 197.320 M 439.703 274.925 C 439.706 274.931 446.329 314.547 469.889 329.074 C 497.140 345.877 543.025 314.881 543.032 314.879 M 398.938 390.151 C 398.943 390.154 416.809 424.883 451.336 426.477 C 478.841 427.747 509.705 388.565 509.710 388.561 M 451.417 494.522 C 447.531 488.762 452.077 523.001 499.618 534.332 C 549.069 546.118 574.965 512.880 574.973 512.878 M 278.802 279.026 C 319.323 267.134 338.884 266.713 348.367 241.876 C 354.892 224.788 338.009 207.219 332.831 189.890 M 207.973 319.889 C 219.139 330.832 247.804 353.951 289.926 341.133 C 332.563 328.159 318.899 304.356 333.385 285.967 M 146.482 435.719 C 147.482 433.735 190.579 452.770 220.352 435.753 C 236.624 426.453 235.796 395.932 243.517 376.022 M 255.028 594.171 C 255.031 594.176 288.423 614.494 288.998 637.052 C 290.061 678.771 248.347 704.747 248.343 704.753 M 229.768 493.699 C 229.767 493.706 236.982 546.311 217.569 564.696 C 196.870 584.300 156.632 579.270 156.626 579.272 "/>
<path fill="#ffffff" fill-rule="evenodd" stroke="none" d="M 379.477 67.621 C 379.474 67.623 368.111 75.880 345.584 80.465 C 342.414 106.723 334.677 119.278 311.261 124.992 C 273.195 134.282 256.536 109.224 256.531 109.222 C 256.535 109.220 273.770 92.652 298.714 86.056 C 324.647 79.197 337.338 82.144 345.584 80.465 M 483.803 189.927 C 505.320 288.044 418.249 347.371 422.579 419.983 C 425.418 467.597 472.581 507.282 472.586 507.291 C 472.576 507.295 381.079 539.715 367.470 551.058 C 353.399 562.786 303.589 649.933 303.582 649.942 C 303.571 649.935 173.730 557.667 224.063 403.286 C 250.849 321.125 353.509 310.394 336.308 235.382 C 332.452 218.565 290.858 233.527 290.853 233.527 C 290.847 233.517 344.391 140.689 224.063 138.907 C 218.457 138.824 208.613 107.399 215.714 91.597 C 225.558 69.691 303.547 54.724 327.959 52.636 C 390.791 47.262 456.644 66.077 483.803 189.927 Z"/>
<path fill="none" stroke="#000000" stroke-width="4" stroke-linejoin="round" d="M 379.477 67.621 C 379.474 67.623 368.111 75.880 345.584 80.465 C 342.414 106.723 334.677 119.278 311.261 124.992 C 273.195 134.282 256.536 109.224 256.531 109.222 C 256.535 109.220 273.770 92.652 298.714 86.056 C 324.647 79.197 337.338 82.144 345.584 80.465 M 483.803 189.927 C 505.320 288.044 418.249 347.371 422.579 419.983 C 425.418 467.597 472.581 507.282 472.586 507.291 C 472.576 507.295 381.079 539.715 367.470 551.058 C 353.399 562.786 303.589 649.933 303.582 649.942 C 303.571 649.935 173.730 557.667 224.063 403.286 C 250.849 321.125 353.509 310.394 336.308 235.382 C 332.452 218.565 290.858 233.527 290.853 233.527 C 290.847 233.517 344.391 140.689 224.063 138.907 C 218.457 138.824 208.613 107.399 215.714 91.597 C 225.558 69.691 303.547 54.724 327.959 52.636 C 390.791 47.262 456.644 66.077 483.803 189.927 "/>
<path fill="none" stroke="#ffffff" stroke-width="1" stroke-linecap="butt" stroke-linejoin="round" d="M 202.727 245.586 C 202.733 245.584 225.431 254.698 259.314 227.961 "/>
<path fill="none" stroke="#ffffff" stroke-width="1" stroke-linecap="butt" stroke-linejoin="round" d="M 259.314 227.961 C 273.223 216.984 296.007 187.659 293.636 170.447 "/>
<path fill="none" stroke="#ffffff" stroke-width="1" stroke-linecap="butt" stroke-linejoin="round" d="M 293.636 170.447 C 292.961 165.544 266.460 154.558 253.465 152.477 "/>
<path fill="#ffffff" fill-rule="evenodd" stroke="#000000" stroke-width="4" stroke-linejoin="round" d="M 305.695 163.026 C 309.805 184.691 325.349 229.689 271.373 246.514 C 226.236 260.583 202.734 245.586 202.727 245.586 C 202.733 245.584 225.431 254.698 259.314 227.961 C 273.223 216.984 296.007 187.659 293.636 170.447 C 292.961 165.544 266.460 154.558 253.465 152.477 C 251.694 152.193 192.001 141.474 171.531 150.031 C 141.175 162.722 142.291 187.143 142.288 187.147 C 142.289 187.141 114.055 160.716 148.915 122.386 C 165.235 104.441 216.861 86.614 226.215 89.916 C 232.246 92.045 235.802 133.493 255.262 135.509 C 268.677 136.899 285.501 143.033 285.504 143.034 C 285.506 143.036 303.850 153.298 305.695 163.026 Z"/>
<path fill="none" stroke="#000000" stroke-width="4" stroke-linejoin="round" d="M 285.504 143.034 C 285.511 143.033 333.695 156.286 358.724 132.021 C 378.781 112.578 379.475 67.628 379.477 67.621 "/>
<path fill="#ffffff" fill-rule="evenodd" stroke="#000000" stroke-width="4" stroke-linejoin="round" d="M 389.032 605.242 C 359.748 577.994 323.892 568.528 323.886 568.524 C 323.887 568.531 328.787 618.678 336.132 632.049 C 364.591 683.861 420.554 678.657 419.810 676.966 C 402.815 638.329 420.898 634.892 389.032 605.242 M 424.566 605.599 C 389.024 577.725 384.479 531.286 384.475 531.279 C 384.483 531.282 443.384 555.938 461.078 564.597 C 501.031 584.150 496.733 591.904 514.662 611.881 C 517.450 614.986 464.199 636.680 424.566 605.599 Z"/>
<path fill="none" stroke="#000000" stroke-width="4" stroke-linejoin="round" d="M 323.886 568.524 C 317.864 563.672 342.172 603.486 363.497 625.740 C 389.962 653.359 387.150 648.897 419.810 676.966 M 384.475 531.279 C 380.114 523.481 411.038 569.828 441.970 587.462 C 477.364 607.640 483.931 604.741 514.662 611.881 "/>
<path fill="none" stroke="#000000" stroke-width="1" stroke-linecap="butt" stroke-linejoin="round" d="M 311.261 124.992 C 334.677 119.278 342.414 106.723 345.584 80.465 "/>
<path fill="none" stroke="#000000" stroke-width="1" stroke-linecap="butt" stroke-linejoin="round" d="M 345.584 80.465 C 337.338 82.144 324.647 79.197 298.714 86.056 "/>
<path fill="none" stroke="#000000" stroke-width="1" stroke-linecap="butt" stroke-linejoin="round" d="M 298.714 86.056 C 273.770 92.652 256.535 109.220 256.531 109.222 "/>
<path fill="none" stroke="#000000" stroke-width="1" stroke-linecap="butt" stroke-linejoin="round" d="M 256.531 109.222 C 256.536 109.224 273.195 134.282 311.261 124.992 "/>
<path fill="#000000" fill-rule="evenodd" stroke="#000000" stroke-width="4" stroke-linejoin="round" d="M 311.261 124.992 C 334.677 119.278 342.414 106.723 345.584 80.465 C 337.338 82.144 324.647 79.197 298.714 86.056 C 273.770 92.652 256.535 109.220 256.531 109.222 C 256.536 109.224 273.195 134.282 311.261 124.992 Z"/>
<path fill="#ffffff" fill-rule="evenodd" stroke="none" d="M 302.485 88.775 C 311.891 88.775 319.478 96.362 319.478 105.767 C 319.478 115.173 311.891 122.761 302.485 122.760 C 293.080 122.760 285.492 115.173 285.492 105.767 C 285.492 96.362 293.080 88.775 302.485 88.775 Z"/>
<path fill="#000000" fill-rule="evenodd" stroke="none" d="M 218.328 99.817 C 221.165 99.817 223.454 102.106 223.454 104.943 C 223.454 107.781 221.165 110.069 218.328 110.070 C 215.491 110.070 213.202 107.781 213.202 104.943 C 213.201 102.106 215.491 99.817 218.328 99.817 Z"/>
<path fill="none" stroke="#000000" stroke-width="4" stroke-linejoin="round" d="M 107.180 211.263 C 107.186 211.264 142.219 233.168 176.531 222.976 C 213.560 211.976 209.596 192.020 238.518 179.692 C 264.557 168.592 293.553 171.677 293.558 171.676 "/>
</g>
<g id="eagle_head_details">
<path fill="#ffffff" fill-rule="evenodd" stroke="#000000" stroke-width="4" stroke-linejoin="round" d="M 226.337 395.885 C 226.336 395.894 208.107 443.795 219.109 480.662 C 229.866 516.707 270.323 546.203 270.328 546.210 C 270.329 546.204 269.797 516.515 275.795 493.154 C 280.718 473.984 292.605 452.745 292.606 452.741 C 292.608 452.747 291.456 489.186 308.213 510.334 C 326.680 533.639 366.323 541.095 366.329 541.098 C 366.328 541.093 354.011 515.398 353.394 492.795 C 352.849 472.839 362.216 449.542 362.217 449.537 C 362.219 449.542 363.532 482.546 381.455 497.616 C 404.906 517.335 448.129 509.646 448.136 509.647 C 448.134 509.643 431.945 491.333 425.971 472.850 C 419.048 451.429 422.187 423.216 422.187 423.211 C 422.192 423.219 437.225 481.741 473.300 504.055 C 474.048 504.517 474.931 521.394 480.799 534.114 C 492.061 558.523 516.566 581.591 516.570 581.596 C 516.562 581.595 476.731 581.813 445.634 573.049 C 430.113 568.674 412.930 558.835 412.927 558.833 C 412.927 558.836 412.923 575.130 416.272 587.955 C 422.349 611.224 437.666 636.641 437.669 636.646 C 437.662 636.644 402.816 628.930 376.218 616.918 C 360.329 609.742 342.894 597.535 342.891 597.533 C 342.891 597.537 340.151 620.219 343.778 638.295 C 348.204 660.357 362.303 684.475 362.305 684.480 C 362.298 684.476 294.997 646.732 294.989 646.729 C 294.984 646.723 205.056 571.355 204.582 492.340 C 204.172 424.021 226.334 395.895 226.337 395.885 Z"/>
<path fill="none" stroke="#000000" stroke-width="4" stroke-linejoin="round" d="M 291.640 455.725 C 291.640 455.738 274.611 516.244 293.450 578.110 C 312.639 641.125 361.501 682.556 361.508 682.566 M 356.182 539.254 C 356.184 539.258 362.081 562.970 377.776 584.032 C 402.492 617.201 436.565 635.721 436.571 635.726 M 422.476 511.934 C 422.479 511.937 432.958 531.879 451.465 547.606 C 479.685 571.586 512.829 581.460 512.835 581.463 M 263.939 407.225 C 263.938 407.233 243.813 442.798 247.110 484.403 C 249.792 518.252 269.788 544.527 269.790 544.533 M 326.591 420.263 C 326.591 420.271 312.915 456.052 325.587 491.494 C 336.778 522.795 365.713 539.942 365.717 539.947 M 387.981 424.847 C 387.982 424.852 380.761 452.168 394.751 474.886 C 411.919 502.763 446.482 508.984 446.487 508.988 M 331.788 311.362 C 331.783 311.367 299.115 327.253 282.538 359.747 C 268.005 388.237 273.025 419.521 273.024 419.527 M 392.118 310.116 C 392.112 310.122 346.593 333.108 332.379 379.239 C 325.036 403.068 335.341 426.333 335.341 426.338 M 443.704 307.227 C 443.699 307.235 401.068 337.907 390.934 387.759 C 386.473 409.705 396.095 429.825 396.095 429.830 M 432.303 368.167 C 432.300 368.169 417.100 379.453 409.328 392.399 C 399.866 408.160 396.784 431.064 396.782 431.068 C 396.780 431.065 376.821 417.037 371.272 399.568 C 366.022 383.040 373.620 361.293 373.620 361.289 C 373.618 361.292 355.342 376.009 346.570 392.495 C 338.600 407.473 336.631 428.671 336.630 428.674 C 336.628 428.671 318.141 412.930 313.709 395.084 C 309.360 377.574 318.108 355.432 318.108 355.428 C 318.105 355.432 297.544 371.540 286.513 389.375 C 277.801 403.459 273.357 423.550 273.356 423.554 C 273.354 423.549 256.872 398.314 257.856 375.507 C 258.709 355.765 274.380 335.057 274.382 335.053 M 423.035 161.240 C 423.039 161.247 453.317 190.144 459.834 231.576 C 467.149 278.087 444.064 319.270 444.063 319.279 M 380.537 198.263 C 380.540 198.271 407.932 229.571 409.887 270.936 C 411.506 305.164 392.190 333.321 392.189 333.327 M 352.292 236.926 C 352.292 236.931 364.818 262.396 356.965 288.735 C 349.039 315.320 324.354 329.878 324.350 329.882 M 335.238 272.864 C 335.238 272.867 336.897 288.494 334.270 300.907 C 331.232 315.264 322.001 330.947 322.000 330.950 C 322.005 330.947 357.632 321.777 373.258 299.530 C 382.504 286.366 381.908 265.026 381.909 265.022 C 381.910 265.025 389.136 281.036 391.151 295.137 C 393.618 312.406 390.363 333.701 390.363 333.705 C 390.366 333.702 416.604 317.631 427.467 296.499 C 436.224 279.463 435.008 254.818 435.009 254.814 C 435.010 254.817 442.588 273.347 444.220 289.488 C 445.656 303.682 442.518 320.989 442.518 320.992 C 442.521 320.989 461.844 304.528 471.925 286.802 M 373.714 102.849 C 373.720 102.852 410.453 106.578 435.859 132.674 C 464.644 162.239 456.681 180.394 467.091 204.254 M 346.499 141.794 C 346.504 141.797 372.761 148.816 390.186 170.094 C 415.038 200.441 407.295 216.535 415.850 239.755 M 312.323 195.493 C 312.327 195.494 332.807 194.108 347.720 206.905 C 362.902 219.934 364.622 240.783 364.623 240.786 M 330.327 227.917 C 348.296 228.384 364.620 244.731 364.623 244.733 C 364.624 244.730 371.247 229.199 370.198 216.010 C 368.887 199.535 357.218 181.847 357.217 181.844 C 357.220 181.846 377.376 193.401 390.715 206.760 C 404.204 220.269 415.847 240.679 415.850 240.682 C 415.850 240.677 422.621 212.884 420.571 189.923 C 419.107 173.515 411.242 154.710 411.241 154.706 C 411.244 154.709 431.033 163.939 443.974 175.925 C 456.577 187.599 467.041 206.106 467.043 206.109 C 467.043 206.104 470.733 177.199 467.110 153.845 C 463.931 133.348 453.336 110.096 453.334 110.092 "/>
<path fill="none" stroke="#000000" stroke-width="4" stroke-linejoin="round" d="M 412.927 558.833 C 393.314 547.079 377.549 520.244 370.654 484.799 M 342.891 597.533 C 316.012 566.449 309.265 545.678 302.007 501.537 M 294.989 646.729 C 256.192 592.493 244.618 567.292 235.224 512.039 "/>
</g>
<g id="specs_2">
<path fill="#ff0000" fill-rule="evenodd" stroke="none" d="M 361.354 524.817 C 361.356 524.820 372.987 557.390 372.989 557.393 C 372.987 557.392 361.356 546.569 361.354 546.568 C 361.353 546.569 349.721 557.392 349.720 557.393 C 349.721 557.390 361.353 524.820 361.354 524.817 Z"/>
<path fill="#0000ff" fill-rule="evenodd" stroke="none" d="M 361.354 37.429 C 361.355 37.431 368.112 56.350 368.112 56.352 C 368.112 56.351 361.355 50.065 361.354 50.064 C 361.354 50.065 354.597 56.351 354.596 56.352 C 354.597 56.350 361.354 37.431 361.354 37.429 Z"/>
<path fill="#00ff00" fill-rule="evenodd" stroke="none" d="M 185.258 432.630 C 185.261 432.629 216.134 421.426 216.137 421.425 C 216.136 421.426 205.914 432.525 205.913 432.526 C 205.914 432.527 216.247 443.520 216.248 443.521 C 216.245 443.520 185.261 432.631 185.258 432.630 Z"/>
<path fill="#ffff00" fill-rule="evenodd" stroke="none" d="M 218.015 571.511 C 218.015 571.509 225.102 556.079 225.103 556.078 C 225.103 556.079 225.476 563.870 225.476 563.871 C 225.477 563.871 233.275 564.060 233.276 564.060 C 233.274 564.061 218.016 571.510 218.015 571.511 Z"/>
<path fill="#ffff00" fill-rule="evenodd" stroke="none" d="M 503.148 571.322 C 503.147 571.321 495.752 556.035 495.751 556.034 C 495.751 556.035 495.535 563.832 495.535 563.833 C 495.534 563.833 487.741 564.179 487.740 564.179 C 487.741 564.179 503.146 571.321 503.148 571.322 Z"/>
<path fill="#00ff00" fill-rule="evenodd" stroke="none" d="M 446.948 432.630 C 446.945 432.629 416.073 421.426 416.069 421.425 C 416.070 421.426 426.292 432.525 426.293 432.526 C 426.292 432.527 415.959 443.520 415.958 443.521 C 415.961 443.520 446.945 432.631 446.948 432.630 Z"/>
<path fill="#be0027" fill-rule="evenodd" stroke="none" d="M 430.972 612.983 C 430.970 612.980 416.049 581.780 416.048 581.777 C 416.048 581.778 415.535 597.658 415.535 597.660 C 415.533 597.660 399.657 598.291 399.656 598.291 C 399.659 598.292 430.969 612.982 430.972 612.983 Z"/>
</g>
</g>
</svg>
