<?xml version="1.0" encoding="utf-8"?>
<!-- Generator: Moho 12.5 build 22414 -->
<!DOCTYPE svg PUBLIC "-//W3C//DTD SVG 1.1//EN" "http://www.w3.org/Graphics/SVG/1.1/DTD/svg11.dtd">
<svg version="1.1" id="Frame_0" xmlns="http://www.w3.org/2000/svg" xmlns:xlink="http://www.w3.org/1999/xlink" width="720px" height="720px">
<g id="eagle_shield">
<g id="head_eagle">
<g id="head_eagle">
<path fill="#ffffff" fill-rule="evenodd" stroke="#000000" stroke-width="1" stroke-linejoin="round" d="M 352.774 95.086 C 352.770 95.085 327.752 82.373 314.799 84.079 C 303.657 85.546 303.875 97.745 294.359 96.714 C 286.279 95.838 283.358 83.608 273.034 82.974 C 262.063 82.299 252.252 95.144 252.250 95.145 C 252.252 95.144 264.368 85.356 272.477 87.065 C 281.736 89.017 281.117 102.006 291.813 103.452 C 306.064 105.378 307.595 92.433 317.958 92.120 C 327.585 91.831 350.764 109.814 350.767 109.816 C 350.768 109.814 352.774 95.088 352.774 95.086 Z"/>
<path fill="#ffffff" fill-rule="evenodd" stroke="#000000" stroke-width="1" stroke-linejoin="round" d="M 373.348 52.840 C 376.817 52.090 372.645 67.476 359.764 68.910 C 352.590 69.709 339.083 59.426 339.081 59.425 C 339.085 59.424 359.563 55.820 373.348 52.840 M 336.225 76.162 C 336.223 76.161 315.033 67.441 315.031 67.440 C 315.034 67.438 322.305 48.943 343.713 45.092 C 352.923 43.435 362.285 40.809 371.607 41.316 C 393.449 42.505 404.259 28.314 404.262 28.312 C 404.261 28.314 408.236 43.549 393.940 47.494 C 391.019 48.301 397.323 51.135 399.936 53.584 C 413.945 66.715 435.833 54.169 435.836 54.169 C 435.834 54.171 431.450 72.006 410.085 74.298 C 407.311 74.596 409.250 84.750 411.766 88.916 C 420.658 103.645 440.994 101.685 440.996 101.686 C 440.993 101.686 424.828 113.726 410.190 105.795 C 407.685 104.437 396.604 123.723 398.987 127.535 C 413.047 150.022 430.872 148.010 430.875 148.012 C 430.871 148.012 412.037 158.906 392.820 146.284 C 389.531 144.124 381.295 163.603 384.392 168.798 C 396.053 188.352 414.581 191.021 414.584 191.023 C 414.581 191.023 410.361 199.342 384.197 190.996 C 378.667 189.232 382.336 210.909 388.402 215.386 C 410.239 231.501 430.762 217.554 430.766 217.554 C 430.764 217.556 429.225 232.742 409.670 234.547 C 399.244 235.509 413.213 245.163 424.125 253.183 C 405.971 268.036 384.697 284.139 332.445 276.528 C 330.451 276.237 325.664 253.260 322.121 255.630 C 308.479 264.753 290.923 252.951 290.920 252.950 C 290.922 252.949 308.446 254.709 314.307 243.141 C 315.881 240.035 313.420 221.542 306.403 222.884 C 288.208 226.363 274.570 214.057 274.567 214.056 C 274.570 214.055 300.869 216.337 306.962 206.300 C 310.529 200.425 313.699 186.245 309.023 186.229 C 288.192 186.158 276.903 171.352 276.900 171.351 C 276.904 171.350 300.486 179.459 315.019 166.930 C 321.956 160.951 323.579 152.146 321.208 151.905 C 300.648 149.816 298.505 135.184 298.503 135.183 C 298.506 135.183 311.183 144.778 328.742 140.232 C 331.004 139.647 331.779 135.859 336.692 131.936 C 353.872 118.219 335.317 112.713 335.316 112.712 C 335.316 112.708 336.225 76.165 336.225 76.162 Z"/>
<path fill="#ffffff" fill-rule="evenodd" stroke="#000000" stroke-width="1" stroke-linejoin="round" d="M 305.433 63.215 C 288.116 69.891 292.956 86.102 292.955 86.104 C 292.957 86.103 296.277 74.957 308.035 73.989 C 311.677 73.689 326.651 76.830 329.563 80.255 C 332.767 84.023 336.877 100.900 332.667 105.266 C 328.398 109.695 307.843 102.302 307.841 102.301 C 307.844 102.303 337.087 125.899 344.551 121.353 C 353.726 115.766 356.450 84.417 342.607 69.498 C 333.743 59.944 327.782 54.599 305.433 63.215 Z"/>
<path fill="none" stroke="#000000" stroke-width="1" stroke-linejoin="round" d="M 352.429 96.833 C 352.430 96.835 371.067 100.326 367.854 121.630 C 364.103 146.499 337.323 152.195 336.621 190.857 C 335.729 239.936 371.375 263.798 385.209 274.778 "/>
</g>
</g>
<g id="tail_eagle">
<g id="longfeathers">
<path fill="#ffffff" fill-rule="evenodd" stroke="#000000" stroke-width="1" stroke-linejoin="round" d="M 369.018 349.616 C 369.023 349.627 422.008 467.869 448.275 514.228 C 457.931 531.270 478.491 556.135 507.668 552.628 C 499.785 569.052 454.313 586.341 418.411 530.924 C 405.210 510.547 360.424 343.611 360.420 343.598 C 360.420 343.599 369.017 349.616 369.018 349.616 Z"/>
<path fill="#ffffff" fill-rule="evenodd" stroke="#000000" stroke-width="1" stroke-linejoin="round" d="M 368.777 361.075 C 368.780 361.087 403.359 490.034 422.506 541.488 C 429.544 560.404 446.418 588.602 476.652 590.259 C 465.980 605.149 419.015 612.363 392.888 551.318 C 383.129 528.516 361.016 353.562 361.013 353.548 C 361.014 353.549 368.776 361.074 368.777 361.075 Z"/>
<path fill="#ffffff" fill-rule="evenodd" stroke="#000000" stroke-width="1" stroke-linejoin="round" d="M 368.052 355.112 C 368.053 355.126 383.897 506.715 393.636 568.689 C 396.920 589.588 404.118 617.744 437.344 631.333 C 390.388 637.568 366.592 625.276 359.899 560.972 C 355.562 519.308 361.179 345.611 361.179 345.596 C 361.180 345.597 368.051 355.111 368.052 355.112 Z"/>
<path fill="#ffffff" fill-rule="evenodd" stroke="#000000" stroke-width="1" stroke-linejoin="round" d="M 350.982 349.616 C 350.977 349.627 297.992 467.869 271.725 514.228 C 262.069 531.270 241.509 556.135 212.332 552.628 C 220.215 569.052 265.687 586.341 301.589 530.924 C 314.790 510.547 359.576 343.611 359.581 343.598 C 359.580 343.599 350.983 349.616 350.982 349.616 Z"/>
<path fill="#ffffff" fill-rule="evenodd" stroke="#000000" stroke-width="1" stroke-linejoin="round" d="M 351.223 361.075 C 351.220 361.087 316.641 490.034 297.494 541.488 C 290.456 560.404 273.582 588.602 243.348 590.259 C 254.020 605.149 300.985 612.363 327.112 551.318 C 336.871 528.516 358.984 353.562 358.987 353.548 C 358.986 353.549 351.224 361.074 351.223 361.075 Z"/>
<path fill="#ffffff" fill-rule="evenodd" stroke="#000000" stroke-width="1" stroke-linejoin="round" d="M 351.948 355.112 C 351.947 355.126 336.103 506.715 326.364 568.689 C 323.080 589.588 315.882 617.744 282.656 631.333 C 329.612 637.568 353.408 625.276 360.101 560.972 C 364.438 519.308 358.821 345.611 358.821 345.596 C 358.820 345.597 351.949 355.111 351.948 355.112 Z"/>
</g>
<g id="tail_eagle_2">
<path fill="#ffffff" fill-rule="evenodd" stroke="none" d="M 360.000 511.958 C 365.176 501.606 373.733 499.733 378.291 489.094 C 382.318 479.695 379.400 470.667 378.291 466.230 C 373.718 447.939 346.281 447.940 341.709 466.230 C 340.600 470.666 337.682 479.695 341.709 489.094 C 346.267 499.733 354.824 501.606 360.000 511.958 Z"/>
<path fill="none" stroke="#000000" stroke-width="1" stroke-linejoin="round" d="M 360.000 457.085 C 360.000 473.852 360.000 490.618 360.000 507.385 M 341.709 489.094 C 346.267 499.733 354.824 501.606 360.000 511.958 C 365.176 501.606 373.733 499.733 378.291 489.094 C 382.318 479.695 379.400 470.667 378.291 466.230 C 373.718 447.939 346.281 447.940 341.709 466.230 C 340.600 470.666 337.682 479.695 341.709 489.094 "/>
<path fill="#ffffff" fill-rule="evenodd" stroke="none" d="M 332.829 493.548 C 340.508 484.888 349.258 485.294 356.414 476.197 C 362.737 468.161 362.255 458.684 362.332 454.112 C 362.649 435.261 336.147 428.160 326.996 444.644 C 324.777 448.642 319.621 456.608 321.078 466.729 C 322.728 478.185 330.508 482.209 332.829 493.548 Z"/>
<path fill="none" stroke="#000000" stroke-width="1" stroke-linejoin="round" d="M 347.031 440.544 C 342.692 456.740 338.352 472.935 334.012 489.131 M 321.078 466.729 C 322.728 478.185 330.508 482.209 332.829 493.548 C 340.508 484.888 349.258 485.294 356.414 476.197 C 362.737 468.161 362.255 458.684 362.332 454.112 C 362.649 435.261 336.147 428.160 326.996 444.644 C 324.777 448.642 319.621 456.608 321.078 466.729 "/>
<path fill="#ffffff" fill-rule="evenodd" stroke="none" d="M 387.171 493.548 C 389.492 482.209 397.272 478.185 398.922 466.729 C 400.379 456.608 395.223 448.642 393.004 444.644 C 383.853 428.160 357.351 435.261 357.668 454.112 C 357.745 458.684 357.263 468.161 363.586 476.197 C 370.742 485.294 379.492 484.888 387.171 493.548 Z"/>
<path fill="none" stroke="#000000" stroke-width="1" stroke-linejoin="round" d="M 372.969 440.544 C 377.308 456.740 381.648 472.935 385.988 489.131 M 363.586 476.197 C 370.742 485.294 379.492 484.888 387.171 493.548 C 389.492 482.209 397.272 478.185 398.922 466.729 C 400.379 456.608 395.223 448.642 393.004 444.644 C 383.853 428.160 357.351 435.261 357.668 454.112 C 357.745 458.684 357.263 468.161 363.586 476.197 "/>
<path fill="#ffffff" fill-rule="evenodd" stroke="none" d="M 360.000 459.774 C 365.176 449.422 373.733 447.548 378.291 436.910 C 382.318 427.511 379.400 418.482 378.291 414.046 C 373.718 395.755 346.281 395.755 341.709 414.046 C 340.600 418.482 337.682 427.511 341.709 436.910 C 346.267 447.548 354.824 449.422 360.000 459.774 Z"/>
<path fill="none" stroke="#000000" stroke-width="1" stroke-linejoin="round" d="M 360.000 402.194 C 360.000 419.863 360.000 437.532 360.000 455.201 M 341.709 436.910 C 346.267 447.548 354.824 449.422 360.000 459.774 C 365.176 449.422 373.733 447.548 378.291 436.910 C 382.318 427.511 379.400 418.482 378.291 414.046 C 373.718 395.755 346.281 395.755 341.709 414.046 C 340.600 418.482 337.682 427.511 341.709 436.910 "/>
<path fill="#ffffff" fill-rule="evenodd" stroke="none" d="M 403.060 458.839 C 405.380 447.500 413.161 443.476 414.811 432.020 C 416.268 421.899 411.112 413.933 408.893 409.935 C 399.742 393.451 373.240 400.552 373.557 419.403 C 373.634 423.975 373.152 433.452 379.474 441.488 C 386.631 450.585 395.381 450.179 403.060 458.839 Z"/>
<path fill="none" stroke="#000000" stroke-width="1" stroke-linejoin="round" d="M 388.649 405.835 C 392.988 422.031 397.328 438.226 401.667 454.422 M 379.474 441.488 C 386.631 450.585 395.381 450.179 403.060 458.839 C 405.380 447.500 413.161 443.476 414.811 432.020 C 416.268 421.899 411.112 413.933 408.893 409.935 C 399.742 393.451 373.240 400.552 373.557 419.403 C 373.634 423.975 373.152 433.452 379.474 441.488 "/>
<path fill="#ffffff" fill-rule="evenodd" stroke="none" d="M 316.940 458.839 C 324.619 450.179 333.369 450.585 340.526 441.488 C 346.848 433.452 346.366 423.975 346.443 419.403 C 346.760 400.552 320.258 393.451 311.107 409.935 C 308.888 413.933 303.732 421.899 305.190 432.020 C 306.839 443.476 314.620 447.500 316.940 458.839 Z"/>
<path fill="none" stroke="#000000" stroke-width="1" stroke-linejoin="round" d="M 331.142 405.835 C 326.803 422.031 322.463 438.226 318.124 454.422 M 305.190 432.020 C 306.839 443.476 314.620 447.500 316.940 458.839 C 324.619 450.179 333.369 450.585 340.526 441.488 C 346.848 433.452 346.366 423.975 346.443 419.403 C 346.760 400.552 320.258 393.451 311.107 409.935 C 308.888 413.933 303.732 421.899 305.190 432.020 "/>
<path fill="#ffffff" fill-rule="evenodd" stroke="none" d="M 332.829 422.931 C 340.508 414.271 349.258 414.677 356.414 405.580 C 362.737 397.544 362.255 388.067 362.332 383.495 C 362.649 364.644 336.147 357.543 326.996 374.027 C 324.777 378.025 319.621 385.991 321.078 396.112 C 322.728 407.568 330.508 411.592 332.829 422.931 Z"/>
<path fill="none" stroke="#000000" stroke-width="1" stroke-linejoin="round" d="M 347.031 369.927 C 342.692 386.123 338.352 402.319 334.012 418.514 M 321.078 396.112 C 322.728 407.568 330.508 411.592 332.829 422.931 C 340.508 414.271 349.258 414.677 356.414 405.580 C 362.737 397.544 362.255 388.067 362.332 383.495 C 362.649 364.644 336.147 357.543 326.996 374.027 C 324.777 378.025 319.621 385.991 321.078 396.112 "/>
<path fill="#ffffff" fill-rule="evenodd" stroke="none" d="M 387.171 422.931 C 389.492 411.592 397.272 407.568 398.922 396.112 C 400.379 385.991 395.223 378.025 393.004 374.027 C 383.853 357.543 357.351 364.644 357.668 383.495 C 357.745 388.067 357.263 397.544 363.586 405.580 C 370.742 414.677 379.492 414.271 387.171 422.931 Z"/>
<path fill="none" stroke="#000000" stroke-width="1" stroke-linejoin="round" d="M 372.969 369.927 C 377.308 386.123 381.648 402.319 385.988 418.514 M 363.586 405.580 C 370.742 414.677 379.492 414.271 387.171 422.931 C 389.492 411.592 397.272 407.568 398.922 396.112 C 400.379 385.991 395.223 378.025 393.004 374.027 C 383.853 357.543 357.351 364.644 357.668 383.495 C 357.745 388.067 357.263 397.544 363.586 405.580 "/>
<path fill="#ffffff" fill-rule="evenodd" stroke="#000000" stroke-width="1" stroke-linejoin="round" d="M 360.000 342.004 C 373.862 342.004 385.044 353.186 385.044 367.048 C 385.044 380.910 373.862 392.092 360.000 392.092 C 346.138 392.092 334.956 380.910 334.956 367.048 C 334.956 353.186 346.138 342.004 360.000 342.004 Z"/>
</g>
</g>
<g id="wing_eagle_2">
<path fill="#ffffff" fill-rule="evenodd" stroke="#000000" stroke-width="2" stroke-linejoin="round" d="M 453.308 228.316 C 463.923 219.334 513.040 211.791 530.760 197.245 C 558.164 174.751 563.808 140.921 557.306 119.238 C 550.715 97.264 524.041 100.111 524.037 100.109 C 524.042 100.108 536.162 77.794 575.603 84.307 C 596.798 87.807 612.742 104.813 612.746 104.815 C 612.748 104.817 623.546 121.712 626.130 128.801 C 640.941 169.428 630.864 218.203 647.961 269.777 C 665.218 321.831 715.324 397.015 715.330 397.028 C 715.325 397.026 674.533 409.446 629.490 322.936 C 614.776 294.675 604.334 243.612 604.331 243.604 C 604.333 243.612 611.295 295.527 621.242 326.126 C 634.425 366.679 666.254 428.623 666.259 428.633 C 666.255 428.631 618.514 434.801 583.331 327.858 C 573.961 299.377 569.263 250.413 569.261 250.405 C 569.262 250.413 570.869 302.043 578.302 332.678 C 587.878 372.144 617.185 431.950 617.189 431.960 C 617.181 431.951 562.409 419.084 543.998 342.136 C 538.659 319.818 536.615 282.347 536.615 282.341 C 536.615 282.346 535.490 314.939 537.065 334.893 C 539.619 367.259 546.492 409.496 546.493 409.504 C 546.489 409.496 513.092 398.428 505.326 333.819 C 503.067 315.030 501.444 284.289 501.444 284.284 C 501.443 284.288 498.336 309.230 498.981 324.600 C 500.155 352.584 501.581 390.368 501.581 390.375 C 501.578 390.367 470.944 375.192 468.175 312.645 C 467.570 298.977 467.379 276.737 467.379 276.733 C 467.379 276.736 465.018 290.179 465.088 303.252 C 465.212 326.202 462.491 348.785 462.491 348.789 C 462.489 348.783 434.479 336.143 437.540 283.916 C 439.302 253.856 445.369 235.034 453.308 228.316 Z"/>
<path fill="none" stroke="#ffffff" stroke-width="1" stroke-linecap="butt" stroke-linejoin="round" d="M 453.308 228.316 C 463.923 219.334 513.040 211.791 530.760 197.245 "/>
<path fill="none" stroke="#ffffff" stroke-width="1" stroke-linecap="butt" stroke-linejoin="round" d="M 530.760 197.245 C 558.164 174.751 563.808 140.921 557.306 119.238 "/>
<path fill="none" stroke="#ffffff" stroke-width="1" stroke-linecap="butt" stroke-linejoin="round" d="M 557.306 119.238 C 550.715 97.264 524.041 100.111 524.037 100.109 "/>
<path fill="none" stroke="#ffffff" stroke-width="1" stroke-linecap="butt" stroke-linejoin="round" d="M 524.037 100.109 C 524.042 100.108 536.162 77.794 575.603 84.307 "/>
<path fill="none" stroke="#ffffff" stroke-width="1" stroke-linecap="butt" stroke-linejoin="round" d="M 575.603 84.307 C 596.798 87.807 612.742 104.813 612.746 104.815 "/>
<path fill="#ffffff" fill-rule="evenodd" stroke="#000000" stroke-width="2" stroke-linejoin="round" d="M 474.225 292.230 C 474.223 292.224 428.974 284.054 453.308 228.316 C 463.923 219.334 513.040 211.791 530.760 197.245 C 558.164 174.751 563.808 140.921 557.306 119.238 C 550.715 97.264 524.041 100.111 524.037 100.109 C 524.042 100.108 536.162 77.794 575.603 84.307 C 596.798 87.807 612.742 104.813 612.746 104.815 C 649.544 144.030 632.521 203.993 665.120 263.699 C 644.156 263.504 629.517 262.471 617.221 221.919 C 612.530 206.449 610.923 180.168 610.922 180.164 C 610.922 180.168 611.036 206.647 611.785 222.991 C 612.712 243.214 625.456 259.567 631.375 277.179 C 600.298 271.238 592.923 264.228 584.108 244.792 C 578.662 232.783 580.011 210.417 580.010 210.414 C 580.010 210.417 580.915 226.815 580.570 238.772 C 579.780 266.092 591.202 290.430 591.203 290.436 C 591.199 290.432 560.110 292.587 552.514 255.386 C 550.434 245.199 552.491 228.090 552.491 228.088 C 552.490 228.090 549.197 242.343 548.445 251.278 C 546.100 279.138 551.234 301.335 551.234 301.340 C 551.230 301.336 525.782 294.487 517.414 263.989 C 514.774 254.367 513.621 238.072 513.621 238.069 C 513.621 238.072 515.115 252.879 512.967 262.195 C 509.205 278.509 510.438 301.457 510.438 301.461 C 510.435 301.456 479.912 294.360 481.707 254.295 C 481.889 250.225 480.942 243.627 480.942 243.626 C 480.942 243.628 479.590 251.922 477.923 258.164 C 473.476 274.822 474.225 292.227 474.225 292.230 Z"/>
<path fill="#ffffff" fill-rule="evenodd" stroke="#000000" stroke-width="2" stroke-linejoin="round" d="M 493.460 264.443 C 493.456 264.439 451.694 272.181 453.160 228.006 C 463.775 219.024 512.892 211.481 530.612 196.935 C 558.016 174.441 563.660 140.611 557.158 118.929 C 550.568 96.955 523.893 99.801 523.890 99.800 C 523.895 99.798 533.877 77.830 573.378 79.842 C 592.512 80.817 596.348 83.842 608.810 93.126 C 638.846 118.901 624.486 133.956 656.266 146.336 C 641.195 157.012 616.483 164.831 603.245 128.330 C 591.405 95.686 563.871 98.087 563.867 98.084 C 563.871 98.087 587.960 97.656 601.441 127.547 C 612.688 152.483 607.311 157.361 633.904 183.887 C 606.780 187.792 582.999 185.064 583.603 162.672 C 584.281 137.580 574.889 128.939 574.889 128.936 C 574.889 128.940 584.324 138.667 582.392 165.104 C 581.716 174.364 594.610 182.166 594.523 184.526 C 593.516 211.759 605.646 223.004 605.647 223.008 C 605.643 223.007 560.604 242.850 563.847 211.481 C 565.521 195.295 561.210 184.978 561.210 184.975 C 561.210 184.979 566.860 196.785 561.740 219.772 C 557.586 238.426 570.775 249.076 570.776 249.079 C 570.772 249.077 530.215 252.746 531.540 234.948 C 532.743 218.785 531.534 213.428 531.534 213.426 C 531.533 213.428 534.950 227.639 529.007 236.222 C 522.285 245.929 529.497 260.581 529.497 260.584 C 529.494 260.582 493.096 269.468 495.050 240.622 C 495.544 233.328 494.352 227.665 494.352 227.664 C 494.351 227.665 497.681 235.172 492.203 244.088 C 484.642 256.397 493.460 264.441 493.460 264.443 Z"/>
</g>
<g id="wing_eagle_3">
<path fill="#ffffff" fill-rule="evenodd" stroke="#000000" stroke-width="2" stroke-linejoin="round" d="M 267.366 228.316 C 256.751 219.334 207.634 211.791 189.914 197.245 C 162.510 174.751 156.866 140.921 163.369 119.238 C 169.959 97.264 196.634 100.111 196.637 100.109 C 196.632 100.108 184.513 77.794 145.071 84.307 C 123.876 87.807 107.932 104.813 107.928 104.815 C 107.927 104.817 97.129 121.712 94.544 128.801 C 79.733 169.428 89.810 218.203 72.713 269.777 C 55.456 321.831 5.350 397.015 5.344 397.028 C 5.349 397.026 46.141 409.446 91.184 322.936 C 105.898 294.675 116.341 243.612 116.343 243.604 C 116.341 243.612 109.379 295.527 99.432 326.126 C 86.250 366.679 54.421 428.623 54.415 428.633 C 54.419 428.631 102.160 434.801 137.343 327.858 C 146.713 299.377 151.411 250.413 151.413 250.405 C 151.412 250.413 149.806 302.043 142.372 332.678 C 132.796 372.144 103.490 431.950 103.486 431.960 C 103.493 431.951 158.265 419.084 176.676 342.136 C 182.016 319.818 184.059 282.347 184.060 282.341 C 184.060 282.346 185.184 314.939 183.609 334.893 C 181.055 367.259 174.182 409.496 174.181 409.504 C 174.185 409.496 207.582 398.428 215.349 333.819 C 217.607 315.030 219.230 284.289 219.231 284.284 C 219.231 284.288 222.338 309.230 221.693 324.600 C 220.520 352.584 219.093 390.368 219.093 390.375 C 219.096 390.367 249.730 375.192 252.499 312.645 C 253.104 298.977 253.295 276.737 253.295 276.733 C 253.295 276.736 255.657 290.179 255.586 303.252 C 255.462 326.202 258.183 348.785 258.183 348.789 C 258.186 348.783 286.195 336.143 283.134 283.916 C 281.372 253.856 275.305 235.034 267.366 228.316 Z"/>
<path fill="none" stroke="#ffffff" stroke-width="1" stroke-linecap="butt" stroke-linejoin="round" d="M 267.366 228.316 C 256.751 219.334 207.634 211.791 189.914 197.245 "/>
<path fill="none" stroke="#ffffff" stroke-width="1" stroke-linecap="butt" stroke-linejoin="round" d="M 189.914 197.245 C 162.510 174.751 156.866 140.921 163.369 119.238 "/>
<path fill="none" stroke="#ffffff" stroke-width="1" stroke-linecap="butt" stroke-linejoin="round" d="M 163.369 119.238 C 169.959 97.264 196.634 100.111 196.637 100.109 "/>
<path fill="none" stroke="#ffffff" stroke-width="1" stroke-linecap="butt" stroke-linejoin="round" d="M 196.637 100.109 C 196.632 100.108 184.513 77.794 145.071 84.307 "/>
<path fill="none" stroke="#ffffff" stroke-width="1" stroke-linecap="butt" stroke-linejoin="round" d="M 145.071 84.307 C 123.876 87.807 107.932 104.813 107.928 104.815 "/>
<path fill="#ffffff" fill-rule="evenodd" stroke="#000000" stroke-width="2" stroke-linejoin="round" d="M 246.449 292.230 C 246.452 292.224 291.700 284.054 267.366 228.316 C 256.751 219.334 207.634 211.791 189.914 197.245 C 162.510 174.751 156.866 140.921 163.369 119.238 C 169.959 97.264 196.634 100.111 196.637 100.109 C 196.632 100.108 184.513 77.794 145.071 84.307 C 123.876 87.807 107.932 104.813 107.928 104.815 C 71.131 144.030 88.153 203.993 55.555 263.699 C 76.519 263.504 91.157 262.471 103.454 221.919 C 108.145 206.449 109.752 180.168 109.752 180.164 C 109.752 180.168 109.639 206.647 108.889 222.991 C 107.962 243.214 95.218 259.567 89.300 277.179 C 120.376 271.238 127.751 264.228 136.566 244.792 C 142.012 232.783 140.664 210.417 140.664 210.414 C 140.664 210.417 139.759 226.815 140.104 238.772 C 140.894 266.092 129.472 290.430 129.471 290.436 C 129.475 290.432 160.564 292.587 168.160 255.386 C 170.241 245.199 168.184 228.090 168.184 228.088 C 168.184 228.090 171.477 242.343 172.229 251.278 C 174.574 279.138 169.441 301.335 169.440 301.340 C 169.444 301.336 194.892 294.487 203.260 263.989 C 205.900 254.367 207.053 238.072 207.053 238.069 C 207.053 238.072 205.560 252.879 207.708 262.195 C 211.469 278.509 210.236 301.457 210.236 301.461 C 210.239 301.456 240.762 294.360 238.967 254.295 C 238.785 250.225 239.732 243.627 239.732 243.626 C 239.732 243.628 241.084 251.922 242.751 258.164 C 247.198 274.822 246.449 292.227 246.449 292.230 Z"/>
<path fill="#ffffff" fill-rule="evenodd" stroke="#000000" stroke-width="2" stroke-linejoin="round" d="M 227.214 264.443 C 227.218 264.439 268.980 272.181 267.514 228.006 C 256.899 219.024 207.782 211.481 190.062 196.935 C 162.658 174.441 157.014 140.611 163.517 118.929 C 170.107 96.955 196.781 99.801 196.785 99.800 C 196.780 99.798 186.797 77.830 147.296 79.842 C 128.162 80.817 124.326 83.842 111.864 93.126 C 81.828 118.901 96.188 133.956 64.409 146.336 C 79.479 157.012 104.192 164.831 117.430 128.330 C 129.269 95.686 156.803 98.087 156.807 98.084 C 156.804 98.087 132.715 97.656 119.233 127.547 C 107.986 152.483 113.363 157.361 86.770 183.887 C 113.894 187.792 137.676 185.064 137.071 162.672 C 136.393 137.580 145.785 128.939 145.786 128.936 C 145.785 128.940 136.350 138.667 138.282 165.104 C 138.959 174.364 126.064 182.166 126.151 184.526 C 127.158 211.759 115.028 223.004 115.027 223.008 C 115.031 223.007 160.070 242.850 156.827 211.481 C 155.153 195.295 159.464 184.978 159.464 184.975 C 159.464 184.979 153.814 196.785 158.934 219.772 C 163.089 238.426 149.899 249.076 149.898 249.079 C 149.902 249.077 190.459 252.746 189.134 234.948 C 187.931 218.785 189.141 213.428 189.141 213.426 C 189.141 213.428 185.724 227.639 191.667 236.222 C 198.389 245.929 191.177 260.581 191.177 260.584 C 191.180 260.582 227.578 269.468 225.624 240.622 C 225.130 233.328 226.323 227.665 226.323 227.664 C 226.323 227.665 222.994 235.172 228.471 244.088 C 236.032 256.397 227.214 264.441 227.214 264.443 Z"/>
</g>
<g id="leg_eagle">
<g id="leg_eagle">
<path fill="#ffffff" fill-rule="evenodd" stroke="#000000" stroke-width="3" stroke-linejoin="round" d="M 168.028 520.166 C 168.028 520.166 162.314 513.922 162.314 513.921 C 162.312 513.923 150.726 530.262 150.724 530.263 C 150.726 530.262 168.026 520.167 168.028 520.166 M 200.656 531.435 C 200.810 531.303 206.129 530.434 206.131 530.818 C 206.216 544.781 198.751 548.553 198.750 548.554 C 198.750 548.553 201.978 539.012 200.656 531.435 M 153.976 480.424 C 154.121 480.282 155.458 475.061 155.076 475.025 C 141.174 473.705 136.757 480.807 136.755 480.807 C 136.757 480.807 146.546 478.437 153.976 480.424 Z"/>
<path fill="#ffffff" fill-rule="evenodd" stroke="#000000" stroke-width="3" stroke-linejoin="round" d="M 221.111 453.772 C 221.110 453.774 213.359 461.841 207.857 467.567 C 204.519 471.041 201.182 474.514 198.345 477.466 C 195.810 480.106 190.505 485.626 190.504 485.627 C 190.504 485.627 187.423 483.137 185.021 481.575 C 181.572 479.026 177.272 476.439 173.572 475.616 C 173.097 475.510 172.629 475.404 172.215 475.309 C 167.512 474.234 163.600 473.217 160.368 472.743 C 156.165 472.127 152.980 472.343 150.463 474.304 C 149.845 474.785 149.680 479.242 150.194 480.371 C 152.036 484.414 156.368 481.886 169.354 487.330 C 173.711 489.157 180.597 493.886 180.598 493.886 C 180.597 493.887 176.744 498.086 173.527 501.031 C 170.328 504.235 166.371 507.632 162.714 509.713 C 158.788 511.946 160.256 519.217 161.154 520.256 C 162.089 521.339 169.482 523.940 172.255 520.140 C 172.971 519.159 173.792 518.159 174.643 517.256 C 176.824 514.777 179.438 512.288 181.902 510.178 C 185.178 507.201 189.602 503.727 189.603 503.726 C 189.603 503.727 193.703 511.005 195.138 515.507 C 196.291 519.129 196.922 522.072 197.309 524.508 C 198.338 530.995 197.553 533.607 200.374 535.207 C 201.453 535.820 205.907 536.049 206.441 535.476 C 208.657 533.098 209.132 529.870 208.859 525.535 C 208.651 522.223 207.972 518.200 207.327 513.446 C 207.276 513.072 207.228 512.709 207.180 512.341 C 206.671 508.456 204.340 503.764 202.066 500.073 C 200.776 497.675 198.706 494.590 198.706 494.590 C 198.707 494.589 204.086 490.267 207.528 487.502 C 210.965 484.741 214.732 481.714 218.226 478.907 C 226.225 472.481 233.143 466.923 233.145 466.922 C 233.145 466.922 221.113 453.774 221.111 453.772 Z"/>
<path fill="none" stroke="#000000" stroke-width="3" stroke-linejoin="round" d="M 180.598 493.886 C 182.441 494.634 184.666 495.823 186.222 497.547 C 187.863 499.366 188.906 501.857 189.603 503.726 C 189.914 503.644 193.001 502.152 195.963 501.339 C 198.607 500.173 200.326 500.268 202.066 500.073 C 200.776 497.675 198.706 494.590 198.706 494.590 C 197.747 492.815 197.540 491.171 195.831 489.267 C 194.007 487.237 190.505 485.628 190.504 485.627 C 190.504 485.627 187.423 483.137 185.021 481.575 C 184.692 483.290 184.095 485.539 183.260 487.457 C 182.111 490.096 179.905 492.865 179.904 492.866 M 207.857 467.567 C 209.135 468.434 212.142 470.560 213.747 472.297 C 215.435 474.124 217.407 477.457 218.226 478.907 C 226.225 472.481 233.143 466.923 233.145 466.922 C 233.145 466.922 221.113 453.774 221.111 453.772 C 221.110 453.774 213.359 461.841 207.857 467.567 C 204.519 471.041 201.182 474.514 198.345 477.466 C 199.760 478.403 202.018 480.017 203.665 481.817 C 205.313 483.618 206.721 486.010 207.528 487.502 C 210.965 484.741 214.732 481.714 218.226 478.907 M 169.354 487.330 C 169.354 487.330 171.435 483.762 172.029 480.497 C 172.573 478.841 172.297 476.868 172.215 475.309 C 167.512 474.234 163.600 473.217 160.368 472.743 C 160.700 474.217 160.994 476.005 161.045 477.669 C 161.141 480.745 160.206 484.422 160.206 484.423 M 195.138 515.507 C 195.138 515.506 198.684 513.520 201.902 513.141 C 203.710 512.929 205.709 513.212 207.327 513.446 C 207.276 513.072 207.228 512.709 207.180 512.341 C 206.671 508.456 204.340 503.764 202.066 500.073 M 197.309 524.508 C 198.995 524.294 201.514 524.083 203.746 524.332 C 205.479 524.525 207.318 525.026 208.859 525.535 C 208.651 522.223 207.972 518.200 207.327 513.446 M 173.527 501.031 C 175.106 501.866 177.347 502.956 178.814 504.558 C 180.308 506.189 181.209 508.566 181.902 510.178 C 185.178 507.201 189.602 503.727 189.603 503.726 C 189.603 503.727 193.703 511.005 195.138 515.507 C 196.291 519.129 196.922 522.072 197.309 524.508 C 198.338 530.995 197.553 533.607 200.374 535.207 C 201.453 535.820 205.907 536.049 206.441 535.476 C 208.657 533.098 209.132 529.870 208.859 525.535 M 165.837 507.825 C 165.837 507.826 168.903 509.683 170.902 511.799 C 173.101 514.126 173.823 515.765 174.643 517.256 C 176.824 514.777 179.438 512.288 181.902 510.178 M 198.706 494.590 C 198.707 494.589 204.086 490.267 207.528 487.502 M 172.255 520.140 C 172.971 519.159 173.792 518.159 174.643 517.256 M 161.154 520.256 C 162.089 521.339 169.482 523.940 172.255 520.140 M 162.714 509.713 C 158.788 511.946 160.256 519.217 161.154 520.256 M 173.527 501.031 C 170.328 504.235 166.371 507.632 162.714 509.713 M 180.598 493.886 C 180.597 493.887 176.744 498.086 173.527 501.031 M 169.354 487.330 C 173.711 489.157 180.597 493.886 180.598 493.886 M 150.194 480.371 C 152.036 484.414 156.368 481.886 169.354 487.330 M 150.463 474.304 C 149.845 474.785 149.680 479.242 150.194 480.371 M 160.368 472.743 C 156.165 472.127 152.980 472.343 150.463 474.304 M 173.572 475.616 C 173.097 475.510 172.629 475.404 172.215 475.309 M 185.021 481.575 C 181.572 479.026 177.272 476.439 173.572 475.616 M 198.345 477.466 C 195.810 480.106 190.505 485.626 190.504 485.627 "/>
<path fill="#ffffff" fill-rule="evenodd" stroke="none" d="M 216.977 469.637 C 228.194 466.442 235.407 471.529 246.417 467.680 C 256.143 464.280 260.870 455.969 263.413 452.127 C 273.900 436.284 255.235 415.888 238.527 424.932 C 234.475 427.125 225.778 431.098 221.531 440.485 C 216.723 451.111 221.151 458.746 216.977 469.637 Z"/>
<path fill="none" stroke="#000000" stroke-width="3" stroke-linejoin="round" d="M 257.769 432.308 C 245.305 443.714 232.840 455.120 220.376 466.526 M 221.531 440.485 C 216.723 451.111 221.151 458.746 216.977 469.637 C 228.194 466.442 235.407 471.529 246.417 467.680 C 256.143 464.280 260.870 455.969 263.413 452.127 C 273.900 436.284 255.235 415.888 238.527 424.932 C 234.475 427.125 225.778 431.098 221.531 440.485 "/>
<path fill="#ffffff" fill-rule="evenodd" stroke="none" d="M 212.179 436.914 C 223.840 436.731 229.491 443.512 241.122 442.644 C 251.397 441.877 258.114 435.072 261.565 432.019 C 275.795 419.431 263.045 394.899 244.566 399.310 C 240.084 400.380 230.655 401.966 224.123 409.934 C 216.728 418.954 219.030 427.475 212.179 436.914 Z"/>
<path fill="none" stroke="#000000" stroke-width="3" stroke-linejoin="round" d="M 261.243 411.415 C 246.251 419.206 231.259 426.997 216.268 434.789 M 224.123 409.934 C 216.728 418.954 219.030 427.475 212.179 436.914 C 223.840 436.731 229.491 443.512 241.122 442.644 C 251.397 441.877 258.114 435.072 261.565 432.019 C 275.795 419.431 263.045 394.899 244.566 399.310 C 240.084 400.380 230.655 401.966 224.123 409.934 "/>
<path fill="#ffffff" fill-rule="evenodd" stroke="none" d="M 249.146 477.312 C 259.154 471.323 267.439 474.369 277.077 467.802 C 285.592 462.001 288.007 452.749 289.469 448.380 C 295.498 430.363 272.190 415.493 258.393 428.552 C 255.046 431.720 247.674 437.808 246.000 447.975 C 244.106 459.483 250.360 465.712 249.146 477.312 Z"/>
<path fill="none" stroke="#000000" stroke-width="3" stroke-linejoin="round" d="M 278.888 430.697 C 269.800 444.940 260.712 459.184 251.625 473.427 M 246.000 447.975 C 244.106 459.483 250.360 465.712 249.146 477.312 C 259.154 471.323 267.439 474.369 277.077 467.802 C 285.592 462.001 288.007 452.749 289.469 448.380 C 295.498 430.363 272.190 415.493 258.393 428.552 C 255.046 431.720 247.674 437.808 246.000 447.975 "/>
<path fill="#ffffff" fill-rule="evenodd" stroke="none" d="M 255.770 434.137 C 266.987 430.943 274.201 436.030 285.210 432.181 C 294.937 428.781 299.664 420.469 302.207 416.627 C 312.694 400.785 294.029 380.389 277.321 389.432 C 273.269 391.625 264.572 395.598 260.324 404.986 C 255.516 415.611 259.945 423.247 255.770 434.137 Z"/>
<path fill="none" stroke="#000000" stroke-width="3" stroke-linejoin="round" d="M 296.563 396.808 C 284.099 408.214 271.634 419.620 259.170 431.026 M 260.324 404.986 C 255.516 415.611 259.945 423.247 255.770 434.137 C 266.987 430.943 274.201 436.030 285.210 432.181 C 294.937 428.781 299.664 420.469 302.207 416.627 C 312.694 400.785 294.029 380.389 277.321 389.432 C 273.269 391.625 264.572 395.598 260.324 404.986 "/>
<path fill="#ffffff" fill-rule="evenodd" stroke="none" d="M 285.758 465.512 C 295.766 459.523 304.050 462.569 313.688 456.002 C 322.203 450.201 324.618 440.949 326.080 436.580 C 332.109 418.563 308.802 403.693 295.004 416.752 C 291.657 419.920 284.285 426.008 282.612 436.175 C 280.718 447.683 286.972 453.912 285.758 465.512 Z"/>
<path fill="none" stroke="#000000" stroke-width="3" stroke-linejoin="round" d="M 315.357 418.741 C 306.269 432.985 297.182 447.228 288.094 461.472 M 282.612 436.175 C 280.718 447.683 286.972 453.912 285.758 465.512 C 295.766 459.523 304.050 462.569 313.688 456.002 C 322.203 450.201 324.618 440.949 326.080 436.580 C 332.109 418.563 308.802 403.693 295.004 416.752 C 291.657 419.920 284.285 426.008 282.612 436.175 "/>
<path fill="#ffffff" fill-rule="evenodd" stroke="none" d="M 227.173 401.490 C 238.834 401.308 244.485 408.089 256.116 407.220 C 266.391 406.454 273.108 399.649 276.559 396.596 C 290.789 384.008 278.039 359.476 259.560 363.887 C 255.078 364.956 245.649 366.543 239.116 374.511 C 231.722 383.530 234.024 392.052 227.173 401.490 Z"/>
<path fill="none" stroke="#000000" stroke-width="3" stroke-linejoin="round" d="M 276.237 375.991 C 261.245 383.783 246.253 391.574 231.261 399.365 M 239.116 374.511 C 231.722 383.530 234.024 392.052 227.173 401.490 C 238.834 401.308 244.485 408.089 256.116 407.220 C 266.391 406.454 273.108 399.649 276.559 396.596 C 290.789 384.008 278.039 359.476 259.560 363.887 C 255.078 364.956 245.649 366.543 239.116 374.511 "/>
<path fill="#ffffff" fill-rule="evenodd" stroke="none" d="M 261.601 391.688 C 273.263 391.505 278.914 398.286 290.544 397.418 C 300.819 396.651 307.537 389.846 310.988 386.793 C 325.217 374.205 312.467 349.673 293.988 354.084 C 289.507 355.154 280.077 356.740 273.545 364.708 C 266.151 373.728 268.452 382.249 261.601 391.688 Z"/>
<path fill="none" stroke="#000000" stroke-width="3" stroke-linejoin="round" d="M 310.665 366.189 C 295.674 373.980 280.682 381.772 265.690 389.563 M 273.545 364.708 C 266.151 373.728 268.452 382.249 261.601 391.688 C 273.263 391.505 278.914 398.286 290.544 397.418 C 300.819 396.651 307.537 389.846 310.988 386.793 C 325.217 374.205 312.467 349.673 293.988 354.084 C 289.507 355.154 280.077 356.740 273.545 364.708 "/>
<path fill="#ffffff" fill-rule="evenodd" stroke="none" d="M 298.569 432.086 C 308.577 426.097 316.861 429.144 326.499 422.577 C 335.014 416.775 337.429 407.523 338.891 403.154 C 344.921 385.137 321.613 370.267 307.815 383.326 C 304.468 386.494 297.096 392.582 295.423 402.749 C 293.529 414.257 299.783 420.486 298.569 432.086 Z"/>
<path fill="none" stroke="#000000" stroke-width="3" stroke-linejoin="round" d="M 328.310 385.471 C 319.222 399.714 310.135 413.958 301.047 428.201 M 295.423 402.749 C 293.529 414.257 299.783 420.486 298.569 432.086 C 308.577 426.097 316.861 429.144 326.499 422.577 C 335.014 416.775 337.429 407.523 338.891 403.154 C 344.921 385.137 321.613 370.267 307.815 383.326 C 304.468 386.494 297.096 392.582 295.423 402.749 "/>
<path fill="#ffffff" fill-rule="evenodd" stroke="none" d="M 287.163 405.410 C 298.380 402.215 305.594 407.302 316.603 403.453 C 326.329 400.053 331.057 391.742 333.600 387.900 C 344.087 372.057 325.422 351.661 308.714 360.705 C 304.662 362.898 295.965 366.871 291.717 376.258 C 286.909 386.884 291.338 394.519 287.163 405.410 Z"/>
<path fill="none" stroke="#000000" stroke-width="3" stroke-linejoin="round" d="M 327.956 368.081 C 315.491 379.487 303.027 390.893 290.563 402.299 M 291.717 376.258 C 286.909 386.884 291.338 394.519 287.163 405.410 C 298.380 402.215 305.594 407.302 316.603 403.453 C 326.329 400.053 331.057 391.742 333.600 387.900 C 344.087 372.057 325.422 351.661 308.714 360.705 C 304.662 362.898 295.965 366.871 291.717 376.258 "/>
</g>
</g>
<g id="leg_eagle_2">
<g id="leg_eagle">
<path fill="#ffffff" fill-rule="evenodd" stroke="#000000" stroke-width="3" stroke-linejoin="round" d="M 549.397 517.872 C 549.397 517.872 555.382 511.887 555.382 511.886 C 555.383 511.888 566.235 528.724 566.236 528.726 C 566.235 528.724 549.399 517.873 549.397 517.872 M 516.302 527.685 C 516.153 527.546 510.879 526.442 510.859 526.825 C 510.157 540.772 517.447 544.870 517.448 544.872 C 517.448 544.870 514.646 535.195 516.302 527.685 M 565.195 478.791 C 565.057 478.643 563.953 473.368 564.336 473.349 C 578.282 472.646 582.380 479.936 582.382 479.937 C 582.381 479.937 572.706 477.135 565.195 478.791 Z"/>
<path fill="#ffffff" fill-rule="evenodd" stroke="#000000" stroke-width="3" stroke-linejoin="round" d="M 499.306 449.192 C 499.308 449.193 506.694 457.596 511.937 463.560 C 515.117 467.178 518.298 470.796 521.001 473.871 C 523.417 476.620 528.472 482.371 528.472 482.371 C 528.473 482.371 531.661 480.020 534.130 478.566 C 537.688 476.172 542.099 473.778 545.831 473.120 C 546.311 473.035 546.783 472.950 547.201 472.874 C 551.947 472.008 555.900 471.165 559.150 470.835 C 563.376 470.406 566.548 470.763 568.977 472.833 C 569.572 473.341 569.540 477.801 568.976 478.906 C 566.957 482.864 562.742 480.146 549.527 485.010 C 545.093 486.642 538.004 491.060 538.003 491.061 C 538.004 491.062 541.667 495.428 544.751 498.513 C 547.805 501.854 551.607 505.423 555.169 507.664 C 558.992 510.069 557.204 517.268 556.261 518.267 C 555.279 519.307 547.777 521.578 545.175 517.658 C 544.503 516.647 543.728 515.612 542.918 514.672 C 540.849 512.099 538.347 509.496 535.979 507.280 C 532.838 504.160 528.573 500.493 528.572 500.493 C 528.571 500.494 524.152 507.582 522.520 512.016 C 521.207 515.584 520.447 518.496 519.953 520.913 C 518.637 527.347 519.306 529.992 516.416 531.466 C 515.312 532.029 510.851 532.061 510.344 531.466 C 508.234 528.991 507.904 525.745 508.368 521.427 C 508.723 518.128 509.579 514.139 510.434 509.418 C 510.501 509.046 510.566 508.686 510.630 508.321 C 511.311 504.462 513.847 499.878 516.282 496.291 C 517.677 493.952 519.882 490.962 519.882 490.962 C 519.881 490.961 514.698 486.405 511.382 483.490 C 508.071 480.580 504.442 477.389 501.076 474.430 C 493.369 467.655 486.705 461.797 486.703 461.796 C 486.703 461.796 499.305 449.193 499.306 449.192 Z"/>
<path fill="none" stroke="#000000" stroke-width="3" stroke-linejoin="round" d="M 538.003 491.061 C 536.129 491.727 533.854 492.816 532.223 494.470 C 530.502 496.214 529.350 498.656 528.572 500.493 C 528.264 500.397 525.247 498.769 522.323 497.826 C 519.733 496.544 518.012 496.563 516.282 496.291 C 517.677 493.952 519.882 490.962 519.882 490.962 C 520.918 489.232 521.198 487.598 522.990 485.772 C 524.902 483.824 528.472 482.372 528.472 482.371 C 528.473 482.371 531.661 480.020 534.130 478.566 C 534.383 480.294 534.879 482.567 535.629 484.520 C 536.660 487.207 538.741 490.072 538.742 490.072 M 511.937 463.560 C 510.622 464.370 507.524 466.360 505.844 468.025 C 504.076 469.775 501.958 473.018 501.076 474.430 C 493.369 467.655 486.705 461.797 486.703 461.796 C 486.703 461.796 499.305 449.193 499.306 449.192 C 499.308 449.193 506.694 457.596 511.937 463.560 C 515.117 467.178 518.298 470.796 521.001 473.871 C 519.546 474.744 517.219 476.257 515.493 477.982 C 513.768 479.708 512.255 482.036 511.382 483.490 C 508.071 480.580 504.442 477.389 501.076 474.430 M 549.527 485.010 C 549.527 485.009 547.605 481.352 547.157 478.065 C 546.687 476.386 547.050 474.428 547.201 472.874 C 551.947 472.008 555.900 471.165 559.150 470.835 C 558.753 472.293 558.380 474.065 558.255 475.726 C 558.023 478.795 558.794 482.510 558.794 482.510 M 522.520 512.016 C 522.520 512.016 519.066 509.874 515.867 509.354 C 514.071 509.061 512.061 509.256 510.434 509.418 C 510.501 509.046 510.566 508.686 510.630 508.321 C 511.311 504.462 513.847 499.878 516.282 496.291 M 519.953 520.913 C 518.278 520.624 515.771 520.302 513.529 520.452 C 511.790 520.568 509.930 520.987 508.368 521.427 C 508.723 518.128 509.579 514.139 510.434 509.418 M 544.751 498.513 C 543.136 499.277 540.850 500.266 539.312 501.802 C 537.748 503.365 536.743 505.700 535.979 507.280 C 532.838 504.160 528.573 500.493 528.572 500.493 C 528.571 500.494 524.152 507.582 522.520 512.016 C 521.207 515.584 520.447 518.496 519.953 520.913 C 518.637 527.347 519.306 529.992 516.416 531.466 C 515.312 532.029 510.851 532.061 510.344 531.466 C 508.234 528.991 507.904 525.745 508.368 521.427 M 552.133 505.640 C 552.132 505.641 548.987 507.360 546.896 509.386 C 544.597 511.613 543.803 513.219 542.918 514.672 C 540.849 512.099 538.347 509.496 535.979 507.280 M 519.882 490.962 C 519.881 490.961 514.698 486.405 511.382 483.490 M 545.175 517.658 C 544.503 516.647 543.728 515.612 542.918 514.672 M 556.261 518.267 C 555.279 519.307 547.777 521.578 545.175 517.658 M 555.169 507.664 C 558.992 510.069 557.204 517.268 556.261 518.267 M 544.751 498.513 C 547.805 501.854 551.607 505.423 555.169 507.664 M 538.003 491.061 C 538.004 491.062 541.667 495.428 544.751 498.513 M 549.527 485.010 C 545.093 486.642 538.004 491.060 538.003 491.061 M 568.976 478.906 C 566.957 482.864 562.742 480.146 549.527 485.010 M 568.977 472.833 C 569.572 473.341 569.540 477.801 568.976 478.906 M 559.150 470.835 C 563.376 470.406 566.548 470.763 568.977 472.833 M 545.831 473.120 C 546.311 473.035 546.783 472.950 547.201 472.874 M 534.130 478.566 C 537.688 476.172 542.099 473.778 545.831 473.120 M 521.001 473.871 C 523.417 476.620 528.472 482.371 528.472 482.371 "/>
<path fill="#ffffff" fill-rule="evenodd" stroke="none" d="M 502.734 465.224 C 491.670 461.536 484.238 466.298 473.410 461.966 C 463.844 458.138 459.490 449.626 457.119 445.674 C 447.344 429.383 466.894 409.834 483.185 419.608 C 487.136 421.979 495.649 426.333 499.476 435.900 C 503.809 446.728 499.046 454.159 502.734 465.224 Z"/>
<path fill="none" stroke="#000000" stroke-width="3" stroke-linejoin="round" d="M 463.635 426.125 C 475.582 438.072 487.529 450.019 499.476 461.966 M 499.476 435.900 C 503.809 446.728 499.046 454.159 502.734 465.224 C 491.670 461.536 484.238 466.298 473.410 461.966 C 463.844 458.138 459.490 449.626 457.119 445.674 C 447.344 429.383 466.894 409.834 483.185 419.608 C 487.136 421.979 495.649 426.333 499.476 435.900 "/>
<path fill="#ffffff" fill-rule="evenodd" stroke="none" d="M 508.977 432.746 C 497.335 432.047 491.389 438.570 479.809 437.188 C 469.578 435.967 463.168 428.871 459.856 425.668 C 446.198 412.462 460.022 388.519 478.287 393.744 C 482.717 395.011 492.067 397.014 498.240 405.264 C 505.228 414.602 502.551 423.013 508.977 432.746 Z"/>
<path fill="none" stroke="#000000" stroke-width="3" stroke-linejoin="round" d="M 461.090 405.098 C 475.722 413.546 490.354 421.994 504.986 430.442 M 498.240 405.264 C 505.228 414.602 502.551 423.013 508.977 432.746 C 497.335 432.047 491.389 438.570 479.809 437.188 C 469.578 435.967 463.168 428.871 459.856 425.668 C 446.198 412.462 460.022 388.519 478.287 393.744 C 482.717 395.011 492.067 397.014 498.240 405.264 "/>
<path fill="#ffffff" fill-rule="evenodd" stroke="none" d="M 470.256 471.466 C 460.523 465.040 452.112 467.717 442.774 460.729 C 434.525 454.556 432.522 445.207 431.255 440.777 C 426.030 422.511 449.973 408.687 463.179 422.345 C 466.382 425.658 473.478 432.067 474.699 442.298 C 476.081 453.879 469.557 459.824 470.256 471.466 Z"/>
<path fill="none" stroke="#000000" stroke-width="3" stroke-linejoin="round" d="M 442.609 423.580 C 451.057 438.212 459.505 452.844 467.952 467.476 M 474.699 442.298 C 476.081 453.879 469.557 459.824 470.256 471.466 C 460.523 465.040 452.112 467.717 442.774 460.729 C 434.525 454.556 432.522 445.207 431.255 440.777 C 426.030 422.511 449.973 408.687 463.179 422.345 C 466.382 425.658 473.478 432.067 474.699 442.298 "/>
<path fill="#ffffff" fill-rule="evenodd" stroke="none" d="M 465.551 428.041 C 454.487 424.353 447.055 429.115 436.227 424.783 C 426.661 420.955 422.306 412.442 419.936 408.491 C 410.161 392.200 429.711 372.651 446.002 382.425 C 449.953 384.796 458.465 389.150 462.293 398.716 C 466.626 409.545 461.863 416.976 465.551 428.041 Z"/>
<path fill="none" stroke="#000000" stroke-width="3" stroke-linejoin="round" d="M 426.452 388.942 C 438.399 400.889 450.346 412.836 462.293 424.783 M 462.293 398.716 C 466.626 409.545 461.863 416.976 465.551 428.041 C 454.487 424.353 447.055 429.115 436.227 424.783 C 426.661 420.955 422.306 412.442 419.936 408.491 C 410.161 392.200 429.711 372.651 446.002 382.425 C 449.953 384.796 458.465 389.150 462.293 398.716 "/>
<path fill="#ffffff" fill-rule="evenodd" stroke="none" d="M 434.204 458.056 C 424.471 451.630 416.060 454.307 406.722 447.319 C 398.472 441.146 396.469 431.797 395.202 427.367 C 389.977 409.101 413.921 395.277 427.126 408.935 C 430.329 412.248 437.425 418.657 438.646 428.888 C 440.028 440.468 433.505 446.414 434.204 458.056 Z"/>
<path fill="none" stroke="#000000" stroke-width="3" stroke-linejoin="round" d="M 406.705 410.021 C 415.153 424.653 423.601 439.285 432.049 453.917 M 438.646 428.888 C 440.028 440.468 433.505 446.414 434.204 458.056 C 424.471 451.630 416.060 454.307 406.722 447.319 C 398.472 441.146 396.469 431.797 395.202 427.367 C 389.977 409.101 413.921 395.277 427.126 408.935 C 430.329 412.248 437.425 418.657 438.646 428.888 "/>
<path fill="#ffffff" fill-rule="evenodd" stroke="none" d="M 495.567 396.693 C 483.925 395.994 477.979 402.518 466.398 401.135 C 456.168 399.914 449.758 392.819 446.446 389.616 C 432.788 376.409 446.612 352.466 464.877 357.691 C 469.307 358.959 478.657 360.962 484.830 369.211 C 491.817 378.549 489.141 386.960 495.567 396.693 Z"/>
<path fill="none" stroke="#000000" stroke-width="3" stroke-linejoin="round" d="M 447.680 369.046 C 462.312 377.493 476.944 385.941 491.576 394.389 M 484.830 369.211 C 491.817 378.549 489.141 386.960 495.567 396.693 C 483.925 395.994 477.979 402.518 466.398 401.135 C 456.168 399.914 449.758 392.819 446.446 389.616 C 432.788 376.409 446.612 352.466 464.877 357.691 C 469.307 358.959 478.657 360.962 484.830 369.211 "/>
<path fill="#ffffff" fill-rule="evenodd" stroke="none" d="M 461.606 385.375 C 449.965 384.676 444.019 391.200 432.438 389.817 C 422.207 388.596 415.798 381.501 412.485 378.298 C 398.827 365.091 412.651 341.148 430.917 346.374 C 435.347 347.641 444.696 349.644 450.869 357.893 C 457.857 367.231 455.180 375.642 461.606 385.375 Z"/>
<path fill="none" stroke="#000000" stroke-width="3" stroke-linejoin="round" d="M 413.720 357.728 C 428.352 366.175 442.984 374.623 457.616 383.071 M 450.869 357.893 C 457.857 367.231 455.180 375.642 461.606 385.375 C 449.965 384.676 444.019 391.200 432.438 389.817 C 422.207 388.596 415.798 381.501 412.485 378.298 C 398.827 365.091 412.651 341.148 430.917 346.374 C 435.347 347.641 444.696 349.644 450.869 357.893 "/>
<path fill="#ffffff" fill-rule="evenodd" stroke="none" d="M 422.886 424.096 C 413.153 417.670 404.742 420.346 395.404 413.359 C 387.154 407.186 385.152 397.836 383.884 393.406 C 378.659 375.140 402.603 361.317 415.808 374.975 C 419.011 378.287 426.107 384.696 427.328 394.927 C 428.710 406.508 422.187 412.454 422.886 424.096 Z"/>
<path fill="none" stroke="#000000" stroke-width="3" stroke-linejoin="round" d="M 395.238 376.209 C 403.686 390.841 412.134 405.473 420.582 420.105 M 427.328 394.927 C 428.710 406.508 422.187 412.454 422.886 424.096 C 413.153 417.670 404.742 420.346 395.404 413.359 C 387.154 407.186 385.152 397.836 383.884 393.406 C 378.659 375.140 402.603 361.317 415.808 374.975 C 419.011 378.287 426.107 384.696 427.328 394.927 "/>
<path fill="#ffffff" fill-rule="evenodd" stroke="none" d="M 435.462 397.951 C 424.397 394.263 416.966 399.025 406.137 394.693 C 396.571 390.865 392.217 382.353 389.846 378.402 C 380.071 362.110 399.621 342.561 415.912 352.335 C 419.863 354.706 428.376 359.061 432.203 368.627 C 436.536 379.455 431.774 386.887 435.462 397.951 Z"/>
<path fill="none" stroke="#000000" stroke-width="3" stroke-linejoin="round" d="M 396.363 358.852 C 408.310 370.799 420.257 382.746 432.203 394.693 M 432.203 368.627 C 436.536 379.455 431.774 386.887 435.462 397.951 C 424.397 394.263 416.966 399.025 406.137 394.693 C 396.571 390.865 392.217 382.353 389.846 378.402 C 380.071 362.110 399.621 342.561 415.912 352.335 C 419.863 354.706 428.376 359.061 432.203 368.627 "/>
</g>
</g>
<g id="shield">
<g id="shield">
<path fill="#ffffff" fill-rule="evenodd" stroke="#000000" stroke-width="1" stroke-linecap="round" stroke-linejoin="round" d="M 236.126 173.480 C 236.151 173.480 483.849 173.480 483.874 173.480 C 483.874 173.501 506.095 297.411 483.874 387.443 C 464.177 467.246 360.012 511.305 360.000 511.317 C 359.988 511.305 255.823 467.246 236.126 387.443 C 213.905 297.411 236.126 173.501 236.126 173.480 Z"/>
</g>
</g>
<g id="specs_2">
<path fill="#ff00ff" fill-rule="evenodd" stroke="none" d="M 244.746 457.200 C 244.769 457.200 475.231 457.200 475.254 457.200 C 475.254 457.173 475.254 190.409 475.254 190.383 C 475.231 190.383 244.769 190.383 244.746 190.383 C 244.746 190.409 244.746 457.173 244.746 457.200 Z"/>
<path fill="#ff0000" fill-rule="evenodd" stroke="none" d="M 360.000 675.464 C 360.001 675.467 370.624 705.211 370.625 705.214 C 370.624 705.213 360.001 695.329 360.000 695.328 C 359.999 695.329 349.376 705.213 349.375 705.214 C 349.376 705.211 359.999 675.467 360.000 675.464 Z"/>
<path fill="#0000ff" fill-rule="evenodd" stroke="none" d="M 360.000 28.897 C 360.001 28.899 366.171 46.177 366.172 46.179 C 366.171 46.178 360.001 40.437 360.000 40.436 C 359.999 40.437 353.829 46.178 353.828 46.179 C 353.829 46.177 359.999 28.899 360.000 28.897 Z"/>
<path fill="#00ff00" fill-rule="evenodd" stroke="none" d="M 51.416 242.508 C 51.418 242.508 69.649 235.892 69.650 235.892 C 69.650 235.892 63.614 242.446 63.613 242.447 C 63.614 242.447 69.716 248.939 69.716 248.940 C 69.714 248.939 51.418 242.509 51.416 242.508 Z"/>
<path fill="#ffff00" fill-rule="evenodd" stroke="none" d="M 152.941 529.440 C 152.941 529.439 160.599 512.767 160.599 512.765 C 160.599 512.766 161.003 521.185 161.003 521.186 C 161.003 521.186 169.429 521.390 169.430 521.390 C 169.428 521.391 152.942 529.440 152.941 529.440 Z"/>
<path fill="#ffff00" fill-rule="evenodd" stroke="none" d="M 567.059 529.236 C 567.059 529.234 559.068 512.719 559.068 512.718 C 559.068 512.718 558.834 521.144 558.834 521.145 C 558.833 521.145 550.412 521.518 550.411 521.518 C 550.413 521.519 567.058 529.235 567.059 529.236 Z"/>
<path fill="#00ff00" fill-rule="evenodd" stroke="none" d="M 668.584 242.508 C 668.582 242.508 650.351 235.892 650.350 235.892 C 650.350 235.892 656.386 242.446 656.387 242.447 C 656.386 242.447 650.284 248.939 650.284 248.940 C 650.286 248.939 668.582 242.509 668.584 242.508 Z"/>
<path fill="#00ffff" fill-rule="evenodd" stroke="none" d="M 566.259 81.749 C 566.259 81.751 560.134 99.045 560.133 99.047 C 560.133 99.046 558.973 90.698 558.973 90.697 C 558.972 90.697 550.562 91.252 550.562 91.252 C 550.563 91.251 566.258 81.750 566.259 81.749 Z"/>
<path fill="#00ffff" fill-rule="evenodd" stroke="none" d="M 153.836 82.323 C 153.837 82.324 161.101 99.172 161.102 99.173 C 161.102 99.172 161.703 90.765 161.703 90.764 C 161.704 90.764 170.132 90.758 170.133 90.758 C 170.131 90.757 153.838 82.323 153.836 82.323 Z"/>
<path fill="#be0027" fill-rule="evenodd" stroke="none" d="M 360.000 570.589 C 360.001 570.586 370.624 540.842 370.625 540.839 C 370.624 540.840 360.001 550.724 360.000 550.725 C 359.999 550.724 349.376 540.840 349.375 540.839 C 349.376 540.842 359.999 570.586 360.000 570.589 Z"/>
</g>
</g>
</svg>
