<?xml version="1.0" encoding="utf-8"?>
<!-- Generator: Moho 13.0.3 build 635 -->
<!DOCTYPE svg PUBLIC "-//W3C//DTD SVG 1.1//EN" "http://www.w3.org/Graphics/SVG/1.1/DTD/svg11.dtd">
<svg version="1.1" id="Frame_0" xmlns="http://www.w3.org/2000/svg" xmlns:xlink="http://www.w3.org/1999/xlink" width="720px" height="720px">
<g id="eye">
<g id="eye">
<path fill="#ffffff" fill-rule="evenodd" stroke="#000000" stroke-width="7" stroke-linecap="round" stroke-linejoin="round" d="M 705.273 348.067 C 705.238 348.083 562.263 514.198 360.000 514.198 C 157.737 514.198 14.762 348.083 14.727 348.067 C 14.762 348.050 157.737 181.936 360.000 181.936 C 562.263 181.936 705.238 348.050 705.273 348.067 Z"/>
<path fill="#000000" fill-rule="evenodd" stroke="none" d="M 359.948 495.889 C 441.834 495.889 507.891 429.831 507.891 347.945 C 507.891 266.060 441.834 200.002 359.948 200.002 C 278.062 200.002 212.004 266.060 212.004 347.945 C 212.004 429.831 278.062 495.889 359.948 495.889 Z"/>
</g>
<g id="specs_2">
<path fill="#ff0000" fill-rule="evenodd" stroke="none" d="M 360.000 503.874 C 366.001 503.874 370.842 508.715 370.842 514.716 C 370.842 520.717 366.001 525.558 360.000 525.558 C 353.999 525.558 349.158 520.717 349.158 514.716 C 349.158 508.715 353.999 503.874 360.000 503.874 Z"/>
<path fill="#ffff00" fill-rule="evenodd" stroke="none" d="M 556.206 456.668 C 556.206 450.667 561.047 445.825 567.048 445.825 C 573.049 445.825 577.890 450.667 577.890 456.668 C 577.890 462.669 573.049 467.510 567.048 467.510 C 561.047 467.510 556.206 462.669 556.206 456.668 M 142.110 456.668 C 142.110 450.667 146.951 445.826 152.952 445.826 C 158.953 445.826 163.794 450.667 163.794 456.668 C 163.794 462.669 158.953 467.510 152.952 467.510 C 146.951 467.510 142.110 462.669 142.110 456.668 Z"/>
<path fill="#00ff00" fill-rule="evenodd" stroke="none" d="M 692.963 348.766 C 692.963 342.765 697.803 337.924 703.804 337.924 C 709.805 337.924 714.646 342.765 714.646 348.766 C 714.646 354.767 709.805 359.608 703.804 359.608 C 697.803 359.608 692.963 354.767 692.963 348.766 M 3.380 348.067 C 3.380 342.066 8.220 337.225 14.221 337.225 C 20.222 337.225 25.063 342.066 25.063 348.067 C 25.063 354.068 20.222 358.909 14.221 358.909 C 8.220 358.909 3.380 354.068 3.380 348.067 Z"/>
<path fill="#00ffff" fill-rule="evenodd" stroke="none" d="M 554.807 238.428 C 554.807 232.427 559.648 227.586 565.649 227.586 C 571.650 227.586 576.491 232.427 576.491 238.428 C 576.491 244.429 571.650 249.270 565.649 249.270 C 559.648 249.270 554.807 244.429 554.807 238.428 M 143.218 238.435 C 143.218 232.434 148.059 227.593 154.060 227.593 C 160.061 227.593 164.902 232.434 164.902 238.435 C 164.902 244.436 160.061 249.277 154.060 249.277 C 148.059 249.277 143.218 244.436 143.218 238.435 Z"/>
<path fill="#0000ff" fill-rule="evenodd" stroke="none" d="M 360.000 171.627 C 366.001 171.627 370.842 176.468 370.842 182.469 C 370.842 188.470 366.001 193.311 360.000 193.311 C 353.999 193.311 349.158 188.470 349.158 182.469 C 349.158 176.468 353.999 171.627 360.000 171.627 Z"/>
<path fill="#ff00ff" fill-rule="evenodd" stroke="none" d="M 152.952 238.247 C 152.993 238.247 567.007 238.247 567.048 238.247 C 567.048 238.269 567.048 457.864 567.048 457.886 C 567.007 457.886 152.993 457.886 152.952 457.886 C 152.952 457.864 152.952 238.269 152.952 238.247 Z"/>
</g>
</g>
</svg>
