<?xml version="1.0" encoding="utf-8"?>
<!-- Generator: Moho 12.5 build 22414 -->
<!DOCTYPE svg PUBLIC "-//W3C//DTD SVG 1.1//EN" "http://www.w3.org/Graphics/SVG/1.1/DTD/svg11.dtd">
<svg version="1.1" id="Frame_0" xmlns="http://www.w3.org/2000/svg" xmlns:xlink="http://www.w3.org/1999/xlink" width="720px" height="720px">
<g id="eye">
<g id="eye">
<path fill="#ffffff" fill-rule="evenodd" stroke="#000000" stroke-width="4" stroke-linecap="round" stroke-linejoin="round" d="M 308.190 360.000 C 308.190 331.323 331.323 308.190 360.000 308.190 C 388.677 308.190 411.810 331.323 411.810 360.000 C 411.810 388.677 388.677 411.810 360.000 411.810 C 331.323 411.810 308.190 388.677 308.190 360.000 M 221.924 360.000 C 221.924 283.576 283.576 221.924 360.000 221.924 C 436.424 221.924 498.076 283.576 498.076 360.000 C 498.076 436.424 436.424 498.076 360.000 498.076 C 283.576 498.076 221.924 436.424 221.924 360.000 M 15.047 360.000 C 15.081 359.983 155.247 192.972 360.000 192.972 C 564.753 192.972 704.919 359.983 704.953 360.000 C 704.919 360.017 564.753 527.028 360.000 527.028 C 155.247 527.028 15.081 360.017 15.047 360.000 Z"/>
</g>
<g id="specs">
<path fill="#ff00ff" fill-rule="evenodd" stroke="none" d="M 251.724 469.960 C 251.746 469.960 471.621 469.960 471.643 469.960 C 471.643 469.938 471.643 250.062 471.643 250.040 C 471.621 250.040 251.746 250.040 251.724 250.040 C 251.724 250.062 251.724 469.938 251.724 469.960 Z"/>
<path fill="#ff0000" fill-rule="evenodd" stroke="none" d="M 361.684 546.099 C 361.685 546.103 373.683 579.698 373.684 579.701 C 373.683 579.700 361.685 568.536 361.684 568.535 C 361.683 568.536 349.684 579.700 349.683 579.701 C 349.684 579.698 361.683 546.103 361.684 546.099 Z"/>
<path fill="#0000ff" fill-rule="evenodd" stroke="none" d="M 361.684 184.160 C 361.684 184.162 368.654 203.677 368.655 203.679 C 368.654 203.678 361.684 197.194 361.684 197.193 C 361.683 197.194 354.713 203.678 354.713 203.679 C 354.713 203.677 361.683 184.162 361.684 184.160 Z"/>
<path fill="#00ff00" fill-rule="evenodd" stroke="none" d="M 1.227 359.430 C 1.229 359.430 20.708 352.362 20.710 352.361 C 20.710 352.362 14.260 359.364 14.260 359.365 C 14.260 359.365 20.780 366.302 20.780 366.303 C 20.778 366.302 1.229 359.431 1.227 359.430 Z"/>
<path fill="#ffff00" fill-rule="evenodd" stroke="none" d="M 150.255 480.814 C 150.256 480.811 156.044 460.915 156.045 460.913 C 156.045 460.914 157.892 470.252 157.893 470.253 C 157.894 470.253 167.341 469.083 167.342 469.083 C 167.340 469.084 150.257 480.812 150.255 480.814 Z"/>
<path fill="#ffff00" fill-rule="evenodd" stroke="none" d="M 571.466 480.814 C 571.465 480.811 565.676 460.915 565.676 460.913 C 565.675 460.914 563.828 470.252 563.828 470.253 C 563.827 470.253 554.380 469.083 554.379 469.083 C 554.381 469.084 571.464 480.812 571.466 480.814 Z"/>
<path fill="#00ff00" fill-rule="evenodd" stroke="none" d="M 718.572 359.430 C 718.570 359.430 699.091 352.362 699.089 352.361 C 699.089 352.362 705.539 359.364 705.539 359.365 C 705.539 359.365 699.019 366.302 699.019 366.303 C 699.021 366.302 718.570 359.431 718.572 359.430 Z"/>
<path fill="#00ffff" fill-rule="evenodd" stroke="none" d="M 539.624 223.910 C 539.623 223.912 535.867 244.290 535.867 244.292 C 535.866 244.291 533.088 235.186 533.088 235.185 C 533.087 235.185 523.806 237.300 523.805 237.301 C 523.806 237.299 539.622 223.911 539.624 223.910 Z"/>
<path fill="#00ffff" fill-rule="evenodd" stroke="none" d="M 180.732 223.910 C 180.732 223.912 184.488 244.290 184.489 244.292 C 184.489 244.291 187.267 235.186 187.267 235.185 C 187.268 235.185 196.550 237.300 196.551 237.301 C 196.549 237.299 180.733 223.911 180.732 223.910 Z"/>
<path fill="#be0027" fill-rule="evenodd" stroke="none" d="M 361.656 534.139 C 361.656 534.138 367.616 517.451 367.616 517.449 C 367.616 517.450 361.656 522.995 361.656 522.995 C 361.655 522.995 355.696 517.450 355.695 517.449 C 355.696 517.451 361.655 534.138 361.656 534.139 Z"/>
</g>
</g>
</svg>
