<?xml version="1.0" encoding="utf-8"?>
<!-- Generator: Moho 13.0.3 build 635 -->
<!DOCTYPE svg PUBLIC "-//W3C//DTD SVG 1.1//EN" "http://www.w3.org/Graphics/SVG/1.1/DTD/svg11.dtd">
<svg version="1.1" id="Frame_0" xmlns="http://www.w3.org/2000/svg" xmlns:xlink="http://www.w3.org/1999/xlink" width="1280px" height="720px">
<g id="eye">
<path fill="#ffffff" fill-rule="evenodd" stroke="#000000" stroke-width="4" stroke-linecap="round" stroke-linejoin="round" d="M 640.000 108.585 C 1065.493 108.585 1226.573 359.975 1226.631 360.000 C 1226.573 360.025 1065.493 611.415 640.000 611.415 C 214.507 611.415 53.427 360.025 53.369 360.000 C 53.427 359.975 214.507 108.585 640.000 108.585 Z"/>
<path fill="#ffffff" fill-rule="evenodd" stroke="#000000" stroke-width="4" stroke-linecap="round" stroke-linejoin="round" d="M 640.000 152.484 C 754.859 152.484 847.516 245.141 847.516 360.000 C 847.516 474.859 754.859 567.516 640.000 567.516 C 525.141 567.516 432.484 474.859 432.484 360.000 C 432.484 245.141 525.141 152.484 640.000 152.484 Z"/>
<path fill="#ffffff" fill-rule="evenodd" stroke="#000000" stroke-width="4" stroke-linecap="round" stroke-linejoin="round" d="M 640.000 228.699 C 712.674 228.699 771.301 287.326 771.301 360.000 C 771.301 432.674 712.674 491.301 640.000 491.301 C 567.326 491.301 508.699 432.674 508.699 360.000 C 508.699 287.326 567.326 228.699 640.000 228.699 Z"/>
</g>
</svg>
