<?xml version="1.0" encoding="utf-8"?>
<!-- Generator: Moho 12.5 build 22414 -->
<!DOCTYPE svg PUBLIC "-//W3C//DTD SVG 1.1//EN" "http://www.w3.org/Graphics/SVG/1.1/DTD/svg11.dtd">
<svg version="1.1" id="Frame_0" xmlns="http://www.w3.org/2000/svg" xmlns:xlink="http://www.w3.org/1999/xlink" width="720px" height="720px">
<g id="eye_up_starburst_2">
<g id="eye_up_starburst">
<path fill="#ffffff" fill-rule="evenodd" stroke="none" d="M 360.000 592.597 C 360.002 592.579 384.405 415.240 384.408 415.222 C 384.413 415.239 442.534 584.020 442.539 584.037 C 442.538 584.019 430.957 405.780 430.956 405.762 C 430.965 405.778 519.343 559.462 519.352 559.477 C 519.348 559.460 473.698 387.768 473.694 387.750 C 473.705 387.764 588.799 520.586 588.810 520.599 C 588.803 520.583 511.678 362.153 511.670 362.137 C 511.684 362.148 649.274 469.071 649.288 469.082 C 649.277 469.068 543.951 329.881 543.941 329.867 C 543.956 329.874 699.142 406.600 699.157 406.607 C 699.144 406.596 569.566 291.902 569.555 291.889 C 569.566 291.894 485.425 205.691 360.000 205.691 C 234.575 205.691 150.434 291.894 150.445 291.889 C 150.434 291.902 20.856 406.595 20.843 406.607 C 20.858 406.599 176.044 329.873 176.059 329.866 C 176.049 329.880 70.723 469.068 70.712 469.082 C 70.726 469.071 208.315 362.148 208.329 362.137 C 208.321 362.153 131.197 520.583 131.189 520.599 C 131.201 520.586 246.295 387.764 246.306 387.750 C 246.302 387.768 200.652 559.460 200.648 559.477 C 200.657 559.462 289.035 405.778 289.044 405.762 C 289.043 405.780 277.462 584.019 277.461 584.037 C 277.466 584.020 335.587 415.239 335.593 415.222 C 335.595 415.240 359.998 592.579 360.000 592.597 Z"/>
<path fill="#ffffff" fill-rule="evenodd" stroke="#000000" stroke-width="4" stroke-linecap="round" stroke-linejoin="round" d="M 322.434 267.021 C 322.434 246.228 339.208 229.455 360.000 229.455 C 380.792 229.455 397.566 246.228 397.566 267.021 C 397.566 287.813 380.792 304.586 360.000 304.586 C 339.208 304.586 322.434 287.813 322.434 267.021 M 269.641 244.620 C 293.268 231.877 323.353 226.810 360.000 226.812 C 395.572 226.815 424.914 231.560 450.112 244.521 C 451.833 251.655 452.425 259.228 452.253 267.021 C 451.130 318.070 411.061 359.274 360.000 359.274 C 308.939 359.274 268.922 318.069 267.747 267.021 C 267.567 259.217 268.143 251.634 269.641 244.620 Z"/>
<path fill="none" stroke="#000000" stroke-width="1" stroke-linecap="butt" stroke-linejoin="round" d="M 360.000 229.455 C 380.792 229.455 397.566 246.228 397.566 267.021 "/>
<path fill="none" stroke="#000000" stroke-width="1" stroke-linecap="butt" stroke-linejoin="round" d="M 397.566 267.021 C 397.566 287.813 380.792 304.586 360.000 304.586 "/>
<path fill="none" stroke="#000000" stroke-width="1" stroke-linecap="butt" stroke-linejoin="round" d="M 360.000 304.586 C 339.208 304.586 322.434 287.813 322.434 267.021 "/>
<path fill="none" stroke="#000000" stroke-width="1" stroke-linecap="butt" stroke-linejoin="round" d="M 322.434 267.021 C 322.434 246.228 339.208 229.455 360.000 229.455 "/>
<path fill="#000000" fill-rule="evenodd" stroke="none" d="M 360.000 229.455 C 380.792 229.455 397.566 246.228 397.566 267.021 C 397.566 287.813 380.792 304.586 360.000 304.586 C 339.208 304.586 322.434 287.813 322.434 267.021 C 322.434 246.228 339.208 229.455 360.000 229.455 Z"/>
<path fill="none" stroke="#000000" stroke-width="1" stroke-linecap="butt" stroke-linejoin="round" d="M 267.747 267.021 C 267.567 259.217 268.143 251.634 269.641 244.620 "/>
<path fill="none" stroke="#000000" stroke-width="1" stroke-linecap="butt" stroke-linejoin="round" d="M 450.112 244.521 C 451.833 251.655 452.425 259.228 452.253 267.021 "/>
<path fill="none" stroke="#000000" stroke-width="1" stroke-linecap="butt" stroke-linejoin="round" d="M 452.253 267.021 C 451.130 318.070 411.061 359.274 360.000 359.274 "/>
<path fill="none" stroke="#000000" stroke-width="1" stroke-linecap="butt" stroke-linejoin="round" d="M 360.000 359.274 C 308.939 359.274 268.922 318.069 267.747 267.021 "/>
<path fill="#000000" fill-rule="evenodd" stroke="#000000" stroke-width="4" stroke-linecap="round" stroke-linejoin="round" d="M 267.747 267.021 C 267.567 259.217 268.143 251.634 269.641 244.620 C 222.790 260.046 180.555 303.377 180.546 303.382 C 180.564 303.390 257.645 379.953 360.000 379.953 C 462.355 379.953 539.436 303.390 539.454 303.382 C 539.445 303.377 496.362 259.042 450.112 244.521 C 451.833 251.655 452.425 259.228 452.253 267.021 C 451.130 318.070 411.061 359.274 360.000 359.274 C 308.939 359.274 268.922 318.069 267.747 267.021 Z"/>
</g>
<g id="specs_2">
<path fill="#ff0000" fill-rule="evenodd" stroke="none" d="M 360.000 623.053 C 360.001 623.056 372.230 657.298 372.231 657.301 C 372.230 657.300 360.001 645.922 360.000 645.921 C 359.999 645.922 347.770 657.300 347.769 657.301 C 347.770 657.298 359.999 623.056 360.000 623.053 Z"/>
<path fill="#0000ff" fill-rule="evenodd" stroke="none" d="M 360.000 166.127 C 360.001 166.129 367.104 186.019 367.105 186.021 C 367.104 186.020 360.001 179.411 360.000 179.411 C 359.999 179.411 352.896 186.020 352.895 186.021 C 352.896 186.019 359.999 166.129 360.000 166.127 Z"/>
<path fill="#00ff00" fill-rule="evenodd" stroke="none" d="M 6.030 416.598 C 6.032 416.596 20.407 399.498 20.409 399.497 C 20.408 399.498 18.162 409.511 18.162 409.512 C 18.163 409.513 27.988 412.474 27.989 412.474 C 27.987 412.475 6.033 416.598 6.030 416.598 Z"/>
<path fill="#ffff00" fill-rule="evenodd" stroke="none" d="M 122.282 528.343 C 122.283 528.341 131.098 509.148 131.099 509.146 C 131.099 509.147 131.563 518.839 131.563 518.840 C 131.564 518.840 141.264 519.075 141.265 519.075 C 141.263 519.076 122.284 528.342 122.282 528.343 Z"/>
<path fill="#ffff00" fill-rule="evenodd" stroke="none" d="M 599.022 528.108 C 599.021 528.106 589.823 509.093 589.822 509.091 C 589.822 509.092 589.552 518.792 589.552 518.793 C 589.551 518.793 579.858 519.223 579.857 519.223 C 579.859 519.223 599.020 528.107 599.022 528.108 Z"/>
<path fill="#00ff00" fill-rule="evenodd" stroke="none" d="M 713.970 416.598 C 713.968 416.596 699.593 399.498 699.591 399.497 C 699.592 399.498 701.838 409.511 701.838 409.512 C 701.837 409.512 692.012 412.474 692.011 412.474 C 692.013 412.475 713.968 416.598 713.970 416.598 Z"/>
<path fill="#00ffff" fill-rule="evenodd" stroke="none" d="M 597.449 251.449 C 597.448 251.451 590.397 271.360 590.396 271.362 C 590.396 271.361 589.061 261.750 589.061 261.749 C 589.060 261.749 579.378 262.389 579.377 262.389 C 579.379 262.388 597.447 251.450 597.449 251.449 Z"/>
<path fill="#00ffff" fill-rule="evenodd" stroke="none" d="M 122.661 252.109 C 122.662 252.111 131.025 271.505 131.026 271.507 C 131.026 271.506 131.717 261.828 131.717 261.827 C 131.718 261.827 141.421 261.820 141.422 261.820 C 141.420 261.819 122.663 252.110 122.661 252.109 Z"/>
<path fill="#be0027" fill-rule="evenodd" stroke="none" d="M 360.000 610.922 C 360.001 610.919 368.898 586.006 368.899 586.004 C 368.898 586.005 360.001 594.283 360.000 594.284 C 359.999 594.283 351.102 586.005 351.101 586.004 C 351.102 586.006 359.999 610.919 360.000 610.922 Z"/>
</g>
</g>
</svg>
