<?xml version="1.0" encoding="utf-8"?>
<!-- Generator: Moho 12.5 build 22414 -->
<!DOCTYPE svg PUBLIC "-//W3C//DTD SVG 1.1//EN" "http://www.w3.org/Graphics/SVG/1.1/DTD/svg11.dtd">
<svg version="1.1" id="Frame_0" xmlns="http://www.w3.org/2000/svg" xmlns:xlink="http://www.w3.org/1999/xlink" width="720px" height="720px">
<g id="eye_up_starburst">
<g id="eye_up_starburst">
<path fill="#ffffff" fill-rule="evenodd" stroke="none" d="M 360.000 702.886 C 360.002 702.870 378.383 538.558 378.385 538.542 C 378.390 538.558 429.217 695.922 429.222 695.937 C 429.221 695.921 413.450 531.433 413.448 531.416 C 413.456 531.431 493.634 675.984 493.642 675.999 C 493.637 675.983 445.645 517.865 445.640 517.849 C 445.651 517.862 551.882 644.423 551.893 644.436 C 551.885 644.421 474.255 498.570 474.247 498.555 C 474.260 498.565 602.600 602.602 602.613 602.613 C 602.602 602.600 498.565 474.260 498.555 474.247 C 498.570 474.255 644.421 551.886 644.436 551.893 C 644.423 551.883 517.862 445.651 517.849 445.640 C 517.865 445.645 675.983 493.637 675.999 493.642 C 675.984 493.634 531.431 413.456 531.416 413.448 C 531.433 413.450 695.921 429.221 695.937 429.222 C 695.922 429.217 538.558 378.390 538.542 378.385 C 538.558 378.383 702.870 360.002 702.886 360.000 C 702.870 359.998 538.558 341.617 538.542 341.615 C 538.558 341.610 695.922 290.783 695.937 290.778 C 695.921 290.779 531.433 306.550 531.416 306.552 C 531.431 306.544 675.984 226.366 675.999 226.358 C 675.983 226.363 517.865 274.355 517.849 274.360 C 517.862 274.349 644.423 168.118 644.436 168.107 C 644.421 168.115 498.570 245.745 498.555 245.753 C 498.565 245.740 602.602 117.400 602.613 117.387 C 602.600 117.398 474.260 221.435 474.247 221.445 C 474.255 221.431 551.886 75.579 551.893 75.564 C 551.883 75.577 445.651 202.138 445.640 202.151 C 445.645 202.135 493.637 44.017 493.642 44.001 C 493.634 44.016 413.456 188.569 413.448 188.584 C 413.450 188.567 429.221 24.079 429.222 24.063 C 429.217 24.079 378.390 181.442 378.385 181.458 C 378.383 181.442 360.002 17.130 360.000 17.114 C 359.998 17.130 341.617 181.442 341.615 181.458 C 341.610 181.442 290.783 24.079 290.778 24.063 C 290.779 24.079 306.550 188.567 306.552 188.584 C 306.544 188.569 226.366 44.016 226.358 44.001 C 226.363 44.017 274.355 202.135 274.360 202.151 C 274.349 202.138 168.118 75.577 168.107 75.564 C 168.115 75.579 245.745 221.431 245.753 221.445 C 245.740 221.435 117.400 117.398 117.387 117.387 C 117.398 117.400 221.435 245.740 221.445 245.753 C 221.431 245.745 75.579 168.114 75.564 168.107 C 75.577 168.117 202.138 274.349 202.151 274.360 C 202.135 274.355 44.017 226.363 44.001 226.358 C 44.016 226.366 188.569 306.544 188.584 306.552 C 188.567 306.550 24.079 290.779 24.063 290.778 C 24.079 290.783 181.442 341.610 181.458 341.615 C 181.442 341.617 17.130 359.998 17.114 360.000 C 17.130 360.002 181.442 378.383 181.458 378.385 C 181.442 378.390 24.079 429.217 24.063 429.222 C 24.079 429.221 188.567 413.450 188.584 413.448 C 188.569 413.456 44.016 493.634 44.001 493.642 C 44.017 493.637 202.135 445.645 202.151 445.640 C 202.138 445.651 75.577 551.882 75.564 551.893 C 75.579 551.885 221.431 474.255 221.445 474.247 C 221.435 474.260 117.398 602.600 117.387 602.613 C 117.400 602.602 245.740 498.565 245.753 498.555 C 245.745 498.570 168.114 644.421 168.107 644.436 C 168.117 644.423 274.349 517.862 274.360 517.849 C 274.355 517.865 226.363 675.983 226.358 675.999 C 226.366 675.984 306.544 531.431 306.552 531.416 C 306.550 531.433 290.779 695.921 290.778 695.937 C 290.783 695.922 341.610 538.558 341.615 538.542 C 341.617 538.558 359.998 702.870 360.000 702.886 Z"/>
<path fill="#ffffff" fill-rule="evenodd" stroke="#000000" stroke-width="4" stroke-linecap="round" stroke-linejoin="round" d="M 325.096 307.559 C 325.096 288.240 340.681 272.655 360.000 272.655 C 379.319 272.655 394.904 288.240 394.904 307.559 C 394.904 326.877 379.319 342.462 360.000 342.462 C 340.681 342.462 325.096 326.877 325.096 307.559 M 277.255 284.520 C 297.757 270.174 325.840 261.647 360.000 261.647 C 393.155 261.647 420.586 269.680 442.519 284.393 C 444.610 291.693 445.716 299.493 445.715 307.559 C 445.715 355.002 407.443 393.274 360.000 393.274 C 312.557 393.274 274.284 355.002 274.285 307.559 C 274.285 299.493 275.391 291.693 277.255 284.520 Z"/>
<path fill="none" stroke="#000000" stroke-width="1" stroke-linecap="butt" stroke-linejoin="round" d="M 360.000 272.655 C 379.319 272.655 394.904 288.240 394.904 307.559 "/>
<path fill="none" stroke="#000000" stroke-width="1" stroke-linecap="butt" stroke-linejoin="round" d="M 394.904 307.559 C 394.904 326.877 379.319 342.462 360.000 342.462 "/>
<path fill="none" stroke="#000000" stroke-width="1" stroke-linecap="butt" stroke-linejoin="round" d="M 360.000 342.462 C 340.681 342.462 325.096 326.877 325.096 307.559 "/>
<path fill="none" stroke="#000000" stroke-width="1" stroke-linecap="butt" stroke-linejoin="round" d="M 325.096 307.559 C 325.096 288.240 340.681 272.655 360.000 272.655 "/>
<path fill="#000000" fill-rule="evenodd" stroke="none" d="M 360.000 272.655 C 379.319 272.655 394.904 288.240 394.904 307.559 C 394.904 326.877 379.319 342.462 360.000 342.462 C 340.681 342.462 325.096 326.877 325.096 307.559 C 325.096 288.240 340.681 272.655 360.000 272.655 Z"/>
<path fill="none" stroke="#000000" stroke-width="1" stroke-linecap="butt" stroke-linejoin="round" d="M 274.285 307.559 C 274.285 299.493 275.391 291.693 277.255 284.520 "/>
<path fill="none" stroke="#000000" stroke-width="1" stroke-linecap="butt" stroke-linejoin="round" d="M 442.519 284.393 C 444.610 291.693 445.716 299.493 445.715 307.559 "/>
<path fill="none" stroke="#000000" stroke-width="1" stroke-linecap="butt" stroke-linejoin="round" d="M 445.715 307.559 C 445.715 355.002 407.443 393.274 360.000 393.274 "/>
<path fill="none" stroke="#000000" stroke-width="1" stroke-linecap="butt" stroke-linejoin="round" d="M 360.000 393.274 C 312.557 393.274 274.284 355.002 274.285 307.559 "/>
<path fill="#000000" fill-rule="evenodd" stroke="#000000" stroke-width="4" stroke-linecap="round" stroke-linejoin="round" d="M 274.285 307.559 C 274.285 299.493 275.391 291.693 277.255 284.520 C 230.651 306.122 195.675 359.992 195.667 360.000 C 195.683 360.010 259.529 458.353 360.000 458.353 C 460.471 458.353 524.317 360.010 524.333 360.000 C 524.325 359.992 488.605 304.976 442.519 284.393 C 444.610 291.693 445.716 299.493 445.715 307.559 C 445.715 355.002 407.443 393.274 360.000 393.274 C 312.557 393.274 274.284 355.002 274.285 307.559 Z"/>
</g>
<g id="specs_2">
<path fill="#ff0000" fill-rule="evenodd" stroke="none" d="M 360.000 681.172 C 360.001 681.176 372.432 715.982 372.433 715.985 C 372.432 715.984 360.001 704.418 360.000 704.417 C 359.999 704.418 347.568 715.984 347.567 715.985 C 347.568 715.982 359.999 681.176 360.000 681.172 Z"/>
<path fill="#0000ff" fill-rule="evenodd" stroke="none" d="M 360.000 17.772 C 360.001 17.774 367.221 37.992 367.222 37.994 C 367.221 37.993 360.001 31.275 360.000 31.274 C 359.999 31.275 352.779 37.993 352.778 37.994 C 352.779 37.992 359.999 17.774 360.000 17.772 Z"/>
<path fill="#00ff00" fill-rule="evenodd" stroke="none" d="M 18.920 361.005 C 18.922 361.004 39.104 353.681 39.106 353.680 C 39.105 353.681 32.423 360.936 32.423 360.936 C 32.423 360.937 39.178 368.124 39.179 368.125 C 39.177 368.124 18.922 361.005 18.920 361.005 Z"/>
<path fill="#ffff00" fill-rule="evenodd" stroke="none" d="M 118.365 603.501 C 118.366 603.499 127.326 583.990 127.327 583.988 C 127.327 583.989 127.799 593.841 127.799 593.842 C 127.800 593.842 137.660 594.081 137.661 594.081 C 137.659 594.082 118.367 603.500 118.365 603.501 Z"/>
<path fill="#ffff00" fill-rule="evenodd" stroke="none" d="M 602.961 603.262 C 602.960 603.260 593.610 583.935 593.609 583.933 C 593.609 583.934 593.334 593.793 593.334 593.794 C 593.333 593.794 583.480 594.231 583.479 594.231 C 583.481 594.232 602.959 603.261 602.961 603.262 Z"/>
<path fill="#00ff00" fill-rule="evenodd" stroke="none" d="M 702.126 361.005 C 702.124 361.004 681.942 353.681 681.940 353.680 C 681.941 353.681 688.623 360.936 688.623 360.936 C 688.623 360.937 681.868 368.124 681.867 368.125 C 681.869 368.124 702.124 361.005 702.126 361.005 Z"/>
<path fill="#00ffff" fill-rule="evenodd" stroke="none" d="M 601.361 117.716 C 601.361 117.718 594.193 137.955 594.193 137.957 C 594.193 137.956 592.835 128.187 592.835 128.186 C 592.834 128.186 582.993 128.836 582.992 128.836 C 582.994 128.835 601.359 117.717 601.361 117.716 Z"/>
<path fill="#00ffff" fill-rule="evenodd" stroke="none" d="M 118.750 118.386 C 118.751 118.388 127.252 138.103 127.253 138.105 C 127.253 138.104 127.956 128.266 127.956 128.265 C 127.957 128.265 137.819 128.257 137.820 128.257 C 137.818 128.256 118.752 118.387 118.750 118.386 Z"/>
<path fill="#be0027" fill-rule="evenodd" stroke="none" d="M 360.000 708.930 C 360.001 708.927 369.045 683.603 369.046 683.601 C 369.045 683.602 360.001 692.016 360.000 692.017 C 359.999 692.016 350.955 683.602 350.954 683.601 C 350.955 683.603 359.999 708.927 360.000 708.930 Z"/>
</g>
</g>
</svg>
