<?xml version="1.0" encoding="utf-8"?>
<!-- Generator: Moho 12.5 build 22414 -->
<!DOCTYPE svg PUBLIC "-//W3C//DTD SVG 1.1//EN" "http://www.w3.org/Graphics/SVG/1.1/DTD/svg11.dtd">
<svg version="1.1" id="Frame_0" xmlns="http://www.w3.org/2000/svg" xmlns:xlink="http://www.w3.org/1999/xlink" width="720px" height="720px">
<g id="eye_starburst">
<g id="starburst">
<path fill="#000000" fill-rule="evenodd" stroke="#ffffff" stroke-width="4" stroke-linecap="round" stroke-linejoin="round" d="M 360.000 667.364 C 360.002 667.349 377.203 513.589 377.204 513.574 C 377.209 513.589 424.772 660.847 424.777 660.862 C 424.775 660.846 410.017 506.921 410.016 506.906 C 410.023 506.919 485.052 642.190 485.059 642.203 C 485.055 642.189 440.145 494.225 440.141 494.210 C 440.151 494.222 539.560 612.656 539.570 612.668 C 539.563 612.654 466.918 476.168 466.910 476.155 C 466.922 476.165 587.021 573.521 587.033 573.530 C 587.023 573.518 489.667 453.420 489.657 453.408 C 489.671 453.416 626.156 526.061 626.170 526.068 C 626.158 526.058 507.724 426.648 507.712 426.638 C 507.727 426.643 655.691 471.553 655.706 471.557 C 655.692 471.550 520.422 396.521 520.408 396.514 C 520.424 396.515 674.348 411.273 674.364 411.275 C 674.349 411.270 527.091 363.707 527.076 363.702 C 527.092 363.700 680.851 346.499 680.867 346.498 C 680.851 346.496 527.092 329.295 527.076 329.293 C 527.091 329.289 674.349 281.726 674.364 281.721 C 674.348 281.722 520.424 296.480 520.408 296.482 C 520.422 296.474 655.692 221.446 655.706 221.438 C 655.691 221.443 507.727 266.353 507.712 266.357 C 507.724 266.347 626.158 166.938 626.170 166.928 C 626.156 166.935 489.671 239.580 489.657 239.587 C 489.667 239.576 587.023 119.477 587.033 119.465 C 587.021 119.475 466.923 216.831 466.911 216.841 C 466.918 216.827 539.563 80.341 539.570 80.328 C 539.560 80.340 440.151 198.774 440.141 198.786 C 440.145 198.771 485.055 50.807 485.059 50.792 C 485.052 50.806 410.023 186.076 410.016 186.090 C 410.017 186.074 424.775 32.149 424.777 32.134 C 424.772 32.149 377.209 179.407 377.204 179.421 C 377.203 179.406 360.002 25.647 360.000 25.631 C 359.998 25.647 342.797 179.406 342.796 179.421 C 342.791 179.407 295.228 32.149 295.223 32.134 C 295.225 32.149 309.983 186.074 309.984 186.090 C 309.977 186.076 234.948 50.806 234.941 50.792 C 234.945 50.807 279.855 198.771 279.859 198.786 C 279.849 198.774 180.440 80.340 180.430 80.328 C 180.437 80.341 253.083 216.827 253.090 216.841 C 253.078 216.831 132.980 119.475 132.967 119.465 C 132.977 119.477 230.333 239.575 230.343 239.587 C 230.329 239.580 93.844 166.935 93.830 166.927 C 93.842 166.937 212.276 266.347 212.288 266.357 C 212.273 266.353 64.309 221.443 64.294 221.438 C 64.308 221.446 199.578 296.474 199.592 296.482 C 199.576 296.480 45.652 281.722 45.636 281.721 C 45.651 281.726 192.909 329.289 192.924 329.293 C 192.908 329.295 39.149 346.496 39.133 346.498 C 39.149 346.499 192.908 363.700 192.924 363.702 C 192.909 363.707 45.651 411.270 45.636 411.275 C 45.652 411.273 199.576 396.515 199.592 396.514 C 199.578 396.521 64.308 471.550 64.294 471.557 C 64.309 471.553 212.273 426.643 212.288 426.638 C 212.276 426.648 93.842 526.058 93.830 526.068 C 93.844 526.060 230.329 453.415 230.343 453.408 C 230.333 453.420 132.977 573.518 132.967 573.530 C 132.980 573.521 253.077 476.165 253.089 476.155 C 253.082 476.168 180.437 612.654 180.430 612.668 C 180.440 612.656 279.849 494.222 279.859 494.210 C 279.855 494.225 234.945 642.189 234.941 642.203 C 234.948 642.190 309.977 506.919 309.984 506.906 C 309.983 506.921 295.225 660.846 295.223 660.862 C 295.228 660.847 342.791 513.589 342.796 513.574 C 342.797 513.589 359.998 667.349 360.000 667.364 Z"/>
</g>
<g id="eye">
<path fill="#ffffff" fill-rule="evenodd" stroke="#000000" stroke-width="4" stroke-linecap="round" stroke-linejoin="round" d="M 332.735 346.498 C 332.735 331.407 344.909 319.232 360.000 319.232 C 375.091 319.232 387.265 331.407 387.265 346.498 C 387.265 361.589 375.091 373.763 360.000 373.763 C 344.909 373.763 332.735 361.589 332.735 346.498 M 271.397 346.498 C 271.397 297.457 310.959 257.895 360.000 257.895 C 409.041 257.895 448.603 297.457 448.603 346.498 C 448.603 395.539 409.041 435.100 360.000 435.100 C 310.959 435.100 271.397 395.539 271.397 346.498 M 178.467 346.498 C 178.485 346.487 246.405 235.782 360.000 235.782 C 473.595 235.782 541.515 346.487 541.533 346.498 C 541.515 346.509 473.595 457.213 360.000 457.213 C 246.405 457.213 178.485 346.509 178.467 346.498 Z"/>
<path fill="none" stroke="#000000" stroke-width="1" stroke-linecap="butt" stroke-linejoin="round" d="M 332.735 346.498 C 332.735 331.407 344.909 319.232 360.000 319.232 "/>
<path fill="none" stroke="#000000" stroke-width="1" stroke-linecap="butt" stroke-linejoin="round" d="M 360.000 319.232 C 375.091 319.232 387.265 331.407 387.265 346.498 "/>
<path fill="none" stroke="#000000" stroke-width="1" stroke-linecap="butt" stroke-linejoin="round" d="M 387.265 346.498 C 387.265 361.589 375.091 373.763 360.000 373.763 "/>
<path fill="none" stroke="#000000" stroke-width="1" stroke-linecap="butt" stroke-linejoin="round" d="M 360.000 373.763 C 344.909 373.763 332.735 361.589 332.735 346.498 "/>
<path fill="none" stroke="#000000" stroke-width="1" stroke-linecap="butt" stroke-linejoin="round" d="M 271.397 346.498 C 271.397 297.457 310.959 257.895 360.000 257.895 "/>
<path fill="none" stroke="#000000" stroke-width="1" stroke-linecap="butt" stroke-linejoin="round" d="M 360.000 257.895 C 409.041 257.895 448.603 297.457 448.603 346.498 "/>
<path fill="none" stroke="#000000" stroke-width="1" stroke-linecap="butt" stroke-linejoin="round" d="M 448.603 346.498 C 448.603 395.539 409.041 435.100 360.000 435.100 "/>
<path fill="none" stroke="#000000" stroke-width="1" stroke-linecap="butt" stroke-linejoin="round" d="M 360.000 435.100 C 310.959 435.100 271.397 395.539 271.397 346.498 "/>
<path fill="#000000" fill-rule="evenodd" stroke="none" d="M 332.735 346.498 C 332.735 331.407 344.909 319.232 360.000 319.232 C 375.091 319.232 387.265 331.407 387.265 346.498 C 387.265 361.589 375.091 373.763 360.000 373.763 C 344.909 373.763 332.735 361.589 332.735 346.498 M 271.397 346.498 C 271.397 297.457 310.959 257.895 360.000 257.895 C 409.041 257.895 448.603 297.457 448.603 346.498 C 448.603 395.539 409.041 435.100 360.000 435.100 C 310.959 435.100 271.397 395.539 271.397 346.498 Z"/>
</g>
<g id="specs_3">
<path fill="#ff00ff" fill-rule="evenodd" stroke="none" d="M 292.123 414.375 C 292.136 414.375 427.864 414.375 427.878 414.375 C 427.878 414.362 427.878 278.634 427.878 278.620 C 427.864 278.620 292.136 278.620 292.123 278.620 C 292.123 278.634 292.123 414.362 292.123 414.375 Z"/>
<path fill="#ff0000" fill-rule="evenodd" stroke="none" d="M 360.072 678.590 C 360.073 678.593 369.999 706.385 370.000 706.388 C 369.999 706.387 360.073 697.152 360.072 697.151 C 360.071 697.152 350.145 706.387 350.144 706.388 C 350.145 706.385 360.071 678.593 360.072 678.590 Z"/>
<path fill="#0000ff" fill-rule="evenodd" stroke="none" d="M 360.072 72.906 C 360.072 72.907 365.838 89.052 365.838 89.053 C 365.838 89.053 360.072 83.689 360.072 83.688 C 360.071 83.689 354.306 89.053 354.305 89.053 C 354.306 89.052 360.071 72.907 360.072 72.906 Z"/>
<path fill="#00ff00" fill-rule="evenodd" stroke="none" d="M 87.721 346.977 C 87.722 346.976 103.837 341.129 103.839 341.128 C 103.838 341.129 98.503 346.922 98.502 346.922 C 98.503 346.923 103.896 352.661 103.897 352.662 C 103.895 352.661 87.722 346.977 87.721 346.977 Z"/>
<path fill="#ffff00" fill-rule="evenodd" stroke="none" d="M 167.127 540.610 C 167.127 540.608 174.282 525.030 174.283 525.028 C 174.283 525.029 174.660 532.896 174.660 532.897 C 174.661 532.897 182.534 533.087 182.535 533.088 C 182.533 533.088 167.128 540.609 167.127 540.610 Z"/>
<path fill="#ffff00" fill-rule="evenodd" stroke="none" d="M 554.075 540.419 C 554.074 540.418 546.608 524.986 546.608 524.984 C 546.608 524.985 546.389 532.857 546.389 532.858 C 546.388 532.858 538.520 533.207 538.520 533.207 C 538.521 533.208 554.074 540.418 554.075 540.419 Z"/>
<path fill="#00ff00" fill-rule="evenodd" stroke="none" d="M 633.258 346.977 C 633.257 346.976 617.142 341.129 617.140 341.128 C 617.141 341.129 622.476 346.922 622.477 346.922 C 622.476 346.923 617.083 352.661 617.082 352.662 C 617.084 352.661 633.257 346.977 633.258 346.977 Z"/>
<path fill="#00ffff" fill-rule="evenodd" stroke="none" d="M 552.798 152.711 C 552.798 152.713 547.075 168.872 547.074 168.874 C 547.074 168.873 545.990 161.072 545.990 161.072 C 545.989 161.072 538.131 161.590 538.130 161.590 C 538.132 161.590 552.797 152.712 552.798 152.711 Z"/>
<path fill="#00ffff" fill-rule="evenodd" stroke="none" d="M 167.435 153.247 C 167.435 153.248 174.223 168.990 174.224 168.992 C 174.224 168.991 174.785 161.135 174.785 161.135 C 174.786 161.135 182.661 161.129 182.662 161.129 C 182.660 161.128 167.436 153.247 167.435 153.247 Z"/>
<path fill="#be0027" fill-rule="evenodd" stroke="none" d="M 360.072 629.230 C 360.073 629.227 369.999 601.435 370.000 601.432 C 369.999 601.433 360.073 610.669 360.072 610.669 C 360.071 610.669 350.145 601.433 350.144 601.432 C 350.145 601.435 360.071 629.227 360.072 629.230 Z"/>
</g>
</g>
</svg>
