<?xml version="1.0" encoding="utf-8"?>
<!-- Generator: Moho 12.5 build 22414 -->
<!DOCTYPE svg PUBLIC "-//W3C//DTD SVG 1.1//EN" "http://www.w3.org/Graphics/SVG/1.1/DTD/svg11.dtd">
<svg version="1.1" id="Frame_0" xmlns="http://www.w3.org/2000/svg" xmlns:xlink="http://www.w3.org/1999/xlink" width="720px" height="720px">
<g id="eye_eyelashes">
<g id="eye_eyelashes">
<path fill="#ffffff" fill-rule="evenodd" stroke="#000000" stroke-width="4" stroke-linecap="round" stroke-linejoin="round" d="M 484.761 359.228 C 484.871 427.261 440.767 483.907 360.000 483.988 C 292.018 483.988 235.239 428.069 235.239 359.228 C 235.239 289.527 290.299 234.467 360.000 234.467 C 433.688 233.331 484.647 289.220 484.761 359.228 M 634.473 359.228 C 634.446 359.213 482.807 209.653 360.000 209.515 C 222.764 209.514 85.554 359.213 85.527 359.228 C 85.554 359.242 222.764 508.939 360.000 508.941 C 497.236 508.939 634.446 359.242 634.473 359.228 M 397.429 571.320 C 397.425 571.314 360.000 508.941 360.000 508.941 C 360.000 508.941 322.575 571.314 322.571 571.320 C 322.569 571.314 301.539 503.378 301.537 503.371 C 301.531 503.376 246.896 555.402 246.889 555.407 C 246.889 555.400 246.891 482.310 246.891 482.303 C 246.884 482.307 181.079 522.271 181.073 522.276 C 181.075 522.269 200.834 457.771 200.836 457.763 C 200.828 457.766 122.996 481.408 122.989 481.410 C 122.992 481.405 156.084 426.357 156.087 426.351 C 156.078 426.353 60.618 445.699 60.608 445.701 C 60.614 445.695 116.934 393.224 116.940 393.219 C 116.929 393.216 8.717 361.195 10.671 359.228 C 10.681 359.224 116.070 326.512 116.081 326.509 C 116.075 326.505 60.648 281.318 60.642 281.314 C 60.651 281.315 154.806 294.235 154.815 294.236 C 154.812 294.229 126.016 227.566 126.013 227.560 C 126.020 227.563 200.829 263.678 200.836 263.682 C 200.834 263.674 181.934 188.866 181.931 188.859 C 181.939 188.863 252.451 233.570 252.458 233.574 C 252.458 233.565 248.610 153.604 248.609 153.597 C 248.615 153.602 304.935 215.077 304.940 215.083 C 304.942 215.075 322.570 134.667 322.571 134.658 C 322.575 134.665 359.996 206.483 360.000 206.490 C 360.004 206.483 397.425 134.665 397.429 134.658 C 397.431 134.666 416.330 217.652 416.332 217.661 C 416.338 217.655 476.508 159.170 476.513 159.164 C 476.513 159.172 467.509 236.145 467.508 236.152 C 467.517 236.148 543.595 193.160 543.603 193.156 C 543.601 193.163 518.274 264.534 518.271 264.541 C 518.279 264.538 600.407 233.577 600.415 233.574 C 600.412 233.580 566.048 297.220 566.045 297.226 C 566.054 297.225 658.490 283.034 658.499 283.032 C 658.494 283.037 607.361 329.941 607.356 329.945 C 607.366 329.948 709.319 358.242 709.329 359.228 C 709.318 359.232 600.493 395.380 600.482 395.384 C 600.488 395.389 655.916 440.128 655.922 440.132 C 655.911 440.131 560.486 428.070 560.477 428.069 C 560.480 428.074 597.421 481.851 597.424 481.856 C 597.417 481.854 518.314 457.766 518.305 457.763 C 518.307 457.770 543.221 517.560 543.224 517.566 C 543.217 517.563 468.821 484.025 468.814 484.021 C 468.815 484.028 477.406 551.964 477.407 551.970 C 477.401 551.966 420.187 502.517 420.181 502.512 C 420.179 502.519 397.431 571.314 397.429 571.320 M 360.000 396.656 C 379.206 395.625 397.380 377.451 397.429 359.228 C 397.479 340.513 378.714 321.799 360.000 321.799 C 341.286 321.799 322.571 340.513 322.571 359.228 C 322.571 377.942 341.286 396.606 360.000 396.656 Z"/>
</g>
<g id="specs_2">
<path fill="#ff00ff" fill-rule="evenodd" stroke="none" d="M 252.400 469.273 C 252.422 469.273 470.925 469.273 470.946 469.273 C 470.946 469.251 470.946 250.749 470.946 250.727 C 470.925 250.727 252.422 250.727 252.400 250.727 C 252.400 250.749 252.400 469.251 252.400 469.273 Z"/>
<path fill="#ff0000" fill-rule="evenodd" stroke="none" d="M 361.673 580.506 C 361.674 580.510 373.598 613.895 373.599 613.898 C 373.598 613.897 361.674 602.803 361.673 602.802 C 361.672 602.803 349.749 613.897 349.748 613.898 C 349.749 613.895 361.672 580.510 361.673 580.506 Z"/>
<path fill="#0000ff" fill-rule="evenodd" stroke="none" d="M 361.673 192.746 C 361.674 192.748 368.600 212.141 368.601 212.143 C 368.600 212.142 361.674 205.698 361.673 205.698 C 361.673 205.698 354.746 212.142 354.746 212.143 C 354.746 212.141 361.673 192.748 361.673 192.746 Z"/>
<path fill="#00ff00" fill-rule="evenodd" stroke="none" d="M 3.467 359.434 C 3.469 359.433 22.826 352.410 22.828 352.409 C 22.828 352.410 16.419 359.368 16.418 359.369 C 16.419 359.369 22.897 366.263 22.898 366.264 C 22.896 366.263 3.469 359.435 3.467 359.434 Z"/>
<path fill="#ffff00" fill-rule="evenodd" stroke="none" d="M 178.709 525.924 C 178.710 525.922 184.462 506.150 184.463 506.148 C 184.463 506.149 186.299 515.429 186.299 515.430 C 186.300 515.430 195.688 514.268 195.689 514.267 C 195.687 514.269 178.711 525.923 178.709 525.924 Z"/>
<path fill="#ffff00" fill-rule="evenodd" stroke="none" d="M 543.937 520.308 C 543.936 520.306 538.184 500.534 538.183 500.532 C 538.183 500.533 536.347 509.813 536.347 509.814 C 536.346 509.814 526.958 508.651 526.957 508.651 C 526.959 508.653 543.935 520.307 543.937 520.308 Z"/>
<path fill="#00ff00" fill-rule="evenodd" stroke="none" d="M 716.334 359.434 C 716.332 359.433 696.974 352.410 696.972 352.409 C 696.973 352.410 703.382 359.368 703.382 359.369 C 703.382 359.369 696.903 366.263 696.902 366.264 C 696.904 366.263 716.332 359.435 716.334 359.434 Z"/>
<path fill="#00ffff" fill-rule="evenodd" stroke="none" d="M 544.118 189.190 C 544.118 189.192 540.385 209.444 540.385 209.446 C 540.385 209.445 537.624 200.396 537.624 200.396 C 537.623 200.396 528.399 202.498 528.398 202.498 C 528.400 202.496 544.117 189.192 544.118 189.190 Z"/>
<path fill="#00ffff" fill-rule="evenodd" stroke="none" d="M 179.979 183.574 C 179.979 183.576 183.712 203.827 183.712 203.829 C 183.712 203.829 186.473 194.780 186.473 194.779 C 186.474 194.779 195.698 196.881 195.699 196.882 C 195.697 196.880 179.980 183.575 179.979 183.574 Z"/>
<path fill="#be0027" fill-rule="evenodd" stroke="none" d="M 361.645 523.692 C 361.646 523.690 367.568 507.108 367.569 507.106 C 367.568 507.107 361.646 512.617 361.645 512.617 C 361.645 512.617 355.723 507.107 355.722 507.106 C 355.723 507.108 361.645 523.690 361.645 523.692 Z"/>
</g>
</g>
</svg>
