<?xml version="1.0" encoding="utf-8"?>
<!-- Generator: Moho 12.5 build 22414 -->
<!DOCTYPE svg PUBLIC "-//W3C//DTD SVG 1.1//EN" "http://www.w3.org/Graphics/SVG/1.1/DTD/svg11.dtd">
<svg version="1.1" id="Frame_0" xmlns="http://www.w3.org/2000/svg" xmlns:xlink="http://www.w3.org/1999/xlink" width="720px" height="720px">
<g id="eye_vertical">
<g id="eye_vertical_">
<path fill="#ffffff" fill-rule="evenodd" stroke="#000000" stroke-width="4" stroke-linecap="round" stroke-linejoin="round" d="M 360.956 390.282 C 333.513 390.282 311.375 368.143 311.375 340.701 C 311.375 313.258 333.513 291.119 360.956 291.119 C 388.399 291.119 410.537 313.258 410.537 340.701 C 410.537 368.143 388.399 390.282 360.956 390.282 M 360.956 472.836 C 287.820 472.836 228.821 413.837 228.821 340.701 C 228.821 267.565 287.820 208.565 360.956 208.565 C 434.092 208.565 493.091 267.565 493.091 340.701 C 493.091 413.837 434.092 472.836 360.956 472.836 M 360.956 670.813 C 360.940 670.780 201.114 536.644 201.114 340.701 C 201.114 144.757 360.940 10.621 360.956 10.588 C 360.972 10.621 520.798 144.757 520.798 340.701 C 520.798 536.644 360.972 670.780 360.956 670.813 Z"/>
<path fill="none" stroke="#000000" stroke-width="1" stroke-linecap="butt" stroke-linejoin="round" d="M 360.956 390.282 C 333.513 390.282 311.375 368.143 311.375 340.701 "/>
<path fill="none" stroke="#000000" stroke-width="1" stroke-linecap="butt" stroke-linejoin="round" d="M 311.375 340.701 C 311.375 313.258 333.513 291.119 360.956 291.119 "/>
<path fill="none" stroke="#000000" stroke-width="1" stroke-linecap="butt" stroke-linejoin="round" d="M 360.956 291.119 C 388.399 291.119 410.537 313.258 410.537 340.701 "/>
<path fill="none" stroke="#000000" stroke-width="1" stroke-linecap="butt" stroke-linejoin="round" d="M 410.537 340.701 C 410.537 368.143 388.399 390.282 360.956 390.282 "/>
<path fill="none" stroke="#000000" stroke-width="1" stroke-linecap="butt" stroke-linejoin="round" d="M 360.956 472.836 C 287.820 472.836 228.821 413.837 228.821 340.701 "/>
<path fill="none" stroke="#000000" stroke-width="1" stroke-linecap="butt" stroke-linejoin="round" d="M 228.821 340.701 C 228.821 267.565 287.820 208.565 360.956 208.565 "/>
<path fill="none" stroke="#000000" stroke-width="1" stroke-linecap="butt" stroke-linejoin="round" d="M 360.956 208.565 C 434.092 208.565 493.091 267.565 493.091 340.701 "/>
<path fill="none" stroke="#000000" stroke-width="1" stroke-linecap="butt" stroke-linejoin="round" d="M 493.091 340.701 C 493.091 413.837 434.092 472.836 360.956 472.836 "/>
<path fill="#000000" fill-rule="evenodd" stroke="none" d="M 360.956 390.282 C 333.513 390.282 311.375 368.143 311.375 340.701 C 311.375 313.258 333.513 291.119 360.956 291.119 C 388.399 291.119 410.537 313.258 410.537 340.701 C 410.537 368.143 388.399 390.282 360.956 390.282 M 360.956 472.836 C 287.820 472.836 228.821 413.837 228.821 340.701 C 228.821 267.565 287.820 208.565 360.956 208.565 C 434.092 208.565 493.091 267.565 493.091 340.701 C 493.091 413.837 434.092 472.836 360.956 472.836 Z"/>
</g>
<g id="specs_">
<path fill="#ff00ff" fill-rule="evenodd" stroke="none" d="M 251.527 450.129 C 251.549 450.129 470.363 450.129 470.385 450.129 C 470.385 450.107 470.385 231.294 470.385 231.272 C 470.363 231.272 251.549 231.272 251.527 231.272 C 251.527 231.294 251.527 450.107 251.527 450.129 Z"/>
<path fill="#ff0000" fill-rule="evenodd" stroke="none" d="M 360.956 690.772 C 360.957 690.774 368.795 712.722 368.796 712.724 C 368.795 712.723 360.957 705.430 360.956 705.429 C 360.955 705.430 353.117 712.723 353.116 712.724 C 353.117 712.722 360.955 690.774 360.956 690.772 Z"/>
<path fill="#0000ff" fill-rule="evenodd" stroke="none" d="M 360.956 11.484 C 360.956 11.485 365.510 24.235 365.510 24.236 C 365.510 24.236 360.956 19.999 360.956 19.999 C 360.955 19.999 356.402 24.236 356.402 24.236 C 356.402 24.235 360.955 11.485 360.956 11.484 Z"/>
<path fill="#00ff00" fill-rule="evenodd" stroke="none" d="M 192.522 341.334 C 192.523 341.334 205.249 336.716 205.251 336.715 C 205.250 336.716 201.037 341.291 201.036 341.291 C 201.037 341.291 205.296 345.823 205.297 345.824 C 205.295 345.823 192.523 341.334 192.522 341.334 Z"/>
<path fill="#ffff00" fill-rule="evenodd" stroke="none" d="M 255.230 551.869 C 255.231 551.868 260.881 539.566 260.882 539.565 C 260.882 539.565 261.179 545.778 261.179 545.778 C 261.180 545.778 267.397 545.929 267.398 545.929 C 267.397 545.929 255.231 551.869 255.230 551.869 Z"/>
<path fill="#ffff00" fill-rule="evenodd" stroke="none" d="M 467.517 551.719 C 467.517 551.717 461.621 539.531 461.620 539.530 C 461.620 539.530 461.447 545.747 461.447 545.748 C 461.447 545.748 455.234 546.023 455.233 546.023 C 455.234 546.024 467.516 551.718 467.517 551.719 Z"/>
<path fill="#00ff00" fill-rule="evenodd" stroke="none" d="M 529.135 341.334 C 529.134 341.334 516.407 336.716 516.406 336.715 C 516.407 336.716 520.620 341.291 520.620 341.291 C 520.620 341.291 516.361 345.823 516.360 345.824 C 516.362 345.823 529.134 341.334 529.135 341.334 Z"/>
<path fill="#00ffff" fill-rule="evenodd" stroke="none" d="M 469.253 132.128 C 469.252 132.129 464.733 144.891 464.732 144.892 C 464.732 144.892 463.877 138.731 463.876 138.730 C 463.876 138.731 457.670 139.140 457.670 139.141 C 457.671 139.140 469.252 132.129 469.253 132.128 Z"/>
<path fill="#00ffff" fill-rule="evenodd" stroke="none" d="M 251.815 132.551 C 251.815 132.553 257.176 144.984 257.176 144.985 C 257.176 144.985 257.619 138.781 257.619 138.780 C 257.620 138.780 263.839 138.776 263.840 138.776 C 263.839 138.775 251.816 132.552 251.815 132.551 Z"/>
<path fill="#be0027" fill-rule="evenodd" stroke="none" d="M 360.929 676.243 C 360.930 676.241 366.633 660.273 366.633 660.271 C 366.633 660.272 360.930 665.578 360.929 665.578 C 360.929 665.578 355.226 660.272 355.225 660.271 C 355.226 660.273 360.929 676.241 360.929 676.243 Z"/>
</g>
</g>
</svg>
