<?xml version="1.0" encoding="utf-8"?>
<!-- Generator: Moho 12.5 build 22414 -->
<!DOCTYPE svg PUBLIC "-//W3C//DTD SVG 1.1//EN" "http://www.w3.org/Graphics/SVG/1.1/DTD/svg11.dtd">
<svg version="1.1" id="Frame_0" xmlns="http://www.w3.org/2000/svg" xmlns:xlink="http://www.w3.org/1999/xlink" width="720px" height="720px">
<g id="eye_vertical">
<g id="eye_vertical_">
<path fill="#ffffff" fill-rule="evenodd" stroke="#000000" stroke-width="4" stroke-linecap="round" stroke-linejoin="round" d="M 360.956 400.341 C 332.279 400.341 309.146 377.208 309.146 348.531 C 309.146 319.854 332.279 296.721 360.956 296.721 C 389.632 296.721 412.766 319.854 412.766 348.531 C 412.766 377.208 389.632 400.341 360.956 400.341 M 360.956 486.607 C 284.532 486.607 222.880 424.955 222.880 348.531 C 222.880 272.107 284.532 210.456 360.956 210.456 C 437.380 210.456 499.031 272.107 499.031 348.531 C 499.031 424.955 437.380 486.607 360.956 486.607 M 360.956 693.484 C 360.939 693.450 193.928 553.284 193.928 348.531 C 193.928 143.778 360.939 3.612 360.956 3.578 C 360.972 3.612 527.984 143.778 527.984 348.531 C 527.984 553.284 360.973 693.450 360.956 693.484 Z"/>
<path fill="none" stroke="#000000" stroke-width="1" stroke-linecap="butt" stroke-linejoin="round" d="M 360.956 400.341 C 332.279 400.341 309.146 377.208 309.146 348.531 "/>
<path fill="none" stroke="#000000" stroke-width="1" stroke-linecap="butt" stroke-linejoin="round" d="M 309.146 348.531 C 309.146 319.854 332.279 296.721 360.956 296.721 "/>
<path fill="none" stroke="#000000" stroke-width="1" stroke-linecap="butt" stroke-linejoin="round" d="M 360.956 296.721 C 389.632 296.721 412.766 319.854 412.766 348.531 "/>
<path fill="none" stroke="#000000" stroke-width="1" stroke-linecap="butt" stroke-linejoin="round" d="M 412.766 348.531 C 412.766 377.208 389.632 400.341 360.956 400.341 "/>
<path fill="none" stroke="#000000" stroke-width="1" stroke-linecap="butt" stroke-linejoin="round" d="M 360.956 486.607 C 284.532 486.607 222.880 424.955 222.880 348.531 "/>
<path fill="none" stroke="#000000" stroke-width="1" stroke-linecap="butt" stroke-linejoin="round" d="M 222.880 348.531 C 222.880 272.107 284.532 210.456 360.956 210.456 "/>
<path fill="none" stroke="#000000" stroke-width="1" stroke-linecap="butt" stroke-linejoin="round" d="M 360.956 210.456 C 437.380 210.456 499.031 272.107 499.031 348.531 "/>
<path fill="none" stroke="#000000" stroke-width="1" stroke-linecap="butt" stroke-linejoin="round" d="M 499.031 348.531 C 499.031 424.955 437.380 486.607 360.956 486.607 "/>
<path fill="#000000" fill-rule="evenodd" stroke="none" d="M 360.956 400.341 C 332.279 400.341 309.146 377.208 309.146 348.531 C 309.146 319.854 332.279 296.721 360.956 296.721 C 389.632 296.721 412.766 319.854 412.766 348.531 C 412.766 377.208 389.632 400.341 360.956 400.341 M 360.956 486.607 C 284.532 486.607 222.880 424.955 222.880 348.531 C 222.880 272.107 284.532 210.456 360.956 210.456 C 437.380 210.456 499.031 272.107 499.031 348.531 C 499.031 424.955 437.380 486.607 360.956 486.607 Z"/>
</g>
<g id="specs_">
<path fill="#ff00ff" fill-rule="evenodd" stroke="none" d="M 246.607 462.880 C 246.630 462.880 475.281 462.880 475.304 462.880 C 475.304 462.857 475.304 234.206 475.304 234.183 C 475.281 234.183 246.630 234.183 246.607 234.183 C 246.607 234.206 246.607 462.857 246.607 462.880 Z"/>
<path fill="#ff0000" fill-rule="evenodd" stroke="none" d="M 360.956 694.223 C 360.957 694.225 369.147 717.160 369.148 717.162 C 369.147 717.161 360.957 709.540 360.956 709.540 C 360.955 709.540 352.764 717.161 352.763 717.162 C 352.764 717.160 360.955 694.225 360.956 694.223 Z"/>
<path fill="#0000ff" fill-rule="evenodd" stroke="none" d="M 360.956 4.514 C 360.956 4.516 365.714 17.838 365.715 17.839 C 365.714 17.839 360.956 13.412 360.956 13.412 C 360.955 13.412 356.198 17.839 356.197 17.839 C 356.198 17.838 360.955 4.516 360.956 4.514 Z"/>
<path fill="#00ff00" fill-rule="evenodd" stroke="none" d="M 184.950 349.193 C 184.951 349.193 198.249 344.367 198.251 344.367 C 198.250 344.367 193.847 349.148 193.847 349.148 C 193.847 349.149 198.298 353.884 198.299 353.885 C 198.297 353.884 184.951 349.194 184.950 349.193 Z"/>
<path fill="#ffff00" fill-rule="evenodd" stroke="none" d="M 250.477 569.193 C 250.478 569.192 256.382 556.337 256.383 556.336 C 256.383 556.336 256.693 562.828 256.694 562.828 C 256.694 562.828 263.191 562.986 263.192 562.986 C 263.190 562.987 250.478 569.193 250.477 569.193 Z"/>
<path fill="#ffff00" fill-rule="evenodd" stroke="none" d="M 472.308 569.036 C 472.307 569.035 466.146 556.300 466.146 556.299 C 466.146 556.300 465.965 562.796 465.965 562.797 C 465.964 562.797 459.472 563.085 459.471 563.085 C 459.473 563.085 472.307 569.035 472.308 569.036 Z"/>
<path fill="#00ff00" fill-rule="evenodd" stroke="none" d="M 536.695 349.193 C 536.694 349.193 523.396 344.367 523.395 344.367 C 523.395 344.367 527.798 349.148 527.798 349.148 C 527.798 349.149 523.347 353.884 523.347 353.885 C 523.348 353.884 536.694 349.194 536.695 349.193 Z"/>
<path fill="#00ffff" fill-rule="evenodd" stroke="none" d="M 474.121 130.582 C 474.121 130.583 469.398 143.918 469.398 143.920 C 469.398 143.919 468.503 137.482 468.503 137.481 C 468.503 137.481 462.018 137.910 462.017 137.910 C 462.019 137.909 474.120 130.583 474.121 130.582 Z"/>
<path fill="#00ffff" fill-rule="evenodd" stroke="none" d="M 246.908 131.024 C 246.909 131.025 252.510 144.016 252.510 144.017 C 252.511 144.016 252.974 137.534 252.974 137.533 C 252.974 137.533 259.473 137.528 259.474 137.528 C 259.472 137.528 246.909 131.025 246.908 131.024 Z"/>
</g>
</g>
</svg>
