<?xml version="1.0" encoding="utf-8"?>
<!-- Generator: Moho 12.5 build 22414 -->
<!DOCTYPE svg PUBLIC "-//W3C//DTD SVG 1.1//EN" "http://www.w3.org/Graphics/SVG/1.1/DTD/svg11.dtd">
<svg version="1.1" id="Frame_0" xmlns="http://www.w3.org/2000/svg" xmlns:xlink="http://www.w3.org/1999/xlink" width="720px" height="720px">
<g id="eyeball">
<g id="starburst_2">
<path fill="#000000" fill-rule="evenodd" stroke="none" d="M 360.000 581.222 C 360.002 581.208 375.414 443.434 375.416 443.420 C 375.420 443.433 418.038 575.382 418.043 575.395 C 418.041 575.382 404.818 437.459 404.816 437.445 C 404.823 437.457 472.051 558.665 472.058 558.677 C 472.054 558.664 431.813 426.082 431.809 426.069 C 431.818 426.080 520.893 532.201 520.902 532.212 C 520.895 532.200 455.802 409.903 455.796 409.891 C 455.807 409.900 563.419 497.134 563.430 497.143 C 563.421 497.132 476.187 389.520 476.178 389.509 C 476.190 389.516 598.486 454.609 598.499 454.615 C 598.488 454.606 492.367 365.531 492.356 365.522 C 492.369 365.526 624.951 405.767 624.964 405.771 C 624.952 405.765 503.744 338.536 503.732 338.529 C 503.746 338.531 641.669 351.755 641.682 351.756 C 641.669 351.752 509.720 309.133 509.707 309.129 C 509.721 309.127 647.495 293.715 647.509 293.713 C 647.495 293.712 509.721 278.299 509.707 278.297 C 509.720 278.293 641.669 235.675 641.682 235.670 C 641.669 235.672 503.746 248.896 503.732 248.897 C 503.744 248.890 624.952 181.662 624.964 181.655 C 624.951 181.659 492.369 221.900 492.356 221.904 C 492.367 221.895 598.488 132.820 598.499 132.811 C 598.486 132.818 476.190 197.911 476.178 197.917 C 476.187 197.907 563.421 90.294 563.430 90.283 C 563.419 90.292 455.807 177.527 455.796 177.535 C 455.803 177.523 520.896 55.227 520.902 55.214 C 520.893 55.225 431.818 161.347 431.809 161.357 C 431.813 161.344 472.054 28.763 472.058 28.749 C 472.051 28.761 404.823 149.969 404.816 149.981 C 404.818 149.967 418.041 12.045 418.043 12.031 C 418.038 12.044 375.420 143.993 375.416 144.006 C 375.414 143.992 360.002 6.218 360.000 6.204 C 359.998 6.218 344.586 143.992 344.584 144.006 C 344.580 143.993 301.962 12.044 301.957 12.031 C 301.959 12.045 315.182 149.967 315.184 149.981 C 315.177 149.969 247.949 28.761 247.942 28.749 C 247.946 28.763 288.187 161.344 288.191 161.357 C 288.182 161.347 199.107 55.225 199.098 55.214 C 199.105 55.227 264.198 177.523 264.204 177.535 C 264.193 177.527 156.581 90.292 156.570 90.283 C 156.579 90.294 243.813 197.906 243.822 197.917 C 243.810 197.911 121.514 132.818 121.501 132.811 C 121.512 132.820 227.633 221.895 227.644 221.904 C 227.631 221.900 95.049 181.659 95.036 181.655 C 95.048 181.662 216.256 248.890 216.268 248.897 C 216.254 248.896 78.332 235.672 78.318 235.670 C 78.331 235.675 210.280 278.293 210.293 278.297 C 210.279 278.299 72.505 293.712 72.491 293.713 C 72.505 293.715 210.279 309.127 210.293 309.129 C 210.280 309.133 78.331 351.752 78.318 351.756 C 78.332 351.755 216.254 338.531 216.268 338.529 C 216.256 338.536 95.048 405.765 95.036 405.771 C 95.049 405.767 227.631 365.526 227.644 365.522 C 227.633 365.531 121.512 454.606 121.501 454.615 C 121.514 454.608 243.810 389.515 243.822 389.509 C 243.813 389.520 156.579 497.132 156.570 497.143 C 156.581 497.134 264.193 409.900 264.204 409.891 C 264.197 409.903 199.105 532.200 199.098 532.212 C 199.107 532.201 288.182 426.080 288.191 426.069 C 288.187 426.082 247.946 558.664 247.942 558.677 C 247.949 558.665 315.177 437.457 315.184 437.445 C 315.182 437.459 301.959 575.382 301.957 575.395 C 301.962 575.382 344.580 443.433 344.584 443.420 C 344.586 443.434 359.998 581.208 360.000 581.222 Z"/>
</g>
<g id="eyeball">
<path fill="#ffffff" fill-rule="evenodd" stroke="#000000" stroke-width="3" stroke-linejoin="round" d="M 360.000 82.066 C 477.145 82.066 571.647 176.568 571.647 293.713 C 571.647 410.858 477.145 505.360 360.000 505.360 C 242.855 505.360 148.353 410.858 148.353 293.713 C 148.353 176.568 242.855 82.066 360.000 82.066 Z"/>
<path fill="#000000" fill-rule="evenodd" stroke="#ffffff" stroke-width="3" stroke-linejoin="round" d="M 314.992 190.779 C 385.805 190.779 442.930 247.905 442.930 318.718 C 442.930 389.531 385.805 446.656 314.992 446.656 C 244.179 446.656 187.054 389.531 187.054 318.718 C 187.054 247.905 244.179 190.779 314.992 190.779 Z"/>
<path fill="#ffffff" fill-rule="evenodd" stroke="#000000" stroke-width="3" stroke-linejoin="round" d="M 299.565 296.866 C 316.997 296.866 331.059 310.928 331.059 328.359 C 331.059 345.790 316.997 359.853 299.565 359.853 C 282.134 359.853 268.072 345.790 268.072 328.359 C 268.072 310.928 282.134 296.866 299.565 296.866 Z"/>
</g>
<g id="specs_2">
<path fill="#ff00ff" fill-rule="evenodd" stroke="none" d="M 215.458 412.397 C 215.475 412.397 384.458 412.397 384.475 412.397 C 384.475 412.380 384.475 243.397 384.475 243.380 C 384.458 243.380 215.475 243.380 215.458 243.380 C 215.458 243.397 215.458 412.380 215.458 412.397 Z"/>
<path fill="#ff0000" fill-rule="evenodd" stroke="none" d="M 360.057 682.723 C 360.058 682.725 367.963 704.859 367.964 704.862 C 367.963 704.861 360.058 697.506 360.057 697.505 C 360.056 697.506 352.151 704.861 352.151 704.862 C 352.151 704.859 360.056 682.725 360.057 682.723 Z"/>
<path fill="#0000ff" fill-rule="evenodd" stroke="none" d="M 360.057 75.822 C 360.058 75.823 364.649 88.680 364.650 88.682 C 364.649 88.681 360.058 84.409 360.057 84.409 C 360.057 84.409 355.465 88.681 355.465 88.682 C 355.465 88.680 360.057 75.823 360.057 75.822 Z"/>
<path fill="#00ff00" fill-rule="evenodd" stroke="none" d="M 143.154 294.095 C 143.155 294.094 155.989 289.437 155.990 289.437 C 155.990 289.437 151.741 294.051 151.740 294.051 C 151.741 294.052 156.036 298.622 156.037 298.622 C 156.035 298.622 143.155 294.095 143.154 294.095 Z"/>
<path fill="#ffff00" fill-rule="evenodd" stroke="none" d="M 206.394 448.306 C 206.394 448.305 212.093 435.898 212.093 435.897 C 212.093 435.898 212.393 442.163 212.393 442.163 C 212.394 442.163 218.664 442.315 218.664 442.315 C 218.663 442.316 206.395 448.305 206.394 448.306 Z"/>
<path fill="#ffff00" fill-rule="evenodd" stroke="none" d="M 514.564 448.154 C 514.563 448.153 508.617 435.863 508.617 435.862 C 508.616 435.862 508.442 442.132 508.442 442.133 C 508.441 442.133 502.176 442.410 502.175 442.410 C 502.176 442.411 514.562 448.154 514.564 448.154 Z"/>
<path fill="#00ff00" fill-rule="evenodd" stroke="none" d="M 577.626 294.095 C 577.625 294.094 564.791 289.437 564.789 289.437 C 564.790 289.437 569.039 294.051 569.039 294.051 C 569.039 294.052 564.743 298.622 564.743 298.622 C 564.744 298.622 577.625 294.095 577.626 294.095 Z"/>
<path fill="#00ffff" fill-rule="evenodd" stroke="none" d="M 513.547 139.379 C 513.546 139.381 508.988 152.250 508.988 152.251 C 508.988 152.251 508.125 146.038 508.125 146.038 C 508.124 146.038 501.866 146.451 501.865 146.451 C 501.866 146.450 513.545 139.380 513.547 139.379 Z"/>
<path fill="#00ffff" fill-rule="evenodd" stroke="none" d="M 206.639 139.806 C 206.639 139.807 212.045 152.344 212.046 152.345 C 212.046 152.345 212.493 146.089 212.493 146.088 C 212.493 146.088 218.765 146.083 218.766 146.083 C 218.765 146.083 206.640 139.807 206.639 139.806 Z"/>
<path fill="#be0027" fill-rule="evenodd" stroke="none" d="M 360.057 518.884 C 360.058 518.882 367.963 496.748 367.964 496.746 C 367.963 496.746 360.058 504.102 360.057 504.102 C 360.056 504.102 352.151 496.746 352.151 496.746 C 352.151 496.748 360.056 518.882 360.057 518.884 Z"/>
</g>
</g>
</svg>
