<?xml version="1.0" encoding="utf-8"?>
<!-- Generator: Moho 12.5 build 22414 -->
<!DOCTYPE svg PUBLIC "-//W3C//DTD SVG 1.1//EN" "http://www.w3.org/Graphics/SVG/1.1/DTD/svg11.dtd">
<svg version="1.1" id="Frame_0" xmlns="http://www.w3.org/2000/svg" xmlns:xlink="http://www.w3.org/1999/xlink" width="720px" height="720px">
<g id="eyeball">
<g id="eyeball">
<path fill="#ffffff" fill-rule="evenodd" stroke="#000000" stroke-width="4" stroke-linejoin="round" d="M 360.000 49.171 C 517.186 49.171 643.988 175.974 643.988 333.159 C 643.988 490.345 517.186 617.147 360.000 617.147 C 202.814 617.147 76.012 490.345 76.012 333.159 C 76.012 175.974 202.814 49.171 360.000 49.171 Z"/>
<path fill="#000000" fill-rule="evenodd" stroke="#ffffff" stroke-width="4" stroke-linejoin="round" d="M 286.188 253.624 C 354.351 253.624 409.340 308.612 409.340 376.776 C 409.340 444.939 354.351 499.928 286.188 499.928 C 218.024 499.928 163.036 444.939 163.036 376.776 C 163.036 308.612 218.024 253.624 286.188 253.624 Z"/>
<path fill="#ffffff" fill-rule="evenodd" stroke="#000000" stroke-width="4" stroke-linejoin="round" d="M 286.188 340.786 C 306.107 340.786 322.177 356.856 322.177 376.776 C 322.177 396.695 306.107 412.765 286.188 412.765 C 266.268 412.765 250.198 396.695 250.198 376.776 C 250.198 356.856 266.268 340.786 286.188 340.786 Z"/>
</g>
<g id="specs_2">
<path fill="#ff00ff" fill-rule="evenodd" stroke="none" d="M 190.567 471.009 C 190.587 471.009 381.942 471.009 381.961 471.009 C 381.961 470.990 381.961 279.634 381.961 279.615 C 381.942 279.615 190.587 279.615 190.567 279.615 C 190.567 279.634 190.567 470.990 190.567 471.009 Z"/>
<path fill="#ff0000" fill-rule="evenodd" stroke="none" d="M 360.077 672.754 C 360.078 672.757 370.685 702.457 370.686 702.460 C 370.685 702.458 360.078 692.589 360.077 692.589 C 360.076 692.589 349.469 702.458 349.468 702.460 C 349.469 702.457 360.076 672.757 360.077 672.754 Z"/>
<path fill="#0000ff" fill-rule="evenodd" stroke="none" d="M 360.077 40.792 C 360.077 40.794 366.239 58.046 366.239 58.048 C 366.239 58.047 360.077 52.314 360.077 52.314 C 360.076 52.314 353.915 58.047 353.914 58.048 C 353.915 58.046 360.076 40.794 360.077 40.792 Z"/>
<path fill="#00ff00" fill-rule="evenodd" stroke="none" d="M 69.035 333.671 C 69.037 333.670 86.258 327.422 86.259 327.421 C 86.259 327.422 80.557 333.612 80.557 333.613 C 80.557 333.614 86.321 339.746 86.321 339.746 C 86.320 339.746 69.037 333.672 69.035 333.671 Z"/>
<path fill="#ffff00" fill-rule="evenodd" stroke="none" d="M 153.891 540.592 C 153.891 540.591 161.538 523.943 161.538 523.942 C 161.538 523.943 161.941 532.349 161.941 532.350 C 161.942 532.350 170.355 532.554 170.356 532.554 C 170.354 532.554 153.892 540.591 153.891 540.592 Z"/>
<path fill="#ffff00" fill-rule="evenodd" stroke="none" d="M 567.394 540.388 C 567.393 540.387 559.415 523.896 559.414 523.894 C 559.414 523.895 559.180 532.308 559.180 532.309 C 559.179 532.309 550.771 532.682 550.771 532.682 C 550.772 532.682 567.392 540.388 567.394 540.388 Z"/>
<path fill="#00ff00" fill-rule="evenodd" stroke="none" d="M 652.011 333.671 C 652.009 333.670 634.788 327.422 634.787 327.421 C 634.787 327.422 640.489 333.612 640.489 333.613 C 640.489 333.614 634.725 339.746 634.725 339.746 C 634.726 339.746 652.009 333.672 652.011 333.671 Z"/>
<path fill="#00ffff" fill-rule="evenodd" stroke="none" d="M 566.029 126.074 C 566.029 126.076 559.913 143.344 559.912 143.346 C 559.912 143.345 558.754 135.009 558.754 135.008 C 558.753 135.008 550.356 135.563 550.355 135.563 C 550.356 135.562 566.028 126.075 566.029 126.074 Z"/>
<path fill="#00ffff" fill-rule="evenodd" stroke="none" d="M 154.220 126.646 C 154.220 126.648 161.474 143.470 161.475 143.472 C 161.475 143.471 162.074 135.076 162.074 135.075 C 162.075 135.075 170.491 135.069 170.492 135.069 C 170.490 135.068 154.221 126.647 154.220 126.646 Z"/>
<path fill="#be0027" fill-rule="evenodd" stroke="none" d="M 360.077 635.294 C 360.078 635.291 370.685 605.592 370.686 605.589 C 370.685 605.590 360.078 615.459 360.077 615.460 C 360.076 615.459 349.469 605.590 349.468 605.589 C 349.469 605.592 360.076 635.291 360.077 635.294 Z"/>
</g>
</g>
</svg>
