<?xml version="1.0" encoding="utf-8"?>
<!-- Generator: Moho 12.5 build 22414 -->
<!DOCTYPE svg PUBLIC "-//W3C//DTD SVG 1.1//EN" "http://www.w3.org/Graphics/SVG/1.1/DTD/svg11.dtd">
<svg version="1.1" id="Frame_0" xmlns="http://www.w3.org/2000/svg" xmlns:xlink="http://www.w3.org/1999/xlink" width="720px" height="720px">
<g id="eyeball">
<g id="starburst_2">
<path fill="#000000" fill-rule="evenodd" stroke="none" d="M 360.000 541.068 C 360.001 541.056 374.347 412.817 374.349 412.804 C 374.353 412.817 414.021 535.633 414.025 535.645 C 414.024 535.632 401.716 407.256 401.714 407.243 C 401.721 407.254 464.296 520.072 464.302 520.084 C 464.298 520.071 426.843 396.667 426.839 396.654 C 426.847 396.664 509.757 495.440 509.765 495.450 C 509.759 495.439 449.171 381.607 449.165 381.596 C 449.175 381.604 549.340 462.801 549.350 462.809 C 549.341 462.799 468.145 362.635 468.137 362.625 C 468.148 362.631 581.979 423.219 581.991 423.225 C 581.981 423.216 483.205 340.307 483.195 340.298 C 483.207 340.302 606.612 377.758 606.624 377.761 C 606.613 377.755 493.795 315.180 493.784 315.174 C 493.796 315.175 622.173 327.484 622.185 327.485 C 622.173 327.481 499.357 287.812 499.345 287.808 C 499.358 287.807 627.596 273.461 627.609 273.460 C 627.596 273.458 499.358 259.112 499.345 259.111 C 499.357 259.107 622.173 219.438 622.185 219.434 C 622.173 219.436 493.796 231.744 493.784 231.745 C 493.795 231.739 606.613 169.164 606.624 169.158 C 606.612 169.161 483.207 206.617 483.195 206.621 C 483.205 206.612 581.981 123.703 581.991 123.695 C 581.979 123.701 468.148 184.288 468.137 184.294 C 468.145 184.284 549.341 84.120 549.350 84.110 C 549.340 84.118 449.176 165.315 449.165 165.323 C 449.172 165.312 509.759 51.480 509.765 51.469 C 509.757 51.479 426.847 150.255 426.839 150.265 C 426.843 150.252 464.298 26.848 464.302 26.835 C 464.296 26.847 401.721 139.665 401.714 139.676 C 401.716 139.663 414.024 11.287 414.025 11.274 C 414.021 11.286 374.353 134.102 374.349 134.115 C 374.347 134.102 360.001 5.863 360.000 5.851 C 359.999 5.863 345.653 134.102 345.651 134.115 C 345.647 134.102 305.979 11.286 305.975 11.274 C 305.976 11.287 318.284 139.663 318.286 139.676 C 318.279 139.665 255.704 26.847 255.698 26.835 C 255.702 26.848 293.157 150.252 293.161 150.265 C 293.153 150.255 210.244 51.479 210.235 51.469 C 210.241 51.480 270.829 165.312 270.835 165.323 C 270.825 165.315 170.660 84.118 170.650 84.110 C 170.659 84.120 251.855 184.284 251.863 184.294 C 251.852 184.288 138.021 123.701 138.009 123.694 C 138.019 123.703 236.795 206.612 236.805 206.621 C 236.793 206.617 113.388 169.161 113.376 169.158 C 113.387 169.164 226.205 231.739 226.216 231.745 C 226.204 231.744 97.827 219.436 97.815 219.434 C 97.827 219.438 220.643 259.107 220.655 259.111 C 220.642 259.112 92.404 273.458 92.391 273.460 C 92.404 273.461 220.642 287.807 220.655 287.808 C 220.643 287.812 97.827 327.481 97.815 327.485 C 97.827 327.484 226.204 315.175 226.216 315.174 C 226.205 315.180 113.387 377.755 113.376 377.761 C 113.388 377.758 236.793 340.302 236.805 340.298 C 236.795 340.307 138.019 423.216 138.009 423.224 C 138.021 423.218 251.852 362.631 251.863 362.625 C 251.855 362.635 170.659 462.799 170.650 462.809 C 170.660 462.801 270.825 381.604 270.835 381.596 C 270.828 381.607 210.241 495.439 210.235 495.450 C 210.243 495.440 293.153 396.664 293.161 396.654 C 293.157 396.667 255.702 520.071 255.698 520.084 C 255.704 520.072 318.279 407.254 318.286 407.243 C 318.284 407.256 305.976 535.632 305.975 535.645 C 305.979 535.633 345.647 412.817 345.651 412.804 C 345.653 412.817 359.999 541.056 360.000 541.068 Z"/>
</g>
<g id="eyeball">
<path fill="#ffffff" fill-rule="evenodd" stroke="#000000" stroke-width="3" stroke-linejoin="round" d="M 360.000 51.818 C 482.677 51.818 581.641 150.782 581.641 273.460 C 581.641 396.137 482.677 495.101 360.000 495.101 C 237.323 495.101 138.359 396.137 138.359 273.460 C 138.359 150.782 237.323 51.818 360.000 51.818 Z"/>
<path fill="#000000" fill-rule="evenodd" stroke="#ffffff" stroke-width="3" stroke-linejoin="round" d="M 312.866 165.665 C 387.023 165.665 446.846 225.488 446.846 299.645 C 446.846 373.802 387.023 433.625 312.866 433.625 C 238.710 433.625 178.887 373.802 178.887 299.645 C 178.887 225.488 238.710 165.665 312.866 165.665 Z"/>
<path fill="#ffffff" fill-rule="evenodd" stroke="#000000" stroke-width="3" stroke-linejoin="round" d="M 296.712 276.761 C 314.966 276.761 329.692 291.487 329.692 309.742 C 329.692 327.996 314.966 342.722 296.712 342.722 C 278.457 342.722 263.731 327.996 263.731 309.742 C 263.731 291.487 278.457 276.761 296.712 276.761 Z"/>
</g>
<g id="specs_2">
<path fill="#ff00ff" fill-rule="evenodd" stroke="none" d="M 208.633 397.748 C 208.651 397.748 385.613 397.748 385.631 397.748 C 385.631 397.730 385.631 220.767 385.631 220.750 C 385.613 220.750 208.651 220.750 208.633 220.750 C 208.633 220.767 208.633 397.730 208.633 397.748 Z"/>
<path fill="#ff0000" fill-rule="evenodd" stroke="none" d="M 360.060 680.839 C 360.061 680.842 368.339 704.021 368.340 704.023 C 368.339 704.023 360.061 696.320 360.060 696.320 C 360.059 696.320 351.781 704.023 351.780 704.023 C 351.781 704.021 360.059 680.842 360.060 680.839 Z"/>
<path fill="#0000ff" fill-rule="evenodd" stroke="none" d="M 360.060 45.279 C 360.060 45.280 364.869 58.745 364.869 58.746 C 364.869 58.746 360.060 54.272 360.060 54.271 C 360.059 54.272 355.251 58.746 355.250 58.746 C 355.251 58.745 360.059 45.280 360.060 45.279 Z"/>
<path fill="#00ff00" fill-rule="evenodd" stroke="none" d="M 132.914 273.859 C 132.915 273.859 146.355 268.982 146.356 268.981 C 146.356 268.982 141.906 273.813 141.906 273.814 C 141.906 273.814 146.404 278.600 146.405 278.601 C 146.404 278.600 132.915 273.859 132.914 273.859 Z"/>
<path fill="#ffff00" fill-rule="evenodd" stroke="none" d="M 199.140 435.353 C 199.141 435.351 205.108 422.359 205.109 422.358 C 205.109 422.358 205.423 428.919 205.423 428.920 C 205.424 428.920 211.990 429.079 211.990 429.079 C 211.989 429.080 199.141 435.352 199.140 435.353 Z"/>
<path fill="#ffff00" fill-rule="evenodd" stroke="none" d="M 521.863 435.194 C 521.862 435.192 515.635 422.322 515.635 422.321 C 515.635 422.321 515.452 428.887 515.452 428.888 C 515.451 428.888 508.889 429.179 508.889 429.179 C 508.890 429.179 521.861 435.193 521.863 435.194 Z"/>
<path fill="#00ff00" fill-rule="evenodd" stroke="none" d="M 587.903 273.859 C 587.901 273.859 574.461 268.982 574.460 268.981 C 574.460 268.982 578.910 273.813 578.911 273.814 C 578.910 273.814 574.412 278.600 574.411 278.601 C 574.413 278.600 587.901 273.859 587.903 273.859 Z"/>
<path fill="#00ffff" fill-rule="evenodd" stroke="none" d="M 520.797 111.838 C 520.797 111.839 516.024 125.316 516.023 125.318 C 516.023 125.317 515.120 118.811 515.119 118.811 C 515.119 118.811 508.565 119.243 508.564 119.243 C 508.565 119.243 520.796 111.838 520.797 111.838 Z"/>
<path fill="#00ffff" fill-rule="evenodd" stroke="none" d="M 199.397 112.284 C 199.397 112.286 205.058 125.415 205.059 125.416 C 205.059 125.415 205.527 118.864 205.527 118.863 C 205.528 118.863 212.096 118.858 212.096 118.858 C 212.095 118.857 199.398 112.285 199.397 112.284 Z"/>
<path fill="#be0027" fill-rule="evenodd" stroke="none" d="M 360.060 509.264 C 360.061 509.262 368.339 486.082 368.340 486.080 C 368.339 486.081 360.061 493.783 360.060 493.784 C 360.059 493.783 351.781 486.081 351.780 486.080 C 351.781 486.082 360.059 509.262 360.060 509.264 Z"/>
</g>
</g>
</svg>
