<?xml version="1.0" encoding="utf-8"?>
<!-- Generator: Moho 12.5 build 22414 -->
<!DOCTYPE svg PUBLIC "-//W3C//DTD SVG 1.1//EN" "http://www.w3.org/Graphics/SVG/1.1/DTD/svg11.dtd">
<svg version="1.1" id="Frame_0" xmlns="http://www.w3.org/2000/svg" xmlns:xlink="http://www.w3.org/1999/xlink" width="720px" height="720px">
<g id="eyeball">
<g id="eyeball">
<path fill="#ffffff" fill-rule="evenodd" stroke="#000000" stroke-width="3" stroke-linejoin="round" d="M 360.000 18.319 C 495.883 18.319 605.501 127.937 605.501 263.820 C 605.501 399.704 495.883 509.322 360.000 509.322 C 224.117 509.322 114.499 399.704 114.499 263.820 C 114.499 127.937 224.117 18.319 360.000 18.319 Z"/>
<path fill="#000000" fill-rule="evenodd" stroke="#ffffff" stroke-width="3" stroke-linejoin="round" d="M 307.793 144.422 C 389.933 144.422 456.195 210.684 456.195 292.824 C 456.195 374.964 389.933 441.227 307.793 441.227 C 225.652 441.227 159.390 374.964 159.390 292.824 C 159.390 210.684 225.652 144.422 307.793 144.422 Z"/>
<path fill="#ffffff" fill-rule="evenodd" stroke="#000000" stroke-width="3" stroke-linejoin="round" d="M 289.898 267.477 C 310.118 267.477 326.430 283.788 326.430 304.008 C 326.430 324.228 310.118 340.539 289.898 340.539 C 269.679 340.539 253.367 324.228 253.367 304.008 C 253.367 283.788 269.679 267.477 289.898 267.477 Z"/>
</g>
<g id="specs_2">
<path fill="#ff00ff" fill-rule="evenodd" stroke="none" d="M 199.675 399.743 C 199.697 399.743 414.087 399.743 414.109 399.743 C 414.109 399.721 414.109 185.331 414.109 185.309 C 414.087 185.309 199.697 185.309 199.675 185.309 C 199.675 185.331 199.675 399.721 199.675 399.743 Z"/>
<path fill="#ff0000" fill-rule="evenodd" stroke="none" d="M 360.066 685.977 C 360.067 685.980 369.237 711.655 369.238 711.657 C 369.237 711.656 360.067 703.125 360.066 703.124 C 360.065 703.125 350.896 711.656 350.895 711.657 C 350.896 711.655 360.065 685.980 360.066 685.977 Z"/>
<path fill="#0000ff" fill-rule="evenodd" stroke="none" d="M 360.066 11.075 C 360.067 11.077 365.393 25.991 365.394 25.993 C 365.393 25.992 360.067 21.036 360.066 21.036 C 360.066 21.036 354.740 25.992 354.739 25.993 C 354.740 25.991 360.066 11.077 360.066 11.075 Z"/>
<path fill="#00ff00" fill-rule="evenodd" stroke="none" d="M 108.467 264.263 C 108.469 264.262 123.356 258.860 123.357 258.860 C 123.357 258.860 118.428 264.212 118.428 264.212 C 118.428 264.213 123.411 269.514 123.411 269.515 C 123.410 269.514 108.469 264.263 108.467 264.263 Z"/>
<path fill="#ffff00" fill-rule="evenodd" stroke="none" d="M 181.823 443.141 C 181.824 443.140 188.434 428.749 188.434 428.747 C 188.434 428.748 188.782 436.015 188.782 436.016 C 188.783 436.016 196.056 436.192 196.057 436.192 C 196.055 436.193 181.825 443.141 181.823 443.141 Z"/>
<path fill="#ffff00" fill-rule="evenodd" stroke="none" d="M 539.287 442.965 C 539.287 442.964 532.389 428.708 532.389 428.706 C 532.389 428.707 532.186 435.980 532.186 435.981 C 532.186 435.981 524.918 436.303 524.917 436.303 C 524.918 436.304 539.286 442.965 539.287 442.965 Z"/>
<path fill="#00ff00" fill-rule="evenodd" stroke="none" d="M 612.437 264.263 C 612.435 264.262 597.548 258.860 597.547 258.860 C 597.547 258.860 602.476 264.212 602.477 264.212 C 602.476 264.213 597.494 269.514 597.493 269.515 C 597.495 269.514 612.435 264.263 612.437 264.263 Z"/>
<path fill="#00ffff" fill-rule="evenodd" stroke="none" d="M 538.107 84.800 C 538.107 84.801 532.820 99.729 532.820 99.731 C 532.819 99.730 531.818 92.524 531.818 92.523 C 531.817 92.523 524.558 93.002 524.557 93.002 C 524.559 93.002 538.106 84.800 538.107 84.800 Z"/>
<path fill="#00ffff" fill-rule="evenodd" stroke="none" d="M 182.108 85.294 C 182.108 85.296 188.379 99.838 188.379 99.840 C 188.379 99.839 188.898 92.582 188.898 92.581 C 188.899 92.581 196.174 92.576 196.174 92.576 C 196.173 92.575 182.109 85.295 182.108 85.294 Z"/>
<path fill="#be0027" fill-rule="evenodd" stroke="none" d="M 360.066 525.009 C 360.067 525.007 369.237 499.332 369.238 499.329 C 369.237 499.330 360.067 507.862 360.066 507.863 C 360.065 507.862 350.896 499.330 350.895 499.329 C 350.896 499.332 360.065 525.007 360.066 525.009 Z"/>
</g>
</g>
</svg>
