<?xml version="1.0" encoding="utf-8"?>
<!-- Generator: Moho 12.5 build 22414 -->
<!DOCTYPE svg PUBLIC "-//W3C//DTD SVG 1.1//EN" "http://www.w3.org/Graphics/SVG/1.1/DTD/svg11.dtd">
<svg version="1.1" id="Frame_0" xmlns="http://www.w3.org/2000/svg" xmlns:xlink="http://www.w3.org/1999/xlink" width="720px" height="720px">
<g id="eyeball">
<g id="eyeball">
<path fill="#ffffff" fill-rule="evenodd" stroke="#000000" stroke-width="3" stroke-linejoin="round" d="M 360.000 13.083 C 491.972 13.083 598.435 119.546 598.435 251.518 C 598.435 383.490 491.972 489.953 360.000 489.953 C 228.028 489.953 121.565 383.490 121.565 251.518 C 121.565 119.546 228.028 13.083 360.000 13.083 Z"/>
<path fill="#000000" fill-rule="evenodd" stroke="#ffffff" stroke-width="3" stroke-linejoin="round" d="M 309.295 135.556 C 389.071 135.556 453.427 199.912 453.427 279.688 C 453.427 359.463 389.071 423.819 309.295 423.819 C 229.519 423.819 165.164 359.463 165.164 279.688 C 165.164 199.912 229.519 135.556 309.295 135.556 Z"/>
<path fill="#ffffff" fill-rule="evenodd" stroke="#000000" stroke-width="3" stroke-linejoin="round" d="M 291.916 255.070 C 311.554 255.070 327.396 270.911 327.396 290.549 C 327.396 310.187 311.554 326.029 291.916 326.029 C 272.278 326.029 256.437 310.187 256.437 290.549 C 256.437 270.911 272.278 255.070 291.916 255.070 Z"/>
</g>
<g id="specs_2">
<path fill="#ff00ff" fill-rule="evenodd" stroke="none" d="M 197.164 385.223 C 197.183 385.223 387.554 385.223 387.573 385.223 C 387.573 385.204 387.573 194.834 387.573 194.815 C 387.554 194.815 197.183 194.815 197.164 194.815 C 197.164 194.834 197.164 385.204 197.164 385.223 Z"/>
<path fill="#ff0000" fill-rule="evenodd" stroke="none" d="M 360.064 689.765 C 360.065 689.768 368.971 714.703 368.972 714.706 C 368.971 714.705 360.065 706.419 360.064 706.418 C 360.064 706.419 351.158 714.705 351.157 714.706 C 351.158 714.703 360.064 689.768 360.064 689.765 Z"/>
<path fill="#0000ff" fill-rule="evenodd" stroke="none" d="M 360.064 6.048 C 360.065 6.050 365.238 20.534 365.238 20.536 C 365.238 20.535 360.065 15.722 360.064 15.722 C 360.064 15.722 354.891 20.535 354.890 20.536 C 354.891 20.534 360.064 6.050 360.064 6.048 Z"/>
<path fill="#00ff00" fill-rule="evenodd" stroke="none" d="M 115.707 251.948 C 115.709 251.947 130.167 246.701 130.169 246.701 C 130.168 246.701 125.381 251.899 125.381 251.899 C 125.381 251.900 130.220 257.048 130.221 257.049 C 130.219 257.048 115.709 251.948 115.707 251.948 Z"/>
<path fill="#ffff00" fill-rule="evenodd" stroke="none" d="M 186.952 425.678 C 186.952 425.677 193.372 411.700 193.373 411.698 C 193.373 411.699 193.711 418.757 193.711 418.758 C 193.711 418.758 200.775 418.929 200.776 418.929 C 200.774 418.929 186.953 425.677 186.952 425.678 Z"/>
<path fill="#ffff00" fill-rule="evenodd" stroke="none" d="M 534.127 425.507 C 534.126 425.505 527.428 411.660 527.427 411.658 C 527.427 411.659 527.230 418.723 527.230 418.723 C 527.230 418.723 520.171 419.036 520.170 419.036 C 520.171 419.037 534.125 425.506 534.127 425.507 Z"/>
<path fill="#00ff00" fill-rule="evenodd" stroke="none" d="M 605.171 251.948 C 605.169 251.947 590.711 246.701 590.709 246.701 C 590.710 246.701 595.497 251.899 595.497 251.899 C 595.497 251.900 590.658 257.048 590.657 257.049 C 590.659 257.048 605.169 251.948 605.171 251.948 Z"/>
<path fill="#00ffff" fill-rule="evenodd" stroke="none" d="M 532.981 77.650 C 532.980 77.652 527.846 92.150 527.845 92.152 C 527.845 92.151 526.873 85.152 526.873 85.152 C 526.872 85.152 519.822 85.617 519.821 85.617 C 519.822 85.616 532.980 77.651 532.981 77.650 Z"/>
<path fill="#00ffff" fill-rule="evenodd" stroke="none" d="M 187.228 78.131 C 187.229 78.132 193.319 92.256 193.319 92.258 C 193.319 92.257 193.823 85.209 193.823 85.208 C 193.823 85.208 200.889 85.203 200.890 85.203 C 200.888 85.202 187.229 78.132 187.228 78.131 Z"/>
<path fill="#be0027" fill-rule="evenodd" stroke="none" d="M 360.064 505.189 C 360.065 505.187 368.971 480.251 368.972 480.249 C 368.971 480.249 360.065 488.535 360.064 488.536 C 360.064 488.535 351.158 480.249 351.157 480.249 C 351.158 480.251 360.064 505.187 360.064 505.189 Z"/>
</g>
</g>
</svg>
