<?xml version="1.0" encoding="utf-8"?>
<!-- Generator: Moho 12.5 build 22414 -->
<!DOCTYPE svg PUBLIC "-//W3C//DTD SVG 1.1//EN" "http://www.w3.org/Graphics/SVG/1.1/DTD/svg11.dtd">
<svg version="1.1" id="Frame_0" xmlns="http://www.w3.org/2000/svg" xmlns:xlink="http://www.w3.org/1999/xlink" width="720px" height="720px">
<g id="face">
<g id="face">
<path fill="none" stroke="#000000" stroke-width="4" stroke-linecap="round" stroke-linejoin="round" d="M 39.601 342.821 C 39.601 162.596 179.776 22.422 360.000 22.422 C 540.224 22.422 680.399 162.596 680.399 342.821 C 680.399 523.045 540.224 663.219 360.000 663.219 C 179.776 663.219 39.601 523.045 39.601 342.821 "/>
<path fill="#ffffff" fill-rule="evenodd" stroke="#000000" stroke-width="4" stroke-linecap="round" stroke-linejoin="round" d="M 375.524 572.541 C 375.524 563.949 368.593 557.017 360.000 557.017 C 351.407 557.017 344.476 563.949 344.476 572.541 C 344.476 581.134 351.408 588.065 360.000 588.065 C 368.592 588.065 375.524 581.134 375.524 572.541 M 401.372 572.541 C 401.372 549.642 382.899 531.169 360.000 531.169 C 337.101 531.169 318.628 549.642 318.628 572.541 C 318.628 595.440 337.101 613.913 360.000 613.913 C 382.899 613.913 401.372 595.440 401.372 572.541 M 463.360 572.541 C 463.350 572.536 421.351 522.494 360.000 522.494 C 298.649 522.494 256.650 572.536 256.640 572.541 C 256.650 572.546 298.649 622.588 360.000 622.588 C 421.351 622.588 463.350 572.546 463.360 572.541 M 554.204 343.393 C 554.204 334.800 547.272 327.868 538.680 327.868 C 530.088 327.868 523.156 334.800 523.156 343.393 C 523.156 351.985 530.088 358.917 538.680 358.917 C 547.272 358.917 554.204 351.985 554.204 343.393 M 580.052 343.393 C 580.052 320.493 561.579 302.021 538.680 302.021 C 515.781 302.021 497.308 320.493 497.308 343.393 C 497.308 366.292 515.781 384.765 538.680 384.765 C 561.579 384.765 580.052 366.292 580.052 343.393 M 642.040 343.393 C 642.030 343.388 600.031 293.346 538.680 293.346 C 477.329 293.346 435.330 343.388 435.320 343.393 C 435.330 343.398 477.329 393.440 538.680 393.440 C 600.031 393.440 642.030 343.398 642.040 343.393 M 165.796 343.393 C 165.796 334.800 172.728 327.868 181.320 327.868 C 189.913 327.868 196.844 334.800 196.844 343.393 C 196.844 351.985 189.913 358.917 181.320 358.917 C 172.728 358.917 165.796 351.985 165.796 343.393 M 139.948 343.393 C 139.948 320.493 158.421 302.021 181.320 302.021 C 204.220 302.021 222.693 320.493 222.693 343.393 C 222.693 366.292 204.220 384.765 181.320 384.765 C 158.421 384.765 139.948 366.292 139.948 343.393 M 77.960 343.393 C 77.970 343.388 119.969 293.346 181.320 293.346 C 242.671 293.346 284.670 343.388 284.680 343.393 C 284.670 343.398 242.671 393.440 181.320 393.440 C 119.969 393.440 77.970 343.398 77.960 343.393 M 179.776 242.696 C 79.651 242.696 39.601 302.771 39.601 342.821 C 39.601 523.333 179.776 663.219 360.000 663.219 C 540.224 663.219 680.399 523.333 680.399 342.821 C 680.399 302.771 640.349 242.696 540.224 242.696 C 460.125 242.696 397.178 305.507 391.888 314.341 C 386.585 323.198 398.840 479.319 398.841 479.335 C 398.837 479.336 372.941 486.769 360.000 486.769 C 347.059 486.769 321.163 479.336 321.159 479.335 C 321.160 479.319 333.415 323.198 328.112 314.341 C 322.822 305.507 259.875 242.696 179.776 242.696 Z"/>
<path fill="#ffffff" fill-rule="evenodd" stroke="#000000" stroke-width="4" stroke-linecap="round" stroke-linejoin="round" d="M 360.000 149.189 C 351.407 149.189 344.476 156.120 344.476 164.713 C 344.476 173.305 351.407 180.237 360.000 180.237 C 368.592 180.237 375.524 173.305 375.524 164.713 C 375.524 156.120 368.592 149.189 360.000 149.189 M 360.000 123.341 C 337.101 123.341 318.628 141.814 318.628 164.713 C 318.628 187.612 337.101 206.085 360.000 206.085 C 382.899 206.085 401.372 187.612 401.372 164.713 C 401.372 141.814 382.899 123.341 360.000 123.341 M 360.000 61.353 C 359.995 61.363 309.953 103.362 309.953 164.713 C 309.953 226.064 359.995 268.062 360.000 268.073 C 360.005 268.062 410.047 226.064 410.047 164.713 C 410.047 103.362 360.005 61.363 360.000 61.353 Z"/>
</g>
<g id="specs_2">
<path fill="#ff00ff" fill-rule="evenodd" stroke="none" d="M 256.040 251.199 C 256.061 251.199 463.939 251.199 463.960 251.199 C 463.960 251.178 463.960 43.299 463.960 43.278 C 463.939 43.278 256.061 43.278 256.040 43.278 C 256.040 43.299 256.040 251.178 256.040 251.199 Z"/>
<path fill="#ff0000" fill-rule="evenodd" stroke="none" d="M 360.000 683.274 C 360.001 683.277 372.106 716.325 372.107 716.328 C 372.106 716.327 360.001 705.910 360.000 705.909 C 359.999 705.910 347.894 716.327 347.893 716.328 C 347.894 716.325 359.999 683.277 360.000 683.274 Z"/>
<path fill="#0000ff" fill-rule="evenodd" stroke="none" d="M 360.000 9.567 C 360.001 9.569 367.032 29.257 367.033 29.259 C 367.032 29.259 360.001 22.717 360.000 22.716 C 359.999 22.717 352.968 29.259 352.967 29.259 C 352.968 29.257 359.999 9.569 360.000 9.567 Z"/>
<path fill="#00ff00" fill-rule="evenodd" stroke="none" d="M 27.865 343.799 C 27.867 343.798 47.520 336.667 47.522 336.667 C 47.521 336.667 41.014 343.732 41.014 343.732 C 41.014 343.733 47.592 350.731 47.592 350.732 C 47.590 350.731 27.867 343.799 27.865 343.799 Z"/>
<path fill="#ffff00" fill-rule="evenodd" stroke="none" d="M 124.702 579.936 C 124.703 579.934 133.429 560.936 133.429 560.934 C 133.429 560.935 133.889 570.528 133.889 570.529 C 133.890 570.529 143.491 570.762 143.492 570.762 C 143.490 570.763 124.704 579.935 124.702 579.936 Z"/>
<path fill="#ffff00" fill-rule="evenodd" stroke="none" d="M 596.589 579.703 C 596.588 579.701 587.483 560.882 587.482 560.880 C 587.482 560.881 587.215 570.482 587.215 570.483 C 587.214 570.483 577.619 570.908 577.619 570.908 C 577.620 570.909 596.587 579.702 596.589 579.703 Z"/>
<path fill="#00ff00" fill-rule="evenodd" stroke="none" d="M 693.153 343.799 C 693.151 343.798 673.499 336.667 673.497 336.667 C 673.498 336.667 680.004 343.732 680.005 343.732 C 680.004 343.733 673.427 350.731 673.426 350.732 C 673.428 350.731 693.151 343.799 693.153 343.799 Z"/>
<path fill="#00ffff" fill-rule="evenodd" stroke="none" d="M 595.031 106.890 C 595.031 106.892 588.051 126.599 588.051 126.601 C 588.051 126.600 586.729 117.087 586.729 117.086 C 586.728 117.086 577.145 117.719 577.144 117.719 C 577.146 117.718 595.030 106.891 595.031 106.890 Z"/>
<path fill="#00ffff" fill-rule="evenodd" stroke="none" d="M 125.077 107.543 C 125.078 107.545 133.356 126.743 133.357 126.745 C 133.357 126.744 134.041 117.164 134.041 117.163 C 134.042 117.163 143.646 117.155 143.647 117.155 C 143.645 117.155 125.079 107.544 125.077 107.543 Z"/>
<path fill="#be0027" fill-rule="evenodd" stroke="none" d="M 360.000 680.182 C 360.001 680.179 370.217 651.573 370.218 651.570 C 370.217 651.571 360.001 661.077 360.000 661.078 C 359.999 661.077 349.783 651.571 349.782 651.570 C 349.783 651.573 359.999 680.179 360.000 680.182 Z"/>
</g>
</g>
</svg>
