<?xml version="1.0" encoding="utf-8"?>
<!-- Generator: Moho 12.5 build 22414 -->
<!DOCTYPE svg PUBLIC "-//W3C//DTD SVG 1.1//EN" "http://www.w3.org/Graphics/SVG/1.1/DTD/svg11.dtd">
<svg version="1.1" id="Frame_0" xmlns="http://www.w3.org/2000/svg" xmlns:xlink="http://www.w3.org/1999/xlink" width="720px" height="720px">
<g id="fire">
<g id="fire">
<path fill="#ffffff" fill-rule="evenodd" stroke="#000000" stroke-width="4" stroke-linecap="round" stroke-linejoin="round" d="M 346.787 650.598 C 205.888 651.100 90.065 500.573 244.220 371.101 C 216.096 463.898 245.347 512.915 269.862 499.310 C 321.090 470.880 289.492 346.192 248.875 293.379 C 222.305 258.831 251.282 198.683 287.811 178.787 C 259.845 220.824 279.045 279.861 302.873 283.148 C 323.774 286.031 337.491 238.385 347.584 210.678 C 369.575 150.310 321.442 129.224 360.353 55.733 C 369.799 125.299 430.990 195.865 391.971 275.106 C 378.259 302.955 363.845 349.791 395.506 376.229 C 423.077 399.252 464.833 310.222 438.775 278.966 C 567.447 347.619 361.732 459.669 431.405 504.439 C 479.238 535.176 477.336 452.841 510.895 424.950 C 555.043 539.833 509.164 650.019 346.787 650.598 Z"/>
<path fill="#ffffff" fill-rule="evenodd" stroke="#000000" stroke-width="4" stroke-linecap="round" stroke-linejoin="round" d="M 336.807 641.235 C 299.282 633.963 245.785 611.154 225.908 578.505 C 184.028 509.713 209.107 469.857 209.105 469.846 C 209.111 469.852 210.661 534.492 269.596 534.817 C 289.611 534.927 316.832 465.918 317.764 446.322 C 319.823 403.062 310.538 382.697 302.812 356.493 C 296.410 334.779 273.155 287.115 273.152 287.108 C 273.156 287.110 298.903 316.810 321.643 307.140 C 361.342 290.258 377.129 186.448 377.135 186.436 C 377.134 186.446 371.657 251.816 367.160 279.546 C 363.880 299.768 350.338 325.483 352.822 346.309 C 364.249 442.123 448.817 370.146 448.827 370.148 C 448.822 370.155 438.779 397.003 400.659 438.480 C 373.014 468.559 392.245 534.160 423.062 542.659 C 469.003 555.327 500.348 509.056 500.356 509.052 C 500.347 509.065 511.022 592.609 414.101 633.394 C 392.618 642.434 359.689 645.670 336.807 641.235 Z"/>
<path fill="#ffffff" fill-rule="evenodd" stroke="#000000" stroke-width="4" stroke-linecap="round" stroke-linejoin="round" d="M 331.207 625.553 C 250.468 598.480 237.120 550.507 237.110 550.500 C 237.117 550.500 276.940 581.090 300.961 553.861 C 321.688 530.365 336.780 488.529 341.289 457.524 C 343.667 441.169 339.794 418.891 337.009 402.600 C 332.721 377.507 326.727 330.949 326.726 330.942 C 326.727 330.947 336.999 368.779 343.849 382.494 C 350.411 395.634 365.845 415.400 380.495 414.956 C 391.286 414.629 379.375 438.478 379.375 438.480 C 379.374 438.484 368.936 463.645 367.053 477.687 C 364.640 495.676 358.035 523.123 368.173 538.178 C 399.069 584.060 458.900 563.940 458.909 563.942 C 458.903 563.948 423.320 612.333 400.659 622.192 C 381.531 630.514 350.985 632.185 331.207 625.553 Z"/>
</g>
<g id="specs_">
<path fill="#ff00ff" fill-rule="evenodd" stroke="none" d="M 266.872 637.960 C 266.891 637.960 453.109 637.960 453.128 637.960 C 453.128 637.941 453.128 451.723 453.128 451.704 C 453.109 451.704 266.891 451.704 266.872 451.704 C 266.872 451.723 266.872 637.941 266.872 637.960 Z"/>
<path fill="#ff0000" fill-rule="evenodd" stroke="none" d="M 360.000 657.107 C 360.001 657.110 372.432 691.916 372.433 691.920 C 372.432 691.918 360.001 680.353 360.000 680.351 C 359.999 680.353 347.568 691.918 347.567 691.920 C 347.568 691.916 359.999 657.110 360.000 657.107 Z"/>
<path fill="#0000ff" fill-rule="evenodd" stroke="none" d="M 360.000 46.897 C 360.001 46.899 367.221 67.117 367.222 67.119 C 367.221 67.118 360.001 60.400 360.000 60.399 C 359.999 60.400 352.779 67.118 352.778 67.119 C 352.779 67.117 359.999 46.899 360.000 46.897 Z"/>
<path fill="#00ff00" fill-rule="evenodd" stroke="none" d="M 169.026 449.500 C 169.028 449.499 189.210 442.176 189.212 442.176 C 189.211 442.176 182.529 449.431 182.529 449.432 C 182.529 449.433 189.284 456.619 189.284 456.620 C 189.282 456.619 169.028 449.501 169.026 449.500 Z"/>
<path fill="#ffff00" fill-rule="evenodd" stroke="none" d="M 221.423 621.424 C 221.424 621.422 230.384 601.913 230.385 601.911 C 230.385 601.912 230.857 611.764 230.857 611.765 C 230.858 611.765 240.718 612.004 240.719 612.004 C 240.717 612.004 221.425 621.423 221.423 621.424 Z"/>
<path fill="#ffff00" fill-rule="evenodd" stroke="none" d="M 490.941 621.185 C 490.940 621.183 481.590 601.857 481.589 601.855 C 481.589 601.856 481.315 611.716 481.315 611.717 C 481.314 611.717 471.461 612.154 471.460 612.154 C 471.462 612.154 490.939 621.184 490.941 621.185 Z"/>
<path fill="#00ff00" fill-rule="evenodd" stroke="none" d="M 530.736 449.500 C 530.734 449.499 510.552 442.176 510.550 442.176 C 510.551 442.176 517.233 449.431 517.233 449.432 C 517.233 449.433 510.478 456.619 510.477 456.620 C 510.480 456.619 530.734 449.501 530.736 449.500 Z"/>
<path fill="#00ffff" fill-rule="evenodd" stroke="none" d="M 481.500 294.706 C 481.500 294.708 474.332 314.946 474.332 314.948 C 474.332 314.947 472.974 305.178 472.974 305.177 C 472.973 305.177 463.132 305.826 463.131 305.826 C 463.133 305.825 481.498 294.707 481.500 294.706 Z"/>
<path fill="#00ffff" fill-rule="evenodd" stroke="none" d="M 249.813 191.199 C 249.814 191.201 258.315 210.915 258.315 210.917 C 258.315 210.916 259.018 201.079 259.018 201.078 C 259.019 201.078 268.882 201.070 268.883 201.070 C 268.881 201.069 249.815 191.200 249.813 191.199 Z"/>
</g>
</g>
</svg>
