<?xml version="1.0" encoding="utf-8"?>
<!-- Generator: Moho 12.5 build 22414 -->
<!DOCTYPE svg PUBLIC "-//W3C//DTD SVG 1.1//EN" "http://www.w3.org/Graphics/SVG/1.1/DTD/svg11.dtd">
<svg version="1.1" id="Frame_0" xmlns="http://www.w3.org/2000/svg" xmlns:xlink="http://www.w3.org/1999/xlink" width="720px" height="720px">
<g id="fire_swirl">
<g id="fire_swirl_3">
<path fill="#ffffff" fill-rule="evenodd" stroke="#000000" stroke-width="2" stroke-linejoin="round" d="M 365.522 179.676 C 456.750 177.802 495.182 280.943 497.056 372.172 C 498.930 463.400 464.765 568.032 373.537 569.906 C 282.309 571.779 243.877 468.638 242.003 377.410 C 240.129 286.182 274.294 181.550 365.522 179.676 Z"/>
<path fill="#ffffff" fill-rule="evenodd" stroke="none" d="M 327.903 324.250 C 276.914 373.106 286.438 434.906 308.930 483.617 C 290.911 491.718 271.922 509.785 266.249 532.688 C 258.468 564.101 270.069 602.175 291.949 623.352 C 322.726 653.140 372.739 651.352 399.489 638.455 C 456.551 610.945 459.489 565.933 459.445 540.197 C 459.359 488.954 430.434 463.798 414.568 444.921 C 384.794 409.495 367.893 395.839 371.234 357.327 C 379.548 261.491 358.723 251.956 358.722 251.946 C 358.719 251.953 360.530 292.988 327.903 324.250 Z"/>
<path fill="none" stroke="#000000" stroke-width="2" stroke-linejoin="round" d="M 357.931 314.261 C 349.153 334.367 314.895 359.077 336.726 423.307 C 349.719 461.534 364.624 477.536 364.626 477.541 M 360.168 256.310 C 360.168 256.316 367.034 293.409 357.931 314.261 M 327.903 324.250 C 276.914 373.106 286.438 434.906 308.930 483.617 C 290.911 491.718 271.922 509.785 266.249 532.688 C 258.468 564.101 270.069 602.175 291.949 623.352 C 322.726 653.140 372.739 651.352 399.489 638.455 C 456.551 610.945 459.489 565.933 459.445 540.197 C 459.359 488.954 430.434 463.798 414.568 444.921 C 384.794 409.495 367.893 395.839 371.234 357.327 C 379.548 261.491 358.723 251.956 358.722 251.946 C 358.719 251.953 360.530 292.988 327.903 324.250 M 410.851 556.403 C 423.473 498.570 370.644 455.873 308.930 483.617 M 317.114 577.316 C 339.954 615.628 402.032 596.809 410.851 556.403 M 340.351 521.916 C 312.232 520.854 304.682 556.463 317.114 577.316 M 355.694 556.558 C 368.690 546.831 364.427 522.825 340.351 521.916 "/>
<path fill="#ffffff" fill-rule="evenodd" stroke="none" d="M 445.825 309.497 C 457.343 305.720 485.695 309.773 491.879 312.013 C 506.749 317.400 553.340 351.641 527.349 403.370 C 504.537 448.771 427.026 459.687 390.910 418.143 C 366.912 390.538 363.026 348.906 379.509 316.824 C 409.344 258.755 431.625 263.934 436.683 235.153 C 441.373 208.474 419.904 194.796 422.471 172.155 C 426.514 136.499 440.400 124.473 440.401 124.468 C 440.404 124.473 443.060 154.231 466.808 176.643 C 491.027 199.499 504.659 221.888 506.985 238.602 C 514.125 289.910 505.128 297.149 491.879 312.013 Z"/>
<path fill="none" stroke="#000000" stroke-width="2" stroke-linejoin="round" d="M 445.825 309.497 C 457.343 305.720 485.695 309.773 491.879 312.013 C 506.749 317.400 553.340 351.641 527.349 403.370 C 504.537 448.771 427.026 459.687 390.910 418.143 C 366.912 390.538 363.026 348.906 379.509 316.824 C 409.344 258.755 431.625 263.934 436.683 235.153 C 441.373 208.474 419.904 194.796 422.471 172.155 C 426.514 136.499 440.400 124.473 440.401 124.468 C 440.404 124.473 443.060 154.231 466.808 176.643 C 491.027 199.499 504.659 221.888 506.985 238.602 C 514.125 289.910 505.128 297.149 491.879 312.013 M 423.550 325.378 C 427.575 319.173 441.456 310.930 445.825 309.497 M 449.431 401.302 C 409.512 396.305 401.502 359.370 423.550 325.378 M 486.822 358.640 C 498.840 382.295 480.616 405.205 449.431 401.302 M 451.301 353.497 C 460.139 339.086 480.536 346.266 486.822 358.640 M 462.996 368.880 C 455.634 378.455 447.030 360.461 451.301 353.497 "/>
<path fill="none" stroke="#000000" stroke-width="2" stroke-linejoin="round" d="M 439.186 127.966 C 423.890 199.508 475.506 197.778 476.708 248.177 C 477.314 273.600 465.202 291.280 445.825 309.497 "/>
<path fill="#ffffff" fill-rule="evenodd" stroke="none" d="M 310.709 221.540 C 302.155 218.766 281.525 221.010 276.550 223.519 C 263.992 229.851 231.051 253.067 250.458 291.379 C 267.492 325.004 325.020 332.913 351.712 302.006 C 369.448 281.469 372.231 250.575 359.925 226.815 C 337.650 183.809 321.132 187.705 317.309 166.366 C 313.766 146.586 329.659 136.387 327.700 119.596 C 324.614 93.155 314.284 84.267 314.283 84.263 C 314.281 84.267 312.383 106.350 294.820 123.034 C 276.909 140.049 266.850 156.690 265.165 169.096 C 259.993 207.176 266.684 212.524 276.550 223.519 Z"/>
<path fill="none" stroke="#000000" stroke-width="2" stroke-linejoin="round" d="M 310.709 221.540 C 302.155 218.766 281.525 221.010 276.550 223.519 C 263.992 229.851 231.051 253.067 250.458 291.379 C 267.492 325.004 325.020 332.913 351.712 302.006 C 369.448 281.469 372.231 250.575 359.925 226.815 C 337.650 183.809 321.132 187.705 317.309 166.366 C 313.766 146.586 329.659 136.387 327.700 119.596 C 324.614 93.155 314.284 84.267 314.283 84.263 C 314.281 84.267 312.383 106.350 294.820 123.034 C 276.909 140.049 266.850 156.690 265.165 169.096 C 259.993 207.176 266.684 212.524 276.550 223.519 M 327.271 233.268 C 324.271 228.675 313.954 222.593 310.709 221.540 M 308.258 289.655 C 337.859 285.851 343.710 258.432 327.271 233.268 M 280.415 258.098 C 271.557 275.675 285.133 292.627 308.258 289.655 M 306.753 254.195 C 300.162 243.527 285.049 248.902 280.415 258.098 M 298.115 265.636 C 303.600 272.721 309.939 259.351 306.753 254.195 "/>
<path fill="none" stroke="#000000" stroke-width="2" stroke-linejoin="round" d="M 315.192 86.856 C 326.714 139.891 288.419 138.734 287.650 176.125 C 287.261 194.987 296.290 208.074 310.709 221.540 "/>
<path fill="#ffffff" fill-rule="evenodd" stroke="none" d="M 366.244 136.656 C 374.107 134.078 393.462 136.845 397.684 138.374 C 407.836 142.052 439.644 165.429 421.900 200.744 C 406.326 231.740 353.409 239.192 328.752 210.830 C 312.368 191.984 309.715 163.561 320.969 141.658 C 341.337 102.015 356.548 105.551 360.002 85.902 C 363.203 67.688 348.547 58.350 350.300 42.892 C 353.060 18.549 362.540 10.339 362.541 10.336 C 362.543 10.339 364.355 30.656 380.568 45.957 C 397.102 61.561 406.410 76.845 407.998 88.256 C 412.872 123.284 406.730 128.226 397.684 138.374 Z"/>
<path fill="none" stroke="#000000" stroke-width="2" stroke-linejoin="round" d="M 366.244 136.656 C 374.107 134.078 393.462 136.845 397.684 138.374 C 407.836 142.052 439.644 165.429 421.900 200.744 C 406.326 231.740 353.409 239.192 328.752 210.830 C 312.368 191.984 309.715 163.561 320.969 141.658 C 341.337 102.015 356.548 105.551 360.002 85.902 C 363.203 67.688 348.547 58.350 350.300 42.892 C 353.060 18.549 362.540 10.339 362.541 10.336 C 362.543 10.339 364.355 30.656 380.568 45.957 C 397.102 61.561 406.410 76.845 407.998 88.256 C 412.872 123.284 406.730 128.226 397.684 138.374 M 351.036 147.499 C 353.783 143.263 363.261 137.635 366.244 136.656 M 368.705 199.332 C 341.452 195.921 335.983 170.705 351.036 147.499 M 394.232 170.207 C 402.436 186.356 389.995 201.997 368.705 199.332 M 369.981 166.695 C 376.014 156.857 389.940 161.759 394.232 170.207 M 377.966 177.198 C 372.940 183.735 367.065 171.450 369.981 166.695 "/>
<path fill="none" stroke="#000000" stroke-width="2" stroke-linejoin="round" d="M 361.711 12.725 C 351.268 61.566 386.506 60.386 387.327 94.793 C 387.741 112.150 379.472 124.220 366.244 136.656 "/>
<path fill="#ffffff" fill-rule="evenodd" stroke="none" d="M 511.473 467.405 C 522.552 463.772 549.821 467.670 555.769 469.825 C 570.072 475.006 614.886 507.942 589.887 557.697 C 567.945 601.366 493.392 611.866 458.653 571.906 C 435.570 545.355 431.832 505.311 447.686 474.452 C 476.383 418.599 497.814 423.580 502.680 395.897 C 507.190 370.236 486.541 357.080 489.011 335.302 C 492.899 301.006 506.255 289.439 506.257 289.434 C 506.259 289.439 508.813 318.062 531.655 339.619 C 554.950 361.603 568.063 383.137 570.300 399.214 C 577.167 448.565 568.514 455.527 555.769 469.825 Z"/>
<path fill="none" stroke="#000000" stroke-width="2" stroke-linejoin="round" d="M 511.473 467.405 C 522.552 463.772 549.821 467.670 555.769 469.825 C 570.072 475.006 614.886 507.942 589.887 557.697 C 567.945 601.366 493.392 611.866 458.653 571.906 C 435.570 545.355 431.832 505.311 447.686 474.452 C 476.383 418.599 497.814 423.580 502.680 395.897 C 507.190 370.236 486.541 357.080 489.011 335.302 C 492.899 301.006 506.255 289.439 506.257 289.434 C 506.259 289.439 508.813 318.062 531.655 339.619 C 554.950 361.603 568.063 383.137 570.300 399.214 C 577.167 448.565 568.514 455.527 555.769 469.825 M 490.048 482.681 C 493.919 476.713 507.270 468.784 511.473 467.405 M 514.941 555.708 C 476.545 550.902 468.841 515.376 490.048 482.681 M 550.906 514.674 C 562.465 537.426 544.936 559.462 514.941 555.708 M 516.740 509.726 C 525.240 495.866 544.859 502.771 550.906 514.674 M 527.989 524.523 C 520.908 533.733 512.632 516.425 516.740 509.726 "/>
<path fill="none" stroke="#000000" stroke-width="2" stroke-linejoin="round" d="M 505.087 292.800 C 490.374 361.611 540.021 359.948 541.177 408.424 C 541.760 432.878 530.110 449.883 511.473 467.405 "/>
<path fill="#ffffff" fill-rule="evenodd" stroke="none" d="M 241.384 408.117 C 230.086 404.919 202.807 409.969 196.911 412.383 C 182.733 418.189 139.001 453.183 166.215 502.216 C 190.099 545.250 265.553 552.733 298.857 511.087 C 320.986 483.415 323.091 442.966 305.861 412.569 C 274.675 357.554 253.316 363.453 247.275 335.798 C 241.675 310.163 261.909 296.071 258.524 274.259 C 253.193 239.910 239.276 228.822 239.274 228.817 C 239.271 228.822 237.885 257.730 215.792 280.366 C 193.260 303.452 180.956 325.663 179.369 341.933 C 174.500 391.876 183.496 398.524 196.911 412.383 Z"/>
<path fill="none" stroke="#000000" stroke-width="2" stroke-linejoin="round" d="M 241.384 408.117 C 230.086 404.919 202.807 409.969 196.911 412.383 C 182.733 418.189 139.001 453.183 166.215 502.216 C 190.099 545.250 265.553 552.733 298.857 511.087 C 320.986 483.415 323.091 442.966 305.861 412.569 C 274.675 357.554 253.316 363.453 247.275 335.798 C 241.675 310.163 261.909 296.071 258.524 274.259 C 253.193 239.910 239.276 228.822 239.274 228.817 C 239.271 228.822 237.885 257.730 215.792 280.366 C 193.260 303.452 180.956 325.663 179.369 341.933 C 174.500 391.876 183.496 398.524 196.911 412.383 M 263.575 422.601 C 259.433 416.756 245.670 409.330 241.384 408.117 M 241.546 497.115 C 279.983 490.691 286.267 454.624 263.575 422.601 M 203.660 457.312 C 192.970 480.684 211.519 502.133 241.546 497.115 M 237.835 450.920 C 228.709 437.324 209.252 445.084 203.660 457.312 M 227.128 466.274 C 234.634 475.249 242.246 457.491 237.835 450.920 "/>
<path fill="none" stroke="#000000" stroke-width="2" stroke-linejoin="round" d="M 240.590 232.156 C 258.240 300.789 208.215 301.168 209.056 349.995 C 209.480 374.626 221.906 391.256 241.384 408.117 "/>
<path fill="#ffffff" fill-rule="evenodd" stroke="none" d="M 240.528 575.953 C 246.030 574.148 259.572 576.084 262.526 577.154 C 269.629 579.727 291.884 596.083 279.469 620.793 C 268.573 642.479 231.549 647.693 214.297 627.849 C 202.834 614.663 200.977 594.777 208.851 579.452 C 223.102 551.715 233.745 554.189 236.161 540.441 C 238.401 527.697 228.146 521.164 229.372 510.348 C 231.304 493.317 237.936 487.572 237.937 487.570 C 237.939 487.572 239.207 501.787 250.550 512.492 C 262.119 523.410 268.631 534.104 269.742 542.088 C 273.152 566.596 268.855 570.054 262.526 577.154 Z"/>
<path fill="none" stroke="#000000" stroke-width="2" stroke-linejoin="round" d="M 240.528 575.953 C 246.030 574.148 259.572 576.084 262.526 577.154 C 269.629 579.727 291.884 596.083 279.469 620.793 C 268.573 642.479 231.549 647.693 214.297 627.849 C 202.834 614.663 200.977 594.777 208.851 579.452 C 223.102 551.715 233.745 554.189 236.161 540.441 C 238.401 527.697 228.146 521.164 229.372 510.348 C 231.304 493.317 237.936 487.572 237.937 487.570 C 237.939 487.572 239.207 501.787 250.550 512.492 C 262.119 523.410 268.631 534.104 269.742 542.088 C 273.152 566.596 268.855 570.054 262.526 577.154 M 229.887 583.538 C 231.810 580.575 238.441 576.637 240.528 575.953 M 242.250 619.805 C 223.182 617.418 219.356 599.776 229.887 583.538 M 260.110 599.427 C 265.851 610.726 257.146 621.669 242.250 619.805 M 243.143 596.970 C 247.364 590.086 257.107 593.516 260.110 599.427 M 248.730 604.318 C 245.214 608.891 241.103 600.296 243.143 596.970 "/>
<path fill="none" stroke="#000000" stroke-width="2" stroke-linejoin="round" d="M 237.356 489.241 C 230.050 523.414 254.705 522.588 255.279 546.662 C 255.569 558.806 249.783 567.251 240.528 575.953 "/>
<path fill="#ffffff" fill-rule="evenodd" stroke="none" d="M 161.928 529.512 C 156.357 527.935 142.906 530.425 139.998 531.615 C 133.007 534.478 111.442 551.734 124.861 575.913 C 136.639 597.134 173.846 600.823 190.268 580.287 C 201.180 566.642 202.218 546.696 193.722 531.707 C 178.344 504.579 167.812 507.488 164.833 493.851 C 162.072 481.210 172.049 474.261 170.380 463.505 C 167.751 446.567 160.888 441.100 160.887 441.098 C 160.886 441.100 160.203 455.355 149.309 466.517 C 138.198 477.900 132.131 488.853 131.349 496.876 C 128.948 521.503 133.383 524.781 139.998 531.615 Z"/>
<path fill="none" stroke="#000000" stroke-width="2" stroke-linejoin="round" d="M 161.928 529.512 C 156.357 527.935 142.906 530.425 139.998 531.615 C 133.007 534.478 111.442 551.734 124.861 575.913 C 136.639 597.134 173.846 600.823 190.268 580.287 C 201.180 566.642 202.218 546.696 193.722 531.707 C 178.344 504.579 167.812 507.488 164.833 493.851 C 162.072 481.210 172.049 474.261 170.380 463.505 C 167.751 446.567 160.888 441.100 160.887 441.098 C 160.886 441.100 160.203 455.355 149.309 466.517 C 138.198 477.900 132.131 488.853 131.349 496.876 C 128.948 521.503 133.383 524.781 139.998 531.615 M 172.871 536.654 C 170.829 533.772 164.042 530.110 161.928 529.512 M 162.009 573.398 C 180.962 570.230 184.061 552.445 172.871 536.654 M 143.326 553.770 C 138.055 565.295 147.202 575.872 162.009 573.398 M 160.178 550.618 C 155.677 543.914 146.084 547.741 143.326 553.770 M 154.898 558.190 C 158.600 562.615 162.353 553.858 160.178 550.618 "/>
<path fill="none" stroke="#000000" stroke-width="2" stroke-linejoin="round" d="M 161.536 442.743 C 170.240 476.587 145.572 476.774 145.987 500.851 C 146.196 512.997 152.323 521.198 161.928 529.512 "/>
<path fill="#ffffff" fill-rule="evenodd" stroke="none" d="M 469.763 571.244 C 464.192 569.667 450.740 572.157 447.833 573.348 C 440.842 576.211 419.277 593.467 432.697 617.645 C 444.474 638.866 481.681 642.556 498.103 622.020 C 509.016 608.375 510.054 588.429 501.557 573.440 C 486.180 546.311 475.647 549.220 472.668 535.583 C 469.907 522.942 479.885 515.993 478.216 505.237 C 475.587 488.299 468.724 482.832 468.723 482.830 C 468.722 482.832 468.038 497.087 457.144 508.249 C 446.033 519.633 439.966 530.585 439.184 538.608 C 436.783 563.235 441.218 566.514 447.833 573.348 Z"/>
<path fill="none" stroke="#000000" stroke-width="2" stroke-linejoin="round" d="M 469.763 571.244 C 464.192 569.667 450.740 572.157 447.833 573.348 C 440.842 576.211 419.277 593.467 432.697 617.645 C 444.474 638.866 481.681 642.556 498.103 622.020 C 509.016 608.375 510.054 588.429 501.557 573.440 C 486.180 546.311 475.647 549.220 472.668 535.583 C 469.907 522.942 479.885 515.993 478.216 505.237 C 475.587 488.299 468.724 482.832 468.723 482.830 C 468.722 482.832 468.038 497.087 457.144 508.249 C 446.033 519.633 439.966 530.585 439.184 538.608 C 436.783 563.235 441.218 566.514 447.833 573.348 M 480.707 578.387 C 478.664 575.504 471.877 571.842 469.763 571.244 M 469.844 615.130 C 488.798 611.963 491.896 594.178 480.707 578.387 M 451.162 595.502 C 445.890 607.028 455.037 617.605 469.844 615.130 M 468.013 592.351 C 463.513 585.647 453.919 589.473 451.162 595.502 M 462.733 599.922 C 466.435 604.347 470.188 595.591 468.013 592.351 "/>
<path fill="none" stroke="#000000" stroke-width="2" stroke-linejoin="round" d="M 469.372 484.475 C 478.075 518.319 453.407 518.507 453.822 542.584 C 454.031 554.729 460.158 562.930 469.763 571.244 "/>
<path fill="#ffffff" fill-rule="evenodd" stroke="none" d="M 589.716 431.070 C 595.218 429.266 608.760 431.202 611.714 432.272 C 618.817 434.845 641.073 451.201 628.657 475.911 C 617.761 497.597 580.737 502.811 563.485 482.967 C 552.022 469.781 550.166 449.895 558.039 434.570 C 572.290 406.833 582.933 409.306 585.350 395.559 C 587.590 382.815 577.335 376.281 578.561 365.466 C 580.492 348.435 587.125 342.690 587.125 342.688 C 587.127 342.690 588.395 356.905 599.738 367.610 C 611.307 378.528 617.819 389.222 618.930 397.206 C 622.340 421.714 618.043 425.172 611.714 432.272 Z"/>
<path fill="none" stroke="#000000" stroke-width="2" stroke-linejoin="round" d="M 589.716 431.070 C 595.218 429.266 608.760 431.202 611.714 432.272 C 618.817 434.845 641.073 451.201 628.657 475.911 C 617.761 497.597 580.737 502.811 563.485 482.967 C 552.022 469.781 550.166 449.895 558.039 434.570 C 572.290 406.833 582.933 409.306 585.350 395.559 C 587.590 382.815 577.335 376.281 578.561 365.466 C 580.492 348.435 587.125 342.690 587.125 342.688 C 587.127 342.690 588.395 356.905 599.738 367.610 C 611.307 378.528 617.819 389.222 618.930 397.206 C 622.340 421.714 618.043 425.172 611.714 432.272 M 579.076 438.656 C 580.998 435.692 587.629 431.755 589.716 431.070 M 591.438 474.923 C 572.370 472.536 568.544 454.893 579.076 438.656 M 609.299 454.544 C 615.039 465.844 606.334 476.787 591.438 474.923 M 592.332 452.087 C 596.553 445.204 606.296 448.634 609.299 454.544 M 597.918 459.435 C 594.401 464.009 590.292 455.414 592.332 452.087 "/>
<path fill="none" stroke="#000000" stroke-width="2" stroke-linejoin="round" d="M 586.545 344.359 C 579.238 378.532 603.893 377.706 604.467 401.779 C 604.757 413.923 598.972 422.369 589.716 431.070 "/>
<path fill="#ffffff" fill-rule="evenodd" stroke="none" d="M 161.781 371.955 C 166.951 370.259 179.675 372.078 182.451 373.084 C 189.125 375.502 210.036 390.870 198.371 414.087 C 188.133 434.464 153.344 439.364 137.134 420.718 C 126.363 408.328 124.619 389.642 132.017 375.243 C 145.408 349.180 155.408 351.504 157.679 338.587 C 159.783 326.613 150.148 320.474 151.300 310.312 C 153.115 294.309 159.346 288.912 159.347 288.909 C 159.348 288.912 160.540 302.268 171.198 312.326 C 182.068 322.585 188.187 332.633 189.231 340.135 C 192.435 363.164 188.398 366.412 182.451 373.084 Z"/>
<path fill="none" stroke="#000000" stroke-width="2" stroke-linejoin="round" d="M 161.781 371.955 C 166.951 370.259 179.675 372.078 182.451 373.084 C 189.125 375.502 210.036 390.870 198.371 414.087 C 188.133 434.464 153.344 439.364 137.134 420.718 C 126.363 408.328 124.619 389.642 132.017 375.243 C 145.408 349.180 155.408 351.504 157.679 338.587 C 159.783 326.613 150.148 320.474 151.300 310.312 C 153.115 294.309 159.346 288.912 159.347 288.909 C 159.348 288.912 160.540 302.268 171.198 312.326 C 182.068 322.585 188.187 332.633 189.231 340.135 C 192.435 363.164 188.398 366.412 182.451 373.084 M 151.784 379.083 C 153.590 376.298 159.820 372.598 161.781 371.955 M 163.399 413.159 C 145.483 410.917 141.888 394.339 151.784 379.083 M 180.181 394.011 C 185.575 404.628 177.396 414.911 163.399 413.159 M 164.238 391.703 C 168.204 385.235 177.359 388.457 180.181 394.011 M 169.488 398.607 C 166.184 402.905 162.321 394.829 164.238 391.703 "/>
<path fill="none" stroke="#000000" stroke-width="2" stroke-linejoin="round" d="M 158.801 290.480 C 151.936 322.589 175.103 321.813 175.642 344.433 C 175.914 355.844 170.478 363.779 161.781 371.955 "/>
<path fill="#ffffff" fill-rule="evenodd" stroke="none" d="M 392.653 274.459 C 386.486 272.713 371.595 275.471 368.377 276.788 C 360.638 279.958 336.766 299.059 351.620 325.824 C 364.658 349.315 405.845 353.400 424.025 330.667 C 436.105 315.561 437.255 293.481 427.849 276.889 C 410.826 246.858 399.166 250.078 395.868 234.982 C 392.812 220.989 403.857 213.296 402.009 201.390 C 399.099 182.640 391.502 176.587 391.501 176.585 C 391.500 176.588 390.743 192.367 378.684 204.723 C 366.384 217.325 359.667 229.450 358.801 238.331 C 356.144 265.594 361.054 269.223 368.377 276.788 Z"/>
<path fill="none" stroke="#000000" stroke-width="2" stroke-linejoin="round" d="M 392.653 274.459 C 386.486 272.713 371.595 275.471 368.377 276.788 C 360.638 279.958 336.766 299.059 351.620 325.824 C 364.658 349.315 405.845 353.400 424.025 330.667 C 436.105 315.561 437.255 293.481 427.849 276.889 C 410.826 246.858 399.166 250.078 395.868 234.982 C 392.812 220.989 403.857 213.296 402.009 201.390 C 399.099 182.640 391.502 176.587 391.501 176.585 C 391.500 176.588 390.743 192.367 378.684 204.723 C 366.384 217.325 359.667 229.450 358.801 238.331 C 356.144 265.594 361.054 269.223 368.377 276.788 M 404.766 282.365 C 402.505 279.174 394.993 275.121 392.653 274.459 M 392.741 323.040 C 413.723 319.534 417.153 299.845 404.766 282.365 M 372.061 301.311 C 366.225 314.070 376.350 325.779 392.741 323.040 M 390.716 297.823 C 385.735 290.402 375.114 294.637 372.061 301.311 M 384.871 306.205 C 388.969 311.104 393.124 301.410 390.716 297.823 "/>
<path fill="none" stroke="#000000" stroke-width="2" stroke-linejoin="round" d="M 392.219 178.407 C 401.854 215.872 374.546 216.079 375.006 242.732 C 375.237 256.177 382.021 265.255 392.653 274.459 "/>
<path fill="#ffffff" fill-rule="evenodd" stroke="none" d="M 354.786 437.563 C 349.551 436.081 336.912 438.421 334.180 439.540 C 327.611 442.230 307.349 458.443 319.958 481.161 C 331.024 501.100 365.984 504.568 381.415 485.272 C 391.668 472.450 392.644 453.709 384.660 439.625 C 370.211 414.135 360.314 416.868 357.515 404.054 C 354.921 392.177 364.296 385.648 362.727 375.542 C 360.258 359.627 353.809 354.489 353.808 354.487 C 353.807 354.489 353.165 367.883 342.929 378.371 C 332.489 389.068 326.788 399.359 326.053 406.898 C 323.797 430.038 327.964 433.118 334.180 439.540 Z"/>
<path fill="none" stroke="#000000" stroke-width="2" stroke-linejoin="round" d="M 354.786 437.563 C 349.551 436.081 336.912 438.421 334.180 439.540 C 327.611 442.230 307.349 458.443 319.958 481.161 C 331.024 501.100 365.984 504.568 381.415 485.272 C 391.668 472.450 392.644 453.709 384.660 439.625 C 370.211 414.135 360.314 416.868 357.515 404.054 C 354.921 392.177 364.296 385.648 362.727 375.542 C 360.258 359.627 353.809 354.489 353.808 354.487 C 353.807 354.489 353.165 367.883 342.929 378.371 C 332.489 389.068 326.788 399.359 326.053 406.898 C 323.797 430.038 327.964 433.118 334.180 439.540 M 365.068 444.274 C 363.148 441.566 356.772 438.125 354.786 437.563 M 354.861 478.798 C 372.670 475.822 375.581 459.111 365.068 444.274 M 337.308 460.356 C 332.354 471.185 340.948 481.123 354.861 478.798 M 353.141 457.395 C 348.913 451.096 339.899 454.691 337.308 460.356 M 348.181 464.509 C 351.658 468.667 355.185 460.439 353.141 457.395 "/>
<path fill="none" stroke="#000000" stroke-width="2" stroke-linejoin="round" d="M 354.418 356.034 C 362.596 387.834 339.417 388.010 339.807 410.633 C 340.004 422.045 345.761 429.751 354.786 437.563 "/>
</g>
<g id="specs_2">
<path fill="#ff0000" fill-rule="evenodd" stroke="none" d="M 360.000 679.055 C 360.001 679.059 371.588 711.502 371.589 711.506 C 371.588 711.505 360.001 700.724 360.000 700.722 C 359.999 700.724 348.412 711.505 348.411 711.506 C 348.412 711.502 359.999 679.059 360.000 679.055 Z"/>
<path fill="#0000ff" fill-rule="evenodd" stroke="none" d="M 360.000 13.483 C 360.001 13.485 366.731 32.331 366.732 32.333 C 366.731 32.332 360.001 26.070 360.000 26.070 C 359.999 26.070 353.269 32.332 353.268 32.333 C 353.269 32.331 359.999 13.485 360.000 13.483 Z"/>
<path fill="#00ff00" fill-rule="evenodd" stroke="none" d="M 190.561 292.155 C 190.564 292.154 221.917 280.777 221.920 280.776 C 221.919 280.777 211.539 292.048 211.538 292.050 C 211.539 292.051 222.032 303.215 222.034 303.216 C 222.030 303.215 190.564 292.157 190.561 292.155 Z"/>
<path fill="#ffff00" fill-rule="evenodd" stroke="none" d="M 151.968 593.720 C 151.970 593.716 169.274 556.041 169.276 556.037 C 169.276 556.039 170.186 575.063 170.186 575.065 C 170.188 575.065 189.229 575.527 189.230 575.527 C 189.227 575.529 151.972 593.718 151.968 593.720 Z"/>
<path fill="#ffff00" fill-rule="evenodd" stroke="none" d="M 568.032 593.258 C 568.030 593.254 549.974 555.933 549.972 555.930 C 549.972 555.932 549.443 574.971 549.443 574.973 C 549.441 574.973 530.414 575.816 530.412 575.816 C 530.416 575.818 568.028 593.256 568.032 593.258 Z"/>
<path fill="#00ff00" fill-rule="evenodd" stroke="none" d="M 529.439 292.155 C 529.436 292.154 498.083 280.777 498.080 280.776 C 498.081 280.777 508.461 292.048 508.462 292.050 C 508.461 292.051 497.968 303.215 497.966 303.216 C 497.970 303.215 529.436 292.157 529.439 292.155 Z"/>
<path fill="#be0027" fill-rule="evenodd" stroke="none" d="M 360.000 665.049 C 360.001 665.046 371.588 632.602 371.589 632.599 C 371.588 632.600 360.001 643.381 360.000 643.382 C 359.999 643.381 348.412 632.600 348.411 632.599 C 348.412 632.602 359.999 665.046 360.000 665.049 Z"/>
</g>
</g>
</svg>
