<?xml version="1.0" encoding="utf-8"?>
<!-- Generator: Moho 13.0.3 build 635 -->
<!DOCTYPE svg PUBLIC "-//W3C//DTD SVG 1.1//EN" "http://www.w3.org/Graphics/SVG/1.1/DTD/svg11.dtd">
<svg version="1.1" id="Frame_0" xmlns="http://www.w3.org/2000/svg" xmlns:xlink="http://www.w3.org/1999/xlink" width="720px" height="720px">
<g id="fire">
<path fill="#ffffff" fill-rule="evenodd" stroke="#000000" stroke-width="4" stroke-linecap="round" stroke-linejoin="round" d="M 332.178 699.694 C 167.483 700.281 32.099 524.332 212.289 372.995 C 179.416 489.320 215.781 542.164 242.261 522.856 C 296.568 483.257 271.824 345.916 224.277 286.074 C 192.180 245.679 221.141 164.485 263.241 148.202 C 218.812 202.854 257.266 247.527 278.229 295.065 C 278.084 220.172 317.615 224.818 329.181 184.169 C 347.341 120.346 338.421 74.199 302.206 25.315 C 395.173 53.027 396.256 167.665 377.137 262.097 C 369.983 297.428 350.575 350.555 389.125 378.989 C 419.707 401.547 464.288 310.452 437.083 277.084 C 585.113 351.365 353.695 478.275 431.086 528.852 C 486.719 565.208 484.774 468.539 524.001 435.938 C 575.604 570.224 521.978 699.017 332.178 699.694 Z"/>
</g>
</svg>
