<?xml version="1.0" encoding="utf-8"?>
<!-- Generator: Moho 12.5 build 22414 -->
<!DOCTYPE svg PUBLIC "-//W3C//DTD SVG 1.1//EN" "http://www.w3.org/Graphics/SVG/1.1/DTD/svg11.dtd">
<svg version="1.1" id="Frame_0" xmlns="http://www.w3.org/2000/svg" xmlns:xlink="http://www.w3.org/1999/xlink" width="720px" height="720px">
<g id="fire_swirl">
<g id="fire_swirl_3">
<path fill="#ffffff" fill-rule="evenodd" stroke="none" d="M 547.049 327.735 C 555.272 386.829 544.910 395.166 529.649 412.286 C 546.542 418.966 600.438 457.929 570.502 517.508 C 544.229 569.797 454.956 582.370 413.359 534.522 C 385.719 502.728 381.243 454.779 400.228 417.827 C 434.590 350.947 460.252 356.912 466.078 323.763 C 471.479 293.037 446.754 277.282 449.711 251.206 C 454.367 210.139 470.359 196.287 470.362 196.282 C 470.365 196.288 473.423 230.562 500.774 256.374 C 528.668 282.699 544.370 308.484 547.049 327.735 Z"/>
<path fill="none" stroke="#000000" stroke-width="2" stroke-linejoin="round" d="M 547.049 327.735 C 555.272 386.829 544.910 395.166 529.649 412.286 C 546.542 418.966 600.438 457.929 570.502 517.508 C 544.229 569.797 454.956 582.370 413.359 534.522 C 385.719 502.728 381.243 454.779 400.228 417.827 C 434.590 350.947 460.252 356.912 466.078 323.763 C 471.479 293.037 446.754 277.282 449.711 251.206 C 454.367 210.139 470.359 196.287 470.362 196.282 C 470.365 196.288 473.423 230.562 500.774 256.374 C 528.668 282.699 544.370 308.484 547.049 327.735 M 476.607 409.390 C 493.293 404.417 517.787 407.596 529.649 412.286 M 450.952 427.681 C 455.588 420.534 471.532 410.902 476.607 409.390 M 480.760 515.126 C 434.784 509.371 425.559 466.831 450.952 427.681 M 523.826 465.990 C 537.666 493.235 516.678 519.621 480.760 515.126 M 482.914 460.066 C 495.333 445.071 516.585 451.738 523.826 465.990 M 496.384 477.783 C 487.905 488.811 473.954 470.885 482.914 460.066 "/>
<path fill="#ffffff" fill-rule="evenodd" stroke="none" d="M 239.062 249.155 C 160.206 323.471 159.470 410.704 206.686 493.281 C 193.328 514.891 186.116 547.816 196.573 576.299 C 210.916 615.366 250.702 647.566 289.266 654.361 C 343.510 663.919 395.496 625.984 414.699 592.975 C 455.663 522.562 426.046 472.712 407.779 445.115 C 388.897 416.590 364.079 413.653 350.510 404.333 C 301.456 370.640 290.486 341.215 294.783 291.690 C 305.475 168.450 278.695 156.188 278.694 156.175 C 278.690 156.184 281.349 209.301 239.062 249.155 Z"/>
<path fill="none" stroke="#000000" stroke-width="2" stroke-linejoin="round" d="M 239.062 249.155 C 160.206 323.471 159.470 410.704 206.686 493.281 C 193.328 514.891 186.116 547.816 196.573 576.299 C 210.916 615.366 250.702 647.566 289.266 654.361 C 343.510 663.919 395.496 625.984 414.699 592.975 C 455.663 522.562 426.046 472.712 407.779 445.115 C 388.897 416.590 364.079 413.653 350.510 404.333 C 301.456 370.640 290.486 341.215 294.783 291.690 C 305.475 168.450 278.695 156.188 278.694 156.175 C 278.690 156.184 281.349 209.301 239.062 249.155 M 367.690 497.387 C 339.471 426.689 252.436 419.267 206.686 493.281 M 282.907 587.194 C 334.836 611.549 387.405 546.781 367.690 497.387 M 267.747 511.440 C 237.029 530.567 254.641 573.937 282.907 587.194 M 309.048 537.288 C 315.883 517.564 294.048 495.064 267.747 511.440 "/>
<path fill="#ffffff" fill-rule="evenodd" stroke="none" d="M 440.663 159.660 C 449.212 221.097 438.439 229.765 422.573 247.564 C 439.481 256.097 496.169 295.016 465.047 356.958 C 437.732 411.322 344.918 424.393 301.670 374.647 C 272.935 341.592 268.281 291.741 288.019 253.324 C 323.744 183.792 350.424 189.993 356.482 155.530 C 362.096 123.584 336.389 107.205 339.464 80.094 C 344.305 37.398 360.931 22.998 360.933 22.992 C 360.937 22.998 364.117 58.632 392.553 85.468 C 421.554 112.837 437.878 139.645 440.663 159.660 Z"/>
<path fill="none" stroke="#000000" stroke-width="2" stroke-linejoin="round" d="M 440.663 159.660 C 449.212 221.097 438.439 229.765 422.573 247.564 C 439.481 256.097 496.169 295.016 465.047 356.958 C 437.732 411.322 344.918 424.393 301.670 374.647 C 272.935 341.592 268.281 291.741 288.019 253.324 C 323.744 183.792 350.424 189.993 356.482 155.530 C 362.096 123.584 336.389 107.205 339.464 80.094 C 344.305 37.398 360.931 22.998 360.933 22.992 C 360.937 22.998 364.117 58.632 392.553 85.468 C 421.554 112.837 437.878 139.645 440.663 159.660 M 367.428 244.551 C 382.774 238.474 408.019 240.219 422.573 247.564 M 340.755 263.567 C 347.129 254.894 362.308 246.578 367.428 244.551 M 371.745 354.481 C 323.945 348.498 312.027 302.663 340.755 263.567 M 416.519 303.397 C 430.909 331.722 409.087 359.156 371.745 354.481 M 373.985 297.238 C 384.567 279.982 408.991 288.579 416.519 303.397 M 387.988 315.658 C 379.173 327.123 368.871 305.577 373.985 297.238 "/>
<path fill="none" stroke="#000000" stroke-width="2" stroke-linejoin="round" d="M 468.961 200.312 C 451.344 282.708 510.791 280.717 512.176 338.763 C 512.874 368.045 498.924 388.408 476.607 409.390 "/>
<path fill="none" stroke="#000000" stroke-width="2" stroke-linejoin="round" d="M 280.553 161.787 C 280.553 161.795 289.504 209.547 277.676 236.309 C 265.991 262.748 218.989 295.258 248.300 379.700 C 263.731 424.155 281.663 442.460 281.666 442.467 "/>
<path fill="none" stroke="#000000" stroke-width="2" stroke-linejoin="round" d="M 359.478 27.181 C 341.162 112.847 402.968 110.775 404.408 171.125 C 405.134 201.567 390.630 222.738 367.428 244.551 "/>
</g>
<g id="specs_2">
<path fill="#ff0000" fill-rule="evenodd" stroke="none" d="M 360.000 679.055 C 360.001 679.059 371.588 711.502 371.589 711.506 C 371.588 711.505 360.001 700.724 360.000 700.722 C 359.999 700.724 348.412 711.505 348.411 711.506 C 348.412 711.502 359.999 679.059 360.000 679.055 Z"/>
<path fill="#0000ff" fill-rule="evenodd" stroke="none" d="M 360.000 13.483 C 360.001 13.485 366.731 32.331 366.732 32.333 C 366.731 32.332 360.001 26.070 360.000 26.070 C 359.999 26.070 353.269 32.332 353.268 32.333 C 353.269 32.331 359.999 13.485 360.000 13.483 Z"/>
<path fill="#00ff00" fill-rule="evenodd" stroke="none" d="M 190.561 292.155 C 190.564 292.154 221.917 280.777 221.920 280.776 C 221.919 280.777 211.539 292.048 211.538 292.050 C 211.539 292.051 222.032 303.215 222.034 303.216 C 222.030 303.215 190.564 292.157 190.561 292.155 Z"/>
<path fill="#ffff00" fill-rule="evenodd" stroke="none" d="M 151.968 593.720 C 151.970 593.716 169.274 556.041 169.276 556.037 C 169.276 556.039 170.186 575.063 170.186 575.065 C 170.188 575.065 189.229 575.527 189.230 575.527 C 189.227 575.529 151.972 593.718 151.968 593.720 Z"/>
<path fill="#ffff00" fill-rule="evenodd" stroke="none" d="M 568.032 593.258 C 568.030 593.254 549.974 555.933 549.972 555.930 C 549.972 555.932 549.443 574.971 549.443 574.973 C 549.441 574.973 530.414 575.816 530.412 575.816 C 530.416 575.818 568.028 593.256 568.032 593.258 Z"/>
<path fill="#00ff00" fill-rule="evenodd" stroke="none" d="M 529.439 292.155 C 529.436 292.154 498.083 280.777 498.080 280.776 C 498.081 280.777 508.461 292.048 508.462 292.050 C 508.461 292.051 497.968 303.215 497.966 303.216 C 497.970 303.215 529.436 292.157 529.439 292.155 Z"/>
<path fill="#be0027" fill-rule="evenodd" stroke="none" d="M 360.000 665.049 C 360.001 665.046 371.588 632.602 371.589 632.599 C 371.588 632.600 360.001 643.381 360.000 643.382 C 359.999 643.381 348.412 632.600 348.411 632.599 C 348.412 632.602 359.999 665.046 360.000 665.049 Z"/>
</g>
</g>
</svg>
