<?xml version="1.0" encoding="utf-8"?>
<!-- Generator: Moho 12.5 build 22414 -->
<!DOCTYPE svg PUBLIC "-//W3C//DTD SVG 1.1//EN" "http://www.w3.org/Graphics/SVG/1.1/DTD/svg11.dtd">
<svg version="1.1" id="Frame_0" xmlns="http://www.w3.org/2000/svg" xmlns:xlink="http://www.w3.org/1999/xlink" width="720px" height="720px">
<g id="fire_smoke">
<g id="fire_smoke">
<path fill="#ffffff" fill-rule="evenodd" stroke="none" d="M 357.701 630.579 C 264.495 581.056 204.415 601.053 171.423 506.648 C 135.783 404.667 210.224 345.109 210.228 345.093 C 210.228 345.104 180.173 410.794 215.303 450.184 C 246.498 485.163 282.581 476.948 282.588 476.950 C 282.589 476.938 265.069 416.047 294.921 351.209 C 321.364 293.774 351.070 288.535 363.602 244.186 C 369.929 221.797 364.731 180.005 364.731 179.998 C 364.735 180.007 400.824 212.821 405.753 267.629 C 409.156 305.463 396.746 345.364 387.298 392.999 C 381.148 424.009 397.559 457.833 430.204 465.367 C 454.898 471.067 476.994 459.456 488.510 443.251 C 510.256 412.649 481.055 325.739 481.055 325.727 C 481.061 325.738 534.139 352.958 544.878 432.750 C 553.477 496.636 521.889 546.279 492.725 562.904 C 456.847 583.357 414.620 592.193 357.701 630.579 Z"/>
<path fill="none" stroke="#000000" stroke-width="4" stroke-linecap="round" stroke-linejoin="round" d="M 326.857 115.089 C 323.022 127.736 326.912 139.236 330.917 147.707 M 357.991 81.223 C 344.782 88.601 332.223 97.389 326.857 115.089 M 146.946 363.159 C 153.756 344.983 168.910 340.012 175.124 331.241 M 575.448 491.086 C 577.121 574.322 507.135 592.276 464.473 619.209 M 134.223 487.670 C 135.056 598.386 229.642 614.882 259.871 625.847 M 407.775 176.139 C 414.972 183.986 419.861 195.346 419.863 195.348 M 390.911 158.451 C 390.913 158.452 403.491 171.468 407.775 176.139 M 594.662 416.564 C 595.363 421.153 594.325 429.396 594.325 429.397 M 589.627 402.126 C 589.628 402.127 593.828 411.098 594.662 416.564 M 577.625 421.377 C 578.845 427.450 578.423 438.486 578.423 438.488 M 569.818 400.522 C 569.818 400.524 576.038 413.482 577.625 421.377 M 541.646 314.553 C 548.607 321.678 554.791 334.871 554.793 334.873 M 525.431 303.323 C 525.432 303.325 535.973 308.746 541.646 314.553 M 527.375 323.630 C 534.454 329.988 541.057 342.261 541.058 342.263 M 500.915 308.671 C 500.917 308.672 518.068 315.270 527.375 323.630 M 440.896 272.788 C 443.337 256.894 454.848 244.067 454.850 244.064 M 445.428 303.624 C 445.427 303.620 438.513 288.301 440.896 272.788 M 307.172 244.516 C 313.484 235.418 313.431 225.295 313.432 225.293 M 285.921 261.545 C 285.923 261.543 300.400 254.277 307.172 244.516 M 329.216 247.808 C 335.755 234.935 334.219 220.073 334.220 220.070 M 306.063 272.143 C 306.065 272.141 323.172 259.706 329.216 247.808 M 250.518 396.203 C 251.819 413.435 262.648 418.233 267.909 419.043 M 232.102 391.336 C 231.605 433.666 259.452 440.281 268.547 441.299 M 115.074 412.944 C 123.520 415.861 133.545 415.630 146.842 435.465 M 79.465 387.303 C 85.537 401.610 100.503 407.913 115.074 412.944 M 102.312 341.451 C 78.004 345.716 71.745 369.116 79.465 387.303 M 133.812 379.686 C 145.934 358.443 128.098 336.926 102.312 341.451 M 103.204 381.166 C 110.650 392.832 127.800 390.224 133.812 379.686 M 110.820 362.207 C 99.920 360.493 99.483 375.336 103.204 381.166 M 113.263 370.881 C 117.019 369.425 117.641 363.280 110.820 362.207 M 459.735 363.173 C 454.663 371.006 446.544 376.482 437.303 376.991 C 408.888 375.704 400.968 396.253 402.870 416.458 C 404.110 429.626 409.638 439.722 422.694 448.104 C 434.057 455.400 456.675 453.584 467.486 443.667 C 488.365 424.516 487.998 387.251 474.329 357.011 M 448.549 317.947 C 469.258 326.601 469.502 348.091 459.735 363.173 M 413.553 344.544 C 407.666 323.656 427.117 308.990 448.549 317.947 M 440.105 352.572 C 431.131 361.313 416.533 355.114 413.553 344.544 M 437.086 334.274 C 447.083 334.874 444.601 348.191 440.105 352.572 M 433.270 341.342 C 430.287 339.344 430.942 333.906 437.086 334.274 M 457.026 424.279 C 475.944 407.293 464.531 377.645 437.335 376.696 M 428.184 416.364 C 432.118 429.286 448.215 432.190 457.026 424.279 M 440.601 399.461 C 430.188 395.005 426.117 409.572 428.184 416.364 M 440.853 408.693 C 444.950 408.189 447.108 402.245 440.601 399.461 M 193.265 340.293 C 169.678 357.449 150.725 381.423 145.097 413.730 M 217.701 308.467 C 216.275 322.607 204.664 332.002 193.265 340.293 M 179.510 271.099 C 208.263 268.161 219.769 287.964 217.701 308.467 M 162.151 318.327 C 143.646 301.753 153.058 273.801 179.510 271.099 M 192.458 310.039 C 189.038 323.810 171.418 326.626 162.151 318.327 M 178.450 294.005 C 188.526 288.467 194.195 303.044 192.458 310.039 M 179.090 303.225 C 174.961 303.118 172.244 297.417 178.450 294.005 M 272.268 291.755 C 265.279 292.624 265.682 298.882 269.456 300.505 M 279.430 311.741 C 283.598 305.886 283.646 290.340 272.268 291.755 M 248.034 308.183 C 253.595 319.390 271.155 323.367 279.430 311.741 M 282.416 270.303 C 256.635 262.166 236.806 285.559 248.034 308.183 M 304.484 308.814 C 310.341 292.729 301.678 276.382 282.416 270.303 M 282.411 345.899 C 291.380 325.342 298.535 325.153 304.484 308.814 M 492.725 562.904 C 456.847 583.357 414.620 592.193 357.701 630.579 C 264.495 581.056 204.415 601.053 171.423 506.648 C 135.783 404.667 210.224 345.109 210.228 345.093 C 210.228 345.104 180.173 410.794 215.303 450.184 C 246.498 485.163 282.581 476.948 282.588 476.950 C 282.589 476.938 265.069 416.047 294.921 351.209 C 321.364 293.774 351.070 288.535 363.602 244.186 C 369.929 221.797 364.731 180.005 364.731 179.998 C 364.735 180.007 400.824 212.821 405.753 267.629 C 409.156 305.463 396.746 345.364 387.298 392.999 C 381.148 424.009 397.559 457.833 430.204 465.367 C 454.898 471.067 476.994 459.456 488.510 443.251 C 510.256 412.649 481.055 325.739 481.055 325.727 C 481.061 325.738 534.139 352.958 544.878 432.750 C 553.477 496.636 521.889 546.279 492.725 562.904 M 349.007 248.144 C 340.643 268.975 330.630 273.924 316.960 287.732 M 349.126 174.766 C 361.794 192.769 356.733 228.900 349.007 248.144 M 305.527 162.200 C 320.470 156.286 334.903 154.554 349.126 174.766 M 294.583 205.344 C 280.681 185.686 289.565 168.517 305.527 162.200 M 336.597 198.827 C 332.142 219.339 307.557 223.687 294.583 205.344 M 317.518 180.027 C 329.126 176.624 338.848 188.464 336.597 198.827 M 311.800 196.799 C 303.686 191.727 311.762 181.715 317.518 180.027 M 318.272 192.579 C 319.875 195.638 316.821 199.937 311.800 196.799 M 558.492 485.699 C 551.428 574.693 472.376 588.464 421.345 620.789 M 572.153 452.914 C 562.554 461.044 559.480 473.262 558.492 485.699 M 624.874 459.428 C 609.105 435.406 587.787 439.673 572.153 452.914 M 599.561 502.817 C 623.095 507.634 639.442 481.619 624.874 459.428 M 586.840 473.759 C 578.132 485.135 587.257 500.299 599.561 502.817 M 607.963 474.683 C 605.901 463.453 591.190 468.076 586.840 473.759 M 600.486 479.985 C 603.162 483.087 609.231 481.592 607.963 474.683 M 392.474 69.670 C 389.151 82.319 379.738 92.263 367.674 97.029 M 363.642 24.731 C 392.291 28.390 397.706 49.753 392.474 69.670 M 335.941 66.614 C 321.771 46.272 337.319 21.369 363.642 24.731 M 367.446 65.459 C 360.991 78.149 343.076 76.856 335.941 66.614 M 357.399 46.718 C 368.454 43.611 370.709 59.043 367.446 65.459 M 355.929 55.809 C 351.946 54.769 350.605 48.627 357.399 46.718 M 215.331 366.100 C 208.897 401.014 218.921 456.687 270.859 460.605 M 270.488 341.256 C 254.281 322.008 223.091 323.989 215.331 366.100 M 249.509 389.948 C 275.631 391.625 288.535 362.688 270.488 341.256 M 234.519 363.165 C 229.045 375.900 237.382 389.170 249.509 389.948 M 258.648 356.329 C 250.305 345.661 237.872 355.365 234.519 363.165 M 250.313 370.130 C 257.660 377.120 266.259 366.061 258.648 356.329 M 611.480 311.270 C 607.488 323.724 597.544 333.142 585.240 337.250 M 585.054 264.899 C 613.457 270.076 617.762 291.668 611.480 311.270 M 555.143 305.216 C 542.089 284.148 558.955 260.143 585.054 264.899 M 586.690 305.738 C 579.571 318.081 561.723 315.835 555.143 305.216 M 577.646 286.505 C 588.845 283.993 590.285 299.505 586.690 305.738 M 575.693 295.498 C 571.775 294.247 570.765 288.048 577.646 286.505 M 180.183 558.269 C 221.896 607.035 272.776 606.483 303.618 622.808 M 150.302 485.377 C 155.332 520.200 163.649 538.939 180.183 558.269 M 135.300 447.652 C 146.429 456.758 148.263 471.262 150.302 485.377 M 83.034 455.806 C 97.767 431.275 119.511 434.732 135.300 447.652 M 111.013 498.362 C 86.448 503.729 69.178 478.878 83.034 455.806 M 121.920 468.936 C 130.993 479.825 123.152 495.710 111.013 498.362 M 100.875 470.518 C 102.530 459.241 117.347 463.447 121.920 468.936 M 108.674 475.580 C 106.090 478.836 99.840 477.568 100.875 470.518 M 217.008 264.561 C 226.498 273.788 239.769 277.635 252.730 275.546 M 217.946 211.568 C 195.588 229.515 202.353 250.311 217.008 264.561 M 263.835 233.541 C 265.796 208.498 238.913 194.737 217.946 211.568 M 236.227 248.378 C 248.244 255.859 262.866 245.912 263.835 233.541 M 234.924 227.272 C 223.951 230.433 230.150 244.595 236.227 248.378 M 240.992 234.324 C 243.872 231.324 241.774 225.299 234.924 227.272 M 420.457 237.354 C 426.202 256.368 425.948 282.644 423.759 306.671 M 365.101 162.686 C 395.183 181.974 412.658 211.543 420.457 237.354 M 346.183 131.954 C 346.572 144.730 354.429 155.843 365.101 162.686 M 385.560 97.051 C 357.377 93.063 345.566 111.670 346.183 131.954 M 401.352 145.333 C 420.871 129.584 412.140 100.812 385.560 97.051 M 371.348 135.128 C 374.007 149.192 391.587 153.213 401.352 145.333 M 385.867 120.001 C 376.124 114.233 370.030 128.154 371.348 135.128 M 384.926 129.170 C 389.046 129.199 391.945 123.599 385.867 120.001 M 492.345 215.930 C 493.530 228.984 488.170 241.586 478.467 250.238 M 450.090 183.248 C 478.295 176.966 490.482 195.412 492.345 215.930 M 438.442 232.276 C 418.061 218.007 424.097 189.037 450.090 183.248 M 467.508 220.464 C 465.724 234.521 448.618 239.401 438.442 232.276 M 451.736 206.161 C 461.097 199.485 468.415 213.314 467.508 220.464 M 453.455 215.258 C 449.334 215.637 445.960 210.281 451.736 206.161 M 550.679 397.804 C 561.583 420.873 561.560 431.849 562.553 451.992 M 546.653 360.754 C 541.782 373.023 545.084 385.968 550.679 397.804 M 595.996 342.096 C 570.741 328.811 554.159 341.844 546.653 360.754 M 593.903 392.587 C 617.548 384.624 619.397 354.406 595.996 342.096 M 569.235 372.548 C 566.761 386.687 581.978 396.604 593.903 392.587 M 588.222 363.568 C 581.156 354.695 570.460 365.545 569.235 372.548 M 584.114 371.772 C 587.939 373.252 592.602 369.068 588.222 363.568 M 477.037 309.965 C 501.975 324.576 519.109 328.082 534.615 363.310 M 463.521 283.457 C 463.807 293.992 468.018 304.681 477.037 309.965 M 500.909 246.437 C 472.552 243.994 462.970 263.172 463.521 283.457 M 519.289 293.830 C 537.947 277.046 527.672 248.743 500.909 246.437 M 488.800 285.261 C 492.222 299.149 509.967 302.216 519.289 293.830 M 502.463 269.355 C 492.418 264.129 487.101 278.369 488.800 285.261 M 502.022 278.570 C 506.141 278.374 508.734 272.618 502.463 269.355 "/>
<path fill="none" stroke="#000000" stroke-width="4" stroke-linecap="round" stroke-linejoin="round" d="M 185.625 498.078 C 219.552 595.057 286.776 566.347 357.346 611.026 C 404.182 580.459 446.671 567.304 474.413 551.756 C 504.493 534.898 524.106 503.219 528.502 469.562 C 535.960 412.457 509.741 376.752 509.739 376.743 C 509.737 376.752 518.766 440.970 496.029 466.766 C 473.649 492.156 434.787 491.987 414.093 483.540 C 391.716 474.407 364.282 441.620 364.284 408.055 C 364.287 347.455 386.137 322.304 388.781 292.313 C 393.593 237.735 379.344 224.103 379.343 224.096 C 379.342 224.101 380.052 247.585 370.088 276.656 C 357.881 312.273 320.061 327.612 305.590 372.829 C 290.492 420.006 299.336 465.034 302.418 493.605 C 287.879 497.718 250.863 505.739 212.068 472.357 C 185.150 449.196 186.461 406.944 186.458 406.938 C 186.458 406.947 165.897 441.685 185.625 498.078 "/>
</g>
<g id="specs_2">
<path fill="#ff0000" fill-rule="evenodd" stroke="none" d="M 360.000 676.985 C 360.001 676.988 370.976 707.717 370.977 707.720 C 370.976 707.719 360.001 697.508 360.000 697.507 C 359.999 697.508 349.025 707.719 349.023 707.720 C 349.025 707.717 359.999 676.988 360.000 676.985 Z"/>
<path fill="#0000ff" fill-rule="evenodd" stroke="none" d="M 360.000 6.303 C 360.001 6.305 366.375 24.155 366.376 24.157 C 366.375 24.156 360.001 18.225 360.000 18.224 C 359.999 18.225 353.625 24.156 353.624 24.157 C 353.625 24.155 359.999 6.305 360.000 6.303 Z"/>
<path fill="#00ff00" fill-rule="evenodd" stroke="none" d="M 53.754 480.477 C 53.756 480.476 71.573 474.011 71.575 474.010 C 71.574 474.011 65.675 480.416 65.675 480.417 C 65.675 480.417 71.639 486.762 71.639 486.762 C 71.638 486.762 53.756 480.477 53.754 480.477 Z"/>
<path fill="#ffff00" fill-rule="evenodd" stroke="none" d="M 163.256 624.018 C 163.257 624.017 170.533 608.175 170.533 608.174 C 170.533 608.175 170.916 616.174 170.916 616.175 C 170.917 616.175 178.923 616.369 178.924 616.369 C 178.922 616.370 163.258 624.018 163.256 624.018 Z"/>
<path fill="#ffff00" fill-rule="evenodd" stroke="none" d="M 556.744 623.824 C 556.743 623.823 549.151 608.130 549.150 608.129 C 549.150 608.130 548.928 616.135 548.928 616.136 C 548.927 616.136 540.926 616.491 540.925 616.491 C 540.927 616.491 556.742 623.824 556.744 623.824 Z"/>
<path fill="#00ff00" fill-rule="evenodd" stroke="none" d="M 656.932 480.477 C 656.930 480.476 639.113 474.011 639.111 474.010 C 639.111 474.011 645.011 480.416 645.011 480.417 C 645.011 480.417 639.047 486.762 639.047 486.762 C 639.048 486.762 656.930 480.477 656.932 480.477 Z"/>
<path fill="#00ffff" fill-rule="evenodd" stroke="none" d="M 516.942 181.903 C 516.942 181.905 512.282 195.063 512.281 195.064 C 512.281 195.063 511.399 188.712 511.399 188.711 C 511.398 188.711 504.999 189.133 504.999 189.133 C 505.000 189.133 516.941 181.904 516.942 181.903 Z"/>
<path fill="#00ffff" fill-rule="evenodd" stroke="none" d="M 203.157 182.339 C 203.157 182.341 208.684 195.159 208.685 195.160 C 208.685 195.159 209.142 188.763 209.142 188.762 C 209.142 188.762 215.555 188.757 215.555 188.757 C 215.554 188.757 203.158 182.340 203.157 182.339 Z"/>
<path fill="#be0027" fill-rule="evenodd" stroke="none" d="M 360.000 652.199 C 360.001 652.195 370.976 621.467 370.977 621.464 C 370.976 621.465 360.001 631.676 360.000 631.677 C 359.999 631.676 349.025 621.465 349.023 621.464 C 349.025 621.467 359.999 652.195 360.000 652.199 Z"/>
</g>
</g>
</svg>
