<?xml version="1.0" encoding="utf-8"?>
<!-- Generator: Moho 13.0.3 build 635 -->
<!DOCTYPE svg PUBLIC "-//W3C//DTD SVG 1.1//EN" "http://www.w3.org/Graphics/SVG/1.1/DTD/svg11.dtd">
<svg version="1.1" id="Frame_0" xmlns="http://www.w3.org/2000/svg" xmlns:xlink="http://www.w3.org/1999/xlink" width="1280px" height="720px">
<g id="fire">
<path fill="#ffffff" fill-rule="evenodd" stroke="#000000" stroke-width="4" stroke-linecap="round" stroke-linejoin="round" d="M 640.094 360.248 C 608.659 360.360 582.818 326.776 617.211 297.890 C 610.936 320.093 617.878 330.180 622.932 326.495 C 633.297 318.936 628.575 292.722 619.499 281.300 C 613.373 273.589 618.901 258.092 626.936 254.984 C 618.456 265.415 625.796 273.942 629.797 283.016 C 629.769 268.721 637.315 269.608 639.522 261.849 C 642.989 249.667 641.286 240.859 634.374 231.528 C 652.118 236.818 652.325 258.699 648.676 276.723 C 647.310 283.467 643.606 293.607 650.964 299.034 C 656.801 303.340 665.310 285.953 660.118 279.584 C 688.372 293.762 644.201 317.985 658.973 327.639 C 669.592 334.578 669.221 316.127 676.708 309.904 C 686.558 335.536 676.322 360.119 640.094 360.248 Z"/>
</g>
</svg>
