<?xml version="1.0" encoding="utf-8"?>
<!-- Generator: Moho 12.5 build 22414 -->
<!DOCTYPE svg PUBLIC "-//W3C//DTD SVG 1.1//EN" "http://www.w3.org/Graphics/SVG/1.1/DTD/svg11.dtd">
<svg version="1.1" id="Frame_0" xmlns="http://www.w3.org/2000/svg" xmlns:xlink="http://www.w3.org/1999/xlink" width="720px" height="720px">
<g id="fire_swirl">
<g id="fire_swirly_2">
<path fill="#ffffff" fill-rule="evenodd" stroke="#000000" stroke-width="2" stroke-linejoin="round" d="M 404.741 232.642 C 419.790 233.504 428.800 260.634 418.309 267.567 C 410.970 272.418 389.946 267.855 407.597 252.061 C 390.262 250.704 387.258 258.557 389.765 271.313 C 395.253 299.231 441.165 290.614 443.253 263.164 C 448.420 195.248 372.211 177.217 353.706 237.800 C 345.981 220.845 342.043 205.328 345.019 189.454 C 349.120 167.580 354.364 159.593 379.915 149.335 C 359.036 142.419 341.601 147.216 331.134 157.515 C 313.138 175.224 298.436 190.426 302.695 237.631 C 306.823 283.388 376.907 349.732 307.844 412.839 C 321.418 384.037 330.189 366.782 316.464 343.149 C 290.854 299.051 228.667 311.715 224.725 360.166 C 222.334 389.563 258.852 408.285 277.490 384.164 C 287.404 371.335 288.501 360.839 267.399 358.516 C 277.849 372.807 254.009 378.297 250.321 369.552 C 245.978 359.256 255.798 340.877 269.137 342.085 C 316.488 346.375 303.179 383.593 283.907 403.204 C 266.210 421.213 246.365 444.847 243.468 463.528 C 243.468 463.528 242.729 425.197 215.467 423.914 C 188.235 422.632 182.013 451.178 182.010 451.180 C 182.013 451.180 199.061 432.598 211.018 447.813 C 227.665 468.998 199.729 504.923 218.896 557.074 C 244.399 626.461 290.119 658.212 354.544 647.901 C 481.035 627.658 455.765 468.733 361.350 470.321 C 310.280 471.180 288.557 514.476 319.611 550.408 C 333.566 566.555 373.926 555.958 363.508 537.627 C 365.355 537.327 360.447 544.998 356.118 543.467 C 334.026 535.653 346.565 515.517 360.337 514.114 C 396.614 510.418 403.958 557.234 369.649 580.105 C 326.458 608.895 248.777 561.005 271.197 495.790 C 302.135 405.794 392.503 431.120 412.841 445.788 C 424.916 454.497 438.399 472.553 438.402 472.556 C 438.400 472.546 457.174 440.460 421.789 374.577 C 406.032 345.240 394.282 319.344 380.286 299.368 C 370.870 287.813 362.933 230.250 404.741 232.642 M 428.296 357.181 C 437.594 373.644 448.356 393.141 457.426 412.709 C 479.885 461.161 455.527 496.154 455.527 496.162 C 455.528 496.167 463.962 516.062 465.287 542.319 C 467.813 592.405 430.986 632.376 430.983 632.385 C 430.993 632.368 550.653 601.361 528.378 465.111 C 523.770 436.927 498.303 392.494 466.587 363.487 C 423.203 323.807 455.301 289.602 455.300 289.595 C 455.298 289.601 399.666 306.488 428.296 357.181 M 283.551 290.929 C 309.817 303.471 315.679 316.848 315.682 316.850 C 315.680 316.845 310.785 295.615 291.455 265.942 C 284.289 254.941 276.862 236.047 281.044 214.204 C 297.573 127.862 351.099 128.145 364.745 90.392 C 375.270 61.270 360.000 17.069 360.000 17.062 C 359.998 17.067 359.683 51.171 341.045 74.433 C 304.482 120.067 255.305 110.009 236.125 165.249 C 212.375 233.657 239.873 270.072 283.551 290.929 Z"/>
</g>
<g id="specs_2">
<path fill="#ff0000" fill-rule="evenodd" stroke="none" d="M 360.000 679.055 C 360.001 679.059 371.588 711.502 371.589 711.506 C 371.588 711.505 360.001 700.724 360.000 700.722 C 359.999 700.724 348.412 711.505 348.411 711.506 C 348.412 711.502 359.999 679.059 360.000 679.055 Z"/>
<path fill="#0000ff" fill-rule="evenodd" stroke="none" d="M 360.000 13.483 C 360.001 13.485 366.731 32.331 366.732 32.333 C 366.731 32.332 360.001 26.070 360.000 26.070 C 359.999 26.070 353.269 32.332 353.268 32.333 C 353.269 32.331 359.999 13.485 360.000 13.483 Z"/>
<path fill="#00ff00" fill-rule="evenodd" stroke="none" d="M 190.561 292.155 C 190.564 292.154 221.917 280.777 221.920 280.776 C 221.919 280.777 211.539 292.048 211.538 292.050 C 211.539 292.051 222.032 303.215 222.034 303.216 C 222.030 303.215 190.564 292.157 190.561 292.155 Z"/>
<path fill="#ffff00" fill-rule="evenodd" stroke="none" d="M 259.585 633.491 C 259.586 633.489 267.939 615.304 267.939 615.302 C 267.939 615.303 268.379 624.486 268.379 624.487 C 268.380 624.487 277.570 624.710 277.571 624.710 C 277.570 624.710 259.587 633.490 259.585 633.491 Z"/>
<path fill="#ffff00" fill-rule="evenodd" stroke="none" d="M 460.415 633.268 C 460.414 633.266 451.698 615.252 451.697 615.250 C 451.697 615.251 451.442 624.441 451.442 624.442 C 451.441 624.442 442.257 624.849 442.256 624.849 C 442.258 624.850 460.413 633.267 460.415 633.268 Z"/>
<path fill="#00ff00" fill-rule="evenodd" stroke="none" d="M 529.439 292.155 C 529.436 292.154 498.083 280.777 498.080 280.776 C 498.081 280.777 508.461 292.048 508.462 292.050 C 508.461 292.051 497.968 303.215 497.966 303.216 C 497.970 303.215 529.436 292.157 529.439 292.155 Z"/>
<path fill="#be0027" fill-rule="evenodd" stroke="none" d="M 360.000 665.049 C 360.001 665.046 371.588 632.602 371.589 632.599 C 371.588 632.600 360.001 643.381 360.000 643.382 C 359.999 643.381 348.412 632.600 348.411 632.599 C 348.412 632.602 359.999 665.046 360.000 665.049 Z"/>
</g>
</g>
</svg>
