<?xml version="1.0" encoding="utf-8"?>
<!-- Generator: Moho 12.5 build 22414 -->
<!DOCTYPE svg PUBLIC "-//W3C//DTD SVG 1.1//EN" "http://www.w3.org/Graphics/SVG/1.1/DTD/svg11.dtd">
<svg version="1.1" id="Frame_0" xmlns="http://www.w3.org/2000/svg" xmlns:xlink="http://www.w3.org/1999/xlink" width="720px" height="720px">
<g id="fish_tail_curved">
<g id="fish_tail">
<path fill="#ffffff" fill-rule="evenodd" stroke="#000000" stroke-width="4" stroke-linecap="round" stroke-linejoin="round" d="M 344.203 98.051 C 344.895 97.554 416.638 138.292 426.737 167.468 C 434.878 190.990 434.249 243.715 411.157 253.009 C 382.516 264.536 338.722 212.767 328.624 183.591 C 320.482 160.069 323.995 112.584 344.203 98.051 M 126.649 90.288 C 125.879 89.925 62.750 143.043 58.131 173.569 C 54.407 198.180 64.624 249.910 89.021 254.845 C 119.282 260.966 152.920 202.089 157.539 171.563 C 161.263 146.952 149.165 100.900 126.649 90.288 Z"/>
<path fill="none" stroke="#000000" stroke-width="4" stroke-linecap="round" stroke-linejoin="round" d="M 137.536 180.884 C 123.016 200.780 108.495 220.675 93.975 240.571 M 130.043 158.389 C 113.754 177.688 97.465 196.987 81.176 216.286 M 122.320 131.739 C 106.012 150.692 89.704 169.646 73.396 188.599 M 351.841 188.877 C 370.684 204.977 389.526 221.077 408.369 237.177 M 353.155 158.306 C 373.593 175.949 394.031 193.591 414.469 211.233 M 353.069 133.157 C 374.018 149.336 394.967 165.514 415.916 181.693 "/>
<path fill="#ffffff" fill-rule="evenodd" stroke="#000000" stroke-width="4" stroke-linecap="round" stroke-linejoin="round" d="M 387.656 81.602 C 301.805 81.570 189.172 81.564 97.958 81.724 C 121.378 379.818 186.200 560.796 337.185 595.872 C 420.007 615.112 491.660 586.262 539.094 517.862 C 576.382 464.092 746.132 437.841 727.096 387.874 C 713.862 353.139 609.125 396.259 568.695 375.414 C 528.264 354.569 502.457 243.558 466.670 253.606 C 420.741 266.502 470.966 399.632 463.221 457.494 C 460.128 480.600 445.775 502.499 418.040 499.191 C 345.312 490.514 353.824 398.865 356.615 324.250 C 358.146 283.307 372.876 213.184 387.656 81.602 Z"/>
<path fill="none" stroke="#000000" stroke-width="4" stroke-linecap="round" stroke-linejoin="round" d="M 546.078 428.030 C 555.583 415.891 565.087 403.751 574.591 391.612 M 560.451 436.089 C 576.037 422.655 591.624 409.220 607.210 395.785 M 576.765 447.632 C 602.975 429.851 629.186 412.069 655.396 394.287 M 589.824 461.176 C 629.552 438.961 669.279 416.746 709.007 394.532 M 529.088 418.649 C 536.075 405.067 543.062 391.486 550.049 377.905 M 512.192 409.610 C 517.506 391.412 522.820 373.213 528.134 355.015 M 494.291 405.190 C 497.494 375.520 500.698 345.850 503.902 316.181 M 477.223 402.090 C 475.685 358.944 474.146 315.798 472.608 272.652 "/>
</g>
<g id="specs">
<path fill="#ff00ff" fill-rule="evenodd" stroke="none" d="M 154.963 89.757 C 154.963 89.787 154.963 386.156 154.963 386.186 C 154.982 386.186 349.984 386.186 350.004 386.186 C 350.004 386.156 350.004 89.787 350.004 89.757 C 349.984 89.757 154.982 89.757 154.963 89.757 Z"/>
<path fill="#0000ff" fill-rule="evenodd" stroke="none" d="M 242.807 40.160 C 242.808 40.163 252.855 68.295 252.856 68.298 C 252.855 68.297 242.808 58.949 242.807 58.948 C 242.806 58.949 232.760 68.297 232.759 68.298 C 232.760 68.295 242.806 40.163 242.807 40.160 Z"/>
<path fill="#00ff00" fill-rule="evenodd" stroke="none" d="M 418.472 186.151 C 418.469 186.152 390.107 195.527 390.104 195.528 C 390.105 195.527 399.689 185.705 399.690 185.704 C 399.689 185.703 390.582 175.436 390.581 175.435 C 390.584 175.436 418.469 186.150 418.472 186.151 Z"/>
<path fill="#ffff00" fill-rule="evenodd" stroke="none" d="M 232.228 562.026 C 232.229 562.023 244.698 534.877 244.699 534.875 C 244.699 534.876 245.355 548.584 245.355 548.585 C 245.357 548.585 259.075 548.917 259.077 548.918 C 259.074 548.919 232.231 562.024 232.228 562.026 Z"/>
<path fill="#ffff00" fill-rule="evenodd" stroke="none" d="M 526.312 562.262 C 526.311 562.259 513.301 535.369 513.300 535.366 C 513.300 535.367 512.918 549.086 512.918 549.087 C 512.917 549.087 499.207 549.695 499.206 549.695 C 499.209 549.696 526.310 562.261 526.312 562.262 Z"/>
<path fill="#00ffff" fill-rule="evenodd" stroke="none" d="M 390.155 78.247 C 390.155 78.249 385.377 91.739 385.376 91.741 C 385.376 91.740 384.472 85.227 384.472 85.227 C 384.471 85.227 377.910 85.660 377.910 85.660 C 377.911 85.659 390.154 78.248 390.155 78.247 Z"/>
<path fill="#00ffff" fill-rule="evenodd" stroke="none" d="M 94.206 78.694 C 94.206 78.696 99.873 91.838 99.874 91.839 C 99.874 91.838 100.342 85.280 100.342 85.279 C 100.343 85.279 106.917 85.274 106.918 85.274 C 106.917 85.274 94.207 78.695 94.206 78.694 Z"/>
<path fill="#ff0000" fill-rule="evenodd" stroke="none" d="M 242.807 114.669 C 242.806 114.665 225.510 66.235 225.508 66.230 C 225.510 66.232 242.806 82.325 242.807 82.326 C 242.809 82.325 260.105 66.232 260.107 66.230 C 260.105 66.235 242.809 114.665 242.807 114.669 Z"/>
<path fill="#be0027" fill-rule="evenodd" stroke="none" d="M 578.355 353.327 C 578.355 353.331 572.075 396.736 572.074 396.740 C 572.073 396.738 565.455 377.708 565.454 377.706 C 565.452 377.707 545.996 382.939 545.994 382.939 C 545.997 382.936 578.352 353.330 578.355 353.327 Z"/>
<path fill="#00ff00" fill-rule="evenodd" stroke="none" d="M 68.714 186.151 C 68.717 186.152 97.080 195.527 97.083 195.528 C 97.082 195.527 87.498 185.705 87.497 185.704 C 87.498 185.703 96.604 175.436 96.605 175.435 C 96.602 175.436 68.717 186.150 68.714 186.151 Z"/>
</g>
</g>
</svg>
