<?xml version="1.0" encoding="utf-8"?>
<!-- Generator: Moho 12.5 build 22414 -->
<!DOCTYPE svg PUBLIC "-//W3C//DTD SVG 1.1//EN" "http://www.w3.org/Graphics/SVG/1.1/DTD/svg11.dtd">
<svg version="1.1" id="Frame_0" xmlns="http://www.w3.org/2000/svg" xmlns:xlink="http://www.w3.org/1999/xlink" width="720px" height="720px">
<g id="fish_tail">
<g id="fish_tail">
<path fill="#ffffff" fill-rule="evenodd" stroke="#000000" stroke-width="4" stroke-linecap="round" stroke-linejoin="round" d="M 405.440 305.692 C 405.149 305.154 440.760 257.745 462.482 253.218 C 479.995 249.569 517.521 254.847 522.031 272.158 C 527.624 293.631 486.711 320.106 464.988 324.632 C 447.475 328.282 413.948 321.428 405.440 305.692 M 405.440 409.931 C 405.149 410.469 440.759 457.879 462.482 462.405 C 479.995 466.055 517.521 460.777 522.031 443.465 C 527.624 421.993 486.710 395.517 464.988 390.991 C 447.475 387.342 413.948 394.195 405.440 409.931 Z"/>
<path fill="none" stroke="#000000" stroke-width="4" stroke-linecap="round" stroke-linejoin="round" d="M 470.883 405.715 C 484.583 416.925 498.284 428.134 511.984 439.344 M 454.443 410.199 C 467.645 422.654 480.847 435.109 494.049 447.564 M 435.013 414.683 C 447.966 427.138 460.919 439.593 473.873 452.048 M 470.883 308.567 C 484.085 296.610 497.288 284.653 510.490 272.696 M 449.211 304.830 C 463.659 291.877 478.107 278.924 492.555 265.971 M 431.276 302.588 C 444.728 289.137 458.179 275.685 471.631 262.234 "/>
<path fill="#ffffff" fill-rule="evenodd" stroke="#000000" stroke-width="4" stroke-linecap="round" stroke-linejoin="round" d="M 348.994 243.831 C 348.966 311.260 348.958 399.724 349.081 471.364 C 355.580 470.921 361.237 470.418 366.881 469.787 C 452.794 460.174 486.328 398.499 539.949 398.155 C 557.153 398.045 581.192 410.082 597.274 416.194 C 629.378 428.394 686.416 485.959 706.330 466.183 C 725.286 447.359 662.121 393.586 662.121 360.894 C 662.121 328.203 725.286 274.430 706.330 255.606 C 686.415 235.830 630.030 295.271 597.274 305.595 C 581.314 310.625 556.648 318.137 539.949 317.035 C 486.444 313.503 452.820 254.783 366.881 245.403 C 361.095 244.771 355.319 244.264 348.994 243.831 Z"/>
<path fill="none" stroke="#000000" stroke-width="4" stroke-linecap="round" stroke-linejoin="round" d="M 621.409 368.650 C 632.178 369.098 642.947 369.547 653.716 369.996 M 620.736 382.784 C 634.422 385.925 648.107 389.066 661.793 392.207 M 618.717 395.572 C 638.685 404.546 658.652 413.520 678.620 422.495 M 614.679 410.379 C 641.826 425.860 668.973 441.340 696.119 456.820 M 622.082 353.842 C 632.851 352.496 643.620 351.150 654.390 349.804 M 621.409 338.362 C 634.871 334.997 648.332 331.631 661.793 328.266 M 618.044 324.901 C 638.236 316.600 658.428 308.298 678.620 299.997 M 614.679 312.113 C 641.826 296.632 668.973 281.152 696.119 265.671 "/>
</g>
<g id="specs">
<path fill="#ff00ff" fill-rule="evenodd" stroke="none" d="M 356.188 417.490 C 356.200 417.490 477.471 417.490 477.483 417.490 C 477.483 417.478 477.483 296.207 477.483 296.195 C 477.471 296.195 356.200 296.195 356.188 296.195 C 356.188 296.207 356.188 417.478 356.188 417.490 Z"/>
<path fill="#ff0000" fill-rule="evenodd" stroke="none" d="M 372.670 360.000 C 372.667 360.001 337.861 372.432 337.857 372.433 C 337.859 372.432 349.424 360.001 349.426 360.000 C 349.424 359.999 337.859 347.568 337.857 347.567 C 337.861 347.568 372.667 359.999 372.670 360.000 Z"/>
<path fill="#0000ff" fill-rule="evenodd" stroke="none" d="M 319.121 360.000 C 319.123 359.999 339.341 352.779 339.343 352.778 C 339.342 352.779 332.624 359.999 332.624 360.000 C 332.624 360.001 339.342 367.221 339.343 367.222 C 339.341 367.221 319.123 360.001 319.121 360.000 Z"/>
<path fill="#00ff00" fill-rule="evenodd" stroke="none" d="M 548.565 412.079 C 548.564 412.077 541.242 391.896 541.241 391.894 C 541.242 391.895 548.496 398.576 548.497 398.577 C 548.498 398.576 555.684 391.822 555.685 391.821 C 555.684 391.823 548.566 412.077 548.565 412.079 Z"/>
<path fill="#ffff00" fill-rule="evenodd" stroke="none" d="M 706.914 466.830 C 706.912 466.829 687.403 457.868 687.401 457.867 C 687.402 457.867 697.253 457.395 697.254 457.395 C 697.254 457.394 697.493 447.535 697.493 447.534 C 697.494 447.536 706.913 466.828 706.914 466.830 Z"/>
<path fill="#ffff00" fill-rule="evenodd" stroke="none" d="M 707.083 255.474 C 707.081 255.475 687.756 264.825 687.754 264.826 C 687.755 264.826 697.614 265.100 697.615 265.100 C 697.615 265.101 698.052 274.954 698.052 274.955 C 698.053 274.953 707.083 255.476 707.083 255.474 Z"/>
<path fill="#00ff00" fill-rule="evenodd" stroke="none" d="M 547.642 304.200 C 547.641 304.202 540.318 324.383 540.318 324.385 C 540.318 324.384 547.573 317.703 547.574 317.702 C 547.575 317.703 554.761 324.457 554.762 324.458 C 554.761 324.456 547.643 304.202 547.642 304.200 Z"/>
<path fill="#00ffff" fill-rule="evenodd" stroke="none" d="M 346.494 242.022 C 346.495 242.022 356.191 245.456 356.192 245.456 C 356.191 245.456 351.511 246.107 351.510 246.107 C 351.510 246.107 351.821 250.822 351.821 250.823 C 351.821 250.822 346.495 242.023 346.494 242.022 Z"/>
<path fill="#00ffff" fill-rule="evenodd" stroke="none" d="M 346.815 473.242 C 346.816 473.241 356.261 469.169 356.262 469.168 C 356.262 469.168 351.548 468.832 351.548 468.832 C 351.548 468.831 351.544 464.106 351.544 464.105 C 351.544 464.106 346.816 473.241 346.815 473.242 Z"/>
<path fill="none" stroke="#f7f400" stroke-width="4" stroke-linecap="round" stroke-linejoin="round" d="M 348.994 243.831 C 348.966 311.260 348.958 399.724 349.081 471.364 "/>
<path fill="#f7f409" fill-rule="evenodd" stroke="none" d="M 326.017 360.000 C 326.020 360.001 360.826 372.432 360.829 372.433 C 360.828 372.432 349.262 360.001 349.261 360.000 C 349.262 359.999 360.828 347.568 360.829 347.567 C 360.826 347.568 326.020 359.999 326.017 360.000 Z"/>
<path fill="#be0027" fill-rule="evenodd" stroke="none" d="M 682.108 360.000 C 682.104 360.001 647.299 372.432 647.295 372.433 C 647.296 372.432 658.862 360.001 658.863 360.000 C 658.862 359.999 647.296 347.568 647.295 347.567 C 647.299 347.568 682.104 359.999 682.108 360.000 Z"/>
</g>
</g>
</svg>
