<?xml version="1.0" encoding="utf-8"?>
<!-- Generator: Moho 12.5 build 22414 -->
<!DOCTYPE svg PUBLIC "-//W3C//DTD SVG 1.1//EN" "http://www.w3.org/Graphics/SVG/1.1/DTD/svg11.dtd">
<svg version="1.1" id="Frame_0" xmlns="http://www.w3.org/2000/svg" xmlns:xlink="http://www.w3.org/1999/xlink" width="720px" height="720px">
<g id="fish_tail_2">
<g id="fish_tail">
<path fill="#ffffff" fill-rule="evenodd" stroke="#000000" stroke-width="6" stroke-linecap="round" stroke-linejoin="round" d="M 179.631 273.103 C 179.166 272.242 236.146 196.384 270.902 189.142 C 298.925 183.303 358.969 191.748 366.185 219.447 C 375.135 253.804 309.670 296.167 274.913 303.410 C 246.891 309.248 193.246 298.282 179.631 273.103 M 179.631 439.893 C 179.166 440.754 236.145 516.613 270.902 523.855 C 298.925 529.694 358.969 521.249 366.185 493.550 C 375.135 459.193 309.670 416.830 274.913 409.588 C 246.891 403.749 193.246 414.714 179.631 439.893 Z"/>
<path fill="none" stroke="#000000" stroke-width="6" stroke-linecap="round" stroke-linejoin="round" d="M 284.345 433.147 C 306.267 451.083 328.188 469.019 350.110 486.955 M 258.039 440.322 C 279.164 460.250 300.288 480.179 321.413 500.108 M 226.950 447.496 C 247.676 467.425 268.402 487.354 289.129 507.283 M 284.345 277.703 C 305.470 258.571 326.594 239.440 347.719 220.308 M 249.669 271.724 C 272.787 250.999 295.904 230.273 319.022 209.547 M 220.972 268.137 C 242.495 246.614 264.018 225.091 285.541 203.568 "/>
<path fill="#ffffff" fill-rule="evenodd" stroke="#000000" stroke-width="6" stroke-linecap="round" stroke-linejoin="round" d="M 89.314 174.122 C 89.270 282.012 89.257 423.560 89.454 538.190 C 99.853 537.481 108.904 536.677 117.935 535.666 C 255.402 520.285 309.058 421.602 394.856 421.051 C 422.383 420.874 460.847 440.135 486.580 449.914 C 537.948 469.436 629.212 561.542 661.076 529.900 C 691.406 499.780 590.339 413.739 590.339 361.431 C 590.339 309.122 691.407 223.081 661.076 192.962 C 629.211 161.319 538.991 256.429 486.580 272.948 C 461.042 280.997 421.574 293.016 394.856 291.252 C 309.243 285.601 255.443 191.645 117.935 176.637 C 108.676 175.626 99.434 174.815 89.314 174.122 Z"/>
<path fill="none" stroke="#000000" stroke-width="6" stroke-linecap="round" stroke-linejoin="round" d="M 525.197 373.840 C 542.428 374.558 559.659 375.276 576.891 375.994 M 524.120 396.456 C 546.018 401.482 567.916 406.507 589.814 411.533 M 520.890 416.918 C 552.839 431.277 584.788 445.636 616.738 459.995 M 514.428 440.610 C 557.865 465.380 601.302 490.150 644.738 514.919 M 526.274 350.148 C 543.506 347.994 560.737 345.840 577.968 343.686 M 525.198 325.378 C 546.737 319.993 568.275 314.608 589.814 309.223 M 519.813 303.839 C 552.121 290.556 584.429 277.274 616.738 263.992 M 514.428 283.377 C 557.865 258.607 601.302 233.838 644.738 209.068 "/>
</g>
<g id="specs">
<path fill="#ff00ff" fill-rule="evenodd" stroke="none" d="M 100.826 451.987 C 100.845 451.987 294.886 451.987 294.906 451.987 C 294.906 451.968 294.906 257.927 294.906 257.908 C 294.886 257.908 100.845 257.908 100.826 257.908 C 100.826 257.927 100.826 451.968 100.826 451.987 Z"/>
<path fill="#ff0000" fill-rule="evenodd" stroke="none" d="M 127.198 360.000 C 127.192 360.002 71.501 379.892 71.495 379.894 C 71.497 379.892 90.003 360.002 90.005 360.000 C 90.003 359.998 71.497 340.108 71.495 340.106 C 71.501 340.108 127.192 359.998 127.198 360.000 Z"/>
<path fill="#0000ff" fill-rule="evenodd" stroke="none" d="M 41.516 360.000 C 41.519 359.999 73.869 348.446 73.872 348.444 C 73.871 348.446 63.122 359.999 63.121 360.000 C 63.122 360.001 73.871 371.554 73.872 371.556 C 73.869 371.554 41.519 360.001 41.516 360.000 Z"/>
<path fill="#00ff00" fill-rule="evenodd" stroke="none" d="M 408.642 443.331 C 408.641 443.327 396.924 411.036 396.922 411.032 C 396.924 411.033 408.532 421.725 408.533 421.726 C 408.534 421.725 420.033 410.917 420.034 410.916 C 420.033 410.919 408.643 443.327 408.642 443.331 Z"/>
<path fill="#ffff00" fill-rule="evenodd" stroke="none" d="M 662.010 530.935 C 662.007 530.933 630.791 516.595 630.788 516.594 C 630.790 516.594 646.553 515.839 646.554 515.839 C 646.554 515.837 646.937 500.061 646.937 500.060 C 646.938 500.063 662.009 530.931 662.010 530.935 Z"/>
<path fill="#ffff00" fill-rule="evenodd" stroke="none" d="M 662.282 192.751 C 662.279 192.753 631.356 207.713 631.353 207.715 C 631.354 207.715 647.130 208.154 647.131 208.154 C 647.131 208.155 647.830 223.921 647.830 223.922 C 647.832 223.919 662.280 192.754 662.282 192.751 Z"/>
<path fill="#00ff00" fill-rule="evenodd" stroke="none" d="M 407.165 270.716 C 407.163 270.719 395.446 303.011 395.445 303.014 C 395.446 303.013 407.054 292.322 407.056 292.320 C 407.057 292.322 418.556 303.129 418.557 303.130 C 418.556 303.127 407.166 270.719 407.165 270.716 Z"/>
<path fill="#00ffff" fill-rule="evenodd" stroke="none" d="M 85.314 171.227 C 85.316 171.228 100.829 176.722 100.831 176.722 C 100.830 176.723 93.341 177.763 93.340 177.763 C 93.340 177.764 93.839 185.308 93.839 185.309 C 93.838 185.308 85.315 171.229 85.314 171.227 Z"/>
<path fill="#00ffff" fill-rule="evenodd" stroke="none" d="M 85.828 541.194 C 85.830 541.194 100.943 534.677 100.944 534.677 C 100.943 534.677 93.402 534.138 93.401 534.138 C 93.401 534.137 93.395 526.576 93.395 526.576 C 93.394 526.577 85.829 541.193 85.828 541.194 Z"/>
</g>
</g>
</svg>
