<?xml version="1.0" encoding="utf-8"?>
<!-- Generator: Moho 12.5 build 22414 -->
<!DOCTYPE svg PUBLIC "-//W3C//DTD SVG 1.1//EN" "http://www.w3.org/Graphics/SVG/1.1/DTD/svg11.dtd">
<svg version="1.1" id="Frame_0" xmlns="http://www.w3.org/2000/svg" xmlns:xlink="http://www.w3.org/1999/xlink" width="720px" height="720px">
<g id="fish_tail_curved">
<g id="fish_tail">
<path fill="#ffffff" fill-rule="evenodd" stroke="#000000" stroke-width="4" stroke-linecap="round" stroke-linejoin="round" d="M 143.905 437.865 C 146.905 458.972 168.014 498.897 189.244 496.943 C 215.576 494.520 228.687 437.941 224.966 411.761 C 221.966 390.654 200.710 355.849 179.627 352.683 C 178.906 352.575 140.184 411.684 143.905 437.865 Z"/>
<path fill="none" stroke="#000000" stroke-width="4" stroke-linecap="round" stroke-linejoin="round" d="M 210.849 424.330 C 203.831 444.224 196.813 464.119 189.796 484.014 M 199.167 407.717 C 190.551 427.558 181.936 447.399 173.321 467.239 M 186.274 387.754 C 177.558 407.316 168.842 426.877 160.126 446.439 "/>
<path fill="#ffffff" fill-rule="evenodd" stroke="#000000" stroke-width="4" stroke-linecap="round" stroke-linejoin="round" d="M 338.242 215.210 C 338.884 214.863 395.384 257.303 400.778 283.190 C 405.127 304.062 398.837 348.783 378.206 354.158 C 352.616 360.824 321.064 312.065 315.670 286.178 C 311.321 265.306 319.488 225.350 338.242 215.210 M 129.738 99.748 C 129.123 99.356 69.696 137.589 62.439 163.017 C 56.589 183.519 59.622 228.579 79.809 235.434 C 104.849 243.937 139.851 197.593 147.107 172.164 C 152.957 151.663 147.707 111.221 129.738 99.748 Z"/>
<path fill="none" stroke="#000000" stroke-width="4" stroke-linecap="round" stroke-linejoin="round" d="M 129.097 177.899 C 114.590 193.216 100.083 208.532 85.576 223.849 M 125.187 157.971 C 109.243 172.588 93.298 187.204 77.354 201.821 M 121.535 134.489 C 105.612 148.810 89.689 163.131 73.767 177.452 M 334.816 293.203 C 349.066 308.936 363.315 324.670 377.565 340.404 M 339.269 267.375 C 354.706 284.594 370.143 301.812 385.580 319.030 M 341.941 246.001 C 357.972 262.032 374.002 278.063 390.033 294.094 "/>
<path fill="#ffffff" fill-rule="evenodd" stroke="#000000" stroke-width="4" stroke-linecap="round" stroke-linejoin="round" d="M 366.871 81.611 C 293.339 81.584 196.868 81.578 118.744 81.715 C 123.323 320.973 150.092 352.193 185.818 411.985 C 216.830 463.888 281.940 504.685 372.902 505.257 C 495.000 506.026 547.588 436.646 566.834 329.659 C 576.626 275.228 686.847 187.517 653.504 157.009 C 630.015 135.518 565.747 207.604 526.798 206.670 C 487.849 205.735 426.757 130.228 402.620 150.989 C 371.471 177.782 459.491 263.802 471.072 312.729 C 480.967 354.535 462.461 407.186 411.013 408.800 C 366.823 410.186 342.601 362.716 343.920 316.967 C 345.621 257.985 365.191 211.796 366.871 81.611 Z"/>
<path fill="none" stroke="#000000" stroke-width="4" stroke-linecap="round" stroke-linejoin="round" d="M 534.875 255.396 C 535.717 242.579 536.559 229.761 537.401 216.944 M 551.695 256.602 C 555.828 240.387 559.961 224.171 564.095 207.956 M 566.873 259.373 C 578.136 235.840 589.398 212.307 600.661 188.775 M 584.399 264.607 C 603.619 232.707 622.838 200.807 642.057 168.906 M 517.253 254.171 C 515.956 241.302 514.660 228.433 513.364 215.564 M 498.789 254.530 C 495.165 238.396 491.540 222.262 487.915 206.128 M 482.655 258.155 C 473.342 233.861 464.029 209.566 454.716 185.272 M 467.323 261.798 C 449.656 229.013 431.988 196.227 414.321 163.442 "/>
</g>
<g id="specs">
<path fill="#ff00ff" fill-rule="evenodd" stroke="none" d="M 153.316 90.291 C 153.316 90.317 153.316 350.298 153.316 350.324 C 153.334 350.324 331.065 350.324 331.082 350.324 C 331.082 350.298 331.082 90.317 331.082 90.291 C 331.065 90.291 153.334 90.291 153.316 90.291 Z"/>
<path fill="#0000ff" fill-rule="evenodd" stroke="none" d="M 242.807 46.116 C 242.808 46.118 251.413 70.213 251.414 70.215 C 251.413 70.215 242.808 62.208 242.807 62.207 C 242.806 62.208 234.201 70.215 234.201 70.215 C 234.201 70.213 242.806 46.118 242.807 46.116 Z"/>
<path fill="#00ff00" fill-rule="evenodd" stroke="none" d="M 524.129 190.776 C 524.130 190.778 532.857 214.830 532.858 214.832 C 532.857 214.831 524.211 206.868 524.210 206.867 C 524.209 206.868 515.644 214.918 515.643 214.919 C 515.644 214.916 524.128 190.778 524.129 190.776 Z"/>
<path fill="#ffff00" fill-rule="evenodd" stroke="none" d="M 244.104 486.193 C 244.105 486.191 254.784 462.941 254.785 462.939 C 254.785 462.940 255.347 474.680 255.347 474.682 C 255.348 474.682 267.098 474.966 267.099 474.966 C 267.097 474.967 244.106 486.192 244.104 486.193 Z"/>
<path fill="#ffff00" fill-rule="evenodd" stroke="none" d="M 495.987 486.396 C 495.986 486.393 484.843 463.362 484.842 463.360 C 484.842 463.361 484.515 475.110 484.515 475.112 C 484.514 475.112 472.772 475.632 472.770 475.632 C 472.773 475.633 495.985 486.395 495.987 486.396 Z"/>
<path fill="#00ff00" fill-rule="evenodd" stroke="none" d="M 370.704 522.815 C 370.705 522.813 379.432 498.762 379.433 498.759 C 379.432 498.760 370.786 506.723 370.785 506.724 C 370.785 506.723 362.220 498.673 362.219 498.672 C 362.220 498.675 370.703 522.813 370.704 522.815 Z"/>
<path fill="#00ffff" fill-rule="evenodd" stroke="none" d="M 369.011 78.738 C 369.011 78.739 364.918 90.293 364.918 90.295 C 364.918 90.294 364.143 84.716 364.143 84.715 C 364.143 84.715 358.523 85.087 358.523 85.087 C 358.524 85.086 369.010 78.738 369.011 78.738 Z"/>
<path fill="#00ffff" fill-rule="evenodd" stroke="none" d="M 115.530 79.120 C 115.530 79.121 120.384 90.378 120.384 90.379 C 120.384 90.378 120.785 84.761 120.786 84.761 C 120.786 84.761 126.417 84.756 126.418 84.756 C 126.417 84.756 115.531 79.121 115.530 79.120 Z"/>
<path fill="#ff0000" fill-rule="evenodd" stroke="none" d="M 242.807 109.933 C 242.806 109.929 227.992 68.449 227.990 68.445 C 227.992 68.446 242.806 82.230 242.807 82.231 C 242.809 82.230 257.623 68.446 257.624 68.445 C 257.623 68.449 242.809 109.929 242.807 109.933 Z"/>
</g>
</g>
</svg>
