<?xml version="1.0" encoding="utf-8"?>
<!-- Generator: Moho 12.5 build 22414 -->
<!DOCTYPE svg PUBLIC "-//W3C//DTD SVG 1.1//EN" "http://www.w3.org/Graphics/SVG/1.1/DTD/svg11.dtd">
<svg version="1.1" id="Frame_0" xmlns="http://www.w3.org/2000/svg" xmlns:xlink="http://www.w3.org/1999/xlink" width="720px" height="720px">
<g id="fish_tail_curved">
<g id="fish_tail">
<path fill="#ffffff" fill-rule="evenodd" stroke="#000000" stroke-width="4" stroke-linecap="round" stroke-linejoin="round" d="M 376.002 96.077 C 376.751 95.672 442.717 145.222 449.015 175.446 C 454.092 199.814 446.749 252.029 422.661 258.304 C 392.784 266.087 355.946 209.159 349.648 178.934 C 344.570 154.566 354.106 107.916 376.002 96.077 M 110.794 102.778 C 110.076 102.320 40.692 146.959 32.221 176.647 C 25.390 200.584 28.931 253.193 52.501 261.197 C 81.735 271.125 122.602 217.016 131.074 187.327 C 137.904 163.391 131.774 116.173 110.794 102.778 Z"/>
<path fill="none" stroke="#000000" stroke-width="4" stroke-linecap="round" stroke-linejoin="round" d="M 110.046 194.023 C 93.108 211.905 76.171 229.788 59.233 247.671 M 105.481 170.755 C 86.865 187.821 68.249 204.887 49.634 221.953 M 101.217 143.339 C 82.627 160.059 64.036 176.780 45.446 193.500 M 372.002 187.136 C 388.639 205.506 405.276 223.876 421.913 242.246 M 377.201 156.982 C 395.224 177.085 413.247 197.188 431.270 217.291 M 380.320 132.026 C 399.037 150.743 417.753 169.460 436.470 188.176 "/>
<path fill="#ffffff" fill-rule="evenodd" stroke="#000000" stroke-width="4" stroke-linecap="round" stroke-linejoin="round" d="M 387.656 81.602 C 301.805 81.570 189.172 81.564 97.958 81.724 C 105.097 373.269 161.427 544.503 303.914 595.028 C 387.340 624.610 466.678 610.732 523.745 545.524 C 566.268 496.933 731.887 483.460 718.836 432.335 C 709.641 396.319 600.758 425.616 563.314 399.789 C 525.870 373.961 514.500 261.133 477.645 265.971 C 430.082 272.215 454.792 410.662 441.042 467.732 C 436.087 488.296 423.155 507.261 398.113 503.356 C 331.282 492.935 352.168 396.321 359.484 322.013 C 363.457 281.668 374.410 211.950 387.656 81.602 Z"/>
<path fill="none" stroke="#000000" stroke-width="4" stroke-linecap="round" stroke-linejoin="round" d="M 540.033 452.547 C 549.055 440.566 558.076 428.586 567.098 416.606 M 555.690 464.483 C 570.100 451.290 584.510 438.096 598.919 424.902 M 568.743 476.899 C 594.796 461.119 620.850 445.338 646.903 429.558 M 582.512 493.222 C 621.690 474.359 660.868 455.496 700.046 436.632 M 523.605 440.077 C 530.571 426.679 537.537 413.281 544.503 399.882 M 505.342 428.617 C 512.123 410.540 518.903 392.464 525.683 374.387 M 487.265 421.838 C 493.709 392.152 500.154 362.466 506.598 332.781 M 469.960 415.589 C 473.676 372.265 477.391 328.942 481.107 285.618 "/>
</g>
<g id="specs">
<path fill="#ff00ff" fill-rule="evenodd" stroke="none" d="M 140.688 89.757 C 140.688 89.787 140.688 393.326 140.688 393.356 C 140.709 393.356 348.217 393.356 348.237 393.356 C 348.237 393.326 348.238 89.787 348.238 89.757 C 348.217 89.757 140.709 89.757 140.688 89.757 Z"/>
<path fill="#0000ff" fill-rule="evenodd" stroke="none" d="M 242.807 40.160 C 242.808 40.163 252.855 68.295 252.856 68.298 C 252.855 68.297 242.808 58.949 242.807 58.948 C 242.806 58.949 232.760 68.297 232.759 68.298 C 232.760 68.295 242.806 40.163 242.807 40.160 Z"/>
<path fill="#00ff00" fill-rule="evenodd" stroke="none" d="M 551.818 379.858 C 551.817 379.860 543.672 408.601 543.672 408.604 C 543.671 408.602 540.914 395.159 540.914 395.157 C 540.913 395.158 527.305 396.939 527.304 396.939 C 527.307 396.938 551.816 379.859 551.818 379.858 Z"/>
<path fill="#ffff00" fill-rule="evenodd" stroke="none" d="M 228.657 570.060 C 228.658 570.057 241.127 542.912 241.128 542.909 C 241.128 542.910 241.784 556.618 241.784 556.620 C 241.786 556.620 255.504 556.952 255.506 556.952 C 255.503 556.953 228.660 570.059 228.657 570.060 Z"/>
<path fill="#ffff00" fill-rule="evenodd" stroke="none" d="M 522.741 570.296 C 522.740 570.294 509.730 543.403 509.729 543.401 C 509.729 543.402 509.347 557.120 509.347 557.122 C 509.346 557.122 495.636 557.729 495.635 557.729 C 495.638 557.731 522.739 570.295 522.741 570.296 Z"/>
<path fill="#00ff00" fill-rule="evenodd" stroke="none" d="M 376.468 626.758 C 376.469 626.755 386.659 598.674 386.660 598.671 C 386.659 598.672 376.564 607.969 376.563 607.970 C 376.562 607.969 366.563 598.571 366.562 598.570 C 366.563 598.573 376.467 626.755 376.468 626.758 Z"/>
<path fill="#00ffff" fill-rule="evenodd" stroke="none" d="M 390.155 78.247 C 390.155 78.249 385.377 91.739 385.376 91.741 C 385.376 91.740 384.472 85.227 384.472 85.227 C 384.471 85.227 377.910 85.660 377.910 85.660 C 377.911 85.659 390.154 78.248 390.155 78.247 Z"/>
<path fill="#00ffff" fill-rule="evenodd" stroke="none" d="M 94.206 78.694 C 94.206 78.696 99.873 91.838 99.874 91.839 C 99.874 91.838 100.342 85.280 100.342 85.279 C 100.343 85.279 106.917 85.274 106.918 85.274 C 106.917 85.274 94.207 78.695 94.206 78.694 Z"/>
<path fill="#ff0000" fill-rule="evenodd" stroke="none" d="M 242.807 114.669 C 242.806 114.665 225.510 66.235 225.508 66.230 C 225.510 66.232 242.806 82.325 242.807 82.326 C 242.809 82.325 260.105 66.232 260.107 66.230 C 260.105 66.235 242.809 114.665 242.807 114.669 Z"/>
</g>
</g>
</svg>
