<?xml version="1.0" encoding="utf-8"?>
<!-- Generator: Moho 12.5 build 22414 -->
<!DOCTYPE svg PUBLIC "-//W3C//DTD SVG 1.1//EN" "http://www.w3.org/Graphics/SVG/1.1/DTD/svg11.dtd">
<svg version="1.1" id="Frame_0" xmlns="http://www.w3.org/2000/svg" xmlns:xlink="http://www.w3.org/1999/xlink" width="720px" height="720px">
<g id="fish">
<g id="fish">
<path fill="#ffffff" fill-rule="evenodd" stroke="#000000" stroke-width="4" stroke-linecap="round" stroke-linejoin="round" d="M 215.860 277.779 C 215.877 276.910 228.255 213.665 247.161 198.051 C 261.045 186.584 295.713 171.940 308.589 184.528 C 329.629 205.098 296.365 265.240 271.028 280.202 C 257.415 288.241 215.539 293.585 215.860 277.779 M 399.540 305.692 C 399.249 305.154 434.860 257.745 456.582 253.218 C 474.095 249.569 511.621 254.847 516.131 272.158 C 521.724 293.631 480.811 320.106 459.088 324.632 C 441.575 328.282 408.048 321.428 399.540 305.692 M 399.540 409.931 C 399.249 410.469 434.860 457.879 456.582 462.405 C 474.095 466.055 511.621 460.777 516.131 443.465 C 521.724 421.993 480.811 395.517 459.088 390.991 C 441.575 387.342 408.048 394.195 399.540 409.931 Z"/>
<path fill="none" stroke="#000000" stroke-width="4" stroke-linecap="round" stroke-linejoin="round" d="M 464.983 405.715 C 478.684 416.925 492.384 428.134 506.084 439.344 M 448.543 410.199 C 461.745 422.654 474.947 435.109 488.150 447.564 M 429.113 414.683 C 442.066 427.138 455.019 439.593 467.973 452.048 M 464.983 308.567 C 478.185 296.610 491.388 284.653 504.590 272.696 M 443.312 304.830 C 457.759 291.877 472.207 278.924 486.655 265.971 M 425.376 302.588 C 438.828 289.137 452.279 275.685 465.731 262.234 M 270.802 260.960 C 282.701 237.755 294.601 214.550 306.500 191.345 M 251.284 264.998 C 261.535 240.582 271.786 216.167 282.037 191.751 M 231.765 266.344 C 239.695 245.742 247.625 225.141 255.555 204.539 "/>
<path fill="#ffffff" fill-rule="evenodd" stroke="#000000" stroke-width="4" stroke-linecap="round" stroke-linejoin="round" d="M 118.478 302.032 C 130.298 302.032 139.833 311.567 139.833 323.387 C 139.833 335.207 130.298 344.742 118.478 344.742 C 106.658 344.742 97.123 335.207 97.123 323.387 C 97.123 311.567 106.658 302.032 118.478 302.032 M 700.430 466.183 C 719.386 447.359 656.221 393.586 656.221 360.894 C 656.221 328.203 719.386 274.430 700.430 255.606 C 680.515 235.830 624.130 295.271 591.374 305.595 C 575.413 310.625 550.747 318.137 534.049 317.035 C 480.543 313.503 446.920 254.783 360.982 245.403 C 355.195 244.771 349.418 244.264 343.094 243.831 C 253.586 237.700 169.972 259.310 153.993 265.087 C 136.699 271.339 39.008 297.709 21.979 357.595 C 20.005 364.540 22.871 373.178 29.019 381.812 C 63.737 430.572 143.329 446.744 153.993 450.103 C 168.628 454.713 255.517 477.350 343.181 471.364 C 349.680 470.921 355.337 470.418 360.982 469.787 C 446.894 460.174 480.428 398.499 534.049 398.155 C 551.253 398.045 575.292 410.082 591.374 416.194 C 623.478 428.394 680.516 485.959 700.430 466.183 Z"/>
<path fill="#ffffff" fill-rule="evenodd" stroke="none" d="M 247.161 521.949 C 261.045 533.416 295.713 548.060 308.589 535.472 C 329.629 514.902 296.365 454.760 271.028 439.798 C 257.415 431.759 231.649 441.429 215.860 442.221 C 215.860 442.221 228.255 506.335 247.161 521.949 Z"/>
<path fill="none" stroke="#000000" stroke-width="4" stroke-linecap="round" stroke-linejoin="round" d="M 212.582 383.600 C 200.226 426.020 164.443 450.339 164.438 450.345 M 209.300 313.571 C 209.300 313.578 223.108 347.464 212.582 383.600 M 215.860 442.221 C 215.860 442.221 228.255 506.335 247.161 521.949 C 261.045 533.416 295.713 548.060 308.589 535.472 C 329.629 514.902 296.365 454.760 271.028 439.798 C 257.415 431.759 231.649 441.429 215.860 442.221 "/>
<path fill="none" stroke="#000000" stroke-width="4" stroke-linecap="round" stroke-linejoin="round" d="M 615.509 368.650 C 626.278 369.098 637.047 369.547 647.816 369.996 M 614.836 382.784 C 628.522 385.925 642.208 389.066 655.893 392.207 M 612.817 395.572 C 632.785 404.546 652.752 413.520 672.720 422.495 M 608.779 410.379 C 635.926 425.860 663.073 441.340 690.219 456.820 M 616.183 353.842 C 626.952 352.496 637.721 351.150 648.490 349.804 M 615.510 338.362 C 628.971 334.997 642.432 331.631 655.893 328.266 M 612.144 324.901 C 632.336 316.600 652.528 308.298 672.720 299.997 M 608.779 312.113 C 635.926 296.632 663.073 281.152 690.219 265.671 M 261.031 445.703 C 276.899 469.287 292.767 492.871 308.635 516.456 M 245.320 448.485 C 261.388 476.382 277.456 504.280 293.524 532.177 M 228.907 450.136 C 240.045 474.783 251.182 499.430 262.320 524.078 "/>
<path fill="none" stroke="#000000" stroke-width="4" stroke-linecap="round" stroke-linejoin="round" d="M 31.965 383.457 C 49.240 383.681 66.515 383.906 83.791 384.130 "/>
</g>
<g id="specs_2">
<path fill="#ff00ff" fill-rule="evenodd" stroke="none" d="M 228.111 429.678 C 228.130 429.678 418.974 429.678 418.993 429.678 C 418.993 429.662 418.993 270.441 418.993 270.425 C 418.974 270.425 228.130 270.425 228.111 270.425 C 228.111 270.441 228.111 429.662 228.111 429.678 Z"/>
<path fill="#ff0000" fill-rule="evenodd" stroke="none" d="M 665.139 361.869 C 665.143 361.868 699.949 349.437 699.952 349.436 C 699.951 349.437 688.385 361.868 688.384 361.869 C 688.385 361.870 699.951 374.301 699.952 374.302 C 699.949 374.301 665.143 361.870 665.139 361.869 Z"/>
<path fill="#0000ff" fill-rule="evenodd" stroke="none" d="M 360.000 174.314 C 360.001 174.316 367.221 194.534 367.222 194.536 C 367.221 194.535 360.001 187.817 360.000 187.816 C 359.999 187.817 352.779 194.535 352.778 194.536 C 352.779 194.534 359.999 174.316 360.000 174.314 Z"/>
<path fill="#00ff00" fill-rule="evenodd" stroke="none" d="M 10.319 361.005 C 10.321 361.004 30.503 353.681 30.505 353.680 C 30.504 353.681 23.822 360.936 23.822 360.936 C 23.822 360.937 30.577 368.124 30.577 368.125 C 30.575 368.124 10.321 361.005 10.319 361.005 Z"/>
<path fill="#ffff00" fill-rule="evenodd" stroke="none" d="M 180.000 460.857 C 180.001 460.856 184.360 451.365 184.360 451.365 C 184.360 451.365 184.590 456.158 184.590 456.158 C 184.590 456.158 189.387 456.274 189.387 456.274 C 189.386 456.275 180.001 460.857 180.000 460.857 Z"/>
<path fill="#ffff00" fill-rule="evenodd" stroke="none" d="M 415.747 460.741 C 415.747 460.740 411.198 451.339 411.198 451.338 C 411.198 451.338 411.064 456.134 411.064 456.135 C 411.064 456.135 406.271 456.347 406.270 456.347 C 406.271 456.348 415.746 460.741 415.747 460.741 Z"/>
<path fill="#00ff00" fill-rule="evenodd" stroke="none" d="M 666.861 361.005 C 666.859 361.004 646.677 353.681 646.675 353.680 C 646.676 353.681 653.358 360.936 653.358 360.936 C 653.358 360.937 646.603 368.124 646.602 368.125 C 646.604 368.124 666.859 361.005 666.861 361.005 Z"/>
<path fill="#00ffff" fill-rule="evenodd" stroke="none" d="M 370.923 241.937 C 370.922 241.937 368.455 251.221 368.455 251.222 C 368.455 251.222 367.497 246.914 367.497 246.913 C 367.497 246.913 363.131 247.558 363.131 247.558 C 363.132 247.557 370.922 241.937 370.923 241.937 Z"/>
<path fill="#00ffff" fill-rule="evenodd" stroke="none" d="M 155.708 259.621 C 155.709 259.622 160.210 268.108 160.210 268.109 C 160.210 268.109 160.169 263.696 160.169 263.696 C 160.170 263.696 164.568 263.337 164.569 263.337 C 164.568 263.336 155.709 259.622 155.708 259.621 Z"/>
</g>
</g>
</svg>
