<?xml version="1.0" encoding="utf-8"?>
<!-- Generator: Moho 12.5 build 22414 -->
<!DOCTYPE svg PUBLIC "-//W3C//DTD SVG 1.1//EN" "http://www.w3.org/Graphics/SVG/1.1/DTD/svg11.dtd">
<svg version="1.1" id="Frame_0" xmlns="http://www.w3.org/2000/svg" xmlns:xlink="http://www.w3.org/1999/xlink" width="720px" height="720px">
<g id="fish_tail_curved">
<g id="fish_tail">
<path fill="#ffffff" fill-rule="evenodd" stroke="#000000" stroke-width="4" stroke-linecap="round" stroke-linejoin="round" d="M 310.560 98.051 C 311.252 97.554 382.995 138.292 393.093 167.468 C 401.235 190.990 400.606 243.715 377.514 253.009 C 348.873 264.536 305.079 212.766 294.981 183.591 C 286.839 160.069 290.352 112.584 310.560 98.051 M 93.006 90.288 C 92.236 89.925 29.107 143.043 24.488 173.569 C 20.764 198.180 30.981 249.910 55.378 254.845 C 85.639 260.966 119.277 202.089 123.896 171.563 C 127.620 146.952 115.522 100.900 93.006 90.288 Z"/>
<path fill="none" stroke="#000000" stroke-width="4" stroke-linecap="round" stroke-linejoin="round" d="M 103.893 180.884 C 89.373 200.780 74.852 220.675 60.332 240.571 M 96.400 158.389 C 80.111 177.688 63.822 196.987 47.533 216.286 M 88.677 131.739 C 72.369 150.692 56.061 169.646 39.753 188.599 M 318.198 188.877 C 337.041 204.977 355.883 221.077 374.726 237.177 M 319.512 158.306 C 339.950 175.948 360.388 193.591 380.826 211.233 M 319.425 133.157 C 340.375 149.335 361.324 165.514 382.273 181.693 "/>
<path fill="#ffffff" fill-rule="evenodd" stroke="#000000" stroke-width="4" stroke-linecap="round" stroke-linejoin="round" d="M 354.013 81.602 C 268.162 81.570 155.529 81.564 64.315 81.724 C 87.735 379.818 152.557 560.796 303.542 595.872 C 386.363 615.112 458.017 586.262 505.451 517.862 C 542.739 464.092 712.489 437.841 693.453 387.874 C 680.220 353.138 575.482 396.258 535.052 375.414 C 494.621 354.569 468.814 243.557 433.027 253.606 C 387.098 266.502 437.323 399.632 429.578 457.494 C 426.485 480.600 412.132 502.499 384.397 499.191 C 311.669 490.514 320.181 398.865 322.972 324.250 C 324.503 283.307 339.233 213.184 354.013 81.602 Z"/>
<path fill="none" stroke="#000000" stroke-width="4" stroke-linecap="round" stroke-linejoin="round" d="M 512.435 428.030 C 521.939 415.890 531.444 403.751 540.948 391.612 M 526.808 436.089 C 542.394 422.654 557.981 409.220 573.567 395.785 M 543.122 447.632 C 569.332 429.851 595.543 412.069 621.754 394.287 M 556.181 461.175 C 595.909 438.961 635.637 416.746 675.364 394.531 M 495.445 418.649 C 502.432 405.067 509.419 391.486 516.406 377.905 M 478.549 409.610 C 483.863 391.412 489.177 373.213 494.491 355.015 M 460.648 405.190 C 463.851 375.520 467.055 345.850 470.258 316.181 M 443.580 402.090 C 442.042 358.944 440.503 315.798 438.965 272.652 "/>
</g>
<g id="specs">
<path fill="#ff00ff" fill-rule="evenodd" stroke="none" d="M 121.319 89.757 C 121.319 89.785 121.319 364.434 121.319 364.462 C 121.338 364.462 306.510 364.462 306.528 364.462 C 306.528 364.434 306.528 89.785 306.528 89.757 C 306.510 89.757 121.338 89.757 121.319 89.757 Z"/>
<path fill="#0000ff" fill-rule="evenodd" stroke="none" d="M 209.164 63.948 C 209.165 63.950 219.212 92.082 219.213 92.085 C 219.212 92.084 209.165 82.736 209.164 82.735 C 209.163 82.736 199.116 92.084 199.115 92.085 C 199.116 92.082 209.163 63.950 209.164 63.948 Z"/>
<path fill="#00ff00" fill-rule="evenodd" stroke="none" d="M 384.829 186.151 C 384.826 186.152 356.464 195.527 356.461 195.528 C 356.462 195.527 366.046 185.705 366.047 185.704 C 366.046 185.703 356.939 175.436 356.938 175.435 C 356.941 175.436 384.826 186.150 384.829 186.151 Z"/>
<path fill="#ffff00" fill-rule="evenodd" stroke="none" d="M 198.585 562.026 C 198.586 562.023 211.054 534.878 211.056 534.875 C 211.056 534.876 211.712 548.584 211.712 548.585 C 211.713 548.585 225.432 548.918 225.434 548.918 C 225.431 548.919 198.588 562.025 198.585 562.026 Z"/>
<path fill="#ffff00" fill-rule="evenodd" stroke="none" d="M 492.670 562.262 C 492.668 562.259 479.658 535.369 479.657 535.366 C 479.657 535.368 479.275 549.086 479.275 549.087 C 479.274 549.087 465.565 549.695 465.563 549.695 C 465.566 549.696 492.667 562.261 492.670 562.262 Z"/>
<path fill="#00ffff" fill-rule="evenodd" stroke="none" d="M 356.512 78.247 C 356.511 78.249 351.734 91.739 351.733 91.741 C 351.733 91.740 350.829 85.227 350.829 85.227 C 350.828 85.227 344.267 85.660 344.266 85.660 C 344.268 85.659 356.511 78.248 356.512 78.247 Z"/>
<path fill="#00ffff" fill-rule="evenodd" stroke="none" d="M 60.562 78.694 C 60.563 78.696 66.230 91.838 66.230 91.839 C 66.230 91.838 66.699 85.280 66.699 85.279 C 66.699 85.279 73.274 85.274 73.275 85.274 C 73.274 85.274 60.564 78.695 60.562 78.694 Z"/>
<path fill="#ff0000" fill-rule="evenodd" stroke="none" d="M 209.164 114.669 C 209.162 114.664 191.866 66.235 191.865 66.230 C 191.866 66.232 209.162 82.325 209.164 82.326 C 209.166 82.325 226.462 66.232 226.464 66.230 C 226.462 66.235 209.166 114.664 209.164 114.669 Z"/>
<path fill="#be0027" fill-rule="evenodd" stroke="none" d="M 544.712 353.326 C 544.712 353.331 538.432 396.736 538.431 396.740 C 538.430 396.738 531.812 377.708 531.811 377.706 C 531.809 377.707 512.353 382.938 512.351 382.939 C 512.354 382.936 544.709 353.329 544.712 353.326 Z"/>
<path fill="#00ff00" fill-rule="evenodd" stroke="none" d="M 35.071 186.151 C 35.074 186.152 63.436 195.527 63.439 195.528 C 63.438 195.527 53.854 185.705 53.854 185.704 C 53.854 185.703 62.961 175.436 62.962 175.435 C 62.959 175.436 35.074 186.150 35.071 186.151 Z"/>
</g>
</g>
</svg>
