<?xml version="1.0" encoding="utf-8"?>
<!-- Generator: Moho 12.5 build 22414 -->
<!DOCTYPE svg PUBLIC "-//W3C//DTD SVG 1.1//EN" "http://www.w3.org/Graphics/SVG/1.1/DTD/svg11.dtd">
<svg version="1.1" id="Frame_0" xmlns="http://www.w3.org/2000/svg" xmlns:xlink="http://www.w3.org/1999/xlink" width="720px" height="720px">
<g id="fish_tail_curved">
<g id="fish_tail">
<path fill="#ffffff" fill-rule="evenodd" stroke="#000000" stroke-width="4" stroke-linecap="round" stroke-linejoin="round" d="M 376.002 96.077 C 376.751 95.672 442.717 145.222 449.015 175.446 C 454.092 199.814 446.749 252.029 422.661 258.304 C 392.784 266.087 355.946 209.159 349.648 178.934 C 344.570 154.566 354.106 107.916 376.002 96.077 M 110.794 102.778 C 110.076 102.320 40.692 146.959 32.221 176.647 C 25.390 200.584 28.931 253.193 52.501 261.197 C 81.735 271.125 122.602 217.016 131.074 187.327 C 137.904 163.391 131.774 116.173 110.794 102.778 Z"/>
<path fill="none" stroke="#000000" stroke-width="4" stroke-linecap="round" stroke-linejoin="round" d="M 110.046 194.023 C 93.108 211.905 76.171 229.788 59.233 247.671 M 105.481 170.755 C 86.865 187.821 68.249 204.887 49.634 221.953 M 101.217 143.339 C 82.627 160.059 64.036 176.780 45.446 193.500 M 372.002 187.136 C 388.639 205.506 405.276 223.876 421.913 242.246 M 377.201 156.982 C 395.224 177.085 413.247 197.188 431.270 217.291 M 380.320 132.026 C 399.037 150.743 417.753 169.460 436.470 188.176 "/>
<path fill="#ffffff" fill-rule="evenodd" stroke="#000000" stroke-width="4" stroke-linecap="round" stroke-linejoin="round" d="M 387.656 81.602 C 301.805 81.570 189.172 81.564 97.958 81.724 C 102.637 362.991 126.179 536.998 285.846 595.028 C 374.211 627.143 443.190 615.249 505.677 545.524 C 548.771 497.438 713.819 483.460 700.768 432.335 C 691.573 396.319 582.690 425.616 545.246 399.789 C 507.802 373.961 496.432 261.133 459.577 265.971 C 412.014 272.215 436.725 410.662 422.974 467.732 C 418.019 488.296 404.576 509.723 380.046 503.356 C 317.815 487.202 346.772 393.754 365.808 324.723 C 382.000 266.006 386.942 215.997 387.656 81.602 Z"/>
<path fill="none" stroke="#000000" stroke-width="4" stroke-linecap="round" stroke-linejoin="round" d="M 521.965 452.547 C 530.987 440.566 540.008 428.586 549.030 416.606 M 537.623 464.483 C 552.032 451.290 566.442 438.096 580.851 424.902 M 550.675 476.899 C 576.729 461.119 602.782 445.338 628.836 429.558 M 564.445 493.222 C 603.622 474.359 642.800 455.496 681.978 436.632 M 505.538 440.077 C 512.503 426.679 519.469 413.281 526.435 399.882 M 487.275 428.617 C 494.055 410.540 500.835 392.464 507.615 374.387 M 469.197 421.838 C 475.642 392.152 482.086 362.466 488.530 332.781 M 451.892 415.589 C 455.608 372.265 459.324 328.942 463.039 285.618 "/>
</g>
<g id="specs">
<path fill="#ff00ff" fill-rule="evenodd" stroke="none" d="M 134.364 89.757 C 134.364 89.787 134.364 393.326 134.364 393.356 C 134.385 393.356 341.893 393.356 341.914 393.356 C 341.914 393.326 341.914 89.787 341.914 89.757 C 341.893 89.757 134.385 89.757 134.364 89.757 Z"/>
<path fill="#0000ff" fill-rule="evenodd" stroke="none" d="M 242.807 40.160 C 242.808 40.163 252.855 68.295 252.856 68.298 C 252.855 68.297 242.808 58.949 242.807 58.948 C 242.806 58.949 232.760 68.297 232.759 68.298 C 232.760 68.295 242.806 40.163 242.807 40.160 Z"/>
<path fill="#00ff00" fill-rule="evenodd" stroke="none" d="M 551.818 379.858 C 551.817 379.860 543.672 408.601 543.672 408.604 C 543.671 408.602 540.914 395.159 540.914 395.157 C 540.913 395.158 527.305 396.939 527.304 396.939 C 527.307 396.938 551.816 379.859 551.818 379.858 Z"/>
<path fill="#ffff00" fill-rule="evenodd" stroke="none" d="M 209.686 572.770 C 209.687 572.768 222.155 545.622 222.157 545.619 C 222.157 545.621 222.813 559.328 222.813 559.330 C 222.814 559.330 236.533 559.662 236.535 559.662 C 236.532 559.663 209.689 572.769 209.686 572.770 Z"/>
<path fill="#ffff00" fill-rule="evenodd" stroke="none" d="M 503.770 573.006 C 503.769 573.004 490.759 546.113 490.758 546.111 C 490.758 546.112 490.376 559.830 490.376 559.832 C 490.375 559.832 476.665 560.439 476.664 560.440 C 476.666 560.441 503.767 573.005 503.770 573.006 Z"/>
<path fill="#00ff00" fill-rule="evenodd" stroke="none" d="M 357.497 630.371 C 357.498 630.369 367.687 602.288 367.688 602.285 C 367.687 602.286 357.593 611.583 357.592 611.584 C 357.591 611.583 347.591 602.185 347.590 602.184 C 347.591 602.187 357.496 630.369 357.497 630.371 Z"/>
<path fill="#00ffff" fill-rule="evenodd" stroke="none" d="M 390.155 78.247 C 390.155 78.249 385.377 91.739 385.376 91.741 C 385.376 91.740 384.472 85.227 384.472 85.227 C 384.471 85.227 377.910 85.660 377.910 85.660 C 377.911 85.659 390.154 78.248 390.155 78.247 Z"/>
<path fill="#00ffff" fill-rule="evenodd" stroke="none" d="M 94.206 78.694 C 94.206 78.696 99.873 91.838 99.874 91.839 C 99.874 91.838 100.342 85.280 100.342 85.279 C 100.343 85.279 106.917 85.274 106.918 85.274 C 106.917 85.274 94.207 78.695 94.206 78.694 Z"/>
<path fill="#ff0000" fill-rule="evenodd" stroke="none" d="M 242.807 114.669 C 242.806 114.665 225.510 66.235 225.508 66.230 C 225.510 66.232 242.806 82.325 242.807 82.326 C 242.809 82.325 260.105 66.232 260.107 66.230 C 260.105 66.235 242.809 114.665 242.807 114.669 Z"/>
</g>
</g>
</svg>
