<?xml version="1.0" encoding="utf-8"?>
<!-- Generator: Moho 12.5 build 22414 -->
<!DOCTYPE svg PUBLIC "-//W3C//DTD SVG 1.1//EN" "http://www.w3.org/Graphics/SVG/1.1/DTD/svg11.dtd">
<svg version="1.1" id="Frame_0" xmlns="http://www.w3.org/2000/svg" xmlns:xlink="http://www.w3.org/1999/xlink" width="720px" height="720px">
<g id="halves">
<g id="fish_tail_curved_half">
<g id="fish_tail">
<path fill="#ffffff" fill-rule="evenodd" stroke="#000000" stroke-width="4" stroke-linecap="round" stroke-linejoin="round" d="M 315.705 98.377 C 316.395 97.880 388.049 138.568 398.135 167.707 C 406.267 191.200 405.638 243.860 382.575 253.142 C 353.970 264.654 310.230 212.950 300.145 183.810 C 292.013 160.317 295.522 112.892 315.705 98.377 M 98.421 90.624 C 97.652 90.261 34.602 143.313 29.989 173.801 C 26.269 198.382 36.473 250.047 60.840 254.976 C 91.064 261.089 124.659 202.286 129.272 171.797 C 132.992 147.217 120.909 101.222 98.421 90.624 Z"/>
<path fill="none" stroke="#000000" stroke-width="4" stroke-linecap="round" stroke-linejoin="round" d="M 109.295 181.107 C 94.792 200.978 80.290 220.849 65.788 240.719 M 101.811 158.639 C 85.542 177.914 69.274 197.189 53.005 216.465 M 94.098 132.023 C 77.810 150.953 61.522 169.883 45.234 188.812 M 323.333 189.090 C 342.152 205.170 360.971 221.250 379.790 237.329 M 324.645 158.557 C 345.058 176.177 365.471 193.798 385.883 211.418 M 324.559 133.439 C 345.482 149.598 366.405 165.756 387.328 181.915 "/>
<path fill="#ffffff" fill-rule="evenodd" stroke="#000000" stroke-width="4" stroke-linecap="round" stroke-linejoin="round" d="M 359.104 81.948 C 273.359 81.917 160.866 81.910 69.766 82.070 C 93.156 379.793 157.898 560.546 308.695 595.578 C 391.414 614.795 462.978 585.980 510.353 517.665 C 547.594 463.963 717.133 437.744 698.121 387.839 C 684.904 353.147 580.297 396.213 539.917 375.395 C 499.537 354.576 473.761 243.702 438.019 253.738 C 392.147 266.618 442.309 399.583 434.574 457.372 C 431.485 480.450 417.151 502.322 389.450 499.017 C 316.812 490.352 325.313 398.817 328.101 324.294 C 329.631 283.403 344.342 213.366 359.104 81.948 Z"/>
<path fill="none" stroke="#000000" stroke-width="4" stroke-linecap="round" stroke-linejoin="round" d="M 517.328 427.945 C 526.821 415.821 536.314 403.697 545.806 391.572 M 531.683 435.994 C 547.250 422.577 562.817 409.159 578.384 395.741 M 547.977 447.523 C 574.155 429.764 600.333 412.004 626.511 394.244 M 561.020 461.049 C 600.698 438.862 640.377 416.675 680.055 394.488 M 500.360 418.576 C 507.338 405.011 514.316 391.447 521.294 377.882 M 483.484 409.548 C 488.792 391.373 494.099 373.197 499.406 355.021 M 465.605 405.133 C 468.805 375.501 472.005 345.868 475.204 316.235 M 448.559 402.038 C 447.023 358.945 445.486 315.853 443.950 272.760 "/>
</g>
<g id="specs">
<path fill="#ff00ff" fill-rule="evenodd" stroke="none" d="M 126.699 90.093 C 126.699 90.121 126.699 364.429 126.699 364.456 C 126.718 364.456 311.659 364.456 311.678 364.456 C 311.678 364.428 311.677 90.121 311.677 90.093 C 311.659 90.093 126.718 90.093 126.699 90.093 Z"/>
<path fill="#0000ff" fill-rule="evenodd" stroke="none" d="M 214.435 63.669 C 214.436 63.672 224.470 91.769 224.471 91.771 C 224.470 91.770 214.436 82.434 214.435 82.433 C 214.434 82.434 204.399 91.770 204.398 91.771 C 204.399 91.769 214.434 63.672 214.435 63.669 Z"/>
<path fill="#00ff00" fill-rule="evenodd" stroke="none" d="M 389.881 186.367 C 389.878 186.368 361.551 195.732 361.548 195.733 C 361.549 195.732 371.121 185.922 371.122 185.921 C 371.121 185.920 362.026 175.666 362.025 175.665 C 362.028 175.666 389.878 186.366 389.881 186.367 Z"/>
<path fill="#ffff00" fill-rule="evenodd" stroke="none" d="M 203.869 561.775 C 203.870 561.772 216.323 534.660 216.324 534.657 C 216.324 534.659 216.979 548.349 216.979 548.351 C 216.981 548.351 230.683 548.683 230.684 548.683 C 230.681 548.684 203.871 561.773 203.869 561.775 Z"/>
<path fill="#ffff00" fill-rule="evenodd" stroke="none" d="M 497.588 562.010 C 497.586 562.008 484.592 535.151 484.591 535.148 C 484.591 535.149 484.210 548.851 484.210 548.852 C 484.208 548.852 470.516 549.459 470.515 549.459 C 470.518 549.460 497.585 562.009 497.588 562.010 Z"/>
<path fill="#00ffff" fill-rule="evenodd" stroke="none" d="M 361.599 78.598 C 361.599 78.599 356.827 92.073 356.827 92.074 C 356.826 92.074 355.923 85.569 355.923 85.568 C 355.922 85.569 349.370 86.001 349.369 86.001 C 349.370 86.001 361.598 78.599 361.599 78.598 Z"/>
<path fill="#00ffff" fill-rule="evenodd" stroke="none" d="M 66.018 79.044 C 66.019 79.046 71.678 92.171 71.679 92.173 C 71.679 92.172 72.147 85.622 72.147 85.621 C 72.147 85.621 78.714 85.616 78.715 85.616 C 78.713 85.616 66.019 79.045 66.018 79.044 Z"/>
<path fill="#ff0000" fill-rule="evenodd" stroke="none" d="M 214.435 114.759 C 214.433 114.754 197.159 66.385 197.157 66.380 C 197.159 66.381 214.433 82.454 214.435 82.456 C 214.436 82.454 231.711 66.381 231.713 66.380 C 231.711 66.384 214.436 114.754 214.435 114.759 Z"/>
<path fill="#be0027" fill-rule="evenodd" stroke="none" d="M 549.565 353.335 C 549.565 353.339 543.293 396.690 543.292 396.694 C 543.291 396.693 536.681 377.686 536.681 377.684 C 536.679 377.685 517.246 382.910 517.244 382.910 C 517.247 382.907 549.562 353.338 549.565 353.335 Z"/>
<path fill="#00ff00" fill-rule="evenodd" stroke="none" d="M 40.558 186.367 C 40.561 186.368 68.888 195.732 68.891 195.733 C 68.890 195.732 59.318 185.922 59.317 185.921 C 59.318 185.920 68.413 175.666 68.414 175.665 C 68.412 175.666 40.561 186.366 40.558 186.367 Z"/>
<path fill="none" stroke="#ffff00" stroke-width="6" stroke-linecap="round" stroke-linejoin="round" d="M 359.104 81.948 C 273.359 81.917 160.866 81.910 69.766 82.070 "/>
</g>
</g>
</g>
</svg>
