<?xml version="1.0" encoding="utf-8"?>
<!-- Generator: Moho 12.5 build 22414 -->
<!DOCTYPE svg PUBLIC "-//W3C//DTD SVG 1.1//EN" "http://www.w3.org/Graphics/SVG/1.1/DTD/svg11.dtd">
<svg version="1.1" id="Frame_0" xmlns="http://www.w3.org/2000/svg" xmlns:xlink="http://www.w3.org/1999/xlink" width="720px" height="720px">
<g id="fish_head">
<g id="fish_head">
<path fill="#ffffff" fill-rule="evenodd" stroke="#000000" stroke-width="4" stroke-linecap="round" stroke-linejoin="round" d="M 253.061 198.051 C 266.944 186.584 301.613 171.940 314.489 184.528 C 335.529 205.098 302.265 265.240 276.928 280.202 C 263.315 288.241 221.439 293.585 221.759 277.779 C 221.777 276.910 234.155 213.665 253.061 198.051 Z"/>
<path fill="none" stroke="#000000" stroke-width="4" stroke-linecap="round" stroke-linejoin="round" d="M 276.702 260.960 C 288.601 237.755 300.501 214.550 312.400 191.345 M 257.184 264.998 C 267.435 240.582 277.686 216.167 287.937 191.751 M 237.665 266.344 C 245.595 245.742 253.525 225.141 261.455 204.539 "/>
<path fill="#ffffff" fill-rule="evenodd" stroke="#000000" stroke-width="4" stroke-linecap="round" stroke-linejoin="round" d="M 348.994 243.831 C 348.966 311.260 348.958 399.724 349.081 471.364 C 261.418 477.350 174.529 454.713 159.893 450.103 C 149.229 446.744 69.638 430.572 34.920 381.812 C 28.771 373.178 25.905 364.540 27.879 357.595 C 44.907 297.709 142.599 271.339 159.893 265.087 C 175.872 259.310 259.487 237.700 348.994 243.831 M 124.378 344.742 C 112.558 344.742 103.023 335.207 103.023 323.387 C 103.023 311.567 112.558 302.031 124.378 302.032 C 136.198 302.032 145.733 311.567 145.733 323.387 C 145.733 335.207 136.198 344.742 124.378 344.742 Z"/>
<path fill="#ffffff" fill-rule="evenodd" stroke="none" d="M 253.061 521.949 C 266.944 533.416 301.613 548.060 314.489 535.472 C 335.529 514.902 302.265 454.760 276.928 439.798 C 263.315 431.759 237.549 441.429 221.759 442.221 C 221.759 442.221 234.155 506.335 253.061 521.949 Z"/>
<path fill="none" stroke="#000000" stroke-width="4" stroke-linecap="round" stroke-linejoin="round" d="M 218.482 383.600 C 206.126 426.020 170.343 450.339 170.338 450.345 M 215.200 313.571 C 215.200 313.578 229.008 347.464 218.482 383.600 M 221.759 442.221 C 221.759 442.221 234.155 506.335 253.061 521.949 C 266.944 533.416 301.613 548.060 314.489 535.472 C 335.529 514.902 302.265 454.760 276.928 439.798 C 263.315 431.759 237.549 441.429 221.759 442.221 "/>
<path fill="none" stroke="#000000" stroke-width="4" stroke-linecap="round" stroke-linejoin="round" d="M 266.930 445.703 C 282.799 469.287 298.667 492.871 314.535 516.456 M 251.220 448.485 C 267.288 476.382 283.356 504.280 299.424 532.177 M 234.807 450.136 C 245.944 474.783 257.082 499.430 268.219 524.078 "/>
<path fill="none" stroke="#000000" stroke-width="4" stroke-linecap="round" stroke-linejoin="round" d="M 37.865 383.457 C 55.140 383.681 72.415 383.906 89.690 384.130 "/>
</g>
<g id="specs_2">
<path fill="#ff00ff" fill-rule="evenodd" stroke="none" d="M 231.792 417.979 C 231.802 417.979 335.058 417.979 335.068 417.979 C 335.068 417.964 335.068 270.461 335.068 270.446 C 335.058 270.446 231.802 270.446 231.792 270.446 C 231.792 270.461 231.792 417.964 231.792 417.979 Z"/>
<path fill="#ff0000" fill-rule="evenodd" stroke="none" d="M 326.806 360.000 C 326.809 359.999 361.615 347.568 361.619 347.567 C 361.618 347.568 350.052 359.999 350.051 360.000 C 350.052 360.001 361.618 372.432 361.619 372.433 C 361.615 372.432 326.809 360.001 326.806 360.000 Z"/>
<path fill="#0000ff" fill-rule="evenodd" stroke="none" d="M 165.041 251.216 C 165.041 251.218 172.262 271.436 172.263 271.438 C 172.262 271.438 165.041 264.719 165.041 264.719 C 165.040 264.719 157.820 271.438 157.819 271.438 C 157.820 271.436 165.040 251.218 165.041 251.216 Z"/>
<path fill="#00ff00" fill-rule="evenodd" stroke="none" d="M 324.615 482.808 C 324.615 482.806 318.394 465.663 318.394 465.661 C 318.394 465.662 324.557 471.338 324.558 471.338 C 324.558 471.338 330.663 465.600 330.663 465.600 C 330.663 465.601 324.616 482.806 324.615 482.808 Z"/>
<path fill="#ffff00" fill-rule="evenodd" stroke="none" d="M 347.745 466.830 C 347.743 466.829 328.234 457.868 328.232 457.867 C 328.233 457.867 338.084 457.395 338.085 457.395 C 338.085 457.394 338.324 447.535 338.324 447.534 C 338.325 447.536 347.744 466.828 347.745 466.830 Z"/>
<path fill="#ffff00" fill-rule="evenodd" stroke="none" d="M 347.915 255.474 C 347.913 255.475 328.587 264.825 328.585 264.826 C 328.586 264.826 338.445 265.100 338.446 265.100 C 338.446 265.101 338.883 274.954 338.883 274.955 C 338.884 274.953 347.914 255.476 347.915 255.474 Z"/>
<path fill="#00ff00" fill-rule="evenodd" stroke="none" d="M 323.831 231.908 C 323.830 231.909 317.610 249.052 317.610 249.054 C 317.610 249.053 323.773 243.377 323.773 243.377 C 323.774 243.377 329.879 249.115 329.879 249.116 C 329.879 249.114 323.832 231.909 323.831 231.908 Z"/>
<path fill="#00ffff" fill-rule="evenodd" stroke="none" d="M 164.147 260.011 C 164.148 260.012 172.361 262.920 172.361 262.920 C 172.361 262.921 168.396 263.471 168.396 263.471 C 168.396 263.472 168.660 267.466 168.660 267.466 C 168.659 267.466 164.147 260.012 164.147 260.011 Z"/>
<path fill="#00ffff" fill-rule="evenodd" stroke="none" d="M 164.419 455.875 C 164.419 455.875 172.420 452.425 172.421 452.425 C 172.421 452.425 168.428 452.140 168.428 452.140 C 168.428 452.139 168.425 448.137 168.425 448.136 C 168.424 448.137 164.419 455.875 164.419 455.875 Z"/>
<path fill="none" stroke="#f7f400" stroke-width="4" stroke-linecap="round" stroke-linejoin="round" d="M 348.905 243.819 C 348.878 311.247 348.869 399.711 348.992 471.351 "/>
<path fill="#f7f409" fill-rule="evenodd" stroke="none" d="M 326.806 360.000 C 326.809 360.001 361.615 372.432 361.619 372.433 C 361.618 372.432 350.052 360.001 350.051 360.000 C 350.052 359.999 361.618 347.568 361.619 347.567 C 361.615 347.568 326.809 359.999 326.806 360.000 Z"/>
<path fill="#be0027" fill-rule="evenodd" stroke="none" d="M 371.091 360.000 C 371.088 360.001 336.282 372.432 336.279 372.433 C 336.280 372.432 347.846 360.001 347.847 360.000 C 347.846 359.999 336.280 347.568 336.279 347.567 C 336.282 347.568 371.088 359.999 371.091 360.000 Z"/>
</g>
</g>
</svg>
