<?xml version="1.0" encoding="utf-8"?>
<!-- Generator: Moho 12.5 build 22414 -->
<!DOCTYPE svg PUBLIC "-//W3C//DTD SVG 1.1//EN" "http://www.w3.org/Graphics/SVG/1.1/DTD/svg11.dtd">
<svg version="1.1" id="Frame_0" xmlns="http://www.w3.org/2000/svg" xmlns:xlink="http://www.w3.org/1999/xlink" width="720px" height="720px">
<g id="foot">
<g id="foot">
<path fill="#000000" fill-rule="evenodd" stroke="#ffffff" stroke-width="4" stroke-linecap="round" stroke-linejoin="round" d="M 518.315 169.263 C 520.086 160.796 518.250 142.721 502.715 138.098 C 492.316 135.003 480.444 153.697 478.979 161.914 C 471.215 205.462 464.646 206.679 462.853 205.789 C 459.837 204.294 463.419 185.333 481.363 126.451 C 486.140 110.774 475.620 95.029 466.801 93.316 C 457.585 91.526 442.325 100.671 440.071 120.071 C 433.910 173.094 420.962 189.577 418.104 188.443 C 415.440 187.385 413.133 175.018 431.235 122.822 C 441.000 94.667 429.168 71.441 415.462 68.990 C 404.315 66.996 388.591 74.941 385.572 103.454 C 378.617 169.124 371.422 178.232 368.170 177.868 C 364.803 177.490 365.954 160.099 377.844 99.342 C 382.604 75.019 367.741 54.074 354.984 53.166 C 344.688 52.434 328.587 67.532 329.189 85.787 C 331.648 160.418 324.662 172.140 319.086 172.150 C 317.531 172.152 315.367 161.280 317.623 135.871 C 320.111 107.852 328.543 83.171 314.494 48.576 C 310.247 38.119 295.520 25.154 274.295 27.324 C 260.623 28.721 245.709 46.535 242.840 57.570 C 236.776 80.892 240.624 103.714 242.947 118.939 C 245.632 136.543 256.838 148.183 255.575 189.559 C 244.406 208.772 232.305 236.558 238.020 290.587 C 245.459 360.910 294.794 369.683 289.283 487.620 C 288.104 512.838 263.888 564.974 268.541 596.579 C 282.593 692.012 406.524 682.611 434.318 652.667 C 455.810 629.512 473.417 583.683 477.849 565.231 C 489.067 518.530 497.237 376.254 507.981 324.711 C 512.119 304.859 520.207 283.486 509.721 220.355 C 514.287 203.550 512.053 199.189 518.315 169.263 Z"/>
</g>
<g id="specs">
<path fill="#ff00ff" fill-rule="evenodd" stroke="none" d="M 285.556 393.534 C 285.576 393.534 483.962 393.534 483.982 393.534 C 483.982 393.516 483.982 211.268 483.982 211.249 C 483.962 211.249 285.576 211.249 285.556 211.249 C 285.556 211.268 285.556 393.516 285.556 393.534 Z"/>
<path fill="#ff0000" fill-rule="evenodd" stroke="none" d="M 357.577 673.946 C 357.578 673.950 368.170 709.359 368.171 709.362 C 368.169 709.361 356.361 697.160 356.360 697.159 C 356.359 697.160 343.340 708.060 343.339 708.061 C 343.340 708.057 357.575 673.950 357.577 673.946 Z"/>
<path fill="#0000ff" fill-rule="evenodd" stroke="none" d="M 278.677 14.123 C 278.678 14.125 284.830 34.693 284.831 34.695 C 284.830 34.694 277.971 27.607 277.971 27.607 C 277.970 27.607 270.408 33.938 270.407 33.939 C 270.408 33.937 278.677 14.125 278.677 14.123 Z"/>
<path fill="#00ff00" fill-rule="evenodd" stroke="none" d="M 244.481 344.193 C 244.483 344.192 265.020 337.936 265.022 337.935 C 265.021 337.936 257.969 344.831 257.968 344.832 C 257.969 344.832 264.338 352.363 264.338 352.364 C 264.336 352.363 244.483 344.194 244.481 344.193 Z"/>
<path fill="#ffff00" fill-rule="evenodd" stroke="none" d="M 270.562 635.755 C 270.563 635.753 280.532 616.739 280.533 616.737 C 280.533 616.738 280.489 626.601 280.489 626.602 C 280.490 626.602 290.323 627.356 290.324 627.356 C 290.322 627.357 270.564 635.754 270.562 635.755 Z"/>
<path fill="#ffff00" fill-rule="evenodd" stroke="none" d="M 456.332 645.251 C 456.331 645.249 448.005 625.460 448.005 625.458 C 448.005 625.459 447.215 635.291 447.214 635.292 C 447.213 635.292 437.351 635.212 437.350 635.212 C 437.352 635.213 456.330 645.250 456.332 645.251 Z"/>
<path fill="#00ff00" fill-rule="evenodd" stroke="none" d="M 519.343 358.598 C 519.341 358.597 499.571 350.228 499.569 350.227 C 499.570 350.228 505.862 357.823 505.863 357.823 C 505.862 357.824 498.741 364.647 498.740 364.648 C 498.742 364.647 519.341 358.598 519.343 358.598 Z"/>
<path fill="#00ffff" fill-rule="evenodd" stroke="none" d="M 520.758 220.719 C 520.757 220.721 511.310 240.000 511.309 240.002 C 511.309 240.001 511.085 230.140 511.085 230.139 C 511.084 230.139 501.233 229.653 501.232 229.653 C 501.234 229.652 520.756 220.720 520.758 220.719 Z"/>
<path fill="#00ffff" fill-rule="evenodd" stroke="none" d="M 244.137 185.046 C 244.137 185.048 250.315 205.609 250.316 205.611 C 250.316 205.610 252.145 195.919 252.145 195.918 C 252.146 195.918 261.944 197.044 261.945 197.044 C 261.944 197.043 244.139 185.047 244.137 185.046 Z"/>
<path fill="#be0027" fill-rule="evenodd" stroke="none" d="M 356.704 687.485 C 356.705 687.483 366.746 662.538 366.747 662.535 C 366.746 662.536 357.375 670.586 357.374 670.587 C 357.374 670.586 348.670 661.819 348.669 661.818 C 348.670 661.821 356.704 687.483 356.704 687.485 Z"/>
</g>
</g>
</svg>
