<?xml version="1.0" encoding="utf-8"?>
<!-- Generator: Moho 12.5 build 22414 -->
<!DOCTYPE svg PUBLIC "-//W3C//DTD SVG 1.1//EN" "http://www.w3.org/Graphics/SVG/1.1/DTD/svg11.dtd">
<svg version="1.1" id="Frame_0" xmlns="http://www.w3.org/2000/svg" xmlns:xlink="http://www.w3.org/1999/xlink" width="720px" height="720px">
<g id="halves">
<g id="foot_of_god">
<g id="foot_of_god">
<path fill="#ffffff" fill-rule="evenodd" stroke="#000000" stroke-width="4" stroke-linecap="round" stroke-linejoin="round" d="M 654.072 262.144 C 654.072 262.154 654.270 347.456 655.981 358.588 C 659.010 378.295 749.212 563.497 624.924 594.789 C 575.433 607.249 507.115 592.100 450.818 591.985 C 370.679 591.821 376.376 624.749 293.652 596.671 C 277.480 604.083 234.970 629.430 203.166 609.925 C 188.141 600.710 226.935 587.740 252.400 574.926 C 257.029 572.597 170.912 616.609 149.661 597.631 C 133.445 583.150 178.296 566.865 211.090 551.438 C 212.097 550.964 119.096 596.380 102.605 568.457 C 90.607 548.141 142.767 546.367 188.602 524.106 C 157.283 531.243 95.535 560.690 71.548 529.871 C 52.843 505.838 124.441 508.916 163.311 494.991 C 135.755 499.924 53.410 518.544 28.257 457.406 C 20.567 438.714 27.184 397.586 75.313 418.820 C 110.684 434.425 155.217 445.147 178.052 435.740 C 270.337 397.722 407.437 382.185 426.862 353.883 C 433.686 343.940 433.670 305.113 434.010 262.144 C 434.032 262.142 654.050 262.144 654.072 262.144 Z"/>
</g>
<g id="specs">
<path fill="#ff00ff" fill-rule="evenodd" stroke="none" d="M 448.489 482.494 C 448.508 482.494 638.370 482.494 638.389 482.494 C 638.389 482.473 638.389 277.053 638.389 277.033 C 638.370 277.033 448.508 277.033 448.489 277.033 C 448.489 277.053 448.489 482.473 448.489 482.494 Z"/>
<path fill="#be0027" fill-rule="evenodd" stroke="none" d="M 549.827 239.062 C 549.828 239.065 562.243 273.828 562.244 273.831 C 562.243 273.830 549.828 262.278 549.827 262.277 C 549.826 262.278 537.411 273.830 537.409 273.831 C 537.411 273.828 549.826 239.065 549.827 239.062 Z"/>
<path fill="#00ff00" fill-rule="evenodd" stroke="none" d="M 415.146 353.336 C 415.148 353.335 435.305 346.022 435.307 346.021 C 435.306 346.022 428.633 353.267 428.632 353.268 C 428.633 353.269 435.379 360.446 435.379 360.447 C 435.377 360.446 415.148 353.337 415.146 353.336 Z"/>
<path fill="#ffff00" fill-rule="evenodd" stroke="none" d="M 298.418 606.022 C 298.419 606.020 307.369 586.535 307.370 586.533 C 307.370 586.534 307.841 596.373 307.841 596.374 C 307.842 596.374 317.689 596.613 317.690 596.613 C 317.688 596.614 298.420 606.021 298.418 606.022 Z"/>
<path fill="#ffff00" fill-rule="evenodd" stroke="none" d="M 603.599 605.783 C 603.598 605.781 594.260 586.479 594.259 586.477 C 594.259 586.478 593.985 596.325 593.985 596.326 C 593.984 596.326 584.143 596.763 584.143 596.763 C 584.144 596.764 603.597 605.782 603.599 605.783 Z"/>
<path fill="#00ff00" fill-rule="evenodd" stroke="none" d="M 668.781 353.336 C 668.779 353.335 648.623 346.022 648.621 346.021 C 648.621 346.022 655.295 353.267 655.295 353.268 C 655.295 353.269 648.549 360.446 648.548 360.447 C 648.550 360.446 668.779 353.337 668.781 353.336 Z"/>
<path fill="#00ffff" fill-rule="evenodd" stroke="none" d="M 656.864 253.913 C 656.863 253.915 650.409 272.138 650.409 272.140 C 650.409 272.139 649.186 263.343 649.186 263.342 C 649.185 263.342 640.324 263.927 640.323 263.927 C 640.325 263.926 656.862 253.914 656.864 253.913 Z"/>
<path fill="#00ffff" fill-rule="evenodd" stroke="none" d="M 427.624 254.517 C 427.625 254.519 435.280 272.272 435.280 272.273 C 435.280 272.273 435.913 263.414 435.913 263.413 C 435.914 263.413 444.795 263.406 444.796 263.406 C 444.794 263.405 427.626 254.518 427.624 254.517 Z"/>
<path fill="#0000ff" fill-rule="evenodd" stroke="none" d="M 28.559 409.673 C 28.561 409.674 47.151 420.358 47.153 420.359 C 47.152 420.359 37.311 419.934 37.310 419.934 C 37.310 419.935 36.177 429.720 36.177 429.721 C 36.176 429.718 28.560 409.675 28.559 409.673 Z"/>
<path fill="none" stroke="#ffff00" stroke-width="4" stroke-linecap="round" stroke-linejoin="round" d="M 434.010 262.144 C 434.032 262.142 654.050 262.144 654.072 262.144 "/>
<path fill="#ff0000" fill-rule="evenodd" stroke="none" d="M 549.827 285.757 C 549.828 285.754 562.243 250.991 562.244 250.988 C 562.243 250.989 549.828 262.540 549.827 262.542 C 549.826 262.540 537.411 250.989 537.409 250.988 C 537.411 250.991 549.826 285.754 549.827 285.757 Z"/>
</g>
</g>
</g>
</svg>
