<?xml version="1.0" encoding="utf-8"?>
<!-- Generator: Moho 12.5 build 22414 -->
<!DOCTYPE svg PUBLIC "-//W3C//DTD SVG 1.1//EN" "http://www.w3.org/Graphics/SVG/1.1/DTD/svg11.dtd">
<svg version="1.1" id="Frame_0" xmlns="http://www.w3.org/2000/svg" xmlns:xlink="http://www.w3.org/1999/xlink" width="720px" height="720px">
<g id="foot_of_god">
<g id="foot_of_god">
<path fill="#ffffff" fill-rule="evenodd" stroke="#000000" stroke-width="4" stroke-linecap="round" stroke-linejoin="round" d="M 691.214 21.248 C 691.210 21.282 653.029 319.129 656.350 358.587 C 658.017 378.403 749.129 562.591 625.254 594.159 C 575.741 606.776 507.294 592.408 450.931 592.274 C 370.705 592.083 376.693 623.220 293.569 596.043 C 276.237 604.223 231.961 631.955 196.513 613.004 C 176.807 602.469 228.247 587.554 259.646 569.659 C 264.516 566.884 172.290 618.562 149.399 597.927 C 130.729 581.098 184.606 564.999 222.897 547.986 C 224.030 547.483 121.434 599.367 102.284 568.717 C 87.529 545.098 151.083 545.435 204.993 518.775 C 169.168 527.208 99.108 565.051 71.189 530.083 C 47.944 500.970 137.759 509.706 185.206 492.391 C 153.557 498.251 56.330 527.997 27.844 457.527 C 20.260 438.765 26.527 398.192 74.958 418.893 C 112.993 435.150 160.780 444.991 185.206 434.912 C 283.062 394.534 429.076 382.995 450.931 353.875 C 477.100 319.006 447.410 59.636 446.219 21.248 C 446.244 21.248 691.189 21.248 691.214 21.248 Z"/>
</g>
<g id="specs">
<path fill="#ff00ff" fill-rule="evenodd" stroke="none" d="M 464.057 574.651 C 464.076 574.651 655.782 574.651 655.801 574.651 C 655.801 574.597 655.801 31.106 655.801 31.051 C 655.782 31.051 464.076 31.051 464.057 31.051 C 464.057 31.106 464.057 574.597 464.057 574.651 Z"/>
<path fill="#ff0000" fill-rule="evenodd" stroke="none" d="M 405.230 662.708 C 405.231 662.711 417.662 697.517 417.663 697.521 C 417.662 697.520 405.231 685.954 405.230 685.952 C 405.229 685.954 392.798 697.520 392.797 697.521 C 392.798 697.517 405.229 662.711 405.230 662.708 Z"/>
<path fill="#0000ff" fill-rule="evenodd" stroke="none" d="M 572.015 10.233 C 572.015 10.235 579.236 30.453 579.237 30.455 C 579.236 30.455 572.015 23.737 572.015 23.736 C 572.014 23.737 564.793 30.455 564.793 30.455 C 564.793 30.453 572.014 10.235 572.015 10.233 Z"/>
<path fill="#00ff00" fill-rule="evenodd" stroke="none" d="M 440.123 346.870 C 440.125 346.870 460.306 339.547 460.308 339.546 C 460.307 339.547 453.626 346.801 453.625 346.802 C 453.626 346.803 460.380 353.990 460.381 353.990 C 460.379 353.990 440.125 346.871 440.123 346.870 Z"/>
<path fill="#ffff00" fill-rule="evenodd" stroke="none" d="M 298.342 606.328 C 298.343 606.326 307.303 586.817 307.304 586.815 C 307.304 586.816 307.776 596.668 307.776 596.669 C 307.777 596.669 317.637 596.908 317.638 596.908 C 317.636 596.909 298.344 606.327 298.342 606.328 Z"/>
<path fill="#ffff00" fill-rule="evenodd" stroke="none" d="M 603.903 606.089 C 603.902 606.087 594.552 586.761 594.551 586.760 C 594.551 586.761 594.277 596.620 594.277 596.621 C 594.276 596.621 584.423 597.058 584.422 597.058 C 584.424 597.058 603.901 606.088 603.903 606.089 Z"/>
<path fill="#00ff00" fill-rule="evenodd" stroke="none" d="M 670.088 346.870 C 670.086 346.870 649.905 339.547 649.903 339.546 C 649.903 339.547 656.585 346.801 656.586 346.802 C 656.585 346.803 649.830 353.990 649.830 353.990 C 649.832 353.990 670.086 346.871 670.088 346.870 Z"/>
<path fill="#00ffff" fill-rule="evenodd" stroke="none" d="M 695.590 15.006 C 695.589 15.008 688.422 35.245 688.422 35.248 C 688.421 35.247 687.064 25.477 687.064 25.476 C 687.063 25.477 677.222 26.126 677.221 26.126 C 677.223 26.125 695.588 15.007 695.590 15.006 Z"/>
<path fill="#00ffff" fill-rule="evenodd" stroke="none" d="M 441.013 15.677 C 441.013 15.679 449.514 35.393 449.515 35.395 C 449.515 35.394 450.218 25.556 450.218 25.555 C 450.219 25.555 460.081 25.548 460.082 25.548 C 460.080 25.547 441.014 15.678 441.013 15.677 Z"/>
<path fill="#be0027" fill-rule="evenodd" stroke="none" d="M 700.884 557.442 C 700.882 557.439 677.585 528.747 677.583 528.745 C 677.583 528.746 681.016 545.374 681.017 545.376 C 681.015 545.377 664.677 549.998 664.676 549.998 C 664.679 549.999 700.881 557.441 700.884 557.442 Z"/>
<path fill="#0000ff" fill-rule="evenodd" stroke="none" d="M 28.146 409.735 C 28.148 409.736 46.762 420.434 46.764 420.435 C 46.762 420.435 36.909 420.009 36.908 420.009 C 36.908 420.010 35.774 429.806 35.774 429.807 C 35.773 429.805 28.147 409.737 28.146 409.735 Z"/>
</g>
</g>
</svg>
