<?xml version="1.0" encoding="utf-8"?>
<!-- Generator: Moho 12.5 build 22414 -->
<!DOCTYPE svg PUBLIC "-//W3C//DTD SVG 1.1//EN" "http://www.w3.org/Graphics/SVG/1.1/DTD/svg11.dtd">
<svg version="1.1" id="Frame_0" xmlns="http://www.w3.org/2000/svg" xmlns:xlink="http://www.w3.org/1999/xlink" width="720px" height="720px">
<g id="foot_of_god">
<g id="foot_of_god">
<path fill="#ffffff" fill-rule="evenodd" stroke="#000000" stroke-width="4" stroke-linecap="round" stroke-linejoin="round" d="M 691.214 49.517 C 691.210 49.550 653.029 347.398 656.350 386.855 C 658.017 406.672 749.129 590.859 625.254 622.427 C 575.741 635.045 507.294 620.676 450.931 620.542 C 370.705 620.351 376.693 651.489 293.569 624.312 C 276.237 632.492 231.961 660.223 196.513 641.272 C 176.807 630.737 228.247 615.823 259.646 597.927 C 264.516 595.152 172.290 646.831 149.399 626.196 C 130.729 609.367 184.606 593.267 222.897 576.255 C 224.030 575.752 121.434 627.636 102.284 596.985 C 87.529 573.367 151.083 573.704 204.993 547.044 C 169.168 555.477 99.108 593.320 71.189 558.352 C 47.944 529.238 137.759 537.975 185.206 520.660 C 153.557 526.519 56.330 556.266 27.844 485.795 C 20.260 467.034 26.527 426.461 74.958 447.162 C 112.993 463.419 160.780 473.259 185.206 463.180 C 283.062 422.803 429.076 411.264 450.931 382.144 C 477.100 347.274 447.410 87.904 446.219 49.516 C 446.244 49.516 691.189 49.517 691.214 49.517 Z"/>
</g>
<g id="specs">
<path fill="#ff00ff" fill-rule="evenodd" stroke="none" d="M 430.518 611.307 C 430.541 611.307 657.110 611.307 657.133 611.307 C 657.133 611.286 657.133 399.031 657.133 399.010 C 657.110 399.010 430.541 399.010 430.518 399.010 C 430.518 399.031 430.518 611.286 430.518 611.307 Z"/>
<path fill="#ff0000" fill-rule="evenodd" stroke="none" d="M 572.015 91.630 C 572.013 91.627 559.583 56.821 559.582 56.817 C 559.583 56.818 572.013 68.384 572.015 68.385 C 572.016 68.384 584.446 56.818 584.448 56.817 C 584.446 56.821 572.016 91.627 572.015 91.630 Z"/>
<path fill="#0000ff" fill-rule="evenodd" stroke="none" d="M 572.015 38.502 C 572.015 38.504 579.236 58.722 579.237 58.724 C 579.236 58.723 572.015 52.005 572.015 52.004 C 572.014 52.005 564.793 58.723 564.793 58.724 C 564.793 58.722 572.014 38.504 572.015 38.502 Z"/>
<path fill="#00ff00" fill-rule="evenodd" stroke="none" d="M 440.123 375.139 C 440.125 375.138 460.306 367.815 460.308 367.815 C 460.307 367.815 453.626 375.070 453.625 375.071 C 453.626 375.071 460.380 382.258 460.381 382.259 C 460.379 382.258 440.125 375.140 440.123 375.139 Z"/>
<path fill="#ffff00" fill-rule="evenodd" stroke="none" d="M 298.342 634.597 C 298.342 634.595 307.303 615.086 307.304 615.083 C 307.304 615.085 307.776 624.936 307.776 624.937 C 307.777 624.937 317.636 625.176 317.637 625.176 C 317.635 625.177 298.343 634.596 298.342 634.597 Z"/>
<path fill="#ffff00" fill-rule="evenodd" stroke="none" d="M 603.903 634.358 C 603.902 634.356 594.552 615.030 594.551 615.028 C 594.551 615.029 594.277 624.888 594.277 624.889 C 594.276 624.889 584.423 625.326 584.422 625.326 C 584.424 625.327 603.901 634.357 603.903 634.358 Z"/>
<path fill="#00ff00" fill-rule="evenodd" stroke="none" d="M 670.088 375.139 C 670.086 375.138 649.905 367.815 649.903 367.815 C 649.903 367.815 656.585 375.070 656.586 375.071 C 656.585 375.071 649.830 382.258 649.830 382.259 C 649.832 382.258 670.086 375.140 670.088 375.139 Z"/>
<path fill="#00ffff" fill-rule="evenodd" stroke="none" d="M 695.590 43.275 C 695.589 43.277 688.422 63.514 688.421 63.516 C 688.421 63.515 687.064 53.746 687.064 53.745 C 687.063 53.745 677.222 54.395 677.221 54.395 C 677.223 54.394 695.588 43.276 695.590 43.275 Z"/>
<path fill="#00ffff" fill-rule="evenodd" stroke="none" d="M 441.013 43.946 C 441.014 43.948 449.514 63.662 449.515 63.664 C 449.515 63.663 450.218 53.825 450.218 53.824 C 450.219 53.824 460.081 53.817 460.082 53.817 C 460.080 53.816 441.015 43.947 441.013 43.946 Z"/>
<path fill="#be0027" fill-rule="evenodd" stroke="none" d="M 700.885 585.711 C 700.882 585.708 677.585 557.016 677.583 557.013 C 677.583 557.015 681.016 573.643 681.017 573.645 C 681.015 573.645 664.677 578.266 664.675 578.267 C 664.679 578.268 700.881 585.710 700.885 585.711 Z"/>
<path fill="#0000ff" fill-rule="evenodd" stroke="none" d="M 28.146 438.003 C 28.148 438.005 46.761 448.702 46.763 448.703 C 46.762 448.703 36.909 448.277 36.908 448.277 C 36.908 448.278 35.774 458.075 35.774 458.076 C 35.773 458.074 28.147 438.005 28.146 438.003 Z"/>
</g>
</g>
</svg>
