<?xml version="1.0" encoding="utf-8"?>
<!-- Generator: Moho 12.5 build 22414 -->
<!DOCTYPE svg PUBLIC "-//W3C//DTD SVG 1.1//EN" "http://www.w3.org/Graphics/SVG/1.1/DTD/svg11.dtd">
<svg version="1.1" id="Frame_0" xmlns="http://www.w3.org/2000/svg" xmlns:xlink="http://www.w3.org/1999/xlink" width="720px" height="720px">
<g id="fork">
<g id="fork">
<path fill="#ffffff" fill-rule="evenodd" stroke="#000000" stroke-width="3" stroke-linecap="round" stroke-linejoin="round" d="M 310.076 361.028 C 294.858 323.613 317.922 190.197 322.291 184.089 C 333.670 206.548 314.744 299.327 327.691 299.464 C 344.539 299.643 335.161 206.704 345.981 184.843 C 359.996 205.777 347.221 300.310 360.000 299.777 C 375.205 299.144 360.471 204.979 374.019 184.097 C 384.537 205.230 377.073 298.432 392.309 297.973 C 405.406 297.578 384.729 204.986 397.709 184.089 C 401.303 188.917 425.142 323.613 409.924 361.028 C 405.221 372.592 378.094 393.398 375.084 403.127 C 360.985 448.694 404.576 615.820 390.167 659.548 C 379.611 691.581 340.389 691.581 329.833 659.548 C 315.424 615.820 359.015 448.694 344.916 403.127 C 341.906 393.398 314.779 372.592 310.076 361.028 Z"/>
</g>
<g id="specs_2">
<path fill="#ff00ff" fill-rule="evenodd" stroke="none" d="M 264.125 219.159 C 264.144 219.159 455.856 219.159 455.875 219.159 C 455.875 219.140 455.875 27.428 455.875 27.409 C 455.856 27.409 264.144 27.409 264.125 27.409 C 264.125 27.428 264.125 219.140 264.125 219.159 Z"/>
<path fill="#ff0000" fill-rule="evenodd" stroke="none" d="M 360.000 646.100 C 360.001 646.103 369.364 672.320 369.365 672.323 C 369.364 672.322 360.001 663.610 360.000 663.609 C 359.999 663.610 350.636 672.322 350.635 672.323 C 350.636 672.320 359.999 646.103 360.000 646.100 Z"/>
<path fill="#00ff00" fill-rule="evenodd" stroke="none" d="M 243.956 124.051 C 243.958 124.050 259.159 118.534 259.161 118.533 C 259.160 118.534 254.127 123.999 254.127 123.999 C 254.127 124.000 259.215 129.413 259.215 129.413 C 259.214 129.413 243.958 124.051 243.956 124.051 Z"/>
<path fill="#ffff00" fill-rule="evenodd" stroke="none" d="M 328.339 425.785 C 328.339 425.784 332.144 417.500 332.144 417.499 C 332.144 417.499 332.345 421.683 332.345 421.683 C 332.345 421.683 336.532 421.785 336.532 421.785 C 336.532 421.785 328.340 425.785 328.339 425.785 Z"/>
<path fill="#ffff00" fill-rule="evenodd" stroke="none" d="M 391.661 425.684 C 391.661 425.683 387.690 417.476 387.690 417.475 C 387.690 417.476 387.574 421.662 387.574 421.663 C 387.573 421.663 383.389 421.848 383.389 421.848 C 383.390 421.849 391.660 425.683 391.661 425.684 Z"/>
<path fill="#00ff00" fill-rule="evenodd" stroke="none" d="M 476.044 124.051 C 476.042 124.050 460.841 118.534 460.839 118.533 C 460.840 118.534 465.873 123.999 465.873 123.999 C 465.873 124.000 460.785 129.413 460.785 129.413 C 460.786 129.413 476.042 124.051 476.044 124.051 Z"/>
<path fill="#be0027" fill-rule="evenodd" stroke="none" d="M 360.000 702.547 C 360.001 702.545 369.364 676.328 369.365 676.325 C 369.364 676.326 360.001 685.038 360.000 685.039 C 359.999 685.038 350.636 676.326 350.635 676.325 C 350.636 676.328 359.999 702.545 360.000 702.547 Z"/>
</g>
</g>
</svg>
