<?xml version="1.0" encoding="utf-8"?>
<!-- Generator: Moho 12.5 build 22414 -->
<!DOCTYPE svg PUBLIC "-//W3C//DTD SVG 1.1//EN" "http://www.w3.org/Graphics/SVG/1.1/DTD/svg11.dtd">
<svg version="1.1" id="Frame_0" xmlns="http://www.w3.org/2000/svg" xmlns:xlink="http://www.w3.org/1999/xlink" width="720px" height="720px">
<g id="fork">
<g id="fork">
<path fill="#ffffff" fill-rule="evenodd" stroke="#000000" stroke-width="3" stroke-linecap="round" stroke-linejoin="round" d="M 303.570 324.669 C 286.369 282.379 312.438 131.576 317.377 124.672 C 330.239 150.058 308.846 254.928 323.481 255.083 C 342.525 255.285 331.924 150.234 344.154 125.524 C 359.995 149.186 345.556 256.039 360.000 255.437 C 377.186 254.720 360.533 148.285 375.846 124.681 C 387.734 148.568 379.298 253.916 396.519 253.397 C 411.324 252.951 387.952 148.292 402.623 124.672 C 406.686 130.130 433.631 282.379 416.430 324.669 C 411.114 337.740 380.452 361.258 377.049 372.255 C 361.113 423.760 410.385 612.666 394.098 662.092 C 382.167 698.300 337.833 698.300 325.902 662.092 C 309.615 612.666 358.887 423.760 342.951 372.255 C 339.548 361.258 308.886 337.740 303.570 324.669 Z"/>
</g>
<g id="specs_2">
<path fill="#ff00ff" fill-rule="evenodd" stroke="none" d="M 251.630 221.399 C 251.652 221.399 468.348 221.399 468.370 221.399 C 468.370 221.378 468.370 4.682 468.370 4.660 C 468.348 4.660 251.652 4.660 251.630 4.660 C 251.630 4.682 251.630 221.378 251.630 221.399 Z"/>
<path fill="#ff0000" fill-rule="evenodd" stroke="none" d="M 360.000 646.892 C 360.001 646.895 370.584 676.529 370.585 676.532 C 370.584 676.531 360.001 666.683 360.000 666.682 C 359.999 666.683 349.416 676.531 349.415 676.532 C 349.416 676.529 359.999 646.895 360.000 646.892 Z"/>
<path fill="#00ff00" fill-rule="evenodd" stroke="none" d="M 228.833 113.896 C 228.835 113.896 246.018 107.661 246.019 107.660 C 246.019 107.661 240.330 113.838 240.329 113.838 C 240.330 113.839 246.081 119.957 246.081 119.958 C 246.080 119.957 228.835 113.897 228.833 113.896 Z"/>
<path fill="#ffff00" fill-rule="evenodd" stroke="none" d="M 324.213 397.865 C 324.213 397.864 328.514 388.501 328.514 388.500 C 328.514 388.500 328.741 393.229 328.741 393.229 C 328.741 393.229 333.474 393.344 333.474 393.344 C 333.473 393.344 324.214 397.865 324.213 397.865 Z"/>
<path fill="#ffff00" fill-rule="evenodd" stroke="none" d="M 395.787 397.751 C 395.787 397.750 391.299 388.474 391.299 388.473 C 391.299 388.473 391.167 393.206 391.167 393.206 C 391.167 393.206 386.437 393.416 386.437 393.416 C 386.438 393.416 395.786 397.750 395.787 397.751 Z"/>
<path fill="#00ff00" fill-rule="evenodd" stroke="none" d="M 491.167 113.896 C 491.165 113.896 473.982 107.661 473.981 107.660 C 473.981 107.661 479.670 113.838 479.671 113.838 C 479.670 113.839 473.919 119.957 473.919 119.958 C 473.920 119.957 491.165 113.897 491.167 113.896 Z"/>
<path fill="#be0027" fill-rule="evenodd" stroke="none" d="M 360.000 710.695 C 360.001 710.692 370.584 681.058 370.585 681.055 C 370.584 681.056 360.001 690.904 360.000 690.904 C 359.999 690.904 349.416 681.056 349.415 681.055 C 349.416 681.058 359.999 710.692 360.000 710.695 Z"/>
</g>
</g>
</svg>
