<?xml version="1.0" encoding="utf-8"?>
<!-- Generator: Moho 12.5 build 22414 -->
<!DOCTYPE svg PUBLIC "-//W3C//DTD SVG 1.1//EN" "http://www.w3.org/Graphics/SVG/1.1/DTD/svg11.dtd">
<svg version="1.1" id="Frame_0" xmlns="http://www.w3.org/2000/svg" xmlns:xlink="http://www.w3.org/1999/xlink" width="720px" height="720px">
<g id="goat">
<g id="goat">
<path fill="#ffffff" fill-rule="evenodd" stroke="none" d="M 156.089 161.766 C 155.570 154.955 160.645 149.042 167.455 148.522 C 174.266 148.003 180.179 153.078 180.699 159.889 C 181.218 166.699 176.143 172.612 169.333 173.132 C 162.522 173.652 156.609 168.577 156.089 161.766 M 133.494 167.603 C 133.498 167.600 141.169 147.233 167.810 141.379 C 182.249 138.206 208.365 156.183 208.369 156.184 C 208.366 156.187 189.432 180.026 171.990 182.565 C 147.833 186.082 133.498 167.604 133.494 167.603 M 82.656 187.217 C 82.657 187.216 81.026 177.081 90.004 174.724 C 96.763 172.949 98.246 176.597 99.721 179.689 C 101.013 182.397 93.229 182.782 87.898 183.877 C 83.999 184.679 82.657 187.217 82.656 187.217 M 190.152 57.117 C 148.142 91.049 157.347 121.775 157.344 121.781 C 157.335 121.787 84.166 148.070 69.800 176.617 C 65.774 184.618 69.358 203.697 78.864 205.293 C 89.158 207.021 116.037 198.838 116.040 198.837 C 116.038 198.839 89.401 219.220 89.399 219.222 C 89.399 219.222 91.978 225.215 95.955 226.564 C 99.459 227.752 104.496 225.062 104.497 225.062 C 104.497 225.063 98.134 231.306 105.231 239.357 C 107.638 242.087 120.304 245.335 120.305 245.336 C 120.305 245.334 113.364 236.280 113.993 231.421 C 114.756 225.524 133.757 221.743 130.462 213.278 C 129.636 211.154 155.355 219.500 155.357 219.501 C 155.359 219.501 170.482 220.303 175.868 219.043 C 180.024 218.070 190.276 212.488 190.277 212.487 C 190.276 212.488 179.924 218.843 175.652 220.055 C 170.695 221.462 156.487 220.828 156.587 221.380 C 160.877 244.873 145.431 275.806 132.500 351.686 C 126.433 387.286 151.376 414.683 151.378 414.689 C 151.380 414.690 169.315 427.813 169.317 427.815 C 169.466 427.806 147.175 411.825 147.173 411.823 C 147.169 411.821 112.457 393.454 108.394 393.723 C 100.768 394.228 72.180 429.815 44.065 441.796 C 41.381 442.940 40.164 455.794 38.285 459.688 C 34.890 466.724 16.380 475.012 19.004 487.656 C 25.864 520.716 13.929 530.896 15.684 530.962 C 27.262 531.401 37.341 516.885 37.344 516.884 C 37.343 516.887 26.265 546.896 27.597 546.124 C 64.278 524.835 66.579 494.147 66.583 494.142 C 66.581 494.141 47.146 491.893 45.925 479.922 C 44.399 464.972 62.059 479.696 68.820 458.547 C 70.610 452.946 78.151 465.619 79.057 468.904 C 79.851 471.787 75.286 481.815 76.177 481.359 C 103.949 467.131 69.319 435.210 108.818 417.253 C 111.381 416.088 127.561 427.429 132.705 429.819 C 139.399 432.930 165.280 442.944 165.284 442.945 C 165.286 442.945 193.295 438.923 193.298 438.923 C 193.295 438.923 166.216 444.326 166.214 444.327 C 166.210 444.328 132.026 446.351 126.580 451.978 C 119.110 459.697 130.613 517.746 117.046 536.660 C 112.875 542.474 125.040 547.250 127.298 560.272 C 128.635 567.983 129.083 582.128 133.725 584.026 C 167.643 597.902 170.439 613.371 170.687 612.830 C 175.419 602.518 171.699 590.597 171.699 590.595 C 171.701 590.597 185.694 612.250 185.848 610.735 C 190.398 566.046 161.661 551.839 161.659 551.833 C 161.657 551.834 152.796 564.579 146.721 562.368 C 138.577 559.404 141.288 544.383 142.672 538.201 C 143.746 533.401 147.107 524.033 153.203 522.352 C 160.647 520.299 173.792 533.127 173.795 533.128 C 173.793 533.125 168.146 507.156 162.119 504.933 C 145.435 498.782 143.786 493.215 142.165 474.579 C 141.662 468.792 180.338 470.443 215.740 466.891 C 219.225 466.541 235.199 474.498 244.185 464.903 C 246.083 462.876 251.719 420.204 251.720 420.199 C 251.719 420.204 245.633 464.299 245.633 464.304 C 245.641 464.304 295.237 475.939 331.847 470.609 C 366.091 465.623 411.954 450.564 411.962 450.562 C 411.962 450.560 405.396 439.017 403.597 433.810 C 401.477 427.675 399.262 412.180 399.262 412.178 C 399.262 412.180 401.955 426.904 404.133 432.721 C 406.241 438.353 413.343 450.486 413.621 450.824 C 432.631 473.967 478.591 481.144 478.598 481.147 C 478.594 481.149 442.652 507.345 442.648 507.348 C 442.647 507.349 430.898 509.087 426.616 520.133 C 424.627 525.263 432.000 537.066 431.384 540.038 C 429.733 547.998 419.498 569.587 426.110 577.094 C 443.405 596.728 444.008 622.488 444.956 621.706 C 451.159 616.583 456.502 599.331 456.503 599.329 C 456.503 599.332 457.576 627.857 459.893 625.025 C 485.612 593.601 467.685 559.549 467.686 559.543 C 467.684 559.542 444.371 569.606 446.251 551.103 C 447.861 535.254 458.120 546.179 459.893 522.734 C 460.143 519.440 473.311 520.358 471.206 535.153 C 469.106 549.912 485.388 552.466 485.390 552.468 C 485.389 552.466 476.145 540.032 481.675 533.954 C 487.164 527.919 492.653 511.606 486.178 503.889 C 483.741 500.984 525.500 489.768 525.504 489.767 C 525.506 489.766 538.386 497.621 550.072 488.080 C 556.695 482.672 555.062 467.647 555.063 467.645 C 555.059 467.646 527.106 475.494 517.070 477.289 C 507.530 478.995 480.027 481.232 480.024 481.232 C 480.027 481.232 507.708 478.774 517.276 476.869 C 527.411 474.850 551.927 467.259 555.487 465.986 C 559.879 464.415 592.961 453.146 600.394 446.351 C 606.051 441.180 604.266 459.075 597.641 532.895 C 595.443 557.382 611.823 544.680 622.912 562.073 C 627.830 569.787 632.688 583.253 638.367 584.309 C 654.636 587.335 687.844 605.005 688.689 603.520 C 689.076 602.838 676.777 581.863 676.776 581.861 C 676.779 581.862 704.834 601.962 703.850 598.105 C 692.330 552.964 671.365 543.963 671.362 543.958 C 671.359 543.959 649.474 559.880 640.604 555.729 C 626.000 548.893 642.251 537.082 627.173 521.510 C 624.254 518.496 633.496 507.250 644.242 518.770 C 651.927 527.009 667.028 513.636 667.030 513.635 C 667.028 513.634 655.670 518.615 645.113 503.709 C 640.154 496.706 630.846 492.233 623.206 490.540 C 618.500 489.498 625.587 443.913 625.588 443.908 C 625.588 443.905 647.670 428.341 631.940 415.593 C 612.290 399.669 599.688 424.142 598.705 424.470 C 579.692 430.831 538.018 431.985 538.160 427.000 C 540.391 348.668 504.613 297.187 504.610 297.174 C 504.617 297.174 545.829 324.690 578.283 303.007 C 614.899 278.544 596.962 232.785 596.964 232.778 C 596.959 232.781 578.656 258.116 550.373 269.333 C 523.211 280.106 504.572 277.204 466.467 279.417 C 426.791 281.720 398.251 329.455 329.151 331.701 C 269.279 333.647 241.198 306.418 235.006 287.736 C 224.352 255.592 226.046 208.316 231.699 195.448 C 236.937 183.527 234.728 166.362 234.728 166.359 C 234.733 166.362 250.137 188.837 277.318 195.245 C 330.564 207.798 362.066 160.696 349.872 158.573 C 335.376 156.048 322.134 168.200 274.459 159.259 C 257.339 156.049 230.281 139.117 228.067 136.480 C 218.293 124.839 212.133 121.970 212.132 121.968 C 212.131 121.966 205.809 113.601 207.717 97.979 C 209.310 84.933 220.632 59.016 220.633 59.012 C 220.630 59.014 202.563 69.760 194.361 82.900 C 183.683 100.006 183.356 117.704 183.355 117.708 C 183.356 117.702 171.540 105.338 190.152 57.117 M 193.154 437.750 C 193.151 437.749 169.471 427.809 169.468 427.808 C 169.320 427.816 193.151 437.749 193.154 437.750 Z"/>
<path fill="none" stroke="#000000" stroke-width="4" stroke-linecap="round" stroke-linejoin="round" d="M 285.840 174.056 C 305.935 176.650 324.854 169.019 344.360 166.501 M 231.171 151.894 C 231.177 151.896 265.751 171.463 285.840 174.056 M 156.089 161.766 C 155.570 154.955 160.645 149.042 167.455 148.522 C 174.266 148.003 180.179 153.078 180.699 159.889 C 181.218 166.699 176.143 172.612 169.333 173.132 C 162.522 173.652 156.609 168.577 156.089 161.766 M 133.494 167.603 C 133.498 167.600 141.169 147.233 167.810 141.379 C 182.249 138.206 208.365 156.183 208.369 156.184 C 208.366 156.187 189.432 180.026 171.990 182.565 C 147.833 186.082 133.498 167.604 133.494 167.603 M 82.656 187.217 C 82.657 187.216 81.026 177.081 90.004 174.724 C 96.763 172.949 98.246 176.597 99.721 179.689 C 101.013 182.397 93.229 182.782 87.898 183.877 C 83.999 184.679 82.657 187.217 82.656 187.217 M 190.152 57.117 C 148.142 91.049 157.347 121.775 157.344 121.781 C 157.335 121.787 84.166 148.070 69.800 176.617 C 65.774 184.618 69.358 203.697 78.864 205.293 C 89.158 207.021 116.037 198.838 116.040 198.837 C 116.038 198.839 89.401 219.220 89.399 219.222 C 89.399 219.222 91.978 225.215 95.955 226.564 C 99.459 227.752 104.496 225.062 104.497 225.062 C 104.497 225.063 98.134 231.306 105.231 239.357 C 107.638 242.087 120.304 245.335 120.305 245.336 C 120.305 245.334 113.364 236.280 113.993 231.421 C 114.756 225.524 133.757 221.743 130.462 213.278 C 129.636 211.154 155.355 219.500 155.357 219.501 C 155.359 219.501 170.482 220.303 175.868 219.043 C 180.024 218.070 190.276 212.488 190.277 212.487 C 190.276 212.488 179.924 218.843 175.652 220.055 C 170.695 221.462 156.487 220.828 156.587 221.380 C 160.877 244.873 145.431 275.806 132.500 351.686 C 126.433 387.286 151.376 414.683 151.378 414.689 C 151.380 414.690 169.315 427.813 169.317 427.815 C 169.466 427.806 147.175 411.825 147.173 411.823 C 147.169 411.821 112.457 393.454 108.394 393.723 C 100.768 394.228 72.180 429.815 44.065 441.796 C 41.381 442.940 40.164 455.794 38.285 459.688 C 34.890 466.724 16.380 475.012 19.004 487.656 C 25.864 520.716 13.929 530.896 15.684 530.962 C 27.262 531.401 37.341 516.885 37.344 516.884 C 37.343 516.887 26.265 546.896 27.597 546.124 C 64.278 524.835 66.579 494.147 66.583 494.142 C 66.581 494.141 47.146 491.893 45.925 479.922 C 44.399 464.972 62.059 479.696 68.820 458.547 C 70.610 452.946 78.151 465.619 79.057 468.904 C 79.851 471.787 75.286 481.815 76.177 481.359 C 103.949 467.131 69.319 435.210 108.818 417.253 C 111.381 416.088 127.561 427.429 132.705 429.819 C 139.399 432.930 165.280 442.944 165.284 442.945 C 165.286 442.945 193.295 438.923 193.298 438.923 C 193.295 438.923 166.216 444.326 166.214 444.327 C 166.210 444.328 132.026 446.351 126.580 451.978 C 119.110 459.697 130.613 517.746 117.046 536.660 C 112.875 542.474 125.040 547.250 127.298 560.272 C 128.635 567.983 129.083 582.128 133.725 584.026 C 167.643 597.902 170.439 613.371 170.687 612.830 C 175.419 602.518 171.699 590.597 171.699 590.595 C 171.701 590.597 185.694 612.250 185.848 610.735 C 190.398 566.046 161.661 551.839 161.659 551.833 C 161.657 551.834 152.796 564.579 146.721 562.368 C 138.577 559.404 141.288 544.383 142.672 538.201 C 143.746 533.401 147.107 524.033 153.203 522.352 C 160.647 520.299 173.792 533.127 173.795 533.128 C 173.793 533.125 168.146 507.156 162.119 504.933 C 145.435 498.782 143.786 493.215 142.165 474.579 C 141.662 468.792 180.338 470.443 215.740 466.891 C 219.225 466.541 235.199 474.498 244.185 464.903 C 246.083 462.876 251.719 420.204 251.720 420.199 C 251.719 420.204 245.633 464.299 245.633 464.304 C 245.641 464.304 295.237 475.939 331.847 470.609 C 366.091 465.623 411.954 450.564 411.962 450.562 C 411.962 450.560 405.396 439.017 403.597 433.810 C 401.477 427.675 399.262 412.180 399.262 412.178 C 399.262 412.180 401.955 426.904 404.133 432.721 C 406.241 438.353 413.343 450.486 413.621 450.824 C 432.631 473.967 478.591 481.144 478.598 481.147 C 478.594 481.149 442.652 507.345 442.648 507.348 C 442.647 507.349 430.898 509.087 426.616 520.133 C 424.627 525.263 432.000 537.066 431.384 540.038 C 429.733 547.998 419.498 569.587 426.110 577.094 C 443.405 596.728 444.008 622.488 444.956 621.706 C 451.159 616.583 456.502 599.331 456.503 599.329 C 456.503 599.332 457.576 627.857 459.893 625.025 C 485.612 593.601 467.685 559.549 467.686 559.543 C 467.684 559.542 444.371 569.606 446.251 551.103 C 447.861 535.254 458.120 546.179 459.893 522.734 C 460.143 519.440 473.311 520.358 471.206 535.153 C 469.106 549.912 485.388 552.466 485.390 552.468 C 485.389 552.466 476.145 540.032 481.675 533.954 C 487.164 527.919 492.653 511.606 486.178 503.889 C 483.741 500.984 525.500 489.768 525.504 489.767 C 525.506 489.766 538.386 497.621 550.072 488.080 C 556.695 482.672 555.062 467.647 555.063 467.645 C 555.059 467.646 527.106 475.494 517.070 477.289 C 507.530 478.995 480.027 481.232 480.024 481.232 C 480.027 481.232 507.708 478.774 517.276 476.869 C 527.411 474.850 551.927 467.259 555.487 465.986 C 559.879 464.415 592.961 453.146 600.394 446.351 C 606.051 441.180 604.266 459.075 597.641 532.895 C 595.443 557.382 611.823 544.680 622.912 562.073 C 627.830 569.787 632.688 583.253 638.367 584.309 C 654.636 587.335 687.844 605.005 688.689 603.520 C 689.076 602.838 676.777 581.863 676.776 581.861 C 676.779 581.862 704.834 601.962 703.850 598.105 C 692.330 552.964 671.365 543.963 671.362 543.958 C 671.359 543.959 649.474 559.880 640.604 555.729 C 626.000 548.893 642.251 537.082 627.173 521.510 C 624.254 518.496 633.496 507.250 644.242 518.770 C 651.927 527.009 667.028 513.636 667.030 513.635 C 667.028 513.634 655.670 518.615 645.113 503.709 C 640.154 496.706 630.846 492.233 623.206 490.540 C 618.500 489.498 625.587 443.913 625.588 443.908 C 625.588 443.905 647.670 428.341 631.940 415.593 C 612.290 399.669 599.688 424.142 598.705 424.470 C 579.692 430.831 538.018 431.985 538.160 427.000 C 540.391 348.668 504.613 297.187 504.610 297.174 C 504.617 297.174 545.829 324.690 578.283 303.007 C 614.899 278.544 596.962 232.785 596.964 232.778 C 596.959 232.781 578.656 258.116 550.373 269.333 C 523.211 280.106 504.572 277.204 466.467 279.417 C 426.791 281.720 398.251 329.455 329.151 331.701 C 269.279 333.647 241.198 306.418 235.006 287.736 C 224.352 255.592 226.046 208.316 231.699 195.448 C 236.937 183.527 234.728 166.362 234.728 166.359 C 234.733 166.362 250.137 188.837 277.318 195.245 C 330.564 207.798 362.066 160.696 349.872 158.573 C 335.376 156.048 322.134 168.200 274.459 159.259 C 257.339 156.049 230.281 139.117 228.067 136.480 C 218.293 124.839 212.133 121.970 212.132 121.968 C 212.131 121.966 205.809 113.601 207.717 97.979 C 209.310 84.933 220.632 59.016 220.633 59.012 C 220.630 59.014 202.563 69.760 194.361 82.900 C 183.683 100.006 183.356 117.704 183.355 117.708 C 183.356 117.702 171.540 105.338 190.152 57.117 M 193.154 437.750 C 193.151 437.749 169.471 427.809 169.468 427.808 C 169.320 427.816 193.151 437.749 193.154 437.750 "/>
<path fill="none" stroke="#000000" stroke-width="4" stroke-linecap="round" stroke-linejoin="round" d="M 182.358 117.728 C 182.356 117.728 175.893 121.097 170.026 121.913 C 162.573 122.950 162.001 122.060 157.989 122.133 M 184.635 118.609 C 184.636 118.609 188.323 121.445 196.012 122.792 C 203.503 124.105 211.791 122.204 211.792 122.203 M 503.214 295.298 C 503.221 295.298 543.895 300.478 566.967 286.487 C 595.845 268.974 596.951 236.959 596.953 236.954 M 657.675 588.455 C 657.675 588.454 662.084 581.090 661.995 575.104 C 661.863 566.300 654.534 555.865 654.534 555.863 M 23.502 500.495 C 23.504 500.496 32.215 503.350 38.031 502.066 C 45.404 500.438 53.737 492.250 53.738 492.249 M 436.598 588.062 C 436.599 588.062 446.280 585.653 451.127 580.602 C 455.861 575.669 457.409 564.111 457.410 564.109 M 151.372 591.347 C 151.372 591.346 158.756 586.183 160.546 580.209 C 163.206 571.334 157.530 558.988 157.530 558.986 M 251.255 418.819 C 251.261 418.820 290.233 430.012 318.920 428.991 C 353.237 427.769 398.662 410.556 398.670 410.554 M 183.590 219.034 C 184.475 263.725 168.985 283.427 168.793 353.242 C 168.683 393.029 208.449 401.536 208.453 401.541 C 208.452 401.545 195.477 437.539 195.476 437.542 "/>
<path fill="none" stroke="#000000" stroke-width="4" stroke-linecap="round" stroke-linejoin="round" d="M 491.919 310.095 C 491.921 310.103 513.835 352.203 513.613 388.686 C 513.365 429.542 491.668 444.223 492.864 444.570 C 540.027 458.245 587.385 438.909 593.150 435.847 "/>
</g>
<g id="specs_2">
<path fill="#ff00ff" fill-rule="evenodd" stroke="none" d="M 412.942 408.291 C 412.950 408.291 492.233 408.291 492.241 408.291 C 492.241 408.283 492.241 329.001 492.241 328.993 C 492.233 328.993 412.950 328.993 412.942 328.993 C 412.942 329.001 412.942 408.283 412.942 408.291 Z"/>
<path fill="#ff0000" fill-rule="evenodd" stroke="none" d="M 322.963 647.893 C 322.965 647.897 335.395 682.703 335.396 682.706 C 335.395 682.705 322.965 671.139 322.963 671.138 C 322.962 671.139 310.532 682.705 310.530 682.706 C 310.532 682.703 322.962 647.897 322.963 647.893 Z"/>
<path fill="#0000ff" fill-rule="evenodd" stroke="none" d="M 331.605 316.534 C 331.606 316.535 338.827 336.754 338.827 336.756 C 338.827 336.755 331.606 330.037 331.605 330.036 C 331.605 330.037 324.384 336.755 324.383 336.756 C 324.384 336.754 331.605 316.535 331.605 316.534 Z"/>
<path fill="#00ff00" fill-rule="evenodd" stroke="none" d="M 120.154 361.005 C 120.156 361.004 140.337 353.681 140.339 353.680 C 140.339 353.681 133.657 360.936 133.656 360.936 C 133.657 360.937 140.411 368.124 140.412 368.125 C 140.410 368.124 120.156 361.005 120.154 361.005 Z"/>
<path fill="#ffff00" fill-rule="evenodd" stroke="none" d="M 125.772 593.625 C 125.773 593.623 134.734 574.114 134.735 574.112 C 134.735 574.113 135.206 583.964 135.206 583.965 C 135.207 583.965 145.067 584.204 145.068 584.204 C 145.066 584.205 125.774 593.624 125.772 593.625 Z"/>
<path fill="#ffff00" fill-rule="evenodd" stroke="none" d="M 479.505 592.151 C 479.504 592.149 470.154 572.823 470.153 572.822 C 470.153 572.823 469.879 582.682 469.879 582.683 C 469.878 582.683 460.025 583.120 460.024 583.120 C 460.026 583.120 479.503 592.150 479.505 592.151 Z"/>
<path fill="#00ff00" fill-rule="evenodd" stroke="none" d="M 546.572 361.005 C 546.570 361.004 526.389 353.681 526.387 353.680 C 526.387 353.681 533.069 360.936 533.070 360.936 C 533.069 360.937 526.314 368.124 526.314 368.125 C 526.316 368.124 546.570 361.005 546.572 361.005 Z"/>
<path fill="#00ffff" fill-rule="evenodd" stroke="none" d="M 226.057 116.481 C 226.056 116.483 218.889 136.720 218.889 136.722 C 218.888 136.721 217.531 126.952 217.531 126.951 C 217.530 126.951 207.689 127.601 207.688 127.601 C 207.690 127.600 226.055 116.482 226.057 116.481 Z"/>
<path fill="#00ffff" fill-rule="evenodd" stroke="none" d="M 139.559 112.896 C 139.559 112.898 143.717 133.960 143.718 133.963 C 143.718 133.962 146.477 124.492 146.477 124.491 C 146.478 124.492 156.121 126.561 156.122 126.561 C 156.120 126.560 139.561 112.897 139.559 112.896 Z"/>
<path fill="#be0027" fill-rule="evenodd" stroke="none" d="M 603.688 226.763 C 603.685 226.765 577.603 252.951 577.600 252.953 C 577.602 252.953 593.777 247.790 593.778 247.789 C 593.779 247.791 600.093 263.552 600.093 263.554 C 600.094 263.550 603.687 226.766 603.688 226.763 Z"/>
</g>
</g>
</svg>
