<?xml version="1.0" encoding="utf-8"?>
<!-- Generator: Moho 12.5 build 22414 -->
<!DOCTYPE svg PUBLIC "-//W3C//DTD SVG 1.1//EN" "http://www.w3.org/Graphics/SVG/1.1/DTD/svg11.dtd">
<svg version="1.1" id="Frame_0" xmlns="http://www.w3.org/2000/svg" xmlns:xlink="http://www.w3.org/1999/xlink" width="720px" height="720px">
<g id="goat_horn">
<g id="goat_horn">
<path fill="#ffffff" fill-rule="evenodd" stroke="#000000" stroke-width="4" stroke-linecap="round" stroke-linejoin="round" d="M 253.362 221.785 C 253.358 221.794 208.708 319.241 208.703 319.251 C 208.702 319.264 196.561 428.225 196.559 428.237 C 196.562 428.253 217.161 560.677 217.163 560.690 C 217.174 560.715 272.873 687.743 272.877 687.753 C 272.887 687.755 320.745 702.030 376.165 697.195 C 456.649 690.173 493.179 657.847 493.191 657.843 C 493.185 657.835 432.902 588.464 417.990 563.792 C 410.217 550.931 376.530 477.694 370.683 453.680 C 366.539 436.659 359.422 390.074 359.542 359.092 C 359.645 332.680 363.887 303.095 371.133 272.728 C 378.319 242.607 386.614 216.049 396.194 193.955 C 407.664 167.499 424.500 138.527 437.133 121.012 C 449.438 103.953 472.058 84.436 482.931 76.009 C 519.315 47.810 570.975 25.953 570.980 25.944 C 570.974 25.949 457.686 51.908 457.664 51.913 C 457.657 51.917 382.373 89.082 382.364 89.087 C 382.356 89.093 310.055 148.344 310.047 148.351 C 310.041 148.358 253.367 221.778 253.362 221.785 Z"/>
<path fill="none" stroke="#000000" stroke-width="4" stroke-linecap="round" stroke-linejoin="round" d="M 457.664 51.913 C 457.665 51.915 455.929 61.463 462.996 68.928 C 471.382 77.785 482.929 76.008 482.931 76.009 C 519.315 47.810 570.975 25.953 570.980 25.944 C 570.974 25.949 457.686 51.908 457.664 51.913 C 457.657 51.917 382.373 89.082 382.364 89.087 C 382.366 89.089 392.249 107.724 404.880 115.739 C 419.059 124.735 437.130 121.012 437.133 121.012 C 449.438 103.953 472.058 84.436 482.931 76.009 M 310.047 148.351 C 310.051 148.354 322.413 169.361 349.357 183.163 C 374.020 195.795 396.189 193.953 396.194 193.955 C 407.664 167.499 424.500 138.527 437.133 121.012 M 217.163 560.690 C 217.173 560.692 262.106 583.956 326.441 583.318 C 383.196 582.755 417.981 563.794 417.990 563.792 C 410.217 550.931 376.530 477.694 370.683 453.680 C 370.675 453.681 337.570 469.493 290.062 464.261 C 232.640 457.938 196.569 428.240 196.559 428.237 C 196.562 428.253 217.161 560.677 217.163 560.690 C 217.174 560.715 272.873 687.743 272.877 687.753 C 272.887 687.755 320.745 702.030 376.165 697.195 C 456.649 690.173 493.179 657.847 493.191 657.843 C 493.185 657.835 432.902 588.464 417.990 563.792 M 208.703 319.251 C 208.711 319.255 236.382 351.365 286.488 362.790 C 327.604 372.165 359.535 359.093 359.542 359.092 C 359.645 332.680 363.887 303.095 371.133 272.728 C 371.126 272.727 343.205 273.965 310.032 260.039 C 273.686 244.780 253.367 221.789 253.362 221.785 C 253.367 221.778 310.041 148.358 310.047 148.351 C 310.055 148.344 382.356 89.093 382.364 89.087 M 371.133 272.728 C 378.319 242.607 386.614 216.049 396.194 193.955 M 370.683 453.680 C 366.539 436.659 359.422 390.074 359.542 359.092 M 208.703 319.251 C 208.702 319.264 196.561 428.225 196.559 428.237 M 253.362 221.785 C 253.358 221.794 208.708 319.241 208.703 319.251 "/>
</g>
<g id="specs">
<path fill="#ff0000" fill-rule="evenodd" stroke="none" d="M 336.769 581.218 C 336.772 581.221 372.195 620.734 372.199 620.738 C 372.196 620.737 349.393 612.114 349.391 612.113 C 349.390 612.116 339.148 634.239 339.147 634.241 C 339.147 634.236 336.769 581.223 336.769 581.218 Z"/>
<path fill="#0000ff" fill-rule="evenodd" stroke="none" d="M 607.258 16.990 C 607.256 16.992 581.159 33.397 581.156 33.399 C 581.157 33.397 588.330 21.188 588.331 21.186 C 588.330 21.186 576.668 13.152 576.667 13.151 C 576.670 13.151 607.255 16.990 607.258 16.990 Z"/>
<path fill="#00ffff" fill-rule="evenodd" stroke="none" d="M 454.076 119.516 C 454.073 119.517 425.454 130.967 425.451 130.968 C 425.452 130.967 434.702 120.245 434.703 120.244 C 434.702 120.243 424.673 110.244 424.672 110.243 C 424.675 110.244 454.073 119.515 454.076 119.516 Z"/>
<path fill="#00ffff" fill-rule="evenodd" stroke="none" d="M 378.450 71.003 C 378.449 71.006 375.982 102.472 375.982 102.476 C 375.983 102.474 383.644 90.163 383.645 90.162 C 383.646 90.163 396.477 96.917 396.479 96.918 C 396.477 96.915 378.451 71.005 378.450 71.003 Z"/>
<path fill="#00ff00" fill-rule="evenodd" stroke="none" d="M 376.960 349.013 C 376.957 349.015 354.144 369.745 354.141 369.747 C 354.142 369.745 359.061 356.466 359.062 356.465 C 359.061 356.464 346.171 350.601 346.169 350.601 C 346.173 350.600 376.957 349.013 376.960 349.013 Z"/>
<path fill="#00ff00" fill-rule="evenodd" stroke="none" d="M 197.774 304.554 C 197.777 304.555 224.186 320.453 224.189 320.455 C 224.187 320.455 210.055 319.556 210.053 319.556 C 210.053 319.558 208.139 333.589 208.139 333.590 C 208.138 333.587 197.775 304.557 197.774 304.554 Z"/>
<path fill="#ffff00" fill-rule="evenodd" stroke="none" d="M 294.364 707.725 C 294.363 707.723 282.712 679.184 282.711 679.181 C 282.712 679.182 293.499 688.357 293.500 688.357 C 293.501 688.357 303.429 678.258 303.430 678.257 C 303.429 678.260 294.365 707.723 294.364 707.725 Z"/>
<path fill="#ffff00" fill-rule="evenodd" stroke="none" d="M 489.986 675.779 C 489.984 675.776 474.057 649.385 474.055 649.382 C 474.055 649.384 474.969 663.515 474.969 663.517 C 474.968 663.517 460.939 665.446 460.938 665.446 C 460.941 665.448 489.983 675.778 489.986 675.779 Z"/>
</g>
</g>
</svg>
