<?xml version="1.0" encoding="utf-8"?>
<!-- Generator: Moho 12.5 build 22414 -->
<!DOCTYPE svg PUBLIC "-//W3C//DTD SVG 1.1//EN" "http://www.w3.org/Graphics/SVG/1.1/DTD/svg11.dtd">
<svg version="1.1" id="Frame_0" xmlns="http://www.w3.org/2000/svg" xmlns:xlink="http://www.w3.org/1999/xlink" width="720px" height="720px">
<g id="halves">
<g id="goat_hind">
<g id="goat_hind">
<path fill="#ffffff" fill-rule="evenodd" stroke="none" d="M 329.100 417.097 C 329.101 431.107 329.101 445.209 329.115 459.751 C 329.687 459.690 330.785 459.543 331.882 459.383 C 366.083 454.405 411.890 439.363 411.898 439.361 C 411.897 439.359 405.339 427.830 403.543 422.630 C 401.426 416.502 399.213 401.027 399.213 401.025 C 399.214 401.027 401.903 415.732 404.078 421.543 C 406.183 427.167 413.277 439.286 413.554 439.623 C 432.541 462.737 478.444 469.905 478.450 469.908 C 478.447 469.911 442.549 496.073 442.546 496.076 C 442.544 496.077 430.810 497.813 426.533 508.846 C 424.547 513.970 431.910 525.758 431.295 528.726 C 429.646 536.676 419.424 558.239 426.028 565.735 C 443.302 585.345 443.904 611.074 444.850 610.292 C 451.046 605.176 456.382 587.946 456.383 587.943 C 456.384 587.946 457.455 616.435 459.769 613.608 C 485.457 582.223 467.551 548.213 467.552 548.206 C 467.550 548.205 444.266 558.257 446.143 539.777 C 447.751 523.948 457.998 534.860 459.769 511.444 C 460.018 508.154 473.170 509.070 471.068 523.847 C 468.970 538.587 485.232 541.139 485.234 541.141 C 485.233 541.139 476.001 528.721 481.524 522.649 C 487.006 516.623 492.488 500.329 486.021 492.622 C 483.587 489.721 525.294 478.518 525.298 478.517 C 525.300 478.517 538.164 486.362 549.836 476.833 C 556.451 471.432 554.820 456.426 554.820 456.424 C 554.816 456.424 526.898 464.262 516.874 466.055 C 507.347 467.759 479.878 469.993 479.874 469.993 C 479.878 469.993 507.524 467.539 517.081 465.636 C 527.203 463.620 551.688 456.037 555.244 454.766 C 559.630 453.197 592.671 441.942 600.094 435.156 C 605.745 429.991 603.962 447.864 597.346 521.591 C 595.151 546.049 611.509 533.362 622.585 550.734 C 627.497 558.438 632.349 571.887 638.021 572.942 C 654.270 575.965 687.436 593.612 688.280 592.129 C 688.667 591.448 676.383 570.499 676.382 570.497 C 676.385 570.498 704.405 590.573 703.422 586.720 C 691.917 541.636 670.978 532.646 670.974 532.641 C 670.971 532.642 649.114 548.544 640.255 544.397 C 625.669 537.570 641.900 525.773 626.840 510.221 C 623.926 507.211 633.156 495.979 643.888 507.485 C 651.564 515.713 666.646 502.356 666.648 502.356 C 666.646 502.355 655.302 507.330 644.759 492.442 C 639.805 485.447 630.509 480.980 622.879 479.290 C 618.178 478.249 625.257 432.720 625.257 432.716 C 625.258 432.713 647.312 417.168 631.602 404.436 C 611.976 388.531 599.389 412.974 598.407 413.302 C 579.418 419.655 537.796 420.808 537.938 415.828 C 540.166 337.594 504.434 286.177 504.430 286.164 C 504.438 286.165 545.598 313.646 578.012 291.990 C 614.582 267.557 596.667 221.855 596.669 221.848 C 596.664 221.852 578.384 247.154 550.136 258.358 C 523.008 269.117 504.392 266.219 466.334 268.429 C 426.707 270.729 398.204 318.405 329.190 320.648 C 329.162 346.721 329.143 381.346 329.100 417.097 Z"/>
<path fill="none" stroke="#000000" stroke-width="4" stroke-linecap="round" stroke-linejoin="round" d="M 436.503 576.691 C 436.504 576.690 446.172 574.284 451.014 569.239 C 455.742 564.313 457.288 552.769 457.289 552.767 M 329.100 417.097 C 361.870 413.480 398.615 399.405 398.622 399.403 M 492.699 433.377 C 539.803 447.035 587.102 427.723 592.860 424.665 M 513.422 377.563 C 513.174 418.367 491.504 433.030 492.699 433.377 M 491.755 299.069 C 491.757 299.077 513.644 341.124 513.422 377.563 M 566.709 275.490 C 595.552 257.999 596.656 226.024 596.659 226.019 M 503.036 284.291 C 503.042 284.290 543.666 289.464 566.709 275.490 M 661.619 563.748 C 661.487 554.956 654.168 544.533 654.167 544.531 M 657.305 577.083 C 657.305 577.082 661.708 569.727 661.619 563.748 M 329.100 417.097 C 329.101 431.107 329.101 445.209 329.115 459.751 C 329.687 459.690 330.785 459.543 331.882 459.383 C 366.083 454.405 411.890 439.363 411.898 439.361 C 411.897 439.359 405.339 427.830 403.543 422.630 C 401.426 416.502 399.213 401.027 399.213 401.025 C 399.214 401.027 401.903 415.732 404.078 421.543 C 406.183 427.167 413.277 439.286 413.554 439.623 C 432.541 462.737 478.444 469.905 478.450 469.908 C 478.447 469.911 442.549 496.073 442.546 496.076 C 442.544 496.077 430.810 497.813 426.533 508.846 C 424.547 513.970 431.910 525.758 431.295 528.726 C 429.646 536.676 419.424 558.239 426.028 565.735 C 443.302 585.345 443.904 611.074 444.850 610.292 C 451.046 605.176 456.382 587.946 456.383 587.943 C 456.384 587.946 457.455 616.435 459.769 613.608 C 485.457 582.223 467.551 548.213 467.552 548.206 C 467.550 548.205 444.266 558.257 446.143 539.777 C 447.751 523.948 457.998 534.860 459.769 511.444 C 460.018 508.154 473.170 509.070 471.068 523.847 C 468.970 538.587 485.232 541.139 485.234 541.141 C 485.233 541.139 476.001 528.721 481.524 522.649 C 487.006 516.623 492.488 500.329 486.021 492.622 C 483.587 489.721 525.294 478.518 525.298 478.517 C 525.300 478.517 538.164 486.362 549.836 476.833 C 556.451 471.432 554.820 456.426 554.820 456.424 C 554.816 456.424 526.898 464.262 516.874 466.055 C 507.347 467.759 479.878 469.993 479.874 469.993 C 479.878 469.993 507.524 467.539 517.081 465.636 C 527.203 463.620 551.688 456.037 555.244 454.766 C 559.630 453.197 592.671 441.942 600.094 435.156 C 605.745 429.991 603.962 447.864 597.346 521.591 C 595.151 546.049 611.509 533.362 622.585 550.734 C 627.497 558.438 632.349 571.887 638.021 572.942 C 654.270 575.965 687.436 593.612 688.280 592.129 C 688.667 591.448 676.383 570.499 676.382 570.497 C 676.385 570.498 704.405 590.573 703.422 586.720 C 691.917 541.636 670.978 532.646 670.974 532.641 C 670.971 532.642 649.114 548.544 640.255 544.397 C 625.669 537.570 641.900 525.773 626.840 510.221 C 623.926 507.211 633.156 495.979 643.888 507.485 C 651.564 515.713 666.646 502.356 666.648 502.356 C 666.646 502.355 655.302 507.330 644.759 492.442 C 639.805 485.447 630.509 480.980 622.879 479.290 C 618.178 478.249 625.257 432.720 625.257 432.716 C 625.258 432.713 647.312 417.168 631.602 404.436 C 611.976 388.531 599.389 412.974 598.407 413.302 C 579.418 419.655 537.796 420.808 537.938 415.828 C 540.166 337.594 504.434 286.177 504.430 286.164 C 504.438 286.165 545.598 313.646 578.012 291.990 C 614.582 267.557 596.667 221.855 596.669 221.848 C 596.664 221.852 578.384 247.154 550.136 258.358 C 523.008 269.117 504.392 266.219 466.334 268.429 C 426.707 270.729 398.204 318.405 329.190 320.648 C 329.162 346.721 329.143 381.346 329.100 417.097 "/>
<path fill="none" stroke="#ffffff" stroke-width="4" stroke-linecap="round" stroke-linejoin="round" d="M 329.190 320.648 C 329.162 346.721 329.143 381.346 329.100 417.097 C 329.101 431.107 329.101 445.209 329.115 459.751 "/>
</g>
<g id="specs_3">
<path fill="#ff0000" fill-rule="evenodd" stroke="none" d="M 352.042 394.517 C 352.038 394.518 317.276 406.933 317.272 406.934 C 317.273 406.933 328.825 394.518 328.826 394.517 C 328.825 394.516 317.273 382.101 317.272 382.099 C 317.276 382.101 352.038 394.516 352.042 394.517 Z"/>
<path fill="#0000ff" fill-rule="evenodd" stroke="none" d="M 309.784 622.016 C 309.783 622.014 302.572 601.821 302.571 601.819 C 302.572 601.820 309.783 608.530 309.784 608.530 C 309.785 608.530 316.996 601.820 316.997 601.819 C 316.996 601.821 309.785 622.014 309.784 622.016 Z"/>
<path fill="#00ff00" fill-rule="evenodd" stroke="none" d="M 650.439 361.122 C 650.437 361.122 630.281 368.436 630.279 368.437 C 630.280 368.436 636.953 361.191 636.954 361.190 C 636.953 361.189 630.207 354.011 630.206 354.011 C 630.208 354.011 650.437 361.121 650.439 361.122 Z"/>
<path fill="#ffff00" fill-rule="evenodd" stroke="none" d="M 551.119 118.927 C 551.118 118.929 542.168 138.414 542.167 138.416 C 542.167 138.415 541.696 128.575 541.696 128.574 C 541.695 128.574 531.848 128.336 531.847 128.336 C 531.849 128.335 551.117 118.928 551.119 118.927 Z"/>
<path fill="#00ffff" fill-rule="evenodd" stroke="none" d="M 550.733 603.438 C 550.733 603.436 542.243 583.746 542.242 583.744 C 542.242 583.745 541.540 593.571 541.540 593.572 C 541.539 593.572 531.689 593.580 531.688 593.580 C 531.690 593.581 550.732 603.437 550.733 603.438 Z"/>
<path fill="#be0027" fill-rule="evenodd" stroke="none" d="M 306.096 394.342 C 306.100 394.343 340.863 406.758 340.866 406.759 C 340.865 406.758 329.313 394.343 329.312 394.342 C 329.313 394.341 340.865 381.926 340.866 381.924 C 340.863 381.926 306.100 394.341 306.096 394.342 Z"/>
<path fill="none" stroke="#ffff00" stroke-width="4" stroke-linecap="round" stroke-linejoin="round" d="M 328.948 459.432 C 328.976 433.359 328.995 398.734 329.038 362.983 C 329.037 348.974 329.037 334.871 329.023 320.329 "/>
</g>
</g>
</g>
</svg>
