<?xml version="1.0" encoding="utf-8"?>
<!-- Generator: Moho 12.5 build 22414 -->
<!DOCTYPE svg PUBLIC "-//W3C//DTD SVG 1.1//EN" "http://www.w3.org/Graphics/SVG/1.1/DTD/svg11.dtd">
<svg version="1.1" id="Frame_0" xmlns="http://www.w3.org/2000/svg" xmlns:xlink="http://www.w3.org/1999/xlink" width="720px" height="720px">
<g id="goat_head">
<g id="goat_head">
<path fill="#ffffff" fill-rule="evenodd" stroke="#000000" stroke-width="4" stroke-linejoin="round" d="M 328.362 582.058 C 328.364 582.060 338.114 596.000 340.064 609.022 C 341.534 618.838 335.412 621.374 337.906 631.072 C 340.813 642.377 347.632 641.717 352.752 652.208 C 357.659 662.261 359.998 675.873 359.999 675.876 C 360.000 675.872 370.845 658.615 372.150 642.900 C 372.591 637.591 369.926 635.452 371.035 629.458 C 373.235 617.559 379.858 617.316 383.568 605.797 C 387.006 595.125 387.001 581.227 387.001 581.227 C 387.001 581.227 328.368 582.057 328.362 582.058 Z"/>
<path fill="#ffffff" fill-rule="evenodd" stroke="none" d="M 277.564 82.383 C 330.059 127.159 350.370 242.100 350.297 243.076 C 350.299 243.076 369.698 243.076 369.700 243.076 C 369.707 243.060 389.796 127.427 442.513 82.383 C 495.560 37.058 560.847 14.536 639.416 62.223 C 706.298 102.817 712.795 209.818 712.803 209.833 C 712.794 209.824 681.676 148.196 630.022 126.035 C 566.331 98.710 512.879 112.776 486.237 156.832 C 472.558 179.453 459.866 256.761 459.864 256.771 C 459.865 256.773 475.840 271.607 475.842 271.609 C 475.847 271.606 513.631 247.818 528.342 244.217 C 542.802 240.678 571.827 246.422 586.549 244.217 C 599.518 242.275 626.302 220.160 635.626 229.380 C 648.629 242.239 619.044 281.667 605.951 294.435 C 591.242 308.779 546.248 310.677 531.766 325.250 C 525.601 331.455 523.091 349.857 516.929 356.066 C 511.411 361.624 489.540 369.760 489.537 369.762 C 489.537 369.769 496.027 427.113 487.255 443.947 C 481.209 455.549 453.908 464.606 447.309 475.903 C 441.041 486.636 445.933 513.315 439.320 523.838 C 435.778 529.474 422.510 534.306 418.776 539.817 C 413.693 547.320 414.404 566.343 409.646 574.056 C 404.542 582.329 390.283 595.938 381.113 599.165 C 376.156 600.909 365.824 599.165 360.569 599.165 C 355.023 599.165 344.113 601.015 338.884 599.165 C 329.721 595.921 315.455 582.329 310.352 574.056 C 305.593 566.343 306.305 547.320 301.221 539.817 C 297.487 534.306 284.219 529.474 280.677 523.838 C 274.064 513.315 278.957 486.636 272.688 475.903 C 266.089 464.606 239.834 457.556 232.742 443.947 C 222.452 424.201 230.460 369.769 230.460 369.762 C 230.457 369.760 208.586 361.624 203.068 356.066 C 196.906 349.857 194.396 331.455 188.231 325.250 C 173.749 310.677 128.755 308.779 114.046 294.435 C 100.953 281.667 71.368 242.239 84.371 229.380 C 93.695 220.160 120.480 242.275 133.448 244.217 C 148.171 246.422 177.195 240.678 191.655 244.217 C 206.366 247.818 244.150 271.606 244.155 271.609 C 244.157 271.607 260.132 256.773 260.133 256.771 C 260.531 255.802 247.508 179.454 233.840 156.832 C 207.216 112.765 153.747 98.710 90.056 126.035 C 38.402 148.195 7.283 209.824 7.274 209.833 C 7.282 209.818 13.779 102.817 80.661 62.223 C 159.230 14.536 224.478 37.103 277.564 82.383 M 266.982 390.305 C 276.502 399.147 308.064 404.000 308.069 404.001 C 308.067 403.997 303.798 370.132 295.514 362.913 C 287.048 355.536 252.149 356.066 252.145 356.066 C 252.146 356.069 258.779 382.687 266.982 390.305 M 453.015 390.305 C 443.495 399.147 411.933 404.000 411.929 404.001 C 411.930 403.997 416.199 370.132 424.483 362.913 C 432.949 355.536 467.848 356.066 467.852 356.066 C 467.851 356.069 461.218 382.687 453.015 390.305 Z"/>
<path fill="none" stroke="#000000" stroke-width="4" stroke-linejoin="round" d="M 277.564 82.383 C 330.059 127.159 350.370 242.100 350.297 243.076 C 350.299 243.076 369.698 243.076 369.700 243.076 C 369.707 243.060 389.796 127.427 442.513 82.383 C 495.560 37.058 560.847 14.536 639.416 62.223 C 706.298 102.817 712.795 209.818 712.803 209.833 C 712.794 209.824 681.676 148.196 630.022 126.035 C 566.331 98.710 512.879 112.776 486.237 156.832 C 472.558 179.453 459.866 256.761 459.864 256.771 C 459.865 256.773 475.840 271.607 475.842 271.609 C 475.847 271.606 513.631 247.818 528.342 244.217 C 542.802 240.678 571.827 246.422 586.549 244.217 C 599.518 242.275 626.302 220.160 635.626 229.380 C 648.629 242.239 619.044 281.667 605.951 294.435 C 591.242 308.779 546.248 310.677 531.766 325.250 C 525.601 331.455 523.091 349.857 516.929 356.066 C 511.411 361.624 489.540 369.760 489.537 369.762 C 489.537 369.769 496.027 427.113 487.255 443.947 C 481.209 455.549 453.908 464.606 447.309 475.903 C 441.041 486.636 445.933 513.315 439.320 523.838 C 435.778 529.474 422.510 534.306 418.776 539.817 C 413.693 547.320 414.404 566.343 409.646 574.056 C 404.542 582.329 390.283 595.938 381.113 599.165 C 376.156 600.909 365.824 599.165 360.569 599.165 C 355.023 599.165 344.113 601.015 338.884 599.165 C 329.721 595.921 315.455 582.329 310.352 574.056 C 305.593 566.343 306.305 547.320 301.221 539.817 C 297.487 534.306 284.219 529.474 280.677 523.838 C 274.064 513.315 278.957 486.636 272.688 475.903 C 266.089 464.606 239.834 457.556 232.742 443.947 C 222.452 424.201 230.460 369.769 230.460 369.762 C 230.457 369.760 208.586 361.624 203.068 356.066 C 196.906 349.857 194.396 331.455 188.231 325.250 C 173.749 310.677 128.755 308.779 114.046 294.435 C 100.953 281.667 71.368 242.239 84.371 229.380 C 93.695 220.160 120.480 242.275 133.448 244.217 C 148.171 246.422 177.195 240.678 191.655 244.217 C 206.366 247.818 244.150 271.606 244.155 271.609 C 244.157 271.607 260.132 256.773 260.133 256.771 C 260.531 255.802 247.508 179.454 233.840 156.832 C 207.216 112.765 153.747 98.710 90.056 126.035 C 38.402 148.195 7.283 209.824 7.274 209.833 C 7.282 209.818 13.779 102.817 80.661 62.223 C 159.230 14.536 224.478 37.103 277.564 82.383 M 416.999 353.863 C 427.272 345.060 451.504 346.587 468.756 342.949 M 383.396 482.751 C 377.995 449.116 391.130 376.028 416.999 353.863 M 398.232 511.284 C 398.249 503.059 384.700 490.872 383.396 482.751 M 383.999 538.675 C 401.600 546.217 398.217 519.179 398.232 511.284 M 387.961 512.425 C 404.061 517.669 368.862 532.189 383.999 538.675 M 377.689 538.675 C 382.568 533.368 370.866 506.858 387.961 512.425 M 362.852 546.665 C 365.605 543.349 374.772 541.848 377.689 538.675 M 359.522 555.795 C 362.003 555.937 361.264 548.577 362.852 546.665 M 357.146 546.665 C 358.589 548.599 357.113 555.658 359.522 555.795 M 342.308 538.675 C 345.225 541.848 354.568 543.211 357.146 546.665 M 332.036 512.425 C 349.132 506.858 337.429 533.368 342.308 538.675 M 335.998 538.675 C 351.135 532.189 315.937 517.669 332.036 512.425 M 321.765 511.284 C 321.780 519.179 318.397 546.217 335.998 538.675 M 336.602 482.751 C 335.298 490.872 321.749 503.059 321.765 511.284 M 302.999 353.863 C 328.689 376.235 342.003 449.116 336.602 482.751 M 249.124 341.908 C 249.130 341.909 292.355 344.594 302.999 353.863 M 311.493 265.902 C 335.566 261.744 350.244 243.069 350.248 243.066 M 260.291 256.879 C 260.296 256.880 285.075 270.465 311.493 265.902 M 266.982 390.305 C 276.502 399.147 308.064 404.000 308.069 404.001 C 308.067 403.997 303.798 370.132 295.514 362.913 C 287.048 355.536 252.149 356.066 252.145 356.066 C 252.146 356.069 258.779 382.687 266.982 390.305 M 408.504 265.902 C 387.373 260.706 370.153 243.468 370.149 243.466 M 459.706 256.879 C 459.701 256.880 432.705 271.852 408.504 265.902 M 453.015 390.305 C 443.495 399.147 411.933 404.000 411.929 404.001 C 411.930 403.997 416.199 370.132 424.483 362.913 C 432.949 355.536 467.848 356.066 467.852 356.066 C 467.851 356.069 461.218 382.687 453.015 390.305 "/>
<path fill="none" stroke="#000000" stroke-width="4" stroke-linejoin="round" d="M 302.363 515.849 C 302.363 515.850 309.016 519.429 310.352 521.556 C 314.244 527.756 309.386 543.528 312.634 550.089 C 315.936 556.758 327.416 566.710 334.319 569.491 C 340.552 572.002 353.849 570.640 360.569 570.632 C 366.998 570.624 379.714 571.890 385.678 569.491 C 392.582 566.714 404.061 556.758 407.363 550.089 C 410.611 543.528 405.753 527.756 409.646 521.556 C 410.981 519.429 417.634 515.850 417.635 515.849 M 238.449 354.924 C 238.445 354.916 214.052 292.630 196.220 279.598 C 180.781 268.314 140.548 271.615 123.176 263.619 C 116.703 260.640 100.353 247.642 100.350 247.641 M 481.548 354.924 C 481.553 354.916 505.946 292.630 523.777 279.598 C 539.216 268.314 579.449 271.615 596.821 263.619 C 603.294 260.640 619.645 247.642 619.647 247.641 "/>
<path fill="none" stroke="#000000" stroke-width="4" stroke-linejoin="round" d="M 466.297 225.389 C 466.292 225.390 439.296 240.362 415.095 234.412 C 393.964 229.216 376.744 211.978 376.740 211.976 "/>
<path fill="none" stroke="#000000" stroke-width="4" stroke-linejoin="round" d="M 474.184 193.211 C 474.180 193.211 447.550 203.479 425.549 195.679 C 405.540 188.585 389.980 170.906 389.977 170.903 "/>
<path fill="none" stroke="#000000" stroke-width="4" stroke-linejoin="round" d="M 481.312 167.617 C 481.308 167.616 457.752 169.250 439.773 159.472 C 421.004 149.264 407.968 129.616 407.965 129.613 "/>
<path fill="none" stroke="#000000" stroke-width="4" stroke-linejoin="round" d="M 494.973 146.688 C 494.970 146.686 475.041 136.233 462.100 120.978 C 449.004 105.540 438.219 87.242 438.216 87.238 "/>
<path fill="none" stroke="#000000" stroke-width="4" stroke-linejoin="round" d="M 515.174 126.484 C 515.172 126.481 503.403 109.070 495.235 91.652 C 487.116 74.342 477.448 56.902 477.447 56.898 "/>
<path fill="none" stroke="#000000" stroke-width="4" stroke-linejoin="round" d="M 543.735 115.205 C 543.734 115.201 537.296 95.535 532.691 76.077 C 528.202 57.108 520.259 38.268 520.258 38.264 "/>
<path fill="none" stroke="#000000" stroke-width="4" stroke-linejoin="round" d="M 569.625 111.876 C 569.625 111.872 574.810 92.337 573.796 74.191 C 572.733 55.158 565.247 37.374 565.246 37.371 "/>
<path fill="none" stroke="#000000" stroke-width="4" stroke-linejoin="round" d="M 596.453 115.075 C 596.454 115.072 606.410 100.988 611.716 86.307 C 617.850 69.337 614.845 49.597 614.845 49.593 "/>
<path fill="none" stroke="#000000" stroke-width="4" stroke-linejoin="round" d="M 621.800 121.463 C 621.802 121.461 634.615 111.726 642.508 99.670 C 650.708 87.145 651.039 70.318 651.040 70.315 "/>
<path fill="none" stroke="#000000" stroke-width="4" stroke-linejoin="round" d="M 643.132 131.720 C 643.134 131.718 657.111 127.090 666.960 118.516 C 674.656 111.816 677.717 100.674 677.719 100.672 "/>
<path fill="none" stroke="#000000" stroke-width="4" stroke-linejoin="round" d="M 665.485 148.225 C 665.487 148.224 675.291 148.381 682.685 144.272 C 690.992 139.656 694.577 128.939 694.578 128.938 "/>
<path fill="none" stroke="#000000" stroke-width="4" stroke-linejoin="round" d="M 683.120 167.201 C 683.121 167.200 688.812 166.368 693.736 164.568 C 699.219 162.564 703.728 158.072 703.729 158.071 "/>
<path fill="none" stroke="#000000" stroke-width="4" stroke-linejoin="round" d="M 697.430 185.931 C 697.431 185.931 701.225 186.459 704.398 185.383 C 707.257 184.414 709.178 181.493 709.179 181.492 "/>
<path fill="none" stroke="#000000" stroke-width="4" stroke-linejoin="round" d="M 254.534 225.389 C 254.539 225.390 281.536 240.362 305.737 234.412 C 326.868 229.216 344.088 211.978 344.091 211.976 "/>
<path fill="none" stroke="#000000" stroke-width="4" stroke-linejoin="round" d="M 246.647 193.211 C 246.652 193.211 273.281 203.479 295.282 195.679 C 315.291 188.585 330.851 170.906 330.855 170.903 "/>
<path fill="none" stroke="#000000" stroke-width="4" stroke-linejoin="round" d="M 239.520 167.617 C 239.524 167.616 263.079 169.250 281.059 159.472 C 299.828 149.264 312.864 129.616 312.867 129.613 "/>
<path fill="none" stroke="#000000" stroke-width="4" stroke-linejoin="round" d="M 225.858 146.688 C 225.862 146.686 245.791 136.233 258.732 120.978 C 271.827 105.540 282.613 87.242 282.615 87.238 "/>
<path fill="none" stroke="#000000" stroke-width="4" stroke-linejoin="round" d="M 205.658 126.484 C 205.660 126.480 217.428 109.070 225.597 91.652 C 233.716 74.342 243.383 56.902 243.385 56.898 "/>
<path fill="none" stroke="#000000" stroke-width="4" stroke-linejoin="round" d="M 177.097 115.205 C 177.098 115.201 183.536 95.534 188.140 76.077 C 192.630 57.108 200.573 38.268 200.574 38.264 "/>
<path fill="none" stroke="#000000" stroke-width="4" stroke-linejoin="round" d="M 151.206 111.876 C 151.206 111.872 146.022 92.337 147.036 74.191 C 148.099 55.158 155.585 37.375 155.586 37.371 "/>
<path fill="none" stroke="#000000" stroke-width="4" stroke-linejoin="round" d="M 124.379 115.074 C 124.378 115.072 114.422 100.988 109.116 86.307 C 102.982 69.337 105.986 49.597 105.986 49.594 "/>
<path fill="none" stroke="#000000" stroke-width="4" stroke-linejoin="round" d="M 99.031 121.463 C 99.029 121.460 86.216 111.726 78.324 99.670 C 70.123 87.145 69.793 70.318 69.792 70.315 "/>
<path fill="none" stroke="#000000" stroke-width="4" stroke-linejoin="round" d="M 77.700 131.720 C 77.697 131.718 63.720 127.090 53.872 118.516 C 46.176 111.816 43.114 100.674 43.113 100.672 "/>
<path fill="none" stroke="#000000" stroke-width="4" stroke-linejoin="round" d="M 55.346 148.225 C 55.345 148.224 45.540 148.381 38.146 144.272 C 29.839 139.656 26.255 128.939 26.254 128.938 "/>
<path fill="none" stroke="#000000" stroke-width="4" stroke-linejoin="round" d="M 37.711 167.201 C 37.710 167.200 32.019 166.368 27.095 164.568 C 21.613 162.564 17.103 158.072 17.102 158.071 "/>
<path fill="none" stroke="#000000" stroke-width="4" stroke-linejoin="round" d="M 23.401 185.931 C 23.401 185.931 19.607 186.459 16.434 185.383 C 13.575 184.414 11.653 181.493 11.653 181.492 "/>
</g>
<g id="specs_2">
<path fill="#ff00ff" fill-rule="evenodd" stroke="none" d="M 309.164 357.079 C 309.174 357.079 410.826 357.079 410.836 357.079 C 410.836 357.069 410.836 255.417 410.836 255.407 C 410.826 255.407 309.174 255.407 309.164 255.407 C 309.164 255.417 309.164 357.069 309.164 357.079 Z"/>
<path fill="#ff0000" fill-rule="evenodd" stroke="none" d="M 360.000 680.931 C 360.001 680.934 372.432 715.740 372.433 715.743 C 372.432 715.742 360.001 704.176 360.000 704.175 C 359.999 704.176 347.568 715.742 347.567 715.743 C 347.568 715.740 359.999 680.934 360.000 680.931 Z"/>
<path fill="#0000ff" fill-rule="evenodd" stroke="none" d="M 360.000 229.156 C 360.001 229.158 367.221 249.376 367.222 249.378 C 367.221 249.377 360.001 242.659 360.000 242.659 C 359.999 242.659 352.779 249.377 352.778 249.378 C 352.779 249.376 359.999 229.158 360.000 229.156 Z"/>
<path fill="#00ff00" fill-rule="evenodd" stroke="none" d="M 82.700 263.513 C 82.702 263.512 102.884 256.189 102.886 256.188 C 102.885 256.189 96.203 263.444 96.203 263.445 C 96.203 263.445 102.958 270.632 102.958 270.633 C 102.956 270.632 82.702 263.513 82.700 263.513 Z"/>
<path fill="#ffff00" fill-rule="evenodd" stroke="none" d="M 228.613 456.808 C 228.613 456.806 237.574 437.297 237.575 437.295 C 237.575 437.296 238.047 447.147 238.047 447.148 C 238.048 447.148 247.908 447.387 247.908 447.387 C 247.907 447.388 228.615 456.807 228.613 456.808 Z"/>
<path fill="#ffff00" fill-rule="evenodd" stroke="none" d="M 490.890 456.569 C 490.889 456.567 481.539 437.241 481.539 437.239 C 481.538 437.240 481.264 447.099 481.264 447.100 C 481.263 447.100 471.410 447.537 471.409 447.537 C 471.411 447.538 490.888 456.568 490.890 456.569 Z"/>
<path fill="#00ff00" fill-rule="evenodd" stroke="none" d="M 637.435 263.513 C 637.433 263.512 617.252 256.189 617.250 256.188 C 617.250 256.189 623.932 263.444 623.933 263.445 C 623.932 263.445 617.177 270.632 617.177 270.633 C 617.179 270.632 637.433 263.513 637.435 263.513 Z"/>
<path fill="#00ffff" fill-rule="evenodd" stroke="none" d="M 601.361 33.891 C 601.361 33.893 594.193 54.130 594.193 54.132 C 594.193 54.131 592.835 44.362 592.835 44.361 C 592.834 44.361 582.993 45.011 582.992 45.011 C 582.994 45.010 601.359 33.892 601.361 33.891 Z"/>
<path fill="#00ffff" fill-rule="evenodd" stroke="none" d="M 118.750 34.562 C 118.751 34.564 127.252 54.278 127.253 54.280 C 127.253 54.279 127.956 44.441 127.956 44.440 C 127.957 44.440 137.819 44.432 137.820 44.432 C 137.818 44.431 118.752 34.563 118.750 34.562 Z"/>
<path fill="#be0027" fill-rule="evenodd" stroke="none" d="M 360.000 687.143 C 360.001 687.140 372.432 652.334 372.433 652.330 C 372.432 652.332 360.001 663.897 360.000 663.899 C 359.999 663.897 347.568 652.332 347.567 652.330 C 347.568 652.334 359.999 687.140 360.000 687.143 Z"/>
</g>
</g>
</svg>
