<?xml version="1.0" encoding="utf-8"?>
<!-- Generator: Moho 12.5 build 22414 -->
<!DOCTYPE svg PUBLIC "-//W3C//DTD SVG 1.1//EN" "http://www.w3.org/Graphics/SVG/1.1/DTD/svg11.dtd">
<svg version="1.1" id="Frame_0" xmlns="http://www.w3.org/2000/svg" xmlns:xlink="http://www.w3.org/1999/xlink" width="720px" height="720px">
<g id="halves">
<g id="goat_fore">
<g id="goat_fore">
<path fill="#ffffff" fill-rule="evenodd" stroke="none" d="M 329.190 320.648 C 329.162 346.721 329.143 381.346 329.100 417.097 C 329.101 431.326 329.101 445.650 329.115 460.421 C 293.052 464.574 245.783 453.087 245.775 453.086 C 245.776 453.082 255.552 409.041 255.553 409.037 C 255.552 409.041 246.333 451.701 244.329 453.684 C 234.997 462.920 219.400 455.321 215.919 455.670 C 180.561 459.217 141.934 457.568 142.436 463.348 C 144.055 481.961 145.702 487.521 162.365 493.665 C 168.385 495.885 174.025 521.822 174.026 521.825 C 174.024 521.824 160.895 509.012 153.460 511.062 C 147.372 512.741 144.015 522.097 142.942 526.892 C 141.560 533.066 138.852 548.068 146.986 551.028 C 153.054 553.236 161.904 540.507 161.905 540.506 C 161.908 540.512 190.609 554.701 186.065 599.335 C 185.911 600.848 171.935 579.222 171.933 579.220 C 171.933 579.222 175.649 591.129 170.923 601.428 C 170.675 601.968 167.882 586.518 134.007 572.660 C 129.371 570.763 128.923 556.636 127.588 548.935 C 125.333 535.929 113.182 531.159 117.348 525.352 C 130.898 506.462 119.409 448.485 126.871 440.775 C 132.309 435.156 166.451 433.135 166.455 433.134 C 166.459 433.134 202.132 428.970 202.136 428.970 C 202.132 428.970 165.530 431.754 165.526 431.754 C 165.523 431.753 139.673 421.751 132.987 418.644 C 127.850 416.257 111.690 404.930 109.130 406.094 C 69.680 424.028 104.268 455.911 76.530 470.120 C 75.640 470.575 80.200 460.560 79.406 457.680 C 78.502 454.400 70.970 441.742 69.182 447.336 C 62.429 468.459 44.792 453.753 46.315 468.685 C 47.535 480.641 66.946 482.886 66.948 482.887 C 66.944 482.892 64.646 513.542 28.011 534.804 C 26.680 535.576 37.744 505.604 37.745 505.601 C 37.743 505.602 27.676 520.100 16.113 519.662 C 14.360 519.595 26.280 509.428 19.428 476.409 C 16.808 463.781 35.294 455.503 38.685 448.476 C 40.562 444.587 41.777 431.749 44.457 430.606 C 72.538 418.640 101.091 383.097 108.707 382.593 C 112.765 382.324 147.434 400.669 147.438 400.671 C 147.440 400.672 169.703 416.634 169.705 416.635 C 169.708 416.636 201.989 427.797 201.992 427.798 C 201.989 427.797 169.557 416.644 169.554 416.642 C 169.552 416.641 151.639 403.534 151.637 403.533 C 151.636 403.527 126.724 376.164 132.783 340.608 C 145.698 264.822 161.125 233.928 156.840 210.464 C 156.740 209.913 170.931 210.546 175.882 209.141 C 180.148 207.931 190.487 201.584 190.488 201.583 C 190.487 201.584 180.248 207.159 176.097 208.130 C 170.718 209.389 155.614 208.587 155.612 208.587 C 155.610 208.587 129.922 200.251 130.748 202.372 C 134.038 210.828 115.061 214.603 114.299 220.493 C 113.670 225.346 120.603 234.389 120.603 234.390 C 120.602 234.390 107.952 231.146 105.548 228.419 C 98.459 220.378 104.814 214.143 104.814 214.142 C 104.813 214.142 99.783 216.828 96.283 215.642 C 92.311 214.295 89.736 208.309 89.735 208.309 C 89.738 208.307 116.341 187.952 116.344 187.950 C 116.340 187.951 89.495 196.124 79.214 194.397 C 69.719 192.803 66.140 173.748 70.161 165.758 C 84.509 137.246 157.587 110.995 157.596 110.989 C 157.599 110.983 148.405 80.296 190.363 46.406 C 171.775 94.567 183.575 106.915 183.575 106.921 C 183.576 106.918 183.902 89.242 194.567 72.157 C 202.759 59.033 220.804 48.300 220.806 48.298 C 220.805 48.302 209.497 74.187 207.906 87.217 C 206.001 102.820 212.315 111.174 212.315 111.177 C 212.317 111.178 218.469 114.044 228.232 125.671 C 230.443 128.304 257.466 145.215 274.565 148.421 C 322.181 157.351 335.406 145.214 349.884 147.735 C 362.064 149.857 330.601 196.899 277.420 184.362 C 250.274 177.962 234.888 155.515 234.884 155.512 C 234.884 155.515 237.090 172.658 231.859 184.565 C 226.213 197.417 224.521 244.634 235.161 276.737 C 241.346 295.397 269.392 322.592 329.190 320.648 M 156.343 150.925 C 155.824 144.122 160.893 138.216 167.695 137.697 C 174.497 137.179 180.403 142.247 180.922 149.049 C 181.441 155.852 176.372 161.758 169.570 162.276 C 162.768 162.795 156.862 157.727 156.343 150.925 M 133.776 156.754 C 133.780 156.751 141.441 136.410 168.049 130.563 C 182.471 127.394 208.554 145.348 208.558 145.350 C 208.554 145.352 189.644 169.162 172.224 171.698 C 148.097 175.210 133.780 156.756 133.776 156.754 M 83.002 176.344 C 83.002 176.343 81.373 166.221 90.340 163.866 C 97.091 162.093 98.572 165.738 100.045 168.826 C 101.335 171.530 93.561 171.914 88.237 173.008 C 84.343 173.809 83.002 176.344 83.002 176.344 Z"/>
<path fill="none" stroke="#000000" stroke-width="4" stroke-linecap="round" stroke-linejoin="round" d="M 151.631 579.972 C 151.632 579.970 159.006 574.814 160.794 568.847 C 163.450 559.983 157.782 547.653 157.782 547.650 M 329.190 320.648 C 329.162 346.721 329.143 381.346 329.100 417.097 C 329.101 431.326 329.101 445.650 329.115 460.421 C 293.052 464.574 245.783 453.087 245.775 453.086 C 245.776 453.082 255.552 409.041 255.553 409.037 C 255.552 409.041 246.333 451.701 244.329 453.684 C 234.997 462.920 219.400 455.321 215.919 455.670 C 180.561 459.217 141.934 457.568 142.436 463.348 C 144.055 481.961 145.702 487.521 162.365 493.665 C 168.385 495.885 174.025 521.822 174.026 521.825 C 174.024 521.824 160.895 509.012 153.460 511.062 C 147.372 512.741 144.015 522.097 142.942 526.892 C 141.560 533.066 138.852 548.068 146.986 551.028 C 153.054 553.236 161.904 540.507 161.905 540.506 C 161.908 540.512 190.609 554.701 186.065 599.335 C 185.911 600.848 171.935 579.222 171.933 579.220 C 171.933 579.222 175.649 591.129 170.923 601.428 C 170.675 601.968 167.882 586.518 134.007 572.660 C 129.371 570.763 128.923 556.636 127.588 548.935 C 125.333 535.929 113.182 531.159 117.348 525.352 C 130.898 506.462 119.409 448.485 126.871 440.775 C 132.309 435.156 166.451 433.135 166.455 433.134 C 166.459 433.134 202.132 428.970 202.136 428.970 C 202.132 428.970 165.530 431.754 165.526 431.754 C 165.523 431.753 139.673 421.751 132.987 418.644 C 127.850 416.257 111.690 404.930 109.130 406.094 C 69.680 424.028 104.268 455.911 76.530 470.120 C 75.640 470.575 80.200 460.560 79.406 457.680 C 78.502 454.400 70.970 441.742 69.182 447.336 C 62.429 468.459 44.792 453.753 46.315 468.685 C 47.535 480.641 66.946 482.886 66.948 482.887 C 66.944 482.892 64.646 513.542 28.011 534.804 C 26.680 535.576 37.744 505.604 37.745 505.601 C 37.743 505.602 27.676 520.100 16.113 519.662 C 14.360 519.595 26.280 509.428 19.428 476.409 C 16.808 463.781 35.294 455.503 38.685 448.476 C 40.562 444.587 41.777 431.749 44.457 430.606 C 72.538 418.640 101.091 383.097 108.707 382.593 C 112.765 382.324 147.434 400.669 147.438 400.671 C 147.440 400.672 169.703 416.634 169.705 416.635 C 169.708 416.636 201.989 427.797 201.992 427.798 C 201.989 427.797 169.557 416.644 169.554 416.642 C 169.552 416.641 151.639 403.534 151.637 403.533 C 151.636 403.527 126.724 376.164 132.783 340.608 C 145.698 264.822 161.125 233.928 156.840 210.464 C 156.740 209.913 170.931 210.546 175.882 209.141 C 180.148 207.931 190.487 201.584 190.488 201.583 C 190.487 201.584 180.248 207.159 176.097 208.130 C 170.718 209.389 155.614 208.587 155.612 208.587 C 155.610 208.587 129.922 200.251 130.748 202.372 C 134.038 210.828 115.061 214.603 114.299 220.493 C 113.670 225.346 120.603 234.389 120.603 234.390 C 120.602 234.390 107.952 231.146 105.548 228.419 C 98.459 220.378 104.814 214.143 104.814 214.142 C 104.813 214.142 99.783 216.828 96.283 215.642 C 92.311 214.295 89.736 208.309 89.735 208.309 C 89.738 208.307 116.341 187.952 116.344 187.950 C 116.340 187.951 89.495 196.124 79.214 194.397 C 69.719 192.803 66.140 173.748 70.161 165.758 C 84.509 137.246 157.587 110.995 157.596 110.989 C 157.599 110.983 148.405 80.296 190.363 46.406 C 171.775 94.567 183.575 106.915 183.575 106.921 C 183.576 106.918 183.902 89.242 194.567 72.157 C 202.759 59.033 220.804 48.300 220.806 48.298 C 220.805 48.302 209.497 74.187 207.906 87.217 C 206.001 102.820 212.315 111.174 212.315 111.177 C 212.317 111.178 218.469 114.044 228.232 125.671 C 230.443 128.304 257.466 145.215 274.565 148.421 C 322.181 157.351 335.406 145.214 349.884 147.735 C 362.064 149.857 330.601 196.899 277.420 184.362 C 250.274 177.962 234.888 155.515 234.884 155.512 C 234.884 155.515 237.090 172.658 231.859 184.565 C 226.213 197.417 224.521 244.634 235.161 276.737 C 241.346 295.397 269.392 322.592 329.190 320.648 M 170.263 111.122 C 162.818 112.157 162.247 111.268 158.240 111.341 M 182.579 106.942 C 182.577 106.942 176.122 110.306 170.263 111.122 M 196.216 111.999 C 203.698 113.310 211.975 111.411 211.977 111.411 M 184.853 107.821 C 184.854 107.821 188.537 110.654 196.216 111.999 M 38.432 490.801 C 45.795 489.176 54.118 480.998 54.120 480.997 M 23.921 489.232 C 23.922 489.233 32.622 492.084 38.432 490.801 M 318.971 417.817 C 322.399 417.714 325.938 417.447 329.100 417.097 M 255.089 407.658 C 255.095 407.659 291.848 418.636 318.971 417.817 M 208.642 390.401 C 208.641 390.405 204.312 427.587 204.312 427.591 M 169.031 342.162 C 168.921 381.900 208.638 390.396 208.642 390.401 M 183.809 208.121 C 184.693 252.757 169.223 272.434 169.031 342.162 M 285.933 163.199 C 306.002 165.790 324.897 158.169 344.380 155.654 M 231.331 141.065 C 231.337 141.067 265.868 160.609 285.933 163.199 M 156.343 150.925 C 155.824 144.122 160.893 138.216 167.695 137.697 C 174.497 137.179 180.403 142.247 180.922 149.049 C 181.441 155.852 176.372 161.758 169.570 162.276 C 162.768 162.795 156.862 157.727 156.343 150.925 M 133.776 156.754 C 133.780 156.751 141.441 136.410 168.049 130.563 C 182.471 127.394 208.554 145.348 208.558 145.350 C 208.554 145.352 189.644 169.162 172.224 171.698 C 148.097 175.210 133.780 156.756 133.776 156.754 M 83.002 176.344 C 83.002 176.343 81.373 166.221 90.340 163.866 C 97.091 162.093 98.572 165.738 100.045 168.826 C 101.335 171.530 93.561 171.914 88.237 173.008 C 84.343 173.809 83.002 176.344 83.002 176.344 "/>
<path fill="none" stroke="#ffffff" stroke-width="4" stroke-linecap="round" stroke-linejoin="round" d="M 329.190 320.648 C 329.162 346.721 329.143 381.346 329.100 417.097 C 329.101 431.107 329.101 445.209 329.115 459.751 "/>
</g>
<g id="specs_2">
<path fill="#ff0000" fill-rule="evenodd" stroke="none" d="M 306.096 385.244 C 306.100 385.243 340.862 372.828 340.866 372.826 C 340.865 372.828 329.313 385.243 329.312 385.244 C 329.313 385.245 340.865 397.660 340.866 397.661 C 340.862 397.660 306.100 385.245 306.096 385.244 Z"/>
<path fill="#0000ff" fill-rule="evenodd" stroke="none" d="M 360.000 61.174 C 360.001 61.176 367.212 81.369 367.213 81.371 C 367.212 81.370 360.001 74.661 360.000 74.660 C 359.999 74.661 352.788 81.370 352.787 81.371 C 352.788 81.369 359.999 61.176 360.000 61.174 Z"/>
<path fill="#00ff00" fill-rule="evenodd" stroke="none" d="M 19.345 360.684 C 19.347 360.683 39.503 353.370 39.505 353.369 C 39.504 353.370 32.831 360.615 32.830 360.616 C 32.831 360.617 39.577 367.794 39.578 367.795 C 39.576 367.794 19.347 360.685 19.345 360.684 Z"/>
<path fill="#ffff00" fill-rule="evenodd" stroke="none" d="M 118.665 602.879 C 118.666 602.877 127.616 583.392 127.617 583.390 C 127.617 583.391 128.088 593.230 128.088 593.231 C 128.089 593.231 137.936 593.470 137.937 593.470 C 137.935 593.471 118.667 602.878 118.665 602.879 Z"/>
<path fill="#00ffff" fill-rule="evenodd" stroke="none" d="M 119.051 118.368 C 119.051 118.370 127.541 138.059 127.542 138.061 C 127.542 138.060 128.244 128.235 128.244 128.234 C 128.245 128.234 138.095 128.226 138.096 128.226 C 138.094 128.225 119.052 118.369 119.051 118.368 Z"/>
<path fill="#be0027" fill-rule="evenodd" stroke="none" d="M 352.042 385.419 C 352.038 385.418 317.276 373.003 317.272 373.001 C 317.273 373.003 328.825 385.418 328.826 385.419 C 328.825 385.420 317.273 397.835 317.272 397.836 C 317.276 397.835 352.038 385.420 352.042 385.419 Z"/>
<path fill="none" stroke="#ffff00" stroke-width="4" stroke-linecap="round" stroke-linejoin="round" d="M 329.190 320.329 C 329.162 346.402 329.143 381.027 329.100 416.778 C 329.101 430.787 329.101 444.889 329.115 459.432 "/>
</g>
</g>
</g>
</svg>
