<?xml version="1.0" encoding="utf-8"?>
<!-- Generator: Moho 12.3 build 22017 -->
<!DOCTYPE svg PUBLIC "-//W3C//DTD SVG 1.1//EN" "http://www.w3.org/Graphics/SVG/1.1/DTD/svg11.dtd">
<svg version="1.1" id="Frame_0" xmlns="http://www.w3.org/2000/svg" xmlns:xlink="http://www.w3.org/1999/xlink" width="720px" height="720px">
<g id="goat_horn">
<g id="goat_horn">
<path fill="#ffffff" fill-rule="evenodd" stroke="#000000" stroke-width="6" stroke-linecap="round" stroke-linejoin="round" d="M 221.134 299.979 C 221.133 299.988 212.663 400.108 212.662 400.119 C 212.665 400.131 236.524 500.094 236.526 500.104 C 236.533 500.118 296.714 610.391 296.720 610.401 C 296.738 610.420 386.167 704.797 386.174 704.805 C 386.184 704.803 432.927 702.212 480.277 680.365 C 549.041 648.639 571.009 608.535 571.018 608.528 C 571.010 608.523 495.828 566.458 474.848 549.425 C 463.912 540.547 410.963 486.634 398.187 467.307 C 389.132 453.608 368.076 414.775 358.353 387.409 C 350.064 364.078 344.420 336.636 341.177 307.552 C 337.960 278.703 336.852 252.646 338.292 230.118 C 340.017 203.144 345.676 172.247 351.263 152.790 C 356.705 133.839 370.466 109.447 377.383 98.565 C 400.530 62.149 439.164 26.480 439.165 26.471 C 439.162 26.477 347.469 85.315 347.452 85.326 C 347.446 85.332 292.831 141.998 292.824 142.005 C 292.820 142.013 247.842 217.213 247.837 217.222 C 247.834 217.231 221.136 299.971 221.134 299.979 Z"/>
<path fill="none" stroke="#000000" stroke-width="4" stroke-linecap="round" stroke-linejoin="round" d="M 347.452 85.326 C 347.453 85.327 348.950 94.301 357.553 98.643 C 367.759 103.795 377.381 98.565 377.383 98.565 C 400.530 62.149 439.164 26.480 439.165 26.471 C 439.162 26.477 347.469 85.315 347.452 85.326 C 347.446 85.332 292.831 141.998 292.824 142.005 C 292.827 142.006 307.457 155.308 321.141 158.370 C 336.502 161.808 351.260 152.791 351.263 152.790 C 356.705 133.839 370.466 109.447 377.383 98.565 M 247.837 217.222 C 247.842 217.224 265.411 231.832 293.556 235.457 C 319.318 238.776 338.288 230.118 338.292 230.118 C 340.017 203.144 345.676 172.247 351.263 152.790 M 296.720 610.401 C 296.730 610.400 343.744 616.665 400.290 595.692 C 450.173 577.190 474.840 549.430 474.848 549.425 C 463.912 540.547 410.963 486.634 398.187 467.307 C 398.180 467.311 373.995 491.760 330.430 502.217 C 277.774 514.857 236.535 500.105 236.526 500.104 C 236.533 500.118 296.714 610.391 296.720 610.401 C 296.738 610.420 386.167 704.797 386.174 704.805 C 386.184 704.803 432.927 702.212 480.277 680.365 C 549.041 648.639 571.009 608.535 571.018 608.528 C 571.010 608.523 495.828 566.458 474.848 549.425 M 212.662 400.119 C 212.671 400.120 247.265 419.665 295.087 413.847 C 334.329 409.072 358.347 387.411 358.353 387.409 C 350.064 364.078 344.420 336.636 341.177 307.552 C 341.172 307.553 316.936 317.503 283.257 315.743 C 246.356 313.815 221.140 299.981 221.134 299.979 C 221.136 299.971 247.834 217.231 247.837 217.222 C 247.842 217.213 292.820 142.013 292.824 142.005 M 341.177 307.552 C 337.960 278.703 336.852 252.646 338.292 230.118 M 398.187 467.307 C 389.132 453.608 368.076 414.775 358.353 387.409 M 212.662 400.119 C 212.665 400.131 236.524 500.094 236.526 500.104 M 221.134 299.979 C 221.133 299.988 212.663 400.108 212.662 400.119 "/>
</g>
<g id="specs_2">
<path fill="#ff0000" fill-rule="evenodd" stroke="none" d="M 451.199 633.092 C 457.895 630.684 465.239 634.143 467.647 640.838 C 470.055 647.534 466.596 654.878 459.901 657.286 C 453.205 659.694 445.861 656.235 443.453 649.540 C 441.045 642.844 444.503 635.500 451.199 633.092 Z"/>
<path fill="#ffff00" fill-rule="evenodd" stroke="none" d="M 526.612 643.578 C 524.204 636.883 527.662 629.539 534.358 627.131 C 541.053 624.723 548.397 628.181 550.806 634.877 C 553.214 641.572 549.755 648.916 543.060 651.325 C 536.364 653.733 529.020 650.274 526.612 643.578 M 339.786 662.292 C 337.378 655.596 340.837 648.252 347.532 645.844 C 354.228 643.436 361.572 646.895 363.980 653.590 C 366.388 660.286 362.930 667.630 356.234 670.038 C 349.538 672.446 342.194 668.987 339.786 662.292 Z"/>
<path fill="#00ff00" fill-rule="evenodd" stroke="none" d="M 208.836 436.766 C 206.428 430.071 209.886 422.727 216.582 420.319 C 223.278 417.911 230.622 421.369 233.030 428.065 C 235.438 434.760 231.979 442.104 225.284 444.513 C 218.588 446.921 211.244 443.462 208.836 436.766 M 358.401 429.042 C 355.993 422.346 359.452 415.002 366.147 412.594 C 372.843 410.186 380.187 413.644 382.595 420.340 C 385.003 427.036 381.544 434.380 374.849 436.788 C 368.153 439.196 360.809 435.737 358.401 429.042 Z"/>
<path fill="#00ffff" fill-rule="evenodd" stroke="none" d="M 336.748 179.567 C 343.444 177.159 350.788 180.618 353.196 187.313 C 355.604 194.009 352.146 201.353 345.450 203.761 C 338.754 206.169 331.410 202.711 329.002 196.015 C 326.594 189.320 330.053 181.975 336.748 179.567 Z"/>
<path fill="#00ffff" fill-rule="evenodd" stroke="none" d="M 268.584 165.879 C 275.279 163.470 282.623 166.929 285.031 173.625 C 287.439 180.320 283.981 187.664 277.285 190.072 C 270.590 192.481 263.246 189.022 260.837 182.326 C 258.429 175.631 261.888 168.287 268.584 165.879 Z"/>
<path fill="#0000ff" fill-rule="evenodd" stroke="none" d="M 435.304 15.189 C 442.000 12.781 449.344 16.239 451.752 22.935 C 454.160 29.630 450.701 36.974 444.006 39.382 C 437.310 41.791 429.966 38.332 427.558 31.636 C 425.150 24.941 428.608 17.597 435.304 15.189 Z"/>
</g>
</g>
</svg>
