<?xml version="1.0" encoding="utf-8"?>
<!-- Generator: Moho 12.5 build 22414 -->
<!DOCTYPE svg PUBLIC "-//W3C//DTD SVG 1.1//EN" "http://www.w3.org/Graphics/SVG/1.1/DTD/svg11.dtd">
<svg version="1.1" id="Frame_0" xmlns="http://www.w3.org/2000/svg" xmlns:xlink="http://www.w3.org/1999/xlink" width="720px" height="720px">
<g id="goddess">
<g id="goddess">
<path fill="#000000" fill-rule="evenodd" stroke="none" d="M 313.493 381.917 C 315.645 373.420 350.868 374.234 359.634 374.227 C 368.131 374.221 402.185 373.359 404.378 381.567 C 407.008 391.414 369.477 411.911 359.285 411.979 C 349.020 412.048 310.972 391.868 313.493 381.917 Z"/>
<path fill="none" stroke="#000000" stroke-width="0" stroke-linecap="round" stroke-linejoin="round" d="M 359.974 98.943 C 343.640 98.933 334.071 111.922 333.561 124.555 C 332.995 138.551 342.472 144.795 350.168 154.715 C 353.315 158.772 355.826 168.448 350.192 171.168 C 341.877 175.183 331.698 171.298 321.717 170.275 M 366.875 407.092 C 374.589 400.885 390.146 386.714 389.822 383.371 C 389.446 379.492 364.774 379.898 359.807 379.896 C 354.840 379.893 330.169 379.455 329.787 383.335 "/>
<path fill="none" stroke="#000000" stroke-width="0" stroke-linecap="round" stroke-linejoin="round" d="M 329.787 383.335 C 329.458 386.683 344.984 400.859 352.672 407.089 "/>
<path fill="none" stroke="#000000" stroke-width="0" stroke-linecap="round" stroke-linejoin="round" d="M 359.974 98.943 C 343.640 98.933 334.071 111.922 333.561 124.555 C 332.995 138.551 342.472 144.795 350.168 154.715 C 353.315 158.772 355.826 168.448 350.192 171.168 C 341.877 175.183 331.698 171.298 321.717 170.275 M 366.875 407.092 C 374.589 400.885 390.146 386.714 389.822 383.371 C 389.446 379.492 364.774 379.898 359.807 379.896 C 354.840 379.893 330.169 379.455 329.787 383.335 "/>
<path fill="none" stroke="#000000" stroke-width="0" stroke-linecap="round" stroke-linejoin="round" d="M 329.787 383.335 C 329.458 386.683 344.984 400.859 352.672 407.089 "/>
<path fill="#ffffff" fill-rule="evenodd" stroke="#000000" stroke-width="4" stroke-linecap="round" stroke-linejoin="round" d="M 386.236 124.586 C 385.945 111.914 376.309 98.952 359.974 98.943 C 343.640 98.933 334.071 111.922 333.561 124.555 C 332.995 138.551 342.472 144.795 350.168 154.715 C 353.315 158.772 355.826 168.448 350.192 171.168 C 341.877 175.183 331.647 171.711 321.717 170.275 C 301.455 167.345 270.849 140.048 267.786 114.463 C 265.063 91.724 274.319 64.627 283.832 53.378 C 289.364 46.836 298.133 38.266 305.444 34.711 C 310.182 32.407 317.709 26.587 316.748 25.058 C 316.265 24.292 312.064 25.506 311.386 24.971 C 310.772 24.486 314.688 20.962 314.317 20.295 C 313.770 19.313 309.791 21.750 308.087 21.134 C 308.752 19.552 310.097 16.990 309.993 16.594 C 309.395 14.315 301.019 18.792 298.121 20.221 C 287.463 25.475 278.336 33.851 270.193 42.837 C 252.406 62.465 241.133 92.418 242.110 117.135 C 243.364 148.835 270.405 178.056 292.590 201.307 C 309.402 218.927 311.172 232.990 314.260 249.231 C 317.024 263.771 321.132 290.592 314.915 302.855 C 301.865 328.592 275.031 343.406 268.338 373.307 C 255.937 428.700 288.091 493.856 298.459 533.831 C 307.801 569.850 316.483 612.208 331.673 653.705 C 333.997 660.053 338.585 673.479 340.030 673.904 C 341.526 674.345 341.484 670.808 343.004 671.442 C 344.398 672.023 345.847 674.107 346.564 673.908 C 347.969 673.518 348.801 670.231 349.789 670.446 C 350.916 670.690 352.323 674.015 353.098 673.912 C 356.130 673.511 354.271 651.459 354.283 647.710 C 354.418 606.629 351.867 568.979 351.229 527.593 C 350.632 488.859 345.236 423.077 356.647 413.711 C 358.886 411.872 364.028 409.383 366.875 407.092 C 374.589 400.885 390.146 386.714 389.822 383.371 C 389.446 379.492 364.774 379.898 359.807 379.896 C 354.840 379.893 330.169 379.455 329.787 383.335 C 329.458 386.683 344.984 400.859 352.672 407.089 C 355.494 409.376 360.651 411.895 362.806 413.714 C 374.384 423.489 368.732 488.781 368.087 527.603 C 367.398 569.084 364.697 606.635 364.890 647.717 C 364.908 651.466 363.236 673.037 366.165 673.920 C 366.861 674.130 368.762 671.540 369.822 671.379 C 370.633 671.256 371.538 673.694 372.699 673.924 C 373.460 674.075 374.681 671.588 376.145 671.003 C 377.888 670.305 377.567 674.350 379.233 673.927 C 380.690 673.558 385.185 660.077 387.493 653.738 C 402.612 612.215 411.488 570.028 420.850 533.904 C 431.393 493.221 461.324 424.989 451.283 373.416 C 445.410 343.249 417.713 328.674 404.670 302.909 C 398.460 290.642 402.537 263.809 405.388 249.285 C 408.831 231.747 411.555 217.036 429.541 197.806 C 451.978 173.817 478.851 142.751 477.890 109.910 C 477.080 82.230 464.033 56.265 444.618 37.744 C 435.498 29.045 425.732 20.702 414.402 15.786 C 411.566 14.556 403.355 10.605 402.900 12.813 C 402.828 13.166 403.946 15.448 404.730 16.738 C 403.082 17.628 398.616 16.252 398.261 17.358 C 398.011 18.139 402.859 21.105 402.281 21.716 C 401.644 22.391 396.974 21.546 396.565 22.429 C 395.807 24.069 405.528 27.733 409.178 30.295 C 416.492 35.426 426.085 42.609 432.449 48.879 C 448.547 64.741 455.434 87.864 454.071 109.187 C 452.511 133.598 421.117 165.175 394.039 170.518 C 385.575 172.188 376.741 174.545 369.549 171.180 C 363.883 168.528 366.441 158.781 369.593 154.727 C 377.301 144.815 386.559 138.590 386.236 124.586 Z"/>
<path fill="#000000" fill-rule="evenodd" stroke="none" d="M 335.028 243.549 C 325.596 243.543 317.992 235.930 317.997 226.498 C 318.003 217.067 325.616 209.462 335.048 209.468 C 344.480 209.474 352.084 217.087 352.078 226.518 C 352.073 235.950 344.460 243.554 335.028 243.549 M 384.627 243.578 C 394.058 243.584 401.672 235.980 401.677 226.548 C 401.683 217.116 394.079 209.503 384.647 209.497 C 375.215 209.492 367.602 217.096 367.597 226.528 C 367.591 235.960 375.195 243.572 384.627 243.578 Z"/>
</g>
<g id="specs_2">
<path fill="#ff00ff" fill-rule="evenodd" stroke="none" d="M 320.473 373.679 C 320.481 373.679 399.519 373.679 399.527 373.679 C 399.527 373.667 399.527 245.777 399.527 245.764 C 399.519 245.764 320.481 245.764 320.473 245.764 C 320.473 245.777 320.473 373.667 320.473 373.679 Z"/>
<path fill="#ff0000" fill-rule="evenodd" stroke="none" d="M 360.000 681.545 C 360.001 681.548 372.840 717.497 372.841 717.501 C 372.840 717.500 360.001 705.554 360.000 705.553 C 359.999 705.554 347.160 717.500 347.159 717.501 C 347.160 717.497 359.999 681.548 360.000 681.545 Z"/>
<path fill="#0000ff" fill-rule="evenodd" stroke="none" d="M 360.000 38.519 C 360.001 38.521 367.458 59.403 367.459 59.405 C 367.458 59.405 360.001 52.466 360.000 52.465 C 359.999 52.466 352.542 59.405 352.541 59.405 C 352.542 59.403 359.999 38.521 360.000 38.519 Z"/>
<path fill="#00ff00" fill-rule="evenodd" stroke="none" d="M 299.423 252.035 C 299.425 252.034 320.269 244.470 320.271 244.470 C 320.271 244.470 313.369 251.963 313.368 251.964 C 313.369 251.965 320.345 259.388 320.346 259.388 C 320.344 259.388 299.425 252.035 299.423 252.035 Z"/>
<path fill="#ffff00" fill-rule="evenodd" stroke="none" d="M 259.927 417.415 C 259.928 417.413 269.183 397.263 269.184 397.261 C 269.184 397.262 269.672 407.437 269.672 407.438 C 269.673 407.438 279.856 407.685 279.857 407.685 C 279.855 407.686 259.929 417.414 259.927 417.415 Z"/>
<path fill="#ffff00" fill-rule="evenodd" stroke="none" d="M 461.442 417.169 C 461.441 417.167 451.784 397.206 451.783 397.204 C 451.783 397.205 451.499 407.388 451.499 407.389 C 451.498 407.389 441.322 407.840 441.321 407.840 C 441.323 407.841 461.440 417.168 461.442 417.169 Z"/>
<path fill="#00ff00" fill-rule="evenodd" stroke="none" d="M 419.227 252.035 C 419.225 252.034 398.380 244.470 398.378 244.470 C 398.379 244.470 405.280 251.963 405.281 251.964 C 405.280 251.965 398.304 259.388 398.303 259.388 C 398.305 259.388 419.225 252.035 419.227 252.035 Z"/>
<path fill="#00ffff" fill-rule="evenodd" stroke="none" d="M 484.099 97.990 C 484.098 97.992 476.695 118.894 476.695 118.896 C 476.694 118.895 475.293 108.805 475.293 108.804 C 475.292 108.804 465.127 109.475 465.126 109.475 C 465.128 109.474 484.097 97.991 484.099 97.990 Z"/>
<path fill="#00ffff" fill-rule="evenodd" stroke="none" d="M 236.017 98.683 C 236.018 98.685 244.797 119.047 244.798 119.049 C 244.798 119.048 245.524 108.887 245.524 108.886 C 245.525 108.886 255.712 108.878 255.713 108.878 C 255.711 108.877 236.019 98.684 236.017 98.683 Z"/>
<path fill="#be0027" fill-rule="evenodd" stroke="none" d="M 360.000 615.540 C 360.001 615.537 372.840 579.588 372.841 579.584 C 372.840 579.585 360.001 591.531 360.000 591.532 C 359.999 591.531 347.160 579.585 347.159 579.584 C 347.160 579.588 359.999 615.537 360.000 615.540 Z"/>
</g>
</g>
</svg>
