<?xml version="1.0" encoding="utf-8"?>
<!-- Generator: Moho 12.5 build 22414 -->
<!DOCTYPE svg PUBLIC "-//W3C//DTD SVG 1.1//EN" "http://www.w3.org/Graphics/SVG/1.1/DTD/svg11.dtd">
<svg version="1.1" id="Frame_0" xmlns="http://www.w3.org/2000/svg" xmlns:xlink="http://www.w3.org/1999/xlink" width="720px" height="720px">
<g id="hand_point">
<g id="hand_point">
<path fill="#ffffff" fill-rule="evenodd" stroke="#000000" stroke-width="4" stroke-linecap="round" stroke-linejoin="round" d="M 383.924 675.623 C 344.526 677.012 279.832 662.220 256.393 643.571 C 222.064 616.256 187.673 578.934 179.869 553.487 C 172.429 529.231 174.083 432.271 166.672 398.392 C 154.908 344.617 115.949 301.382 124.852 284.860 C 132.906 269.913 177.141 278.517 190.829 292.912 C 210.402 313.495 225.284 350.707 229.190 359.033 C 238.343 378.546 250.514 458.276 250.516 458.286 C 250.516 458.281 251.527 423.770 252.149 409.505 C 252.754 395.617 253.776 307.877 253.857 293.976 C 253.955 277.004 253.281 165.826 253.357 152.912 C 253.421 141.970 248.660 46.230 255.147 33.394 C 257.184 29.364 265.802 7.266 282.863 8.085 C 297.343 8.780 303.422 23.808 305.204 26.831 C 312.765 39.658 315.340 138.796 316.412 150.074 C 317.479 161.309 328.567 272.745 328.571 272.756 C 328.576 272.752 356.147 257.802 360.358 257.149 C 389.383 252.648 409.673 271.809 413.614 271.131 C 435.787 267.313 458.415 256.608 476.452 274.383 C 488.313 286.072 485.464 304.447 485.466 304.451 C 485.480 304.458 536.008 283.852 563.059 337.752 C 573.063 357.685 573.124 468.243 567.760 493.732 C 561.830 521.910 543.585 599.888 499.841 635.440 C 457.922 669.510 412.666 674.610 383.924 675.623 Z"/>
<path fill="none" stroke="#000000" stroke-width="4" stroke-linecap="round" stroke-linejoin="round" d="M 328.571 272.756 C 331.037 360.929 327.908 400.804 336.784 411.190 C 344.927 420.719 369.765 419.635 386.206 417.368 C 399.350 415.555 413.611 271.145 413.614 271.131 C 413.613 271.145 392.409 408.616 404.739 415.823 C 418.678 423.971 444.905 432.290 461.882 426.635 C 471.433 423.453 485.463 304.463 485.466 304.451 C 485.464 304.463 468.650 413.843 472.693 425.090 C 478.129 440.214 506.252 443.711 519.026 438.990 C 530.602 434.711 548.381 371.498 563.059 337.752 C 536.008 283.852 485.480 304.458 485.466 304.451 "/>
</g>
<g id="specs">
<path fill="#ff00ff" fill-rule="evenodd" stroke="none" d="M 263.940 634.398 C 263.963 634.398 490.032 634.398 490.055 634.398 C 490.055 634.379 490.055 443.067 490.055 443.048 C 490.032 443.048 263.963 443.048 263.940 443.048 C 263.940 443.067 263.940 634.379 263.940 634.398 Z"/>
<path fill="#ff0000" fill-rule="evenodd" stroke="none" d="M 374.336 682.778 C 374.337 682.782 386.768 717.588 386.769 717.591 C 386.768 717.590 374.337 706.024 374.336 706.023 C 374.335 706.024 361.904 717.590 361.903 717.591 C 361.904 717.588 374.335 682.782 374.336 682.778 Z"/>
<path fill="#0000ff" fill-rule="evenodd" stroke="none" d="M 280.674 6.303 C 280.675 6.305 287.895 26.523 287.896 26.525 C 287.895 26.524 280.675 19.806 280.674 19.805 C 280.673 19.806 273.453 26.524 273.452 26.525 C 273.453 26.523 280.673 6.305 280.674 6.303 Z"/>
<path fill="#00ff00" fill-rule="evenodd" stroke="none" d="M 160.369 490.985 C 160.371 490.984 180.553 483.661 180.555 483.661 C 180.554 483.661 173.872 490.916 173.872 490.917 C 173.872 490.917 180.627 498.104 180.628 498.105 C 180.626 498.104 160.371 490.986 160.369 490.985 Z"/>
<path fill="#ffff00" fill-rule="evenodd" stroke="none" d="M 236.876 643.642 C 236.877 643.640 245.838 624.131 245.839 624.129 C 245.839 624.130 246.311 633.982 246.311 633.983 C 246.312 633.983 256.171 634.222 256.172 634.222 C 256.170 634.223 236.878 643.641 236.876 643.642 Z"/>
<path fill="#ffff00" fill-rule="evenodd" stroke="none" d="M 513.121 643.403 C 513.120 643.401 503.770 624.075 503.769 624.074 C 503.769 624.075 503.495 633.934 503.495 633.935 C 503.494 633.935 493.641 634.371 493.640 634.372 C 493.642 634.372 513.119 643.402 513.121 643.403 Z"/>
<path fill="#00ff00" fill-rule="evenodd" stroke="none" d="M 581.703 490.985 C 581.701 490.984 561.519 483.661 561.517 483.661 C 561.518 483.661 568.200 490.916 568.200 490.917 C 568.200 490.917 561.445 498.104 561.444 498.105 C 561.446 498.104 581.701 490.986 581.703 490.985 Z"/>
<path fill="#00ffff" fill-rule="evenodd" stroke="none" d="M 535.415 293.571 C 535.415 293.573 528.247 313.811 528.247 313.813 C 528.247 313.812 526.890 304.043 526.889 304.042 C 526.888 304.042 517.047 304.691 517.046 304.691 C 517.048 304.690 535.414 293.572 535.415 293.571 Z"/>
<path fill="#00ffff" fill-rule="evenodd" stroke="none" d="M 118.750 271.304 C 118.751 271.306 127.252 291.021 127.253 291.023 C 127.253 291.022 127.956 281.184 127.956 281.183 C 127.957 281.183 137.819 281.175 137.820 281.175 C 137.818 281.174 118.752 271.305 118.750 271.304 Z"/>
</g>
</g>
</svg>
