<?xml version="1.0" encoding="utf-8"?>
<!-- Generator: Moho 12.5 build 22414 -->
<!DOCTYPE svg PUBLIC "-//W3C//DTD SVG 1.1//EN" "http://www.w3.org/Graphics/SVG/1.1/DTD/svg11.dtd">
<svg version="1.1" id="Frame_0" xmlns="http://www.w3.org/2000/svg" xmlns:xlink="http://www.w3.org/1999/xlink" width="720px" height="720px">
<g id="hand_fist">
<g id="hand_fist">
<path fill="#ffffff" fill-rule="evenodd" stroke="#000000" stroke-width="4" stroke-linecap="round" stroke-linejoin="round" d="M 326.679 658.100 C 385.848 664.662 486.789 650.726 522.002 622.339 C 565.216 587.502 599.709 529.860 611.502 502.523 C 620.525 481.607 628.384 396.170 622.700 358.816 C 617.158 322.387 574.055 255.910 574.043 255.885 C 574.044 255.877 585.564 226.562 584.987 177.715 C 584.803 162.163 573.772 110.469 568.438 102.958 C 520.916 36.037 457.515 61.446 457.503 61.442 C 457.497 61.437 440.138 23.093 395.304 19.077 C 347.948 14.836 331.444 47.660 331.438 47.662 C 331.429 47.662 306.191 24.060 246.557 43.578 C 221.947 51.633 211.657 90.533 211.654 90.538 C 211.644 90.541 144.288 75.242 113.586 125.158 C 101.234 145.239 117.266 253.467 127.517 309.828 C 134.142 346.251 78.650 497.071 160.679 584.450 C 215.407 642.748 284.367 653.408 326.679 658.100 Z"/>
<path fill="none" stroke="#000000" stroke-width="4" stroke-linecap="round" stroke-linejoin="round" d="M 331.438 47.662 C 372.457 103.020 364.863 163.521 363.763 189.602 C 363.180 203.443 360.687 222.460 359.890 226.175 C 376.793 225.176 437.213 210.079 456.766 210.789 C 461.787 210.972 473.622 211.541 473.624 211.541 C 476.714 191.850 480.166 144.549 478.390 134.786 C 475.608 119.492 468.397 80.729 457.503 61.442 M 240.350 335.913 C 237.326 348.082 202.459 378.238 159.563 346.891 C 121.960 319.413 125.306 287.158 117.558 246.997 C 113.129 224.040 111.312 183.609 108.189 151.915 M 211.654 90.538 C 224.867 104.203 231.714 125.471 240.462 194.982 C 241.416 202.562 242.255 210.461 242.973 219.272 C 245.623 219.644 247.886 220.883 250.265 221.599 C 269.318 227.332 340.982 227.292 359.890 226.175 M 574.043 255.885 C 540.001 216.901 473.634 211.545 473.624 211.541 M 242.973 219.272 C 215.953 216.143 186.242 248.129 208.762 293.575 C 215.584 307.343 227.250 328.465 240.350 335.913 C 241.203 337.175 242.223 337.843 243.332 338.367 C 281.228 356.296 353.416 362.366 371.879 361.445 C 385.735 360.753 447.912 356.938 447.920 356.937 C 447.919 356.946 432.429 390.434 444.276 448.562 "/>
</g>
<g id="specs">
<path fill="#ff00ff" fill-rule="evenodd" stroke="none" d="M 527.606 603.681 C 527.573 603.681 196.502 603.681 196.468 603.681 C 196.468 603.657 196.468 365.686 196.468 365.662 C 196.502 365.662 527.573 365.662 527.606 365.662 C 527.606 365.686 527.606 603.657 527.606 603.681 Z"/>
<path fill="#ff0000" fill-rule="evenodd" stroke="none" d="M 360.000 678.681 C 359.999 678.685 347.568 713.491 347.567 713.494 C 347.568 713.493 359.999 701.927 360.000 701.926 C 360.001 701.927 372.432 713.493 372.433 713.494 C 372.432 713.491 360.001 678.685 360.000 678.681 Z"/>
<path fill="#0000ff" fill-rule="evenodd" stroke="none" d="M 389.799 4.178 C 389.798 4.180 382.577 24.399 382.577 24.401 C 382.577 24.400 389.798 17.682 389.799 17.681 C 389.799 17.682 397.020 24.400 397.021 24.401 C 397.020 24.399 389.799 4.180 389.799 4.178 Z"/>
<path fill="#00ff00" fill-rule="evenodd" stroke="none" d="M 587.597 259.836 C 587.595 259.836 570.015 253.457 570.013 253.456 C 570.014 253.457 575.835 259.776 575.835 259.777 C 575.835 259.778 569.951 266.038 569.950 266.039 C 569.952 266.038 587.595 259.837 587.597 259.836 Z"/>
<path fill="#ffff00" fill-rule="evenodd" stroke="none" d="M 561.118 600.643 C 561.117 600.642 553.655 584.396 553.655 584.395 C 553.654 584.396 553.262 592.599 553.262 592.600 C 553.261 592.600 545.051 592.799 545.050 592.799 C 545.052 592.800 561.116 600.643 561.118 600.643 Z"/>
<path fill="#ffff00" fill-rule="evenodd" stroke="none" d="M 157.593 600.444 C 157.594 600.443 165.380 584.350 165.381 584.349 C 165.381 584.349 165.609 592.559 165.609 592.560 C 165.610 592.560 173.814 592.924 173.815 592.924 C 173.813 592.924 157.595 600.444 157.593 600.444 Z"/>
<path fill="#00ff00" fill-rule="evenodd" stroke="none" d="M 106.713 259.836 C 106.715 259.836 124.295 253.457 124.297 253.456 C 124.296 253.457 118.476 259.776 118.475 259.777 C 118.476 259.778 124.360 266.038 124.360 266.039 C 124.358 266.038 106.715 259.837 106.713 259.836 Z"/>
<path fill="#00ffff" fill-rule="evenodd" stroke="none" d="M 136.052 87.741 C 136.053 87.743 143.001 105.106 143.001 105.108 C 143.001 105.107 143.840 96.557 143.841 96.556 C 143.841 96.556 152.430 96.776 152.431 96.776 C 152.429 96.776 136.054 87.742 136.052 87.741 Z"/>
<path fill="#00ffff" fill-rule="evenodd" stroke="none" d="M 556.140 71.400 C 556.139 71.402 549.431 88.859 549.431 88.861 C 549.431 88.860 548.474 80.321 548.474 80.321 C 548.473 80.321 539.889 80.660 539.888 80.660 C 539.890 80.659 556.138 71.401 556.140 71.400 Z"/>
<path fill="#be0027" fill-rule="evenodd" stroke="none" d="M 360.043 672.272 C 360.042 672.269 350.998 646.946 350.997 646.943 C 350.998 646.944 360.042 655.359 360.043 655.360 C 360.043 655.359 369.087 646.944 369.088 646.943 C 369.087 646.946 360.043 672.269 360.043 672.272 Z"/>
</g>
</g>
</svg>
