<?xml version="1.0" encoding="utf-8"?>
<!-- Generator: Moho 12.5 build 22414 -->
<!DOCTYPE svg PUBLIC "-//W3C//DTD SVG 1.1//EN" "http://www.w3.org/Graphics/SVG/1.1/DTD/svg11.dtd">
<svg version="1.1" id="Frame_0" xmlns="http://www.w3.org/2000/svg" xmlns:xlink="http://www.w3.org/1999/xlink" width="720px" height="720px">
<g id="hands_giving">
<g id="hands_giving">
<path fill="#ffffff" fill-rule="evenodd" stroke="#000000" stroke-width="4" stroke-linecap="round" stroke-linejoin="round" d="M 634.537 396.409 C 634.533 396.403 651.488 362.445 653.624 359.215 C 658.617 351.663 672.747 344.353 677.210 349.050 C 687.264 359.631 643.812 467.917 592.590 518.889 C 555.383 555.915 501.917 564.778 446.999 614.135 C 419.383 638.953 340.473 607.440 390.982 526.008 C 404.710 503.875 434.693 460.572 448.136 451.551 C 475.295 433.326 503.206 404.303 516.743 406.279 C 519.642 406.702 530.175 408.635 515.534 444.349 C 509.814 458.302 461.551 490.804 461.808 509.531 C 461.898 516.093 510.058 499.698 536.514 486.433 C 545.331 482.013 552.461 455.340 558.634 438.063 C 563.611 424.134 548.132 408.922 552.963 390.350 C 554.284 385.273 559.029 378.500 560.515 378.292 C 565.266 377.626 581.254 418.775 581.254 418.775 C 581.253 418.775 582.335 414.887 583.132 412.949 C 584.255 410.216 574.588 376.791 578.892 361.021 C 580.846 353.861 586.965 346.499 588.828 346.353 C 594.621 345.901 608.182 397.728 608.182 397.728 C 608.179 397.727 617.317 356.637 626.549 341.648 C 632.348 332.234 643.543 328.935 644.192 331.009 C 650.734 333.446 634.545 396.412 634.537 396.409 Z"/>
<path fill="none" stroke="#000000" stroke-width="4" stroke-linecap="round" stroke-linejoin="round" d="M 581.254 418.775 C 574.739 443.875 569.918 456.262 567.483 473.851 M 608.182 397.728 C 597.286 425.412 590.730 445.848 587.272 464.898 M 634.537 396.409 C 634.535 396.413 624.003 423.395 615.226 437.705 C 597.134 467.202 575.164 471.499 553.939 479.590 "/>
<path fill="#ffffff" fill-rule="evenodd" stroke="#000000" stroke-width="4" stroke-linecap="round" stroke-linejoin="round" d="M 85.463 396.409 C 85.467 396.404 68.512 362.445 66.377 359.215 C 61.383 351.662 47.253 344.353 42.790 349.049 C 32.736 359.631 76.188 467.916 127.410 518.889 C 164.617 555.915 218.083 564.778 273.002 614.135 C 300.617 638.953 379.527 607.439 329.018 526.008 C 315.290 503.874 285.307 460.572 271.865 451.551 C 244.706 433.326 216.795 404.303 203.257 406.279 C 200.358 406.702 189.825 408.635 204.466 444.349 C 210.186 458.302 258.449 490.804 258.193 509.531 C 258.103 516.092 209.942 499.698 183.487 486.434 C 174.670 482.013 167.539 455.341 161.366 438.063 C 156.389 424.134 171.868 408.922 167.037 390.350 C 165.716 385.273 160.971 378.500 159.485 378.292 C 154.734 377.626 138.747 418.775 138.747 418.775 C 138.747 418.775 137.665 414.887 136.868 412.949 C 135.745 410.216 145.412 376.791 141.108 361.021 C 139.155 353.861 133.035 346.499 131.173 346.353 C 125.379 345.901 111.818 397.729 111.818 397.729 C 111.822 397.727 102.683 356.637 93.451 341.648 C 87.652 332.233 76.457 328.935 75.809 331.009 C 69.266 333.446 85.455 396.412 85.463 396.409 Z"/>
<path fill="none" stroke="#000000" stroke-width="4" stroke-linecap="round" stroke-linejoin="round" d="M 138.747 418.775 C 145.261 443.875 150.082 456.262 152.517 473.851 M 111.818 397.729 C 122.714 425.412 129.271 445.848 132.728 464.898 M 85.463 396.409 C 85.465 396.413 95.997 423.395 104.774 437.705 C 122.866 467.202 144.836 471.499 166.061 479.590 "/>
</g>
<g id="specs_2">
<path fill="#ff00ff" fill-rule="evenodd" stroke="none" d="M 90.822 402.567 C 90.876 402.567 629.125 402.567 629.178 402.567 C 629.178 402.529 629.178 22.733 629.178 22.695 C 629.125 22.695 90.876 22.695 90.822 22.695 C 90.822 22.733 90.822 402.529 90.822 402.567 Z"/>
<path fill="#ff0000" fill-rule="evenodd" stroke="none" d="M 360.000 678.984 C 360.001 678.987 371.521 711.243 371.522 711.246 C 371.521 711.245 360.001 700.526 360.000 700.525 C 359.999 700.526 348.479 711.245 348.478 711.246 C 348.479 711.243 359.999 678.987 360.000 678.984 Z"/>
<path fill="#0000ff" fill-rule="evenodd" stroke="none" d="M 360.000 10.308 C 360.001 10.309 366.692 29.046 366.693 29.048 C 366.692 29.048 360.001 22.822 360.000 22.821 C 359.999 22.822 353.308 29.048 353.307 29.048 C 353.308 29.046 359.999 10.309 360.000 10.308 Z"/>
<path fill="#00ff00" fill-rule="evenodd" stroke="none" d="M 116.926 517.325 C 116.928 517.325 131.288 512.114 131.290 512.113 C 131.289 512.114 126.535 517.276 126.534 517.277 C 126.535 517.277 131.341 522.391 131.341 522.391 C 131.340 522.391 116.928 517.326 116.926 517.325 Z"/>
<path fill="#ffff00" fill-rule="evenodd" stroke="none" d="M 260.456 609.669 C 260.456 609.668 264.137 601.653 264.138 601.653 C 264.138 601.653 264.331 605.700 264.331 605.700 C 264.332 605.700 268.382 605.799 268.383 605.799 C 268.382 605.799 260.456 609.669 260.456 609.669 Z"/>
<path fill="#ffff00" fill-rule="evenodd" stroke="none" d="M 459.544 609.571 C 459.544 609.570 455.703 601.630 455.702 601.629 C 455.702 601.630 455.590 605.680 455.590 605.681 C 455.589 605.681 451.541 605.860 451.541 605.860 C 451.542 605.861 459.544 609.571 459.544 609.571 Z"/>
<path fill="#00ff00" fill-rule="evenodd" stroke="none" d="M 603.074 517.325 C 603.072 517.325 588.712 512.114 588.711 512.113 C 588.711 512.114 593.465 517.276 593.466 517.277 C 593.465 517.277 588.659 522.391 588.659 522.391 C 588.660 522.391 603.072 517.326 603.074 517.325 Z"/>
<path fill="#00ffff" fill-rule="evenodd" stroke="none" d="M 685.933 338.716 C 685.932 338.718 676.253 366.049 676.252 366.052 C 676.252 366.050 674.419 352.857 674.419 352.856 C 674.417 352.856 661.127 353.733 661.125 353.733 C 661.128 353.732 685.930 338.717 685.933 338.716 Z"/>
<path fill="#00ffff" fill-rule="evenodd" stroke="none" d="M 34.171 339.622 C 34.172 339.624 45.652 366.248 45.653 366.251 C 45.653 366.250 46.602 352.964 46.602 352.962 C 46.604 352.962 59.923 352.952 59.924 352.952 C 59.921 352.951 34.173 339.623 34.171 339.622 Z"/>
<path fill="#be0027" fill-rule="evenodd" stroke="none" d="M 360.000 663.354 C 360.001 663.351 371.521 631.095 371.522 631.092 C 371.521 631.093 360.001 641.811 360.000 641.812 C 359.999 641.811 348.479 631.093 348.478 631.092 C 348.479 631.095 359.999 663.351 360.000 663.354 Z"/>
</g>
</g>
</svg>
