<?xml version="1.0" encoding="utf-8"?>
<!-- Generator: Moho 12.5 build 22414 -->
<!DOCTYPE svg PUBLIC "-//W3C//DTD SVG 1.1//EN" "http://www.w3.org/Graphics/SVG/1.1/DTD/svg11.dtd">
<svg version="1.1" id="Frame_0" xmlns="http://www.w3.org/2000/svg" xmlns:xlink="http://www.w3.org/1999/xlink" width="720px" height="720px">
<g id="hand">
<g id="hand">
<path fill="#ffffff" fill-rule="evenodd" stroke="#000000" stroke-width="4" stroke-linecap="round" stroke-linejoin="round" d="M 391.101 665.643 C 353.603 666.965 292.356 652.471 269.724 635.137 C 231.117 605.568 190.491 552.528 182.194 537.641 C 175.061 524.843 141.154 452.333 128.238 428.473 C 113.953 402.086 71.467 361.537 74.288 346.589 C 76.388 335.457 104.803 329.003 116.920 334.373 C 135.058 342.410 154.088 363.099 158.977 367.266 C 178.208 383.659 219.192 462.924 233.263 460.263 C 249.500 457.192 258.683 429.194 264.214 413.837 C 268.759 401.219 267.930 315.809 267.310 302.412 C 266.609 287.271 253.326 188.821 251.964 177.369 C 250.782 167.428 235.106 81.150 239.453 68.732 C 240.873 64.675 246.278 42.758 262.479 41.422 C 276.230 40.288 283.868 53.686 285.880 56.352 C 294.183 67.348 304.612 158.702 306.936 168.926 C 309.285 179.261 324.281 274.953 336.949 280.747 C 338.842 281.612 352.408 279.024 353.973 277.652 C 364.228 268.664 363.305 175.108 363.924 164.752 C 364.633 152.861 359.896 48.141 367.900 34.686 C 369.691 31.675 376.621 16.394 391.096 17.085 C 403.777 17.691 411.114 31.767 412.779 34.686 C 420.357 47.971 416.023 150.127 416.699 161.744 C 417.326 172.517 415.940 269.969 426.708 279.199 C 428.567 280.793 444.664 283.445 446.826 282.295 C 457.862 276.421 463.747 189.426 465.391 180.056 C 467.004 170.866 474.974 89.309 482.419 79.565 C 484.559 76.764 494.843 61.282 507.601 64.599 C 519.561 67.709 526.170 89.440 527.298 93.493 C 530.553 105.183 515.030 184.305 514.313 193.510 C 513.396 205.301 503.361 309.284 511.260 322.671 C 512.404 324.610 524.083 334.093 526.314 333.786 C 539.063 332.028 550.571 239.673 552.641 230.102 C 554.371 222.107 562.806 152.714 568.519 142.169 C 570.077 139.295 581.868 127.087 592.674 129.725 C 602.908 132.224 609.777 150.379 610.866 153.847 C 615.029 167.099 596.871 257.790 595.499 268.269 C 592.864 288.385 575.174 462.573 567.535 488.120 C 562.221 505.891 544.321 592.494 501.425 627.399 C 461.547 659.848 418.456 664.679 391.101 665.643 Z"/>
</g>
<g id="specs">
<path fill="#ff00ff" fill-rule="evenodd" stroke="none" d="M 275.981 590.770 C 276.005 590.770 523.785 590.770 523.810 590.770 C 523.810 590.745 523.810 342.966 523.810 342.941 C 523.785 342.941 276.005 342.941 275.981 342.941 C 275.981 342.966 275.981 590.745 275.981 590.770 Z"/>
<path fill="#ff0000" fill-rule="evenodd" stroke="none" d="M 384.879 678.252 C 384.880 678.256 396.988 712.158 396.989 712.161 C 396.988 712.160 384.880 700.894 384.879 700.893 C 384.877 700.894 372.770 712.160 372.768 712.161 C 372.770 712.158 384.877 678.256 384.879 678.252 Z"/>
<path fill="#0000ff" fill-rule="evenodd" stroke="none" d="M 390.241 2.660 C 390.242 2.662 397.275 22.355 397.276 22.357 C 397.275 22.356 390.242 15.812 390.241 15.811 C 390.241 15.812 383.208 22.356 383.207 22.357 C 383.208 22.355 390.241 2.662 390.241 2.660 Z"/>
<path fill="#00ff00" fill-rule="evenodd" stroke="none" d="M 75.496 327.143 C 75.498 327.144 94.889 334.969 94.891 334.969 C 94.890 334.969 85.327 335.880 85.326 335.880 C 85.326 335.881 85.545 345.485 85.545 345.485 C 85.544 345.484 75.497 327.145 75.496 327.143 Z"/>
<path fill="#ffff00" fill-rule="evenodd" stroke="none" d="M 259.997 645.039 C 259.998 645.037 268.726 626.035 268.727 626.033 C 268.727 626.034 269.186 635.630 269.186 635.631 C 269.187 635.631 278.790 635.863 278.791 635.863 C 278.790 635.864 259.999 645.038 259.997 645.039 Z"/>
<path fill="#ffff00" fill-rule="evenodd" stroke="none" d="M 506.761 642.662 C 506.760 642.660 497.653 623.836 497.652 623.834 C 497.652 623.835 497.385 633.438 497.385 633.439 C 497.384 633.439 487.787 633.864 487.786 633.864 C 487.788 633.865 506.759 642.661 506.761 642.662 Z"/>
<path fill="#00ff00" fill-rule="evenodd" stroke="none" d="M 596.541 116.445 C 596.540 116.447 585.084 133.941 585.083 133.943 C 585.083 133.943 593.456 129.230 593.456 129.230 C 593.457 129.231 598.759 137.241 598.760 137.242 C 598.759 137.240 596.541 116.447 596.541 116.445 Z"/>
<path fill="#00ffff" fill-rule="evenodd" stroke="none" d="M 510.255 49.680 C 510.255 49.682 513.482 70.343 513.483 70.345 C 513.482 70.344 507.797 62.601 507.796 62.600 C 507.795 62.600 499.662 67.714 499.662 67.714 C 499.663 67.712 510.254 49.682 510.255 49.680 Z"/>
<path fill="#00ffff" fill-rule="evenodd" stroke="none" d="M 256.928 28.618 C 256.928 28.620 254.236 49.358 254.236 49.360 C 254.237 49.359 259.720 41.471 259.720 41.470 C 259.721 41.471 267.983 46.371 267.984 46.372 C 267.983 46.370 256.929 28.620 256.928 28.618 Z"/>
<path fill="#be0027" fill-rule="evenodd" stroke="none" d="M 384.984 678.279 C 384.985 678.276 393.794 653.611 393.795 653.608 C 393.794 653.609 384.985 661.805 384.984 661.806 C 384.983 661.805 376.174 653.609 376.173 653.608 C 376.174 653.611 384.983 678.276 384.984 678.279 Z"/>
</g>
</g>
</svg>
