<?xml version="1.0" encoding="utf-8"?>
<!-- Generator: Moho 13.0.3 build 635 -->
<!DOCTYPE svg PUBLIC "-//W3C//DTD SVG 1.1//EN" "http://www.w3.org/Graphics/SVG/1.1/DTD/svg11.dtd">
<svg version="1.1" id="Frame_0" xmlns="http://www.w3.org/2000/svg" xmlns:xlink="http://www.w3.org/1999/xlink" width="1280px" height="720px">
<g id="hand_point">
<path fill="#ffffff" fill-rule="evenodd" stroke="#000000" stroke-width="5" stroke-linecap="round" stroke-linejoin="round" d="M 109.224 412.448 C 107.082 351.684 129.895 251.907 158.658 215.758 C 200.786 162.813 258.346 109.773 297.593 97.736 C 335.003 86.262 484.543 88.812 536.795 77.381 C 619.732 59.237 686.413 -0.848 711.895 12.884 C 734.947 25.305 721.677 93.528 699.476 114.639 C 667.731 144.826 610.340 167.779 597.498 173.803 C 567.403 187.920 444.437 206.691 444.422 206.694 C 444.430 206.695 497.655 208.253 519.655 209.212 C 541.075 210.145 676.395 211.722 697.835 211.846 C 724.010 211.998 895.481 210.958 915.397 211.075 C 932.272 211.174 1079.932 203.832 1099.728 213.836 C 1105.944 216.977 1140.026 230.270 1138.763 256.581 C 1137.690 278.915 1114.512 288.291 1109.850 291.039 C 1090.068 302.700 937.168 306.671 919.774 308.324 C 902.446 309.971 730.580 327.071 730.562 327.078 C 730.569 327.086 753.626 369.608 754.633 376.101 C 761.575 420.867 732.023 452.160 733.069 458.238 C 738.957 492.435 755.468 527.335 728.053 555.153 C 710.025 573.446 681.687 569.053 681.680 569.055 C 681.669 569.076 713.450 647.005 630.320 688.726 C 599.576 704.155 429.065 704.249 389.752 695.976 C 346.295 686.830 226.030 658.691 171.198 591.226 C 118.652 526.575 110.786 456.777 109.224 412.448 Z"/>
<path fill="none" stroke="#000000" stroke-width="5" stroke-linecap="round" stroke-linejoin="round" d="M 730.562 327.078 C 594.574 330.881 533.075 326.055 517.057 339.744 C 502.361 352.303 504.032 390.611 507.529 415.967 C 510.325 436.239 733.047 458.234 733.069 458.238 C 733.047 458.237 521.026 425.534 509.911 444.550 C 497.344 466.049 484.514 506.499 493.237 532.682 C 498.144 547.413 681.661 569.051 681.680 569.055 C 681.661 569.053 512.965 543.121 495.619 549.356 C 472.294 557.740 466.901 601.113 474.182 620.813 C 480.781 638.668 578.274 666.088 630.320 688.726 C 713.450 647.005 681.669 569.076 681.680 569.055 "/>
</g>
</svg>
