<?xml version="1.0" encoding="utf-8"?>
<!-- Generator: Moho 12.5 build 22414 -->
<!DOCTYPE svg PUBLIC "-//W3C//DTD SVG 1.1//EN" "http://www.w3.org/Graphics/SVG/1.1/DTD/svg11.dtd">
<svg version="1.1" id="Frame_0" xmlns="http://www.w3.org/2000/svg" xmlns:xlink="http://www.w3.org/1999/xlink" width="720px" height="720px">
<g id="hand_side">
<g id="hand_side">
<path fill="#ffffff" fill-rule="evenodd" stroke="none" d="M 696.055 484.685 C 697.495 480.328 676.248 473.366 675.501 473.124 C 675.498 473.122 665.616 456.801 646.377 453.045 C 585.075 441.079 510.670 438.021 452.553 442.960 C 474.495 439.085 474.597 435.140 478.198 423.709 C 484.894 402.451 389.192 410.125 315.908 402.877 C 230.874 394.467 132.722 376.374 74.507 490.489 C 49.936 538.654 87.912 626.606 260.064 637.296 C 315.902 640.763 409.385 625.083 447.643 609.372 C 469.584 600.361 525.949 554.532 537.023 547.398 C 564.572 529.648 602.098 514.890 622.115 506.631 C 630.369 503.226 660.750 500.183 660.754 500.182 C 660.758 500.181 690.894 500.310 696.055 484.685 Z"/>
<path fill="none" stroke="#000000" stroke-width="4" stroke-linecap="round" stroke-linejoin="round" d="M 642.378 469.801 C 571.342 468.304 487.890 472.487 447.565 478.465 M 675.501 473.124 C 674.446 472.783 651.934 470.003 642.378 469.801 M 696.055 484.685 C 697.495 480.328 676.248 473.366 675.501 473.124 C 675.498 473.122 665.616 456.801 646.377 453.045 C 585.075 441.079 510.670 438.021 452.553 442.960 C 474.495 439.085 474.597 435.140 478.198 423.709 C 484.894 402.451 389.192 410.125 315.908 402.877 C 230.874 394.467 132.722 376.374 74.507 490.489 C 49.936 538.654 87.912 626.606 260.064 637.296 C 315.902 640.763 409.385 625.083 447.643 609.372 C 469.584 600.361 525.949 554.532 537.023 547.398 C 564.572 529.648 602.098 514.890 622.115 506.631 C 630.369 503.226 660.750 500.183 660.754 500.182 C 660.758 500.181 690.894 500.310 696.055 484.685 M 333.303 449.305 C 357.190 446.779 425.579 447.724 452.553 442.960 M 225.447 509.573 C 340.858 487.392 317.891 450.935 333.303 449.305 "/>
<path fill="none" stroke="#000000" stroke-width="4" stroke-linecap="round" stroke-linejoin="round" d="M 435.367 513.446 C 442.325 512.355 498.602 504.665 530.220 500.275 C 551.489 489.890 647.099 466.699 622.115 506.631 M 530.220 500.275 C 530.214 500.278 495.765 515.768 475.786 534.661 C 471.618 538.602 444.957 537.267 418.283 550.991 "/>
</g>
<g id="specs_2">
<path fill="#ff00ff" fill-rule="evenodd" stroke="none" d="M 169.793 515.202 C 169.830 515.202 536.794 515.202 536.831 515.202 C 536.831 515.168 536.831 176.112 536.831 176.078 C 536.794 176.078 169.830 176.078 169.793 176.078 C 169.793 176.112 169.793 515.168 169.793 515.202 Z"/>
<path fill="#ff0000" fill-rule="evenodd" stroke="none" d="M 43.921 512.895 C 43.918 512.896 10.423 524.859 10.420 524.860 C 10.421 524.859 21.551 512.896 21.552 512.895 C 21.551 512.894 10.421 500.932 10.420 500.931 C 10.423 500.932 43.918 512.894 43.921 512.895 Z"/>
<path fill="#0000ff" fill-rule="evenodd" stroke="none" d="M 704.013 484.550 C 704.011 484.551 684.554 491.499 684.552 491.500 C 684.553 491.499 691.018 484.551 691.018 484.550 C 691.018 484.549 684.553 477.601 684.552 477.600 C 684.554 477.601 704.011 484.549 704.013 484.550 Z"/>
<path fill="#00ff00" fill-rule="evenodd" stroke="none" d="M 148.064 626.631 C 148.064 626.628 140.194 604.941 140.193 604.938 C 140.194 604.939 147.990 612.119 147.991 612.120 C 147.992 612.119 155.715 604.861 155.715 604.860 C 155.715 604.862 148.065 626.628 148.064 626.631 Z"/>
<path fill="#00ff00" fill-rule="evenodd" stroke="none" d="M 148.064 398.280 C 148.064 398.282 140.194 419.970 140.193 419.972 C 140.194 419.971 147.990 412.791 147.991 412.790 C 147.992 412.791 155.715 420.050 155.715 420.051 C 155.715 420.048 148.065 398.282 148.064 398.280 Z"/>
</g>
</g>
</svg>
