<?xml version="1.0" encoding="utf-8"?>
<!-- Generator: Moho 12.5 build 22414 -->
<!DOCTYPE svg PUBLIC "-//W3C//DTD SVG 1.1//EN" "http://www.w3.org/Graphics/SVG/1.1/DTD/svg11.dtd">
<svg version="1.1" id="Frame_0" xmlns="http://www.w3.org/2000/svg" xmlns:xlink="http://www.w3.org/1999/xlink" width="720px" height="720px">
<g id="hands_claddagh">
<g id="hands_claddagh_2">
<path fill="#ffffff" fill-rule="evenodd" stroke="#000000" stroke-width="4" stroke-linejoin="round" d="M 626.761 214.957 C 581.558 200.598 535.856 196.647 487.839 212.897 C 408.076 239.889 367.718 212.026 371.331 229.370 C 375.347 248.645 390.467 260.956 439.538 257.556 C 518.482 252.085 521.421 286.027 525.186 315.187 C 527.527 333.324 519.272 360.794 514.679 367.719 C 472.630 431.117 430.511 451.932 373.894 478.386 C 361.526 484.165 363.634 504.852 413.118 492.394 C 433.208 487.336 486.662 459.754 534.291 415.347 C 537.534 412.324 485.202 463.749 419.422 493.094 C 395.020 503.980 427.369 515.305 460.747 501.499 C 539.020 469.124 584.440 427.068 581.920 429.356 C 558.437 450.685 532.646 467.364 475.455 497.297 C 463.348 503.634 479.837 510.460 506.975 507.103 C 562.153 500.278 625.474 440.110 622.544 443.365 C 602.696 465.417 558.282 491.862 530.789 502.200 C 526.039 503.986 546.016 518.142 588.924 500.099 C 649.060 474.811 665.167 444.148 685.261 401.633 C 700.068 370.305 704.066 330.870 698.302 300.968 C 691.243 264.341 678.928 231.527 626.761 214.957 Z"/>
<path fill="#ffffff" fill-rule="evenodd" stroke="#000000" stroke-width="4" stroke-linejoin="round" d="M 93.239 214.957 C 138.442 200.598 184.144 196.648 232.161 212.897 C 311.924 239.890 352.282 212.026 348.669 229.371 C 344.653 248.646 329.534 260.956 280.462 257.556 C 201.518 252.085 198.579 286.027 194.814 315.187 C 192.473 333.324 200.728 360.794 205.321 367.719 C 247.371 431.117 289.489 451.932 346.106 478.386 C 358.474 484.165 356.366 504.852 306.882 492.394 C 286.792 487.336 233.338 459.754 185.709 415.347 C 182.466 412.324 234.798 463.749 300.579 493.094 C 324.980 503.980 292.631 515.305 259.254 501.500 C 180.980 469.124 135.560 427.068 138.080 429.356 C 161.563 450.684 187.354 467.365 244.545 497.297 C 256.652 503.634 240.164 510.460 213.026 507.103 C 157.847 500.279 94.526 440.110 97.456 443.365 C 117.305 465.417 161.718 491.862 189.211 502.200 C 193.961 503.986 173.984 518.142 131.076 500.099 C 70.940 474.812 54.833 444.149 34.739 401.634 C 19.933 370.306 15.934 330.870 21.698 300.968 C 28.757 264.341 41.073 231.528 93.239 214.957 Z"/>
</g>
<g id="specs_2">
<path fill="#ff00ff" fill-rule="evenodd" stroke="none" d="M 221.277 476.896 C 221.304 476.896 498.696 476.896 498.723 476.896 C 498.723 476.874 498.723 249.963 498.723 249.940 C 498.696 249.940 221.304 249.940 221.277 249.940 C 221.277 249.963 221.277 476.874 221.277 476.896 Z"/>
<path fill="#ff0000" fill-rule="evenodd" stroke="none" d="M 360.000 662.708 C 360.001 662.711 372.432 697.517 372.433 697.521 C 372.432 697.520 360.001 685.954 360.000 685.952 C 359.999 685.954 347.568 697.520 347.567 697.521 C 347.568 697.517 359.999 662.711 360.000 662.708 Z"/>
<path fill="#0000ff" fill-rule="evenodd" stroke="none" d="M 360.000 205.495 C 360.001 205.497 367.221 225.715 367.222 225.717 C 367.221 225.716 360.001 218.998 360.000 218.997 C 359.999 218.998 352.779 225.716 352.778 225.717 C 352.779 225.715 359.999 205.497 360.000 205.495 Z"/>
<path fill="#00ff00" fill-rule="evenodd" stroke="none" d="M 6.211 352.794 C 6.213 352.794 27.115 345.209 27.117 345.208 C 27.116 345.209 20.196 352.723 20.195 352.724 C 20.196 352.724 27.192 360.167 27.192 360.168 C 27.190 360.167 6.213 352.795 6.211 352.794 Z"/>
<path fill="#ffff00" fill-rule="evenodd" stroke="none" d="M 154.355 514.024 C 154.356 514.022 161.961 497.464 161.962 497.462 C 161.962 497.463 162.362 505.825 162.362 505.826 C 162.363 505.826 170.731 506.028 170.732 506.028 C 170.730 506.029 154.357 514.023 154.355 514.024 Z"/>
<path fill="#ffff00" fill-rule="evenodd" stroke="none" d="M 565.645 513.821 C 565.644 513.819 557.708 497.417 557.707 497.416 C 557.707 497.416 557.475 505.784 557.475 505.785 C 557.474 505.785 549.112 506.156 549.111 506.156 C 549.112 506.156 565.643 513.820 565.645 513.821 Z"/>
<path fill="#00ff00" fill-rule="evenodd" stroke="none" d="M 713.789 352.794 C 713.787 352.794 692.885 345.209 692.883 345.208 C 692.884 345.209 699.804 352.723 699.805 352.724 C 699.804 352.724 692.809 360.167 692.808 360.168 C 692.810 360.167 713.787 352.795 713.789 352.794 Z"/>
<path fill="#00ffff" fill-rule="evenodd" stroke="none" d="M 683.582 225.702 C 683.582 225.705 673.972 252.838 673.971 252.840 C 673.971 252.839 672.152 239.742 672.152 239.740 C 672.150 239.740 658.956 240.611 658.954 240.612 C 658.957 240.610 683.580 225.704 683.582 225.702 Z"/>
<path fill="#00ffff" fill-rule="evenodd" stroke="none" d="M 36.529 226.602 C 36.530 226.604 47.927 253.036 47.928 253.039 C 47.929 253.037 48.871 239.847 48.871 239.846 C 48.872 239.846 62.095 239.836 62.096 239.836 C 62.094 239.835 36.532 226.603 36.529 226.602 Z"/>
<path fill="#be0027" fill-rule="evenodd" stroke="none" d="M 360.000 517.907 C 360.001 517.903 372.432 483.097 372.433 483.094 C 372.432 483.095 360.001 494.661 360.000 494.662 C 359.999 494.661 347.568 483.095 347.567 483.094 C 347.568 483.097 359.999 517.903 360.000 517.907 Z"/>
</g>
</g>
</svg>
