<?xml version="1.0" encoding="utf-8"?>
<!-- Generator: Moho 12.5 build 22414 -->
<!DOCTYPE svg PUBLIC "-//W3C//DTD SVG 1.1//EN" "http://www.w3.org/Graphics/SVG/1.1/DTD/svg11.dtd">
<svg version="1.1" id="Frame_0" xmlns="http://www.w3.org/2000/svg" xmlns:xlink="http://www.w3.org/1999/xlink" width="720px" height="720px">
<g id="hand_open_3/4">
<g id="Hand_open_3/4">
<path fill="#ffffff" fill-rule="evenodd" stroke="#000000" stroke-width="4" stroke-linecap="round" stroke-linejoin="round" d="M 34.392 358.272 C 34.179 328.303 46.851 278.727 62.733 262.410 C 104.643 219.353 183.991 187.964 204.812 184.810 C 220.151 182.486 305.018 186.466 333.747 186.812 C 363.692 187.172 420.355 172.445 431.533 182.719 C 440.091 190.584 429.739 218.810 418.374 226.276 C 401.331 237.472 372.857 242.389 366.534 244.293 C 341.659 251.786 236.653 244.481 244.803 256.742 C 251.533 266.867 278.981 264.812 293.278 267.313 C 306.184 269.572 388.718 275.617 401.789 276.520 C 418.052 277.643 524.686 283.642 537.089 283.647 C 547.657 283.650 639.593 272.428 652.383 277.843 C 656.448 279.564 678.594 286.486 678.917 303.177 C 679.190 317.340 664.949 324.287 662.086 326.173 C 649.956 334.165 553.233 339.817 542.200 340.471 C 530.990 341.136 419.542 340.418 419.530 340.418 C 419.543 340.419 532.089 349.448 542.829 348.692 C 555.046 347.832 661.059 334.582 676.311 339.726 C 680.252 341.054 703.412 342.953 704.204 360.136 C 704.971 376.778 681.694 383.487 677.794 385.543 C 664.203 392.706 562.832 401.085 551.203 402.269 C 539.602 403.451 424.156 411.382 424.143 411.383 C 424.156 411.383 538.549 411.761 549.700 410.493 C 559.232 409.410 643.135 402.064 654.451 407.622 C 657.699 409.218 675.368 416.471 674.569 429.983 C 673.820 442.652 653.191 453.563 649.357 455.557 C 638.585 461.160 558.110 464.509 548.916 465.418 C 534.093 466.883 387.022 481.531 387.005 481.533 C 387.016 481.533 486.911 478.455 497.594 478.620 C 507.755 478.777 577.688 465.276 591.899 466.793 C 596.799 467.316 612.408 475.004 612.802 486.859 C 613.157 497.583 596.033 508.350 592.909 510.337 C 580.658 518.131 485.163 530.769 474.181 531.980 C 450.762 534.562 245.625 545.971 216.906 539.260 C 198.343 534.923 109.614 515.502 73.711 471.443 C 40.388 430.550 34.591 386.356 34.392 358.272 Z"/>
</g>
<g id="specs_2">
<path fill="#ff00ff" fill-rule="evenodd" stroke="none" d="M 98.499 484.432 C 98.524 484.432 352.768 484.432 352.793 484.432 C 352.793 484.412 352.793 286.043 352.793 286.023 C 352.768 286.023 98.524 286.023 98.499 286.023 C 98.499 286.043 98.499 484.412 98.499 484.432 Z"/>
<path fill="#ff0000" fill-rule="evenodd" stroke="none" d="M 37.678 379.068 C 37.674 379.069 2.868 391.499 2.865 391.501 C 2.866 391.499 14.432 379.069 14.433 379.068 C 14.432 379.066 2.866 366.636 2.865 366.635 C 2.868 366.636 37.674 379.066 37.678 379.068 Z"/>
<path fill="#0000ff" fill-rule="evenodd" stroke="none" d="M 321.262 170.815 C 321.263 170.817 328.483 191.036 328.484 191.038 C 328.483 191.037 321.263 184.319 321.262 184.318 C 321.262 184.319 314.041 191.037 314.040 191.038 C 314.041 191.036 321.262 170.817 321.262 170.815 Z"/>
<path fill="#00ff00" fill-rule="evenodd" stroke="none" d="M 29.852 302.141 C 29.854 302.140 50.036 294.817 50.038 294.817 C 50.037 294.817 43.355 302.072 43.355 302.073 C 43.355 302.073 50.110 309.260 50.111 309.261 C 50.109 309.260 29.854 302.142 29.852 302.141 Z"/>
<path fill="#ffff00" fill-rule="evenodd" stroke="none" d="M 141.069 526.645 C 141.070 526.644 148.723 509.981 148.724 509.980 C 148.724 509.981 149.127 518.394 149.127 518.395 C 149.128 518.395 157.549 518.599 157.549 518.599 C 157.548 518.600 141.071 526.645 141.069 526.645 Z"/>
<path fill="#ffff00" fill-rule="evenodd" stroke="none" d="M 554.950 526.441 C 554.950 526.440 546.964 509.934 546.963 509.932 C 546.963 509.933 546.729 518.354 546.729 518.354 C 546.728 518.354 538.313 518.727 538.312 518.727 C 538.314 518.728 554.949 526.441 554.950 526.441 Z"/>
<path fill="#00ff00" fill-rule="evenodd" stroke="none" d="M 691.194 302.141 C 691.192 302.140 671.011 294.817 671.009 294.817 C 671.009 294.817 677.691 302.072 677.692 302.073 C 677.691 302.073 670.936 309.260 670.936 309.261 C 670.938 309.260 691.192 302.142 691.194 302.141 Z"/>
<path fill="#00ffff" fill-rule="evenodd" stroke="none" d="M 438.168 171.532 C 438.168 171.534 431.000 191.771 431.000 191.773 C 431.000 191.772 429.642 182.003 429.642 182.002 C 429.641 182.002 419.800 182.652 419.799 182.652 C 419.801 182.651 438.166 171.533 438.168 171.532 Z"/>
<path fill="#00ffff" fill-rule="evenodd" stroke="none" d="M 194.031 173.759 C 194.031 173.761 191.256 195.050 191.256 195.052 C 191.256 195.052 196.890 186.956 196.891 186.955 C 196.892 186.956 205.371 191.992 205.372 191.992 C 205.371 191.991 194.032 173.761 194.031 173.759 Z"/>
</g>
</g>
</svg>
