<?xml version="1.0" encoding="utf-8"?>
<!-- Generator: Moho 12.5 build 22414 -->
<!DOCTYPE svg PUBLIC "-//W3C//DTD SVG 1.1//EN" "http://www.w3.org/Graphics/SVG/1.1/DTD/svg11.dtd">
<svg version="1.1" id="Frame_0" xmlns="http://www.w3.org/2000/svg" xmlns:xlink="http://www.w3.org/1999/xlink" width="720px" height="720px">
<g id="hand_fist">
<g id="hand_fist">
<path fill="#ffffff" fill-rule="evenodd" stroke="#000000" stroke-width="4" stroke-linecap="round" stroke-linejoin="round" d="M 393.321 668.857 C 334.152 675.419 233.211 661.484 197.998 633.097 C 154.784 598.259 120.291 540.617 108.498 513.280 C 99.475 492.365 91.616 406.927 97.300 369.573 C 102.842 333.145 145.945 266.667 145.957 266.643 C 145.956 266.635 134.436 237.319 135.013 188.473 C 135.197 172.920 146.228 121.227 151.562 113.716 C 199.084 46.795 262.485 72.203 262.497 72.199 C 262.503 72.195 279.862 33.851 324.696 29.835 C 372.052 25.593 388.556 58.417 388.562 58.420 C 388.571 58.420 413.809 34.818 473.443 54.336 C 498.053 62.391 508.343 101.291 508.346 101.295 C 508.356 101.299 575.712 85.999 606.415 135.916 C 618.766 155.996 602.734 264.224 592.483 320.585 C 585.858 357.008 641.350 507.828 559.321 595.207 C 504.593 653.505 435.633 664.165 393.321 668.857 Z"/>
<path fill="none" stroke="#000000" stroke-width="4" stroke-linecap="round" stroke-linejoin="round" d="M 388.562 58.420 C 343.352 125.632 355.923 196.249 358.199 226.854 C 360.090 252.274 374.967 287.138 374.969 287.144 C 360.705 278.690 322.467 227.562 304.017 222.397 C 287.490 217.771 246.382 222.298 246.376 222.298 C 243.286 202.608 239.834 155.306 241.610 145.544 C 244.392 130.249 251.603 91.486 262.497 72.199 M 477.687 345.689 C 480.683 358.194 516.366 389.684 560.437 357.649 C 598.109 330.265 594.694 297.915 602.442 257.754 C 606.871 234.797 608.688 194.367 611.811 162.673 M 508.346 101.295 C 495.133 114.961 488.483 136.254 479.538 205.739 C 472.563 259.923 472.883 329.550 477.687 345.689 M 145.957 266.643 C 184.906 245.322 246.366 222.303 246.376 222.298 M 374.969 287.144 C 390.420 296.302 465.759 303.361 473.503 320.567 C 477.486 329.416 468.439 359.228 458.911 372.050 C 449.563 384.631 419.766 395.862 412.659 398.313 C 381.161 409.177 322.235 401.434 308.907 395.253 C 299.525 390.902 262.013 363.239 262.009 363.236 C 262.009 363.244 275.675 395.157 262.967 449.506 "/>
</g>
<g id="specs">
<path fill="#ff00ff" fill-rule="evenodd" stroke="none" d="M 206.052 628.730 C 206.082 628.730 502.716 628.730 502.746 628.730 C 502.746 628.710 502.746 430.341 502.746 430.321 C 502.716 430.321 206.082 430.321 206.052 430.321 C 206.052 430.341 206.052 628.710 206.052 628.730 Z"/>
<path fill="#ff0000" fill-rule="evenodd" stroke="none" d="M 360.000 679.660 C 360.001 679.663 372.432 714.469 372.433 714.472 C 372.432 714.471 360.001 702.905 360.000 702.904 C 359.999 702.905 347.568 714.471 347.567 714.472 C 347.568 714.469 359.999 679.663 360.000 679.660 Z"/>
<path fill="#0000ff" fill-rule="evenodd" stroke="none" d="M 330.201 14.936 C 330.202 14.938 337.423 35.156 337.423 35.158 C 337.423 35.157 330.202 28.439 330.201 28.438 C 330.201 28.439 322.980 35.157 322.979 35.158 C 322.980 35.156 330.201 14.938 330.201 14.936 Z"/>
<path fill="#00ff00" fill-rule="evenodd" stroke="none" d="M 132.403 270.594 C 132.405 270.593 149.985 264.214 149.987 264.214 C 149.986 264.214 144.166 270.534 144.165 270.534 C 144.166 270.535 150.049 276.795 150.050 276.796 C 150.048 276.795 132.405 270.594 132.403 270.594 Z"/>
<path fill="#ffff00" fill-rule="evenodd" stroke="none" d="M 158.882 611.401 C 158.883 611.399 166.345 595.154 166.346 595.152 C 166.346 595.153 166.738 603.356 166.738 603.357 C 166.739 603.357 174.949 603.556 174.950 603.556 C 174.949 603.557 158.884 611.400 158.882 611.401 Z"/>
<path fill="#ffff00" fill-rule="evenodd" stroke="none" d="M 562.407 611.202 C 562.406 611.200 554.620 595.107 554.619 595.106 C 554.619 595.107 554.391 603.316 554.391 603.317 C 554.391 603.317 546.186 603.681 546.185 603.681 C 546.187 603.682 562.405 611.201 562.407 611.202 Z"/>
<path fill="#00ff00" fill-rule="evenodd" stroke="none" d="M 613.287 270.594 C 613.285 270.593 595.705 264.214 595.703 264.214 C 595.704 264.214 601.524 270.534 601.525 270.534 C 601.524 270.535 595.640 276.795 595.640 276.796 C 595.642 276.795 613.285 270.594 613.287 270.594 Z"/>
<path fill="#00ffff" fill-rule="evenodd" stroke="none" d="M 583.948 98.499 C 583.947 98.501 576.999 115.864 576.999 115.866 C 576.998 115.865 576.160 107.314 576.159 107.313 C 576.159 107.313 567.570 107.534 567.569 107.534 C 567.571 107.533 583.946 98.500 583.948 98.499 Z"/>
<path fill="#00ffff" fill-rule="evenodd" stroke="none" d="M 163.860 82.157 C 163.861 82.159 170.569 99.616 170.569 99.618 C 170.569 99.617 171.526 91.079 171.526 91.078 C 171.527 91.078 180.111 91.417 180.112 91.417 C 180.110 91.416 163.862 82.158 163.860 82.157 Z"/>
</g>
</g>
</svg>
