<?xml version="1.0" encoding="utf-8"?>
<!-- Generator: Moho 12.5 build 22414 -->
<!DOCTYPE svg PUBLIC "-//W3C//DTD SVG 1.1//EN" "http://www.w3.org/Graphics/SVG/1.1/DTD/svg11.dtd">
<svg version="1.1" id="Frame_0" xmlns="http://www.w3.org/2000/svg" xmlns:xlink="http://www.w3.org/1999/xlink" width="720px" height="720px">
<g id="hand">
<g id="hand">
<path fill="#ffffff" fill-rule="evenodd" stroke="#000000" stroke-width="4" stroke-linecap="round" stroke-linejoin="round" d="M 391.905 682.124 C 353.408 683.481 290.527 668.600 267.292 650.804 C 227.655 620.447 185.945 565.992 177.427 550.708 C 170.105 537.569 135.293 463.125 122.032 438.629 C 107.367 411.539 63.748 369.908 66.644 354.562 C 68.800 343.133 97.973 336.507 110.413 342.020 C 129.034 350.272 148.572 371.512 153.592 375.790 C 173.336 392.620 215.412 473.999 229.858 471.267 C 246.528 468.115 255.956 439.369 261.635 423.603 C 266.301 410.649 265.450 322.961 264.813 309.207 C 264.094 293.662 250.456 192.586 249.058 180.829 C 247.845 170.623 231.750 82.045 236.213 69.295 C 237.671 65.131 243.221 42.629 259.853 41.257 C 273.971 40.093 281.812 53.848 283.879 56.585 C 292.403 67.875 303.110 161.665 305.496 172.161 C 307.908 182.771 323.303 281.016 336.309 286.964 C 338.253 287.853 352.180 285.195 353.787 283.787 C 364.315 274.559 363.368 178.508 364.003 167.875 C 364.732 155.667 359.868 48.155 368.086 34.341 C 369.925 31.250 377.039 15.562 391.900 16.272 C 404.919 16.893 412.452 31.345 414.161 34.341 C 421.941 47.980 417.492 152.861 418.186 164.788 C 418.830 175.848 417.406 275.898 428.461 285.375 C 430.370 287.012 446.897 289.734 449.116 288.553 C 460.446 282.523 466.488 193.207 468.176 183.588 C 469.832 174.153 478.015 90.421 485.658 80.417 C 487.855 77.542 498.414 61.646 511.512 65.052 C 523.791 68.245 530.576 90.555 531.734 94.717 C 535.076 106.718 519.139 187.951 518.403 197.401 C 517.461 209.507 507.159 316.262 515.269 330.006 C 516.443 331.997 528.434 341.733 530.723 341.417 C 543.813 339.612 555.627 244.795 557.753 234.968 C 559.529 226.760 568.189 155.517 574.055 144.691 C 575.654 141.740 587.759 129.206 598.854 131.915 C 609.361 134.480 616.412 153.120 617.531 156.681 C 621.805 170.286 603.162 263.394 601.753 274.153 C 599.048 294.806 580.887 473.639 573.044 499.866 C 567.588 518.112 549.211 607.024 505.171 642.860 C 464.230 676.174 419.990 681.134 391.905 682.124 Z"/>
</g>
<g id="specs">
<path fill="#ff00ff" fill-rule="evenodd" stroke="none" d="M 273.715 605.254 C 273.740 605.254 528.127 605.254 528.153 605.254 C 528.153 605.229 528.153 350.842 528.153 350.816 C 528.127 350.816 273.740 350.816 273.715 350.816 C 273.715 350.842 273.715 605.229 273.715 605.254 Z"/>
<path fill="#ff0000" fill-rule="evenodd" stroke="none" d="M 385.517 682.398 C 385.518 682.402 397.949 717.208 397.950 717.211 C 397.949 717.210 385.518 705.644 385.517 705.643 C 385.515 705.644 373.085 717.210 373.084 717.211 C 373.085 717.208 385.515 682.402 385.517 682.398 Z"/>
<path fill="#0000ff" fill-rule="evenodd" stroke="none" d="M 391.023 1.461 C 391.023 1.463 398.244 21.681 398.245 21.683 C 398.244 21.683 391.023 14.964 391.023 14.963 C 391.022 14.964 383.801 21.683 383.801 21.683 C 383.801 21.681 391.022 1.463 391.023 1.461 Z"/>
<path fill="#00ff00" fill-rule="evenodd" stroke="none" d="M 67.884 334.597 C 67.886 334.598 87.795 342.632 87.797 342.632 C 87.796 342.632 77.977 343.567 77.976 343.567 C 77.976 343.568 78.202 353.428 78.202 353.429 C 78.201 353.427 67.885 334.599 67.884 334.597 Z"/>
<path fill="#ffff00" fill-rule="evenodd" stroke="none" d="M 257.305 660.971 C 257.306 660.969 266.267 641.459 266.267 641.457 C 266.267 641.458 266.739 651.310 266.739 651.311 C 266.740 651.311 276.600 651.550 276.601 651.550 C 276.599 651.551 257.307 660.970 257.305 660.971 Z"/>
<path fill="#ffff00" fill-rule="evenodd" stroke="none" d="M 510.650 658.530 C 510.649 658.528 501.298 639.201 501.297 639.200 C 501.297 639.201 501.023 649.060 501.023 649.061 C 501.022 649.061 491.169 649.498 491.168 649.498 C 491.170 649.499 510.648 658.529 510.650 658.530 Z"/>
<path fill="#00ff00" fill-rule="evenodd" stroke="none" d="M 602.823 118.281 C 602.822 118.282 591.061 136.244 591.060 136.245 C 591.060 136.245 599.656 131.407 599.657 131.407 C 599.657 131.408 605.101 139.632 605.101 139.632 C 605.101 139.630 602.823 118.283 602.823 118.281 Z"/>
<path fill="#00ffff" fill-rule="evenodd" stroke="none" d="M 514.236 49.736 C 514.237 49.738 517.550 70.949 517.550 70.952 C 517.550 70.951 511.712 63.001 511.712 63.000 C 511.711 63.000 503.361 68.250 503.361 68.250 C 503.362 68.249 514.235 49.737 514.236 49.736 Z"/>
<path fill="#00ffff" fill-rule="evenodd" stroke="none" d="M 254.154 28.112 C 254.154 28.114 251.391 49.404 251.391 49.407 C 251.391 49.406 257.021 41.307 257.021 41.306 C 257.022 41.307 265.505 46.338 265.505 46.339 C 265.504 46.337 254.155 28.114 254.154 28.112 Z"/>
</g>
</g>
</svg>
