<?xml version="1.0" encoding="utf-8"?>
<!-- Generator: Moho 12.5 build 22414 -->
<!DOCTYPE svg PUBLIC "-//W3C//DTD SVG 1.1//EN" "http://www.w3.org/Graphics/SVG/1.1/DTD/svg11.dtd">
<svg version="1.1" id="Frame_0" xmlns="http://www.w3.org/2000/svg" xmlns:xlink="http://www.w3.org/1999/xlink" width="720px" height="720px">
<g id="hand_open_3_4">
<g id="Hand_open_3/4">
<path fill="#ffffff" fill-rule="evenodd" stroke="#000000" stroke-width="4" stroke-linecap="round" stroke-linejoin="round" d="M 42.215 358.272 C 42.003 328.303 54.674 278.727 70.556 262.410 C 112.466 219.353 191.815 187.964 212.635 184.810 C 227.975 182.486 312.842 186.467 341.570 186.812 C 371.516 187.172 428.178 172.445 439.356 182.719 C 447.914 190.584 437.562 218.810 426.197 226.276 C 409.154 237.473 380.680 242.389 374.358 244.293 C 349.483 251.785 244.476 244.481 252.626 256.742 C 259.357 266.867 286.804 264.812 301.101 267.314 C 314.008 269.572 396.542 275.617 409.613 276.520 C 425.875 277.643 532.510 283.642 544.913 283.647 C 555.481 283.650 647.417 272.428 660.207 277.843 C 664.271 279.564 686.417 286.486 686.740 303.177 C 687.014 317.340 672.773 324.287 669.910 326.173 C 657.780 334.165 561.057 339.817 550.024 340.471 C 538.814 341.136 427.366 340.418 427.354 340.418 C 427.366 340.419 539.913 349.448 550.652 348.692 C 562.869 347.832 668.883 334.582 684.135 339.725 C 688.076 341.054 711.236 342.953 712.028 360.136 C 712.794 376.778 689.518 383.487 685.617 385.543 C 672.026 392.706 570.655 401.085 559.026 402.269 C 547.425 403.451 431.979 411.382 431.967 411.383 C 431.979 411.383 546.373 411.761 557.524 410.493 C 567.055 409.410 650.958 402.064 662.275 407.622 C 665.523 409.217 683.191 416.471 682.393 429.983 C 681.644 442.652 661.014 453.563 657.181 455.557 C 646.408 461.160 565.934 464.509 556.740 465.418 C 541.917 466.883 394.845 481.532 394.829 481.533 C 394.840 481.533 494.735 478.455 505.418 478.620 C 515.578 478.777 585.511 465.276 599.723 466.793 C 604.622 467.316 620.232 475.004 620.625 486.859 C 620.981 497.583 603.857 508.350 600.733 510.337 C 588.482 518.130 492.986 530.769 482.005 531.980 C 458.586 534.562 253.449 545.971 224.729 539.260 C 206.166 534.923 117.438 515.502 81.535 471.443 C 48.211 430.550 42.415 386.356 42.215 358.272 Z"/>
</g>
<g id="specs_2">
<path fill="#ff00ff" fill-rule="evenodd" stroke="none" d="M 125.948 495.085 C 125.993 495.085 576.109 495.085 576.154 495.085 C 576.154 495.056 576.154 209.599 576.154 209.571 C 576.109 209.571 125.993 209.571 125.948 209.571 C 125.948 209.599 125.948 495.056 125.948 495.085 Z"/>
<path fill="#ff0000" fill-rule="evenodd" stroke="none" d="M 38.656 379.068 C 38.652 379.069 3.846 391.499 3.843 391.501 C 3.844 391.499 15.410 379.069 15.411 379.068 C 15.410 379.066 3.844 366.636 3.843 366.635 C 3.846 366.636 38.652 379.066 38.656 379.068 Z"/>
<path fill="#0000ff" fill-rule="evenodd" stroke="none" d="M 329.086 170.815 C 329.087 170.817 336.307 191.036 336.308 191.038 C 336.307 191.037 329.087 184.319 329.086 184.318 C 329.085 184.319 321.865 191.037 321.864 191.038 C 321.865 191.036 329.085 170.817 329.086 170.815 Z"/>
<path fill="#00ff00" fill-rule="evenodd" stroke="none" d="M 37.676 302.141 C 37.678 302.140 57.859 294.817 57.861 294.817 C 57.861 294.817 51.179 302.072 51.178 302.073 C 51.179 302.073 57.934 309.260 57.934 309.261 C 57.932 309.260 37.678 302.142 37.676 302.141 Z"/>
<path fill="#ffff00" fill-rule="evenodd" stroke="none" d="M 148.893 526.645 C 148.894 526.644 156.547 509.981 156.548 509.980 C 156.548 509.981 156.951 518.394 156.951 518.395 C 156.952 518.395 165.372 518.599 165.373 518.599 C 165.371 518.600 148.895 526.645 148.893 526.645 Z"/>
<path fill="#ffff00" fill-rule="evenodd" stroke="none" d="M 562.774 526.441 C 562.773 526.440 554.787 509.934 554.787 509.932 C 554.787 509.933 554.552 518.354 554.552 518.354 C 554.552 518.354 546.136 518.727 546.136 518.727 C 546.137 518.728 562.772 526.441 562.774 526.441 Z"/>
<path fill="#00ff00" fill-rule="evenodd" stroke="none" d="M 699.018 302.141 C 699.016 302.140 678.834 294.817 678.832 294.817 C 678.833 294.817 685.515 302.072 685.515 302.073 C 685.515 302.073 678.760 309.260 678.759 309.261 C 678.761 309.260 699.016 302.142 699.018 302.141 Z"/>
<path fill="#00ffff" fill-rule="evenodd" stroke="none" d="M 445.992 171.532 C 445.991 171.534 438.824 191.771 438.823 191.773 C 438.823 191.772 437.466 182.003 437.466 182.002 C 437.465 182.002 427.624 182.652 427.623 182.652 C 427.625 182.651 445.990 171.533 445.992 171.532 Z"/>
<path fill="#00ffff" fill-rule="evenodd" stroke="none" d="M 201.854 173.759 C 201.854 173.761 199.080 195.050 199.079 195.052 C 199.080 195.052 204.714 186.956 204.715 186.955 C 204.715 186.956 213.195 191.992 213.196 191.992 C 213.195 191.991 201.856 173.761 201.854 173.759 Z"/>
<path fill="#be0027" fill-rule="evenodd" stroke="none" d="M 21.740 379.068 C 21.743 379.069 56.549 391.499 56.553 391.501 C 56.551 391.499 44.986 379.069 44.984 379.068 C 44.986 379.066 56.551 366.636 56.553 366.635 C 56.549 366.636 21.743 379.066 21.740 379.068 Z"/>
</g>
</g>
</svg>
