<?xml version="1.0" encoding="utf-8"?>
<!-- Generator: Moho 12.5 build 22414 -->
<!DOCTYPE svg PUBLIC "-//W3C//DTD SVG 1.1//EN" "http://www.w3.org/Graphics/SVG/1.1/DTD/svg11.dtd">
<svg version="1.1" id="Frame_0" xmlns="http://www.w3.org/2000/svg" xmlns:xlink="http://www.w3.org/1999/xlink" width="720px" height="720px">
<g id="hand_point">
<g id="hand_point">
<path fill="#ffffff" fill-rule="evenodd" stroke="#000000" stroke-width="4" stroke-linecap="round" stroke-linejoin="round" d="M 383.197 665.922 C 344.996 667.269 282.268 652.927 259.542 634.844 C 226.255 608.359 192.910 572.171 185.342 547.497 C 178.129 523.978 179.732 429.965 172.546 397.115 C 161.139 344.974 123.365 303.052 131.997 287.032 C 139.806 272.540 182.697 280.882 195.969 294.839 C 214.948 314.797 229.378 350.878 233.165 358.952 C 242.040 377.872 253.841 455.179 253.843 455.188 C 253.843 455.184 254.823 421.721 255.426 407.890 C 256.013 394.424 257.004 309.350 257.082 295.872 C 257.177 279.415 256.524 171.615 256.597 159.094 C 256.660 148.484 252.043 55.653 258.333 43.207 C 260.308 39.300 268.665 17.873 285.206 18.667 C 299.247 19.341 305.142 33.913 306.869 36.844 C 314.200 49.281 316.697 145.406 317.736 156.341 C 318.771 167.235 329.522 275.285 329.526 275.296 C 329.531 275.292 356.264 260.796 360.347 260.163 C 388.490 255.799 408.163 274.378 411.985 273.720 C 433.484 270.019 455.425 259.638 472.914 276.874 C 484.415 288.208 481.652 306.024 481.653 306.028 C 481.667 306.035 530.660 286.055 556.889 338.317 C 566.589 357.645 566.648 464.843 561.447 489.558 C 555.697 516.879 538.007 592.488 495.592 626.960 C 454.947 659.995 411.066 664.940 383.197 665.922 Z"/>
<path fill="none" stroke="#000000" stroke-width="4" stroke-linecap="round" stroke-linejoin="round" d="M 329.526 275.296 C 331.917 360.790 328.883 399.453 337.489 409.524 C 345.385 418.763 369.469 417.712 385.410 415.514 C 398.154 413.756 411.982 273.734 411.985 273.720 C 411.984 273.734 391.424 407.028 403.379 414.016 C 416.895 421.917 442.325 429.983 458.786 424.499 C 468.047 421.414 481.651 306.040 481.653 306.028 C 481.652 306.040 465.349 412.096 469.269 423.001 C 474.540 437.665 501.808 441.056 514.194 436.479 C 525.419 432.330 542.657 371.037 556.889 338.317 C 530.660 286.055 481.667 306.035 481.653 306.028 "/>
</g>
<g id="specs">
<path fill="#ff00ff" fill-rule="evenodd" stroke="none" d="M 266.859 625.949 C 266.881 625.949 486.082 625.949 486.103 625.949 C 486.103 625.931 486.103 440.432 486.103 440.414 C 486.082 440.414 266.881 440.414 266.859 440.414 C 266.859 440.432 266.859 625.931 266.859 625.949 Z"/>
<path fill="#ff0000" fill-rule="evenodd" stroke="none" d="M 373.901 677.680 C 373.902 677.684 385.954 711.432 385.956 711.435 C 385.954 711.434 373.902 700.220 373.901 700.219 C 373.899 700.220 361.847 711.434 361.845 711.435 C 361.847 711.432 373.899 677.684 373.901 677.680 Z"/>
<path fill="#0000ff" fill-rule="evenodd" stroke="none" d="M 283.084 4.892 C 283.085 4.894 290.086 24.498 290.087 24.500 C 290.086 24.499 283.085 17.985 283.084 17.984 C 283.084 17.985 276.082 24.499 276.082 24.500 C 276.082 24.498 283.084 4.894 283.084 4.892 Z"/>
<path fill="#00ff00" fill-rule="evenodd" stroke="none" d="M 166.435 486.894 C 166.437 486.893 186.005 479.793 186.007 479.792 C 186.007 479.793 179.528 486.827 179.527 486.828 C 179.528 486.829 186.077 493.797 186.078 493.798 C 186.076 493.797 166.437 486.895 166.435 486.894 Z"/>
<path fill="#ffff00" fill-rule="evenodd" stroke="none" d="M 240.617 634.913 C 240.618 634.911 249.307 615.995 249.308 615.993 C 249.308 615.994 249.765 625.546 249.765 625.547 C 249.766 625.547 259.326 625.778 259.327 625.779 C 259.325 625.779 240.619 634.912 240.617 634.913 Z"/>
<path fill="#ffff00" fill-rule="evenodd" stroke="none" d="M 508.469 634.681 C 508.468 634.679 499.402 615.941 499.401 615.939 C 499.401 615.940 499.135 625.499 499.135 625.500 C 499.134 625.500 489.581 625.924 489.580 625.924 C 489.581 625.925 508.467 634.680 508.469 634.681 Z"/>
<path fill="#00ff00" fill-rule="evenodd" stroke="none" d="M 574.966 486.894 C 574.964 486.893 555.396 479.793 555.394 479.792 C 555.395 479.793 561.874 486.827 561.874 486.828 C 561.874 486.829 555.324 493.797 555.324 493.798 C 555.326 493.797 574.964 486.895 574.966 486.894 Z"/>
<path fill="#00ffff" fill-rule="evenodd" stroke="none" d="M 530.085 295.479 C 530.085 295.481 523.135 315.103 523.135 315.105 C 523.135 315.104 521.819 305.632 521.818 305.631 C 521.818 305.631 512.275 306.261 512.274 306.261 C 512.276 306.260 530.084 295.480 530.085 295.479 Z"/>
<path fill="#00ffff" fill-rule="evenodd" stroke="none" d="M 126.081 273.889 C 126.082 273.891 134.324 293.006 134.325 293.008 C 134.325 293.007 135.006 283.468 135.006 283.467 C 135.007 283.467 144.570 283.460 144.571 283.460 C 144.569 283.459 126.083 273.890 126.081 273.889 Z"/>
<path fill="#be0027" fill-rule="evenodd" stroke="none" d="M 374.420 677.975 C 374.421 677.972 383.190 653.418 383.191 653.415 C 383.190 653.416 374.421 661.575 374.420 661.576 C 374.419 661.575 365.650 653.416 365.649 653.415 C 365.650 653.418 374.419 677.972 374.420 677.975 Z"/>
</g>
</g>
</svg>
