<?xml version="1.0" encoding="utf-8"?>
<!-- Generator: Moho 13.0.3 build 635 -->
<!DOCTYPE svg PUBLIC "-//W3C//DTD SVG 1.1//EN" "http://www.w3.org/Graphics/SVG/1.1/DTD/svg11.dtd">
<svg version="1.1" id="Frame_0" xmlns="http://www.w3.org/2000/svg" xmlns:xlink="http://www.w3.org/1999/xlink" width="1280px" height="720px">
<g id="Hand_open_3/4">
<path fill="#ffffff" fill-rule="evenodd" stroke="#000000" stroke-width="5" stroke-linecap="round" stroke-linejoin="round" d="M 22.526 356.190 C 22.137 301.424 45.293 210.825 74.317 181.008 C 150.906 102.323 295.912 44.960 333.960 39.196 C 361.992 34.949 517.083 42.223 569.583 42.855 C 624.308 43.513 727.855 16.601 748.283 35.375 C 763.922 49.748 745.004 101.329 724.234 114.974 C 693.089 135.435 641.055 144.419 629.501 147.899 C 584.042 161.591 392.148 148.243 407.042 170.649 C 419.342 189.151 469.501 185.396 495.628 189.968 C 519.213 194.095 670.041 205.141 693.928 206.792 C 723.647 208.845 918.516 219.808 941.182 219.816 C 960.494 219.823 1128.504 199.314 1151.877 209.210 C 1159.305 212.355 1199.776 225.005 1200.366 255.507 C 1200.866 281.389 1174.841 294.084 1169.609 297.531 C 1147.441 312.135 970.685 322.464 950.522 323.660 C 930.037 324.874 726.371 323.563 726.348 323.563 C 726.371 323.564 932.045 340.064 951.671 338.683 C 973.997 337.111 1167.732 312.898 1195.604 322.298 C 1202.805 324.726 1245.130 328.196 1246.577 359.597 C 1247.978 390.009 1205.441 402.270 1198.314 406.027 C 1173.477 419.118 988.226 434.430 966.974 436.594 C 945.773 438.753 734.802 453.247 734.778 453.249 C 734.801 453.249 943.851 453.938 964.229 451.622 C 981.647 449.642 1134.975 436.219 1155.656 446.376 C 1161.592 449.291 1193.880 462.546 1192.421 487.239 C 1191.052 510.391 1153.353 530.331 1146.347 533.974 C 1126.661 544.213 979.597 550.334 962.795 551.995 C 935.707 554.672 666.940 581.441 666.911 581.444 C 666.931 581.444 849.484 575.820 869.007 576.122 C 887.575 576.409 1015.374 551.736 1041.345 554.509 C 1050.299 555.464 1078.824 569.513 1079.543 591.178 C 1080.194 610.775 1048.899 630.451 1043.191 634.082 C 1020.802 648.324 846.289 671.421 826.221 673.634 C 783.423 678.352 408.545 699.202 356.061 686.938 C 322.139 679.012 159.991 643.521 94.379 563.005 C 33.482 488.275 22.890 407.513 22.526 356.190 Z"/>
</g>
</svg>
