<?xml version="1.0" encoding="utf-8"?>
<!-- Generator: Moho 12.5 build 22414 -->
<!DOCTYPE svg PUBLIC "-//W3C//DTD SVG 1.1//EN" "http://www.w3.org/Graphics/SVG/1.1/DTD/svg11.dtd">
<svg version="1.1" id="Frame_0" xmlns="http://www.w3.org/2000/svg" xmlns:xlink="http://www.w3.org/1999/xlink" width="720px" height="720px">
<g id="hand_point">
<g id="hand_point">
<path fill="#ffffff" fill-rule="evenodd" stroke="#000000" stroke-width="4" stroke-linecap="round" stroke-linejoin="round" d="M 383.531 675.213 C 344.780 676.579 281.150 662.030 258.097 643.687 C 224.332 616.821 190.507 580.114 182.830 555.085 C 175.513 531.228 177.140 435.862 169.850 402.540 C 158.280 349.649 119.961 307.124 128.718 290.874 C 136.640 276.173 180.147 284.636 193.610 298.794 C 212.862 319.038 227.499 355.638 231.341 363.828 C 240.343 383.020 252.314 461.439 252.316 461.448 C 252.317 461.444 253.310 427.500 253.922 413.470 C 254.517 399.810 255.522 313.513 255.602 299.840 C 255.699 283.148 255.036 173.797 255.110 161.096 C 255.174 150.333 250.491 56.167 256.871 43.543 C 258.874 39.579 267.351 17.844 284.131 18.649 C 298.373 19.333 304.353 34.114 306.105 37.088 C 313.542 49.703 316.074 147.211 317.128 158.304 C 318.178 169.354 329.084 278.958 329.088 278.969 C 329.093 278.965 356.211 264.261 360.352 263.618 C 388.900 259.191 408.856 278.038 412.732 277.370 C 434.541 273.616 456.797 263.086 474.538 280.569 C 486.204 292.066 483.402 310.139 483.403 310.143 C 483.417 310.150 533.114 289.882 559.720 342.896 C 569.560 362.502 569.620 471.242 564.344 496.312 C 558.512 524.026 540.567 600.722 497.542 635.690 C 456.312 669.200 411.800 674.216 383.531 675.213 Z"/>
<path fill="none" stroke="#000000" stroke-width="4" stroke-linecap="round" stroke-linejoin="round" d="M 329.088 278.969 C 331.513 365.693 328.436 404.912 337.166 415.127 C 345.175 424.499 369.605 423.434 385.775 421.203 C 398.703 419.420 412.730 277.385 412.732 277.370 C 412.732 277.385 391.876 412.596 404.003 419.684 C 417.714 427.698 443.509 435.880 460.207 430.318 C 469.601 427.188 483.401 310.155 483.403 310.143 C 483.402 310.155 466.864 417.736 470.840 428.799 C 476.187 443.673 503.848 447.113 516.411 442.470 C 527.797 438.261 545.284 376.087 559.720 342.896 C 533.114 289.882 483.417 310.150 483.403 310.143 "/>
</g>
<g id="specs">
<path fill="#ff00ff" fill-rule="evenodd" stroke="none" d="M 265.520 634.665 C 265.542 634.665 487.895 634.665 487.917 634.665 C 487.917 634.646 487.917 446.480 487.917 446.461 C 487.895 446.461 265.542 446.461 265.520 446.461 C 265.520 446.480 265.520 634.646 265.520 634.665 Z"/>
<path fill="#ff0000" fill-rule="evenodd" stroke="none" d="M 374.100 682.250 C 374.102 682.254 386.328 716.487 386.329 716.491 C 386.328 716.490 374.102 705.114 374.100 705.113 C 374.099 705.114 361.873 716.490 361.872 716.491 C 361.873 716.487 374.099 682.254 374.100 682.250 Z"/>
<path fill="#0000ff" fill-rule="evenodd" stroke="none" d="M 281.978 4.676 C 281.979 4.678 289.080 24.564 289.081 24.566 C 289.080 24.565 281.979 17.958 281.978 17.957 C 281.977 17.958 274.876 24.565 274.875 24.566 C 274.876 24.564 281.977 4.678 281.978 4.676 Z"/>
<path fill="#00ff00" fill-rule="evenodd" stroke="none" d="M 163.651 493.610 C 163.653 493.609 183.503 486.407 183.505 486.406 C 183.504 486.407 176.932 493.542 176.932 493.543 C 176.932 493.544 183.576 500.612 183.577 500.613 C 183.575 500.612 163.653 493.611 163.651 493.610 Z"/>
<path fill="#ffff00" fill-rule="evenodd" stroke="none" d="M 238.900 643.758 C 238.901 643.756 247.715 624.567 247.716 624.565 C 247.716 624.566 248.180 634.256 248.180 634.257 C 248.181 634.257 257.878 634.492 257.879 634.492 C 257.877 634.493 238.902 643.757 238.900 643.758 Z"/>
<path fill="#ffff00" fill-rule="evenodd" stroke="none" d="M 510.604 643.523 C 510.603 643.521 501.407 624.513 501.406 624.511 C 501.406 624.512 501.136 634.209 501.136 634.210 C 501.135 634.210 491.444 634.639 491.443 634.639 C 491.445 634.640 510.602 643.522 510.604 643.523 Z"/>
<path fill="#00ff00" fill-rule="evenodd" stroke="none" d="M 578.058 493.610 C 578.056 493.609 558.206 486.407 558.204 486.406 C 558.205 486.407 564.777 493.542 564.777 493.543 C 564.777 493.544 558.133 500.612 558.133 500.613 C 558.135 500.612 578.056 493.611 578.058 493.610 Z"/>
<path fill="#00ffff" fill-rule="evenodd" stroke="none" d="M 532.531 299.442 C 532.531 299.444 525.481 319.349 525.481 319.351 C 525.481 319.350 524.146 309.741 524.146 309.740 C 524.145 309.740 514.465 310.379 514.464 310.379 C 514.466 310.378 532.530 299.443 532.531 299.442 Z"/>
<path fill="#00ffff" fill-rule="evenodd" stroke="none" d="M 122.717 277.541 C 122.718 277.543 131.078 296.934 131.079 296.935 C 131.079 296.935 131.771 287.258 131.771 287.257 C 131.772 287.257 141.472 287.250 141.473 287.250 C 141.471 287.249 122.719 277.542 122.717 277.541 Z"/>
</g>
</g>
</svg>
