<?xml version="1.0" encoding="utf-8"?>
<!-- Generator: Moho 12.5 build 22414 -->
<!DOCTYPE svg PUBLIC "-//W3C//DTD SVG 1.1//EN" "http://www.w3.org/Graphics/SVG/1.1/DTD/svg11.dtd">
<svg version="1.1" id="Frame_0" xmlns="http://www.w3.org/2000/svg" xmlns:xlink="http://www.w3.org/1999/xlink" width="720px" height="720px">
<g id="hand_fist">
<g id="hand_fist">
<path fill="#ffffff" fill-rule="evenodd" stroke="#000000" stroke-width="4" stroke-linecap="round" stroke-linejoin="round" d="M 393.321 658.100 C 334.152 664.662 233.211 650.726 197.998 622.339 C 154.784 587.502 120.291 529.860 108.498 502.523 C 99.475 481.607 91.616 396.170 97.300 358.816 C 102.842 322.387 145.945 255.910 145.957 255.885 C 145.956 255.877 134.436 226.562 135.013 177.715 C 135.197 162.163 146.228 110.469 151.562 102.958 C 199.084 36.037 262.485 61.446 262.497 61.442 C 262.503 61.437 279.862 23.093 324.696 19.077 C 372.052 14.836 388.556 47.660 388.562 47.662 C 388.571 47.662 413.809 24.060 473.443 43.578 C 498.053 51.633 508.343 90.533 508.346 90.538 C 508.356 90.541 575.712 75.242 606.414 125.158 C 618.766 145.239 602.734 253.467 592.483 309.828 C 585.858 346.251 641.350 497.071 559.321 584.450 C 504.593 642.748 435.633 653.408 393.321 658.100 Z"/>
<path fill="none" stroke="#000000" stroke-width="4" stroke-linecap="round" stroke-linejoin="round" d="M 388.562 47.662 C 347.543 103.020 355.137 163.521 356.237 189.602 C 356.820 203.443 359.313 222.460 360.110 226.175 C 343.207 225.176 282.787 210.079 263.234 210.789 C 258.213 210.972 246.378 211.541 246.376 211.541 C 243.286 191.850 239.834 144.549 241.610 134.786 C 244.393 119.492 251.603 80.729 262.497 61.442 M 479.650 335.913 C 482.674 348.082 517.541 378.238 560.437 346.891 C 598.040 319.413 594.694 287.158 602.442 246.997 C 606.871 224.040 608.688 183.609 611.811 151.915 M 508.346 90.538 C 495.133 104.203 488.286 125.471 479.538 194.982 C 478.584 202.562 477.745 210.461 477.027 219.272 C 474.377 219.644 472.114 220.883 469.735 221.599 C 450.682 227.332 379.018 227.292 360.110 226.175 M 145.957 255.885 C 179.999 216.901 246.366 211.545 246.376 211.541 M 477.027 219.272 C 504.047 216.143 533.759 248.129 511.238 293.575 C 504.416 307.343 492.750 328.465 479.650 335.913 C 478.797 337.175 477.777 337.843 476.668 338.367 C 438.772 356.296 366.584 362.366 348.121 361.445 C 334.265 360.753 272.088 356.938 272.080 356.937 C 272.081 356.946 287.571 390.434 275.724 448.562 "/>
</g>
<g id="specs">
<path fill="#ff00ff" fill-rule="evenodd" stroke="none" d="M 192.394 603.681 C 192.428 603.681 523.498 603.681 523.532 603.681 C 523.532 603.657 523.532 365.686 523.532 365.662 C 523.498 365.662 192.428 365.662 192.394 365.662 C 192.394 365.686 192.394 603.657 192.394 603.681 Z"/>
<path fill="#ff0000" fill-rule="evenodd" stroke="none" d="M 360.000 678.681 C 360.001 678.685 372.432 713.491 372.433 713.494 C 372.432 713.493 360.001 701.927 360.000 701.926 C 359.999 701.927 347.568 713.493 347.567 713.494 C 347.568 713.491 359.999 678.685 360.000 678.681 Z"/>
<path fill="#0000ff" fill-rule="evenodd" stroke="none" d="M 330.201 4.178 C 330.202 4.180 337.423 24.399 337.423 24.401 C 337.423 24.400 330.202 17.682 330.201 17.681 C 330.201 17.682 322.980 24.400 322.979 24.401 C 322.980 24.399 330.201 4.180 330.201 4.178 Z"/>
<path fill="#00ff00" fill-rule="evenodd" stroke="none" d="M 132.403 259.836 C 132.405 259.836 149.985 253.457 149.987 253.456 C 149.986 253.457 144.166 259.776 144.165 259.777 C 144.166 259.778 150.049 266.038 150.050 266.039 C 150.048 266.038 132.405 259.837 132.403 259.836 Z"/>
<path fill="#ffff00" fill-rule="evenodd" stroke="none" d="M 158.882 600.643 C 158.883 600.642 166.345 584.396 166.346 584.395 C 166.346 584.396 166.738 592.599 166.738 592.600 C 166.739 592.600 174.949 592.799 174.950 592.799 C 174.949 592.800 158.884 600.643 158.882 600.643 Z"/>
<path fill="#ffff00" fill-rule="evenodd" stroke="none" d="M 562.407 600.444 C 562.406 600.443 554.620 584.350 554.619 584.349 C 554.619 584.349 554.391 592.559 554.391 592.560 C 554.391 592.560 546.186 592.924 546.185 592.924 C 546.187 592.924 562.405 600.444 562.407 600.444 Z"/>
<path fill="#00ff00" fill-rule="evenodd" stroke="none" d="M 613.287 259.836 C 613.285 259.836 595.705 253.457 595.703 253.456 C 595.704 253.457 601.524 259.776 601.525 259.777 C 601.524 259.778 595.640 266.038 595.640 266.039 C 595.642 266.038 613.285 259.837 613.287 259.836 Z"/>
<path fill="#00ffff" fill-rule="evenodd" stroke="none" d="M 583.948 87.741 C 583.947 87.743 576.999 105.106 576.999 105.108 C 576.998 105.107 576.160 96.557 576.159 96.556 C 576.159 96.556 567.570 96.776 567.569 96.776 C 567.571 96.776 583.946 87.742 583.948 87.741 Z"/>
<path fill="#00ffff" fill-rule="evenodd" stroke="none" d="M 163.860 71.400 C 163.861 71.402 170.569 88.859 170.569 88.861 C 170.569 88.860 171.526 80.321 171.526 80.321 C 171.527 80.321 180.111 80.660 180.112 80.660 C 180.110 80.659 163.862 71.401 163.860 71.400 Z"/>
<path fill="#be0027" fill-rule="evenodd" stroke="none" d="M 359.957 672.272 C 359.958 672.269 369.002 646.946 369.003 646.943 C 369.002 646.944 359.958 655.359 359.957 655.360 C 359.957 655.359 350.913 646.944 350.912 646.943 C 350.913 646.946 359.957 672.269 359.957 672.272 Z"/>
</g>
</g>
</svg>
