<?xml version="1.0" encoding="utf-8"?>
<!-- Generator: Moho 13.0.3 build 635 -->
<!DOCTYPE svg PUBLIC "-//W3C//DTD SVG 1.1//EN" "http://www.w3.org/Graphics/SVG/1.1/DTD/svg11.dtd">
<svg version="1.1" id="Frame_0" xmlns="http://www.w3.org/2000/svg" xmlns:xlink="http://www.w3.org/1999/xlink" width="720px" height="720px">
<g id="hand">
<path fill="#ffffff" fill-rule="evenodd" stroke="#000000" stroke-width="4" stroke-linecap="round" stroke-linejoin="round" d="M 388.101 691.188 C 349.358 692.554 286.078 677.578 262.694 659.669 C 222.804 629.119 180.830 574.317 172.257 558.936 C 164.888 545.713 129.855 470.795 116.509 446.143 C 101.751 418.880 57.854 376.984 60.768 361.540 C 62.938 350.038 92.296 343.370 104.816 348.918 C 123.556 357.222 143.219 378.598 148.270 382.904 C 168.139 399.841 210.484 481.737 225.022 478.988 C 241.798 475.815 251.286 446.887 257.001 431.020 C 261.697 417.984 260.840 329.738 260.199 315.896 C 259.475 300.252 245.751 198.532 244.344 186.699 C 243.123 176.429 226.926 87.286 231.418 74.455 C 232.885 70.264 238.469 47.619 255.208 46.239 C 269.416 45.067 277.307 58.910 279.386 61.664 C 287.965 73.026 298.740 167.414 301.141 177.977 C 303.569 188.655 319.063 287.525 332.151 293.511 C 334.107 294.405 348.123 291.731 349.740 290.313 C 360.335 281.026 359.383 184.365 360.022 173.664 C 360.755 161.378 355.860 53.181 364.130 39.279 C 365.981 36.168 373.141 20.380 388.096 21.094 C 401.198 21.720 408.779 36.263 410.499 39.279 C 418.329 53.005 413.851 158.554 414.549 170.556 C 415.197 181.687 413.765 282.375 424.890 291.912 C 426.811 293.559 443.443 296.299 445.677 295.110 C 457.079 289.042 463.159 199.157 464.858 189.477 C 466.525 179.982 474.760 95.716 482.452 85.648 C 484.663 82.755 495.288 66.758 508.470 70.186 C 520.827 73.399 527.655 95.851 528.821 100.039 C 532.184 112.117 516.145 193.867 515.405 203.377 C 514.457 215.560 504.090 322.995 512.251 336.828 C 513.433 338.831 525.500 348.629 527.804 348.311 C 540.977 346.495 552.866 251.073 555.005 241.184 C 556.792 232.924 565.508 161.227 571.411 150.331 C 573.020 147.362 585.203 134.748 596.368 137.474 C 606.942 140.055 614.039 158.814 615.165 162.398 C 619.466 176.089 600.704 269.791 599.286 280.618 C 596.564 301.402 578.287 481.375 570.394 507.770 C 564.903 526.132 546.409 615.610 502.088 651.674 C 460.886 685.201 416.365 690.192 388.101 691.188 Z"/>
</g>
</svg>
