<?xml version="1.0" encoding="utf-8"?>
<!-- Generator: Moho 12.5 build 22414 -->
<!DOCTYPE svg PUBLIC "-//W3C//DTD SVG 1.1//EN" "http://www.w3.org/Graphics/SVG/1.1/DTD/svg11.dtd">
<svg version="1.1" id="Frame_0" xmlns="http://www.w3.org/2000/svg" xmlns:xlink="http://www.w3.org/1999/xlink" width="720px" height="720px">
<g id="hand_point">
<g id="hand_point">
<path fill="#ffffff" fill-rule="evenodd" stroke="#000000" stroke-width="4" stroke-linecap="round" stroke-linejoin="round" d="M 470.929 634.844 C 577.785 549.185 531.429 383.658 538.718 341.937 C 547.727 290.360 586.664 250.483 579.267 234.236 C 567.285 207.920 520.035 228.673 494.645 269.841 C 453.050 337.285 465.988 395.843 461.969 447.776 C 464.484 287.525 475.655 94.573 461.667 43.207 C 460.250 38.004 446.571 12.392 426.417 15.526 C 399.838 19.658 399.281 57.922 398.835 72.836 C 395.842 172.870 390.477 275.287 390.474 275.296 C 390.469 275.292 372.484 260.712 359.653 260.163 C 320.877 258.504 312.194 276.071 308.015 273.720 C 294.727 266.244 276.621 256.282 247.086 276.874 C 236.718 284.102 233.586 296.499 233.584 296.502 C 233.571 296.510 186.373 282.793 163.111 335.349 C 154.185 355.517 149.142 400.943 157.506 489.558 C 178.590 712.930 406.511 686.483 470.929 634.844 Z"/>
<path fill="none" stroke="#000000" stroke-width="4" stroke-linecap="round" stroke-linejoin="round" d=""/>
<path fill="none" stroke="#000000" stroke-width="4" stroke-linecap="round" stroke-linejoin="round" d="M 390.474 275.296 C 407.488 292.085 418.787 346.492 419.198 358.570 C 419.584 369.919 422.649 419.177 397.887 438.552 C 379.311 453.086 346.685 452.450 335.903 442.197 M 264.894 444.268 C 272.164 453.155 304.130 461.952 322.388 450.737 C 356.693 429.667 348.330 375.271 343.856 344.435 C 337.385 299.844 322.314 284.052 308.015 273.720 M 195.903 370.458 C 210.869 367.056 221.136 375.885 220.701 407.185 M 233.584 296.502 C 233.588 296.514 288.189 295.881 272.641 417.381 C 270.158 436.780 258.026 465.273 231.042 470.387 C 187.232 478.690 175.693 434.964 175.190 418.546 C 174.461 394.724 177.149 374.155 195.903 370.458 "/>
</g>
<g id="specs">
<path fill="#ff00ff" fill-rule="evenodd" stroke="none" d="M 462.764 619.124 C 462.741 619.124 231.685 619.124 231.662 619.124 C 231.662 619.106 231.662 430.610 231.662 430.591 C 231.685 430.591 462.741 430.591 462.764 430.591 C 462.764 430.610 462.764 619.106 462.764 619.124 Z"/>
<path fill="#ff0000" fill-rule="evenodd" stroke="none" d="M 346.099 677.680 C 346.098 677.683 334.046 711.432 334.044 711.435 C 334.046 711.434 346.098 700.219 346.099 700.218 C 346.101 700.219 358.153 711.434 358.155 711.435 C 358.153 711.432 346.101 677.683 346.099 677.680 Z"/>
<path fill="#0000ff" fill-rule="evenodd" stroke="none" d="M 428.539 3.845 C 428.539 3.847 421.538 23.451 421.537 23.452 C 421.538 23.452 428.539 16.938 428.539 16.937 C 428.540 16.938 435.541 23.452 435.542 23.452 C 435.541 23.451 428.540 3.847 428.539 3.845 Z"/>
<path fill="#00ff00" fill-rule="evenodd" stroke="none" d="M 553.565 486.894 C 553.563 486.893 533.995 479.793 533.993 479.792 C 533.994 479.793 540.472 486.827 540.473 486.828 C 540.472 486.828 533.923 493.797 533.922 493.797 C 533.924 493.797 553.563 486.895 553.565 486.894 Z"/>
<path fill="#ffff00" fill-rule="evenodd" stroke="none" d="M 479.383 634.913 C 479.382 634.911 470.693 615.994 470.692 615.992 C 470.692 615.993 470.235 625.546 470.235 625.547 C 470.234 625.547 460.674 625.778 460.673 625.778 C 460.675 625.779 479.381 634.912 479.383 634.913 Z"/>
<path fill="#ffff00" fill-rule="evenodd" stroke="none" d="M 211.531 634.681 C 211.532 634.679 220.598 615.940 220.599 615.939 C 220.599 615.940 220.865 625.499 220.865 625.500 C 220.866 625.500 230.419 625.924 230.420 625.924 C 230.419 625.925 211.533 634.680 211.531 634.681 Z"/>
<path fill="#00ff00" fill-rule="evenodd" stroke="none" d="M 145.034 486.894 C 145.036 486.893 164.604 479.793 164.606 479.792 C 164.605 479.793 158.126 486.827 158.126 486.828 C 158.126 486.828 164.676 493.797 164.676 493.797 C 164.674 493.797 145.036 486.895 145.034 486.894 Z"/>
<path fill="#00ffff" fill-rule="evenodd" stroke="none" d="M 182.585 294.432 C 182.586 294.434 189.535 314.056 189.536 314.058 C 189.536 314.057 190.852 304.585 190.852 304.584 C 190.853 304.584 200.395 305.214 200.396 305.214 C 200.395 305.213 182.587 294.433 182.585 294.432 Z"/>
<path fill="#00ffff" fill-rule="evenodd" stroke="none" d="M 583.449 226.772 C 583.448 226.773 575.206 245.889 575.205 245.891 C 575.205 245.890 574.523 236.351 574.523 236.350 C 574.522 236.350 564.960 236.342 564.959 236.342 C 564.961 236.342 583.447 226.772 583.449 226.772 Z"/>
<path fill="#be0027" fill-rule="evenodd" stroke="none" d="M 345.580 677.974 C 345.579 677.972 336.810 653.418 336.809 653.415 C 336.810 653.416 345.579 661.575 345.580 661.576 C 345.581 661.575 354.350 653.416 354.351 653.415 C 354.350 653.418 345.581 677.972 345.580 677.974 Z"/>
</g>
</g>
</svg>
