<?xml version="1.0" encoding="utf-8"?>
<!-- Generator: Moho 12.5 build 22414 -->
<!DOCTYPE svg PUBLIC "-//W3C//DTD SVG 1.1//EN" "http://www.w3.org/Graphics/SVG/1.1/DTD/svg11.dtd">
<svg version="1.1" id="Frame_0" xmlns="http://www.w3.org/2000/svg" xmlns:xlink="http://www.w3.org/1999/xlink" width="720px" height="720px">
<g id="hands_giving">
<g id="hands_giving">
<path fill="#ffffff" fill-rule="evenodd" stroke="#000000" stroke-width="4" stroke-linecap="round" stroke-linejoin="round" d="M 636.405 394.733 C 636.401 394.728 653.728 360.025 655.910 356.724 C 661.013 349.007 675.452 341.537 680.013 346.336 C 690.288 357.149 645.883 467.807 593.539 519.897 C 555.517 557.734 500.880 566.792 444.758 617.229 C 416.538 642.591 335.899 610.387 387.514 527.172 C 401.544 504.553 432.183 460.302 445.920 451.084 C 473.674 432.459 502.280 402.296 516.030 404.819 C 518.668 405.303 532.966 403.120 513.976 439.626 C 507.114 452.817 459.014 468.477 459.892 502.959 C 460.058 509.503 508.484 495.546 535.415 483.453 C 544.170 479.521 552.470 453.978 558.839 437.300 C 564.232 423.179 548.107 407.520 553.044 388.542 C 554.394 383.354 559.243 376.432 560.762 376.219 C 565.617 375.539 581.955 417.589 581.955 417.589 C 581.954 417.589 583.060 413.616 583.874 411.635 C 585.022 408.843 575.143 374.686 579.541 358.570 C 581.538 351.253 587.791 343.730 589.694 343.581 C 595.614 343.119 609.473 396.082 609.473 396.082 C 609.470 396.080 618.808 354.090 628.242 338.773 C 634.168 329.152 645.608 325.781 646.271 327.901 C 652.958 330.391 636.413 394.736 636.405 394.733 Z"/>
<path fill="none" stroke="#000000" stroke-width="4" stroke-linecap="round" stroke-linejoin="round" d="M 581.955 417.589 C 575.297 443.240 570.371 455.897 567.882 473.872 M 609.473 396.082 C 598.338 424.372 591.638 445.256 588.105 464.723 M 636.405 394.733 C 636.403 394.738 625.641 422.310 616.671 436.934 C 598.183 467.078 575.732 471.468 554.041 479.737 "/>
<path fill="#ffffff" fill-rule="evenodd" stroke="#000000" stroke-width="4" stroke-linecap="round" stroke-linejoin="round" d="M 83.595 394.733 C 83.599 394.728 66.272 360.025 64.090 356.724 C 58.987 349.006 44.548 341.537 39.987 346.336 C 29.713 357.149 74.117 467.808 126.461 519.897 C 164.483 557.734 219.120 566.792 275.242 617.229 C 303.462 642.591 384.101 610.387 332.486 527.171 C 318.457 504.553 287.817 460.303 274.080 451.084 C 246.326 432.459 217.721 402.296 203.970 404.819 C 201.332 405.303 187.034 403.120 206.024 439.626 C 212.886 452.817 260.986 468.477 260.109 502.959 C 259.942 509.503 211.516 495.546 184.585 483.452 C 175.830 479.521 167.530 453.978 161.161 437.300 C 155.768 423.179 171.893 407.520 166.956 388.542 C 165.606 383.354 160.757 376.432 159.238 376.219 C 154.383 375.539 138.046 417.589 138.046 417.589 C 138.046 417.589 136.940 413.616 136.126 411.635 C 134.978 408.843 144.857 374.686 140.459 358.570 C 138.462 351.253 132.209 343.730 130.306 343.581 C 124.386 343.119 110.528 396.082 110.528 396.082 C 110.531 396.080 101.192 354.090 91.758 338.773 C 85.832 329.152 74.392 325.781 73.729 327.900 C 67.043 330.391 83.587 394.736 83.595 394.733 Z"/>
<path fill="none" stroke="#000000" stroke-width="4" stroke-linecap="round" stroke-linejoin="round" d="M 138.046 417.589 C 144.703 443.240 149.630 455.897 152.118 473.872 M 110.528 396.082 C 121.662 424.371 128.362 445.256 131.895 464.723 M 83.595 394.733 C 83.597 394.737 94.359 422.310 103.329 436.934 C 121.817 467.078 144.268 471.468 165.959 479.737 "/>
</g>
<g id="specs_2">
<path fill="#ff00ff" fill-rule="evenodd" stroke="none" d="M 90.822 402.567 C 90.876 402.567 629.125 402.567 629.178 402.567 C 629.178 402.529 629.178 22.733 629.178 22.695 C 629.125 22.695 90.876 22.695 90.822 22.695 C 90.822 22.733 90.822 402.529 90.822 402.567 Z"/>
<path fill="#ff0000" fill-rule="evenodd" stroke="none" d="M 360.000 678.984 C 360.001 678.987 371.521 711.243 371.522 711.246 C 371.521 711.245 360.001 700.526 360.000 700.525 C 359.999 700.526 348.479 711.245 348.478 711.246 C 348.479 711.243 359.999 678.987 360.000 678.984 Z"/>
<path fill="#0000ff" fill-rule="evenodd" stroke="none" d="M 360.000 10.308 C 360.001 10.309 366.692 29.046 366.693 29.048 C 366.692 29.048 360.001 22.822 360.000 22.821 C 359.999 22.822 353.308 29.048 353.307 29.048 C 353.308 29.046 359.999 10.309 360.000 10.308 Z"/>
<path fill="#00ff00" fill-rule="evenodd" stroke="none" d="M 116.926 517.325 C 116.928 517.325 131.288 512.114 131.290 512.113 C 131.289 512.114 126.535 517.276 126.534 517.277 C 126.535 517.277 131.341 522.391 131.341 522.391 C 131.340 522.391 116.928 517.326 116.926 517.325 Z"/>
<path fill="#ffff00" fill-rule="evenodd" stroke="none" d="M 260.456 609.669 C 260.456 609.668 264.137 601.653 264.138 601.653 C 264.138 601.653 264.331 605.700 264.331 605.700 C 264.332 605.700 268.382 605.799 268.383 605.799 C 268.382 605.799 260.456 609.669 260.456 609.669 Z"/>
<path fill="#ffff00" fill-rule="evenodd" stroke="none" d="M 459.544 609.571 C 459.544 609.570 455.703 601.630 455.702 601.629 C 455.702 601.630 455.590 605.680 455.590 605.681 C 455.589 605.681 451.541 605.860 451.541 605.860 C 451.542 605.861 459.544 609.571 459.544 609.571 Z"/>
<path fill="#00ff00" fill-rule="evenodd" stroke="none" d="M 603.074 517.325 C 603.072 517.325 588.712 512.114 588.711 512.113 C 588.711 512.114 593.465 517.276 593.466 517.277 C 593.465 517.277 588.659 522.391 588.659 522.391 C 588.660 522.391 603.072 517.326 603.074 517.325 Z"/>
<path fill="#00ffff" fill-rule="evenodd" stroke="none" d="M 685.933 338.716 C 685.932 338.718 676.253 366.049 676.252 366.052 C 676.252 366.050 674.419 352.857 674.419 352.856 C 674.417 352.856 661.127 353.733 661.125 353.733 C 661.128 353.732 685.930 338.717 685.933 338.716 Z"/>
<path fill="#00ffff" fill-rule="evenodd" stroke="none" d="M 34.171 339.622 C 34.172 339.624 45.652 366.248 45.653 366.251 C 45.653 366.250 46.602 352.964 46.602 352.962 C 46.604 352.962 59.923 352.952 59.924 352.952 C 59.921 352.951 34.173 339.623 34.171 339.622 Z"/>
<path fill="#be0027" fill-rule="evenodd" stroke="none" d="M 360.000 663.354 C 360.001 663.351 371.521 631.095 371.522 631.092 C 371.521 631.093 360.001 641.811 360.000 641.812 C 359.999 641.811 348.479 631.093 348.478 631.092 C 348.479 631.095 359.999 663.351 360.000 663.354 Z"/>
</g>
</g>
</svg>
