<?xml version="1.0" encoding="utf-8"?>
<!-- Generator: Moho 12.5 build 22414 -->
<!DOCTYPE svg PUBLIC "-//W3C//DTD SVG 1.1//EN" "http://www.w3.org/Graphics/SVG/1.1/DTD/svg11.dtd">
<svg version="1.1" id="Frame_0" xmlns="http://www.w3.org/2000/svg" xmlns:xlink="http://www.w3.org/1999/xlink" width="720px" height="720px">
<g id="hand_relaxed">
<g id="finger">
<path fill="#ffffff" fill-rule="evenodd" stroke="#000000" stroke-width="4" stroke-linejoin="round" d="M 568.725 366.567 C 596.473 340.411 613.764 313.947 617.517 305.492 C 622.903 293.357 657.622 238.289 658.365 215.900 C 659.692 175.916 647.227 91.110 625.356 108.052 C 588.428 136.657 604.320 213.796 604.318 213.807 C 604.313 213.813 559.257 276.670 559.252 276.677 C 559.247 276.684 514.742 323.810 505.549 354.934 C 492.417 399.390 558.914 375.815 568.725 366.567 Z"/>
<path fill="#ffffff" fill-rule="evenodd" stroke="#000000" stroke-width="4" stroke-linejoin="round" d="M 205.120 377.191 C 292.497 332.549 426.295 345.490 468.050 232.178 C 482.703 192.411 481.492 200.785 484.557 190.602 C 493.480 160.952 490.465 165.828 493.892 154.741 C 511.664 97.235 553.579 150.566 531.232 223.590 C 510.598 291.018 497.334 348.492 463.637 392.957 C 452.587 407.538 239.404 526.482 208.587 529.793 C 141.860 536.961 193.001 383.383 205.120 377.191 Z"/>
</g>
<g id="hand_holding">
<path fill="#ffffff" fill-rule="evenodd" stroke="none" d="M 188.820 590.621 C 289.044 564.066 413.577 548.232 441.561 528.536 C 465.298 511.830 592.070 351.957 593.173 337.783 C 593.868 328.850 533.027 207.714 525.167 200.088 C 517.959 193.096 407.486 133.086 397.448 140.810 C 392.422 144.677 390.507 165.542 406.253 188.663 C 410.999 195.632 469.556 233.808 479.389 240.600 C 488.347 246.788 524.571 316.086 524.576 316.094 C 524.564 316.084 464.313 237.280 406.608 221.508 C 397.067 218.900 317.736 179.643 309.125 189.610 C 301.994 197.864 301.602 221.327 320.028 238.155 C 331.807 248.912 416.650 283.278 426.970 294.262 C 429.433 296.883 440.682 319.611 440.684 319.614 C 440.676 319.612 364.656 303.306 359.773 302.432 C 324.937 296.200 286.502 337.475 286.495 337.479 C 286.477 337.485 185.129 320.077 107.174 402.188 C 78.753 432.124 44.999 485.387 71.734 534.071 C 97.593 581.162 175.273 594.211 188.820 590.621 Z"/>
<path fill="none" stroke="#000000" stroke-width="4" stroke-linejoin="round" d="M 524.576 316.094 C 539.990 351.389 508.377 390.355 488.394 447.612 M 479.464 332.315 C 492.631 347.803 462.440 480.535 462.438 480.550 M 440.684 319.614 C 440.688 319.615 470.383 321.634 479.464 332.315 M 345.226 415.981 C 284.595 356.643 171.324 401.177 171.306 401.176 M 397.532 403.809 C 397.527 403.810 346.812 417.534 345.226 415.981 M 408.790 365.578 C 412.112 366.507 397.534 403.805 397.532 403.809 M 362.035 349.350 C 367.224 350.188 402.974 363.952 408.790 365.578 M 326.502 353.893 C 328.452 353.202 353.298 347.938 362.035 349.350 M 286.495 337.479 C 295.076 354.671 322.264 355.394 326.502 353.893 M 71.734 534.071 C 97.593 581.162 175.273 594.211 188.820 590.621 C 289.044 564.066 413.577 548.232 441.561 528.536 C 465.298 511.830 592.070 351.957 593.173 337.783 C 593.868 328.850 533.027 207.714 525.167 200.088 C 517.959 193.096 407.486 133.086 397.448 140.810 C 392.422 144.677 390.507 165.542 406.253 188.663 C 410.999 195.632 469.556 233.808 479.389 240.600 C 488.347 246.788 524.571 316.086 524.576 316.094 C 524.564 316.084 464.313 237.280 406.608 221.508 C 397.067 218.900 317.736 179.643 309.125 189.610 C 301.994 197.864 301.602 221.327 320.028 238.155 C 331.807 248.912 416.650 283.278 426.970 294.262 C 429.433 296.883 440.682 319.611 440.684 319.614 C 440.676 319.612 364.656 303.306 359.773 302.432 C 324.937 296.200 286.502 337.475 286.495 337.479 C 286.477 337.485 185.129 320.077 107.174 402.188 C 78.753 432.124 44.999 485.387 71.734 534.071 "/>
</g>
<g id="specs_2">
<path fill="#ff0000" fill-rule="evenodd" stroke="none" d="M 81.842 565.299 C 81.841 565.302 67.822 598.150 67.821 598.154 C 67.821 598.152 66.591 581.791 66.591 581.789 C 66.589 581.789 50.182 581.838 50.180 581.838 C 50.183 581.837 81.839 565.300 81.842 565.299 Z"/>
<path fill="#0000ff" fill-rule="evenodd" stroke="none" d="M 629.841 97.825 C 629.842 97.827 637.524 117.949 637.525 117.951 C 637.524 117.951 630.136 111.369 630.135 111.369 C 630.134 111.369 623.038 118.265 623.037 118.266 C 623.038 118.264 629.841 97.827 629.841 97.825 Z"/>
<path fill="#00ff00" fill-rule="evenodd" stroke="none" d="M 95.546 398.007 C 95.548 398.007 116.445 403.229 116.447 403.229 C 116.446 403.229 106.819 405.520 106.818 405.520 C 106.818 405.521 108.409 415.287 108.409 415.288 C 108.408 415.286 95.548 398.008 95.546 398.007 Z"/>
<path fill="#ffff00" fill-rule="evenodd" stroke="none" d="M 52.574 512.269 C 52.576 512.267 68.652 499.155 68.654 499.154 C 68.653 499.155 64.870 507.902 64.870 507.903 C 64.871 507.904 73.323 512.307 73.324 512.308 C 73.321 512.308 52.576 512.269 52.574 512.269 Z"/>
<path fill="#ffff00" fill-rule="evenodd" stroke="none" d="M 224.698 596.443 C 224.698 596.441 224.811 575.695 224.811 575.693 C 224.810 575.694 220.377 584.131 220.376 584.131 C 220.375 584.131 211.641 580.317 211.640 580.316 C 211.642 580.318 224.697 596.441 224.698 596.443 Z"/>
<path fill="#00ff00" fill-rule="evenodd" stroke="none" d="M 391.637 135.470 C 391.638 135.472 398.940 155.736 398.941 155.738 C 398.941 155.737 400.249 145.928 400.249 145.927 C 400.250 145.927 410.127 146.525 410.128 146.525 C 410.126 146.524 391.639 135.471 391.637 135.470 Z"/>
<path fill="#00ffff" fill-rule="evenodd" stroke="none" d="M 442.018 542.254 C 442.018 542.252 440.038 521.601 440.038 521.599 C 440.037 521.600 436.477 530.441 436.477 530.442 C 436.476 530.441 427.402 527.527 427.401 527.527 C 427.403 527.528 442.017 542.253 442.018 542.254 Z"/>
<path fill="#00ffff" fill-rule="evenodd" stroke="none" d="M 299.763 190.617 C 299.764 190.619 313.051 206.552 313.053 206.554 C 313.053 206.553 311.003 197.244 311.003 197.243 C 311.004 197.243 320.139 194.529 320.140 194.529 C 320.138 194.529 299.765 190.618 299.763 190.617 Z"/>
<path fill="#be0027" fill-rule="evenodd" stroke="none" d="M 107.098 579.533 C 107.099 579.531 121.968 565.063 121.969 565.062 C 121.968 565.062 112.845 567.818 112.844 567.818 C 112.844 567.817 109.438 558.916 109.438 558.915 C 109.438 558.917 107.098 579.531 107.098 579.533 Z"/>
<path fill="#ff00ff" fill-rule="evenodd" stroke="none" d="M 524.177 48.755 C 524.186 48.755 618.052 49.042 618.062 49.042 C 618.062 49.056 619.892 192.265 619.892 192.279 C 619.882 192.279 526.016 191.992 526.006 191.992 C 526.006 191.978 524.177 48.769 524.177 48.755 Z"/>
</g>
</g>
</svg>
