<?xml version="1.0" encoding="utf-8"?>
<!-- Generator: Moho 12.5 build 22414 -->
<!DOCTYPE svg PUBLIC "-//W3C//DTD SVG 1.1//EN" "http://www.w3.org/Graphics/SVG/1.1/DTD/svg11.dtd">
<svg version="1.1" id="Frame_0" xmlns="http://www.w3.org/2000/svg" xmlns:xlink="http://www.w3.org/1999/xlink" width="720px" height="720px">
<g id="hands_pair_2">
<g id="hands_pair">
<path fill="#ffffff" fill-rule="evenodd" stroke="#000000" stroke-width="4" stroke-linecap="round" stroke-linejoin="round" d="M 360.000 540.224 C 360.000 554.341 348.527 672.227 518.534 651.799 C 664.232 634.292 668.644 508.347 669.825 489.147 C 670.829 472.820 654.627 384.551 648.853 354.814 C 643.583 327.677 644.543 273.869 633.038 265.867 C 624.322 259.803 601.212 274.630 596.809 286.246 C 590.208 303.666 591.513 330.035 591.032 336.048 C 589.044 360.900 603.290 452.824 603.287 452.836 C 603.287 452.835 569.604 456.472 556.837 460.785 C 547.021 464.100 524.602 477.323 524.599 477.325 C 524.602 477.323 545.587 464.124 554.872 460.802 C 567.350 456.338 600.482 452.593 600.486 452.592 C 600.482 452.558 562.359 120.380 557.098 109.764 C 555.308 106.151 547.782 86.336 532.544 86.955 C 519.614 87.480 514.008 100.818 512.496 103.561 C 506.100 115.163 523.079 324.899 523.081 324.910 C 523.078 324.899 507.850 109.269 504.047 93.036 C 503.108 89.028 499.056 66.582 482.028 66.843 C 465.608 67.095 458.976 89.885 458.432 94.197 C 455.856 114.588 465.722 325.999 465.719 326.010 C 465.721 325.999 456.626 127.015 452.686 114.138 C 451.719 110.976 443.473 95.548 431.194 97.016 C 419.682 98.392 410.772 117.763 409.253 121.406 C 405.342 130.790 413.082 342.087 413.082 342.100 C 413.082 342.091 408.329 185.836 405.904 174.413 C 404.873 169.556 395.583 154.903 383.646 155.515 C 372.176 156.103 360.255 174.732 360.243 178.695 C 360.065 235.144 360.000 500.174 360.000 540.224 C 360.000 554.398 372.300 672.059 201.466 653.157 C 55.610 637.018 51.356 509.704 50.176 490.504 C 49.171 474.177 65.373 385.908 71.147 356.171 C 76.417 329.034 75.457 275.226 86.962 267.224 C 95.678 261.160 118.789 275.987 123.191 287.603 C 129.793 305.023 128.487 331.392 128.968 337.405 C 130.955 362.257 116.710 454.182 116.713 454.193 C 116.713 454.193 150.465 456.444 163.163 460.770 C 173.145 464.171 195.398 478.681 195.402 478.682 C 195.399 478.681 174.586 464.203 165.128 460.787 C 152.723 456.307 119.518 453.950 119.514 453.949 C 119.518 453.915 157.641 121.737 162.902 111.121 C 164.692 107.508 172.218 87.693 187.456 88.312 C 200.386 88.838 205.992 102.175 207.504 104.918 C 213.901 116.520 196.921 326.256 196.919 326.267 C 196.922 326.256 212.150 110.626 215.953 94.393 C 216.892 90.384 220.944 67.940 237.972 68.201 C 254.392 68.453 261.024 91.242 261.568 95.554 C 264.144 115.945 254.278 327.356 254.281 327.368 C 254.279 327.356 263.374 128.372 267.314 115.495 C 268.281 112.333 276.527 96.905 288.806 98.373 C 300.317 99.749 309.228 119.120 310.747 122.763 C 314.658 132.147 306.918 343.444 306.918 343.458 C 306.918 343.449 311.671 187.193 314.096 175.770 C 315.127 170.913 324.417 156.261 336.354 156.873 C 347.824 157.461 359.745 176.089 359.757 180.052 C 359.932 236.289 360.000 500.174 360.000 540.224 Z"/>
</g>
</g>
</svg>
