<?xml version="1.0" encoding="utf-8"?>
<!-- Generator: Moho 12.5 build 22414 -->
<!DOCTYPE svg PUBLIC "-//W3C//DTD SVG 1.1//EN" "http://www.w3.org/Graphics/SVG/1.1/DTD/svg11.dtd">
<svg version="1.1" id="Frame_0" xmlns="http://www.w3.org/2000/svg" xmlns:xlink="http://www.w3.org/1999/xlink" width="720px" height="720px">
<g id="hand_side">
<g id="hand_side">
<path fill="#ffffff" fill-rule="evenodd" stroke="none" d="M 305.534 461.833 C 305.544 461.833 376.944 461.747 402.766 461.037 C 440.913 459.988 448.987 449.639 447.362 429.987 C 446.887 424.246 376.044 432.225 368.406 430.828 C 304.599 419.157 197.072 413.114 153.471 437.993 C 124.780 454.366 97.426 479.825 103.759 523.932 C 110.174 568.618 129.672 619.671 260.208 627.431 C 311.462 630.478 398.512 617.416 432.009 599.566 C 447.154 591.496 488.453 544.736 488.453 544.736 C 488.457 544.734 557.683 508.307 557.690 508.303 C 557.695 508.302 607.193 495.220 607.193 495.220 C 623.726 492.942 673.685 486.189 675.455 477.756 C 677.925 465.991 619.353 465.520 619.353 465.520 C 619.354 465.519 630.831 461.242 628.678 456.703 C 623.279 445.318 514.420 435.768 431.879 458.648 C 409.244 464.789 305.547 461.833 305.534 461.833 Z"/>
<path fill="none" stroke="#000000" stroke-width="4" stroke-linecap="round" stroke-linejoin="round" d="M 411.539 483.329 C 499.560 464.906 518.763 472.183 572.375 466.610 M 481.227 498.813 C 453.611 503.206 448.452 503.126 398.380 511.990 M 619.353 465.520 C 630.790 464.099 677.925 465.991 675.455 477.756 C 673.685 486.189 660.345 488.814 607.193 495.220 C 607.188 495.221 557.695 508.302 557.690 508.303 C 557.683 508.307 488.456 544.734 488.453 544.736 C 488.447 544.742 447.154 591.496 432.009 599.566 C 398.512 617.416 311.470 630.325 260.208 627.431 C 130.085 620.084 110.174 568.618 103.759 523.932 C 97.426 479.824 124.780 454.366 153.471 437.993 C 197.072 413.114 304.599 419.157 368.406 430.828 C 376.044 432.225 446.910 424.244 447.362 429.987 C 448.972 450.465 440.913 459.988 402.766 461.037 C 376.944 461.747 305.544 461.833 305.534 461.833 C 305.547 461.833 409.250 464.812 431.879 458.649 C 514.524 436.138 622.999 445.041 628.678 456.290 C 630.993 460.875 622.461 462.443 619.353 465.520 M 607.193 495.220 C 607.196 495.218 633.889 494.291 639.633 480.144 C 643.647 470.259 586.285 467.472 586.279 467.471 C 586.276 467.472 555.236 464.168 509.969 486.981 C 509.977 486.981 592.373 469.357 595.038 484.921 C 597.042 496.628 557.728 505.833 539.884 517.391 C 528.680 524.648 488.458 544.734 488.453 544.736 M 299.981 461.863 C 300.397 461.813 305.533 461.833 305.534 461.833 M 509.969 486.981 C 509.966 486.982 481.230 498.812 481.227 498.813 C 481.222 498.817 446.901 520.503 432.334 536.670 C 425.186 544.605 374.760 538.471 323.811 561.351 "/>
<path fill="none" stroke="#000000" stroke-width="4" stroke-linecap="round" stroke-linejoin="round" d="M 187.244 494.594 C 304.535 500.056 291.199 462.910 299.981 461.863 "/>
</g>
<g id="specs_2">
<path fill="#ff00ff" fill-rule="evenodd" stroke="none" d="M 173.203 512.726 C 173.238 512.726 524.548 512.726 524.584 512.726 C 524.584 512.691 524.584 161.380 524.584 161.345 C 524.548 161.345 173.238 161.345 173.203 161.345 C 173.203 161.380 173.203 512.691 173.203 512.726 Z"/>
<path fill="#ff0000" fill-rule="evenodd" stroke="none" d="M 45.652 515.916 C 45.649 515.917 14.571 527.016 14.568 527.017 C 14.569 527.016 24.896 515.917 24.897 515.916 C 24.896 515.915 14.569 504.816 14.568 504.815 C 14.571 504.816 45.649 515.915 45.652 515.916 Z"/>
<path fill="#0000ff" fill-rule="evenodd" stroke="none" d="M 388.269 367.174 C 388.270 367.176 394.717 385.229 394.717 385.231 C 394.717 385.230 388.270 379.231 388.269 379.231 C 388.268 379.231 381.821 385.230 381.820 385.231 C 381.821 385.229 388.268 367.176 388.269 367.174 Z"/>
<path fill="#00ff00" fill-rule="evenodd" stroke="none" d="M 160.112 614.648 C 160.111 614.646 153.857 597.410 153.856 597.408 C 153.857 597.409 160.053 603.115 160.054 603.116 C 160.054 603.115 166.192 597.346 166.193 597.346 C 166.192 597.348 160.113 614.646 160.112 614.648 Z"/>
<path fill="#ffff00" fill-rule="evenodd" stroke="none" d="M 687.149 476.916 C 687.147 476.915 669.042 470.617 669.040 470.616 C 669.041 470.617 675.092 477.015 675.093 477.015 C 675.092 477.016 669.147 483.513 669.146 483.513 C 669.148 483.513 687.147 476.917 687.149 476.916 Z"/>
<path fill="#00ff00" fill-rule="evenodd" stroke="none" d="M 160.112 423.660 C 160.111 423.662 153.857 440.898 153.856 440.900 C 153.857 440.899 160.053 435.193 160.054 435.192 C 160.054 435.193 166.192 440.962 166.193 440.962 C 166.192 440.960 160.113 423.662 160.112 423.660 Z"/>
</g>
</g>
</svg>
