<?xml version="1.0" encoding="utf-8"?>
<!-- Generator: Moho 13.0.3 build 635 -->
<!DOCTYPE svg PUBLIC "-//W3C//DTD SVG 1.1//EN" "http://www.w3.org/Graphics/SVG/1.1/DTD/svg11.dtd">
<svg version="1.1" id="Frame_0" xmlns="http://www.w3.org/2000/svg" xmlns:xlink="http://www.w3.org/1999/xlink" width="1280px" height="720px">
<g id="hand">
<path fill="#ffffff" fill-rule="evenodd" stroke="#000000" stroke-width="4" stroke-linecap="round" stroke-linejoin="round" d="M 640.817 437.258 C 625.637 437.793 600.842 431.925 591.680 424.908 C 576.050 412.938 559.603 391.465 556.245 385.438 C 553.357 380.257 539.630 350.903 534.401 341.243 C 528.618 330.561 511.419 314.145 512.560 308.094 C 513.411 303.587 524.914 300.975 529.820 303.148 C 537.162 306.402 544.867 314.778 546.846 316.465 C 554.631 323.101 571.223 355.190 576.919 354.113 C 583.492 352.870 587.210 341.535 589.449 335.318 C 591.289 330.210 590.953 295.633 590.702 290.210 C 590.419 284.080 585.041 244.224 584.490 239.588 C 584.011 235.563 577.665 200.635 579.425 195.608 C 580.000 193.966 582.188 185.093 588.746 184.552 C 594.314 184.093 597.406 189.517 598.220 190.596 C 601.582 195.048 605.803 232.031 606.744 236.170 C 607.695 240.354 613.766 279.093 618.895 281.439 C 619.661 281.789 625.153 280.741 625.786 280.186 C 629.938 276.547 629.565 238.673 629.815 234.480 C 630.102 229.666 628.184 187.272 631.425 181.825 C 632.150 180.606 634.955 174.420 640.815 174.700 C 645.949 174.945 648.919 180.643 649.593 181.825 C 652.661 187.203 650.907 228.559 651.180 233.262 C 651.434 237.624 650.873 277.075 655.232 280.812 C 655.985 281.458 662.501 282.531 663.377 282.065 C 667.844 279.688 670.227 244.469 670.892 240.676 C 671.545 236.955 674.772 203.938 677.786 199.993 C 678.652 198.860 682.816 192.592 687.980 193.935 C 692.822 195.194 695.498 203.991 695.954 205.632 C 697.272 210.364 690.988 242.396 690.698 246.122 C 690.326 250.896 686.264 292.991 689.462 298.411 C 689.925 299.196 694.653 303.035 695.556 302.911 C 700.718 302.199 705.376 264.811 706.214 260.936 C 706.914 257.699 710.329 229.607 712.642 225.338 C 713.273 224.174 718.046 219.232 722.421 220.300 C 726.564 221.311 729.345 228.662 729.786 230.066 C 731.471 235.430 724.120 272.145 723.564 276.387 C 722.498 284.531 715.336 355.048 712.244 365.390 C 710.092 372.585 702.846 407.644 685.480 421.775 C 669.336 434.912 651.892 436.867 640.817 437.258 Z"/>
</g>
</svg>
