<?xml version="1.0" encoding="utf-8"?>
<!-- Generator: Moho 12.5 build 22414 -->
<!DOCTYPE svg PUBLIC "-//W3C//DTD SVG 1.1//EN" "http://www.w3.org/Graphics/SVG/1.1/DTD/svg11.dtd">
<svg version="1.1" id="Frame_0" xmlns="http://www.w3.org/2000/svg" xmlns:xlink="http://www.w3.org/1999/xlink" width="720px" height="720px">
<g id="hand_card_2">
<g id="card">
<path fill="#ffffff" fill-rule="evenodd" stroke="#000000" stroke-width="4" stroke-linejoin="round" d="M 380.920 19.830 C 379.299 17.970 373.821 17.489 373.821 17.488 C 373.800 17.488 171.032 17.488 171.012 17.488 C 171.011 17.488 166.826 17.959 165.052 19.458 C 163.339 20.905 162.388 25.182 162.387 25.183 C 162.387 25.214 162.387 331.913 162.387 331.944 C 162.388 331.945 163.094 335.205 165.908 337.473 C 168.150 339.280 172.088 338.861 172.088 338.861 C 172.108 338.862 372.696 339.373 372.716 339.374 C 372.716 339.373 377.370 339.414 380.276 337.352 C 383.384 335.146 383.136 328.023 383.137 328.022 C 383.137 327.992 382.728 26.538 382.728 26.507 C 382.728 26.507 383.311 22.576 380.920 19.830 Z"/>
</g>
<g id="hand_holding">
<path fill="#000000" fill-rule="evenodd" stroke="#ffffff" stroke-width="4" stroke-linejoin="round" d="M 417.303 521.176 C 382.694 489.263 289.227 393.201 293.027 332.857 C 293.479 325.676 285.593 328.028 285.592 328.027 C 285.594 328.027 298.124 329.633 299.928 329.687 C 305.003 329.837 319.896 318.754 317.787 312.542 C 315.543 305.934 298.221 308.685 291.545 310.360 C 252.610 320.125 205.320 355.192 195.967 392.621 C 191.615 410.034 339.528 605.062 365.984 620.052 C 408.598 644.197 424.605 527.910 417.303 521.176 Z"/>
<path fill="#000000" fill-rule="evenodd" stroke="none" d="M 359.385 666.262 C 302.250 616.649 225.742 566.248 213.736 544.349 C 203.552 525.773 171.871 380.274 175.704 370.632 C 178.120 364.555 256.919 304.737 264.521 302.267 C 271.490 300.002 363.164 296.189 367.259 304.476 C 369.309 308.625 363.858 322.912 346.109 333.001 C 340.759 336.042 290.121 342.235 281.495 343.525 C 273.636 344.701 227.628 378.464 227.623 378.468 C 227.633 378.465 292.440 346.195 335.320 354.408 C 342.410 355.766 407.008 355.541 409.446 364.839 C 411.465 372.539 404.181 388.039 386.700 393.143 C 375.524 396.406 308.886 391.654 298.594 395.534 C 296.138 396.460 281.462 407.736 281.460 407.738 C 281.466 407.739 336.517 421.488 339.997 422.485 C 364.826 429.598 376.744 468.997 376.748 469.001 C 376.757 469.011 448.759 490.179 473.447 569.036 C 482.447 597.786 487.445 643.534 454.280 666.841 C 422.200 689.385 367.108 672.968 359.385 666.262 Z"/>
<path fill="none" stroke="#ffffff" stroke-width="4" stroke-linejoin="round" d="M 227.623 378.468 C 206.178 396.640 214.368 432.332 209.059 476.272 M 251.968 403.596 C 238.362 409.512 215.483 506.186 215.479 506.196 M 281.460 407.738 C 281.457 407.737 261.351 399.516 251.968 403.596 M 313.034 501.562 C 371.833 482.169 431.738 547.756 431.750 547.760 M 282.673 476.775 C 282.676 476.777 311.496 502.069 313.034 501.562 M 287.584 448.106 C 285.109 447.647 282.674 476.772 282.673 476.775 M 323.436 452.500 C 319.766 451.381 291.918 448.910 287.584 448.106 M 345.258 466.898 C 344.202 465.818 329.615 454.384 323.436 452.500 M 376.748 469.001 C 365.600 477.508 347.553 469.244 345.258 466.898 M 454.280 666.841 C 422.200 689.385 367.108 672.968 359.385 666.262 C 302.250 616.649 225.742 566.248 213.736 544.349 C 203.552 525.773 171.871 380.274 175.704 370.632 C 178.120 364.555 256.919 304.737 264.521 302.267 C 271.490 300.002 363.164 296.189 367.259 304.476 C 369.309 308.625 363.858 322.912 346.109 333.001 C 340.759 336.042 290.121 342.235 281.495 343.525 C 273.636 344.701 227.628 378.464 227.623 378.468 C 227.633 378.465 292.440 346.195 335.320 354.408 C 342.410 355.766 407.008 355.541 409.446 364.839 C 411.465 372.539 404.181 388.039 386.700 393.143 C 375.524 396.406 308.886 391.654 298.594 395.534 C 296.138 396.460 281.462 407.736 281.460 407.738 C 281.466 407.739 336.517 421.488 339.997 422.485 C 364.826 429.598 376.744 468.997 376.748 469.001 C 376.757 469.011 448.759 490.179 473.447 569.036 C 482.447 597.786 487.445 643.534 454.280 666.841 "/>
</g>
<g id="specs_2">
<path fill="#ff00ff" fill-rule="evenodd" stroke="none" d="M 355.239 297.121 C 355.222 297.121 189.189 297.121 189.172 297.121 C 189.172 297.096 189.172 46.170 189.172 46.145 C 189.189 46.145 355.222 46.145 355.239 46.145 C 355.239 46.170 355.239 297.096 355.239 297.121 Z"/>
<path fill="#ff0000" fill-rule="evenodd" stroke="none" d="M 437.620 684.053 C 437.619 684.056 436.247 710.085 436.247 710.088 C 436.248 710.087 442.312 699.761 442.313 699.760 C 442.314 699.761 453.048 705.067 453.050 705.067 C 453.048 705.065 437.621 684.055 437.620 684.053 Z"/>
<path fill="#0000ff" fill-rule="evenodd" stroke="none" d="M 269.925 9.132 C 269.925 9.133 264.833 23.392 264.832 23.393 C 264.833 23.393 269.925 18.655 269.925 18.654 C 269.926 18.655 275.018 23.393 275.019 23.393 C 275.018 23.392 269.926 9.133 269.925 9.132 Z"/>
<path fill="#00ff00" fill-rule="evenodd" stroke="none" d="M 391.473 185.490 C 391.471 185.490 377.238 180.326 377.237 180.325 C 377.237 180.326 381.950 185.442 381.950 185.442 C 381.950 185.443 377.186 190.511 377.185 190.512 C 377.187 190.511 391.471 185.491 391.473 185.490 Z"/>
<path fill="#ffff00" fill-rule="evenodd" stroke="none" d="M 473.841 658.713 C 473.841 658.712 467.521 644.953 467.521 644.952 C 467.521 644.953 467.188 651.900 467.188 651.901 C 467.187 651.901 460.234 652.070 460.233 652.070 C 460.234 652.070 473.840 658.713 473.841 658.713 Z"/>
<path fill="#ffff00" fill-rule="evenodd" stroke="none" d="M 334.006 658.545 C 334.007 658.544 340.601 644.914 340.601 644.913 C 340.601 644.914 340.795 651.866 340.795 651.867 C 340.795 651.867 347.744 652.175 347.745 652.175 C 347.743 652.176 334.007 658.544 334.006 658.545 Z"/>
<path fill="#00ff00" fill-rule="evenodd" stroke="none" d="M 153.481 185.490 C 153.483 185.490 167.716 180.326 167.717 180.325 C 167.717 180.326 163.004 185.442 163.004 185.442 C 163.004 185.443 167.768 190.511 167.768 190.512 C 167.767 190.511 153.483 185.491 153.481 185.490 Z"/>
<path fill="#00ffff" fill-rule="evenodd" stroke="none" d="M 209.027 553.190 C 209.028 553.189 216.963 540.294 216.964 540.293 C 216.963 540.293 216.455 547.231 216.455 547.231 C 216.455 547.231 223.337 548.238 223.338 548.238 C 223.337 548.239 209.029 553.190 209.027 553.190 Z"/>
<path fill="#00ffff" fill-rule="evenodd" stroke="none" d="M 444.286 501.183 C 444.285 501.184 437.559 514.749 437.559 514.751 C 437.559 514.750 437.432 507.795 437.432 507.794 C 437.432 507.794 430.487 507.420 430.486 507.420 C 430.487 507.419 444.284 501.183 444.286 501.183 Z"/>
<path fill="#be0027" fill-rule="evenodd" stroke="none" d="M 416.496 685.263 C 416.496 685.261 411.404 671.002 411.403 671.001 C 411.404 671.001 416.496 675.739 416.496 675.740 C 416.497 675.739 421.589 671.001 421.590 671.001 C 421.589 671.002 416.497 685.261 416.496 685.263 Z"/>
</g>
</g>
</svg>
