<?xml version="1.0" encoding="utf-8"?>
<!-- Generator: Moho 12.5 build 22414 -->
<!DOCTYPE svg PUBLIC "-//W3C//DTD SVG 1.1//EN" "http://www.w3.org/Graphics/SVG/1.1/DTD/svg11.dtd">
<svg version="1.1" id="Frame_0" xmlns="http://www.w3.org/2000/svg" xmlns:xlink="http://www.w3.org/1999/xlink" width="720px" height="720px">
<g id="hand_card_3">
<g id="Layer_1">
<path fill="#000000" fill-rule="evenodd" stroke="#ffffff" stroke-width="4" stroke-linejoin="round" d="M 202.133 468.700 C 198.503 453.097 230.501 349.594 236.338 341.426 C 241.110 334.747 300.302 289.609 324.846 279.950 C 334.576 276.120 407.949 267.427 410.311 270.178 C 411.185 271.196 426.708 285.464 408.720 301.996 C 392.597 316.814 346.913 326.310 346.907 326.313 C 346.902 326.315 298.857 353.060 298.013 354.136 C 297.157 355.227 282.476 409.035 282.474 409.041 C 282.476 409.035 297.328 356.571 299.088 353.711 C 299.851 352.471 346.793 327.517 346.798 327.515 C 346.802 327.514 372.364 313.338 390.214 322.281 C 399.868 327.117 424.101 377.925 424.862 381.995 C 426.343 389.916 424.733 394.160 418.990 397.515 C 417.459 398.410 397.583 403.312 385.229 392.116 C 376.502 384.208 363.614 360.521 363.612 360.518 C 363.607 360.522 318.275 406.650 318.270 406.654 C 318.275 406.650 363.625 361.634 363.630 361.629 C 363.632 361.632 376.939 384.228 385.617 392.014 C 399.064 404.081 418.052 398.171 418.056 398.171 C 418.057 398.172 425.026 399.389 427.249 408.245 C 428.343 412.607 420.571 472.545 410.745 479.376 C 396.226 489.469 384.480 472.939 381.980 468.366 C 375.092 455.770 379.048 421.129 379.047 421.124 C 379.048 421.123 380.837 412.467 380.837 412.466 C 380.837 412.466 379.139 420.464 379.139 420.465 C 379.138 420.465 370.450 414.136 370.449 414.135 C 370.448 414.137 360.431 432.107 360.430 432.109 C 360.432 432.111 377.557 451.587 377.559 451.589 C 377.560 451.591 378.509 462.102 381.991 468.938 C 383.884 472.652 396.635 489.633 410.090 480.178 C 419.034 473.893 426.980 421.896 426.982 421.890 C 426.983 421.894 438.751 445.104 436.703 465.925 C 436.058 472.492 423.823 496.816 399.462 508.917 C 397.040 510.120 378.927 507.842 375.489 502.182 C 372.040 496.503 383.588 472.943 383.589 472.940 C 383.588 472.943 370.985 496.220 374.748 502.905 C 377.965 508.620 399.327 508.998 400.343 510.532 C 437.876 567.222 442.575 598.248 431.226 626.997 C 414.085 670.420 377.548 669.070 323.838 669.953 C 266.037 670.903 226.040 571.485 202.133 468.700 Z"/>
</g>
<g id="card">
<path fill="#ffffff" fill-rule="evenodd" stroke="#000000" stroke-width="4" stroke-linejoin="round" d="M 386.816 10.645 C 385.223 8.816 379.837 8.343 379.836 8.343 C 379.817 8.343 180.465 8.343 180.445 8.343 C 180.444 8.343 176.330 8.806 174.585 10.280 C 172.902 11.703 171.966 15.907 171.966 15.908 C 171.966 15.938 171.966 317.470 171.966 317.500 C 171.966 317.500 172.661 320.706 175.427 322.936 C 177.631 324.713 181.503 324.301 181.503 324.301 C 181.523 324.301 378.731 324.804 378.750 324.804 C 378.751 324.804 383.326 324.844 386.183 322.817 C 389.239 320.648 388.995 313.645 388.995 313.644 C 388.995 313.615 388.594 17.240 388.594 17.210 C 388.594 17.209 389.167 13.345 386.816 10.645 Z"/>
</g>
<g id="Layer_10">
<path fill="#000000" fill-rule="evenodd" stroke="#ffffff" stroke-width="4" stroke-linejoin="round" d="M 403.385 617.067 C 412.673 598.887 412.141 557.257 388.271 510.475 C 372.390 479.351 339.068 461.667 338.087 459.372 C 337.196 457.287 335.504 403.877 335.546 394.349 C 335.605 381.194 327.046 330.799 322.973 324.144 C 320.065 319.391 312.649 294.797 283.200 292.325 C 259.526 290.338 261.022 330.567 260.903 331.135 C 260.723 331.988 269.917 369.328 269.846 397.786 C 269.844 398.372 267.122 439.569 265.339 459.278 C 260.850 508.907 235.311 539.304 240.098 580.955 C 241.866 596.340 240.696 631.411 303.952 668.772 C 381.802 683.247 393.715 635.991 403.385 617.067 Z"/>
</g>
<g id="specs_2">
<path fill="#ff00ff" fill-rule="evenodd" stroke="none" d="M 361.568 286.916 C 361.552 286.916 198.316 286.916 198.299 286.916 C 198.299 286.891 198.299 36.542 198.299 36.517 C 198.316 36.517 361.552 36.517 361.568 36.517 C 361.568 36.542 361.568 286.891 361.568 286.916 Z"/>
<path fill="#ff0000" fill-rule="evenodd" stroke="none" d="M 362.450 689.790 C 362.449 689.793 355.438 713.543 355.437 713.545 C 355.438 713.544 363.320 705.341 363.321 705.340 C 363.322 705.341 372.071 712.613 372.072 712.613 C 372.071 712.611 362.451 689.792 362.450 689.790 Z"/>
<path fill="#0000ff" fill-rule="evenodd" stroke="none" d="M 277.692 0.127 C 277.691 0.128 272.685 14.147 272.685 14.148 C 272.685 14.148 277.691 9.490 277.692 9.489 C 277.692 9.490 282.699 14.148 282.699 14.148 C 282.699 14.147 277.692 0.128 277.692 0.127 Z"/>
<path fill="#00ff00" fill-rule="evenodd" stroke="none" d="M 397.191 173.514 C 397.190 173.514 383.197 168.436 383.195 168.436 C 383.196 168.436 387.828 173.467 387.829 173.467 C 387.828 173.467 383.145 178.450 383.145 178.451 C 383.146 178.450 397.190 173.515 397.191 173.514 Z"/>
<path fill="#ffff00" fill-rule="evenodd" stroke="none" d="M 425.089 659.139 C 425.089 659.137 418.191 644.121 418.191 644.119 C 418.191 644.120 417.827 651.703 417.827 651.704 C 417.827 651.704 410.237 651.888 410.237 651.888 C 410.238 651.888 425.088 659.138 425.089 659.139 Z"/>
<path fill="#ffff00" fill-rule="evenodd" stroke="none" d="M 272.467 658.955 C 272.468 658.954 279.665 644.078 279.666 644.076 C 279.666 644.077 279.877 651.666 279.877 651.667 C 279.877 651.667 287.462 652.003 287.462 652.003 C 287.461 652.004 272.469 658.954 272.467 658.955 Z"/>
<path fill="#00ff00" fill-rule="evenodd" stroke="none" d="M 163.210 173.514 C 163.211 173.514 177.204 168.436 177.206 168.436 C 177.205 168.436 172.572 173.467 172.572 173.467 C 172.572 173.467 177.256 178.450 177.256 178.451 C 177.255 178.450 163.211 173.515 163.210 173.514 Z"/>
<path fill="#be0027" fill-rule="evenodd" stroke="none" d="M 357.923 677.984 C 357.922 677.982 353.084 664.435 353.084 664.434 C 353.084 664.435 357.922 668.936 357.923 668.936 C 357.923 668.936 362.761 664.435 362.762 664.434 C 362.761 664.435 357.923 677.982 357.923 677.984 Z"/>
<path fill="#00ff00" fill-rule="evenodd" stroke="none" d="M 225.889 567.998 C 225.891 567.997 239.517 563.053 239.518 563.052 C 239.518 563.053 235.006 567.951 235.006 567.952 C 235.006 567.952 239.567 572.804 239.567 572.805 C 239.566 572.804 225.891 567.998 225.889 567.998 Z"/>
<path fill="#00ff00" fill-rule="evenodd" stroke="none" d="M 438.551 567.998 C 438.550 567.997 424.924 563.053 424.923 563.052 C 424.923 563.053 429.434 567.951 429.435 567.952 C 429.434 567.952 424.874 572.804 424.873 572.805 C 424.875 572.804 438.550 567.998 438.551 567.998 Z"/>
</g>
</g>
</svg>
