<?xml version="1.0" encoding="utf-8"?>
<!-- Generator: Moho 12.5 build 22414 -->
<!DOCTYPE svg PUBLIC "-//W3C//DTD SVG 1.1//EN" "http://www.w3.org/Graphics/SVG/1.1/DTD/svg11.dtd">
<svg version="1.1" id="Frame_0" xmlns="http://www.w3.org/2000/svg" xmlns:xlink="http://www.w3.org/1999/xlink" width="720px" height="720px">
<g id="hand_point_2">
<g id="hand_point">
<path fill="#ffffff" fill-rule="evenodd" stroke="#000000" stroke-width="4" stroke-linecap="round" stroke-linejoin="round" d="M 383.197 665.922 C 344.996 667.269 282.268 652.926 259.542 634.844 C 226.255 608.359 192.880 572.180 185.342 547.497 C 175.773 516.165 181.840 390.721 172.546 346.916 C 161.469 294.704 123.365 252.853 131.997 236.833 C 139.806 222.341 182.697 230.683 195.969 244.640 C 214.948 264.598 228.887 300.928 233.165 308.752 C 239.348 320.062 253.841 365.828 253.843 365.834 C 253.843 365.829 254.412 332.343 255.426 318.536 C 255.626 315.809 256.972 298.603 257.082 295.871 C 257.743 279.428 256.524 171.615 256.597 159.094 C 256.660 148.484 252.043 55.653 258.333 43.207 C 260.308 39.300 268.665 17.873 285.206 18.667 C 299.247 19.341 305.142 33.913 306.869 36.844 C 314.200 49.280 316.697 145.406 317.736 156.341 C 318.771 167.235 329.522 275.285 329.526 275.296 C 329.531 275.292 356.264 260.796 360.347 260.163 C 388.490 255.799 408.163 274.378 411.985 273.720 C 433.484 270.018 452.918 262.624 472.914 276.874 C 483.444 284.378 486.671 296.989 486.673 296.992 C 486.686 297.000 534.388 284.652 556.889 338.317 C 565.251 358.260 566.648 464.843 561.447 489.558 C 555.697 516.879 538.007 592.488 495.592 626.960 C 454.947 659.995 411.066 664.940 383.197 665.922 Z"/>
</g>
<g id="specs">
<path fill="#ff00ff" fill-rule="evenodd" stroke="none" d="M 278.661 582.492 C 278.683 582.492 496.785 582.492 496.807 582.492 C 496.807 582.469 496.807 349.848 496.807 349.825 C 496.785 349.825 278.683 349.825 278.661 349.825 C 278.661 349.848 278.661 582.469 278.661 582.492 Z"/>
<path fill="#ff0000" fill-rule="evenodd" stroke="none" d="M 373.901 677.680 C 373.902 677.683 385.954 711.432 385.956 711.435 C 385.954 711.434 373.902 700.219 373.901 700.218 C 373.899 700.219 361.847 711.434 361.845 711.435 C 361.847 711.432 373.899 677.683 373.901 677.680 Z"/>
<path fill="#0000ff" fill-rule="evenodd" stroke="none" d="M 283.084 4.892 C 283.085 4.894 290.086 24.498 290.087 24.500 C 290.086 24.499 283.085 17.985 283.084 17.984 C 283.084 17.985 276.082 24.499 276.082 24.500 C 276.082 24.498 283.084 4.894 283.084 4.892 Z"/>
<path fill="#00ff00" fill-rule="evenodd" stroke="none" d="M 166.435 486.894 C 166.437 486.893 186.005 479.793 186.007 479.792 C 186.007 479.793 179.528 486.827 179.527 486.828 C 179.528 486.828 186.077 493.797 186.078 493.797 C 186.076 493.797 166.437 486.895 166.435 486.894 Z"/>
<path fill="#ffff00" fill-rule="evenodd" stroke="none" d="M 240.617 634.913 C 240.618 634.911 249.307 615.994 249.308 615.992 C 249.308 615.993 249.765 625.546 249.765 625.547 C 249.766 625.547 259.326 625.778 259.327 625.778 C 259.325 625.779 240.619 634.912 240.617 634.913 Z"/>
<path fill="#ffff00" fill-rule="evenodd" stroke="none" d="M 508.469 634.681 C 508.468 634.679 499.402 615.940 499.401 615.939 C 499.401 615.940 499.135 625.499 499.135 625.500 C 499.134 625.500 489.581 625.924 489.580 625.924 C 489.581 625.925 508.467 634.680 508.469 634.681 Z"/>
<path fill="#00ff00" fill-rule="evenodd" stroke="none" d="M 574.966 486.894 C 574.964 486.893 555.396 479.793 555.394 479.792 C 555.395 479.793 561.874 486.827 561.874 486.828 C 561.874 486.828 555.324 493.797 555.324 493.797 C 555.326 493.797 574.964 486.895 574.966 486.894 Z"/>
<path fill="#00ffff" fill-rule="evenodd" stroke="none" d="M 530.085 295.479 C 530.085 295.481 523.135 315.103 523.135 315.105 C 523.135 315.104 521.819 305.632 521.818 305.631 C 521.818 305.631 512.275 306.261 512.274 306.261 C 512.276 306.260 530.084 295.480 530.085 295.479 Z"/>
<path fill="#00ffff" fill-rule="evenodd" stroke="none" d="M 126.081 273.888 C 126.082 273.890 134.324 293.006 134.325 293.008 C 134.325 293.007 135.006 283.468 135.006 283.467 C 135.007 283.467 144.570 283.459 144.571 283.459 C 144.569 283.458 126.083 273.889 126.081 273.888 Z"/>
<path fill="#be0027" fill-rule="evenodd" stroke="none" d="M 374.420 677.974 C 374.421 677.972 383.190 653.418 383.191 653.415 C 383.190 653.416 374.421 661.575 374.420 661.576 C 374.419 661.575 365.650 653.416 365.649 653.415 C 365.650 653.418 374.419 677.972 374.420 677.974 Z"/>
</g>
</g>
</svg>
