<?xml version="1.0" encoding="utf-8"?>
<!-- Generator: Moho 12.5 build 22414 -->
<!DOCTYPE svg PUBLIC "-//W3C//DTD SVG 1.1//EN" "http://www.w3.org/Graphics/SVG/1.1/DTD/svg11.dtd">
<svg version="1.1" id="Frame_0" xmlns="http://www.w3.org/2000/svg" xmlns:xlink="http://www.w3.org/1999/xlink" width="720px" height="720px">
<g id="halves">
<g id="hand_half">
<g id="Hand_open_3/4">
<path fill="#ffffff" fill-rule="evenodd" stroke="#000000" stroke-width="4" stroke-linecap="round" stroke-linejoin="round" d="M 193.830 540.000 C 193.830 539.997 192.786 518.898 192.842 514.995 C 193.134 494.556 194.482 382.960 194.841 345.108 C 195.125 315.199 180.493 258.608 190.753 247.444 C 198.609 238.897 226.799 249.236 234.256 260.587 C 245.439 277.608 250.349 306.047 252.251 312.361 C 259.734 337.206 252.439 442.082 264.684 433.941 C 274.796 427.219 273.292 399.891 275.243 385.527 C 277.029 372.367 275.324 288.425 275.413 275.145 C 275.489 263.833 276.342 189.731 276.514 181.125 C 276.721 170.766 274.008 80.332 279.743 67.980 C 281.599 63.982 288.375 41.803 305.045 41.480 C 319.190 41.207 326.222 55.371 328.013 58.289 C 335.428 70.375 332.765 165.244 333.268 176.021 C 333.791 187.238 332.613 298.407 339.231 298.538 C 345.891 298.671 347.890 186.139 347.495 175.393 C 347.052 163.381 342.085 58.900 347.565 44.082 C 349.005 40.187 350.788 17.015 367.950 16.224 C 384.571 15.459 391.394 38.644 393.325 42.602 C 399.902 56.081 400.246 155.643 401.006 167.030 C 401.781 178.651 403.252 294.292 410.108 293.931 C 416.869 293.575 414.047 179.712 413.230 168.530 C 412.546 159.159 409.709 76.886 415.377 65.915 C 417.036 62.704 424.214 45.025 437.710 45.822 C 450.363 46.570 461.347 67.130 463.252 71.002 C 468.479 81.629 467.520 160.321 468.087 169.313 C 468.980 183.489 472.564 323.482 480.171 324.004 C 485.740 324.386 479.502 230.531 480.270 220.572 C 481.028 210.740 475.455 142.109 477.482 128.389 C 478.202 123.521 485.683 107.906 497.524 107.513 C 508.234 107.158 519.089 124.199 520.972 127.381 C 528.157 139.521 532.689 233.257 533.564 243.955 C 535.497 267.614 546.138 460.230 546.851 502.916 C 547.139 520.165 547.814 539.996 547.814 540.000 C 547.778 540.000 193.865 540.000 193.830 540.000 Z"/>
<path fill="none" stroke="#ffffff" stroke-width="4" stroke-linecap="round" stroke-linejoin="round" d="M 547.830 540.000 C 547.794 540.000 193.881 540.000 193.846 540.000 "/>
</g>
<g id="specs_2">
<path fill="#ff00ff" fill-rule="evenodd" stroke="none" d="M 505.701 517.790 C 505.701 517.769 505.701 302.845 505.701 302.824 C 505.679 302.824 285.880 302.824 285.858 302.824 C 285.858 302.845 285.858 517.769 285.858 517.790 C 285.880 517.790 505.679 517.790 505.701 517.790 Z"/>
<path fill="#ff0000" fill-rule="evenodd" stroke="none" d="M 386.858 516.288 C 386.859 516.291 399.274 551.054 399.275 551.057 C 399.274 551.056 386.859 539.504 386.858 539.503 C 386.857 539.504 374.441 551.056 374.440 551.057 C 374.441 551.054 386.857 516.291 386.858 516.288 Z"/>
<path fill="#0000ff" fill-rule="evenodd" stroke="none" d="M 368.601 2.941 C 368.601 2.943 375.813 23.136 375.813 23.138 C 375.813 23.138 368.601 16.428 368.601 16.427 C 368.600 16.428 361.388 23.138 361.388 23.138 C 361.388 23.136 368.600 2.943 368.601 2.941 Z"/>
<path fill="#00ff00" fill-rule="evenodd" stroke="none" d="M 553.991 447.109 C 553.989 447.109 533.832 454.423 533.830 454.424 C 533.831 454.423 540.504 447.177 540.505 447.177 C 540.504 447.176 533.758 439.998 533.758 439.997 C 533.760 439.998 553.989 447.108 553.991 447.109 Z"/>
<path fill="#ffff00" fill-rule="evenodd" stroke="none" d="M 303.611 29.218 C 303.610 29.220 296.297 49.376 296.296 49.378 C 296.297 49.378 303.542 42.704 303.543 42.704 C 303.544 42.704 310.721 49.450 310.722 49.451 C 310.721 49.449 303.612 29.220 303.611 29.218 Z"/>
<path fill="#00ffff" fill-rule="evenodd" stroke="none" d="M 184.336 238.135 C 184.338 238.136 202.844 248.965 202.846 248.966 C 202.845 248.966 193.007 248.464 193.006 248.464 C 193.006 248.465 191.796 258.240 191.796 258.241 C 191.795 258.239 184.337 238.137 184.336 238.135 Z"/>
<path fill="#be0027" fill-rule="evenodd" stroke="none" d="M 386.858 563.425 C 386.859 563.422 399.274 528.659 399.275 528.656 C 399.274 528.657 386.859 540.208 386.858 540.210 C 386.857 540.208 374.442 528.657 374.440 528.656 C 374.442 528.659 386.857 563.422 386.858 563.425 Z"/>
<path fill="none" stroke="#ffff00" stroke-width="4" stroke-linecap="round" stroke-linejoin="round" d="M 547.830 540.000 C 547.794 540.000 193.881 540.000 193.846 540.000 "/>
<path fill="#00ff00" fill-rule="evenodd" stroke="none" d="M 182.324 447.108 C 182.326 447.109 202.482 454.423 202.484 454.424 C 202.484 454.423 195.810 447.177 195.810 447.176 C 195.810 447.176 202.557 439.998 202.557 439.997 C 202.555 439.998 182.326 447.108 182.324 447.108 Z"/>
<path fill="#ffff00" fill-rule="evenodd" stroke="none" d="M 436.201 32.782 C 436.200 32.784 428.886 52.941 428.885 52.943 C 428.886 52.942 436.132 46.269 436.133 46.268 C 436.133 46.269 443.311 53.015 443.312 53.015 C 443.311 53.013 436.201 32.784 436.201 32.782 Z"/>
<path fill="#00ffff" fill-rule="evenodd" stroke="none" d="M 498.218 96.226 C 498.217 96.228 490.904 116.384 490.903 116.386 C 490.904 116.386 498.149 109.712 498.150 109.711 C 498.151 109.712 505.328 116.458 505.329 116.459 C 505.328 116.457 498.219 96.228 498.218 96.226 Z"/>
</g>
</g>
</g>
</svg>
