<?xml version="1.0" encoding="utf-8"?>
<!-- Generator: Moho 12.5 build 22414 -->
<!DOCTYPE svg PUBLIC "-//W3C//DTD SVG 1.1//EN" "http://www.w3.org/Graphics/SVG/1.1/DTD/svg11.dtd">
<svg version="1.1" id="Frame_0" xmlns="http://www.w3.org/2000/svg" xmlns:xlink="http://www.w3.org/1999/xlink" width="720px" height="720px">
<g id="hand_card">
<g id="card">
<path fill="#ffffff" fill-rule="evenodd" stroke="#000000" stroke-width="4" stroke-linejoin="round" d="M 318.897 19.404 C 318.920 19.404 549.575 19.404 549.598 19.404 C 549.598 19.439 549.598 366.455 549.598 366.490 C 549.575 366.490 318.920 366.490 318.897 366.490 C 318.897 366.455 318.897 19.439 318.897 19.404 Z"/>
</g>
<g id="hand_holding">
<path fill="#ffffff" fill-rule="evenodd" stroke="#000000" stroke-width="4" stroke-linejoin="round" d="M 189.098 528.847 C 183.983 542.191 177.683 635.387 227.779 655.672 C 265.078 670.774 306.587 629.738 317.191 613.819 C 331.358 592.550 341.425 536.545 348.263 531.384 C 350.570 529.642 377.430 525.676 377.433 525.676 C 377.430 525.677 355.163 527.983 348.897 533.286 C 340.621 540.290 338.702 555.987 339.385 557.382 C 341.408 561.508 370.455 564.186 381.872 557.383 C 404.172 544.094 411.711 518.912 411.041 513.628 C 408.967 497.253 404.953 492.408 392.017 482.555 C 385.466 477.566 338.757 483.824 338.751 483.824 C 338.757 483.824 385.009 477.003 393.286 483.190 C 411.625 496.900 413.981 518.439 406.602 530.115 C 397.272 544.877 433.305 530.175 436.406 511.091 C 442.641 472.727 417.712 437.329 406.602 432.460 C 398.428 428.878 334.319 436.898 334.312 436.899 C 334.319 436.898 395.741 429.739 405.334 431.826 C 414.210 433.757 430.350 461.369 433.870 471.776 C 436.331 479.052 438.125 506.433 440.845 506.018 C 466.286 502.136 463.127 447.909 460.503 437.533 C 455.055 415.996 422.850 392.891 416.748 387.437 C 400.054 372.514 310.860 392.510 310.850 392.510 C 310.860 392.510 389.371 369.936 416.748 387.437 C 420.555 389.871 436.910 391.513 436.912 391.514 C 436.916 391.515 463.237 406.896 470.015 409.631 C 489.732 417.588 518.213 398.733 507.428 389.974 C 486.106 372.655 467.631 355.843 457.332 351.292 C 429.011 338.779 392.160 331.443 375.530 334.805 C 333.702 343.259 260.706 353.033 246.169 368.413 C 229.817 385.713 212.518 467.742 189.098 528.847 Z"/>
</g>
<g id="specs_2">
<path fill="#ff00ff" fill-rule="evenodd" stroke="none" d="M 337.288 331.813 C 337.307 331.813 531.234 331.813 531.253 331.813 C 531.253 331.784 531.253 34.998 531.253 34.968 C 531.234 34.968 337.307 34.968 337.288 34.968 C 337.288 34.998 337.288 331.784 337.288 331.813 Z"/>
<path fill="#ff0000" fill-rule="evenodd" stroke="none" d="M 221.353 683.911 C 221.353 683.914 221.360 711.204 221.360 711.207 C 221.360 711.206 215.585 700.078 215.585 700.076 C 215.583 700.077 204.068 705.036 204.067 705.036 C 204.069 705.034 221.351 683.913 221.353 683.911 Z"/>
<path fill="#0000ff" fill-rule="evenodd" stroke="none" d="M 437.004 10.654 C 437.004 10.656 442.336 25.585 442.337 25.587 C 442.336 25.586 437.004 20.626 437.004 20.625 C 437.003 20.626 431.672 25.586 431.671 25.587 C 431.672 25.585 437.003 10.656 437.004 10.654 Z"/>
<path fill="#00ff00" fill-rule="evenodd" stroke="none" d="M 309.741 195.306 C 309.743 195.306 324.645 189.899 324.646 189.898 C 324.646 189.899 319.712 195.255 319.712 195.256 C 319.712 195.257 324.700 200.563 324.700 200.564 C 324.699 200.563 309.743 195.307 309.741 195.306 Z"/>
<path fill="#ffff00" fill-rule="evenodd" stroke="none" d="M 192.078 631.963 C 192.079 631.961 198.695 617.555 198.696 617.554 C 198.696 617.555 199.044 624.829 199.044 624.830 C 199.045 624.830 206.325 625.006 206.326 625.006 C 206.325 625.007 192.079 631.962 192.078 631.963 Z"/>
<path fill="#ffff00" fill-rule="evenodd" stroke="none" d="M 315.243 631.786 C 315.243 631.785 308.339 617.514 308.338 617.513 C 308.338 617.514 308.135 624.794 308.135 624.794 C 308.135 624.794 300.859 625.117 300.858 625.117 C 300.860 625.118 315.242 631.785 315.243 631.786 Z"/>
<path fill="#00ff00" fill-rule="evenodd" stroke="none" d="M 558.923 195.306 C 558.922 195.306 544.020 189.899 544.018 189.898 C 544.019 189.899 548.953 195.255 548.953 195.256 C 548.953 195.257 543.965 200.563 543.965 200.564 C 543.966 200.563 558.922 195.307 558.923 195.306 Z"/>
<path fill="#00ffff" fill-rule="evenodd" stroke="none" d="M 510.395 408.149 C 510.394 408.148 502.086 394.646 502.085 394.645 C 502.085 394.646 502.618 401.909 502.618 401.910 C 502.617 401.910 495.411 402.964 495.410 402.964 C 495.412 402.965 510.393 408.149 510.395 408.149 Z"/>
<path fill="#00ffff" fill-rule="evenodd" stroke="none" d="M 204.181 455.978 C 204.182 455.979 214.739 467.805 214.740 467.807 C 214.740 467.806 212.936 460.750 212.936 460.749 C 212.936 460.749 219.843 458.441 219.844 458.441 C 219.842 458.441 204.182 455.978 204.181 455.978 Z"/>
<path fill="#be0027" fill-rule="evenodd" stroke="none" d="M 225.368 669.432 C 225.370 669.430 242.652 648.309 242.654 648.307 C 242.653 648.307 231.138 653.266 231.137 653.267 C 231.136 653.266 225.361 642.137 225.361 642.136 C 225.361 642.139 225.368 669.429 225.368 669.432 Z"/>
</g>
</g>
</svg>
