<?xml version="1.0" encoding="utf-8"?>
<!-- Generator: Moho 12.3 build 22017 -->
<!DOCTYPE svg PUBLIC "-//W3C//DTD SVG 1.1//EN" "http://www.w3.org/Graphics/SVG/1.1/DTD/svg11.dtd">
<svg version="1.1" id="Frame_0" xmlns="http://www.w3.org/2000/svg" xmlns:xlink="http://www.w3.org/1999/xlink" width="720px" height="720px">
<g id="hand">
<g id="hand">
<path fill="#ffffff" fill-rule="evenodd" stroke="#000000" stroke-width="4" stroke-linecap="round" stroke-linejoin="round" d="M 390.967 689.625 C 352.470 690.982 289.590 676.101 266.354 658.305 C 226.717 627.948 185.008 573.493 176.490 558.209 C 169.167 545.070 134.355 470.626 121.094 446.130 C 106.429 419.040 62.810 377.409 65.706 362.063 C 67.863 350.634 97.035 344.008 109.476 349.521 C 128.097 357.773 147.635 379.013 152.654 383.292 C 172.398 400.121 214.474 481.500 228.920 478.768 C 245.591 475.616 255.018 446.870 260.697 431.104 C 265.363 418.150 264.512 330.462 263.875 316.708 C 263.156 301.163 249.518 200.087 248.120 188.330 C 246.907 178.124 230.813 89.546 235.276 76.796 C 236.733 72.632 242.283 50.130 258.915 48.758 C 273.034 47.594 280.875 61.350 282.941 64.086 C 291.465 75.376 302.172 169.166 304.558 179.662 C 306.970 190.273 322.366 288.517 335.371 294.465 C 337.315 295.354 351.242 292.696 352.849 291.288 C 363.377 282.060 362.431 186.010 363.065 175.377 C 363.794 163.169 358.930 55.656 367.148 41.842 C 368.987 38.751 376.102 23.063 390.962 23.773 C 403.981 24.395 411.514 38.846 413.224 41.842 C 421.003 55.482 416.554 160.362 417.248 172.289 C 417.892 183.349 416.469 283.400 427.524 292.876 C 429.433 294.513 445.959 297.236 448.178 296.054 C 459.509 290.024 465.550 200.708 467.238 191.090 C 468.894 181.654 477.077 97.922 484.721 87.918 C 486.917 85.043 497.476 69.148 510.574 72.554 C 522.853 75.747 529.638 98.057 530.797 102.218 C 534.138 114.219 518.201 195.452 517.465 204.902 C 516.523 217.008 506.221 323.763 514.331 337.507 C 515.505 339.498 527.496 349.234 529.786 348.918 C 542.875 347.113 554.690 252.296 556.815 242.469 C 558.591 234.261 567.251 163.018 573.117 152.192 C 574.716 149.241 586.821 136.707 597.916 139.416 C 608.423 141.981 615.475 160.621 616.593 164.182 C 620.867 177.787 602.224 270.895 600.815 281.654 C 598.110 302.306 579.949 481.140 572.106 507.368 C 566.650 525.613 548.273 614.525 504.233 650.361 C 463.292 683.675 419.052 688.635 390.967 689.625 Z"/>
</g>
<g id="arrows">
<path fill="#ff00ff" fill-rule="evenodd" stroke="none" d="M 272.777 612.755 C 272.803 612.755 527.189 612.755 527.215 612.755 C 527.215 612.730 527.215 358.343 527.215 358.318 C 527.189 358.318 272.803 358.318 272.777 358.318 C 272.777 358.343 272.777 612.730 272.777 612.755 Z"/>
<path fill="#ff0000" fill-rule="evenodd" stroke="none" d="M 384.579 662.708 C 384.580 662.711 397.011 697.517 397.012 697.521 C 397.011 697.520 384.580 685.954 384.579 685.952 C 384.578 685.954 372.147 697.520 372.146 697.521 C 372.147 697.517 384.578 662.711 384.579 662.708 Z"/>
<path fill="#0000ff" fill-rule="evenodd" stroke="none" d="M 390.085 8.962 C 390.086 8.964 397.306 29.182 397.307 29.184 C 397.306 29.184 390.086 22.465 390.085 22.465 C 390.084 22.465 382.864 29.184 382.863 29.184 C 382.864 29.182 390.084 8.964 390.085 8.962 Z"/>
<path fill="#00ff00" fill-rule="evenodd" stroke="none" d="M 66.946 342.098 C 66.948 342.099 86.857 350.133 86.859 350.133 C 86.858 350.134 77.040 351.068 77.039 351.068 C 77.039 351.069 77.264 360.929 77.264 360.930 C 77.263 360.928 66.947 342.100 66.946 342.098 Z"/>
<path fill="#ffff00" fill-rule="evenodd" stroke="none" d="M 256.367 668.472 C 256.368 668.470 265.329 648.961 265.330 648.959 C 265.330 648.959 265.801 658.811 265.802 658.812 C 265.803 658.812 275.662 659.051 275.663 659.051 C 275.661 659.052 256.369 668.471 256.367 668.472 Z"/>
<path fill="#ffff00" fill-rule="evenodd" stroke="none" d="M 509.712 666.031 C 509.711 666.029 500.361 646.703 500.360 646.701 C 500.360 646.702 500.085 656.561 500.085 656.562 C 500.084 656.562 490.232 656.999 490.231 656.999 C 490.233 657.000 509.710 666.030 509.712 666.031 Z"/>
<path fill="#00ff00" fill-rule="evenodd" stroke="none" d="M 601.885 125.782 C 601.884 125.784 590.123 143.745 590.122 143.746 C 590.123 143.746 598.718 138.908 598.719 138.908 C 598.719 138.909 604.163 147.133 604.163 147.134 C 604.163 147.131 601.886 125.784 601.885 125.782 Z"/>
<path fill="#00ffff" fill-rule="evenodd" stroke="none" d="M 513.299 57.237 C 513.299 57.239 516.612 78.451 516.613 78.453 C 516.612 78.452 510.775 70.502 510.774 70.501 C 510.773 70.501 502.424 75.751 502.423 75.751 C 502.424 75.750 513.298 57.239 513.299 57.237 Z"/>
<path fill="#00ffff" fill-rule="evenodd" stroke="none" d="M 253.216 35.613 C 253.216 35.615 250.453 56.905 250.453 56.908 C 250.453 56.907 256.083 48.808 256.083 48.808 C 256.084 48.808 264.567 53.839 264.568 53.840 C 264.567 53.838 253.218 35.615 253.216 35.613 Z"/>
</g>
</g>
</svg>
