<?xml version="1.0" encoding="utf-8"?>
<!-- Generator: Moho 13.0.3 build 635 -->
<!DOCTYPE svg PUBLIC "-//W3C//DTD SVG 1.1//EN" "http://www.w3.org/Graphics/SVG/1.1/DTD/svg11.dtd">
<svg version="1.1" id="Frame_0" xmlns="http://www.w3.org/2000/svg" xmlns:xlink="http://www.w3.org/1999/xlink" width="720px" height="720px">
<g id="Hand_hold_fingers">
<path fill="#ffffff" fill-rule="evenodd" stroke="#000000" stroke-width="5" stroke-linecap="round" stroke-linejoin="round" d="M 588.387 367.930 C 587.801 346.546 582.026 264.328 580.481 242.992 C 579.531 229.867 577.071 179.092 574.286 166.231 C 571.089 151.467 554.160 94.358 544.001 83.178 C 539.619 78.356 516.892 60.706 510.624 64.741 C 499.106 72.156 505.424 88.088 505.468 92.996 C 505.575 105.138 520.386 150.076 521.937 162.118 C 523.548 174.622 525.160 223.377 523.528 235.878 C 522.193 246.102 519.711 291.564 507.128 293.946 C 499.409 295.408 493.850 208.039 489.588 190.650 C 486.513 178.105 472.443 130.176 466.674 118.620 C 459.282 103.812 422.128 51.317 409.932 40.129 C 403.894 34.590 376.448 10.163 369.450 14.426 C 357.449 21.738 364.804 47.953 370.541 59.311 C 376.312 70.734 403.498 112.045 408.793 123.696 C 414.315 135.845 430.902 184.754 433.078 197.921 C 435.965 215.385 438.743 301.057 433.343 301.504 C 428.697 301.889 409.407 231.579 403.702 217.459 C 397.242 201.469 371.865 139.608 361.635 125.725 C 348.548 107.966 285.252 48.330 264.597 40.586 C 258.554 38.320 232.400 31.869 226.924 37.911 C 222.890 42.362 234.049 66.378 237.074 71.568 C 245.591 86.178 299.513 125.549 308.977 139.563 C 317.849 152.702 339.226 210.455 343.168 225.811 C 346.605 239.201 357.399 303.083 353.535 306.041 C 347.362 310.766 289.055 243.725 246.623 233.472 C 229.335 229.294 161.814 228.629 142.720 239.519 C 131.785 245.756 95.801 279.146 88.512 289.410 C 83.428 296.571 56.909 321.635 67.431 336.278 C 74.337 345.890 108.182 330.551 115.942 327.254 C 125.242 323.304 154.127 295.439 163.803 292.531 C 176.517 288.709 223.419 287.608 234.467 292.482 C 250.879 299.721 294.735 356.315 302.337 372.562 C 313.082 395.528 333.232 495.257 324.924 519.213 C 319.190 535.749 269.649 587.633 252.645 591.781 C 239.112 595.083 198.679 582.820 174.344 569.103 C 164.807 563.728 141.408 534.761 132.290 520.773 C 111.349 488.646 68.540 504.141 70.443 516.189 C 73.326 534.441 108.575 598.369 121.640 611.436 C 145.744 635.543 267.306 692.947 300.831 699.124 C 336.161 705.633 480.712 700.076 510.139 679.470 C 534.029 662.741 568.796 592.459 586.772 526.964 C 603.733 455.730 589.132 395.097 588.387 367.930 Z"/>
</g>
</svg>
