<?xml version="1.0" encoding="utf-8"?>
<!-- Generator: Moho 12.5 build 22414 -->
<!DOCTYPE svg PUBLIC "-//W3C//DTD SVG 1.1//EN" "http://www.w3.org/Graphics/SVG/1.1/DTD/svg11.dtd">
<svg version="1.1" id="Frame_0" xmlns="http://www.w3.org/2000/svg" xmlns:xlink="http://www.w3.org/1999/xlink" width="720px" height="720px">
<g id="hand_point">
<g id="hand_point">
<path fill="#ffffff" fill-rule="evenodd" stroke="#000000" stroke-width="4" stroke-linecap="round" stroke-linejoin="round" d="M 336.803 665.922 C 375.004 667.269 439.339 654.779 460.458 634.844 C 501.189 596.397 528.115 536.785 534.658 503.438 C 539.395 479.298 540.268 385.905 547.454 353.056 C 558.861 300.914 596.635 258.993 588.003 242.973 C 580.194 228.480 537.303 236.823 524.031 250.780 C 505.052 270.738 490.622 306.819 486.835 314.892 C 477.960 333.812 466.159 411.119 466.157 411.129 C 466.157 411.124 465.177 377.662 464.574 363.831 C 463.987 350.365 462.980 265.291 462.918 251.812 C 462.867 240.657 463.442 167.581 463.403 159.094 C 463.353 148.484 467.957 55.653 461.667 43.207 C 459.692 39.300 451.335 17.873 434.794 18.667 C 420.753 19.341 414.858 33.913 413.131 36.844 C 405.800 49.280 403.303 145.406 402.264 156.341 C 401.229 167.235 390.478 275.285 390.474 275.296 C 390.469 275.292 363.736 260.796 359.653 260.163 C 331.510 255.799 311.837 274.378 308.015 273.720 C 286.516 270.018 267.091 262.635 247.086 276.874 C 236.789 284.203 233.586 296.499 233.584 296.502 C 233.571 296.510 185.622 284.292 163.111 338.317 C 154.793 358.279 153.352 464.843 158.553 489.558 C 164.303 516.879 181.993 592.488 224.408 626.960 C 265.053 659.995 308.934 664.940 336.803 665.922 Z"/>
<path fill="none" stroke="#000000" stroke-width="4" stroke-linecap="round" stroke-linejoin="round" d="M 390.474 275.296 C 388.083 360.790 387.821 397.388 382.511 409.524 C 375.215 426.197 321.295 425.323 320.852 404.720 C 320.001 365.110 308.017 273.733 308.015 273.720 C 308.016 273.734 319.150 369.466 319.564 412.054 C 319.750 431.142 256.696 438.642 254.345 418.611 C 247.551 360.733 233.586 296.514 233.584 296.502 C 233.586 296.514 253.532 408.646 254.656 421.039 C 257.183 448.894 199.049 449.146 193.050 432.553 C 181.280 400.004 173.091 369.729 163.111 338.317 C 185.622 284.292 233.571 296.510 233.584 296.502 "/>
</g>
<g id="specs">
<path fill="#ff00ff" fill-rule="evenodd" stroke="none" d="M 453.340 613.889 C 453.317 613.889 222.262 613.889 222.239 613.889 C 222.239 613.870 222.239 425.375 222.239 425.356 C 222.262 425.356 453.317 425.356 453.340 425.356 C 453.340 425.375 453.340 613.870 453.340 613.889 Z"/>
<path fill="#ff0000" fill-rule="evenodd" stroke="none" d="M 346.099 677.680 C 346.098 677.683 334.046 711.432 334.044 711.435 C 334.046 711.434 346.098 700.219 346.099 700.218 C 346.101 700.219 358.153 711.434 358.155 711.435 C 358.153 711.432 346.101 677.683 346.099 677.680 Z"/>
<path fill="#0000ff" fill-rule="evenodd" stroke="none" d="M 436.916 4.892 C 436.915 4.894 429.914 24.498 429.913 24.500 C 429.914 24.499 436.915 17.985 436.916 17.984 C 436.916 17.985 443.918 24.499 443.918 24.500 C 443.918 24.498 436.916 4.894 436.916 4.892 Z"/>
<path fill="#00ff00" fill-rule="evenodd" stroke="none" d="M 553.565 486.894 C 553.563 486.893 533.995 479.793 533.993 479.792 C 533.994 479.793 540.472 486.827 540.473 486.828 C 540.472 486.828 533.923 493.797 533.922 493.797 C 533.924 493.797 553.563 486.895 553.565 486.894 Z"/>
<path fill="#ffff00" fill-rule="evenodd" stroke="none" d="M 479.383 634.913 C 479.382 634.911 470.693 615.994 470.692 615.992 C 470.692 615.993 470.235 625.546 470.235 625.547 C 470.234 625.547 460.674 625.778 460.673 625.778 C 460.675 625.779 479.381 634.912 479.383 634.913 Z"/>
<path fill="#ffff00" fill-rule="evenodd" stroke="none" d="M 211.531 634.681 C 211.532 634.679 220.598 615.940 220.599 615.939 C 220.599 615.940 220.865 625.499 220.865 625.500 C 220.866 625.500 230.419 625.924 230.420 625.924 C 230.419 625.925 211.533 634.680 211.531 634.681 Z"/>
<path fill="#00ff00" fill-rule="evenodd" stroke="none" d="M 145.034 486.894 C 145.036 486.893 164.604 479.793 164.606 479.792 C 164.605 479.793 158.126 486.827 158.126 486.828 C 158.126 486.828 164.676 493.797 164.676 493.797 C 164.674 493.797 145.036 486.895 145.034 486.894 Z"/>
<path fill="#00ffff" fill-rule="evenodd" stroke="none" d="M 189.915 295.479 C 189.915 295.481 196.865 315.103 196.865 315.105 C 196.865 315.104 198.181 305.632 198.182 305.631 C 198.182 305.631 207.725 306.261 207.726 306.261 C 207.724 306.260 189.916 295.480 189.915 295.479 Z"/>
<path fill="#00ffff" fill-rule="evenodd" stroke="none" d="M 593.919 273.888 C 593.918 273.890 585.676 293.006 585.675 293.008 C 585.675 293.007 584.994 283.468 584.994 283.467 C 584.993 283.467 575.430 283.459 575.429 283.459 C 575.431 283.458 593.917 273.889 593.919 273.888 Z"/>
<path fill="#be0027" fill-rule="evenodd" stroke="none" d="M 345.580 677.974 C 345.579 677.972 336.810 653.418 336.809 653.415 C 336.810 653.416 345.579 661.575 345.580 661.576 C 345.581 661.575 354.350 653.416 354.351 653.415 C 354.350 653.418 345.581 677.972 345.580 677.974 Z"/>
</g>
</g>
</svg>
