<?xml version="1.0" encoding="utf-8"?>
<!-- Generator: Moho 13.0.3 build 635 -->
<!DOCTYPE svg PUBLIC "-//W3C//DTD SVG 1.1//EN" "http://www.w3.org/Graphics/SVG/1.1/DTD/svg11.dtd">
<svg version="1.1" id="Frame_0" xmlns="http://www.w3.org/2000/svg" xmlns:xlink="http://www.w3.org/1999/xlink" width="720px" height="720px">
<g id="hand_fist">
<path fill="#ffffff" fill-rule="evenodd" stroke="#000000" stroke-width="4" stroke-linecap="round" stroke-linejoin="round" d="M 359.426 691.365 C 297.053 691.640 193.433 665.927 159.893 632.447 C 118.733 591.360 89.189 527.479 79.934 497.690 C 72.852 474.899 74.139 385.013 84.202 346.726 C 94.017 309.387 146.296 244.907 146.311 244.883 C 146.311 244.874 137.560 213.054 143.578 162.227 C 145.494 146.043 162.719 93.409 169.109 86.175 C 226.041 21.723 289.279 55.226 289.291 55.223 C 289.298 55.219 326.427 16.827 358.792 17.983 C 392.657 19.192 422.156 54.843 422.162 54.847 C 422.171 54.847 475.641 41.019 511.049 60.004 C 534.960 72.825 542.202 112.795 542.205 112.800 C 542.215 112.805 610.450 106.222 640.540 159.745 C 654.262 184.153 641.584 312.494 629.115 379.406 C 622.529 414.752 632.311 561.434 540.543 633.040 C 474.492 684.578 404.031 691.168 359.426 691.365 Z"/>
<path fill="none" stroke="#000000" stroke-width="4" stroke-linecap="round" stroke-linejoin="round" d="M 422.162 54.847 C 397.645 94.501 388.560 154.235 384.709 181.533 C 378.443 225.951 382.636 291.627 382.636 291.638 C 369.260 282.072 328.489 229.553 316.513 223.065 C 308.707 218.835 255.857 209.819 255.851 209.817 C 254.816 188.960 256.464 139.296 259.397 129.322 C 263.992 113.696 275.803 74.110 289.291 55.223 M 483.046 365.108 C 483.055 365.110 518.845 414.412 568.049 385.661 C 610.180 361.043 610.364 327.226 622.890 286.243 C 630.049 262.816 636.427 220.894 643.195 188.220 M 542.205 112.800 C 532.537 106.104 517.637 147.020 500.609 218.421 C 487.232 274.513 483.048 365.093 483.046 365.108 M 146.311 244.883 C 189.255 226.988 255.840 209.821 255.851 209.817 M 382.636 291.638 C 397.943 302.585 475.428 318.602 481.588 337.387 C 484.756 347.048 472.025 377.105 460.677 389.407 C 449.542 401.477 417.252 409.874 409.576 411.640 C 375.555 419.465 314.820 405.188 301.820 396.946 C 290.999 390.087 250.889 348.434 250.884 348.430 C 250.883 348.440 265.210 386.036 247.941 448.376 "/>
</g>
</svg>
