<?xml version="1.0" encoding="utf-8"?>
<!-- Generator: Moho 12.5 build 22414 -->
<!DOCTYPE svg PUBLIC "-//W3C//DTD SVG 1.1//EN" "http://www.w3.org/Graphics/SVG/1.1/DTD/svg11.dtd">
<svg version="1.1" id="Frame_0" xmlns="http://www.w3.org/2000/svg" xmlns:xlink="http://www.w3.org/1999/xlink" width="720px" height="720px">
<g id="harp">
<g id="harp">
<path fill="none" stroke="#000000" stroke-width="4" stroke-linejoin="round" d="M 261.370 553.156 C 261.370 399.620 261.370 246.083 261.370 92.547 M 289.550 553.156 C 289.550 399.620 289.550 246.083 289.550 92.547 M 317.730 553.156 C 317.730 399.620 317.730 246.083 317.730 92.547 M 345.910 553.156 C 345.910 399.620 345.910 246.083 345.910 92.547 M 458.630 92.547 C 458.630 246.083 458.630 399.620 458.630 553.156 M 430.450 92.547 C 430.450 246.083 430.450 399.620 430.450 553.156 M 402.270 92.547 C 402.270 246.083 402.270 399.620 402.270 553.156 M 374.090 92.547 C 374.090 246.083 374.090 399.620 374.090 553.156 "/>
<path fill="#ffffff" fill-rule="evenodd" stroke="#000000" stroke-width="4" stroke-linejoin="round" d="M 223.684 82.462 C 223.711 82.462 496.289 82.462 496.316 82.462 C 496.316 82.464 496.316 104.208 496.316 104.211 C 496.289 104.211 223.711 104.211 223.684 104.211 C 223.684 104.208 223.684 82.464 223.684 82.462 Z"/>
<path fill="#ffffff" fill-rule="evenodd" stroke="none" d="M 641.693 387.820 C 635.514 318.449 595.982 216.512 563.272 167.837 C 642.332 167.343 631.671 89.317 625.755 72.770 C 618.177 51.575 578.407 8.463 513.642 34.813 C 472.596 51.513 446.359 102.341 494.348 182.123 C 568.821 305.936 626.285 529.526 360.000 537.185 C 93.243 530.996 151.178 305.936 225.652 182.123 C 273.641 102.341 247.404 51.513 206.358 34.813 C 141.593 8.463 101.823 51.575 94.245 72.770 C 88.329 89.317 77.669 167.343 156.728 167.837 C 124.018 216.512 84.486 318.449 78.307 387.820 C 62.343 567.031 184.320 615.079 360.000 618.375 C 537.360 614.098 657.657 567.031 641.693 387.820 Z"/>
<path fill="none" stroke="#000000" stroke-width="4" stroke-linejoin="round" d="M 641.693 387.820 C 635.514 318.449 595.982 216.512 563.272 167.837 C 552.581 167.904 530.158 155.126 523.914 127.593 C 513.370 81.106 551.572 61.163 577.178 84.405 C 587.719 93.972 587.255 118.820 566.919 119.757 M 360.000 618.375 C 537.360 614.098 657.657 567.031 641.693 387.820 M 78.307 387.820 C 62.343 567.031 184.320 615.079 360.000 618.375 M 156.728 167.837 C 124.018 216.512 84.486 318.449 78.307 387.820 M 625.755 72.770 C 631.671 89.317 642.332 167.343 563.272 167.837 M 513.642 34.813 C 578.407 8.463 618.177 51.575 625.755 72.770 M 494.348 182.123 C 446.359 102.341 472.596 51.513 513.642 34.813 M 360.000 537.185 C 626.285 529.526 568.821 305.936 494.348 182.123 M 225.652 182.123 C 151.178 305.936 93.243 530.996 360.000 537.185 M 206.358 34.813 C 247.404 51.513 273.641 102.341 225.652 182.123 M 94.245 72.770 C 101.823 51.575 141.593 8.463 206.358 34.813 M 156.728 167.837 C 77.669 167.343 88.329 89.317 94.245 72.770 M 196.086 127.593 C 189.842 155.126 167.419 167.904 156.728 167.837 M 142.822 84.405 C 168.428 61.163 206.630 81.106 196.086 127.593 M 153.081 119.757 C 132.745 118.820 132.281 93.972 142.822 84.405 "/>
</g>
<g id="specs_2">
<path fill="#ff00ff" fill-rule="evenodd" stroke="none" d="M 269.531 417.063 C 269.549 417.063 450.451 417.063 450.469 417.063 C 450.469 417.045 450.469 236.143 450.469 236.125 C 450.451 236.125 269.549 236.125 269.531 236.125 C 269.531 236.143 269.531 417.045 269.531 417.063 Z"/>
<path fill="#ff0000" fill-rule="evenodd" stroke="none" d="M 360.000 676.181 C 360.001 676.184 371.337 707.925 371.338 707.928 C 371.337 707.927 360.001 697.380 360.000 697.379 C 359.999 697.380 348.663 707.927 348.662 707.928 C 348.663 707.925 359.999 676.184 360.000 676.181 Z"/>
<path fill="#0000ff" fill-rule="evenodd" stroke="none" d="M 360.000 73.329 C 360.001 73.331 366.585 91.769 366.586 91.771 C 366.585 91.770 360.001 85.644 360.000 85.643 C 359.999 85.644 353.415 91.770 353.414 91.771 C 353.415 91.769 359.999 73.331 360.000 73.329 Z"/>
<path fill="#00ff00" fill-rule="evenodd" stroke="none" d="M 78.942 327.509 C 78.944 327.508 97.349 320.830 97.350 320.829 C 97.350 320.830 91.256 327.446 91.256 327.447 C 91.256 327.448 97.416 334.001 97.417 334.002 C 97.415 334.001 78.944 327.510 78.942 327.509 Z"/>
<path fill="#ffff00" fill-rule="evenodd" stroke="none" d="M 158.010 585.703 C 158.010 585.701 165.480 569.438 165.481 569.436 C 165.481 569.437 165.874 577.650 165.874 577.650 C 165.875 577.650 174.094 577.850 174.095 577.850 C 174.094 577.850 158.011 585.702 158.010 585.703 Z"/>
<path fill="#ffff00" fill-rule="evenodd" stroke="none" d="M 561.990 585.504 C 561.990 585.502 554.195 569.391 554.195 569.390 C 554.194 569.390 553.966 577.609 553.966 577.610 C 553.965 577.610 545.751 577.974 545.750 577.975 C 545.752 577.975 561.989 585.503 561.990 585.504 Z"/>
<path fill="#00ff00" fill-rule="evenodd" stroke="none" d="M 641.057 327.509 C 641.055 327.508 622.651 320.830 622.649 320.829 C 622.650 320.830 628.744 327.446 628.744 327.447 C 628.744 327.448 622.583 334.001 622.583 334.002 C 622.585 334.001 641.055 327.510 641.057 327.509 Z"/>
<path fill="#00ffff" fill-rule="evenodd" stroke="none" d="M 617.550 39.982 C 617.549 39.984 609.901 61.580 609.900 61.582 C 609.900 61.581 608.452 51.156 608.451 51.155 C 608.450 51.155 597.949 51.849 597.948 51.849 C 597.950 51.847 617.548 39.984 617.550 39.982 Z"/>
<path fill="#00ffff" fill-rule="evenodd" stroke="none" d="M 102.552 40.698 C 102.553 40.700 111.624 61.738 111.625 61.740 C 111.625 61.739 112.375 51.241 112.375 51.240 C 112.376 51.240 122.901 51.231 122.902 51.231 C 122.900 51.230 102.554 40.699 102.552 40.698 Z"/>
<path fill="#be0027" fill-rule="evenodd" stroke="none" d="M 360.000 636.147 C 360.001 636.143 371.337 604.403 371.338 604.399 C 371.337 604.400 360.001 614.948 360.000 614.949 C 359.999 614.948 348.663 604.400 348.662 604.399 C 348.663 604.403 359.999 636.143 360.000 636.147 Z"/>
</g>
</g>
</svg>
