<?xml version="1.0" encoding="utf-8"?>
<!-- Generator: Moho 13.0.3 build 635 -->
<!DOCTYPE svg PUBLIC "-//W3C//DTD SVG 1.1//EN" "http://www.w3.org/Graphics/SVG/1.1/DTD/svg11.dtd">
<svg version="1.1" id="Frame_0" xmlns="http://www.w3.org/2000/svg" xmlns:xlink="http://www.w3.org/1999/xlink" width="720px" height="720px">
<g id="head_lion">
<g id="head_lion">
<path fill="#ffffff" fill-rule="evenodd" stroke="#000000" stroke-width="4" stroke-linecap="round" stroke-linejoin="round" d="M 229.002 143.705 C 219.326 127.478 214.677 65.229 256.459 68.781 C 366.469 78.133 386.564 52.171 427.379 11.468 C 435.743 3.127 440.638 75.629 399.813 98.943 C 371.536 115.091 493.497 87.015 510.496 35.584 C 522.350 -0.283 553.665 80.562 495.804 110.004 C 473.954 121.122 558.572 112.202 595.300 81.332 C 620.418 60.218 595.961 143.647 557.229 149.841 C 538.370 152.857 593.510 174.176 634.294 173.667 C 647.448 173.503 651.682 198.356 577.734 225.745 C 568.581 229.135 592.654 283.718 649.787 280.975 C 663.631 280.310 631.067 309.211 566.195 308.064 C 545.361 307.695 588.987 381.904 613.384 382.353 C 636.349 382.775 610.491 433.687 508.322 391.449 C 470.339 375.747 495.157 435.733 553.085 485.161 C 568.793 498.564 507.253 524.457 432.062 450.976 C 409.973 429.390 428.737 542.895 460.279 562.834 C 488.542 580.700 425.637 590.452 351.965 518.552 C 331.319 498.403 332.334 578.689 363.749 617.813 C 373.386 629.815 300.544 606.870 265.652 570.224 C 245.657 549.223 297.819 652.986 247.337 679.536 C 177.537 716.245 278.705 646.561 195.902 581.360 C 177.557 566.915 184.069 492.744 200.083 482.829 C 216.610 472.597 230.925 465.317 241.381 462.098 C 255.130 457.866 290.158 463.273 301.685 454.666 C 340.278 425.846 356.619 303.872 355.131 258.372 C 354.456 237.742 328.894 169.942 328.894 169.942 C 328.894 169.942 239.897 161.979 229.002 143.705 Z"/>
<path fill="#ffffff" fill-rule="evenodd" stroke="none" d="M 348.329 439.117 C 348.329 439.125 306.208 484.045 292.939 487.705 C 283.559 490.293 241.441 479.932 241.436 479.931 C 241.434 479.933 221.945 502.641 215.199 504.225 C 203.889 506.880 163.483 491.715 158.837 483.818 C 154.886 477.101 165.639 433.292 165.640 433.287 C 165.643 433.287 193.818 435.230 193.820 435.231 C 193.821 435.226 203.679 390.686 203.680 390.681 C 203.681 390.685 214.226 431.339 214.227 431.344 C 214.233 431.344 268.578 433.085 268.584 433.086 C 268.585 433.082 277.200 396.742 277.201 396.738 C 277.202 396.742 287.964 433.839 287.965 433.843 C 287.967 433.842 303.759 432.100 305.697 430.095 C 314.277 421.220 322.236 373.407 302.684 349.908 C 296.310 342.248 269.150 341.427 269.147 341.426 C 269.146 341.430 258.556 379.089 258.555 379.093 C 258.554 379.089 248.759 342.988 248.758 342.984 C 248.752 342.985 187.996 355.546 187.990 355.547 C 187.989 355.551 181.465 393.852 181.464 393.855 C 181.462 393.851 161.341 353.040 161.339 353.036 C 161.338 353.035 155.057 357.596 144.261 348.745 C 137.168 342.929 109.281 243.806 109.278 243.795 C 109.288 243.788 207.415 167.035 207.425 167.027 C 207.424 167.025 198.646 148.899 200.623 143.705 C 205.295 131.427 246.566 120.714 253.097 120.383 C 266.151 119.722 344.065 156.308 359.990 162.168 C 370.267 165.950 418.788 186.148 429.956 186.462 C 443.725 186.849 503.676 151.918 517.414 160.225 C 530.117 167.906 541.443 227.640 534.905 242.824 C 529.854 254.553 493.243 277.346 480.487 278.778 C 473.515 279.561 446.479 268.090 446.476 268.089 C 446.468 268.095 381.184 302.537 368.736 321.535 C 352.989 345.568 346.388 375.942 348.329 439.117 M 255.041 217.558 C 247.546 214.331 241.437 194.005 241.436 194.002 C 241.437 194.001 251.329 182.742 255.275 181.639 C 283.652 173.707 304.595 200.065 304.600 200.067 C 304.595 200.069 269.522 223.794 255.041 217.558 Z"/>
<path fill="none" stroke="#000000" stroke-width="4" stroke-linecap="round" stroke-linejoin="round" d="M 348.329 439.117 C 348.329 439.125 306.208 484.045 292.939 487.705 C 283.559 490.293 241.441 479.932 241.436 479.931 C 241.434 479.933 221.945 502.641 215.199 504.225 C 203.889 506.880 163.483 491.715 158.837 483.818 C 154.886 477.101 165.639 433.292 165.640 433.287 C 165.643 433.287 193.818 435.230 193.820 435.231 C 193.821 435.226 203.679 390.686 203.680 390.681 C 203.681 390.685 214.226 431.339 214.227 431.344 C 214.233 431.344 268.578 433.085 268.584 433.086 C 268.585 433.082 277.200 396.742 277.201 396.738 C 277.202 396.742 287.964 433.839 287.965 433.843 C 287.967 433.842 303.759 432.100 305.697 430.095 C 314.277 421.220 322.236 373.407 302.684 349.908 C 296.310 342.248 269.150 341.427 269.147 341.426 C 269.146 341.430 258.556 379.089 258.555 379.093 C 258.554 379.089 248.759 342.988 248.758 342.984 C 248.752 342.985 187.996 355.546 187.990 355.547 C 187.989 355.551 181.465 393.852 181.464 393.855 C 181.462 393.851 161.341 353.040 161.339 353.036 C 161.338 353.035 155.057 357.596 144.261 348.745 C 137.168 342.929 109.281 243.806 109.278 243.795 C 109.288 243.788 207.415 167.035 207.425 167.027 C 207.424 167.025 198.646 148.899 200.623 143.705 C 205.295 131.427 246.566 120.714 253.097 120.383 C 266.151 119.722 344.065 156.308 359.990 162.168 C 370.267 165.950 418.788 186.148 429.956 186.462 C 443.725 186.849 503.676 151.918 517.414 160.225 C 530.117 167.906 541.443 227.640 534.905 242.824 C 529.854 254.553 493.243 277.346 480.487 278.778 C 473.515 279.561 446.479 268.090 446.476 268.089 C 446.468 268.095 381.184 302.537 368.736 321.535 C 352.989 345.568 346.388 375.942 348.329 439.117 M 173.414 249.626 C 173.395 249.617 137.679 227.003 111.857 244.526 M 148.148 269.061 C 157.324 268.015 173.406 249.633 173.414 249.626 M 132.600 263.230 C 132.605 263.232 143.368 269.606 148.148 269.061 M 161.089 349.279 C 130.025 272.598 132.609 263.259 132.600 263.230 M 220.058 333.197 C 210.842 348.318 173.839 372.818 161.089 349.279 M 198.284 262.499 C 215.216 275.638 234.351 309.743 220.058 333.197 M 159.248 265.379 C 159.252 265.378 184.794 252.030 198.284 262.499 M 255.041 217.558 C 247.546 214.331 241.437 194.005 241.436 194.002 C 241.437 194.001 251.329 182.742 255.275 181.639 C 283.652 173.707 304.595 200.065 304.600 200.067 C 304.595 200.069 269.522 223.794 255.041 217.558 M 248.239 160.225 C 285.424 144.940 350.786 192.434 402.060 208.538 M 237.549 177.716 C 237.550 177.714 226.887 169.002 248.239 160.225 M 165.625 245.371 C 189.600 222.819 237.542 177.723 237.549 177.716 "/>
<path fill="none" stroke="#000000" stroke-width="4" stroke-linecap="round" stroke-linejoin="round" d="M 428.984 254.485 C 428.988 254.480 453.101 214.129 459.576 208.344 C 465.654 202.914 505.748 184.521 505.753 184.519 C 505.753 184.524 519.006 219.578 508.668 235.049 C 505.118 240.363 493.122 242.823 493.120 242.824 "/>
<path fill="none" stroke="#000000" stroke-width="4" stroke-linecap="round" stroke-linejoin="round" d="M 284.273 115.661 C 283.547 106.700 297.981 100.423 304.562 97.714 C 326.952 88.495 351.207 106.212 372.450 96.153 C 380.345 92.415 410.339 75.459 399.761 62.599 C 390.686 51.568 381.045 60.628 380.253 70.402 "/>
<path fill="none" stroke="#000000" stroke-width="4" stroke-linecap="round" stroke-linejoin="round" d="M 311.585 128.927 C 319.189 111.422 368.992 106.377 376.607 126.358 C 381.236 138.505 361.030 145.909 359.894 135.296 C 359.878 135.042 359.886 134.775 359.902 134.523 C 359.947 133.789 359.923 134.093 359.965 133.608 C 360.485 133.609 361.005 133.608 361.525 133.608 "/>
<path fill="none" stroke="#000000" stroke-width="4" stroke-linecap="round" stroke-linejoin="round" d="M 377.132 153.897 C 419.235 153.901 439.041 117.355 469.209 94.592 C 473.713 91.194 480.105 89.250 485.658 89.754 C 492.171 90.345 488.397 97.682 485.002 99.612 C 484.243 99.968 484.568 99.824 484.035 100.055 C 484.035 100.055 483.255 99.274 483.255 99.274 "/>
<path fill="none" stroke="#000000" stroke-width="4" stroke-linecap="round" stroke-linejoin="round" d="M 410.686 167.162 C 421.714 172.677 442.706 160.013 452.042 154.677 C 462.530 148.683 470.823 139.858 480.914 133.608 C 492.550 126.402 517.453 124.667 530.855 125.805 C 539.389 126.530 555.870 141.094 541.049 146.417 C 536.978 147.880 518.277 146.916 527.734 142.192 C 527.734 142.192 528.514 142.972 528.514 142.972 "/>
<path fill="none" stroke="#000000" stroke-width="4" stroke-linecap="round" stroke-linejoin="round" d="M 526.953 266.263 C 531.733 260.616 541.871 263.305 548.022 264.702 C 557.633 266.886 566.514 268.655 575.333 273.286 C 583.160 277.396 589.799 283.701 598.554 285.930 C 602.222 286.864 624.493 293.998 624.493 286.551 "/>
<path fill="none" stroke="#000000" stroke-width="4" stroke-linecap="round" stroke-linejoin="round" d="M 548.802 199.936 C 565.529 197.394 608.853 216.702 616.690 191.352 C 620.910 177.701 596.477 174.716 589.136 180.017 C 580.593 186.185 593.377 189.870 598.743 188.231 C 598.743 187.711 598.743 187.190 598.743 186.670 "/>
<path fill="none" stroke="#000000" stroke-width="4" stroke-linecap="round" stroke-linejoin="round" d="M 442.679 284.210 C 510.497 286.009 512.325 391.379 574.126 394.555 C 597.919 393.613 594.855 369.212 574.819 363.893 C 555.618 361.861 558.499 382.962 576.894 375.508 "/>
<path fill="none" stroke="#000000" stroke-width="4" stroke-linecap="round" stroke-linejoin="round" d="M 501.202 288.892 C 529.064 298.609 551.621 316.673 561.287 345.856 C 561.287 345.856 561.105 345.793 560.965 345.735 C 560.763 345.662 560.516 345.560 560.296 345.442 C 559.520 344.942 559.264 344.368 558.946 343.515 "/>
<path fill="none" stroke="#000000" stroke-width="4" stroke-linecap="round" stroke-linejoin="round" d="M 416.148 302.938 C 449.871 314.180 451.764 346.833 474.672 369.265 C 482.246 376.682 495.430 381.604 504.133 370.668 C 511.413 361.521 500.522 355.271 496.171 360.332 "/>
<path fill="none" stroke="#000000" stroke-width="4" stroke-linecap="round" stroke-linejoin="round" d="M 390.397 323.226 C 411.739 326.470 418.003 343.565 427.072 360.682 C 445.797 396.022 451.342 447.990 486.328 472.821 C 494.454 478.589 526.889 484.645 515.248 465.244 C 510.727 457.710 489.170 448.202 496.521 462.904 C 496.521 462.904 496.521 461.343 496.521 461.343 "/>
<path fill="none" stroke="#000000" stroke-width="4" stroke-linecap="round" stroke-linejoin="round" d="M 374.010 346.636 C 397.902 355.937 426.896 401.286 421.831 427.676 C 421.186 431.037 420.190 432.911 414.736 434.430 C 402.016 435.170 405.591 421.151 413.288 419.973 "/>
<path fill="none" stroke="#000000" stroke-width="4" stroke-linecap="round" stroke-linejoin="round" d="M 362.305 373.167 C 374.043 378.213 378.887 396.428 381.814 407.501 C 390.723 441.206 387.072 477.234 395.289 510.748 C 398.308 523.060 404.470 557.699 423.951 547.958 C 423.054 546.165 423.170 546.979 423.170 545.617 "/>
<path fill="none" stroke="#000000" stroke-width="4" stroke-linecap="round" stroke-linejoin="round" d="M 356.843 429.350 C 374.685 444.451 361.950 480.775 353.722 497.237 C 353.462 496.717 353.202 496.197 352.942 495.677 "/>
<path fill="none" stroke="#000000" stroke-width="4" stroke-linecap="round" stroke-linejoin="round" d="M 340.457 464.464 C 325.167 497.366 307.312 522.708 308.403 560.988 C 308.652 569.693 314.766 591.304 327.191 588.535 C 335.587 586.664 331.786 577.149 325.631 575.270 "/>
<path fill="none" stroke="#000000" stroke-width="4" stroke-linecap="round" stroke-linejoin="round" d="M 295.198 497.237 C 286.467 514.700 272.354 530.537 276.636 552.119 C 277.356 555.746 280.369 558.698 281.933 562.004 C 281.152 561.224 280.372 560.444 279.592 559.663 "/>
<path fill="none" stroke="#000000" stroke-width="4" stroke-linecap="round" stroke-linejoin="round" d="M 257.743 495.677 C 208.383 526.247 235.981 588.018 248.956 629.116 C 251.976 638.682 251.505 669.722 236.674 668.908 "/>
<path fill="none" stroke="#000000" stroke-width="4" stroke-linecap="round" stroke-linejoin="round" d="M 248.379 110.199 C 269.038 52.915 326.908 109.873 359.965 76.645 "/>
</g>
<g id="specs_2">
<path fill="#ff0000" fill-rule="evenodd" stroke="none" d="M 642.129 289.878 C 642.133 289.877 676.938 277.446 676.942 277.445 C 676.941 277.446 665.375 289.877 665.374 289.878 C 665.375 289.879 676.941 302.310 676.942 302.311 C 676.938 302.310 642.133 289.879 642.129 289.878 Z"/>
<path fill="#0000ff" fill-rule="evenodd" stroke="none" d="M 360.000 61.320 C 360.001 61.322 367.221 81.540 367.222 81.542 C 367.221 81.542 360.001 74.824 360.000 74.823 C 359.999 74.824 352.779 81.542 352.778 81.542 C 352.779 81.540 359.999 61.322 360.000 61.320 Z"/>
<path fill="#00ff00" fill-rule="evenodd" stroke="none" d="M 145.471 391.377 C 145.473 391.376 165.654 384.053 165.656 384.052 C 165.656 384.053 158.974 391.308 158.973 391.309 C 158.974 391.309 165.728 398.496 165.729 398.497 C 165.727 398.496 145.473 391.377 145.471 391.377 Z"/>
<path fill="#ffff00" fill-rule="evenodd" stroke="none" d="M 181.075 578.243 C 181.076 578.241 190.036 558.732 190.037 558.730 C 190.037 558.731 190.509 568.582 190.509 568.583 C 190.510 568.583 200.370 568.822 200.371 568.822 C 200.369 568.823 181.077 578.242 181.075 578.243 Z"/>
<path fill="#ffff00" fill-rule="evenodd" stroke="none" d="M 465.347 578.004 C 465.346 578.002 455.996 558.676 455.995 558.674 C 455.995 558.675 455.721 568.535 455.721 568.536 C 455.720 568.536 445.867 568.972 445.866 568.972 C 445.868 568.973 465.345 578.003 465.347 578.004 Z"/>
<path fill="#00ff00" fill-rule="evenodd" stroke="none" d="M 625.218 391.377 C 625.216 391.376 605.035 384.053 605.033 384.052 C 605.033 384.053 611.715 391.308 611.716 391.309 C 611.715 391.309 604.960 398.496 604.960 398.497 C 604.962 398.496 625.216 391.377 625.218 391.377 Z"/>
<path fill="#00ffff" fill-rule="evenodd" stroke="none" d="M 577.845 117.716 C 577.844 117.718 570.677 137.955 570.676 137.957 C 570.676 137.956 569.319 128.187 569.319 128.186 C 569.318 128.186 559.477 128.836 559.476 128.836 C 559.478 128.835 577.843 117.717 577.845 117.716 Z"/>
<path fill="#00ffff" fill-rule="evenodd" stroke="none" d="M 213.686 118.386 C 213.687 118.388 222.188 138.103 222.189 138.105 C 222.189 138.104 222.891 128.266 222.892 128.265 C 222.893 128.265 232.755 128.257 232.756 128.257 C 232.754 128.256 213.688 118.387 213.686 118.386 Z"/>
<path fill="#be0027" fill-rule="evenodd" stroke="none" d="M 638.698 288.722 C 638.694 288.721 603.889 276.291 603.885 276.289 C 603.886 276.291 615.452 288.721 615.453 288.722 C 615.452 288.724 603.886 301.154 603.885 301.155 C 603.889 301.154 638.694 288.724 638.698 288.722 Z"/>
</g>
</g>
</svg>
