<?xml version="1.0" encoding="utf-8"?>
<!-- Generator: Moho 12.5 build 22414 -->
<!DOCTYPE svg PUBLIC "-//W3C//DTD SVG 1.1//EN" "http://www.w3.org/Graphics/SVG/1.1/DTD/svg11.dtd">
<svg version="1.1" id="Frame_0" xmlns="http://www.w3.org/2000/svg" xmlns:xlink="http://www.w3.org/1999/xlink" width="720px" height="720px">
<g id="head_phrenology">
<g id="phrenology_head">
<path fill="#ffffff" fill-rule="evenodd" stroke="#000000" stroke-width="4" stroke-linejoin="round" d="M 152.524 287.633 C 156.147 302.238 88.253 385.843 92.615 401.283 C 97.248 417.682 135.734 410.314 141.070 418.903 C 144.631 424.634 139.309 453.259 139.308 453.262 C 139.310 453.263 153.403 465.595 153.405 465.596 C 153.403 465.598 141.953 477.928 141.951 477.930 C 141.956 477.933 159.083 482.979 160.452 492.907 C 162.780 509.779 149.885 520.747 148.999 536.077 C 148.582 543.301 163.459 562.590 169.263 566.912 C 183.751 577.703 244.448 576.642 259.125 587.175 C 274.043 597.881 276.696 618.030 278.507 619.243 C 289.265 626.449 539.228 619.470 535.760 612.045 C 481.452 495.761 502.549 461.334 523.426 432.999 C 538.737 412.220 609.052 393.580 627.385 275.299 C 644.570 164.422 601.681 17.634 376.298 23.332 C 161.098 28.773 135.255 218.034 152.524 287.633 Z"/>
<path fill="#ffffff" fill-rule="evenodd" stroke="none" d="M 187.764 288.514 C 186.381 294.867 188.795 303.331 191.966 310.306 C 215.684 308.385 250.311 300.849 250.315 300.848 C 250.309 300.846 212.318 285.852 191.912 277.102 C 189.654 281.496 188.817 283.673 187.764 288.514 Z"/>
<path fill="none" stroke="#000000" stroke-width="4" stroke-linejoin="round" d="M 187.764 288.514 C 186.381 294.867 188.795 303.331 191.966 310.306 C 184.107 310.943 181.744 313.149 177.045 314.749 M 191.912 277.102 C 189.654 281.496 188.817 283.673 187.764 288.514 M 250.315 300.848 C 250.311 300.849 215.684 308.385 191.966 310.306 M 191.912 277.102 C 212.318 285.852 250.309 300.846 250.315 300.848 M 177.192 268.252 C 177.193 268.252 186.673 274.855 191.912 277.102 "/>
<path fill="none" stroke="#000000" stroke-width="4" stroke-linejoin="round" d="M 173.668 255.036 C 173.672 255.037 200.526 258.356 216.837 263.846 C 240.466 271.799 255.014 282.641 274.102 292.038 "/>
<path fill="none" stroke="#000000" stroke-width="4" stroke-linejoin="round" d="M 211.011 570.877 C 211.021 570.875 270.996 565.542 305.769 546.844 C 359.561 517.920 412.409 433.891 412.420 433.880 M 148.807 404.929 C 141.447 404.415 136.786 405.926 130.473 405.793 C 127.373 405.727 121.430 404.039 120.807 403.045 C 119.069 400.270 124.635 397.365 148.807 404.929 C 157.664 407.700 152.267 415.348 160.452 416.260 C 166.106 416.890 172.744 411.124 173.668 409.212 C 176.929 402.459 169.452 386.550 165.738 383.663 C 162.793 381.372 144.597 381.901 144.594 381.901 C 144.596 381.901 163.000 380.995 164.954 381.796 C 173.812 385.427 184.058 395.791 187.764 400.402 C 192.824 406.698 199.510 424.483 205.384 436.523 M 153.405 465.596 C 169.850 465.890 202.736 466.477 202.741 466.477 C 202.737 466.476 171.121 453.940 163.977 453.262 C 157.858 452.682 147.597 449.948 139.308 453.262 C 139.310 453.263 153.403 465.595 153.405 465.596 C 153.403 465.598 141.953 477.928 141.951 477.930 C 148.914 480.582 156.124 479.941 169.263 477.930 C 177.603 476.654 191.581 470.295 202.741 466.477 M 196.574 452.381 C 196.575 452.384 207.645 471.605 214.194 477.930 C 220.382 483.907 230.639 488.502 238.862 493.788 "/>
<path fill="none" stroke="#000000" stroke-width="4" stroke-linejoin="round" d="M 422.603 328.061 C 422.602 328.059 408.899 312.200 415.830 301.201 C 423.672 288.758 437.741 290.973 445.788 294.544 C 453.123 297.799 458.937 310.714 459.935 318.677 C 461.889 334.260 454.639 361.476 441.627 370.271 C 428.850 378.908 410.008 394.402 410.005 394.404 M 408.341 337.817 C 408.340 337.813 389.290 315.315 399.187 299.537 C 407.526 286.242 421.542 270.042 448.285 275.404 C 461.116 277.977 474.301 298.301 476.578 311.187 C 480.751 334.805 467.545 376.699 444.956 388.579 C 413.667 405.034 410.720 427.809 393.362 423.530 C 376.193 419.298 376.720 396.071 376.718 396.069 "/>
</g>
<g id="specs_2">
<path fill="#ff00ff" fill-rule="evenodd" stroke="none" d="M 259.340 247.778 C 259.367 247.778 528.640 247.778 528.667 247.778 C 528.667 247.759 528.667 62.696 528.667 62.677 C 528.640 62.677 259.367 62.677 259.340 62.677 C 259.340 62.696 259.340 247.759 259.340 247.778 Z"/>
<path fill="#ff0000" fill-rule="evenodd" stroke="none" d="M 403.498 677.876 C 403.499 677.879 414.375 708.330 414.376 708.333 C 414.375 708.332 403.499 698.213 403.498 698.212 C 403.497 698.213 392.622 708.332 392.621 708.333 C 392.622 708.330 403.497 677.879 403.498 677.876 Z"/>
<path fill="#0000ff" fill-rule="evenodd" stroke="none" d="M 391.415 15.227 C 391.416 15.228 397.733 32.917 397.734 32.919 C 397.733 32.919 391.416 27.041 391.415 27.040 C 391.415 27.041 385.098 32.919 385.097 32.919 C 385.098 32.917 391.415 15.228 391.415 15.227 Z"/>
<path fill="#00ff00" fill-rule="evenodd" stroke="none" d="M 86.507 291.354 C 86.508 291.353 104.165 284.946 104.167 284.946 C 104.166 284.946 98.320 291.294 98.320 291.294 C 98.320 291.295 104.230 297.582 104.231 297.583 C 104.229 297.582 86.508 291.355 86.507 291.354 Z"/>
<path fill="#ffff00" fill-rule="evenodd" stroke="none" d="M 311.133 621.925 C 311.134 621.923 318.973 604.855 318.974 604.853 C 318.974 604.854 319.387 613.473 319.387 613.474 C 319.387 613.474 328.014 613.683 328.014 613.683 C 328.013 613.684 311.135 621.924 311.133 621.925 Z"/>
<path fill="#ffff00" fill-rule="evenodd" stroke="none" d="M 483.781 621.716 C 483.780 621.714 475.600 604.806 475.599 604.805 C 475.599 604.805 475.359 613.431 475.359 613.432 C 475.358 613.432 466.738 613.814 466.737 613.814 C 466.739 613.815 483.779 621.715 483.781 621.716 Z"/>
<path fill="#00ff00" fill-rule="evenodd" stroke="none" d="M 635.910 291.354 C 635.909 291.353 618.252 284.946 618.250 284.946 C 618.250 284.946 624.096 291.294 624.097 291.294 C 624.096 291.295 618.187 297.582 618.186 297.583 C 618.188 297.582 635.909 291.355 635.910 291.354 Z"/>
<path fill="#00ffff" fill-rule="evenodd" stroke="none" d="M 602.582 102.668 C 602.581 102.669 596.311 120.375 596.310 120.377 C 596.310 120.376 595.123 111.829 595.123 111.828 C 595.122 111.828 586.512 112.397 586.511 112.397 C 586.512 112.396 602.580 102.669 602.582 102.668 Z"/>
<path fill="#00ffff" fill-rule="evenodd" stroke="none" d="M 180.347 103.254 C 180.347 103.256 187.785 120.504 187.785 120.506 C 187.785 120.505 188.400 111.898 188.400 111.897 C 188.401 111.897 197.030 111.890 197.031 111.890 C 197.029 111.890 180.348 103.255 180.347 103.254 Z"/>
<path fill="#be0027" fill-rule="evenodd" stroke="none" d="M 404.707 637.735 C 404.708 637.732 415.583 607.281 415.584 607.278 C 415.583 607.279 404.708 617.398 404.707 617.399 C 404.706 617.398 393.830 607.279 393.829 607.278 C 393.830 607.281 404.706 637.732 404.707 637.735 Z"/>
</g>
</g>
</svg>
