<?xml version="1.0" encoding="utf-8"?>
<!-- Generator: Moho 12.5 build 22414 -->
<!DOCTYPE svg PUBLIC "-//W3C//DTD SVG 1.1//EN" "http://www.w3.org/Graphics/SVG/1.1/DTD/svg11.dtd">
<svg version="1.1" id="Frame_0" xmlns="http://www.w3.org/2000/svg" xmlns:xlink="http://www.w3.org/1999/xlink" width="720px" height="720px">
<g id="head_beast">
<g id="beast_head">
<path fill="#ffffff" fill-rule="evenodd" stroke="#000000" stroke-width="4" stroke-linecap="round" stroke-linejoin="round" d="M 301.955 354.039 C 302.968 335.493 318.746 321.349 337.293 322.361 C 355.839 323.374 369.984 339.151 368.972 357.698 C 367.959 376.244 352.180 390.389 333.634 389.377 C 315.087 388.364 300.942 372.586 301.955 354.039 M 78.471 401.235 C 78.864 394.046 84.979 388.564 92.167 388.956 C 99.356 389.349 104.839 395.464 104.446 402.653 C 104.053 409.841 97.937 415.323 90.749 414.930 C 83.561 414.537 78.079 408.423 78.471 401.235 M 340.795 450.055 C 340.787 450.057 264.264 474.244 264.256 474.246 C 264.255 474.244 250.762 454.771 250.760 454.769 C 250.760 454.772 243.362 481.166 243.361 481.168 C 243.357 481.169 206.622 490.551 206.617 490.552 C 206.616 490.549 189.701 463.589 189.699 463.586 C 189.698 463.589 177.131 498.998 177.130 499.002 C 177.126 499.002 143.794 506.746 143.791 506.746 C 143.788 506.744 119.554 475.566 119.552 475.563 C 119.551 475.567 110.801 514.536 110.800 514.540 C 110.795 514.542 58.857 531.990 58.852 531.992 C 58.879 531.994 237.234 558.197 325.635 549.010 C 370.856 544.311 422.216 543.026 458.118 515.133 C 483.122 495.707 498.659 463.700 506.262 432.963 C 511.869 410.293 504.313 362.755 504.313 362.748 C 504.323 362.744 565.380 351.886 602.046 317.020 C 643.961 277.163 658.877 207.558 658.883 207.547 C 658.875 207.556 617.053 256.932 569.212 285.471 C 536.301 305.104 493.115 315.256 493.107 315.260 C 493.108 315.259 489.381 309.770 489.381 309.770 C 489.387 309.764 534.208 293.133 557.445 261.731 C 586.938 221.877 588.875 160.787 588.880 160.778 C 588.872 160.786 559.797 214.147 518.477 244.601 C 488.254 266.876 445.135 276.703 445.128 276.707 C 445.120 276.706 377.226 275.483 360.603 275.975 C 335.655 276.713 275.156 271.800 202.280 297.988 C 119.446 327.753 60.546 382.901 48.079 394.072 C 31.455 411.291 8.538 439.054 8.533 439.059 C 8.539 439.059 68.693 440.605 68.699 440.605 C 68.701 440.609 85.865 485.603 85.867 485.607 C 85.869 485.603 103.735 441.463 103.737 441.459 C 103.741 441.459 142.734 444.454 142.737 444.455 C 142.739 444.459 158.986 482.792 158.987 482.796 C 158.989 482.792 175.795 447.274 175.797 447.271 C 175.800 447.271 211.293 448.275 211.296 448.275 C 211.298 448.277 223.383 478.635 223.383 478.638 C 223.385 478.635 235.584 449.879 235.585 449.876 C 235.596 449.876 340.785 450.055 340.795 450.055 M 441.833 259.386 C 441.824 259.385 391.676 254.099 361.699 255.884 C 330.638 257.734 287.076 261.134 287.068 261.135 C 287.065 261.124 263.601 152.437 263.599 152.427 C 263.606 152.431 327.934 205.342 327.941 205.348 C 327.945 205.340 364.182 127.704 364.185 127.695 C 364.189 127.703 398.963 205.069 398.966 205.076 C 398.972 205.071 461.669 147.013 461.675 147.007 C 461.673 147.019 441.835 259.374 441.833 259.386 M 231.719 371.974 C 231.730 371.977 289.242 405.436 343.599 398.690 C 392.684 392.598 437.581 350.821 437.590 350.817 C 437.580 350.813 387.008 306.552 335.759 310.320 C 279.203 314.478 231.729 371.968 231.719 371.974 Z"/>
<path fill="none" stroke="#000000" stroke-width="1" stroke-linecap="butt" stroke-linejoin="round" d="M 301.955 354.039 C 302.968 335.493 318.746 321.349 337.293 322.361 "/>
<path fill="none" stroke="#000000" stroke-width="1" stroke-linecap="butt" stroke-linejoin="round" d="M 337.293 322.361 C 355.839 323.374 369.984 339.151 368.972 357.698 "/>
<path fill="none" stroke="#000000" stroke-width="1" stroke-linecap="butt" stroke-linejoin="round" d="M 368.972 357.698 C 367.959 376.244 352.180 390.389 333.634 389.377 "/>
<path fill="none" stroke="#000000" stroke-width="1" stroke-linecap="butt" stroke-linejoin="round" d="M 333.634 389.377 C 315.087 388.364 300.942 372.586 301.955 354.039 "/>
<path fill="none" stroke="#000000" stroke-width="1" stroke-linecap="butt" stroke-linejoin="round" d="M 78.471 401.235 C 78.864 394.046 84.979 388.564 92.167 388.956 "/>
<path fill="none" stroke="#000000" stroke-width="1" stroke-linecap="butt" stroke-linejoin="round" d="M 92.167 388.956 C 99.356 389.349 104.839 395.464 104.446 402.653 "/>
<path fill="none" stroke="#000000" stroke-width="1" stroke-linecap="butt" stroke-linejoin="round" d="M 104.446 402.653 C 104.053 409.841 97.937 415.323 90.749 414.930 "/>
<path fill="none" stroke="#000000" stroke-width="1" stroke-linecap="butt" stroke-linejoin="round" d="M 90.749 414.930 C 83.561 414.537 78.079 408.423 78.471 401.235 "/>
<path fill="none" stroke="#000000" stroke-width="1" stroke-linecap="butt" stroke-linejoin="round" d="M 231.719 371.974 C 231.730 371.977 289.242 405.436 343.599 398.690 "/>
<path fill="none" stroke="#000000" stroke-width="1" stroke-linecap="butt" stroke-linejoin="round" d="M 343.599 398.690 C 392.684 392.598 437.581 350.821 437.590 350.817 "/>
<path fill="none" stroke="#000000" stroke-width="1" stroke-linecap="butt" stroke-linejoin="round" d="M 437.590 350.817 C 437.580 350.813 387.008 306.552 335.759 310.320 "/>
<path fill="none" stroke="#000000" stroke-width="1" stroke-linecap="butt" stroke-linejoin="round" d="M 335.759 310.320 C 279.203 314.478 231.729 371.968 231.719 371.974 "/>
<path fill="#000000" fill-rule="evenodd" stroke="none" d="M 301.955 354.039 C 302.968 335.493 318.746 321.349 337.293 322.361 C 355.839 323.374 369.984 339.151 368.972 357.698 C 367.959 376.244 352.180 390.389 333.634 389.377 C 315.087 388.364 300.942 372.586 301.955 354.039 M 78.471 401.235 C 78.864 394.046 84.979 388.564 92.167 388.956 C 99.356 389.349 104.839 395.464 104.446 402.653 C 104.053 409.841 97.937 415.323 90.749 414.930 C 83.561 414.537 78.079 408.423 78.471 401.235 M 231.719 371.974 C 231.730 371.977 289.242 405.436 343.599 398.690 C 392.684 392.598 437.581 350.821 437.590 350.817 C 437.580 350.813 387.008 306.552 335.759 310.320 C 279.203 314.478 231.729 371.968 231.719 371.974 Z"/>
</g>
<g id="specs_2">
<path fill="#ff0000" fill-rule="evenodd" stroke="none" d="M 591.399 423.663 C 591.402 423.662 626.200 411.208 626.203 411.207 C 626.202 411.208 614.644 423.647 614.643 423.648 C 614.644 423.649 626.218 436.072 626.219 436.073 C 626.216 436.072 591.402 423.664 591.399 423.663 Z"/>
<path fill="#0000ff" fill-rule="evenodd" stroke="none" d="M 364.557 121.420 C 364.558 121.422 371.792 141.636 371.792 141.638 C 371.792 141.637 364.567 134.924 364.566 134.923 C 364.565 134.924 357.349 141.646 357.348 141.647 C 357.349 141.645 364.557 121.422 364.557 121.420 Z"/>
<path fill="#00ff00" fill-rule="evenodd" stroke="none" d="M 2.067 433.612 C 2.069 433.612 22.086 425.851 22.088 425.851 C 22.087 425.851 15.565 433.250 15.565 433.250 C 15.565 433.251 22.475 440.289 22.475 440.290 C 22.473 440.289 2.069 433.613 2.067 433.612 Z"/>
<path fill="#ffff00" fill-rule="evenodd" stroke="none" d="M 266.430 554.563 C 266.431 554.561 275.379 535.046 275.380 535.044 C 275.380 535.045 275.858 544.896 275.858 544.897 C 275.859 544.897 285.718 545.130 285.719 545.130 C 285.717 545.131 266.432 554.562 266.430 554.563 Z"/>
<path fill="#ffff00" fill-rule="evenodd" stroke="none" d="M 452.304 529.704 C 452.303 529.702 442.941 510.383 442.940 510.381 C 442.940 510.382 442.672 520.241 442.672 520.242 C 442.671 520.242 432.818 520.685 432.817 520.685 C 432.819 520.686 452.302 529.703 452.304 529.704 Z"/>
<path fill="#00ff00" fill-rule="evenodd" stroke="none" d="M 520.249 422.329 C 520.247 422.328 499.911 415.446 499.909 415.446 C 499.910 415.446 506.748 422.554 506.748 422.555 C 506.748 422.555 500.151 429.888 500.151 429.888 C 500.153 429.888 520.247 422.330 520.249 422.329 Z"/>
<path fill="#00ffff" fill-rule="evenodd" stroke="none" d="M 661.389 202.755 C 661.389 202.757 658.293 224.002 658.293 224.004 C 658.293 224.003 655.062 214.684 655.062 214.683 C 655.061 214.683 645.534 217.234 645.533 217.234 C 645.534 217.233 661.387 202.756 661.389 202.755 Z"/>
<path fill="#00ffff" fill-rule="evenodd" stroke="none" d="M 104.598 332.450 C 104.599 332.452 113.112 352.161 113.113 352.163 C 113.113 352.162 113.810 342.324 113.810 342.323 C 113.811 342.323 123.673 342.309 123.674 342.309 C 123.672 342.308 104.600 332.451 104.598 332.450 Z"/>
<path fill="#be0027" fill-rule="evenodd" stroke="none" d="M 515.006 473.958 C 515.004 473.956 488.793 447.899 488.791 447.896 C 488.791 447.898 493.970 464.068 493.970 464.069 C 493.969 464.070 478.213 470.399 478.212 470.399 C 478.215 470.400 515.003 473.958 515.006 473.958 Z"/>
</g>
</g>
</svg>
