<?xml version="1.0" encoding="utf-8"?>
<!-- Generator: Moho 12.5 build 22414 -->
<!DOCTYPE svg PUBLIC "-//W3C//DTD SVG 1.1//EN" "http://www.w3.org/Graphics/SVG/1.1/DTD/svg11.dtd">
<svg version="1.1" id="Frame_0" xmlns="http://www.w3.org/2000/svg" xmlns:xlink="http://www.w3.org/1999/xlink" width="720px" height="720px">
<g id="head_eagle">
<g id="head_eagle_2">
<path fill="#ffffff" fill-rule="evenodd" stroke="#000000" stroke-width="3" stroke-linejoin="round" d="M 305.933 210.158 C 305.922 210.156 231.577 184.905 196.222 194.323 C 165.808 202.424 171.033 235.452 144.194 236.172 C 121.407 236.782 108.659 204.669 79.725 206.764 C 48.976 208.991 26.571 247.478 26.566 247.482 C 26.571 247.479 56.540 216.433 79.725 218.075 C 106.196 219.949 109.396 255.429 139.670 255.399 C 180.007 255.359 179.361 219.659 208.045 214.980 C 234.693 210.634 305.924 250.871 305.933 250.875 C 305.934 250.871 305.933 210.162 305.933 210.158 Z"/>
<path fill="#ffffff" fill-rule="evenodd" stroke="#000000" stroke-width="3" stroke-linejoin="round" d="M 347.121 87.898 C 356.478 84.580 350.708 127.879 315.452 136.533 C 295.815 141.353 254.382 118.438 254.376 118.436 C 254.385 118.433 309.938 101.082 347.121 87.898 M 252.774 164.916 C 252.768 164.915 190.573 149.082 190.567 149.081 C 190.574 149.074 203.780 96.192 261.823 77.825 C 286.792 69.924 311.818 59.334 337.918 57.265 C 399.076 52.417 423.747 9.906 423.755 9.901 C 423.753 9.907 440.568 49.783 402.330 65.776 C 394.516 69.044 413.110 74.406 421.300 80.087 C 465.208 110.543 521.290 68.403 521.300 68.402 C 521.294 68.408 515.863 118.432 457.350 132.553 C 449.752 134.387 458.987 161.226 467.555 171.603 C 497.846 208.289 553.624 195.451 553.632 195.454 C 553.624 195.456 513.254 234.109 469.566 217.994 C 462.089 215.236 438.593 271.673 446.661 281.138 C 494.251 336.969 543.031 324.919 543.041 324.924 C 543.030 324.925 494.807 361.454 436.619 334.302 C 426.659 329.655 411.144 385.566 421.719 398.519 C 461.531 447.279 514.036 447.671 514.045 447.676 C 514.037 447.677 505.458 471.815 429.581 458.836 C 413.544 456.093 431.949 513.568 450.503 523.475 C 517.296 559.139 569.054 513.699 569.066 513.698 C 569.061 513.703 570.487 555.280 516.866 567.615 C 482.813 575.449 535.560 598.083 575.402 619.014 C 521.151 668.780 452.412 715.996 318.128 710.099 C 312.480 709.851 290.471 649.459 281.520 657.200 C 247.060 687.002 193.796 661.462 193.788 661.463 C 193.794 661.459 243.164 659.756 255.076 626.194 C 258.274 617.182 244.432 567.904 225.438 574.140 C 176.185 590.309 133.621 561.952 133.612 561.951 C 133.621 561.947 207.579 558.417 220.714 528.925 C 228.404 511.661 231.844 472.005 218.843 473.691 C 160.920 481.199 123.939 445.191 123.929 445.188 C 123.940 445.185 192.551 458.475 228.202 419.098 C 245.217 400.305 246.393 375.809 239.714 376.032 C 181.779 377.964 170.284 339.046 170.277 339.042 C 170.286 339.043 209.151 360.395 256.234 341.568 C 262.299 339.142 263.019 328.574 275.189 316.112 C 317.744 272.535 264.088 264.451 264.085 264.448 C 264.084 264.438 252.775 164.926 252.774 164.916 Z"/>
<path fill="#ffffff" fill-rule="evenodd" stroke="#000000" stroke-width="3" stroke-linejoin="round" d="M 162.291 141.164 C 116.689 165.684 136.280 207.889 136.277 207.895 C 136.281 207.891 141.288 176.416 173.601 169.440 C 183.610 167.279 226.417 170.268 235.809 178.488 C 246.139 187.529 263.952 231.813 253.905 245.220 C 243.715 258.819 183.788 246.351 183.781 246.351 C 183.792 246.355 273.999 299.582 293.023 284.486 C 316.409 265.930 312.112 179.843 267.990 144.472 C 239.735 121.820 221.143 109.518 162.291 141.164 Z"/>
</g>
<g id="head_eagle">
<path fill="#000000" fill-rule="evenodd" stroke="none" d="M 315.452 136.533 C 295.815 141.353 254.382 118.438 254.376 118.436 C 254.385 118.433 309.938 101.082 347.121 87.898 C 356.478 84.580 350.708 127.879 315.452 136.533 Z"/>
<path fill="none" stroke="#000000" stroke-width="3" stroke-linejoin="round" d="M 447.965 312.427 C 476.281 326.205 506.138 330.238 536.567 327.948 M 453.860 192.815 C 453.865 192.817 484.014 205.852 509.155 206.395 C 526.730 206.774 548.292 199.176 548.296 199.175 M 238.879 113.922 C 288.553 68.575 354.845 76.169 380.822 63.184 C 421.846 42.678 423.469 15.997 423.474 15.992 M 288.243 147.288 C 288.246 147.289 307.471 161.744 326.769 154.285 C 368.022 138.340 370.858 83.141 370.863 83.134 C 370.872 83.137 403.459 118.155 467.066 110.191 C 495.224 106.666 518.838 72.744 518.844 72.740 M 205.604 118.431 C 220.217 114.774 267.552 94.598 313.742 190.862 C 328.930 222.516 327.981 278.907 294.460 292.559 "/>
<path fill="none" stroke="#000000" stroke-width="3" stroke-linejoin="round" d="M 290.930 659.778 C 290.937 659.783 311.614 716.360 357.205 711.406 C 387.380 708.126 354.122 663.112 354.122 663.107 C 354.128 663.111 388.130 711.010 413.725 706.268 C 434.111 702.491 411.669 655.919 411.669 655.914 C 411.675 655.917 441.528 700.306 468.189 689.826 C 496.550 678.678 460.997 634.339 460.996 634.333 C 461.001 634.336 496.998 672.964 517.348 662.306 C 541.691 649.556 502.862 608.190 502.861 608.185 C 502.867 608.187 540.795 665.980 566.842 625.085 C 574.652 612.823 534.562 599.852 518.421 587.236 M 242.050 580.095 C 251.472 597.815 270.313 633.250 270.316 633.256 C 270.320 633.258 282.132 669.344 306.850 662.079 C 325.393 656.630 282.721 558.613 282.718 558.603 C 282.725 558.613 321.549 673.194 353.094 661.052 C 377.872 651.514 333.571 574.739 333.569 574.731 C 333.577 574.739 384.262 671.869 413.725 654.886 C 435.187 642.515 384.953 566.518 384.951 566.509 C 384.958 566.516 438.526 651.559 462.024 632.278 C 481.378 616.397 432.623 554.185 432.620 554.178 C 432.628 554.182 487.245 624.634 510.322 603.504 C 520.224 594.438 493.781 561.929 493.779 561.925 C 493.775 561.921 452.779 524.380 452.775 524.376 M 238.117 476.190 C 232.262 500.810 236.092 542.270 236.092 542.277 C 236.095 542.280 249.108 579.241 262.662 578.841 C 288.973 578.064 290.406 495.611 290.408 495.602 C 290.412 495.611 290.491 578.431 322.265 580.896 C 350.146 583.060 344.871 490.473 344.873 490.464 C 344.876 490.472 351.585 571.403 376.730 568.565 C 404.608 565.417 387.575 471.917 387.576 471.908 C 387.581 471.916 400.081 574.093 435.305 553.150 C 454.668 541.637 428.705 491.221 428.704 491.214 M 245.192 389.756 C 239.660 408.268 228.597 445.286 228.595 445.291 C 228.596 445.295 228.453 474.763 242.109 479.160 C 267.734 487.411 278.073 396.958 278.077 396.949 C 278.078 396.959 260.977 488.462 289.381 491.492 C 317.882 494.532 320.206 401.069 320.210 401.060 C 320.213 401.069 322.087 491.201 350.011 489.437 C 376.578 487.758 370.562 403.124 370.564 403.115 C 370.567 403.122 378.596 481.158 402.421 477.105 C 430.005 472.413 420.506 427.203 420.508 427.198 C 420.507 427.195 411.842 401.348 411.841 401.345 M 258.842 340.459 C 256.475 344.837 251.742 353.592 251.742 353.593 C 251.743 353.597 245.668 392.313 269.856 396.949 C 288.510 400.525 306.847 345.573 306.851 345.568 C 306.852 345.573 290.755 401.687 321.237 401.060 C 340.122 400.672 348.981 344.545 348.984 344.540 C 348.985 344.545 333.003 401.545 360.288 401.060 C 383.503 400.647 390.086 338.380 390.089 338.374 C 390.090 338.380 378.461 403.025 400.365 402.088 C 427.503 400.926 413.788 375.998 420.499 362.953 M 294.460 292.559 C 292.622 292.444 271.129 339.672 308.906 340.429 C 327.677 340.806 339.731 285.970 339.735 285.965 C 339.736 285.970 329.521 339.004 356.177 338.374 C 375.078 337.928 381.866 280.832 381.868 280.826 C 381.869 280.832 374.041 335.305 394.426 336.147 C 417.360 337.094 416.979 255.906 416.982 255.898 C 416.983 255.906 412.178 334.217 433.250 331.181 C 460.148 327.304 442.545 259.374 442.546 259.367 M 322.835 238.123 C 322.837 238.127 318.354 284.096 343.845 282.882 C 368.114 281.725 363.939 221.647 363.941 221.641 C 363.943 221.646 365.066 277.604 384.951 275.688 C 413.030 272.982 408.471 217.060 408.473 217.054 C 408.476 217.059 408.776 264.578 432.222 264.384 C 456.355 264.185 449.888 198.885 449.890 198.878 M 317.697 202.215 C 317.701 202.218 326.735 241.260 352.066 232.527 C 374.078 224.939 361.599 180.866 361.600 180.861 C 361.605 180.864 373.356 232.772 405.504 218.141 C 420.672 211.237 403.507 165.166 403.507 165.161 C 403.511 165.164 429.423 206.686 444.554 200.670 C 471.598 189.918 440.334 145.297 438.845 142.666 "/>
<path fill="none" stroke="#000000" stroke-width="3" stroke-linejoin="round" d="M 251.742 353.593 C 244.524 357.566 228.782 363.130 213.050 361.725 C 197.022 360.292 173.262 342.487 173.258 342.485 M 228.595 445.291 C 228.591 445.293 206.596 460.236 188.672 460.550 C 160.562 461.041 131.130 447.305 131.125 447.303 M 236.092 542.277 C 236.089 542.279 218.746 562.412 205.114 566.509 C 178.237 574.587 138.266 561.942 138.259 561.941 M 270.316 633.256 C 270.315 633.258 264.434 652.861 254.441 656.941 C 233.602 665.450 201.009 662.079 201.004 662.079 M 493.779 561.925 C 490.753 557.222 528.001 554.010 540.124 545.957 C 548.345 540.495 567.641 515.927 567.644 515.924 M 420.508 427.198 C 420.512 427.200 436.300 442.643 460.996 449.358 C 481.176 454.846 511.576 449.644 511.581 449.644 "/>
<path fill="none" stroke="#000000" stroke-width="3" stroke-linejoin="round" d="M 552.595 623.506 C 539.214 613.656 525.833 603.806 512.452 593.956 M 508.048 651.719 C 490.872 631.326 473.696 610.933 456.520 590.540 M 461.274 678.447 C 444.543 656.677 427.813 634.906 411.083 613.135 M 405.590 696.266 C 389.627 674.001 373.664 651.735 357.700 629.469 M 348.421 701.463 C 336.303 684.057 324.184 666.650 312.065 649.243 M 498.396 593.066 C 479.529 574.042 460.662 555.018 441.795 535.995 M 451.622 622.021 C 431.946 592.925 412.271 563.828 392.596 534.732 M 404.105 645.037 C 383.959 611.131 363.814 577.225 343.668 543.319 M 345.452 650.977 C 334.744 626.707 324.036 602.437 313.328 578.166 M 296.450 650.977 C 285.990 626.624 275.529 602.271 265.069 577.918 M 427.863 541.837 C 421.792 519.324 415.720 496.810 409.648 474.297 M 375.149 557.428 C 372.526 527.994 369.902 498.561 367.278 469.127 M 323.178 570.792 C 320.959 527.085 318.739 483.378 316.520 439.671 M 263.040 567.080 C 263.221 530.905 263.402 494.730 263.584 458.555 M 406.383 464.225 C 401.804 442.570 397.225 420.915 392.646 399.260 M 347.679 476.501 C 348.174 450.004 348.669 423.506 349.164 397.009 M 291.253 475.759 C 295.278 446.316 299.304 416.874 303.330 387.431 M 244.479 461.652 C 249.742 438.463 255.005 415.273 260.268 392.084 M 401.135 388.150 C 404.757 362.732 408.378 337.314 412.000 311.896 M 360.301 388.892 C 365.093 364.861 369.886 340.829 374.679 316.798 M 319.466 386.665 C 325.736 361.354 332.006 336.044 338.276 310.734 M 267.494 377.755 C 275.274 362.733 283.053 347.710 290.833 332.688 M 433.803 312.420 C 433.333 296.547 432.862 280.675 432.392 264.802 M 397.423 324.299 C 398.957 304.170 400.491 284.041 402.025 263.912 M 355.846 325.784 C 359.847 304.112 363.848 282.440 367.849 260.768 M 303.874 328.754 C 311.027 309.277 318.179 289.799 325.331 270.322 M 343.224 270.843 C 343.315 258.518 343.406 246.193 343.496 233.868 M 433.061 251.539 C 431.865 233.076 430.669 214.614 429.473 196.151 M 385.544 264.160 C 386.220 249.476 386.896 234.792 387.573 220.107 M 317.981 156.580 C 317.983 156.582 330.949 170.624 337.285 185.461 C 342.178 196.921 347.678 224.065 347.679 224.068 M 336.666 150.640 C 336.668 150.641 349.850 161.420 353.618 166.157 C 356.291 169.517 359.063 175.562 361.786 180.264 M 347.877 140.518 C 347.880 140.520 371.043 148.056 380.743 163.534 C 394.593 185.633 398.906 206.988 398.908 206.992 M 358.816 126.808 C 358.821 126.810 391.901 131.766 412.272 149.081 C 427.802 162.282 432.071 171.850 441.970 183.234 M 438.845 142.666 C 438.157 141.449 424.302 128.970 418.212 125.322 C 405.764 117.867 383.795 112.503 366.586 106.093 "/>
</g>
<g id="specs_2">
<path fill="#0000ff" fill-rule="evenodd" stroke="none" d="M 336.311 44.848 C 336.312 44.850 343.523 65.043 343.524 65.045 C 343.523 65.044 336.312 58.334 336.311 58.334 C 336.310 58.334 329.099 65.044 329.098 65.045 C 329.099 65.043 336.310 44.850 336.311 44.848 Z"/>
<path fill="#00ff00" fill-rule="evenodd" stroke="none" d="M 129.582 451.060 C 129.584 451.059 149.741 443.745 149.743 443.744 C 149.742 443.745 143.069 450.991 143.068 450.991 C 143.069 450.992 149.815 458.169 149.815 458.170 C 149.813 458.169 129.584 451.060 129.582 451.060 Z"/>
<path fill="#ffff00" fill-rule="evenodd" stroke="none" d="M 309.505 712.921 C 309.506 712.919 318.455 693.434 318.456 693.432 C 318.456 693.433 318.927 703.273 318.927 703.274 C 318.928 703.274 328.775 703.512 328.777 703.512 C 328.775 703.513 309.507 712.920 309.505 712.921 Z"/>
<path fill="#ffff00" fill-rule="evenodd" stroke="none" d="M 571.794 613.288 C 571.792 613.287 551.222 607.235 551.220 607.234 C 551.220 607.235 558.330 614.053 558.331 614.054 C 558.330 614.055 552.040 621.637 552.040 621.638 C 552.042 621.637 571.792 613.289 571.794 613.288 Z"/>
<path fill="#00ff00" fill-rule="evenodd" stroke="none" d="M 517.958 450.025 C 517.956 450.024 497.799 442.710 497.797 442.709 C 497.798 442.710 504.471 449.956 504.472 449.956 C 504.471 449.957 497.725 457.134 497.724 457.135 C 497.727 457.134 517.956 450.025 517.958 450.025 Z"/>
<path fill="#00ffff" fill-rule="evenodd" stroke="none" d="M 524.071 67.677 C 524.070 67.680 516.912 87.892 516.911 87.894 C 516.911 87.893 515.556 78.136 515.556 78.135 C 515.555 78.135 505.726 78.784 505.725 78.784 C 505.727 78.783 524.069 67.679 524.071 67.677 Z"/>
<path fill="#00ffff" fill-rule="evenodd" stroke="none" d="M 50.453 215.257 C 50.455 215.257 70.381 223.177 70.383 223.178 C 70.383 223.177 63.931 215.733 63.931 215.732 C 63.931 215.731 70.891 208.761 70.892 208.760 C 70.890 208.761 50.455 215.256 50.453 215.257 Z"/>
<path fill="#be0027" fill-rule="evenodd" stroke="none" d="M 474.516 703.498 C 474.515 703.494 462.453 668.608 462.451 668.604 C 462.451 668.606 459.992 685.385 459.992 685.386 C 459.991 685.386 443.078 684.141 443.077 684.141 C 443.080 684.143 474.513 703.496 474.516 703.498 Z"/>
<path fill="#ff0000" fill-rule="evenodd" stroke="none" d="M 398.863 591.680 C 398.864 591.684 411.707 627.645 411.708 627.648 C 411.707 627.647 398.864 615.698 398.863 615.697 C 398.861 615.698 386.019 627.647 386.017 627.648 C 386.019 627.645 398.861 591.684 398.863 591.680 Z"/>
</g>
</g>
</svg>
