<?xml version="1.0" encoding="utf-8"?>
<!-- Generator: Moho 12.5 build 22414 -->
<!DOCTYPE svg PUBLIC "-//W3C//DTD SVG 1.1//EN" "http://www.w3.org/Graphics/SVG/1.1/DTD/svg11.dtd">
<svg version="1.1" id="Frame_0" xmlns="http://www.w3.org/2000/svg" xmlns:xlink="http://www.w3.org/1999/xlink" width="720px" height="720px">
<g id="bird_head">
<g id="bird_head">
<path fill="#ffffff" fill-rule="evenodd" stroke="#000000" stroke-width="4" stroke-linejoin="round" d="M 126.819 254.209 C 126.852 254.209 458.107 254.762 458.140 254.762 C 458.137 254.776 427.320 393.748 427.317 393.762 C 427.287 393.748 126.849 254.223 126.819 254.209 Z"/>
<path fill="#ffffff" fill-rule="evenodd" stroke="#000000" stroke-width="4" stroke-linejoin="round" d="M 126.819 470.246 C 126.852 470.246 458.107 469.693 458.140 469.693 C 458.137 469.679 427.320 330.706 427.317 330.693 C 427.287 330.707 126.849 470.232 126.819 470.246 Z"/>
<path fill="#ffffff" fill-rule="evenodd" stroke="#000000" stroke-width="4" stroke-linejoin="round" d="M 505.486 213.711 C 586.456 213.711 651.775 279.030 651.775 360.000 C 651.775 440.970 586.456 506.289 505.486 506.289 C 424.516 506.289 359.197 440.970 359.197 360.000 C 359.197 279.030 424.516 213.711 505.486 213.711 Z"/>
<path fill="#000000" fill-rule="evenodd" stroke="#000000" stroke-width="4" stroke-linejoin="round" d="M 505.486 307.234 C 534.692 307.234 558.252 330.794 558.252 360.000 C 558.252 389.206 534.692 412.766 505.486 412.766 C 476.280 412.766 452.720 389.206 452.720 360.000 C 452.720 330.794 476.280 307.234 505.486 307.234 Z"/>
<path fill="#ffffff" fill-rule="evenodd" stroke="#000000" stroke-width="4" stroke-linejoin="round" d="M 505.486 330.199 C 521.980 330.199 535.287 343.506 535.287 360.000 C 535.287 376.494 521.980 389.801 505.486 389.801 C 488.992 389.801 475.686 376.494 475.686 360.000 C 475.686 343.506 488.992 330.199 505.486 330.199 Z"/>
</g>
<g id="specs">
<path fill="#ff00ff" fill-rule="evenodd" stroke="none" d="M 26.742 468.859 C 26.763 468.859 239.836 468.859 239.857 468.859 C 239.857 468.838 239.857 255.765 239.857 255.744 C 239.836 255.744 26.763 255.744 26.742 255.744 C 26.742 255.765 26.742 468.838 26.742 468.859 Z"/>
<path fill="#ff0000" fill-rule="evenodd" stroke="none" d="M 632.586 362.504 C 632.590 362.502 667.395 350.072 667.399 350.071 C 667.398 350.072 655.832 362.502 655.831 362.504 C 655.832 362.505 667.398 374.935 667.399 374.936 C 667.395 374.935 632.590 362.505 632.586 362.504 Z"/>
<path fill="#0000ff" fill-rule="evenodd" stroke="none" d="M 506.147 200.743 C 506.148 200.745 513.368 220.963 513.369 220.965 C 513.368 220.965 506.148 214.247 506.147 214.246 C 506.146 214.247 498.926 220.965 498.925 220.965 C 498.926 220.963 506.146 200.745 506.147 200.743 Z"/>
<path fill="#00ff00" fill-rule="evenodd" stroke="none" d="M 352.407 360.786 C 352.408 360.786 361.453 357.503 361.454 357.503 C 361.454 357.503 358.459 360.755 358.459 360.755 C 358.459 360.756 361.487 363.977 361.487 363.977 C 361.486 363.977 352.408 360.786 352.407 360.786 Z"/>
<path fill="#ffff00" fill-rule="evenodd" stroke="none" d="M 396.979 469.478 C 396.980 469.477 400.996 460.732 400.997 460.731 C 400.997 460.732 401.208 465.147 401.208 465.148 C 401.209 465.148 405.628 465.255 405.628 465.255 C 405.627 465.255 396.980 469.477 396.979 469.478 Z"/>
<path fill="#ffff00" fill-rule="evenodd" stroke="none" d="M 614.184 469.370 C 614.184 469.370 609.993 460.707 609.993 460.706 C 609.993 460.707 609.870 465.126 609.870 465.126 C 609.869 465.126 605.453 465.322 605.453 465.322 C 605.453 465.323 614.183 469.370 614.184 469.370 Z"/>
<path fill="#00ff00" fill-rule="evenodd" stroke="none" d="M 658.632 360.786 C 658.631 360.786 649.585 357.503 649.584 357.503 C 649.585 357.503 652.580 360.755 652.580 360.755 C 652.580 360.756 649.552 363.977 649.552 363.977 C 649.553 363.977 658.631 360.786 658.632 360.786 Z"/>
<path fill="#00ffff" fill-rule="evenodd" stroke="none" d="M 613.467 251.739 C 613.467 251.740 610.255 260.811 610.254 260.812 C 610.254 260.811 609.646 256.433 609.646 256.433 C 609.645 256.433 605.235 256.724 605.234 256.724 C 605.235 256.723 613.467 251.740 613.467 251.739 Z"/>
<path fill="#00ffff" fill-rule="evenodd" stroke="none" d="M 397.152 252.040 C 397.153 252.041 400.963 260.877 400.963 260.878 C 400.963 260.878 401.278 256.468 401.278 256.468 C 401.279 256.468 405.699 256.464 405.700 256.464 C 405.699 256.464 397.153 252.040 397.152 252.040 Z"/>
</g>
</g>
</svg>
