<?xml version="1.0" encoding="utf-8"?>
<!-- Generator: Moho 12.5 build 22414 -->
<!DOCTYPE svg PUBLIC "-//W3C//DTD SVG 1.1//EN" "http://www.w3.org/Graphics/SVG/1.1/DTD/svg11.dtd">
<svg version="1.1" id="Frame_0" xmlns="http://www.w3.org/2000/svg" xmlns:xlink="http://www.w3.org/1999/xlink" width="720px" height="720px">
<g id="halves">
<g id="head_half">
<g id="head_2">
<path fill="#ffffff" fill-rule="evenodd" stroke="#000000" stroke-width="3" stroke-linejoin="round" d="M 484.267 37.693 C 484.267 252.564 484.267 682.243 484.267 682.307 C 395.413 683.275 341.558 670.551 307.362 649.745 C 246.239 612.556 224.356 564.263 224.348 564.254 C 224.360 564.249 352.244 513.537 352.257 513.532 C 352.242 513.532 207.201 519.573 207.186 519.574 C 207.186 519.566 205.939 446.561 205.939 446.553 C 205.930 446.552 115.714 429.741 115.705 429.739 C 115.714 429.723 205.900 268.857 205.911 268.842 C 205.911 268.839 223.680 135.533 300.635 89.379 C 398.999 30.386 484.267 37.693 484.267 37.693 M 247.426 307.976 C 247.426 278.694 271.048 255.072 300.330 255.073 C 329.612 255.073 353.233 278.695 353.233 307.976 C 353.233 337.258 329.612 360.880 300.330 360.881 C 271.048 360.881 247.426 337.258 247.426 307.976 Z"/>
</g>
<g id="specs_2">
<path fill="#ff0000" fill-rule="evenodd" stroke="none" d="M 445.642 360.000 C 445.648 359.998 503.214 339.439 503.220 339.437 C 503.218 339.439 484.089 359.998 484.087 360.000 C 484.089 360.002 503.218 380.561 503.220 380.563 C 503.214 380.561 445.648 360.002 445.642 360.000 Z"/>
<path fill="#0000ff" fill-rule="evenodd" stroke="none" d="M 484.267 15.155 C 484.269 15.158 496.211 48.598 496.212 48.601 C 496.211 48.600 484.269 37.489 484.267 37.487 C 484.266 37.489 472.324 48.600 472.323 48.601 C 472.324 48.598 484.266 15.158 484.267 15.155 Z"/>
<path fill="#00ff00" fill-rule="evenodd" stroke="none" d="M 258.228 309.214 C 258.231 309.212 290.485 294.363 290.488 294.361 C 290.487 294.363 280.474 307.240 280.473 307.241 C 280.474 307.242 292.597 318.157 292.598 318.158 C 292.595 318.157 258.231 309.215 258.228 309.214 Z"/>
<path fill="#ffff00" fill-rule="evenodd" stroke="none" d="M 289.718 662.164 C 289.719 662.161 304.540 629.894 304.541 629.891 C 304.541 629.893 305.321 646.187 305.322 646.188 C 305.323 646.188 321.630 646.583 321.632 646.583 C 321.628 646.585 289.721 662.163 289.718 662.164 Z"/>
<path fill="#00ffff" fill-rule="evenodd" stroke="none" d="M 252.641 95.889 C 252.642 95.893 266.702 128.499 266.703 128.502 C 266.703 128.500 267.865 112.229 267.866 112.228 C 267.867 112.228 284.179 112.215 284.180 112.215 C 284.177 112.213 252.644 95.891 252.641 95.889 Z"/>
<path fill="#be0027" fill-rule="evenodd" stroke="none" d="M 522.714 360.000 C 522.708 359.998 465.142 339.439 465.136 339.437 C 465.138 339.439 484.267 359.998 484.269 360.000 C 484.267 360.002 465.138 380.561 465.136 380.563 C 465.142 380.561 522.708 360.002 522.714 360.000 Z"/>
<path fill="none" stroke="#ffff00" stroke-width="3" stroke-linejoin="round" d="M 484.267 37.693 C 484.267 252.564 484.267 682.243 484.267 682.307 "/>
</g>
</g>
</g>
<g id="combos">
</g>
</svg>
