<?xml version="1.0" encoding="utf-8"?>
<!-- Generator: Moho 12.5 build 22414 -->
<!DOCTYPE svg PUBLIC "-//W3C//DTD SVG 1.1//EN" "http://www.w3.org/Graphics/SVG/1.1/DTD/svg11.dtd">
<svg version="1.1" id="Frame_0" xmlns="http://www.w3.org/2000/svg" xmlns:xlink="http://www.w3.org/1999/xlink" width="720px" height="720px">
<g id="head_beast">
<g id="beast_head">
<path fill="#ffffff" fill-rule="evenodd" stroke="#000000" stroke-width="4" stroke-linecap="round" stroke-linejoin="round" d="M 301.959 354.002 C 302.984 335.456 318.771 321.322 337.317 322.346 C 355.863 323.371 369.997 339.158 368.973 357.704 C 367.948 376.250 352.161 390.384 333.615 389.360 C 315.069 388.335 300.934 372.548 301.959 354.002 M 78.445 401.053 C 78.842 393.865 84.961 388.386 92.149 388.783 C 99.337 389.180 104.816 395.299 104.418 402.488 C 104.021 409.676 97.902 415.153 90.714 414.756 C 83.526 414.359 78.048 408.241 78.445 401.053 M 340.737 450.042 C 340.729 450.045 264.190 474.182 264.182 474.184 C 264.181 474.182 250.701 454.701 250.699 454.699 C 250.699 454.701 243.283 481.091 243.282 481.093 C 243.279 481.094 206.537 490.452 206.533 490.453 C 206.531 490.450 189.634 463.479 189.632 463.476 C 189.631 463.479 177.041 498.880 177.040 498.884 C 177.037 498.884 143.699 506.606 143.697 506.607 C 143.693 506.604 119.479 475.411 119.477 475.408 C 119.476 475.411 110.701 514.375 110.700 514.379 C 110.695 514.381 58.746 531.795 58.741 531.797 C 58.768 531.799 237.106 558.118 325.513 548.987 C 370.737 544.318 422.098 543.066 458.018 515.196 C 483.034 495.787 498.592 463.789 506.215 433.058 C 511.836 410.391 504.311 362.848 504.311 362.841 C 504.325 362.834 592.698 341.913 644.139 288.296 C 696.777 233.434 714.204 142.092 714.211 142.078 C 714.199 142.090 663.000 218.473 599.057 264.601 C 554.394 296.822 493.148 315.340 493.136 315.346 C 493.136 315.345 489.414 309.853 489.414 309.853 C 489.422 309.846 547.112 283.579 577.669 240.849 C 619.199 182.776 624.960 96.141 624.965 96.126 C 624.957 96.138 596.228 166.395 550.108 211.436 C 508.645 251.931 445.192 276.755 445.182 276.762 C 445.173 276.762 377.281 275.494 360.657 275.975 C 335.709 276.697 275.213 271.745 202.320 297.886 C 119.467 327.598 60.531 382.708 48.057 393.871 C 31.422 411.079 8.487 438.828 8.483 438.832 C 8.489 438.832 68.641 440.416 68.647 440.417 C 68.649 440.421 85.784 485.426 85.786 485.430 C 85.787 485.426 103.683 441.298 103.685 441.293 C 103.689 441.294 142.679 444.314 142.683 444.314 C 142.684 444.319 158.907 482.662 158.908 482.666 C 158.910 482.662 175.738 447.155 175.740 447.152 C 175.744 447.152 211.236 448.178 211.239 448.179 C 211.241 448.181 223.306 478.547 223.307 478.550 C 223.309 478.547 235.526 449.799 235.527 449.795 C 235.538 449.796 340.727 450.042 340.737 450.042 M 441.898 259.438 C 441.890 259.438 391.744 254.120 361.767 255.886 C 330.704 257.716 287.139 261.087 287.132 261.088 C 287.129 261.077 263.735 152.375 263.733 152.364 C 263.740 152.369 328.034 205.321 328.041 205.327 C 328.045 205.319 364.332 127.706 364.336 127.698 C 364.339 127.706 399.063 205.094 399.066 205.102 C 399.072 205.096 461.807 147.078 461.813 147.073 C 461.811 147.085 441.900 259.427 441.898 259.438 M 231.711 371.892 C 231.722 371.894 289.213 405.390 343.574 398.679 C 392.663 392.619 437.587 350.872 437.596 350.867 C 437.586 350.863 387.042 306.569 335.791 310.304 C 279.232 314.426 231.721 371.886 231.711 371.892 Z"/>
</g>
<g id="specs_2">
<path fill="#ff0000" fill-rule="evenodd" stroke="none" d="M 591.357 423.812 C 591.361 423.811 626.167 411.380 626.170 411.379 C 626.169 411.380 614.603 423.811 614.602 423.812 C 614.603 423.814 626.169 436.244 626.170 436.245 C 626.167 436.244 591.361 423.814 591.357 423.812 Z"/>
<path fill="#0000ff" fill-rule="evenodd" stroke="none" d="M 364.711 121.423 C 364.712 121.425 371.933 141.643 371.933 141.645 C 371.933 141.645 364.712 134.927 364.711 134.926 C 364.711 134.927 357.490 141.645 357.490 141.645 C 357.490 141.643 364.711 121.425 364.711 121.423 Z"/>
<path fill="#00ff00" fill-rule="evenodd" stroke="none" d="M 2.019 433.381 C 2.021 433.380 22.043 425.633 22.045 425.632 C 22.045 425.633 15.518 433.027 15.517 433.028 C 15.518 433.029 22.423 440.071 22.423 440.072 C 22.421 440.071 2.021 433.382 2.019 433.381 Z"/>
<path fill="#ffff00" fill-rule="evenodd" stroke="none" d="M 266.304 554.502 C 266.305 554.500 275.266 534.991 275.267 534.989 C 275.267 534.990 275.738 544.842 275.738 544.843 C 275.739 544.843 285.599 545.082 285.600 545.082 C 285.598 545.083 266.306 554.501 266.304 554.502 Z"/>
<path fill="#ffff00" fill-rule="evenodd" stroke="none" d="M 452.195 529.764 C 452.194 529.762 442.844 510.436 442.843 510.434 C 442.843 510.435 442.569 520.294 442.569 520.295 C 442.568 520.295 432.715 520.732 432.714 520.732 C 432.716 520.733 452.193 529.763 452.195 529.764 Z"/>
<path fill="#00ff00" fill-rule="evenodd" stroke="none" d="M 520.209 422.433 C 520.207 422.432 499.875 415.537 499.873 415.536 C 499.874 415.537 506.707 422.649 506.708 422.650 C 506.707 422.650 500.106 429.978 500.106 429.979 C 500.108 429.978 520.207 422.433 520.209 422.433 Z"/>
<path fill="#00ffff" fill-rule="evenodd" stroke="none" d="M 714.569 139.846 C 714.569 139.848 714.107 161.312 714.107 161.314 C 714.107 161.313 709.756 152.462 709.755 152.461 C 709.754 152.462 700.613 156.164 700.612 156.164 C 700.614 156.163 714.568 139.848 714.569 139.846 Z"/>
<path fill="#00ffff" fill-rule="evenodd" stroke="none" d="M 104.616 332.285 C 104.617 332.287 113.118 352.002 113.118 352.004 C 113.119 352.003 113.821 342.165 113.821 342.164 C 113.822 342.164 123.685 342.156 123.686 342.156 C 123.684 342.155 104.618 332.286 104.616 332.285 Z"/>
<path fill="#be0027" fill-rule="evenodd" stroke="none" d="M 514.933 474.059 C 514.930 474.056 488.736 447.982 488.734 447.979 C 488.734 447.981 493.902 464.154 493.903 464.156 C 493.901 464.156 478.142 470.475 478.140 470.476 C 478.144 470.476 514.929 474.058 514.933 474.059 Z"/>
</g>
</g>
</svg>
