<?xml version="1.0" encoding="utf-8"?>
<!-- Generator: Moho 12.5 build 22414 -->
<!DOCTYPE svg PUBLIC "-//W3C//DTD SVG 1.1//EN" "http://www.w3.org/Graphics/SVG/1.1/DTD/svg11.dtd">
<svg version="1.1" id="Frame_0" xmlns="http://www.w3.org/2000/svg" xmlns:xlink="http://www.w3.org/1999/xlink" width="720px" height="720px">
<g id="head_dragon">
<g id="head_dragon">
<path fill="#ffffff" fill-rule="evenodd" stroke="#000000" stroke-width="4" stroke-linecap="round" stroke-linejoin="round" d="M 559.895 189.180 C 484.436 200.685 505.844 182.526 359.897 203.733 C 254.490 219.050 281.312 250.526 281.304 250.530 C 281.308 250.533 322.424 278.684 322.428 278.686 C 322.436 278.685 402.828 265.737 402.836 265.736 C 402.835 265.740 390.208 286.039 394.145 304.125 C 397.425 319.187 413.579 330.518 413.581 330.520 C 413.582 330.517 425.448 312.972 423.544 296.336 C 421.651 279.802 406.238 265.471 406.237 265.467 C 406.244 265.466 483.167 247.550 483.175 247.548 C 483.172 247.557 472.831 317.809 447.280 333.847 C 423.941 348.496 386.259 343.223 361.984 330.184 C 343.972 320.508 323.374 279.969 323.370 279.964 C 323.366 279.962 280.922 252.852 280.917 252.849 C 280.905 252.850 241.769 254.408 155.039 267.177 C 148.988 268.068 142.436 233.999 102.016 241.903 C 32.860 255.428 34.209 337.238 34.207 337.244 C 34.214 337.239 75.958 283.038 104.072 280.824 C 122.194 279.398 156.011 294.575 155.773 306.858 C 155.534 319.258 142.198 336.986 125.539 334.041 C 110.625 331.404 100.306 309.314 85.270 307.502 C 61.518 304.640 46.815 325.333 38.041 334.418 C 28.470 344.329 10.766 387.062 10.764 387.068 C 10.768 387.068 51.531 389.195 51.535 389.196 C 51.538 389.203 81.882 460.146 81.885 460.153 C 81.887 460.146 98.159 391.578 98.161 391.572 C 98.166 391.572 144.647 393.431 144.651 393.431 C 144.654 393.437 176.174 456.610 176.177 456.616 C 176.178 456.610 184.615 394.804 184.616 394.798 C 184.622 394.798 246.810 397.900 246.816 397.900 C 246.819 397.906 281.669 461.584 281.672 461.590 C 281.674 461.584 295.828 399.508 295.830 399.502 C 295.833 399.502 362.770 402.683 362.774 402.684 C 362.777 402.689 390.360 461.861 390.363 461.867 C 390.364 461.861 403.071 401.836 403.074 401.831 C 403.077 401.830 444.922 402.521 472.877 399.732 C 516.468 395.384 524.267 386.296 524.272 386.294 C 524.270 386.303 504.708 469.804 504.706 469.813 C 504.702 469.813 467.356 473.125 467.352 473.126 C 467.350 473.121 442.650 424.639 442.648 424.634 C 442.647 424.639 432.248 475.360 432.246 475.365 C 432.243 475.366 353.245 484.366 353.241 484.366 C 353.237 484.361 326.354 426.538 326.352 426.533 C 326.350 426.538 312.860 483.651 312.857 483.656 C 312.854 483.657 254.228 483.977 254.225 483.977 C 254.221 483.972 222.987 433.510 222.984 433.505 C 222.983 433.510 217.039 484.810 217.037 484.815 C 217.033 484.816 145.046 483.402 145.043 483.402 C 145.041 483.397 120.196 436.029 120.194 436.024 C 120.193 436.029 112.021 487.039 112.020 487.044 C 112.014 487.044 52.842 486.161 52.836 486.161 C 52.837 486.165 62.082 512.031 67.325 523.343 C 85.530 562.623 171.691 591.015 171.702 591.022 C 171.699 591.016 131.443 554.801 138.116 535.717 C 164.362 460.653 426.151 615.501 577.021 545.133 C 702.937 486.404 658.526 291.102 654.171 288.429 C 657.748 285.056 665.814 269.979 670.835 257.631 C 696.862 193.631 715.454 149.627 714.543 130.153 C 701.880 164.703 652.902 175.000 559.895 189.180 Z"/>
</g>
<g id="specs">
<path fill="#ff0000" fill-rule="evenodd" stroke="none" d="M 670.946 390.419 C 670.949 390.418 704.847 378.312 704.850 378.311 C 704.849 378.312 693.585 390.418 693.584 390.419 C 693.585 390.420 704.849 402.526 704.850 402.528 C 704.847 402.526 670.949 390.420 670.946 390.419 Z"/>
<path fill="#0000ff" fill-rule="evenodd" stroke="none" d="M 397.330 186.643 C 397.331 186.645 405.965 205.688 405.966 205.689 C 405.965 205.689 398.417 199.749 398.416 199.749 C 398.415 199.749 391.948 206.851 391.947 206.851 C 391.948 206.849 397.329 186.645 397.330 186.643 Z"/>
<path fill="#00ff00" fill-rule="evenodd" stroke="none" d="M 3.513 435.091 C 3.515 435.090 23.169 427.959 23.171 427.958 C 23.171 427.959 16.663 435.024 16.663 435.025 C 16.663 435.025 23.242 442.025 23.242 442.025 C 23.240 442.025 3.515 435.092 3.513 435.091 Z"/>
<path fill="#ffff00" fill-rule="evenodd" stroke="none" d="M 267.414 545.448 C 267.415 545.446 276.142 526.446 276.143 526.444 C 276.143 526.445 276.603 536.040 276.603 536.041 C 276.604 536.041 286.206 536.273 286.207 536.273 C 286.205 536.274 267.416 545.447 267.414 545.448 Z"/>
<path fill="#ffff00" fill-rule="evenodd" stroke="none" d="M 574.648 545.215 C 574.647 545.214 565.541 526.392 565.541 526.390 C 565.541 526.391 565.273 535.993 565.273 535.994 C 565.272 535.994 555.676 536.419 555.675 536.419 C 555.677 536.420 574.646 545.215 574.648 545.215 Z"/>
<path fill="#00ff00" fill-rule="evenodd" stroke="none" d="M 685.615 402.774 C 685.613 402.773 665.959 395.641 665.957 395.641 C 665.957 395.641 672.465 402.707 672.465 402.708 C 672.465 402.708 665.886 409.707 665.886 409.708 C 665.888 409.707 685.613 402.775 685.615 402.774 Z"/>
<path fill="#00ffff" fill-rule="evenodd" stroke="none" d="M 560.284 182.350 C 560.284 182.352 554.714 202.505 554.713 202.507 C 554.713 202.506 552.722 193.109 552.722 193.108 C 552.721 193.108 543.205 194.417 543.204 194.417 C 543.206 194.416 560.282 182.351 560.284 182.350 Z"/>
<path fill="#00ffff" fill-rule="evenodd" stroke="none" d="M 148.719 256.382 C 148.719 256.384 148.373 277.290 148.373 277.292 C 148.374 277.291 152.936 268.838 152.937 268.838 C 152.938 268.838 161.697 272.780 161.698 272.780 C 161.696 272.778 148.721 256.383 148.719 256.382 Z"/>
</g>
</g>
</svg>
