<?xml version="1.0" encoding="utf-8"?>
<!-- Generator: Moho 12.5 build 22414 -->
<!DOCTYPE svg PUBLIC "-//W3C//DTD SVG 1.1//EN" "http://www.w3.org/Graphics/SVG/1.1/DTD/svg11.dtd">
<svg version="1.1" id="Frame_0" xmlns="http://www.w3.org/2000/svg" xmlns:xlink="http://www.w3.org/1999/xlink" width="720px" height="720px">
<g id="head_eagle">
<g id="head_eagle_2">
<path fill="#ffffff" fill-rule="evenodd" stroke="#000000" stroke-width="3" stroke-linejoin="round" d="M 305.933 210.158 C 305.922 210.156 231.577 184.905 196.222 194.323 C 165.808 202.424 171.033 235.452 144.194 236.172 C 121.407 236.782 108.659 204.669 79.725 206.764 C 48.976 208.991 26.571 247.478 26.566 247.482 C 26.571 247.479 56.540 216.433 79.725 218.075 C 106.196 219.949 109.396 255.429 139.670 255.399 C 180.007 255.359 179.361 219.659 208.045 214.980 C 234.693 210.634 305.924 250.871 305.933 250.875 C 305.934 250.871 305.933 210.162 305.933 210.158 Z"/>
<path fill="#ffffff" fill-rule="evenodd" stroke="#000000" stroke-width="3" stroke-linejoin="round" d="M 190.567 149.081 C 190.574 149.074 203.780 96.192 261.823 77.825 C 286.792 69.924 311.818 59.334 337.918 57.265 C 399.076 52.417 423.747 9.906 423.755 9.901 C 423.753 9.907 440.568 49.783 402.330 65.776 C 394.516 69.044 413.110 74.406 421.300 80.087 C 465.208 110.543 521.290 68.403 521.300 68.402 C 521.294 68.408 515.863 118.432 457.350 132.553 C 449.752 134.387 458.987 161.226 467.555 171.603 C 497.846 208.289 553.624 195.451 553.632 195.454 C 553.624 195.456 513.254 234.109 469.566 217.994 C 462.089 215.236 438.593 271.673 446.661 281.138 C 494.251 336.969 543.031 324.919 543.041 324.924 C 543.030 324.925 494.807 361.454 436.619 334.302 C 426.659 329.655 411.144 385.566 421.719 398.519 C 461.531 447.279 514.036 447.671 514.045 447.676 C 514.037 447.677 505.458 471.815 429.581 458.836 C 413.544 456.093 431.949 513.568 450.503 523.475 C 517.296 559.139 569.054 513.699 569.066 513.698 C 569.061 513.703 570.487 555.280 516.866 567.615 C 482.813 575.449 535.560 598.083 575.402 619.014 C 521.151 668.780 452.412 715.996 318.128 710.099 C 312.480 709.851 290.471 649.459 281.520 657.200 C 247.060 687.002 193.796 661.462 193.788 661.463 C 193.794 661.459 243.164 659.756 255.076 626.194 C 258.274 617.182 244.432 567.904 225.438 574.140 C 176.185 590.309 133.621 561.952 133.612 561.951 C 133.621 561.947 207.579 558.417 220.714 528.925 C 228.404 511.661 231.844 472.005 218.843 473.691 C 160.920 481.199 123.939 445.191 123.929 445.188 C 123.940 445.185 192.551 458.475 228.202 419.098 C 245.217 400.305 246.393 375.809 239.714 376.032 C 181.779 377.964 170.284 339.046 170.277 339.042 C 170.285 339.042 204.373 349.123 245.704 332.208 C 252.312 329.504 283.613 307.593 282.803 260.938 C 281.501 185.873 252.776 164.926 252.774 164.916 C 252.768 164.915 190.573 149.082 190.567 149.081 Z"/>
<path fill="#ffffff" fill-rule="evenodd" stroke="#000000" stroke-width="3" stroke-linejoin="round" d="M 162.291 141.164 C 116.689 165.684 136.280 207.889 136.277 207.895 C 136.281 207.891 141.288 176.416 173.601 169.440 C 183.610 167.279 226.417 170.268 235.809 178.488 C 246.139 187.529 263.952 231.813 253.905 245.220 C 243.715 258.819 183.788 246.351 183.781 246.351 C 183.792 246.355 273.999 299.582 293.023 284.486 C 316.409 265.930 312.112 179.843 267.990 144.472 C 239.735 121.820 221.143 109.518 162.291 141.164 Z"/>
</g>
<g id="lines">
<path fill="none" stroke="#000000" stroke-width="3" stroke-linejoin="round" d="M 506.572 571.013 C 496.229 572.672 489.612 575.550 475.544 575.989 M 426.272 457.938 C 419.703 453.374 420.663 453.301 406.566 444.245 M 433.646 333.801 C 426.718 326.894 421.599 329.451 412.860 313.079 M 468.494 217.039 C 461.914 213.472 455.220 209.986 448.754 206.339 M 456.179 132.233 C 449.475 132.011 442.603 132.802 436.065 131.567 M 282.856 655.434 C 287.201 650.366 286.977 651.291 295.892 640.230 M 229.595 573.471 C 238.400 568.836 248.970 566.483 256.010 559.566 M 219.739 474.350 C 227.491 471.345 235.687 469.157 242.996 465.337 M 241.910 375.180 C 248.483 375.197 254.045 373.570 261.630 369.381 "/>
<path fill="#000000" fill-rule="evenodd" stroke="none" d="M 324.728 132.316 C 305.091 137.136 263.658 114.222 263.652 114.220 C 263.661 114.217 319.214 96.865 356.398 83.681 C 365.755 80.364 359.984 123.663 324.728 132.316 Z"/>
<path fill="none" stroke="#000000" stroke-width="3" stroke-linejoin="round" d="M 209.741 115.057 C 209.745 115.057 231.324 102.769 256.121 114.908 C 276.373 124.823 304.729 154.540 314.208 182.768 C 328.401 225.030 322.379 271.709 312.919 280.787 C 303.614 289.717 289.946 287.205 289.944 287.206 "/>
<path fill="none" stroke="#000000" stroke-width="3" stroke-linejoin="round" d="M 321.630 200.366 C 321.635 200.371 367.806 196.437 374.276 255.351 C 383.360 338.080 308.990 388.240 327.479 483.483 C 356.083 630.824 452.647 692.876 452.659 692.897 "/>
<path fill="none" stroke="#000000" stroke-width="3" stroke-linejoin="round" d="M 209.741 115.057 C 209.745 115.057 231.324 102.769 256.121 114.908 C 276.373 124.823 304.729 154.540 314.208 182.768 C 328.401 225.030 322.379 271.709 312.919 280.787 C 303.614 289.717 289.946 287.205 289.944 287.206 C 289.944 287.208 296.104 293.719 292.646 311.235 C 283.404 358.062 224.032 394.657 250.323 521.656 C 276.983 650.438 353.207 708.087 353.217 708.106 "/>
<path fill="none" stroke="#000000" stroke-width="3" stroke-linejoin="round" d="M 401.184 69.336 C 401.187 69.344 433.830 88.378 437.451 144.210 C 439.484 175.570 435.916 208.415 384.805 210.895 C 369.177 211.653 349.322 207.775 349.318 207.775 "/>
<path fill="none" stroke="#000000" stroke-width="3" stroke-linejoin="round" d="M 284.265 135.484 C 284.270 135.485 311.331 152.869 334.171 145.621 C 389.611 128.028 374.716 77.397 374.720 77.390 "/>
<path fill="none" stroke="#000000" stroke-width="3" stroke-linejoin="round" d="M 284.265 135.484 C 284.270 135.485 311.331 152.869 334.171 145.621 C 389.611 128.028 374.716 77.397 374.720 77.390 C 374.723 77.389 393.358 70.073 402.677 66.415 "/>
</g>
<g id="specs_2">
<path fill="#0000ff" fill-rule="evenodd" stroke="none" d="M 336.311 44.848 C 336.312 44.850 343.523 65.043 343.524 65.045 C 343.523 65.044 336.312 58.334 336.311 58.334 C 336.310 58.334 329.099 65.044 329.098 65.045 C 329.099 65.043 336.310 44.850 336.311 44.848 Z"/>
<path fill="#00ff00" fill-rule="evenodd" stroke="none" d="M 129.582 451.060 C 129.584 451.059 149.741 443.745 149.743 443.744 C 149.742 443.745 143.069 450.991 143.068 450.991 C 143.069 450.992 149.815 458.169 149.815 458.170 C 149.813 458.169 129.584 451.060 129.582 451.060 Z"/>
<path fill="#ffff00" fill-rule="evenodd" stroke="none" d="M 309.505 712.921 C 309.506 712.919 318.455 693.434 318.456 693.432 C 318.456 693.433 318.927 703.273 318.927 703.274 C 318.928 703.274 328.775 703.512 328.777 703.512 C 328.775 703.513 309.507 712.920 309.505 712.921 Z"/>
<path fill="#ffff00" fill-rule="evenodd" stroke="none" d="M 571.794 613.288 C 571.792 613.287 551.222 607.235 551.220 607.234 C 551.220 607.235 558.330 614.053 558.331 614.054 C 558.330 614.055 552.040 621.637 552.040 621.638 C 552.042 621.637 571.792 613.289 571.794 613.288 Z"/>
<path fill="#00ff00" fill-rule="evenodd" stroke="none" d="M 517.958 450.025 C 517.956 450.024 497.799 442.710 497.797 442.709 C 497.798 442.710 504.471 449.956 504.472 449.956 C 504.471 449.957 497.725 457.134 497.724 457.135 C 497.727 457.134 517.956 450.025 517.958 450.025 Z"/>
<path fill="#00ffff" fill-rule="evenodd" stroke="none" d="M 524.071 67.677 C 524.070 67.680 516.912 87.892 516.911 87.894 C 516.911 87.893 515.556 78.136 515.556 78.135 C 515.555 78.135 505.726 78.784 505.725 78.784 C 505.727 78.783 524.069 67.679 524.071 67.677 Z"/>
<path fill="#00ffff" fill-rule="evenodd" stroke="none" d="M 50.453 215.257 C 50.455 215.257 70.381 223.177 70.383 223.178 C 70.383 223.177 63.931 215.733 63.931 215.732 C 63.931 215.731 70.891 208.761 70.892 208.760 C 70.890 208.761 50.455 215.256 50.453 215.257 Z"/>
<path fill="#be0027" fill-rule="evenodd" stroke="none" d="M 474.516 703.498 C 474.515 703.494 462.453 668.608 462.451 668.604 C 462.451 668.606 459.992 685.385 459.992 685.386 C 459.991 685.386 443.078 684.141 443.077 684.141 C 443.080 684.143 474.513 703.496 474.516 703.498 Z"/>
<path fill="#ff0000" fill-rule="evenodd" stroke="none" d="M 398.863 591.680 C 398.864 591.684 411.707 627.645 411.708 627.648 C 411.707 627.647 398.864 615.698 398.863 615.697 C 398.861 615.698 386.019 627.647 386.017 627.648 C 386.019 627.645 398.861 591.684 398.863 591.680 Z"/>
</g>
</g>
</svg>
