<?xml version="1.0" encoding="utf-8"?>
<!-- Generator: Moho 12.5 build 22414 -->
<!DOCTYPE svg PUBLIC "-//W3C//DTD SVG 1.1//EN" "http://www.w3.org/Graphics/SVG/1.1/DTD/svg11.dtd">
<svg version="1.1" id="Frame_0" xmlns="http://www.w3.org/2000/svg" xmlns:xlink="http://www.w3.org/1999/xlink" width="720px" height="720px">
<g id="head_eagle">
<g id="head_eagle">
<path fill="#ffffff" fill-rule="evenodd" stroke="#000000" stroke-width="3" stroke-linejoin="round" d="M 305.866 209.971 C 305.855 209.969 231.417 184.687 196.018 194.116 C 165.566 202.227 170.798 235.297 143.926 236.017 C 121.110 236.629 108.346 204.475 79.376 206.573 C 48.588 208.803 26.156 247.337 26.151 247.342 C 26.156 247.339 56.162 216.255 79.376 217.898 C 105.880 219.774 109.084 255.299 139.395 255.269 C 179.783 255.229 179.136 219.484 207.855 214.800 C 234.537 210.448 305.856 250.735 305.866 250.739 C 305.866 250.735 305.866 209.975 305.866 209.971 Z"/>
<path fill="#ffffff" fill-rule="evenodd" stroke="#000000" stroke-width="3" stroke-linejoin="round" d="M 347.105 87.559 C 356.474 84.237 350.696 127.590 315.396 136.255 C 295.735 141.080 254.250 118.137 254.244 118.136 C 254.253 118.132 309.875 100.759 347.105 87.559 M 252.641 164.673 C 252.634 164.672 190.362 148.820 190.356 148.818 C 190.363 148.811 203.585 95.863 261.701 77.474 C 286.701 69.563 311.758 58.960 337.891 56.888 C 399.124 52.034 423.826 9.470 423.835 9.465 C 423.833 9.471 440.668 49.396 402.383 65.410 C 394.559 68.682 413.176 74.051 421.376 79.739 C 465.339 110.233 521.491 68.040 521.501 68.039 C 521.495 68.045 516.057 118.132 457.471 132.270 C 449.864 134.105 459.111 160.979 467.689 171.368 C 498.017 208.100 553.865 195.246 553.873 195.249 C 553.865 195.251 513.445 233.952 469.702 217.817 C 462.216 215.056 438.691 271.563 446.769 281.039 C 494.418 336.941 543.259 324.876 543.269 324.880 C 543.258 324.881 494.975 361.455 436.715 334.270 C 426.742 329.617 411.208 385.598 421.796 398.567 C 461.657 447.388 514.228 447.780 514.237 447.785 C 514.229 447.787 505.639 471.955 429.667 458.959 C 413.611 456.212 432.038 513.760 450.616 523.679 C 517.492 559.387 569.315 513.891 569.326 513.889 C 569.321 513.895 570.796 555.731 517.062 567.874 C 488.412 574.348 530.947 595.410 564.352 613.163 C 519.463 660.243 466.367 711.877 318.076 710.535 C 312.415 710.483 290.385 649.819 281.423 657.570 C 246.919 687.410 193.589 661.838 193.581 661.838 C 193.587 661.835 243.018 660.130 254.945 626.526 C 258.147 617.503 244.288 568.162 225.270 574.406 C 175.956 590.596 133.339 562.203 133.330 562.202 C 133.339 562.199 207.389 558.664 220.541 529.135 C 228.240 511.850 231.685 472.145 218.667 473.832 C 160.672 481.350 123.645 445.297 123.635 445.294 C 123.646 445.291 192.342 458.597 228.038 419.172 C 245.074 400.355 246.251 375.829 239.564 376.052 C 181.557 377.986 170.048 339.020 170.041 339.016 C 170.050 339.016 208.963 360.395 256.104 341.545 C 262.178 339.116 262.898 328.535 275.083 316.058 C 317.692 272.426 263.969 264.332 263.965 264.329 C 263.965 264.319 252.641 164.683 252.641 164.673 Z"/>
<path fill="#ffffff" fill-rule="evenodd" stroke="#000000" stroke-width="3" stroke-linejoin="round" d="M 162.045 140.891 C 116.386 165.442 136.001 207.699 135.998 207.706 C 136.002 207.702 141.015 176.187 173.369 169.202 C 183.390 167.039 226.251 170.032 235.654 178.262 C 245.997 187.314 263.832 231.653 253.773 245.077 C 243.570 258.693 183.569 246.209 183.562 246.209 C 183.573 246.213 273.892 299.506 292.940 284.392 C 316.354 265.813 312.053 179.619 267.876 144.203 C 239.585 121.523 220.970 109.206 162.045 140.891 Z"/>
<path fill="none" stroke="#000000" stroke-width="3" stroke-linejoin="round" d="M 305.568 214.845 C 305.573 214.851 358.758 217.439 357.893 276.518 C 356.882 345.483 284.519 370.875 297.220 476.193 C 313.344 609.886 421.584 661.533 464.242 686.249 "/>
</g>
<g id="specs_2">
<path fill="#ff0000" fill-rule="evenodd" stroke="none" d="M 411.595 624.309 C 411.597 624.313 424.027 659.119 424.028 659.122 C 424.027 659.121 411.597 647.555 411.595 647.554 C 411.594 647.555 399.164 659.121 399.162 659.122 C 399.164 659.119 411.594 624.313 411.595 624.309 Z"/>
<path fill="#0000ff" fill-rule="evenodd" stroke="none" d="M 336.281 44.455 C 336.282 44.457 343.503 64.675 343.503 64.677 C 343.503 64.677 336.282 57.959 336.281 57.958 C 336.281 57.959 329.060 64.677 329.059 64.677 C 329.060 64.675 336.281 44.457 336.281 44.455 Z"/>
<path fill="#00ff00" fill-rule="evenodd" stroke="none" d="M 129.295 451.173 C 129.297 451.172 149.479 443.849 149.481 443.848 C 149.480 443.849 142.798 451.104 142.798 451.105 C 142.798 451.106 149.553 458.292 149.554 458.292 C 149.552 458.292 129.297 451.174 129.295 451.173 Z"/>
<path fill="#ffff00" fill-rule="evenodd" stroke="none" d="M 309.442 713.361 C 309.443 713.359 318.403 693.850 318.404 693.848 C 318.404 693.849 318.876 703.700 318.876 703.701 C 318.877 703.701 328.737 703.940 328.738 703.940 C 328.736 703.941 309.444 713.360 309.442 713.361 Z"/>
<path fill="#ffff00" fill-rule="evenodd" stroke="none" d="M 572.058 613.604 C 572.056 613.603 551.460 607.543 551.458 607.542 C 551.459 607.543 558.577 614.370 558.578 614.371 C 558.577 614.371 552.280 621.963 552.279 621.963 C 552.281 621.963 572.056 613.604 572.058 613.604 Z"/>
<path fill="#00ff00" fill-rule="evenodd" stroke="none" d="M 518.154 450.137 C 518.152 450.136 497.971 442.813 497.969 442.812 C 497.970 442.813 504.651 450.068 504.652 450.068 C 504.651 450.069 497.897 457.255 497.896 457.256 C 497.898 457.255 518.152 450.137 518.154 450.137 Z"/>
<path fill="#00ffff" fill-rule="evenodd" stroke="none" d="M 524.275 67.313 C 524.275 67.315 517.108 87.553 517.107 87.555 C 517.107 87.554 515.750 77.785 515.749 77.784 C 515.748 77.784 505.907 78.433 505.906 78.434 C 505.908 78.432 524.274 67.314 524.275 67.313 Z"/>
<path fill="#00ffff" fill-rule="evenodd" stroke="none" d="M 50.068 215.076 C 50.070 215.077 70.021 223.006 70.022 223.007 C 70.022 223.007 63.562 215.553 63.562 215.552 C 63.563 215.552 70.531 208.573 70.531 208.572 C 70.529 208.573 50.070 215.076 50.068 215.076 Z"/>
<path fill="#be0027" fill-rule="evenodd" stroke="none" d="M 474.659 703.926 C 474.657 703.922 462.580 668.992 462.579 668.989 C 462.579 668.990 460.117 685.790 460.117 685.792 C 460.115 685.792 443.182 684.545 443.180 684.545 C 443.183 684.547 474.656 703.924 474.659 703.926 Z"/>
</g>
</g>
</svg>
