<?xml version="1.0" encoding="utf-8"?>
<!-- Generator: Moho 12.5 build 22414 -->
<!DOCTYPE svg PUBLIC "-//W3C//DTD SVG 1.1//EN" "http://www.w3.org/Graphics/SVG/1.1/DTD/svg11.dtd">
<svg version="1.1" id="Frame_0" xmlns="http://www.w3.org/2000/svg" xmlns:xlink="http://www.w3.org/1999/xlink" width="720px" height="720px">
<g id="head_dragon">
<g id="head_dragon">
<path fill="#ffffff" fill-rule="evenodd" stroke="#000000" stroke-width="4" stroke-linecap="round" stroke-linejoin="round" d="M 557.501 189.180 C 482.042 200.685 503.450 182.526 357.503 203.733 C 252.097 219.050 278.918 250.526 278.910 250.530 C 278.914 250.533 320.030 278.684 320.034 278.686 C 320.042 278.685 400.434 265.737 400.442 265.736 C 400.441 265.740 387.814 286.039 391.752 304.125 C 395.031 319.187 411.185 330.518 411.187 330.520 C 411.188 330.517 423.054 312.972 421.150 296.336 C 419.258 279.802 403.845 265.471 403.843 265.467 C 403.850 265.466 480.774 247.550 480.781 247.548 C 480.778 247.557 470.437 317.809 444.886 333.847 C 421.547 348.496 383.865 343.223 359.590 330.184 C 341.578 320.508 320.980 279.969 320.977 279.964 C 320.972 279.962 278.528 252.852 278.524 252.849 C 278.511 252.850 239.375 254.408 152.645 267.177 C 146.594 268.068 140.042 233.999 99.622 241.903 C 30.466 255.428 31.815 337.238 31.813 337.244 C 31.820 337.239 73.564 283.038 101.678 280.824 C 119.800 279.398 153.617 294.575 153.380 306.858 C 153.140 319.258 139.804 336.986 123.145 334.041 C 108.231 331.404 97.912 309.314 82.876 307.502 C 59.124 304.640 44.422 325.333 35.647 334.418 C 26.076 344.329 8.373 387.062 8.370 387.068 C 8.374 387.068 49.138 389.195 49.142 389.196 C 49.145 389.203 79.488 460.146 79.491 460.153 C 79.493 460.146 95.765 391.578 95.767 391.572 C 95.772 391.572 142.253 393.431 142.257 393.431 C 142.261 393.437 173.780 456.610 173.783 456.616 C 173.784 456.610 182.221 394.804 182.222 394.798 C 182.228 394.798 244.416 397.900 244.422 397.900 C 244.425 397.906 279.275 461.584 279.279 461.590 C 279.280 461.584 293.434 399.508 293.436 399.502 C 293.439 399.502 360.376 402.683 360.380 402.684 C 360.383 402.689 387.966 461.861 387.969 461.867 C 387.970 461.861 400.678 401.836 400.680 401.831 C 400.684 401.830 442.528 402.521 470.483 399.732 C 514.074 395.384 521.873 386.296 521.878 386.294 C 521.876 386.303 502.314 469.804 502.312 469.813 C 502.309 469.813 464.962 473.125 464.958 473.126 C 464.956 473.121 440.256 424.639 440.254 424.634 C 440.253 424.639 429.854 475.360 429.853 475.365 C 429.849 475.366 350.851 484.366 350.847 484.366 C 350.843 484.361 323.961 426.538 323.958 426.533 C 323.957 426.538 310.466 483.651 310.464 483.656 C 310.461 483.657 251.834 483.977 251.831 483.977 C 251.828 483.972 220.593 433.510 220.590 433.505 C 220.589 433.510 214.645 484.810 214.643 484.815 C 214.640 484.816 142.652 483.402 142.649 483.402 C 142.647 483.397 117.803 436.029 117.800 436.024 C 117.799 436.029 109.627 487.039 109.626 487.044 C 109.620 487.044 50.448 486.161 50.442 486.161 C 50.443 486.165 59.689 512.031 64.932 523.343 C 83.136 562.623 169.298 591.015 169.308 591.022 C 169.305 591.016 129.049 554.801 135.722 535.717 C 161.968 460.653 423.757 615.501 574.627 545.133 C 700.543 486.404 656.132 291.102 651.778 288.429 C 655.354 285.056 663.420 269.979 668.442 257.631 C 694.468 193.631 713.060 149.627 712.149 130.153 C 699.486 164.703 650.508 175.000 557.501 189.180 Z"/>
</g>
<g id="specs">
<path fill="#ff0000" fill-rule="evenodd" stroke="none" d="M 668.552 390.419 C 668.555 390.418 702.453 378.312 702.457 378.311 C 702.455 378.312 691.191 390.418 691.190 390.419 C 691.191 390.420 702.455 402.526 702.457 402.528 C 702.453 402.526 668.555 390.420 668.552 390.419 Z"/>
<path fill="#0000ff" fill-rule="evenodd" stroke="none" d="M 394.936 186.643 C 394.937 186.645 403.571 205.688 403.572 205.689 C 403.571 205.689 396.023 199.749 396.022 199.749 C 396.022 199.749 389.554 206.851 389.553 206.851 C 389.554 206.849 394.935 186.645 394.936 186.643 Z"/>
<path fill="#00ff00" fill-rule="evenodd" stroke="none" d="M 16.679 339.337 C 16.681 339.336 36.336 332.204 36.338 332.203 C 36.337 332.204 29.830 339.269 29.829 339.270 C 29.830 339.271 36.408 346.270 36.409 346.271 C 36.407 346.270 16.681 339.337 16.679 339.337 Z"/>
<path fill="#ffff00" fill-rule="evenodd" stroke="none" d="M 265.021 545.448 C 265.021 545.446 273.748 526.446 273.749 526.444 C 273.749 526.445 274.209 536.040 274.209 536.041 C 274.210 536.041 283.812 536.273 283.813 536.273 C 283.811 536.274 265.022 545.447 265.021 545.448 Z"/>
<path fill="#ffff00" fill-rule="evenodd" stroke="none" d="M 572.255 545.215 C 572.254 545.214 563.148 526.392 563.147 526.390 C 563.147 526.391 562.880 535.993 562.880 535.994 C 562.879 535.994 553.283 536.419 553.282 536.419 C 553.284 536.420 572.253 545.215 572.255 545.215 Z"/>
<path fill="#00ff00" fill-rule="evenodd" stroke="none" d="M 676.040 339.337 C 676.038 339.336 656.383 332.204 656.381 332.203 C 656.382 332.204 662.889 339.269 662.890 339.270 C 662.889 339.271 656.311 346.270 656.310 346.271 C 656.312 346.270 676.038 339.337 676.040 339.337 Z"/>
<path fill="#00ffff" fill-rule="evenodd" stroke="none" d="M 544.724 183.547 C 544.724 183.549 539.154 203.702 539.153 203.704 C 539.153 203.703 537.162 194.306 537.162 194.305 C 537.161 194.305 527.645 195.614 527.644 195.614 C 527.646 195.613 544.722 183.548 544.724 183.547 Z"/>
<path fill="#00ffff" fill-rule="evenodd" stroke="none" d="M 146.325 256.382 C 146.325 256.384 145.979 277.290 145.979 277.292 C 145.980 277.291 150.542 268.838 150.543 268.838 C 150.544 268.838 159.303 272.780 159.304 272.780 C 159.303 272.778 146.327 256.383 146.325 256.382 Z"/>
</g>
</g>
</svg>
