<?xml version="1.0" encoding="utf-8"?>
<!-- Generator: Moho 13.0.3 build 635 -->
<!DOCTYPE svg PUBLIC "-//W3C//DTD SVG 1.1//EN" "http://www.w3.org/Graphics/SVG/1.1/DTD/svg11.dtd">
<svg version="1.1" id="Frame_0" xmlns="http://www.w3.org/2000/svg" xmlns:xlink="http://www.w3.org/1999/xlink" width="720px" height="720px">
<g id="head_lion_2">
<g id="head_lion_2">
<path fill="#ffffff" fill-rule="evenodd" stroke="#000000" stroke-width="4" stroke-linecap="round" stroke-linejoin="round" d="M 199.707 161.099 C 193.936 166.276 160.503 89.121 263.096 55.730 C 337.917 31.378 363.929 41.769 438.664 60.105 C 543.647 85.862 594.710 35.662 594.725 35.660 C 594.717 35.670 594.516 101.422 514.932 136.093 C 345.008 210.122 338.989 36.173 199.707 161.099 Z"/>
<path fill="none" stroke="#000000" stroke-width="4" stroke-linecap="round" stroke-linejoin="round" d="M 326.833 132.988 C 326.838 132.986 337.454 114.807 374.619 112.802 C 447.364 108.876 466.118 132.380 521.442 113.370 C 568.842 97.083 592.562 48.363 592.569 48.357 M 297.487 127.590 C 297.490 127.587 299.004 106.116 328.813 98.100 C 419.325 73.759 445.414 119.555 517.711 98.640 C 564.651 85.061 593.656 43.352 593.664 43.347 M 250.884 134.807 C 250.891 134.801 255.459 90.514 316.221 78.303 C 411.497 59.156 435.401 104.231 511.817 88.422 C 558.964 78.668 591.936 42.082 591.944 42.077 M 212.138 129.331 C 212.148 129.323 224.433 68.916 311.015 58.705 C 408.525 47.204 429.778 86.963 508.024 77.290 C 556.147 71.341 593.510 40.123 593.519 40.119 "/>
<path fill="#ffffff" fill-rule="evenodd" stroke="#000000" stroke-width="4" stroke-linecap="round" stroke-linejoin="round" d="M 337.578 185.863 C 330.914 185.691 290.419 101.107 382.540 90.168 C 500.527 76.157 508.624 96.947 594.936 137.448 C 641.774 159.426 699.548 128.140 699.559 128.139 C 699.548 128.148 685.052 203.474 588.371 221.867 C 442.478 249.621 500.950 190.096 337.578 185.863 Z"/>
<path fill="none" stroke="#000000" stroke-width="4" stroke-linecap="round" stroke-linejoin="round" d="M 436.673 187.117 C 436.678 187.115 449.080 167.453 486.798 170.654 C 553.082 176.281 565.479 207.711 618.025 198.109 C 667.759 189.022 695.640 139.609 695.648 139.603 M 390.397 171.209 C 390.402 171.206 402.121 144.457 446.596 145.040 C 534.955 146.199 550.897 189.768 621.197 180.138 C 665.762 174.034 696.010 136.771 696.017 136.767 M 353.805 172.669 C 353.813 172.664 368.916 127.270 438.599 123.223 C 529.717 117.932 544.048 170.738 617.246 167.069 C 661.469 164.853 695.673 133.978 695.681 133.974 M 331.147 155.207 C 331.158 155.202 352.001 99.633 437.403 101.500 C 528.496 103.491 541.622 149.447 615.371 153.312 C 658.562 155.575 696.041 133.181 696.050 133.179 "/>
<path fill="#ffffff" fill-rule="evenodd" stroke="#000000" stroke-width="4" stroke-linecap="round" stroke-linejoin="round" d="M 365.959 219.200 C 373.499 174.418 415.512 172.277 460.562 166.544 C 518.049 159.228 546.983 169.523 593.541 204.028 C 647.206 243.799 677.993 339.020 678.001 339.034 C 677.987 339.027 597.682 283.947 531.068 275.426 C 486.115 269.676 423.970 289.706 423.970 289.706 C 423.970 289.706 359.599 256.965 365.959 219.200 Z"/>
<path fill="none" stroke="#000000" stroke-width="4" stroke-linecap="round" stroke-linejoin="round" d="M 402.829 286.563 C 402.840 286.560 453.943 256.048 512.122 256.431 C 581.487 256.887 630.703 300.147 677.327 336.885 C 633.779 292.020 588.740 237.401 516.133 230.074 C 453.844 223.789 396.841 255.538 396.829 255.540 M 409.386 218.165 C 409.397 218.164 467.801 194.838 526.690 208.317 C 599.277 224.931 637.779 286.199 676.098 337.111 M 422.529 191.036 C 422.541 191.036 482.376 172.974 539.248 191.779 C 610.493 215.336 644.993 281.088 676.040 336.005 "/>
<path fill="#ffffff" fill-rule="evenodd" stroke="#000000" stroke-width="4" stroke-linecap="round" stroke-linejoin="round" d="M 396.004 245.068 C 421.115 207.229 460.363 222.368 503.848 235.462 C 559.337 252.171 585.659 271.254 610.069 323.812 C 635.778 379.170 608.270 469.304 608.270 469.319 C 608.262 469.308 571.235 394.928 523.948 363.612 C 486.164 338.590 420.307 333.078 420.307 333.078 C 420.307 333.078 374.829 276.978 396.004 245.068 Z"/>
<path fill="none" stroke="#000000" stroke-width="4" stroke-linecap="round" stroke-linejoin="round" d="M 413.592 307.192 C 413.603 307.195 474.076 308.068 524.426 339.217 C 573.417 369.525 591.113 420.270 609.138 466.153 C 595.712 411.865 586.908 347.407 532.741 311.014 C 482.481 277.247 418.174 282.863 418.163 282.861 M 422.052 255.534 C 422.065 255.538 495.360 252.893 547.704 295.866 C 600.304 339.049 600.595 408.014 607.944 465.786 M 420.978 230.872 C 420.993 230.878 515.925 229.790 574.666 290.731 C 621.112 338.915 611.381 408.593 608.403 464.778 "/>
<path fill="#ffffff" fill-rule="evenodd" stroke="#000000" stroke-width="4" stroke-linecap="round" stroke-linejoin="round" d="M 420.671 262.499 C 461.755 243.149 486.519 277.325 517.883 310.168 C 557.429 351.580 575.091 379.269 570.086 436.311 C 565.030 493.942 495.841 552.534 495.833 552.545 C 495.831 552.533 501.549 476.263 468.667 430.186 C 442.342 393.297 395.849 350.365 395.849 350.365 C 395.849 350.365 386.025 278.817 420.671 262.499 Z"/>
<path fill="none" stroke="#000000" stroke-width="4" stroke-linecap="round" stroke-linejoin="round" d="M 426.262 333.084 C 426.268 333.093 466.367 371.126 488.751 422.387 C 508.440 467.476 503.714 510.770 497.570 552.422 C 510.551 512.787 521.415 471.576 510.586 424.144 C 497.074 364.961 446.288 319.616 446.281 319.605 M 458.339 302.742 C 458.347 302.754 522.289 350.967 534.030 422.888 C 542.110 472.382 517.410 513.488 496.836 551.546 M 462.295 283.234 C 462.305 283.247 544.976 338.583 555.031 415.962 C 562.168 470.882 525.716 513.820 497.688 550.999 "/>
<path fill="#ffffff" fill-rule="evenodd" stroke="#000000" stroke-width="4" stroke-linecap="round" stroke-linejoin="round" d="M 398.052 326.000 C 442.936 319.087 460.531 357.250 477.770 399.264 C 499.660 452.614 495.224 485.608 467.908 536.394 C 443.861 581.102 372.819 611.247 372.810 611.255 C 372.812 611.244 395.850 547.955 396.559 500.414 C 397.256 453.613 349.348 403.229 349.348 403.229 C 349.348 403.229 360.202 331.831 398.052 326.000 Z"/>
<path fill="none" stroke="#000000" stroke-width="4" stroke-linecap="round" stroke-linejoin="round" d="M 381.393 395.673 C 381.395 395.683 404.523 441.401 408.058 493.134 C 411.167 538.639 393.526 574.955 375.159 609.394 C 398.864 578.849 421.213 546.269 426.569 501.485 C 433.252 445.606 403.078 390.169 403.075 390.158 M 422.582 377.715 C 422.585 377.728 460.903 438.889 448.912 503.991 C 440.227 551.144 405.357 580.532 374.792 608.400 M 438.817 361.923 C 438.820 361.936 485.442 431.871 471.636 497.810 C 460.324 551.844 413.723 581.567 375.706 608.188 "/>
<path fill="#ffffff" fill-rule="evenodd" stroke="#000000" stroke-width="4" stroke-linecap="round" stroke-linejoin="round" d="M 344.758 399.603 C 379.114 380.029 425.404 327.449 432.936 366.266 C 446.733 437.366 394.982 484.041 348.967 562.448 C 332.514 590.484 323.536 634.967 323.533 634.975 C 323.529 634.962 275.377 565.492 276.142 509.071 C 276.644 472.044 292.228 440.699 292.228 440.699 C 292.228 440.699 320.452 413.452 344.758 399.603 Z"/>
<path fill="none" stroke="#000000" stroke-width="4" stroke-linecap="round" stroke-linejoin="round" d="M 422.633 396.045 C 398.137 480.395 370.364 484.186 352.893 520.486 C 333.882 559.985 325.372 595.462 323.960 632.948 C 317.949 603.604 317.515 574.459 325.218 540.399 C 341.928 466.513 394.730 452.455 392.943 403.033 M 392.297 405.753 C 392.289 405.763 335.872 442.639 315.603 502.790 C 300.083 548.846 312.983 592.018 324.762 632.256 M 324.766 423.479 C 324.763 423.486 299.861 456.064 294.243 491.592 C 285.802 544.978 304.128 590.797 324.065 631.628 "/>
<path fill="#ffffff" fill-rule="evenodd" stroke="#000000" stroke-width="4" stroke-linecap="round" stroke-linejoin="round" d="M 377.561 377.913 C 392.934 391.322 378.104 423.984 375.776 440.535 C 370.692 476.678 274.658 531.357 264.216 555.666 C 236.532 620.108 252.131 687.056 252.130 687.069 C 252.122 687.055 167.474 582.044 167.828 538.708 C 168.237 488.620 214.215 438.434 251.721 444.105 C 319.467 454.350 353.165 356.635 377.561 377.913 Z"/>
<path fill="none" stroke="#000000" stroke-width="4" stroke-linecap="round" stroke-linejoin="round" d="M 226.330 440.893 C 226.328 440.898 221.802 471.128 208.332 486.215 C 196.548 499.415 187.762 521.727 188.282 544.468 C 190.072 622.733 246.764 678.365 246.770 678.379 M 256.140 436.776 C 256.139 436.780 257.075 463.166 246.199 475.886 C 229.272 495.683 212.748 524.931 208.142 558.202 C 199.796 618.485 250.992 681.928 250.997 681.941 C 250.796 681.688 220.886 606.123 247.079 551.600 C 255.447 534.182 288.337 501.202 309.527 486.178 C 338.737 465.469 351.899 428.196 351.903 428.191 M 299.291 433.669 C 299.290 433.673 300.357 459.517 288.806 470.305 C 266.498 491.138 231.401 533.327 224.604 554.991 C 207.019 611.037 248.233 679.142 248.235 679.155 "/>
<path fill="#ffffff" fill-rule="evenodd" stroke="#000000" stroke-width="4" stroke-linecap="round" stroke-linejoin="round" d="M 164.258 445.890 C 140.703 452.166 136.495 452.899 128.559 466.417 C 102.745 510.385 143.729 551.194 143.731 551.203 C 143.734 551.197 147.869 522.491 174.075 495.869 C 214.036 455.275 270.500 476.772 258.861 450.353 C 253.766 438.787 218.430 431.457 164.258 445.890 Z"/>
<path fill="none" stroke="#000000" stroke-width="4" stroke-linecap="round" stroke-linejoin="round" d="M 143.460 548.971 C 143.459 548.966 127.162 529.250 129.920 499.525 C 133.208 464.092 157.363 444.930 157.365 444.925 M 144.257 548.878 C 144.256 548.873 133.423 527.564 141.236 500.351 C 151.368 465.062 178.900 449.794 178.903 449.789 M 143.742 547.140 C 143.743 547.135 138.727 523.722 153.407 499.560 C 172.471 468.182 203.212 460.905 203.217 460.902 "/>
<path fill="#ffffff" fill-rule="evenodd" stroke="#000000" stroke-width="4" stroke-linecap="round" stroke-linejoin="round" d="M 238.979 141.300 C 238.983 141.298 259.807 124.119 281.844 122.389 C 300.913 120.892 321.134 132.374 321.138 132.375 C 321.135 132.379 327.758 164.353 289.876 173.606 C 249.288 183.520 238.984 141.303 238.979 141.300 M 61.360 190.745 C 61.362 190.750 77.018 217.033 87.587 231.400 C 105.230 252.823 130.558 241.996 130.562 241.997 C 130.565 242.002 156.108 291.558 156.111 291.563 C 156.111 291.557 155.625 229.957 155.625 229.951 C 155.627 229.949 168.186 221.677 184.170 216.417 C 250.175 194.697 261.506 204.046 261.514 204.045 C 261.515 204.050 273.630 256.440 273.631 256.445 C 273.632 256.440 283.965 204.824 283.966 204.819 C 283.974 204.830 357.701 215.444 361.324 319.352 C 363.302 376.091 311.779 403.022 311.774 403.030 C 311.772 403.026 287.780 365.558 287.777 365.554 C 287.778 365.558 293.056 409.444 293.056 409.449 C 293.045 409.450 254.289 435.836 178.569 422.764 C 174.741 422.103 168.109 422.321 168.108 422.321 C 168.107 422.318 158.222 386.448 158.221 386.445 C 158.220 386.448 150.236 420.937 150.235 420.941 C 150.233 420.941 133.374 420.023 133.374 420.023 C 133.799 440.740 143.186 457.393 143.187 457.397 C 143.200 457.398 222.972 472.928 274.699 466.525 C 399.933 451.025 480.789 384.593 482.782 297.290 C 484.797 209.058 449.033 118.110 280.058 117.339 C 181.463 116.888 61.382 190.738 61.360 190.745 Z"/>
<path fill="#ffffff" fill-rule="evenodd" stroke="#000000" stroke-width="4" stroke-linecap="round" stroke-linejoin="round" d="M 125.568 177.767 C 153.847 177.767 170.125 195.318 170.125 212.670 C 170.125 230.023 153.847 247.574 125.568 247.574 C 97.288 247.574 81.010 230.023 81.010 212.670 C 81.010 195.318 97.288 177.767 125.568 177.767 Z"/>
<path fill="#ffffff" fill-rule="evenodd" stroke="#000000" stroke-width="4" stroke-linecap="round" stroke-linejoin="round" d="M 373.829 128.949 C 191.853 68.503 47.002 188.778 46.969 188.784 C 46.973 188.788 87.234 234.968 88.050 232.544 C 103.958 185.255 106.802 188.788 106.804 188.784 C 106.828 188.778 232.073 119.326 343.464 131.638 C 355.374 132.955 371.965 131.986 373.829 128.949 Z"/>
<path fill="#ffffff" fill-rule="evenodd" stroke="#000000" stroke-width="4" stroke-linecap="round" stroke-linejoin="round" d="M 467.821 104.143 C 478.149 110.795 485.582 155.535 439.249 171.730 C 387.249 189.906 364.922 184.519 356.641 173.486 C 350.805 165.711 330.330 117.558 369.137 116.616 C 424.437 115.272 464.185 101.802 467.821 104.143 Z"/>
<path fill="none" stroke="#000000" stroke-width="4" stroke-linecap="round" stroke-linejoin="round" d="M 376.081 167.866 C 376.081 167.862 365.667 136.293 376.081 135.190 C 445.449 127.844 458.751 118.854 458.760 118.852 "/>
<path fill="#ffffff" fill-rule="evenodd" stroke="none" d="M 325.140 124.870 C 325.144 124.870 367.511 126.357 367.515 126.357 C 367.515 126.363 365.285 190.286 365.285 190.292 C 365.282 190.292 334.807 190.292 334.804 190.292 C 334.803 190.286 325.141 124.877 325.140 124.870 Z"/>
<path fill="none" stroke="#000000" stroke-width="4" stroke-linecap="round" stroke-linejoin="round" d="M 129.651 223.995 C 129.655 223.993 152.542 210.095 178.078 201.180 C 205.899 191.467 220.737 188.886 247.136 186.743 C 334.548 179.647 369.675 246.636 377.324 289.313 C 393.742 380.911 325.303 414.403 286.390 427.519 C 227.180 447.477 145.986 431.164 145.972 431.164 M 125.395 212.695 C 125.400 212.693 148.154 198.601 173.575 189.363 C 204.322 178.190 236.427 173.838 236.433 173.836 M 121.439 201.443 C 121.444 201.441 143.838 186.783 169.019 176.910 C 199.475 164.969 231.461 159.813 231.467 159.811 "/>
</g>
<g id="specs_2">
<path fill="#ff00ff" fill-rule="evenodd" stroke="none" d="M 34.036 416.124 C 34.059 416.124 255.234 416.124 255.256 416.124 C 255.256 416.107 255.256 249.575 255.256 249.558 C 255.234 249.558 34.059 249.558 34.036 249.558 C 34.036 249.575 34.036 416.107 34.036 416.124 Z"/>
<path fill="#ff0000" fill-rule="evenodd" stroke="none" d="M 360.000 679.250 C 360.001 679.254 372.432 714.060 372.433 714.063 C 372.432 714.062 360.001 702.496 360.000 702.495 C 359.999 702.496 347.568 714.062 347.567 714.063 C 347.568 714.060 359.999 679.254 360.000 679.250 Z"/>
<path fill="#0000ff" fill-rule="evenodd" stroke="none" d="M 324.969 29.449 C 324.970 29.451 332.190 49.669 332.191 49.671 C 332.190 49.670 324.970 42.952 324.969 42.951 C 324.968 42.952 317.748 49.670 317.747 49.671 C 317.748 49.669 324.968 29.451 324.969 29.449 Z"/>
<path fill="#00ff00" fill-rule="evenodd" stroke="none" d="M 81.198 320.135 C 81.200 320.134 101.381 312.812 101.383 312.811 C 101.382 312.812 94.701 320.066 94.700 320.067 C 94.701 320.068 101.455 327.254 101.456 327.255 C 101.454 327.254 81.200 320.136 81.198 320.135 Z"/>
<path fill="#ffff00" fill-rule="evenodd" stroke="none" d="M 123.610 543.375 C 123.611 543.373 131.868 525.396 131.869 525.394 C 131.869 525.395 132.304 534.473 132.304 534.474 C 132.305 534.474 141.390 534.694 141.391 534.694 C 141.389 534.695 123.612 543.374 123.610 543.375 Z"/>
<path fill="#ffff00" fill-rule="evenodd" stroke="none" d="M 520.842 543.155 C 520.841 543.153 512.225 525.345 512.225 525.343 C 512.225 525.344 511.972 534.429 511.972 534.430 C 511.971 534.430 502.891 534.832 502.890 534.832 C 502.892 534.833 520.840 543.154 520.842 543.155 Z"/>
<path fill="#00ff00" fill-rule="evenodd" stroke="none" d="M 683.637 320.135 C 683.635 320.134 663.454 312.812 663.452 312.811 C 663.452 312.812 670.134 320.066 670.135 320.067 C 670.134 320.068 663.380 327.254 663.379 327.255 C 663.381 327.254 683.635 320.136 683.637 320.135 Z"/>
<path fill="#00ffff" fill-rule="evenodd" stroke="none" d="M 699.643 126.473 C 699.642 126.475 692.475 146.713 692.474 146.715 C 692.474 146.714 691.117 136.945 691.117 136.944 C 691.116 136.944 681.274 137.594 681.273 137.594 C 681.275 137.592 699.641 126.475 699.643 126.473 Z"/>
<path fill="#00ffff" fill-rule="evenodd" stroke="none" d="M 192.705 92.113 C 192.706 92.115 201.206 111.830 201.207 111.832 C 201.207 111.831 201.910 101.993 201.910 101.992 C 201.911 101.992 211.773 101.984 211.774 101.984 C 211.772 101.983 192.707 92.114 192.705 92.113 Z"/>
<path fill="#be0027" fill-rule="evenodd" stroke="none" d="M 659.600 263.742 C 659.597 263.741 624.791 251.311 624.787 251.309 C 624.788 251.311 636.354 263.741 636.355 263.742 C 636.354 263.744 624.788 276.174 624.787 276.175 C 624.791 276.174 659.597 263.744 659.600 263.742 Z"/>
</g>
</g>
</svg>
