<?xml version="1.0" encoding="utf-8"?>
<!-- Generator: Moho 12.5 build 22414 -->
<!DOCTYPE svg PUBLIC "-//W3C//DTD SVG 1.1//EN" "http://www.w3.org/Graphics/SVG/1.1/DTD/svg11.dtd">
<svg version="1.1" id="Frame_0" xmlns="http://www.w3.org/2000/svg" xmlns:xlink="http://www.w3.org/1999/xlink" width="720px" height="720px">
<g id="head_dragon">
<g id="head_dragon">
<path fill="#ffffff" fill-rule="evenodd" stroke="#000000" stroke-width="4" stroke-linecap="round" stroke-linejoin="round" d="M 576.701 198.181 C 498.438 205.882 521.067 182.265 370.110 199.547 C 261.453 211.986 289.420 247.593 289.412 247.598 C 289.416 247.600 331.634 276.505 331.638 276.508 C 331.646 276.507 414.191 263.212 414.200 263.210 C 414.199 263.214 401.233 284.057 405.276 302.628 C 408.643 318.093 425.231 329.728 425.233 329.730 C 425.234 329.727 437.418 311.712 435.462 294.630 C 433.519 277.653 417.693 262.938 417.692 262.935 C 417.700 262.933 499.152 248.240 499.160 248.238 C 499.156 248.247 488.643 322.861 461.069 338.083 C 435.334 352.290 396.360 339.345 371.019 324.447 C 354.210 314.565 332.609 277.825 332.605 277.820 C 332.601 277.817 289.019 249.981 289.015 249.978 C 289.002 249.980 248.818 251.579 159.764 264.690 C 153.551 265.605 146.823 230.623 105.321 238.739 C 34.312 252.626 35.697 336.628 35.694 336.635 C 35.701 336.629 78.564 280.976 107.431 278.703 C 126.039 277.238 160.762 292.822 160.518 305.434 C 160.272 318.167 146.579 336.370 129.473 333.345 C 114.160 330.638 103.565 307.956 88.125 306.096 C 63.737 303.157 48.641 324.404 39.632 333.733 C 29.804 343.909 11.626 387.787 11.623 387.793 C 11.627 387.793 53.483 389.978 53.487 389.978 C 53.491 389.985 84.647 462.829 84.650 462.836 C 84.652 462.829 101.360 392.424 101.362 392.417 C 101.367 392.418 149.093 394.326 149.098 394.326 C 149.101 394.333 181.465 459.198 181.469 459.205 C 181.469 459.198 190.132 395.737 190.133 395.730 C 190.139 395.731 253.993 398.915 254.000 398.915 C 254.003 398.922 289.786 464.305 289.790 464.312 C 289.792 464.306 304.324 400.567 304.327 400.561 C 304.330 400.560 373.061 403.827 373.064 403.827 C 373.068 403.833 401.390 464.590 401.393 464.596 C 401.394 464.590 414.442 402.957 414.444 402.952 C 414.448 402.951 457.414 403.660 486.117 400.797 C 530.876 396.332 538.884 387.000 538.889 386.999 C 538.887 387.007 518.801 472.746 518.799 472.755 C 518.795 472.755 480.448 476.156 480.444 476.156 C 480.442 476.151 455.081 426.371 455.078 426.366 C 455.077 426.371 444.400 478.451 444.398 478.456 C 444.394 478.457 363.280 487.698 363.276 487.698 C 363.272 487.692 335.669 428.321 335.667 428.315 C 335.665 428.321 321.813 486.964 321.811 486.969 C 321.808 486.970 261.610 487.299 261.607 487.299 C 261.604 487.294 229.532 435.479 229.529 435.474 C 229.529 435.479 223.425 488.154 223.423 488.159 C 223.419 488.160 149.503 486.708 149.500 486.708 C 149.498 486.703 123.988 438.066 123.985 438.061 C 123.984 438.066 115.593 490.443 115.592 490.448 C 115.586 490.448 54.829 489.541 54.823 489.541 C 54.824 489.545 64.317 516.104 69.700 527.719 C 88.393 568.051 176.863 597.204 176.873 597.211 C 176.870 597.205 135.282 559.929 142.387 540.425 C 167.912 470.357 410.769 624.327 553.552 561.203 C 684.031 503.518 632.769 297.635 632.770 297.621 C 632.775 297.617 676.253 278.482 689.379 254.889 C 726.202 188.705 711.275 128.262 704.634 107.949 C 701.780 142.633 664.233 189.568 576.701 198.181 Z"/>
</g>
<g id="specs">
<path fill="#ff0000" fill-rule="evenodd" stroke="none" d="M 662.337 391.234 C 662.341 391.233 697.146 378.802 697.150 378.801 C 697.149 378.802 685.583 391.233 685.582 391.234 C 685.583 391.235 697.149 403.666 697.150 403.667 C 697.146 403.666 662.341 391.235 662.337 391.234 Z"/>
<path fill="#0000ff" fill-rule="evenodd" stroke="none" d="M 408.546 181.999 C 408.547 182.001 417.413 201.553 417.414 201.555 C 417.413 201.555 409.662 195.456 409.661 195.455 C 409.661 195.456 403.020 202.748 403.019 202.748 C 403.020 202.746 408.546 182.001 408.546 181.999 Z"/>
<path fill="#00ff00" fill-rule="evenodd" stroke="none" d="M 20.155 338.783 C 20.157 338.782 40.338 331.459 40.340 331.459 C 40.340 331.459 33.658 338.714 33.657 338.715 C 33.658 338.716 40.412 345.902 40.413 345.903 C 40.411 345.902 20.157 338.784 20.155 338.783 Z"/>
<path fill="#ffff00" fill-rule="evenodd" stroke="none" d="M 275.150 550.417 C 275.151 550.415 284.112 530.905 284.113 530.903 C 284.113 530.904 284.584 540.756 284.584 540.757 C 284.585 540.757 294.445 540.996 294.446 540.996 C 294.444 540.997 275.152 550.416 275.150 550.417 Z"/>
<path fill="#ffff00" fill-rule="evenodd" stroke="none" d="M 590.615 550.178 C 590.614 550.176 581.264 530.850 581.263 530.848 C 581.263 530.849 580.989 540.708 580.989 540.709 C 580.988 540.709 571.135 541.146 571.134 541.146 C 571.136 541.147 590.613 550.177 590.615 550.178 Z"/>
<path fill="#00ff00" fill-rule="evenodd" stroke="none" d="M 652.744 338.783 C 652.742 338.782 632.561 331.459 632.559 331.459 C 632.560 331.459 639.241 338.714 639.242 338.715 C 639.241 338.716 632.487 345.902 632.486 345.903 C 632.488 345.902 652.742 338.784 652.744 338.783 Z"/>
<path fill="#00ffff" fill-rule="evenodd" stroke="none" d="M 527.289 186.849 C 527.289 186.851 520.122 207.089 520.121 207.091 C 520.121 207.090 518.764 197.321 518.763 197.320 C 518.762 197.320 508.921 197.969 508.920 197.969 C 508.922 197.968 527.288 186.850 527.289 186.849 Z"/>
<path fill="#00ffff" fill-rule="evenodd" stroke="none" d="M 153.275 253.606 C 153.275 253.608 152.920 275.074 152.920 275.076 C 152.920 275.075 157.605 266.396 157.605 266.395 C 157.606 266.396 166.600 270.443 166.601 270.443 C 166.600 270.442 153.276 253.607 153.275 253.606 Z"/>
</g>
</g>
</svg>
