<?xml version="1.0" encoding="utf-8"?>
<!-- Generator: Moho 12.5 build 22414 -->
<!DOCTYPE svg PUBLIC "-//W3C//DTD SVG 1.1//EN" "http://www.w3.org/Graphics/SVG/1.1/DTD/svg11.dtd">
<svg version="1.1" id="Frame_0" xmlns="http://www.w3.org/2000/svg" xmlns:xlink="http://www.w3.org/1999/xlink" width="720px" height="720px">
<g id="head_bird">
<g id="bird_head">
<path fill="#ffffff" fill-rule="evenodd" stroke="#000000" stroke-width="5" stroke-linejoin="round" d="M 59.329 471.963 C 59.354 471.954 311.089 389.413 311.114 389.404 C 311.112 389.420 296.196 541.124 296.195 541.139 C 296.171 541.132 59.353 471.969 59.329 471.963 Z"/>
<path fill="#ffffff" fill-rule="evenodd" stroke="#000000" stroke-width="5" stroke-linejoin="round" d="M 83.559 584.473 C 83.586 584.477 358.686 618.545 358.714 618.548 C 358.709 618.538 316.661 510.020 316.657 510.009 C 316.633 510.017 83.582 584.466 83.559 584.473 Z"/>
<path fill="#ffffff" fill-rule="evenodd" stroke="#000000" stroke-width="5" stroke-linejoin="round" d="M 470.229 45.170 C 491.578 73.961 469.275 84.745 424.589 126.588 C 348.873 197.486 381.634 293.473 381.630 293.490 C 381.628 293.471 309.201 226.770 359.111 103.858 C 390.631 26.237 450.340 18.346 470.229 45.170 Z"/>
<path fill="#ffffff" fill-rule="evenodd" stroke="#000000" stroke-width="5" stroke-linejoin="round" d="M 581.491 89.083 C 607.307 125.445 566.670 131.227 502.656 174.538 C 445.090 213.485 437.235 283.679 437.228 283.690 C 437.232 283.674 410.211 213.649 473.926 128.726 C 518.462 69.366 558.788 57.103 581.491 89.083 Z"/>
<path fill="#ffffff" fill-rule="evenodd" stroke="#000000" stroke-width="5" stroke-linejoin="round" d="M 664.471 185.175 C 665.059 203.693 649.761 211.873 604.174 220.719 C 518.248 237.393 492.950 290.373 492.939 290.380 C 492.948 290.367 498.071 217.609 587.880 161.404 C 633.900 132.604 663.495 154.474 664.471 185.175 Z"/>
<path fill="#ffffff" fill-rule="evenodd" stroke="#000000" stroke-width="5" stroke-linecap="round" stroke-linejoin="round" d="M 380.195 437.842 C 381.459 420.896 396.149 408.245 413.096 409.509 C 430.042 410.773 442.693 425.464 441.428 442.410 C 440.164 459.356 425.474 472.007 408.528 470.743 C 391.582 469.478 378.931 454.788 380.195 437.842 M 329.216 434.039 C 332.585 388.877 371.736 355.162 416.898 358.531 C 462.060 361.899 495.775 401.050 492.406 446.212 C 489.037 491.374 449.887 525.089 404.725 521.720 C 359.562 518.351 325.847 479.201 329.216 434.039 M 246.622 480.933 C 246.622 371.669 334.766 283.526 444.029 283.526 C 553.292 283.526 641.435 371.670 641.435 480.933 C 641.435 590.196 553.292 678.339 444.029 678.339 C 334.766 678.339 246.622 590.196 246.622 480.933 Z"/>
</g>
<g id="specs">
<path fill="#ff00ff" fill-rule="evenodd" stroke="none" d="M 20.622 586.992 C 20.634 586.991 134.628 582.954 134.640 582.954 C 134.639 582.942 130.602 468.948 130.602 468.936 C 130.590 468.937 16.596 472.974 16.584 472.974 C 16.585 472.986 20.622 586.980 20.622 586.992 Z"/>
<path fill="#ff0000" fill-rule="evenodd" stroke="none" d="M 615.542 484.311 C 615.546 484.310 662.514 467.535 662.519 467.534 C 662.517 467.535 646.910 484.310 646.908 484.311 C 646.910 484.313 662.517 501.087 662.519 501.089 C 662.514 501.087 615.546 484.313 615.542 484.311 Z"/>
<path fill="#0000ff" fill-rule="evenodd" stroke="none" d="M 447.511 21.241 C 447.512 21.244 457.256 48.527 457.257 48.530 C 457.256 48.529 447.512 39.463 447.511 39.462 C 447.510 39.463 437.766 48.529 437.766 48.530 C 437.766 48.527 447.510 21.244 447.511 21.241 Z"/>
<path fill="#00ff00" fill-rule="evenodd" stroke="none" d="M 243.963 527.857 C 243.964 527.857 255.738 522.381 255.740 522.380 C 255.739 522.381 252.096 527.104 252.096 527.105 C 252.096 527.105 256.545 531.080 256.545 531.080 C 256.544 531.080 243.964 527.858 243.963 527.857 Z"/>
<path fill="#ffff00" fill-rule="evenodd" stroke="none" d="M 357.619 662.506 C 357.619 662.506 360.820 655.537 360.820 655.537 C 360.820 655.537 360.988 659.056 360.988 659.056 C 360.989 659.056 364.510 659.141 364.510 659.141 C 364.510 659.142 357.619 662.506 357.619 662.506 Z"/>
<path fill="#ffff00" fill-rule="evenodd" stroke="none" d="M 530.697 662.421 C 530.697 662.420 527.358 655.517 527.357 655.517 C 527.357 655.517 527.259 659.039 527.259 659.039 C 527.259 659.039 523.740 659.195 523.739 659.195 C 523.740 659.195 530.697 662.420 530.697 662.421 Z"/>
<path fill="#00ff00" fill-rule="evenodd" stroke="none" d="M 650.689 481.993 C 650.688 481.993 638.480 477.564 638.479 477.563 C 638.480 477.564 642.521 481.952 642.522 481.952 C 642.521 481.953 638.436 486.300 638.435 486.300 C 638.437 486.300 650.688 481.993 650.689 481.993 Z"/>
<path fill="#00ffff" fill-rule="evenodd" stroke="none" d="M 589.742 334.842 C 589.742 334.844 585.407 347.084 585.406 347.085 C 585.406 347.085 584.585 341.176 584.585 341.175 C 584.585 341.175 578.633 341.568 578.632 341.568 C 578.633 341.568 589.741 334.843 589.742 334.842 Z"/>
<path fill="#00ffff" fill-rule="evenodd" stroke="none" d="M 297.840 335.248 C 297.841 335.249 302.982 347.173 302.982 347.175 C 302.982 347.174 303.407 341.224 303.407 341.223 C 303.408 341.223 309.374 341.218 309.374 341.218 C 309.373 341.218 297.841 335.249 297.840 335.248 Z"/>
</g>
</g>
</svg>
