<?xml version="1.0" encoding="utf-8"?>
<!-- Generator: Moho 12.5 build 22414 -->
<!DOCTYPE svg PUBLIC "-//W3C//DTD SVG 1.1//EN" "http://www.w3.org/Graphics/SVG/1.1/DTD/svg11.dtd">
<svg version="1.1" id="Frame_0" xmlns="http://www.w3.org/2000/svg" xmlns:xlink="http://www.w3.org/1999/xlink" width="720px" height="720px">
<g id="heart">
<g id="heart">
<path fill="#ffffff" fill-rule="evenodd" stroke="#000000" stroke-width="4" stroke-linecap="round" stroke-linejoin="round" d="M 360.000 571.590 C 359.986 571.576 264.512 485.308 215.135 437.833 C 156.142 381.114 87.829 317.946 86.339 229.389 C 85.161 159.389 115.841 76.768 177.971 58.756 C 316.105 18.712 359.982 151.870 360.000 151.879 C 360.018 151.870 403.810 19.007 542.029 58.756 C 604.326 76.672 635.647 159.244 634.505 229.389 C 633.060 318.108 567.079 384.439 504.865 437.833 C 449.824 485.072 360.014 571.576 360.000 571.590 Z"/>
</g>
<g id="specs">
<path fill="#ff00ff" fill-rule="evenodd" stroke="none" d="M 228.244 422.633 C 228.271 422.633 491.729 422.633 491.756 422.633 C 491.756 422.608 491.756 171.414 491.756 171.389 C 491.729 171.389 228.271 171.389 228.244 171.389 C 228.244 171.414 228.244 422.608 228.244 422.633 Z"/>
<path fill="#ff0000" fill-rule="evenodd" stroke="none" d="M 360.000 669.867 C 360.001 669.870 371.359 701.672 371.360 701.675 C 371.359 701.674 360.001 691.107 360.000 691.105 C 359.999 691.107 348.641 701.674 348.640 701.675 C 348.641 701.672 359.999 669.870 360.000 669.867 Z"/>
<path fill="#0000ff" fill-rule="evenodd" stroke="none" d="M 360.000 39.399 C 360.001 39.401 366.598 57.874 366.599 57.876 C 366.598 57.875 360.001 51.737 360.000 51.737 C 359.999 51.737 353.402 57.875 353.401 57.876 C 353.402 57.874 359.999 39.401 360.000 39.399 Z"/>
<path fill="#00ff00" fill-rule="evenodd" stroke="none" d="M 74.502 251.143 C 74.504 251.142 92.944 244.452 92.946 244.451 C 92.945 244.452 86.840 251.080 86.840 251.081 C 86.840 251.081 93.012 257.648 93.012 257.648 C 93.011 257.648 74.504 251.144 74.502 251.143 Z"/>
<path fill="#ffff00" fill-rule="evenodd" stroke="none" d="M 200.382 439.549 C 200.383 439.547 208.571 421.722 208.571 421.720 C 208.571 421.721 209.002 430.722 209.002 430.723 C 209.003 430.723 218.012 430.941 218.013 430.941 C 218.011 430.942 200.384 439.548 200.382 439.549 Z"/>
<path fill="#00ff00" fill-rule="evenodd" stroke="none" d="M 647.297 251.143 C 647.295 251.142 628.855 244.452 628.853 244.451 C 628.854 244.452 634.959 251.080 634.960 251.081 C 634.959 251.081 628.787 257.648 628.787 257.648 C 628.789 257.648 647.295 251.144 647.297 251.143 Z"/>
<path fill="#00ffff" fill-rule="evenodd" stroke="none" d="M 591.536 74.941 C 591.534 74.942 573.764 83.250 573.762 83.251 C 573.763 83.251 582.767 83.621 582.768 83.621 C 582.768 83.622 583.047 92.629 583.047 92.630 C 583.048 92.628 591.535 74.943 591.536 74.941 Z"/>
<path fill="#00ffff" fill-rule="evenodd" stroke="none" d="M 127.413 74.941 C 127.414 74.942 145.184 83.250 145.186 83.251 C 145.185 83.251 136.181 83.621 136.180 83.621 C 136.180 83.622 135.901 92.629 135.901 92.630 C 135.900 92.628 127.413 74.943 127.413 74.941 Z"/>
<path fill="#be0027" fill-rule="evenodd" stroke="none" d="M 359.961 578.991 C 359.962 578.989 368.225 555.851 368.226 555.848 C 368.225 555.849 359.962 563.538 359.961 563.538 C 359.960 563.538 351.697 555.849 351.696 555.848 C 351.697 555.851 359.960 578.989 359.961 578.991 Z"/>
<path fill="#ffff00" fill-rule="evenodd" stroke="none" d="M 520.147 439.549 C 520.147 439.547 511.959 421.722 511.958 421.720 C 511.958 421.721 511.528 430.722 511.528 430.723 C 511.527 430.723 502.518 430.941 502.517 430.941 C 502.519 430.942 520.146 439.548 520.147 439.549 Z"/>
</g>
</g>
</svg>
