<?xml version="1.0" encoding="utf-8"?>
<!-- Generator: Moho 12.5 build 22414 -->
<!DOCTYPE svg PUBLIC "-//W3C//DTD SVG 1.1//EN" "http://www.w3.org/Graphics/SVG/1.1/DTD/svg11.dtd">
<svg version="1.1" id="Frame_0" xmlns="http://www.w3.org/2000/svg" xmlns:xlink="http://www.w3.org/1999/xlink" width="720px" height="720px">
<g id="heart">
<g id="heart">
<path fill="#ffffff" fill-rule="evenodd" stroke="#000000" stroke-width="4" stroke-linecap="round" stroke-linejoin="round" d="M 360.000 640.645 C 359.984 640.631 255.492 546.213 201.451 494.254 C 136.886 432.177 62.120 363.043 60.489 266.121 C 59.200 189.509 92.778 99.083 160.777 79.370 C 311.958 35.543 359.980 181.279 360.000 181.290 C 360.020 181.279 407.948 35.866 559.223 79.370 C 627.404 98.978 661.684 189.350 660.434 266.121 C 658.853 363.220 586.640 435.817 518.549 494.254 C 458.308 545.955 360.016 640.631 360.000 640.645 Z"/>
</g>
<g id="specs">
<path fill="#ff00ff" fill-rule="evenodd" stroke="none" d="M 222.903 474.021 C 222.931 474.021 497.069 474.021 497.097 474.021 C 497.097 473.993 497.097 199.854 497.097 199.827 C 497.069 199.827 222.931 199.827 222.903 199.827 C 222.903 199.854 222.903 473.993 222.903 474.021 Z"/>
<path fill="#ff0000" fill-rule="evenodd" stroke="none" d="M 360.000 641.497 C 360.001 641.500 372.432 676.306 372.433 676.309 C 372.432 676.308 360.001 664.742 360.000 664.741 C 359.999 664.742 347.568 676.308 347.567 676.309 C 347.568 676.306 359.999 641.500 360.000 641.497 Z"/>
<path fill="#0000ff" fill-rule="evenodd" stroke="none" d="M 360.000 58.185 C 360.001 58.187 367.221 78.405 367.222 78.407 C 367.221 78.406 360.001 71.688 360.000 71.687 C 359.999 71.688 352.779 78.406 352.778 78.407 C 352.779 78.405 359.999 58.187 360.000 58.185 Z"/>
<path fill="#00ff00" fill-rule="evenodd" stroke="none" d="M 47.535 289.930 C 47.537 289.929 67.718 282.606 67.720 282.605 C 67.720 282.606 61.038 289.861 61.037 289.861 C 61.038 289.862 67.792 297.049 67.793 297.049 C 67.791 297.049 47.537 289.930 47.535 289.930 Z"/>
<path fill="#ffff00" fill-rule="evenodd" stroke="none" d="M 182.055 497.351 C 182.056 497.349 191.017 477.839 191.018 477.837 C 191.018 477.838 191.489 487.690 191.489 487.691 C 191.490 487.691 201.350 487.930 201.351 487.930 C 201.349 487.931 182.057 497.350 182.055 497.351 Z"/>
<path fill="#ffff00" fill-rule="evenodd" stroke="none" d="M 533.732 501.727 C 533.731 501.725 524.381 482.399 524.380 482.397 C 524.380 482.398 524.106 492.257 524.106 492.258 C 524.105 492.258 514.252 492.695 514.251 492.695 C 514.253 492.696 533.730 501.726 533.732 501.727 Z"/>
<path fill="#00ff00" fill-rule="evenodd" stroke="none" d="M 674.434 289.930 C 674.432 289.929 654.251 282.606 654.249 282.605 C 654.250 282.606 660.931 289.861 660.932 289.861 C 660.931 289.862 654.177 297.049 654.176 297.049 C 654.178 297.049 674.432 289.930 674.434 289.930 Z"/>
<path fill="#00ffff" fill-rule="evenodd" stroke="none" d="M 613.406 97.084 C 613.404 97.085 593.956 106.178 593.954 106.178 C 593.955 106.179 603.809 106.584 603.810 106.584 C 603.810 106.585 604.116 116.443 604.116 116.444 C 604.117 116.442 613.405 97.086 613.406 97.084 Z"/>
<path fill="#00ffff" fill-rule="evenodd" stroke="none" d="M 105.443 97.084 C 105.445 97.085 124.893 106.177 124.895 106.178 C 124.894 106.178 115.039 106.584 115.038 106.584 C 115.038 106.585 114.733 116.443 114.733 116.444 C 114.732 116.442 105.444 97.086 105.443 97.084 Z"/>
</g>
</g>
</svg>
