<?xml version="1.0" encoding="utf-8"?>
<!-- Generator: Moho 13.0.3 build 635 -->
<!DOCTYPE svg PUBLIC "-//W3C//DTD SVG 1.1//EN" "http://www.w3.org/Graphics/SVG/1.1/DTD/svg11.dtd">
<svg version="1.1" id="Frame_0" xmlns="http://www.w3.org/2000/svg" xmlns:xlink="http://www.w3.org/1999/xlink" width="720px" height="720px">
<g id="heart">
<g id="heart">
<path fill="#ffffff" fill-rule="evenodd" stroke="#000000" stroke-width="4" stroke-linecap="round" stroke-linejoin="round" d="M 360.000 689.834 C 359.982 689.817 238.918 580.256 176.174 520.104 C 101.075 448.109 13.501 368.179 11.668 255.599 C 10.219 166.589 49.963 61.809 129.014 39.075 C 304.407 -11.365 359.977 157.232 360.000 157.244 C 360.023 157.232 415.593 -11.365 590.986 39.075 C 670.037 61.809 709.781 166.589 708.332 255.599 C 706.499 368.179 622.773 452.350 543.826 520.104 C 473.981 580.048 360.018 689.817 360.000 689.834 Z"/>
</g>
<g id="specs">
<path fill="#ff0000" fill-rule="evenodd" stroke="none" d="M 360.337 674.254 C 368.647 674.254 375.351 680.958 375.351 689.268 C 375.351 697.578 368.647 704.281 360.337 704.281 C 352.027 704.281 345.323 697.578 345.323 689.268 C 345.323 680.957 352.027 674.254 360.337 674.254 Z"/>
<path fill="#ffff00" fill-rule="evenodd" stroke="none" d="M 496.827 548.513 C 496.827 540.203 503.532 533.500 511.842 533.500 C 520.152 533.500 526.855 540.203 526.855 548.513 C 526.855 556.823 520.152 563.527 511.842 563.527 C 503.532 563.527 496.827 556.824 496.827 548.513 M 191.431 548.513 C 191.431 540.203 198.136 533.500 206.446 533.500 C 214.756 533.500 221.460 540.203 221.460 548.513 C 221.460 556.823 214.756 563.527 206.446 563.527 C 198.136 563.527 191.431 556.824 191.431 548.513 Z"/>
<path fill="#00ff00" fill-rule="evenodd" stroke="none" d="M 33.036 299.847 C 33.036 291.536 26.331 284.833 18.020 284.833 C 9.710 284.833 3.007 291.537 3.007 299.847 C 3.007 308.157 9.710 314.860 18.020 314.860 C 26.331 314.861 33.036 308.157 33.036 299.847 M 688.763 299.847 C 688.763 291.536 695.468 284.833 703.779 284.833 C 712.088 284.833 718.792 291.537 718.792 299.847 C 718.792 308.157 712.088 314.860 703.779 314.860 C 695.468 314.861 688.763 308.157 688.763 299.847 Z"/>
<path fill="#00ffff" fill-rule="evenodd" stroke="none" d="M 127.810 45.551 C 127.810 37.241 121.105 30.537 112.795 30.537 C 104.485 30.538 97.781 37.241 97.781 45.551 C 97.781 53.861 104.485 60.564 112.795 60.565 C 121.105 60.565 127.810 53.861 127.810 45.551 M 593.989 45.551 C 593.989 37.241 600.693 30.537 609.004 30.537 C 617.314 30.538 624.018 37.241 624.018 45.551 C 624.018 53.861 617.314 60.564 609.004 60.565 C 600.693 60.565 593.989 53.861 593.989 45.551 Z"/>
<path fill="#0000ff" fill-rule="evenodd" stroke="none" d="M 360.337 31.628 C 368.647 31.628 375.351 38.331 375.351 46.641 C 375.351 54.951 368.647 61.655 360.337 61.655 C 352.027 61.655 345.323 54.952 345.323 46.641 C 345.323 38.331 352.027 31.628 360.337 31.628 Z"/>
<path fill="#ff00ff" fill-rule="evenodd" stroke="none" d="M 119.669 184.928 C 119.717 184.928 600.283 184.928 600.331 184.928 C 600.331 184.956 600.331 459.638 600.331 459.665 C 600.283 459.665 119.717 459.665 119.669 459.665 C 119.669 459.638 119.669 184.956 119.669 184.928 Z"/>
</g>
</g>
</svg>
