<?xml version="1.0" encoding="utf-8"?>
<!-- Generator: Moho 12.5 build 22414 -->
<!DOCTYPE svg PUBLIC "-//W3C//DTD SVG 1.1//EN" "http://www.w3.org/Graphics/SVG/1.1/DTD/svg11.dtd">
<svg version="1.1" id="Frame_0" xmlns="http://www.w3.org/2000/svg" xmlns:xlink="http://www.w3.org/1999/xlink" width="720px" height="720px">
<g id="heart">
<g id="heart">
<path fill="#ffffff" fill-rule="evenodd" stroke="#000000" stroke-width="4" stroke-linecap="round" stroke-linejoin="round" d="M 360.000 632.726 C 359.984 632.711 255.492 538.294 201.451 486.335 C 136.886 424.258 62.120 355.123 60.489 258.201 C 59.200 181.590 92.778 91.164 160.777 71.451 C 311.958 27.624 359.980 173.360 360.000 173.370 C 360.020 173.360 407.948 27.947 559.223 71.451 C 627.404 91.059 661.684 181.430 660.434 258.201 C 658.853 355.300 586.640 427.897 518.549 486.335 C 458.308 538.036 360.016 632.711 360.000 632.726 Z"/>
</g>
<g id="specs">
<path fill="#ff00ff" fill-rule="evenodd" stroke="none" d="M 222.903 466.101 C 222.931 466.101 497.069 466.101 497.097 466.101 C 497.097 466.074 497.097 191.935 497.097 191.907 C 497.069 191.907 222.931 191.907 222.903 191.907 C 222.903 191.935 222.903 466.074 222.903 466.101 Z"/>
<path fill="#ff0000" fill-rule="evenodd" stroke="none" d="M 360.000 660.503 C 360.001 660.507 372.432 695.312 372.433 695.316 C 372.432 695.315 360.001 683.749 360.000 683.748 C 359.999 683.749 347.568 695.315 347.567 695.316 C 347.568 695.312 359.999 660.507 360.000 660.503 Z"/>
<path fill="#0000ff" fill-rule="evenodd" stroke="none" d="M 360.000 50.265 C 360.001 50.267 367.221 70.485 367.222 70.487 C 367.221 70.487 360.001 63.769 360.000 63.768 C 359.999 63.769 352.779 70.487 352.778 70.487 C 352.779 70.485 359.999 50.267 360.000 50.265 Z"/>
<path fill="#00ff00" fill-rule="evenodd" stroke="none" d="M 47.535 282.010 C 47.537 282.009 67.718 274.687 67.720 274.686 C 67.720 274.687 61.038 281.941 61.037 281.942 C 61.038 281.943 67.792 289.129 67.793 289.130 C 67.791 289.129 47.537 282.011 47.535 282.010 Z"/>
<path fill="#ffff00" fill-rule="evenodd" stroke="none" d="M 182.055 489.431 C 182.056 489.429 191.017 469.920 191.018 469.918 C 191.018 469.919 191.489 479.770 191.489 479.771 C 191.490 479.771 201.350 480.010 201.351 480.010 C 201.349 480.011 182.057 489.430 182.055 489.431 Z"/>
<path fill="#ffff00" fill-rule="evenodd" stroke="none" d="M 533.732 493.808 C 533.731 493.806 524.381 474.480 524.380 474.478 C 524.380 474.479 524.106 484.338 524.106 484.339 C 524.105 484.339 514.252 484.776 514.251 484.776 C 514.253 484.777 533.730 493.807 533.732 493.808 Z"/>
<path fill="#00ff00" fill-rule="evenodd" stroke="none" d="M 674.434 282.010 C 674.432 282.009 654.251 274.687 654.249 274.686 C 654.250 274.687 660.931 281.941 660.932 281.942 C 660.931 281.943 654.177 289.129 654.176 289.130 C 654.178 289.129 674.432 282.011 674.434 282.010 Z"/>
<path fill="#00ffff" fill-rule="evenodd" stroke="none" d="M 613.406 89.165 C 613.404 89.166 593.956 98.258 593.954 98.259 C 593.955 98.259 603.809 98.664 603.810 98.664 C 603.810 98.665 604.116 108.523 604.116 108.524 C 604.117 108.522 613.405 89.167 613.406 89.165 Z"/>
<path fill="#00ffff" fill-rule="evenodd" stroke="none" d="M 105.443 89.165 C 105.445 89.166 124.893 98.258 124.895 98.259 C 124.894 98.259 115.040 98.664 115.039 98.664 C 115.039 98.665 114.733 108.523 114.733 108.524 C 114.732 108.522 105.444 89.167 105.443 89.165 Z"/>
<path fill="#be0027" fill-rule="evenodd" stroke="none" d="M 359.957 640.826 C 359.958 640.824 369.002 615.500 369.003 615.497 C 369.002 615.498 359.958 623.913 359.957 623.914 C 359.957 623.913 350.913 615.498 350.912 615.497 C 350.913 615.500 359.957 640.824 359.957 640.826 Z"/>
</g>
</g>
</svg>
