<?xml version="1.0" encoding="utf-8"?>
<!-- Generator: Moho 12.5 build 22414 -->
<!DOCTYPE svg PUBLIC "-//W3C//DTD SVG 1.1//EN" "http://www.w3.org/Graphics/SVG/1.1/DTD/svg11.dtd">
<svg version="1.1" id="Frame_0" xmlns="http://www.w3.org/2000/svg" xmlns:xlink="http://www.w3.org/1999/xlink" width="720px" height="720px">
<g id="hole">
<g id="hole">
<path fill="#ffffff" fill-rule="evenodd" stroke="#ffffff" stroke-width="4" stroke-linejoin="round" d="M 360.000 456.101 C 194.301 456.101 94.503 405.743 52.692 360.074 C 37.228 377.020 29.695 393.345 29.695 406.271 C 29.695 454.144 133.015 548.644 360.000 548.644 C 586.985 548.644 690.305 454.144 690.305 406.271 C 690.305 393.345 682.772 377.020 667.307 360.073 C 625.497 405.743 525.699 456.101 360.000 456.101 Z"/>
<path fill="none" stroke="#000000" stroke-width="1" stroke-linecap="butt" stroke-linejoin="round" d="M 29.695 406.271 C 29.695 393.345 37.228 377.020 52.692 360.074 "/>
<path fill="none" stroke="#000000" stroke-width="1" stroke-linecap="butt" stroke-linejoin="round" d="M 667.307 360.073 C 682.772 377.020 690.305 393.345 690.305 406.271 "/>
<path fill="#000000" fill-rule="evenodd" stroke="#ffffff" stroke-width="4" stroke-linejoin="round" d="M 29.695 313.728 C 29.695 344.576 29.695 375.424 29.695 406.271 C 29.695 393.345 37.228 377.020 52.692 360.074 C 94.503 314.257 194.301 263.899 360.000 263.899 C 525.699 263.899 625.496 314.257 667.307 360.073 C 682.772 377.020 690.305 393.345 690.305 406.271 C 690.305 375.424 690.305 344.576 690.305 313.728 C 690.304 258.705 586.985 171.356 360.000 171.356 C 133.015 171.356 29.696 264.774 29.695 313.728 Z"/>
</g>
<g id="specs_2">
<path fill="#ff00ff" fill-rule="evenodd" stroke="none" d="M 234.786 655.060 C 234.811 655.060 485.189 655.060 485.214 655.060 C 485.214 655.022 485.214 277.743 485.214 277.705 C 485.189 277.705 234.811 277.705 234.786 277.705 C 234.786 277.743 234.786 655.022 234.786 655.060 Z"/>
<path fill="#ff0000" fill-rule="evenodd" stroke="none" d="M 360.000 662.708 C 360.001 662.711 372.432 697.517 372.433 697.521 C 372.432 697.520 360.001 685.954 360.000 685.952 C 359.999 685.954 347.568 697.520 347.567 697.521 C 347.568 697.517 359.999 662.711 360.000 662.708 Z"/>
<path fill="#0000ff" fill-rule="evenodd" stroke="none" d="M 360.000 160.447 C 360.001 160.449 367.221 180.668 367.222 180.670 C 367.221 180.669 360.001 173.951 360.000 173.950 C 359.999 173.951 352.779 180.669 352.778 180.670 C 352.779 180.668 359.999 160.449 360.000 160.447 Z"/>
<path fill="#00ff00" fill-rule="evenodd" stroke="none" d="M 18.920 361.005 C 18.922 361.004 39.104 353.681 39.106 353.680 C 39.105 353.681 32.423 360.936 32.423 360.936 C 32.423 360.937 39.178 368.124 39.179 368.125 C 39.177 368.124 18.922 361.005 18.920 361.005 Z"/>
<path fill="#ffff00" fill-rule="evenodd" stroke="none" d="M 118.365 514.725 C 118.366 514.723 127.326 495.214 127.327 495.212 C 127.327 495.213 127.799 505.064 127.799 505.065 C 127.800 505.066 137.660 505.304 137.661 505.305 C 137.659 505.305 118.367 514.724 118.365 514.725 Z"/>
<path fill="#ffff00" fill-rule="evenodd" stroke="none" d="M 602.961 514.486 C 602.960 514.484 593.610 495.158 593.609 495.156 C 593.609 495.157 593.334 505.017 593.334 505.018 C 593.333 505.018 583.480 505.454 583.479 505.454 C 583.481 505.455 602.959 514.485 602.961 514.486 Z"/>
<path fill="#00ff00" fill-rule="evenodd" stroke="none" d="M 702.126 361.005 C 702.124 361.004 681.942 353.681 681.940 353.680 C 681.941 353.681 688.623 360.936 688.623 360.936 C 688.623 360.937 681.868 368.124 681.867 368.125 C 681.869 368.124 702.124 361.005 702.126 361.005 Z"/>
<path fill="#00ffff" fill-rule="evenodd" stroke="none" d="M 601.361 206.492 C 601.361 206.494 594.193 226.731 594.193 226.733 C 594.193 226.732 592.835 216.963 592.835 216.962 C 592.834 216.962 582.993 217.612 582.992 217.612 C 582.994 217.611 601.359 206.493 601.361 206.492 Z"/>
<path fill="#00ffff" fill-rule="evenodd" stroke="none" d="M 118.750 207.162 C 118.751 207.164 127.252 226.879 127.253 226.881 C 127.253 226.880 127.956 217.042 127.956 217.041 C 127.957 217.041 137.819 217.033 137.820 217.033 C 137.818 217.032 118.752 207.163 118.750 207.162 Z"/>
<path fill="#be0027" fill-rule="evenodd" stroke="none" d="M 360.000 572.306 C 360.001 572.302 372.432 537.497 372.433 537.493 C 372.432 537.494 360.001 549.060 360.000 549.061 C 359.999 549.060 347.568 537.494 347.567 537.493 C 347.568 537.497 359.999 572.302 360.000 572.306 Z"/>
</g>
</g>
</svg>
