<?xml version="1.0" encoding="utf-8"?>
<!-- Generator: Moho 12.5 build 22414 -->
<!DOCTYPE svg PUBLIC "-//W3C//DTD SVG 1.1//EN" "http://www.w3.org/Graphics/SVG/1.1/DTD/svg11.dtd">
<svg version="1.1" id="Frame_0" xmlns="http://www.w3.org/2000/svg" xmlns:xlink="http://www.w3.org/1999/xlink" width="720px" height="720px">
<g id="horse_top">
<g id="horse_top">
<path fill="#ffffff" fill-rule="evenodd" stroke="#000000" stroke-width="4" stroke-linecap="round" stroke-linejoin="round" d="M 38.625 284.822 C 38.324 282.286 38.371 278.519 40.918 278.712 C 45.742 279.077 42.486 282.975 42.578 285.837 C 42.630 287.434 43.510 289.367 41.996 289.877 C 39.742 290.635 38.906 287.183 38.625 284.822 M 48.959 209.027 C 48.942 204.877 52.275 201.516 56.425 201.498 C 60.574 201.481 63.935 204.814 63.953 208.964 C 63.970 213.113 60.637 216.475 56.488 216.492 C 52.338 216.510 48.976 213.176 48.959 209.027 M 155.722 363.474 C 155.766 363.474 588.521 363.474 588.564 363.474 C 588.564 363.470 587.463 337.551 584.873 326.881 C 582.373 316.583 571.883 293.853 571.881 293.849 C 571.886 293.848 603.732 277.514 618.000 285.422 C 653.016 304.830 598.482 373.983 635.975 443.527 C 650.543 470.548 691.448 479.247 713.129 478.131 C 683.005 452.981 679.883 422.396 680.825 389.076 C 682.305 336.762 698.342 296.464 663.092 269.196 C 633.514 246.316 578.966 272.460 561.690 276.770 C 559.209 277.389 531.243 269.815 505.429 272.396 C 480.129 274.926 458.443 279.451 405.071 291.818 C 365.287 301.036 328.720 292.431 312.742 284.061 C 298.936 276.828 263.948 216.913 246.329 198.377 C 224.436 175.343 178.893 141.200 130.843 141.454 C 91.212 141.665 58.523 156.233 58.516 156.235 C 58.515 156.234 50.582 149.503 44.334 146.809 C 39.423 144.692 31.319 143.681 31.318 143.681 C 31.320 143.683 46.272 167.161 46.274 167.163 C 46.273 167.166 38.630 190.682 38.629 190.684 C 38.630 190.685 43.356 194.774 43.356 194.775 C 43.355 194.783 33.666 272.153 33.665 272.161 C 33.665 272.162 30.452 276.292 30.375 278.960 C 29.733 301.302 51.217 302.811 52.065 300.913 C 52.453 300.046 58.130 280.203 58.130 280.203 C 58.130 280.205 56.194 303.508 56.193 303.510 C 56.194 303.510 63.079 301.835 64.551 300.988 C 67.788 299.124 77.306 289.336 78.067 287.358 C 78.858 285.305 77.079 267.457 77.079 267.455 C 77.080 267.454 88.784 253.835 88.785 253.833 C 88.787 253.833 98.262 258.145 106.863 249.233 C 120.620 234.980 113.916 204.870 113.917 204.866 C 113.917 204.869 121.137 228.737 115.703 240.266 C 112.667 246.708 134.513 256.410 146.033 300.704 C 146.823 303.742 143.748 317.540 146.099 333.906 C 148.349 349.572 155.721 363.471 155.722 363.474 Z"/>
</g>
<g id="specs_2">
<path fill="#ff0000" fill-rule="evenodd" stroke="none" d="M 360.000 340.387 C 360.001 340.390 372.416 375.153 372.417 375.156 C 372.416 375.155 360.001 363.604 360.000 363.602 C 359.999 363.604 347.584 375.155 347.583 375.156 C 347.584 375.153 359.999 340.390 360.000 340.387 Z"/>
<path fill="#0000ff" fill-rule="evenodd" stroke="none" d="M 360.000 281.706 C 360.001 281.708 367.212 301.901 367.213 301.903 C 367.212 301.902 360.001 295.193 360.000 295.192 C 359.999 295.193 352.788 301.902 352.787 301.903 C 352.788 301.901 359.999 281.708 360.000 281.706 Z"/>
<path fill="#ffff00" fill-rule="evenodd" stroke="none" d="M 149.992 369.173 C 149.992 369.171 158.942 349.686 158.943 349.684 C 158.943 349.685 159.414 359.525 159.414 359.525 C 159.415 359.526 169.262 359.764 169.263 359.764 C 169.261 359.765 149.993 369.172 149.992 369.173 Z"/>
<path fill="#ffff00" fill-rule="evenodd" stroke="none" d="M 594.366 368.934 C 594.365 368.933 585.027 349.631 585.026 349.629 C 585.026 349.630 584.752 359.477 584.752 359.478 C 584.751 359.478 574.910 359.914 574.909 359.914 C 574.911 359.915 594.364 368.934 594.366 368.934 Z"/>
<path fill="#00ffff" fill-rule="evenodd" stroke="none" d="M 31.264 168.317 C 31.265 168.319 46.702 183.201 46.704 183.202 C 46.703 183.201 43.555 173.867 43.555 173.866 C 43.556 173.866 52.639 170.054 52.639 170.053 C 52.637 170.053 31.266 168.317 31.264 168.317 Z"/>
<path fill="#be0027" fill-rule="evenodd" stroke="none" d="M 360.000 387.145 C 360.001 387.141 372.416 352.379 372.417 352.375 C 372.416 352.376 360.001 363.928 360.000 363.929 C 359.999 363.928 347.584 352.376 347.583 352.375 C 347.584 352.379 359.999 387.141 360.000 387.145 Z"/>
<path fill="none" stroke="#ffff00" stroke-width="4" stroke-linecap="round" stroke-linejoin="round" d="M 155.722 363.474 C 300.003 363.474 444.284 363.474 588.564 363.474 "/>
</g>
</g>
</svg>
