<?xml version="1.0" encoding="utf-8"?>
<!-- Generator: Moho 12.5 build 22414 -->
<!DOCTYPE svg PUBLIC "-//W3C//DTD SVG 1.1//EN" "http://www.w3.org/Graphics/SVG/1.1/DTD/svg11.dtd">
<svg version="1.1" id="Frame_0" xmlns="http://www.w3.org/2000/svg" xmlns:xlink="http://www.w3.org/1999/xlink" width="720px" height="720px">
<g id="horse">
<g id="horse">
<path fill="#ffffff" fill-rule="evenodd" stroke="#000000" stroke-width="4" stroke-linecap="round" stroke-linejoin="round" d="M 42.183 248.617 C 42.234 250.215 43.116 252.151 41.600 252.661 C 39.343 253.421 38.506 249.965 38.225 247.600 C 37.923 245.061 37.970 241.290 40.520 241.483 C 45.351 241.848 42.091 245.751 42.183 248.617 M 63.584 171.648 C 63.602 175.803 60.264 179.168 56.109 179.186 C 51.955 179.203 48.589 175.866 48.571 171.711 C 48.554 167.556 51.892 164.190 56.047 164.173 C 60.201 164.156 63.567 167.493 63.584 171.648 M 30.909 106.283 C 30.910 106.285 45.881 129.793 45.883 129.795 C 45.882 129.798 38.230 153.343 38.229 153.346 C 38.230 153.346 42.961 157.441 42.962 157.441 C 42.961 157.449 33.260 234.916 33.259 234.924 C 33.259 234.924 30.042 239.059 29.965 241.731 C 29.321 264.101 50.832 265.611 51.682 263.712 C 52.071 262.843 57.754 242.975 57.754 242.975 C 57.754 242.978 55.815 266.309 55.815 266.312 C 55.816 266.312 62.709 264.635 64.183 263.786 C 67.424 261.920 76.954 252.120 77.716 250.140 C 78.508 248.084 76.727 230.214 76.727 230.212 C 76.728 230.211 88.446 216.575 88.447 216.573 C 88.449 216.573 97.936 220.890 106.548 211.967 C 120.322 197.696 113.609 167.549 113.610 167.545 C 113.610 167.548 120.840 191.445 115.399 202.989 C 112.359 209.439 135.479 218.848 145.766 263.502 C 146.473 266.569 141.021 280.457 144.093 296.746 C 147.102 312.696 157.450 320.809 158.088 325.400 C 158.622 329.238 152.991 341.507 153.668 351.692 C 154.832 369.202 168.344 395.113 168.345 395.118 C 168.341 395.121 140.445 416.836 129.082 426.446 C 122.035 432.405 107.138 441.813 105.825 447.172 C 103.940 454.862 112.987 470.773 123.813 488.093 C 127.155 493.440 130.955 526.307 135.404 533.872 C 138.181 538.593 151.048 551.325 156.329 554.622 C 162.850 558.694 190.802 566.255 190.805 566.256 C 190.805 566.253 193.420 548.411 190.699 540.889 C 187.800 532.874 173.400 520.125 173.398 520.123 C 173.397 520.124 160.860 524.793 159.828 524.710 C 153.867 524.229 158.258 514.183 157.053 511.132 C 154.410 504.438 145.293 496.464 140.411 485.683 C 136.210 476.402 133.286 460.498 133.285 460.496 C 133.292 460.492 195.647 425.811 195.653 425.807 C 195.654 425.808 205.630 428.483 205.631 428.483 C 205.632 428.486 210.284 440.699 216.601 451.993 C 221.068 459.979 226.630 467.352 226.631 467.353 C 226.632 467.356 234.923 499.908 234.921 499.934 C 234.921 499.941 232.194 504.632 232.237 508.099 C 232.373 518.899 243.210 532.513 243.211 532.515 C 243.212 532.520 251.588 585.928 251.589 585.934 C 251.588 585.935 246.561 590.561 245.292 596.832 C 244.375 601.368 246.236 605.887 246.236 605.887 C 246.234 605.889 231.635 614.341 228.166 617.741 C 222.922 622.881 210.162 644.993 210.160 644.996 C 210.163 644.996 222.196 649.050 233.731 648.521 C 248.194 647.858 262.689 641.153 262.692 641.152 C 262.692 641.151 268.107 629.179 268.063 625.728 C 268.026 622.883 263.272 617.844 263.480 613.063 C 263.962 601.966 268.162 613.683 273.446 613.022 C 279.470 612.268 279.753 604.842 279.753 604.841 C 279.752 604.837 268.689 558.687 268.688 558.682 C 268.688 558.679 264.023 526.090 264.022 526.086 C 264.022 526.085 266.617 514.050 266.679 511.579 C 266.888 503.270 259.256 466.882 258.321 462.691 C 257.691 459.866 249.533 430.438 249.532 430.434 C 249.530 430.434 220.171 424.336 220.168 424.336 C 220.171 424.336 249.118 429.207 249.121 429.208 C 249.129 429.208 289.221 434.915 329.749 427.964 C 380.722 419.221 422.107 395.735 425.646 394.948 C 426.869 394.675 460.420 390.524 460.423 390.523 C 460.420 390.524 425.860 395.998 425.857 395.999 C 425.857 396.001 423.020 412.421 427.958 424.307 C 435.721 442.994 463.532 460.463 463.709 469.684 C 463.881 478.690 430.683 515.418 430.680 515.423 C 430.676 515.426 405.979 538.585 396.391 548.634 C 391.436 553.827 390.730 575.977 390.172 578.106 C 389.891 579.179 385.704 588.483 385.703 592.620 C 385.700 602.068 397.616 625.183 397.617 625.186 C 397.619 625.185 408.001 620.186 413.934 613.590 C 419.884 606.973 423.768 596.087 423.769 596.085 C 423.768 596.083 412.409 581.380 414.599 569.850 C 416.533 559.673 425.046 561.883 427.234 558.019 C 429.346 554.290 428.238 544.541 430.789 541.696 C 445.212 525.617 482.597 487.915 502.375 485.248 C 505.031 484.890 509.696 472.169 498.968 463.410 C 481.492 449.140 491.416 426.919 491.416 426.915 C 491.413 426.912 464.156 391.559 464.153 391.556 C 464.156 391.559 490.906 425.968 490.909 425.971 C 490.912 425.973 523.184 442.527 526.421 445.261 C 528.744 447.223 537.155 462.374 544.635 467.835 C 553.821 474.541 568.728 478.038 570.293 482.979 C 573.921 494.427 594.981 528.744 597.473 537.375 C 600.418 547.574 607.106 603.337 604.115 608.920 C 603.340 610.367 591.915 616.523 589.060 619.858 C 583.817 625.981 574.393 650.717 574.392 650.720 C 574.394 650.721 586.815 656.799 595.256 656.975 C 605.049 657.180 619.688 650.531 619.691 650.531 C 619.691 650.529 621.442 636.029 621.442 636.028 C 621.443 636.027 626.296 632.688 626.855 630.569 C 628.055 626.018 620.494 618.929 621.053 615.115 C 623.067 601.392 635.063 615.741 634.761 607.282 C 633.445 570.434 624.956 580.855 614.615 520.089 C 612.841 509.668 613.222 475.874 609.877 470.280 C 607.797 466.802 591.531 460.447 584.734 451.962 C 571.958 436.016 560.364 422.890 563.367 397.541 C 565.152 382.470 577.305 389.835 586.723 349.880 C 591.756 328.532 586.420 277.410 586.420 277.402 C 586.423 277.404 606.890 289.428 610.584 296.630 C 625.786 326.264 589.075 342.051 600.395 423.285 C 606.594 467.770 650.034 512.313 681.489 516.722 C 652.223 480.859 658.863 447.571 652.803 408.720 C 646.353 367.366 662.868 327.309 636.994 293.046 C 620.651 271.406 570.953 260.256 570.946 260.253 C 570.940 260.251 537.750 236.698 505.610 235.159 C 480.181 233.941 458.565 242.222 405.127 254.605 C 365.293 263.835 328.681 255.219 312.683 246.838 C 298.860 239.597 263.828 179.607 246.187 161.047 C 224.267 137.985 178.668 103.799 130.558 104.054 C 90.877 104.265 58.148 118.851 58.141 118.853 C 58.139 118.852 50.196 112.112 43.941 109.416 C 39.023 107.296 30.910 106.284 30.909 106.283 Z"/>
</g>
<g id="specs_2">
<path fill="#ff00ff" fill-rule="evenodd" stroke="none" d="M 176.764 411.110 C 176.784 411.110 375.154 411.110 375.173 411.110 C 375.173 411.095 375.173 263.048 375.173 263.033 C 375.154 263.033 176.784 263.033 176.764 263.033 C 176.764 263.048 176.764 411.095 176.764 411.110 Z"/>
<path fill="#ff0000" fill-rule="evenodd" stroke="none" d="M 360.000 659.517 C 360.001 659.520 372.432 694.326 372.433 694.330 C 372.432 694.329 360.001 682.763 360.000 682.761 C 359.999 682.763 347.568 694.329 347.567 694.330 C 347.568 694.326 359.999 659.520 360.000 659.517 Z"/>
<path fill="#0000ff" fill-rule="evenodd" stroke="none" d="M 360.000 78.402 C 360.001 78.404 367.221 98.622 367.222 98.624 C 367.221 98.624 360.001 91.905 360.000 91.905 C 359.999 91.905 352.779 98.624 352.778 98.624 C 352.779 98.622 359.999 78.404 360.000 78.402 Z"/>
<path fill="#00ff00" fill-rule="evenodd" stroke="none" d="M 356.835 247.816 C 356.834 247.818 346.609 266.695 346.608 266.697 C 346.608 266.696 346.785 256.835 346.785 256.834 C 346.784 256.834 336.961 255.947 336.960 255.947 C 336.962 255.946 356.833 247.817 356.835 247.816 Z"/>
<path fill="#ffff00" fill-rule="evenodd" stroke="none" d="M 196.014 433.311 C 196.015 433.309 204.976 413.800 204.977 413.798 C 204.977 413.799 205.448 423.651 205.448 423.652 C 205.449 423.652 215.309 423.891 215.310 423.891 C 215.308 423.892 196.016 433.310 196.014 433.311 Z"/>
<path fill="#ffff00" fill-rule="evenodd" stroke="none" d="M 402.987 420.308 C 402.986 420.306 393.636 400.980 393.635 400.978 C 393.635 400.979 393.361 410.838 393.361 410.839 C 393.360 410.840 383.507 411.276 383.506 411.276 C 383.508 411.277 402.985 420.307 402.987 420.308 Z"/>
<path fill="#00ff00" fill-rule="evenodd" stroke="none" d="M 316.151 232.212 C 316.149 232.213 300.314 246.710 300.313 246.711 C 300.314 246.711 309.838 244.148 309.839 244.148 C 309.839 244.149 313.081 253.464 313.081 253.464 C 313.081 253.462 316.150 232.214 316.151 232.212 Z"/>
<path fill="#00ffff" fill-rule="evenodd" stroke="none" d="M 67.850 102.765 C 67.851 102.766 79.761 120.629 79.762 120.631 C 79.762 120.630 71.127 115.864 71.126 115.864 C 71.125 115.865 65.750 124.134 65.749 124.135 C 65.750 124.132 67.850 102.767 67.850 102.765 Z"/>
<path fill="#00ffff" fill-rule="evenodd" stroke="none" d="M 27.700 141.108 C 27.702 141.110 45.553 153.037 45.555 153.038 C 45.555 153.037 40.797 144.397 40.796 144.396 C 40.797 144.396 49.071 139.029 49.072 139.028 C 49.070 139.028 27.702 141.108 27.700 141.108 Z"/>
<path fill="#be0027" fill-rule="evenodd" stroke="none" d="M 601.845 273.785 C 601.841 273.784 567.035 261.353 567.032 261.352 C 567.033 261.353 578.599 273.784 578.600 273.785 C 578.599 273.786 567.033 286.217 567.032 286.218 C 567.035 286.217 601.841 273.786 601.845 273.785 Z"/>
</g>
</g>
</svg>
