<?xml version="1.0" encoding="utf-8"?>
<!-- Generator: Moho 12.5 build 22414 -->
<!DOCTYPE svg PUBLIC "-//W3C//DTD SVG 1.1//EN" "http://www.w3.org/Graphics/SVG/1.1/DTD/svg11.dtd">
<svg version="1.1" id="Frame_0" xmlns="http://www.w3.org/2000/svg" xmlns:xlink="http://www.w3.org/1999/xlink" width="720px" height="720px">
<g id="hourglass">
<g id="hourglass">
<path fill="#ffffff" fill-rule="evenodd" stroke="#000000" stroke-width="4" stroke-linecap="round" stroke-linejoin="round" d="M 523.077 196.657 C 511.251 258.088 443.634 297.122 420.955 315.586 C 406.049 326.893 405.767 337.101 420.493 345.639 C 441.734 362.132 507.440 386.979 523.077 464.509 C 533.336 515.374 522.916 637.456 522.916 637.473 C 522.899 637.473 358.816 636.897 358.799 636.897 C 358.783 636.897 194.630 636.320 194.613 636.320 C 194.614 636.303 186.873 515.068 196.923 464.509 C 209.797 399.750 269.816 366.806 294.894 349.133 C 314.286 335.466 313.773 328.637 293.716 312.033 C 267.632 290.440 210.240 259.534 196.923 196.657 C 186.172 145.894 197.084 23.710 197.085 23.693 C 198.443 25.056 361.185 24.269 361.201 24.269 C 361.217 24.269 525.370 24.846 525.387 24.846 C 525.387 24.863 532.821 146.038 523.077 196.657 Z"/>
<path fill="none" stroke="#000000" stroke-width="4" stroke-linecap="round" stroke-linejoin="round" d="M 217.070 187.653 C 317.068 145.251 406.466 207.676 502.930 187.653 C 510.491 145.816 502.930 44.737 502.930 44.723 C 502.916 44.723 360.014 44.723 360.000 44.723 C 359.986 44.723 218.262 45.900 217.070 44.723 C 217.070 44.737 210.598 151.356 217.070 187.653 C 225.756 236.371 292.094 287.460 360.000 330.583 C 428.859 285.227 493.682 238.825 502.930 187.653 M 217.070 473.513 C 229.843 413.022 296.846 372.181 360.000 330.583 C 423.247 370.748 489.045 410.837 502.930 473.513 C 506.624 490.189 506.692 526.390 506.746 530.317 C 506.828 536.265 502.930 616.435 502.930 616.444 C 502.916 616.444 360.014 616.444 360.000 616.444 C 359.986 616.444 217.084 616.444 217.070 616.444 C 217.070 616.435 213.493 532.663 213.492 532.655 C 213.493 532.649 213.398 490.905 217.070 473.513 "/>
<path fill="#000000" fill-rule="evenodd" stroke="none" d="M 360.000 489.064 C 418.627 488.625 440.773 530.313 506.746 530.317 C 506.828 536.265 502.930 616.435 502.930 616.444 C 502.916 616.444 360.014 616.444 360.000 616.444 C 359.986 616.444 217.084 616.444 217.070 616.444 C 217.070 616.435 213.493 532.663 213.492 532.655 C 284.177 531.473 301.211 489.504 360.000 489.064 Z"/>
<path fill="#000000" fill-rule="evenodd" stroke="none" d="M 217.070 187.653 C 317.068 145.251 406.466 207.676 502.930 187.653 C 493.682 238.825 428.859 285.227 360.000 330.583 C 292.094 287.460 225.756 236.371 217.070 187.653 Z"/>
<path fill="none" stroke="#000000" stroke-width="4" stroke-linecap="round" stroke-linejoin="round" d="M 360.000 334.925 C 360.000 334.926 360.000 344.955 360.000 344.956 M 360.000 354.988 C 360.000 354.989 360.000 365.018 360.000 365.019 M 360.000 375.050 C 360.000 375.051 360.000 385.080 360.000 385.081 M 360.000 395.112 C 360.000 395.113 360.000 405.142 360.000 405.143 M 360.000 415.174 C 360.000 415.175 360.000 425.205 360.000 425.206 M 360.000 435.237 C 360.000 435.238 360.000 445.267 360.000 445.268 M 360.000 455.299 C 360.000 455.300 360.000 465.329 360.000 465.330 M 360.000 475.361 C 360.000 475.362 360.000 482.049 360.000 485.392 "/>
</g>
<g id="specs_2">
<path fill="#ff0000" fill-rule="evenodd" stroke="none" d="M 360.000 666.739 C 360.001 666.742 371.275 698.310 371.276 698.313 C 371.275 698.312 360.001 687.822 360.000 687.821 C 359.999 687.822 348.725 698.312 348.724 698.313 C 348.725 698.310 359.999 666.742 360.000 666.739 Z"/>
<path fill="#0000ff" fill-rule="evenodd" stroke="none" d="M 360.000 13.265 C 360.001 13.266 366.549 31.604 366.550 31.606 C 366.549 31.605 360.001 25.512 360.000 25.511 C 359.999 25.512 353.451 31.605 353.450 31.606 C 353.451 31.604 359.999 13.266 360.000 13.265 Z"/>
<path fill="#00ff00" fill-rule="evenodd" stroke="none" d="M 220.351 331.493 C 220.352 331.493 238.656 324.851 238.658 324.850 C 238.658 324.851 232.598 331.431 232.597 331.431 C 232.598 331.432 238.724 337.950 238.724 337.951 C 238.722 337.950 220.352 331.494 220.351 331.493 Z"/>
<path fill="#ffff00" fill-rule="evenodd" stroke="none" d="M 192.105 641.350 C 192.106 641.349 198.315 627.830 198.315 627.829 C 198.315 627.829 198.642 634.656 198.642 634.656 C 198.643 634.656 205.475 634.822 205.475 634.822 C 205.474 634.823 192.107 641.349 192.105 641.350 Z"/>
<path fill="#ffff00" fill-rule="evenodd" stroke="none" d="M 527.895 641.184 C 527.894 641.183 521.415 627.792 521.415 627.790 C 521.415 627.791 521.225 634.623 521.225 634.623 C 521.224 634.623 514.396 634.926 514.396 634.926 C 514.397 634.927 527.893 641.184 527.895 641.184 Z"/>
<path fill="#00ff00" fill-rule="evenodd" stroke="none" d="M 499.649 331.493 C 499.648 331.493 481.344 324.851 481.342 324.850 C 481.342 324.851 487.403 331.431 487.403 331.431 C 487.402 331.432 481.276 337.950 481.276 337.951 C 481.278 337.950 499.648 331.494 499.649 331.493 Z"/>
<path fill="#00ffff" fill-rule="evenodd" stroke="none" d="M 528.932 17.967 C 528.931 17.968 523.915 32.132 523.915 32.133 C 523.914 32.132 522.965 25.295 522.965 25.295 C 522.964 25.295 516.076 25.750 516.076 25.750 C 516.077 25.749 528.930 17.968 528.932 17.967 Z"/>
<path fill="#00ffff" fill-rule="evenodd" stroke="none" d="M 191.170 18.436 C 191.170 18.438 197.120 32.235 197.120 32.236 C 197.120 32.236 197.612 25.351 197.612 25.350 C 197.613 25.350 204.515 25.345 204.516 25.345 C 204.514 25.344 191.171 18.437 191.170 18.436 Z"/>
<path fill="#be0027" fill-rule="evenodd" stroke="none" d="M 360.000 656.339 C 360.001 656.336 371.275 624.768 371.276 624.765 C 371.275 624.766 360.001 635.256 360.000 635.257 C 359.999 635.256 348.725 624.766 348.724 624.765 C 348.725 624.768 359.999 656.336 360.000 656.339 Z"/>
<path fill="#ff00ff" fill-rule="evenodd" stroke="#ffffff" stroke-width="4" stroke-linecap="round" stroke-linejoin="round" d="M 308.057 185.498 C 308.067 185.498 411.933 185.498 411.943 185.498 C 411.943 185.508 411.943 289.374 411.943 289.384 C 411.933 289.384 308.067 289.384 308.057 289.384 C 308.057 289.374 308.057 185.508 308.057 185.498 Z"/>
<path fill="#ff00ff" fill-rule="evenodd" stroke="#ffffff" stroke-width="4" stroke-linecap="round" stroke-linejoin="round" d="M 308.057 508.040 C 308.067 508.040 411.933 508.040 411.943 508.040 C 411.943 508.050 411.943 611.916 411.943 611.926 C 411.933 611.926 308.067 611.926 308.057 611.926 C 308.057 611.916 308.057 508.050 308.057 508.040 Z"/>
</g>
</g>
</svg>
