<?xml version="1.0" encoding="utf-8"?>
<!-- Generator: Moho 12.5 build 22414 -->
<!DOCTYPE svg PUBLIC "-//W3C//DTD SVG 1.1//EN" "http://www.w3.org/Graphics/SVG/1.1/DTD/svg11.dtd">
<svg version="1.1" id="Frame_0" xmlns="http://www.w3.org/2000/svg" xmlns:xlink="http://www.w3.org/1999/xlink" width="720px" height="720px">
<g id="house">
<g id="house_3">
<path fill="#000000" fill-rule="evenodd" stroke="#ffffff" stroke-width="4" stroke-linejoin="round" d="M 307.155 58.728 C 307.168 58.750 392.968 207.905 435.875 282.494 C 435.875 282.527 435.875 608.554 435.875 608.586 C 412.454 600.235 365.618 583.535 365.611 583.532 C 365.598 583.527 236.735 537.579 236.722 537.574 C 236.716 537.572 178.440 516.793 178.434 516.791 C 178.434 516.758 178.434 190.731 178.434 190.698 C 178.447 190.685 307.142 58.741 307.155 58.728 Z"/>
<path fill="none" stroke="#ffffff" stroke-width="1" stroke-linecap="butt" stroke-linejoin="round" d="M 435.875 282.494 C 435.875 282.527 435.875 608.554 435.875 608.586 "/>
<path fill="#ffffff" fill-rule="evenodd" stroke="#000000" stroke-width="4" stroke-linejoin="round" d="M 435.875 282.494 C 435.875 282.527 435.875 608.554 435.875 608.586 C 435.901 608.578 693.290 522.523 693.316 522.514 C 693.316 522.484 693.316 226.096 693.316 226.067 C 693.290 226.072 435.901 282.489 435.875 282.494 Z"/>
<path fill="none" stroke="#ffffff" stroke-width="1" stroke-linecap="butt" stroke-linejoin="round" d="M 693.316 226.067 C 693.290 226.072 435.901 282.489 435.875 282.494 "/>
<path fill="none" stroke="#ffffff" stroke-width="1" stroke-linecap="butt" stroke-linejoin="round" d="M 435.875 282.494 C 392.968 207.905 307.168 58.750 307.155 58.728 "/>
<path fill="#ffffff" fill-rule="evenodd" stroke="#000000" stroke-width="4" stroke-linejoin="round" d="M 564.595 31.945 C 564.608 31.964 650.409 161.360 693.316 226.067 C 693.290 226.072 435.901 282.489 435.875 282.494 C 392.968 207.905 307.168 58.750 307.155 58.728 C 392.968 49.800 564.570 31.948 564.595 31.945 Z"/>
<path fill="none" stroke="#ffffff" stroke-width="1" stroke-linecap="butt" stroke-linejoin="round" d="M 365.611 583.532 C 365.598 583.527 236.735 537.579 236.722 537.574 "/>
<path fill="#ffffff" fill-rule="evenodd" stroke="none" d="M 365.498 291.109 C 365.498 291.138 365.573 486.058 365.611 583.532 C 365.598 583.527 236.735 537.579 236.722 537.574 C 236.740 440.120 236.778 245.240 236.778 245.211 C 236.790 245.216 365.486 291.104 365.498 291.109 Z"/>
<path fill="#000000" fill-rule="evenodd" stroke="#ffffff" stroke-width="4" stroke-linejoin="round" d="M 638.519 445.989 C 638.513 445.991 574.885 467.275 574.879 467.277 C 574.872 467.279 511.244 488.564 511.238 488.566 C 511.238 488.558 511.238 415.290 511.238 415.282 C 511.238 415.275 511.238 342.006 511.238 341.999 C 511.245 341.997 574.872 325.608 574.879 325.607 C 574.885 325.605 638.513 309.216 638.519 309.214 C 638.519 309.221 638.519 377.590 638.519 377.597 C 638.519 377.604 638.519 445.982 638.519 445.989 Z"/>
<path fill="none" stroke="#ffffff" stroke-width="4" stroke-linejoin="round" d="M 574.879 325.607 C 574.879 372.830 574.879 420.054 574.879 467.277 M 511.238 415.282 C 553.665 402.721 596.092 390.159 638.519 377.597 "/>
</g>
<g id="specs_2">
<path fill="#ff00ff" fill-rule="evenodd" stroke="none" d="M 202.981 579.099 C 202.997 579.099 365.217 579.099 365.233 579.099 C 365.233 579.070 365.233 291.595 365.233 291.567 C 365.217 291.567 202.997 291.567 202.981 291.567 C 202.981 291.595 202.981 579.070 202.981 579.099 Z"/>
<path fill="#ff0000" fill-rule="evenodd" stroke="none" d="M 434.652 668.039 C 434.653 668.042 446.059 699.978 446.060 699.981 C 446.059 699.980 434.653 689.368 434.652 689.367 C 434.651 689.368 423.246 699.980 423.244 699.981 C 423.246 699.978 434.651 668.042 434.652 668.039 Z"/>
<path fill="#0000ff" fill-rule="evenodd" stroke="none" d="M 434.652 32.248 C 434.653 32.250 441.278 50.801 441.279 50.803 C 441.278 50.802 434.653 44.638 434.652 44.638 C 434.651 44.638 428.026 50.802 428.026 50.803 C 428.026 50.801 434.651 32.250 434.652 32.248 Z"/>
<path fill="#00ff00" fill-rule="evenodd" stroke="none" d="M 164.214 312.917 C 164.216 312.916 180.193 307.119 180.195 307.118 C 180.194 307.119 174.905 312.863 174.904 312.863 C 174.905 312.864 180.252 318.553 180.252 318.553 C 180.251 318.553 164.216 312.918 164.214 312.917 Z"/>
<path fill="#ffff00" fill-rule="evenodd" stroke="none" d="M 284.391 566.590 C 284.391 566.588 285.234 550.831 285.234 550.830 C 285.234 550.830 288.223 557.435 288.223 557.435 C 288.224 557.435 295.026 554.929 295.027 554.929 C 295.026 554.930 284.392 566.589 284.391 566.590 Z"/>
<path fill="#ffff00" fill-rule="evenodd" stroke="none" d="M 593.966 566.071 C 593.966 566.069 593.461 550.298 593.461 550.296 C 593.461 550.297 590.332 556.836 590.331 556.837 C 590.331 556.836 583.583 554.186 583.582 554.186 C 583.584 554.187 593.965 566.070 593.966 566.071 Z"/>
<path fill="#00ff00" fill-rule="evenodd" stroke="none" d="M 705.090 312.917 C 705.088 312.916 689.111 307.119 689.109 307.118 C 689.110 307.119 694.399 312.863 694.400 312.863 C 694.399 312.864 689.052 318.553 689.052 318.553 C 689.053 318.553 705.088 312.918 705.090 312.917 Z"/>
<path fill="#00ffff" fill-rule="evenodd" stroke="none" d="M 628.610 110.045 C 628.609 110.046 619.274 123.626 619.273 123.628 C 619.273 123.627 620.208 116.114 620.208 116.114 C 620.207 116.114 612.781 114.640 612.780 114.640 C 612.782 114.640 628.608 110.045 628.610 110.045 Z"/>
<path fill="#00ffff" fill-rule="evenodd" stroke="none" d="M 235.742 116.603 C 235.743 116.605 242.267 131.737 242.268 131.739 C 242.268 131.738 242.808 124.187 242.808 124.186 C 242.808 124.186 250.379 124.180 250.380 124.180 C 250.378 124.179 235.744 116.604 235.742 116.603 Z"/>
<path fill="#be0027" fill-rule="evenodd" stroke="none" d="M 434.652 627.758 C 434.653 627.755 446.059 595.819 446.060 595.816 C 446.059 595.817 434.653 606.429 434.652 606.431 C 434.651 606.429 423.246 595.817 423.244 595.816 C 423.246 595.819 434.651 627.755 434.652 627.758 Z"/>
</g>
</g>
</svg>
