<?xml version="1.0" encoding="utf-8"?>
<!-- Generator: Moho 12.5 build 22414 -->
<!DOCTYPE svg PUBLIC "-//W3C//DTD SVG 1.1//EN" "http://www.w3.org/Graphics/SVG/1.1/DTD/svg11.dtd">
<svg version="1.1" id="Frame_0" xmlns="http://www.w3.org/2000/svg" xmlns:xlink="http://www.w3.org/1999/xlink" width="720px" height="720px">
<g id="house">
<g id="house_3">
<path fill="#000000" fill-rule="evenodd" stroke="#ffffff" stroke-width="4" stroke-linejoin="round" d="M 307.155 58.728 C 307.168 58.750 392.968 207.905 435.875 282.494 C 435.875 282.527 435.875 608.554 435.875 608.586 C 412.454 600.235 365.618 583.535 365.611 583.532 C 365.598 583.527 236.735 537.579 236.722 537.574 C 236.716 537.572 178.440 516.793 178.434 516.791 C 178.434 516.758 178.434 190.731 178.434 190.698 C 178.447 190.685 307.142 58.741 307.155 58.728 Z"/>
<path fill="none" stroke="#ffffff" stroke-width="1" stroke-linecap="butt" stroke-linejoin="round" d="M 435.875 282.494 C 435.875 282.527 435.875 608.554 435.875 608.586 "/>
<path fill="#ffffff" fill-rule="evenodd" stroke="#000000" stroke-width="4" stroke-linejoin="round" d="M 435.875 282.494 C 435.875 282.527 435.875 608.554 435.875 608.586 C 435.901 608.578 693.290 522.523 693.316 522.514 C 693.316 522.484 693.316 226.096 693.316 226.067 C 693.290 226.072 435.901 282.489 435.875 282.494 Z"/>
<path fill="none" stroke="#ffffff" stroke-width="1" stroke-linecap="butt" stroke-linejoin="round" d="M 693.316 226.067 C 693.290 226.072 435.901 282.489 435.875 282.494 "/>
<path fill="none" stroke="#ffffff" stroke-width="1" stroke-linecap="butt" stroke-linejoin="round" d="M 435.875 282.494 C 392.968 207.905 307.168 58.750 307.155 58.728 "/>
<path fill="#ffffff" fill-rule="evenodd" stroke="#000000" stroke-width="4" stroke-linejoin="round" d="M 564.595 31.945 C 564.608 31.964 650.409 161.360 693.316 226.067 C 693.290 226.072 435.901 282.489 435.875 282.494 C 392.968 207.905 307.168 58.750 307.155 58.728 C 392.968 49.800 564.570 31.948 564.595 31.945 Z"/>
<path fill="none" stroke="#ffffff" stroke-width="1" stroke-linecap="butt" stroke-linejoin="round" d="M 365.611 583.532 C 365.598 583.527 236.735 537.579 236.722 537.574 "/>
<path fill="#ffffff" fill-rule="evenodd" stroke="none" d="M 365.498 291.108 C 365.498 291.138 365.573 486.058 365.611 583.532 C 365.598 583.527 236.735 537.579 236.722 537.574 C 236.740 440.120 236.778 245.240 236.778 245.211 C 236.790 245.215 365.486 291.104 365.498 291.108 Z"/>
<path fill="#000000" fill-rule="evenodd" stroke="#ffffff" stroke-width="4" stroke-linejoin="round" d="M 638.519 445.989 C 638.513 445.991 574.885 467.275 574.879 467.277 C 574.872 467.279 511.244 488.564 511.238 488.566 C 511.238 488.558 511.238 415.290 511.238 415.282 C 511.238 415.275 511.238 342.006 511.238 341.999 C 511.245 341.997 574.872 325.608 574.879 325.607 C 574.885 325.605 638.513 309.216 638.519 309.214 C 638.519 309.221 638.519 377.590 638.519 377.597 C 638.519 377.604 638.519 445.982 638.519 445.989 Z"/>
<path fill="none" stroke="#ffffff" stroke-width="4" stroke-linejoin="round" d="M 574.879 325.607 C 574.879 372.830 574.879 420.054 574.879 467.277 M 511.238 415.282 C 553.665 402.721 596.092 390.159 638.519 377.597 "/>
</g>
<g id="specs_2">
<path fill="#ff00ff" fill-rule="evenodd" stroke="none" d="M 202.981 579.099 C 202.997 579.099 365.217 579.099 365.233 579.099 C 365.233 579.070 365.233 291.595 365.233 291.567 C 365.217 291.567 202.997 291.567 202.981 291.567 C 202.981 291.595 202.981 579.070 202.981 579.099 Z"/>
<path fill="#ff0000" fill-rule="evenodd" stroke="none" d="M 434.652 668.039 C 434.653 668.042 446.059 699.978 446.060 699.981 C 446.059 699.980 434.653 689.368 434.652 689.367 C 434.651 689.368 423.246 699.980 423.244 699.981 C 423.246 699.978 434.651 668.042 434.652 668.039 Z"/>
<path fill="#0000ff" fill-rule="evenodd" stroke="none" d="M 434.652 32.248 C 434.653 32.250 441.278 50.801 441.279 50.803 C 441.278 50.802 434.653 44.638 434.652 44.638 C 434.651 44.638 428.026 50.802 428.026 50.803 C 428.026 50.801 434.651 32.250 434.652 32.248 Z"/>
<path fill="#00ff00" fill-rule="evenodd" stroke="none" d="M 164.214 312.917 C 164.216 312.916 180.193 307.119 180.195 307.118 C 180.194 307.119 174.905 312.863 174.904 312.863 C 174.905 312.864 180.252 318.553 180.252 318.553 C 180.251 318.553 164.216 312.918 164.214 312.917 Z"/>
<path fill="#ffff00" fill-rule="evenodd" stroke="none" d="M 262.483 555.098 C 262.483 555.096 269.069 540.757 269.070 540.755 C 269.070 540.756 269.417 547.997 269.417 547.998 C 269.417 547.998 276.664 548.173 276.665 548.173 C 276.663 548.174 262.484 555.097 262.483 555.098 Z"/>
<path fill="#ffff00" fill-rule="evenodd" stroke="none" d="M 618.659 554.922 C 618.658 554.921 611.786 540.716 611.785 540.715 C 611.785 540.716 611.584 547.962 611.584 547.963 C 611.583 547.963 604.341 548.284 604.340 548.284 C 604.342 548.284 618.657 554.921 618.659 554.922 Z"/>
<path fill="#00ff00" fill-rule="evenodd" stroke="none" d="M 705.090 312.917 C 705.088 312.916 689.111 307.119 689.109 307.118 C 689.110 307.119 694.399 312.863 694.400 312.863 C 694.399 312.864 689.052 318.553 689.052 318.553 C 689.053 318.553 705.088 312.918 705.090 312.917 Z"/>
<path fill="#00ffff" fill-rule="evenodd" stroke="none" d="M 618.706 98.570 C 618.705 98.572 613.204 114.106 613.203 114.108 C 613.203 114.107 612.161 106.608 612.161 106.607 C 612.160 106.607 604.606 107.106 604.605 107.106 C 604.607 107.105 618.704 98.571 618.706 98.570 Z"/>
<path fill="#00ffff" fill-rule="evenodd" stroke="none" d="M 248.255 99.085 C 248.256 99.087 254.780 114.219 254.781 114.221 C 254.781 114.220 255.321 106.669 255.321 106.668 C 255.322 106.668 262.892 106.662 262.893 106.662 C 262.891 106.661 248.257 99.086 248.255 99.085 Z"/>
<path fill="#be0027" fill-rule="evenodd" stroke="none" d="M 434.652 627.758 C 434.653 627.755 446.059 595.819 446.060 595.816 C 446.059 595.817 434.653 606.429 434.652 606.431 C 434.651 606.429 423.246 595.817 423.244 595.816 C 423.246 595.819 434.651 627.755 434.652 627.758 Z"/>
</g>
</g>
</svg>
