<?xml version="1.0" encoding="utf-8"?>
<!-- Generator: Moho 12.5 build 22414 -->
<!DOCTYPE svg PUBLIC "-//W3C//DTD SVG 1.1//EN" "http://www.w3.org/Graphics/SVG/1.1/DTD/svg11.dtd">
<svg version="1.1" id="Frame_0" xmlns="http://www.w3.org/2000/svg" xmlns:xlink="http://www.w3.org/1999/xlink" width="720px" height="720px">
<g id="halves">
</g>
<g id="impossible_triangle">
<g id="impossible_triangle">
<path fill="#ffffff" fill-rule="evenodd" stroke="#000000" stroke-width="4" stroke-linejoin="round" d="M 27.995 515.394 C 28.042 515.394 344.198 515.394 502.299 515.393 C 486.638 488.070 455.321 433.431 455.316 433.422 C 392.185 433.423 265.940 433.423 265.921 433.423 C 265.912 433.423 202.243 433.422 170.403 433.422 C 249.467 296.805 328.530 160.188 407.593 23.571 C 375.983 23.571 312.774 23.571 312.764 23.571 C 312.736 23.620 28.023 515.345 27.995 515.394 Z"/>
<path fill="none" stroke="#ffffff" stroke-width="1" stroke-linecap="butt" stroke-linejoin="round" d="M 170.403 433.422 C 202.243 433.422 265.912 433.423 265.921 433.423 "/>
<path fill="none" stroke="#ffffff" stroke-width="1" stroke-linecap="butt" stroke-linejoin="round" d="M 407.593 23.571 C 328.530 160.188 249.467 296.805 170.403 433.422 "/>
<path fill="#ffffff" fill-rule="evenodd" stroke="#000000" stroke-width="4" stroke-linejoin="round" d="M 170.403 433.422 C 202.243 433.422 265.912 433.423 265.921 433.423 C 297.330 378.776 360.138 269.499 360.147 269.482 C 360.152 269.474 391.685 214.835 407.453 187.512 C 486.494 324.129 644.553 597.322 644.577 597.363 C 660.386 570.040 676.196 542.717 692.005 515.394 C 597.201 351.453 502.397 187.512 407.593 23.571 C 328.530 160.188 249.467 296.805 170.403 433.422 Z"/>
<path fill="none" stroke="#ffffff" stroke-width="1" stroke-linecap="butt" stroke-linejoin="round" d="M 455.316 433.422 C 455.321 433.431 486.638 488.070 502.299 515.393 "/>
<path fill="none" stroke="#ffffff" stroke-width="1" stroke-linecap="butt" stroke-linejoin="round" d="M 502.299 515.393 C 344.198 515.394 28.042 515.394 27.995 515.394 "/>
<path fill="none" stroke="#ffffff" stroke-width="1" stroke-linecap="butt" stroke-linejoin="round" d="M 644.577 597.363 C 644.553 597.322 486.494 324.129 407.453 187.512 "/>
<path fill="none" stroke="#ffffff" stroke-width="1" stroke-linecap="butt" stroke-linejoin="round" d="M 407.453 187.512 C 391.685 214.835 360.152 269.474 360.147 269.482 "/>
<path fill="#ffffff" fill-rule="evenodd" stroke="#000000" stroke-width="4" stroke-linejoin="round" d="M 455.316 433.422 C 455.321 433.431 486.638 488.070 502.299 515.393 C 344.198 515.394 28.042 515.394 27.995 515.394 C 44.006 542.717 76.023 597.355 76.028 597.363 C 76.085 597.363 644.520 597.363 644.577 597.363 C 644.553 597.322 486.494 324.129 407.453 187.512 C 391.685 214.835 360.152 269.474 360.147 269.482 C 391.870 324.129 455.307 433.406 455.316 433.422 Z"/>
</g>
<g id="specs_2">
<path fill="#ff00ff" fill-rule="evenodd" stroke="none" d="M 299.779 420.221 C 299.791 420.221 420.209 420.221 420.221 420.221 C 420.221 420.209 420.221 299.791 420.221 299.779 C 420.209 299.779 299.791 299.779 299.779 299.779 C 299.779 299.791 299.779 420.209 299.779 420.221 Z"/>
<path fill="#ff0000" fill-rule="evenodd" stroke="none" d="M 360.000 662.708 C 360.001 662.711 372.432 697.517 372.433 697.521 C 372.432 697.520 360.001 685.954 360.000 685.952 C 359.999 685.954 347.568 697.520 347.567 697.521 C 347.568 697.517 359.999 662.711 360.000 662.708 Z"/>
<path fill="#0000ff" fill-rule="evenodd" stroke="none" d="M 360.000 17.772 C 360.001 17.774 367.221 37.992 367.222 37.994 C 367.221 37.993 360.001 31.275 360.000 31.274 C 359.999 31.275 352.779 37.993 352.778 37.994 C 352.779 37.992 359.999 17.774 360.000 17.772 Z"/>
<path fill="#00ff00" fill-rule="evenodd" stroke="none" d="M 18.920 361.005 C 18.922 361.004 39.104 353.681 39.106 353.680 C 39.105 353.681 32.423 360.936 32.423 360.936 C 32.423 360.937 39.178 368.124 39.179 368.125 C 39.177 368.124 18.922 361.005 18.920 361.005 Z"/>
<path fill="#ffff00" fill-rule="evenodd" stroke="none" d="M 118.365 603.501 C 118.366 603.499 127.326 583.990 127.327 583.988 C 127.327 583.989 127.799 593.841 127.799 593.842 C 127.800 593.842 137.660 594.081 137.661 594.081 C 137.659 594.082 118.367 603.500 118.365 603.501 Z"/>
<path fill="#ffff00" fill-rule="evenodd" stroke="none" d="M 602.961 603.262 C 602.960 603.260 593.610 583.935 593.609 583.933 C 593.609 583.934 593.334 593.793 593.334 593.794 C 593.333 593.794 583.480 594.231 583.479 594.231 C 583.481 594.232 602.959 603.261 602.961 603.262 Z"/>
<path fill="#00ff00" fill-rule="evenodd" stroke="none" d="M 702.126 361.005 C 702.124 361.004 681.942 353.681 681.940 353.680 C 681.941 353.681 688.623 360.936 688.623 360.936 C 688.623 360.937 681.868 368.124 681.867 368.125 C 681.869 368.124 702.124 361.005 702.126 361.005 Z"/>
<path fill="#00ffff" fill-rule="evenodd" stroke="none" d="M 601.361 117.716 C 601.361 117.718 594.193 137.955 594.193 137.957 C 594.193 137.956 592.835 128.187 592.835 128.186 C 592.834 128.186 582.993 128.836 582.992 128.836 C 582.994 128.835 601.359 117.717 601.361 117.716 Z"/>
<path fill="#00ffff" fill-rule="evenodd" stroke="none" d="M 118.750 118.386 C 118.751 118.388 127.252 138.103 127.253 138.105 C 127.253 138.104 127.956 128.266 127.956 128.265 C 127.957 128.265 137.819 128.257 137.820 128.257 C 137.818 128.256 118.752 118.387 118.750 118.386 Z"/>
<path fill="#be0027" fill-rule="evenodd" stroke="none" d="M 360.000 618.808 C 360.001 618.804 372.432 583.998 372.433 583.995 C 372.432 583.996 360.001 595.562 360.000 595.563 C 359.999 595.562 347.568 583.996 347.567 583.995 C 347.568 583.998 359.999 618.804 360.000 618.808 Z"/>
</g>
</g>
</svg>
