<?xml version="1.0" encoding="utf-8"?>
<!-- Generator: Moho 12.5 build 22414 -->
<!DOCTYPE svg PUBLIC "-//W3C//DTD SVG 1.1//EN" "http://www.w3.org/Graphics/SVG/1.1/DTD/svg11.dtd">
<svg version="1.1" id="Frame_0" xmlns="http://www.w3.org/2000/svg" xmlns:xlink="http://www.w3.org/1999/xlink" width="720px" height="720px">
<g id="impossible_triangle_shaded">
<g id="impossible_triangle">
<path fill="#ffffff" fill-rule="evenodd" stroke="#000000" stroke-width="4" stroke-linejoin="round" d="M 27.995 515.394 C 28.042 515.394 344.198 515.394 502.299 515.393 C 486.638 488.070 455.321 433.430 455.316 433.422 C 392.185 433.422 265.940 433.423 265.921 433.423 C 265.912 433.423 202.243 433.422 170.403 433.422 C 249.467 296.805 328.530 160.188 407.593 23.571 C 375.983 23.571 312.774 23.571 312.764 23.571 C 312.736 23.620 28.023 515.345 27.995 515.394 Z"/>
<path fill="none" stroke="#ffffff" stroke-width="1" stroke-linecap="butt" stroke-linejoin="round" d="M 170.403 433.422 C 202.243 433.422 265.912 433.423 265.921 433.423 "/>
<path fill="none" stroke="#ffffff" stroke-width="1" stroke-linecap="butt" stroke-linejoin="round" d="M 407.593 23.571 C 328.530 160.188 249.467 296.805 170.403 433.422 "/>
<path fill="#ffffff" fill-rule="evenodd" stroke="#000000" stroke-width="4" stroke-linejoin="round" d="M 170.403 433.422 C 202.243 433.422 265.912 433.423 265.921 433.423 C 297.330 378.776 360.138 269.498 360.147 269.482 C 360.152 269.474 391.685 214.835 407.453 187.511 C 486.494 324.129 644.553 597.322 644.577 597.363 C 660.386 570.040 676.196 542.717 692.005 515.394 C 597.201 351.453 502.397 187.512 407.593 23.571 C 328.530 160.188 249.467 296.805 170.403 433.422 Z"/>
<path fill="none" stroke="#000000" stroke-width="1" stroke-linecap="butt" stroke-linejoin="round" d="M 455.316 433.422 C 455.321 433.430 486.638 488.070 502.299 515.393 "/>
<path fill="none" stroke="#000000" stroke-width="1" stroke-linecap="butt" stroke-linejoin="round" d="M 502.299 515.393 C 344.198 515.394 28.042 515.394 27.995 515.394 "/>
<path fill="none" stroke="#000000" stroke-width="1" stroke-linecap="butt" stroke-linejoin="round" d="M 644.577 597.363 C 644.553 597.322 486.494 324.129 407.453 187.511 "/>
<path fill="none" stroke="#000000" stroke-width="1" stroke-linecap="butt" stroke-linejoin="round" d="M 407.453 187.511 C 391.685 214.835 360.152 269.474 360.147 269.482 "/>
<path fill="#000000" fill-rule="evenodd" stroke="#000000" stroke-width="4" stroke-linejoin="round" d="M 455.316 433.422 C 455.321 433.430 486.638 488.070 502.299 515.393 C 344.198 515.394 28.042 515.394 27.995 515.394 C 44.006 542.717 76.023 597.355 76.028 597.364 C 76.085 597.364 644.520 597.363 644.577 597.363 C 644.553 597.322 486.494 324.129 407.453 187.511 C 391.685 214.835 360.152 269.474 360.147 269.482 C 391.870 324.129 455.307 433.406 455.316 433.422 Z"/>
</g>
<g id="specs_2">
<path fill="#ff00ff" fill-rule="evenodd" stroke="none" d="M 299.778 420.222 C 299.790 420.222 420.210 420.222 420.222 420.222 C 420.222 420.210 420.222 299.790 420.222 299.778 C 420.210 299.778 299.790 299.778 299.778 299.778 C 299.778 299.790 299.778 420.210 299.778 420.222 Z"/>
<path fill="#ff0000" fill-rule="evenodd" stroke="none" d="M 360.000 662.708 C 360.001 662.711 372.432 697.517 372.433 697.521 C 372.432 697.520 360.001 685.954 360.000 685.952 C 359.999 685.954 347.568 697.520 347.567 697.521 C 347.568 697.517 359.999 662.711 360.000 662.708 Z"/>
<path fill="#0000ff" fill-rule="evenodd" stroke="none" d="M 360.000 11.801 C 360.001 11.803 367.221 32.022 367.222 32.024 C 367.221 32.023 360.001 25.305 360.000 25.304 C 359.999 25.305 352.779 32.023 352.778 32.024 C 352.779 32.022 359.999 11.803 360.000 11.801 Z"/>
<path fill="#ffff00" fill-rule="evenodd" stroke="none" d="M 42.922 561.815 C 42.923 561.813 56.854 545.244 56.855 545.243 C 56.855 545.244 54.678 554.947 54.678 554.948 C 54.679 554.948 64.200 557.818 64.201 557.819 C 64.198 557.819 42.924 561.814 42.922 561.815 Z"/>
<path fill="#00ff00" fill-rule="evenodd" stroke="none" d="M 561.828 263.707 C 561.826 263.708 540.687 267.457 540.685 267.457 C 540.686 267.457 550.100 270.399 550.101 270.400 C 550.100 270.401 547.844 280.002 547.844 280.003 C 547.845 280.001 561.827 263.709 561.828 263.707 Z"/>
<path fill="#be0027" fill-rule="evenodd" stroke="none" d="M 360.000 618.808 C 360.001 618.804 372.432 583.998 372.433 583.995 C 372.432 583.996 360.001 595.562 360.000 595.563 C 359.999 595.562 347.568 583.996 347.567 583.995 C 347.568 583.998 359.999 618.804 360.000 618.808 Z"/>
<path fill="#00ff00" fill-rule="evenodd" stroke="none" d="M 158.594 263.708 C 158.596 263.708 179.735 267.457 179.737 267.457 C 179.736 267.457 170.323 270.399 170.322 270.400 C 170.322 270.401 172.578 280.002 172.578 280.003 C 172.577 280.001 158.596 263.709 158.594 263.708 Z"/>
<path fill="#ffff00" fill-rule="evenodd" stroke="none" d="M 679.538 561.815 C 679.537 561.813 665.606 545.244 665.605 545.243 C 665.605 545.244 667.782 554.947 667.782 554.948 C 667.781 554.948 658.260 557.818 658.259 557.819 C 658.261 557.819 679.536 561.814 679.538 561.815 Z"/>
</g>
</g>
</svg>
