<?xml version="1.0" encoding="utf-8"?>
<!-- Generator: Moho 12.5 build 22414 -->
<!DOCTYPE svg PUBLIC "-//W3C//DTD SVG 1.1//EN" "http://www.w3.org/Graphics/SVG/1.1/DTD/svg11.dtd">
<svg version="1.1" id="Frame_0" xmlns="http://www.w3.org/2000/svg" xmlns:xlink="http://www.w3.org/1999/xlink" width="720px" height="720px">
<g id="impossible_triangle_shaded">
<g id="impossible_triangle">
<path fill="#000000" fill-rule="evenodd" stroke="#ffffff" stroke-width="4" stroke-linejoin="round" d="M 549.597 433.422 C 517.757 433.422 454.088 433.423 454.079 433.423 C 422.670 378.776 359.862 269.498 359.853 269.482 C 359.848 269.474 328.316 214.835 312.547 187.511 C 233.506 324.129 75.447 597.322 75.423 597.363 C 59.614 570.040 43.804 542.717 27.995 515.394 C 122.799 351.453 217.603 187.512 312.407 23.571 C 391.470 160.188 470.534 296.805 549.597 433.422 Z"/>
<path fill="none" stroke="#ffffff" stroke-width="1" stroke-linecap="butt" stroke-linejoin="round" d="M 454.079 433.423 C 454.088 433.423 517.757 433.422 549.597 433.422 "/>
<path fill="none" stroke="#ffffff" stroke-width="1" stroke-linecap="butt" stroke-linejoin="round" d="M 549.597 433.422 C 470.534 296.805 391.470 160.188 312.407 23.571 "/>
<path fill="#ffffff" fill-rule="evenodd" stroke="#000000" stroke-width="4" stroke-linejoin="round" d="M 692.005 515.394 C 691.958 515.394 375.802 515.394 217.701 515.393 C 233.362 488.070 264.679 433.430 264.684 433.422 C 327.815 433.422 454.060 433.423 454.079 433.423 C 454.088 433.423 517.757 433.422 549.597 433.422 C 470.534 296.805 391.470 160.188 312.407 23.571 C 344.017 23.571 407.226 23.571 407.236 23.571 C 407.264 23.620 691.977 515.345 692.005 515.394 Z"/>
<path fill="none" stroke="#ffffff" stroke-width="1" stroke-linecap="butt" stroke-linejoin="round" d="M 264.684 433.422 C 264.679 433.430 233.362 488.070 217.701 515.393 "/>
<path fill="none" stroke="#ffffff" stroke-width="1" stroke-linecap="butt" stroke-linejoin="round" d="M 217.701 515.393 C 375.802 515.394 691.958 515.394 692.005 515.394 "/>
<path fill="none" stroke="#ffffff" stroke-width="1" stroke-linecap="butt" stroke-linejoin="round" d="M 75.423 597.363 C 75.447 597.322 233.506 324.129 312.547 187.511 "/>
<path fill="none" stroke="#ffffff" stroke-width="1" stroke-linecap="butt" stroke-linejoin="round" d="M 312.547 187.511 C 328.316 214.835 359.848 269.474 359.853 269.482 "/>
<path fill="#ffffff" fill-rule="evenodd" stroke="#000000" stroke-width="4" stroke-linejoin="round" d="M 264.684 433.422 C 264.679 433.430 233.362 488.070 217.701 515.393 C 375.802 515.394 691.958 515.394 692.005 515.394 C 675.994 542.717 643.977 597.355 643.972 597.364 C 643.915 597.364 75.480 597.363 75.423 597.363 C 75.447 597.322 233.506 324.129 312.547 187.511 C 328.316 214.835 359.848 269.474 359.853 269.482 C 328.130 324.129 264.693 433.406 264.684 433.422 Z"/>
</g>
<g id="specs_2">
<path fill="#ff00ff" fill-rule="evenodd" stroke="none" d="M 496.232 496.232 C 496.205 496.232 223.795 496.232 223.768 496.232 C 223.768 496.205 223.768 223.795 223.768 223.768 C 223.795 223.768 496.205 223.768 496.232 223.768 C 496.232 223.795 496.232 496.205 496.232 496.232 Z"/>
<path fill="#ff0000" fill-rule="evenodd" stroke="none" d="M 360.000 662.708 C 359.999 662.711 347.568 697.517 347.567 697.521 C 347.568 697.520 359.999 685.954 360.000 685.952 C 360.001 685.954 372.432 697.520 372.433 697.521 C 372.432 697.517 360.001 662.711 360.000 662.708 Z"/>
<path fill="#0000ff" fill-rule="evenodd" stroke="none" d="M 360.000 11.801 C 359.999 11.803 352.779 32.022 352.778 32.024 C 352.779 32.023 359.999 25.305 360.000 25.304 C 360.001 25.305 367.221 32.023 367.222 32.024 C 367.221 32.022 360.001 11.803 360.000 11.801 Z"/>
<path fill="#ffff00" fill-rule="evenodd" stroke="none" d="M 677.078 561.815 C 677.077 561.813 663.146 545.244 663.145 545.243 C 663.145 545.244 665.322 554.947 665.323 554.948 C 665.322 554.948 655.800 557.819 655.799 557.819 C 655.802 557.819 677.076 561.814 677.078 561.815 Z"/>
<path fill="#00ff00" fill-rule="evenodd" stroke="none" d="M 158.172 263.708 C 158.174 263.708 179.313 267.457 179.315 267.457 C 179.314 267.457 169.900 270.399 169.900 270.400 C 169.900 270.401 172.156 280.002 172.156 280.003 C 172.155 280.001 158.173 263.709 158.172 263.708 Z"/>
<path fill="#be0027" fill-rule="evenodd" stroke="none" d="M 360.000 618.808 C 359.999 618.804 347.568 583.998 347.567 583.995 C 347.568 583.996 359.999 595.562 360.000 595.563 C 360.001 595.562 372.432 583.996 372.433 583.995 C 372.432 583.998 360.001 618.804 360.000 618.808 Z"/>
<path fill="#00ff00" fill-rule="evenodd" stroke="none" d="M 561.406 263.708 C 561.404 263.708 540.265 267.457 540.263 267.457 C 540.264 267.457 549.677 270.399 549.678 270.400 C 549.678 270.401 547.422 280.002 547.422 280.003 C 547.423 280.001 561.405 263.709 561.406 263.708 Z"/>
<path fill="#ffff00" fill-rule="evenodd" stroke="none" d="M 40.462 561.815 C 40.464 561.813 54.394 545.244 54.395 545.243 C 54.395 545.244 52.218 554.947 52.218 554.948 C 52.219 554.948 61.740 557.819 61.741 557.819 C 61.739 557.819 40.464 561.814 40.462 561.815 Z"/>
</g>
</g>
</svg>
