<?xml version="1.0" encoding="utf-8"?>
<!-- Generator: Moho 12.5 build 22414 -->
<!DOCTYPE svg PUBLIC "-//W3C//DTD SVG 1.1//EN" "http://www.w3.org/Graphics/SVG/1.1/DTD/svg11.dtd">
<svg version="1.1" id="Frame_0" xmlns="http://www.w3.org/2000/svg" xmlns:xlink="http://www.w3.org/1999/xlink" width="720px" height="720px">
<g id="infinity">
<g id="infinity">
<path fill="#ffffff" fill-rule="evenodd" stroke="#000000" stroke-width="4" stroke-linejoin="round" d="M 550.966 437.261 C 488.765 429.238 401.658 359.640 401.643 359.632 C 403.289 358.599 510.985 281.541 558.741 282.739 C 586.994 283.448 635.935 310.453 636.488 357.571 C 637.186 416.974 581.208 441.162 550.966 437.261 M 569.431 486.825 C 497.012 487.774 427.117 441.006 360.031 390.953 C 294.176 440.136 223.658 487.783 150.569 486.825 C 77.519 485.867 32.742 407.261 32.976 362.429 C 33.271 305.989 78.050 230.560 161.259 233.175 C 227.550 235.259 296.906 281.948 360.151 328.636 C 424.364 281.096 493.057 235.240 558.741 233.175 C 641.950 230.560 686.729 305.989 687.024 362.429 C 687.258 407.261 642.481 485.867 569.431 486.825 M 169.034 437.261 C 210.666 431.090 262.229 401.148 318.302 359.592 C 262.329 317.688 209.474 281.529 161.259 282.739 C 133.006 283.448 84.065 310.453 83.512 357.571 C 82.814 416.974 142.924 441.131 169.034 437.261 Z"/>
<path fill="none" stroke="#000000" stroke-width="4" stroke-linejoin="round" d="M 360.031 390.953 C 374.472 380.168 401.153 359.940 401.643 359.632 M 318.302 359.592 C 331.939 349.466 345.861 338.971 360.151 328.636 "/>
</g>
<g id="specs_2">
<path fill="#ff00ff" fill-rule="evenodd" stroke="none" d="M 110.501 419.524 C 110.512 419.524 229.537 419.524 229.549 419.524 C 229.549 419.512 229.549 300.488 229.549 300.476 C 229.537 300.476 110.512 300.476 110.501 300.476 C 110.501 300.488 110.501 419.512 110.501 419.524 Z"/>
<path fill="#ff0000" fill-rule="evenodd" stroke="none" d="M 360.000 494.444 C 360.001 494.448 372.432 529.253 372.433 529.257 C 372.432 529.256 360.001 517.690 360.000 517.689 C 359.999 517.690 347.568 529.256 347.567 529.257 C 347.568 529.253 359.999 494.448 360.000 494.444 Z"/>
<path fill="#0000ff" fill-rule="evenodd" stroke="none" d="M 360.000 224.806 C 360.001 224.808 367.221 245.026 367.222 245.028 C 367.221 245.027 360.001 238.309 360.000 238.309 C 359.999 238.309 352.779 245.027 352.778 245.028 C 352.779 245.026 359.999 224.808 360.000 224.806 Z"/>
<path fill="#00ff00" fill-rule="evenodd" stroke="none" d="M 18.920 361.005 C 18.922 361.004 39.104 353.681 39.106 353.680 C 39.105 353.681 32.423 360.936 32.423 360.936 C 32.423 360.937 39.178 368.124 39.179 368.125 C 39.177 368.124 18.922 361.005 18.920 361.005 Z"/>
<path fill="#ffff00" fill-rule="evenodd" stroke="none" d="M 118.365 491.067 C 118.366 491.065 127.326 471.556 127.327 471.554 C 127.327 471.555 127.799 481.406 127.799 481.407 C 127.800 481.407 137.660 481.646 137.661 481.646 C 137.659 481.647 118.367 491.066 118.365 491.067 Z"/>
<path fill="#ffff00" fill-rule="evenodd" stroke="none" d="M 602.961 490.828 C 602.960 490.826 593.610 471.500 593.609 471.498 C 593.609 471.499 593.334 481.358 593.334 481.359 C 593.333 481.359 583.480 481.796 583.479 481.796 C 583.481 481.797 602.959 490.827 602.961 490.828 Z"/>
<path fill="#00ff00" fill-rule="evenodd" stroke="none" d="M 702.126 361.005 C 702.124 361.004 681.942 353.681 681.940 353.680 C 681.941 353.681 688.623 360.936 688.623 360.936 C 688.623 360.937 681.868 368.124 681.867 368.125 C 681.869 368.124 702.124 361.005 702.126 361.005 Z"/>
<path fill="#00ffff" fill-rule="evenodd" stroke="none" d="M 601.361 227.048 C 601.361 227.050 594.193 247.288 594.193 247.290 C 594.193 247.289 592.835 237.520 592.835 237.519 C 592.834 237.519 582.993 238.168 582.992 238.168 C 582.994 238.167 601.359 227.049 601.361 227.048 Z"/>
<path fill="#00ffff" fill-rule="evenodd" stroke="none" d="M 118.750 227.719 C 118.751 227.721 127.252 247.435 127.253 247.437 C 127.253 247.436 127.956 237.598 127.956 237.598 C 127.957 237.598 137.819 237.590 137.820 237.590 C 137.818 237.589 118.752 227.720 118.750 227.719 Z"/>
<path fill="#ff00ff" fill-rule="evenodd" stroke="none" d="M 488.900 419.524 C 488.912 419.524 607.937 419.524 607.949 419.524 C 607.949 419.512 607.949 300.488 607.949 300.476 C 607.937 300.476 488.912 300.476 488.900 300.476 C 488.900 300.488 488.900 419.512 488.900 419.524 Z"/>
<path fill="#be0027" fill-rule="evenodd" stroke="none" d="M 360.000 410.948 C 360.001 410.945 372.432 376.139 372.433 376.135 C 372.432 376.137 360.001 387.703 360.000 387.704 C 359.999 387.703 347.568 376.137 347.567 376.135 C 347.568 376.139 359.999 410.945 360.000 410.948 Z"/>
</g>
</g>
</svg>
