<?xml version="1.0" encoding="utf-8"?>
<!-- Generator: Moho 12.5 build 22414 -->
<!DOCTYPE svg PUBLIC "-//W3C//DTD SVG 1.1//EN" "http://www.w3.org/Graphics/SVG/1.1/DTD/svg11.dtd">
<svg version="1.1" id="Frame_0" xmlns="http://www.w3.org/2000/svg" xmlns:xlink="http://www.w3.org/1999/xlink" width="720px" height="720px">
<g id="key">
<g id="key">
<path fill="#ffffff" fill-rule="evenodd" stroke="#000000" stroke-width="4" stroke-linecap="round" stroke-linejoin="round" d="M 446.745 670.747 C 432.288 670.734 403.377 670.708 403.373 670.708 C 403.373 670.704 403.373 641.793 403.373 627.336 C 396.144 627.336 388.915 627.336 381.686 627.336 C 381.686 641.793 381.686 670.704 381.686 670.708 C 381.684 670.710 381.686 692.395 360.000 692.395 C 338.314 692.395 338.316 670.710 338.314 670.708 C 338.314 670.667 338.314 255.095 338.314 255.095 C 333.363 256.256 318.540 259.851 307.939 259.724 C 264.718 259.206 229.846 224.855 229.846 181.631 C 229.846 138.407 264.715 103.538 307.939 103.539 C 327.821 103.539 345.936 110.917 360.028 123.332 C 374.064 110.917 392.179 103.539 412.061 103.539 C 455.285 103.538 490.154 138.407 490.154 181.631 C 490.154 224.855 455.281 259.154 412.061 259.724 C 401.495 259.863 391.332 258.226 381.689 254.935 C 381.688 357.006 381.687 459.830 381.686 562.277 C 388.915 562.277 396.144 562.277 403.373 562.277 C 403.373 547.819 403.373 518.908 403.373 518.904 C 403.377 518.904 446.741 518.867 446.745 518.867 C 446.745 518.869 446.745 540.588 446.745 540.591 C 446.747 540.591 468.429 540.591 468.432 540.591 C 468.432 540.588 468.432 518.868 468.432 518.866 C 468.436 518.866 511.800 518.904 511.804 518.904 C 511.804 518.911 511.830 562.277 511.842 583.963 C 490.143 583.963 446.752 583.963 446.745 583.963 C 446.745 583.965 446.745 605.647 446.745 605.649 C 446.752 605.649 490.144 605.649 511.844 605.649 C 511.831 627.336 511.804 670.702 511.804 670.708 C 511.800 670.708 468.436 670.746 468.432 670.746 C 468.432 670.744 468.432 649.024 468.432 649.022 C 468.429 649.022 446.747 649.022 446.745 649.022 C 446.745 649.024 446.745 663.505 446.745 670.747 M 412.061 155.600 C 426.469 155.600 438.092 167.223 438.092 181.631 C 438.092 196.039 426.469 207.662 412.061 207.662 C 397.654 207.662 386.030 196.039 386.030 181.631 C 386.030 167.223 397.654 155.600 412.061 155.600 M 281.907 181.631 C 281.907 167.223 293.531 155.600 307.939 155.600 C 322.346 155.601 333.969 167.223 333.969 181.631 C 333.969 196.039 322.346 207.662 307.939 207.662 C 293.531 207.662 281.907 196.039 281.907 181.631 Z"/>
</g>
<g id="specs_2">
<path fill="#ff00ff" fill-rule="evenodd" stroke="none" d="M 274.207 491.091 C 274.224 491.091 445.776 491.091 445.794 491.091 C 445.794 491.073 445.794 319.521 445.794 319.504 C 445.776 319.504 274.224 319.504 274.207 319.504 C 274.207 319.521 274.207 491.073 274.207 491.091 Z"/>
<path fill="#ff0000" fill-rule="evenodd" stroke="none" d="M 360.000 41.313 C 360.001 41.310 370.751 11.209 370.752 11.206 C 370.751 11.207 360.001 21.210 360.000 21.211 C 359.999 21.210 349.249 11.207 349.248 11.206 C 349.249 11.209 359.999 41.310 360.000 41.313 Z"/>
<path fill="#0000ff" fill-rule="evenodd" stroke="none" d="M 360.000 109.334 C 360.001 109.335 366.245 126.820 366.246 126.822 C 366.245 126.822 360.001 121.012 360.000 121.011 C 359.999 121.012 353.755 126.822 353.754 126.822 C 353.755 126.820 359.999 109.335 360.000 109.334 Z"/>
<path fill="#00ff00" fill-rule="evenodd" stroke="none" d="M 64.578 406.165 C 64.580 406.164 82.033 399.831 82.034 399.830 C 82.034 399.831 76.255 406.105 76.255 406.106 C 76.255 406.107 82.097 412.321 82.097 412.322 C 82.096 412.321 64.580 406.166 64.578 406.165 Z"/>
<path fill="#ffff00" fill-rule="evenodd" stroke="none" d="M 150.458 615.878 C 150.459 615.876 158.208 599.004 158.209 599.003 C 158.209 599.004 158.617 607.523 158.617 607.524 C 158.617 607.524 167.144 607.731 167.145 607.731 C 167.143 607.732 150.460 615.877 150.458 615.878 Z"/>
<path fill="#ffff00" fill-rule="evenodd" stroke="none" d="M 569.542 615.671 C 569.541 615.670 561.455 598.956 561.455 598.955 C 561.455 598.956 561.218 607.482 561.218 607.483 C 561.217 607.483 552.695 607.861 552.695 607.861 C 552.696 607.861 569.540 615.671 569.542 615.671 Z"/>
<path fill="#00ff00" fill-rule="evenodd" stroke="none" d="M 655.422 406.165 C 655.420 406.164 637.967 399.831 637.966 399.830 C 637.966 399.831 643.745 406.105 643.745 406.106 C 643.745 406.107 637.903 412.321 637.903 412.322 C 637.904 412.321 655.420 406.166 655.422 406.165 Z"/>
<path fill="#00ffff" fill-rule="evenodd" stroke="none" d="M 568.732 195.767 C 568.732 195.768 562.533 213.270 562.533 213.271 C 562.533 213.271 561.359 204.822 561.359 204.821 C 561.358 204.821 552.847 205.383 552.846 205.383 C 552.848 205.382 568.731 195.767 568.732 195.767 Z"/>
<path fill="#00ffff" fill-rule="evenodd" stroke="none" d="M 151.364 196.347 C 151.365 196.348 158.717 213.398 158.717 213.399 C 158.717 213.398 159.325 204.891 159.325 204.890 C 159.326 204.890 167.855 204.883 167.856 204.883 C 167.854 204.882 151.366 196.347 151.364 196.347 Z"/>
<path fill="#be0027" fill-rule="evenodd" stroke="none" d="M 360.000 710.822 C 360.001 710.819 370.751 680.718 370.752 680.715 C 370.751 680.716 360.001 690.719 360.000 690.720 C 359.999 690.719 349.249 680.716 349.248 680.715 C 349.249 680.718 359.999 710.819 360.000 710.822 Z"/>
</g>
</g>
</svg>
