<?xml version="1.0" encoding="utf-8"?>
<!-- Generator: Moho 12.5 build 22414 -->
<!DOCTYPE svg PUBLIC "-//W3C//DTD SVG 1.1//EN" "http://www.w3.org/Graphics/SVG/1.1/DTD/svg11.dtd">
<svg version="1.1" id="Frame_0" xmlns="http://www.w3.org/2000/svg" xmlns:xlink="http://www.w3.org/1999/xlink" width="720px" height="720px">
<g id="key">
<g id="key">
<path fill="#ffffff" fill-rule="evenodd" stroke="#000000" stroke-width="4" stroke-linecap="round" stroke-linejoin="round" d="M 50.275 490.988 C 50.288 476.531 50.314 447.620 50.314 447.616 C 50.318 447.616 79.229 447.616 93.686 447.616 C 93.686 440.387 93.686 433.158 93.686 425.929 C 79.229 425.929 50.318 425.929 50.314 425.929 C 50.311 425.927 28.627 425.929 28.627 404.243 C 28.627 382.557 50.311 382.559 50.314 382.557 C 50.355 382.557 465.926 382.557 465.926 382.557 C 464.766 377.606 461.171 362.783 461.298 352.182 C 461.816 308.961 496.167 274.089 539.390 274.089 C 582.614 274.089 617.483 308.958 617.483 352.182 C 617.483 372.064 610.105 390.179 597.690 404.271 C 610.105 418.306 617.483 436.422 617.483 456.304 C 617.483 499.528 582.614 534.397 539.390 534.397 C 496.167 534.397 461.868 499.524 461.298 456.304 C 461.159 445.738 462.795 435.575 466.086 425.932 C 364.016 425.931 261.192 425.930 158.745 425.929 C 158.745 433.158 158.745 440.387 158.745 447.616 C 173.203 447.616 202.113 447.616 202.118 447.616 C 202.118 447.620 202.155 490.984 202.155 490.988 C 202.153 490.988 180.433 490.988 180.431 490.988 C 180.431 490.990 180.431 512.672 180.431 512.675 C 180.433 512.675 202.154 512.675 202.156 512.675 C 202.156 512.679 202.118 556.043 202.118 556.047 C 202.111 556.047 158.745 556.073 137.059 556.085 C 137.059 534.386 137.059 490.995 137.059 490.988 C 137.056 490.988 115.375 490.988 115.373 490.988 C 115.373 490.995 115.373 534.387 115.373 556.087 C 93.686 556.074 50.320 556.047 50.314 556.047 C 50.314 556.043 50.276 512.679 50.276 512.675 C 50.278 512.675 71.997 512.675 72.000 512.675 C 72.000 512.672 72.000 490.990 72.000 490.988 C 71.997 490.988 57.517 490.988 50.275 490.988 M 565.421 456.304 C 565.421 470.712 553.798 482.335 539.390 482.335 C 524.983 482.335 513.360 470.712 513.360 456.304 C 513.360 441.896 524.982 430.273 539.390 430.273 C 553.798 430.273 565.421 441.896 565.421 456.304 M 539.390 326.150 C 553.798 326.150 565.421 337.774 565.421 352.182 C 565.421 366.589 553.798 378.212 539.390 378.212 C 524.983 378.212 513.360 366.589 513.360 352.182 C 513.360 337.774 524.982 326.150 539.390 326.150 Z"/>
</g>
<g id="specs_2">
<path fill="#ff00ff" fill-rule="evenodd" stroke="none" d="M 229.931 318.449 C 229.931 318.467 229.931 490.019 229.931 490.036 C 229.948 490.036 401.501 490.036 401.518 490.036 C 401.518 490.019 401.518 318.467 401.518 318.449 C 401.501 318.449 229.948 318.449 229.931 318.449 Z"/>
<path fill="#ff0000" fill-rule="evenodd" stroke="none" d="M 679.709 404.243 C 679.712 404.244 709.812 414.994 709.815 414.995 C 709.814 414.994 699.812 404.244 699.811 404.243 C 699.812 404.242 709.814 393.492 709.815 393.491 C 709.812 393.492 679.712 404.242 679.709 404.243 Z"/>
<path fill="#0000ff" fill-rule="evenodd" stroke="none" d="M 611.688 404.243 C 611.686 404.244 594.201 410.488 594.200 410.489 C 594.200 410.488 600.010 404.244 600.011 404.243 C 600.010 404.242 594.200 397.998 594.200 397.997 C 594.201 397.998 611.686 404.242 611.688 404.243 Z"/>
<path fill="#00ff00" fill-rule="evenodd" stroke="none" d="M 314.857 108.821 C 314.857 108.823 321.191 126.276 321.191 126.278 C 321.191 126.277 314.916 120.498 314.916 120.498 C 314.915 120.498 308.700 126.340 308.700 126.340 C 308.700 126.339 314.856 108.823 314.857 108.821 Z"/>
<path fill="#ffff00" fill-rule="evenodd" stroke="none" d="M 105.144 194.701 C 105.145 194.702 122.017 202.451 122.019 202.452 C 122.018 202.452 113.498 202.860 113.497 202.860 C 113.497 202.860 113.291 211.387 113.291 211.388 C 113.290 211.386 105.145 194.703 105.144 194.701 Z"/>
<path fill="#ffff00" fill-rule="evenodd" stroke="none" d="M 105.350 613.785 C 105.352 613.784 122.065 605.698 122.067 605.697 C 122.066 605.697 113.540 605.461 113.539 605.461 C 113.539 605.460 113.161 596.938 113.161 596.937 C 113.160 596.939 105.351 613.783 105.350 613.785 Z"/>
<path fill="#00ff00" fill-rule="evenodd" stroke="none" d="M 314.857 699.665 C 314.857 699.663 321.191 682.210 321.191 682.208 C 321.191 682.209 314.916 687.988 314.916 687.988 C 314.915 687.988 308.700 682.146 308.700 682.146 C 308.700 682.147 314.856 699.663 314.857 699.665 Z"/>
<path fill="#00ffff" fill-rule="evenodd" stroke="none" d="M 525.255 612.975 C 525.253 612.975 507.752 606.776 507.750 606.776 C 507.751 606.776 516.199 605.602 516.200 605.602 C 516.200 605.601 515.638 597.090 515.638 597.089 C 515.639 597.091 525.254 612.974 525.255 612.975 Z"/>
<path fill="#00ffff" fill-rule="evenodd" stroke="none" d="M 524.675 195.607 C 524.673 195.608 507.624 202.960 507.622 202.960 C 507.623 202.960 516.131 203.568 516.132 203.568 C 516.132 203.569 516.139 212.098 516.139 212.099 C 516.139 212.097 524.674 195.609 524.675 195.607 Z"/>
<path fill="#be0027" fill-rule="evenodd" stroke="none" d="M 10.200 404.243 C 10.203 404.244 40.303 414.994 40.306 414.995 C 40.306 414.994 30.303 404.244 30.302 404.243 C 30.303 404.242 40.306 393.492 40.306 393.491 C 40.303 393.492 10.203 404.242 10.200 404.243 Z"/>
</g>
</g>
</svg>
