<?xml version="1.0" encoding="utf-8"?>
<!-- Generator: Moho 12.5 build 22414 -->
<!DOCTYPE svg PUBLIC "-//W3C//DTD SVG 1.1//EN" "http://www.w3.org/Graphics/SVG/1.1/DTD/svg11.dtd">
<svg version="1.1" id="Frame_0" xmlns="http://www.w3.org/2000/svg" xmlns:xlink="http://www.w3.org/1999/xlink" width="720px" height="720px">
<g id="knife">
<g id="knife">
<path fill="#ffffff" fill-rule="evenodd" stroke="#000000" stroke-width="4" stroke-linejoin="round" d="M 343.963 633.776 C 321.460 616.976 321.460 430.629 343.963 413.830 C 347.543 411.157 375.375 411.157 378.955 413.830 C 401.457 430.629 401.457 616.976 378.955 633.776 C 375.375 636.449 347.543 636.449 343.963 633.776 Z"/>
<path fill="#ffffff" fill-rule="evenodd" stroke="#000000" stroke-width="4" stroke-linejoin="round" d="M 332.697 445.734 C 332.697 445.690 332.697 8.374 332.697 8.331 C 332.710 8.370 437.334 28.675 460.832 397.661 C 438.828 397.829 391.995 393.023 391.189 444.749 C 391.156 446.862 332.703 445.734 332.697 445.734 Z"/>
</g>
<g id="specs_2">
<path fill="#ff0000" fill-rule="evenodd" stroke="none" d="M 360.042 685.461 C 360.043 685.464 370.778 715.522 370.779 715.525 C 370.778 715.524 360.043 705.536 360.042 705.535 C 360.041 705.536 349.306 715.524 349.305 715.525 C 349.306 715.522 360.041 685.464 360.042 685.461 Z"/>
<path fill="#0000ff" fill-rule="evenodd" stroke="none" d="M 360.042 18.201 C 360.043 18.202 366.278 35.663 366.279 35.665 C 366.278 35.664 360.043 29.862 360.042 29.862 C 360.041 29.862 353.806 35.664 353.805 35.665 C 353.806 35.663 360.041 18.202 360.042 18.201 Z"/>
<path fill="#00ff00" fill-rule="evenodd" stroke="none" d="M 65.487 314.616 C 65.488 314.615 82.917 308.291 82.919 308.290 C 82.918 308.291 77.148 314.556 77.147 314.557 C 77.148 314.558 82.981 320.764 82.982 320.764 C 82.980 320.764 65.488 314.616 65.487 314.616 Z"/>
<path fill="#ffff00" fill-rule="evenodd" stroke="none" d="M 151.367 524.035 C 151.367 524.033 159.106 507.185 159.107 507.184 C 159.107 507.184 159.514 515.692 159.514 515.693 C 159.515 515.693 168.030 515.899 168.030 515.900 C 168.029 515.900 151.368 524.034 151.367 524.035 Z"/>
<path fill="#ffff00" fill-rule="evenodd" stroke="none" d="M 569.862 523.829 C 569.861 523.827 561.787 507.137 561.786 507.136 C 561.786 507.137 561.549 515.651 561.549 515.652 C 561.548 515.652 553.039 516.029 553.038 516.029 C 553.040 516.030 569.860 523.828 569.862 523.829 Z"/>
<path fill="#00ff00" fill-rule="evenodd" stroke="none" d="M 655.501 314.616 C 655.499 314.615 638.070 308.291 638.069 308.290 C 638.069 308.291 643.840 314.556 643.840 314.557 C 643.840 314.558 638.006 320.764 638.006 320.764 C 638.008 320.764 655.499 314.616 655.501 314.616 Z"/>
<path fill="#00ffff" fill-rule="evenodd" stroke="none" d="M 568.481 104.512 C 568.480 104.514 562.291 121.991 562.290 121.992 C 562.290 121.992 561.118 113.555 561.118 113.554 C 561.117 113.554 552.618 114.115 552.617 114.116 C 552.619 114.115 568.479 104.513 568.481 104.512 Z"/>
<path fill="#00ffff" fill-rule="evenodd" stroke="none" d="M 151.700 105.091 C 151.700 105.093 159.041 122.118 159.042 122.120 C 159.042 122.119 159.649 113.623 159.649 113.622 C 159.650 113.622 168.167 113.616 168.168 113.616 C 168.166 113.615 151.701 105.092 151.700 105.091 Z"/>
<path fill="#be0027" fill-rule="evenodd" stroke="none" d="M 360.042 646.363 C 360.043 646.360 370.778 616.302 370.779 616.299 C 370.778 616.300 360.043 626.288 360.042 626.289 C 360.041 626.288 349.306 616.300 349.305 616.299 C 349.306 616.302 360.041 646.360 360.042 646.363 Z"/>
</g>
</g>
</svg>
