<?xml version="1.0" encoding="utf-8"?>
<!-- Generator: Moho 12.5 build 22414 -->
<!DOCTYPE svg PUBLIC "-//W3C//DTD SVG 1.1//EN" "http://www.w3.org/Graphics/SVG/1.1/DTD/svg11.dtd">
<svg version="1.1" id="Frame_0" xmlns="http://www.w3.org/2000/svg" xmlns:xlink="http://www.w3.org/1999/xlink" width="720px" height="720px">
<g id="knot_3pt">
<g id="knot_3pt">
<path fill="#ffffff" fill-rule="evenodd" stroke="#000000" stroke-width="4" stroke-linecap="round" stroke-linejoin="round" d="M 195.451 347.880 C 194.601 324.512 196.306 301.094 200.648 278.377 C 160.449 244.471 133.424 200.576 120.640 152.864 C 116.871 138.795 114.339 124.394 113.088 110.031 C 126.410 103.814 140.030 98.861 153.977 95.124 C 201.688 82.340 253.215 83.795 302.676 101.655 C 315.433 106.259 328.882 112.478 341.940 120.017 C 348.469 123.787 354.761 127.807 360.481 131.825 C 409.765 166.440 442.893 215.912 457.480 270.352 C 461.217 284.298 463.738 298.571 465.012 313.228 C 484.530 304.070 503.113 292.220 520.025 277.846 C 518.595 270.229 516.853 262.570 514.822 254.987 C 499.178 196.604 466.333 142.831 418.463 101.791 C 404.164 89.532 388.525 78.409 371.603 68.640 C 367.924 66.516 364.218 64.482 360.268 62.403 C 289.845 25.333 147.889 1.997 53.096 75.399 C 48.645 206.588 128.391 305.322 195.451 347.880 Z"/>
<path fill="none" stroke="#ffffff" stroke-width="1" stroke-linecap="butt" stroke-linejoin="round" d="M 371.603 68.640 C 388.525 78.409 404.164 89.532 418.463 101.791 "/>
<path fill="none" stroke="#ffffff" stroke-width="1" stroke-linecap="butt" stroke-linejoin="round" d="M 520.025 277.846 C 503.113 292.220 484.530 304.070 465.012 313.228 "/>
<path fill="none" stroke="#ffffff" stroke-width="1" stroke-linecap="butt" stroke-linejoin="round" d="M 360.268 62.403 C 364.218 64.482 367.924 66.516 371.603 68.640 "/>
<path fill="#ffffff" fill-rule="evenodd" stroke="#000000" stroke-width="4" stroke-linecap="round" stroke-linejoin="round" d="M 371.603 68.640 C 388.525 78.409 404.164 89.532 418.463 101.791 C 425.239 99.294 431.830 97.455 438.378 95.481 C 495.309 78.318 562.997 92.977 606.885 110.176 C 604.937 136.147 593.388 179.800 574.478 212.552 C 559.743 238.074 541.193 259.980 520.025 277.846 C 503.113 292.220 484.530 304.070 465.012 313.228 C 451.711 319.401 438.091 324.355 424.144 328.092 C 369.704 342.679 310.296 338.727 255.495 313.268 C 253.633 334.692 254.607 356.886 258.427 378.501 C 318.134 399.519 381.125 401.077 439.508 385.434 C 447.091 383.402 454.595 381.080 461.947 378.595 C 484.192 370.678 505.649 360.684 525.003 347.853 C 581.143 310.632 671.285 213.069 666.904 75.534 C 585.096 24.287 481.397 22.495 423.014 38.139 C 401.465 43.913 380.544 52.031 360.268 62.403 C 364.218 64.482 367.924 66.516 371.603 68.640 Z"/>
<path fill="none" stroke="#ffffff" stroke-width="1" stroke-linecap="butt" stroke-linejoin="round" d="M 302.676 101.655 C 315.433 106.259 328.882 112.478 341.940 120.017 "/>
<path fill="none" stroke="#ffffff" stroke-width="1" stroke-linecap="butt" stroke-linejoin="round" d="M 341.940 120.017 C 348.469 123.787 354.761 127.807 360.481 131.825 "/>
<path fill="none" stroke="#ffffff" stroke-width="1" stroke-linecap="butt" stroke-linejoin="round" d="M 255.495 313.268 C 253.633 334.692 254.607 356.886 258.427 378.501 "/>
<path fill="none" stroke="#ffffff" stroke-width="1" stroke-linecap="butt" stroke-linejoin="round" d="M 461.947 378.595 C 484.192 370.678 505.649 360.684 525.003 347.853 "/>
<path fill="none" stroke="#ffffff" stroke-width="1" stroke-linecap="butt" stroke-linejoin="round" d="M 195.451 347.880 C 194.601 324.512 196.306 301.094 200.648 278.377 "/>
<path fill="#ffffff" fill-rule="evenodd" stroke="#000000" stroke-width="4" stroke-linecap="round" stroke-linejoin="round" d="M 236.666 181.358 C 254.506 150.457 276.858 123.833 302.676 101.655 C 315.433 106.259 328.882 112.478 341.940 120.017 C 348.469 123.787 354.761 127.807 360.481 131.825 C 331.979 151.648 306.892 178.377 288.044 211.021 C 269.440 243.245 258.868 277.852 255.495 313.268 C 253.633 334.692 254.607 356.886 258.427 378.501 C 259.828 385.452 261.526 392.211 263.151 398.985 C 273.501 442.139 312.641 505.803 360.172 537.553 C 415.546 503.043 451.890 430.858 461.947 378.595 C 484.192 370.678 505.649 360.684 525.003 347.853 C 518.604 422.880 469.221 559.741 360.349 606.757 C 258.713 541.140 221.452 472.733 205.808 414.350 C 199.917 392.361 196.465 369.719 195.451 347.880 C 194.601 324.512 196.306 301.094 200.648 278.377 C 207.006 244.757 218.872 212.178 236.666 181.358 Z"/>
</g>
<g id="specs_2">
<path fill="#ff00ff" fill-rule="evenodd" stroke="none" d="M 230.455 374.103 C 230.481 374.103 489.519 374.103 489.545 374.103 C 489.545 374.077 489.545 115.039 489.545 115.013 C 489.519 115.013 230.481 115.013 230.455 115.013 C 230.455 115.039 230.455 374.077 230.455 374.103 Z"/>
<path fill="#ff0000" fill-rule="evenodd" stroke="none" d="M 360.000 671.955 C 360.001 671.958 372.432 706.764 372.433 706.768 C 372.432 706.767 360.001 695.201 360.000 695.199 C 359.999 695.201 347.568 706.767 347.567 706.768 C 347.568 706.764 359.999 671.958 360.000 671.955 Z"/>
<path fill="#0000ff" fill-rule="evenodd" stroke="none" d="M 360.000 49.911 C 360.001 49.913 367.221 70.132 367.222 70.134 C 367.221 70.133 360.001 63.415 360.000 63.414 C 359.999 63.415 352.779 70.133 352.778 70.134 C 352.779 70.132 359.999 49.913 360.000 49.911 Z"/>
<path fill="#ffff00" fill-rule="evenodd" stroke="none" d="M 536.840 355.167 C 536.838 355.167 515.699 351.418 515.696 351.417 C 515.697 351.417 525.111 348.475 525.112 348.475 C 525.112 348.474 522.856 338.873 522.856 338.872 C 522.857 338.874 536.838 355.166 536.840 355.167 Z"/>
<path fill="#be0027" fill-rule="evenodd" stroke="none" d="M 360.000 628.400 C 360.001 628.397 372.432 593.591 372.433 593.587 C 372.432 593.589 360.001 605.154 360.000 605.156 C 359.999 605.154 347.568 593.589 347.567 593.587 C 347.568 593.591 359.999 628.397 360.000 628.400 Z"/>
<path fill="none" stroke="#000000" stroke-width="4" stroke-linecap="round" stroke-linejoin="round" d="M 378.062 345.190 C 378.062 344.848 378.062 344.506 378.062 344.164 "/>
<path fill="#00ff00" fill-rule="evenodd" stroke="none" d="M 42.692 70.340 C 42.694 70.340 63.814 74.197 63.816 74.197 C 63.815 74.197 54.387 77.091 54.386 77.091 C 54.386 77.092 56.594 86.705 56.594 86.706 C 56.593 86.704 42.694 70.342 42.692 70.340 Z"/>
<path fill="#00ff00" fill-rule="evenodd" stroke="none" d="M 676.756 70.340 C 676.753 70.340 655.634 74.197 655.632 74.197 C 655.632 74.197 665.061 77.091 665.062 77.091 C 665.062 77.092 662.854 86.705 662.853 86.706 C 662.855 86.704 676.754 70.342 676.756 70.340 Z"/>
<path fill="#ffff00" fill-rule="evenodd" stroke="none" d="M 183.637 355.167 C 183.639 355.167 204.778 351.418 204.780 351.417 C 204.779 351.417 195.365 348.475 195.364 348.475 C 195.364 348.474 197.621 338.873 197.621 338.872 C 197.619 338.874 183.638 355.165 183.637 355.167 Z"/>
</g>
</g>
</svg>
