<?xml version="1.0" encoding="utf-8"?>
<!-- Generator: Moho 12.5 build 22414 -->
<!DOCTYPE svg PUBLIC "-//W3C//DTD SVG 1.1//EN" "http://www.w3.org/Graphics/SVG/1.1/DTD/svg11.dtd">
<svg version="1.1" id="Frame_0" xmlns="http://www.w3.org/2000/svg" xmlns:xlink="http://www.w3.org/1999/xlink" width="720px" height="720px">
<g id="knot_4pt">
<g id="Layer_3">
<path fill="#ffffff" fill-rule="evenodd" stroke="#000000" stroke-width="4" stroke-linejoin="round" d="M 358.021 617.557 C 343.385 607.590 328.739 597.156 316.730 583.810 C 276.792 606.128 216.109 623.769 112.996 607.029 C 96.215 503.875 113.332 443.114 136.248 403.431 C 144.635 388.908 154.696 375.005 166.150 361.603 C 178.695 346.923 206.442 319.141 226.570 310.688 C 231.825 288.556 236.893 266.416 245.111 245.010 C 207.761 260.241 163.781 289.808 135.611 320.390 C 123.290 333.766 112.275 347.504 102.616 362.111 C 68.668 413.448 48.258 503.875 73.628 646.877 C 192.130 671.726 306.726 651.591 358.021 617.557 Z"/>
<path fill="none" stroke="#ffffff" stroke-width="1" stroke-linecap="butt" stroke-linejoin="round" d="M 102.616 362.111 C 112.275 347.504 123.290 333.766 135.611 320.390 "/>
<path fill="#ffffff" fill-rule="evenodd" stroke="#000000" stroke-width="4" stroke-linejoin="round" d="M 102.616 362.111 C 112.275 347.504 123.290 333.766 135.611 320.390 C 111.399 280.098 96.216 216.130 110.913 110.639 C 216.109 96.236 279.374 111.183 320.409 135.592 C 334.704 144.078 348.589 154.283 361.650 166.106 C 364.886 169.030 401.864 206.586 411.007 226.347 C 432.920 231.558 454.816 235.899 475.685 244.192 C 460.745 201.489 404.582 137.427 403.369 136.250 C 390.487 123.746 376.682 112.530 362.129 102.597 C 309.626 66.504 216.109 48.278 71.495 71.394 C 48.258 216.130 66.101 309.598 102.616 362.111 Z"/>
<path fill="none" stroke="#ffffff" stroke-width="1" stroke-linecap="butt" stroke-linejoin="round" d="M 362.129 102.597 C 376.682 112.530 390.487 123.746 403.369 136.250 "/>
<path fill="#ffffff" fill-rule="evenodd" stroke="#000000" stroke-width="4" stroke-linejoin="round" d="M 362.129 102.597 C 376.682 112.530 390.487 123.746 403.369 136.250 C 441.566 108.601 510.388 93.276 607.019 112.957 C 623.749 216.129 606.768 276.946 583.789 316.668 C 575.449 331.161 565.557 345.193 553.954 358.405 C 550.202 362.739 510.151 399.385 493.424 409.507 C 489.640 431.905 481.857 453.255 475.072 474.968 C 512.339 459.820 582.082 402.227 584.525 399.708 C 596.668 386.733 607.723 372.738 617.576 358.001 C 651.431 306.612 671.706 192.151 646.447 73.429 C 503.855 48.278 411.129 67.789 362.129 102.597 Z"/>
<path fill="none" stroke="#ffffff" stroke-width="1" stroke-linecap="butt" stroke-linejoin="round" d="M 358.021 617.557 C 343.385 607.590 328.739 597.156 316.730 583.810 "/>
<path fill="none" stroke="#ffffff" stroke-width="1" stroke-linecap="butt" stroke-linejoin="round" d="M 584.525 399.708 C 596.668 386.733 607.723 372.738 617.576 358.001 "/>
<path fill="#ffffff" fill-rule="evenodd" stroke="#000000" stroke-width="4" stroke-linejoin="round" d="M 617.576 358.001 C 670.525 435.978 671.706 527.854 648.687 648.584 C 527.833 671.726 410.538 653.323 358.021 617.557 C 343.385 607.590 328.739 597.156 316.730 583.810 C 288.325 552.241 259.354 513.772 244.212 475.666 C 265.140 482.944 286.737 490.133 309.085 493.791 C 319.835 511.874 355.214 551.030 358.425 553.936 C 371.512 565.778 385.419 575.962 399.729 584.506 C 440.971 609.131 527.834 623.769 609.442 609.167 C 623.749 527.854 613.237 446.498 584.525 399.708 C 596.668 386.733 607.723 372.738 617.576 358.001 Z"/>
<path fill="none" stroke="#ffffff" stroke-width="1" stroke-linecap="butt" stroke-linejoin="round" d="M 553.954 358.405 C 565.557 345.193 575.449 331.161 583.789 316.668 "/>
<path fill="none" stroke="#ffffff" stroke-width="1" stroke-linecap="butt" stroke-linejoin="round" d="M 475.685 244.192 C 454.816 235.899 432.920 231.558 411.007 226.347 "/>
<path fill="#ffffff" fill-rule="evenodd" stroke="#000000" stroke-width="4" stroke-linejoin="round" d="M 493.633 308.959 C 511.894 319.815 551.049 355.194 553.954 358.405 C 565.557 345.193 575.449 331.161 583.789 316.668 C 582.653 315.498 513.792 259.335 475.685 244.192 C 454.816 235.899 432.920 231.558 411.007 226.347 C 380.184 219.017 336.782 219.259 310.572 226.657 C 301.526 246.251 290.733 263.413 284.528 284.255 C 335.278 270.188 376.618 260.376 436.256 283.720 C 455.472 291.242 475.343 298.086 493.633 308.959 Z"/>
<path fill="none" stroke="#ffffff" stroke-width="1" stroke-linecap="butt" stroke-linejoin="round" d="M 358.425 553.936 C 371.512 565.778 385.419 575.962 399.729 584.506 "/>
<path fill="none" stroke="#ffffff" stroke-width="1" stroke-linecap="butt" stroke-linejoin="round" d="M 475.072 474.968 C 481.857 453.255 489.640 431.905 493.424 409.507 "/>
<path fill="none" stroke="#ffffff" stroke-width="1" stroke-linecap="butt" stroke-linejoin="round" d="M 493.633 308.959 C 475.343 298.086 455.472 291.242 436.256 283.720 "/>
<path fill="#ffffff" fill-rule="evenodd" stroke="#000000" stroke-width="4" stroke-linejoin="round" d="M 409.628 493.470 C 398.782 510.928 391.812 524.345 358.425 553.936 C 371.512 565.778 385.419 575.962 399.729 584.506 C 431.533 555.966 461.366 518.829 475.072 474.968 C 481.857 453.255 489.640 431.905 493.424 409.507 C 496.245 393.443 497.712 376.023 497.712 358.603 C 497.712 341.920 497.167 329.235 493.633 308.959 C 475.343 298.086 455.472 291.242 436.256 283.720 C 443.708 308.271 447.362 333.437 447.362 358.603 C 447.362 384.466 443.503 410.328 435.826 435.551 C 429.526 455.688 420.684 475.290 409.628 493.470 Z"/>
<path fill="none" stroke="#ffffff" stroke-width="1" stroke-linecap="butt" stroke-linejoin="round" d="M 166.150 361.603 C 154.696 375.005 144.635 388.908 136.248 403.431 "/>
<path fill="none" stroke="#ffffff" stroke-width="1" stroke-linecap="butt" stroke-linejoin="round" d="M 244.212 475.666 C 265.140 482.944 286.737 490.133 309.085 493.791 "/>
<path fill="none" stroke="#ffffff" stroke-width="1" stroke-linecap="butt" stroke-linejoin="round" d="M 409.628 493.470 C 420.684 475.290 429.526 455.688 435.826 435.551 "/>
<path fill="#ffffff" fill-rule="evenodd" stroke="#000000" stroke-width="4" stroke-linejoin="round" d="M 226.386 411.103 C 208.206 400.245 184.443 380.269 166.150 361.603 C 154.696 375.005 144.635 388.908 136.248 403.431 C 150.851 419.563 181.698 453.929 244.212 475.666 C 265.140 482.944 286.737 490.133 309.085 493.791 C 325.367 496.356 341.995 497.692 358.623 497.692 C 375.647 497.692 392.671 496.291 409.628 493.470 C 420.684 475.290 429.526 455.688 435.826 435.551 C 367.198 458.148 320.762 446.954 283.798 436.400 C 263.885 430.714 244.706 421.968 226.386 411.103 Z"/>
<path fill="none" stroke="#ffffff" stroke-width="1" stroke-linecap="butt" stroke-linejoin="round" d="M 283.798 436.400 C 263.885 430.714 244.706 421.968 226.386 411.103 "/>
<path fill="none" stroke="#ffffff" stroke-width="1" stroke-linecap="butt" stroke-linejoin="round" d="M 226.570 310.688 C 231.825 288.556 236.893 266.416 245.111 245.010 "/>
<path fill="none" stroke="#ffffff" stroke-width="1" stroke-linecap="butt" stroke-linejoin="round" d="M 320.409 135.592 C 334.704 144.078 348.589 154.283 361.650 166.106 "/>
<path fill="none" stroke="#ffffff" stroke-width="1" stroke-linecap="butt" stroke-linejoin="round" d="M 310.572 226.657 C 301.526 246.251 290.733 263.413 284.528 284.255 "/>
<path fill="#ffffff" fill-rule="evenodd" stroke="#000000" stroke-width="4" stroke-linejoin="round" d="M 283.798 436.400 C 263.885 430.714 244.706 421.968 226.386 411.103 C 220.776 365.746 220.762 335.146 226.570 310.688 C 231.825 288.556 236.893 266.416 245.111 245.010 C 269.858 180.549 302.963 151.297 320.409 135.592 C 334.704 144.078 348.589 154.283 361.650 166.106 C 350.682 176.519 323.095 199.532 310.572 226.657 C 301.526 246.251 290.733 263.413 284.528 284.255 C 271.719 327.284 265.423 377.890 283.798 436.400 Z"/>
</g>
<g id="specs_2">
<path fill="#ff00ff" fill-rule="evenodd" stroke="none" d="M 183.076 536.495 C 183.111 536.495 535.796 536.495 535.831 536.495 C 535.831 536.459 535.831 183.774 535.831 183.739 C 535.796 183.739 183.111 183.739 183.076 183.739 C 183.076 183.774 183.076 536.459 183.076 536.495 Z"/>
<path fill="#ff0000" fill-rule="evenodd" stroke="none" d="M 359.453 676.424 C 359.455 676.427 372.444 712.797 372.445 712.801 C 372.444 712.799 359.455 700.714 359.453 700.713 C 359.452 700.714 346.463 712.799 346.462 712.801 C 346.463 712.797 359.452 676.427 359.453 676.424 Z"/>
<path fill="#0000ff" fill-rule="evenodd" stroke="none" d="M 359.453 86.553 C 359.454 86.555 366.999 107.682 367.000 107.684 C 366.999 107.683 359.454 100.663 359.453 100.663 C 359.453 100.663 351.908 107.683 351.907 107.684 C 351.908 107.682 359.453 86.555 359.453 86.553 Z"/>
<path fill="#00ff00" fill-rule="evenodd" stroke="none" d="M 88.115 361.166 C 88.117 361.166 109.206 353.514 109.208 353.513 C 109.207 353.514 102.225 361.095 102.224 361.095 C 102.225 361.096 109.283 368.605 109.284 368.606 C 109.282 368.606 88.117 361.167 88.115 361.166 Z"/>
<path fill="#ffff00" fill-rule="evenodd" stroke="none" d="M 106.963 614.557 C 106.964 614.555 116.327 594.170 116.328 594.168 C 116.328 594.169 116.821 604.463 116.821 604.464 C 116.822 604.464 127.124 604.714 127.125 604.714 C 127.123 604.715 106.965 614.556 106.963 614.557 Z"/>
<path fill="#ffff00" fill-rule="evenodd" stroke="none" d="M 611.279 614.308 C 611.278 614.306 601.508 594.112 601.507 594.110 C 601.507 594.111 601.221 604.413 601.221 604.414 C 601.220 604.414 590.924 604.870 590.923 604.870 C 590.925 604.871 611.277 614.307 611.279 614.308 Z"/>
<path fill="#00ff00" fill-rule="evenodd" stroke="none" d="M 633.935 361.166 C 633.932 361.166 612.844 353.514 612.842 353.513 C 612.843 353.514 619.825 361.095 619.826 361.095 C 619.825 361.096 612.767 368.605 612.766 368.606 C 612.768 368.606 633.932 361.167 633.935 361.166 Z"/>
<path fill="#00ffff" fill-rule="evenodd" stroke="none" d="M 611.658 106.948 C 611.657 106.950 604.168 128.096 604.167 128.098 C 604.167 128.097 602.749 117.889 602.749 117.888 C 602.748 117.888 592.465 118.567 592.464 118.567 C 592.466 118.566 611.656 106.949 611.658 106.948 Z"/>
<path fill="#00ffff" fill-rule="evenodd" stroke="none" d="M 107.366 107.649 C 107.367 107.651 116.249 128.251 116.250 128.253 C 116.250 128.252 116.984 117.972 116.984 117.971 C 116.985 117.971 127.291 117.963 127.292 117.963 C 127.290 117.962 107.368 107.650 107.366 107.649 Z"/>
<path fill="#be0027" fill-rule="evenodd" stroke="none" d="M 359.453 642.850 C 359.455 642.846 372.444 606.477 372.445 606.473 C 372.444 606.474 359.455 618.560 359.453 618.561 C 359.452 618.560 346.463 606.474 346.462 606.473 C 346.463 606.477 359.452 642.846 359.453 642.850 Z"/>
</g>
</g>
</svg>
