<?xml version="1.0" encoding="utf-8"?>
<!-- Generator: Moho 12.5 build 22414 -->
<!DOCTYPE svg PUBLIC "-//W3C//DTD SVG 1.1//EN" "http://www.w3.org/Graphics/SVG/1.1/DTD/svg11.dtd">
<svg version="1.1" id="Frame_0" xmlns="http://www.w3.org/2000/svg" xmlns:xlink="http://www.w3.org/1999/xlink" width="720px" height="720px">
<g id="lamb_head">
<g id="lamb_head.svg">
<path fill="#ffffff" fill-rule="evenodd" stroke="#000000" stroke-width="4" stroke-linecap="round" stroke-linejoin="round" d="M 356.638 151.508 C 419.411 151.423 478.430 190.856 478.442 190.860 C 478.436 190.872 417.947 270.377 409.363 296.341 C 397.736 331.517 402.175 466.988 402.175 467.005 C 402.177 466.988 400.496 333.805 412.491 299.421 C 421.387 273.927 482.130 196.232 482.138 196.222 C 482.140 196.232 503.922 294.541 503.924 294.551 C 503.920 294.549 477.341 275.105 461.657 277.566 C 446.202 279.989 434.573 292.456 427.081 306.188 C 416.721 325.176 421.327 367.980 421.325 367.988 C 421.327 367.982 422.542 328.087 438.236 319.460 C 449.481 313.279 462.187 329.440 474.502 325.835 C 489.137 321.551 506.188 295.665 506.190 295.661 C 506.192 295.657 505.185 266.641 510.173 260.931 C 522.481 246.847 574.851 258.293 595.851 251.087 C 629.246 239.625 716.288 212.308 711.469 177.333 C 706.646 142.322 615.104 132.955 580.071 137.603 C 552.287 141.290 486.543 193.299 486.533 193.305 C 486.535 193.319 511.373 321.201 511.375 321.213 C 511.375 321.221 520.724 380.417 518.144 396.636 C 515.384 413.983 495.347 456.107 485.972 470.963 C 479.691 480.913 459.342 504.185 450.784 512.262 C 442.203 520.364 407.412 545.104 407.408 545.106 C 407.408 545.104 410.022 511.427 410.022 511.423 C 410.016 511.425 354.648 519.166 354.644 519.168 C 354.644 519.166 355.991 496.218 355.991 496.216 C 355.993 496.216 377.160 495.180 381.282 492.904 C 386.348 490.107 400.888 468.444 400.890 468.442 C 400.886 468.444 373.077 474.043 368.683 478.452 C 360.639 486.521 354.541 538.519 354.539 538.525 C 354.545 538.523 408.323 517.039 408.329 517.037 C 408.327 517.043 403.307 567.111 399.000 571.617 C 395.492 575.288 380.318 582.443 355.203 582.397 C 328.133 582.349 316.257 573.846 312.877 570.219 C 308.615 565.651 302.849 515.645 302.847 515.639 C 302.853 515.641 355.233 537.820 355.239 537.825 C 355.237 537.819 347.354 485.636 338.998 477.753 C 334.317 473.334 305.394 468.444 305.390 468.442 C 305.394 468.444 322.532 488.762 327.797 491.505 C 332.347 493.877 355.183 496.216 355.185 496.216 C 355.185 496.220 355.834 519.865 355.834 519.867 C 355.828 519.867 299.061 510.724 299.057 510.724 C 299.057 510.726 304.499 547.172 304.499 547.176 C 304.495 547.172 263.348 520.865 253.743 511.429 C 245.076 502.915 226.388 476.963 220.525 466.321 C 212.982 452.629 197.079 414.471 194.758 399.014 C 192.086 381.215 200.881 316.271 200.881 316.263 C 200.883 316.251 221.100 197.824 221.102 197.812 C 221.094 197.806 154.950 141.668 126.332 137.657 C 94.936 133.256 15.550 142.609 8.531 173.525 C 1.816 203.100 66.462 242.034 94.129 254.453 C 118.646 265.459 182.285 248.082 198.046 264.335 C 203.185 269.635 205.227 297.609 205.229 297.611 C 205.231 297.615 217.049 317.363 227.607 322.021 C 241.558 328.177 258.641 312.596 271.350 321.022 C 285.252 330.238 288.407 365.730 288.409 365.734 C 288.407 365.728 287.697 321.450 276.235 301.930 C 268.444 288.664 258.452 274.285 243.148 272.705 C 229.002 271.245 207.471 292.508 207.467 292.510 C 207.469 292.500 224.170 199.453 224.170 199.443 C 224.177 199.453 282.424 273.364 291.332 297.567 C 303.973 331.917 305.977 465.678 305.979 465.694 C 305.979 465.676 310.243 330.568 298.208 295.669 C 289.479 270.354 228.465 193.801 228.459 193.791 C 228.471 193.787 290.446 151.596 356.638 151.508 Z"/>
</g>
<g id="specs_2">
<path fill="#ff00ff" fill-rule="evenodd" stroke="none" d="M 298.576 286.091 C 298.589 286.091 421.411 286.091 421.424 286.091 C 421.424 286.079 421.424 163.256 421.424 163.244 C 421.411 163.244 298.589 163.244 298.576 163.244 C 298.576 163.256 298.576 286.079 298.576 286.091 Z"/>
<path fill="#ff0000" fill-rule="evenodd" stroke="none" d="M 360.000 627.365 C 360.001 627.368 371.547 659.698 371.549 659.701 C 371.547 659.700 360.001 648.957 360.000 648.956 C 359.999 648.957 348.453 659.700 348.452 659.701 C 348.453 659.698 359.999 627.368 360.000 627.365 Z"/>
<path fill="#0000ff" fill-rule="evenodd" stroke="none" d="M 360.000 136.941 C 360.001 136.943 366.708 155.723 366.708 155.725 C 366.708 155.724 360.001 149.484 360.000 149.483 C 359.999 149.484 353.292 155.724 353.292 155.725 C 353.292 155.723 359.999 136.943 360.000 136.941 Z"/>
<path fill="#00ff00" fill-rule="evenodd" stroke="none" d="M 181.278 396.838 C 181.279 396.837 200.025 390.035 200.027 390.034 C 200.026 390.035 193.820 396.774 193.819 396.774 C 193.820 396.775 200.094 403.450 200.095 403.451 C 200.093 403.450 181.279 396.838 181.278 396.838 Z"/>
<path fill="#ffff00" fill-rule="evenodd" stroke="none" d="M 233.140 504.244 C 233.141 504.242 241.464 486.120 241.465 486.119 C 241.465 486.120 241.903 495.270 241.904 495.271 C 241.904 495.271 251.063 495.493 251.064 495.493 C 251.062 495.494 233.142 504.243 233.140 504.244 Z"/>
<path fill="#ffff00" fill-rule="evenodd" stroke="none" d="M 473.361 504.022 C 473.360 504.020 464.675 486.069 464.674 486.067 C 464.674 486.068 464.419 495.226 464.419 495.227 C 464.418 495.227 455.266 495.632 455.265 495.632 C 455.267 495.633 473.359 504.021 473.361 504.022 Z"/>
<path fill="#00ff00" fill-rule="evenodd" stroke="none" d="M 530.488 396.838 C 530.486 396.837 511.740 390.035 511.738 390.034 C 511.739 390.035 517.945 396.774 517.946 396.774 C 517.945 396.775 511.671 403.450 511.671 403.451 C 511.673 403.450 530.486 396.838 530.488 396.838 Z"/>
<path fill="#00ffff" fill-rule="evenodd" stroke="none" d="M 446.098 161.649 C 446.097 161.651 439.440 180.449 439.439 180.450 C 439.439 180.449 438.178 171.375 438.178 171.374 C 438.177 171.374 429.036 171.978 429.035 171.978 C 429.037 171.977 446.096 161.650 446.098 161.649 Z"/>
<path fill="#00ffff" fill-rule="evenodd" stroke="none" d="M 262.959 162.272 C 262.959 162.274 270.855 180.586 270.856 180.588 C 270.856 180.587 271.509 171.449 271.509 171.448 C 271.510 171.448 280.671 171.441 280.672 171.441 C 280.670 171.440 262.960 162.273 262.959 162.272 Z"/>
<path fill="#be0027" fill-rule="evenodd" stroke="none" d="M 360.000 600.397 C 360.001 600.394 371.547 568.064 371.549 568.061 C 371.547 568.062 360.001 578.805 360.000 578.806 C 359.999 578.805 348.453 568.062 348.452 568.061 C 348.453 568.064 359.999 600.394 360.000 600.397 Z"/>
</g>
</g>
</svg>
