<?xml version="1.0" encoding="utf-8"?>
<!-- Generator: Moho 13.0.3 build 635 -->
<!DOCTYPE svg PUBLIC "-//W3C//DTD SVG 1.1//EN" "http://www.w3.org/Graphics/SVG/1.1/DTD/svg11.dtd">
<svg version="1.1" id="Frame_0" xmlns="http://www.w3.org/2000/svg" xmlns:xlink="http://www.w3.org/1999/xlink" width="1280px" height="720px">
<g id="eye/leaf">
<path fill="#ffffff" fill-rule="evenodd" stroke="#000000" stroke-width="13" stroke-linecap="round" stroke-linejoin="round" d="M 1253.247 360.000 C 1253.186 360.030 999.245 655.069 640.000 655.069 C 280.755 655.069 26.814 360.030 26.753 360.000 C 26.814 359.971 280.755 64.931 640.000 64.931 C 999.245 64.931 1253.186 359.971 1253.247 360.000 Z"/>
</g>
<g id="Leaf_veins">
<path fill="none" stroke="#000000" stroke-width="8" stroke-linecap="round" stroke-linejoin="round" d="M 1080.816 502.160 C 1011.602 454.774 873.195 360.014 873.174 360.000 C 873.196 359.986 1015.754 267.758 1087.043 221.637 M 857.469 616.518 C 759.049 531.012 562.238 360.026 562.209 360.000 C 562.238 359.975 759.049 190.123 857.469 105.184 M 573.067 650.319 C 467.528 553.546 256.480 360.029 256.449 360.000 C 256.479 359.971 461.394 168.065 563.867 72.098 M 1246.316 360.000 C 1180.912 360.000 873.192 360.000 873.174 360.000 C 873.158 360.000 562.224 360.000 562.209 360.000 C 562.194 360.000 256.464 360.000 256.449 360.000 C 256.436 360.000 64.736 360.000 33.685 360.000 "/>
</g>
</svg>
