<?xml version="1.0" encoding="utf-8"?>
<!-- Generator: Moho 13.0.3 build 635 -->
<!DOCTYPE svg PUBLIC "-//W3C//DTD SVG 1.1//EN" "http://www.w3.org/Graphics/SVG/1.1/DTD/svg11.dtd">
<svg version="1.1" id="Frame_0" xmlns="http://www.w3.org/2000/svg" xmlns:xlink="http://www.w3.org/1999/xlink" width="720px" height="720px">
<g id="Leaf">
<path fill="#ffffff" fill-rule="evenodd" stroke="#000000" stroke-width="8" stroke-linecap="round" stroke-linejoin="round" d="M 360.000 16.816 C 360.020 16.851 561.786 169.976 561.786 360.000 C 561.786 550.024 360.020 703.149 360.000 703.184 C 359.980 703.149 158.214 550.024 158.214 360.000 C 158.214 169.976 359.980 16.851 360.000 16.816 Z"/>
</g>
<g id="Leaf_2">
<path fill="none" stroke="#000000" stroke-width="8" stroke-linecap="round" stroke-linejoin="round" d="M 448.933 102.434 C 419.289 140.420 360.009 216.381 360.000 216.393 C 359.991 216.381 301.660 139.438 272.489 100.961 M 529.005 230.903 C 472.670 284.737 360.017 392.388 360.000 392.404 C 359.983 392.388 247.330 284.737 190.996 230.903 M 561.786 385.039 C 494.524 445.182 360.020 565.451 360.000 565.469 C 359.980 565.451 227.440 449.110 161.160 390.931 M 360.000 16.816 C 360.000 51.798 360.000 121.750 360.000 121.760 C 360.000 121.770 360.000 216.383 360.000 216.393 C 360.000 216.402 360.000 306.599 360.000 306.608 C 360.000 306.616 360.000 392.395 360.000 392.404 C 360.000 392.412 360.000 478.075 360.000 478.084 C 360.000 478.093 360.000 565.460 360.000 565.469 C 360.000 565.477 360.000 645.586 360.000 645.594 C 360.000 645.600 360.000 683.987 360.000 703.184 "/>
</g>
</svg>
