<?xml version="1.0" encoding="utf-8"?>
<!-- Generator: Moho 12.3 build 22017 -->
<!DOCTYPE svg PUBLIC "-//W3C//DTD SVG 1.1//EN" "http://www.w3.org/Graphics/SVG/1.1/DTD/svg11.dtd">
<svg version="1.1" id="Frame_0" xmlns="http://www.w3.org/2000/svg" xmlns:xlink="http://www.w3.org/1999/xlink" width="720px" height="720px">
<g id="leg_hoof">
<g id="leg_hoof">
<path fill="#ffffff" fill-rule="evenodd" stroke="#000000" stroke-width="6" stroke-linecap="round" stroke-linejoin="round" d="M 262.447 76.190 C 169.494 168.080 193.768 278.851 211.734 323.283 C 241.223 396.212 358.661 413.649 369.270 448.448 C 375.479 468.815 355.227 546.789 341.215 562.822 C 330.342 575.264 270.288 588.538 257.053 598.429 C 249.890 603.782 224.628 635.767 224.625 635.770 C 224.620 635.777 181.526 697.692 181.522 697.698 C 181.526 697.699 223.554 700.517 223.558 700.517 C 223.567 700.517 309.916 697.699 309.924 697.698 C 309.926 697.693 324.225 643.236 324.227 643.231 C 324.227 643.229 325.669 626.664 328.267 624.326 C 334.214 618.973 366.985 619.613 372.507 625.405 C 401.658 655.982 405.975 530.160 416.746 486.213 C 422.126 464.260 437.431 415.166 466.380 398.813 C 482.836 389.518 404.583 391.842 393.008 324.361 C 373.609 211.278 536.845 251.600 540.832 109.639 C 541.429 88.374 501.551 39.689 453.432 30.871 C 395.511 20.256 311.094 28.100 262.447 76.190 Z"/>
<path fill="none" stroke="#000000" stroke-width="6" stroke-linecap="round" stroke-linejoin="round" d="M 255.128 640.832 C 244.605 660.727 234.081 680.622 223.558 700.517 M 224.625 635.770 C 234.793 637.458 255.125 640.831 255.128 640.832 C 255.135 640.832 301.194 642.431 324.227 643.231 "/>
</g>
<g id="arrows">
<path fill="#ff00ff" fill-rule="evenodd" stroke="none" d="M 287.715 225.391 C 287.730 225.391 445.659 225.391 445.675 225.391 C 445.675 225.375 445.675 67.447 445.675 67.432 C 445.659 67.432 287.730 67.432 287.715 67.432 C 287.715 67.447 287.715 225.375 287.715 225.391 Z"/>
<path fill="#ff0000" fill-rule="evenodd" stroke="none" d="M 355.184 172.794 C 355.185 172.789 366.328 119.810 366.329 119.804 C 366.330 119.807 372.990 143.770 372.991 143.772 C 372.993 143.772 397.374 138.854 397.376 138.853 C 397.372 138.857 355.188 172.791 355.184 172.794 Z"/>
<path fill="#0000ff" fill-rule="evenodd" stroke="none" d="M 393.066 7.569 C 393.067 7.572 403.644 37.188 403.645 37.191 C 403.644 37.190 393.067 27.349 393.066 27.348 C 393.065 27.349 382.488 37.190 382.487 37.191 C 382.488 37.188 393.065 7.572 393.066 7.569 Z"/>
<path fill="#00ffff" fill-rule="evenodd" stroke="none" d="M 542.155 65.030 C 542.154 65.033 529.145 94.675 529.144 94.678 C 529.144 94.676 529.286 80.377 529.286 80.376 C 529.284 80.376 513.884 80.023 513.883 80.023 C 513.885 80.021 542.152 65.031 542.155 65.030 Z"/>
<path fill="#00ffff" fill-rule="evenodd" stroke="none" d="M 245.769 63.240 C 245.771 63.242 260.484 91.885 260.486 91.888 C 260.486 91.886 260.543 77.093 260.543 77.092 C 260.544 77.092 275.303 76.083 275.305 76.083 C 275.302 76.082 245.772 63.241 245.769 63.240 Z"/>
<path fill="#00ff00" fill-rule="evenodd" stroke="none" d="M 484.296 391.124 C 484.293 391.126 458.328 408.867 458.325 408.869 C 458.326 408.867 465.163 396.141 465.164 396.139 C 465.162 396.139 452.962 388.403 452.960 388.402 C 452.964 388.402 484.293 391.124 484.296 391.124 Z"/>
<path fill="#00ff00" fill-rule="evenodd" stroke="none" d="M 192.872 329.621 C 192.874 329.619 213.117 305.552 213.119 305.550 C 213.119 305.551 209.953 319.647 209.953 319.649 C 209.954 319.649 223.786 323.821 223.787 323.822 C 223.784 323.822 192.875 329.620 192.872 329.621 Z"/>
<path fill="#ffff00" fill-rule="evenodd" stroke="none" d="M 259.758 571.112 C 259.760 571.115 281.154 594.163 281.156 594.166 C 281.155 594.165 267.555 589.290 267.554 589.289 C 267.553 589.291 261.711 602.504 261.711 602.505 C 261.711 602.502 259.758 571.115 259.758 571.112 Z"/>
<path fill="#ffff00" fill-rule="evenodd" stroke="none" d="M 394.978 643.389 C 394.977 643.386 389.313 612.452 389.312 612.449 C 389.312 612.451 385.080 626.264 385.080 626.266 C 385.078 626.265 370.996 623.038 370.995 623.038 C 370.997 623.040 394.975 643.387 394.978 643.389 Z"/>
</g>
</g>
</svg>
