<?xml version="1.0" encoding="utf-8"?>
<!-- Generator: Moho 12.3 build 22017 -->
<!DOCTYPE svg PUBLIC "-//W3C//DTD SVG 1.1//EN" "http://www.w3.org/Graphics/SVG/1.1/DTD/svg11.dtd">
<svg version="1.1" id="Frame_0" xmlns="http://www.w3.org/2000/svg" xmlns:xlink="http://www.w3.org/1999/xlink" width="720px" height="720px">
<g id="leg_hoof">
<g id="leg_hoof">
<path fill="#ffffff" fill-rule="evenodd" stroke="#000000" stroke-width="6" stroke-linecap="round" stroke-linejoin="round" d="M 262.447 76.190 C 169.494 168.080 193.768 278.851 211.734 323.283 C 241.223 396.212 358.661 413.649 369.270 448.448 C 375.479 468.815 355.227 546.789 341.215 562.822 C 330.342 575.264 270.288 588.538 257.053 598.429 C 249.890 603.782 224.628 635.767 224.625 635.770 C 224.620 635.777 181.526 697.692 181.522 697.698 C 181.526 697.699 223.554 700.517 223.558 700.517 C 223.567 700.517 309.916 697.699 309.924 697.698 C 309.926 697.693 324.225 643.236 324.227 643.231 C 324.227 643.229 325.669 626.664 328.267 624.326 C 334.214 618.973 366.985 619.613 372.507 625.405 C 401.658 655.982 405.975 530.160 416.746 486.213 C 422.126 464.260 437.431 415.166 466.380 398.813 C 482.836 389.518 404.583 391.842 393.008 324.361 C 373.609 211.278 536.845 251.600 540.832 109.639 C 541.429 88.374 501.551 39.689 453.432 30.871 C 395.511 20.256 311.094 28.100 262.447 76.190 Z"/>
<path fill="none" stroke="#000000" stroke-width="6" stroke-linecap="round" stroke-linejoin="round" d="M 255.128 640.832 C 244.605 660.727 234.081 680.622 223.558 700.517 M 224.625 635.770 C 234.793 637.458 255.125 640.831 255.128 640.832 C 255.135 640.832 301.194 642.431 324.227 643.231 "/>
</g>
<g id="specs_2">
<path fill="#ff00ff" fill-rule="evenodd" stroke="none" d="M 251.700 252.351 C 251.717 252.351 417.423 252.351 417.440 252.351 C 417.440 252.335 417.440 86.628 417.440 86.612 C 417.423 86.612 251.717 86.612 251.700 86.612 C 251.700 86.628 251.700 252.335 251.700 252.351 Z"/>
<path fill="#ff0000" fill-rule="evenodd" stroke="none" d="M 371.869 144.810 C 379.613 144.810 385.860 151.057 385.860 158.801 C 385.860 166.545 379.613 172.792 371.869 172.792 C 364.125 172.792 357.878 166.545 357.878 158.801 C 357.878 151.057 364.125 144.810 371.869 144.810 Z"/>
<path fill="#ffff00" fill-rule="evenodd" stroke="none" d="M 365.373 601.753 C 365.373 594.009 371.620 587.762 379.364 587.762 C 387.108 587.762 393.355 594.009 393.355 601.753 C 393.355 609.497 387.108 615.745 379.364 615.745 C 371.620 615.745 365.373 609.497 365.373 601.753 M 252.080 606.069 C 252.080 598.325 258.327 592.078 266.071 592.078 C 273.815 592.078 280.062 598.325 280.062 606.069 C 280.062 613.813 273.815 620.061 266.071 620.061 C 258.327 620.061 252.080 613.813 252.080 606.069 Z"/>
<path fill="#00ff00" fill-rule="evenodd" stroke="none" d="M 326.125 403.160 C 326.125 395.416 332.372 389.169 340.116 389.169 C 347.860 389.169 354.107 395.416 354.107 403.160 C 354.107 410.904 347.860 417.152 340.116 417.152 C 332.372 417.152 326.125 410.904 326.125 403.160 M 425.466 398.844 C 425.466 391.100 431.713 384.853 439.457 384.853 C 447.201 384.853 453.449 391.100 453.449 398.844 C 453.449 406.588 447.201 412.835 439.457 412.835 C 431.713 412.835 425.466 406.588 425.466 398.844 Z"/>
<path fill="#00ffff" fill-rule="evenodd" stroke="none" d="M 522.986 75.236 C 530.730 75.236 536.977 81.484 536.977 89.228 C 536.977 96.972 530.730 103.219 522.986 103.219 C 515.242 103.219 508.994 96.972 508.994 89.228 C 508.994 81.484 515.242 75.236 522.986 75.236 Z"/>
<path fill="#00ffff" fill-rule="evenodd" stroke="none" d="M 267.150 73.078 C 274.894 73.078 281.141 79.326 281.141 87.070 C 281.141 94.814 274.894 101.061 267.150 101.061 C 259.406 101.061 253.158 94.814 253.158 87.070 C 253.158 79.326 259.406 73.078 267.150 73.078 Z"/>
<path fill="#0000ff" fill-rule="evenodd" stroke="none" d="M 365.395 6.739 C 373.139 6.739 379.386 12.986 379.386 20.730 C 379.386 28.474 373.139 34.721 365.395 34.721 C 357.651 34.721 351.404 28.474 351.404 20.730 C 351.404 12.986 357.651 6.739 365.395 6.739 Z"/>
</g>
</g>
</svg>
