<?xml version="1.0" encoding="utf-8"?>
<!-- Generator: Moho 12.3 build 22017 -->
<!DOCTYPE svg PUBLIC "-//W3C//DTD SVG 1.1//EN" "http://www.w3.org/Graphics/SVG/1.1/DTD/svg11.dtd">
<svg version="1.1" id="Frame_0" xmlns="http://www.w3.org/2000/svg" xmlns:xlink="http://www.w3.org/1999/xlink" width="720px" height="720px">
<g id="leg">
<g id="leg">
<path fill="#ffffff" fill-rule="evenodd" stroke="#000000" stroke-width="6" stroke-linecap="round" stroke-linejoin="round" d="M 398.907 48.738 C 360.700 66.464 244.625 170.755 217.241 202.757 C 198.305 224.885 134.960 313.673 129.846 342.345 C 128.593 349.370 131.994 375.799 134.702 382.401 C 159.924 443.913 323.300 594.711 319.679 631.739 C 318.647 642.290 275.980 654.799 266.064 658.547 C 254.877 662.775 211.576 670.837 200.653 675.704 C 195.750 677.888 174.117 686.482 174.917 691.788 C 175.360 694.723 187.067 698.510 189.929 699.295 C 201.819 702.552 247.317 700.968 259.630 700.367 C 271.448 699.790 314.299 693.518 326.113 692.861 C 336.716 692.271 377.803 699.410 386.162 692.861 C 390.883 689.162 397.545 666.652 396.886 660.692 C 396.099 653.579 378.506 632.843 375.439 626.378 C 356.433 586.308 340.314 468.549 314.346 417.602 C 300.326 390.096 247.823 364.414 248.800 353.270 C 250.547 333.341 450.913 264.419 491.567 240.113 C 524.011 220.716 571.664 165.500 546.723 107.810 C 527.773 63.976 470.724 15.419 398.907 48.738 Z"/>
</g>
<g id="specs_2">
<path fill="#ff0000" fill-rule="evenodd" stroke="none" d="M 431.883 141.201 C 439.627 141.201 445.874 147.448 445.874 155.192 C 445.874 162.936 439.627 169.183 431.883 169.183 C 424.139 169.183 417.891 162.936 417.891 155.192 C 417.891 147.448 424.139 141.201 431.883 141.201 Z"/>
<path fill="#ffff00" fill-rule="evenodd" stroke="none" d="M 380.354 674.985 C 380.354 667.241 386.601 660.994 394.345 660.994 C 402.089 660.994 408.336 667.241 408.336 674.985 C 408.336 682.729 402.089 688.976 394.345 688.976 C 386.601 688.976 380.354 682.729 380.354 674.985 M 192.461 685.909 C 192.461 678.165 198.708 671.918 206.452 671.918 C 214.196 671.918 220.444 678.165 220.444 685.909 C 220.444 693.653 214.196 699.900 206.452 699.900 C 198.708 699.900 192.461 693.653 192.461 685.909 Z"/>
<path fill="#00ff00" fill-rule="evenodd" stroke="none" d="M 189.622 219.197 C 189.622 211.453 195.870 205.206 203.614 205.206 C 211.358 205.206 217.605 211.453 217.605 219.197 C 217.605 226.941 211.358 233.189 203.614 233.189 C 195.870 233.189 189.622 226.941 189.622 219.197 M 332.959 310.234 C 332.959 302.490 339.206 296.242 346.950 296.242 C 354.694 296.242 360.942 302.490 360.942 310.234 C 360.942 317.978 354.694 324.225 346.950 324.225 C 339.206 324.225 332.959 317.978 332.959 310.234 Z"/>
<path fill="#00ffff" fill-rule="evenodd" stroke="none" d="M 531.484 65.661 C 539.228 65.661 545.475 71.908 545.475 79.652 C 545.475 87.396 539.227 93.643 531.484 93.643 C 523.740 93.643 517.492 87.396 517.492 79.652 C 517.492 71.908 523.740 65.661 531.484 65.661 Z"/>
<path fill="#00ffff" fill-rule="evenodd" stroke="none" d="M 358.988 57.303 C 366.732 57.303 372.979 63.550 372.979 71.294 C 372.979 79.038 366.732 85.285 358.988 85.285 C 351.244 85.285 344.996 79.038 344.996 71.294 C 344.996 63.550 351.244 57.303 358.988 57.303 Z"/>
<path fill="#0000ff" fill-rule="evenodd" stroke="none" d="M 442.539 2.965 C 450.283 2.965 456.530 9.212 456.530 16.956 C 456.530 24.700 450.283 30.947 442.539 30.947 C 434.795 30.947 428.548 24.700 428.548 16.956 C 428.548 9.212 434.795 2.965 442.539 2.965 Z"/>
</g>
</g>
</svg>
