<?xml version="1.0" encoding="utf-8"?>
<!-- Generator: Moho 12.5 build 22414 -->
<!DOCTYPE svg PUBLIC "-//W3C//DTD SVG 1.1//EN" "http://www.w3.org/Graphics/SVG/1.1/DTD/svg11.dtd">
<svg version="1.1" id="Frame_0" xmlns="http://www.w3.org/2000/svg" xmlns:xlink="http://www.w3.org/1999/xlink" width="720px" height="720px">
<g id="leg_eagle">
<g id="leg_eagle">
<path fill="#ffffff" fill-rule="evenodd" stroke="#000000" stroke-width="3" stroke-linejoin="round" d="M 372.134 658.138 C 372.134 658.138 347.869 658.138 347.866 658.138 C 347.867 658.143 359.999 714.275 360.000 714.280 C 360.001 714.275 372.133 658.143 372.134 658.138 M 459.123 610.937 C 459.143 610.356 467.598 597.423 468.414 598.162 C 498.113 625.010 491.641 648.099 491.643 648.104 C 491.640 648.100 477.706 622.806 459.123 610.937 M 260.877 610.937 C 260.857 610.356 252.402 597.423 251.586 598.162 C 221.887 625.010 228.359 648.099 228.357 648.104 C 228.360 648.100 242.294 622.806 260.877 610.937 Z"/>
<path fill="#ffffff" fill-rule="evenodd" stroke="#000000" stroke-width="3" stroke-linejoin="round" d="M 334.448 417.352 C 334.449 417.358 336.509 449.368 337.972 472.088 C 338.859 485.870 339.746 499.652 340.500 511.366 C 341.174 521.838 342.584 543.743 342.585 543.747 C 342.583 543.747 331.352 545.444 323.400 547.500 C 311.333 549.861 297.538 553.950 288.636 560.182 C 287.493 560.982 286.364 561.767 285.361 562.461 C 273.984 570.327 264.261 576.632 257.004 582.551 C 247.566 590.249 241.859 597.403 241.132 606.524 C 240.954 608.760 250.062 617.738 253.445 618.835 C 265.562 622.764 268.598 608.709 305.249 591.780 C 317.547 586.099 340.876 580.686 340.879 580.685 C 340.879 580.688 342.303 596.966 342.305 609.472 C 342.889 622.438 342.416 637.381 339.738 649.146 C 336.865 661.772 355.084 672.740 359.020 672.853 C 363.120 672.971 382.931 662.367 380.262 649.146 C 379.573 645.734 379.046 642.063 378.782 638.515 C 377.761 629.104 377.555 618.755 377.863 609.462 C 377.907 596.768 379.121 580.688 379.121 580.685 C 379.124 580.686 402.453 586.099 414.751 591.780 C 424.647 596.351 432.092 600.712 437.992 604.609 C 453.704 614.988 457.710 621.704 466.556 618.835 C 469.938 617.738 479.045 608.760 478.867 606.524 C 478.127 597.231 472.217 589.980 462.520 582.167 C 455.112 576.198 445.290 569.846 433.987 562.009 C 433.096 561.392 432.234 560.791 431.364 560.182 C 422.160 553.738 407.726 549.587 395.519 547.253 C 387.948 545.338 377.417 543.747 377.415 543.747 C 377.415 543.743 378.686 523.999 379.500 511.367 C 380.311 498.755 381.201 484.928 382.027 472.105 C 383.916 442.746 385.551 417.359 385.551 417.352 C 385.551 417.352 334.453 417.352 334.448 417.352 Z"/>
<path fill="none" stroke="#000000" stroke-width="3" stroke-linejoin="round" d="M 340.879 580.685 C 346.029 578.235 352.850 575.831 359.508 575.877 C 366.533 575.925 373.819 578.540 379.121 580.685 C 379.550 579.868 382.367 570.450 386.382 562.610 C 389.034 554.761 392.561 551.311 395.519 547.253 C 387.948 545.338 377.417 543.747 377.415 543.747 C 371.807 542.340 367.929 539.594 360.592 539.526 C 352.768 539.453 342.586 543.746 342.585 543.747 C 342.583 543.747 331.352 545.444 323.400 547.500 C 326.391 551.518 329.993 557.133 332.433 562.610 C 335.791 570.149 337.377 580.176 337.378 580.178 M 337.972 472.088 C 342.278 471.063 352.594 468.818 359.375 468.785 C 366.507 468.751 377.375 471.032 382.027 472.105 C 383.916 442.746 385.551 417.359 385.551 417.352 C 385.551 417.352 334.453 417.352 334.448 417.352 C 334.449 417.358 336.509 449.368 337.972 472.088 C 338.859 485.870 339.746 499.652 340.500 511.366 C 345.218 510.188 353.004 508.535 360.000 508.535 C 366.996 508.535 374.782 510.188 379.500 511.367 C 380.311 498.755 381.201 484.928 382.027 472.105 M 305.249 591.780 C 305.248 591.778 301.730 580.469 295.974 572.894 C 293.525 568.539 288.817 565.306 285.361 562.461 C 273.984 570.327 264.261 576.632 257.004 582.551 C 260.762 584.703 265.113 587.540 268.734 590.653 C 275.425 596.405 281.393 605.499 281.394 605.501 M 414.751 591.780 C 414.752 591.778 417.412 580.433 422.841 572.894 C 425.890 568.659 430.358 564.978 433.987 562.009 C 433.096 561.392 432.234 560.791 431.364 560.182 C 422.160 553.738 407.726 549.587 395.519 547.253 M 437.992 604.609 C 440.804 600.629 445.233 594.894 450.081 590.653 C 453.842 587.363 458.462 584.442 462.520 582.167 C 455.112 576.198 445.290 569.846 433.987 562.009 M 342.305 609.472 C 347.128 607.748 353.769 605.117 360.000 605.114 C 366.341 605.111 373.111 607.808 377.863 609.462 C 377.907 596.768 379.121 580.688 379.121 580.685 C 379.124 580.686 402.453 586.099 414.751 591.780 C 424.647 596.351 432.092 600.712 437.992 604.609 C 453.704 614.988 457.710 621.704 466.556 618.835 C 469.938 617.738 479.045 608.760 478.867 606.524 C 478.127 597.231 472.217 589.980 462.520 582.167 M 341.791 638.886 C 341.793 638.886 351.655 635.997 360.000 635.864 C 369.178 635.718 374.042 637.363 378.782 638.515 C 377.761 629.104 377.555 618.755 377.863 609.462 M 377.415 543.747 C 377.415 543.743 378.686 523.999 379.500 511.367 M 380.262 649.146 C 379.573 645.734 379.046 642.063 378.782 638.515 M 359.020 672.853 C 363.120 672.971 382.931 662.367 380.262 649.146 M 339.738 649.146 C 336.865 661.772 355.084 672.740 359.020 672.853 M 342.305 609.472 C 342.889 622.438 342.416 637.381 339.738 649.146 M 340.879 580.685 C 340.879 580.688 342.303 596.966 342.305 609.472 M 305.249 591.780 C 317.547 586.099 340.876 580.686 340.879 580.685 M 253.445 618.835 C 265.562 622.764 268.598 608.709 305.249 591.780 M 241.132 606.524 C 240.954 608.760 250.062 617.738 253.445 618.835 M 257.004 582.551 C 247.566 590.249 241.859 597.403 241.132 606.524 M 288.636 560.182 C 287.493 560.982 286.364 561.767 285.361 562.461 M 323.400 547.500 C 311.333 549.861 297.538 553.950 288.636 560.182 M 340.500 511.366 C 341.174 521.838 342.584 543.743 342.585 543.747 "/>
<path fill="#ffffff" fill-rule="evenodd" stroke="none" d="M 360.000 456.804 C 374.954 426.896 399.675 421.484 412.844 390.748 C 424.478 363.595 416.048 337.510 412.844 324.693 C 399.633 271.849 320.366 271.850 307.156 324.693 C 303.952 337.509 295.522 363.595 307.156 390.748 C 320.325 421.484 345.046 426.896 360.000 456.804 Z"/>
<path fill="none" stroke="#000000" stroke-width="3" stroke-linejoin="round" d="M 360.000 298.271 C 360.000 346.712 360.000 395.152 360.000 443.593 M 307.156 390.748 C 320.325 421.484 345.046 426.896 360.000 456.804 C 374.954 426.896 399.675 421.484 412.844 390.748 C 424.478 363.595 416.048 337.510 412.844 324.693 C 399.633 271.849 320.366 271.850 307.156 324.693 C 303.952 337.509 295.522 363.595 307.156 390.748 "/>
<path fill="#ffffff" fill-rule="evenodd" stroke="none" d="M 281.501 403.616 C 303.686 378.597 328.966 379.768 349.641 353.488 C 367.906 330.271 366.515 302.893 366.737 289.683 C 367.653 235.220 291.087 214.706 264.650 262.329 C 258.238 273.880 243.344 296.894 247.553 326.134 C 252.319 359.231 274.797 370.856 281.501 403.616 Z"/>
<path fill="none" stroke="#000000" stroke-width="3" stroke-linejoin="round" d="M 322.532 250.484 C 309.995 297.274 297.457 344.065 284.920 390.855 M 247.553 326.134 C 252.319 359.231 274.797 370.856 281.501 403.616 C 303.686 378.597 328.966 379.768 349.641 353.488 C 367.906 330.271 366.515 302.893 366.737 289.683 C 367.653 235.220 291.087 214.706 264.650 262.329 C 258.238 273.880 243.344 296.894 247.553 326.134 "/>
<path fill="#ffffff" fill-rule="evenodd" stroke="none" d="M 438.499 403.616 C 445.203 370.856 467.682 359.231 472.447 326.134 C 476.656 296.895 461.762 273.880 455.350 262.330 C 428.912 214.705 352.346 235.222 353.263 289.684 C 353.485 302.892 352.094 330.271 370.359 353.488 C 391.034 379.768 416.314 378.597 438.499 403.616 Z"/>
<path fill="none" stroke="#000000" stroke-width="3" stroke-linejoin="round" d="M 397.468 250.485 C 410.005 297.275 422.543 344.065 435.080 390.855 M 370.359 353.488 C 391.034 379.768 416.314 378.597 438.499 403.616 C 445.203 370.856 467.682 359.231 472.447 326.134 C 476.656 296.895 461.762 273.880 455.350 262.330 C 428.912 214.705 352.346 235.222 353.263 289.684 C 353.485 302.892 352.094 330.271 370.359 353.488 "/>
<path fill="#ffffff" fill-rule="evenodd" stroke="none" d="M 360.000 306.040 C 374.954 276.132 399.676 270.720 412.845 239.984 C 424.479 212.831 416.049 186.746 412.845 173.929 C 399.633 121.085 320.366 121.086 307.156 173.929 C 303.952 186.745 295.522 212.831 307.156 239.984 C 320.325 270.720 345.046 276.132 360.000 306.040 Z"/>
<path fill="none" stroke="#000000" stroke-width="3" stroke-linejoin="round" d="M 360.000 147.507 C 360.000 195.947 360.000 244.388 360.000 292.829 M 307.156 239.984 C 320.325 270.720 345.046 276.132 360.000 306.040 C 374.954 276.132 399.676 270.720 412.845 239.984 C 424.479 212.831 416.049 186.746 412.845 173.929 C 399.633 121.085 320.366 121.086 307.156 173.929 C 303.952 186.745 295.522 212.831 307.156 239.984 "/>
<path fill="#ffffff" fill-rule="evenodd" stroke="none" d="M 484.403 303.339 C 491.107 270.580 513.585 258.954 518.350 225.857 C 522.560 196.618 507.666 173.603 501.254 162.053 C 474.816 114.429 398.250 134.946 399.167 189.407 C 399.389 202.616 397.998 229.994 416.263 253.211 C 436.938 279.491 462.218 278.320 484.403 303.339 Z"/>
<path fill="none" stroke="#000000" stroke-width="3" stroke-linejoin="round" d="M 442.768 150.208 C 455.305 196.998 467.842 243.788 480.380 290.578 M 416.263 253.211 C 436.938 279.491 462.218 278.320 484.403 303.339 C 491.107 270.580 513.585 258.954 518.350 225.857 C 522.560 196.618 507.666 173.603 501.254 162.053 C 474.816 114.429 398.250 134.946 399.167 189.407 C 399.389 202.616 397.998 229.994 416.263 253.211 "/>
<path fill="#ffffff" fill-rule="evenodd" stroke="none" d="M 235.597 303.339 C 257.782 278.320 283.062 279.491 303.737 253.211 C 322.002 229.994 320.611 202.616 320.833 189.407 C 321.749 134.944 245.183 114.430 218.746 162.053 C 212.334 173.603 197.440 196.618 201.650 225.857 C 206.415 258.954 228.893 270.580 235.597 303.339 Z"/>
<path fill="none" stroke="#000000" stroke-width="3" stroke-linejoin="round" d="M 276.628 150.208 C 264.091 196.998 251.554 243.788 239.016 290.578 M 201.650 225.857 C 206.415 258.954 228.893 270.580 235.597 303.339 C 257.782 278.320 283.062 279.491 303.737 253.211 C 322.002 229.994 320.611 202.616 320.833 189.407 C 321.749 134.944 245.183 114.430 218.746 162.053 C 212.334 173.603 197.440 196.618 201.650 225.857 "/>
<path fill="#ffffff" fill-rule="evenodd" stroke="none" d="M 238.312 186.486 C 266.216 168.062 290.332 175.736 317.104 155.703 C 340.756 138.004 346.498 111.198 350.132 98.497 C 365.113 46.127 296.465 6.495 258.603 45.653 C 249.420 55.150 229.076 73.526 225.575 102.858 C 221.612 136.061 240.315 153.108 238.312 186.486 Z"/>
<path fill="none" stroke="#000000" stroke-width="3" stroke-linejoin="round" d="M 317.579 49.192 C 293.358 91.143 269.138 133.094 244.917 175.045 M 225.575 102.858 C 221.612 136.061 240.315 153.108 238.312 186.486 C 266.216 168.062 290.332 175.736 317.104 155.703 C 340.756 138.004 346.498 111.198 350.132 98.497 C 365.113 46.127 296.465 6.495 258.603 45.653 C 249.420 55.150 229.076 73.526 225.575 102.858 "/>
<path fill="#ffffff" fill-rule="evenodd" stroke="none" d="M 483.796 185.432 C 481.793 152.054 500.497 135.006 496.533 101.804 C 493.032 72.472 472.689 54.096 463.506 44.599 C 425.642 5.440 356.996 45.075 371.977 97.443 C 375.610 110.144 381.352 136.950 405.004 154.648 C 431.777 174.682 455.892 167.008 483.796 185.432 Z"/>
<path fill="none" stroke="#000000" stroke-width="3" stroke-linejoin="round" d="M 404.530 48.138 C 428.750 90.089 452.971 132.040 477.191 173.991 M 405.004 154.648 C 431.777 174.682 455.892 167.008 483.796 185.432 C 481.793 152.054 500.497 135.006 496.533 101.804 C 493.032 72.472 472.689 54.096 463.506 44.599 C 425.642 5.440 356.996 45.075 371.977 97.443 C 375.610 110.144 381.352 136.950 405.004 154.648 "/>
<path fill="#ffffff" fill-rule="evenodd" stroke="none" d="M 360.000 184.037 C 374.954 154.129 399.675 148.717 412.844 117.982 C 424.478 90.828 416.048 64.743 412.844 51.927 C 399.633 -0.918 320.366 -0.916 307.156 51.927 C 303.952 64.743 295.522 90.828 307.156 117.982 C 320.325 148.717 345.046 154.129 360.000 184.037 Z"/>
<path fill="none" stroke="#000000" stroke-width="3" stroke-linejoin="round" d="M 360.000 25.504 C 360.000 73.945 360.000 122.385 360.000 170.826 M 307.156 117.982 C 320.325 148.717 345.046 154.129 360.000 184.037 C 374.954 154.129 399.675 148.717 412.844 117.982 C 424.478 90.828 416.048 64.743 412.844 51.927 C 399.633 -0.918 320.366 -0.916 307.156 51.927 C 303.952 64.743 295.522 90.828 307.156 117.982 "/>
</g>
<g id="specs_2">
<path fill="#ff0000" fill-rule="evenodd" stroke="none" d="M 360.000 109.962 C 360.001 109.958 372.432 75.152 372.433 75.149 C 372.432 75.150 360.001 86.716 360.000 86.717 C 359.999 86.716 347.568 75.150 347.567 75.149 C 347.568 75.152 359.999 109.958 360.000 109.962 Z"/>
<path fill="#0000ff" fill-rule="evenodd" stroke="none" d="M 360.000 1.154 C 360.001 1.156 367.221 21.374 367.222 21.376 C 367.221 21.375 360.001 14.657 360.000 14.657 C 359.999 14.657 352.779 21.375 352.778 21.376 C 352.779 21.374 359.999 1.156 360.000 1.154 Z"/>
<path fill="#00ff00" fill-rule="evenodd" stroke="none" d="M 185.627 217.383 C 185.629 217.382 206.687 209.741 206.689 209.740 C 206.689 209.741 199.717 217.311 199.716 217.311 C 199.717 217.312 206.764 224.811 206.765 224.811 C 206.763 224.811 185.629 217.384 185.627 217.383 Z"/>
<path fill="#ffff00" fill-rule="evenodd" stroke="none" d="M 226.650 638.042 C 226.652 638.040 238.984 611.190 238.985 611.187 C 238.985 611.188 239.634 624.747 239.634 624.748 C 239.635 624.748 253.205 625.077 253.206 625.077 C 253.204 625.078 226.653 638.041 226.650 638.042 Z"/>
<path fill="#ffff00" fill-rule="evenodd" stroke="none" d="M 493.350 637.714 C 493.348 637.711 480.480 611.113 480.479 611.110 C 480.479 611.112 480.102 624.681 480.102 624.682 C 480.101 624.682 466.540 625.283 466.538 625.283 C 466.541 625.284 493.347 637.712 493.350 637.714 Z"/>
<path fill="#00ff00" fill-rule="evenodd" stroke="none" d="M 534.373 217.383 C 534.371 217.382 513.313 209.741 513.311 209.740 C 513.311 209.741 520.284 217.311 520.284 217.311 C 520.284 217.312 513.236 224.811 513.235 224.811 C 513.237 224.811 534.371 217.384 534.373 217.383 Z"/>
<path fill="#00ffff" fill-rule="evenodd" stroke="none" d="M 467.742 63.039 C 467.741 63.041 459.689 85.778 459.688 85.780 C 459.688 85.779 458.163 74.804 458.163 74.802 C 458.162 74.802 447.106 75.533 447.105 75.533 C 447.107 75.531 467.740 63.040 467.742 63.039 Z"/>
<path fill="#00ffff" fill-rule="evenodd" stroke="none" d="M 252.258 63.793 C 252.259 63.795 261.809 85.944 261.810 85.946 C 261.810 85.945 262.600 74.892 262.600 74.891 C 262.601 74.891 273.681 74.883 273.682 74.883 C 273.680 74.882 252.260 63.794 252.258 63.793 Z"/>
<path fill="#be0027" fill-rule="evenodd" stroke="none" d="M 360.000 710.206 C 360.001 710.202 372.432 675.397 372.433 675.393 C 372.432 675.394 360.001 686.960 360.000 686.961 C 359.999 686.960 347.568 675.394 347.567 675.393 C 347.568 675.397 359.999 710.202 360.000 710.206 Z"/>
</g>
</g>
</svg>
