<?xml version="1.0" encoding="utf-8"?>
<!-- Generator: Moho 12.5 build 22414 -->
<!DOCTYPE svg PUBLIC "-//W3C//DTD SVG 1.1//EN" "http://www.w3.org/Graphics/SVG/1.1/DTD/svg11.dtd">
<svg version="1.1" id="Frame_0" xmlns="http://www.w3.org/2000/svg" xmlns:xlink="http://www.w3.org/1999/xlink" width="720px" height="720px">
<g id="leg_pointe">
<g id="leg_pointe">
<path fill="#ffffff" fill-rule="evenodd" stroke="#000000" stroke-width="4" stroke-linejoin="round" d="M 368.663 11.128 C 407.605 14.551 440.729 50.699 447.711 89.163 C 466.130 190.626 419.847 262.484 399.466 355.560 C 396.263 370.188 393.316 384.159 388.996 399.655 C 381.487 426.584 399.051 518.589 393.640 582.860 C 387.402 656.958 383.061 685.654 371.973 697.320 C 364.668 705.004 363.599 692.017 363.411 677.590 C 362.582 614.166 333.762 624.148 337.144 592.550 C 338.311 581.641 357.909 584.081 362.180 573.975 C 384.441 521.290 308.253 477.450 309.411 420.267 C 310.144 384.038 330.859 374.918 334.231 348.359 C 342.055 286.734 314.307 278.603 313.789 173.042 C 313.696 153.896 265.285 135.590 272.289 78.990 C 278.915 25.444 327.339 7.495 368.663 11.128 Z"/>
</g>
<g id="specs_2">
<path fill="#ff00ff" fill-rule="evenodd" stroke="none" d="M 312.873 137.132 C 312.883 137.132 407.117 137.132 407.127 137.132 C 407.127 137.123 407.127 42.888 407.127 42.878 C 407.117 42.878 312.883 42.878 312.873 42.878 C 312.873 42.888 312.873 137.123 312.873 137.132 Z"/>
<path fill="#ff0000" fill-rule="evenodd" stroke="none" d="M 377.122 104.190 C 377.119 104.189 343.717 88.367 343.714 88.365 C 343.716 88.365 360.684 87.754 360.685 87.754 C 360.686 87.752 361.297 70.784 361.297 70.783 C 361.298 70.786 377.120 104.187 377.122 104.190 Z"/>
<path fill="#0000ff" fill-rule="evenodd" stroke="none" d="M 360.000 1.405 C 360.001 1.407 367.221 21.625 367.222 21.627 C 367.221 21.627 360.001 14.909 360.000 14.908 C 359.999 14.909 352.779 21.627 352.778 21.627 C 352.779 21.625 359.999 1.407 360.000 1.405 Z"/>
<path fill="#00ff00" fill-rule="evenodd" stroke="none" d="M 320.257 355.228 C 320.259 355.227 340.440 347.905 340.442 347.904 C 340.442 347.905 333.760 355.159 333.759 355.160 C 333.760 355.161 340.515 362.347 340.515 362.348 C 340.513 362.347 320.259 355.229 320.257 355.228 Z"/>
<path fill="#ffff00" fill-rule="evenodd" stroke="none" d="M 281.067 147.164 C 281.068 147.162 290.029 127.653 290.030 127.651 C 290.030 127.652 290.501 137.503 290.502 137.504 C 290.503 137.504 300.362 137.743 300.363 137.743 C 300.361 137.744 281.069 147.163 281.067 147.164 Z"/>
<path fill="#ffff00" fill-rule="evenodd" stroke="none" d="M 459.513 146.925 C 459.512 146.923 450.162 127.597 450.161 127.595 C 450.161 127.596 449.887 137.456 449.887 137.457 C 449.886 137.457 440.033 137.893 440.032 137.893 C 440.034 137.894 459.511 146.924 459.513 146.925 Z"/>
<path fill="#00ff00" fill-rule="evenodd" stroke="none" d="M 411.379 355.228 C 411.377 355.227 391.196 347.905 391.194 347.904 C 391.195 347.905 397.876 355.159 397.877 355.160 C 397.876 355.161 391.122 362.347 391.121 362.348 C 391.123 362.347 411.377 355.229 411.379 355.228 Z"/>
<path fill="#00ffff" fill-rule="evenodd" stroke="none" d="M 433.845 32.995 C 433.844 32.997 426.677 53.234 426.676 53.236 C 426.676 53.235 425.319 43.466 425.319 43.465 C 425.318 43.465 415.477 44.115 415.476 44.115 C 415.478 44.114 433.843 32.996 433.845 32.995 Z"/>
<path fill="#00ffff" fill-rule="evenodd" stroke="none" d="M 278.565 33.666 C 278.565 33.668 287.066 53.382 287.067 53.384 C 287.067 53.383 287.770 43.545 287.770 43.544 C 287.771 43.544 297.633 43.537 297.634 43.537 C 297.632 43.536 278.567 33.667 278.565 33.666 Z"/>
<path fill="#be0027" fill-rule="evenodd" stroke="none" d="M 369.627 713.156 C 369.629 713.152 382.059 678.347 382.060 678.343 C 382.059 678.344 369.629 689.910 369.627 689.911 C 369.626 689.910 357.196 678.344 357.194 678.343 C 357.196 678.347 369.626 713.152 369.627 713.156 Z"/>
</g>
</g>
</svg>
