<?xml version="1.0" encoding="utf-8"?>
<!-- Generator: Moho 12.3 build 22017 -->
<!DOCTYPE svg PUBLIC "-//W3C//DTD SVG 1.1//EN" "http://www.w3.org/Graphics/SVG/1.1/DTD/svg11.dtd">
<svg version="1.1" id="Frame_0" xmlns="http://www.w3.org/2000/svg" xmlns:xlink="http://www.w3.org/1999/xlink" width="720px" height="720px">
<g id="lightning">
<g id="lightning">
<path fill="#ffffff" fill-rule="evenodd" stroke="#000000" stroke-width="4" stroke-linecap="round" stroke-linejoin="round" d="M 350.712 59.706 C 350.697 59.738 192.842 378.543 192.826 378.575 C 192.838 378.575 313.552 378.575 313.564 378.575 C 313.549 378.606 164.979 694.316 164.964 694.348 C 164.996 694.308 477.610 295.029 477.641 294.989 C 477.628 294.988 344.535 288.798 344.521 288.797 C 344.542 288.771 555.013 25.677 555.036 25.652 C 555.016 25.654 350.733 59.702 350.712 59.706 Z"/>
</g>
<g id="arrows">
<path fill="#ff00ff" fill-rule="evenodd" stroke="none" d="M 296.354 185.216 C 296.362 185.220 382.321 233.135 382.330 233.139 C 382.335 233.131 430.249 147.172 430.254 147.163 C 430.245 147.158 344.286 99.245 344.277 99.240 C 344.272 99.248 296.359 185.207 296.354 185.216 Z"/>
<path fill="#ff0000" fill-rule="evenodd" stroke="none" d="M 410.449 103.040 C 410.449 103.037 413.789 66.228 413.789 66.225 C 413.790 66.226 420.212 81.944 420.213 81.946 C 420.215 81.945 436.354 76.671 436.355 76.671 C 436.353 76.673 410.451 103.038 410.449 103.040 Z"/>
<path fill="#0000ff" fill-rule="evenodd" stroke="none" d="M 442.590 6.760 C 442.590 6.762 449.811 26.980 449.812 26.982 C 449.811 26.981 442.590 20.263 442.590 20.262 C 442.589 20.263 435.368 26.981 435.368 26.982 C 435.368 26.980 442.589 6.762 442.590 6.760 Z"/>
<path fill="#00ff00" fill-rule="evenodd" stroke="none" d="M 222.997 287.372 C 222.999 287.373 244.248 290.435 244.250 290.435 C 244.250 290.435 234.936 293.681 234.935 293.681 C 234.935 293.682 237.501 303.205 237.501 303.206 C 237.500 303.204 222.998 287.374 222.997 287.372 Z"/>
<path fill="#ffff00" fill-rule="evenodd" stroke="none" d="M 193.246 378.857 C 193.247 378.855 202.208 359.346 202.209 359.344 C 202.209 359.345 202.681 369.197 202.681 369.198 C 202.682 369.198 212.541 369.437 212.542 369.437 C 212.540 369.438 193.248 378.856 193.246 378.857 Z"/>
<path fill="#ffff00" fill-rule="evenodd" stroke="none" d="M 419.061 387.428 C 419.060 387.426 409.710 368.100 409.709 368.098 C 409.709 368.099 409.435 377.958 409.435 377.959 C 409.434 377.959 399.581 378.396 399.580 378.396 C 399.582 378.397 419.059 387.427 419.061 387.428 Z"/>
<path fill="#00ff00" fill-rule="evenodd" stroke="none" d="M 477.971 294.666 C 477.969 294.666 456.501 294.912 456.499 294.912 C 456.500 294.913 465.307 299.352 465.308 299.353 C 465.308 299.354 461.513 308.458 461.513 308.458 C 461.515 308.457 477.969 294.667 477.971 294.666 Z"/>
<path fill="#00ffff" fill-rule="evenodd" stroke="none" d="M 552.829 25.458 C 552.828 25.460 541.101 43.443 541.100 43.444 C 541.100 43.443 542.079 33.629 542.079 33.628 C 542.078 33.628 532.361 31.944 532.360 31.944 C 532.362 31.943 552.827 25.458 552.829 25.458 Z"/>
<path fill="#00ffff" fill-rule="evenodd" stroke="none" d="M 343.395 53.416 C 343.396 53.418 351.896 73.132 351.897 73.134 C 351.897 73.133 352.600 63.295 352.600 63.294 C 352.601 63.294 362.463 63.286 362.464 63.286 C 362.462 63.285 343.397 53.417 343.395 53.416 Z"/>
</g>
</g>
</svg>
