<?xml version="1.0" encoding="utf-8"?>
<!-- Generator: Moho 12.5 build 22414 -->
<!DOCTYPE svg PUBLIC "-//W3C//DTD SVG 1.1//EN" "http://www.w3.org/Graphics/SVG/1.1/DTD/svg11.dtd">
<svg version="1.1" id="Frame_0" xmlns="http://www.w3.org/2000/svg" xmlns:xlink="http://www.w3.org/1999/xlink" width="720px" height="720px">
<g id="lightning">
<g id="lightning">
<path fill="#ffffff" fill-rule="evenodd" stroke="#000000" stroke-width="4" stroke-linecap="round" stroke-linejoin="round" d="M 367.454 42.660 C 367.437 42.695 192.844 395.962 192.826 395.997 C 192.838 395.997 313.552 395.997 313.564 395.997 C 313.549 396.029 164.979 711.739 164.964 711.770 C 164.996 711.730 477.610 312.452 477.641 312.412 C 477.628 312.411 344.535 306.221 344.521 306.220 C 344.542 306.194 555.011 43.098 555.036 43.075 C 555.018 43.075 367.473 42.660 367.454 42.660 Z"/>
</g>
<g id="specs">
<path fill="#ff0000" fill-rule="evenodd" stroke="none" d="M 407.246 127.670 C 407.246 127.666 410.586 90.858 410.586 90.854 C 410.587 90.856 417.009 106.574 417.010 106.575 C 417.012 106.575 433.151 101.301 433.152 101.300 C 433.150 101.303 407.248 127.667 407.246 127.670 Z"/>
<path fill="#0000ff" fill-rule="evenodd" stroke="none" d="M 455.392 25.844 C 455.393 25.846 462.614 46.064 462.614 46.066 C 462.614 46.066 455.393 39.347 455.392 39.347 C 455.391 39.347 448.171 46.066 448.170 46.066 C 448.171 46.064 455.391 25.846 455.392 25.844 Z"/>
<path fill="#00ff00" fill-rule="evenodd" stroke="none" d="M 222.997 304.795 C 222.999 304.795 244.249 307.857 244.251 307.858 C 244.250 307.858 234.936 311.103 234.935 311.104 C 234.935 311.105 237.501 320.627 237.502 320.628 C 237.500 320.627 222.998 304.796 222.997 304.795 Z"/>
<path fill="#ffff00" fill-rule="evenodd" stroke="none" d="M 193.246 396.280 C 193.247 396.278 202.208 376.769 202.209 376.767 C 202.209 376.768 202.680 386.619 202.680 386.620 C 202.681 386.620 212.541 386.859 212.542 386.859 C 212.540 386.860 193.248 396.279 193.246 396.280 Z"/>
<path fill="#ffff00" fill-rule="evenodd" stroke="none" d="M 419.061 404.851 C 419.060 404.849 409.710 385.523 409.709 385.521 C 409.709 385.522 409.435 395.381 409.435 395.382 C 409.434 395.382 399.581 395.819 399.580 395.819 C 399.582 395.820 419.059 404.850 419.061 404.851 Z"/>
<path fill="#00ff00" fill-rule="evenodd" stroke="none" d="M 477.971 312.089 C 477.969 312.089 456.501 312.335 456.499 312.335 C 456.500 312.335 465.307 316.775 465.308 316.775 C 465.308 316.776 461.513 325.880 461.513 325.881 C 461.515 325.880 477.969 312.090 477.971 312.089 Z"/>
<path fill="#00ffff" fill-rule="evenodd" stroke="none" d="M 552.829 42.880 C 552.828 42.882 541.101 60.865 541.100 60.867 C 541.100 60.866 542.079 51.052 542.079 51.051 C 542.078 51.051 532.361 49.367 532.360 49.367 C 532.362 49.366 552.827 42.881 552.829 42.880 Z"/>
<path fill="#00ffff" fill-rule="evenodd" stroke="none" d="M 360.137 34.400 C 360.138 34.402 368.638 54.117 368.639 54.119 C 368.639 54.118 369.341 44.280 369.341 44.279 C 369.343 44.279 379.205 44.271 379.206 44.271 C 379.204 44.270 360.139 34.401 360.137 34.400 Z"/>
<path fill="#be0027" fill-rule="evenodd" stroke="none" d="M 446.726 50.286 C 446.724 50.288 428.261 69.838 428.260 69.840 C 428.261 69.840 439.925 65.771 439.926 65.771 C 439.926 65.772 444.824 77.113 444.824 77.114 C 444.825 77.112 446.725 50.288 446.726 50.286 Z"/>
</g>
</g>
</svg>
