<?xml version="1.0" encoding="utf-8"?>
<!-- Generator: Moho 12.5 build 22414 -->
<!DOCTYPE svg PUBLIC "-//W3C//DTD SVG 1.1//EN" "http://www.w3.org/Graphics/SVG/1.1/DTD/svg11.dtd">
<svg version="1.1" id="Frame_0" xmlns="http://www.w3.org/2000/svg" xmlns:xlink="http://www.w3.org/1999/xlink" width="720px" height="720px">
<g id="lion_paw">
<g id="lion_paw_2">
<path fill="#ffffff" fill-rule="evenodd" stroke="#000000" stroke-width="4" stroke-linejoin="round" d="M 330.330 617.153 C 330.333 617.148 341.540 583.130 360.000 575.711 C 377.867 580.566 389.667 617.148 389.670 617.153 C 389.666 617.160 388.155 648.750 360.000 695.519 C 331.587 647.664 330.334 617.160 330.330 617.153 M 561.868 605.740 C 561.861 605.738 545.018 581.195 490.278 580.574 C 490.281 580.572 507.893 565.073 513.802 556.034 C 517.599 550.226 521.496 535.389 522.496 535.994 C 577.572 569.310 561.865 605.733 561.868 605.740 M 158.132 605.740 C 158.139 605.738 174.982 581.195 229.722 580.574 C 229.719 580.572 212.107 565.073 206.198 556.034 C 202.401 550.226 198.504 535.389 197.504 535.994 C 142.428 569.310 158.135 605.733 158.132 605.740 Z"/>
<path fill="#ffffff" fill-rule="evenodd" stroke="none" d="M 222.844 451.517 C 239.715 441.603 267.470 437.760 278.001 438.060 C 292.486 359.035 288.151 65.387 288.608 61.235 C 294.924 3.862 424.410 1.665 431.392 61.235 C 431.771 64.461 427.514 359.035 441.999 438.060 C 452.530 437.760 480.285 441.603 497.156 451.517 C 532.810 472.471 550.799 516.825 529.325 552.168 C 510.669 582.876 470.704 588.057 439.365 570.481 C 423.052 607.763 395.543 625.878 361.102 625.886 C 324.711 626.995 295.655 604.801 280.635 570.481 C 249.296 588.057 209.331 582.876 190.675 552.168 C 169.201 516.825 187.190 472.471 222.844 451.517 Z"/>
<path fill="none" stroke="#000000" stroke-width="4" stroke-linejoin="round" d="M 297.043 486.789 C 264.475 519.734 278.650 564.244 280.635 570.481 C 249.296 588.057 209.331 582.876 190.675 552.168 C 169.201 516.825 187.190 472.471 222.844 451.517 C 239.715 441.603 267.470 437.760 278.001 438.060 C 292.486 359.035 288.151 65.387 288.608 61.235 C 294.924 3.862 424.410 1.665 431.392 61.235 C 431.771 64.461 427.514 359.035 441.999 438.060 C 452.530 437.760 480.285 441.603 497.156 451.517 C 532.810 472.471 550.799 516.825 529.325 552.168 C 510.669 582.876 470.704 588.057 439.365 570.481 C 441.508 564.280 453.186 515.485 424.179 486.693 M 361.102 625.886 C 395.543 625.878 423.052 607.763 439.365 570.481 M 280.635 570.481 C 295.655 604.801 324.711 626.995 361.102 625.886 "/>
</g>
<g id="specs_2">
<path fill="#ff0000" fill-rule="evenodd" stroke="none" d="M 360.000 111.929 C 360.001 111.925 372.416 77.163 372.417 77.159 C 372.416 77.160 360.001 88.712 360.000 88.713 C 359.999 88.712 347.584 77.160 347.583 77.159 C 347.584 77.163 359.999 111.925 360.000 111.929 Z"/>
<path fill="#0000ff" fill-rule="evenodd" stroke="none" d="M 360.000 6.656 C 360.001 6.658 367.212 26.851 367.213 26.853 C 367.212 26.853 360.001 20.143 360.000 20.142 C 359.999 20.143 352.788 26.853 352.787 26.853 C 352.788 26.851 359.999 6.658 360.000 6.656 Z"/>
<path fill="#00ff00" fill-rule="evenodd" stroke="none" d="M 272.456 360.996 C 272.458 360.995 291.400 354.122 291.402 354.121 C 291.401 354.122 285.130 360.931 285.129 360.932 C 285.130 360.933 291.469 367.678 291.470 367.678 C 291.468 367.678 272.458 360.997 272.456 360.996 Z"/>
<path fill="#ffff00" fill-rule="evenodd" stroke="none" d="M 150.677 628.939 C 150.678 628.937 159.627 609.452 159.628 609.450 C 159.628 609.451 160.099 619.290 160.099 619.291 C 160.100 619.291 169.947 619.530 169.948 619.530 C 169.947 619.531 150.679 628.938 150.677 628.939 Z"/>
<path fill="#ffff00" fill-rule="evenodd" stroke="none" d="M 569.323 628.700 C 569.322 628.698 559.984 609.396 559.983 609.394 C 559.983 609.395 559.709 619.242 559.709 619.243 C 559.708 619.243 549.867 619.680 549.866 619.680 C 549.868 619.680 569.321 628.699 569.323 628.700 Z"/>
<path fill="#00ff00" fill-rule="evenodd" stroke="none" d="M 447.544 360.996 C 447.542 360.995 428.600 354.122 428.598 354.121 C 428.599 354.122 434.870 360.931 434.871 360.932 C 434.870 360.933 428.531 367.678 428.530 367.678 C 428.532 367.678 447.542 360.997 447.544 360.996 Z"/>
<path fill="#00ffff" fill-rule="evenodd" stroke="none" d="M 432.350 33.785 C 432.349 33.787 426.301 50.865 426.300 50.867 C 426.300 50.866 425.155 42.622 425.154 42.621 C 425.154 42.621 416.849 43.169 416.848 43.169 C 416.850 43.168 432.348 33.786 432.350 33.785 Z"/>
<path fill="#00ffff" fill-rule="evenodd" stroke="none" d="M 287.762 34.351 C 287.763 34.353 294.936 50.990 294.937 50.991 C 294.937 50.991 295.530 42.689 295.530 42.688 C 295.531 42.688 303.854 42.681 303.855 42.681 C 303.853 42.680 287.764 34.352 287.762 34.351 Z"/>
<path fill="#be0027" fill-rule="evenodd" stroke="none" d="M 360.000 709.575 C 360.001 709.571 372.416 674.809 372.417 674.805 C 372.416 674.806 360.001 686.358 360.000 686.359 C 359.999 686.358 347.584 674.806 347.583 674.805 C 347.584 674.809 359.999 709.571 360.000 709.575 Z"/>
</g>
</g>
</svg>
