<?xml version="1.0" encoding="utf-8"?>
<!-- Generator: Moho 12.5 build 22414 -->
<!DOCTYPE svg PUBLIC "-//W3C//DTD SVG 1.1//EN" "http://www.w3.org/Graphics/SVG/1.1/DTD/svg11.dtd">
<svg version="1.1" id="Frame_0" xmlns="http://www.w3.org/2000/svg" xmlns:xlink="http://www.w3.org/1999/xlink" width="720px" height="720px">
<g id="lion_paw">
<g id="lion_paw">
<path fill="#ffffff" fill-rule="evenodd" stroke="#000000" stroke-width="4" stroke-linejoin="round" d="M 280.000 40.000 C 280.051 31.183 439.949 31.183 440.000 40.000 C 440.458 119.952 420.000 340.001 460.000 500.000 C 462.673 510.692 257.327 510.692 260.000 500.000 C 300.000 340.001 279.542 119.952 280.000 40.000 Z"/>
<path fill="#ffffff" fill-rule="evenodd" stroke="#000000" stroke-width="4" stroke-linejoin="round" d="M 441.102 542.863 C 441.102 515.410 427.371 491.247 406.742 477.159 C 431.152 457.388 468.236 458.276 497.156 475.987 C 532.423 497.586 550.924 541.370 529.325 576.638 C 507.727 611.906 460.317 615.326 425.049 593.728 C 434.498 579.361 441.102 561.903 441.102 542.863 Z"/>
<path fill="#ffffff" fill-rule="evenodd" stroke="#000000" stroke-width="4" stroke-linejoin="round" d="M 278.898 542.863 C 278.898 561.903 285.562 579.322 294.951 593.728 C 259.683 615.326 212.273 611.906 190.675 576.638 C 169.076 541.370 187.577 497.586 222.844 475.987 C 251.764 458.276 288.848 457.388 313.258 477.159 C 292.556 491.140 278.898 515.410 278.898 542.863 Z"/>
<path fill="none" stroke="#ffffff" stroke-width="1" stroke-linecap="butt" stroke-linejoin="round" d="M 425.049 593.728 C 434.498 579.361 441.102 561.903 441.102 542.863 "/>
<path fill="none" stroke="#ffffff" stroke-width="1" stroke-linecap="butt" stroke-linejoin="round" d="M 441.102 542.863 C 441.102 515.410 427.371 491.247 406.742 477.159 "/>
<path fill="none" stroke="#ffffff" stroke-width="1" stroke-linecap="butt" stroke-linejoin="round" d="M 313.258 477.159 C 292.556 491.140 278.898 515.410 278.898 542.863 "/>
<path fill="none" stroke="#ffffff" stroke-width="1" stroke-linecap="butt" stroke-linejoin="round" d="M 278.898 542.863 C 278.898 561.903 285.562 579.322 294.951 593.728 "/>
<path fill="#ffffff" fill-rule="evenodd" stroke="#000000" stroke-width="4" stroke-linejoin="round" d="M 361.102 622.863 C 386.342 622.863 408.800 611.257 425.049 593.728 C 434.498 579.361 441.102 561.903 441.102 542.863 C 441.102 515.410 427.371 491.247 406.742 477.159 C 393.519 468.021 377.929 462.863 361.102 462.863 C 342.625 462.101 327.113 467.690 313.258 477.159 C 292.556 491.140 278.898 515.410 278.898 542.863 C 278.898 561.903 285.562 579.322 294.951 593.728 C 311.430 611.653 334.177 623.677 361.102 622.863 Z"/>
<path fill="#ffffff" fill-rule="evenodd" stroke="#000000" stroke-width="4" stroke-linejoin="round" d="M 330.330 614.129 C 330.333 614.125 341.540 580.106 360.000 572.688 C 377.867 577.542 389.667 614.125 389.670 614.129 C 389.666 614.137 373.640 644.407 360.000 692.496 C 347.422 642.001 330.334 614.137 330.330 614.129 M 561.868 630.210 C 561.861 630.207 545.018 605.665 490.278 605.044 C 490.281 605.041 507.893 589.542 513.802 580.504 C 517.599 574.695 521.496 559.858 522.496 560.463 C 577.572 593.780 561.865 630.203 561.868 630.210 M 158.132 630.210 C 158.139 630.207 174.982 605.665 229.722 605.044 C 229.719 605.041 212.107 589.542 206.198 580.504 C 202.401 574.695 198.504 559.858 197.504 560.463 C 142.428 593.780 158.135 630.203 158.132 630.210 Z"/>
</g>
<g id="specs_2">
<path fill="#ff0000" fill-rule="evenodd" stroke="none" d="M 360.000 111.929 C 360.001 111.925 372.416 77.163 372.417 77.159 C 372.416 77.160 360.001 88.712 360.000 88.713 C 359.999 88.712 347.584 77.160 347.583 77.159 C 347.584 77.163 359.999 111.925 360.000 111.929 Z"/>
<path fill="#0000ff" fill-rule="evenodd" stroke="none" d="M 360.000 18.197 C 360.001 18.199 367.212 38.392 367.213 38.394 C 367.212 38.394 360.001 31.684 360.000 31.683 C 359.999 31.684 352.788 38.394 352.787 38.394 C 352.788 38.392 359.999 18.199 360.000 18.197 Z"/>
<path fill="#00ff00" fill-rule="evenodd" stroke="none" d="M 266.842 361.002 C 266.844 361.002 287.000 353.687 287.002 353.687 C 287.002 353.687 280.328 360.933 280.328 360.934 C 280.328 360.935 287.074 368.112 287.075 368.113 C 287.073 368.112 266.844 361.003 266.842 361.002 Z"/>
<path fill="#ffff00" fill-rule="evenodd" stroke="none" d="M 150.677 628.939 C 150.678 628.937 159.627 609.452 159.628 609.450 C 159.628 609.451 160.099 619.290 160.099 619.291 C 160.100 619.291 169.947 619.530 169.948 619.530 C 169.947 619.531 150.679 628.938 150.677 628.939 Z"/>
<path fill="#ffff00" fill-rule="evenodd" stroke="none" d="M 569.323 628.700 C 569.322 628.698 559.984 609.396 559.983 609.394 C 559.983 609.395 559.709 619.242 559.709 619.243 C 559.708 619.243 549.867 619.680 549.866 619.680 C 549.868 619.680 569.321 628.699 569.323 628.700 Z"/>
<path fill="#00ff00" fill-rule="evenodd" stroke="none" d="M 453.158 361.002 C 453.156 361.002 433.000 353.687 432.998 353.687 C 432.998 353.687 439.672 360.933 439.672 360.934 C 439.672 360.935 432.926 368.112 432.925 368.113 C 432.927 368.112 453.156 361.003 453.158 361.002 Z"/>
<path fill="#00ffff" fill-rule="evenodd" stroke="none" d="M 445.615 29.898 C 445.615 29.900 438.456 50.112 438.456 50.114 C 438.456 50.113 437.100 40.356 437.100 40.355 C 437.099 40.355 427.270 41.004 427.269 41.005 C 427.271 41.003 445.614 29.899 445.615 29.898 Z"/>
<path fill="#00ffff" fill-rule="evenodd" stroke="none" d="M 274.496 30.568 C 274.497 30.570 282.987 50.260 282.988 50.262 C 282.988 50.261 283.690 40.435 283.690 40.434 C 283.691 40.434 293.541 40.427 293.542 40.427 C 293.540 40.426 274.498 30.569 274.496 30.568 Z"/>
<path fill="#be0027" fill-rule="evenodd" stroke="none" d="M 360.000 709.575 C 360.001 709.571 372.416 674.809 372.417 674.805 C 372.416 674.806 360.001 686.358 360.000 686.359 C 359.999 686.358 347.584 674.806 347.583 674.805 C 347.584 674.809 359.999 709.571 360.000 709.575 Z"/>
</g>
</g>
</svg>
