<?xml version="1.0" encoding="utf-8"?>
<!-- Generator: Moho 12.5 build 22414 -->
<!DOCTYPE svg PUBLIC "-//W3C//DTD SVG 1.1//EN" "http://www.w3.org/Graphics/SVG/1.1/DTD/svg11.dtd">
<svg version="1.1" id="Frame_0" xmlns="http://www.w3.org/2000/svg" xmlns:xlink="http://www.w3.org/1999/xlink" width="720px" height="720px">
<g id="lion_head2">
<g id="lion_head2">
<path fill="#000000" fill-rule="evenodd" stroke="#ffffff" stroke-width="4" stroke-linejoin="round" d="M 359.867 527.055 C 359.868 527.059 358.164 545.991 364.398 560.932 C 373.905 583.715 389.326 584.931 397.210 601.424 C 402.716 612.940 398.475 623.660 405.412 636.880 C 415.680 656.447 442.531 675.907 442.535 675.911 C 442.533 675.907 428.820 650.787 429.727 632.074 C 430.646 613.089 448.338 605.279 447.003 589.081 C 445.732 573.648 428.182 571.790 424.239 551.251 C 420.780 533.234 430.137 512.975 430.137 512.971 C 430.139 512.974 435.526 531.215 446.887 542.729 C 464.124 560.197 478.919 555.380 492.291 567.686 C 501.676 576.322 501.565 587.942 512.890 597.650 C 529.567 611.946 561.611 619.851 561.615 619.854 C 561.612 619.850 539.190 602.012 532.777 584.392 C 526.310 566.625 539.501 552.676 532.093 538.306 C 524.990 524.525 508.071 529.489 496.583 511.985 C 486.538 496.682 487.456 474.436 487.455 474.432 C 487.458 474.434 499.236 489.368 514.064 495.816 C 536.539 505.589 548.457 495.590 565.433 502.006 C 577.364 506.514 581.595 517.343 595.726 522.118 C 616.526 529.147 649.188 524.498 649.193 524.498 C 649.189 524.496 621.730 516.322 609.198 502.375 C 596.551 488.300 603.573 470.426 591.329 459.852 C 579.599 449.722 565.762 460.619 548.582 448.664 C 533.533 438.192 526.081 417.175 526.079 417.172 C 526.082 417.172 542.676 426.443 558.842 426.748 C 583.393 427.210 590.630 413.540 608.803 412.912 C 621.539 412.472 629.652 420.672 644.517 419.587 C 666.492 417.984 694.935 401.090 694.940 401.089 C 694.936 401.088 666.406 403.620 649.583 395.326 C 632.468 386.887 632.314 367.526 616.875 362.251 C 602.244 357.252 593.508 372.483 573.151 367.842 C 555.151 363.738 540.270 346.924 540.266 346.922 C 540.270 346.922 559.202 348.625 574.142 342.391 C 596.925 332.885 598.142 317.464 614.635 309.579 C 626.151 304.073 636.871 308.315 650.091 301.378 C 669.658 291.110 689.118 264.258 689.122 264.254 C 689.118 264.256 663.998 277.970 645.285 277.063 C 626.300 276.143 618.489 258.451 602.292 259.786 C 586.858 261.057 585.000 278.608 564.462 282.551 C 546.445 286.010 526.186 276.652 526.182 276.652 C 526.185 276.650 544.426 271.262 555.939 259.902 C 573.408 242.664 568.591 227.870 580.897 214.498 C 589.533 205.113 601.153 205.225 610.861 193.900 C 625.157 177.222 633.063 145.179 633.065 145.174 C 633.061 145.177 615.223 167.599 597.603 174.012 C 579.835 180.479 565.886 167.288 551.516 174.696 C 537.736 181.800 542.700 198.718 525.196 210.207 C 509.893 220.252 487.647 219.333 487.643 219.334 C 487.645 219.331 502.579 207.554 509.027 192.725 C 518.800 170.250 508.801 158.332 515.216 141.356 C 519.725 129.425 530.553 125.194 535.329 111.062 C 542.358 90.263 537.709 57.601 537.709 57.596 C 537.707 57.600 529.533 85.059 515.585 97.591 C 501.511 110.238 483.637 103.216 473.063 115.460 C 462.932 127.190 473.830 141.027 461.875 158.207 C 451.403 173.256 430.385 180.708 430.382 180.710 C 430.383 180.707 439.654 164.113 439.958 147.948 C 440.420 123.396 426.750 116.159 426.122 97.986 C 425.682 85.250 433.883 77.137 432.798 62.272 C 431.195 40.297 414.301 11.854 414.299 11.849 C 414.299 11.854 416.831 40.383 408.536 57.206 C 400.098 74.321 380.737 74.475 375.461 89.915 C 370.463 104.546 385.694 113.282 381.053 133.639 C 376.949 151.638 360.135 166.520 360.133 166.523 C 360.132 166.520 361.836 147.587 355.602 132.647 C 346.095 109.864 330.674 108.647 322.790 92.154 C 317.284 80.638 321.525 69.918 314.588 56.699 C 304.320 37.132 277.469 17.671 277.465 17.667 C 277.467 17.671 291.180 42.791 290.274 61.504 C 289.354 80.489 271.662 88.300 272.997 104.497 C 274.268 119.931 291.818 121.789 295.761 142.327 C 299.220 160.344 289.863 180.603 289.863 180.607 C 289.861 180.604 284.474 162.363 273.113 150.850 C 255.876 133.381 241.081 138.199 227.709 125.893 C 218.324 117.257 218.435 105.636 207.110 95.928 C 190.433 81.632 158.390 73.726 158.385 73.724 C 158.388 73.728 180.810 91.567 187.223 109.186 C 193.690 126.954 180.499 140.903 187.907 155.273 C 195.010 169.053 211.929 164.090 223.417 181.593 C 233.462 196.896 232.544 219.142 232.545 219.146 C 232.542 219.144 220.764 204.210 205.936 197.762 C 183.461 187.990 171.543 197.988 154.567 191.573 C 142.636 187.064 138.405 176.236 124.274 171.460 C 103.474 164.431 70.812 169.081 70.807 169.081 C 70.811 169.083 98.270 177.257 110.802 191.204 C 123.449 205.278 116.427 223.152 128.671 233.727 C 140.401 243.857 154.238 232.959 171.418 244.914 C 186.467 255.387 193.919 276.404 193.921 276.407 C 193.918 276.406 177.324 267.135 161.159 266.831 C 136.607 266.369 129.370 280.039 111.197 280.667 C 98.461 281.107 90.348 272.907 75.483 273.991 C 53.508 275.594 25.065 292.488 25.060 292.490 C 25.064 292.490 53.594 289.958 70.417 298.252 C 87.532 306.691 87.686 326.053 103.125 331.328 C 117.756 336.327 126.492 321.096 146.849 325.736 C 164.849 329.840 179.730 346.654 179.734 346.656 C 179.730 346.657 160.798 344.953 145.858 351.188 C 123.075 360.694 121.858 376.115 105.365 384.000 C 93.849 389.505 83.129 385.264 69.909 392.201 C 50.342 402.469 30.882 429.321 30.878 429.324 C 30.882 429.323 56.002 415.609 74.715 416.516 C 93.700 417.436 101.511 435.127 117.708 433.792 C 133.142 432.521 135.000 414.971 155.538 411.028 C 173.555 407.569 193.814 416.926 193.818 416.926 C 193.815 416.928 175.574 422.316 164.061 433.676 C 146.592 450.913 151.409 465.708 139.104 479.080 C 130.467 488.465 118.847 488.353 109.139 499.679 C 94.843 516.356 86.937 548.400 86.935 548.405 C 86.939 548.402 104.777 525.980 122.397 519.566 C 140.165 513.099 154.114 526.290 168.483 518.883 C 182.264 511.779 177.300 494.861 194.804 483.372 C 210.107 473.327 232.353 474.245 232.357 474.245 C 232.355 474.247 217.421 486.025 210.973 500.853 C 201.200 523.329 211.199 535.246 204.784 552.222 C 200.275 564.153 189.447 568.384 184.671 582.516 C 177.642 603.316 182.291 635.977 182.291 635.983 C 182.293 635.979 190.467 608.519 204.415 595.987 C 218.489 583.341 236.363 590.362 246.937 578.118 C 257.068 566.388 246.170 552.551 258.125 535.371 C 268.597 520.322 289.615 512.870 289.618 512.868 C 289.617 512.871 280.346 529.466 280.042 545.631 C 279.580 570.182 293.250 577.419 293.878 595.592 C 294.318 608.328 286.117 616.441 287.202 631.306 C 288.805 653.281 305.699 681.724 305.701 681.730 C 305.701 681.725 303.169 653.195 311.464 636.373 C 319.902 619.258 339.263 619.104 344.539 603.664 C 349.537 589.033 334.306 580.297 338.947 559.940 C 343.051 541.940 359.865 527.059 359.867 527.055 Z"/>
<path fill="#000000" fill-rule="evenodd" stroke="#ffffff" stroke-width="4" stroke-linejoin="round" d="M 394.255 523.771 C 394.256 523.774 396.195 542.684 405.165 556.161 C 418.843 576.712 434.213 574.965 445.099 589.651 C 452.700 599.905 450.581 611.238 459.912 622.891 C 473.724 640.140 503.795 654.122 503.799 654.125 C 503.797 654.121 485.543 632.078 482.864 613.536 C 480.146 594.724 496.022 583.682 491.623 568.037 C 487.431 553.129 469.849 554.653 462.060 535.243 C 455.228 518.217 460.549 496.545 460.549 496.541 C 460.551 496.544 469.319 513.422 482.667 522.557 C 502.920 536.417 516.524 528.866 531.998 538.395 C 542.858 545.083 544.965 556.511 557.934 563.880 C 577.032 574.733 609.995 576.381 610.000 576.382 C 609.997 576.379 584.583 563.145 574.927 547.072 C 565.189 530.865 575.478 514.655 565.465 501.962 C 555.863 489.790 540.202 497.890 525.586 482.899 C 512.806 469.793 509.465 447.780 509.463 447.777 C 509.466 447.778 523.876 460.192 539.662 463.692 C 563.589 468.998 573.380 456.910 591.269 459.969 C 603.840 462.119 610.059 471.942 624.842 473.935 C 646.601 476.867 677.776 466.072 677.781 466.072 C 677.776 466.070 649.262 463.284 634.300 451.983 C 619.201 440.579 622.684 421.695 608.648 413.650 C 595.201 405.943 583.696 419.281 564.552 410.822 C 547.782 403.413 536.458 384.203 536.455 384.200 C 536.458 384.200 554.516 390.135 570.443 387.350 C 594.632 383.121 599.128 368.321 616.848 364.238 C 629.266 361.377 638.794 367.879 653.179 363.979 C 674.445 358.214 699.144 336.205 699.148 336.202 C 699.144 336.202 671.621 344.130 653.525 339.197 C 635.114 334.178 631.270 315.202 615.108 312.968 C 599.792 310.852 594.122 327.470 573.253 326.797 C 554.801 326.202 536.986 312.535 536.982 312.534 C 536.985 312.533 555.895 310.594 569.372 301.624 C 589.923 287.946 588.176 272.576 602.862 261.691 C 613.116 254.089 624.448 256.208 636.102 246.877 C 653.351 233.065 667.332 202.995 667.335 202.990 C 667.331 202.992 645.289 221.246 626.747 223.926 C 607.934 226.644 596.893 210.767 581.248 215.166 C 566.340 219.358 567.864 236.941 548.455 244.729 C 531.428 251.562 509.756 246.240 509.752 246.241 C 509.755 246.238 526.633 237.470 535.768 224.122 C 549.628 203.869 542.077 190.265 551.606 174.791 C 558.294 163.931 569.722 161.824 577.091 148.855 C 587.944 129.757 589.592 96.795 589.593 96.789 C 589.590 96.793 576.356 122.205 560.283 131.862 C 544.076 141.599 527.867 131.311 515.174 141.324 C 503.001 150.926 511.101 166.587 496.110 181.203 C 483.004 193.983 460.991 197.325 460.988 197.326 C 460.989 197.323 473.403 182.913 476.903 167.127 C 482.209 143.200 470.121 133.409 473.180 115.520 C 475.330 102.949 485.152 96.730 487.145 81.947 C 490.077 60.188 479.283 29.013 479.283 29.008 C 479.281 29.012 476.495 57.527 465.195 72.489 C 453.790 87.588 434.906 84.105 426.861 98.141 C 419.154 111.588 432.491 123.093 424.033 142.237 C 416.623 159.008 397.413 170.332 397.410 170.334 C 397.411 170.331 403.346 152.273 400.561 136.346 C 396.332 112.158 381.533 107.661 377.450 89.942 C 374.588 77.523 381.090 67.995 377.190 53.610 C 371.424 32.344 349.416 7.646 349.413 7.641 C 349.413 7.646 357.341 35.169 352.408 53.264 C 347.388 71.675 328.412 75.519 326.179 91.682 C 324.062 106.998 340.680 112.668 340.008 133.537 C 339.413 151.988 325.746 169.804 325.745 169.807 C 325.744 169.804 323.805 150.895 314.835 137.418 C 301.158 116.866 285.788 118.613 274.901 103.927 C 267.300 93.673 269.419 82.341 260.088 70.688 C 246.276 53.438 216.205 39.457 216.201 39.454 C 216.203 39.458 234.457 61.500 237.136 80.042 C 239.855 98.855 223.977 109.896 228.377 125.542 C 232.569 140.450 250.152 138.926 257.940 158.335 C 264.772 175.361 259.451 197.033 259.451 197.037 C 259.449 197.034 250.681 180.156 237.333 171.021 C 217.080 157.161 203.476 164.712 188.002 155.183 C 177.142 148.495 175.035 137.067 162.066 129.698 C 142.968 118.846 110.005 117.197 109.999 117.196 C 110.003 117.199 135.416 130.433 145.073 146.506 C 154.811 162.714 144.522 178.923 154.535 191.616 C 164.137 203.788 179.798 195.689 194.414 210.679 C 207.194 223.786 210.536 245.798 210.537 245.802 C 210.534 245.800 196.124 233.387 180.338 229.886 C 156.411 224.580 146.620 236.668 128.731 233.609 C 116.160 231.459 109.941 221.636 95.158 219.644 C 73.399 216.712 42.224 227.506 42.219 227.507 C 42.224 227.508 70.738 230.294 85.700 241.594 C 100.799 252.999 97.316 271.883 111.352 279.928 C 124.799 287.635 136.304 274.298 155.448 282.757 C 172.218 290.166 183.542 309.376 183.545 309.379 C 183.542 309.378 165.484 303.443 149.557 306.228 C 125.368 310.457 120.872 325.257 103.152 329.340 C 90.734 332.201 81.206 325.699 66.821 329.599 C 45.555 335.364 20.856 357.374 20.852 357.376 C 20.856 357.376 48.379 349.448 66.475 354.382 C 84.886 359.401 88.730 378.377 104.892 380.610 C 120.208 382.727 125.878 366.109 146.747 366.781 C 165.199 367.376 183.014 381.043 183.018 381.045 C 183.015 381.046 164.105 382.985 150.628 391.954 C 130.077 405.632 131.824 421.002 117.139 431.888 C 106.884 439.489 95.552 437.370 83.898 446.702 C 66.649 460.514 52.668 490.584 52.665 490.588 C 52.669 490.586 74.711 472.333 93.253 469.653 C 112.066 466.935 123.107 482.812 138.752 478.412 C 153.660 474.220 152.136 456.638 171.545 448.849 C 188.572 442.017 210.244 447.338 210.248 447.338 C 210.245 447.340 193.367 456.108 184.232 469.456 C 170.372 489.709 177.923 503.313 168.394 518.787 C 161.706 529.647 150.278 531.754 142.909 544.723 C 132.056 563.821 130.408 596.784 130.407 596.790 C 130.410 596.786 143.644 571.373 159.717 561.716 C 175.924 551.979 192.133 562.267 204.826 552.254 C 216.999 542.652 208.899 526.991 223.890 512.375 C 236.996 499.595 259.009 496.254 259.012 496.252 C 259.011 496.255 246.597 510.665 243.097 526.451 C 237.791 550.378 249.879 560.169 246.820 578.058 C 244.670 590.629 234.848 596.848 232.855 611.632 C 229.923 633.390 240.717 664.565 240.717 664.570 C 240.719 664.566 243.505 636.051 254.805 621.089 C 266.210 605.990 285.094 609.474 293.139 595.437 C 300.846 581.991 287.509 570.486 295.967 551.342 C 303.377 534.571 322.587 523.247 322.590 523.244 C 322.589 523.247 316.654 541.305 319.439 557.232 C 323.668 581.421 338.467 585.917 342.550 603.637 C 345.412 616.055 338.910 625.583 342.810 639.969 C 348.576 661.234 370.585 685.933 370.587 685.937 C 370.587 685.933 362.659 658.410 367.592 640.314 C 372.612 621.903 391.588 618.059 393.821 601.896 C 395.938 586.581 379.320 580.911 379.992 560.042 C 380.587 541.590 394.254 523.775 394.255 523.771 Z"/>
<path fill="#ffffff" fill-rule="evenodd" stroke="#000000" stroke-width="4" stroke-linecap="round" stroke-linejoin="round" d="M 359.281 435.558 C 399.657 435.558 440.760 459.102 440.760 500.083 C 440.760 541.064 399.657 564.608 359.281 564.608 C 318.904 564.608 277.802 541.064 277.802 500.083 C 277.802 459.102 318.904 435.558 359.281 435.558 Z"/>
<path fill="#ffffff" fill-rule="evenodd" stroke="#000000" stroke-width="4" stroke-linecap="round" stroke-linejoin="round" d="M 355.628 505.737 C 361.374 499.679 359.224 482.001 359.225 481.998 C 359.225 482.001 356.820 499.846 362.822 505.737 C 380.100 522.695 412.752 517.701 431.879 502.859 C 443.155 494.109 442.837 469.524 446.265 464.734 C 454.351 453.437 511.217 429.844 523.235 407.186 C 537.189 380.878 526.833 295.669 526.832 295.658 C 541.880 283.336 562.582 265.958 568.554 256.125 C 577.364 241.617 601.493 192.831 590.134 174.119 C 584.404 164.680 561.416 158.608 549.851 159.733 C 526.923 161.963 480.081 207.924 480.074 207.929 C 480.073 207.927 467.975 194.733 462.398 190.753 C 406.358 150.754 360.010 197.397 360.000 197.398 C 359.990 197.398 301.641 154.963 255.077 191.871 C 250.030 195.872 238.377 207.927 238.375 207.929 C 238.368 207.924 191.527 161.963 168.599 159.733 C 157.034 158.608 134.046 164.680 128.316 174.119 C 116.956 192.831 141.086 241.617 149.896 256.125 C 155.867 265.958 176.570 283.336 191.618 295.658 C 191.617 295.669 181.260 380.878 195.214 407.186 C 207.233 429.844 264.098 453.437 272.184 464.734 C 275.613 469.524 275.294 494.109 286.571 502.859 C 305.698 517.701 338.966 523.301 355.628 505.737 M 208.163 299.988 C 208.170 299.988 256.793 281.017 280.816 289.198 C 305.277 297.529 332.604 343.143 332.609 343.149 C 332.601 343.149 275.552 347.849 254.920 339.552 C 238.671 333.018 208.167 299.992 208.163 299.988 M 510.287 299.988 C 510.280 299.988 461.656 281.017 437.633 289.198 C 413.173 297.529 385.846 343.143 385.841 343.149 C 385.849 343.149 442.897 347.849 463.530 339.552 C 479.779 333.018 510.282 299.992 510.287 299.988 Z"/>
<path fill="#000000" fill-rule="evenodd" stroke="#000000" stroke-width="4" stroke-linecap="round" stroke-linejoin="round" d="M 325.561 440.538 C 325.560 440.542 358.446 473.423 358.450 473.426 C 358.565 472.704 392.885 440.541 392.888 440.538 C 392.702 440.770 373.262 435.663 359.520 435.642 C 345.540 435.621 325.564 440.536 325.561 440.538 Z"/>
<path fill="#000000" fill-rule="evenodd" stroke="#000000" stroke-width="4" stroke-linecap="round" stroke-linejoin="round" d="M 202.390 222.815 C 170.746 175.863 144.932 182.756 144.927 182.752 C 144.930 182.752 168.282 180.208 181.613 187.067 C 204.283 198.732 221.892 235.259 221.896 235.264 C 221.894 235.267 204.634 267.631 204.632 267.634 C 204.632 267.629 206.983 234.046 202.390 222.815 M 517.564 222.815 C 549.209 175.863 575.022 182.756 575.028 182.752 C 575.024 182.752 551.673 180.208 538.341 187.067 C 515.671 198.732 498.062 235.259 498.058 235.264 C 498.060 235.267 515.321 267.631 515.322 267.634 C 515.323 267.629 512.971 234.046 517.564 222.815 Z"/>
<path fill="none" stroke="#000000" stroke-width="4" stroke-linecap="round" stroke-linejoin="round" d="M 277.802 500.083 C 277.802 459.102 318.904 435.558 359.281 435.558 C 399.657 435.558 440.760 459.102 440.760 500.083 C 440.760 541.064 399.657 564.608 359.281 564.608 C 318.904 564.608 277.802 541.064 277.802 500.083 M 332.977 342.404 C 332.977 342.414 325.562 440.528 325.561 440.538 C 325.565 440.541 358.446 473.423 358.450 473.426 C 358.565 472.704 392.885 440.541 392.888 440.538 C 392.887 440.528 385.473 342.414 385.472 342.404 "/>
</g>
<g id="specs_2">
<path fill="#ff00ff" fill-rule="evenodd" stroke="none" d="M 310.550 304.391 C 310.560 304.391 409.440 304.391 409.450 304.391 C 409.450 304.381 409.450 205.500 409.450 205.491 C 409.440 205.491 310.560 205.491 310.550 205.491 C 310.550 205.500 310.550 304.381 310.550 304.391 Z"/>
<path fill="#ff0000" fill-rule="evenodd" stroke="none" d="M 360.000 685.693 C 360.001 685.697 371.724 718.521 371.725 718.524 C 371.724 718.523 360.001 707.616 360.000 707.615 C 359.999 707.616 348.276 718.523 348.275 718.524 C 348.276 718.521 359.999 685.697 360.000 685.693 Z"/>
<path fill="#0000ff" fill-rule="evenodd" stroke="none" d="M 360.000 26.024 C 360.001 26.026 366.810 45.093 366.811 45.095 C 366.810 45.094 360.001 38.758 360.000 38.758 C 359.999 38.758 353.190 45.094 353.189 45.095 C 353.190 45.093 359.999 26.026 360.000 26.024 Z"/>
<path fill="#00ff00" fill-rule="evenodd" stroke="none" d="M 38.340 349.715 C 38.342 349.714 57.374 342.808 57.376 342.807 C 57.375 342.808 51.074 349.650 51.073 349.650 C 51.074 349.651 57.444 356.428 57.445 356.429 C 57.443 356.428 38.342 349.715 38.340 349.715 Z"/>
<path fill="#ffff00" fill-rule="evenodd" stroke="none" d="M 132.122 578.405 C 132.123 578.403 140.574 560.004 140.575 560.002 C 140.575 560.003 141.020 569.294 141.020 569.295 C 141.021 569.295 150.319 569.520 150.320 569.520 C 150.318 569.521 132.124 578.404 132.122 578.405 Z"/>
<path fill="#ffff00" fill-rule="evenodd" stroke="none" d="M 589.128 578.179 C 589.127 578.177 580.309 559.952 580.308 559.950 C 580.308 559.951 580.049 569.249 580.049 569.250 C 580.049 569.250 570.757 569.662 570.756 569.662 C 570.757 569.663 589.126 578.178 589.128 578.179 Z"/>
<path fill="#00ff00" fill-rule="evenodd" stroke="none" d="M 682.647 349.715 C 682.645 349.714 663.612 342.808 663.610 342.807 C 663.611 342.808 669.912 349.650 669.913 349.650 C 669.912 349.651 663.542 356.428 663.542 356.429 C 663.544 356.428 682.645 349.715 682.647 349.715 Z"/>
<path fill="#00ffff" fill-rule="evenodd" stroke="none" d="M 587.619 120.277 C 587.619 120.279 580.860 139.364 580.859 139.366 C 580.859 139.365 579.579 130.152 579.579 130.151 C 579.578 130.152 570.297 130.764 570.296 130.764 C 570.298 130.763 587.618 120.278 587.619 120.277 Z"/>
<path fill="#00ffff" fill-rule="evenodd" stroke="none" d="M 132.486 120.910 C 132.487 120.912 140.503 139.504 140.504 139.506 C 140.504 139.505 141.167 130.227 141.167 130.226 C 141.168 130.226 150.469 130.219 150.470 130.219 C 150.468 130.218 132.488 120.911 132.486 120.910 Z"/>
<path fill="#be0027" fill-rule="evenodd" stroke="none" d="M 360.000 670.019 C 360.001 670.016 371.724 637.192 371.725 637.189 C 371.724 637.190 360.001 648.097 360.000 648.098 C 359.999 648.097 348.276 637.190 348.275 637.189 C 348.276 637.192 359.999 670.016 360.000 670.019 Z"/>
<path fill="#ff00ff" fill-rule="evenodd" stroke="none" d="M 243.808 343.621 C 243.814 343.621 300.215 343.621 300.220 343.621 C 300.220 343.615 300.220 287.215 300.220 287.209 C 300.215 287.209 243.814 287.209 243.808 287.209 C 243.808 287.215 243.808 343.615 243.808 343.621 Z"/>
<path fill="#ff00ff" fill-rule="evenodd" stroke="none" d="M 418.514 343.621 C 418.520 343.621 474.921 343.621 474.927 343.621 C 474.927 343.615 474.927 287.215 474.927 287.209 C 474.921 287.209 418.520 287.209 418.514 287.209 C 418.514 287.215 418.514 343.615 418.514 343.621 Z"/>
</g>
</g>
</svg>
