<?xml version="1.0" encoding="utf-8"?>
<!-- Generator: Moho 12.5 build 22414 -->
<!DOCTYPE svg PUBLIC "-//W3C//DTD SVG 1.1//EN" "http://www.w3.org/Graphics/SVG/1.1/DTD/svg11.dtd">
<svg version="1.1" id="Frame_0" xmlns="http://www.w3.org/2000/svg" xmlns:xlink="http://www.w3.org/1999/xlink" width="720px" height="720px">
<g id="lion_tail">
<g id="lion_tail">
<path fill="#ffffff" fill-rule="evenodd" stroke="#000000" stroke-width="4" stroke-linejoin="round" d="M 94.413 135.576 C 197.823 127.466 330.219 163.935 319.662 270.726 C 308.647 382.148 244.322 396.842 242.434 494.688 C 240.043 618.527 348.199 654.741 439.366 654.294 C 557.685 653.713 621.049 482.318 601.545 407.163 C 599.392 398.867 670.049 359.576 625.762 282.050 C 603.967 243.898 595.113 211.525 595.110 211.518 C 595.109 211.526 570.276 268.418 587.821 295.400 C 592.192 302.121 579.665 323.496 579.664 323.498 C 579.663 323.490 553.135 291.184 566.645 240.208 C 576.939 201.370 510.164 169.049 510.159 169.042 C 510.160 169.050 546.195 210.187 524.509 249.845 C 507.697 280.590 521.743 328.640 521.743 328.647 C 521.741 328.644 500.218 307.299 501.921 297.273 C 508.033 261.298 463.825 237.266 463.821 237.260 C 463.822 237.268 481.244 275.190 465.318 320.944 C 440.096 393.403 548.761 406.267 552.634 416.173 C 569.199 458.548 524.565 601.686 435.504 602.808 C 349.072 603.898 298.131 562.532 296.493 494.688 C 294.420 408.805 357.269 389.692 368.573 260.429 C 375.753 178.329 277.031 65.228 90.551 84.091 C 77.039 85.458 85.768 136.254 94.413 135.576 Z"/>
<path fill="none" stroke="#000000" stroke-width="4" stroke-linejoin="round" d="M 535.901 385.281 C 535.896 385.279 503.168 381.239 486.743 360.810 C 475.926 347.357 476.694 326.076 476.693 326.073 M 534.614 363.400 C 534.611 363.398 512.882 359.232 501.162 345.393 C 486.966 328.632 490.758 323.256 486.990 301.617 C 484.564 287.682 485.703 272.016 485.703 272.013 M 546.198 349.241 C 546.197 349.236 536.807 324.367 533.559 300.594 C 529.036 267.490 541.097 270.371 546.198 242.409 C 548.523 229.668 543.624 207.660 543.624 207.656 M 569.367 342.806 C 569.365 342.803 555.523 329.231 550.151 313.306 C 544.034 295.170 547.486 273.304 547.485 273.300 M 587.387 350.529 C 587.389 350.525 604.216 336.432 607.820 318.769 C 613.254 292.144 599.803 289.962 596.397 263.003 C 595.162 253.231 595.110 242.411 595.110 242.409 M 596.396 376.271 C 596.398 376.270 608.655 369.685 615.181 359.644 C 625.319 344.049 626.725 340.798 626.001 322.212 C 625.495 309.202 616.992 296.471 616.991 296.469 "/>
</g>
<g id="specs_2">
<path fill="#ff0000" fill-rule="evenodd" stroke="none" d="M 134.137 108.624 C 134.134 108.626 99.328 121.056 99.324 121.057 C 99.326 121.056 110.892 108.626 110.893 108.624 C 110.892 108.623 99.326 96.193 99.324 96.191 C 99.328 96.193 134.134 108.623 134.137 108.624 Z"/>
<path fill="#0000ff" fill-rule="evenodd" stroke="none" d="M 544.061 195.397 C 544.062 195.399 551.282 215.617 551.283 215.619 C 551.282 215.618 544.062 208.900 544.061 208.899 C 544.060 208.900 536.840 215.618 536.839 215.619 C 536.840 215.617 544.060 195.399 544.061 195.397 Z"/>
<path fill="#00ff00" fill-rule="evenodd" stroke="none" d="M 227.437 488.431 C 227.439 488.431 247.620 481.108 247.622 481.107 C 247.622 481.108 240.940 488.362 240.939 488.363 C 240.940 488.364 247.694 495.551 247.695 495.551 C 247.693 495.551 227.439 488.432 227.437 488.431 Z"/>
<path fill="#ffff00" fill-rule="evenodd" stroke="none" d="M 294.703 629.244 C 294.704 629.242 303.664 609.733 303.665 609.731 C 303.665 609.732 304.137 619.583 304.137 619.584 C 304.138 619.584 313.998 619.823 313.999 619.823 C 313.997 619.824 294.705 629.243 294.703 629.244 Z"/>
<path fill="#ffff00" fill-rule="evenodd" stroke="none" d="M 529.594 629.005 C 529.593 629.003 520.243 609.677 520.242 609.675 C 520.242 609.676 519.968 619.535 519.968 619.536 C 519.967 619.536 510.114 619.973 510.113 619.973 C 510.115 619.974 529.592 629.004 529.594 629.005 Z"/>
<path fill="#00ff00" fill-rule="evenodd" stroke="none" d="M 610.739 488.431 C 610.737 488.431 590.555 481.108 590.553 481.107 C 590.554 481.108 597.236 488.362 597.236 488.363 C 597.236 488.364 590.481 495.551 590.481 495.551 C 590.483 495.551 610.737 488.432 610.739 488.431 Z"/>
<path fill="#00ffff" fill-rule="evenodd" stroke="none" d="M 595.948 212.044 C 595.949 212.046 602.475 232.500 602.476 232.502 C 602.475 232.501 595.488 225.540 595.487 225.539 C 595.486 225.540 588.040 232.007 588.039 232.008 C 588.040 232.006 595.948 212.046 595.948 212.044 Z"/>
<path fill="#00ffff" fill-rule="evenodd" stroke="none" d="M 461.129 235.516 C 461.130 235.518 469.631 255.232 469.632 255.234 C 469.632 255.233 470.334 245.395 470.334 245.394 C 470.335 245.394 480.198 245.387 480.199 245.387 C 480.197 245.386 461.131 235.517 461.129 235.516 Z"/>
<path fill="#be0027" fill-rule="evenodd" stroke="none" d="M 76.156 108.427 C 76.159 108.428 110.965 120.859 110.969 120.860 C 110.968 120.859 99.402 108.428 99.400 108.427 C 99.402 108.426 110.968 95.995 110.969 95.994 C 110.965 95.995 76.159 108.426 76.156 108.427 Z"/>
</g>
</g>
</svg>
