<?xml version="1.0" encoding="utf-8"?>
<!-- Generator: Moho 12.5 build 22414 -->
<!DOCTYPE svg PUBLIC "-//W3C//DTD SVG 1.1//EN" "http://www.w3.org/Graphics/SVG/1.1/DTD/svg11.dtd">
<svg version="1.1" id="Frame_0" xmlns="http://www.w3.org/2000/svg" xmlns:xlink="http://www.w3.org/1999/xlink" width="720px" height="720px">
<g id="lion_rampant">
<g id="lion_rampant">
<path fill="#ffffff" fill-rule="evenodd" stroke="#000000" stroke-width="2" stroke-linecap="round" stroke-linejoin="round" d="M 397.894 407.035 C 401.722 409.038 394.310 450.976 396.927 468.314 C 398.452 478.416 414.244 500.954 413.253 504.557 C 412.199 508.390 378.656 525.239 378.357 528.446 C 378.058 531.653 420.310 562.608 408.225 558.377 C 399.057 555.168 387.465 568.610 391.174 574.842 C 396.519 583.824 388.443 590.083 396.504 604.585 C 398.236 607.702 385.491 599.790 381.686 582.055 C 380.981 578.767 373.706 603.075 381.034 613.485 C 382.946 616.202 372.659 606.814 369.375 591.635 C 368.716 588.589 362.680 604.001 368.285 609.747 C 371.357 612.896 356.432 607.355 360.287 598.171 C 361.714 594.773 343.270 612.353 343.788 616.042 C 344.066 618.014 350.455 619.712 353.937 624.177 C 356.422 627.364 356.122 639.358 356.122 639.359 C 356.121 639.358 352.326 627.420 346.878 630.095 C 336.624 635.129 332.490 628.478 325.942 631.371 C 322.018 633.105 329.792 637.843 327.334 648.696 C 325.222 658.024 315.950 652.764 312.540 659.063 C 311.329 661.301 312.577 678.683 312.577 678.685 C 312.576 678.684 305.635 674.372 303.735 669.745 C 300.704 662.363 304.981 657.661 302.678 656.733 C 294.263 653.344 298.691 644.232 298.114 643.535 C 296.965 642.149 289.792 652.180 283.147 653.559 C 273.712 655.516 276.818 646.840 267.407 650.665 C 253.916 656.149 257.305 676.655 257.304 676.657 C 257.303 676.654 240.301 659.190 252.125 648.348 C 252.571 647.939 250.574 642.751 252.748 638.913 C 257.620 630.310 268.205 629.487 267.994 627.982 C 267.726 626.062 251.071 627.663 244.753 622.315 C 234.941 614.010 231.478 637.140 231.477 637.142 C 231.477 637.139 220.841 616.132 238.220 609.669 C 239.139 609.327 241.027 601.021 246.356 599.521 C 255.841 596.850 261.864 597.206 267.232 602.363 C 280.141 614.768 281.431 605.781 296.339 609.955 C 310.290 613.860 315.658 611.370 318.292 608.567 C 326.917 599.386 348.682 570.320 359.592 558.784 C 363.326 554.836 342.146 536.367 339.863 538.337 C 327.554 548.961 341.392 571.816 332.734 557.628 C 326.329 547.132 329.584 542.879 329.877 536.352 C 330.623 519.769 316.822 557.835 316.820 557.837 C 316.821 557.834 309.459 543.858 320.237 528.160 C 324.307 522.232 319.184 509.419 315.741 510.663 C 313.195 511.582 315.306 529.283 299.916 535.023 C 297.173 536.045 289.703 535.633 289.702 535.633 C 289.703 535.632 301.405 530.400 303.201 522.838 C 303.917 519.826 302.985 508.640 306.036 504.324 C 310.485 498.031 316.077 497.478 316.319 497.234 C 317.687 495.858 330.416 454.515 352.326 436.725 C 363.409 427.725 394.497 405.257 397.894 407.035 Z"/>
<path fill="#ffffff" fill-rule="evenodd" stroke="#000000" stroke-width="2" stroke-linecap="round" stroke-linejoin="round" d="M 217.756 101.464 C 217.759 101.463 231.767 90.796 244.284 94.946 C 256.477 98.988 250.974 119.108 258.868 124.698 C 269.283 132.074 297.456 113.926 315.133 117.477 C 328.002 120.062 345.810 134.662 345.811 134.663 C 345.807 134.662 320.985 126.281 306.774 125.594 C 295.396 125.044 260.428 139.920 250.280 135.410 C 234.726 128.499 246.264 107.693 235.981 103.571 C 224.079 98.800 217.758 101.464 217.756 101.464 Z"/>
<path fill="#ffffff" fill-rule="evenodd" stroke="#000000" stroke-width="2" stroke-linecap="round" stroke-linejoin="round" d="M 311.910 69.511 C 311.912 69.510 332.229 62.649 332.231 62.648 C 332.233 62.649 349.773 67.913 349.774 67.914 C 349.773 67.915 342.752 80.776 332.268 81.664 C 314.188 83.195 311.912 69.512 311.910 69.511 M 507.661 619.194 C 506.404 615.925 508.262 606.082 507.197 605.482 C 505.029 604.262 497.268 629.672 498.720 632.072 C 499.313 633.051 508.000 633.634 509.475 635.836 C 521.605 653.944 514.676 664.510 514.676 664.513 C 514.674 664.511 508.595 646.752 493.037 644.551 C 488.805 643.952 480.866 651.139 480.865 651.140 C 480.865 651.142 490.935 659.881 489.296 667.316 C 487.433 675.767 473.464 677.241 472.595 679.607 C 471.839 681.666 476.436 697.236 476.436 697.238 C 476.434 697.236 461.278 685.696 458.306 679.279 C 456.436 675.241 458.247 664.611 456.549 663.319 C 452.644 660.346 441.458 677.882 422.023 676.430 C 416.653 676.028 425.428 699.999 425.429 700.001 C 425.427 699.999 406.891 685.434 408.143 672.447 C 408.863 664.980 419.839 657.858 419.840 657.856 C 419.838 657.855 405.353 648.136 400.762 648.554 C 386.656 649.837 385.576 669.637 385.575 669.639 C 385.575 669.636 373.776 647.804 390.134 638.321 C 392.131 637.163 385.334 630.907 392.188 626.416 C 413.035 612.756 445.051 637.721 459.082 634.533 C 470.944 631.839 504.390 561.628 490.445 565.517 C 477.511 569.124 466.072 553.149 462.608 554.327 C 461.015 554.869 469.870 578.646 468.007 577.489 C 452.515 567.862 452.875 545.640 450.457 548.412 C 446.675 552.747 451.382 575.182 449.446 572.880 C 437.608 558.801 438.848 535.283 436.269 537.296 C 427.277 544.315 434.762 567.678 432.246 563.371 C 421.945 545.736 426.549 532.563 424.667 529.047 C 422.685 525.343 407.949 520.056 398.932 502.423 C 376.621 458.792 401.443 429.289 387.970 411.459 C 373.078 391.752 318.316 386.261 294.109 373.453 C 269.575 360.473 260.037 338.686 254.367 329.958 C 249.908 323.095 248.130 344.927 255.776 357.203 C 260.185 364.281 234.185 346.348 238.060 335.788 C 240.263 329.787 199.699 347.377 147.096 346.749 C 141.865 346.687 148.310 351.813 132.168 355.760 C 121.075 358.473 122.632 372.778 132.008 379.342 C 134.159 380.848 106.608 385.974 109.059 355.800 C 109.822 346.411 120.576 341.987 117.531 336.420 C 112.718 327.621 99.516 344.313 84.109 335.628 C 78.346 332.380 70.348 343.805 70.844 353.241 C 70.975 355.741 55.163 340.681 78.825 314.230 C 84.838 307.508 112.790 311.723 107.296 304.569 C 100.636 295.897 106.816 288.141 97.935 279.944 C 90.261 272.863 82.769 276.159 76.866 278.462 C 70.894 280.793 86.235 263.007 97.427 266.697 C 99.883 267.507 104.746 262.141 108.207 262.458 C 125.171 264.009 138.274 299.209 142.001 298.616 C 153.804 296.737 156.029 303.123 162.214 302.809 C 184.491 301.677 236.839 285.880 231.447 275.702 C 229.065 271.205 221.604 280.517 215.739 282.102 C 209.063 283.907 193.476 286.018 196.616 284.754 C 210.831 279.030 207.632 275.270 222.698 265.725 C 224.843 264.367 210.333 261.258 207.579 264.147 C 197.716 274.493 182.351 275.832 183.258 275.336 C 196.184 268.263 193.672 261.729 202.593 256.756 C 208.157 253.653 216.750 254.968 218.691 252.214 C 221.216 248.629 184.071 251.414 189.371 250.211 C 197.859 248.286 198.811 243.274 204.300 241.706 C 208.506 240.503 211.168 241.293 217.450 241.029 C 236.595 240.225 190.336 234.365 178.374 214.826 C 173.664 207.133 179.575 231.258 168.347 243.174 C 163.879 247.915 171.821 222.963 164.813 209.231 C 160.945 201.651 162.169 221.827 154.933 224.899 C 151.211 226.478 157.409 215.308 153.253 192.652 C 151.627 183.792 149.152 199.437 139.040 205.618 C 134.364 208.477 150.669 180.796 142.786 178.086 C 133.885 175.026 134.441 159.232 128.017 161.222 C 102.201 169.218 81.571 147.871 97.566 153.607 C 111.049 158.442 118.857 147.021 118.158 139.580 C 117.705 134.762 99.453 131.603 95.165 124.570 C 92.367 119.981 94.459 113.976 90.911 112.530 C 75.715 106.334 69.437 127.504 69.616 123.316 C 71.085 88.989 90.450 109.237 96.067 100.357 C 101.536 91.710 117.834 103.662 118.982 99.938 C 119.867 97.067 111.069 90.512 110.590 85.534 C 110.080 80.248 118.790 73.649 116.511 68.853 C 109.223 53.516 90.085 60.091 96.317 56.777 C 109.119 49.969 123.395 61.867 129.382 59.554 C 138.505 56.030 142.502 79.294 143.848 75.502 C 148.689 61.865 163.900 69.073 164.185 61.706 C 164.687 48.685 146.262 43.874 152.533 44.296 C 169.123 45.409 168.956 55.260 177.010 57.365 C 186.115 59.745 190.119 73.758 182.496 86.265 C 175.763 97.312 149.728 93.682 158.300 107.169 C 167.114 121.036 157.707 131.246 165.204 136.068 C 188.331 150.945 190.564 167.353 199.345 169.291 C 219.123 173.656 233.252 192.957 238.073 189.843 C 249.045 182.757 263.844 190.342 264.400 187.304 C 265.970 178.714 243.751 174.313 249.701 173.920 C 270.823 172.526 285.348 188.675 283.788 182.163 C 280.667 169.134 264.115 166.856 269.361 166.570 C 296.719 165.075 292.687 184.609 302.681 180.442 C 309.501 177.599 321.065 174.751 313.552 158.341 C 309.573 149.650 293.142 163.085 281.846 155.180 C 277.205 151.932 280.485 138.219 285.956 136.751 C 289.075 135.914 289.215 127.319 289.215 127.318 C 289.217 127.319 291.489 139.915 310.443 138.729 C 336.439 137.104 326.218 112.937 321.192 108.728 C 314.169 102.847 298.262 103.648 290.854 108.936 C 287.100 111.617 288.472 121.113 288.472 121.115 C 288.471 121.114 283.486 116.208 283.184 112.272 C 282.821 107.556 271.995 108.696 269.294 104.813 C 265.025 98.676 267.076 79.996 267.076 79.994 C 267.076 79.993 261.959 74.391 262.835 71.753 C 265.152 64.775 302.413 64.659 307.768 60.078 C 310.271 57.937 309.001 50.957 312.098 49.461 C 341.202 35.397 351.701 38.373 368.984 35.006 C 379.636 32.931 378.702 32.601 379.093 17.973 C 379.177 14.840 386.390 27.302 385.685 36.018 C 385.250 41.395 398.546 36.619 413.549 19.740 C 415.438 17.615 422.826 37.407 395.018 52.454 C 387.865 56.324 417.639 53.785 420.625 61.349 C 424.737 71.770 430.660 78.175 441.249 78.613 C 444.867 78.763 426.866 86.340 419.061 77.005 C 416.777 74.273 404.166 74.900 407.196 76.769 C 424.249 87.286 421.996 100.922 432.303 106.313 C 438.514 109.562 449.825 105.291 455.455 109.466 C 459.344 112.350 466.316 127.132 462.741 123.867 C 453.316 115.261 451.272 118.372 445.954 118.113 C 441.683 117.905 436.320 121.315 432.045 121.233 C 426.240 121.122 408.658 112.663 413.414 115.993 C 436.824 132.386 426.219 142.184 436.534 148.015 C 440.970 150.522 449.296 147.443 453.326 150.559 C 457.084 153.465 463.178 168.747 459.674 165.064 C 456.699 161.937 450.204 161.311 445.910 160.878 C 441.681 160.450 434.779 165.232 431.802 162.197 C 423.307 153.534 409.514 147.339 413.585 152.083 C 419.551 159.034 432.035 169.995 431.170 179.806 C 430.586 186.428 431.034 197.327 436.796 198.939 C 463.667 206.458 465.507 227.986 460.728 219.936 C 455.814 211.657 440.329 216.411 432.950 211.839 C 426.650 207.936 412.214 187.479 416.045 193.824 C 423.014 205.366 421.616 214.166 427.432 220.718 C 432.888 226.864 447.455 227.079 451.153 234.417 C 453.817 239.702 451.254 259.809 449.721 254.093 C 445.845 239.642 442.757 234.965 435.734 235.288 C 418.249 236.092 407.214 221.114 411.362 227.565 C 417.600 237.263 413.433 247.587 418.447 254.139 C 423.713 261.022 436.462 259.816 443.504 268.516 C 448.574 274.780 452.523 303.301 449.896 294.606 C 447.295 285.998 439.175 275.559 431.424 270.999 C 424.954 267.192 413.593 269.869 406.765 266.749 C 401.352 264.276 387.279 247.621 391.273 254.357 C 399.197 267.723 386.445 282.900 398.888 296.232 C 405.444 303.257 382.375 293.723 377.888 276.688 C 377.391 274.801 369.395 293.860 406.697 357.136 C 418.233 376.704 460.952 389.623 474.533 420.936 C 475.948 424.200 500.959 433.944 505.703 436.510 C 516.632 442.422 539.999 494.804 574.814 477.364 C 601.382 464.054 548.143 379.590 546.680 380.866 C 519.933 404.182 482.264 390.373 485.308 389.343 C 537.366 371.727 503.564 368.627 479.781 368.424 C 419.862 367.911 421.796 314.291 423.146 316.367 C 460.080 373.218 459.204 337.223 502.329 350.801 C 508.977 352.894 476.602 339.856 477.361 308.500 C 477.651 296.501 482.323 335.085 522.348 327.854 C 525.202 327.339 484.043 261.745 476.306 219.795 C 468.880 179.533 477.284 128.513 516.940 120.697 C 549.250 114.329 577.428 129.962 585.783 164.890 C 593.956 199.056 573.824 248.371 587.999 270.932 C 598.803 288.126 612.706 298.891 625.070 305.000 C 647.574 316.120 647.228 341.661 647.230 341.664 C 647.228 341.663 635.668 329.292 624.113 327.879 C 615.044 326.771 603.947 313.563 605.206 317.156 C 610.813 333.172 655.206 346.932 645.104 373.365 C 628.447 416.949 640.210 435.850 637.773 434.132 C 607.658 412.884 643.928 370.023 615.059 355.827 C 565.681 331.546 565.796 283.184 565.872 292.737 C 566.098 321.384 560.122 313.274 568.280 340.302 C 571.073 349.554 535.195 295.816 552.728 250.794 C 558.014 237.221 534.098 263.103 534.096 263.105 C 534.099 263.101 539.008 229.812 563.763 222.973 C 566.972 222.087 570.420 188.377 568.134 170.978 C 566.891 161.510 552.191 128.929 522.440 136.100 C 499.566 141.612 482.558 180.986 493.619 213.933 C 532.177 328.785 609.201 415.584 602.415 474.544 C 600.262 493.251 583.938 494.909 587.404 494.951 C 611.079 495.233 627.524 523.631 618.987 515.682 C 610.079 507.389 574.095 507.056 577.290 508.214 C 598.308 515.836 598.679 549.807 590.812 530.591 C 585.951 518.715 563.931 532.846 548.706 507.793 C 542.320 497.284 557.413 548.529 553.921 534.651 C 552.267 528.079 539.981 536.004 520.183 481.601 C 517.077 473.065 493.141 444.158 480.509 453.302 C 479.629 453.939 486.080 469.201 488.319 483.474 C 489.862 493.307 490.138 526.296 498.611 536.112 C 499.488 537.128 554.127 551.301 532.201 551.118 C 525.425 551.061 516.847 576.914 520.780 582.132 C 521.759 584.716 529.007 586.720 532.170 590.226 C 536.411 594.927 533.030 597.690 541.181 606.653 C 548.631 614.847 510.794 589.375 514.901 592.068 C 537.268 606.739 523.244 612.126 535.743 627.300 C 536.493 628.211 524.361 622.639 521.869 620.035 C 518.847 616.876 514.037 602.732 514.037 602.731 C 514.037 602.733 512.655 619.112 517.626 630.836 C 517.625 630.835 511.597 629.430 507.661 619.194 Z"/>
</g>
<g id="specs_2">
<path fill="#ff00ff" fill-rule="evenodd" stroke="none" d="M 242.620 322.076 C 242.632 322.076 371.243 322.076 371.256 322.076 C 371.256 322.063 371.256 193.453 371.256 193.440 C 371.243 193.440 242.632 193.440 242.620 193.440 C 242.620 193.453 242.620 322.063 242.620 322.076 Z"/>
<path fill="#ff0000" fill-rule="evenodd" stroke="none" d="M 60.327 335.856 C 60.323 335.857 25.517 348.288 25.514 348.289 C 25.515 348.288 37.081 335.857 37.082 335.856 C 37.081 335.855 25.515 323.424 25.514 323.423 C 25.517 323.424 60.323 335.855 60.327 335.856 Z"/>
<path fill="#0000ff" fill-rule="evenodd" stroke="none" d="M 360.000 17.772 C 360.001 17.774 367.221 37.992 367.222 37.994 C 367.221 37.993 360.001 31.275 360.000 31.274 C 359.999 31.275 352.779 37.993 352.778 37.994 C 352.779 37.992 359.999 17.774 360.000 17.772 Z"/>
<path fill="#00ff00" fill-rule="evenodd" stroke="none" d="M 295.357 508.543 C 295.359 508.542 315.540 501.219 315.542 501.218 C 315.542 501.219 308.860 508.474 308.859 508.474 C 308.860 508.475 315.614 515.661 315.615 515.662 C 315.613 515.661 295.359 508.543 295.357 508.543 Z"/>
<path fill="#ffff00" fill-rule="evenodd" stroke="none" d="M 252.299 651.385 C 252.300 651.383 261.261 631.873 261.262 631.871 C 261.262 631.872 261.733 641.724 261.733 641.725 C 261.734 641.725 271.594 641.964 271.595 641.964 C 271.593 641.965 252.301 651.384 252.299 651.385 Z"/>
<path fill="#ffff00" fill-rule="evenodd" stroke="none" d="M 514.292 651.146 C 514.291 651.144 504.941 631.818 504.940 631.816 C 504.940 631.817 504.666 641.676 504.666 641.677 C 504.665 641.677 494.812 642.114 494.811 642.114 C 494.813 642.115 514.290 651.145 514.292 651.146 Z"/>
<path fill="#00ff00" fill-rule="evenodd" stroke="none" d="M 655.011 327.354 C 655.009 327.354 634.828 320.030 634.826 320.030 C 634.827 320.030 641.508 327.285 641.509 327.286 C 641.508 327.287 634.754 334.473 634.753 334.474 C 634.755 334.473 655.009 327.355 655.011 327.354 Z"/>
<path fill="#00ffff" fill-rule="evenodd" stroke="none" d="M 431.821 55.594 C 431.820 55.596 424.653 75.833 424.652 75.835 C 424.652 75.834 423.295 66.065 423.295 66.064 C 423.294 66.064 413.453 66.714 413.452 66.714 C 413.453 66.713 431.819 55.595 431.821 55.594 Z"/>
<path fill="#00ffff" fill-rule="evenodd" stroke="none" d="M 104.514 86.031 C 104.515 86.033 113.016 105.748 113.016 105.750 C 113.016 105.749 113.719 95.911 113.719 95.910 C 113.720 95.910 123.583 95.902 123.584 95.902 C 123.582 95.901 104.516 86.032 104.514 86.031 Z"/>
<path fill="#be0027" fill-rule="evenodd" stroke="none" d="M 362.588 695.166 C 362.590 695.162 375.020 660.356 375.021 660.353 C 375.020 660.354 362.590 671.920 362.588 671.921 C 362.587 671.920 350.157 660.354 350.155 660.353 C 350.157 660.356 362.587 695.162 362.588 695.166 Z"/>
</g>
</g>
</svg>
