<?xml version="1.0" encoding="utf-8"?>
<!-- Generator: Moho 12.5 build 22414 -->
<!DOCTYPE svg PUBLIC "-//W3C//DTD SVG 1.1//EN" "http://www.w3.org/Graphics/SVG/1.1/DTD/svg11.dtd">
<svg version="1.1" id="Frame_0" xmlns="http://www.w3.org/2000/svg" xmlns:xlink="http://www.w3.org/1999/xlink" width="720px" height="720px">
<g id="lion_head2">
<g id="mane">
<path fill="#ffffff" fill-rule="evenodd" stroke="#000000" stroke-width="4" stroke-linejoin="round" d="M 360.133 166.523 C 360.132 166.519 361.836 147.587 355.602 132.646 C 346.096 109.863 330.674 108.647 322.790 92.154 C 317.284 80.638 321.525 69.918 314.589 56.699 C 304.321 37.131 277.469 17.671 277.465 17.667 C 277.467 17.671 291.180 42.790 290.274 61.503 C 289.354 80.489 271.662 88.300 272.997 104.497 C 274.268 119.931 291.818 121.789 295.761 142.327 C 299.220 160.344 289.863 180.603 289.863 180.607 C 289.861 180.604 284.474 162.363 273.113 150.849 C 255.876 133.381 241.081 138.198 227.709 125.893 C 218.324 117.256 218.435 105.636 207.110 95.928 C 190.433 81.632 158.390 73.726 158.385 73.724 C 158.388 73.727 180.810 91.566 187.223 109.186 C 193.690 126.954 180.499 140.903 187.907 155.273 C 195.010 169.053 211.929 164.089 223.417 181.593 C 233.462 196.896 232.544 219.142 232.545 219.146 C 232.542 219.144 220.764 204.210 205.936 197.762 C 183.460 187.989 171.543 197.988 154.567 191.573 C 142.636 187.064 138.405 176.235 124.274 171.460 C 103.474 164.431 70.812 169.081 70.807 169.081 C 70.811 169.083 98.270 177.256 110.802 191.203 C 123.449 205.278 116.427 223.152 128.671 233.726 C 140.401 243.857 154.238 232.959 171.418 244.914 C 186.467 255.386 193.919 276.404 193.921 276.407 C 193.918 276.406 177.324 267.135 161.158 266.831 C 136.607 266.369 129.370 280.039 111.197 280.667 C 98.461 281.107 90.348 272.906 75.483 273.991 C 53.508 275.594 25.065 292.488 25.059 292.490 C 25.064 292.490 53.594 289.958 70.417 298.252 C 87.532 306.691 87.685 326.053 103.125 331.328 C 117.756 336.327 126.492 321.095 146.849 325.736 C 164.849 329.840 179.730 346.654 179.734 346.656 C 179.730 346.657 160.798 344.953 145.857 351.187 C 123.074 360.694 121.858 376.115 105.365 384.000 C 93.849 389.505 83.129 385.264 69.909 392.201 C 50.342 402.469 30.882 429.320 30.878 429.324 C 30.882 429.323 56.001 415.609 74.715 416.515 C 93.700 417.435 101.511 435.127 117.708 433.792 C 133.142 432.521 135.000 414.971 155.538 411.028 C 173.555 407.569 193.814 416.926 193.818 416.926 C 193.815 416.928 175.574 422.316 164.061 433.676 C 146.592 450.913 151.409 465.707 139.103 479.080 C 130.467 488.465 118.847 488.353 109.139 499.679 C 94.843 516.356 86.937 548.399 86.935 548.404 C 86.938 548.401 104.777 525.980 122.397 519.566 C 140.165 513.099 154.114 526.290 168.484 518.882 C 182.264 511.779 177.300 494.860 194.804 483.372 C 210.107 473.327 232.353 474.245 232.357 474.244 C 232.355 474.247 217.421 486.025 210.973 500.853 C 201.200 523.329 211.199 535.246 204.784 552.222 C 200.275 564.153 189.447 568.384 184.671 582.516 C 177.642 603.315 182.292 635.977 182.291 635.983 C 182.294 635.979 190.467 608.519 204.414 595.987 C 218.489 583.340 236.363 590.362 246.937 578.118 C 257.068 566.388 246.170 552.551 258.125 535.371 C 268.597 520.322 289.615 512.870 289.618 512.868 C 289.617 512.871 280.346 529.466 280.042 545.631 C 279.580 570.182 293.250 577.419 293.878 595.592 C 294.318 608.328 286.117 616.441 287.202 631.307 C 288.805 653.281 305.699 681.724 305.701 681.730 C 305.701 681.725 303.169 653.195 311.464 636.373 C 319.903 619.257 339.264 619.104 344.539 603.664 C 349.538 589.033 334.306 580.297 338.947 559.940 C 343.051 541.940 359.867 527.055 359.867 527.055 C 359.956 406.878 360.133 166.559 360.133 166.523 Z"/>
<path fill="#000000" fill-rule="evenodd" stroke="#ffffff" stroke-width="4" stroke-linejoin="round" d="M 360.069 166.523 C 360.069 166.519 358.366 147.587 364.600 132.646 C 374.106 109.863 389.527 108.647 397.412 92.154 C 402.918 80.638 398.676 69.918 405.613 56.699 C 415.881 37.131 442.733 17.671 442.737 17.667 C 442.735 17.671 429.022 42.790 429.928 61.503 C 430.848 80.489 448.540 88.300 447.205 104.497 C 445.934 119.931 428.384 121.789 424.441 142.327 C 420.982 160.344 430.339 180.603 430.339 180.607 C 430.341 180.604 435.728 162.363 447.089 150.849 C 464.326 133.381 479.121 138.198 492.493 125.893 C 501.878 117.256 501.767 105.636 513.092 95.928 C 529.769 81.632 561.812 73.726 561.817 73.724 C 561.814 73.727 539.392 91.566 532.979 109.186 C 526.512 126.954 539.703 140.903 532.295 155.273 C 525.192 169.053 508.273 164.089 496.785 181.593 C 486.740 196.896 487.658 219.142 487.657 219.146 C 487.660 219.144 499.438 204.210 514.266 197.762 C 536.741 187.989 548.659 197.988 565.635 191.573 C 577.566 187.064 581.797 176.235 595.928 171.460 C 616.728 164.431 649.390 169.081 649.395 169.081 C 649.391 169.083 621.932 177.256 609.400 191.203 C 596.753 205.278 603.775 223.152 591.531 233.726 C 579.801 243.857 565.964 232.959 548.784 244.914 C 533.735 255.386 526.283 276.404 526.281 276.407 C 526.284 276.406 542.878 267.135 559.043 266.831 C 583.595 266.369 590.832 280.039 609.005 280.667 C 621.741 281.107 629.854 272.906 644.719 273.991 C 666.694 275.594 695.137 292.488 695.143 292.490 C 695.138 292.490 666.608 289.958 649.785 298.252 C 632.670 306.691 632.516 326.053 617.077 331.328 C 602.446 336.327 593.710 321.095 573.353 325.736 C 555.353 329.840 540.471 346.654 540.468 346.656 C 540.472 346.657 559.404 344.953 574.345 351.187 C 597.128 360.694 598.344 376.115 614.837 384.000 C 626.353 389.505 637.073 385.264 650.293 392.201 C 669.860 402.469 689.320 429.320 689.324 429.324 C 689.320 429.323 664.201 415.609 645.487 416.515 C 626.502 417.435 618.691 435.127 602.494 433.792 C 587.060 432.521 585.202 414.971 564.664 411.028 C 546.647 407.569 526.388 416.926 526.384 416.926 C 526.387 416.928 544.628 422.316 556.141 433.676 C 573.610 450.913 568.793 465.707 581.099 479.080 C 589.735 488.465 601.355 488.353 611.063 499.679 C 625.359 516.356 633.265 548.399 633.267 548.404 C 633.263 548.401 615.425 525.980 597.805 519.566 C 580.037 513.099 566.088 526.290 551.718 518.882 C 537.938 511.779 542.902 494.860 525.398 483.372 C 510.095 473.327 487.849 474.245 487.845 474.244 C 487.847 474.247 502.781 486.025 509.229 500.853 C 519.002 523.329 509.003 535.246 515.418 552.222 C 519.927 564.153 530.755 568.384 535.531 582.516 C 542.560 603.315 537.910 635.977 537.911 635.983 C 537.908 635.979 529.735 608.519 515.788 595.987 C 501.713 583.340 483.839 590.362 473.264 578.118 C 463.134 566.388 474.032 552.551 462.077 535.371 C 451.605 520.322 430.587 512.870 430.584 512.868 C 430.585 512.871 439.856 529.466 440.160 545.631 C 440.622 570.182 426.952 577.419 426.324 595.592 C 425.884 608.328 434.085 616.441 433.000 631.307 C 431.397 653.281 414.503 681.724 414.501 681.730 C 414.501 681.725 417.033 653.195 408.738 636.373 C 400.299 619.257 380.938 619.104 375.663 603.664 C 370.664 589.033 385.895 580.297 381.255 559.940 C 377.151 541.940 360.335 527.055 360.335 527.055 C 360.246 406.878 360.069 166.559 360.069 166.523 Z"/>
</g>
<g id="lion_head2_2">
<path fill="#ffffff" fill-rule="evenodd" stroke="#000000" stroke-width="4" stroke-linecap="round" stroke-linejoin="round" d="M 360.000 471.548 C 360.003 471.545 392.888 440.538 392.888 440.538 C 392.893 440.543 435.283 454.075 440.275 494.103 C 436.874 498.825 433.834 502.254 431.109 503.629 C 408.900 514.833 377.456 522.306 360.098 504.488 C 360.098 504.484 360.000 471.552 360.000 471.548 Z"/>
<path fill="none" stroke="#ffffff" stroke-width="1" stroke-linecap="butt" stroke-linejoin="round" d="M 360.098 504.488 C 377.456 522.306 408.900 514.833 431.109 503.629 "/>
<path fill="none" stroke="#ffffff" stroke-width="1" stroke-linecap="butt" stroke-linejoin="round" d="M 431.109 503.629 C 433.834 502.254 436.874 498.825 440.275 494.103 "/>
<path fill="#ffffff" fill-rule="evenodd" stroke="#000000" stroke-width="4" stroke-linecap="round" stroke-linejoin="round" d="M 360.000 564.620 C 360.045 543.500 360.098 504.494 360.098 504.488 C 377.456 522.306 408.900 514.833 431.109 503.629 C 433.834 502.254 436.874 498.825 440.275 494.103 C 440.469 495.675 440.655 497.836 440.760 500.083 C 442.664 540.801 406.638 568.564 360.000 564.620 Z"/>
<path fill="none" stroke="#000000" stroke-width="1" stroke-linecap="butt" stroke-linejoin="round" d="M 392.888 440.538 C 392.888 440.538 360.003 471.545 360.000 471.548 "/>
<path fill="#000000" fill-rule="evenodd" stroke="#000000" stroke-width="4" stroke-linecap="round" stroke-linejoin="round" d="M 360.000 435.550 C 370.963 437.213 392.885 440.537 392.888 440.538 C 392.888 440.538 360.003 471.545 360.000 471.548 C 360.000 459.549 360.000 435.554 360.000 435.550 Z"/>
<path fill="none" stroke="#ffffff" stroke-width="1" stroke-linecap="butt" stroke-linejoin="round" d="M 392.888 440.538 C 392.893 440.543 435.283 454.075 440.275 494.103 "/>
<path fill="none" stroke="#ffffff" stroke-width="1" stroke-linecap="butt" stroke-linejoin="round" d="M 360.000 435.550 C 370.963 437.213 392.885 440.537 392.888 440.538 "/>
<path fill="#ffffff" fill-rule="evenodd" stroke="#000000" stroke-width="4" stroke-linecap="round" stroke-linejoin="round" d="M 392.888 440.538 C 392.893 440.543 435.283 454.075 440.275 494.103 C 456.088 472.147 480.513 421.763 523.235 407.186 C 551.420 397.569 526.833 295.669 526.832 295.658 C 541.880 283.336 562.582 265.958 568.554 256.125 C 577.364 241.617 601.493 192.830 590.134 174.119 C 584.404 164.680 561.416 158.607 549.851 159.732 C 526.923 161.962 480.082 207.924 480.075 207.928 C 480.073 207.927 469.208 191.515 462.398 190.752 C 384.374 182.018 394.133 167.667 360.000 156.124 C 360.000 249.266 360.000 435.522 360.000 435.550 C 370.963 437.213 392.885 440.537 392.888 440.538 Z"/>
<path fill="#000000" fill-rule="evenodd" stroke="#000000" stroke-width="4" stroke-linecap="round" stroke-linejoin="round" d="M 575.028 182.751 C 575.024 182.752 551.673 180.208 538.341 187.067 C 515.671 198.732 498.062 235.259 498.058 235.264 C 498.060 235.267 515.321 267.631 515.323 267.634 C 515.323 267.629 512.971 234.046 517.564 222.815 C 549.209 175.863 575.022 182.755 575.028 182.751 Z"/>
<path fill="none" stroke="#000000" stroke-width="4" stroke-linecap="round" stroke-linejoin="round" d="M 392.888 440.538 C 392.888 440.538 385.473 342.414 385.472 342.404 "/>
<path fill="#000000" fill-rule="evenodd" stroke="#000000" stroke-width="4" stroke-linecap="round" stroke-linejoin="round" d="M 437.633 289.198 C 413.173 297.528 385.846 343.143 385.841 343.149 C 385.849 343.148 442.897 347.849 463.530 339.552 C 479.779 333.018 510.282 299.992 510.287 299.988 C 510.280 299.988 461.656 281.016 437.633 289.198 Z"/>
<path fill="#000000" fill-rule="evenodd" stroke="#ffffff" stroke-width="4" stroke-linecap="round" stroke-linejoin="round" d="M 359.736 471.548 C 359.733 471.545 326.848 440.538 326.848 440.538 C 326.843 440.543 284.453 454.075 279.461 494.103 C 282.861 498.825 285.902 502.254 288.627 503.629 C 310.836 514.833 342.280 522.306 359.638 504.488 C 359.638 504.484 359.736 471.552 359.736 471.548 Z"/>
<path fill="none" stroke="#000000" stroke-width="1" stroke-linecap="butt" stroke-linejoin="round" d="M 359.638 504.488 C 342.280 522.306 310.836 514.833 288.627 503.629 "/>
<path fill="none" stroke="#000000" stroke-width="1" stroke-linecap="butt" stroke-linejoin="round" d="M 288.627 503.629 C 285.902 502.254 282.861 498.825 279.461 494.103 "/>
<path fill="#000000" fill-rule="evenodd" stroke="#ffffff" stroke-width="4" stroke-linecap="round" stroke-linejoin="round" d="M 359.736 564.620 C 359.691 543.500 359.638 504.494 359.638 504.488 C 342.280 522.306 310.836 514.833 288.627 503.629 C 285.902 502.254 282.861 498.825 279.461 494.103 C 279.267 495.675 279.081 497.836 278.976 500.083 C 277.072 540.801 313.097 568.564 359.736 564.620 Z"/>
<path fill="none" stroke="#ffffff" stroke-width="1" stroke-linecap="butt" stroke-linejoin="round" d="M 326.848 440.538 C 326.848 440.538 359.733 471.545 359.736 471.548 "/>
<path fill="#ffffff" fill-rule="evenodd" stroke="#000000" stroke-width="4" stroke-linecap="round" stroke-linejoin="round" d="M 359.736 435.550 C 348.773 437.213 326.851 440.537 326.848 440.538 C 326.848 440.538 359.733 471.545 359.736 471.548 C 359.736 459.549 359.736 435.554 359.736 435.550 Z"/>
<path fill="none" stroke="#000000" stroke-width="1" stroke-linecap="butt" stroke-linejoin="round" d="M 326.848 440.538 C 326.843 440.543 284.453 454.075 279.461 494.103 "/>
<path fill="none" stroke="#000000" stroke-width="1" stroke-linecap="butt" stroke-linejoin="round" d="M 359.736 435.550 C 348.773 437.213 326.851 440.537 326.848 440.538 "/>
<path fill="#000000" fill-rule="evenodd" stroke="#ffffff" stroke-width="4" stroke-linecap="round" stroke-linejoin="round" d="M 326.848 440.538 C 326.843 440.543 284.453 454.075 279.461 494.103 C 263.648 472.147 239.223 421.763 196.501 407.186 C 168.316 397.569 192.903 295.669 192.904 295.658 C 177.856 283.336 157.154 265.958 151.182 256.125 C 142.372 241.617 118.243 192.830 129.602 174.119 C 135.332 164.680 158.320 158.607 169.885 159.732 C 192.813 161.962 239.654 207.924 239.661 207.928 C 239.663 207.927 250.528 191.515 257.338 190.752 C 335.362 182.018 325.603 167.667 359.736 156.124 C 359.736 249.266 359.736 435.522 359.736 435.550 C 348.773 437.213 326.851 440.537 326.848 440.538 Z"/>
<path fill="#ffffff" fill-rule="evenodd" stroke="#ffffff" stroke-width="4" stroke-linecap="round" stroke-linejoin="round" d="M 144.708 182.751 C 144.712 182.752 168.063 180.208 181.395 187.067 C 204.065 198.732 221.674 235.259 221.678 235.264 C 221.676 235.267 204.415 267.631 204.413 267.634 C 204.413 267.629 206.765 234.046 202.172 222.815 C 170.527 175.863 144.714 182.755 144.708 182.751 Z"/>
<path fill="#ffffff" fill-rule="evenodd" stroke="#000000" stroke-width="4" stroke-linecap="round" stroke-linejoin="round" d="M 282.103 289.198 C 306.563 297.529 333.890 343.143 333.895 343.149 C 333.887 343.148 276.839 347.849 256.206 339.552 C 239.957 333.018 209.454 299.992 209.449 299.988 C 209.456 299.988 258.080 281.016 282.103 289.198 Z"/>
<path fill="none" stroke="#ffffff" stroke-width="4" stroke-linecap="round" stroke-linejoin="round" d="M 326.848 440.538 C 326.848 440.538 334.263 342.414 334.264 342.404 "/>
</g>
<g id="specs_2">
<path fill="#ff00ff" fill-rule="evenodd" stroke="none" d="M 310.074 294.329 C 310.084 294.329 409.916 294.329 409.926 294.329 C 409.926 294.319 409.926 194.487 409.926 194.477 C 409.916 194.477 310.084 194.477 310.074 194.477 C 310.074 194.487 310.074 294.319 310.074 294.329 Z"/>
<path fill="#ff0000" fill-rule="evenodd" stroke="none" d="M 360.000 685.693 C 360.001 685.697 371.724 718.521 371.725 718.524 C 371.724 718.523 360.001 707.616 360.000 707.615 C 359.999 707.616 348.276 718.523 348.275 718.524 C 348.276 718.521 359.999 685.697 360.000 685.693 Z"/>
<path fill="#0000ff" fill-rule="evenodd" stroke="none" d="M 360.000 26.023 C 360.001 26.025 366.810 45.092 366.811 45.094 C 366.810 45.094 360.001 38.758 360.000 38.757 C 359.999 38.758 353.190 45.094 353.189 45.094 C 353.190 45.092 359.999 26.025 360.000 26.023 Z"/>
<path fill="#00ff00" fill-rule="evenodd" stroke="none" d="M 38.340 349.714 C 38.342 349.714 57.374 342.808 57.376 342.807 C 57.375 342.808 51.074 349.649 51.073 349.650 C 51.074 349.651 57.444 356.428 57.445 356.429 C 57.443 356.428 38.342 349.715 38.340 349.714 Z"/>
<path fill="#ffff00" fill-rule="evenodd" stroke="none" d="M 132.122 578.405 C 132.123 578.403 140.574 560.004 140.575 560.002 C 140.575 560.003 141.019 569.294 141.020 569.295 C 141.020 569.295 150.319 569.520 150.320 569.520 C 150.318 569.521 132.124 578.404 132.122 578.405 Z"/>
<path fill="#ffff00" fill-rule="evenodd" stroke="none" d="M 589.128 578.179 C 589.127 578.177 580.309 559.952 580.308 559.950 C 580.308 559.951 580.050 569.249 580.050 569.250 C 580.049 569.250 570.757 569.662 570.756 569.662 C 570.758 569.662 589.126 578.178 589.128 578.179 Z"/>
<path fill="#00ff00" fill-rule="evenodd" stroke="none" d="M 682.647 349.714 C 682.645 349.714 663.612 342.808 663.611 342.807 C 663.611 342.808 669.912 349.649 669.913 349.650 C 669.912 349.651 663.543 356.428 663.542 356.429 C 663.544 356.428 682.645 349.715 682.647 349.714 Z"/>
<path fill="#00ffff" fill-rule="evenodd" stroke="none" d="M 587.619 120.277 C 587.619 120.279 580.860 139.364 580.859 139.366 C 580.859 139.365 579.579 130.152 579.579 130.151 C 579.578 130.151 570.297 130.764 570.296 130.764 C 570.298 130.763 587.618 120.278 587.619 120.277 Z"/>
<path fill="#00ffff" fill-rule="evenodd" stroke="none" d="M 132.486 120.910 C 132.487 120.912 140.503 139.503 140.504 139.505 C 140.504 139.504 141.167 130.227 141.167 130.226 C 141.168 130.226 150.469 130.219 150.470 130.219 C 150.468 130.218 132.488 120.911 132.486 120.910 Z"/>
<path fill="#be0027" fill-rule="evenodd" stroke="none" d="M 360.000 670.019 C 360.001 670.016 371.724 637.192 371.725 637.189 C 371.724 637.190 360.001 648.097 360.000 648.098 C 359.999 648.097 348.276 637.190 348.275 637.189 C 348.276 637.192 359.999 670.016 360.000 670.019 Z"/>
</g>
</g>
</svg>
