<?xml version="1.0" encoding="utf-8"?>
<!-- Generator: Moho 12.5 build 22414 -->
<!DOCTYPE svg PUBLIC "-//W3C//DTD SVG 1.1//EN" "http://www.w3.org/Graphics/SVG/1.1/DTD/svg11.dtd">
<svg version="1.1" id="Frame_0" xmlns="http://www.w3.org/2000/svg" xmlns:xlink="http://www.w3.org/1999/xlink" width="720px" height="720px">
<g id="lion_head2">
<g id="mane">
<path fill="#000000" fill-rule="evenodd" stroke="#ffffff" stroke-width="4" stroke-linejoin="round" d="M 404.061 137.496 C 404.062 137.494 407.172 124.492 403.855 113.739 C 397.396 92.804 381.747 91.769 376.563 76.396 C 373.346 66.854 378.907 58.898 375.202 47.719 C 368.855 28.572 346.481 7.813 346.478 7.809 C 346.478 7.813 355.006 31.962 349.924 47.491 C 344.652 63.602 324.683 64.151 322.606 78.495 C 320.831 90.750 338.446 94.164 336.825 110.807 C 335.374 125.711 319.068 136.958 319.066 136.961 C 319.065 136.959 317.377 123.704 310.366 114.963 C 296.781 98.027 281.758 103.150 271.362 90.887 C 264.861 83.218 267.287 73.705 259.748 64.681 C 246.910 49.313 218.511 38.570 218.507 38.567 C 218.509 38.571 235.804 57.511 237.146 73.812 C 238.526 90.578 220.500 98.744 224.068 112.679 C 227.144 124.694 244.736 121.110 249.607 137.135 C 253.940 151.392 243.235 167.939 243.234 167.942 C 243.233 167.940 236.779 156.244 227.033 150.738 C 208.170 140.083 196.150 150.462 181.959 142.981 C 173.062 138.292 171.768 128.552 161.402 122.994 C 143.765 113.538 113.424 114.195 113.420 114.194 C 113.423 114.197 136.530 125.312 143.866 139.928 C 151.419 154.979 137.759 169.297 146.274 180.906 C 153.603 190.897 168.567 181.053 179.043 194.100 C 188.400 205.755 184.613 225.155 184.613 225.158 C 184.611 225.157 174.126 216.897 163.007 215.553 C 141.439 212.946 134.275 226.955 118.249 225.562 C 108.231 224.690 103.188 216.379 91.477 215.311 C 71.460 213.486 43.614 225.768 43.609 225.769 C 43.613 225.771 69.164 227.638 81.401 238.494 C 94.147 249.802 86.750 268.365 99.121 276.058 C 109.594 282.571 119.772 268.011 134.283 276.187 C 147.493 283.631 151.248 303.331 151.250 303.334 C 151.247 303.334 138.248 300.230 127.498 303.550 C 106.583 310.010 105.548 325.637 90.192 330.827 C 80.638 334.056 72.667 328.503 61.474 332.221 C 42.333 338.578 21.576 360.940 21.572 360.943 C 21.576 360.943 45.717 352.427 61.247 357.498 C 77.364 362.761 77.942 382.716 92.291 384.783 C 104.533 386.547 107.942 368.962 124.566 370.579 C 139.466 372.028 150.712 388.327 150.715 388.329 C 150.712 388.330 137.460 390.024 128.723 397.038 C 111.805 410.622 116.932 425.632 104.683 436.028 C 97.004 442.545 87.474 440.118 78.437 447.673 C 63.075 460.516 52.333 488.909 52.330 488.914 C 52.334 488.912 71.270 471.628 87.566 470.277 C 104.343 468.885 112.533 486.903 126.474 483.322 C 138.475 480.238 134.888 462.669 150.895 457.797 C 165.147 453.459 181.692 464.160 181.695 464.161 C 181.693 464.163 169.998 470.622 164.498 480.371 C 153.859 499.232 164.250 511.244 156.777 525.431 C 152.082 534.345 142.317 535.636 136.750 546.020 C 127.294 563.657 127.957 593.997 127.957 594.001 C 127.959 593.998 139.073 570.898 153.684 563.556 C 168.746 555.988 183.088 569.651 194.703 561.116 C 204.680 553.785 194.829 538.837 207.860 528.362 C 219.507 518.999 238.909 522.782 238.912 522.781 C 238.911 522.784 230.651 533.275 229.313 544.398 C 226.720 565.964 240.752 573.117 239.358 589.141 C 238.485 599.174 230.140 604.216 229.066 615.946 C 227.234 635.962 239.531 663.807 239.532 663.812 C 239.533 663.808 241.398 638.260 252.250 626.021 C 263.567 613.257 282.161 620.661 289.854 608.269 C 296.357 597.795 281.785 587.632 289.947 573.121 C 297.382 559.906 317.087 556.145 317.087 556.145 C 352.998 458.463 383.800 251.166 383.806 251.135 C 383.808 251.124 404.060 137.507 404.061 137.496 Z"/>
<path fill="#000000" fill-rule="evenodd" stroke="#ffffff" stroke-width="4" stroke-linejoin="round" d="M 403.987 137.481 C 403.988 137.478 406.294 124.310 413.607 115.757 C 427.845 99.106 442.620 104.368 453.480 92.316 C 460.221 84.835 458.274 75.326 466.113 66.536 C 479.539 51.481 508.315 41.310 508.319 41.307 C 508.317 41.311 490.904 60.090 489.404 76.361 C 487.847 93.241 505.957 101.671 502.170 115.662 C 498.935 127.613 481.412 123.755 476.293 139.674 C 471.709 153.930 482.211 170.726 482.211 170.729 C 482.213 170.727 489.024 159.232 498.929 153.992 C 518.120 143.839 529.875 154.506 544.285 147.377 C 553.297 142.919 554.846 133.224 565.347 127.934 C 583.231 118.925 613.561 120.337 613.566 120.337 C 613.563 120.339 590.171 130.858 582.469 145.287 C 574.546 160.127 587.849 174.778 579.043 186.152 C 571.450 195.959 556.726 185.686 545.894 198.461 C 536.258 209.826 539.515 229.263 539.515 229.266 C 539.517 229.265 550.083 221.092 561.214 219.907 C 582.757 217.615 589.669 231.912 605.664 230.680 C 615.691 229.907 620.745 221.481 632.466 220.495 C 652.407 218.817 679.994 231.464 679.999 231.465 C 679.995 231.466 654.374 232.495 641.839 242.999 C 628.932 253.814 635.786 272.379 623.362 279.654 C 612.670 285.915 602.843 270.940 588.048 278.757 C 574.834 285.739 570.609 305.049 570.607 305.051 C 570.609 305.051 583.512 301.632 594.251 304.812 C 615.081 310.981 616.096 326.683 631.359 331.765 C 640.899 334.942 648.827 329.315 660.000 332.984 C 679.097 339.255 699.780 361.582 699.784 361.585 C 699.780 361.584 675.586 353.155 660.045 358.262 C 643.858 363.581 643.279 383.555 628.870 385.706 C 616.672 387.527 613.110 370.122 596.546 371.867 C 581.466 373.455 570.200 390.046 570.197 390.048 C 570.199 390.048 583.363 392.360 591.911 399.674 C 608.544 413.906 603.290 428.659 615.325 439.519 C 622.812 446.275 632.332 444.342 641.130 452.198 C 656.174 465.631 666.349 494.396 666.352 494.400 C 666.349 494.398 647.572 476.999 631.305 475.489 C 614.422 473.921 605.971 492.007 591.980 488.209 C 580.043 484.969 583.895 467.475 567.995 462.360 C 553.744 457.775 536.952 468.271 536.949 468.272 C 536.951 468.273 548.442 475.089 553.676 484.995 C 563.812 504.179 553.148 515.920 560.264 530.324 C 564.725 539.354 574.436 540.910 579.731 551.432 C 588.733 569.317 587.322 599.642 587.323 599.646 C 587.320 599.643 576.800 576.263 562.379 568.554 C 547.533 560.617 532.864 573.904 521.490 565.082 C 511.699 557.488 521.966 542.786 509.208 531.960 C 497.848 522.322 478.415 525.576 478.412 525.576 C 478.413 525.578 486.583 536.148 487.761 547.281 C 490.039 568.815 475.734 575.715 476.961 591.703 C 477.732 601.748 486.182 606.809 487.170 618.551 C 488.848 638.491 476.196 666.075 476.195 666.080 C 476.193 666.076 475.163 640.462 464.667 627.924 C 453.846 614.998 435.259 621.845 427.986 609.401 C 421.740 598.712 436.714 588.903 428.912 574.115 C 421.939 560.898 402.629 556.669 402.627 556.667 C 402.627 556.670 406.044 569.578 402.856 580.318 C 396.675 601.141 380.957 602.137 375.876 617.398 C 372.694 626.953 378.352 634.893 374.682 646.085 C 368.418 665.184 346.078 685.860 346.075 685.864 C 346.075 685.860 354.505 661.671 349.403 646.130 C 344.082 629.922 324.078 629.337 321.935 614.910 C 320.125 602.715 337.534 599.171 335.802 582.612 C 334.224 567.531 317.630 556.258 317.630 556.258 C 324.289 452.433 383.591 251.226 383.598 251.196 C 383.600 251.184 403.984 137.492 403.987 137.481 Z"/>
<path fill="#000000" fill-rule="evenodd" stroke="#ffffff" stroke-width="4" stroke-linejoin="round" d="M 360.139 132.990 C 360.139 132.988 360.550 119.626 355.121 109.768 C 344.554 90.577 329.019 92.735 320.828 78.732 C 315.743 70.040 319.576 61.122 313.682 50.926 C 303.586 33.463 277.469 17.670 277.465 17.667 C 277.466 17.670 290.712 39.589 288.883 55.826 C 286.986 72.672 267.543 77.256 268.416 91.724 C 269.162 104.084 287.103 103.857 288.889 120.483 C 290.488 135.372 276.801 149.691 276.799 149.694 C 276.798 149.692 272.458 137.054 263.821 129.916 C 247.086 116.084 233.413 124.146 220.747 114.245 C 212.826 108.053 213.274 98.246 204.063 90.937 C 188.376 78.490 158.389 73.726 158.385 73.724 C 158.387 73.727 179.162 88.769 183.780 104.459 C 188.530 120.597 172.534 132.248 178.851 145.170 C 184.299 156.313 200.800 149.237 208.817 163.943 C 215.950 177.025 208.821 195.398 208.821 195.401 C 208.819 195.400 200.128 185.254 189.469 181.839 C 168.838 175.228 159.171 187.827 143.758 183.379 C 134.096 180.590 130.854 171.314 119.577 167.973 C 100.389 162.288 70.812 169.081 70.807 169.081 C 70.810 169.083 95.691 175.284 105.837 188.110 C 116.284 201.317 105.809 218.106 116.501 227.749 C 125.702 236.047 138.361 223.374 151.264 234.028 C 162.789 243.544 163.012 263.309 163.013 263.312 C 163.011 263.311 151.069 257.348 139.909 258.285 C 118.261 260.104 114.084 275.274 98.108 277.158 C 88.122 278.335 81.499 271.218 69.814 272.546 C 49.843 274.816 25.064 292.488 25.059 292.490 C 25.063 292.490 50.463 289.140 64.647 297.291 C 79.419 305.780 75.939 325.457 89.612 330.483 C 101.188 334.738 108.204 318.418 124.070 323.483 C 138.516 328.094 146.185 346.625 146.187 346.627 C 146.185 346.627 132.826 346.223 122.973 351.653 C 103.801 362.218 105.955 377.730 91.969 385.925 C 83.268 391.024 74.337 387.201 64.130 393.110 C 46.675 403.216 30.881 429.320 30.878 429.324 C 30.881 429.323 52.795 416.091 69.031 417.909 C 85.880 419.796 90.491 439.219 104.961 438.336 C 117.306 437.582 117.080 419.671 133.687 417.885 C 148.571 416.284 162.887 429.965 162.890 429.966 C 162.888 429.968 150.254 434.313 143.121 442.952 C 129.307 459.683 137.370 473.342 127.482 486.005 C 121.283 493.943 111.459 493.499 104.141 502.729 C 91.701 518.418 86.937 548.400 86.935 548.404 C 86.938 548.402 101.978 527.639 117.662 523.013 C 133.809 518.250 145.481 534.234 158.407 527.901 C 169.534 522.449 162.459 505.971 177.148 497.956 C 190.224 490.820 208.595 497.945 208.598 497.945 C 208.597 497.947 198.453 506.643 195.044 517.305 C 188.448 537.930 201.058 547.586 196.616 562.994 C 193.825 572.674 184.524 575.918 181.177 587.215 C 175.492 606.402 182.291 635.978 182.291 635.983 C 182.293 635.979 188.494 611.106 201.314 600.955 C 214.530 590.491 231.343 600.963 240.987 590.252 C 249.271 581.050 236.595 568.410 247.232 555.510 C 256.740 543.981 276.506 543.753 276.509 543.752 C 276.508 543.754 270.546 555.702 271.490 566.865 C 273.322 588.509 288.512 592.670 290.395 608.644 C 291.574 618.646 284.424 625.274 285.750 636.978 C 288.012 656.951 305.699 681.725 305.701 681.730 C 305.701 681.726 302.349 656.330 310.495 642.145 C 318.990 627.353 338.698 630.834 343.720 617.141 C 347.965 605.566 331.636 598.567 336.688 582.703 C 341.289 568.255 359.824 560.578 359.824 560.578 C 375.190 457.645 363.337 248.407 363.337 248.376 C 363.337 248.365 360.140 133.002 360.139 132.990 Z"/>
<path fill="#000000" fill-rule="evenodd" stroke="#ffffff" stroke-width="4" stroke-linejoin="round" d="M 360.063 132.990 C 360.063 132.988 359.652 119.626 365.081 109.768 C 375.648 90.577 391.182 92.735 399.374 78.732 C 404.459 70.040 400.625 61.122 406.520 50.926 C 416.616 33.463 442.733 17.670 442.737 17.667 C 442.736 17.670 429.490 39.589 431.319 55.826 C 433.216 72.672 452.659 77.256 451.786 91.724 C 451.040 104.084 433.099 103.857 431.313 120.483 C 429.714 135.372 443.401 149.691 443.403 149.694 C 443.404 149.692 447.744 137.054 456.381 129.916 C 473.116 116.084 486.789 124.146 499.455 114.245 C 507.376 108.053 506.928 98.246 516.139 90.937 C 531.826 78.490 561.813 73.726 561.817 73.724 C 561.815 73.727 541.040 88.769 536.422 104.459 C 531.672 120.597 547.668 132.248 541.351 145.170 C 535.903 156.313 519.402 149.237 511.384 163.943 C 504.251 177.025 511.381 195.398 511.381 195.401 C 511.383 195.400 520.074 185.254 530.733 181.839 C 551.364 175.228 561.031 187.827 576.444 183.379 C 586.106 180.590 589.348 171.314 600.625 167.973 C 619.813 162.288 649.390 169.081 649.395 169.081 C 649.392 169.083 624.511 175.284 614.365 188.110 C 603.918 201.317 614.393 218.106 603.701 227.749 C 594.500 236.047 581.841 223.374 568.938 234.028 C 557.413 243.544 557.190 263.309 557.189 263.312 C 557.191 263.311 569.133 257.348 580.293 258.285 C 601.941 260.104 606.118 275.274 622.094 277.158 C 632.080 278.335 638.703 271.218 650.388 272.546 C 670.359 274.816 695.138 292.488 695.143 292.490 C 695.139 292.490 669.739 289.140 655.555 297.291 C 640.782 305.780 644.263 325.457 630.590 330.483 C 619.014 334.738 611.998 318.418 596.131 323.483 C 581.686 328.094 574.017 346.625 574.015 346.627 C 574.017 346.627 587.375 346.222 597.229 351.653 C 616.401 362.218 614.247 377.730 628.233 385.925 C 636.934 391.024 645.865 387.201 656.072 393.110 C 673.527 403.216 689.321 429.320 689.324 429.324 C 689.320 429.323 667.407 416.091 651.171 417.909 C 634.322 419.796 629.711 439.219 615.241 438.336 C 602.896 437.582 603.122 419.671 586.514 417.885 C 571.631 416.284 557.315 429.965 557.312 429.966 C 557.314 429.968 569.948 434.313 577.081 442.952 C 590.895 459.683 582.832 473.342 592.720 486.005 C 598.919 493.943 608.743 493.499 616.061 502.729 C 628.501 518.418 633.265 548.400 633.267 548.404 C 633.264 548.402 618.224 527.639 602.539 523.013 C 586.393 518.250 574.721 534.234 561.795 527.901 C 550.668 522.449 557.743 505.971 543.054 497.956 C 529.978 490.820 511.607 497.945 511.604 497.945 C 511.605 497.947 521.749 506.643 525.158 517.305 C 531.754 537.930 519.144 547.586 523.586 562.994 C 526.377 572.674 535.678 575.918 539.025 587.215 C 544.710 606.402 537.911 635.978 537.911 635.983 C 537.909 635.979 531.708 611.106 518.888 600.955 C 505.672 590.491 488.859 600.963 479.215 590.252 C 470.931 581.050 483.607 568.410 472.970 555.510 C 463.462 543.981 443.696 543.753 443.693 543.752 C 443.694 543.754 449.656 555.702 448.712 566.865 C 446.880 588.509 431.689 592.670 429.807 608.644 C 428.628 618.646 435.778 625.274 434.452 636.978 C 432.189 656.951 414.503 681.725 414.501 681.730 C 414.501 681.726 417.853 656.330 409.707 642.145 C 401.212 627.353 381.504 630.834 376.482 617.141 C 372.237 605.566 388.566 598.567 383.514 582.703 C 378.913 568.255 360.378 560.578 360.378 560.578 C 345.855 457.559 363.145 248.509 363.145 248.478 C 363.145 248.466 360.063 133.002 360.063 132.990 Z"/>
</g>
<g id="lion_head2">
<path fill="#000000" fill-rule="evenodd" stroke="#ffffff" stroke-width="4" stroke-linejoin="round" d="M 360.000 432.722 C 437.885 432.722 517.827 389.396 517.827 311.511 C 517.827 233.626 437.885 190.300 360.000 190.300 C 282.115 190.300 202.173 233.626 202.173 311.511 C 202.173 389.396 282.115 432.722 360.000 432.722 Z"/>
<path fill="none" stroke="#000000" stroke-width="1" stroke-linecap="butt" stroke-linejoin="round" d="M 360.000 432.722 C 437.885 432.722 517.827 389.396 517.827 311.511 "/>
<path fill="none" stroke="#000000" stroke-width="1" stroke-linecap="butt" stroke-linejoin="round" d="M 517.827 311.511 C 517.827 233.626 437.885 190.300 360.000 190.300 "/>
<path fill="none" stroke="#000000" stroke-width="1" stroke-linecap="butt" stroke-linejoin="round" d="M 360.000 190.300 C 282.115 190.300 202.173 233.626 202.173 311.511 "/>
<path fill="none" stroke="#000000" stroke-width="1" stroke-linecap="butt" stroke-linejoin="round" d="M 202.173 311.511 C 202.173 389.396 282.115 432.722 360.000 432.722 "/>
<path fill="#000000" fill-rule="evenodd" stroke="#ffffff" stroke-width="4" stroke-linejoin="round" d="M 360.000 432.722 C 437.885 432.722 517.827 389.396 517.827 311.511 C 517.827 233.626 437.885 190.300 360.000 190.300 C 282.115 190.300 202.173 233.626 202.173 311.511 C 202.173 389.396 282.115 432.722 360.000 432.722 Z"/>
<path fill="#ffffff" fill-rule="evenodd" stroke="#000000" stroke-width="4" stroke-linecap="round" stroke-linejoin="round" d="M 359.281 435.558 C 399.657 435.558 440.760 459.102 440.760 500.083 C 440.760 541.064 399.657 564.608 359.281 564.608 C 318.904 564.608 277.802 541.064 277.802 500.083 C 277.802 459.102 318.904 435.558 359.281 435.558 Z"/>
<path fill="#ffffff" fill-rule="evenodd" stroke="#000000" stroke-width="4" stroke-linecap="round" stroke-linejoin="round" d="M 355.628 505.736 C 361.346 499.653 359.224 482.000 359.225 481.998 C 359.225 482.000 356.841 499.824 362.822 505.736 C 379.839 522.562 410.209 515.285 431.109 503.629 C 445.771 495.452 471.135 424.963 523.235 407.186 C 551.420 397.569 526.833 295.669 526.832 295.658 C 541.880 283.336 562.582 265.958 568.554 256.125 C 577.364 241.617 601.493 192.830 590.134 174.119 C 584.404 164.680 561.416 158.607 549.851 159.732 C 526.923 161.962 480.082 207.924 480.075 207.928 C 480.073 207.927 469.208 191.515 462.398 190.752 C 384.374 182.018 360.010 156.128 360.000 156.124 C 359.990 156.128 332.668 181.161 255.077 191.871 C 248.697 192.751 238.377 207.927 238.375 207.928 C 238.368 207.924 191.527 161.962 168.599 159.732 C 157.034 158.607 134.046 164.680 128.315 174.119 C 116.956 192.830 141.086 241.617 149.896 256.125 C 155.867 265.958 176.570 283.336 191.618 295.658 C 191.617 295.669 168.199 394.657 195.214 407.186 C 250.105 432.643 272.753 494.704 286.571 503.629 C 306.900 516.759 339.053 523.370 355.628 505.736 M 208.163 299.988 C 208.170 299.988 256.793 281.016 280.816 289.198 C 305.276 297.529 332.604 343.143 332.609 343.149 C 332.601 343.148 275.552 347.849 254.920 339.552 C 238.671 333.018 208.167 299.992 208.163 299.988 M 510.287 299.988 C 510.280 299.988 461.656 281.016 437.633 289.198 C 413.173 297.528 385.846 343.143 385.841 343.149 C 385.849 343.148 442.897 347.849 463.530 339.552 C 479.779 333.018 510.282 299.992 510.287 299.988 Z"/>
<path fill="#000000" fill-rule="evenodd" stroke="#000000" stroke-width="4" stroke-linecap="round" stroke-linejoin="round" d="M 325.561 440.538 C 325.560 440.542 358.446 473.423 358.450 473.426 C 358.565 472.704 392.885 440.541 392.888 440.538 C 392.702 440.770 373.262 435.663 359.520 435.642 C 345.540 435.621 325.564 440.535 325.561 440.538 Z"/>
<path fill="#000000" fill-rule="evenodd" stroke="#000000" stroke-width="4" stroke-linecap="round" stroke-linejoin="round" d="M 202.390 222.815 C 170.746 175.863 144.932 182.755 144.927 182.751 C 144.930 182.752 168.281 180.208 181.613 187.067 C 204.283 198.732 221.892 235.259 221.896 235.264 C 221.894 235.267 204.634 267.631 204.632 267.634 C 204.632 267.629 206.983 234.046 202.390 222.815 M 517.564 222.815 C 549.209 175.863 575.022 182.755 575.028 182.751 C 575.024 182.752 551.673 180.208 538.341 187.067 C 515.671 198.732 498.062 235.259 498.058 235.264 C 498.060 235.267 515.321 267.631 515.323 267.634 C 515.323 267.629 512.971 234.046 517.564 222.815 Z"/>
<path fill="none" stroke="#000000" stroke-width="4" stroke-linecap="round" stroke-linejoin="round" d="M 277.802 500.083 C 277.802 459.102 318.904 435.558 359.281 435.558 C 399.657 435.558 440.760 459.102 440.760 500.083 C 440.760 541.064 399.657 564.608 359.281 564.608 C 318.904 564.608 277.802 541.064 277.802 500.083 M 332.977 342.404 C 332.977 342.414 325.562 440.528 325.561 440.538 C 325.565 440.541 358.446 473.423 358.450 473.426 C 358.565 472.704 392.885 440.541 392.888 440.538 C 392.887 440.528 385.473 342.414 385.472 342.404 "/>
<path fill="none" stroke="#000000" stroke-width="1" stroke-linecap="butt" stroke-linejoin="round" d="M 208.163 299.988 C 208.170 299.988 256.793 281.016 280.816 289.198 "/>
<path fill="none" stroke="#000000" stroke-width="1" stroke-linecap="butt" stroke-linejoin="round" d="M 280.816 289.198 C 305.276 297.529 332.604 343.143 332.609 343.149 "/>
<path fill="none" stroke="#000000" stroke-width="1" stroke-linecap="butt" stroke-linejoin="round" d="M 332.609 343.149 C 332.601 343.148 275.552 347.849 254.920 339.552 "/>
<path fill="none" stroke="#000000" stroke-width="1" stroke-linecap="butt" stroke-linejoin="round" d="M 254.920 339.552 C 238.671 333.018 208.167 299.992 208.163 299.988 "/>
<path fill="none" stroke="#000000" stroke-width="1" stroke-linecap="butt" stroke-linejoin="round" d="M 510.287 299.988 C 510.280 299.988 461.656 281.016 437.633 289.198 "/>
<path fill="none" stroke="#000000" stroke-width="1" stroke-linecap="butt" stroke-linejoin="round" d="M 437.633 289.198 C 413.173 297.528 385.846 343.143 385.841 343.149 "/>
<path fill="none" stroke="#000000" stroke-width="1" stroke-linecap="butt" stroke-linejoin="round" d="M 385.841 343.149 C 385.849 343.148 442.897 347.849 463.530 339.552 "/>
<path fill="none" stroke="#000000" stroke-width="1" stroke-linecap="butt" stroke-linejoin="round" d="M 463.530 339.552 C 479.779 333.018 510.282 299.992 510.287 299.988 "/>
<path fill="#000000" fill-rule="evenodd" stroke="none" d="M 208.163 299.988 C 208.170 299.988 256.793 281.016 280.816 289.198 C 305.276 297.529 332.604 343.143 332.609 343.149 C 332.601 343.148 275.552 347.849 254.920 339.552 C 238.671 333.018 208.167 299.992 208.163 299.988 M 510.287 299.988 C 510.280 299.988 461.656 281.016 437.633 289.198 C 413.173 297.528 385.846 343.143 385.841 343.149 C 385.849 343.148 442.897 347.849 463.530 339.552 C 479.779 333.018 510.282 299.992 510.287 299.988 Z"/>
</g>
<g id="specs_2">
<path fill="#ff00ff" fill-rule="evenodd" stroke="none" d="M 310.074 294.329 C 310.084 294.329 409.916 294.329 409.926 294.329 C 409.926 294.319 409.926 194.487 409.926 194.477 C 409.916 194.477 310.084 194.477 310.074 194.477 C 310.074 194.487 310.074 294.319 310.074 294.329 Z"/>
<path fill="#ff0000" fill-rule="evenodd" stroke="none" d="M 360.000 685.693 C 360.001 685.697 371.724 718.521 371.725 718.524 C 371.724 718.523 360.001 707.616 360.000 707.615 C 359.999 707.616 348.276 718.523 348.275 718.524 C 348.276 718.521 359.999 685.697 360.000 685.693 Z"/>
<path fill="#0000ff" fill-rule="evenodd" stroke="none" d="M 360.000 26.023 C 360.001 26.025 366.810 45.092 366.811 45.094 C 366.810 45.094 360.001 38.758 360.000 38.757 C 359.999 38.758 353.190 45.094 353.189 45.094 C 353.190 45.092 359.999 26.025 360.000 26.023 Z"/>
<path fill="#00ff00" fill-rule="evenodd" stroke="none" d="M 38.340 349.714 C 38.342 349.714 57.374 342.808 57.376 342.807 C 57.375 342.808 51.074 349.649 51.073 349.650 C 51.074 349.651 57.444 356.428 57.445 356.429 C 57.443 356.428 38.342 349.715 38.340 349.714 Z"/>
<path fill="#ffff00" fill-rule="evenodd" stroke="none" d="M 132.122 578.405 C 132.123 578.403 140.574 560.004 140.575 560.002 C 140.575 560.003 141.019 569.294 141.020 569.295 C 141.020 569.295 150.319 569.520 150.320 569.520 C 150.318 569.521 132.124 578.404 132.122 578.405 Z"/>
<path fill="#ffff00" fill-rule="evenodd" stroke="none" d="M 589.128 578.179 C 589.127 578.177 580.309 559.952 580.308 559.950 C 580.308 559.951 580.050 569.249 580.050 569.250 C 580.049 569.250 570.757 569.662 570.756 569.662 C 570.758 569.662 589.126 578.178 589.128 578.179 Z"/>
<path fill="#00ff00" fill-rule="evenodd" stroke="none" d="M 682.647 349.714 C 682.645 349.714 663.612 342.808 663.611 342.807 C 663.611 342.808 669.912 349.649 669.913 349.650 C 669.912 349.651 663.543 356.428 663.542 356.429 C 663.544 356.428 682.645 349.715 682.647 349.714 Z"/>
<path fill="#00ffff" fill-rule="evenodd" stroke="none" d="M 587.619 120.277 C 587.619 120.279 580.860 139.364 580.859 139.366 C 580.859 139.365 579.579 130.152 579.579 130.151 C 579.578 130.151 570.297 130.764 570.296 130.764 C 570.298 130.763 587.618 120.278 587.619 120.277 Z"/>
<path fill="#00ffff" fill-rule="evenodd" stroke="none" d="M 132.486 120.910 C 132.487 120.912 140.503 139.503 140.504 139.505 C 140.504 139.504 141.167 130.227 141.167 130.226 C 141.168 130.226 150.469 130.219 150.470 130.219 C 150.468 130.218 132.488 120.911 132.486 120.910 Z"/>
<path fill="#be0027" fill-rule="evenodd" stroke="none" d="M 360.000 670.019 C 360.001 670.016 371.724 637.192 371.725 637.189 C 371.724 637.190 360.001 648.097 360.000 648.098 C 359.999 648.097 348.276 637.190 348.275 637.189 C 348.276 637.192 359.999 670.016 360.000 670.019 Z"/>
</g>
</g>
</svg>
