<?xml version="1.0" encoding="utf-8"?>
<!-- Generator: Moho 12.5 build 22414 -->
<!DOCTYPE svg PUBLIC "-//W3C//DTD SVG 1.1//EN" "http://www.w3.org/Graphics/SVG/1.1/DTD/svg11.dtd">
<svg version="1.1" id="Frame_0" xmlns="http://www.w3.org/2000/svg" xmlns:xlink="http://www.w3.org/1999/xlink" width="720px" height="720px">
<g id="lion_leg">
<g id="lion_leg">
<path fill="#ffffff" fill-rule="evenodd" stroke="#000000" stroke-width="4" stroke-linejoin="round" d="M 61.892 677.471 C 61.895 677.466 74.924 640.800 98.329 625.680 C 131.841 604.030 170.056 614.499 170.063 614.497 C 170.064 614.502 180.461 659.332 180.462 659.337 C 180.455 659.337 140.776 659.059 110.244 663.222 C 74.730 668.064 61.896 677.469 61.892 677.471 Z"/>
<path fill="#ffffff" fill-rule="evenodd" stroke="#000000" stroke-width="4" stroke-linejoin="round" d="M 276.819 601.340 C 273.514 578.940 253.174 555.184 230.545 555.993 C 154.315 558.720 137.078 667.966 137.074 667.974 C 137.084 667.974 172.188 667.217 237.024 668.900 C 237.028 668.893 280.818 628.449 276.819 601.340 Z"/>
<path fill="#ffffff" fill-rule="evenodd" stroke="#000000" stroke-width="4" stroke-linejoin="round" d="M 120.489 684.994 C 120.493 684.989 133.776 647.600 157.198 630.897 C 193.255 605.184 228.778 618.814 228.785 618.813 C 228.786 618.817 240.754 660.713 240.755 660.717 C 240.747 660.719 197.571 663.282 164.993 671.121 C 131.683 679.136 120.494 684.993 120.489 684.994 Z"/>
<path fill="#ffffff" fill-rule="evenodd" stroke="#000000" stroke-width="4" stroke-linejoin="round" d="M 340.675 619.850 C 338.629 590.519 316.385 556.026 286.998 555.068 C 210.975 552.589 198.157 667.040 198.154 667.048 C 198.166 667.047 233.977 672.563 316.613 665.198 C 344.111 662.746 341.924 637.747 340.675 619.850 Z"/>
<path fill="#ffffff" fill-rule="evenodd" stroke="#000000" stroke-width="4" stroke-linejoin="round" d="M 182.161 691.731 C 182.165 691.725 193.598 652.354 216.957 634.195 C 252.398 606.642 288.297 620.769 288.304 620.768 C 288.305 620.772 295.679 664.268 295.680 664.272 C 295.673 664.273 262.998 666.564 225.506 674.265 C 201.833 679.127 182.166 691.729 182.161 691.731 Z"/>
<path fill="#ffffff" fill-rule="evenodd" stroke="#000000" stroke-width="4" stroke-linejoin="round" d="M 517.438 50.691 C 537.333 62.128 590.503 115.156 581.295 194.137 C 573.765 258.733 475.904 290.251 485.973 309.820 C 503.873 344.612 681.703 385.394 658.108 402.366 C 547.412 481.992 598.224 609.618 497.078 660.570 C 482.495 667.917 450.809 667.046 450.805 667.048 C 450.796 667.053 276.346 668.384 276.329 668.385 C 276.340 668.374 255.430 507.771 387.874 566.173 C 469.452 602.146 489.510 472.367 488.749 456.043 C 486.778 413.743 276.693 403.979 221.291 341.286 C 156.968 268.498 157.497 154.225 262.937 82.156 C 326.450 38.744 438.291 5.186 517.438 50.691 Z"/>
<path fill="none" stroke="#000000" stroke-width="4" stroke-linejoin="round" d="M 391.576 623.552 C 391.573 623.556 388.362 667.320 366.632 667.676 C 347.977 667.981 342.720 668.005 342.718 668.005 "/>
</g>
<g id="specs_2">
<path fill="#ff00ff" fill-rule="evenodd" stroke="none" d="M 266.746 300.084 C 266.768 300.084 481.549 300.084 481.571 300.084 C 481.571 300.063 481.571 85.281 481.571 85.260 C 481.549 85.260 266.768 85.260 266.746 85.260 C 266.746 85.281 266.746 300.063 266.746 300.084 Z"/>
<path fill="#ff0000" fill-rule="evenodd" stroke="none" d="M 362.604 188.398 C 362.605 188.395 378.427 154.994 378.429 154.990 C 378.429 154.992 379.040 171.960 379.040 171.962 C 379.042 171.962 396.010 172.573 396.012 172.573 C 396.008 172.575 362.607 188.397 362.604 188.398 Z"/>
<path fill="#0000ff" fill-rule="evenodd" stroke="none" d="M 392.178 19.059 C 392.179 19.061 399.400 39.279 399.400 39.281 C 399.400 39.280 392.179 32.562 392.178 32.561 C 392.178 32.562 384.957 39.280 384.957 39.281 C 384.957 39.279 392.178 19.061 392.178 19.059 Z"/>
<path fill="#00ff00" fill-rule="evenodd" stroke="none" d="M 165.654 229.716 C 165.656 229.716 185.838 222.393 185.840 222.392 C 185.839 222.393 179.157 229.648 179.157 229.648 C 179.157 229.649 185.912 236.836 185.912 236.836 C 185.910 236.836 165.656 229.717 165.654 229.716 Z"/>
<path fill="#ffff00" fill-rule="evenodd" stroke="none" d="M 208.464 669.145 C 208.465 669.143 217.426 649.634 217.427 649.632 C 217.427 649.633 217.899 659.485 217.899 659.486 C 217.900 659.486 227.759 659.725 227.760 659.725 C 227.758 659.726 208.466 669.144 208.464 669.145 Z"/>
<path fill="#ffff00" fill-rule="evenodd" stroke="none" d="M 496.128 668.906 C 496.127 668.904 486.777 649.578 486.776 649.577 C 486.776 649.578 486.502 659.437 486.502 659.438 C 486.501 659.438 476.648 659.875 476.647 659.875 C 476.649 659.876 496.126 668.905 496.128 668.906 Z"/>
<path fill="#00ff00" fill-rule="evenodd" stroke="none" d="M 671.234 398.332 C 671.232 398.331 651.051 391.008 651.049 391.007 C 651.050 391.008 657.731 398.263 657.732 398.263 C 657.731 398.264 650.977 405.451 650.976 405.452 C 650.978 405.451 671.232 398.332 671.234 398.332 Z"/>
<path fill="#00ffff" fill-rule="evenodd" stroke="none" d="M 537.004 49.497 C 537.004 49.499 529.836 69.737 529.836 69.739 C 529.836 69.738 528.478 59.968 528.478 59.967 C 528.477 59.968 518.636 60.617 518.635 60.617 C 518.637 60.616 537.003 49.498 537.004 49.497 Z"/>
<path fill="#00ffff" fill-rule="evenodd" stroke="none" d="M 265.484 63.039 C 265.485 63.041 273.986 82.756 273.987 82.758 C 273.987 82.757 274.689 72.919 274.689 72.918 C 274.690 72.918 284.553 72.910 284.554 72.910 C 284.552 72.909 265.486 63.040 265.484 63.039 Z"/>
<path fill="#be0027" fill-rule="evenodd" stroke="none" d="M 583.276 108.527 C 583.272 108.526 549.055 94.557 549.051 94.556 C 549.052 94.557 560.053 107.491 560.054 107.492 C 560.053 107.493 547.945 119.396 547.943 119.397 C 547.947 119.396 583.272 108.529 583.276 108.527 Z"/>
</g>
</g>
</svg>
