<?xml version="1.0" encoding="utf-8"?>
<!-- Generator: Moho 12.5 build 22414 -->
<!DOCTYPE svg PUBLIC "-//W3C//DTD SVG 1.1//EN" "http://www.w3.org/Graphics/SVG/1.1/DTD/svg11.dtd">
<svg version="1.1" id="Frame_0" xmlns="http://www.w3.org/2000/svg" xmlns:xlink="http://www.w3.org/1999/xlink" width="720px" height="720px">
<g id="lion_paw">
<g id="lion_paw_2">
<path fill="#ffffff" fill-rule="evenodd" stroke="#000000" stroke-width="4" stroke-linejoin="round" d="M 330.293 617.473 C 330.296 617.469 341.517 583.407 360.000 575.980 C 377.890 580.840 389.704 617.469 389.707 617.473 C 389.703 617.480 388.190 649.109 360.000 695.937 C 331.551 648.022 330.297 617.480 330.293 617.473 M 562.120 606.046 C 562.112 606.044 545.249 581.471 490.440 580.849 C 490.443 580.846 508.077 565.328 513.993 556.278 C 517.795 550.463 521.697 535.607 522.698 536.213 C 577.843 569.571 562.116 606.039 562.120 606.046 M 157.880 606.046 C 157.888 606.044 174.751 581.471 229.560 580.849 C 229.557 580.846 211.923 565.328 206.007 556.278 C 202.205 550.463 198.303 535.607 197.302 536.213 C 142.157 569.571 157.884 606.039 157.880 606.046 Z"/>
<path fill="#ffffff" fill-rule="evenodd" stroke="none" d="M 222.673 451.631 C 239.565 441.704 267.355 437.857 277.899 438.157 C 290.224 373.148 288.187 131.298 288.519 127.874 C 294.092 70.352 425.271 68.144 431.481 127.874 C 431.758 130.535 429.776 373.148 442.101 438.157 C 452.645 437.857 480.435 441.704 497.327 451.631 C 533.025 472.611 551.037 517.020 529.536 552.408 C 510.856 583.153 470.842 588.341 439.464 570.743 C 423.130 608.072 395.587 626.209 361.104 626.217 C 324.668 627.327 295.574 605.106 280.536 570.743 C 249.158 588.341 209.144 583.153 190.464 552.408 C 168.964 517.020 186.975 472.611 222.673 451.631 Z"/>
<path fill="none" stroke="#000000" stroke-width="4" stroke-linejoin="round" d="M 296.964 486.947 C 264.356 519.933 278.548 564.499 280.536 570.743 C 249.158 588.341 209.144 583.153 190.464 552.408 C 168.964 517.020 186.975 472.611 222.673 451.631 C 239.565 441.704 267.355 437.857 277.899 438.157 C 290.224 373.148 288.187 131.298 288.519 127.874 C 294.092 70.352 425.271 68.144 431.481 127.874 C 431.758 130.535 429.776 373.148 442.101 438.157 C 452.645 437.857 480.435 441.704 497.327 451.631 C 533.025 472.611 551.037 517.020 529.536 552.408 C 510.856 583.153 470.842 588.341 439.464 570.743 C 441.610 564.535 453.302 515.679 424.259 486.850 M 361.104 626.217 C 395.587 626.209 423.130 608.072 439.464 570.743 M 280.536 570.743 C 295.574 605.106 324.668 627.327 361.104 626.217 "/>
</g>
<g id="specs_2">
<path fill="#ff0000" fill-rule="evenodd" stroke="none" d="M 360.000 177.264 C 360.001 177.260 372.432 142.454 372.433 142.451 C 372.432 142.452 360.001 154.018 360.000 154.019 C 359.999 154.018 347.568 142.452 347.567 142.451 C 347.568 142.454 359.999 177.260 360.000 177.264 Z"/>
<path fill="#0000ff" fill-rule="evenodd" stroke="none" d="M 360.000 71.860 C 360.001 71.862 367.221 92.081 367.222 92.083 C 367.221 92.082 360.001 85.364 360.000 85.363 C 359.999 85.364 352.779 92.082 352.778 92.083 C 352.779 92.081 359.999 71.862 360.000 71.860 Z"/>
<path fill="#00ff00" fill-rule="evenodd" stroke="none" d="M 272.347 360.997 C 272.349 360.997 291.314 354.115 291.316 354.114 C 291.316 354.115 285.036 360.933 285.036 360.933 C 285.036 360.934 291.384 367.687 291.385 367.688 C 291.383 367.687 272.349 360.998 272.347 360.997 Z"/>
<path fill="#ffff00" fill-rule="evenodd" stroke="none" d="M 150.416 629.274 C 150.417 629.272 159.377 609.762 159.378 609.760 C 159.378 609.761 159.850 619.613 159.850 619.614 C 159.851 619.614 169.711 619.853 169.712 619.853 C 169.710 619.854 150.418 629.273 150.416 629.274 Z"/>
<path fill="#ffff00" fill-rule="evenodd" stroke="none" d="M 569.584 629.035 C 569.583 629.033 560.233 609.707 560.232 609.705 C 560.232 609.706 559.958 619.565 559.958 619.566 C 559.957 619.566 550.104 620.003 550.103 620.003 C 550.105 620.004 569.582 629.034 569.584 629.035 Z"/>
<path fill="#00ff00" fill-rule="evenodd" stroke="none" d="M 447.653 360.997 C 447.651 360.997 428.686 354.115 428.684 354.114 C 428.684 354.115 434.964 360.933 434.964 360.933 C 434.964 360.934 428.616 367.687 428.615 367.688 C 428.617 367.687 447.651 360.998 447.653 360.997 Z"/>
<path fill="#00ffff" fill-rule="evenodd" stroke="none" d="M 432.440 99.023 C 432.439 99.024 426.383 116.124 426.383 116.126 C 426.383 116.125 425.236 107.871 425.235 107.870 C 425.235 107.870 416.920 108.418 416.919 108.418 C 416.920 108.418 432.439 99.024 432.440 99.023 Z"/>
<path fill="#00ffff" fill-rule="evenodd" stroke="none" d="M 287.672 99.589 C 287.673 99.591 294.855 116.249 294.856 116.251 C 294.856 116.250 295.450 107.937 295.450 107.937 C 295.451 107.937 303.784 107.930 303.785 107.930 C 303.783 107.929 287.674 99.590 287.672 99.589 Z"/>
<path fill="#be0027" fill-rule="evenodd" stroke="none" d="M 360.000 710.010 C 360.001 710.007 372.432 675.201 372.433 675.197 C 372.432 675.199 360.001 686.764 360.000 686.766 C 359.999 686.764 347.568 675.199 347.567 675.197 C 347.568 675.201 359.999 710.007 360.000 710.010 Z"/>
</g>
</g>
</svg>
