<?xml version="1.0" encoding="utf-8"?>
<!-- Generator: Moho 12.5 build 22414 -->
<!DOCTYPE svg PUBLIC "-//W3C//DTD SVG 1.1//EN" "http://www.w3.org/Graphics/SVG/1.1/DTD/svg11.dtd">
<svg version="1.1" id="Frame_0" xmlns="http://www.w3.org/2000/svg" xmlns:xlink="http://www.w3.org/1999/xlink" width="720px" height="720px">
<g id="lotus">
<g id="lotus_2">
<path fill="#ffffff" fill-rule="evenodd" stroke="#000000" stroke-width="4" stroke-linecap="round" stroke-linejoin="round" d="M 611.103 531.764 C 611.098 531.761 530.989 470.356 489.753 468.423 C 438.127 466.004 431.011 464.400 360.187 515.582 C 360.187 515.582 403.802 544.986 443.174 559.698 C 470.394 569.869 510.049 573.300 537.101 562.986 C 571.121 550.015 611.096 531.768 611.103 531.764 Z"/>
<path fill="#ffffff" fill-rule="evenodd" stroke="#000000" stroke-width="4" stroke-linecap="round" stroke-linejoin="round" d="M 108.713 531.890 C 108.719 531.887 172.103 474.032 230.064 468.549 C 281.516 463.681 289.189 464.000 359.630 515.708 C 359.630 515.708 323.351 542.225 290.252 556.177 C 259.551 569.118 213.864 574.587 182.716 563.112 C 148.552 550.525 108.721 531.893 108.713 531.890 Z"/>
<path fill="none" stroke="#000000" stroke-width="4" stroke-linecap="round" stroke-linejoin="round" d="M 607.110 531.483 C 573.724 531.980 525.259 525.672 491.064 507.437 C 459.220 490.456 433.144 486.353 368.487 514.708 "/>
<path fill="none" stroke="#000000" stroke-width="4" stroke-linecap="round" stroke-linejoin="round" d="M 114.367 532.567 C 147.754 533.065 196.218 526.756 230.413 508.522 C 262.257 491.541 288.334 487.437 352.991 515.792 "/>
<path fill="#ffffff" fill-rule="evenodd" stroke="#000000" stroke-width="4" stroke-linecap="round" stroke-linejoin="round" d="M 266.519 138.994 C 266.517 139.003 263.174 189.923 248.346 236.404 C 232.160 287.144 215.973 337.884 236.328 408.882 C 260.753 494.079 315.564 524.465 372.362 508.181 C 429.160 491.898 459.546 437.087 435.121 351.890 C 414.767 280.892 374.155 246.435 333.543 211.978 C 299.292 182.918 266.526 139.001 266.519 138.994 Z"/>
<path fill="none" stroke="#000000" stroke-width="4" stroke-linecap="round" stroke-linejoin="round" d="M 268.526 145.994 C 302.676 265.111 336.826 384.229 370.976 503.346 "/>
<path fill="#ffffff" fill-rule="evenodd" stroke="#000000" stroke-width="4" stroke-linecap="round" stroke-linejoin="round" d="M 456.799 138.994 C 456.801 139.003 460.144 189.923 474.972 236.404 C 491.158 287.144 507.345 337.884 486.990 408.882 C 462.565 494.079 407.754 524.465 350.956 508.181 C 294.158 491.898 263.772 437.087 288.197 351.890 C 308.551 280.892 349.163 246.435 389.775 211.978 C 424.026 182.918 456.792 139.001 456.799 138.994 Z"/>
<path fill="none" stroke="#000000" stroke-width="4" stroke-linecap="round" stroke-linejoin="round" d="M 454.792 145.994 C 420.642 265.111 386.492 384.229 352.342 503.346 "/>
<path fill="#ffffff" fill-rule="evenodd" stroke="#000000" stroke-width="4" stroke-linecap="round" stroke-linejoin="round" d="M 103.540 229.743 C 103.543 229.752 123.625 273.939 132.086 319.567 C 141.323 369.377 150.559 419.187 199.531 469.554 C 258.297 529.995 317.901 530.833 358.195 491.655 C 398.489 452.478 399.327 392.874 340.560 332.432 C 291.588 282.064 242.058 271.432 192.527 260.801 C 150.755 251.834 103.549 229.746 103.540 229.743 Z"/>
<path fill="none" stroke="#000000" stroke-width="4" stroke-linecap="round" stroke-linejoin="round" d="M 271.823 419.661 C 184.721 353.322 176.505 295.862 107.774 233.857 "/>
<path fill="#ffffff" fill-rule="evenodd" stroke="#000000" stroke-width="4" stroke-linecap="round" stroke-linejoin="round" d="M 619.463 229.743 C 619.460 229.752 599.378 273.939 590.917 319.567 C 581.681 369.377 572.445 419.187 523.472 469.554 C 464.706 529.995 405.102 530.833 364.808 491.655 C 324.514 452.478 323.676 392.874 382.443 332.432 C 431.415 282.064 480.945 271.432 530.476 260.801 C 572.249 251.834 619.454 229.746 619.463 229.743 Z"/>
<path fill="none" stroke="#000000" stroke-width="4" stroke-linecap="round" stroke-linejoin="round" d="M 451.180 419.661 C 538.283 353.322 546.498 295.862 615.230 233.857 "/>
<path fill="#ffffff" fill-rule="evenodd" stroke="#000000" stroke-width="4" stroke-linecap="round" stroke-linejoin="round" d="M 164.228 169.356 C 164.228 169.366 172.210 217.242 168.593 263.507 C 164.644 314.011 160.694 364.515 194.987 425.827 C 236.139 499.402 293.502 515.613 342.551 488.179 C 391.601 460.744 407.813 403.381 366.661 329.807 C 332.368 268.495 287.268 245.425 242.167 222.355 C 204.130 202.898 164.236 169.362 164.228 169.356 Z"/>
<path fill="none" stroke="#000000" stroke-width="4" stroke-linecap="round" stroke-linejoin="round" d="M 278.030 396.310 C 211.029 309.717 217.941 252.085 167.567 174.425 "/>
<path fill="#ffffff" fill-rule="evenodd" stroke="#000000" stroke-width="4" stroke-linecap="round" stroke-linejoin="round" d="M 555.772 169.356 C 555.772 169.366 547.790 217.242 551.408 263.507 C 555.357 314.011 559.306 364.516 525.013 425.828 C 483.861 499.402 426.498 515.613 377.449 488.179 C 328.399 460.745 312.187 403.382 353.339 329.807 C 387.632 268.495 432.732 245.425 477.833 222.355 C 515.870 202.898 555.764 169.362 555.772 169.356 Z"/>
<path fill="none" stroke="#000000" stroke-width="4" stroke-linecap="round" stroke-linejoin="round" d="M 442.283 396.310 C 509.284 309.717 502.372 252.085 552.745 174.425 "/>
<path fill="#ffffff" fill-rule="evenodd" stroke="#000000" stroke-width="4" stroke-linecap="round" stroke-linejoin="round" d="M 360.000 124.178 C 360.005 124.187 377.588 173.149 405.178 214.535 C 435.297 259.713 465.416 304.891 465.416 380.188 C 465.416 470.544 420.237 515.722 360.000 515.722 C 299.763 515.722 254.584 470.544 254.584 380.188 C 254.584 304.891 284.703 259.713 314.822 214.535 C 340.223 176.432 359.995 124.187 360.000 124.178 Z"/>
<path fill="#ffffff" fill-rule="evenodd" stroke="#000000" stroke-width="4" stroke-linecap="round" stroke-linejoin="round" d="M 676.247 304.891 C 676.241 304.901 633.405 350.701 616.010 410.306 C 604.982 448.093 567.116 486.457 525.653 500.663 C 466.672 520.871 464.980 525.297 360.000 515.722 C 360.000 515.722 394.874 444.265 435.297 395.247 C 463.243 361.360 512.563 326.894 555.772 319.950 C 610.112 311.217 676.235 304.892 676.247 304.891 Z"/>
<path fill="#ffffff" fill-rule="evenodd" stroke="#000000" stroke-width="4" stroke-linecap="round" stroke-linejoin="round" d="M 43.753 304.891 C 43.759 304.901 86.595 350.701 103.990 410.306 C 115.018 448.093 152.884 486.457 194.347 500.663 C 253.328 520.871 255.104 526.180 360.000 515.722 C 360.000 515.722 332.548 453.588 299.763 410.306 C 269.353 370.162 213.677 328.470 164.228 319.950 C 109.990 310.606 43.765 304.892 43.753 304.891 Z"/>
<path fill="none" stroke="#000000" stroke-width="4" stroke-linecap="round" stroke-linejoin="round" d="M 360.000 131.602 C 360.000 257.933 360.000 384.263 360.000 510.594 "/>
<path fill="none" stroke="#000000" stroke-width="4" stroke-linecap="round" stroke-linejoin="round" d="M 671.233 308.277 C 627.150 332.861 568.473 377.749 537.490 427.466 C 508.637 473.764 477.601 498.845 371.526 510.594 "/>
<path fill="none" stroke="#000000" stroke-width="4" stroke-linecap="round" stroke-linejoin="round" d="M 47.260 306.074 C 92.689 330.994 153.406 376.551 185.409 427.466 C 214.440 473.652 245.298 498.845 351.372 510.594 "/>
</g>
<g id="specs_2">
<path fill="#ff00ff" fill-rule="evenodd" stroke="none" d="M 219.266 577.466 C 219.294 577.466 500.706 577.466 500.734 577.466 C 500.734 577.444 500.734 356.964 500.734 356.942 C 500.706 356.942 219.294 356.942 219.266 356.942 C 219.266 356.964 219.266 577.444 219.266 577.466 Z"/>
<path fill="#ff0000" fill-rule="evenodd" stroke="none" d="M 360.000 617.917 C 360.001 617.921 372.432 652.726 372.433 652.730 C 372.432 652.729 360.001 641.163 360.000 641.162 C 359.999 641.163 347.568 652.729 347.567 652.730 C 347.568 652.726 359.999 617.921 360.000 617.917 Z"/>
<path fill="#0000ff" fill-rule="evenodd" stroke="none" d="M 360.075 123.724 C 360.075 123.725 366.264 141.053 366.264 141.054 C 366.264 141.054 360.075 135.296 360.075 135.296 C 360.074 135.296 353.886 141.054 353.885 141.054 C 353.886 141.053 360.074 123.725 360.075 123.724 Z"/>
<path fill="#ffff00" fill-rule="evenodd" stroke="none" d="M 152.991 561.625 C 152.992 561.623 160.671 544.903 160.672 544.902 C 160.672 544.903 161.076 553.346 161.076 553.346 C 161.077 553.346 169.527 553.551 169.528 553.551 C 169.526 553.552 152.993 561.624 152.991 561.625 Z"/>
<path fill="#ffff00" fill-rule="evenodd" stroke="none" d="M 568.295 561.420 C 568.294 561.418 560.281 544.856 560.280 544.854 C 560.280 544.855 560.045 553.304 560.045 553.305 C 560.044 553.305 551.600 553.680 551.599 553.680 C 551.601 553.680 568.293 561.419 568.295 561.420 Z"/>
<path fill="#00ff00" fill-rule="evenodd" stroke="none" d="M 682.734 302.929 C 682.732 302.929 661.187 303.437 661.185 303.437 C 661.186 303.437 670.080 307.787 670.081 307.788 C 670.080 307.788 666.382 316.972 666.382 316.973 C 666.384 316.972 682.733 302.930 682.734 302.929 Z"/>
<path fill="#00ffff" fill-rule="evenodd" stroke="none" d="M 559.386 166.974 C 559.385 166.976 553.243 184.319 553.242 184.321 C 553.242 184.320 552.079 175.948 552.079 175.947 C 552.078 175.947 543.644 176.504 543.643 176.504 C 543.645 176.503 559.384 166.975 559.386 166.974 Z"/>
<path fill="#00ffff" fill-rule="evenodd" stroke="none" d="M 160.859 167.549 C 160.860 167.550 168.146 184.446 168.146 184.448 C 168.146 184.447 168.749 176.015 168.749 176.015 C 168.749 176.015 177.202 176.008 177.203 176.008 C 177.201 176.007 160.861 167.550 160.859 167.549 Z"/>
<path fill="#be0027" fill-rule="evenodd" stroke="none" d="M 360.000 536.569 C 360.001 536.565 372.432 501.760 372.433 501.756 C 372.432 501.757 360.001 513.323 360.000 513.324 C 359.999 513.323 347.568 501.757 347.567 501.756 C 347.568 501.760 359.999 536.565 360.000 536.569 Z"/>
<path fill="#00ff00" fill-rule="evenodd" stroke="none" d="M 36.448 302.929 C 36.450 302.929 57.996 303.437 57.998 303.437 C 57.997 303.437 49.103 307.787 49.102 307.788 C 49.103 307.789 52.800 316.972 52.801 316.973 C 52.799 316.972 36.450 302.930 36.448 302.929 Z"/>
</g>
</g>
</svg>
