<?xml version="1.0" encoding="utf-8"?>
<!-- Generator: Moho 12.5 build 22414 -->
<!DOCTYPE svg PUBLIC "-//W3C//DTD SVG 1.1//EN" "http://www.w3.org/Graphics/SVG/1.1/DTD/svg11.dtd">
<svg version="1.1" id="Frame_0" xmlns="http://www.w3.org/2000/svg" xmlns:xlink="http://www.w3.org/1999/xlink" width="720px" height="720px">
<g id="lute">
<g id="lute">
<path fill="#000000" fill-rule="evenodd" stroke="#ffffff" stroke-width="4" stroke-linejoin="round" d="M 536.413 571.818 C 535.923 690.440 415.675 689.341 360.000 682.717 C 407.478 682.717 497.120 672.267 497.244 571.818 C 497.465 393.090 404.682 327.840 360.000 327.840 C 407.747 322.391 537.206 379.591 536.413 571.818 Z"/>
<path fill="#000000" fill-rule="evenodd" stroke="none" d="M 407.270 33.036 C 407.280 33.036 504.049 33.036 504.059 33.036 C 504.047 33.047 389.029 135.667 389.018 135.677 C 389.019 135.700 399.306 367.123 399.307 367.147 C 399.299 367.147 320.701 367.147 320.693 367.147 C 320.694 367.123 330.981 135.700 330.982 135.677 C 330.990 135.667 407.263 33.047 407.270 33.036 Z"/>
<path fill="none" stroke="#ffffff" stroke-width="1" stroke-linecap="butt" stroke-linejoin="round" d="M 360.000 327.840 C 404.682 327.840 497.465 393.090 497.244 571.818 "/>
<path fill="none" stroke="#ffffff" stroke-width="1" stroke-linecap="butt" stroke-linejoin="round" d="M 497.244 571.818 C 497.120 672.267 407.478 682.717 360.000 682.717 "/>
<path fill="#ffffff" fill-rule="evenodd" stroke="#000000" stroke-width="4" stroke-linejoin="round" d="M 360.000 327.840 C 404.682 327.840 497.465 393.090 497.244 571.818 C 497.120 672.267 407.478 682.717 360.000 682.717 C 312.522 682.717 222.880 672.267 222.756 571.818 C 222.534 393.090 315.318 327.840 360.000 327.840 Z"/>
<path fill="#000000" fill-rule="evenodd" stroke="none" d="M 360.000 450.816 C 393.971 450.816 421.376 478.220 421.376 512.191 C 421.376 546.162 393.971 573.567 360.000 573.567 C 326.029 573.567 298.624 546.162 298.624 512.191 C 298.624 478.220 326.029 450.816 360.000 450.816 Z"/>
<path fill="none" stroke="#ffffff" stroke-width="4" stroke-linejoin="round" d="M 422.273 65.333 C 402.408 88.773 362.684 135.646 362.678 135.653 C 362.678 135.704 362.678 473.415 362.678 642.296 M 415.715 52.661 C 394.002 80.325 350.582 135.645 350.576 135.653 C 350.575 135.704 344.571 473.415 341.569 642.296 M 428.831 78.005 C 410.814 97.221 374.785 135.647 374.780 135.653 C 374.780 135.704 380.784 473.415 383.786 642.296 M 434.318 88.628 C 417.877 104.397 384.998 135.931 384.993 135.935 C 384.995 135.986 401.983 642.245 401.985 642.296 C 401.977 642.296 323.378 642.296 323.371 642.296 C 323.372 642.251 340.360 135.990 340.362 135.939 C 340.368 135.930 386.933 73.353 410.219 42.060 "/>
<path fill="none" stroke="#000000" stroke-width="4" stroke-linejoin="round" d="M 418.989 58.988 C 398.434 84.543 357.329 135.645 357.322 135.653 C 357.322 135.704 357.322 473.415 357.322 642.296 M 412.509 46.467 C 390.116 76.196 345.338 135.644 345.331 135.653 C 345.330 135.704 339.253 473.415 336.214 642.296 M 425.704 71.963 C 407.018 93.193 369.651 135.647 369.645 135.653 C 369.646 135.704 375.502 473.415 378.431 642.296 M 431.426 83.040 C 414.348 100.671 380.195 135.930 380.190 135.935 C 380.192 135.986 396.628 642.251 396.629 642.296 C 396.622 642.296 318.023 642.296 318.015 642.296 C 318.017 642.251 335.005 135.990 335.006 135.939 C 335.013 135.929 382.959 69.123 406.935 35.716 "/>
<path fill="#000000" fill-rule="evenodd" stroke="none" d="M 433.100 104.610 C 438.477 104.610 442.814 108.947 442.814 114.324 C 442.814 119.700 438.477 124.037 433.100 124.037 C 427.724 124.037 423.387 119.700 423.387 114.324 C 423.387 108.947 427.724 104.610 433.100 104.610 Z"/>
<path fill="#000000" fill-rule="evenodd" stroke="none" d="M 467.539 72.821 C 472.915 72.821 477.252 77.158 477.252 82.534 C 477.252 87.911 472.915 92.248 467.539 92.248 C 462.162 92.248 457.825 87.911 457.825 82.534 C 457.825 77.158 462.162 72.821 467.539 72.821 Z"/>
<path fill="#000000" fill-rule="evenodd" stroke="none" d="M 502.860 41.915 C 508.236 41.915 512.573 46.252 512.573 51.629 C 512.573 57.005 508.236 61.342 502.860 61.342 C 497.484 61.342 493.146 57.005 493.146 51.629 C 493.146 46.252 497.484 41.915 502.860 41.915 Z"/>
<path fill="#000000" fill-rule="evenodd" stroke="none" d="M 333.789 97.896 C 339.063 96.855 344.158 100.271 345.199 105.545 C 346.239 110.820 342.823 115.914 337.549 116.955 C 332.274 117.995 327.180 114.580 326.139 109.305 C 325.099 104.031 328.514 98.936 333.789 97.896 Z"/>
<path fill="#000000" fill-rule="evenodd" stroke="none" d="M 357.775 64.362 C 363.049 63.322 368.144 66.737 369.184 72.012 C 370.225 77.286 366.810 82.381 361.535 83.422 C 356.260 84.462 351.166 81.046 350.125 75.772 C 349.085 70.497 352.500 65.403 357.775 64.362 Z"/>
<path fill="#000000" fill-rule="evenodd" stroke="none" d="M 383.836 32.219 C 389.110 31.179 394.205 34.594 395.245 39.869 C 396.286 45.144 392.870 50.238 387.596 51.279 C 382.321 52.319 377.227 48.904 376.186 43.629 C 375.145 38.355 378.561 33.260 383.836 32.219 Z"/>
</g>
<g id="specs_2">
<path fill="#ff00ff" fill-rule="evenodd" stroke="none" d="M 309.693 563.101 C 309.703 563.101 410.297 563.101 410.307 563.101 C 410.307 563.091 410.307 462.498 410.307 462.488 C 410.297 462.488 309.703 462.488 309.693 462.488 C 309.693 462.498 309.693 563.091 309.693 563.101 Z"/>
<path fill="#ff0000" fill-rule="evenodd" stroke="none" d="M 369.819 43.937 C 369.821 43.934 382.021 9.774 382.022 9.770 C 382.021 9.771 369.821 21.123 369.819 21.124 C 369.818 21.123 357.618 9.771 357.617 9.770 C 357.618 9.774 369.818 43.934 369.819 43.937 Z"/>
<path fill="#0000ff" fill-rule="evenodd" stroke="none" d="M 448.272 22.438 C 448.272 22.440 455.359 42.283 455.360 42.285 C 455.359 42.284 448.272 35.691 448.272 35.690 C 448.271 35.691 441.184 42.284 441.184 42.285 C 441.184 42.283 448.271 22.440 448.272 22.438 Z"/>
<path fill="#00ff00" fill-rule="evenodd" stroke="none" d="M 199.816 521.803 C 199.820 521.802 235.229 508.953 235.233 508.952 C 235.232 508.953 223.508 521.682 223.507 521.684 C 223.508 521.685 235.359 534.294 235.360 534.295 C 235.357 534.294 199.820 521.805 199.816 521.803 Z"/>
<path fill="#ffff00" fill-rule="evenodd" stroke="none" d="M 270.897 679.651 C 270.898 679.649 282.433 654.533 282.434 654.530 C 282.435 654.531 283.042 667.214 283.042 667.215 C 283.043 667.216 295.736 667.523 295.737 667.523 C 295.735 667.524 270.899 679.650 270.897 679.651 Z"/>
<path fill="#ffff00" fill-rule="evenodd" stroke="none" d="M 498.765 679.344 C 498.764 679.341 486.727 654.461 486.726 654.459 C 486.726 654.460 486.373 667.153 486.373 667.154 C 486.372 667.154 473.687 667.716 473.686 667.716 C 473.688 667.718 498.762 679.342 498.765 679.344 Z"/>
<path fill="#00ff00" fill-rule="evenodd" stroke="none" d="M 559.023 521.803 C 559.020 521.802 523.610 508.953 523.607 508.952 C 523.608 508.953 535.331 521.682 535.332 521.684 C 535.331 521.685 523.480 534.294 523.479 534.295 C 523.482 534.294 559.020 521.805 559.023 521.803 Z"/>
<path fill="#00ffff" fill-rule="evenodd" stroke="none" d="M 490.848 376.692 C 490.848 376.694 481.456 403.211 481.455 403.213 C 481.455 403.212 479.677 390.412 479.677 390.410 C 479.676 390.411 466.781 391.262 466.779 391.262 C 466.782 391.261 490.846 376.693 490.848 376.692 Z"/>
<path fill="#00ffff" fill-rule="evenodd" stroke="none" d="M 255.633 377.570 C 255.634 377.573 266.772 403.404 266.773 403.407 C 266.773 403.406 267.694 390.515 267.695 390.514 C 267.696 390.514 280.618 390.504 280.620 390.504 C 280.617 390.503 255.635 377.572 255.633 377.570 Z"/>
<path fill="#be0027" fill-rule="evenodd" stroke="none" d="M 360.000 702.364 C 360.001 702.361 372.201 668.201 372.202 668.197 C 372.201 668.198 360.001 679.550 360.000 679.551 C 359.999 679.550 347.799 668.198 347.798 668.197 C 347.799 668.201 359.999 702.361 360.000 702.364 Z"/>
</g>
</g>
</svg>
