<?xml version="1.0" encoding="utf-8"?>
<!-- Generator: Moho 12.5 build 22414 -->
<!DOCTYPE svg PUBLIC "-//W3C//DTD SVG 1.1//EN" "http://www.w3.org/Graphics/SVG/1.1/DTD/svg11.dtd">
<svg version="1.1" id="Frame_0" xmlns="http://www.w3.org/2000/svg" xmlns:xlink="http://www.w3.org/1999/xlink" width="720px" height="720px">
<g id="lute">
<g id="lute">
<path fill="#000000" fill-rule="evenodd" stroke="#ffffff" stroke-width="4" stroke-linejoin="round" d="M 524.022 583.983 C 523.567 694.273 411.765 693.251 360.000 687.093 C 404.143 687.093 487.489 677.377 487.604 583.983 C 487.810 417.809 401.543 357.141 360.000 357.141 C 404.393 352.075 524.759 405.258 524.022 583.983 Z"/>
<path fill="#000000" fill-rule="evenodd" stroke="none" d="M 403.950 83.044 C 403.959 83.044 493.931 83.044 493.940 83.044 C 493.930 83.054 386.990 178.466 386.980 178.476 C 386.981 178.497 396.545 393.666 396.546 393.687 C 396.539 393.687 323.461 393.687 323.454 393.687 C 323.455 393.666 333.019 178.497 333.020 178.476 C 333.027 178.466 403.943 83.054 403.950 83.044 Z"/>
<path fill="none" stroke="#ffffff" stroke-width="1" stroke-linecap="butt" stroke-linejoin="round" d="M 360.000 357.141 C 401.543 357.141 487.810 417.809 487.604 583.983 "/>
<path fill="none" stroke="#ffffff" stroke-width="1" stroke-linecap="butt" stroke-linejoin="round" d="M 487.604 583.983 C 487.489 677.377 404.143 687.093 360.000 687.093 "/>
<path fill="#ffffff" fill-rule="evenodd" stroke="#000000" stroke-width="4" stroke-linejoin="round" d="M 360.000 357.141 C 401.543 357.141 487.810 417.809 487.604 583.983 C 487.489 677.377 404.143 687.093 360.000 687.093 C 315.857 687.093 232.511 677.377 232.395 583.983 C 232.190 417.809 318.457 357.141 360.000 357.141 Z"/>
<path fill="#000000" fill-rule="evenodd" stroke="none" d="M 360.000 471.480 C 391.585 471.480 417.065 496.959 417.065 528.544 C 417.065 560.129 391.585 585.609 360.000 585.609 C 328.415 585.609 302.935 560.129 302.935 528.544 C 302.935 496.959 328.415 471.480 360.000 471.480 Z"/>
<path fill="none" stroke="#ffffff" stroke-width="4" stroke-linejoin="round" d="M 414.846 107.173 C 395.734 130.933 357.516 178.446 357.510 178.454 C 357.510 178.501 357.510 492.492 357.510 649.511 M 408.821 95.532 C 388.001 123.173 346.367 178.445 346.361 178.454 C 346.360 178.501 340.710 492.492 337.885 649.511 M 421.089 119.236 C 403.715 138.975 368.973 178.448 368.968 178.454 C 368.968 178.501 374.413 492.492 377.136 649.511 M 426.409 129.535 C 410.530 145.929 378.777 178.711 378.772 178.716 C 378.773 178.763 394.055 649.469 394.057 649.511 C 394.049 649.511 320.972 649.511 320.964 649.511 C 320.966 649.469 336.760 178.767 336.762 178.720 C 336.768 178.710 381.346 116.597 403.638 85.535 "/>
<path fill="#000000" fill-rule="evenodd" stroke="none" d="M 427.966 149.591 C 432.965 149.591 436.997 153.624 436.997 158.622 C 436.997 163.621 432.965 167.653 427.966 167.653 C 422.967 167.653 418.935 163.621 418.935 158.622 C 418.935 153.624 422.967 149.591 427.966 149.591 Z"/>
<path fill="#000000" fill-rule="evenodd" stroke="none" d="M 459.985 120.035 C 464.984 120.035 469.016 124.067 469.016 129.066 C 469.016 134.064 464.984 138.097 459.985 138.097 C 454.987 138.097 450.954 134.064 450.954 129.066 C 450.954 124.067 454.987 120.035 459.985 120.035 Z"/>
<path fill="#000000" fill-rule="evenodd" stroke="none" d="M 492.826 91.300 C 497.824 91.300 501.857 95.332 501.857 100.331 C 501.857 105.329 497.824 109.362 492.826 109.362 C 487.827 109.362 483.794 105.329 483.794 100.331 C 483.794 95.332 487.827 91.300 492.826 91.300 Z"/>
<path fill="#000000" fill-rule="evenodd" stroke="none" d="M 335.630 143.348 C 340.534 142.381 345.271 145.556 346.238 150.460 C 347.206 155.365 344.030 160.101 339.126 161.069 C 334.222 162.036 329.485 158.861 328.517 153.956 C 327.550 149.052 330.726 144.316 335.630 143.348 Z"/>
<path fill="#000000" fill-rule="evenodd" stroke="none" d="M 357.931 112.170 C 362.835 111.202 367.572 114.378 368.539 119.282 C 369.507 124.186 366.331 128.923 361.427 129.891 C 356.523 130.858 351.786 127.682 350.819 122.778 C 349.852 117.874 353.027 113.138 357.931 112.170 Z"/>
<path fill="#000000" fill-rule="evenodd" stroke="none" d="M 382.161 82.285 C 387.066 81.317 391.802 84.493 392.770 89.397 C 393.737 94.301 390.561 99.038 385.657 100.005 C 380.753 100.973 376.017 97.797 375.049 92.893 C 374.082 87.989 377.257 83.252 382.161 82.285 Z"/>
<path fill="none" stroke="#000000" stroke-width="4" stroke-linejoin="round" d="M 417.899 113.072 C 399.429 134.866 362.495 178.447 362.490 178.454 C 362.490 178.501 362.490 492.492 362.490 649.511 M 411.801 101.290 C 391.613 127.011 351.244 178.446 351.238 178.454 C 351.237 178.501 345.655 492.492 342.864 649.511 M 423.996 124.854 C 407.245 142.721 373.747 178.448 373.741 178.454 C 373.742 178.501 379.324 492.492 382.115 649.511 M 429.098 134.731 C 413.812 149.393 383.243 178.712 383.238 178.716 C 383.240 178.763 399.034 649.464 399.036 649.511 C 399.028 649.511 325.951 649.511 325.943 649.511 C 325.945 649.469 341.739 178.767 341.741 178.720 C 341.747 178.711 385.041 120.529 406.691 91.434 "/>
<path fill="#ffffff" fill-rule="evenodd" stroke="#000000" stroke-width="4" stroke-linejoin="round" d="M 375.055 92.903 C 374.087 87.999 377.263 83.262 382.167 82.295 C 387.071 81.327 391.807 84.503 392.775 89.407 C 393.742 94.311 390.567 99.048 385.663 100.015 C 380.759 100.983 376.022 97.807 375.055 92.903 M 350.824 122.788 C 349.857 117.884 353.032 113.147 357.936 112.180 C 362.840 111.212 367.577 114.388 368.545 119.292 C 369.512 124.196 366.337 128.933 361.432 129.901 C 356.528 130.868 351.792 127.692 350.824 122.788 M 328.523 153.966 C 327.555 149.062 330.731 144.326 335.635 143.358 C 340.539 142.391 345.276 145.566 346.243 150.470 C 347.211 155.374 344.035 160.111 339.131 161.078 C 334.227 162.046 329.490 158.870 328.523 153.966 M 483.800 100.341 C 483.800 95.342 487.832 91.309 492.831 91.309 C 497.829 91.309 501.862 95.342 501.862 100.341 C 501.862 105.339 497.829 109.372 492.831 109.372 C 487.832 109.372 483.800 105.339 483.800 100.341 M 450.959 129.076 C 450.959 124.077 454.992 120.045 459.991 120.045 C 464.989 120.045 469.022 124.077 469.022 129.076 C 469.022 134.074 464.989 138.107 459.991 138.107 C 454.992 138.107 450.959 134.074 450.959 129.076 M 418.940 158.632 C 418.940 153.633 422.973 149.601 427.971 149.601 C 432.970 149.601 437.002 153.633 437.002 158.632 C 437.002 163.630 432.970 167.663 427.971 167.663 C 422.973 167.663 418.940 163.630 418.940 158.632 M 333.026 178.486 C 333.026 178.486 384.249 178.566 386.985 178.486 C 386.996 178.476 493.935 83.064 493.945 83.054 C 493.937 83.054 403.964 83.054 403.955 83.054 C 403.948 83.064 333.033 178.476 333.026 178.486 Z"/>
</g>
<g id="specs_2">
<path fill="#ff00ff" fill-rule="evenodd" stroke="none" d="M 313.227 575.879 C 313.236 575.879 406.764 575.879 406.773 575.879 C 406.773 575.869 406.773 482.341 406.773 482.332 C 406.764 482.332 313.236 482.332 313.227 482.332 C 313.227 482.341 313.227 575.869 313.227 575.879 Z"/>
<path fill="#ff0000" fill-rule="evenodd" stroke="none" d="M 369.130 53.295 C 369.131 53.292 380.474 21.531 380.475 21.528 C 380.474 21.529 369.131 32.083 369.130 32.084 C 369.129 32.083 357.786 21.529 357.784 21.528 C 357.786 21.531 369.129 53.292 369.130 53.295 Z"/>
<path fill="#0000ff" fill-rule="evenodd" stroke="none" d="M 442.072 73.190 C 442.072 73.192 448.661 91.642 448.662 91.643 C 448.661 91.643 442.072 85.512 442.072 85.512 C 442.071 85.512 435.482 91.643 435.481 91.643 C 435.482 91.642 442.071 73.192 442.072 73.190 Z"/>
<path fill="#00ff00" fill-rule="evenodd" stroke="none" d="M 211.067 537.481 C 211.071 537.480 243.993 525.534 243.996 525.532 C 243.995 525.534 233.095 537.369 233.094 537.370 C 233.095 537.371 244.114 549.094 244.115 549.096 C 244.112 549.094 211.071 537.482 211.067 537.481 Z"/>
<path fill="#ffff00" fill-rule="evenodd" stroke="none" d="M 277.155 684.242 C 277.156 684.240 287.881 660.888 287.883 660.886 C 287.883 660.887 288.447 672.679 288.447 672.680 C 288.448 672.680 300.250 672.966 300.251 672.966 C 300.248 672.967 277.158 684.241 277.155 684.242 Z"/>
<path fill="#ffff00" fill-rule="evenodd" stroke="none" d="M 489.018 683.956 C 489.017 683.954 477.826 660.821 477.825 660.819 C 477.825 660.820 477.497 672.622 477.497 672.623 C 477.496 672.623 465.702 673.146 465.700 673.146 C 465.703 673.147 489.016 683.955 489.018 683.956 Z"/>
<path fill="#00ff00" fill-rule="evenodd" stroke="none" d="M 545.044 537.481 C 545.041 537.480 512.118 525.534 512.115 525.532 C 512.116 525.534 523.016 537.369 523.017 537.370 C 523.016 537.371 511.998 549.094 511.996 549.096 C 512.000 549.094 545.041 537.482 545.044 537.481 Z"/>
<path fill="#00ffff" fill-rule="evenodd" stroke="none" d="M 481.658 402.562 C 481.657 402.564 472.925 427.218 472.924 427.221 C 472.924 427.219 471.271 415.318 471.271 415.317 C 471.270 415.317 459.281 416.109 459.279 416.109 C 459.282 416.108 481.656 402.563 481.658 402.562 Z"/>
<path fill="#00ffff" fill-rule="evenodd" stroke="none" d="M 262.964 403.379 C 262.965 403.381 273.320 427.398 273.321 427.401 C 273.322 427.400 274.178 415.414 274.178 415.413 C 274.179 415.413 286.194 415.404 286.195 415.404 C 286.193 415.403 262.966 403.380 262.964 403.379 Z"/>
<path fill="#be0027" fill-rule="evenodd" stroke="none" d="M 360.000 705.360 C 360.001 705.357 371.344 673.596 371.345 673.593 C 371.344 673.594 360.001 684.148 360.000 684.149 C 359.999 684.148 348.656 673.594 348.655 673.593 C 348.656 673.596 359.999 705.357 360.000 705.360 Z"/>
</g>
</g>
</svg>
