<?xml version="1.0" encoding="utf-8"?>
<!-- Generator: Moho 12.5 build 22414 -->
<!DOCTYPE svg PUBLIC "-//W3C//DTD SVG 1.1//EN" "http://www.w3.org/Graphics/SVG/1.1/DTD/svg11.dtd">
<svg version="1.1" id="Frame_0" xmlns="http://www.w3.org/2000/svg" xmlns:xlink="http://www.w3.org/1999/xlink" width="720px" height="720px">
<g id="man">
<g id="man">
<path fill="#000000" fill-rule="evenodd" stroke="none" d="M 359.657 11.066 C 366.531 10.952 373.652 8.029 379.864 10.731 C 384.818 12.886 387.001 18.789 391.139 22.549 C 396.061 27.022 404.507 28.547 407.309 35.099 C 410.200 41.856 404.626 49.823 404.626 58.071 C 404.626 66.318 410.200 74.285 407.309 81.043 C 404.507 87.594 395.672 88.725 391.139 93.593 C 386.276 98.816 385.859 108.188 379.520 110.902 C 373.414 113.517 366.743 107.479 360.000 107.479 C 353.257 107.479 346.586 113.517 340.480 110.902 C 334.141 108.188 333.724 98.816 328.861 93.593 C 324.328 88.725 315.493 87.595 312.691 81.043 C 309.800 74.285 315.374 66.318 315.374 58.071 C 315.374 49.823 309.800 41.856 312.691 35.099 C 315.493 28.547 324.065 27.157 328.861 22.549 C 332.482 19.069 334.072 13.573 338.421 11.417 C 344.799 8.255 352.432 11.185 359.657 11.066 Z"/>
<path fill="#ffffff" fill-rule="evenodd" stroke="none" d="M 342.638 388.085 C 348.546 407.309 357.599 406.977 357.592 410.221 C 357.422 494.992 344.743 498.765 345.338 511.089 C 345.601 516.533 353.404 543.771 353.947 555.143 C 357.454 628.607 334.610 633.330 342.228 653.035 C 350.681 674.900 340.363 676.613 343.582 683.327 C 346.817 690.076 353.615 702.228 340.021 702.791 C 315.414 703.812 333.357 688.132 330.216 687.980 C 326.924 687.821 329.996 701.255 324.644 701.973 C 312.817 703.559 323.676 688.827 322.515 688.944 C 320.865 689.110 322.626 702.352 318.062 702.442 C 307.452 702.650 317.635 689.654 316.246 690.187 C 314.179 690.982 315.652 701.068 311.459 701.578 C 299.937 702.978 311.546 689.893 310.000 690.330 C 306.475 691.326 310.223 701.228 302.802 701.756 C 294.553 702.344 300.711 692.752 307.240 686.788 C 308.888 685.284 309.062 682.607 311.936 677.095 C 315.720 669.839 317.211 658.450 317.419 655.786 C 318.287 644.682 308.837 617.573 304.157 565.029 C 302.179 542.813 310.368 533.606 307.093 510.637 C 301.056 468.290 285.093 451.753 288.255 372.570 C 289.823 333.307 307.818 305.344 308.504 295.717 C 309.056 287.968 302.624 241.209 301.648 232.103 C 300.622 222.528 302.137 197.386 301.936 200.099 C 297.177 264.367 289.350 268.951 289.589 279.419 C 289.744 286.228 280.099 310.236 272.119 325.195 C 264.662 339.172 246.142 356.460 245.747 362.619 C 245.534 365.927 241.488 387.117 240.396 389.886 C 239.267 392.749 228.171 415.838 225.172 414.243 C 222.711 412.933 230.801 391.674 229.896 391.146 C 228.718 390.458 219.409 419.969 216.067 418.551 C 212.846 417.184 224.514 390.327 223.768 389.985 C 222.986 389.626 211.412 418.369 208.143 416.720 C 204.950 415.109 219.400 388.723 218.575 388.334 C 217.781 387.959 203.334 415.790 202.325 412.498 C 199.897 404.577 218.781 377.895 215.737 377.578 C 211.155 377.102 207.158 389.452 203.504 391.893 C 201.169 393.453 198.641 392.237 199.263 390.947 C 213.846 360.736 220.004 366.181 224.980 356.773 C 231.368 344.697 232.491 310.844 257.456 270.229 C 262.318 262.319 252.287 242.744 261.828 190.930 C 265.148 172.899 256.781 165.413 269.740 146.302 C 283.704 125.710 299.033 129.954 338.828 116.142 C 344.988 114.004 343.287 95.834 342.898 90.763 C 342.730 88.565 333.007 78.199 332.271 76.130 C 330.943 72.399 329.852 47.057 331.641 43.524 C 333.525 39.802 342.334 24.485 359.824 23.878 C 377.394 24.988 385.676 39.821 387.480 43.524 C 389.283 47.225 387.430 73.565 385.905 77.389 C 385.200 79.158 376.884 87.809 376.222 89.728 C 374.565 94.529 373.891 113.908 380.292 116.142 C 420.062 130.027 435.416 125.710 449.380 146.302 C 462.339 165.413 453.994 172.895 457.292 190.930 C 467.522 246.881 455.888 262.961 461.664 270.229 C 487.239 302.407 488.520 345.366 494.830 356.084 C 500.248 365.287 511.831 364.187 519.857 390.947 C 520.915 394.476 516.684 392.692 516.302 392.649 C 514.278 392.423 509.905 377.897 503.040 376.548 C 500.561 376.061 519.480 404.407 516.796 412.498 C 515.711 415.766 501.340 387.959 500.545 388.334 C 499.720 388.723 514.171 415.109 510.978 416.720 C 507.708 418.369 496.134 389.626 495.353 389.985 C 494.606 390.327 506.274 417.184 503.053 418.551 C 499.711 419.969 490.402 390.458 489.224 391.146 C 488.319 391.674 496.409 412.933 493.948 414.243 C 490.949 415.838 479.853 392.749 478.724 389.886 C 477.632 387.117 473.586 365.927 473.374 362.619 C 472.978 356.460 454.458 339.172 447.002 325.195 C 439.021 310.236 429.724 286.227 429.532 279.419 C 429.080 263.434 422.633 260.230 417.184 200.099 C 416.939 197.390 418.498 222.528 417.472 232.103 C 416.497 241.209 410.064 287.968 410.616 295.717 C 411.302 305.344 429.298 333.307 430.865 372.570 C 434.027 451.753 418.064 468.290 412.027 510.637 C 408.752 533.606 416.994 542.818 414.963 565.029 C 410.283 616.194 400.813 644.684 401.701 655.786 C 401.851 657.657 402.641 669.518 405.498 670.770 C 427.781 680.535 429.775 689.550 441.090 690.783 C 446.721 691.396 456.273 700.843 447.239 699.620 C 445.835 699.430 441.892 693.092 439.385 693.904 C 438.260 694.268 451.051 701.435 444.052 700.823 C 439.286 700.407 434.223 692.688 431.964 693.778 C 431.036 694.225 444.036 701.450 436.066 701.313 C 431.460 701.233 425.535 692.458 424.127 693.362 C 423.402 693.829 437.008 704.227 427.432 702.532 C 425.574 702.203 423.110 697.251 423.110 697.250 C 423.109 697.250 416.426 693.206 414.101 692.913 C 412.701 692.737 420.940 697.015 420.941 697.015 C 420.941 697.016 428.748 703.873 420.126 703.616 C 413.606 703.422 412.443 703.880 408.140 701.963 C 404.766 700.460 399.384 701.688 398.037 701.639 C 395.040 701.531 382.881 702.647 375.562 700.710 C 366.101 698.206 371.804 686.865 375.810 680.878 C 379.440 675.456 369.180 673.149 376.892 653.035 C 384.456 633.309 360.977 622.400 365.173 555.143 C 365.883 543.780 373.519 516.533 373.782 511.089 C 374.378 498.765 361.712 496.158 361.528 410.221 C 361.521 406.977 370.950 407.420 376.482 388.085 C 377.511 384.489 371.128 408.743 359.835 408.665 C 348.637 408.588 341.533 384.489 342.638 388.085 Z"/>
<path fill="none" stroke="#000000" stroke-width="2" stroke-linecap="round" stroke-linejoin="round" d="M 298.051 198.750 C 299.704 198.750 303.010 198.750 303.011 198.750 C 303.011 198.751 306.092 207.169 309.298 209.623 C 317.977 216.265 342.780 215.515 342.783 215.515 M 410.785 209.623 C 402.107 216.265 377.304 215.515 377.300 215.515 M 417.073 198.750 C 417.072 198.751 413.991 207.169 410.785 209.623 M 422.032 198.750 C 420.379 198.750 417.074 198.750 417.073 198.750 M 359.835 408.665 C 348.637 408.588 341.533 384.489 342.638 388.085 C 348.546 407.309 357.599 406.977 357.592 410.221 C 357.422 494.992 344.743 498.765 345.338 511.089 C 345.601 516.533 353.404 543.771 353.947 555.143 C 357.454 628.607 334.610 633.330 342.228 653.035 C 350.681 674.900 340.363 676.613 343.582 683.327 C 346.817 690.076 353.615 702.228 340.021 702.791 C 315.414 703.812 333.357 688.132 330.216 687.980 C 326.924 687.821 329.996 701.255 324.644 701.973 C 312.817 703.559 323.676 688.827 322.515 688.944 C 320.865 689.110 322.626 702.352 318.062 702.442 C 307.452 702.650 317.635 689.654 316.246 690.187 C 314.179 690.982 315.652 701.068 311.459 701.578 C 299.937 702.978 311.546 689.893 310.000 690.330 C 306.475 691.326 310.223 701.228 302.802 701.756 C 294.553 702.344 300.711 692.752 307.240 686.788 C 308.888 685.284 309.062 682.607 311.936 677.095 C 315.720 669.839 317.211 658.450 317.419 655.786 C 318.287 644.682 308.837 617.573 304.157 565.029 C 302.179 542.813 310.368 533.606 307.093 510.637 C 301.056 468.290 285.093 451.753 288.255 372.570 C 289.823 333.307 307.818 305.344 308.504 295.717 C 309.056 287.968 302.624 241.209 301.648 232.103 C 300.622 222.528 302.137 197.386 301.936 200.099 C 297.177 264.367 289.350 268.951 289.589 279.419 C 289.744 286.228 280.099 310.236 272.119 325.195 C 264.662 339.172 246.142 356.460 245.747 362.619 C 245.534 365.927 241.488 387.117 240.396 389.886 C 239.267 392.749 228.171 415.838 225.172 414.243 C 222.711 412.933 230.801 391.674 229.896 391.146 C 228.718 390.458 219.409 419.969 216.067 418.551 C 212.846 417.184 224.514 390.327 223.768 389.985 C 222.986 389.626 211.412 418.369 208.143 416.720 C 204.950 415.109 219.400 388.723 218.575 388.334 C 217.781 387.959 203.334 415.790 202.325 412.498 C 199.897 404.577 218.781 377.895 215.737 377.578 C 211.155 377.102 207.158 389.452 203.504 391.893 C 201.169 393.453 198.641 392.237 199.263 390.947 C 213.846 360.736 220.004 366.181 224.980 356.773 C 231.368 344.697 232.491 310.844 257.456 270.229 C 262.318 262.319 252.287 242.744 261.828 190.930 C 265.148 172.899 256.781 165.413 269.740 146.302 C 283.704 125.710 299.033 129.954 338.828 116.142 C 344.988 114.004 343.287 95.834 342.898 90.763 C 342.730 88.565 333.007 78.199 332.271 76.130 C 330.943 72.399 329.852 47.057 331.641 43.524 C 333.525 39.802 342.334 24.485 359.824 23.878 C 377.394 24.988 385.676 39.821 387.480 43.524 C 389.283 47.225 387.430 73.565 385.905 77.389 C 385.200 79.158 376.884 87.809 376.222 89.728 C 374.565 94.529 373.891 113.908 380.292 116.142 C 420.062 130.027 435.416 125.710 449.380 146.302 C 462.339 165.413 453.994 172.895 457.292 190.930 C 467.522 246.881 455.888 262.961 461.664 270.229 C 487.239 302.407 488.520 345.366 494.830 356.084 C 500.248 365.287 511.831 364.187 519.857 390.947 C 520.915 394.476 516.684 392.692 516.302 392.649 C 514.278 392.423 509.905 377.897 503.040 376.548 C 500.561 376.061 519.480 404.407 516.796 412.498 C 515.711 415.766 501.340 387.959 500.545 388.334 C 499.720 388.723 514.171 415.109 510.978 416.720 C 507.708 418.369 496.134 389.626 495.353 389.985 C 494.606 390.327 506.274 417.184 503.053 418.551 C 499.711 419.969 490.402 390.458 489.224 391.146 C 488.319 391.674 496.409 412.933 493.948 414.243 C 490.949 415.838 479.853 392.749 478.724 389.886 C 477.632 387.117 473.586 365.927 473.374 362.619 C 472.978 356.460 454.458 339.172 447.002 325.195 C 439.021 310.236 429.724 286.227 429.532 279.419 C 429.080 263.434 422.633 260.230 417.184 200.099 C 416.939 197.390 418.498 222.528 417.472 232.103 C 416.497 241.209 410.064 287.968 410.616 295.717 C 411.302 305.344 429.298 333.307 430.865 372.570 C 434.027 451.753 418.064 468.290 412.027 510.637 C 408.752 533.606 416.994 542.818 414.963 565.029 C 410.283 616.194 400.813 644.684 401.701 655.786 C 401.851 657.657 402.641 669.518 405.498 670.770 C 427.781 680.535 429.775 689.550 441.090 690.783 C 446.721 691.396 456.273 700.843 447.239 699.620 C 445.835 699.430 441.892 693.092 439.385 693.904 C 438.260 694.268 451.051 701.435 444.052 700.823 C 439.286 700.407 434.223 692.688 431.964 693.778 C 431.036 694.225 444.036 701.450 436.066 701.313 C 431.460 701.233 425.535 692.458 424.127 693.362 C 423.402 693.829 437.008 704.227 427.432 702.532 C 425.574 702.203 423.110 697.251 423.110 697.250 C 423.109 697.250 416.426 693.206 414.101 692.913 C 412.701 692.737 420.940 697.015 420.941 697.015 C 420.941 697.016 428.748 703.873 420.126 703.616 C 413.606 703.422 412.443 703.880 408.140 701.963 C 404.766 700.460 399.384 701.688 398.037 701.639 C 395.040 701.531 382.881 702.647 375.562 700.710 C 366.101 698.206 371.804 686.865 375.810 680.878 C 379.440 675.456 369.180 673.149 376.892 653.035 C 384.456 633.309 360.977 622.400 365.173 555.143 C 365.883 543.780 373.519 516.533 373.782 511.089 C 374.378 498.765 361.712 496.158 361.528 410.221 C 361.521 406.977 370.950 407.420 376.482 388.085 C 377.511 384.489 371.128 408.743 359.835 408.665 "/>
</g>
<g id="specs_2">
<path fill="#ff00ff" fill-rule="evenodd" stroke="none" d="M 328.224 88.632 C 328.230 88.632 391.770 88.632 391.776 88.632 C 391.776 88.626 391.776 25.087 391.776 25.081 C 391.770 25.081 328.230 25.081 328.224 25.081 C 328.224 25.087 328.224 88.626 328.224 88.632 Z"/>
<path fill="#ff0000" fill-rule="evenodd" stroke="none" d="M 360.000 682.102 C 360.001 682.105 372.221 716.322 372.223 716.326 C 372.221 716.324 360.001 704.954 360.000 704.953 C 359.999 704.954 347.779 716.324 347.778 716.326 C 347.779 716.322 359.999 682.105 360.000 682.102 Z"/>
<path fill="#0000ff" fill-rule="evenodd" stroke="none" d="M 360.000 1.189 C 360.001 1.191 367.099 21.067 367.100 21.069 C 367.099 21.068 360.001 14.464 360.000 14.463 C 359.999 14.464 352.901 21.068 352.900 21.069 C 352.901 21.067 359.999 1.191 360.000 1.189 Z"/>
<path fill="#00ff00" fill-rule="evenodd" stroke="none" d="M 257.428 149.580 C 257.430 149.580 277.270 142.381 277.272 142.380 C 277.271 142.381 270.702 149.513 270.702 149.513 C 270.702 149.514 277.343 156.579 277.343 156.580 C 277.341 156.579 257.430 149.581 257.428 149.580 Z"/>
<path fill="#ffff00" fill-rule="evenodd" stroke="none" d="M 207.039 411.406 C 207.040 411.404 215.849 392.224 215.850 392.223 C 215.850 392.224 216.313 401.908 216.313 401.909 C 216.314 401.909 226.007 402.144 226.008 402.144 C 226.006 402.145 207.041 411.405 207.039 411.406 Z"/>
<path fill="#ffff00" fill-rule="evenodd" stroke="none" d="M 515.640 411.171 C 515.639 411.169 506.447 392.170 506.446 392.168 C 506.446 392.169 506.176 401.861 506.176 401.862 C 506.175 401.862 496.489 402.292 496.488 402.292 C 496.490 402.293 515.638 411.170 515.640 411.171 Z"/>
<path fill="#00ff00" fill-rule="evenodd" stroke="none" d="M 462.825 149.580 C 462.823 149.580 442.983 142.381 442.981 142.380 C 442.982 142.381 449.550 149.513 449.551 149.513 C 449.550 149.514 442.910 156.579 442.910 156.580 C 442.911 156.579 462.823 149.581 462.825 149.580 Z"/>
<path fill="#00ffff" fill-rule="evenodd" stroke="none" d="M 411.580 24.384 C 411.579 24.386 404.533 44.281 404.533 44.283 C 404.533 44.282 403.198 34.678 403.198 34.677 C 403.197 34.677 393.523 35.316 393.522 35.316 C 393.523 35.315 411.578 24.385 411.580 24.384 Z"/>
<path fill="#00ffff" fill-rule="evenodd" stroke="none" d="M 308.530 25.044 C 308.531 25.046 316.887 44.426 316.888 44.428 C 316.888 44.427 317.579 34.756 317.579 34.755 C 317.580 34.755 327.276 34.748 327.277 34.748 C 327.275 34.747 308.532 25.045 308.530 25.044 Z"/>
<path fill="#be0027" fill-rule="evenodd" stroke="none" d="M 360.000 617.627 C 360.001 617.624 372.221 583.407 372.223 583.403 C 372.221 583.405 360.001 594.775 360.000 594.776 C 359.999 594.775 347.779 583.405 347.778 583.403 C 347.779 583.407 359.999 617.624 360.000 617.627 Z"/>
</g>
</g>
</svg>
