<?xml version="1.0" encoding="utf-8"?>
<!-- Generator: Moho 12.5 build 22414 -->
<!DOCTYPE svg PUBLIC "-//W3C//DTD SVG 1.1//EN" "http://www.w3.org/Graphics/SVG/1.1/DTD/svg11.dtd">
<svg version="1.1" id="Frame_0" xmlns="http://www.w3.org/2000/svg" xmlns:xlink="http://www.w3.org/1999/xlink" width="720px" height="720px">
<g id="man">
<g id="man">
<path fill="#000000" fill-rule="evenodd" stroke="none" d="M 359.703 94.150 C 365.656 94.051 371.821 91.520 377.201 93.860 C 381.490 95.726 383.381 100.837 386.964 104.093 C 391.227 107.967 398.540 109.288 400.967 114.961 C 403.470 120.812 398.643 127.711 398.643 134.853 C 398.643 141.995 403.470 148.894 400.967 154.745 C 398.540 160.419 390.889 161.398 386.964 165.613 C 382.754 170.135 382.392 178.251 376.903 180.601 C 371.615 182.866 365.839 177.637 360.000 177.637 C 354.161 177.637 348.385 182.866 343.097 180.601 C 337.608 178.251 337.247 170.135 333.036 165.613 C 329.111 161.398 321.460 160.419 319.033 154.745 C 316.530 148.894 321.357 141.995 321.357 134.853 C 321.357 127.711 316.530 120.812 319.033 114.961 C 321.460 109.288 328.883 108.084 333.036 104.093 C 336.172 101.080 337.548 96.321 341.314 94.454 C 346.837 91.716 353.446 94.253 359.703 94.150 Z"/>
<path fill="#ffffff" fill-rule="evenodd" stroke="none" d="M 344.965 417.548 C 342.615 437.117 357.913 433.908 357.915 436.717 C 357.959 512.670 346.744 516.096 347.304 527.137 C 347.543 531.851 354.288 555.437 354.758 565.284 C 357.795 628.899 338.014 632.989 344.611 650.052 C 351.931 668.986 342.996 670.470 345.783 676.284 C 348.584 682.128 354.471 692.650 342.700 693.138 C 321.392 694.022 336.929 680.444 334.209 680.313 C 331.359 680.175 334.019 691.808 329.384 692.429 C 319.143 693.803 328.546 681.046 327.540 681.147 C 326.112 681.291 327.637 692.758 323.685 692.835 C 314.497 693.016 323.314 681.762 322.112 682.224 C 320.322 682.912 321.598 691.646 317.966 692.087 C 307.990 693.300 318.042 681.969 316.704 682.348 C 313.651 683.210 316.896 691.784 310.470 692.242 C 303.327 692.751 308.660 684.444 314.313 679.281 C 315.740 677.978 315.891 675.660 318.380 670.887 C 321.656 664.604 322.947 654.741 323.127 652.435 C 323.879 642.820 315.696 619.345 311.644 573.845 C 309.931 554.608 317.022 546.635 314.186 526.745 C 308.958 490.076 295.136 475.755 297.873 407.189 C 299.231 373.189 314.814 348.975 315.408 340.639 C 315.886 333.928 310.316 293.438 309.471 285.553 C 308.583 277.262 309.894 255.491 309.720 257.840 C 305.599 313.492 298.822 317.461 299.028 326.526 C 299.163 332.422 290.811 353.211 283.901 366.165 C 277.444 378.268 261.407 393.239 261.064 398.572 C 260.880 401.436 257.377 419.785 256.431 422.183 C 255.453 424.662 245.845 444.656 243.248 443.274 C 241.117 442.141 248.122 423.731 247.339 423.274 C 246.319 422.678 238.257 448.232 235.364 447.005 C 232.575 445.821 242.678 422.565 242.032 422.268 C 241.355 421.958 231.333 446.848 228.502 445.419 C 225.737 444.025 238.250 421.176 237.535 420.839 C 236.847 420.514 224.337 444.614 223.464 441.763 C 221.361 434.905 237.714 411.799 235.078 411.525 C 231.110 411.112 227.649 421.807 224.485 423.921 C 222.463 425.271 220.273 424.219 220.813 423.101 C 233.440 396.941 238.773 401.656 243.082 393.510 C 248.613 383.053 249.586 353.738 271.203 318.568 C 275.413 311.719 266.728 294.768 274.990 249.900 C 277.865 234.287 270.620 227.804 281.841 211.256 C 293.933 193.424 307.207 197.099 341.667 185.139 C 347.001 183.288 345.527 167.553 345.191 163.162 C 345.046 161.259 336.625 152.283 335.988 150.491 C 334.839 147.260 333.894 125.316 335.443 122.256 C 337.074 119.033 344.702 105.770 359.847 105.244 C 375.062 106.206 382.233 119.050 383.796 122.256 C 385.357 125.461 383.753 148.270 382.432 151.581 C 381.821 153.113 374.620 160.604 374.047 162.266 C 372.613 166.424 372.029 183.204 377.571 185.139 C 412.010 197.162 425.305 193.424 437.397 211.256 C 448.619 227.804 441.393 234.283 444.248 249.900 C 453.107 298.351 443.032 312.274 448.035 318.568 C 470.180 346.432 471.290 383.631 476.754 392.912 C 481.445 400.882 491.476 399.929 498.425 423.101 C 499.342 426.157 495.678 424.612 495.347 424.575 C 493.595 424.380 489.808 411.801 483.863 410.633 C 481.716 410.212 498.099 434.757 495.775 441.763 C 494.836 444.593 482.391 420.514 481.703 420.839 C 480.989 421.176 493.502 444.025 490.737 445.419 C 487.906 446.848 477.883 421.958 477.206 422.268 C 476.560 422.565 486.663 445.821 483.874 447.005 C 480.981 448.232 472.919 422.678 471.899 423.274 C 471.116 423.731 478.121 442.141 475.990 443.274 C 473.393 444.656 463.785 424.662 462.807 422.183 C 461.862 419.785 458.358 401.436 458.174 398.572 C 457.831 393.239 441.795 378.268 435.338 366.165 C 428.427 353.211 420.376 332.421 420.210 326.526 C 419.819 312.684 414.236 309.909 409.518 257.840 C 409.305 255.494 410.655 277.262 409.767 285.553 C 408.922 293.438 403.352 333.928 403.830 340.639 C 404.424 348.975 420.007 373.189 421.365 407.189 C 424.102 475.755 410.280 490.076 405.052 526.745 C 402.216 546.635 409.353 554.612 407.594 573.845 C 403.542 618.150 395.341 642.821 396.111 652.435 C 396.240 654.055 396.924 664.325 399.398 665.410 C 418.694 673.866 420.421 681.672 430.219 682.739 C 435.094 683.270 443.366 691.451 435.543 690.392 C 434.328 690.228 430.913 684.739 428.742 685.442 C 427.768 685.758 438.844 691.964 432.783 691.434 C 428.657 691.073 424.272 684.389 422.316 685.333 C 421.513 685.721 432.769 691.977 425.868 691.858 C 421.880 691.789 416.749 684.190 415.530 684.973 C 414.902 685.377 426.684 694.382 418.392 692.914 C 416.783 692.629 414.649 688.340 414.649 688.340 C 414.648 688.339 408.861 684.838 406.848 684.584 C 405.635 684.432 412.770 688.136 412.771 688.136 C 412.771 688.137 419.531 694.075 412.065 693.852 C 406.419 693.684 405.412 694.081 401.686 692.421 C 398.765 691.119 394.104 692.183 392.938 692.141 C 390.342 692.046 379.814 693.013 373.476 691.336 C 365.283 689.168 370.221 679.347 373.691 674.163 C 376.833 669.467 367.949 667.470 374.627 650.052 C 381.177 632.971 360.846 623.525 364.480 565.284 C 365.094 555.445 371.695 531.851 371.934 527.137 C 372.494 516.096 361.289 513.715 361.323 436.717 C 361.324 433.908 377.760 436.402 374.273 417.548 C 373.684 414.364 379.868 435.462 359.857 435.370 C 340.263 435.280 345.354 414.314 344.965 417.548 Z"/>
<path fill="none" stroke="#000000" stroke-width="2" stroke-linecap="round" stroke-linejoin="round" d="M 306.356 256.672 C 307.788 256.672 310.651 256.672 310.651 256.672 C 310.652 256.673 313.319 263.962 316.096 266.087 C 323.611 271.839 345.089 271.189 345.092 271.190 M 403.977 266.087 C 396.462 271.839 374.984 271.189 374.981 271.190 M 409.421 256.672 C 409.421 256.673 406.753 263.962 403.977 266.087 M 413.716 256.672 C 412.284 256.672 409.422 256.672 409.421 256.672 M 359.857 435.370 C 340.263 435.280 345.354 414.314 344.965 417.548 C 342.615 437.117 357.913 433.908 357.915 436.717 C 357.959 512.670 346.744 516.096 347.304 527.137 C 347.543 531.851 354.288 555.437 354.758 565.284 C 357.795 628.899 338.014 632.989 344.611 650.052 C 351.931 668.986 342.996 670.470 345.783 676.284 C 348.584 682.128 354.471 692.650 342.700 693.138 C 321.392 694.022 336.929 680.444 334.209 680.313 C 331.359 680.175 334.019 691.808 329.384 692.429 C 319.143 693.803 328.546 681.046 327.540 681.147 C 326.112 681.291 327.637 692.758 323.685 692.835 C 314.497 693.016 323.314 681.762 322.112 682.224 C 320.322 682.912 321.598 691.646 317.966 692.087 C 307.990 693.300 318.042 681.969 316.704 682.348 C 313.651 683.210 316.896 691.784 310.470 692.242 C 303.327 692.751 308.660 684.444 314.313 679.281 C 315.740 677.978 315.891 675.660 318.380 670.887 C 321.656 664.604 322.947 654.741 323.127 652.435 C 323.879 642.820 315.696 619.345 311.644 573.845 C 309.931 554.608 317.022 546.635 314.186 526.745 C 308.958 490.076 295.136 475.755 297.873 407.189 C 299.231 373.189 314.814 348.975 315.408 340.639 C 315.886 333.928 310.316 293.438 309.471 285.553 C 308.583 277.262 309.894 255.491 309.720 257.840 C 305.599 313.492 298.822 317.461 299.028 326.526 C 299.163 332.422 290.811 353.211 283.901 366.165 C 277.444 378.268 261.407 393.239 261.064 398.572 C 260.880 401.436 257.377 419.785 256.431 422.183 C 255.453 424.662 245.845 444.656 243.248 443.274 C 241.117 442.141 248.122 423.731 247.339 423.274 C 246.319 422.678 238.257 448.232 235.364 447.005 C 232.575 445.821 242.678 422.565 242.032 422.268 C 241.355 421.958 231.333 446.848 228.502 445.419 C 225.737 444.025 238.250 421.176 237.535 420.839 C 236.847 420.514 224.337 444.614 223.464 441.763 C 221.361 434.905 237.714 411.799 235.078 411.525 C 231.110 411.112 227.649 421.807 224.485 423.921 C 222.463 425.271 220.273 424.219 220.813 423.101 C 233.440 396.941 238.773 401.656 243.082 393.510 C 248.613 383.053 249.586 353.738 271.203 318.568 C 275.413 311.719 266.728 294.768 274.990 249.900 C 277.865 234.287 270.620 227.804 281.841 211.256 C 293.933 193.424 307.207 197.099 341.667 185.139 C 347.001 183.288 345.527 167.553 345.191 163.162 C 345.046 161.259 336.625 152.283 335.988 150.491 C 334.839 147.260 333.894 125.316 335.443 122.256 C 337.074 119.033 344.702 105.770 359.847 105.244 C 375.062 106.206 382.233 119.050 383.796 122.256 C 385.357 125.461 383.753 148.270 382.432 151.581 C 381.821 153.113 374.620 160.604 374.047 162.266 C 372.613 166.424 372.029 183.204 377.571 185.139 C 412.010 197.162 425.305 193.424 437.397 211.256 C 448.619 227.804 441.393 234.283 444.248 249.900 C 453.107 298.351 443.032 312.274 448.035 318.568 C 470.180 346.432 471.290 383.631 476.754 392.912 C 481.445 400.882 491.476 399.929 498.425 423.101 C 499.342 426.157 495.678 424.612 495.347 424.575 C 493.595 424.380 489.808 411.801 483.863 410.633 C 481.716 410.212 498.099 434.757 495.775 441.763 C 494.836 444.593 482.391 420.514 481.703 420.839 C 480.989 421.176 493.502 444.025 490.737 445.419 C 487.906 446.848 477.883 421.958 477.206 422.268 C 476.560 422.565 486.663 445.821 483.874 447.005 C 480.981 448.232 472.919 422.678 471.899 423.274 C 471.116 423.731 478.121 442.141 475.990 443.274 C 473.393 444.656 463.785 424.662 462.807 422.183 C 461.862 419.785 458.358 401.436 458.174 398.572 C 457.831 393.239 441.795 378.268 435.338 366.165 C 428.427 353.211 420.376 332.421 420.210 326.526 C 419.819 312.684 414.236 309.909 409.518 257.840 C 409.305 255.494 410.655 277.262 409.767 285.553 C 408.922 293.438 403.352 333.928 403.830 340.639 C 404.424 348.975 420.007 373.189 421.365 407.189 C 424.102 475.755 410.280 490.076 405.052 526.745 C 402.216 546.635 409.353 554.612 407.594 573.845 C 403.542 618.150 395.341 642.821 396.111 652.435 C 396.240 654.055 396.924 664.325 399.398 665.410 C 418.694 673.866 420.421 681.672 430.219 682.739 C 435.094 683.270 443.366 691.451 435.543 690.392 C 434.328 690.228 430.913 684.739 428.742 685.442 C 427.768 685.758 438.844 691.964 432.783 691.434 C 428.657 691.073 424.272 684.389 422.316 685.333 C 421.513 685.721 432.769 691.977 425.868 691.858 C 421.880 691.789 416.749 684.190 415.530 684.973 C 414.902 685.377 426.684 694.382 418.392 692.914 C 416.783 692.629 414.649 688.340 414.649 688.340 C 414.648 688.339 408.861 684.838 406.848 684.584 C 405.635 684.432 412.770 688.136 412.771 688.136 C 412.771 688.137 419.531 694.075 412.065 693.852 C 406.419 693.684 405.412 694.081 401.686 692.421 C 398.765 691.119 394.104 692.183 392.938 692.141 C 390.342 692.046 379.814 693.013 373.476 691.336 C 365.283 689.168 370.221 679.347 373.691 674.163 C 376.833 669.467 367.949 667.470 374.627 650.052 C 381.177 632.971 360.846 623.525 364.480 565.284 C 365.094 555.445 371.695 531.851 371.934 527.137 C 372.494 516.096 361.289 513.715 361.323 436.717 C 361.324 433.908 377.760 436.402 374.273 417.548 C 373.684 414.364 379.868 435.462 359.857 435.370 "/>
<path fill="#ffffff" fill-rule="evenodd" stroke="#000000" stroke-width="2" stroke-linecap="round" stroke-linejoin="round" d="M 360.000 354.109 C 360.539 354.109 360.824 354.952 360.824 356.879 C 360.824 358.806 360.539 359.649 360.000 359.649 C 359.461 359.649 359.176 358.806 359.176 356.879 C 359.176 354.952 359.461 354.109 360.000 354.109 Z"/>
<path fill="none" stroke="#000000" stroke-width="2" stroke-linecap="round" stroke-linejoin="round" d="M 353.403 406.703 C 353.403 406.705 351.550 425.833 359.735 426.491 C 367.840 427.143 366.066 406.441 366.067 406.439 "/>
</g>
<g id="specs_2">
<path fill="#ff00ff" fill-rule="evenodd" stroke="none" d="M 259.723 220.583 C 259.743 220.583 460.257 220.583 460.277 220.583 C 460.277 220.563 460.277 20.049 460.277 20.029 C 460.257 20.029 259.743 20.029 259.723 20.029 C 259.723 20.049 259.723 220.563 259.723 220.583 Z"/>
<path fill="#ff0000" fill-rule="evenodd" stroke="none" d="M 360.000 675.223 C 360.001 675.226 370.583 704.855 370.584 704.858 C 370.583 704.857 360.001 695.011 360.000 695.010 C 359.999 695.011 349.417 704.857 349.416 704.858 C 349.417 704.855 359.999 675.226 360.000 675.223 Z"/>
<path fill="#0000ff" fill-rule="evenodd" stroke="none" d="M 360.000 85.597 C 360.001 85.599 366.147 102.810 366.148 102.812 C 366.147 102.811 360.001 97.092 360.000 97.091 C 359.999 97.092 353.853 102.811 353.852 102.812 C 353.853 102.810 359.999 85.599 360.000 85.597 Z"/>
<path fill="#00ff00" fill-rule="evenodd" stroke="none" d="M 271.180 214.094 C 271.181 214.093 288.361 207.860 288.363 207.859 C 288.362 207.860 282.674 214.035 282.674 214.036 C 282.674 214.037 288.424 220.155 288.425 220.155 C 288.423 220.155 271.181 214.095 271.180 214.094 Z"/>
<path fill="#ffff00" fill-rule="evenodd" stroke="none" d="M 227.546 440.817 C 227.546 440.816 235.175 424.208 235.175 424.206 C 235.175 424.207 235.577 432.594 235.577 432.594 C 235.578 432.594 243.971 432.798 243.972 432.798 C 243.970 432.799 227.547 440.817 227.546 440.817 Z"/>
<path fill="#ffff00" fill-rule="evenodd" stroke="none" d="M 494.773 440.614 C 494.773 440.612 486.813 424.161 486.812 424.159 C 486.812 424.160 486.579 432.553 486.579 432.554 C 486.578 432.554 478.190 432.925 478.190 432.926 C 478.191 432.926 494.772 440.613 494.773 440.614 Z"/>
<path fill="#00ff00" fill-rule="evenodd" stroke="none" d="M 449.040 214.094 C 449.038 214.093 431.858 207.860 431.856 207.859 C 431.857 207.860 437.545 214.035 437.545 214.036 C 437.545 214.037 431.795 220.155 431.794 220.155 C 431.796 220.155 449.038 214.095 449.040 214.094 Z"/>
<path fill="#00ffff" fill-rule="evenodd" stroke="none" d="M 404.665 105.683 C 404.664 105.684 398.563 122.912 398.562 122.914 C 398.562 122.913 397.407 114.597 397.407 114.596 C 397.406 114.596 389.028 115.149 389.028 115.149 C 389.029 115.148 404.663 105.684 404.665 105.683 Z"/>
<path fill="#00ffff" fill-rule="evenodd" stroke="none" d="M 315.430 106.254 C 315.431 106.255 322.667 123.038 322.668 123.039 C 322.668 123.039 323.266 114.664 323.266 114.663 C 323.267 114.663 331.663 114.657 331.664 114.657 C 331.662 114.656 315.432 106.255 315.430 106.254 Z"/>
<path fill="#be0027" fill-rule="evenodd" stroke="none" d="M 360.000 619.392 C 360.001 619.389 370.583 589.759 370.584 589.756 C 370.583 589.757 360.001 599.603 360.000 599.604 C 359.999 599.603 349.417 589.757 349.416 589.756 C 349.417 589.759 359.999 619.389 360.000 619.392 Z"/>
</g>
</g>
</svg>
