<?xml version="1.0" encoding="utf-8"?>
<!-- Generator: Moho 12.5 build 22414 -->
<!DOCTYPE svg PUBLIC "-//W3C//DTD SVG 1.1//EN" "http://www.w3.org/Graphics/SVG/1.1/DTD/svg11.dtd">
<svg version="1.1" id="Frame_0" xmlns="http://www.w3.org/2000/svg" xmlns:xlink="http://www.w3.org/1999/xlink" width="720px" height="720px">
<g id="man">
<g id="man_2">
<path fill="#ffffff" fill-rule="evenodd" stroke="none" d="M 346.367 435.907 C 344.236 453.651 358.098 450.741 358.109 453.288 C 358.431 525.901 347.917 529.239 348.488 539.792 C 348.719 544.066 354.821 565.454 355.247 574.383 C 358.001 632.066 340.064 635.774 346.046 651.246 C 352.683 668.415 344.582 669.760 347.109 675.032 C 349.649 680.331 354.986 689.872 344.313 690.315 C 324.992 691.116 339.080 678.804 336.614 678.685 C 334.029 678.560 336.441 689.108 332.239 689.672 C 322.953 690.918 331.479 679.350 330.567 679.442 C 329.272 679.572 330.655 689.969 327.071 690.040 C 318.740 690.204 326.735 679.999 325.645 680.418 C 324.022 681.042 325.179 688.961 321.886 689.362 C 312.839 690.461 321.954 680.187 320.741 680.530 C 317.973 681.312 320.915 689.087 315.089 689.502 C 308.612 689.963 313.447 682.431 318.574 677.749 C 319.867 676.568 320.004 674.466 322.261 670.138 C 325.232 664.441 326.402 655.498 326.566 653.407 C 327.247 644.688 319.827 623.402 316.153 582.145 C 314.599 564.702 321.030 557.472 318.458 539.437 C 313.718 506.187 301.184 493.202 303.667 431.029 C 304.898 400.200 319.027 378.243 319.566 370.685 C 320.000 364.600 314.949 327.885 314.183 320.736 C 313.377 313.217 314.566 293.477 314.409 295.606 C 310.672 346.069 304.527 349.668 304.714 357.888 C 304.836 363.234 297.263 382.085 290.997 393.830 C 285.142 404.805 270.600 418.380 270.290 423.215 C 270.123 425.813 266.946 442.451 266.088 444.625 C 265.202 446.873 256.490 465.002 254.135 463.750 C 252.202 462.722 258.555 446.029 257.844 445.614 C 256.919 445.074 249.609 468.246 246.986 467.132 C 244.457 466.059 253.618 444.972 253.032 444.702 C 252.418 444.421 243.330 466.990 240.763 465.695 C 238.256 464.430 249.602 443.712 248.955 443.406 C 248.331 443.112 236.987 464.965 236.195 462.379 C 234.289 456.160 249.117 435.210 246.726 434.961 C 243.129 434.587 239.991 444.285 237.121 446.201 C 235.288 447.426 233.303 446.471 233.791 445.458 C 245.242 421.737 250.077 426.012 253.984 418.625 C 258.999 409.143 259.882 382.562 279.483 350.672 C 283.301 344.461 275.425 329.091 282.917 288.407 C 285.524 274.250 278.954 268.371 289.129 253.366 C 300.093 237.197 312.130 240.530 343.376 229.685 C 348.213 228.006 370.907 227.930 375.933 229.685 C 407.160 240.587 419.216 237.197 430.180 253.366 C 440.355 268.371 433.803 274.247 436.392 288.407 C 444.425 332.340 435.290 344.965 439.826 350.672 C 459.906 375.938 460.912 409.668 465.867 418.084 C 470.121 425.310 479.216 424.446 485.518 445.458 C 486.349 448.229 483.026 446.828 482.726 446.794 C 481.137 446.617 477.703 435.211 472.313 434.153 C 470.367 433.770 485.221 456.027 483.114 462.379 C 482.263 464.946 470.978 443.112 470.354 443.406 C 469.707 443.712 481.053 464.430 478.546 465.695 C 475.979 466.990 466.891 444.421 466.277 444.702 C 465.691 444.972 474.852 466.059 472.324 467.132 C 469.700 468.246 462.390 445.074 461.465 445.614 C 460.755 446.029 467.107 462.722 465.174 463.750 C 462.820 465.002 454.107 446.873 453.221 444.625 C 452.363 442.451 449.186 425.813 449.020 423.215 C 448.709 418.380 434.168 404.805 428.313 393.830 C 422.047 382.085 414.746 363.233 414.595 357.888 C 414.241 345.337 409.179 342.821 404.900 295.606 C 404.708 293.480 405.932 313.217 405.126 320.736 C 404.360 327.885 399.309 364.600 399.743 370.685 C 400.282 378.243 414.412 400.200 415.643 431.029 C 418.125 493.202 405.591 506.187 400.851 539.437 C 398.280 557.472 404.751 564.706 403.156 582.145 C 399.482 622.319 392.046 644.689 392.743 653.407 C 392.861 654.876 393.481 664.188 395.724 665.172 C 413.221 672.839 414.787 679.918 423.671 680.885 C 428.092 681.367 435.593 688.785 428.499 687.825 C 427.397 687.676 424.300 682.699 422.332 683.336 C 421.449 683.622 431.492 689.250 425.997 688.769 C 422.255 688.442 418.279 682.381 416.505 683.237 C 415.777 683.589 425.984 689.261 419.726 689.154 C 416.110 689.091 411.457 682.201 410.352 682.911 C 409.783 683.277 420.466 691.442 412.947 690.111 C 411.488 689.853 409.554 685.964 409.553 685.964 C 409.553 685.963 404.305 682.788 402.480 682.558 C 401.380 682.420 407.849 685.779 407.850 685.779 C 407.850 685.780 413.980 691.164 407.211 690.962 C 402.091 690.809 401.177 691.169 397.799 689.664 C 395.150 688.484 390.924 689.448 389.866 689.410 C 387.513 689.325 377.966 690.201 372.219 688.680 C 364.790 686.714 369.268 677.810 372.414 673.109 C 375.264 668.851 367.208 667.040 373.263 651.246 C 379.203 635.758 360.767 627.192 364.062 574.383 C 364.619 565.461 370.590 544.066 370.821 539.792 C 371.393 529.239 360.884 526.900 361.200 453.288 C 361.211 450.741 376.104 453.002 372.942 435.907 C 372.408 433.020 378.016 452.150 359.871 452.067 C 342.103 451.985 346.720 432.974 346.367 435.907 Z"/>
<path fill="none" stroke="#000000" stroke-width="2" stroke-linecap="round" stroke-linejoin="round" d="M 311.359 294.547 C 312.657 294.547 315.252 294.547 315.253 294.547 C 315.253 294.548 317.672 301.158 320.190 303.085 C 327.004 308.300 346.479 307.711 346.482 307.711 M 399.876 303.085 C 393.062 308.300 373.587 307.711 373.584 307.711 M 404.813 294.547 C 404.813 294.548 402.393 301.158 399.876 303.085 M 408.707 294.547 C 407.409 294.547 404.813 294.547 404.813 294.547 M 359.871 452.067 C 342.103 451.985 346.720 432.974 346.367 435.907 C 344.236 453.651 358.098 450.741 358.109 453.288 C 358.431 525.901 347.917 529.239 348.488 539.792 C 348.719 544.066 354.821 565.454 355.247 574.383 C 358.001 632.066 340.064 635.774 346.046 651.246 C 352.683 668.415 344.582 669.760 347.109 675.032 C 349.649 680.331 354.986 689.872 344.313 690.315 C 324.992 691.116 339.080 678.804 336.614 678.685 C 334.029 678.560 336.441 689.108 332.239 689.672 C 322.953 690.918 331.479 679.350 330.567 679.442 C 329.272 679.572 330.655 689.969 327.071 690.040 C 318.740 690.204 326.735 679.999 325.645 680.418 C 324.022 681.042 325.179 688.961 321.886 689.362 C 312.839 690.461 321.954 680.187 320.741 680.530 C 317.973 681.312 320.915 689.087 315.089 689.502 C 308.612 689.963 313.447 682.431 318.574 677.749 C 319.867 676.568 320.004 674.466 322.261 670.138 C 325.232 664.441 326.402 655.498 326.566 653.407 C 327.247 644.688 319.827 623.402 316.153 582.145 C 314.599 564.702 321.030 557.472 318.458 539.437 C 313.718 506.187 301.184 493.202 303.667 431.029 C 304.898 400.200 319.027 378.243 319.566 370.685 C 320.000 364.600 314.949 327.885 314.183 320.736 C 313.377 313.217 314.566 293.477 314.409 295.606 C 310.672 346.069 304.527 349.668 304.714 357.888 C 304.836 363.234 297.263 382.085 290.997 393.830 C 285.142 404.805 270.600 418.380 270.290 423.215 C 270.123 425.813 266.946 442.451 266.088 444.625 C 265.202 446.873 256.490 465.002 254.135 463.750 C 252.202 462.722 258.555 446.029 257.844 445.614 C 256.919 445.074 249.609 468.246 246.986 467.132 C 244.457 466.059 253.618 444.972 253.032 444.702 C 252.418 444.421 243.330 466.990 240.763 465.695 C 238.256 464.430 249.602 443.712 248.955 443.406 C 248.331 443.112 236.987 464.965 236.195 462.379 C 234.289 456.160 249.117 435.210 246.726 434.961 C 243.129 434.587 239.991 444.285 237.121 446.201 C 235.288 447.426 233.303 446.471 233.791 445.458 C 245.242 421.737 250.077 426.012 253.984 418.625 C 258.999 409.143 259.882 382.562 279.483 350.672 C 283.301 344.461 275.425 329.091 282.917 288.407 C 285.524 274.250 278.954 268.371 289.129 253.366 C 300.093 237.197 312.130 240.530 343.376 229.685 C 348.213 228.006 370.907 227.930 375.933 229.685 C 407.160 240.587 419.216 237.197 430.180 253.366 C 440.355 268.371 433.803 274.247 436.392 288.407 C 444.425 332.340 435.290 344.965 439.826 350.672 C 459.906 375.938 460.912 409.668 465.867 418.084 C 470.121 425.310 479.216 424.446 485.518 445.458 C 486.349 448.229 483.026 446.828 482.726 446.794 C 481.137 446.617 477.703 435.211 472.313 434.153 C 470.367 433.770 485.221 456.027 483.114 462.379 C 482.263 464.946 470.978 443.112 470.354 443.406 C 469.707 443.712 481.053 464.430 478.546 465.695 C 475.979 466.990 466.891 444.421 466.277 444.702 C 465.691 444.972 474.852 466.059 472.324 467.132 C 469.700 468.246 462.390 445.074 461.465 445.614 C 460.755 446.029 467.107 462.722 465.174 463.750 C 462.820 465.002 454.107 446.873 453.221 444.625 C 452.363 442.451 449.186 425.813 449.020 423.215 C 448.709 418.380 434.168 404.805 428.313 393.830 C 422.047 382.085 414.746 363.233 414.595 357.888 C 414.241 345.337 409.179 342.821 404.900 295.606 C 404.708 293.480 405.932 313.217 405.126 320.736 C 404.360 327.885 399.309 364.600 399.743 370.685 C 400.282 378.243 414.412 400.200 415.643 431.029 C 418.125 493.202 405.591 506.187 400.851 539.437 C 398.280 557.472 404.751 564.706 403.156 582.145 C 399.482 622.319 392.046 644.689 392.743 653.407 C 392.861 654.876 393.481 664.188 395.724 665.172 C 413.221 672.839 414.787 679.918 423.671 680.885 C 428.092 681.367 435.593 688.785 428.499 687.825 C 427.397 687.676 424.300 682.699 422.332 683.336 C 421.449 683.622 431.492 689.250 425.997 688.769 C 422.255 688.442 418.279 682.381 416.505 683.237 C 415.777 683.589 425.984 689.261 419.726 689.154 C 416.110 689.091 411.457 682.201 410.352 682.911 C 409.783 683.277 420.466 691.442 412.947 690.111 C 411.488 689.853 409.554 685.964 409.553 685.964 C 409.553 685.963 404.305 682.788 402.480 682.558 C 401.380 682.420 407.849 685.779 407.850 685.779 C 407.850 685.780 413.980 691.164 407.211 690.962 C 402.091 690.809 401.177 691.169 397.799 689.664 C 395.150 688.484 390.924 689.448 389.866 689.410 C 387.513 689.325 377.966 690.201 372.219 688.680 C 364.790 686.714 369.268 677.810 372.414 673.109 C 375.264 668.851 367.208 667.040 373.263 651.246 C 379.203 635.758 360.767 627.192 364.062 574.383 C 364.619 565.461 370.590 544.066 370.821 539.792 C 371.393 529.239 360.884 526.900 361.200 453.288 C 361.211 450.741 376.104 453.002 372.942 435.907 C 372.408 433.020 378.016 452.150 359.871 452.067 "/>
<path fill="#ffffff" fill-rule="evenodd" stroke="#000000" stroke-width="2" stroke-linecap="round" stroke-linejoin="round" d="M 360.000 382.899 C 360.488 382.899 360.747 383.663 360.747 385.411 C 360.747 387.158 360.488 387.922 360.000 387.922 C 359.512 387.922 359.253 387.158 359.253 385.411 C 359.253 383.663 359.512 382.899 360.000 382.899 Z"/>
<path fill="none" stroke="#000000" stroke-width="2" stroke-linecap="round" stroke-linejoin="round" d="M 354.018 430.942 C 354.018 430.944 352.338 448.288 359.759 448.885 C 367.109 449.476 365.500 430.705 365.501 430.703 "/>
</g>
<g id="specs_2">
<path fill="#ff00ff" fill-rule="evenodd" stroke="none" d="M 251.303 267.816 C 251.325 267.816 468.675 267.816 468.697 267.816 C 468.697 267.794 468.697 50.444 468.697 50.423 C 468.675 50.423 251.325 50.423 251.303 50.423 C 251.303 50.444 251.303 267.794 251.303 267.816 Z"/>
<path fill="#ff0000" fill-rule="evenodd" stroke="none" d="M 360.000 674.070 C 360.001 674.072 369.596 700.939 369.597 700.941 C 369.596 700.941 360.001 692.013 360.000 692.012 C 359.999 692.013 350.404 700.941 350.403 700.941 C 350.404 700.939 359.999 674.072 360.000 674.070 Z"/>
<path fill="#0000ff" fill-rule="evenodd" stroke="none" d="M 360.000 139.425 C 360.001 139.426 365.574 155.033 365.575 155.034 C 365.574 155.034 360.001 149.848 360.000 149.847 C 359.999 149.848 354.426 155.034 354.425 155.034 C 354.426 155.033 359.999 139.426 360.000 139.425 Z"/>
<path fill="#00ff00" fill-rule="evenodd" stroke="none" d="M 279.462 255.940 C 279.463 255.939 295.041 250.287 295.043 250.286 C 295.042 250.287 289.885 255.887 289.884 255.887 C 289.885 255.888 295.099 261.435 295.099 261.436 C 295.098 261.435 279.463 255.940 279.462 255.940 Z"/>
<path fill="#ffff00" fill-rule="evenodd" stroke="none" d="M 239.897 461.522 C 239.897 461.520 246.814 446.461 246.815 446.460 C 246.815 446.461 247.179 454.065 247.179 454.066 C 247.180 454.066 254.790 454.250 254.791 454.250 C 254.790 454.251 239.898 461.521 239.897 461.522 Z"/>
<path fill="#ffff00" fill-rule="evenodd" stroke="none" d="M 482.206 461.337 C 482.205 461.336 474.988 446.418 474.988 446.417 C 474.988 446.418 474.776 454.028 474.776 454.029 C 474.775 454.029 467.169 454.366 467.169 454.366 C 467.170 454.367 482.205 461.337 482.206 461.337 Z"/>
<path fill="#00ff00" fill-rule="evenodd" stroke="none" d="M 440.737 255.940 C 440.735 255.939 425.157 250.287 425.156 250.286 C 425.156 250.287 430.314 255.887 430.314 255.887 C 430.314 255.888 425.100 261.435 425.100 261.436 C 425.101 261.435 440.735 255.940 440.737 255.940 Z"/>
<path fill="#00ffff" fill-rule="evenodd" stroke="none" d="M 400.500 157.637 C 400.499 157.639 394.967 173.260 394.966 173.262 C 394.966 173.261 393.919 165.720 393.919 165.719 C 393.918 165.720 386.322 166.221 386.321 166.221 C 386.322 166.220 400.499 157.638 400.500 157.637 Z"/>
<path fill="#00ffff" fill-rule="evenodd" stroke="none" d="M 319.586 158.155 C 319.587 158.157 326.149 173.374 326.149 173.376 C 326.149 173.375 326.692 165.781 326.692 165.780 C 326.693 165.780 334.305 165.775 334.306 165.775 C 334.305 165.774 319.588 158.156 319.586 158.155 Z"/>
<path fill="#be0027" fill-rule="evenodd" stroke="none" d="M 360.000 623.445 C 360.001 623.442 369.596 596.575 369.597 596.573 C 369.596 596.573 360.001 605.501 360.000 605.502 C 359.999 605.501 350.404 596.573 350.403 596.573 C 350.404 596.575 359.999 623.442 360.000 623.445 Z"/>
</g>
</g>
</svg>
