<?xml version="1.0" encoding="utf-8"?>
<!-- Generator: Moho 12.5 build 22414 -->
<!DOCTYPE svg PUBLIC "-//W3C//DTD SVG 1.1//EN" "http://www.w3.org/Graphics/SVG/1.1/DTD/svg11.dtd">
<svg version="1.1" id="Frame_0" xmlns="http://www.w3.org/2000/svg" xmlns:xlink="http://www.w3.org/1999/xlink" width="720px" height="720px">
<g id="man">
<g id="man">
<path fill="#000000" fill-rule="evenodd" stroke="none" d="M 359.656 10.631 C 366.540 10.517 373.669 7.590 379.888 10.296 C 384.849 12.454 387.035 18.364 391.178 22.128 C 396.106 26.607 404.562 28.134 407.368 34.694 C 410.263 41.460 404.682 49.437 404.682 57.695 C 404.682 65.953 410.263 73.930 407.368 80.695 C 404.562 87.255 395.716 88.387 391.178 93.261 C 386.309 98.490 385.891 107.874 379.545 110.592 C 373.430 113.210 366.751 107.164 360.000 107.164 C 353.249 107.164 346.570 113.210 340.455 110.592 C 334.109 107.874 333.691 98.490 328.822 93.261 C 324.284 88.387 315.438 87.255 312.632 80.695 C 309.737 73.930 315.318 65.953 315.318 57.695 C 315.318 49.437 309.737 41.460 312.632 34.694 C 315.438 28.135 324.020 26.743 328.822 22.128 C 332.448 18.644 334.040 13.141 338.394 10.983 C 344.780 7.817 352.422 10.751 359.656 10.631 Z"/>
<path fill="#ffffff" fill-rule="evenodd" stroke="none" d="M 342.616 388.119 C 339.898 410.746 357.596 407.035 357.589 410.283 C 357.418 495.160 344.724 498.938 345.320 511.277 C 345.583 516.728 353.396 544.000 353.939 555.386 C 357.451 628.941 334.578 633.670 342.206 653.400 C 350.670 675.292 340.339 677.008 343.562 683.730 C 346.801 690.487 353.607 702.654 339.996 703.218 C 315.359 704.240 333.324 688.540 330.179 688.388 C 326.883 688.229 329.959 701.680 324.600 702.399 C 312.758 703.987 323.631 689.237 322.468 689.354 C 320.816 689.520 322.580 702.778 318.010 702.868 C 307.387 703.077 317.582 690.064 316.192 690.598 C 314.122 691.394 315.597 701.493 311.398 702.003 C 299.862 703.405 311.485 690.304 309.938 690.741 C 306.408 691.739 310.161 701.653 302.730 702.182 C 294.471 702.770 300.637 693.166 307.174 687.195 C 308.824 685.689 308.998 683.009 311.876 677.490 C 315.665 670.225 317.157 658.821 317.366 656.154 C 318.235 645.037 308.773 617.894 304.088 565.284 C 302.107 543.041 310.306 533.822 307.028 510.824 C 300.983 468.425 285.000 451.867 288.166 372.586 C 289.735 333.274 307.753 305.276 308.440 295.637 C 308.993 287.878 302.552 241.061 301.575 231.944 C 300.548 222.357 302.065 197.184 301.864 199.900 C 297.098 264.248 289.262 268.838 289.501 279.318 C 289.656 286.136 279.999 310.174 272.009 325.152 C 264.543 339.147 246.000 356.456 245.604 362.622 C 245.392 365.934 241.340 387.150 240.247 389.924 C 239.117 392.790 228.007 415.908 225.005 414.310 C 222.540 412.999 230.640 391.714 229.734 391.185 C 228.555 390.496 219.234 420.043 215.888 418.624 C 212.663 417.255 224.346 390.365 223.598 390.022 C 222.815 389.663 211.227 418.442 207.953 416.791 C 204.756 415.178 219.225 388.758 218.399 388.369 C 217.603 387.994 203.139 415.859 202.128 412.563 C 199.697 404.633 218.605 377.917 215.557 377.600 C 210.970 377.123 206.968 389.489 203.309 391.933 C 200.972 393.494 198.440 392.277 199.063 390.985 C 213.664 360.737 219.829 366.189 224.812 356.769 C 231.207 344.678 232.332 310.783 257.328 270.117 C 262.196 262.198 252.153 242.598 261.706 190.719 C 265.030 172.666 256.653 165.170 269.628 146.036 C 283.609 125.418 298.957 129.668 338.802 115.838 C 344.969 113.698 343.266 95.505 342.877 90.427 C 342.709 88.227 332.973 77.848 332.236 75.776 C 330.907 72.041 329.815 46.667 331.605 43.130 C 333.492 39.403 342.312 24.067 359.823 23.459 C 377.416 24.571 385.708 39.422 387.514 43.130 C 389.319 46.835 387.464 73.208 385.938 77.037 C 385.231 78.808 376.905 87.470 376.242 89.391 C 374.583 94.199 373.909 113.601 380.317 115.838 C 420.137 129.740 435.510 125.418 449.491 146.036 C 462.466 165.170 454.111 172.662 457.413 190.719 C 467.656 246.741 456.007 262.840 461.791 270.117 C 487.397 302.335 488.680 345.347 494.998 356.079 C 500.422 365.293 512.021 364.192 520.056 390.985 C 521.116 394.519 516.879 392.732 516.496 392.689 C 514.470 392.463 510.091 377.919 503.218 376.569 C 500.736 376.081 519.678 404.462 516.991 412.563 C 515.905 415.836 501.516 387.994 500.720 388.369 C 499.894 388.758 514.363 415.178 511.166 416.791 C 507.892 418.442 496.304 389.663 495.521 390.022 C 494.773 390.365 506.456 417.255 503.231 418.624 C 499.885 420.043 490.564 390.496 489.385 391.185 C 488.479 391.714 496.579 412.999 494.115 414.310 C 491.112 415.908 480.002 392.790 478.872 389.924 C 477.779 387.150 473.728 365.934 473.515 362.622 C 473.119 356.456 454.576 339.147 447.110 325.152 C 439.120 310.174 429.810 286.135 429.618 279.318 C 429.166 263.314 422.711 260.105 417.256 199.900 C 417.010 197.188 418.571 222.357 417.544 231.944 C 416.567 241.061 410.126 287.878 410.679 295.637 C 411.366 305.276 429.384 333.274 430.954 372.586 C 434.119 451.867 418.136 468.425 412.092 510.824 C 408.813 533.822 417.065 543.046 415.031 565.284 C 410.346 616.513 400.864 645.039 401.753 656.154 C 401.903 658.028 402.694 669.903 405.554 671.157 C 427.865 680.934 429.862 689.961 441.191 691.194 C 446.829 691.808 456.393 701.268 447.348 700.043 C 445.942 699.853 441.994 693.507 439.483 694.320 C 438.358 694.684 451.164 701.860 444.157 701.248 C 439.385 700.831 434.315 693.102 432.054 694.193 C 431.125 694.642 444.140 701.875 436.161 701.738 C 431.549 701.658 425.617 692.872 424.207 693.778 C 423.481 694.244 437.104 704.656 427.516 702.958 C 425.656 702.629 423.189 697.671 423.189 697.670 C 423.188 697.670 416.496 693.620 414.169 693.328 C 412.766 693.151 421.016 697.434 421.017 697.435 C 421.017 697.435 428.834 704.301 420.201 704.044 C 413.672 703.849 412.508 704.308 408.200 702.389 C 404.822 700.884 399.433 702.114 398.084 702.065 C 395.083 701.956 382.910 703.073 375.581 701.134 C 366.108 698.627 371.818 687.272 375.830 681.278 C 379.464 675.849 369.191 673.539 376.913 653.400 C 384.486 633.649 360.978 622.727 365.180 555.386 C 365.890 544.009 373.536 516.728 373.799 511.277 C 374.396 498.938 361.715 496.328 361.530 410.283 C 361.523 407.035 380.535 409.919 376.503 388.119 C 375.822 384.438 382.973 408.833 359.835 408.726 C 337.178 408.621 343.065 384.380 342.616 388.119 Z"/>
<path fill="none" stroke="#000000" stroke-width="2" stroke-linecap="round" stroke-linejoin="round" d="M 297.974 198.549 C 299.629 198.549 302.939 198.549 302.940 198.549 C 302.940 198.550 306.025 206.979 309.235 209.436 C 317.924 216.086 342.759 215.335 342.762 215.335 M 410.849 209.436 C 402.159 216.086 377.325 215.335 377.322 215.335 M 417.144 198.549 C 417.143 198.550 414.059 206.979 410.849 209.436 M 422.110 198.549 C 420.454 198.549 417.145 198.549 417.144 198.549 M 359.835 408.726 C 337.178 408.621 343.065 384.380 342.616 388.119 C 339.898 410.746 357.596 407.035 357.589 410.283 C 357.418 495.160 344.724 498.938 345.320 511.277 C 345.583 516.728 353.396 544.000 353.939 555.386 C 357.451 628.941 334.578 633.670 342.206 653.400 C 350.670 675.292 340.339 677.008 343.562 683.730 C 346.801 690.487 353.607 702.654 339.996 703.218 C 315.359 704.240 333.324 688.540 330.179 688.388 C 326.883 688.229 329.959 701.680 324.600 702.399 C 312.758 703.987 323.631 689.237 322.468 689.354 C 320.816 689.520 322.580 702.778 318.010 702.868 C 307.387 703.077 317.582 690.064 316.192 690.598 C 314.122 691.394 315.597 701.493 311.398 702.003 C 299.862 703.405 311.485 690.304 309.938 690.741 C 306.408 691.739 310.161 701.653 302.730 702.182 C 294.471 702.770 300.637 693.166 307.174 687.195 C 308.824 685.689 308.998 683.009 311.876 677.490 C 315.665 670.225 317.157 658.821 317.366 656.154 C 318.235 645.037 308.773 617.894 304.088 565.284 C 302.107 543.041 310.306 533.822 307.028 510.824 C 300.983 468.425 285.000 451.867 288.166 372.586 C 289.735 333.274 307.753 305.276 308.440 295.637 C 308.993 287.878 302.552 241.061 301.575 231.944 C 300.548 222.357 302.065 197.184 301.864 199.900 C 297.098 264.248 289.262 268.838 289.501 279.318 C 289.656 286.136 279.999 310.174 272.009 325.152 C 264.543 339.147 246.000 356.456 245.604 362.622 C 245.392 365.934 241.340 387.150 240.247 389.924 C 239.117 392.790 228.007 415.908 225.005 414.310 C 222.540 412.999 230.640 391.714 229.734 391.185 C 228.555 390.496 219.234 420.043 215.888 418.624 C 212.663 417.255 224.346 390.365 223.598 390.022 C 222.815 389.663 211.227 418.442 207.953 416.791 C 204.756 415.178 219.225 388.758 218.399 388.369 C 217.603 387.994 203.139 415.859 202.128 412.563 C 199.697 404.633 218.605 377.917 215.557 377.600 C 210.970 377.123 206.968 389.489 203.309 391.933 C 200.972 393.494 198.440 392.277 199.063 390.985 C 213.664 360.737 219.829 366.189 224.812 356.769 C 231.207 344.678 232.332 310.783 257.328 270.117 C 262.196 262.198 252.153 242.598 261.706 190.719 C 265.030 172.666 256.653 165.170 269.628 146.036 C 283.609 125.418 298.957 129.668 338.802 115.838 C 344.969 113.698 343.266 95.505 342.877 90.427 C 342.709 88.227 332.973 77.848 332.236 75.776 C 330.907 72.041 329.815 46.667 331.605 43.130 C 333.492 39.403 342.312 24.067 359.823 23.459 C 377.416 24.571 385.708 39.422 387.514 43.130 C 389.319 46.835 387.464 73.208 385.938 77.037 C 385.231 78.808 376.905 87.470 376.242 89.391 C 374.583 94.199 373.909 113.601 380.317 115.838 C 420.137 129.740 435.510 125.418 449.491 146.036 C 462.466 165.170 454.111 172.662 457.413 190.719 C 467.656 246.741 456.007 262.840 461.791 270.117 C 487.397 302.335 488.680 345.347 494.998 356.079 C 500.422 365.293 512.021 364.192 520.056 390.985 C 521.116 394.519 516.879 392.732 516.496 392.689 C 514.470 392.463 510.091 377.919 503.218 376.569 C 500.736 376.081 519.678 404.462 516.991 412.563 C 515.905 415.836 501.516 387.994 500.720 388.369 C 499.894 388.758 514.363 415.178 511.166 416.791 C 507.892 418.442 496.304 389.663 495.521 390.022 C 494.773 390.365 506.456 417.255 503.231 418.624 C 499.885 420.043 490.564 390.496 489.385 391.185 C 488.479 391.714 496.579 412.999 494.115 414.310 C 491.112 415.908 480.002 392.790 478.872 389.924 C 477.779 387.150 473.728 365.934 473.515 362.622 C 473.119 356.456 454.576 339.147 447.110 325.152 C 439.120 310.174 429.810 286.135 429.618 279.318 C 429.166 263.314 422.711 260.105 417.256 199.900 C 417.010 197.188 418.571 222.357 417.544 231.944 C 416.567 241.061 410.126 287.878 410.679 295.637 C 411.366 305.276 429.384 333.274 430.954 372.586 C 434.119 451.867 418.136 468.425 412.092 510.824 C 408.813 533.822 417.065 543.046 415.031 565.284 C 410.346 616.513 400.864 645.039 401.753 656.154 C 401.903 658.028 402.694 669.903 405.554 671.157 C 427.865 680.934 429.862 689.961 441.191 691.194 C 446.829 691.808 456.393 701.268 447.348 700.043 C 445.942 699.853 441.994 693.507 439.483 694.320 C 438.358 694.684 451.164 701.860 444.157 701.248 C 439.385 700.831 434.315 693.102 432.054 694.193 C 431.125 694.642 444.140 701.875 436.161 701.738 C 431.549 701.658 425.617 692.872 424.207 693.778 C 423.481 694.244 437.104 704.656 427.516 702.958 C 425.656 702.629 423.189 697.671 423.189 697.670 C 423.188 697.670 416.496 693.620 414.169 693.328 C 412.766 693.151 421.016 697.434 421.017 697.435 C 421.017 697.435 428.834 704.301 420.201 704.044 C 413.672 703.849 412.508 704.308 408.200 702.389 C 404.822 700.884 399.433 702.114 398.084 702.065 C 395.083 701.956 382.910 703.073 375.581 701.134 C 366.108 698.627 371.818 687.272 375.830 681.278 C 379.464 675.849 369.191 673.539 376.913 653.400 C 384.486 633.649 360.978 622.727 365.180 555.386 C 365.890 544.009 373.536 516.728 373.799 511.277 C 374.396 498.938 361.715 496.328 361.530 410.283 C 361.523 407.035 380.535 409.919 376.503 388.119 C 375.822 384.438 382.973 408.833 359.835 408.726 "/>
<path fill="#ffffff" fill-rule="evenodd" stroke="#000000" stroke-width="2" stroke-linecap="round" stroke-linejoin="round" d="M 360.000 311.212 C 360.623 311.212 360.953 312.187 360.953 314.415 C 360.953 316.643 360.623 317.618 360.000 317.618 C 359.377 317.618 359.047 316.643 359.047 314.415 C 359.047 312.187 359.377 311.212 360.000 311.212 Z"/>
<path fill="none" stroke="#000000" stroke-width="2" stroke-linecap="round" stroke-linejoin="round" d="M 352.372 375.580 C 352.372 375.582 350.230 397.698 359.693 398.459 C 369.065 399.213 367.014 375.277 367.015 375.275 "/>
</g>
<g id="specs_2">
<path fill="#ff00ff" fill-rule="evenodd" stroke="none" d="M 301.148 118.686 C 301.160 118.686 418.840 118.686 418.852 118.686 C 418.852 118.675 418.852 0.995 418.852 0.983 C 418.840 0.983 301.160 0.983 301.148 0.983 C 301.148 0.995 301.148 118.675 301.148 118.686 Z"/>
<path fill="#ff0000" fill-rule="evenodd" stroke="none" d="M 360.000 682.503 C 360.001 682.507 372.237 716.766 372.238 716.769 C 372.237 716.768 360.001 705.384 360.000 705.383 C 359.999 705.384 347.764 716.768 347.762 716.769 C 347.764 716.766 359.999 682.507 360.000 682.503 Z"/>
<path fill="#0000ff" fill-rule="evenodd" stroke="none" d="M 360.000 0.742 C 360.001 0.744 367.108 20.644 367.109 20.646 C 367.108 20.646 360.001 14.033 360.000 14.032 C 359.999 14.033 352.892 20.646 352.891 20.646 C 352.892 20.644 359.999 0.744 360.000 0.742 Z"/>
<path fill="#00ff00" fill-rule="evenodd" stroke="none" d="M 257.300 149.318 C 257.302 149.317 277.167 142.109 277.169 142.109 C 277.168 142.109 270.591 149.250 270.591 149.251 C 270.591 149.252 277.240 156.326 277.241 156.326 C 277.239 156.326 257.302 149.319 257.300 149.318 Z"/>
<path fill="#ffff00" fill-rule="evenodd" stroke="none" d="M 206.848 411.470 C 206.849 411.468 215.669 392.265 215.670 392.263 C 215.670 392.264 216.134 401.961 216.134 401.962 C 216.135 401.962 225.840 402.197 225.841 402.197 C 225.839 402.198 206.850 411.469 206.848 411.470 Z"/>
<path fill="#ffff00" fill-rule="evenodd" stroke="none" d="M 515.833 411.234 C 515.832 411.232 506.629 392.210 506.628 392.208 C 506.628 392.209 506.358 401.913 506.358 401.914 C 506.357 401.914 496.659 402.344 496.658 402.344 C 496.660 402.345 515.831 411.233 515.833 411.234 Z"/>
<path fill="#00ff00" fill-rule="evenodd" stroke="none" d="M 462.953 149.318 C 462.951 149.317 443.087 142.109 443.085 142.109 C 443.085 142.109 449.662 149.250 449.663 149.251 C 449.662 149.252 443.013 156.326 443.013 156.326 C 443.015 156.326 462.951 149.319 462.953 149.318 Z"/>
<path fill="#00ffff" fill-rule="evenodd" stroke="none" d="M 411.644 23.966 C 411.643 23.968 404.589 43.888 404.588 43.890 C 404.588 43.889 403.252 34.273 403.252 34.272 C 403.251 34.272 393.564 34.912 393.563 34.912 C 393.565 34.911 411.642 23.967 411.644 23.966 Z"/>
<path fill="#00ffff" fill-rule="evenodd" stroke="none" d="M 308.466 24.626 C 308.467 24.628 316.834 44.033 316.835 44.035 C 316.835 44.034 317.526 34.351 317.526 34.350 C 317.527 34.350 327.235 34.342 327.236 34.342 C 327.234 34.341 308.468 24.627 308.466 24.626 Z"/>
<path fill="#be0027" fill-rule="evenodd" stroke="none" d="M 360.000 617.948 C 360.001 617.944 372.237 583.685 372.238 583.682 C 372.237 583.683 360.001 595.067 360.000 595.068 C 359.999 595.067 347.764 583.683 347.762 583.682 C 347.764 583.685 359.999 617.944 360.000 617.948 Z"/>
</g>
</g>
</svg>
