<?xml version="1.0" encoding="utf-8"?>
<!-- Generator: Moho 12.5 build 22414 -->
<!DOCTYPE svg PUBLIC "-//W3C//DTD SVG 1.1//EN" "http://www.w3.org/Graphics/SVG/1.1/DTD/svg11.dtd">
<svg version="1.1" id="Frame_0" xmlns="http://www.w3.org/2000/svg" xmlns:xlink="http://www.w3.org/1999/xlink" width="720px" height="720px">
<g id="man">
<g id="man">
<path fill="#000000" fill-rule="evenodd" stroke="none" d="M 359.703 104.740 C 365.656 104.641 371.821 102.110 377.201 104.450 C 381.490 106.316 383.381 111.427 386.964 114.683 C 391.227 118.557 398.540 119.878 400.967 125.551 C 403.470 131.402 398.643 138.301 398.643 145.443 C 398.643 152.585 403.470 159.484 400.967 165.335 C 398.540 171.009 390.889 171.988 386.964 176.203 C 382.754 180.725 382.392 188.841 376.903 191.191 C 371.615 193.456 365.839 188.227 360.000 188.227 C 354.161 188.227 348.385 193.456 343.097 191.191 C 337.608 188.841 337.247 180.725 333.036 176.203 C 329.111 171.988 321.460 171.009 319.033 165.335 C 316.530 159.484 321.357 152.585 321.357 145.443 C 321.357 138.301 316.530 131.403 319.033 125.551 C 321.460 119.878 328.883 118.674 333.036 114.683 C 336.172 111.670 337.548 106.911 341.314 105.044 C 346.837 102.306 353.446 104.843 359.703 104.740 Z"/>
<path fill="#ffffff" fill-rule="evenodd" stroke="none" d="M 344.965 428.138 C 342.615 447.707 357.913 444.498 357.915 447.307 C 357.959 523.260 346.744 526.686 347.304 537.727 C 347.543 542.441 354.288 566.027 354.758 575.874 C 357.795 639.489 338.014 643.579 344.611 660.642 C 351.931 679.576 342.996 681.060 345.783 686.874 C 348.584 692.718 354.471 703.240 342.700 703.728 C 321.392 704.612 336.929 691.034 334.209 690.903 C 331.359 690.765 334.019 702.398 329.384 703.019 C 319.143 704.393 328.546 691.636 327.540 691.738 C 326.112 691.881 327.637 703.348 323.685 703.425 C 314.497 703.606 323.314 692.352 322.112 692.814 C 320.322 693.502 321.598 702.236 317.966 702.677 C 307.990 703.890 318.042 692.560 316.704 692.938 C 313.651 693.800 316.896 702.374 310.470 702.832 C 303.327 703.341 308.660 695.034 314.313 689.871 C 315.740 688.568 315.891 686.250 318.380 681.477 C 321.656 675.194 322.947 665.331 323.127 663.025 C 323.879 653.410 315.696 629.935 311.644 584.435 C 309.931 565.198 317.022 557.225 314.186 537.335 C 308.958 500.666 295.136 486.345 297.873 417.779 C 299.231 383.779 314.814 359.565 315.408 351.229 C 315.886 344.519 310.316 304.028 309.471 296.144 C 308.583 287.852 309.894 266.081 309.720 268.430 C 305.599 324.082 298.822 328.051 299.028 337.116 C 299.163 343.012 290.811 363.801 283.901 376.755 C 277.444 388.858 261.407 403.829 261.064 409.162 C 260.880 412.026 257.377 430.375 256.431 432.773 C 255.453 435.252 245.845 455.246 243.248 453.864 C 241.117 452.731 248.122 434.321 247.339 433.864 C 246.319 433.268 238.257 458.823 235.364 457.595 C 232.575 456.411 242.678 433.155 242.032 432.858 C 241.355 432.548 231.333 457.438 228.502 456.010 C 225.737 454.615 238.250 431.766 237.535 431.429 C 236.847 431.104 224.337 455.204 223.464 452.353 C 221.361 445.495 237.714 422.389 235.078 422.115 C 231.110 421.702 227.649 432.397 224.485 434.511 C 222.463 435.861 220.273 434.809 220.813 433.691 C 233.440 407.531 238.773 412.246 243.082 404.100 C 248.613 393.643 249.586 364.328 271.203 329.158 C 275.413 322.309 266.728 305.358 274.990 260.490 C 277.865 244.877 270.620 238.394 281.841 221.846 C 293.933 204.014 307.207 207.689 341.667 195.729 C 347.001 193.878 345.527 178.143 345.191 173.752 C 345.046 171.849 336.625 162.873 335.988 161.081 C 334.839 157.850 333.894 135.906 335.443 132.846 C 337.074 129.623 344.702 116.360 359.847 115.834 C 375.062 116.796 382.233 129.640 383.796 132.846 C 385.357 136.051 383.753 158.860 382.432 162.171 C 381.821 163.703 374.620 171.194 374.047 172.856 C 372.613 177.014 372.029 193.794 377.571 195.729 C 412.010 207.752 425.305 204.014 437.397 221.846 C 448.619 238.394 441.393 244.873 444.248 260.490 C 453.107 308.941 443.032 322.864 448.035 329.158 C 470.180 357.022 471.290 394.221 476.754 403.503 C 481.445 411.472 491.476 410.519 498.425 433.691 C 499.342 436.747 495.678 435.202 495.347 435.165 C 493.595 434.970 489.808 422.391 483.863 421.224 C 481.716 420.802 498.099 445.347 495.775 452.353 C 494.836 455.183 482.391 431.104 481.703 431.429 C 480.989 431.766 493.502 454.615 490.737 456.010 C 487.906 457.438 477.883 432.548 477.206 432.858 C 476.560 433.155 486.663 456.411 483.874 457.595 C 480.981 458.823 472.919 433.268 471.899 433.864 C 471.116 434.321 478.121 452.731 475.990 453.864 C 473.393 455.246 463.785 435.252 462.807 432.773 C 461.862 430.375 458.358 412.026 458.174 409.162 C 457.831 403.829 441.795 388.858 435.338 376.755 C 428.427 363.801 420.376 343.011 420.210 337.116 C 419.819 323.274 414.236 320.499 409.518 268.430 C 409.305 266.084 410.655 287.852 409.767 296.144 C 408.922 304.028 403.352 344.519 403.830 351.229 C 404.424 359.565 420.007 383.779 421.365 417.779 C 424.102 486.345 410.280 500.666 405.052 537.335 C 402.216 557.225 409.353 565.202 407.594 584.435 C 403.542 628.740 395.341 653.411 396.111 663.025 C 396.240 664.645 396.924 674.915 399.398 676.000 C 418.694 684.456 420.421 692.263 430.219 693.329 C 435.094 693.860 443.366 702.041 435.543 700.982 C 434.328 700.818 430.913 695.329 428.742 696.032 C 427.768 696.347 438.844 702.554 432.783 702.024 C 428.657 701.663 424.272 694.979 422.316 695.923 C 421.513 696.311 432.769 702.567 425.868 702.448 C 421.880 702.379 416.749 694.780 415.530 695.564 C 414.902 695.967 426.684 704.972 418.392 703.504 C 416.783 703.219 414.649 698.930 414.649 698.930 C 414.648 698.930 408.861 695.428 406.848 695.174 C 405.635 695.022 412.770 698.726 412.771 698.726 C 412.771 698.727 419.531 704.665 412.065 704.442 C 406.419 704.274 405.412 704.671 401.686 703.011 C 398.765 701.709 394.104 702.773 392.938 702.731 C 390.342 702.636 379.814 703.603 373.476 701.926 C 365.283 699.758 370.221 689.937 373.691 684.753 C 376.833 680.057 367.949 678.060 374.627 660.642 C 381.177 643.561 360.846 634.115 364.480 575.874 C 365.094 566.035 371.695 542.441 371.934 537.727 C 372.494 526.686 361.289 524.305 361.323 447.307 C 361.324 444.498 377.760 446.992 374.273 428.138 C 373.684 424.954 379.868 446.052 359.857 445.960 C 340.263 445.870 345.354 424.904 344.965 428.138 Z"/>
<path fill="none" stroke="#000000" stroke-width="2" stroke-linecap="round" stroke-linejoin="round" d="M 306.356 267.262 C 307.788 267.262 310.651 267.262 310.651 267.262 C 310.652 267.263 313.319 274.552 316.096 276.677 C 323.611 282.429 345.089 281.779 345.092 281.780 M 403.977 276.677 C 396.462 282.429 374.984 281.779 374.981 281.780 M 409.421 267.262 C 409.421 267.263 406.753 274.552 403.977 276.677 M 413.716 267.262 C 412.284 267.262 409.422 267.262 409.421 267.262 M 359.857 445.960 C 340.263 445.870 345.354 424.904 344.965 428.138 C 342.615 447.707 357.913 444.498 357.915 447.307 C 357.959 523.260 346.744 526.686 347.304 537.727 C 347.543 542.441 354.288 566.027 354.758 575.874 C 357.795 639.489 338.014 643.579 344.611 660.642 C 351.931 679.576 342.996 681.060 345.783 686.874 C 348.584 692.718 354.471 703.240 342.700 703.728 C 321.392 704.612 336.929 691.034 334.209 690.903 C 331.359 690.765 334.019 702.398 329.384 703.019 C 319.143 704.393 328.546 691.636 327.540 691.738 C 326.112 691.881 327.637 703.348 323.685 703.425 C 314.497 703.606 323.314 692.352 322.112 692.814 C 320.322 693.502 321.598 702.236 317.966 702.677 C 307.990 703.890 318.042 692.560 316.704 692.938 C 313.651 693.800 316.896 702.374 310.470 702.832 C 303.327 703.341 308.660 695.034 314.313 689.871 C 315.740 688.568 315.891 686.250 318.380 681.477 C 321.656 675.194 322.947 665.331 323.127 663.025 C 323.879 653.410 315.696 629.935 311.644 584.435 C 309.931 565.198 317.022 557.225 314.186 537.335 C 308.958 500.666 295.136 486.345 297.873 417.779 C 299.231 383.779 314.814 359.565 315.408 351.229 C 315.886 344.519 310.316 304.028 309.471 296.144 C 308.583 287.852 309.894 266.081 309.720 268.430 C 305.599 324.082 298.822 328.051 299.028 337.116 C 299.163 343.012 290.811 363.801 283.901 376.755 C 277.444 388.858 261.407 403.829 261.064 409.162 C 260.880 412.026 257.377 430.375 256.431 432.773 C 255.453 435.252 245.845 455.246 243.248 453.864 C 241.117 452.731 248.122 434.321 247.339 433.864 C 246.319 433.268 238.257 458.823 235.364 457.595 C 232.575 456.411 242.678 433.155 242.032 432.858 C 241.355 432.548 231.333 457.438 228.502 456.010 C 225.737 454.615 238.250 431.766 237.535 431.429 C 236.847 431.104 224.337 455.204 223.464 452.353 C 221.361 445.495 237.714 422.389 235.078 422.115 C 231.110 421.702 227.649 432.397 224.485 434.511 C 222.463 435.861 220.273 434.809 220.813 433.691 C 233.440 407.531 238.773 412.246 243.082 404.100 C 248.613 393.643 249.586 364.328 271.203 329.158 C 275.413 322.309 266.728 305.358 274.990 260.490 C 277.865 244.877 270.620 238.394 281.841 221.846 C 293.933 204.014 307.207 207.689 341.667 195.729 C 347.001 193.878 345.527 178.143 345.191 173.752 C 345.046 171.849 336.625 162.873 335.988 161.081 C 334.839 157.850 333.894 135.906 335.443 132.846 C 337.074 129.623 344.702 116.360 359.847 115.834 C 375.062 116.796 382.233 129.640 383.796 132.846 C 385.357 136.051 383.753 158.860 382.432 162.171 C 381.821 163.703 374.620 171.194 374.047 172.856 C 372.613 177.014 372.029 193.794 377.571 195.729 C 412.010 207.752 425.305 204.014 437.397 221.846 C 448.619 238.394 441.393 244.873 444.248 260.490 C 453.107 308.941 443.032 322.864 448.035 329.158 C 470.180 357.022 471.290 394.221 476.754 403.503 C 481.445 411.472 491.476 410.519 498.425 433.691 C 499.342 436.747 495.678 435.202 495.347 435.165 C 493.595 434.970 489.808 422.391 483.863 421.224 C 481.716 420.802 498.099 445.347 495.775 452.353 C 494.836 455.183 482.391 431.104 481.703 431.429 C 480.989 431.766 493.502 454.615 490.737 456.010 C 487.906 457.438 477.883 432.548 477.206 432.858 C 476.560 433.155 486.663 456.411 483.874 457.595 C 480.981 458.823 472.919 433.268 471.899 433.864 C 471.116 434.321 478.121 452.731 475.990 453.864 C 473.393 455.246 463.785 435.252 462.807 432.773 C 461.862 430.375 458.358 412.026 458.174 409.162 C 457.831 403.829 441.795 388.858 435.338 376.755 C 428.427 363.801 420.376 343.011 420.210 337.116 C 419.819 323.274 414.236 320.499 409.518 268.430 C 409.305 266.084 410.655 287.852 409.767 296.144 C 408.922 304.028 403.352 344.519 403.830 351.229 C 404.424 359.565 420.007 383.779 421.365 417.779 C 424.102 486.345 410.280 500.666 405.052 537.335 C 402.216 557.225 409.353 565.202 407.594 584.435 C 403.542 628.740 395.341 653.411 396.111 663.025 C 396.240 664.645 396.924 674.915 399.398 676.000 C 418.694 684.456 420.421 692.263 430.219 693.329 C 435.094 693.860 443.366 702.041 435.543 700.982 C 434.328 700.818 430.913 695.329 428.742 696.032 C 427.768 696.347 438.844 702.554 432.783 702.024 C 428.657 701.663 424.272 694.979 422.316 695.923 C 421.513 696.311 432.769 702.567 425.868 702.448 C 421.880 702.379 416.749 694.780 415.530 695.564 C 414.902 695.967 426.684 704.972 418.392 703.504 C 416.783 703.219 414.649 698.930 414.649 698.930 C 414.648 698.930 408.861 695.428 406.848 695.174 C 405.635 695.022 412.770 698.726 412.771 698.726 C 412.771 698.727 419.531 704.665 412.065 704.442 C 406.419 704.274 405.412 704.671 401.686 703.011 C 398.765 701.709 394.104 702.773 392.938 702.731 C 390.342 702.636 379.814 703.603 373.476 701.926 C 365.283 699.758 370.221 689.937 373.691 684.753 C 376.833 680.057 367.949 678.060 374.627 660.642 C 381.177 643.561 360.846 634.115 364.480 575.874 C 365.094 566.035 371.695 542.441 371.934 537.727 C 372.494 526.686 361.289 524.305 361.323 447.307 C 361.324 444.498 377.760 446.992 374.273 428.138 C 373.684 424.954 379.868 446.052 359.857 445.960 "/>
<path fill="#ffffff" fill-rule="evenodd" stroke="#000000" stroke-width="2" stroke-linecap="round" stroke-linejoin="round" d="M 360.000 364.699 C 360.539 364.699 360.824 365.542 360.824 367.469 C 360.824 369.396 360.539 370.239 360.000 370.239 C 359.461 370.239 359.176 369.396 359.176 367.469 C 359.176 365.542 359.461 364.699 360.000 364.699 Z"/>
<path fill="none" stroke="#000000" stroke-width="2" stroke-linecap="round" stroke-linejoin="round" d="M 353.403 417.293 C 353.403 417.295 351.550 436.423 359.735 437.081 C 367.840 437.733 366.066 417.031 366.067 417.029 "/>
</g>
<g id="specs_2">
<path fill="#ff00ff" fill-rule="evenodd" stroke="none" d="M 253.854 212.973 C 253.875 212.973 466.125 212.973 466.146 212.973 C 466.146 212.952 466.146 0.703 466.146 0.681 C 466.125 0.681 253.875 0.681 253.854 0.681 C 253.854 0.703 253.854 212.952 253.854 212.973 Z"/>
<path fill="#ff0000" fill-rule="evenodd" stroke="none" d="M 360.000 685.813 C 360.001 685.816 370.583 715.445 370.584 715.448 C 370.583 715.447 360.001 705.601 360.000 705.600 C 359.999 705.601 349.417 715.447 349.416 715.448 C 349.417 715.445 359.999 685.816 360.000 685.813 Z"/>
<path fill="#0000ff" fill-rule="evenodd" stroke="none" d="M 360.000 96.187 C 360.001 96.189 366.147 113.400 366.148 113.402 C 366.147 113.401 360.001 107.682 360.000 107.681 C 359.999 107.682 353.853 113.401 353.852 113.402 C 353.853 113.400 359.999 96.189 360.000 96.187 Z"/>
<path fill="#00ff00" fill-rule="evenodd" stroke="none" d="M 271.180 224.684 C 271.181 224.684 288.361 218.450 288.363 218.449 C 288.362 218.450 282.674 224.626 282.674 224.626 C 282.674 224.627 288.424 230.745 288.425 230.745 C 288.423 230.745 271.181 224.685 271.180 224.684 Z"/>
<path fill="#ffff00" fill-rule="evenodd" stroke="none" d="M 227.546 451.408 C 227.546 451.406 235.175 434.798 235.175 434.796 C 235.175 434.797 235.577 443.184 235.577 443.184 C 235.578 443.185 243.971 443.388 243.972 443.388 C 243.970 443.389 227.547 451.407 227.546 451.408 Z"/>
<path fill="#ffff00" fill-rule="evenodd" stroke="none" d="M 494.773 451.204 C 494.773 451.202 486.813 434.751 486.812 434.749 C 486.812 434.750 486.579 443.143 486.579 443.144 C 486.578 443.144 478.190 443.516 478.190 443.516 C 478.191 443.516 494.772 451.203 494.773 451.204 Z"/>
<path fill="#00ff00" fill-rule="evenodd" stroke="none" d="M 449.040 224.684 C 449.038 224.684 431.858 218.450 431.856 218.449 C 431.857 218.450 437.545 224.626 437.545 224.626 C 437.545 224.627 431.795 230.745 431.794 230.745 C 431.796 230.745 449.038 224.685 449.040 224.684 Z"/>
<path fill="#00ffff" fill-rule="evenodd" stroke="none" d="M 404.665 116.273 C 404.664 116.274 398.563 133.502 398.562 133.504 C 398.562 133.503 397.407 125.187 397.407 125.186 C 397.406 125.186 389.028 125.739 389.028 125.739 C 389.029 125.738 404.663 116.274 404.665 116.273 Z"/>
<path fill="#00ffff" fill-rule="evenodd" stroke="none" d="M 315.430 116.844 C 315.431 116.845 322.667 133.628 322.668 133.630 C 322.668 133.629 323.266 125.254 323.266 125.253 C 323.267 125.253 331.663 125.247 331.664 125.247 C 331.662 125.246 315.432 116.845 315.430 116.844 Z"/>
<path fill="#be0027" fill-rule="evenodd" stroke="none" d="M 360.000 629.982 C 360.001 629.979 370.583 600.349 370.584 600.346 C 370.583 600.347 360.001 610.193 360.000 610.194 C 359.999 610.193 349.417 600.347 349.416 600.346 C 349.417 600.349 359.999 629.979 360.000 629.982 Z"/>
</g>
</g>
</svg>
