<?xml version="1.0" encoding="utf-8"?>
<!-- Generator: Moho 12.5 build 22414 -->
<!DOCTYPE svg PUBLIC "-//W3C//DTD SVG 1.1//EN" "http://www.w3.org/Graphics/SVG/1.1/DTD/svg11.dtd">
<svg version="1.1" id="Frame_0" xmlns="http://www.w3.org/2000/svg" xmlns:xlink="http://www.w3.org/1999/xlink" width="720px" height="720px">
<g id="man">
<g id="man_2">
<path fill="#ffffff" fill-rule="evenodd" stroke="none" d="M 343.791 398.248 C 341.258 419.345 357.739 415.885 357.752 418.914 C 358.135 505.247 345.633 509.215 346.312 521.763 C 346.587 526.844 353.842 552.273 354.349 562.889 C 357.623 631.471 336.297 635.880 343.409 654.276 C 351.301 674.688 341.668 676.287 344.673 682.555 C 347.693 688.856 354.039 700.200 341.349 700.726 C 318.377 701.678 335.128 687.040 332.196 686.899 C 329.122 686.750 331.990 699.291 326.993 699.962 C 315.952 701.443 326.090 687.690 325.006 687.799 C 323.465 687.954 325.110 700.316 320.849 700.399 C 310.944 700.594 320.450 688.461 319.154 688.959 C 317.224 689.701 318.600 699.117 314.684 699.593 C 303.929 700.900 314.766 688.685 313.323 689.093 C 310.032 690.022 313.530 699.266 306.603 699.760 C 298.902 700.308 304.651 691.353 310.746 685.786 C 312.284 684.382 312.447 681.883 315.130 676.737 C 318.662 669.963 320.054 659.331 320.248 656.844 C 321.059 646.478 312.237 621.170 307.868 572.118 C 306.021 551.379 313.666 542.783 310.609 521.341 C 304.973 481.808 290.071 466.369 293.023 392.449 C 294.486 355.795 311.286 329.690 311.926 320.703 C 312.442 313.469 306.436 269.817 305.526 261.316 C 304.568 252.377 305.982 228.907 305.794 231.439 C 301.351 291.437 294.045 295.716 294.268 305.488 C 294.413 311.844 285.408 334.257 277.959 348.222 C 270.997 361.271 253.708 377.410 253.339 383.159 C 253.141 386.247 249.364 406.029 248.344 408.614 C 247.290 411.287 236.932 432.841 234.132 431.352 C 231.834 430.130 239.387 410.283 238.542 409.790 C 237.442 409.148 228.751 436.698 225.632 435.374 C 222.625 434.098 233.518 409.026 232.821 408.706 C 232.091 408.371 221.286 435.205 218.234 433.665 C 215.253 432.161 228.743 407.528 227.973 407.165 C 227.232 406.815 213.745 432.797 212.803 429.723 C 210.536 422.329 228.166 397.420 225.324 397.124 C 221.047 396.679 217.315 408.209 213.903 410.488 C 211.724 411.944 209.363 410.809 209.945 409.604 C 223.559 381.402 229.307 386.484 233.953 377.702 C 239.916 366.428 240.965 334.825 264.270 296.909 C 268.809 289.525 259.445 271.250 268.352 222.879 C 271.452 206.047 263.641 199.058 275.738 181.217 C 288.774 161.993 303.085 165.956 340.235 153.061 C 345.986 151.066 372.968 150.975 378.943 153.061 C 416.070 166.023 430.404 161.993 443.440 181.217 C 455.538 199.058 447.748 206.043 450.826 222.879 C 460.377 275.113 449.516 290.123 454.909 296.909 C 478.783 326.949 479.979 367.052 485.870 377.058 C 490.928 385.650 501.742 384.623 509.234 409.604 C 510.222 412.899 506.272 411.233 505.915 411.193 C 504.026 410.982 499.943 397.422 493.534 396.163 C 491.220 395.708 508.882 422.170 506.376 429.723 C 505.364 432.774 491.947 406.815 491.206 407.165 C 490.436 407.528 503.926 432.161 500.945 433.665 C 497.893 435.205 487.088 408.371 486.358 408.706 C 485.661 409.026 496.553 434.098 493.547 435.374 C 490.427 436.698 481.736 409.148 480.637 409.790 C 479.792 410.283 487.344 430.130 485.046 431.352 C 482.247 432.841 471.888 411.287 470.835 408.614 C 469.815 406.029 466.038 386.247 465.840 383.159 C 465.470 377.410 448.181 361.271 441.220 348.222 C 433.770 334.257 425.090 311.843 424.911 305.488 C 424.490 290.565 418.471 287.574 413.384 231.439 C 413.155 228.910 414.610 252.377 413.653 261.316 C 412.742 269.817 406.737 313.469 407.252 320.703 C 407.893 329.690 424.693 355.795 426.156 392.449 C 429.108 466.369 414.206 481.808 408.569 521.341 C 405.512 542.783 413.207 551.383 411.310 572.118 C 406.942 619.883 398.101 646.480 398.930 656.844 C 399.070 658.591 399.807 669.663 402.474 670.832 C 423.276 679.949 425.138 688.365 435.702 689.515 C 440.958 690.087 449.876 698.907 441.442 697.766 C 440.131 697.588 436.450 691.671 434.109 692.429 C 433.060 692.769 445.000 699.460 438.466 698.889 C 434.017 698.500 429.291 691.294 427.182 692.311 C 426.316 692.729 438.451 699.474 431.012 699.345 C 426.711 699.271 421.180 691.079 419.866 691.924 C 419.189 692.359 431.891 702.066 422.951 700.484 C 421.217 700.177 418.917 695.553 418.916 695.553 C 418.915 695.552 412.676 691.777 410.506 691.504 C 409.199 691.340 416.890 695.333 416.891 695.333 C 416.891 695.334 424.179 701.736 416.131 701.496 C 410.043 701.314 408.958 701.742 404.941 699.952 C 401.791 698.549 396.767 699.696 395.509 699.650 C 392.711 699.549 381.361 700.591 374.528 698.783 C 365.695 696.445 371.019 685.858 374.760 680.269 C 378.148 675.207 368.570 673.053 375.770 654.276 C 382.831 635.861 360.912 625.677 364.830 562.889 C 365.492 552.281 372.591 526.844 372.866 521.763 C 373.545 509.215 361.050 506.435 361.426 418.914 C 361.439 415.885 379.146 418.574 375.387 398.248 C 374.752 394.816 381.420 417.561 359.846 417.462 C 338.722 417.364 344.210 394.762 343.791 398.248 Z"/>
<path fill="none" stroke="#000000" stroke-width="2" stroke-linecap="round" stroke-linejoin="round" d="M 302.168 230.179 C 303.711 230.179 306.797 230.179 306.798 230.179 C 306.798 230.180 309.675 238.039 312.667 240.330 C 320.769 246.531 343.924 245.830 343.927 245.831 M 407.411 240.330 C 399.309 246.531 376.154 245.830 376.151 245.831 M 413.280 230.179 C 413.280 230.180 410.404 238.039 407.411 240.330 M 417.910 230.179 C 416.367 230.179 413.281 230.179 413.280 230.179 M 359.846 417.462 C 338.722 417.364 344.210 394.762 343.791 398.248 C 341.258 419.345 357.739 415.885 357.752 418.914 C 358.135 505.247 345.633 509.215 346.312 521.763 C 346.587 526.844 353.842 552.273 354.349 562.889 C 357.623 631.471 336.297 635.880 343.409 654.276 C 351.301 674.688 341.668 676.287 344.673 682.555 C 347.693 688.856 354.039 700.200 341.349 700.726 C 318.377 701.678 335.128 687.040 332.196 686.899 C 329.122 686.750 331.990 699.291 326.993 699.962 C 315.952 701.443 326.090 687.690 325.006 687.799 C 323.465 687.954 325.110 700.316 320.849 700.399 C 310.944 700.594 320.450 688.461 319.154 688.959 C 317.224 689.701 318.600 699.117 314.684 699.593 C 303.929 700.900 314.766 688.685 313.323 689.093 C 310.032 690.022 313.530 699.266 306.603 699.760 C 298.902 700.308 304.651 691.353 310.746 685.786 C 312.284 684.382 312.447 681.883 315.130 676.737 C 318.662 669.963 320.054 659.331 320.248 656.844 C 321.059 646.478 312.237 621.170 307.868 572.118 C 306.021 551.379 313.666 542.783 310.609 521.341 C 304.973 481.808 290.071 466.369 293.023 392.449 C 294.486 355.795 311.286 329.690 311.926 320.703 C 312.442 313.469 306.436 269.817 305.526 261.316 C 304.568 252.377 305.982 228.907 305.794 231.439 C 301.351 291.437 294.045 295.716 294.268 305.488 C 294.413 311.844 285.408 334.257 277.959 348.222 C 270.997 361.271 253.708 377.410 253.339 383.159 C 253.141 386.247 249.364 406.029 248.344 408.614 C 247.290 411.287 236.932 432.841 234.132 431.352 C 231.834 430.130 239.387 410.283 238.542 409.790 C 237.442 409.148 228.751 436.698 225.632 435.374 C 222.625 434.098 233.518 409.026 232.821 408.706 C 232.091 408.371 221.286 435.205 218.234 433.665 C 215.253 432.161 228.743 407.528 227.973 407.165 C 227.232 406.815 213.745 432.797 212.803 429.723 C 210.536 422.329 228.166 397.420 225.324 397.124 C 221.047 396.679 217.315 408.209 213.903 410.488 C 211.724 411.944 209.363 410.809 209.945 409.604 C 223.559 381.402 229.307 386.484 233.953 377.702 C 239.916 366.428 240.965 334.825 264.270 296.909 C 268.809 289.525 259.445 271.250 268.352 222.879 C 271.452 206.047 263.641 199.058 275.738 181.217 C 288.774 161.993 303.085 165.956 340.235 153.061 C 345.986 151.066 372.968 150.975 378.943 153.061 C 416.070 166.023 430.404 161.993 443.440 181.217 C 455.538 199.058 447.748 206.043 450.826 222.879 C 460.377 275.113 449.516 290.123 454.909 296.909 C 478.783 326.949 479.979 367.052 485.870 377.058 C 490.928 385.650 501.742 384.623 509.234 409.604 C 510.222 412.899 506.272 411.233 505.915 411.193 C 504.026 410.982 499.943 397.422 493.534 396.163 C 491.220 395.708 508.882 422.170 506.376 429.723 C 505.364 432.774 491.947 406.815 491.206 407.165 C 490.436 407.528 503.926 432.161 500.945 433.665 C 497.893 435.205 487.088 408.371 486.358 408.706 C 485.661 409.026 496.553 434.098 493.547 435.374 C 490.427 436.698 481.736 409.148 480.637 409.790 C 479.792 410.283 487.344 430.130 485.046 431.352 C 482.247 432.841 471.888 411.287 470.835 408.614 C 469.815 406.029 466.038 386.247 465.840 383.159 C 465.470 377.410 448.181 361.271 441.220 348.222 C 433.770 334.257 425.090 311.843 424.911 305.488 C 424.490 290.565 418.471 287.574 413.384 231.439 C 413.155 228.910 414.610 252.377 413.653 261.316 C 412.742 269.817 406.737 313.469 407.252 320.703 C 407.893 329.690 424.693 355.795 426.156 392.449 C 429.108 466.369 414.206 481.808 408.569 521.341 C 405.512 542.783 413.207 551.383 411.310 572.118 C 406.942 619.883 398.101 646.480 398.930 656.844 C 399.070 658.591 399.807 669.663 402.474 670.832 C 423.276 679.949 425.138 688.365 435.702 689.515 C 440.958 690.087 449.876 698.907 441.442 697.766 C 440.131 697.588 436.450 691.671 434.109 692.429 C 433.060 692.769 445.000 699.460 438.466 698.889 C 434.017 698.500 429.291 691.294 427.182 692.311 C 426.316 692.729 438.451 699.474 431.012 699.345 C 426.711 699.271 421.180 691.079 419.866 691.924 C 419.189 692.359 431.891 702.066 422.951 700.484 C 421.217 700.177 418.917 695.553 418.916 695.553 C 418.915 695.552 412.676 691.777 410.506 691.504 C 409.199 691.340 416.890 695.333 416.891 695.333 C 416.891 695.334 424.179 701.736 416.131 701.496 C 410.043 701.314 408.958 701.742 404.941 699.952 C 401.791 698.549 396.767 699.696 395.509 699.650 C 392.711 699.549 381.361 700.591 374.528 698.783 C 365.695 696.445 371.019 685.858 374.760 680.269 C 378.148 675.207 368.570 673.053 375.770 654.276 C 382.831 635.861 360.912 625.677 364.830 562.889 C 365.492 552.281 372.591 526.844 372.866 521.763 C 373.545 509.215 361.050 506.435 361.426 418.914 C 361.439 415.885 379.146 418.574 375.387 398.248 C 374.752 394.816 381.420 417.561 359.846 417.462 "/>
<path fill="#ffffff" fill-rule="evenodd" stroke="#000000" stroke-width="2" stroke-linecap="round" stroke-linejoin="round" d="M 360.000 335.225 C 360.581 335.225 360.889 336.134 360.889 338.211 C 360.889 340.288 360.581 341.198 360.000 341.198 C 359.419 341.198 359.111 340.288 359.111 338.211 C 359.111 336.134 359.419 335.225 360.000 335.225 Z"/>
<path fill="none" stroke="#000000" stroke-width="2" stroke-linecap="round" stroke-linejoin="round" d="M 352.887 392.346 C 352.888 392.348 350.891 412.969 359.714 413.679 C 368.452 414.381 366.540 392.064 366.540 392.061 "/>
</g>
<g id="specs_2">
<path fill="#ff00ff" fill-rule="evenodd" stroke="none" d="M 279.763 181.081 C 279.779 181.081 440.221 181.081 440.237 181.081 C 440.237 181.065 440.237 20.623 440.237 20.607 C 440.221 20.607 279.779 20.607 279.763 20.607 C 279.763 20.623 279.763 181.065 279.763 181.081 Z"/>
<path fill="#ff0000" fill-rule="evenodd" stroke="none" d="M 360.000 681.411 C 360.001 681.415 371.409 713.358 371.410 713.361 C 371.409 713.360 360.001 702.745 360.000 702.744 C 359.999 702.745 348.591 713.360 348.590 713.361 C 348.591 713.358 359.999 681.415 360.000 681.411 Z"/>
<path fill="#0000ff" fill-rule="evenodd" stroke="none" d="M 360.000 45.747 C 360.001 45.749 366.627 64.304 366.628 64.306 C 366.627 64.305 360.001 58.140 360.000 58.139 C 359.999 58.140 353.373 64.305 353.372 64.306 C 353.373 64.304 359.999 45.749 360.000 45.747 Z"/>
<path fill="#00ff00" fill-rule="evenodd" stroke="none" d="M 264.244 184.277 C 264.246 184.277 282.768 177.556 282.769 177.555 C 282.769 177.556 276.637 184.214 276.636 184.215 C 276.637 184.215 282.836 190.811 282.836 190.812 C 282.834 190.811 264.246 184.278 264.244 184.277 Z"/>
<path fill="#ffff00" fill-rule="evenodd" stroke="none" d="M 217.204 428.704 C 217.204 428.702 225.428 410.797 225.429 410.795 C 225.429 410.796 225.862 419.838 225.862 419.838 C 225.863 419.838 234.911 420.058 234.912 420.058 C 234.910 420.059 217.205 428.703 217.204 428.704 Z"/>
<path fill="#ffff00" fill-rule="evenodd" stroke="none" d="M 505.297 428.484 C 505.296 428.482 496.715 410.746 496.714 410.744 C 496.714 410.745 496.462 419.794 496.462 419.794 C 496.461 419.794 487.419 420.195 487.418 420.195 C 487.420 420.196 505.295 428.483 505.297 428.484 Z"/>
<path fill="#00ff00" fill-rule="evenodd" stroke="none" d="M 455.992 184.277 C 455.990 184.277 437.469 177.556 437.467 177.555 C 437.467 177.556 443.600 184.214 443.600 184.215 C 443.600 184.215 437.401 190.811 437.400 190.812 C 437.402 190.811 455.990 184.278 455.992 184.277 Z"/>
<path fill="#00ffff" fill-rule="evenodd" stroke="none" d="M 408.152 67.401 C 408.152 67.403 401.574 85.976 401.573 85.977 C 401.573 85.977 400.328 77.011 400.328 77.010 C 400.327 77.010 391.295 77.606 391.294 77.607 C 391.296 77.606 408.151 67.402 408.152 67.401 Z"/>
<path fill="#00ffff" fill-rule="evenodd" stroke="none" d="M 311.950 68.017 C 311.951 68.018 319.752 86.111 319.753 86.113 C 319.753 86.112 320.398 77.083 320.398 77.082 C 320.399 77.082 329.450 77.076 329.451 77.076 C 329.450 77.075 311.952 68.018 311.950 68.017 Z"/>
<path fill="#be0027" fill-rule="evenodd" stroke="none" d="M 360.000 621.221 C 360.001 621.218 371.409 589.275 371.410 589.272 C 371.409 589.273 360.001 599.887 360.000 599.888 C 359.999 599.887 348.591 589.273 348.590 589.272 C 348.591 589.275 359.999 621.218 360.000 621.221 Z"/>
</g>
</g>
</svg>
