<?xml version="1.0" encoding="utf-8"?>
<!-- Generator: Moho 12.5 build 22414 -->
<!DOCTYPE svg PUBLIC "-//W3C//DTD SVG 1.1//EN" "http://www.w3.org/Graphics/SVG/1.1/DTD/svg11.dtd">
<svg version="1.1" id="Frame_0" xmlns="http://www.w3.org/2000/svg" xmlns:xlink="http://www.w3.org/1999/xlink" width="720px" height="720px">
<g id="halves">
<g id="man_top">
<g id="man_top">
<path fill="#000000" fill-rule="evenodd" stroke="#ffffff" stroke-width="2" stroke-linecap="round" stroke-linejoin="round" d="M 359.651 63.496 C 366.636 63.380 373.869 60.410 380.181 63.156 C 385.214 65.346 387.432 71.342 391.636 75.162 C 396.637 79.707 405.216 81.256 408.064 87.912 C 411.001 94.778 405.338 102.872 405.338 111.251 C 405.338 119.630 411.001 127.724 408.064 134.589 C 405.216 141.245 396.241 142.394 391.636 147.340 C 386.695 152.646 386.271 162.167 379.832 164.925 C 373.628 167.582 366.850 161.447 360.000 161.447 C 353.150 161.447 346.373 167.582 340.168 164.925 C 333.729 162.167 333.305 152.646 328.364 147.340 C 323.759 142.394 314.784 141.245 311.936 134.589 C 308.999 127.724 314.662 119.630 314.662 111.251 C 314.662 102.872 308.999 94.778 311.936 87.912 C 314.784 81.256 323.492 79.844 328.364 75.162 C 332.044 71.627 333.659 66.043 338.076 63.853 C 344.557 60.640 352.311 63.617 359.651 63.496 Z"/>
<path fill="#ffffff" fill-rule="evenodd" stroke="#000000" stroke-width="2" stroke-linecap="round" stroke-linejoin="round" d="M 287.596 423.424 C 287.597 423.423 288.096 418.667 288.423 416.360 C 289.077 411.747 289.924 407.327 290.899 403.114 C 292.848 394.688 295.304 387.092 297.733 380.436 C 302.589 367.125 307.541 357.588 307.683 352.688 C 307.910 344.813 296.224 298.272 294.844 289.088 C 293.391 279.413 295.276 253.813 295.166 256.574 C 292.695 318.695 287.877 325.733 288.465 336.130 C 288.857 343.038 278.824 367.438 270.717 382.636 C 263.141 396.836 244.326 414.400 243.924 420.657 C 243.708 424.018 239.598 445.545 238.488 448.359 C 237.341 451.268 226.068 474.725 223.022 473.104 C 220.521 471.774 228.740 450.175 227.821 449.639 C 226.624 448.940 217.166 478.921 213.771 477.481 C 210.499 476.092 222.353 448.807 221.594 448.459 C 220.800 448.094 209.042 477.297 205.720 475.621 C 202.476 473.984 217.157 447.177 216.319 446.782 C 215.512 446.401 200.835 474.676 199.809 471.331 C 197.343 463.284 216.529 436.176 213.436 435.855 C 208.781 435.370 204.720 447.918 201.007 450.398 C 198.636 451.982 196.067 450.747 196.699 449.436 C 211.515 418.744 217.771 424.276 222.826 414.718 C 229.316 402.449 230.457 368.056 255.820 326.793 C 260.759 318.757 250.569 298.870 260.262 246.229 C 263.635 227.911 255.135 220.305 268.300 200.890 C 282.487 179.969 298.061 184.281 338.491 170.248 C 344.748 168.077 343.020 149.616 342.626 144.464 C 342.455 142.232 332.576 131.700 331.828 129.598 C 330.480 125.807 329.371 100.061 331.188 96.472 C 333.102 92.690 342.052 77.129 359.821 76.512 C 377.672 77.640 386.085 92.709 387.918 96.472 C 389.750 100.232 387.868 126.992 386.319 130.877 C 385.602 132.674 377.153 141.463 376.480 143.413 C 374.798 148.291 374.113 167.978 380.615 170.248 C 421.020 184.354 436.619 179.969 450.806 200.890 C 463.971 220.305 455.494 227.907 458.844 246.229 C 469.237 303.073 457.417 319.409 463.286 326.793 C 489.268 359.485 490.570 403.128 496.980 414.017 C 502.485 423.367 514.253 422.250 522.407 449.436 C 523.482 453.022 519.183 451.209 518.795 451.166 C 516.739 450.936 512.296 436.178 505.322 434.809 C 502.803 434.314 522.023 463.111 519.297 471.331 C 518.195 474.652 503.594 446.401 502.787 446.782 C 501.949 447.177 516.630 473.984 513.386 475.621 C 510.064 477.297 498.306 448.094 497.512 448.459 C 496.753 448.807 508.607 476.092 505.335 477.481 C 501.940 478.921 492.482 448.940 491.285 449.639 C 490.366 450.175 498.585 471.774 496.084 473.104 C 493.038 474.725 481.765 451.268 480.618 448.359 C 479.508 445.545 475.398 424.018 475.182 420.657 C 474.780 414.400 455.965 396.836 448.389 382.636 C 440.282 367.438 430.606 343.049 430.641 336.130 C 430.720 320.224 425.645 317.517 423.843 256.574 C 423.762 253.812 425.612 279.412 424.165 289.088 C 422.792 298.270 411.191 344.815 411.423 352.688 C 411.568 357.588 416.517 367.125 421.374 380.436 C 423.802 387.092 426.258 394.688 428.207 403.114 C 429.182 407.327 430.030 411.747 430.683 416.360 C 431.010 418.667 431.510 423.424 431.510 423.424 C 383.539 423.424 287.611 423.424 287.596 423.424 Z"/>
<path fill="none" stroke="#000000" stroke-width="2" stroke-linecap="round" stroke-linejoin="round" d="M 429.257 255.203 C 427.411 255.203 423.720 255.203 423.719 255.203 C 423.719 255.204 420.114 263.792 416.699 266.250 C 406.375 273.682 377.580 272.236 377.576 272.236 M 290.828 255.203 C 292.674 255.203 296.365 255.203 296.366 255.203 C 296.366 255.204 299.975 263.786 303.386 266.250 C 313.252 273.375 340.769 272.236 340.773 272.236 "/>
<path fill="none" stroke="#000000" stroke-width="2" stroke-linecap="round" stroke-linejoin="round" d="M 358.802 372.261 C 358.802 369.757 359.585 368.755 360.150 368.755 C 360.716 368.755 361.499 369.757 361.499 372.261 C 361.499 374.766 360.716 375.768 360.150 375.768 C 359.585 375.768 358.802 374.766 358.802 372.261 "/>
</g>
<g id="specs_2">
<path fill="#ff00ff" fill-rule="evenodd" stroke="none" d="M 303.148 174.589 C 303.159 174.589 417.607 174.589 417.618 174.589 C 417.618 174.578 416.256 58.972 416.256 58.961 C 416.245 58.961 303.159 58.961 303.148 58.961 C 303.148 58.972 303.148 174.578 303.148 174.589 Z"/>
<path fill="#ff0000" fill-rule="evenodd" stroke="none" d="M 359.992 400.011 C 359.993 400.014 372.481 434.979 372.482 434.982 C 372.481 434.981 359.993 423.362 359.992 423.361 C 359.991 423.362 347.504 434.981 347.502 434.982 C 347.504 434.979 359.991 400.014 359.992 400.011 Z"/>
<path fill="#0000ff" fill-rule="evenodd" stroke="none" d="M 359.992 51.346 C 359.993 51.348 367.246 71.658 367.247 71.660 C 367.246 71.660 359.993 64.911 359.992 64.910 C 359.991 64.911 352.738 71.660 352.737 71.660 C 352.738 71.658 359.991 51.348 359.992 51.346 Z"/>
<path fill="#00ff00" fill-rule="evenodd" stroke="none" d="M 255.177 202.982 C 255.179 202.981 275.453 195.625 275.455 195.624 C 275.454 195.625 268.742 202.913 268.741 202.914 C 268.742 202.915 275.527 210.134 275.528 210.135 C 275.526 210.134 255.179 202.983 255.177 202.982 Z"/>
<path fill="#ffff00" fill-rule="evenodd" stroke="none" d="M 203.686 470.533 C 203.687 470.531 212.689 450.933 212.689 450.931 C 212.689 450.932 213.164 460.828 213.164 460.829 C 213.165 460.829 223.069 461.069 223.070 461.069 C 223.068 461.070 203.688 470.532 203.686 470.533 Z"/>
<path fill="#ffff00" fill-rule="evenodd" stroke="none" d="M 519.035 470.293 C 519.034 470.291 509.641 450.877 509.640 450.875 C 509.640 450.876 509.365 460.780 509.365 460.781 C 509.364 460.781 499.466 461.220 499.465 461.220 C 499.467 461.221 519.033 470.292 519.035 470.293 Z"/>
<path fill="#00ff00" fill-rule="evenodd" stroke="none" d="M 465.066 202.982 C 465.064 202.981 444.790 195.625 444.788 195.624 C 444.789 195.625 451.501 202.913 451.502 202.914 C 451.501 202.915 444.716 210.134 444.715 210.135 C 444.717 210.134 465.064 202.983 465.066 202.982 Z"/>
<path fill="#00ffff" fill-rule="evenodd" stroke="none" d="M 412.700 75.049 C 412.699 75.051 405.499 95.380 405.499 95.382 C 405.498 95.382 404.135 85.568 404.135 85.567 C 404.134 85.567 394.248 86.219 394.247 86.219 C 394.249 86.218 412.698 75.050 412.700 75.049 Z"/>
<path fill="#00ffff" fill-rule="evenodd" stroke="none" d="M 307.396 75.722 C 307.397 75.724 315.937 95.529 315.937 95.531 C 315.938 95.530 316.644 85.647 316.644 85.646 C 316.645 85.646 326.552 85.638 326.553 85.638 C 326.551 85.637 307.398 75.723 307.396 75.722 Z"/>
<path fill="#be0027" fill-rule="evenodd" stroke="none" d="M 359.992 446.766 C 359.993 446.762 372.481 411.797 372.482 411.794 C 372.481 411.795 359.993 423.414 359.992 423.415 C 359.991 423.414 347.504 411.795 347.502 411.794 C 347.504 411.797 359.991 446.762 359.992 446.766 Z"/>
<path fill="none" stroke="#ffff00" stroke-width="2" stroke-linecap="round" stroke-linejoin="round" d="M 431.510 423.424 C 383.539 423.424 287.611 423.424 287.596 423.424 "/>
</g>
</g>
</g>
</svg>
