<?xml version="1.0" encoding="utf-8"?>
<!-- Generator: Moho 12.5 build 22414 -->
<!DOCTYPE svg PUBLIC "-//W3C//DTD SVG 1.1//EN" "http://www.w3.org/Graphics/SVG/1.1/DTD/svg11.dtd">
<svg version="1.1" id="Frame_0" xmlns="http://www.w3.org/2000/svg" xmlns:xlink="http://www.w3.org/1999/xlink" width="720px" height="720px">
<g id="halves">
<g id="man_bottom">
<g id="man_bottom">
<path fill="#ffffff" fill-rule="evenodd" stroke="#000000" stroke-width="2" stroke-linecap="round" stroke-linejoin="round" d="M 431.510 362.177 C 431.731 364.579 431.896 367.027 431.996 369.520 C 435.209 449.965 418.990 466.767 412.857 509.789 C 409.530 533.124 417.903 542.484 415.840 565.048 C 411.085 617.030 401.464 645.974 402.367 657.253 C 402.519 659.154 403.321 671.204 406.223 672.476 C 428.862 682.397 430.888 691.556 442.384 692.808 C 448.104 693.431 457.809 703.029 448.631 701.787 C 447.205 701.594 443.198 695.155 440.651 695.979 C 439.509 696.349 452.503 703.631 445.393 703.009 C 440.551 702.586 435.407 694.744 433.112 695.851 C 432.170 696.306 445.376 703.646 437.280 703.506 C 432.600 703.426 426.581 694.510 425.150 695.429 C 424.413 695.903 438.237 706.467 428.508 704.745 C 426.620 704.411 424.117 699.379 424.117 699.379 C 424.116 699.378 417.326 695.270 414.964 694.973 C 413.541 694.794 421.912 699.140 421.913 699.140 C 421.913 699.141 429.845 706.107 421.086 705.846 C 414.461 705.649 413.279 706.114 408.908 704.167 C 405.480 702.640 400.012 703.888 398.644 703.838 C 395.599 703.728 383.246 704.862 375.810 702.894 C 366.198 700.350 371.992 688.828 376.062 682.746 C 379.750 677.237 369.326 674.893 377.162 654.458 C 384.846 634.418 360.992 623.335 365.256 555.005 C 365.976 543.461 373.684 515.777 374.002 510.249 C 374.830 495.837 360.745 492.563 361.552 392.024 C 361.579 388.728 379.053 389.556 376.745 369.535 C 376.310 365.760 380.565 390.269 359.833 390.444 C 338.268 390.626 342.853 365.745 342.361 369.535 C 339.679 390.198 357.527 388.728 357.554 392.024 C 358.363 491.199 344.276 495.837 345.104 510.249 C 345.422 515.777 353.299 543.452 353.850 555.005 C 357.413 629.640 334.205 634.439 341.945 654.458 C 350.533 676.672 340.050 678.413 343.320 685.234 C 346.607 692.090 353.513 704.436 339.703 705.009 C 314.703 706.045 332.932 690.115 329.741 689.961 C 326.397 689.799 329.518 703.448 324.080 704.177 C 312.064 705.789 323.097 690.822 321.917 690.940 C 320.241 691.109 322.030 704.562 317.393 704.653 C 306.614 704.865 316.959 691.661 315.548 692.203 C 313.448 693.011 314.945 703.258 310.684 703.776 C 298.979 705.198 310.773 691.905 309.203 692.348 C 305.621 693.360 309.429 703.420 301.889 703.957 C 293.509 704.554 299.765 694.809 306.399 688.750 C 308.072 687.222 308.249 684.502 311.169 678.902 C 315.013 671.531 316.528 659.960 316.740 657.253 C 317.622 645.973 308.021 618.431 303.267 565.048 C 301.256 542.479 309.576 533.124 306.250 509.789 C 300.116 466.767 283.897 449.965 287.110 369.520 C 287.210 367.027 287.596 362.177 287.596 362.177 C 335.567 362.177 431.495 362.177 431.510 362.177 Z"/>
</g>
<g id="specs_2">
<path fill="#ff0000" fill-rule="evenodd" stroke="none" d="M 360.000 385.585 C 359.999 385.582 347.584 350.819 347.583 350.816 C 347.584 350.817 359.999 362.368 360.000 362.370 C 360.001 362.368 372.416 350.817 372.417 350.816 C 372.416 350.819 360.001 385.582 360.000 385.585 Z"/>
<path fill="#0000ff" fill-rule="evenodd" stroke="none" d="M 360.000 348.536 C 360.001 348.538 367.212 368.731 367.213 368.733 C 367.212 368.732 360.001 362.022 360.000 362.022 C 359.999 362.022 352.788 368.732 352.787 368.733 C 352.788 368.731 359.999 348.538 360.000 348.536 Z"/>
<path fill="#00ff00" fill-rule="evenodd" stroke="none" d="M 273.281 375.937 C 273.283 375.936 293.439 368.622 293.441 368.622 C 293.441 368.622 286.767 375.868 286.767 375.869 C 286.767 375.870 293.513 383.047 293.514 383.048 C 293.512 383.047 273.283 375.938 273.281 375.937 Z"/>
<path fill="#ffff00" fill-rule="evenodd" stroke="none" d="M 308.410 705.977 C 308.411 705.975 317.360 686.490 317.361 686.488 C 317.361 686.489 317.832 696.328 317.832 696.329 C 317.833 696.329 327.681 696.568 327.682 696.568 C 327.680 696.569 308.412 705.976 308.410 705.977 Z"/>
<path fill="#ffff00" fill-rule="evenodd" stroke="none" d="M 437.511 705.738 C 437.510 705.736 428.171 686.434 428.170 686.432 C 428.170 686.433 427.896 696.280 427.896 696.281 C 427.895 696.281 418.055 696.717 418.054 696.717 C 418.056 696.718 437.509 705.737 437.511 705.738 Z"/>
<path fill="#00ff00" fill-rule="evenodd" stroke="none" d="M 446.072 375.937 C 446.070 375.936 425.914 368.622 425.912 368.622 C 425.912 368.622 432.586 375.868 432.586 375.869 C 432.586 375.870 425.840 383.047 425.839 383.048 C 425.841 383.047 446.070 375.938 446.072 375.937 Z"/>
<path fill="#be0027" fill-rule="evenodd" stroke="none" d="M 360.000 618.486 C 360.001 618.482 372.416 583.720 372.417 583.716 C 372.416 583.717 360.001 595.269 360.000 595.270 C 359.999 595.269 347.584 583.717 347.583 583.716 C 347.584 583.720 359.999 618.482 360.000 618.486 Z"/>
<path fill="none" stroke="#ffff00" stroke-width="2" stroke-linecap="round" stroke-linejoin="round" d="M 287.596 362.177 C 335.567 362.177 431.495 362.177 431.510 362.177 "/>
</g>
</g>
</g>
</svg>
