<?xml version="1.0" encoding="utf-8"?>
<!-- Generator: Moho 12.5 build 22414 -->
<!DOCTYPE svg PUBLIC "-//W3C//DTD SVG 1.1//EN" "http://www.w3.org/Graphics/SVG/1.1/DTD/svg11.dtd">
<svg version="1.1" id="Frame_0" xmlns="http://www.w3.org/2000/svg" xmlns:xlink="http://www.w3.org/1999/xlink" width="720px" height="720px">
<g id="man_primitive">
<g id="man_primitive">
<path fill="#ffffff" fill-rule="evenodd" stroke="#000000" stroke-width="4" stroke-linecap="round" stroke-linejoin="round" d="M 352.530 53.697 C 352.530 41.533 362.342 31.720 374.506 31.720 C 386.670 31.720 396.482 41.533 396.482 53.697 C 396.482 65.860 386.670 75.673 374.506 75.673 C 362.342 75.673 352.530 65.860 352.530 53.697 M 242.318 382.629 C 240.840 345.558 234.737 288.238 242.018 254.390 C 244.913 232.625 281.840 178.589 282.176 175.994 C 282.209 176.237 293.709 245.697 295.974 271.242 C 300.400 304.445 306.367 396.353 306.396 396.703 C 307.319 398.011 294.703 516.329 273.694 549.823 C 255.316 583.898 169.957 656.333 166.892 661.137 C 166.916 661.143 241.077 695.395 275.605 693.027 C 284.082 692.446 273.312 680.614 258.132 672.986 C 243.354 665.561 207.800 649.758 207.719 650.681 C 206.835 651.455 281.671 595.442 300.505 565.037 C 322.228 525.870 341.651 409.964 341.111 413.600 C 340.637 413.588 375.440 414.482 381.634 412.695 C 381.871 413.717 448.821 507.349 462.056 545.353 C 475.651 580.111 492.305 686.806 492.925 689.468 C 492.783 689.511 525.267 681.521 588.667 655.673 C 593.049 653.886 580.888 646.191 576.157 646.061 C 550.774 645.363 513.879 658.350 513.407 658.352 C 513.509 659.056 503.334 566.730 490.869 534.394 C 473.813 490.677 405.230 388.331 406.077 389.918 C 406.166 365.873 412.958 297.548 418.035 270.524 C 419.037 249.445 434.661 191.709 434.788 191.144 C 434.332 190.857 442.695 261.174 455.080 286.480 C 472.840 320.158 521.968 349.678 545.464 371.005 C 556.459 379.751 561.351 401.570 574.015 407.025 C 579.072 409.203 588.081 410.409 592.370 406.955 C 598.649 401.898 599.937 387.690 596.497 380.398 C 590.642 367.988 565.600 368.819 555.487 360.145 C 531.729 338.227 496.789 300.306 483.305 271.875 C 466.760 241.186 461.714 136.196 461.413 133.871 C 455.886 127.032 449.227 121.647 443.011 117.939 C 443.207 117.846 383.896 117.275 383.890 117.275 C 383.848 115.416 381.283 104.421 381.168 94.238 C 408.115 86.671 418.954 60.640 410.269 34.136 C 403.946 14.839 359.090 4.202 343.578 27.557 C 322.326 59.556 344.976 83.245 356.550 90.345 C 357.184 101.303 354.536 112.843 354.735 115.532 C 333.152 113.244 301.372 106.263 290.957 108.169 C 284.260 109.395 277.831 111.842 271.548 119.172 C 265.508 126.218 219.410 207.775 210.712 248.065 C 202.087 292.193 229.435 347.614 230.092 383.108 C 230.556 394.885 213.437 411.005 217.321 422.937 C 219.185 428.665 226.397 435.499 232.377 436.221 C 240.491 437.200 252.802 430.085 255.932 422.535 C 260.777 410.851 242.791 394.756 242.318 382.629 Z"/>
</g>
<g id="specs_2">
<path fill="#ff00ff" fill-rule="evenodd" stroke="none" d="M 297.981 263.591 C 297.993 263.591 422.007 263.591 422.020 263.591 C 422.020 263.577 422.020 126.639 422.020 126.625 C 422.007 126.625 297.993 126.625 297.981 126.625 C 297.981 126.639 297.981 263.577 297.981 263.591 Z"/>
<path fill="#ff0000" fill-rule="evenodd" stroke="none" d="M 373.139 676.097 C 373.140 676.100 385.571 710.906 385.572 710.910 C 385.571 710.909 373.140 699.343 373.139 699.342 C 373.138 699.343 360.707 710.909 360.706 710.910 C 360.707 710.906 373.138 676.100 373.139 676.097 Z"/>
<path fill="#0000ff" fill-rule="evenodd" stroke="none" d="M 373.884 0.789 C 373.885 0.791 381.106 21.009 381.106 21.011 C 381.106 21.010 373.885 14.292 373.884 14.291 C 373.884 14.292 366.663 21.010 366.663 21.011 C 366.663 21.009 373.884 0.791 373.884 0.789 Z"/>
<path fill="#00ff00" fill-rule="evenodd" stroke="none" d="M 259.615 111.797 C 259.618 111.797 280.839 115.049 280.841 115.049 C 280.840 115.050 271.498 118.212 271.497 118.212 C 271.497 118.213 273.978 127.759 273.979 127.759 C 273.977 127.758 259.617 111.799 259.615 111.797 Z"/>
<path fill="#ffff00" fill-rule="evenodd" stroke="none" d="M 202.538 685.444 C 202.539 685.442 211.500 665.933 211.501 665.931 C 211.501 665.932 211.973 675.783 211.973 675.784 C 211.974 675.784 221.833 676.023 221.834 676.023 C 221.832 676.024 202.540 685.443 202.538 685.444 Z"/>
<path fill="#ffff00" fill-rule="evenodd" stroke="none" d="M 547.423 685.205 C 547.423 685.203 538.073 665.877 538.072 665.875 C 538.072 665.876 537.797 675.735 537.797 675.736 C 537.796 675.736 527.943 676.173 527.942 676.173 C 527.944 676.174 547.422 685.204 547.423 685.205 Z"/>
<path fill="#00ff00" fill-rule="evenodd" stroke="none" d="M 471.951 130.966 C 471.948 130.966 450.662 128.171 450.660 128.170 C 450.661 128.171 458.751 133.813 458.752 133.814 C 458.751 133.814 453.707 142.289 453.707 142.290 C 453.708 142.289 471.949 130.967 471.951 130.966 Z"/>
<path fill="#00ffff" fill-rule="evenodd" stroke="none" d="M 414.791 19.163 C 414.791 19.165 407.624 39.402 407.623 39.404 C 407.623 39.403 406.266 29.634 406.265 29.633 C 406.264 29.633 396.423 30.283 396.422 30.283 C 396.424 30.282 414.790 19.164 414.791 19.163 Z"/>
<path fill="#00ffff" fill-rule="evenodd" stroke="none" d="M 331.353 19.834 C 331.354 19.836 339.855 39.550 339.856 39.552 C 339.856 39.551 340.558 29.713 340.559 29.712 C 340.560 29.712 350.422 29.705 350.423 29.705 C 350.421 29.704 331.355 19.835 331.353 19.834 Z"/>
<path fill="#be0027" fill-rule="evenodd" stroke="none" d="M 360.000 435.214 C 360.001 435.210 372.432 400.404 372.433 400.401 C 372.432 400.402 360.001 411.968 360.000 411.969 C 359.999 411.968 347.568 400.402 347.567 400.401 C 347.568 400.404 359.999 435.210 360.000 435.214 Z"/>
</g>
</g>
</svg>
