<?xml version="1.0" encoding="utf-8"?>
<!-- Generator: Moho 12.5 build 22414 -->
<!DOCTYPE svg PUBLIC "-//W3C//DTD SVG 1.1//EN" "http://www.w3.org/Graphics/SVG/1.1/DTD/svg11.dtd">
<svg version="1.1" id="Frame_0" xmlns="http://www.w3.org/2000/svg" xmlns:xlink="http://www.w3.org/1999/xlink" width="720px" height="720px">
<g id="halves">
<g id="man_top">
<g id="man_top">
<path fill="#ffffff" fill-rule="evenodd" stroke="#000000" stroke-width="2" stroke-linecap="round" stroke-linejoin="round" d="M 287.596 537.948 C 287.597 537.947 288.096 533.191 288.423 530.885 C 289.077 526.271 289.924 521.851 290.899 517.638 C 292.848 509.213 295.304 501.616 297.733 494.960 C 302.589 481.650 307.541 472.113 307.683 467.212 C 307.910 459.337 296.224 412.796 294.844 403.613 C 293.391 393.937 295.276 368.337 295.166 371.098 C 292.695 433.220 287.877 440.257 288.465 450.654 C 288.857 457.562 278.824 481.963 270.717 497.160 C 263.141 511.361 244.326 528.924 243.924 535.181 C 243.708 538.542 239.598 560.070 238.488 562.883 C 237.341 565.792 226.068 589.249 223.022 587.628 C 220.521 586.298 228.740 564.700 227.821 564.163 C 226.624 563.464 217.166 593.445 213.771 592.005 C 210.499 590.617 222.353 563.331 221.594 562.983 C 220.800 562.619 209.042 591.821 205.720 590.145 C 202.476 588.509 217.157 561.701 216.319 561.306 C 215.512 560.925 200.835 589.200 199.809 585.855 C 197.343 577.809 216.529 550.701 213.436 550.379 C 208.781 549.895 204.720 562.443 201.007 564.923 C 198.636 566.507 196.067 565.271 196.699 563.961 C 211.515 533.268 217.771 538.800 222.826 529.242 C 229.316 516.974 230.457 482.580 255.820 441.318 C 260.759 433.282 250.569 413.394 260.262 360.753 C 263.635 342.435 255.135 334.829 268.300 315.414 C 282.487 294.493 298.061 298.805 338.491 284.773 C 344.748 282.601 374.113 282.502 380.615 284.773 C 421.020 298.879 436.619 294.493 450.806 315.414 C 463.971 334.829 455.494 342.431 458.844 360.753 C 469.237 417.597 457.417 433.933 463.286 441.318 C 489.268 474.009 490.570 517.652 496.980 528.542 C 502.485 537.892 514.253 536.774 522.407 563.961 C 523.482 567.546 519.183 565.733 518.795 565.690 C 516.739 565.460 512.296 550.703 505.322 549.333 C 502.803 548.838 522.023 577.636 519.297 585.855 C 518.195 589.176 503.594 560.925 502.787 561.306 C 501.949 561.701 516.630 588.509 513.386 590.145 C 510.064 591.821 498.306 562.619 497.512 562.983 C 496.753 563.331 508.607 590.617 505.335 592.005 C 501.940 593.445 492.482 563.464 491.285 564.163 C 490.366 564.700 498.585 586.298 496.084 587.628 C 493.038 589.249 481.765 565.792 480.618 562.883 C 479.508 560.070 475.398 538.542 475.182 535.181 C 474.780 528.924 455.965 511.361 448.389 497.160 C 440.282 481.963 430.606 457.573 430.641 450.654 C 430.720 434.749 425.645 432.041 423.843 371.098 C 423.762 368.336 425.612 393.936 424.165 403.613 C 422.792 412.794 411.191 459.340 411.423 467.212 C 411.568 472.113 416.517 481.650 421.374 494.960 C 423.802 501.616 426.258 509.213 428.207 517.638 C 429.182 521.851 430.030 526.271 430.683 530.885 C 431.010 533.191 431.510 537.948 431.510 537.948 C 383.539 537.948 287.611 537.948 287.596 537.948 Z"/>
<path fill="none" stroke="#000000" stroke-width="2" stroke-linecap="round" stroke-linejoin="round" d="M 429.257 369.727 C 427.411 369.727 423.720 369.727 423.719 369.727 C 423.719 369.728 420.114 378.316 416.699 380.774 C 406.375 388.206 377.580 386.760 377.576 386.760 M 290.828 369.727 C 292.674 369.727 296.365 369.727 296.366 369.727 C 296.366 369.728 299.975 378.311 303.386 380.774 C 313.252 387.899 340.769 386.760 340.773 386.760 "/>
<path fill="none" stroke="#000000" stroke-width="2" stroke-linecap="round" stroke-linejoin="round" d="M 358.802 486.786 C 358.802 484.281 359.585 483.279 360.150 483.279 C 360.716 483.279 361.499 484.281 361.499 486.786 C 361.499 489.290 360.716 490.292 360.150 490.292 C 359.585 490.292 358.802 489.290 358.802 486.786 "/>
</g>
<g id="specs_2">
<path fill="#ff00ff" fill-rule="evenodd" stroke="none" d="M 270.128 322.468 C 270.146 322.468 450.620 322.468 450.638 322.468 C 450.638 322.450 448.491 140.149 448.490 140.131 C 448.473 140.131 270.146 140.131 270.128 140.131 C 270.128 140.149 270.128 322.450 270.128 322.468 Z"/>
<path fill="#ff0000" fill-rule="evenodd" stroke="none" d="M 359.992 514.535 C 359.993 514.538 372.481 549.503 372.482 549.507 C 372.481 549.505 359.993 537.887 359.992 537.885 C 359.991 537.887 347.504 549.505 347.502 549.507 C 347.504 549.503 359.991 514.538 359.992 514.535 Z"/>
<path fill="#0000ff" fill-rule="evenodd" stroke="none" d="M 359.992 165.870 C 359.993 165.872 367.246 186.182 367.247 186.184 C 367.246 186.184 359.993 179.435 359.992 179.435 C 359.991 179.435 352.738 186.184 352.737 186.184 C 352.738 186.182 359.991 165.872 359.992 165.870 Z"/>
<path fill="#00ff00" fill-rule="evenodd" stroke="none" d="M 255.177 317.506 C 255.179 317.506 275.453 310.149 275.455 310.149 C 275.454 310.149 268.742 317.437 268.741 317.438 C 268.742 317.439 275.527 324.658 275.528 324.659 C 275.526 324.658 255.179 317.507 255.177 317.506 Z"/>
<path fill="#ffff00" fill-rule="evenodd" stroke="none" d="M 203.686 585.057 C 203.687 585.055 212.689 565.457 212.689 565.455 C 212.689 565.456 213.164 575.353 213.164 575.354 C 213.165 575.354 223.069 575.594 223.070 575.594 C 223.068 575.595 203.688 585.056 203.686 585.057 Z"/>
<path fill="#ffff00" fill-rule="evenodd" stroke="none" d="M 519.035 584.817 C 519.034 584.815 509.641 565.401 509.640 565.399 C 509.640 565.400 509.365 575.304 509.365 575.305 C 509.364 575.305 499.466 575.744 499.465 575.744 C 499.467 575.745 519.033 584.816 519.035 584.817 Z"/>
<path fill="#00ff00" fill-rule="evenodd" stroke="none" d="M 465.066 317.506 C 465.064 317.506 444.790 310.149 444.788 310.149 C 444.789 310.149 451.501 317.437 451.502 317.438 C 451.501 317.439 444.716 324.658 444.715 324.659 C 444.717 324.658 465.064 317.507 465.066 317.506 Z"/>
<path fill="#00ffff" fill-rule="evenodd" stroke="none" d="M 412.700 189.573 C 412.699 189.575 405.499 209.905 405.499 209.907 C 405.498 209.906 404.135 200.092 404.135 200.091 C 404.134 200.091 394.248 200.744 394.247 200.744 C 394.249 200.743 412.698 189.574 412.700 189.573 Z"/>
<path fill="#00ffff" fill-rule="evenodd" stroke="none" d="M 307.396 190.246 C 307.397 190.248 315.937 210.053 315.937 210.055 C 315.938 210.054 316.644 200.171 316.644 200.170 C 316.645 200.170 326.552 200.163 326.553 200.163 C 326.551 200.162 307.398 190.247 307.396 190.246 Z"/>
<path fill="#be0027" fill-rule="evenodd" stroke="none" d="M 359.992 561.290 C 359.993 561.286 372.481 526.321 372.482 526.318 C 372.481 526.319 359.993 537.938 359.992 537.939 C 359.991 537.938 347.504 526.319 347.502 526.318 C 347.504 526.321 359.991 561.286 359.992 561.290 Z"/>
<path fill="none" stroke="#ffff00" stroke-width="2" stroke-linecap="round" stroke-linejoin="round" d="M 431.510 537.948 C 383.539 537.948 287.611 537.948 287.596 537.948 "/>
</g>
</g>
</g>
</svg>
