<?xml version="1.0" encoding="utf-8"?>
<!-- Generator: Moho 12.5 build 22414 -->
<!DOCTYPE svg PUBLIC "-//W3C//DTD SVG 1.1//EN" "http://www.w3.org/Graphics/SVG/1.1/DTD/svg11.dtd">
<svg version="1.1" id="Frame_0" xmlns="http://www.w3.org/2000/svg" xmlns:xlink="http://www.w3.org/1999/xlink" width="720px" height="720px">
<g id="man_stand">
<g id="man_stand">
<path fill="#000000" fill-rule="evenodd" stroke="#000000" stroke-width="4" stroke-linecap="round" stroke-linejoin="round" d="M 353.618 92.181 C 360.892 94.549 372.942 102.741 380.495 101.530 C 385.616 100.709 394.574 95.329 396.272 90.428 C 397.382 87.224 393.156 81.543 393.350 78.158 C 393.581 74.138 398.827 68.155 398.609 64.134 C 398.400 60.276 393.145 55.021 392.182 51.280 C 391.240 47.626 393.524 40.501 391.597 37.256 C 389.547 33.805 382.098 31.863 378.743 29.660 C 375.171 27.315 370.046 21.294 365.888 20.312 C 363.423 19.729 359.033 21.923 356.539 21.480 C 353.564 20.952 349.603 16.602 346.606 16.221 C 341.918 15.626 334.369 20.487 329.661 20.896 C 326.048 21.209 319.460 18.096 316.222 19.728 C 311.576 22.069 310.705 33.153 306.873 36.672 C 305.062 38.335 300.029 38.698 298.693 40.762 C 296.215 44.588 300.525 53.323 299.277 57.707 C 298.621 60.013 294.400 62.914 294.602 65.303 C 295.092 71.075 310.963 79.327 310.963 79.327 C 310.963 79.327 342.229 88.475 353.618 92.181 Z"/>
<path fill="#ffffff" fill-rule="evenodd" stroke="#000000" stroke-width="4" stroke-linecap="round" stroke-linejoin="round" d="M 314.806 40.944 C 314.624 41.051 306.627 50.810 305.342 53.409 C 303.556 57.025 303.099 71.531 303.541 75.604 C 304.211 81.769 308.202 103.420 313.939 107.664 C 316.610 109.640 326.727 109.696 329.536 109.397 C 334.276 108.893 354.440 100.406 354.443 100.405 C 354.440 100.406 329.983 110.455 329.981 110.456 C 329.981 110.457 328.347 125.259 328.347 125.261 C 328.348 125.262 335.056 137.808 335.057 137.809 C 335.056 137.808 327.774 125.736 327.773 125.734 C 327.770 125.735 310.693 131.795 293.326 134.184 C 271.106 137.241 260.573 155.014 262.856 175.940 C 265.615 201.233 255.321 207.335 256.750 261.054 C 256.787 262.446 237.638 292.916 233.944 299.843 C 231.170 305.043 223.375 329.402 219.228 330.250 C 211.776 331.774 202.929 333.502 199.541 336.718 C 192.422 343.475 171.648 363.777 177.401 368.396 C 179.440 370.034 195.103 351.080 196.962 352.026 C 199.719 353.429 178.696 384.017 183.466 387.385 C 186.674 389.650 201.661 362.259 201.663 362.257 C 201.662 362.260 185.730 391.164 189.164 393.608 C 192.562 396.028 211.690 364.150 211.692 364.147 C 211.691 364.150 193.431 393.498 196.095 395.341 C 200.322 398.263 220.355 369.349 220.358 369.346 C 220.356 369.349 202.638 390.708 205.443 392.899 C 209.297 395.909 226.289 373.733 228.497 370.213 C 230.005 367.810 235.355 349.888 235.954 349.426 C 259.632 331.205 282.416 300.372 283.471 298.110 C 284.492 295.922 284.216 214.816 284.216 214.808 C 284.215 214.806 276.177 201.855 275.813 196.047 C 275.245 186.988 286.210 165.723 286.211 165.720 C 286.210 165.723 273.941 188.216 276.021 195.730 C 279.424 208.027 281.620 214.789 285.454 214.243 C 289.140 213.718 294.175 213.520 301.529 210.642 C 308.372 207.964 314.804 202.980 314.806 202.979 C 314.804 202.980 308.364 208.068 301.494 210.856 C 293.852 213.958 284.757 214.837 284.755 214.838 C 284.755 214.846 284.374 297.431 283.563 304.418 C 283.067 308.679 273.130 348.345 272.247 357.881 C 271.091 370.369 273.117 407.882 274.425 429.406 C 277.791 484.792 302.672 538.403 302.675 538.414 C 302.675 538.419 302.734 572.288 310.172 591.607 C 325.392 631.136 329.276 655.460 327.803 658.656 C 326.870 660.679 289.681 680.417 289.677 680.419 C 289.676 680.420 268.603 693.881 273.214 697.749 C 275.708 699.841 288.809 687.352 288.810 687.351 C 288.809 687.352 276.080 698.179 277.546 700.348 C 279.282 702.915 294.949 689.802 294.951 689.801 C 294.949 689.803 280.927 701.206 281.879 702.947 C 283.051 705.095 301.603 691.407 301.605 691.405 C 301.603 691.407 285.550 703.477 287.077 705.547 C 287.936 706.711 297.231 704.318 298.342 703.814 C 299.225 703.414 303.348 698.252 305.348 698.080 C 321.186 696.719 326.679 689.248 339.934 684.751 C 345.370 682.906 364.210 684.987 367.662 677.819 C 371.639 669.558 355.066 660.903 352.931 648.358 C 349.609 628.836 362.066 603.957 358.997 580.771 C 355.304 552.870 342.288 544.445 340.597 533.114 C 338.414 518.476 351.517 471.806 348.599 446.465 C 348.276 443.658 342.525 404.490 342.524 404.485 C 342.522 404.485 327.920 404.390 323.710 399.525 C 318.629 393.652 321.665 376.133 321.665 376.131 C 321.662 376.128 304.847 366.319 293.143 345.951 C 292.602 345.008 301.216 358.705 305.693 363.318 C 310.013 367.771 322.068 375.945 322.069 375.946 C 322.069 375.949 319.143 394.100 323.471 398.807 C 328.419 404.189 344.471 405.671 349.466 402.016 C 355.694 397.458 354.064 369.684 354.064 369.681 C 354.066 369.679 370.510 354.518 373.587 350.533 C 376.764 346.419 388.275 324.523 387.591 326.021 C 373.623 356.640 354.886 366.659 354.876 370.298 C 354.852 378.795 356.438 401.065 344.915 404.062 C 340.593 405.186 350.773 443.285 354.664 459.462 C 358.741 476.409 359.880 494.490 371.994 515.784 C 373.211 517.922 388.456 537.445 388.458 537.447 C 388.456 537.445 374.264 519.069 374.262 519.067 C 374.263 519.073 375.700 554.576 384.125 577.306 C 392.851 600.846 413.413 619.353 417.072 632.761 C 420.137 643.993 409.671 651.797 415.319 660.489 C 417.443 663.757 429.274 673.009 430.482 674.894 C 434.556 681.246 433.914 688.343 437.848 695.149 C 439.699 698.351 444.734 698.166 445.652 700.165 C 451.345 712.573 457.370 709.790 460.377 707.280 C 462.641 705.390 451.253 690.967 451.252 690.965 C 451.253 690.967 462.041 705.824 463.843 703.814 C 465.424 702.051 456.045 684.753 456.044 684.751 C 456.046 684.752 465.355 700.371 467.309 699.482 C 469.391 698.534 462.111 680.421 462.110 680.419 C 462.111 680.420 468.679 693.017 469.908 692.550 C 473.440 691.207 467.055 676.335 464.912 672.085 C 462.963 668.219 446.002 648.623 441.314 635.361 C 439.457 630.106 436.423 588.619 434.382 578.172 C 428.006 545.534 413.757 523.399 412.720 516.651 C 410.801 504.169 424.063 456.987 419.652 396.208 C 418.863 385.340 408.224 336.543 407.852 327.017 C 407.685 322.715 408.373 314.165 408.056 310.959 C 407.439 304.721 401.158 283.270 401.084 280.503 C 400.965 276.068 410.986 227.246 410.987 227.241 C 410.986 227.238 408.645 204.788 408.645 204.786 C 408.642 204.787 398.141 212.562 378.926 210.777 C 372.393 210.171 361.267 202.370 361.265 202.370 C 361.267 202.370 372.867 209.781 379.149 210.440 C 402.614 212.905 409.508 204.089 409.511 204.088 C 409.512 204.086 421.384 183.918 421.385 183.916 C 421.384 183.918 410.814 202.215 410.195 203.182 C 408.166 206.346 412.900 245.122 415.260 256.824 C 418.655 273.666 425.706 282.392 425.707 282.394 C 425.707 282.396 425.878 293.057 426.584 296.016 C 431.922 318.377 436.155 332.853 439.681 340.551 C 443.305 348.461 465.573 380.607 465.576 380.611 C 465.579 380.614 490.497 413.550 495.351 412.958 C 500.178 412.369 485.507 391.878 485.506 391.875 C 485.507 391.878 501.967 413.906 503.615 413.278 C 508.484 411.422 491.572 389.278 491.571 389.276 C 491.573 389.278 507.326 412.797 509.740 411.279 C 514.637 408.202 496.771 384.946 496.770 384.943 C 496.772 384.945 513.301 408.718 514.966 407.472 C 519.988 403.716 502.836 383.213 502.835 383.210 C 502.834 383.209 494.280 372.488 494.279 372.487 C 494.281 372.489 510.847 389.699 513.233 388.225 C 517.317 385.702 500.084 360.688 495.037 358.082 C 489.487 355.216 481.417 354.898 475.026 345.371 C 468.950 336.313 472.036 316.133 466.968 297.952 C 465.158 291.459 454.901 265.393 454.311 263.633 C 449.407 249.003 457.301 218.610 449.103 178.649 C 447.986 173.204 451.916 146.405 430.381 137.808 C 414.060 131.293 388.915 127.581 383.259 123.261 C 381.410 121.849 374.214 111.306 373.727 110.264 C 373.029 108.768 369.602 89.718 368.529 87.735 C 367.703 86.209 357.226 76.576 356.397 74.737 C 355.506 72.758 355.504 57.510 354.664 55.674 C 353.589 53.324 350.809 39.018 337.335 38.344 C 325.646 37.760 315.069 40.788 314.806 40.944 Z"/>
<path fill="#ffffff" fill-rule="evenodd" stroke="none" d="M 329.088 300.456 C 329.267 298.593 330.157 298.041 330.862 298.108 C 331.568 298.176 332.337 298.888 332.158 300.751 C 331.979 302.614 331.089 303.166 330.383 303.098 C 329.677 303.031 328.908 302.319 329.088 300.456 M 391.721 196.107 C 392.726 195.511 393.639 196.087 393.880 196.698 C 394.122 197.310 393.839 198.312 392.708 198.606 C 391.875 198.822 391.430 198.318 391.228 197.878 C 391.003 197.388 390.896 196.597 391.721 196.107 M 288.939 198.396 C 288.939 197.328 289.829 196.884 290.512 196.884 C 291.196 196.884 292.086 197.328 292.086 198.396 C 292.086 199.463 291.195 199.907 290.512 199.907 C 289.829 199.907 288.939 199.463 288.939 198.396 Z"/>
<path fill="none" stroke="#000000" stroke-width="4" stroke-linecap="round" stroke-linejoin="round" d="M 329.088 300.456 C 329.267 298.593 330.157 298.041 330.862 298.108 C 331.568 298.176 332.337 298.888 332.158 300.751 C 331.979 302.614 331.089 303.166 330.383 303.098 C 329.677 303.031 328.908 302.319 329.088 300.456 M 391.721 196.107 C 392.726 195.511 393.639 196.087 393.880 196.698 C 394.122 197.310 393.839 198.312 392.708 198.606 C 391.875 198.822 391.430 198.318 391.228 197.878 C 391.003 197.388 390.896 196.597 391.721 196.107 M 288.939 198.396 C 288.939 197.328 289.829 196.884 290.512 196.884 C 291.196 196.884 292.086 197.328 292.086 198.396 C 292.086 199.463 291.195 199.907 290.512 199.907 C 289.829 199.907 288.939 199.463 288.939 198.396 M 317.390 86.338 C 317.391 86.338 324.012 85.949 327.324 85.754 M 318.559 60.044 C 318.559 60.047 317.390 86.335 317.390 86.338 "/>
<path fill="none" stroke="#000000" stroke-width="4" stroke-linecap="round" stroke-linejoin="round" d="M 329.834 375.050 C 329.835 375.052 326.959 396.951 336.405 396.857 C 346.966 396.753 343.778 373.977 343.778 373.975 "/>
<path fill="#000000" fill-rule="evenodd" stroke="none" d="M 326.004 62.079 C 326.005 62.079 332.516 55.857 337.841 56.539 C 342.749 57.167 347.189 64.134 347.190 64.134 C 347.189 64.135 339.621 68.569 336.088 68.225 C 332.562 67.881 326.005 62.080 326.004 62.079 Z"/>
</g>
<g id="specs_2">
<path fill="#ff00ff" fill-rule="evenodd" stroke="none" d="M 299.417 294.862 C 299.426 294.862 383.039 294.862 383.047 294.862 C 383.047 294.854 383.047 211.241 383.047 211.232 C 383.039 211.232 299.426 211.232 299.417 211.232 C 299.417 211.241 299.417 294.854 299.417 294.862 Z"/>
<path fill="#ff0000" fill-rule="evenodd" stroke="none" d="M 386.217 679.391 C 386.218 679.395 398.649 714.201 398.650 714.204 C 398.649 714.203 386.218 702.637 386.217 702.636 C 386.216 702.637 373.785 714.203 373.784 714.204 C 373.785 714.201 386.216 679.395 386.217 679.391 Z"/>
<path fill="#0000ff" fill-rule="evenodd" stroke="none" d="M 342.125 3.472 C 342.126 3.474 349.346 23.692 349.347 23.694 C 349.346 23.693 342.126 16.975 342.125 16.974 C 342.124 16.975 334.904 23.693 334.903 23.694 C 334.904 23.692 342.124 3.474 342.125 3.472 Z"/>
<path fill="#00ff00" fill-rule="evenodd" stroke="none" d="M 286.239 140.946 C 286.241 140.947 306.429 148.253 306.431 148.254 C 306.430 148.254 296.651 149.544 296.650 149.544 C 296.650 149.545 297.233 159.391 297.233 159.392 C 297.232 159.390 286.240 140.948 286.239 140.946 Z"/>
<path fill="#ffff00" fill-rule="evenodd" stroke="none" d="M 275.667 366.356 C 275.668 366.354 284.629 346.845 284.630 346.843 C 284.630 346.844 285.102 356.695 285.102 356.696 C 285.103 356.696 294.962 356.935 294.963 356.935 C 294.961 356.936 275.669 366.355 275.667 366.356 Z"/>
<path fill="#ffff00" fill-rule="evenodd" stroke="none" d="M 409.907 367.309 C 409.906 367.307 400.556 347.981 400.555 347.979 C 400.555 347.980 400.281 357.839 400.281 357.840 C 400.280 357.840 390.427 358.277 390.426 358.277 C 390.428 358.278 409.905 367.308 409.907 367.309 Z"/>
<path fill="#00ff00" fill-rule="evenodd" stroke="none" d="M 421.998 140.968 C 421.996 140.968 402.016 148.825 402.014 148.826 C 402.015 148.826 411.825 149.847 411.826 149.847 C 411.826 149.848 411.514 159.706 411.514 159.707 C 411.515 159.705 421.997 140.969 421.998 140.968 Z"/>
<path fill="#00ffff" fill-rule="evenodd" stroke="none" d="M 386.858 17.614 C 386.857 17.616 379.690 37.853 379.689 37.855 C 379.689 37.854 378.332 28.085 378.332 28.084 C 378.331 28.084 368.490 28.734 368.489 28.734 C 368.490 28.733 386.856 17.615 386.858 17.614 Z"/>
<path fill="#00ffff" fill-rule="evenodd" stroke="none" d="M 301.078 18.285 C 301.079 18.287 309.580 38.001 309.581 38.003 C 309.581 38.002 310.283 28.164 310.283 28.163 C 310.284 28.163 320.147 28.156 320.148 28.156 C 320.146 28.155 301.080 18.286 301.078 18.285 Z"/>
</g>
</g>
</svg>
