<?xml version="1.0" encoding="utf-8"?>
<!-- Generator: Moho 12.5 build 22414 -->
<!DOCTYPE svg PUBLIC "-//W3C//DTD SVG 1.1//EN" "http://www.w3.org/Graphics/SVG/1.1/DTD/svg11.dtd">
<svg version="1.1" id="Frame_0" xmlns="http://www.w3.org/2000/svg" xmlns:xlink="http://www.w3.org/1999/xlink" width="720px" height="720px">
<g id="halves">
<g id="man_top">
<g id="man_top">
<path fill="#000000" fill-rule="evenodd" stroke="#ffffff" stroke-width="2" stroke-linecap="round" stroke-linejoin="round" d="M 359.651 121.049 C 366.636 120.933 373.869 117.963 380.181 120.709 C 385.214 122.898 387.432 128.895 391.636 132.715 C 396.637 137.259 405.216 138.809 408.064 145.465 C 411.001 152.330 405.338 160.425 405.338 168.804 C 405.338 177.183 411.001 185.277 408.064 192.142 C 405.216 198.798 396.241 199.947 391.636 204.893 C 386.695 210.198 386.271 219.720 379.832 222.478 C 373.628 225.135 366.850 219.000 360.000 219.000 C 353.150 219.000 346.373 225.135 340.168 222.478 C 333.729 219.720 333.305 210.198 328.364 204.893 C 323.759 199.947 314.784 198.798 311.936 192.142 C 308.999 185.277 314.662 177.183 314.662 168.804 C 314.662 160.425 308.999 152.331 311.936 145.465 C 314.784 138.809 323.492 137.397 328.364 132.715 C 332.044 129.179 333.659 123.596 338.076 121.406 C 344.557 118.193 352.311 121.170 359.651 121.049 Z"/>
<path fill="#ffffff" fill-rule="evenodd" stroke="#000000" stroke-width="2" stroke-linecap="round" stroke-linejoin="round" d="M 287.596 480.977 C 287.597 480.976 288.096 476.220 288.423 473.913 C 289.077 469.300 289.924 464.880 290.899 460.667 C 292.848 452.241 295.304 444.645 297.733 437.989 C 302.589 424.678 307.541 415.141 307.683 410.241 C 307.910 402.366 296.224 355.825 294.844 346.641 C 293.391 336.966 295.276 311.365 295.166 314.126 C 292.695 376.248 287.877 383.286 288.465 393.682 C 288.857 400.591 278.824 424.991 270.717 440.189 C 263.141 454.389 244.326 471.953 243.924 478.210 C 243.708 481.570 239.598 503.098 238.488 505.912 C 237.341 508.821 226.068 532.278 223.022 530.657 C 220.521 529.327 228.740 507.728 227.821 507.191 C 226.624 506.493 217.166 536.474 213.771 535.034 C 210.499 533.645 222.353 506.360 221.594 506.012 C 220.800 505.647 209.042 534.849 205.720 533.174 C 202.476 531.537 217.157 504.730 216.319 504.334 C 215.512 503.954 200.835 532.229 199.809 528.884 C 197.343 520.837 216.529 493.729 213.436 493.407 C 208.781 492.923 204.720 505.471 201.007 507.951 C 198.636 509.535 196.067 508.300 196.699 506.989 C 211.515 476.297 217.771 481.829 222.826 472.271 C 229.316 460.002 230.457 425.609 255.820 384.346 C 260.759 376.310 250.569 356.422 260.262 303.782 C 263.635 285.464 255.135 277.858 268.300 258.443 C 282.487 237.522 298.061 241.834 338.491 227.801 C 344.748 225.629 343.020 207.169 342.626 202.017 C 342.455 199.785 332.576 189.253 331.828 187.151 C 330.480 183.360 329.371 157.614 331.188 154.025 C 333.102 150.243 342.052 134.682 359.821 134.065 C 377.672 135.193 386.085 150.262 387.918 154.025 C 389.750 157.785 387.868 184.545 386.319 188.430 C 385.602 190.227 377.153 199.016 376.480 200.965 C 374.798 205.844 374.113 225.531 380.615 227.801 C 421.020 241.907 436.619 237.521 450.806 258.443 C 463.971 277.858 455.494 285.460 458.844 303.782 C 469.237 360.626 457.417 376.962 463.286 384.346 C 489.268 417.037 490.570 460.681 496.980 471.570 C 502.485 480.920 514.253 479.802 522.407 506.989 C 523.482 510.575 519.183 508.762 518.795 508.719 C 516.739 508.489 512.296 493.731 505.322 492.361 C 502.803 491.867 522.023 520.664 519.297 528.884 C 518.195 532.205 503.594 503.954 502.787 504.334 C 501.949 504.730 516.630 531.537 513.386 533.174 C 510.064 534.849 498.306 505.647 497.512 506.012 C 496.753 506.360 508.607 533.645 505.335 535.034 C 501.940 536.474 492.482 506.493 491.285 507.191 C 490.366 507.728 498.585 529.327 496.084 530.657 C 493.038 532.278 481.765 508.821 480.618 505.912 C 479.508 503.098 475.398 481.570 475.182 478.210 C 474.780 471.953 455.965 454.389 448.389 440.189 C 440.282 424.991 430.606 400.602 430.641 393.682 C 430.720 377.777 425.645 375.070 423.843 314.126 C 423.762 311.364 425.612 336.965 424.165 346.641 C 422.792 355.823 411.191 402.368 411.423 410.241 C 411.568 415.141 416.517 424.678 421.374 437.989 C 423.802 444.645 426.258 452.241 428.207 460.667 C 429.182 464.880 430.030 469.300 430.683 473.913 C 431.010 476.220 431.510 480.977 431.510 480.977 C 383.539 480.977 287.611 480.977 287.596 480.977 Z"/>
<path fill="none" stroke="#000000" stroke-width="2" stroke-linecap="round" stroke-linejoin="round" d="M 429.257 312.756 C 427.411 312.756 423.720 312.756 423.719 312.756 C 423.719 312.757 420.114 321.345 416.699 323.802 C 406.375 331.235 377.580 329.788 377.576 329.789 M 290.828 312.756 C 292.674 312.756 296.365 312.756 296.366 312.756 C 296.366 312.757 299.975 321.339 303.386 323.802 C 313.252 330.928 340.769 329.788 340.773 329.789 "/>
<path fill="none" stroke="#000000" stroke-width="2" stroke-linecap="round" stroke-linejoin="round" d="M 358.802 429.814 C 358.802 427.310 359.585 426.308 360.150 426.308 C 360.716 426.308 361.499 427.310 361.499 429.814 C 361.499 432.319 360.716 433.321 360.150 433.321 C 359.585 433.321 358.802 432.319 358.802 429.814 "/>
</g>
<g id="specs_2">
<path fill="#ff00ff" fill-rule="evenodd" stroke="none" d="M 251.447 268.951 C 251.468 268.951 468.532 268.951 468.553 268.951 C 468.553 268.929 465.970 49.670 465.970 49.648 C 465.948 49.648 251.468 49.648 251.447 49.648 C 251.447 49.670 251.447 268.929 251.447 268.951 Z"/>
<path fill="#ff0000" fill-rule="evenodd" stroke="none" d="M 359.992 457.563 C 359.993 457.567 372.481 492.532 372.482 492.535 C 372.481 492.534 359.993 480.915 359.992 480.914 C 359.991 480.915 347.504 492.534 347.502 492.535 C 347.504 492.532 359.991 457.567 359.992 457.563 Z"/>
<path fill="#0000ff" fill-rule="evenodd" stroke="none" d="M 359.992 108.899 C 359.993 108.901 367.246 129.211 367.247 129.213 C 367.246 129.212 359.993 122.464 359.992 122.463 C 359.991 122.464 352.738 129.212 352.737 129.213 C 352.738 129.211 359.991 108.901 359.992 108.899 Z"/>
<path fill="#00ff00" fill-rule="evenodd" stroke="none" d="M 255.177 260.535 C 255.179 260.534 275.453 253.178 275.455 253.177 C 275.454 253.178 268.742 260.466 268.741 260.467 C 268.742 260.467 275.527 267.687 275.528 267.687 C 275.526 267.687 255.179 260.536 255.177 260.535 Z"/>
<path fill="#ffff00" fill-rule="evenodd" stroke="none" d="M 203.686 528.086 C 203.687 528.084 212.689 508.485 212.689 508.484 C 212.689 508.484 213.164 518.381 213.164 518.382 C 213.165 518.382 223.069 518.622 223.070 518.622 C 223.068 518.623 203.688 528.085 203.686 528.086 Z"/>
<path fill="#ffff00" fill-rule="evenodd" stroke="none" d="M 519.035 527.846 C 519.034 527.844 509.641 508.430 509.640 508.428 C 509.640 508.429 509.365 518.333 509.365 518.334 C 509.364 518.334 499.466 518.773 499.465 518.773 C 499.467 518.774 519.033 527.845 519.035 527.846 Z"/>
<path fill="#00ff00" fill-rule="evenodd" stroke="none" d="M 465.066 260.535 C 465.064 260.534 444.790 253.178 444.788 253.177 C 444.789 253.178 451.501 260.466 451.502 260.467 C 451.501 260.467 444.716 267.687 444.715 267.687 C 444.717 267.687 465.064 260.536 465.066 260.535 Z"/>
<path fill="#00ffff" fill-rule="evenodd" stroke="none" d="M 412.700 132.601 C 412.699 132.603 405.499 152.933 405.499 152.935 C 405.498 152.934 404.135 143.120 404.135 143.119 C 404.134 143.120 394.248 143.772 394.247 143.772 C 394.249 143.771 412.698 132.602 412.700 132.601 Z"/>
<path fill="#00ffff" fill-rule="evenodd" stroke="none" d="M 307.396 133.275 C 307.397 133.277 315.937 153.082 315.937 153.084 C 315.938 153.083 316.644 143.200 316.644 143.199 C 316.645 143.199 326.552 143.191 326.553 143.191 C 326.551 143.190 307.398 133.276 307.396 133.275 Z"/>
<path fill="#be0027" fill-rule="evenodd" stroke="none" d="M 359.992 504.318 C 359.993 504.315 372.481 469.350 372.482 469.346 C 372.481 469.348 359.993 480.966 359.992 480.968 C 359.991 480.966 347.504 469.348 347.502 469.346 C 347.504 469.350 359.991 504.315 359.992 504.318 Z"/>
<path fill="none" stroke="#ffff00" stroke-width="2" stroke-linecap="round" stroke-linejoin="round" d="M 431.510 480.977 C 383.539 480.977 287.611 480.977 287.596 480.977 "/>
</g>
</g>
</g>
<g id="combos">
</g>
</svg>
