<?xml version="1.0" encoding="utf-8"?>
<!-- Generator: Moho 12.5 build 22414 -->
<!DOCTYPE svg PUBLIC "-//W3C//DTD SVG 1.1//EN" "http://www.w3.org/Graphics/SVG/1.1/DTD/svg11.dtd">
<svg version="1.1" id="Frame_0" xmlns="http://www.w3.org/2000/svg" xmlns:xlink="http://www.w3.org/1999/xlink" width="720px" height="720px">
<g id="man_stand">
<g id="man_stand">
<path fill="#000000" fill-rule="evenodd" stroke="#000000" stroke-width="4" stroke-linecap="round" stroke-linejoin="round" d="M 353.618 92.181 C 360.892 94.549 372.942 102.741 380.496 101.530 C 385.616 100.709 394.574 95.328 396.272 90.428 C 397.382 87.224 393.156 81.543 393.350 78.158 C 393.581 74.138 398.827 68.155 398.609 64.134 C 398.400 60.276 393.146 55.021 392.182 51.280 C 391.240 47.626 393.524 40.500 391.597 37.256 C 389.547 33.805 382.098 31.863 378.743 29.660 C 375.171 27.315 370.047 21.294 365.888 20.312 C 363.423 19.729 359.033 21.923 356.539 21.480 C 353.564 20.952 349.603 16.602 346.606 16.221 C 341.918 15.626 334.369 20.488 329.661 20.896 C 326.048 21.209 319.460 18.096 316.222 19.727 C 311.576 22.068 310.705 33.153 306.873 36.672 C 305.062 38.335 300.029 38.698 298.693 40.762 C 296.215 44.588 300.525 53.323 299.277 57.707 C 298.621 60.013 294.400 62.914 294.602 65.303 C 295.091 71.075 310.963 79.326 310.963 79.326 C 310.963 79.326 342.229 88.475 353.618 92.181 Z"/>
<path fill="#ffffff" fill-rule="evenodd" stroke="#000000" stroke-width="4" stroke-linecap="round" stroke-linejoin="round" d="M 337.841 56.539 C 342.723 57.347 347.189 64.133 347.190 64.134 C 347.189 64.135 339.615 68.629 336.088 68.225 C 332.321 67.793 325.572 61.214 325.571 61.213 C 325.572 61.212 332.520 55.657 337.841 56.539 M 337.335 38.344 C 325.646 37.760 315.069 40.788 314.805 40.944 C 314.624 41.051 306.627 50.810 305.342 53.409 C 303.556 57.025 303.099 71.531 303.541 75.604 C 304.210 81.769 308.201 103.420 313.939 107.664 C 316.610 109.640 326.727 109.696 329.536 109.397 C 334.276 108.893 354.440 100.406 354.443 100.405 C 354.440 100.406 329.983 110.455 329.981 110.456 C 329.981 110.458 328.347 125.259 328.347 125.261 C 328.348 125.262 335.056 137.808 335.057 137.809 C 335.056 137.808 327.774 125.736 327.773 125.734 C 327.769 125.735 296.403 130.843 289.677 134.848 C 283.713 138.398 267.992 156.972 266.282 160.520 C 261.226 171.011 256.751 262.757 256.750 262.767 C 256.748 262.771 235.357 296.153 231.622 303.492 C 229.107 308.434 219.230 333.233 219.228 333.236 C 219.226 333.236 200.206 340.089 200.205 340.090 C 200.202 340.092 182.853 348.589 179.114 365.826 C 177.549 373.045 196.960 352.884 196.962 352.883 C 196.960 352.886 178.848 384.016 183.466 387.385 C 186.638 389.700 201.661 362.260 201.663 362.257 C 201.662 362.260 185.730 391.164 189.164 393.608 C 192.562 396.028 211.690 364.150 211.692 364.147 C 211.691 364.150 193.431 393.499 196.096 395.341 C 200.322 398.263 220.355 369.349 220.357 369.346 C 220.356 369.349 202.637 390.708 205.443 392.899 C 209.297 395.909 226.267 373.719 228.497 370.213 C 229.964 367.906 235.953 350.285 235.954 350.283 C 235.958 350.279 275.313 307.904 276.417 306.072 C 278.907 301.944 284.215 214.817 284.216 214.808 C 284.215 214.806 276.177 201.855 275.813 196.047 C 275.245 186.988 286.210 165.723 286.211 165.720 C 286.211 165.723 277.057 190.298 278.675 198.384 C 279.944 204.724 282.353 208.765 284.458 209.931 C 289.535 212.740 314.802 202.980 314.805 202.979 C 314.803 202.980 287.080 214.505 287.077 214.506 C 287.077 214.515 280.140 302.120 279.279 309.558 C 278.839 313.366 272.563 349.329 272.247 357.881 C 271.777 370.605 276.425 408.467 278.011 430.302 C 281.970 484.800 302.672 538.403 302.675 538.414 C 302.675 538.419 302.734 572.288 310.172 591.607 C 325.392 631.136 329.276 655.460 327.803 658.656 C 326.870 660.679 289.681 680.417 289.677 680.419 C 289.675 680.420 269.931 695.208 273.214 697.748 C 275.789 699.741 288.809 687.352 288.811 687.351 C 288.809 687.352 276.346 698.021 277.546 700.348 C 279.191 703.538 296.607 686.486 296.609 686.484 C 296.608 686.486 280.402 701.100 281.879 702.947 C 283.454 704.919 300.940 689.085 300.941 689.083 C 300.940 689.085 285.373 703.414 287.077 705.547 C 287.980 706.677 297.211 704.270 298.342 703.814 C 299.392 703.390 307.006 697.749 307.007 697.748 C 307.010 697.747 336.671 685.793 339.934 684.751 C 342.568 683.910 364.210 684.987 367.662 677.819 C 371.639 669.558 354.100 653.931 352.931 648.358 C 350.523 636.877 361.631 597.952 358.997 580.771 C 357.004 567.776 340.101 534.200 339.934 533.114 C 339.650 531.271 348.826 452.261 348.599 446.464 C 348.493 443.769 342.193 406.480 342.192 406.476 C 342.190 406.475 326.251 404.612 322.051 398.861 C 317.678 392.873 321.001 376.465 321.001 376.463 C 320.998 376.460 305.710 367.174 293.143 345.951 C 292.589 345.015 305.691 363.316 305.693 363.318 C 305.694 363.319 321.736 376.277 321.737 376.278 C 321.738 376.280 319.345 394.036 323.471 398.807 C 328.311 404.404 344.266 407.501 349.465 404.006 C 356.258 399.441 354.064 369.685 354.064 369.681 C 354.066 369.679 373.585 350.535 373.587 350.533 C 373.588 350.530 388.287 324.528 387.591 326.021 C 371.632 360.288 354.873 366.659 354.876 370.298 C 354.883 379.356 356.154 405.862 344.583 406.384 C 340.299 406.577 350.825 443.949 354.664 459.462 C 358.852 476.382 369.500 511.077 371.994 515.784 C 373.146 517.958 388.456 537.444 388.458 537.447 C 388.456 537.445 374.595 522.718 374.594 522.716 C 374.595 522.721 379.029 563.869 384.125 577.306 C 390.139 593.162 416.675 621.707 418.785 632.761 C 419.687 637.485 413.434 655.635 415.319 660.489 C 416.810 664.327 430.513 673.224 431.783 675.219 C 432.980 677.101 436.501 693.476 437.848 695.149 C 439.502 697.204 458.171 710.662 460.377 707.280 C 461.684 705.277 452.579 694.284 452.579 694.283 C 452.580 694.284 462.349 704.619 463.843 703.814 C 465.928 702.690 456.045 684.753 456.044 684.751 C 456.046 684.753 465.355 700.371 467.309 699.482 C 469.391 698.534 462.110 680.421 462.110 680.419 C 462.111 680.420 468.616 692.791 469.908 692.550 C 471.813 692.194 466.149 673.175 465.576 671.754 C 464.396 668.826 442.808 639.320 441.314 635.361 C 439.346 630.146 436.791 588.540 434.382 578.172 C 431.656 566.433 413.757 523.399 412.720 516.651 C 410.801 504.168 420.546 410.435 419.652 396.208 C 419.124 387.808 407.713 330.706 407.521 326.021 C 407.481 325.051 408.954 314.197 408.387 311.291 C 407.108 304.726 392.854 282.435 392.790 281.830 C 392.680 280.786 410.985 227.246 410.987 227.241 C 410.986 227.239 406.655 206.447 406.654 206.445 C 406.651 206.445 385.464 212.133 378.926 210.777 C 374.218 209.801 361.598 200.380 361.596 200.379 C 361.599 200.380 378.429 208.251 384.125 208.782 C 389.749 209.305 407.518 204.752 407.521 204.751 C 407.522 204.749 421.383 183.918 421.385 183.916 C 421.384 183.918 412.572 202.962 411.853 203.845 C 408.979 207.378 412.927 245.296 415.260 256.824 C 418.708 273.868 426.563 282.392 426.564 282.394 C 426.564 282.396 426.196 293.005 426.584 296.016 C 427.905 306.276 436.155 332.853 439.682 340.551 C 443.305 348.461 465.573 380.607 465.576 380.611 C 465.579 380.614 493.540 412.874 495.351 412.958 C 500.329 413.191 485.507 391.877 485.506 391.875 C 485.507 391.877 501.575 413.265 502.965 412.303 C 505.999 410.204 491.572 389.278 491.571 389.276 C 491.573 389.278 507.326 412.796 509.740 411.279 C 514.637 408.202 496.771 384.946 496.770 384.943 C 496.772 384.946 513.240 409.009 514.966 407.472 C 519.092 403.800 502.837 383.213 502.835 383.210 C 502.834 383.209 493.305 372.813 493.304 372.812 C 493.306 372.814 510.868 389.847 513.233 388.225 C 517.192 385.509 500.084 360.688 495.037 358.082 C 489.487 355.216 481.417 354.898 475.026 345.371 C 468.950 336.313 467.732 300.788 466.968 297.952 C 466.386 295.796 454.721 265.444 454.311 263.633 C 453.291 259.119 451.769 183.368 448.246 172.652 C 446.850 168.407 435.117 145.886 430.049 141.457 C 423.004 135.301 388.873 127.842 383.259 123.261 C 381.456 121.790 374.214 111.306 373.727 110.264 C 373.029 108.769 369.601 89.718 368.528 87.735 C 367.703 86.210 357.226 76.576 356.397 74.737 C 355.506 72.758 355.504 57.510 354.664 55.674 C 353.589 53.324 350.809 39.018 337.335 38.344 Z"/>
<path fill="#ffffff" fill-rule="evenodd" stroke="none" d="M 329.077 299.318 C 329.077 296.481 330.340 295.520 331.414 295.520 C 332.488 295.520 333.751 296.481 333.751 299.318 C 333.751 302.154 332.488 303.116 331.414 303.116 C 330.340 303.116 329.077 302.154 329.077 299.318 M 390.923 194.911 C 392.890 193.744 394.677 194.872 395.150 196.068 C 395.623 197.265 395.069 199.227 392.856 199.802 C 391.225 200.225 390.354 199.239 389.959 198.378 C 389.518 197.418 389.308 195.869 390.923 194.911 M 288.175 197.940 C 288.175 196.110 289.341 195.019 290.512 195.019 C 291.684 195.019 292.849 196.110 292.849 197.940 C 292.849 199.771 291.684 200.862 290.512 200.862 C 289.341 200.862 288.175 199.771 288.175 197.940 Z"/>
<path fill="none" stroke="#000000" stroke-width="4" stroke-linecap="round" stroke-linejoin="round" d="M 329.077 299.318 C 329.077 296.481 330.340 295.520 331.414 295.520 C 332.488 295.520 333.751 296.481 333.751 299.318 C 333.751 302.154 332.488 303.116 331.414 303.116 C 330.340 303.116 329.077 302.154 329.077 299.318 M 390.923 194.911 C 392.890 193.744 394.677 194.872 395.150 196.068 C 395.623 197.265 395.069 199.227 392.856 199.802 C 391.225 200.225 390.354 199.239 389.959 198.378 C 389.518 197.418 389.308 195.869 390.923 194.911 M 288.175 197.940 C 288.175 196.110 289.341 195.019 290.512 195.019 C 291.684 195.019 292.849 196.110 292.849 197.940 C 292.849 199.771 291.684 200.862 290.512 200.862 C 289.341 200.862 288.175 199.771 288.175 197.940 M 317.390 86.338 C 317.391 86.338 324.012 85.948 327.324 85.754 M 318.559 60.044 C 318.559 60.047 317.390 86.335 317.390 86.338 "/>
<path fill="none" stroke="#000000" stroke-width="4" stroke-linecap="round" stroke-linejoin="round" d="M 330.830 372.064 C 330.830 372.066 325.989 395.702 333.751 397.189 C 342.092 398.787 341.542 380.828 345.437 372.648 "/>
</g>
<g id="specs_2">
<path fill="#ff00ff" fill-rule="evenodd" stroke="none" d="M 299.417 294.862 C 299.426 294.862 383.039 294.862 383.047 294.862 C 383.047 294.854 383.047 211.241 383.047 211.232 C 383.039 211.232 299.426 211.232 299.417 211.232 C 299.417 211.241 299.417 294.854 299.417 294.862 Z"/>
<path fill="#ff0000" fill-rule="evenodd" stroke="none" d="M 386.217 679.391 C 386.218 679.395 398.649 714.201 398.650 714.204 C 398.649 714.203 386.218 702.637 386.217 702.636 C 386.216 702.637 373.785 714.203 373.784 714.204 C 373.785 714.201 386.216 679.395 386.217 679.391 Z"/>
<path fill="#0000ff" fill-rule="evenodd" stroke="none" d="M 342.125 3.472 C 342.126 3.474 349.346 23.692 349.347 23.694 C 349.346 23.693 342.126 16.975 342.125 16.974 C 342.124 16.975 334.904 23.693 334.903 23.694 C 334.904 23.692 342.124 3.474 342.125 3.472 Z"/>
<path fill="#00ff00" fill-rule="evenodd" stroke="none" d="M 286.239 140.946 C 286.241 140.947 306.429 148.253 306.431 148.254 C 306.430 148.254 296.651 149.544 296.650 149.544 C 296.650 149.545 297.233 159.391 297.233 159.392 C 297.232 159.390 286.240 140.948 286.239 140.946 Z"/>
<path fill="#ffff00" fill-rule="evenodd" stroke="none" d="M 275.667 366.356 C 275.668 366.354 284.629 346.845 284.630 346.843 C 284.630 346.844 285.102 356.695 285.102 356.696 C 285.103 356.696 294.962 356.935 294.963 356.935 C 294.961 356.936 275.669 366.355 275.667 366.356 Z"/>
<path fill="#ffff00" fill-rule="evenodd" stroke="none" d="M 409.907 367.309 C 409.906 367.307 400.556 347.981 400.555 347.979 C 400.555 347.980 400.281 357.839 400.281 357.840 C 400.280 357.840 390.427 358.277 390.426 358.277 C 390.428 358.278 409.905 367.308 409.907 367.309 Z"/>
<path fill="#00ff00" fill-rule="evenodd" stroke="none" d="M 421.998 140.968 C 421.996 140.968 402.016 148.825 402.014 148.826 C 402.015 148.826 411.825 149.847 411.826 149.847 C 411.826 149.848 411.514 159.706 411.514 159.707 C 411.515 159.705 421.997 140.969 421.998 140.968 Z"/>
<path fill="#00ffff" fill-rule="evenodd" stroke="none" d="M 386.858 17.614 C 386.857 17.616 379.690 37.853 379.689 37.855 C 379.689 37.854 378.332 28.085 378.332 28.084 C 378.331 28.084 368.490 28.734 368.489 28.734 C 368.490 28.733 386.856 17.615 386.858 17.614 Z"/>
<path fill="#00ffff" fill-rule="evenodd" stroke="none" d="M 301.078 18.285 C 301.079 18.287 309.580 38.001 309.581 38.003 C 309.581 38.002 310.283 28.164 310.283 28.163 C 310.284 28.163 320.147 28.156 320.148 28.156 C 320.146 28.155 301.080 18.286 301.078 18.285 Z"/>
</g>
</g>
</svg>
