<?xml version="1.0" encoding="utf-8"?>
<!-- Generator: Moho 12.5 build 22414 -->
<!DOCTYPE svg PUBLIC "-//W3C//DTD SVG 1.1//EN" "http://www.w3.org/Graphics/SVG/1.1/DTD/svg11.dtd">
<svg version="1.1" id="Frame_0" xmlns="http://www.w3.org/2000/svg" xmlns:xlink="http://www.w3.org/1999/xlink" width="720px" height="720px">
<g id="menorah">
<g id="menorah2.svg">
<path fill="#ffffff" fill-rule="evenodd" stroke="#000000" stroke-width="4" stroke-linecap="round" stroke-linejoin="round" d="M 580.196 62.947 C 584.931 54.472 602.429 44.225 602.431 44.224 C 602.431 44.225 598.805 56.586 598.920 62.947 C 599.066 70.977 602.066 77.989 604.433 86.352 C 606.860 94.930 613.805 101.680 612.198 109.758 C 610.585 117.869 595.997 128.480 595.995 128.482 C 595.995 128.480 595.768 115.636 593.474 109.758 C 589.953 100.734 578.695 96.570 576.347 86.352 C 574.426 77.997 576.332 69.864 580.196 62.947 M 116.247 62.947 C 120.982 54.472 138.480 44.225 138.482 44.224 C 138.482 44.225 134.857 56.586 134.972 62.947 C 135.117 70.977 138.118 77.989 140.484 86.352 C 142.911 94.930 149.856 101.680 148.250 109.758 C 146.637 117.869 132.048 128.480 132.046 128.482 C 132.046 128.480 131.819 115.636 129.525 109.758 C 126.004 100.734 114.747 96.570 112.398 86.352 C 110.477 77.997 112.383 69.864 116.247 62.947 M 501.767 62.947 C 506.502 54.472 524.000 44.225 524.002 44.224 C 524.002 44.225 520.376 56.586 520.491 62.947 C 520.636 70.977 523.637 77.989 526.003 86.352 C 528.430 94.930 535.375 101.680 533.769 109.758 C 532.157 117.869 517.567 128.480 517.565 128.482 C 517.565 128.480 517.339 115.636 515.045 109.758 C 511.523 100.734 500.266 96.570 497.917 86.352 C 495.997 77.997 497.903 69.864 501.767 62.947 M 189.153 62.947 C 193.889 54.472 211.387 44.225 211.389 44.224 C 211.389 44.225 207.763 56.586 207.878 62.947 C 208.023 70.977 211.024 77.989 213.390 86.352 C 215.817 94.930 222.762 101.680 221.155 109.758 C 219.543 117.869 204.954 128.480 204.952 128.482 C 204.951 128.480 204.725 115.636 202.432 109.758 C 198.910 100.734 187.653 96.570 185.304 86.352 C 183.383 77.997 185.290 69.864 189.153 62.947 M 424.521 62.947 C 429.256 54.472 446.754 44.225 446.756 44.224 C 446.756 44.225 443.130 56.586 443.245 62.947 C 443.390 70.977 446.391 77.989 448.758 86.352 C 451.184 94.930 458.129 101.680 456.523 109.758 C 454.910 117.869 440.321 128.480 440.319 128.482 C 440.319 128.480 440.093 115.636 437.799 109.758 C 434.278 100.734 423.020 96.570 420.672 86.352 C 418.750 77.997 420.657 69.864 424.521 62.947 M 266.478 62.947 C 271.213 54.472 288.711 44.225 288.713 44.224 C 288.713 44.225 285.087 56.586 285.202 62.947 C 285.348 70.977 288.349 77.989 290.715 86.352 C 293.141 94.930 300.087 101.680 298.481 109.758 C 296.868 117.869 282.278 128.480 282.277 128.482 C 282.277 128.480 282.051 115.636 279.756 109.758 C 276.235 100.734 264.977 96.570 262.629 86.352 C 260.708 77.997 262.614 69.864 266.478 62.947 M 343.803 62.947 C 348.539 54.472 366.036 44.225 366.038 44.224 C 366.038 44.225 362.412 56.586 362.527 62.947 C 362.672 70.977 365.673 77.989 368.040 86.352 C 370.466 94.930 377.412 101.680 375.806 109.758 C 374.192 117.869 359.603 128.480 359.601 128.482 C 359.601 128.480 359.375 115.636 357.081 109.758 C 353.560 100.734 342.302 96.570 339.954 86.352 C 338.033 77.997 339.940 69.864 343.803 62.947 M 339.168 140.895 C 339.170 140.895 359.710 138.774 359.712 138.774 C 359.714 138.774 380.255 140.895 380.257 140.895 C 380.257 140.906 380.258 253.157 380.257 253.168 C 380.260 253.166 404.113 249.186 412.873 237.199 C 421.234 225.759 418.597 212.275 419.904 198.165 C 421.791 177.791 419.904 140.901 419.904 140.895 C 419.908 140.895 458.081 140.895 458.084 140.895 C 458.084 140.902 461.402 186.583 458.084 217.255 C 455.762 238.731 447.971 257.993 430.943 271.284 C 398.125 296.898 380.262 293.613 380.257 293.616 C 380.257 293.620 380.257 342.850 380.257 342.855 C 380.266 342.851 416.565 353.744 471.161 299.858 C 493.113 278.191 491.787 247.772 496.265 217.255 C 500.226 190.263 496.265 140.902 496.265 140.895 C 496.269 140.895 534.441 140.895 534.445 140.895 C 534.445 140.904 540.544 202.793 534.445 236.345 C 527.924 272.222 522.940 304.921 498.293 331.796 C 451.659 382.644 380.269 389.060 380.257 389.065 C 380.257 389.070 380.257 437.012 380.257 437.017 C 380.272 437.009 456.307 441.575 525.424 360.250 C 556.102 324.155 564.331 282.984 572.625 236.345 C 578.595 202.770 572.625 140.904 572.625 140.895 C 572.628 140.895 610.802 140.895 610.805 140.895 C 610.805 140.907 618.957 215.334 610.805 255.435 C 600.431 306.472 586.677 349.720 552.556 389.065 C 490.807 460.268 380.275 479.305 380.257 479.314 C 380.257 479.322 380.256 560.869 380.257 560.877 C 380.264 560.878 531.517 597.696 531.523 597.698 C 531.524 597.701 531.523 631.033 531.523 631.036 C 531.520 631.037 483.075 646.943 359.712 646.738 C 236.967 646.533 187.906 631.037 187.902 631.036 C 187.902 631.033 187.902 597.701 187.902 597.698 C 187.909 597.696 339.161 560.878 339.168 560.877 C 339.169 560.869 339.168 479.322 339.168 479.314 C 339.151 479.305 224.131 463.508 165.896 389.065 C 133.806 348.046 118.020 306.472 107.646 255.435 C 99.495 215.334 107.646 140.907 107.646 140.895 C 107.650 140.895 145.823 140.895 145.827 140.895 C 145.827 140.904 139.856 202.770 145.827 236.345 C 154.120 282.984 162.660 323.894 193.028 360.250 C 259.689 440.056 339.154 437.009 339.168 437.017 C 339.168 437.012 339.168 389.070 339.168 389.065 C 339.156 389.060 270.105 384.943 220.159 331.796 C 195.187 305.222 190.528 272.222 184.007 236.345 C 177.909 202.793 184.007 140.904 184.007 140.895 C 184.011 140.895 222.183 140.895 222.187 140.895 C 222.187 140.902 218.226 190.263 222.187 217.255 C 226.665 247.772 226.171 277.379 247.291 299.858 C 295.534 351.205 339.159 342.851 339.168 342.855 C 339.168 342.850 339.168 293.620 339.168 293.616 C 339.163 293.614 321.766 297.977 289.456 274.206 C 265.560 256.625 262.571 239.995 260.367 217.255 C 256.994 182.434 260.367 140.902 260.367 140.895 C 260.371 140.895 298.543 140.895 298.548 140.895 C 298.548 140.901 296.277 177.831 298.548 198.165 C 300.210 213.062 298.008 227.569 307.527 239.147 C 316.413 249.955 339.165 252.192 339.168 252.193 C 339.167 252.183 339.168 140.906 339.168 140.895 Z"/>
</g>
<g id="specs_2">
<path fill="#ff00ff" fill-rule="evenodd" stroke="none" d="M 218.519 544.333 C 218.547 544.333 501.453 544.333 501.481 544.333 C 501.481 544.316 501.481 369.057 501.481 369.039 C 501.453 369.039 218.547 369.039 218.519 369.039 C 218.519 369.057 218.519 544.316 218.519 544.333 Z"/>
<path fill="#ff0000" fill-rule="evenodd" stroke="none" d="M 360.000 676.511 C 360.001 676.514 370.983 707.265 370.984 707.268 C 370.983 707.267 360.001 697.049 360.000 697.048 C 359.999 697.049 349.017 707.267 349.016 707.268 C 349.017 707.265 359.999 676.514 360.000 676.511 Z"/>
<path fill="#0000ff" fill-rule="evenodd" stroke="none" d="M 360.000 38.039 C 360.001 38.041 366.380 55.903 366.381 55.905 C 366.380 55.905 360.001 49.969 360.000 49.969 C 359.999 49.969 353.620 55.905 353.619 55.905 C 353.620 55.903 359.999 38.041 360.000 38.039 Z"/>
<path fill="#00ff00" fill-rule="evenodd" stroke="none" d="M 115.886 319.273 C 115.888 319.272 133.718 312.803 133.719 312.802 C 133.719 312.803 127.816 319.212 127.815 319.213 C 127.816 319.213 133.783 325.563 133.784 325.563 C 133.782 325.563 115.888 319.274 115.886 319.273 Z"/>
<path fill="#ffff00" fill-rule="evenodd" stroke="none" d="M 184.375 637.409 C 184.376 637.407 192.292 620.171 192.293 620.169 C 192.293 620.170 192.710 628.874 192.710 628.875 C 192.711 628.875 201.422 629.086 201.423 629.086 C 201.421 629.087 184.377 637.408 184.375 637.409 Z"/>
<path fill="#ffff00" fill-rule="evenodd" stroke="none" d="M 533.274 637.198 C 533.274 637.196 525.013 620.122 525.012 620.120 C 525.012 620.121 524.770 628.831 524.770 628.832 C 524.769 628.832 516.064 629.218 516.063 629.218 C 516.065 629.219 533.273 637.197 533.274 637.198 Z"/>
<path fill="#00ff00" fill-rule="evenodd" stroke="none" d="M 604.158 319.273 C 604.156 319.272 586.326 312.803 586.324 312.802 C 586.325 312.803 592.228 319.212 592.229 319.213 C 592.228 319.213 586.261 325.563 586.260 325.563 C 586.262 325.563 604.156 319.274 604.158 319.273 Z"/>
<path fill="#00ffff" fill-rule="evenodd" stroke="none" d="M 615.503 136.024 C 615.502 136.026 609.170 153.905 609.169 153.907 C 609.169 153.906 607.970 145.275 607.970 145.274 C 607.969 145.275 599.274 145.849 599.273 145.849 C 599.275 145.848 615.501 136.025 615.503 136.024 Z"/>
<path fill="#00ffff" fill-rule="evenodd" stroke="none" d="M 103.716 136.617 C 103.717 136.618 111.227 154.036 111.228 154.038 C 111.228 154.037 111.849 145.345 111.849 145.344 C 111.850 145.344 120.563 145.338 120.564 145.338 C 120.562 145.337 103.718 136.618 103.716 136.617 Z"/>
<path fill="#be0027" fill-rule="evenodd" stroke="none" d="M 360.000 663.258 C 360.001 663.255 370.983 632.504 370.984 632.501 C 370.983 632.502 360.001 642.721 360.000 642.722 C 359.999 642.721 349.017 632.502 349.016 632.501 C 349.017 632.504 359.999 663.255 360.000 663.258 Z"/>
</g>
</g>
</svg>
