<?xml version="1.0" encoding="utf-8"?>
<!-- Generator: Moho 12.5 build 22414 -->
<!DOCTYPE svg PUBLIC "-//W3C//DTD SVG 1.1//EN" "http://www.w3.org/Graphics/SVG/1.1/DTD/svg11.dtd">
<svg version="1.1" id="Frame_0" xmlns="http://www.w3.org/2000/svg" xmlns:xlink="http://www.w3.org/1999/xlink" width="720px" height="720px">
<g id="mosque">
<g id="mosque">
<path fill="#ffffff" fill-rule="evenodd" stroke="#000000" stroke-width="4" stroke-linecap="round" stroke-linejoin="round" d="M 649.194 183.290 C 658.365 183.553 667.960 177.171 668.562 168.475 C 665.441 173.894 659.716 177.712 653.075 177.712 C 643.759 177.712 636.244 170.197 636.244 160.881 C 636.244 151.565 645.311 144.401 653.075 144.048 C 653.720 144.019 650.495 144.117 649.194 144.117 C 638.353 144.117 629.607 152.863 629.608 163.704 C 629.608 174.545 639.586 183.016 649.194 183.290 M 621.597 256.041 C 631.092 256.191 665.384 256.500 674.117 256.041 C 674.667 256.261 683.199 239.214 683.248 228.860 C 683.346 207.831 647.833 188.460 647.829 188.456 C 647.826 188.460 612.313 207.831 612.410 228.860 C 612.457 239.212 621.597 256.041 621.597 256.041 M 625.258 684.754 C 625.258 684.712 625.258 259.729 625.258 259.687 C 625.262 259.687 668.357 259.687 668.361 259.687 C 668.361 259.729 668.361 684.712 668.361 684.754 C 668.357 684.754 625.262 684.754 625.258 684.754 M 96.320 684.920 C 96.320 684.919 96.320 666.997 96.320 666.995 C 96.372 666.995 623.468 666.995 623.521 666.995 C 623.521 666.997 623.521 684.919 623.521 684.920 C 623.468 684.920 96.372 684.920 96.320 684.920 M 239.566 447.527 C 239.566 447.524 239.566 416.802 239.566 416.799 C 239.590 416.799 480.251 416.799 480.275 416.799 C 480.275 416.802 480.275 447.524 480.275 447.527 C 480.251 447.527 239.590 447.527 239.566 447.527 M 100.278 469.288 C 100.278 469.286 100.278 451.364 100.278 451.363 C 100.330 451.363 619.511 451.363 619.563 451.363 C 619.563 451.364 619.563 469.286 619.563 469.288 C 619.511 469.288 100.330 469.288 100.278 469.288 M 193.925 554.700 C 196.641 529.837 165.805 501.882 165.802 501.877 C 165.799 501.882 135.363 526.633 137.679 554.700 C 139.403 575.589 138.266 653.269 138.266 653.279 C 138.271 653.279 193.368 653.519 193.373 653.519 C 193.374 653.509 191.551 576.432 193.925 554.700 M 291.233 554.700 C 293.949 529.837 263.113 501.882 263.110 501.877 C 263.107 501.882 232.670 526.633 234.986 554.700 C 236.710 575.589 235.574 653.269 235.575 653.279 C 235.580 653.279 290.676 653.519 290.681 653.519 C 290.681 653.509 288.859 576.432 291.233 554.700 M 487.129 554.700 C 489.845 529.836 459.009 501.882 459.006 501.877 C 459.003 501.882 428.567 526.633 430.884 554.700 C 432.607 575.589 431.471 653.269 431.471 653.279 C 431.476 653.279 486.573 653.519 486.579 653.519 C 486.579 653.509 484.755 576.432 487.129 554.700 M 584.437 554.700 C 587.153 529.837 556.317 501.882 556.314 501.877 C 556.311 501.882 525.875 526.633 528.191 554.700 C 529.915 575.589 528.779 653.269 528.779 653.279 C 528.784 653.279 583.879 653.519 583.885 653.519 C 583.885 653.509 582.063 576.432 584.437 554.700 M 332.296 554.700 C 329.579 529.837 360.415 501.882 360.418 501.877 C 360.421 501.882 390.857 526.633 388.541 554.700 C 386.817 575.589 387.953 653.269 387.953 653.279 C 387.948 653.279 332.853 653.519 332.847 653.519 C 332.847 653.509 334.670 576.432 332.296 554.700 M 99.937 661.739 C 99.937 661.720 99.937 473.298 99.937 473.279 C 99.989 473.279 619.852 473.279 619.904 473.279 C 619.904 473.298 619.904 661.720 619.904 661.739 C 619.852 661.739 99.989 661.739 99.937 661.739 M 74.215 183.290 C 83.386 183.553 92.983 177.171 93.584 168.475 C 90.464 173.894 84.738 177.712 78.097 177.712 C 68.781 177.712 61.266 170.197 61.265 160.881 C 61.265 151.564 70.333 144.401 78.097 144.048 C 78.742 144.019 75.516 144.117 74.215 144.117 C 63.374 144.117 54.629 152.863 54.629 163.704 C 54.629 174.545 64.607 183.015 74.215 183.290 M 46.618 256.041 C 56.113 256.191 90.405 256.500 99.137 256.041 C 99.688 256.261 108.221 239.214 108.270 228.860 C 108.369 207.831 72.854 188.460 72.850 188.456 C 72.847 188.460 37.335 207.831 37.431 228.860 C 37.479 239.212 46.618 256.041 46.618 256.041 M 50.280 684.754 C 50.280 684.712 50.280 259.729 50.280 259.687 C 50.284 259.687 93.379 259.687 93.383 259.687 C 93.383 259.729 93.383 684.712 93.383 684.754 C 93.379 684.754 50.284 684.754 50.280 684.754 M 360.293 166.194 C 391.567 167.088 424.292 145.325 426.340 115.670 C 415.702 134.152 396.176 147.172 373.531 147.172 C 341.762 147.172 316.133 121.544 316.132 89.775 C 316.132 58.005 347.055 33.578 373.531 32.376 C 375.730 32.276 364.729 32.610 360.293 32.610 C 323.324 32.608 293.501 62.433 293.501 99.402 C 293.502 136.371 327.529 165.256 360.293 166.194 M 261.875 412.518 C 297.368 412.518 425.508 413.721 458.169 412.518 C 459.988 413.278 492.300 357.900 492.301 323.463 C 492.301 250.191 359.934 191.095 359.921 191.082 C 359.907 191.095 227.541 250.191 227.541 323.463 C 227.541 357.900 261.875 412.518 261.875 412.518 Z"/>
<path fill="#ffffff" fill-rule="evenodd" stroke="#000000" stroke-width="4" stroke-linecap="round" stroke-linejoin="round" d="M 354.199 196.649 C 348.278 190.723 359.920 169.319 359.921 169.316 C 359.921 169.319 371.564 190.722 365.643 196.649 C 363.217 199.078 356.625 199.078 354.199 196.649 M 611.545 359.560 C 611.545 359.558 611.545 335.981 611.545 335.978 C 611.552 335.978 683.426 335.978 683.434 335.978 C 683.434 335.981 683.434 359.558 683.434 359.560 C 683.432 359.562 666.040 372.653 666.038 372.655 C 666.034 372.655 628.944 372.655 628.940 372.655 C 628.938 372.653 611.546 359.562 611.545 359.560 M 36.566 359.560 C 36.566 359.558 36.566 335.981 36.566 335.978 C 36.574 335.978 108.448 335.978 108.455 335.978 C 108.455 335.981 108.455 359.558 108.455 359.560 C 108.454 359.562 91.061 372.653 91.059 372.655 C 91.056 372.655 53.966 372.655 53.962 372.655 C 53.961 372.653 36.568 359.562 36.566 359.560 Z"/>
</g>
<g id="specs">
<path fill="#ff00ff" fill-rule="evenodd" stroke="none" d="M 281.180 403.581 C 281.196 403.581 438.804 403.581 438.820 403.581 C 438.820 403.566 438.820 245.958 438.820 245.942 C 438.804 245.942 281.196 245.942 281.180 245.942 C 281.180 245.958 281.180 403.566 281.180 403.581 Z"/>
<path fill="#ff0000" fill-rule="evenodd" stroke="none" d="M 360.000 671.147 C 360.001 671.150 372.432 705.956 372.433 705.960 C 372.432 705.958 360.001 694.392 360.000 694.391 C 359.999 694.392 347.568 705.958 347.567 705.960 C 347.568 705.956 359.999 671.150 360.000 671.147 Z"/>
<path fill="#0000ff" fill-rule="evenodd" stroke="none" d="M 360.000 8.471 C 360.001 8.473 367.221 28.691 367.222 28.693 C 367.221 28.693 360.001 21.975 360.000 21.974 C 359.999 21.975 352.779 28.693 352.778 28.693 C 352.779 28.691 359.999 8.473 360.000 8.471 Z"/>
<path fill="#00ff00" fill-rule="evenodd" stroke="none" d="M 36.212 459.011 C 36.214 459.010 56.396 451.688 56.398 451.687 C 56.397 451.688 49.715 458.942 49.715 458.943 C 49.715 458.944 56.470 466.130 56.471 466.131 C 56.469 466.130 36.214 459.012 36.212 459.011 Z"/>
<path fill="#ffff00" fill-rule="evenodd" stroke="none" d="M 118.365 691.597 C 118.366 691.595 127.326 672.086 127.327 672.084 C 127.327 672.085 127.799 681.936 127.799 681.937 C 127.800 681.937 137.660 682.176 137.661 682.176 C 137.659 682.177 118.367 691.596 118.365 691.597 Z"/>
<path fill="#ffff00" fill-rule="evenodd" stroke="none" d="M 602.961 691.358 C 602.960 691.356 593.610 672.030 593.609 672.028 C 593.609 672.029 593.334 681.888 593.334 681.889 C 593.333 681.889 583.480 682.326 583.479 682.326 C 583.481 682.327 602.959 691.357 602.961 691.358 Z"/>
<path fill="#00ff00" fill-rule="evenodd" stroke="none" d="M 682.631 459.011 C 682.629 459.010 662.448 451.688 662.446 451.687 C 662.446 451.688 669.128 458.942 669.129 458.943 C 669.128 458.944 662.374 466.130 662.373 466.131 C 662.375 466.130 682.629 459.012 682.631 459.011 Z"/>
<path fill="#00ffff" fill-rule="evenodd" stroke="none" d="M 491.069 276.906 C 491.068 276.908 479.662 295.097 479.661 295.098 C 479.661 295.097 480.466 285.267 480.466 285.266 C 480.465 285.266 470.719 283.756 470.718 283.755 C 470.720 283.755 491.067 276.907 491.069 276.906 Z"/>
<path fill="#00ffff" fill-rule="evenodd" stroke="none" d="M 228.806 276.906 C 228.807 276.908 240.212 295.097 240.214 295.098 C 240.214 295.097 239.409 285.267 239.409 285.266 C 239.410 285.266 249.156 283.756 249.157 283.755 C 249.155 283.755 228.808 276.907 228.806 276.906 Z"/>
</g>
</g>
</svg>
