<?xml version="1.0" encoding="utf-8"?>
<!-- Generator: Moho 13.0.3 build 635 -->
<!DOCTYPE svg PUBLIC "-//W3C//DTD SVG 1.1//EN" "http://www.w3.org/Graphics/SVG/1.1/DTD/svg11.dtd">
<svg version="1.1" id="Frame_0" xmlns="http://www.w3.org/2000/svg" xmlns:xlink="http://www.w3.org/1999/xlink" width="720px" height="720px">
<g id="mosque">
<path fill="#ffffff" fill-rule="evenodd" stroke="#000000" stroke-width="3" stroke-linecap="round" stroke-linejoin="round" d="M 664.780 173.611 C 674.445 173.888 684.558 167.161 685.192 157.997 C 681.904 163.708 675.870 167.732 668.871 167.732 C 659.053 167.732 651.132 159.813 651.132 149.995 C 651.131 140.176 660.688 132.626 668.871 132.254 C 669.550 132.223 666.151 132.326 664.780 132.326 C 653.355 132.326 644.138 141.544 644.138 152.969 C 644.138 164.394 654.654 173.321 664.780 173.611 M 635.695 250.283 C 645.702 250.440 681.842 250.766 691.046 250.283 C 691.626 250.515 700.618 232.548 700.669 221.637 C 700.773 199.475 663.346 179.059 663.342 179.055 C 663.338 179.059 625.912 199.474 626.013 221.637 C 626.063 232.547 635.695 250.283 635.695 250.283 M 639.554 702.102 C 639.554 702.057 639.554 254.170 639.554 254.125 C 639.558 254.125 684.976 254.125 684.980 254.125 C 684.980 254.170 684.980 702.057 684.980 702.102 C 684.976 702.102 639.558 702.102 639.554 702.102 M 82.108 702.277 C 82.108 702.275 82.108 683.387 82.108 683.385 C 82.164 683.385 637.668 683.385 637.724 683.385 C 637.724 683.387 637.724 702.275 637.724 702.277 C 637.668 702.277 82.164 702.277 82.108 702.277 M 233.075 452.089 C 233.075 452.086 233.075 419.708 233.075 419.705 C 233.101 419.705 486.731 419.705 486.757 419.705 C 486.757 419.708 486.757 452.086 486.757 452.089 C 486.731 452.089 233.101 452.089 233.075 452.089 M 86.280 475.022 C 86.280 475.020 86.280 456.133 86.280 456.131 C 86.335 456.131 633.497 456.131 633.552 456.131 C 633.552 456.133 633.552 475.020 633.552 475.022 C 633.497 475.022 86.335 475.022 86.280 475.022 M 184.975 565.038 C 187.837 538.834 155.338 509.373 155.335 509.368 C 155.332 509.373 123.256 535.458 125.697 565.038 C 127.514 587.053 126.315 668.920 126.316 668.930 C 126.321 668.930 184.387 669.183 184.393 669.183 C 184.393 669.172 182.473 587.941 184.975 565.038 M 287.527 565.038 C 290.390 538.834 257.891 509.373 257.888 509.368 C 257.885 509.373 225.808 535.458 228.249 565.038 C 230.066 587.053 228.868 668.920 228.868 668.930 C 228.874 668.930 286.940 669.183 286.946 669.183 C 286.946 669.172 285.025 587.941 287.527 565.038 M 493.981 565.038 C 496.843 538.834 464.345 509.373 464.342 509.368 C 464.339 509.373 432.263 535.458 434.704 565.038 C 436.520 587.053 435.323 668.920 435.323 668.930 C 435.329 668.930 493.395 669.183 493.400 669.183 C 493.400 669.172 491.479 587.941 493.981 565.038 M 596.533 565.038 C 599.395 538.835 566.897 509.373 566.894 509.368 C 566.891 509.373 534.815 535.458 537.256 565.038 C 539.073 587.053 537.875 668.920 537.875 668.930 C 537.881 668.930 595.945 669.183 595.951 669.183 C 595.951 669.172 594.031 587.941 596.533 565.038 M 330.802 565.038 C 327.940 538.835 360.437 509.373 360.440 509.368 C 360.443 509.373 392.520 535.458 390.079 565.038 C 388.262 587.053 389.460 668.920 389.460 668.930 C 389.454 668.930 331.389 669.183 331.384 669.183 C 331.383 669.172 333.305 587.941 330.802 565.038 M 85.920 677.846 C 85.920 677.826 85.920 479.249 85.920 479.229 C 85.975 479.229 633.857 479.229 633.912 479.229 C 633.912 479.249 633.912 677.826 633.912 677.846 C 633.857 677.846 85.975 677.846 85.920 677.846 M 58.813 173.611 C 68.478 173.888 78.592 167.162 79.225 157.997 C 75.937 163.708 69.903 167.732 62.904 167.732 C 53.086 167.732 45.166 159.813 45.165 149.995 C 45.165 140.176 54.721 132.626 62.904 132.254 C 63.584 132.223 60.184 132.326 58.813 132.326 C 47.387 132.326 38.171 141.544 38.171 152.969 C 38.171 164.394 48.687 173.321 58.813 173.611 M 29.728 250.283 C 39.735 250.440 75.875 250.766 85.078 250.283 C 85.659 250.515 94.652 232.549 94.703 221.637 C 94.807 199.474 57.378 179.059 57.374 179.055 C 57.371 179.059 19.945 199.474 20.046 221.637 C 20.096 232.547 29.728 250.283 29.728 250.283 M 33.587 702.102 C 33.587 702.057 33.587 254.170 33.587 254.125 C 33.592 254.125 79.010 254.125 79.014 254.125 C 79.014 254.170 79.014 702.057 79.014 702.102 C 79.010 702.102 33.592 702.102 33.587 702.102 M 360.309 155.593 C 393.268 156.536 427.757 133.600 429.915 102.346 C 418.704 121.824 398.126 135.547 374.260 135.547 C 340.779 135.547 313.768 108.537 313.768 75.055 C 313.768 41.573 346.357 15.830 374.260 14.563 C 376.578 14.458 364.984 14.810 360.309 14.810 C 321.348 14.809 289.918 46.241 289.918 85.202 C 289.918 124.163 325.779 154.605 360.309 155.593 M 256.587 415.193 C 293.992 415.193 429.038 416.461 463.459 415.193 C 465.377 415.994 499.431 357.631 499.431 321.338 C 499.431 244.118 359.930 181.837 359.916 181.823 C 359.902 181.837 220.402 244.118 220.402 321.338 C 220.402 357.631 256.587 415.193 256.587 415.193 Z"/>
<path fill="#ffffff" fill-rule="evenodd" stroke="#000000" stroke-width="3" stroke-linecap="round" stroke-linejoin="round" d="M 353.886 187.690 C 347.646 181.444 359.916 158.887 359.916 158.884 C 359.917 158.887 372.187 181.444 365.947 187.690 C 363.390 190.250 356.443 190.250 353.886 187.690 M 625.102 359.381 C 625.102 359.379 625.102 334.530 625.102 334.528 C 625.109 334.528 700.858 334.528 700.865 334.528 C 700.865 334.530 700.865 359.379 700.865 359.381 C 700.863 359.383 682.534 373.180 682.532 373.181 C 682.528 373.181 643.439 373.181 643.435 373.181 C 643.433 373.180 625.104 359.383 625.102 359.381 M 19.135 359.381 C 19.135 359.379 19.135 334.530 19.135 334.528 C 19.142 334.528 94.891 334.528 94.898 334.528 C 94.898 334.530 94.898 359.379 94.898 359.381 C 94.896 359.383 76.567 373.180 76.565 373.181 C 76.561 373.181 37.472 373.181 37.469 373.181 C 37.467 373.180 19.137 359.383 19.135 359.381 Z"/>
</g>
</svg>
