<?xml version="1.0" encoding="utf-8"?>
<!-- Generator: Moho 12.5 build 22414 -->
<!DOCTYPE svg PUBLIC "-//W3C//DTD SVG 1.1//EN" "http://www.w3.org/Graphics/SVG/1.1/DTD/svg11.dtd">
<svg version="1.1" id="Frame_0" xmlns="http://www.w3.org/2000/svg" xmlns:xlink="http://www.w3.org/1999/xlink" width="720px" height="720px">
<g id="mosque">
<g id="mosque">
<path fill="#ffffff" fill-rule="evenodd" stroke="#000000" stroke-width="4" stroke-linecap="round" stroke-linejoin="round" d="M 649.194 178.256 C 658.365 178.519 667.960 172.137 668.562 163.441 C 665.441 168.860 659.716 172.678 653.075 172.678 C 643.759 172.678 636.244 165.163 636.244 155.847 C 636.244 146.531 645.311 139.367 653.075 139.014 C 653.720 138.985 650.495 139.083 649.194 139.083 C 638.353 139.083 629.607 147.829 629.608 158.670 C 629.608 169.511 639.586 177.981 649.194 178.256 M 621.597 251.007 C 631.092 251.157 665.384 251.466 674.117 251.007 C 674.667 251.227 683.199 234.180 683.248 223.826 C 683.346 202.797 647.833 183.426 647.829 183.422 C 647.826 183.426 612.313 202.797 612.410 223.826 C 612.457 234.178 621.597 251.007 621.597 251.007 M 625.258 679.720 C 625.258 679.678 625.258 254.695 625.258 254.653 C 625.262 254.653 668.357 254.653 668.361 254.653 C 668.361 254.695 668.361 679.678 668.361 679.720 C 668.357 679.720 625.262 679.720 625.258 679.720 M 96.320 679.886 C 96.320 679.885 96.320 661.963 96.320 661.961 C 96.372 661.961 623.468 661.961 623.521 661.961 C 623.521 661.963 623.521 679.885 623.521 679.886 C 623.468 679.886 96.372 679.886 96.320 679.886 M 239.566 442.493 C 239.566 442.490 239.566 411.768 239.566 411.765 C 239.590 411.765 480.251 411.765 480.275 411.765 C 480.275 411.768 480.275 442.490 480.275 442.493 C 480.251 442.493 239.590 442.493 239.566 442.493 M 100.278 464.254 C 100.278 464.252 100.278 446.330 100.278 446.329 C 100.330 446.329 619.511 446.329 619.563 446.329 C 619.563 446.330 619.563 464.252 619.563 464.254 C 619.511 464.254 100.330 464.254 100.278 464.254 M 193.925 549.666 C 196.641 524.802 165.805 496.848 165.802 496.843 C 165.799 496.848 135.363 521.599 137.679 549.666 C 139.403 570.555 138.266 648.235 138.266 648.245 C 138.271 648.245 193.368 648.485 193.373 648.485 C 193.374 648.475 191.551 571.397 193.925 549.666 M 291.233 549.666 C 293.949 524.802 263.113 496.848 263.110 496.843 C 263.107 496.848 232.670 521.598 234.986 549.666 C 236.710 570.555 235.574 648.235 235.575 648.245 C 235.580 648.245 290.676 648.485 290.681 648.485 C 290.681 648.475 288.859 571.397 291.233 549.666 M 487.129 549.666 C 489.845 524.802 459.009 496.848 459.006 496.843 C 459.003 496.848 428.567 521.599 430.884 549.666 C 432.607 570.555 431.471 648.235 431.471 648.245 C 431.476 648.245 486.573 648.485 486.579 648.485 C 486.579 648.475 484.755 571.397 487.129 549.666 M 584.437 549.666 C 587.153 524.803 556.317 496.848 556.314 496.843 C 556.311 496.848 525.875 521.599 528.191 549.666 C 529.915 570.555 528.779 648.235 528.779 648.245 C 528.784 648.245 583.879 648.485 583.885 648.485 C 583.885 648.475 582.063 571.397 584.437 549.666 M 332.296 549.666 C 329.579 524.803 360.415 496.848 360.418 496.843 C 360.421 496.848 390.857 521.599 388.541 549.666 C 386.817 570.555 387.953 648.235 387.953 648.245 C 387.948 648.245 332.853 648.485 332.847 648.485 C 332.847 648.475 334.670 571.397 332.296 549.666 M 99.937 656.705 C 99.937 656.686 99.937 468.264 99.937 468.245 C 99.989 468.245 619.852 468.245 619.904 468.245 C 619.904 468.264 619.904 656.686 619.904 656.705 C 619.852 656.705 99.989 656.705 99.937 656.705 M 74.215 178.256 C 83.386 178.519 92.983 172.137 93.584 163.441 C 90.464 168.860 84.738 172.678 78.097 172.678 C 68.781 172.678 61.266 165.163 61.265 155.847 C 61.265 146.530 70.333 139.367 78.097 139.014 C 78.742 138.985 75.516 139.083 74.215 139.083 C 63.374 139.083 54.629 147.829 54.629 158.670 C 54.629 169.511 64.607 177.981 74.215 178.256 M 46.618 251.007 C 56.113 251.157 90.405 251.466 99.137 251.007 C 99.688 251.227 108.221 234.180 108.270 223.826 C 108.369 202.797 72.854 183.426 72.850 183.422 C 72.847 183.426 37.335 202.797 37.431 223.826 C 37.479 234.178 46.618 251.007 46.618 251.007 M 50.280 679.720 C 50.280 679.678 50.280 254.695 50.280 254.653 C 50.284 254.653 93.379 254.653 93.383 254.653 C 93.383 254.695 93.383 679.678 93.383 679.720 C 93.379 679.720 50.284 679.720 50.280 679.720 M 360.293 161.160 C 391.567 162.054 424.292 140.291 426.340 110.636 C 415.702 129.117 396.176 142.138 373.531 142.138 C 341.762 142.138 316.133 116.510 316.132 84.741 C 316.132 52.971 347.055 28.544 373.531 27.342 C 375.730 27.242 364.729 27.576 360.293 27.575 C 323.324 27.574 293.501 57.399 293.501 94.368 C 293.502 131.337 327.529 160.222 360.293 161.160 M 261.875 407.484 C 297.368 407.484 425.508 408.687 458.169 407.484 C 459.988 408.244 492.300 352.866 492.301 318.429 C 492.301 245.157 359.934 186.061 359.921 186.048 C 359.907 186.061 227.541 245.157 227.541 318.429 C 227.541 352.866 261.875 407.484 261.875 407.484 Z"/>
<path fill="#ffffff" fill-rule="evenodd" stroke="#000000" stroke-width="4" stroke-linecap="round" stroke-linejoin="round" d="M 354.199 191.615 C 348.278 185.689 359.920 164.285 359.921 164.282 C 359.921 164.285 371.564 185.688 365.643 191.615 C 363.217 194.044 356.625 194.044 354.199 191.615 M 611.545 354.526 C 611.545 354.524 611.545 330.947 611.545 330.944 C 611.552 330.944 683.426 330.944 683.434 330.944 C 683.434 330.947 683.434 354.524 683.434 354.526 C 683.432 354.528 666.040 367.619 666.038 367.621 C 666.034 367.621 628.944 367.621 628.940 367.621 C 628.938 367.619 611.546 354.528 611.545 354.526 M 36.566 354.526 C 36.566 354.524 36.566 330.947 36.566 330.944 C 36.574 330.944 108.448 330.944 108.455 330.944 C 108.455 330.947 108.455 354.524 108.455 354.526 C 108.454 354.528 91.061 367.619 91.059 367.621 C 91.056 367.621 53.966 367.621 53.962 367.621 C 53.961 367.619 36.568 354.528 36.566 354.526 Z"/>
<path fill="none" stroke="#000000" stroke-width="1" stroke-linecap="butt" stroke-linejoin="round" d="M 193.925 549.666 C 196.641 524.802 165.805 496.848 165.802 496.843 "/>
<path fill="none" stroke="#000000" stroke-width="1" stroke-linecap="butt" stroke-linejoin="round" d="M 165.802 496.843 C 165.799 496.848 135.363 521.599 137.679 549.666 "/>
<path fill="none" stroke="#000000" stroke-width="1" stroke-linecap="butt" stroke-linejoin="round" d="M 137.679 549.666 C 139.403 570.555 138.266 648.235 138.266 648.245 "/>
<path fill="none" stroke="#000000" stroke-width="1" stroke-linecap="butt" stroke-linejoin="round" d="M 138.266 648.245 C 138.271 648.245 193.368 648.485 193.373 648.485 "/>
<path fill="none" stroke="#000000" stroke-width="1" stroke-linecap="butt" stroke-linejoin="round" d="M 193.373 648.485 C 193.374 648.475 191.551 571.397 193.925 549.666 "/>
<path fill="none" stroke="#000000" stroke-width="1" stroke-linecap="butt" stroke-linejoin="round" d="M 291.233 549.666 C 293.949 524.802 263.113 496.848 263.110 496.843 "/>
<path fill="none" stroke="#000000" stroke-width="1" stroke-linecap="butt" stroke-linejoin="round" d="M 263.110 496.843 C 263.107 496.848 232.670 521.598 234.986 549.666 "/>
<path fill="none" stroke="#000000" stroke-width="1" stroke-linecap="butt" stroke-linejoin="round" d="M 234.986 549.666 C 236.710 570.555 235.574 648.235 235.575 648.245 "/>
<path fill="none" stroke="#000000" stroke-width="1" stroke-linecap="butt" stroke-linejoin="round" d="M 235.575 648.245 C 235.580 648.245 290.676 648.485 290.681 648.485 "/>
<path fill="none" stroke="#000000" stroke-width="1" stroke-linecap="butt" stroke-linejoin="round" d="M 290.681 648.485 C 290.681 648.475 288.859 571.397 291.233 549.666 "/>
<path fill="none" stroke="#000000" stroke-width="1" stroke-linecap="butt" stroke-linejoin="round" d="M 487.129 549.666 C 489.845 524.802 459.009 496.848 459.006 496.843 "/>
<path fill="none" stroke="#000000" stroke-width="1" stroke-linecap="butt" stroke-linejoin="round" d="M 459.006 496.843 C 459.003 496.848 428.567 521.599 430.884 549.666 "/>
<path fill="none" stroke="#000000" stroke-width="1" stroke-linecap="butt" stroke-linejoin="round" d="M 430.884 549.666 C 432.607 570.555 431.471 648.235 431.471 648.245 "/>
<path fill="none" stroke="#000000" stroke-width="1" stroke-linecap="butt" stroke-linejoin="round" d="M 431.471 648.245 C 431.476 648.245 486.573 648.485 486.579 648.485 "/>
<path fill="none" stroke="#000000" stroke-width="1" stroke-linecap="butt" stroke-linejoin="round" d="M 486.579 648.485 C 486.579 648.475 484.755 571.397 487.129 549.666 "/>
<path fill="none" stroke="#000000" stroke-width="1" stroke-linecap="butt" stroke-linejoin="round" d="M 584.437 549.666 C 587.153 524.803 556.317 496.848 556.314 496.843 "/>
<path fill="none" stroke="#000000" stroke-width="1" stroke-linecap="butt" stroke-linejoin="round" d="M 556.314 496.843 C 556.311 496.848 525.875 521.599 528.191 549.666 "/>
<path fill="none" stroke="#000000" stroke-width="1" stroke-linecap="butt" stroke-linejoin="round" d="M 528.191 549.666 C 529.915 570.555 528.779 648.235 528.779 648.245 "/>
<path fill="none" stroke="#000000" stroke-width="1" stroke-linecap="butt" stroke-linejoin="round" d="M 528.779 648.245 C 528.784 648.245 583.879 648.485 583.885 648.485 "/>
<path fill="none" stroke="#000000" stroke-width="1" stroke-linecap="butt" stroke-linejoin="round" d="M 583.885 648.485 C 583.885 648.475 582.063 571.397 584.437 549.666 "/>
<path fill="none" stroke="#000000" stroke-width="1" stroke-linecap="butt" stroke-linejoin="round" d="M 332.296 549.666 C 329.579 524.803 360.415 496.848 360.418 496.843 "/>
<path fill="none" stroke="#000000" stroke-width="1" stroke-linecap="butt" stroke-linejoin="round" d="M 360.418 496.843 C 360.421 496.848 390.857 521.599 388.541 549.666 "/>
<path fill="none" stroke="#000000" stroke-width="1" stroke-linecap="butt" stroke-linejoin="round" d="M 388.541 549.666 C 386.817 570.555 387.953 648.235 387.953 648.245 "/>
<path fill="none" stroke="#000000" stroke-width="1" stroke-linecap="butt" stroke-linejoin="round" d="M 387.953 648.245 C 387.948 648.245 332.853 648.485 332.847 648.485 "/>
<path fill="none" stroke="#000000" stroke-width="1" stroke-linecap="butt" stroke-linejoin="round" d="M 332.847 648.485 C 332.847 648.475 334.670 571.397 332.296 549.666 "/>
<path fill="#000000" fill-rule="evenodd" stroke="none" d="M 193.925 549.666 C 196.641 524.802 165.805 496.848 165.802 496.843 C 165.799 496.848 135.363 521.599 137.679 549.666 C 139.403 570.555 138.266 648.235 138.266 648.245 C 138.271 648.245 193.368 648.485 193.373 648.485 C 193.374 648.475 191.551 571.397 193.925 549.666 M 291.233 549.666 C 293.949 524.802 263.113 496.848 263.110 496.843 C 263.107 496.848 232.670 521.598 234.986 549.666 C 236.710 570.555 235.574 648.235 235.575 648.245 C 235.580 648.245 290.676 648.485 290.681 648.485 C 290.681 648.475 288.859 571.397 291.233 549.666 M 487.129 549.666 C 489.845 524.802 459.009 496.848 459.006 496.843 C 459.003 496.848 428.567 521.599 430.884 549.666 C 432.607 570.555 431.471 648.235 431.471 648.245 C 431.476 648.245 486.573 648.485 486.579 648.485 C 486.579 648.475 484.755 571.397 487.129 549.666 M 584.437 549.666 C 587.153 524.803 556.317 496.848 556.314 496.843 C 556.311 496.848 525.875 521.599 528.191 549.666 C 529.915 570.555 528.779 648.235 528.779 648.245 C 528.784 648.245 583.879 648.485 583.885 648.485 C 583.885 648.475 582.063 571.397 584.437 549.666 M 332.296 549.666 C 329.579 524.803 360.415 496.848 360.418 496.843 C 360.421 496.848 390.857 521.599 388.541 549.666 C 386.817 570.555 387.953 648.235 387.953 648.245 C 387.948 648.245 332.853 648.485 332.847 648.485 C 332.847 648.475 334.670 571.397 332.296 549.666 Z"/>
</g>
<g id="specs">
<path fill="#ff00ff" fill-rule="evenodd" stroke="none" d="M 281.180 398.547 C 281.196 398.547 438.804 398.547 438.820 398.547 C 438.820 398.532 438.820 240.924 438.820 240.908 C 438.804 240.908 281.196 240.908 281.180 240.908 C 281.180 240.924 281.180 398.532 281.180 398.547 Z"/>
<path fill="#ff0000" fill-rule="evenodd" stroke="none" d="M 360.000 681.215 C 360.001 681.218 372.432 716.024 372.433 716.027 C 372.432 716.026 360.001 704.460 360.000 704.459 C 359.999 704.460 347.568 716.026 347.567 716.027 C 347.568 716.024 359.999 681.218 360.000 681.215 Z"/>
<path fill="#0000ff" fill-rule="evenodd" stroke="none" d="M 360.000 3.437 C 360.001 3.439 367.221 23.657 367.222 23.659 C 367.221 23.659 360.001 16.941 360.000 16.940 C 359.999 16.941 352.779 23.659 352.778 23.659 C 352.779 23.657 359.999 3.439 360.000 3.437 Z"/>
<path fill="#00ff00" fill-rule="evenodd" stroke="none" d="M 36.212 453.977 C 36.214 453.976 56.396 446.654 56.398 446.653 C 56.397 446.654 49.715 453.908 49.715 453.909 C 49.715 453.910 56.470 461.096 56.471 461.097 C 56.469 461.096 36.214 453.978 36.212 453.977 Z"/>
<path fill="#ffff00" fill-rule="evenodd" stroke="none" d="M 118.365 686.563 C 118.366 686.561 127.326 667.052 127.327 667.050 C 127.327 667.051 127.799 676.902 127.799 676.903 C 127.800 676.903 137.660 677.142 137.661 677.142 C 137.659 677.143 118.367 686.562 118.365 686.563 Z"/>
<path fill="#ffff00" fill-rule="evenodd" stroke="none" d="M 602.961 686.324 C 602.960 686.322 593.610 666.996 593.609 666.994 C 593.609 666.995 593.334 676.854 593.334 676.855 C 593.333 676.855 583.480 677.292 583.479 677.292 C 583.481 677.293 602.959 686.323 602.961 686.324 Z"/>
<path fill="#00ff00" fill-rule="evenodd" stroke="none" d="M 682.631 453.977 C 682.629 453.976 662.448 446.654 662.446 446.653 C 662.446 446.654 669.128 453.908 669.129 453.909 C 669.128 453.910 662.374 461.096 662.373 461.097 C 662.375 461.096 682.629 453.978 682.631 453.977 Z"/>
<path fill="#00ffff" fill-rule="evenodd" stroke="none" d="M 491.069 271.872 C 491.068 271.874 479.662 290.063 479.661 290.064 C 479.661 290.063 480.466 280.233 480.466 280.232 C 480.465 280.232 470.719 278.722 470.718 278.721 C 470.720 278.721 491.067 271.872 491.069 271.872 Z"/>
<path fill="#00ffff" fill-rule="evenodd" stroke="none" d="M 228.806 271.872 C 228.807 271.874 240.212 290.063 240.214 290.064 C 240.214 290.063 239.409 280.233 239.409 280.232 C 239.410 280.232 249.156 278.722 249.157 278.721 C 249.155 278.721 228.808 271.872 228.806 271.872 Z"/>
<path fill="#be0027" fill-rule="evenodd" stroke="none" d="M 359.957 691.817 C 359.958 691.815 369.002 666.491 369.003 666.489 C 369.002 666.489 359.958 674.904 359.957 674.905 C 359.957 674.904 350.913 666.489 350.912 666.489 C 350.913 666.491 359.957 691.815 359.957 691.817 Z"/>
</g>
</g>
</svg>
