<?xml version="1.0" encoding="utf-8"?>
<!-- Generator: Moho 12.5 build 22414 -->
<!DOCTYPE svg PUBLIC "-//W3C//DTD SVG 1.1//EN" "http://www.w3.org/Graphics/SVG/1.1/DTD/svg11.dtd">
<svg version="1.1" id="Frame_0" xmlns="http://www.w3.org/2000/svg" xmlns:xlink="http://www.w3.org/1999/xlink" width="720px" height="720px">
<g id="muscle_arm">
<g id="muscle_arm">
<path fill="#000000" fill-rule="evenodd" stroke="#ffffff" stroke-width="4" stroke-linecap="round" stroke-linejoin="round" d="M 460.879 191.928 C 460.872 191.928 416.812 213.571 391.859 196.608 C 386.155 192.729 384.642 182.537 384.641 182.535 C 384.641 182.538 392.903 207.938 382.103 210.854 C 349.290 219.715 298.861 219.939 287.275 206.170 C 283.300 201.448 285.526 173.655 285.526 173.652 C 285.521 173.648 247.019 146.324 244.099 134.469 C 238.521 111.834 274.429 45.788 288.343 34.989 C 306.776 20.683 405.321 7.784 431.233 15.349 C 451.125 21.155 493.768 59.557 517.197 85.130 C 555.757 127.217 600.346 203.120 616.938 237.633 C 642.242 290.267 694.783 462.294 700.551 502.654 C 702.283 514.775 712.071 573.543 701.409 586.109 C 696.368 592.050 663.323 596.402 663.319 596.403 C 663.293 596.410 514.280 654.281 398.095 667.033 C 332.586 674.223 295.137 671.357 243.393 663.077 C 212.771 658.177 155.353 637.881 155.344 637.878 C 155.335 637.881 126.601 680.468 61.500 668.808 C 3.256 658.375 18.555 537.104 22.624 404.062 C 25.112 322.708 95.718 313.579 155.498 324.358 C 220.576 336.093 231.142 390.061 231.149 390.068 C 231.149 390.068 231.388 390.023 231.424 389.989 C 251.928 370.504 324.557 348.760 362.274 347.695 C 417.768 346.128 453.590 383.561 452.303 380.623 C 445.979 366.176 436.425 337.699 438.606 303.354 C 442.043 249.207 460.876 191.939 460.879 191.928 Z"/>
<path fill="none" stroke="#ffffff" stroke-width="4" stroke-linecap="round" stroke-linejoin="round" d="M 231.424 389.989 C 235.736 405.531 240.048 421.072 244.360 436.614 M 232.487 520.200 C 232.503 520.207 306.430 582.948 390.193 586.481 C 454.415 589.189 473.867 561.100 515.704 548.409 M 155.344 637.878 C 155.352 637.866 181.231 571.197 232.487 520.200 C 255.875 496.932 263.374 497.248 278.817 485.772 M 663.319 596.403 C 618.730 595.036 588.780 581.753 529.553 592.301 M 338.564 70.688 C 338.562 70.694 315.529 100.843 320.451 130.854 C 323.071 146.827 359.089 174.306 359.093 174.310 C 359.096 174.311 376.125 179.794 384.641 182.535 M 318.024 172.847 C 318.021 172.843 286.439 149.134 283.704 134.061 C 279.070 108.524 298.636 73.085 298.638 73.078 M 402.128 167.136 C 402.124 167.132 360.938 136.424 358.599 126.218 C 350.898 92.618 376.082 68.171 376.084 68.165 M 285.526 173.652 C 285.529 173.652 308.127 171.816 318.024 172.847 C 332.032 174.306 359.089 174.310 359.093 174.310 C 359.096 174.310 379.496 174.877 387.934 172.919 C 392.413 171.880 402.127 167.137 402.128 167.136 C 402.131 167.135 426.721 165.155 433.872 155.151 C 446.547 137.417 441.545 102.238 430.875 95.079 C 410.302 81.276 385.044 102.578 408.346 123.408 M 452.303 380.623 C 479.793 404.490 488.154 411.827 517.805 477.656 "/>
</g>
<g id="specs">
<path fill="#ff00ff" fill-rule="evenodd" stroke="none" d="M 272.576 556.189 C 272.594 556.189 447.961 556.189 447.979 556.189 C 447.979 556.171 447.979 380.804 447.979 380.787 C 447.961 380.787 272.594 380.787 272.576 380.787 C 272.576 380.804 272.576 556.171 272.576 556.189 Z"/>
<path fill="#ff0000" fill-rule="evenodd" stroke="none" d="M 143.403 489.823 C 143.398 489.825 92.414 508.034 92.409 508.035 C 92.411 508.034 109.353 489.825 109.354 489.823 C 109.353 489.822 92.411 471.613 92.409 471.611 C 92.414 471.613 143.398 489.822 143.403 489.823 Z"/>
<path fill="#0000ff" fill-rule="evenodd" stroke="none" d="M 362.519 1.817 C 362.520 1.820 373.097 31.436 373.098 31.439 C 373.097 31.438 362.520 21.597 362.519 21.596 C 362.518 21.597 351.941 31.438 351.940 31.439 C 351.941 31.436 362.518 1.820 362.519 1.817 Z"/>
<path fill="#00ffff" fill-rule="evenodd" stroke="none" d="M 481.773 25.033 C 481.772 25.036 472.717 55.152 472.716 55.155 C 472.716 55.153 470.039 40.956 470.039 40.955 C 470.037 40.955 455.685 42.602 455.683 42.602 C 455.686 42.600 481.770 25.035 481.773 25.033 Z"/>
<path fill="#00ffff" fill-rule="evenodd" stroke="none" d="M 258.561 39.512 C 258.563 39.514 273.276 68.157 273.278 68.160 C 273.278 68.158 273.335 53.366 273.335 53.364 C 273.336 53.364 288.095 52.355 288.097 52.355 C 288.094 52.354 258.564 39.513 258.561 39.512 Z"/>
<path fill="#00ff00" fill-rule="evenodd" stroke="none" d="M 647.449 255.400 C 647.446 255.402 626.628 278.973 626.626 278.976 C 626.627 278.974 630.132 264.959 630.132 264.957 C 630.131 264.957 616.404 260.451 616.403 260.451 C 616.406 260.451 647.445 255.401 647.449 255.400 Z"/>
<path fill="#00ff00" fill-rule="evenodd" stroke="none" d="M 417.676 283.829 C 417.679 283.829 448.690 278.607 448.693 278.606 C 448.692 278.607 437.149 287.296 437.148 287.296 C 437.149 287.298 444.983 299.436 444.984 299.437 C 444.981 299.436 417.678 283.831 417.676 283.829 Z"/>
<path fill="#ffff00" fill-rule="evenodd" stroke="none" d="M 237.344 677.440 C 237.345 677.437 246.131 647.241 246.131 647.238 C 246.132 647.240 248.935 661.412 248.935 661.414 C 248.936 661.413 263.274 659.638 263.275 659.638 C 263.273 659.640 237.347 677.438 237.344 677.440 Z"/>
<path fill="#ffff00" fill-rule="evenodd" stroke="none" d="M 524.274 659.141 C 524.273 659.138 515.488 628.942 515.487 628.939 C 515.487 628.941 512.684 643.113 512.683 643.115 C 512.682 643.114 498.344 641.339 498.343 641.339 C 498.346 641.341 524.271 659.139 524.274 659.141 Z"/>
<path fill="#ff0000" fill-rule="evenodd" stroke="none" d="M 362.837 682.191 C 362.839 682.194 375.736 716.688 375.737 716.692 C 375.736 716.691 363.181 705.350 363.180 705.349 C 363.179 705.350 350.964 717.057 350.963 717.058 C 350.964 717.055 362.836 682.194 362.837 682.191 Z"/>
<path fill="#be0027" fill-rule="evenodd" stroke="none" d="M 4.797 486.949 C 4.799 486.950 30.123 495.994 30.126 495.995 C 30.125 495.994 21.710 486.950 21.709 486.949 C 21.710 486.948 30.125 477.904 30.126 477.903 C 30.123 477.904 4.799 486.948 4.797 486.949 Z"/>
</g>
</g>
</svg>
