<?xml version="1.0" encoding="utf-8"?>
<!-- Generator: Moho 12.5 build 22414 -->
<!DOCTYPE svg PUBLIC "-//W3C//DTD SVG 1.1//EN" "http://www.w3.org/Graphics/SVG/1.1/DTD/svg11.dtd">
<svg version="1.1" id="Frame_0" xmlns="http://www.w3.org/2000/svg" xmlns:xlink="http://www.w3.org/1999/xlink" width="720px" height="720px">
<g id="muscle_arm">
<g id="muscle_arm">
<path fill="#ffffff" fill-rule="evenodd" stroke="#000000" stroke-width="4" stroke-linecap="round" stroke-linejoin="round" d="M 453.048 215.524 C 453.041 215.525 408.981 237.168 384.029 220.204 C 378.324 216.326 376.811 206.133 376.810 206.132 C 376.810 206.135 385.072 231.534 374.272 234.450 C 341.459 243.312 291.031 243.535 279.444 229.767 C 275.470 225.044 277.695 197.252 277.695 197.249 C 277.691 197.245 239.189 169.920 236.268 158.065 C 230.691 135.430 266.598 69.385 280.512 58.585 C 298.946 44.279 397.490 31.381 423.402 38.945 C 443.294 44.752 485.937 83.153 509.367 108.726 C 547.926 150.813 592.515 226.716 609.107 261.229 C 634.411 313.863 686.952 485.891 692.720 526.251 C 694.452 538.372 704.240 597.140 693.578 609.706 C 688.537 615.646 655.492 619.999 655.488 620.000 C 655.462 620.007 506.449 677.877 390.264 690.629 C 324.756 697.819 287.306 694.954 235.562 686.673 C 204.940 681.773 147.522 661.477 147.513 661.474 C 147.504 661.477 118.770 704.064 53.669 692.404 C -4.575 681.972 10.724 560.701 14.793 427.658 C 17.281 346.304 87.887 337.175 147.667 347.955 C 212.745 359.689 223.311 413.658 223.318 413.664 C 223.318 413.664 223.557 413.619 223.593 413.585 C 244.098 394.100 316.726 372.356 354.443 371.291 C 409.937 369.725 445.759 407.158 444.473 404.219 C 438.148 389.773 428.595 361.296 430.775 326.951 C 434.212 272.803 453.046 215.535 453.048 215.524 Z"/>
<path fill="none" stroke="#000000" stroke-width="4" stroke-linecap="round" stroke-linejoin="round" d="M 223.593 413.585 C 227.905 429.127 232.217 444.669 236.529 460.211 M 224.657 543.797 C 224.672 543.803 298.599 606.544 382.363 610.077 C 446.584 612.786 466.036 584.696 507.873 572.006 M 147.513 661.474 C 147.521 661.463 173.400 594.793 224.657 543.797 C 248.044 520.528 255.543 520.845 270.986 509.369 M 655.488 620.000 C 610.900 618.632 580.949 605.349 521.722 615.897 M 330.733 94.284 C 330.731 94.290 307.699 124.440 312.620 154.450 C 315.240 170.424 351.259 197.902 351.262 197.907 C 351.265 197.908 368.294 203.390 376.810 206.132 M 310.193 196.443 C 310.190 196.439 278.608 172.731 275.873 157.658 C 271.240 132.120 290.805 96.681 290.807 96.675 M 394.297 190.732 C 394.293 190.728 353.107 160.020 350.768 149.814 C 343.067 116.215 368.251 91.768 368.253 91.762 M 277.695 197.249 C 277.698 197.248 300.296 195.412 310.193 196.443 C 324.202 197.902 351.258 197.907 351.262 197.907 C 351.265 197.907 371.665 198.474 380.103 196.515 C 384.582 195.476 394.296 190.733 394.297 190.732 C 394.301 190.731 418.890 188.752 426.041 178.747 C 438.716 161.014 433.715 125.835 423.044 118.675 C 402.471 104.873 377.213 126.175 400.515 147.004 M 444.473 404.219 C 471.962 428.086 480.324 435.423 509.975 501.253 "/>
</g>
<g id="specs">
<path fill="#ff00ff" fill-rule="evenodd" stroke="none" d="M 264.746 579.785 C 264.763 579.785 440.131 579.785 440.148 579.785 C 440.148 579.768 440.148 404.401 440.148 404.383 C 440.131 404.383 264.763 404.383 264.746 404.383 C 264.746 404.401 264.746 579.768 264.746 579.785 Z"/>
<path fill="#ff0000" fill-rule="evenodd" stroke="none" d="M 135.573 513.420 C 135.567 513.422 84.583 531.630 84.578 531.632 C 84.580 531.630 101.522 513.422 101.524 513.420 C 101.522 513.418 84.580 495.209 84.578 495.207 C 84.583 495.209 135.567 513.418 135.573 513.420 Z"/>
<path fill="#0000ff" fill-rule="evenodd" stroke="none" d="M 354.688 3.205 C 354.689 3.208 365.266 32.824 365.267 32.827 C 365.266 32.826 354.689 22.984 354.688 22.984 C 354.687 22.984 344.110 32.826 344.109 32.827 C 344.110 32.824 354.687 3.208 354.688 3.205 Z"/>
<path fill="#00ffff" fill-rule="evenodd" stroke="none" d="M 473.942 48.629 C 473.941 48.632 464.886 78.748 464.885 78.751 C 464.885 78.750 462.208 64.553 462.208 64.551 C 462.207 64.551 447.854 66.198 447.852 66.198 C 447.855 66.197 473.939 48.631 473.942 48.629 Z"/>
<path fill="#00ffff" fill-rule="evenodd" stroke="none" d="M 250.730 63.108 C 250.732 63.111 265.446 91.753 265.447 91.756 C 265.447 91.755 265.504 76.962 265.504 76.960 C 265.506 76.960 280.264 75.952 280.266 75.952 C 280.263 75.950 250.733 63.109 250.730 63.108 Z"/>
<path fill="#00ff00" fill-rule="evenodd" stroke="none" d="M 639.618 278.996 C 639.616 278.999 618.798 302.570 618.795 302.572 C 618.796 302.570 622.301 288.555 622.301 288.554 C 622.300 288.553 608.573 284.048 608.572 284.047 C 608.575 284.047 639.615 278.997 639.618 278.996 Z"/>
<path fill="#00ff00" fill-rule="evenodd" stroke="none" d="M 409.845 307.426 C 409.848 307.425 440.859 302.203 440.862 302.203 C 440.861 302.204 429.319 310.892 429.317 310.893 C 429.318 310.894 437.152 323.032 437.153 323.033 C 437.150 323.032 409.848 307.427 409.845 307.426 Z"/>
<path fill="#ffff00" fill-rule="evenodd" stroke="none" d="M 229.513 701.036 C 229.514 701.033 238.300 670.838 238.301 670.834 C 238.301 670.836 241.104 685.008 241.104 685.010 C 241.106 685.010 255.443 683.234 255.444 683.234 C 255.442 683.236 229.516 701.034 229.513 701.036 Z"/>
<path fill="#ffff00" fill-rule="evenodd" stroke="none" d="M 516.443 682.737 C 516.442 682.734 507.657 652.539 507.656 652.536 C 507.656 652.537 504.853 666.710 504.853 666.711 C 504.851 666.711 490.514 664.936 490.512 664.935 C 490.515 664.937 516.441 682.735 516.443 682.737 Z"/>
</g>
</g>
</svg>
