<?xml version="1.0" encoding="utf-8"?>
<!-- Generator: Moho 12.3 build 22017 -->
<!DOCTYPE svg PUBLIC "-//W3C//DTD SVG 1.1//EN" "http://www.w3.org/Graphics/SVG/1.1/DTD/svg11.dtd">
<svg version="1.1" id="Frame_0" xmlns="http://www.w3.org/2000/svg" xmlns:xlink="http://www.w3.org/1999/xlink" width="720px" height="720px">
<g id="muscle_arm">
<g id="muscle_arm">
<path fill="#ffffff" fill-rule="evenodd" stroke="#000000" stroke-width="6" stroke-linecap="round" stroke-linejoin="round" d="M 453.048 208.605 C 453.041 208.606 408.981 230.248 384.029 213.285 C 378.324 209.407 376.811 199.214 376.810 199.213 C 376.810 199.215 385.072 224.615 374.272 227.531 C 341.459 236.393 291.031 236.616 279.444 222.848 C 275.470 218.125 277.695 190.333 277.695 190.329 C 277.691 190.325 239.189 163.001 236.268 151.146 C 230.691 128.511 266.598 62.465 280.512 51.666 C 298.946 37.360 397.490 24.461 423.402 32.026 C 443.294 37.833 485.937 76.234 509.367 101.807 C 547.926 143.894 592.515 219.797 609.107 254.310 C 634.411 306.944 686.952 478.971 692.720 519.332 C 694.452 531.453 704.240 590.221 693.578 602.786 C 688.537 608.727 655.492 613.080 655.488 613.081 C 655.462 613.088 506.449 670.958 390.264 683.710 C 324.756 690.900 287.306 688.035 235.562 679.754 C 204.940 674.854 147.522 654.558 147.513 654.555 C 147.504 654.558 118.770 697.145 53.669 685.485 C -4.575 675.053 10.724 553.782 14.793 420.739 C 17.281 339.385 87.887 330.256 147.667 341.035 C 212.745 352.770 223.311 406.739 223.318 406.745 C 223.318 406.745 224.433 405.511 224.718 405.316 C 244.137 392.050 317.130 365.315 354.443 364.372 C 409.941 362.970 445.759 400.238 444.473 397.300 C 438.148 382.854 428.595 354.376 430.775 320.032 C 434.212 265.884 453.046 208.616 453.048 208.605 Z"/>
<path fill="none" stroke="#000000" stroke-width="6" stroke-linecap="round" stroke-linejoin="round" d="M 224.718 405.316 C 228.655 421.308 232.592 437.300 236.529 453.292 M 224.657 536.877 C 224.672 536.884 298.599 599.625 382.363 603.158 C 446.584 605.866 466.036 577.777 507.873 565.087 M 147.513 654.555 C 147.521 654.543 173.400 587.874 224.657 536.877 C 248.044 513.609 255.543 513.926 270.986 502.450 M 655.488 613.081 C 610.900 611.713 580.949 598.430 521.722 608.978 M 330.733 87.365 C 330.731 87.371 307.699 117.521 312.620 147.531 C 315.240 163.504 351.259 190.983 351.262 190.988 C 351.265 190.988 368.294 196.471 376.810 199.213 M 310.193 189.524 C 310.190 189.520 278.608 165.812 275.873 150.738 C 271.240 125.201 290.805 89.762 290.807 89.756 M 394.297 183.813 C 394.293 183.809 353.107 153.101 350.768 142.895 C 343.067 109.296 368.251 84.849 368.253 84.843 M 277.695 190.329 C 277.698 190.329 300.296 188.493 310.193 189.524 C 324.202 190.983 351.258 190.987 351.262 190.988 C 351.265 190.987 371.665 191.554 380.103 189.596 C 384.582 188.557 394.296 183.814 394.297 183.813 C 394.301 183.812 421.981 183.436 426.041 171.828 C 431.865 155.178 397.347 132.518 397.344 132.514 C 397.345 132.511 404.930 128.580 411.388 104.501 M 444.473 397.300 C 471.962 421.167 480.324 428.504 509.975 494.333 "/>
</g>
<g id="specs_2">
<path fill="#ff00ff" fill-rule="evenodd" stroke="none" d="M 264.746 572.866 C 264.763 572.866 440.131 572.866 440.148 572.866 C 440.148 572.849 440.148 397.481 440.148 397.464 C 440.131 397.464 264.763 397.464 264.746 397.464 C 264.746 397.481 264.746 572.849 264.746 572.866 Z"/>
<path fill="#ff0000" fill-rule="evenodd" stroke="none" d="M 120.460 482.540 C 128.204 482.540 134.451 488.787 134.451 496.531 C 134.451 504.275 128.204 510.522 120.460 510.522 C 112.716 510.522 106.469 504.275 106.469 496.531 C 106.469 488.787 112.716 482.540 120.460 482.540 Z"/>
<path fill="#ffff00" fill-rule="evenodd" stroke="none" d="M 544.488 642.756 C 544.488 635.012 550.735 628.764 558.479 628.764 C 566.223 628.764 572.470 635.012 572.470 642.756 C 572.470 650.500 566.223 656.747 558.479 656.747 C 550.735 656.747 544.488 650.500 544.488 642.756 M 134.468 644.914 C 134.468 637.170 140.715 630.922 148.459 630.922 C 156.203 630.922 162.450 637.170 162.450 644.914 C 162.450 652.658 156.203 658.905 148.459 658.905 C 140.715 658.905 134.468 652.658 134.468 644.914 Z"/>
<path fill="#00ff00" fill-rule="evenodd" stroke="none" d="M 417.841 304.971 C 417.841 297.227 424.088 290.979 431.832 290.979 C 439.576 290.979 445.823 297.227 445.823 304.971 C 445.823 312.715 439.576 318.962 431.832 318.962 C 424.088 318.962 417.841 312.715 417.841 304.971 M 613.214 304.971 C 613.214 297.227 619.461 290.979 627.205 290.979 C 634.949 290.979 641.196 297.227 641.196 304.971 C 641.196 312.715 634.949 318.962 627.205 318.962 C 619.461 318.962 613.214 312.715 613.214 304.971 Z"/>
<path fill="#00ffff" fill-rule="evenodd" stroke="none" d="M 497.089 77.394 C 504.833 77.394 511.081 83.642 511.081 91.386 C 511.081 99.130 504.833 105.377 497.089 105.377 C 489.345 105.377 483.098 99.130 483.098 91.386 C 483.098 83.642 489.345 77.394 497.089 77.394 Z"/>
<path fill="#00ffff" fill-rule="evenodd" stroke="none" d="M 252.043 79.552 C 259.787 79.552 266.034 85.800 266.034 93.544 C 266.034 101.288 259.787 107.535 252.043 107.535 C 244.299 107.535 238.052 101.288 238.052 93.544 C 238.052 85.800 244.299 79.552 252.043 79.552 Z"/>
<path fill="#0000ff" fill-rule="evenodd" stroke="none" d="M 364.316 17.529 C 372.060 17.529 378.307 23.776 378.307 31.520 C 378.307 39.264 372.060 45.511 364.316 45.511 C 356.572 45.511 350.325 39.264 350.325 31.520 C 350.325 23.776 356.572 17.529 364.316 17.529 Z"/>
</g>
</g>
</svg>
