<?xml version="1.0" encoding="utf-8"?>
<!-- Generator: Moho 12.5 build 22414 -->
<!DOCTYPE svg PUBLIC "-//W3C//DTD SVG 1.1//EN" "http://www.w3.org/Graphics/SVG/1.1/DTD/svg11.dtd">
<svg version="1.1" id="Frame_0" xmlns="http://www.w3.org/2000/svg" xmlns:xlink="http://www.w3.org/1999/xlink" width="720px" height="720px">
<g id="muscle_arm">
<g id="muscle_arm">
<path fill="#ffffff" fill-rule="evenodd" stroke="#000000" stroke-width="4" stroke-linecap="round" stroke-linejoin="round" d="M 453.048 191.928 C 453.041 191.928 408.981 213.571 384.029 196.608 C 378.324 192.729 376.811 182.537 376.810 182.535 C 376.810 182.538 385.072 207.938 374.272 210.854 C 341.459 219.715 291.031 219.939 279.444 206.170 C 275.470 201.448 277.695 173.655 277.695 173.652 C 277.691 173.648 239.189 146.324 236.268 134.469 C 230.691 111.834 266.598 45.788 280.512 34.989 C 298.946 20.683 397.490 7.784 423.402 15.349 C 443.294 21.156 485.937 59.557 509.367 85.130 C 547.926 127.217 592.515 203.120 609.107 237.633 C 634.411 290.267 686.952 462.294 692.720 502.654 C 694.452 514.775 704.240 573.543 693.578 586.109 C 688.537 592.050 655.492 596.402 655.488 596.403 C 655.462 596.410 506.449 654.281 390.264 667.033 C 324.756 674.223 287.306 671.357 235.562 663.077 C 204.940 658.177 147.522 637.881 147.513 637.878 C 147.504 637.881 118.770 680.468 53.669 668.808 C -4.575 658.375 10.724 537.104 14.793 404.062 C 17.281 322.708 87.887 313.579 147.667 324.358 C 212.745 336.093 223.311 390.061 223.318 390.068 C 223.318 390.068 223.557 390.023 223.593 389.989 C 244.098 370.504 316.726 348.760 354.443 347.695 C 409.937 346.129 445.759 383.561 444.473 380.623 C 438.148 366.176 428.595 337.699 430.775 303.354 C 434.212 249.207 453.046 191.939 453.048 191.928 Z"/>
<path fill="none" stroke="#000000" stroke-width="4" stroke-linecap="round" stroke-linejoin="round" d="M 223.593 389.989 C 227.905 405.531 232.217 421.073 236.529 436.614 M 224.657 520.200 C 224.672 520.207 298.599 582.948 382.363 586.481 C 446.584 589.189 466.036 561.100 507.873 548.409 M 147.513 637.878 C 147.521 637.866 173.400 571.197 224.657 520.200 C 248.044 496.932 255.543 497.248 270.986 485.772 M 655.488 596.403 C 610.900 595.036 580.949 581.753 521.722 592.301 M 330.733 70.688 C 330.731 70.694 307.699 100.844 312.620 130.854 C 315.240 146.827 351.259 174.306 351.262 174.310 C 351.265 174.311 368.294 179.794 376.810 182.535 M 310.193 172.847 C 310.190 172.843 278.608 149.134 275.873 134.061 C 271.240 108.524 290.805 73.085 290.807 73.078 M 394.297 167.136 C 394.293 167.132 353.107 136.424 350.768 126.218 C 343.067 92.618 368.251 68.171 368.253 68.166 M 277.695 173.652 C 277.698 173.652 300.296 171.816 310.193 172.847 C 324.202 174.306 351.258 174.310 351.262 174.310 C 351.265 174.310 371.665 174.877 380.103 172.919 C 384.582 171.880 394.296 167.137 394.297 167.136 C 394.301 167.135 418.890 165.155 426.041 155.151 C 438.716 137.417 433.715 102.238 423.044 95.079 C 402.471 81.276 377.213 102.579 400.515 123.408 M 444.473 380.623 C 471.962 404.490 480.324 411.827 509.975 477.656 "/>
</g>
<g id="specs">
<path fill="#ff00ff" fill-rule="evenodd" stroke="none" d="M 264.746 556.189 C 264.763 556.189 440.131 556.189 440.148 556.189 C 440.148 556.171 440.148 380.804 440.148 380.787 C 440.131 380.787 264.763 380.787 264.746 380.787 C 264.746 380.804 264.746 556.171 264.746 556.189 Z"/>
<path fill="#ff0000" fill-rule="evenodd" stroke="none" d="M 135.573 489.823 C 135.567 489.825 84.583 508.034 84.578 508.035 C 84.580 508.034 101.522 489.825 101.524 489.823 C 101.522 489.822 84.580 471.613 84.578 471.611 C 84.583 471.613 135.567 489.822 135.573 489.823 Z"/>
<path fill="#0000ff" fill-rule="evenodd" stroke="none" d="M 354.688 1.817 C 354.689 1.820 365.266 31.436 365.267 31.439 C 365.266 31.438 354.689 21.596 354.688 21.595 C 354.687 21.596 344.110 31.438 344.109 31.439 C 344.110 31.436 354.687 1.820 354.688 1.817 Z"/>
<path fill="#00ffff" fill-rule="evenodd" stroke="none" d="M 473.942 25.033 C 473.941 25.036 464.886 55.152 464.885 55.155 C 464.885 55.153 462.208 40.956 462.208 40.955 C 462.207 40.955 447.854 42.602 447.852 42.602 C 447.855 42.600 473.939 25.035 473.942 25.033 Z"/>
<path fill="#00ffff" fill-rule="evenodd" stroke="none" d="M 250.730 39.512 C 250.732 39.515 265.446 68.157 265.447 68.160 C 265.447 68.158 265.504 53.366 265.504 53.364 C 265.506 53.364 280.264 52.355 280.266 52.355 C 280.263 52.354 250.733 39.513 250.730 39.512 Z"/>
<path fill="#00ff00" fill-rule="evenodd" stroke="none" d="M 639.618 255.400 C 639.616 255.402 618.798 278.973 618.795 278.976 C 618.796 278.974 622.301 264.959 622.301 264.957 C 622.300 264.957 608.573 260.451 608.572 260.451 C 608.575 260.451 639.615 255.401 639.618 255.400 Z"/>
<path fill="#00ff00" fill-rule="evenodd" stroke="none" d="M 409.845 283.829 C 409.848 283.829 440.859 278.607 440.862 278.606 C 440.861 278.607 429.319 287.296 429.317 287.297 C 429.318 287.298 437.152 299.436 437.153 299.437 C 437.150 299.436 409.848 283.831 409.845 283.829 Z"/>
<path fill="#ffff00" fill-rule="evenodd" stroke="none" d="M 229.513 677.440 C 229.514 677.437 238.300 647.241 238.301 647.238 C 238.301 647.240 241.104 661.412 241.104 661.414 C 241.106 661.413 255.443 659.638 255.444 659.638 C 255.442 659.640 229.516 677.438 229.513 677.440 Z"/>
<path fill="#ffff00" fill-rule="evenodd" stroke="none" d="M 516.443 659.141 C 516.442 659.138 507.657 628.942 507.656 628.939 C 507.656 628.941 504.853 643.113 504.853 643.115 C 504.851 643.114 490.514 641.339 490.512 641.339 C 490.515 641.341 516.441 659.139 516.443 659.141 Z"/>
<path fill="#ff0000" fill-rule="evenodd" stroke="none" d="M 355.007 682.191 C 355.008 682.194 367.905 716.688 367.906 716.692 C 367.905 716.691 355.350 705.350 355.349 705.349 C 355.348 705.351 343.133 717.057 343.132 717.058 C 343.133 717.055 355.006 682.194 355.007 682.191 Z"/>
</g>
</g>
</svg>
