<?xml version="1.0" encoding="utf-8"?>
<!-- Generator: Moho 13.0.3 build 635 -->
<!DOCTYPE svg PUBLIC "-//W3C//DTD SVG 1.1//EN" "http://www.w3.org/Graphics/SVG/1.1/DTD/svg11.dtd">
<svg version="1.1" id="Frame_0" xmlns="http://www.w3.org/2000/svg" xmlns:xlink="http://www.w3.org/1999/xlink" width="720px" height="720px">
<g id="muscle_arm">
<g id="muscle_arm">
<path fill="#ffffff" fill-rule="evenodd" stroke="#000000" stroke-width="6" stroke-linecap="round" stroke-linejoin="round" d="M 453.048 208.605 C 453.041 208.606 408.981 230.248 384.029 213.285 C 378.324 209.407 376.811 199.214 376.810 199.213 C 376.810 199.215 385.072 224.615 374.272 227.531 C 341.459 236.393 291.031 236.616 279.444 222.848 C 275.470 218.125 277.695 190.333 277.695 190.329 C 277.691 190.325 239.189 163.001 236.268 151.146 C 230.691 128.511 266.598 62.465 280.512 51.666 C 298.946 37.360 397.490 24.461 423.402 32.026 C 443.294 37.833 485.937 76.234 509.367 101.807 C 547.926 143.894 592.515 219.797 609.107 254.310 C 634.411 306.944 686.952 478.971 692.720 519.332 C 694.452 531.453 704.240 590.221 693.578 602.786 C 688.537 608.727 655.492 613.080 655.488 613.081 C 655.462 613.088 506.449 670.958 390.264 683.710 C 324.756 690.900 287.306 688.035 235.562 679.754 C 204.940 674.854 147.522 654.558 147.513 654.555 C 147.504 654.558 118.770 697.145 53.669 685.485 C -4.575 675.053 10.724 553.781 14.793 420.739 C 17.281 339.385 87.887 330.256 147.667 341.035 C 212.745 352.770 223.311 406.739 223.318 406.745 C 223.318 406.745 223.557 406.700 223.593 406.666 C 244.098 387.181 316.726 365.437 354.443 364.372 C 409.937 362.806 445.759 400.238 444.473 397.300 C 438.148 382.854 428.595 354.376 430.775 320.032 C 434.212 265.884 453.046 208.616 453.048 208.605 Z"/>
<path fill="none" stroke="#000000" stroke-width="6" stroke-linecap="round" stroke-linejoin="round" d="M 223.593 406.666 C 227.905 422.208 232.217 437.750 236.529 453.292 M 224.657 536.877 C 224.672 536.884 298.599 599.625 382.363 603.158 C 446.584 605.866 466.036 577.777 507.873 565.087 M 147.513 654.555 C 147.521 654.543 173.400 587.874 224.657 536.877 C 248.044 513.609 255.543 513.926 270.986 502.450 M 655.488 613.081 C 610.900 611.713 580.949 598.430 521.722 608.978 M 330.733 87.365 C 330.731 87.371 307.699 117.521 312.620 147.531 C 315.240 163.504 351.259 190.983 351.262 190.988 C 351.265 190.988 368.294 196.471 376.810 199.213 M 310.193 189.524 C 310.190 189.520 278.608 165.812 275.873 150.738 C 271.240 125.201 290.805 89.762 290.807 89.756 M 394.297 183.813 C 394.293 183.809 353.107 153.101 350.768 142.895 C 343.067 109.296 368.251 84.849 368.253 84.843 M 277.695 190.329 C 277.698 190.329 300.296 188.493 310.193 189.524 C 324.202 190.983 351.258 190.987 351.262 190.988 C 351.265 190.987 371.665 191.554 380.103 189.596 C 384.582 188.557 394.296 183.814 394.297 183.813 C 394.301 183.812 421.981 183.436 426.041 171.828 C 431.865 155.178 397.347 132.518 397.344 132.514 C 397.345 132.511 404.930 128.580 411.388 104.501 M 444.473 397.300 C 471.962 421.167 480.324 428.504 509.975 494.333 "/>
</g>
<g id="specs">
<path fill="#ff00ff" fill-rule="evenodd" stroke="none" d="M 264.746 572.866 C 264.763 572.866 440.131 572.866 440.148 572.866 C 440.148 572.849 440.148 397.481 440.148 397.464 C 440.131 397.464 264.763 397.464 264.746 397.464 C 264.746 397.481 264.746 572.849 264.746 572.866 Z"/>
<path fill="#ff0000" fill-rule="evenodd" stroke="none" d="M 135.573 506.501 C 135.567 506.502 84.583 524.711 84.578 524.713 C 84.580 524.711 101.522 506.502 101.524 506.501 C 101.522 506.499 84.580 488.290 84.578 488.288 C 84.583 488.290 135.567 506.499 135.573 506.501 Z"/>
<path fill="#0000ff" fill-rule="evenodd" stroke="none" d="M 354.688 11.113 C 354.689 11.116 365.266 40.731 365.267 40.734 C 365.266 40.733 354.689 30.892 354.688 30.891 C 354.687 30.892 344.110 40.733 344.109 40.734 C 344.110 40.731 354.687 11.116 354.688 11.113 Z"/>
<path fill="#00ffff" fill-rule="evenodd" stroke="none" d="M 473.942 41.710 C 473.941 41.713 464.886 71.829 464.885 71.832 C 464.885 71.831 462.208 57.634 462.208 57.632 C 462.207 57.632 447.854 59.279 447.852 59.279 C 447.855 59.278 473.939 41.712 473.942 41.710 Z"/>
<path fill="#00ffff" fill-rule="evenodd" stroke="none" d="M 250.730 56.189 C 250.732 56.192 265.446 84.834 265.447 84.837 C 265.447 84.835 265.504 70.043 265.504 70.041 C 265.506 70.041 280.264 69.032 280.266 69.032 C 280.263 69.031 250.733 56.190 250.730 56.189 Z"/>
<path fill="#00ff00" fill-rule="evenodd" stroke="none" d="M 639.618 272.077 C 639.616 272.080 618.798 295.650 618.795 295.653 C 618.796 295.651 622.301 281.636 622.301 281.635 C 622.300 281.634 608.573 277.129 608.572 277.128 C 608.575 277.128 639.615 272.078 639.618 272.077 Z"/>
<path fill="#00ff00" fill-rule="evenodd" stroke="none" d="M 409.845 300.507 C 409.848 300.506 440.859 295.284 440.862 295.284 C 440.861 295.285 429.319 303.973 429.317 303.974 C 429.318 303.975 437.152 316.113 437.153 316.114 C 437.150 316.113 409.848 300.508 409.845 300.507 Z"/>
<path fill="#ffff00" fill-rule="evenodd" stroke="none" d="M 229.513 694.117 C 229.514 694.114 238.300 663.918 238.301 663.915 C 238.301 663.917 241.104 678.089 241.104 678.091 C 241.106 678.091 255.443 676.315 255.444 676.315 C 255.442 676.317 229.516 694.115 229.513 694.117 Z"/>
<path fill="#ffff00" fill-rule="evenodd" stroke="none" d="M 516.443 675.818 C 516.442 675.815 507.657 645.620 507.656 645.616 C 507.656 645.618 504.853 659.790 504.853 659.792 C 504.851 659.792 490.514 658.016 490.512 658.016 C 490.515 658.018 516.441 675.816 516.443 675.818 Z"/>
</g>
</g>
</svg>
