<?xml version="1.0" encoding="utf-8"?>
<!-- Generator: Moho 12.5 build 22414 -->
<!DOCTYPE svg PUBLIC "-//W3C//DTD SVG 1.1//EN" "http://www.w3.org/Graphics/SVG/1.1/DTD/svg11.dtd">
<svg version="1.1" id="Frame_0" xmlns="http://www.w3.org/2000/svg" xmlns:xlink="http://www.w3.org/1999/xlink" width="720px" height="720px">
<g id="nestboxes_triple_2">
<g id="triple_nest">
<path fill="#ffffff" fill-rule="evenodd" stroke="#000000" stroke-width="4" stroke-linejoin="round" d="M 205.902 355.698 C 205.902 362.234 211.174 367.507 217.710 367.507 C 224.246 367.507 229.518 362.234 229.518 355.698 C 229.518 349.162 224.246 343.890 217.710 343.890 C 211.174 343.890 205.902 349.162 205.902 355.698 Z"/>
</g>
<g id="specs_2">
<path fill="#ff00ff" fill-rule="evenodd" stroke="none" d="M 692.505 271.811 C 692.489 271.811 524.748 271.811 524.731 271.811 C 524.731 271.827 524.731 439.569 524.731 439.586 C 524.748 439.586 692.489 439.586 692.505 439.586 C 692.505 439.569 692.505 271.827 692.505 271.811 Z"/>
<path fill="#ff0000" fill-rule="evenodd" stroke="none" d="M 36.112 355.698 C 36.109 355.699 1.972 367.891 1.969 367.892 C 1.970 367.891 13.314 355.699 13.315 355.698 C 13.314 355.697 1.970 343.505 1.969 343.504 C 1.972 343.505 36.109 355.697 36.112 355.698 Z"/>
<path fill="#0000ff" fill-rule="evenodd" stroke="none" d="M 704.928 355.698 C 704.926 355.699 685.097 362.780 685.095 362.781 C 685.095 362.780 691.684 355.699 691.685 355.698 C 691.684 355.697 685.095 348.616 685.095 348.615 C 685.097 348.616 704.926 355.697 704.928 355.698 Z"/>
<path fill="#00ff00" fill-rule="evenodd" stroke="none" d="M 359.016 141.978 C 359.017 141.980 366.199 161.773 366.200 161.775 C 366.199 161.775 359.083 155.221 359.083 155.221 C 359.082 155.221 352.034 161.846 352.033 161.847 C 352.034 161.845 359.015 141.980 359.016 141.978 Z"/>
<path fill="#ffff00" fill-rule="evenodd" stroke="none" d="M 22.242 118.061 C 22.244 118.062 41.378 126.850 41.380 126.850 C 41.379 126.851 31.717 127.313 31.716 127.313 C 31.716 127.314 31.481 136.984 31.481 136.985 C 31.480 136.983 22.243 118.063 22.242 118.061 Z"/>
<path fill="#ffff00" fill-rule="evenodd" stroke="none" d="M 22.476 593.335 C 22.478 593.334 41.432 584.164 41.434 584.163 C 41.433 584.163 31.764 583.895 31.763 583.895 C 31.763 583.894 31.334 574.230 31.334 574.229 C 31.333 574.231 22.477 593.333 22.476 593.335 Z"/>
<path fill="#00ff00" fill-rule="evenodd" stroke="none" d="M 359.016 569.418 C 359.017 569.416 366.199 549.623 366.200 549.621 C 366.199 549.621 359.083 556.175 359.083 556.175 C 359.082 556.175 352.034 549.550 352.033 549.549 C 352.034 549.551 359.015 569.416 359.016 569.418 Z"/>
<path fill="#00ffff" fill-rule="evenodd" stroke="none" d="M 593.325 495.570 C 593.323 495.570 573.475 488.540 573.473 488.540 C 573.474 488.540 583.055 487.208 583.056 487.208 C 583.056 487.207 582.419 477.555 582.419 477.555 C 582.420 477.556 593.324 495.569 593.325 495.570 Z"/>
<path fill="#00ffff" fill-rule="evenodd" stroke="none" d="M 592.667 215.826 C 592.665 215.827 573.330 224.164 573.328 224.164 C 573.329 224.165 582.978 224.854 582.979 224.854 C 582.979 224.855 582.986 234.528 582.986 234.529 C 582.987 234.527 592.666 215.828 592.667 215.826 Z"/>
<path fill="#ff00ff" fill-rule="evenodd" stroke="none" d="M 577.498 229.867 C 577.473 229.867 325.861 229.867 325.836 229.867 C 325.836 229.892 325.836 481.504 325.836 481.529 C 325.861 481.529 577.473 481.529 577.498 481.529 C 577.498 481.504 577.498 229.892 577.498 229.867 Z"/>
<path fill="#ff00ff" fill-rule="evenodd" stroke="none" d="M 404.988 166.952 C 404.950 166.952 27.532 166.952 27.495 166.952 C 27.495 166.989 27.495 544.407 27.495 544.445 C 27.532 544.445 404.950 544.445 404.988 544.445 C 404.988 544.407 404.988 166.989 404.988 166.952 Z"/>
<path fill="#be0027" fill-rule="evenodd" stroke="none" d="M 15.944 355.698 C 15.946 355.699 35.776 362.780 35.777 362.781 C 35.777 362.780 29.188 355.699 29.187 355.698 C 29.188 355.697 35.777 348.616 35.777 348.615 C 35.776 348.616 15.946 355.697 15.944 355.698 Z"/>
</g>
</g>
</svg>
