<?xml version="1.0" encoding="utf-8"?>
<!-- Generator: Moho 12.5 build 22414 -->
<!DOCTYPE svg PUBLIC "-//W3C//DTD SVG 1.1//EN" "http://www.w3.org/Graphics/SVG/1.1/DTD/svg11.dtd">
<svg version="1.1" id="Frame_0" xmlns="http://www.w3.org/2000/svg" xmlns:xlink="http://www.w3.org/1999/xlink" width="720px" height="720px">
<g id="nestboxes_triple">
<g id="specs_2">
<path fill="#ff00ff" fill-rule="evenodd" stroke="none" d="M 276.217 23.612 C 276.217 23.629 276.217 191.161 276.217 191.178 C 276.234 191.178 443.766 191.178 443.783 191.178 C 443.783 191.161 443.783 23.629 443.783 23.612 C 443.766 23.612 276.234 23.612 276.217 23.612 Z"/>
<path fill="#ff0000" fill-rule="evenodd" stroke="none" d="M 360.000 679.188 C 360.001 679.192 372.177 713.286 372.179 713.289 C 372.177 713.288 360.001 701.958 360.000 701.957 C 359.999 701.958 347.823 713.288 347.821 713.289 C 347.823 713.286 359.999 679.192 360.000 679.188 Z"/>
<path fill="#0000ff" fill-rule="evenodd" stroke="none" d="M 360.000 11.205 C 360.001 11.207 367.074 31.011 367.074 31.013 C 367.074 31.013 360.001 24.432 360.000 24.431 C 359.999 24.432 352.927 31.013 352.926 31.013 C 352.927 31.011 359.999 11.207 360.000 11.205 Z"/>
<path fill="#00ff00" fill-rule="evenodd" stroke="none" d="M 146.546 356.686 C 146.548 356.686 166.317 349.512 166.319 349.512 C 166.318 349.512 159.773 356.619 159.772 356.620 C 159.773 356.620 166.389 363.660 166.390 363.660 C 166.388 363.660 146.548 356.687 146.546 356.686 Z"/>
<path fill="#ffff00" fill-rule="evenodd" stroke="none" d="M 122.658 693.042 C 122.659 693.040 131.436 673.930 131.437 673.928 C 131.437 673.929 131.899 683.579 131.899 683.580 C 131.900 683.580 141.558 683.814 141.559 683.814 C 141.557 683.815 122.660 693.041 122.658 693.042 Z"/>
<path fill="#ffff00" fill-rule="evenodd" stroke="none" d="M 597.342 692.808 C 597.341 692.806 588.182 673.875 588.181 673.873 C 588.181 673.874 587.913 683.532 587.913 683.533 C 587.912 683.533 578.260 683.960 578.259 683.961 C 578.261 683.961 597.340 692.807 597.342 692.808 Z"/>
<path fill="#00ff00" fill-rule="evenodd" stroke="none" d="M 573.454 356.686 C 573.452 356.686 553.683 349.512 553.681 349.512 C 553.682 349.512 560.227 356.619 560.228 356.620 C 560.227 356.620 553.611 363.660 553.610 363.660 C 553.612 363.660 573.452 356.687 573.454 356.686 Z"/>
<path fill="#00ffff" fill-rule="evenodd" stroke="none" d="M 499.698 122.669 C 499.698 122.671 492.677 142.494 492.676 142.496 C 492.676 142.495 491.347 132.926 491.347 132.925 C 491.346 132.925 481.706 133.561 481.705 133.561 C 481.707 133.560 499.696 122.670 499.698 122.669 Z"/>
<path fill="#00ffff" fill-rule="evenodd" stroke="none" d="M 220.302 123.326 C 220.303 123.328 228.629 142.639 228.630 142.641 C 228.630 142.640 229.319 133.003 229.319 133.002 C 229.320 133.002 238.980 132.995 238.981 132.995 C 238.979 132.994 220.304 123.327 220.302 123.326 Z"/>
<path fill="#ff00ff" fill-rule="evenodd" stroke="none" d="M 234.326 138.476 C 234.326 138.501 234.326 389.800 234.326 389.825 C 234.351 389.825 485.649 389.825 485.674 389.825 C 485.674 389.800 485.675 138.501 485.675 138.476 C 485.650 138.476 234.351 138.476 234.326 138.476 Z"/>
<path fill="#ff00ff" fill-rule="evenodd" stroke="none" d="M 171.488 310.772 C 171.488 310.809 171.488 687.757 171.488 687.795 C 171.526 687.795 548.474 687.795 548.512 687.795 C 548.512 687.757 548.512 310.809 548.512 310.772 C 548.474 310.772 171.526 310.772 171.488 310.772 Z"/>
<path fill="#be0027" fill-rule="evenodd" stroke="none" d="M 360.000 699.331 C 360.001 699.329 367.074 679.525 367.074 679.523 C 367.074 679.523 360.001 686.104 360.000 686.105 C 359.999 686.104 352.927 679.523 352.926 679.523 C 352.927 679.525 359.999 699.329 360.000 699.331 Z"/>
</g>
</g>
</svg>
