<?xml version="1.0" encoding="utf-8"?>
<!-- Generator: Moho 12.5 build 22414 -->
<!DOCTYPE svg PUBLIC "-//W3C//DTD SVG 1.1//EN" "http://www.w3.org/Graphics/SVG/1.1/DTD/svg11.dtd">
<svg version="1.1" id="Frame_0" xmlns="http://www.w3.org/2000/svg" xmlns:xlink="http://www.w3.org/1999/xlink" width="720px" height="720px">
<g id="palm">
<g id="palm">
<g id="palm_4">
<path fill="#000000" fill-rule="evenodd" stroke="none" d="M 547.142 73.443 C 547.140 73.443 526.485 77.212 526.483 77.213 C 526.481 77.213 508.389 80.551 508.388 80.552 C 508.386 80.552 488.469 83.351 488.467 83.351 C 488.465 83.352 468.030 89.910 468.028 89.911 C 468.027 89.912 450.287 99.552 450.285 99.553 C 450.284 99.554 434.134 112.527 434.132 112.528 C 434.131 112.530 422.162 127.296 422.161 127.298 C 422.160 127.299 412.612 144.424 412.611 144.425 C 412.610 144.427 406.567 163.209 406.566 163.211 C 406.566 163.213 404.559 181.453 403.753 185.091 C 401.910 193.403 387.713 232.869 387.711 232.873 C 387.511 232.797 377.475 207.969 377.474 207.967 C 377.473 207.964 373.130 179.949 373.129 179.946 C 373.130 179.943 375.635 151.704 375.635 151.701 C 375.636 151.698 384.844 124.885 384.845 124.883 C 384.846 124.880 400.218 101.060 400.219 101.057 C 400.221 101.055 420.859 81.619 420.862 81.617 C 420.864 81.615 442.859 68.856 442.861 68.854 C 442.863 68.854 468.847 60.792 468.850 60.791 C 468.853 60.791 497.529 59.016 497.532 59.017 C 512.953 60.574 547.677 73.333 547.142 73.443 Z"/>
<path fill="none" stroke="#ffffff" stroke-width="4" stroke-linecap="round" stroke-linejoin="round" d="M 406.566 163.211 C 406.566 163.213 404.559 181.453 403.753 185.091 C 401.910 193.403 387.713 232.869 387.711 232.873 C 387.511 232.797 377.475 207.969 377.474 207.967 C 377.473 207.964 373.130 179.949 373.129 179.946 C 373.130 179.943 375.635 151.704 375.635 151.701 C 375.636 151.698 384.844 124.885 384.845 124.883 C 384.846 124.880 400.218 101.060 400.219 101.057 C 400.221 101.055 420.859 81.619 420.862 81.617 C 420.864 81.615 442.859 68.856 442.861 68.854 C 442.863 68.854 468.847 60.792 468.850 60.791 C 468.853 60.791 497.529 59.016 497.532 59.017 C 512.953 60.574 547.677 73.333 547.142 73.443 C 547.140 73.443 526.485 77.212 526.483 77.213 C 526.481 77.213 508.389 80.551 508.388 80.552 C 508.386 80.552 488.469 83.351 488.467 83.351 C 488.465 83.352 468.030 89.910 468.028 89.911 C 468.027 89.912 450.287 99.552 450.285 99.553 C 450.284 99.554 434.134 112.527 434.132 112.528 C 434.131 112.530 422.162 127.296 422.161 127.298 C 422.160 127.299 412.612 144.424 412.611 144.425 C 412.610 144.427 406.567 163.209 406.566 163.211 C 406.566 163.213 404.559 181.453 403.753 185.091 C 401.910 193.403 387.713 232.869 387.711 232.873 M 412.611 144.425 C 412.610 144.427 406.567 163.209 406.566 163.211 M 422.161 127.298 C 422.160 127.299 412.612 144.424 412.611 144.425 M 434.132 112.528 C 434.131 112.530 422.162 127.296 422.161 127.298 M 450.285 99.553 C 450.284 99.554 434.134 112.527 434.132 112.528 M 468.028 89.911 C 468.027 89.912 450.287 99.552 450.285 99.553 M 488.467 83.351 C 488.465 83.352 468.030 89.910 468.028 89.911 M 508.388 80.552 C 508.386 80.552 488.469 83.351 488.467 83.351 M 526.483 77.213 C 526.481 77.213 508.389 80.551 508.388 80.552 M 547.142 73.443 C 547.140 73.443 526.485 77.212 526.483 77.213 "/>
<path fill="none" stroke="#ffffff" stroke-width="1" stroke-linecap="butt" stroke-linejoin="round" d="M 497.532 59.017 C 512.953 60.574 547.677 73.333 547.142 73.443 "/>
<path fill="none" stroke="#ffffff" stroke-width="1" stroke-linecap="butt" stroke-linejoin="round" d="M 387.711 232.873 C 387.511 232.797 377.475 207.969 377.474 207.967 "/>
<path fill="none" stroke="#ffffff" stroke-width="1" stroke-linecap="butt" stroke-linejoin="round" d="M 377.474 207.967 C 377.473 207.964 373.130 179.949 373.129 179.946 "/>
<path fill="none" stroke="#ffffff" stroke-width="1" stroke-linecap="butt" stroke-linejoin="round" d="M 373.129 179.946 C 373.130 179.943 375.635 151.704 375.635 151.701 "/>
<path fill="none" stroke="#ffffff" stroke-width="1" stroke-linecap="butt" stroke-linejoin="round" d="M 375.635 151.701 C 375.636 151.698 384.844 124.885 384.845 124.883 "/>
<path fill="none" stroke="#ffffff" stroke-width="1" stroke-linecap="butt" stroke-linejoin="round" d="M 384.845 124.883 C 384.846 124.880 400.218 101.060 400.219 101.057 "/>
<path fill="none" stroke="#ffffff" stroke-width="1" stroke-linecap="butt" stroke-linejoin="round" d="M 400.219 101.057 C 400.221 101.055 420.859 81.619 420.862 81.617 "/>
<path fill="none" stroke="#ffffff" stroke-width="1" stroke-linecap="butt" stroke-linejoin="round" d="M 420.862 81.617 C 420.864 81.615 442.859 68.856 442.861 68.854 "/>
<path fill="none" stroke="#ffffff" stroke-width="1" stroke-linecap="butt" stroke-linejoin="round" d="M 442.861 68.854 C 442.863 68.854 468.847 60.792 468.850 60.791 "/>
<path fill="none" stroke="#ffffff" stroke-width="1" stroke-linecap="butt" stroke-linejoin="round" d="M 468.850 60.791 C 468.853 60.791 497.529 59.016 497.532 59.017 "/>
<path fill="#ffffff" fill-rule="evenodd" stroke="#000000" stroke-width="4" stroke-linecap="round" stroke-linejoin="round" d="M 497.532 59.017 C 512.953 60.574 547.677 73.333 547.142 73.443 C 547.141 73.441 534.739 54.600 534.738 54.598 C 534.736 54.597 515.824 41.093 515.822 41.091 C 515.820 41.091 487.456 34.286 487.453 34.285 C 487.450 34.285 453.841 35.188 453.837 35.188 C 453.834 35.189 421.621 44.814 421.618 44.815 C 421.615 44.817 391.166 63.954 391.163 63.956 C 391.161 63.959 367.786 88.384 367.783 88.387 C 367.782 88.390 350.860 119.260 350.858 119.264 C 350.857 119.267 342.290 153.312 342.289 153.315 C 342.289 153.319 339.114 186.744 343.620 191.323 C 347.664 200.723 387.707 232.869 387.711 232.873 C 387.511 232.797 377.475 207.969 377.474 207.967 C 377.473 207.964 373.130 179.949 373.129 179.946 C 373.130 179.943 375.635 151.704 375.635 151.701 C 375.636 151.698 384.844 124.885 384.845 124.883 C 384.846 124.880 400.218 101.060 400.219 101.057 C 400.221 101.055 420.859 81.619 420.862 81.617 C 420.864 81.615 442.859 68.856 442.861 68.854 C 442.863 68.854 468.847 60.792 468.850 60.791 C 468.853 60.791 497.529 59.016 497.532 59.017 Z"/>
</g>
<g id="palm_3">
<path fill="#000000" fill-rule="evenodd" stroke="none" d="M 612.645 232.525 C 612.643 232.524 595.373 220.584 595.371 220.583 C 595.370 220.582 580.216 210.150 580.215 210.149 C 580.213 210.148 564.151 198.044 564.149 198.042 C 564.147 198.041 545.061 188.230 545.059 188.229 C 545.057 188.228 525.697 182.501 525.695 182.500 C 525.693 182.500 505.099 180.254 505.097 180.253 C 505.096 180.254 486.191 182.232 486.189 182.232 C 486.187 182.233 467.327 187.590 467.325 187.590 C 467.323 187.591 449.769 196.598 449.767 196.599 C 449.766 196.600 435.449 208.080 432.306 210.082 C 425.126 214.656 387.181 232.523 387.176 232.525 C 387.089 232.330 397.548 207.677 397.549 207.675 C 397.551 207.673 414.289 184.792 414.291 184.789 C 414.293 184.787 436.032 166.591 436.035 166.589 C 436.037 166.588 461.508 154.139 461.510 154.137 C 461.513 154.137 489.226 148.163 489.229 148.162 C 489.232 148.162 517.569 149.012 517.572 149.012 C 517.574 149.012 542.149 155.543 542.152 155.543 C 542.154 155.545 566.228 168.218 566.230 168.219 C 566.232 168.221 587.765 187.243 587.766 187.245 C 597.569 199.251 613.101 232.827 612.645 232.525 Z"/>
<path fill="none" stroke="#ffffff" stroke-width="4" stroke-linecap="round" stroke-linejoin="round" d="M 449.767 196.599 C 449.766 196.600 435.449 208.080 432.306 210.082 C 425.126 214.656 387.181 232.523 387.176 232.525 C 387.089 232.330 397.548 207.677 397.549 207.675 C 397.551 207.673 414.289 184.792 414.291 184.789 C 414.293 184.787 436.032 166.591 436.035 166.589 C 436.037 166.588 461.508 154.139 461.510 154.137 C 461.513 154.137 489.226 148.163 489.229 148.162 C 489.232 148.162 517.569 149.012 517.572 149.012 C 517.574 149.012 542.149 155.543 542.152 155.543 C 542.154 155.545 566.228 168.218 566.230 168.219 C 566.232 168.221 587.765 187.243 587.766 187.245 C 597.569 199.251 613.101 232.827 612.645 232.525 C 612.643 232.524 595.373 220.584 595.371 220.583 C 595.370 220.582 580.216 210.150 580.215 210.149 C 580.213 210.148 564.151 198.044 564.149 198.042 C 564.147 198.041 545.061 188.230 545.059 188.229 C 545.057 188.228 525.697 182.501 525.695 182.500 C 525.693 182.500 505.099 180.254 505.097 180.253 C 505.096 180.254 486.191 182.232 486.189 182.232 C 486.187 182.233 467.327 187.590 467.325 187.590 C 467.323 187.591 449.769 196.598 449.767 196.599 C 449.766 196.600 435.449 208.080 432.306 210.082 C 425.126 214.656 387.181 232.523 387.176 232.525 M 467.325 187.590 C 467.323 187.591 449.769 196.598 449.767 196.599 M 486.189 182.232 C 486.187 182.233 467.327 187.590 467.325 187.590 M 505.097 180.253 C 505.096 180.254 486.191 182.232 486.189 182.232 M 525.695 182.500 C 525.693 182.500 505.099 180.254 505.097 180.253 M 545.059 188.229 C 545.057 188.228 525.697 182.501 525.695 182.500 M 564.149 198.042 C 564.147 198.041 545.061 188.230 545.059 188.229 M 580.215 210.149 C 580.213 210.148 564.151 198.044 564.149 198.042 M 595.371 220.583 C 595.370 220.582 580.216 210.150 580.215 210.149 M 612.645 232.525 C 612.643 232.524 595.373 220.585 595.371 220.583 "/>
<path fill="none" stroke="#ffffff" stroke-width="1" stroke-linecap="butt" stroke-linejoin="round" d="M 587.766 187.245 C 597.569 199.251 613.101 232.827 612.645 232.525 "/>
<path fill="none" stroke="#ffffff" stroke-width="1" stroke-linecap="butt" stroke-linejoin="round" d="M 387.176 232.525 C 387.089 232.330 397.548 207.677 397.549 207.675 "/>
<path fill="none" stroke="#ffffff" stroke-width="1" stroke-linecap="butt" stroke-linejoin="round" d="M 397.549 207.675 C 397.551 207.673 414.289 184.792 414.291 184.789 "/>
<path fill="none" stroke="#ffffff" stroke-width="1" stroke-linecap="butt" stroke-linejoin="round" d="M 414.291 184.789 C 414.293 184.787 436.032 166.591 436.035 166.589 "/>
<path fill="none" stroke="#ffffff" stroke-width="1" stroke-linecap="butt" stroke-linejoin="round" d="M 436.035 166.589 C 436.037 166.588 461.508 154.139 461.510 154.137 "/>
<path fill="none" stroke="#ffffff" stroke-width="1" stroke-linecap="butt" stroke-linejoin="round" d="M 461.510 154.137 C 461.513 154.137 489.226 148.163 489.229 148.162 "/>
<path fill="none" stroke="#ffffff" stroke-width="1" stroke-linecap="butt" stroke-linejoin="round" d="M 489.229 148.162 C 489.232 148.162 517.569 149.012 517.572 149.012 "/>
<path fill="none" stroke="#ffffff" stroke-width="1" stroke-linecap="butt" stroke-linejoin="round" d="M 517.572 149.012 C 517.574 149.012 542.149 155.543 542.152 155.543 "/>
<path fill="none" stroke="#ffffff" stroke-width="1" stroke-linecap="butt" stroke-linejoin="round" d="M 542.152 155.543 C 542.154 155.545 566.228 168.218 566.230 168.219 "/>
<path fill="none" stroke="#ffffff" stroke-width="1" stroke-linecap="butt" stroke-linejoin="round" d="M 566.230 168.219 C 566.232 168.221 587.765 187.243 587.766 187.245 "/>
<path fill="#ffffff" fill-rule="evenodd" stroke="#000000" stroke-width="4" stroke-linecap="round" stroke-linejoin="round" d="M 587.766 187.245 C 597.569 199.251 613.101 232.827 612.645 232.525 C 612.646 232.523 617.199 210.431 617.199 210.429 C 617.199 210.427 613.375 187.506 613.375 187.503 C 613.373 187.501 598.129 162.633 598.127 162.631 C 598.125 162.628 573.721 139.502 573.719 139.499 C 573.716 139.498 544.132 123.526 544.129 123.524 C 544.126 123.523 509.063 115.525 509.060 115.524 C 509.056 115.524 475.256 116.267 475.253 116.267 C 475.249 116.268 441.455 126.131 441.451 126.132 C 441.448 126.134 411.317 144.150 411.314 144.151 C 411.311 144.154 385.431 165.544 385.380 171.968 C 381.592 181.474 387.176 232.519 387.176 232.525 C 387.089 232.330 397.548 207.677 397.549 207.675 C 397.551 207.673 414.289 184.792 414.291 184.789 C 414.293 184.787 436.032 166.591 436.035 166.589 C 436.037 166.588 461.508 154.139 461.510 154.137 C 461.513 154.137 489.226 148.163 489.229 148.162 C 489.232 148.162 517.569 149.012 517.572 149.012 C 517.574 149.012 542.149 155.543 542.152 155.543 C 542.154 155.545 566.228 168.218 566.230 168.219 C 566.232 168.221 587.765 187.243 587.766 187.245 Z"/>
</g>
<g id="palm_2">
<path fill="#000000" fill-rule="evenodd" stroke="none" d="M 546.475 391.332 C 546.474 391.330 542.705 370.675 542.704 370.673 C 542.704 370.671 539.366 352.579 539.365 352.578 C 539.365 352.576 536.566 332.659 536.566 332.657 C 536.565 332.655 530.007 312.221 530.006 312.219 C 530.005 312.217 520.365 294.477 520.364 294.475 C 520.363 294.474 507.390 278.324 507.389 278.322 C 507.387 278.321 492.621 266.352 492.620 266.351 C 492.618 266.350 475.493 256.802 475.492 256.801 C 475.490 256.800 456.708 250.757 456.706 250.756 C 456.704 250.756 438.464 248.749 434.826 247.943 C 426.514 246.100 387.049 231.903 387.044 231.901 C 387.121 231.701 411.948 221.665 411.951 221.664 C 411.953 221.663 439.969 217.320 439.971 217.320 C 439.974 217.320 468.213 219.825 468.216 219.825 C 468.219 219.826 495.032 229.034 495.035 229.035 C 495.037 229.036 518.858 244.408 518.860 244.409 C 518.862 244.412 538.299 265.050 538.300 265.052 C 538.302 265.054 551.061 287.049 551.063 287.051 C 551.063 287.054 559.125 313.038 559.126 313.040 C 559.126 313.043 560.901 341.719 560.901 341.722 C 559.343 357.143 546.584 391.867 546.475 391.332 Z"/>
<path fill="none" stroke="#ffffff" stroke-width="4" stroke-linecap="round" stroke-linejoin="round" d="M 456.706 250.756 C 456.704 250.756 438.464 248.749 434.826 247.943 C 426.514 246.100 387.049 231.903 387.044 231.901 C 387.121 231.701 411.948 221.665 411.951 221.664 C 411.953 221.663 439.969 217.320 439.971 217.320 C 439.974 217.320 468.213 219.825 468.216 219.825 C 468.219 219.826 495.032 229.034 495.035 229.035 C 495.037 229.036 518.858 244.408 518.860 244.409 C 518.862 244.412 538.299 265.050 538.300 265.052 C 538.302 265.054 551.061 287.049 551.063 287.051 C 551.063 287.054 559.125 313.038 559.126 313.040 C 559.126 313.043 560.901 341.719 560.901 341.722 C 559.343 357.143 546.584 391.867 546.475 391.332 C 546.474 391.330 542.705 370.675 542.704 370.673 C 542.704 370.671 539.366 352.579 539.365 352.578 C 539.365 352.576 536.566 332.659 536.566 332.657 C 536.565 332.655 530.007 312.221 530.006 312.219 C 530.005 312.217 520.365 294.477 520.364 294.475 C 520.363 294.474 507.390 278.324 507.389 278.322 C 507.387 278.321 492.621 266.352 492.620 266.351 C 492.618 266.350 475.493 256.802 475.492 256.801 C 475.490 256.800 456.708 250.757 456.706 250.756 C 456.704 250.756 438.464 248.749 434.826 247.943 C 426.514 246.100 387.049 231.903 387.044 231.901 M 475.492 256.801 C 475.490 256.800 456.708 250.757 456.706 250.756 M 492.620 266.351 C 492.618 266.350 475.493 256.802 475.492 256.801 M 507.389 278.322 C 507.387 278.321 492.621 266.352 492.620 266.351 M 520.364 294.475 C 520.363 294.474 507.390 278.324 507.389 278.322 M 530.006 312.219 C 530.005 312.217 520.365 294.477 520.364 294.475 M 536.566 332.657 C 536.565 332.655 530.007 312.221 530.006 312.219 M 539.365 352.578 C 539.365 352.576 536.566 332.659 536.566 332.657 M 542.704 370.673 C 542.704 370.671 539.366 352.579 539.365 352.578 M 546.475 391.332 C 546.474 391.330 542.705 370.675 542.704 370.673 "/>
<path fill="none" stroke="#ffffff" stroke-width="1" stroke-linecap="butt" stroke-linejoin="round" d="M 560.901 341.722 C 559.343 357.143 546.584 391.867 546.475 391.332 "/>
<path fill="none" stroke="#ffffff" stroke-width="1" stroke-linecap="butt" stroke-linejoin="round" d="M 387.044 231.901 C 387.121 231.701 411.948 221.665 411.951 221.664 "/>
<path fill="none" stroke="#ffffff" stroke-width="1" stroke-linecap="butt" stroke-linejoin="round" d="M 411.951 221.664 C 411.953 221.663 439.969 217.320 439.971 217.320 "/>
<path fill="none" stroke="#ffffff" stroke-width="1" stroke-linecap="butt" stroke-linejoin="round" d="M 439.971 217.320 C 439.974 217.320 468.213 219.825 468.216 219.825 "/>
<path fill="none" stroke="#ffffff" stroke-width="1" stroke-linecap="butt" stroke-linejoin="round" d="M 468.216 219.825 C 468.219 219.826 495.032 229.034 495.035 229.035 "/>
<path fill="none" stroke="#ffffff" stroke-width="1" stroke-linecap="butt" stroke-linejoin="round" d="M 495.035 229.035 C 495.037 229.036 518.858 244.408 518.860 244.409 "/>
<path fill="none" stroke="#ffffff" stroke-width="1" stroke-linecap="butt" stroke-linejoin="round" d="M 518.860 244.409 C 518.862 244.412 538.299 265.050 538.300 265.052 "/>
<path fill="none" stroke="#ffffff" stroke-width="1" stroke-linecap="butt" stroke-linejoin="round" d="M 538.300 265.052 C 538.302 265.054 551.061 287.049 551.063 287.051 "/>
<path fill="none" stroke="#ffffff" stroke-width="1" stroke-linecap="butt" stroke-linejoin="round" d="M 551.063 287.051 C 551.063 287.054 559.125 313.038 559.126 313.040 "/>
<path fill="none" stroke="#ffffff" stroke-width="1" stroke-linecap="butt" stroke-linejoin="round" d="M 559.126 313.040 C 559.126 313.043 560.901 341.719 560.901 341.722 "/>
<path fill="#ffffff" fill-rule="evenodd" stroke="#000000" stroke-width="4" stroke-linecap="round" stroke-linejoin="round" d="M 560.901 341.722 C 559.343 357.143 546.584 391.867 546.475 391.332 C 546.476 391.331 565.317 378.929 565.319 378.928 C 565.321 378.926 578.824 360.014 578.826 360.012 C 578.827 360.010 585.631 331.646 585.632 331.643 C 585.632 331.640 584.729 298.031 584.729 298.027 C 584.728 298.024 575.103 265.811 575.102 265.808 C 575.100 265.805 555.963 235.356 555.961 235.353 C 555.959 235.351 531.533 211.976 531.530 211.973 C 531.527 211.972 500.657 195.050 500.654 195.048 C 500.650 195.047 466.605 186.480 466.602 186.479 C 466.598 186.479 433.173 183.304 428.595 187.810 C 419.194 191.854 387.048 231.897 387.044 231.901 C 387.121 231.701 411.948 221.665 411.951 221.664 C 411.953 221.663 439.969 217.320 439.971 217.320 C 439.974 217.320 468.213 219.825 468.216 219.825 C 468.219 219.826 495.032 229.034 495.035 229.035 C 495.037 229.036 518.858 244.408 518.860 244.409 C 518.862 244.412 538.299 265.050 538.300 265.052 C 538.302 265.054 551.061 287.049 551.063 287.051 C 551.063 287.054 559.125 313.038 559.126 313.040 C 559.126 313.043 560.901 341.719 560.901 341.722 Z"/>
</g>
<g id="palm_5">
<path fill="#000000" fill-rule="evenodd" stroke="none" d="M 169.926 73.443 C 169.928 73.443 190.582 77.212 190.584 77.213 C 190.586 77.213 208.678 80.551 208.680 80.552 C 208.682 80.552 228.599 83.351 228.601 83.351 C 228.603 83.352 249.037 89.910 249.039 89.911 C 249.041 89.912 266.780 99.552 266.782 99.553 C 266.784 99.554 282.934 112.527 282.935 112.528 C 282.937 112.530 294.905 127.296 294.906 127.298 C 294.907 127.299 304.456 144.424 304.457 144.425 C 304.457 144.427 310.501 163.209 310.502 163.211 C 310.502 163.213 312.508 181.453 313.315 185.092 C 315.158 193.403 329.355 232.869 329.356 232.873 C 329.556 232.797 339.593 207.969 339.594 207.967 C 339.594 207.964 343.938 179.949 343.938 179.946 C 343.938 179.943 341.433 151.704 341.432 151.701 C 341.432 151.698 332.224 124.885 332.223 124.883 C 332.222 124.880 316.850 101.060 316.848 101.057 C 316.846 101.055 296.208 81.619 296.206 81.617 C 296.204 81.615 274.209 68.856 274.207 68.854 C 274.204 68.854 248.220 60.792 248.217 60.791 C 248.215 60.791 219.538 59.016 219.536 59.016 C 204.115 60.574 169.390 73.333 169.926 73.443 Z"/>
<path fill="none" stroke="#ffffff" stroke-width="4" stroke-linecap="round" stroke-linejoin="round" d="M 310.502 163.211 C 310.502 163.213 312.508 181.453 313.315 185.092 C 315.158 193.403 329.355 232.869 329.356 232.873 C 329.556 232.797 339.593 207.969 339.594 207.967 C 339.594 207.964 343.938 179.949 343.938 179.946 C 343.938 179.943 341.433 151.704 341.432 151.701 C 341.432 151.698 332.224 124.885 332.223 124.883 C 332.222 124.880 316.850 101.060 316.848 101.057 C 316.846 101.055 296.208 81.619 296.206 81.617 C 296.204 81.615 274.209 68.856 274.207 68.854 C 274.204 68.854 248.220 60.792 248.217 60.791 C 248.215 60.791 219.538 59.016 219.536 59.016 C 204.115 60.574 169.390 73.333 169.926 73.443 C 169.928 73.443 190.582 77.212 190.584 77.213 C 190.586 77.213 208.678 80.551 208.680 80.552 C 208.682 80.552 228.599 83.351 228.601 83.351 C 228.603 83.352 249.037 89.910 249.039 89.911 C 249.041 89.912 266.780 99.552 266.782 99.553 C 266.784 99.554 282.934 112.527 282.935 112.528 C 282.937 112.530 294.905 127.296 294.906 127.298 C 294.907 127.299 304.456 144.424 304.457 144.425 C 304.457 144.427 310.501 163.209 310.502 163.211 C 310.502 163.213 312.508 181.453 313.315 185.092 C 315.158 193.403 329.355 232.869 329.356 232.873 M 304.457 144.425 C 304.457 144.427 310.501 163.209 310.502 163.211 M 294.906 127.298 C 294.907 127.299 304.456 144.424 304.457 144.425 M 282.935 112.528 C 282.937 112.530 294.905 127.296 294.906 127.298 M 266.782 99.553 C 266.784 99.554 282.934 112.527 282.935 112.528 M 249.039 89.911 C 249.041 89.912 266.780 99.552 266.782 99.553 M 228.601 83.351 C 228.603 83.352 249.037 89.910 249.039 89.911 M 208.680 80.552 C 208.682 80.552 228.599 83.351 228.601 83.351 M 190.584 77.213 C 190.586 77.213 208.678 80.551 208.680 80.552 M 169.926 73.443 C 169.928 73.443 190.582 77.212 190.584 77.213 "/>
<path fill="none" stroke="#ffffff" stroke-width="1" stroke-linecap="butt" stroke-linejoin="round" d="M 219.536 59.016 C 204.115 60.574 169.390 73.333 169.926 73.443 "/>
<path fill="none" stroke="#ffffff" stroke-width="1" stroke-linecap="butt" stroke-linejoin="round" d="M 329.356 232.873 C 329.556 232.797 339.593 207.969 339.594 207.967 "/>
<path fill="none" stroke="#ffffff" stroke-width="1" stroke-linecap="butt" stroke-linejoin="round" d="M 339.594 207.967 C 339.594 207.964 343.938 179.949 343.938 179.946 "/>
<path fill="none" stroke="#ffffff" stroke-width="1" stroke-linecap="butt" stroke-linejoin="round" d="M 343.938 179.946 C 343.938 179.943 341.433 151.704 341.432 151.701 "/>
<path fill="none" stroke="#ffffff" stroke-width="1" stroke-linecap="butt" stroke-linejoin="round" d="M 341.432 151.701 C 341.432 151.698 332.224 124.885 332.223 124.883 "/>
<path fill="none" stroke="#ffffff" stroke-width="1" stroke-linecap="butt" stroke-linejoin="round" d="M 332.223 124.883 C 332.222 124.880 316.850 101.060 316.848 101.057 "/>
<path fill="none" stroke="#ffffff" stroke-width="1" stroke-linecap="butt" stroke-linejoin="round" d="M 316.848 101.057 C 316.846 101.055 296.208 81.619 296.206 81.617 "/>
<path fill="none" stroke="#ffffff" stroke-width="1" stroke-linecap="butt" stroke-linejoin="round" d="M 296.206 81.617 C 296.204 81.615 274.209 68.856 274.207 68.854 "/>
<path fill="none" stroke="#ffffff" stroke-width="1" stroke-linecap="butt" stroke-linejoin="round" d="M 274.207 68.854 C 274.204 68.854 248.220 60.792 248.217 60.791 "/>
<path fill="none" stroke="#ffffff" stroke-width="1" stroke-linecap="butt" stroke-linejoin="round" d="M 248.217 60.791 C 248.215 60.791 219.538 59.016 219.536 59.016 "/>
<path fill="#ffffff" fill-rule="evenodd" stroke="#000000" stroke-width="4" stroke-linecap="round" stroke-linejoin="round" d="M 219.536 59.016 C 204.115 60.574 169.390 73.333 169.926 73.443 C 169.927 73.441 182.329 54.600 182.330 54.598 C 182.332 54.596 201.243 41.093 201.245 41.091 C 201.248 41.091 229.612 34.286 229.615 34.285 C 229.618 34.285 263.227 35.188 263.230 35.188 C 263.233 35.189 295.446 44.814 295.450 44.815 C 295.453 44.817 325.901 63.954 325.905 63.956 C 325.907 63.959 349.282 88.384 349.284 88.387 C 349.286 88.390 366.208 119.260 366.210 119.263 C 366.211 119.267 374.778 153.312 374.778 153.315 C 374.778 153.319 377.954 186.744 373.448 191.323 C 369.404 200.723 329.361 232.869 329.356 232.873 C 329.556 232.797 339.593 207.969 339.594 207.967 C 339.594 207.964 343.938 179.949 343.938 179.946 C 343.938 179.943 341.433 151.704 341.432 151.701 C 341.432 151.698 332.224 124.885 332.223 124.883 C 332.222 124.880 316.850 101.060 316.848 101.057 C 316.846 101.055 296.208 81.619 296.206 81.617 C 296.204 81.615 274.209 68.856 274.207 68.854 C 274.204 68.854 248.220 60.792 248.217 60.791 C 248.215 60.791 219.538 59.016 219.536 59.016 Z"/>
</g>
<g id="palm_6">
<path fill="#000000" fill-rule="evenodd" stroke="none" d="M 104.422 232.525 C 104.424 232.524 121.694 220.584 121.696 220.583 C 121.698 220.582 136.851 210.150 136.853 210.149 C 136.854 210.148 152.917 198.044 152.918 198.042 C 152.920 198.041 172.007 188.230 172.009 188.229 C 172.011 188.228 191.371 182.501 191.373 182.500 C 191.375 182.500 211.968 180.254 211.970 180.253 C 211.972 180.254 230.876 182.232 230.878 182.232 C 230.880 182.233 249.741 187.590 249.742 187.590 C 249.744 187.591 267.298 196.598 267.300 196.599 C 267.302 196.600 281.619 208.080 284.761 210.082 C 291.942 214.656 329.887 232.523 329.891 232.525 C 329.979 232.330 319.520 207.677 319.519 207.675 C 319.517 207.673 302.778 184.792 302.777 184.789 C 302.775 184.787 281.035 166.591 281.033 166.589 C 281.030 166.588 255.560 154.139 255.557 154.137 C 255.555 154.137 227.841 148.163 227.839 148.162 C 227.836 148.162 199.499 149.012 199.496 149.012 C 199.493 149.012 174.918 155.543 174.916 155.543 C 174.913 155.545 150.840 168.218 150.837 168.219 C 150.835 168.221 129.303 187.243 129.301 187.245 C 119.498 199.251 103.966 232.827 104.422 232.525 Z"/>
<path fill="none" stroke="#ffffff" stroke-width="4" stroke-linecap="round" stroke-linejoin="round" d="M 267.300 196.599 C 267.302 196.600 281.619 208.080 284.761 210.082 C 291.942 214.656 329.887 232.523 329.891 232.525 C 329.979 232.330 319.520 207.677 319.519 207.675 C 319.517 207.673 302.778 184.792 302.777 184.789 C 302.775 184.787 281.035 166.591 281.033 166.589 C 281.030 166.588 255.560 154.139 255.557 154.137 C 255.555 154.137 227.841 148.163 227.839 148.162 C 227.836 148.162 199.499 149.012 199.496 149.012 C 199.493 149.012 174.918 155.543 174.916 155.543 C 174.913 155.545 150.840 168.218 150.837 168.219 C 150.835 168.221 129.303 187.243 129.301 187.245 C 119.498 199.251 103.966 232.827 104.422 232.525 C 104.424 232.524 121.694 220.584 121.696 220.583 C 121.698 220.582 136.851 210.150 136.853 210.149 C 136.854 210.148 152.917 198.044 152.918 198.042 C 152.920 198.041 172.007 188.230 172.009 188.229 C 172.011 188.228 191.371 182.501 191.373 182.500 C 191.375 182.500 211.968 180.254 211.970 180.253 C 211.972 180.254 230.876 182.232 230.878 182.232 C 230.880 182.233 249.741 187.590 249.742 187.590 C 249.744 187.591 267.298 196.598 267.300 196.599 C 267.302 196.600 281.619 208.080 284.761 210.082 C 291.942 214.656 329.887 232.523 329.891 232.525 M 249.742 187.590 C 249.744 187.591 267.298 196.598 267.300 196.599 M 230.878 182.232 C 230.880 182.233 249.741 187.590 249.742 187.590 M 211.970 180.253 C 211.972 180.254 230.876 182.232 230.878 182.232 M 191.373 182.500 C 191.375 182.500 211.968 180.254 211.970 180.253 M 172.009 188.229 C 172.011 188.228 191.371 182.501 191.373 182.500 M 152.918 198.042 C 152.920 198.041 172.007 188.230 172.009 188.229 M 136.853 210.149 C 136.854 210.148 152.917 198.044 152.918 198.042 M 121.696 220.583 C 121.698 220.582 136.851 210.150 136.853 210.149 M 104.422 232.525 C 104.424 232.524 121.695 220.585 121.696 220.583 "/>
<path fill="none" stroke="#ffffff" stroke-width="1" stroke-linecap="butt" stroke-linejoin="round" d="M 129.301 187.245 C 119.498 199.251 103.966 232.827 104.422 232.525 "/>
<path fill="none" stroke="#ffffff" stroke-width="1" stroke-linecap="butt" stroke-linejoin="round" d="M 329.891 232.525 C 329.979 232.330 319.520 207.677 319.519 207.675 "/>
<path fill="none" stroke="#ffffff" stroke-width="1" stroke-linecap="butt" stroke-linejoin="round" d="M 319.519 207.675 C 319.517 207.673 302.778 184.792 302.777 184.789 "/>
<path fill="none" stroke="#ffffff" stroke-width="1" stroke-linecap="butt" stroke-linejoin="round" d="M 302.777 184.789 C 302.775 184.787 281.035 166.591 281.033 166.589 "/>
<path fill="none" stroke="#ffffff" stroke-width="1" stroke-linecap="butt" stroke-linejoin="round" d="M 281.033 166.589 C 281.030 166.588 255.560 154.139 255.557 154.137 "/>
<path fill="none" stroke="#ffffff" stroke-width="1" stroke-linecap="butt" stroke-linejoin="round" d="M 255.557 154.137 C 255.555 154.137 227.841 148.163 227.839 148.162 "/>
<path fill="none" stroke="#ffffff" stroke-width="1" stroke-linecap="butt" stroke-linejoin="round" d="M 227.839 148.162 C 227.836 148.162 199.499 149.012 199.496 149.012 "/>
<path fill="none" stroke="#ffffff" stroke-width="1" stroke-linecap="butt" stroke-linejoin="round" d="M 199.496 149.012 C 199.493 149.012 174.918 155.543 174.916 155.543 "/>
<path fill="none" stroke="#ffffff" stroke-width="1" stroke-linecap="butt" stroke-linejoin="round" d="M 174.916 155.543 C 174.913 155.545 150.840 168.218 150.837 168.219 "/>
<path fill="none" stroke="#ffffff" stroke-width="1" stroke-linecap="butt" stroke-linejoin="round" d="M 150.837 168.219 C 150.835 168.221 129.303 187.243 129.301 187.245 "/>
<path fill="#ffffff" fill-rule="evenodd" stroke="#000000" stroke-width="4" stroke-linecap="round" stroke-linejoin="round" d="M 129.301 187.245 C 119.498 199.251 103.966 232.827 104.422 232.525 C 104.422 232.523 99.869 210.431 99.868 210.429 C 99.869 210.427 103.692 187.506 103.693 187.503 C 103.694 187.501 118.939 162.633 118.940 162.631 C 118.943 162.628 143.346 139.502 143.349 139.499 C 143.352 139.498 172.936 123.526 172.938 123.524 C 172.942 123.523 208.005 115.525 208.008 115.524 C 208.011 115.524 241.812 116.267 241.815 116.267 C 241.818 116.268 275.613 126.131 275.616 126.132 C 275.619 126.134 305.751 144.150 305.754 144.151 C 305.756 144.154 331.637 165.544 331.688 171.968 C 335.476 181.474 329.892 232.519 329.891 232.525 C 329.979 232.330 319.520 207.677 319.519 207.675 C 319.517 207.673 302.778 184.792 302.777 184.789 C 302.775 184.787 281.035 166.591 281.033 166.589 C 281.030 166.588 255.560 154.139 255.557 154.137 C 255.555 154.137 227.841 148.163 227.839 148.162 C 227.836 148.162 199.499 149.012 199.496 149.012 C 199.493 149.012 174.918 155.543 174.916 155.543 C 174.913 155.545 150.840 168.218 150.837 168.219 C 150.835 168.221 129.303 187.243 129.301 187.245 Z"/>
</g>
<g id="palm_7">
<path fill="#000000" fill-rule="evenodd" stroke="none" d="M 170.593 391.332 C 170.593 391.330 174.362 370.675 174.363 370.673 C 174.363 370.671 177.702 352.580 177.702 352.578 C 177.702 352.576 180.501 332.659 180.501 332.657 C 180.502 332.655 187.060 312.221 187.061 312.219 C 187.062 312.217 196.702 294.477 196.703 294.476 C 196.704 294.474 209.677 278.324 209.679 278.322 C 209.680 278.321 224.446 266.353 224.448 266.351 C 224.450 266.350 241.574 256.802 241.576 256.801 C 241.578 256.801 260.359 250.757 260.361 250.756 C 260.363 250.756 278.604 248.750 282.242 247.943 C 290.554 246.100 330.019 231.903 330.024 231.901 C 329.947 231.701 305.120 221.665 305.117 221.664 C 305.114 221.663 277.099 217.320 277.096 217.320 C 277.093 217.320 248.854 219.825 248.851 219.825 C 248.849 219.826 222.036 229.034 222.033 229.035 C 222.031 229.036 198.210 244.408 198.207 244.410 C 198.206 244.412 178.769 265.050 178.767 265.052 C 178.766 265.054 166.006 287.049 166.005 287.051 C 166.004 287.054 157.942 313.038 157.942 313.040 C 157.941 313.043 156.166 341.719 156.167 341.722 C 157.724 357.143 170.483 391.868 170.593 391.332 Z"/>
<path fill="none" stroke="#ffffff" stroke-width="4" stroke-linecap="round" stroke-linejoin="round" d="M 260.361 250.756 C 260.363 250.756 278.604 248.750 282.242 247.943 C 290.554 246.100 330.019 231.903 330.024 231.901 C 329.947 231.701 305.120 221.665 305.117 221.664 C 305.114 221.663 277.099 217.320 277.096 217.320 C 277.093 217.320 248.854 219.825 248.851 219.825 C 248.849 219.826 222.036 229.034 222.033 229.035 C 222.031 229.036 198.210 244.408 198.207 244.410 C 198.206 244.412 178.769 265.050 178.767 265.052 C 178.766 265.054 166.006 287.049 166.005 287.051 C 166.004 287.054 157.942 313.038 157.942 313.040 C 157.941 313.043 156.166 341.719 156.167 341.722 C 157.724 357.143 170.483 391.868 170.593 391.332 C 170.593 391.330 174.362 370.675 174.363 370.673 C 174.363 370.671 177.702 352.580 177.702 352.578 C 177.702 352.576 180.501 332.659 180.501 332.657 C 180.502 332.655 187.060 312.221 187.061 312.219 C 187.062 312.217 196.702 294.477 196.703 294.476 C 196.704 294.474 209.677 278.324 209.679 278.322 C 209.680 278.321 224.446 266.353 224.448 266.351 C 224.450 266.350 241.574 256.802 241.576 256.801 C 241.578 256.801 260.359 250.757 260.361 250.756 C 260.363 250.756 278.604 248.750 282.242 247.943 C 290.554 246.100 330.019 231.903 330.024 231.901 M 241.576 256.801 C 241.578 256.801 260.359 250.757 260.361 250.756 M 224.448 266.351 C 224.450 266.350 241.574 256.802 241.576 256.801 M 209.679 278.322 C 209.680 278.321 224.446 266.353 224.448 266.351 M 196.703 294.476 C 196.704 294.474 209.677 278.324 209.679 278.322 M 187.061 312.219 C 187.062 312.217 196.702 294.477 196.703 294.476 M 180.501 332.657 C 180.502 332.655 187.060 312.221 187.061 312.219 M 177.702 352.578 C 177.702 352.576 180.501 332.659 180.501 332.657 M 174.363 370.673 C 174.363 370.671 177.702 352.580 177.702 352.578 M 170.593 391.332 C 170.593 391.330 174.363 370.675 174.363 370.673 "/>
<path fill="none" stroke="#ffffff" stroke-width="1" stroke-linecap="butt" stroke-linejoin="round" d="M 156.167 341.722 C 157.724 357.143 170.483 391.868 170.593 391.332 "/>
<path fill="none" stroke="#ffffff" stroke-width="1" stroke-linecap="butt" stroke-linejoin="round" d="M 330.024 231.901 C 329.947 231.701 305.120 221.665 305.117 221.664 "/>
<path fill="none" stroke="#ffffff" stroke-width="1" stroke-linecap="butt" stroke-linejoin="round" d="M 305.117 221.664 C 305.114 221.663 277.099 217.320 277.096 217.320 "/>
<path fill="none" stroke="#ffffff" stroke-width="1" stroke-linecap="butt" stroke-linejoin="round" d="M 277.096 217.320 C 277.093 217.320 248.854 219.825 248.851 219.825 "/>
<path fill="none" stroke="#ffffff" stroke-width="1" stroke-linecap="butt" stroke-linejoin="round" d="M 248.851 219.825 C 248.849 219.826 222.036 229.034 222.033 229.035 "/>
<path fill="none" stroke="#ffffff" stroke-width="1" stroke-linecap="butt" stroke-linejoin="round" d="M 222.033 229.035 C 222.031 229.036 198.210 244.408 198.207 244.410 "/>
<path fill="none" stroke="#ffffff" stroke-width="1" stroke-linecap="butt" stroke-linejoin="round" d="M 198.207 244.410 C 198.206 244.412 178.769 265.050 178.767 265.052 "/>
<path fill="none" stroke="#ffffff" stroke-width="1" stroke-linecap="butt" stroke-linejoin="round" d="M 178.767 265.052 C 178.766 265.054 166.006 287.049 166.005 287.051 "/>
<path fill="none" stroke="#ffffff" stroke-width="1" stroke-linecap="butt" stroke-linejoin="round" d="M 166.005 287.051 C 166.004 287.054 157.942 313.038 157.942 313.040 "/>
<path fill="none" stroke="#ffffff" stroke-width="1" stroke-linecap="butt" stroke-linejoin="round" d="M 157.942 313.040 C 157.941 313.043 156.166 341.719 156.167 341.722 "/>
<path fill="#ffffff" fill-rule="evenodd" stroke="#000000" stroke-width="4" stroke-linecap="round" stroke-linejoin="round" d="M 156.167 341.722 C 157.724 357.143 170.483 391.868 170.593 391.332 C 170.591 391.331 151.750 378.929 151.748 378.928 C 151.747 378.926 138.243 360.014 138.241 360.013 C 138.241 360.010 131.436 331.646 131.435 331.643 C 131.435 331.640 132.338 298.031 132.338 298.028 C 132.339 298.024 141.964 265.811 141.965 265.808 C 141.967 265.805 161.104 235.356 161.106 235.353 C 161.109 235.351 185.535 211.976 185.537 211.974 C 185.540 211.972 216.411 195.050 216.414 195.048 C 216.417 195.047 250.462 186.480 250.466 186.479 C 250.470 186.479 283.895 183.304 288.473 187.810 C 297.874 191.854 330.020 231.897 330.024 231.901 C 329.947 231.701 305.120 221.665 305.117 221.664 C 305.114 221.663 277.099 217.320 277.096 217.320 C 277.093 217.320 248.854 219.825 248.851 219.825 C 248.849 219.826 222.036 229.034 222.033 229.035 C 222.031 229.036 198.210 244.408 198.207 244.410 C 198.206 244.412 178.769 265.050 178.767 265.052 C 178.766 265.054 166.006 287.049 166.005 287.051 C 166.004 287.054 157.942 313.038 157.942 313.040 C 157.941 313.043 156.166 341.719 156.167 341.722 Z"/>
</g>
<g id="Layer_63">
<path fill="#ffffff" fill-rule="evenodd" stroke="#000000" stroke-width="4" stroke-linecap="round" stroke-linejoin="round" d="M 327.677 241.253 C 327.679 241.252 360.872 230.762 360.874 230.762 C 360.875 230.762 394.069 241.252 394.070 241.253 C 394.070 241.258 395.969 293.226 395.969 293.231 C 395.969 293.236 397.867 345.204 397.868 345.209 C 397.868 345.214 399.766 397.182 399.766 397.187 C 399.767 397.192 401.665 449.160 401.665 449.165 C 401.665 449.170 403.564 501.138 403.564 501.143 C 403.564 501.148 405.462 553.116 405.462 553.121 C 405.463 553.126 407.361 605.094 407.361 605.099 C 407.361 605.104 409.260 657.072 409.260 657.077 C 409.258 657.077 312.490 657.077 312.488 657.077 C 312.488 657.072 314.386 605.104 314.386 605.099 C 314.387 605.094 316.285 553.126 316.285 553.121 C 316.285 553.116 318.184 501.148 318.184 501.143 C 318.184 501.138 320.082 449.170 320.083 449.165 C 320.083 449.160 321.981 397.192 321.981 397.187 C 321.981 397.182 323.880 345.214 323.880 345.209 C 323.880 345.204 325.778 293.236 325.779 293.231 C 325.779 293.226 327.677 241.258 327.677 241.253 Z"/>
<path fill="#000000" fill-rule="evenodd" stroke="#ffffff" stroke-width="4" stroke-linecap="round" stroke-linejoin="round" d="M 360.874 182.823 C 385.941 182.823 403.005 208.125 400.584 233.075 C 398.461 254.951 323.287 254.951 321.164 233.075 C 318.742 208.125 335.807 182.823 360.874 182.823 Z"/>
<path fill="none" stroke="#000000" stroke-width="4" stroke-linecap="round" stroke-linejoin="round" d="M 314.386 605.099 C 345.378 605.099 376.370 605.099 407.361 605.099 C 407.361 605.094 405.463 553.126 405.462 553.121 C 375.737 553.121 346.011 553.121 316.285 553.121 C 316.285 553.116 318.184 501.148 318.184 501.143 C 346.644 501.143 375.104 501.143 403.564 501.143 C 403.564 501.148 405.462 553.116 405.462 553.121 M 323.880 345.209 C 348.543 345.209 373.205 345.209 397.868 345.209 C 397.868 345.214 399.766 397.182 399.766 397.187 C 373.838 397.187 347.910 397.187 321.981 397.187 C 321.981 397.182 323.880 345.214 323.880 345.209 C 323.880 345.204 325.778 293.236 325.779 293.231 C 349.175 293.231 372.572 293.231 395.969 293.231 C 395.969 293.236 397.867 345.204 397.868 345.209 M 320.083 449.165 C 347.277 449.165 374.471 449.165 401.665 449.165 C 401.665 449.170 403.564 501.138 403.564 501.143 M 320.083 449.165 C 320.083 449.160 321.981 397.192 321.981 397.187 M 318.184 501.143 C 318.184 501.138 320.082 449.170 320.083 449.165 M 314.386 605.099 C 314.387 605.094 316.285 553.126 316.285 553.121 M 399.766 397.187 C 399.767 397.192 401.665 449.160 401.665 449.165 "/>
</g>
</g>
<g id="specs_2">
<path fill="#ff0000" fill-rule="evenodd" stroke="none" d="M 360.000 674.337 C 360.001 674.341 371.717 707.146 371.718 707.149 C 371.717 707.148 360.001 696.247 360.000 696.246 C 359.999 696.247 348.283 707.148 348.282 707.149 C 348.283 707.146 359.999 674.341 360.000 674.337 Z"/>
<path fill="#0000ff" fill-rule="evenodd" stroke="none" d="M 360.000 49.614 C 360.001 49.616 366.806 68.672 366.807 68.674 C 366.806 68.673 360.001 62.341 360.000 62.341 C 359.999 62.341 353.194 68.673 353.193 68.674 C 353.194 68.672 359.999 49.616 360.000 49.614 Z"/>
<path fill="#00ff00" fill-rule="evenodd" stroke="none" d="M 227.174 515.778 C 227.176 515.777 246.197 508.875 246.199 508.874 C 246.199 508.875 239.901 515.713 239.900 515.714 C 239.901 515.714 246.267 522.488 246.268 522.488 C 246.266 522.488 227.176 515.779 227.174 515.778 Z"/>
<path fill="#ffff00" fill-rule="evenodd" stroke="none" d="M 304.965 661.502 C 304.966 661.500 311.159 648.016 311.160 648.014 C 311.160 648.015 311.486 654.824 311.486 654.825 C 311.486 654.825 318.301 654.990 318.302 654.990 C 318.300 654.991 304.966 661.501 304.965 661.502 Z"/>
<path fill="#ffff00" fill-rule="evenodd" stroke="none" d="M 415.035 661.336 C 415.034 661.335 408.572 647.977 408.571 647.976 C 408.571 647.977 408.382 654.791 408.382 654.792 C 408.381 654.792 401.571 655.094 401.570 655.094 C 401.571 655.094 415.034 661.336 415.035 661.336 Z"/>
<path fill="#00ff00" fill-rule="evenodd" stroke="none" d="M 492.826 515.778 C 492.824 515.777 473.803 508.875 473.801 508.874 C 473.801 508.875 480.099 515.713 480.100 515.714 C 480.099 515.714 473.733 522.488 473.732 522.488 C 473.734 522.488 492.824 515.779 492.826 515.778 Z"/>
<path fill="#00ffff" fill-rule="evenodd" stroke="none" d="M 618.695 231.876 C 618.695 231.874 611.013 210.183 611.012 210.181 C 611.012 210.182 609.557 220.653 609.557 220.654 C 609.556 220.654 599.008 219.957 599.007 219.957 C 599.008 219.958 618.693 231.875 618.695 231.876 Z"/>
<path fill="#00ffff" fill-rule="evenodd" stroke="none" d="M 101.410 231.157 C 101.411 231.155 110.522 210.024 110.523 210.022 C 110.523 210.023 111.276 220.568 111.276 220.569 C 111.277 220.569 121.848 220.577 121.850 220.577 C 121.847 220.578 101.412 231.156 101.410 231.157 Z"/>
<path fill="#be0027" fill-rule="evenodd" stroke="none" d="M 360.000 677.516 C 360.001 677.513 371.717 644.707 371.718 644.704 C 371.717 644.705 360.001 655.606 360.000 655.607 C 359.999 655.606 348.283 644.705 348.282 644.704 C 348.283 644.707 359.999 677.513 360.000 677.516 Z"/>
</g>
</g>
</svg>
