<?xml version="1.0" encoding="utf-8"?>
<!-- Generator: Moho 12.5 build 22414 -->
<!DOCTYPE svg PUBLIC "-//W3C//DTD SVG 1.1//EN" "http://www.w3.org/Graphics/SVG/1.1/DTD/svg11.dtd">
<svg version="1.1" id="Frame_0" xmlns="http://www.w3.org/2000/svg" xmlns:xlink="http://www.w3.org/1999/xlink" width="720px" height="720px">
<g id="frond_leaf">
<g id="frond">
<path fill="#000000" fill-rule="evenodd" stroke="none" d="M 394.477 56.528 C 394.474 56.524 371.503 31.696 360.015 19.280 C 360.015 19.342 360.015 639.330 360.015 639.392 C 360.024 639.382 438.136 563.069 446.579 542.860 C 450.607 533.219 453.136 481.353 453.137 481.347 C 453.137 481.342 455.498 425.087 455.498 425.081 C 455.498 425.075 455.760 368.820 455.760 368.814 C 455.760 368.809 452.875 314.652 452.874 314.646 C 452.874 314.641 448.492 256.549 448.492 256.543 C 448.491 256.538 440.963 201.594 440.962 201.588 C 440.961 201.583 430.285 145.590 430.284 145.584 C 430.283 145.579 417.508 95.880 417.507 95.875 C 417.505 95.871 394.479 56.532 394.477 56.528 Z"/>
<path fill="none" stroke="#ffffff" stroke-width="1" stroke-linecap="butt" stroke-linejoin="round" d="M 360.015 19.280 C 360.015 19.342 360.015 639.330 360.015 639.392 "/>
<path fill="#ffffff" fill-rule="evenodd" stroke="none" d="M 360.015 19.280 C 360.015 19.342 360.015 639.330 360.015 639.392 C 360.007 639.382 281.867 563.071 273.421 542.860 C 269.392 533.219 266.864 481.353 266.863 481.347 C 266.863 481.342 264.502 425.087 264.502 425.081 C 264.502 425.075 264.240 368.820 264.240 368.814 C 264.240 368.809 267.125 314.652 267.126 314.646 C 267.126 314.641 271.508 256.549 271.508 256.543 C 271.509 256.538 279.037 201.594 279.038 201.588 C 279.039 201.583 289.715 145.590 289.716 145.584 C 289.717 145.579 302.492 95.880 302.493 95.875 C 302.495 95.871 325.521 56.532 325.523 56.528 C 325.526 56.524 360.012 19.283 360.015 19.280 Z"/>
<path fill="none" stroke="#ffffff" stroke-width="4" stroke-linecap="round" stroke-linejoin="round" d="M 394.477 56.528 C 382.990 79.675 360.019 125.963 360.015 125.970 C 360.015 125.976 360.015 184.969 360.015 184.975 C 360.021 184.966 398.343 125.575 417.507 95.875 C 417.508 95.880 430.283 145.579 430.284 145.584 C 406.861 177.333 360.022 240.823 360.015 240.832 C 360.015 240.838 360.015 293.020 360.015 293.025 C 360.023 293.016 413.980 232.067 440.962 201.588 C 440.963 201.594 448.491 256.538 448.492 256.543 C 419.000 288.110 360.024 351.234 360.015 351.244 C 360.015 351.249 360.015 409.456 360.015 409.462 C 360.025 409.452 421.921 346.252 452.874 314.646 C 452.875 314.652 455.760 368.809 455.760 368.814 C 423.845 401.769 360.025 467.670 360.015 467.680 C 360.015 467.686 360.015 525.893 360.015 525.898 C 360.025 525.888 423.670 458.687 455.498 425.081 C 455.498 425.087 453.137 481.342 453.137 481.347 C 422.096 515.604 360.025 584.107 360.015 584.117 C 360.015 584.122 360.015 639.386 360.015 639.392 C 360.015 639.330 360.015 19.342 360.015 19.280 C 360.015 19.290 360.015 125.960 360.015 125.970 M 360.015 525.898 C 360.015 525.904 360.015 584.111 360.015 584.117 M 360.015 409.462 C 360.015 409.468 360.015 467.674 360.015 467.680 M 360.015 293.025 C 360.015 293.031 360.015 351.238 360.015 351.244 M 360.015 184.975 C 360.015 184.981 360.015 240.827 360.015 240.832 M 446.579 542.860 C 438.136 563.069 360.024 639.382 360.015 639.392 M 453.137 481.347 C 453.136 481.353 450.607 533.219 446.579 542.860 M 455.760 368.814 C 455.760 368.820 455.498 425.075 455.498 425.081 M 448.492 256.543 C 448.492 256.549 452.874 314.641 452.874 314.646 M 430.284 145.584 C 430.285 145.590 440.961 201.583 440.962 201.588 M 394.477 56.528 C 394.479 56.532 417.505 95.871 417.507 95.875 M 360.015 19.280 C 360.019 19.283 394.474 56.524 394.477 56.528 "/>
<path fill="none" stroke="#000000" stroke-width="4" stroke-linecap="round" stroke-linejoin="round" d="M 360.015 125.970 C 360.012 125.963 337.020 79.675 325.523 56.528 C 325.526 56.524 360.012 19.283 360.015 19.280 C 360.015 19.290 360.015 125.960 360.015 125.970 C 360.015 125.976 360.015 184.969 360.015 184.975 C 360.010 184.966 321.667 125.575 302.493 95.875 C 302.495 95.871 325.521 56.532 325.523 56.528 M 360.015 240.832 C 360.008 240.823 313.149 177.333 289.716 145.584 C 289.717 145.579 302.492 95.880 302.493 95.875 M 360.015 293.025 C 360.007 293.016 306.030 232.067 279.038 201.588 C 279.039 201.583 289.715 145.590 289.716 145.584 M 360.015 351.244 C 360.006 351.234 301.010 288.110 271.508 256.543 C 271.509 256.538 279.037 201.594 279.038 201.588 M 360.015 409.462 C 360.006 409.452 298.089 346.252 267.126 314.646 C 267.126 314.641 271.508 256.549 271.508 256.543 M 360.015 467.680 C 360.006 467.670 296.165 401.769 264.240 368.814 C 264.240 368.809 267.125 314.652 267.126 314.646 M 360.015 525.898 C 360.006 525.888 296.340 458.687 264.502 425.081 C 264.502 425.075 264.240 368.820 264.240 368.814 M 360.015 584.117 C 360.006 584.107 297.914 515.604 266.863 481.347 C 266.863 481.342 264.502 425.087 264.502 425.081 M 273.421 542.860 C 269.392 533.219 266.864 481.353 266.863 481.347 M 360.015 639.392 C 360.007 639.382 281.867 563.071 273.421 542.860 M 360.015 584.117 C 360.015 584.122 360.015 639.386 360.015 639.392 C 360.015 639.330 360.015 19.342 360.015 19.280 M 360.015 525.898 C 360.015 525.904 360.015 584.111 360.015 584.117 M 360.015 467.680 C 360.015 467.686 360.015 525.893 360.015 525.898 M 360.015 409.462 C 360.015 409.468 360.015 467.674 360.015 467.680 M 360.015 351.244 C 360.015 351.249 360.015 409.456 360.015 409.462 M 360.015 293.025 C 360.015 293.031 360.015 351.238 360.015 351.244 M 360.015 240.832 C 360.015 240.838 360.015 293.020 360.015 293.025 M 360.015 184.975 C 360.015 184.981 360.015 240.827 360.015 240.832 "/>
</g>
<g id="specs_2">
<path fill="#ff0000" fill-rule="evenodd" stroke="none" d="M 360.000 680.614 C 360.001 680.617 371.958 714.096 371.959 714.099 C 371.958 714.098 360.001 702.973 360.000 702.972 C 359.999 702.973 348.043 714.098 348.041 714.099 C 348.043 714.096 359.999 680.617 360.000 680.614 Z"/>
<path fill="#0000ff" fill-rule="evenodd" stroke="none" d="M 360.000 4.380 C 360.001 4.382 366.946 23.829 366.946 23.831 C 366.946 23.830 360.001 17.368 360.000 17.368 C 359.999 17.368 353.054 23.830 353.054 23.831 C 353.054 23.829 359.999 4.382 360.000 4.380 Z"/>
<path fill="#00ff00" fill-rule="evenodd" stroke="none" d="M 154.521 330.202 C 154.522 330.202 166.662 325.797 166.663 325.797 C 166.663 325.797 162.644 330.161 162.643 330.161 C 162.644 330.162 166.706 334.485 166.707 334.485 C 166.706 334.485 154.522 330.203 154.521 330.202 Z"/>
<path fill="#ffff00" fill-rule="evenodd" stroke="none" d="M 179.765 551.050 C 179.766 551.048 186.431 533.287 186.432 533.285 C 186.432 533.286 186.783 542.255 186.783 542.256 C 186.783 542.256 194.118 542.473 194.118 542.473 C 194.117 542.474 179.767 551.049 179.765 551.050 Z"/>
<path fill="#ffff00" fill-rule="evenodd" stroke="none" d="M 540.235 550.833 C 540.234 550.831 533.279 533.236 533.278 533.235 C 533.278 533.235 533.075 542.211 533.075 542.212 C 533.074 542.212 525.744 542.610 525.744 542.610 C 525.745 542.611 540.233 550.832 540.235 550.833 Z"/>
<path fill="#00ff00" fill-rule="evenodd" stroke="none" d="M 565.479 330.202 C 565.478 330.202 553.338 325.797 553.337 325.797 C 553.337 325.797 557.357 330.161 557.357 330.161 C 557.357 330.162 553.294 334.485 553.293 334.485 C 553.294 334.485 565.478 330.203 565.479 330.202 Z"/>
<path fill="#00ffff" fill-rule="evenodd" stroke="none" d="M 539.538 108.790 C 539.538 108.791 534.206 127.216 534.206 127.217 C 534.206 127.216 533.196 118.323 533.196 118.322 C 533.195 118.322 525.875 118.913 525.874 118.913 C 525.876 118.912 539.537 108.791 539.538 108.790 Z"/>
<path fill="#00ffff" fill-rule="evenodd" stroke="none" d="M 180.545 109.400 C 180.545 109.402 186.869 127.350 186.869 127.352 C 186.869 127.351 187.392 118.395 187.392 118.394 C 187.393 118.394 194.729 118.387 194.730 118.387 C 194.728 118.386 180.546 109.401 180.545 109.400 Z"/>
<path fill="#be0027" fill-rule="evenodd" stroke="none" d="M 360.000 656.319 C 360.001 656.315 371.958 622.837 371.959 622.833 C 371.958 622.834 360.001 633.959 360.000 633.960 C 359.999 633.959 348.043 622.834 348.041 622.833 C 348.043 622.837 359.999 656.315 360.000 656.319 Z"/>
</g>
</g>
</svg>
