<?xml version="1.0" encoding="utf-8"?>
<!-- Generator: Moho 12.5 build 22414 -->
<!DOCTYPE svg PUBLIC "-//W3C//DTD SVG 1.1//EN" "http://www.w3.org/Graphics/SVG/1.1/DTD/svg11.dtd">
<svg version="1.1" id="Frame_0" xmlns="http://www.w3.org/2000/svg" xmlns:xlink="http://www.w3.org/1999/xlink" width="720px" height="720px">
<g id="palm">
<g id="palm">
<g id="palm_leaf_4">
<path fill="#000000" fill-rule="evenodd" stroke="#ffffff" stroke-width="4" stroke-linecap="round" stroke-linejoin="round" d="M 328.534 239.864 C 349.977 242.027 355.156 233.291 354.628 229.520 C 312.242 203.747 250.312 211.321 217.992 244.432 C 175.154 288.318 149.189 347.457 175.744 393.012 C 175.740 393.011 176.468 385.087 182.144 350.664 C 187.736 316.759 224.231 229.343 328.534 239.864 Z"/>
<path fill="none" stroke="#ffffff" stroke-width="1" stroke-linecap="butt" stroke-linejoin="round" d="M 175.744 393.012 C 149.189 347.457 175.154 288.318 217.992 244.432 "/>
<path fill="none" stroke="#ffffff" stroke-width="1" stroke-linecap="butt" stroke-linejoin="round" d="M 217.992 244.432 C 250.312 211.321 312.242 203.747 354.628 229.520 "/>
<path fill="#ffffff" fill-rule="evenodd" stroke="#000000" stroke-width="4" stroke-linecap="round" stroke-linejoin="round" d="M 150.841 271.539 C 111.967 349.879 175.741 393.000 175.744 393.012 C 149.189 347.457 175.154 288.318 217.992 244.432 C 250.312 211.321 312.242 203.747 354.628 229.520 C 352.672 215.536 332.931 196.778 308.404 191.714 C 266.665 183.097 193.004 186.573 150.841 271.539 Z"/>
</g>
<g id="palm_leaf_5">
<path fill="#000000" fill-rule="evenodd" stroke="#ffffff" stroke-width="4" stroke-linecap="round" stroke-linejoin="round" d="M 324.565 233.506 C 338.198 250.198 348.038 247.683 350.331 244.643 C 338.583 196.448 289.437 158.012 243.170 158.571 C 181.847 159.312 121.669 182.770 108.234 233.760 C 108.232 233.756 114.350 228.667 142.705 208.341 C 170.633 188.320 258.252 152.313 324.565 233.506 Z"/>
<path fill="none" stroke="#ffffff" stroke-width="1" stroke-linecap="butt" stroke-linejoin="round" d="M 108.234 233.760 C 121.669 182.770 181.847 159.312 243.170 158.571 "/>
<path fill="none" stroke="#ffffff" stroke-width="1" stroke-linecap="butt" stroke-linejoin="round" d="M 243.170 158.571 C 289.437 158.012 338.583 196.448 350.331 244.643 "/>
<path fill="#ffffff" fill-rule="evenodd" stroke="#000000" stroke-width="4" stroke-linecap="round" stroke-linejoin="round" d="M 176.520 130.256 C 93.637 158.163 108.241 233.749 108.234 233.760 C 121.669 182.770 181.847 159.312 243.170 158.571 C 289.437 158.012 338.583 196.448 350.331 244.643 C 358.836 233.372 358.141 206.149 344.379 185.225 C 320.958 149.618 266.413 99.989 176.520 130.256 Z"/>
</g>
<g id="palm_leaf_6">
<path fill="#000000" fill-rule="evenodd" stroke="#ffffff" stroke-width="4" stroke-linecap="round" stroke-linejoin="round" d="M 321.455 226.204 C 319.292 247.647 328.029 252.826 331.799 252.299 C 357.572 209.912 349.998 147.983 316.887 115.662 C 273.001 72.824 213.862 46.859 168.307 73.414 C 168.308 73.410 176.232 74.138 210.655 79.815 C 244.560 85.406 331.977 121.901 321.455 226.204 Z"/>
<path fill="none" stroke="#ffffff" stroke-width="1" stroke-linecap="butt" stroke-linejoin="round" d="M 168.307 73.414 C 213.862 46.859 273.001 72.824 316.887 115.662 "/>
<path fill="none" stroke="#ffffff" stroke-width="1" stroke-linecap="butt" stroke-linejoin="round" d="M 316.887 115.662 C 349.998 147.983 357.572 209.912 331.799 252.299 "/>
<path fill="#ffffff" fill-rule="evenodd" stroke="#000000" stroke-width="4" stroke-linecap="round" stroke-linejoin="round" d="M 289.780 48.512 C 211.440 9.638 168.319 73.412 168.307 73.414 C 213.862 46.859 273.001 72.824 316.887 115.662 C 349.998 147.983 357.572 209.912 331.799 252.299 C 345.783 250.342 364.541 230.602 369.605 206.075 C 378.222 164.336 374.746 90.674 289.780 48.512 Z"/>
</g>
<g id="palm_leaf_3">
<path fill="#000000" fill-rule="evenodd" stroke="#ffffff" stroke-width="4" stroke-linecap="round" stroke-linejoin="round" d="M 401.201 226.204 C 403.364 247.647 394.628 252.826 390.857 252.299 C 365.084 209.912 372.658 147.983 405.769 115.662 C 449.655 72.824 508.794 46.859 554.349 73.414 C 554.348 73.410 546.424 74.138 512.001 79.815 C 478.096 85.406 390.679 121.901 401.201 226.204 Z"/>
<path fill="none" stroke="#ffffff" stroke-width="1" stroke-linecap="butt" stroke-linejoin="round" d="M 554.349 73.414 C 508.794 46.859 449.655 72.824 405.769 115.662 "/>
<path fill="none" stroke="#ffffff" stroke-width="1" stroke-linecap="butt" stroke-linejoin="round" d="M 405.769 115.662 C 372.658 147.983 365.084 209.912 390.857 252.299 "/>
<path fill="#ffffff" fill-rule="evenodd" stroke="#000000" stroke-width="4" stroke-linecap="round" stroke-linejoin="round" d="M 432.876 48.512 C 511.216 9.637 554.337 73.412 554.349 73.414 C 508.794 46.859 449.655 72.824 405.769 115.662 C 372.658 147.983 365.084 209.912 390.857 252.299 C 376.873 250.342 358.115 230.602 353.051 206.075 C 344.434 164.336 347.910 90.674 432.876 48.512 Z"/>
</g>
<g id="palm_leaf_2">
<path fill="#000000" fill-rule="evenodd" stroke="#ffffff" stroke-width="4" stroke-linecap="round" stroke-linejoin="round" d="M 397.557 233.506 C 383.924 250.198 374.084 247.683 371.791 244.643 C 383.539 196.448 432.685 158.012 478.952 158.571 C 540.275 159.312 600.453 182.770 613.888 233.760 C 613.890 233.756 607.773 228.667 579.417 208.341 C 551.490 188.320 463.871 152.313 397.557 233.506 Z"/>
<path fill="none" stroke="#ffffff" stroke-width="1" stroke-linecap="butt" stroke-linejoin="round" d="M 613.888 233.760 C 600.453 182.770 540.275 159.312 478.952 158.571 "/>
<path fill="none" stroke="#ffffff" stroke-width="1" stroke-linecap="butt" stroke-linejoin="round" d="M 478.952 158.571 C 432.685 158.012 383.539 196.448 371.791 244.643 "/>
<path fill="#ffffff" fill-rule="evenodd" stroke="#000000" stroke-width="4" stroke-linecap="round" stroke-linejoin="round" d="M 545.602 130.256 C 628.485 158.163 613.882 233.749 613.888 233.760 C 600.453 182.770 540.275 159.312 478.952 158.571 C 432.685 158.012 383.539 196.448 371.791 244.643 C 363.287 233.372 363.981 206.149 377.744 185.225 C 401.164 149.618 455.709 99.989 545.602 130.256 Z"/>
</g>
<g id="palm_leaf">
<path fill="#000000" fill-rule="evenodd" stroke="#ffffff" stroke-width="4" stroke-linecap="round" stroke-linejoin="round" d="M 393.589 239.864 C 372.146 242.027 366.966 233.291 367.494 229.520 C 409.881 203.747 471.810 211.321 504.131 244.432 C 546.969 288.318 572.934 347.457 546.379 393.012 C 546.383 393.011 545.655 385.087 539.978 350.664 C 534.387 316.759 497.892 229.343 393.589 239.864 Z"/>
<path fill="none" stroke="#ffffff" stroke-width="1" stroke-linecap="butt" stroke-linejoin="round" d="M 546.379 393.012 C 572.934 347.457 546.969 288.318 504.131 244.432 "/>
<path fill="none" stroke="#ffffff" stroke-width="1" stroke-linecap="butt" stroke-linejoin="round" d="M 504.131 244.432 C 471.810 211.321 409.881 203.747 367.494 229.520 "/>
<path fill="#ffffff" fill-rule="evenodd" stroke="#000000" stroke-width="4" stroke-linecap="round" stroke-linejoin="round" d="M 571.281 271.539 C 610.155 349.879 546.381 393.000 546.379 393.012 C 572.934 347.457 546.969 288.318 504.131 244.432 C 471.810 211.321 409.881 203.747 367.494 229.520 C 369.451 215.536 389.191 196.778 413.718 191.714 C 455.457 183.097 529.119 186.573 571.281 271.539 Z"/>
</g>
<g id="Layer_63">
<path fill="#ffffff" fill-rule="evenodd" stroke="#000000" stroke-width="4" stroke-linecap="round" stroke-linejoin="round" d="M 327.637 241.105 C 327.639 241.104 360.873 230.601 360.875 230.601 C 360.877 230.601 394.111 241.104 394.113 241.105 C 394.113 241.110 396.014 293.142 396.014 293.148 C 396.014 293.153 397.914 345.185 397.915 345.190 C 397.915 345.196 399.816 397.228 399.816 397.233 C 399.816 397.239 401.717 449.271 401.717 449.276 C 401.717 449.281 403.618 501.314 403.618 501.319 C 403.618 501.324 405.519 553.357 405.519 553.362 C 405.519 553.367 407.420 605.399 407.420 605.404 C 407.420 605.410 409.321 657.442 409.321 657.447 C 409.319 657.447 312.431 657.447 312.428 657.447 C 312.429 657.442 314.329 605.410 314.330 605.404 C 314.330 605.399 316.231 553.367 316.231 553.362 C 316.231 553.357 318.131 501.324 318.132 501.319 C 318.132 501.314 320.033 449.281 320.033 449.276 C 320.033 449.271 321.934 397.239 321.934 397.233 C 321.934 397.228 323.835 345.196 323.835 345.191 C 323.835 345.185 325.736 293.153 325.736 293.148 C 325.736 293.142 327.637 241.110 327.637 241.105 Z"/>
<path fill="#ffffff" fill-rule="evenodd" stroke="#000000" stroke-width="4" stroke-linecap="round" stroke-linejoin="round" d="M 360.875 177.995 C 390.590 177.995 407.773 211.853 402.975 241.179 C 399.213 264.175 322.537 264.175 318.775 241.179 C 313.977 211.853 331.159 177.995 360.875 177.995 Z"/>
<path fill="none" stroke="#000000" stroke-width="4" stroke-linecap="round" stroke-linejoin="round" d="M 314.330 605.404 C 345.360 605.404 376.390 605.404 407.420 605.404 C 407.420 605.399 405.519 553.367 405.519 553.362 C 375.756 553.362 345.994 553.362 316.231 553.362 C 316.231 553.357 318.131 501.324 318.132 501.319 C 346.627 501.319 375.123 501.319 403.618 501.319 C 403.618 501.324 405.519 553.357 405.519 553.362 M 323.835 345.191 C 348.528 345.191 373.221 345.190 397.915 345.190 C 397.915 345.196 399.816 397.228 399.816 397.233 C 373.855 397.233 347.895 397.233 321.934 397.233 C 321.934 397.228 323.835 345.196 323.835 345.191 C 323.835 345.185 325.736 293.153 325.736 293.148 C 349.162 293.148 372.588 293.148 396.014 293.148 C 396.014 293.153 397.914 345.185 397.915 345.190 M 320.033 449.276 C 347.261 449.276 374.489 449.276 401.717 449.276 C 401.717 449.281 403.618 501.314 403.618 501.319 M 320.033 449.276 C 320.033 449.271 321.934 397.239 321.934 397.233 M 318.132 501.319 C 318.132 501.314 320.033 449.281 320.033 449.276 M 314.330 605.404 C 314.330 605.399 316.231 553.367 316.231 553.362 M 399.816 397.233 C 399.816 397.239 401.717 449.271 401.717 449.276 "/>
</g>
</g>
<g id="specs_2">
<path fill="#ff0000" fill-rule="evenodd" stroke="none" d="M 360.000 674.729 C 360.001 674.732 371.732 707.578 371.733 707.581 C 371.732 707.580 360.001 696.666 360.000 696.665 C 359.999 696.666 348.268 707.580 348.267 707.581 C 348.268 707.578 359.999 674.732 360.000 674.729 Z"/>
<path fill="#0000ff" fill-rule="evenodd" stroke="none" d="M 360.000 49.228 C 360.001 49.230 366.815 68.310 366.815 68.312 C 366.815 68.311 360.001 61.971 360.000 61.970 C 359.999 61.971 353.185 68.311 353.185 68.312 C 353.185 68.310 359.999 49.230 360.000 49.228 Z"/>
<path fill="#00ff00" fill-rule="evenodd" stroke="none" d="M 227.008 515.972 C 227.010 515.971 246.055 509.060 246.057 509.060 C 246.057 509.060 239.751 515.907 239.751 515.908 C 239.751 515.908 246.125 522.690 246.126 522.691 C 246.124 522.690 227.010 515.973 227.008 515.972 Z"/>
<path fill="#ffff00" fill-rule="evenodd" stroke="none" d="M 304.896 661.877 C 304.897 661.876 311.098 648.374 311.099 648.373 C 311.099 648.374 311.425 655.191 311.425 655.192 C 311.426 655.192 318.249 655.358 318.250 655.358 C 318.249 655.358 304.898 661.876 304.896 661.877 Z"/>
<path fill="#ffff00" fill-rule="evenodd" stroke="none" d="M 415.104 661.712 C 415.103 661.710 408.632 648.336 408.632 648.334 C 408.632 648.335 408.442 655.158 408.442 655.159 C 408.441 655.159 401.623 655.461 401.622 655.461 C 401.623 655.462 415.102 661.711 415.104 661.712 Z"/>
<path fill="#00ff00" fill-rule="evenodd" stroke="none" d="M 492.992 515.972 C 492.990 515.971 473.945 509.060 473.943 509.060 C 473.943 509.060 480.249 515.907 480.249 515.908 C 480.249 515.908 473.875 522.690 473.874 522.691 C 473.876 522.690 492.990 515.973 492.992 515.972 Z"/>
<path fill="#00ffff" fill-rule="evenodd" stroke="none" d="M 619.018 231.717 C 619.017 231.715 611.325 209.997 611.324 209.994 C 611.324 209.995 609.868 220.479 609.867 220.480 C 609.866 220.480 599.305 219.783 599.304 219.783 C 599.306 219.784 619.016 231.716 619.018 231.717 Z"/>
<path fill="#00ffff" fill-rule="evenodd" stroke="none" d="M 101.088 230.997 C 101.089 230.995 110.212 209.838 110.213 209.836 C 110.213 209.837 110.967 220.395 110.967 220.396 C 110.968 220.396 121.552 220.404 121.553 220.404 C 121.551 220.405 101.090 230.996 101.088 230.997 Z"/>
<path fill="#be0027" fill-rule="evenodd" stroke="none" d="M 360.000 677.911 C 360.001 677.908 371.732 645.062 371.733 645.059 C 371.732 645.060 360.001 655.974 360.000 655.975 C 359.999 655.974 348.268 645.060 348.267 645.059 C 348.268 645.062 359.999 677.908 360.000 677.911 Z"/>
</g>
</g>
</svg>
