<?xml version="1.0" encoding="utf-8"?>
<!-- Generator: Moho 12.5 build 22414 -->
<!DOCTYPE svg PUBLIC "-//W3C//DTD SVG 1.1//EN" "http://www.w3.org/Graphics/SVG/1.1/DTD/svg11.dtd">
<svg version="1.1" id="Frame_0" xmlns="http://www.w3.org/2000/svg" xmlns:xlink="http://www.w3.org/1999/xlink" width="720px" height="720px">
<g id="palm">
<g id="palm">
<g id="palm_2">
<path fill="#ffffff" fill-rule="evenodd" stroke="none" d="M 546.475 391.332 C 546.474 391.330 542.705 370.675 542.704 370.673 C 542.704 370.671 539.366 352.579 539.365 352.578 C 539.365 352.576 536.566 332.659 536.566 332.657 C 536.565 332.655 530.007 312.221 530.006 312.219 C 530.005 312.217 520.365 294.477 520.364 294.475 C 520.363 294.474 507.390 278.324 507.389 278.322 C 507.387 278.321 492.621 266.352 492.620 266.351 C 492.618 266.350 475.493 256.802 475.492 256.801 C 475.490 256.800 456.708 250.757 456.706 250.756 C 456.704 250.756 438.464 248.749 434.826 247.943 C 426.514 246.100 387.049 231.903 387.044 231.901 C 387.121 231.701 411.948 221.665 411.951 221.664 C 411.953 221.663 439.969 217.320 439.971 217.320 C 439.974 217.320 468.213 219.825 468.216 219.825 C 468.219 219.826 495.032 229.034 495.035 229.035 C 495.037 229.036 518.858 244.408 518.860 244.409 C 518.862 244.412 538.299 265.050 538.300 265.052 C 538.302 265.054 551.061 287.049 551.063 287.051 C 551.063 287.054 559.125 313.038 559.126 313.040 C 559.126 313.043 560.901 341.719 560.901 341.722 C 559.343 357.143 546.584 391.867 546.475 391.332 Z"/>
<path fill="none" stroke="#000000" stroke-width="1" stroke-linecap="butt" stroke-linejoin="round" d="M 560.901 341.722 C 559.343 357.143 546.584 391.867 546.475 391.332 "/>
<path fill="none" stroke="#000000" stroke-width="1" stroke-linecap="butt" stroke-linejoin="round" d="M 387.044 231.901 C 387.121 231.701 411.948 221.665 411.951 221.664 "/>
<path fill="none" stroke="#000000" stroke-width="1" stroke-linecap="butt" stroke-linejoin="round" d="M 411.951 221.664 C 411.953 221.663 439.969 217.320 439.971 217.320 "/>
<path fill="none" stroke="#000000" stroke-width="1" stroke-linecap="butt" stroke-linejoin="round" d="M 439.971 217.320 C 439.974 217.320 468.213 219.825 468.216 219.825 "/>
<path fill="none" stroke="#000000" stroke-width="1" stroke-linecap="butt" stroke-linejoin="round" d="M 468.216 219.825 C 468.219 219.826 495.032 229.034 495.035 229.035 "/>
<path fill="none" stroke="#000000" stroke-width="1" stroke-linecap="butt" stroke-linejoin="round" d="M 495.035 229.035 C 495.037 229.036 518.858 244.408 518.860 244.409 "/>
<path fill="none" stroke="#000000" stroke-width="1" stroke-linecap="butt" stroke-linejoin="round" d="M 518.860 244.409 C 518.862 244.412 538.299 265.050 538.300 265.052 "/>
<path fill="none" stroke="#000000" stroke-width="1" stroke-linecap="butt" stroke-linejoin="round" d="M 538.300 265.052 C 538.302 265.054 551.061 287.049 551.063 287.051 "/>
<path fill="none" stroke="#000000" stroke-width="1" stroke-linecap="butt" stroke-linejoin="round" d="M 551.063 287.051 C 551.063 287.054 559.125 313.038 559.126 313.040 "/>
<path fill="none" stroke="#000000" stroke-width="1" stroke-linecap="butt" stroke-linejoin="round" d="M 559.126 313.040 C 559.126 313.043 560.901 341.719 560.901 341.722 "/>
<path fill="#000000" fill-rule="evenodd" stroke="none" d="M 560.901 341.722 C 559.343 357.143 546.584 391.867 546.475 391.332 C 546.476 391.331 565.317 378.929 565.319 378.928 C 565.321 378.926 578.824 360.014 578.826 360.012 C 578.827 360.010 585.631 331.646 585.632 331.643 C 585.632 331.640 584.729 298.031 584.729 298.027 C 584.728 298.024 575.103 265.811 575.102 265.808 C 575.100 265.805 555.963 235.356 555.961 235.353 C 555.959 235.351 531.533 211.976 531.530 211.973 C 531.527 211.972 500.657 195.050 500.654 195.048 C 500.650 195.047 466.605 186.480 466.602 186.479 C 466.598 186.479 433.173 183.304 428.595 187.810 C 419.194 191.854 387.048 231.897 387.044 231.901 C 387.121 231.701 411.948 221.665 411.951 221.664 C 411.953 221.663 439.969 217.320 439.971 217.320 C 439.974 217.320 468.213 219.825 468.216 219.825 C 468.219 219.826 495.032 229.034 495.035 229.035 C 495.037 229.036 518.858 244.408 518.860 244.409 C 518.862 244.412 538.299 265.050 538.300 265.052 C 538.302 265.054 551.061 287.049 551.063 287.051 C 551.063 287.054 559.125 313.038 559.126 313.040 C 559.126 313.043 560.901 341.719 560.901 341.722 Z"/>
<path fill="none" stroke="#ffffff" stroke-width="4" stroke-linecap="round" stroke-linejoin="round" d="M 560.901 341.722 C 560.901 341.726 563.846 366.526 565.319 378.928 C 565.317 378.929 546.476 391.331 546.475 391.332 C 546.476 391.327 560.899 341.727 560.901 341.722 C 560.900 341.719 559.126 313.043 559.126 313.040 C 559.128 313.045 572.259 344.355 578.826 360.012 C 578.824 360.014 565.321 378.926 565.319 378.928 C 565.321 378.926 578.824 360.014 578.826 360.012 C 578.827 360.010 585.631 331.646 585.632 331.643 C 574.109 316.779 551.066 287.055 551.063 287.051 C 551.061 287.049 538.302 265.054 538.300 265.052 C 538.305 265.055 569.253 287.036 584.729 298.027 C 584.729 298.031 585.632 331.640 585.632 331.643 C 585.632 331.640 584.729 298.031 584.729 298.027 C 584.728 298.024 575.103 265.811 575.102 265.808 C 556.355 258.675 518.866 244.412 518.860 244.409 C 518.858 244.408 495.037 229.036 495.035 229.035 C 495.041 229.035 535.652 233.247 555.961 235.353 C 555.963 235.356 575.100 265.805 575.102 265.808 C 575.100 265.805 555.963 235.356 555.961 235.353 C 555.959 235.351 531.533 211.976 531.530 211.973 C 510.426 214.591 468.222 219.824 468.216 219.825 C 468.213 219.825 439.974 217.320 439.971 217.320 C 439.977 217.317 480.426 202.472 500.654 195.048 C 500.657 195.050 531.527 211.972 531.530 211.973 C 531.527 211.972 500.657 195.050 500.654 195.048 C 500.650 195.047 466.605 186.480 466.602 186.479 C 448.385 198.207 411.956 221.660 411.951 221.664 C 411.948 221.665 387.046 231.900 387.044 231.901 C 387.048 231.897 419.194 191.854 428.595 187.810 C 434.496 185.272 466.598 186.479 466.602 186.479 C 466.598 186.479 434.496 185.272 428.595 187.810 C 419.194 191.854 387.048 231.897 387.044 231.901 M 439.971 217.320 C 439.969 217.320 411.953 221.663 411.951 221.664 M 495.035 229.035 C 495.032 229.034 468.219 219.826 468.216 219.825 M 538.300 265.052 C 538.299 265.050 518.862 244.412 518.860 244.409 M 559.126 313.040 C 559.125 313.038 551.063 287.054 551.063 287.051 M 466.602 186.479 C 466.605 186.480 500.650 195.047 500.654 195.048 M 531.530 211.973 C 531.533 211.976 555.959 235.351 555.961 235.353 M 575.102 265.808 C 575.103 265.811 584.728 298.024 584.729 298.027 M 585.632 331.643 C 585.631 331.646 578.827 360.010 578.826 360.012 M 565.319 378.928 C 565.317 378.929 546.476 391.331 546.475 391.332 "/>
<path fill="none" stroke="#000000" stroke-width="4" stroke-linecap="round" stroke-linejoin="round" d="M 546.475 391.332 C 546.476 391.327 560.899 341.727 560.901 341.722 C 560.900 341.719 559.126 313.043 559.126 313.040 C 559.124 313.044 545.952 339.398 539.365 352.578 C 539.365 352.576 536.566 332.659 536.566 332.657 C 541.398 317.455 551.061 287.056 551.063 287.051 C 551.063 287.054 559.125 313.038 559.126 313.040 M 542.704 370.673 C 548.770 361.023 560.899 341.725 560.901 341.722 M 530.006 312.219 C 532.771 296.496 538.300 265.056 538.300 265.052 C 538.302 265.054 551.061 287.049 551.063 287.051 M 520.364 294.475 C 519.863 277.787 518.860 244.414 518.860 244.409 C 518.858 244.408 495.037 229.036 495.035 229.035 C 495.036 229.040 503.271 261.893 507.389 278.322 C 507.387 278.321 492.621 266.352 492.620 266.351 C 484.485 250.843 468.219 219.830 468.216 219.825 C 468.213 219.825 439.974 217.320 439.971 217.320 C 439.975 217.324 463.652 243.641 475.492 256.801 C 475.490 256.800 456.708 250.757 456.706 250.756 C 441.788 241.059 411.955 221.667 411.951 221.664 C 411.953 221.663 439.969 217.320 439.971 217.320 M 495.035 229.035 C 495.032 229.034 468.219 219.826 468.216 219.825 M 538.300 265.052 C 538.299 265.050 518.862 244.412 518.860 244.409 M 411.951 221.664 C 411.948 221.665 387.046 231.900 387.044 231.901 C 387.049 231.903 426.514 246.100 434.826 247.943 C 438.464 248.749 456.704 250.756 456.706 250.756 C 456.708 250.757 475.490 256.800 475.492 256.801 C 475.493 256.802 492.618 266.350 492.620 266.351 C 492.621 266.352 507.387 278.321 507.389 278.322 C 507.390 278.324 520.363 294.474 520.364 294.475 C 520.365 294.477 530.005 312.217 530.006 312.219 C 530.007 312.221 536.565 332.655 536.566 332.657 C 536.566 332.659 539.365 352.576 539.365 352.578 C 539.366 352.579 542.704 370.671 542.704 370.673 C 542.705 370.675 545.218 384.446 546.475 391.332 C 546.474 391.330 542.705 370.675 542.704 370.673 C 542.704 370.671 539.366 352.579 539.365 352.578 M 536.566 332.657 C 536.565 332.655 530.007 312.221 530.006 312.219 C 530.005 312.217 520.365 294.477 520.364 294.475 C 520.363 294.474 507.390 278.324 507.389 278.322 M 492.620 266.351 C 492.618 266.350 475.493 256.802 475.492 256.801 M 456.706 250.756 C 456.704 250.756 438.464 248.749 434.826 247.943 C 426.514 246.100 387.049 231.903 387.044 231.901 "/>
</g>
<g id="palm_3">
<path fill="#ffffff" fill-rule="evenodd" stroke="none" d="M 612.645 232.525 C 612.643 232.524 595.373 220.584 595.371 220.583 C 595.370 220.582 580.216 210.150 580.215 210.149 C 580.213 210.148 564.151 198.044 564.149 198.042 C 564.147 198.041 545.061 188.230 545.059 188.229 C 545.057 188.228 525.697 182.501 525.695 182.500 C 525.693 182.500 505.099 180.254 505.097 180.253 C 505.096 180.254 486.191 182.232 486.189 182.232 C 486.187 182.233 467.327 187.590 467.325 187.590 C 467.323 187.591 449.769 196.598 449.767 196.599 C 449.766 196.600 435.449 208.080 432.306 210.082 C 425.126 214.656 387.181 232.523 387.176 232.525 C 387.089 232.330 397.548 207.677 397.549 207.675 C 397.551 207.673 414.289 184.792 414.291 184.789 C 414.293 184.787 436.032 166.591 436.035 166.589 C 436.037 166.588 461.508 154.139 461.510 154.137 C 461.513 154.137 489.226 148.163 489.229 148.162 C 489.232 148.162 517.569 149.012 517.572 149.012 C 517.574 149.012 542.149 155.543 542.152 155.543 C 542.154 155.545 566.228 168.218 566.230 168.219 C 566.232 168.221 587.765 187.243 587.766 187.245 C 597.569 199.251 613.101 232.827 612.645 232.525 Z"/>
<path fill="none" stroke="#000000" stroke-width="1" stroke-linecap="butt" stroke-linejoin="round" d="M 587.766 187.245 C 597.569 199.251 613.101 232.827 612.645 232.525 "/>
<path fill="none" stroke="#000000" stroke-width="1" stroke-linecap="butt" stroke-linejoin="round" d="M 387.176 232.525 C 387.089 232.330 397.548 207.677 397.549 207.675 "/>
<path fill="none" stroke="#000000" stroke-width="1" stroke-linecap="butt" stroke-linejoin="round" d="M 397.549 207.675 C 397.551 207.673 414.289 184.792 414.291 184.789 "/>
<path fill="none" stroke="#000000" stroke-width="1" stroke-linecap="butt" stroke-linejoin="round" d="M 414.291 184.789 C 414.293 184.787 436.032 166.591 436.035 166.589 "/>
<path fill="none" stroke="#000000" stroke-width="1" stroke-linecap="butt" stroke-linejoin="round" d="M 436.035 166.589 C 436.037 166.588 461.508 154.139 461.510 154.137 "/>
<path fill="none" stroke="#000000" stroke-width="1" stroke-linecap="butt" stroke-linejoin="round" d="M 461.510 154.137 C 461.513 154.137 489.226 148.163 489.229 148.162 "/>
<path fill="none" stroke="#000000" stroke-width="1" stroke-linecap="butt" stroke-linejoin="round" d="M 489.229 148.162 C 489.232 148.162 517.569 149.012 517.572 149.012 "/>
<path fill="none" stroke="#000000" stroke-width="1" stroke-linecap="butt" stroke-linejoin="round" d="M 517.572 149.012 C 517.574 149.012 542.149 155.543 542.152 155.543 "/>
<path fill="none" stroke="#000000" stroke-width="1" stroke-linecap="butt" stroke-linejoin="round" d="M 542.152 155.543 C 542.154 155.545 566.228 168.218 566.230 168.219 "/>
<path fill="none" stroke="#000000" stroke-width="1" stroke-linecap="butt" stroke-linejoin="round" d="M 566.230 168.219 C 566.232 168.221 587.765 187.243 587.766 187.245 "/>
<path fill="#000000" fill-rule="evenodd" stroke="none" d="M 587.766 187.245 C 597.569 199.251 613.101 232.827 612.645 232.525 C 612.646 232.523 617.199 210.431 617.199 210.429 C 617.199 210.427 613.375 187.506 613.375 187.503 C 613.373 187.501 598.129 162.633 598.127 162.631 C 598.125 162.628 573.721 139.502 573.719 139.499 C 573.716 139.498 544.132 123.526 544.129 123.524 C 544.126 123.523 509.063 115.525 509.060 115.524 C 509.056 115.524 475.256 116.267 475.253 116.267 C 475.249 116.268 441.455 126.131 441.451 126.132 C 441.448 126.134 411.317 144.150 411.314 144.151 C 411.311 144.154 385.431 165.544 385.380 171.968 C 381.592 181.474 387.176 232.519 387.176 232.525 C 387.089 232.330 397.548 207.677 397.549 207.675 C 397.551 207.673 414.289 184.792 414.291 184.789 C 414.293 184.787 436.032 166.591 436.035 166.589 C 436.037 166.588 461.508 154.139 461.510 154.137 C 461.513 154.137 489.226 148.163 489.229 148.162 C 489.232 148.162 517.569 149.012 517.572 149.012 C 517.574 149.012 542.149 155.543 542.152 155.543 C 542.154 155.545 566.228 168.218 566.230 168.219 C 566.232 168.221 587.765 187.243 587.766 187.245 Z"/>
<path fill="none" stroke="#ffffff" stroke-width="4" stroke-linecap="round" stroke-linejoin="round" d="M 587.766 187.245 C 587.769 187.247 607.388 202.701 617.199 210.429 C 617.199 210.431 612.646 232.523 612.645 232.525 C 612.643 232.521 587.769 187.250 587.766 187.245 C 587.764 187.243 566.232 168.221 566.230 168.219 C 566.235 168.221 597.660 181.075 613.375 187.503 C 613.375 187.506 617.199 210.427 617.199 210.429 C 617.199 210.427 613.375 187.506 613.375 187.503 C 613.373 187.501 598.129 162.633 598.127 162.631 C 579.469 160.268 542.157 155.544 542.152 155.543 C 542.149 155.543 517.574 149.012 517.572 149.012 C 517.577 149.011 555.003 142.670 573.719 139.499 C 573.721 139.502 598.125 162.628 598.127 162.631 C 598.125 162.628 573.721 139.502 573.719 139.499 C 573.716 139.498 544.132 123.526 544.129 123.524 C 525.829 131.737 489.234 148.160 489.229 148.162 C 489.226 148.163 461.513 154.137 461.510 154.137 C 461.515 154.134 493.210 128.395 509.060 115.524 C 509.063 115.525 544.126 123.523 544.129 123.524 C 544.126 123.523 509.063 115.525 509.060 115.524 C 509.056 115.524 475.256 116.267 475.253 116.267 C 462.180 133.041 436.039 166.584 436.035 166.589 C 436.032 166.591 414.293 184.787 414.291 184.789 C 414.293 184.783 432.398 145.684 441.451 126.132 C 441.455 126.131 475.249 116.268 475.253 116.267 C 475.249 116.268 441.455 126.131 441.451 126.132 C 441.448 126.134 411.317 144.150 411.314 144.151 C 406.726 165.326 397.550 207.668 397.549 207.675 C 397.548 207.677 387.177 232.523 387.176 232.525 C 387.176 232.519 381.592 181.474 385.380 171.968 C 387.758 166.000 411.311 144.154 411.314 144.151 C 411.311 144.154 387.758 166.000 385.380 171.968 C 381.592 181.474 387.176 232.519 387.176 232.525 M 414.291 184.789 C 414.289 184.792 397.550 207.673 397.549 207.675 M 461.510 154.137 C 461.508 154.139 436.037 166.588 436.035 166.589 M 517.572 149.012 C 517.569 149.012 489.232 148.162 489.229 148.162 M 566.230 168.219 C 566.228 168.218 542.154 155.545 542.152 155.543 M 411.314 144.151 C 411.317 144.150 441.448 126.134 441.451 126.132 M 475.253 116.267 C 475.256 116.267 509.056 115.524 509.060 115.524 M 544.129 123.524 C 544.132 123.526 573.716 139.498 573.719 139.499 M 598.127 162.631 C 598.129 162.633 613.373 187.501 613.375 187.503 M 617.199 210.429 C 617.199 210.431 612.646 232.523 612.645 232.525 "/>
<path fill="none" stroke="#000000" stroke-width="4" stroke-linecap="round" stroke-linejoin="round" d="M 612.645 232.525 C 612.643 232.521 587.769 187.250 587.766 187.245 C 587.764 187.243 566.232 168.221 566.230 168.219 C 566.232 168.223 575.553 196.172 580.215 210.149 C 580.213 210.148 564.151 198.044 564.149 198.042 C 556.817 183.876 542.154 155.548 542.152 155.543 C 542.154 155.545 566.228 168.218 566.230 168.219 M 595.371 220.583 C 592.836 209.471 587.767 187.248 587.766 187.245 M 545.059 188.229 C 535.896 175.156 517.574 149.016 517.572 149.012 C 517.574 149.012 542.149 155.543 542.152 155.543 M 525.695 182.500 C 513.539 171.054 489.233 148.166 489.229 148.162 C 489.226 148.163 461.513 154.137 461.510 154.137 C 461.514 154.140 490.568 171.548 505.097 180.253 C 505.096 180.254 486.191 182.232 486.189 182.232 C 469.471 177.018 436.040 166.591 436.035 166.589 C 436.032 166.591 414.293 184.787 414.291 184.789 C 414.296 184.790 449.647 186.657 467.325 187.590 C 467.323 187.591 449.769 196.598 449.767 196.599 C 432.361 200.291 397.554 207.674 397.549 207.675 C 397.550 207.673 414.289 184.792 414.291 184.789 M 461.510 154.137 C 461.508 154.139 436.037 166.588 436.035 166.589 M 517.572 149.012 C 517.569 149.012 489.232 148.162 489.229 148.162 M 397.549 207.675 C 397.548 207.677 387.177 232.523 387.176 232.525 C 387.181 232.523 425.126 214.656 432.306 210.082 C 435.449 208.080 449.766 196.600 449.767 196.599 C 449.769 196.598 467.323 187.591 467.325 187.590 C 467.327 187.590 486.187 182.233 486.189 182.232 C 486.191 182.232 505.096 180.254 505.097 180.253 C 505.099 180.254 525.693 182.500 525.695 182.500 C 525.697 182.501 545.057 188.228 545.059 188.229 C 545.061 188.230 564.147 198.041 564.149 198.042 C 564.151 198.044 580.213 210.148 580.215 210.149 C 580.216 210.150 595.370 220.582 595.371 220.583 C 595.373 220.584 606.887 228.545 612.645 232.525 C 612.643 232.524 595.373 220.585 595.371 220.583 C 595.370 220.582 580.216 210.150 580.215 210.149 M 564.149 198.042 C 564.147 198.041 545.061 188.230 545.059 188.229 C 545.057 188.228 525.697 182.501 525.695 182.500 C 525.693 182.500 505.099 180.254 505.097 180.253 M 486.189 182.232 C 486.187 182.233 467.327 187.590 467.325 187.590 M 449.767 196.599 C 449.766 196.600 435.449 208.080 432.306 210.082 C 425.126 214.656 387.181 232.523 387.176 232.525 "/>
</g>
<g id="palm_4">
<path fill="#ffffff" fill-rule="evenodd" stroke="none" d="M 547.142 73.443 C 547.140 73.443 526.485 77.212 526.483 77.213 C 526.481 77.213 508.389 80.551 508.388 80.552 C 508.386 80.552 488.469 83.351 488.467 83.351 C 488.465 83.352 468.030 89.910 468.028 89.911 C 468.027 89.912 450.287 99.552 450.285 99.553 C 450.284 99.554 434.134 112.527 434.132 112.528 C 434.131 112.530 422.162 127.296 422.161 127.298 C 422.160 127.299 412.612 144.424 412.611 144.425 C 412.610 144.427 406.567 163.209 406.566 163.211 C 406.566 163.213 404.559 181.453 403.753 185.091 C 401.910 193.403 387.713 232.869 387.711 232.873 C 387.511 232.797 377.475 207.969 377.474 207.967 C 377.473 207.964 373.130 179.949 373.129 179.946 C 373.130 179.943 375.635 151.704 375.635 151.701 C 375.636 151.698 384.844 124.885 384.845 124.883 C 384.846 124.880 400.218 101.060 400.219 101.057 C 400.221 101.055 420.859 81.619 420.862 81.617 C 420.864 81.615 442.859 68.856 442.861 68.854 C 442.863 68.854 468.847 60.792 468.850 60.791 C 468.853 60.791 497.529 59.016 497.532 59.017 C 512.953 60.574 547.677 73.333 547.142 73.443 Z"/>
<path fill="none" stroke="#000000" stroke-width="1" stroke-linecap="butt" stroke-linejoin="round" d="M 497.532 59.017 C 512.953 60.574 547.677 73.333 547.142 73.443 "/>
<path fill="none" stroke="#000000" stroke-width="1" stroke-linecap="butt" stroke-linejoin="round" d="M 387.711 232.873 C 387.511 232.797 377.475 207.969 377.474 207.967 "/>
<path fill="none" stroke="#000000" stroke-width="1" stroke-linecap="butt" stroke-linejoin="round" d="M 377.474 207.967 C 377.473 207.964 373.130 179.949 373.129 179.946 "/>
<path fill="none" stroke="#000000" stroke-width="1" stroke-linecap="butt" stroke-linejoin="round" d="M 373.129 179.946 C 373.130 179.943 375.635 151.704 375.635 151.701 "/>
<path fill="none" stroke="#000000" stroke-width="1" stroke-linecap="butt" stroke-linejoin="round" d="M 375.635 151.701 C 375.636 151.698 384.844 124.885 384.845 124.883 "/>
<path fill="none" stroke="#000000" stroke-width="1" stroke-linecap="butt" stroke-linejoin="round" d="M 384.845 124.883 C 384.846 124.880 400.218 101.060 400.219 101.057 "/>
<path fill="none" stroke="#000000" stroke-width="1" stroke-linecap="butt" stroke-linejoin="round" d="M 400.219 101.057 C 400.221 101.055 420.859 81.619 420.862 81.617 "/>
<path fill="none" stroke="#000000" stroke-width="1" stroke-linecap="butt" stroke-linejoin="round" d="M 420.862 81.617 C 420.864 81.615 442.859 68.856 442.861 68.854 "/>
<path fill="none" stroke="#000000" stroke-width="1" stroke-linecap="butt" stroke-linejoin="round" d="M 442.861 68.854 C 442.863 68.854 468.847 60.792 468.850 60.791 "/>
<path fill="none" stroke="#000000" stroke-width="1" stroke-linecap="butt" stroke-linejoin="round" d="M 468.850 60.791 C 468.853 60.791 497.529 59.016 497.532 59.017 "/>
<path fill="#000000" fill-rule="evenodd" stroke="none" d="M 497.532 59.017 C 512.953 60.574 547.677 73.333 547.142 73.443 C 547.141 73.441 534.739 54.600 534.738 54.598 C 534.736 54.597 515.824 41.093 515.822 41.091 C 515.820 41.091 487.456 34.286 487.453 34.285 C 487.450 34.285 453.841 35.188 453.837 35.188 C 453.834 35.189 421.621 44.814 421.618 44.815 C 421.615 44.817 391.166 63.954 391.163 63.956 C 391.161 63.959 367.786 88.384 367.783 88.387 C 367.782 88.390 350.860 119.260 350.858 119.264 C 350.857 119.267 342.290 153.312 342.289 153.315 C 342.289 153.319 339.114 186.744 343.620 191.323 C 347.664 200.723 387.707 232.869 387.711 232.873 C 387.511 232.797 377.475 207.969 377.474 207.967 C 377.473 207.964 373.130 179.949 373.129 179.946 C 373.130 179.943 375.635 151.704 375.635 151.701 C 375.636 151.698 384.844 124.885 384.845 124.883 C 384.846 124.880 400.218 101.060 400.219 101.057 C 400.221 101.055 420.859 81.619 420.862 81.617 C 420.864 81.615 442.859 68.856 442.861 68.854 C 442.863 68.854 468.847 60.792 468.850 60.791 C 468.853 60.791 497.529 59.016 497.532 59.017 Z"/>
<path fill="none" stroke="#ffffff" stroke-width="4" stroke-linecap="round" stroke-linejoin="round" d="M 497.532 59.017 C 497.536 59.016 522.336 56.071 534.738 54.598 C 534.739 54.600 547.141 73.441 547.142 73.443 C 547.137 73.441 497.537 59.018 497.532 59.017 C 497.529 59.017 468.853 60.791 468.850 60.791 C 468.855 60.789 500.165 47.658 515.822 41.091 C 515.824 41.093 534.736 54.597 534.738 54.598 C 534.736 54.596 515.824 41.093 515.822 41.091 C 515.820 41.091 487.456 34.286 487.453 34.285 C 472.589 45.808 442.865 68.851 442.861 68.854 C 442.859 68.856 420.864 81.615 420.862 81.617 C 420.865 81.612 442.845 50.664 453.837 35.188 C 453.841 35.188 487.450 34.285 487.453 34.285 C 487.450 34.285 453.841 35.188 453.837 35.188 C 453.834 35.189 421.621 44.814 421.618 44.815 C 414.485 63.562 400.221 101.052 400.219 101.057 C 400.218 101.060 384.846 124.880 384.845 124.883 C 384.845 124.877 389.057 84.265 391.163 63.956 C 391.166 63.954 421.615 44.817 421.618 44.815 C 421.615 44.817 391.166 63.954 391.163 63.956 C 391.161 63.959 367.786 88.384 367.783 88.387 C 370.401 109.492 375.634 151.695 375.635 151.701 C 375.635 151.704 373.130 179.943 373.129 179.946 C 373.127 179.940 358.282 139.491 350.858 119.264 C 350.860 119.260 367.782 88.390 367.783 88.387 C 367.782 88.390 350.860 119.260 350.858 119.264 C 350.857 119.267 342.290 153.312 342.289 153.315 C 354.017 171.532 377.470 207.961 377.474 207.967 C 377.475 207.969 387.710 232.871 387.711 232.873 C 387.707 232.869 347.664 200.723 343.620 191.323 C 341.082 185.422 342.289 153.319 342.289 153.315 C 342.289 153.319 341.082 185.422 343.620 191.323 C 347.664 200.723 387.707 232.869 387.711 232.873 M 373.129 179.946 C 373.130 179.949 377.473 207.964 377.474 207.967 M 384.845 124.883 C 384.844 124.885 375.636 151.698 375.635 151.701 M 420.862 81.617 C 420.859 81.619 400.221 101.055 400.219 101.057 M 468.850 60.791 C 468.847 60.792 442.863 68.854 442.861 68.854 M 342.289 153.315 C 342.290 153.312 350.857 119.267 350.858 119.264 M 367.783 88.387 C 367.786 88.384 391.161 63.959 391.163 63.956 M 421.618 44.815 C 421.621 44.814 453.834 35.189 453.837 35.188 M 487.453 34.285 C 487.456 34.286 515.820 41.091 515.822 41.091 M 534.738 54.598 C 534.739 54.600 547.141 73.441 547.142 73.443 "/>
<path fill="none" stroke="#000000" stroke-width="4" stroke-linecap="round" stroke-linejoin="round" d="M 547.142 73.443 C 547.137 73.441 497.537 59.018 497.532 59.017 C 497.529 59.017 468.853 60.791 468.850 60.791 C 468.854 60.793 495.208 73.965 508.388 80.552 C 508.386 80.552 488.469 83.351 488.467 83.351 C 473.265 78.519 442.865 68.856 442.861 68.854 C 442.863 68.854 468.847 60.792 468.850 60.791 M 526.483 77.213 C 516.833 71.147 497.535 59.018 497.532 59.017 M 468.028 89.911 C 452.306 87.146 420.866 81.618 420.862 81.617 C 420.864 81.615 442.859 68.856 442.861 68.854 M 450.285 99.553 C 433.597 100.054 400.224 101.057 400.219 101.057 C 400.218 101.060 384.846 124.880 384.845 124.883 C 384.849 124.881 417.703 116.647 434.132 112.528 C 434.131 112.530 422.162 127.296 422.161 127.298 C 406.653 135.432 375.640 151.699 375.635 151.701 C 375.635 151.704 373.130 179.943 373.129 179.946 C 373.133 179.942 399.451 156.266 412.611 144.425 C 412.610 144.427 406.567 163.209 406.566 163.211 C 396.869 178.129 377.477 207.962 377.474 207.967 C 377.473 207.964 373.130 179.949 373.129 179.946 M 384.845 124.883 C 384.844 124.885 375.636 151.698 375.635 151.701 M 420.862 81.617 C 420.859 81.619 400.221 101.055 400.219 101.057 M 377.474 207.967 C 377.475 207.969 387.710 232.871 387.711 232.873 C 387.713 232.869 401.910 193.403 403.753 185.091 C 404.559 181.453 406.566 163.213 406.566 163.211 C 406.567 163.209 412.610 144.427 412.611 144.425 C 412.612 144.424 422.160 127.299 422.161 127.298 C 422.162 127.296 434.131 112.530 434.132 112.528 C 434.134 112.527 450.284 99.554 450.285 99.553 C 450.287 99.552 468.027 89.912 468.028 89.911 C 468.030 89.910 488.465 83.352 488.467 83.351 C 488.469 83.351 508.386 80.552 508.388 80.552 C 508.389 80.551 526.481 77.213 526.483 77.213 C 526.485 77.212 540.255 74.699 547.142 73.443 C 547.140 73.443 526.485 77.212 526.483 77.213 C 526.481 77.213 508.389 80.551 508.388 80.552 M 488.467 83.351 C 488.465 83.352 468.030 89.910 468.028 89.911 C 468.027 89.912 450.287 99.552 450.285 99.553 C 450.284 99.554 434.134 112.527 434.132 112.528 M 422.161 127.298 C 422.160 127.299 412.612 144.424 412.611 144.425 M 406.566 163.211 C 406.566 163.213 404.559 181.453 403.753 185.091 C 401.910 193.403 387.713 232.869 387.711 232.873 "/>
</g>
<g id="palm_5">
<path fill="#ffffff" fill-rule="evenodd" stroke="none" d="M 169.926 73.443 C 169.928 73.443 190.583 77.212 190.585 77.213 C 190.586 77.213 208.678 80.551 208.680 80.552 C 208.682 80.552 228.599 83.351 228.601 83.351 C 228.603 83.352 249.037 89.910 249.039 89.911 C 249.041 89.912 266.780 99.552 266.782 99.553 C 266.784 99.554 282.934 112.527 282.935 112.528 C 282.937 112.530 294.905 127.296 294.906 127.298 C 294.907 127.299 304.456 144.424 304.457 144.425 C 304.457 144.427 310.501 163.209 310.502 163.211 C 310.502 163.213 312.508 181.453 313.315 185.091 C 315.158 193.403 329.355 232.869 329.356 232.873 C 329.556 232.797 339.593 207.969 339.594 207.967 C 339.594 207.964 343.938 179.949 343.938 179.946 C 343.938 179.943 341.433 151.704 341.432 151.701 C 341.432 151.698 332.224 124.885 332.223 124.883 C 332.222 124.880 316.850 101.060 316.848 101.057 C 316.846 101.055 296.208 81.619 296.206 81.617 C 296.204 81.615 274.209 68.856 274.207 68.854 C 274.204 68.854 248.220 60.792 248.218 60.791 C 248.215 60.791 219.539 59.016 219.536 59.017 C 204.115 60.574 169.390 73.333 169.926 73.443 Z"/>
<path fill="none" stroke="#000000" stroke-width="1" stroke-linecap="butt" stroke-linejoin="round" d="M 219.536 59.017 C 204.115 60.574 169.390 73.333 169.926 73.443 "/>
<path fill="none" stroke="#000000" stroke-width="1" stroke-linecap="butt" stroke-linejoin="round" d="M 329.356 232.873 C 329.556 232.797 339.593 207.969 339.594 207.967 "/>
<path fill="none" stroke="#000000" stroke-width="1" stroke-linecap="butt" stroke-linejoin="round" d="M 339.594 207.967 C 339.594 207.964 343.938 179.949 343.938 179.946 "/>
<path fill="none" stroke="#000000" stroke-width="1" stroke-linecap="butt" stroke-linejoin="round" d="M 343.938 179.946 C 343.938 179.943 341.433 151.704 341.432 151.701 "/>
<path fill="none" stroke="#000000" stroke-width="1" stroke-linecap="butt" stroke-linejoin="round" d="M 341.432 151.701 C 341.432 151.698 332.224 124.885 332.223 124.883 "/>
<path fill="none" stroke="#000000" stroke-width="1" stroke-linecap="butt" stroke-linejoin="round" d="M 332.223 124.883 C 332.222 124.880 316.850 101.060 316.848 101.057 "/>
<path fill="none" stroke="#000000" stroke-width="1" stroke-linecap="butt" stroke-linejoin="round" d="M 316.848 101.057 C 316.846 101.055 296.208 81.619 296.206 81.617 "/>
<path fill="none" stroke="#000000" stroke-width="1" stroke-linecap="butt" stroke-linejoin="round" d="M 296.206 81.617 C 296.204 81.615 274.209 68.856 274.207 68.854 "/>
<path fill="none" stroke="#000000" stroke-width="1" stroke-linecap="butt" stroke-linejoin="round" d="M 274.207 68.854 C 274.204 68.854 248.220 60.792 248.218 60.791 "/>
<path fill="none" stroke="#000000" stroke-width="1" stroke-linecap="butt" stroke-linejoin="round" d="M 248.218 60.791 C 248.215 60.791 219.539 59.016 219.536 59.017 "/>
<path fill="#000000" fill-rule="evenodd" stroke="none" d="M 219.536 59.017 C 204.115 60.574 169.390 73.333 169.926 73.443 C 169.927 73.441 182.329 54.600 182.330 54.598 C 182.332 54.597 201.243 41.093 201.245 41.091 C 201.248 41.091 229.612 34.286 229.615 34.285 C 229.618 34.285 263.227 35.188 263.230 35.188 C 263.233 35.189 295.446 44.814 295.450 44.815 C 295.453 44.817 325.901 63.954 325.905 63.956 C 325.907 63.959 349.282 88.384 349.284 88.387 C 349.286 88.390 366.208 119.260 366.210 119.264 C 366.210 119.267 374.777 153.312 374.778 153.315 C 374.778 153.319 377.954 186.744 373.448 191.323 C 369.404 200.723 329.361 232.869 329.356 232.873 C 329.556 232.797 339.593 207.969 339.594 207.967 C 339.594 207.964 343.938 179.949 343.938 179.946 C 343.938 179.943 341.433 151.704 341.432 151.701 C 341.432 151.698 332.224 124.885 332.223 124.883 C 332.222 124.880 316.850 101.060 316.848 101.057 C 316.846 101.055 296.208 81.619 296.206 81.617 C 296.204 81.615 274.209 68.856 274.207 68.854 C 274.204 68.854 248.220 60.792 248.218 60.791 C 248.215 60.791 219.539 59.016 219.536 59.017 Z"/>
<path fill="none" stroke="#ffffff" stroke-width="4" stroke-linecap="round" stroke-linejoin="round" d="M 219.536 59.017 C 219.532 59.016 194.732 56.071 182.330 54.598 C 182.329 54.600 169.927 73.441 169.926 73.443 C 169.931 73.441 219.531 59.018 219.536 59.017 C 219.539 59.017 248.215 60.791 248.218 60.791 C 248.213 60.789 216.903 47.658 201.245 41.091 C 201.243 41.093 182.332 54.597 182.330 54.598 C 182.332 54.596 201.243 41.093 201.245 41.091 C 201.248 41.091 229.612 34.286 229.615 34.285 C 244.479 45.808 274.202 68.851 274.207 68.854 C 274.209 68.856 296.204 81.615 296.206 81.617 C 296.203 81.612 274.222 50.664 263.230 35.188 C 263.227 35.188 229.618 34.285 229.615 34.285 C 229.618 34.285 263.227 35.188 263.230 35.188 C 263.233 35.189 295.446 44.814 295.450 44.815 C 302.582 63.562 316.846 101.052 316.848 101.057 C 316.850 101.060 332.222 124.880 332.223 124.883 C 332.222 124.877 328.011 84.265 325.905 63.956 C 325.901 63.954 295.453 44.817 295.450 44.815 C 295.453 44.817 325.901 63.954 325.905 63.956 C 325.907 63.959 349.282 88.384 349.284 88.387 C 346.667 109.492 341.433 151.695 341.432 151.701 C 341.433 151.704 343.938 179.943 343.938 179.946 C 343.940 179.940 358.786 139.491 366.210 119.264 C 366.208 119.260 349.286 88.390 349.284 88.387 C 349.286 88.390 366.208 119.260 366.210 119.264 C 366.210 119.267 374.777 153.312 374.778 153.315 C 363.050 171.532 339.597 207.961 339.594 207.967 C 339.593 207.969 329.357 232.871 329.356 232.873 C 329.361 232.869 369.404 200.723 373.448 191.323 C 375.986 185.422 374.778 153.319 374.778 153.315 C 374.778 153.319 375.986 185.422 373.448 191.323 C 369.404 200.723 329.361 232.869 329.356 232.873 M 343.938 179.946 C 343.938 179.949 339.594 207.964 339.594 207.967 M 332.223 124.883 C 332.224 124.885 341.432 151.698 341.432 151.701 M 296.206 81.617 C 296.208 81.619 316.846 101.055 316.848 101.057 M 248.218 60.791 C 248.220 60.792 274.204 68.854 274.207 68.854 M 374.778 153.315 C 374.777 153.312 366.210 119.267 366.210 119.264 M 349.284 88.387 C 349.282 88.384 325.907 63.959 325.905 63.956 M 295.450 44.815 C 295.446 44.814 263.233 35.189 263.230 35.188 M 229.615 34.285 C 229.612 34.286 201.248 41.091 201.245 41.091 M 182.330 54.598 C 182.329 54.600 169.927 73.441 169.926 73.443 "/>
<path fill="none" stroke="#000000" stroke-width="4" stroke-linecap="round" stroke-linejoin="round" d="M 169.926 73.443 C 169.931 73.441 219.531 59.018 219.536 59.017 C 219.539 59.017 248.215 60.791 248.218 60.791 C 248.214 60.793 221.859 73.965 208.680 80.552 C 208.682 80.552 228.599 83.351 228.601 83.351 C 243.803 78.519 274.202 68.856 274.207 68.854 C 274.204 68.854 248.220 60.792 248.218 60.791 M 190.585 77.213 C 200.235 71.147 219.533 59.018 219.536 59.017 M 249.039 89.911 C 264.761 87.146 296.201 81.618 296.206 81.617 C 296.204 81.615 274.209 68.856 274.207 68.854 M 266.782 99.553 C 283.471 100.054 316.843 101.057 316.848 101.057 C 316.850 101.060 332.222 124.880 332.223 124.883 C 332.218 124.881 299.365 116.647 282.935 112.528 C 282.937 112.530 294.905 127.296 294.906 127.298 C 310.415 135.432 341.428 151.699 341.432 151.701 C 341.433 151.704 343.938 179.943 343.938 179.946 C 343.934 179.942 317.617 156.266 304.457 144.425 C 304.457 144.427 310.501 163.209 310.502 163.211 C 320.199 178.129 339.591 207.962 339.594 207.967 C 339.594 207.964 343.938 179.949 343.938 179.946 M 332.223 124.883 C 332.224 124.885 341.432 151.698 341.432 151.701 M 296.206 81.617 C 296.208 81.619 316.846 101.055 316.848 101.057 M 339.594 207.967 C 339.593 207.969 329.357 232.871 329.356 232.873 C 329.355 232.869 315.158 193.403 313.315 185.091 C 312.508 181.453 310.502 163.213 310.502 163.211 C 310.501 163.209 304.457 144.427 304.457 144.425 C 304.456 144.424 294.907 127.299 294.906 127.298 C 294.905 127.296 282.937 112.530 282.935 112.528 C 282.934 112.527 266.784 99.554 266.782 99.553 C 266.780 99.552 249.041 89.912 249.039 89.911 C 249.037 89.910 228.603 83.352 228.601 83.351 C 228.599 83.351 208.682 80.552 208.680 80.552 C 208.678 80.551 190.586 77.213 190.585 77.213 C 190.583 77.212 176.812 74.699 169.926 73.443 C 169.928 73.443 190.583 77.212 190.585 77.213 C 190.586 77.213 208.678 80.551 208.680 80.552 M 228.601 83.351 C 228.603 83.352 249.037 89.910 249.039 89.911 C 249.041 89.912 266.780 99.552 266.782 99.553 C 266.784 99.554 282.934 112.527 282.935 112.528 M 294.906 127.298 C 294.907 127.299 304.456 144.424 304.457 144.425 M 310.502 163.211 C 310.502 163.213 312.508 181.453 313.315 185.091 C 315.158 193.403 329.355 232.869 329.356 232.873 "/>
</g>
<g id="palm_6">
<path fill="#ffffff" fill-rule="evenodd" stroke="none" d="M 104.422 232.525 C 104.424 232.524 121.694 220.584 121.696 220.583 C 121.698 220.582 136.851 210.150 136.853 210.149 C 136.854 210.148 152.917 198.044 152.918 198.042 C 152.920 198.041 172.007 188.230 172.009 188.229 C 172.011 188.228 191.371 182.501 191.373 182.500 C 191.375 182.500 211.968 180.254 211.970 180.253 C 211.972 180.254 230.876 182.232 230.878 182.232 C 230.880 182.233 249.741 187.590 249.742 187.590 C 249.744 187.591 267.298 196.598 267.300 196.599 C 267.302 196.600 281.619 208.080 284.761 210.082 C 291.942 214.656 329.887 232.523 329.891 232.525 C 329.979 232.330 319.520 207.677 319.519 207.675 C 319.517 207.673 302.778 184.792 302.777 184.789 C 302.775 184.787 281.035 166.591 281.033 166.589 C 281.030 166.588 255.560 154.139 255.557 154.137 C 255.555 154.137 227.841 148.163 227.839 148.162 C 227.836 148.162 199.499 149.012 199.496 149.012 C 199.493 149.012 174.918 155.543 174.916 155.543 C 174.913 155.545 150.840 168.218 150.837 168.219 C 150.835 168.221 129.303 187.243 129.301 187.245 C 119.498 199.251 103.966 232.827 104.422 232.525 Z"/>
<path fill="none" stroke="#000000" stroke-width="1" stroke-linecap="butt" stroke-linejoin="round" d="M 129.301 187.245 C 119.498 199.251 103.966 232.827 104.422 232.525 "/>
<path fill="none" stroke="#000000" stroke-width="1" stroke-linecap="butt" stroke-linejoin="round" d="M 329.891 232.525 C 329.979 232.330 319.520 207.677 319.519 207.675 "/>
<path fill="none" stroke="#000000" stroke-width="1" stroke-linecap="butt" stroke-linejoin="round" d="M 319.519 207.675 C 319.517 207.673 302.778 184.792 302.777 184.789 "/>
<path fill="none" stroke="#000000" stroke-width="1" stroke-linecap="butt" stroke-linejoin="round" d="M 302.777 184.789 C 302.775 184.787 281.035 166.591 281.033 166.589 "/>
<path fill="none" stroke="#000000" stroke-width="1" stroke-linecap="butt" stroke-linejoin="round" d="M 281.033 166.589 C 281.030 166.588 255.560 154.139 255.557 154.137 "/>
<path fill="none" stroke="#000000" stroke-width="1" stroke-linecap="butt" stroke-linejoin="round" d="M 255.557 154.137 C 255.555 154.137 227.841 148.163 227.839 148.162 "/>
<path fill="none" stroke="#000000" stroke-width="1" stroke-linecap="butt" stroke-linejoin="round" d="M 227.839 148.162 C 227.836 148.162 199.499 149.012 199.496 149.012 "/>
<path fill="none" stroke="#000000" stroke-width="1" stroke-linecap="butt" stroke-linejoin="round" d="M 199.496 149.012 C 199.493 149.012 174.918 155.543 174.916 155.543 "/>
<path fill="none" stroke="#000000" stroke-width="1" stroke-linecap="butt" stroke-linejoin="round" d="M 174.916 155.543 C 174.913 155.545 150.840 168.218 150.837 168.219 "/>
<path fill="none" stroke="#000000" stroke-width="1" stroke-linecap="butt" stroke-linejoin="round" d="M 150.837 168.219 C 150.835 168.221 129.303 187.243 129.301 187.245 "/>
<path fill="#000000" fill-rule="evenodd" stroke="none" d="M 129.301 187.245 C 119.498 199.251 103.966 232.827 104.422 232.525 C 104.422 232.523 99.869 210.431 99.868 210.429 C 99.869 210.427 103.692 187.506 103.693 187.503 C 103.694 187.501 118.939 162.633 118.940 162.631 C 118.943 162.628 143.346 139.502 143.349 139.499 C 143.352 139.498 172.936 123.526 172.938 123.524 C 172.942 123.523 208.005 115.525 208.008 115.524 C 208.011 115.524 241.812 116.267 241.815 116.267 C 241.818 116.268 275.613 126.131 275.616 126.132 C 275.619 126.134 305.751 144.150 305.754 144.151 C 305.756 144.154 331.637 165.544 331.688 171.968 C 335.476 181.474 329.892 232.519 329.891 232.525 C 329.979 232.330 319.520 207.677 319.519 207.675 C 319.517 207.673 302.778 184.792 302.777 184.789 C 302.775 184.787 281.035 166.591 281.033 166.589 C 281.030 166.588 255.560 154.139 255.557 154.137 C 255.555 154.137 227.841 148.163 227.839 148.162 C 227.836 148.162 199.499 149.012 199.496 149.012 C 199.493 149.012 174.918 155.543 174.916 155.543 C 174.913 155.545 150.840 168.218 150.837 168.219 C 150.835 168.221 129.303 187.243 129.301 187.245 Z"/>
<path fill="none" stroke="#ffffff" stroke-width="4" stroke-linecap="round" stroke-linejoin="round" d="M 129.301 187.245 C 129.298 187.247 109.679 202.701 99.868 210.429 C 99.869 210.431 104.422 232.523 104.422 232.525 C 104.425 232.521 129.299 187.250 129.301 187.245 C 129.303 187.243 150.835 168.221 150.837 168.219 C 150.833 168.221 119.408 181.075 103.693 187.503 C 103.692 187.506 99.869 210.427 99.868 210.429 C 99.868 210.427 103.692 187.506 103.693 187.503 C 103.694 187.501 118.939 162.633 118.940 162.631 C 137.599 160.268 174.910 155.544 174.916 155.543 C 174.918 155.543 199.493 149.012 199.496 149.012 C 199.490 149.011 162.064 142.670 143.349 139.499 C 143.346 139.502 118.943 162.628 118.940 162.631 C 118.943 162.628 143.346 139.502 143.349 139.499 C 143.352 139.498 172.936 123.526 172.938 123.524 C 191.239 131.737 227.833 148.160 227.839 148.162 C 227.841 148.163 255.555 154.137 255.557 154.137 C 255.553 154.134 223.858 128.395 208.008 115.524 C 208.005 115.525 172.942 123.523 172.938 123.524 C 172.942 123.523 208.005 115.525 208.008 115.524 C 208.011 115.524 241.812 116.267 241.815 116.267 C 254.888 133.041 281.029 166.584 281.033 166.589 C 281.035 166.591 302.775 184.787 302.777 184.789 C 302.774 184.783 284.670 145.684 275.616 126.132 C 275.613 126.131 241.818 116.268 241.815 116.267 C 241.818 116.268 275.613 126.131 275.616 126.132 C 275.619 126.134 305.751 144.150 305.754 144.151 C 310.342 165.326 319.517 207.668 319.519 207.675 C 319.520 207.677 329.890 232.523 329.891 232.525 C 329.892 232.519 335.476 181.474 331.688 171.968 C 329.310 166.000 305.756 144.154 305.754 144.151 C 305.756 144.154 329.310 166.000 331.688 171.968 C 335.476 181.474 329.892 232.519 329.891 232.525 M 302.777 184.789 C 302.778 184.792 319.517 207.673 319.519 207.675 M 255.557 154.137 C 255.560 154.139 281.030 166.588 281.033 166.589 M 199.496 149.012 C 199.499 149.012 227.836 148.162 227.839 148.162 M 150.837 168.219 C 150.840 168.218 174.913 155.545 174.916 155.543 M 305.754 144.151 C 305.751 144.150 275.619 126.134 275.616 126.132 M 241.815 116.267 C 241.812 116.267 208.011 115.524 208.008 115.524 M 172.938 123.524 C 172.936 123.526 143.352 139.498 143.349 139.499 M 118.940 162.631 C 118.939 162.633 103.694 187.501 103.693 187.503 M 99.868 210.429 C 99.869 210.431 104.422 232.523 104.422 232.525 "/>
<path fill="none" stroke="#000000" stroke-width="4" stroke-linecap="round" stroke-linejoin="round" d="M 104.422 232.525 C 104.425 232.521 129.299 187.250 129.301 187.245 C 129.303 187.243 150.835 168.221 150.837 168.219 C 150.836 168.223 141.514 196.172 136.853 210.149 C 136.854 210.148 152.917 198.044 152.918 198.042 C 160.251 183.876 174.914 155.548 174.916 155.543 C 174.913 155.545 150.840 168.218 150.837 168.219 M 121.696 220.583 C 124.231 209.471 129.300 187.248 129.301 187.245 M 172.009 188.229 C 181.171 175.156 199.493 149.016 199.496 149.012 C 199.493 149.012 174.918 155.543 174.916 155.543 M 191.373 182.500 C 203.528 171.054 227.835 148.166 227.839 148.162 C 227.841 148.163 255.555 154.137 255.557 154.137 C 255.553 154.140 226.499 171.548 211.970 180.253 C 211.972 180.254 230.876 182.232 230.878 182.232 C 247.596 177.018 281.028 166.591 281.033 166.589 C 281.035 166.591 302.775 184.787 302.777 184.789 C 302.772 184.790 267.421 186.657 249.742 187.590 C 249.744 187.591 267.298 196.598 267.300 196.599 C 284.706 200.291 319.514 207.674 319.519 207.675 C 319.517 207.673 302.778 184.792 302.777 184.789 M 255.557 154.137 C 255.560 154.139 281.030 166.588 281.033 166.589 M 199.496 149.012 C 199.499 149.012 227.836 148.162 227.839 148.162 M 319.519 207.675 C 319.520 207.677 329.890 232.523 329.891 232.525 C 329.887 232.523 291.942 214.656 284.761 210.082 C 281.619 208.080 267.302 196.600 267.300 196.599 C 267.298 196.598 249.744 187.591 249.742 187.590 C 249.741 187.590 230.880 182.233 230.878 182.232 C 230.876 182.232 211.972 180.254 211.970 180.253 C 211.968 180.254 191.375 182.500 191.373 182.500 C 191.371 182.501 172.011 188.228 172.009 188.229 C 172.007 188.230 152.920 198.041 152.918 198.042 C 152.917 198.044 136.854 210.148 136.853 210.149 C 136.851 210.150 121.698 220.582 121.696 220.583 C 121.694 220.584 110.180 228.545 104.422 232.525 C 104.424 232.524 121.695 220.585 121.696 220.583 C 121.698 220.582 136.851 210.150 136.853 210.149 M 152.918 198.042 C 152.920 198.041 172.007 188.230 172.009 188.229 C 172.011 188.228 191.371 182.501 191.373 182.500 C 191.375 182.500 211.968 180.254 211.970 180.253 M 230.878 182.232 C 230.880 182.233 249.741 187.590 249.742 187.590 M 267.300 196.599 C 267.302 196.600 281.619 208.080 284.761 210.082 C 291.942 214.656 329.887 232.523 329.891 232.525 "/>
</g>
<g id="palm_7">
<path fill="#ffffff" fill-rule="evenodd" stroke="none" d="M 170.593 391.332 C 170.593 391.330 174.363 370.675 174.363 370.673 C 174.363 370.671 177.702 352.579 177.702 352.578 C 177.702 352.576 180.501 332.659 180.502 332.657 C 180.502 332.655 187.061 312.221 187.061 312.219 C 187.062 312.217 196.702 294.477 196.703 294.475 C 196.705 294.474 209.678 278.324 209.679 278.322 C 209.680 278.321 224.446 266.352 224.448 266.351 C 224.450 266.350 241.574 256.802 241.576 256.801 C 241.578 256.800 260.359 250.757 260.361 250.756 C 260.363 250.756 278.604 248.749 282.242 247.943 C 290.554 246.100 330.019 231.903 330.024 231.901 C 329.947 231.701 305.120 221.665 305.117 221.664 C 305.114 221.663 277.099 217.320 277.096 217.320 C 277.093 217.320 248.854 219.825 248.851 219.825 C 248.849 219.826 222.036 229.034 222.033 229.035 C 222.031 229.036 198.210 244.408 198.208 244.409 C 198.206 244.412 178.769 265.050 178.767 265.052 C 178.766 265.054 166.006 287.049 166.005 287.051 C 166.004 287.054 157.943 313.038 157.942 313.040 C 157.942 313.043 156.166 341.719 156.167 341.722 C 157.725 357.143 170.484 391.867 170.593 391.332 Z"/>
<path fill="none" stroke="#000000" stroke-width="1" stroke-linecap="butt" stroke-linejoin="round" d="M 156.167 341.722 C 157.725 357.143 170.484 391.867 170.593 391.332 "/>
<path fill="none" stroke="#000000" stroke-width="1" stroke-linecap="butt" stroke-linejoin="round" d="M 330.024 231.901 C 329.947 231.701 305.120 221.665 305.117 221.664 "/>
<path fill="none" stroke="#000000" stroke-width="1" stroke-linecap="butt" stroke-linejoin="round" d="M 305.117 221.664 C 305.114 221.663 277.099 217.320 277.096 217.320 "/>
<path fill="none" stroke="#000000" stroke-width="1" stroke-linecap="butt" stroke-linejoin="round" d="M 277.096 217.320 C 277.093 217.320 248.854 219.825 248.851 219.825 "/>
<path fill="none" stroke="#000000" stroke-width="1" stroke-linecap="butt" stroke-linejoin="round" d="M 248.851 219.825 C 248.849 219.826 222.036 229.034 222.033 229.035 "/>
<path fill="none" stroke="#000000" stroke-width="1" stroke-linecap="butt" stroke-linejoin="round" d="M 222.033 229.035 C 222.031 229.036 198.210 244.408 198.208 244.409 "/>
<path fill="none" stroke="#000000" stroke-width="1" stroke-linecap="butt" stroke-linejoin="round" d="M 198.208 244.409 C 198.206 244.412 178.769 265.050 178.767 265.052 "/>
<path fill="none" stroke="#000000" stroke-width="1" stroke-linecap="butt" stroke-linejoin="round" d="M 178.767 265.052 C 178.766 265.054 166.006 287.049 166.005 287.051 "/>
<path fill="none" stroke="#000000" stroke-width="1" stroke-linecap="butt" stroke-linejoin="round" d="M 166.005 287.051 C 166.004 287.054 157.943 313.038 157.942 313.040 "/>
<path fill="none" stroke="#000000" stroke-width="1" stroke-linecap="butt" stroke-linejoin="round" d="M 157.942 313.040 C 157.942 313.043 156.166 341.719 156.167 341.722 "/>
<path fill="#000000" fill-rule="evenodd" stroke="none" d="M 156.167 341.722 C 157.725 357.143 170.484 391.867 170.593 391.332 C 170.591 391.331 151.750 378.929 151.748 378.928 C 151.747 378.926 138.243 360.014 138.242 360.012 C 138.241 360.010 131.436 331.646 131.436 331.643 C 131.436 331.640 132.339 298.031 132.339 298.027 C 132.340 298.024 141.965 265.811 141.966 265.808 C 141.967 265.805 161.105 235.356 161.107 235.353 C 161.109 235.351 185.535 211.976 185.537 211.973 C 185.540 211.972 216.411 195.050 216.414 195.048 C 216.417 195.047 250.462 186.480 250.466 186.479 C 250.470 186.479 283.895 183.304 288.473 187.810 C 297.874 191.854 330.020 231.897 330.024 231.901 C 329.947 231.701 305.120 221.665 305.117 221.664 C 305.114 221.663 277.099 217.320 277.096 217.320 C 277.093 217.320 248.854 219.825 248.851 219.825 C 248.849 219.826 222.036 229.034 222.033 229.035 C 222.031 229.036 198.210 244.408 198.208 244.409 C 198.206 244.412 178.769 265.050 178.767 265.052 C 178.766 265.054 166.006 287.049 166.005 287.051 C 166.004 287.054 157.943 313.038 157.942 313.040 C 157.942 313.043 156.166 341.719 156.167 341.722 Z"/>
<path fill="none" stroke="#ffffff" stroke-width="4" stroke-linecap="round" stroke-linejoin="round" d="M 156.167 341.722 C 156.167 341.726 153.221 366.526 151.748 378.928 C 151.750 378.929 170.591 391.331 170.593 391.332 C 170.592 391.327 156.168 341.727 156.167 341.722 C 156.167 341.719 157.942 313.043 157.942 313.040 C 157.940 313.045 144.808 344.355 138.242 360.012 C 138.243 360.014 151.747 378.926 151.748 378.928 C 151.747 378.926 138.243 360.014 138.242 360.012 C 138.241 360.010 131.436 331.646 131.436 331.643 C 142.959 316.779 166.001 287.055 166.005 287.051 C 166.006 287.049 178.766 265.054 178.767 265.052 C 178.762 265.055 147.815 287.036 132.339 298.027 C 132.339 298.031 131.436 331.640 131.436 331.643 C 131.436 331.640 132.339 298.031 132.339 298.027 C 132.340 298.024 141.965 265.811 141.966 265.808 C 160.713 258.675 198.202 244.412 198.208 244.409 C 198.210 244.408 222.031 229.036 222.033 229.035 C 222.027 229.035 181.415 233.247 161.107 235.353 C 161.105 235.356 141.967 265.805 141.966 265.808 C 141.967 265.805 161.105 235.356 161.107 235.353 C 161.109 235.351 185.535 211.976 185.537 211.973 C 206.642 214.591 248.845 219.824 248.851 219.825 C 248.854 219.825 277.093 217.320 277.096 217.320 C 277.090 217.317 236.641 202.472 216.414 195.048 C 216.411 195.050 185.540 211.972 185.537 211.973 C 185.540 211.972 216.411 195.050 216.414 195.048 C 216.417 195.047 250.462 186.480 250.466 186.479 C 268.683 198.207 305.112 221.660 305.117 221.664 C 305.120 221.665 330.021 231.900 330.024 231.901 C 330.020 231.897 297.874 191.854 288.473 187.810 C 282.572 185.272 250.470 186.479 250.466 186.479 C 250.470 186.479 282.572 185.272 288.473 187.810 C 297.874 191.854 330.020 231.897 330.024 231.901 M 277.096 217.320 C 277.099 217.320 305.114 221.663 305.117 221.664 M 222.033 229.035 C 222.036 229.034 248.849 219.826 248.851 219.825 M 178.767 265.052 C 178.769 265.050 198.206 244.412 198.208 244.409 M 157.942 313.040 C 157.943 313.038 166.004 287.054 166.005 287.051 M 250.466 186.479 C 250.462 186.480 216.417 195.047 216.414 195.048 M 185.537 211.973 C 185.535 211.976 161.109 235.351 161.107 235.353 M 141.966 265.808 C 141.965 265.811 132.340 298.024 132.339 298.027 M 131.436 331.643 C 131.436 331.646 138.241 360.010 138.242 360.012 M 151.748 378.928 C 151.750 378.929 170.591 391.331 170.593 391.332 "/>
<path fill="none" stroke="#000000" stroke-width="4" stroke-linecap="round" stroke-linejoin="round" d="M 170.593 391.332 C 170.592 391.327 156.168 341.727 156.167 341.722 C 156.167 341.719 157.942 313.043 157.942 313.040 C 157.944 313.044 171.115 339.398 177.702 352.578 C 177.702 352.576 180.501 332.659 180.502 332.657 C 175.669 317.455 166.006 287.056 166.005 287.051 C 166.004 287.054 157.943 313.038 157.942 313.040 M 174.363 370.673 C 168.298 361.023 156.169 341.725 156.167 341.722 M 187.061 312.219 C 184.296 296.496 178.768 265.056 178.767 265.052 C 178.766 265.054 166.006 287.049 166.005 287.051 M 196.703 294.475 C 197.205 277.787 198.207 244.414 198.208 244.409 C 198.210 244.408 222.031 229.036 222.033 229.035 C 222.032 229.040 213.797 261.893 209.679 278.322 C 209.680 278.321 224.446 266.352 224.448 266.351 C 232.582 250.843 248.849 219.830 248.851 219.825 C 248.854 219.825 277.093 217.320 277.096 217.320 C 277.093 217.324 253.416 243.641 241.576 256.801 C 241.578 256.800 260.359 250.757 260.361 250.756 C 275.280 241.059 305.113 221.667 305.117 221.664 C 305.114 221.663 277.099 217.320 277.096 217.320 M 222.033 229.035 C 222.036 229.034 248.849 219.826 248.851 219.825 M 178.767 265.052 C 178.769 265.050 198.206 244.412 198.208 244.409 M 305.117 221.664 C 305.120 221.665 330.021 231.900 330.024 231.901 C 330.019 231.903 290.554 246.100 282.242 247.943 C 278.604 248.749 260.363 250.756 260.361 250.756 C 260.359 250.757 241.578 256.800 241.576 256.801 C 241.574 256.802 224.450 266.350 224.448 266.351 C 224.446 266.352 209.680 278.321 209.679 278.322 C 209.678 278.324 196.705 294.474 196.703 294.475 C 196.702 294.477 187.062 312.217 187.061 312.219 C 187.061 312.221 180.502 332.655 180.502 332.657 C 180.501 332.659 177.702 352.576 177.702 352.578 C 177.702 352.579 174.363 370.671 174.363 370.673 C 174.363 370.675 171.850 384.446 170.593 391.332 C 170.593 391.330 174.363 370.675 174.363 370.673 C 174.363 370.671 177.702 352.579 177.702 352.578 M 180.502 332.657 C 180.502 332.655 187.061 312.221 187.061 312.219 C 187.062 312.217 196.702 294.477 196.703 294.475 C 196.705 294.474 209.678 278.324 209.679 278.322 M 224.448 266.351 C 224.450 266.350 241.574 256.802 241.576 256.801 M 260.361 250.756 C 260.363 250.756 278.604 248.749 282.242 247.943 C 290.554 246.100 330.019 231.903 330.024 231.901 "/>
</g>
<g id="Layer_63">
<path fill="#000000" fill-rule="evenodd" stroke="#ffffff" stroke-width="4" stroke-linecap="round" stroke-linejoin="round" d="M 360.874 182.823 C 382.853 182.823 400.584 200.554 400.584 222.533 C 400.584 244.512 382.853 262.243 360.874 262.243 C 338.894 262.243 321.164 244.512 321.164 222.533 C 321.164 200.554 338.895 182.823 360.874 182.823 Z"/>
<path fill="#ffffff" fill-rule="evenodd" stroke="#000000" stroke-width="4" stroke-linecap="round" stroke-linejoin="round" d="M 314.386 603.870 C 345.378 603.870 376.370 603.870 407.361 603.870 C 407.361 603.873 408.310 630.471 408.310 630.473 C 408.311 630.476 409.260 657.074 409.260 657.077 C 409.255 657.077 360.879 657.077 360.874 657.077 C 360.869 657.077 312.492 657.077 312.488 657.077 C 312.488 657.074 313.437 630.476 313.437 630.473 C 313.437 630.471 314.386 603.873 314.386 603.870 Z"/>
<path fill="none" stroke="#ffffff" stroke-width="1" stroke-linecap="butt" stroke-linejoin="round" d="M 407.361 603.870 C 376.370 603.870 345.378 603.870 314.386 603.870 "/>
<path fill="#ffffff" fill-rule="evenodd" stroke="#000000" stroke-width="4" stroke-linecap="round" stroke-linejoin="round" d="M 315.336 577.267 C 315.336 577.264 316.285 550.666 316.285 550.663 C 346.011 550.663 375.737 550.663 405.462 550.663 C 405.462 550.666 406.412 577.264 406.412 577.267 C 406.412 577.269 407.361 603.868 407.361 603.870 C 376.370 603.870 345.378 603.870 314.386 603.870 C 314.387 603.868 315.336 577.269 315.336 577.267 Z"/>
<path fill="none" stroke="#ffffff" stroke-width="1" stroke-linecap="butt" stroke-linejoin="round" d="M 405.462 550.663 C 375.737 550.663 346.011 550.663 316.285 550.663 "/>
<path fill="#ffffff" fill-rule="evenodd" stroke="#000000" stroke-width="4" stroke-linecap="round" stroke-linejoin="round" d="M 317.234 524.059 C 317.235 524.057 318.184 497.458 318.184 497.456 C 346.644 497.456 375.104 497.456 403.564 497.456 C 403.564 497.459 404.513 524.057 404.513 524.060 C 404.513 524.063 405.462 550.660 405.462 550.663 C 375.737 550.663 346.011 550.663 316.285 550.663 C 316.285 550.660 317.234 524.062 317.234 524.059 Z"/>
<path fill="none" stroke="#ffffff" stroke-width="1" stroke-linecap="butt" stroke-linejoin="round" d="M 403.564 497.456 C 375.104 497.456 346.644 497.456 318.184 497.456 "/>
<path fill="#ffffff" fill-rule="evenodd" stroke="#000000" stroke-width="4" stroke-linecap="round" stroke-linejoin="round" d="M 319.133 470.853 C 319.133 470.850 320.082 444.252 320.083 444.249 C 347.277 444.249 374.471 444.249 401.665 444.249 C 401.665 444.252 402.614 470.850 402.614 470.853 C 402.614 470.855 403.564 497.453 403.564 497.456 C 375.104 497.456 346.644 497.456 318.184 497.456 C 318.184 497.453 319.133 470.855 319.133 470.853 Z"/>
<path fill="none" stroke="#ffffff" stroke-width="1" stroke-linecap="butt" stroke-linejoin="round" d="M 401.665 444.249 C 374.471 444.249 347.277 444.249 320.083 444.249 "/>
<path fill="#ffffff" fill-rule="evenodd" stroke="#000000" stroke-width="4" stroke-linecap="round" stroke-linejoin="round" d="M 321.032 417.645 C 321.032 417.642 321.981 391.045 321.981 391.042 C 347.910 391.042 373.838 391.042 399.767 391.042 C 399.767 391.045 400.715 417.642 400.716 417.645 C 400.716 417.648 401.665 444.246 401.665 444.249 C 374.471 444.249 347.277 444.249 320.083 444.249 C 320.083 444.246 321.032 417.648 321.032 417.645 Z"/>
<path fill="none" stroke="#ffffff" stroke-width="1" stroke-linecap="butt" stroke-linejoin="round" d="M 399.767 391.042 C 373.838 391.042 347.910 391.042 321.981 391.042 "/>
<path fill="#ffffff" fill-rule="evenodd" stroke="#000000" stroke-width="4" stroke-linecap="round" stroke-linejoin="round" d="M 322.931 364.439 C 322.931 364.436 323.880 337.838 323.880 337.835 C 348.543 337.835 373.205 337.835 397.867 337.835 C 397.868 337.838 398.817 364.436 398.817 364.439 C 398.817 364.441 399.766 391.039 399.767 391.042 C 373.838 391.042 347.910 391.042 321.981 391.042 C 321.981 391.039 322.930 364.441 322.931 364.439 Z"/>
<path fill="none" stroke="#ffffff" stroke-width="1" stroke-linecap="butt" stroke-linejoin="round" d="M 397.867 337.835 C 373.205 337.835 348.543 337.835 323.880 337.835 "/>
<path fill="#ffffff" fill-rule="evenodd" stroke="#000000" stroke-width="4" stroke-linecap="round" stroke-linejoin="round" d="M 324.829 311.232 C 324.829 311.229 325.779 284.631 325.779 284.628 C 349.175 284.628 372.572 284.628 395.969 284.628 C 395.969 284.630 396.918 311.229 396.918 311.231 C 396.918 311.234 397.867 337.832 397.867 337.835 C 373.205 337.835 348.543 337.835 323.880 337.835 C 323.880 337.832 324.829 311.234 324.829 311.232 Z"/>
<path fill="none" stroke="#ffffff" stroke-width="1" stroke-linecap="butt" stroke-linejoin="round" d="M 395.969 284.628 C 372.572 284.628 349.175 284.628 325.779 284.628 "/>
<path fill="#ffffff" fill-rule="evenodd" stroke="#000000" stroke-width="4" stroke-linecap="round" stroke-linejoin="round" d="M 326.728 258.025 C 326.728 258.023 327.677 241.254 327.677 241.253 C 327.681 241.252 360.870 230.763 360.874 230.762 C 360.877 230.763 394.067 241.252 394.070 241.253 C 394.070 241.254 395.019 258.023 395.019 258.024 C 395.020 258.027 395.969 284.625 395.969 284.628 C 372.572 284.628 349.175 284.628 325.779 284.628 C 325.779 284.625 326.728 258.027 326.728 258.025 Z"/>
<path fill="none" stroke="#000000" stroke-width="4" stroke-linecap="round" stroke-linejoin="round" d="M 326.728 258.025 C 349.492 258.025 372.256 258.024 395.019 258.024 M 324.829 311.232 C 348.859 311.232 372.889 311.232 396.918 311.231 M 322.931 364.439 C 348.226 364.439 373.522 364.439 398.817 364.439 M 321.032 417.645 C 347.593 417.645 374.154 417.645 400.716 417.645 M 319.133 470.853 C 346.960 470.853 374.787 470.853 402.614 470.853 M 317.234 524.059 C 346.327 524.060 375.420 524.060 404.513 524.060 M 315.336 577.267 C 345.694 577.267 376.053 577.267 406.412 577.267 M 313.437 630.473 C 345.062 630.473 376.686 630.473 408.310 630.473 "/>
<path fill="none" stroke="#000000" stroke-width="4" stroke-linecap="round" stroke-linejoin="round" d="M 326.728 258.025 C 349.492 258.025 372.256 258.024 395.019 258.024 C 395.019 258.023 394.070 241.254 394.070 241.253 C 394.067 241.252 360.877 230.763 360.874 230.762 C 360.870 230.763 327.681 241.252 327.677 241.253 C 327.677 241.254 326.728 258.023 326.728 258.025 "/>
<path fill="none" stroke="#000000" stroke-width="4" stroke-linecap="round" stroke-linejoin="round" d="M 324.829 311.232 C 348.859 311.232 372.889 311.232 396.918 311.231 C 396.918 311.229 395.969 284.630 395.969 284.628 C 372.572 284.628 349.175 284.628 325.779 284.628 C 325.779 284.631 324.829 311.229 324.829 311.232 "/>
<path fill="none" stroke="#000000" stroke-width="4" stroke-linecap="round" stroke-linejoin="round" d="M 322.931 364.439 C 348.226 364.439 373.522 364.439 398.817 364.439 C 398.817 364.436 397.868 337.838 397.867 337.835 C 373.205 337.835 348.543 337.835 323.880 337.835 C 323.880 337.838 322.931 364.436 322.931 364.439 "/>
<path fill="none" stroke="#000000" stroke-width="4" stroke-linecap="round" stroke-linejoin="round" d="M 321.032 417.645 C 347.593 417.645 374.154 417.645 400.716 417.645 C 400.715 417.642 399.767 391.045 399.767 391.042 C 373.838 391.042 347.910 391.042 321.981 391.042 C 321.981 391.045 321.032 417.642 321.032 417.645 "/>
<path fill="none" stroke="#000000" stroke-width="4" stroke-linecap="round" stroke-linejoin="round" d="M 319.133 470.853 C 346.960 470.853 374.787 470.853 402.614 470.853 C 402.614 470.850 401.665 444.252 401.665 444.249 C 374.471 444.249 347.277 444.249 320.083 444.249 C 320.082 444.252 319.133 470.850 319.133 470.853 "/>
<path fill="none" stroke="#000000" stroke-width="4" stroke-linecap="round" stroke-linejoin="round" d="M 317.234 524.059 C 346.327 524.060 375.420 524.060 404.513 524.060 C 404.513 524.057 403.564 497.459 403.564 497.456 C 375.104 497.456 346.644 497.456 318.184 497.456 C 318.184 497.458 317.235 524.057 317.234 524.059 "/>
<path fill="none" stroke="#000000" stroke-width="4" stroke-linecap="round" stroke-linejoin="round" d="M 315.336 577.267 C 345.694 577.267 376.053 577.267 406.412 577.267 C 406.412 577.264 405.462 550.666 405.462 550.663 C 375.737 550.663 346.011 550.663 316.285 550.663 C 316.285 550.666 315.336 577.264 315.336 577.267 "/>
<path fill="none" stroke="#000000" stroke-width="4" stroke-linecap="round" stroke-linejoin="round" d="M 313.437 630.473 C 345.062 630.473 376.686 630.473 408.310 630.473 C 408.310 630.471 407.361 603.873 407.361 603.870 C 376.370 603.870 345.378 603.870 314.386 603.870 C 314.386 603.873 313.437 630.471 313.437 630.473 "/>
</g>
</g>
<g id="specs_2">
<path fill="#ff0000" fill-rule="evenodd" stroke="none" d="M 360.000 674.337 C 360.001 674.341 371.717 707.146 371.718 707.149 C 371.717 707.148 360.001 696.247 360.000 696.246 C 359.999 696.247 348.283 707.148 348.282 707.149 C 348.283 707.146 359.999 674.341 360.000 674.337 Z"/>
<path fill="#0000ff" fill-rule="evenodd" stroke="none" d="M 360.000 49.614 C 360.001 49.616 366.806 68.672 366.807 68.674 C 366.806 68.673 360.001 62.341 360.000 62.341 C 359.999 62.341 353.194 68.673 353.193 68.674 C 353.194 68.672 359.999 49.616 360.000 49.614 Z"/>
<path fill="#00ff00" fill-rule="evenodd" stroke="none" d="M 227.174 515.778 C 227.176 515.777 246.197 508.875 246.199 508.874 C 246.199 508.875 239.901 515.713 239.900 515.714 C 239.901 515.714 246.267 522.488 246.268 522.488 C 246.266 522.488 227.176 515.779 227.174 515.778 Z"/>
<path fill="#ffff00" fill-rule="evenodd" stroke="none" d="M 304.965 661.502 C 304.966 661.500 311.159 648.016 311.160 648.014 C 311.160 648.015 311.486 654.824 311.486 654.825 C 311.486 654.825 318.301 654.990 318.302 654.990 C 318.300 654.991 304.966 661.501 304.965 661.502 Z"/>
<path fill="#ffff00" fill-rule="evenodd" stroke="none" d="M 415.035 661.336 C 415.034 661.335 408.572 647.977 408.571 647.976 C 408.571 647.977 408.382 654.791 408.382 654.792 C 408.381 654.792 401.571 655.094 401.570 655.094 C 401.571 655.094 415.034 661.336 415.035 661.336 Z"/>
<path fill="#00ff00" fill-rule="evenodd" stroke="none" d="M 492.826 515.778 C 492.824 515.777 473.803 508.875 473.801 508.874 C 473.801 508.875 480.099 515.713 480.100 515.714 C 480.099 515.714 473.733 522.488 473.732 522.488 C 473.734 522.488 492.824 515.779 492.826 515.778 Z"/>
<path fill="#00ffff" fill-rule="evenodd" stroke="none" d="M 618.695 231.876 C 618.695 231.874 611.013 210.183 611.012 210.181 C 611.012 210.182 609.557 220.653 609.557 220.654 C 609.556 220.654 599.008 219.957 599.007 219.957 C 599.008 219.958 618.693 231.875 618.695 231.876 Z"/>
<path fill="#00ffff" fill-rule="evenodd" stroke="none" d="M 101.410 231.157 C 101.411 231.155 110.522 210.024 110.523 210.022 C 110.523 210.023 111.276 220.568 111.276 220.569 C 111.277 220.569 121.848 220.577 121.850 220.577 C 121.847 220.578 101.412 231.156 101.410 231.157 Z"/>
<path fill="#be0027" fill-rule="evenodd" stroke="none" d="M 360.000 677.516 C 360.001 677.513 371.717 644.707 371.718 644.704 C 371.717 644.705 360.001 655.606 360.000 655.607 C 359.999 655.606 348.283 644.705 348.282 644.704 C 348.283 644.707 359.999 677.513 360.000 677.516 Z"/>
</g>
</g>
</svg>
