<?xml version="1.0" encoding="utf-8"?>
<!-- Generator: Moho 12.5 build 22414 -->
<!DOCTYPE svg PUBLIC "-//W3C//DTD SVG 1.1//EN" "http://www.w3.org/Graphics/SVG/1.1/DTD/svg11.dtd">
<svg version="1.1" id="Frame_0" xmlns="http://www.w3.org/2000/svg" xmlns:xlink="http://www.w3.org/1999/xlink" width="720px" height="720px">
<g id="palm">
<g id="palm">
<g id="palm_leaf_4">
<path fill="#000000" fill-rule="evenodd" stroke="#ffffff" stroke-width="4" stroke-linecap="round" stroke-linejoin="round" d="M 327.251 241.996 C 347.037 245.571 352.698 239.182 352.653 235.630 C 299.305 201.052 230.810 210.149 196.863 250.435 C 160.009 294.172 147.187 342.023 175.973 392.971 C 175.970 392.968 176.622 385.044 182.366 350.676 C 187.954 317.241 225.481 223.608 327.251 241.996 Z"/>
<path fill="none" stroke="#ffffff" stroke-width="1" stroke-linecap="butt" stroke-linejoin="round" d="M 175.973 392.971 C 147.187 342.023 160.009 294.172 196.863 250.435 "/>
<path fill="none" stroke="#ffffff" stroke-width="1" stroke-linecap="butt" stroke-linejoin="round" d="M 196.863 250.435 C 230.810 210.149 299.305 201.052 352.653 235.630 "/>
<path fill="#ffffff" fill-rule="evenodd" stroke="#000000" stroke-width="4" stroke-linecap="round" stroke-linejoin="round" d="M 151.101 271.649 C 119.293 352.997 175.970 392.959 175.973 392.971 C 147.187 342.023 160.009 294.172 196.863 250.435 C 230.810 210.149 299.305 201.052 352.653 235.630 C 352.431 218.161 325.196 194.779 294.591 189.941 C 255.237 183.719 185.801 182.907 151.101 271.649 Z"/>
</g>
<g id="palm_leaf_5">
<path fill="#000000" fill-rule="evenodd" stroke="#ffffff" stroke-width="4" stroke-linecap="round" stroke-linejoin="round" d="M 322.273 234.131 C 333.736 250.649 342.256 250.134 344.736 247.591 C 331.464 185.418 276.598 143.417 224.108 147.900 C 167.121 152.766 124.219 177.536 108.547 233.917 C 108.547 233.912 114.612 228.770 142.975 208.529 C 170.569 188.839 263.313 149.166 322.273 234.131 Z"/>
<path fill="none" stroke="#ffffff" stroke-width="1" stroke-linecap="butt" stroke-linejoin="round" d="M 108.547 233.917 C 124.219 177.536 167.121 152.766 224.108 147.900 "/>
<path fill="none" stroke="#ffffff" stroke-width="1" stroke-linecap="butt" stroke-linejoin="round" d="M 224.108 147.900 C 276.598 143.417 331.464 185.418 344.736 247.591 "/>
<path fill="#ffffff" fill-rule="evenodd" stroke="#000000" stroke-width="4" stroke-linecap="round" stroke-linejoin="round" d="M 176.748 130.542 C 96.734 165.572 108.554 233.906 108.547 233.917 C 124.219 177.536 167.121 152.766 224.108 147.900 C 276.598 143.417 331.464 185.418 344.736 247.591 C 356.932 235.082 354.207 199.291 335.987 174.228 C 312.559 142.001 264.034 92.328 176.748 130.542 Z"/>
</g>
<g id="palm_leaf_6">
<path fill="#000000" fill-rule="evenodd" stroke="#ffffff" stroke-width="4" stroke-linecap="round" stroke-linejoin="round" d="M 319.520 225.049 C 315.946 244.834 322.335 250.495 325.887 250.450 C 360.465 197.102 351.368 128.607 311.082 94.661 C 267.345 57.806 219.494 44.985 168.545 73.771 C 168.548 73.768 176.473 74.419 210.841 80.163 C 244.276 85.752 337.908 123.279 319.520 225.049 Z"/>
<path fill="none" stroke="#ffffff" stroke-width="1" stroke-linecap="butt" stroke-linejoin="round" d="M 168.545 73.771 C 219.494 44.985 267.345 57.806 311.082 94.661 "/>
<path fill="none" stroke="#ffffff" stroke-width="1" stroke-linecap="butt" stroke-linejoin="round" d="M 311.082 94.661 C 351.368 128.607 360.465 197.102 325.887 250.450 "/>
<path fill="#ffffff" fill-rule="evenodd" stroke="#000000" stroke-width="4" stroke-linecap="round" stroke-linejoin="round" d="M 289.867 48.899 C 208.519 17.091 168.557 73.768 168.545 73.771 C 219.494 44.985 267.345 57.806 311.082 94.661 C 351.368 128.607 360.465 197.102 325.887 250.450 C 343.355 250.229 366.737 222.994 371.576 192.388 C 377.797 153.034 378.609 83.598 289.867 48.899 Z"/>
</g>
<g id="palm_leaf_3">
<path fill="#000000" fill-rule="evenodd" stroke="#ffffff" stroke-width="4" stroke-linecap="round" stroke-linejoin="round" d="M 403.132 225.049 C 406.707 244.834 400.318 250.495 396.766 250.450 C 362.188 197.102 371.285 128.607 411.571 94.661 C 455.308 57.806 503.159 44.985 554.107 73.771 C 554.104 73.768 546.180 74.419 511.811 80.163 C 478.377 85.751 384.744 123.279 403.132 225.049 Z"/>
<path fill="none" stroke="#ffffff" stroke-width="1" stroke-linecap="butt" stroke-linejoin="round" d="M 554.107 73.771 C 503.159 44.985 455.308 57.806 411.571 94.661 "/>
<path fill="none" stroke="#ffffff" stroke-width="1" stroke-linecap="butt" stroke-linejoin="round" d="M 411.571 94.661 C 371.285 128.607 362.188 197.102 396.766 250.450 "/>
<path fill="#ffffff" fill-rule="evenodd" stroke="#000000" stroke-width="4" stroke-linecap="round" stroke-linejoin="round" d="M 432.785 48.899 C 514.133 17.091 554.095 73.768 554.107 73.771 C 503.159 44.985 455.308 57.806 411.571 94.661 C 371.285 128.607 362.188 197.102 396.766 250.450 C 379.297 250.229 355.915 222.994 351.077 192.388 C 344.855 153.035 344.043 83.598 432.785 48.899 Z"/>
</g>
<g id="palm_leaf_2">
<path fill="#000000" fill-rule="evenodd" stroke="#ffffff" stroke-width="4" stroke-linecap="round" stroke-linejoin="round" d="M 399.847 234.131 C 388.384 250.649 379.864 250.134 377.384 247.591 C 390.656 185.418 445.522 143.417 498.012 147.900 C 554.999 152.766 597.901 177.536 613.573 233.917 C 613.572 233.912 607.508 228.769 579.145 208.529 C 551.551 188.839 458.807 149.166 399.847 234.131 Z"/>
<path fill="none" stroke="#ffffff" stroke-width="1" stroke-linecap="butt" stroke-linejoin="round" d="M 613.573 233.917 C 597.901 177.536 554.999 152.766 498.012 147.900 "/>
<path fill="none" stroke="#ffffff" stroke-width="1" stroke-linecap="butt" stroke-linejoin="round" d="M 498.012 147.900 C 445.522 143.417 390.656 185.418 377.384 247.591 "/>
<path fill="#ffffff" fill-rule="evenodd" stroke="#000000" stroke-width="4" stroke-linecap="round" stroke-linejoin="round" d="M 545.372 130.542 C 625.385 165.572 613.566 233.906 613.573 233.917 C 597.901 177.536 554.999 152.766 498.012 147.900 C 445.522 143.417 390.656 185.418 377.384 247.591 C 365.188 235.082 367.913 199.291 386.133 174.228 C 409.561 142.001 458.085 92.328 545.372 130.542 Z"/>
</g>
<g id="palm_leaf">
<path fill="#000000" fill-rule="evenodd" stroke="#ffffff" stroke-width="4" stroke-linecap="round" stroke-linejoin="round" d="M 394.869 241.996 C 375.083 245.571 369.422 239.182 369.467 235.630 C 422.815 201.052 491.310 210.149 525.256 250.435 C 562.111 294.172 574.933 342.023 546.147 392.971 C 546.150 392.968 545.498 385.044 539.754 350.675 C 534.166 317.241 496.639 223.608 394.869 241.996 Z"/>
<path fill="none" stroke="#ffffff" stroke-width="1" stroke-linecap="butt" stroke-linejoin="round" d="M 546.147 392.971 C 574.933 342.023 562.111 294.172 525.256 250.435 "/>
<path fill="none" stroke="#ffffff" stroke-width="1" stroke-linecap="butt" stroke-linejoin="round" d="M 525.256 250.435 C 491.310 210.149 422.815 201.052 369.467 235.630 "/>
<path fill="#ffffff" fill-rule="evenodd" stroke="#000000" stroke-width="4" stroke-linecap="round" stroke-linejoin="round" d="M 571.018 271.649 C 602.827 352.997 546.149 392.959 546.147 392.971 C 574.933 342.023 562.111 294.172 525.256 250.435 C 491.310 210.149 422.815 201.052 369.467 235.630 C 369.689 218.161 396.923 194.779 427.529 189.941 C 466.883 183.719 536.319 182.907 571.018 271.649 Z"/>
</g>
<g id="Layer_63">
<path fill="#ffffff" fill-rule="evenodd" stroke="#000000" stroke-width="4" stroke-linecap="round" stroke-linejoin="round" d="M 327.677 241.253 C 327.679 241.252 360.872 230.762 360.874 230.762 C 360.875 230.762 394.069 241.252 394.070 241.253 C 394.070 241.258 395.969 293.226 395.969 293.231 C 395.969 293.236 397.867 345.204 397.867 345.209 C 397.868 345.214 399.766 397.182 399.766 397.187 C 399.766 397.192 401.665 449.160 401.665 449.165 C 401.665 449.170 403.564 501.138 403.564 501.143 C 403.564 501.148 405.462 553.116 405.463 553.121 C 405.463 553.126 407.361 605.094 407.361 605.099 C 407.361 605.104 409.260 657.072 409.260 657.077 C 409.258 657.077 312.490 657.077 312.488 657.077 C 312.488 657.072 314.386 605.104 314.386 605.099 C 314.387 605.094 316.285 553.126 316.285 553.121 C 316.285 553.116 318.184 501.148 318.184 501.143 C 318.184 501.138 320.082 449.170 320.083 449.165 C 320.083 449.160 321.981 397.192 321.981 397.187 C 321.982 397.182 323.880 345.214 323.880 345.209 C 323.880 345.204 325.778 293.236 325.779 293.231 C 325.779 293.226 327.677 241.258 327.677 241.253 Z"/>
<path fill="#000000" fill-rule="evenodd" stroke="#ffffff" stroke-width="4" stroke-linecap="round" stroke-linejoin="round" d="M 360.874 178.221 C 390.552 178.221 407.713 212.037 402.922 241.327 C 399.164 264.294 322.584 264.294 318.826 241.327 C 314.034 212.037 331.195 178.221 360.874 178.221 Z"/>
<path fill="none" stroke="#000000" stroke-width="4" stroke-linecap="round" stroke-linejoin="round" d="M 314.386 605.099 C 345.378 605.099 376.370 605.099 407.361 605.099 C 407.361 605.094 405.463 553.126 405.463 553.121 C 375.737 553.121 346.011 553.121 316.285 553.121 C 316.285 553.116 318.184 501.148 318.184 501.143 C 346.644 501.143 375.104 501.143 403.564 501.143 C 403.564 501.148 405.462 553.116 405.463 553.121 M 323.880 345.209 C 348.543 345.209 373.205 345.209 397.867 345.209 C 397.868 345.214 399.766 397.182 399.766 397.187 C 373.838 397.187 347.910 397.187 321.981 397.187 C 321.982 397.182 323.880 345.214 323.880 345.209 C 323.880 345.204 325.778 293.236 325.779 293.231 C 349.175 293.231 372.572 293.231 395.969 293.231 C 395.969 293.236 397.867 345.204 397.867 345.209 M 320.083 449.165 C 347.277 449.165 374.471 449.165 401.665 449.165 C 401.665 449.170 403.564 501.138 403.564 501.143 M 320.083 449.165 C 320.083 449.160 321.981 397.192 321.981 397.187 M 318.184 501.143 C 318.184 501.138 320.082 449.170 320.083 449.165 M 314.386 605.099 C 314.387 605.094 316.285 553.126 316.285 553.121 M 399.766 397.187 C 399.766 397.192 401.665 449.160 401.665 449.165 "/>
</g>
</g>
<g id="specs_2">
<path fill="#ff0000" fill-rule="evenodd" stroke="none" d="M 360.000 674.337 C 360.001 674.341 371.717 707.146 371.718 707.149 C 371.717 707.148 360.001 696.247 360.000 696.246 C 359.999 696.247 348.283 707.148 348.282 707.149 C 348.283 707.146 359.999 674.341 360.000 674.337 Z"/>
<path fill="#0000ff" fill-rule="evenodd" stroke="none" d="M 360.000 49.614 C 360.001 49.616 366.806 68.672 366.807 68.674 C 366.806 68.674 360.001 62.342 360.000 62.341 C 359.999 62.342 353.194 68.674 353.193 68.674 C 353.194 68.672 359.999 49.616 360.000 49.614 Z"/>
<path fill="#00ff00" fill-rule="evenodd" stroke="none" d="M 227.174 515.778 C 227.176 515.777 246.197 508.875 246.199 508.874 C 246.198 508.875 239.901 515.713 239.900 515.714 C 239.901 515.714 246.267 522.487 246.268 522.488 C 246.266 522.487 227.176 515.779 227.174 515.778 Z"/>
<path fill="#ffff00" fill-rule="evenodd" stroke="none" d="M 304.965 661.502 C 304.966 661.500 311.159 648.016 311.160 648.014 C 311.160 648.015 311.486 654.824 311.486 654.825 C 311.486 654.825 318.301 654.990 318.302 654.990 C 318.300 654.991 304.966 661.501 304.965 661.502 Z"/>
<path fill="#ffff00" fill-rule="evenodd" stroke="none" d="M 415.035 661.336 C 415.034 661.335 408.572 647.977 408.571 647.976 C 408.571 647.977 408.382 654.791 408.382 654.792 C 408.381 654.792 401.571 655.094 401.570 655.094 C 401.571 655.095 415.034 661.336 415.035 661.336 Z"/>
<path fill="#00ff00" fill-rule="evenodd" stroke="none" d="M 492.826 515.778 C 492.824 515.777 473.803 508.875 473.801 508.874 C 473.802 508.875 480.099 515.713 480.100 515.714 C 480.099 515.714 473.733 522.487 473.732 522.488 C 473.734 522.487 492.824 515.779 492.826 515.778 Z"/>
<path fill="#00ffff" fill-rule="evenodd" stroke="none" d="M 618.695 231.877 C 618.695 231.874 611.012 210.183 611.012 210.181 C 611.012 210.182 609.557 220.653 609.557 220.654 C 609.555 220.654 599.007 219.958 599.006 219.957 C 599.008 219.959 618.693 231.875 618.695 231.877 Z"/>
<path fill="#00ffff" fill-rule="evenodd" stroke="none" d="M 101.410 231.157 C 101.411 231.155 110.522 210.024 110.523 210.022 C 110.523 210.023 111.276 220.568 111.276 220.569 C 111.278 220.569 121.848 220.577 121.850 220.577 C 121.847 220.578 101.412 231.156 101.410 231.157 Z"/>
<path fill="#be0027" fill-rule="evenodd" stroke="none" d="M 360.000 677.516 C 360.001 677.512 371.717 644.707 371.718 644.704 C 371.717 644.705 360.001 655.606 360.000 655.607 C 359.999 655.606 348.283 644.705 348.282 644.704 C 348.283 644.707 359.999 677.512 360.000 677.516 Z"/>
</g>
</g>
</svg>
