<?xml version="1.0" encoding="utf-8"?>
<!-- Generator: Moho 12.5 build 22414 -->
<!DOCTYPE svg PUBLIC "-//W3C//DTD SVG 1.1//EN" "http://www.w3.org/Graphics/SVG/1.1/DTD/svg11.dtd">
<svg version="1.1" id="Frame_0" xmlns="http://www.w3.org/2000/svg" xmlns:xlink="http://www.w3.org/1999/xlink" width="720px" height="720px">
<g id="palm">
<g id="palm">
<g id="palm_leaf_4">
<path fill="#000000" fill-rule="evenodd" stroke="#ffffff" stroke-width="4" stroke-linecap="round" stroke-linejoin="round" d="M 283.688 248.927 C 311.457 246.354 335.071 231.903 335.076 231.901 C 267.329 200.516 178.639 219.592 159.580 325.003 C 155.404 348.098 165.571 371.225 175.973 392.971 C 175.975 392.967 177.284 385.148 182.366 350.676 C 185.872 326.886 197.130 256.947 283.688 248.927 Z"/>
<path fill="none" stroke="#ffffff" stroke-width="1" stroke-linecap="butt" stroke-linejoin="round" d="M 175.973 392.971 C 165.571 371.225 155.404 348.098 159.580 325.003 "/>
<path fill="none" stroke="#ffffff" stroke-width="1" stroke-linecap="butt" stroke-linejoin="round" d="M 159.580 325.003 C 178.639 219.592 267.329 200.516 335.076 231.901 "/>
<path fill="#ffffff" fill-rule="evenodd" stroke="#000000" stroke-width="4" stroke-linecap="round" stroke-linejoin="round" d="M 137.786 298.280 C 124.825 369.115 175.969 392.962 175.973 392.971 C 165.571 371.225 155.404 348.098 159.580 325.003 C 178.639 219.592 267.329 200.516 335.076 231.901 C 335.573 231.875 318.350 193.226 293.525 187.810 C 250.983 178.529 155.802 199.818 137.786 298.280 Z"/>
</g>
<g id="palm_leaf_5">
<path fill="#000000" fill-rule="evenodd" stroke="#ffffff" stroke-width="4" stroke-linecap="round" stroke-linejoin="round" d="M 286.568 208.228 C 308.023 226.043 334.939 232.523 334.944 232.526 C 309.233 162.429 233.030 113.204 145.016 174.264 C 125.732 187.642 116.569 211.185 108.547 233.917 C 108.551 233.915 115.007 229.312 142.975 208.529 C 162.277 194.187 219.691 152.693 286.568 208.228 Z"/>
<path fill="none" stroke="#ffffff" stroke-width="1" stroke-linecap="butt" stroke-linejoin="round" d="M 108.547 233.917 C 116.569 211.185 125.732 187.642 145.016 174.264 "/>
<path fill="none" stroke="#ffffff" stroke-width="1" stroke-linecap="butt" stroke-linejoin="round" d="M 145.016 174.264 C 233.030 113.204 309.233 162.429 334.944 232.526 "/>
<path fill="#ffffff" fill-rule="evenodd" stroke="#000000" stroke-width="4" stroke-linecap="round" stroke-linejoin="round" d="M 148.501 139.958 C 89.250 180.880 108.551 233.907 108.547 233.917 C 116.569 211.185 125.732 187.642 145.016 174.264 C 233.030 113.204 309.233 162.429 334.944 232.526 C 335.314 232.859 350.464 193.351 336.740 171.968 C 313.221 135.323 230.864 83.073 148.501 139.958 Z"/>
</g>
<g id="palm_leaf_6">
<path fill="#000000" fill-rule="evenodd" stroke="#ffffff" stroke-width="4" stroke-linecap="round" stroke-linejoin="round" d="M 317.384 181.486 C 319.957 209.254 334.407 232.868 334.409 232.874 C 365.794 165.127 346.718 76.437 241.307 57.377 C 218.212 53.201 195.085 63.369 173.339 73.771 C 173.343 73.772 181.162 75.082 215.635 80.163 C 239.424 83.670 309.363 94.927 317.384 181.486 Z"/>
<path fill="none" stroke="#ffffff" stroke-width="1" stroke-linecap="butt" stroke-linejoin="round" d="M 173.339 73.771 C 195.085 63.369 218.212 53.201 241.307 57.377 "/>
<path fill="none" stroke="#ffffff" stroke-width="1" stroke-linecap="butt" stroke-linejoin="round" d="M 241.307 57.377 C 346.718 76.437 365.794 165.127 334.409 232.874 "/>
<path fill="#ffffff" fill-rule="evenodd" stroke="#000000" stroke-width="4" stroke-linecap="round" stroke-linejoin="round" d="M 268.030 35.583 C 197.196 22.623 173.348 73.767 173.339 73.771 C 195.085 63.369 218.212 53.201 241.307 57.377 C 346.718 76.437 365.794 165.127 334.409 232.874 C 334.435 233.371 373.084 216.148 378.500 191.323 C 387.781 148.780 366.492 53.599 268.030 35.583 Z"/>
</g>
<g id="palm_leaf_3">
<path fill="#000000" fill-rule="evenodd" stroke="#ffffff" stroke-width="4" stroke-linecap="round" stroke-linejoin="round" d="M 404.736 181.486 C 402.163 209.254 387.713 232.868 387.711 232.874 C 356.325 165.127 375.402 76.437 480.812 57.377 C 503.908 53.201 527.035 63.369 548.781 73.771 C 548.777 73.772 540.958 75.082 506.485 80.163 C 482.695 83.670 412.757 94.927 404.736 181.486 Z"/>
<path fill="none" stroke="#ffffff" stroke-width="1" stroke-linecap="butt" stroke-linejoin="round" d="M 548.781 73.771 C 527.035 63.369 503.908 53.201 480.812 57.377 "/>
<path fill="none" stroke="#ffffff" stroke-width="1" stroke-linecap="butt" stroke-linejoin="round" d="M 480.812 57.377 C 375.402 76.437 356.325 165.127 387.711 232.874 "/>
<path fill="#ffffff" fill-rule="evenodd" stroke="#000000" stroke-width="4" stroke-linecap="round" stroke-linejoin="round" d="M 454.090 35.583 C 524.924 22.623 548.772 73.767 548.781 73.771 C 527.035 63.369 503.908 53.201 480.812 57.377 C 375.402 76.437 356.325 165.127 387.711 232.874 C 387.685 233.371 349.036 216.148 343.620 191.323 C 334.339 148.780 355.627 53.599 454.090 35.583 Z"/>
</g>
<g id="palm_leaf_2">
<path fill="#000000" fill-rule="evenodd" stroke="#ffffff" stroke-width="4" stroke-linecap="round" stroke-linejoin="round" d="M 435.551 208.228 C 414.097 226.043 387.181 232.523 387.176 232.526 C 412.887 162.429 489.090 113.204 577.103 174.264 C 596.387 187.642 605.551 211.185 613.573 233.917 C 613.569 233.915 607.113 229.312 579.145 208.529 C 559.843 194.187 502.429 152.693 435.551 208.228 Z"/>
<path fill="none" stroke="#ffffff" stroke-width="1" stroke-linecap="butt" stroke-linejoin="round" d="M 613.573 233.917 C 605.551 211.185 596.387 187.642 577.103 174.264 "/>
<path fill="none" stroke="#ffffff" stroke-width="1" stroke-linecap="butt" stroke-linejoin="round" d="M 577.103 174.264 C 489.090 113.204 412.887 162.429 387.176 232.526 "/>
<path fill="#ffffff" fill-rule="evenodd" stroke="#000000" stroke-width="4" stroke-linecap="round" stroke-linejoin="round" d="M 573.618 139.958 C 632.870 180.880 613.569 233.907 613.573 233.917 C 605.551 211.185 596.387 187.642 577.103 174.264 C 489.090 113.204 412.887 162.429 387.176 232.526 C 386.806 232.859 371.655 193.351 385.380 171.968 C 408.899 135.323 491.256 83.073 573.618 139.958 Z"/>
</g>
<g id="palm_leaf">
<path fill="#000000" fill-rule="evenodd" stroke="#ffffff" stroke-width="4" stroke-linecap="round" stroke-linejoin="round" d="M 438.432 248.927 C 410.663 246.354 387.049 231.903 387.044 231.901 C 454.790 200.516 543.481 219.592 562.540 325.003 C 566.716 348.098 556.548 371.225 546.147 392.971 C 546.145 392.967 544.835 385.148 539.754 350.675 C 536.247 326.886 524.990 256.947 438.432 248.927 Z"/>
<path fill="none" stroke="#ffffff" stroke-width="1" stroke-linecap="butt" stroke-linejoin="round" d="M 546.147 392.971 C 556.548 371.225 566.716 348.098 562.540 325.003 "/>
<path fill="none" stroke="#ffffff" stroke-width="1" stroke-linecap="butt" stroke-linejoin="round" d="M 562.540 325.003 C 543.481 219.592 454.790 200.516 387.044 231.901 "/>
<path fill="#ffffff" fill-rule="evenodd" stroke="#000000" stroke-width="4" stroke-linecap="round" stroke-linejoin="round" d="M 584.334 298.280 C 597.295 369.114 546.151 392.962 546.147 392.971 C 556.548 371.225 566.716 348.098 562.540 325.003 C 543.481 219.592 454.790 200.516 387.044 231.901 C 386.546 231.875 403.770 193.226 428.595 187.810 C 471.137 178.529 566.318 199.818 584.334 298.280 Z"/>
</g>
<g id="Layer_63">
<path fill="#ffffff" fill-rule="evenodd" stroke="#000000" stroke-width="4" stroke-linecap="round" stroke-linejoin="round" d="M 327.677 241.253 C 327.679 241.252 360.872 230.762 360.874 230.762 C 360.875 230.762 394.069 241.252 394.070 241.253 C 394.070 241.258 395.969 293.226 395.969 293.231 C 395.969 293.236 397.867 345.204 397.867 345.209 C 397.868 345.214 399.766 397.182 399.766 397.187 C 399.766 397.192 401.665 449.160 401.665 449.165 C 401.665 449.170 403.564 501.138 403.564 501.143 C 403.564 501.148 405.462 553.116 405.463 553.121 C 405.463 553.126 407.361 605.094 407.361 605.099 C 407.361 605.104 409.260 657.072 409.260 657.077 C 409.258 657.077 312.490 657.077 312.488 657.077 C 312.488 657.072 314.386 605.104 314.386 605.099 C 314.387 605.094 316.285 553.126 316.285 553.121 C 316.285 553.116 318.184 501.148 318.184 501.143 C 318.184 501.138 320.082 449.170 320.083 449.165 C 320.083 449.160 321.981 397.192 321.981 397.187 C 321.982 397.182 323.880 345.214 323.880 345.209 C 323.880 345.204 325.778 293.236 325.779 293.231 C 325.779 293.226 327.677 241.258 327.677 241.253 Z"/>
<path fill="#000000" fill-rule="evenodd" stroke="#ffffff" stroke-width="4" stroke-linecap="round" stroke-linejoin="round" d="M 360.874 182.823 C 385.941 182.823 403.005 208.125 400.584 233.075 C 398.461 254.951 323.287 254.951 321.164 233.075 C 318.742 208.125 335.807 182.823 360.874 182.823 Z"/>
<path fill="none" stroke="#000000" stroke-width="4" stroke-linecap="round" stroke-linejoin="round" d="M 314.386 605.099 C 345.378 605.099 376.370 605.099 407.361 605.099 C 407.361 605.094 405.463 553.126 405.463 553.121 C 375.737 553.121 346.011 553.121 316.285 553.121 C 316.285 553.116 318.184 501.148 318.184 501.143 C 346.644 501.143 375.104 501.143 403.564 501.143 C 403.564 501.148 405.462 553.116 405.463 553.121 M 323.880 345.209 C 348.543 345.209 373.205 345.209 397.867 345.209 C 397.868 345.214 399.766 397.182 399.766 397.187 C 373.838 397.187 347.910 397.187 321.981 397.187 C 321.982 397.182 323.880 345.214 323.880 345.209 C 323.880 345.204 325.778 293.236 325.779 293.231 C 349.175 293.231 372.572 293.231 395.969 293.231 C 395.969 293.236 397.867 345.204 397.867 345.209 M 320.083 449.165 C 347.277 449.165 374.471 449.165 401.665 449.165 C 401.665 449.170 403.564 501.138 403.564 501.143 M 320.083 449.165 C 320.083 449.160 321.981 397.192 321.981 397.187 M 318.184 501.143 C 318.184 501.138 320.082 449.170 320.083 449.165 M 314.386 605.099 C 314.387 605.094 316.285 553.126 316.285 553.121 M 399.766 397.187 C 399.766 397.192 401.665 449.160 401.665 449.165 "/>
</g>
</g>
<g id="specs_2">
<path fill="#ff0000" fill-rule="evenodd" stroke="none" d="M 360.000 674.337 C 360.001 674.341 371.717 707.146 371.718 707.149 C 371.717 707.148 360.001 696.247 360.000 696.246 C 359.999 696.247 348.283 707.148 348.282 707.149 C 348.283 707.146 359.999 674.341 360.000 674.337 Z"/>
<path fill="#0000ff" fill-rule="evenodd" stroke="none" d="M 360.000 49.614 C 360.001 49.616 366.806 68.672 366.807 68.674 C 366.806 68.674 360.001 62.342 360.000 62.341 C 359.999 62.342 353.194 68.674 353.193 68.674 C 353.194 68.672 359.999 49.616 360.000 49.614 Z"/>
<path fill="#00ff00" fill-rule="evenodd" stroke="none" d="M 227.174 515.778 C 227.176 515.777 246.197 508.875 246.199 508.874 C 246.198 508.875 239.901 515.713 239.900 515.714 C 239.901 515.714 246.267 522.487 246.268 522.488 C 246.266 522.487 227.176 515.779 227.174 515.778 Z"/>
<path fill="#ffff00" fill-rule="evenodd" stroke="none" d="M 304.965 661.502 C 304.966 661.500 311.159 648.016 311.160 648.014 C 311.160 648.015 311.486 654.824 311.486 654.825 C 311.486 654.825 318.301 654.990 318.302 654.990 C 318.300 654.991 304.966 661.501 304.965 661.502 Z"/>
<path fill="#ffff00" fill-rule="evenodd" stroke="none" d="M 415.035 661.336 C 415.034 661.335 408.572 647.977 408.571 647.976 C 408.571 647.977 408.382 654.791 408.382 654.792 C 408.381 654.792 401.571 655.094 401.570 655.094 C 401.571 655.095 415.034 661.336 415.035 661.336 Z"/>
<path fill="#00ff00" fill-rule="evenodd" stroke="none" d="M 492.826 515.778 C 492.824 515.777 473.803 508.875 473.801 508.874 C 473.802 508.875 480.099 515.713 480.100 515.714 C 480.099 515.714 473.733 522.487 473.732 522.488 C 473.734 522.487 492.824 515.779 492.826 515.778 Z"/>
<path fill="#00ffff" fill-rule="evenodd" stroke="none" d="M 618.695 231.877 C 618.695 231.874 611.012 210.183 611.012 210.181 C 611.012 210.182 609.557 220.653 609.557 220.654 C 609.555 220.654 599.007 219.958 599.006 219.957 C 599.008 219.959 618.693 231.875 618.695 231.877 Z"/>
<path fill="#00ffff" fill-rule="evenodd" stroke="none" d="M 101.410 231.157 C 101.411 231.155 110.522 210.024 110.523 210.022 C 110.523 210.023 111.276 220.568 111.276 220.569 C 111.278 220.569 121.848 220.577 121.850 220.577 C 121.847 220.578 101.412 231.156 101.410 231.157 Z"/>
<path fill="#be0027" fill-rule="evenodd" stroke="none" d="M 360.000 677.516 C 360.001 677.512 371.717 644.707 371.718 644.704 C 371.717 644.705 360.001 655.606 360.000 655.607 C 359.999 655.606 348.283 644.705 348.282 644.704 C 348.283 644.707 359.999 677.512 360.000 677.516 Z"/>
</g>
</g>
</svg>
