<?xml version="1.0" encoding="utf-8"?>
<!-- Generator: Moho 12.5 build 22414 -->
<!DOCTYPE svg PUBLIC "-//W3C//DTD SVG 1.1//EN" "http://www.w3.org/Graphics/SVG/1.1/DTD/svg11.dtd">
<svg version="1.1" id="Frame_0" xmlns="http://www.w3.org/2000/svg" xmlns:xlink="http://www.w3.org/1999/xlink" width="720px" height="720px">
<g id="pentacle">
<g id="pentacle">
<path fill="#ffffff" fill-rule="evenodd" stroke="#000000" stroke-width="4" stroke-linecap="round" stroke-linejoin="round" d="M 360.000 12.944 C 532.752 12.944 672.111 152.304 672.111 325.055 C 672.111 497.807 532.752 637.167 360.000 637.167 C 187.248 637.167 47.889 497.807 47.889 325.055 C 47.889 152.304 187.248 12.944 360.000 12.944 Z"/>
<path fill="#ffffff" fill-rule="evenodd" stroke="#000000" stroke-width="4" stroke-linecap="round" stroke-linejoin="round" d="M 360.000 62.291 C 505.438 62.291 622.764 179.617 622.764 325.055 C 622.764 470.493 505.438 587.820 360.000 587.820 C 214.562 587.820 97.236 470.493 97.236 325.055 C 97.236 179.617 214.562 62.291 360.000 62.291 Z"/>
</g>
<g id="knot_5pt">
<path fill="#ffffff" fill-rule="evenodd" stroke="#000000" stroke-width="4" stroke-linecap="round" stroke-linejoin="round" d="M 176.270 265.127 C 176.271 265.126 183.399 260.832 186.963 258.685 C 200.168 222.103 218.196 188.805 239.732 159.701 C 272.532 115.371 313.538 79.642 359.156 53.928 C 405.206 80.426 445.602 116.222 477.305 159.792 C 443.152 148.823 406.762 142.451 368.876 141.572 C 365.594 138.868 362.239 136.222 358.926 133.720 C 355.674 136.118 352.371 138.669 349.113 141.288 C 322.626 162.580 299.365 188.362 280.815 217.741 C 266.567 240.303 255.197 264.308 246.805 290.137 C 238.684 315.132 233.822 340.385 231.787 365.517 C 209.560 338.335 180.647 277.444 180.647 277.444 C 178.732 271.227 176.271 265.128 176.270 265.127 Z"/>
<path fill="none" stroke="#ffffff" stroke-width="1" stroke-linecap="butt" stroke-linejoin="round" d="M 176.270 265.127 C 176.271 265.126 183.399 260.832 186.963 258.685 "/>
<path fill="none" stroke="#ffffff" stroke-width="1" stroke-linecap="butt" stroke-linejoin="round" d="M 186.963 258.685 C 200.168 222.103 218.196 188.805 239.732 159.701 "/>
<path fill="none" stroke="#ffffff" stroke-width="1" stroke-linecap="butt" stroke-linejoin="round" d="M 231.787 365.517 C 209.560 338.335 180.647 277.444 180.647 277.444 "/>
<path fill="none" stroke="#ffffff" stroke-width="1" stroke-linecap="butt" stroke-linejoin="round" d="M 180.647 277.444 C 178.732 271.227 176.271 265.128 176.270 265.127 "/>
<path fill="#ffffff" fill-rule="evenodd" stroke="#000000" stroke-width="4" stroke-linecap="round" stroke-linejoin="round" d="M 176.270 265.127 C 176.271 265.126 183.399 260.832 186.963 258.685 C 200.168 222.103 218.196 188.805 239.732 159.701 C 188.198 176.775 140.712 204.770 100.772 241.217 C 111.577 293.711 133.120 343.798 164.238 387.255 C 185.773 417.332 211.301 444.094 241.090 467.149 C 242.291 471.780 243.606 476.403 244.978 481.231 C 249.978 481.211 254.983 481.073 259.641 480.833 C 293.482 479.088 327.006 471.995 359.729 459.133 C 335.877 449.510 312.569 436.773 290.598 420.810 C 267.932 404.343 248.092 385.460 231.787 365.517 C 209.560 338.335 180.647 277.444 180.647 277.444 C 178.732 271.227 176.271 265.128 176.270 265.127 Z"/>
<path fill="none" stroke="#ffffff" stroke-width="1" stroke-linecap="butt" stroke-linejoin="round" d="M 359.729 459.133 C 327.006 471.995 293.482 479.088 259.641 480.833 "/>
<path fill="none" stroke="#ffffff" stroke-width="1" stroke-linecap="butt" stroke-linejoin="round" d="M 259.641 480.833 C 254.983 481.073 249.978 481.211 244.978 481.231 "/>
<path fill="none" stroke="#ffffff" stroke-width="1" stroke-linecap="butt" stroke-linejoin="round" d="M 244.978 481.231 C 243.606 476.403 242.291 471.780 241.090 467.149 "/>
<path fill="none" stroke="#ffffff" stroke-width="1" stroke-linecap="butt" stroke-linejoin="round" d="M 241.090 467.149 C 211.301 444.094 185.773 417.332 164.238 387.255 "/>
<path fill="#ffffff" fill-rule="evenodd" stroke="#000000" stroke-width="4" stroke-linecap="round" stroke-linejoin="round" d="M 164.238 387.255 C 164.174 442.823 176.087 496.764 197.959 545.333 C 251.396 551.712 306.153 546.933 359.248 530.136 C 393.770 519.216 427.844 502.862 459.907 481.036 C 463.396 481.227 466.901 481.357 470.355 481.373 C 471.347 478.194 472.290 474.999 473.213 471.681 C 482.216 439.326 486.148 405.292 484.369 370.213 C 468.869 388.415 450.496 405.503 429.758 420.569 C 407.362 436.841 383.576 449.761 359.729 459.133 C 327.006 471.995 293.482 479.088 259.641 480.833 C 254.983 481.073 249.978 481.211 244.978 481.231 C 243.606 476.403 242.291 471.780 241.090 467.149 C 211.301 444.094 185.773 417.332 164.238 387.255 Z"/>
<path fill="none" stroke="#ffffff" stroke-width="1" stroke-linecap="butt" stroke-linejoin="round" d="M 484.369 370.213 C 486.148 405.292 482.216 439.326 473.213 471.681 "/>
<path fill="none" stroke="#ffffff" stroke-width="1" stroke-linecap="butt" stroke-linejoin="round" d="M 473.213 471.681 C 472.290 474.999 471.347 478.194 470.355 481.373 "/>
<path fill="none" stroke="#ffffff" stroke-width="1" stroke-linecap="butt" stroke-linejoin="round" d="M 470.355 481.373 C 466.901 481.357 463.396 481.227 459.907 481.036 "/>
<path fill="none" stroke="#ffffff" stroke-width="1" stroke-linecap="butt" stroke-linejoin="round" d="M 459.907 481.036 C 427.844 502.862 393.770 519.216 359.248 530.136 "/>
<path fill="#ffffff" fill-rule="evenodd" stroke="#000000" stroke-width="4" stroke-linecap="round" stroke-linejoin="round" d="M 359.248 530.136 C 411.620 546.597 465.184 551.716 516.939 546.152 C 538.863 498.724 551.034 446.170 551.725 392.719 C 552.198 356.184 547.565 319.551 537.323 283.372 C 539.359 278.188 541.449 272.644 543.389 267.042 C 538.784 263.729 534.076 260.535 529.122 257.596 C 501.023 239.523 469.507 225.790 435.968 217.626 C 449.411 238.914 460.781 262.919 469.173 288.747 C 478.042 316.042 483.023 343.644 484.369 370.213 C 486.148 405.292 482.216 439.326 473.213 471.681 C 472.290 474.999 471.347 478.194 470.355 481.373 C 466.901 481.357 463.396 481.227 459.907 481.036 C 427.844 502.862 393.770 519.216 359.248 530.136 Z"/>
<path fill="none" stroke="#ffffff" stroke-width="1" stroke-linecap="butt" stroke-linejoin="round" d="M 551.725 392.719 C 552.198 356.184 547.565 319.551 537.323 283.372 "/>
<path fill="none" stroke="#ffffff" stroke-width="1" stroke-linecap="butt" stroke-linejoin="round" d="M 537.323 283.372 C 539.359 278.188 541.449 272.644 543.389 267.042 "/>
<path fill="none" stroke="#ffffff" stroke-width="1" stroke-linecap="butt" stroke-linejoin="round" d="M 543.389 267.042 C 538.784 263.729 534.076 260.535 529.122 257.596 "/>
<path fill="none" stroke="#ffffff" stroke-width="1" stroke-linecap="butt" stroke-linejoin="round" d="M 529.122 257.596 C 501.023 239.523 469.507 225.790 435.968 217.626 "/>
<path fill="none" stroke="#ffffff" stroke-width="1" stroke-linecap="butt" stroke-linejoin="round" d="M 280.815 217.741 C 299.365 188.362 322.626 162.580 349.113 141.288 "/>
<path fill="none" stroke="#ffffff" stroke-width="1" stroke-linecap="butt" stroke-linejoin="round" d="M 349.113 141.288 C 352.371 138.669 355.674 136.118 358.926 133.720 "/>
<path fill="none" stroke="#ffffff" stroke-width="1" stroke-linecap="butt" stroke-linejoin="round" d="M 358.926 133.720 C 362.239 136.222 365.594 138.868 368.876 141.572 "/>
<path fill="none" stroke="#ffffff" stroke-width="1" stroke-linecap="butt" stroke-linejoin="round" d="M 368.876 141.572 C 406.762 142.451 443.152 148.823 477.305 159.792 "/>
<path fill="#ffffff" fill-rule="evenodd" stroke="#000000" stroke-width="4" stroke-linecap="round" stroke-linejoin="round" d="M 551.725 392.719 C 552.198 356.184 547.565 319.551 537.323 283.372 C 539.359 278.188 541.449 272.644 543.389 267.042 C 538.784 263.729 534.076 260.535 529.122 257.596 C 501.023 239.523 469.507 225.790 435.968 217.626 C 411.224 211.396 385.545 208.175 359.094 208.175 C 331.936 208.175 305.592 211.570 280.815 217.741 C 299.365 188.362 322.626 162.580 349.113 141.288 C 352.371 138.669 355.674 136.118 358.926 133.720 C 362.239 136.222 365.594 138.868 368.876 141.572 C 406.762 142.451 443.152 148.823 477.305 159.792 C 530.949 177.095 579.216 205.708 619.228 242.707 C 608.227 296.153 585.532 347.626 551.725 392.719 Z"/>
</g>
<g id="star_2">
<path fill="none" stroke="#000000" stroke-width="4" stroke-linecap="round" stroke-linejoin="round" d="M 338.540 402.401 C 338.535 402.397 293.453 369.657 293.448 369.654 C 293.446 369.652 279.300 359.378 272.226 354.241 C 272.220 354.258 218.004 521.231 217.999 521.248 C 218.013 521.238 360.019 418.021 360.033 418.010 C 360.036 418.009 381.477 402.424 381.479 402.422 C 381.484 402.419 426.585 369.637 426.590 369.634 C 426.589 369.632 421.121 352.783 418.386 344.358 C 418.380 344.362 360.028 386.775 360.022 386.779 C 360.020 386.781 338.542 402.399 338.540 402.401 C 338.532 402.406 265.595 455.413 265.588 455.418 C 265.591 455.410 284.162 398.242 293.448 369.654 M 426.590 369.634 C 426.593 369.643 454.481 455.372 454.484 455.381 C 454.477 455.375 381.487 402.428 381.479 402.422 M 388.031 251.009 C 378.680 222.246 359.981 164.728 359.978 164.719 C 359.975 164.728 331.911 251.011 331.908 251.020 C 331.907 251.023 326.586 267.511 323.924 275.757 C 323.931 275.757 396.069 275.742 396.076 275.742 C 404.826 275.765 422.324 275.811 422.326 275.811 C 428.084 293.518 439.596 328.925 439.598 328.931 C 439.599 328.933 445.077 345.781 447.816 354.206 C 447.830 354.195 589.836 250.978 589.851 250.968 C 589.833 250.968 414.278 251.003 414.260 251.003 C 405.517 251.005 388.034 251.009 388.031 251.009 C 388.026 251.009 350.616 251.016 331.908 251.020 M 439.598 328.931 C 464.005 311.193 512.812 275.724 512.820 275.719 C 512.811 275.719 422.335 275.811 422.326 275.811 M 280.433 328.963 C 286.183 311.254 297.682 275.843 297.683 275.837 C 297.684 275.835 303.054 259.296 305.740 251.025 C 305.722 251.025 130.167 251.061 130.149 251.061 C 130.164 251.071 272.212 354.231 272.226 354.241 M 502.110 521.191 C 502.104 521.174 447.822 354.222 447.816 354.206 M 360.033 418.010 C 360.048 418.021 502.096 521.181 502.110 521.191 M 359.967 84.018 C 359.961 84.035 305.745 251.009 305.740 251.025 M 414.260 251.003 C 414.255 250.986 359.972 84.035 359.967 84.018 M 360.022 386.779 C 360.016 386.775 301.648 344.385 301.642 344.381 C 301.644 344.374 323.922 275.764 323.924 275.757 M 396.076 275.742 C 396.078 275.749 418.384 344.351 418.386 344.358 M 297.683 275.837 C 267.516 275.818 207.189 275.780 207.180 275.780 C 207.188 275.785 280.426 328.958 280.433 328.963 C 280.436 328.964 294.572 339.242 301.642 344.381 "/>
<path fill="#ffffff" fill-rule="evenodd" stroke="#000000" stroke-width="4" stroke-linecap="round" stroke-linejoin="round" d="M 589.851 250.968 C 589.833 250.968 414.278 251.003 414.260 251.003 C 414.255 250.986 359.972 84.035 359.967 84.018 C 359.961 84.035 305.745 251.009 305.740 251.025 C 305.722 251.025 130.167 251.061 130.149 251.061 C 130.164 251.071 272.212 354.231 272.226 354.241 C 272.220 354.258 218.004 521.231 217.999 521.248 C 218.013 521.238 360.019 418.021 360.033 418.010 C 360.048 418.021 502.096 521.181 502.110 521.191 C 502.104 521.174 447.822 354.222 447.816 354.206 C 447.830 354.195 589.836 250.978 589.851 250.968 Z"/>
<path fill="none" stroke="#000000" stroke-width="4" stroke-linecap="round" stroke-linejoin="round" d="M 338.540 402.401 C 338.535 402.397 293.453 369.657 293.448 369.654 C 293.446 369.652 279.300 359.378 272.226 354.241 C 272.220 354.258 218.004 521.231 217.999 521.248 C 218.013 521.238 360.019 418.021 360.033 418.010 C 360.036 418.009 381.477 402.424 381.479 402.422 C 381.484 402.419 426.585 369.637 426.590 369.634 C 426.589 369.632 421.121 352.783 418.386 344.358 C 418.380 344.362 360.028 386.775 360.022 386.779 C 360.020 386.781 338.542 402.399 338.540 402.401 C 338.532 402.406 265.595 455.413 265.588 455.418 C 265.591 455.410 284.162 398.242 293.448 369.654 M 426.590 369.634 C 426.593 369.643 454.481 455.372 454.484 455.381 C 454.477 455.375 381.487 402.428 381.479 402.422 M 388.031 251.009 C 378.680 222.246 359.981 164.728 359.978 164.719 C 359.975 164.728 331.911 251.011 331.908 251.020 C 331.907 251.023 326.586 267.511 323.924 275.757 C 323.931 275.757 396.069 275.742 396.076 275.742 C 404.826 275.765 422.324 275.811 422.326 275.811 C 428.084 293.518 439.596 328.925 439.598 328.931 C 439.599 328.933 445.077 345.781 447.816 354.206 C 447.830 354.195 589.836 250.978 589.851 250.968 C 589.833 250.968 414.278 251.003 414.260 251.003 C 405.517 251.005 388.034 251.009 388.031 251.009 C 388.026 251.009 350.616 251.016 331.908 251.020 M 439.598 328.931 C 464.005 311.193 512.812 275.724 512.820 275.719 C 512.811 275.719 422.335 275.811 422.326 275.811 M 280.433 328.963 C 286.183 311.254 297.682 275.843 297.683 275.837 C 297.684 275.835 303.054 259.296 305.740 251.025 C 305.722 251.025 130.167 251.061 130.149 251.061 C 130.164 251.071 272.212 354.231 272.226 354.241 M 502.110 521.191 C 502.104 521.174 447.822 354.222 447.816 354.206 M 360.033 418.010 C 360.048 418.021 502.096 521.181 502.110 521.191 M 359.967 84.018 C 359.961 84.035 305.745 251.009 305.740 251.025 M 414.260 251.003 C 414.255 250.986 359.972 84.035 359.967 84.018 M 360.022 386.779 C 360.016 386.775 301.648 344.385 301.642 344.381 C 301.644 344.374 323.922 275.764 323.924 275.757 M 396.076 275.742 C 396.078 275.749 418.384 344.351 418.386 344.358 M 297.683 275.837 C 267.516 275.818 207.189 275.780 207.180 275.780 C 207.188 275.785 280.426 328.958 280.433 328.963 C 280.436 328.964 294.572 339.242 301.642 344.381 "/>
</g>
<g id="knot_2">
<path fill="#ffffff" fill-rule="evenodd" stroke="#000000" stroke-width="4" stroke-linecap="round" stroke-linejoin="round" d="M 319.202 338.260 C 319.202 338.260 320.785 339.213 321.576 339.690 C 324.509 347.813 328.512 355.207 333.294 361.670 C 340.577 371.514 349.683 379.447 359.813 385.157 C 370.038 379.273 379.008 371.325 386.048 361.650 C 378.464 364.085 370.384 365.500 361.971 365.696 C 361.242 366.296 360.497 366.884 359.762 367.439 C 359.039 366.907 358.306 366.340 357.583 365.759 C 351.701 361.031 346.536 355.306 342.417 348.782 C 339.253 343.772 336.728 338.441 334.865 332.706 C 333.061 327.156 331.982 321.548 331.530 315.967 C 326.594 322.003 320.174 335.525 320.174 335.525 C 319.749 336.905 319.202 338.259 319.202 338.260 Z"/>
<path fill="none" stroke="#ffffff" stroke-width="1" stroke-linecap="butt" stroke-linejoin="round" d="M 319.202 338.260 C 319.202 338.260 320.785 339.213 321.576 339.690 "/>
<path fill="none" stroke="#ffffff" stroke-width="1" stroke-linecap="butt" stroke-linejoin="round" d="M 321.576 339.690 C 324.509 347.813 328.512 355.207 333.294 361.670 "/>
<path fill="none" stroke="#ffffff" stroke-width="1" stroke-linecap="butt" stroke-linejoin="round" d="M 331.530 315.967 C 326.594 322.003 320.174 335.525 320.174 335.525 "/>
<path fill="none" stroke="#ffffff" stroke-width="1" stroke-linecap="butt" stroke-linejoin="round" d="M 320.174 335.525 C 319.749 336.905 319.202 338.259 319.202 338.260 "/>
<path fill="#ffffff" fill-rule="evenodd" stroke="#000000" stroke-width="4" stroke-linecap="round" stroke-linejoin="round" d="M 319.202 338.260 C 319.202 338.260 320.785 339.213 321.576 339.690 C 324.509 347.813 328.512 355.207 333.294 361.670 C 321.851 357.879 311.306 351.662 302.437 343.569 C 304.836 331.912 309.620 320.790 316.530 311.140 C 321.312 304.462 326.981 298.519 333.595 293.400 C 333.862 292.371 334.154 291.345 334.459 290.273 C 335.569 290.277 336.680 290.308 337.715 290.361 C 345.229 290.748 352.674 292.324 359.940 295.180 C 354.643 297.316 349.468 300.145 344.589 303.689 C 339.556 307.346 335.150 311.539 331.530 315.967 C 326.594 322.003 320.174 335.525 320.174 335.525 C 319.749 336.905 319.202 338.259 319.202 338.260 Z"/>
<path fill="none" stroke="#ffffff" stroke-width="1" stroke-linecap="butt" stroke-linejoin="round" d="M 359.940 295.180 C 352.674 292.324 345.229 290.748 337.715 290.361 "/>
<path fill="none" stroke="#ffffff" stroke-width="1" stroke-linecap="butt" stroke-linejoin="round" d="M 337.715 290.361 C 336.680 290.308 335.569 290.277 334.459 290.273 "/>
<path fill="none" stroke="#ffffff" stroke-width="1" stroke-linecap="butt" stroke-linejoin="round" d="M 334.459 290.273 C 334.154 291.345 333.862 292.371 333.595 293.400 "/>
<path fill="none" stroke="#ffffff" stroke-width="1" stroke-linecap="butt" stroke-linejoin="round" d="M 333.595 293.400 C 326.981 298.519 321.312 304.462 316.530 311.140 "/>
<path fill="#ffffff" fill-rule="evenodd" stroke="#000000" stroke-width="4" stroke-linecap="round" stroke-linejoin="round" d="M 316.530 311.140 C 316.516 298.801 319.161 286.824 324.018 276.038 C 335.884 274.622 348.043 275.683 359.833 279.413 C 367.499 281.838 375.065 285.469 382.185 290.316 C 382.960 290.273 383.738 290.245 384.505 290.241 C 384.725 290.947 384.935 291.657 385.140 292.393 C 387.139 299.578 388.012 307.135 387.617 314.925 C 384.175 310.883 380.095 307.088 375.490 303.743 C 370.517 300.130 365.235 297.261 359.940 295.180 C 352.674 292.324 345.229 290.748 337.715 290.361 C 336.680 290.308 335.569 290.277 334.459 290.273 C 334.154 291.345 333.862 292.371 333.595 293.400 C 326.981 298.519 321.312 304.462 316.530 311.140 Z"/>
<path fill="none" stroke="#ffffff" stroke-width="1" stroke-linecap="butt" stroke-linejoin="round" d="M 387.617 314.925 C 388.012 307.135 387.139 299.578 385.140 292.393 "/>
<path fill="none" stroke="#ffffff" stroke-width="1" stroke-linecap="butt" stroke-linejoin="round" d="M 385.140 292.393 C 384.935 291.657 384.725 290.947 384.505 290.241 "/>
<path fill="none" stroke="#ffffff" stroke-width="1" stroke-linecap="butt" stroke-linejoin="round" d="M 384.505 290.241 C 383.738 290.245 382.960 290.273 382.185 290.316 "/>
<path fill="none" stroke="#ffffff" stroke-width="1" stroke-linecap="butt" stroke-linejoin="round" d="M 382.185 290.316 C 375.065 285.469 367.499 281.838 359.833 279.413 "/>
<path fill="#ffffff" fill-rule="evenodd" stroke="#000000" stroke-width="4" stroke-linecap="round" stroke-linejoin="round" d="M 359.833 279.413 C 371.463 275.758 383.357 274.621 394.849 275.856 C 399.717 286.388 402.420 298.058 402.573 309.927 C 402.678 318.040 401.650 326.175 399.375 334.208 C 399.827 335.359 400.292 336.590 400.722 337.834 C 399.700 338.570 398.654 339.279 397.555 339.932 C 391.315 343.945 384.317 346.995 376.869 348.807 C 379.854 344.080 382.379 338.750 384.243 333.015 C 386.212 326.954 387.318 320.824 387.617 314.925 C 388.012 307.135 387.139 299.578 385.140 292.393 C 384.935 291.657 384.725 290.947 384.505 290.241 C 383.738 290.245 382.960 290.273 382.185 290.316 C 375.065 285.469 367.499 281.838 359.833 279.413 Z"/>
<path fill="none" stroke="#ffffff" stroke-width="1" stroke-linecap="butt" stroke-linejoin="round" d="M 402.573 309.927 C 402.678 318.040 401.650 326.175 399.375 334.208 "/>
<path fill="none" stroke="#ffffff" stroke-width="1" stroke-linecap="butt" stroke-linejoin="round" d="M 399.375 334.208 C 399.827 335.359 400.292 336.590 400.722 337.834 "/>
<path fill="none" stroke="#ffffff" stroke-width="1" stroke-linecap="butt" stroke-linejoin="round" d="M 400.722 337.834 C 399.700 338.570 398.654 339.279 397.555 339.932 "/>
<path fill="none" stroke="#ffffff" stroke-width="1" stroke-linecap="butt" stroke-linejoin="round" d="M 397.555 339.932 C 391.315 343.945 384.317 346.995 376.869 348.807 "/>
<path fill="none" stroke="#ffffff" stroke-width="1" stroke-linecap="butt" stroke-linejoin="round" d="M 342.417 348.782 C 346.536 355.306 351.701 361.031 357.583 365.759 "/>
<path fill="none" stroke="#ffffff" stroke-width="1" stroke-linecap="butt" stroke-linejoin="round" d="M 357.583 365.759 C 358.306 366.340 359.039 366.907 359.762 367.439 "/>
<path fill="none" stroke="#ffffff" stroke-width="1" stroke-linecap="butt" stroke-linejoin="round" d="M 359.762 367.439 C 360.497 366.884 361.242 366.296 361.971 365.696 "/>
<path fill="none" stroke="#ffffff" stroke-width="1" stroke-linecap="butt" stroke-linejoin="round" d="M 361.971 365.696 C 370.384 365.500 378.464 364.085 386.048 361.650 "/>
<path fill="#ffffff" fill-rule="evenodd" stroke="#000000" stroke-width="4" stroke-linecap="round" stroke-linejoin="round" d="M 402.573 309.927 C 402.678 318.040 401.650 326.175 399.375 334.208 C 399.827 335.359 400.292 336.590 400.722 337.834 C 399.700 338.570 398.654 339.279 397.555 339.932 C 391.315 343.945 384.317 346.995 376.869 348.807 C 371.375 350.191 365.672 350.906 359.799 350.906 C 353.768 350.906 347.919 350.152 342.417 348.782 C 346.536 355.306 351.701 361.031 357.583 365.759 C 358.306 366.340 359.039 366.907 359.762 367.439 C 360.497 366.884 361.242 366.296 361.971 365.696 C 370.384 365.500 378.464 364.085 386.048 361.650 C 397.960 357.808 408.678 351.454 417.563 343.238 C 415.120 331.370 410.080 319.940 402.573 309.927 Z"/>
</g>
<g id="specs_2">
<path fill="#ff00ff" fill-rule="evenodd" stroke="none" d="M 165.301 519.317 C 165.340 519.317 554.723 519.317 554.762 519.317 C 554.762 519.278 554.762 129.894 554.762 129.855 C 554.723 129.855 165.340 129.855 165.301 129.855 C 165.301 129.894 165.301 519.278 165.301 519.317 Z"/>
<path fill="#ff0000" fill-rule="evenodd" stroke="none" d="M 360.055 679.411 C 360.056 679.414 371.183 710.569 371.184 710.572 C 371.183 710.571 360.056 700.218 360.055 700.217 C 360.054 700.218 348.927 710.571 348.926 710.572 C 348.927 710.569 360.054 679.414 360.055 679.411 Z"/>
<path fill="#0000ff" fill-rule="evenodd" stroke="none" d="M 360.032 3.088 C 360.032 3.090 366.816 22.084 366.816 22.085 C 366.816 22.085 360.032 15.773 360.032 15.773 C 360.031 15.773 353.248 22.085 353.247 22.085 C 353.248 22.084 360.031 3.090 360.032 3.088 Z"/>
<path fill="#00ff00" fill-rule="evenodd" stroke="none" d="M 39.613 325.530 C 39.615 325.529 58.574 318.650 58.575 318.649 C 58.575 318.650 52.298 325.465 52.297 325.466 C 52.298 325.466 58.643 332.218 58.644 332.219 C 58.642 332.218 39.615 325.530 39.613 325.530 Z"/>
<path fill="#ffff00" fill-rule="evenodd" stroke="none" d="M 133.034 553.337 C 133.034 553.335 141.452 535.008 141.453 535.006 C 141.453 535.007 141.896 544.262 141.896 544.263 C 141.897 544.263 151.160 544.487 151.161 544.487 C 151.159 544.488 133.035 553.336 133.034 553.337 Z"/>
<path fill="#ffff00" fill-rule="evenodd" stroke="none" d="M 588.275 553.113 C 588.274 553.111 579.490 534.956 579.490 534.954 C 579.490 534.955 579.232 544.217 579.232 544.218 C 579.231 544.218 569.975 544.628 569.974 544.628 C 569.976 544.629 588.273 553.112 588.275 553.113 Z"/>
<path fill="#00ff00" fill-rule="evenodd" stroke="none" d="M 681.433 325.530 C 681.431 325.529 662.472 318.650 662.471 318.649 C 662.471 318.650 668.748 325.465 668.749 325.466 C 668.748 325.466 662.403 332.218 662.402 332.219 C 662.404 332.218 681.431 325.530 681.433 325.530 Z"/>
<path fill="#00ffff" fill-rule="evenodd" stroke="none" d="M 586.773 96.978 C 586.772 96.980 580.039 115.991 580.038 115.993 C 580.038 115.992 578.763 106.815 578.763 106.814 C 578.762 106.814 569.517 107.425 569.516 107.425 C 569.518 107.424 586.771 96.979 586.773 96.978 Z"/>
<path fill="#00ffff" fill-rule="evenodd" stroke="none" d="M 133.396 97.608 C 133.397 97.610 141.382 116.130 141.383 116.132 C 141.383 116.131 142.043 106.889 142.043 106.888 C 142.044 106.888 151.309 106.881 151.310 106.881 C 151.308 106.880 133.398 97.609 133.396 97.608 Z"/>
<path fill="#be0027" fill-rule="evenodd" stroke="none" d="M 360.032 655.505 C 360.033 655.502 371.710 622.805 371.712 622.801 C 371.710 622.802 360.033 633.667 360.032 633.669 C 360.030 633.667 348.353 622.802 348.352 622.801 C 348.353 622.805 360.030 655.502 360.032 655.505 Z"/>
</g>
</g>
</svg>
