<?xml version="1.0" encoding="utf-8"?>
<!-- Generator: Moho 12.5 build 22414 -->
<!DOCTYPE svg PUBLIC "-//W3C//DTD SVG 1.1//EN" "http://www.w3.org/Graphics/SVG/1.1/DTD/svg11.dtd">
<svg version="1.1" id="Frame_0" xmlns="http://www.w3.org/2000/svg" xmlns:xlink="http://www.w3.org/1999/xlink" width="720px" height="720px">
<g id="pentacle">
<g id="pentacle">
<path fill="#ffffff" fill-rule="evenodd" stroke="#000000" stroke-width="4" stroke-linecap="round" stroke-linejoin="round" d="M 360.000 26.474 C 523.456 26.474 655.317 158.335 655.317 321.791 C 655.317 485.247 523.456 617.108 360.000 617.108 C 196.544 617.108 64.683 485.247 64.683 321.791 C 64.683 158.335 196.544 26.474 360.000 26.474 Z"/>
<path fill="#ffffff" fill-rule="evenodd" stroke="#000000" stroke-width="4" stroke-linecap="round" stroke-linejoin="round" d="M 360.000 59.026 C 505.438 59.026 622.764 176.352 622.764 321.791 C 622.764 467.229 505.438 584.555 360.000 584.555 C 214.562 584.555 97.236 467.229 97.236 321.791 C 97.236 176.352 214.562 59.026 360.000 59.026 Z"/>
</g>
<g id="star_2">
<path fill="none" stroke="#000000" stroke-width="4" stroke-linecap="round" stroke-linejoin="round" d="M 338.540 399.136 C 338.535 399.133 293.453 366.393 293.448 366.389 C 293.446 366.388 279.300 356.114 272.226 350.977 C 272.220 350.993 218.004 517.967 217.999 517.984 C 218.013 517.974 360.019 414.756 360.033 414.746 C 360.036 414.744 381.477 399.160 381.479 399.158 C 381.484 399.155 426.585 366.373 426.590 366.370 C 426.589 366.367 421.121 349.519 418.386 341.094 C 418.380 341.098 360.028 383.511 360.022 383.515 C 360.020 383.516 338.542 399.135 338.540 399.136 C 338.532 399.142 265.595 452.149 265.588 452.154 C 265.591 452.145 284.162 394.978 293.448 366.389 M 426.590 366.370 C 426.593 366.378 454.481 452.108 454.484 452.116 C 454.477 452.111 381.487 399.163 381.479 399.158 M 388.031 247.744 C 378.680 218.981 359.981 161.464 359.978 161.455 C 359.975 161.464 331.911 247.747 331.908 247.756 C 331.907 247.758 326.586 264.247 323.924 272.492 C 323.931 272.492 396.069 272.478 396.076 272.478 C 404.826 272.501 422.324 272.547 422.326 272.547 C 428.084 290.253 439.596 325.661 439.598 325.666 C 439.599 325.669 445.077 342.516 447.816 350.941 C 447.830 350.931 589.836 247.714 589.851 247.704 C 589.833 247.704 414.278 247.739 414.260 247.739 C 405.517 247.741 388.034 247.744 388.031 247.744 C 388.026 247.744 350.616 247.752 331.908 247.756 M 439.598 325.666 C 464.005 307.929 512.812 272.460 512.820 272.454 C 512.811 272.454 422.335 272.547 422.326 272.547 M 280.433 325.699 C 286.183 307.990 297.682 272.578 297.683 272.573 C 297.684 272.571 303.054 256.032 305.740 247.761 C 305.722 247.761 130.167 247.796 130.149 247.796 C 130.164 247.807 272.212 350.966 272.226 350.977 M 502.110 517.927 C 502.104 517.910 447.822 350.958 447.816 350.941 M 360.033 414.746 C 360.048 414.756 502.096 517.917 502.110 517.927 M 359.967 80.754 C 359.961 80.771 305.745 247.744 305.740 247.761 M 414.260 247.739 C 414.255 247.722 359.972 80.771 359.967 80.754 M 360.022 383.515 C 360.016 383.511 301.648 341.121 301.642 341.117 C 301.644 341.110 323.922 272.499 323.924 272.492 M 396.076 272.478 C 396.078 272.484 418.384 341.087 418.386 341.094 M 297.683 272.573 C 267.516 272.554 207.189 272.516 207.180 272.516 C 207.188 272.521 280.426 325.693 280.433 325.699 C 280.436 325.700 294.572 335.977 301.642 341.117 "/>
<path fill="#ffffff" fill-rule="evenodd" stroke="#000000" stroke-width="4" stroke-linecap="round" stroke-linejoin="round" d="M 589.851 247.704 C 589.833 247.704 414.278 247.739 414.260 247.739 C 414.255 247.722 359.972 80.771 359.967 80.754 C 359.961 80.771 305.745 247.744 305.740 247.761 C 305.722 247.761 130.167 247.796 130.149 247.796 C 130.164 247.807 272.212 350.966 272.226 350.977 C 272.220 350.993 218.004 517.967 217.999 517.984 C 218.013 517.974 360.019 414.756 360.033 414.746 C 360.048 414.756 502.096 517.917 502.110 517.927 C 502.104 517.910 447.822 350.958 447.816 350.941 C 447.830 350.931 589.836 247.714 589.851 247.704 Z"/>
<path fill="none" stroke="#000000" stroke-width="4" stroke-linecap="round" stroke-linejoin="round" d="M 338.540 399.136 C 338.535 399.133 293.453 366.393 293.448 366.389 C 293.446 366.388 279.300 356.114 272.226 350.977 C 272.220 350.993 218.004 517.967 217.999 517.984 C 218.013 517.974 360.019 414.756 360.033 414.746 C 360.036 414.744 381.477 399.160 381.479 399.158 C 381.484 399.155 426.585 366.373 426.590 366.370 C 426.589 366.367 421.121 349.519 418.386 341.094 C 418.380 341.098 360.028 383.511 360.022 383.515 C 360.020 383.516 338.542 399.135 338.540 399.136 C 338.532 399.142 265.595 452.149 265.588 452.154 C 265.591 452.145 284.162 394.978 293.448 366.389 M 426.590 366.370 C 426.593 366.378 454.481 452.108 454.484 452.116 C 454.477 452.111 381.487 399.163 381.479 399.158 M 388.031 247.744 C 378.680 218.981 359.981 161.464 359.978 161.455 C 359.975 161.464 331.911 247.747 331.908 247.756 C 331.907 247.758 326.586 264.247 323.924 272.492 C 323.931 272.492 396.069 272.478 396.076 272.478 C 404.826 272.501 422.324 272.547 422.326 272.547 C 428.084 290.253 439.596 325.661 439.598 325.666 C 439.599 325.669 445.077 342.516 447.816 350.941 C 447.830 350.931 589.836 247.714 589.851 247.704 C 589.833 247.704 414.278 247.739 414.260 247.739 C 405.517 247.741 388.034 247.744 388.031 247.744 C 388.026 247.744 350.616 247.752 331.908 247.756 M 439.598 325.666 C 464.005 307.929 512.812 272.460 512.820 272.454 C 512.811 272.454 422.335 272.547 422.326 272.547 M 280.433 325.699 C 286.183 307.990 297.682 272.578 297.683 272.573 C 297.684 272.571 303.054 256.032 305.740 247.761 C 305.722 247.761 130.167 247.796 130.149 247.796 C 130.164 247.807 272.212 350.966 272.226 350.977 M 502.110 517.927 C 502.104 517.910 447.822 350.958 447.816 350.941 M 360.033 414.746 C 360.048 414.756 502.096 517.917 502.110 517.927 M 359.967 80.754 C 359.961 80.771 305.745 247.744 305.740 247.761 M 414.260 247.739 C 414.255 247.722 359.972 80.771 359.967 80.754 M 360.022 383.515 C 360.016 383.511 301.648 341.121 301.642 341.117 C 301.644 341.110 323.922 272.499 323.924 272.492 M 396.076 272.478 C 396.078 272.484 418.384 341.087 418.386 341.094 M 297.683 272.573 C 267.516 272.554 207.189 272.516 207.180 272.516 C 207.188 272.521 280.426 325.693 280.433 325.699 C 280.436 325.700 294.572 335.977 301.642 341.117 "/>
</g>
<g id="specs_2">
<path fill="#ff00ff" fill-rule="evenodd" stroke="none" d="M 174.511 507.087 C 174.548 507.087 545.561 507.087 545.598 507.087 C 545.598 507.050 545.598 136.037 545.598 136.000 C 545.561 136.000 174.548 136.000 174.511 136.000 C 174.511 136.037 174.511 507.050 174.511 507.087 Z"/>
<path fill="#ff0000" fill-rule="evenodd" stroke="none" d="M 360.055 676.146 C 360.056 676.150 371.183 707.304 371.184 707.307 C 371.183 707.307 360.056 696.954 360.055 696.953 C 360.054 696.954 348.927 707.307 348.926 707.307 C 348.927 707.304 360.054 676.150 360.055 676.146 Z"/>
<path fill="#0000ff" fill-rule="evenodd" stroke="none" d="M 360.055 15.213 C 360.056 15.215 366.519 33.313 366.519 33.314 C 366.519 33.314 360.056 27.300 360.055 27.300 C 360.054 27.300 353.591 33.314 353.590 33.314 C 353.591 33.313 360.054 15.215 360.055 15.213 Z"/>
<path fill="#00ff00" fill-rule="evenodd" stroke="none" d="M 54.753 322.443 C 54.754 322.442 72.819 315.888 72.821 315.887 C 72.820 315.888 66.839 322.381 66.839 322.382 C 66.839 322.383 72.885 328.816 72.886 328.816 C 72.884 328.816 54.754 322.444 54.753 322.443 Z"/>
<path fill="#ffff00" fill-rule="evenodd" stroke="none" d="M 143.766 539.503 C 143.767 539.501 151.788 522.039 151.788 522.037 C 151.788 522.038 152.211 530.856 152.211 530.857 C 152.212 530.857 161.037 531.071 161.038 531.071 C 161.036 531.072 143.768 539.502 143.766 539.503 Z"/>
<path fill="#ffff00" fill-rule="evenodd" stroke="none" d="M 577.530 539.289 C 577.529 539.288 569.160 521.989 569.159 521.987 C 569.159 521.988 568.914 530.813 568.914 530.814 C 568.913 530.814 560.093 531.205 560.092 531.205 C 560.094 531.206 577.528 539.288 577.530 539.289 Z"/>
<path fill="#00ff00" fill-rule="evenodd" stroke="none" d="M 666.293 322.443 C 666.292 322.442 648.227 315.888 648.225 315.887 C 648.226 315.888 654.207 322.381 654.207 322.382 C 654.207 322.383 648.161 328.816 648.160 328.816 C 648.162 328.816 666.292 322.444 666.293 322.443 Z"/>
<path fill="#00ffff" fill-rule="evenodd" stroke="none" d="M 576.099 104.674 C 576.098 104.676 569.683 122.790 569.682 122.792 C 569.682 122.791 568.467 114.047 568.467 114.046 C 568.466 114.046 559.657 114.628 559.656 114.628 C 559.658 114.627 576.097 104.675 576.099 104.674 Z"/>
<path fill="#00ffff" fill-rule="evenodd" stroke="none" d="M 144.111 105.274 C 144.112 105.276 151.721 122.923 151.722 122.924 C 151.722 122.923 152.351 114.117 152.351 114.117 C 152.352 114.117 161.180 114.110 161.180 114.110 C 161.179 114.109 144.113 105.275 144.111 105.274 Z"/>
<path fill="#be0027" fill-rule="evenodd" stroke="none" d="M 360.055 636.851 C 360.056 636.848 371.183 605.693 371.184 605.690 C 371.183 605.691 360.056 616.044 360.055 616.045 C 360.054 616.044 348.927 605.691 348.926 605.690 C 348.927 605.693 360.054 636.848 360.055 636.851 Z"/>
</g>
</g>
</svg>
