<?xml version="1.0" encoding="utf-8"?>
<!-- Generator: Moho 12.5 build 22414 -->
<!DOCTYPE svg PUBLIC "-//W3C//DTD SVG 1.1//EN" "http://www.w3.org/Graphics/SVG/1.1/DTD/svg11.dtd">
<svg version="1.1" id="Frame_0" xmlns="http://www.w3.org/2000/svg" xmlns:xlink="http://www.w3.org/1999/xlink" width="720px" height="720px">
<g id="pentacle">
<g id="pentacle">
<path fill="#ffffff" fill-rule="evenodd" stroke="#000000" stroke-width="4" stroke-linecap="round" stroke-linejoin="round" d="M 360.000 26.474 C 523.456 26.474 655.317 158.335 655.317 321.791 C 655.317 485.247 523.456 617.108 360.000 617.108 C 196.544 617.108 64.683 485.247 64.683 321.791 C 64.683 158.335 196.544 26.474 360.000 26.474 Z"/>
<path fill="#ffffff" fill-rule="evenodd" stroke="#000000" stroke-width="4" stroke-linecap="round" stroke-linejoin="round" d="M 360.000 59.026 C 505.438 59.026 622.764 176.352 622.764 321.791 C 622.764 467.229 505.438 584.555 360.000 584.555 C 214.562 584.555 97.236 467.229 97.236 321.791 C 97.236 176.352 214.562 59.026 360.000 59.026 Z"/>
</g>
<g id="star_2">
<path fill="none" stroke="#000000" stroke-width="4" stroke-linecap="round" stroke-linejoin="round" d="M 337.062 404.463 C 337.057 404.460 288.870 369.464 288.865 369.461 C 288.863 369.459 273.742 358.478 266.181 352.987 C 266.175 353.004 208.225 531.478 208.219 531.496 C 208.234 531.485 360.021 421.159 360.036 421.148 C 360.038 421.146 382.956 404.488 382.959 404.486 C 382.964 404.483 431.171 369.443 431.176 369.440 C 431.175 369.437 425.330 351.429 422.407 342.423 C 422.401 342.427 360.030 387.761 360.024 387.766 C 360.022 387.768 337.064 404.462 337.062 404.463 C 337.054 404.469 259.094 461.127 259.086 461.132 C 259.089 461.123 278.939 400.018 288.865 369.461 M 431.176 369.440 C 431.179 369.449 460.988 461.083 460.991 461.092 C 460.983 461.086 382.967 404.492 382.959 404.486 M 389.962 242.645 C 379.967 211.901 359.979 150.422 359.976 150.413 C 359.973 150.422 329.977 242.648 329.974 242.657 C 329.973 242.660 324.284 260.284 321.440 269.097 C 321.447 269.097 398.553 269.081 398.560 269.081 C 407.913 269.106 426.616 269.156 426.619 269.156 C 432.772 288.081 445.078 325.927 445.080 325.933 C 445.081 325.936 450.936 343.944 453.864 352.949 C 453.879 352.938 605.665 242.612 605.681 242.601 C 605.662 242.601 418.016 242.639 417.997 242.639 C 408.652 242.641 389.965 242.645 389.962 242.645 C 389.956 242.645 349.970 242.653 329.974 242.657 M 445.080 325.933 C 471.168 306.974 523.337 269.062 523.344 269.057 C 523.335 269.057 426.629 269.156 426.619 269.156 M 274.954 325.968 C 281.100 307.040 293.390 269.189 293.392 269.183 C 293.393 269.181 299.132 251.503 302.003 242.663 C 301.984 242.663 114.338 242.700 114.319 242.700 C 114.335 242.711 266.165 352.976 266.181 352.987 M 511.897 531.435 C 511.891 531.417 453.870 352.967 453.864 352.949 M 360.036 421.148 C 360.051 421.159 511.882 531.424 511.897 531.435 M 359.964 64.153 C 359.959 64.171 302.009 242.645 302.003 242.663 M 417.997 242.639 C 417.991 242.621 359.970 64.171 359.964 64.153 M 360.024 387.766 C 360.018 387.761 297.629 342.452 297.623 342.448 C 297.625 342.440 321.437 269.105 321.440 269.097 M 398.560 269.081 C 398.563 269.089 422.405 342.416 422.407 342.423 M 293.392 269.183 C 261.146 269.163 196.665 269.122 196.656 269.122 C 196.663 269.128 274.946 325.962 274.954 325.968 C 274.956 325.969 290.066 336.954 297.623 342.448 "/>
<path fill="#ffffff" fill-rule="evenodd" stroke="#000000" stroke-width="4" stroke-linecap="round" stroke-linejoin="round" d="M 605.681 242.601 C 605.662 242.601 418.016 242.639 417.997 242.639 C 417.991 242.621 359.970 64.171 359.964 64.153 C 359.959 64.171 302.009 242.645 302.003 242.663 C 301.984 242.663 114.338 242.700 114.319 242.700 C 114.335 242.711 266.165 352.976 266.181 352.987 C 266.175 353.004 208.225 531.478 208.219 531.496 C 208.234 531.485 360.021 421.159 360.036 421.148 C 360.051 421.159 511.882 531.424 511.897 531.435 C 511.891 531.417 453.870 352.967 453.864 352.949 C 453.879 352.938 605.665 242.612 605.681 242.601 Z"/>
<path fill="none" stroke="#000000" stroke-width="4" stroke-linecap="round" stroke-linejoin="round" d="M 337.062 404.463 C 337.057 404.460 288.870 369.464 288.865 369.461 C 288.863 369.459 273.742 358.478 266.181 352.987 C 266.175 353.004 208.225 531.478 208.219 531.496 C 208.234 531.485 360.021 421.159 360.036 421.148 C 360.038 421.146 382.956 404.488 382.959 404.486 C 382.964 404.483 431.171 369.443 431.176 369.440 C 431.175 369.437 425.330 351.429 422.407 342.423 C 422.401 342.427 360.030 387.761 360.024 387.766 C 360.022 387.768 337.064 404.462 337.062 404.463 C 337.054 404.469 259.094 461.127 259.086 461.132 C 259.089 461.123 278.939 400.018 288.865 369.461 M 431.176 369.440 C 431.179 369.449 460.988 461.083 460.991 461.092 C 460.983 461.086 382.967 404.492 382.959 404.486 M 389.962 242.645 C 379.967 211.901 359.979 150.422 359.976 150.413 C 359.973 150.422 329.977 242.648 329.974 242.657 C 329.973 242.660 324.284 260.284 321.440 269.097 C 321.447 269.097 398.553 269.081 398.560 269.081 C 407.913 269.106 426.616 269.156 426.619 269.156 C 432.772 288.081 445.078 325.927 445.080 325.933 C 445.081 325.936 450.936 343.944 453.864 352.949 C 453.879 352.938 605.665 242.612 605.681 242.601 C 605.662 242.601 418.016 242.639 417.997 242.639 C 408.652 242.641 389.965 242.645 389.962 242.645 C 389.956 242.645 349.970 242.653 329.974 242.657 M 445.080 325.933 C 471.168 306.974 523.337 269.062 523.344 269.057 C 523.335 269.057 426.629 269.156 426.619 269.156 M 274.954 325.968 C 281.100 307.040 293.390 269.189 293.392 269.183 C 293.393 269.181 299.132 251.503 302.003 242.663 C 301.984 242.663 114.338 242.700 114.319 242.700 C 114.335 242.711 266.165 352.976 266.181 352.987 M 511.897 531.435 C 511.891 531.417 453.870 352.967 453.864 352.949 M 360.036 421.148 C 360.051 421.159 511.882 531.424 511.897 531.435 M 359.964 64.153 C 359.959 64.171 302.009 242.645 302.003 242.663 M 417.997 242.639 C 417.991 242.621 359.970 64.171 359.964 64.153 M 360.024 387.766 C 360.018 387.761 297.629 342.452 297.623 342.448 C 297.625 342.440 321.437 269.105 321.440 269.097 M 398.560 269.081 C 398.563 269.089 422.405 342.416 422.407 342.423 M 293.392 269.183 C 261.146 269.163 196.665 269.122 196.656 269.122 C 196.663 269.128 274.946 325.962 274.954 325.968 C 274.956 325.969 290.066 336.954 297.623 342.448 "/>
</g>
<g id="specs_2">
<path fill="#ff00ff" fill-rule="evenodd" stroke="none" d="M 174.511 507.087 C 174.548 507.087 545.561 507.087 545.598 507.087 C 545.598 507.050 545.598 136.037 545.598 136.000 C 545.561 136.000 174.548 136.000 174.511 136.000 C 174.511 136.037 174.511 507.050 174.511 507.087 Z"/>
<path fill="#ff0000" fill-rule="evenodd" stroke="none" d="M 360.055 676.146 C 360.056 676.150 371.183 707.304 371.184 707.307 C 371.183 707.307 360.056 696.954 360.055 696.953 C 360.054 696.954 348.927 707.307 348.926 707.307 C 348.927 707.304 360.054 676.150 360.055 676.146 Z"/>
<path fill="#0000ff" fill-rule="evenodd" stroke="none" d="M 360.055 15.213 C 360.056 15.215 366.519 33.313 366.519 33.314 C 366.519 33.314 360.056 27.300 360.055 27.300 C 360.054 27.300 353.591 33.314 353.590 33.314 C 353.591 33.313 360.054 15.215 360.055 15.213 Z"/>
<path fill="#00ff00" fill-rule="evenodd" stroke="none" d="M 54.753 322.443 C 54.754 322.442 72.819 315.888 72.821 315.887 C 72.820 315.888 66.839 322.381 66.839 322.382 C 66.839 322.383 72.885 328.816 72.886 328.816 C 72.884 328.816 54.754 322.444 54.753 322.443 Z"/>
<path fill="#ffff00" fill-rule="evenodd" stroke="none" d="M 143.766 539.503 C 143.767 539.501 151.788 522.039 151.788 522.037 C 151.788 522.038 152.211 530.856 152.211 530.857 C 152.212 530.857 161.037 531.071 161.038 531.071 C 161.036 531.072 143.768 539.502 143.766 539.503 Z"/>
<path fill="#ffff00" fill-rule="evenodd" stroke="none" d="M 577.530 539.289 C 577.529 539.288 569.160 521.989 569.159 521.987 C 569.159 521.988 568.914 530.813 568.914 530.814 C 568.913 530.814 560.093 531.205 560.092 531.205 C 560.094 531.206 577.528 539.288 577.530 539.289 Z"/>
<path fill="#00ff00" fill-rule="evenodd" stroke="none" d="M 666.293 322.443 C 666.292 322.442 648.227 315.888 648.225 315.887 C 648.226 315.888 654.207 322.381 654.207 322.382 C 654.207 322.383 648.161 328.816 648.160 328.816 C 648.162 328.816 666.292 322.444 666.293 322.443 Z"/>
<path fill="#00ffff" fill-rule="evenodd" stroke="none" d="M 576.099 104.674 C 576.098 104.676 569.683 122.790 569.682 122.792 C 569.682 122.791 568.467 114.047 568.467 114.046 C 568.466 114.046 559.657 114.628 559.656 114.628 C 559.658 114.627 576.097 104.675 576.099 104.674 Z"/>
<path fill="#00ffff" fill-rule="evenodd" stroke="none" d="M 144.111 105.274 C 144.112 105.276 151.721 122.923 151.722 122.924 C 151.722 122.923 152.351 114.117 152.351 114.117 C 152.352 114.117 161.180 114.110 161.180 114.110 C 161.179 114.109 144.113 105.275 144.111 105.274 Z"/>
<path fill="#be0027" fill-rule="evenodd" stroke="none" d="M 360.055 636.851 C 360.056 636.848 371.183 605.693 371.184 605.690 C 371.183 605.691 360.056 616.044 360.055 616.045 C 360.054 616.044 348.927 605.691 348.926 605.690 C 348.927 605.693 360.054 636.848 360.055 636.851 Z"/>
</g>
</g>
</svg>
