<?xml version="1.0" encoding="utf-8"?>
<!-- Generator: Moho 12.5 build 22414 -->
<!DOCTYPE svg PUBLIC "-//W3C//DTD SVG 1.1//EN" "http://www.w3.org/Graphics/SVG/1.1/DTD/svg11.dtd">
<svg version="1.1" id="Frame_0" xmlns="http://www.w3.org/2000/svg" xmlns:xlink="http://www.w3.org/1999/xlink" width="720px" height="720px">
<g id="pillar">
<g id="pillar">
<path fill="#ffffff" fill-rule="evenodd" stroke="#000000" stroke-width="3" stroke-linejoin="round" d="M 447.419 609.321 C 436.493 609.513 283.503 608.962 272.581 609.321 C 257.982 609.802 260.094 641.507 260.093 641.510 C 260.113 641.510 459.887 641.510 459.907 641.510 C 459.906 641.507 462.018 609.065 447.419 609.321 C 447.418 609.319 448.376 582.216 434.930 581.968 C 425.945 581.802 293.083 581.820 285.070 581.968 C 271.624 582.216 272.582 609.319 272.581 609.321 C 272.599 609.321 447.401 609.321 447.419 609.321 M 291.617 581.968 C 291.617 581.934 291.617 240.086 291.617 240.052 C 291.630 240.052 428.370 240.052 428.383 240.052 C 428.383 240.086 428.383 581.934 428.383 581.968 C 428.370 581.968 291.630 581.968 291.617 581.968 Z"/>
<path fill="none" stroke="#000000" stroke-width="3" stroke-linejoin="round" d="M 411.041 240.052 C 411.041 354.024 411.041 467.996 411.041 581.968 M 308.959 240.052 C 308.959 354.024 308.959 467.996 308.959 581.968 M 333.435 239.776 C 333.173 353.840 332.910 467.904 332.647 581.968 M 387.353 240.052 C 387.353 354.024 387.353 467.996 387.353 581.968 M 360.000 240.052 C 360.000 354.024 360.000 467.996 360.000 581.968 "/>
<path fill="#ffffff" fill-rule="evenodd" stroke="#000000" stroke-width="3" stroke-linejoin="round" d="M 291.617 199.022 C 291.624 199.022 359.993 199.022 360.000 199.022 C 360.007 199.022 428.376 199.022 428.383 199.022 C 428.383 199.025 428.383 232.897 428.383 232.900 C 428.383 232.903 428.383 260.616 428.383 260.619 C 428.376 260.619 360.007 260.619 360.000 260.619 C 359.993 260.619 291.624 260.619 291.617 260.619 C 291.617 260.616 291.617 232.903 291.617 232.900 C 291.617 232.897 291.617 199.025 291.617 199.022 Z"/>
<path fill="none" stroke="#000000" stroke-width="3" stroke-linejoin="round" d="M 291.617 232.900 C 337.206 232.900 382.794 232.900 428.383 232.900 "/>
<path fill="#ffffff" fill-rule="evenodd" stroke="none" d="M 323.732 205.636 C 348.494 205.665 373.256 205.695 398.018 205.724 C 392.796 209.841 383.371 224.591 387.776 240.059 C 394.950 265.253 418.401 273.500 427.595 273.490 C 441.127 273.474 471.943 265.960 474.360 227.619 C 476.124 199.639 449.196 177.236 428.383 177.827 C 420.406 178.054 299.594 178.054 291.617 177.827 C 270.804 177.236 243.163 196.945 245.640 227.619 C 248.733 265.912 278.873 273.474 292.405 273.490 C 301.599 273.500 324.432 265.068 332.224 240.059 C 336.958 224.865 327.807 209.268 323.732 205.636 Z"/>
<path fill="none" stroke="#000000" stroke-width="3" stroke-linejoin="round" d="M 323.732 205.636 C 319.794 202.126 304.920 194.987 289.769 201.135 C 262.253 212.302 263.970 246.777 288.909 245.582 C 311.568 244.496 301.867 217.532 292.576 223.710 M 323.732 205.636 C 348.494 205.665 373.256 205.695 398.018 205.724 C 392.796 209.841 383.371 224.591 387.776 240.059 C 394.950 265.253 418.401 273.500 427.595 273.490 C 441.127 273.474 471.943 265.960 474.360 227.619 C 476.124 199.639 449.196 177.236 428.383 177.827 C 420.406 178.054 299.594 178.054 291.617 177.827 C 270.804 177.236 243.163 196.945 245.640 227.619 C 248.733 265.912 278.873 273.474 292.405 273.490 C 301.599 273.500 324.432 265.068 332.224 240.059 C 336.958 224.865 327.807 209.268 323.732 205.636 M 438.237 204.214 C 419.570 192.282 403.884 201.101 398.018 205.724 M 431.091 245.582 C 454.669 245.631 460.509 218.451 438.237 204.214 M 427.424 221.863 C 412.011 219.280 407.686 245.533 431.091 245.582 "/>
</g>
<g id="specs_2">
<path fill="#ff00ff" fill-rule="evenodd" stroke="none" d="M 278.685 178.664 C 278.701 178.664 441.299 178.664 441.315 178.664 C 441.315 178.648 441.315 16.050 441.315 16.034 C 441.299 16.034 278.701 16.034 278.685 16.034 C 278.685 16.050 278.685 178.648 278.685 178.664 Z"/>
<path fill="#ff0000" fill-rule="evenodd" stroke="none" d="M 360.000 683.534 C 360.001 683.537 368.491 707.309 368.492 707.311 C 368.491 707.310 360.001 699.411 360.000 699.410 C 359.999 699.411 351.509 707.310 351.509 707.311 C 351.509 707.309 359.999 683.537 360.000 683.534 Z"/>
<path fill="#0000ff" fill-rule="evenodd" stroke="none" d="M 360.000 170.850 C 360.000 170.852 364.932 184.660 364.932 184.662 C 364.932 184.661 360.000 180.073 360.000 180.072 C 360.000 180.073 355.068 184.661 355.068 184.662 C 355.068 184.660 360.000 170.852 360.000 170.850 Z"/>
<path fill="#00ff00" fill-rule="evenodd" stroke="none" d="M 281.784 417.918 C 281.785 417.918 295.569 412.916 295.570 412.916 C 295.570 412.916 291.006 417.871 291.006 417.872 C 291.006 417.872 295.619 422.780 295.620 422.781 C 295.618 422.780 281.785 417.919 281.784 417.918 Z"/>
<path fill="#ffff00" fill-rule="evenodd" stroke="none" d="M 256.994 645.136 C 256.995 645.134 264.983 627.742 264.984 627.740 C 264.984 627.741 265.405 636.524 265.405 636.525 C 265.406 636.525 274.195 636.738 274.196 636.738 C 274.195 636.739 256.996 645.135 256.994 645.136 Z"/>
<path fill="#ffff00" fill-rule="evenodd" stroke="none" d="M 463.006 644.923 C 463.005 644.921 454.669 627.692 454.669 627.691 C 454.669 627.692 454.424 636.481 454.424 636.482 C 454.423 636.482 445.639 636.871 445.638 636.871 C 445.640 636.872 463.004 644.922 463.006 644.923 Z"/>
<path fill="#00ff00" fill-rule="evenodd" stroke="none" d="M 438.216 417.918 C 438.215 417.918 424.431 412.916 424.430 412.916 C 424.431 412.916 428.994 417.871 428.994 417.872 C 428.994 417.872 424.381 422.780 424.380 422.781 C 424.382 422.780 438.215 417.919 438.216 417.918 Z"/>
<path fill="#00ffff" fill-rule="evenodd" stroke="none" d="M 470.080 193.533 C 470.080 193.534 466.812 202.763 466.811 202.764 C 466.811 202.763 466.192 198.308 466.192 198.308 C 466.192 198.308 461.704 198.604 461.704 198.604 C 461.704 198.604 470.080 193.534 470.080 193.533 Z"/>
<path fill="#00ffff" fill-rule="evenodd" stroke="none" d="M 249.996 193.839 C 249.996 193.840 253.873 202.830 253.873 202.831 C 253.873 202.831 254.194 198.345 254.194 198.344 C 254.194 198.344 258.692 198.341 258.692 198.341 C 258.691 198.340 249.997 193.840 249.996 193.839 Z"/>
<path fill="#be0027" fill-rule="evenodd" stroke="none" d="M 360.000 653.552 C 360.001 653.549 368.491 629.777 368.492 629.775 C 368.491 629.776 360.001 637.675 360.000 637.676 C 359.999 637.675 351.509 629.776 351.509 629.775 C 351.509 629.777 359.999 653.549 360.000 653.552 Z"/>
</g>
</g>
</svg>
