<?xml version="1.0" encoding="utf-8"?>
<!-- Generator: Moho 12.5 build 22414 -->
<!DOCTYPE svg PUBLIC "-//W3C//DTD SVG 1.1//EN" "http://www.w3.org/Graphics/SVG/1.1/DTD/svg11.dtd">
<svg version="1.1" id="Frame_0" xmlns="http://www.w3.org/2000/svg" xmlns:xlink="http://www.w3.org/1999/xlink" width="720px" height="720px">
<g id="pips">
<g id="pip_spade">
<g id="spade">
<path fill="#000000" fill-rule="evenodd" stroke="#ffffff" stroke-width="4" stroke-linecap="round" stroke-linejoin="round" d="M 195.095 237.166 C 3.745 432.657 191.320 574.460 342.610 481.128 C 314.044 582.960 298.335 590.972 280.992 617.790 C 335.433 617.776 389.881 617.776 444.339 617.790 C 423.371 590.709 401.351 582.959 379.041 481.707 C 533.504 570.438 696.301 415.698 524.905 237.166 C 412.812 139.117 369.294 49.602 360.000 36.892 C 351.083 47.482 298.545 140.936 195.095 237.166 Z"/>
</g>
<g id="specs_2">
<path fill="#ff00ff" fill-rule="evenodd" stroke="none" d="M 249.193 438.148 C 249.215 438.148 470.785 438.148 470.807 438.148 C 470.807 438.125 470.807 216.556 470.807 216.534 C 470.785 216.534 249.215 216.534 249.193 216.534 C 249.193 216.556 249.193 438.125 249.193 438.148 Z"/>
<path fill="#ff0000" fill-rule="evenodd" stroke="none" d="M 360.000 677.050 C 360.001 677.053 371.044 707.973 371.045 707.976 C 371.044 707.975 360.001 697.701 360.000 697.700 C 359.999 697.701 348.956 707.975 348.955 707.976 C 348.956 707.973 359.999 677.053 360.000 677.050 Z"/>
<path fill="#0000ff" fill-rule="evenodd" stroke="none" d="M 360.000 23.320 C 360.001 23.322 366.415 41.283 366.416 41.285 C 366.415 41.284 360.001 35.316 360.000 35.315 C 359.999 35.316 353.585 41.284 353.584 41.285 C 353.585 41.283 359.999 23.322 360.000 23.320 Z"/>
<path fill="#00ff00" fill-rule="evenodd" stroke="none" d="M 56.535 328.232 C 56.537 328.232 74.465 321.726 74.467 321.725 C 74.467 321.726 68.531 328.171 68.530 328.172 C 68.531 328.172 74.531 334.556 74.532 334.557 C 74.530 334.556 56.537 328.233 56.535 328.232 Z"/>
<path fill="#ffff00" fill-rule="evenodd" stroke="none" d="M 144.753 543.655 C 144.754 543.653 152.714 526.322 152.715 526.320 C 152.715 526.321 153.134 535.073 153.134 535.073 C 153.135 535.073 161.894 535.286 161.895 535.286 C 161.893 535.287 144.755 543.654 144.753 543.655 Z"/>
<path fill="#ffff00" fill-rule="evenodd" stroke="none" d="M 575.247 543.442 C 575.246 543.441 566.940 526.272 566.939 526.271 C 566.939 526.271 566.696 535.030 566.696 535.031 C 566.695 535.031 557.941 535.419 557.940 535.419 C 557.942 535.420 575.245 543.442 575.247 543.442 Z"/>
<path fill="#00ff00" fill-rule="evenodd" stroke="none" d="M 663.465 328.232 C 663.463 328.232 645.535 321.726 645.533 321.725 C 645.534 321.726 651.469 328.171 651.470 328.172 C 651.469 328.172 645.469 334.556 645.468 334.557 C 645.470 334.556 663.463 328.233 663.465 328.232 Z"/>
<path fill="#00ffff" fill-rule="evenodd" stroke="none" d="M 574.415 112.106 C 574.414 112.108 568.047 130.086 568.046 130.088 C 568.046 130.087 566.841 121.408 566.841 121.407 C 566.840 121.407 558.097 121.985 558.096 121.985 C 558.098 121.984 574.413 112.107 574.415 112.106 Z"/>
<path fill="#00ffff" fill-rule="evenodd" stroke="none" d="M 145.685 112.702 C 145.685 112.704 153.237 130.217 153.238 130.219 C 153.238 130.218 153.862 121.478 153.862 121.478 C 153.863 121.478 162.624 121.471 162.625 121.471 C 162.623 121.470 145.686 112.703 145.685 112.702 Z"/>
<path fill="#be0027" fill-rule="evenodd" stroke="none" d="M 360.000 638.051 C 360.001 638.048 371.044 607.128 371.045 607.125 C 371.044 607.126 360.001 617.401 360.000 617.402 C 359.999 617.401 348.956 607.126 348.955 607.125 C 348.956 607.128 359.999 638.048 360.000 638.051 Z"/>
</g>
</g>
</g>
</svg>
