<?xml version="1.0" encoding="utf-8"?>
<!-- Generator: Moho 12.5 build 22414 -->
<!DOCTYPE svg PUBLIC "-//W3C//DTD SVG 1.1//EN" "http://www.w3.org/Graphics/SVG/1.1/DTD/svg11.dtd">
<svg version="1.1" id="Frame_0" xmlns="http://www.w3.org/2000/svg" xmlns:xlink="http://www.w3.org/1999/xlink" width="720px" height="720px">
<g id="pomegranate">
<g id="pomegranate">
<path fill="#ffffff" fill-rule="evenodd" stroke="none" d="M 360.000 8.383 C 360.032 8.382 376.036 45.142 376.067 45.147 C 376.091 45.150 396.999 23.157 397.022 23.164 C 397.052 23.173 398.866 62.563 398.866 62.567 C 398.869 62.565 428.074 41.444 428.101 41.455 C 428.148 41.476 409.836 84.892 417.761 106.266 C 436.118 155.772 507.744 155.787 543.026 192.380 C 589.186 240.255 618.989 304.820 618.989 377.403 C 618.989 449.987 589.929 515.280 543.026 562.427 C 496.123 609.574 431.375 638.575 360.000 638.575 C 288.625 638.575 223.877 609.574 176.974 562.427 C 130.071 515.280 101.011 449.987 101.011 377.403 C 101.011 304.820 130.611 240.059 176.974 192.380 C 212.884 155.451 288.387 157.225 304.690 106.266 C 310.630 87.700 291.863 51.646 291.899 51.621 C 291.920 51.607 321.026 63.656 321.029 63.657 C 321.029 63.653 320.495 20.633 320.527 20.622 C 320.554 20.612 345.539 46.423 345.567 46.418 C 345.598 46.412 359.968 8.383 360.000 8.383 Z"/>
<path fill="none" stroke="#000000" stroke-width="4" stroke-linecap="round" stroke-linejoin="round" d="M 269.635 187.312 C 269.635 187.312 277.801 199.659 277.801 207.551 C 277.801 223.658 264.808 236.651 248.701 236.651 C 235.654 236.651 224.651 228.126 220.982 216.458 C 235.973 204.988 269.635 187.312 269.635 187.312 C 282.059 181.051 277.548 183.688 282.423 181.832 C 282.249 183.169 282.166 184.438 282.166 185.726 C 282.165 201.833 295.159 214.826 311.266 214.826 C 322.057 214.826 331.451 208.993 336.588 200.104 C 336.961 226.704 334.904 266.179 332.941 305.143 C 329.076 303.219 324.666 302.126 319.996 302.126 C 303.889 302.126 290.895 315.119 290.895 331.226 C 290.895 347.332 303.889 360.326 319.996 360.326 C 323.700 360.326 327.240 359.638 330.612 358.366 C 330.262 368.798 330.225 408.508 334.546 419.981 C 318.439 419.981 305.445 432.974 305.445 449.081 C 305.445 465.187 318.439 478.185 336.020 478.151 C 335.509 478.169 335.029 478.181 334.546 478.181 C 334.546 478.181 334.546 478.181 336.020 478.151 C 336.528 488.790 337.086 498.874 337.625 508.619 C 336.001 513.100 336.001 513.100 336.001 513.100 C 336.001 511.650 335.896 510.226 337.625 508.619 C 333.636 494.760 321.558 484.000 306.901 484.000 C 290.794 484.000 277.801 496.993 277.801 513.100 C 277.801 529.207 290.794 542.200 306.901 542.200 C 323.008 542.200 336.004 529.207 337.625 508.619 C 340.502 560.557 342.708 600.073 329.337 597.814 C 325.529 597.170 321.732 596.425 319.054 595.799 C 323.301 590.691 325.816 584.207 325.816 577.120 C 325.816 561.013 312.822 548.020 296.716 548.020 C 280.609 548.020 267.609 561.014 267.611 577.522 C 267.617 577.442 267.616 577.281 267.616 577.120 C 267.616 577.120 267.616 577.120 267.611 577.522 C 253.161 570.271 239.741 561.667 227.303 551.573 C 232.042 552.671 236.594 553.840 241.426 553.840 C 257.533 553.840 270.526 540.847 270.526 524.740 C 270.526 508.633 257.533 495.640 241.426 495.640 C 225.320 495.640 212.326 508.633 212.326 524.740 C 212.326 536.015 218.693 545.764 227.303 551.573 C 207.724 535.681 190.580 516.093 177.126 492.983 C 172.751 485.468 168.761 477.599 165.293 469.601 C 161.344 460.495 157.917 450.984 155.061 441.065 C 167.796 438.106 177.406 426.557 177.406 412.706 C 177.406 396.599 164.413 383.606 148.306 383.606 M 171.179 269.555 C 175.114 274.596 177.406 280.811 177.406 287.576 C 177.406 303.683 164.413 316.676 148.306 316.676 C 153.961 299.694 161.870 283.629 171.179 269.555 C 184.695 249.276 201.707 231.225 220.982 216.458 M 555.508 469.450 C 555.508 469.450 555.508 469.450 555.981 469.601 C 555.496 453.344 542.514 440.351 526.408 440.351 C 510.301 440.351 497.308 453.344 497.308 469.450 C 497.308 485.557 510.301 498.550 526.408 498.550 C 533.012 498.550 539.092 496.366 544.148 492.983 C 530.694 516.093 513.550 535.681 493.971 551.573 C 502.581 545.764 508.948 536.015 508.948 524.740 C 508.948 508.633 495.955 495.640 479.848 495.640 C 463.741 495.640 450.748 508.633 450.748 524.740 C 450.748 540.847 463.741 553.840 479.848 553.840 C 484.680 553.840 489.232 552.671 493.971 551.573 C 481.534 561.667 468.113 570.271 453.663 577.522 C 453.657 577.442 453.659 577.281 453.659 577.120 C 453.659 577.120 453.659 577.120 453.663 577.522 C 453.665 561.014 440.665 548.020 424.559 548.020 C 408.452 548.020 395.459 561.013 395.458 577.120 C 395.458 584.207 397.974 590.691 402.220 595.799 C 399.542 596.425 395.745 597.170 391.937 597.814 C 378.566 600.073 380.772 560.557 383.649 508.619 C 384.188 498.874 384.746 488.790 385.254 478.151 C 385.765 478.169 386.245 478.181 386.729 478.181 C 386.729 478.181 386.729 478.181 385.254 478.151 C 402.835 478.185 415.829 465.187 415.829 449.081 C 415.829 432.974 402.835 419.981 386.729 419.981 C 391.049 408.508 391.012 368.798 390.662 358.366 C 394.034 359.638 397.574 360.326 401.279 360.326 C 417.385 360.326 430.379 347.332 430.379 331.226 C 430.379 315.119 417.385 302.126 401.279 302.126 C 396.608 302.126 392.199 303.219 388.333 305.143 C 386.370 266.179 384.313 226.704 384.686 200.104 C 389.823 208.993 399.217 214.826 410.008 214.826 C 426.115 214.826 439.110 201.833 439.109 185.726 C 439.108 184.438 438.852 181.832 438.852 181.832 C 451.379 187.883 447.873 185.066 451.639 187.312 C 446.593 192.514 443.473 199.659 443.473 207.551 C 443.473 223.658 456.467 236.651 472.573 236.651 C 485.620 236.651 496.623 228.126 500.292 216.458 C 519.567 231.225 536.579 249.276 550.095 269.555 C 546.160 274.596 543.868 280.811 543.868 287.576 C 543.868 303.683 556.861 316.676 572.968 316.676 C 573.968 333.656 576.347 350.866 576.245 368.729 C 576.095 394.890 572.570 418.988 566.213 441.065 C 553.478 438.106 543.868 426.557 543.868 412.706 C 543.868 396.599 556.862 383.606 572.968 383.606 M 460.933 264.296 C 460.933 248.189 447.940 235.197 431.833 235.197 C 415.727 235.197 402.733 248.189 402.733 264.296 C 402.733 280.402 415.727 293.396 431.833 293.396 C 447.940 293.396 460.934 280.402 460.933 264.296 M 498.763 332.681 C 498.763 316.574 485.770 303.581 469.663 303.581 C 453.557 303.581 440.563 316.574 440.563 332.681 C 440.563 348.787 453.556 361.781 469.663 361.781 C 485.770 361.781 498.763 348.787 498.763 332.681 M 438.852 181.832 C 438.852 181.832 408.340 171.275 391.937 167.888 C 387.359 166.942 385.446 179.755 384.686 200.104 M 388.333 305.143 C 389.230 323.587 390.113 341.982 390.662 358.366 M 386.729 419.981 C 386.828 439.601 386.148 459.401 385.254 478.151 M 402.220 595.799 C 420.056 591.811 437.500 585.633 453.663 577.522 M 383.649 508.619 C 385.379 510.226 385.273 511.650 385.273 513.100 C 385.273 513.100 385.273 513.100 383.649 508.619 C 387.638 494.760 399.716 484.000 414.373 484.000 C 430.480 484.000 443.473 496.993 443.473 513.100 C 443.473 529.207 430.480 542.200 414.373 542.200 C 398.267 542.200 385.271 529.207 383.649 508.619 M 544.148 492.983 C 548.523 485.468 552.513 477.599 555.981 469.601 C 559.930 460.495 563.357 450.984 566.213 441.065 M 572.968 316.676 C 567.313 299.694 559.404 283.629 550.095 269.555 M 500.292 216.458 C 485.301 204.988 468.886 195.142 451.639 187.312 M 458.023 489.821 C 474.130 489.821 487.123 476.827 487.123 460.721 C 487.123 444.614 474.130 431.621 458.023 431.621 C 441.917 431.621 428.923 444.614 428.923 460.721 C 428.923 476.827 441.917 489.821 458.023 489.821 M 501.673 433.075 C 517.780 433.075 530.773 420.082 530.773 403.975 C 530.773 387.869 517.779 374.876 501.673 374.876 C 485.566 374.876 472.573 387.869 472.573 403.975 C 472.573 420.082 485.566 433.075 501.673 433.075 M 433.288 425.801 C 449.395 425.801 462.388 412.807 462.388 396.701 C 462.388 380.594 449.395 367.601 433.288 367.601 C 417.182 367.601 404.188 380.594 404.188 396.701 C 404.188 412.807 417.182 425.801 433.288 425.801 M 539.503 376.331 C 555.610 376.331 568.603 363.337 568.603 347.231 C 568.603 331.124 555.609 318.131 539.503 318.131 C 523.396 318.131 510.403 331.124 510.403 347.231 C 510.403 363.337 523.396 376.331 539.503 376.331 M 504.583 300.671 C 520.690 300.671 533.683 287.678 533.683 271.571 C 533.683 255.464 520.690 242.471 504.583 242.471 C 488.476 242.471 475.483 255.464 475.483 271.571 C 475.483 287.678 488.476 300.671 504.583 300.671 M 148.306 316.676 C 147.306 333.656 144.927 350.866 145.029 368.729 C 145.179 394.890 148.704 418.988 155.061 441.065 M 267.611 577.522 C 283.774 585.633 301.218 591.811 319.054 595.799 M 336.020 478.151 C 335.126 459.401 334.446 439.601 334.546 419.981 M 330.612 358.366 C 331.161 341.982 332.044 323.587 332.941 305.143 M 336.588 200.104 C 335.828 179.755 333.916 166.942 329.337 167.888 C 312.934 171.275 297.276 175.950 282.423 181.832 M 165.766 469.450 C 165.766 469.450 165.766 469.450 165.293 469.601 C 165.778 453.344 178.760 440.351 194.866 440.351 C 210.973 440.351 223.966 453.344 223.966 469.450 C 223.967 485.557 210.973 498.550 194.866 498.550 C 188.262 498.550 182.182 496.366 177.126 492.983 M 234.151 460.721 C 234.151 444.614 247.144 431.621 263.251 431.621 C 279.357 431.621 292.351 444.614 292.351 460.721 C 292.351 476.827 279.358 489.821 263.251 489.821 C 247.144 489.821 234.151 476.827 234.151 460.721 M 190.501 403.975 C 190.501 387.869 203.495 374.876 219.601 374.876 C 235.708 374.876 248.701 387.869 248.701 403.975 C 248.701 420.082 235.708 433.075 219.601 433.075 C 203.495 433.075 190.501 420.082 190.501 403.975 M 258.886 396.701 C 258.886 380.594 271.879 367.601 287.986 367.601 C 304.092 367.601 317.086 380.594 317.086 396.701 C 317.086 412.807 304.093 425.801 287.986 425.801 C 271.879 425.801 258.886 412.807 258.886 396.701 M 152.671 347.231 C 152.671 331.124 165.665 318.131 181.771 318.131 C 197.878 318.131 210.871 331.124 210.871 347.231 C 210.872 363.337 197.878 376.331 181.771 376.331 C 165.665 376.331 152.671 363.337 152.671 347.231 M 187.591 271.571 C 187.591 255.464 200.585 242.471 216.691 242.471 C 232.798 242.471 245.791 255.464 245.791 271.571 C 245.791 287.678 232.798 300.671 216.691 300.671 C 200.584 300.671 187.591 287.678 187.591 271.571 M 260.341 264.296 C 260.341 248.189 273.334 235.197 289.441 235.197 C 305.547 235.197 318.541 248.189 318.541 264.296 C 318.541 280.402 305.548 293.396 289.441 293.396 C 273.334 293.396 260.341 280.402 260.341 264.296 M 222.511 332.681 C 222.511 316.574 235.504 303.581 251.611 303.581 C 267.718 303.581 280.711 316.574 280.711 332.681 C 280.711 348.787 267.718 361.781 251.611 361.781 C 235.504 361.781 222.511 348.787 222.511 332.681 M 345.567 46.418 C 345.598 46.412 359.968 8.383 360.000 8.383 C 360.032 8.382 376.036 45.142 376.067 45.147 C 376.091 45.150 396.999 23.157 397.022 23.164 C 397.052 23.173 398.866 62.563 398.866 62.567 C 398.869 62.565 428.074 41.444 428.101 41.455 C 428.148 41.476 409.836 84.892 417.761 106.266 C 436.118 155.772 507.744 155.787 543.026 192.380 C 589.186 240.255 618.989 304.820 618.989 377.403 C 618.989 449.987 589.929 515.280 543.026 562.427 C 496.123 609.574 431.375 638.575 360.000 638.575 C 288.625 638.575 223.877 609.574 176.974 562.427 C 130.071 515.280 101.011 449.987 101.011 377.403 C 101.011 304.820 130.611 240.059 176.974 192.380 C 212.884 155.451 288.387 157.225 304.690 106.266 C 310.630 87.700 291.863 51.646 291.899 51.621 C 291.920 51.607 321.026 63.656 321.029 63.657 C 321.029 63.653 320.495 20.633 320.527 20.622 C 320.554 20.612 345.539 46.423 345.567 46.418 "/>
</g>
<g id="specs">
<path fill="#ff00ff" fill-rule="evenodd" stroke="none" d="M 183.756 555.781 C 183.791 555.781 536.209 555.781 536.245 555.781 C 536.245 555.746 536.245 203.328 536.245 203.293 C 536.209 203.293 183.791 203.293 183.756 203.293 C 183.756 203.328 183.756 555.746 183.756 555.781 Z"/>
<path fill="#ff0000" fill-rule="evenodd" stroke="none" d="M 360.000 644.474 C 360.001 644.477 372.432 679.283 372.433 679.287 C 372.432 679.285 360.001 667.720 360.000 667.718 C 359.999 667.720 347.568 679.285 347.567 679.287 C 347.568 679.283 359.999 644.477 360.000 644.474 Z"/>
<path fill="#0000ff" fill-rule="evenodd" stroke="none" d="M 360.000 -0.463 C 360.001 -0.461 367.221 19.757 367.222 19.759 C 367.221 19.759 360.001 13.041 360.000 13.040 C 359.999 13.041 352.779 19.759 352.778 19.759 C 352.779 19.757 359.999 -0.461 360.000 -0.463 Z"/>
<path fill="#00ff00" fill-rule="evenodd" stroke="none" d="M 89.083 377.855 C 89.085 377.854 105.121 372.036 105.123 372.035 C 105.122 372.036 99.813 377.800 99.812 377.801 C 99.813 377.801 105.180 383.512 105.181 383.512 C 105.179 383.512 89.085 377.855 89.083 377.855 Z"/>
<path fill="#ffff00" fill-rule="evenodd" stroke="none" d="M 168.102 570.544 C 168.103 570.543 175.223 555.041 175.224 555.039 C 175.224 555.040 175.599 562.868 175.599 562.869 C 175.600 562.869 183.434 563.059 183.435 563.059 C 183.434 563.060 168.104 570.544 168.102 570.544 Z"/>
<path fill="#ffff00" fill-rule="evenodd" stroke="none" d="M 553.166 570.355 C 553.165 570.353 545.736 554.997 545.735 554.995 C 545.735 554.996 545.517 562.830 545.517 562.831 C 545.516 562.831 537.687 563.178 537.686 563.178 C 537.688 563.179 553.164 570.354 553.166 570.355 Z"/>
<path fill="#00ff00" fill-rule="evenodd" stroke="none" d="M 631.963 377.855 C 631.961 377.854 615.925 372.036 615.923 372.035 C 615.924 372.036 621.233 377.800 621.234 377.801 C 621.233 377.801 615.866 383.512 615.866 383.512 C 615.867 383.512 631.961 377.855 631.963 377.855 Z"/>
<path fill="#00ffff" fill-rule="evenodd" stroke="none" d="M 551.895 184.536 C 551.894 184.537 546.199 200.618 546.199 200.620 C 546.199 200.619 545.120 192.857 545.120 192.856 C 545.119 192.856 537.299 193.372 537.298 193.372 C 537.300 193.371 551.893 184.537 551.895 184.536 Z"/>
<path fill="#00ffff" fill-rule="evenodd" stroke="none" d="M 168.409 185.069 C 168.409 185.071 175.164 200.736 175.165 200.737 C 175.165 200.737 175.723 192.919 175.723 192.918 C 175.724 192.918 183.561 192.912 183.562 192.912 C 183.560 192.912 168.410 185.070 168.409 185.069 Z"/>
<path fill="#be0027" fill-rule="evenodd" stroke="none" d="M 360.000 653.187 C 360.001 653.185 369.045 627.861 369.046 627.859 C 369.045 627.859 360.001 636.274 360.000 636.275 C 359.999 636.274 350.955 627.859 350.954 627.859 C 350.955 627.861 359.999 653.185 360.000 653.187 Z"/>
</g>
</g>
</svg>
