<?xml version="1.0" encoding="utf-8"?>
<!-- Generator: Moho 12.5 build 22414 -->
<!DOCTYPE svg PUBLIC "-//W3C//DTD SVG 1.1//EN" "http://www.w3.org/Graphics/SVG/1.1/DTD/svg11.dtd">
<svg version="1.1" id="Frame_0" xmlns="http://www.w3.org/2000/svg" xmlns:xlink="http://www.w3.org/1999/xlink" width="720px" height="720px">
<g id="pomegranate">
<g id="circles2">
<path fill="#000000" fill-rule="evenodd" stroke="#ffffff" stroke-width="4" stroke-linecap="round" stroke-linejoin="round" d="M 512.174 465.310 C 512.174 453.628 521.598 444.204 533.280 444.204 C 544.961 444.204 554.385 453.628 554.385 465.310 C 554.385 476.991 544.961 486.415 533.280 486.415 C 521.598 486.415 512.174 476.991 512.174 465.310 M 462.928 465.310 C 462.928 453.628 472.352 444.204 484.033 444.204 C 495.715 444.204 505.139 453.628 505.139 465.310 C 505.139 476.992 495.715 486.415 484.033 486.415 C 472.352 486.415 462.928 476.991 462.928 465.310 M 413.683 465.310 C 413.683 453.628 423.106 444.204 434.788 444.204 C 446.470 444.204 455.893 453.628 455.893 465.310 C 455.893 476.991 446.470 486.415 434.788 486.415 C 423.106 486.415 413.683 476.991 413.683 465.310 M 364.436 465.310 C 364.436 453.628 373.860 444.204 385.542 444.204 C 397.223 444.204 406.647 453.628 406.647 465.310 C 406.647 476.991 397.223 486.415 385.542 486.415 C 373.860 486.415 364.436 476.991 364.436 465.310 M 487.216 507.794 C 487.216 496.113 496.640 486.689 508.321 486.689 C 520.003 486.689 529.427 496.113 529.427 507.794 C 529.427 519.476 520.003 528.900 508.321 528.900 C 496.640 528.900 487.216 519.476 487.216 507.794 M 437.970 507.794 C 437.970 496.113 447.393 486.689 459.075 486.689 C 470.757 486.689 480.180 496.113 480.180 507.794 C 480.180 519.476 470.757 528.900 459.075 528.900 C 447.393 528.900 437.970 519.476 437.970 507.794 M 388.723 507.794 C 388.723 496.112 398.148 486.689 409.829 486.689 C 421.511 486.689 430.935 496.113 430.935 507.794 C 430.935 519.476 421.511 528.900 409.829 528.900 C 398.148 528.900 388.723 519.476 388.723 507.794 M 512.174 379.398 C 512.174 367.716 521.598 358.292 533.280 358.292 C 544.961 358.292 554.385 367.716 554.385 379.398 C 554.385 391.079 544.962 400.503 533.280 400.503 C 521.598 400.503 512.174 391.079 512.174 379.398 M 462.928 379.398 C 462.928 367.716 472.352 358.292 484.033 358.292 C 495.715 358.292 505.139 367.716 505.139 379.398 C 505.139 391.079 495.715 400.503 484.033 400.503 C 472.351 400.503 462.928 391.079 462.928 379.398 M 413.683 379.398 C 413.683 367.716 423.106 358.292 434.788 358.292 C 446.470 358.292 455.893 367.716 455.893 379.398 C 455.893 391.079 446.470 400.503 434.788 400.503 C 423.106 400.503 413.683 391.079 413.683 379.398 M 364.436 379.398 C 364.436 367.716 373.860 358.292 385.542 358.292 C 397.223 358.292 406.647 367.716 406.647 379.398 C 406.647 391.079 397.224 400.503 385.542 400.503 C 373.860 400.503 364.436 391.079 364.436 379.398 M 561.420 379.398 C 561.420 367.716 570.844 358.292 582.526 358.292 C 594.207 358.292 603.631 367.716 603.631 379.398 C 603.631 391.079 594.208 400.503 582.526 400.503 C 570.844 400.503 561.420 391.079 561.420 379.398 M 487.216 421.882 C 487.216 410.200 496.640 400.777 508.321 400.777 C 520.003 400.777 529.427 410.200 529.427 421.882 C 529.427 433.564 520.003 442.988 508.321 442.988 C 496.640 442.988 487.216 433.564 487.216 421.882 M 437.970 421.882 C 437.970 410.200 447.393 400.777 459.075 400.777 C 470.757 400.777 480.180 410.200 480.180 421.882 C 480.180 433.564 470.757 442.988 459.075 442.988 C 447.393 442.988 437.970 433.564 437.970 421.882 M 388.723 421.882 C 388.724 410.200 398.148 400.777 409.829 400.777 C 421.511 400.777 430.935 410.200 430.935 421.882 C 430.935 433.564 421.511 442.988 409.829 442.988 C 398.148 442.988 388.723 433.564 388.723 421.882 M 339.478 421.882 C 339.478 410.200 348.901 400.777 360.583 400.777 C 372.265 400.777 381.688 410.200 381.689 421.882 C 381.689 433.564 372.265 442.988 360.583 442.988 C 348.901 442.988 339.477 433.564 339.478 421.882 M 536.462 421.882 C 536.462 410.201 545.885 400.777 557.567 400.777 C 569.249 400.777 578.672 410.200 578.673 421.882 C 578.673 433.564 569.249 442.988 557.567 442.988 C 545.885 442.988 536.462 433.564 536.462 421.882 M 462.928 551.619 C 462.928 539.938 472.352 530.514 484.033 530.514 C 495.715 530.514 505.139 539.938 505.139 551.619 C 505.139 563.301 495.715 572.725 484.033 572.725 C 472.351 572.725 462.928 563.301 462.928 551.619 M 413.683 551.619 C 413.683 539.938 423.106 530.514 434.788 530.514 C 446.470 530.514 455.893 539.938 455.893 551.619 C 455.893 563.301 446.470 572.725 434.788 572.725 C 423.106 572.725 413.683 563.301 413.683 551.619 M 364.436 551.619 C 364.436 539.938 373.860 530.514 385.542 530.514 C 397.223 530.514 406.647 539.938 406.647 551.619 C 406.647 563.301 397.224 572.725 385.542 572.725 C 373.860 572.725 364.436 563.301 364.436 551.619 M 388.723 594.104 C 388.724 582.422 398.148 572.999 409.829 572.999 C 421.511 572.999 430.935 582.422 430.935 594.104 C 430.935 605.786 421.511 615.210 409.829 615.210 C 398.148 615.210 388.723 605.786 388.723 594.104 M 388.723 165.281 C 388.723 153.599 398.148 144.175 409.829 144.175 C 421.511 144.175 430.935 153.599 430.935 165.281 C 430.935 176.962 421.511 186.386 409.829 186.386 C 398.148 186.386 388.724 176.963 388.723 165.281 M 512.174 295.018 C 512.174 283.336 521.598 273.912 533.280 273.912 C 544.962 273.912 554.385 283.336 554.385 295.018 C 554.385 306.700 544.961 316.123 533.280 316.123 C 521.598 316.123 512.174 306.700 512.174 295.018 M 462.928 295.018 C 462.928 283.336 472.351 273.912 484.033 273.912 C 495.715 273.912 505.139 283.336 505.139 295.018 C 505.139 306.700 495.715 316.123 484.033 316.123 C 472.352 316.123 462.928 306.700 462.928 295.018 M 413.683 295.018 C 413.683 283.336 423.106 273.912 434.788 273.912 C 446.470 273.912 455.893 283.336 455.893 295.018 C 455.893 306.700 446.470 316.123 434.788 316.123 C 423.106 316.123 413.683 306.700 413.683 295.018 M 364.436 295.018 C 364.436 283.336 373.860 273.912 385.542 273.912 C 397.224 273.912 406.647 283.336 406.647 295.018 C 406.647 306.700 397.223 316.123 385.542 316.123 C 373.860 316.123 364.436 306.700 364.436 295.018 M 487.216 337.503 C 487.216 325.821 496.640 316.397 508.321 316.397 C 520.003 316.397 529.427 325.821 529.427 337.503 C 529.427 349.184 520.003 358.608 508.321 358.608 C 496.640 358.608 487.216 349.184 487.216 337.503 M 437.970 337.503 C 437.970 325.821 447.393 316.397 459.075 316.397 C 470.757 316.397 480.180 325.821 480.180 337.503 C 480.180 349.184 470.757 358.608 459.075 358.608 C 447.393 358.608 437.970 349.184 437.970 337.503 M 388.723 337.503 C 388.723 325.821 398.148 316.397 409.829 316.397 C 421.511 316.397 430.935 325.821 430.935 337.503 C 430.935 349.184 421.511 358.608 409.829 358.608 C 398.148 358.608 388.724 349.185 388.723 337.503 M 339.478 337.503 C 339.477 325.821 348.901 316.397 360.583 316.397 C 372.265 316.397 381.689 325.821 381.689 337.503 C 381.688 349.184 372.265 358.608 360.583 358.608 C 348.901 358.608 339.478 349.184 339.478 337.503 M 536.462 337.503 C 536.462 325.821 545.885 316.397 557.567 316.397 C 569.249 316.397 578.673 325.821 578.673 337.503 C 578.672 349.184 569.249 358.608 557.567 358.608 C 545.885 358.608 536.462 349.184 536.462 337.503 M 462.928 209.106 C 462.928 197.424 472.352 188.001 484.033 188.001 C 495.715 188.000 505.139 197.424 505.139 209.106 C 505.139 220.788 495.715 230.211 484.033 230.211 C 472.352 230.211 462.928 220.788 462.928 209.106 M 413.683 209.106 C 413.683 197.424 423.106 188.001 434.788 188.001 C 446.470 188.001 455.893 197.424 455.893 209.106 C 455.893 220.788 446.470 230.211 434.788 230.211 C 423.106 230.211 413.683 220.788 413.683 209.106 M 364.436 209.106 C 364.436 197.424 373.860 188.001 385.542 188.001 C 397.223 188.001 406.647 197.424 406.647 209.106 C 406.647 220.788 397.223 230.211 385.542 230.211 C 373.860 230.211 364.436 220.788 364.436 209.106 M 487.216 251.590 C 487.216 239.909 496.640 230.485 508.321 230.485 C 520.003 230.485 529.427 239.909 529.427 251.590 C 529.427 263.272 520.003 272.696 508.321 272.696 C 496.640 272.696 487.216 263.272 487.216 251.590 M 437.970 251.590 C 437.970 239.909 447.393 230.485 459.075 230.485 C 470.757 230.485 480.180 239.909 480.180 251.590 C 480.180 263.272 470.757 272.696 459.075 272.696 C 447.393 272.696 437.970 263.272 437.970 251.590 M 388.723 251.590 C 388.723 239.909 398.148 230.485 409.829 230.485 C 421.511 230.485 430.935 239.909 430.935 251.590 C 430.935 263.272 421.511 272.696 409.829 272.696 C 398.148 272.696 388.723 263.272 388.723 251.590 M 316.132 465.310 C 316.132 453.628 325.556 444.204 337.237 444.204 C 348.919 444.204 358.343 453.628 358.343 465.310 C 358.343 476.991 348.919 486.415 337.237 486.415 C 325.556 486.415 316.132 476.991 316.132 465.310 M 266.886 465.310 C 266.886 453.628 276.309 444.204 287.991 444.204 C 299.673 444.204 309.097 453.628 309.097 465.310 C 309.097 476.991 299.673 486.415 287.991 486.415 C 276.309 486.415 266.886 476.991 266.886 465.310 M 217.640 465.310 C 217.640 453.628 227.063 444.204 238.745 444.204 C 250.427 444.204 259.850 453.628 259.850 465.310 C 259.850 476.991 250.427 486.415 238.745 486.415 C 227.064 486.415 217.640 476.991 217.640 465.310 M 168.394 465.310 C 168.394 453.628 177.817 444.204 189.499 444.204 C 201.181 444.204 210.604 453.628 210.604 465.310 C 210.604 476.991 201.181 486.415 189.499 486.415 C 177.817 486.415 168.394 476.991 168.394 465.310 M 291.173 507.794 C 291.173 496.113 300.597 486.689 312.279 486.689 C 323.960 486.689 333.384 496.113 333.384 507.794 C 333.384 519.476 323.960 528.900 312.279 528.900 C 300.597 528.900 291.173 519.476 291.173 507.794 M 241.927 507.794 C 241.927 496.113 251.351 486.689 263.032 486.689 C 274.714 486.689 284.138 496.112 284.138 507.794 C 284.138 519.476 274.714 528.900 263.032 528.900 C 251.351 528.899 241.927 519.476 241.927 507.794 M 192.681 507.794 C 192.681 496.112 202.105 486.689 213.787 486.689 C 225.468 486.689 234.892 496.113 234.892 507.794 C 234.892 519.476 225.468 528.900 213.787 528.900 C 202.105 528.900 192.681 519.476 192.681 507.794 M 119.147 379.398 C 119.147 367.716 128.571 358.292 140.252 358.292 C 151.934 358.292 161.358 367.716 161.358 379.398 C 161.358 391.079 151.934 400.503 140.252 400.503 C 128.571 400.503 119.147 391.079 119.147 379.398 M 316.132 379.398 C 316.132 367.716 325.556 358.292 337.237 358.292 C 348.919 358.292 358.343 367.716 358.343 379.398 C 358.343 391.079 348.919 400.503 337.237 400.503 C 325.556 400.503 316.132 391.079 316.132 379.398 M 266.886 379.398 C 266.886 367.716 276.309 358.292 287.991 358.292 C 299.673 358.292 309.097 367.716 309.097 379.398 C 309.097 391.079 299.673 400.503 287.991 400.503 C 276.309 400.503 266.886 391.079 266.886 379.398 M 217.640 379.398 C 217.640 367.716 227.063 358.292 238.745 358.292 C 250.427 358.292 259.850 367.716 259.850 379.398 C 259.851 391.079 250.427 400.503 238.745 400.503 C 227.063 400.503 217.640 391.079 217.640 379.398 M 168.394 379.398 C 168.394 367.716 177.817 358.292 189.499 358.292 C 201.181 358.292 210.604 367.716 210.604 379.398 C 210.604 391.079 201.181 400.503 189.499 400.503 C 177.817 400.503 168.393 391.079 168.394 379.398 M 291.173 421.882 C 291.173 410.200 300.597 400.777 312.279 400.777 C 323.960 400.777 333.384 410.201 333.384 421.882 C 333.384 433.564 323.960 442.988 312.279 442.988 C 300.597 442.988 291.173 433.564 291.173 421.882 M 241.927 421.882 C 241.927 410.201 251.351 400.777 263.032 400.777 C 274.714 400.777 284.138 410.200 284.138 421.882 C 284.138 433.564 274.714 442.988 263.032 442.988 C 251.351 442.988 241.927 433.564 241.927 421.882 M 192.681 421.882 C 192.681 410.200 202.105 400.777 213.787 400.777 C 225.468 400.777 234.892 410.200 234.892 421.882 C 234.892 433.564 225.468 442.988 213.787 442.988 C 202.105 442.988 192.681 433.564 192.681 421.882 M 143.435 421.882 C 143.435 410.201 152.858 400.777 164.540 400.777 C 176.222 400.777 185.646 410.200 185.646 421.882 C 185.646 433.564 176.222 442.988 164.540 442.988 C 152.858 442.988 143.435 433.564 143.435 421.882 M 316.132 551.619 C 316.132 539.938 325.556 530.514 337.237 530.514 C 348.919 530.514 358.343 539.938 358.343 551.619 C 358.343 563.301 348.919 572.725 337.237 572.725 C 325.556 572.725 316.132 563.301 316.132 551.619 M 266.886 551.619 C 266.886 539.938 276.309 530.514 287.991 530.514 C 299.673 530.514 309.097 539.938 309.097 551.619 C 309.097 563.301 299.673 572.725 287.991 572.725 C 276.309 572.725 266.886 563.301 266.886 551.619 M 217.640 551.619 C 217.640 539.938 227.063 530.514 238.745 530.514 C 250.427 530.514 259.850 539.938 259.850 551.619 C 259.851 563.301 250.427 572.725 238.745 572.725 C 227.063 572.725 217.640 563.301 217.640 551.619 M 291.173 594.104 C 291.173 582.422 300.597 572.998 312.279 572.998 C 323.960 572.998 333.384 582.422 333.384 594.104 C 333.384 605.786 323.960 615.210 312.279 615.210 C 300.597 615.210 291.173 605.786 291.173 594.104 M 291.173 165.281 C 291.173 153.599 300.597 144.175 312.279 144.175 C 323.960 144.175 333.384 153.599 333.384 165.281 C 333.384 176.962 323.960 186.386 312.279 186.386 C 300.597 186.386 291.173 176.963 291.173 165.281 M 316.132 295.018 C 316.132 283.336 325.556 273.912 337.237 273.912 C 348.919 273.912 358.343 283.336 358.343 295.018 C 358.343 306.700 348.919 316.123 337.237 316.123 C 325.556 316.123 316.132 306.700 316.132 295.018 M 266.886 295.018 C 266.886 283.336 276.309 273.912 287.991 273.912 C 299.673 273.912 309.097 283.336 309.097 295.018 C 309.097 306.700 299.673 316.123 287.991 316.123 C 276.309 316.123 266.886 306.700 266.886 295.018 M 217.640 295.018 C 217.640 283.336 227.063 273.912 238.745 273.912 C 250.427 273.912 259.851 283.336 259.850 295.018 C 259.850 306.700 250.427 316.123 238.745 316.123 C 227.063 316.123 217.640 306.700 217.640 295.018 M 168.394 295.018 C 168.393 283.336 177.817 273.912 189.499 273.912 C 201.181 273.912 210.604 283.336 210.604 295.018 C 210.604 306.700 201.181 316.123 189.499 316.123 C 177.817 316.123 168.394 306.700 168.394 295.018 M 291.173 337.503 C 291.173 325.821 300.597 316.397 312.279 316.397 C 323.960 316.397 333.384 325.821 333.384 337.503 C 333.384 349.184 323.960 358.608 312.279 358.608 C 300.597 358.608 291.173 349.184 291.173 337.503 M 241.927 337.503 C 241.927 325.821 251.351 316.397 263.032 316.397 C 274.714 316.397 284.138 325.821 284.138 337.503 C 284.138 349.184 274.714 358.608 263.032 358.608 C 251.351 358.608 241.927 349.184 241.927 337.503 M 192.681 337.503 C 192.681 325.821 202.105 316.397 213.787 316.397 C 225.468 316.397 234.892 325.821 234.892 337.503 C 234.892 349.184 225.468 358.608 213.787 358.608 C 202.105 358.608 192.681 349.185 192.681 337.503 M 143.435 337.503 C 143.435 325.821 152.858 316.397 164.540 316.397 C 176.222 316.397 185.646 325.821 185.646 337.503 C 185.646 349.184 176.222 358.608 164.540 358.608 C 152.858 358.608 143.435 349.184 143.435 337.503 M 316.132 209.106 C 316.132 197.424 325.556 188.001 337.237 188.001 C 348.919 188.001 358.343 197.424 358.343 209.106 C 358.343 220.788 348.919 230.211 337.237 230.211 C 325.556 230.211 316.132 220.788 316.132 209.106 M 266.886 209.106 C 266.886 197.424 276.309 188.001 287.991 188.001 C 299.673 188.000 309.097 197.424 309.097 209.106 C 309.097 220.788 299.673 230.211 287.991 230.211 C 276.309 230.211 266.886 220.788 266.886 209.106 M 217.640 209.106 C 217.640 197.424 227.063 188.001 238.745 188.001 C 250.427 188.001 259.850 197.424 259.850 209.106 C 259.850 220.788 250.427 230.211 238.745 230.211 C 227.064 230.211 217.640 220.788 217.640 209.106 M 291.173 251.590 C 291.173 239.909 300.597 230.485 312.278 230.485 C 323.960 230.485 333.384 239.909 333.384 251.590 C 333.384 263.272 323.960 272.696 312.278 272.696 C 300.597 272.696 291.173 263.272 291.173 251.590 M 241.927 251.590 C 241.927 239.909 251.351 230.485 263.033 230.485 C 274.714 230.485 284.138 239.909 284.138 251.590 C 284.138 263.272 274.714 272.696 263.033 272.696 C 251.351 272.696 241.927 263.272 241.927 251.590 M 192.681 251.590 C 192.681 239.909 202.105 230.485 213.787 230.485 C 225.468 230.485 234.892 239.909 234.892 251.590 C 234.892 263.272 225.468 272.696 213.787 272.696 C 202.105 272.696 192.681 263.272 192.681 251.590 Z"/>
</g>
<g id="pomegranate">
<path fill="#ffffff" fill-rule="evenodd" stroke="#000000" stroke-width="4" stroke-linecap="round" stroke-linejoin="round" d="M 336.073 361.450 C 336.073 237.922 358.376 179.665 336.073 166.732 C 321.759 158.431 247.994 188.752 220.479 214.217 C 179.022 252.586 140.257 328.453 141.047 384.935 C 141.800 438.735 180.651 509.561 220.479 545.737 C 248.230 570.944 321.563 601.176 336.073 593.223 C 362.984 578.472 336.073 508.485 336.073 361.450 M 386.021 361.450 C 386.021 237.922 363.718 179.665 386.021 166.732 C 400.335 158.431 474.100 188.752 501.615 214.217 C 543.072 252.586 581.837 328.453 581.047 384.935 C 580.294 438.735 541.443 509.561 501.615 545.737 C 473.863 570.944 400.531 601.176 386.021 593.223 C 359.110 578.472 386.021 508.485 386.021 361.450 M 345.567 46.417 C 345.599 46.412 359.968 8.383 360.000 8.383 C 360.032 8.382 376.035 45.142 376.067 45.147 C 376.091 45.150 396.999 23.156 397.022 23.163 C 397.052 23.173 398.866 62.563 398.866 62.567 C 398.869 62.565 428.074 41.444 428.101 41.455 C 428.148 41.476 409.836 84.892 417.762 106.266 C 436.118 155.772 507.744 155.787 543.026 192.380 C 589.186 240.255 618.989 304.820 618.989 377.403 C 618.989 449.987 589.929 515.280 543.026 562.427 C 496.123 609.574 431.375 638.575 360.000 638.575 C 288.625 638.575 223.877 609.574 176.974 562.427 C 130.071 515.280 101.011 449.987 101.011 377.403 C 101.011 304.820 130.611 240.059 176.974 192.380 C 212.884 155.451 288.387 157.225 304.690 106.266 C 310.630 87.700 291.863 51.646 291.899 51.621 C 291.920 51.607 321.026 63.656 321.029 63.657 C 321.029 63.653 320.495 20.634 320.527 20.622 C 320.554 20.612 345.539 46.423 345.567 46.417 Z"/>
</g>
<g id="specs">
<path fill="#ff00ff" fill-rule="evenodd" stroke="none" d="M 183.756 555.781 C 183.791 555.781 536.209 555.781 536.245 555.781 C 536.245 555.746 536.245 203.328 536.245 203.293 C 536.209 203.293 183.791 203.293 183.756 203.293 C 183.756 203.328 183.756 555.746 183.756 555.781 Z"/>
<path fill="#ff0000" fill-rule="evenodd" stroke="none" d="M 360.000 644.474 C 360.001 644.477 372.432 679.283 372.433 679.287 C 372.432 679.285 360.001 667.720 360.000 667.718 C 359.999 667.720 347.568 679.285 347.567 679.287 C 347.568 679.283 359.999 644.477 360.000 644.474 Z"/>
<path fill="#0000ff" fill-rule="evenodd" stroke="none" d="M 360.000 -0.463 C 360.001 -0.461 367.221 19.757 367.222 19.759 C 367.221 19.759 360.001 13.041 360.000 13.040 C 359.999 13.041 352.779 19.759 352.778 19.759 C 352.779 19.757 359.999 -0.461 360.000 -0.463 Z"/>
<path fill="#00ff00" fill-rule="evenodd" stroke="none" d="M 89.083 377.855 C 89.085 377.854 105.121 372.036 105.123 372.035 C 105.122 372.036 99.813 377.800 99.812 377.801 C 99.813 377.801 105.180 383.512 105.181 383.512 C 105.179 383.512 89.085 377.855 89.083 377.855 Z"/>
<path fill="#ffff00" fill-rule="evenodd" stroke="none" d="M 168.102 570.544 C 168.103 570.543 175.223 555.041 175.224 555.039 C 175.224 555.040 175.599 562.868 175.599 562.869 C 175.600 562.869 183.434 563.059 183.435 563.059 C 183.434 563.060 168.104 570.544 168.102 570.544 Z"/>
<path fill="#ffff00" fill-rule="evenodd" stroke="none" d="M 553.166 570.355 C 553.165 570.353 545.736 554.997 545.735 554.995 C 545.735 554.996 545.517 562.830 545.517 562.831 C 545.516 562.831 537.687 563.178 537.686 563.178 C 537.688 563.179 553.164 570.354 553.166 570.355 Z"/>
<path fill="#00ff00" fill-rule="evenodd" stroke="none" d="M 631.963 377.855 C 631.961 377.854 615.925 372.036 615.923 372.035 C 615.924 372.036 621.233 377.800 621.234 377.801 C 621.233 377.801 615.866 383.512 615.866 383.512 C 615.867 383.512 631.961 377.855 631.963 377.855 Z"/>
<path fill="#00ffff" fill-rule="evenodd" stroke="none" d="M 551.895 184.536 C 551.894 184.537 546.199 200.618 546.199 200.620 C 546.199 200.619 545.120 192.857 545.120 192.856 C 545.119 192.856 537.299 193.372 537.298 193.372 C 537.300 193.371 551.893 184.537 551.895 184.536 Z"/>
<path fill="#00ffff" fill-rule="evenodd" stroke="none" d="M 168.409 185.069 C 168.409 185.071 175.164 200.736 175.165 200.737 C 175.165 200.737 175.723 192.919 175.723 192.918 C 175.724 192.918 183.561 192.912 183.562 192.912 C 183.560 192.912 168.410 185.070 168.409 185.069 Z"/>
<path fill="#be0027" fill-rule="evenodd" stroke="none" d="M 360.000 653.187 C 360.001 653.185 369.045 627.861 369.046 627.859 C 369.045 627.859 360.001 636.274 360.000 636.275 C 359.999 636.274 350.955 627.859 350.954 627.859 C 350.955 627.861 359.999 653.185 360.000 653.187 Z"/>
</g>
</g>
</svg>
