<?xml version="1.0" encoding="utf-8"?>
<!-- Generator: Moho 12.5 build 22414 -->
<!DOCTYPE svg PUBLIC "-//W3C//DTD SVG 1.1//EN" "http://www.w3.org/Graphics/SVG/1.1/DTD/svg11.dtd">
<svg version="1.1" id="Frame_0" xmlns="http://www.w3.org/2000/svg" xmlns:xlink="http://www.w3.org/1999/xlink" width="720px" height="720px">
<g id="poot">
<g id="poot_3">
<path fill="#ffffff" fill-rule="evenodd" stroke="none" d="M 371.712 363.671 C 325.876 354.658 301.469 331.874 283.629 304.403 C 265.282 312.292 238.848 314.093 217.911 302.671 C 189.193 287.004 168.755 252.347 167.929 221.578 C 166.767 178.297 202.271 142.263 230.156 131.147 C 289.638 107.436 325.543 135.612 344.320 153.617 C 377.341 185.282 377.208 219.558 377.563 241.571 C 378.293 286.797 379.280 310.779 393.604 335.734 C 401.212 348.989 424.340 366.394 424.343 366.397 C 424.338 366.396 388.154 366.905 371.712 363.671 Z"/>
<path fill="none" stroke="#000000" stroke-width="4" stroke-linejoin="round" d="M 371.712 363.671 C 325.876 354.658 301.469 331.874 283.629 304.403 C 265.282 312.292 238.848 314.093 217.911 302.671 C 189.193 287.004 168.755 252.347 167.929 221.578 C 166.767 178.297 202.271 142.263 230.156 131.147 C 289.638 107.436 325.543 135.612 344.320 153.617 C 377.341 185.282 377.208 219.558 377.563 241.571 C 378.293 286.797 379.280 310.779 393.604 335.734 C 401.212 348.989 424.340 366.394 424.343 366.397 C 424.338 366.396 388.154 366.905 371.712 363.671 M 299.044 178.745 C 350.752 208.857 346.464 277.386 283.629 304.403 M 219.418 234.286 C 206.483 191.094 262.918 157.706 299.044 178.745 M 276.565 254.828 C 255.768 274.233 226.458 257.795 219.418 234.286 M 267.007 215.695 C 284.265 215.454 295.295 237.352 276.565 254.828 M 262.278 231.143 C 253.336 230.372 255.288 215.858 267.007 215.695 "/>
<path fill="#ffffff" fill-rule="evenodd" stroke="none" d="M 311.563 400.087 C 265.110 422.953 228.286 419.280 194.099 407.063 C 183.233 426.347 161.149 445.702 135.020 449.709 C 99.181 455.205 57.875 438.401 36.465 411.840 C 6.348 374.480 13.416 318.858 30.518 290.319 C 66.999 229.441 117.581 230.138 146.231 233.384 C 196.616 239.093 219.537 269.390 234.647 288.550 C 265.690 327.916 282.680 348.387 312.077 360.751 C 327.691 367.319 359.772 367.111 359.777 367.111 C 359.772 367.115 328.226 391.884 311.563 400.087 Z"/>
<path fill="none" stroke="#000000" stroke-width="4" stroke-linejoin="round" d="M 311.563 400.087 C 265.110 422.953 228.286 419.280 194.099 407.063 C 183.233 426.347 161.149 445.702 135.020 449.709 C 99.181 455.205 57.875 438.401 36.465 411.840 C 6.348 374.480 13.416 318.858 30.518 290.319 C 66.999 229.441 117.581 230.138 146.231 233.384 C 196.616 239.093 219.537 269.390 234.647 288.550 C 265.690 327.916 282.680 348.387 312.077 360.751 C 327.691 367.319 359.772 367.111 359.777 367.111 C 359.772 367.115 328.226 391.884 311.563 400.087 M 123.221 285.961 C 189.030 277.742 231.314 341.017 194.099 407.063 M 90.382 388.430 C 49.950 359.062 77.242 291.704 123.221 285.961 M 154.552 368.120 C 149.268 399.201 112.389 404.416 90.382 388.430 M 119.824 340.059 C 134.871 328.247 159.311 340.130 154.552 368.120 M 126.041 356.852 C 117.643 362.183 109.607 348.080 119.824 340.059 "/>
<path fill="#ffffff" fill-rule="evenodd" stroke="none" d="M 411.119 500.534 C 372.002 533.541 335.798 538.793 300.088 535.219 C 294.259 556.309 277.684 580.142 253.571 590.213 C 220.497 604.027 176.863 597.749 149.992 577.368 C 112.196 548.701 105.721 493.654 115.328 462.198 C 135.820 395.098 184.514 383.712 212.774 379.999 C 262.474 373.469 291.685 397.074 310.747 411.856 C 349.910 442.225 371.089 457.816 402.239 462.673 C 418.784 465.252 449.513 457.408 449.518 457.408 C 449.514 457.412 425.152 488.693 411.119 500.534 Z"/>
<path fill="none" stroke="#000000" stroke-width="4" stroke-linejoin="round" d="M 411.119 500.534 C 372.002 533.541 335.798 538.793 300.088 535.219 C 294.259 556.309 277.684 580.142 253.571 590.213 C 220.497 604.027 176.863 597.749 149.992 577.368 C 112.196 548.701 105.721 493.654 115.328 462.198 C 135.820 395.098 184.514 383.712 212.774 379.999 C 262.474 373.469 291.685 397.074 310.747 411.856 C 349.910 442.225 371.089 457.816 402.239 462.673 C 418.784 465.252 449.513 457.408 449.518 457.408 C 449.514 457.412 425.152 488.693 411.119 500.534 M 203.228 435.926 C 264.406 412.357 320.052 462.986 300.088 535.219 M 196.142 542.060 C 150.353 523.519 160.485 452.392 203.228 435.926 M 252.866 507.282 C 255.203 538.360 221.065 552.151 196.142 542.060 M 212.861 488.635 C 224.482 473.717 250.762 479.294 252.866 507.282 M 222.827 503.266 C 216.040 510.382 204.969 498.766 212.861 488.635 "/>
<path fill="#ffffff" fill-rule="evenodd" stroke="none" d="M 425.103 404.405 C 385.019 431.005 350.648 432.003 317.692 424.814 C 309.974 443.878 291.928 464.342 268.327 471.145 C 235.956 480.475 195.892 469.907 173.001 447.980 C 140.803 417.137 140.695 365.042 153.057 336.708 C 179.428 276.267 226.121 270.888 252.908 270.469 C 300.017 269.733 324.745 294.923 340.949 310.780 C 374.241 343.360 392.334 360.202 420.895 368.096 C 436.064 372.289 465.602 368.279 465.606 368.279 C 465.602 368.283 439.481 394.863 425.103 404.405 Z"/>
<path fill="none" stroke="#000000" stroke-width="4" stroke-linejoin="round" d="M 425.103 404.405 C 385.019 431.005 350.648 432.003 317.692 424.814 C 309.974 443.878 291.928 464.342 268.327 471.145 C 235.956 480.475 195.892 469.907 173.001 447.980 C 140.803 417.137 140.695 365.042 153.057 336.708 C 179.428 276.267 226.121 270.888 252.908 270.469 C 300.017 269.733 324.745 294.923 340.949 310.780 C 374.241 343.360 392.334 360.202 420.895 368.096 C 436.064 372.289 465.602 368.279 465.606 368.279 C 465.602 368.283 439.481 394.863 425.103 404.405 M 237.963 321.657 C 297.627 306.249 344.123 359.524 317.692 424.814 M 219.900 419.990 C 179.147 397.740 196.278 332.422 237.963 321.657 M 276.614 393.637 C 275.444 422.906 242.081 432.101 219.900 419.990 M 241.273 371.912 C 253.732 359.236 277.668 367.278 276.614 393.637 M 249.000 386.647 C 241.896 392.559 232.812 380.519 241.273 371.912 "/>
<path fill="#ffffff" fill-rule="evenodd" stroke="none" d="M 521.447 418.667 C 473.267 416.287 442.713 406.795 417.270 384.507 C 403.126 397.312 379.789 407.116 357.330 403.267 C 326.526 397.987 297.332 372.980 287.069 345.422 C 272.633 306.659 293.582 263.105 315.350 244.433 C 361.784 204.603 402.577 219.821 425.496 229.436 C 465.820 246.352 472.960 269.208 487.678 294.323 C 514.695 340.422 541.835 355.786 571.959 373.124 C 596.862 387.457 641.985 400.639 641.992 400.642 C 641.980 400.643 592.435 422.173 521.447 418.667 Z"/>
<path fill="none" stroke="#000000" stroke-width="4" stroke-linejoin="round" d="M 506.518 378.009 C 466.192 362.340 443.239 343.869 443.232 343.865 M 642.064 400.238 C 642.050 400.236 575.166 404.682 506.518 378.009 M 521.447 418.667 C 473.267 416.287 442.713 406.795 417.270 384.507 C 403.126 397.312 379.789 407.116 357.330 403.267 C 326.526 397.987 297.332 372.980 287.069 345.422 C 272.633 306.659 293.582 263.105 315.350 244.433 C 361.784 204.603 402.577 219.821 425.496 229.436 C 465.820 246.352 472.960 269.208 487.678 294.323 C 514.695 340.422 541.835 355.786 571.959 373.124 C 596.862 387.457 641.985 400.639 641.992 400.642 C 641.980 400.643 592.435 422.173 521.447 418.667 M 392.341 266.152 C 448.395 277.379 465.713 340.651 417.270 384.507 M 337.542 340.985 C 312.491 305.944 353.178 258.308 392.341 266.152 M 395.553 341.878 C 382.755 365.851 351.178 360.058 337.542 340.985 M 374.810 309.461 C 390.335 303.906 407.078 320.289 395.553 341.878 M 375.313 324.889 C 366.991 326.957 364.267 313.233 374.810 309.461 "/>
<path fill="#ffffff" fill-rule="evenodd" stroke="none" d="M 566.951 461.562 C 525.061 485.456 496.553 492.076 457.302 496.405 C 457.500 515.484 449.354 539.450 431.574 553.701 C 407.187 573.248 369.109 578.503 341.680 567.900 C 303.098 552.987 284.406 508.417 284.875 479.742 C 285.877 418.574 323.937 397.297 346.725 387.375 C 386.799 369.926 417.134 382.258 436.502 390.458 C 480.471 409.076 503.277 416.873 533.646 417.486 C 589.668 418.618 642.454 400.418 642.465 400.416 C 642.457 400.422 626.892 427.373 566.951 461.562 Z"/>
<path fill="none" stroke="#000000" stroke-width="4" stroke-linejoin="round" d="M 532.180 445.358 C 480.434 457.086 444.123 450.016 444.115 450.017 M 640.865 401.638 C 640.854 401.642 602.504 429.419 532.180 445.358 M 566.951 461.562 C 525.061 485.456 496.553 492.076 457.302 496.405 C 457.500 515.484 449.354 539.450 431.574 553.701 C 407.187 573.248 369.109 578.503 341.680 567.900 C 303.098 552.987 284.406 508.417 284.875 479.742 C 285.877 418.574 323.937 397.297 346.725 387.375 C 386.799 369.926 417.134 382.258 436.502 390.458 C 480.471 409.076 503.277 416.873 533.646 417.486 C 589.668 418.618 642.454 400.418 642.465 400.416 C 642.457 400.422 626.892 427.373 566.951 461.562 M 352.203 436.542 C 397.790 402.047 456.623 431.063 457.302 496.405 M 371.844 527.189 C 329.005 522.688 320.353 460.642 352.203 436.542 M 410.996 484.375 C 420.445 509.855 395.161 529.640 371.844 527.189 M 372.979 478.390 C 379.121 463.088 402.488 461.428 410.996 484.375 M 384.857 488.248 C 380.884 495.847 368.808 488.782 372.979 478.390 "/>
</g>
<g id="specs_3">
<path fill="#ff0000" fill-rule="evenodd" stroke="none" d="M 687.217 399.474 C 687.220 399.473 716.919 388.866 716.922 388.865 C 716.921 388.866 707.052 399.473 707.051 399.474 C 707.052 399.475 716.921 410.081 716.922 410.082 C 716.919 410.081 687.220 399.475 687.217 399.474 Z"/>
<path fill="#0000ff" fill-rule="evenodd" stroke="none" d="M 5.321 345.154 C 5.323 345.154 22.574 338.993 22.576 338.992 C 22.575 338.993 16.843 345.154 16.843 345.154 C 16.843 345.155 22.575 351.316 22.576 351.316 C 22.574 351.316 5.323 345.155 5.321 345.154 Z"/>
<path fill="#00ff00" fill-rule="evenodd" stroke="none" d="M 272.298 584.893 C 272.297 584.891 266.921 570.072 266.920 570.071 C 266.921 570.071 272.247 574.978 272.248 574.978 C 272.248 574.978 277.525 570.018 277.526 570.017 C 277.525 570.019 272.298 584.891 272.298 584.893 Z"/>
<path fill="#ffff00" fill-rule="evenodd" stroke="none" d="M 443.027 554.874 C 443.026 554.873 430.293 549.025 430.292 549.024 C 430.293 549.024 436.722 548.716 436.723 548.716 C 436.723 548.716 436.879 542.281 436.879 542.280 C 436.880 542.281 443.027 554.872 443.027 554.874 Z"/>
<path fill="#ffff00" fill-rule="evenodd" stroke="none" d="M 442.871 229.422 C 442.870 229.423 430.257 235.525 430.255 235.526 C 430.256 235.526 436.691 235.705 436.692 235.705 C 436.692 235.706 436.977 242.136 436.977 242.137 C 436.978 242.136 442.871 229.423 442.871 229.422 Z"/>
<path fill="#00ff00" fill-rule="evenodd" stroke="none" d="M 272.297 113.362 C 272.297 113.363 266.920 128.182 266.920 128.183 C 266.920 128.183 272.247 123.276 272.248 123.276 C 272.248 123.276 277.525 128.236 277.525 128.236 C 277.525 128.235 272.298 113.363 272.297 113.362 Z"/>
<path fill="#00ffff" fill-rule="evenodd" stroke="none" d="M 82.544 231.787 C 82.546 231.787 98.711 237.512 98.712 237.513 C 98.712 237.513 90.909 238.597 90.908 238.597 C 90.908 238.598 91.426 246.459 91.426 246.460 C 91.426 246.459 82.545 231.788 82.544 231.787 Z"/>
<path fill="#00ffff" fill-rule="evenodd" stroke="none" d="M 123.440 561.692 C 123.441 561.692 139.189 554.901 139.191 554.900 C 139.190 554.900 131.331 554.339 131.330 554.339 C 131.330 554.339 131.325 546.460 131.325 546.460 C 131.324 546.461 123.440 561.691 123.440 561.692 Z"/>
<path fill="#be0027" fill-rule="evenodd" stroke="none" d="M 658.542 402.987 C 658.539 402.986 628.840 392.379 628.837 392.378 C 628.838 392.379 638.707 402.986 638.708 402.987 C 638.707 402.988 628.838 413.594 628.837 413.596 C 628.840 413.594 658.539 402.988 658.542 402.987 Z"/>
</g>
</g>
</svg>
