<?xml version="1.0" encoding="utf-8"?>
<!-- Generator: Moho 12.5 build 22414 -->
<!DOCTYPE svg PUBLIC "-//W3C//DTD SVG 1.1//EN" "http://www.w3.org/Graphics/SVG/1.1/DTD/svg11.dtd">
<svg version="1.1" id="Frame_0" xmlns="http://www.w3.org/2000/svg" xmlns:xlink="http://www.w3.org/1999/xlink" width="720px" height="720px">
<g id="poot">
<g id="poot_3">
<path fill="#ffffff" fill-rule="evenodd" stroke="none" d="M 384.399 363.671 C 338.564 354.658 314.156 331.874 296.316 304.403 C 277.969 312.292 251.536 314.093 230.598 302.671 C 201.881 287.004 181.443 252.347 180.617 221.578 C 179.455 178.297 214.959 142.263 242.843 131.147 C 302.325 107.436 338.230 135.612 357.007 153.617 C 390.029 185.282 389.895 219.558 390.251 241.571 C 390.981 286.797 391.967 310.779 406.291 335.734 C 413.899 348.989 437.027 366.394 437.030 366.397 C 437.025 366.396 400.841 366.905 384.399 363.671 Z"/>
<path fill="none" stroke="#000000" stroke-width="4" stroke-linejoin="round" d="M 384.399 363.671 C 338.564 354.658 314.156 331.874 296.316 304.403 C 277.969 312.292 251.536 314.093 230.598 302.671 C 201.881 287.004 181.443 252.347 180.617 221.578 C 179.455 178.297 214.959 142.263 242.843 131.147 C 302.325 107.436 338.230 135.612 357.007 153.617 C 390.029 185.282 389.895 219.558 390.251 241.571 C 390.981 286.797 391.967 310.779 406.291 335.734 C 413.899 348.989 437.027 366.394 437.030 366.397 C 437.025 366.396 400.841 366.905 384.399 363.671 M 311.731 178.745 C 363.439 208.857 359.151 277.386 296.316 304.403 M 232.105 234.286 C 219.170 191.094 275.605 157.706 311.731 178.745 M 289.253 254.828 C 268.456 274.233 239.146 257.795 232.105 234.286 M 279.695 215.695 C 296.953 215.454 307.983 237.352 289.253 254.828 M 274.965 231.143 C 266.023 230.372 267.976 215.858 279.695 215.695 "/>
<path fill="#ffffff" fill-rule="evenodd" stroke="none" d="M 324.250 400.087 C 277.798 422.953 240.974 419.280 206.787 407.063 C 195.921 426.347 173.837 445.702 147.707 449.709 C 111.869 455.205 70.562 438.401 49.152 411.840 C 19.036 374.480 26.103 318.858 43.206 290.319 C 79.687 229.441 130.268 230.138 158.918 233.384 C 209.303 239.093 232.225 269.390 247.335 288.550 C 278.377 327.916 295.367 348.387 324.765 360.751 C 340.379 367.319 372.460 367.111 372.464 367.111 C 372.460 367.115 340.914 391.884 324.250 400.087 Z"/>
<path fill="none" stroke="#000000" stroke-width="4" stroke-linejoin="round" d="M 324.250 400.087 C 277.798 422.953 240.974 419.280 206.787 407.063 C 195.921 426.347 173.837 445.702 147.707 449.709 C 111.869 455.205 70.562 438.401 49.152 411.840 C 19.036 374.480 26.103 318.858 43.206 290.319 C 79.687 229.441 130.268 230.138 158.918 233.384 C 209.303 239.093 232.225 269.390 247.335 288.550 C 278.377 327.916 295.367 348.387 324.765 360.751 C 340.379 367.319 372.460 367.111 372.464 367.111 C 372.460 367.115 340.914 391.884 324.250 400.087 M 135.908 285.961 C 201.718 277.742 244.002 341.017 206.787 407.063 M 103.069 388.430 C 62.638 359.062 89.930 291.704 135.908 285.961 M 167.239 368.120 C 161.955 399.201 125.076 404.416 103.069 388.430 M 132.512 340.059 C 147.558 328.247 171.998 340.130 167.239 368.120 M 138.728 356.852 C 130.330 362.183 122.294 348.080 132.512 340.059 "/>
<path fill="#ffffff" fill-rule="evenodd" stroke="none" d="M 423.807 500.534 C 384.690 533.541 348.485 538.793 312.775 535.219 C 306.946 556.309 290.372 580.142 266.258 590.213 C 233.184 604.027 189.550 597.749 162.680 577.368 C 124.883 548.701 118.409 493.654 128.016 462.198 C 148.508 395.098 197.201 383.712 225.462 379.999 C 275.161 373.469 304.372 397.074 323.434 411.856 C 362.598 442.225 383.777 457.816 414.927 462.673 C 431.472 465.252 462.201 457.408 462.206 457.408 C 462.202 457.412 437.839 488.693 423.807 500.534 Z"/>
<path fill="none" stroke="#000000" stroke-width="4" stroke-linejoin="round" d="M 423.807 500.534 C 384.690 533.541 348.485 538.793 312.775 535.219 C 306.946 556.309 290.372 580.142 266.258 590.213 C 233.184 604.027 189.550 597.749 162.680 577.368 C 124.883 548.701 118.409 493.654 128.016 462.198 C 148.508 395.098 197.201 383.712 225.462 379.999 C 275.161 373.469 304.372 397.074 323.434 411.856 C 362.598 442.225 383.777 457.816 414.927 462.673 C 431.472 465.252 462.201 457.408 462.206 457.408 C 462.202 457.412 437.839 488.693 423.807 500.534 M 215.916 435.926 C 277.094 412.357 332.740 462.986 312.775 535.219 M 208.829 542.060 C 163.041 523.519 173.173 452.392 215.916 435.926 M 265.554 507.282 C 267.890 538.360 233.752 552.151 208.829 542.060 M 225.549 488.635 C 237.170 473.717 263.449 479.294 265.554 507.282 M 235.515 503.266 C 228.727 510.382 217.657 498.766 225.549 488.635 "/>
<path fill="#ffffff" fill-rule="evenodd" stroke="none" d="M 437.790 404.405 C 397.707 431.005 363.336 432.003 330.379 424.814 C 322.662 443.878 304.615 464.342 281.014 471.145 C 248.643 480.475 208.580 469.907 185.689 447.980 C 153.490 417.137 153.382 365.042 165.745 336.708 C 192.116 276.267 238.809 270.888 265.596 270.469 C 312.704 269.733 337.433 294.923 353.637 310.780 C 386.928 343.360 405.021 360.202 433.582 368.096 C 448.752 372.289 478.290 368.279 478.294 368.279 C 478.290 368.283 452.169 394.863 437.790 404.405 Z"/>
<path fill="none" stroke="#000000" stroke-width="4" stroke-linejoin="round" d="M 437.790 404.405 C 397.707 431.005 363.336 432.003 330.379 424.814 C 322.662 443.878 304.615 464.342 281.014 471.145 C 248.643 480.475 208.580 469.907 185.689 447.980 C 153.490 417.137 153.382 365.042 165.745 336.708 C 192.116 276.267 238.809 270.888 265.596 270.469 C 312.704 269.733 337.433 294.923 353.637 310.780 C 386.928 343.360 405.021 360.202 433.582 368.096 C 448.752 372.289 478.290 368.279 478.294 368.279 C 478.290 368.283 452.169 394.863 437.790 404.405 M 250.651 321.657 C 310.315 306.249 356.811 359.524 330.379 424.814 M 232.587 419.990 C 191.834 397.740 208.966 332.422 250.651 321.657 M 289.301 393.637 C 288.131 422.906 254.769 432.101 232.587 419.990 M 253.961 371.912 C 266.420 359.236 290.355 367.278 289.301 393.637 M 261.688 386.647 C 254.583 392.559 245.500 380.519 253.961 371.912 "/>
<path fill="#ffffff" fill-rule="evenodd" stroke="none" d="M 534.135 418.667 C 485.954 416.287 455.401 406.795 429.957 384.507 C 415.813 397.312 392.476 407.116 370.017 403.267 C 339.213 397.987 310.020 372.980 299.757 345.422 C 285.321 306.659 306.270 263.105 328.038 244.433 C 374.472 204.603 415.265 219.821 438.184 229.436 C 478.508 246.352 485.647 269.208 500.366 294.323 C 527.383 340.422 554.523 355.786 584.647 373.124 C 609.550 387.457 654.672 400.639 654.679 400.642 C 654.667 400.643 605.122 422.173 534.135 418.667 Z"/>
<path fill="none" stroke="#000000" stroke-width="4" stroke-linejoin="round" d="M 519.206 378.009 C 478.879 362.340 455.926 343.869 455.920 343.865 M 654.752 400.238 C 654.738 400.236 587.854 404.682 519.206 378.009 M 534.135 418.667 C 485.954 416.287 455.401 406.795 429.957 384.507 C 415.813 397.312 392.476 407.116 370.017 403.267 C 339.213 397.987 310.020 372.980 299.757 345.422 C 285.321 306.659 306.270 263.105 328.038 244.433 C 374.472 204.603 415.265 219.821 438.184 229.436 C 478.508 246.352 485.647 269.208 500.366 294.323 C 527.383 340.422 554.523 355.786 584.647 373.124 C 609.550 387.457 654.672 400.639 654.679 400.642 C 654.667 400.643 605.122 422.173 534.135 418.667 M 405.028 266.152 C 461.082 277.379 478.400 340.651 429.957 384.507 M 350.230 340.985 C 325.179 305.944 365.866 258.308 405.028 266.152 M 408.241 341.878 C 395.443 365.851 363.865 360.058 350.230 340.985 M 387.497 309.461 C 403.022 303.906 419.766 320.289 408.241 341.878 M 388.000 324.889 C 379.679 326.957 376.955 313.233 387.497 309.461 "/>
<path fill="#ffffff" fill-rule="evenodd" stroke="none" d="M 579.639 461.562 C 537.748 485.456 509.241 492.076 469.989 496.405 C 470.187 515.484 462.041 539.450 444.261 553.701 C 419.875 573.248 381.797 578.503 354.368 567.900 C 315.785 552.987 297.093 508.417 297.563 479.742 C 298.564 418.574 336.625 397.297 359.412 387.375 C 399.486 369.926 429.821 382.258 449.190 390.458 C 493.158 409.076 515.965 416.873 546.333 417.486 C 602.356 418.618 655.141 400.418 655.152 400.416 C 655.145 400.422 639.579 427.373 579.639 461.562 Z"/>
<path fill="none" stroke="#000000" stroke-width="4" stroke-linejoin="round" d="M 544.867 445.358 C 493.121 457.086 456.811 450.016 456.802 450.017 M 653.553 401.638 C 653.542 401.642 615.192 429.419 544.867 445.358 M 579.639 461.562 C 537.748 485.456 509.241 492.076 469.989 496.405 C 470.187 515.484 462.041 539.450 444.261 553.701 C 419.875 573.248 381.797 578.503 354.368 567.900 C 315.785 552.987 297.093 508.417 297.563 479.742 C 298.564 418.574 336.625 397.297 359.412 387.375 C 399.486 369.926 429.821 382.258 449.190 390.458 C 493.158 409.076 515.965 416.873 546.333 417.486 C 602.356 418.618 655.141 400.418 655.152 400.416 C 655.145 400.422 639.579 427.373 579.639 461.562 M 364.891 436.542 C 410.478 402.047 469.311 431.063 469.989 496.405 M 384.531 527.189 C 341.692 522.688 333.041 460.642 364.891 436.542 M 423.684 484.375 C 433.132 509.855 407.849 529.640 384.531 527.189 M 385.667 478.390 C 391.809 463.088 415.175 461.428 423.684 484.375 M 397.544 488.248 C 393.572 495.847 381.496 488.782 385.667 478.390 "/>
</g>
<g id="specs_3">
<path fill="#ff0000" fill-rule="evenodd" stroke="none" d="M 679.475 399.474 C 679.478 399.473 709.177 388.866 709.180 388.865 C 709.179 388.866 699.310 399.473 699.309 399.474 C 699.310 399.475 709.179 410.081 709.180 410.082 C 709.177 410.081 679.478 399.475 679.475 399.474 Z"/>
<path fill="#0000ff" fill-rule="evenodd" stroke="none" d="M 18.009 345.154 C 18.011 345.154 35.262 338.993 35.263 338.992 C 35.263 338.993 29.531 345.154 29.530 345.154 C 29.531 345.155 35.263 351.316 35.263 351.316 C 35.262 351.316 18.011 345.155 18.009 345.154 Z"/>
<path fill="#00ff00" fill-rule="evenodd" stroke="none" d="M 284.985 584.893 C 284.985 584.891 279.608 570.072 279.608 570.071 C 279.608 570.071 284.935 574.978 284.935 574.978 C 284.936 574.978 290.213 570.018 290.213 570.017 C 290.213 570.019 284.986 584.891 284.985 584.893 Z"/>
<path fill="#ffff00" fill-rule="evenodd" stroke="none" d="M 455.715 554.874 C 455.714 554.873 442.981 549.025 442.980 549.024 C 442.980 549.024 449.410 548.716 449.411 548.716 C 449.411 548.716 449.566 542.281 449.566 542.280 C 449.567 542.281 455.714 554.872 455.715 554.874 Z"/>
<path fill="#ffff00" fill-rule="evenodd" stroke="none" d="M 455.559 229.422 C 455.558 229.423 442.944 235.525 442.943 235.526 C 442.943 235.526 449.379 235.705 449.379 235.705 C 449.379 235.706 449.665 242.136 449.665 242.137 C 449.665 242.136 455.558 229.423 455.559 229.422 Z"/>
<path fill="#00ff00" fill-rule="evenodd" stroke="none" d="M 284.985 113.362 C 284.984 113.363 279.608 128.182 279.607 128.183 C 279.608 128.183 284.935 123.276 284.935 123.276 C 284.936 123.276 290.212 128.236 290.213 128.236 C 290.212 128.235 284.986 113.363 284.985 113.362 Z"/>
<path fill="#00ffff" fill-rule="evenodd" stroke="none" d="M 95.232 231.787 C 95.233 231.787 111.398 237.512 111.400 237.513 C 111.399 237.513 103.596 238.597 103.595 238.597 C 103.595 238.598 104.114 246.459 104.114 246.460 C 104.113 246.459 95.233 231.788 95.232 231.787 Z"/>
<path fill="#00ffff" fill-rule="evenodd" stroke="none" d="M 136.127 561.692 C 136.129 561.692 151.877 554.901 151.878 554.900 C 151.878 554.900 144.019 554.339 144.018 554.339 C 144.018 554.339 144.012 546.460 144.012 546.460 C 144.011 546.461 136.128 561.691 136.127 561.692 Z"/>
<path fill="#be0027" fill-rule="evenodd" stroke="none" d="M 650.800 402.987 C 650.797 402.986 621.098 392.379 621.095 392.378 C 621.096 392.379 630.965 402.986 630.966 402.987 C 630.965 402.988 621.096 413.594 621.095 413.596 C 621.098 413.594 650.797 402.988 650.800 402.987 Z"/>
</g>
</g>
</svg>
