<?xml version="1.0" encoding="utf-8"?>
<!-- Generator: Moho 12.5 build 22414 -->
<!DOCTYPE svg PUBLIC "-//W3C//DTD SVG 1.1//EN" "http://www.w3.org/Graphics/SVG/1.1/DTD/svg11.dtd">
<svg version="1.1" id="Frame_0" xmlns="http://www.w3.org/2000/svg" xmlns:xlink="http://www.w3.org/1999/xlink" width="720px" height="720px">
<g id="poot">
<g id="poot_2">
<path fill="#ffffff" fill-rule="evenodd" stroke="none" d="M 288.534 271.181 C 256.088 271.691 236.208 259.743 220.112 243.661 C 208.788 251.676 191.090 256.726 175.211 251.995 C 153.433 245.507 134.531 224.919 129.517 204.133 C 122.464 174.896 141.370 145.275 158.707 133.687 C 195.688 108.969 224.160 122.916 239.523 132.432 C 266.541 149.166 271.411 172.473 274.838 187.378 C 281.880 217.999 286.021 234.150 299.365 249.032 C 306.452 256.936 324.685 265.414 324.687 265.415 C 324.684 265.416 300.173 270.998 288.534 271.181 Z"/>
<path fill="none" stroke="#000000" stroke-width="4" stroke-linejoin="round" d="M 288.534 271.181 C 256.088 271.691 236.208 259.743 220.112 243.661 C 208.788 251.676 191.090 256.726 175.211 251.995 C 153.433 245.507 134.531 224.919 129.517 204.133 C 122.464 174.896 141.370 145.275 158.707 133.687 C 195.688 108.969 224.160 122.916 239.523 132.432 C 266.541 149.166 271.411 172.473 274.838 187.378 C 281.880 217.999 286.021 234.150 299.365 249.032 C 306.452 256.936 324.685 265.414 324.687 265.415 C 324.684 265.416 300.173 270.998 288.534 271.181 M 212.399 156.056 C 251.888 169.031 258.893 216.211 220.112 243.661 M 166.339 205.316 C 151.299 177.843 184.810 146.991 212.399 156.056 M 208.138 211.001 C 196.817 227.195 174.525 220.269 166.339 205.316 M 195.981 185.797 C 207.671 183.136 218.334 196.417 208.138 211.001 M 195.003 196.978 C 188.816 197.748 188.042 187.604 195.981 185.797 "/>
<path fill="#ffffff" fill-rule="evenodd" stroke="none" d="M 409.777 360.991 C 366.681 349.393 344.913 326.076 329.711 298.723 C 311.707 305.038 286.394 305.021 267.187 292.760 C 240.844 275.944 223.637 241.571 224.869 212.190 C 226.601 170.862 262.804 138.845 290.111 130.080 C 348.360 111.382 380.734 140.593 397.449 158.986 C 426.846 191.333 424.470 223.994 423.364 244.998 C 421.093 288.152 420.461 311.075 432.476 335.800 C 438.857 348.932 459.759 367.038 459.762 367.041 C 459.757 367.041 425.236 365.152 409.777 360.991 Z"/>
<path fill="none" stroke="#000000" stroke-width="4" stroke-linejoin="round" d="M 409.777 360.991 C 366.681 349.393 344.913 326.076 329.711 298.723 C 311.707 305.038 286.394 305.021 267.187 292.760 C 240.844 275.944 223.637 241.571 224.869 212.190 C 226.601 170.862 262.804 138.845 290.111 130.080 C 348.360 111.382 380.734 140.593 397.449 158.986 C 426.846 191.333 424.470 223.994 423.364 244.998 C 421.093 288.152 420.461 311.075 432.476 335.800 C 438.857 348.932 459.759 367.038 459.762 367.041 C 459.757 367.041 425.236 365.152 409.777 360.991 M 352.647 179.966 C 399.956 212.059 391.373 277.094 329.711 298.723 M 273.110 227.680 C 263.615 185.664 319.595 157.544 352.647 179.966 M 326.231 251.008 C 305.136 268.139 278.279 250.549 273.110 227.680 M 319.689 213.082 C 336.153 213.985 345.229 235.580 326.231 251.008 M 314.167 227.497 C 305.695 226.175 308.508 212.469 319.689 213.082 "/>
<path fill="#ffffff" fill-rule="evenodd" stroke="none" d="M 218.623 385.270 C 194.870 410.081 171.085 416.163 147.002 416.320 C 144.613 430.808 135.250 447.891 119.876 456.328 C 98.790 467.901 69.227 466.818 49.846 455.132 C 22.583 438.693 14.344 402.422 18.515 380.748 C 27.412 334.514 59.094 323.450 77.687 318.960 C 110.386 311.065 131.559 324.736 145.331 333.242 C 173.627 350.719 188.869 359.615 210.001 360.638 C 221.225 361.182 241.171 353.760 241.175 353.759 C 241.172 353.762 227.143 376.370 218.623 385.270 Z"/>
<path fill="none" stroke="#000000" stroke-width="4" stroke-linejoin="round" d="M 218.623 385.270 C 194.870 410.081 171.085 416.163 147.002 416.320 C 144.613 430.808 135.250 447.891 119.876 456.328 C 98.790 467.901 69.227 466.818 49.846 455.132 C 22.583 438.693 14.344 402.422 18.515 380.748 C 27.412 334.514 59.094 323.450 77.687 318.960 C 110.386 311.065 131.559 324.736 145.331 333.242 C 173.627 350.719 188.869 359.615 210.001 360.638 C 221.225 361.182 241.171 353.760 241.175 353.759 C 241.172 353.762 227.143 376.370 218.623 385.270 M 75.299 356.958 C 114.445 336.876 155.181 366.698 147.002 416.320 M 78.127 428.285 C 46.252 419.173 47.949 370.989 75.299 356.958 M 113.502 401.040 C 117.274 421.611 95.476 433.245 78.127 428.285 M 85.480 391.446 C 92.172 380.664 110.105 382.514 113.502 401.040 M 93.172 400.499 C 89.150 405.730 80.936 398.767 85.480 391.446 "/>
<path fill="#ffffff" fill-rule="evenodd" stroke="none" d="M 308.938 354.605 C 269.540 370.740 239.538 365.647 212.182 353.694 C 202.179 368.901 182.969 383.532 161.308 385.344 C 131.597 387.829 98.660 371.711 82.595 348.713 C 59.999 316.363 68.938 271.133 84.579 248.686 C 117.944 200.804 159.400 204.232 182.720 208.513 C 223.731 216.041 240.824 242.190 252.138 258.762 C 275.381 292.808 288.163 310.561 311.581 322.364 C 324.020 328.633 350.349 330.274 350.353 330.275 C 350.349 330.278 323.071 348.816 308.938 354.605 Z"/>
<path fill="none" stroke="#000000" stroke-width="4" stroke-linejoin="round" d="M 308.938 354.605 C 269.540 370.740 239.538 365.647 212.182 353.694 C 202.179 368.901 182.969 383.532 161.308 385.344 C 131.597 387.829 98.660 371.711 82.595 348.713 C 59.999 316.363 68.938 271.133 84.579 248.686 C 117.944 200.804 159.400 204.232 182.720 208.513 C 223.731 216.041 240.824 242.190 252.138 258.762 C 275.381 292.808 288.163 310.561 311.581 322.364 C 324.020 328.633 350.349 330.274 350.353 330.275 C 350.349 330.278 323.071 348.816 308.938 354.605 M 160.874 250.346 C 215.326 247.318 246.441 301.615 212.182 353.694 M 128.149 332.553 C 96.639 306.177 122.831 252.460 160.874 250.346 M 181.938 319.514 C 175.848 344.713 145.300 346.909 128.149 332.553 M 155.034 294.533 C 168.044 285.693 187.422 296.821 181.938 319.514 M 159.185 308.661 C 151.994 312.560 146.199 300.536 155.034 294.533 "/>
<path fill="#ffffff" fill-rule="evenodd" stroke="none" d="M 401.938 467.176 C 362.835 495.817 328.288 498.425 294.783 492.726 C 287.904 512.272 270.695 533.711 247.258 541.658 C 215.113 552.558 174.297 543.789 150.235 522.787 C 116.390 493.245 113.853 440.817 124.975 411.723 C 148.699 349.661 195.444 342.070 222.385 340.400 C 269.764 337.463 295.827 361.664 312.875 376.869 C 347.901 408.108 366.896 424.215 396.010 430.829 C 411.474 434.342 441.016 428.929 441.020 428.929 C 441.016 428.933 415.965 456.902 401.938 467.176 Z"/>
<path fill="none" stroke="#000000" stroke-width="4" stroke-linejoin="round" d="M 401.938 467.176 C 362.835 495.817 328.288 498.425 294.783 492.726 C 287.904 512.272 270.695 533.711 247.258 541.658 C 215.113 552.558 174.297 543.789 150.235 522.787 C 116.390 493.245 113.853 440.817 124.975 411.723 C 148.699 349.661 195.444 342.070 222.385 340.400 C 269.764 337.463 295.827 361.664 312.875 376.869 C 347.901 408.108 366.896 424.215 396.010 430.829 C 411.474 434.342 441.016 428.929 441.020 428.929 C 441.016 428.933 415.965 456.902 401.938 467.176 M 209.729 392.617 C 269.061 374.329 318.342 425.781 294.783 492.726 M 196.132 492.429 C 154.078 471.935 168.276 405.395 209.729 392.617 M 251.986 463.261 C 252.173 492.774 219.023 503.584 196.132 492.429 M 215.402 443.042 C 227.352 429.704 251.817 436.681 251.986 463.261 M 223.867 457.513 C 216.991 463.795 207.288 452.100 215.402 443.042 "/>
<path fill="#ffffff" fill-rule="evenodd" stroke="none" d="M 426.273 390.073 C 392.464 409.304 364.685 408.201 338.500 400.572 C 331.217 415.521 315.524 431.026 296.109 435.203 C 269.480 440.932 237.751 430.183 220.504 411.225 C 196.245 384.559 199.050 342.532 210.595 320.364 C 235.222 273.075 273.184 271.329 294.814 272.479 C 332.854 274.500 351.402 296.192 363.591 309.882 C 388.636 338.010 402.295 352.599 424.894 360.552 C 436.898 364.777 460.946 363.182 460.950 363.182 C 460.946 363.185 438.401 383.175 426.273 390.073 Z"/>
<path fill="none" stroke="#000000" stroke-width="4" stroke-linejoin="round" d="M 426.273 390.073 C 392.464 409.304 364.685 408.201 338.500 400.572 C 331.217 415.521 315.524 431.026 296.109 435.203 C 269.480 440.932 237.751 430.183 220.504 411.225 C 196.245 384.559 199.050 342.532 210.595 320.364 C 235.222 273.075 273.184 271.329 294.814 272.479 C 332.854 274.500 351.402 296.192 363.591 309.882 C 388.636 338.010 402.295 352.599 424.894 360.552 C 436.898 364.777 460.946 363.182 460.950 363.182 C 460.946 363.185 438.401 383.175 426.273 390.073 M 279.917 312.938 C 328.899 303.822 363.445 349.376 338.500 400.572 M 259.887 391.252 C 228.251 371.042 245.696 319.306 279.917 312.938 M 307.097 373.143 C 304.528 396.687 277.107 402.252 259.887 391.252 M 279.797 353.658 C 290.550 344.125 309.410 351.940 307.097 373.143 M 285.211 365.972 C 279.153 370.346 272.494 360.131 279.797 353.658 "/>
<path fill="#ffffff" fill-rule="evenodd" stroke="none" d="M 531.104 420.409 C 482.562 414.875 453.741 397.650 431.283 371.782 C 416.292 383.585 392.337 391.764 370.196 386.381 C 339.827 378.998 312.420 352.047 304.073 323.849 C 292.333 284.185 316.223 242.173 339.222 225.040 C 388.281 188.492 428.149 206.056 450.137 217.641 C 488.600 237.908 494.451 261.276 504.846 288.286 C 520.587 329.191 540.119 347.583 563.687 364.482 C 593.232 385.667 651.473 401.300 651.482 401.304 C 651.470 401.306 601.720 428.461 531.104 420.409 Z"/>
<path fill="none" stroke="#000000" stroke-width="4" stroke-linejoin="round" d="M 513.001 373.491 C 477.334 355.090 459.980 333.023 459.974 333.019 M 651.550 400.900 C 651.536 400.897 579.519 407.808 513.001 373.491 M 531.104 420.409 C 482.562 414.875 453.741 397.650 431.283 371.782 C 416.292 383.585 392.337 391.764 370.196 386.381 C 339.827 378.998 312.420 352.047 304.073 323.849 C 292.333 284.185 316.223 242.173 339.222 225.040 C 388.281 188.492 428.149 206.056 450.137 217.641 C 488.600 237.908 494.451 261.276 504.846 288.286 C 520.587 329.191 540.119 347.583 563.687 364.482 C 593.232 385.667 651.473 401.300 651.482 401.304 C 651.470 401.306 601.720 428.461 531.104 420.409 M 414.539 251.995 C 469.690 267.044 482.622 331.356 431.283 371.782 M 354.732 322.888 C 332.146 286.209 376.008 241.480 414.539 251.995 M 412.544 327.762 C 398.131 350.800 367.025 342.852 354.732 322.888 M 394.076 293.997 C 409.946 289.522 425.524 307.015 412.544 327.762 M 393.518 309.423 C 385.074 310.915 383.299 297.037 394.076 293.997 "/>
<path fill="#ffffff" fill-rule="evenodd" stroke="none" d="M 393.247 494.994 C 375.927 522.122 355.169 532.040 333.059 536.566 C 333.500 550.319 328.000 567.726 315.403 578.279 C 298.125 592.753 270.753 597.137 250.810 589.920 C 222.759 579.769 208.586 547.926 208.477 527.244 C 208.244 483.125 235.354 467.190 251.629 459.680 C 280.251 446.473 302.201 455.188 316.409 460.502 C 345.599 471.420 361.229 476.824 380.840 473.920 C 391.256 472.377 408.242 461.926 408.244 461.924 C 408.243 461.928 399.460 485.263 393.247 494.994 Z"/>
<path fill="none" stroke="#000000" stroke-width="4" stroke-linejoin="round" d="M 393.247 494.994 C 375.927 522.122 355.169 532.040 333.059 536.566 C 333.500 550.319 328.000 567.726 315.403 578.279 C 298.125 592.753 270.753 597.137 250.810 589.920 C 222.759 579.769 208.586 547.926 208.477 527.244 C 208.244 483.125 235.354 467.190 251.629 459.680 C 280.251 446.473 302.201 455.188 316.409 460.502 C 345.599 471.420 361.229 476.824 380.840 473.920 C 391.256 472.377 408.242 461.926 408.244 461.924 C 408.243 461.928 399.460 485.263 393.247 494.994 M 256.347 495.044 C 288.678 469.461 331.550 489.464 333.059 536.566 M 271.923 560.096 C 240.965 557.519 233.759 512.918 256.347 495.044 M 299.485 528.615 C 306.695 546.839 288.774 561.499 271.923 560.096 M 271.981 524.894 C 276.171 513.765 292.992 512.204 299.485 528.615 M 280.698 531.817 C 277.952 537.357 269.135 532.451 271.981 524.894 "/>
<path fill="#ffffff" fill-rule="evenodd" stroke="none" d="M 576.991 462.895 C 533.738 484.938 503.287 485.987 463.536 486.164 C 462.423 505.211 452.651 528.562 433.934 541.559 C 408.263 559.385 369.914 562.013 343.278 549.552 C 305.810 532.024 290.223 486.276 292.661 457.701 C 297.860 396.746 337.292 378.133 360.707 369.799 C 401.884 355.142 431.620 368.924 450.061 379.040 C 492.192 402.151 512.828 416.569 543.291 419.120 C 599.130 423.795 651.941 401.076 651.952 401.074 C 651.945 401.081 638.472 431.562 576.991 462.895 Z"/>
<path fill="none" stroke="#000000" stroke-width="4" stroke-linejoin="round" d="M 542.075 447.003 C 489.235 455.189 453.574 438.981 453.565 438.980 M 650.364 402.311 C 650.353 402.315 613.333 435.964 542.075 447.003 M 576.991 462.895 C 533.738 484.938 503.287 485.987 463.536 486.164 C 462.423 505.211 452.651 528.562 433.934 541.559 C 408.263 559.385 369.914 562.013 343.278 549.552 C 305.810 532.024 290.223 486.276 292.661 457.701 C 297.860 396.746 337.292 378.133 360.707 369.799 C 401.884 355.142 431.620 368.924 450.061 379.040 C 492.192 402.151 512.828 416.569 543.291 419.120 C 599.130 423.795 651.941 401.076 651.952 401.074 C 651.945 401.081 638.472 431.562 576.991 462.895 M 362.796 419.226 C 410.644 387.943 467.346 420.930 463.536 486.164 M 376.166 511.008 C 333.737 503.575 329.367 441.082 362.796 419.226 M 418.166 470.983 C 425.842 497.052 399.260 515.054 376.166 511.008 M 380.649 462.402 C 387.828 447.558 411.253 447.507 418.166 470.983 M 391.822 473.053 C 387.337 480.361 375.774 472.482 380.649 462.402 "/>
</g>
<g id="specs_2">
<path fill="#ff0000" fill-rule="evenodd" stroke="none" d="M 679.475 399.474 C 679.478 399.473 709.177 388.866 709.180 388.865 C 709.179 388.866 699.311 399.473 699.310 399.474 C 699.311 399.475 709.179 410.081 709.180 410.082 C 709.177 410.081 679.478 399.475 679.475 399.474 Z"/>
<path fill="#0000ff" fill-rule="evenodd" stroke="none" d="M 8.840 388.056 C 8.842 388.055 26.093 381.894 26.095 381.894 C 26.094 381.894 20.362 388.055 20.362 388.056 C 20.362 388.056 26.094 394.217 26.095 394.218 C 26.093 394.217 8.842 388.056 8.840 388.056 Z"/>
<path fill="#00ff00" fill-rule="evenodd" stroke="none" d="M 285.607 599.621 C 285.606 599.619 280.530 585.628 280.529 585.627 C 280.530 585.627 285.559 590.259 285.559 590.260 C 285.560 590.259 290.542 585.577 290.542 585.576 C 290.542 585.578 285.607 599.619 285.607 599.621 Z"/>
<path fill="#ffff00" fill-rule="evenodd" stroke="none" d="M 455.719 528.063 C 455.718 528.062 442.985 522.214 442.984 522.213 C 442.984 522.213 449.414 521.905 449.415 521.905 C 449.415 521.905 449.571 515.470 449.571 515.469 C 449.571 515.470 455.718 528.061 455.719 528.063 Z"/>
<path fill="#ffff00" fill-rule="evenodd" stroke="none" d="M 455.563 211.784 C 455.562 211.784 442.948 217.887 442.947 217.887 C 442.948 217.888 449.383 218.066 449.383 218.066 C 449.384 218.067 449.669 224.498 449.669 224.499 C 449.669 224.497 455.563 211.785 455.563 211.784 Z"/>
<path fill="#00ff00" fill-rule="evenodd" stroke="none" d="M 285.606 125.993 C 285.606 125.995 280.529 139.986 280.529 139.987 C 280.529 139.986 285.559 135.354 285.559 135.354 C 285.560 135.354 290.542 140.037 290.542 140.037 C 290.542 140.036 285.607 125.995 285.606 125.993 Z"/>
<path fill="#00ffff" fill-rule="evenodd" stroke="none" d="M 131.009 152.246 C 131.011 152.247 148.279 158.362 148.281 158.363 C 148.280 158.363 139.944 159.521 139.944 159.521 C 139.944 159.522 140.498 167.919 140.498 167.920 C 140.497 167.918 131.010 152.248 131.009 152.246 Z"/>
<path fill="#00ffff" fill-rule="evenodd" stroke="none" d="M 131.582 518.370 C 131.583 518.369 148.405 511.116 148.407 511.115 C 148.406 511.115 140.011 510.516 140.011 510.516 C 140.011 510.515 140.004 502.099 140.004 502.099 C 140.003 502.100 131.583 518.368 131.582 518.370 Z"/>
<path fill="#be0027" fill-rule="evenodd" stroke="none" d="M 650.800 402.987 C 650.797 402.986 621.098 392.379 621.096 392.378 C 621.096 392.379 630.965 402.986 630.966 402.987 C 630.965 402.988 621.096 413.595 621.096 413.596 C 621.098 413.595 650.797 402.988 650.800 402.987 Z"/>
</g>
</g>
</svg>
