<?xml version="1.0" encoding="utf-8"?>
<!-- Generator: Moho 12.5 build 22414 -->
<!DOCTYPE svg PUBLIC "-//W3C//DTD SVG 1.1//EN" "http://www.w3.org/Graphics/SVG/1.1/DTD/svg11.dtd">
<svg version="1.1" id="Frame_0" xmlns="http://www.w3.org/2000/svg" xmlns:xlink="http://www.w3.org/1999/xlink" width="720px" height="720px">
<g id="poot">
<g id="poot_3">
<path fill="#ffffff" fill-rule="evenodd" stroke="none" d="M 387.263 347.867 C 342.154 335.727 319.369 311.321 303.457 282.690 C 284.612 289.300 258.117 289.282 238.013 276.449 C 210.439 258.847 192.429 222.869 193.718 192.115 C 195.531 148.857 233.426 115.346 262.008 106.171 C 322.977 86.600 356.863 117.175 374.359 136.427 C 405.128 170.285 402.641 204.471 401.484 226.457 C 399.107 271.625 398.445 295.619 411.021 321.499 C 417.701 335.244 439.579 354.196 439.582 354.200 C 439.577 354.199 403.444 352.222 387.263 347.867 Z"/>
<path fill="none" stroke="#000000" stroke-width="4" stroke-linejoin="round" d="M 387.263 347.867 C 342.154 335.727 319.369 311.321 303.457 282.690 C 284.612 289.300 258.117 289.282 238.013 276.449 C 210.439 258.847 192.429 222.869 193.718 192.115 C 195.531 148.857 233.426 115.346 262.008 106.171 C 322.977 86.600 356.863 117.175 374.359 136.427 C 405.128 170.285 402.641 204.471 401.484 226.457 C 399.107 271.625 398.445 295.619 411.021 321.499 C 417.701 335.244 439.579 354.196 439.582 354.200 C 439.577 354.199 403.444 352.222 387.263 347.867 M 327.465 158.387 C 376.983 191.978 367.999 260.051 303.457 282.690 M 244.213 208.329 C 234.274 164.351 292.868 134.918 327.465 158.387 M 299.815 232.747 C 277.734 250.678 249.623 232.266 244.213 208.329 M 292.967 193.050 C 310.200 193.995 319.700 216.598 299.815 232.747 M 287.187 208.137 C 278.319 206.754 281.264 192.408 292.967 193.050 "/>
<path fill="#ffffff" fill-rule="evenodd" stroke="none" d="M 324.755 380.066 C 276.842 399.688 240.357 393.495 207.090 378.959 C 194.925 397.452 171.564 415.245 145.221 417.448 C 109.090 420.470 69.035 400.870 49.499 372.902 C 22.020 333.561 32.890 278.556 51.911 251.259 C 92.487 193.030 142.901 197.198 171.260 202.404 C 221.134 211.559 241.922 243.359 255.680 263.511 C 283.946 304.915 299.490 326.505 327.969 340.859 C 343.095 348.482 375.115 350.478 375.120 350.479 C 375.115 350.482 341.942 373.027 324.755 380.066 Z"/>
<path fill="none" stroke="#000000" stroke-width="4" stroke-linejoin="round" d="M 324.755 380.066 C 276.842 399.688 240.357 393.495 207.090 378.959 C 194.925 397.452 171.564 415.245 145.221 417.448 C 109.090 420.470 69.035 400.870 49.499 372.902 C 22.020 333.561 32.890 278.556 51.911 251.259 C 92.487 193.030 142.901 197.198 171.260 202.404 C 221.134 211.559 241.922 243.359 255.680 263.511 C 283.946 304.915 299.490 326.505 327.969 340.859 C 343.095 348.482 375.115 350.478 375.120 350.479 C 375.115 350.482 341.942 373.027 324.755 380.066 M 144.694 253.277 C 210.913 249.596 248.752 315.625 207.090 378.959 M 104.896 353.249 C 66.577 321.174 98.430 255.849 144.694 253.277 M 170.310 337.393 C 162.904 368.037 125.754 370.708 104.896 353.249 M 137.591 307.013 C 153.413 296.262 176.979 309.796 170.310 337.393 M 142.640 324.194 C 133.895 328.936 126.847 314.314 137.591 307.013 "/>
<path fill="#ffffff" fill-rule="evenodd" stroke="none" d="M 417.179 487.112 C 375.888 517.356 339.408 520.109 304.028 514.091 C 296.764 534.732 278.592 557.370 253.844 565.761 C 219.900 577.271 176.800 568.012 151.392 545.835 C 115.653 514.640 112.974 459.278 124.718 428.555 C 149.770 363.021 199.130 355.006 227.579 353.242 C 277.609 350.141 305.131 375.696 323.133 391.751 C 360.118 424.738 380.176 441.747 410.920 448.731 C 427.249 452.441 458.444 446.725 458.448 446.725 C 458.444 446.729 431.991 476.263 417.179 487.112 Z"/>
<path fill="none" stroke="#000000" stroke-width="4" stroke-linejoin="round" d="M 417.179 487.112 C 375.888 517.356 339.408 520.109 304.028 514.091 C 296.764 534.732 278.592 557.370 253.844 565.761 C 219.900 577.271 176.800 568.012 151.392 545.835 C 115.653 514.640 112.974 459.278 124.718 428.555 C 149.770 363.021 199.130 355.006 227.579 353.242 C 277.609 350.141 305.131 375.696 323.133 391.751 C 360.118 424.738 380.176 441.747 410.920 448.731 C 427.249 452.441 458.444 446.725 458.448 446.725 C 458.444 446.729 431.991 476.263 417.179 487.112 M 214.215 408.381 C 276.867 389.069 328.905 443.400 304.028 514.091 M 199.857 513.778 C 155.450 492.137 170.442 421.874 214.215 408.381 M 258.836 482.977 C 259.033 514.142 224.029 525.558 199.857 513.778 M 220.206 461.628 C 232.824 447.543 258.658 454.911 258.836 482.977 M 229.144 476.908 C 221.884 483.542 211.637 471.193 220.206 461.628 "/>
<path fill="#ffffff" fill-rule="evenodd" stroke="none" d="M 437.730 392.171 C 395.915 415.955 361.557 414.591 329.172 405.156 C 320.163 423.644 300.754 442.821 276.741 447.988 C 243.806 455.073 204.563 441.779 183.232 418.332 C 153.227 385.351 156.697 333.371 170.976 305.952 C 201.435 247.465 248.387 245.305 275.140 246.727 C 322.188 249.227 345.128 276.056 360.205 292.988 C 391.180 327.777 408.074 345.822 436.025 355.659 C 450.872 360.883 480.615 358.911 480.619 358.911 C 480.615 358.915 452.730 383.639 437.730 392.171 Z"/>
<path fill="none" stroke="#000000" stroke-width="4" stroke-linejoin="round" d="M 437.730 392.171 C 395.915 415.955 361.557 414.591 329.172 405.156 C 320.163 423.644 300.754 442.821 276.741 447.988 C 243.806 455.073 204.563 441.779 183.232 418.332 C 153.227 385.351 156.697 333.371 170.976 305.952 C 201.435 247.465 248.387 245.305 275.140 246.727 C 322.188 249.227 345.128 276.056 360.205 292.988 C 391.180 327.777 408.074 345.822 436.025 355.659 C 450.872 360.883 480.615 358.911 480.619 358.911 C 480.615 358.915 452.730 383.639 437.730 392.171 M 256.715 296.768 C 317.296 285.493 360.024 341.835 329.172 405.156 M 231.941 393.628 C 192.812 368.632 214.389 304.645 256.715 296.768 M 290.331 371.231 C 287.154 400.351 253.239 407.234 231.941 393.628 M 256.566 347.131 C 269.866 335.341 293.193 345.007 290.331 371.231 M 263.263 362.362 C 255.769 367.772 247.534 355.137 256.566 347.131 "/>
<path fill="#ffffff" fill-rule="evenodd" stroke="none" d="M 531.104 420.409 C 482.562 414.875 453.741 397.650 431.283 371.782 C 416.292 383.585 392.337 391.764 370.196 386.381 C 339.827 378.998 312.420 352.047 304.073 323.849 C 292.333 284.185 316.223 242.173 339.222 225.040 C 388.281 188.492 428.149 206.056 450.137 217.641 C 488.600 237.908 494.451 261.276 504.846 288.286 C 520.587 329.191 540.119 347.583 563.687 364.482 C 593.232 385.667 651.473 401.300 651.482 401.304 C 651.470 401.306 601.720 428.461 531.104 420.409 Z"/>
<path fill="none" stroke="#000000" stroke-width="4" stroke-linejoin="round" d="M 513.001 373.491 C 477.334 355.090 459.980 333.023 459.974 333.019 M 651.550 400.900 C 651.536 400.897 579.519 407.808 513.001 373.491 M 531.104 420.409 C 482.562 414.875 453.741 397.650 431.283 371.782 C 416.292 383.585 392.337 391.764 370.196 386.381 C 339.827 378.998 312.420 352.047 304.073 323.849 C 292.333 284.185 316.223 242.173 339.222 225.040 C 388.281 188.492 428.149 206.056 450.137 217.641 C 488.600 237.908 494.451 261.276 504.846 288.286 C 520.587 329.191 540.119 347.583 563.687 364.482 C 593.232 385.667 651.473 401.300 651.482 401.304 C 651.470 401.306 601.720 428.461 531.104 420.409 M 414.539 251.995 C 469.690 267.044 482.622 331.356 431.283 371.782 M 354.732 322.888 C 332.146 286.209 376.008 241.480 414.539 251.995 M 412.544 327.762 C 398.131 350.800 367.025 342.852 354.732 322.888 M 394.076 293.997 C 409.946 289.522 425.524 307.015 412.544 327.762 M 393.518 309.423 C 385.074 310.915 383.299 297.037 394.076 293.997 "/>
<path fill="#ffffff" fill-rule="evenodd" stroke="none" d="M 576.991 462.895 C 533.738 484.938 503.287 485.987 463.536 486.164 C 462.423 505.211 452.651 528.562 433.934 541.559 C 408.263 559.385 369.914 562.013 343.278 549.552 C 305.810 532.024 290.223 486.276 292.661 457.701 C 297.860 396.746 337.292 378.133 360.707 369.799 C 401.884 355.142 431.620 368.924 450.061 379.040 C 492.192 402.151 512.828 416.569 543.291 419.120 C 599.130 423.795 651.941 401.076 651.952 401.074 C 651.945 401.081 638.472 431.562 576.991 462.895 Z"/>
<path fill="none" stroke="#000000" stroke-width="4" stroke-linejoin="round" d="M 542.075 447.003 C 489.235 455.189 453.574 438.981 453.565 438.980 M 650.364 402.311 C 650.353 402.315 613.333 435.964 542.075 447.003 M 576.991 462.895 C 533.738 484.938 503.287 485.987 463.536 486.164 C 462.423 505.211 452.651 528.562 433.934 541.559 C 408.263 559.385 369.914 562.013 343.278 549.552 C 305.810 532.024 290.223 486.276 292.661 457.701 C 297.860 396.746 337.292 378.133 360.707 369.799 C 401.884 355.142 431.620 368.924 450.061 379.040 C 492.192 402.151 512.828 416.569 543.291 419.120 C 599.130 423.795 651.941 401.076 651.952 401.074 C 651.945 401.081 638.472 431.562 576.991 462.895 M 362.796 419.226 C 410.644 387.943 467.346 420.930 463.536 486.164 M 376.166 511.008 C 333.737 503.575 329.367 441.082 362.796 419.226 M 418.166 470.983 C 425.842 497.052 399.260 515.054 376.166 511.008 M 380.649 462.402 C 387.828 447.558 411.253 447.507 418.166 470.983 M 391.822 473.053 C 387.337 480.361 375.774 472.482 380.649 462.402 "/>
</g>
<g id="specs_3">
<path fill="#ff0000" fill-rule="evenodd" stroke="none" d="M 679.475 399.474 C 679.478 399.473 709.177 388.866 709.180 388.865 C 709.179 388.866 699.310 399.473 699.309 399.474 C 699.310 399.475 709.179 410.081 709.180 410.082 C 709.177 410.081 679.478 399.475 679.475 399.474 Z"/>
<path fill="#0000ff" fill-rule="evenodd" stroke="none" d="M 21.682 314.674 C 21.684 314.673 38.935 308.512 38.937 308.512 C 38.936 308.512 33.204 314.673 33.204 314.674 C 33.204 314.675 38.936 320.836 38.937 320.836 C 38.935 320.836 21.684 314.675 21.682 314.674 Z"/>
<path fill="#00ff00" fill-rule="evenodd" stroke="none" d="M 297.531 535.411 C 297.531 535.410 292.454 521.419 292.454 521.418 C 292.454 521.418 297.483 526.050 297.484 526.051 C 297.484 526.050 302.466 521.368 302.467 521.367 C 302.466 521.369 297.532 535.410 297.531 535.411 Z"/>
<path fill="#ffff00" fill-rule="evenodd" stroke="none" d="M 455.719 528.063 C 455.718 528.062 442.985 522.214 442.984 522.213 C 442.985 522.213 449.414 521.906 449.415 521.906 C 449.415 521.905 449.571 515.470 449.571 515.469 C 449.571 515.470 455.718 528.061 455.719 528.063 Z"/>
<path fill="#ffff00" fill-rule="evenodd" stroke="none" d="M 455.563 211.784 C 455.562 211.785 442.948 217.887 442.947 217.887 C 442.948 217.887 449.383 218.067 449.384 218.067 C 449.384 218.067 449.669 224.498 449.669 224.499 C 449.669 224.497 455.562 211.785 455.563 211.784 Z"/>
<path fill="#00ff00" fill-rule="evenodd" stroke="none" d="M 297.531 90.220 C 297.530 90.221 292.454 104.212 292.453 104.213 C 292.454 104.213 297.483 99.581 297.484 99.580 C 297.484 99.581 302.466 104.263 302.467 104.264 C 302.466 104.262 297.531 90.221 297.531 90.220 Z"/>
<path fill="#00ffff" fill-rule="evenodd" stroke="none" d="M 131.009 193.051 C 131.011 193.052 147.176 198.777 147.178 198.777 C 147.177 198.777 139.374 199.861 139.373 199.862 C 139.373 199.862 139.892 207.723 139.892 207.724 C 139.891 207.723 131.010 193.053 131.009 193.051 Z"/>
<path fill="#00ffff" fill-rule="evenodd" stroke="none" d="M 131.545 535.798 C 131.547 535.798 147.295 529.007 147.296 529.007 C 147.295 529.007 139.437 528.446 139.436 528.445 C 139.436 528.445 139.430 520.566 139.430 520.566 C 139.429 520.567 131.546 535.797 131.545 535.798 Z"/>
<path fill="#be0027" fill-rule="evenodd" stroke="none" d="M 650.800 402.987 C 650.797 402.986 621.098 392.379 621.095 392.378 C 621.096 392.379 630.965 402.986 630.966 402.987 C 630.965 402.988 621.096 413.594 621.095 413.596 C 621.098 413.594 650.797 402.988 650.800 402.987 Z"/>
</g>
</g>
</svg>
