<?xml version="1.0" encoding="utf-8"?>
<!-- Generator: Moho 13.0.3 build 635 -->
<!DOCTYPE svg PUBLIC "-//W3C//DTD SVG 1.1//EN" "http://www.w3.org/Graphics/SVG/1.1/DTD/svg11.dtd">
<svg version="1.1" id="Frame_0" xmlns="http://www.w3.org/2000/svg" xmlns:xlink="http://www.w3.org/1999/xlink" width="720px" height="720px">
<g id="Pyramid">
<path fill="#ffffff" fill-rule="evenodd" stroke="none" d="M 327.289 84.432 C 327.315 84.488 589.661 635.513 589.688 635.568 C 589.630 635.568 9.149 635.568 9.091 635.568 C 9.123 635.513 327.257 84.488 327.289 84.432 Z"/>
<path fill="none" stroke="#ffffff" stroke-width="1" stroke-linecap="butt" stroke-linejoin="round" d="M 589.688 635.568 C 589.661 635.513 327.315 84.488 327.289 84.432 "/>
<path fill="#ffffff" fill-rule="evenodd" stroke="none" d="M 709.817 557.039 C 709.805 557.047 629.731 609.391 589.688 635.568 C 589.661 635.513 327.315 84.488 327.289 84.432 C 454.798 241.968 709.779 556.992 709.817 557.039 Z"/>
<path fill="none" stroke="#000000" stroke-width="7" stroke-linecap="round" stroke-linejoin="round" d="M 327.289 84.432 C 454.798 241.968 709.779 556.992 709.817 557.039 C 709.805 557.047 629.731 609.391 589.688 635.568 C 589.630 635.568 9.149 635.568 9.091 635.568 C 9.123 635.513 327.257 84.488 327.289 84.432 C 327.315 84.488 589.661 635.513 589.688 635.568 "/>
</g>
</svg>
