<?xml version="1.0" encoding="utf-8"?>
<!-- Generator: Moho 12.5 build 22414 -->
<!DOCTYPE svg PUBLIC "-//W3C//DTD SVG 1.1//EN" "http://www.w3.org/Graphics/SVG/1.1/DTD/svg11.dtd">
<svg version="1.1" id="Frame_0" xmlns="http://www.w3.org/2000/svg" xmlns:xlink="http://www.w3.org/1999/xlink" width="720px" height="720px">
<g id="rabbit">
<g id="rabbit">
<path fill="#ffffff" fill-rule="evenodd" stroke="#000000" stroke-width="4" stroke-linecap="round" stroke-linejoin="round" d="M 110.057 307.729 C 110.419 298.353 118.273 291.082 127.649 291.443 C 137.024 291.804 144.296 299.658 143.935 309.034 C 143.574 318.409 135.719 325.681 126.344 325.320 C 116.968 324.959 109.696 317.104 110.057 307.729 M 542.465 365.460 C 547.247 361.530 558.559 368.019 568.181 356.124 C 590.009 329.142 578.027 294.014 569.689 293.076 C 553.232 291.224 532.849 331.704 524.489 335.101 C 512.629 339.919 438.072 332.708 393.654 334.487 C 301.057 338.195 259.247 370.916 230.251 353.324 C 217.663 345.687 192.974 303.773 197.624 289.802 C 201.397 278.466 247.531 247.707 261.099 237.542 C 289.267 216.438 331.042 159.100 322.745 151.174 C 311.402 140.338 254.885 184.516 239.686 196.794 C 218.902 213.583 174.051 290.242 169.278 271.002 C 168.231 266.785 206.376 219.961 215.050 206.065 C 224.259 191.314 267.901 144.393 255.591 132.112 C 241.195 117.749 190.132 176.224 177.106 191.840 C 165.598 205.637 143.845 266.496 137.200 269.305 C 126.277 273.923 91.899 278.857 81.964 285.332 C 70.067 293.086 33.411 325.252 38.290 338.588 C 51.412 374.459 122.996 356.280 135.859 373.326 C 143.611 383.600 130.482 418.145 143.649 435.263 C 152.962 447.371 89.620 459.440 77.656 468.938 C 62.932 480.627 7.001 525.069 19.469 539.139 C 34.497 556.097 78.580 502.281 92.780 494.901 C 116.691 482.473 171.273 478.306 163.701 480.469 C 146.738 485.314 120.300 491.828 110.521 497.960 C 92.683 509.145 27.675 557.946 41.838 573.525 C 56.875 590.065 111.604 531.590 131.302 524.101 C 154.054 515.451 239.380 517.759 246.567 498.601 C 252.725 482.186 315.042 496.989 350.133 493.711 C 374.811 491.406 420.398 477.944 438.182 482.288 C 450.330 485.256 477.372 510.698 488.901 515.542 C 505.909 522.689 559.658 526.025 576.587 533.359 C 588.660 538.589 615.682 561.671 629.130 569.572 C 647.961 580.635 661.684 577.309 662.404 570.484 C 664.832 547.493 593.167 495.196 580.392 498.594 C 564.782 502.746 528.549 476.155 537.049 480.753 C 554.845 490.380 571.501 491.967 582.451 491.111 C 603.185 489.488 634.543 521.820 646.249 532.202 C 659.627 544.065 681.654 556.907 696.031 547.705 C 713.308 536.648 637.769 482.916 623.419 465.422 C 595.523 431.413 565.584 460.580 543.267 415.530 C 535.705 400.267 537.782 369.309 542.465 365.460 Z"/>
</g>
<g id="specs_2">
<path fill="#ff00ff" fill-rule="evenodd" stroke="none" d="M 289.468 477.052 C 289.480 477.052 411.168 477.052 411.180 477.052 C 411.180 477.040 411.180 355.352 411.180 355.340 C 411.168 355.340 289.480 355.340 289.468 355.340 C 289.468 355.352 289.468 477.040 289.468 477.052 Z"/>
<path fill="#ff0000" fill-rule="evenodd" stroke="none" d="M 676.533 404.431 C 676.536 404.430 709.359 392.708 709.363 392.707 C 709.362 392.708 698.455 404.430 698.454 404.431 C 698.455 404.432 709.362 416.155 709.363 416.156 C 709.359 416.155 676.536 404.432 676.533 404.431 Z"/>
<path fill="#0000ff" fill-rule="evenodd" stroke="none" d="M 249.674 116.949 C 249.675 116.951 256.484 136.017 256.485 136.019 C 256.484 136.018 249.675 129.683 249.674 129.682 C 249.673 129.683 242.864 136.018 242.864 136.019 C 242.864 136.017 249.673 116.951 249.674 116.949 Z"/>
<path fill="#ffff00" fill-rule="evenodd" stroke="none" d="M 12.404 547.902 C 12.405 547.901 20.855 529.502 20.856 529.500 C 20.856 529.501 21.301 538.792 21.301 538.793 C 21.302 538.793 30.599 539.018 30.600 539.018 C 30.598 539.019 12.406 547.901 12.404 547.902 Z"/>
<path fill="#ffff00" fill-rule="evenodd" stroke="none" d="M 702.372 556.018 C 702.371 556.016 693.554 537.791 693.553 537.790 C 693.553 537.791 693.294 547.088 693.294 547.089 C 693.293 547.089 684.001 547.501 684.000 547.501 C 684.002 547.502 702.370 556.017 702.372 556.018 Z"/>
<path fill="#00ff00" fill-rule="evenodd" stroke="none" d="M 279.985 343.390 C 279.984 343.392 270.894 358.522 270.893 358.524 C 270.894 358.523 277.801 354.275 277.802 354.275 C 277.802 354.276 282.536 360.858 282.537 360.859 C 282.536 360.857 279.985 343.392 279.985 343.390 Z"/>
<path fill="#00ffff" fill-rule="evenodd" stroke="none" d="M 329.303 141.862 C 329.302 141.864 322.432 160.909 322.431 160.911 C 322.431 160.910 321.205 151.690 321.205 151.689 C 321.204 151.689 311.920 152.248 311.919 152.248 C 311.921 152.247 329.301 141.863 329.303 141.862 Z"/>
<path fill="#00ffff" fill-rule="evenodd" stroke="none" d="M 117.965 261.247 C 117.965 261.249 115.061 281.286 115.060 281.288 C 115.061 281.287 120.483 273.730 120.483 273.729 C 120.484 273.730 128.412 278.593 128.412 278.594 C 128.411 278.592 117.966 261.249 117.965 261.247 Z"/>
<path fill="#be0027" fill-rule="evenodd" stroke="none" d="M 580.191 276.648 C 580.188 276.650 555.039 300.780 555.036 300.782 C 555.038 300.782 570.398 296.260 570.399 296.259 C 570.400 296.261 576.015 311.255 576.016 311.257 C 576.016 311.254 580.191 276.651 580.191 276.648 Z"/>
<path fill="#00ff00" fill-rule="evenodd" stroke="none" d="M 424.752 324.620 C 424.751 324.622 412.308 337.141 412.307 337.142 C 412.307 337.142 420.030 334.668 420.031 334.668 C 420.031 334.668 423.054 342.192 423.055 342.193 C 423.055 342.191 424.752 324.622 424.752 324.620 Z"/>
</g>
</g>
</svg>
