<?xml version="1.0" encoding="utf-8"?>
<!-- Generator: Moho 12.5 build 22414 -->
<!DOCTYPE svg PUBLIC "-//W3C//DTD SVG 1.1//EN" "http://www.w3.org/Graphics/SVG/1.1/DTD/svg11.dtd">
<svg version="1.1" id="Frame_0" xmlns="http://www.w3.org/2000/svg" xmlns:xlink="http://www.w3.org/1999/xlink" width="720px" height="720px">
<g id="rabbit">
<g id="rabbit">
<path fill="#ffffff" fill-rule="evenodd" stroke="#000000" stroke-width="4" stroke-linecap="round" stroke-linejoin="round" d="M 110.058 307.729 C 110.419 298.353 118.273 291.081 127.649 291.443 C 137.024 291.804 144.296 299.658 143.935 309.034 C 143.574 318.409 135.719 325.681 126.344 325.320 C 116.968 324.959 109.696 317.104 110.058 307.729 M 542.465 365.460 C 547.248 361.530 558.559 368.019 568.181 356.124 C 590.009 329.142 578.027 294.014 569.690 293.076 C 553.233 291.224 532.850 331.704 524.490 335.101 C 512.630 339.919 438.072 332.708 393.655 334.487 C 301.057 338.195 259.247 370.916 230.251 353.324 C 217.663 345.687 192.974 303.773 197.624 289.802 C 201.397 278.466 247.531 247.707 261.099 237.542 C 289.267 216.438 331.042 159.100 322.746 151.175 C 311.402 140.338 254.886 184.516 239.686 196.794 C 218.902 213.583 174.051 290.241 169.278 271.002 C 168.231 266.785 206.376 219.961 215.051 206.065 C 224.259 191.314 267.901 144.393 255.591 132.112 C 241.195 117.749 190.132 176.224 177.107 191.840 C 165.598 205.637 143.845 266.496 137.200 269.305 C 126.278 273.923 91.899 278.858 81.964 285.332 C 70.067 293.086 33.411 325.252 38.290 338.588 C 51.412 374.459 122.996 356.280 135.859 373.326 C 143.612 383.600 131.548 417.375 143.649 435.263 C 152.583 448.470 83.633 451.654 70.734 461.027 C 55.675 471.969 3.536 519.850 16.503 533.206 C 28.679 545.748 74.480 495.699 88.824 488.968 C 114.226 477.048 171.358 477.536 163.701 480.469 C 147.228 486.781 120.300 491.828 110.521 497.960 C 92.683 509.145 28.791 557.000 41.838 573.525 C 54.898 590.065 111.604 531.590 131.303 524.101 C 154.055 515.451 239.380 517.759 246.567 498.601 C 252.725 482.186 315.042 496.989 350.133 493.711 C 374.811 491.406 420.399 477.944 438.182 482.288 C 450.330 485.256 477.315 510.836 488.901 515.542 C 497.537 519.051 525.712 519.067 533.185 524.640 C 544.507 533.085 550.365 570.755 563.066 586.285 C 575.019 600.901 591.067 600.828 593.458 594.777 C 601.283 574.967 557.822 503.728 553.009 502.799 C 537.988 499.897 513.161 468.242 520.238 473.831 C 537.231 487.250 551.390 496.653 562.664 499.975 C 582.614 505.854 598.343 548.740 605.283 562.764 C 610.230 572.761 627.569 592.046 641.884 588.737 C 660.345 584.469 616.744 512.297 610.420 492.376 C 597.145 450.559 555.538 463.190 543.267 415.531 C 539.019 399.034 537.783 369.309 542.465 365.460 Z"/>
</g>
<g id="specs_2">
<path fill="#ff00ff" fill-rule="evenodd" stroke="none" d="M 289.468 477.052 C 289.480 477.052 411.168 477.052 411.180 477.052 C 411.180 477.040 411.180 355.352 411.180 355.340 C 411.168 355.340 289.480 355.340 289.468 355.340 C 289.468 355.352 289.468 477.040 289.468 477.052 Z"/>
<path fill="#ff0000" fill-rule="evenodd" stroke="none" d="M 676.533 404.431 C 676.537 404.430 709.360 392.708 709.363 392.706 C 709.362 392.708 698.455 404.430 698.454 404.431 C 698.455 404.432 709.362 416.155 709.363 416.156 C 709.360 416.155 676.537 404.432 676.533 404.431 Z"/>
<path fill="#0000ff" fill-rule="evenodd" stroke="none" d="M 249.674 116.949 C 249.675 116.951 256.484 136.017 256.485 136.019 C 256.484 136.018 249.675 129.683 249.674 129.682 C 249.674 129.683 242.865 136.018 242.864 136.019 C 242.865 136.017 249.674 116.951 249.674 116.949 Z"/>
<path fill="#ffff00" fill-rule="evenodd" stroke="none" d="M 9.437 540.980 C 9.438 540.978 17.888 522.580 17.889 522.578 C 17.889 522.579 18.334 531.870 18.334 531.871 C 18.335 531.871 27.633 532.096 27.634 532.096 C 27.632 532.097 9.439 540.979 9.437 540.980 Z"/>
<path fill="#ffff00" fill-rule="evenodd" stroke="none" d="M 650.950 593.596 C 650.949 593.594 642.132 575.369 642.131 575.367 C 642.131 575.368 641.873 584.665 641.873 584.666 C 641.872 584.666 632.580 585.078 632.579 585.078 C 632.581 585.079 650.949 593.595 650.950 593.596 Z"/>
<path fill="#00ff00" fill-rule="evenodd" stroke="none" d="M 279.985 343.390 C 279.984 343.392 270.894 358.522 270.893 358.524 C 270.894 358.523 277.801 354.275 277.802 354.275 C 277.802 354.275 282.536 360.858 282.537 360.859 C 282.537 360.857 279.985 343.392 279.985 343.390 Z"/>
<path fill="#00ffff" fill-rule="evenodd" stroke="none" d="M 329.303 141.863 C 329.302 141.865 322.432 160.909 322.431 160.911 C 322.431 160.910 321.205 151.690 321.205 151.689 C 321.204 151.689 311.920 152.248 311.919 152.248 C 311.921 152.247 329.301 141.864 329.303 141.863 Z"/>
<path fill="#00ffff" fill-rule="evenodd" stroke="none" d="M 117.965 261.247 C 117.965 261.249 115.060 281.286 115.060 281.288 C 115.061 281.287 120.483 273.730 120.483 273.729 C 120.484 273.730 128.412 278.593 128.413 278.594 C 128.412 278.592 117.966 261.249 117.965 261.247 Z"/>
<path fill="#be0027" fill-rule="evenodd" stroke="none" d="M 580.191 276.647 C 580.188 276.650 555.039 300.780 555.036 300.782 C 555.038 300.782 570.398 296.260 570.399 296.259 C 570.400 296.261 576.016 311.256 576.016 311.257 C 576.017 311.254 580.191 276.651 580.191 276.647 Z"/>
<path fill="#00ff00" fill-rule="evenodd" stroke="none" d="M 424.752 324.621 C 424.751 324.622 412.308 337.141 412.307 337.142 C 412.308 337.142 420.030 334.668 420.031 334.668 C 420.031 334.668 423.055 342.192 423.055 342.193 C 423.055 342.191 424.752 324.622 424.752 324.621 Z"/>
</g>
</g>
</svg>
