<?xml version="1.0" encoding="utf-8"?>
<!-- Generator: Moho 12.5 build 22414 -->
<!DOCTYPE svg PUBLIC "-//W3C//DTD SVG 1.1//EN" "http://www.w3.org/Graphics/SVG/1.1/DTD/svg11.dtd">
<svg version="1.1" id="Frame_0" xmlns="http://www.w3.org/2000/svg" xmlns:xlink="http://www.w3.org/1999/xlink" width="720px" height="720px">
<g id="ring">
<g id="ring">
<path fill="#ffffff" fill-rule="evenodd" stroke="#000000" stroke-width="4" stroke-linejoin="round" d="M 58.923 360.000 C 58.923 193.356 193.356 58.923 360.000 58.923 C 526.644 58.923 661.077 193.356 661.077 360.000 C 661.077 526.644 526.644 661.077 360.000 661.077 C 193.356 661.077 58.923 526.644 58.923 360.000 M 32.510 360.000 C 32.510 178.737 178.737 32.510 360.000 32.510 C 541.263 32.510 687.490 178.737 687.490 360.000 C 687.490 541.263 541.263 687.490 360.000 687.490 C 178.737 687.490 32.510 541.263 32.510 360.000 Z"/>
</g>
<g id="specs_empty_(almost)">
<path fill="#ff00ff" fill-rule="evenodd" stroke="none" d="M 137.234 581.438 C 137.279 581.438 583.376 581.438 583.420 581.438 C 583.420 581.394 583.420 135.297 583.420 135.253 C 583.376 135.253 137.279 135.253 137.234 135.253 C 137.234 135.297 137.234 581.394 137.234 581.438 Z"/>
<path fill="#ff0000" fill-rule="evenodd" stroke="none" d="M 360.327 661.053 C 360.329 661.057 372.759 695.863 372.760 695.866 C 372.759 695.865 360.329 684.299 360.327 684.298 C 360.326 684.299 347.896 695.865 347.894 695.866 C 347.896 695.863 360.326 661.057 360.327 661.053 Z"/>
<path fill="#0000ff" fill-rule="evenodd" stroke="none" d="M 360.327 16.117 C 360.328 16.119 367.549 36.337 367.549 36.339 C 367.549 36.338 360.328 29.621 360.327 29.620 C 360.327 29.621 353.106 36.338 353.105 36.339 C 353.106 36.337 360.327 16.119 360.327 16.117 Z"/>
<path fill="#00ff00" fill-rule="evenodd" stroke="none" d="M 19.248 359.350 C 19.250 359.349 39.431 352.026 39.433 352.026 C 39.432 352.026 32.751 359.281 32.750 359.282 C 32.751 359.282 39.505 366.469 39.506 366.470 C 39.504 366.469 19.250 359.351 19.248 359.350 Z"/>
<path fill="#ffff00" fill-rule="evenodd" stroke="none" d="M 118.692 601.847 C 118.693 601.845 127.654 582.336 127.655 582.334 C 127.655 582.335 128.126 592.186 128.126 592.187 C 128.127 592.187 137.987 592.426 137.988 592.426 C 137.986 592.427 118.694 601.846 118.692 601.847 Z"/>
<path fill="#ffff00" fill-rule="evenodd" stroke="none" d="M 603.288 601.608 C 603.287 601.606 593.937 582.280 593.936 582.278 C 593.936 582.279 593.662 592.138 593.662 592.139 C 593.661 592.139 583.808 592.576 583.807 592.576 C 583.809 592.577 603.286 601.607 603.288 601.608 Z"/>
<path fill="#00ff00" fill-rule="evenodd" stroke="none" d="M 702.453 359.350 C 702.451 359.349 682.270 352.026 682.268 352.026 C 682.268 352.026 688.950 359.281 688.951 359.282 C 688.950 359.282 682.195 366.469 682.195 366.470 C 682.197 366.469 702.451 359.351 702.453 359.350 Z"/>
<path fill="#00ffff" fill-rule="evenodd" stroke="none" d="M 601.689 116.061 C 601.688 116.063 594.521 136.301 594.520 136.303 C 594.520 136.302 593.163 126.532 593.163 126.531 C 593.162 126.531 583.320 127.181 583.319 127.181 C 583.321 127.180 601.687 116.062 601.689 116.061 Z"/>
<path fill="#00ffff" fill-rule="evenodd" stroke="none" d="M 119.078 116.732 C 119.079 116.734 127.579 136.448 127.580 136.450 C 127.580 136.449 128.283 126.612 128.283 126.611 C 128.284 126.611 138.146 126.603 138.147 126.603 C 138.145 126.602 119.080 116.733 119.078 116.732 Z"/>
</g>
</g>
</svg>
