<?xml version="1.0" encoding="utf-8"?>
<!-- Generator: Moho 12.5 build 22414 -->
<!DOCTYPE svg PUBLIC "-//W3C//DTD SVG 1.1//EN" "http://www.w3.org/Graphics/SVG/1.1/DTD/svg11.dtd">
<svg version="1.1" id="Frame_0" xmlns="http://www.w3.org/2000/svg" xmlns:xlink="http://www.w3.org/1999/xlink" width="720px" height="720px">
<g id="saturn">
<g id="saturn">
<path fill="#000000" fill-rule="evenodd" stroke="#ffffff" stroke-width="4" stroke-linecap="round" stroke-linejoin="round" d="M 360.000 182.346 C 447.809 182.346 520.461 245.603 535.041 329.638 C 535.972 335.005 536.666 340.454 537.112 345.976 C 537.456 350.214 537.654 355.083 537.654 360.000 C 537.654 364.917 537.456 369.786 537.090 374.311 C 536.645 379.816 535.952 385.248 535.160 389.794 C 520.460 474.397 447.809 537.654 360.000 537.654 C 261.670 537.654 182.346 458.330 182.346 360.000 C 182.346 261.670 261.670 182.346 360.000 182.346 Z"/>
<path fill="#ffffff" fill-rule="evenodd" stroke="#000000" stroke-width="4" stroke-linecap="round" stroke-linejoin="round" d="M 535.160 389.794 C 535.952 385.248 537.090 374.311 537.090 374.311 C 550.830 371.958 592.145 366.721 592.052 360.000 C 591.939 351.788 571.369 351.362 537.112 345.976 C 529.803 344.939 522.360 343.942 514.725 343.114 C 468.357 338.086 407.510 334.530 360.000 334.530 C 312.490 334.530 251.643 338.086 205.274 343.114 C 160.362 347.983 127.878 351.497 127.948 360.000 C 128.017 368.524 168.751 374.596 182.699 376.886 C 182.699 376.886 184.053 387.181 184.971 392.072 C 94.367 384.702 14.539 372.935 13.885 360.000 C 13.154 345.548 105.291 335.207 208.006 327.896 C 258.828 324.278 313.666 322.010 360.000 322.010 C 406.334 322.010 461.171 324.278 512.452 327.928 C 519.610 328.438 526.715 328.973 535.041 329.638 C 627.058 336.958 704.679 345.215 706.115 360.000 C 707.434 373.574 595.918 383.297 535.160 389.794 Z"/>
</g>
<g id="specs_2">
<path fill="#ff00ff" fill-rule="evenodd" stroke="none" d="M 260.795 504.125 C 260.815 504.125 459.185 504.125 459.205 504.125 C 459.205 504.109 459.205 345.042 459.205 345.026 C 459.185 345.026 260.815 345.026 260.795 345.026 C 260.795 345.042 260.795 504.109 260.795 504.125 Z"/>
<path fill="#ff0000" fill-rule="evenodd" stroke="none" d="M 360.308 547.179 C 360.309 547.181 366.967 565.826 366.968 565.828 C 366.967 565.827 360.309 559.632 360.308 559.631 C 360.307 559.632 353.648 565.827 353.647 565.828 C 353.648 565.826 360.307 547.181 360.308 547.179 Z"/>
<path fill="#0000ff" fill-rule="evenodd" stroke="none" d="M 360.308 175.582 C 360.308 175.583 364.176 186.414 364.177 186.415 C 364.176 186.415 360.308 182.816 360.308 182.815 C 360.307 182.816 356.440 186.415 356.439 186.415 C 356.440 186.414 360.307 175.583 360.308 175.582 Z"/>
<path fill="#00ff00" fill-rule="evenodd" stroke="none" d="M 5.405 361.009 C 5.407 361.008 26.387 353.395 26.389 353.394 C 26.389 353.395 19.443 360.937 19.442 360.938 C 19.443 360.939 26.464 368.410 26.465 368.410 C 26.463 368.410 5.407 361.009 5.405 361.009 Z"/>
<path fill="#ffff00" fill-rule="evenodd" stroke="none" d="M 230.869 489.346 C 230.869 489.345 235.669 478.894 235.670 478.893 C 235.670 478.893 235.922 484.171 235.923 484.171 C 235.923 484.171 241.204 484.299 241.205 484.299 C 241.204 484.300 230.870 489.345 230.869 489.346 Z"/>
<path fill="#ffff00" fill-rule="evenodd" stroke="none" d="M 490.457 489.218 C 490.456 489.217 485.448 478.864 485.447 478.863 C 485.447 478.864 485.300 484.145 485.300 484.146 C 485.300 484.146 480.022 484.380 480.021 484.380 C 480.022 484.380 490.456 489.217 490.457 489.218 Z"/>
<path fill="#00ff00" fill-rule="evenodd" stroke="none" d="M 715.641 361.009 C 715.639 361.008 694.659 353.395 694.656 353.394 C 694.657 353.395 701.604 360.937 701.604 360.938 C 701.604 360.939 694.582 368.410 694.581 368.410 C 694.583 368.410 715.639 361.009 715.641 361.009 Z"/>
<path fill="#00ffff" fill-rule="evenodd" stroke="none" d="M 489.600 229.120 C 489.600 229.121 485.760 239.962 485.760 239.963 C 485.760 239.963 485.033 234.730 485.033 234.729 C 485.032 234.729 479.761 235.077 479.760 235.077 C 479.761 235.076 489.599 229.121 489.600 229.120 Z"/>
<path fill="#00ffff" fill-rule="evenodd" stroke="none" d="M 231.075 229.479 C 231.076 229.481 235.629 240.041 235.630 240.042 C 235.630 240.042 236.006 234.772 236.006 234.771 C 236.007 234.771 241.290 234.767 241.290 234.767 C 241.289 234.767 231.076 229.480 231.075 229.479 Z"/>
<path fill="#be0027" fill-rule="evenodd" stroke="none" d="M 360.000 549.947 C 360.001 549.945 366.610 531.438 366.611 531.436 C 366.610 531.436 360.001 537.586 360.000 537.587 C 359.999 537.586 353.390 531.436 353.389 531.436 C 353.390 531.438 359.999 549.945 360.000 549.947 Z"/>
</g>
</g>
</svg>
