<?xml version="1.0" encoding="utf-8"?>
<!-- Generator: Moho 12.5 build 22414 -->
<!DOCTYPE svg PUBLIC "-//W3C//DTD SVG 1.1//EN" "http://www.w3.org/Graphics/SVG/1.1/DTD/svg11.dtd">
<svg version="1.1" id="Frame_0" xmlns="http://www.w3.org/2000/svg" xmlns:xlink="http://www.w3.org/1999/xlink" width="720px" height="720px">
<g id="scales">
<g id="scales">
<path fill="#ffffff" fill-rule="evenodd" stroke="#000000" stroke-width="4" stroke-linecap="round" stroke-linejoin="round" d="M 359.988 114.240 C 359.990 114.285 384.820 569.991 384.823 570.037 C 384.818 570.037 335.158 570.037 335.153 570.037 C 335.155 569.991 359.985 114.285 359.988 114.240 Z"/>
<path fill="#ffffff" fill-rule="evenodd" stroke="#000000" stroke-width="4" stroke-linecap="round" stroke-linejoin="round" d="M 269.248 412.861 C 202.514 412.861 88.821 412.861 21.362 412.861 C 54.899 440.714 98.106 457.476 145.330 457.476 C 192.553 457.476 241.792 435.740 269.248 412.861 M 450.563 412.861 C 517.297 412.861 630.990 412.861 698.449 412.861 C 664.912 440.714 621.705 457.476 574.481 457.476 C 527.258 457.476 478.019 435.740 450.563 412.861 Z"/>
<path fill="#ffffff" fill-rule="evenodd" stroke="#000000" stroke-width="4" stroke-linecap="round" stroke-linejoin="round" d="M 157.067 151.623 C 154.067 148.624 149.920 146.772 145.330 146.772 C 140.739 146.772 136.592 148.624 133.593 151.623 C 130.593 154.622 128.742 158.769 128.742 163.360 C 128.742 167.950 133.592 175.095 133.592 175.097 C 133.594 175.097 140.739 179.948 145.330 179.948 C 149.920 179.948 157.065 175.097 157.067 175.097 C 157.067 175.095 161.917 167.950 161.917 163.360 C 161.917 158.769 160.066 154.622 157.067 151.623 M 562.745 151.623 C 565.744 148.624 569.891 146.772 574.481 146.772 C 579.072 146.772 583.219 148.624 586.218 151.623 C 589.218 154.622 591.069 158.769 591.069 163.360 C 591.070 167.950 586.219 175.095 586.219 175.097 C 586.217 175.097 579.072 179.948 574.481 179.948 C 569.891 179.948 562.746 175.097 562.745 175.097 C 562.744 175.095 557.894 167.950 557.894 163.360 C 557.894 158.769 559.745 154.622 562.745 151.623 Z"/>
<path fill="#ffffff" fill-rule="evenodd" stroke="#000000" stroke-width="4" stroke-linecap="round" stroke-linejoin="round" d="M 359.988 137.619 C 360.009 137.620 577.341 142.740 577.342 142.738 C 577.320 142.735 360.010 110.040 359.988 110.038 C 359.800 110.040 142.491 142.735 142.470 142.738 C 142.470 142.740 360.047 137.620 359.988 137.619 Z"/>
<path fill="none" stroke="#000000" stroke-width="4" stroke-linecap="round" stroke-linejoin="round" d="M 562.745 175.097 C 525.351 254.351 487.957 333.606 450.563 412.861 C 517.297 412.861 630.990 412.861 698.449 412.861 C 661.039 333.606 623.629 254.351 586.219 175.097 "/>
<path fill="none" stroke="#000000" stroke-width="4" stroke-linecap="round" stroke-linejoin="round" d="M 157.067 175.097 C 194.460 254.351 231.854 333.606 269.248 412.861 C 202.514 412.861 88.821 412.861 21.362 412.861 C 58.772 333.606 96.182 254.351 133.592 175.097 "/>
<path fill="#ffffff" fill-rule="evenodd" stroke="#000000" stroke-width="4" stroke-linecap="round" stroke-linejoin="round" d="M 224.339 559.912 C 224.366 559.912 495.610 559.912 495.637 559.912 C 495.637 559.914 495.637 583.933 495.637 583.936 C 495.610 583.936 224.366 583.936 224.339 583.936 C 224.339 583.933 224.339 559.914 224.339 559.912 Z"/>
<path fill="#ffffff" fill-rule="evenodd" stroke="#000000" stroke-width="4" stroke-linecap="round" stroke-linejoin="round" d="M 196.614 581.648 C 196.647 581.648 523.328 581.648 523.361 581.648 C 523.361 581.650 523.361 605.669 523.361 605.671 C 523.328 605.671 196.647 605.671 196.614 605.671 C 196.614 605.669 196.614 581.650 196.614 581.648 Z"/>
<path fill="#ffffff" fill-rule="evenodd" stroke="#000000" stroke-width="4" stroke-linecap="round" stroke-linejoin="round" d="M 172.895 603.855 C 172.932 603.855 547.044 603.855 547.081 603.855 C 547.081 603.858 547.081 627.877 547.081 627.879 C 547.044 627.879 172.932 627.879 172.895 627.879 C 172.895 627.877 172.895 603.858 172.895 603.855 Z"/>
</g>
<g id="specs_2">
<path fill="#ff00ff" fill-rule="evenodd" stroke="none" d="M 37.439 413.237 C 37.461 413.237 252.697 413.237 252.719 413.237 C 252.719 413.216 252.719 197.980 252.719 197.958 C 252.697 197.958 37.461 197.958 37.439 197.958 C 37.439 197.980 37.439 413.216 37.439 413.237 Z"/>
<path fill="#ff0000" fill-rule="evenodd" stroke="none" d="M 360.000 677.433 C 360.001 677.436 372.416 712.199 372.417 712.202 C 372.416 712.201 360.001 700.649 360.000 700.648 C 359.999 700.649 347.584 712.201 347.583 712.202 C 347.584 712.199 359.999 677.436 360.000 677.433 Z"/>
<path fill="#0000ff" fill-rule="evenodd" stroke="none" d="M 360.000 95.207 C 360.001 95.209 367.212 115.402 367.213 115.404 C 367.212 115.404 360.001 108.694 360.000 108.693 C 359.999 108.694 352.788 115.404 352.787 115.404 C 352.788 115.402 359.999 95.209 360.000 95.207 Z"/>
<path fill="#00ff00" fill-rule="evenodd" stroke="none" d="M 4.148 413.656 C 4.150 413.656 25.173 406.027 25.175 406.026 C 25.175 406.027 18.214 413.585 18.214 413.585 C 18.214 413.586 25.251 421.072 25.251 421.073 C 25.249 421.072 4.150 413.657 4.148 413.656 Z"/>
<path fill="#ffff00" fill-rule="evenodd" stroke="none" d="M 164.680 633.632 C 164.681 633.631 171.904 617.904 171.905 617.902 C 171.905 617.903 172.285 625.845 172.285 625.845 C 172.286 625.845 180.234 626.038 180.235 626.038 C 180.233 626.039 164.682 633.631 164.680 633.632 Z"/>
<path fill="#ffff00" fill-rule="evenodd" stroke="none" d="M 555.320 633.439 C 555.319 633.438 547.782 617.859 547.781 617.857 C 547.781 617.858 547.560 625.806 547.560 625.807 C 547.560 625.807 539.617 626.159 539.616 626.159 C 539.617 626.160 555.318 633.439 555.320 633.439 Z"/>
<path fill="#00ff00" fill-rule="evenodd" stroke="none" d="M 715.852 413.656 C 715.850 413.656 694.827 406.027 694.825 406.026 C 694.825 406.027 701.786 413.585 701.786 413.585 C 701.786 413.586 694.749 421.072 694.749 421.073 C 694.751 421.072 715.850 413.657 715.852 413.656 Z"/>
<path fill="#00ffff" fill-rule="evenodd" stroke="none" d="M 592.308 127.817 C 592.308 127.819 585.409 147.297 585.409 147.299 C 585.409 147.298 584.102 137.895 584.102 137.894 C 584.101 137.894 574.629 138.520 574.628 138.520 C 574.630 138.519 592.307 127.818 592.308 127.817 Z"/>
<path fill="#00ffff" fill-rule="evenodd" stroke="none" d="M 127.803 128.462 C 127.804 128.464 135.986 147.439 135.987 147.441 C 135.987 147.440 136.663 137.971 136.663 137.970 C 136.664 137.970 146.156 137.963 146.157 137.963 C 146.156 137.962 127.805 128.463 127.803 128.462 Z"/>
<path fill="#be0027" fill-rule="evenodd" stroke="none" d="M 360.000 651.592 C 360.001 651.589 372.416 616.826 372.417 616.823 C 372.416 616.824 360.001 628.376 360.000 628.377 C 359.999 628.376 347.584 616.824 347.583 616.823 C 347.584 616.826 359.999 651.589 360.000 651.592 Z"/>
<path fill="#ff00ff" fill-rule="evenodd" stroke="none" d="M 682.561 413.238 C 682.539 413.238 467.303 413.238 467.281 413.238 C 467.281 413.216 467.281 197.980 467.281 197.958 C 467.303 197.958 682.539 197.958 682.561 197.958 C 682.561 197.980 682.561 413.216 682.561 413.238 Z"/>
</g>
</g>
</svg>
