<?xml version="1.0" encoding="utf-8"?>
<!-- Generator: Moho 12.5 build 22414 -->
<!DOCTYPE svg PUBLIC "-//W3C//DTD SVG 1.1//EN" "http://www.w3.org/Graphics/SVG/1.1/DTD/svg11.dtd">
<svg version="1.1" id="Frame_0" xmlns="http://www.w3.org/2000/svg" xmlns:xlink="http://www.w3.org/1999/xlink" width="720px" height="720px">
<g id="scales">
<g id="scales">
<path fill="#ffffff" fill-rule="evenodd" stroke="#000000" stroke-width="4" stroke-linecap="round" stroke-linejoin="round" d="M 359.988 114.240 C 359.990 114.285 384.820 569.991 384.823 570.037 C 384.818 570.037 335.158 570.037 335.153 570.037 C 335.155 569.991 359.985 114.285 359.988 114.240 Z"/>
<path fill="#ffffff" fill-rule="evenodd" stroke="#000000" stroke-width="4" stroke-linecap="round" stroke-linejoin="round" d="M 269.248 412.861 C 202.514 412.861 88.821 412.861 21.362 412.861 C 54.899 440.714 98.106 457.476 145.330 457.476 C 192.553 457.476 241.792 435.740 269.248 412.861 M 450.563 412.861 C 517.297 412.861 630.990 412.861 698.449 412.861 C 664.912 440.714 621.705 457.476 574.481 457.476 C 527.258 457.476 478.019 435.740 450.563 412.861 Z"/>
<path fill="#ffffff" fill-rule="evenodd" stroke="#000000" stroke-width="4" stroke-linecap="round" stroke-linejoin="round" d="M 157.067 151.623 C 154.067 148.624 149.920 146.772 145.330 146.772 C 140.739 146.772 136.592 148.624 133.593 151.623 C 130.593 154.622 128.742 158.769 128.742 163.360 C 128.742 167.950 133.592 175.095 133.592 175.097 C 133.594 175.097 140.739 179.948 145.330 179.948 C 149.920 179.948 157.065 175.097 157.067 175.097 C 157.067 175.095 161.917 167.950 161.917 163.360 C 161.917 158.769 160.066 154.622 157.067 151.623 M 562.745 151.623 C 565.744 148.624 569.891 146.772 574.481 146.772 C 579.072 146.772 583.219 148.624 586.218 151.623 C 589.218 154.622 591.069 158.769 591.069 163.360 C 591.070 167.950 586.219 175.095 586.219 175.097 C 586.217 175.097 579.072 179.948 574.481 179.948 C 569.891 179.948 562.746 175.097 562.745 175.097 C 562.744 175.095 557.894 167.950 557.894 163.360 C 557.894 158.769 559.745 154.622 562.745 151.623 Z"/>
<path fill="#ffffff" fill-rule="evenodd" stroke="#000000" stroke-width="4" stroke-linecap="round" stroke-linejoin="round" d="M 359.988 137.619 C 360.009 137.620 577.341 142.740 577.342 142.738 C 577.320 142.735 360.010 110.040 359.988 110.038 C 359.800 110.040 142.491 142.735 142.470 142.738 C 142.470 142.740 360.047 137.620 359.988 137.619 Z"/>
<path fill="none" stroke="#000000" stroke-width="4" stroke-linecap="round" stroke-linejoin="round" d="M 562.745 175.097 C 525.351 254.351 487.957 333.606 450.563 412.861 C 517.297 412.861 630.990 412.861 698.449 412.861 C 661.039 333.606 623.629 254.351 586.219 175.097 "/>
<path fill="none" stroke="#000000" stroke-width="4" stroke-linecap="round" stroke-linejoin="round" d="M 157.067 175.097 C 194.460 254.351 231.854 333.606 269.248 412.861 C 202.514 412.861 88.821 412.861 21.362 412.861 C 58.772 333.606 96.182 254.351 133.592 175.097 "/>
<path fill="#ffffff" fill-rule="evenodd" stroke="#000000" stroke-width="4" stroke-linecap="round" stroke-linejoin="round" d="M 224.339 559.912 C 224.366 559.912 495.610 559.912 495.637 559.912 C 495.637 559.914 495.637 583.933 495.637 583.936 C 495.610 583.936 224.366 583.936 224.339 583.936 C 224.339 583.933 224.339 559.914 224.339 559.912 Z"/>
<path fill="#ffffff" fill-rule="evenodd" stroke="#000000" stroke-width="4" stroke-linecap="round" stroke-linejoin="round" d="M 196.614 581.648 C 196.647 581.648 523.328 581.648 523.361 581.648 C 523.361 581.650 523.361 605.669 523.361 605.671 C 523.328 605.671 196.647 605.671 196.614 605.671 C 196.614 605.669 196.614 581.650 196.614 581.648 Z"/>
</g>
<g id="specs_2">
<path fill="#ff00ff" fill-rule="evenodd" stroke="none" d="M 37.439 413.237 C 37.461 413.237 252.697 413.237 252.719 413.237 C 252.719 413.216 252.719 197.980 252.719 197.958 C 252.697 197.958 37.461 197.958 37.439 197.958 C 37.439 197.980 37.439 413.216 37.439 413.237 Z"/>
<path fill="#ff0000" fill-rule="evenodd" stroke="none" d="M 360.000 662.331 C 360.001 662.335 372.416 697.097 372.417 697.101 C 372.416 697.100 360.001 685.548 360.000 685.547 C 359.999 685.548 347.584 697.100 347.583 697.101 C 347.584 697.097 359.999 662.335 360.000 662.331 Z"/>
<path fill="#0000ff" fill-rule="evenodd" stroke="none" d="M 360.000 95.207 C 360.001 95.209 367.212 115.402 367.213 115.404 C 367.212 115.404 360.001 108.694 360.000 108.693 C 359.999 108.694 352.788 115.404 352.787 115.404 C 352.788 115.402 359.999 95.209 360.000 95.207 Z"/>
<path fill="#00ff00" fill-rule="evenodd" stroke="none" d="M 4.148 413.656 C 4.150 413.656 25.173 406.027 25.175 406.026 C 25.175 406.027 18.214 413.585 18.214 413.585 C 18.214 413.586 25.251 421.072 25.251 421.073 C 25.249 421.072 4.150 413.657 4.148 413.656 Z"/>
<path fill="#ffff00" fill-rule="evenodd" stroke="none" d="M 190.180 611.283 C 190.181 611.282 196.461 597.608 196.462 597.607 C 196.462 597.607 196.792 604.512 196.792 604.513 C 196.793 604.513 203.703 604.680 203.704 604.680 C 203.703 604.681 190.182 611.282 190.180 611.283 Z"/>
<path fill="#ffff00" fill-rule="evenodd" stroke="none" d="M 529.820 611.115 C 529.819 611.114 523.266 597.569 523.265 597.568 C 523.265 597.568 523.073 604.479 523.073 604.479 C 523.073 604.479 516.167 604.785 516.166 604.785 C 516.167 604.786 529.818 611.115 529.820 611.115 Z"/>
<path fill="#00ff00" fill-rule="evenodd" stroke="none" d="M 715.852 413.656 C 715.850 413.656 694.827 406.027 694.825 406.026 C 694.825 406.027 701.786 413.585 701.786 413.585 C 701.786 413.586 694.749 421.072 694.749 421.073 C 694.751 421.072 715.850 413.657 715.852 413.656 Z"/>
<path fill="#00ffff" fill-rule="evenodd" stroke="none" d="M 592.308 127.817 C 592.308 127.819 585.409 147.297 585.409 147.299 C 585.409 147.298 584.102 137.895 584.102 137.894 C 584.101 137.894 574.629 138.520 574.628 138.520 C 574.630 138.519 592.307 127.818 592.308 127.817 Z"/>
<path fill="#00ffff" fill-rule="evenodd" stroke="none" d="M 127.803 128.462 C 127.804 128.464 135.986 147.439 135.987 147.441 C 135.987 147.440 136.663 137.971 136.663 137.970 C 136.664 137.970 146.156 137.963 146.157 137.963 C 146.156 137.962 127.805 128.463 127.803 128.462 Z"/>
<path fill="#be0027" fill-rule="evenodd" stroke="none" d="M 360.000 630.273 C 360.001 630.270 372.416 595.507 372.417 595.503 C 372.416 595.505 360.001 607.056 360.000 607.057 C 359.999 607.056 347.584 595.505 347.583 595.503 C 347.584 595.507 359.999 630.270 360.000 630.273 Z"/>
<path fill="#ff00ff" fill-rule="evenodd" stroke="none" d="M 682.561 413.238 C 682.539 413.238 467.303 413.238 467.281 413.238 C 467.281 413.216 467.281 197.980 467.281 197.958 C 467.303 197.958 682.539 197.958 682.561 197.958 C 682.561 197.980 682.561 413.216 682.561 413.238 Z"/>
</g>
</g>
</svg>
