<?xml version="1.0" encoding="utf-8"?>
<!-- Generator: Moho 12.5 build 22414 -->
<!DOCTYPE svg PUBLIC "-//W3C//DTD SVG 1.1//EN" "http://www.w3.org/Graphics/SVG/1.1/DTD/svg11.dtd">
<svg version="1.1" id="Frame_0" xmlns="http://www.w3.org/2000/svg" xmlns:xlink="http://www.w3.org/1999/xlink" width="720px" height="720px">
<g id="scroll_double">
<g id="double_scroll">
<path fill="#ffffff" fill-rule="evenodd" stroke="#000000" stroke-width="4" stroke-linecap="round" stroke-linejoin="round" d="M 117.035 126.277 C 117.083 126.277 602.917 126.277 602.965 126.277 C 602.965 126.316 602.965 512.586 602.965 512.624 C 602.917 512.624 117.083 512.624 117.035 512.624 C 117.035 512.586 117.035 126.316 117.035 126.277 Z"/>
<path fill="#ffffff" fill-rule="evenodd" stroke="#000000" stroke-width="4" stroke-linecap="round" stroke-linejoin="round" d="M 100.353 646.445 C 103.936 649.212 125.524 649.212 129.106 646.445 C 145.518 633.767 126.767 568.588 129.106 514.714 C 129.111 514.607 118.287 511.581 114.730 511.581 C 111.173 511.581 100.351 514.678 100.353 514.714 C 103.944 568.929 83.942 633.767 100.353 646.445 Z"/>
<path fill="#ffffff" fill-rule="evenodd" stroke="#000000" stroke-width="4" stroke-linecap="round" stroke-linejoin="round" d="M 37.173 514.158 C 37.173 391.359 37.173 145.799 37.173 145.762 C 36.650 154.607 61.433 165.151 114.730 165.151 C 168.026 165.151 191.383 153.331 192.287 145.762 C 192.287 268.560 192.287 391.359 192.287 514.158 C 192.287 521.980 168.026 533.548 114.730 533.548 C 61.433 533.548 37.173 523.379 37.173 514.158 Z"/>
<path fill="none" stroke="#ffffff" stroke-width="1" stroke-linecap="butt" stroke-linejoin="round" d="M 192.287 145.762 C 191.383 153.331 168.026 165.151 114.730 165.151 "/>
<path fill="none" stroke="#ffffff" stroke-width="1" stroke-linecap="butt" stroke-linejoin="round" d="M 114.730 165.151 C 61.433 165.151 36.650 154.607 37.173 145.762 "/>
<path fill="#ffffff" fill-rule="evenodd" stroke="#000000" stroke-width="4" stroke-linecap="round" stroke-linejoin="round" d="M 114.730 126.373 C 168.026 126.373 193.408 136.369 192.287 145.762 C 191.383 153.331 168.026 165.151 114.730 165.151 C 61.433 165.151 36.650 154.607 37.173 145.762 C 37.744 136.105 61.434 126.373 114.730 126.373 Z"/>
<path fill="#ffffff" fill-rule="evenodd" stroke="#000000" stroke-width="4" stroke-linecap="round" stroke-linejoin="round" d="M 100.353 14.586 C 103.935 11.819 125.524 11.819 129.106 14.586 C 145.518 27.265 126.767 92.443 129.106 146.318 C 129.111 146.424 118.287 149.450 114.730 149.450 C 111.172 149.450 100.351 146.353 100.353 146.318 C 103.944 92.102 83.942 27.265 100.353 14.586 Z"/>
<path fill="#ffffff" fill-rule="evenodd" stroke="#000000" stroke-width="4" stroke-linecap="round" stroke-linejoin="round" d="M 590.894 646.445 C 594.476 649.212 616.064 649.212 619.647 646.445 C 636.058 633.767 617.308 568.588 619.647 514.714 C 619.651 514.608 608.828 511.581 605.270 511.581 C 601.713 511.581 590.892 514.678 590.894 514.714 C 594.484 568.929 574.482 633.767 590.894 646.445 Z"/>
<path fill="#ffffff" fill-rule="evenodd" stroke="#000000" stroke-width="4" stroke-linecap="round" stroke-linejoin="round" d="M 527.713 514.158 C 527.713 391.359 527.713 145.799 527.713 145.762 C 527.190 154.607 551.974 165.151 605.270 165.151 C 658.567 165.151 681.924 153.331 682.827 145.762 C 682.827 268.560 682.827 391.359 682.827 514.158 C 682.827 521.980 658.567 533.548 605.270 533.548 C 551.974 533.548 527.713 523.379 527.713 514.158 Z"/>
<path fill="none" stroke="#ffffff" stroke-width="1" stroke-linecap="butt" stroke-linejoin="round" d="M 682.827 145.762 C 681.924 153.331 658.567 165.151 605.270 165.151 "/>
<path fill="none" stroke="#ffffff" stroke-width="1" stroke-linecap="butt" stroke-linejoin="round" d="M 605.270 165.151 C 551.974 165.151 527.190 154.607 527.713 145.762 "/>
<path fill="#ffffff" fill-rule="evenodd" stroke="#000000" stroke-width="4" stroke-linecap="round" stroke-linejoin="round" d="M 605.270 126.373 C 658.567 126.373 683.948 136.369 682.827 145.762 C 681.924 153.331 658.567 165.151 605.270 165.151 C 551.974 165.151 527.190 154.607 527.713 145.762 C 528.284 136.105 551.974 126.373 605.270 126.373 Z"/>
<path fill="#ffffff" fill-rule="evenodd" stroke="#000000" stroke-width="4" stroke-linecap="round" stroke-linejoin="round" d="M 590.894 14.586 C 594.476 11.819 616.064 11.819 619.647 14.586 C 636.058 27.265 617.308 92.443 619.647 146.318 C 619.651 146.424 608.828 149.450 605.270 149.450 C 601.713 149.450 590.892 146.353 590.894 146.318 C 594.484 92.102 574.482 27.265 590.894 14.586 Z"/>
</g>
<g id="specs_2">
<path fill="#ff00ff" fill-rule="evenodd" stroke="none" d="M 203.728 472.957 C 203.759 472.957 516.241 472.957 516.272 472.957 C 516.272 472.926 516.272 160.444 516.272 160.413 C 516.241 160.413 203.759 160.413 203.728 160.413 C 203.728 160.444 203.728 472.926 203.728 472.957 Z"/>
<path fill="#ff0000" fill-rule="evenodd" stroke="none" d="M 360.000 679.861 C 360.001 679.865 372.037 713.566 372.038 713.569 C 372.037 713.568 360.001 702.369 360.000 702.368 C 359.999 702.369 347.963 713.568 347.962 713.569 C 347.963 713.566 359.999 679.865 360.000 679.861 Z"/>
<path fill="#0000ff" fill-rule="evenodd" stroke="none" d="M 360.000 78.448 C 360.001 78.450 366.992 98.026 366.993 98.028 C 366.992 98.028 360.001 91.523 360.000 91.522 C 359.999 91.523 353.008 98.028 353.007 98.028 C 353.008 98.026 359.999 78.450 360.000 78.448 Z"/>
<path fill="#00ff00" fill-rule="evenodd" stroke="none" d="M 29.240 331.487 C 29.242 331.487 48.783 324.396 48.785 324.395 C 48.784 324.396 42.315 331.421 42.314 331.421 C 42.315 331.422 48.855 338.380 48.855 338.381 C 48.853 338.380 29.242 331.488 29.240 331.487 Z"/>
<path fill="#ffff00" fill-rule="evenodd" stroke="none" d="M 98.901 592.843 C 98.902 592.840 108.558 571.817 108.559 571.815 C 108.559 571.816 109.067 582.432 109.067 582.433 C 109.068 582.433 119.693 582.691 119.694 582.691 C 119.692 582.692 98.903 592.841 98.901 592.843 Z"/>
<path fill="#ffff00" fill-rule="evenodd" stroke="none" d="M 621.099 592.585 C 621.098 592.583 611.022 571.758 611.021 571.755 C 611.021 571.757 610.726 582.381 610.726 582.382 C 610.725 582.382 600.107 582.852 600.106 582.853 C 600.108 582.854 621.097 592.584 621.099 592.585 Z"/>
<path fill="#00ff00" fill-rule="evenodd" stroke="none" d="M 690.760 331.487 C 690.758 331.487 671.217 324.396 671.215 324.395 C 671.216 324.396 677.685 331.421 677.686 331.421 C 677.685 331.422 671.145 338.380 671.145 338.381 C 671.147 338.380 690.758 331.488 690.760 331.487 Z"/>
<path fill="#00ffff" fill-rule="evenodd" stroke="none" d="M 620.090 69.365 C 620.089 69.367 612.366 91.175 612.365 91.177 C 612.365 91.176 610.902 80.649 610.902 80.648 C 610.901 80.648 600.296 81.348 600.295 81.348 C 600.297 81.347 620.088 69.366 620.090 69.365 Z"/>
<path fill="#00ffff" fill-rule="evenodd" stroke="none" d="M 100.031 70.088 C 100.032 70.090 109.192 91.334 109.193 91.336 C 109.193 91.335 109.950 80.734 109.950 80.733 C 109.951 80.733 120.579 80.725 120.580 80.725 C 120.578 80.723 100.033 70.089 100.031 70.088 Z"/>
<path fill="#be0027" fill-rule="evenodd" stroke="none" d="M 360.000 581.109 C 360.001 581.105 372.037 547.404 372.038 547.401 C 372.037 547.402 360.001 558.601 360.000 558.602 C 359.999 558.601 347.963 547.402 347.962 547.401 C 347.963 547.404 359.999 581.105 360.000 581.109 Z"/>
</g>
</g>
</svg>
