<?xml version="1.0" encoding="utf-8"?>
<!-- Generator: Moho 12.5 build 22414 -->
<!DOCTYPE svg PUBLIC "-//W3C//DTD SVG 1.1//EN" "http://www.w3.org/Graphics/SVG/1.1/DTD/svg11.dtd">
<svg version="1.1" id="Frame_0" xmlns="http://www.w3.org/2000/svg" xmlns:xlink="http://www.w3.org/1999/xlink" width="720px" height="720px">
<g id="shedu_foreleg">
<g id="Shedu_foreleg">
<path fill="#ffffff" fill-rule="evenodd" stroke="none" d="M 453.067 144.680 C 453.060 144.708 390.332 420.782 390.326 420.810 C 390.326 420.829 392.558 610.032 392.558 610.051 C 392.549 610.052 301.997 624.776 301.988 624.778 C 301.983 624.759 259.260 437.765 259.256 437.746 C 259.257 437.715 266.772 131.456 266.771 131.426 C 266.790 131.428 453.048 144.679 453.067 144.680 Z"/>
<path fill="none" stroke="#000000" stroke-width="2" stroke-linejoin="round" d="M 326.264 429.646 C 326.265 429.662 335.115 538.135 339.541 592.379 M 362.496 159.407 C 350.419 249.487 326.267 429.619 326.264 429.646 M 266.771 131.426 C 266.790 131.428 453.048 144.679 453.067 144.680 C 453.060 144.708 390.332 420.782 390.326 420.810 C 390.326 420.829 392.558 610.032 392.558 610.051 C 392.549 610.052 301.997 624.776 301.988 624.778 C 301.983 624.759 259.260 437.765 259.256 437.746 C 259.257 437.715 266.772 131.456 266.771 131.426 "/>
<path fill="#ffffff" fill-rule="evenodd" stroke="#000000" stroke-width="2" stroke-linejoin="round" d="M 345.377 558.058 C 375.445 558.058 399.702 582.314 399.702 612.383 C 399.702 642.452 375.446 666.708 345.377 666.708 C 315.308 666.708 291.051 642.452 291.051 612.383 C 291.051 582.314 315.308 558.058 345.377 558.058 Z"/>
<path fill="#ffffff" fill-rule="evenodd" stroke="#000000" stroke-width="2" stroke-linejoin="round" d="M 416.107 683.382 C 416.106 683.380 411.823 670.997 411.703 664.121 C 411.432 648.581 417.972 634.539 428.126 624.385 C 438.281 614.231 452.320 607.961 467.862 607.961 C 483.404 607.962 497.444 614.231 507.598 624.385 C 517.752 634.539 524.293 648.581 524.021 664.121 C 523.901 670.997 519.618 683.382 519.618 683.382 C 485.116 683.020 416.117 683.382 416.107 683.382 Z"/>
<path fill="#ffffff" fill-rule="evenodd" stroke="#000000" stroke-width="2" stroke-linejoin="round" d="M 500.406 683.382 C 500.406 683.381 497.821 675.907 497.749 671.758 C 497.585 662.380 501.532 653.905 507.660 647.777 C 513.788 641.649 522.261 637.865 531.641 637.865 C 541.020 637.865 549.493 641.649 555.621 647.777 C 561.749 653.905 565.697 662.380 565.533 671.758 C 565.461 675.907 562.875 683.382 562.875 683.382 C 542.053 683.163 500.412 683.382 500.406 683.382 Z"/>
<path fill="#ffffff" fill-rule="evenodd" stroke="#000000" stroke-width="2" stroke-linejoin="round" d="M 558.864 683.382 C 558.864 683.382 556.210 680.380 556.206 678.421 C 556.197 673.271 561.953 670.489 566.118 668.187 C 573.236 664.252 581.297 663.956 590.099 663.956 C 598.901 663.957 621.334 683.382 621.334 683.382 C 600.751 680.224 558.870 683.382 558.864 683.382 Z"/>
<path fill="#ffffff" fill-rule="evenodd" stroke="#000000" stroke-width="2" stroke-linejoin="round" d="M 334.597 687.672 C 334.596 687.670 329.378 672.586 329.232 664.211 C 328.901 645.282 336.868 628.178 349.237 615.810 C 361.606 603.442 378.707 595.807 397.637 595.806 C 416.568 595.806 433.669 603.441 446.038 615.810 C 458.406 628.178 466.372 645.283 466.041 664.211 C 465.895 672.586 460.678 687.672 460.678 687.672 C 418.653 687.233 334.609 687.672 334.597 687.672 Z"/>
<path fill="#ffffff" fill-rule="evenodd" stroke="#000000" stroke-width="2" stroke-linejoin="round" d="M 437.276 687.672 C 437.276 687.671 434.128 678.568 434.040 673.514 C 433.841 662.091 438.648 651.768 446.113 644.304 C 453.577 636.839 463.898 632.231 475.323 632.231 C 486.747 632.231 497.068 636.839 504.533 644.304 C 511.997 651.768 516.805 662.091 516.605 673.514 C 516.517 678.568 513.368 687.671 513.368 687.671 C 488.005 687.404 437.284 687.672 437.276 687.672 Z"/>
<path fill="#ffffff" fill-rule="evenodd" stroke="#000000" stroke-width="2" stroke-linejoin="round" d="M 508.481 687.672 C 508.481 687.672 505.249 684.015 505.245 681.629 C 505.233 675.356 512.245 671.967 517.317 669.163 C 525.987 664.371 535.806 664.011 546.527 664.011 C 557.249 664.011 584.574 687.672 584.574 687.672 C 559.503 683.826 508.488 687.671 508.481 687.672 Z"/>
<path fill="#ffffff" fill-rule="evenodd" stroke="#000000" stroke-width="2" stroke-linejoin="round" d="M 315.041 692.439 C 315.040 692.437 310.938 680.579 310.823 673.994 C 310.563 659.114 316.827 645.667 326.550 635.943 C 336.274 626.220 349.719 620.216 364.602 620.216 C 379.484 620.216 392.929 626.220 402.653 635.943 C 412.376 645.667 418.639 659.114 418.379 673.994 C 418.264 680.579 414.162 692.439 414.162 692.439 C 381.124 692.093 315.050 692.439 315.041 692.439 Z"/>
<path fill="#ffffff" fill-rule="evenodd" stroke="#000000" stroke-width="2" stroke-linejoin="round" d="M 395.765 692.439 C 395.765 692.438 393.290 685.282 393.220 681.308 C 393.064 672.327 396.843 664.212 402.711 658.344 C 408.580 652.475 416.694 648.852 425.676 648.852 C 434.658 648.852 442.771 652.475 448.640 658.344 C 454.508 664.212 458.288 672.327 458.131 681.308 C 458.061 685.281 455.585 692.438 455.585 692.438 C 435.646 692.228 395.771 692.439 395.765 692.439 Z"/>
<path fill="#ffffff" fill-rule="evenodd" stroke="#000000" stroke-width="2" stroke-linejoin="round" d="M 451.743 692.439 C 451.743 692.439 449.203 689.564 449.200 687.688 C 449.191 682.756 454.703 680.092 458.691 677.887 C 465.507 674.119 473.226 673.837 481.655 673.837 C 490.083 673.837 511.566 692.439 511.566 692.439 C 491.856 689.415 451.749 692.438 451.743 692.439 Z"/>
<path fill="#ffffff" fill-rule="evenodd" stroke="#000000" stroke-width="2" stroke-linejoin="round" d="M 240.957 423.385 C 240.957 375.926 279.243 337.640 326.702 337.640 C 374.161 337.640 412.447 375.926 412.447 423.385 C 412.447 470.844 374.161 509.130 326.702 509.130 C 279.243 509.130 240.957 470.844 240.957 423.385 M 250.733 144.164 C 250.733 83.319 299.818 34.234 360.663 34.234 C 421.508 34.234 470.592 83.319 470.592 144.164 C 470.592 205.009 421.508 254.094 360.663 254.094 C 299.817 254.094 250.733 205.009 250.733 144.164 Z"/>
</g>
<g id="specs_2">
<path fill="#ff0000" fill-rule="evenodd" stroke="none" d="M 360.000 165.222 C 360.001 165.218 372.432 130.413 372.433 130.409 C 372.432 130.410 360.001 141.976 360.000 141.977 C 359.999 141.976 347.568 130.410 347.567 130.409 C 347.568 130.413 359.999 165.218 360.000 165.222 Z"/>
<path fill="#0000ff" fill-rule="evenodd" stroke="none" d="M 360.000 17.772 C 360.001 17.774 367.221 37.992 367.222 37.994 C 367.221 37.993 360.001 31.275 360.000 31.274 C 359.999 31.275 352.779 37.993 352.778 37.994 C 352.779 37.992 359.999 17.774 360.000 17.772 Z"/>
<path fill="#00ff00" fill-rule="evenodd" stroke="none" d="M 222.782 423.067 C 222.784 423.066 246.212 414.565 246.214 414.564 C 246.213 414.565 238.457 422.987 238.456 422.988 C 238.457 422.989 246.298 431.331 246.299 431.332 C 246.296 431.331 222.784 423.068 222.782 423.067 Z"/>
<path fill="#ffff00" fill-rule="evenodd" stroke="none" d="M 504.772 697.147 C 504.770 697.146 485.260 688.186 485.258 688.185 C 485.259 688.185 495.111 687.713 495.112 687.713 C 495.112 687.712 495.351 677.853 495.351 677.852 C 495.352 677.854 504.771 697.145 504.772 697.147 Z"/>
<path fill="#ffff00" fill-rule="evenodd" stroke="none" d="M 609.725 690.344 C 609.724 690.342 600.374 671.016 600.373 671.014 C 600.373 671.015 600.099 680.874 600.099 680.875 C 600.098 680.875 590.245 681.312 590.244 681.312 C 590.246 681.313 609.723 690.343 609.725 690.344 Z"/>
<path fill="#00ff00" fill-rule="evenodd" stroke="none" d="M 430.817 423.067 C 430.815 423.066 407.387 414.565 407.385 414.564 C 407.385 414.565 415.142 422.987 415.142 422.988 C 415.142 422.989 407.301 431.331 407.300 431.332 C 407.303 431.331 430.815 423.068 430.817 423.067 Z"/>
<path fill="#00ffff" fill-rule="evenodd" stroke="none" d="M 459.794 69.824 C 459.794 69.826 452.627 90.063 452.626 90.065 C 452.626 90.064 451.269 80.295 451.268 80.294 C 451.267 80.294 441.426 80.944 441.425 80.944 C 441.427 80.943 459.793 69.825 459.794 69.824 Z"/>
<path fill="#00ffff" fill-rule="evenodd" stroke="none" d="M 260.206 70.494 C 260.206 70.496 268.707 90.211 268.708 90.213 C 268.708 90.212 269.411 80.374 269.411 80.373 C 269.412 80.373 279.274 80.365 279.275 80.365 C 279.273 80.364 260.207 70.495 260.206 70.494 Z"/>
<path fill="#be0027" fill-rule="evenodd" stroke="none" d="M 285.986 653.103 C 285.989 653.102 319.390 637.280 319.394 637.279 C 319.392 637.279 302.424 636.667 302.422 636.667 C 302.422 636.665 301.811 619.697 301.811 619.695 C 301.809 619.699 285.987 653.100 285.986 653.103 Z"/>
</g>
</g>
</svg>
