<?xml version="1.0" encoding="utf-8"?>
<!-- Generator: Moho 12.5 build 22414 -->
<!DOCTYPE svg PUBLIC "-//W3C//DTD SVG 1.1//EN" "http://www.w3.org/Graphics/SVG/1.1/DTD/svg11.dtd">
<svg version="1.1" id="Frame_0" xmlns="http://www.w3.org/2000/svg" xmlns:xlink="http://www.w3.org/1999/xlink" width="720px" height="720px">
<g id="shield">
<g id="shield">
<path fill="#ffffff" fill-rule="evenodd" stroke="#000000" stroke-width="2" stroke-linecap="round" stroke-linejoin="round" d="M 132.024 18.428 C 132.069 18.428 587.931 18.428 587.977 18.428 C 587.976 18.432 584.135 52.716 583.943 55.752 C 572.803 232.326 618.798 267.988 577.928 396.265 C 533.835 534.659 360.022 614.172 360.000 614.194 C 359.978 614.172 186.165 534.659 142.072 396.265 C 101.202 267.988 147.197 232.326 136.057 55.752 C 135.814 51.896 132.024 18.432 132.024 18.428 Z"/>
</g>
<g id="specs_2">
<path fill="#ff00ff" fill-rule="evenodd" stroke="none" d="M 179.608 441.082 C 179.644 441.082 540.356 441.082 540.392 441.082 C 540.392 441.046 540.392 80.335 540.392 80.298 C 540.356 80.298 179.644 80.298 179.608 80.298 C 179.608 80.335 179.608 441.046 179.608 441.082 Z"/>
<path fill="#ff0000" fill-rule="evenodd" stroke="none" d="M 360.000 675.479 C 360.001 675.482 371.586 707.919 371.587 707.922 C 371.586 707.921 360.001 697.142 360.000 697.141 C 359.999 697.142 348.414 707.921 348.413 707.922 C 348.414 707.919 359.999 675.482 360.000 675.479 Z"/>
<path fill="#0000ff" fill-rule="evenodd" stroke="none" d="M 360.000 5.594 C 360.001 5.596 366.730 24.438 366.730 24.440 C 366.730 24.440 360.001 18.179 360.000 18.178 C 359.999 18.179 353.270 24.440 353.270 24.440 C 353.270 24.438 359.999 5.596 360.000 5.594 Z"/>
<path fill="#00ff00" fill-rule="evenodd" stroke="none" d="M 118.005 317.954 C 118.006 317.953 136.814 311.128 136.816 311.128 C 136.815 311.128 130.589 317.890 130.588 317.890 C 130.589 317.891 136.883 324.588 136.884 324.589 C 136.882 324.588 118.006 317.955 118.005 317.954 Z"/>
<path fill="#ffff00" fill-rule="evenodd" stroke="none" d="M 206.795 523.924 C 206.796 523.922 215.146 505.740 215.147 505.738 C 215.147 505.739 215.587 514.920 215.587 514.921 C 215.588 514.921 224.776 515.144 224.777 515.144 C 224.775 515.145 206.797 523.923 206.795 523.924 Z"/>
<path fill="#ffff00" fill-rule="evenodd" stroke="none" d="M 513.205 523.701 C 513.204 523.699 504.490 505.689 504.490 505.687 C 504.490 505.688 504.234 514.876 504.234 514.877 C 504.233 514.877 495.051 515.284 495.050 515.284 C 495.052 515.285 513.203 523.700 513.205 523.701 Z"/>
<path fill="#00ff00" fill-rule="evenodd" stroke="none" d="M 601.995 317.954 C 601.994 317.953 583.186 311.128 583.184 311.128 C 583.185 311.128 589.411 317.890 589.412 317.890 C 589.411 317.891 583.117 324.588 583.116 324.589 C 583.118 324.588 601.994 317.955 601.995 317.954 Z"/>
<path fill="#00ffff" fill-rule="evenodd" stroke="none" d="M 584.933 19.282 C 584.932 19.284 578.253 38.144 578.252 38.145 C 578.252 38.145 576.987 29.040 576.987 29.039 C 576.986 29.040 567.815 29.645 567.814 29.645 C 567.816 29.644 584.931 19.283 584.933 19.282 Z"/>
<path fill="#00ffff" fill-rule="evenodd" stroke="none" d="M 135.171 19.907 C 135.172 19.909 143.094 38.281 143.095 38.283 C 143.095 38.282 143.750 29.114 143.750 29.113 C 143.751 29.113 152.942 29.106 152.943 29.106 C 152.941 29.105 135.173 19.908 135.171 19.907 Z"/>
<path fill="#be0027" fill-rule="evenodd" stroke="none" d="M 360.000 634.567 C 360.001 634.563 371.586 602.127 371.587 602.123 C 371.586 602.125 360.001 612.903 360.000 612.904 C 359.999 612.903 348.414 602.125 348.413 602.123 C 348.414 602.127 359.999 634.563 360.000 634.567 Z"/>
</g>
</g>
</svg>
