<?xml version="1.0" encoding="utf-8"?>
<!-- Generator: Moho 12.5 build 22414 -->
<!DOCTYPE svg PUBLIC "-//W3C//DTD SVG 1.1//EN" "http://www.w3.org/Graphics/SVG/1.1/DTD/svg11.dtd">
<svg version="1.1" id="Frame_0" xmlns="http://www.w3.org/2000/svg" xmlns:xlink="http://www.w3.org/1999/xlink" width="720px" height="720px">
<g id="shield_2">
<g id="shield_2">
<path fill="#ffffff" fill-rule="evenodd" stroke="#000000" stroke-width="2" stroke-linecap="round" stroke-linejoin="round" d="M 145.685 40.400 C 282.922 79.611 361.321 20.797 361.343 20.795 C 361.365 20.797 439.764 79.611 577.001 40.400 C 578.323 40.023 616.208 99.210 616.212 99.216 C 616.212 99.247 557.396 158.032 616.212 412.901 C 651.437 565.542 400.554 569.744 361.343 628.560 C 361.343 628.560 361.343 628.560 361.343 628.560 C 322.132 569.744 71.249 565.542 106.474 412.901 C 165.290 158.032 106.474 99.247 106.474 99.216 C 106.478 99.210 142.215 39.409 145.685 40.400 Z"/>
<path fill="#ffffff" fill-rule="evenodd" stroke="#000000" stroke-width="2" stroke-linecap="round" stroke-linejoin="round" d="M 164.079 97.384 C 289.519 127.406 361.323 84.455 361.343 84.453 C 361.363 84.455 440.532 129.831 558.607 97.384 C 558.959 97.287 517.076 161.546 560.742 400.056 C 582.250 517.540 392.635 514.404 361.343 558.284 C 361.343 558.284 361.343 558.284 361.343 558.284 C 330.051 514.404 139.427 517.350 161.945 400.056 C 207.659 161.930 163.327 97.204 164.079 97.384 Z"/>
</g>
<g id="specs_2">
<path fill="#ff00ff" fill-rule="evenodd" stroke="none" d="M 193.740 485.079 C 193.773 485.079 530.207 485.079 530.241 485.079 C 530.240 485.042 529.022 114.073 529.022 114.036 C 528.988 114.036 193.773 114.036 193.740 114.036 C 193.740 114.073 193.740 485.042 193.740 485.079 Z"/>
<path fill="#ff0000" fill-rule="evenodd" stroke="none" d="M 361.343 679.501 C 361.344 679.504 373.514 713.581 373.515 713.584 C 373.514 713.583 361.344 702.259 361.343 702.258 C 361.342 702.259 349.172 713.583 349.171 713.584 C 349.172 713.581 361.342 679.504 361.343 679.501 Z"/>
<path fill="#0000ff" fill-rule="evenodd" stroke="none" d="M 361.343 8.628 C 361.344 8.630 368.413 28.424 368.414 28.426 C 368.413 28.426 361.344 21.848 361.343 21.848 C 361.342 21.848 354.273 28.426 354.272 28.426 C 354.273 28.424 361.342 8.630 361.343 8.628 Z"/>
<path fill="#00ff00" fill-rule="evenodd" stroke="none" d="M 109.087 335.462 C 109.089 335.462 128.847 328.292 128.849 328.291 C 128.849 328.292 122.307 335.395 122.306 335.396 C 122.307 335.396 128.920 342.432 128.921 342.433 C 128.919 342.432 109.089 335.463 109.087 335.462 Z"/>
<path fill="#ffff00" fill-rule="evenodd" stroke="none" d="M 177.262 553.274 C 177.263 553.272 184.943 536.550 184.944 536.548 C 184.944 536.549 185.348 544.993 185.348 544.994 C 185.349 544.994 193.800 545.199 193.801 545.199 C 193.799 545.200 177.264 553.273 177.262 553.274 Z"/>
<path fill="#ffff00" fill-rule="evenodd" stroke="none" d="M 545.424 553.069 C 545.423 553.067 537.409 536.502 537.408 536.501 C 537.408 536.501 537.174 544.952 537.174 544.953 C 537.173 544.953 528.727 545.328 528.726 545.328 C 528.728 545.328 545.422 553.068 545.424 553.069 Z"/>
<path fill="#00ff00" fill-rule="evenodd" stroke="none" d="M 613.599 335.462 C 613.597 335.462 593.839 328.292 593.837 328.291 C 593.837 328.292 600.379 335.395 600.380 335.396 C 600.379 335.396 593.766 342.432 593.765 342.433 C 593.767 342.432 613.597 335.463 613.599 335.462 Z"/>
<path fill="#00ffff" fill-rule="evenodd" stroke="none" d="M 602.749 62.866 C 602.748 62.868 595.580 83.109 595.579 83.111 C 595.579 83.110 594.221 73.340 594.221 73.339 C 594.220 73.339 584.377 73.989 584.376 73.989 C 584.378 73.988 602.747 62.868 602.749 62.866 Z"/>
<path fill="#00ffff" fill-rule="evenodd" stroke="none" d="M 120.046 63.537 C 120.047 63.539 128.550 83.257 128.551 83.259 C 128.551 83.258 129.253 73.419 129.253 73.418 C 129.255 73.418 139.119 73.410 139.120 73.410 C 139.118 73.409 120.048 63.538 120.046 63.537 Z"/>
<path fill="#be0027" fill-rule="evenodd" stroke="none" d="M 361.343 643.095 C 361.344 643.092 373.514 609.015 373.515 609.012 C 373.514 609.013 361.344 620.337 361.343 620.338 C 361.342 620.337 349.172 609.013 349.171 609.012 C 349.172 609.015 361.342 643.092 361.343 643.095 Z"/>
</g>
</g>
</svg>
