<?xml version="1.0" encoding="utf-8"?>
<!-- Generator: Moho 13.0.3 build 635 -->
<!DOCTYPE svg PUBLIC "-//W3C//DTD SVG 1.1//EN" "http://www.w3.org/Graphics/SVG/1.1/DTD/svg11.dtd">
<svg version="1.1" id="Frame_0" xmlns="http://www.w3.org/2000/svg" xmlns:xlink="http://www.w3.org/1999/xlink" width="720px" height="720px">
<g id="skull">
<path fill="#ffffff" fill-rule="evenodd" stroke="#000000" stroke-width="5" stroke-linecap="round" stroke-linejoin="round" d="M 100.803 300.044 C 100.803 234.772 153.458 182.116 218.730 182.116 C 284.003 182.116 336.658 234.771 336.659 300.044 C 336.659 365.316 284.003 417.972 218.730 417.972 C 153.458 417.972 100.803 365.316 100.803 300.044 M 299.524 473.167 C 299.530 473.157 358.719 365.836 358.725 365.825 C 358.731 365.836 417.921 473.157 417.926 473.167 C 417.915 473.167 299.536 473.167 299.524 473.167 M 379.061 298.069 C 379.061 233.283 431.325 181.020 496.111 181.019 C 560.897 181.019 613.161 233.283 613.161 298.069 C 613.161 362.855 560.897 415.119 496.111 415.119 C 431.325 415.119 379.061 362.855 379.061 298.069 M 197.712 687.844 C 197.712 687.830 199.284 574.345 199.694 544.729 C 120.814 492.492 57.113 404.492 54.680 299.752 C 50.905 137.307 196.236 17.047 358.725 17.047 C 521.214 17.047 666.545 137.307 662.771 299.752 C 660.337 404.493 596.636 492.493 517.756 544.729 C 518.166 574.346 519.738 687.830 519.738 687.844 C 519.733 687.844 468.545 687.844 468.540 687.844 C 468.540 687.837 468.540 614.537 468.540 614.530 C 468.538 614.530 451.647 614.530 451.645 614.530 C 451.645 614.537 451.645 687.837 451.645 687.844 C 451.640 687.844 400.967 687.844 400.961 687.844 C 400.961 687.837 400.961 614.537 400.961 614.530 C 400.960 614.530 384.069 614.530 384.067 614.530 C 384.067 614.537 384.067 687.836 384.067 687.844 C 384.062 687.844 333.388 687.844 333.383 687.844 C 333.383 687.836 333.383 614.537 333.383 614.530 C 333.381 614.530 316.490 614.530 316.489 614.530 C 316.489 614.537 316.489 687.836 316.489 687.844 C 316.484 687.844 265.807 687.844 265.802 687.844 C 265.802 687.836 265.805 614.537 265.805 614.530 C 265.803 614.530 248.912 614.530 248.911 614.530 C 248.911 614.537 248.911 687.837 248.911 687.844 C 248.906 687.844 197.717 687.844 197.712 687.844 Z"/>
</g>
</svg>
