<?xml version="1.0" encoding="utf-8"?>
<!-- Generator: Moho 12.5 build 22414 -->
<!DOCTYPE svg PUBLIC "-//W3C//DTD SVG 1.1//EN" "http://www.w3.org/Graphics/SVG/1.1/DTD/svg11.dtd">
<svg version="1.1" id="Frame_0" xmlns="http://www.w3.org/2000/svg" xmlns:xlink="http://www.w3.org/1999/xlink" width="720px" height="720px">
<g id="skull">
<g id="skull">
<path fill="#ffffff" fill-rule="evenodd" stroke="#000000" stroke-width="4" stroke-linecap="round" stroke-linejoin="round" d="M 143.297 308.706 C 143.297 255.657 186.092 212.862 239.141 212.862 C 292.191 212.862 334.986 255.657 334.986 308.706 C 334.986 361.756 292.191 404.552 239.141 404.551 C 186.092 404.551 143.297 361.756 143.297 308.706 M 308.262 456.816 C 308.267 456.807 358.904 364.992 358.909 364.983 C 358.914 364.992 409.552 456.807 409.557 456.816 C 409.547 456.816 308.272 456.816 308.262 456.816 M 381.314 307.017 C 381.314 254.363 423.791 211.886 476.445 211.886 C 529.100 211.886 571.577 254.362 571.577 307.017 C 571.577 359.672 529.100 402.148 476.445 402.148 C 423.791 402.148 381.314 359.671 381.314 307.017 M 221.160 640.476 C 221.160 640.464 222.505 543.376 222.856 518.039 C 155.372 473.349 100.875 398.064 98.793 308.457 C 95.564 169.482 219.897 66.598 358.909 66.598 C 497.921 66.598 622.254 169.482 619.025 308.457 C 616.944 398.064 562.447 473.350 494.963 518.039 C 495.314 543.377 496.659 640.464 496.659 640.476 C 496.655 640.476 452.862 640.476 452.858 640.476 C 452.858 640.470 452.858 577.761 452.858 577.755 C 452.857 577.755 438.406 577.755 438.404 577.755 C 438.404 577.761 438.404 640.470 438.404 640.476 C 438.400 640.476 395.048 640.476 395.043 640.476 C 395.043 640.470 395.043 577.761 395.043 577.755 C 395.042 577.755 380.591 577.755 380.590 577.755 C 380.590 577.761 380.590 640.470 380.590 640.476 C 380.586 640.476 337.233 640.476 337.229 640.476 C 337.229 640.470 337.229 577.761 337.229 577.755 C 337.227 577.755 322.777 577.755 322.775 577.755 C 322.775 577.761 322.775 640.470 322.775 640.476 C 322.771 640.476 279.416 640.476 279.412 640.476 C 279.412 640.470 279.415 577.761 279.415 577.755 C 279.413 577.755 264.963 577.755 264.961 577.755 C 264.961 577.761 264.961 640.470 264.961 640.476 C 264.957 640.476 221.164 640.476 221.160 640.476 Z"/>
</g>
<g id="specs">
<path fill="#ff0000" fill-rule="evenodd" stroke="none" d="M 360.000 660.569 C 360.001 660.572 372.432 695.378 372.433 695.382 C 372.432 695.381 360.001 683.815 360.000 683.814 C 359.999 683.815 347.568 695.381 347.567 695.382 C 347.568 695.378 359.999 660.572 360.000 660.569 Z"/>
<path fill="#0000ff" fill-rule="evenodd" stroke="none" d="M 360.000 53.402 C 360.001 53.404 367.221 73.622 367.222 73.624 C 367.221 73.623 360.001 66.905 360.000 66.905 C 359.999 66.905 352.779 73.623 352.778 73.624 C 352.779 73.622 359.999 53.404 360.000 53.402 Z"/>
<path fill="#00ff00" fill-rule="evenodd" stroke="none" d="M 83.891 299.338 C 83.893 299.337 104.074 292.014 104.076 292.013 C 104.076 292.014 97.394 299.269 97.393 299.269 C 97.394 299.270 104.148 306.457 104.149 306.458 C 104.147 306.457 83.893 299.338 83.891 299.338 Z"/>
<path fill="#ffff00" fill-rule="evenodd" stroke="none" d="M 169.020 492.280 C 169.021 492.278 177.981 472.769 177.982 472.767 C 177.982 472.768 178.454 482.620 178.454 482.621 C 178.455 482.621 188.315 482.860 188.316 482.860 C 188.314 482.861 169.022 492.279 169.020 492.280 Z"/>
<path fill="#ffff00" fill-rule="evenodd" stroke="none" d="M 550.103 492.042 C 550.102 492.040 540.752 472.713 540.751 472.712 C 540.751 472.712 540.477 482.572 540.477 482.573 C 540.476 482.573 530.623 483.009 530.622 483.010 C 530.624 483.010 550.101 492.041 550.103 492.042 Z"/>
<path fill="#00ff00" fill-rule="evenodd" stroke="none" d="M 633.851 299.338 C 633.849 299.337 613.668 292.014 613.666 292.013 C 613.667 292.014 620.348 299.269 620.349 299.269 C 620.348 299.270 613.594 306.457 613.593 306.458 C 613.595 306.457 633.849 299.338 633.851 299.338 Z"/>
<path fill="#00ffff" fill-rule="evenodd" stroke="none" d="M 551.807 124.323 C 551.807 124.325 544.639 144.562 544.639 144.564 C 544.639 144.563 543.281 134.794 543.281 134.793 C 543.280 134.793 533.439 135.443 533.438 135.443 C 533.440 135.442 551.805 124.324 551.807 124.323 Z"/>
<path fill="#00ffff" fill-rule="evenodd" stroke="none" d="M 166.102 124.993 C 166.103 124.995 174.603 144.710 174.604 144.712 C 174.604 144.711 175.307 134.873 175.307 134.872 C 175.308 134.872 185.170 134.864 185.171 134.864 C 185.169 134.863 166.104 124.994 166.102 124.993 Z"/>
<path fill="#ff00ff" fill-rule="evenodd" stroke="none" d="M 170.334 376.069 C 170.347 376.069 305.865 376.069 305.879 376.069 C 305.879 376.056 305.879 240.538 305.879 240.524 C 305.865 240.524 170.347 240.524 170.334 240.524 C 170.334 240.538 170.334 376.056 170.334 376.069 Z"/>
<path fill="#ff00ff" fill-rule="evenodd" stroke="none" d="M 409.433 376.069 C 409.446 376.069 544.964 376.069 544.978 376.069 C 544.978 376.056 544.978 240.538 544.978 240.524 C 544.964 240.524 409.446 240.524 409.433 240.524 C 409.433 240.538 409.433 376.056 409.433 376.069 Z"/>
<path fill="#be0027" fill-rule="evenodd" stroke="none" d="M 359.957 653.558 C 359.958 653.556 369.002 628.232 369.003 628.229 C 369.002 628.230 359.958 636.645 359.957 636.646 C 359.957 636.645 350.913 628.230 350.912 628.229 C 350.913 628.232 359.957 653.556 359.957 653.558 Z"/>
</g>
</g>
</svg>
