<?xml version="1.0" encoding="utf-8"?>
<!-- Generator: Moho 12.5 build 22414 -->
<!DOCTYPE svg PUBLIC "-//W3C//DTD SVG 1.1//EN" "http://www.w3.org/Graphics/SVG/1.1/DTD/svg11.dtd">
<svg version="1.1" id="Frame_0" xmlns="http://www.w3.org/2000/svg" xmlns:xlink="http://www.w3.org/1999/xlink" width="720px" height="720px">
<g id="halves">
<g id="sperm_tail">
<g id="sperm_tail">
<path fill="#ffffff" fill-rule="evenodd" stroke="#000000" stroke-width="2" stroke-linejoin="round" d="M 441.756 360.000 C 442.072 411.059 426.993 424.650 412.532 437.406 C 391.928 455.581 377.886 470.397 380.091 492.465 C 381.433 505.906 409.125 516.331 404.538 544.978 C 400.223 571.928 359.607 573.761 363.110 595.985 C 365.165 609.019 387.463 608.512 382.460 627.875 C 378.647 642.633 357.372 640.111 357.190 650.479 C 357.113 654.862 362.649 660.737 362.650 660.738 C 362.649 660.737 351.888 657.397 350.874 651.948 C 348.229 637.724 364.173 641.150 367.263 626.839 C 370.435 612.153 340.556 620.808 333.919 598.309 C 325.946 571.278 361.344 561.037 360.841 546.489 C 360.012 522.480 311.965 522.077 308.249 493.268 C 306.022 475.997 317.992 464.976 317.680 454.585 C 316.890 428.224 278.670 420.366 278.244 360.000 C 359.334 360.148 361.096 359.876 441.756 360.000 Z"/>
<path fill="none" stroke="#ffffff" stroke-width="2" stroke-linejoin="round" d="M 278.244 360.000 C 332.748 360.000 387.252 360.000 441.756 360.000 "/>
</g>
<g id="specs_2">
<path fill="#ff0000" fill-rule="evenodd" stroke="none" d="M 360.000 383.221 C 359.999 383.218 347.584 348.455 347.583 348.452 C 347.584 348.453 359.999 360.005 360.000 360.006 C 360.001 360.005 372.416 348.453 372.417 348.452 C 372.416 348.455 360.001 383.218 360.000 383.221 Z"/>
<path fill="#0000ff" fill-rule="evenodd" stroke="none" d="M 360.000 346.492 C 360.001 346.494 367.212 366.687 367.213 366.689 C 367.212 366.688 360.001 359.978 360.000 359.977 C 359.999 359.978 352.788 366.688 352.787 366.689 C 352.788 366.687 359.999 346.494 360.000 346.492 Z"/>
<path fill="#00ff00" fill-rule="evenodd" stroke="none" d="M 283.326 401.812 C 283.326 401.812 289.493 399.574 289.494 399.574 C 289.494 399.574 287.452 401.791 287.452 401.791 C 287.452 401.792 289.516 403.987 289.516 403.988 C 289.516 403.987 283.326 401.812 283.326 401.812 Z"/>
<path fill="#ffff00" fill-rule="evenodd" stroke="none" d="M 305.754 435.325 C 305.754 435.325 307.856 430.748 307.857 430.748 C 307.857 430.748 307.967 433.059 307.967 433.059 C 307.967 433.059 310.281 433.115 310.281 433.115 C 310.280 433.116 305.754 435.325 305.754 435.325 Z"/>
<path fill="#ffff00" fill-rule="evenodd" stroke="none" d="M 419.442 435.270 C 419.442 435.269 417.249 430.735 417.248 430.735 C 417.248 430.735 417.184 433.048 417.184 433.048 C 417.184 433.048 414.872 433.151 414.872 433.151 C 414.872 433.151 419.442 435.269 419.442 435.270 Z"/>
<path fill="#00ff00" fill-rule="evenodd" stroke="none" d="M 441.022 401.812 C 441.021 401.812 434.855 399.574 434.854 399.574 C 434.854 399.574 436.896 401.791 436.896 401.791 C 436.896 401.792 434.832 403.987 434.832 403.988 C 434.832 403.987 441.021 401.812 441.022 401.812 Z"/>
<path fill="#00ffff" fill-rule="evenodd" stroke="none" d="M 443.044 358.543 C 443.044 358.544 440.578 365.509 440.577 365.509 C 440.577 365.509 440.110 362.147 440.110 362.147 C 440.110 362.147 436.723 362.371 436.723 362.371 C 436.724 362.370 443.044 358.544 443.044 358.543 Z"/>
<path fill="#00ffff" fill-rule="evenodd" stroke="none" d="M 276.956 358.775 C 276.956 358.775 279.881 365.560 279.882 365.561 C 279.882 365.560 280.124 362.174 280.124 362.174 C 280.124 362.174 283.518 362.172 283.518 362.172 C 283.518 362.171 276.956 358.775 276.956 358.775 Z"/>
<path fill="#be0027" fill-rule="evenodd" stroke="none" d="M 360.000 664.939 C 360.001 664.936 372.416 630.173 372.417 630.170 C 372.416 630.171 360.001 641.723 360.000 641.724 C 359.999 641.723 347.584 630.171 347.583 630.170 C 347.584 630.173 359.999 664.936 360.000 664.939 Z"/>
<path fill="none" stroke="#ffff00" stroke-width="2" stroke-linejoin="round" d="M 278.244 360.000 C 332.748 360.000 387.252 360.000 441.756 360.000 "/>
</g>
</g>
</g>
</svg>
