<?xml version="1.0" encoding="utf-8"?>
<!-- Generator: Moho 13.0.3 build 635 -->
<!DOCTYPE svg PUBLIC "-//W3C//DTD SVG 1.1//EN" "http://www.w3.org/Graphics/SVG/1.1/DTD/svg11.dtd">
<svg version="1.1" id="Frame_0" xmlns="http://www.w3.org/2000/svg" xmlns:xlink="http://www.w3.org/1999/xlink" width="1280px" height="720px">
<g id="Spiral_Double">
<path fill="none" stroke="#000000" stroke-width="49" stroke-linecap="round" stroke-linejoin="round" d="M 962.299 340.298 C 962.299 340.298 962.542 340.622 962.655 340.814 C 962.988 341.381 963.255 341.851 963.448 342.479 C 963.768 343.525 963.940 344.427 963.863 345.518 C 963.749 347.111 963.383 348.437 962.560 349.806 C 961.389 351.756 959.956 353.137 957.960 354.228 C 955.133 355.774 952.346 356.354 949.129 356.160 C 944.630 355.889 940.888 354.455 937.273 351.762 C 932.333 348.082 929.135 343.594 927.135 337.767 C 924.479 330.026 924.392 322.647 926.757 314.812 C 929.809 304.695 935.412 296.881 943.965 290.673 C 954.718 282.868 966.428 279.413 979.699 280.068 C 995.992 280.871 1009.914 286.806 1021.816 297.961 C 1036.117 311.364 1044.127 327.879 1045.874 347.402 C 1047.933 370.415 1041.717 391.336 1027.519 409.565 C 1011.066 430.689 988.954 443.359 962.435 447.059 C 932.176 451.282 903.887 443.781 879.524 425.344 C 852.111 404.600 835.735 375.839 831.482 341.726 C 826.758 303.836 837.205 268.456 861.322 238.853 C 887.790 206.366 923.919 187.918 965.707 184.794 C 1011.053 181.404 1052.532 196.190 1086.148 226.811 C 1122.237 259.684 1141.270 302.893 1142.329 351.697 C 1143.454 403.551 1124.279 449.747 1087.752 486.568 C 1049.334 525.295 1000.667 544.632 946.117 544.504 C 889.318 544.371 839.565 522.887 799.131 482.995 C 757.453 441.877 736.134 390.709 734.057 332.199 C 731.939 272.511 751.256 219.914 789.614 174.133 C 828.323 127.932 877.486 101.213 936.906 91.104 C 996.188 81.019 1050.334 91.610 1102.984 120.661 C 1154.862 149.286 1190.286 189.609 1215.000 243.460 C 1239.018 295.793 1244.276 346.978 1234.793 403.774 C 1225.720 458.109 1203.591 501.299 1167.419 542.846 C 1133.445 581.867 1095.584 606.043 1047.028 623.910 C 1002.433 640.320 961.934 643.986 914.635 639.433 C 872.409 635.368 838.572 623.686 801.083 603.833 C 768.866 586.772 745.558 567.313 720.589 540.749 C 700.284 519.146 686.995 498.675 673.013 472.532 C 662.618 453.096 656.549 436.183 650.078 415.115 C 646.057 402.024 643.953 391.138 641.570 377.653 "/>
<path fill="none" stroke="#000000" stroke-width="49" stroke-linecap="round" stroke-linejoin="round" d="M 641.570 377.653 C 639.608 368.832 638.130 361.706 636.168 352.885 C 633.195 339.517 631.681 328.514 627.660 315.423 C 621.189 294.354 615.120 277.441 604.726 258.006 C 590.743 231.862 577.454 211.391 557.149 189.788 C 532.180 163.224 508.872 143.766 476.655 126.704 C 439.166 106.851 405.329 95.169 363.104 91.104 C 315.804 86.551 275.305 90.217 230.710 106.627 C 182.154 124.494 144.293 148.670 110.319 187.692 C 74.147 229.239 52.018 272.429 42.945 326.764 C 33.462 383.559 38.720 434.744 62.738 487.078 C 87.453 540.929 122.876 581.251 174.754 609.877 C 227.404 638.928 281.550 649.518 340.832 639.433 C 400.252 629.325 449.415 602.605 488.124 556.404 C 526.482 510.623 545.799 458.026 543.681 398.338 C 541.604 339.828 520.285 288.660 478.607 247.542 C 438.173 207.651 388.420 186.167 331.621 186.033 C 277.071 185.905 228.404 205.242 189.987 243.969 C 153.459 280.790 134.284 326.987 135.409 378.840 C 136.468 427.645 155.501 470.853 191.590 503.727 C 225.206 534.348 266.685 549.133 312.031 545.743 C 353.819 542.620 389.948 524.172 416.416 491.684 C 440.533 462.082 450.980 426.701 446.256 388.811 C 442.003 354.698 425.627 325.938 398.215 305.193 C 373.851 286.757 345.562 279.255 315.303 283.478 C 288.784 287.179 266.673 299.849 250.219 320.973 C 236.021 339.201 229.805 360.122 231.864 383.136 C 233.611 402.658 241.621 419.174 255.922 432.577 C 267.824 443.731 281.746 449.666 298.039 450.470 C 311.310 451.124 323.020 447.669 333.773 439.864 C 342.326 433.657 347.929 425.842 350.982 415.726 C 353.346 407.890 353.259 400.511 350.603 392.770 C 348.603 386.944 345.405 382.455 340.465 378.775 C 336.850 376.083 333.109 374.648 328.609 374.377 C 325.392 374.184 322.605 374.764 319.778 376.309 C 317.782 377.400 316.349 378.781 315.178 380.731 C 314.355 382.101 313.989 383.426 313.876 385.020 C 313.798 386.110 313.970 387.013 314.290 388.058 C 314.483 388.686 314.750 389.157 315.083 389.723 C 315.197 389.916 315.321 390.067 315.439 390.240 "/>
</g>
</svg>
