<?xml version="1.0" encoding="utf-8"?>
<!-- Generator: Moho 12.5 build 22414 -->
<!DOCTYPE svg PUBLIC "-//W3C//DTD SVG 1.1//EN" "http://www.w3.org/Graphics/SVG/1.1/DTD/svg11.dtd">
<svg version="1.1" id="Frame_0" xmlns="http://www.w3.org/2000/svg" xmlns:xlink="http://www.w3.org/1999/xlink" width="720px" height="720px">
<g id="spiral_shape">
<g id="spiral_shape">
<path fill="#ffffff" fill-rule="evenodd" stroke="#000000" stroke-width="4" stroke-linecap="round" stroke-linejoin="round" d="M 351.449 653.216 C 426.651 650.824 510.617 614.734 563.421 556.023 C 618.553 494.724 649.239 406.870 640.085 324.936 C 631.406 247.253 586.409 170.707 521.804 126.705 C 459.679 84.393 375.605 70.798 302.904 89.887 C 237.355 107.098 177.292 154.129 146.151 214.321 C 114.749 275.017 108.768 352.817 135.199 415.837 C 160.702 476.644 216.476 530.843 280.860 545.070 C 359.689 562.490 431.425 546.087 482.377 497.977 C 528.093 454.811 551.104 381.859 537.137 320.555 C 523.088 258.893 471.058 200.480 410.094 183.656 C 362.057 170.399 305.024 187.852 267.718 220.892 C 233.847 250.891 209.226 300.137 217.339 344.650 C 226.229 393.426 269.404 441.549 318.097 450.883 C 358.557 458.639 408.451 437.923 429.807 402.695 C 445.967 376.039 446.027 335.013 426.522 310.698 C 407.328 286.772 366.261 273.822 338.906 287.699 C 324.410 295.052 315.910 314.194 317.002 330.412 C 317.583 339.042 321.863 349.818 330.145 352.316 C 354.931 359.791 349.574 336.944 359.715 330.412 C 373.788 321.346 387.149 330.965 392.570 341.364 C 402.094 359.629 385.879 386.199 368.476 397.219 C 350.920 408.337 325.333 405.082 307.145 395.029 C 286.531 383.633 271.823 360.345 268.813 336.983 C 265.290 309.643 276.136 279.230 296.193 260.319 C 321.327 236.622 360.765 227.906 394.761 234.035 C 425.438 239.565 454.081 260.002 470.330 286.604 C 491.529 321.309 496.600 367.490 483.472 405.981 C 470.518 443.962 438.076 475.273 401.332 491.406 C 362.276 508.555 314.937 509.566 275.384 493.596 C 232.830 476.415 196.071 440.243 180.102 397.219 C 160.019 343.109 166.744 277.544 195.435 227.463 C 221.431 182.086 269.406 148.640 320.288 136.562 C 377.058 123.086 441.477 133.793 490.043 166.132 C 540.826 199.947 577.626 257.991 586.420 318.365 C 597.855 396.857 574.168 467.865 526.185 520.976 C 476.001 576.523 396.148 607.949 321.383 604.211 C 248.152 600.550 175.537 560.700 129.723 503.453 C 81.779 443.544 60.534 360.331 71.678 284.414 C 82.800 208.646 128.218 136.964 189.959 91.659 C 253.121 45.310 331.178 23.484 414.475 35.804 C 480.922 45.632 544.096 77.324 591.897 124.515 C 642.296 174.271 676.799 240.641 687.179 310.698 C 697.786 382.294 681.695 456.482 648.847 520.976 C 622.171 573.352 580.106 616.387 530.565 648.019 C 479.127 680.863 424.330 698.878 359.116 703.595 C 349.013 704.326 334.305 700.146 331.736 691.548 C 325.856 671.868 336.861 653.680 351.449 653.216 Z"/>
</g>
<g id="specs_2">
<path fill="#ff0000" fill-rule="evenodd" stroke="none" d="M 360.000 656.018 C 360.001 656.021 372.432 690.827 372.433 690.831 C 372.432 690.829 360.001 679.263 360.000 679.262 C 359.999 679.263 347.568 690.829 347.567 690.831 C 347.568 690.827 359.999 656.021 360.000 656.018 Z"/>
<path fill="#0000ff" fill-rule="evenodd" stroke="none" d="M 360.000 17.772 C 360.001 17.774 367.221 37.992 367.222 37.994 C 367.221 37.993 360.001 31.275 360.000 31.274 C 359.999 31.275 352.779 37.993 352.778 37.994 C 352.779 37.992 359.999 17.774 360.000 17.772 Z"/>
<path fill="#00ff00" fill-rule="evenodd" stroke="none" d="M 58.106 352.403 C 58.108 352.402 78.289 345.079 78.291 345.079 C 78.290 345.079 71.609 352.334 71.608 352.335 C 71.609 352.335 78.363 359.522 78.364 359.523 C 78.362 359.522 58.108 352.404 58.106 352.403 Z"/>
<path fill="#ffff00" fill-rule="evenodd" stroke="none" d="M 164.240 556.670 C 164.241 556.668 173.202 537.159 173.203 537.157 C 173.203 537.158 173.674 547.010 173.675 547.010 C 173.675 547.010 183.535 547.249 183.536 547.250 C 183.534 547.250 164.242 556.669 164.240 556.670 Z"/>
<path fill="#ffff00" fill-rule="evenodd" stroke="none" d="M 602.961 603.262 C 602.960 603.260 593.610 583.935 593.609 583.933 C 593.609 583.934 593.334 593.793 593.334 593.794 C 593.333 593.794 583.480 594.231 583.479 594.231 C 583.481 594.232 602.959 603.261 602.961 603.262 Z"/>
<path fill="#00ff00" fill-rule="evenodd" stroke="none" d="M 702.126 361.005 C 702.124 361.004 681.942 353.681 681.940 353.680 C 681.941 353.681 688.623 360.936 688.623 360.936 C 688.623 360.937 681.868 368.124 681.867 368.125 C 681.869 368.124 702.124 361.005 702.126 361.005 Z"/>
<path fill="#00ffff" fill-rule="evenodd" stroke="none" d="M 601.361 117.716 C 601.361 117.718 594.193 137.955 594.193 137.957 C 594.193 137.956 592.835 128.187 592.835 128.186 C 592.834 128.186 582.993 128.836 582.992 128.836 C 582.994 128.835 601.359 117.717 601.361 117.716 Z"/>
<path fill="#00ffff" fill-rule="evenodd" stroke="none" d="M 127.352 128.899 C 127.353 128.901 135.853 148.616 135.854 148.618 C 135.854 148.617 136.557 138.779 136.557 138.778 C 136.558 138.778 146.421 138.770 146.422 138.770 C 146.420 138.769 127.354 128.900 127.352 128.899 Z"/>
</g>
</g>
</svg>
