<?xml version="1.0" encoding="utf-8"?>
<!-- Generator: Moho 13.0.3 build 635 -->
<!DOCTYPE svg PUBLIC "-//W3C//DTD SVG 1.1//EN" "http://www.w3.org/Graphics/SVG/1.1/DTD/svg11.dtd">
<svg version="1.1" id="Frame_0" xmlns="http://www.w3.org/2000/svg" xmlns:xlink="http://www.w3.org/1999/xlink" width="720px" height="720px">
<g id="Spiral">
<path fill="none" stroke="#000000" stroke-width="51" stroke-linecap="round" stroke-linejoin="round" d="M 357.602 343.913 C 357.603 343.913 357.943 343.658 358.146 343.538 C 358.742 343.188 359.236 342.907 359.898 342.704 C 360.997 342.367 361.947 342.186 363.095 342.268 C 364.771 342.388 366.166 342.772 367.607 343.638 C 369.659 344.870 371.112 346.378 372.259 348.478 C 373.885 351.453 374.495 354.385 374.291 357.769 C 374.006 362.504 372.497 366.441 369.664 370.245 C 365.793 375.443 361.070 378.807 354.940 380.911 C 346.795 383.707 339.031 383.798 330.786 381.310 C 320.141 378.098 311.919 372.203 305.388 363.204 C 297.176 351.889 293.540 339.568 294.229 325.604 C 295.074 308.461 301.319 293.813 313.056 281.289 C 327.159 266.242 344.536 257.814 365.077 255.976 C 389.291 253.809 411.304 260.350 430.483 275.289 C 452.710 292.601 466.041 315.867 469.935 343.770 C 474.379 375.608 466.485 405.373 447.087 431.008 C 425.260 459.851 394.998 477.081 359.105 481.557 C 319.238 486.527 282.011 475.535 250.864 450.159 C 216.681 422.310 197.270 384.296 193.983 340.327 C 190.416 292.615 205.973 248.970 238.193 213.600 C 272.782 175.628 318.245 155.602 369.597 154.488 C 424.156 153.305 472.763 173.480 511.506 211.913 C 552.254 252.335 572.600 303.542 572.465 360.938 C 572.325 420.702 549.719 473.051 507.746 515.595 C 464.483 559.447 410.645 581.880 349.081 584.065 C 286.278 586.295 230.936 565.968 182.766 525.609 C 134.154 484.880 106.040 433.152 95.404 370.631 C 84.793 308.256 95.937 251.283 126.504 195.886 C 156.623 141.301 199.050 104.028 255.711 78.024 C 310.775 52.753 364.631 47.220 424.391 57.199 C 481.561 66.746 527.005 90.029 570.720 128.089 C 611.778 163.836 637.215 203.673 656.015 254.762 C 673.281 301.684 677.138 344.296 672.348 394.064 C 668.071 438.494 655.779 474.096 634.890 513.542 C 616.938 547.440 596.464 571.964 568.514 598.235 C 545.784 619.600 524.245 633.584 496.736 648.296 C 476.287 659.233 458.491 665.617 436.322 672.426 C 422.549 676.657 411.084 678.808 396.906 681.379 C 392.047 682.260 387.765 682.698 383.195 683.357 "/>
</g>
</svg>
