<?xml version="1.0" encoding="utf-8"?>
<!-- Generator: Moho 13.0.3 build 635 -->
<!DOCTYPE svg PUBLIC "-//W3C//DTD SVG 1.1//EN" "http://www.w3.org/Graphics/SVG/1.1/DTD/svg11.dtd">
<svg version="1.1" id="Frame_0" xmlns="http://www.w3.org/2000/svg" xmlns:xlink="http://www.w3.org/1999/xlink" width="720px" height="720px">
<g id="Spiral_Triple">
<path fill="none" stroke="#000000" stroke-width="29" stroke-linecap="round" stroke-linejoin="round" d="M 533.523 499.838 C 533.523 499.838 533.633 500.054 533.680 500.179 C 533.818 500.548 533.926 500.853 533.974 501.244 C 534.055 501.894 534.062 502.445 533.903 503.080 C 533.670 504.008 533.316 504.752 532.689 505.475 C 531.795 506.503 530.806 507.169 529.515 507.605 C 527.686 508.223 525.982 508.275 524.104 507.826 C 521.477 507.198 519.419 505.963 517.566 503.997 C 515.034 501.313 513.614 498.332 513.040 494.686 C 512.278 489.843 512.995 485.480 515.205 481.103 C 518.059 475.452 522.178 471.425 527.869 468.652 C 535.026 465.166 542.294 464.345 550.057 466.112 C 559.585 468.281 567.182 473.231 573.043 481.051 C 580.087 490.446 583.094 501.024 582.094 512.723 C 580.915 526.516 575.070 538.212 564.797 547.490 C 552.892 558.241 538.528 563.416 522.497 562.841 C 504.205 562.185 488.295 554.815 475.839 541.403 C 461.823 526.312 455.154 507.640 456.193 487.071 C 457.348 464.225 467.192 444.437 484.501 429.481 C 503.497 413.066 526.732 405.941 551.712 408.445 C 578.818 411.163 601.753 424.201 618.401 445.765 C 636.273 468.914 643.008 496.387 638.555 525.292 C 633.825 556.003 617.705 581.264 592.324 599.188 C 565.629 618.040 534.904 624.386 502.733 618.636 C 469.235 612.648 442.116 594.796 422.410 567.054 C 402.098 538.459 394.843 506.052 399.704 471.315 C 404.664 435.879 421.533 406.856 448.926 383.836 C 476.571 360.604 508.357 349.954 544.467 350.172 C 580.492 350.389 611.336 362.271 639.378 384.888 C 667.008 407.174 683.713 434.649 692.692 468.992 C 701.418 502.368 699.195 533.114 687.691 565.636 C 676.685 596.750 659.136 619.930 633.472 640.680 C 609.368 660.168 584.515 670.493 554.009 675.983 C 525.991 681.026 501.715 678.975 474.282 671.368 C 449.792 664.577 431.043 654.165 410.990 638.551 C 393.757 625.133 382.030 611.228 370.062 592.958 C 360.329 578.100 354.618 564.640 349.088 547.760 C 344.978 535.212 343.157 524.602 341.531 511.498 "/>
<path fill="none" stroke="#000000" stroke-width="29" stroke-linecap="round" stroke-linejoin="round" d="M 350.420 218.223 C 350.420 218.223 350.552 218.020 350.637 217.917 C 350.888 217.613 351.098 217.367 351.412 217.130 C 351.935 216.735 352.408 216.453 353.038 216.273 C 353.958 216.011 354.779 215.945 355.719 216.127 C 357.057 216.387 358.127 216.911 359.151 217.812 C 360.600 219.087 361.498 220.536 362.048 222.387 C 362.817 224.976 362.776 227.376 362.001 229.963 C 360.942 233.498 359.070 236.218 356.200 238.538 C 352.387 241.620 348.250 243.180 343.355 243.455 C 337.034 243.809 331.486 242.256 326.239 238.713 C 319.642 234.258 315.297 228.374 312.946 220.768 C 310.060 211.432 310.549 202.378 314.390 193.392 C 319.005 182.594 326.661 174.700 337.294 169.717 C 349.828 163.842 362.879 163.056 376.050 167.314 C 391.314 172.248 402.978 182.100 410.495 196.271 C 419.073 212.441 420.646 229.904 415.259 247.397 C 409.197 267.080 396.362 282.192 378.028 291.577 C 357.666 302.000 335.607 303.368 314.000 295.856 C 290.287 287.613 272.498 271.053 262.177 248.168 C 250.977 223.335 250.802 196.953 261.152 171.754 C 272.264 144.701 292.689 125.132 319.948 114.536 C 348.909 103.278 378.846 104.607 407.059 117.626 C 436.733 131.318 457.592 154.754 468.697 185.490 C 480.260 217.494 478.360 249.905 464.188 280.842 C 449.579 312.731 425.142 335.217 392.628 348.376 C 359.459 361.799 325.891 361.701 292.258 349.488 C 258.316 337.162 233.200 314.960 215.334 283.580 C 197.510 252.272 192.377 219.619 197.944 184.026 C 203.429 148.955 218.871 120.750 244.123 95.803 C 268.664 71.558 296.402 58.110 330.319 51.811 C 362.767 45.785 391.616 49.394 422.418 61.244 C 451.347 72.374 472.716 88.736 492.724 112.410 C 511.100 134.153 521.461 156.201 528.590 183.762 C 534.954 208.367 535.311 229.810 531.816 254.983 C 528.812 276.617 522.633 293.726 512.795 313.225 C 504.794 329.083 495.992 340.759 484.139 353.988 C 475.327 363.822 467.049 370.704 456.514 378.664 "/>
<path fill="none" stroke="#000000" stroke-width="29" stroke-linecap="round" stroke-linejoin="round" d="M 197.109 517.897 C 197.109 517.897 196.867 517.884 196.735 517.862 C 196.347 517.796 196.028 517.738 195.665 517.584 C 195.062 517.329 194.582 517.060 194.111 516.605 C 193.424 515.939 192.956 515.261 192.645 514.356 C 192.201 513.068 192.119 511.878 192.387 510.542 C 192.767 508.649 193.573 507.147 194.901 505.745 C 196.758 503.784 198.857 502.620 201.485 501.997 C 205.077 501.147 208.368 501.408 211.812 502.734 C 216.387 504.496 219.807 507.298 222.493 511.400 C 225.960 516.697 227.389 522.278 226.944 528.593 C 226.385 536.534 223.461 543.238 218.050 549.077 C 211.407 556.245 203.322 560.349 193.619 561.516 C 181.961 562.918 171.297 560.234 161.665 553.518 C 150.310 545.600 143.103 534.691 140.205 521.155 C 136.846 505.470 139.546 490.442 148.060 476.846 C 157.774 461.333 172.111 451.240 189.955 447.158 C 210.032 442.566 229.537 446.126 246.831 457.310 C 266.039 469.733 278.253 488.153 282.551 510.621 C 287.268 535.279 281.822 558.964 267.163 579.345 C 251.257 601.461 228.498 614.804 201.499 618.439 C 172.515 622.343 145.355 614.439 122.549 596.130 C 98.318 576.678 84.502 550.088 81.669 519.144 C 78.690 486.600 88.557 456.818 109.623 431.832 C 131.557 405.816 160.576 391.257 194.455 388.062 C 229.375 384.769 261.068 394.689 288.720 416.268 C 316.930 438.281 333.629 467.401 339.868 502.635 C 346.165 538.192 339.495 571.044 321.252 602.206 C 303.051 633.297 277.339 654.068 243.732 667.044 C 210.617 679.829 178.469 680.559 144.238 671.164 C 110.971 662.033 85.456 644.735 63.042 618.511 C 41.600 593.423 30.300 566.635 25.162 534.034 C 20.337 503.416 23.822 476.730 34.320 447.565 C 43.962 420.780 57.876 400.782 78.180 380.827 C 96.306 363.014 114.698 351.983 138.246 342.424 C 158.483 334.208 176.389 331.004 198.195 329.775 C 215.929 328.775 230.442 330.560 247.825 334.211 C 260.747 336.925 270.846 340.653 283.008 345.796 "/>
</g>
</svg>
