<?xml version="1.0" encoding="utf-8"?>
<!-- Generator: Moho 12.5 build 22414 -->
<!DOCTYPE svg PUBLIC "-//W3C//DTD SVG 1.1//EN" "http://www.w3.org/Graphics/SVG/1.1/DTD/svg11.dtd">
<svg version="1.1" id="Frame_0" xmlns="http://www.w3.org/2000/svg" xmlns:xlink="http://www.w3.org/1999/xlink" width="720px" height="720px">
<g id="square">
<g id="square">
<path fill="#ffffff" fill-rule="evenodd" stroke="#000000" stroke-width="4" stroke-linecap="round" stroke-linejoin="round" d="M 32.683 32.683 C 32.749 32.683 687.251 32.683 687.317 32.683 C 687.317 32.749 687.317 687.251 687.317 687.317 C 687.251 687.317 32.749 687.317 32.683 687.317 C 32.683 687.251 32.683 32.749 32.683 32.683 Z"/>
</g>
<g id="spiral_shape_2">
<path fill="#000000" fill-rule="evenodd" stroke="none" d="M 352.523 616.405 C 418.284 614.313 491.708 582.753 537.883 531.413 C 586.093 477.810 612.927 400.986 604.922 329.338 C 597.333 261.408 557.985 194.471 501.490 155.994 C 447.165 118.994 373.646 107.106 310.072 123.798 C 252.752 138.848 200.230 179.974 172.998 232.610 C 145.539 285.686 140.309 353.719 163.421 408.827 C 185.723 462.000 234.494 509.394 290.796 521.836 C 359.728 537.069 422.458 522.725 467.013 480.655 C 506.990 442.908 527.112 379.115 514.898 325.507 C 502.613 271.586 457.115 220.506 403.805 205.795 C 361.798 194.202 311.926 209.464 279.304 238.356 C 249.684 264.589 228.155 307.652 235.249 346.577 C 243.023 389.229 280.778 431.311 323.358 439.474 C 358.738 446.256 402.368 428.141 421.043 397.335 C 435.174 374.025 435.227 338.150 418.170 316.888 C 401.386 295.965 365.475 284.642 341.554 296.776 C 328.878 303.206 321.445 319.945 322.400 334.127 C 322.908 341.673 326.651 351.096 333.893 353.280 C 355.568 359.817 350.883 339.839 359.751 334.127 C 372.057 326.199 383.740 334.610 388.481 343.704 C 396.809 359.675 382.630 382.910 367.412 392.546 C 352.060 402.269 329.685 399.423 313.781 390.631 C 295.754 380.666 282.893 360.301 280.261 339.873 C 277.181 315.965 286.665 289.370 304.204 272.833 C 326.182 252.112 360.669 244.490 390.397 249.849 C 417.223 254.685 442.270 272.556 456.479 295.818 C 475.016 326.167 479.451 366.550 467.971 400.208 C 456.643 433.421 428.274 460.801 396.143 474.909 C 361.991 489.904 320.595 490.789 286.007 476.824 C 248.796 461.800 216.652 430.169 202.687 392.546 C 185.125 345.230 191.006 287.896 216.095 244.102 C 238.828 204.422 280.779 175.175 325.273 164.613 C 374.917 152.829 431.248 162.192 473.717 190.471 C 518.124 220.041 550.304 270.797 557.995 323.592 C 567.994 392.229 547.280 454.324 505.321 500.767 C 461.438 549.340 391.610 576.821 326.231 573.552 C 262.194 570.350 198.695 535.503 158.633 485.443 C 116.708 433.056 98.130 360.290 107.875 293.903 C 117.601 227.648 157.317 164.965 211.306 125.347 C 266.539 84.818 334.797 65.731 407.636 76.505 C 465.741 85.099 520.984 112.812 562.783 154.078 C 606.855 197.588 637.027 255.626 646.103 316.888 C 655.379 379.496 641.308 444.369 612.584 500.767 C 589.257 546.567 552.473 584.199 509.152 611.860 C 464.171 640.581 416.254 656.334 359.227 660.459 C 350.392 661.098 337.531 657.443 335.284 649.924 C 330.143 632.715 339.766 616.811 352.523 616.405 Z"/>
</g>
<g id="specs">
<path fill="#ff00ff" fill-rule="evenodd" stroke="none" d="M 260.795 459.205 C 260.815 459.205 459.185 459.205 459.205 459.205 C 459.205 459.185 459.205 260.815 459.205 260.795 C 459.185 260.795 260.815 260.795 260.795 260.795 C 260.795 260.815 260.795 459.185 260.795 459.205 Z"/>
<path fill="#ff0000" fill-rule="evenodd" stroke="none" d="M 359.477 665.062 C 359.478 665.065 371.909 699.871 371.910 699.875 C 371.909 699.873 359.478 688.307 359.477 688.306 C 359.476 688.307 347.045 699.873 347.044 699.875 C 347.045 699.871 359.476 665.065 359.477 665.062 Z"/>
<path fill="#0000ff" fill-rule="evenodd" stroke="none" d="M 359.477 16.302 C 359.478 16.305 366.698 36.523 366.699 36.525 C 366.698 36.524 359.478 29.806 359.477 29.805 C 359.476 29.806 352.256 36.524 352.255 36.525 C 352.256 36.523 359.476 16.305 359.477 16.302 Z"/>
<path fill="#00ff00" fill-rule="evenodd" stroke="none" d="M 18.397 363.358 C 18.399 363.358 38.581 356.035 38.583 356.034 C 38.582 356.035 31.900 363.290 31.900 363.290 C 31.900 363.291 38.655 370.478 38.656 370.478 C 38.654 370.478 18.399 363.359 18.397 363.358 Z"/>
<path fill="#ffff00" fill-rule="evenodd" stroke="none" d="M 31.274 689.533 C 31.276 689.530 43.433 663.062 43.434 663.059 C 43.434 663.061 44.074 676.426 44.074 676.428 C 44.075 676.428 57.452 676.752 57.453 676.752 C 57.450 676.753 31.277 689.532 31.274 689.533 Z"/>
<path fill="#ffff00" fill-rule="evenodd" stroke="none" d="M 688.726 689.209 C 688.724 689.206 676.039 662.987 676.038 662.984 C 676.038 662.985 675.666 676.361 675.666 676.362 C 675.665 676.363 662.297 676.955 662.296 676.955 C 662.298 676.956 688.723 689.207 688.726 689.209 Z"/>
<path fill="#00ff00" fill-rule="evenodd" stroke="none" d="M 701.603 363.358 C 701.601 363.358 681.419 356.035 681.417 356.034 C 681.418 356.035 688.100 363.290 688.100 363.290 C 688.100 363.291 681.345 370.478 681.344 370.478 C 681.346 370.478 701.601 363.359 701.603 363.358 Z"/>
<path fill="#00ffff" fill-rule="evenodd" stroke="none" d="M 686.556 30.467 C 686.555 30.470 676.831 57.926 676.830 57.929 C 676.830 57.927 674.989 44.674 674.989 44.672 C 674.987 44.672 661.636 45.554 661.634 45.554 C 661.637 45.552 686.553 30.469 686.556 30.467 Z"/>
<path fill="#00ffff" fill-rule="evenodd" stroke="none" d="M 31.798 31.377 C 31.799 31.380 43.331 58.126 43.333 58.129 C 43.333 58.128 44.286 44.781 44.286 44.779 C 44.288 44.779 57.668 44.769 57.669 44.769 C 57.667 44.768 31.800 31.379 31.798 31.377 Z"/>
</g>
</g>
</svg>
