<?xml version="1.0" encoding="utf-8"?>
<!-- Generator: Moho 12.5 build 22414 -->
<!DOCTYPE svg PUBLIC "-//W3C//DTD SVG 1.1//EN" "http://www.w3.org/Graphics/SVG/1.1/DTD/svg11.dtd">
<svg version="1.1" id="Frame_0" xmlns="http://www.w3.org/2000/svg" xmlns:xlink="http://www.w3.org/1999/xlink" width="720px" height="720px">
<g id="square">
<g id="square">
<path fill="#ffffff" fill-rule="evenodd" stroke="#000000" stroke-width="4" stroke-linecap="round" stroke-linejoin="round" d="M 299.925 420.075 C 299.925 420.063 299.925 299.937 299.925 299.925 C 299.937 299.925 420.063 299.925 420.075 299.925 C 420.075 299.937 420.075 420.063 420.075 420.075 C 420.063 420.075 299.937 420.075 299.925 420.075 M 239.851 480.149 C 239.851 480.125 239.851 239.875 239.851 239.851 C 239.875 239.851 480.125 239.851 480.149 239.851 C 480.149 239.875 480.149 480.125 480.149 480.149 C 480.125 480.149 239.875 480.149 239.851 480.149 M 179.776 540.224 C 179.776 540.188 179.776 179.812 179.776 179.776 C 179.812 179.776 540.188 179.776 540.224 179.776 C 540.224 179.812 540.224 540.188 540.224 540.224 C 540.188 540.224 179.812 540.224 179.776 540.224 M 119.701 600.299 C 119.701 600.251 119.701 119.749 119.701 119.701 C 119.749 119.701 600.251 119.701 600.299 119.701 C 600.299 119.749 600.299 600.251 600.299 600.299 C 600.251 600.299 119.749 600.299 119.701 600.299 M 59.626 660.374 C 59.626 660.314 59.626 59.686 59.626 59.626 C 59.686 59.626 660.314 59.626 660.374 59.626 C 660.374 59.686 660.374 660.314 660.374 660.374 C 660.314 660.374 59.686 660.374 59.626 660.374 Z"/>
</g>
<g id="specs">
<path fill="#ff00ff" fill-rule="evenodd" stroke="none" d="M 135.370 584.478 C 135.415 584.478 584.585 584.478 584.630 584.478 C 584.630 584.433 584.630 135.263 584.630 135.218 C 584.585 135.218 135.415 135.218 135.370 135.218 C 135.370 135.263 135.370 584.433 135.370 584.478 Z"/>
<path fill="#ff0000" fill-rule="evenodd" stroke="none" d="M 359.519 640.644 C 359.520 640.647 370.961 672.685 370.963 672.688 C 370.961 672.687 359.520 662.041 359.519 662.040 C 359.517 662.041 348.076 672.687 348.075 672.688 C 348.076 672.685 359.517 640.647 359.519 640.644 Z"/>
<path fill="#0000ff" fill-rule="evenodd" stroke="none" d="M 359.519 43.489 C 359.519 43.491 366.165 62.101 366.166 62.103 C 366.165 62.102 359.519 55.918 359.519 55.918 C 359.518 55.918 352.872 62.102 352.871 62.103 C 352.872 62.101 359.518 43.491 359.519 43.489 Z"/>
<path fill="#00ff00" fill-rule="evenodd" stroke="none" d="M 45.569 362.939 C 45.571 362.938 64.147 356.198 64.149 356.197 C 64.149 356.198 57.998 362.876 57.998 362.876 C 57.998 362.877 64.216 369.492 64.216 369.493 C 64.214 369.492 45.571 362.940 45.569 362.939 Z"/>
<path fill="#ffff00" fill-rule="evenodd" stroke="none" d="M 57.422 663.169 C 57.423 663.166 68.613 638.803 68.614 638.801 C 68.614 638.802 69.203 651.105 69.203 651.106 C 69.205 651.106 81.517 651.404 81.518 651.404 C 81.516 651.405 57.424 663.168 57.422 663.169 Z"/>
<path fill="#ffff00" fill-rule="evenodd" stroke="none" d="M 662.578 662.870 C 662.577 662.868 650.901 638.734 650.899 638.732 C 650.899 638.733 650.557 651.045 650.557 651.046 C 650.556 651.046 638.251 651.592 638.250 651.592 C 638.253 651.593 662.576 662.869 662.578 662.870 Z"/>
<path fill="#00ff00" fill-rule="evenodd" stroke="none" d="M 674.431 362.939 C 674.429 362.938 655.853 356.198 655.851 356.197 C 655.851 356.198 662.002 362.876 662.002 362.876 C 662.002 362.877 655.784 369.492 655.784 369.493 C 655.786 369.492 674.429 362.940 674.431 362.939 Z"/>
<path fill="#00ffff" fill-rule="evenodd" stroke="none" d="M 660.581 56.527 C 660.580 56.530 651.630 81.802 651.629 81.804 C 651.628 81.803 649.934 69.603 649.934 69.602 C 649.932 69.602 637.643 70.414 637.642 70.414 C 637.644 70.412 660.578 56.529 660.581 56.527 Z"/>
<path fill="#00ffff" fill-rule="evenodd" stroke="none" d="M 57.904 57.365 C 57.905 57.367 68.520 81.986 68.521 81.989 C 68.521 81.988 69.399 69.702 69.399 69.701 C 69.400 69.701 81.716 69.691 81.717 69.691 C 81.715 69.690 57.906 57.366 57.904 57.365 Z"/>
</g>
</g>
</svg>
