<?xml version="1.0" encoding="utf-8"?>
<!-- Generator: Moho 12.5 build 22414 -->
<!DOCTYPE svg PUBLIC "-//W3C//DTD SVG 1.1//EN" "http://www.w3.org/Graphics/SVG/1.1/DTD/svg11.dtd">
<svg version="1.1" id="Frame_0" xmlns="http://www.w3.org/2000/svg" xmlns:xlink="http://www.w3.org/1999/xlink" width="720px" height="720px">
<g id="square">
<g id="square">
<path fill="#ffffff" fill-rule="evenodd" stroke="#000000" stroke-width="4" stroke-linecap="round" stroke-linejoin="round" d="M 32.683 32.683 C 32.749 32.683 687.251 32.683 687.317 32.683 C 687.317 32.749 687.317 687.251 687.317 687.317 C 687.251 687.317 32.749 687.317 32.683 687.317 C 32.683 687.251 32.683 32.749 32.683 32.683 Z"/>
</g>
<g id="specs">
<path fill="#ff00ff" fill-rule="evenodd" stroke="none" d="M 260.795 459.205 C 260.815 459.205 459.185 459.205 459.205 459.205 C 459.205 459.185 459.205 260.815 459.205 260.795 C 459.185 260.795 260.815 260.795 260.795 260.795 C 260.795 260.815 260.795 459.185 260.795 459.205 Z"/>
<path fill="#ff0000" fill-rule="evenodd" stroke="none" d="M 359.477 665.062 C 359.478 665.065 371.909 699.871 371.910 699.875 C 371.909 699.873 359.478 688.307 359.477 688.306 C 359.476 688.307 347.045 699.873 347.044 699.875 C 347.045 699.871 359.476 665.065 359.477 665.062 Z"/>
<path fill="#0000ff" fill-rule="evenodd" stroke="none" d="M 359.477 16.302 C 359.478 16.305 366.698 36.523 366.699 36.525 C 366.698 36.524 359.478 29.806 359.477 29.805 C 359.476 29.806 352.256 36.524 352.255 36.525 C 352.256 36.523 359.476 16.305 359.477 16.302 Z"/>
<path fill="#00ff00" fill-rule="evenodd" stroke="none" d="M 18.397 363.358 C 18.399 363.358 38.581 356.035 38.583 356.034 C 38.582 356.035 31.900 363.290 31.900 363.290 C 31.900 363.291 38.655 370.478 38.656 370.478 C 38.654 370.478 18.399 363.359 18.397 363.358 Z"/>
<path fill="#ffff00" fill-rule="evenodd" stroke="none" d="M 31.274 689.533 C 31.276 689.530 43.433 663.062 43.434 663.059 C 43.434 663.061 44.074 676.426 44.074 676.428 C 44.075 676.428 57.452 676.752 57.453 676.752 C 57.450 676.753 31.277 689.532 31.274 689.533 Z"/>
<path fill="#ffff00" fill-rule="evenodd" stroke="none" d="M 688.726 689.209 C 688.724 689.206 676.039 662.987 676.038 662.984 C 676.038 662.985 675.666 676.361 675.666 676.362 C 675.665 676.363 662.297 676.955 662.296 676.955 C 662.298 676.956 688.723 689.207 688.726 689.209 Z"/>
<path fill="#00ff00" fill-rule="evenodd" stroke="none" d="M 701.603 363.358 C 701.601 363.358 681.419 356.035 681.417 356.034 C 681.418 356.035 688.100 363.290 688.100 363.290 C 688.100 363.291 681.345 370.478 681.344 370.478 C 681.346 370.478 701.601 363.359 701.603 363.358 Z"/>
<path fill="#00ffff" fill-rule="evenodd" stroke="none" d="M 686.556 30.467 C 686.555 30.470 676.831 57.926 676.830 57.929 C 676.830 57.927 674.989 44.674 674.989 44.672 C 674.987 44.672 661.636 45.554 661.634 45.554 C 661.637 45.552 686.553 30.469 686.556 30.467 Z"/>
<path fill="#00ffff" fill-rule="evenodd" stroke="none" d="M 31.798 31.377 C 31.799 31.380 43.331 58.126 43.333 58.129 C 43.333 58.128 44.286 44.781 44.286 44.779 C 44.288 44.779 57.668 44.769 57.669 44.769 C 57.667 44.768 31.800 31.379 31.798 31.377 Z"/>
</g>
</g>
</svg>
