<?xml version="1.0" encoding="utf-8"?>
<!-- Generator: Moho 12.5 build 22414 -->
<!DOCTYPE svg PUBLIC "-//W3C//DTD SVG 1.1//EN" "http://www.w3.org/Graphics/SVG/1.1/DTD/svg11.dtd">
<svg version="1.1" id="Frame_0" xmlns="http://www.w3.org/2000/svg" xmlns:xlink="http://www.w3.org/1999/xlink" width="720px" height="720px">
<g id="stairs_smaller">
<g id="stairs">
<path fill="#000000" fill-rule="evenodd" stroke="#ffffff" stroke-width="4" stroke-linejoin="round" d="M 387.019 645.306 C 387.019 645.297 387.019 559.916 387.019 559.907 C 283.024 499.585 179.028 439.262 75.033 378.939 C 75.033 378.948 75.033 464.330 75.033 464.338 C 75.064 464.357 283.024 584.983 387.019 645.306 Z"/>
<path fill="#000000" fill-rule="evenodd" stroke="#ffffff" stroke-width="4" stroke-linejoin="round" d="M 472.418 511.442 C 472.418 511.433 472.418 426.051 472.418 426.043 C 368.422 365.720 264.427 305.398 160.431 245.075 C 160.431 245.084 160.431 330.466 160.431 330.474 C 264.427 390.797 368.422 451.119 472.418 511.442 Z"/>
<path fill="#000000" fill-rule="evenodd" stroke="#ffffff" stroke-width="4" stroke-linejoin="round" d="M 557.815 377.576 C 557.815 377.567 557.815 292.186 557.815 292.177 C 453.820 231.855 349.825 171.532 245.829 111.210 C 245.829 111.218 245.829 196.600 245.829 196.608 C 349.825 256.931 453.820 317.253 557.815 377.576 Z"/>
<path fill="none" stroke="#ffffff" stroke-width="1" stroke-linecap="butt" stroke-linejoin="round" d="M 245.829 111.210 C 349.825 171.532 453.820 231.855 557.815 292.177 "/>
<path fill="#ffffff" fill-rule="evenodd" stroke="#000000" stroke-width="4" stroke-linejoin="round" d="M 643.214 243.708 C 643.183 243.690 435.223 123.064 331.227 62.743 C 302.761 78.898 245.838 111.205 245.829 111.210 C 349.825 171.532 453.820 231.855 557.815 292.177 C 557.824 292.172 643.206 243.713 643.214 243.708 Z"/>
<path fill="none" stroke="#ffffff" stroke-width="1" stroke-linecap="butt" stroke-linejoin="round" d="M 557.815 377.576 C 453.820 317.253 349.825 256.931 245.829 196.608 "/>
<path fill="none" stroke="#ffffff" stroke-width="1" stroke-linecap="butt" stroke-linejoin="round" d="M 160.431 245.075 C 264.427 305.398 368.422 365.720 472.418 426.043 "/>
<path fill="#ffffff" fill-rule="evenodd" stroke="#000000" stroke-width="4" stroke-linejoin="round" d="M 472.418 426.043 C 472.426 426.038 557.807 377.581 557.815 377.576 C 453.820 317.253 349.825 256.931 245.829 196.608 C 245.821 196.613 160.440 245.070 160.431 245.075 C 264.427 305.398 368.422 365.720 472.418 426.043 Z"/>
<path fill="none" stroke="#ffffff" stroke-width="1" stroke-linecap="butt" stroke-linejoin="round" d="M 472.418 511.442 C 368.422 451.119 264.427 390.797 160.431 330.474 "/>
<path fill="none" stroke="#ffffff" stroke-width="1" stroke-linecap="butt" stroke-linejoin="round" d="M 75.033 378.939 C 179.028 439.262 283.024 499.585 387.019 559.907 "/>
<path fill="#ffffff" fill-rule="evenodd" stroke="#000000" stroke-width="4" stroke-linejoin="round" d="M 387.019 559.907 C 387.028 559.902 472.409 511.447 472.418 511.442 C 368.422 451.119 264.427 390.797 160.431 330.474 C 160.423 330.479 75.042 378.935 75.033 378.939 C 179.028 439.262 283.024 499.585 387.019 559.907 Z"/>
<path fill="none" stroke="#ffffff" stroke-width="1" stroke-linecap="butt" stroke-linejoin="round" d="M 557.815 292.177 C 557.824 292.172 643.206 243.713 643.214 243.708 "/>
<path fill="none" stroke="#ffffff" stroke-width="1" stroke-linecap="butt" stroke-linejoin="round" d="M 387.019 645.306 C 387.019 645.297 387.019 559.916 387.019 559.907 "/>
<path fill="none" stroke="#ffffff" stroke-width="1" stroke-linecap="butt" stroke-linejoin="round" d="M 387.019 559.907 C 387.028 559.902 472.409 511.447 472.418 511.442 "/>
<path fill="none" stroke="#ffffff" stroke-width="1" stroke-linecap="butt" stroke-linejoin="round" d="M 472.418 511.442 C 472.418 511.433 472.418 426.051 472.418 426.043 "/>
<path fill="none" stroke="#ffffff" stroke-width="1" stroke-linecap="butt" stroke-linejoin="round" d="M 472.418 426.043 C 472.426 426.038 557.807 377.581 557.815 377.576 "/>
<path fill="none" stroke="#ffffff" stroke-width="1" stroke-linecap="butt" stroke-linejoin="round" d="M 557.815 377.576 C 557.815 377.567 557.815 292.186 557.815 292.177 "/>
<path fill="#ffffff" fill-rule="evenodd" stroke="#000000" stroke-width="4" stroke-linejoin="round" d="M 557.815 292.177 C 557.824 292.172 643.206 243.713 643.214 243.708 C 643.799 328.809 644.967 498.986 644.967 499.011 C 644.941 499.026 387.045 645.291 387.019 645.306 C 387.019 645.297 387.019 559.916 387.019 559.907 C 387.028 559.902 472.409 511.447 472.418 511.442 C 472.418 511.433 472.418 426.051 472.418 426.043 C 472.426 426.038 557.807 377.581 557.815 377.576 C 557.815 377.567 557.815 292.186 557.815 292.177 Z"/>
</g>
<g id="specs_2">
<path fill="#ff00ff" fill-rule="evenodd" stroke="none" d="M 222.951 353.190 C 222.978 353.190 497.022 353.190 497.049 353.190 C 497.049 353.156 497.049 15.513 497.049 15.479 C 497.022 15.479 222.978 15.479 222.951 15.479 C 222.951 15.513 222.951 353.156 222.951 353.190 Z"/>
<path fill="#ff0000" fill-rule="evenodd" stroke="none" d="M 388.079 674.110 C 388.080 674.112 398.478 703.227 398.479 703.230 C 398.478 703.229 388.080 693.554 388.079 693.553 C 388.078 693.554 377.680 703.229 377.679 703.230 C 377.680 703.227 388.078 674.112 388.079 674.110 Z"/>
<path fill="#0000ff" fill-rule="evenodd" stroke="none" d="M 471.578 132.874 C 471.578 132.876 477.618 149.788 477.619 149.790 C 477.618 149.789 471.578 144.169 471.578 144.169 C 471.577 144.169 465.537 149.789 465.537 149.790 C 465.537 149.788 471.577 132.876 471.578 132.874 Z"/>
<path fill="#00ff00" fill-rule="evenodd" stroke="none" d="M 65.256 387.303 C 65.258 387.302 82.611 380.946 82.613 380.945 C 82.612 380.946 76.879 387.209 76.879 387.209 C 76.879 387.210 82.713 393.378 82.713 393.379 C 82.712 393.378 65.258 387.304 65.256 387.303 Z"/>
<path fill="#ffff00" fill-rule="evenodd" stroke="none" d="M 182.659 543.065 C 182.659 543.063 190.155 526.744 190.156 526.742 C 190.156 526.743 190.550 534.984 190.550 534.984 C 190.551 534.985 198.799 535.185 198.799 535.185 C 198.798 535.186 182.660 543.064 182.659 543.065 Z"/>
<path fill="#ffff00" fill-rule="evenodd" stroke="none" d="M 588.016 542.865 C 588.015 542.863 580.194 526.697 580.193 526.696 C 580.193 526.697 579.964 534.944 579.964 534.944 C 579.963 534.944 571.721 535.310 571.720 535.310 C 571.722 535.311 588.014 542.864 588.016 542.865 Z"/>
<path fill="#00ff00" fill-rule="evenodd" stroke="none" d="M 653.367 385.514 C 653.365 385.514 635.973 379.263 635.971 379.263 C 635.972 379.263 641.743 385.491 641.743 385.491 C 641.743 385.492 635.947 391.696 635.947 391.697 C 635.948 391.696 653.365 385.515 653.367 385.514 Z"/>
<path fill="#00ffff" fill-rule="evenodd" stroke="none" d="M 650.105 240.433 C 650.104 240.434 638.246 253.921 638.245 253.922 C 638.245 253.922 640.229 245.914 640.229 245.913 C 640.228 245.912 632.384 243.357 632.383 243.357 C 632.385 243.357 650.103 240.433 650.105 240.433 Z"/>
<path fill="#00ffff" fill-rule="evenodd" stroke="none" d="M 327.119 53.494 C 327.119 53.496 326.232 71.433 326.232 71.434 C 326.232 71.434 330.387 64.306 330.388 64.306 C 330.389 64.306 337.796 67.937 337.797 67.938 C 337.796 67.936 327.120 53.496 327.119 53.494 Z"/>
<path fill="#be0027" fill-rule="evenodd" stroke="none" d="M 388.108 663.636 C 388.109 663.633 398.507 634.518 398.508 634.515 C 398.507 634.516 388.109 644.191 388.108 644.192 C 388.107 644.191 377.709 634.516 377.708 634.515 C 377.709 634.518 388.107 663.633 388.108 663.636 Z"/>
</g>
</g>
</svg>
