<?xml version="1.0" encoding="utf-8"?>
<!-- Generator: Moho 12.5 build 22414 -->
<!DOCTYPE svg PUBLIC "-//W3C//DTD SVG 1.1//EN" "http://www.w3.org/Graphics/SVG/1.1/DTD/svg11.dtd">
<svg version="1.1" id="Frame_0" xmlns="http://www.w3.org/2000/svg" xmlns:xlink="http://www.w3.org/1999/xlink" width="720px" height="720px">
<g id="stairs_smaller">
<g id="stairs">
<path fill="#ffffff" fill-rule="evenodd" stroke="#000000" stroke-width="4" stroke-linejoin="round" d="M 666.047 213.634 C 666.014 213.615 441.287 83.264 328.907 18.079 C 298.147 35.537 236.634 70.448 236.625 70.453 C 236.625 70.463 236.625 162.728 236.625 162.737 C 236.616 162.742 144.351 215.106 144.341 215.111 C 144.341 215.120 144.341 307.386 144.341 307.395 C 144.332 307.400 52.068 359.763 52.059 359.768 C 52.059 359.777 52.059 452.043 52.059 452.052 C 52.093 452.071 276.818 582.423 389.198 647.609 C 389.225 647.593 667.913 489.536 667.941 489.520 C 667.941 489.492 666.679 305.596 666.047 213.634 Z"/>
<path fill="#000000" fill-rule="evenodd" stroke="none" d="M 573.603 357.906 C 573.603 357.896 573.603 265.633 573.603 265.624 C 573.569 265.604 236.498 70.085 236.464 70.066 C 236.464 70.075 236.464 162.339 236.464 162.348 C 236.498 162.368 573.569 357.886 573.603 357.906 Z"/>
<path fill="#000000" fill-rule="evenodd" stroke="none" d="M 481.239 502.382 C 481.239 502.372 481.239 410.109 481.239 410.099 C 481.205 410.080 144.134 214.561 144.100 214.542 C 144.100 214.551 144.100 306.815 144.100 306.824 C 144.134 306.844 481.205 502.362 481.239 502.382 Z"/>
<path fill="#000000" fill-rule="evenodd" stroke="none" d="M 389.627 647.199 C 389.627 647.190 389.627 554.926 389.627 554.917 C 389.594 554.897 52.523 359.378 52.489 359.359 C 52.489 359.368 52.489 451.632 52.489 451.641 C 52.523 451.661 389.594 647.180 389.627 647.199 Z"/>
<path fill="none" stroke="#000000" stroke-width="4" stroke-linejoin="round" d="M 144.341 307.395 C 256.721 372.581 369.101 437.767 481.481 502.953 C 481.472 502.958 389.207 555.320 389.198 555.326 C 389.198 555.335 389.198 647.600 389.198 647.609 C 389.225 647.593 667.913 489.536 667.941 489.520 C 667.941 489.492 666.679 305.596 666.047 213.634 C 666.038 213.639 573.773 266.005 573.764 266.010 C 461.384 200.825 349.004 135.639 236.625 70.453 C 236.625 70.463 236.625 162.728 236.625 162.737 C 349.004 227.923 461.384 293.109 573.764 358.294 C 573.754 358.300 481.490 410.664 481.481 410.669 C 369.101 345.483 256.721 280.297 144.341 215.111 C 144.341 215.120 144.341 307.386 144.341 307.395 C 144.332 307.400 52.068 359.763 52.059 359.768 C 164.438 424.954 276.818 490.140 389.198 555.326 M 481.481 502.953 C 481.481 502.943 481.481 410.678 481.481 410.669 M 573.764 358.294 C 573.764 358.285 573.764 266.020 573.764 266.010 M 666.047 213.634 C 666.014 213.615 441.287 83.264 328.907 18.079 C 298.147 35.537 236.634 70.448 236.625 70.453 M 389.198 647.609 C 276.818 582.423 52.093 452.071 52.059 452.052 C 52.059 452.043 52.059 359.777 52.059 359.768 M 144.341 215.111 C 144.351 215.106 236.616 162.742 236.625 162.737 "/>
</g>
<g id="specs_2">
<path fill="#ff00ff" fill-rule="evenodd" stroke="none" d="M 159.711 467.828 C 159.736 467.828 411.930 467.828 411.955 467.828 C 411.955 467.792 411.955 108.649 411.955 108.613 C 411.930 108.613 159.736 108.613 159.711 108.613 C 159.711 108.649 159.711 467.792 159.711 467.828 Z"/>
<path fill="#ff0000" fill-rule="evenodd" stroke="none" d="M 390.342 678.735 C 390.343 678.738 401.580 710.200 401.581 710.203 C 401.580 710.202 390.343 699.747 390.342 699.746 C 390.341 699.747 379.105 710.202 379.104 710.203 C 379.105 710.200 390.341 678.738 390.342 678.735 Z"/>
<path fill="#0000ff" fill-rule="evenodd" stroke="none" d="M 480.573 93.864 C 480.574 93.866 487.101 112.142 487.101 112.144 C 487.101 112.143 480.574 106.070 480.573 106.070 C 480.573 106.070 474.046 112.143 474.045 112.144 C 474.046 112.142 480.573 93.866 480.573 93.864 Z"/>
<path fill="#00ff00" fill-rule="evenodd" stroke="none" d="M 41.493 368.806 C 41.495 368.805 60.248 361.936 60.249 361.935 C 60.249 361.936 54.054 368.703 54.053 368.704 C 54.054 368.705 60.357 375.371 60.358 375.371 C 60.356 375.371 41.495 368.806 41.493 368.806 Z"/>
<path fill="#ffff00" fill-rule="evenodd" stroke="none" d="M 168.361 537.125 C 168.362 537.123 176.462 519.489 176.463 519.487 C 176.463 519.488 176.889 528.393 176.889 528.394 C 176.890 528.394 185.802 528.610 185.803 528.610 C 185.801 528.611 168.363 537.124 168.361 537.125 Z"/>
<path fill="#ffff00" fill-rule="evenodd" stroke="none" d="M 606.399 536.909 C 606.398 536.907 597.946 519.438 597.945 519.437 C 597.945 519.437 597.697 528.349 597.697 528.350 C 597.697 528.350 588.790 528.745 588.789 528.745 C 588.791 528.746 606.397 536.908 606.399 536.909 Z"/>
<path fill="#00ff00" fill-rule="evenodd" stroke="none" d="M 677.018 366.873 C 677.016 366.872 658.222 360.118 658.221 360.117 C 658.221 360.118 664.457 366.847 664.458 366.848 C 664.457 366.849 658.194 373.553 658.194 373.553 C 658.196 373.553 677.016 366.874 677.018 366.873 Z"/>
<path fill="#00ffff" fill-rule="evenodd" stroke="none" d="M 673.494 210.095 C 673.492 210.096 660.678 224.670 660.677 224.672 C 660.677 224.671 662.821 216.017 662.821 216.016 C 662.820 216.016 654.344 213.255 654.343 213.254 C 654.345 213.254 673.492 210.095 673.494 210.095 Z"/>
<path fill="#00ffff" fill-rule="evenodd" stroke="none" d="M 324.468 8.085 C 324.468 8.087 323.509 27.469 323.509 27.471 C 323.510 27.471 328.000 19.769 328.001 19.768 C 328.001 19.768 336.006 23.692 336.007 23.693 C 336.006 23.691 324.470 8.086 324.468 8.085 Z"/>
<path fill="#be0027" fill-rule="evenodd" stroke="none" d="M 390.374 667.417 C 390.375 667.414 401.611 635.952 401.612 635.949 C 401.611 635.950 390.375 646.404 390.374 646.405 C 390.373 646.404 379.137 635.950 379.136 635.949 C 379.137 635.952 390.373 667.414 390.374 667.417 Z"/>
</g>
</g>
</svg>
