<?xml version="1.0" encoding="utf-8"?>
<!-- Generator: Moho 12.5 build 22414 -->
<!DOCTYPE svg PUBLIC "-//W3C//DTD SVG 1.1//EN" "http://www.w3.org/Graphics/SVG/1.1/DTD/svg11.dtd">
<svg version="1.1" id="Frame_0" xmlns="http://www.w3.org/2000/svg" xmlns:xlink="http://www.w3.org/1999/xlink" width="720px" height="720px">
<g id="stairs">
<g id="stairs">
<path fill="#ffffff" fill-rule="evenodd" stroke="none" d="M 658.839 180.615 C 658.809 180.598 364.029 10.378 363.999 10.361 C 363.993 10.364 303.437 44.733 303.431 44.736 C 303.431 44.742 303.431 105.297 303.431 105.303 C 303.425 105.307 242.869 139.675 242.863 139.679 C 242.863 139.685 242.863 200.240 242.863 200.246 C 242.857 200.249 182.302 234.617 182.296 234.620 C 182.296 234.626 182.296 295.182 182.296 295.188 C 182.290 295.192 121.734 329.559 121.728 329.563 C 121.728 329.569 121.728 390.125 121.728 390.131 C 121.722 390.134 61.167 424.501 61.161 424.504 C 61.161 424.510 61.161 485.066 61.161 485.072 C 61.191 485.089 355.971 655.310 356.001 655.327 C 356.031 655.310 658.808 483.471 658.839 483.453 C 658.839 483.423 658.839 180.646 658.839 180.615 Z"/>
<path fill="none" stroke="#000000" stroke-width="4" stroke-linejoin="round" d="M 61.161 424.504 C 159.441 481.256 257.721 538.007 356.001 594.759 C 356.001 594.765 356.001 655.321 356.001 655.327 C 356.031 655.310 557.893 540.745 658.839 483.453 C 658.839 382.508 658.839 180.646 658.839 180.615 C 658.833 180.619 598.277 214.987 598.271 214.991 C 499.991 158.239 401.711 101.488 303.431 44.736 C 303.431 44.742 303.431 105.297 303.431 105.303 C 401.711 162.055 499.991 218.806 598.271 275.558 C 598.265 275.561 537.710 309.929 537.704 309.932 C 439.424 253.181 341.143 196.430 242.863 139.679 C 242.863 139.685 242.863 200.240 242.863 200.246 C 341.143 256.997 439.424 313.748 537.704 370.499 C 537.698 370.503 477.142 404.872 477.136 404.875 C 378.856 348.124 280.576 291.372 182.296 234.620 C 182.296 234.626 182.296 295.182 182.296 295.188 C 280.576 351.940 378.856 408.692 477.136 465.443 C 477.130 465.447 416.575 499.814 416.569 499.818 C 318.289 443.066 220.008 386.314 121.728 329.563 C 121.728 329.569 121.728 390.125 121.728 390.131 C 220.008 446.882 318.289 503.634 416.569 560.386 C 416.563 560.389 356.007 594.756 356.001 594.759 M 61.161 424.504 C 61.167 424.501 121.722 390.134 121.728 390.131 C 121.722 390.134 61.167 424.501 61.161 424.504 C 61.161 424.510 61.161 485.066 61.161 485.072 C 61.191 485.089 355.971 655.310 356.001 655.327 C 356.031 655.310 658.808 483.471 658.839 483.453 C 658.839 483.423 658.839 180.646 658.839 180.615 C 658.809 180.598 364.029 10.378 363.999 10.361 C 363.993 10.364 303.437 44.733 303.431 44.736 C 303.431 44.742 303.431 105.297 303.431 105.303 C 303.425 105.307 242.869 139.675 242.863 139.679 C 242.863 139.685 242.863 200.240 242.863 200.246 C 242.857 200.249 182.302 234.617 182.296 234.620 C 182.296 234.626 182.296 295.182 182.296 295.188 C 182.290 295.192 121.734 329.559 121.728 329.563 C 121.728 329.569 121.728 390.125 121.728 390.131 M 416.569 560.386 C 416.569 560.380 416.569 499.824 416.569 499.818 M 477.136 465.443 C 477.136 465.437 477.136 404.881 477.136 404.875 M 537.704 370.499 C 537.704 370.493 537.704 309.938 537.704 309.932 M 598.271 275.558 C 598.271 275.552 598.271 214.997 598.271 214.991 M 182.296 295.188 C 182.290 295.192 121.734 329.559 121.728 329.563 M 242.863 200.246 C 242.857 200.249 182.302 234.617 182.296 234.620 M 303.431 105.303 C 303.425 105.307 242.869 139.675 242.863 139.679 "/>
<path fill="#000000" fill-rule="evenodd" stroke="none" d="M 598.525 276.052 C 598.525 276.046 598.525 215.491 598.525 215.485 C 598.496 215.468 303.715 45.247 303.686 45.230 C 303.686 45.236 303.686 105.791 303.686 105.797 C 303.715 105.814 598.496 276.035 598.525 276.052 Z"/>
<path fill="#000000" fill-rule="evenodd" stroke="none" d="M 537.666 370.620 C 537.666 370.614 537.666 310.059 537.666 310.053 C 537.636 310.036 242.855 139.815 242.826 139.798 C 242.826 139.804 242.826 200.359 242.826 200.365 C 242.855 200.382 537.636 370.603 537.666 370.620 Z"/>
<path fill="#000000" fill-rule="evenodd" stroke="none" d="M 477.030 465.906 C 477.030 465.900 477.030 405.346 477.030 405.339 C 477.001 405.322 182.220 235.102 182.190 235.085 C 182.190 235.091 182.190 295.646 182.190 295.652 C 182.220 295.669 477.001 465.889 477.030 465.906 Z"/>
<path fill="#000000" fill-rule="evenodd" stroke="none" d="M 416.410 560.729 C 416.410 560.723 416.410 500.168 416.410 500.162 C 416.380 500.145 121.600 329.924 121.570 329.907 C 121.570 329.913 121.570 390.468 121.570 390.474 C 121.600 390.491 416.380 560.712 416.410 560.729 Z"/>
<path fill="#000000" fill-rule="evenodd" stroke="none" d="M 356.283 655.776 C 356.283 655.770 356.283 595.215 356.283 595.209 C 356.254 595.192 61.473 424.971 61.444 424.954 C 61.444 424.960 61.444 485.515 61.444 485.521 C 61.473 485.538 356.254 655.759 356.283 655.776 Z"/>
</g>
<g id="specs_2">
<path fill="#ff00ff" fill-rule="evenodd" stroke="none" d="M 65.137 465.275 C 65.182 465.275 505.326 465.275 505.370 465.275 C 505.370 465.231 505.370 25.086 505.370 25.042 C 505.326 25.042 65.182 25.042 65.137 25.042 C 65.137 25.086 65.137 465.231 65.137 465.275 Z"/>
<path fill="#ff0000" fill-rule="evenodd" stroke="none" d="M 360.000 682.768 C 360.001 682.771 371.655 715.404 371.657 715.407 C 371.655 715.406 360.001 704.562 360.000 704.561 C 359.999 704.562 348.345 715.406 348.343 715.407 C 348.345 715.404 359.999 682.771 360.000 682.768 Z"/>
<path fill="#0000ff" fill-rule="evenodd" stroke="none" d="M 362.586 1.639 C 362.587 1.641 369.357 20.597 369.357 20.599 C 369.357 20.598 362.587 14.299 362.586 14.299 C 362.586 14.299 355.816 20.598 355.815 20.599 C 355.816 20.597 362.586 1.641 362.586 1.639 Z"/>
<path fill="#00ff00" fill-rule="evenodd" stroke="none" d="M 40.217 333.786 C 40.219 333.785 59.140 326.919 59.142 326.919 C 59.142 326.919 52.877 333.721 52.877 333.722 C 52.877 333.722 59.210 340.460 59.211 340.461 C 59.209 340.460 40.219 333.786 40.217 333.786 Z"/>
<path fill="#ffff00" fill-rule="evenodd" stroke="none" d="M 133.452 561.141 C 133.453 561.139 141.855 542.848 141.855 542.846 C 141.855 542.847 142.298 552.083 142.298 552.084 C 142.299 552.084 151.543 552.308 151.544 552.308 C 151.542 552.309 133.454 561.140 133.452 561.141 Z"/>
<path fill="#ffff00" fill-rule="evenodd" stroke="none" d="M 587.790 560.917 C 587.789 560.915 579.023 542.796 579.022 542.794 C 579.022 542.795 578.765 552.039 578.765 552.039 C 578.764 552.039 569.526 552.449 569.525 552.449 C 569.527 552.450 587.788 560.916 587.790 560.917 Z"/>
<path fill="#00ff00" fill-rule="evenodd" stroke="none" d="M 680.763 333.786 C 680.762 333.785 661.840 326.919 661.838 326.919 C 661.839 326.919 668.103 333.721 668.104 333.722 C 668.103 333.722 661.771 340.460 661.770 340.461 C 661.772 340.460 680.762 333.786 680.763 333.786 Z"/>
<path fill="#00ffff" fill-rule="evenodd" stroke="none" d="M 586.291 105.688 C 586.290 105.690 579.570 124.663 579.570 124.665 C 579.570 124.664 578.297 115.505 578.297 115.504 C 578.296 115.504 569.069 116.113 569.068 116.114 C 569.070 116.112 586.289 105.689 586.291 105.688 Z"/>
<path fill="#00ffff" fill-rule="evenodd" stroke="none" d="M 133.814 106.317 C 133.815 106.318 141.785 124.802 141.785 124.804 C 141.786 124.803 142.444 115.579 142.444 115.578 C 142.445 115.578 151.692 115.571 151.693 115.571 C 151.691 115.570 133.816 106.317 133.814 106.317 Z"/>
<path fill="#be0027" fill-rule="evenodd" stroke="none" d="M 357.414 671.029 C 357.415 671.025 369.069 638.393 369.070 638.389 C 369.069 638.390 357.415 649.234 357.414 649.235 C 357.413 649.234 345.758 638.390 345.757 638.389 C 345.758 638.393 357.413 671.025 357.414 671.029 Z"/>
</g>
</g>
</svg>
