<?xml version="1.0" encoding="utf-8"?>
<!-- Generator: Moho 12.5 build 22414 -->
<!DOCTYPE svg PUBLIC "-//W3C//DTD SVG 1.1//EN" "http://www.w3.org/Graphics/SVG/1.1/DTD/svg11.dtd">
<svg version="1.1" id="Frame_0" xmlns="http://www.w3.org/2000/svg" xmlns:xlink="http://www.w3.org/1999/xlink" width="720px" height="720px">
<g id="starburst">
<g id="starburst">
<path fill="#ffffff" fill-rule="evenodd" stroke="#000000" stroke-width="4" stroke-linecap="round" stroke-linejoin="round" d="M 360.000 670.958 C 360.002 670.943 376.946 519.474 376.948 519.459 C 376.953 519.473 423.807 664.538 423.812 664.552 C 423.811 664.537 409.272 512.905 409.271 512.890 C 409.278 512.903 483.189 646.159 483.197 646.172 C 483.192 646.157 438.951 500.398 438.947 500.383 C 438.957 500.395 536.885 617.065 536.895 617.076 C 536.888 617.063 465.325 482.610 465.318 482.597 C 465.330 482.607 583.639 578.512 583.651 578.522 C 583.641 578.510 487.735 460.201 487.726 460.189 C 487.739 460.196 622.192 531.759 622.205 531.767 C 622.193 531.757 505.524 433.828 505.512 433.818 C 505.527 433.822 651.286 478.063 651.301 478.068 C 651.288 478.060 518.032 404.149 518.019 404.142 C 518.034 404.144 669.666 418.682 669.681 418.683 C 669.667 418.678 524.602 371.824 524.588 371.819 C 524.603 371.818 676.072 354.873 676.087 354.871 C 676.072 354.869 524.603 337.925 524.588 337.923 C 524.602 337.918 669.667 291.064 669.681 291.059 C 669.666 291.060 518.034 305.599 518.019 305.600 C 518.032 305.593 651.288 231.682 651.301 231.675 C 651.286 231.679 505.527 275.920 505.512 275.924 C 505.524 275.914 622.193 177.986 622.205 177.976 C 622.192 177.983 487.739 249.546 487.726 249.553 C 487.735 249.542 583.641 131.232 583.651 131.220 C 583.639 131.230 465.330 227.136 465.318 227.145 C 465.325 227.132 536.888 92.679 536.896 92.666 C 536.886 92.678 438.957 209.348 438.947 209.359 C 438.951 209.345 483.192 63.585 483.197 63.570 C 483.189 63.584 409.278 196.839 409.271 196.852 C 409.272 196.837 423.811 45.205 423.812 45.190 C 423.807 45.204 376.953 190.269 376.948 190.284 C 376.946 190.268 360.002 38.799 360.000 38.784 C 359.998 38.799 343.054 190.268 343.052 190.284 C 343.047 190.269 296.193 45.204 296.188 45.190 C 296.189 45.205 310.728 196.837 310.729 196.852 C 310.722 196.839 236.811 63.584 236.803 63.570 C 236.808 63.585 281.049 209.345 281.053 209.359 C 281.043 209.348 183.115 92.678 183.105 92.666 C 183.112 92.679 254.675 227.132 254.682 227.145 C 254.670 227.136 136.361 131.230 136.349 131.220 C 136.359 131.232 232.265 249.541 232.274 249.553 C 232.261 249.546 97.808 177.983 97.795 177.976 C 97.807 177.985 214.476 275.914 214.488 275.924 C 214.474 275.920 68.714 231.679 68.699 231.675 C 68.712 231.682 201.968 305.593 201.981 305.600 C 201.966 305.599 50.334 291.060 50.319 291.059 C 50.333 291.064 195.398 337.918 195.412 337.923 C 195.397 337.925 43.928 354.869 43.913 354.871 C 43.928 354.873 195.397 371.818 195.412 371.819 C 195.398 371.824 50.333 418.678 50.319 418.683 C 50.334 418.682 201.966 404.144 201.981 404.142 C 201.968 404.149 68.712 478.060 68.699 478.068 C 68.714 478.063 214.474 433.822 214.488 433.818 C 214.476 433.828 97.807 531.756 97.795 531.766 C 97.808 531.759 232.261 460.196 232.274 460.189 C 232.265 460.201 136.359 578.510 136.349 578.522 C 136.361 578.512 254.670 482.607 254.682 482.597 C 254.675 482.610 183.112 617.063 183.105 617.076 C 183.114 617.065 281.043 500.395 281.053 500.383 C 281.049 500.398 236.808 646.157 236.803 646.172 C 236.811 646.159 310.722 512.903 310.729 512.890 C 310.728 512.905 296.189 664.537 296.188 664.552 C 296.193 664.538 343.047 519.473 343.052 519.459 C 343.054 519.474 359.998 670.943 360.000 670.958 Z"/>
</g>
<g id="specs">
<path fill="#ff00ff" fill-rule="evenodd" stroke="none" d="M 223.405 490.441 C 223.432 490.441 496.568 490.441 496.595 490.441 C 496.595 490.413 496.595 217.277 496.595 217.250 C 496.568 217.250 223.432 217.250 223.405 217.250 C 223.405 217.277 223.405 490.413 223.405 490.441 Z"/>
<path fill="#ff0000" fill-rule="evenodd" stroke="none" d="M 360.000 675.017 C 360.001 675.021 372.432 709.827 372.433 709.830 C 372.432 709.829 360.001 698.263 360.000 698.262 C 359.999 698.263 347.568 709.829 347.567 709.830 C 347.568 709.827 359.999 675.021 360.000 675.017 Z"/>
<path fill="#0000ff" fill-rule="evenodd" stroke="none" d="M 360.000 11.617 C 360.001 11.619 367.221 31.837 367.222 31.839 C 367.221 31.838 360.001 25.120 360.000 25.120 C 359.999 25.120 352.779 31.838 352.778 31.839 C 352.779 31.837 359.999 11.619 360.000 11.617 Z"/>
<path fill="#00ff00" fill-rule="evenodd" stroke="none" d="M 18.920 354.850 C 18.922 354.849 39.104 347.526 39.106 347.526 C 39.105 347.526 32.423 354.781 32.423 354.782 C 32.423 354.782 39.178 361.969 39.179 361.970 C 39.177 361.969 18.922 354.851 18.920 354.850 Z"/>
<path fill="#ffff00" fill-rule="evenodd" stroke="none" d="M 118.365 597.347 C 118.366 597.345 127.326 577.835 127.327 577.833 C 127.327 577.834 127.799 587.686 127.799 587.687 C 127.800 587.687 137.660 587.926 137.661 587.926 C 137.659 587.927 118.367 597.346 118.365 597.347 Z"/>
<path fill="#ffff00" fill-rule="evenodd" stroke="none" d="M 602.961 597.108 C 602.960 597.106 593.610 577.780 593.609 577.778 C 593.609 577.779 593.334 587.638 593.334 587.639 C 593.333 587.639 583.480 588.076 583.479 588.076 C 583.481 588.077 602.959 597.107 602.961 597.108 Z"/>
<path fill="#00ff00" fill-rule="evenodd" stroke="none" d="M 702.126 354.850 C 702.124 354.849 681.942 347.526 681.940 347.526 C 681.941 347.526 688.623 354.781 688.623 354.782 C 688.623 354.782 681.868 361.969 681.867 361.970 C 681.869 361.969 702.124 354.851 702.126 354.850 Z"/>
<path fill="#00ffff" fill-rule="evenodd" stroke="none" d="M 601.361 111.561 C 601.361 111.563 594.193 131.800 594.193 131.802 C 594.193 131.801 592.835 122.032 592.835 122.031 C 592.834 122.031 582.993 122.681 582.992 122.681 C 582.994 122.680 601.359 111.562 601.361 111.561 Z"/>
<path fill="#00ffff" fill-rule="evenodd" stroke="none" d="M 118.750 112.232 C 118.751 112.234 127.252 131.948 127.253 131.950 C 127.253 131.949 127.956 122.111 127.956 122.110 C 127.957 122.110 137.819 122.103 137.820 122.103 C 137.818 122.102 118.752 112.233 118.750 112.232 Z"/>
<path fill="#be0027" fill-rule="evenodd" stroke="none" d="M 360.000 702.775 C 360.001 702.772 369.045 677.449 369.046 677.446 C 369.045 677.447 360.001 685.862 360.000 685.863 C 359.999 685.862 350.955 677.447 350.954 677.446 C 350.955 677.449 359.999 702.772 360.000 702.775 Z"/>
</g>
</g>
</svg>
