<?xml version="1.0" encoding="utf-8"?>
<!-- Generator: Moho 12.5 build 22414 -->
<!DOCTYPE svg PUBLIC "-//W3C//DTD SVG 1.1//EN" "http://www.w3.org/Graphics/SVG/1.1/DTD/svg11.dtd">
<svg version="1.1" id="Frame_0" xmlns="http://www.w3.org/2000/svg" xmlns:xlink="http://www.w3.org/1999/xlink" width="720px" height="720px">
<g id="star_6pt">
<g id="star_6pt">
<path fill="#ffffff" fill-rule="evenodd" stroke="#000000" stroke-width="4" stroke-linecap="round" stroke-linejoin="round" d="M 73.853 168.473 C 73.862 168.490 130.513 266.613 171.629 337.827 C 138.711 394.411 73.862 506.733 73.853 506.750 C 73.872 506.750 185.994 506.751 269.457 507.261 C 298.956 558.358 359.990 664.074 359.999 664.090 C 360.008 664.074 412.349 573.416 450.928 506.593 C 516.425 506.752 646.128 506.750 646.147 506.750 C 646.138 506.733 591.408 411.941 548.701 337.249 C 581.286 280.812 646.138 168.490 646.147 168.473 C 646.128 168.473 516.425 168.473 450.440 168.473 C 421.042 116.867 360.008 11.152 359.999 11.136 C 359.990 11.152 308.757 99.892 268.972 168.473 C 186.526 168.473 73.872 168.473 73.853 168.473 Z"/>
</g>
<g id="specs">
<path fill="#ff00ff" fill-rule="evenodd" stroke="none" d="M 191.077 505.615 C 191.111 505.615 528.889 505.615 528.923 505.615 C 528.923 505.581 528.923 167.803 528.923 167.769 C 528.889 167.769 191.111 167.769 191.077 167.769 C 191.077 167.803 191.077 505.581 191.077 505.615 Z"/>
<path fill="#ff0000" fill-rule="evenodd" stroke="none" d="M 360.000 680.234 C 360.001 680.237 371.974 713.762 371.975 713.765 C 371.974 713.764 360.001 702.624 360.000 702.623 C 359.999 702.624 348.026 713.764 348.025 713.765 C 348.026 713.762 359.999 680.237 360.000 680.234 Z"/>
<path fill="#ffff00" fill-rule="evenodd" stroke="none" d="M 263.076 518.651 C 263.076 518.649 266.791 498.307 266.791 498.304 C 266.791 498.305 269.578 507.386 269.579 507.387 C 269.580 507.387 278.838 505.261 278.839 505.260 C 278.837 505.262 263.078 518.649 263.076 518.651 Z"/>
<path fill="#00ff00" fill-rule="evenodd" stroke="none" d="M 159.435 337.660 C 159.437 337.659 178.876 330.606 178.878 330.605 C 178.877 330.606 172.441 337.594 172.441 337.594 C 172.441 337.595 178.947 344.517 178.948 344.518 C 178.946 344.517 159.437 337.661 159.435 337.660 Z"/>
<path fill="#00ff00" fill-rule="evenodd" stroke="none" d="M 560.652 337.660 C 560.650 337.659 541.211 330.606 541.210 330.605 C 541.210 330.606 547.646 337.594 547.647 337.594 C 547.646 337.595 541.140 344.517 541.139 344.518 C 541.141 344.517 560.650 337.661 560.652 337.660 Z"/>
<path fill="#00ffff" fill-rule="evenodd" stroke="none" d="M 263.076 158.419 C 263.078 158.421 278.837 171.808 278.839 171.809 C 278.838 171.809 269.580 169.683 269.579 169.682 C 269.578 169.683 266.791 178.764 266.791 178.765 C 266.791 178.763 263.076 158.421 263.076 158.419 Z"/>
<path fill="#00ffff" fill-rule="evenodd" stroke="none" d="M 457.425 158.419 C 457.423 158.421 441.664 171.808 441.662 171.809 C 441.663 171.809 450.921 169.683 450.922 169.682 C 450.923 169.683 453.710 178.764 453.710 178.765 C 453.710 178.763 457.424 158.421 457.425 158.419 Z"/>
<path fill="#ffff00" fill-rule="evenodd" stroke="none" d="M 455.584 518.651 C 455.583 518.649 451.869 498.307 451.869 498.304 C 451.869 498.305 449.081 507.386 449.081 507.387 C 449.080 507.387 439.822 505.261 439.821 505.260 C 439.823 505.262 455.582 518.649 455.584 518.651 Z"/>
<path fill="#0000ff" fill-rule="evenodd" stroke="none" d="M 360.000 5.224 C 360.001 5.226 366.955 24.700 366.956 24.702 C 366.955 24.701 360.001 18.231 360.000 18.230 C 359.999 18.231 353.045 24.701 353.044 24.702 C 353.045 24.700 359.999 5.226 360.000 5.224 Z"/>
<path fill="#be0027" fill-rule="evenodd" stroke="none" d="M 359.959 672.777 C 359.960 672.775 368.671 648.383 368.672 648.381 C 368.671 648.382 359.960 656.487 359.959 656.488 C 359.958 656.487 351.247 648.382 351.246 648.381 C 351.247 648.383 359.958 672.775 359.959 672.777 Z"/>
</g>
</g>
</svg>
