<?xml version="1.0" encoding="utf-8"?>
<!-- Generator: Moho 12.5 build 22414 -->
<!DOCTYPE svg PUBLIC "-//W3C//DTD SVG 1.1//EN" "http://www.w3.org/Graphics/SVG/1.1/DTD/svg11.dtd">
<svg version="1.1" id="Frame_0" xmlns="http://www.w3.org/2000/svg" xmlns:xlink="http://www.w3.org/1999/xlink" width="720px" height="720px">
<g id="star">
<g id="star">
<path fill="#ffffff" fill-rule="evenodd" stroke="#000000" stroke-width="3" stroke-linecap="round" stroke-linejoin="round" d="M 649.443 240.658 C 649.421 240.658 428.015 240.702 427.993 240.702 C 427.986 240.681 359.526 30.126 359.520 30.105 C 359.513 30.126 291.137 240.709 291.130 240.730 C 291.108 240.730 69.703 240.774 69.681 240.774 C 69.699 240.787 248.845 370.890 248.863 370.903 C 248.856 370.924 180.480 581.507 180.473 581.528 C 180.491 581.515 359.586 451.340 359.604 451.327 C 359.622 451.340 538.769 581.443 538.786 581.456 C 538.780 581.435 470.320 370.880 470.313 370.859 C 470.331 370.846 649.425 240.671 649.443 240.658 Z"/>
</g>
<g id="specs">
<path fill="#ff00ff" fill-rule="evenodd" stroke="none" d="M 257.119 418.319 C 257.139 418.319 462.861 418.319 462.881 418.319 C 462.881 418.298 462.881 212.577 462.881 212.556 C 462.861 212.556 257.139 212.556 257.119 212.556 C 257.119 212.577 257.119 418.298 257.119 418.319 Z"/>
<path fill="#ff0000" fill-rule="evenodd" stroke="none" d="M 360.000 672.746 C 360.001 672.749 370.534 702.241 370.535 702.244 C 370.534 702.243 360.001 692.443 360.000 692.442 C 359.999 692.443 349.466 702.243 349.465 702.244 C 349.466 702.241 359.999 672.749 360.000 672.746 Z"/>
<path fill="#0000ff" fill-rule="evenodd" stroke="none" d="M 360.000 25.651 C 360.001 25.653 366.119 42.784 366.119 42.785 C 366.119 42.785 360.001 37.093 360.000 37.092 C 359.999 37.093 353.881 42.785 353.881 42.785 C 353.881 42.784 359.999 25.653 360.000 25.651 Z"/>
<path fill="#00ff00" fill-rule="evenodd" stroke="none" d="M 68.733 240.772 C 68.734 240.773 83.080 251.959 83.081 251.960 C 83.081 251.959 79.596 244.364 79.596 244.363 C 79.597 244.362 86.921 240.340 86.922 240.339 C 86.920 240.339 68.735 240.772 68.733 240.772 Z"/>
<path fill="#00ff00" fill-rule="evenodd" stroke="none" d="M 649.739 240.772 C 649.737 240.773 635.391 251.959 635.390 251.960 C 635.390 251.959 638.875 244.364 638.876 244.363 C 638.875 244.362 631.550 240.340 631.549 240.339 C 631.551 240.339 649.737 240.772 649.739 240.772 Z"/>
<path fill="#ffff00" fill-rule="evenodd" stroke="none" d="M 538.498 580.404 C 538.496 580.403 523.425 570.216 523.424 570.215 C 523.425 570.215 531.725 571.182 531.726 571.182 C 531.726 571.181 533.289 562.972 533.289 562.971 C 533.290 562.973 538.497 580.402 538.498 580.404 Z"/>
<path fill="#ffff00" fill-rule="evenodd" stroke="none" d="M 181.685 580.404 C 181.687 580.403 196.757 570.216 196.759 570.215 C 196.758 570.215 188.457 571.182 188.457 571.182 C 188.456 571.181 186.894 562.972 186.894 562.971 C 186.893 562.973 181.686 580.402 181.685 580.404 Z"/>
<path fill="#00ffff" fill-rule="evenodd" stroke="none" d="M 285.321 231.359 C 285.322 231.360 300.341 241.623 300.343 241.624 C 300.342 241.624 292.047 240.615 292.046 240.615 C 292.046 240.616 290.442 248.817 290.442 248.818 C 290.441 248.816 285.321 231.360 285.321 231.359 Z"/>
<path fill="#00ffff" fill-rule="evenodd" stroke="none" d="M 435.581 231.359 C 435.579 231.360 420.560 241.623 420.559 241.624 C 420.560 241.624 428.855 240.615 428.856 240.615 C 428.856 240.616 430.460 248.817 430.460 248.818 C 430.460 248.816 435.580 231.360 435.581 231.359 Z"/>
<path fill="#be0027" fill-rule="evenodd" stroke="none" d="M 359.964 462.129 C 359.965 462.127 367.628 440.670 367.629 440.668 C 367.628 440.669 359.965 447.799 359.964 447.799 C 359.963 447.799 352.300 440.669 352.299 440.668 C 352.300 440.670 359.963 462.127 359.964 462.129 Z"/>
</g>
</g>
</svg>
