<?xml version="1.0" encoding="utf-8"?>
<!-- Generator: Moho 12.5 build 22414 -->
<!DOCTYPE svg PUBLIC "-//W3C//DTD SVG 1.1//EN" "http://www.w3.org/Graphics/SVG/1.1/DTD/svg11.dtd">
<svg version="1.1" id="Frame_0" xmlns="http://www.w3.org/2000/svg" xmlns:xlink="http://www.w3.org/1999/xlink" width="720px" height="720px">
<g id="starburst">
<g id="starburst">
<path fill="#ffffff" fill-rule="evenodd" stroke="#000000" stroke-width="4" stroke-linecap="round" stroke-linejoin="round" d="M 360.000 697.757 C 360.002 697.741 378.383 533.430 378.385 533.413 C 378.390 533.429 429.217 690.793 429.222 690.808 C 429.221 690.792 413.450 526.304 413.448 526.287 C 413.456 526.302 493.634 670.855 493.642 670.870 C 493.637 670.854 445.645 512.736 445.640 512.720 C 445.651 512.733 551.882 639.294 551.893 639.307 C 551.885 639.292 474.255 493.441 474.247 493.426 C 474.260 493.436 602.600 597.473 602.613 597.484 C 602.602 597.471 498.565 469.131 498.555 469.118 C 498.570 469.126 644.421 546.757 644.436 546.764 C 644.423 546.754 517.862 440.522 517.849 440.511 C 517.865 440.516 675.983 488.508 675.999 488.513 C 675.984 488.505 531.431 408.327 531.416 408.319 C 531.433 408.321 695.921 424.092 695.937 424.093 C 695.922 424.088 538.558 373.261 538.542 373.256 C 538.558 373.254 702.870 354.873 702.886 354.871 C 702.870 354.869 538.558 336.488 538.542 336.486 C 538.558 336.481 695.922 285.654 695.937 285.649 C 695.921 285.650 531.433 301.421 531.416 301.423 C 531.431 301.415 675.984 221.237 675.999 221.229 C 675.983 221.234 517.865 269.226 517.849 269.231 C 517.862 269.220 644.423 162.989 644.436 162.978 C 644.421 162.986 498.570 240.616 498.555 240.624 C 498.565 240.611 602.602 112.271 602.613 112.258 C 602.600 112.269 474.260 216.306 474.247 216.316 C 474.255 216.302 551.886 70.450 551.893 70.435 C 551.883 70.448 445.651 197.009 445.640 197.022 C 445.645 197.006 493.637 38.888 493.642 38.872 C 493.634 38.887 413.456 183.440 413.448 183.455 C 413.450 183.438 429.221 18.950 429.222 18.934 C 429.217 18.950 378.390 176.313 378.385 176.329 C 378.383 176.313 360.002 12.001 360.000 11.985 C 359.998 12.001 341.617 176.313 341.615 176.329 C 341.610 176.313 290.783 18.950 290.778 18.934 C 290.779 18.950 306.550 183.438 306.552 183.455 C 306.544 183.440 226.366 38.887 226.358 38.872 C 226.363 38.888 274.355 197.006 274.360 197.022 C 274.349 197.009 168.118 70.448 168.107 70.435 C 168.115 70.450 245.745 216.302 245.753 216.316 C 245.740 216.306 117.400 112.269 117.387 112.258 C 117.398 112.271 221.435 240.611 221.445 240.624 C 221.431 240.616 75.579 162.985 75.564 162.978 C 75.577 162.988 202.138 269.220 202.151 269.231 C 202.135 269.226 44.017 221.234 44.001 221.229 C 44.016 221.237 188.569 301.415 188.584 301.423 C 188.567 301.421 24.079 285.650 24.063 285.649 C 24.079 285.654 181.442 336.481 181.458 336.486 C 181.442 336.488 17.130 354.869 17.114 354.871 C 17.130 354.873 181.442 373.254 181.458 373.256 C 181.442 373.261 24.079 424.088 24.063 424.093 C 24.079 424.092 188.567 408.321 188.584 408.319 C 188.569 408.327 44.016 488.505 44.001 488.513 C 44.017 488.508 202.135 440.516 202.151 440.511 C 202.138 440.522 75.577 546.753 75.564 546.764 C 75.579 546.756 221.431 469.126 221.445 469.118 C 221.435 469.131 117.398 597.471 117.387 597.484 C 117.400 597.473 245.740 493.436 245.753 493.426 C 245.745 493.441 168.114 639.292 168.107 639.307 C 168.117 639.294 274.349 512.733 274.360 512.720 C 274.355 512.736 226.363 670.854 226.358 670.870 C 226.366 670.855 306.544 526.302 306.552 526.287 C 306.550 526.304 290.779 690.792 290.778 690.808 C 290.783 690.793 341.610 533.429 341.615 533.413 C 341.617 533.430 359.998 697.741 360.000 697.757 Z"/>
</g>
<g id="specs">
<path fill="#ff00ff" fill-rule="evenodd" stroke="none" d="M 223.405 490.441 C 223.432 490.441 496.568 490.441 496.595 490.441 C 496.595 490.413 496.595 217.277 496.595 217.250 C 496.568 217.250 223.432 217.250 223.405 217.250 C 223.405 217.277 223.405 490.413 223.405 490.441 Z"/>
<path fill="#ff0000" fill-rule="evenodd" stroke="none" d="M 360.000 675.017 C 360.001 675.021 372.432 709.827 372.433 709.830 C 372.432 709.829 360.001 698.263 360.000 698.262 C 359.999 698.263 347.568 709.829 347.567 709.830 C 347.568 709.827 359.999 675.021 360.000 675.017 Z"/>
<path fill="#0000ff" fill-rule="evenodd" stroke="none" d="M 360.000 11.617 C 360.001 11.619 367.221 31.837 367.222 31.839 C 367.221 31.838 360.001 25.120 360.000 25.120 C 359.999 25.120 352.779 31.838 352.778 31.839 C 352.779 31.837 359.999 11.619 360.000 11.617 Z"/>
<path fill="#00ff00" fill-rule="evenodd" stroke="none" d="M 18.920 354.850 C 18.922 354.849 39.104 347.526 39.106 347.526 C 39.105 347.526 32.423 354.781 32.423 354.782 C 32.423 354.782 39.178 361.969 39.179 361.970 C 39.177 361.969 18.922 354.851 18.920 354.850 Z"/>
<path fill="#ffff00" fill-rule="evenodd" stroke="none" d="M 118.365 597.347 C 118.366 597.345 127.326 577.835 127.327 577.833 C 127.327 577.834 127.799 587.686 127.799 587.687 C 127.800 587.687 137.660 587.926 137.661 587.926 C 137.659 587.927 118.367 597.346 118.365 597.347 Z"/>
<path fill="#ffff00" fill-rule="evenodd" stroke="none" d="M 602.961 597.108 C 602.960 597.106 593.610 577.780 593.609 577.778 C 593.609 577.779 593.334 587.638 593.334 587.639 C 593.333 587.639 583.480 588.076 583.479 588.076 C 583.481 588.077 602.959 597.107 602.961 597.108 Z"/>
<path fill="#00ff00" fill-rule="evenodd" stroke="none" d="M 702.126 354.850 C 702.124 354.849 681.942 347.526 681.940 347.526 C 681.941 347.526 688.623 354.781 688.623 354.782 C 688.623 354.782 681.868 361.969 681.867 361.970 C 681.869 361.969 702.124 354.851 702.126 354.850 Z"/>
<path fill="#00ffff" fill-rule="evenodd" stroke="none" d="M 601.361 111.561 C 601.361 111.563 594.193 131.800 594.193 131.802 C 594.193 131.801 592.835 122.032 592.835 122.031 C 592.834 122.031 582.993 122.681 582.992 122.681 C 582.994 122.680 601.359 111.562 601.361 111.561 Z"/>
<path fill="#00ffff" fill-rule="evenodd" stroke="none" d="M 118.750 112.232 C 118.751 112.234 127.252 131.948 127.253 131.950 C 127.253 131.949 127.956 122.111 127.956 122.110 C 127.957 122.110 137.819 122.103 137.820 122.103 C 137.818 122.102 118.752 112.233 118.750 112.232 Z"/>
</g>
</g>
</svg>
