<?xml version="1.0" encoding="utf-8"?>
<!-- Generator: Moho 12.5 build 22414 -->
<!DOCTYPE svg PUBLIC "-//W3C//DTD SVG 1.1//EN" "http://www.w3.org/Graphics/SVG/1.1/DTD/svg11.dtd">
<svg version="1.1" id="Frame_0" xmlns="http://www.w3.org/2000/svg" xmlns:xlink="http://www.w3.org/1999/xlink" width="720px" height="720px">
<g id="star_6pt">
<g id="star_6pt">
<path fill="#ffffff" fill-rule="evenodd" stroke="#000000" stroke-width="4" stroke-linecap="round" stroke-linejoin="round" d="M 62.914 177.704 C 62.924 177.722 121.740 279.596 164.427 353.532 C 130.252 412.280 62.924 528.896 62.914 528.913 C 62.934 528.913 179.342 528.914 265.995 529.443 C 296.622 582.494 359.989 692.251 359.999 692.268 C 360.008 692.251 414.350 598.128 454.404 528.750 C 522.405 528.915 657.066 528.913 657.086 528.913 C 657.076 528.896 600.255 430.480 555.915 352.932 C 589.746 294.337 657.076 177.722 657.086 177.704 C 657.066 177.704 522.405 177.704 453.898 177.704 C 423.375 124.125 360.008 14.369 359.999 14.352 C 359.989 14.369 306.798 106.501 265.491 177.704 C 179.894 177.704 62.934 177.704 62.914 177.704 Z"/>
</g>
<g id="specs">
<path fill="#ff00ff" fill-rule="evenodd" stroke="none" d="M 260.795 451.559 C 260.815 451.559 459.185 451.559 459.205 451.559 C 459.205 451.539 459.205 253.169 459.205 253.149 C 459.185 253.149 260.815 253.149 260.795 253.149 C 260.795 253.169 260.795 451.539 260.795 451.559 Z"/>
<path fill="#ff0000" fill-rule="evenodd" stroke="none" d="M 360.000 681.823 C 360.001 681.826 372.432 716.632 372.433 716.636 C 372.432 716.634 360.001 705.069 360.000 705.067 C 359.999 705.069 347.568 716.634 347.567 716.636 C 347.568 716.632 359.999 681.826 360.000 681.823 Z"/>
<path fill="#ffff00" fill-rule="evenodd" stroke="none" d="M 259.371 541.269 C 259.371 541.266 263.227 520.147 263.227 520.145 C 263.228 520.146 266.122 529.574 266.122 529.575 C 266.123 529.575 275.735 527.367 275.736 527.367 C 275.735 527.368 259.372 541.267 259.371 541.269 Z"/>
<path fill="#00ff00" fill-rule="evenodd" stroke="none" d="M 151.768 353.359 C 151.770 353.358 171.951 346.035 171.953 346.034 C 171.953 346.035 165.271 353.290 165.270 353.291 C 165.271 353.291 172.026 360.478 172.026 360.479 C 172.024 360.478 151.770 353.359 151.768 353.359 Z"/>
<path fill="#00ff00" fill-rule="evenodd" stroke="none" d="M 568.323 353.359 C 568.321 353.358 548.139 346.035 548.137 346.034 C 548.138 346.035 554.820 353.290 554.820 353.291 C 554.820 353.291 548.065 360.478 548.064 360.479 C 548.066 360.478 568.321 353.359 568.323 353.359 Z"/>
<path fill="#00ffff" fill-rule="evenodd" stroke="none" d="M 259.371 167.266 C 259.372 167.267 275.735 181.166 275.736 181.167 C 275.735 181.167 266.123 178.960 266.122 178.959 C 266.122 178.960 263.228 188.388 263.228 188.389 C 263.227 188.387 259.371 167.268 259.371 167.266 Z"/>
<path fill="#00ffff" fill-rule="evenodd" stroke="none" d="M 461.149 167.266 C 461.148 167.267 444.786 181.166 444.784 181.167 C 444.785 181.167 454.397 178.960 454.398 178.959 C 454.398 178.960 457.292 188.388 457.293 188.389 C 457.293 188.387 461.149 167.268 461.149 167.266 Z"/>
<path fill="#ffff00" fill-rule="evenodd" stroke="none" d="M 459.238 541.269 C 459.237 541.267 455.381 520.147 455.381 520.145 C 455.381 520.146 452.487 529.574 452.487 529.575 C 452.486 529.574 442.873 527.367 442.872 527.367 C 442.874 527.368 459.236 541.267 459.238 541.269 Z"/>
<path fill="#0000ff" fill-rule="evenodd" stroke="none" d="M 360.000 8.214 C 360.001 8.216 367.221 28.434 367.222 28.436 C 367.221 28.436 360.001 21.718 360.000 21.717 C 359.999 21.718 352.779 28.436 352.778 28.436 C 352.779 28.434 359.999 8.216 360.000 8.214 Z"/>
</g>
</g>
</svg>
