<?xml version="1.0" encoding="utf-8"?>
<!-- Generator: Moho 12.5 build 22414 -->
<!DOCTYPE svg PUBLIC "-//W3C//DTD SVG 1.1//EN" "http://www.w3.org/Graphics/SVG/1.1/DTD/svg11.dtd">
<svg version="1.1" id="Frame_0" xmlns="http://www.w3.org/2000/svg" xmlns:xlink="http://www.w3.org/1999/xlink" width="720px" height="720px">
<g id="starburst_lines">
<g id="line_starburst">
<path fill="none" stroke="#ffffff" stroke-width="4" stroke-linecap="round" stroke-linejoin="round" d="M 310.398 641.304 C 343.466 453.768 376.534 266.232 409.602 78.696 M 262.304 628.418 C 327.435 449.473 392.565 270.527 457.696 91.582 M 217.178 607.375 C 312.393 442.458 407.607 277.542 502.822 112.625 M 176.392 578.816 C 298.797 432.939 421.203 287.061 543.608 141.184 M 141.184 543.608 C 287.061 421.203 432.939 298.797 578.816 176.392 M 112.625 502.822 C 277.542 407.607 442.458 312.393 607.375 217.178 M 91.582 457.696 C 270.527 392.565 449.473 327.435 628.418 262.304 M 78.696 409.602 C 266.232 376.534 453.768 343.466 641.304 310.398 M 74.356 360.000 C 264.785 360.000 455.215 360.000 645.644 360.000 M 78.696 310.398 C 266.232 343.466 453.768 376.534 641.304 409.602 M 91.582 262.304 C 270.527 327.435 449.473 392.565 628.418 457.696 M 112.625 217.178 C 277.542 312.393 442.458 407.607 607.375 502.822 M 141.184 176.392 C 287.061 298.797 432.939 421.203 578.816 543.608 M 176.392 141.184 C 298.797 287.061 421.203 432.939 543.608 578.816 M 217.178 112.625 C 312.393 277.542 407.607 442.458 502.822 607.375 M 262.304 91.582 C 327.435 270.527 392.565 449.473 457.696 628.418 M 310.398 78.696 C 343.466 266.232 376.534 453.768 409.602 641.304 M 360.000 74.356 C 360.000 264.785 360.000 455.215 360.000 645.644 "/>
</g>
<g id="line_starburst_2">
<path fill="none" stroke="#000000" stroke-width="4" stroke-linecap="round" stroke-linejoin="round" d="M 335.104 644.557 C 351.702 454.853 368.299 265.147 384.896 75.443 M 286.070 635.911 C 335.357 451.971 384.643 268.029 433.930 84.089 M 239.282 618.881 C 319.761 446.294 400.240 273.706 480.718 101.119 M 196.161 593.986 C 305.387 437.996 414.613 282.005 523.839 126.014 M 158.019 561.981 C 292.673 427.327 427.327 292.673 561.981 158.019 M 126.014 523.839 C 282.005 414.613 437.995 305.387 593.986 196.161 M 101.119 480.718 C 273.706 400.240 446.294 319.760 618.881 239.282 M 84.089 433.930 C 268.029 384.643 451.971 335.357 635.911 286.070 M 75.443 384.896 C 265.147 368.299 454.853 351.702 644.557 335.104 M 75.443 335.104 C 265.147 351.702 454.853 368.299 644.557 384.896 M 84.089 286.070 C 268.029 335.357 451.971 384.643 635.911 433.930 M 101.119 239.282 C 273.706 319.761 446.294 400.240 618.881 480.718 M 126.014 196.161 C 282.005 305.387 437.996 414.613 593.986 523.839 M 158.019 158.019 C 292.673 292.673 427.327 427.327 561.981 561.981 M 196.161 126.014 C 305.387 282.005 414.613 437.995 523.839 593.986 M 239.282 101.119 C 319.760 273.706 400.240 446.294 480.718 618.881 M 286.070 84.089 C 335.357 268.029 384.643 451.971 433.930 635.911 M 335.104 75.443 C 351.702 265.147 368.299 454.853 384.896 644.557 "/>
</g>
<g id="specs_2">
<path fill="#ff00ff" fill-rule="evenodd" stroke="none" d="M 144.104 575.896 C 144.147 575.896 575.853 575.896 575.896 575.896 C 575.896 575.853 575.896 144.147 575.896 144.104 C 575.853 144.104 144.147 144.104 144.104 144.104 C 144.104 144.147 144.104 575.853 144.104 575.896 Z"/>
<path fill="#ff0000" fill-rule="evenodd" stroke="none" d="M 360.000 682.646 C 360.001 682.649 371.397 714.559 371.398 714.562 C 371.397 714.561 360.001 703.958 360.000 703.957 C 359.999 703.958 348.603 714.561 348.602 714.562 C 348.603 714.559 359.999 682.649 360.000 682.646 Z"/>
<path fill="#0000ff" fill-rule="evenodd" stroke="none" d="M 360.000 46.247 C 360.001 46.249 366.620 64.784 366.621 64.786 C 366.620 64.786 360.001 58.627 360.000 58.626 C 359.999 58.627 353.380 64.786 353.379 64.786 C 353.380 64.784 359.999 46.249 360.000 46.247 Z"/>
<path fill="#00ff00" fill-rule="evenodd" stroke="none" d="M 46.820 360.920 C 46.822 360.919 65.324 354.205 65.326 354.205 C 65.326 354.205 59.200 360.857 59.199 360.858 C 59.200 360.858 65.392 367.447 65.393 367.447 C 65.391 367.447 46.822 360.921 46.820 360.920 Z"/>
<path fill="#ffff00" fill-rule="evenodd" stroke="none" d="M 137.863 583.239 C 137.863 583.237 146.078 565.351 146.079 565.349 C 146.079 565.350 146.512 574.382 146.512 574.383 C 146.513 574.383 155.552 574.602 155.553 574.602 C 155.551 574.603 137.864 583.238 137.863 583.239 Z"/>
<path fill="#ffff00" fill-rule="evenodd" stroke="none" d="M 582.137 583.020 C 582.136 583.018 573.565 565.300 573.564 565.298 C 573.564 565.299 573.312 574.338 573.312 574.339 C 573.312 574.339 564.278 574.739 564.277 574.739 C 564.279 574.740 582.136 583.019 582.137 583.020 Z"/>
<path fill="#00ff00" fill-rule="evenodd" stroke="none" d="M 673.180 360.920 C 673.178 360.919 654.676 354.205 654.674 354.205 C 654.674 354.205 660.800 360.857 660.801 360.858 C 660.800 360.858 654.608 367.447 654.607 367.447 C 654.609 367.447 673.178 360.921 673.180 360.920 Z"/>
<path fill="#00ffff" fill-rule="evenodd" stroke="none" d="M 581.279 137.875 C 581.278 137.877 574.707 156.430 574.707 156.432 C 574.707 156.431 573.462 147.475 573.462 147.474 C 573.461 147.474 564.439 148.070 564.438 148.070 C 564.440 148.069 581.277 137.876 581.279 137.875 Z"/>
<path fill="#00ffff" fill-rule="evenodd" stroke="none" d="M 138.824 138.490 C 138.824 138.492 146.618 156.566 146.618 156.568 C 146.618 156.567 147.263 147.547 147.263 147.546 C 147.264 147.546 156.306 147.539 156.306 147.539 C 156.305 147.539 138.825 138.491 138.824 138.490 Z"/>
<path fill="#be0027" fill-rule="evenodd" stroke="none" d="M 360.000 676.243 C 360.001 676.239 371.397 644.330 371.398 644.326 C 371.397 644.327 360.001 654.931 360.000 654.932 C 359.999 654.931 348.603 644.327 348.602 644.326 C 348.603 644.330 359.999 676.239 360.000 676.243 Z"/>
</g>
</g>
</svg>
