<?xml version="1.0" encoding="utf-8"?>
<!-- Generator: Moho 12.5 build 22414 -->
<!DOCTYPE svg PUBLIC "-//W3C//DTD SVG 1.1//EN" "http://www.w3.org/Graphics/SVG/1.1/DTD/svg11.dtd">
<svg version="1.1" id="Frame_0" xmlns="http://www.w3.org/2000/svg" xmlns:xlink="http://www.w3.org/1999/xlink" width="720px" height="720px">
<g id="star">
<g id="star">
<path fill="#ffffff" fill-rule="evenodd" stroke="#000000" stroke-width="4" stroke-linecap="round" stroke-linejoin="round" d="M 701.601 271.524 C 701.575 271.524 440.272 271.576 440.246 271.576 C 440.238 271.551 359.441 23.053 359.433 23.028 C 359.425 23.053 278.728 271.583 278.719 271.608 C 278.693 271.608 17.390 271.661 17.364 271.661 C 17.385 271.676 228.815 425.224 228.836 425.239 C 228.828 425.264 148.131 673.794 148.122 673.819 C 148.144 673.804 359.511 520.171 359.533 520.156 C 359.554 520.171 570.983 673.719 571.004 673.734 C 570.996 673.709 490.199 425.212 490.191 425.187 C 490.212 425.171 701.580 271.539 701.601 271.524 Z"/>
</g>
<g id="specs">
<path fill="#ff00ff" fill-rule="evenodd" stroke="none" d="M 238.579 517.739 C 238.604 517.739 481.396 517.739 481.421 517.739 C 481.421 517.714 481.421 274.922 481.421 274.897 C 481.396 274.897 238.604 274.897 238.579 274.897 C 238.579 274.922 238.579 517.714 238.579 517.739 Z"/>
<path fill="#ff0000" fill-rule="evenodd" stroke="none" d="M 360.000 662.708 C 360.001 662.711 372.432 697.517 372.433 697.521 C 372.432 697.520 360.001 685.954 360.000 685.952 C 359.999 685.954 347.568 697.520 347.567 697.521 C 347.568 697.517 359.999 662.711 360.000 662.708 Z"/>
<path fill="#0000ff" fill-rule="evenodd" stroke="none" d="M 360.000 17.772 C 360.001 17.774 367.221 37.992 367.222 37.994 C 367.221 37.993 360.001 31.275 360.000 31.274 C 359.999 31.275 352.779 37.993 352.778 37.994 C 352.779 37.992 359.999 17.774 360.000 17.772 Z"/>
<path fill="#00ff00" fill-rule="evenodd" stroke="none" d="M 16.246 271.658 C 16.247 271.660 33.178 284.861 33.180 284.862 C 33.180 284.861 29.067 275.897 29.066 275.896 C 29.067 275.895 37.712 271.148 37.713 271.147 C 37.710 271.147 16.248 271.658 16.246 271.658 Z"/>
<path fill="#00ff00" fill-rule="evenodd" stroke="none" d="M 701.950 271.658 C 701.949 271.660 685.018 284.861 685.016 284.862 C 685.016 284.861 689.129 275.897 689.130 275.896 C 689.129 275.895 680.484 271.148 680.483 271.147 C 680.485 271.147 701.948 271.658 701.950 271.658 Z"/>
<path fill="#ffff00" fill-rule="evenodd" stroke="none" d="M 570.664 672.493 C 570.662 672.491 552.875 660.468 552.873 660.467 C 552.874 660.467 562.671 661.609 562.672 661.609 C 562.672 661.608 564.516 651.919 564.516 651.919 C 564.517 651.921 570.663 672.490 570.664 672.493 Z"/>
<path fill="#ffff00" fill-rule="evenodd" stroke="none" d="M 149.552 672.493 C 149.554 672.491 167.341 660.468 167.342 660.467 C 167.342 660.467 157.545 661.609 157.544 661.609 C 157.544 661.608 155.700 651.919 155.700 651.919 C 155.699 651.921 149.553 672.490 149.552 672.493 Z"/>
<path fill="#00ffff" fill-rule="evenodd" stroke="none" d="M 271.864 260.548 C 271.865 260.550 289.591 272.663 289.593 272.664 C 289.592 272.664 279.801 271.473 279.800 271.472 C 279.800 271.473 277.907 281.152 277.907 281.153 C 277.907 281.151 271.864 260.550 271.864 260.548 Z"/>
<path fill="#00ffff" fill-rule="evenodd" stroke="none" d="M 449.201 260.548 C 449.199 260.550 431.473 272.663 431.472 272.664 C 431.473 272.664 441.263 271.473 441.264 271.472 C 441.264 271.473 443.157 281.152 443.157 281.153 C 443.158 281.151 449.200 260.550 449.201 260.548 Z"/>
<path fill="#ff0000" fill-rule="evenodd" stroke="none" d="M 360.000 493.542 C 360.001 493.546 372.432 528.352 372.433 528.355 C 372.432 528.354 360.001 516.788 360.000 516.787 C 359.999 516.788 347.568 528.354 347.567 528.355 C 347.568 528.352 359.999 493.546 360.000 493.542 Z"/>
</g>
</g>
</svg>
