<?xml version="1.0" encoding="utf-8"?>
<!-- Generator: Moho 12.5 build 22414 -->
<!DOCTYPE svg PUBLIC "-//W3C//DTD SVG 1.1//EN" "http://www.w3.org/Graphics/SVG/1.1/DTD/svg11.dtd">
<svg version="1.1" id="Frame_0" xmlns="http://www.w3.org/2000/svg" xmlns:xlink="http://www.w3.org/1999/xlink" width="720px" height="720px">
<g id="sun">
<g id="sun">
<path fill="#ffffff" fill-rule="evenodd" stroke="#000000" stroke-width="4" stroke-linecap="round" stroke-linejoin="round" d="M 359.860 544.606 C 359.861 544.610 358.068 564.536 364.629 580.262 C 374.635 604.241 390.866 605.522 399.165 622.881 C 404.960 635.002 400.496 646.285 407.797 660.199 C 418.604 680.794 446.866 701.277 446.870 701.281 C 446.869 701.276 432.434 674.838 433.389 655.142 C 434.357 635.159 452.978 626.938 451.573 609.890 C 450.235 593.645 431.763 591.690 427.613 570.073 C 423.972 551.109 433.821 529.786 433.821 529.782 C 433.823 529.785 439.494 548.984 451.451 561.103 C 469.594 579.489 485.165 574.419 499.240 587.371 C 509.118 596.461 509.000 608.691 520.920 618.909 C 538.474 633.956 572.200 642.277 572.205 642.279 C 572.202 642.275 548.603 623.500 541.852 604.955 C 535.045 586.253 548.930 571.572 541.133 556.447 C 533.656 541.943 515.849 547.167 503.757 528.745 C 493.185 512.637 494.151 489.223 494.150 489.219 C 494.153 489.221 506.549 504.940 522.156 511.726 C 545.812 522.012 558.356 511.488 576.224 518.240 C 588.781 522.986 593.235 534.383 608.108 539.410 C 630.001 546.808 664.378 541.914 664.384 541.914 C 664.380 541.912 635.478 533.309 622.288 518.629 C 608.977 503.815 616.367 485.003 603.480 473.873 C 591.134 463.210 576.570 474.680 558.488 462.097 C 542.648 451.075 534.805 428.953 534.802 428.950 C 534.806 428.951 552.272 438.709 569.286 439.029 C 595.127 439.516 602.744 425.128 621.872 424.467 C 635.277 424.004 643.816 432.634 659.462 431.493 C 682.591 429.806 712.528 412.025 712.534 412.023 C 712.529 412.022 682.501 414.687 664.794 405.957 C 646.780 397.075 646.618 376.697 630.367 371.145 C 614.968 365.883 605.773 381.914 584.347 377.030 C 565.402 372.711 549.738 355.013 549.735 355.011 C 549.739 355.010 569.665 356.804 585.391 350.242 C 609.370 340.236 610.651 324.005 628.010 315.706 C 640.131 309.911 651.414 314.376 665.328 307.074 C 685.923 296.267 706.406 268.005 706.410 268.001 C 706.405 268.002 679.967 282.437 660.271 281.482 C 640.287 280.514 632.067 261.893 615.019 263.298 C 598.774 264.636 596.819 283.108 575.202 287.258 C 556.238 290.899 534.915 281.051 534.911 281.050 C 534.914 281.048 554.113 275.377 566.231 263.420 C 584.618 245.277 579.547 229.706 592.500 215.631 C 601.589 205.754 613.820 205.871 624.038 193.951 C 639.085 176.397 647.406 142.671 647.408 142.666 C 647.404 142.669 628.629 166.269 610.083 173.019 C 591.382 179.826 576.701 165.941 561.576 173.738 C 547.072 181.215 552.296 199.022 533.874 211.114 C 517.766 221.687 494.352 220.720 494.348 220.721 C 494.350 220.718 510.069 208.322 516.855 192.715 C 527.141 169.059 516.617 156.515 523.369 138.647 C 528.114 126.090 539.512 121.637 544.538 106.763 C 551.937 84.870 547.043 50.493 547.043 50.487 C 547.041 50.492 538.437 79.394 523.758 92.584 C 508.944 105.894 490.131 98.504 479.001 111.391 C 468.339 123.737 479.809 138.301 467.226 156.383 C 456.204 172.223 434.082 180.067 434.079 180.069 C 434.080 180.066 443.838 162.600 444.158 145.585 C 444.645 119.744 430.257 112.127 429.596 92.999 C 429.132 79.594 437.763 71.055 436.622 55.409 C 434.935 32.280 417.154 2.343 417.152 2.338 C 417.151 2.342 419.816 32.370 411.086 50.077 C 402.204 68.091 381.826 68.253 376.274 84.504 C 371.012 99.903 387.043 109.098 382.159 130.524 C 377.840 149.469 360.142 165.133 360.140 165.136 C 360.139 165.133 361.932 145.206 355.371 129.480 C 345.365 105.501 329.134 104.220 320.835 86.861 C 315.040 74.740 319.504 63.457 312.203 49.543 C 301.396 28.948 273.134 8.465 273.130 8.461 C 273.131 8.466 287.566 34.905 286.611 54.601 C 285.643 74.584 267.022 82.804 268.427 99.852 C 269.765 116.097 288.237 118.052 292.387 139.670 C 296.028 158.633 286.179 179.956 286.179 179.960 C 286.177 179.957 280.506 160.758 268.549 148.640 C 250.406 130.253 234.835 135.324 220.760 122.372 C 210.882 113.282 211.000 101.051 199.080 90.833 C 181.526 75.786 147.800 67.466 147.795 67.463 C 147.798 67.467 171.397 86.242 178.148 104.788 C 184.955 123.489 171.070 138.170 178.867 153.295 C 186.344 167.799 204.151 162.575 216.243 180.998 C 226.816 197.105 225.849 220.519 225.850 220.523 C 225.847 220.521 213.451 204.803 197.844 198.016 C 174.188 187.730 161.644 198.254 143.776 191.502 C 131.219 186.757 126.765 175.359 111.892 170.333 C 89.999 162.934 55.622 167.828 55.616 167.828 C 55.621 167.830 84.522 176.434 97.712 191.113 C 111.023 205.928 103.633 224.740 116.520 235.870 C 128.866 246.532 143.430 235.062 161.512 247.645 C 177.352 258.668 185.195 280.789 185.198 280.792 C 185.194 280.791 167.728 271.033 150.714 270.713 C 124.873 270.226 117.256 284.614 98.128 285.275 C 84.723 285.739 76.184 277.108 60.538 278.249 C 37.409 279.936 7.472 297.717 7.466 297.719 C 7.471 297.720 37.499 295.055 55.206 303.785 C 73.220 312.667 73.382 333.045 89.633 338.598 C 105.032 343.859 114.227 327.828 135.653 332.713 C 154.598 337.032 170.262 354.729 170.265 354.731 C 170.262 354.732 150.335 352.939 134.609 359.500 C 110.630 369.506 109.349 385.737 91.990 394.036 C 79.869 399.831 68.586 395.367 54.672 402.668 C 34.077 413.475 13.594 441.738 13.590 441.741 C 13.595 441.740 40.033 427.306 59.730 428.260 C 79.712 429.228 87.933 447.849 104.981 446.445 C 121.226 445.106 123.181 426.634 144.798 422.484 C 163.762 418.843 185.085 428.692 185.089 428.692 C 185.086 428.694 165.887 434.365 153.769 446.322 C 135.382 464.465 140.453 480.036 127.501 494.111 C 118.411 503.989 106.180 503.871 95.962 515.791 C 80.915 533.345 72.594 567.071 72.592 567.077 C 72.596 567.074 91.371 543.474 109.917 536.723 C 128.618 529.917 143.299 543.801 158.424 536.004 C 172.928 528.527 167.704 510.720 186.126 498.628 C 202.234 488.056 225.648 489.022 225.652 489.021 C 225.650 489.024 209.932 501.420 203.145 517.028 C 192.859 540.684 203.383 553.227 196.631 571.095 C 191.886 583.653 180.488 588.106 175.462 602.980 C 168.063 624.872 172.957 659.249 172.957 659.255 C 172.959 659.251 181.563 630.349 196.242 617.159 C 211.056 603.848 229.869 611.238 240.999 598.351 C 251.661 586.005 240.191 571.441 252.774 553.359 C 263.796 537.519 285.918 529.676 285.921 529.673 C 285.920 529.677 276.162 547.143 275.842 564.157 C 275.355 589.998 289.743 597.615 290.404 616.743 C 290.868 630.148 282.237 638.687 283.378 654.333 C 285.065 677.462 302.846 707.399 302.848 707.405 C 302.849 707.400 300.184 677.372 308.914 659.666 C 317.796 641.651 338.174 641.489 343.726 625.238 C 348.988 609.839 332.957 600.644 337.841 579.218 C 342.160 560.273 359.858 544.610 359.860 544.606 Z"/>
</g>
<g id="specs">
<path fill="#ff00ff" fill-rule="evenodd" stroke="none" d="M 223.405 490.440 C 223.432 490.440 496.568 490.440 496.595 490.440 C 496.595 490.413 496.595 217.277 496.595 217.250 C 496.568 217.250 223.432 217.250 223.405 217.250 C 223.405 217.277 223.405 490.413 223.405 490.440 Z"/>
<path fill="#ff0000" fill-rule="evenodd" stroke="none" d="M 360.000 682.198 C 360.001 682.201 372.432 717.007 372.433 717.011 C 372.432 717.010 360.001 705.444 360.000 705.443 C 359.999 705.444 347.568 717.010 347.567 717.011 C 347.568 717.007 359.999 682.201 360.000 682.198 Z"/>
<path fill="#0000ff" fill-rule="evenodd" stroke="none" d="M 360.000 3.411 C 360.001 3.413 367.221 23.631 367.222 23.633 C 367.221 23.632 360.001 16.914 360.000 16.913 C 359.999 16.914 352.779 23.632 352.778 23.633 C 352.779 23.631 359.999 3.413 360.000 3.411 Z"/>
<path fill="#00ff00" fill-rule="evenodd" stroke="none" d="M 157.402 354.850 C 157.404 354.849 177.585 347.526 177.587 347.526 C 177.587 347.526 170.905 354.781 170.904 354.782 C 170.905 354.782 177.659 361.969 177.660 361.970 C 177.658 361.969 157.404 354.851 157.402 354.850 Z"/>
<path fill="#ffff00" fill-rule="evenodd" stroke="none" d="M 214.789 498.871 C 214.790 498.869 223.751 479.360 223.751 479.358 C 223.752 479.359 224.223 489.210 224.223 489.211 C 224.224 489.211 234.084 489.450 234.085 489.450 C 234.083 489.451 214.791 498.870 214.789 498.871 Z"/>
<path fill="#ffff00" fill-rule="evenodd" stroke="none" d="M 503.459 499.658 C 503.458 499.656 494.108 480.330 494.107 480.328 C 494.107 480.329 493.833 490.188 493.833 490.189 C 493.832 490.189 483.979 490.626 483.978 490.626 C 483.980 490.627 503.457 499.657 503.459 499.658 Z"/>
<path fill="#00ff00" fill-rule="evenodd" stroke="none" d="M 563.644 354.850 C 563.642 354.849 543.461 347.526 543.459 347.526 C 543.459 347.526 550.141 354.781 550.142 354.782 C 550.141 354.782 543.387 361.969 543.386 361.970 C 543.388 361.969 563.642 354.851 563.644 354.850 Z"/>
<path fill="#00ffff" fill-rule="evenodd" stroke="none" d="M 504.937 206.959 C 504.936 206.961 497.769 227.199 497.769 227.201 C 497.768 227.200 496.411 217.431 496.411 217.430 C 496.410 217.430 486.569 218.079 486.568 218.079 C 486.570 218.078 504.935 206.960 504.937 206.959 Z"/>
<path fill="#00ffff" fill-rule="evenodd" stroke="none" d="M 215.175 208.656 C 215.175 208.658 223.676 228.372 223.677 228.374 C 223.677 228.373 224.380 218.535 224.380 218.534 C 224.381 218.534 234.243 218.527 234.244 218.527 C 234.242 218.526 215.176 208.657 215.175 208.656 Z"/>
</g>
</g>
</svg>
