<?xml version="1.0" encoding="utf-8"?>
<!-- Generator: Moho 12.5 build 22414 -->
<!DOCTYPE svg PUBLIC "-//W3C//DTD SVG 1.1//EN" "http://www.w3.org/Graphics/SVG/1.1/DTD/svg11.dtd">
<svg version="1.1" id="Frame_0" xmlns="http://www.w3.org/2000/svg" xmlns:xlink="http://www.w3.org/1999/xlink" width="720px" height="720px">
<g id="sun">
<g id="sun">
<path fill="#ffffff" fill-rule="evenodd" stroke="#000000" stroke-width="4" stroke-linecap="round" stroke-linejoin="round" d="M 359.860 544.606 C 359.861 544.610 358.068 564.536 364.629 580.262 C 374.635 604.241 390.866 605.522 399.165 622.881 C 404.960 635.002 400.496 646.285 407.797 660.199 C 418.604 680.794 446.866 701.277 446.870 701.281 C 446.869 701.276 432.434 674.838 433.389 655.142 C 434.357 635.159 452.978 626.938 451.573 609.890 C 450.235 593.646 431.763 591.690 427.613 570.073 C 423.972 551.110 433.821 529.786 433.821 529.782 C 433.823 529.786 439.494 548.984 451.451 561.102 C 469.594 579.489 485.165 574.418 499.240 587.371 C 509.118 596.461 509.000 608.691 520.920 618.909 C 538.474 633.956 572.200 642.277 572.205 642.279 C 572.202 642.275 548.603 623.500 541.852 604.955 C 535.045 586.254 548.930 571.572 541.133 556.447 C 533.656 541.943 515.849 547.167 503.757 528.745 C 493.184 512.637 494.151 489.223 494.150 489.219 C 494.153 489.221 506.549 504.940 522.156 511.726 C 545.812 522.012 558.356 511.488 576.224 518.240 C 588.781 522.986 593.235 534.383 608.109 539.410 C 630.001 546.808 664.378 541.914 664.384 541.914 C 664.379 541.912 635.477 533.309 622.288 518.629 C 608.977 503.815 616.367 485.003 603.480 473.873 C 591.134 463.210 576.570 474.680 558.488 462.097 C 542.648 451.075 534.805 428.953 534.802 428.950 C 534.806 428.951 552.272 438.709 569.286 439.029 C 595.127 439.516 602.744 425.128 621.872 424.467 C 635.277 424.004 643.816 432.634 659.462 431.493 C 682.591 429.806 712.528 412.025 712.534 412.023 C 712.529 412.022 682.501 414.687 664.794 405.957 C 646.780 397.075 646.618 376.697 630.367 371.145 C 614.968 365.883 605.773 381.914 584.347 377.030 C 565.402 372.711 549.738 355.013 549.735 355.011 C 549.739 355.011 569.665 356.804 585.391 350.242 C 609.370 340.236 610.651 324.005 628.010 315.706 C 640.131 309.911 651.414 314.376 665.328 307.074 C 685.923 296.267 706.406 268.005 706.410 268.001 C 706.405 268.002 679.966 282.437 660.271 281.482 C 640.288 280.514 632.067 261.893 615.019 263.298 C 598.774 264.636 596.819 283.108 575.202 287.258 C 556.238 290.899 534.915 281.051 534.911 281.050 C 534.914 281.048 554.113 275.377 566.231 263.420 C 584.617 245.277 579.547 229.706 592.499 215.631 C 601.589 205.754 613.820 205.871 624.038 193.951 C 639.085 176.397 647.406 142.671 647.408 142.666 C 647.404 142.669 628.629 166.269 610.083 173.019 C 591.382 179.826 576.701 165.942 561.576 173.738 C 547.072 181.215 552.296 199.022 533.873 211.114 C 517.766 221.687 494.352 220.720 494.348 220.721 C 494.350 220.719 510.069 208.322 516.855 192.715 C 527.141 169.059 516.617 156.516 523.369 138.647 C 528.115 126.090 539.512 121.637 544.538 106.763 C 551.937 84.870 547.043 50.493 547.043 50.488 C 547.041 50.492 538.438 79.394 523.758 92.584 C 508.944 105.894 490.131 98.504 479.001 111.392 C 468.339 123.737 479.809 138.302 467.226 156.383 C 456.204 172.223 434.082 180.066 434.079 180.069 C 434.080 180.065 443.838 162.600 444.158 145.585 C 444.645 119.744 430.257 112.127 429.596 93.000 C 429.132 79.594 437.763 71.055 436.622 55.409 C 434.935 32.280 417.154 2.343 417.152 2.338 C 417.151 2.342 419.816 32.370 411.086 50.077 C 402.204 68.091 381.826 68.253 376.274 84.504 C 371.012 99.903 387.043 109.098 382.159 130.525 C 377.840 149.469 360.142 165.133 360.140 165.136 C 360.139 165.133 361.932 145.206 355.371 129.481 C 345.365 105.501 329.134 104.220 320.835 86.861 C 315.040 74.740 319.504 63.457 312.203 49.543 C 301.396 28.948 273.134 8.466 273.130 8.462 C 273.131 8.466 287.566 34.905 286.611 54.601 C 285.643 74.584 267.022 82.804 268.427 99.852 C 269.765 116.097 288.237 118.052 292.387 139.669 C 296.028 158.633 286.179 179.956 286.179 179.960 C 286.177 179.957 280.506 160.758 268.549 148.640 C 250.406 130.254 234.835 135.324 220.760 122.372 C 210.882 113.282 211.000 101.051 199.080 90.833 C 181.526 75.786 147.800 67.466 147.795 67.463 C 147.798 67.467 171.397 86.243 178.148 104.788 C 184.955 123.489 171.070 138.170 178.867 153.295 C 186.344 167.799 204.151 162.575 216.243 180.998 C 226.816 197.105 225.849 220.519 225.850 220.523 C 225.847 220.521 213.451 204.803 197.844 198.016 C 174.188 187.730 161.644 198.254 143.776 191.502 C 131.219 186.757 126.765 175.359 111.891 170.333 C 89.999 162.934 55.622 167.828 55.616 167.828 C 55.621 167.830 84.523 176.434 97.713 191.113 C 111.023 205.928 103.633 224.740 116.520 235.870 C 128.866 246.532 143.430 235.062 161.512 247.645 C 177.352 258.667 185.195 280.789 185.198 280.792 C 185.194 280.791 167.728 271.033 150.714 270.713 C 124.873 270.226 117.256 284.614 98.128 285.275 C 84.723 285.739 76.184 277.108 60.538 278.249 C 37.409 279.936 7.472 297.718 7.466 297.720 C 7.471 297.720 37.499 295.055 55.206 303.785 C 73.220 312.667 73.382 333.045 89.633 338.598 C 105.032 343.859 114.227 327.828 135.653 332.713 C 154.598 337.032 170.262 354.729 170.265 354.731 C 170.261 354.732 150.335 352.939 134.609 359.500 C 110.630 369.506 109.349 385.737 91.990 394.036 C 79.869 399.831 68.586 395.367 54.672 402.668 C 34.077 413.475 13.594 441.738 13.590 441.741 C 13.595 441.740 40.034 427.306 59.730 428.260 C 79.712 429.228 87.933 447.849 104.981 446.445 C 121.226 445.106 123.181 426.634 144.798 422.484 C 163.762 418.843 185.085 428.692 185.089 428.692 C 185.086 428.694 165.887 434.365 153.769 446.322 C 135.383 464.465 140.453 480.036 127.501 494.111 C 118.411 503.989 106.180 503.871 95.962 515.792 C 80.915 533.345 72.594 567.071 72.592 567.077 C 72.596 567.074 91.371 543.474 109.917 536.724 C 128.618 529.917 143.299 543.801 158.424 536.004 C 172.928 528.527 167.704 510.720 186.127 498.628 C 202.234 488.056 225.648 489.022 225.652 489.021 C 225.650 489.024 209.931 501.420 203.145 517.028 C 192.859 540.684 203.383 553.227 196.631 571.095 C 191.886 583.653 180.488 588.106 175.462 602.980 C 168.063 624.872 172.957 659.249 172.957 659.255 C 172.959 659.251 181.562 630.349 196.242 617.159 C 211.056 603.848 229.869 611.238 240.999 598.351 C 251.661 586.005 240.191 571.441 252.774 553.359 C 263.796 537.519 285.918 529.676 285.921 529.674 C 285.920 529.677 276.162 547.143 275.842 564.157 C 275.355 589.998 289.743 597.615 290.404 616.743 C 290.868 630.148 282.237 638.687 283.378 654.333 C 285.065 677.462 302.846 707.400 302.848 707.405 C 302.849 707.400 300.184 677.372 308.914 659.666 C 317.796 641.651 338.174 641.489 343.726 625.239 C 348.988 609.839 332.957 600.644 337.841 579.218 C 342.160 560.273 359.858 544.610 359.860 544.606 Z"/>
</g>
<g id="specs_2">
<path fill="#ff00ff" fill-rule="evenodd" stroke="none" d="M 232.759 481.145 C 232.784 481.145 487.183 481.145 487.208 481.145 C 487.208 481.120 487.208 226.721 487.208 226.696 C 487.183 226.696 232.784 226.696 232.759 226.696 C 232.759 226.721 232.759 481.120 232.759 481.145 Z"/>
<path fill="#ff0000" fill-rule="evenodd" stroke="none" d="M 359.983 680.622 C 359.985 680.626 372.811 716.539 372.812 716.543 C 372.811 716.542 359.985 704.608 359.983 704.607 C 359.982 704.608 347.156 716.542 347.155 716.543 C 347.156 716.539 359.982 680.626 359.983 680.622 Z"/>
<path fill="#0000ff" fill-rule="evenodd" stroke="none" d="M 359.983 0.801 C 359.984 0.803 367.434 21.665 367.435 21.667 C 367.434 21.666 359.984 14.734 359.983 14.733 C 359.983 14.734 352.532 21.666 352.532 21.667 C 352.532 21.665 359.983 0.803 359.983 0.801 Z"/>
<path fill="#00ff00" fill-rule="evenodd" stroke="none" d="M 8.049 354.957 C 8.051 354.956 28.875 347.400 28.877 347.399 C 28.876 347.400 21.982 354.886 21.981 354.887 C 21.982 354.887 28.952 362.303 28.952 362.303 C 28.950 362.303 8.051 354.958 8.049 354.957 Z"/>
<path fill="#ffff00" fill-rule="evenodd" stroke="none" d="M 110.658 605.171 C 110.659 605.169 119.905 585.039 119.906 585.036 C 119.906 585.037 120.393 595.203 120.393 595.204 C 120.394 595.204 130.567 595.450 130.568 595.450 C 130.566 595.451 110.660 605.170 110.658 605.171 Z"/>
<path fill="#ffff00" fill-rule="evenodd" stroke="none" d="M 610.676 604.924 C 610.675 604.922 601.027 584.981 601.026 584.979 C 601.026 584.980 600.743 595.153 600.743 595.154 C 600.742 595.154 590.576 595.605 590.575 595.605 C 590.577 595.606 610.674 604.923 610.676 604.924 Z"/>
<path fill="#00ff00" fill-rule="evenodd" stroke="none" d="M 712.997 354.957 C 712.995 354.956 692.171 347.400 692.169 347.399 C 692.170 347.400 699.064 354.886 699.065 354.887 C 699.064 354.887 692.095 362.303 692.094 362.303 C 692.096 362.303 712.995 354.958 712.997 354.957 Z"/>
<path fill="#00ffff" fill-rule="evenodd" stroke="none" d="M 609.026 103.925 C 609.025 103.928 601.630 124.809 601.629 124.811 C 601.629 124.810 600.228 114.730 600.228 114.729 C 600.227 114.729 590.073 115.399 590.072 115.400 C 590.074 115.398 609.024 103.927 609.026 103.925 Z"/>
<path fill="#00ffff" fill-rule="evenodd" stroke="none" d="M 111.056 104.618 C 111.057 104.620 119.828 124.961 119.829 124.963 C 119.829 124.962 120.554 114.811 120.554 114.810 C 120.555 114.810 130.732 114.803 130.733 114.803 C 130.731 114.802 111.058 104.619 111.056 104.618 Z"/>
</g>
</g>
</svg>
