<?xml version="1.0" encoding="utf-8"?>
<!-- Generator: Moho 12.5 build 22414 -->
<!DOCTYPE svg PUBLIC "-//W3C//DTD SVG 1.1//EN" "http://www.w3.org/Graphics/SVG/1.1/DTD/svg11.dtd">
<svg version="1.1" id="Frame_0" xmlns="http://www.w3.org/2000/svg" xmlns:xlink="http://www.w3.org/1999/xlink" width="720px" height="720px">
<g id="sun1">
<g id="sun1">
<path fill="#ffffff" fill-rule="evenodd" stroke="#000000" stroke-width="4" stroke-linejoin="round" d="M 77.994 212.511 C 78.013 212.519 271.106 292.500 271.125 292.508 C 271.126 292.511 284.933 300.162 279.501 313.275 C 274.070 326.388 258.896 322.036 258.894 322.037 C 258.875 322.029 65.782 242.047 65.763 242.039 C 65.762 242.037 50.807 234.421 56.420 220.871 C 62.032 207.322 77.992 212.512 77.994 212.511 M 386.166 244.055 C 386.174 244.036 466.155 50.943 466.163 50.924 C 466.165 50.923 473.817 37.116 486.930 42.548 C 500.043 47.980 495.691 63.153 495.692 63.155 C 495.684 63.174 415.702 256.267 415.694 256.286 C 415.692 256.287 408.076 271.243 394.526 265.630 C 380.976 260.018 386.167 244.058 386.166 244.055 M 449.564 290.262 C 449.583 290.254 642.675 210.272 642.695 210.264 C 642.697 210.265 657.870 205.912 663.302 219.025 C 668.734 232.139 654.927 239.790 654.926 239.792 C 654.906 239.800 461.814 319.782 461.795 319.790 C 461.793 319.789 445.832 324.979 440.220 311.429 C 434.607 297.879 449.563 290.264 449.564 290.262 M 464.923 641.379 C 464.915 641.359 384.934 448.267 384.926 448.248 C 384.926 448.246 380.574 433.072 393.687 427.641 C 406.800 422.209 414.452 436.016 414.454 436.017 C 414.462 436.036 494.443 629.128 494.451 629.148 C 494.450 629.150 499.641 645.110 486.091 650.723 C 472.541 656.335 464.925 641.380 464.923 641.379 M 462.194 369.806 C 462.214 369.814 655.306 449.796 655.326 449.804 C 655.326 449.806 669.133 457.457 663.702 470.571 C 658.270 483.684 643.097 479.331 643.095 479.332 C 643.075 479.324 449.983 399.342 449.963 399.334 C 449.962 399.332 435.007 391.717 440.619 378.167 C 446.232 364.617 462.192 369.807 462.194 369.806 M 227.719 627.778 C 227.728 627.759 307.709 434.666 307.717 434.647 C 307.719 434.646 315.371 420.839 328.484 426.271 C 341.597 431.702 337.244 446.876 337.245 446.878 C 337.237 446.897 257.256 639.990 257.248 640.009 C 257.246 640.010 249.630 654.965 236.080 649.353 C 222.530 643.740 227.720 627.780 227.719 627.778 M 64.871 449.607 C 64.890 449.599 257.983 369.617 258.002 369.609 C 258.004 369.610 273.178 365.257 278.609 378.370 C 284.041 391.484 270.234 399.135 270.233 399.137 C 270.214 399.145 77.121 479.127 77.102 479.135 C 77.100 479.134 61.140 484.324 55.527 470.774 C 49.915 457.224 64.870 449.609 64.871 449.607 M 305.146 255.642 C 305.138 255.623 225.156 62.530 225.148 62.511 C 225.149 62.509 220.796 47.335 233.909 41.904 C 247.023 36.472 254.674 50.279 254.676 50.280 C 254.684 50.299 334.666 243.392 334.674 243.411 C 334.673 243.413 339.863 259.373 326.313 264.986 C 312.763 270.598 305.148 255.643 305.146 255.642 M 150.664 114.777 C 150.679 114.792 298.466 262.578 298.481 262.593 C 298.481 262.595 308.308 274.948 298.272 284.984 C 288.236 295.021 275.883 285.193 275.881 285.193 C 275.866 285.178 128.079 137.392 128.064 137.377 C 128.064 137.374 117.162 124.615 127.533 114.245 C 137.903 103.874 150.662 114.777 150.664 114.777 M 423.306 261.853 C 423.321 261.838 571.108 114.051 571.123 114.036 C 571.125 114.036 583.478 104.208 593.514 114.245 C 603.550 124.281 593.723 136.634 593.723 136.636 C 593.708 136.651 445.921 284.438 445.906 284.452 C 445.904 284.452 433.145 295.355 422.774 284.984 C 412.404 274.614 423.306 261.855 423.306 261.853 M 464.196 328.803 C 464.217 328.803 673.219 328.803 673.240 328.803 C 673.241 328.804 688.925 330.590 688.925 344.783 C 688.925 358.977 673.241 360.762 673.240 360.764 C 673.219 360.764 464.217 360.764 464.196 360.764 C 464.195 360.762 447.463 359.450 447.463 344.783 C 447.463 330.117 464.195 328.804 464.196 328.803 M 344.020 659.070 C 344.020 659.050 344.020 450.048 344.020 450.027 C 344.021 450.025 345.806 434.341 360.000 434.341 C 374.194 434.341 375.979 450.025 375.980 450.027 C 375.980 450.048 375.980 659.050 375.980 659.070 C 375.979 659.072 374.666 675.804 360.000 675.804 C 345.334 675.804 344.021 659.072 344.020 659.070 M 445.425 407.126 C 445.440 407.141 593.226 554.927 593.241 554.942 C 593.241 554.945 603.069 567.297 593.033 577.334 C 582.996 587.370 570.643 577.542 570.641 577.542 C 570.626 577.527 422.840 429.741 422.825 429.726 C 422.825 429.724 411.922 416.965 422.293 406.594 C 432.663 396.223 445.422 407.126 445.425 407.126 M 130.077 555.731 C 130.092 555.716 277.878 407.930 277.893 407.915 C 277.895 407.915 290.248 398.087 300.284 408.123 C 310.321 418.160 300.493 430.513 300.493 430.515 C 300.478 430.530 152.691 578.316 152.677 578.331 C 152.674 578.331 139.915 589.234 129.545 578.863 C 119.174 568.493 130.077 555.734 130.077 555.731 M 47.808 328.803 C 47.829 328.803 256.830 328.803 256.851 328.803 C 256.853 328.804 272.537 330.590 272.537 344.783 C 272.537 358.977 256.853 360.762 256.851 360.764 C 256.830 360.764 47.829 360.764 47.808 360.764 C 47.806 360.762 31.075 359.450 31.075 344.783 C 31.075 330.117 47.806 328.804 47.808 328.803 M 344.020 241.552 C 344.020 241.531 344.020 32.529 344.020 32.508 C 344.021 32.507 345.806 16.823 360.000 16.823 C 374.194 16.823 375.979 32.507 375.980 32.508 C 375.980 32.529 375.980 241.531 375.980 241.552 C 375.979 241.554 374.666 258.285 360.000 258.285 C 345.334 258.285 344.021 241.554 344.020 241.552 Z"/>
<path fill="#ffffff" fill-rule="evenodd" stroke="#000000" stroke-width="4" stroke-linejoin="round" d="M 360.000 450.269 C 389.193 450.269 415.565 438.495 434.638 419.421 C 453.711 400.348 465.486 373.976 465.486 344.783 C 465.486 315.590 453.711 289.219 434.638 270.145 C 415.565 251.072 389.193 239.297 360.000 239.297 C 330.807 239.297 304.435 251.072 285.362 270.145 C 266.289 289.219 254.514 315.590 254.514 344.783 C 254.514 373.976 266.289 400.348 285.362 419.421 C 304.435 438.495 330.807 450.269 360.000 450.269 Z"/>
<path fill="#ffffff" fill-rule="evenodd" stroke="#000000" stroke-width="4" stroke-linejoin="round" d="M 360.000 416.044 C 379.721 416.044 397.537 408.090 410.422 395.205 C 423.307 382.320 431.261 364.505 431.261 344.783 C 431.261 325.062 423.307 307.247 410.422 294.362 C 397.537 281.477 379.721 273.522 360.000 273.522 C 340.279 273.522 322.463 281.477 309.578 294.362 C 296.693 307.247 288.739 325.062 288.739 344.783 C 288.739 364.505 296.693 382.320 309.578 395.205 C 322.463 408.090 340.279 416.044 360.000 416.044 Z"/>
<path fill="#ffffff" fill-rule="evenodd" stroke="#000000" stroke-width="4" stroke-linejoin="round" d="M 360.000 377.152 C 368.958 377.152 377.050 373.538 382.902 367.686 C 388.755 361.833 392.368 353.741 392.368 344.783 C 392.368 335.825 388.755 327.733 382.902 321.881 C 377.050 316.028 368.958 312.415 360.000 312.415 C 351.042 312.415 342.950 316.028 337.098 321.881 C 331.245 327.733 327.632 335.825 327.632 344.783 C 327.632 353.741 331.245 361.833 337.098 367.686 C 342.950 373.538 351.042 377.152 360.000 377.152 Z"/>
</g>
<g id="specs">
<path fill="#ff00ff" fill-rule="evenodd" stroke="none" d="M 189.433 515.931 C 189.467 515.931 530.533 515.931 530.567 515.931 C 530.567 515.897 530.567 174.831 530.567 174.797 C 530.533 174.797 189.467 174.797 189.433 174.797 C 189.433 174.831 189.433 515.897 189.433 515.931 Z"/>
<path fill="#ff0000" fill-rule="evenodd" stroke="none" d="M 360.000 676.429 C 360.001 676.433 372.432 711.239 372.433 711.242 C 372.432 711.241 360.001 699.675 360.000 699.674 C 359.999 699.675 347.568 711.241 347.567 711.242 C 347.568 711.239 359.999 676.433 360.000 676.429 Z"/>
<path fill="#0000ff" fill-rule="evenodd" stroke="none" d="M 360.000 3.136 C 360.001 3.138 367.221 23.356 367.222 23.358 C 367.221 23.357 360.001 16.639 360.000 16.638 C 359.999 16.639 352.779 23.357 352.778 23.358 C 352.779 23.356 359.999 3.138 360.000 3.136 Z"/>
<path fill="#00ff00" fill-rule="evenodd" stroke="none" d="M 18.920 346.369 C 18.922 346.368 39.104 339.045 39.106 339.044 C 39.105 339.045 32.423 346.300 32.423 346.300 C 32.423 346.301 39.178 353.488 39.179 353.489 C 39.177 353.488 18.922 346.369 18.920 346.369 Z"/>
<path fill="#ffff00" fill-rule="evenodd" stroke="none" d="M 118.365 588.865 C 118.366 588.863 127.326 569.354 127.327 569.352 C 127.327 569.353 127.799 579.205 127.799 579.206 C 127.800 579.206 137.660 579.445 137.661 579.445 C 137.659 579.446 118.367 588.864 118.365 588.865 Z"/>
<path fill="#ffff00" fill-rule="evenodd" stroke="none" d="M 602.961 588.626 C 602.960 588.624 593.610 569.298 593.609 569.297 C 593.609 569.298 593.334 579.157 593.334 579.158 C 593.333 579.158 583.480 579.595 583.479 579.595 C 583.481 579.596 602.959 588.625 602.961 588.626 Z"/>
<path fill="#00ff00" fill-rule="evenodd" stroke="none" d="M 702.126 346.369 C 702.124 346.368 681.942 339.045 681.940 339.044 C 681.941 339.045 688.623 346.300 688.623 346.300 C 688.623 346.301 681.868 353.488 681.867 353.489 C 681.869 353.488 702.124 346.369 702.126 346.369 Z"/>
<path fill="#00ffff" fill-rule="evenodd" stroke="none" d="M 601.361 103.080 C 601.361 103.082 594.193 123.319 594.193 123.321 C 594.193 123.320 592.835 113.551 592.835 113.550 C 592.834 113.550 582.993 114.200 582.992 114.200 C 582.994 114.199 601.359 103.081 601.361 103.080 Z"/>
<path fill="#00ffff" fill-rule="evenodd" stroke="none" d="M 118.750 103.750 C 118.751 103.752 127.252 123.467 127.253 123.469 C 127.253 123.468 127.956 113.630 127.956 113.629 C 127.957 113.629 137.819 113.621 137.820 113.621 C 137.818 113.620 118.752 103.751 118.750 103.750 Z"/>
</g>
</g>
</svg>
