<?xml version="1.0" encoding="utf-8"?>
<!-- Generator: Moho 12.5 build 22414 -->
<!DOCTYPE svg PUBLIC "-//W3C//DTD SVG 1.1//EN" "http://www.w3.org/Graphics/SVG/1.1/DTD/svg11.dtd">
<svg version="1.1" id="Frame_0" xmlns="http://www.w3.org/2000/svg" xmlns:xlink="http://www.w3.org/1999/xlink" width="720px" height="720px">
<g id="halves">
<g id="sun_half">
<g id="sun">
<path fill="#ffffff" fill-rule="evenodd" stroke="#000000" stroke-width="4" stroke-linecap="round" stroke-linejoin="round" d="M 547.970 497.965 C 547.974 497.965 567.715 499.741 583.294 493.241 C 607.051 483.328 608.320 467.248 625.517 459.026 C 637.525 453.285 648.703 457.708 662.488 450.474 C 682.891 439.768 703.183 411.768 703.187 411.765 C 703.183 411.766 676.990 426.066 657.477 425.121 C 637.680 424.161 629.536 405.714 612.647 407.105 C 596.553 408.431 594.616 426.731 573.200 430.843 C 554.413 434.450 533.288 424.693 533.284 424.692 C 533.287 424.690 552.308 419.072 564.313 407.226 C 582.528 389.252 577.505 373.826 590.337 359.882 C 599.342 350.096 611.459 350.212 621.582 338.403 C 636.489 321.013 644.732 287.600 644.734 287.595 C 644.731 287.598 626.130 310.979 607.757 317.666 C 589.230 324.410 574.685 310.655 559.701 318.379 C 545.332 325.786 550.507 343.427 532.256 355.407 C 516.298 365.881 493.102 364.924 493.098 364.925 C 493.100 364.922 508.673 352.641 515.396 337.179 C 525.586 313.743 515.160 301.316 521.850 283.614 C 526.551 271.173 537.842 266.762 542.822 252.026 C 550.151 230.338 545.303 196.280 545.303 196.275 C 545.301 196.279 536.778 224.912 522.235 237.979 C 507.558 251.166 488.921 243.844 477.894 256.612 C 467.331 268.843 478.695 283.272 466.229 301.185 C 455.309 316.878 433.393 324.648 433.390 324.650 C 433.391 324.647 443.058 307.344 443.375 290.487 C 443.857 264.887 429.603 257.340 428.948 238.391 C 428.489 225.111 437.040 216.651 435.909 201.150 C 434.238 178.236 416.622 148.578 416.620 148.572 C 416.619 148.577 419.260 178.326 410.611 195.867 C 401.811 213.714 381.623 213.875 376.122 229.974 C 370.910 245.230 386.792 254.340 381.952 275.567 C 377.674 294.336 360.141 309.853 360.139 309.857 C 360.138 309.853 361.914 290.112 355.414 274.533 C 345.501 250.776 329.421 249.507 321.199 232.310 C 315.459 220.301 319.881 209.123 312.648 195.339 C 301.941 174.936 273.942 154.643 273.938 154.639 C 273.939 154.644 288.239 180.837 287.294 200.349 C 286.335 220.146 267.887 228.291 269.278 245.180 C 270.604 261.273 288.904 263.211 293.016 284.627 C 296.623 303.414 286.866 324.539 286.865 324.543 C 286.864 324.539 281.246 305.519 269.400 293.514 C 251.426 275.299 235.999 280.322 222.055 267.490 C 212.269 258.485 212.386 246.368 200.577 236.245 C 183.186 221.338 149.774 213.095 149.769 213.092 C 149.772 213.096 173.152 231.697 179.839 250.070 C 186.583 268.597 172.828 283.142 180.552 298.126 C 187.959 312.495 205.601 307.319 217.580 325.571 C 228.054 341.528 227.097 364.725 227.098 364.729 C 227.095 364.726 214.814 349.154 199.352 342.431 C 175.916 332.241 163.489 342.666 145.787 335.977 C 133.347 331.276 128.935 319.985 114.199 315.005 C 92.511 307.675 58.453 312.524 58.448 312.523 C 58.452 312.526 87.085 321.049 100.152 335.592 C 113.339 350.269 106.018 368.906 118.785 379.932 C 131.016 390.495 145.445 379.132 163.359 391.598 C 179.051 402.518 186.821 424.434 186.824 424.437 C 186.820 424.436 169.517 414.769 152.661 414.451 C 127.060 413.969 119.514 428.224 100.564 428.878 C 87.284 429.337 78.824 420.787 63.324 421.918 C 40.410 423.589 10.751 441.205 10.746 441.207 C 10.750 441.207 40.499 438.567 58.041 447.216 C 75.888 456.015 76.048 476.204 92.148 481.705 C 107.404 486.917 116.513 471.035 137.740 475.874 C 156.509 480.153 172.030 497.688 172.030 497.688 C 297.343 497.781 547.933 497.965 547.970 497.965 Z"/>
</g>
<g id="specs_2">
<path fill="#ff00ff" fill-rule="evenodd" stroke="none" d="M 248.719 495.565 C 248.741 495.565 471.226 495.565 471.248 495.565 C 471.248 495.548 471.248 332.218 471.248 332.202 C 471.226 332.202 248.741 332.202 248.719 332.202 C 248.719 332.218 248.719 495.548 248.719 495.565 Z"/>
<path fill="#ff0000" fill-rule="evenodd" stroke="none" d="M 359.984 474.237 C 359.985 474.240 372.692 509.819 372.693 509.823 C 372.692 509.822 359.985 497.999 359.984 497.998 C 359.982 497.999 347.275 509.822 347.274 509.823 C 347.275 509.819 359.982 474.240 359.984 474.237 Z"/>
<path fill="#0000ff" fill-rule="evenodd" stroke="none" d="M 359.984 151.890 C 359.984 151.892 367.365 172.560 367.366 172.562 C 367.365 172.561 359.984 165.693 359.984 165.693 C 359.983 165.693 352.602 172.561 352.601 172.562 C 352.602 172.560 359.983 151.892 359.984 151.890 Z"/>
<path fill="#00ff00" fill-rule="evenodd" stroke="none" d="M 11.323 498.928 C 11.325 498.927 31.955 491.442 31.957 491.441 C 31.956 491.442 25.126 498.858 25.125 498.858 C 25.126 498.859 32.031 506.205 32.032 506.206 C 32.030 506.205 11.325 498.929 11.323 498.928 Z"/>
<path fill="#ffff00" fill-rule="evenodd" stroke="none" d="M 194.558 502.856 C 194.559 502.855 200.702 489.481 200.702 489.480 C 200.702 489.480 201.026 496.234 201.026 496.234 C 201.026 496.234 207.786 496.398 207.786 496.398 C 207.785 496.399 194.559 502.856 194.558 502.856 Z"/>
<path fill="#ffff00" fill-rule="evenodd" stroke="none" d="M 526.764 502.693 C 526.763 502.692 520.353 489.443 520.353 489.442 C 520.353 489.442 520.165 496.201 520.165 496.202 C 520.164 496.202 513.410 496.501 513.409 496.501 C 513.410 496.502 526.763 502.692 526.764 502.693 Z"/>
<path fill="#00ff00" fill-rule="evenodd" stroke="none" d="M 709.713 498.928 C 709.711 498.927 689.081 491.442 689.079 491.441 C 689.080 491.442 695.910 498.858 695.911 498.858 C 695.910 498.859 689.005 506.205 689.005 506.206 C 689.007 506.205 709.711 498.929 709.713 498.928 Z"/>
<path fill="#00ffff" fill-rule="evenodd" stroke="none" d="M 606.709 250.232 C 606.708 250.234 599.382 270.921 599.381 270.923 C 599.381 270.922 597.994 260.936 597.994 260.935 C 597.993 260.935 587.933 261.599 587.932 261.599 C 587.934 261.598 606.707 250.233 606.709 250.232 Z"/>
<path fill="#00ffff" fill-rule="evenodd" stroke="none" d="M 113.372 250.917 C 113.373 250.919 122.062 271.072 122.063 271.074 C 122.063 271.073 122.782 261.016 122.782 261.015 C 122.783 261.015 132.864 261.007 132.865 261.007 C 132.864 261.006 113.374 250.918 113.372 250.917 Z"/>
<path fill="#be0027" fill-rule="evenodd" stroke="none" d="M 360.000 513.959 C 360.001 513.956 368.961 488.868 368.962 488.866 C 368.961 488.867 360.001 497.203 360.000 497.204 C 359.999 497.203 351.039 488.867 351.038 488.866 C 351.039 488.868 359.999 513.956 360.000 513.959 Z"/>
<path fill="none" stroke="#ffff00" stroke-width="4" stroke-linecap="round" stroke-linejoin="round" d="M 172.030 497.688 C 297.343 497.781 547.932 497.965 547.970 497.965 "/>
</g>
</g>
</g>
</svg>
