<?xml version="1.0" encoding="utf-8"?>
<!-- Generator: Moho 13.0.3 build 635 -->
<!DOCTYPE svg PUBLIC "-//W3C//DTD SVG 1.1//EN" "http://www.w3.org/Graphics/SVG/1.1/DTD/svg11.dtd">
<svg version="1.1" id="Frame_0" xmlns="http://www.w3.org/2000/svg" xmlns:xlink="http://www.w3.org/1999/xlink" width="1280px" height="720px">
<g id="sword_2">
<path fill="#ffffff" fill-rule="evenodd" stroke="#000000" stroke-width="5" stroke-linecap="round" stroke-linejoin="round" d="M 234.491 313.177 C 234.491 313.181 234.491 359.995 234.491 360.000 C 234.491 360.005 234.491 406.819 234.491 406.823 C 234.583 406.823 1159.219 404.040 1159.312 404.040 C 1159.323 404.035 1270.950 360.004 1270.961 360.000 C 1270.950 359.996 1159.323 315.965 1159.312 315.961 C 1159.219 315.960 234.583 313.177 234.491 313.177 Z"/>
<path fill="#ffffff" fill-rule="evenodd" stroke="#000000" stroke-width="5" stroke-linecap="round" stroke-linejoin="round" d="M 234.491 237.100 C 234.491 237.125 234.491 482.875 234.491 482.900 C 234.488 482.900 204.416 482.900 204.413 482.900 C 204.413 482.875 204.413 237.125 204.413 237.100 C 204.416 237.100 234.488 237.100 234.491 237.100 Z"/>
<path fill="#ffffff" fill-rule="evenodd" stroke="#000000" stroke-width="5" stroke-linecap="round" stroke-linejoin="round" d="M 93.092 337.505 C 96.833 344.089 99.021 351.782 99.021 360.000 C 99.021 368.218 96.832 375.911 93.092 382.495 C 129.824 382.561 204.402 382.695 204.413 382.694 C 204.413 382.690 204.413 337.310 204.413 337.306 C 204.402 337.306 129.825 337.439 93.092 337.505 Z"/>
<path fill="none" stroke="#ffffff" stroke-width="1" stroke-linecap="butt" stroke-linejoin="round" d="M 99.021 360.000 C 99.021 368.218 96.832 375.911 93.092 382.495 "/>
<path fill="none" stroke="#ffffff" stroke-width="1" stroke-linecap="butt" stroke-linejoin="round" d="M 93.092 337.505 C 96.833 344.089 99.021 351.782 99.021 360.000 "/>
<path fill="#ffffff" fill-rule="evenodd" stroke="#000000" stroke-width="5" stroke-linecap="round" stroke-linejoin="round" d="M 99.021 360.000 C 99.021 368.218 96.832 375.911 93.092 382.495 C 85.237 395.972 70.714 404.990 54.030 404.991 C 29.128 404.991 9.039 384.902 9.039 360.000 C 9.039 335.098 29.128 315.009 54.030 315.009 C 70.715 315.009 85.238 324.027 93.092 337.505 C 96.833 344.089 99.021 351.782 99.021 360.000 Z"/>
<path fill="none" stroke="#000000" stroke-width="5" stroke-linecap="round" stroke-linejoin="round" d="M 234.491 360.000 C 557.444 360.000 880.398 360.000 1203.351 360.000 "/>
</g>
</svg>
