<?xml version="1.0" encoding="utf-8"?>
<!-- Generator: Moho 12.5 build 22414 -->
<!DOCTYPE svg PUBLIC "-//W3C//DTD SVG 1.1//EN" "http://www.w3.org/Graphics/SVG/1.1/DTD/svg11.dtd">
<svg version="1.1" id="Frame_0" xmlns="http://www.w3.org/2000/svg" xmlns:xlink="http://www.w3.org/1999/xlink" width="720px" height="720px">
<g id="sword">
<g id="sword_2">
<path fill="#ffffff" fill-rule="evenodd" stroke="#000000" stroke-width="4" stroke-linecap="round" stroke-linejoin="round" d="M 334.382 576.132 C 334.384 576.132 359.997 576.132 360.000 576.132 C 360.003 576.132 385.616 576.132 385.618 576.132 C 385.618 576.081 384.096 70.185 384.095 70.135 C 384.093 70.129 360.002 9.054 360.000 9.048 C 359.998 9.054 335.907 70.129 335.905 70.135 C 335.905 70.185 334.382 576.081 334.382 576.132 Z"/>
<path fill="#ffffff" fill-rule="evenodd" stroke="#000000" stroke-width="4" stroke-linecap="round" stroke-linejoin="round" d="M 292.758 576.132 C 292.771 576.132 427.229 576.132 427.242 576.132 C 427.242 576.134 427.242 592.587 427.242 592.589 C 427.229 592.589 292.771 592.589 292.758 592.589 C 292.758 592.587 292.758 576.134 292.758 576.132 Z"/>
<path fill="#ffffff" fill-rule="evenodd" stroke="#000000" stroke-width="4" stroke-linecap="round" stroke-linejoin="round" d="M 347.692 653.496 C 351.295 651.449 355.504 650.252 360.000 650.252 C 364.496 650.252 368.705 651.449 372.308 653.496 C 372.344 633.398 372.417 592.595 372.417 592.589 C 372.414 592.589 347.586 592.589 347.583 592.589 C 347.583 592.595 347.656 633.398 347.692 653.496 Z"/>
<path fill="none" stroke="#ffffff" stroke-width="1" stroke-linecap="butt" stroke-linejoin="round" d="M 360.000 650.252 C 364.496 650.252 368.705 651.449 372.308 653.496 "/>
<path fill="none" stroke="#ffffff" stroke-width="1" stroke-linecap="butt" stroke-linejoin="round" d="M 347.692 653.496 C 351.295 651.449 355.504 650.252 360.000 650.252 "/>
<path fill="#ffffff" fill-rule="evenodd" stroke="#000000" stroke-width="4" stroke-linecap="round" stroke-linejoin="round" d="M 360.000 650.252 C 364.496 650.252 368.705 651.449 372.308 653.496 C 379.682 657.793 384.616 665.739 384.616 674.868 C 384.616 688.492 373.625 699.484 360.000 699.484 C 346.375 699.484 335.384 688.493 335.384 674.868 C 335.384 665.739 340.318 657.793 347.692 653.496 C 351.295 651.449 355.504 650.252 360.000 650.252 Z"/>
<path fill="none" stroke="#000000" stroke-width="4" stroke-linecap="round" stroke-linejoin="round" d="M 360.000 576.132 C 360.000 399.435 360.000 222.736 360.000 46.039 "/>
</g>
<g id="specs">
<path fill="#ff0000" fill-rule="evenodd" stroke="none" d="M 360.000 679.560 C 360.001 679.563 372.206 713.736 372.207 713.739 C 372.206 713.738 360.001 702.383 360.000 702.381 C 359.999 702.383 347.794 713.738 347.793 713.739 C 347.794 713.736 359.999 679.563 360.000 679.560 Z"/>
<path fill="#0000ff" fill-rule="evenodd" stroke="none" d="M 360.000 4.208 C 360.001 4.210 367.090 24.061 367.091 24.063 C 367.090 24.062 360.001 17.466 360.000 17.466 C 359.999 17.466 352.910 24.062 352.909 24.063 C 352.910 24.061 359.999 4.210 360.000 4.208 Z"/>
<path fill="#00ff00" fill-rule="evenodd" stroke="none" d="M 319.202 355.252 C 319.204 355.251 339.018 348.062 339.020 348.061 C 339.019 348.062 332.459 355.184 332.458 355.185 C 332.459 355.186 339.091 362.242 339.091 362.242 C 339.089 362.242 319.204 355.253 319.202 355.252 Z"/>
<path fill="#ffff00" fill-rule="evenodd" stroke="none" d="M 284.935 600.905 C 284.936 600.903 293.734 581.749 293.735 581.747 C 293.735 581.748 294.198 591.420 294.198 591.421 C 294.199 591.421 303.879 591.656 303.880 591.656 C 303.878 591.657 284.937 600.904 284.935 600.905 Z"/>
<path fill="#ffff00" fill-rule="evenodd" stroke="none" d="M 435.285 600.670 C 435.284 600.669 426.104 581.694 426.103 581.692 C 426.103 581.693 425.834 591.373 425.834 591.374 C 425.833 591.374 416.159 591.803 416.158 591.803 C 416.160 591.804 435.283 600.669 435.285 600.670 Z"/>
<path fill="#00ff00" fill-rule="evenodd" stroke="none" d="M 399.663 355.252 C 399.661 355.251 379.847 348.062 379.845 348.061 C 379.845 348.062 386.406 355.184 386.406 355.185 C 386.406 355.186 379.774 362.242 379.773 362.242 C 379.775 362.242 399.661 355.253 399.663 355.252 Z"/>
<path fill="#00ffff" fill-rule="evenodd" stroke="none" d="M 391.549 116.389 C 391.549 116.391 384.512 136.260 384.511 136.262 C 384.511 136.261 383.179 126.670 383.178 126.669 C 383.177 126.669 373.515 127.307 373.514 127.307 C 373.516 127.306 391.548 116.390 391.549 116.389 Z"/>
<path fill="#00ffff" fill-rule="evenodd" stroke="none" d="M 326.398 117.048 C 326.399 117.050 334.745 136.406 334.746 136.407 C 334.746 136.406 335.436 126.748 335.436 126.747 C 335.437 126.747 345.120 126.739 345.121 126.739 C 345.119 126.738 326.400 117.049 326.398 117.048 Z"/>
</g>
</g>
</svg>
