<?xml version="1.0" encoding="utf-8"?>
<!-- Generator: Moho 13.0.3 build 635 -->
<!DOCTYPE svg PUBLIC "-//W3C//DTD SVG 1.1//EN" "http://www.w3.org/Graphics/SVG/1.1/DTD/svg11.dtd">
<svg version="1.1" id="Frame_0" xmlns="http://www.w3.org/2000/svg" xmlns:xlink="http://www.w3.org/1999/xlink" width="720px" height="720px">
<g id="sword">
<g id="sword_2">
<path fill="#ffffff" fill-rule="evenodd" stroke="#000000" stroke-width="4" stroke-linecap="round" stroke-linejoin="round" d="M 333.907 585.978 C 333.909 585.978 359.997 585.978 360.000 585.978 C 360.003 585.978 386.091 585.978 386.093 585.978 C 386.093 585.926 384.542 70.655 384.542 70.604 C 384.539 70.598 360.002 8.391 360.000 8.385 C 359.998 8.391 335.461 70.598 335.458 70.604 C 335.458 70.655 333.907 585.926 333.907 585.978 Z"/>
<path fill="#ffffff" fill-rule="evenodd" stroke="#000000" stroke-width="4" stroke-linecap="round" stroke-linejoin="round" d="M 291.512 585.978 C 291.525 585.978 428.475 585.978 428.488 585.978 C 428.488 585.979 428.488 602.738 428.488 602.739 C 428.475 602.739 291.525 602.739 291.512 602.739 C 291.512 602.738 291.512 585.979 291.512 585.978 Z"/>
<path fill="#ffffff" fill-rule="evenodd" stroke="#000000" stroke-width="4" stroke-linecap="round" stroke-linejoin="round" d="M 347.464 664.775 C 351.133 662.690 355.421 661.471 360.000 661.471 C 364.580 661.471 368.867 662.691 372.536 664.775 C 372.573 644.305 372.647 602.745 372.647 602.739 C 372.644 602.739 347.355 602.739 347.353 602.739 C 347.353 602.745 347.427 644.305 347.464 664.775 Z"/>
<path fill="none" stroke="#ffffff" stroke-width="1" stroke-linecap="butt" stroke-linejoin="round" d="M 360.000 661.471 C 364.580 661.471 368.867 662.691 372.536 664.775 "/>
<path fill="none" stroke="#ffffff" stroke-width="1" stroke-linecap="butt" stroke-linejoin="round" d="M 347.464 664.775 C 351.133 662.690 355.421 661.471 360.000 661.471 "/>
<path fill="#ffffff" fill-rule="evenodd" stroke="#000000" stroke-width="4" stroke-linecap="round" stroke-linejoin="round" d="M 360.000 661.471 C 364.580 661.471 368.867 662.691 372.536 664.775 C 380.046 669.152 385.072 677.246 385.072 686.543 C 385.072 700.420 373.877 711.615 360.000 711.615 C 346.123 711.615 334.928 700.420 334.928 686.543 C 334.928 677.245 339.953 669.152 347.464 664.775 C 351.133 662.690 355.421 661.471 360.000 661.471 Z"/>
<path fill="none" stroke="#000000" stroke-width="4" stroke-linecap="round" stroke-linejoin="round" d="M 360.000 585.978 C 360.000 406.006 360.000 226.034 360.000 46.062 "/>
</g>
<g id="specs">
<path fill="#ff0000" fill-rule="evenodd" stroke="none" d="M 360.000 575.713 C 360.001 575.717 372.432 610.523 372.433 610.526 C 372.432 610.525 360.001 598.959 360.000 598.958 C 359.999 598.959 347.568 610.525 347.567 610.526 C 347.568 610.523 359.999 575.717 360.000 575.713 Z"/>
<path fill="#0000ff" fill-rule="evenodd" stroke="none" d="M 360.000 3.456 C 360.001 3.458 367.221 23.676 367.222 23.678 C 367.221 23.678 360.001 16.959 360.000 16.959 C 359.999 16.959 352.779 23.678 352.778 23.678 C 352.779 23.676 359.999 3.458 360.000 3.456 Z"/>
<path fill="#00ff00" fill-rule="evenodd" stroke="none" d="M 318.446 361.005 C 318.448 361.004 338.629 353.681 338.631 353.680 C 338.630 353.681 331.949 360.936 331.948 360.936 C 331.949 360.937 338.703 368.124 338.704 368.125 C 338.702 368.124 318.448 361.005 318.446 361.005 Z"/>
<path fill="#ffff00" fill-rule="evenodd" stroke="none" d="M 283.544 611.210 C 283.545 611.208 292.506 591.699 292.507 591.697 C 292.507 591.698 292.979 601.549 292.979 601.550 C 292.980 601.550 302.839 601.789 302.840 601.789 C 302.838 601.790 283.546 611.209 283.544 611.210 Z"/>
<path fill="#ffff00" fill-rule="evenodd" stroke="none" d="M 436.680 610.971 C 436.679 610.969 427.329 591.643 427.328 591.641 C 427.328 591.642 427.054 601.501 427.054 601.502 C 427.053 601.502 417.200 601.939 417.199 601.939 C 417.201 601.940 436.678 610.970 436.680 610.971 Z"/>
<path fill="#00ff00" fill-rule="evenodd" stroke="none" d="M 400.398 361.005 C 400.396 361.004 380.215 353.681 380.213 353.680 C 380.213 353.681 386.895 360.936 386.896 360.936 C 386.895 360.937 380.140 368.124 380.140 368.125 C 380.142 368.124 400.396 361.005 400.398 361.005 Z"/>
<path fill="#00ffff" fill-rule="evenodd" stroke="none" d="M 392.134 117.716 C 392.133 117.718 384.966 137.955 384.965 137.957 C 384.965 137.956 383.608 128.187 383.608 128.186 C 383.607 128.186 373.766 128.836 373.765 128.836 C 373.767 128.835 392.132 117.717 392.134 117.716 Z"/>
<path fill="#00ffff" fill-rule="evenodd" stroke="none" d="M 325.775 118.386 C 325.776 118.388 334.277 138.103 334.278 138.105 C 334.278 138.104 334.980 128.266 334.981 128.265 C 334.982 128.265 344.844 128.257 344.845 128.257 C 344.843 128.256 325.777 118.387 325.775 118.386 Z"/>
</g>
</g>
</svg>
