<?xml version="1.0" encoding="utf-8"?>
<!-- Generator: Moho 12.5 build 22414 -->
<!DOCTYPE svg PUBLIC "-//W3C//DTD SVG 1.1//EN" "http://www.w3.org/Graphics/SVG/1.1/DTD/svg11.dtd">
<svg version="1.1" id="Frame_0" xmlns="http://www.w3.org/2000/svg" xmlns:xlink="http://www.w3.org/1999/xlink" width="720px" height="720px">
<g id="synagogue_blank">
<g id="synagogue">
<path fill="#ffffff" fill-rule="evenodd" stroke="#000000" stroke-width="4" stroke-linecap="round" stroke-linejoin="round" d="M 539.045 280.656 C 539.045 285.293 542.786 289.034 547.423 289.034 C 552.061 289.034 555.801 285.293 555.801 280.656 C 555.801 276.019 552.061 272.278 547.423 272.278 C 542.786 272.277 539.045 276.018 539.045 280.656 M 165.421 280.656 C 165.421 285.293 169.162 289.034 173.799 289.034 C 178.437 289.034 182.177 285.293 182.177 280.656 C 182.177 276.019 178.437 272.278 173.799 272.278 C 169.162 272.277 165.421 276.018 165.421 280.656 M 194.755 343.258 C 194.755 343.256 194.755 315.399 194.755 315.396 C 194.751 315.396 150.244 315.396 150.240 315.396 C 150.240 315.399 150.240 343.256 150.240 343.258 C 150.242 343.256 172.286 323.055 172.288 323.053 C 172.290 323.055 194.753 343.256 194.755 343.258 M 196.787 314.237 C 196.787 300.960 186.077 290.250 172.800 290.250 C 159.524 290.250 148.813 300.960 148.813 314.237 C 155.096 314.163 191.781 314.137 196.787 314.237 M 207.495 463.404 C 206.788 442.662 191.817 428.292 172.383 428.292 C 152.949 428.292 138.941 440.095 137.271 463.404 C 136.195 478.413 137.180 534.170 137.180 534.177 C 137.187 534.177 205.975 534.335 205.982 534.335 C 205.982 534.328 208.029 479.090 207.495 463.404 M 257.796 401.932 C 257.788 401.924 172.099 326.167 172.090 326.160 C 172.082 326.167 86.393 401.924 86.384 401.932 C 86.401 401.932 257.779 401.932 257.796 401.932 M 255.043 684.070 C 255.043 684.043 255.043 405.390 255.043 405.362 C 255.027 405.362 86.890 405.362 86.873 405.362 C 86.873 405.390 86.873 684.043 86.873 684.070 C 86.890 684.070 255.027 684.070 255.043 684.070 M 207.495 606.019 C 206.788 585.278 191.818 570.907 172.383 570.907 C 152.949 570.907 138.941 582.710 137.271 606.019 C 136.195 621.028 137.180 676.785 137.180 676.792 C 137.187 676.792 205.975 676.951 205.982 676.951 C 205.982 676.944 208.029 621.705 207.495 606.019 M 347.577 139.990 C 347.577 147.029 353.255 152.707 360.294 152.707 C 367.332 152.707 373.010 147.028 373.010 139.990 C 373.010 132.952 367.332 127.274 360.294 127.273 C 353.255 127.273 347.577 132.951 347.577 139.990 M 525.275 343.258 C 525.275 343.256 525.275 315.399 525.275 315.396 C 525.280 315.396 569.787 315.396 569.791 315.396 C 569.791 315.399 569.791 343.256 569.791 343.258 C 569.789 343.256 547.745 323.055 547.743 323.053 C 547.741 323.055 525.278 343.256 525.275 343.258 M 523.244 314.237 C 523.244 300.960 533.954 290.250 547.231 290.250 C 560.507 290.250 571.217 300.960 571.217 314.237 C 564.935 314.163 528.250 314.137 523.244 314.237 M 512.536 463.404 C 513.242 442.662 528.213 428.292 547.647 428.292 C 567.082 428.292 581.090 440.095 582.760 463.404 C 583.835 478.413 582.851 534.170 582.851 534.177 C 582.844 534.177 514.056 534.335 514.049 534.335 C 514.049 534.328 512.001 479.090 512.536 463.404 M 462.234 401.932 C 462.243 401.924 547.932 326.167 547.941 326.160 C 547.949 326.167 633.638 401.924 633.646 401.932 C 633.629 401.932 462.252 401.932 462.234 401.932 M 464.987 684.070 C 464.987 684.043 464.987 405.390 464.987 405.362 C 465.004 405.362 633.141 405.362 633.158 405.362 C 633.158 405.390 633.158 684.043 633.158 684.070 C 633.141 684.070 465.004 684.070 464.987 684.070 M 294.344 399.664 C 294.344 436.167 323.791 465.614 360.294 465.614 C 396.796 465.614 426.243 436.167 426.243 399.664 C 426.242 363.162 396.796 333.716 360.294 333.715 C 323.791 333.715 294.344 363.162 294.344 399.664 M 512.536 606.019 C 513.242 585.278 528.213 570.907 547.647 570.907 C 567.082 570.907 581.090 582.710 582.760 606.019 C 583.835 621.028 582.851 676.785 582.851 676.792 C 582.844 676.792 514.056 676.951 514.049 676.951 C 514.049 676.944 512.001 621.705 512.536 606.019 M 311.835 576.610 C 313.004 547.864 333.569 527.936 360.510 527.936 C 387.451 527.936 407.017 544.288 409.185 576.610 C 410.614 597.907 408.169 676.985 408.169 676.995 C 408.159 676.995 312.798 677.215 312.789 677.215 C 312.789 677.205 310.930 598.849 311.835 576.610 M 262.606 685.476 C 262.606 685.435 262.606 277.696 262.606 277.655 C 262.625 277.655 458.395 277.655 458.414 277.655 C 458.414 277.696 458.414 685.435 458.414 685.476 C 458.395 685.476 262.625 685.476 262.606 685.476 M 252.478 273.851 C 252.478 273.850 252.478 257.121 252.478 257.120 C 252.499 257.120 468.520 257.120 468.542 257.120 C 468.542 257.121 468.542 273.850 468.542 273.851 C 468.520 273.851 252.499 273.851 252.478 273.851 M 264.284 253.128 C 264.284 199.868 307.250 156.903 360.510 156.903 C 413.770 156.903 456.736 199.868 456.736 253.128 C 431.532 252.834 284.368 252.726 264.284 253.128 Z"/>
<path fill="none" stroke="#000000" stroke-width="1" stroke-linecap="butt" stroke-linejoin="round" d="M 207.495 463.404 C 206.788 442.662 191.817 428.292 172.383 428.292 "/>
<path fill="none" stroke="#000000" stroke-width="1" stroke-linecap="butt" stroke-linejoin="round" d="M 172.383 428.292 C 152.949 428.292 138.941 440.095 137.271 463.404 "/>
<path fill="none" stroke="#000000" stroke-width="1" stroke-linecap="butt" stroke-linejoin="round" d="M 137.271 463.404 C 136.195 478.413 137.180 534.170 137.180 534.177 "/>
<path fill="none" stroke="#000000" stroke-width="1" stroke-linecap="butt" stroke-linejoin="round" d="M 137.180 534.177 C 137.187 534.177 205.975 534.335 205.982 534.335 "/>
<path fill="none" stroke="#000000" stroke-width="1" stroke-linecap="butt" stroke-linejoin="round" d="M 205.982 534.335 C 205.982 534.328 208.029 479.090 207.495 463.404 "/>
<path fill="none" stroke="#000000" stroke-width="1" stroke-linecap="butt" stroke-linejoin="round" d="M 207.495 606.019 C 206.788 585.278 191.818 570.907 172.383 570.907 "/>
<path fill="none" stroke="#000000" stroke-width="1" stroke-linecap="butt" stroke-linejoin="round" d="M 172.383 570.907 C 152.949 570.907 138.941 582.710 137.271 606.019 "/>
<path fill="none" stroke="#000000" stroke-width="1" stroke-linecap="butt" stroke-linejoin="round" d="M 137.271 606.019 C 136.195 621.028 137.180 676.785 137.180 676.792 "/>
<path fill="none" stroke="#000000" stroke-width="1" stroke-linecap="butt" stroke-linejoin="round" d="M 137.180 676.792 C 137.187 676.792 205.975 676.951 205.982 676.951 "/>
<path fill="none" stroke="#000000" stroke-width="1" stroke-linecap="butt" stroke-linejoin="round" d="M 205.982 676.951 C 205.982 676.944 208.029 621.705 207.495 606.019 "/>
<path fill="none" stroke="#000000" stroke-width="1" stroke-linecap="butt" stroke-linejoin="round" d="M 512.536 463.404 C 513.242 442.662 528.213 428.292 547.647 428.292 "/>
<path fill="none" stroke="#000000" stroke-width="1" stroke-linecap="butt" stroke-linejoin="round" d="M 547.647 428.292 C 567.082 428.292 581.090 440.095 582.760 463.404 "/>
<path fill="none" stroke="#000000" stroke-width="1" stroke-linecap="butt" stroke-linejoin="round" d="M 582.760 463.404 C 583.835 478.413 582.851 534.170 582.851 534.177 "/>
<path fill="none" stroke="#000000" stroke-width="1" stroke-linecap="butt" stroke-linejoin="round" d="M 582.851 534.177 C 582.844 534.177 514.056 534.335 514.049 534.335 "/>
<path fill="none" stroke="#000000" stroke-width="1" stroke-linecap="butt" stroke-linejoin="round" d="M 514.049 534.335 C 514.049 534.328 512.001 479.090 512.536 463.404 "/>
<path fill="none" stroke="#000000" stroke-width="1" stroke-linecap="butt" stroke-linejoin="round" d="M 294.344 399.664 C 294.344 436.167 323.791 465.614 360.294 465.614 "/>
<path fill="none" stroke="#000000" stroke-width="1" stroke-linecap="butt" stroke-linejoin="round" d="M 360.294 465.614 C 396.796 465.614 426.243 436.167 426.243 399.664 "/>
<path fill="none" stroke="#000000" stroke-width="1" stroke-linecap="butt" stroke-linejoin="round" d="M 426.243 399.664 C 426.242 363.162 396.796 333.716 360.294 333.715 "/>
<path fill="none" stroke="#000000" stroke-width="1" stroke-linecap="butt" stroke-linejoin="round" d="M 360.294 333.715 C 323.791 333.715 294.344 363.162 294.344 399.664 "/>
<path fill="none" stroke="#000000" stroke-width="1" stroke-linecap="butt" stroke-linejoin="round" d="M 512.536 606.019 C 513.242 585.278 528.213 570.907 547.647 570.907 "/>
<path fill="none" stroke="#000000" stroke-width="1" stroke-linecap="butt" stroke-linejoin="round" d="M 547.647 570.907 C 567.082 570.907 581.090 582.710 582.760 606.019 "/>
<path fill="none" stroke="#000000" stroke-width="1" stroke-linecap="butt" stroke-linejoin="round" d="M 582.760 606.019 C 583.835 621.028 582.851 676.785 582.851 676.792 "/>
<path fill="none" stroke="#000000" stroke-width="1" stroke-linecap="butt" stroke-linejoin="round" d="M 582.851 676.792 C 582.844 676.792 514.056 676.951 514.049 676.951 "/>
<path fill="none" stroke="#000000" stroke-width="1" stroke-linecap="butt" stroke-linejoin="round" d="M 514.049 676.951 C 514.049 676.944 512.001 621.705 512.536 606.019 "/>
<path fill="none" stroke="#000000" stroke-width="1" stroke-linecap="butt" stroke-linejoin="round" d="M 311.835 576.610 C 313.004 547.864 333.569 527.936 360.510 527.936 "/>
<path fill="none" stroke="#000000" stroke-width="1" stroke-linecap="butt" stroke-linejoin="round" d="M 360.510 527.936 C 387.451 527.936 407.017 544.288 409.185 576.610 "/>
<path fill="none" stroke="#000000" stroke-width="1" stroke-linecap="butt" stroke-linejoin="round" d="M 409.185 576.610 C 410.614 597.907 408.169 676.985 408.169 676.995 "/>
<path fill="none" stroke="#000000" stroke-width="1" stroke-linecap="butt" stroke-linejoin="round" d="M 408.169 676.995 C 408.159 676.995 312.798 677.215 312.789 677.215 "/>
<path fill="none" stroke="#000000" stroke-width="1" stroke-linecap="butt" stroke-linejoin="round" d="M 312.789 677.215 C 312.789 677.205 310.930 598.849 311.835 576.610 "/>
<path fill="#000000" fill-rule="evenodd" stroke="none" d="M 207.495 463.404 C 206.788 442.662 191.817 428.292 172.383 428.292 C 152.949 428.292 138.941 440.095 137.271 463.404 C 136.195 478.413 137.180 534.170 137.180 534.177 C 137.187 534.177 205.975 534.335 205.982 534.335 C 205.982 534.328 208.029 479.090 207.495 463.404 M 207.495 606.019 C 206.788 585.278 191.818 570.907 172.383 570.907 C 152.949 570.907 138.941 582.710 137.271 606.019 C 136.195 621.028 137.180 676.785 137.180 676.792 C 137.187 676.792 205.975 676.951 205.982 676.951 C 205.982 676.944 208.029 621.705 207.495 606.019 M 512.536 463.404 C 513.242 442.662 528.213 428.292 547.647 428.292 C 567.082 428.292 581.090 440.095 582.760 463.404 C 583.835 478.413 582.851 534.170 582.851 534.177 C 582.844 534.177 514.056 534.335 514.049 534.335 C 514.049 534.328 512.001 479.090 512.536 463.404 M 294.344 399.664 C 294.344 436.167 323.791 465.614 360.294 465.614 C 396.796 465.614 426.243 436.167 426.243 399.664 C 426.242 363.162 396.796 333.716 360.294 333.715 C 323.791 333.715 294.344 363.162 294.344 399.664 M 512.536 606.019 C 513.242 585.278 528.213 570.907 547.647 570.907 C 567.082 570.907 581.090 582.710 582.760 606.019 C 583.835 621.028 582.851 676.785 582.851 676.792 C 582.844 676.792 514.056 676.951 514.049 676.951 C 514.049 676.944 512.001 621.705 512.536 606.019 M 311.835 576.610 C 313.004 547.864 333.569 527.936 360.510 527.936 C 387.451 527.936 407.017 544.288 409.185 576.610 C 410.614 597.907 408.169 676.985 408.169 676.995 C 408.159 676.995 312.798 677.215 312.789 677.215 C 312.789 677.205 310.930 598.849 311.835 576.610 Z"/>
</g>
<g id="specs">
<path fill="#ff00ff" fill-rule="evenodd" stroke="none" d="M 312.376 446.848 C 312.385 446.848 407.615 446.848 407.624 446.848 C 407.624 446.838 407.624 351.608 407.624 351.599 C 407.615 351.599 312.385 351.599 312.376 351.599 C 312.376 351.608 312.376 446.838 312.376 446.848 Z"/>
<path fill="#ff0000" fill-rule="evenodd" stroke="none" d="M 360.000 679.201 C 360.001 679.205 372.432 714.011 372.433 714.014 C 372.432 714.013 360.001 702.447 360.000 702.446 C 359.999 702.447 347.568 714.013 347.567 714.014 C 347.568 714.011 359.999 679.205 360.000 679.201 Z"/>
<path fill="#0000ff" fill-rule="evenodd" stroke="none" d="M 360.000 21.762 C 360.001 21.764 367.221 41.982 367.222 41.984 C 367.221 41.983 360.001 35.265 360.000 35.264 C 359.999 35.265 352.779 41.983 352.778 41.984 C 352.779 41.982 359.999 21.764 360.000 21.762 Z"/>
<path fill="#00ff00" fill-rule="evenodd" stroke="none" d="M 74.591 455.707 C 74.593 455.707 94.774 448.384 94.776 448.383 C 94.776 448.384 88.094 455.639 88.093 455.639 C 88.094 455.640 94.848 462.827 94.849 462.827 C 94.847 462.827 74.593 455.708 74.591 455.707 Z"/>
<path fill="#ffff00" fill-rule="evenodd" stroke="none" d="M 91.936 690.496 C 91.937 690.494 100.898 670.985 100.899 670.983 C 100.899 670.984 101.370 680.835 101.370 680.836 C 101.371 680.836 111.231 681.075 111.232 681.075 C 111.230 681.076 91.938 690.495 91.936 690.496 Z"/>
<path fill="#ffff00" fill-rule="evenodd" stroke="none" d="M 630.491 690.257 C 630.490 690.255 621.140 670.929 621.139 670.927 C 621.139 670.928 620.864 680.787 620.864 680.788 C 620.863 680.788 611.010 681.225 611.009 681.225 C 611.011 681.226 630.489 690.256 630.491 690.257 Z"/>
<path fill="#00ff00" fill-rule="evenodd" stroke="none" d="M 646.456 455.707 C 646.454 455.707 626.272 448.384 626.270 448.383 C 626.271 448.384 632.953 455.639 632.953 455.639 C 632.953 455.640 626.198 462.827 626.197 462.827 C 626.199 462.827 646.454 455.708 646.456 455.707 Z"/>
<path fill="#00ffff" fill-rule="evenodd" stroke="none" d="M 444.059 183.323 C 444.058 183.325 434.604 202.600 434.603 202.602 C 434.603 202.601 434.382 192.740 434.382 192.739 C 434.381 192.739 424.530 192.250 424.529 192.249 C 424.531 192.249 444.057 183.324 444.059 183.323 Z"/>
<path fill="#00ffff" fill-rule="evenodd" stroke="none" d="M 275.444 183.323 C 275.445 183.325 284.899 202.600 284.900 202.602 C 284.900 202.601 285.121 192.740 285.121 192.739 C 285.122 192.739 294.973 192.250 294.974 192.249 C 294.972 192.249 275.446 183.324 275.444 183.323 Z"/>
<path fill="#ff00ff" fill-rule="evenodd" stroke="none" d="M 519.725 495.814 C 519.731 495.814 575.282 495.814 575.288 495.814 C 575.288 495.809 575.288 440.257 575.288 440.251 C 575.282 440.251 519.731 440.251 519.725 440.251 C 519.725 440.257 519.725 495.809 519.725 495.814 Z"/>
<path fill="#ff00ff" fill-rule="evenodd" stroke="none" d="M 143.852 495.814 C 143.858 495.814 199.409 495.814 199.415 495.814 C 199.415 495.809 199.415 440.257 199.415 440.251 C 199.409 440.251 143.858 440.251 143.852 440.251 C 143.852 440.257 143.852 495.809 143.852 495.814 Z"/>
<path fill="#ff00ff" fill-rule="evenodd" stroke="none" d="M 314.346 127.496 C 314.355 127.496 405.645 127.496 405.654 127.496 C 405.654 127.487 405.654 36.197 405.654 36.188 C 405.645 36.188 314.355 36.188 314.346 36.188 C 314.346 36.197 314.346 127.487 314.346 127.496 Z"/>
<path fill="#be0027" fill-rule="evenodd" stroke="none" d="M 359.957 696.851 C 359.958 696.849 369.002 671.525 369.003 671.523 C 369.002 671.523 359.958 679.938 359.957 679.939 C 359.957 679.938 350.913 671.523 350.912 671.523 C 350.913 671.525 359.957 696.849 359.957 696.851 Z"/>
</g>
</g>
</svg>
