<?xml version="1.0" encoding="utf-8"?>
<!-- Generator: Moho 12.5 build 22414 -->
<!DOCTYPE svg PUBLIC "-//W3C//DTD SVG 1.1//EN" "http://www.w3.org/Graphics/SVG/1.1/DTD/svg11.dtd">
<svg version="1.1" id="Frame_0" xmlns="http://www.w3.org/2000/svg" xmlns:xlink="http://www.w3.org/1999/xlink" width="720px" height="720px">
<g id="synagogue">
<g id="synagogue">
<path fill="#ffffff" fill-rule="evenodd" stroke="#000000" stroke-width="4" stroke-linecap="round" stroke-linejoin="round" d="M 335.477 399.385 C 339.622 392.222 344.160 384.367 348.434 376.940 C 356.326 376.940 364.776 376.940 372.569 376.940 C 376.784 384.239 381.344 392.136 385.554 399.366 C 381.352 406.643 376.765 414.588 372.575 421.846 C 364.792 421.851 356.340 421.853 348.455 421.864 C 344.307 414.680 339.764 406.810 335.477 399.385 M 343.336 431.574 C 348.932 441.266 360.508 461.318 360.510 461.321 C 360.512 461.318 370.439 444.122 377.757 431.448 C 390.180 431.478 414.781 431.478 414.785 431.478 C 414.783 431.474 404.402 413.495 396.302 399.328 C 402.482 388.623 414.783 367.319 414.785 367.316 C 414.781 367.316 390.180 367.316 377.664 367.316 C 372.088 357.527 360.512 337.476 360.510 337.473 C 360.508 337.476 350.791 354.308 343.244 367.316 C 327.607 367.316 306.239 367.316 306.236 367.316 C 306.238 367.319 316.983 385.930 324.781 399.437 C 318.538 410.170 306.238 431.474 306.236 431.478 C 306.239 431.478 327.506 431.478 343.336 431.574 M 360.510 356.049 C 360.511 356.050 364.300 362.614 367.004 367.297 C 362.796 367.307 358.425 367.312 354.008 367.313 C 356.204 363.508 360.509 356.050 360.510 356.049 M 383.223 376.940 C 385.718 381.235 388.340 385.756 390.908 390.091 C 393.436 385.714 398.501 376.941 398.502 376.940 C 398.500 376.940 388.371 376.940 383.223 376.940 M 398.502 421.853 C 398.500 421.853 388.371 421.853 383.316 421.853 C 385.873 417.406 388.418 412.988 390.908 408.701 C 393.436 413.079 398.501 421.852 398.502 421.853 M 367.004 431.496 C 362.941 431.492 358.682 431.490 354.052 431.557 C 356.204 435.285 360.509 442.742 360.510 442.743 C 360.511 442.742 364.300 436.178 367.004 431.496 M 330.100 408.721 C 332.696 413.179 335.243 417.572 337.676 421.853 C 331.077 421.853 322.520 421.853 322.518 421.853 C 322.519 421.852 326.786 414.460 330.100 408.721 M 322.518 376.940 C 322.519 376.941 326.958 384.630 330.137 390.136 C 332.617 385.828 335.245 381.267 337.671 376.940 C 331.077 376.940 322.520 376.940 322.518 376.940 M 539.045 280.656 C 539.045 285.293 542.786 289.034 547.423 289.034 C 552.061 289.034 555.801 285.293 555.801 280.656 C 555.801 276.019 552.061 272.278 547.423 272.278 C 542.786 272.277 539.045 276.018 539.045 280.656 M 165.421 280.656 C 165.421 285.293 169.162 289.034 173.799 289.034 C 178.437 289.034 182.177 285.293 182.177 280.656 C 182.177 276.019 178.437 272.278 173.799 272.278 C 169.162 272.277 165.421 276.018 165.421 280.656 M 171.460 482.709 C 171.459 482.708 168.576 477.716 166.451 474.036 C 162.845 474.045 155.702 474.045 155.701 474.045 C 155.702 474.044 158.821 468.640 161.067 464.710 C 159.273 461.602 155.702 455.416 155.701 455.415 C 155.702 455.415 162.845 455.415 166.479 455.415 C 168.098 452.573 171.459 446.751 171.460 446.750 C 171.460 446.751 174.343 451.744 176.473 455.415 C 181.013 455.415 187.217 455.415 187.218 455.415 C 187.218 455.416 184.098 460.820 181.839 464.733 C 183.647 467.858 187.218 474.044 187.218 474.045 C 187.217 474.045 181.013 474.045 176.469 474.034 C 174.822 476.887 171.460 482.708 171.460 482.709 M 194.755 343.258 C 194.755 343.256 194.755 315.399 194.755 315.396 C 194.751 315.396 150.244 315.396 150.240 315.396 C 150.240 315.399 150.240 343.256 150.240 343.258 C 150.242 343.256 172.286 323.055 172.288 323.053 C 172.290 323.055 194.753 343.256 194.755 343.258 M 196.787 314.237 C 196.787 300.960 186.077 290.250 172.800 290.250 C 159.524 290.250 148.813 300.960 148.813 314.237 C 155.096 314.163 191.781 314.137 196.787 314.237 M 197.082 464.789 C 197.082 478.954 185.656 490.380 171.491 490.380 C 157.327 490.380 145.901 478.954 145.901 464.789 C 145.902 450.626 157.327 439.199 171.491 439.199 C 185.655 439.199 197.082 450.625 197.082 464.789 M 207.495 463.404 C 206.788 442.662 191.817 428.292 172.383 428.292 C 152.949 428.292 138.941 440.095 137.271 463.404 C 136.195 478.413 137.180 534.170 137.180 534.177 C 137.187 534.177 205.975 534.335 205.982 534.335 C 205.982 534.328 208.029 479.090 207.495 463.404 M 257.796 401.932 C 257.788 401.924 172.099 326.167 172.090 326.160 C 172.082 326.167 86.393 401.924 86.384 401.932 C 86.401 401.932 257.779 401.932 257.796 401.932 M 255.043 684.070 C 255.043 684.043 255.043 405.390 255.043 405.362 C 255.027 405.362 86.890 405.362 86.873 405.362 C 86.873 405.390 86.873 684.043 86.873 684.070 C 86.890 684.070 255.027 684.070 255.043 684.070 M 207.495 606.019 C 206.788 585.278 191.818 570.907 172.383 570.907 C 152.949 570.907 138.941 582.710 137.271 606.019 C 136.195 621.028 137.180 676.785 137.180 676.792 C 137.187 676.792 205.975 676.951 205.982 676.951 C 205.982 676.944 208.029 621.705 207.495 606.019 M 548.571 482.709 C 548.572 482.708 551.455 477.716 553.580 474.036 C 557.186 474.045 564.328 474.045 564.330 474.045 C 564.329 474.044 561.209 468.640 558.964 464.710 C 560.758 461.602 564.329 455.416 564.330 455.415 C 564.328 455.415 557.186 455.415 553.552 455.415 C 551.933 452.573 548.572 446.751 548.571 446.750 C 548.571 446.751 545.688 451.744 543.558 455.415 C 539.018 455.415 532.814 455.415 532.813 455.415 C 532.813 455.416 535.933 460.820 538.192 464.733 C 536.384 467.858 532.813 474.044 532.813 474.045 C 532.814 474.045 539.017 474.045 543.562 474.034 C 545.209 476.887 548.571 482.708 548.571 482.709 M 359.999 123.301 C 360.000 123.298 367.659 110.034 373.304 100.257 C 382.886 100.280 401.863 100.280 401.866 100.280 C 401.864 100.278 393.576 85.921 387.609 75.479 C 392.377 67.222 401.864 50.787 401.866 50.785 C 401.863 50.785 382.886 50.785 373.232 50.785 C 368.931 43.234 360.000 27.766 359.999 27.763 C 359.998 27.766 352.339 41.031 346.679 50.785 C 334.617 50.785 318.135 50.785 318.132 50.785 C 318.133 50.787 326.422 65.144 332.425 75.542 C 327.621 83.843 318.133 100.278 318.132 100.280 C 318.135 100.280 334.617 100.281 346.691 100.253 C 351.066 107.831 359.998 123.298 359.999 123.301 M 347.577 139.990 C 347.577 147.029 353.255 152.707 360.294 152.707 C 367.332 152.707 373.010 147.028 373.010 139.990 C 373.010 132.952 367.332 127.274 360.294 127.273 C 353.255 127.273 347.577 132.951 347.577 139.990 M 525.275 343.258 C 525.275 343.256 525.275 315.399 525.275 315.396 C 525.280 315.396 569.787 315.396 569.791 315.396 C 569.791 315.399 569.791 343.256 569.791 343.258 C 569.789 343.256 547.745 323.055 547.743 323.053 C 547.741 323.055 525.278 343.256 525.275 343.258 M 523.244 314.237 C 523.244 300.960 533.954 290.250 547.231 290.250 C 560.507 290.250 571.217 300.960 571.217 314.237 C 564.935 314.163 528.250 314.137 523.244 314.237 M 522.949 464.789 C 522.949 478.954 534.375 490.380 548.539 490.380 C 562.704 490.380 574.129 478.954 574.129 464.789 C 574.129 450.626 562.703 439.199 548.539 439.199 C 534.375 439.199 522.949 450.625 522.949 464.789 M 512.536 463.404 C 513.242 442.662 528.213 428.292 547.647 428.292 C 567.082 428.292 581.090 440.095 582.760 463.404 C 583.835 478.413 582.851 534.170 582.851 534.177 C 582.844 534.177 514.056 534.335 514.049 534.335 C 514.049 534.328 512.001 479.090 512.536 463.404 M 462.234 401.932 C 462.243 401.924 547.932 326.167 547.941 326.160 C 547.949 326.167 633.638 401.924 633.646 401.932 C 633.629 401.932 462.252 401.932 462.234 401.932 M 464.987 684.070 C 464.987 684.043 464.987 405.390 464.987 405.362 C 465.004 405.362 633.141 405.362 633.158 405.362 C 633.158 405.390 633.158 684.043 633.158 684.070 C 633.141 684.070 465.004 684.070 464.987 684.070 M 294.344 399.664 C 294.344 436.167 323.791 465.614 360.294 465.614 C 396.796 465.614 426.243 436.167 426.243 399.664 C 426.242 363.162 396.796 333.716 360.294 333.715 C 323.791 333.715 294.344 363.162 294.344 399.664 M 512.536 606.019 C 513.242 585.278 528.213 570.907 547.647 570.907 C 567.082 570.907 581.090 582.710 582.760 606.019 C 583.835 621.028 582.851 676.785 582.851 676.792 C 582.844 676.792 514.056 676.951 514.049 676.951 C 514.049 676.944 512.001 621.705 512.536 606.019 M 311.835 576.610 C 313.004 547.864 333.569 527.936 360.510 527.936 C 387.451 527.936 407.017 544.288 409.185 576.610 C 410.614 597.907 408.169 676.985 408.169 676.995 C 408.159 676.995 312.798 677.215 312.789 677.215 C 312.789 677.205 310.930 598.849 311.835 576.610 M 262.606 685.476 C 262.606 685.435 262.606 277.696 262.606 277.655 C 262.625 277.655 458.395 277.655 458.414 277.655 C 458.414 277.696 458.414 685.435 458.414 685.476 C 458.395 685.476 262.625 685.476 262.606 685.476 M 252.478 273.851 C 252.478 273.850 252.478 257.121 252.478 257.120 C 252.499 257.120 468.520 257.120 468.542 257.120 C 468.542 257.121 468.542 273.850 468.542 273.851 C 468.520 273.851 252.499 273.851 252.478 273.851 M 264.284 253.128 C 264.284 199.868 307.250 156.903 360.510 156.903 C 413.770 156.903 456.736 199.868 456.736 253.128 C 431.532 252.834 284.368 252.726 264.284 253.128 Z"/>
</g>
<g id="specs">
<path fill="#ff00ff" fill-rule="evenodd" stroke="none" d="M 323.899 245.238 C 323.906 245.238 396.094 245.238 396.101 245.238 C 396.101 245.230 396.101 173.042 396.101 173.035 C 396.094 173.035 323.906 173.035 323.899 173.035 C 323.899 173.042 323.899 245.230 323.899 245.238 Z"/>
<path fill="#ff0000" fill-rule="evenodd" stroke="none" d="M 360.000 671.147 C 360.001 671.150 372.432 705.956 372.433 705.960 C 372.432 705.958 360.001 694.392 360.000 694.391 C 359.999 694.392 347.568 705.958 347.567 705.960 C 347.568 705.956 359.999 671.150 360.000 671.147 Z"/>
<path fill="#0000ff" fill-rule="evenodd" stroke="none" d="M 360.000 21.762 C 360.001 21.764 367.221 41.982 367.222 41.984 C 367.221 41.983 360.001 35.265 360.000 35.264 C 359.999 35.265 352.779 41.983 352.778 41.984 C 352.779 41.982 359.999 21.764 360.000 21.762 Z"/>
<path fill="#00ff00" fill-rule="evenodd" stroke="none" d="M 74.591 455.707 C 74.593 455.707 94.774 448.384 94.776 448.383 C 94.776 448.384 88.094 455.639 88.093 455.639 C 88.094 455.640 94.848 462.827 94.849 462.827 C 94.847 462.827 74.593 455.708 74.591 455.707 Z"/>
<path fill="#ffff00" fill-rule="evenodd" stroke="none" d="M 91.936 690.496 C 91.937 690.494 100.898 670.985 100.899 670.983 C 100.899 670.984 101.370 680.835 101.370 680.836 C 101.371 680.836 111.231 681.075 111.232 681.075 C 111.230 681.076 91.938 690.495 91.936 690.496 Z"/>
<path fill="#ffff00" fill-rule="evenodd" stroke="none" d="M 630.491 690.257 C 630.490 690.255 621.140 670.929 621.139 670.927 C 621.139 670.928 620.864 680.787 620.864 680.788 C 620.863 680.788 611.010 681.225 611.009 681.225 C 611.011 681.226 630.489 690.256 630.491 690.257 Z"/>
<path fill="#00ff00" fill-rule="evenodd" stroke="none" d="M 646.456 455.707 C 646.454 455.707 626.272 448.384 626.270 448.383 C 626.271 448.384 632.953 455.639 632.953 455.639 C 632.953 455.640 626.198 462.827 626.197 462.827 C 626.199 462.827 646.454 455.708 646.456 455.707 Z"/>
<path fill="#00ffff" fill-rule="evenodd" stroke="none" d="M 444.059 183.323 C 444.058 183.325 434.604 202.600 434.603 202.602 C 434.603 202.601 434.382 192.740 434.382 192.739 C 434.381 192.739 424.530 192.250 424.529 192.249 C 424.531 192.249 444.057 183.324 444.059 183.323 Z"/>
<path fill="#00ffff" fill-rule="evenodd" stroke="none" d="M 275.444 183.323 C 275.445 183.325 284.899 202.600 284.900 202.602 C 284.900 202.601 285.121 192.740 285.121 192.739 C 285.122 192.739 294.973 192.250 294.974 192.249 C 294.972 192.249 275.446 183.324 275.444 183.323 Z"/>
</g>
</g>
</svg>
