<?xml version="1.0" encoding="utf-8"?>
<!-- Generator: Moho 12.5 build 22414 -->
<!DOCTYPE svg PUBLIC "-//W3C//DTD SVG 1.1//EN" "http://www.w3.org/Graphics/SVG/1.1/DTD/svg11.dtd">
<svg version="1.1" id="Frame_0" xmlns="http://www.w3.org/2000/svg" xmlns:xlink="http://www.w3.org/1999/xlink" width="720px" height="720px">
<g id="synagogue">
<g id="synagogue">
<path fill="#ffffff" fill-rule="evenodd" stroke="#000000" stroke-width="4" stroke-linecap="round" stroke-linejoin="round" d="M 335.477 389.855 C 339.622 382.692 344.160 374.837 348.434 367.411 C 356.326 367.411 364.776 367.411 372.569 367.411 C 376.784 374.710 381.344 382.607 385.554 389.836 C 381.352 397.114 376.765 405.058 372.575 412.317 C 364.792 412.322 356.340 412.323 348.455 412.335 C 344.307 405.151 339.764 397.280 335.477 389.855 M 343.336 422.045 C 348.932 431.737 360.508 451.788 360.510 451.791 C 360.512 451.788 370.439 434.593 377.757 421.918 C 390.180 421.948 414.781 421.948 414.785 421.948 C 414.783 421.945 404.402 403.965 396.302 389.798 C 402.482 379.094 414.783 357.789 414.785 357.786 C 414.781 357.786 390.180 357.786 377.664 357.786 C 372.088 347.998 360.512 327.947 360.510 327.944 C 360.508 327.947 350.791 344.778 343.244 357.786 C 327.607 357.786 306.239 357.786 306.236 357.786 C 306.238 357.789 316.983 376.401 324.781 389.908 C 318.538 400.641 306.238 421.945 306.236 421.948 C 306.239 421.948 327.506 421.948 343.336 422.045 M 360.510 346.520 C 360.511 346.521 364.300 353.085 367.004 357.768 C 362.796 357.778 358.425 357.783 354.008 357.784 C 356.204 353.978 360.509 346.521 360.510 346.520 M 383.223 367.411 C 385.718 371.706 388.340 376.227 390.908 380.562 C 393.436 376.184 398.501 367.412 398.502 367.411 C 398.500 367.411 388.371 367.411 383.223 367.411 M 398.502 412.324 C 398.500 412.324 388.371 412.324 383.316 412.324 C 385.873 407.876 388.418 403.459 390.908 399.172 C 393.436 403.550 398.501 412.322 398.502 412.324 M 367.004 421.966 C 362.941 421.963 358.682 421.961 354.052 422.027 C 356.204 425.756 360.509 433.212 360.510 433.213 C 360.511 433.212 364.300 426.649 367.004 421.966 M 330.100 399.192 C 332.696 403.649 335.243 408.042 337.676 412.324 C 331.077 412.324 322.520 412.324 322.518 412.324 C 322.519 412.322 326.786 404.931 330.100 399.192 M 322.518 367.411 C 322.519 367.412 326.958 375.101 330.137 380.607 C 332.617 376.299 335.245 371.738 337.671 367.411 C 331.077 367.411 322.520 367.411 322.518 367.411 M 539.045 271.126 C 539.045 275.764 542.786 279.505 547.423 279.505 C 552.061 279.505 555.801 275.764 555.801 271.126 C 555.801 266.489 552.061 262.748 547.423 262.748 C 542.786 262.748 539.045 266.489 539.045 271.126 M 165.421 271.126 C 165.421 275.764 169.162 279.505 173.799 279.505 C 178.437 279.505 182.177 275.764 182.177 271.126 C 182.177 266.489 178.437 262.748 173.799 262.748 C 169.162 262.748 165.421 266.489 165.421 271.126 M 171.460 473.180 C 171.459 473.179 168.576 468.186 166.451 464.506 C 162.845 464.515 155.702 464.516 155.701 464.516 C 155.702 464.515 158.821 459.111 161.067 455.180 C 159.273 452.072 155.702 445.886 155.701 445.886 C 155.702 445.886 162.845 445.886 166.479 445.886 C 168.098 443.044 171.459 437.222 171.460 437.221 C 171.460 437.222 174.343 442.214 176.473 445.886 C 181.013 445.886 187.217 445.886 187.218 445.886 C 187.218 445.886 184.098 451.290 181.839 455.204 C 183.647 458.328 187.218 464.515 187.218 464.516 C 187.217 464.516 181.013 464.515 176.469 464.505 C 174.822 467.357 171.460 473.179 171.460 473.180 M 194.755 333.729 C 194.755 333.726 194.755 305.869 194.755 305.867 C 194.751 305.867 150.244 305.867 150.240 305.867 C 150.240 305.869 150.240 333.726 150.240 333.729 C 150.242 333.727 172.286 313.526 172.288 313.524 C 172.290 313.526 194.753 333.727 194.755 333.729 M 196.787 304.707 C 196.787 291.431 186.077 280.720 172.800 280.720 C 159.524 280.720 148.813 291.431 148.813 304.707 C 155.096 304.634 191.781 304.607 196.787 304.707 M 197.082 455.260 C 197.082 469.424 185.656 480.851 171.491 480.851 C 157.327 480.851 145.901 469.424 145.901 455.260 C 145.902 441.096 157.327 429.670 171.491 429.670 C 185.655 429.670 197.082 441.096 197.082 455.260 M 207.495 453.874 C 206.788 433.133 191.817 418.763 172.383 418.763 C 152.949 418.763 138.941 430.565 137.271 453.874 C 136.195 468.884 137.180 524.641 137.180 524.648 C 137.187 524.648 205.975 524.806 205.982 524.806 C 205.982 524.799 208.029 469.560 207.495 453.874 M 257.796 392.403 C 257.788 392.395 172.099 316.638 172.090 316.630 C 172.082 316.638 86.393 392.395 86.384 392.403 C 86.401 392.403 257.779 392.403 257.796 392.403 M 255.043 674.541 C 255.043 674.513 255.043 395.861 255.043 395.833 C 255.027 395.833 86.890 395.833 86.873 395.833 C 86.873 395.861 86.873 674.513 86.873 674.541 C 86.890 674.541 255.027 674.541 255.043 674.541 M 207.495 596.490 C 206.788 575.748 191.818 561.378 172.383 561.377 C 152.949 561.377 138.941 573.180 137.271 596.490 C 136.195 611.499 137.180 667.256 137.180 667.263 C 137.187 667.263 205.975 667.421 205.982 667.421 C 205.982 667.414 208.029 612.175 207.495 596.490 M 548.571 473.180 C 548.572 473.179 551.455 468.186 553.580 464.506 C 557.186 464.515 564.328 464.516 564.330 464.516 C 564.329 464.515 561.209 459.111 558.964 455.180 C 560.758 452.072 564.329 445.886 564.330 445.886 C 564.328 445.886 557.186 445.886 553.552 445.886 C 551.933 443.044 548.572 437.222 548.571 437.221 C 548.571 437.222 545.688 442.214 543.558 445.886 C 539.018 445.886 532.814 445.886 532.813 445.886 C 532.813 445.886 535.933 451.290 538.192 455.204 C 536.384 458.328 532.813 464.515 532.813 464.516 C 532.814 464.516 539.017 464.515 543.562 464.505 C 545.209 467.357 548.571 473.179 548.571 473.180 M 359.999 113.771 C 360.000 113.769 367.659 100.504 373.304 90.727 C 382.886 90.751 401.863 90.751 401.866 90.751 C 401.864 90.748 393.576 76.391 387.609 65.950 C 392.377 57.692 401.864 41.258 401.866 41.255 C 401.863 41.255 382.886 41.256 373.232 41.255 C 368.931 33.705 360.000 18.236 359.999 18.234 C 359.998 18.236 352.339 31.501 346.679 41.255 C 334.617 41.255 318.135 41.255 318.132 41.255 C 318.133 41.258 326.422 55.615 332.425 66.012 C 327.621 74.314 318.133 90.748 318.132 90.751 C 318.135 90.751 334.617 90.751 346.691 90.724 C 351.066 98.302 359.998 113.769 359.999 113.771 M 347.577 130.461 C 347.577 137.499 353.255 143.177 360.294 143.177 C 367.332 143.177 373.010 137.499 373.010 130.461 C 373.010 123.422 367.332 117.744 360.294 117.744 C 353.255 117.744 347.577 123.422 347.577 130.461 M 525.275 333.729 C 525.275 333.726 525.275 305.869 525.275 305.867 C 525.280 305.867 569.787 305.867 569.791 305.867 C 569.791 305.869 569.791 333.726 569.791 333.729 C 569.789 333.727 547.745 313.526 547.743 313.524 C 547.741 313.526 525.278 333.727 525.275 333.729 M 523.244 304.707 C 523.244 291.431 533.954 280.720 547.231 280.720 C 560.507 280.720 571.217 291.431 571.217 304.707 C 564.935 304.634 528.250 304.607 523.244 304.707 M 522.949 455.260 C 522.949 469.424 534.375 480.851 548.539 480.851 C 562.704 480.851 574.129 469.424 574.129 455.260 C 574.129 441.096 562.703 429.670 548.539 429.670 C 534.375 429.670 522.949 441.096 522.949 455.260 M 512.536 453.874 C 513.242 433.133 528.213 418.763 547.647 418.763 C 567.082 418.763 581.090 430.565 582.760 453.874 C 583.835 468.884 582.851 524.641 582.851 524.648 C 582.844 524.648 514.056 524.806 514.049 524.806 C 514.049 524.799 512.001 469.560 512.536 453.874 M 462.234 392.403 C 462.243 392.395 547.932 316.638 547.941 316.630 C 547.949 316.638 633.638 392.395 633.646 392.403 C 633.629 392.403 462.252 392.403 462.234 392.403 M 464.987 674.541 C 464.987 674.513 464.987 395.861 464.987 395.833 C 465.004 395.833 633.141 395.833 633.158 395.833 C 633.158 395.861 633.158 674.513 633.158 674.541 C 633.141 674.541 465.004 674.541 464.987 674.541 M 294.344 390.135 C 294.344 426.638 323.791 456.085 360.294 456.085 C 396.796 456.085 426.243 426.638 426.243 390.135 C 426.242 353.633 396.796 324.186 360.294 324.186 C 323.791 324.186 294.344 353.633 294.344 390.135 M 512.536 596.490 C 513.242 575.748 528.213 561.378 547.647 561.377 C 567.082 561.377 581.090 573.180 582.760 596.490 C 583.835 611.499 582.851 667.256 582.851 667.263 C 582.844 667.263 514.056 667.421 514.049 667.421 C 514.049 667.414 512.001 612.175 512.536 596.490 M 311.835 567.081 C 313.004 538.335 333.569 518.406 360.510 518.406 C 387.451 518.406 407.017 534.758 409.185 567.081 C 410.614 588.378 408.169 667.456 408.169 667.466 C 408.159 667.466 312.798 667.686 312.789 667.686 C 312.789 667.676 310.930 589.319 311.835 567.081 M 262.606 675.946 C 262.606 675.906 262.606 268.166 262.606 268.125 C 262.625 268.125 458.395 268.125 458.414 268.125 C 458.414 268.166 458.414 675.906 458.414 675.946 C 458.395 675.946 262.625 675.946 262.606 675.946 M 252.478 264.322 C 252.478 264.320 252.478 247.592 252.478 247.590 C 252.499 247.590 468.520 247.590 468.542 247.590 C 468.542 247.592 468.542 264.320 468.542 264.322 C 468.520 264.322 252.499 264.322 252.478 264.322 M 264.284 243.598 C 264.284 190.338 307.250 147.373 360.510 147.373 C 413.770 147.373 456.736 190.338 456.736 243.598 C 431.532 243.304 284.368 243.197 264.284 243.598 Z"/>
</g>
<g id="specs">
<path fill="#ff00ff" fill-rule="evenodd" stroke="none" d="M 323.899 237.183 C 323.906 237.183 396.094 237.183 396.101 237.183 C 396.101 237.176 396.101 164.987 396.101 164.980 C 396.094 164.980 323.906 164.980 323.899 164.980 C 323.899 164.987 323.899 237.176 323.899 237.183 Z"/>
<path fill="#ff0000" fill-rule="evenodd" stroke="none" d="M 360.000 679.201 C 360.001 679.205 372.432 714.011 372.433 714.014 C 372.432 714.013 360.001 702.447 360.000 702.446 C 359.999 702.447 347.568 714.013 347.567 714.014 C 347.568 714.011 359.999 679.205 360.000 679.201 Z"/>
<path fill="#0000ff" fill-rule="evenodd" stroke="none" d="M 360.000 13.707 C 360.001 13.709 367.221 33.927 367.222 33.929 C 367.221 33.929 360.001 27.211 360.000 27.210 C 359.999 27.211 352.779 33.929 352.778 33.929 C 352.779 33.927 359.999 13.709 360.000 13.707 Z"/>
<path fill="#00ff00" fill-rule="evenodd" stroke="none" d="M 74.591 447.653 C 74.593 447.652 94.774 440.329 94.776 440.329 C 94.776 440.329 88.094 447.584 88.093 447.585 C 88.094 447.585 94.848 454.772 94.849 454.773 C 94.847 454.772 74.593 447.654 74.591 447.653 Z"/>
<path fill="#ffff00" fill-rule="evenodd" stroke="none" d="M 91.936 682.441 C 91.937 682.439 100.898 662.930 100.899 662.928 C 100.899 662.929 101.370 672.781 101.370 672.782 C 101.371 672.782 111.231 673.021 111.232 673.021 C 111.230 673.022 91.938 682.440 91.936 682.441 Z"/>
<path fill="#ffff00" fill-rule="evenodd" stroke="none" d="M 630.491 682.202 C 630.490 682.201 621.140 662.875 621.139 662.873 C 621.139 662.874 620.864 672.733 620.864 672.734 C 620.863 672.734 611.010 673.171 611.009 673.171 C 611.011 673.172 630.489 682.202 630.491 682.202 Z"/>
<path fill="#00ff00" fill-rule="evenodd" stroke="none" d="M 646.456 447.653 C 646.454 447.652 626.272 440.329 626.270 440.329 C 626.271 440.329 632.953 447.584 632.953 447.585 C 632.953 447.585 626.198 454.772 626.197 454.773 C 626.199 454.772 646.454 447.654 646.456 447.653 Z"/>
<path fill="#00ffff" fill-rule="evenodd" stroke="none" d="M 444.059 175.268 C 444.058 175.270 434.604 194.545 434.603 194.547 C 434.603 194.546 434.382 184.686 434.382 184.685 C 434.381 184.685 424.530 184.195 424.529 184.195 C 424.531 184.194 444.057 175.269 444.059 175.268 Z"/>
<path fill="#00ffff" fill-rule="evenodd" stroke="none" d="M 275.444 175.268 C 275.445 175.270 284.899 194.545 284.900 194.547 C 284.900 194.546 285.121 184.686 285.121 184.685 C 285.122 184.685 294.973 184.195 294.974 184.195 C 294.972 184.194 275.446 175.269 275.444 175.268 Z"/>
<path fill="#be0027" fill-rule="evenodd" stroke="none" d="M 359.957 689.804 C 359.958 689.801 369.002 664.477 369.003 664.475 C 369.002 664.476 359.958 672.891 359.957 672.891 C 359.957 672.891 350.913 664.476 350.912 664.475 C 350.913 664.477 359.957 689.801 359.957 689.804 Z"/>
</g>
</g>
</svg>
