<?xml version="1.0" encoding="utf-8"?>
<!-- Generator: Moho 13.0.3 build 635 -->
<!DOCTYPE svg PUBLIC "-//W3C//DTD SVG 1.1//EN" "http://www.w3.org/Graphics/SVG/1.1/DTD/svg11.dtd">
<svg version="1.1" id="Frame_0" xmlns="http://www.w3.org/2000/svg" xmlns:xlink="http://www.w3.org/1999/xlink" width="720px" height="720px">
<g id="synagogue">
<path fill="#ffffff" fill-rule="evenodd" stroke="#000000" stroke-width="3" stroke-linecap="round" stroke-linejoin="round" d="M 333.946 405.264 C 338.349 397.654 343.170 389.308 347.711 381.418 C 356.096 381.418 365.074 381.418 373.354 381.418 C 377.833 389.173 382.677 397.563 387.150 405.244 C 382.686 412.976 377.813 421.417 373.360 429.129 C 365.092 429.134 356.111 429.136 347.734 429.148 C 343.327 421.515 338.500 413.153 333.946 405.264 M 342.296 439.465 C 348.240 449.762 360.540 471.066 360.542 471.069 C 360.544 471.066 371.091 452.796 378.866 439.330 C 392.065 439.362 418.203 439.362 418.207 439.362 C 418.205 439.358 407.176 420.256 398.569 405.204 C 405.136 393.830 418.205 371.195 418.207 371.192 C 418.203 371.192 392.065 371.192 378.768 371.192 C 372.843 360.792 360.544 339.488 360.542 339.485 C 360.540 339.488 350.215 357.371 342.198 371.192 C 325.583 371.192 302.881 371.192 302.877 371.192 C 302.879 371.195 314.296 390.969 322.581 405.320 C 315.948 416.723 302.879 439.358 302.877 439.362 C 302.881 439.362 325.476 439.362 342.296 439.465 M 360.542 359.222 C 360.542 359.223 364.569 366.197 367.441 371.172 C 362.971 371.183 358.327 371.188 353.633 371.189 C 355.967 367.146 360.541 359.223 360.542 359.222 M 384.674 381.418 C 387.325 385.981 390.110 390.784 392.839 395.390 C 395.524 390.739 400.906 381.419 400.907 381.418 C 400.905 381.418 390.143 381.418 384.674 381.418 M 400.907 429.136 C 400.905 429.136 390.143 429.136 384.773 429.136 C 387.489 424.411 390.193 419.718 392.839 415.163 C 395.524 419.814 400.906 429.135 400.907 429.136 M 367.441 439.381 C 363.125 439.378 358.600 439.375 353.680 439.446 C 355.967 443.407 360.541 451.329 360.542 451.331 C 360.542 451.329 364.569 444.356 367.441 439.381 M 328.232 415.184 C 330.991 419.920 333.697 424.587 336.282 429.136 C 329.270 429.136 320.178 429.136 320.177 429.136 C 320.178 429.135 324.712 421.281 328.232 415.184 M 320.177 381.418 C 320.178 381.419 324.894 389.588 328.272 395.438 C 330.907 390.861 333.699 386.015 336.276 381.418 C 329.270 381.418 320.178 381.418 320.177 381.418 M 550.229 279.119 C 550.229 284.046 554.204 288.020 559.131 288.020 C 564.058 288.020 568.032 284.046 568.032 279.119 C 568.032 274.192 564.058 270.217 559.131 270.217 C 554.204 270.217 550.229 274.192 550.229 279.119 M 153.267 279.119 C 153.267 284.046 157.241 288.020 162.168 288.020 C 167.095 288.020 171.069 284.046 171.069 279.119 C 171.069 274.192 167.095 270.217 162.168 270.217 C 157.241 270.217 153.267 274.192 153.267 279.119 M 159.682 493.793 C 159.682 493.793 156.619 488.488 154.361 484.578 C 150.529 484.588 142.941 484.588 142.940 484.588 C 142.940 484.587 146.255 478.846 148.641 474.670 C 146.734 471.367 142.940 464.795 142.940 464.794 C 142.941 464.794 150.529 464.794 154.390 464.794 C 156.110 461.775 159.682 455.590 159.682 455.589 C 159.683 455.590 162.745 460.894 165.008 464.794 C 169.833 464.794 176.424 464.794 176.425 464.794 C 176.425 464.795 173.110 470.537 170.710 474.695 C 172.631 478.015 176.425 484.587 176.425 484.588 C 176.424 484.588 169.833 484.588 165.004 484.577 C 163.254 487.607 159.683 493.793 159.682 493.793 M 184.433 345.632 C 184.433 345.629 184.433 316.032 184.433 316.029 C 184.428 316.029 137.142 316.029 137.137 316.029 C 137.137 316.032 137.137 345.629 137.137 345.632 C 137.139 345.630 160.560 324.167 160.562 324.164 C 160.565 324.167 184.431 345.630 184.433 345.632 M 186.592 314.797 C 186.592 300.691 175.213 289.312 161.107 289.312 C 147.001 289.312 135.621 300.691 135.622 314.797 C 142.297 314.720 181.273 314.691 186.592 314.797 M 186.905 474.754 C 186.905 489.803 174.765 501.944 159.716 501.944 C 144.667 501.944 132.528 489.803 132.528 474.754 C 132.528 459.706 144.667 447.566 159.716 447.566 C 174.765 447.566 186.905 459.706 186.905 474.754 M 197.969 473.282 C 197.218 451.245 181.312 435.977 160.664 435.977 C 140.015 435.977 125.132 448.517 123.358 473.282 C 122.215 489.229 123.261 548.469 123.261 548.476 C 123.268 548.476 196.354 548.645 196.361 548.645 C 196.361 548.637 198.536 489.948 197.969 473.282 M 251.412 407.971 C 251.403 407.963 160.361 327.473 160.352 327.465 C 160.343 327.473 69.302 407.963 69.293 407.971 C 69.311 407.971 251.394 407.971 251.412 407.971 M 248.487 707.733 C 248.487 707.703 248.487 411.645 248.487 411.615 C 248.469 411.615 69.830 411.615 69.812 411.615 C 69.812 411.645 69.812 707.703 69.812 707.733 C 69.830 707.733 248.469 707.733 248.487 707.733 M 197.969 624.806 C 197.218 602.769 181.312 587.501 160.664 587.501 C 140.015 587.500 125.132 600.041 123.358 624.806 C 122.215 640.753 123.261 699.993 123.261 700.000 C 123.268 700.000 196.354 700.169 196.361 700.169 C 196.361 700.161 198.536 641.472 197.969 624.806 M 560.351 493.793 C 560.351 493.793 563.414 488.488 565.672 484.578 C 569.504 484.588 577.092 484.588 577.093 484.588 C 577.093 484.587 573.778 478.846 571.392 474.670 C 573.299 471.367 577.093 464.795 577.093 464.794 C 577.092 464.794 569.503 464.794 565.643 464.794 C 563.922 461.775 560.351 455.590 560.351 455.589 C 560.350 455.590 557.287 460.894 555.024 464.794 C 550.200 464.794 543.609 464.794 543.607 464.794 C 543.608 464.795 546.923 470.537 549.323 474.695 C 547.402 478.015 543.608 484.587 543.607 484.588 C 543.609 484.588 550.200 484.588 555.028 484.577 C 556.778 487.607 560.350 493.793 560.351 493.793 M 359.999 111.934 C 360.000 111.932 368.137 97.839 374.135 87.451 C 384.316 87.476 404.478 87.476 404.481 87.476 C 404.479 87.473 395.673 72.219 389.334 61.126 C 394.399 52.352 404.479 34.891 404.481 34.889 C 404.478 34.889 384.316 34.889 374.059 34.889 C 369.489 26.866 360.000 10.432 359.999 10.429 C 359.998 10.432 351.860 24.525 345.847 34.889 C 333.031 34.889 315.519 34.889 315.516 34.889 C 315.518 34.891 324.324 50.145 330.702 61.192 C 325.599 70.012 315.518 87.473 315.516 87.476 C 315.519 87.476 333.031 87.476 345.859 87.447 C 350.508 95.499 359.998 111.932 359.999 111.934 M 346.801 129.666 C 346.801 137.144 352.834 143.177 360.312 143.177 C 367.790 143.177 373.822 137.144 373.822 129.666 C 373.822 122.188 367.790 116.155 360.312 116.155 C 352.834 116.155 346.801 122.188 346.801 129.666 M 535.600 345.632 C 535.600 345.629 535.600 316.032 535.600 316.029 C 535.604 316.029 582.891 316.029 582.896 316.029 C 582.896 316.032 582.896 345.629 582.896 345.632 C 582.893 345.630 559.473 324.167 559.470 324.164 C 559.468 324.167 535.602 345.630 535.600 345.632 M 533.441 314.797 C 533.441 300.691 544.820 289.312 558.926 289.312 C 573.032 289.312 584.411 300.691 584.411 314.797 C 577.736 314.720 538.760 314.691 533.441 314.797 M 533.128 474.754 C 533.128 489.803 545.268 501.944 560.317 501.944 C 575.366 501.944 587.505 489.803 587.505 474.754 C 587.505 459.706 575.366 447.566 560.317 447.566 C 545.268 447.566 533.128 459.706 533.128 474.754 M 522.064 473.282 C 522.815 451.245 538.721 435.977 559.369 435.977 C 580.017 435.977 594.901 448.517 596.675 473.282 C 597.817 489.229 596.772 548.469 596.772 548.476 C 596.764 548.476 523.679 548.645 523.672 548.645 C 523.672 548.637 521.496 489.948 522.064 473.282 M 468.621 407.971 C 468.630 407.963 559.671 327.473 559.680 327.465 C 559.690 327.473 650.731 407.963 650.740 407.971 C 650.722 407.971 468.639 407.971 468.621 407.971 M 471.546 707.733 C 471.546 707.703 471.546 411.645 471.546 411.615 C 471.563 411.615 650.203 411.615 650.221 411.615 C 650.221 411.645 650.221 707.703 650.221 707.733 C 650.203 707.733 471.563 707.733 471.546 707.733 M 290.243 405.561 C 290.243 444.344 321.529 475.631 360.312 475.630 C 399.095 475.630 430.381 444.344 430.380 405.561 C 430.380 366.779 399.094 335.493 360.312 335.493 C 321.529 335.493 290.243 366.779 290.243 405.561 M 522.064 624.806 C 522.815 602.769 538.721 587.501 559.369 587.501 C 580.018 587.500 594.901 600.041 596.675 624.806 C 597.817 640.753 596.772 699.993 596.772 700.000 C 596.764 700.000 523.679 700.169 523.672 700.169 C 523.672 700.161 521.496 641.472 522.064 624.806 M 308.826 593.560 C 310.068 563.018 331.917 541.845 360.542 541.845 C 389.166 541.845 409.954 559.219 412.258 593.560 C 413.775 616.188 411.178 700.205 411.178 700.216 C 411.168 700.216 309.850 700.449 309.840 700.449 C 309.840 700.439 307.865 617.188 308.826 593.560 M 256.522 709.226 C 256.522 709.183 256.522 275.974 256.522 275.930 C 256.543 275.930 464.541 275.930 464.562 275.930 C 464.562 275.974 464.562 709.183 464.562 709.226 C 464.541 709.226 256.543 709.226 256.522 709.226 M 245.761 271.889 C 245.761 271.887 245.761 254.114 245.761 254.112 C 245.784 254.112 475.299 254.112 475.322 254.112 C 475.322 254.114 475.322 271.887 475.322 271.889 C 475.299 271.889 245.784 271.889 245.761 271.889 M 258.305 249.871 C 258.305 193.284 303.955 147.635 360.542 147.635 C 417.129 147.635 462.778 193.284 462.779 249.871 C 436.001 249.559 279.643 249.444 258.305 249.871 Z"/>
</g>
</svg>
