<?xml version="1.0" encoding="utf-8"?>
<!-- Generator: Moho 12.5 build 22414 -->
<!DOCTYPE svg PUBLIC "-//W3C//DTD SVG 1.1//EN" "http://www.w3.org/Graphics/SVG/1.1/DTD/svg11.dtd">
<svg version="1.1" id="Frame_0" xmlns="http://www.w3.org/2000/svg" xmlns:xlink="http://www.w3.org/1999/xlink" width="720px" height="720px">
<g id="tail_eagle">
<g id="tail_eagle">
<path fill="#ffffff" fill-rule="evenodd" stroke="none" d="M 143.690 558.032 C 132.546 564.620 61.862 580.117 61.855 580.152 C 61.882 580.128 39.961 511.166 40.094 498.221 C 41.061 404.428 206.662 224.336 327.903 37.892 C 344.221 12.798 412.016 51.937 398.441 78.618 C 297.595 276.837 224.433 510.299 143.690 558.032 M 576.310 558.032 C 587.454 564.620 658.138 580.117 658.145 580.152 C 658.118 580.128 680.039 511.166 679.906 498.221 C 678.939 404.428 513.338 224.336 392.097 37.892 C 375.779 12.798 307.984 51.937 321.558 78.618 C 422.405 276.837 495.567 510.299 576.310 558.032 Z"/>
<path fill="none" stroke="#000000" stroke-width="3" stroke-linejoin="round" d="M 61.855 580.152 C 161.399 407.364 260.944 234.575 360.488 61.787 M 143.690 558.032 C 132.546 564.620 61.862 580.117 61.855 580.152 C 61.882 580.128 39.961 511.166 40.094 498.221 C 41.061 404.428 206.662 224.336 327.903 37.892 C 344.221 12.798 412.016 51.937 398.441 78.618 C 297.595 276.837 224.433 510.299 143.690 558.032 M 658.145 580.152 C 558.601 407.364 459.056 234.575 359.512 61.787 M 576.310 558.032 C 587.454 564.620 658.138 580.117 658.145 580.152 C 658.118 580.128 680.039 511.166 679.906 498.221 C 678.939 404.428 513.338 224.336 392.097 37.892 C 375.779 12.798 307.984 51.937 321.558 78.618 C 422.405 276.837 495.567 510.299 576.310 558.032 "/>
<path fill="#ffffff" fill-rule="evenodd" stroke="none" d="M 279.296 598.094 C 270.237 607.342 205.973 640.605 205.975 640.641 C 205.995 640.611 166.972 579.672 163.750 567.133 C 140.409 476.287 253.756 259.470 322.610 48.000 C 331.878 19.537 407.492 39.796 401.286 69.081 C 355.179 286.647 344.934 531.090 279.296 598.094 M 440.704 598.094 C 449.763 607.342 514.027 640.605 514.025 640.641 C 514.005 640.611 553.028 579.672 556.250 567.133 C 579.591 476.287 466.244 259.470 397.390 48.000 C 388.122 19.537 312.508 39.796 318.714 69.081 C 364.821 286.647 375.066 531.090 440.704 598.094 Z"/>
<path fill="none" stroke="#000000" stroke-width="3" stroke-linejoin="round" d="M 205.975 640.641 C 257.407 447.976 308.838 255.311 360.270 62.646 M 279.296 598.094 C 270.237 607.342 205.973 640.605 205.975 640.641 C 205.995 640.611 166.972 579.672 163.750 567.133 C 140.409 476.287 253.756 259.470 322.610 48.000 C 331.878 19.537 407.492 39.796 401.286 69.081 C 355.179 286.647 344.934 531.090 279.296 598.094 M 514.025 640.641 C 462.593 447.976 411.162 255.311 359.730 62.646 M 440.704 598.094 C 449.763 607.342 514.027 640.605 514.025 640.641 C 514.005 640.611 553.028 579.672 556.250 567.133 C 579.591 476.287 466.244 259.470 397.390 48.000 C 388.122 19.537 312.508 39.796 318.714 69.081 C 364.821 286.647 375.066 531.090 440.704 598.094 "/>
<path fill="#ffffff" fill-rule="evenodd" stroke="none" d="M 360.000 678.931 C 359.988 678.894 416.745 627.129 423.493 615.158 C 472.388 528.417 415.734 274.953 403.233 39.195 C 401.550 7.463 318.450 7.461 316.767 39.195 C 304.268 274.953 247.612 528.418 296.507 615.158 C 303.255 627.129 360.012 678.894 360.000 678.931 Z"/>
<path fill="none" stroke="#000000" stroke-width="3" stroke-linejoin="round" d="M 360.000 678.931 C 360.198 467.243 360.395 255.554 360.593 43.866 M 296.507 615.158 C 303.255 627.129 360.012 678.894 360.000 678.931 C 359.988 678.894 416.745 627.129 423.493 615.158 C 472.388 528.417 415.734 274.953 403.233 39.195 C 401.550 7.463 318.450 7.461 316.767 39.195 C 304.268 274.953 247.612 528.418 296.507 615.158 "/>
</g>
<g id="specs_2">
<path fill="#ff0000" fill-rule="evenodd" stroke="none" d="M 360.000 71.341 C 360.001 71.338 372.432 36.532 372.433 36.529 C 372.432 36.530 360.001 48.096 360.000 48.097 C 359.999 48.096 347.568 36.530 347.567 36.529 C 347.568 36.532 359.999 71.338 360.000 71.341 Z"/>
<path fill="#0000ff" fill-rule="evenodd" stroke="none" d="M 360.000 7.230 C 360.001 7.232 367.221 27.450 367.222 27.452 C 367.221 27.451 360.001 20.733 360.000 20.733 C 359.999 20.733 352.779 27.451 352.778 27.452 C 352.779 27.450 359.999 7.232 360.000 7.230 Z"/>
<path fill="#00ff00" fill-rule="evenodd" stroke="none" d="M 127.622 303.027 C 127.624 303.026 148.311 295.519 148.313 295.518 C 148.312 295.519 141.463 302.956 141.462 302.957 C 141.463 302.958 148.387 310.324 148.388 310.325 C 148.385 310.324 127.624 303.027 127.622 303.027 Z"/>
<path fill="#ffff00" fill-rule="evenodd" stroke="none" d="M 55.525 581.764 C 55.526 581.762 66.786 557.246 66.787 557.243 C 66.787 557.245 67.380 569.624 67.380 569.625 C 67.381 569.625 79.771 569.926 79.772 569.926 C 79.770 569.927 55.527 581.763 55.525 581.764 Z"/>
<path fill="#ffff00" fill-rule="evenodd" stroke="none" d="M 664.475 581.464 C 664.474 581.461 652.725 557.176 652.723 557.174 C 652.723 557.175 652.380 569.564 652.380 569.565 C 652.378 569.565 639.996 570.114 639.995 570.114 C 639.997 570.115 664.473 581.463 664.475 581.464 Z"/>
<path fill="#00ff00" fill-rule="evenodd" stroke="none" d="M 592.378 303.027 C 592.376 303.026 571.689 295.519 571.687 295.518 C 571.688 295.519 578.537 302.956 578.538 302.957 C 578.537 302.958 571.613 310.324 571.612 310.325 C 571.615 310.324 592.376 303.027 592.378 303.027 Z"/>
<path fill="#00ffff" fill-rule="evenodd" stroke="none" d="M 458.515 105.136 C 458.514 105.139 449.916 129.415 449.915 129.417 C 449.915 129.416 448.287 117.697 448.287 117.696 C 448.286 117.696 436.481 118.476 436.479 118.476 C 436.482 118.475 458.512 105.138 458.515 105.136 Z"/>
<path fill="#00ffff" fill-rule="evenodd" stroke="none" d="M 261.486 105.941 C 261.487 105.944 271.684 129.592 271.685 129.595 C 271.685 129.593 272.528 117.792 272.528 117.791 C 272.529 117.791 284.359 117.782 284.361 117.782 C 284.358 117.781 261.488 105.942 261.486 105.941 Z"/>
<path fill="#be0027" fill-rule="evenodd" stroke="none" d="M 360.000 673.625 C 360.001 673.621 372.432 638.815 372.433 638.812 C 372.432 638.813 360.001 650.379 360.000 650.380 C 359.999 650.379 347.568 638.813 347.567 638.812 C 347.568 638.815 359.999 673.621 360.000 673.625 Z"/>
</g>
</g>
</svg>
