<?xml version="1.0" encoding="utf-8"?>
<!-- Generator: Moho 12.5 build 22414 -->
<!DOCTYPE svg PUBLIC "-//W3C//DTD SVG 1.1//EN" "http://www.w3.org/Graphics/SVG/1.1/DTD/svg11.dtd">
<svg version="1.1" id="Frame_0" xmlns="http://www.w3.org/2000/svg" xmlns:xlink="http://www.w3.org/1999/xlink" width="720px" height="720px">
<g id="tail_eagle">
<g id="longfeathers">
<path fill="#ffffff" fill-rule="evenodd" stroke="#000000" stroke-width="3" stroke-linejoin="round" d="M 380.543 46.693 C 380.554 46.718 501.257 316.078 561.096 421.687 C 583.093 460.510 629.928 517.154 696.396 509.165 C 678.439 546.578 574.850 585.965 493.064 459.721 C 462.992 413.301 360.966 33.013 360.956 32.983 C 360.958 32.985 380.541 46.691 380.543 46.693 Z"/>
<path fill="#ffffff" fill-rule="evenodd" stroke="#000000" stroke-width="3" stroke-linejoin="round" d="M 379.995 72.797 C 380.002 72.824 458.776 366.572 502.392 483.788 C 518.426 526.878 556.864 591.115 625.740 594.891 C 601.427 628.810 494.439 645.244 434.920 506.181 C 412.688 454.237 362.314 55.680 362.308 55.649 C 362.310 55.651 379.993 72.795 379.995 72.797 Z"/>
<path fill="#ffffff" fill-rule="evenodd" stroke="#000000" stroke-width="3" stroke-linejoin="round" d="M 378.342 59.212 C 378.345 59.245 414.438 404.572 436.625 545.752 C 444.107 593.361 460.502 657.504 536.194 688.459 C 429.225 702.664 375.018 674.660 359.770 528.172 C 349.890 433.260 362.686 37.569 362.686 37.535 C 362.688 37.537 378.341 59.210 378.342 59.212 Z"/>
<path fill="#ffffff" fill-rule="evenodd" stroke="#000000" stroke-width="3" stroke-linejoin="round" d="M 339.457 46.693 C 339.446 46.718 218.743 316.078 158.904 421.687 C 136.907 460.510 90.072 517.154 23.604 509.165 C 41.561 546.578 145.151 585.965 226.937 459.721 C 257.009 413.301 359.034 33.013 359.044 32.983 C 359.042 32.985 339.459 46.691 339.457 46.693 Z"/>
<path fill="#ffffff" fill-rule="evenodd" stroke="#000000" stroke-width="3" stroke-linejoin="round" d="M 340.006 72.797 C 339.999 72.824 261.225 366.572 217.608 483.788 C 201.574 526.878 163.136 591.115 94.260 594.891 C 118.573 628.810 225.562 645.244 285.080 506.181 C 307.312 454.237 357.687 55.680 357.692 55.649 C 357.690 55.651 340.007 72.795 340.006 72.797 Z"/>
<path fill="#ffffff" fill-rule="evenodd" stroke="#000000" stroke-width="3" stroke-linejoin="round" d="M 341.658 59.212 C 341.656 59.245 305.562 404.572 283.376 545.752 C 275.894 593.361 259.498 657.504 183.807 688.459 C 290.775 702.664 344.982 674.660 360.230 528.172 C 370.110 433.260 357.315 37.569 357.314 37.535 C 357.313 37.537 341.659 59.210 341.658 59.212 Z"/>
</g>
<g id="tail_eagle_2">
<path fill="#ffffff" fill-rule="evenodd" stroke="none" d="M 360.000 416.517 C 371.791 392.934 391.284 388.667 401.668 364.431 C 410.842 343.020 404.195 322.452 401.668 312.346 C 391.251 270.678 328.748 270.679 318.332 312.346 C 315.805 322.452 309.158 343.020 318.332 364.431 C 328.716 388.667 348.209 392.934 360.000 416.517 Z"/>
<path fill="none" stroke="#000000" stroke-width="3" stroke-linejoin="round" d="M 360.000 291.512 C 360.000 329.708 360.000 367.904 360.000 406.100 M 318.332 364.431 C 328.716 388.667 348.209 392.934 360.000 416.517 C 371.791 392.934 391.284 388.667 401.668 364.431 C 410.842 343.020 404.195 322.452 401.668 312.346 C 391.251 270.678 328.748 270.679 318.332 312.346 C 315.805 322.452 309.158 343.020 318.332 364.431 "/>
<path fill="#ffffff" fill-rule="evenodd" stroke="none" d="M 298.102 374.577 C 315.596 354.850 335.529 355.773 351.832 335.051 C 366.235 316.744 365.137 295.156 365.313 284.740 C 366.035 241.795 305.661 225.620 284.815 263.171 C 279.759 272.279 268.015 290.426 271.334 313.482 C 275.092 339.579 292.816 348.746 298.102 374.577 Z"/>
<path fill="none" stroke="#000000" stroke-width="3" stroke-linejoin="round" d="M 330.456 253.832 C 320.570 290.726 310.685 327.621 300.799 364.515 M 271.334 313.482 C 275.092 339.579 292.816 348.746 298.102 374.577 C 315.596 354.850 335.529 355.773 351.832 335.051 C 366.235 316.744 365.137 295.156 365.313 284.740 C 366.035 241.795 305.661 225.620 284.815 263.171 C 279.759 272.279 268.015 290.426 271.334 313.482 "/>
<path fill="#ffffff" fill-rule="evenodd" stroke="none" d="M 421.898 374.577 C 427.184 348.746 444.908 339.579 448.666 313.482 C 451.985 290.426 440.241 272.280 435.185 263.172 C 414.338 225.620 353.965 241.797 354.687 284.741 C 354.863 295.156 353.766 316.744 368.168 335.051 C 384.471 355.773 404.404 354.850 421.898 374.577 Z"/>
<path fill="none" stroke="#000000" stroke-width="3" stroke-linejoin="round" d="M 389.544 253.832 C 399.430 290.726 409.315 327.621 419.201 364.515 M 368.168 335.051 C 384.471 355.773 404.404 354.850 421.898 374.577 C 427.184 348.746 444.908 339.579 448.666 313.482 C 451.985 290.426 440.241 272.280 435.185 263.172 C 414.338 225.620 353.965 241.797 354.687 284.741 C 354.863 295.156 353.766 316.744 368.168 335.051 "/>
<path fill="#ffffff" fill-rule="evenodd" stroke="none" d="M 360.000 297.638 C 371.792 274.055 391.285 269.788 401.669 245.552 C 410.842 224.141 404.195 203.573 401.669 193.467 C 391.251 151.798 328.748 151.799 318.332 193.467 C 315.805 203.572 309.158 224.141 318.332 245.552 C 328.716 269.788 348.209 274.055 360.000 297.638 Z"/>
<path fill="none" stroke="#000000" stroke-width="3" stroke-linejoin="round" d="M 360.000 166.468 C 360.000 206.719 360.000 246.970 360.000 287.220 M 318.332 245.552 C 328.716 269.788 348.209 274.055 360.000 297.638 C 371.792 274.055 391.285 269.788 401.669 245.552 C 410.842 224.141 404.195 203.573 401.669 193.467 C 391.251 151.798 328.748 151.799 318.332 193.467 C 315.805 203.572 309.158 224.141 318.332 245.552 "/>
<path fill="#ffffff" fill-rule="evenodd" stroke="none" d="M 458.093 295.508 C 463.379 269.677 481.104 260.510 484.862 234.412 C 488.181 211.357 476.436 193.210 471.380 184.103 C 450.533 146.550 390.160 162.728 390.883 205.671 C 391.058 216.087 389.961 237.675 404.364 255.982 C 420.667 276.704 440.600 275.780 458.093 295.508 Z"/>
<path fill="none" stroke="#000000" stroke-width="3" stroke-linejoin="round" d="M 425.263 174.762 C 435.149 211.657 445.035 248.551 454.921 285.446 M 404.364 255.982 C 420.667 276.704 440.600 275.780 458.093 295.508 C 463.379 269.677 481.104 260.510 484.862 234.412 C 488.181 211.357 476.436 193.210 471.380 184.103 C 450.533 146.550 390.160 162.728 390.883 205.671 C 391.058 216.087 389.961 237.675 404.364 255.982 "/>
<path fill="#ffffff" fill-rule="evenodd" stroke="none" d="M 261.907 295.508 C 279.400 275.780 299.333 276.704 315.636 255.982 C 330.039 237.675 328.942 216.087 329.117 205.671 C 329.840 162.727 269.466 146.551 248.620 184.103 C 243.564 193.210 231.819 211.357 235.139 234.412 C 238.896 260.510 256.621 269.677 261.907 295.508 Z"/>
<path fill="none" stroke="#000000" stroke-width="3" stroke-linejoin="round" d="M 294.261 174.762 C 284.375 211.657 274.489 248.551 264.603 285.446 M 235.139 234.412 C 238.896 260.510 256.621 269.677 261.907 295.508 C 279.400 275.780 299.333 276.704 315.636 255.982 C 330.039 237.675 328.942 216.087 329.117 205.671 C 329.840 162.727 269.466 146.551 248.620 184.103 C 243.564 193.210 231.819 211.357 235.139 234.412 "/>
<path fill="#ffffff" fill-rule="evenodd" stroke="none" d="M 298.102 213.708 C 315.596 193.980 335.529 194.904 351.832 174.182 C 366.235 155.875 365.138 134.286 365.313 123.871 C 366.035 80.926 305.661 64.750 284.815 102.302 C 279.759 111.410 268.015 129.557 271.334 152.612 C 275.092 178.710 292.816 187.877 298.102 213.708 Z"/>
<path fill="none" stroke="#000000" stroke-width="3" stroke-linejoin="round" d="M 330.456 92.962 C 320.570 129.857 310.685 166.751 300.799 203.646 M 271.334 152.612 C 275.092 178.710 292.816 187.877 298.102 213.708 C 315.596 193.980 335.529 194.904 351.832 174.182 C 366.235 155.875 365.138 134.286 365.313 123.871 C 366.035 80.926 305.661 64.750 284.815 102.302 C 279.759 111.410 268.015 129.557 271.334 152.612 "/>
<path fill="#ffffff" fill-rule="evenodd" stroke="none" d="M 421.898 213.708 C 427.184 187.877 444.908 178.710 448.666 152.612 C 451.985 129.557 440.241 111.410 435.185 102.302 C 414.338 64.750 353.965 80.927 354.687 123.871 C 354.863 134.286 353.766 155.875 368.168 174.182 C 384.471 194.904 404.404 193.980 421.898 213.708 Z"/>
<path fill="none" stroke="#000000" stroke-width="3" stroke-linejoin="round" d="M 389.544 92.962 C 399.430 129.857 409.315 166.751 419.201 203.646 M 368.168 174.182 C 384.471 194.904 404.404 193.980 421.898 213.708 C 427.184 187.877 444.908 178.710 448.666 152.612 C 451.985 129.557 440.241 111.410 435.185 102.302 C 414.338 64.750 353.965 80.927 354.687 123.871 C 354.863 134.286 353.766 155.875 368.168 174.182 "/>
<path fill="#ffffff" fill-rule="evenodd" stroke="#000000" stroke-width="3" stroke-linejoin="round" d="M 360.000 29.351 C 391.578 29.351 417.051 54.825 417.051 86.403 C 417.051 117.980 391.578 143.454 360.000 143.454 C 328.422 143.454 302.949 117.980 302.949 86.403 C 302.949 54.825 328.422 29.351 360.000 29.351 Z"/>
</g>
<g id="specs_2">
<path fill="#ff0000" fill-rule="evenodd" stroke="none" d="M 360.000 109.717 C 360.001 109.713 372.432 74.907 372.433 74.904 C 372.432 74.905 360.001 86.471 360.000 86.472 C 359.999 86.471 347.568 74.905 347.567 74.904 C 347.568 74.907 359.999 109.713 360.000 109.717 Z"/>
<path fill="#0000ff" fill-rule="evenodd" stroke="none" d="M 360.000 17.772 C 360.001 17.774 367.221 37.992 367.222 37.994 C 367.221 37.993 360.001 31.275 360.000 31.274 C 359.999 31.275 352.779 37.993 352.778 37.994 C 352.779 37.992 359.999 17.774 360.000 17.772 Z"/>
<path fill="#00ff00" fill-rule="evenodd" stroke="none" d="M 215.240 302.987 C 215.242 302.987 228.129 298.310 228.130 298.310 C 228.130 298.310 223.863 302.943 223.862 302.944 C 223.863 302.944 228.176 307.533 228.176 307.534 C 228.175 307.533 215.242 302.988 215.240 302.987 Z"/>
<path fill="#ffff00" fill-rule="evenodd" stroke="none" d="M 70.060 536.662 C 70.061 536.660 80.783 513.314 80.784 513.312 C 80.784 513.313 81.348 525.102 81.349 525.103 C 81.350 525.103 93.148 525.389 93.149 525.389 C 93.147 525.390 70.062 536.661 70.060 536.662 Z"/>
<path fill="#ffff00" fill-rule="evenodd" stroke="none" d="M 649.940 536.376 C 649.939 536.374 638.751 513.248 638.750 513.245 C 638.750 513.247 638.422 525.045 638.422 525.046 C 638.421 525.046 626.630 525.568 626.629 525.568 C 626.631 525.569 649.938 536.375 649.940 536.376 Z"/>
<path fill="#00ff00" fill-rule="evenodd" stroke="none" d="M 504.760 302.987 C 504.758 302.987 491.871 298.310 491.870 298.310 C 491.870 298.310 496.137 302.943 496.138 302.944 C 496.137 302.944 491.824 307.533 491.824 307.534 C 491.825 307.533 504.758 302.988 504.760 302.987 Z"/>
<path fill="#00ffff" fill-rule="evenodd" stroke="none" d="M 450.833 98.415 C 450.832 98.417 442.905 120.800 442.904 120.802 C 442.904 120.801 441.402 109.996 441.402 109.995 C 441.401 109.995 430.517 110.714 430.516 110.714 C 430.518 110.713 450.831 98.416 450.833 98.415 Z"/>
<path fill="#00ffff" fill-rule="evenodd" stroke="none" d="M 269.167 99.157 C 269.168 99.159 278.570 120.964 278.571 120.966 C 278.571 120.965 279.349 110.084 279.349 110.083 C 279.350 110.083 290.258 110.074 290.259 110.074 C 290.257 110.073 269.169 99.158 269.167 99.157 Z"/>
<path fill="#be0027" fill-rule="evenodd" stroke="none" d="M 360.000 560.034 C 360.001 560.031 372.432 525.225 372.433 525.221 C 372.432 525.222 360.001 536.788 360.000 536.789 C 359.999 536.788 347.568 525.222 347.567 525.221 C 347.568 525.225 359.999 560.031 360.000 560.034 Z"/>
</g>
</g>
</svg>
