<?xml version="1.0" encoding="utf-8"?>
<!-- Generator: Moho 12.3 build 22017 -->
<!DOCTYPE svg PUBLIC "-//W3C//DTD SVG 1.1//EN" "http://www.w3.org/Graphics/SVG/1.1/DTD/svg11.dtd">
<svg version="1.1" id="Frame_0" xmlns="http://www.w3.org/2000/svg" xmlns:xlink="http://www.w3.org/1999/xlink" width="720px" height="720px">
<g id="tail">
<g id="tail">
<path fill="#000000" fill-rule="evenodd" stroke="#000000" stroke-width="8" stroke-linecap="round" stroke-linejoin="round" d="M 323.325 596.511 C 323.328 596.514 345.922 625.789 360.000 625.789 C 374.078 625.789 396.672 596.514 396.676 596.511 C 396.672 596.521 360.004 697.267 360.000 697.277 C 359.996 697.267 323.328 596.521 323.325 596.511 Z"/>
<path fill="none" stroke="#000000" stroke-width="20" stroke-linecap="round" stroke-linejoin="round" d="M 360.000 43.263 C 360.718 117.065 340.970 143.093 342.736 193.429 C 344.521 244.303 370.802 292.613 370.790 343.438 C 370.779 394.268 343.342 442.441 342.736 493.134 C 341.915 561.827 354.256 581.656 360.000 625.789 "/>
</g>
<g id="specs_2">
<path fill="#ff0000" fill-rule="evenodd" stroke="none" d="M 360.000 33.672 C 367.744 33.672 373.991 39.919 373.991 47.663 C 373.991 55.407 367.744 61.654 360.000 61.654 C 352.256 61.654 346.009 55.407 346.009 47.663 C 346.009 39.919 352.256 33.672 360.000 33.672 Z"/>
<path fill="#ffff00" fill-rule="evenodd" stroke="none" d="M 362.136 634.124 C 362.136 626.380 368.383 620.132 376.127 620.132 C 383.871 620.132 390.118 626.380 390.118 634.124 C 390.118 641.868 383.871 648.115 376.127 648.115 C 368.383 648.115 362.136 641.868 362.136 634.124 M 333.005 636.282 C 333.005 628.538 339.253 622.290 346.997 622.290 C 354.741 622.290 360.988 628.537 360.988 636.282 C 360.988 644.026 354.741 650.273 346.997 650.273 C 339.253 650.273 333.005 644.026 333.005 636.282 Z"/>
<path fill="#00ffff" fill-rule="evenodd" stroke="none" d="M 366.529 57.972 C 374.273 57.972 380.521 64.219 380.521 71.963 C 380.521 79.707 374.273 85.955 366.529 85.955 C 358.785 85.955 352.538 79.707 352.538 71.963 C 352.538 64.219 358.785 57.972 366.529 57.972 Z"/>
<path fill="#00ffff" fill-rule="evenodd" stroke="none" d="M 358.865 57.972 C 366.609 57.972 372.856 64.219 372.856 71.963 C 372.856 79.707 366.609 85.955 358.865 85.955 C 351.121 85.955 344.874 79.707 344.874 71.963 C 344.874 64.219 351.121 57.972 358.865 57.972 Z"/>
<path fill="#0000ff" fill-rule="evenodd" stroke="none" d="M 360.000 4.581 C 367.744 4.581 373.991 10.828 373.991 18.572 C 373.991 26.316 367.744 32.563 360.000 32.563 C 352.256 32.563 346.009 26.316 346.009 18.572 C 346.009 10.828 352.256 4.581 360.000 4.581 Z"/>
<path fill="#00ff00" fill-rule="evenodd" stroke="none" d="M 377.954 346.009 C 385.698 346.009 391.945 352.256 391.945 360.000 C 391.945 367.744 385.698 373.991 377.954 373.991 C 370.210 373.991 363.963 367.744 363.963 360.000 C 363.963 352.256 370.210 346.009 377.954 346.009 Z"/>
<path fill="#00ff00" fill-rule="evenodd" stroke="none" d="M 370.328 346.009 C 378.072 346.009 384.320 352.256 384.320 360.000 C 384.320 367.744 378.072 373.991 370.328 373.991 C 362.584 373.991 356.337 367.744 356.337 360.000 C 356.337 352.256 362.584 346.009 370.328 346.009 Z"/>
</g>
</g>
</svg>
