<?xml version="1.0" encoding="utf-8"?>
<!-- Generator: Moho 12.5 build 22414 -->
<!DOCTYPE svg PUBLIC "-//W3C//DTD SVG 1.1//EN" "http://www.w3.org/Graphics/SVG/1.1/DTD/svg11.dtd">
<svg version="1.1" id="Frame_0" xmlns="http://www.w3.org/2000/svg" xmlns:xlink="http://www.w3.org/1999/xlink" width="720px" height="720px">
<g id="teacup">
<g id="teacup">
<path fill="#ffffff" fill-rule="evenodd" stroke="#000000" stroke-width="4" stroke-linecap="round" stroke-linejoin="round" d="M 204.472 273.448 C 204.461 273.444 144.825 219.053 96.828 231.044 C 50.826 242.535 22.796 276.597 23.434 324.008 C 24.594 410.187 113.152 482.872 268.079 474.057 C 268.076 474.053 282.271 422.077 239.900 431.383 C 157.773 449.419 60.577 392.992 58.386 327.374 C 57.388 297.511 73.076 273.641 102.196 266.946 C 139.191 258.440 173.415 299.738 183.774 315.289 C 203.699 310.699 204.470 273.452 204.472 273.448 Z"/>
<path fill="#ffffff" fill-rule="evenodd" stroke="#000000" stroke-width="4" stroke-linecap="round" stroke-linejoin="round" d="M 173.492 169.968 C 173.517 169.966 253.320 153.082 416.498 154.402 C 591.803 155.820 659.480 169.966 659.504 169.968 C 659.503 169.989 679.789 282.646 649.106 379.247 C 615.715 484.373 548.945 556.924 526.062 571.230 C 514.893 578.213 459.197 590.805 416.498 590.805 C 373.800 590.805 318.103 578.213 306.934 571.230 C 284.052 556.924 217.281 484.373 183.890 379.247 C 153.207 282.646 173.493 169.989 173.492 169.968 Z"/>
<path fill="none" stroke="#000000" stroke-width="4" stroke-linecap="round" stroke-linejoin="round" d="M 193.040 177.342 C 193.062 177.344 217.591 193.761 416.600 195.465 C 626.739 197.265 644.159 177.344 644.182 177.342 "/>
</g>
<g id="specs_2">
<path fill="#ff00ff" fill-rule="evenodd" stroke="none" d="M 257.624 518.874 C 257.656 518.874 575.341 518.874 575.372 518.874 C 575.372 518.843 575.372 201.157 575.372 201.126 C 575.341 201.126 257.656 201.126 257.624 201.126 C 257.624 201.157 257.624 518.843 257.624 518.874 Z"/>
<path fill="#ff0000" fill-rule="evenodd" stroke="none" d="M 416.498 675.689 C 416.500 675.693 430.371 714.534 430.373 714.538 C 430.371 714.537 416.500 701.630 416.498 701.628 C 416.497 701.630 402.625 714.537 402.624 714.538 C 402.625 714.534 416.497 675.693 416.498 675.689 Z"/>
<path fill="#0000ff" fill-rule="evenodd" stroke="none" d="M 416.503 141.916 C 416.504 141.918 423.905 162.643 423.906 162.645 C 423.905 162.644 416.504 155.758 416.503 155.757 C 416.503 155.758 409.101 162.644 409.101 162.645 C 409.101 162.643 416.503 141.918 416.503 141.916 Z"/>
<path fill="#00ff00" fill-rule="evenodd" stroke="none" d="M 9.479 330.330 C 9.481 330.329 32.003 322.157 32.005 322.156 C 32.004 322.157 24.548 330.253 24.547 330.254 C 24.548 330.255 32.085 338.275 32.086 338.275 C 32.084 338.275 9.481 330.331 9.479 330.330 Z"/>
<path fill="#ffff00" fill-rule="evenodd" stroke="none" d="M 299.170 575.731 C 299.171 575.730 303.537 566.223 303.538 566.222 C 303.538 566.223 303.767 571.023 303.767 571.024 C 303.768 571.024 308.572 571.140 308.573 571.140 C 308.572 571.140 299.171 575.730 299.170 575.731 Z"/>
<path fill="#ffff00" fill-rule="evenodd" stroke="none" d="M 535.305 575.614 C 535.305 575.613 530.749 566.196 530.748 566.195 C 530.748 566.196 530.615 571.000 530.615 571.000 C 530.614 571.000 525.813 571.213 525.812 571.213 C 525.813 571.214 535.304 575.614 535.305 575.614 Z"/>
<path fill="#00ff00" fill-rule="evenodd" stroke="none" d="M 676.592 330.330 C 676.590 330.329 654.069 322.157 654.066 322.156 C 654.067 322.157 661.524 330.253 661.524 330.254 C 661.524 330.255 653.986 338.275 653.985 338.275 C 653.987 338.275 676.590 330.331 676.592 330.330 Z"/>
<path fill="#00ffff" fill-rule="evenodd" stroke="none" d="M 663.911 162.254 C 663.910 162.256 656.563 183.000 656.562 183.002 C 656.562 183.001 655.171 172.987 655.171 172.986 C 655.170 172.986 645.083 173.652 645.082 173.652 C 645.083 173.651 663.909 162.255 663.911 162.254 Z"/>
<path fill="#00ffff" fill-rule="evenodd" stroke="none" d="M 169.210 162.941 C 169.211 162.943 177.925 183.151 177.925 183.153 C 177.925 183.152 178.646 173.068 178.646 173.067 C 178.647 173.067 188.756 173.059 188.757 173.059 C 188.755 173.058 169.212 162.942 169.210 162.941 Z"/>
<path fill="#be0027" fill-rule="evenodd" stroke="none" d="M 416.498 612.711 C 416.500 612.707 430.371 573.866 430.373 573.862 C 430.371 573.863 416.500 586.770 416.498 586.771 C 416.497 586.770 402.625 573.863 402.624 573.862 C 402.625 573.866 416.497 612.707 416.498 612.711 Z"/>
</g>
</g>
</svg>
