<?xml version="1.0" encoding="utf-8"?>
<!-- Generator: Moho 13.0.3 build 635 -->
<!DOCTYPE svg PUBLIC "-//W3C//DTD SVG 1.1//EN" "http://www.w3.org/Graphics/SVG/1.1/DTD/svg11.dtd">
<svg version="1.1" id="Frame_0" xmlns="http://www.w3.org/2000/svg" xmlns:xlink="http://www.w3.org/1999/xlink" width="720px" height="720px">
<g id="teardrop">
<g id="teardrop">
<path fill="#ffffff" fill-rule="evenodd" stroke="#000000" stroke-width="5" stroke-linecap="round" stroke-linejoin="round" d="M 359.700 20.382 C 359.712 20.419 377.766 179.092 472.759 391.612 C 562.784 593.017 472.733 707.304 359.700 706.807 C 258.851 706.363 156.966 600.811 246.642 391.612 C 337.581 179.467 359.689 20.419 359.700 20.382 Z"/>
</g>
<g id="specs_2">
<path fill="#ff0000" fill-rule="evenodd" stroke="none" d="M 362.102 691.594 C 369.051 691.595 374.657 697.200 374.657 704.149 C 374.657 711.099 369.051 716.704 362.102 716.704 C 355.152 716.705 349.545 711.099 349.545 704.149 C 349.545 697.200 355.152 691.594 362.102 691.594 Z"/>
<path fill="#ffff00" fill-rule="evenodd" stroke="none" d="M 452.017 666.242 C 452.018 659.293 457.625 653.687 464.574 653.687 C 471.524 653.688 477.129 659.293 477.129 666.242 C 477.130 673.192 471.524 678.799 464.574 678.799 C 457.624 678.800 452.017 673.193 452.017 666.242 M 249.353 669.092 C 249.353 662.143 254.959 656.537 261.908 656.537 C 268.857 656.537 274.463 662.143 274.463 669.092 C 274.463 676.042 268.858 681.650 261.908 681.650 C 254.958 681.650 249.353 676.042 249.353 669.092 Z"/>
<path fill="#00ff00" fill-rule="evenodd" stroke="none" d="M 225.195 512.443 C 225.195 505.494 219.587 499.888 212.637 499.888 C 205.688 499.888 200.080 505.494 200.080 512.443 C 200.080 519.393 205.688 524.999 212.637 524.999 C 219.587 524.999 225.195 519.393 225.195 512.443 M 495.674 512.443 C 495.674 505.494 501.282 499.888 508.232 499.888 C 515.181 499.889 520.787 505.494 520.787 512.443 C 520.787 519.393 515.181 524.998 508.232 524.999 C 501.282 524.999 495.674 519.393 495.674 512.443 Z"/>
<path fill="#00ffff" fill-rule="evenodd" stroke="none" d="M 307.301 264.158 C 307.301 257.209 301.694 251.603 294.744 251.603 C 287.795 251.604 282.189 257.209 282.189 264.158 C 282.189 271.108 287.795 276.713 294.744 276.713 C 301.694 276.714 307.301 271.108 307.301 264.158 M 410.717 264.158 C 410.717 257.209 416.324 251.603 423.274 251.603 C 430.223 251.604 435.829 257.209 435.829 264.158 C 435.829 271.108 430.223 276.713 423.274 276.713 C 416.324 276.714 410.717 271.108 410.717 264.158 Z"/>
<path fill="#0000ff" fill-rule="evenodd" stroke="none" d="M 359.252 10.260 C 366.201 10.260 371.807 15.866 371.807 22.815 C 371.807 29.764 366.201 35.370 359.252 35.370 C 352.302 35.371 346.695 29.765 346.695 22.815 C 346.695 15.865 352.302 10.260 359.252 10.260 Z"/>
<path fill="#ff00ff" fill-rule="evenodd" stroke="none" d="M 260.354 366.401 C 260.374 366.401 462.920 366.401 462.940 366.401 C 462.940 366.430 462.940 655.474 462.940 655.502 C 462.920 655.502 260.374 655.502 260.354 655.502 C 260.354 655.474 260.354 366.430 260.354 366.401 Z"/>
</g>
</g>
</svg>
