<?xml version="1.0" encoding="utf-8"?>
<!-- Generator: Moho 12.5 build 22414 -->
<!DOCTYPE svg PUBLIC "-//W3C//DTD SVG 1.1//EN" "http://www.w3.org/Graphics/SVG/1.1/DTD/svg11.dtd">
<svg version="1.1" id="Frame_0" xmlns="http://www.w3.org/2000/svg" xmlns:xlink="http://www.w3.org/1999/xlink" width="720px" height="720px">
<g id="teardrop">
<g id="teardrop">
<path fill="#ffffff" fill-rule="evenodd" stroke="#000000" stroke-width="4" stroke-linecap="round" stroke-linejoin="round" d="M 360.000 56.483 C 360.011 56.518 376.847 204.487 465.432 402.672 C 549.385 590.491 465.408 697.069 360.000 696.606 C 265.953 696.192 170.941 597.759 254.568 402.672 C 339.372 204.838 359.989 56.518 360.000 56.483 Z"/>
</g>
<g id="specs">
<path fill="#ff00ff" fill-rule="evenodd" stroke="none" d="M 253.446 633.463 C 253.468 633.463 466.532 633.463 466.554 633.463 C 466.554 633.441 466.554 420.377 466.554 420.355 C 466.532 420.355 253.468 420.355 253.446 420.355 C 253.446 420.377 253.446 633.441 253.446 633.463 Z"/>
<path fill="#ff0000" fill-rule="evenodd" stroke="none" d="M 360.000 52.288 C 359.999 52.285 347.568 17.479 347.567 17.476 C 347.568 17.477 359.999 29.043 360.000 29.044 C 360.001 29.043 372.432 17.477 372.433 17.476 C 372.432 17.479 360.001 52.285 360.000 52.288 Z"/>
<path fill="#0000ff" fill-rule="evenodd" stroke="none" d="M 360.000 710.111 C 359.999 710.109 352.779 689.891 352.778 689.888 C 352.779 689.889 359.999 696.607 360.000 696.608 C 360.001 696.607 367.221 689.889 367.222 689.888 C 367.221 689.891 360.001 710.109 360.000 710.111 Z"/>
<path fill="#00ff00" fill-rule="evenodd" stroke="none" d="M 208.233 544.716 C 208.235 544.716 228.417 537.393 228.419 537.392 C 228.418 537.393 221.736 544.648 221.736 544.648 C 221.736 544.649 228.491 551.836 228.491 551.836 C 228.489 551.836 208.235 544.717 208.233 544.716 Z"/>
<path fill="#ffff00" fill-rule="evenodd" stroke="none" d="M 252.788 663.992 C 252.789 663.990 261.750 644.481 261.751 644.479 C 261.751 644.480 262.223 654.331 262.223 654.332 C 262.224 654.332 272.083 654.571 272.084 654.571 C 272.082 654.572 252.790 663.991 252.788 663.992 Z"/>
<path fill="#ffff00" fill-rule="evenodd" stroke="none" d="M 470.778 663.753 C 470.777 663.751 461.427 644.425 461.426 644.423 C 461.426 644.424 461.152 654.283 461.152 654.284 C 461.151 654.284 451.297 654.721 451.297 654.721 C 451.298 654.722 470.776 663.752 470.778 663.753 Z"/>
<path fill="#00ff00" fill-rule="evenodd" stroke="none" d="M 513.933 544.716 C 513.931 544.716 493.750 537.393 493.747 537.392 C 493.748 537.393 500.430 544.648 500.431 544.648 C 500.430 544.649 493.675 551.836 493.675 551.836 C 493.677 551.836 513.931 544.717 513.933 544.716 Z"/>
<path fill="#00ffff" fill-rule="evenodd" stroke="none" d="M 464.698 372.000 C 464.697 372.002 457.530 392.239 457.529 392.241 C 457.529 392.240 456.172 382.471 456.171 382.470 C 456.170 382.470 446.329 383.120 446.328 383.120 C 446.330 383.119 464.696 372.001 464.698 372.000 Z"/>
<path fill="#00ffff" fill-rule="evenodd" stroke="none" d="M 254.294 372.671 C 254.295 372.673 262.795 392.387 262.796 392.389 C 262.796 392.388 263.499 382.550 263.499 382.549 C 263.500 382.549 273.363 382.541 273.364 382.541 C 273.362 382.540 254.296 372.672 254.294 372.671 Z"/>
</g>
</g>
</svg>
