<?xml version="1.0" encoding="utf-8"?>
<!-- Generator: Moho 12.5 build 22414 -->
<!DOCTYPE svg PUBLIC "-//W3C//DTD SVG 1.1//EN" "http://www.w3.org/Graphics/SVG/1.1/DTD/svg11.dtd">
<svg version="1.1" id="Frame_0" xmlns="http://www.w3.org/2000/svg" xmlns:xlink="http://www.w3.org/1999/xlink" width="720px" height="720px">
<g id="thistle">
<g id="thistle">
<path fill="#ffffff" fill-rule="evenodd" stroke="#000000" stroke-width="4" stroke-linejoin="round" d="M 613.685 680.782 C 656.633 530.561 417.794 519.220 372.033 583.472 C 348.382 616.680 411.941 425.141 590.979 461.835 C 680.544 480.192 697.091 571.974 650.799 640.950 C 649.964 642.195 612.883 683.588 613.685 680.782 M 592.601 426.155 C 377.545 465.743 368.641 573.233 367.167 560.766 C 353.215 442.738 397.390 335.596 535.837 323.980 C 730.831 307.619 694.816 116.859 707.751 262.350 C 709.806 285.462 717.643 403.137 592.601 426.155 Z"/>
<path fill="#ffffff" fill-rule="evenodd" stroke="#000000" stroke-width="4" stroke-linejoin="round" d="M 106.315 680.782 C 63.367 530.561 302.206 519.220 347.967 583.472 C 371.618 616.680 308.059 425.141 129.021 461.835 C 39.456 480.192 22.909 571.974 69.201 640.950 C 70.037 642.195 107.118 683.588 106.315 680.782 M 127.399 426.155 C 342.455 465.743 351.359 573.233 352.833 560.766 C 366.785 442.738 322.610 335.596 184.163 323.980 C -10.831 307.619 25.184 116.859 12.249 262.350 C 10.194 285.462 2.357 403.137 127.399 426.155 Z"/>
<path fill="#ffffff" fill-rule="evenodd" stroke="#000000" stroke-width="4" stroke-linejoin="round" d="M 219.653 234.337 C 209.578 356.651 349.687 309.227 360.562 486.162 C 370.503 308.907 510.719 356.392 500.347 234.337 C 493.163 149.795 385.209 145.658 359.598 39.218 C 334.914 145.244 226.636 149.573 219.653 234.337 Z"/>
</g>
<g id="specs_2">
<path fill="#ff00ff" fill-rule="evenodd" stroke="none" d="M 273.885 329.104 C 273.902 329.104 446.098 329.104 446.115 329.104 C 446.115 329.087 446.115 156.891 446.115 156.874 C 446.098 156.874 273.902 156.874 273.885 156.874 C 273.885 156.891 273.885 329.087 273.885 329.104 Z"/>
<path fill="#ff0000" fill-rule="evenodd" stroke="none" d="M 360.000 662.331 C 360.001 662.335 372.416 697.097 372.417 697.101 C 372.416 697.100 360.001 685.548 360.000 685.547 C 359.999 685.548 347.584 697.100 347.583 697.101 C 347.584 697.097 359.999 662.335 360.000 662.331 Z"/>
<path fill="#0000ff" fill-rule="evenodd" stroke="none" d="M 360.000 36.734 C 360.001 36.736 367.212 56.929 367.213 56.931 C 367.212 56.930 360.001 50.220 360.000 50.220 C 359.999 50.220 352.788 56.930 352.787 56.931 C 352.788 56.929 359.999 36.736 360.000 36.734 Z"/>
<path fill="#00ff00" fill-rule="evenodd" stroke="none" d="M 194.918 453.685 C 194.921 453.684 215.077 446.370 215.079 446.369 C 215.078 446.370 208.405 453.616 208.404 453.617 C 208.405 453.617 215.151 460.795 215.152 460.795 C 215.150 460.795 194.921 453.685 194.918 453.685 Z"/>
<path fill="#ffff00" fill-rule="evenodd" stroke="none" d="M 55.860 606.864 C 55.862 606.862 67.109 582.373 67.110 582.371 C 67.110 582.372 67.702 594.738 67.703 594.739 C 67.704 594.739 80.080 595.039 80.081 595.039 C 80.078 595.040 55.863 606.863 55.860 606.864 Z"/>
<path fill="#ffff00" fill-rule="evenodd" stroke="none" d="M 664.140 606.564 C 664.138 606.562 652.402 582.303 652.401 582.301 C 652.401 582.302 652.057 594.678 652.057 594.679 C 652.056 594.679 639.688 595.227 639.686 595.227 C 639.689 595.228 664.137 606.563 664.140 606.564 Z"/>
<path fill="#00ff00" fill-rule="evenodd" stroke="none" d="M 525.082 453.685 C 525.080 453.684 504.923 446.370 504.921 446.369 C 504.922 446.370 511.595 453.616 511.596 453.617 C 511.595 453.617 504.849 460.795 504.848 460.795 C 504.850 460.795 525.080 453.685 525.082 453.685 Z"/>
<path fill="#00ffff" fill-rule="evenodd" stroke="none" d="M 711.564 236.152 C 711.563 236.155 701.123 265.635 701.122 265.638 C 701.122 265.636 699.145 251.406 699.145 251.405 C 699.143 251.405 684.808 252.351 684.806 252.351 C 684.809 252.349 711.562 236.154 711.564 236.152 Z"/>
<path fill="#00ffff" fill-rule="evenodd" stroke="none" d="M 8.547 237.129 C 8.548 237.132 20.931 265.850 20.932 265.853 C 20.932 265.852 21.956 251.521 21.956 251.519 C 21.957 251.519 36.324 251.509 36.325 251.509 C 36.323 251.507 8.550 237.131 8.547 237.129 Z"/>
<path fill="#be0027" fill-rule="evenodd" stroke="none" d="M 360.000 613.851 C 360.001 613.848 372.416 579.085 372.417 579.082 C 372.416 579.083 360.001 590.635 360.000 590.636 C 359.999 590.635 347.584 579.083 347.583 579.082 C 347.584 579.085 359.999 613.848 360.000 613.851 Z"/>
</g>
</g>
</svg>
