<?xml version="1.0" encoding="utf-8"?>
<!-- Generator: Moho 12.5 build 22414 -->
<!DOCTYPE svg PUBLIC "-//W3C//DTD SVG 1.1//EN" "http://www.w3.org/Graphics/SVG/1.1/DTD/svg11.dtd">
<svg version="1.1" id="Frame_0" xmlns="http://www.w3.org/2000/svg" xmlns:xlink="http://www.w3.org/1999/xlink" width="720px" height="720px">
<g id="thistle">
<g id="thistle">
<path fill="#ffffff" fill-rule="evenodd" stroke="#000000" stroke-width="4" stroke-linejoin="round" d="M 614.001 681.181 C 657.003 530.773 417.866 519.418 372.048 583.751 C 348.368 617.000 412.005 425.222 591.267 461.962 C 680.944 480.341 697.511 572.238 651.162 641.300 C 650.325 642.547 613.197 683.991 614.001 681.181 M 592.891 426.237 C 377.567 465.875 368.652 573.499 367.176 561.017 C 353.207 442.841 397.436 335.566 536.056 323.935 C 731.293 307.553 695.233 116.556 708.184 262.229 C 710.241 285.369 718.088 403.190 592.891 426.237 Z"/>
<path fill="#ffffff" fill-rule="evenodd" stroke="#000000" stroke-width="4" stroke-linejoin="round" d="M 105.999 681.181 C 62.997 530.773 302.134 519.418 347.952 583.751 C 371.632 617.000 307.995 425.222 128.733 461.962 C 39.056 480.341 22.489 572.238 68.838 641.300 C 69.675 642.547 106.803 683.991 105.999 681.181 M 127.109 426.237 C 342.433 465.875 351.348 573.499 352.824 561.017 C 366.793 442.841 322.564 335.566 183.944 323.935 C -11.293 307.553 24.767 116.556 11.816 262.229 C 9.759 285.369 1.912 403.190 127.109 426.237 Z"/>
<path fill="#ffffff" fill-rule="evenodd" stroke="#000000" stroke-width="4" stroke-linejoin="round" d="M 219.478 234.181 C 209.390 356.646 349.675 309.164 360.563 486.319 C 370.517 308.844 510.906 356.388 500.522 234.180 C 493.329 149.533 385.241 145.391 359.598 38.819 C 334.883 144.977 226.470 149.311 219.478 234.181 Z"/>
<path fill="none" stroke="#000000" stroke-width="4" stroke-linejoin="round" d="M 352.161 556.792 C 324.764 291.806 40.322 469.434 17.490 211.071 M 351.371 583.628 C 313.998 530.000 224.074 469.149 123.259 518.115 C 69.116 544.412 69.838 613.157 101.947 675.978 M 367.947 556.792 C 395.344 291.806 679.786 469.434 702.617 211.071 M 368.736 583.628 C 406.109 530.000 496.033 469.149 596.849 518.115 C 650.991 544.412 650.269 613.157 618.160 675.978 "/>
</g>
<g id="specs_2">
<path fill="#ff00ff" fill-rule="evenodd" stroke="none" d="M 273.778 329.065 C 273.795 329.065 446.205 329.065 446.223 329.065 C 446.223 329.048 446.223 156.638 446.223 156.621 C 446.205 156.621 273.795 156.621 273.778 156.621 C 273.778 156.638 273.778 329.048 273.778 329.065 Z"/>
<path fill="#ff0000" fill-rule="evenodd" stroke="none" d="M 360.000 662.708 C 360.001 662.711 372.432 697.517 372.433 697.521 C 372.432 697.520 360.001 685.954 360.000 685.952 C 359.999 685.954 347.568 697.520 347.567 697.521 C 347.568 697.517 359.999 662.711 360.000 662.708 Z"/>
<path fill="#0000ff" fill-rule="evenodd" stroke="none" d="M 360.000 36.331 C 360.001 36.333 367.221 56.551 367.222 56.553 C 367.221 56.553 360.001 49.834 360.000 49.834 C 359.999 49.834 352.779 56.553 352.778 56.553 C 352.779 56.551 359.999 36.333 360.000 36.331 Z"/>
<path fill="#00ff00" fill-rule="evenodd" stroke="none" d="M 95.021 444.391 C 95.024 444.390 127.378 432.650 127.381 432.649 C 127.380 432.650 116.669 444.281 116.667 444.282 C 116.669 444.283 127.497 455.804 127.498 455.805 C 127.495 455.804 95.024 444.393 95.021 444.391 Z"/>
<path fill="#ffff00" fill-rule="evenodd" stroke="none" d="M 55.482 607.171 C 55.483 607.169 66.744 582.650 66.745 582.648 C 66.745 582.649 67.338 595.030 67.338 595.031 C 67.340 595.031 79.731 595.332 79.732 595.332 C 79.730 595.333 55.484 607.170 55.482 607.171 Z"/>
<path fill="#ffff00" fill-rule="evenodd" stroke="none" d="M 664.518 606.872 C 664.517 606.869 652.766 582.580 652.765 582.578 C 652.765 582.579 652.421 594.970 652.421 594.971 C 652.419 594.971 640.036 595.520 640.035 595.520 C 640.037 595.521 664.516 606.870 664.518 606.872 Z"/>
<path fill="#00ff00" fill-rule="evenodd" stroke="none" d="M 624.979 444.391 C 624.976 444.390 592.622 432.650 592.619 432.649 C 592.620 432.650 603.331 444.281 603.333 444.282 C 603.331 444.283 592.503 455.804 592.502 455.805 C 592.505 455.804 624.976 444.393 624.979 444.391 Z"/>
<path fill="#00ffff" fill-rule="evenodd" stroke="none" d="M 712.002 235.998 C 712.001 236.001 701.548 265.517 701.547 265.520 C 701.547 265.519 699.567 251.271 699.567 251.269 C 699.566 251.269 685.212 252.217 685.211 252.217 C 685.214 252.215 712.000 236.000 712.002 235.998 Z"/>
<path fill="#00ffff" fill-rule="evenodd" stroke="none" d="M 8.109 236.976 C 8.111 236.979 20.509 265.733 20.510 265.736 C 20.510 265.734 21.535 251.386 21.535 251.384 C 21.536 251.384 35.921 251.373 35.922 251.373 C 35.920 251.372 8.112 236.978 8.109 236.976 Z"/>
<path fill="#be0027" fill-rule="evenodd" stroke="none" d="M 360.000 614.168 C 360.001 614.164 372.432 579.358 372.433 579.355 C 372.432 579.356 360.001 590.922 360.000 590.923 C 359.999 590.922 347.568 579.356 347.567 579.355 C 347.568 579.358 359.999 614.164 360.000 614.168 Z"/>
</g>
</g>
</svg>
