<?xml version="1.0" encoding="utf-8"?>
<!-- Generator: Moho 12.5 build 22414 -->
<!DOCTYPE svg PUBLIC "-//W3C//DTD SVG 1.1//EN" "http://www.w3.org/Graphics/SVG/1.1/DTD/svg11.dtd">
<svg version="1.1" id="Frame_0" xmlns="http://www.w3.org/2000/svg" xmlns:xlink="http://www.w3.org/1999/xlink" width="720px" height="720px">
<g id="thistle_leaf">
<g id="thistle_leaf">
<path fill="#ffffff" fill-rule="evenodd" stroke="#000000" stroke-width="4" stroke-linejoin="round" d="M 466.215 690.628 C 526.917 478.310 189.348 462.281 124.671 553.094 C 91.243 600.029 181.075 329.313 434.123 381.175 C 560.712 407.120 584.099 536.842 518.671 634.331 C 517.490 636.091 465.081 694.595 466.215 690.628 M 436.416 330.745 C 132.461 386.699 119.876 538.623 117.793 521.002 C 98.074 354.184 160.509 202.753 356.187 186.334 C 631.786 163.210 580.883 -106.405 599.165 99.229 C 602.069 131.895 613.146 298.212 436.416 330.745 Z"/>
</g>
<g id="specs_2">
<path fill="#ff0000" fill-rule="evenodd" stroke="none" d="M 110.608 534.933 C 110.604 534.934 75.842 547.349 75.838 547.350 C 75.840 547.349 87.391 534.934 87.392 534.933 C 87.391 534.931 75.840 522.516 75.838 522.515 C 75.842 522.516 110.604 534.931 110.608 534.933 Z"/>
<path fill="#0000ff" fill-rule="evenodd" stroke="none" d="M 116.013 416.352 C 116.014 416.354 123.225 436.547 123.226 436.549 C 123.225 436.548 116.014 429.838 116.013 429.838 C 116.012 429.838 108.801 436.548 108.800 436.549 C 108.801 436.547 116.012 416.354 116.013 416.352 Z"/>
<path fill="#ffff00" fill-rule="evenodd" stroke="none" d="M 469.351 687.876 C 469.353 687.875 485.766 674.077 485.768 674.076 C 485.767 674.076 476.155 676.232 476.154 676.232 C 476.154 676.231 473.311 666.799 473.311 666.798 C 473.310 666.800 469.351 687.874 469.351 687.876 Z"/>
<path fill="#00ff00" fill-rule="evenodd" stroke="none" d="M 376.756 361.002 C 376.754 361.002 356.597 353.687 356.595 353.687 C 356.596 353.687 363.269 360.933 363.270 360.934 C 363.269 360.935 356.523 368.112 356.523 368.113 C 356.525 368.112 376.754 361.003 376.756 361.002 Z"/>
<path fill="#00ffff" fill-rule="evenodd" stroke="none" d="M 591.884 26.262 C 591.884 26.264 596.127 47.282 596.127 47.284 C 596.127 47.283 589.951 39.609 589.950 39.608 C 589.950 39.609 581.850 45.215 581.849 45.215 C 581.851 45.214 591.883 26.263 591.884 26.262 Z"/>
<path fill="#be0027" fill-rule="evenodd" stroke="none" d="M 118.694 591.674 C 118.696 591.670 131.111 556.908 131.112 556.904 C 131.111 556.906 118.696 568.457 118.694 568.458 C 118.693 568.457 106.278 556.906 106.277 556.904 C 106.278 556.908 118.693 591.670 118.694 591.674 Z"/>
</g>
</g>
</svg>
