<?xml version="1.0" encoding="utf-8"?>
<!-- Generator: Moho 13.0.3 build 635 -->
<!DOCTYPE svg PUBLIC "-//W3C//DTD SVG 1.1//EN" "http://www.w3.org/Graphics/SVG/1.1/DTD/svg11.dtd">
<svg version="1.1" id="Frame_0" xmlns="http://www.w3.org/2000/svg" xmlns:xlink="http://www.w3.org/1999/xlink" width="720px" height="720px">
<g id="tower1">
<g id="tower1">
<path fill="#ffffff" fill-rule="evenodd" stroke="#000000" stroke-width="4" stroke-linecap="round" stroke-linejoin="round" d="M 344.858 48.101 C 344.858 56.342 351.506 62.991 359.747 62.991 C 367.988 62.991 374.636 56.342 374.636 48.101 C 374.636 39.860 367.988 33.212 359.747 33.212 C 351.506 33.212 344.858 39.860 344.858 48.101 M 282.529 352.143 C 282.529 394.883 317.007 429.361 359.747 429.361 C 402.486 429.361 436.964 394.883 436.964 352.143 C 436.964 309.404 402.486 274.926 359.747 274.926 C 317.007 274.926 282.529 309.404 282.529 352.143 M 303.008 559.322 C 304.377 525.664 328.455 502.331 360.000 502.331 C 391.545 502.331 414.453 521.477 416.992 559.322 C 418.665 584.258 415.802 676.847 415.802 676.859 C 415.791 676.859 304.137 677.116 304.125 677.116 C 304.125 677.104 301.949 585.360 303.008 559.322 M 245.368 686.788 C 245.368 686.740 245.368 209.335 245.368 209.287 C 245.391 209.287 474.609 209.287 474.632 209.287 C 474.632 209.335 474.632 686.740 474.632 686.788 C 474.609 686.788 245.391 686.788 245.368 686.788 M 233.510 204.834 C 233.510 204.832 233.510 185.245 233.510 185.243 C 233.535 185.243 486.465 185.243 486.490 185.243 C 486.490 185.245 486.490 204.832 486.490 204.834 C 486.465 204.834 233.535 204.834 233.510 204.834 M 247.333 180.570 C 247.333 118.209 297.640 67.904 360.000 67.904 C 422.360 67.904 472.667 118.209 472.667 180.570 C 443.157 180.225 270.848 180.099 247.333 180.570 Z"/>
</g>
<g id="specs">
<path fill="#ff00ff" fill-rule="evenodd" stroke="none" d="M 306.792 404.880 C 306.803 404.880 413.197 404.880 413.208 404.880 C 413.208 404.870 413.208 298.476 413.208 298.465 C 413.197 298.465 306.803 298.465 306.792 298.465 C 306.792 298.476 306.792 404.870 306.792 404.880 Z"/>
<path fill="#ff0000" fill-rule="evenodd" stroke="none" d="M 360.000 665.831 C 360.001 665.834 372.432 700.640 372.433 700.644 C 372.432 700.642 360.001 689.076 360.000 689.075 C 359.999 689.076 347.568 700.642 347.567 700.644 C 347.568 700.640 359.999 665.834 360.000 665.831 Z"/>
<path fill="#0000ff" fill-rule="evenodd" stroke="none" d="M 360.000 11.526 C 360.001 11.528 367.221 31.746 367.222 31.748 C 367.221 31.748 360.001 25.029 360.000 25.028 C 359.999 25.029 352.779 31.748 352.778 31.748 C 352.779 31.746 359.999 11.528 360.000 11.526 Z"/>
<path fill="#00ff00" fill-rule="evenodd" stroke="none" d="M 231.273 348.513 C 231.275 348.513 251.457 341.190 251.459 341.189 C 251.458 341.190 244.776 348.444 244.775 348.445 C 244.776 348.446 251.531 355.632 251.531 355.633 C 251.529 355.632 231.275 348.514 231.273 348.513 Z"/>
<path fill="#ffff00" fill-rule="evenodd" stroke="none" d="M 243.279 689.900 C 243.279 689.898 252.240 670.388 252.241 670.387 C 252.241 670.387 252.712 680.239 252.713 680.240 C 252.714 680.240 262.573 680.479 262.574 680.479 C 262.572 680.480 243.280 689.899 243.279 689.900 Z"/>
<path fill="#ffff00" fill-rule="evenodd" stroke="none" d="M 478.047 689.661 C 478.046 689.659 468.696 670.333 468.695 670.331 C 468.695 670.332 468.421 680.191 468.421 680.192 C 468.420 680.192 458.567 680.629 458.566 680.629 C 458.568 680.630 478.045 689.660 478.047 689.661 Z"/>
<path fill="#00ff00" fill-rule="evenodd" stroke="none" d="M 488.732 348.513 C 488.730 348.513 468.549 341.190 468.547 341.189 C 468.547 341.190 475.229 348.444 475.230 348.445 C 475.229 348.446 468.474 355.632 468.474 355.633 C 468.476 355.632 488.730 348.514 488.732 348.513 Z"/>
<path fill="#00ffff" fill-rule="evenodd" stroke="none" d="M 449.383 89.610 C 449.383 89.612 442.215 109.850 442.215 109.852 C 442.215 109.851 440.857 100.082 440.857 100.081 C 440.856 100.081 431.015 100.730 431.014 100.730 C 431.016 100.729 449.381 89.611 449.383 89.610 Z"/>
<path fill="#00ffff" fill-rule="evenodd" stroke="none" d="M 269.688 90.281 C 269.688 90.283 278.189 109.997 278.190 109.999 C 278.190 109.998 278.893 100.160 278.893 100.159 C 278.894 100.159 288.756 100.152 288.757 100.152 C 288.755 100.151 269.689 90.282 269.688 90.281 Z"/>
</g>
</g>
</svg>
