<?xml version="1.0" encoding="utf-8"?>
<!-- Generator: Moho 12.5 build 22414 -->
<!DOCTYPE svg PUBLIC "-//W3C//DTD SVG 1.1//EN" "http://www.w3.org/Graphics/SVG/1.1/DTD/svg11.dtd">
<svg version="1.1" id="Frame_0" xmlns="http://www.w3.org/2000/svg" xmlns:xlink="http://www.w3.org/1999/xlink" width="720px" height="720px">
<g id="tower2">
<g id="tower2">
<path fill="#ffffff" fill-rule="evenodd" stroke="#000000" stroke-width="4" stroke-linecap="round" stroke-linejoin="round" d="M 345.986 48.826 C 345.986 56.132 351.880 62.025 359.185 62.025 C 366.491 62.025 372.384 56.131 372.384 48.826 C 372.384 41.520 366.491 35.627 359.185 35.627 C 351.880 35.627 345.986 41.520 345.986 48.826 M 324.293 147.451 C 324.293 147.447 324.293 103.561 324.293 103.556 C 324.300 103.556 394.416 103.556 394.423 103.556 C 394.423 103.561 394.423 147.447 394.423 147.451 C 394.420 147.448 359.692 115.622 359.689 115.619 C 359.685 115.622 324.296 147.448 324.293 147.451 M 321.092 101.730 C 321.092 80.814 337.965 63.940 358.882 63.940 C 379.798 63.940 396.671 80.814 396.671 101.730 C 386.773 101.615 328.979 101.573 321.092 101.730 M 304.222 336.731 C 305.336 304.054 328.921 281.415 359.538 281.415 C 390.155 281.415 412.225 300.009 414.856 336.731 C 416.550 360.377 414.999 448.217 414.999 448.228 C 414.988 448.228 306.617 448.478 306.606 448.478 C 306.606 448.467 303.380 361.442 304.222 336.731 M 224.977 239.887 C 224.991 239.875 359.987 120.525 360.000 120.513 C 360.014 120.525 495.009 239.875 495.023 239.887 C 494.996 239.887 225.004 239.887 224.977 239.887 M 229.314 684.373 C 229.314 684.329 229.314 245.335 229.314 245.291 C 229.341 245.291 494.227 245.291 494.253 245.291 C 494.253 245.335 494.253 684.329 494.253 684.373 C 494.227 684.373 229.341 684.373 229.314 684.373 M 304.222 561.409 C 302.974 528.738 328.921 506.093 359.538 506.093 C 390.155 506.093 414.894 524.594 414.856 561.409 C 414.829 586.776 414.999 672.896 414.999 672.907 C 414.988 672.907 306.617 673.157 306.606 673.157 C 306.606 673.146 305.101 584.401 304.222 561.409 Z"/>
</g>
<g id="specs">
<path fill="#ff00ff" fill-rule="evenodd" stroke="none" d="M 312.500 407.500 C 312.510 407.500 407.490 407.500 407.500 407.500 C 407.500 407.490 407.500 312.510 407.500 312.500 C 407.490 312.500 312.510 312.500 312.500 312.500 C 312.500 312.510 312.500 407.490 312.500 407.500 Z"/>
<path fill="#ff0000" fill-rule="evenodd" stroke="none" d="M 360.000 672.084 C 360.001 672.088 372.432 706.894 372.433 706.897 C 372.432 706.896 360.001 695.330 360.000 695.329 C 359.999 695.330 347.568 706.896 347.567 706.897 C 347.568 706.894 359.999 672.088 360.000 672.084 Z"/>
<path fill="#0000ff" fill-rule="evenodd" stroke="none" d="M 360.000 21.840 C 360.001 21.842 367.221 42.061 367.222 42.063 C 367.221 42.062 360.001 35.343 360.000 35.342 C 359.999 35.343 352.779 42.062 352.778 42.063 C 352.779 42.061 359.999 21.842 360.000 21.840 Z"/>
<path fill="#00ff00" fill-rule="evenodd" stroke="none" d="M 213.577 361.005 C 213.579 361.004 233.761 353.681 233.763 353.680 C 233.762 353.681 227.080 360.936 227.080 360.936 C 227.080 360.937 233.835 368.124 233.835 368.125 C 233.833 368.124 213.579 361.005 213.577 361.005 Z"/>
<path fill="#ffff00" fill-rule="evenodd" stroke="none" d="M 222.459 689.900 C 222.460 689.898 231.421 670.388 231.422 670.387 C 231.422 670.387 231.894 680.239 231.894 680.240 C 231.895 680.240 241.754 680.479 241.755 680.479 C 241.753 680.480 222.461 689.899 222.459 689.900 Z"/>
<path fill="#ffff00" fill-rule="evenodd" stroke="none" d="M 500.948 689.661 C 500.947 689.659 491.597 670.333 491.596 670.331 C 491.596 670.332 491.322 680.191 491.322 680.192 C 491.321 680.192 481.468 680.629 481.467 680.629 C 481.469 680.630 500.946 689.660 500.948 689.661 Z"/>
<path fill="#00ff00" fill-rule="evenodd" stroke="none" d="M 509.551 361.005 C 509.549 361.004 489.367 353.681 489.365 353.680 C 489.366 353.681 496.048 360.936 496.048 360.936 C 496.048 360.937 489.293 368.124 489.293 368.125 C 489.295 368.124 509.549 361.005 509.551 361.005 Z"/>
<path fill="#00ffff" fill-rule="evenodd" stroke="none" d="M 447.301 180.172 C 447.301 180.174 440.133 200.412 440.133 200.414 C 440.133 200.413 438.775 190.644 438.775 190.643 C 438.774 190.643 428.933 191.292 428.932 191.292 C 428.934 191.291 447.299 180.173 447.301 180.172 Z"/>
<path fill="#00ffff" fill-rule="evenodd" stroke="none" d="M 271.769 180.843 C 271.770 180.845 280.271 200.559 280.272 200.561 C 280.272 200.560 280.974 190.723 280.975 190.722 C 280.976 190.722 290.838 190.714 290.839 190.714 C 290.837 190.713 271.771 180.844 271.769 180.843 Z"/>
</g>
</g>
</svg>
