<?xml version="1.0" encoding="utf-8"?>
<!-- Generator: Moho 12.5 build 22414 -->
<!DOCTYPE svg PUBLIC "-//W3C//DTD SVG 1.1//EN" "http://www.w3.org/Graphics/SVG/1.1/DTD/svg11.dtd">
<svg version="1.1" id="Frame_0" xmlns="http://www.w3.org/2000/svg" xmlns:xlink="http://www.w3.org/1999/xlink" width="720px" height="720px">
<g id="tower1">
<g id="tower1">
<path fill="#ffffff" fill-rule="evenodd" stroke="#000000" stroke-width="4" stroke-linecap="round" stroke-linejoin="round" d="M 344.858 29.979 C 344.858 38.220 351.506 44.868 359.747 44.868 C 367.988 44.868 374.636 38.220 374.636 29.979 C 374.636 21.738 367.988 15.089 359.747 15.089 C 351.506 15.089 344.858 21.738 344.858 29.979 M 282.529 334.021 C 282.529 376.760 317.007 411.239 359.747 411.238 C 402.486 411.238 436.964 376.760 436.964 334.021 C 436.964 291.282 402.486 256.804 359.747 256.804 C 317.007 256.804 282.529 291.281 282.529 334.021 M 303.008 541.200 C 304.377 507.542 328.455 484.208 360.000 484.208 C 391.545 484.208 414.453 503.354 416.992 541.200 C 418.665 566.135 415.802 658.724 415.802 658.736 C 415.791 658.736 304.137 658.993 304.125 658.993 C 304.125 658.981 301.949 567.237 303.008 541.200 M 245.368 668.665 C 245.368 668.618 245.368 191.212 245.368 191.165 C 245.391 191.165 474.609 191.165 474.632 191.165 C 474.632 191.212 474.632 668.618 474.632 668.665 C 474.609 668.665 245.391 668.665 245.368 668.665 M 233.510 186.711 C 233.510 186.709 233.510 167.123 233.510 167.121 C 233.535 167.121 486.465 167.121 486.490 167.121 C 486.490 167.123 486.490 186.709 486.490 186.711 C 486.465 186.711 233.535 186.711 233.510 186.711 M 247.333 162.447 C 247.333 100.087 297.640 49.781 360.000 49.781 C 422.360 49.781 472.667 100.087 472.667 162.447 C 443.157 162.103 270.848 161.977 247.333 162.447 Z"/>
</g>
<g id="specs">
<path fill="#ff00ff" fill-rule="evenodd" stroke="none" d="M 301.504 392.045 C 301.516 392.045 418.484 392.045 418.496 392.045 C 418.496 392.034 418.496 275.066 418.496 275.054 C 418.484 275.054 301.516 275.054 301.504 275.054 C 301.504 275.066 301.504 392.034 301.504 392.045 Z"/>
<path fill="#ff0000" fill-rule="evenodd" stroke="none" d="M 360.000 674.200 C 360.001 674.204 372.432 709.010 372.433 709.013 C 372.432 709.012 360.001 697.446 360.000 697.445 C 359.999 697.446 347.568 709.012 347.567 709.013 C 347.568 709.010 359.999 674.204 360.000 674.200 Z"/>
<path fill="#0000ff" fill-rule="evenodd" stroke="none" d="M 360.000 2.780 C 360.001 2.782 367.221 23.000 367.222 23.002 C 367.221 23.001 360.001 16.283 360.000 16.282 C 359.999 16.283 352.779 23.001 352.778 23.002 C 352.779 23.000 359.999 2.782 360.000 2.780 Z"/>
<path fill="#00ff00" fill-rule="evenodd" stroke="none" d="M 231.273 330.391 C 231.275 330.390 251.457 323.067 251.459 323.066 C 251.458 323.067 244.776 330.322 244.775 330.323 C 244.776 330.323 251.531 337.510 251.531 337.511 C 251.529 337.510 231.275 330.391 231.273 330.391 Z"/>
<path fill="#ffff00" fill-rule="evenodd" stroke="none" d="M 243.279 671.777 C 243.279 671.775 252.240 652.266 252.241 652.264 C 252.241 652.265 252.712 662.116 252.713 662.117 C 252.714 662.117 262.573 662.356 262.574 662.356 C 262.572 662.357 243.280 671.776 243.279 671.777 Z"/>
<path fill="#ffff00" fill-rule="evenodd" stroke="none" d="M 478.047 671.539 C 478.046 671.537 468.696 652.210 468.695 652.208 C 468.695 652.209 468.421 662.068 468.421 662.069 C 468.420 662.069 458.567 662.506 458.566 662.506 C 458.568 662.507 478.045 671.538 478.047 671.539 Z"/>
<path fill="#00ff00" fill-rule="evenodd" stroke="none" d="M 488.732 330.391 C 488.730 330.390 468.549 323.067 468.547 323.066 C 468.547 323.067 475.229 330.322 475.230 330.323 C 475.229 330.323 468.474 337.510 468.474 337.511 C 468.476 337.510 488.730 330.391 488.732 330.391 Z"/>
<path fill="#00ffff" fill-rule="evenodd" stroke="none" d="M 449.383 71.488 C 449.383 71.490 442.215 91.727 442.215 91.729 C 442.215 91.728 440.857 81.959 440.857 81.958 C 440.856 81.958 431.015 82.608 431.014 82.608 C 431.016 82.606 449.381 71.489 449.383 71.488 Z"/>
<path fill="#00ffff" fill-rule="evenodd" stroke="none" d="M 269.688 72.158 C 269.688 72.160 278.189 91.875 278.190 91.876 C 278.190 91.876 278.893 82.038 278.893 82.037 C 278.894 82.037 288.756 82.029 288.757 82.029 C 288.755 82.028 269.689 72.159 269.688 72.158 Z"/>
<path fill="#be0027" fill-rule="evenodd" stroke="none" d="M 359.957 681.749 C 359.958 681.747 369.002 656.423 369.003 656.421 C 369.002 656.421 359.958 664.836 359.957 664.837 C 359.957 664.836 350.913 656.421 350.912 656.421 C 350.913 656.423 359.957 681.747 359.957 681.749 Z"/>
</g>
</g>
</svg>
