<?xml version="1.0" encoding="utf-8"?>
<!-- Generator: Moho 12.5 build 22414 -->
<!DOCTYPE svg PUBLIC "-//W3C//DTD SVG 1.1//EN" "http://www.w3.org/Graphics/SVG/1.1/DTD/svg11.dtd">
<svg version="1.1" id="Frame_0" xmlns="http://www.w3.org/2000/svg" xmlns:xlink="http://www.w3.org/1999/xlink" width="720px" height="720px">
<g id="tree">
<g id="tree">
<path fill="none" stroke="#000000" stroke-width="0" stroke-linecap="round" stroke-linejoin="round" d="M 358.768 87.551 C 354.056 87.603 353.880 160.396 353.827 186.989 C 353.788 206.734 354.450 202.612 353.330 235.654 C 352.996 245.512 350.136 266.551 346.571 266.527 C 343.367 266.505 325.584 270.433 310.145 269.667 C 289.936 268.665 264.144 266.246 244.851 255.537 C 229.230 246.866 216.948 229.177 207.107 216.082 C 202.310 209.698 197.144 200.318 193.397 193.265 "/>
<path fill="none" stroke="#000000" stroke-width="0" stroke-linecap="round" stroke-linejoin="round" d="M 524.821 184.073 C 524.404 185.128 522.566 190.211 521.425 192.769 C 518.469 199.402 514.241 208.163 510.340 214.288 C 502.642 226.374 493.146 241.110 480.629 251.687 C 466.457 263.665 430.308 266.352 404.943 268.954 C 392.370 270.243 375.300 266.854 371.166 266.058 C 368.105 265.469 365.832 245.373 365.702 235.767 C 365.241 201.837 364.813 191.048 364.655 186.721 C 363.638 158.863 364.080 87.493 358.768 87.551 "/>
<path fill="#ffffff" fill-rule="evenodd" stroke="#000000" stroke-width="4" stroke-linecap="round" stroke-linejoin="round" d="M 431.955 114.696 C 431.960 114.696 461.476 127.497 479.753 122.477 C 498.030 117.457 516.866 91.375 516.870 91.372 C 516.865 91.371 487.349 78.570 469.072 83.590 C 450.795 88.610 431.959 114.693 431.955 114.696 M 287.324 118.695 C 287.319 118.696 257.582 130.975 239.397 125.633 C 221.211 120.292 202.838 93.881 202.834 93.878 C 202.839 93.877 232.578 81.599 250.763 86.940 C 268.948 92.282 287.321 118.692 287.324 118.695 M 472.131 257.781 C 472.127 257.778 443.230 242.937 435.734 225.408 C 428.255 207.918 437.457 176.840 437.457 176.836 C 437.461 176.839 465.866 191.947 473.329 209.369 C 480.792 226.791 472.131 257.776 472.131 257.781 M 404.314 181.902 C 404.311 181.906 380.538 203.585 377.629 222.314 C 374.719 241.043 390.792 268.913 390.793 268.918 C 390.796 268.914 414.568 247.234 417.478 228.506 C 420.388 209.777 404.315 181.907 404.314 181.902 M 429.293 73.019 C 429.288 73.020 397.117 73.317 382.456 85.329 C 367.796 97.343 361.182 128.829 361.179 128.833 C 361.184 128.832 393.356 128.536 408.016 116.522 C 422.677 104.510 429.291 73.024 429.293 73.019 M 444.036 279.261 C 444.038 279.265 453.147 310.121 468.720 320.924 C 484.294 331.728 516.387 329.452 516.392 329.452 C 516.389 329.448 507.280 298.592 491.706 287.789 C 476.133 276.986 444.040 279.262 444.036 279.261 M 513.863 208.488 C 513.862 208.483 512.975 176.322 500.696 161.885 C 488.416 147.447 456.814 141.412 456.810 141.410 C 456.811 141.414 457.697 173.575 469.977 188.013 C 482.256 202.450 513.858 208.486 513.863 208.488 M 363.006 167.106 C 363.010 167.107 392.527 179.908 410.803 174.888 C 429.080 169.868 447.917 143.785 447.920 143.782 C 447.916 143.781 418.398 130.980 400.122 136.000 C 381.845 141.020 363.009 167.103 363.006 167.106 M 446.176 351.851 C 446.174 351.846 442.747 319.856 429.363 306.435 C 415.980 293.014 384.000 289.497 383.995 289.496 C 383.997 289.500 387.424 321.491 400.808 334.912 C 414.191 348.332 446.172 351.849 446.176 351.851 M 576.341 268.845 C 576.337 268.842 553.127 246.562 534.246 244.902 C 515.366 243.241 488.624 261.129 488.619 261.130 C 488.624 261.132 511.833 283.414 530.714 285.074 C 549.595 286.735 576.337 268.847 576.341 268.845 M 597.631 187.160 C 597.626 187.160 566.570 178.755 549.209 186.361 C 531.848 193.967 516.974 222.495 516.971 222.499 C 516.976 222.499 548.031 230.905 565.392 223.299 C 582.753 215.693 597.627 187.164 597.631 187.160 M 542.280 96.336 C 542.278 96.341 518.324 117.820 515.258 136.524 C 512.191 155.228 528.030 183.232 528.031 183.236 C 528.034 183.232 551.987 161.753 555.054 143.049 C 558.121 124.345 542.282 96.341 542.280 96.336 M 361.367 4.641 C 361.365 4.645 340.525 29.156 340.007 48.102 C 339.488 67.048 358.957 92.663 358.959 92.667 C 358.961 92.663 379.802 68.152 380.320 49.205 C 380.838 30.259 361.369 4.645 361.367 4.641 M 270.180 349.133 C 270.185 349.131 302.944 347.939 317.190 335.058 C 331.248 322.348 335.722 290.327 335.723 290.322 C 335.719 290.324 303.593 292.061 289.485 304.719 C 275.378 317.377 270.182 349.128 270.180 349.133 M 316.934 181.438 C 316.937 181.442 338.454 205.361 339.502 224.285 C 340.550 243.210 321.805 269.358 321.803 269.363 C 321.801 269.359 300.284 245.440 299.236 226.515 C 298.188 207.591 316.932 181.442 316.934 181.438 M 287.186 73.104 C 287.191 73.105 319.363 73.362 334.038 85.358 C 348.712 97.354 355.364 128.832 355.366 128.837 C 355.361 128.835 323.189 128.577 308.515 116.582 C 293.840 104.586 287.188 73.108 287.186 73.104 M 290.160 182.444 C 290.159 182.449 294.543 214.322 284.788 230.572 C 275.034 246.823 244.844 257.944 244.840 257.947 C 244.840 257.942 240.457 226.069 250.212 209.818 C 259.966 193.567 290.156 182.447 290.160 182.444 M 205.700 217.212 C 205.701 217.207 201.907 185.259 211.959 169.191 C 222.012 153.123 252.402 142.562 252.406 142.560 C 252.406 142.564 256.200 174.513 246.147 190.581 C 236.094 206.649 205.705 217.209 205.700 217.212 M 353.362 167.912 C 353.357 167.912 323.620 180.191 305.434 174.849 C 287.249 169.507 268.876 143.097 268.872 143.093 C 268.877 143.093 298.615 130.814 316.800 136.157 C 334.985 141.498 353.358 167.909 353.362 167.912 M 175.104 98.322 C 175.107 98.326 198.362 120.557 200.831 139.349 C 203.300 158.141 186.576 185.626 186.574 185.630 C 186.572 185.627 163.316 163.394 160.847 144.602 C 158.379 125.811 175.103 98.326 175.104 98.322 M 201.940 330.091 C 201.942 330.087 212.094 299.557 228.025 289.289 C 243.956 279.021 275.953 282.387 275.958 282.385 C 275.956 282.390 265.804 312.919 249.872 323.187 C 233.941 333.455 201.944 330.090 201.940 330.091 M 142.211 269.582 C 142.215 269.580 165.180 247.049 184.042 245.183 C 202.904 243.318 229.838 260.914 229.843 260.916 C 229.839 260.918 206.873 283.450 188.011 285.315 C 169.150 287.181 142.215 269.584 142.211 269.582 M 115.489 193.034 C 115.494 193.034 145.538 181.527 163.580 187.336 C 181.621 193.145 199.307 220.021 199.311 220.024 C 199.306 220.025 169.261 231.532 151.220 225.723 C 133.179 219.914 115.493 193.038 115.489 193.034 Z"/>
<path fill="#ffffff" fill-rule="evenodd" stroke="#000000" stroke-width="4" stroke-linecap="round" stroke-linejoin="round" d="M 364.655 186.721 C 363.638 158.863 364.080 87.493 358.768 87.551 C 354.056 87.603 353.880 160.396 353.827 186.989 C 353.788 206.734 354.450 202.612 353.330 235.654 C 352.996 245.512 350.136 266.551 346.571 266.527 C 343.367 266.505 325.584 270.433 310.145 269.667 C 289.936 268.665 264.144 266.246 244.851 255.537 C 229.230 246.866 216.948 229.177 207.107 216.082 C 202.310 209.698 197.144 200.318 193.397 193.265 C 191.566 189.817 188.643 182.858 187.827 181.504 C 187.520 180.995 186.166 178.961 185.640 178.751 C 185.278 178.606 183.845 176.952 183.476 177.047 C 182.914 177.191 182.125 179.341 182.572 180.162 C 181.713 180.575 182.739 182.669 182.706 182.894 C 182.335 185.457 185.392 192.632 186.576 195.980 C 189.474 204.174 193.383 212.027 197.399 219.935 C 207.698 240.213 225.156 260.232 242.487 271.105 C 252.720 277.524 266.204 280.466 279.541 282.013 C 321.250 286.850 339.093 288.327 339.035 294.922 C 338.772 324.820 334.627 370.631 332.476 403.061 C 329.278 451.300 324.020 515.548 320.831 563.787 C 319.752 580.121 318.794 601.930 317.514 618.249 C 316.206 634.930 312.183 673.763 312.183 673.769 C 312.188 673.770 337.835 681.384 360.667 680.910 C 382.254 680.461 407.722 675.981 407.727 675.981 C 407.726 675.975 403.816 636.483 402.123 619.557 C 400.428 602.614 397.879 580.050 396.431 563.083 C 392.342 515.151 388.817 451.093 385.772 403.084 C 383.707 370.508 380.002 324.497 379.208 294.480 C 379.028 287.657 407.936 286.811 434.586 281.640 C 450.884 278.477 469.943 275.091 482.357 266.632 C 497.330 256.430 512.151 237.851 519.738 219.193 C 522.960 211.269 525.637 203.239 527.575 195.084 C 528.211 192.408 529.821 186.683 529.532 184.698 C 529.459 184.199 532.110 179.689 530.255 178.677 C 530.774 177.832 530.098 175.394 529.487 175.322 C 529.135 175.280 528.220 177.139 527.923 177.349 C 526.949 178.037 525.279 182.909 524.821 184.073 C 524.404 185.128 522.566 190.211 521.425 192.769 C 518.469 199.402 514.241 208.163 510.340 214.288 C 502.642 226.374 493.146 241.110 480.629 251.687 C 466.457 263.665 430.308 266.352 404.943 268.954 C 392.370 270.243 375.300 266.854 371.166 266.058 C 368.105 265.469 365.832 245.373 365.702 235.767 C 365.241 201.837 364.813 191.048 364.655 186.721 Z"/>
</g>
<g id="specs_2">
<path fill="#ff00ff" fill-rule="evenodd" stroke="none" d="M 261.510 296.785 C 261.530 296.785 458.470 296.785 458.490 296.785 C 458.490 296.765 458.490 99.825 458.490 99.805 C 458.470 99.805 261.530 99.805 261.510 99.805 C 261.510 99.825 261.510 296.765 261.510 296.785 Z"/>
<path fill="#ff0000" fill-rule="evenodd" stroke="none" d="M 360.000 682.288 C 360.001 682.291 372.342 716.846 372.343 716.850 C 372.342 716.849 360.001 705.366 360.000 705.365 C 359.999 705.366 347.658 716.849 347.657 716.850 C 347.658 716.846 359.999 682.291 360.000 682.288 Z"/>
<path fill="#0000ff" fill-rule="evenodd" stroke="none" d="M 361.147 3.013 C 361.147 3.015 368.316 23.088 368.316 23.090 C 368.316 23.089 361.147 16.419 361.147 16.419 C 361.146 16.419 353.977 23.089 353.977 23.090 C 353.977 23.088 361.146 3.015 361.147 3.013 Z"/>
<path fill="#00ff00" fill-rule="evenodd" stroke="none" d="M 314.925 469.906 C 314.927 469.905 334.963 462.635 334.965 462.634 C 334.965 462.635 328.331 469.837 328.330 469.838 C 328.331 469.839 335.037 476.974 335.038 476.974 C 335.036 476.974 314.927 469.906 314.925 469.906 Z"/>
<path fill="#ffff00" fill-rule="evenodd" stroke="none" d="M 304.720 681.988 C 304.721 681.986 313.617 662.617 313.618 662.615 C 313.618 662.616 314.086 672.397 314.086 672.398 C 314.087 672.398 323.875 672.635 323.876 672.635 C 323.875 672.636 304.722 681.987 304.720 681.988 Z"/>
<path fill="#ffff00" fill-rule="evenodd" stroke="none" d="M 410.863 681.751 C 410.862 681.749 401.579 662.562 401.578 662.560 C 401.578 662.561 401.306 672.349 401.306 672.350 C 401.305 672.350 391.523 672.784 391.522 672.784 C 391.524 672.785 410.861 681.750 410.863 681.751 Z"/>
<path fill="#00ff00" fill-rule="evenodd" stroke="none" d="M 403.820 469.906 C 403.818 469.905 383.782 462.635 383.780 462.634 C 383.781 462.635 390.414 469.837 390.415 469.838 C 390.414 469.839 383.708 476.974 383.708 476.974 C 383.710 476.974 403.818 469.906 403.820 469.906 Z"/>
<path fill="#00ffff" fill-rule="evenodd" stroke="none" d="M 544.582 126.317 C 544.581 126.319 537.466 146.410 537.465 146.412 C 537.465 146.411 536.117 136.713 536.117 136.712 C 536.116 136.712 526.346 137.357 526.345 137.357 C 526.347 137.356 544.580 126.318 544.582 126.317 Z"/>
<path fill="#00ffff" fill-rule="evenodd" stroke="none" d="M 172.089 126.983 C 172.090 126.985 180.529 146.557 180.530 146.559 C 180.530 146.558 181.228 136.791 181.228 136.790 C 181.229 136.790 191.020 136.783 191.021 136.783 C 191.019 136.782 172.091 126.984 172.089 126.983 Z"/>
<path fill="#be0027" fill-rule="evenodd" stroke="none" d="M 360.000 696.037 C 360.001 696.034 372.342 661.479 372.343 661.476 C 372.342 661.477 360.001 672.959 360.000 672.960 C 359.999 672.959 347.658 661.477 347.657 661.476 C 347.658 661.479 359.999 696.034 360.000 696.037 Z"/>
</g>
</g>
</svg>
