<?xml version="1.0" encoding="utf-8"?>
<!-- Generator: Moho 12.5 build 22414 -->
<!DOCTYPE svg PUBLIC "-//W3C//DTD SVG 1.1//EN" "http://www.w3.org/Graphics/SVG/1.1/DTD/svg11.dtd">
<svg version="1.1" id="Frame_0" xmlns="http://www.w3.org/2000/svg" xmlns:xlink="http://www.w3.org/1999/xlink" width="720px" height="720px">
<g id="halves">
<g id="tree_bottom">
<g id="tree-Bottom">
<path fill="#ffffff" fill-rule="evenodd" stroke="#000000" stroke-width="2" stroke-linecap="round" stroke-linejoin="round" d="M 406.046 344.060 C 406.047 344.067 411.395 395.303 418.447 410.728 C 426.794 428.984 449.742 423.912 450.722 424.217 C 453.457 425.069 505.344 419.145 546.615 442.461 C 585.620 464.496 592.161 488.373 592.165 488.377 C 592.160 488.374 568.767 468.925 536.603 455.932 C 505.887 443.525 468.901 447.608 468.894 447.607 C 468.903 447.617 538.166 477.675 554.566 545.270 C 570.817 612.252 496.208 648.081 496.204 648.084 C 496.207 648.080 550.572 597.789 531.723 550.215 C 519.421 519.166 506.611 502.906 487.758 489.495 C 474.580 480.121 446.292 464.184 446.288 464.181 C 446.289 464.186 461.059 489.767 458.533 515.048 C 452.950 570.949 411.987 575.244 411.983 575.250 C 411.985 575.245 438.529 555.903 438.926 517.012 C 439.155 494.626 424.270 468.099 412.607 462.316 C 404.458 458.276 385.122 449.016 380.247 451.489 C 366.650 458.385 378.531 506.218 374.036 546.465 C 371.885 565.729 360.017 643.425 360.016 643.435 C 359.993 643.672 348.119 565.729 345.964 546.465 C 341.462 506.219 353.350 458.385 339.753 451.489 C 334.878 449.016 315.542 458.276 307.393 462.316 C 295.730 468.099 280.845 494.626 281.074 517.012 C 281.472 555.903 308.015 575.245 308.017 575.250 C 308.013 575.244 267.050 570.949 261.467 515.048 C 258.941 489.767 273.711 464.186 273.712 464.181 C 273.708 464.184 245.420 480.121 232.242 489.495 C 213.389 502.906 200.579 519.166 188.277 550.215 C 169.428 597.789 223.793 648.080 223.796 648.084 C 223.792 648.081 149.183 612.252 165.434 545.270 C 181.834 477.675 251.097 447.617 251.106 447.607 C 251.099 447.608 214.114 443.525 183.397 455.932 C 151.233 468.925 127.840 488.374 127.835 488.377 C 127.839 488.373 134.380 464.496 173.385 442.461 C 214.656 419.145 266.543 425.069 269.278 424.217 C 270.258 423.912 289.671 426.907 301.553 410.728 C 311.036 397.815 313.953 344.067 313.954 344.060 C 313.963 344.060 406.037 344.060 406.046 344.060 Z"/>
<path fill="none" stroke="#000000" stroke-width="2" stroke-linecap="round" stroke-linejoin="round" d="M 420.571 598.959 C 422.803 598.397 422.599 601.823 421.748 602.910 C 418.377 607.219 412.270 603.317 412.053 597.990 C 411.683 588.916 421.749 584.370 428.371 588.224 C 440.888 595.510 436.210 613.712 423.789 617.211 C 398.280 624.395 384.709 590.177 412.005 575.244 "/>
<path fill="none" stroke="#000000" stroke-width="2" stroke-linecap="round" stroke-linejoin="round" d="M 405.318 490.684 C 403.962 488.823 401.927 491.587 401.885 492.967 C 401.719 498.436 408.908 499.345 412.484 495.390 C 418.575 488.653 413.748 478.719 406.193 477.444 C 391.912 475.033 383.860 492.015 391.167 502.651 C 406.173 524.495 438.497 506.882 427.076 477.940 "/>
<path fill="none" stroke="#000000" stroke-width="2" stroke-linecap="round" stroke-linejoin="round" d="M 399.128 543.283 C 399.975 541.142 402.638 543.306 403.025 544.632 C 404.557 549.884 397.825 552.567 393.372 549.636 C 385.787 544.642 387.967 533.814 394.961 530.685 C 408.181 524.770 420.235 539.189 415.829 551.318 C 406.781 576.228 371.073 567.284 374.871 536.403 "/>
<path fill="none" stroke="#000000" stroke-width="2" stroke-linecap="round" stroke-linejoin="round" d="M 470.018 562.115 C 471.374 560.254 473.409 563.018 473.451 564.397 C 473.618 569.866 466.428 570.775 462.852 566.821 C 456.762 560.084 461.589 550.149 469.144 548.874 C 483.425 546.464 491.476 563.445 484.170 574.082 C 469.163 595.925 436.839 578.312 448.261 549.371 "/>
<path fill="none" stroke="#000000" stroke-width="2" stroke-linecap="round" stroke-linejoin="round" d="M 483.037 517.093 C 481.681 515.232 479.646 517.996 479.604 519.376 C 479.437 524.845 486.627 525.754 490.202 521.799 C 496.293 515.062 491.467 505.128 483.911 503.853 C 469.631 501.442 461.578 518.424 468.885 529.060 C 483.891 550.904 516.216 533.291 504.794 504.350 "/>
<path fill="none" stroke="#000000" stroke-width="2" stroke-linecap="round" stroke-linejoin="round" d="M 510.492 563.995 C 509.136 562.135 507.101 564.898 507.059 566.278 C 506.892 571.747 514.082 572.656 517.657 568.701 C 523.748 561.965 518.922 552.030 511.367 550.755 C 497.086 548.344 489.034 565.326 496.340 575.962 C 511.347 597.806 543.671 580.193 532.249 551.252 "/>
<path fill="none" stroke="#000000" stroke-width="2" stroke-linecap="round" stroke-linejoin="round" d="M 494.303 612.841 C 495.894 611.177 492.813 609.664 491.448 609.867 C 486.036 610.672 486.416 617.909 490.942 620.727 C 498.651 625.528 507.573 619.017 507.489 611.355 C 507.330 596.873 489.190 591.958 480.017 601.035 C 461.179 619.674 484.242 648.365 510.701 631.995 "/>
<path fill="none" stroke="#000000" stroke-width="2" stroke-linecap="round" stroke-linejoin="round" d="M 508.505 670.010 C 510.619 669.099 510.965 672.514 510.299 673.723 C 507.658 678.515 501.007 675.638 499.942 670.414 C 498.128 661.515 507.340 655.421 514.492 658.168 C 528.011 663.362 526.299 682.078 514.595 687.514 C 490.560 698.679 471.701 667.065 496.264 647.967 "/>
<path fill="none" stroke="#000000" stroke-width="2" stroke-linecap="round" stroke-linejoin="round" d="M 559.619 627.135 C 561.357 625.625 562.722 628.774 562.454 630.128 C 561.392 635.496 554.181 634.772 551.582 630.118 C 547.153 622.188 554.082 613.586 561.730 614.035 C 576.189 614.882 580.235 633.235 570.733 641.966 C 551.218 659.897 523.656 635.495 541.266 609.845 "/>
<path fill="none" stroke="#000000" stroke-width="2" stroke-linecap="round" stroke-linejoin="round" d="M 581.786 565.928 C 582.314 563.688 585.262 565.445 585.836 566.700 C 588.112 571.676 581.838 575.303 577.008 573.046 C 568.781 569.200 569.375 558.171 575.844 554.064 C 588.071 546.302 602.081 558.830 599.473 571.468 C 594.116 597.422 557.491 593.730 556.790 562.624 "/>
<path fill="none" stroke="#000000" stroke-width="2" stroke-linecap="round" stroke-linejoin="round" d="M 565.248 503.681 C 564.417 501.534 567.842 501.317 569.025 502.028 C 573.715 504.846 570.591 511.385 565.331 512.253 C 556.371 513.733 550.625 504.300 553.639 497.256 C 559.335 483.940 577.973 486.352 582.968 498.250 C 593.225 522.687 560.928 540.349 542.762 515.089 "/>
<path fill="none" stroke="#000000" stroke-width="2" stroke-linecap="round" stroke-linejoin="round" d="M 615.611 479.237 C 615.011 477.014 618.440 477.160 619.542 477.992 C 623.908 481.290 620.110 487.462 614.788 487.770 C 605.721 488.294 601.005 478.307 604.745 471.621 C 611.817 458.981 630.096 463.349 633.806 475.709 C 641.424 501.092 607.441 515.243 592.046 488.205 "/>
<path fill="none" stroke="#000000" stroke-width="2" stroke-linecap="round" stroke-linejoin="round" d="M 535.823 473.999 C 537.193 474.729 535.539 476.348 534.622 476.506 C 530.987 477.132 529.703 472.418 532.006 469.659 C 535.930 464.958 543.017 467.245 544.580 472.169 C 547.534 481.476 536.955 488.450 529.166 484.574 C 513.170 476.613 521.884 453.375 542.281 458.274 "/>
<path fill="none" stroke="#000000" stroke-width="2" stroke-linecap="round" stroke-linejoin="round" d="M 400.335 640.513 C 398.112 639.915 398.261 643.344 399.094 644.445 C 402.395 648.808 408.564 645.005 408.868 639.682 C 409.384 630.615 399.393 625.907 392.709 629.654 C 380.076 636.736 384.460 655.012 396.823 658.710 C 422.213 666.306 436.334 632.311 409.283 616.939 "/>
<path fill="none" stroke="#000000" stroke-width="2" stroke-linecap="round" stroke-linejoin="round" d="M 299.429 598.959 C 297.197 598.397 297.401 601.823 298.252 602.910 C 301.623 607.219 307.730 603.317 307.947 597.990 C 308.317 588.916 298.251 584.370 291.629 588.224 C 279.112 595.510 283.790 613.712 296.211 617.211 C 321.720 624.395 335.291 590.177 307.995 575.244 "/>
<path fill="none" stroke="#000000" stroke-width="2" stroke-linecap="round" stroke-linejoin="round" d="M 314.681 490.684 C 316.038 488.823 318.073 491.587 318.115 492.967 C 318.281 498.436 311.092 499.345 307.516 495.390 C 301.425 488.653 306.252 478.719 313.807 477.444 C 328.088 475.033 336.140 492.015 328.833 502.651 C 313.827 524.495 281.503 506.882 292.924 477.940 "/>
<path fill="none" stroke="#000000" stroke-width="2" stroke-linecap="round" stroke-linejoin="round" d="M 320.872 543.283 C 320.025 541.142 317.362 543.306 316.975 544.632 C 315.443 549.884 322.175 552.567 326.628 549.636 C 334.213 544.642 332.033 533.814 325.039 530.685 C 311.819 524.770 299.765 539.189 304.171 551.318 C 313.219 576.227 348.927 567.284 345.129 536.403 "/>
<path fill="none" stroke="#000000" stroke-width="2" stroke-linecap="round" stroke-linejoin="round" d="M 249.982 562.115 C 248.626 560.254 246.591 563.018 246.549 564.397 C 246.383 569.866 253.572 570.775 257.148 566.821 C 263.238 560.084 258.411 550.149 250.856 548.874 C 236.575 546.464 228.524 563.445 235.830 574.082 C 250.837 595.925 283.161 578.312 271.739 549.371 "/>
<path fill="none" stroke="#000000" stroke-width="2" stroke-linecap="round" stroke-linejoin="round" d="M 236.963 517.093 C 238.319 515.232 240.354 517.996 240.396 519.376 C 240.563 524.845 233.373 525.754 229.798 521.799 C 223.707 515.062 228.534 505.128 236.089 503.853 C 250.369 501.442 258.422 518.424 251.115 529.060 C 236.109 550.904 203.784 533.291 215.206 504.350 "/>
<path fill="none" stroke="#000000" stroke-width="2" stroke-linecap="round" stroke-linejoin="round" d="M 209.508 563.995 C 210.864 562.135 212.899 564.898 212.941 566.278 C 213.108 571.747 205.918 572.656 202.343 568.701 C 196.252 561.965 201.078 552.030 208.634 550.755 C 222.914 548.344 230.966 565.326 223.660 575.962 C 208.653 597.806 176.329 580.193 187.751 551.252 "/>
<path fill="none" stroke="#000000" stroke-width="2" stroke-linecap="round" stroke-linejoin="round" d="M 225.697 612.841 C 224.106 611.177 227.187 609.664 228.552 609.867 C 233.964 610.672 233.584 617.909 229.058 620.727 C 221.349 625.528 212.428 619.017 212.511 611.355 C 212.670 596.873 230.810 591.958 239.983 601.035 C 258.821 619.675 235.758 648.366 209.299 631.995 "/>
<path fill="none" stroke="#000000" stroke-width="2" stroke-linecap="round" stroke-linejoin="round" d="M 211.495 670.010 C 209.381 669.099 209.035 672.514 209.701 673.723 C 212.342 678.515 218.993 675.638 220.058 670.414 C 221.872 661.515 212.660 655.421 205.508 658.168 C 191.989 663.362 193.701 682.078 205.405 687.514 C 229.440 698.679 248.299 667.065 223.736 647.967 "/>
<path fill="none" stroke="#000000" stroke-width="2" stroke-linecap="round" stroke-linejoin="round" d="M 160.381 627.135 C 158.643 625.625 157.278 628.774 157.546 630.128 C 158.608 635.496 165.819 634.772 168.418 630.118 C 172.847 622.188 165.918 613.586 158.270 614.035 C 143.812 614.882 139.765 633.235 149.267 641.966 C 168.782 659.897 196.344 635.495 178.734 609.845 "/>
<path fill="none" stroke="#000000" stroke-width="2" stroke-linecap="round" stroke-linejoin="round" d="M 138.214 565.928 C 137.686 563.688 134.738 565.445 134.164 566.700 C 131.888 571.676 138.162 575.303 142.992 573.046 C 151.219 569.200 150.625 558.171 144.156 554.064 C 131.929 546.302 117.919 558.830 120.527 571.468 C 125.884 597.422 162.509 593.730 163.210 562.624 "/>
<path fill="none" stroke="#000000" stroke-width="2" stroke-linecap="round" stroke-linejoin="round" d="M 154.752 503.681 C 155.584 501.534 152.158 501.317 150.975 502.028 C 146.285 504.846 149.409 511.385 154.669 512.253 C 163.629 513.733 169.375 504.300 166.361 497.256 C 160.665 483.940 142.027 486.352 137.032 498.250 C 126.775 522.687 159.072 540.349 177.238 515.089 "/>
<path fill="none" stroke="#000000" stroke-width="2" stroke-linecap="round" stroke-linejoin="round" d="M 104.389 479.237 C 104.989 477.014 101.560 477.160 100.458 477.992 C 96.092 481.290 99.890 487.462 105.212 487.770 C 114.279 488.294 118.995 478.307 115.255 471.621 C 108.183 458.981 89.904 463.349 86.194 475.709 C 78.576 501.092 112.559 515.243 127.954 488.205 "/>
<path fill="none" stroke="#000000" stroke-width="2" stroke-linecap="round" stroke-linejoin="round" d="M 184.177 473.999 C 182.807 474.729 184.461 476.348 185.378 476.506 C 189.013 477.132 190.297 472.418 187.994 469.659 C 184.070 464.958 176.983 467.245 175.420 472.169 C 172.466 481.476 183.045 488.450 190.834 484.574 C 206.830 476.613 198.116 453.375 177.719 458.274 "/>
<path fill="none" stroke="#000000" stroke-width="2" stroke-linecap="round" stroke-linejoin="round" d="M 319.665 640.513 C 321.888 639.915 321.739 643.344 320.906 644.445 C 317.605 648.808 311.436 645.005 311.133 639.682 C 310.616 630.615 320.607 625.907 327.291 629.654 C 339.924 636.736 335.540 655.012 323.177 658.710 C 297.787 666.306 283.666 632.311 310.717 616.939 "/>
<path fill="none" stroke="#000000" stroke-width="2" stroke-linecap="round" stroke-linejoin="round" d="M 366.036 678.729 C 368.108 677.724 368.606 681.120 367.994 682.358 C 365.571 687.263 358.798 684.687 357.500 679.517 C 355.289 670.708 364.218 664.207 371.486 666.631 C 385.225 671.214 384.353 689.987 372.905 695.943 C 349.394 708.174 333.319 675.521 352.819 657.257 C 361.197 649.410 359.971 643.427 359.972 643.426 "/>
</g>
<g id="specs_2">
<path fill="#ff0000" fill-rule="evenodd" stroke="none" d="M 360.000 355.651 C 360.001 355.649 366.208 338.268 366.209 338.266 C 366.208 338.267 360.001 344.042 360.000 344.043 C 359.999 344.042 353.792 338.267 353.791 338.266 C 353.792 338.268 359.999 355.649 360.000 355.651 Z"/>
<path fill="#be0027" fill-rule="evenodd" stroke="none" d="M 360.000 331.978 C 360.001 331.979 366.208 349.361 366.209 349.362 C 366.208 349.362 360.001 343.586 360.000 343.585 C 359.999 343.586 353.792 349.362 353.791 349.362 C 353.792 349.361 359.999 331.979 360.000 331.978 Z"/>
<path fill="none" stroke="#ffff00" stroke-width="2" stroke-linecap="round" stroke-linejoin="round" d="M 313.954 344.062 C 313.963 344.062 406.037 344.062 406.046 344.062 "/>
</g>
</g>
</g>
</svg>
