<?xml version="1.0" encoding="utf-8"?>
<!-- Generator: Moho 12.5 build 22414 -->
<!DOCTYPE svg PUBLIC "-//W3C//DTD SVG 1.1//EN" "http://www.w3.org/Graphics/SVG/1.1/DTD/svg11.dtd">
<svg version="1.1" id="Frame_0" xmlns="http://www.w3.org/2000/svg" xmlns:xlink="http://www.w3.org/1999/xlink" width="720px" height="720px">
<g id="trumpet">
<g id="trumpet">
<path fill="#ffffff" fill-rule="evenodd" stroke="#000000" stroke-width="1" stroke-linejoin="round" d="M 18.747 372.385 C 18.747 358.654 22.732 352.947 25.556 352.947 C 28.380 352.947 32.366 358.654 32.366 372.385 C 32.366 386.115 28.380 391.822 25.556 391.822 C 22.732 391.822 18.747 386.115 18.747 372.385 Z"/>
<path fill="#ffffff" fill-rule="evenodd" stroke="#000000" stroke-width="1" stroke-linejoin="round" d="M 465.678 276.542 C 465.664 276.550 409.584 344.537 330.540 351.305 C 192.909 363.088 25.451 358.515 25.421 358.515 C 25.420 358.517 23.159 362.637 23.159 372.385 C 23.159 382.132 25.420 386.252 25.421 386.254 C 25.451 386.254 192.909 382.503 330.540 393.465 C 409.623 399.763 465.664 468.220 465.678 468.227 C 465.678 468.208 465.678 276.561 465.678 276.542 Z"/>
<path fill="#ffffff" fill-rule="evenodd" stroke="#000000" stroke-width="1" stroke-linejoin="round" d="M 465.520 470.943 C 456.704 470.969 446.161 439.378 445.983 372.410 C 445.806 305.478 456.173 273.853 464.985 273.827 C 473.801 273.801 484.344 305.392 484.522 372.359 C 484.699 439.291 474.331 470.917 465.520 470.943 M 465.666 457.800 C 462.660 457.800 453.640 437.369 453.640 372.385 C 453.640 307.400 462.660 286.970 465.666 286.970 C 468.672 286.970 477.692 307.400 477.692 372.385 C 477.692 437.369 468.671 457.800 465.666 457.800 Z"/>
<path fill="none" stroke="#000000" stroke-width="1" stroke-linecap="butt" stroke-linejoin="round" d="M 453.640 372.385 C 453.640 307.400 462.660 286.970 465.666 286.970 "/>
<path fill="none" stroke="#000000" stroke-width="1" stroke-linecap="butt" stroke-linejoin="round" d="M 465.666 286.970 C 468.672 286.970 477.692 307.400 477.692 372.385 "/>
<path fill="none" stroke="#000000" stroke-width="1" stroke-linecap="butt" stroke-linejoin="round" d="M 477.692 372.385 C 477.692 437.369 468.671 457.800 465.666 457.800 "/>
<path fill="none" stroke="#000000" stroke-width="1" stroke-linecap="butt" stroke-linejoin="round" d="M 465.666 457.800 C 462.660 457.800 453.640 437.369 453.640 372.385 "/>
<path fill="#000000" fill-rule="evenodd" stroke="#ffffff" stroke-width="1" stroke-linejoin="round" d="M 453.640 372.385 C 453.640 307.400 462.660 286.970 465.666 286.970 C 468.672 286.970 477.692 307.400 477.692 372.385 C 477.692 437.369 468.671 457.800 465.666 457.800 C 462.660 457.800 453.640 437.369 453.640 372.385 Z"/>
</g>
<g id="specs_2">
<path fill="#ff00ff" fill-rule="evenodd" stroke="none" d="M 712.486 454.553 C 712.486 454.536 712.486 290.233 712.486 290.217 C 712.461 290.217 465.110 290.217 465.085 290.217 C 465.085 290.233 465.085 454.536 465.085 454.553 C 465.110 454.553 712.461 454.553 712.486 454.553 Z"/>
<path fill="#ff0000" fill-rule="evenodd" stroke="none" d="M 48.942 372.385 C 48.940 372.384 24.833 363.775 24.831 363.774 C 24.832 363.775 32.842 372.384 32.843 372.385 C 32.842 372.385 24.832 380.995 24.831 380.996 C 24.833 380.995 48.940 372.385 48.942 372.385 Z"/>
<path fill="#00ff00" fill-rule="evenodd" stroke="none" d="M 38.392 394.496 C 38.392 394.495 34.186 382.903 34.185 382.902 C 34.186 382.902 38.353 386.740 38.353 386.741 C 38.354 386.740 42.481 382.860 42.482 382.860 C 42.481 382.861 38.393 394.495 38.392 394.496 Z"/>
<path fill="#ffff00" fill-rule="evenodd" stroke="none" d="M 190.151 389.663 C 190.150 389.662 181.981 385.910 181.980 385.910 C 181.980 385.910 186.106 385.712 186.106 385.712 C 186.106 385.712 186.206 381.583 186.206 381.583 C 186.207 381.584 190.151 389.662 190.151 389.663 Z"/>
<path fill="#ffff00" fill-rule="evenodd" stroke="none" d="M 190.051 355.107 C 190.050 355.107 181.958 359.022 181.957 359.023 C 181.957 359.023 186.086 359.137 186.086 359.137 C 186.086 359.138 186.269 363.264 186.269 363.264 C 186.269 363.263 190.051 355.107 190.051 355.107 Z"/>
<path fill="#00ff00" fill-rule="evenodd" stroke="none" d="M 38.392 350.273 C 38.392 350.274 34.186 361.866 34.185 361.867 C 34.186 361.867 38.353 358.029 38.353 358.029 C 38.354 358.029 42.481 361.909 42.482 361.909 C 42.481 361.908 38.393 350.274 38.392 350.273 Z"/>
<path fill="#be0027" fill-rule="evenodd" stroke="none" d="M 5.969 372.385 C 5.972 372.384 30.078 363.775 30.080 363.774 C 30.079 363.775 22.069 372.384 22.068 372.385 C 22.069 372.385 30.079 380.995 30.080 380.996 C 30.078 380.995 5.972 372.385 5.969 372.385 Z"/>
</g>
</g>
</svg>
