<?xml version="1.0" encoding="utf-8"?>
<!-- Generator: Moho 12.5 build 22414 -->
<!DOCTYPE svg PUBLIC "-//W3C//DTD SVG 1.1//EN" "http://www.w3.org/Graphics/SVG/1.1/DTD/svg11.dtd">
<svg version="1.1" id="Frame_0" xmlns="http://www.w3.org/2000/svg" xmlns:xlink="http://www.w3.org/1999/xlink" width="720px" height="720px">
<g id="halves">
</g>
<g id="combos">
</g>
<g id="twist_end">
<g id="twist_end_2">
<path fill="#ffffff" fill-rule="evenodd" stroke="none" d="M 378.299 219.368 C 378.204 232.537 368.686 241.934 359.971 253.954 C 351.536 241.436 341.755 232.537 341.701 219.368 C 341.650 207.168 350.850 201.069 360.000 201.069 C 369.150 201.069 378.387 207.204 378.299 219.368 M 540.000 164.424 C 541.194 252.200 504.621 320.356 446.908 382.251 C 474.183 420.974 500.465 461.649 500.000 520.000 C 499.347 601.959 421.471 646.839 360.000 646.839 C 298.529 646.839 220.653 601.959 220.000 520.000 C 219.535 461.649 242.514 418.221 273.094 382.249 C 213.108 320.578 177.520 251.256 180.000 164.424 C 180.633 142.261 180.000 120.004 180.000 120.000 C 180.036 120.000 539.964 119.998 540.000 120.000 C 540.000 120.004 539.694 141.905 540.000 164.424 M 377.332 511.074 C 377.263 499.375 368.731 491.222 360.011 480.091 C 349.591 489.607 342.668 499.396 342.668 511.074 C 342.668 518.427 351.334 528.406 360.000 528.406 C 368.666 528.406 377.383 519.657 377.332 511.074 Z"/>
<path fill="none" stroke="#000000" stroke-width="2" stroke-linecap="round" stroke-linejoin="round" d="M 273.094 382.249 C 242.514 418.221 219.535 461.649 220.000 520.000 C 220.653 601.959 298.529 646.839 360.000 646.839 C 421.471 646.839 499.347 601.959 500.000 520.000 C 500.465 461.649 473.689 421.131 446.908 382.251 C 416.623 338.281 388.099 294.112 359.971 253.954 C 351.247 241.499 341.755 232.537 341.701 219.368 C 341.650 207.168 350.850 201.069 360.000 201.069 C 369.150 201.069 378.350 207.168 378.299 219.368 C 378.245 232.537 368.686 241.934 359.971 253.954 M 360.011 480.091 C 349.591 489.607 342.668 499.396 342.668 511.074 C 342.668 518.427 351.334 528.406 360.000 528.406 C 368.666 528.406 377.332 518.427 377.332 511.074 C 377.332 499.375 368.770 491.078 360.011 480.091 C 334.156 447.663 304.499 414.188 273.094 382.249 C 213.114 321.250 177.616 252.004 180.000 164.424 C 180.594 142.604 180.000 120.004 180.000 120.000 C 180.036 120.000 539.964 119.998 540.000 120.000 C 540.000 120.004 539.723 142.587 540.000 164.424 C 541.112 252.201 504.621 320.356 446.908 382.251 "/>
</g>
<g id="specs_2">
<path fill="#ff0000" fill-rule="evenodd" stroke="none" d="M 360.124 137.907 C 360.125 137.905 369.584 111.419 369.585 111.416 C 369.584 111.417 360.125 120.218 360.124 120.219 C 360.123 120.218 350.664 111.417 350.663 111.416 C 350.664 111.419 360.123 137.905 360.124 137.907 Z"/>
<path fill="#0000ff" fill-rule="evenodd" stroke="none" d="M 360.124 654.307 C 360.125 654.305 365.619 638.920 365.620 638.918 C 365.619 638.919 360.125 644.031 360.124 644.032 C 360.124 644.031 354.629 638.919 354.629 638.918 C 354.629 638.920 360.124 654.305 360.124 654.307 Z"/>
<path fill="#00ff00" fill-rule="evenodd" stroke="none" d="M 177.222 234.705 C 177.223 234.704 192.580 229.132 192.582 229.131 C 192.581 229.132 187.497 234.653 187.496 234.653 C 187.497 234.654 192.637 240.122 192.637 240.123 C 192.636 240.122 177.223 234.705 177.222 234.705 Z"/>
<path fill="#ffff00" fill-rule="evenodd" stroke="none" d="M 240.261 599.485 C 240.262 599.483 247.081 584.638 247.081 584.636 C 247.081 584.637 247.441 592.134 247.441 592.134 C 247.441 592.134 254.944 592.316 254.945 592.316 C 254.943 592.317 240.263 599.484 240.261 599.485 Z"/>
<path fill="#ffff00" fill-rule="evenodd" stroke="none" d="M 479.312 599.303 C 479.311 599.302 472.196 584.595 472.195 584.594 C 472.195 584.595 471.986 592.097 471.986 592.098 C 471.986 592.098 464.488 592.430 464.487 592.430 C 464.488 592.431 479.310 599.302 479.312 599.303 Z"/>
<path fill="#00ff00" fill-rule="evenodd" stroke="none" d="M 541.296 234.705 C 541.295 234.704 525.937 229.132 525.936 229.131 C 525.936 229.132 531.021 234.653 531.022 234.653 C 531.021 234.654 525.881 240.122 525.880 240.123 C 525.882 240.122 541.295 234.705 541.296 234.705 Z"/>
<path fill="#00ffff" fill-rule="evenodd" stroke="none" d="M 543.793 113.583 C 543.792 113.585 538.338 128.985 538.338 128.986 C 538.337 128.985 537.304 121.552 537.304 121.551 C 537.304 121.551 529.815 122.045 529.814 122.045 C 529.816 122.045 543.791 113.584 543.793 113.583 Z"/>
<path fill="#00ffff" fill-rule="evenodd" stroke="none" d="M 176.541 114.094 C 176.542 114.095 183.011 129.097 183.011 129.099 C 183.011 129.098 183.546 121.612 183.546 121.611 C 183.547 121.611 191.052 121.605 191.053 121.605 C 191.051 121.604 176.543 114.094 176.541 114.094 Z"/>
<path fill="#be0027" fill-rule="evenodd" stroke="none" d="M 360.124 102.645 C 360.125 102.648 369.584 129.134 369.585 129.136 C 369.584 129.135 360.125 120.334 360.124 120.333 C 360.123 120.334 350.664 129.135 350.663 129.136 C 350.664 129.134 360.123 102.648 360.124 102.645 Z"/>
<path fill="none" stroke="#ffff00" stroke-width="2" stroke-linecap="round" stroke-linejoin="round" d="M 180.000 120.000 C 180.036 120.000 539.964 119.998 540.000 120.000 "/>
</g>
</g>
</svg>
