<?xml version="1.0" encoding="utf-8"?>
<!-- Generator: Moho 12.5 build 22414 -->
<!DOCTYPE svg PUBLIC "-//W3C//DTD SVG 1.1//EN" "http://www.w3.org/Graphics/SVG/1.1/DTD/svg11.dtd">
<svg version="1.1" id="Frame_0" xmlns="http://www.w3.org/2000/svg" xmlns:xlink="http://www.w3.org/1999/xlink" width="720px" height="720px">
<g id="unihorn">
<g id="unihorn">
<path fill="#ffffff" fill-rule="evenodd" stroke="#000000" stroke-width="4" stroke-linecap="round" stroke-linejoin="round" d="M 360.131 17.885 C 360.132 17.889 366.991 42.718 368.086 54.362 C 369.056 64.684 367.034 84.548 367.281 87.451 C 367.602 91.227 374.712 116.207 375.818 129.647 C 376.867 142.381 374.125 166.837 374.431 170.414 C 374.736 173.972 381.711 197.462 382.673 210.132 C 383.627 222.691 380.265 246.758 380.550 250.286 C 380.843 253.906 388.191 277.726 389.353 290.599 C 390.613 304.557 387.225 331.401 387.700 335.311 C 388.067 338.332 395.634 357.877 396.945 368.628 C 398.907 384.719 394.404 415.802 394.850 420.335 C 395.169 423.583 401.998 444.906 403.214 456.457 C 404.818 471.696 401.395 501.097 402.000 505.360 C 402.432 508.409 410.787 527.958 412.201 538.825 C 414.498 556.467 408.751 590.555 409.149 595.538 C 409.466 599.498 417.093 625.629 418.442 639.702 C 420.064 656.624 420.539 690.422 417.330 693.960 C 413.927 697.712 378.153 700.144 360.131 700.144 C 342.110 700.144 306.361 697.688 302.933 693.960 C 300.416 691.223 298.484 665.000 299.769 651.827 C 300.959 639.630 309.790 617.520 310.083 614.089 C 310.466 609.604 302.954 579.168 304.650 563.239 C 306.020 550.377 316.859 527.527 317.232 523.911 C 317.626 520.100 311.479 494.218 312.627 480.634 C 313.771 467.096 324.112 442.694 324.382 438.886 C 324.626 435.461 318.658 412.393 319.391 400.195 C 320.291 385.219 331.161 358.061 331.532 353.862 C 331.837 350.415 327.803 326.946 328.645 314.662 C 329.651 300.002 338.434 272.959 338.682 268.837 C 338.903 265.175 333.876 240.351 334.871 227.334 C 335.943 213.316 345.450 187.744 345.832 183.812 C 346.214 179.869 342.138 152.915 343.427 138.878 C 344.606 126.022 352.744 102.407 352.982 98.787 C 353.180 95.774 349.063 75.372 349.669 64.643 C 350.516 49.658 360.130 17.890 360.131 17.885 Z"/>
<path fill="none" stroke="#000000" stroke-width="4" stroke-linecap="round" stroke-linejoin="round" d="M 331.532 353.862 C 350.255 347.678 368.977 341.494 387.700 335.311 M 352.982 98.787 C 357.748 95.008 362.515 91.230 367.281 87.451 M 345.832 183.812 C 355.365 179.346 364.898 174.880 374.431 170.414 M 338.682 268.837 C 352.638 262.653 366.594 256.470 380.550 250.286 M 324.382 438.886 C 347.871 432.703 371.361 426.519 394.850 420.335 M 317.232 523.911 C 345.488 517.728 373.744 511.544 402.000 505.360 M 310.083 614.089 C 343.105 607.905 376.127 601.721 409.149 595.538 "/>
</g>
<g id="specs">
<path fill="#ff0000" fill-rule="evenodd" stroke="none" d="M 360.000 662.708 C 360.001 662.711 372.432 697.517 372.433 697.521 C 372.432 697.520 360.001 685.954 360.000 685.952 C 359.999 685.954 347.568 697.520 347.567 697.521 C 347.568 697.517 359.999 662.711 360.000 662.708 Z"/>
<path fill="#0000ff" fill-rule="evenodd" stroke="none" d="M 360.000 17.772 C 360.001 17.774 367.221 37.992 367.222 37.994 C 367.221 37.993 360.001 31.275 360.000 31.274 C 359.999 31.275 352.779 37.993 352.778 37.994 C 352.779 37.992 359.999 17.774 360.000 17.772 Z"/>
<path fill="#00ff00" fill-rule="evenodd" stroke="none" d="M 315.533 361.005 C 315.535 361.004 335.716 353.681 335.718 353.680 C 335.717 353.681 329.036 360.936 329.035 360.936 C 329.036 360.937 335.790 368.124 335.791 368.125 C 335.789 368.124 315.535 361.005 315.533 361.005 Z"/>
<path fill="#ffff00" fill-rule="evenodd" stroke="none" d="M 295.078 703.019 C 295.079 703.017 304.040 683.508 304.041 683.506 C 304.041 683.507 304.513 693.358 304.513 693.359 C 304.514 693.359 314.373 693.598 314.374 693.598 C 314.372 693.599 295.080 703.018 295.078 703.019 Z"/>
<path fill="#ffff00" fill-rule="evenodd" stroke="none" d="M 424.922 702.780 C 424.921 702.778 415.571 683.452 415.570 683.450 C 415.570 683.451 415.296 693.310 415.296 693.311 C 415.295 693.311 405.441 693.748 405.440 693.748 C 405.442 693.749 424.920 702.779 424.922 702.780 Z"/>
<path fill="#00ff00" fill-rule="evenodd" stroke="none" d="M 408.470 361.005 C 408.467 361.004 388.286 353.681 388.284 353.680 C 388.285 353.681 394.966 360.936 394.967 360.936 C 394.966 360.937 388.212 368.124 388.211 368.125 C 388.213 368.124 408.467 361.005 408.470 361.005 Z"/>
<path fill="#00ffff" fill-rule="evenodd" stroke="none" d="M 382.597 117.716 C 382.597 117.718 375.429 137.955 375.429 137.957 C 375.429 137.956 374.071 128.187 374.071 128.186 C 374.070 128.186 364.229 128.836 364.228 128.836 C 364.230 128.835 382.595 117.717 382.597 117.716 Z"/>
<path fill="#00ffff" fill-rule="evenodd" stroke="none" d="M 336.529 118.386 C 336.530 118.388 345.030 138.103 345.031 138.105 C 345.031 138.104 345.734 128.266 345.734 128.265 C 345.735 128.265 355.598 128.257 355.599 128.257 C 355.597 128.256 336.531 118.387 336.529 118.386 Z"/>
<path fill="#be0027" fill-rule="evenodd" stroke="none" d="M 360.000 716.044 C 360.001 716.042 369.045 690.718 369.046 690.716 C 369.045 690.716 360.001 699.131 360.000 699.132 C 359.999 699.131 350.955 690.716 350.954 690.716 C 350.955 690.718 359.999 716.042 360.000 716.044 Z"/>
</g>
</g>
</svg>
