<?xml version="1.0" encoding="utf-8"?>
<!-- Generator: Moho 12.5 build 22414 -->
<!DOCTYPE svg PUBLIC "-//W3C//DTD SVG 1.1//EN" "http://www.w3.org/Graphics/SVG/1.1/DTD/svg11.dtd">
<svg version="1.1" id="Frame_0" xmlns="http://www.w3.org/2000/svg" xmlns:xlink="http://www.w3.org/1999/xlink" width="720px" height="720px">
<g id="wand">
<g id="wand2">
<path fill="#ffffff" fill-rule="evenodd" stroke="#000000" stroke-width="3" stroke-linejoin="round" d="M 360.000 652.249 C 368.420 652.249 375.212 659.041 375.212 667.461 C 375.212 675.881 368.420 682.673 360.000 682.673 C 351.580 682.673 344.788 675.881 344.788 667.461 C 344.788 659.041 351.580 652.249 360.000 652.249 Z"/>
<path fill="#ffffff" fill-rule="evenodd" stroke="#000000" stroke-width="3" stroke-linejoin="round" d="M 374.983 79.618 C 363.886 94.414 337.995 79.619 345.392 116.607 C 356.489 101.811 382.380 116.607 374.983 79.618 Z"/>
<path fill="#ffffff" fill-rule="evenodd" stroke="#000000" stroke-width="3" stroke-linejoin="round" d="M 374.983 98.113 C 363.886 112.908 337.995 98.113 345.392 135.101 C 356.489 120.305 382.380 135.101 374.983 98.113 Z"/>
<path fill="#ffffff" fill-rule="evenodd" stroke="#000000" stroke-width="3" stroke-linejoin="round" d="M 374.983 116.607 C 363.886 131.402 337.995 116.607 345.392 153.595 C 356.489 138.799 382.380 153.595 374.983 116.607 Z"/>
<path fill="#ffffff" fill-rule="evenodd" stroke="#000000" stroke-width="3" stroke-linejoin="round" d="M 374.983 135.101 C 363.886 149.896 337.995 135.101 345.392 172.089 C 356.489 157.293 382.380 172.089 374.983 135.101 Z"/>
<path fill="#ffffff" fill-rule="evenodd" stroke="#000000" stroke-width="3" stroke-linejoin="round" d="M 374.983 153.595 C 363.886 168.390 337.995 153.595 345.392 190.583 C 356.489 175.787 382.380 190.583 374.983 153.595 Z"/>
<path fill="#ffffff" fill-rule="evenodd" stroke="#000000" stroke-width="3" stroke-linejoin="round" d="M 374.983 172.089 C 363.886 186.884 337.995 172.089 345.392 209.077 C 356.489 194.282 382.380 209.077 374.983 172.089 Z"/>
<path fill="#ffffff" fill-rule="evenodd" stroke="#000000" stroke-width="3" stroke-linejoin="round" d="M 374.983 190.583 C 363.886 205.378 337.995 190.583 345.392 227.571 C 356.489 212.776 382.380 227.571 374.983 190.583 Z"/>
<path fill="#ffffff" fill-rule="evenodd" stroke="#000000" stroke-width="3" stroke-linejoin="round" d="M 374.983 209.077 C 363.886 223.872 337.995 209.077 345.392 246.065 C 356.489 231.270 382.380 246.065 374.983 209.077 Z"/>
<path fill="#ffffff" fill-rule="evenodd" stroke="#000000" stroke-width="3" stroke-linejoin="round" d="M 374.983 227.571 C 363.886 242.366 337.995 227.571 345.392 264.559 C 356.489 249.764 382.380 264.559 374.983 227.571 Z"/>
<path fill="#ffffff" fill-rule="evenodd" stroke="#000000" stroke-width="3" stroke-linejoin="round" d="M 374.983 246.065 C 363.886 260.860 337.995 246.065 345.392 283.053 C 356.489 268.258 382.380 283.053 374.983 246.065 Z"/>
<path fill="#ffffff" fill-rule="evenodd" stroke="#000000" stroke-width="3" stroke-linejoin="round" d="M 374.983 264.559 C 363.886 279.354 337.995 264.559 345.392 301.547 C 356.489 286.752 382.380 301.547 374.983 264.559 Z"/>
<path fill="#ffffff" fill-rule="evenodd" stroke="#000000" stroke-width="3" stroke-linejoin="round" d="M 374.983 283.053 C 363.886 297.848 337.995 283.053 345.392 320.041 C 356.489 305.246 382.380 320.041 374.983 283.053 Z"/>
<path fill="#ffffff" fill-rule="evenodd" stroke="#000000" stroke-width="3" stroke-linejoin="round" d="M 374.983 301.547 C 363.886 316.342 337.995 301.547 345.392 338.535 C 356.489 323.740 382.380 338.535 374.983 301.547 Z"/>
<path fill="#ffffff" fill-rule="evenodd" stroke="#000000" stroke-width="3" stroke-linejoin="round" d="M 374.983 320.041 C 363.886 334.836 337.995 320.041 345.392 357.029 C 356.489 342.234 382.380 357.029 374.983 320.041 Z"/>
<path fill="#ffffff" fill-rule="evenodd" stroke="#000000" stroke-width="3" stroke-linejoin="round" d="M 374.983 338.535 C 363.886 353.330 337.995 338.535 345.392 375.523 C 356.489 360.728 382.380 375.523 374.983 338.535 Z"/>
<path fill="#ffffff" fill-rule="evenodd" stroke="#000000" stroke-width="3" stroke-linejoin="round" d="M 374.983 357.029 C 363.886 371.824 337.995 357.029 345.392 394.017 C 356.489 379.222 382.380 394.017 374.983 357.029 Z"/>
<path fill="#ffffff" fill-rule="evenodd" stroke="#000000" stroke-width="3" stroke-linejoin="round" d="M 374.983 375.523 C 363.886 390.318 337.995 375.523 345.392 412.511 C 356.489 397.716 382.380 412.511 374.983 375.523 Z"/>
<path fill="#ffffff" fill-rule="evenodd" stroke="#000000" stroke-width="3" stroke-linejoin="round" d="M 374.983 394.017 C 363.886 408.812 337.995 394.017 345.392 431.005 C 356.489 416.210 382.380 431.005 374.983 394.017 Z"/>
<path fill="#ffffff" fill-rule="evenodd" stroke="#000000" stroke-width="3" stroke-linejoin="round" d="M 374.983 412.511 C 363.886 427.306 337.995 412.511 345.392 449.499 C 356.489 434.704 382.380 449.499 374.983 412.511 Z"/>
<path fill="#ffffff" fill-rule="evenodd" stroke="#000000" stroke-width="3" stroke-linejoin="round" d="M 374.983 431.005 C 363.886 445.801 337.994 431.005 345.392 467.994 C 356.489 453.198 382.381 467.994 374.983 431.005 Z"/>
<path fill="#ffffff" fill-rule="evenodd" stroke="#000000" stroke-width="3" stroke-linejoin="round" d="M 374.983 449.499 C 363.886 464.295 337.995 449.499 345.392 486.488 C 356.489 471.692 382.380 486.487 374.983 449.499 Z"/>
<path fill="#ffffff" fill-rule="evenodd" stroke="#000000" stroke-width="3" stroke-linejoin="round" d="M 374.983 467.994 C 363.886 482.789 337.995 467.994 345.392 504.982 C 356.489 490.186 382.380 504.982 374.983 467.994 Z"/>
<path fill="#ffffff" fill-rule="evenodd" stroke="#000000" stroke-width="3" stroke-linejoin="round" d="M 374.983 486.488 C 363.886 501.283 337.995 486.488 345.392 523.476 C 356.489 508.680 382.380 523.476 374.983 486.488 Z"/>
<path fill="#ffffff" fill-rule="evenodd" stroke="#000000" stroke-width="3" stroke-linejoin="round" d="M 374.983 504.982 C 363.886 519.777 337.995 504.982 345.392 541.970 C 356.489 527.175 382.380 541.970 374.983 504.982 Z"/>
<path fill="#ffffff" fill-rule="evenodd" stroke="#000000" stroke-width="3" stroke-linejoin="round" d="M 374.983 523.476 C 363.886 538.271 337.995 523.476 345.392 560.464 C 356.489 545.668 382.380 560.464 374.983 523.476 Z"/>
<path fill="#ffffff" fill-rule="evenodd" stroke="#000000" stroke-width="3" stroke-linejoin="round" d="M 374.983 541.970 C 363.886 556.765 337.995 541.970 345.392 578.958 C 356.489 564.163 382.380 578.958 374.983 541.970 Z"/>
<path fill="#ffffff" fill-rule="evenodd" stroke="#000000" stroke-width="3" stroke-linejoin="round" d="M 374.983 560.464 C 363.886 575.259 337.995 560.464 345.392 597.452 C 356.489 582.656 382.380 597.452 374.983 560.464 Z"/>
<path fill="#ffffff" fill-rule="evenodd" stroke="#000000" stroke-width="3" stroke-linejoin="round" d="M 374.983 578.958 C 363.886 593.753 337.995 578.958 345.392 615.946 C 356.489 601.151 382.380 615.946 374.983 578.958 Z"/>
<path fill="#ffffff" fill-rule="evenodd" stroke="#000000" stroke-width="3" stroke-linejoin="round" d="M 374.983 597.452 C 363.886 612.247 337.995 597.452 345.392 634.440 C 356.489 619.644 382.380 634.440 374.983 597.452 Z"/>
<path fill="#ffffff" fill-rule="evenodd" stroke="#000000" stroke-width="3" stroke-linejoin="round" d="M 374.983 615.946 C 363.886 630.741 337.995 615.946 345.392 652.934 C 356.489 638.139 382.380 652.934 374.983 615.946 Z"/>
<path fill="#ffffff" fill-rule="evenodd" stroke="#000000" stroke-width="3" stroke-linejoin="round" d="M 374.983 634.440 C 363.886 649.235 337.995 634.440 345.392 671.428 C 356.489 656.633 382.380 671.428 374.983 634.440 Z"/>
<path fill="#ffffff" fill-rule="evenodd" stroke="#000000" stroke-width="3" stroke-linejoin="round" d="M 360.000 47.003 C 368.420 47.003 375.212 53.795 375.212 62.214 C 375.212 70.634 368.420 77.426 360.000 77.426 C 351.580 77.426 344.788 70.634 344.788 62.214 C 344.788 53.795 351.580 47.003 360.000 47.003 Z"/>
<path fill="#ffffff" fill-rule="evenodd" stroke="#000000" stroke-width="3" stroke-linejoin="round" d="M 374.983 79.618 C 363.886 94.414 337.995 79.619 345.392 116.607 C 356.489 101.811 382.380 116.607 374.983 79.618 Z"/>
<path fill="#ffffff" fill-rule="evenodd" stroke="#000000" stroke-width="3" stroke-linejoin="round" d="M 374.983 190.583 C 363.886 205.378 337.995 190.583 345.392 227.571 C 356.489 212.776 382.380 227.571 374.983 190.583 Z"/>
<path fill="#ffffff" fill-rule="evenodd" stroke="#000000" stroke-width="3" stroke-linejoin="round" d="M 374.983 301.547 C 363.886 316.342 337.995 301.547 345.392 338.535 C 356.489 323.740 382.380 338.535 374.983 301.547 Z"/>
<path fill="#ffffff" fill-rule="evenodd" stroke="#000000" stroke-width="3" stroke-linejoin="round" d="M 374.983 412.511 C 363.886 427.306 337.995 412.511 345.392 449.499 C 356.489 434.704 382.380 449.499 374.983 412.511 Z"/>
<path fill="#ffffff" fill-rule="evenodd" stroke="#000000" stroke-width="3" stroke-linejoin="round" d="M 374.983 523.476 C 363.886 538.271 337.995 523.476 345.392 560.464 C 356.489 545.668 382.380 560.464 374.983 523.476 Z"/>
<path fill="#ffffff" fill-rule="evenodd" stroke="#000000" stroke-width="3" stroke-linejoin="round" d="M 374.983 634.440 C 363.886 649.235 337.995 634.440 345.392 671.428 C 356.489 656.633 382.380 671.428 374.983 634.440 Z"/>
<path fill="#ffffff" fill-rule="evenodd" stroke="#000000" stroke-width="3" stroke-linejoin="round" d="M 404.697 98.195 C 393.600 112.990 367.709 98.195 375.106 135.183 C 386.203 120.388 412.094 135.183 404.697 98.195 Z"/>
<path fill="#ffffff" fill-rule="evenodd" stroke="#000000" stroke-width="3" stroke-linejoin="round" d="M 404.697 209.159 C 393.600 223.955 367.708 209.160 375.106 246.148 C 386.203 231.352 412.095 246.147 404.697 209.159 Z"/>
<path fill="#ffffff" fill-rule="evenodd" stroke="#000000" stroke-width="3" stroke-linejoin="round" d="M 404.697 320.124 C 393.600 334.919 367.709 320.124 375.106 357.112 C 386.203 342.317 412.094 357.112 404.697 320.124 Z"/>
<path fill="#ffffff" fill-rule="evenodd" stroke="#000000" stroke-width="3" stroke-linejoin="round" d="M 404.697 431.088 C 393.600 445.883 367.709 431.088 375.106 468.076 C 386.203 453.281 412.094 468.076 404.697 431.088 Z"/>
<path fill="#ffffff" fill-rule="evenodd" stroke="#000000" stroke-width="3" stroke-linejoin="round" d="M 404.697 542.052 C 393.600 556.848 367.709 542.052 375.106 579.040 C 386.203 564.245 412.094 579.040 404.697 542.052 Z"/>
<path fill="#ffffff" fill-rule="evenodd" stroke="#000000" stroke-width="3" stroke-linejoin="round" d="M 315.303 154.010 C 326.400 168.805 352.292 154.010 344.894 190.998 C 333.797 176.203 307.905 190.998 315.303 154.010 Z"/>
<path fill="#ffffff" fill-rule="evenodd" stroke="#000000" stroke-width="3" stroke-linejoin="round" d="M 315.303 264.974 C 326.400 279.769 352.291 264.974 344.894 301.962 C 333.797 287.167 307.906 301.962 315.303 264.974 Z"/>
<path fill="#ffffff" fill-rule="evenodd" stroke="#000000" stroke-width="3" stroke-linejoin="round" d="M 315.303 375.938 C 326.400 390.733 352.292 375.938 344.894 412.926 C 333.797 398.131 307.906 412.926 315.303 375.938 Z"/>
<path fill="#ffffff" fill-rule="evenodd" stroke="#000000" stroke-width="3" stroke-linejoin="round" d="M 315.303 486.903 C 326.400 501.698 352.291 486.903 344.894 523.891 C 333.797 509.095 307.906 523.891 315.303 486.903 Z"/>
<path fill="#ffffff" fill-rule="evenodd" stroke="#000000" stroke-width="3" stroke-linejoin="round" d="M 315.303 597.867 C 326.400 612.662 352.292 597.867 344.894 634.855 C 333.797 620.060 307.906 634.855 315.303 597.867 Z"/>
</g>
<g id="specs_2">
<path fill="#ff00ff" fill-rule="evenodd" stroke="none" d="M 302.460 119.087 C 302.472 119.087 417.528 119.087 417.540 119.087 C 417.540 119.075 417.540 4.018 417.540 4.007 C 417.528 4.007 302.472 4.007 302.460 4.007 C 302.460 4.018 302.460 119.075 302.460 119.087 Z"/>
<path fill="#ff0000" fill-rule="evenodd" stroke="none" d="M 360.000 682.633 C 360.001 682.636 370.735 712.692 370.736 712.695 C 370.735 712.694 360.001 702.707 360.000 702.706 C 359.999 702.707 349.265 712.694 349.264 712.695 C 349.265 712.692 359.999 682.636 360.000 682.633 Z"/>
<path fill="#0000ff" fill-rule="evenodd" stroke="none" d="M 360.000 37.786 C 360.001 37.788 366.236 55.247 366.236 55.248 C 366.236 55.248 360.001 49.447 360.000 49.446 C 359.999 49.447 353.764 55.248 353.764 55.248 C 353.764 55.247 359.999 37.788 360.000 37.786 Z"/>
<path fill="#00ff00" fill-rule="evenodd" stroke="none" d="M 330.813 365.704 C 330.815 365.704 348.242 359.380 348.244 359.379 C 348.243 359.380 342.473 365.645 342.473 365.645 C 342.473 365.646 348.306 371.852 348.307 371.852 C 348.305 371.852 330.815 365.705 330.813 365.704 Z"/>
<path fill="#ffff00" fill-rule="evenodd" stroke="none" d="M 336.670 575.107 C 336.671 575.106 344.408 558.259 344.409 558.257 C 344.409 558.258 344.817 566.765 344.817 566.766 C 344.818 566.766 353.332 566.972 353.332 566.972 C 353.331 566.973 336.671 575.107 336.670 575.107 Z"/>
<path fill="#ffff00" fill-rule="evenodd" stroke="none" d="M 383.330 574.901 C 383.329 574.899 375.255 558.211 375.255 558.209 C 375.255 558.210 375.018 566.724 375.018 566.725 C 375.017 566.725 366.508 567.102 366.508 567.102 C 366.509 567.103 383.329 574.900 383.330 574.901 Z"/>
<path fill="#00ff00" fill-rule="evenodd" stroke="none" d="M 389.187 365.704 C 389.185 365.704 371.758 359.380 371.756 359.379 C 371.757 359.380 377.527 365.645 377.527 365.645 C 377.527 365.646 371.694 371.852 371.693 371.852 C 371.695 371.852 389.185 365.705 389.187 365.704 Z"/>
<path fill="#00ffff" fill-rule="evenodd" stroke="none" d="M 384.040 155.615 C 384.039 155.616 377.850 173.092 377.849 173.094 C 377.849 173.093 376.677 164.657 376.677 164.656 C 376.676 164.656 368.178 165.217 368.177 165.217 C 368.179 165.216 384.038 155.616 384.040 155.615 Z"/>
<path fill="#00ffff" fill-rule="evenodd" stroke="none" d="M 335.960 156.194 C 335.961 156.196 343.302 173.220 343.302 173.221 C 343.302 173.220 343.909 164.725 343.909 164.724 C 343.910 164.724 352.427 164.718 352.427 164.718 C 352.426 164.717 335.962 156.195 335.960 156.194 Z"/>
<path fill="#be0027" fill-rule="evenodd" stroke="none" d="M 360.000 694.855 C 360.001 694.852 370.735 664.796 370.736 664.793 C 370.735 664.794 360.001 674.782 360.000 674.783 C 359.999 674.782 349.265 664.794 349.264 664.793 C 349.265 664.796 359.999 694.852 360.000 694.855 Z"/>
</g>
</g>
</svg>
