<?xml version="1.0" encoding="utf-8"?>
<!-- Generator: Moho 12.5 build 22414 -->
<!DOCTYPE svg PUBLIC "-//W3C//DTD SVG 1.1//EN" "http://www.w3.org/Graphics/SVG/1.1/DTD/svg11.dtd">
<svg version="1.1" id="Frame_0" xmlns="http://www.w3.org/2000/svg" xmlns:xlink="http://www.w3.org/1999/xlink" width="720px" height="720px">
<g id="wand">
<g id="wand">
<path fill="#ffffff" fill-rule="evenodd" stroke="none" d="M 372.234 144.359 C 373.317 145.442 374.226 146.632 374.990 147.941 C 378.093 142.638 378.099 135.974 374.990 130.649 C 378.829 124.075 377.919 115.460 372.234 109.775 C 365.466 103.007 354.547 103.008 347.779 109.775 C 342.094 115.460 341.184 124.075 345.023 130.649 C 345.786 131.958 346.696 133.147 347.779 134.230 C 350.689 137.140 358.073 139.392 358.073 139.392 C 360.649 139.670 368.376 140.502 372.234 144.359 Z"/>
<path fill="none" stroke="#000000" stroke-width="3" stroke-linejoin="round" d="M 372.234 144.359 C 373.317 145.442 374.226 146.632 374.990 147.941 C 378.093 142.638 378.099 135.974 374.990 130.649 C 378.829 124.075 377.919 115.460 372.234 109.775 C 365.466 103.007 354.547 103.008 347.779 109.775 C 342.094 115.460 341.184 124.075 345.023 130.649 C 345.786 131.958 346.696 133.147 347.779 134.230 C 350.689 137.140 358.073 139.392 358.073 139.392 C 360.649 139.670 368.376 140.502 372.234 144.359 M 372.234 127.067 C 373.136 128.305 374.226 129.340 374.990 130.649 M 360.006 121.992 C 360.007 121.992 369.181 122.881 372.234 127.067 "/>
<path fill="#ffffff" fill-rule="evenodd" stroke="#000000" stroke-width="3" stroke-linejoin="round" d="M 345.023 165.233 C 341.920 159.930 341.914 153.266 345.023 147.941 C 345.791 149.256 346.699 150.442 347.779 151.523 C 350.689 154.433 356.227 156.122 358.073 156.684 C 358.073 156.684 368.376 157.794 372.234 161.652 C 373.317 162.735 374.226 163.924 374.990 165.233 C 378.099 170.558 378.093 177.222 374.992 182.524 C 374.222 181.210 373.314 180.025 372.234 178.944 C 368.376 175.087 358.047 173.980 358.047 173.980 C 356.207 173.416 350.689 171.725 347.779 168.814 C 346.699 167.734 345.791 166.548 345.023 165.233 Z"/>
<path fill="#ffffff" fill-rule="evenodd" stroke="#000000" stroke-width="3" stroke-linejoin="round" d="M 345.023 199.819 C 341.914 194.493 341.920 187.830 345.021 182.524 C 345.791 183.841 346.699 185.027 347.779 186.107 C 351.704 190.032 359.440 190.807 362.019 191.066 C 362.019 191.066 369.392 193.394 372.234 196.237 C 373.314 197.317 374.222 198.503 374.990 199.819 C 378.093 205.122 378.100 211.785 374.990 217.109 C 374.226 215.800 373.317 214.611 372.234 213.528 C 369.391 210.685 362.019 208.358 362.019 208.358 C 359.440 208.100 351.704 207.325 347.779 203.399 C 346.696 202.317 345.787 201.128 345.023 199.819 Z"/>
<path fill="#ffffff" fill-rule="evenodd" stroke="#000000" stroke-width="3" stroke-linejoin="round" d="M 345.023 234.401 C 341.920 229.098 341.914 222.435 345.023 217.109 C 345.791 218.426 346.699 219.612 347.779 220.692 C 350.689 223.602 356.227 225.290 358.073 225.853 C 358.073 225.853 368.376 226.963 372.234 230.820 C 373.317 231.903 374.226 233.092 374.990 234.401 C 378.099 239.727 378.093 246.390 374.990 251.693 C 374.226 250.385 373.317 249.195 372.234 248.112 C 368.376 244.255 358.073 243.145 358.073 243.145 C 356.227 242.582 350.689 240.893 347.779 237.983 C 346.699 236.903 345.791 235.717 345.023 234.401 Z"/>
<path fill="#ffffff" fill-rule="evenodd" stroke="#000000" stroke-width="3" stroke-linejoin="round" d="M 345.023 268.986 C 341.920 263.683 341.914 257.019 345.023 251.693 C 345.791 253.009 346.699 254.195 347.779 255.275 C 350.689 258.185 356.227 259.874 358.073 260.437 C 358.073 260.437 368.376 261.547 372.234 265.405 C 373.317 266.488 374.226 267.677 374.990 268.986 C 378.099 274.311 378.093 280.975 374.990 286.278 C 374.226 284.969 373.316 283.780 372.233 282.697 C 368.376 278.839 358.073 277.729 358.073 277.729 C 356.227 277.166 350.689 275.478 347.779 272.567 C 346.699 271.487 345.791 270.301 345.023 268.986 Z"/>
<path fill="#ffffff" fill-rule="evenodd" stroke="#000000" stroke-width="3" stroke-linejoin="round" d="M 345.023 303.570 C 341.920 298.267 341.914 291.604 345.023 286.278 C 345.791 287.594 346.699 288.780 347.779 289.860 C 350.689 292.770 356.227 294.459 358.073 295.022 C 358.073 295.022 368.376 296.132 372.233 299.989 C 373.316 301.072 374.226 302.261 374.990 303.570 C 378.099 308.896 378.093 315.560 374.990 320.863 C 374.226 319.554 373.316 318.365 372.233 317.282 C 368.376 313.424 358.072 312.315 358.072 312.315 C 356.226 311.751 350.689 310.062 347.779 307.152 C 346.699 306.072 345.791 304.886 345.023 303.570 Z"/>
<path fill="#ffffff" fill-rule="evenodd" stroke="#000000" stroke-width="3" stroke-linejoin="round" d="M 345.022 338.154 C 341.919 332.852 341.914 326.189 345.023 320.863 C 345.791 322.178 346.698 323.364 347.778 324.444 C 350.688 327.355 356.226 329.043 358.072 329.606 C 358.072 329.606 368.376 330.715 372.233 334.573 C 373.316 335.656 374.226 336.845 374.990 338.154 C 378.099 343.480 378.093 350.144 374.989 355.447 C 374.225 354.138 373.315 352.949 372.232 351.866 C 368.375 348.009 358.072 346.899 358.072 346.899 C 356.226 346.336 350.689 344.647 347.778 341.737 C 346.698 340.657 345.791 339.471 345.022 338.154 Z"/>
<path fill="#ffffff" fill-rule="evenodd" stroke="#000000" stroke-width="3" stroke-linejoin="round" d="M 345.022 372.738 C 341.919 367.437 341.913 360.773 345.022 355.447 C 345.791 356.762 346.698 357.948 347.778 359.028 C 350.689 361.938 356.325 363.616 358.204 364.176 C 358.204 364.176 368.375 365.300 372.233 369.157 C 373.316 370.240 374.226 371.430 374.990 372.738 C 378.099 378.064 378.093 384.728 374.991 390.030 C 374.221 388.716 373.313 387.530 372.233 386.450 C 368.443 382.660 358.390 381.450 358.390 381.450 C 356.481 380.912 350.755 379.299 347.777 376.321 C 346.697 375.241 345.790 374.055 345.022 372.738 Z"/>
<path fill="#ffffff" fill-rule="evenodd" stroke="#000000" stroke-width="3" stroke-linejoin="round" d="M 372.233 421.034 C 368.974 417.775 364.752 416.085 360.461 415.969 C 359.762 416.089 350.756 413.883 347.778 410.905 C 346.695 409.822 345.786 408.633 345.022 407.323 C 341.913 401.998 341.919 395.335 345.020 390.029 C 345.790 391.346 346.871 392.383 347.778 393.612 C 350.956 397.921 360.482 398.681 360.483 398.682 C 364.364 399.497 369.304 399.681 372.233 403.742 C 373.129 404.984 374.226 406.014 374.990 407.323 C 378.098 412.649 378.092 419.313 374.990 424.615 C 374.226 423.307 373.316 422.117 372.233 421.034 Z"/>
<path fill="#ffffff" fill-rule="evenodd" stroke="#000000" stroke-width="3" stroke-linejoin="round" d="M 345.022 441.908 C 341.919 436.605 341.913 429.941 345.022 424.615 C 345.790 425.931 346.698 427.117 347.778 428.197 C 350.756 431.175 356.481 432.789 358.390 433.327 C 358.390 433.327 368.444 434.537 372.233 438.327 C 373.316 439.410 374.226 440.599 374.990 441.908 C 378.098 447.233 378.092 453.897 374.990 459.199 C 374.226 457.891 373.316 456.701 372.233 455.618 C 368.376 451.761 358.046 450.654 358.046 450.654 C 356.207 450.090 350.689 448.400 347.778 445.489 C 346.698 444.409 345.790 443.223 345.022 441.908 Z"/>
<path fill="#ffffff" fill-rule="evenodd" stroke="#000000" stroke-width="3" stroke-linejoin="round" d="M 345.022 476.492 C 341.919 471.189 341.913 464.525 345.022 459.199 C 345.790 460.516 346.698 461.702 347.778 462.782 C 350.689 465.692 356.207 467.383 358.046 467.946 C 358.046 467.946 368.376 469.053 372.233 472.911 C 373.316 473.994 374.226 475.183 374.990 476.492 C 378.098 481.818 378.092 488.481 374.990 493.784 C 374.226 492.475 373.316 491.286 372.233 490.203 C 368.376 486.345 358.046 485.238 358.046 485.238 C 356.207 484.674 350.689 482.984 347.778 480.073 C 346.698 478.993 345.790 477.808 345.022 476.492 Z"/>
<path fill="#ffffff" fill-rule="evenodd" stroke="#000000" stroke-width="3" stroke-linejoin="round" d="M 345.022 511.076 C 341.919 505.773 341.913 499.110 345.022 493.784 C 345.790 495.100 346.698 496.286 347.778 497.366 C 350.689 500.276 356.207 501.967 358.046 502.530 C 358.046 502.530 368.376 503.637 372.233 507.495 C 373.316 508.578 374.226 509.767 374.990 511.076 C 378.098 516.402 378.092 523.065 374.990 528.368 C 374.226 527.059 373.316 525.870 372.233 524.787 C 368.376 520.930 358.046 519.823 358.046 519.823 C 356.207 519.259 350.689 517.568 347.778 514.658 C 346.698 513.578 345.790 512.392 345.022 511.076 Z"/>
<path fill="#ffffff" fill-rule="evenodd" stroke="#000000" stroke-width="3" stroke-linejoin="round" d="M 345.022 545.661 C 341.919 540.358 341.913 533.694 345.022 528.368 C 345.790 529.684 346.698 530.870 347.778 531.950 C 350.689 534.860 356.226 536.549 358.072 537.112 C 358.072 537.112 368.375 538.222 372.233 542.080 C 373.316 543.163 374.226 544.352 374.990 545.661 C 378.099 550.986 378.092 557.650 374.990 562.953 C 374.226 561.644 373.316 560.455 372.233 559.372 C 368.375 555.515 358.072 554.405 358.072 554.405 C 356.226 553.842 350.689 552.152 347.778 549.242 C 346.698 548.162 345.790 546.976 345.022 545.661 Z"/>
<path fill="#ffffff" fill-rule="evenodd" stroke="#000000" stroke-width="3" stroke-linejoin="round" d="M 345.022 580.246 C 341.919 574.942 341.913 568.279 345.022 562.953 C 345.790 564.269 346.698 565.455 347.778 566.535 C 350.688 569.445 356.226 571.134 358.072 571.697 C 358.072 571.697 368.375 572.807 372.233 576.665 C 373.316 577.747 374.226 578.937 374.990 580.246 C 378.099 585.571 378.092 592.235 374.990 597.537 C 374.226 596.228 373.316 595.039 372.233 593.956 C 368.376 590.098 358.072 588.988 358.072 588.988 C 356.226 588.426 350.688 586.738 347.778 583.827 C 346.698 582.747 345.790 581.561 345.022 580.246 Z"/>
<path fill="#ffffff" fill-rule="evenodd" stroke="#000000" stroke-width="3" stroke-linejoin="round" d="M 345.022 614.830 C 341.919 609.526 341.913 602.862 345.022 597.537 C 345.790 598.854 346.698 600.040 347.778 601.120 C 350.688 604.030 356.226 605.718 358.072 606.281 C 358.072 606.281 368.375 607.391 372.233 611.249 C 373.316 612.332 374.226 613.521 374.990 614.830 C 378.099 620.155 378.092 626.819 374.990 632.121 C 374.226 630.812 373.316 629.623 372.233 628.540 C 368.376 624.682 358.072 623.573 358.072 623.573 C 356.226 623.010 350.689 621.321 347.778 618.411 C 346.698 617.331 345.790 616.145 345.022 614.830 Z"/>
<path fill="#ffffff" fill-rule="evenodd" stroke="none" d="M 347.778 635.704 C 346.698 634.624 345.790 633.438 345.022 632.121 C 341.913 637.447 341.919 644.110 345.022 649.413 C 341.184 655.988 342.093 664.602 347.778 670.287 C 354.546 677.055 365.465 677.056 372.233 670.288 C 377.918 664.603 378.828 655.988 374.990 649.413 C 374.226 648.104 373.316 646.915 372.233 645.832 C 368.375 641.975 358.072 640.865 358.072 640.865 C 356.226 640.302 350.688 638.614 347.778 635.704 Z"/>
<path fill="none" stroke="#000000" stroke-width="3" stroke-linejoin="round" d="M 345.022 649.413 C 345.791 650.729 346.895 651.749 347.778 652.995 C 350.529 656.876 358.838 658.031 358.839 658.032 M 347.778 635.704 C 346.698 634.624 345.790 633.438 345.022 632.121 C 341.913 637.447 341.919 644.110 345.022 649.413 C 341.184 655.988 342.093 664.602 347.778 670.287 C 354.546 677.055 365.465 677.056 372.233 670.288 C 377.918 664.603 378.828 655.988 374.990 649.413 C 374.226 648.104 373.316 646.915 372.233 645.832 C 368.375 641.975 358.072 640.865 358.072 640.865 C 356.226 640.302 350.688 638.614 347.778 635.704 "/>
<path fill="none" stroke="#ffffff" stroke-width="1" stroke-linecap="butt" stroke-linejoin="round" d="M 374.990 165.233 C 374.226 163.924 373.317 162.735 372.234 161.652 "/>
<path fill="none" stroke="#ffffff" stroke-width="1" stroke-linecap="butt" stroke-linejoin="round" d="M 372.234 161.652 C 368.376 157.794 358.073 156.684 358.073 156.684 "/>
<path fill="none" stroke="#ffffff" stroke-width="1" stroke-linecap="butt" stroke-linejoin="round" d="M 358.073 156.684 C 356.227 156.122 350.689 154.433 347.779 151.523 "/>
<path fill="none" stroke="#ffffff" stroke-width="1" stroke-linecap="butt" stroke-linejoin="round" d="M 347.779 151.523 C 346.699 150.442 345.791 149.256 345.023 147.941 "/>
<path fill="none" stroke="#ffffff" stroke-width="1" stroke-linecap="butt" stroke-linejoin="round" d="M 345.023 130.649 C 345.786 131.958 346.696 133.147 347.779 134.230 "/>
<path fill="none" stroke="#ffffff" stroke-width="1" stroke-linecap="butt" stroke-linejoin="round" d="M 347.779 134.230 C 350.689 137.140 358.073 139.392 358.073 139.392 "/>
<path fill="none" stroke="#ffffff" stroke-width="1" stroke-linecap="butt" stroke-linejoin="round" d="M 358.073 139.392 C 360.649 139.670 368.376 140.502 372.234 144.359 "/>
<path fill="none" stroke="#ffffff" stroke-width="1" stroke-linecap="butt" stroke-linejoin="round" d="M 372.234 144.359 C 373.317 145.442 374.226 146.632 374.990 147.941 "/>
<path fill="#ffffff" fill-rule="evenodd" stroke="#000000" stroke-width="3" stroke-linejoin="round" d="M 374.990 147.941 C 378.099 153.266 378.093 159.930 374.990 165.233 C 374.226 163.924 373.317 162.735 372.234 161.652 C 368.376 157.794 358.073 156.684 358.073 156.684 C 356.227 156.122 350.689 154.433 347.779 151.523 C 346.699 150.442 345.791 149.256 345.023 147.941 C 341.920 142.638 341.914 135.974 345.023 130.649 C 345.786 131.958 346.696 133.147 347.779 134.230 C 350.689 137.140 358.073 139.392 358.073 139.392 C 360.649 139.670 368.376 140.502 372.234 144.359 C 373.317 145.442 374.226 146.632 374.990 147.941 Z"/>
<path fill="none" stroke="#ffffff" stroke-width="1" stroke-linecap="butt" stroke-linejoin="round" d="M 345.023 165.233 C 345.791 166.548 346.699 167.734 347.779 168.814 "/>
<path fill="none" stroke="#ffffff" stroke-width="1" stroke-linecap="butt" stroke-linejoin="round" d="M 347.779 168.814 C 350.689 171.725 356.207 173.416 358.047 173.980 "/>
<path fill="none" stroke="#ffffff" stroke-width="1" stroke-linecap="butt" stroke-linejoin="round" d="M 358.047 173.980 C 358.047 173.980 368.376 175.087 372.234 178.944 "/>
<path fill="none" stroke="#ffffff" stroke-width="1" stroke-linecap="butt" stroke-linejoin="round" d="M 372.234 178.944 C 373.314 180.025 374.222 181.210 374.992 182.524 "/>
<path fill="none" stroke="#ffffff" stroke-width="1" stroke-linecap="butt" stroke-linejoin="round" d="M 374.990 199.819 C 374.222 198.503 373.314 197.317 372.234 196.237 "/>
<path fill="none" stroke="#ffffff" stroke-width="1" stroke-linecap="butt" stroke-linejoin="round" d="M 372.234 196.237 C 369.392 193.394 362.019 191.066 362.019 191.066 "/>
<path fill="none" stroke="#ffffff" stroke-width="1" stroke-linecap="butt" stroke-linejoin="round" d="M 362.019 191.066 C 359.440 190.807 351.704 190.032 347.779 186.107 "/>
<path fill="none" stroke="#ffffff" stroke-width="1" stroke-linecap="butt" stroke-linejoin="round" d="M 347.779 186.107 C 346.699 185.027 345.791 183.841 345.021 182.524 "/>
<path fill="#ffffff" fill-rule="evenodd" stroke="#000000" stroke-width="3" stroke-linejoin="round" d="M 345.021 182.524 C 341.920 177.222 341.914 170.559 345.023 165.233 C 345.791 166.548 346.699 167.734 347.779 168.814 C 350.689 171.725 356.207 173.416 358.047 173.980 C 358.047 173.980 368.376 175.087 372.234 178.944 C 373.314 180.025 374.222 181.210 374.992 182.524 C 378.093 187.829 378.099 194.493 374.990 199.819 C 374.222 198.503 373.314 197.317 372.234 196.237 C 369.392 193.394 362.019 191.066 362.019 191.066 C 359.440 190.807 351.704 190.032 347.779 186.107 C 346.699 185.027 345.791 183.841 345.021 182.524 Z"/>
<path fill="none" stroke="#ffffff" stroke-width="1" stroke-linecap="butt" stroke-linejoin="round" d="M 345.023 199.819 C 345.787 201.128 346.696 202.317 347.779 203.399 "/>
<path fill="none" stroke="#ffffff" stroke-width="1" stroke-linecap="butt" stroke-linejoin="round" d="M 347.779 203.399 C 351.704 207.325 359.440 208.100 362.019 208.358 "/>
<path fill="none" stroke="#ffffff" stroke-width="1" stroke-linecap="butt" stroke-linejoin="round" d="M 362.019 208.358 C 362.019 208.358 369.391 210.685 372.234 213.528 "/>
<path fill="none" stroke="#ffffff" stroke-width="1" stroke-linecap="butt" stroke-linejoin="round" d="M 372.234 213.528 C 373.317 214.611 374.226 215.800 374.990 217.109 "/>
<path fill="none" stroke="#ffffff" stroke-width="1" stroke-linecap="butt" stroke-linejoin="round" d="M 374.990 234.401 C 374.226 233.092 373.317 231.903 372.234 230.820 "/>
<path fill="none" stroke="#ffffff" stroke-width="1" stroke-linecap="butt" stroke-linejoin="round" d="M 372.234 230.820 C 368.376 226.963 358.073 225.853 358.073 225.853 "/>
<path fill="none" stroke="#ffffff" stroke-width="1" stroke-linecap="butt" stroke-linejoin="round" d="M 358.073 225.853 C 356.227 225.290 350.689 223.602 347.779 220.692 "/>
<path fill="none" stroke="#ffffff" stroke-width="1" stroke-linecap="butt" stroke-linejoin="round" d="M 347.779 220.692 C 346.699 219.612 345.791 218.426 345.023 217.109 "/>
<path fill="#ffffff" fill-rule="evenodd" stroke="#000000" stroke-width="3" stroke-linejoin="round" d="M 345.023 217.109 C 341.920 211.807 341.914 205.144 345.023 199.819 C 345.787 201.128 346.696 202.317 347.779 203.399 C 351.704 207.325 359.440 208.100 362.019 208.358 C 362.019 208.358 369.391 210.685 372.234 213.528 C 373.317 214.611 374.226 215.800 374.990 217.109 C 378.099 222.434 378.093 229.098 374.990 234.401 C 374.226 233.092 373.317 231.903 372.234 230.820 C 368.376 226.963 358.073 225.853 358.073 225.853 C 356.227 225.290 350.689 223.602 347.779 220.692 C 346.699 219.612 345.791 218.426 345.023 217.109 Z"/>
<path fill="none" stroke="#ffffff" stroke-width="1" stroke-linecap="butt" stroke-linejoin="round" d="M 345.023 234.401 C 345.791 235.717 346.699 236.903 347.779 237.983 "/>
<path fill="none" stroke="#ffffff" stroke-width="1" stroke-linecap="butt" stroke-linejoin="round" d="M 347.779 237.983 C 350.689 240.893 356.227 242.582 358.073 243.145 "/>
<path fill="none" stroke="#ffffff" stroke-width="1" stroke-linecap="butt" stroke-linejoin="round" d="M 358.073 243.145 C 358.073 243.145 368.376 244.255 372.234 248.112 "/>
<path fill="none" stroke="#ffffff" stroke-width="1" stroke-linecap="butt" stroke-linejoin="round" d="M 372.234 248.112 C 373.317 249.195 374.226 250.385 374.990 251.693 "/>
<path fill="none" stroke="#ffffff" stroke-width="1" stroke-linecap="butt" stroke-linejoin="round" d="M 374.990 268.986 C 374.226 267.677 373.317 266.488 372.234 265.405 "/>
<path fill="none" stroke="#ffffff" stroke-width="1" stroke-linecap="butt" stroke-linejoin="round" d="M 372.234 265.405 C 368.376 261.547 358.073 260.437 358.073 260.437 "/>
<path fill="none" stroke="#ffffff" stroke-width="1" stroke-linecap="butt" stroke-linejoin="round" d="M 358.073 260.437 C 356.227 259.874 350.689 258.185 347.779 255.275 "/>
<path fill="none" stroke="#ffffff" stroke-width="1" stroke-linecap="butt" stroke-linejoin="round" d="M 347.779 255.275 C 346.699 254.195 345.791 253.009 345.023 251.693 "/>
<path fill="#ffffff" fill-rule="evenodd" stroke="#000000" stroke-width="3" stroke-linejoin="round" d="M 345.023 251.693 C 341.920 246.390 341.914 239.727 345.023 234.401 C 345.791 235.717 346.699 236.903 347.779 237.983 C 350.689 240.893 356.227 242.582 358.073 243.145 C 358.073 243.145 368.376 244.255 372.234 248.112 C 373.317 249.195 374.226 250.385 374.990 251.693 C 378.099 257.019 378.093 263.683 374.990 268.986 C 374.226 267.677 373.317 266.488 372.234 265.405 C 368.376 261.547 358.073 260.437 358.073 260.437 C 356.227 259.874 350.689 258.185 347.779 255.275 C 346.699 254.195 345.791 253.009 345.023 251.693 Z"/>
<path fill="none" stroke="#ffffff" stroke-width="1" stroke-linecap="butt" stroke-linejoin="round" d="M 345.023 268.986 C 345.791 270.301 346.699 271.487 347.779 272.567 "/>
<path fill="none" stroke="#ffffff" stroke-width="1" stroke-linecap="butt" stroke-linejoin="round" d="M 347.779 272.567 C 350.689 275.478 356.227 277.166 358.073 277.729 "/>
<path fill="none" stroke="#ffffff" stroke-width="1" stroke-linecap="butt" stroke-linejoin="round" d="M 358.073 277.729 C 358.073 277.729 368.376 278.839 372.233 282.697 "/>
<path fill="none" stroke="#ffffff" stroke-width="1" stroke-linecap="butt" stroke-linejoin="round" d="M 372.233 282.697 C 373.316 283.780 374.226 284.969 374.990 286.278 "/>
<path fill="none" stroke="#ffffff" stroke-width="1" stroke-linecap="butt" stroke-linejoin="round" d="M 374.990 303.570 C 374.226 302.261 373.316 301.072 372.233 299.989 "/>
<path fill="none" stroke="#ffffff" stroke-width="1" stroke-linecap="butt" stroke-linejoin="round" d="M 372.233 299.989 C 368.376 296.132 358.073 295.022 358.073 295.022 "/>
<path fill="none" stroke="#ffffff" stroke-width="1" stroke-linecap="butt" stroke-linejoin="round" d="M 358.073 295.022 C 356.227 294.459 350.689 292.770 347.779 289.860 "/>
<path fill="none" stroke="#ffffff" stroke-width="1" stroke-linecap="butt" stroke-linejoin="round" d="M 347.779 289.860 C 346.699 288.780 345.791 287.594 345.023 286.278 "/>
<path fill="#ffffff" fill-rule="evenodd" stroke="#000000" stroke-width="3" stroke-linejoin="round" d="M 345.023 286.278 C 341.920 280.975 341.914 274.312 345.023 268.986 C 345.791 270.301 346.699 271.487 347.779 272.567 C 350.689 275.478 356.227 277.166 358.073 277.729 C 358.073 277.729 368.376 278.839 372.233 282.697 C 373.316 283.780 374.226 284.969 374.990 286.278 C 378.099 291.603 378.093 298.267 374.990 303.570 C 374.226 302.261 373.316 301.072 372.233 299.989 C 368.376 296.132 358.073 295.022 358.073 295.022 C 356.227 294.459 350.689 292.770 347.779 289.860 C 346.699 288.780 345.791 287.594 345.023 286.278 Z"/>
<path fill="none" stroke="#ffffff" stroke-width="1" stroke-linecap="butt" stroke-linejoin="round" d="M 345.023 303.570 C 345.791 304.886 346.699 306.072 347.779 307.152 "/>
<path fill="none" stroke="#ffffff" stroke-width="1" stroke-linecap="butt" stroke-linejoin="round" d="M 347.779 307.152 C 350.689 310.062 356.226 311.751 358.072 312.315 "/>
<path fill="none" stroke="#ffffff" stroke-width="1" stroke-linecap="butt" stroke-linejoin="round" d="M 358.072 312.315 C 358.072 312.315 368.376 313.424 372.233 317.282 "/>
<path fill="none" stroke="#ffffff" stroke-width="1" stroke-linecap="butt" stroke-linejoin="round" d="M 372.233 317.282 C 373.316 318.365 374.226 319.554 374.990 320.863 "/>
<path fill="none" stroke="#ffffff" stroke-width="1" stroke-linecap="butt" stroke-linejoin="round" d="M 374.990 338.154 C 374.226 336.845 373.316 335.656 372.233 334.573 "/>
<path fill="none" stroke="#ffffff" stroke-width="1" stroke-linecap="butt" stroke-linejoin="round" d="M 372.233 334.573 C 368.376 330.715 358.072 329.606 358.072 329.606 "/>
<path fill="none" stroke="#ffffff" stroke-width="1" stroke-linecap="butt" stroke-linejoin="round" d="M 358.072 329.606 C 356.226 329.043 350.688 327.355 347.778 324.444 "/>
<path fill="none" stroke="#ffffff" stroke-width="1" stroke-linecap="butt" stroke-linejoin="round" d="M 347.778 324.444 C 346.698 323.364 345.791 322.178 345.023 320.863 "/>
<path fill="#ffffff" fill-rule="evenodd" stroke="#000000" stroke-width="3" stroke-linejoin="round" d="M 345.023 320.863 C 341.920 315.560 341.914 308.896 345.023 303.570 C 345.791 304.886 346.699 306.072 347.779 307.152 C 350.689 310.062 356.226 311.751 358.072 312.315 C 358.072 312.315 368.376 313.424 372.233 317.282 C 373.316 318.365 374.226 319.554 374.990 320.863 C 378.099 326.189 378.093 332.853 374.990 338.154 C 374.226 336.845 373.316 335.656 372.233 334.573 C 368.376 330.715 358.072 329.606 358.072 329.606 C 356.226 329.043 350.688 327.355 347.778 324.444 C 346.698 323.364 345.791 322.178 345.023 320.863 Z"/>
<path fill="none" stroke="#ffffff" stroke-width="1" stroke-linecap="butt" stroke-linejoin="round" d="M 345.022 338.154 C 345.791 339.471 346.698 340.657 347.778 341.737 "/>
<path fill="none" stroke="#ffffff" stroke-width="1" stroke-linecap="butt" stroke-linejoin="round" d="M 347.778 341.737 C 350.689 344.647 356.226 346.336 358.072 346.899 "/>
<path fill="none" stroke="#ffffff" stroke-width="1" stroke-linecap="butt" stroke-linejoin="round" d="M 358.072 346.899 C 358.072 346.899 368.375 348.009 372.232 351.866 "/>
<path fill="none" stroke="#ffffff" stroke-width="1" stroke-linecap="butt" stroke-linejoin="round" d="M 372.232 351.866 C 373.315 352.949 374.225 354.138 374.989 355.447 "/>
<path fill="none" stroke="#ffffff" stroke-width="1" stroke-linecap="butt" stroke-linejoin="round" d="M 374.990 372.738 C 374.226 371.430 373.316 370.240 372.233 369.157 "/>
<path fill="none" stroke="#ffffff" stroke-width="1" stroke-linecap="butt" stroke-linejoin="round" d="M 372.233 369.157 C 368.375 365.300 358.204 364.176 358.204 364.176 "/>
<path fill="none" stroke="#ffffff" stroke-width="1" stroke-linecap="butt" stroke-linejoin="round" d="M 358.204 364.176 C 356.325 363.616 350.689 361.938 347.778 359.028 "/>
<path fill="none" stroke="#ffffff" stroke-width="1" stroke-linecap="butt" stroke-linejoin="round" d="M 347.778 359.028 C 346.698 357.948 345.791 356.762 345.022 355.447 "/>
<path fill="#ffffff" fill-rule="evenodd" stroke="#000000" stroke-width="3" stroke-linejoin="round" d="M 345.022 355.447 C 341.919 350.143 341.913 343.480 345.022 338.154 C 345.791 339.471 346.698 340.657 347.778 341.737 C 350.689 344.647 356.226 346.336 358.072 346.899 C 358.072 346.899 368.375 348.009 372.232 351.866 C 373.315 352.949 374.225 354.138 374.989 355.447 C 378.098 360.773 378.092 367.437 374.990 372.738 C 374.226 371.430 373.316 370.240 372.233 369.157 C 368.375 365.300 358.204 364.176 358.204 364.176 C 356.325 363.616 350.689 361.938 347.778 359.028 C 346.698 357.948 345.791 356.762 345.022 355.447 Z"/>
<path fill="none" stroke="#ffffff" stroke-width="1" stroke-linecap="butt" stroke-linejoin="round" d="M 347.777 376.321 C 346.697 375.241 345.790 374.055 345.022 372.738 "/>
<path fill="none" stroke="#ffffff" stroke-width="1" stroke-linecap="butt" stroke-linejoin="round" d="M 345.020 390.029 C 345.790 391.346 346.871 392.383 347.778 393.612 "/>
<path fill="none" stroke="#ffffff" stroke-width="1" stroke-linecap="butt" stroke-linejoin="round" d="M 347.778 393.612 C 350.956 397.921 360.482 398.681 360.483 398.682 "/>
<path fill="none" stroke="#ffffff" stroke-width="1" stroke-linecap="butt" stroke-linejoin="round" d="M 360.483 398.682 C 364.364 399.497 369.304 399.681 372.233 403.742 "/>
<path fill="none" stroke="#ffffff" stroke-width="1" stroke-linecap="butt" stroke-linejoin="round" d="M 372.233 403.742 C 373.129 404.984 374.226 406.014 374.990 407.323 "/>
<path fill="none" stroke="#ffffff" stroke-width="1" stroke-linecap="butt" stroke-linejoin="round" d="M 374.991 390.030 C 374.221 388.716 373.313 387.530 372.233 386.450 "/>
<path fill="none" stroke="#ffffff" stroke-width="1" stroke-linecap="butt" stroke-linejoin="round" d="M 372.233 386.450 C 368.443 382.660 358.390 381.450 358.390 381.450 "/>
<path fill="none" stroke="#ffffff" stroke-width="1" stroke-linecap="butt" stroke-linejoin="round" d="M 358.390 381.450 C 356.481 380.912 350.755 379.299 347.777 376.321 "/>
<path fill="#ffffff" fill-rule="evenodd" stroke="#000000" stroke-width="3" stroke-linejoin="round" d="M 347.777 376.321 C 346.697 375.241 345.790 374.055 345.022 372.738 C 341.913 378.064 341.919 384.728 345.020 390.029 C 345.790 391.346 346.871 392.383 347.778 393.612 C 350.956 397.921 360.482 398.681 360.483 398.682 C 364.364 399.497 369.304 399.681 372.233 403.742 C 373.129 404.984 374.226 406.014 374.990 407.323 C 378.098 401.998 378.092 395.335 374.991 390.030 C 374.221 388.716 373.313 387.530 372.233 386.450 C 368.443 382.660 358.390 381.450 358.390 381.450 C 356.481 380.912 350.755 379.299 347.777 376.321 Z"/>
<path fill="none" stroke="#ffffff" stroke-width="1" stroke-linecap="butt" stroke-linejoin="round" d="M 345.022 407.323 C 345.786 408.633 346.695 409.822 347.778 410.905 "/>
<path fill="none" stroke="#ffffff" stroke-width="1" stroke-linecap="butt" stroke-linejoin="round" d="M 347.778 410.905 C 350.756 413.883 359.762 416.089 360.461 415.969 "/>
<path fill="none" stroke="#ffffff" stroke-width="1" stroke-linecap="butt" stroke-linejoin="round" d="M 360.461 415.969 C 364.752 416.085 368.974 417.775 372.233 421.034 "/>
<path fill="none" stroke="#ffffff" stroke-width="1" stroke-linecap="butt" stroke-linejoin="round" d="M 372.233 421.034 C 373.316 422.117 374.226 423.307 374.990 424.615 "/>
<path fill="none" stroke="#ffffff" stroke-width="1" stroke-linecap="butt" stroke-linejoin="round" d="M 374.990 441.908 C 374.226 440.599 373.316 439.410 372.233 438.327 "/>
<path fill="none" stroke="#ffffff" stroke-width="1" stroke-linecap="butt" stroke-linejoin="round" d="M 372.233 438.327 C 368.444 434.537 358.390 433.327 358.390 433.327 "/>
<path fill="none" stroke="#ffffff" stroke-width="1" stroke-linecap="butt" stroke-linejoin="round" d="M 358.390 433.327 C 356.481 432.789 350.756 431.175 347.778 428.197 "/>
<path fill="none" stroke="#ffffff" stroke-width="1" stroke-linecap="butt" stroke-linejoin="round" d="M 347.778 428.197 C 346.698 427.117 345.790 425.931 345.022 424.615 "/>
<path fill="#ffffff" fill-rule="evenodd" stroke="#000000" stroke-width="3" stroke-linejoin="round" d="M 345.022 424.615 C 341.919 419.313 341.913 412.649 345.022 407.323 C 345.786 408.633 346.695 409.822 347.778 410.905 C 350.756 413.883 359.762 416.089 360.461 415.969 C 364.752 416.085 368.974 417.775 372.233 421.034 C 373.316 422.117 374.226 423.307 374.990 424.615 C 378.098 429.941 378.092 436.605 374.990 441.908 C 374.226 440.599 373.316 439.410 372.233 438.327 C 368.444 434.537 358.390 433.327 358.390 433.327 C 356.481 432.789 350.756 431.175 347.778 428.197 C 346.698 427.117 345.790 425.931 345.022 424.615 Z"/>
<path fill="none" stroke="#ffffff" stroke-width="1" stroke-linecap="butt" stroke-linejoin="round" d="M 345.022 441.908 C 345.790 443.223 346.698 444.409 347.778 445.489 "/>
<path fill="none" stroke="#ffffff" stroke-width="1" stroke-linecap="butt" stroke-linejoin="round" d="M 347.778 445.489 C 350.689 448.400 356.207 450.090 358.046 450.654 "/>
<path fill="none" stroke="#ffffff" stroke-width="1" stroke-linecap="butt" stroke-linejoin="round" d="M 358.046 450.654 C 358.046 450.654 368.376 451.761 372.233 455.618 "/>
<path fill="none" stroke="#ffffff" stroke-width="1" stroke-linecap="butt" stroke-linejoin="round" d="M 372.233 455.618 C 373.316 456.701 374.226 457.891 374.990 459.199 "/>
<path fill="none" stroke="#ffffff" stroke-width="1" stroke-linecap="butt" stroke-linejoin="round" d="M 374.990 476.492 C 374.226 475.183 373.316 473.994 372.233 472.911 "/>
<path fill="none" stroke="#ffffff" stroke-width="1" stroke-linecap="butt" stroke-linejoin="round" d="M 372.233 472.911 C 368.376 469.053 358.046 467.946 358.046 467.946 "/>
<path fill="none" stroke="#ffffff" stroke-width="1" stroke-linecap="butt" stroke-linejoin="round" d="M 358.046 467.946 C 356.207 467.383 350.689 465.692 347.778 462.782 "/>
<path fill="none" stroke="#ffffff" stroke-width="1" stroke-linecap="butt" stroke-linejoin="round" d="M 347.778 462.782 C 346.698 461.702 345.790 460.516 345.022 459.199 "/>
<path fill="#ffffff" fill-rule="evenodd" stroke="#000000" stroke-width="3" stroke-linejoin="round" d="M 345.022 459.199 C 341.919 453.897 341.913 447.233 345.022 441.908 C 345.790 443.223 346.698 444.409 347.778 445.489 C 350.689 448.400 356.207 450.090 358.046 450.654 C 358.046 450.654 368.376 451.761 372.233 455.618 C 373.316 456.701 374.226 457.891 374.990 459.199 C 378.098 464.525 378.092 471.189 374.990 476.492 C 374.226 475.183 373.316 473.994 372.233 472.911 C 368.376 469.053 358.046 467.946 358.046 467.946 C 356.207 467.383 350.689 465.692 347.778 462.782 C 346.698 461.702 345.790 460.516 345.022 459.199 Z"/>
<path fill="none" stroke="#ffffff" stroke-width="1" stroke-linecap="butt" stroke-linejoin="round" d="M 345.022 476.492 C 345.790 477.808 346.698 478.993 347.778 480.073 "/>
<path fill="none" stroke="#ffffff" stroke-width="1" stroke-linecap="butt" stroke-linejoin="round" d="M 347.778 480.073 C 350.689 482.984 356.207 484.674 358.046 485.238 "/>
<path fill="none" stroke="#ffffff" stroke-width="1" stroke-linecap="butt" stroke-linejoin="round" d="M 358.046 485.238 C 358.046 485.238 368.376 486.345 372.233 490.203 "/>
<path fill="none" stroke="#ffffff" stroke-width="1" stroke-linecap="butt" stroke-linejoin="round" d="M 372.233 490.203 C 373.316 491.286 374.226 492.475 374.990 493.784 "/>
<path fill="none" stroke="#ffffff" stroke-width="1" stroke-linecap="butt" stroke-linejoin="round" d="M 374.990 511.076 C 374.226 509.767 373.316 508.578 372.233 507.495 "/>
<path fill="none" stroke="#ffffff" stroke-width="1" stroke-linecap="butt" stroke-linejoin="round" d="M 372.233 507.495 C 368.376 503.637 358.046 502.530 358.046 502.530 "/>
<path fill="none" stroke="#ffffff" stroke-width="1" stroke-linecap="butt" stroke-linejoin="round" d="M 358.046 502.530 C 356.207 501.967 350.689 500.276 347.778 497.366 "/>
<path fill="none" stroke="#ffffff" stroke-width="1" stroke-linecap="butt" stroke-linejoin="round" d="M 347.778 497.366 C 346.698 496.286 345.790 495.100 345.022 493.784 "/>
<path fill="#ffffff" fill-rule="evenodd" stroke="#000000" stroke-width="3" stroke-linejoin="round" d="M 345.022 493.784 C 341.919 488.481 341.913 481.818 345.022 476.492 C 345.790 477.808 346.698 478.993 347.778 480.073 C 350.689 482.984 356.207 484.674 358.046 485.238 C 358.046 485.238 368.376 486.345 372.233 490.203 C 373.316 491.286 374.226 492.475 374.990 493.784 C 378.098 499.109 378.092 505.773 374.990 511.076 C 374.226 509.767 373.316 508.578 372.233 507.495 C 368.376 503.637 358.046 502.530 358.046 502.530 C 356.207 501.967 350.689 500.276 347.778 497.366 C 346.698 496.286 345.790 495.100 345.022 493.784 Z"/>
<path fill="none" stroke="#ffffff" stroke-width="1" stroke-linecap="butt" stroke-linejoin="round" d="M 345.022 511.076 C 345.790 512.392 346.698 513.578 347.778 514.658 "/>
<path fill="none" stroke="#ffffff" stroke-width="1" stroke-linecap="butt" stroke-linejoin="round" d="M 347.778 514.658 C 350.689 517.568 356.207 519.259 358.046 519.823 "/>
<path fill="none" stroke="#ffffff" stroke-width="1" stroke-linecap="butt" stroke-linejoin="round" d="M 358.046 519.823 C 358.046 519.823 368.376 520.930 372.233 524.787 "/>
<path fill="none" stroke="#ffffff" stroke-width="1" stroke-linecap="butt" stroke-linejoin="round" d="M 372.233 524.787 C 373.316 525.870 374.226 527.059 374.990 528.368 "/>
<path fill="none" stroke="#ffffff" stroke-width="1" stroke-linecap="butt" stroke-linejoin="round" d="M 374.990 545.661 C 374.226 544.352 373.316 543.163 372.233 542.080 "/>
<path fill="none" stroke="#ffffff" stroke-width="1" stroke-linecap="butt" stroke-linejoin="round" d="M 372.233 542.080 C 368.375 538.222 358.072 537.112 358.072 537.112 "/>
<path fill="none" stroke="#ffffff" stroke-width="1" stroke-linecap="butt" stroke-linejoin="round" d="M 358.072 537.112 C 356.226 536.549 350.689 534.860 347.778 531.950 "/>
<path fill="none" stroke="#ffffff" stroke-width="1" stroke-linecap="butt" stroke-linejoin="round" d="M 347.778 531.950 C 346.698 530.870 345.790 529.684 345.022 528.368 "/>
<path fill="#ffffff" fill-rule="evenodd" stroke="#000000" stroke-width="3" stroke-linejoin="round" d="M 345.022 528.368 C 341.919 523.065 341.913 516.402 345.022 511.076 C 345.790 512.392 346.698 513.578 347.778 514.658 C 350.689 517.568 356.207 519.259 358.046 519.823 C 358.046 519.823 368.376 520.930 372.233 524.787 C 373.316 525.870 374.226 527.059 374.990 528.368 C 378.098 533.694 378.093 540.358 374.990 545.661 C 374.226 544.352 373.316 543.163 372.233 542.080 C 368.375 538.222 358.072 537.112 358.072 537.112 C 356.226 536.549 350.689 534.860 347.778 531.950 C 346.698 530.870 345.790 529.684 345.022 528.368 Z"/>
<path fill="none" stroke="#ffffff" stroke-width="1" stroke-linecap="butt" stroke-linejoin="round" d="M 345.022 545.661 C 345.790 546.976 346.698 548.162 347.778 549.242 "/>
<path fill="none" stroke="#ffffff" stroke-width="1" stroke-linecap="butt" stroke-linejoin="round" d="M 347.778 549.242 C 350.689 552.152 356.226 553.842 358.072 554.405 "/>
<path fill="none" stroke="#ffffff" stroke-width="1" stroke-linecap="butt" stroke-linejoin="round" d="M 358.072 554.405 C 358.072 554.405 368.375 555.515 372.233 559.372 "/>
<path fill="none" stroke="#ffffff" stroke-width="1" stroke-linecap="butt" stroke-linejoin="round" d="M 372.233 559.372 C 373.316 560.455 374.226 561.644 374.990 562.953 "/>
<path fill="none" stroke="#ffffff" stroke-width="1" stroke-linecap="butt" stroke-linejoin="round" d="M 374.990 580.246 C 374.226 578.937 373.316 577.747 372.233 576.665 "/>
<path fill="none" stroke="#ffffff" stroke-width="1" stroke-linecap="butt" stroke-linejoin="round" d="M 372.233 576.665 C 368.375 572.807 358.072 571.697 358.072 571.697 "/>
<path fill="none" stroke="#ffffff" stroke-width="1" stroke-linecap="butt" stroke-linejoin="round" d="M 358.072 571.697 C 356.226 571.134 350.688 569.445 347.778 566.535 "/>
<path fill="none" stroke="#ffffff" stroke-width="1" stroke-linecap="butt" stroke-linejoin="round" d="M 347.778 566.535 C 346.698 565.455 345.790 564.269 345.022 562.953 "/>
<path fill="#ffffff" fill-rule="evenodd" stroke="#000000" stroke-width="3" stroke-linejoin="round" d="M 345.022 562.953 C 341.919 557.650 341.913 550.986 345.022 545.661 C 345.790 546.976 346.698 548.162 347.778 549.242 C 350.689 552.152 356.226 553.842 358.072 554.405 C 358.072 554.405 368.375 555.515 372.233 559.372 C 373.316 560.455 374.226 561.644 374.990 562.953 C 378.099 568.279 378.093 574.942 374.990 580.246 C 374.226 578.937 373.316 577.747 372.233 576.665 C 368.375 572.807 358.072 571.697 358.072 571.697 C 356.226 571.134 350.688 569.445 347.778 566.535 C 346.698 565.455 345.790 564.269 345.022 562.953 Z"/>
<path fill="none" stroke="#ffffff" stroke-width="1" stroke-linecap="butt" stroke-linejoin="round" d="M 345.022 580.246 C 345.790 581.561 346.698 582.747 347.778 583.827 "/>
<path fill="none" stroke="#ffffff" stroke-width="1" stroke-linecap="butt" stroke-linejoin="round" d="M 347.778 583.827 C 350.688 586.738 356.226 588.426 358.072 588.988 "/>
<path fill="none" stroke="#ffffff" stroke-width="1" stroke-linecap="butt" stroke-linejoin="round" d="M 358.072 588.988 C 358.072 588.988 368.376 590.098 372.233 593.956 "/>
<path fill="none" stroke="#ffffff" stroke-width="1" stroke-linecap="butt" stroke-linejoin="round" d="M 372.233 593.956 C 373.316 595.039 374.226 596.228 374.990 597.537 "/>
<path fill="none" stroke="#ffffff" stroke-width="1" stroke-linecap="butt" stroke-linejoin="round" d="M 374.990 614.830 C 374.226 613.521 373.316 612.332 372.233 611.249 "/>
<path fill="none" stroke="#ffffff" stroke-width="1" stroke-linecap="butt" stroke-linejoin="round" d="M 372.233 611.249 C 368.375 607.391 358.072 606.281 358.072 606.281 "/>
<path fill="none" stroke="#ffffff" stroke-width="1" stroke-linecap="butt" stroke-linejoin="round" d="M 358.072 606.281 C 356.226 605.718 350.688 604.030 347.778 601.120 "/>
<path fill="none" stroke="#ffffff" stroke-width="1" stroke-linecap="butt" stroke-linejoin="round" d="M 347.778 601.120 C 346.698 600.040 345.790 598.854 345.022 597.537 "/>
<path fill="#ffffff" fill-rule="evenodd" stroke="#000000" stroke-width="3" stroke-linejoin="round" d="M 345.022 597.537 C 341.919 592.235 341.913 585.571 345.022 580.246 C 345.790 581.561 346.698 582.747 347.778 583.827 C 350.688 586.738 356.226 588.426 358.072 588.988 C 358.072 588.988 368.376 590.098 372.233 593.956 C 373.316 595.039 374.226 596.228 374.990 597.537 C 378.098 602.862 378.093 609.526 374.990 614.830 C 374.226 613.521 373.316 612.332 372.233 611.249 C 368.375 607.391 358.072 606.281 358.072 606.281 C 356.226 605.718 350.688 604.030 347.778 601.120 C 346.698 600.040 345.790 598.854 345.022 597.537 Z"/>
<path fill="none" stroke="#ffffff" stroke-width="1" stroke-linecap="butt" stroke-linejoin="round" d="M 347.778 618.411 C 346.698 617.331 345.790 616.145 345.022 614.830 "/>
<path fill="none" stroke="#ffffff" stroke-width="1" stroke-linecap="butt" stroke-linejoin="round" d="M 345.022 632.121 C 345.790 633.438 346.698 634.624 347.778 635.704 "/>
<path fill="none" stroke="#ffffff" stroke-width="1" stroke-linecap="butt" stroke-linejoin="round" d="M 347.778 635.704 C 350.688 638.614 356.226 640.302 358.072 640.865 "/>
<path fill="none" stroke="#ffffff" stroke-width="1" stroke-linecap="butt" stroke-linejoin="round" d="M 358.072 640.865 C 358.072 640.865 368.375 641.975 372.233 645.832 "/>
<path fill="none" stroke="#ffffff" stroke-width="1" stroke-linecap="butt" stroke-linejoin="round" d="M 372.233 645.832 C 373.316 646.915 374.226 648.104 374.990 649.413 "/>
<path fill="none" stroke="#ffffff" stroke-width="1" stroke-linecap="butt" stroke-linejoin="round" d="M 374.990 632.121 C 374.226 630.812 373.316 629.623 372.233 628.540 "/>
<path fill="none" stroke="#ffffff" stroke-width="1" stroke-linecap="butt" stroke-linejoin="round" d="M 372.233 628.540 C 368.376 624.682 358.072 623.573 358.072 623.573 "/>
<path fill="none" stroke="#ffffff" stroke-width="1" stroke-linecap="butt" stroke-linejoin="round" d="M 358.072 623.573 C 356.226 623.010 350.689 621.321 347.778 618.411 "/>
<path fill="#ffffff" fill-rule="evenodd" stroke="#000000" stroke-width="3" stroke-linejoin="round" d="M 347.778 618.411 C 346.698 617.331 345.790 616.145 345.022 614.830 C 341.913 620.155 341.919 626.819 345.022 632.121 C 345.790 633.438 346.698 634.624 347.778 635.704 C 350.688 638.614 356.226 640.302 358.072 640.865 C 358.072 640.865 368.375 641.975 372.233 645.832 C 373.316 646.915 374.226 648.104 374.990 649.413 C 378.092 644.110 378.098 637.447 374.990 632.121 C 374.226 630.812 373.316 629.623 372.233 628.540 C 368.376 624.682 358.072 623.573 358.072 623.573 C 356.226 623.010 350.689 621.321 347.778 618.411 Z"/>
<path fill="#ffffff" fill-rule="evenodd" stroke="#000000" stroke-width="3" stroke-linejoin="round" d="M 377.298 320.864 C 374.195 326.165 374.189 332.829 377.298 338.155 C 378.067 336.839 378.974 335.654 380.054 334.573 C 382.964 331.663 388.502 329.975 390.348 329.412 C 390.348 329.412 400.651 328.302 404.509 324.445 C 405.592 323.362 406.502 322.173 407.266 320.864 C 410.375 315.538 410.369 308.874 407.265 303.570 C 406.501 304.879 405.591 306.069 404.508 307.151 C 400.651 311.009 390.347 312.119 390.347 312.119 C 388.502 312.682 382.964 314.371 380.054 317.281 C 378.974 318.361 378.066 319.547 377.298 320.864 Z"/>
<path fill="#ffffff" fill-rule="evenodd" stroke="#000000" stroke-width="3" stroke-linejoin="round" d="M 377.298 217.111 C 374.195 222.413 374.189 229.076 377.298 234.402 C 378.067 233.086 378.974 231.901 380.054 230.820 C 382.964 227.910 388.502 226.222 390.348 225.659 C 390.348 225.659 400.651 224.549 404.509 220.692 C 405.592 219.609 406.502 218.420 407.266 217.111 C 410.375 211.785 410.369 205.121 407.265 199.817 C 406.501 201.126 405.591 202.316 404.508 203.399 C 400.651 207.256 390.347 208.366 390.347 208.366 C 388.502 208.929 382.964 210.618 380.054 213.528 C 378.974 214.608 378.066 215.794 377.298 217.111 Z"/>
<path fill="#ffffff" fill-rule="evenodd" stroke="#000000" stroke-width="3" stroke-linejoin="round" d="M 348.609 92.253 C 350.164 98.196 354.872 102.912 360.836 104.479 C 360.449 103.006 360.252 101.525 360.252 99.998 C 360.252 95.882 362.974 90.773 363.882 89.069 C 363.882 89.069 370.382 80.999 370.383 75.544 C 370.383 74.012 370.185 72.528 369.800 71.062 C 368.232 65.098 363.516 60.390 357.571 58.835 C 357.956 60.300 358.154 61.785 358.154 63.316 C 358.154 68.772 351.653 76.841 351.653 76.841 C 350.746 78.545 348.025 83.655 348.025 87.770 C 348.025 89.298 348.221 90.778 348.609 92.253 Z"/>
<path fill="#ffffff" fill-rule="evenodd" stroke="#000000" stroke-width="3" stroke-linejoin="round" d="M 343.161 150.164 C 346.264 155.465 346.270 162.129 343.161 167.455 C 342.393 166.139 341.485 164.953 340.405 163.873 C 337.495 160.963 331.957 159.275 330.111 158.712 C 330.111 158.712 319.808 157.602 315.950 153.745 C 314.867 152.662 313.957 151.472 313.193 150.164 C 310.085 144.838 310.091 138.174 313.194 132.870 C 313.958 134.179 314.868 135.368 315.951 136.451 C 319.809 140.309 330.112 141.419 330.112 141.419 C 331.957 141.982 337.495 143.670 340.405 146.581 C 341.485 147.661 342.393 148.847 343.161 150.164 Z"/>
<path fill="#ffffff" fill-rule="evenodd" stroke="#000000" stroke-width="3" stroke-linejoin="round" d="M 342.714 250.335 C 345.817 255.637 345.823 262.301 342.714 267.626 C 341.945 266.311 341.038 265.125 339.958 264.045 C 337.048 261.135 331.510 259.446 329.664 258.884 C 329.664 258.884 319.360 257.774 315.503 253.916 C 314.420 252.833 313.510 251.644 312.746 250.335 C 309.637 245.009 309.643 238.346 312.747 233.042 C 313.511 234.351 314.421 235.540 315.504 236.623 C 319.361 240.481 329.664 241.590 329.664 241.590 C 331.510 242.153 337.048 243.842 339.958 246.752 C 341.038 247.832 341.946 249.018 342.714 250.335 Z"/>
<path fill="#ffffff" fill-rule="evenodd" stroke="#000000" stroke-width="3" stroke-linejoin="round" d="M 342.714 354.088 C 345.817 359.390 345.823 366.053 342.714 371.379 C 341.945 370.064 341.038 368.878 339.958 367.798 C 337.048 364.888 331.510 363.199 329.664 362.637 C 329.664 362.637 319.360 361.527 315.503 357.669 C 314.420 356.586 313.510 355.397 312.746 354.088 C 309.637 348.762 309.643 342.099 312.747 336.795 C 313.511 338.104 314.421 339.293 315.504 340.376 C 319.361 344.233 329.664 345.343 329.664 345.343 C 331.510 345.906 337.048 347.595 339.958 350.505 C 341.038 351.585 341.946 352.771 342.714 354.088 Z"/>
<path fill="#ffffff" fill-rule="evenodd" stroke="#000000" stroke-width="3" stroke-linejoin="round" d="M 342.267 454.260 C 345.369 459.562 345.375 466.225 342.266 471.551 C 341.498 470.236 340.590 469.050 339.510 467.969 C 336.600 465.059 331.062 463.371 329.216 462.808 C 329.216 462.808 318.913 461.698 315.055 457.841 C 313.973 456.758 313.063 455.569 312.299 454.260 C 309.190 448.934 309.196 442.270 312.300 436.966 C 313.064 438.275 313.973 439.465 315.056 440.548 C 318.914 444.405 329.217 445.515 329.217 445.515 C 331.063 446.078 336.600 447.767 339.510 450.677 C 340.591 451.757 341.498 452.943 342.267 454.260 Z"/>
<path fill="#ffffff" fill-rule="evenodd" stroke="#000000" stroke-width="3" stroke-linejoin="round" d="M 342.714 544.302 C 345.817 549.604 345.823 556.267 342.714 561.593 C 341.945 560.278 341.038 559.092 339.958 558.012 C 337.048 555.102 331.510 553.413 329.664 552.850 C 329.664 552.850 319.360 551.741 315.503 547.883 C 314.420 546.800 313.510 545.611 312.746 544.302 C 309.637 538.976 309.643 532.313 312.747 527.009 C 313.511 528.318 314.421 529.507 315.504 530.590 C 319.361 534.447 329.664 535.557 329.664 535.557 C 331.510 536.120 337.048 537.809 339.958 540.719 C 341.038 541.799 341.946 542.985 342.714 544.302 Z"/>
<path fill="#ffffff" fill-rule="evenodd" stroke="#000000" stroke-width="3" stroke-linejoin="round" d="M 377.298 632.123 C 374.195 637.425 374.189 644.088 377.298 649.414 C 378.066 648.099 378.974 646.913 380.054 645.833 C 382.964 642.922 388.502 641.234 390.348 640.671 C 390.348 640.671 400.651 639.562 404.509 635.704 C 405.592 634.621 406.501 633.432 407.265 632.123 C 410.374 626.797 410.368 620.134 407.264 614.830 C 406.500 616.139 405.591 617.328 404.508 618.411 C 400.650 622.268 390.347 623.378 390.347 623.378 C 388.501 623.941 382.964 625.630 380.054 628.540 C 378.974 629.620 378.066 630.806 377.298 632.123 Z"/>
<path fill="#ffffff" fill-rule="evenodd" stroke="#000000" stroke-width="3" stroke-linejoin="round" d="M 377.298 528.370 C 374.195 533.672 374.189 540.335 377.298 545.661 C 378.066 544.346 378.974 543.160 380.054 542.080 C 382.964 539.169 388.502 537.481 390.348 536.918 C 390.348 536.918 400.651 535.809 404.509 531.951 C 405.592 530.868 406.501 529.679 407.265 528.370 C 410.374 523.044 410.368 516.381 407.264 511.077 C 406.500 512.386 405.591 513.575 404.508 514.658 C 400.650 518.515 390.347 519.625 390.347 519.625 C 388.501 520.188 382.964 521.877 380.054 524.787 C 378.974 525.867 378.066 527.053 377.298 528.370 Z"/>
<path fill="#ffffff" fill-rule="evenodd" stroke="#000000" stroke-width="3" stroke-linejoin="round" d="M 377.298 424.617 C 374.195 429.919 374.189 436.582 377.298 441.908 C 378.066 440.593 378.974 439.407 380.054 438.327 C 382.964 435.416 388.502 433.728 390.348 433.165 C 390.348 433.165 400.651 432.056 404.509 428.198 C 405.592 427.115 406.501 425.926 407.265 424.617 C 410.374 419.291 410.368 412.628 407.264 407.324 C 406.500 408.633 405.591 409.822 404.508 410.905 C 400.650 414.762 390.347 415.872 390.347 415.872 C 388.501 416.435 382.964 418.124 380.054 421.034 C 378.974 422.114 378.066 423.300 377.298 424.617 Z"/>
</g>
<g id="specs_2">
<path fill="#ff00ff" fill-rule="evenodd" stroke="none" d="M 308.475 111.399 C 308.486 111.399 411.514 111.399 411.525 111.399 C 411.525 111.389 411.525 8.360 411.525 8.350 C 411.514 8.350 308.486 8.350 308.475 8.350 C 308.475 8.360 308.475 111.389 308.475 111.399 Z"/>
<path fill="#ff0000" fill-rule="evenodd" stroke="none" d="M 360.000 682.633 C 360.001 682.636 370.735 712.692 370.736 712.695 C 370.735 712.694 360.001 702.707 360.000 702.706 C 359.999 702.707 349.265 712.694 349.264 712.695 C 349.265 712.692 359.999 682.636 360.000 682.633 Z"/>
<path fill="#0000ff" fill-rule="evenodd" stroke="none" d="M 360.000 69.312 C 360.001 69.314 366.236 86.773 366.236 86.775 C 366.236 86.774 360.001 80.973 360.000 80.972 C 359.999 80.973 353.764 86.774 353.764 86.775 C 353.764 86.773 359.999 69.314 360.000 69.312 Z"/>
<path fill="#00ff00" fill-rule="evenodd" stroke="none" d="M 330.813 365.704 C 330.815 365.704 348.242 359.380 348.244 359.379 C 348.243 359.380 342.473 365.645 342.473 365.645 C 342.473 365.646 348.306 371.852 348.307 371.852 C 348.305 371.852 330.815 365.705 330.813 365.704 Z"/>
<path fill="#ffff00" fill-rule="evenodd" stroke="none" d="M 336.670 575.107 C 336.671 575.106 344.408 558.259 344.409 558.257 C 344.409 558.258 344.817 566.765 344.817 566.766 C 344.818 566.766 353.332 566.972 353.332 566.972 C 353.331 566.973 336.671 575.107 336.670 575.107 Z"/>
<path fill="#ffff00" fill-rule="evenodd" stroke="none" d="M 383.330 574.901 C 383.329 574.899 375.255 558.211 375.255 558.209 C 375.255 558.210 375.018 566.724 375.018 566.725 C 375.017 566.725 366.508 567.102 366.508 567.102 C 366.509 567.103 383.329 574.900 383.330 574.901 Z"/>
<path fill="#00ff00" fill-rule="evenodd" stroke="none" d="M 389.187 365.704 C 389.185 365.704 371.758 359.380 371.756 359.379 C 371.757 359.380 377.527 365.645 377.527 365.645 C 377.527 365.646 371.694 371.852 371.693 371.852 C 371.695 371.852 389.185 365.705 389.187 365.704 Z"/>
<path fill="#00ffff" fill-rule="evenodd" stroke="none" d="M 384.040 155.615 C 384.039 155.616 377.850 173.092 377.849 173.094 C 377.849 173.093 376.677 164.657 376.677 164.656 C 376.676 164.656 368.178 165.217 368.177 165.217 C 368.179 165.216 384.038 155.616 384.040 155.615 Z"/>
<path fill="#00ffff" fill-rule="evenodd" stroke="none" d="M 335.960 156.194 C 335.961 156.196 343.302 173.220 343.302 173.221 C 343.302 173.220 343.909 164.725 343.909 164.724 C 343.910 164.724 352.427 164.718 352.427 164.718 C 352.426 164.717 335.962 156.195 335.960 156.194 Z"/>
<path fill="#be0027" fill-rule="evenodd" stroke="none" d="M 360.000 694.855 C 360.001 694.852 370.735 664.796 370.736 664.793 C 370.735 664.794 360.001 674.782 360.000 674.783 C 359.999 674.782 349.265 664.794 349.264 664.793 C 349.265 664.796 359.999 694.852 360.000 694.855 Z"/>
</g>
</g>
</svg>
