<?xml version="1.0" encoding="utf-8"?>
<!-- Generator: Moho 12.5 build 22414 -->
<!DOCTYPE svg PUBLIC "-//W3C//DTD SVG 1.1//EN" "http://www.w3.org/Graphics/SVG/1.1/DTD/svg11.dtd">
<svg version="1.1" id="Frame_0" xmlns="http://www.w3.org/2000/svg" xmlns:xlink="http://www.w3.org/1999/xlink" width="720px" height="720px">
<g id="waterworks">
<g id="waterworksg">
<path fill="#ffffff" fill-rule="evenodd" stroke="none" d="M 596.673 235.403 C 580.481 238.993 564.308 229.896 551.336 232.581 C 538.453 235.248 529.466 247.733 517.063 251.557 C 504.642 255.387 490.305 250.119 478.458 255.138 C 466.608 260.157 460.489 274.055 449.254 280.134 C 438.013 286.217 423.096 283.725 412.558 290.845 C 402.016 297.968 398.785 312.707 388.996 320.776 C 379.206 328.846 364.141 329.197 355.178 338.160 C 346.215 347.123 345.864 362.188 337.794 371.977 C 329.725 381.767 314.986 384.998 307.863 395.540 C 300.743 406.079 303.235 420.995 297.152 432.236 C 291.073 443.471 277.175 449.590 272.156 461.440 C 267.137 473.287 272.405 487.624 268.575 500.045 C 264.751 512.448 252.630 521.515 249.599 534.318 C 246.159 548.849 257.727 562.036 252.518 579.689 C 284.090 587.739 301.273 602.549 301.273 612.630 C 301.273 622.840 286.115 637.673 252.392 645.604 C 214.511 654.511 162.629 655.677 127.001 650.370 C 76.350 642.826 53.932 624.969 53.932 612.630 C 53.933 600.290 76.673 582.408 127.000 574.890 C 127.000 574.890 130.032 565.910 130.492 561.230 C 132.232 543.547 121.698 525.791 125.228 508.690 C 128.758 491.589 145.338 479.664 150.413 463.203 C 155.496 446.716 148.505 427.687 155.166 411.963 C 161.828 396.236 180.274 388.114 188.343 373.202 C 196.417 358.283 193.108 338.484 202.559 324.497 C 212.012 310.505 231.575 306.218 242.285 293.225 C 252.996 280.231 253.462 260.236 265.358 248.340 C 277.254 236.444 297.249 235.978 310.243 225.267 C 323.236 214.557 327.523 194.994 341.515 185.541 C 355.502 176.090 375.301 179.399 390.220 171.325 C 405.132 163.256 413.254 144.810 428.981 138.148 C 444.705 131.487 463.734 138.478 480.221 133.395 C 496.682 128.320 508.607 111.740 525.708 108.210 C 542.809 104.680 560.489 114.071 578.248 113.474 C 583.393 113.301 591.907 110.012 591.907 110.012 C 593.546 73.489 617.308 36.944 629.648 36.944 C 641.987 36.944 662.902 59.000 667.388 110.011 C 671.462 156.331 670.495 193.734 662.622 235.401 C 656.190 269.444 641.835 284.505 629.648 284.285 C 619.439 284.100 604.697 269.548 596.673 235.403 Z"/>
<path fill="none" stroke="#000000" stroke-width="2" stroke-linecap="round" stroke-linejoin="round" d="M 245.095 597.979 C 258.903 602.047 265.374 607.306 265.374 612.630 C 265.374 617.995 258.802 623.294 245.110 627.321 C 237.171 629.656 226.734 631.565 213.766 632.781 C 204.672 633.633 194.672 634.146 183.465 634.267 C 181.190 634.292 158.310 634.001 149.797 633.438 C 137.131 632.601 126.479 631.147 118.110 629.305 C 98.766 625.051 89.832 618.885 89.832 612.630 C 89.832 606.374 98.766 600.209 118.110 595.954 C 116.223 601.285 114.794 606.829 114.794 612.630 C 114.794 618.397 116.208 623.912 118.110 629.305 M 252.518 579.689 C 283.728 587.758 301.273 602.549 301.273 612.630 C 301.273 622.840 286.115 637.673 252.392 645.604 C 214.511 654.511 162.629 655.677 127.001 650.370 C 76.350 642.826 53.932 624.969 53.932 612.630 C 53.933 600.290 76.315 582.197 127.000 574.890 C 124.356 581.952 120.774 588.843 118.110 595.954 M 591.907 110.012 C 593.325 73.460 617.308 36.944 629.648 36.944 C 641.987 36.944 662.902 59.000 667.388 110.011 C 671.462 156.331 670.495 193.734 662.622 235.401 C 656.190 269.444 639.858 284.285 629.648 284.285 C 619.437 284.285 605.286 268.959 596.673 235.403 C 580.481 238.993 564.308 229.896 551.336 232.581 C 538.453 235.248 529.466 247.733 517.063 251.557 C 504.642 255.387 490.305 250.119 478.458 255.138 C 466.608 260.157 460.489 274.055 449.254 280.134 C 438.013 286.217 423.096 283.725 412.558 290.845 C 402.016 297.968 398.785 312.707 388.996 320.776 C 379.206 328.846 364.141 329.197 355.178 338.160 C 346.215 347.123 345.864 362.188 337.794 371.977 C 329.725 381.767 314.986 384.998 307.863 395.540 C 300.743 406.079 303.235 420.995 297.152 432.236 C 291.073 443.471 277.175 449.590 272.156 461.440 C 267.137 473.287 272.405 487.624 268.575 500.045 C 264.751 512.448 252.192 521.419 249.599 534.318 C 247.027 547.113 257.344 562.317 252.518 579.689 C 250.799 585.878 247.548 591.882 245.095 597.979 C 239.178 612.690 241.585 619.213 245.110 627.321 M 149.797 633.438 C 146.939 626.831 144.495 619.946 144.524 612.630 C 144.552 605.642 158.665 588.551 159.316 564.198 C 159.763 547.461 151.030 530.805 154.356 514.692 C 157.682 498.579 173.305 487.343 178.087 471.831 C 182.877 456.297 176.289 438.367 182.565 423.550 C 188.843 408.731 206.223 401.079 213.827 387.028 C 221.434 372.970 218.316 354.315 227.221 341.135 C 236.128 327.952 254.562 323.912 264.653 311.669 C 274.746 299.426 275.185 280.586 286.394 269.376 C 297.604 258.167 316.444 257.728 328.687 247.635 C 340.930 237.544 344.970 219.110 358.153 210.203 C 371.333 201.298 389.988 204.416 404.046 196.809 C 418.097 189.205 425.749 171.825 440.568 165.547 C 455.385 159.271 473.315 165.859 488.849 161.069 C 504.361 156.287 515.596 140.664 531.710 137.338 C 547.823 134.012 564.621 144.515 581.216 142.298 C 591.105 140.976 602.373 135.507 608.855 132.712 C 615.700 129.786 622.475 127.506 629.648 127.506 C 636.821 127.506 643.578 129.827 650.441 132.712 C 649.638 120.470 648.197 109.949 646.344 101.221 C 642.285 82.094 636.013 72.843 629.648 72.843 C 623.282 72.843 617.010 82.094 612.951 101.222 C 605.814 103.735 598.909 107.396 591.907 110.012 C 587.288 111.745 583.393 113.301 578.248 113.474 C 560.489 114.071 542.809 104.680 525.708 108.210 C 508.607 111.740 496.682 128.320 480.221 133.395 C 463.734 138.478 444.705 131.487 428.981 138.148 C 413.254 144.810 405.132 163.256 390.220 171.325 C 375.301 179.399 355.502 176.090 341.515 185.541 C 327.523 194.994 323.236 214.557 310.243 225.267 C 297.249 235.978 277.254 236.444 265.358 248.340 C 253.462 260.236 252.996 280.231 242.285 293.225 C 231.575 306.218 212.012 310.505 202.559 324.497 C 193.108 338.484 196.417 358.283 188.343 373.202 C 180.274 388.114 161.828 396.236 155.166 411.963 C 148.505 427.687 155.496 446.716 150.413 463.203 C 145.338 479.664 128.758 491.589 125.228 508.690 C 121.698 525.791 132.232 543.547 130.492 561.230 C 130.032 565.910 128.711 570.448 127.000 574.890 C 127.000 574.890 130.032 565.910 130.492 561.230 C 132.232 543.547 121.698 525.791 125.228 508.690 C 128.758 491.589 145.338 479.664 150.413 463.203 C 155.496 446.716 148.505 427.687 155.166 411.963 C 161.828 396.236 180.274 388.114 188.343 373.202 C 196.417 358.283 193.108 338.484 202.559 324.497 C 212.012 310.505 231.575 306.218 242.285 293.225 C 252.996 280.231 253.462 260.236 265.358 248.340 C 277.254 236.444 297.249 235.978 310.243 225.267 C 323.236 214.557 327.523 194.994 341.515 185.541 C 355.502 176.090 375.301 179.399 390.220 171.325 C 405.132 163.256 413.254 144.810 428.981 138.148 C 444.705 131.487 463.734 138.478 480.221 133.395 C 496.682 128.320 508.607 111.740 525.708 108.210 C 542.809 104.680 560.489 114.071 578.248 113.474 C 583.393 113.301 591.907 110.012 591.907 110.012 C 593.546 73.489 617.308 36.944 629.648 36.944 C 641.987 36.944 662.902 59.000 667.388 110.011 C 671.462 156.331 670.495 193.734 662.622 235.401 C 656.190 269.444 641.835 284.505 629.648 284.285 C 619.439 284.100 604.697 269.548 596.673 235.403 C 602.982 234.004 608.853 230.534 614.990 228.075 C 619.065 241.914 624.324 248.385 629.648 248.385 C 634.971 248.385 640.230 241.914 644.297 228.107 C 646.595 220.307 648.484 209.845 649.775 196.792 C 643.136 193.914 636.595 190.827 629.648 191.391 C 611.946 192.828 597.357 203.336 587.593 204.235 C 573.117 205.567 558.599 197.040 544.608 199.928 C 530.616 202.817 520.859 216.382 507.391 220.535 C 493.902 224.694 478.333 218.974 465.468 224.423 C 452.601 229.874 445.956 244.966 433.756 251.567 C 421.549 258.173 405.350 255.466 393.906 263.198 C 382.459 270.933 378.950 286.938 368.320 295.701 C 357.689 304.464 341.330 304.846 331.597 314.579 C 321.864 324.312 321.482 340.671 312.719 351.302 C 303.956 361.932 287.951 365.441 280.216 376.888 C 272.484 388.332 275.191 404.531 268.586 416.738 C 261.984 428.938 246.892 435.582 241.441 448.450 C 235.992 461.315 241.712 476.884 237.553 490.373 C 233.400 503.841 219.835 513.598 216.947 527.590 C 214.058 541.581 223.267 556.511 221.253 570.575 C 218.910 586.934 208.409 605.660 208.409 612.630 C 208.409 619.724 211.023 626.351 213.766 632.781 M 183.465 634.267 C 180.410 627.198 177.666 620.159 177.666 612.630 C 177.666 592.687 190.300 577.989 191.447 567.506 C 193.143 552.000 183.727 536.395 186.826 521.383 C 189.925 506.370 204.481 495.902 208.936 481.450 C 213.398 466.977 207.261 450.272 213.108 436.467 C 218.957 422.661 235.150 415.531 242.234 402.441 C 249.321 389.343 246.417 371.962 254.714 359.682 C 263.012 347.400 280.186 343.635 289.589 332.229 C 298.992 320.822 299.401 303.270 309.844 292.826 C 320.288 282.383 337.840 281.974 349.247 272.571 C 360.653 263.168 364.417 245.994 376.701 237.696 C 388.980 229.399 406.361 232.303 419.459 225.216 C 432.549 218.132 439.679 201.939 453.485 196.090 C 467.290 190.243 483.995 196.380 498.468 191.918 C 512.920 187.463 523.388 172.907 538.401 169.808 C 553.413 166.709 568.950 175.303 584.524 174.429 C 591.738 174.024 610.121 159.398 629.648 160.648 C 636.691 161.098 642.557 163.620 651.320 166.135 C 651.413 154.008 651.114 142.984 650.441 132.712 M 651.320 166.135 C 651.229 177.886 650.629 188.159 649.775 196.792 M 612.951 101.222 C 625.049 96.962 638.207 98.092 646.344 101.221 M 614.990 228.075 C 627.213 223.179 638.924 225.697 644.297 228.107 M 53.932 612.630 C 53.933 600.290 76.673 582.408 127.000 574.890 M 127.001 650.370 C 76.350 642.826 53.932 624.969 53.932 612.630 M 252.392 645.604 C 214.511 654.511 162.629 655.677 127.001 650.370 M 301.273 612.630 C 301.273 622.840 286.115 637.673 252.392 645.604 M 252.518 579.689 C 284.090 587.739 301.273 602.549 301.273 612.630 M 249.599 534.318 C 246.159 548.849 257.727 562.036 252.518 579.689 M 268.575 500.045 C 264.751 512.448 252.630 521.515 249.599 534.318 M 272.156 461.440 C 267.137 473.287 272.405 487.624 268.575 500.045 M 297.152 432.236 C 291.073 443.471 277.175 449.590 272.156 461.440 M 307.863 395.540 C 300.743 406.079 303.235 420.995 297.152 432.236 M 337.794 371.977 C 329.725 381.767 314.986 384.998 307.863 395.540 M 355.178 338.160 C 346.215 347.123 345.864 362.188 337.794 371.977 M 388.996 320.776 C 379.206 328.846 364.141 329.197 355.178 338.160 M 412.558 290.845 C 402.016 297.968 398.785 312.707 388.996 320.776 M 449.254 280.134 C 438.013 286.217 423.096 283.725 412.558 290.845 M 478.458 255.138 C 466.608 260.157 460.489 274.055 449.254 280.134 M 517.063 251.557 C 504.642 255.387 490.305 250.119 478.458 255.138 M 551.336 232.581 C 538.453 235.248 529.466 247.733 517.063 251.557 M 596.673 235.403 C 580.481 238.993 564.308 229.896 551.336 232.581 "/>
<path fill="#000000" fill-rule="evenodd" stroke="none" d="M 265.374 612.630 C 265.374 617.995 258.802 623.294 245.110 627.321 C 241.585 619.213 239.178 612.690 245.095 597.979 C 258.903 602.047 265.374 607.306 265.374 612.630 Z"/>
<path fill="#000000" fill-rule="evenodd" stroke="none" d="M 89.832 612.630 C 89.832 606.374 98.766 600.209 118.110 595.954 C 116.223 601.285 114.794 606.829 114.794 612.630 C 114.794 618.397 116.208 623.912 118.110 629.305 C 98.766 625.051 89.832 618.885 89.832 612.630 Z"/>
<path fill="#000000" fill-rule="evenodd" stroke="none" d="M 629.648 72.843 C 636.013 72.843 642.285 82.094 646.344 101.221 C 638.207 98.092 625.049 96.962 612.951 101.222 C 617.010 82.094 623.282 72.843 629.648 72.843 Z"/>
<path fill="#000000" fill-rule="evenodd" stroke="none" d="M 629.648 248.385 C 624.324 248.385 619.065 241.914 614.990 228.075 C 627.213 223.179 638.924 225.697 644.297 228.107 C 640.230 241.914 634.971 248.385 629.648 248.385 Z"/>
<path fill="#ffffff" fill-rule="evenodd" stroke="#000000" stroke-width="2" stroke-linecap="round" stroke-linejoin="round" d="M 50.394 533.714 C 47.791 542.771 55.248 551.347 71.710 554.265 C 108.422 560.773 107.929 590.636 107.933 590.639 C 107.931 590.634 112.863 559.571 95.172 534.948 C 79.675 513.379 54.343 519.967 50.394 533.714 Z"/>
<path fill="#ffffff" fill-rule="evenodd" stroke="#000000" stroke-width="2" stroke-linecap="round" stroke-linejoin="round" d="M 323.646 533.714 C 326.248 542.771 318.791 551.347 302.330 554.265 C 265.617 560.773 266.110 590.636 266.107 590.639 C 266.108 590.634 261.176 559.571 278.867 534.948 C 294.364 513.379 319.696 519.967 323.646 533.714 Z"/>
<path fill="#ffffff" fill-rule="evenodd" stroke="#000000" stroke-width="2" stroke-linecap="round" stroke-linejoin="round" d="M 553.037 307.267 C 562.094 309.869 570.669 302.412 573.588 285.951 C 580.096 249.238 609.959 249.731 609.962 249.728 C 609.957 249.729 578.894 244.797 554.271 262.488 C 532.702 277.985 539.290 303.317 553.037 307.267 Z"/>
<path fill="#ffffff" fill-rule="evenodd" stroke="#000000" stroke-width="2" stroke-linecap="round" stroke-linejoin="round" d="M 553.037 34.014 C 562.094 31.412 570.669 38.869 573.588 55.331 C 580.096 92.043 609.959 91.550 609.962 91.554 C 609.957 91.552 578.894 96.484 554.271 78.793 C 532.702 63.296 539.290 37.964 553.037 34.014 Z"/>
</g>
<g id="specs_2">
<path fill="#ff0000" fill-rule="evenodd" stroke="none" d="M 182.023 665.915 C 182.024 665.918 194.439 700.681 194.441 700.684 C 194.439 700.683 182.024 689.132 182.023 689.131 C 182.022 689.132 169.607 700.683 169.606 700.684 C 169.607 700.681 182.022 665.918 182.023 665.915 Z"/>
<path fill="#0000ff" fill-rule="evenodd" stroke="none" d="M 683.051 166.855 C 683.049 166.856 662.856 174.067 662.854 174.068 C 662.855 174.067 669.565 166.856 669.565 166.855 C 669.565 166.854 662.855 159.643 662.854 159.642 C 662.856 159.643 683.049 166.854 683.051 166.855 Z"/>
<path fill="#00ff00" fill-rule="evenodd" stroke="none" d="M 212.403 194.336 C 212.405 194.337 235.071 204.933 235.073 204.934 C 235.072 204.934 223.587 205.407 223.586 205.407 C 223.586 205.408 223.230 216.896 223.230 216.898 C 223.229 216.895 212.404 194.338 212.403 194.336 Z"/>
<path fill="#ffff00" fill-rule="evenodd" stroke="none" d="M 50.832 636.115 C 50.833 636.112 63.676 608.150 63.677 608.148 C 63.677 608.149 64.353 622.269 64.353 622.270 C 64.355 622.270 78.486 622.613 78.488 622.613 C 78.485 622.614 50.835 636.114 50.832 636.115 Z"/>
<path fill="#ffff00" fill-rule="evenodd" stroke="none" d="M 304.853 635.773 C 304.851 635.770 291.451 608.071 291.449 608.068 C 291.449 608.069 291.057 622.200 291.057 622.202 C 291.055 622.202 276.933 622.828 276.931 622.828 C 276.934 622.829 304.850 635.771 304.853 635.773 Z"/>
<path fill="#00ff00" fill-rule="evenodd" stroke="none" d="M 416.672 398.605 C 416.671 398.603 406.075 375.937 406.074 375.935 C 406.074 375.936 405.601 387.421 405.601 387.422 C 405.600 387.422 394.112 387.778 394.111 387.778 C 394.113 387.779 416.670 398.604 416.672 398.605 Z"/>
<path fill="#be0027" fill-rule="evenodd" stroke="none" d="M 182.023 674.626 C 182.024 674.623 194.439 639.860 194.441 639.857 C 194.439 639.858 182.024 651.409 182.023 651.410 C 182.022 651.409 169.607 639.858 169.606 639.857 C 169.607 639.860 182.022 674.623 182.023 674.626 Z"/>
<path fill="#00ffff" fill-rule="evenodd" stroke="none" d="M 660.100 288.034 C 660.097 288.033 632.136 275.190 632.133 275.189 C 632.134 275.189 646.254 274.513 646.255 274.513 C 646.255 274.511 646.598 260.380 646.598 260.378 C 646.599 260.381 660.099 288.031 660.100 288.034 Z"/>
<path fill="#00ffff" fill-rule="evenodd" stroke="none" d="M 659.758 34.013 C 659.755 34.015 632.056 47.416 632.053 47.417 C 632.055 47.417 646.185 47.810 646.187 47.810 C 646.187 47.811 646.813 61.933 646.813 61.935 C 646.814 61.932 659.756 34.016 659.758 34.013 Z"/>
</g>
</g>
</svg>
