<?xml version="1.0" encoding="utf-8"?>
<!-- Generator: Moho 12.5 build 22414 -->
<!DOCTYPE svg PUBLIC "-//W3C//DTD SVG 1.1//EN" "http://www.w3.org/Graphics/SVG/1.1/DTD/svg11.dtd">
<svg version="1.1" id="Frame_0" xmlns="http://www.w3.org/2000/svg" xmlns:xlink="http://www.w3.org/1999/xlink" width="720px" height="720px">
<g id="wheel">
<g id="wheel">
<path fill="#ffffff" fill-rule="evenodd" stroke="#000000" stroke-width="4" stroke-linejoin="round" d="M 78.772 212.877 C 78.791 212.885 271.351 292.646 271.370 292.654 C 271.371 292.656 285.140 300.286 279.723 313.363 C 274.307 326.441 259.175 322.100 259.173 322.101 C 259.154 322.093 66.594 242.332 66.575 242.324 C 66.574 242.322 51.659 234.727 57.257 221.214 C 62.854 207.702 78.770 212.878 78.772 212.877 M 386.094 244.335 C 386.102 244.316 465.863 51.755 465.871 51.736 C 465.873 51.735 473.503 37.966 486.580 43.383 C 499.657 48.800 495.316 63.931 495.317 63.933 C 495.309 63.953 415.548 256.513 415.540 256.532 C 415.538 256.533 407.944 271.447 394.431 265.850 C 380.919 260.253 386.095 244.337 386.094 244.335 M 449.317 290.413 C 449.336 290.405 641.896 210.645 641.915 210.637 C 641.917 210.637 657.049 206.297 662.466 219.374 C 667.882 232.451 654.113 240.081 654.112 240.083 C 654.093 240.091 461.533 319.852 461.514 319.860 C 461.512 319.859 445.596 325.035 439.999 311.523 C 434.402 298.010 449.316 290.416 449.317 290.413 M 464.634 640.562 C 464.626 640.543 384.865 447.983 384.857 447.964 C 384.858 447.962 380.517 432.830 393.594 427.414 C 406.671 421.997 414.301 435.766 414.303 435.767 C 414.311 435.786 494.072 628.346 494.080 628.365 C 494.079 628.367 499.255 644.283 485.743 649.880 C 472.230 655.478 464.636 640.563 464.634 640.562 M 461.913 369.739 C 461.932 369.747 654.492 449.508 654.511 449.516 C 654.512 449.518 668.281 457.148 662.864 470.225 C 657.448 483.302 642.316 478.961 642.314 478.962 C 642.294 478.954 449.735 399.193 449.715 399.185 C 449.714 399.183 434.800 391.589 440.397 378.076 C 445.994 364.564 461.910 369.740 461.913 369.739 M 228.084 626.999 C 228.092 626.980 307.853 434.420 307.861 434.401 C 307.863 434.400 315.494 420.631 328.571 426.047 C 341.648 431.464 337.307 446.595 337.308 446.598 C 337.300 446.617 257.539 639.177 257.531 639.196 C 257.529 639.197 249.934 654.112 236.422 648.515 C 222.909 642.917 228.085 627.001 228.084 626.999 M 65.685 449.319 C 65.704 449.311 258.264 369.550 258.283 369.542 C 258.285 369.543 273.417 365.202 278.834 378.279 C 284.251 391.356 270.481 398.987 270.481 398.989 C 270.461 398.997 77.901 478.758 77.882 478.765 C 77.880 478.765 61.964 483.941 56.367 470.428 C 50.770 456.916 65.684 449.321 65.685 449.319 M 305.297 255.889 C 305.289 255.870 225.528 63.310 225.520 63.291 C 225.521 63.289 221.180 48.157 234.257 42.741 C 247.334 37.324 254.964 51.093 254.966 51.094 C 254.974 51.113 334.735 243.673 334.743 243.692 C 334.743 243.694 339.919 259.610 326.406 265.208 C 312.894 270.805 305.299 255.890 305.297 255.889 M 151.242 115.413 C 151.257 115.427 298.635 262.807 298.650 262.821 C 298.650 262.824 308.451 275.142 298.442 285.151 C 288.434 295.160 276.115 285.359 276.113 285.359 C 276.098 285.344 128.719 137.965 128.704 137.950 C 128.704 137.948 117.832 125.224 128.174 114.882 C 138.516 104.540 151.239 115.413 151.242 115.413 M 423.132 262.083 C 423.147 262.068 570.526 114.689 570.541 114.674 C 570.543 114.674 582.862 104.873 592.870 114.882 C 602.879 124.891 593.078 137.209 593.078 137.212 C 593.063 137.226 445.684 284.606 445.670 284.620 C 445.667 284.620 432.943 295.493 422.601 285.151 C 412.259 274.809 423.132 262.085 423.132 262.083 M 463.909 328.848 C 463.930 328.848 672.355 328.848 672.376 328.848 C 672.378 328.850 688.018 330.630 688.018 344.785 C 688.018 358.939 672.378 360.719 672.376 360.721 C 672.355 360.721 463.930 360.721 463.909 360.721 C 463.907 360.719 447.222 359.411 447.222 344.785 C 447.222 330.159 463.907 328.850 463.909 328.848 M 344.064 658.205 C 344.064 658.185 344.064 449.759 344.064 449.738 C 344.065 449.737 345.846 434.096 360.000 434.096 C 374.155 434.096 375.935 449.737 375.937 449.738 C 375.937 449.759 375.937 658.185 375.937 658.205 C 375.935 658.207 374.626 674.892 360.000 674.892 C 345.374 674.892 344.065 658.207 344.064 658.205 M 445.189 406.956 C 445.204 406.970 592.583 554.350 592.598 554.364 C 592.598 554.366 602.399 566.685 592.390 576.694 C 582.381 586.703 570.063 576.902 570.060 576.902 C 570.046 576.887 422.666 429.508 422.652 429.493 C 422.652 429.491 411.779 416.767 422.121 406.425 C 432.463 396.083 445.187 406.956 445.189 406.956 M 130.711 555.151 C 130.726 555.136 278.105 407.757 278.120 407.742 C 278.122 407.742 290.441 397.942 300.449 407.950 C 310.458 417.959 300.657 430.278 300.657 430.280 C 300.642 430.295 153.263 577.674 153.249 577.689 C 153.246 577.689 140.522 588.561 130.180 578.219 C 119.838 567.877 130.711 555.153 130.711 555.151 M 48.669 328.848 C 48.690 328.848 257.115 328.848 257.136 328.848 C 257.137 328.850 272.778 330.630 272.778 344.785 C 272.778 358.939 257.137 360.719 257.136 360.721 C 257.115 360.721 48.690 360.721 48.669 360.721 C 48.667 360.719 31.982 359.411 31.982 344.785 C 31.982 330.159 48.667 328.850 48.669 328.848 M 344.064 241.838 C 344.064 241.817 344.064 33.392 344.064 33.371 C 344.065 33.370 345.845 17.729 360.000 17.729 C 374.155 17.729 375.935 33.370 375.937 33.371 C 375.937 33.392 375.937 241.817 375.937 241.838 C 375.935 241.840 374.626 258.525 360.000 258.525 C 345.374 258.525 344.065 241.840 344.064 241.838 Z"/>
<path fill="#ffffff" fill-rule="evenodd" stroke="#000000" stroke-width="4" stroke-linejoin="round" d="M 360.000 448.754 C 388.773 448.754 414.765 437.148 433.564 418.349 C 452.363 399.550 463.969 373.558 463.969 344.785 C 463.969 316.012 452.363 290.020 433.564 271.221 C 414.765 252.422 388.773 240.816 360.000 240.816 C 331.227 240.816 305.235 252.422 286.436 271.221 C 267.637 290.020 256.031 316.012 256.031 344.785 C 256.031 373.558 267.637 399.550 286.436 418.349 C 305.235 437.148 331.227 448.754 360.000 448.754 Z"/>
<path fill="#ffffff" fill-rule="evenodd" stroke="#000000" stroke-width="4" stroke-linejoin="round" d="M 169.854 534.931 C 218.445 583.522 285.629 613.520 360.000 613.520 C 434.371 613.520 501.555 583.522 550.146 534.931 C 598.737 486.341 628.734 419.157 628.735 344.785 C 628.735 270.414 598.737 203.230 550.146 154.639 C 501.555 106.048 434.371 76.051 360.000 76.051 C 285.629 76.051 218.445 106.048 169.854 154.639 C 121.263 203.230 91.265 270.414 91.266 344.785 C 91.266 419.157 121.263 486.340 169.854 534.931 M 145.015 559.771 C 199.953 614.709 275.913 648.625 360.000 648.625 C 444.087 648.625 520.047 614.709 574.985 559.771 C 629.924 504.832 663.839 428.872 663.839 344.785 C 663.839 260.699 629.924 184.738 574.985 129.800 C 520.047 74.861 444.087 40.945 360.000 40.945 C 275.913 40.945 199.953 74.861 145.015 129.800 C 90.076 184.738 56.161 260.698 56.161 344.785 C 56.161 428.872 90.076 504.832 145.015 559.771 Z"/>
</g>
<g id="specs">
<path fill="#ff00ff" fill-rule="evenodd" stroke="none" d="M 268.060 437.304 C 268.078 437.304 451.922 437.304 451.940 437.304 C 451.940 437.286 451.940 253.442 451.940 253.424 C 451.922 253.424 268.078 253.424 268.060 253.424 C 268.060 253.442 268.060 437.286 268.060 437.304 Z"/>
<path fill="#ff0000" fill-rule="evenodd" stroke="none" d="M 360.000 681.367 C 360.001 681.371 372.397 716.081 372.399 716.084 C 372.397 716.083 360.001 704.549 360.000 704.548 C 359.999 704.549 347.603 716.083 347.601 716.084 C 347.603 716.081 359.999 681.371 360.000 681.367 Z"/>
<path fill="#0000ff" fill-rule="evenodd" stroke="none" d="M 360.000 4.079 C 360.001 4.082 367.201 24.244 367.202 24.246 C 367.201 24.245 360.001 17.546 360.000 17.545 C 359.999 17.546 352.799 24.245 352.798 24.246 C 352.799 24.244 359.999 4.082 360.000 4.079 Z"/>
<path fill="#00ff00" fill-rule="evenodd" stroke="none" d="M 19.861 346.366 C 19.863 346.365 39.989 339.062 39.991 339.062 C 39.990 339.062 33.327 346.297 33.326 346.298 C 33.327 346.299 40.063 353.465 40.064 353.466 C 40.061 353.465 19.863 346.367 19.861 346.366 Z"/>
<path fill="#ffff00" fill-rule="evenodd" stroke="none" d="M 119.031 588.194 C 119.032 588.192 127.968 568.736 127.969 568.734 C 127.969 568.735 128.440 578.560 128.440 578.561 C 128.441 578.561 138.273 578.799 138.274 578.799 C 138.272 578.800 119.033 588.193 119.031 588.194 Z"/>
<path fill="#ffff00" fill-rule="evenodd" stroke="none" d="M 602.290 587.955 C 602.290 587.953 592.965 568.681 592.964 568.679 C 592.964 568.680 592.691 578.512 592.691 578.513 C 592.690 578.513 582.864 578.948 582.863 578.948 C 582.865 578.949 602.289 587.954 602.290 587.955 Z"/>
<path fill="#00ff00" fill-rule="evenodd" stroke="none" d="M 701.182 346.366 C 701.180 346.365 681.054 339.062 681.052 339.062 C 681.053 339.062 687.716 346.297 687.717 346.298 C 687.716 346.299 680.980 353.465 680.980 353.466 C 680.982 353.465 701.180 346.367 701.182 346.366 Z"/>
<path fill="#00ffff" fill-rule="evenodd" stroke="none" d="M 600.696 103.748 C 600.695 103.750 593.547 123.931 593.547 123.933 C 593.547 123.932 592.193 114.190 592.193 114.189 C 592.192 114.189 582.378 114.837 582.377 114.837 C 582.379 114.836 600.694 103.749 600.696 103.748 Z"/>
<path fill="#00ffff" fill-rule="evenodd" stroke="none" d="M 119.416 104.417 C 119.417 104.419 127.894 124.079 127.895 124.081 C 127.895 124.080 128.596 114.269 128.596 114.268 C 128.597 114.268 138.432 114.260 138.433 114.260 C 138.431 114.259 119.418 104.418 119.416 104.417 Z"/>
<path fill="#be0027" fill-rule="evenodd" stroke="none" d="M 360.000 665.049 C 360.001 665.047 369.020 639.793 369.021 639.790 C 369.020 639.791 360.001 648.183 360.000 648.184 C 359.999 648.183 350.980 639.791 350.979 639.790 C 350.980 639.793 359.999 665.047 360.000 665.049 Z"/>
</g>
</g>
</svg>
