<?xml version="1.0" encoding="utf-8"?>
<!-- Generator: Moho 12.5 build 22414 -->
<!DOCTYPE svg PUBLIC "-//W3C//DTD SVG 1.1//EN" "http://www.w3.org/Graphics/SVG/1.1/DTD/svg11.dtd">
<svg version="1.1" id="Frame_0" xmlns="http://www.w3.org/2000/svg" xmlns:xlink="http://www.w3.org/1999/xlink" width="720px" height="720px">
<g id="wheel">
<g id="wheel">
<path fill="#ffffff" fill-rule="evenodd" stroke="#000000" stroke-width="4" stroke-linejoin="round" d="M 77.994 212.511 C 78.013 212.519 271.106 292.500 271.125 292.508 C 271.126 292.510 284.933 300.162 279.501 313.275 C 274.070 326.388 258.896 322.036 258.894 322.036 C 258.875 322.028 65.782 242.047 65.763 242.039 C 65.762 242.037 50.806 234.421 56.419 220.871 C 62.032 207.321 77.992 212.512 77.994 212.511 M 386.166 244.055 C 386.174 244.036 466.155 50.943 466.163 50.924 C 466.166 50.923 473.817 37.116 486.930 42.548 C 500.043 47.980 495.691 63.153 495.692 63.155 C 495.684 63.174 415.702 256.267 415.694 256.286 C 415.692 256.287 408.076 271.243 394.526 265.630 C 380.977 260.017 386.167 244.058 386.166 244.055 M 449.564 290.261 C 449.583 290.253 642.675 210.272 642.695 210.264 C 642.697 210.265 657.870 205.912 663.302 219.025 C 668.734 232.139 654.927 239.790 654.926 239.792 C 654.906 239.800 461.814 319.782 461.795 319.790 C 461.793 319.789 445.833 324.979 440.220 311.429 C 434.608 297.879 449.563 290.264 449.564 290.261 M 464.923 641.379 C 464.915 641.359 384.934 448.267 384.926 448.248 C 384.927 448.246 380.574 433.072 393.687 427.641 C 406.800 422.209 414.451 436.016 414.453 436.017 C 414.461 436.036 494.443 629.129 494.451 629.148 C 494.450 629.150 499.641 645.110 486.091 650.723 C 472.541 656.335 464.925 641.380 464.923 641.379 M 462.194 369.806 C 462.214 369.814 655.306 449.796 655.326 449.804 C 655.326 449.806 669.133 457.457 663.702 470.570 C 658.270 483.684 643.096 479.331 643.094 479.332 C 643.075 479.324 449.983 399.342 449.963 399.334 C 449.962 399.332 435.007 391.717 440.619 378.167 C 446.232 364.617 462.192 369.807 462.194 369.806 M 227.720 627.778 C 227.728 627.759 307.709 434.666 307.717 434.647 C 307.719 434.646 315.371 420.839 328.484 426.271 C 341.597 431.702 337.244 446.875 337.245 446.878 C 337.237 446.897 257.256 639.990 257.248 640.009 C 257.246 640.010 249.630 654.966 236.080 649.353 C 222.530 643.740 227.720 627.780 227.720 627.778 M 64.871 449.607 C 64.890 449.599 257.983 369.617 258.002 369.609 C 258.004 369.610 273.178 365.257 278.609 378.370 C 284.041 391.483 270.234 399.135 270.233 399.137 C 270.214 399.145 77.121 479.126 77.102 479.134 C 77.100 479.134 61.140 484.324 55.527 470.774 C 49.914 457.224 64.870 449.609 64.871 449.607 M 305.146 255.642 C 305.138 255.622 225.156 62.530 225.148 62.511 C 225.149 62.509 220.796 47.335 233.909 41.904 C 247.023 36.472 254.674 50.279 254.676 50.280 C 254.684 50.299 334.665 243.391 334.674 243.411 C 334.673 243.413 339.863 259.373 326.313 264.986 C 312.763 270.598 305.148 255.643 305.146 255.642 M 150.664 114.777 C 150.679 114.792 298.466 262.578 298.480 262.593 C 298.480 262.595 308.308 274.948 298.272 284.984 C 288.236 295.021 275.883 285.193 275.881 285.193 C 275.866 285.178 128.079 137.391 128.064 137.377 C 128.064 137.374 117.162 124.615 127.533 114.245 C 137.903 103.874 150.662 114.777 150.664 114.777 M 423.307 261.852 C 423.321 261.838 571.108 114.051 571.123 114.036 C 571.125 114.036 583.478 104.208 593.514 114.245 C 603.551 124.281 593.722 136.634 593.723 136.636 C 593.708 136.651 445.921 284.438 445.906 284.452 C 445.904 284.452 433.145 295.355 422.774 284.984 C 412.404 274.614 423.306 261.855 423.307 261.852 M 464.196 328.803 C 464.217 328.803 673.219 328.803 673.240 328.803 C 673.242 328.804 688.926 330.590 688.925 344.783 C 688.925 358.977 673.242 360.762 673.240 360.764 C 673.219 360.764 464.217 360.764 464.196 360.764 C 464.195 360.762 447.463 359.450 447.463 344.783 C 447.463 330.117 464.195 328.804 464.196 328.803 M 344.019 659.071 C 344.019 659.050 344.019 450.048 344.019 450.027 C 344.021 450.025 345.806 434.341 360.000 434.341 C 374.194 434.341 375.979 450.025 375.981 450.027 C 375.981 450.048 375.981 659.050 375.981 659.071 C 375.979 659.072 374.667 675.804 360.000 675.804 C 345.334 675.804 344.021 659.072 344.019 659.071 M 445.425 407.126 C 445.440 407.141 593.227 554.928 593.241 554.942 C 593.241 554.945 603.069 567.297 593.033 577.334 C 582.996 587.370 570.644 577.542 570.641 577.542 C 570.627 577.527 422.840 429.741 422.825 429.726 C 422.825 429.724 411.922 416.965 422.293 406.594 C 432.664 396.223 445.423 407.126 445.425 407.126 M 130.077 555.731 C 130.092 555.717 277.878 407.930 277.893 407.915 C 277.895 407.915 290.248 398.087 300.285 408.123 C 310.321 418.160 300.493 430.513 300.493 430.515 C 300.478 430.530 152.692 578.316 152.677 578.331 C 152.674 578.331 139.915 589.234 129.545 578.863 C 119.174 568.493 130.077 555.734 130.077 555.731 M 47.808 328.803 C 47.829 328.803 256.830 328.803 256.851 328.803 C 256.853 328.804 272.537 330.590 272.537 344.783 C 272.537 358.977 256.853 360.762 256.851 360.764 C 256.830 360.764 47.829 360.764 47.808 360.764 C 47.806 360.762 31.075 359.450 31.074 344.783 C 31.074 330.117 47.806 328.804 47.808 328.803 M 344.019 241.552 C 344.019 241.531 344.019 32.529 344.019 32.508 C 344.021 32.507 345.806 16.822 360.000 16.822 C 374.194 16.822 375.979 32.507 375.981 32.508 C 375.981 32.529 375.981 241.531 375.981 241.552 C 375.979 241.553 374.667 258.285 360.000 258.285 C 345.334 258.285 344.021 241.553 344.019 241.552 Z"/>
<path fill="#ffffff" fill-rule="evenodd" stroke="#000000" stroke-width="4" stroke-linejoin="round" d="M 360.000 449.040 C 388.853 449.040 414.916 437.402 433.767 418.551 C 452.618 399.700 464.257 373.636 464.257 344.784 C 464.257 315.931 452.618 289.867 433.767 271.016 C 414.917 252.165 388.853 240.527 360.000 240.527 C 331.147 240.527 305.084 252.165 286.233 271.016 C 267.382 289.867 255.743 315.931 255.743 344.784 C 255.743 373.636 267.382 399.700 286.233 418.551 C 305.084 437.402 331.147 449.040 360.000 449.040 Z"/>
<path fill="#ffffff" fill-rule="evenodd" stroke="#000000" stroke-width="4" stroke-linejoin="round" d="M 169.328 535.456 C 218.053 584.181 285.423 614.261 360.000 614.261 C 434.577 614.261 501.947 584.181 550.672 535.456 C 599.397 486.730 629.478 419.361 629.478 344.784 C 629.478 270.206 599.397 202.837 550.672 154.111 C 501.947 105.386 434.577 75.306 360.000 75.306 C 285.423 75.306 218.053 105.386 169.328 154.111 C 120.603 202.837 90.522 270.206 90.522 344.784 C 90.522 419.361 120.603 486.730 169.328 535.456 M 144.420 560.364 C 199.510 615.454 275.681 649.464 360.000 649.464 C 444.319 649.464 520.490 615.454 575.580 560.364 C 630.670 505.273 664.680 429.103 664.680 344.784 C 664.680 260.464 630.670 184.294 575.580 129.203 C 520.490 74.113 444.319 40.103 360.000 40.103 C 275.681 40.103 199.510 74.113 144.420 129.203 C 89.330 184.294 55.320 260.464 55.320 344.784 C 55.320 429.103 89.330 505.273 144.420 560.364 Z"/>
</g>
<g id="specs">
<path fill="#ff00ff" fill-rule="evenodd" stroke="none" d="M 267.806 437.558 C 267.824 437.558 452.176 437.558 452.194 437.558 C 452.194 437.540 452.194 253.188 452.194 253.170 C 452.176 253.170 267.824 253.170 267.806 253.170 C 267.806 253.188 267.806 437.540 267.806 437.558 Z"/>
<path fill="#ff0000" fill-rule="evenodd" stroke="none" d="M 360.000 676.429 C 360.001 676.432 372.432 711.238 372.433 711.242 C 372.432 711.241 360.001 699.675 360.000 699.674 C 359.999 699.675 347.568 711.241 347.567 711.242 C 347.568 711.238 359.999 676.432 360.000 676.429 Z"/>
<path fill="#0000ff" fill-rule="evenodd" stroke="none" d="M 360.000 3.136 C 360.001 3.138 367.221 23.356 367.222 23.358 C 367.221 23.357 360.001 16.639 360.000 16.638 C 359.999 16.639 352.779 23.357 352.778 23.358 C 352.779 23.356 359.999 3.138 360.000 3.136 Z"/>
<path fill="#00ff00" fill-rule="evenodd" stroke="none" d="M 18.920 346.369 C 18.922 346.368 39.104 339.045 39.106 339.044 C 39.105 339.045 32.423 346.300 32.423 346.300 C 32.423 346.301 39.178 353.488 39.179 353.488 C 39.177 353.488 18.922 346.369 18.920 346.369 Z"/>
<path fill="#ffff00" fill-rule="evenodd" stroke="none" d="M 118.365 588.865 C 118.366 588.863 127.326 569.354 127.327 569.352 C 127.327 569.353 127.799 579.205 127.799 579.206 C 127.800 579.206 137.660 579.445 137.661 579.445 C 137.659 579.446 118.367 588.864 118.365 588.865 Z"/>
<path fill="#ffff00" fill-rule="evenodd" stroke="none" d="M 602.961 588.626 C 602.960 588.624 593.610 569.298 593.609 569.297 C 593.609 569.298 593.334 579.157 593.334 579.158 C 593.333 579.158 583.480 579.595 583.479 579.595 C 583.481 579.595 602.959 588.625 602.961 588.626 Z"/>
<path fill="#00ff00" fill-rule="evenodd" stroke="none" d="M 702.126 346.369 C 702.124 346.368 681.942 339.045 681.940 339.044 C 681.941 339.045 688.623 346.300 688.623 346.300 C 688.623 346.301 681.868 353.488 681.867 353.488 C 681.869 353.488 702.124 346.369 702.126 346.369 Z"/>
<path fill="#00ffff" fill-rule="evenodd" stroke="none" d="M 601.361 103.080 C 601.361 103.082 594.193 123.319 594.193 123.321 C 594.193 123.320 592.835 113.551 592.835 113.550 C 592.834 113.550 582.993 114.200 582.992 114.200 C 582.994 114.199 601.359 103.081 601.361 103.080 Z"/>
<path fill="#00ffff" fill-rule="evenodd" stroke="none" d="M 118.750 103.750 C 118.751 103.752 127.252 123.467 127.253 123.469 C 127.253 123.468 127.956 113.630 127.956 113.629 C 127.957 113.629 137.819 113.621 137.820 113.621 C 137.818 113.620 118.752 103.751 118.750 103.750 Z"/>
</g>
</g>
</svg>
