<?xml version="1.0" encoding="utf-8"?>
<!-- Generator: Moho 12.5 build 22414 -->
<!DOCTYPE svg PUBLIC "-//W3C//DTD SVG 1.1//EN" "http://www.w3.org/Graphics/SVG/1.1/DTD/svg11.dtd">
<svg version="1.1" id="Frame_0" xmlns="http://www.w3.org/2000/svg" xmlns:xlink="http://www.w3.org/1999/xlink" width="720px" height="720px">
<g id="willendorf">
<g id="willendorf">
<path fill="#ffffff" fill-rule="evenodd" stroke="#000000" stroke-width="4" stroke-linecap="round" stroke-linejoin="round" d="M 215.609 296.629 C 215.608 296.630 206.529 304.586 201.237 304.271 C 164.047 302.056 198.776 198.841 220.819 155.257 C 235.725 125.786 286.229 144.434 309.575 124.969 C 312.117 122.850 311.005 118.551 309.535 116.268 C 298.776 99.572 288.031 86.771 291.478 64.883 C 295.906 36.765 320.446 15.135 357.214 14.488 C 394.199 13.836 419.476 34.715 424.765 62.927 C 429.018 85.618 422.011 101.518 408.680 117.344 C 407.079 119.244 404.636 122.719 406.594 125.027 C 425.430 147.222 476.596 127.163 491.178 155.231 C 512.939 197.118 536.002 289.000 525.468 295.040 C 520.519 297.878 509.688 297.966 509.688 297.966 C 519.752 308.834 549.944 341.440 550.731 386.283 C 551.598 435.657 509.615 448.676 501.683 469.775 C 496.542 483.452 499.922 505.812 492.542 523.839 C 484.554 543.352 455.425 575.694 454.213 580.233 C 448.125 603.031 431.288 608.503 432.072 634.274 C 432.336 642.967 426.653 655.433 422.873 657.450 C 417.427 660.357 407.305 659.896 403.071 660.526 C 400.227 660.950 393.068 658.505 391.582 657.242 C 388.386 654.526 375.099 631.076 373.329 626.251 C 363.856 600.424 362.206 574.584 360.133 546.882 C 359.563 539.268 360.316 528.882 361.189 520.104 C 360.658 518.500 360.695 516.991 360.708 515.554 C 360.708 515.554 360.708 515.554 361.189 520.104 C 360.772 508.270 360.271 502.770 358.102 501.451 C 355.903 500.114 350.437 499.908 347.475 498.420 C 334.424 491.865 309.735 471.665 310.497 466.759 C 311.493 460.345 351.953 474.423 360.223 474.389 C 368.093 474.358 406.421 460.735 407.491 466.816 C 408.350 471.699 382.782 490.626 370.423 498.426 C 368.525 499.625 365.132 500.659 363.708 501.726 C 361.776 503.173 361.331 508.669 360.708 515.554 C 360.866 517.045 361.032 518.599 361.189 520.104 C 362.077 528.562 363.008 538.028 363.233 545.077 C 364.108 572.517 368.145 597.675 365.101 624.754 C 364.639 628.859 360.088 650.078 358.105 652.804 C 355.988 655.714 343.170 662.236 337.900 661.628 C 333.871 661.162 324.407 660.802 319.253 658.032 C 316.458 656.530 311.342 647.730 311.450 641.287 C 311.907 614.133 296.983 606.161 285.383 583.198 C 283.407 579.286 245.040 562.823 232.745 547.464 C 215.048 525.356 214.930 492.135 206.252 472.282 C 197.702 452.720 165.179 433.581 167.179 389.663 C 169.804 332.046 201.524 336.034 213.714 305.530 C 214.904 303.600 215.239 299.525 215.609 296.629 Z"/>
<path fill="none" stroke="#000000" stroke-width="4" stroke-linecap="round" stroke-linejoin="round" d="M 351.571 232.489 C 350.945 291.811 360.638 325.716 341.581 352.982 C 324.507 377.411 299.868 386.353 271.034 378.579 C 240.874 370.446 223.979 349.060 221.089 318.020 C 219.495 300.898 233.159 291.799 239.194 278.689 M 357.941 232.339 C 370.260 295.447 362.220 380.550 449.986 382.433 C 478.389 383.042 502.990 332.833 494.030 292.544 C 475.950 283.109 457.227 264.761 440.918 259.397 C 427.223 254.893 408.722 248.055 394.309 247.689 C 387.153 247.508 371.242 254.520 370.782 251.658 C 370.276 248.512 387.272 246.645 387.869 243.665 C 388.448 240.773 367.989 247.946 367.127 245.200 C 366.054 241.783 383.185 241.221 384.744 235.661 C 378.875 234.336 368.283 237.759 367.507 236.551 C 365.613 233.604 379.585 229.842 384.289 228.872 C 402.932 225.028 422.373 231.696 441.563 234.718 C 449.295 235.935 460.465 240.602 469.054 244.661 C 471.282 245.646 473.367 246.657 475.154 247.543 C 479.030 249.464 481.506 250.794 481.507 250.795 C 481.506 250.791 476.763 236.534 472.941 221.945 M 494.030 292.544 C 499.259 295.325 502.438 297.524 509.688 297.966 C 517.657 298.452 520.519 297.878 525.468 295.040 C 536.002 289.000 512.939 197.118 491.178 155.231 C 476.596 127.163 425.430 147.222 406.594 125.027 C 404.636 122.719 407.079 119.244 408.680 117.344 C 422.011 101.518 429.018 85.618 424.765 62.927 C 419.476 34.715 394.199 13.836 357.214 14.488 C 320.446 15.135 295.906 36.765 291.478 64.883 C 288.031 86.771 298.776 99.572 309.535 116.268 C 311.005 118.551 312.117 122.850 309.575 124.969 C 286.229 144.434 235.725 125.786 220.819 155.257 C 198.776 198.841 164.047 302.056 201.237 304.271 C 206.529 304.586 215.608 296.630 215.609 296.629 C 215.615 296.624 267.401 250.568 272.691 252.239 C 284.530 255.979 301.643 248.252 313.989 249.562 C 321.046 250.311 336.140 258.388 336.858 255.605 C 337.642 252.572 321.240 249.104 320.917 246.135 C 320.598 243.217 340.162 252.124 341.336 249.512 C 342.436 247.068 331.589 243.010 330.911 238.744 C 335.889 238.213 344.282 240.730 345.215 239.983 C 348.991 236.961 327.979 232.016 321.473 230.728 C 305.759 227.618 289.179 229.510 273.047 232.155 C 268.390 232.918 262.792 235.619 257.038 238.009 C 246.757 242.599 236.228 247.197 233.007 248.894 C 231.811 249.524 238.548 231.130 241.319 222.248 "/>
</g>
<g id="specs_2">
<path fill="#ff00ff" fill-rule="evenodd" stroke="none" d="M 310.141 126.697 C 310.151 126.697 409.849 126.697 409.859 126.697 C 409.859 126.687 409.859 26.989 409.859 26.979 C 409.849 26.979 310.151 26.979 310.141 26.979 C 310.141 26.989 310.141 126.687 310.141 126.697 Z"/>
<path fill="#ff0000" fill-rule="evenodd" stroke="none" d="M 368.359 678.381 C 368.360 678.384 380.791 713.190 380.792 713.194 C 380.791 713.193 368.360 701.627 368.359 701.625 C 368.358 701.627 355.927 713.193 355.926 713.194 C 355.927 713.190 368.358 678.384 368.359 678.381 Z"/>
<path fill="#0000ff" fill-rule="evenodd" stroke="none" d="M 360.000 4.188 C 360.001 4.190 367.221 24.408 367.222 24.410 C 367.221 24.410 360.001 17.691 360.000 17.691 C 359.999 17.691 352.779 24.410 352.778 24.410 C 352.779 24.408 359.999 4.190 360.000 4.188 Z"/>
<path fill="#00ff00" fill-rule="evenodd" stroke="none" d="M 205.786 299.193 C 205.787 299.193 214.928 295.875 214.929 295.875 C 214.929 295.875 211.903 299.162 211.902 299.162 C 211.903 299.162 214.962 302.418 214.962 302.418 C 214.962 302.418 205.787 299.193 205.786 299.193 Z"/>
<path fill="#ffff00" fill-rule="evenodd" stroke="none" d="M 185.862 453.333 C 185.863 453.332 192.094 439.766 192.094 439.765 C 192.094 439.766 192.422 446.616 192.423 446.616 C 192.423 446.616 199.279 446.783 199.279 446.783 C 199.278 446.783 185.863 453.332 185.862 453.333 Z"/>
<path fill="#ffff00" fill-rule="evenodd" stroke="none" d="M 522.822 453.167 C 522.821 453.166 516.320 439.727 516.319 439.726 C 516.319 439.727 516.129 446.582 516.129 446.583 C 516.128 446.583 509.277 446.887 509.276 446.887 C 509.277 446.887 522.821 453.167 522.822 453.167 Z"/>
<path fill="#00ff00" fill-rule="evenodd" stroke="none" d="M 515.260 299.193 C 515.259 299.193 506.118 295.875 506.117 295.875 C 506.117 295.875 509.144 299.162 509.144 299.162 C 509.144 299.162 506.084 302.418 506.084 302.418 C 506.085 302.418 515.259 299.193 515.260 299.193 Z"/>
<path fill="#00ffff" fill-rule="evenodd" stroke="none" d="M 490.823 140.821 C 490.823 140.822 486.882 151.950 486.881 151.951 C 486.881 151.950 486.135 146.579 486.135 146.578 C 486.134 146.578 480.723 146.936 480.723 146.936 C 480.724 146.935 490.822 140.822 490.823 140.821 Z"/>
<path fill="#00ffff" fill-rule="evenodd" stroke="none" d="M 225.452 141.190 C 225.452 141.191 230.126 152.031 230.127 152.032 C 230.127 152.032 230.513 146.622 230.513 146.622 C 230.514 146.622 235.937 146.617 235.937 146.617 C 235.936 146.617 225.453 141.190 225.452 141.190 Z"/>
<path fill="#be0027" fill-rule="evenodd" stroke="none" d="M 367.314 625.077 C 367.315 625.074 379.746 590.268 379.747 590.264 C 379.746 590.265 367.315 601.831 367.314 601.832 C 367.313 601.831 354.883 590.265 354.881 590.264 C 354.883 590.268 367.313 625.074 367.314 625.077 Z"/>
</g>
</g>
</svg>
