<?xml version="1.0" encoding="utf-8"?>
<!-- Generator: Moho 12.5 build 22414 -->
<!DOCTYPE svg PUBLIC "-//W3C//DTD SVG 1.1//EN" "http://www.w3.org/Graphics/SVG/1.1/DTD/svg11.dtd">
<svg version="1.1" id="Frame_0" xmlns="http://www.w3.org/2000/svg" xmlns:xlink="http://www.w3.org/1999/xlink" width="720px" height="720px">
<g id="window">
<g id="window">
<path fill="#000000" fill-rule="evenodd" stroke="#ffffff" stroke-width="5" stroke-linejoin="round" d="M 176.849 622.732 C 176.849 622.687 176.849 173.845 176.849 173.800 C 176.867 173.785 216.285 24.520 359.358 24.520 C 502.431 24.520 541.849 173.785 541.867 173.800 C 541.867 173.845 541.867 622.687 541.867 622.732 C 541.831 622.732 176.885 622.732 176.849 622.732 M 223.209 573.123 C 223.209 573.084 223.209 187.620 223.209 187.581 C 223.223 187.570 251.818 74.123 359.358 74.123 C 466.898 74.123 495.493 187.570 495.507 187.581 C 495.507 187.620 495.507 573.084 495.507 573.123 C 495.480 573.123 223.236 573.123 223.209 573.123 Z"/>
<path fill="#ffffff" fill-rule="evenodd" stroke="#000000" stroke-width="5" stroke-linejoin="round" d="M 496.792 187.581 C 496.792 187.620 496.792 573.084 496.792 573.123 C 496.805 573.132 632.927 663.880 632.940 663.889 C 632.940 663.823 632.940 6.115 632.940 6.049 C 632.934 6.053 591.967 24.331 564.866 51.432 C 496.792 119.507 496.798 187.567 496.792 187.581 Z"/>
<path fill="none" stroke="#000000" stroke-width="1" stroke-linecap="butt" stroke-linejoin="round" d="M 632.940 6.049 C 632.940 6.115 632.940 663.823 632.940 663.889 "/>
<path fill="#000000" fill-rule="evenodd" stroke="#000000" stroke-width="5" stroke-linejoin="round" d="M 668.476 12.695 C 668.473 12.694 644.786 8.264 632.940 6.049 C 632.940 6.115 632.940 663.823 632.940 663.889 C 644.786 661.673 668.473 657.244 668.476 657.243 C 668.476 657.178 668.476 12.759 668.476 12.695 Z"/>
<path fill="#ffffff" fill-rule="evenodd" stroke="#000000" stroke-width="5" stroke-linejoin="round" d="M 223.209 187.581 C 223.209 187.620 223.209 573.084 223.209 573.123 C 223.195 573.132 87.073 663.880 87.060 663.889 C 87.060 663.823 87.060 6.115 87.060 6.049 C 87.066 6.053 128.033 24.331 155.134 51.432 C 223.208 119.507 223.202 187.567 223.209 187.581 Z"/>
<path fill="none" stroke="#000000" stroke-width="1" stroke-linecap="butt" stroke-linejoin="round" d="M 87.060 6.049 C 87.060 6.115 87.060 663.823 87.060 663.889 "/>
<path fill="#000000" fill-rule="evenodd" stroke="#000000" stroke-width="5" stroke-linejoin="round" d="M 51.524 12.695 C 51.527 12.694 75.214 8.264 87.060 6.049 C 87.060 6.115 87.060 663.823 87.060 663.889 C 75.214 661.673 51.527 657.244 51.524 657.243 C 51.524 657.178 51.524 12.759 51.524 12.695 Z"/>
</g>
<g id="specs_2">
<path fill="#ff00ff" fill-rule="evenodd" stroke="none" d="M 112.613 565.379 C 112.663 565.379 607.337 565.379 607.387 565.379 C 607.387 565.333 607.387 104.605 607.387 104.558 C 607.337 104.558 112.663 104.558 112.613 104.558 C 112.613 104.605 112.613 565.333 112.613 565.379 Z"/>
<path fill="#ff0000" fill-rule="evenodd" stroke="none" d="M 360.000 680.578 C 360.001 680.582 372.348 715.153 372.349 715.156 C 372.348 715.155 360.001 703.667 360.000 703.666 C 359.999 703.667 347.652 715.155 347.651 715.156 C 347.652 715.153 359.999 680.582 360.000 680.578 Z"/>
<path fill="#0000ff" fill-rule="evenodd" stroke="none" d="M 360.000 15.130 C 360.001 15.132 367.173 35.214 367.173 35.216 C 367.173 35.215 360.001 28.542 360.000 28.542 C 359.999 28.542 352.827 35.215 352.827 35.216 C 352.827 35.214 359.999 15.132 360.000 15.130 Z"/>
<path fill="#00ff00" fill-rule="evenodd" stroke="none" d="M 38.433 335.967 C 38.435 335.966 58.481 328.692 58.483 328.692 C 58.482 328.692 51.845 335.898 51.845 335.899 C 51.845 335.900 58.554 343.038 58.555 343.039 C 58.553 343.038 38.435 335.967 38.433 335.967 Z"/>
<path fill="#ffff00" fill-rule="evenodd" stroke="none" d="M 174.501 625.596 C 174.502 625.594 183.402 606.216 183.403 606.214 C 183.403 606.215 183.871 616.001 183.871 616.001 C 183.872 616.001 193.665 616.239 193.666 616.239 C 193.664 616.240 174.503 625.595 174.501 625.596 Z"/>
<path fill="#ffff00" fill-rule="evenodd" stroke="none" d="M 542.991 625.359 C 542.990 625.357 533.703 606.161 533.702 606.159 C 533.702 606.160 533.430 615.953 533.430 615.954 C 533.429 615.954 523.642 616.388 523.641 616.388 C 523.643 616.389 542.989 625.358 542.991 625.359 Z"/>
<path fill="#00ff00" fill-rule="evenodd" stroke="none" d="M 681.649 335.967 C 681.647 335.966 661.602 328.692 661.600 328.692 C 661.601 328.692 668.237 335.898 668.238 335.899 C 668.237 335.900 661.528 343.038 661.528 343.039 C 661.530 343.038 681.647 335.967 681.649 335.967 Z"/>
<path fill="#00ffff" fill-rule="evenodd" stroke="none" d="M 672.408 4.432 C 672.407 4.434 665.288 24.535 665.288 24.537 C 665.287 24.536 663.939 14.833 663.939 14.832 C 663.938 14.832 654.164 15.477 654.163 15.477 C 654.164 15.476 672.406 4.433 672.408 4.432 Z"/>
<path fill="#00ffff" fill-rule="evenodd" stroke="none" d="M 44.835 5.098 C 44.836 5.100 53.279 24.682 53.280 24.684 C 53.280 24.683 53.978 14.911 53.978 14.910 C 53.979 14.910 63.775 14.903 63.776 14.903 C 63.774 14.902 44.837 5.099 44.835 5.098 Z"/>
<path fill="#be0027" fill-rule="evenodd" stroke="none" d="M 360.000 642.712 C 360.001 642.708 372.348 608.137 372.349 608.134 C 372.348 608.135 360.001 619.623 360.000 619.624 C 359.999 619.623 347.652 608.135 347.651 608.134 C 347.652 608.137 359.999 642.708 360.000 642.712 Z"/>
</g>
</g>
</svg>
