<?xml version="1.0" encoding="utf-8"?>
<!-- Generator: Moho 13.0.3 build 635 -->
<!DOCTYPE svg PUBLIC "-//W3C//DTD SVG 1.1//EN" "http://www.w3.org/Graphics/SVG/1.1/DTD/svg11.dtd">
<svg version="1.1" id="Frame_0" xmlns="http://www.w3.org/2000/svg" xmlns:xlink="http://www.w3.org/1999/xlink" width="720px" height="720px">
<g id="wing">
<g id="wingR">
<path fill="#ffffff" fill-rule="evenodd" stroke="#000000" stroke-width="9" stroke-linecap="round" stroke-linejoin="round" d="M 51.607 541.041 C 51.621 541.030 140.218 507.604 189.529 435.852 C 257.361 337.148 196.921 286.805 236.012 227.904 C 258.887 193.438 314.823 180.442 396.288 134.157 C 534.042 55.892 629.635 2.982 642.560 20.654 C 654.725 37.289 616.431 111.238 576.995 141.393 C 534.013 174.259 447.165 208.866 447.152 208.873 C 447.167 208.870 580.944 158.583 591.730 177.960 C 599.348 191.644 568.887 239.711 533.218 264.436 C 502.582 285.672 426.403 309.624 426.392 309.629 C 426.406 309.628 556.068 281.104 563.434 300.346 C 568.721 314.157 531.334 361.760 496.731 372.947 C 437.826 391.991 383.664 401.023 383.653 401.026 C 383.665 401.027 503.818 398.206 508.161 416.519 C 511.201 429.340 479.149 469.712 443.397 475.873 C 406.371 482.253 341.272 479.834 341.262 479.834 C 341.273 479.837 444.989 488.047 455.093 511.059 C 458.614 519.076 436.569 544.861 390.158 558.151 C 339.074 572.778 299.627 548.388 299.618 548.387 C 299.626 548.392 376.914 586.902 373.012 599.761 C 368.043 616.135 334.138 625.473 297.171 621.780 C 270.110 619.077 218.894 589.981 218.886 589.978 C 218.893 589.985 309.797 640.830 292.279 660.923 C 284.306 670.068 233.034 667.909 211.547 656.031 C 196.617 647.778 140.608 607.107 140.601 607.102 C 140.604 607.109 182.460 673.240 169.958 675.601 C 138.130 681.613 111.004 666.604 89.225 648.691 C 75.101 637.074 51.611 597.312 51.607 597.307 C 51.606 597.304 38.660 568.249 38.659 568.247 C 38.660 568.244 51.606 541.043 51.607 541.041 Z"/>
</g>
<g id="specs">
<path fill="#ff00ff" fill-rule="evenodd" stroke="none" d="M 280.362 393.836 C 280.377 393.831 427.623 347.710 427.638 347.705 C 427.634 347.691 381.512 200.445 381.508 200.430 C 381.493 200.434 234.247 246.555 234.232 246.560 C 234.237 246.575 280.358 393.821 280.362 393.836 Z"/>
<path fill="#ff0000" fill-rule="evenodd" stroke="none" d="M 109.772 548.282 C 109.768 548.286 73.415 588.403 73.411 588.407 C 73.412 588.404 79.754 564.355 79.754 564.353 C 79.752 564.352 56.222 556.296 56.219 556.295 C 56.224 556.294 109.766 548.283 109.772 548.282 Z"/>
<path fill="#0000ff" fill-rule="evenodd" stroke="none" d="M 456.905 3.446 C 456.906 3.449 467.483 33.065 467.484 33.068 C 467.483 33.067 456.906 23.226 456.905 23.225 C 456.904 23.226 446.327 33.067 446.326 33.068 C 446.327 33.065 456.904 3.449 456.905 3.446 Z"/>
<path fill="#00ffff" fill-rule="evenodd" stroke="none" d="M 648.535 13.161 C 648.533 13.164 635.084 41.591 635.083 41.594 C 635.083 41.592 634.556 27.154 634.556 27.153 C 634.554 27.153 620.116 26.639 620.115 26.639 C 620.118 26.638 648.532 13.162 648.535 13.161 Z"/>
<path fill="#00ffff" fill-rule="evenodd" stroke="none" d="M 347.848 136.047 C 347.848 136.050 350.831 168.112 350.832 168.116 C 350.832 168.114 356.396 154.408 356.397 154.406 C 356.398 154.407 370.470 158.970 370.472 158.970 C 370.469 158.968 347.850 136.049 347.848 136.047 Z"/>
<path fill="#00ff00" fill-rule="evenodd" stroke="none" d="M 579.427 296.751 C 579.425 296.753 556.273 318.036 556.271 318.038 C 556.271 318.036 561.212 304.460 561.212 304.459 C 561.211 304.458 548.026 298.553 548.025 298.552 C 548.028 298.552 579.424 296.751 579.427 296.751 Z"/>
<path fill="#00ff00" fill-rule="evenodd" stroke="none" d="M 212.673 225.678 C 212.676 225.679 243.148 233.454 243.151 233.455 C 243.149 233.456 229.078 236.729 229.076 236.729 C 229.076 236.731 231.328 251.001 231.328 251.002 C 231.326 251.000 212.675 225.681 212.673 225.678 Z"/>
<path fill="#ffff00" fill-rule="evenodd" stroke="none" d="M 134.367 691.269 C 134.368 691.266 137.017 659.930 137.017 659.927 C 137.018 659.928 142.564 673.268 142.565 673.269 C 142.566 673.269 156.271 668.698 156.272 668.697 C 156.270 668.699 134.369 691.267 134.367 691.269 Z"/>
<path fill="#ffff00" fill-rule="evenodd" stroke="none" d="M 377.764 621.846 C 377.762 621.843 359.071 596.553 359.069 596.551 C 359.070 596.552 361.344 610.819 361.344 610.821 C 361.343 610.821 347.277 614.117 347.275 614.117 C 347.278 614.118 377.761 621.845 377.764 621.846 Z"/>
</g>
</g>
</svg>
