<?xml version="1.0" encoding="utf-8"?>
<!-- Generator: Moho 12.5 build 22414 -->
<!DOCTYPE svg PUBLIC "-//W3C//DTD SVG 1.1//EN" "http://www.w3.org/Graphics/SVG/1.1/DTD/svg11.dtd">
<svg version="1.1" id="Frame_0" xmlns="http://www.w3.org/2000/svg" xmlns:xlink="http://www.w3.org/1999/xlink" width="720px" height="720px">
<g id="wing_butterfly">
<g id="butterfly_wing">
<path fill="#000000" fill-rule="evenodd" stroke="none" d="M 495.357 647.130 C 495.023 637.478 502.540 629.422 512.193 629.088 C 521.846 628.754 529.902 636.271 530.236 645.924 C 530.570 655.576 523.052 663.632 513.400 663.966 C 503.747 664.300 495.691 656.783 495.357 647.130 M 434.810 655.896 C 434.428 644.849 443.031 635.629 454.078 635.247 C 465.125 634.865 474.345 643.468 474.728 654.515 C 475.110 665.562 466.506 674.782 455.459 675.165 C 444.412 675.547 435.192 666.943 434.810 655.896 M 528.706 611.694 C 528.393 602.645 535.439 595.092 544.488 594.779 C 553.537 594.466 561.090 601.513 561.403 610.562 C 561.716 619.612 554.669 627.164 545.620 627.477 C 536.571 627.790 529.019 620.743 528.706 611.694 M 597.895 151.246 C 597.654 144.265 603.090 138.439 610.071 138.198 C 617.051 137.956 622.878 143.393 623.119 150.373 C 623.361 157.354 617.924 163.180 610.943 163.422 C 603.963 163.663 598.137 158.227 597.895 151.246 M 609.077 109.471 C 608.769 100.551 615.715 93.107 624.635 92.798 C 633.554 92.490 640.999 99.436 641.307 108.355 C 641.616 117.275 634.670 124.720 625.750 125.028 C 616.830 125.337 609.386 118.390 609.077 109.471 M 604.311 52.814 C 603.882 40.404 613.546 30.047 625.956 29.617 C 638.366 29.188 648.724 38.853 649.153 51.263 C 649.583 63.673 639.918 74.030 627.508 74.460 C 615.098 74.889 604.740 65.224 604.311 52.814 M 569.045 129.776 C 511.646 159.717 456.144 191.034 456.133 191.041 C 456.133 191.036 460.261 160.151 454.352 147.326 C 450.539 139.053 434.326 127.444 434.324 127.442 C 434.329 127.437 475.504 92.201 490.027 82.888 C 510.475 69.775 566.859 28.746 580.091 38.446 C 592.212 47.332 621.459 102.435 569.045 129.776 M 549.137 522.704 C 579.344 524.792 568.567 549.467 567.152 565.239 C 565.748 580.879 548.247 580.026 538.665 579.768 C 510.879 579.021 464.703 523.853 464.696 523.848 C 464.697 523.846 471.254 508.614 471.255 508.613 C 471.262 508.614 498.684 519.218 549.137 522.704 M 468.114 499.279 C 470.866 500.590 546.823 515.955 552.660 504.604 C 561.300 487.799 540.379 469.238 534.698 465.119 C 523.632 457.095 450.255 462.510 450.247 462.509 C 450.248 462.513 466.109 485.051 468.114 499.279 M 524.599 453.022 C 473.879 449.937 444.252 448.888 444.244 448.888 C 444.241 448.884 412.948 415.261 412.944 415.257 C 412.954 415.258 476.050 413.392 506.876 420.444 C 529.952 425.723 541.101 454.026 524.599 453.022 M 453.922 528.765 C 451.138 530.117 402.532 522.245 402.527 522.245 C 402.530 522.250 424.339 554.830 434.672 575.976 C 442.256 591.497 441.827 607.335 451.503 618.741 C 463.056 632.357 483.947 629.099 495.897 622.737 C 503.916 618.466 514.158 603.880 511.563 597.253 C 503.209 575.918 452.530 530.141 453.922 528.765 M 299.643 543.641 C 265.432 464.994 273.531 439.529 277.865 436.665 C 282.769 433.425 355.123 497.314 374.566 513.532 C 389.086 525.643 436.290 591.076 425.976 637.652 C 417.442 676.185 378.222 638.041 361.671 621.896 C 350.050 610.560 312.483 573.159 299.643 543.641 M 352.365 471.428 C 264.463 412.277 275.732 410.183 279.337 401.991 C 283.186 393.243 366.814 402.279 386.320 413.551 C 407.107 425.564 461.896 497.060 453.395 506.564 C 439.767 521.798 402.474 505.147 352.365 471.428 M 400.595 377.048 C 359.734 376.415 329.104 375.026 329.097 375.026 C 329.105 375.020 386.192 346.084 408.697 317.871 C 426.074 296.086 488.396 304.181 544.853 280.754 C 582.582 265.099 562.557 329.521 540.174 348.260 C 510.184 373.368 473.960 378.184 400.595 377.048 M 538.714 265.534 C 478.148 289.171 424.680 290.468 424.669 290.470 C 424.671 290.466 437.822 263.269 443.677 245.579 C 448.130 232.123 452.598 209.591 452.599 209.587 C 452.611 209.581 561.769 144.344 578.083 146.320 C 600.619 149.048 602.312 240.713 538.714 265.534 M 398.296 302.661 C 367.605 348.625 284.129 385.511 277.501 379.796 C 271.061 374.243 318.501 273.161 331.993 251.641 C 401.851 140.214 429.011 138.231 440.996 158.077 C 451.131 174.861 433.960 249.249 398.296 302.661 Z"/>
<path fill="none" stroke="#ffffff" stroke-width="1" stroke-linecap="butt" stroke-linejoin="round" d="M 495.357 647.130 C 495.023 637.478 502.540 629.422 512.193 629.088 "/>
<path fill="none" stroke="#ffffff" stroke-width="1" stroke-linecap="butt" stroke-linejoin="round" d="M 512.193 629.088 C 521.846 628.754 529.902 636.271 530.236 645.924 "/>
<path fill="none" stroke="#ffffff" stroke-width="1" stroke-linecap="butt" stroke-linejoin="round" d="M 530.236 645.924 C 530.570 655.576 523.052 663.632 513.400 663.966 "/>
<path fill="none" stroke="#ffffff" stroke-width="1" stroke-linecap="butt" stroke-linejoin="round" d="M 513.400 663.966 C 503.747 664.300 495.691 656.783 495.357 647.130 "/>
<path fill="none" stroke="#ffffff" stroke-width="1" stroke-linecap="butt" stroke-linejoin="round" d="M 434.810 655.896 C 434.428 644.849 443.031 635.629 454.078 635.247 "/>
<path fill="none" stroke="#ffffff" stroke-width="1" stroke-linecap="butt" stroke-linejoin="round" d="M 454.078 635.247 C 465.125 634.865 474.345 643.468 474.728 654.515 "/>
<path fill="none" stroke="#ffffff" stroke-width="1" stroke-linecap="butt" stroke-linejoin="round" d="M 474.728 654.515 C 475.110 665.562 466.506 674.782 455.459 675.165 "/>
<path fill="none" stroke="#ffffff" stroke-width="1" stroke-linecap="butt" stroke-linejoin="round" d="M 455.459 675.165 C 444.412 675.547 435.192 666.943 434.810 655.896 "/>
<path fill="none" stroke="#ffffff" stroke-width="1" stroke-linecap="butt" stroke-linejoin="round" d="M 528.706 611.694 C 528.393 602.645 535.439 595.092 544.488 594.779 "/>
<path fill="none" stroke="#ffffff" stroke-width="1" stroke-linecap="butt" stroke-linejoin="round" d="M 544.488 594.779 C 553.537 594.466 561.090 601.513 561.403 610.562 "/>
<path fill="none" stroke="#ffffff" stroke-width="1" stroke-linecap="butt" stroke-linejoin="round" d="M 561.403 610.562 C 561.716 619.612 554.669 627.164 545.620 627.477 "/>
<path fill="none" stroke="#ffffff" stroke-width="1" stroke-linecap="butt" stroke-linejoin="round" d="M 545.620 627.477 C 536.571 627.790 529.019 620.743 528.706 611.694 "/>
<path fill="none" stroke="#ffffff" stroke-width="1" stroke-linecap="butt" stroke-linejoin="round" d="M 597.895 151.246 C 597.654 144.265 603.090 138.439 610.071 138.198 "/>
<path fill="none" stroke="#ffffff" stroke-width="1" stroke-linecap="butt" stroke-linejoin="round" d="M 610.071 138.198 C 617.051 137.956 622.878 143.393 623.119 150.373 "/>
<path fill="none" stroke="#ffffff" stroke-width="1" stroke-linecap="butt" stroke-linejoin="round" d="M 623.119 150.373 C 623.361 157.354 617.924 163.180 610.943 163.422 "/>
<path fill="none" stroke="#ffffff" stroke-width="1" stroke-linecap="butt" stroke-linejoin="round" d="M 610.943 163.422 C 603.963 163.663 598.137 158.227 597.895 151.246 "/>
<path fill="none" stroke="#ffffff" stroke-width="1" stroke-linecap="butt" stroke-linejoin="round" d="M 609.077 109.471 C 608.769 100.551 615.715 93.107 624.635 92.798 "/>
<path fill="none" stroke="#ffffff" stroke-width="1" stroke-linecap="butt" stroke-linejoin="round" d="M 624.635 92.798 C 633.554 92.490 640.999 99.436 641.307 108.355 "/>
<path fill="none" stroke="#ffffff" stroke-width="1" stroke-linecap="butt" stroke-linejoin="round" d="M 641.307 108.355 C 641.616 117.275 634.670 124.720 625.750 125.028 "/>
<path fill="none" stroke="#ffffff" stroke-width="1" stroke-linecap="butt" stroke-linejoin="round" d="M 625.750 125.028 C 616.830 125.337 609.386 118.390 609.077 109.471 "/>
<path fill="none" stroke="#ffffff" stroke-width="1" stroke-linecap="butt" stroke-linejoin="round" d="M 604.311 52.814 C 603.882 40.404 613.546 30.047 625.956 29.617 "/>
<path fill="none" stroke="#ffffff" stroke-width="1" stroke-linecap="butt" stroke-linejoin="round" d="M 625.956 29.617 C 638.366 29.188 648.724 38.853 649.153 51.263 "/>
<path fill="none" stroke="#ffffff" stroke-width="1" stroke-linecap="butt" stroke-linejoin="round" d="M 649.153 51.263 C 649.583 63.673 639.918 74.030 627.508 74.460 "/>
<path fill="none" stroke="#ffffff" stroke-width="1" stroke-linecap="butt" stroke-linejoin="round" d="M 627.508 74.460 C 615.098 74.889 604.740 65.224 604.311 52.814 "/>
<path fill="none" stroke="#ffffff" stroke-width="1" stroke-linecap="butt" stroke-linejoin="round" d="M 569.045 129.776 C 511.646 159.717 456.144 191.034 456.133 191.041 "/>
<path fill="none" stroke="#ffffff" stroke-width="1" stroke-linecap="butt" stroke-linejoin="round" d="M 456.133 191.041 C 456.133 191.036 460.261 160.151 454.352 147.326 "/>
<path fill="none" stroke="#ffffff" stroke-width="1" stroke-linecap="butt" stroke-linejoin="round" d="M 454.352 147.326 C 450.539 139.053 434.326 127.444 434.324 127.442 "/>
<path fill="none" stroke="#ffffff" stroke-width="1" stroke-linecap="butt" stroke-linejoin="round" d="M 434.324 127.442 C 434.329 127.437 475.504 92.201 490.027 82.888 "/>
<path fill="none" stroke="#ffffff" stroke-width="1" stroke-linecap="butt" stroke-linejoin="round" d="M 490.027 82.888 C 510.475 69.775 566.859 28.746 580.091 38.446 "/>
<path fill="none" stroke="#ffffff" stroke-width="1" stroke-linecap="butt" stroke-linejoin="round" d="M 580.091 38.446 C 592.212 47.332 621.459 102.435 569.045 129.776 "/>
<path fill="none" stroke="#ffffff" stroke-width="1" stroke-linecap="butt" stroke-linejoin="round" d="M 549.137 522.704 C 579.344 524.792 568.567 549.467 567.152 565.239 "/>
<path fill="none" stroke="#ffffff" stroke-width="1" stroke-linecap="butt" stroke-linejoin="round" d="M 567.152 565.239 C 565.748 580.879 548.247 580.026 538.665 579.768 "/>
<path fill="none" stroke="#ffffff" stroke-width="1" stroke-linecap="butt" stroke-linejoin="round" d="M 538.665 579.768 C 510.879 579.021 464.703 523.853 464.696 523.848 "/>
<path fill="none" stroke="#ffffff" stroke-width="1" stroke-linecap="butt" stroke-linejoin="round" d="M 464.696 523.848 C 464.697 523.846 471.254 508.614 471.255 508.613 "/>
<path fill="none" stroke="#ffffff" stroke-width="1" stroke-linecap="butt" stroke-linejoin="round" d="M 471.255 508.613 C 471.262 508.614 498.684 519.218 549.137 522.704 "/>
<path fill="none" stroke="#ffffff" stroke-width="1" stroke-linecap="butt" stroke-linejoin="round" d="M 468.114 499.279 C 470.866 500.590 546.823 515.955 552.660 504.604 "/>
<path fill="none" stroke="#ffffff" stroke-width="1" stroke-linecap="butt" stroke-linejoin="round" d="M 552.660 504.604 C 561.300 487.799 540.379 469.238 534.698 465.119 "/>
<path fill="none" stroke="#ffffff" stroke-width="1" stroke-linecap="butt" stroke-linejoin="round" d="M 534.698 465.119 C 523.632 457.095 450.255 462.510 450.247 462.509 "/>
<path fill="none" stroke="#ffffff" stroke-width="1" stroke-linecap="butt" stroke-linejoin="round" d="M 450.247 462.509 C 450.248 462.513 466.109 485.051 468.114 499.279 "/>
<path fill="none" stroke="#ffffff" stroke-width="1" stroke-linecap="butt" stroke-linejoin="round" d="M 524.599 453.022 C 473.879 449.937 444.252 448.888 444.244 448.888 "/>
<path fill="none" stroke="#ffffff" stroke-width="1" stroke-linecap="butt" stroke-linejoin="round" d="M 444.244 448.888 C 444.241 448.884 412.948 415.261 412.944 415.257 "/>
<path fill="none" stroke="#ffffff" stroke-width="1" stroke-linecap="butt" stroke-linejoin="round" d="M 412.944 415.257 C 412.954 415.258 476.050 413.392 506.876 420.444 "/>
<path fill="none" stroke="#ffffff" stroke-width="1" stroke-linecap="butt" stroke-linejoin="round" d="M 506.876 420.444 C 529.952 425.723 541.101 454.026 524.599 453.022 "/>
<path fill="none" stroke="#ffffff" stroke-width="1" stroke-linecap="butt" stroke-linejoin="round" d="M 453.922 528.765 C 451.138 530.117 402.532 522.245 402.527 522.245 "/>
<path fill="none" stroke="#ffffff" stroke-width="1" stroke-linecap="butt" stroke-linejoin="round" d="M 402.527 522.245 C 402.530 522.250 424.339 554.830 434.672 575.976 "/>
<path fill="none" stroke="#ffffff" stroke-width="1" stroke-linecap="butt" stroke-linejoin="round" d="M 434.672 575.976 C 442.256 591.497 441.827 607.335 451.503 618.741 "/>
<path fill="none" stroke="#ffffff" stroke-width="1" stroke-linecap="butt" stroke-linejoin="round" d="M 451.503 618.741 C 463.056 632.357 483.947 629.099 495.897 622.737 "/>
<path fill="none" stroke="#ffffff" stroke-width="1" stroke-linecap="butt" stroke-linejoin="round" d="M 495.897 622.737 C 503.916 618.466 514.158 603.880 511.563 597.253 "/>
<path fill="none" stroke="#ffffff" stroke-width="1" stroke-linecap="butt" stroke-linejoin="round" d="M 511.563 597.253 C 503.209 575.918 452.530 530.141 453.922 528.765 "/>
<path fill="none" stroke="#ffffff" stroke-width="1" stroke-linecap="butt" stroke-linejoin="round" d="M 299.643 543.641 C 265.432 464.994 273.531 439.529 277.865 436.665 "/>
<path fill="none" stroke="#ffffff" stroke-width="1" stroke-linecap="butt" stroke-linejoin="round" d="M 277.865 436.665 C 282.769 433.425 355.123 497.314 374.566 513.532 "/>
<path fill="none" stroke="#ffffff" stroke-width="1" stroke-linecap="butt" stroke-linejoin="round" d="M 374.566 513.532 C 389.086 525.643 436.290 591.076 425.976 637.652 "/>
<path fill="none" stroke="#ffffff" stroke-width="1" stroke-linecap="butt" stroke-linejoin="round" d="M 425.976 637.652 C 417.442 676.185 378.222 638.041 361.671 621.896 "/>
<path fill="none" stroke="#ffffff" stroke-width="1" stroke-linecap="butt" stroke-linejoin="round" d="M 361.671 621.896 C 350.050 610.560 312.483 573.159 299.643 543.641 "/>
<path fill="none" stroke="#ffffff" stroke-width="1" stroke-linecap="butt" stroke-linejoin="round" d="M 352.365 471.428 C 264.463 412.277 275.732 410.183 279.337 401.991 "/>
<path fill="none" stroke="#ffffff" stroke-width="1" stroke-linecap="butt" stroke-linejoin="round" d="M 279.337 401.991 C 283.186 393.243 366.814 402.279 386.320 413.551 "/>
<path fill="none" stroke="#ffffff" stroke-width="1" stroke-linecap="butt" stroke-linejoin="round" d="M 386.320 413.551 C 407.107 425.564 461.896 497.060 453.395 506.564 "/>
<path fill="none" stroke="#ffffff" stroke-width="1" stroke-linecap="butt" stroke-linejoin="round" d="M 453.395 506.564 C 439.767 521.798 402.474 505.147 352.365 471.428 "/>
<path fill="none" stroke="#ffffff" stroke-width="1" stroke-linecap="butt" stroke-linejoin="round" d="M 400.595 377.048 C 359.734 376.415 329.104 375.026 329.097 375.026 "/>
<path fill="none" stroke="#ffffff" stroke-width="1" stroke-linecap="butt" stroke-linejoin="round" d="M 329.097 375.026 C 329.105 375.020 386.192 346.084 408.697 317.871 "/>
<path fill="none" stroke="#ffffff" stroke-width="1" stroke-linecap="butt" stroke-linejoin="round" d="M 408.697 317.871 C 426.074 296.086 488.396 304.181 544.853 280.754 "/>
<path fill="none" stroke="#ffffff" stroke-width="1" stroke-linecap="butt" stroke-linejoin="round" d="M 544.853 280.754 C 582.582 265.099 562.557 329.521 540.174 348.260 "/>
<path fill="none" stroke="#ffffff" stroke-width="1" stroke-linecap="butt" stroke-linejoin="round" d="M 540.174 348.260 C 510.184 373.368 473.960 378.184 400.595 377.048 "/>
<path fill="none" stroke="#ffffff" stroke-width="1" stroke-linecap="butt" stroke-linejoin="round" d="M 538.714 265.534 C 478.148 289.171 424.680 290.468 424.669 290.470 "/>
<path fill="none" stroke="#ffffff" stroke-width="1" stroke-linecap="butt" stroke-linejoin="round" d="M 424.669 290.470 C 424.671 290.466 437.822 263.269 443.677 245.579 "/>
<path fill="none" stroke="#ffffff" stroke-width="1" stroke-linecap="butt" stroke-linejoin="round" d="M 443.677 245.579 C 448.130 232.123 452.598 209.591 452.599 209.587 "/>
<path fill="none" stroke="#ffffff" stroke-width="1" stroke-linecap="butt" stroke-linejoin="round" d="M 452.599 209.587 C 452.611 209.581 561.769 144.344 578.083 146.320 "/>
<path fill="none" stroke="#ffffff" stroke-width="1" stroke-linecap="butt" stroke-linejoin="round" d="M 578.083 146.320 C 600.619 149.048 602.312 240.713 538.714 265.534 "/>
<path fill="none" stroke="#ffffff" stroke-width="1" stroke-linecap="butt" stroke-linejoin="round" d="M 398.296 302.661 C 367.605 348.625 284.129 385.511 277.501 379.796 "/>
<path fill="none" stroke="#ffffff" stroke-width="1" stroke-linecap="butt" stroke-linejoin="round" d="M 277.501 379.796 C 271.061 374.243 318.501 273.161 331.993 251.641 "/>
<path fill="none" stroke="#ffffff" stroke-width="1" stroke-linecap="butt" stroke-linejoin="round" d="M 331.993 251.641 C 401.851 140.214 429.011 138.231 440.996 158.077 "/>
<path fill="none" stroke="#ffffff" stroke-width="1" stroke-linecap="butt" stroke-linejoin="round" d="M 440.996 158.077 C 451.131 174.861 433.960 249.249 398.296 302.661 "/>
<path fill="#ffffff" fill-rule="evenodd" stroke="#000000" stroke-width="4" stroke-linecap="round" stroke-linejoin="round" d="M 275.494 528.023 C 245.995 425.361 264.605 362.599 281.994 320.571 C 309.114 255.025 351.163 171.055 401.948 124.353 C 458.349 72.487 554.541 5.232 630.931 11.206 C 643.884 12.219 663.349 19.470 669.494 30.917 C 700.824 89.279 613.795 175.191 593.894 238.371 C 582.782 273.650 583.344 327.469 561.533 357.342 C 553.689 368.085 539.306 379.647 525.971 383.826 C 474.461 399.968 346.082 386.962 346.064 386.962 C 346.079 386.964 414.790 396.649 496.538 401.440 C 524.382 403.072 548.716 443.356 561.086 468.355 C 578.818 504.188 590.434 562.499 578.106 600.531 C 562.795 647.769 517.602 682.209 475.898 684.279 C 436.453 686.237 407.233 678.915 388.063 663.807 C 346.503 631.056 295.294 596.931 275.494 528.023 M 495.357 647.130 C 495.023 637.478 502.540 629.422 512.193 629.088 C 521.846 628.754 529.902 636.271 530.236 645.924 C 530.570 655.576 523.052 663.632 513.400 663.966 C 503.747 664.300 495.691 656.783 495.357 647.130 M 434.810 655.896 C 434.428 644.849 443.031 635.629 454.078 635.247 C 465.125 634.865 474.345 643.468 474.728 654.515 C 475.110 665.562 466.506 674.782 455.459 675.165 C 444.412 675.547 435.192 666.943 434.810 655.896 M 528.706 611.694 C 528.393 602.645 535.439 595.092 544.488 594.779 C 553.537 594.466 561.090 601.513 561.403 610.562 C 561.716 619.612 554.669 627.164 545.620 627.477 C 536.571 627.790 529.019 620.743 528.706 611.694 M 597.895 151.246 C 597.654 144.265 603.090 138.439 610.071 138.198 C 617.051 137.956 622.878 143.393 623.119 150.373 C 623.361 157.354 617.924 163.180 610.943 163.422 C 603.963 163.663 598.137 158.227 597.895 151.246 M 609.077 109.471 C 608.769 100.551 615.715 93.107 624.635 92.798 C 633.554 92.490 640.999 99.436 641.307 108.355 C 641.616 117.275 634.670 124.720 625.750 125.028 C 616.830 125.337 609.386 118.390 609.077 109.471 M 604.311 52.814 C 603.882 40.404 613.546 30.047 625.956 29.617 C 638.366 29.188 648.724 38.853 649.153 51.263 C 649.583 63.673 639.918 74.030 627.508 74.460 C 615.098 74.889 604.740 65.224 604.311 52.814 M 569.045 129.776 C 511.646 159.717 456.144 191.034 456.133 191.041 C 456.133 191.036 460.261 160.151 454.352 147.326 C 450.539 139.053 434.326 127.444 434.324 127.442 C 434.329 127.437 475.504 92.201 490.027 82.888 C 510.475 69.775 566.859 28.746 580.091 38.446 C 592.212 47.332 621.459 102.435 569.045 129.776 M 549.137 522.704 C 579.344 524.792 568.567 549.467 567.152 565.239 C 565.748 580.879 548.247 580.026 538.665 579.768 C 510.879 579.021 464.703 523.853 464.696 523.848 C 464.697 523.846 471.254 508.614 471.255 508.613 C 471.262 508.614 498.684 519.218 549.137 522.704 M 468.114 499.279 C 470.866 500.590 546.823 515.955 552.660 504.604 C 561.300 487.799 540.379 469.238 534.698 465.119 C 523.632 457.095 450.255 462.510 450.247 462.509 C 450.248 462.513 466.109 485.051 468.114 499.279 M 524.599 453.022 C 473.879 449.937 444.252 448.888 444.244 448.888 C 444.241 448.884 412.948 415.261 412.944 415.257 C 412.954 415.258 476.050 413.392 506.876 420.444 C 529.952 425.723 541.101 454.026 524.599 453.022 M 453.922 528.765 C 451.138 530.117 402.532 522.245 402.527 522.245 C 402.530 522.250 424.339 554.830 434.672 575.976 C 442.256 591.497 441.827 607.335 451.503 618.741 C 463.056 632.357 483.947 629.099 495.897 622.737 C 503.916 618.466 514.158 603.880 511.563 597.253 C 503.209 575.918 452.530 530.141 453.922 528.765 M 299.643 543.641 C 265.432 464.994 273.531 439.529 277.865 436.665 C 282.769 433.425 355.123 497.314 374.566 513.532 C 389.086 525.643 436.290 591.076 425.976 637.652 C 417.442 676.185 378.222 638.041 361.671 621.896 C 350.050 610.560 312.483 573.159 299.643 543.641 M 352.365 471.428 C 264.463 412.277 275.732 410.183 279.337 401.991 C 283.186 393.243 366.814 402.279 386.320 413.551 C 407.107 425.564 461.896 497.060 453.395 506.564 C 439.767 521.798 402.474 505.147 352.365 471.428 M 400.595 377.048 C 359.734 376.415 329.104 375.026 329.097 375.026 C 329.105 375.020 386.192 346.084 408.697 317.871 C 426.074 296.086 488.396 304.181 544.853 280.754 C 582.582 265.099 562.557 329.521 540.174 348.260 C 510.184 373.368 473.960 378.184 400.595 377.048 M 538.714 265.534 C 478.148 289.171 424.680 290.468 424.669 290.470 C 424.671 290.466 437.822 263.269 443.677 245.579 C 448.130 232.123 452.598 209.591 452.599 209.587 C 452.611 209.581 561.769 144.344 578.083 146.320 C 600.619 149.048 602.312 240.713 538.714 265.534 M 398.296 302.661 C 367.605 348.625 284.129 385.511 277.501 379.796 C 271.061 374.243 318.501 273.161 331.993 251.641 C 401.851 140.214 429.011 138.231 440.996 158.077 C 451.131 174.861 433.960 249.249 398.296 302.661 Z"/>
</g>
<g id="specs">
<path fill="#ff0000" fill-rule="evenodd" stroke="none" d="M 286.185 395.394 C 286.182 395.395 251.376 407.826 251.372 407.827 C 251.374 407.826 262.940 395.395 262.941 395.394 C 262.940 395.393 251.374 382.962 251.372 382.961 C 251.376 382.962 286.182 395.393 286.185 395.394 Z"/>
<path fill="#0000ff" fill-rule="evenodd" stroke="none" d="M 666.483 9.131 C 666.483 9.133 658.861 29.203 658.861 29.205 C 658.861 29.204 657.724 19.408 657.724 19.407 C 657.723 19.407 647.870 19.835 647.868 19.835 C 647.870 19.834 666.481 9.132 666.483 9.131 Z"/>
<path fill="#00ff00" fill-rule="evenodd" stroke="none" d="M 445.527 392.794 C 445.525 392.793 425.344 385.470 425.342 385.469 C 425.342 385.470 432.024 392.725 432.025 392.726 C 432.024 392.726 425.270 399.913 425.269 399.914 C 425.271 399.913 445.525 392.794 445.527 392.794 Z"/>
<path fill="#ffff00" fill-rule="evenodd" stroke="none" d="M 540.764 672.369 C 540.763 672.367 531.413 653.041 531.413 653.039 C 531.413 653.040 531.138 662.900 531.138 662.901 C 531.137 662.901 521.284 663.337 521.283 663.337 C 521.285 663.338 540.762 672.368 540.764 672.369 Z"/>
<path fill="#00ffff" fill-rule="evenodd" stroke="none" d="M 659.213 145.288 C 659.211 145.288 637.763 146.248 637.761 146.248 C 637.762 146.247 646.306 141.320 646.306 141.319 C 646.306 141.319 642.007 132.442 642.007 132.441 C 642.008 132.443 659.211 145.287 659.213 145.288 Z"/>
<path fill="#00ffff" fill-rule="evenodd" stroke="none" d="M 523.109 23.086 C 523.109 23.088 523.941 44.541 523.941 44.543 C 523.941 44.542 528.139 35.617 528.140 35.616 C 528.141 35.617 537.344 39.161 537.345 39.161 C 537.344 39.160 523.111 23.088 523.109 23.086 Z"/>
</g>
</g>
</svg>
