<?xml version="1.0" encoding="utf-8"?>
<!-- Generator: Moho 12.5 build 22414 -->
<!DOCTYPE svg PUBLIC "-//W3C//DTD SVG 1.1//EN" "http://www.w3.org/Graphics/SVG/1.1/DTD/svg11.dtd">
<svg version="1.1" id="Frame_0" xmlns="http://www.w3.org/2000/svg" xmlns:xlink="http://www.w3.org/1999/xlink" width="720px" height="720px">
<g id="wing_eagle">
<g id="wing_eagle_2">
<path fill="#ffffff" fill-rule="evenodd" stroke="#000000" stroke-width="3" stroke-linejoin="round" d="M 150.877 304.166 C 170.990 287.148 264.054 272.855 297.629 245.294 C 349.553 202.673 360.247 138.574 347.926 97.491 C 335.439 55.855 284.897 61.250 284.891 61.246 C 284.901 61.243 307.863 18.963 382.596 31.304 C 422.755 37.936 452.966 70.157 452.973 70.161 C 452.975 70.166 473.435 102.177 478.332 115.610 C 506.395 192.587 487.301 285.005 519.697 382.725 C 552.394 481.355 647.333 623.810 647.344 623.835 C 647.335 623.830 570.044 647.363 484.699 483.448 C 456.819 429.901 437.033 333.148 437.028 333.133 C 437.031 333.149 450.223 431.516 469.070 489.493 C 494.048 566.330 554.356 683.699 554.367 683.718 C 554.359 683.714 463.902 695.406 397.239 492.775 C 379.485 438.810 370.582 346.035 370.580 346.020 C 370.581 346.036 373.625 443.860 387.709 501.907 C 405.853 576.685 461.382 690.003 461.390 690.022 C 461.376 690.005 357.596 665.625 322.712 519.827 C 312.595 477.541 308.723 406.542 308.722 406.531 C 308.722 406.541 306.592 468.295 309.575 506.105 C 314.414 567.430 327.438 647.459 327.440 647.473 C 327.432 647.459 264.152 626.487 249.437 504.068 C 245.157 468.467 242.082 410.222 242.081 410.212 C 242.081 410.220 236.193 457.478 237.415 486.602 C 239.639 539.624 242.342 611.216 242.342 611.228 C 242.336 611.214 184.292 582.461 179.046 463.949 C 177.899 438.052 177.538 395.912 177.538 395.905 C 177.537 395.910 173.063 421.382 173.197 446.153 C 173.431 489.637 168.276 532.426 168.276 532.434 C 168.271 532.422 115.200 508.473 121.000 409.515 C 124.338 352.558 135.834 316.895 150.877 304.166 Z"/>
<path fill="none" stroke="#ffffff" stroke-width="1" stroke-linecap="butt" stroke-linejoin="round" d="M 150.877 304.166 C 170.990 287.148 264.054 272.855 297.629 245.294 "/>
<path fill="none" stroke="#ffffff" stroke-width="1" stroke-linecap="butt" stroke-linejoin="round" d="M 297.629 245.294 C 349.553 202.673 360.247 138.574 347.926 97.491 "/>
<path fill="none" stroke="#ffffff" stroke-width="1" stroke-linecap="butt" stroke-linejoin="round" d="M 347.926 97.491 C 335.439 55.855 284.897 61.250 284.891 61.246 "/>
<path fill="none" stroke="#ffffff" stroke-width="1" stroke-linecap="butt" stroke-linejoin="round" d="M 284.891 61.246 C 284.901 61.243 307.863 18.963 382.596 31.304 "/>
<path fill="none" stroke="#ffffff" stroke-width="1" stroke-linecap="butt" stroke-linejoin="round" d="M 382.596 31.304 C 422.755 37.936 452.966 70.157 452.973 70.161 "/>
<path fill="#ffffff" fill-rule="evenodd" stroke="#000000" stroke-width="3" stroke-linejoin="round" d="M 190.508 425.268 C 190.504 425.256 104.769 409.777 150.877 304.166 C 170.990 287.148 264.054 272.855 297.629 245.294 C 349.553 202.673 360.247 138.574 347.926 97.491 C 335.439 55.855 284.897 61.250 284.891 61.246 C 284.901 61.243 307.863 18.963 382.596 31.304 C 422.755 37.936 452.966 70.157 452.973 70.161 C 522.695 144.465 490.441 258.080 552.208 371.209 C 512.486 370.840 484.749 368.881 461.451 292.046 C 452.562 262.733 449.517 212.938 449.516 212.930 C 449.516 212.938 449.731 263.108 451.151 294.077 C 452.908 332.394 477.055 363.380 488.269 396.750 C 429.386 385.494 415.412 372.211 398.711 335.384 C 388.392 312.629 390.947 270.253 390.946 270.246 C 390.946 270.252 392.661 301.321 392.006 323.979 C 390.510 375.744 412.152 421.858 412.154 421.868 C 412.146 421.861 353.241 425.945 338.847 355.457 C 334.906 336.155 338.803 303.739 338.803 303.734 C 338.802 303.738 332.562 330.745 331.137 347.673 C 326.695 400.462 336.421 442.519 336.422 442.528 C 336.415 442.521 288.197 429.544 272.341 371.758 C 267.339 353.527 265.155 322.652 265.155 322.647 C 265.154 322.651 267.984 350.708 263.915 368.358 C 256.787 399.269 259.124 442.751 259.123 442.758 C 259.118 442.749 201.284 429.304 204.685 353.390 C 205.030 345.679 203.236 333.177 203.236 333.175 C 203.235 333.178 200.674 348.893 197.516 360.720 C 189.090 392.284 190.509 425.262 190.508 425.268 Z"/>
<path fill="#ffffff" fill-rule="evenodd" stroke="#000000" stroke-width="3" stroke-linejoin="round" d="M 226.954 372.618 C 226.947 372.611 147.818 387.279 150.596 303.579 C 170.709 286.560 263.773 272.268 297.349 244.707 C 349.272 202.086 359.966 137.987 347.646 96.904 C 335.159 55.268 284.617 60.662 284.611 60.659 C 284.621 60.655 303.535 19.031 378.379 22.844 C 414.634 24.692 421.903 30.424 445.515 48.015 C 502.426 96.852 475.217 125.377 535.431 148.833 C 506.876 169.063 460.052 183.878 434.969 114.717 C 412.537 52.864 360.366 57.414 360.358 57.409 C 360.365 57.414 406.008 56.597 431.553 113.233 C 452.863 160.480 442.675 169.724 493.061 219.985 C 441.669 227.383 396.608 222.215 397.754 179.786 C 399.038 132.243 381.243 115.871 381.242 115.865 C 381.243 115.872 399.119 134.304 395.459 184.396 C 394.177 201.940 418.610 216.722 418.444 221.196 C 416.537 272.796 439.519 294.102 439.521 294.109 C 439.513 294.107 354.175 331.704 360.321 272.268 C 363.492 241.599 355.325 222.051 355.324 222.046 C 355.324 222.053 366.029 244.422 356.329 287.978 C 348.457 323.323 373.448 343.501 373.450 343.507 C 373.442 343.504 296.596 350.456 299.107 316.733 C 301.386 286.107 299.095 275.957 299.095 275.953 C 299.094 275.958 305.568 302.883 294.307 319.145 C 281.571 337.538 295.236 365.301 295.236 365.306 C 295.230 365.302 226.264 382.139 229.967 327.483 C 230.903 313.662 228.644 302.933 228.644 302.930 C 228.643 302.933 234.951 317.157 224.573 334.051 C 210.246 357.373 226.954 372.614 226.954 372.618 Z"/>
</g>
<g id="specs_2">
<path fill="#ff0000" fill-rule="evenodd" stroke="none" d="M 182.384 338.562 C 182.381 338.563 147.575 350.994 147.571 350.995 C 147.573 350.994 159.139 338.563 159.140 338.562 C 159.139 338.561 147.573 326.130 147.571 326.129 C 147.575 326.130 182.381 338.561 182.384 338.562 Z"/>
<path fill="#0000ff" fill-rule="evenodd" stroke="none" d="M 360.000 11.446 C 360.001 11.449 367.221 31.667 367.222 31.669 C 367.221 31.668 360.001 24.950 360.000 24.949 C 359.999 24.950 352.779 31.668 352.778 31.669 C 352.779 31.667 359.999 11.449 360.000 11.446 Z"/>
<path fill="#00ff00" fill-rule="evenodd" stroke="none" d="M 118.544 340.974 C 118.546 340.973 138.727 333.650 138.729 333.650 C 138.729 333.650 132.047 340.905 132.046 340.906 C 132.047 340.907 138.801 348.093 138.802 348.094 C 138.800 348.093 118.546 340.975 118.544 340.974 Z"/>
<path fill="#ffff00" fill-rule="evenodd" stroke="none" d="M 137.732 521.274 C 137.732 521.272 146.693 501.762 146.694 501.760 C 146.694 501.761 147.166 511.613 147.166 511.614 C 147.167 511.614 157.026 511.853 157.027 511.853 C 157.025 511.854 137.733 521.273 137.732 521.274 Z"/>
<path fill="#ffff00" fill-rule="evenodd" stroke="none" d="M 636.031 623.289 C 636.030 623.288 626.680 603.962 626.679 603.960 C 626.679 603.961 626.406 613.820 626.406 613.821 C 626.404 613.821 616.551 614.258 616.550 614.258 C 616.552 614.259 636.029 623.289 636.031 623.289 Z"/>
<path fill="#00ff00" fill-rule="evenodd" stroke="none" d="M 560.343 364.166 C 560.341 364.165 540.160 356.842 540.158 356.841 C 540.159 356.842 546.840 364.097 546.841 364.098 C 546.840 364.099 540.086 371.285 540.085 371.286 C 540.087 371.285 560.341 364.167 560.343 364.166 Z"/>
<path fill="#00ffff" fill-rule="evenodd" stroke="none" d="M 460.102 41.815 C 460.101 41.817 452.934 62.054 452.933 62.056 C 452.933 62.055 451.576 52.286 451.576 52.285 C 451.575 52.285 441.734 52.935 441.733 52.935 C 441.735 52.934 460.100 41.816 460.102 41.815 Z"/>
<path fill="#00ffff" fill-rule="evenodd" stroke="none" d="M 284.256 235.400 C 284.257 235.402 292.757 255.116 292.758 255.118 C 292.758 255.117 293.461 245.279 293.461 245.278 C 293.462 245.278 303.324 245.271 303.325 245.271 C 303.323 245.270 284.258 235.401 284.256 235.400 Z"/>
<path fill="#be0027" fill-rule="evenodd" stroke="none" d="M 463.104 694.991 C 463.103 694.987 450.648 660.190 450.646 660.187 C 450.646 660.188 448.367 677.014 448.366 677.015 C 448.365 677.015 431.419 675.952 431.417 675.952 C 431.421 675.954 463.101 694.989 463.104 694.991 Z"/>
</g>
</g>
</svg>
