<?xml version="1.0" encoding="utf-8"?>
<!-- Generator: Moho 13.0.3 build 635 -->
<!DOCTYPE svg PUBLIC "-//W3C//DTD SVG 1.1//EN" "http://www.w3.org/Graphics/SVG/1.1/DTD/svg11.dtd">
<svg version="1.1" id="Frame_0" xmlns="http://www.w3.org/2000/svg" xmlns:xlink="http://www.w3.org/1999/xlink" width="720px" height="720px">
<g id="wingR">
<path fill="#ffffff" fill-rule="evenodd" stroke="#000000" stroke-width="4" stroke-linecap="round" stroke-linejoin="round" d="M 34.101 521.044 C 34.113 521.034 114.448 490.726 159.159 425.665 C 220.665 336.167 165.862 290.519 201.307 237.112 C 222.049 205.859 272.768 194.075 346.636 152.107 C 471.542 81.142 558.220 33.167 569.938 49.191 C 580.969 64.274 546.247 131.326 510.489 158.668 C 471.516 188.470 392.768 219.850 392.756 219.856 C 392.769 219.853 514.070 174.256 523.850 191.825 C 530.757 204.234 503.137 247.818 470.795 270.236 C 443.016 289.492 373.942 311.210 373.932 311.214 C 373.944 311.213 491.514 285.350 498.193 302.797 C 502.987 315.320 469.087 358.484 437.711 368.628 C 384.300 385.896 335.189 394.085 335.179 394.087 C 335.190 394.089 444.137 391.531 448.075 408.136 C 450.831 419.761 421.768 456.367 389.351 461.954 C 355.779 467.739 296.751 465.546 296.742 465.546 C 296.752 465.549 390.793 472.992 399.956 493.858 C 403.148 501.127 383.160 524.509 341.077 536.559 C 294.757 549.822 258.990 527.706 258.982 527.705 C 258.988 527.710 329.068 562.628 325.530 574.288 C 321.025 589.135 290.282 597.602 256.763 594.254 C 232.225 591.803 185.785 565.420 185.778 565.417 C 185.785 565.423 268.211 611.526 252.327 629.745 C 245.098 638.037 198.607 636.080 179.123 625.309 C 165.586 617.826 114.801 580.949 114.795 580.944 C 114.797 580.951 152.749 640.914 141.414 643.055 C 112.554 648.506 87.957 634.897 68.210 618.654 C 55.404 608.121 34.104 572.068 34.101 572.063 C 34.100 572.058 34.101 521.049 34.101 521.044 Z"/>
</g>
</svg>
