<?xml version="1.0" encoding="utf-8"?>
<!-- Generator: Moho 12.5 build 22414 -->
<!DOCTYPE svg PUBLIC "-//W3C//DTD SVG 1.1//EN" "http://www.w3.org/Graphics/SVG/1.1/DTD/svg11.dtd">
<svg version="1.1" id="Frame_0" xmlns="http://www.w3.org/2000/svg" xmlns:xlink="http://www.w3.org/1999/xlink" width="720px" height="720px">
<g id="wing_angel">
<g id="wing_angel">
<path fill="#ffffff" fill-rule="evenodd" stroke="#000000" stroke-width="4" stroke-linecap="round" stroke-linejoin="round" d="M 468.310 681.345 C 419.317 657.329 442.781 260.936 442.789 260.897 C 442.780 260.933 437.823 644.422 419.110 635.144 C 373.731 612.644 404.776 243.986 404.783 243.950 C 404.776 243.983 386.975 588.392 379.571 585.192 C 333.388 565.231 366.351 215.219 366.351 215.188 C 366.351 215.217 351.846 509.592 346.759 507.445 C 292.812 484.677 334.843 199.390 334.844 199.364 C 334.842 199.387 313.137 437.450 307.893 432.164 C 261.560 385.455 299.299 179.503 299.300 179.483 C 299.298 179.500 279.823 351.837 276.182 347.849 C 232.603 300.120 272.851 161.575 272.853 161.562 C 272.850 161.574 250.169 277.386 248.445 274.157 C 229.113 237.973 232.286 200.250 240.159 171.796 C 237.706 184.469 233.545 187.338 230.314 187.758 C 210.371 190.353 216.494 157.527 229.448 126.625 C 244.070 91.746 285.147 49.540 333.196 40.184 C 376.606 31.731 421.611 44.145 459.153 79.832 C 491.519 110.600 479.836 174.755 477.989 263.761 C 471.431 579.715 489.527 691.746 468.310 681.345 Z"/>
<path fill="none" stroke="#000000" stroke-width="4" stroke-linecap="round" stroke-linejoin="round" d="M 269.405 94.314 C 269.405 94.321 246.859 136.081 272.980 159.541 C 284.656 170.028 296.717 95.456 296.720 95.449 C 296.720 95.458 274.035 165.508 305.434 183.815 C 318.750 191.579 323.188 108.020 323.190 108.012 C 323.191 108.022 312.251 184.711 340.541 202.098 C 357.320 212.410 357.187 117.383 357.189 117.375 C 357.191 117.386 347.193 215.433 378.848 227.909 C 393.901 233.842 391.747 122.150 391.748 122.139 C 391.750 122.152 383.497 237.090 410.748 247.723 C 437.839 258.293 428.384 143.640 428.386 143.629 C 428.389 143.642 424.099 273.172 457.421 267.966 C 468.134 266.292 460.569 156.625 460.569 156.614 "/>
<path fill="none" stroke="#000000" stroke-width="4" stroke-linecap="round" stroke-linejoin="round" d="M 302.453 68.696 C 302.455 68.700 298.015 99.678 318.591 107.451 C 331.756 112.424 332.835 67.189 332.836 67.185 C 332.839 67.190 327.763 106.462 352.590 116.814 C 366.895 122.779 365.726 67.632 365.727 67.627 C 365.729 67.633 366.939 111.340 388.126 120.325 C 403.442 126.820 402.654 73.234 402.655 73.229 C 402.658 73.236 399.325 139.567 428.247 142.514 C 440.647 143.778 431.632 87.751 431.632 87.745 C 431.635 87.752 432.121 148.928 462.938 157.452 C 475.085 160.812 465.577 105.428 465.577 105.422 "/>
</g>
<g id="specs_2">
<path fill="#ff00ff" fill-rule="evenodd" stroke="none" d="M 260.795 459.205 C 260.815 459.205 459.185 459.205 459.205 459.205 C 459.205 459.185 459.205 260.815 459.205 260.795 C 459.185 260.795 260.815 260.795 260.795 260.795 C 260.795 260.815 260.795 459.185 260.795 459.205 Z"/>
<path fill="#ff0000" fill-rule="evenodd" stroke="none" d="M 260.551 168.870 C 260.547 168.872 225.741 181.302 225.738 181.303 C 225.739 181.302 237.305 168.872 237.306 168.870 C 237.305 168.869 225.739 156.439 225.738 156.437 C 225.741 156.439 260.547 168.869 260.551 168.870 Z"/>
<path fill="#0000ff" fill-rule="evenodd" stroke="none" d="M 360.000 23.390 C 360.001 23.392 367.221 43.610 367.222 43.612 C 367.221 43.611 360.001 36.893 360.000 36.892 C 359.999 36.893 352.779 43.611 352.778 43.612 C 352.779 43.610 359.999 23.392 360.000 23.390 Z"/>
<path fill="#00ff00" fill-rule="evenodd" stroke="none" d="M 204.316 164.372 C 204.318 164.372 224.500 157.049 224.502 157.048 C 224.501 157.049 217.819 164.303 217.819 164.304 C 217.819 164.305 224.574 171.492 224.575 171.492 C 224.573 171.492 204.318 164.373 204.316 164.372 Z"/>
<path fill="#ffff00" fill-rule="evenodd" stroke="none" d="M 354.323 568.669 C 354.324 568.667 363.285 549.158 363.286 549.156 C 363.286 549.157 363.758 559.009 363.758 559.010 C 363.759 559.010 373.618 559.249 373.619 559.249 C 373.617 559.250 354.325 568.668 354.323 568.669 Z"/>
<path fill="#ffff00" fill-rule="evenodd" stroke="none" d="M 487.228 568.430 C 487.227 568.428 477.877 549.102 477.877 549.101 C 477.876 549.102 477.602 558.961 477.602 558.962 C 477.601 558.962 467.748 559.398 467.747 559.399 C 467.749 559.399 487.226 568.429 487.228 568.430 Z"/>
<path fill="#00ff00" fill-rule="evenodd" stroke="none" d="M 495.381 164.372 C 495.379 164.372 475.197 157.049 475.195 157.048 C 475.196 157.049 481.878 164.303 481.879 164.304 C 481.878 164.305 475.123 171.492 475.123 171.492 C 475.125 171.492 495.379 164.373 495.381 164.372 Z"/>
<path fill="#00ffff" fill-rule="evenodd" stroke="none" d="M 459.786 62.659 C 459.785 62.661 452.618 82.898 452.618 82.900 C 452.617 82.899 451.260 73.130 451.260 73.129 C 451.259 73.129 441.418 73.779 441.417 73.779 C 441.419 73.778 459.784 62.660 459.786 62.659 Z"/>
<path fill="#00ffff" fill-rule="evenodd" stroke="none" d="M 258.078 63.329 C 258.079 63.331 266.580 83.046 266.581 83.048 C 266.581 83.047 267.284 73.209 267.284 73.208 C 267.285 73.208 277.147 73.200 277.148 73.200 C 277.146 73.199 258.080 63.330 258.078 63.329 Z"/>
<path fill="#be0027" fill-rule="evenodd" stroke="none" d="M 467.867 697.461 C 467.868 697.457 480.299 662.651 480.300 662.648 C 480.299 662.649 467.868 674.215 467.867 674.216 C 467.866 674.215 455.435 662.649 455.434 662.648 C 455.435 662.651 467.866 697.457 467.867 697.461 Z"/>
</g>
</g>
</svg>
