<?xml version="1.0" encoding="utf-8"?>
<!-- Generator: Moho 13.0.3 build 635 -->
<!DOCTYPE svg PUBLIC "-//W3C//DTD SVG 1.1//EN" "http://www.w3.org/Graphics/SVG/1.1/DTD/svg11.dtd">
<svg version="1.1" id="Frame_0" xmlns="http://www.w3.org/2000/svg" xmlns:xlink="http://www.w3.org/1999/xlink" width="1280px" height="720px">
<g id="wingR">
<path fill="#ffffff" fill-rule="evenodd" stroke="#000000" stroke-width="4" stroke-linecap="round" stroke-linejoin="round" d="M 640.000 358.901 C 640.003 358.899 657.890 352.150 667.846 337.664 C 681.541 317.736 669.339 307.572 677.231 295.680 C 681.849 288.721 693.143 286.097 709.590 276.753 C 737.402 260.951 756.702 250.269 759.312 253.837 C 761.768 257.195 754.036 272.125 746.074 278.213 C 737.396 284.849 719.862 291.836 719.860 291.838 C 719.862 291.837 746.872 281.684 749.049 285.596 C 750.587 288.359 744.437 298.064 737.236 303.056 C 731.051 307.343 715.670 312.179 715.668 312.180 C 715.671 312.180 741.849 306.421 743.337 310.306 C 744.404 313.094 736.856 322.705 729.869 324.964 C 717.977 328.809 707.042 330.632 707.039 330.633 C 707.042 330.633 731.300 330.063 732.177 333.761 C 732.791 336.349 726.320 344.500 719.101 345.744 C 711.626 347.032 698.483 346.544 698.481 346.544 C 698.483 346.545 719.423 348.202 721.463 352.848 C 722.173 354.467 717.723 359.673 708.353 362.356 C 698.039 365.309 690.075 360.385 690.073 360.384 C 690.074 360.386 705.679 368.161 704.891 370.757 C 703.888 374.063 697.042 375.948 689.579 375.202 C 684.115 374.657 673.775 368.782 673.773 368.781 C 673.775 368.783 692.128 379.048 688.591 383.105 C 686.981 384.951 676.630 384.516 672.291 382.117 C 669.277 380.451 657.969 372.240 657.968 372.239 C 657.968 372.240 666.419 385.592 663.895 386.069 C 657.469 387.282 651.992 384.252 647.595 380.636 C 644.743 378.290 640.001 370.263 640.000 370.261 C 640.000 370.260 640.000 358.902 640.000 358.901 Z"/>
</g>
</svg>
