<?xml version="1.0" encoding="utf-8"?>
<!-- Generator: Moho 12.5 build 22414 -->
<!DOCTYPE svg PUBLIC "-//W3C//DTD SVG 1.1//EN" "http://www.w3.org/Graphics/SVG/1.1/DTD/svg11.dtd">
<svg version="1.1" id="Frame_0" xmlns="http://www.w3.org/2000/svg" xmlns:xlink="http://www.w3.org/1999/xlink" width="720px" height="720px">
<g id="wing_butterfly_2">
<g id="butterfly_wing">
<path fill="#ffffff" fill-rule="evenodd" stroke="none" d="M 495.357 647.130 C 495.023 637.478 502.540 629.422 512.193 629.088 C 521.846 628.754 529.902 636.271 530.236 645.924 C 530.570 655.576 523.052 663.632 513.400 663.966 C 503.747 664.300 495.691 656.783 495.357 647.130 M 434.810 655.896 C 434.428 644.849 443.031 635.629 454.078 635.247 C 465.125 634.865 474.345 643.468 474.728 654.515 C 475.110 665.562 466.506 674.782 455.459 675.165 C 444.412 675.547 435.192 666.943 434.810 655.896 M 528.706 611.694 C 528.393 602.645 535.439 595.092 544.488 594.779 C 553.537 594.466 561.090 601.513 561.403 610.562 C 561.716 619.612 554.669 627.164 545.620 627.477 C 536.571 627.790 529.019 620.743 528.706 611.694 M 597.895 151.246 C 597.654 144.265 603.090 138.439 610.071 138.198 C 617.051 137.956 622.878 143.393 623.119 150.373 C 623.361 157.354 617.924 163.180 610.943 163.422 C 603.963 163.663 598.137 158.227 597.895 151.246 M 609.077 109.471 C 608.769 100.551 615.715 93.107 624.635 92.798 C 633.554 92.490 640.999 99.436 641.307 108.355 C 641.616 117.275 634.670 124.720 625.750 125.028 C 616.830 125.337 609.386 118.390 609.077 109.471 M 604.311 52.814 C 603.882 40.404 613.546 30.047 625.956 29.617 C 638.366 29.188 648.724 38.853 649.153 51.263 C 649.583 63.673 639.918 74.030 627.508 74.460 C 615.098 74.889 604.740 65.224 604.311 52.814 M 561.562 127.957 C 511.109 154.275 462.323 181.803 462.313 181.809 C 462.313 181.805 465.942 154.657 460.747 143.384 C 457.396 136.112 443.144 125.907 443.142 125.905 C 443.147 125.902 479.340 94.928 492.106 86.742 C 510.080 75.216 559.641 39.151 571.273 47.678 C 581.926 55.488 607.634 103.924 561.562 127.957 M 543.155 526.574 C 567.922 528.286 559.086 548.517 557.925 561.448 C 556.774 574.271 542.426 573.572 534.569 573.361 C 511.787 572.748 473.928 527.516 473.922 527.511 C 473.923 527.510 479.299 515.022 479.300 515.020 C 479.306 515.022 501.789 523.715 543.155 526.574 M 475.426 495.831 C 477.575 496.854 536.872 508.850 541.429 499.988 C 548.174 486.869 531.842 472.379 527.407 469.163 C 518.768 462.899 461.484 467.126 461.477 467.126 C 461.479 467.128 473.861 484.723 475.426 495.831 M 510.787 448.350 C 472.615 446.028 450.318 445.239 450.312 445.239 C 450.310 445.236 426.759 419.932 426.757 419.929 C 426.764 419.930 474.249 418.525 497.449 423.832 C 514.815 427.805 523.206 449.106 510.787 448.350 M 454.490 536.720 C 452.213 537.827 412.451 531.387 412.447 531.387 C 412.449 531.391 430.290 558.043 438.743 575.342 C 444.947 588.039 444.596 600.995 452.512 610.326 C 461.962 621.464 479.052 618.799 488.828 613.594 C 495.388 610.101 503.767 598.169 501.644 592.747 C 494.810 575.294 453.352 537.846 454.490 536.720 M 307.657 542.647 C 278.691 476.057 285.548 454.496 289.218 452.071 C 293.370 449.328 354.632 503.422 371.094 517.154 C 383.388 527.408 423.356 582.810 414.623 622.246 C 407.398 654.872 374.190 622.575 360.176 608.905 C 350.337 599.308 318.529 567.640 307.657 542.647 M 354.000 469.425 C 276.363 417.181 286.315 415.332 289.499 408.096 C 292.899 400.370 366.762 408.351 383.990 418.307 C 402.349 428.916 450.741 492.064 443.232 500.458 C 431.196 513.913 398.258 499.207 354.000 469.425 M 405.391 370.700 C 369.917 370.151 343.326 368.945 343.320 368.944 C 343.327 368.940 392.887 343.819 412.425 319.325 C 427.512 300.413 481.616 307.440 530.630 287.102 C 563.385 273.510 546.000 329.439 526.568 345.708 C 500.532 367.505 469.083 371.686 405.391 370.700 M 533.332 258.739 C 481.496 278.970 435.735 280.079 435.725 280.082 C 435.727 280.078 446.982 256.801 451.993 241.660 C 455.805 230.144 459.629 210.860 459.629 210.857 C 459.640 210.851 553.064 155.018 567.027 156.708 C 586.314 159.044 587.764 237.496 533.332 258.739 M 395.829 300.529 C 367.077 343.590 288.876 378.144 282.667 372.790 C 276.634 367.588 321.076 272.894 333.715 252.734 C 399.158 148.348 424.603 146.490 435.830 165.083 C 445.324 180.806 429.238 250.493 395.829 300.529 Z"/>
<path fill="none" stroke="#ffffff" stroke-width="1" stroke-linecap="butt" stroke-linejoin="round" d="M 495.357 647.130 C 495.023 637.478 502.540 629.422 512.193 629.088 "/>
<path fill="none" stroke="#ffffff" stroke-width="1" stroke-linecap="butt" stroke-linejoin="round" d="M 512.193 629.088 C 521.846 628.754 529.902 636.271 530.236 645.924 "/>
<path fill="none" stroke="#ffffff" stroke-width="1" stroke-linecap="butt" stroke-linejoin="round" d="M 530.236 645.924 C 530.570 655.576 523.052 663.632 513.400 663.966 "/>
<path fill="none" stroke="#ffffff" stroke-width="1" stroke-linecap="butt" stroke-linejoin="round" d="M 513.400 663.966 C 503.747 664.300 495.691 656.783 495.357 647.130 "/>
<path fill="none" stroke="#ffffff" stroke-width="1" stroke-linecap="butt" stroke-linejoin="round" d="M 434.810 655.896 C 434.428 644.849 443.031 635.629 454.078 635.247 "/>
<path fill="none" stroke="#ffffff" stroke-width="1" stroke-linecap="butt" stroke-linejoin="round" d="M 454.078 635.247 C 465.125 634.865 474.345 643.468 474.728 654.515 "/>
<path fill="none" stroke="#ffffff" stroke-width="1" stroke-linecap="butt" stroke-linejoin="round" d="M 474.728 654.515 C 475.110 665.562 466.506 674.782 455.459 675.165 "/>
<path fill="none" stroke="#ffffff" stroke-width="1" stroke-linecap="butt" stroke-linejoin="round" d="M 455.459 675.165 C 444.412 675.547 435.192 666.943 434.810 655.896 "/>
<path fill="none" stroke="#ffffff" stroke-width="1" stroke-linecap="butt" stroke-linejoin="round" d="M 528.706 611.694 C 528.393 602.645 535.439 595.092 544.488 594.779 "/>
<path fill="none" stroke="#ffffff" stroke-width="1" stroke-linecap="butt" stroke-linejoin="round" d="M 544.488 594.779 C 553.537 594.466 561.090 601.513 561.403 610.562 "/>
<path fill="none" stroke="#ffffff" stroke-width="1" stroke-linecap="butt" stroke-linejoin="round" d="M 561.403 610.562 C 561.716 619.612 554.669 627.164 545.620 627.477 "/>
<path fill="none" stroke="#ffffff" stroke-width="1" stroke-linecap="butt" stroke-linejoin="round" d="M 545.620 627.477 C 536.571 627.790 529.019 620.743 528.706 611.694 "/>
<path fill="none" stroke="#ffffff" stroke-width="1" stroke-linecap="butt" stroke-linejoin="round" d="M 597.895 151.246 C 597.654 144.265 603.090 138.439 610.071 138.198 "/>
<path fill="none" stroke="#ffffff" stroke-width="1" stroke-linecap="butt" stroke-linejoin="round" d="M 610.071 138.198 C 617.051 137.956 622.878 143.393 623.119 150.373 "/>
<path fill="none" stroke="#ffffff" stroke-width="1" stroke-linecap="butt" stroke-linejoin="round" d="M 623.119 150.373 C 623.361 157.354 617.924 163.180 610.943 163.422 "/>
<path fill="none" stroke="#ffffff" stroke-width="1" stroke-linecap="butt" stroke-linejoin="round" d="M 610.943 163.422 C 603.963 163.663 598.137 158.227 597.895 151.246 "/>
<path fill="none" stroke="#ffffff" stroke-width="1" stroke-linecap="butt" stroke-linejoin="round" d="M 609.077 109.471 C 608.769 100.551 615.715 93.107 624.635 92.798 "/>
<path fill="none" stroke="#ffffff" stroke-width="1" stroke-linecap="butt" stroke-linejoin="round" d="M 624.635 92.798 C 633.554 92.490 640.999 99.436 641.307 108.355 "/>
<path fill="none" stroke="#ffffff" stroke-width="1" stroke-linecap="butt" stroke-linejoin="round" d="M 641.307 108.355 C 641.616 117.275 634.670 124.720 625.750 125.028 "/>
<path fill="none" stroke="#ffffff" stroke-width="1" stroke-linecap="butt" stroke-linejoin="round" d="M 625.750 125.028 C 616.830 125.337 609.386 118.390 609.077 109.471 "/>
<path fill="none" stroke="#ffffff" stroke-width="1" stroke-linecap="butt" stroke-linejoin="round" d="M 604.311 52.814 C 603.882 40.404 613.546 30.047 625.956 29.617 "/>
<path fill="none" stroke="#ffffff" stroke-width="1" stroke-linecap="butt" stroke-linejoin="round" d="M 625.956 29.617 C 638.366 29.188 648.724 38.853 649.153 51.263 "/>
<path fill="none" stroke="#ffffff" stroke-width="1" stroke-linecap="butt" stroke-linejoin="round" d="M 649.153 51.263 C 649.583 63.673 639.918 74.030 627.508 74.460 "/>
<path fill="none" stroke="#ffffff" stroke-width="1" stroke-linecap="butt" stroke-linejoin="round" d="M 627.508 74.460 C 615.098 74.889 604.740 65.224 604.311 52.814 "/>
<path fill="none" stroke="#ffffff" stroke-width="1" stroke-linecap="butt" stroke-linejoin="round" d="M 561.562 127.957 C 511.109 154.275 462.323 181.803 462.313 181.809 "/>
<path fill="none" stroke="#ffffff" stroke-width="1" stroke-linecap="butt" stroke-linejoin="round" d="M 462.313 181.809 C 462.313 181.805 465.942 154.657 460.747 143.384 "/>
<path fill="none" stroke="#ffffff" stroke-width="1" stroke-linecap="butt" stroke-linejoin="round" d="M 460.747 143.384 C 457.396 136.112 443.144 125.907 443.142 125.905 "/>
<path fill="none" stroke="#ffffff" stroke-width="1" stroke-linecap="butt" stroke-linejoin="round" d="M 443.142 125.905 C 443.147 125.902 479.340 94.928 492.106 86.742 "/>
<path fill="none" stroke="#ffffff" stroke-width="1" stroke-linecap="butt" stroke-linejoin="round" d="M 492.106 86.742 C 510.080 75.216 559.641 39.151 571.273 47.678 "/>
<path fill="none" stroke="#ffffff" stroke-width="1" stroke-linecap="butt" stroke-linejoin="round" d="M 571.273 47.678 C 581.926 55.488 607.634 103.924 561.562 127.957 "/>
<path fill="none" stroke="#ffffff" stroke-width="1" stroke-linecap="butt" stroke-linejoin="round" d="M 543.155 526.574 C 567.922 528.286 559.086 548.517 557.925 561.448 "/>
<path fill="none" stroke="#ffffff" stroke-width="1" stroke-linecap="butt" stroke-linejoin="round" d="M 557.925 561.448 C 556.774 574.271 542.426 573.572 534.569 573.361 "/>
<path fill="none" stroke="#ffffff" stroke-width="1" stroke-linecap="butt" stroke-linejoin="round" d="M 534.569 573.361 C 511.787 572.748 473.928 527.516 473.922 527.511 "/>
<path fill="none" stroke="#ffffff" stroke-width="1" stroke-linecap="butt" stroke-linejoin="round" d="M 473.922 527.511 C 473.923 527.510 479.299 515.022 479.300 515.020 "/>
<path fill="none" stroke="#ffffff" stroke-width="1" stroke-linecap="butt" stroke-linejoin="round" d="M 479.300 515.020 C 479.306 515.022 501.789 523.715 543.155 526.574 "/>
<path fill="none" stroke="#ffffff" stroke-width="1" stroke-linecap="butt" stroke-linejoin="round" d="M 475.426 495.831 C 477.575 496.854 536.872 508.850 541.429 499.988 "/>
<path fill="none" stroke="#ffffff" stroke-width="1" stroke-linecap="butt" stroke-linejoin="round" d="M 541.429 499.988 C 548.174 486.869 531.842 472.379 527.407 469.163 "/>
<path fill="none" stroke="#ffffff" stroke-width="1" stroke-linecap="butt" stroke-linejoin="round" d="M 527.407 469.163 C 518.768 462.899 461.484 467.126 461.477 467.126 "/>
<path fill="none" stroke="#ffffff" stroke-width="1" stroke-linecap="butt" stroke-linejoin="round" d="M 461.477 467.126 C 461.479 467.128 473.861 484.723 475.426 495.831 "/>
<path fill="none" stroke="#ffffff" stroke-width="1" stroke-linecap="butt" stroke-linejoin="round" d="M 510.787 448.350 C 472.615 446.028 450.318 445.239 450.312 445.239 "/>
<path fill="none" stroke="#ffffff" stroke-width="1" stroke-linecap="butt" stroke-linejoin="round" d="M 450.312 445.239 C 450.310 445.236 426.759 419.932 426.757 419.929 "/>
<path fill="none" stroke="#ffffff" stroke-width="1" stroke-linecap="butt" stroke-linejoin="round" d="M 426.757 419.929 C 426.764 419.930 474.249 418.525 497.449 423.832 "/>
<path fill="none" stroke="#ffffff" stroke-width="1" stroke-linecap="butt" stroke-linejoin="round" d="M 497.449 423.832 C 514.815 427.805 523.206 449.106 510.787 448.350 "/>
<path fill="none" stroke="#ffffff" stroke-width="1" stroke-linecap="butt" stroke-linejoin="round" d="M 454.490 536.720 C 452.213 537.827 412.451 531.387 412.447 531.387 "/>
<path fill="none" stroke="#ffffff" stroke-width="1" stroke-linecap="butt" stroke-linejoin="round" d="M 412.447 531.387 C 412.449 531.391 430.290 558.043 438.743 575.342 "/>
<path fill="none" stroke="#ffffff" stroke-width="1" stroke-linecap="butt" stroke-linejoin="round" d="M 438.743 575.342 C 444.947 588.039 444.596 600.995 452.512 610.326 "/>
<path fill="none" stroke="#ffffff" stroke-width="1" stroke-linecap="butt" stroke-linejoin="round" d="M 452.512 610.326 C 461.962 621.464 479.052 618.799 488.828 613.594 "/>
<path fill="none" stroke="#ffffff" stroke-width="1" stroke-linecap="butt" stroke-linejoin="round" d="M 488.828 613.594 C 495.388 610.101 503.767 598.169 501.644 592.747 "/>
<path fill="none" stroke="#ffffff" stroke-width="1" stroke-linecap="butt" stroke-linejoin="round" d="M 501.644 592.747 C 494.810 575.294 453.352 537.846 454.490 536.720 "/>
<path fill="none" stroke="#ffffff" stroke-width="1" stroke-linecap="butt" stroke-linejoin="round" d="M 307.657 542.647 C 278.691 476.057 285.548 454.496 289.218 452.071 "/>
<path fill="none" stroke="#ffffff" stroke-width="1" stroke-linecap="butt" stroke-linejoin="round" d="M 289.218 452.071 C 293.370 449.328 354.632 503.422 371.094 517.154 "/>
<path fill="none" stroke="#ffffff" stroke-width="1" stroke-linecap="butt" stroke-linejoin="round" d="M 371.094 517.154 C 383.388 527.408 423.356 582.810 414.623 622.246 "/>
<path fill="none" stroke="#ffffff" stroke-width="1" stroke-linecap="butt" stroke-linejoin="round" d="M 414.623 622.246 C 407.398 654.872 374.190 622.575 360.176 608.905 "/>
<path fill="none" stroke="#ffffff" stroke-width="1" stroke-linecap="butt" stroke-linejoin="round" d="M 360.176 608.905 C 350.337 599.308 318.529 567.640 307.657 542.647 "/>
<path fill="none" stroke="#ffffff" stroke-width="1" stroke-linecap="butt" stroke-linejoin="round" d="M 354.000 469.425 C 276.363 417.181 286.315 415.332 289.499 408.096 "/>
<path fill="none" stroke="#ffffff" stroke-width="1" stroke-linecap="butt" stroke-linejoin="round" d="M 289.499 408.096 C 292.899 400.370 366.762 408.351 383.990 418.307 "/>
<path fill="none" stroke="#ffffff" stroke-width="1" stroke-linecap="butt" stroke-linejoin="round" d="M 383.990 418.307 C 402.349 428.916 450.741 492.064 443.232 500.458 "/>
<path fill="none" stroke="#ffffff" stroke-width="1" stroke-linecap="butt" stroke-linejoin="round" d="M 443.232 500.458 C 431.196 513.913 398.258 499.207 354.000 469.425 "/>
<path fill="none" stroke="#ffffff" stroke-width="1" stroke-linecap="butt" stroke-linejoin="round" d="M 405.391 370.700 C 369.917 370.151 343.326 368.945 343.320 368.944 "/>
<path fill="none" stroke="#ffffff" stroke-width="1" stroke-linecap="butt" stroke-linejoin="round" d="M 343.320 368.944 C 343.327 368.940 392.887 343.819 412.425 319.325 "/>
<path fill="none" stroke="#ffffff" stroke-width="1" stroke-linecap="butt" stroke-linejoin="round" d="M 412.425 319.325 C 427.512 300.413 481.616 307.440 530.630 287.102 "/>
<path fill="none" stroke="#ffffff" stroke-width="1" stroke-linecap="butt" stroke-linejoin="round" d="M 530.630 287.102 C 563.385 273.510 546.000 329.439 526.568 345.708 "/>
<path fill="none" stroke="#ffffff" stroke-width="1" stroke-linecap="butt" stroke-linejoin="round" d="M 526.568 345.708 C 500.532 367.505 469.083 371.686 405.391 370.700 "/>
<path fill="none" stroke="#ffffff" stroke-width="1" stroke-linecap="butt" stroke-linejoin="round" d="M 533.332 258.739 C 481.496 278.970 435.735 280.079 435.725 280.082 "/>
<path fill="none" stroke="#ffffff" stroke-width="1" stroke-linecap="butt" stroke-linejoin="round" d="M 435.725 280.082 C 435.727 280.078 446.982 256.801 451.993 241.660 "/>
<path fill="none" stroke="#ffffff" stroke-width="1" stroke-linecap="butt" stroke-linejoin="round" d="M 451.993 241.660 C 455.805 230.144 459.629 210.860 459.629 210.857 "/>
<path fill="none" stroke="#ffffff" stroke-width="1" stroke-linecap="butt" stroke-linejoin="round" d="M 459.629 210.857 C 459.640 210.851 553.064 155.018 567.027 156.708 "/>
<path fill="none" stroke="#ffffff" stroke-width="1" stroke-linecap="butt" stroke-linejoin="round" d="M 567.027 156.708 C 586.314 159.044 587.764 237.496 533.332 258.739 "/>
<path fill="none" stroke="#ffffff" stroke-width="1" stroke-linecap="butt" stroke-linejoin="round" d="M 395.829 300.529 C 367.077 343.590 288.876 378.144 282.667 372.790 "/>
<path fill="none" stroke="#ffffff" stroke-width="1" stroke-linecap="butt" stroke-linejoin="round" d="M 282.667 372.790 C 276.634 367.588 321.076 272.894 333.715 252.734 "/>
<path fill="none" stroke="#ffffff" stroke-width="1" stroke-linecap="butt" stroke-linejoin="round" d="M 333.715 252.734 C 399.158 148.348 424.603 146.490 435.830 165.083 "/>
<path fill="none" stroke="#ffffff" stroke-width="1" stroke-linecap="butt" stroke-linejoin="round" d="M 435.830 165.083 C 445.324 180.806 429.238 250.493 395.829 300.529 "/>
<path fill="#ffffff" fill-rule="evenodd" stroke="#000000" stroke-width="4" stroke-linecap="round" stroke-linejoin="round" d="M 277.963 516.914 C 255.422 450.232 265.817 360.450 281.994 320.571 C 308.658 254.839 351.163 171.055 401.948 124.353 C 458.349 72.487 554.541 5.232 630.931 11.206 C 643.884 12.219 663.349 19.470 669.494 30.917 C 700.824 89.279 613.795 175.191 593.894 238.371 C 582.782 273.650 583.344 327.469 561.533 357.342 C 553.689 368.085 539.306 379.647 525.971 383.826 C 474.461 399.968 346.082 386.962 346.064 386.962 C 346.079 386.964 414.790 396.649 496.538 401.440 C 524.382 403.072 548.497 443.465 561.086 468.355 C 579.738 505.232 589.709 564.309 580.871 604.678 C 566.994 668.058 532.136 696.407 468.988 689.808 C 422.873 684.989 392.961 668.372 370.782 650.229 C 333.237 619.518 298.897 578.844 277.963 516.914 M 495.357 647.130 C 495.023 637.478 502.540 629.422 512.193 629.088 C 521.846 628.754 529.902 636.271 530.236 645.924 C 530.570 655.576 523.052 663.632 513.400 663.966 C 503.747 664.300 495.691 656.783 495.357 647.130 M 434.810 655.896 C 434.428 644.849 443.031 635.629 454.078 635.247 C 465.125 634.865 474.345 643.468 474.728 654.515 C 475.110 665.562 466.506 674.782 455.459 675.165 C 444.412 675.547 435.192 666.943 434.810 655.896 M 528.706 611.694 C 528.393 602.645 535.439 595.092 544.488 594.779 C 553.537 594.466 561.090 601.513 561.403 610.562 C 561.716 619.612 554.669 627.164 545.620 627.477 C 536.571 627.790 529.019 620.743 528.706 611.694 M 597.895 151.246 C 597.654 144.265 603.090 138.439 610.071 138.198 C 617.051 137.956 622.878 143.393 623.119 150.373 C 623.361 157.354 617.924 163.180 610.943 163.422 C 603.963 163.663 598.137 158.227 597.895 151.246 M 609.077 109.471 C 608.769 100.551 615.715 93.107 624.635 92.798 C 633.554 92.490 640.999 99.436 641.307 108.355 C 641.616 117.275 634.670 124.720 625.750 125.028 C 616.830 125.337 609.386 118.390 609.077 109.471 M 604.311 52.814 C 603.882 40.404 613.546 30.047 625.956 29.617 C 638.366 29.188 648.724 38.853 649.153 51.263 C 649.583 63.673 639.918 74.030 627.508 74.460 C 615.098 74.889 604.740 65.224 604.311 52.814 M 561.562 127.957 C 511.109 154.275 462.323 181.803 462.313 181.809 C 462.313 181.805 465.942 154.657 460.747 143.384 C 457.396 136.112 443.144 125.907 443.142 125.905 C 443.147 125.902 479.340 94.928 492.106 86.742 C 510.080 75.216 559.641 39.151 571.273 47.678 C 581.926 55.488 607.634 103.924 561.562 127.957 M 543.155 526.574 C 567.922 528.286 559.086 548.517 557.925 561.448 C 556.774 574.271 542.426 573.572 534.569 573.361 C 511.787 572.748 473.928 527.516 473.922 527.511 C 473.923 527.510 479.299 515.022 479.300 515.020 C 479.306 515.022 501.789 523.715 543.155 526.574 M 475.426 495.831 C 477.575 496.854 536.872 508.850 541.429 499.988 C 548.174 486.869 531.842 472.379 527.407 469.163 C 518.768 462.899 461.484 467.126 461.477 467.126 C 461.479 467.128 473.861 484.723 475.426 495.831 M 510.787 448.350 C 472.615 446.028 450.318 445.239 450.312 445.239 C 450.310 445.236 426.759 419.932 426.757 419.929 C 426.764 419.930 474.249 418.525 497.449 423.832 C 514.815 427.805 523.206 449.106 510.787 448.350 M 454.490 536.720 C 452.213 537.827 412.451 531.387 412.447 531.387 C 412.449 531.391 430.290 558.043 438.743 575.342 C 444.947 588.039 444.596 600.995 452.512 610.326 C 461.962 621.464 479.052 618.799 488.828 613.594 C 495.388 610.101 503.767 598.169 501.644 592.747 C 494.810 575.294 453.352 537.846 454.490 536.720 M 307.657 542.647 C 278.691 476.057 285.548 454.496 289.218 452.071 C 293.370 449.328 354.632 503.422 371.094 517.154 C 383.388 527.408 423.356 582.810 414.623 622.246 C 407.398 654.872 374.190 622.575 360.176 608.905 C 350.337 599.308 318.529 567.640 307.657 542.647 M 354.000 469.425 C 276.363 417.181 286.315 415.332 289.499 408.096 C 292.899 400.370 366.762 408.351 383.990 418.307 C 402.349 428.916 450.741 492.064 443.232 500.458 C 431.196 513.913 398.258 499.207 354.000 469.425 M 405.391 370.700 C 369.917 370.151 343.326 368.945 343.320 368.944 C 343.327 368.940 392.887 343.819 412.425 319.325 C 427.512 300.413 481.616 307.440 530.630 287.102 C 563.385 273.510 546.000 329.439 526.568 345.708 C 500.532 367.505 469.083 371.686 405.391 370.700 M 533.332 258.739 C 481.496 278.970 435.735 280.079 435.725 280.082 C 435.727 280.078 446.982 256.801 451.993 241.660 C 455.805 230.144 459.629 210.860 459.629 210.857 C 459.640 210.851 553.064 155.018 567.027 156.708 C 586.314 159.044 587.764 237.496 533.332 258.739 M 395.829 300.529 C 367.077 343.590 288.876 378.144 282.667 372.790 C 276.634 367.588 321.076 272.894 333.715 252.734 C 399.158 148.348 424.603 146.490 435.830 165.083 C 445.324 180.806 429.238 250.493 395.829 300.529 Z"/>
</g>
<g id="specs">
<path fill="#ff0000" fill-rule="evenodd" stroke="none" d="M 286.185 395.394 C 286.182 395.395 251.376 407.826 251.372 407.827 C 251.374 407.826 262.940 395.395 262.941 395.394 C 262.940 395.393 251.374 382.962 251.372 382.961 C 251.376 382.962 286.182 395.393 286.185 395.394 Z"/>
<path fill="#0000ff" fill-rule="evenodd" stroke="none" d="M 666.483 9.131 C 666.483 9.133 658.861 29.203 658.861 29.205 C 658.861 29.204 657.724 19.408 657.724 19.407 C 657.723 19.407 647.870 19.835 647.868 19.835 C 647.870 19.834 666.481 9.132 666.483 9.131 Z"/>
<path fill="#00ff00" fill-rule="evenodd" stroke="none" d="M 445.527 392.794 C 445.525 392.793 425.344 385.470 425.342 385.469 C 425.342 385.470 432.024 392.725 432.025 392.726 C 432.024 392.726 425.270 399.913 425.269 399.914 C 425.271 399.913 445.525 392.794 445.527 392.794 Z"/>
<path fill="#ffff00" fill-rule="evenodd" stroke="none" d="M 546.293 680.662 C 546.292 680.660 536.942 661.334 536.941 661.332 C 536.941 661.333 536.667 671.192 536.667 671.193 C 536.666 671.193 526.813 671.630 526.812 671.630 C 526.814 671.631 546.291 680.661 546.293 680.662 Z"/>
<path fill="#00ffff" fill-rule="evenodd" stroke="none" d="M 659.213 145.288 C 659.211 145.288 637.763 146.248 637.761 146.248 C 637.762 146.247 646.306 141.320 646.306 141.319 C 646.306 141.319 642.007 132.442 642.007 132.441 C 642.008 132.443 659.211 145.287 659.213 145.288 Z"/>
<path fill="#00ffff" fill-rule="evenodd" stroke="none" d="M 523.109 23.086 C 523.109 23.088 523.941 44.541 523.941 44.543 C 523.941 44.542 528.139 35.617 528.140 35.616 C 528.141 35.617 537.344 39.161 537.345 39.161 C 537.344 39.160 523.111 23.088 523.109 23.086 Z"/>
</g>
</g>
</svg>
