<?xml version="1.0" encoding="utf-8"?>
<!-- Generator: Moho 12.5 build 22414 -->
<!DOCTYPE svg PUBLIC "-//W3C//DTD SVG 1.1//EN" "http://www.w3.org/Graphics/SVG/1.1/DTD/svg11.dtd">
<svg version="1.1" id="Frame_0" xmlns="http://www.w3.org/2000/svg" xmlns:xlink="http://www.w3.org/1999/xlink" width="720px" height="720px">
<g id="wing">
<g id="wingR">
<path fill="#ffffff" fill-rule="evenodd" stroke="#000000" stroke-width="4" stroke-linecap="round" stroke-linejoin="round" d="M 59.515 530.167 C 96.684 506.498 142.867 501.596 189.529 435.852 C 258.847 338.186 196.921 286.805 236.012 227.904 C 258.887 193.438 314.823 180.442 396.288 134.157 C 534.042 55.892 629.635 2.982 642.560 20.654 C 654.725 37.289 616.431 111.238 576.995 141.393 C 534.013 174.259 447.165 208.866 447.152 208.873 C 447.167 208.870 580.944 158.583 591.730 177.960 C 599.348 191.644 568.887 239.711 533.218 264.436 C 502.582 285.672 426.403 309.624 426.392 309.629 C 426.406 309.628 556.068 281.104 563.434 300.346 C 568.721 314.157 531.334 361.760 496.731 372.947 C 437.826 391.991 383.664 401.023 383.653 401.026 C 383.665 401.027 503.818 398.206 508.161 416.519 C 511.201 429.340 479.149 469.712 443.397 475.873 C 406.371 482.253 341.272 479.834 341.262 479.834 C 341.273 479.837 444.989 488.047 455.093 511.059 C 458.614 519.076 436.569 544.861 390.158 558.151 C 339.074 572.778 299.627 548.388 299.618 548.387 C 299.626 548.392 376.914 586.902 373.012 599.761 C 368.043 616.135 334.138 625.473 297.171 621.780 C 270.110 619.077 218.894 589.981 218.886 589.978 C 218.893 589.985 309.797 640.830 292.279 660.923 C 284.306 670.068 233.034 667.909 211.547 656.031 C 196.617 647.778 140.608 607.107 140.601 607.102 C 140.604 607.109 191.356 670.275 169.958 675.601 C 138.526 683.426 110.996 666.614 89.225 648.691 C 75.896 637.718 43.661 603.727 40.635 567.258 C 38.977 547.266 48.983 536.874 59.515 530.167 Z"/>
</g>
<g id="specs_2">
<path fill="#ff0000" fill-rule="evenodd" stroke="none" d="M 117.629 553.877 C 117.624 553.880 73.030 584.577 73.026 584.580 C 73.027 584.578 84.722 562.628 84.723 562.626 C 84.721 562.624 63.669 549.380 63.667 549.379 C 63.672 549.379 117.623 553.877 117.629 553.877 Z"/>
<path fill="#0000ff" fill-rule="evenodd" stroke="none" d="M 648.535 13.161 C 648.533 13.164 635.084 41.591 635.083 41.594 C 635.083 41.592 634.556 27.154 634.556 27.153 C 634.554 27.153 620.116 26.639 620.115 26.639 C 620.118 26.638 648.532 13.162 648.535 13.161 Z"/>
<path fill="#00ff00" fill-rule="evenodd" stroke="none" d="M 217.724 224.416 C 217.727 224.416 248.198 232.192 248.201 232.193 C 248.200 232.193 234.128 235.466 234.127 235.467 C 234.127 235.468 236.378 249.738 236.379 249.740 C 236.377 249.737 217.726 224.418 217.724 224.416 Z"/>
</g>
</g>
</svg>
