<?xml version="1.0" encoding="utf-8"?>
<!-- Generator: Moho 12.5 build 22414 -->
<!DOCTYPE svg PUBLIC "-//W3C//DTD SVG 1.1//EN" "http://www.w3.org/Graphics/SVG/1.1/DTD/svg11.dtd">
<svg version="1.1" id="Frame_0" xmlns="http://www.w3.org/2000/svg" xmlns:xlink="http://www.w3.org/1999/xlink" width="720px" height="720px">
<g id="wing">
<g id="wingR_2">
<path fill="#ffffff" fill-rule="evenodd" stroke="#000000" stroke-width="4" stroke-linecap="round" stroke-linejoin="round" d="M 59.515 530.167 C 96.684 506.498 142.867 501.596 189.529 435.852 C 258.847 338.186 196.921 286.805 236.012 227.904 C 258.887 193.438 314.823 180.442 396.288 134.157 C 534.042 55.892 629.359 3.187 642.560 20.654 C 653.983 35.769 622.915 105.688 587.307 134.236 C 520.240 188.006 377.279 233.842 377.258 233.852 C 377.282 233.848 634.428 138.366 616.350 190.923 C 595.966 250.182 546.354 265.289 526.113 273.135 C 502.851 282.151 364.990 303.755 364.974 303.758 C 364.997 303.758 594.227 263.872 589.188 298.262 C 586.682 315.363 539.115 349.801 492.553 361.016 C 448.254 371.685 351.006 368.932 350.991 368.933 C 351.012 368.936 561.931 365.344 560.045 396.926 C 559.004 414.371 496.369 447.439 453.525 444.112 C 386.856 438.935 328.598 428.984 328.585 428.983 C 328.603 428.988 511.965 455.809 507.314 483.447 C 504.353 501.045 440.347 526.276 392.566 514.844 C 354.893 505.831 291.288 485.767 291.278 485.764 C 291.291 485.771 424.162 522.866 426.290 555.113 C 426.812 563.037 400.890 578.549 357.116 577.636 C 309.480 576.642 242.868 538.224 242.856 538.220 C 242.868 538.228 363.380 599.870 354.373 618.400 C 348.300 630.895 321.883 638.350 292.088 633.641 C 257.100 628.111 195.174 581.511 195.164 581.506 C 195.172 581.514 294.257 647.428 271.946 667.701 C 263.778 675.123 217.334 671.938 198.838 659.419 C 186.005 650.734 140.607 607.107 140.601 607.102 C 140.604 607.109 191.356 670.275 169.958 675.601 C 138.526 683.426 110.996 666.614 89.225 648.691 C 75.896 637.718 43.661 603.727 40.635 567.258 C 38.977 547.266 48.983 536.874 59.515 530.167 Z"/>
</g>
<g id="specs_2">
<path fill="#ff0000" fill-rule="evenodd" stroke="none" d="M 117.629 553.877 C 117.624 553.880 73.030 584.577 73.026 584.580 C 73.027 584.578 84.722 562.628 84.723 562.626 C 84.721 562.624 63.669 549.380 63.667 549.379 C 63.672 549.379 117.623 553.877 117.629 553.877 Z"/>
<path fill="#0000ff" fill-rule="evenodd" stroke="none" d="M 648.535 13.161 C 648.533 13.164 635.084 41.591 635.083 41.594 C 635.083 41.592 634.556 27.154 634.556 27.153 C 634.554 27.153 620.116 26.639 620.115 26.639 C 620.118 26.638 648.532 13.162 648.535 13.161 Z"/>
<path fill="#00ff00" fill-rule="evenodd" stroke="none" d="M 217.724 224.416 C 217.727 224.416 248.198 232.192 248.201 232.193 C 248.200 232.193 234.128 235.466 234.127 235.467 C 234.127 235.468 236.379 249.738 236.379 249.740 C 236.377 249.737 217.726 224.418 217.724 224.416 Z"/>
</g>
</g>
</svg>
