<?xml version="1.0" encoding="utf-8"?>
<!-- Generator: Moho 12.5 build 22414 -->
<!DOCTYPE svg PUBLIC "-//W3C//DTD SVG 1.1//EN" "http://www.w3.org/Graphics/SVG/1.1/DTD/svg11.dtd">
<svg version="1.1" id="Frame_0" xmlns="http://www.w3.org/2000/svg" xmlns:xlink="http://www.w3.org/1999/xlink" width="720px" height="720px">
<g id="wing_angel">
<g id="wing_angel">
<path fill="#ffffff" fill-rule="evenodd" stroke="#000000" stroke-width="4" stroke-linecap="round" stroke-linejoin="round" d="M 473.928 683.593 C 429.478 672.595 442.783 276.666 442.789 276.628 C 442.782 276.663 446.874 644.598 428.100 637.391 C 383.635 620.322 404.777 259.716 404.783 259.680 C 404.777 259.713 401.885 595.325 385.189 587.439 C 343.990 567.979 366.350 230.949 366.351 230.919 C 366.350 230.947 359.651 517.051 345.635 508.569 C 305.355 484.191 334.844 215.119 334.844 215.095 C 334.843 215.117 316.221 437.016 311.264 432.164 C 267.146 388.975 299.300 195.232 299.300 195.214 C 299.299 195.229 282.986 351.332 279.553 347.849 C 237.141 304.826 270.604 173.934 270.606 173.922 C 270.603 173.932 250.840 273.438 246.197 270.786 C 225.079 258.728 216.400 185.994 232.819 126.625 C 242.708 90.868 286.149 49.794 333.196 40.183 C 376.527 31.332 421.845 43.901 459.153 79.832 C 496.465 115.768 472.911 180.144 475.741 273.874 C 487.148 651.576 493.320 688.390 473.928 683.593 Z"/>
<path fill="none" stroke="#000000" stroke-width="4" stroke-linecap="round" stroke-linejoin="round" d="M 269.405 96.562 C 269.405 96.569 239.556 149.270 272.980 175.272 C 286.135 185.505 296.717 106.693 296.720 106.686 C 296.721 106.695 278.290 182.257 305.434 199.545 C 317.809 207.427 323.188 122.627 323.190 122.619 C 323.191 122.629 311.920 205.866 340.541 217.828 C 358.944 225.520 357.187 131.990 357.189 131.982 C 357.191 131.993 347.530 235.694 378.848 243.640 C 394.001 247.484 389.499 141.251 389.501 141.241 C 389.503 141.253 386.266 257.861 410.749 263.454 C 439.820 270.094 423.890 156.000 423.891 155.989 C 423.895 156.002 423.077 287.519 457.421 283.697 C 468.306 282.485 460.569 171.233 460.569 171.221 "/>
<path fill="none" stroke="#000000" stroke-width="4" stroke-linecap="round" stroke-linejoin="round" d="M 302.453 68.696 C 302.455 68.701 285.290 112.209 318.591 122.058 C 327.876 124.804 332.835 67.190 332.837 67.185 C 332.839 67.191 321.253 118.642 352.590 131.421 C 371.910 139.300 365.725 67.634 365.727 67.627 C 365.729 67.635 358.340 132.761 388.126 141.674 C 402.604 146.005 400.406 75.483 400.408 75.477 C 400.410 75.485 393.683 147.209 428.247 157.121 C 438.234 159.985 432.755 91.123 432.756 91.116 C 432.759 91.124 433.858 175.070 462.939 172.059 C 471.155 171.209 463.330 111.047 463.330 111.040 "/>
</g>
<g id="specs_2">
<path fill="#ff00ff" fill-rule="evenodd" stroke="none" d="M 277.280 244.964 C 277.297 244.964 442.703 244.964 442.720 244.964 C 442.720 244.947 442.720 79.541 442.720 79.524 C 442.703 79.524 277.297 79.524 277.280 79.524 C 277.280 79.541 277.280 244.947 277.280 244.964 Z"/>
<path fill="#ff0000" fill-rule="evenodd" stroke="none" d="M 260.551 168.870 C 260.547 168.872 225.741 181.302 225.738 181.303 C 225.739 181.302 237.305 168.872 237.306 168.870 C 237.305 168.869 225.739 156.439 225.738 156.437 C 225.741 156.439 260.547 168.869 260.551 168.870 Z"/>
<path fill="#0000ff" fill-rule="evenodd" stroke="none" d="M 360.000 23.390 C 360.001 23.392 367.221 43.610 367.222 43.612 C 367.221 43.611 360.001 36.893 360.000 36.892 C 359.999 36.893 352.779 43.611 352.778 43.612 C 352.779 43.610 359.999 23.392 360.000 23.390 Z"/>
<path fill="#00ff00" fill-rule="evenodd" stroke="none" d="M 204.316 164.372 C 204.318 164.372 224.500 157.049 224.502 157.048 C 224.501 157.049 217.819 164.303 217.819 164.304 C 217.819 164.305 224.574 171.492 224.575 171.492 C 224.573 171.492 204.318 164.373 204.316 164.372 Z"/>
<path fill="#ffff00" fill-rule="evenodd" stroke="none" d="M 361.065 568.669 C 361.066 568.667 370.027 549.158 370.028 549.156 C 370.028 549.157 370.499 559.009 370.499 559.010 C 370.500 559.010 380.360 559.249 380.361 559.249 C 380.359 559.250 361.067 568.668 361.065 568.669 Z"/>
<path fill="#ffff00" fill-rule="evenodd" stroke="none" d="M 493.970 568.430 C 493.969 568.428 484.619 549.102 484.618 549.101 C 484.618 549.102 484.344 558.961 484.344 558.962 C 484.343 558.962 474.490 559.398 474.489 559.399 C 474.491 559.399 493.968 568.429 493.970 568.430 Z"/>
<path fill="#00ff00" fill-rule="evenodd" stroke="none" d="M 495.381 164.372 C 495.379 164.372 475.197 157.049 475.195 157.048 C 475.196 157.049 481.878 164.303 481.879 164.304 C 481.878 164.305 475.123 171.492 475.123 171.492 C 475.125 171.492 495.379 164.373 495.381 164.372 Z"/>
<path fill="#00ffff" fill-rule="evenodd" stroke="none" d="M 459.786 62.659 C 459.785 62.661 452.618 82.898 452.618 82.900 C 452.617 82.899 451.260 73.130 451.260 73.129 C 451.259 73.129 441.418 73.779 441.417 73.779 C 441.419 73.778 459.784 62.660 459.786 62.659 Z"/>
<path fill="#00ffff" fill-rule="evenodd" stroke="none" d="M 258.078 63.329 C 258.079 63.331 266.580 83.046 266.581 83.048 C 266.581 83.047 267.284 73.209 267.284 73.208 C 267.285 73.208 277.147 73.200 277.148 73.200 C 277.146 73.199 258.080 63.330 258.078 63.329 Z"/>
<path fill="#be0027" fill-rule="evenodd" stroke="none" d="M 476.245 697.383 C 476.246 697.380 485.349 661.559 485.350 661.556 C 485.348 661.557 474.061 674.240 474.060 674.242 C 474.058 674.241 460.595 663.895 460.594 663.894 C 460.595 663.897 476.244 697.380 476.245 697.383 Z"/>
</g>
</g>
</svg>
