<?xml version="1.0" encoding="utf-8"?>
<!-- Generator: Moho 12.5 build 22414 -->
<!DOCTYPE svg PUBLIC "-//W3C//DTD SVG 1.1//EN" "http://www.w3.org/Graphics/SVG/1.1/DTD/svg11.dtd">
<svg version="1.1" id="Frame_0" xmlns="http://www.w3.org/2000/svg" xmlns:xlink="http://www.w3.org/1999/xlink" width="720px" height="720px">
<g id="wing_eagle">
<g id="wing_eagle_2">
<path fill="#ffffff" fill-rule="evenodd" stroke="#000000" stroke-width="3" stroke-linejoin="round" d="M 569.123 304.166 C 549.010 287.148 455.946 272.855 422.371 245.294 C 370.447 202.673 359.753 138.574 372.074 97.491 C 384.561 55.855 435.103 61.250 435.109 61.246 C 435.099 61.243 412.137 18.963 337.404 31.304 C 297.245 37.936 267.034 70.157 267.027 70.161 C 267.025 70.166 246.565 102.177 241.668 115.610 C 213.605 192.587 232.699 285.005 200.303 382.725 C 167.606 481.355 72.667 623.810 72.656 623.835 C 72.665 623.830 149.956 647.363 235.301 483.448 C 263.181 429.901 282.967 333.148 282.972 333.133 C 282.969 333.149 269.777 431.516 250.930 489.493 C 225.952 566.330 165.644 683.699 165.633 683.718 C 165.642 683.714 256.098 695.406 322.761 492.775 C 340.515 438.810 349.418 346.035 349.421 346.020 C 349.419 346.036 346.375 443.860 332.291 501.907 C 314.147 576.685 258.618 690.003 258.610 690.022 C 258.624 690.005 362.404 665.625 397.288 519.827 C 407.405 477.541 411.277 406.542 411.278 406.531 C 411.278 406.541 413.408 468.295 410.425 506.105 C 405.586 567.430 392.562 647.459 392.560 647.473 C 392.568 647.459 455.848 626.487 470.563 504.068 C 474.843 468.467 477.918 410.222 477.919 410.212 C 477.919 410.220 483.807 457.478 482.585 486.602 C 480.361 539.624 477.658 611.216 477.658 611.228 C 477.664 611.214 535.708 582.461 540.954 463.949 C 542.101 438.052 542.462 395.912 542.462 395.905 C 542.463 395.910 546.937 421.382 546.804 446.153 C 546.569 489.637 551.724 532.426 551.724 532.434 C 551.729 532.422 604.800 508.473 599.000 409.515 C 595.662 352.558 584.166 316.895 569.123 304.166 Z"/>
<path fill="none" stroke="#ffffff" stroke-width="1" stroke-linecap="butt" stroke-linejoin="round" d="M 569.123 304.166 C 549.010 287.148 455.946 272.855 422.371 245.294 "/>
<path fill="none" stroke="#ffffff" stroke-width="1" stroke-linecap="butt" stroke-linejoin="round" d="M 422.371 245.294 C 370.447 202.673 359.753 138.574 372.074 97.491 "/>
<path fill="none" stroke="#ffffff" stroke-width="1" stroke-linecap="butt" stroke-linejoin="round" d="M 372.074 97.491 C 384.561 55.855 435.103 61.250 435.109 61.246 "/>
<path fill="none" stroke="#ffffff" stroke-width="1" stroke-linecap="butt" stroke-linejoin="round" d="M 435.109 61.246 C 435.099 61.243 412.137 18.963 337.404 31.304 "/>
<path fill="none" stroke="#ffffff" stroke-width="1" stroke-linecap="butt" stroke-linejoin="round" d="M 337.404 31.304 C 297.245 37.936 267.034 70.157 267.027 70.161 "/>
<path fill="#ffffff" fill-rule="evenodd" stroke="#000000" stroke-width="3" stroke-linejoin="round" d="M 529.492 425.268 C 529.496 425.256 615.231 409.777 569.123 304.166 C 549.010 287.148 455.946 272.855 422.371 245.294 C 370.447 202.673 359.753 138.574 372.074 97.491 C 384.561 55.855 435.103 61.250 435.109 61.246 C 435.099 61.243 412.137 18.963 337.404 31.304 C 297.245 37.936 267.034 70.157 267.027 70.161 C 197.305 144.465 229.559 258.080 167.792 371.209 C 207.514 370.840 235.251 368.881 258.549 292.046 C 267.438 262.733 270.483 212.938 270.484 212.930 C 270.484 212.938 270.269 263.108 268.849 294.077 C 267.092 332.394 242.945 363.380 231.731 396.750 C 290.614 385.494 304.588 372.211 321.289 335.384 C 331.609 312.629 329.053 270.253 329.054 270.246 C 329.054 270.252 327.339 301.321 327.994 323.979 C 329.490 375.744 307.848 421.858 307.846 421.868 C 307.854 421.861 366.759 425.945 381.153 355.457 C 385.094 336.155 381.197 303.739 381.197 303.734 C 381.198 303.738 387.438 330.745 388.863 347.673 C 393.305 400.462 383.579 442.519 383.578 442.528 C 383.585 442.521 431.803 429.544 447.659 371.758 C 452.661 353.527 454.845 322.652 454.846 322.647 C 454.846 322.651 452.016 350.708 456.085 368.358 C 463.213 399.269 460.876 442.751 460.877 442.758 C 460.882 442.749 518.716 429.304 515.315 353.390 C 514.970 345.679 516.764 333.177 516.764 333.175 C 516.765 333.178 519.326 348.893 522.484 360.720 C 530.910 392.284 529.491 425.262 529.492 425.268 Z"/>
<path fill="#ffffff" fill-rule="evenodd" stroke="#000000" stroke-width="3" stroke-linejoin="round" d="M 493.046 372.618 C 493.053 372.611 572.182 387.279 569.404 303.579 C 549.291 286.560 456.227 272.268 422.651 244.707 C 370.728 202.086 360.034 137.987 372.354 96.904 C 384.841 55.268 435.383 60.662 435.389 60.659 C 435.379 60.655 416.465 19.031 341.621 22.844 C 305.366 24.692 298.097 30.424 274.485 48.015 C 217.574 96.852 244.783 125.377 184.569 148.833 C 213.124 169.063 259.948 183.878 285.031 114.717 C 307.463 52.864 359.634 57.414 359.642 57.409 C 359.635 57.414 313.992 56.597 288.447 113.233 C 267.137 160.480 277.325 169.724 226.939 219.985 C 278.331 227.383 323.392 222.215 322.246 179.786 C 320.962 132.243 338.757 115.871 338.758 115.865 C 338.757 115.872 320.881 134.304 324.541 184.396 C 325.823 201.940 301.390 216.722 301.556 221.196 C 303.463 272.796 280.481 294.102 280.479 294.109 C 280.487 294.107 365.825 331.704 359.679 272.268 C 356.508 241.599 364.675 222.051 364.676 222.046 C 364.676 222.053 353.971 244.422 363.671 287.978 C 371.543 323.323 346.552 343.501 346.550 343.507 C 346.558 343.504 423.404 350.456 420.893 316.733 C 418.614 286.107 420.905 275.957 420.905 275.953 C 420.906 275.958 414.432 302.883 425.693 319.145 C 438.429 337.538 424.764 365.301 424.764 365.306 C 424.770 365.302 493.736 382.139 490.033 327.483 C 489.097 313.662 491.356 302.933 491.356 302.930 C 491.357 302.933 485.049 317.157 495.427 334.051 C 509.754 357.373 493.046 372.614 493.046 372.618 Z"/>
</g>
<g id="specs_2">
<path fill="#ff0000" fill-rule="evenodd" stroke="none" d="M 537.616 338.562 C 537.619 338.563 572.425 350.994 572.429 350.995 C 572.427 350.994 560.862 338.563 560.860 338.562 C 560.862 338.561 572.427 326.130 572.429 326.129 C 572.425 326.130 537.619 338.561 537.616 338.562 Z"/>
<path fill="#0000ff" fill-rule="evenodd" stroke="none" d="M 360.000 11.446 C 359.999 11.449 352.779 31.667 352.778 31.669 C 352.779 31.668 359.999 24.950 360.000 24.949 C 360.001 24.950 367.221 31.668 367.222 31.669 C 367.221 31.667 360.001 11.449 360.000 11.446 Z"/>
<path fill="#00ff00" fill-rule="evenodd" stroke="none" d="M 601.456 340.974 C 601.454 340.973 581.273 333.650 581.271 333.650 C 581.271 333.650 587.953 340.905 587.954 340.906 C 587.953 340.907 581.199 348.093 581.198 348.094 C 581.200 348.093 601.454 340.975 601.456 340.974 Z"/>
<path fill="#ffff00" fill-rule="evenodd" stroke="none" d="M 582.268 521.274 C 582.268 521.272 573.307 501.762 573.306 501.760 C 573.306 501.761 572.834 511.613 572.834 511.614 C 572.833 511.614 562.974 511.853 562.973 511.853 C 562.975 511.854 582.267 521.273 582.268 521.274 Z"/>
<path fill="#ffff00" fill-rule="evenodd" stroke="none" d="M 83.969 623.289 C 83.970 623.288 93.320 603.962 93.321 603.960 C 93.321 603.961 93.594 613.820 93.595 613.821 C 93.595 613.821 103.449 614.258 103.450 614.258 C 103.448 614.259 83.971 623.289 83.969 623.289 Z"/>
<path fill="#00ff00" fill-rule="evenodd" stroke="none" d="M 159.657 364.166 C 159.659 364.165 179.840 356.842 179.842 356.841 C 179.841 356.842 173.160 364.097 173.159 364.098 C 173.160 364.099 179.914 371.285 179.915 371.286 C 179.913 371.285 159.659 364.167 159.657 364.166 Z"/>
<path fill="#00ffff" fill-rule="evenodd" stroke="none" d="M 259.898 41.815 C 259.899 41.817 267.066 62.054 267.067 62.056 C 267.067 62.055 268.424 52.286 268.424 52.285 C 268.425 52.285 278.266 52.935 278.267 52.935 C 278.265 52.934 259.900 41.816 259.898 41.815 Z"/>
<path fill="#00ffff" fill-rule="evenodd" stroke="none" d="M 435.744 235.400 C 435.743 235.402 427.243 255.116 427.242 255.118 C 427.242 255.117 426.539 245.279 426.539 245.278 C 426.538 245.278 416.676 245.271 416.675 245.271 C 416.677 245.270 435.742 235.401 435.744 235.400 Z"/>
<path fill="#be0027" fill-rule="evenodd" stroke="none" d="M 256.896 694.991 C 256.897 694.987 269.352 660.190 269.354 660.187 C 269.354 660.188 271.633 677.014 271.634 677.015 C 271.635 677.015 288.581 675.952 288.583 675.952 C 288.579 675.954 256.899 694.989 256.896 694.991 Z"/>
</g>
</g>
</svg>
