<?xml version="1.0" encoding="utf-8"?>
<!-- Generator: Moho 12.3 build 22017 -->
<!DOCTYPE svg PUBLIC "-//W3C//DTD SVG 1.1//EN" "http://www.w3.org/Graphics/SVG/1.1/DTD/svg11.dtd">
<svg version="1.1" id="Frame_0" xmlns="http://www.w3.org/2000/svg" xmlns:xlink="http://www.w3.org/1999/xlink" width="720px" height="720px">
<g id="wing">
<g id="wingR">
<path fill="#ffffff" fill-rule="evenodd" stroke="#000000" stroke-width="9" stroke-linecap="round" stroke-linejoin="round" d="M 51.607 541.041 C 51.621 541.030 140.218 507.604 189.529 435.852 C 257.361 337.148 196.921 286.805 236.012 227.904 C 258.887 193.438 314.823 180.442 396.288 134.157 C 534.042 55.892 629.635 2.982 642.560 20.654 C 654.725 37.289 616.431 111.238 576.995 141.393 C 534.013 174.259 447.165 208.866 447.152 208.873 C 447.167 208.870 580.944 158.583 591.730 177.960 C 599.348 191.644 568.887 239.711 533.218 264.436 C 502.582 285.672 426.403 309.624 426.392 309.629 C 426.406 309.628 556.068 281.104 563.434 300.346 C 568.721 314.157 531.334 361.760 496.731 372.947 C 437.826 391.991 383.664 401.023 383.653 401.026 C 383.665 401.027 503.818 398.206 508.161 416.519 C 511.201 429.340 479.149 469.712 443.397 475.873 C 406.371 482.253 341.272 479.834 341.262 479.834 C 341.273 479.837 444.989 488.047 455.093 511.059 C 458.614 519.076 436.569 544.861 390.158 558.151 C 339.074 572.778 299.627 548.388 299.618 548.387 C 299.626 548.392 376.914 586.902 373.012 599.761 C 368.043 616.135 334.138 625.473 297.171 621.780 C 270.110 619.077 218.894 589.981 218.886 589.978 C 218.893 589.985 309.797 640.830 292.279 660.923 C 284.306 670.068 233.034 667.909 211.547 656.031 C 196.617 647.778 140.608 607.107 140.601 607.102 C 140.604 607.109 182.460 673.240 169.958 675.601 C 138.130 681.613 111.004 666.604 89.225 648.691 C 75.101 637.074 51.611 597.312 51.607 597.307 C 51.606 597.304 38.660 568.249 38.658 568.246 C 38.660 568.243 51.606 541.043 51.607 541.041 Z"/>
</g>
<g id="specs_2">
<path fill="#ff00ff" fill-rule="evenodd" stroke="none" d="M 236.938 412.812 C 236.956 412.812 421.415 412.812 421.434 412.812 C 421.434 412.794 421.434 228.334 421.434 228.316 C 421.415 228.316 236.956 228.316 236.938 228.316 C 236.938 228.334 236.938 412.794 236.938 412.812 Z"/>
<path fill="#ff0000" fill-rule="evenodd" stroke="none" d="M 95.643 552.675 C 103.387 552.675 109.634 558.922 109.634 566.666 C 109.634 574.410 103.387 580.658 95.643 580.658 C 87.899 580.658 81.652 574.410 81.652 566.666 C 81.652 558.922 87.899 552.675 95.643 552.675 Z"/>
<path fill="#ffff00" fill-rule="evenodd" stroke="none" d="M 351.346 554.277 C 351.346 546.533 357.593 540.286 365.337 540.286 C 373.081 540.286 379.328 546.533 379.328 554.277 C 379.328 562.021 373.081 568.268 365.337 568.268 C 357.593 568.268 351.346 562.021 351.346 554.277 M 38.436 566.146 C 38.436 558.402 44.683 552.155 52.427 552.155 C 60.171 552.155 66.418 558.402 66.418 566.146 C 66.418 573.890 60.171 580.137 52.427 580.137 C 44.683 580.137 38.436 573.890 38.436 566.146 Z"/>
<path fill="#00ff00" fill-rule="evenodd" stroke="none" d="M 186.933 424.741 C 186.933 416.996 193.180 410.749 200.924 410.749 C 208.668 410.749 214.915 416.996 214.915 424.741 C 214.915 432.485 208.668 438.732 200.924 438.732 C 193.180 438.732 186.933 432.485 186.933 424.741 M 484.812 420.424 C 484.812 412.680 491.059 406.433 498.803 406.433 C 506.547 406.433 512.794 412.680 512.794 420.424 C 512.794 428.168 506.547 434.416 498.803 434.416 C 491.059 434.416 484.812 428.168 484.812 420.424 Z"/>
<path fill="#00ffff" fill-rule="evenodd" stroke="none" d="M 478.746 82.789 C 486.490 82.789 492.737 89.037 492.737 96.781 C 492.737 104.525 486.490 110.772 478.746 110.772 C 471.002 110.772 464.755 104.525 464.755 96.781 C 464.755 89.037 471.002 82.789 478.746 82.789 Z"/>
<path fill="#00ffff" fill-rule="evenodd" stroke="none" d="M 326.495 159.399 C 334.239 159.399 340.486 165.646 340.486 173.390 C 340.486 181.134 334.239 187.381 326.495 187.381 C 318.751 187.381 312.504 181.134 312.504 173.390 C 312.504 165.646 318.751 159.399 326.495 159.399 Z"/>
<path fill="#0000ff" fill-rule="evenodd" stroke="none" d="M 360.000 48.820 C 367.744 48.820 373.991 55.067 373.991 62.811 C 373.991 70.555 367.744 76.802 360.000 76.802 C 352.256 76.802 346.009 70.555 346.009 62.811 C 346.009 55.067 352.256 48.820 360.000 48.820 Z"/>
</g>
</g>
</svg>
