<?xml version="1.0" encoding="utf-8"?>
<!-- Generator: Moho 12.5 build 22414 -->
<!DOCTYPE svg PUBLIC "-//W3C//DTD SVG 1.1//EN" "http://www.w3.org/Graphics/SVG/1.1/DTD/svg11.dtd">
<svg version="1.1" id="Frame_0" xmlns="http://www.w3.org/2000/svg" xmlns:xlink="http://www.w3.org/1999/xlink" width="720px" height="720px">
<g id="halves">
<g id="woman_top">
<g id="woman_top_2">
<path fill="#ffffff" fill-rule="evenodd" stroke="#000000" stroke-width="2" stroke-linecap="round" stroke-linejoin="round" d="M 439.444 379.299 C 437.561 371.675 435.359 364.823 432.518 358.587 C 426.836 346.116 419.620 335.880 414.433 325.242 C 402.498 300.768 397.588 281.319 404.424 248.766 C 407.523 234.005 414.960 218.162 414.961 218.159 C 414.965 218.166 439.054 277.204 456.144 290.924 C 465.032 298.059 471.784 312.166 482.630 320.667 C 492.665 328.533 509.857 338.881 511.344 343.606 C 511.931 345.471 516.781 357.260 517.871 358.637 C 520.971 362.553 556.513 389.858 556.757 384.350 C 556.904 381.013 535.039 366.752 535.602 365.630 C 536.247 364.346 560.447 386.599 562.595 383.436 C 564.589 380.502 540.563 363.224 541.056 362.552 C 541.573 361.849 563.653 383.085 566.612 380.837 C 570.277 378.051 544.830 359.965 545.462 359.311 C 546.075 358.676 569.341 380.453 568.696 377.057 C 567.419 370.334 541.877 345.975 544.040 347.301 C 552.740 352.633 567.241 361.084 562.643 356.095 C 552.390 344.970 546.891 336.496 526.685 333.995 C 518.370 332.965 506.173 304.926 479.898 283.275 C 475.622 279.752 471.365 278.710 460.174 243.504 C 452.593 219.656 442.593 203.831 437.070 182.264 C 427.002 142.946 291.757 145.809 282.405 182.264 C 276.872 203.829 266.881 219.656 259.301 243.504 C 248.110 278.710 243.853 279.752 239.577 283.275 C 213.302 304.926 201.105 332.965 192.790 333.995 C 172.584 336.496 167.085 344.970 156.831 356.095 C 152.234 361.084 166.735 352.633 175.435 347.301 C 177.597 345.975 152.055 370.334 150.779 377.057 C 150.134 380.453 173.400 358.676 174.012 359.311 C 174.645 359.965 149.198 378.051 152.863 380.837 C 155.822 383.085 177.902 361.849 178.419 362.552 C 178.912 363.224 154.886 380.502 156.879 383.436 C 159.028 386.599 183.228 364.346 183.873 365.630 C 184.436 366.752 162.570 381.013 162.718 384.350 C 162.962 389.858 198.504 362.553 201.604 358.637 C 202.694 357.260 207.544 345.471 208.131 343.606 C 209.618 338.881 226.809 328.533 236.844 320.667 C 247.691 312.166 254.443 298.059 263.331 290.924 C 280.420 277.204 304.510 218.166 304.514 218.159 C 304.515 218.162 311.951 234.005 315.051 248.766 C 321.886 281.319 316.977 300.767 305.042 325.242 C 299.854 335.880 292.576 346.120 286.862 358.592 C 284.006 364.829 281.456 371.606 279.924 379.305 C 279.264 381.851 279.024 383.345 278.091 387.585 C 278.107 387.585 441.468 387.860 441.484 387.860 C 441.484 387.859 439.950 382.028 439.444 379.299 Z"/>
<path fill="#ffffff" fill-rule="evenodd" stroke="#000000" stroke-width="2" stroke-linecap="round" stroke-linejoin="round" d="M 326.647 204.016 C 340.314 204.015 351.339 215.040 351.339 228.706 C 351.339 242.373 340.314 253.397 326.647 253.397 C 312.981 253.397 301.956 242.372 301.957 228.706 C 301.957 215.040 312.981 204.016 326.647 204.016 Z"/>
<path fill="#ffffff" fill-rule="evenodd" stroke="#000000" stroke-width="2" stroke-linecap="round" stroke-linejoin="round" d="M 393.753 204.016 C 380.087 204.016 369.062 215.040 369.062 228.706 C 369.062 242.373 380.087 253.397 393.753 253.397 C 407.420 253.398 418.445 242.373 418.445 228.706 C 418.444 215.040 407.419 204.016 393.753 204.016 Z"/>
<path fill="#ffffff" fill-rule="evenodd" stroke="none" d="M 314.931 189.363 C 314.939 189.363 404.025 189.363 404.034 189.363 C 404.034 189.367 404.034 228.687 404.034 228.691 C 404.025 228.691 314.939 228.691 314.931 228.691 C 314.931 228.687 314.931 189.367 314.931 189.363 Z"/>
<path fill="none" stroke="#000000" stroke-width="2" stroke-linecap="round" stroke-linejoin="round" d="M 358.802 337.194 C 358.802 334.689 359.585 333.687 360.150 333.687 C 360.716 333.687 361.499 334.689 361.499 337.194 C 361.499 339.698 360.716 340.700 360.150 340.700 C 359.585 340.700 358.802 339.698 358.802 337.194 "/>
</g>
<g id="specs_3">
<path fill="#ff00ff" fill-rule="evenodd" stroke="none" d="M 279.724 166.546 C 279.740 166.546 440.260 166.546 440.276 166.546 C 440.276 166.530 440.276 6.009 440.276 5.993 C 440.260 5.993 279.740 5.993 279.724 5.993 C 279.724 6.009 279.724 166.530 279.724 166.546 Z"/>
<path fill="#ff0000" fill-rule="evenodd" stroke="none" d="M 360.000 364.261 C 360.001 364.264 372.416 399.027 372.417 399.030 C 372.416 399.029 360.001 387.478 360.000 387.477 C 359.999 387.478 347.584 399.029 347.583 399.030 C 347.584 399.027 359.999 364.264 360.000 364.261 Z"/>
<path fill="#0000ff" fill-rule="evenodd" stroke="none" d="M 360.000 21.239 C 360.001 21.241 367.212 41.434 367.213 41.436 C 367.212 41.436 360.001 34.726 360.000 34.725 C 359.999 34.726 352.788 41.436 352.787 41.436 C 352.788 41.434 359.999 21.241 360.000 21.239 Z"/>
<path fill="#00ff00" fill-rule="evenodd" stroke="none" d="M 261.989 177.830 C 261.991 177.829 282.147 170.516 282.149 170.515 C 282.149 170.516 275.475 177.761 275.475 177.762 C 275.475 177.763 282.221 184.941 282.222 184.941 C 282.220 184.941 261.991 177.831 261.989 177.830 Z"/>
<path fill="#ffff00" fill-rule="evenodd" stroke="none" d="M 153.329 386.168 C 153.330 386.166 162.279 366.681 162.280 366.679 C 162.280 366.680 162.751 376.519 162.751 376.520 C 162.752 376.520 172.600 376.759 172.601 376.759 C 172.599 376.760 153.331 386.167 153.329 386.168 Z"/>
<path fill="#ffff00" fill-rule="evenodd" stroke="none" d="M 567.189 385.929 C 567.188 385.927 557.849 366.625 557.849 366.623 C 557.848 366.624 557.575 376.471 557.575 376.472 C 557.573 376.472 547.733 376.908 547.732 376.908 C 547.734 376.909 567.187 385.928 567.189 385.929 Z"/>
<path fill="#00ff00" fill-rule="evenodd" stroke="none" d="M 457.444 177.830 C 457.442 177.829 437.285 170.516 437.283 170.515 C 437.284 170.516 443.957 177.761 443.958 177.762 C 443.957 177.763 437.211 184.941 437.211 184.941 C 437.213 184.941 457.442 177.831 457.444 177.830 Z"/>
<path fill="#00ffff" fill-rule="evenodd" stroke="none" d="M 407.591 38.834 C 407.590 38.836 400.432 59.048 400.431 59.050 C 400.431 59.049 399.075 49.292 399.075 49.291 C 399.074 49.292 389.245 49.941 389.244 49.941 C 389.246 49.939 407.589 38.835 407.591 38.834 Z"/>
<path fill="#00ffff" fill-rule="evenodd" stroke="none" d="M 309.297 39.504 C 309.297 39.506 317.787 59.196 317.788 59.198 C 317.788 59.197 318.490 49.371 318.490 49.370 C 318.491 49.370 328.341 49.363 328.342 49.363 C 328.340 49.362 309.298 39.505 309.297 39.504 Z"/>
<path fill="#be0027" fill-rule="evenodd" stroke="none" d="M 360.000 410.691 C 360.001 410.688 372.416 375.925 372.417 375.922 C 372.416 375.923 360.001 387.474 360.000 387.475 C 359.999 387.474 347.584 375.923 347.583 375.922 C 347.584 375.925 359.999 410.688 360.000 410.691 Z"/>
<path fill="none" stroke="#ffff00" stroke-width="2" stroke-linecap="round" stroke-linejoin="round" d="M 278.193 387.585 C 332.532 387.583 441.193 387.581 441.210 387.581 "/>
</g>
</g>
</g>
</svg>
