<?xml version="1.0" encoding="utf-8"?>
<!-- Generator: Moho 12.5 build 22414 -->
<!DOCTYPE svg PUBLIC "-//W3C//DTD SVG 1.1//EN" "http://www.w3.org/Graphics/SVG/1.1/DTD/svg11.dtd">
<svg version="1.1" id="Frame_0" xmlns="http://www.w3.org/2000/svg" xmlns:xlink="http://www.w3.org/1999/xlink" width="720px" height="720px">
<g id="halves">
<g id="woman_top">
<g id="woman_top">
<path fill="#000000" fill-rule="evenodd" stroke="#ffffff" stroke-width="2" stroke-linecap="round" stroke-linejoin="round" d="M 360.387 306.775 C 381.103 306.766 388.625 313.064 410.626 304.456 C 424.126 299.174 427.779 292.642 440.964 286.618 C 449.475 282.728 455.686 285.657 462.426 279.165 C 472.144 269.804 467.824 260.600 473.248 248.244 C 477.740 238.013 486.310 238.712 485.963 224.281 C 485.461 203.410 476.089 206.835 473.248 193.360 C 469.963 177.778 477.713 169.746 472.475 154.709 C 467.762 141.177 457.784 139.807 451.603 126.879 C 444.109 111.203 451.183 100.373 441.554 85.909 C 435.074 76.175 427.476 78.555 419.191 68.420 C 410.494 57.780 413.228 51.058 405.927 41.733 C 394.959 27.726 381.029 20.894 360.387 20.817 C 339.453 20.738 325.231 27.564 314.073 41.740 C 306.750 51.045 309.504 57.783 300.809 68.420 C 292.523 78.555 284.926 76.175 278.446 85.909 C 268.817 100.373 275.891 111.203 268.397 126.879 C 262.217 139.807 252.238 141.177 247.525 154.709 C 242.287 169.746 250.037 177.778 246.752 193.360 C 243.911 206.835 234.539 203.410 234.037 224.281 C 233.691 238.712 242.260 238.013 246.752 248.244 C 252.176 260.600 247.855 269.804 257.574 279.166 C 264.314 285.658 270.525 282.728 279.036 286.618 C 292.221 292.642 295.823 299.306 309.373 304.456 C 330.965 312.662 339.352 306.784 360.387 306.775 Z"/>
<path fill="#ffffff" fill-rule="evenodd" stroke="#000000" stroke-width="2" stroke-linecap="round" stroke-linejoin="round" d="M 439.444 366.415 C 437.561 358.791 435.359 351.939 432.518 345.703 C 426.836 333.232 419.620 322.996 414.433 312.358 C 402.498 287.884 397.588 268.435 404.424 235.882 C 407.523 221.121 414.960 205.278 414.961 205.275 C 414.965 205.282 439.054 264.320 456.144 278.040 C 465.032 285.175 471.784 299.282 482.630 307.783 C 492.665 315.649 509.857 325.997 511.344 330.722 C 511.931 332.587 516.781 344.376 517.871 345.753 C 520.971 349.669 556.513 376.974 556.757 371.466 C 556.904 368.129 535.039 353.868 535.602 352.746 C 536.247 351.462 560.447 373.715 562.595 370.552 C 564.589 367.618 540.563 350.340 541.056 349.668 C 541.573 348.965 563.653 370.201 566.612 367.953 C 570.277 365.167 544.830 347.081 545.462 346.427 C 546.075 345.792 569.341 367.569 568.696 364.173 C 567.419 357.450 541.877 333.091 544.040 334.417 C 552.740 339.749 567.241 348.200 562.643 343.211 C 552.390 332.086 546.891 323.612 526.685 321.111 C 518.370 320.081 506.173 292.042 479.898 270.391 C 475.622 266.868 471.365 265.826 460.174 230.620 C 452.593 206.772 442.663 190.929 437.070 169.380 C 430.581 144.378 375.271 139.060 373.824 123.281 C 373.149 115.911 371.543 101.967 374.723 99.678 C 376.018 98.745 388.078 86.727 388.395 68.337 C 388.562 58.647 382.651 37.438 359.928 37.931 C 337.495 38.417 330.684 59.785 330.714 70.897 C 330.750 84.244 343.520 98.831 344.752 99.678 C 347.981 101.897 346.326 115.911 345.650 123.281 C 344.204 139.060 288.894 144.378 282.405 169.380 C 276.812 190.929 266.881 206.772 259.301 230.620 C 248.110 265.826 243.853 266.868 239.577 270.391 C 213.302 292.042 201.105 320.081 192.790 321.111 C 172.584 323.612 167.085 332.086 156.831 343.211 C 152.234 348.200 166.735 339.749 175.435 334.417 C 177.597 333.091 152.055 357.450 150.779 364.173 C 150.134 367.569 173.400 345.792 174.012 346.427 C 174.645 347.081 149.198 365.167 152.863 367.953 C 155.822 370.201 177.902 348.965 178.419 349.668 C 178.912 350.340 154.886 367.618 156.879 370.552 C 159.028 373.715 183.228 351.462 183.873 352.746 C 184.436 353.868 162.570 368.129 162.718 371.466 C 162.962 376.974 198.504 349.669 201.604 345.753 C 202.694 344.376 207.544 332.587 208.131 330.722 C 209.618 325.997 226.809 315.649 236.844 307.783 C 247.691 299.282 254.443 285.175 263.331 278.040 C 280.420 264.320 304.510 205.282 304.514 205.275 C 304.515 205.278 311.951 221.121 315.051 235.882 C 321.886 268.435 316.977 287.883 305.042 312.358 C 299.854 322.996 292.576 333.236 286.862 345.708 C 284.006 351.945 281.456 358.722 279.924 366.421 C 279.264 368.967 279.024 370.461 278.091 374.701 C 278.107 374.701 441.468 374.976 441.484 374.976 C 441.484 374.975 439.950 369.144 439.444 366.415 Z"/>
<path fill="#ffffff" fill-rule="evenodd" stroke="#000000" stroke-width="2" stroke-linecap="round" stroke-linejoin="round" d="M 326.647 191.132 C 340.314 191.131 351.339 202.156 351.339 215.822 C 351.339 229.489 340.314 240.513 326.647 240.513 C 312.981 240.513 301.956 229.488 301.957 215.822 C 301.957 202.156 312.981 191.132 326.647 191.132 Z"/>
<path fill="#ffffff" fill-rule="evenodd" stroke="#000000" stroke-width="2" stroke-linecap="round" stroke-linejoin="round" d="M 393.753 191.132 C 380.087 191.132 369.062 202.156 369.062 215.822 C 369.062 229.489 380.087 240.513 393.753 240.513 C 407.420 240.514 418.445 229.489 418.445 215.822 C 418.444 202.156 407.419 191.132 393.753 191.132 Z"/>
<path fill="#ffffff" fill-rule="evenodd" stroke="none" d="M 314.931 176.479 C 314.939 176.479 404.025 176.479 404.034 176.479 C 404.034 176.483 404.034 215.803 404.034 215.807 C 404.025 215.807 314.939 215.807 314.931 215.807 C 314.931 215.803 314.931 176.483 314.931 176.479 Z"/>
<path fill="none" stroke="#000000" stroke-width="2" stroke-linecap="round" stroke-linejoin="round" d="M 358.802 324.310 C 358.802 321.805 359.585 320.803 360.150 320.803 C 360.716 320.803 361.499 321.805 361.499 324.310 C 361.499 326.814 360.716 327.816 360.150 327.816 C 359.585 327.816 358.802 326.814 358.802 324.310 "/>
</g>
<g id="specs_3">
<path fill="#ff00ff" fill-rule="evenodd" stroke="none" d="M 294.199 137.039 C 294.213 137.039 425.787 137.039 425.801 137.039 C 425.801 137.026 425.801 5.451 425.801 5.438 C 425.787 5.438 294.213 5.438 294.199 5.438 C 294.199 5.451 294.199 137.026 294.199 137.039 Z"/>
<path fill="#ff0000" fill-rule="evenodd" stroke="none" d="M 360.000 351.377 C 360.001 351.380 372.416 386.143 372.417 386.146 C 372.416 386.145 360.001 374.594 360.000 374.593 C 359.999 374.594 347.584 386.145 347.583 386.146 C 347.584 386.143 359.999 351.380 360.000 351.377 Z"/>
<path fill="#0000ff" fill-rule="evenodd" stroke="none" d="M 360.000 8.355 C 360.001 8.357 367.212 28.550 367.213 28.552 C 367.212 28.552 360.001 21.842 360.000 21.841 C 359.999 21.842 352.788 28.552 352.787 28.552 C 352.788 28.550 359.999 8.357 360.000 8.355 Z"/>
<path fill="#00ff00" fill-rule="evenodd" stroke="none" d="M 261.989 164.946 C 261.991 164.945 282.147 157.632 282.149 157.631 C 282.149 157.632 275.475 164.877 275.475 164.878 C 275.475 164.879 282.221 172.057 282.222 172.057 C 282.220 172.057 261.991 164.947 261.989 164.946 Z"/>
<path fill="#ffff00" fill-rule="evenodd" stroke="none" d="M 153.329 373.284 C 153.330 373.282 162.279 353.797 162.280 353.795 C 162.280 353.796 162.751 363.635 162.751 363.636 C 162.752 363.636 172.600 363.875 172.601 363.875 C 172.599 363.876 153.331 373.283 153.329 373.284 Z"/>
<path fill="#ffff00" fill-rule="evenodd" stroke="none" d="M 567.189 373.045 C 567.188 373.043 557.849 353.741 557.849 353.739 C 557.848 353.740 557.575 363.587 557.575 363.588 C 557.573 363.588 547.733 364.024 547.732 364.024 C 547.734 364.025 567.187 373.044 567.189 373.045 Z"/>
<path fill="#00ff00" fill-rule="evenodd" stroke="none" d="M 457.444 164.946 C 457.442 164.945 437.285 157.632 437.283 157.631 C 437.284 157.632 443.957 164.877 443.958 164.878 C 443.957 164.879 437.211 172.057 437.211 172.057 C 437.213 172.057 457.442 164.947 457.444 164.946 Z"/>
<path fill="#00ffff" fill-rule="evenodd" stroke="none" d="M 407.591 25.950 C 407.590 25.952 400.432 46.164 400.431 46.166 C 400.431 46.165 399.075 36.408 399.075 36.407 C 399.074 36.408 389.245 37.057 389.244 37.057 C 389.246 37.055 407.589 25.951 407.591 25.950 Z"/>
<path fill="#00ffff" fill-rule="evenodd" stroke="none" d="M 309.297 26.620 C 309.297 26.622 317.787 46.312 317.788 46.314 C 317.788 46.313 318.490 36.487 318.490 36.486 C 318.491 36.486 328.341 36.479 328.342 36.479 C 328.340 36.478 309.298 26.621 309.297 26.620 Z"/>
<path fill="#be0027" fill-rule="evenodd" stroke="none" d="M 360.000 397.807 C 360.001 397.804 372.416 363.041 372.417 363.038 C 372.416 363.039 360.001 374.590 360.000 374.591 C 359.999 374.590 347.584 363.039 347.583 363.038 C 347.584 363.041 359.999 397.804 360.000 397.807 Z"/>
<path fill="none" stroke="#ffff00" stroke-width="2" stroke-linecap="round" stroke-linejoin="round" d="M 278.193 374.701 C 332.532 374.699 441.193 374.697 441.210 374.697 "/>
</g>
</g>
</g>
</svg>
