<?xml version="1.0" encoding="utf-8"?>
<!-- Generator: Moho 12.5 build 22414 -->
<!DOCTYPE svg PUBLIC "-//W3C//DTD SVG 1.1//EN" "http://www.w3.org/Graphics/SVG/1.1/DTD/svg11.dtd">
<svg version="1.1" id="Frame_0" xmlns="http://www.w3.org/2000/svg" xmlns:xlink="http://www.w3.org/1999/xlink" width="720px" height="720px">
<g id="woman">
<g id="woman_2">
<path fill="#ffffff" fill-rule="evenodd" stroke="#000000" stroke-width="2" stroke-linecap="round" stroke-linejoin="round" d="M 344.097 223.047 C 343.995 223.926 301.861 234.750 296.465 252.412 C 291.139 269.846 283.755 283.029 277.548 302.555 C 268.384 331.382 264.899 332.235 261.398 335.120 C 239.884 352.847 229.897 375.806 223.088 376.649 C 206.544 378.697 202.041 385.636 193.646 394.745 C 189.881 398.829 201.755 391.910 208.878 387.544 C 210.649 386.459 189.735 406.404 188.690 411.908 C 188.162 414.689 207.212 396.858 207.714 397.378 C 208.231 397.914 187.395 412.722 190.397 415.003 C 192.819 416.844 210.899 399.456 211.322 400.032 C 211.726 400.582 192.053 414.729 193.685 417.132 C 195.445 419.722 215.259 401.500 215.787 402.552 C 216.249 403.471 198.345 415.148 198.466 417.880 C 198.666 422.390 227.767 400.032 230.306 396.826 C 231.198 395.699 235.169 386.046 235.650 384.519 C 236.867 380.650 250.944 372.177 259.160 365.737 C 268.042 358.775 273.570 347.225 280.847 341.383 C 294.840 330.149 314.565 281.809 314.568 281.803 C 314.569 281.805 320.658 294.778 323.196 306.864 C 328.793 333.518 324.773 349.443 315.001 369.482 C 306.505 386.903 291.161 403.019 292.922 435.066 C 295.770 486.899 310.891 505.338 319.209 547.718 C 323.461 569.388 315.121 578.708 319.079 599.563 C 324.661 628.966 327.804 650.376 327.361 657.464 C 327.223 659.670 326.188 669.092 323.255 675.191 C 321.055 679.766 321.098 682.041 319.738 683.254 C 314.260 688.143 308.367 695.582 315.232 695.410 C 320.591 695.275 318.940 688.579 321.510 687.974 C 322.572 687.724 315.016 695.880 322.898 695.557 C 325.963 695.431 326.371 688.393 327.961 688.150 C 328.925 688.003 321.110 694.507 327.843 696.275 C 331.128 697.138 331.719 688.369 334.429 688.003 C 335.388 687.874 325.846 693.642 332.772 695.885 C 336.735 697.169 338.453 688.720 340.492 687.201 C 344.888 683.928 330.284 696.118 344.288 696.566 C 355.685 696.931 349.746 685.918 346.954 680.375 C 345.018 676.530 350.949 675.467 345.940 662.874 C 340.017 647.980 356.116 617.688 354.716 588.590 C 354.217 578.217 348.812 553.064 348.655 548.094 C 348.285 536.404 355.499 532.059 358.849 452.317 C 358.918 450.653 354.989 451.212 345.859 432.803 C 344.459 429.980 351.211 443.512 359.602 450.369 C 368.391 443.667 375.258 430.021 373.711 432.803 C 363.725 450.762 360.648 450.949 360.721 452.317 C 364.977 532.070 372.257 536.414 371.515 548.094 C 371.217 552.785 364.115 576.148 363.402 585.938 C 361.245 615.536 377.838 645.563 373.902 661.409 C 371.876 669.564 375.743 671.978 372.001 676.498 C 367.996 681.335 366.971 691.441 369.347 692.098 C 374.079 693.407 384.110 690.845 385.888 691.044 C 386.869 691.154 391.947 693.087 394.709 693.458 C 401.323 694.347 396.433 698.238 410.049 697.209 C 413.926 696.917 408.309 690.542 403.295 689.198 C 401.092 688.607 407.821 691.558 407.821 691.558 C 407.821 691.558 410.985 695.111 411.757 695.290 C 418.069 696.757 410.769 689.461 410.769 689.461 C 410.770 689.461 414.378 693.729 416.011 693.739 C 421.025 693.772 414.765 689.244 414.765 689.244 C 414.765 689.244 419.167 692.833 421.699 692.628 C 424.823 692.376 419.635 688.650 419.635 688.650 C 419.635 688.650 422.662 691.285 425.557 690.592 C 427.455 690.138 422.208 686.719 419.136 686.766 C 415.339 686.824 402.194 677.784 398.873 674.208 C 397.042 672.236 395.245 669.752 392.449 662.742 C 390.009 656.625 392.520 634.149 396.387 600.163 C 398.856 578.456 396.600 569.155 402.161 547.118 C 412.638 505.598 424.155 486.476 426.648 435.066 C 428.203 403.009 413.065 386.903 404.569 369.482 C 394.797 349.443 390.777 333.518 396.374 306.864 C 398.912 294.778 405.001 281.805 405.002 281.803 C 405.005 281.809 424.730 330.149 438.723 341.383 C 446.000 347.225 451.528 358.775 460.410 365.737 C 468.626 372.177 482.702 380.650 483.920 384.519 C 484.401 386.046 488.372 395.699 489.264 396.826 C 491.803 400.032 520.904 422.390 521.104 417.880 C 521.225 415.148 503.321 403.471 503.783 402.552 C 504.311 401.500 524.125 419.722 525.885 417.132 C 527.517 414.729 507.844 400.582 508.248 400.032 C 508.671 399.456 526.751 416.844 529.173 415.003 C 532.175 412.722 511.339 397.914 511.856 397.378 C 512.358 396.858 531.408 414.689 530.880 411.908 C 529.835 406.404 508.921 386.459 510.692 387.544 C 517.815 391.910 529.689 398.829 525.924 394.745 C 517.529 385.636 513.026 378.697 496.481 376.649 C 489.673 375.806 479.686 352.847 458.172 335.120 C 454.671 332.235 451.186 331.382 442.022 302.555 C 435.815 283.029 428.431 269.846 423.105 252.412 C 417.709 234.750 375.575 223.926 375.473 223.047 C 375.398 222.408 344.171 222.408 344.097 223.047 Z"/>
<path fill="#ffffff" fill-rule="evenodd" stroke="#000000" stroke-width="2" stroke-linecap="round" stroke-linejoin="round" d="M 332.691 270.222 C 343.881 270.222 352.908 279.249 352.908 290.439 C 352.908 301.629 343.881 310.656 332.691 310.656 C 321.501 310.656 312.474 301.629 312.474 290.439 C 312.474 279.249 321.501 270.222 332.691 270.222 Z"/>
<path fill="#ffffff" fill-rule="evenodd" stroke="#000000" stroke-width="2" stroke-linecap="round" stroke-linejoin="round" d="M 387.637 270.223 C 376.447 270.223 367.420 279.249 367.420 290.439 C 367.420 301.629 376.447 310.656 387.637 310.656 C 398.827 310.656 407.854 301.629 407.854 290.439 C 407.854 279.249 398.827 270.222 387.637 270.223 Z"/>
<path fill="#ffffff" fill-rule="evenodd" stroke="none" d="M 323.097 258.225 C 323.104 258.225 396.047 258.225 396.055 258.225 C 396.055 258.228 396.055 290.424 396.055 290.427 C 396.047 290.427 323.104 290.427 323.097 290.427 C 323.097 290.424 323.097 258.228 323.097 258.225 Z"/>
<path fill="none" stroke="#000000" stroke-width="2" stroke-linecap="round" stroke-linejoin="round" d="M 359.019 379.268 C 359.019 377.217 359.660 376.397 360.123 376.397 C 360.586 376.397 361.227 377.217 361.227 379.268 C 361.227 381.319 360.586 382.139 360.123 382.139 C 359.660 382.139 359.019 381.319 359.019 379.268 "/>
</g>
<g id="specs_2">
<path fill="#ff00ff" fill-rule="evenodd" stroke="none" d="M 257.934 273.575 C 257.955 273.575 462.045 273.575 462.066 273.575 C 462.066 273.555 462.066 69.464 462.066 69.443 C 462.045 69.443 257.955 69.443 257.934 69.443 C 257.934 69.464 257.934 273.555 257.934 273.575 Z"/>
<path fill="#ff0000" fill-rule="evenodd" stroke="none" d="M 360.000 679.004 C 360.001 679.007 370.166 707.470 370.167 707.473 C 370.166 707.472 360.001 698.014 360.000 698.013 C 359.999 698.014 349.834 707.472 349.833 707.473 C 349.834 707.470 359.999 679.007 360.000 679.004 Z"/>
<path fill="#0000ff" fill-rule="evenodd" stroke="none" d="M 360.000 120.565 C 360.001 120.567 365.905 137.101 365.906 137.103 C 365.905 137.102 360.001 131.608 360.000 131.608 C 359.999 131.608 354.095 137.102 354.094 137.103 C 354.095 137.101 359.999 120.567 360.000 120.565 Z"/>
<path fill="#00ff00" fill-rule="evenodd" stroke="none" d="M 279.749 248.782 C 279.750 248.781 296.254 242.793 296.256 242.792 C 296.255 242.793 290.791 248.725 290.791 248.726 C 290.791 248.727 296.315 254.604 296.315 254.604 C 296.314 254.604 279.750 248.782 279.749 248.782 Z"/>
<path fill="#ffff00" fill-rule="evenodd" stroke="none" d="M 190.778 419.368 C 190.779 419.366 198.106 403.412 198.107 403.411 C 198.107 403.411 198.493 411.468 198.493 411.469 C 198.494 411.469 206.557 411.664 206.558 411.664 C 206.556 411.665 190.779 419.367 190.778 419.368 Z"/>
<path fill="#ffff00" fill-rule="evenodd" stroke="none" d="M 529.646 419.173 C 529.645 419.171 521.999 403.367 521.998 403.365 C 521.998 403.366 521.774 411.429 521.774 411.429 C 521.773 411.429 513.715 411.787 513.714 411.787 C 513.716 411.787 529.644 419.172 529.646 419.173 Z"/>
<path fill="#00ff00" fill-rule="evenodd" stroke="none" d="M 439.787 248.782 C 439.785 248.781 423.281 242.793 423.280 242.792 C 423.280 242.793 428.744 248.725 428.745 248.726 C 428.744 248.727 423.221 254.604 423.220 254.604 C 423.222 254.604 439.785 248.782 439.787 248.782 Z"/>
<path fill="#00ffff" fill-rule="evenodd" stroke="none" d="M 398.967 134.972 C 398.966 134.974 393.105 151.523 393.105 151.525 C 393.105 151.524 391.995 143.535 391.995 143.534 C 391.994 143.534 383.946 144.066 383.945 144.066 C 383.947 144.065 398.966 134.973 398.967 134.972 Z"/>
<path fill="#00ffff" fill-rule="evenodd" stroke="none" d="M 318.484 135.521 C 318.485 135.522 325.436 151.644 325.437 151.646 C 325.437 151.645 326.012 143.600 326.012 143.599 C 326.013 143.599 334.078 143.593 334.079 143.593 C 334.077 143.592 318.486 135.521 318.484 135.521 Z"/>
<path fill="#be0027" fill-rule="evenodd" stroke="none" d="M 360.000 624.622 C 360.001 624.619 370.166 596.155 370.167 596.152 C 370.166 596.153 360.001 605.612 360.000 605.613 C 359.999 605.612 349.834 596.153 349.833 596.152 C 349.834 596.155 359.999 624.619 360.000 624.622 Z"/>
</g>
</g>
</svg>
