<?xml version="1.0" encoding="utf-8"?>
<!-- Generator: Moho 12.5 build 22414 -->
<!DOCTYPE svg PUBLIC "-//W3C//DTD SVG 1.1//EN" "http://www.w3.org/Graphics/SVG/1.1/DTD/svg11.dtd">
<svg version="1.1" id="Frame_0" xmlns="http://www.w3.org/2000/svg" xmlns:xlink="http://www.w3.org/1999/xlink" width="720px" height="720px">
<g id="woman">
<g id="woman">
<path fill="#000000" fill-rule="evenodd" stroke="#ffffff" stroke-width="2" stroke-linecap="round" stroke-linejoin="round" d="M 360.360 326.933 C 379.633 326.924 386.631 332.783 407.101 324.775 C 419.661 319.861 423.059 313.784 435.325 308.179 C 443.244 304.560 449.022 307.286 455.293 301.245 C 464.335 292.536 460.315 283.973 465.361 272.478 C 469.540 262.959 477.513 263.610 477.191 250.183 C 476.724 230.766 468.004 233.952 465.361 221.415 C 462.306 206.919 469.515 199.447 464.642 185.456 C 460.258 172.867 450.974 171.592 445.224 159.565 C 438.252 144.980 444.833 134.905 435.875 121.448 C 429.846 112.392 422.777 114.606 415.069 105.176 C 406.978 95.278 409.521 89.024 402.728 80.348 C 392.525 67.317 379.564 60.960 360.360 60.888 C 340.884 60.815 327.652 67.166 317.271 80.355 C 310.458 89.011 313.021 95.280 304.931 105.176 C 297.222 114.606 290.154 112.391 284.125 121.448 C 275.167 134.905 281.748 144.980 274.776 159.565 C 269.026 171.592 259.742 172.867 255.358 185.456 C 250.485 199.447 257.695 206.919 254.639 221.415 C 251.996 233.952 243.276 230.766 242.809 250.183 C 242.487 263.610 250.460 262.959 254.639 272.478 C 259.685 283.974 255.665 292.536 264.707 301.246 C 270.978 307.286 276.756 304.560 284.675 308.179 C 296.941 313.784 300.292 319.984 312.899 324.775 C 332.987 332.410 340.790 326.941 360.360 326.933 Z"/>
<path fill="#ffffff" fill-rule="evenodd" stroke="#000000" stroke-width="2" stroke-linecap="round" stroke-linejoin="round" d="M 359.933 76.811 C 339.062 77.263 332.726 97.143 332.753 107.481 C 332.787 119.898 344.668 133.470 345.814 134.258 C 348.818 136.322 347.278 149.361 346.650 156.217 C 345.304 170.898 293.846 175.845 287.808 199.106 C 282.605 219.154 273.366 233.894 266.314 256.081 C 255.902 288.835 251.942 289.805 247.963 293.083 C 223.518 313.225 212.171 339.312 204.434 340.270 C 185.635 342.597 180.519 350.481 170.980 360.831 C 166.703 365.472 180.194 357.610 188.288 352.649 C 190.300 351.416 166.537 374.079 165.349 380.333 C 164.749 383.493 186.395 363.233 186.965 363.823 C 187.553 364.432 163.878 381.258 167.288 383.850 C 170.041 385.942 190.583 366.184 191.064 366.839 C 191.523 367.464 169.170 383.538 171.025 386.268 C 173.024 389.211 195.538 368.507 196.138 369.702 C 196.662 370.746 176.319 384.014 176.457 387.119 C 176.684 392.243 209.750 366.839 212.635 363.196 C 213.649 361.915 218.161 350.947 218.707 349.212 C 220.091 344.816 236.085 335.189 245.421 327.871 C 255.512 319.961 261.794 306.837 270.063 300.198 C 285.962 287.434 308.374 232.508 308.378 232.501 C 308.379 232.504 315.297 247.244 318.181 260.977 C 324.541 291.263 319.973 309.357 308.869 332.127 C 299.216 351.921 281.781 370.233 283.782 406.646 C 287.019 465.541 304.200 486.493 313.651 534.647 C 318.483 559.269 309.006 569.859 313.504 593.556 C 319.846 626.965 323.417 651.292 322.914 659.346 C 322.757 661.852 321.581 672.558 318.249 679.488 C 315.749 684.687 315.797 687.271 314.253 688.650 C 308.028 694.205 301.333 702.658 309.133 702.462 C 315.222 702.308 313.346 694.700 316.266 694.013 C 317.473 693.729 308.887 702.997 317.842 702.629 C 321.325 702.486 321.789 694.489 323.596 694.213 C 324.691 694.046 315.812 701.436 323.462 703.445 C 327.194 704.425 327.866 694.461 330.945 694.046 C 332.034 693.899 321.192 700.453 329.062 703.002 C 333.566 704.461 335.517 694.860 337.834 693.135 C 342.829 689.415 326.235 703.267 342.147 703.776 C 355.097 704.190 348.349 691.677 345.177 685.379 C 342.977 681.010 349.715 679.802 344.025 665.493 C 337.295 648.570 355.587 614.151 353.996 581.088 C 353.429 569.301 347.288 540.722 347.109 535.075 C 346.689 521.792 354.886 516.855 358.692 426.247 C 358.771 424.357 354.306 424.993 343.932 404.074 C 342.341 400.867 350.013 416.243 359.548 424.034 C 369.534 416.419 377.337 400.914 375.579 404.074 C 364.232 424.481 360.737 424.693 360.820 426.247 C 365.655 516.867 373.926 521.803 373.084 535.075 C 372.745 540.404 364.676 566.950 363.865 578.075 C 361.414 611.705 380.269 645.823 375.796 663.828 C 373.494 673.095 377.888 675.838 373.636 680.973 C 369.086 686.469 367.921 697.952 370.621 698.699 C 375.997 700.186 387.395 697.275 389.415 697.501 C 390.530 697.626 396.300 699.822 399.439 700.244 C 406.953 701.254 401.397 705.675 416.868 704.507 C 421.273 704.174 414.891 696.930 409.194 695.403 C 406.691 694.732 414.336 698.085 414.337 698.085 C 414.337 698.086 417.932 702.122 418.809 702.326 C 425.981 703.993 417.687 695.703 417.687 695.702 C 417.687 695.703 421.787 700.552 423.642 700.564 C 429.340 700.601 422.226 695.456 422.226 695.456 C 422.227 695.456 427.228 699.534 430.106 699.302 C 433.655 699.015 427.760 694.781 427.760 694.781 C 427.761 694.781 431.200 697.775 434.490 696.988 C 436.646 696.472 430.684 692.587 427.193 692.640 C 422.879 692.706 407.943 682.435 404.169 678.371 C 402.088 676.130 400.047 673.308 396.870 665.343 C 394.098 658.393 396.951 632.854 401.344 594.238 C 404.151 569.573 401.587 559.005 407.905 533.966 C 419.810 486.788 432.896 465.061 435.729 406.646 C 437.495 370.221 420.295 351.921 410.642 332.127 C 399.538 309.357 394.971 291.263 401.330 260.977 C 404.214 247.244 411.132 232.504 411.133 232.501 C 411.137 232.508 433.549 287.434 449.449 300.198 C 457.718 306.837 463.999 319.961 474.090 327.871 C 483.427 335.189 499.421 344.816 500.804 349.212 C 501.350 350.947 505.863 361.915 506.877 363.196 C 509.761 366.839 542.828 392.243 543.054 387.119 C 543.192 384.014 522.849 370.746 523.373 369.702 C 523.973 368.507 546.487 389.211 548.487 386.268 C 550.341 383.538 527.988 367.464 528.447 366.839 C 528.928 366.184 549.471 385.942 552.223 383.850 C 555.633 381.258 531.959 364.432 532.547 363.823 C 533.116 363.233 554.762 383.493 554.162 380.333 C 552.975 374.079 529.211 351.416 531.223 352.649 C 539.318 357.610 552.809 365.472 548.531 360.831 C 538.992 350.481 533.876 342.597 515.077 340.270 C 507.341 339.312 495.994 313.225 471.548 293.083 C 467.570 289.805 463.610 288.835 453.198 256.081 C 446.145 233.894 436.906 219.154 431.703 199.106 C 425.666 175.845 374.208 170.898 372.862 156.217 C 372.233 149.361 370.739 136.387 373.697 134.258 C 374.902 133.390 386.123 122.209 386.418 105.099 C 386.573 96.084 381.073 76.352 359.933 76.811 Z"/>
<path fill="#ffffff" fill-rule="evenodd" stroke="#000000" stroke-width="2" stroke-linecap="round" stroke-linejoin="round" d="M 328.970 219.342 C 341.685 219.342 351.942 229.599 351.942 242.314 C 351.942 255.028 341.685 265.285 328.970 265.285 C 316.256 265.285 305.999 255.028 305.999 242.314 C 305.999 229.599 316.256 219.343 328.970 219.342 Z"/>
<path fill="#ffffff" fill-rule="evenodd" stroke="#000000" stroke-width="2" stroke-linecap="round" stroke-linejoin="round" d="M 391.403 219.343 C 378.688 219.343 368.431 229.599 368.431 242.314 C 368.431 255.028 378.688 265.285 391.403 265.285 C 404.117 265.285 414.375 255.028 414.375 242.314 C 414.374 229.599 404.117 219.343 391.403 219.343 Z"/>
<path fill="#ffffff" fill-rule="evenodd" stroke="none" d="M 318.069 205.710 C 318.077 205.710 400.959 205.710 400.967 205.710 C 400.967 205.714 400.967 242.296 400.967 242.300 C 400.959 242.300 318.077 242.300 318.069 242.300 C 318.069 242.296 318.069 205.714 318.069 205.710 Z"/>
<path fill="none" stroke="#000000" stroke-width="2" stroke-linecap="round" stroke-linejoin="round" d="M 358.885 343.246 C 358.885 340.916 359.614 339.984 360.140 339.984 C 360.666 339.984 361.394 340.916 361.394 343.246 C 361.394 345.576 360.666 346.508 360.140 346.508 C 359.614 346.508 358.885 345.576 358.885 343.246 "/>
</g>
<g id="specs_2">
<path fill="#ff00ff" fill-rule="evenodd" stroke="none" d="M 268.559 185.142 C 268.578 185.142 451.422 185.142 451.441 185.142 C 451.441 185.124 451.441 2.279 451.441 2.260 C 451.422 2.260 268.578 2.260 268.559 2.260 C 268.559 2.279 268.559 185.124 268.559 185.142 Z"/>
<path fill="#ff0000" fill-rule="evenodd" stroke="none" d="M 360.000 683.821 C 360.001 683.824 371.552 716.166 371.553 716.169 C 371.552 716.168 360.001 705.421 360.000 705.420 C 359.999 705.421 348.448 716.168 348.447 716.169 C 348.448 716.166 359.999 683.824 360.000 683.821 Z"/>
<path fill="#0000ff" fill-rule="evenodd" stroke="none" d="M 360.000 49.295 C 360.001 49.297 366.710 68.083 366.711 68.085 C 366.710 68.085 360.001 61.842 360.000 61.842 C 359.999 61.842 353.290 68.085 353.289 68.085 C 353.290 68.083 359.999 49.297 360.000 49.295 Z"/>
<path fill="#00ff00" fill-rule="evenodd" stroke="none" d="M 268.814 194.981 C 268.816 194.980 287.569 188.176 287.571 188.175 C 287.570 188.176 281.362 194.917 281.361 194.917 C 281.362 194.918 287.638 201.596 287.638 201.597 C 287.637 201.596 268.816 194.981 268.814 194.981 Z"/>
<path fill="#ffff00" fill-rule="evenodd" stroke="none" d="M 167.721 388.809 C 167.722 388.808 176.048 370.680 176.049 370.678 C 176.049 370.679 176.488 379.833 176.488 379.834 C 176.489 379.834 185.650 380.056 185.651 380.056 C 185.649 380.057 167.723 388.809 167.721 388.809 Z"/>
<path fill="#ffff00" fill-rule="evenodd" stroke="none" d="M 552.760 388.587 C 552.759 388.586 544.071 370.628 544.070 370.626 C 544.070 370.627 543.815 379.788 543.815 379.789 C 543.814 379.789 534.659 380.195 534.658 380.195 C 534.660 380.196 552.758 388.587 552.760 388.587 Z"/>
<path fill="#00ff00" fill-rule="evenodd" stroke="none" d="M 450.658 194.981 C 450.656 194.980 431.903 188.176 431.901 188.175 C 431.902 188.176 438.111 194.917 438.111 194.917 C 438.111 194.918 431.834 201.596 431.834 201.597 C 431.836 201.596 450.656 194.981 450.658 194.981 Z"/>
<path fill="#00ffff" fill-rule="evenodd" stroke="none" d="M 404.276 65.664 C 404.276 65.666 397.616 84.471 397.615 84.473 C 397.615 84.472 396.354 75.394 396.354 75.393 C 396.353 75.393 387.209 75.997 387.208 75.997 C 387.209 75.996 404.275 65.665 404.276 65.664 Z"/>
<path fill="#00ffff" fill-rule="evenodd" stroke="none" d="M 312.828 66.288 C 312.828 66.290 320.727 84.608 320.728 84.610 C 320.728 84.609 321.381 75.468 321.381 75.467 C 321.382 75.467 330.546 75.460 330.547 75.460 C 330.545 75.459 312.829 66.289 312.828 66.288 Z"/>
<path fill="#be0027" fill-rule="evenodd" stroke="none" d="M 360.000 622.029 C 360.001 622.026 371.552 589.684 371.553 589.681 C 371.552 589.682 360.001 600.429 360.000 600.430 C 359.999 600.429 348.448 589.682 348.447 589.681 C 348.448 589.684 359.999 622.026 360.000 622.029 Z"/>
</g>
</g>
</svg>
