<?xml version="1.0" encoding="utf-8"?>
<!-- Generator: Moho 12.5 build 22414 -->
<!DOCTYPE svg PUBLIC "-//W3C//DTD SVG 1.1//EN" "http://www.w3.org/Graphics/SVG/1.1/DTD/svg11.dtd">
<svg version="1.1" id="Frame_0" xmlns="http://www.w3.org/2000/svg" xmlns:xlink="http://www.w3.org/1999/xlink" width="720px" height="720px">
<g id="woman_stand">
<g id="woman_stand">
<path fill="#ffffff" fill-rule="evenodd" stroke="#000000" stroke-width="4" stroke-linecap="round" stroke-linejoin="round" d="M 329.879 23.607 C 320.795 26.336 312.327 29.036 306.027 36.127 C 302.178 40.458 302.922 46.524 299.617 51.284 C 296.510 55.759 290.514 56.920 288.398 61.940 C 285.323 69.237 292.870 77.256 289.462 84.404 C 286.394 90.839 276.118 90.034 273.279 96.574 C 270.730 102.447 277.866 108.950 275.002 114.676 C 272.898 118.882 265.912 117.817 263.868 122.051 C 261.073 127.841 268.784 134.309 266.138 140.168 C 264.044 144.803 256.435 143.950 254.428 148.622 C 251.716 154.940 253.500 162.468 257.764 167.861 C 262.867 174.316 271.199 176.587 279.428 176.627 C 287.799 176.668 293.250 169.052 301.541 167.893 C 309.573 166.771 317.220 173.767 324.467 170.125 C 350.271 157.154 337.871 117.459 354.342 93.734 C 359.546 86.238 369.783 84.196 372.867 75.606 C 377.896 61.596 375.104 45.835 366.280 33.847 C 361.122 26.839 344.701 21.800 344.701 21.800 C 344.701 21.800 334.914 22.095 329.879 23.607 Z"/>
<path fill="#ffffff" fill-rule="evenodd" stroke="#000000" stroke-width="4" stroke-linecap="round" stroke-linejoin="round" d="M 280.773 662.206 C 280.743 659.105 273.490 669.770 273.191 666.684 C 272.428 658.790 280.887 655.196 285.862 649.597 C 293.553 640.942 307.669 632.404 309.968 627.234 C 315.265 615.318 302.858 578.162 305.348 551.597 C 306.883 535.224 316.857 515.054 316.169 506.162 C 313.379 470.076 302.929 438.501 294.392 402.028 C 290.934 387.255 286.997 373.582 287.776 357.884 C 289.293 327.287 310.211 304.772 311.452 274.162 C 312.130 257.452 303.509 227.340 303.508 227.335 C 303.506 227.340 289.368 255.869 282.994 271.936 C 278.457 283.375 277.192 293.992 271.746 305.027 C 261.341 326.106 243.503 349.057 233.670 359.865 C 230.662 363.171 224.198 369.170 218.406 373.431 C 207.676 381.324 189.124 393.504 185.767 392.560 C 181.172 391.268 202.634 374.526 202.636 374.524 C 202.634 374.525 179.898 393.575 177.621 390.162 C 176.181 388.005 198.756 370.776 198.758 370.774 C 198.756 370.776 175.202 391.032 173.241 388.986 C 169.446 385.023 193.579 365.459 193.581 365.457 C 193.579 365.459 170.754 386.223 169.144 382.697 C 167.778 379.706 186.604 362.017 188.271 359.907 C 190.692 356.841 212.735 351.849 218.149 346.332 C 229.563 334.699 231.830 305.134 241.712 281.271 C 245.044 273.223 253.911 267.379 256.451 261.403 C 262.327 247.580 261.780 224.937 263.521 204.620 C 264.997 187.389 266.143 171.559 275.428 156.969 C 280.461 149.061 287.261 143.980 295.456 139.429 C 305.231 134.000 317.532 132.362 323.504 122.492 C 326.610 117.359 326.315 111.535 325.581 105.581 C 325.126 101.889 321.670 99.343 322.007 95.639 C 322.515 90.046 330.116 87.776 330.561 82.178 C 330.875 78.220 326.478 75.646 326.453 71.675 C 326.428 67.594 330.588 64.918 330.563 60.836 C 330.538 56.866 325.249 54.117 326.456 50.334 C 327.982 45.548 336.358 47.439 338.684 42.987 C 340.831 38.875 334.661 33.127 337.927 29.834 C 343.994 23.718 354.942 29.719 361.877 34.828 C 368.207 39.492 369.102 47.363 372.868 54.264 C 374.562 57.368 376.447 59.786 377.565 63.140 C 380.401 71.642 384.892 80.448 380.746 88.394 C 377.231 95.131 365.301 92.074 361.871 98.854 C 357.078 108.325 360.626 120.147 367.126 128.539 C 378.393 143.084 402.176 135.044 415.895 147.305 C 437.475 166.592 439.363 195.127 451.195 221.542 C 455.177 230.430 460.233 244.696 462.032 246.993 C 467.688 254.216 507.758 280.224 534.677 294.830 C 541.124 298.328 547.400 299.616 553.606 303.525 C 560.683 307.981 579.625 315.768 571.819 318.769 C 570.315 319.347 564.933 314.923 560.845 313.777 C 558.474 313.113 554.914 310.585 553.914 312.836 C 552.876 315.170 559.519 325.643 564.948 330.631 C 568.754 334.128 580.316 332.960 577.904 337.531 C 577.239 338.790 569.790 337.854 565.901 336.128 C 561.280 334.076 555.358 326.399 555.202 326.550 C 555.051 326.697 559.772 334.690 563.671 337.712 C 566.950 340.254 575.470 338.336 574.495 342.369 C 574.128 343.889 567.535 343.899 564.091 342.648 C 558.196 340.507 551.458 330.082 551.276 330.279 C 551.119 330.449 555.683 339.481 559.702 343.082 C 562.589 345.669 570.857 344.657 569.419 348.257 C 568.458 350.663 559.667 347.295 555.285 344.610 C 550.170 341.476 544.289 331.540 544.124 331.737 C 544.018 331.864 546.457 338.614 548.793 341.707 C 550.678 344.203 554.965 344.501 555.448 347.591 C 556.333 353.256 544.182 342.912 539.609 337.093 C 532.075 327.508 523.436 310.093 521.050 307.861 C 515.266 302.448 456.728 280.746 445.540 271.194 C 437.973 264.733 412.150 225.285 412.146 225.280 C 412.146 225.283 410.901 245.553 412.782 256.322 C 417.313 282.273 435.303 300.396 438.648 326.527 C 442.019 352.869 435.894 375.444 431.210 401.585 C 424.394 439.622 405.638 470.187 402.792 507.590 C 401.708 521.838 406.970 534.571 406.098 549.265 C 404.785 571.364 397.955 589.183 393.023 610.765 C 389.774 624.982 381.070 645.506 383.232 651.008 C 385.603 657.041 406.265 665.549 421.455 675.523 C 422.939 676.497 423.723 679.264 422.421 680.472 C 420.149 682.582 413.990 673.255 414.677 676.279 C 414.751 676.605 419.741 679.694 420.724 682.617 C 421.032 683.530 421.415 684.761 420.654 685.352 C 418.041 687.381 413.774 678.416 413.138 679.714 C 412.431 681.159 417.695 683.300 418.981 686.048 C 419.370 686.878 420.057 687.895 419.476 688.605 C 416.964 691.674 410.396 680.743 409.773 682.883 C 409.378 684.243 416.431 686.189 417.261 689.643 C 417.631 691.187 418.223 693.440 416.054 693.989 C 413.229 694.705 410.617 693.685 407.879 692.684 C 404.962 691.618 403.139 689.450 400.335 688.112 C 395.772 685.935 391.214 685.809 386.777 683.386 C 382.787 681.207 380.686 677.421 376.583 675.462 C 369.867 672.256 359.813 677.431 355.901 671.100 C 351.947 664.701 360.240 655.888 361.358 650.445 C 362.924 642.817 365.081 631.340 365.623 620.813 C 367.081 592.503 358.072 568.647 360.905 540.441 C 361.974 529.800 366.797 521.521 367.899 510.883 C 368.588 504.238 367.305 498.584 367.626 491.910 C 368.983 463.673 376.566 440.518 377.884 412.279 C 378.441 400.336 376.180 379.578 377.115 378.331 C 381.933 371.912 395.765 355.283 395.767 355.280 C 395.765 355.283 378.312 377.556 377.137 377.197 C 375.371 376.658 347.815 347.483 347.812 347.480 C 347.815 347.483 366.045 365.226 375.980 379.944 C 376.722 381.044 376.480 403.013 375.612 415.504 C 373.704 442.962 366.047 465.435 364.864 492.934 C 364.573 499.680 366.197 505.389 365.464 512.102 C 364.305 522.737 360.541 531.165 357.596 541.450 C 350.713 565.487 343.063 585.137 336.697 609.315 C 334.449 617.851 331.913 624.967 331.142 633.760 C 330.619 639.734 334.934 645.667 331.799 650.779 C 327.924 657.098 318.362 654.588 312.433 659.037 C 306.344 663.605 303.619 674.503 294.413 678.820 C 287.979 681.836 284.142 690.738 277.178 689.321 C 275.654 689.011 273.766 688.266 273.959 686.296 C 274.655 679.157 289.587 672.513 289.099 672.663 C 281.095 675.126 273.892 689.317 272.560 680.133 C 271.986 676.177 288.380 668.539 284.893 665.989 C 284.222 665.499 271.717 680.719 271.773 672.915 C 271.815 667.145 280.810 666.066 280.773 662.206 Z"/>
<path fill="#000000" fill-rule="evenodd" stroke="none" d="M 339.472 58.108 C 339.473 58.107 343.932 49.639 348.400 48.162 C 352.292 46.875 359.841 50.306 359.842 50.306 C 359.842 50.307 355.575 56.122 352.875 57.377 C 349.223 59.075 339.473 58.108 339.472 58.108 Z"/>
<path fill="none" stroke="#000000" stroke-width="4" stroke-linecap="round" stroke-linejoin="round" d="M 376.910 295.609 C 377.139 293.948 378.396 293.182 378.812 293.275 C 379.658 293.467 381.149 293.420 381.137 295.092 C 381.118 297.890 379.580 299.597 378.868 299.576 C 378.242 299.556 376.573 298.048 376.910 295.609 M 405.462 208.805 C 405.563 207.922 406.551 205.458 408.895 205.536 C 411.251 205.615 412.112 208.156 412.115 209.049 C 412.119 210.080 411.035 213.277 408.329 213.029 C 405.814 212.799 405.354 209.756 405.462 208.805 M 310.365 215.162 C 310.431 212.718 311.287 210.708 314.387 210.560 C 317.239 210.424 318.498 213.333 318.539 214.353 C 318.581 215.415 317.482 218.444 314.516 218.600 C 311.783 218.745 310.338 216.141 310.365 215.162 M 407.428 178.180 C 409.847 186.594 423.656 200.014 421.417 209.966 C 419.705 217.576 415.019 227.028 402.013 228.096 C 380.359 229.874 367.306 213.493 367.463 200.508 M 349.213 207.973 C 349.533 220.445 337.572 234.076 319.183 234.173 C 306.928 234.238 300.827 226.054 297.912 218.266 C 293.845 207.397 303.095 200.124 307.335 182.413 "/>
</g>
<g id="specs">
<path fill="#ff00ff" fill-rule="evenodd" stroke="none" d="M 322.059 186.235 C 322.064 186.235 373.325 186.235 373.330 186.235 C 373.330 186.230 373.330 134.969 373.330 134.964 C 373.325 134.964 322.064 134.964 322.059 134.964 C 322.059 134.969 322.059 186.230 322.059 186.235 Z"/>
<path fill="#ff0000" fill-rule="evenodd" stroke="none" d="M 343.316 662.708 C 343.318 662.711 355.748 697.517 355.749 697.521 C 355.748 697.520 343.318 685.954 343.316 685.952 C 343.315 685.954 330.885 697.520 330.883 697.521 C 330.885 697.517 343.315 662.711 343.316 662.708 Z"/>
<path fill="#0000ff" fill-rule="evenodd" stroke="none" d="M 342.125 13.005 C 342.125 13.007 349.346 33.225 349.347 33.227 C 349.346 33.226 342.125 26.508 342.125 26.508 C 342.124 26.508 334.904 33.226 334.903 33.227 C 334.904 33.225 342.124 13.007 342.125 13.005 Z"/>
<path fill="#00ff00" fill-rule="evenodd" stroke="none" d="M 265.838 153.125 C 265.841 153.125 286.881 157.392 286.883 157.392 C 286.882 157.392 277.399 160.102 277.398 160.103 C 277.398 160.104 279.418 169.757 279.418 169.758 C 279.417 169.756 265.840 153.126 265.838 153.125 Z"/>
<path fill="#ffff00" fill-rule="evenodd" stroke="none" d="M 297.118 373.506 C 297.119 373.504 306.079 353.995 306.080 353.993 C 306.080 353.994 306.552 363.845 306.552 363.846 C 306.553 363.846 316.413 364.085 316.414 364.085 C 316.412 364.086 297.120 373.505 297.118 373.506 Z"/>
<path fill="#ffff00" fill-rule="evenodd" stroke="none" d="M 431.358 374.458 C 431.357 374.457 422.007 355.131 422.006 355.129 C 422.006 355.130 421.732 364.989 421.732 364.990 C 421.731 364.990 411.878 365.427 411.877 365.427 C 411.879 365.428 431.356 374.458 431.358 374.458 Z"/>
<path fill="#00ff00" fill-rule="evenodd" stroke="none" d="M 419.615 139.776 C 419.613 139.776 399.633 147.633 399.631 147.634 C 399.632 147.634 409.442 148.655 409.443 148.656 C 409.443 148.657 409.130 158.514 409.130 158.515 C 409.131 158.513 419.614 139.778 419.615 139.776 Z"/>
<path fill="#00ffff" fill-rule="evenodd" stroke="none" d="M 373.749 27.147 C 373.748 27.149 366.581 47.387 366.581 47.389 C 366.580 47.388 365.223 37.619 365.223 37.618 C 365.222 37.618 355.381 38.268 355.380 38.268 C 355.382 38.267 373.747 27.149 373.749 27.147 Z"/>
<path fill="#00ffff" fill-rule="evenodd" stroke="none" d="M 296.312 26.627 C 296.313 26.628 304.813 46.343 304.814 46.345 C 304.814 46.344 305.517 36.506 305.517 36.505 C 305.518 36.505 315.380 36.497 315.381 36.497 C 315.379 36.496 296.314 26.628 296.312 26.627 Z"/>
<path fill="#be0027" fill-rule="evenodd" stroke="none" d="M 288.981 390.484 C 288.984 390.482 318.153 367.785 318.156 367.783 C 318.154 367.783 301.458 370.871 301.457 370.871 C 301.456 370.869 297.175 354.439 297.175 354.437 C 297.174 354.441 288.982 390.481 288.981 390.484 Z"/>
</g>
</g>
</svg>
