<?xml version="1.0" encoding="utf-8"?>
<!-- Generator: Moho 12.5 build 22414 -->
<!DOCTYPE svg PUBLIC "-//W3C//DTD SVG 1.1//EN" "http://www.w3.org/Graphics/SVG/1.1/DTD/svg11.dtd">
<svg version="1.1" id="Frame_0" xmlns="http://www.w3.org/2000/svg" xmlns:xlink="http://www.w3.org/1999/xlink" width="720px" height="720px">
<g id="halves">
<g id="woman_top">
<g id="woman_top">
<path fill="#000000" fill-rule="evenodd" stroke="#ffffff" stroke-width="2" stroke-linecap="round" stroke-linejoin="round" d="M 360.387 400.453 C 381.103 400.445 388.625 406.742 410.626 398.134 C 424.126 392.853 427.779 386.321 440.964 380.296 C 449.475 376.407 455.686 379.336 462.426 372.844 C 472.144 363.482 467.824 354.279 473.248 341.923 C 477.740 331.691 486.310 332.391 485.963 317.959 C 485.461 297.088 476.089 300.513 473.248 287.038 C 469.963 271.457 477.713 263.425 472.475 248.387 C 467.762 234.856 457.784 233.485 451.603 220.558 C 444.109 204.881 451.183 194.052 441.554 179.588 C 435.074 169.853 427.476 172.234 419.191 162.098 C 410.494 151.459 413.228 144.737 405.927 135.412 C 394.959 121.405 381.029 114.573 360.387 114.495 C 339.453 114.416 325.231 121.242 314.073 135.419 C 306.750 144.723 309.504 151.461 300.809 162.098 C 292.523 172.233 284.926 169.853 278.446 179.588 C 268.817 194.052 275.891 204.881 268.397 220.558 C 262.217 233.485 252.238 234.856 247.525 248.387 C 242.287 263.425 250.037 271.457 246.752 287.038 C 243.911 300.513 234.539 297.088 234.037 317.959 C 233.691 332.391 242.260 331.691 246.752 341.923 C 252.176 354.279 247.855 363.483 257.574 372.844 C 264.314 379.336 270.525 376.407 279.036 380.296 C 292.221 386.321 295.823 392.985 309.373 398.135 C 330.965 406.341 339.352 400.462 360.387 400.453 Z"/>
<path fill="#ffffff" fill-rule="evenodd" stroke="#000000" stroke-width="2" stroke-linecap="round" stroke-linejoin="round" d="M 439.444 460.093 C 437.561 452.470 435.359 445.617 432.518 439.382 C 426.836 426.911 419.620 416.674 414.433 406.036 C 402.498 381.562 397.588 362.114 404.424 329.560 C 407.523 314.800 414.960 298.956 414.961 298.953 C 414.965 298.961 439.054 357.999 456.144 371.718 C 465.032 378.854 471.784 392.960 482.630 401.462 C 492.665 409.328 509.857 419.675 511.344 424.401 C 511.931 426.265 516.781 438.055 517.871 439.431 C 520.971 443.347 556.513 470.652 556.757 465.145 C 556.904 461.808 535.039 447.546 535.602 446.424 C 536.247 445.140 560.447 467.394 562.595 464.231 C 564.589 461.296 540.563 444.018 541.056 443.347 C 541.573 442.643 563.653 463.880 566.612 461.631 C 570.277 458.846 544.830 440.760 545.462 440.105 C 546.075 439.471 569.341 461.248 568.696 457.851 C 567.419 451.129 541.877 426.770 544.040 428.095 C 552.740 433.427 567.241 441.878 562.643 436.889 C 552.390 425.765 546.891 417.291 526.685 414.789 C 518.370 413.760 506.173 385.720 479.898 364.070 C 475.622 360.546 471.365 359.505 460.174 324.298 C 452.593 300.451 442.663 284.607 437.070 263.059 C 430.581 238.056 375.271 232.739 373.824 216.959 C 373.149 209.590 371.543 195.645 374.723 193.356 C 376.018 192.424 388.078 180.406 388.395 162.015 C 388.562 152.325 382.651 131.116 359.928 131.609 C 337.495 132.096 330.684 153.463 330.714 164.576 C 330.750 177.922 343.520 192.510 344.752 193.356 C 347.981 195.576 346.326 209.590 345.650 216.959 C 344.204 232.739 288.894 238.056 282.405 263.059 C 276.812 284.607 266.881 300.451 259.301 324.298 C 248.110 359.505 243.853 360.546 239.577 364.070 C 213.302 385.720 201.105 413.760 192.790 414.789 C 172.584 417.291 167.085 425.765 156.831 436.889 C 152.234 441.878 166.735 433.427 175.435 428.095 C 177.597 426.770 152.055 451.129 150.779 457.851 C 150.134 461.248 173.400 439.471 174.012 440.105 C 174.645 440.760 149.198 458.846 152.863 461.631 C 155.822 463.880 177.902 442.643 178.419 443.347 C 178.912 444.018 154.886 461.296 156.879 464.231 C 159.028 467.394 183.228 445.140 183.873 446.424 C 184.436 447.546 162.570 461.808 162.718 465.145 C 162.962 470.652 198.504 443.347 201.604 439.431 C 202.694 438.055 207.544 426.265 208.131 424.401 C 209.618 419.675 226.809 409.328 236.844 401.462 C 247.691 392.960 254.443 378.854 263.331 371.718 C 280.420 357.999 304.510 298.961 304.514 298.953 C 304.515 298.956 311.951 314.800 315.051 329.560 C 321.886 362.114 316.977 381.562 305.042 406.036 C 299.854 416.674 292.576 426.914 286.862 439.387 C 284.006 445.623 281.456 452.400 279.924 460.099 C 279.264 462.646 279.024 464.140 278.091 468.379 C 278.107 468.379 441.468 468.654 441.484 468.654 C 441.484 468.653 439.950 462.822 439.444 460.093 Z"/>
<path fill="#ffffff" fill-rule="evenodd" stroke="#000000" stroke-width="2" stroke-linecap="round" stroke-linejoin="round" d="M 326.647 284.810 C 340.314 284.810 351.339 295.834 351.339 309.501 C 351.339 323.167 340.314 334.192 326.647 334.192 C 312.981 334.191 301.956 323.167 301.957 309.501 C 301.957 295.834 312.981 284.810 326.647 284.810 Z"/>
<path fill="#ffffff" fill-rule="evenodd" stroke="#000000" stroke-width="2" stroke-linecap="round" stroke-linejoin="round" d="M 393.753 284.810 C 380.087 284.810 369.062 295.835 369.062 309.501 C 369.062 323.167 380.087 334.192 393.753 334.192 C 407.420 334.192 418.445 323.167 418.445 309.501 C 418.444 295.834 407.419 284.810 393.753 284.810 Z"/>
<path fill="#ffffff" fill-rule="evenodd" stroke="none" d="M 314.931 270.158 C 314.939 270.158 404.025 270.158 404.034 270.158 C 404.034 270.162 404.034 309.482 404.034 309.486 C 404.025 309.486 314.939 309.486 314.931 309.486 C 314.931 309.482 314.931 270.162 314.931 270.158 Z"/>
<path fill="none" stroke="#000000" stroke-width="2" stroke-linecap="round" stroke-linejoin="round" d="M 358.802 417.988 C 358.802 415.483 359.585 414.482 360.150 414.482 C 360.716 414.482 361.499 415.483 361.499 417.988 C 361.499 420.493 360.716 421.494 360.150 421.494 C 359.585 421.494 358.802 420.493 358.802 417.988 "/>
</g>
<g id="specs_3">
<path fill="#ff00ff" fill-rule="evenodd" stroke="none" d="M 259.613 246.387 C 259.633 246.387 460.367 246.387 460.387 246.387 C 460.387 246.367 460.387 45.633 460.387 45.613 C 460.367 45.613 259.633 45.613 259.613 45.613 C 259.613 45.633 259.613 246.367 259.613 246.387 Z"/>
<path fill="#ff0000" fill-rule="evenodd" stroke="none" d="M 360.000 445.055 C 360.001 445.059 372.416 479.821 372.417 479.825 C 372.416 479.824 360.001 468.272 360.000 468.271 C 359.999 468.272 347.584 479.824 347.583 479.825 C 347.584 479.821 359.999 445.059 360.000 445.055 Z"/>
<path fill="#0000ff" fill-rule="evenodd" stroke="none" d="M 360.000 102.034 C 360.001 102.036 367.212 122.229 367.213 122.231 C 367.212 122.230 360.001 115.520 360.000 115.520 C 359.999 115.520 352.788 122.230 352.787 122.231 C 352.788 122.229 359.999 102.036 360.000 102.034 Z"/>
<path fill="#00ff00" fill-rule="evenodd" stroke="none" d="M 261.989 258.625 C 261.991 258.624 282.147 251.310 282.149 251.309 C 282.149 251.310 275.475 258.556 275.475 258.557 C 275.475 258.557 282.221 265.735 282.222 265.736 C 282.220 265.735 261.991 258.625 261.989 258.625 Z"/>
<path fill="#ffff00" fill-rule="evenodd" stroke="none" d="M 153.329 466.962 C 153.330 466.960 162.279 447.475 162.280 447.473 C 162.280 447.474 162.751 457.313 162.751 457.314 C 162.752 457.314 172.600 457.553 172.601 457.553 C 172.599 457.554 153.331 466.961 153.329 466.962 Z"/>
<path fill="#ffff00" fill-rule="evenodd" stroke="none" d="M 567.189 466.723 C 567.188 466.721 557.849 447.420 557.849 447.418 C 557.848 447.419 557.575 457.266 557.575 457.267 C 557.573 457.267 547.733 457.703 547.732 457.703 C 547.734 457.704 567.187 466.722 567.189 466.723 Z"/>
<path fill="#00ff00" fill-rule="evenodd" stroke="none" d="M 457.444 258.625 C 457.442 258.624 437.285 251.310 437.283 251.309 C 437.284 251.310 443.957 258.556 443.958 258.557 C 443.957 258.557 437.211 265.735 437.211 265.736 C 437.213 265.735 457.442 258.625 457.444 258.625 Z"/>
<path fill="#00ffff" fill-rule="evenodd" stroke="none" d="M 407.591 119.629 C 407.590 119.631 400.432 139.843 400.431 139.845 C 400.431 139.844 399.075 130.087 399.075 130.086 C 399.074 130.086 389.245 130.735 389.244 130.735 C 389.246 130.734 407.589 119.630 407.591 119.629 Z"/>
<path fill="#00ffff" fill-rule="evenodd" stroke="none" d="M 309.297 120.299 C 309.297 120.301 317.787 139.990 317.788 139.992 C 317.788 139.991 318.490 130.166 318.490 130.165 C 318.491 130.165 328.341 130.157 328.342 130.157 C 328.340 130.156 309.298 120.300 309.297 120.299 Z"/>
<path fill="#be0027" fill-rule="evenodd" stroke="none" d="M 360.000 491.486 C 360.001 491.482 372.416 456.720 372.417 456.716 C 372.416 456.717 360.001 468.269 360.000 468.270 C 359.999 468.269 347.584 456.717 347.583 456.716 C 347.584 456.720 359.999 491.482 360.000 491.486 Z"/>
<path fill="none" stroke="#ffff00" stroke-width="2" stroke-linecap="round" stroke-linejoin="round" d="M 278.193 468.379 C 332.532 468.378 441.193 468.375 441.210 468.375 "/>
</g>
</g>
</g>
<g id="combos">
</g>
</svg>
