<?xml version="1.0" encoding="utf-8"?>
<!-- Generator: Moho 12.5 build 22414 -->
<!DOCTYPE svg PUBLIC "-//W3C//DTD SVG 1.1//EN" "http://www.w3.org/Graphics/SVG/1.1/DTD/svg11.dtd">
<svg version="1.1" id="Frame_0" xmlns="http://www.w3.org/2000/svg" xmlns:xlink="http://www.w3.org/1999/xlink" width="720px" height="720px">
<g id="halves">
<g id="woman_top">
<g id="woman_top_2">
<path fill="#ffffff" fill-rule="evenodd" stroke="#000000" stroke-width="2" stroke-linecap="round" stroke-linejoin="round" d="M 439.444 495.970 C 437.561 488.347 435.359 481.494 432.518 475.259 C 426.836 462.788 419.620 452.551 414.433 441.913 C 402.498 417.439 397.588 397.991 404.424 365.438 C 407.523 350.677 414.960 334.833 414.961 334.830 C 414.965 334.838 439.054 393.876 456.144 407.595 C 465.032 414.731 471.784 428.837 482.630 437.339 C 492.665 445.205 509.857 455.552 511.344 460.278 C 511.931 462.142 516.781 473.932 517.871 475.308 C 520.971 479.224 556.513 506.529 556.757 501.022 C 556.904 497.685 535.039 483.423 535.602 482.301 C 536.247 481.017 560.447 503.271 562.595 500.108 C 564.589 497.173 540.563 479.895 541.056 479.224 C 541.573 478.520 563.653 499.757 566.612 497.508 C 570.277 494.723 544.830 476.637 545.462 475.982 C 546.075 475.348 569.341 497.125 568.696 493.728 C 567.419 487.006 541.877 462.647 544.040 463.972 C 552.740 469.304 567.241 477.755 562.643 472.766 C 552.390 461.642 546.891 453.168 526.685 450.666 C 518.370 449.637 506.173 421.597 479.898 399.947 C 475.622 396.423 471.365 395.382 460.174 360.175 C 452.593 336.328 442.593 320.502 437.070 298.936 C 427.002 259.618 291.757 262.481 282.405 298.936 C 276.872 320.500 266.881 336.328 259.301 360.175 C 248.110 395.382 243.853 396.423 239.577 399.947 C 213.302 421.597 201.105 449.637 192.790 450.666 C 172.584 453.168 167.085 461.642 156.831 472.766 C 152.234 477.755 166.735 469.304 175.435 463.972 C 177.597 462.647 152.055 487.006 150.779 493.728 C 150.134 497.125 173.400 475.348 174.012 475.982 C 174.645 476.637 149.198 494.723 152.863 497.508 C 155.822 499.757 177.902 478.520 178.419 479.224 C 178.912 479.895 154.886 497.173 156.879 500.108 C 159.028 503.271 183.228 481.017 183.873 482.301 C 184.436 483.423 162.570 497.685 162.718 501.022 C 162.962 506.529 198.504 479.224 201.604 475.308 C 202.694 473.932 207.544 462.142 208.131 460.278 C 209.618 455.552 226.809 445.205 236.844 437.339 C 247.691 428.837 254.443 414.731 263.331 407.595 C 280.420 393.876 304.510 334.838 304.514 334.830 C 304.515 334.833 311.951 350.677 315.051 365.438 C 321.886 397.991 316.977 417.439 305.042 441.913 C 299.854 452.552 292.576 462.791 286.862 475.264 C 284.006 481.500 281.456 488.277 279.924 495.976 C 279.264 498.523 279.024 500.017 278.091 504.256 C 278.107 504.256 441.468 504.531 441.484 504.531 C 441.484 504.530 439.950 498.699 439.444 495.970 Z"/>
<path fill="#ffffff" fill-rule="evenodd" stroke="#000000" stroke-width="2" stroke-linecap="round" stroke-linejoin="round" d="M 326.647 320.687 C 340.314 320.687 351.339 331.711 351.339 345.378 C 351.339 359.044 340.314 370.069 326.647 370.069 C 312.981 370.068 301.956 359.044 301.957 345.378 C 301.957 331.711 312.981 320.687 326.647 320.687 Z"/>
<path fill="#ffffff" fill-rule="evenodd" stroke="#000000" stroke-width="2" stroke-linecap="round" stroke-linejoin="round" d="M 393.753 320.687 C 380.087 320.687 369.062 331.711 369.062 345.378 C 369.062 359.044 380.087 370.069 393.753 370.069 C 407.420 370.069 418.445 359.044 418.445 345.378 C 418.444 331.711 407.419 320.687 393.753 320.687 Z"/>
<path fill="#ffffff" fill-rule="evenodd" stroke="none" d="M 314.931 306.035 C 314.939 306.035 404.025 306.035 404.034 306.035 C 404.034 306.039 404.034 345.359 404.034 345.363 C 404.025 345.363 314.939 345.363 314.931 345.363 C 314.931 345.359 314.931 306.039 314.931 306.035 Z"/>
<path fill="none" stroke="#000000" stroke-width="2" stroke-linecap="round" stroke-linejoin="round" d="M 358.802 453.865 C 358.802 451.360 359.585 450.359 360.150 450.359 C 360.716 450.359 361.499 451.360 361.499 453.865 C 361.499 456.370 360.716 457.371 360.150 457.371 C 359.585 457.371 358.802 456.370 358.802 453.865 "/>
</g>
<g id="specs_3">
<path fill="#ff00ff" fill-rule="evenodd" stroke="none" d="M 226.530 310.543 C 226.556 310.543 493.444 310.543 493.470 310.543 C 493.470 310.516 493.470 43.628 493.470 43.602 C 493.444 43.602 226.556 43.602 226.530 43.602 C 226.530 43.628 226.530 310.516 226.530 310.543 Z"/>
<path fill="#ff0000" fill-rule="evenodd" stroke="none" d="M 360.000 480.932 C 360.001 480.936 372.416 515.698 372.417 515.702 C 372.416 515.701 360.001 504.149 360.000 504.148 C 359.999 504.149 347.584 515.701 347.583 515.702 C 347.584 515.698 359.999 480.936 360.000 480.932 Z"/>
<path fill="#0000ff" fill-rule="evenodd" stroke="none" d="M 360.000 137.911 C 360.001 137.913 367.212 158.106 367.213 158.108 C 367.212 158.107 360.001 151.397 360.000 151.397 C 359.999 151.397 352.788 158.107 352.787 158.108 C 352.788 158.106 359.999 137.913 360.000 137.911 Z"/>
<path fill="#00ff00" fill-rule="evenodd" stroke="none" d="M 261.989 294.502 C 261.991 294.501 282.147 287.187 282.149 287.186 C 282.149 287.187 275.475 294.433 275.475 294.434 C 275.475 294.434 282.221 301.612 282.222 301.613 C 282.220 301.612 261.991 294.502 261.989 294.502 Z"/>
<path fill="#ffff00" fill-rule="evenodd" stroke="none" d="M 153.329 502.839 C 153.330 502.837 162.279 483.352 162.280 483.350 C 162.280 483.351 162.751 493.190 162.751 493.191 C 162.752 493.191 172.600 493.430 172.601 493.430 C 172.599 493.431 153.331 502.838 153.329 502.839 Z"/>
<path fill="#ffff00" fill-rule="evenodd" stroke="none" d="M 567.189 502.600 C 567.188 502.598 557.849 483.297 557.849 483.295 C 557.848 483.296 557.575 493.143 557.575 493.144 C 557.573 493.144 547.733 493.580 547.732 493.580 C 547.734 493.581 567.187 502.599 567.189 502.600 Z"/>
<path fill="#00ff00" fill-rule="evenodd" stroke="none" d="M 457.444 294.502 C 457.442 294.501 437.285 287.187 437.283 287.186 C 437.284 287.187 443.957 294.433 443.958 294.434 C 443.957 294.434 437.211 301.612 437.211 301.613 C 437.213 301.612 457.442 294.502 457.444 294.502 Z"/>
<path fill="#00ffff" fill-rule="evenodd" stroke="none" d="M 407.591 155.506 C 407.590 155.508 400.432 175.720 400.431 175.722 C 400.431 175.721 399.075 165.964 399.075 165.963 C 399.074 165.963 389.245 166.612 389.244 166.612 C 389.246 166.611 407.589 155.507 407.591 155.506 Z"/>
<path fill="#00ffff" fill-rule="evenodd" stroke="none" d="M 309.297 156.176 C 309.297 156.178 317.787 175.867 317.788 175.869 C 317.788 175.868 318.490 166.043 318.490 166.042 C 318.491 166.042 328.341 166.034 328.342 166.034 C 328.340 166.033 309.298 156.177 309.297 156.176 Z"/>
<path fill="#be0027" fill-rule="evenodd" stroke="none" d="M 360.000 527.363 C 360.001 527.359 372.416 492.597 372.417 492.593 C 372.416 492.594 360.001 504.146 360.000 504.147 C 359.999 504.146 347.584 492.594 347.583 492.593 C 347.584 492.597 359.999 527.359 360.000 527.363 Z"/>
<path fill="none" stroke="#ffff00" stroke-width="2" stroke-linecap="round" stroke-linejoin="round" d="M 278.193 504.256 C 332.532 504.255 441.193 504.252 441.210 504.252 "/>
</g>
</g>
</g>
</svg>
