<?xml version="1.0" encoding="utf-8"?>
<!-- Generator: Moho 12.5 build 22414 -->
<!DOCTYPE svg PUBLIC "-//W3C//DTD SVG 1.1//EN" "http://www.w3.org/Graphics/SVG/1.1/DTD/svg11.dtd">
<svg version="1.1" id="Frame_0" xmlns="http://www.w3.org/2000/svg" xmlns:xlink="http://www.w3.org/1999/xlink" width="720px" height="720px">
<g id="woman">
<g id="woman_2">
<path fill="#ffffff" fill-rule="evenodd" stroke="#000000" stroke-width="2" stroke-linecap="round" stroke-linejoin="round" d="M 341.491 147.852 C 341.372 148.875 292.333 161.472 286.053 182.029 C 279.854 202.320 271.259 217.663 264.035 240.389 C 253.370 273.941 249.314 274.934 245.239 278.291 C 220.199 298.924 208.576 325.645 200.651 326.626 C 181.395 329.010 176.154 337.086 166.383 347.688 C 162.002 352.442 175.821 344.388 184.112 339.307 C 186.173 338.044 161.832 361.257 160.615 367.664 C 160.001 370.901 182.173 350.147 182.757 350.752 C 183.359 351.376 159.108 368.611 162.602 371.266 C 165.421 373.409 186.463 353.171 186.956 353.841 C 187.426 354.481 164.529 370.947 166.429 373.743 C 168.477 376.758 191.539 355.550 192.153 356.774 C 192.690 357.843 171.852 371.434 171.993 374.614 C 172.226 379.863 206.096 353.842 209.051 350.110 C 210.089 348.798 214.712 337.563 215.271 335.786 C 216.688 331.283 233.071 321.421 242.634 313.926 C 252.971 305.823 259.405 292.380 267.875 285.580 C 284.162 272.506 307.119 216.243 307.123 216.236 C 307.124 216.239 314.210 231.338 317.164 245.405 C 323.678 276.427 319.000 294.961 307.626 318.285 C 297.738 338.561 279.879 357.318 281.929 394.616 C 285.244 454.944 302.843 476.405 312.524 525.731 C 317.473 550.952 307.766 561.799 312.373 586.072 C 318.869 620.294 322.528 645.212 322.012 653.463 C 321.852 656.029 320.646 666.996 317.233 674.094 C 314.673 679.419 314.722 682.067 313.140 683.479 C 306.764 689.169 299.906 697.828 307.896 697.626 C 314.133 697.469 312.211 689.676 315.202 688.972 C 316.438 688.681 307.644 698.174 316.817 697.798 C 320.384 697.651 320.860 689.460 322.710 689.177 C 323.833 689.006 314.737 696.576 322.573 698.634 C 326.396 699.638 327.085 689.431 330.238 689.006 C 331.354 688.856 320.249 695.569 328.310 698.180 C 332.923 699.674 334.921 689.840 337.295 688.073 C 342.412 684.263 325.414 698.451 341.713 698.973 C 354.978 699.397 348.065 686.580 344.817 680.128 C 342.563 675.653 349.465 674.416 343.636 659.759 C 336.743 642.424 355.480 607.168 353.850 573.301 C 353.270 561.227 346.979 531.953 346.796 526.169 C 346.366 512.563 354.762 507.506 358.660 414.695 C 358.741 412.759 354.167 413.409 343.541 391.983 C 341.912 388.697 349.770 404.447 359.537 412.428 C 369.766 404.628 377.758 388.745 375.958 391.983 C 364.335 412.885 360.755 413.103 360.840 414.695 C 365.793 507.518 374.265 512.574 373.402 526.169 C 373.055 531.628 364.789 558.819 363.959 570.214 C 361.449 604.663 380.762 639.610 376.180 658.054 C 373.822 667.545 378.323 670.355 373.968 675.615 C 369.307 681.245 368.114 693.008 370.879 693.772 C 376.386 695.295 388.061 692.314 390.130 692.545 C 391.272 692.673 397.182 694.923 400.398 695.355 C 408.095 696.389 402.404 700.918 418.251 699.721 C 422.763 699.380 416.226 691.961 410.391 690.396 C 407.826 689.709 415.658 693.143 415.658 693.144 C 415.659 693.144 419.341 697.279 420.239 697.487 C 427.586 699.195 419.090 690.703 419.090 690.702 C 419.090 690.703 423.290 695.670 425.190 695.682 C 431.026 695.720 423.740 690.450 423.740 690.450 C 423.740 690.450 428.863 694.628 431.811 694.389 C 435.446 694.096 429.408 689.759 429.408 689.759 C 429.409 689.759 432.931 692.825 436.301 692.019 C 438.509 691.491 432.403 687.512 428.827 687.566 C 424.409 687.634 409.109 677.113 405.243 672.950 C 403.112 670.654 401.021 667.764 397.766 659.605 C 394.927 652.486 397.850 626.326 402.350 586.771 C 405.224 561.506 402.598 550.681 409.070 525.033 C 421.264 476.708 434.669 454.452 437.571 394.616 C 439.380 357.306 421.761 338.561 411.874 318.285 C 400.500 294.961 395.821 276.427 402.335 245.405 C 405.289 231.338 412.376 216.239 412.377 216.236 C 412.381 216.243 435.338 272.506 451.624 285.580 C 460.094 292.380 466.528 305.823 476.865 313.926 C 486.428 321.421 502.811 331.283 504.229 335.786 C 504.788 337.563 509.410 348.798 510.449 350.110 C 513.403 353.842 547.274 379.863 547.506 374.614 C 547.647 371.434 526.809 357.843 527.346 356.774 C 527.961 355.550 551.023 376.758 553.071 373.743 C 554.970 370.947 532.074 354.481 532.544 353.841 C 533.036 353.171 554.078 373.409 556.898 371.266 C 560.391 368.611 536.141 351.376 536.743 350.752 C 537.327 350.147 559.499 370.901 558.884 367.664 C 557.668 361.257 533.327 338.044 535.387 339.307 C 543.679 344.388 557.498 352.442 553.116 347.688 C 543.345 337.086 538.105 329.010 518.849 326.626 C 510.924 325.645 499.301 298.924 474.261 278.291 C 470.186 274.934 466.130 273.941 455.464 240.389 C 448.240 217.663 439.645 202.320 433.447 182.029 C 427.167 161.472 378.127 148.875 378.008 147.852 C 377.922 147.108 341.577 147.108 341.491 147.852 Z"/>
<path fill="#ffffff" fill-rule="evenodd" stroke="#000000" stroke-width="2" stroke-linecap="round" stroke-linejoin="round" d="M 328.215 202.758 C 341.239 202.758 351.746 213.264 351.746 226.288 C 351.746 239.312 341.239 249.818 328.215 249.818 C 315.192 249.818 304.685 239.312 304.685 226.288 C 304.685 213.264 315.192 202.758 328.215 202.758 Z"/>
<path fill="#ffffff" fill-rule="evenodd" stroke="#000000" stroke-width="2" stroke-linecap="round" stroke-linejoin="round" d="M 392.166 202.758 C 379.143 202.758 368.636 213.264 368.636 226.288 C 368.636 239.312 379.142 249.818 392.166 249.818 C 405.190 249.818 415.697 239.312 415.697 226.288 C 415.697 213.264 405.190 202.758 392.166 202.758 Z"/>
<path fill="#ffffff" fill-rule="evenodd" stroke="none" d="M 317.049 188.794 C 317.058 188.794 401.955 188.794 401.964 188.794 C 401.964 188.798 401.964 226.270 401.964 226.274 C 401.955 226.274 317.058 226.274 317.049 226.274 C 317.049 226.270 317.049 188.798 317.049 188.794 Z"/>
<path fill="none" stroke="#000000" stroke-width="2" stroke-linecap="round" stroke-linejoin="round" d="M 358.858 329.675 C 358.858 327.288 359.604 326.333 360.143 326.333 C 360.682 326.333 361.428 327.288 361.428 329.675 C 361.428 332.062 360.682 333.016 360.143 333.016 C 359.604 333.016 358.858 332.062 358.858 329.675 "/>
</g>
<g id="specs_2">
<path fill="#ff00ff" fill-rule="evenodd" stroke="none" d="M 280.841 167.026 C 280.857 167.026 439.143 167.026 439.159 167.026 C 439.159 167.010 439.159 8.725 439.159 8.709 C 439.143 8.709 280.857 8.709 280.841 8.709 C 280.841 8.725 280.841 167.010 280.841 167.026 Z"/>
<path fill="#ff0000" fill-rule="evenodd" stroke="none" d="M 360.000 678.532 C 360.001 678.535 371.832 711.664 371.834 711.667 C 371.832 711.666 360.001 700.657 360.000 700.656 C 359.999 700.657 348.168 711.666 348.166 711.667 C 348.168 711.664 359.999 678.535 360.000 678.532 Z"/>
<path fill="#0000ff" fill-rule="evenodd" stroke="none" d="M 360.000 28.575 C 360.001 28.577 366.873 47.820 366.874 47.822 C 366.873 47.822 360.001 41.427 360.000 41.427 C 359.999 41.427 353.127 47.822 353.126 47.822 C 353.127 47.820 359.999 28.577 360.000 28.575 Z"/>
<path fill="#00ff00" fill-rule="evenodd" stroke="none" d="M 266.597 177.804 C 266.599 177.803 285.807 170.833 285.809 170.832 C 285.809 170.833 279.449 177.738 279.448 177.739 C 279.449 177.740 285.878 184.580 285.879 184.580 C 285.877 184.580 266.599 177.804 266.597 177.804 Z"/>
<path fill="#ffff00" fill-rule="evenodd" stroke="none" d="M 163.045 376.346 C 163.046 376.344 171.575 357.775 171.576 357.774 C 171.576 357.775 172.025 367.151 172.025 367.152 C 172.026 367.152 181.410 367.380 181.411 367.380 C 181.409 367.381 163.047 376.345 163.045 376.346 Z"/>
<path fill="#ffff00" fill-rule="evenodd" stroke="none" d="M 557.448 376.119 C 557.447 376.117 548.548 357.723 548.547 357.721 C 548.547 357.722 548.286 367.106 548.286 367.107 C 548.285 367.107 538.907 367.522 538.906 367.522 C 538.908 367.523 557.446 376.118 557.448 376.119 Z"/>
<path fill="#00ff00" fill-rule="evenodd" stroke="none" d="M 452.862 177.804 C 452.861 177.803 433.652 170.833 433.650 170.832 C 433.651 170.833 440.010 177.738 440.011 177.739 C 440.010 177.740 433.581 184.580 433.581 184.580 C 433.583 184.580 452.861 177.804 452.862 177.804 Z"/>
<path fill="#00ffff" fill-rule="evenodd" stroke="none" d="M 405.353 45.343 C 405.352 45.344 398.531 64.606 398.530 64.608 C 398.530 64.607 397.238 55.309 397.238 55.308 C 397.237 55.308 387.870 55.927 387.869 55.927 C 387.871 55.926 405.351 45.344 405.353 45.343 Z"/>
<path fill="#00ffff" fill-rule="evenodd" stroke="none" d="M 311.680 45.981 C 311.681 45.983 319.772 64.747 319.773 64.749 C 319.773 64.748 320.442 55.384 320.442 55.383 C 320.443 55.383 329.830 55.376 329.831 55.376 C 329.829 55.375 311.682 45.982 311.680 45.981 Z"/>
<path fill="#be0027" fill-rule="evenodd" stroke="none" d="M 360.000 615.238 C 360.001 615.234 371.832 582.106 371.834 582.103 C 371.832 582.104 360.001 593.112 360.000 593.113 C 359.999 593.112 348.168 582.104 348.166 582.103 C 348.168 582.106 359.999 615.234 360.000 615.238 Z"/>
</g>
</g>
</svg>
