<?xml version="1.0" encoding="utf-8"?>
<!-- Generator: Moho 12.5 build 22414 -->
<!DOCTYPE svg PUBLIC "-//W3C//DTD SVG 1.1//EN" "http://www.w3.org/Graphics/SVG/1.1/DTD/svg11.dtd">
<svg version="1.1" id="Frame_0" xmlns="http://www.w3.org/2000/svg" xmlns:xlink="http://www.w3.org/1999/xlink" width="720px" height="720px">
<g id="halves">
<g id="woman_bottom">
<g id="woman_bottom">
<path fill="#ffffff" fill-rule="evenodd" stroke="#000000" stroke-width="2" stroke-linecap="round" stroke-linejoin="round" d="M 441.210 369.223 C 441.210 369.224 441.720 380.689 441.397 386.981 C 438.177 449.759 424.287 473.122 411.491 523.831 C 404.700 550.744 407.455 562.103 404.439 588.614 C 399.717 630.121 396.650 657.572 399.630 665.042 C 403.044 673.603 405.239 676.637 407.475 679.045 C 411.532 683.414 427.586 694.454 432.223 694.383 C 435.975 694.325 442.383 698.501 440.065 699.055 C 436.529 699.901 432.833 696.684 432.832 696.684 C 432.832 696.684 439.168 701.234 435.353 701.542 C 432.260 701.792 426.885 697.409 426.884 697.409 C 426.884 697.409 434.531 702.939 428.406 702.899 C 426.412 702.886 422.005 697.674 422.005 697.674 C 422.005 697.674 430.920 706.585 423.211 704.793 C 422.268 704.574 418.404 700.236 418.404 700.235 C 418.403 700.235 410.186 696.631 412.876 697.352 C 419.000 698.994 425.860 706.779 421.124 707.137 C 404.496 708.393 410.468 703.641 402.391 702.555 C 399.017 702.102 392.815 699.741 391.617 699.607 C 389.445 699.365 377.194 702.493 371.416 700.895 C 368.514 700.092 369.766 687.750 374.657 681.842 C 379.227 676.322 374.504 673.374 376.978 663.414 C 381.786 644.061 361.520 607.389 364.154 571.242 C 365.026 559.284 373.767 530.755 374.063 525.023 C 374.687 512.944 366.349 508.649 360.881 426.295 C 360.770 424.626 364.549 424.397 376.745 402.463 C 378.635 399.065 370.248 415.732 359.514 423.917 C 349.265 415.542 341.020 399.015 342.729 402.463 C 353.880 424.947 358.705 424.265 358.594 426.295 C 354.106 508.630 345.894 512.942 346.144 525.023 C 346.270 531.094 352.938 561.811 353.547 574.480 C 355.257 610.018 335.595 647.013 342.829 665.203 C 348.945 680.583 341.703 681.882 344.068 686.577 C 347.477 693.347 354.730 706.797 340.811 706.352 C 323.708 705.805 341.544 690.916 336.175 694.914 C 333.684 696.769 331.587 707.088 326.746 705.520 C 318.288 702.781 329.941 695.736 328.770 695.894 C 325.461 696.340 324.738 707.050 320.727 705.996 C 312.504 703.837 322.048 695.894 320.871 696.073 C 318.929 696.370 318.430 704.965 314.687 705.119 C 305.061 705.514 314.289 695.552 312.992 695.858 C 309.854 696.596 311.870 704.774 305.325 704.939 C 296.941 705.150 304.138 696.064 310.828 690.093 C 312.489 688.612 312.437 685.834 315.124 680.246 C 318.705 672.797 319.970 661.290 320.138 658.597 C 320.679 649.939 316.840 623.792 310.024 587.882 C 305.189 562.411 315.375 551.028 310.181 524.563 C 300.024 472.804 281.693 450.277 278.077 386.981 C 277.718 380.690 278.193 369.226 278.193 369.226 C 332.532 369.225 441.193 369.223 441.210 369.223 Z"/>
</g>
<g id="specs_2">
<path fill="#ff0000" fill-rule="evenodd" stroke="none" d="M 360.000 392.766 C 359.999 392.763 347.584 358.000 347.583 357.997 C 347.584 357.998 359.999 369.550 360.000 369.551 C 360.001 369.550 372.416 357.998 372.417 357.997 C 372.416 358.000 360.001 392.763 360.000 392.766 Z"/>
<path fill="#0000ff" fill-rule="evenodd" stroke="none" d="M 360.000 355.932 C 360.001 355.934 367.212 376.127 367.213 376.129 C 367.212 376.128 360.001 369.418 360.000 369.418 C 359.999 369.418 352.788 376.128 352.787 376.129 C 352.788 376.127 359.999 355.934 360.000 355.932 Z"/>
<path fill="#00ff00" fill-rule="evenodd" stroke="none" d="M 266.165 414.393 C 266.167 414.393 286.323 407.079 286.325 407.078 C 286.324 407.079 279.651 414.325 279.650 414.325 C 279.651 414.326 286.397 421.504 286.398 421.505 C 286.396 421.504 266.167 414.394 266.165 414.393 Z"/>
<path fill="#ffff00" fill-rule="evenodd" stroke="none" d="M 312.095 710.854 C 312.096 710.852 321.046 691.367 321.047 691.365 C 321.047 691.366 321.518 701.205 321.518 701.206 C 321.519 701.206 331.366 701.445 331.367 701.445 C 331.365 701.446 312.097 710.853 312.095 710.854 Z"/>
<path fill="#ffff00" fill-rule="evenodd" stroke="none" d="M 427.609 710.615 C 427.608 710.613 418.269 691.311 418.269 691.309 C 418.268 691.310 417.995 701.157 417.995 701.158 C 417.994 701.158 408.153 701.595 408.152 701.595 C 408.154 701.596 427.607 710.614 427.609 710.615 Z"/>
<path fill="#00ff00" fill-rule="evenodd" stroke="none" d="M 452.254 414.393 C 452.252 414.393 432.096 407.079 432.094 407.078 C 432.095 407.079 438.768 414.325 438.769 414.325 C 438.768 414.326 432.022 421.504 432.021 421.505 C 432.023 421.504 452.252 414.394 452.254 414.393 Z"/>
<path fill="#00ffff" fill-rule="evenodd" stroke="none" d="M 447.017 361.336 C 447.017 361.338 439.858 381.550 439.858 381.552 C 439.858 381.551 438.502 371.794 438.502 371.793 C 438.501 371.793 428.672 372.442 428.671 372.442 C 428.673 372.441 447.016 361.337 447.017 361.336 Z"/>
<path fill="#00ffff" fill-rule="evenodd" stroke="none" d="M 271.344 362.006 C 271.345 362.008 279.835 381.698 279.836 381.700 C 279.836 381.699 280.538 371.873 280.538 371.872 C 280.539 371.872 290.389 371.865 290.390 371.865 C 290.388 371.864 271.346 362.007 271.344 362.006 Z"/>
<path fill="#be0027" fill-rule="evenodd" stroke="none" d="M 360.000 446.937 C 360.001 446.934 372.416 412.171 372.417 412.168 C 372.416 412.169 360.001 423.720 360.000 423.721 C 359.999 423.720 347.584 412.169 347.583 412.168 C 347.584 412.171 359.999 446.934 360.000 446.937 Z"/>
<path fill="none" stroke="#ffff00" stroke-width="2" stroke-linecap="round" stroke-linejoin="round" d="M 278.193 369.226 C 332.532 369.225 441.193 369.223 441.210 369.223 "/>
</g>
</g>
</g>
</svg>
