<?xml version="1.0" encoding="utf-8"?>
<!-- Generator: Moho 12.5 build 22414 -->
<!DOCTYPE svg PUBLIC "-//W3C//DTD SVG 1.1//EN" "http://www.w3.org/Graphics/SVG/1.1/DTD/svg11.dtd">
<svg version="1.1" id="Frame_0" xmlns="http://www.w3.org/2000/svg" xmlns:xlink="http://www.w3.org/1999/xlink" width="720px" height="720px">
<g id="halves">
<g id="woman_top">
<g id="woman_top">
<path fill="#000000" fill-rule="evenodd" stroke="#ffffff" stroke-width="2" stroke-linecap="round" stroke-linejoin="round" d="M 360.387 301.301 C 381.103 301.292 388.625 307.589 410.626 298.981 C 424.126 293.700 427.779 287.168 440.964 281.143 C 449.475 277.254 455.686 280.183 462.426 273.691 C 472.144 264.329 467.824 255.126 473.248 242.770 C 477.740 232.538 486.310 233.238 485.963 218.806 C 485.461 197.935 476.089 201.360 473.248 187.885 C 469.963 172.304 477.713 164.272 472.475 149.234 C 467.762 135.703 457.784 134.332 451.603 121.405 C 444.109 105.728 451.183 94.899 441.554 80.435 C 435.074 70.701 427.476 73.081 419.191 62.945 C 410.494 52.306 413.228 45.584 405.927 36.259 C 394.959 22.252 381.029 15.420 360.387 15.342 C 339.453 15.264 325.231 22.089 314.073 36.266 C 306.750 45.570 309.504 52.309 300.809 62.945 C 292.523 73.080 284.926 70.701 278.446 80.435 C 268.817 94.899 275.891 105.728 268.397 121.405 C 262.217 134.332 252.238 135.703 247.525 149.234 C 242.287 164.272 250.037 172.304 246.752 187.885 C 243.911 201.360 234.539 197.935 234.037 218.806 C 233.691 233.238 242.260 232.538 246.752 242.770 C 252.176 255.126 247.855 264.330 257.574 273.691 C 264.314 280.183 270.525 277.254 279.036 281.143 C 292.221 287.168 295.823 293.832 309.373 298.982 C 330.965 307.188 339.352 301.309 360.387 301.301 Z"/>
<path fill="#ffffff" fill-rule="evenodd" stroke="#000000" stroke-width="2" stroke-linecap="round" stroke-linejoin="round" d="M 439.444 360.940 C 437.561 353.317 435.359 346.464 432.518 340.229 C 426.836 327.758 419.620 317.522 414.433 306.883 C 402.498 282.409 397.588 262.961 404.424 230.408 C 407.523 215.647 414.960 199.803 414.961 199.800 C 414.965 199.808 439.054 258.846 456.144 272.565 C 465.032 279.701 471.784 293.807 482.630 302.309 C 492.665 310.175 509.857 320.522 511.344 325.248 C 511.931 327.112 516.781 338.902 517.871 340.278 C 520.971 344.194 556.513 371.499 556.757 365.992 C 556.904 362.655 535.039 348.393 535.602 347.271 C 536.247 345.987 560.447 368.241 562.595 365.078 C 564.589 362.143 540.563 344.866 541.056 344.194 C 541.573 343.490 563.653 364.727 566.612 362.478 C 570.277 359.693 544.830 341.607 545.462 340.952 C 546.075 340.318 569.341 362.095 568.696 358.698 C 567.419 351.976 541.877 327.617 544.040 328.942 C 552.740 334.274 567.241 342.725 562.643 337.737 C 552.390 326.612 546.891 318.138 526.685 315.636 C 518.370 314.607 506.173 286.567 479.898 264.917 C 475.622 261.393 471.365 260.352 460.174 225.145 C 452.593 201.298 442.663 185.454 437.070 163.906 C 430.581 138.903 375.271 133.586 373.824 117.806 C 373.149 110.437 371.543 96.492 374.723 94.203 C 376.018 93.271 388.078 81.253 388.395 62.862 C 388.562 53.173 382.651 31.963 359.928 32.456 C 337.495 32.943 330.684 54.310 330.714 65.423 C 330.750 78.769 343.520 93.357 344.752 94.203 C 347.981 96.423 346.326 110.437 345.650 117.806 C 344.204 133.586 288.894 138.903 282.405 163.906 C 276.812 185.454 266.881 201.298 259.301 225.145 C 248.110 260.352 243.853 261.393 239.577 264.917 C 213.302 286.567 201.105 314.607 192.790 315.636 C 172.584 318.138 167.085 326.612 156.831 337.737 C 152.234 342.725 166.735 334.274 175.435 328.942 C 177.597 327.617 152.055 351.976 150.779 358.698 C 150.134 362.095 173.400 340.318 174.012 340.952 C 174.645 341.607 149.198 359.693 152.863 362.478 C 155.822 364.727 177.902 343.490 178.419 344.194 C 178.912 344.866 154.886 362.143 156.879 365.078 C 159.028 368.241 183.228 345.987 183.873 347.271 C 184.436 348.393 162.570 362.655 162.718 365.992 C 162.962 371.499 198.504 344.194 201.604 340.278 C 202.694 338.902 207.544 327.112 208.131 325.248 C 209.618 320.522 226.809 310.175 236.844 302.309 C 247.691 293.807 254.443 279.701 263.331 272.565 C 280.420 258.846 304.510 199.808 304.514 199.800 C 304.515 199.803 311.951 215.647 315.051 230.408 C 321.886 262.961 316.977 282.409 305.042 306.883 C 299.854 317.522 292.576 327.761 286.862 340.234 C 284.006 346.470 281.456 353.247 279.924 360.946 C 279.264 363.493 279.024 364.987 278.091 369.226 C 278.107 369.226 441.468 369.501 441.484 369.501 C 441.484 369.500 439.950 363.669 439.444 360.940 Z"/>
<path fill="#ffffff" fill-rule="evenodd" stroke="#000000" stroke-width="2" stroke-linecap="round" stroke-linejoin="round" d="M 326.647 185.657 C 340.314 185.657 351.339 196.681 351.339 210.348 C 351.339 224.014 340.314 235.039 326.647 235.039 C 312.981 235.039 301.956 224.014 301.957 210.348 C 301.957 196.681 312.981 185.657 326.647 185.657 Z"/>
<path fill="#ffffff" fill-rule="evenodd" stroke="#000000" stroke-width="2" stroke-linecap="round" stroke-linejoin="round" d="M 393.753 185.657 C 380.087 185.657 369.062 196.682 369.062 210.348 C 369.062 224.014 380.087 235.039 393.753 235.039 C 407.420 235.039 418.445 224.014 418.445 210.348 C 418.444 196.681 407.419 185.657 393.753 185.657 Z"/>
<path fill="#ffffff" fill-rule="evenodd" stroke="none" d="M 314.931 171.005 C 314.939 171.005 404.025 171.005 404.034 171.005 C 404.034 171.009 404.034 210.329 404.034 210.333 C 404.025 210.333 314.939 210.333 314.931 210.333 C 314.931 210.329 314.931 171.009 314.931 171.005 Z"/>
</g>
<g id="specs_3">
<path fill="#ff00ff" fill-rule="evenodd" stroke="none" d="M 326.336 99.428 C 326.343 99.428 393.657 99.428 393.664 99.428 C 393.664 99.421 393.664 32.107 393.664 32.100 C 393.657 32.100 326.343 32.100 326.336 32.100 C 326.336 32.107 326.336 99.421 326.336 99.428 Z"/>
<path fill="#ff0000" fill-rule="evenodd" stroke="none" d="M 360.000 345.902 C 360.001 345.906 372.416 380.668 372.417 380.672 C 372.416 380.671 360.001 369.119 360.000 369.118 C 359.999 369.119 347.584 380.671 347.583 380.672 C 347.584 380.668 359.999 345.906 360.000 345.902 Z"/>
<path fill="#0000ff" fill-rule="evenodd" stroke="none" d="M 360.000 2.881 C 360.001 2.883 367.212 23.076 367.213 23.078 C 367.212 23.077 360.001 16.367 360.000 16.367 C 359.999 16.367 352.788 23.077 352.787 23.078 C 352.788 23.076 359.999 2.883 360.000 2.881 Z"/>
<path fill="#00ff00" fill-rule="evenodd" stroke="none" d="M 261.989 159.472 C 261.991 159.471 282.147 152.157 282.149 152.157 C 282.149 152.157 275.475 159.403 275.475 159.404 C 275.475 159.404 282.221 166.582 282.222 166.583 C 282.220 166.582 261.991 159.472 261.989 159.472 Z"/>
<path fill="#ffff00" fill-rule="evenodd" stroke="none" d="M 153.329 367.809 C 153.330 367.807 162.279 348.322 162.280 348.320 C 162.280 348.321 162.751 358.161 162.751 358.161 C 162.752 358.162 172.600 358.400 172.601 358.400 C 172.599 358.401 153.331 367.808 153.329 367.809 Z"/>
<path fill="#ffff00" fill-rule="evenodd" stroke="none" d="M 567.189 367.570 C 567.188 367.569 557.849 348.267 557.849 348.265 C 557.848 348.266 557.575 358.113 557.575 358.114 C 557.573 358.114 547.733 358.550 547.732 358.550 C 547.734 358.551 567.187 367.570 567.189 367.570 Z"/>
<path fill="#00ff00" fill-rule="evenodd" stroke="none" d="M 457.444 159.472 C 457.442 159.471 437.285 152.157 437.283 152.157 C 437.284 152.157 443.957 159.403 443.958 159.404 C 443.957 159.404 437.211 166.582 437.211 166.583 C 437.213 166.582 457.442 159.472 457.444 159.472 Z"/>
<path fill="#00ffff" fill-rule="evenodd" stroke="none" d="M 407.591 20.476 C 407.590 20.478 400.432 40.690 400.431 40.692 C 400.431 40.691 399.075 30.934 399.075 30.933 C 399.074 30.933 389.245 31.582 389.244 31.582 C 389.246 31.581 407.589 20.477 407.591 20.476 Z"/>
<path fill="#00ffff" fill-rule="evenodd" stroke="none" d="M 309.297 21.146 C 309.297 21.148 317.787 40.838 317.788 40.839 C 317.788 40.839 318.490 31.013 318.490 31.012 C 318.491 31.012 328.341 31.004 328.342 31.004 C 328.340 31.003 309.298 21.147 309.297 21.146 Z"/>
<path fill="#be0027" fill-rule="evenodd" stroke="none" d="M 360.000 392.333 C 360.001 392.329 372.416 357.567 372.417 357.563 C 372.416 357.564 360.001 369.116 360.000 369.117 C 359.999 369.116 347.584 357.564 347.583 357.563 C 347.584 357.567 359.999 392.329 360.000 392.333 Z"/>
<path fill="none" stroke="#ffff00" stroke-width="2" stroke-linecap="round" stroke-linejoin="round" d="M 278.193 369.226 C 332.532 369.225 441.193 369.223 441.210 369.223 "/>
</g>
</g>
</g>
</svg>
