<?xml version="1.0" encoding="utf-8"?>
<!-- Generator: Moho 12.5 build 22414 -->
<!DOCTYPE svg PUBLIC "-//W3C//DTD SVG 1.1//EN" "http://www.w3.org/Graphics/SVG/1.1/DTD/svg11.dtd">
<svg version="1.1" id="Frame_0" xmlns="http://www.w3.org/2000/svg" xmlns:xlink="http://www.w3.org/1999/xlink" width="720px" height="720px">
<g id="woman">
<g id="woman">
<path fill="#000000" fill-rule="evenodd" stroke="#ffffff" stroke-width="2" stroke-linecap="round" stroke-linejoin="round" d="M 360.387 299.883 C 381.129 299.874 388.660 306.179 410.690 297.561 C 424.206 292.273 427.863 285.733 441.064 279.700 C 449.587 275.806 455.805 278.739 462.553 272.239 C 472.284 262.866 467.958 253.651 473.389 241.279 C 477.886 231.035 486.467 231.736 486.119 217.286 C 485.617 196.389 476.233 199.818 473.389 186.326 C 470.100 170.726 477.859 162.684 472.615 147.627 C 467.897 134.079 457.905 132.707 451.718 119.763 C 444.214 104.067 451.297 93.224 441.656 78.742 C 435.167 68.996 427.560 71.379 419.265 61.231 C 410.557 50.578 413.294 43.848 405.984 34.511 C 395.003 20.487 381.055 13.646 360.387 13.568 C 339.428 13.490 325.188 20.324 314.016 34.518 C 306.683 43.834 309.442 50.581 300.735 61.231 C 292.439 71.379 284.832 68.996 278.344 78.742 C 268.703 93.224 275.786 104.067 268.282 119.763 C 262.095 132.707 252.103 134.079 247.385 147.627 C 242.141 162.684 249.900 170.726 246.611 186.326 C 243.767 199.818 234.383 196.389 233.881 217.286 C 233.533 231.736 242.114 231.035 246.611 241.279 C 252.042 253.651 247.716 262.866 257.447 272.239 C 264.195 278.739 270.413 275.806 278.936 279.700 C 292.137 285.733 295.743 292.405 309.310 297.561 C 330.929 305.777 339.327 299.892 360.387 299.883 Z"/>
<path fill="#ffffff" fill-rule="evenodd" stroke="#000000" stroke-width="2" stroke-linecap="round" stroke-linejoin="round" d="M 359.928 30.704 C 337.467 31.191 330.648 52.585 330.678 63.711 C 330.713 77.075 343.500 91.680 344.733 92.528 C 347.966 94.750 346.309 108.782 345.633 116.160 C 344.184 131.959 288.805 137.283 282.308 162.317 C 276.708 183.893 266.765 199.755 259.175 223.633 C 247.970 258.883 243.708 259.926 239.427 263.454 C 213.119 285.131 200.907 313.206 192.581 314.236 C 172.350 316.741 166.844 325.226 156.578 336.364 C 151.975 341.359 166.494 332.898 175.205 327.559 C 177.370 326.232 151.796 350.621 150.518 357.352 C 149.872 360.753 173.168 338.949 173.781 339.584 C 174.414 340.239 148.935 358.348 152.605 361.137 C 155.567 363.388 177.675 342.125 178.193 342.830 C 178.687 343.502 154.630 360.801 156.626 363.740 C 158.778 366.907 183.008 344.625 183.654 345.911 C 184.218 347.035 162.325 361.313 162.472 364.655 C 162.717 370.169 198.302 342.830 201.407 338.909 C 202.498 337.531 207.354 325.727 207.942 323.860 C 209.431 319.129 226.643 308.768 236.691 300.893 C 247.551 292.380 254.311 278.256 263.210 271.112 C 280.321 257.375 304.441 198.264 304.445 198.256 C 304.446 198.259 311.891 214.123 314.995 228.902 C 321.839 261.495 316.924 280.968 304.974 305.473 C 294.585 326.776 275.822 346.483 277.975 385.670 C 281.459 449.052 299.949 471.600 310.119 523.424 C 315.320 549.922 305.121 561.318 309.961 586.821 C 316.786 622.776 320.630 648.956 320.088 657.624 C 319.920 660.321 318.653 671.842 315.068 679.300 C 312.377 684.895 312.430 687.676 310.767 689.160 C 304.068 695.138 296.863 704.236 305.257 704.024 C 311.810 703.859 309.791 695.671 312.933 694.932 C 314.232 694.626 304.992 704.600 314.630 704.204 C 318.378 704.050 318.878 695.444 320.822 695.147 C 322.001 694.968 312.445 702.921 320.678 705.083 C 324.694 706.138 325.418 695.414 328.731 694.968 C 329.904 694.809 318.236 701.863 326.705 704.606 C 331.552 706.176 333.651 695.844 336.145 693.987 C 341.521 689.984 323.663 704.891 340.787 705.439 C 354.724 705.884 347.461 692.418 344.048 685.640 C 341.680 680.938 348.932 679.638 342.808 664.239 C 335.565 646.026 355.251 608.985 353.539 573.403 C 352.929 560.718 346.285 529.962 346.127 523.884 C 345.788 510.823 354.272 506.065 358.592 417.013 C 358.691 414.980 353.872 415.663 342.708 393.151 C 340.996 389.699 349.252 406.246 359.514 414.632 C 370.261 406.437 378.658 389.750 376.766 393.151 C 364.555 415.113 360.782 415.342 360.882 417.013 C 366.238 506.082 374.829 510.830 374.081 523.884 C 373.752 529.622 365.032 558.188 364.160 570.160 C 361.522 606.353 381.813 643.070 376.999 662.448 C 374.522 672.420 379.251 675.372 374.675 680.899 C 369.778 686.813 368.524 699.172 371.430 699.975 C 377.216 701.575 389.482 698.443 391.656 698.686 C 392.856 698.820 399.065 701.184 402.444 701.638 C 410.530 702.725 404.552 707.483 421.201 706.225 C 425.942 705.867 419.073 698.072 412.942 696.428 C 410.248 695.706 418.476 699.314 418.477 699.315 C 418.477 699.315 422.346 703.659 423.289 703.878 C 431.008 705.672 422.082 696.750 422.082 696.750 C 422.082 696.750 426.495 701.969 428.491 701.982 C 434.623 702.022 426.968 696.485 426.967 696.484 C 426.968 696.485 432.350 700.874 435.447 700.623 C 439.267 700.315 432.923 695.759 432.923 695.758 C 432.923 695.759 436.625 698.980 440.165 698.133 C 442.485 697.578 436.069 693.397 432.313 693.455 C 427.670 693.526 411.596 682.472 407.535 678.098 C 405.295 675.686 403.098 672.649 399.679 664.077 C 396.696 656.598 399.766 629.113 404.495 587.555 C 407.515 561.010 404.756 549.637 411.555 522.690 C 424.367 471.918 438.450 448.535 441.499 385.670 C 443.400 346.470 424.889 326.776 414.501 305.473 C 402.551 280.968 397.635 261.495 404.479 228.902 C 407.583 214.123 415.028 198.259 415.029 198.256 C 415.033 198.264 439.153 257.375 456.264 271.112 C 465.163 278.256 471.923 292.380 482.783 300.893 C 492.831 308.768 510.043 319.129 511.533 323.860 C 512.120 325.727 516.976 337.531 518.067 338.909 C 521.172 342.830 556.757 370.169 557.002 364.655 C 557.150 361.313 535.257 347.035 535.821 345.911 C 536.466 344.625 560.696 366.907 562.848 363.740 C 564.844 360.801 540.787 343.502 541.281 342.830 C 541.799 342.125 563.907 363.388 566.869 361.137 C 570.539 358.348 545.060 340.239 545.693 339.584 C 546.306 338.949 569.602 360.753 568.956 357.352 C 567.678 350.621 542.104 326.232 544.269 327.559 C 552.980 332.898 567.499 341.359 562.896 336.364 C 552.630 325.226 547.124 316.741 526.893 314.236 C 518.567 313.206 506.355 285.131 480.047 263.454 C 475.766 259.926 471.504 258.883 460.299 223.633 C 452.709 199.755 442.766 183.893 437.166 162.317 C 430.669 137.283 375.290 131.959 373.842 116.160 C 373.165 108.782 371.557 94.820 374.741 92.528 C 376.038 91.594 388.113 79.561 388.430 61.148 C 388.598 51.446 382.679 30.210 359.928 30.704 Z"/>
<path fill="#ffffff" fill-rule="evenodd" stroke="#000000" stroke-width="2" stroke-linecap="round" stroke-linejoin="round" d="M 326.606 184.095 C 340.289 184.095 351.328 195.133 351.328 208.817 C 351.328 222.500 340.289 233.539 326.606 233.538 C 312.923 233.538 301.884 222.500 301.884 208.817 C 301.884 195.134 312.923 184.095 326.606 184.095 Z"/>
<path fill="#ffffff" fill-rule="evenodd" stroke="#000000" stroke-width="2" stroke-linecap="round" stroke-linejoin="round" d="M 393.795 184.096 C 380.112 184.096 369.074 195.134 369.074 208.817 C 369.073 222.500 380.112 233.539 393.795 233.539 C 407.479 233.539 418.518 222.500 418.517 208.817 C 418.517 195.134 407.479 184.096 393.795 184.096 Z"/>
<path fill="#ffffff" fill-rule="evenodd" stroke="none" d="M 314.874 169.425 C 314.883 169.425 404.080 169.425 404.089 169.425 C 404.089 169.429 404.089 208.798 404.089 208.802 C 404.080 208.802 314.883 208.802 314.874 208.802 C 314.874 208.798 314.874 169.429 314.874 169.425 Z"/>
<path fill="none" stroke="#000000" stroke-width="2" stroke-linecap="round" stroke-linejoin="round" d="M 358.800 317.439 C 358.800 314.932 359.584 313.929 360.150 313.929 C 360.716 313.929 361.500 314.932 361.500 317.439 C 361.500 319.947 360.716 320.950 360.150 320.950 C 359.584 320.950 358.800 319.947 358.800 317.439 "/>
</g>
<g id="specs_2">
<path fill="#ff00ff" fill-rule="evenodd" stroke="none" d="M 302.605 120.782 C 302.616 120.782 417.384 120.782 417.395 120.782 C 417.395 120.771 417.395 6.003 417.395 5.991 C 417.384 5.991 302.616 5.991 302.605 5.991 C 302.605 6.003 302.605 120.771 302.605 120.782 Z"/>
<path fill="#ff0000" fill-rule="evenodd" stroke="none" d="M 360.000 683.963 C 360.001 683.967 372.432 718.772 372.433 718.776 C 372.432 718.775 360.001 707.209 360.000 707.208 C 359.999 707.209 347.568 718.775 347.567 718.776 C 347.568 718.772 359.999 683.967 360.000 683.963 Z"/>
<path fill="#0000ff" fill-rule="evenodd" stroke="none" d="M 360.000 1.091 C 360.001 1.093 367.221 21.312 367.222 21.314 C 367.221 21.313 360.001 14.595 360.000 14.594 C 359.999 14.595 352.779 21.313 352.778 21.314 C 352.779 21.312 359.999 1.093 360.000 1.091 Z"/>
<path fill="#00ff00" fill-rule="evenodd" stroke="none" d="M 261.867 157.877 C 261.869 157.877 282.050 150.554 282.052 150.553 C 282.052 150.554 275.370 157.809 275.369 157.809 C 275.370 157.810 282.124 164.997 282.125 164.997 C 282.123 164.997 261.869 157.878 261.867 157.877 Z"/>
<path fill="#ffff00" fill-rule="evenodd" stroke="none" d="M 153.071 366.474 C 153.072 366.472 162.033 346.963 162.034 346.961 C 162.034 346.962 162.506 356.814 162.506 356.815 C 162.507 356.815 172.366 357.054 172.367 357.054 C 172.365 357.055 153.073 366.473 153.071 366.474 Z"/>
<path fill="#ffff00" fill-rule="evenodd" stroke="none" d="M 567.447 366.235 C 567.446 366.233 558.096 346.908 558.095 346.906 C 558.095 346.907 557.821 356.766 557.821 356.767 C 557.820 356.767 547.967 357.204 547.966 357.204 C 547.968 357.205 567.445 366.234 567.447 366.235 Z"/>
<path fill="#00ff00" fill-rule="evenodd" stroke="none" d="M 457.565 157.877 C 457.563 157.877 437.382 150.554 437.380 150.553 C 437.380 150.554 444.062 157.809 444.063 157.809 C 444.062 157.810 437.307 164.997 437.307 164.997 C 437.309 164.997 457.563 157.878 457.565 157.877 Z"/>
<path fill="#00ffff" fill-rule="evenodd" stroke="none" d="M 407.650 18.708 C 407.649 18.710 400.482 38.948 400.481 38.950 C 400.481 38.949 399.124 29.180 399.124 29.179 C 399.123 29.179 389.282 29.828 389.281 29.829 C 389.283 29.827 407.648 18.709 407.650 18.708 Z"/>
<path fill="#00ffff" fill-rule="evenodd" stroke="none" d="M 309.233 19.379 C 309.234 19.381 317.735 39.095 317.736 39.097 C 317.736 39.096 318.438 29.259 318.439 29.258 C 318.439 29.258 328.302 29.250 328.303 29.250 C 328.301 29.249 309.235 19.380 309.233 19.379 Z"/>
<path fill="#be0027" fill-rule="evenodd" stroke="none" d="M 360.000 617.463 C 360.001 617.460 372.432 582.654 372.433 582.650 C 372.432 582.652 360.001 594.218 360.000 594.219 C 359.999 594.218 347.568 582.652 347.567 582.650 C 347.568 582.654 359.999 617.460 360.000 617.463 Z"/>
</g>
</g>
</svg>
