<?xml version="1.0" encoding="utf-8"?>
<!-- Generator: Moho 12.5 build 22414 -->
<!DOCTYPE svg PUBLIC "-//W3C//DTD SVG 1.1//EN" "http://www.w3.org/Graphics/SVG/1.1/DTD/svg11.dtd">
<svg version="1.1" id="Frame_0" xmlns="http://www.w3.org/2000/svg" xmlns:xlink="http://www.w3.org/1999/xlink" width="720px" height="720px">
<g id="halves">
</g>
<g id="woman">
<g id="woman">
<path fill="#000000" fill-rule="evenodd" stroke="#ffffff" stroke-width="2" stroke-linecap="round" stroke-linejoin="round" d="M 360.387 299.958 C 381.103 299.949 388.625 306.246 410.626 297.639 C 424.126 292.357 427.779 285.825 440.964 279.800 C 449.475 275.911 455.686 278.840 462.426 272.348 C 472.144 262.986 467.824 253.783 473.248 241.427 C 477.740 231.196 486.310 231.895 485.963 217.463 C 485.461 196.592 476.089 200.017 473.248 186.542 C 469.963 170.961 477.713 162.929 472.475 147.891 C 467.762 134.360 457.784 132.989 451.603 120.062 C 444.109 104.385 451.183 93.556 441.554 79.092 C 435.074 69.358 427.476 71.738 419.191 61.602 C 410.494 50.963 413.228 44.241 405.927 34.916 C 394.959 20.909 381.029 14.077 360.387 13.999 C 339.453 13.921 325.231 20.746 314.073 34.923 C 306.750 44.227 309.504 50.966 300.809 61.602 C 292.523 71.738 284.926 69.358 278.446 79.092 C 268.817 93.556 275.891 104.385 268.397 120.062 C 262.217 132.990 252.238 134.360 247.525 147.891 C 242.287 162.929 250.037 170.961 246.752 186.542 C 243.911 200.017 234.539 196.592 234.037 217.463 C 233.691 231.895 242.260 231.196 246.752 241.427 C 252.176 253.783 247.855 262.987 257.574 272.348 C 264.314 278.840 270.525 275.911 279.036 279.800 C 292.221 285.825 295.823 292.489 309.373 297.639 C 330.965 305.845 339.352 299.967 360.387 299.958 Z"/>
<path fill="#ffffff" fill-rule="evenodd" stroke="#000000" stroke-width="2" stroke-linecap="round" stroke-linejoin="round" d="M 359.928 31.113 C 337.495 31.600 330.684 52.968 330.714 64.080 C 330.750 77.427 343.520 92.014 344.752 92.861 C 347.981 95.080 346.326 109.094 345.650 116.464 C 344.204 132.243 288.894 137.560 282.405 162.563 C 276.812 184.112 266.881 199.955 259.301 223.802 C 248.110 259.009 243.853 260.051 239.577 263.574 C 213.302 285.224 201.105 313.264 192.790 314.293 C 172.584 316.795 167.085 325.269 156.831 336.394 C 152.234 341.382 166.735 332.931 175.435 327.599 C 177.597 326.274 152.055 350.633 150.779 357.355 C 150.134 360.752 173.400 338.975 174.012 339.609 C 174.645 340.264 149.198 358.350 152.863 361.135 C 155.822 363.384 177.902 342.147 178.419 342.851 C 178.912 343.523 154.886 360.800 156.879 363.735 C 159.028 366.898 183.228 344.644 183.873 345.929 C 184.436 347.051 162.570 361.312 162.718 364.649 C 162.962 370.156 198.504 342.851 201.604 338.935 C 202.694 337.559 207.544 325.769 208.131 323.905 C 209.618 319.180 226.809 308.832 236.844 300.966 C 247.691 292.464 254.443 278.358 263.331 271.223 C 280.420 257.503 304.510 198.465 304.514 198.458 C 304.515 198.461 311.951 214.304 315.051 229.065 C 321.886 261.618 316.977 281.066 305.042 305.541 C 294.667 326.817 275.926 346.500 278.077 385.638 C 281.556 448.942 300.024 471.462 310.181 523.220 C 315.375 549.685 305.189 561.068 310.024 586.539 C 316.840 622.449 320.679 648.596 320.138 657.254 C 319.970 659.947 318.705 671.454 315.124 678.903 C 312.437 684.491 312.489 687.269 310.828 688.751 C 304.138 694.721 296.941 703.807 305.325 703.596 C 311.870 703.431 309.854 695.254 312.992 694.515 C 314.289 694.209 305.061 704.171 314.687 703.776 C 318.430 703.622 318.929 695.027 320.871 694.731 C 322.048 694.551 312.504 702.494 320.727 704.654 C 324.738 705.707 325.461 694.997 328.770 694.551 C 329.941 694.393 318.288 701.438 326.746 704.177 C 331.587 705.745 333.684 695.426 336.175 693.571 C 341.544 689.573 323.708 704.462 340.811 705.009 C 354.730 705.454 347.477 692.005 344.068 685.234 C 341.703 680.539 348.945 679.241 342.829 663.860 C 335.595 645.670 355.257 608.675 353.547 573.137 C 352.938 560.468 346.302 529.750 346.144 523.680 C 345.806 510.636 354.280 505.884 358.594 416.942 C 358.692 414.911 353.880 415.594 342.729 393.110 C 341.020 389.662 349.265 406.189 359.514 414.564 C 370.248 406.379 378.635 389.712 376.745 393.110 C 364.549 415.044 360.781 415.273 360.881 416.942 C 366.231 505.900 374.811 510.642 374.063 523.680 C 373.734 529.411 365.026 557.942 364.154 569.899 C 361.520 606.046 381.786 642.718 376.978 662.071 C 374.504 672.031 379.227 674.979 374.657 680.499 C 369.766 686.407 368.514 698.750 371.416 699.552 C 377.194 701.150 389.445 698.022 391.617 698.265 C 392.815 698.399 399.017 700.759 402.391 701.213 C 410.468 702.298 404.496 707.051 421.124 705.794 C 425.860 705.437 419.000 697.651 412.876 696.010 C 410.186 695.288 418.403 698.892 418.404 698.892 C 418.404 698.893 422.268 703.231 423.211 703.450 C 430.920 705.242 422.005 696.331 422.005 696.331 C 422.005 696.331 426.412 701.543 428.406 701.556 C 434.531 701.596 426.884 696.066 426.884 696.066 C 426.885 696.066 432.260 700.449 435.353 700.200 C 439.168 699.891 432.832 695.341 432.832 695.341 C 432.833 695.341 436.529 698.558 440.065 697.712 C 442.383 697.158 435.975 692.983 432.223 693.040 C 427.586 693.111 411.532 682.071 407.475 677.702 C 405.239 675.294 403.044 672.260 399.630 663.699 C 396.650 656.229 399.717 628.778 404.439 587.272 C 407.455 560.760 404.700 549.401 411.491 522.488 C 424.287 471.779 438.352 448.425 441.397 385.638 C 443.296 346.487 424.808 326.817 414.433 305.541 C 402.498 281.066 397.588 261.618 404.424 229.065 C 407.523 214.304 414.960 198.461 414.961 198.458 C 414.965 198.465 439.054 257.503 456.144 271.223 C 465.032 278.358 471.784 292.464 482.630 300.966 C 492.665 308.832 509.857 319.180 511.344 323.905 C 511.931 325.769 516.781 337.559 517.871 338.935 C 520.971 342.851 556.513 370.156 556.757 364.649 C 556.904 361.312 535.039 347.051 535.602 345.929 C 536.247 344.644 560.447 366.898 562.595 363.735 C 564.589 360.800 540.563 343.523 541.056 342.851 C 541.573 342.147 563.653 363.384 566.612 361.135 C 570.277 358.350 544.830 340.264 545.462 339.609 C 546.075 338.975 569.341 360.752 568.696 357.355 C 567.419 350.633 541.877 326.274 544.040 327.599 C 552.740 332.931 567.241 341.382 562.643 336.394 C 552.390 325.269 546.891 316.795 526.685 314.293 C 518.370 313.264 506.173 285.224 479.898 263.574 C 475.622 260.051 471.365 259.009 460.174 223.802 C 452.593 199.955 442.663 184.112 437.070 162.563 C 430.581 137.560 375.271 132.243 373.824 116.464 C 373.149 109.094 371.543 95.149 374.723 92.861 C 376.018 91.928 388.078 79.910 388.395 61.520 C 388.562 51.830 382.651 30.620 359.928 31.113 Z"/>
<path fill="#ffffff" fill-rule="evenodd" stroke="#000000" stroke-width="2" stroke-linecap="round" stroke-linejoin="round" d="M 326.647 184.314 C 340.314 184.314 351.339 195.339 351.339 209.005 C 351.339 222.671 340.314 233.696 326.647 233.696 C 312.981 233.696 301.956 222.671 301.957 209.005 C 301.957 195.339 312.981 184.314 326.647 184.314 Z"/>
<path fill="#ffffff" fill-rule="evenodd" stroke="#000000" stroke-width="2" stroke-linecap="round" stroke-linejoin="round" d="M 393.753 184.315 C 380.087 184.315 369.062 195.339 369.062 209.005 C 369.062 222.671 380.087 233.696 393.753 233.696 C 407.420 233.696 418.445 222.671 418.445 209.005 C 418.444 195.339 407.419 184.314 393.753 184.315 Z"/>
<path fill="#ffffff" fill-rule="evenodd" stroke="none" d="M 314.931 169.662 C 314.939 169.662 404.025 169.662 404.034 169.662 C 404.034 169.666 404.034 208.986 404.034 208.990 C 404.025 208.990 314.939 208.990 314.931 208.990 C 314.931 208.986 314.931 169.666 314.931 169.662 Z"/>
</g>
<g id="specs_2">
<path fill="#ff00ff" fill-rule="evenodd" stroke="none" d="M 326.336 98.085 C 326.343 98.085 393.657 98.085 393.664 98.085 C 393.664 98.078 393.664 30.764 393.664 30.757 C 393.657 30.757 326.343 30.757 326.336 30.757 C 326.336 30.764 326.336 98.078 326.336 98.085 Z"/>
<path fill="#ff0000" fill-rule="evenodd" stroke="none" d="M 360.000 683.560 C 360.001 683.563 372.416 718.326 372.417 718.329 C 372.416 718.328 360.001 706.777 360.000 706.776 C 359.999 706.777 347.584 718.328 347.583 718.329 C 347.584 718.326 359.999 683.563 360.000 683.560 Z"/>
<path fill="#0000ff" fill-rule="evenodd" stroke="none" d="M 360.000 1.538 C 360.001 1.540 367.212 21.733 367.213 21.735 C 367.212 21.734 360.001 15.024 360.000 15.024 C 359.999 15.024 352.788 21.734 352.787 21.735 C 352.788 21.733 359.999 1.540 360.000 1.538 Z"/>
<path fill="#00ff00" fill-rule="evenodd" stroke="none" d="M 261.989 158.129 C 261.991 158.128 282.147 150.814 282.149 150.814 C 282.149 150.814 275.475 158.060 275.475 158.061 C 275.475 158.062 282.221 165.239 282.222 165.240 C 282.220 165.239 261.991 158.130 261.989 158.129 Z"/>
<path fill="#ffff00" fill-rule="evenodd" stroke="none" d="M 153.329 366.466 C 153.330 366.464 162.279 346.979 162.280 346.977 C 162.280 346.978 162.751 356.818 162.751 356.819 C 162.752 356.819 172.600 357.057 172.601 357.057 C 172.599 357.058 153.331 366.465 153.329 366.466 Z"/>
<path fill="#ffff00" fill-rule="evenodd" stroke="none" d="M 567.189 366.228 C 567.188 366.226 557.849 346.924 557.849 346.922 C 557.848 346.923 557.575 356.770 557.575 356.771 C 557.573 356.771 547.733 357.207 547.732 357.207 C 547.734 357.208 567.187 366.227 567.189 366.228 Z"/>
<path fill="#00ff00" fill-rule="evenodd" stroke="none" d="M 457.444 158.129 C 457.442 158.128 437.285 150.814 437.283 150.814 C 437.284 150.814 443.957 158.060 443.958 158.061 C 443.957 158.062 437.211 165.239 437.211 165.240 C 437.213 165.239 457.442 158.130 457.444 158.129 Z"/>
<path fill="#00ffff" fill-rule="evenodd" stroke="none" d="M 407.591 19.133 C 407.590 19.135 400.432 39.347 400.431 39.349 C 400.431 39.348 399.075 29.591 399.075 29.590 C 399.074 29.590 389.245 30.239 389.244 30.239 C 389.246 30.238 407.589 19.134 407.591 19.133 Z"/>
<path fill="#00ffff" fill-rule="evenodd" stroke="none" d="M 309.297 19.803 C 309.297 19.805 317.787 39.495 317.788 39.497 C 317.788 39.496 318.490 29.670 318.490 29.669 C 318.491 29.669 328.341 29.661 328.342 29.661 C 328.340 29.660 309.298 19.804 309.297 19.803 Z"/>
<path fill="#be0027" fill-rule="evenodd" stroke="none" d="M 360.000 617.143 C 360.001 617.139 372.416 582.377 372.417 582.373 C 372.416 582.375 360.001 593.926 360.000 593.927 C 359.999 593.926 347.584 582.375 347.583 582.373 C 347.584 582.377 359.999 617.139 360.000 617.143 Z"/>
</g>
</g>
</svg>
