<?xml version="1.0" encoding="utf-8"?>
<!-- Generator: Moho 12.5 build 22414 -->
<!DOCTYPE svg PUBLIC "-//W3C//DTD SVG 1.1//EN" "http://www.w3.org/Graphics/SVG/1.1/DTD/svg11.dtd">
<svg version="1.1" id="Frame_0" xmlns="http://www.w3.org/2000/svg" xmlns:xlink="http://www.w3.org/1999/xlink" width="720px" height="720px">
<g id="woman">
<g id="woman">
<path fill="#000000" fill-rule="evenodd" stroke="#ffffff" stroke-width="2" stroke-linecap="round" stroke-linejoin="round" d="M 360.360 316.342 C 379.633 316.334 386.631 322.193 407.101 314.185 C 419.661 309.271 423.059 303.194 435.325 297.589 C 443.244 293.970 449.022 296.695 455.293 290.655 C 464.335 281.946 460.315 273.383 465.361 261.888 C 469.540 252.369 477.513 253.020 477.191 239.593 C 476.724 220.176 468.004 223.362 465.361 210.825 C 462.306 196.329 469.515 188.856 464.642 174.866 C 460.258 162.277 450.974 161.002 445.224 148.975 C 438.252 134.390 444.833 124.315 435.875 110.858 C 429.846 101.801 422.777 104.016 415.069 94.586 C 406.978 84.688 409.521 78.434 402.728 69.758 C 392.525 56.727 379.564 50.370 360.360 50.298 C 340.884 50.225 327.652 56.575 317.271 69.765 C 310.458 78.421 313.021 84.690 304.931 94.586 C 297.222 104.016 290.154 101.801 284.125 110.858 C 275.167 124.315 281.748 134.390 274.776 148.975 C 269.026 161.002 259.742 162.277 255.358 174.866 C 250.485 188.856 257.695 196.329 254.639 210.825 C 251.996 223.362 243.276 220.176 242.809 239.593 C 242.487 253.020 250.460 252.369 254.639 261.888 C 259.685 273.383 255.665 281.946 264.707 290.656 C 270.978 296.696 276.756 293.970 284.675 297.589 C 296.941 303.194 300.292 309.394 312.899 314.185 C 332.987 321.820 340.790 316.351 360.360 316.342 Z"/>
<path fill="#ffffff" fill-rule="evenodd" stroke="#000000" stroke-width="2" stroke-linecap="round" stroke-linejoin="round" d="M 359.933 66.220 C 339.062 66.673 332.726 86.553 332.753 96.891 C 332.787 109.308 344.668 122.880 345.814 123.668 C 348.818 125.732 347.278 138.771 346.650 145.627 C 345.304 160.307 293.846 165.255 287.808 188.516 C 282.605 208.564 273.366 223.304 266.314 245.490 C 255.902 278.245 251.942 279.214 247.963 282.492 C 223.518 302.635 212.171 328.722 204.434 329.680 C 185.635 332.007 180.519 339.891 170.980 350.241 C 166.703 354.882 180.194 347.020 188.288 342.059 C 190.300 340.826 166.537 363.488 165.349 369.743 C 164.749 372.903 186.395 352.642 186.965 353.233 C 187.553 353.842 163.878 370.668 167.288 373.260 C 170.041 375.351 190.583 355.594 191.064 356.249 C 191.523 356.874 169.170 372.948 171.025 375.678 C 173.024 378.621 195.538 357.917 196.138 359.112 C 196.662 360.156 176.319 373.424 176.457 376.529 C 176.684 381.653 209.750 356.249 212.635 352.606 C 213.649 351.325 218.161 340.357 218.707 338.622 C 220.091 334.226 236.085 324.599 245.421 317.281 C 255.512 309.371 261.794 296.247 270.063 289.608 C 285.962 276.844 308.374 221.917 308.378 221.911 C 308.379 221.914 315.297 236.654 318.181 250.386 C 324.541 280.673 319.973 298.766 308.869 321.536 C 299.216 341.331 281.781 359.643 283.782 396.056 C 287.019 454.951 304.200 475.903 313.651 524.057 C 318.483 548.679 309.006 559.269 313.504 582.966 C 319.846 616.375 323.417 640.702 322.914 648.756 C 322.757 651.262 321.581 661.968 318.249 668.898 C 315.749 674.097 315.797 676.681 314.253 678.060 C 308.028 683.615 301.333 692.068 309.133 691.872 C 315.222 691.718 313.346 684.110 316.266 683.423 C 317.473 683.138 308.887 692.407 317.842 692.039 C 321.325 691.896 321.789 683.899 323.596 683.623 C 324.691 683.456 315.812 690.846 323.462 692.855 C 327.194 693.835 327.866 683.871 330.945 683.456 C 332.034 683.309 321.192 689.863 329.062 692.412 C 333.566 693.871 335.517 684.270 337.834 682.545 C 342.829 678.825 326.235 692.677 342.147 693.186 C 355.097 693.600 348.349 681.087 345.177 674.788 C 342.977 670.420 349.715 669.212 344.025 654.903 C 337.295 637.979 355.587 603.561 353.996 570.498 C 353.429 558.711 347.288 530.131 347.109 524.485 C 346.689 511.202 354.886 506.265 358.692 415.657 C 358.771 413.767 354.306 414.402 343.932 393.484 C 342.341 390.277 350.013 405.652 359.548 413.444 C 369.534 405.829 377.337 390.323 375.579 393.484 C 364.232 413.891 360.737 414.103 360.820 415.657 C 365.655 506.277 373.926 511.213 373.084 524.485 C 372.745 529.814 364.676 556.360 363.865 567.485 C 361.414 601.115 380.269 635.233 375.796 653.238 C 373.494 662.505 377.888 665.247 373.636 670.383 C 369.086 675.879 367.921 687.362 370.621 688.109 C 375.997 689.596 387.395 686.685 389.415 686.911 C 390.530 687.036 396.300 689.232 399.439 689.654 C 406.953 690.664 401.397 695.085 416.868 693.917 C 421.273 693.584 414.891 686.340 409.194 684.813 C 406.691 684.142 414.336 687.495 414.337 687.495 C 414.337 687.496 417.932 691.532 418.809 691.736 C 425.981 693.403 417.687 685.113 417.687 685.112 C 417.687 685.112 421.787 689.962 423.642 689.974 C 429.340 690.011 422.226 684.866 422.226 684.865 C 422.227 684.866 427.228 688.944 430.106 688.711 C 433.655 688.425 427.760 684.191 427.760 684.191 C 427.761 684.191 431.200 687.185 434.490 686.397 C 436.646 685.882 430.684 681.997 427.193 682.050 C 422.879 682.116 407.943 671.845 404.169 667.781 C 402.088 665.540 400.047 662.718 396.870 654.753 C 394.098 647.803 396.951 622.264 401.344 583.648 C 404.151 558.983 401.587 548.415 407.905 523.375 C 419.810 476.198 432.896 454.471 435.729 396.056 C 437.495 359.631 420.295 341.331 410.642 321.536 C 399.538 298.766 394.971 280.673 401.330 250.386 C 404.214 236.654 411.132 221.914 411.133 221.911 C 411.137 221.917 433.549 276.844 449.449 289.608 C 457.718 296.247 463.999 309.371 474.090 317.281 C 483.427 324.599 499.421 334.226 500.804 338.622 C 501.350 340.357 505.863 351.325 506.877 352.606 C 509.761 356.249 542.828 381.653 543.054 376.529 C 543.192 373.424 522.849 360.156 523.373 359.112 C 523.973 357.917 546.487 378.621 548.487 375.678 C 550.341 372.948 527.988 356.874 528.447 356.249 C 528.928 355.594 549.471 375.351 552.223 373.260 C 555.633 370.668 531.959 353.842 532.547 353.233 C 533.116 352.642 554.762 372.903 554.162 369.743 C 552.975 363.488 529.211 340.826 531.223 342.059 C 539.318 347.020 552.809 354.882 548.531 350.241 C 538.992 339.891 533.876 332.007 515.077 329.680 C 507.341 328.722 495.994 302.635 471.548 282.492 C 467.570 279.214 463.610 278.245 453.198 245.490 C 446.145 223.304 436.906 208.564 431.703 188.516 C 425.666 165.255 374.208 160.307 372.862 145.627 C 372.233 138.771 370.739 125.797 373.697 123.668 C 374.902 122.800 386.123 111.619 386.418 94.509 C 386.573 85.494 381.073 65.762 359.933 66.220 Z"/>
<path fill="#ffffff" fill-rule="evenodd" stroke="#000000" stroke-width="2" stroke-linecap="round" stroke-linejoin="round" d="M 328.970 208.752 C 341.685 208.752 351.942 219.009 351.942 231.723 C 351.942 244.438 341.685 254.695 328.970 254.695 C 316.256 254.695 305.999 244.438 305.999 231.723 C 305.999 219.009 316.256 208.752 328.970 208.752 Z"/>
<path fill="#ffffff" fill-rule="evenodd" stroke="#000000" stroke-width="2" stroke-linecap="round" stroke-linejoin="round" d="M 391.403 208.753 C 378.688 208.753 368.431 219.009 368.431 231.723 C 368.431 244.438 378.688 254.695 391.403 254.695 C 404.117 254.695 414.375 244.438 414.375 231.723 C 414.374 219.009 404.117 208.753 391.403 208.753 Z"/>
<path fill="#ffffff" fill-rule="evenodd" stroke="none" d="M 318.069 195.120 C 318.077 195.120 400.959 195.120 400.967 195.120 C 400.967 195.124 400.967 231.706 400.967 231.710 C 400.959 231.710 318.077 231.710 318.069 231.710 C 318.069 231.706 318.069 195.124 318.069 195.120 Z"/>
<path fill="none" stroke="#000000" stroke-width="2" stroke-linecap="round" stroke-linejoin="round" d="M 358.885 332.656 C 358.885 330.326 359.614 329.394 360.140 329.394 C 360.666 329.394 361.394 330.326 361.394 332.656 C 361.394 334.986 360.666 335.918 360.140 335.918 C 359.614 335.918 358.885 334.986 358.885 332.656 "/>
</g>
<g id="specs_2">
<path fill="#ff00ff" fill-rule="evenodd" stroke="none" d="M 276.857 179.733 C 276.874 179.733 443.126 179.733 443.143 179.733 C 443.143 179.716 443.143 13.463 443.143 13.446 C 443.126 13.446 276.874 13.446 276.857 13.446 C 276.857 13.463 276.857 179.716 276.857 179.733 Z"/>
<path fill="#ff0000" fill-rule="evenodd" stroke="none" d="M 360.000 673.231 C 360.001 673.234 371.552 705.576 371.553 705.579 C 371.552 705.578 360.001 694.831 360.000 694.830 C 359.999 694.831 348.448 705.578 348.447 705.579 C 348.448 705.576 359.999 673.234 360.000 673.231 Z"/>
<path fill="#0000ff" fill-rule="evenodd" stroke="none" d="M 360.000 38.705 C 360.001 38.706 366.710 57.493 366.711 57.495 C 366.710 57.494 360.001 51.252 360.000 51.251 C 359.999 51.252 353.290 57.494 353.289 57.495 C 353.290 57.493 359.999 38.706 360.000 38.705 Z"/>
<path fill="#00ff00" fill-rule="evenodd" stroke="none" d="M 268.814 184.391 C 268.816 184.390 287.569 177.585 287.571 177.585 C 287.570 177.585 281.362 184.327 281.361 184.327 C 281.362 184.328 287.638 191.006 287.638 191.006 C 287.637 191.006 268.816 184.391 268.814 184.391 Z"/>
<path fill="#ffff00" fill-rule="evenodd" stroke="none" d="M 167.721 378.219 C 167.722 378.218 176.048 360.089 176.049 360.088 C 176.049 360.089 176.488 369.243 176.488 369.244 C 176.489 369.244 185.650 369.466 185.651 369.466 C 185.649 369.466 167.723 378.218 167.721 378.219 Z"/>
<path fill="#ffff00" fill-rule="evenodd" stroke="none" d="M 552.760 377.997 C 552.759 377.995 544.071 360.038 544.070 360.036 C 544.070 360.037 543.815 369.198 543.815 369.199 C 543.814 369.199 534.659 369.605 534.658 369.605 C 534.660 369.606 552.758 377.996 552.760 377.997 Z"/>
<path fill="#00ff00" fill-rule="evenodd" stroke="none" d="M 450.658 184.391 C 450.656 184.390 431.903 177.585 431.901 177.585 C 431.902 177.585 438.111 184.327 438.111 184.327 C 438.111 184.328 431.834 191.006 431.834 191.006 C 431.836 191.006 450.656 184.391 450.658 184.391 Z"/>
<path fill="#00ffff" fill-rule="evenodd" stroke="none" d="M 404.276 55.074 C 404.276 55.076 397.616 73.881 397.615 73.883 C 397.615 73.882 396.354 64.804 396.354 64.803 C 396.353 64.803 387.209 65.407 387.208 65.407 C 387.209 65.406 404.275 55.075 404.276 55.074 Z"/>
<path fill="#00ffff" fill-rule="evenodd" stroke="none" d="M 312.828 55.698 C 312.828 55.699 320.727 74.018 320.728 74.020 C 320.728 74.019 321.381 64.878 321.381 64.877 C 321.382 64.877 330.546 64.870 330.547 64.870 C 330.545 64.869 312.829 55.698 312.828 55.698 Z"/>
<path fill="#be0027" fill-rule="evenodd" stroke="none" d="M 360.000 611.439 C 360.001 611.436 371.552 579.094 371.553 579.091 C 371.552 579.092 360.001 589.839 360.000 589.840 C 359.999 589.839 348.448 579.092 348.447 579.091 C 348.448 579.094 359.999 611.436 360.000 611.439 Z"/>
</g>
</g>
</svg>
