<?xml version="1.0" encoding="utf-8"?>
<!-- Generator: Moho 12.5 build 22414 -->
<!DOCTYPE svg PUBLIC "-//W3C//DTD SVG 1.1//EN" "http://www.w3.org/Graphics/SVG/1.1/DTD/svg11.dtd">
<svg version="1.1" id="Frame_0" xmlns="http://www.w3.org/2000/svg" xmlns:xlink="http://www.w3.org/1999/xlink" width="720px" height="170px">
<g id="logo_+_text_2">
<g id="">
<path fill="#000000" fill-rule="evenodd" stroke="none" d="M 384.903 90.928 C 384.903 91.112 384.880 91.320 384.834 91.551 C 384.834 91.735 384.834 91.943 384.834 92.173 C 384.834 92.865 385.272 93.511 386.148 94.111 C 387.025 94.664 388.063 95.149 389.262 95.564 C 390.508 95.933 391.730 96.233 392.930 96.464 C 394.175 96.694 395.144 96.810 395.836 96.810 C 396.482 96.810 397.266 96.763 398.189 96.671 C 399.158 96.579 400.103 96.394 401.026 96.118 C 401.948 95.795 402.733 95.379 403.379 94.872 C 404.024 94.318 404.347 93.603 404.347 92.727 C 404.347 91.712 403.771 90.974 402.617 90.513 C 401.510 90.051 400.103 89.705 398.396 89.475 C 396.689 89.198 394.844 88.944 392.860 88.713 C 390.877 88.437 389.032 88.021 387.325 87.468 C 385.618 86.868 384.188 86.038 383.034 84.977 C 381.927 83.870 381.374 82.324 381.374 80.341 C 381.374 77.388 382.596 75.035 385.041 73.282 C 387.486 71.529 390.923 70.653 395.352 70.653 C 397.520 70.653 399.365 70.837 400.887 71.207 C 402.456 71.529 403.771 71.898 404.832 72.314 C 405.893 72.729 406.746 73.121 407.392 73.490 C 408.084 73.813 408.591 73.974 408.914 73.974 C 409.283 73.974 409.560 73.928 409.745 73.836 C 409.929 73.698 410.160 73.559 410.437 73.421 C 410.690 73.675 410.944 73.929 411.198 74.182 C 410.044 76.350 408.891 78.519 407.738 80.687 C 407.322 80.548 406.907 80.410 406.492 80.271 C 406.446 79.995 406.400 79.718 406.354 79.441 C 406.308 79.164 406.100 78.887 405.731 78.611 C 404.809 77.826 403.379 77.157 401.441 76.604 C 399.503 76.050 397.335 75.774 394.936 75.774 C 394.014 75.774 393.137 75.843 392.307 75.981 C 391.477 76.073 390.738 76.258 390.093 76.535 C 389.447 76.812 388.939 77.181 388.570 77.642 C 388.201 78.057 388.017 78.588 388.017 79.233 C 388.017 80.248 388.570 80.986 389.677 81.448 C 390.831 81.863 392.261 82.209 393.968 82.486 C 395.675 82.716 397.520 82.970 399.503 83.247 C 401.487 83.478 403.332 83.893 405.039 84.492 C 406.746 85.092 408.153 85.969 409.260 87.122 C 410.414 88.275 410.990 89.867 410.990 91.897 C 410.990 93.926 410.483 95.587 409.468 96.879 C 408.499 98.170 407.277 99.185 405.800 99.923 C 404.324 100.662 402.687 101.146 400.887 101.377 C 399.134 101.607 397.474 101.723 395.905 101.723 C 394.337 101.723 392.768 101.584 391.200 101.307 C 389.677 100.984 388.270 100.638 386.979 100.269 C 385.733 99.854 384.672 99.485 383.796 99.162 C 382.919 98.793 382.389 98.609 382.204 98.609 C 381.881 98.609 381.604 98.747 381.374 99.024 C 381.051 98.793 380.728 98.563 380.405 98.332 C 381.466 95.749 382.527 93.165 383.588 90.582 C 384.026 90.697 384.465 90.813 384.903 90.928 Z"/>
<path fill="#000000" fill-rule="evenodd" stroke="none" d="M 419.847 73.490 C 419.525 73.075 419.132 72.775 418.671 72.590 C 418.210 72.406 417.772 72.314 417.356 72.314 C 417.356 71.899 417.356 71.484 417.356 71.068 C 421.162 71.068 424.968 71.068 428.774 71.068 C 428.774 71.484 428.774 71.899 428.774 72.314 C 428.543 72.314 428.290 72.406 428.013 72.590 C 427.736 72.729 427.598 72.936 427.598 73.213 C 427.598 73.490 427.690 73.744 427.874 73.974 C 428.059 74.205 428.266 74.482 428.497 74.805 C 430.827 77.850 433.156 80.894 435.486 83.939 C 437.539 81.079 439.592 78.219 441.645 75.358 C 442.060 74.759 442.360 74.320 442.544 74.044 C 442.775 73.721 442.890 73.421 442.890 73.144 C 442.890 72.775 442.775 72.544 442.544 72.452 C 442.314 72.360 442.083 72.314 441.852 72.314 C 441.852 71.899 441.852 71.484 441.852 71.068 C 445.381 71.068 448.910 71.068 452.439 71.068 C 452.439 71.484 452.439 71.899 452.439 72.314 C 451.886 72.314 451.263 72.637 450.571 73.282 C 449.925 73.882 449.349 74.505 448.841 75.151 C 445.312 79.718 441.783 84.285 438.254 88.852 C 438.254 92.312 438.254 95.772 438.254 99.231 C 438.254 99.923 438.692 100.269 439.569 100.269 C 439.568 100.685 439.568 101.100 439.569 101.515 C 436.501 101.515 433.433 101.515 430.365 101.515 C 430.365 101.100 430.365 100.685 430.365 100.269 C 431.196 100.269 431.611 99.923 431.611 99.231 C 431.611 95.679 431.611 92.127 431.611 88.575 C 427.690 83.547 423.769 78.519 419.847 73.490 Z"/>
<path fill="#000000" fill-rule="evenodd" stroke="none" d="M 460.605 100.269 C 460.835 100.223 461.020 100.131 461.158 99.993 C 461.343 99.854 461.435 99.531 461.435 99.024 C 461.435 90.582 461.435 82.140 461.435 73.698 C 461.435 73.052 461.366 72.660 461.228 72.521 C 461.135 72.383 460.928 72.314 460.605 72.314 C 460.605 71.899 460.605 71.484 460.605 71.068 C 463.811 71.068 467.017 71.068 470.223 71.068 C 470.223 71.484 470.223 71.899 470.223 72.314 C 469.762 72.314 469.531 72.521 469.531 72.936 C 469.531 73.121 469.600 73.375 469.739 73.698 C 469.923 73.974 470.177 74.390 470.500 74.943 C 473.314 80.133 476.128 85.323 478.942 90.513 C 481.779 85.346 484.616 80.179 487.453 75.012 C 487.776 74.459 488.030 74.021 488.214 73.698 C 488.399 73.329 488.491 73.075 488.491 72.936 C 488.491 72.521 488.307 72.314 487.938 72.314 C 487.937 71.899 487.937 71.484 487.938 71.068 C 491.190 71.068 494.442 71.068 497.694 71.068 C 497.694 71.484 497.694 71.899 497.694 72.314 C 497.464 72.314 497.233 72.383 497.003 72.521 C 496.818 72.614 496.726 72.844 496.726 73.213 C 496.725 81.886 496.725 90.559 496.726 99.231 C 496.726 99.601 496.818 99.877 497.003 100.062 C 497.233 100.200 497.464 100.269 497.694 100.269 C 497.694 100.685 497.694 101.100 497.694 101.515 C 495.018 101.515 492.343 101.515 489.668 101.515 C 489.667 101.100 489.667 100.685 489.668 100.269 C 490.636 100.269 491.052 99.923 490.913 99.231 C 490.913 92.750 490.913 86.269 490.913 79.787 C 490.867 79.787 490.821 79.787 490.775 79.787 C 486.853 87.030 482.932 94.272 479.011 101.515 C 478.826 101.515 478.642 101.515 478.458 101.515 C 474.744 94.272 471.030 87.030 467.317 79.787 C 467.340 79.787 467.363 79.787 467.386 79.787 C 467.340 79.787 467.294 79.787 467.248 79.787 C 467.248 86.269 467.248 92.750 467.248 99.231 C 467.248 99.923 467.640 100.269 468.424 100.269 C 468.424 100.685 468.424 101.100 468.424 101.515 C 465.817 101.515 463.211 101.515 460.605 101.515 C 460.605 101.100 460.605 100.685 460.605 100.269 Z"/>
<path fill="#000000" fill-rule="evenodd" stroke="none" d="M 510.565 99.231 C 510.565 90.605 510.565 81.978 510.565 73.352 C 510.565 72.983 510.381 72.729 510.012 72.590 C 509.689 72.406 509.343 72.314 508.974 72.314 C 508.974 71.899 508.974 71.484 508.974 71.068 C 516.147 71.068 523.320 71.068 530.494 71.068 C 532.247 71.068 533.746 71.276 534.992 71.691 C 536.284 72.106 537.345 72.683 538.175 73.421 C 539.051 74.113 539.697 74.920 540.112 75.843 C 540.528 76.765 540.735 77.734 540.735 78.749 C 540.735 79.579 540.597 80.364 540.320 81.102 C 540.043 81.794 539.674 82.440 539.213 83.039 C 538.798 83.593 538.313 84.100 537.760 84.562 C 537.252 85.023 536.722 85.392 536.168 85.669 C 536.814 86.015 537.460 86.384 538.106 86.845 C 538.752 87.306 539.328 87.860 539.836 88.506 C 540.343 89.152 540.758 89.890 541.081 90.720 C 541.404 91.551 541.566 92.450 541.566 93.419 C 541.566 94.526 541.358 95.564 540.943 96.533 C 540.528 97.502 539.859 98.355 538.936 99.093 C 538.060 99.831 536.883 100.431 535.407 100.892 C 533.977 101.307 532.247 101.515 530.217 101.515 C 523.136 101.515 516.055 101.515 508.974 101.515 C 508.974 101.100 508.974 100.685 508.974 100.269 C 509.343 100.269 509.689 100.200 510.012 100.062 C 510.381 99.877 510.565 99.601 510.565 99.231 M 536.168 85.669 C 536.168 85.692 536.168 85.715 536.168 85.738 M 517.208 96.394 C 521.268 96.394 525.327 96.394 529.387 96.394 C 531.509 96.394 532.962 96.048 533.746 95.356 C 534.531 94.664 534.923 93.696 534.923 92.450 C 534.923 91.020 534.415 89.959 533.400 89.267 C 532.385 88.575 530.679 88.229 528.280 88.229 C 524.589 88.229 520.899 88.229 517.208 88.229 C 517.208 90.951 517.208 93.673 517.208 96.394 M 517.208 83.108 C 521.314 83.109 525.419 83.109 529.525 83.108 C 530.632 83.108 531.670 82.878 532.639 82.416 C 533.608 81.955 534.092 81.009 534.092 79.579 C 534.092 78.841 533.954 78.265 533.677 77.849 C 533.400 77.388 533.054 77.042 532.639 76.812 C 532.224 76.535 531.740 76.373 531.186 76.327 C 530.632 76.235 530.079 76.189 529.525 76.189 C 525.419 76.189 521.314 76.189 517.208 76.189 C 517.208 78.496 517.208 80.802 517.208 83.108 Z"/>
<path fill="#000000" fill-rule="evenodd" stroke="none" d="M 560.318 71.622 C 562.579 70.976 564.977 70.653 567.515 70.653 C 570.052 70.653 572.428 70.976 574.642 71.622 C 576.902 72.268 578.863 73.236 580.524 74.528 C 582.185 75.820 583.499 77.457 584.468 79.441 C 585.437 81.379 585.921 83.662 585.921 86.292 C 585.921 88.921 585.437 91.228 584.468 93.211 C 583.499 95.149 582.185 96.763 580.524 98.055 C 578.863 99.347 576.902 100.292 574.642 100.892 C 572.428 101.446 570.052 101.723 567.515 101.723 C 564.977 101.723 562.579 101.446 560.318 100.892 C 558.104 100.292 556.166 99.347 554.506 98.055 C 552.845 96.763 551.530 95.149 550.561 93.211 C 549.593 91.228 549.108 88.921 549.108 86.292 C 549.108 83.662 549.593 81.379 550.561 79.441 C 551.530 77.457 552.845 75.820 554.506 74.528 C 556.166 73.236 558.104 72.268 560.318 71.622 M 571.805 76.535 C 570.421 76.027 568.991 75.774 567.515 75.774 C 566.038 75.774 564.585 76.027 563.155 76.535 C 561.771 76.996 560.526 77.688 559.419 78.611 C 558.311 79.487 557.412 80.571 556.720 81.863 C 556.074 83.155 555.751 84.631 555.751 86.292 C 555.751 87.952 556.074 89.428 556.720 90.720 C 557.412 92.012 558.311 93.119 559.419 94.042 C 560.526 94.918 561.771 95.610 563.155 96.118 C 564.585 96.579 566.038 96.810 567.515 96.810 C 568.991 96.810 570.421 96.579 571.805 96.118 C 573.235 95.610 574.504 94.918 575.611 94.042 C 576.718 93.119 577.594 92.012 578.240 90.720 C 578.932 89.428 579.278 87.952 579.278 86.292 C 579.278 84.631 578.932 83.155 578.240 81.863 C 577.594 80.571 576.718 79.487 575.611 78.611 C 574.504 77.688 573.235 76.996 571.805 76.535 Z"/>
<path fill="#000000" fill-rule="evenodd" stroke="none" d="M 603.982 71.068 C 603.982 71.484 603.982 71.899 603.982 72.314 C 602.921 72.314 602.390 72.660 602.390 73.352 C 602.390 81.033 602.390 88.714 602.390 96.394 C 608.618 96.394 614.845 96.394 621.073 96.394 C 621.627 96.394 622.088 96.279 622.457 96.048 C 622.826 95.772 623.011 95.403 623.011 94.941 C 623.426 94.941 623.841 94.941 624.256 94.941 C 624.256 97.363 624.256 99.785 624.256 102.207 C 623.841 102.207 623.426 102.207 623.011 102.207 C 623.011 101.838 622.826 101.630 622.457 101.584 C 622.088 101.538 621.627 101.515 621.073 101.515 C 612.031 101.515 602.990 101.515 593.948 101.515 C 593.948 101.100 593.948 100.685 593.948 100.269 C 595.147 100.269 595.747 99.923 595.747 99.231 C 595.747 90.605 595.747 81.978 595.747 73.352 C 595.747 72.660 595.147 72.314 593.948 72.314 C 593.948 71.899 593.948 71.484 593.948 71.068 C 597.292 71.068 600.637 71.068 603.982 71.068 Z"/>
<path fill="#000000" fill-rule="evenodd" stroke="none" d="M 633.391 100.269 C 634.129 100.269 634.636 100.200 634.913 100.062 C 635.190 99.877 635.328 99.600 635.328 99.231 C 635.328 90.605 635.328 81.978 635.328 73.352 C 635.328 72.983 635.190 72.729 634.913 72.590 C 634.636 72.406 634.129 72.314 633.391 72.314 C 633.391 71.899 633.391 71.484 633.391 71.068 C 636.896 71.068 640.402 71.068 643.909 71.068 C 643.908 71.484 643.908 71.899 643.909 72.314 C 642.617 72.314 641.971 72.660 641.971 73.352 C 641.971 81.978 641.971 90.605 641.971 99.231 C 641.971 99.923 642.617 100.269 643.909 100.269 C 643.908 100.685 643.908 101.100 643.909 101.515 C 640.402 101.515 636.896 101.515 633.391 101.515 C 633.391 101.100 633.391 100.685 633.391 100.269 Z"/>
<path fill="#000000" fill-rule="evenodd" stroke="none" d="M 679.891 79.787 C 679.891 79.695 679.868 79.602 679.822 79.510 C 679.822 79.418 679.822 79.303 679.822 79.164 C 679.822 78.934 679.591 78.634 679.130 78.265 C 678.669 77.849 678.000 77.457 677.123 77.088 C 676.293 76.719 675.301 76.419 674.148 76.189 C 672.995 75.912 671.726 75.774 670.342 75.774 C 668.681 75.774 667.159 76.004 665.775 76.466 C 664.437 76.881 663.261 77.527 662.246 78.403 C 661.231 79.280 660.447 80.364 659.893 81.655 C 659.340 82.947 659.063 84.423 659.063 86.084 C 659.063 87.745 659.363 89.244 659.962 90.582 C 660.608 91.873 661.439 93.004 662.453 93.972 C 663.468 94.895 664.622 95.610 665.913 96.118 C 667.205 96.579 668.520 96.810 669.858 96.810 C 671.103 96.810 672.372 96.648 673.663 96.325 C 674.955 96.002 676.131 95.633 677.193 95.218 C 678.253 94.757 679.107 94.272 679.753 93.765 C 680.445 93.257 680.791 92.796 680.791 92.381 C 680.790 92.196 680.790 92.012 680.791 91.827 C 680.791 91.551 680.768 91.320 680.721 91.135 C 680.975 90.905 681.229 90.674 681.483 90.443 C 683.189 92.888 684.896 95.333 686.603 97.778 C 686.372 97.894 686.142 98.009 685.911 98.124 C 685.358 97.894 684.966 97.778 684.735 97.778 C 684.366 97.778 683.766 97.986 682.936 98.401 C 682.105 98.816 681.044 99.301 679.753 99.854 C 678.507 100.362 677.031 100.800 675.324 101.169 C 673.663 101.538 671.795 101.723 669.719 101.723 C 667.597 101.723 665.498 101.423 663.422 100.823 C 661.346 100.223 659.501 99.278 657.886 97.986 C 656.272 96.648 654.957 95.010 653.942 93.073 C 652.927 91.089 652.420 88.806 652.420 86.222 C 652.420 83.639 652.927 81.379 653.942 79.441 C 654.957 77.503 656.295 75.889 657.956 74.597 C 659.616 73.259 661.508 72.268 663.630 71.622 C 665.798 70.976 668.012 70.653 670.273 70.653 C 672.026 70.653 673.617 70.814 675.047 71.137 C 676.524 71.460 677.815 71.829 678.922 72.244 C 680.030 72.660 680.952 73.029 681.690 73.352 C 682.428 73.675 682.959 73.836 683.282 73.836 C 683.513 73.836 683.697 73.767 683.835 73.628 C 684.020 73.490 684.204 73.375 684.389 73.282 C 684.665 73.444 684.942 73.606 685.219 73.767 C 683.697 75.958 682.174 78.150 680.652 80.341 C 680.398 80.156 680.145 79.972 679.891 79.787 Z"/>
</g>
<g id="">
<path fill="#000000" fill-rule="evenodd" stroke="none" d="M 27.023 100.629 C 27.254 100.583 27.438 100.491 27.577 100.352 C 27.761 100.214 27.854 99.891 27.854 99.384 C 27.853 90.942 27.853 82.500 27.854 74.057 C 27.854 73.412 27.784 73.019 27.646 72.881 C 27.554 72.743 27.346 72.673 27.023 72.673 C 27.023 72.259 27.023 71.843 27.023 71.428 C 30.229 71.428 33.435 71.428 36.642 71.428 C 36.641 71.843 36.641 72.259 36.642 72.673 C 36.180 72.673 35.950 72.881 35.950 73.296 C 35.950 73.481 36.019 73.735 36.157 74.057 C 36.342 74.334 36.595 74.749 36.918 75.303 C 39.732 80.493 42.546 85.683 45.360 90.872 C 48.197 85.706 51.034 80.539 53.872 75.372 C 54.195 74.819 54.448 74.380 54.633 74.057 C 54.817 73.688 54.910 73.435 54.910 73.296 C 54.910 72.881 54.725 72.673 54.356 72.673 C 54.356 72.259 54.356 71.843 54.356 71.428 C 57.608 71.428 60.860 71.428 64.113 71.428 C 64.112 71.843 64.112 72.259 64.113 72.673 C 63.882 72.673 63.652 72.743 63.421 72.881 C 63.236 72.973 63.144 73.204 63.144 73.573 C 63.144 82.246 63.144 90.919 63.144 99.591 C 63.144 99.960 63.236 100.237 63.421 100.422 C 63.652 100.560 63.882 100.629 64.113 100.629 C 64.112 101.044 64.112 101.460 64.113 101.875 C 61.437 101.875 58.761 101.875 56.086 101.875 C 56.086 101.460 56.086 101.044 56.086 100.629 C 57.055 100.629 57.470 100.283 57.332 99.591 C 57.331 93.110 57.331 86.628 57.332 80.147 C 57.285 80.147 57.239 80.147 57.193 80.147 C 53.272 87.390 49.351 94.632 45.430 101.875 C 45.245 101.875 45.060 101.875 44.876 101.875 C 41.162 94.632 37.449 87.390 33.735 80.147 C 33.758 80.147 33.781 80.147 33.804 80.147 C 33.758 80.147 33.712 80.147 33.666 80.147 C 33.666 86.628 33.666 93.110 33.666 99.591 C 33.666 100.283 34.058 100.629 34.842 100.629 C 34.842 101.044 34.842 101.460 34.842 101.875 C 32.236 101.875 29.629 101.875 27.023 101.875 C 27.023 101.460 27.023 101.044 27.023 100.629 Z"/>
<path fill="#000000" fill-rule="evenodd" stroke="none" d="M 74.700 73.850 C 74.377 73.435 73.985 73.135 73.524 72.950 C 73.062 72.766 72.624 72.673 72.209 72.673 C 72.209 72.259 72.209 71.843 72.209 71.428 C 76.015 71.428 79.821 71.428 83.627 71.428 C 83.626 71.843 83.626 72.259 83.627 72.673 C 83.396 72.673 83.142 72.766 82.865 72.950 C 82.589 73.089 82.450 73.296 82.450 73.573 C 82.450 73.850 82.542 74.104 82.727 74.334 C 82.912 74.565 83.119 74.842 83.350 75.165 C 85.679 78.209 88.009 81.254 90.339 84.299 C 92.391 81.439 94.444 78.579 96.497 75.718 C 96.912 75.118 97.212 74.680 97.397 74.403 C 97.628 74.080 97.743 73.781 97.743 73.504 C 97.743 73.135 97.628 72.904 97.397 72.812 C 97.166 72.720 96.936 72.673 96.705 72.673 C 96.705 72.259 96.705 71.843 96.705 71.428 C 100.234 71.428 103.763 71.428 107.292 71.428 C 107.292 71.843 107.292 72.259 107.292 72.673 C 106.739 72.673 106.116 72.996 105.424 73.642 C 104.778 74.242 104.201 74.865 103.694 75.511 C 100.164 80.078 96.635 84.645 93.107 89.212 C 93.106 92.672 93.106 96.131 93.107 99.591 C 93.107 100.283 93.545 100.629 94.421 100.629 C 94.421 101.044 94.421 101.460 94.421 101.875 C 91.353 101.875 88.286 101.875 85.218 101.875 C 85.218 101.460 85.218 101.044 85.218 100.629 C 86.048 100.629 86.464 100.283 86.464 99.591 C 86.464 96.039 86.464 92.487 86.464 88.935 C 82.542 83.907 78.621 78.878 74.700 73.850 Z"/>
<path fill="#000000" fill-rule="evenodd" stroke="none" d="M 116.703 91.288 C 116.703 91.472 116.680 91.680 116.634 91.910 C 116.634 92.095 116.634 92.302 116.634 92.533 C 116.634 93.225 117.072 93.871 117.948 94.471 C 118.825 95.024 119.863 95.509 121.062 95.924 C 122.308 96.293 123.530 96.593 124.730 96.823 C 125.975 97.054 126.944 97.169 127.636 97.169 C 128.282 97.169 129.066 97.123 129.989 97.031 C 130.958 96.939 131.903 96.754 132.826 96.477 C 133.749 96.154 134.533 95.739 135.179 95.232 C 135.824 94.678 136.147 93.963 136.147 93.087 C 136.147 92.072 135.571 91.334 134.417 90.872 C 133.310 90.411 131.903 90.065 130.196 89.834 C 128.490 89.558 126.644 89.304 124.661 89.073 C 122.677 88.796 120.832 88.381 119.125 87.828 C 117.418 87.228 115.988 86.398 114.835 85.337 C 113.727 84.229 113.174 82.684 113.174 80.700 C 113.174 77.748 114.396 75.395 116.841 73.642 C 119.286 71.889 122.723 71.013 127.152 71.013 C 129.320 71.013 131.165 71.197 132.688 71.566 C 134.256 71.889 135.571 72.258 136.632 72.673 C 137.693 73.089 138.546 73.481 139.192 73.850 C 139.884 74.173 140.391 74.334 140.714 74.334 C 141.083 74.334 141.360 74.288 141.545 74.196 C 141.729 74.057 141.960 73.919 142.237 73.781 C 142.490 74.035 142.744 74.288 142.998 74.542 C 141.844 76.710 140.691 78.878 139.538 81.046 C 139.123 80.908 138.707 80.770 138.292 80.631 C 138.246 80.354 138.200 80.078 138.154 79.801 C 138.108 79.524 137.900 79.247 137.531 78.970 C 136.609 78.186 135.179 77.517 133.241 76.964 C 131.304 76.410 129.135 76.133 126.737 76.133 C 125.814 76.133 124.937 76.203 124.107 76.341 C 123.277 76.433 122.539 76.618 121.893 76.895 C 121.247 77.171 120.739 77.540 120.370 78.002 C 120.001 78.417 119.817 78.947 119.817 79.593 C 119.817 80.608 120.370 81.346 121.478 81.808 C 122.631 82.223 124.061 82.569 125.768 82.845 C 127.475 83.076 129.320 83.330 131.304 83.607 C 133.287 83.837 135.132 84.252 136.839 84.852 C 138.546 85.452 139.953 86.328 141.060 87.482 C 142.214 88.635 142.790 90.227 142.790 92.256 C 142.790 94.286 142.283 95.947 141.268 97.239 C 140.299 98.530 139.077 99.545 137.601 100.283 C 136.124 101.021 134.487 101.506 132.688 101.736 C 130.935 101.967 129.274 102.082 127.705 102.082 C 126.137 102.082 124.568 101.944 123.000 101.667 C 121.478 101.344 120.071 100.998 118.779 100.629 C 117.533 100.214 116.472 99.845 115.596 99.522 C 114.719 99.153 114.189 98.968 114.004 98.968 C 113.681 98.968 113.405 99.107 113.174 99.384 C 112.851 99.153 112.528 98.922 112.205 98.692 C 113.266 96.108 114.327 93.525 115.388 90.942 C 115.826 91.057 116.265 91.172 116.703 91.288 Z"/>
<path fill="#000000" fill-rule="evenodd" stroke="none" d="M 160.436 100.629 C 160.666 100.629 160.897 100.560 161.128 100.422 C 161.358 100.237 161.474 99.960 161.474 99.591 C 161.473 91.910 161.473 84.230 161.474 76.549 C 158.475 76.549 155.476 76.549 152.478 76.549 C 152.109 76.549 151.763 76.641 151.440 76.825 C 151.117 77.010 150.956 77.310 150.956 77.725 C 150.540 77.725 150.125 77.725 149.710 77.725 C 149.710 75.073 149.710 72.420 149.710 69.767 C 150.125 69.768 150.540 69.768 150.956 69.767 C 150.956 70.413 151.117 70.851 151.440 71.082 C 151.763 71.313 152.109 71.428 152.478 71.428 C 160.689 71.428 168.901 71.428 177.112 71.428 C 177.481 71.428 177.827 71.313 178.150 71.082 C 178.473 70.851 178.635 70.413 178.635 69.767 C 179.049 69.768 179.465 69.768 179.880 69.767 C 179.880 72.420 179.880 75.073 179.880 77.725 C 179.465 77.725 179.049 77.725 178.635 77.725 C 178.635 77.310 178.473 77.010 178.150 76.825 C 177.827 76.641 177.481 76.549 177.112 76.549 C 174.113 76.549 171.115 76.549 168.117 76.549 C 168.116 84.230 168.116 91.910 168.117 99.591 C 168.117 100.283 168.532 100.629 169.362 100.629 C 169.362 101.044 169.362 101.460 169.362 101.875 C 166.386 101.875 163.411 101.875 160.436 101.875 C 160.436 101.460 160.436 101.044 160.436 100.629 Z"/>
<path fill="#000000" fill-rule="evenodd" stroke="none" d="M 188.322 100.629 C 189.060 100.629 189.568 100.560 189.845 100.422 C 190.121 100.237 190.260 99.960 190.260 99.591 C 190.260 90.965 190.260 82.338 190.260 73.711 C 190.260 73.342 190.121 73.089 189.845 72.950 C 189.568 72.766 189.060 72.673 188.322 72.673 C 188.322 72.259 188.322 71.843 188.322 71.428 C 191.828 71.428 195.334 71.428 198.840 71.428 C 198.840 71.843 198.840 72.259 198.840 72.673 C 197.549 72.673 196.903 73.019 196.903 73.711 C 196.903 82.338 196.903 90.965 196.903 99.591 C 196.903 100.283 197.549 100.629 198.840 100.629 C 198.840 101.044 198.840 101.460 198.840 101.875 C 195.334 101.875 191.828 101.875 188.322 101.875 C 188.322 101.460 188.322 101.044 188.322 100.629 Z"/>
<path fill="#000000" fill-rule="evenodd" stroke="none" d="M 234.823 80.147 C 234.823 80.055 234.800 79.962 234.754 79.870 C 234.754 79.778 234.754 79.662 234.754 79.524 C 234.754 79.293 234.523 78.993 234.062 78.624 C 233.600 78.209 232.931 77.817 232.055 77.448 C 231.225 77.079 230.233 76.779 229.079 76.549 C 227.926 76.272 226.658 76.133 225.274 76.133 C 223.613 76.133 222.090 76.364 220.707 76.825 C 219.369 77.241 218.192 77.886 217.178 78.763 C 216.163 79.639 215.378 80.723 214.825 82.015 C 214.271 83.307 213.994 84.783 213.994 86.444 C 213.994 88.104 214.294 89.604 214.894 90.942 C 215.540 92.233 216.370 93.363 217.385 94.332 C 218.400 95.255 219.553 95.970 220.845 96.477 C 222.137 96.939 223.451 97.169 224.789 97.169 C 226.035 97.169 227.303 97.008 228.595 96.685 C 229.887 96.362 231.063 95.993 232.124 95.578 C 233.185 95.116 234.039 94.632 234.684 94.125 C 235.376 93.617 235.722 93.156 235.722 92.741 C 235.722 92.556 235.722 92.372 235.722 92.187 C 235.722 91.910 235.699 91.680 235.653 91.495 C 235.907 91.265 236.160 91.034 236.414 90.803 C 238.121 93.248 239.828 95.693 241.535 98.138 C 241.304 98.253 241.073 98.369 240.843 98.484 C 240.289 98.253 239.897 98.138 239.667 98.138 C 239.298 98.138 238.698 98.346 237.867 98.761 C 237.037 99.176 235.976 99.660 234.684 100.214 C 233.439 100.721 231.963 101.160 230.256 101.529 C 228.595 101.898 226.727 102.082 224.651 102.082 C 222.529 102.082 220.430 101.783 218.354 101.183 C 216.278 100.583 214.433 99.637 212.818 98.346 C 211.203 97.008 209.889 95.370 208.874 93.433 C 207.859 91.449 207.351 89.166 207.351 86.582 C 207.351 83.999 207.859 81.738 208.874 79.801 C 209.889 77.863 211.227 76.249 212.887 74.957 C 214.548 73.619 216.439 72.627 218.561 71.981 C 220.730 71.336 222.944 71.013 225.204 71.013 C 226.957 71.013 228.549 71.174 229.979 71.497 C 231.455 71.820 232.747 72.189 233.854 72.604 C 234.961 73.019 235.884 73.389 236.622 73.711 C 237.360 74.034 237.891 74.196 238.213 74.196 C 238.444 74.196 238.629 74.127 238.767 73.988 C 238.952 73.850 239.136 73.734 239.321 73.642 C 239.597 73.804 239.874 73.965 240.151 74.127 C 238.628 76.318 237.106 78.509 235.584 80.700 C 235.330 80.516 235.076 80.332 234.823 80.147 Z"/>
</g>
</g>
<g id="sample_logos">
<g id="sun_ring">
<path fill="#000000" fill-rule="evenodd" stroke="none" d="M 277.654 81.127 C 277.654 62.274 292.863 47.065 311.717 47.065 C 330.570 47.065 345.779 62.274 345.779 81.127 C 345.779 99.980 330.570 115.190 311.717 115.190 C 292.863 115.190 277.654 99.980 277.654 81.127 M 307.586 122.950 C 308.391 119.418 311.690 116.498 311.690 116.498 C 311.691 116.498 311.356 120.213 312.580 123.144 C 314.445 127.615 317.471 127.854 319.018 131.090 C 320.098 133.349 319.266 135.453 320.627 138.046 C 322.642 141.886 327.910 145.704 327.911 145.705 C 327.911 145.704 325.220 140.775 325.398 137.104 C 325.578 133.378 329.049 131.846 328.788 128.668 C 328.538 125.639 325.095 125.275 324.321 121.245 C 323.642 117.710 325.478 113.735 325.478 113.734 C 325.479 113.735 326.536 117.314 328.765 119.573 C 332.147 123.000 335.050 122.055 337.674 124.470 C 339.515 126.164 339.493 128.444 341.715 130.349 C 344.988 133.154 351.275 134.705 351.276 134.706 C 351.275 134.705 346.876 131.205 345.617 127.748 C 344.349 124.261 346.937 121.524 345.483 118.705 C 344.090 116.001 340.770 116.975 338.516 113.541 C 336.545 110.538 336.725 106.173 336.725 106.172 C 336.725 106.173 339.036 109.103 341.946 110.368 C 346.356 112.286 348.694 110.324 352.025 111.582 C 354.366 112.467 355.196 114.592 357.969 115.529 C 362.050 116.908 368.459 115.996 368.460 115.996 C 368.459 115.995 363.071 114.391 360.612 111.655 C 358.131 108.893 359.509 105.386 357.106 103.311 C 354.805 101.324 352.089 103.462 348.719 101.116 C 345.766 99.061 344.304 94.938 344.303 94.937 C 344.304 94.937 347.560 96.756 350.732 96.816 C 355.549 96.907 356.969 94.224 360.535 94.101 C 363.034 94.015 364.626 95.624 367.542 95.411 C 371.854 95.096 377.435 91.782 377.436 91.781 C 377.435 91.781 371.837 92.278 368.536 90.651 C 365.178 88.995 365.148 85.196 362.118 84.161 C 359.248 83.180 357.534 86.168 353.539 85.258 C 350.008 84.453 347.088 81.154 347.087 81.153 C 347.088 81.153 350.802 81.487 353.734 80.264 C 358.204 78.399 358.443 75.373 361.679 73.826 C 363.939 72.746 366.042 73.578 368.636 72.217 C 372.475 70.202 376.294 64.933 376.294 64.933 C 376.293 64.933 371.365 67.624 367.693 67.446 C 363.968 67.265 362.435 63.794 359.257 64.056 C 356.229 64.305 355.864 67.749 351.835 68.523 C 348.299 69.201 344.324 67.365 344.324 67.365 C 344.324 67.365 347.903 66.308 350.162 64.079 C 353.590 60.697 352.645 57.794 355.059 55.170 C 356.754 53.329 359.034 53.350 360.939 51.128 C 363.744 47.856 365.295 41.569 365.295 41.568 C 365.294 41.568 361.794 45.968 358.337 47.226 C 354.851 48.495 352.114 45.907 349.294 47.360 C 346.590 48.754 347.564 52.074 344.130 54.328 C 341.127 56.299 336.762 56.119 336.762 56.119 C 336.762 56.118 339.692 53.807 340.957 50.898 C 342.875 46.488 340.913 44.150 342.172 40.819 C 343.056 38.478 345.181 37.647 346.118 34.875 C 347.497 30.793 346.585 24.385 346.585 24.384 C 346.585 24.385 344.981 29.773 342.244 32.231 C 339.483 34.713 335.976 33.335 333.901 35.738 C 331.913 38.039 334.051 40.754 331.706 44.125 C 329.651 47.078 325.527 48.540 325.526 48.540 C 325.527 48.540 327.346 45.284 327.405 42.112 C 327.496 37.295 324.814 35.875 324.691 32.309 C 324.604 29.810 326.213 28.218 326.000 25.301 C 325.686 20.990 322.371 15.409 322.371 15.408 C 322.371 15.409 322.867 21.006 321.240 24.307 C 319.584 27.665 315.785 27.696 314.750 30.725 C 313.769 33.596 316.758 35.310 315.847 39.304 C 315.042 42.836 311.743 45.756 311.743 45.757 C 311.742 45.756 312.077 42.041 310.854 39.110 C 308.988 34.639 305.962 34.401 304.415 31.165 C 303.335 28.905 304.167 26.802 302.806 24.208 C 300.792 20.368 295.523 16.550 295.522 16.549 C 295.522 16.550 298.213 21.479 298.035 25.151 C 297.855 28.876 294.384 30.408 294.645 33.586 C 294.895 36.615 298.338 36.979 299.112 41.009 C 299.791 44.544 297.955 48.519 297.955 48.520 C 297.954 48.520 296.897 44.940 294.668 42.681 C 291.286 39.254 288.383 40.199 285.759 37.785 C 283.918 36.090 283.940 33.810 281.718 31.905 C 278.445 29.100 272.158 27.549 272.157 27.548 C 272.158 27.549 276.557 31.049 277.816 34.506 C 279.085 37.993 276.496 40.730 277.950 43.549 C 279.344 46.253 282.663 45.279 284.917 48.714 C 286.888 51.716 286.708 56.081 286.708 56.082 C 286.708 56.082 284.397 53.151 281.487 51.886 C 277.077 49.969 274.739 51.930 271.408 50.672 C 269.067 49.787 268.237 47.662 265.464 46.725 C 261.383 45.346 254.974 46.259 254.973 46.258 C 254.974 46.259 260.362 47.863 262.821 50.599 C 265.302 53.361 263.925 56.868 266.327 58.943 C 268.629 60.930 271.344 58.792 274.714 61.138 C 277.667 63.193 279.129 67.317 279.130 67.317 C 279.129 67.317 275.873 65.498 272.701 65.438 C 267.884 65.348 266.464 68.030 262.898 68.153 C 260.399 68.239 258.808 66.630 255.891 66.843 C 251.579 67.158 245.998 70.473 245.997 70.473 C 245.998 70.473 251.596 69.976 254.897 71.604 C 258.255 73.259 258.285 77.058 261.315 78.093 C 264.185 79.074 265.899 76.086 269.894 76.996 C 273.425 77.801 276.345 81.101 276.346 81.101 C 276.345 81.101 272.631 80.767 269.699 81.990 C 265.229 83.855 264.990 86.881 261.754 88.428 C 259.494 89.508 257.391 88.676 254.797 90.037 C 250.958 92.052 247.140 97.321 247.139 97.321 C 247.140 97.321 252.068 94.630 255.740 94.808 C 259.465 94.989 260.998 98.460 264.176 98.198 C 267.204 97.949 267.569 94.505 271.599 93.732 C 275.134 93.053 279.109 94.889 279.110 94.889 C 279.109 94.889 275.530 95.946 273.271 98.175 C 269.843 101.558 270.789 104.460 268.374 107.084 C 266.679 108.926 264.399 108.904 262.495 111.126 C 259.689 114.398 258.138 120.685 258.138 120.686 C 258.139 120.686 261.639 116.286 265.096 115.028 C 268.582 113.759 271.319 116.347 274.139 114.894 C 276.843 113.500 275.869 110.181 279.303 107.926 C 282.306 105.955 286.671 106.136 286.671 106.135 C 286.671 106.136 283.741 108.447 282.476 111.356 C 280.558 115.766 282.520 118.105 281.261 121.436 C 280.377 123.777 278.252 124.607 277.315 127.380 C 275.936 131.461 276.848 137.869 276.848 137.870 C 276.848 137.870 278.452 132.482 281.189 130.023 C 283.950 127.541 287.457 128.919 289.532 126.517 C 291.520 124.215 289.382 121.500 291.727 118.129 C 293.782 115.176 297.906 113.714 297.907 113.714 C 297.907 113.714 296.087 116.970 296.028 120.142 C 295.937 124.960 298.619 126.380 298.742 129.945 C 298.829 132.444 297.220 134.036 297.433 136.953 C 297.747 141.265 301.062 146.845 301.062 146.846 C 301.062 146.846 300.566 141.248 302.193 137.947 C 303.849 134.589 307.648 134.558 308.683 131.529 C 309.664 128.658 306.675 126.944 307.586 122.950 Z"/>
<path fill="#000000" fill-rule="evenodd" stroke="none" d="M 307.754 81.127 C 307.754 78.934 309.523 77.164 311.717 77.164 C 313.910 77.164 315.679 78.934 315.679 81.127 C 315.679 83.320 313.910 85.090 311.717 85.090 C 309.523 85.090 307.754 83.320 307.754 81.127 M 300.624 81.127 C 300.624 74.988 305.577 70.035 311.717 70.035 C 317.856 70.035 322.809 74.988 322.809 81.127 C 322.809 87.267 317.856 92.219 311.717 92.219 C 305.577 92.219 300.624 87.267 300.624 81.127 M 284.005 81.127 C 284.008 81.126 295.268 67.709 311.717 67.709 C 328.165 67.709 339.425 81.126 339.428 81.127 C 339.425 81.128 328.165 94.545 311.717 94.545 C 295.268 94.545 284.008 81.128 284.005 81.127 Z"/>
</g>
</g>
</svg>
