<?xml version="1.0" encoding="utf-8"?>
<!-- Generator: Moho 13.5 build 20210422 -->
<!DOCTYPE svg PUBLIC "-//W3C//DTD SVG 1.1//EN" "http://www.w3.org/Graphics/SVG/1.1/DTD/svg11.dtd">
<svg version="1.1" id="Frame_0" xmlns="http://www.w3.org/2000/svg" xmlns:xlink="http://www.w3.org/1999/xlink" width="720px" height="720px">
<g id="angel_2">
<g id="wings_sun">
<path id="S2" fill="#000000" fill-rule="evenodd" stroke="#ffffff" stroke-width="2" stroke-linejoin="round" d="M 506.987 137.950 C 568.739 136.960 619.798 136.142 676.684 135.230 C 681.210 154.644 656.742 180.776 640.863 180.285 C 595.141 174.638 554.231 169.585 504.754 163.474 C 506.166 155.642 506.972 146.891 506.987 137.950 C 506.856 137.949 506.856 137.949 506.987 137.950 C 506.856 137.949 506.856 137.949 506.856 137.949 Z"/>
<path fill="none" stroke="#000000" stroke-width="1" stroke-linecap="butt" stroke-linejoin="round" d="M 504.754 163.474 C 554.231 169.585 595.141 174.638 640.863 180.285 "/>
<path id="S3" fill="#000000" fill-rule="evenodd" stroke="#ffffff" stroke-width="2" stroke-linejoin="round" d="M 504.754 163.474 C 554.231 169.585 595.141 174.638 640.863 180.285 C 638.457 200.361 615.583 217.740 592.587 216.623 C 560.789 207.063 532.425 198.536 498.122 188.223 C 501.068 179.877 503.252 171.801 504.754 163.474 Z"/>
<path fill="none" stroke="#000000" stroke-width="1" stroke-linecap="butt" stroke-linejoin="round" d="M 498.122 188.223 C 532.425 198.536 560.789 207.063 592.587 216.623 "/>
<path id="S4" fill="#000000" fill-rule="evenodd" stroke="#ffffff" stroke-width="2" stroke-linejoin="round" d="M 498.122 188.223 C 532.425 198.536 560.789 207.063 592.587 216.623 C 591.536 231.519 576.814 245.100 559.238 245.799 C 534.971 234.210 513.392 223.906 487.294 211.443 C 491.742 203.687 495.261 196.113 498.122 188.223 Z"/>
<path fill="none" stroke="#000000" stroke-width="1" stroke-linecap="butt" stroke-linejoin="round" d="M 487.294 211.443 C 513.392 223.906 534.971 234.210 559.238 245.799 "/>
<path id="S5" fill="#000000" fill-rule="evenodd" stroke="#ffffff" stroke-width="2" stroke-linejoin="round" d="M 487.294 211.443 C 513.392 223.906 534.971 234.210 559.238 245.799 C 555.932 258.697 544.078 271.138 533.146 273.387 C 513.067 259.805 494.747 247.413 472.598 232.431 C 478.164 225.871 483.057 218.858 487.294 211.443 Z"/>
<path fill="none" stroke="#000000" stroke-width="1" stroke-linecap="butt" stroke-linejoin="round" d="M 472.598 232.431 C 494.747 247.413 513.067 259.805 533.146 273.387 "/>
<path id="S6" fill="#000000" fill-rule="evenodd" stroke="#ffffff" stroke-width="2" stroke-linejoin="round" d="M 472.598 232.431 C 494.747 247.413 513.067 259.805 533.146 273.387 C 529.804 283.581 513.119 298.908 501.534 297.238 C 485.930 281.754 471.693 267.627 454.481 250.548 C 460.802 245.319 467.007 239.126 472.598 232.431 Z"/>
<path fill="none" stroke="#000000" stroke-width="1" stroke-linecap="butt" stroke-linejoin="round" d="M 454.481 250.548 C 471.693 267.627 485.930 281.754 501.534 297.238 "/>
<path id="S7" fill="#000000" fill-rule="evenodd" stroke="#ffffff" stroke-width="2" stroke-linejoin="round" d="M 454.481 250.548 C 471.693 267.627 485.930 281.754 501.534 297.238 C 493.486 308.659 474.674 311.138 463.490 307.563 C 453.563 293.558 444.477 280.741 433.493 265.244 C 441.164 260.740 448.044 255.915 454.481 250.548 Z"/>
<path fill="none" stroke="#000000" stroke-width="1" stroke-linecap="butt" stroke-linejoin="round" d="M 433.493 265.244 C 444.477 280.741 453.563 293.558 463.490 307.563 "/>
<path id="S8" fill="#000000" fill-rule="evenodd" stroke="#ffffff" stroke-width="2" stroke-linejoin="round" d="M 433.493 265.244 C 444.477 280.741 453.563 293.558 463.490 307.563 C 456.350 315.696 440.165 320.344 427.837 311.790 C 421.912 299.742 416.644 289.029 410.272 276.072 C 418.519 273.056 426.228 269.449 433.493 265.244 Z"/>
<path fill="none" stroke="#000000" stroke-width="1" stroke-linecap="butt" stroke-linejoin="round" d="M 427.837 311.790 C 421.912 299.742 416.644 289.029 410.272 276.072 "/>
<path id="S9" fill="#000000" fill-rule="evenodd" stroke="#ffffff" stroke-width="2" stroke-linejoin="round" d="M 410.272 276.072 C 402.376 278.928 394.080 281.142 385.523 282.703 C 387.943 293.282 389.945 302.032 392.132 311.593 C 402.874 320.703 416.362 320.621 427.837 311.790 C 421.912 299.742 416.644 289.029 410.272 276.072 Z"/>
<path id="S11" fill="none" stroke="#ffffff" stroke-width="2" stroke-linejoin="round" d="M 504.757 112.425 C 474.634 116.155 415.035 123.794 415.026 123.795 M 504.757 112.425 C 506.113 120.819 506.857 129.295 506.987 137.950 C 506.856 137.949 506.856 137.949 506.856 137.949 C 506.856 137.949 506.856 137.949 506.987 137.950 C 506.972 146.891 506.166 155.642 504.754 163.474 C 503.252 171.801 501.068 179.877 498.122 188.223 C 495.261 196.113 491.742 203.687 487.294 211.443 C 483.057 218.858 478.164 225.871 472.598 232.431 C 467.007 239.126 460.802 245.319 454.481 250.548 C 448.044 255.915 441.164 260.740 433.493 265.244 C 426.228 269.449 418.519 273.056 410.272 276.072 C 402.376 278.928 394.080 281.142 385.523 282.703 C 377.234 284.053 360.002 284.936 359.999 284.936 "/>
<path id="S2_2" fill="#000000" fill-rule="evenodd" stroke="#ffffff" stroke-width="2" stroke-linejoin="round" d="M 215.159 163.474 C 213.747 155.642 212.941 146.891 212.926 137.950 C 151.175 136.960 100.115 136.142 43.230 135.230 C 38.703 154.644 63.171 180.776 79.051 180.285 C 124.772 174.638 165.682 169.585 215.159 163.474 M 212.926 137.950 C 213.057 137.949 213.057 137.949 213.057 137.949 C 213.057 137.949 213.057 137.949 212.926 137.950 Z"/>
<path fill="none" stroke="#000000" stroke-width="1" stroke-linecap="butt" stroke-linejoin="round" d="M 215.159 163.474 C 165.682 169.585 124.772 174.638 79.051 180.285 "/>
<path id="S3_2" fill="#000000" fill-rule="evenodd" stroke="#ffffff" stroke-width="2" stroke-linejoin="round" d="M 215.159 163.474 C 165.682 169.585 124.772 174.638 79.051 180.285 C 81.457 200.361 104.330 217.740 127.327 216.623 C 159.125 207.063 187.488 198.536 221.791 188.223 C 218.845 179.877 216.661 171.801 215.159 163.474 Z"/>
<path fill="none" stroke="#000000" stroke-width="1" stroke-linecap="butt" stroke-linejoin="round" d="M 221.791 188.223 C 187.488 198.536 159.125 207.063 127.327 216.623 "/>
<path id="S4_2" fill="#000000" fill-rule="evenodd" stroke="#ffffff" stroke-width="2" stroke-linejoin="round" d="M 221.791 188.223 C 187.488 198.536 159.125 207.063 127.327 216.623 C 128.378 231.519 143.099 245.100 160.675 245.799 C 184.942 234.210 206.521 223.906 232.619 211.443 C 228.171 203.687 224.652 196.113 221.791 188.223 Z"/>
<path fill="none" stroke="#000000" stroke-width="1" stroke-linecap="butt" stroke-linejoin="round" d="M 232.619 211.443 C 206.521 223.906 184.942 234.210 160.675 245.799 "/>
<path id="S5_2" fill="#000000" fill-rule="evenodd" stroke="#ffffff" stroke-width="2" stroke-linejoin="round" d="M 232.619 211.443 C 206.521 223.906 184.942 234.210 160.675 245.799 C 163.982 258.697 175.835 271.138 186.767 273.387 C 206.847 259.805 225.167 247.413 247.315 232.431 C 241.749 225.871 236.856 218.858 232.619 211.443 Z"/>
<path fill="none" stroke="#000000" stroke-width="1" stroke-linecap="butt" stroke-linejoin="round" d="M 247.315 232.431 C 225.167 247.413 206.847 259.805 186.767 273.387 "/>
<path id="S6_2" fill="#000000" fill-rule="evenodd" stroke="#ffffff" stroke-width="2" stroke-linejoin="round" d="M 247.315 232.431 C 225.167 247.413 206.847 259.805 186.767 273.387 C 190.109 283.581 206.794 298.908 218.379 297.238 C 233.983 281.754 248.220 267.627 265.433 250.548 C 259.111 245.319 252.907 239.126 247.315 232.431 Z"/>
<path fill="none" stroke="#000000" stroke-width="1" stroke-linecap="butt" stroke-linejoin="round" d="M 265.433 250.548 C 248.220 267.627 233.983 281.754 218.379 297.238 "/>
<path id="S7_2" fill="#000000" fill-rule="evenodd" stroke="#ffffff" stroke-width="2" stroke-linejoin="round" d="M 265.433 250.548 C 248.220 267.627 233.983 281.754 218.379 297.238 C 226.428 308.659 245.239 311.138 256.424 307.563 C 266.351 293.558 275.436 280.741 286.420 265.244 C 278.749 260.740 271.869 255.915 265.433 250.548 Z"/>
<path fill="none" stroke="#000000" stroke-width="1" stroke-linecap="butt" stroke-linejoin="round" d="M 286.420 265.244 C 275.436 280.741 266.351 293.558 256.424 307.563 "/>
<path id="S8_2" fill="#000000" fill-rule="evenodd" stroke="#ffffff" stroke-width="2" stroke-linejoin="round" d="M 286.420 265.244 C 275.436 280.741 266.351 293.558 256.424 307.563 C 263.564 315.696 279.749 320.344 292.076 311.790 C 298.001 299.742 303.270 289.029 309.641 276.072 C 301.394 273.056 293.686 269.449 286.420 265.244 Z"/>
<path fill="none" stroke="#000000" stroke-width="1" stroke-linecap="butt" stroke-linejoin="round" d="M 309.641 276.072 C 303.270 289.029 298.001 299.742 292.076 311.790 "/>
<path id="S9_2" fill="#000000" fill-rule="evenodd" stroke="#ffffff" stroke-width="2" stroke-linejoin="round" d="M 334.390 282.703 C 325.833 281.143 317.538 278.928 309.641 276.072 C 303.270 289.029 298.001 299.742 292.076 311.790 C 303.551 320.621 317.040 320.704 327.781 311.593 C 329.968 302.032 331.970 293.282 334.390 282.703 Z"/>
<path id="S11_2" fill="none" stroke="#ffffff" stroke-width="2" stroke-linejoin="round" d="M 359.999 284.936 C 359.997 284.936 342.707 284.057 334.390 282.703 C 325.833 281.143 317.538 278.928 309.641 276.072 C 301.394 273.056 293.686 269.449 286.420 265.244 C 278.749 260.740 271.869 255.915 265.433 250.548 C 259.111 245.319 252.907 239.126 247.315 232.431 C 241.749 225.871 236.856 218.858 232.619 211.443 C 228.171 203.687 224.652 196.113 221.791 188.223 C 218.845 179.877 216.661 171.801 215.159 163.474 C 213.747 155.642 212.941 146.891 212.926 137.950 C 213.057 137.949 213.057 137.949 213.057 137.949 C 213.057 137.949 213.057 137.949 212.926 137.950 C 213.056 129.295 213.800 120.819 215.156 112.425 C 245.279 116.155 304.878 123.794 304.887 123.795 "/>
<path fill="none" stroke="#000000" stroke-width="1" stroke-linecap="butt" stroke-linejoin="round" d="M 506.856 137.949 C 506.856 137.949 506.856 137.949 506.987 137.950 "/>
<path fill="none" stroke="#000000" stroke-width="1" stroke-linecap="butt" stroke-linejoin="round" d="M 506.987 137.950 C 506.856 137.949 506.856 137.949 506.856 137.949 "/>
<path fill="none" stroke="#000000" stroke-width="1" stroke-linecap="butt" stroke-linejoin="round" d="M 506.987 137.950 C 568.739 136.960 619.798 136.142 676.684 135.230 "/>
<path id="S19" fill="#000000" fill-rule="evenodd" stroke="#ffffff" stroke-width="2" stroke-linejoin="round" d="M 702.124 86.521 C 672.601 90.396 568.247 103.999 504.757 112.425 C 506.113 120.819 506.857 129.295 506.987 137.950 C 506.856 137.949 506.856 137.949 506.987 137.950 C 506.856 137.949 506.856 137.949 506.856 137.949 C 568.739 136.960 619.798 136.142 676.684 135.230 C 697.699 128.841 705.187 103.417 702.124 86.521 Z"/>
<path fill="none" stroke="#000000" stroke-width="1" stroke-linecap="butt" stroke-linejoin="round" d="M 392.132 311.593 C 389.945 302.032 387.943 293.282 385.523 282.703 "/>
<path id="S20" fill="#000000" fill-rule="evenodd" stroke="#ffffff" stroke-width="2" stroke-linejoin="round" d="M 385.523 282.703 C 377.234 284.053 360.002 284.936 359.999 284.936 C 360.000 294.102 360.000 303.267 360.000 312.432 C 366.669 318.181 385.858 322.140 392.132 311.593 C 389.945 302.032 387.943 293.282 385.523 282.703 Z"/>
<path fill="none" stroke="#000000" stroke-width="1" stroke-linecap="butt" stroke-linejoin="round" d="M 360.000 312.432 C 360.000 303.267 360.000 294.102 359.999 284.936 "/>
<path fill="none" stroke="#000000" stroke-width="1" stroke-linecap="butt" stroke-linejoin="round" d="M 334.390 282.703 C 331.970 293.282 329.968 302.032 327.781 311.593 "/>
<path id="S21" fill="#000000" fill-rule="evenodd" stroke="#ffffff" stroke-width="2" stroke-linejoin="round" d="M 360.000 312.432 C 360.000 303.267 360.000 294.102 359.999 284.936 C 359.997 284.936 342.707 284.057 334.390 282.703 C 331.970 293.282 329.968 302.032 327.781 311.593 C 334.073 322.168 353.147 318.235 360.000 312.432 Z"/>
<path fill="none" stroke="#000000" stroke-width="1" stroke-linecap="butt" stroke-linejoin="round" d="M 212.926 137.950 C 213.057 137.949 213.057 137.949 213.057 137.949 "/>
<path fill="none" stroke="#000000" stroke-width="1" stroke-linecap="butt" stroke-linejoin="round" d="M 43.230 135.230 C 100.115 136.142 151.175 136.960 212.926 137.950 "/>
<path fill="none" stroke="#000000" stroke-width="1" stroke-linecap="butt" stroke-linejoin="round" d="M 213.057 137.949 C 213.057 137.949 213.057 137.949 212.926 137.950 "/>
<path id="S22" fill="#000000" fill-rule="evenodd" stroke="#ffffff" stroke-width="2" stroke-linejoin="round" d="M 212.926 137.950 C 213.057 137.949 213.057 137.949 213.057 137.949 C 213.056 129.295 213.800 120.819 215.156 112.425 C 151.666 103.999 47.312 90.396 17.789 86.521 C 14.726 103.417 22.215 128.841 43.230 135.230 C 100.115 136.142 151.175 136.960 212.926 137.950 C 213.057 137.949 213.057 137.949 212.926 137.950 Z"/>
<path fill="none" stroke="#000000" stroke-width="1" stroke-linecap="butt" stroke-linejoin="round" d="M 215.156 112.425 C 213.800 120.819 213.056 129.295 212.926 137.950 "/>
<path fill="none" stroke="#000000" stroke-width="1" stroke-linecap="butt" stroke-linejoin="round" d="M 213.057 137.949 C 213.057 137.949 213.057 137.949 212.926 137.950 "/>
<path fill="none" stroke="#000000" stroke-width="1" stroke-linecap="butt" stroke-linejoin="round" d="M 212.926 137.950 C 213.057 137.949 213.057 137.949 213.057 137.949 "/>
<path fill="none" stroke="#000000" stroke-width="1" stroke-linecap="butt" stroke-linejoin="round" d="M 212.926 137.950 C 212.941 146.891 213.747 155.642 215.159 163.474 "/>
<path fill="none" stroke="#000000" stroke-width="1" stroke-linecap="butt" stroke-linejoin="round" d="M 215.159 163.474 C 216.661 171.801 218.845 179.877 221.791 188.223 "/>
<path fill="none" stroke="#000000" stroke-width="1" stroke-linecap="butt" stroke-linejoin="round" d="M 221.791 188.223 C 224.652 196.113 228.171 203.687 232.619 211.443 "/>
<path fill="none" stroke="#000000" stroke-width="1" stroke-linecap="butt" stroke-linejoin="round" d="M 232.619 211.443 C 236.856 218.858 241.749 225.871 247.315 232.431 "/>
<path fill="none" stroke="#000000" stroke-width="1" stroke-linecap="butt" stroke-linejoin="round" d="M 247.315 232.431 C 252.907 239.126 259.111 245.319 265.433 250.548 "/>
<path fill="none" stroke="#000000" stroke-width="1" stroke-linecap="butt" stroke-linejoin="round" d="M 265.433 250.548 C 271.869 255.915 278.749 260.740 286.420 265.244 "/>
<path fill="none" stroke="#000000" stroke-width="1" stroke-linecap="butt" stroke-linejoin="round" d="M 286.420 265.244 C 293.686 269.449 301.394 273.056 309.641 276.072 "/>
<path fill="none" stroke="#000000" stroke-width="1" stroke-linecap="butt" stroke-linejoin="round" d="M 309.641 276.072 C 317.538 278.928 325.833 281.143 334.390 282.703 "/>
<path fill="none" stroke="#000000" stroke-width="1" stroke-linecap="butt" stroke-linejoin="round" d="M 334.390 282.703 C 342.707 284.057 359.997 284.936 359.999 284.936 "/>
<path fill="none" stroke="#000000" stroke-width="1" stroke-linecap="butt" stroke-linejoin="round" d="M 359.999 284.936 C 360.002 284.936 377.234 284.053 385.523 282.703 "/>
<path fill="none" stroke="#000000" stroke-width="1" stroke-linecap="butt" stroke-linejoin="round" d="M 385.523 282.703 C 394.080 281.142 402.376 278.928 410.272 276.072 "/>
<path fill="none" stroke="#000000" stroke-width="1" stroke-linecap="butt" stroke-linejoin="round" d="M 410.272 276.072 C 418.519 273.056 426.228 269.449 433.493 265.244 "/>
<path fill="none" stroke="#000000" stroke-width="1" stroke-linecap="butt" stroke-linejoin="round" d="M 433.493 265.244 C 441.164 260.740 448.044 255.915 454.481 250.548 "/>
<path fill="none" stroke="#000000" stroke-width="1" stroke-linecap="butt" stroke-linejoin="round" d="M 454.481 250.548 C 460.802 245.319 467.007 239.126 472.598 232.431 "/>
<path fill="none" stroke="#000000" stroke-width="1" stroke-linecap="butt" stroke-linejoin="round" d="M 472.598 232.431 C 478.164 225.871 483.057 218.858 487.294 211.443 "/>
<path fill="none" stroke="#000000" stroke-width="1" stroke-linecap="butt" stroke-linejoin="round" d="M 487.294 211.443 C 491.742 203.687 495.261 196.113 498.122 188.223 "/>
<path fill="none" stroke="#000000" stroke-width="1" stroke-linecap="butt" stroke-linejoin="round" d="M 498.122 188.223 C 501.068 179.877 503.252 171.801 504.754 163.474 "/>
<path fill="none" stroke="#000000" stroke-width="1" stroke-linecap="butt" stroke-linejoin="round" d="M 504.754 163.474 C 506.166 155.642 506.972 146.891 506.987 137.950 "/>
<path fill="none" stroke="#000000" stroke-width="1" stroke-linecap="butt" stroke-linejoin="round" d="M 506.856 137.949 C 506.856 137.949 506.856 137.949 506.987 137.950 "/>
<path fill="none" stroke="#000000" stroke-width="1" stroke-linecap="butt" stroke-linejoin="round" d="M 506.987 137.950 C 506.856 137.949 506.856 137.949 506.856 137.949 "/>
<path fill="none" stroke="#000000" stroke-width="1" stroke-linecap="butt" stroke-linejoin="round" d="M 506.987 137.950 C 506.857 129.295 506.113 120.819 504.757 112.425 "/>
<path id="S23" fill="#000000" fill-rule="evenodd" stroke="#ffffff" stroke-width="2" stroke-linejoin="round" d="M 304.887 123.795 C 304.878 123.794 245.279 116.155 215.156 112.425 C 213.800 120.819 213.056 129.295 212.926 137.950 C 213.057 137.949 213.057 137.949 212.926 137.950 C 213.057 137.949 213.057 137.949 213.057 137.949 C 212.941 146.891 213.747 155.642 215.159 163.474 C 216.661 171.801 218.845 179.877 221.791 188.223 C 224.652 196.113 228.171 203.687 232.619 211.443 C 236.856 218.858 241.749 225.871 247.315 232.431 C 252.907 239.126 259.111 245.319 265.433 250.548 C 271.869 255.915 278.749 260.740 286.420 265.244 C 293.686 269.449 301.394 273.056 309.641 276.072 C 317.538 278.928 325.833 281.143 334.390 282.703 C 342.707 284.057 359.997 284.936 359.999 284.936 C 360.002 284.936 377.234 284.053 385.523 282.703 C 394.080 281.142 402.376 278.928 410.272 276.072 C 418.519 273.056 426.228 269.449 433.493 265.244 C 441.164 260.740 448.044 255.915 454.481 250.548 C 460.802 245.319 467.007 239.126 472.598 232.431 C 478.164 225.871 483.057 218.858 487.294 211.443 C 491.742 203.687 495.261 196.113 498.122 188.223 C 501.068 179.877 503.252 171.801 504.754 163.474 C 506.166 155.642 506.972 146.891 506.987 137.950 C 506.856 137.949 506.856 137.949 506.987 137.950 C 506.856 137.949 506.856 137.949 506.856 137.949 C 506.857 129.295 506.113 120.819 504.757 112.425 C 474.634 116.155 415.035 123.794 415.026 123.795 C 415.015 123.795 304.898 123.795 304.887 123.795 Z"/>
</g>
<g id="angel_lovers_2">
<path fill="#ffffff" fill-rule="evenodd" stroke="#000000" stroke-width="2" stroke-linecap="round" stroke-linejoin="round" d="M 522.427 265.102 C 519.070 258.348 516.635 245.931 517.928 240.348 C 520.134 230.824 526.469 218.981 528.505 216.225 C 530.255 213.856 540.712 201.625 544.006 197.279 C 547.650 192.472 551.544 181.325 554.515 180.600 C 556.727 180.059 560.269 184.725 560.293 187.389 C 560.328 191.377 558.122 196.580 557.765 197.821 C 556.362 202.703 545.256 216.791 546.912 219.146 C 548.823 221.863 554.711 221.218 557.982 220.955 C 560.670 220.739 576.236 213.491 578.637 212.265 C 581.351 210.879 598.270 200.268 600.254 199.067 C 601.975 198.025 616.467 187.988 619.101 187.752 C 619.962 187.675 624.423 186.844 626.014 189.698 C 627.364 192.122 625.545 194.633 625.225 195.223 C 623.901 197.656 608.044 207.155 606.366 208.430 C 604.669 209.718 588.397 220.413 588.389 223.213 C 588.388 223.632 589.988 225.900 590.369 226.073 C 592.867 227.203 609.917 219.262 611.864 218.515 C 614.100 217.657 632.877 208.090 636.005 208.438 C 636.705 208.516 640.078 208.514 641.154 211.222 C 642.096 213.593 640.129 216.106 639.733 216.653 C 637.930 219.144 618.870 226.838 616.800 227.927 C 614.880 228.937 596.924 236.778 596.129 239.516 C 595.992 239.989 596.843 243.156 597.234 243.456 C 599.226 244.989 615.640 238.839 617.492 238.361 C 619.308 237.893 634.901 232.577 637.303 233.130 C 637.993 233.289 641.682 233.885 642.135 236.497 C 642.559 238.944 639.129 241.960 638.481 242.503 C 636.612 244.070 620.838 247.801 619.093 248.435 C 616.859 249.247 596.990 256.048 595.195 258.606 C 594.935 258.977 594.169 261.902 594.411 262.285 C 595.792 264.473 613.655 258.907 615.579 258.491 C 617.186 258.144 630.590 253.923 632.995 254.093 C 633.651 254.139 636.865 255.284 637.280 257.481 C 637.672 259.562 634.919 262.328 634.375 262.815 C 632.295 264.678 614.185 268.888 612.152 269.508 C 608.251 270.696 574.894 281.929 569.582 282.653 C 565.888 283.156 548.547 287.074 538.594 282.121 C 529.341 277.517 524.876 270.030 522.427 265.102 Z"/>
<path fill="#ffffff" fill-rule="evenodd" stroke="#000000" stroke-width="2" stroke-linecap="round" stroke-linejoin="round" d="M 197.573 265.102 C 200.930 258.348 203.365 245.931 202.072 240.348 C 199.866 230.824 193.532 218.981 191.496 216.225 C 189.745 213.856 179.288 201.625 175.993 197.278 C 172.349 192.471 168.456 181.325 165.485 180.599 C 163.273 180.059 159.731 184.725 159.707 187.389 C 159.672 191.377 161.878 196.580 162.235 197.821 C 163.638 202.703 174.744 216.791 173.088 219.145 C 171.177 221.863 165.289 221.218 162.018 220.955 C 159.330 220.738 143.764 213.491 141.363 212.265 C 138.649 210.879 121.730 200.268 119.746 199.067 C 118.025 198.025 103.533 187.988 100.899 187.752 C 100.038 187.675 95.577 186.844 93.986 189.698 C 92.636 192.122 94.455 194.633 94.775 195.223 C 96.099 197.656 111.956 207.154 113.634 208.429 C 115.331 209.718 131.603 220.413 131.611 223.213 C 131.613 223.632 130.012 225.900 129.631 226.073 C 127.133 227.203 110.083 219.262 108.135 218.515 C 105.900 217.657 87.123 208.091 83.995 208.438 C 83.295 208.516 79.922 208.514 78.846 211.221 C 77.903 213.593 79.871 216.106 80.267 216.653 C 82.070 219.144 101.130 226.838 103.200 227.927 C 105.121 228.937 123.076 236.779 123.871 239.517 C 124.008 239.989 123.157 243.156 122.766 243.456 C 120.774 244.989 104.360 238.839 102.508 238.361 C 100.692 237.893 85.099 232.577 82.697 233.130 C 82.007 233.289 78.318 233.886 77.865 236.497 C 77.441 238.944 80.870 241.960 81.518 242.503 C 83.388 244.070 99.162 247.801 100.907 248.435 C 103.141 249.247 123.010 256.048 124.805 258.606 C 125.065 258.977 125.831 261.902 125.589 262.285 C 124.208 264.473 106.345 258.908 104.421 258.492 C 102.814 258.144 89.410 253.922 87.005 254.092 C 86.349 254.139 83.135 255.283 82.720 257.481 C 82.328 259.562 85.081 262.328 85.625 262.816 C 87.705 264.679 105.815 268.888 107.847 269.508 C 111.749 270.696 145.106 281.929 150.418 282.653 C 154.112 283.156 171.453 287.074 181.406 282.121 C 190.659 277.517 195.124 270.030 197.573 265.102 Z"/>
<path id="S27" fill="#ffffff" fill-rule="evenodd" stroke="#000000" stroke-width="2" stroke-linecap="round" stroke-linejoin="round" d="M 414.882 223.898 C 414.883 223.899 419.954 230.330 426.339 233.106 C 436.017 237.314 441.149 233.008 448.459 235.770 C 453.596 237.712 455.418 242.375 461.503 244.431 C 470.460 247.458 484.524 245.456 484.526 245.456 C 484.524 245.455 472.700 241.935 467.304 235.930 C 461.859 229.869 464.882 222.173 459.610 217.620 C 454.559 213.258 448.601 217.950 441.203 212.802 C 434.723 208.292 431.514 199.242 431.513 199.241 C 431.515 199.241 438.660 203.233 445.621 203.364 C 456.193 203.564 459.309 197.677 467.135 197.407 C 472.619 197.218 476.112 200.748 482.513 200.281 C 491.975 199.591 504.222 192.317 504.225 192.316 C 504.223 192.316 491.937 193.407 484.694 189.835 C 477.324 186.201 477.258 177.864 470.610 175.592 C 464.310 173.440 460.548 179.998 451.782 178.000 C 444.032 176.234 437.624 168.994 437.622 168.993 C 437.624 168.992 445.776 169.726 452.209 167.041 C 462.019 162.948 462.544 156.308 469.645 152.913 C 474.604 150.542 479.220 152.368 484.912 149.381 C 493.338 144.959 501.718 133.397 501.719 133.395 C 501.718 133.396 490.901 139.301 482.844 138.911 C 474.668 138.515 471.305 130.897 464.331 131.472 C 457.685 132.019 456.885 139.576 448.041 141.273 C 440.283 142.763 431.559 138.734 431.558 138.734 C 431.559 138.733 439.413 136.413 444.371 131.521 C 451.893 124.099 449.819 117.728 455.118 111.970 C 458.837 107.929 463.840 107.977 468.021 103.100 C 474.176 95.919 477.580 82.122 477.581 82.120 C 477.580 82.121 469.898 91.776 462.311 94.538 C 454.660 97.322 448.654 91.642 442.467 94.832 C 436.533 97.891 438.670 105.176 431.133 110.123 C 424.543 114.448 414.964 114.052 414.962 114.053 C 414.963 114.052 421.394 108.980 424.171 102.595 C 428.379 92.917 424.074 87.786 426.836 80.475 C 428.777 75.338 433.439 73.516 435.496 67.431 C 438.522 58.475 436.521 44.411 436.521 44.409 C 436.520 44.410 433.001 56.235 426.995 61.631 C 420.934 67.077 413.238 64.053 408.685 69.326 C 404.323 74.376 409.015 80.334 403.867 87.731 C 399.358 94.212 390.307 97.420 390.306 97.421 C 390.306 97.420 394.299 90.275 394.430 83.314 C 394.629 72.742 388.742 69.626 388.472 61.801 C 388.282 56.316 391.814 52.823 391.347 46.422 C 390.657 36.960 383.382 24.712 383.381 24.710 C 383.381 24.712 384.471 36.997 380.900 44.240 C 377.266 51.611 368.929 51.677 366.658 58.325 C 364.505 64.625 371.064 68.387 369.065 77.153 C 367.298 84.903 360.058 91.311 360.057 91.312 C 360.057 91.311 360.791 83.159 358.106 76.726 C 354.013 66.915 347.373 66.391 343.977 59.289 C 341.607 54.331 343.433 49.715 340.446 44.023 C 336.024 35.597 324.462 27.217 324.461 27.216 C 324.461 27.218 330.366 38.034 329.976 46.091 C 329.580 54.266 321.962 57.630 322.537 64.605 C 323.084 71.250 330.641 72.050 332.339 80.894 C 333.828 88.652 329.800 97.376 329.800 97.377 C 329.799 97.376 327.478 89.522 322.586 84.564 C 315.164 77.042 308.794 79.116 303.035 73.817 C 298.994 70.099 299.042 65.095 294.166 60.915 C 286.984 54.759 273.187 51.355 273.185 51.354 C 273.186 51.356 282.841 59.036 285.602 66.623 C 288.387 74.274 282.707 80.281 285.897 86.468 C 288.956 92.402 296.241 90.265 301.188 97.802 C 305.513 104.391 305.118 113.971 305.118 113.972 C 305.117 113.971 300.046 107.541 293.661 104.765 C 283.983 100.556 278.851 104.862 271.541 102.099 C 266.404 100.158 264.582 95.495 258.497 93.439 C 249.540 90.412 235.476 92.414 235.474 92.414 C 235.476 92.415 247.300 95.935 252.696 101.940 C 258.141 108.001 255.118 115.697 260.390 120.250 C 265.441 124.612 271.399 119.920 278.797 125.068 C 285.277 129.577 288.486 138.627 288.487 138.629 C 288.485 138.628 281.340 134.637 274.379 134.505 C 263.807 134.306 260.691 140.192 252.865 140.463 C 247.381 140.652 243.888 137.122 237.487 137.589 C 228.025 138.279 215.778 145.553 215.775 145.554 C 215.777 145.554 228.063 144.463 235.306 148.035 C 242.676 151.669 242.742 160.006 249.390 162.277 C 255.690 164.430 259.452 157.871 268.218 159.870 C 275.968 161.636 282.376 168.877 282.378 168.878 C 282.376 168.878 274.224 168.145 267.791 170.829 C 257.981 174.923 257.457 181.563 250.355 184.958 C 245.396 187.329 240.780 185.502 235.088 188.489 C 226.662 192.910 218.282 204.473 218.281 204.475 C 218.283 204.474 229.099 198.569 237.156 198.959 C 245.332 199.355 248.695 206.973 255.669 206.398 C 262.315 205.851 263.115 198.294 271.959 196.596 C 279.717 195.106 288.441 199.136 288.442 199.136 C 288.441 199.137 280.587 201.457 275.629 206.349 C 268.107 213.771 270.181 220.141 264.882 225.899 C 261.163 229.940 256.160 229.893 251.979 234.769 C 245.824 241.951 242.420 255.748 242.419 255.750 C 242.420 255.749 250.102 246.094 257.689 243.332 C 265.340 240.547 271.346 246.227 277.533 243.037 C 283.467 239.979 281.330 232.694 288.867 227.747 C 295.457 223.422 305.036 223.817 305.038 223.817 C 337.584 219.380 379.826 215.526 414.882 223.898 Z"/>
<path id="S32" fill="#ffffff" fill-rule="evenodd" stroke="#000000" stroke-width="2" stroke-linecap="round" stroke-linejoin="round" d="M 360.000 122.857 C 332.928 122.857 297.799 117.054 294.790 145.929 C 293.448 158.813 295.607 173.072 296.981 183.577 C 306.045 252.883 359.994 259.668 360.000 259.676 C 360.006 259.668 414.312 251.559 423.627 183.663 C 424.888 174.471 426.298 159.432 425.210 145.929 C 422.615 113.730 387.072 122.857 360.000 122.857 Z"/>
<path fill="none" stroke="#000000" stroke-width="1" stroke-linecap="butt" stroke-linejoin="round" d="M 294.790 145.929 C 293.448 158.813 295.607 173.072 296.981 183.577 "/>
<path id="S27_2" fill="#000000" fill-rule="evenodd" stroke="#000000" stroke-width="2" stroke-linecap="round" stroke-linejoin="round" d="M 353.138 164.988 C 335.104 140.908 294.796 145.931 294.790 145.929 C 293.448 158.813 295.607 173.072 296.981 183.577 C 298.371 183.666 301.151 183.842 301.152 183.842 C 301.157 183.842 350.503 183.842 350.508 183.842 C 350.508 183.842 353.229 183.983 353.229 183.983 C 353.229 183.981 353.139 164.990 353.138 164.988 Z"/>
<path fill="none" stroke="#000000" stroke-width="1" stroke-linecap="butt" stroke-linejoin="round" d="M 423.627 183.663 C 424.888 174.471 426.298 159.432 425.210 145.929 "/>
<path id="S28" fill="#000000" fill-rule="evenodd" stroke="#000000" stroke-width="2" stroke-linecap="round" stroke-linejoin="round" d="M 420.872 183.842 C 420.872 183.842 422.709 183.723 423.627 183.663 C 424.888 174.471 426.298 159.432 425.210 145.929 C 425.204 145.931 384.809 141.268 368.888 164.988 C 368.887 164.990 368.780 183.739 368.780 183.741 C 368.780 183.741 371.431 183.840 371.516 183.842 C 386.319 184.163 420.867 183.842 420.872 183.842 Z"/>
<path fill="none" stroke="#ffffff" stroke-width="1" stroke-linecap="butt" stroke-linejoin="round" d="M 301.152 183.842 C 301.157 183.842 350.503 183.842 350.508 183.842 "/>
<path id="S29" fill="#ffffff" fill-rule="evenodd" stroke="#ffffff" stroke-width="2" stroke-linecap="round" stroke-linejoin="round" d="M 301.152 183.842 C 301.157 183.842 350.503 183.842 350.508 183.842 C 350.505 183.841 336.718 170.996 325.829 170.996 C 314.941 170.996 301.154 183.841 301.152 183.842 Z"/>
<path fill="none" stroke="#ffffff" stroke-width="1" stroke-linecap="butt" stroke-linejoin="round" d="M 371.516 183.842 C 386.319 184.163 420.867 183.842 420.872 183.842 "/>
<path id="S30" fill="#ffffff" fill-rule="evenodd" stroke="#ffffff" stroke-width="2" stroke-linecap="round" stroke-linejoin="round" d="M 371.516 183.842 C 386.319 184.163 420.867 183.842 420.872 183.842 C 420.870 183.841 407.083 170.995 396.194 170.995 C 385.305 170.995 371.518 183.841 371.516 183.842 Z"/>
<path fill="none" stroke="#000000" stroke-width="1" stroke-linecap="butt" stroke-linejoin="round" d="M 371.516 183.842 C 386.319 184.163 420.867 183.842 420.872 183.842 "/>
<path fill="none" stroke="#000000" stroke-width="1" stroke-linecap="butt" stroke-linejoin="round" d="M 301.152 183.842 C 301.157 183.842 350.503 183.842 350.508 183.842 "/>
<path id="S31" fill="#000000" fill-rule="evenodd" stroke="none" d="M 420.872 183.842 C 420.870 183.843 407.083 196.688 396.194 196.689 C 385.305 196.689 371.518 183.843 371.516 183.842 C 386.319 184.163 420.867 183.842 420.872 183.842 M 301.152 183.842 C 301.157 183.842 350.503 183.842 350.508 183.842 C 350.505 183.843 336.718 196.689 325.829 196.689 C 314.941 196.688 301.154 183.843 301.152 183.842 Z"/>
<path id="S33" fill="none" stroke="#000000" stroke-width="2" stroke-linecap="round" stroke-linejoin="round" d="M 368.780 183.741 C 368.780 183.746 368.888 229.667 368.888 229.672 C 368.886 229.672 353.140 229.672 353.138 229.672 C 353.138 229.667 353.229 183.988 353.229 183.983 "/>
<path id="S35" fill="none" stroke="#000000" stroke-width="2" stroke-linecap="round" stroke-linejoin="round" d="M 351.796 243.315 C 356.754 244.719 363.583 245.186 368.073 243.315 "/>
<path id="S39" fill="#ffffff" fill-rule="evenodd" stroke="none" d="M 326.773 184.472 C 330.016 184.472 332.632 187.088 332.632 190.331 C 332.632 193.574 330.016 196.190 326.773 196.190 C 323.530 196.190 320.914 193.574 320.914 190.331 C 320.914 187.088 323.530 184.472 326.773 184.472 Z"/>
<path id="S39_2" fill="#ffffff" fill-rule="evenodd" stroke="none" d="M 396.144 184.472 C 399.387 184.472 402.003 187.088 402.003 190.331 C 402.003 193.574 399.387 196.190 396.144 196.190 C 392.901 196.190 390.285 193.574 390.285 190.331 C 390.285 187.088 392.901 184.472 396.144 184.472 Z"/>
</g>
<g id="specs_2">
<path fill="#00ffff" fill-rule="evenodd" stroke="none" d="M 537.985 697.849 C 537.985 697.850 534.212 708.246 534.212 708.247 C 534.212 708.247 537.950 704.805 537.950 704.804 C 537.950 704.805 541.653 708.284 541.653 708.285 C 541.653 708.284 537.985 697.850 537.985 697.849 Z"/>
<path fill="#0000ff" fill-rule="evenodd" stroke="none" d="M 182.015 697.849 C 182.015 697.850 185.788 708.246 185.788 708.247 C 185.788 708.247 182.050 704.805 182.050 704.804 C 182.050 704.805 178.347 708.284 178.347 708.285 C 178.347 708.284 182.015 697.850 182.015 697.849 Z"/>
<path fill="#ff0000" fill-rule="evenodd" stroke="none" d="M 360.000 338.767 C 360.001 338.770 372.416 373.533 372.417 373.536 C 372.416 373.535 360.001 361.984 360.000 361.982 C 359.999 361.984 347.584 373.535 347.583 373.536 C 347.584 373.533 359.999 338.770 360.000 338.767 Z"/>
</g>
</g>
</svg>
