<?xml version="1.0" encoding="utf-8"?>
<!-- Generator: Moho 13.5.1 build 20210623 -->
<!DOCTYPE svg PUBLIC "-//W3C//DTD SVG 1.1//EN" "http://www.w3.org/Graphics/SVG/1.1/DTD/svg11.dtd">
<svg version="1.1" id="Frame_0" xmlns="http://www.w3.org/2000/svg" xmlns:xlink="http://www.w3.org/1999/xlink" width="720px" height="720px">
<g id="angel_o_pain">
<g id="angel_o_pain">
<path fill="#ffffff" fill-rule="evenodd" stroke="#000000" stroke-width="2" stroke-linecap="round" stroke-linejoin="round" d="M 339.229 466.249 C 334.177 467.652 330.808 470.740 329.125 475.512 C 323.511 490.107 340.352 504.142 348.492 513.965 C 350.457 516.491 360.840 526.876 360.841 526.878 C 360.843 526.876 369.262 516.491 371.227 513.965 C 377.682 506.668 388.910 495.159 390.875 485.336 C 392.559 476.074 390.033 467.652 379.647 465.969 C 373.472 464.845 367.578 467.371 364.209 472.144 C 363.367 473.266 360.000 479.159 360.000 479.160 C 359.999 479.159 355.789 472.986 355.229 472.144 C 351.018 467.371 345.405 464.285 339.229 466.249 Z"/>
<linearGradient id="F6EA8D6D-4919-4427-801E-F8E5F651729A_1" x1="49.53%" y1="51.40%" x2="49.53%" y2="-39.06%">
<stop offset="0.00%" style="stop-color:rgb(255,255,255);stop-opacity:1.00" />
<stop offset="100.00%" style="stop-color:rgb(0,0,0);stop-opacity:1.00" />
</linearGradient>
<path fill="url(#F6EA8D6D-4919-4427-801E-F8E5F651729A_1)" fill-rule="evenodd" stroke="#000000" stroke-width="2" stroke-linecap="round" stroke-linejoin="round" d="M 428.205 189.215 C 410.242 171.250 392.278 165.917 367.859 163.111 C 361.964 163.111 358.315 162.269 352.421 163.111 C 333.053 165.074 317.336 167.321 300.494 178.547 C 267.935 200.161 253.058 249.279 274.109 283.243 C 286.741 304.013 310.874 314.949 318.459 335.450 C 322.088 345.847 321.836 358.529 309.898 363.509 C 299.154 368.398 288.005 358.736 279.866 353.123 C 259.657 339.931 240.591 326.604 215.870 325.617 C 182.998 324.299 155.248 349.879 137.172 374.174 C 120.652 396.589 105.600 421.634 73.176 419.645 C 39.137 417.403 25.885 365.377 60.932 359.859 C 72.731 357.954 83.387 368.280 77.493 379.227 C 75.808 382.595 73.002 385.402 69.353 386.244 C 68.230 386.524 63.459 385.963 63.178 386.244 C 61.775 388.489 71.037 391.576 72.721 391.857 C 86.475 394.103 95.457 380.069 94.334 367.438 C 92.089 347.789 67.950 338.527 50.828 343.579 C 16.865 353.405 12.532 396.158 31.180 421.329 C 46.833 441.990 71.367 445.136 95.069 439.293 C 107.652 436.017 120.891 428.627 130.154 419.364 C 141.663 407.857 149.789 393.762 159.907 381.192 C 171.491 366.986 188.600 353.360 207.449 352.563 C 242.496 350.716 252.078 371.648 279.866 385.682 C 289.128 390.454 308.492 392.699 308.495 392.699 C 308.494 392.700 301.206 396.085 300.074 396.628 C 277.719 404.623 269.066 389.099 250.534 380.895 C 215.477 365.034 178.399 376.404 160.715 411.209 C 155.663 421.314 152.014 431.979 151.453 443.207 C 149.206 474.644 171.941 506.642 205.063 507.202 C 233.692 507.764 261.029 491.874 262.041 463.416 C 262.688 445.239 258.831 429.747 242.113 421.874 C 221.217 412.034 191.590 419.911 191.590 446.575 C 191.590 461.171 205.345 474.923 219.939 467.065 C 227.798 463.134 226.956 454.714 226.114 454.154 C 225.272 453.593 222.186 457.522 221.343 458.082 C 217.975 461.171 214.326 462.293 210.676 459.206 C 205.624 455.277 205.624 446.576 208.992 441.804 C 219.939 426.366 246.042 439.838 244.079 460.048 C 242.674 476.047 228.641 486.152 213.484 486.994 C 189.345 488.397 171.381 468.468 173.065 444.891 C 174.188 427.208 185.693 408.677 201.695 400.262 C 234.496 382.617 258.859 424.136 290.813 424.706 C 305.127 424.992 309.337 423.582 322.810 418.530 C 324.959 417.597 331.792 415.724 331.792 415.724 C 331.791 415.725 328.144 420.495 327.581 421.338 C 321.687 427.232 314.108 431.723 307.653 436.776 C 289.128 450.809 274.813 469.616 279.584 493.754 C 285.479 525.192 324.494 529.120 335.160 559.434 C 341.335 576.275 332.634 595.361 312.706 593.116 C 303.443 591.993 292.496 583.012 294.741 572.906 C 296.425 565.046 305.408 559.715 311.863 567.012 C 313.266 568.696 314.389 575.432 315.513 575.714 C 317.477 576.556 318.881 570.941 318.881 569.538 C 320.003 559.153 310.179 553.540 300.917 555.223 C 290.531 557.469 284.357 564.486 282.953 574.591 C 278.742 608.834 336.283 619.220 350.317 584.696 C 359.019 563.083 344.422 534.453 329.265 519.015 C 317.758 507.227 300.075 494.596 306.811 475.229 C 311.303 463.159 331.185 451.560 341.054 443.231 C 347.832 437.530 354.262 432.839 357.612 424.706 C 358.219 423.411 360.421 417.689 360.422 417.689 C 360.422 417.689 362.290 423.662 362.669 424.706 C 365.632 432.847 373.300 437.513 380.069 443.231 C 389.934 451.859 405.050 460.914 411.786 471.861 C 421.891 489.262 409.260 501.051 397.753 512.840 C 381.472 529.401 368.561 543.434 368.281 567.854 C 368.000 583.011 371.930 595.641 386.806 602.659 C 408.418 612.483 439.294 602.379 437.048 574.591 C 436.206 564.205 429.190 556.347 418.804 554.942 C 411.225 554.100 401.963 558.031 400.840 566.170 C 400.840 567.855 402.523 577.117 405.050 575.714 C 405.892 575.432 406.173 572.064 406.454 571.222 C 407.858 567.854 409.823 565.047 413.751 563.926 C 422.732 561.400 427.785 572.625 425.259 579.643 C 417.681 601.255 383.719 594.518 382.596 572.906 C 382.315 570.380 383.438 565.609 383.998 562.802 C 392.982 528.838 439.855 524.909 440.416 488.701 C 440.978 458.388 430.311 449.686 407.015 432.565 C 401.402 428.635 396.629 424.706 391.858 419.934 C 391.577 419.372 389.333 415.725 389.333 415.724 C 389.333 415.724 396.439 417.785 398.595 418.812 C 411.506 424.145 416.559 424.984 430.593 424.706 C 458.432 424.431 473.628 397.169 499.780 396.333 C 526.445 395.219 548.058 422.437 548.058 448.259 C 548.058 467.066 532.060 485.870 513.253 486.994 C 499.781 487.836 487.992 483.344 480.414 471.837 C 471.432 458.645 477.046 440.681 493.044 435.910 C 505.675 431.980 520.832 443.768 511.851 456.680 C 508.482 461.451 504.552 462.014 499.780 459.206 C 498.657 458.645 495.009 455.277 494.447 455.838 C 492.483 456.398 494.167 460.890 494.447 461.732 C 497.254 466.503 501.464 468.187 506.516 468.468 C 526.445 470.153 533.182 449.101 525.884 433.102 C 520.832 422.997 510.445 418.226 499.780 418.227 C 462.449 417.385 445.889 455.838 464.696 485.309 C 476.764 504.396 493.886 507.764 514.938 507.202 C 531.779 506.921 546.654 498.782 556.759 485.309 C 563.776 476.328 568.547 465.100 568.547 453.311 C 569.389 411.490 544.977 374.743 499.780 374.440 C 479.740 374.244 463.357 380.722 446.592 390.454 C 433.271 397.803 426.383 402.243 411.225 397.191 C 409.823 396.909 400.561 392.419 400.560 392.418 C 400.561 392.418 405.613 392.418 406.173 392.418 C 411.507 392.700 419.646 390.173 424.698 387.928 C 447.994 376.419 467.656 353.448 495.430 352.563 C 513.019 351.863 528.110 355.290 543.040 365.754 C 567.440 383.073 577.966 414.122 603.668 430.592 C 643.175 456.486 694.109 437.695 697.081 387.648 C 698.528 365.475 681.082 343.861 658.628 342.458 C 645.716 341.615 633.085 346.386 626.069 357.333 C 619.052 368.841 623.262 386.805 636.735 391.297 C 641.226 392.699 645.716 391.857 649.926 389.892 C 650.489 389.612 653.295 387.366 652.733 386.244 C 652.733 386.244 647.681 386.244 646.840 386.244 C 642.629 384.560 639.822 381.753 638.700 377.542 C 634.489 362.946 650.207 356.210 661.996 361.544 C 692.028 375.858 677.992 419.181 643.471 419.645 C 612.633 420.060 595.345 390.344 578.687 369.122 C 560.382 346.192 524.473 323.352 493.746 325.617 C 467.949 327.431 446.591 340.492 426.383 355.089 C 417.401 361.263 405.797 370.997 396.068 361.825 C 388.719 354.805 393.877 343.575 397.890 335.450 C 406.919 317.295 427.083 305.417 439.432 286.612 C 459.642 256.859 453.748 214.477 428.205 189.215 M 357.513 291.911 C 311.817 292.068 287.790 252.120 287.583 246.193 C 287.345 239.423 313.987 202.593 358.607 202.915 C 408.027 203.274 429.235 242.829 429.609 247.877 C 429.921 252.081 414.019 291.717 357.513 291.911 Z"/>
<linearGradient id="F6EA8D6D-4919-4427-801E-F8E5F651729A_2" x1="49.30%" y1="125.68%" x2="49.30%" y2="-76.18%">
<stop offset="0.00%" style="stop-color:rgb(255,255,255);stop-opacity:1.00" />
<stop offset="100.00%" style="stop-color:rgb(0,0,0);stop-opacity:1.00" />
</linearGradient>
<path fill="url(#F6EA8D6D-4919-4427-801E-F8E5F651729A_2)" fill-rule="evenodd" stroke="#000000" stroke-width="2" stroke-linecap="round" stroke-linejoin="round" d="M 248.848 215.878 C 238.744 184.722 201.693 167.601 174.187 154.970 C 162.680 149.638 135.453 135.602 123.664 141.778 C 111.875 147.673 112.717 164.514 123.664 170.969 C 130.119 174.618 141.347 174.618 148.926 176.302 C 165.486 179.951 183.731 185.004 199.448 192.301 C 207.308 195.951 214.605 201.003 221.060 206.897 C 221.903 207.740 227.237 212.511 224.991 213.634 C 223.586 214.195 219.097 211.950 217.974 211.388 C 212.360 208.861 206.746 206.897 201.133 204.651 C 182.047 197.073 159.312 190.336 138.821 190.899 C 130.119 190.899 123.383 192.862 121.980 202.406 C 121.138 209.985 124.225 216.721 132.084 218.686 C 138.260 220.370 155.101 220.931 162.398 221.212 C 173.345 221.492 190.467 223.457 201.133 226.264 C 210.114 228.790 219.376 231.036 227.797 234.964 C 229.762 235.807 236.499 238.895 234.534 241.982 C 233.131 243.666 228.078 242.264 226.394 241.982 C 217.410 240.021 208.429 238.056 199.448 236.088 C 189.905 234.404 180.363 233.001 170.819 232.719 C 162.680 232.719 147.242 231.317 140.505 235.807 C 130.682 242.544 132.085 258.262 143.874 261.910 C 149.487 264.436 161.275 262.472 167.451 261.910 C 182.889 259.665 198.607 257.981 214.605 256.579 C 217.131 256.579 233.972 257.982 235.938 258.823 C 238.183 259.947 240.709 262.753 238.464 264.999 C 236.499 266.963 232.007 265.560 229.762 264.999 C 222.465 264.437 214.886 264.718 207.869 264.999 C 197.764 264.999 171.942 266.962 164.082 272.857 C 155.662 279.032 158.749 292.505 169.135 294.471 C 173.064 295.313 183.169 291.944 187.660 290.540 C 199.448 287.172 210.677 283.804 223.026 281.841 C 226.955 280.717 240.427 278.190 243.235 281.841 C 245.479 285.489 235.656 284.927 234.814 285.208 C 224.991 285.208 202.256 288.856 200.009 300.365 C 198.325 308.223 203.659 312.434 211.238 311.591 C 219.377 311.031 229.201 303.171 238.183 300.365 C 239.586 300.083 251.936 297.276 251.936 300.365 C 251.936 301.487 248.848 302.328 248.006 302.891 C 244.638 304.576 240.148 306.539 238.744 310.470 C 237.341 314.960 240.427 319.732 244.919 320.575 C 252.216 321.977 258.673 311.873 264.286 312.714 C 265.689 312.996 281.688 327.872 285.338 330.116 C 288.987 332.642 292.916 334.889 296.845 336.853 C 297.687 337.134 301.055 338.258 301.336 336.853 C 302.179 335.169 292.074 325.626 290.390 323.661 C 279.443 312.996 266.251 297.276 259.794 283.243 C 247.164 256.857 255.305 235.245 248.848 215.878 M 598.020 168.163 C 603.914 162.548 603.072 147.954 596.615 142.902 C 591.563 139.252 583.705 139.813 578.371 141.217 C 568.267 143.744 557.601 149.076 548.057 153.006 C 510.165 169.005 466.098 190.899 464.976 237.772 C 465.255 246.193 466.098 255.174 464.976 263.034 C 461.045 282.961 450.661 296.997 438.030 311.873 C 432.697 318.328 427.645 324.785 421.750 330.398 C 420.627 331.240 414.732 335.731 415.574 337.133 C 415.855 338.536 419.223 337.133 420.065 337.133 C 423.434 335.731 427.083 333.766 430.170 332.082 C 436.346 328.153 448.134 315.522 453.747 314.117 C 459.642 312.434 476.202 328.153 479.570 315.241 C 481.254 309.347 474.799 305.698 470.589 303.453 C 469.465 302.891 464.976 300.926 464.976 299.802 C 464.976 298.681 468.344 298.681 468.904 298.681 C 472.273 299.242 477.325 300.084 480.693 301.207 C 489.114 303.733 503.429 313.276 510.726 311.591 C 518.585 309.907 520.551 301.768 516.059 295.873 C 512.691 291.382 504.271 288.856 499.218 287.453 C 494.166 286.050 473.957 284.365 473.396 284.084 C 470.870 282.119 476.202 280.435 477.325 280.435 C 480.412 279.593 487.429 280.156 490.798 280.435 C 505.113 282.401 518.867 287.172 532.900 291.382 C 539.356 293.347 546.092 296.716 552.828 292.787 C 560.407 288.576 559.285 277.349 552.828 272.577 C 546.373 267.525 521.393 264.999 512.692 264.999 C 504.832 264.718 496.692 264.437 489.114 264.999 C 486.588 265.560 481.817 266.963 479.851 264.999 C 477.325 262.752 480.412 259.947 482.377 258.823 C 484.343 258.263 498.377 256.579 500.903 256.579 C 521.673 256.579 542.444 262.752 563.215 263.034 C 567.985 263.315 573.879 263.876 578.090 260.789 C 588.194 253.490 585.108 240.017 574.722 234.685 C 571.635 233.001 568.267 233.001 564.898 233.001 C 542.163 232.439 524.480 234.684 502.586 239.737 C 497.534 240.859 492.482 241.983 487.429 242.825 C 486.306 243.106 483.500 243.666 483.219 241.982 C 481.537 235.806 501.744 230.755 505.955 229.633 C 521.393 224.581 538.234 222.334 554.794 221.212 C 562.090 220.650 582.300 220.650 588.194 218.405 C 600.264 213.634 601.387 191.178 580.055 190.899 C 562.933 190.336 535.146 197.073 519.428 203.248 C 512.410 206.055 505.674 208.861 499.218 211.950 C 497.534 212.511 493.605 215.037 491.921 214.476 C 489.675 213.634 495.289 208.300 495.850 207.458 C 500.621 202.687 506.516 199.038 512.692 195.670 C 527.848 186.968 550.865 180.231 568.267 176.302 C 576.406 174.337 592.126 174.058 598.020 168.163 Z"/>
<linearGradient id="F6EA8D6D-4919-4427-801E-F8E5F651729A_3" x1="47.01%" y1="253.70%" x2="47.01%" y2="-322.13%">
<stop offset="0.00%" style="stop-color:rgb(255,255,255);stop-opacity:1.00" />
<stop offset="100.00%" style="stop-color:rgb(0,0,0);stop-opacity:1.00" />
</linearGradient>
<path fill="url(#F6EA8D6D-4919-4427-801E-F8E5F651729A_3)" fill-rule="evenodd" stroke="#000000" stroke-width="2" stroke-linecap="round" stroke-linejoin="round" d="M 359.343 282.747 C 381.282 282.814 392.607 263.556 392.691 247.286 C 392.778 230.302 380.829 213.314 358.454 213.352 C 337.345 213.388 323.465 227.978 322.749 247.067 C 322.133 263.540 334.192 282.671 359.343 282.747 M 355.690 235.164 C 372.935 231.261 379.767 256.966 361.220 260.870 C 343.976 264.774 337.143 239.068 355.690 235.164 Z"/>
<path fill="none" stroke="#000000" stroke-width="1" stroke-linecap="round" stroke-linejoin="round" d="M 355.690 235.164 C 372.935 231.261 379.767 256.966 361.220 260.870 "/>
<path fill="none" stroke="#000000" stroke-width="1" stroke-linecap="round" stroke-linejoin="round" d="M 361.220 260.870 C 343.976 264.774 337.143 239.068 355.690 235.164 "/>
<linearGradient id="F6EA8D6D-4919-4427-801E-F8E5F651729A_6" x1="48.59%" y1="818.79%" x2="48.59%" y2="-348.54%">
<stop offset="0.00%" style="stop-color:rgb(255,255,255);stop-opacity:1.00" />
<stop offset="100.00%" style="stop-color:rgb(0,0,0);stop-opacity:1.00" />
</linearGradient>
<path fill="url(#F6EA8D6D-4919-4427-801E-F8E5F651729A_6)" fill-rule="evenodd" stroke="#000000" stroke-width="2" stroke-linecap="round" stroke-linejoin="round" d="M 425.539 126.047 C 422.732 123.239 416.838 122.116 412.909 120.994 C 394.665 116.784 353.684 114.538 335.440 117.345 C 325.896 118.748 297.548 119.871 294.461 130.257 C 292.495 135.870 296.987 140.362 301.758 142.607 C 310.740 146.816 323.651 148.501 333.756 148.501 C 360.141 149.062 392.699 151.587 417.961 143.729 C 425.821 141.203 434.241 133.625 425.539 126.047 M 317.476 133.062 C 316.634 131.940 321.125 130.818 321.967 130.818 C 327.862 129.134 334.317 128.010 340.492 127.168 C 355.930 125.204 373.893 125.765 389.331 128.291 C 393.542 129.133 398.312 129.695 402.523 131.099 C 403.365 131.378 406.733 132.220 404.769 133.625 C 401.962 136.151 388.489 138.115 384.279 138.677 C 364.070 140.641 358.736 140.641 338.808 138.677 C 335.440 138.396 318.599 135.870 317.476 133.062 Z"/>
</g>
<g id="specs_2">
<path fill="#ff0000" fill-rule="evenodd" stroke="none" d="M 360.000 657.043 C 360.001 657.046 372.199 691.201 372.200 691.204 C 372.199 691.203 360.001 679.853 360.000 679.852 C 359.999 679.853 347.801 691.203 347.800 691.204 C 347.801 691.201 359.999 657.046 360.000 657.043 Z"/>
<path fill="#0000ff" fill-rule="evenodd" stroke="none" d="M 360.000 96.695 C 360.001 96.697 367.086 116.536 367.087 116.538 C 367.086 116.538 360.001 109.945 360.000 109.945 C 359.999 109.945 352.914 116.538 352.913 116.538 C 352.914 116.536 359.999 96.697 360.000 96.695 Z"/>
<path fill="#00ff00" fill-rule="evenodd" stroke="none" d="M 3.250 383.018 C 3.252 383.018 24.328 375.370 24.330 375.369 C 24.329 375.370 17.351 382.946 17.351 382.947 C 17.351 382.948 24.405 390.453 24.406 390.453 C 24.404 390.453 3.252 383.019 3.250 383.018 Z"/>
<path fill="#ffff00" fill-rule="evenodd" stroke="none" d="M 159.684 513.911 C 159.685 513.909 167.093 497.780 167.093 497.779 C 167.093 497.779 167.483 505.924 167.483 505.925 C 167.484 505.925 175.635 506.122 175.636 506.122 C 175.634 506.123 159.686 513.910 159.684 513.911 Z"/>
<path fill="#ffff00" fill-rule="evenodd" stroke="none" d="M 560.316 513.713 C 560.315 513.712 552.586 497.734 552.585 497.733 C 552.585 497.733 552.358 505.884 552.358 505.885 C 552.357 505.885 544.211 506.246 544.211 506.246 C 544.212 506.247 560.314 513.712 560.316 513.713 Z"/>
<path fill="#00ff00" fill-rule="evenodd" stroke="none" d="M 716.750 383.018 C 716.748 383.018 695.672 375.370 695.670 375.369 C 695.671 375.370 702.649 382.946 702.649 382.947 C 702.649 382.948 695.595 390.453 695.594 390.453 C 695.596 390.453 716.748 383.019 716.750 383.018 Z"/>
<path fill="#00ffff" fill-rule="evenodd" stroke="none" d="M 617.438 124.133 C 617.437 124.136 609.793 145.721 609.792 145.723 C 609.792 145.722 608.344 135.302 608.344 135.301 C 608.343 135.301 597.846 135.994 597.845 135.994 C 597.847 135.993 617.436 124.135 617.438 124.133 Z"/>
<path fill="#00ffff" fill-rule="evenodd" stroke="none" d="M 102.672 124.849 C 102.673 124.851 111.739 145.879 111.740 145.881 C 111.740 145.880 112.490 135.386 112.490 135.385 C 112.491 135.385 123.011 135.377 123.012 135.377 C 123.010 135.376 102.674 124.850 102.672 124.849 Z"/>
<path fill="#be0027" fill-rule="evenodd" stroke="none" d="M 360.000 625.896 C 360.001 625.892 372.199 591.738 372.200 591.734 C 372.199 591.735 360.001 603.085 360.000 603.086 C 359.999 603.085 347.801 591.735 347.800 591.734 C 347.801 591.738 359.999 625.892 360.000 625.896 Z"/>
</g>
</g>
</svg>
