<?xml version="1.0" encoding="utf-8"?>
<!-- Generator: Moho 13.5 build 20210422 -->
<!DOCTYPE svg PUBLIC "-//W3C//DTD SVG 1.1//EN" "http://www.w3.org/Graphics/SVG/1.1/DTD/svg11.dtd">
<svg version="1.1" id="Frame_0" xmlns="http://www.w3.org/2000/svg" xmlns:xlink="http://www.w3.org/1999/xlink" width="720px" height="720px">
<g id="angel">
<g id="angel_lovers_2">
<path id="S12" fill="#ffffff" fill-rule="evenodd" stroke="#000000" stroke-width="2" stroke-linecap="round" stroke-linejoin="round" d="M 517.420 86.567 C 487.939 89.363 459.335 92.069 435.717 97.959 C 434.900 154.388 416.433 210.985 360.000 210.514 C 360.000 210.518 360.000 252.130 360.000 252.134 C 360.002 252.134 376.110 253.770 383.996 253.749 C 392.212 253.728 400.320 253.042 408.138 251.716 C 415.537 250.462 422.758 248.594 429.659 246.182 C 437.591 243.410 445.272 239.779 452.409 235.465 C 459.721 231.047 466.253 226.143 472.267 220.656 C 478.147 215.292 483.605 209.261 488.512 202.731 C 493.212 196.478 497.475 189.623 501.179 182.365 C 504.740 175.389 507.671 168.407 510.123 161.140 C 512.677 153.578 514.812 145.048 516.295 136.243 C 517.685 127.999 518.502 118.740 518.591 109.291 C 518.661 101.819 518.276 94.231 517.420 86.567 Z"/>
<path fill="none" stroke="#ffffff" stroke-width="1" stroke-linecap="butt" stroke-linejoin="round" d="M 360.000 252.134 C 360.002 252.134 376.110 253.770 383.996 253.749 "/>
<path id="S13" fill="#ffffff" fill-rule="evenodd" stroke="#000000" stroke-width="2" stroke-linecap="round" stroke-linejoin="round" d="M 383.996 253.749 C 385.988 264.310 387.979 274.871 389.971 285.431 C 381.120 292.311 367.289 289.263 360.000 280.332 C 360.000 280.332 360.000 252.137 360.000 252.134 C 360.002 252.134 376.110 253.770 383.996 253.749 Z"/>
<path fill="none" stroke="#ffffff" stroke-width="1" stroke-linecap="butt" stroke-linejoin="round" d="M 383.996 253.749 C 385.988 264.310 387.979 274.871 389.971 285.431 "/>
<path fill="none" stroke="#ffffff" stroke-width="1" stroke-linecap="butt" stroke-linejoin="round" d="M 408.138 251.716 C 400.320 253.042 392.212 253.728 383.996 253.749 "/>
<path id="S14" fill="#ffffff" fill-rule="evenodd" stroke="#000000" stroke-width="2" stroke-linecap="round" stroke-linejoin="round" d="M 383.996 253.749 C 385.988 264.310 387.979 274.871 389.971 285.431 C 397.714 294.682 412.434 296.320 420.526 287.627 C 416.397 275.657 412.268 263.686 408.138 251.716 C 400.320 253.042 392.212 253.728 383.996 253.749 Z"/>
<path fill="none" stroke="#ffffff" stroke-width="1" stroke-linecap="butt" stroke-linejoin="round" d="M 408.138 251.716 C 412.268 263.686 416.397 275.657 420.526 287.627 "/>
<path fill="none" stroke="#ffffff" stroke-width="1" stroke-linecap="butt" stroke-linejoin="round" d="M 429.659 246.182 C 422.758 248.594 415.537 250.462 408.138 251.716 "/>
<path id="S15" fill="#ffffff" fill-rule="evenodd" stroke="#000000" stroke-width="2" stroke-linecap="round" stroke-linejoin="round" d="M 408.138 251.716 C 412.268 263.686 416.397 275.657 420.526 287.627 C 431.039 295.150 444.758 293.817 453.327 285.205 C 445.438 272.198 437.548 259.190 429.659 246.182 C 422.758 248.594 415.537 250.462 408.138 251.716 Z"/>
<path fill="none" stroke="#ffffff" stroke-width="1" stroke-linecap="butt" stroke-linejoin="round" d="M 429.659 246.182 C 437.548 259.190 445.438 272.198 453.327 285.205 "/>
<path fill="none" stroke="#ffffff" stroke-width="1" stroke-linecap="butt" stroke-linejoin="round" d="M 452.409 235.465 C 445.272 239.779 437.591 243.410 429.659 246.182 "/>
<path id="S16" fill="#ffffff" fill-rule="evenodd" stroke="#000000" stroke-width="2" stroke-linecap="round" stroke-linejoin="round" d="M 429.659 246.182 C 437.548 259.190 445.438 272.198 453.327 285.205 C 464.341 290.062 478.590 286.082 486.186 275.176 C 474.927 261.939 463.668 248.702 452.409 235.465 C 445.272 239.779 437.591 243.410 429.659 246.182 Z"/>
<path fill="none" stroke="#ffffff" stroke-width="1" stroke-linecap="butt" stroke-linejoin="round" d="M 452.409 235.465 C 463.668 248.702 474.927 261.939 486.186 275.176 "/>
<path fill="none" stroke="#ffffff" stroke-width="1" stroke-linecap="butt" stroke-linejoin="round" d="M 472.267 220.656 C 466.253 226.143 459.721 231.047 452.409 235.465 "/>
<path id="S17" fill="#ffffff" fill-rule="evenodd" stroke="#000000" stroke-width="2" stroke-linecap="round" stroke-linejoin="round" d="M 452.409 235.465 C 463.668 248.702 474.927 261.939 486.186 275.176 C 496.588 277.020 509.115 270.175 512.965 256.799 C 499.399 244.751 485.833 232.704 472.267 220.656 C 466.253 226.143 459.721 231.047 452.409 235.465 Z"/>
<path fill="none" stroke="#ffffff" stroke-width="1" stroke-linecap="butt" stroke-linejoin="round" d="M 472.267 220.656 C 485.833 232.704 499.399 244.751 512.965 256.799 "/>
<path fill="none" stroke="#ffffff" stroke-width="1" stroke-linecap="butt" stroke-linejoin="round" d="M 488.512 202.731 C 483.605 209.261 478.147 215.292 472.267 220.656 "/>
<path id="S18" fill="#ffffff" fill-rule="evenodd" stroke="#000000" stroke-width="2" stroke-linecap="round" stroke-linejoin="round" d="M 472.267 220.656 C 485.833 232.704 499.399 244.751 512.965 256.799 C 523.950 255.310 534.323 242.506 532.797 229.741 C 518.035 220.738 503.274 211.734 488.512 202.731 C 483.605 209.261 478.147 215.292 472.267 220.656 Z"/>
<path fill="none" stroke="#ffffff" stroke-width="1" stroke-linecap="butt" stroke-linejoin="round" d="M 488.512 202.731 C 503.274 211.734 518.035 220.738 532.797 229.741 "/>
<path fill="none" stroke="#ffffff" stroke-width="1" stroke-linecap="butt" stroke-linejoin="round" d="M 501.179 182.365 C 497.475 189.623 493.212 196.478 488.512 202.731 "/>
<path id="S19" fill="#ffffff" fill-rule="evenodd" stroke="#000000" stroke-width="2" stroke-linecap="round" stroke-linejoin="round" d="M 488.512 202.731 C 503.274 211.734 518.035 220.738 532.797 229.741 C 543.547 224.089 550.689 209.816 547.295 198.110 C 531.923 192.862 516.551 187.613 501.179 182.365 C 497.475 189.623 493.212 196.478 488.512 202.731 Z"/>
<path fill="none" stroke="#ffffff" stroke-width="1" stroke-linecap="butt" stroke-linejoin="round" d="M 501.179 182.365 C 516.551 187.613 531.923 192.862 547.295 198.110 "/>
<path fill="none" stroke="#ffffff" stroke-width="1" stroke-linecap="butt" stroke-linejoin="round" d="M 510.123 161.140 C 507.671 168.407 504.740 175.389 501.179 182.365 "/>
<path id="S20" fill="#ffffff" fill-rule="evenodd" stroke="#000000" stroke-width="2" stroke-linecap="round" stroke-linejoin="round" d="M 501.179 182.365 C 516.551 187.613 531.923 192.862 547.295 198.110 C 574.907 201.991 607.627 189.333 607.782 174.687 C 575.229 170.171 542.676 165.656 510.123 161.140 C 507.671 168.407 504.740 175.389 501.179 182.365 Z"/>
<path fill="none" stroke="#ffffff" stroke-width="1" stroke-linecap="butt" stroke-linejoin="round" d="M 510.123 161.140 C 542.676 165.656 575.229 170.171 607.782 174.687 "/>
<path fill="none" stroke="#ffffff" stroke-width="1" stroke-linecap="butt" stroke-linejoin="round" d="M 516.295 136.243 C 514.812 145.048 512.677 153.578 510.123 161.140 "/>
<path id="S21" fill="#ffffff" fill-rule="evenodd" stroke="#000000" stroke-width="2" stroke-linecap="round" stroke-linejoin="round" d="M 510.123 161.140 C 542.676 165.656 575.229 170.171 607.782 174.687 C 626.070 172.911 642.342 156.337 640.484 143.808 C 599.087 141.286 557.691 138.765 516.295 136.243 C 514.812 145.048 512.677 153.578 510.123 161.140 Z"/>
<path fill="none" stroke="#ffffff" stroke-width="1" stroke-linecap="butt" stroke-linejoin="round" d="M 516.295 136.243 C 557.691 138.765 599.087 141.286 640.484 143.808 "/>
<path fill="none" stroke="#ffffff" stroke-width="1" stroke-linecap="butt" stroke-linejoin="round" d="M 518.591 109.291 C 518.502 118.740 517.685 127.999 516.295 136.243 "/>
<path id="S22" fill="#ffffff" fill-rule="evenodd" stroke="#000000" stroke-width="2" stroke-linecap="round" stroke-linejoin="round" d="M 516.295 136.243 C 557.691 138.765 599.087 141.286 640.484 143.808 C 654.436 137.832 661.524 120.997 655.904 111.668 C 610.133 110.875 564.362 110.083 518.591 109.291 C 518.502 118.740 517.685 127.999 516.295 136.243 Z"/>
<path fill="none" stroke="#ffffff" stroke-width="1" stroke-linecap="butt" stroke-linejoin="round" d="M 518.591 109.291 C 564.362 110.083 610.133 110.875 655.904 111.668 "/>
<path fill="none" stroke="#ffffff" stroke-width="1" stroke-linecap="butt" stroke-linejoin="round" d="M 517.420 86.567 C 518.276 94.231 518.661 101.819 518.591 109.291 "/>
<path id="S23" fill="#ffffff" fill-rule="evenodd" stroke="#000000" stroke-width="2" stroke-linecap="round" stroke-linejoin="round" d="M 518.591 109.291 C 564.362 110.083 610.133 110.875 655.904 111.668 C 667.759 107.546 680.713 80.562 661.612 79.759 C 640.277 78.863 577.434 80.876 517.420 86.567 C 518.276 94.231 518.661 101.819 518.591 109.291 Z"/>
<path id="S12_2" fill="#ffffff" fill-rule="evenodd" stroke="#000000" stroke-width="2" stroke-linecap="round" stroke-linejoin="round" d="M 202.580 86.567 C 232.061 89.363 260.665 92.069 284.283 97.959 C 285.100 154.388 303.567 210.985 360.000 210.514 C 360.000 210.518 360.000 231.691 360.000 252.134 C 351.821 253.246 343.890 253.770 336.004 253.749 C 327.788 253.728 319.680 253.042 311.862 251.716 C 304.463 250.462 297.242 248.594 290.341 246.182 C 282.409 243.410 274.728 239.779 267.591 235.465 C 260.279 231.047 253.747 226.143 247.733 220.656 C 241.853 215.292 236.395 209.261 231.488 202.731 C 226.788 196.478 222.525 189.623 218.821 182.365 C 215.260 175.389 212.329 168.407 209.877 161.140 C 207.323 153.578 205.188 145.048 203.705 136.243 C 202.315 127.999 201.498 118.740 201.409 109.291 C 201.339 101.819 201.724 94.231 202.580 86.567 Z"/>
<path fill="none" stroke="#ffffff" stroke-width="1" stroke-linecap="butt" stroke-linejoin="round" d="M 360.000 252.134 C 351.821 253.246 343.890 253.770 336.004 253.749 "/>
<path id="S13_2" fill="#ffffff" fill-rule="evenodd" stroke="#000000" stroke-width="2" stroke-linecap="round" stroke-linejoin="round" d="M 336.004 253.749 C 334.012 264.310 332.021 274.871 330.029 285.431 C 338.880 292.311 352.711 289.263 360.000 280.332 C 360.000 280.332 360.000 266.466 360.000 252.134 C 351.821 253.246 343.890 253.770 336.004 253.749 Z"/>
<path fill="none" stroke="#ffffff" stroke-width="1" stroke-linecap="butt" stroke-linejoin="round" d="M 336.004 253.749 C 334.012 264.310 332.021 274.871 330.029 285.431 "/>
<path fill="none" stroke="#ffffff" stroke-width="1" stroke-linecap="butt" stroke-linejoin="round" d="M 311.862 251.716 C 319.680 253.042 327.788 253.728 336.004 253.749 "/>
<path id="S14_2" fill="#ffffff" fill-rule="evenodd" stroke="#000000" stroke-width="2" stroke-linecap="round" stroke-linejoin="round" d="M 336.004 253.749 C 334.012 264.310 332.021 274.871 330.029 285.431 C 322.286 294.682 307.566 296.320 299.474 287.627 C 303.603 275.657 307.732 263.686 311.862 251.716 C 319.680 253.042 327.788 253.728 336.004 253.749 Z"/>
<path fill="none" stroke="#ffffff" stroke-width="1" stroke-linecap="butt" stroke-linejoin="round" d="M 311.862 251.716 C 307.732 263.686 303.603 275.657 299.474 287.627 "/>
<path fill="none" stroke="#ffffff" stroke-width="1" stroke-linecap="butt" stroke-linejoin="round" d="M 290.341 246.182 C 297.242 248.594 304.463 250.462 311.862 251.716 "/>
<path id="S15_2" fill="#ffffff" fill-rule="evenodd" stroke="#000000" stroke-width="2" stroke-linecap="round" stroke-linejoin="round" d="M 311.862 251.716 C 307.732 263.686 303.603 275.657 299.474 287.627 C 288.961 295.150 275.242 293.817 266.673 285.205 C 274.563 272.198 282.452 259.190 290.341 246.182 C 297.242 248.594 304.463 250.462 311.862 251.716 Z"/>
<path fill="none" stroke="#ffffff" stroke-width="1" stroke-linecap="butt" stroke-linejoin="round" d="M 290.341 246.182 C 282.452 259.190 274.563 272.198 266.673 285.205 "/>
<path fill="none" stroke="#ffffff" stroke-width="1" stroke-linecap="butt" stroke-linejoin="round" d="M 267.591 235.465 C 274.728 239.779 282.409 243.410 290.341 246.182 "/>
<path id="S16_2" fill="#ffffff" fill-rule="evenodd" stroke="#000000" stroke-width="2" stroke-linecap="round" stroke-linejoin="round" d="M 290.341 246.182 C 282.452 259.190 274.563 272.198 266.673 285.205 C 255.659 290.062 241.410 286.082 233.814 275.176 C 245.073 261.939 256.332 248.702 267.591 235.465 C 274.728 239.779 282.409 243.410 290.341 246.182 Z"/>
<path fill="none" stroke="#ffffff" stroke-width="1" stroke-linecap="butt" stroke-linejoin="round" d="M 267.591 235.465 C 256.332 248.702 245.073 261.939 233.814 275.176 "/>
<path fill="none" stroke="#ffffff" stroke-width="1" stroke-linecap="butt" stroke-linejoin="round" d="M 247.733 220.656 C 253.747 226.143 260.279 231.047 267.591 235.465 "/>
<path id="S17_2" fill="#ffffff" fill-rule="evenodd" stroke="#000000" stroke-width="2" stroke-linecap="round" stroke-linejoin="round" d="M 267.591 235.465 C 256.332 248.702 245.073 261.939 233.814 275.176 C 223.412 277.020 210.885 270.175 207.035 256.799 C 220.601 244.751 234.167 232.704 247.733 220.656 C 253.747 226.143 260.279 231.047 267.591 235.465 Z"/>
<path fill="none" stroke="#ffffff" stroke-width="1" stroke-linecap="butt" stroke-linejoin="round" d="M 247.733 220.656 C 234.167 232.704 220.601 244.751 207.035 256.799 "/>
<path fill="none" stroke="#ffffff" stroke-width="1" stroke-linecap="butt" stroke-linejoin="round" d="M 231.488 202.731 C 236.395 209.261 241.853 215.292 247.733 220.656 "/>
<path id="S18_2" fill="#ffffff" fill-rule="evenodd" stroke="#000000" stroke-width="2" stroke-linecap="round" stroke-linejoin="round" d="M 247.733 220.656 C 234.167 232.704 220.601 244.751 207.035 256.799 C 196.050 255.310 185.677 242.506 187.203 229.741 C 201.965 220.738 216.726 211.734 231.488 202.731 C 236.395 209.261 241.853 215.292 247.733 220.656 Z"/>
<path fill="none" stroke="#ffffff" stroke-width="1" stroke-linecap="butt" stroke-linejoin="round" d="M 231.488 202.731 C 216.726 211.734 201.965 220.738 187.203 229.741 "/>
<path fill="none" stroke="#ffffff" stroke-width="1" stroke-linecap="butt" stroke-linejoin="round" d="M 218.821 182.365 C 222.525 189.623 226.788 196.478 231.488 202.731 "/>
<path id="S19_2" fill="#ffffff" fill-rule="evenodd" stroke="#000000" stroke-width="2" stroke-linecap="round" stroke-linejoin="round" d="M 231.488 202.731 C 216.726 211.734 201.965 220.738 187.203 229.741 C 176.453 224.089 169.311 209.816 172.705 198.110 C 188.077 192.862 203.449 187.613 218.821 182.365 C 222.525 189.623 226.788 196.478 231.488 202.731 Z"/>
<path fill="none" stroke="#ffffff" stroke-width="1" stroke-linecap="butt" stroke-linejoin="round" d="M 218.821 182.365 C 203.449 187.613 188.077 192.862 172.705 198.110 "/>
<path fill="none" stroke="#ffffff" stroke-width="1" stroke-linecap="butt" stroke-linejoin="round" d="M 209.877 161.140 C 212.329 168.407 215.260 175.389 218.821 182.365 "/>
<path id="S20_2" fill="#ffffff" fill-rule="evenodd" stroke="#000000" stroke-width="2" stroke-linecap="round" stroke-linejoin="round" d="M 218.821 182.365 C 203.449 187.613 188.077 192.862 172.705 198.110 C 145.093 201.991 112.373 189.333 112.218 174.687 C 144.771 170.171 177.324 165.656 209.877 161.140 C 212.329 168.407 215.260 175.389 218.821 182.365 Z"/>
<path fill="none" stroke="#ffffff" stroke-width="1" stroke-linecap="butt" stroke-linejoin="round" d="M 209.877 161.140 C 177.324 165.656 144.771 170.171 112.218 174.687 "/>
<path fill="none" stroke="#ffffff" stroke-width="1" stroke-linecap="butt" stroke-linejoin="round" d="M 203.705 136.243 C 205.188 145.048 207.323 153.578 209.877 161.140 "/>
<path id="S21_2" fill="#ffffff" fill-rule="evenodd" stroke="#000000" stroke-width="2" stroke-linecap="round" stroke-linejoin="round" d="M 209.877 161.140 C 177.324 165.656 144.771 170.171 112.218 174.687 C 93.930 172.911 77.658 156.337 79.516 143.808 C 120.913 141.286 162.309 138.765 203.705 136.243 C 205.188 145.048 207.323 153.578 209.877 161.140 Z"/>
<path fill="none" stroke="#ffffff" stroke-width="1" stroke-linecap="butt" stroke-linejoin="round" d="M 203.705 136.243 C 162.309 138.765 120.913 141.286 79.516 143.808 "/>
<path fill="none" stroke="#ffffff" stroke-width="1" stroke-linecap="butt" stroke-linejoin="round" d="M 201.409 109.291 C 201.498 118.740 202.315 127.999 203.705 136.243 "/>
<path id="S22_2" fill="#ffffff" fill-rule="evenodd" stroke="#000000" stroke-width="2" stroke-linecap="round" stroke-linejoin="round" d="M 203.705 136.243 C 162.309 138.765 120.913 141.286 79.516 143.808 C 65.564 137.832 58.476 120.997 64.096 111.668 C 109.867 110.875 155.638 110.083 201.409 109.291 C 201.498 118.740 202.315 127.999 203.705 136.243 Z"/>
<path fill="none" stroke="#ffffff" stroke-width="1" stroke-linecap="butt" stroke-linejoin="round" d="M 201.409 109.291 C 155.638 110.083 109.867 110.875 64.096 111.668 "/>
<path fill="none" stroke="#ffffff" stroke-width="1" stroke-linecap="butt" stroke-linejoin="round" d="M 202.580 86.567 C 201.724 94.231 201.339 101.819 201.409 109.291 "/>
<path id="S23_2" fill="#ffffff" fill-rule="evenodd" stroke="#000000" stroke-width="2" stroke-linecap="round" stroke-linejoin="round" d="M 201.409 109.291 C 155.638 110.083 109.867 110.875 64.096 111.668 C 52.241 107.546 39.287 80.562 58.388 79.759 C 79.723 78.863 142.566 80.876 202.580 86.567 C 201.724 94.231 201.339 101.819 201.409 109.291 Z"/>
<path fill="#000000" fill-rule="evenodd" stroke="#ffffff" stroke-width="2" stroke-linecap="round" stroke-linejoin="round" d="M 522.427 268.965 C 519.070 262.211 516.635 249.795 517.928 244.211 C 520.134 234.687 526.469 222.844 528.504 220.088 C 530.255 217.719 540.712 205.488 544.007 201.142 C 547.650 196.335 551.544 185.189 554.514 184.463 C 556.727 183.923 560.269 188.588 560.293 191.253 C 560.328 195.241 558.122 200.443 557.765 201.684 C 556.362 206.567 545.256 220.654 546.912 223.009 C 548.823 225.726 554.712 225.082 557.982 224.818 C 560.670 224.602 576.236 217.355 578.637 216.128 C 581.351 214.742 598.270 204.131 600.254 202.931 C 601.975 201.889 616.467 191.851 619.101 191.615 C 619.962 191.538 624.423 190.707 626.014 193.562 C 627.364 195.985 625.545 198.496 625.225 199.086 C 623.901 201.519 608.044 211.018 606.366 212.293 C 604.669 213.581 588.397 224.276 588.389 227.077 C 588.388 227.495 589.988 229.763 590.370 229.936 C 592.867 231.066 609.917 223.125 611.864 222.378 C 614.100 221.520 632.877 211.954 636.005 212.301 C 636.705 212.379 640.078 212.378 641.154 215.085 C 642.097 217.457 640.129 219.969 639.733 220.516 C 637.931 223.007 618.870 230.701 616.799 231.790 C 614.879 232.800 596.924 240.641 596.129 243.380 C 595.992 243.852 596.843 247.019 597.234 247.319 C 599.226 248.852 615.640 242.702 617.492 242.225 C 619.308 241.756 634.901 236.440 637.303 236.993 C 637.993 237.152 641.682 237.749 642.135 240.360 C 642.559 242.808 639.130 245.823 638.481 246.366 C 636.612 247.933 620.838 251.665 619.093 252.298 C 616.859 253.110 596.990 259.911 595.195 262.469 C 594.935 262.840 594.169 265.766 594.411 266.148 C 595.792 268.336 613.655 262.771 615.579 262.354 C 617.186 262.007 630.590 257.786 632.995 257.956 C 633.651 258.002 636.865 259.147 637.280 261.344 C 637.672 263.425 634.919 266.191 634.375 266.678 C 632.295 268.541 614.185 272.752 612.152 273.371 C 608.251 274.560 574.894 285.792 569.582 286.516 C 565.888 287.019 548.547 290.937 538.594 285.985 C 529.341 281.380 524.876 273.893 522.427 268.965 Z"/>
<path fill="#000000" fill-rule="evenodd" stroke="#ffffff" stroke-width="2" stroke-linecap="round" stroke-linejoin="round" d="M 197.573 268.965 C 200.930 262.211 203.365 249.795 202.072 244.211 C 199.866 234.687 193.532 222.844 191.496 220.088 C 189.745 217.719 179.288 205.488 175.993 201.141 C 172.349 196.334 168.456 185.188 165.485 184.463 C 163.273 183.923 159.731 188.588 159.707 191.252 C 159.672 195.241 161.878 200.443 162.235 201.684 C 163.638 206.567 174.744 220.654 173.088 223.009 C 171.177 225.726 165.288 225.081 162.018 224.818 C 159.330 224.602 143.764 217.355 141.363 216.128 C 138.649 214.742 121.730 204.131 119.746 202.931 C 118.025 201.889 103.533 191.851 100.899 191.615 C 100.038 191.538 95.577 190.707 93.986 193.562 C 92.636 195.985 94.455 198.496 94.775 199.086 C 96.099 201.519 111.956 211.018 113.634 212.292 C 115.331 213.581 131.603 224.276 131.611 227.076 C 131.612 227.495 130.012 229.763 129.630 229.936 C 127.133 231.066 110.083 223.125 108.135 222.378 C 105.900 221.520 87.123 211.954 83.995 212.301 C 83.295 212.379 79.922 212.378 78.846 215.085 C 77.903 217.457 79.871 219.969 80.267 220.517 C 82.069 223.008 101.130 230.701 103.201 231.790 C 105.121 232.800 123.076 240.642 123.871 243.380 C 124.008 243.853 123.157 247.019 122.766 247.319 C 120.774 248.852 104.360 242.702 102.508 242.225 C 100.692 241.756 85.099 236.440 82.697 236.994 C 82.007 237.153 78.318 237.749 77.865 240.360 C 77.441 242.808 80.870 245.823 81.518 246.366 C 83.388 247.933 99.162 251.665 100.907 252.298 C 103.141 253.110 123.010 259.911 124.805 262.469 C 125.065 262.840 125.831 265.766 125.589 266.149 C 124.208 268.337 106.345 262.771 104.421 262.355 C 102.814 262.007 89.410 257.786 87.005 257.956 C 86.349 258.002 83.135 259.147 82.720 261.344 C 82.327 263.425 85.081 266.191 85.625 266.679 C 87.705 268.542 105.815 272.752 107.847 273.371 C 111.749 274.560 145.106 285.792 150.418 286.516 C 154.112 287.019 171.453 290.937 181.406 285.984 C 190.659 281.380 195.124 273.893 197.573 268.965 Z"/>
<path id="S36" fill="#000000" fill-rule="evenodd" stroke="#ffffff" stroke-width="2" stroke-linejoin="round" d="M 359.935 262.401 C 359.935 262.402 359.103 271.648 362.148 278.945 C 366.791 290.072 374.322 290.666 378.173 298.721 C 380.862 304.345 378.791 309.580 382.179 316.036 C 387.193 325.593 400.307 335.097 400.309 335.099 C 400.308 335.097 393.610 322.829 394.053 313.690 C 394.503 304.418 403.142 300.603 402.491 292.693 C 401.870 285.156 393.299 284.248 391.373 274.217 C 389.684 265.418 394.253 255.524 394.253 255.522 C 394.254 255.524 396.886 264.432 402.435 270.055 C 410.853 278.586 418.078 276.233 424.609 282.243 C 429.192 286.461 429.137 292.137 434.669 296.878 C 442.813 303.860 458.463 307.720 458.465 307.722 C 458.464 307.720 447.513 299.008 444.381 290.403 C 441.223 281.725 447.665 274.913 444.047 267.895 C 440.578 261.165 432.315 263.589 426.704 255.041 C 421.799 247.567 422.247 236.702 422.247 236.700 C 422.248 236.701 428.000 243.995 435.242 247.144 C 446.219 251.917 452.039 247.033 460.330 250.166 C 466.157 252.368 468.223 257.657 475.125 259.989 C 485.283 263.422 501.234 261.151 501.237 261.151 C 501.235 261.150 487.824 257.158 481.703 250.347 C 475.527 243.473 478.956 234.744 472.977 229.580 C 467.248 224.632 460.490 229.954 452.100 224.116 C 444.750 219.001 441.111 208.737 441.110 208.735 C 441.111 208.736 449.216 213.263 457.111 213.412 C 469.101 213.637 472.636 206.961 481.511 206.655 C 487.731 206.440 491.693 210.444 498.953 209.915 C 509.685 209.132 523.576 200.882 523.579 200.881 C 523.576 200.880 509.643 202.117 501.427 198.066 C 493.068 193.945 492.993 184.489 485.453 181.913 C 478.308 179.471 474.041 186.910 464.099 184.644 C 455.308 182.640 448.040 174.428 448.039 174.427 C 448.040 174.427 457.286 175.258 464.583 172.214 C 475.710 167.571 476.305 160.040 484.359 156.189 C 489.983 153.500 495.219 155.572 501.675 152.184 C 511.231 147.169 520.735 134.055 520.737 134.053 C 520.735 134.054 508.467 140.751 499.328 140.309 C 490.056 139.859 486.241 131.219 478.331 131.871 C 470.794 132.492 469.886 141.063 459.856 142.989 C 451.056 144.678 441.162 140.109 441.160 140.108 C 441.162 140.107 450.070 137.476 455.693 131.927 C 464.224 123.509 461.872 116.284 467.882 109.753 C 472.100 105.170 477.775 105.224 482.516 99.693 C 489.498 91.548 493.358 75.899 493.359 75.897 C 493.358 75.898 484.646 86.849 476.040 89.981 C 467.363 93.139 460.551 86.697 453.533 90.315 C 446.803 93.784 449.227 102.047 440.679 107.657 C 433.204 112.563 422.340 112.114 422.338 112.115 C 422.339 112.113 429.633 106.361 432.782 99.119 C 437.555 88.143 432.672 82.323 435.805 74.032 C 438.006 68.205 443.295 66.139 445.627 59.237 C 449.060 49.079 446.789 33.128 446.789 33.125 C 446.788 33.127 442.797 46.538 435.985 52.658 C 429.111 58.835 420.382 55.406 415.218 61.385 C 410.271 67.114 415.592 73.872 409.754 82.262 C 404.639 89.611 394.375 93.251 394.373 93.252 C 394.373 93.250 398.901 85.146 399.050 77.251 C 399.276 65.261 392.599 61.726 392.293 52.851 C 392.078 46.631 396.083 42.669 395.553 35.408 C 394.770 24.676 386.520 10.785 386.519 10.783 C 386.518 10.785 387.755 24.718 383.704 32.934 C 379.583 41.293 370.127 41.369 367.551 48.909 C 365.110 56.055 372.549 60.321 370.282 70.263 C 368.278 79.054 360.066 86.321 360.065 86.323 C 360.065 86.321 360.897 77.075 357.852 69.779 C 353.209 58.652 345.678 58.057 341.827 50.003 C 339.138 44.379 341.209 39.143 337.822 32.687 C 332.807 23.131 319.693 13.626 319.691 13.624 C 319.692 13.627 326.390 25.894 325.947 35.034 C 325.498 44.306 316.858 48.120 317.509 56.031 C 318.130 63.568 326.701 64.476 328.627 74.506 C 330.316 83.305 325.747 93.200 325.747 93.201 C 325.746 93.200 323.114 84.291 317.565 78.669 C 309.147 70.138 301.922 72.490 295.391 66.480 C 290.808 62.262 290.862 56.587 285.331 51.846 C 277.186 44.864 261.537 41.003 261.535 41.002 C 261.536 41.004 272.487 49.716 275.619 58.321 C 278.777 66.998 272.335 73.811 275.953 80.829 C 279.422 87.559 287.685 85.134 293.296 93.683 C 298.202 101.157 297.753 112.022 297.753 112.023 C 297.752 112.022 292.000 104.729 284.758 101.580 C 273.781 96.808 267.961 101.690 259.670 98.557 C 253.844 96.355 251.777 91.067 244.876 88.734 C 234.717 85.301 218.766 87.572 218.763 87.572 C 218.765 87.573 232.176 91.565 238.297 98.377 C 244.473 105.251 241.044 113.980 247.023 119.144 C 252.752 124.091 259.510 118.770 267.900 124.608 C 275.250 129.723 278.889 139.987 278.890 139.989 C 278.889 139.988 270.784 135.460 262.890 135.312 C 250.899 135.086 247.364 141.762 238.489 142.069 C 232.269 142.284 228.307 138.279 221.047 138.809 C 210.315 139.592 196.424 147.842 196.421 147.843 C 196.424 147.843 210.357 146.606 218.573 150.657 C 226.932 154.779 227.007 164.235 234.547 166.811 C 241.692 169.252 245.959 161.813 255.901 164.080 C 264.692 166.084 271.960 174.296 271.961 174.297 C 271.960 174.298 262.714 173.465 255.417 176.510 C 244.290 181.153 243.696 188.684 235.641 192.535 C 230.017 195.224 224.781 193.152 218.325 196.540 C 208.769 201.554 199.265 214.669 199.263 214.671 C 199.265 214.670 211.533 207.973 220.672 208.415 C 229.944 208.865 233.759 217.505 241.669 216.853 C 249.207 216.232 250.114 207.661 260.144 205.735 C 268.944 204.045 278.838 208.615 278.840 208.616 C 278.839 208.616 269.930 211.248 264.307 216.796 C 255.775 225.214 258.128 232.440 252.118 238.970 C 247.900 243.554 242.225 243.499 237.484 249.030 C 230.502 257.175 226.642 272.825 226.641 272.827 C 226.642 272.826 235.354 261.875 243.960 258.743 C 252.637 255.584 259.449 262.027 266.467 258.409 C 273.197 254.940 270.773 246.677 279.321 241.066 C 286.796 236.160 297.660 236.609 297.662 236.609 C 297.661 236.610 290.367 242.362 287.218 249.604 C 282.445 260.580 287.328 266.400 284.195 274.691 C 281.994 280.518 276.706 282.585 274.373 289.486 C 270.940 299.645 273.211 315.596 273.211 315.599 C 273.212 315.597 277.203 302.186 284.015 296.065 C 290.889 289.889 299.618 293.318 304.782 287.338 C 309.730 281.610 304.408 274.852 310.246 266.462 C 315.361 259.112 325.625 255.473 325.627 255.472 C 325.627 255.474 321.099 263.578 320.950 271.473 C 320.724 283.463 327.401 286.997 327.707 295.872 C 327.922 302.093 323.917 306.055 324.447 313.315 C 325.230 324.047 333.480 337.938 333.481 337.941 C 333.482 337.939 332.245 324.005 336.296 315.789 C 340.417 307.430 349.873 307.355 352.449 299.815 C 354.890 292.669 347.451 288.403 349.718 278.461 C 351.722 269.670 359.934 262.402 359.935 262.401 Z"/>
<path fill="#ffffff" fill-rule="evenodd" stroke="none" d="M 360.000 249.673 C 360.001 249.667 367.497 193.975 367.498 193.970 C 367.499 193.975 384.667 247.038 384.669 247.043 C 384.669 247.038 381.797 191.548 381.796 191.543 C 381.799 191.547 407.624 239.495 407.627 239.500 C 407.626 239.495 394.925 186.926 394.924 186.921 C 394.927 186.925 428.383 227.553 428.386 227.557 C 428.384 227.553 406.591 180.354 406.589 180.349 C 406.593 180.352 446.458 211.729 446.462 211.732 C 446.459 211.728 416.505 172.073 416.502 172.069 C 416.506 172.071 461.362 198.159 461.367 198.161 C 461.363 198.158 427.594 162.129 427.591 162.125 C 427.595 162.127 401.231 130.825 360.000 130.825 C 318.769 130.825 292.405 162.127 292.409 162.125 C 292.406 162.129 258.637 198.158 258.633 198.161 C 258.638 198.159 303.494 172.071 303.498 172.069 C 303.495 172.073 273.541 211.728 273.538 211.732 C 273.542 211.729 313.407 180.352 313.411 180.349 C 313.408 180.354 291.616 227.553 291.614 227.557 C 291.617 227.553 325.073 186.925 325.076 186.921 C 325.075 186.926 312.374 239.495 312.373 239.500 C 312.376 239.495 338.201 191.547 338.204 191.543 C 338.203 191.548 335.331 247.038 335.331 247.043 C 335.333 247.038 352.501 193.975 352.502 193.970 C 352.503 193.975 359.999 249.667 360.000 249.673 Z"/>
<path fill="#ffffff" fill-rule="evenodd" stroke="#000000" stroke-width="2" stroke-linecap="round" stroke-linejoin="round" d="M 348.461 172.997 C 348.461 179.384 353.613 184.536 360.000 184.536 C 366.387 184.536 371.539 179.384 371.539 172.997 C 371.539 166.610 366.387 161.458 360.000 161.458 C 353.613 161.458 348.461 166.610 348.461 172.997 M 332.244 179.878 C 339.494 183.855 351.366 185.754 360.000 185.753 C 368.381 185.752 379.947 183.957 387.680 179.908 C 388.209 177.717 388.390 175.391 388.338 172.997 C 387.992 157.316 375.685 144.659 360.000 144.659 C 344.315 144.659 332.023 157.316 331.662 172.997 C 331.607 175.394 331.784 177.723 332.244 179.878 Z"/>
<path fill="none" stroke="#000000" stroke-width="1" stroke-linecap="butt" stroke-linejoin="round" d="M 360.000 184.536 C 366.387 184.536 371.539 179.384 371.539 172.997 "/>
<path fill="none" stroke="#000000" stroke-width="1" stroke-linecap="butt" stroke-linejoin="round" d="M 371.539 172.997 C 371.539 166.610 366.387 161.458 360.000 161.458 "/>
<path fill="none" stroke="#000000" stroke-width="1" stroke-linecap="butt" stroke-linejoin="round" d="M 360.000 161.458 C 353.613 161.458 348.461 166.610 348.461 172.997 "/>
<path fill="none" stroke="#000000" stroke-width="1" stroke-linecap="butt" stroke-linejoin="round" d="M 348.461 172.997 C 348.461 179.384 353.613 184.536 360.000 184.536 "/>
<path fill="#000000" fill-rule="evenodd" stroke="none" d="M 360.000 184.536 C 366.387 184.536 371.539 179.384 371.539 172.997 C 371.539 166.610 366.387 161.458 360.000 161.458 C 353.613 161.458 348.461 166.610 348.461 172.997 C 348.461 179.384 353.613 184.536 360.000 184.536 Z"/>
<path fill="none" stroke="#000000" stroke-width="1" stroke-linecap="butt" stroke-linejoin="round" d="M 331.662 172.997 C 331.607 175.394 331.784 177.723 332.244 179.878 "/>
<path fill="none" stroke="#000000" stroke-width="1" stroke-linecap="butt" stroke-linejoin="round" d="M 387.680 179.908 C 388.209 177.717 388.390 175.391 388.338 172.997 "/>
<path fill="none" stroke="#000000" stroke-width="1" stroke-linecap="butt" stroke-linejoin="round" d="M 388.338 172.997 C 387.992 157.316 375.685 144.659 360.000 144.659 "/>
<path fill="none" stroke="#000000" stroke-width="1" stroke-linecap="butt" stroke-linejoin="round" d="M 360.000 144.659 C 344.315 144.659 332.023 157.316 331.662 172.997 "/>
<path fill="#000000" fill-rule="evenodd" stroke="#000000" stroke-width="2" stroke-linecap="round" stroke-linejoin="round" d="M 331.662 172.997 C 331.607 175.394 331.784 177.723 332.244 179.878 C 317.887 175.036 304.879 161.829 304.876 161.827 C 304.881 161.825 328.559 138.307 360.000 138.307 C 391.441 138.307 415.119 161.825 415.124 161.827 C 415.121 161.829 401.855 175.345 387.680 179.908 C 388.209 177.717 388.390 175.391 388.338 172.997 C 387.992 157.316 375.685 144.659 360.000 144.659 C 344.315 144.659 332.023 157.316 331.662 172.997 Z"/>
<path fill="#000000" fill-rule="evenodd" stroke="none" d="M 551.573 260.885 C 551.573 264.257 554.293 266.978 557.666 266.978 C 561.038 266.978 563.759 264.257 563.759 260.885 C 563.759 257.513 561.038 254.792 557.666 254.792 C 554.293 254.792 551.573 257.513 551.573 260.885 M 543.011 264.518 C 546.839 266.618 553.107 267.621 557.666 267.620 C 562.091 267.620 568.198 266.672 572.281 264.535 C 572.560 263.377 572.656 262.149 572.628 260.885 C 572.446 252.605 565.947 245.922 557.666 245.923 C 549.384 245.923 542.894 252.606 542.704 260.885 C 542.674 262.151 542.768 263.380 543.011 264.518 Z"/>
<path fill="none" stroke="#ffffff" stroke-width="1" stroke-linecap="butt" stroke-linejoin="round" d="M 557.666 266.978 C 561.038 266.978 563.759 264.257 563.759 260.885 "/>
<path fill="none" stroke="#ffffff" stroke-width="1" stroke-linecap="butt" stroke-linejoin="round" d="M 563.759 260.885 C 563.759 257.513 561.038 254.792 557.666 254.792 "/>
<path fill="none" stroke="#ffffff" stroke-width="1" stroke-linecap="butt" stroke-linejoin="round" d="M 557.666 254.792 C 554.293 254.792 551.573 257.513 551.573 260.885 "/>
<path fill="none" stroke="#ffffff" stroke-width="1" stroke-linecap="butt" stroke-linejoin="round" d="M 551.573 260.885 C 551.573 264.257 554.293 266.978 557.666 266.978 "/>
<path fill="#ffffff" fill-rule="evenodd" stroke="none" d="M 557.666 266.978 C 561.038 266.978 563.759 264.257 563.759 260.885 C 563.759 257.513 561.038 254.792 557.666 254.792 C 554.293 254.792 551.573 257.513 551.573 260.885 C 551.573 264.257 554.293 266.978 557.666 266.978 Z"/>
<path fill="none" stroke="#ffffff" stroke-width="1" stroke-linecap="butt" stroke-linejoin="round" d="M 542.704 260.885 C 542.674 262.151 542.768 263.380 543.011 264.518 "/>
<path fill="none" stroke="#ffffff" stroke-width="1" stroke-linecap="butt" stroke-linejoin="round" d="M 572.281 264.535 C 572.560 263.377 572.656 262.149 572.628 260.885 "/>
<path fill="none" stroke="#ffffff" stroke-width="1" stroke-linecap="butt" stroke-linejoin="round" d="M 572.628 260.885 C 572.446 252.605 565.947 245.922 557.666 245.923 "/>
<path fill="none" stroke="#ffffff" stroke-width="1" stroke-linecap="butt" stroke-linejoin="round" d="M 557.666 245.923 C 549.384 245.923 542.894 252.606 542.704 260.885 "/>
<path fill="#ffffff" fill-rule="evenodd" stroke="none" d="M 542.704 260.885 C 542.674 262.151 542.768 263.380 543.011 264.518 C 535.430 261.962 528.562 254.989 528.560 254.988 C 528.563 254.986 541.065 242.569 557.666 242.569 C 574.267 242.569 586.768 254.986 586.771 254.988 C 586.770 254.989 579.765 262.126 572.281 264.535 C 572.560 263.377 572.656 262.149 572.628 260.885 C 572.446 252.605 565.947 245.922 557.666 245.923 C 549.384 245.923 542.894 252.606 542.704 260.885 Z"/>
<path fill="#000000" fill-rule="evenodd" stroke="none" d="M 156.241 260.885 C 156.241 264.257 158.962 266.978 162.334 266.978 C 165.707 266.978 168.427 264.257 168.427 260.885 C 168.427 257.513 165.707 254.792 162.334 254.792 C 158.962 254.792 156.241 257.513 156.241 260.885 M 147.679 264.518 C 151.507 266.618 157.775 267.621 162.334 267.620 C 166.760 267.620 172.866 266.672 176.949 264.535 C 177.229 263.377 177.325 262.149 177.297 260.885 C 177.114 252.605 170.616 245.923 162.334 245.923 C 154.053 245.923 147.563 252.606 147.372 260.885 C 147.343 262.151 147.436 263.380 147.679 264.518 Z"/>
<path fill="none" stroke="#ffffff" stroke-width="1" stroke-linecap="butt" stroke-linejoin="round" d="M 162.334 266.978 C 165.707 266.978 168.427 264.257 168.427 260.885 "/>
<path fill="none" stroke="#ffffff" stroke-width="1" stroke-linecap="butt" stroke-linejoin="round" d="M 168.427 260.885 C 168.427 257.513 165.707 254.792 162.334 254.792 "/>
<path fill="none" stroke="#ffffff" stroke-width="1" stroke-linecap="butt" stroke-linejoin="round" d="M 162.334 254.792 C 158.962 254.792 156.241 257.513 156.241 260.885 "/>
<path fill="none" stroke="#ffffff" stroke-width="1" stroke-linecap="butt" stroke-linejoin="round" d="M 156.241 260.885 C 156.241 264.257 158.962 266.978 162.334 266.978 "/>
<path fill="#ffffff" fill-rule="evenodd" stroke="none" d="M 162.334 266.978 C 165.707 266.978 168.427 264.257 168.427 260.885 C 168.427 257.513 165.707 254.792 162.334 254.792 C 158.962 254.792 156.241 257.513 156.241 260.885 C 156.241 264.257 158.962 266.978 162.334 266.978 Z"/>
<path fill="none" stroke="#ffffff" stroke-width="1" stroke-linecap="butt" stroke-linejoin="round" d="M 147.372 260.885 C 147.343 262.151 147.436 263.380 147.679 264.518 "/>
<path fill="none" stroke="#ffffff" stroke-width="1" stroke-linecap="butt" stroke-linejoin="round" d="M 176.949 264.535 C 177.229 263.377 177.325 262.149 177.297 260.885 "/>
<path fill="none" stroke="#ffffff" stroke-width="1" stroke-linecap="butt" stroke-linejoin="round" d="M 177.297 260.885 C 177.114 252.605 170.616 245.923 162.334 245.923 "/>
<path fill="none" stroke="#ffffff" stroke-width="1" stroke-linecap="butt" stroke-linejoin="round" d="M 162.334 245.923 C 154.053 245.923 147.563 252.606 147.372 260.885 "/>
<path fill="#ffffff" fill-rule="evenodd" stroke="none" d="M 147.372 260.885 C 147.343 262.151 147.436 263.380 147.679 264.518 C 140.099 261.962 133.230 254.989 133.229 254.988 C 133.232 254.986 145.733 242.569 162.334 242.569 C 178.935 242.569 191.437 254.986 191.440 254.988 C 191.438 254.989 184.434 262.125 176.949 264.535 C 177.229 263.377 177.325 262.149 177.297 260.885 C 177.114 252.605 170.616 245.923 162.334 245.923 C 154.053 245.923 147.563 252.606 147.372 260.885 Z"/>
</g>
<g id="specs_2">
<path fill="#ff00ff" fill-rule="evenodd" stroke="none" d="M 152.574 691.028 C 152.615 691.028 567.385 691.028 567.426 691.028 C 567.426 690.986 567.426 276.217 567.426 276.175 C 567.385 276.175 152.615 276.175 152.574 276.175 C 152.574 276.217 152.574 690.986 152.574 691.028 Z"/>
<path fill="#ff0000" fill-rule="evenodd" stroke="none" d="M 360.000 331.230 C 360.001 331.234 372.416 365.996 372.417 366.000 C 372.416 365.999 360.001 354.447 360.000 354.446 C 359.999 354.447 347.584 365.999 347.583 366.000 C 347.584 365.996 359.999 331.234 360.000 331.230 Z"/>
<path fill="#0000ff" fill-rule="evenodd" stroke="none" d="M 360.000 18.197 C 360.001 18.199 367.212 38.392 367.213 38.394 C 367.212 38.394 360.001 31.684 360.000 31.683 C 359.999 31.684 352.788 38.394 352.787 38.394 C 352.788 38.392 359.999 18.199 360.000 18.197 Z"/>
<path fill="#00ff00" fill-rule="evenodd" stroke="none" d="M 705.017 652.792 C 705.016 652.794 697.702 672.950 697.702 672.952 C 697.702 672.952 704.948 666.278 704.949 666.277 C 704.950 666.278 712.127 673.024 712.128 673.025 C 712.127 673.023 705.018 652.794 705.017 652.792 Z"/>
<path fill="#00ff00" fill-rule="evenodd" stroke="none" d="M 14.903 652.792 C 14.904 652.794 22.218 672.950 22.218 672.952 C 22.218 672.951 14.972 666.278 14.971 666.277 C 14.970 666.278 7.793 673.024 7.792 673.025 C 7.793 673.023 14.902 652.794 14.903 652.792 Z"/>
</g>
</g>
</svg>
