<?xml version="1.0" encoding="utf-8"?>
<!-- Generator: Moho 13.5 build 20210422 -->
<!DOCTYPE svg PUBLIC "-//W3C//DTD SVG 1.1//EN" "http://www.w3.org/Graphics/SVG/1.1/DTD/svg11.dtd">
<svg version="1.1" id="Frame_0" xmlns="http://www.w3.org/2000/svg" xmlns:xlink="http://www.w3.org/1999/xlink" width="720px" height="720px">
<g id="angel">
<g id="angel_lovers_2">
<path id="S12" fill="#ffffff" fill-rule="evenodd" stroke="#000000" stroke-width="2" stroke-linecap="round" stroke-linejoin="round" d="M 517.420 110.118 C 487.939 112.914 459.335 115.620 435.717 121.510 C 434.900 177.939 416.433 234.536 360.000 234.065 C 360.000 234.069 360.000 275.681 360.000 275.685 C 360.002 275.685 376.110 277.321 383.996 277.300 C 392.212 277.279 400.320 276.593 408.138 275.267 C 415.537 274.013 422.758 272.145 429.659 269.733 C 437.591 266.961 445.272 263.330 452.409 259.016 C 459.721 254.598 466.253 249.694 472.267 244.207 C 478.147 238.843 483.605 232.812 488.512 226.282 C 493.212 220.029 497.475 213.174 501.179 205.916 C 504.740 198.940 507.671 191.958 510.123 184.691 C 512.677 177.129 514.812 168.599 516.295 159.795 C 517.685 151.550 518.502 142.291 518.591 132.842 C 518.661 125.370 518.276 117.782 517.420 110.118 Z"/>
<path fill="none" stroke="#ffffff" stroke-width="1" stroke-linecap="butt" stroke-linejoin="round" d="M 360.000 275.685 C 360.002 275.685 376.110 277.321 383.996 277.300 "/>
<path id="S13" fill="#ffffff" fill-rule="evenodd" stroke="#000000" stroke-width="2" stroke-linecap="round" stroke-linejoin="round" d="M 383.996 277.300 C 385.988 287.861 387.979 298.422 389.971 308.982 C 381.120 315.863 367.289 312.814 360.000 303.883 C 360.000 303.883 360.000 275.688 360.000 275.685 C 360.002 275.685 376.110 277.321 383.996 277.300 Z"/>
<path fill="none" stroke="#ffffff" stroke-width="1" stroke-linecap="butt" stroke-linejoin="round" d="M 383.996 277.300 C 385.988 287.861 387.979 298.422 389.971 308.982 "/>
<path fill="none" stroke="#ffffff" stroke-width="1" stroke-linecap="butt" stroke-linejoin="round" d="M 408.138 275.267 C 400.320 276.593 392.212 277.279 383.996 277.300 "/>
<path id="S14" fill="#ffffff" fill-rule="evenodd" stroke="#000000" stroke-width="2" stroke-linecap="round" stroke-linejoin="round" d="M 383.996 277.300 C 385.988 287.861 387.979 298.422 389.971 308.982 C 397.714 318.233 412.434 319.871 420.526 311.178 C 416.397 299.208 412.268 287.238 408.138 275.267 C 400.320 276.593 392.212 277.279 383.996 277.300 Z"/>
<path fill="none" stroke="#ffffff" stroke-width="1" stroke-linecap="butt" stroke-linejoin="round" d="M 408.138 275.267 C 412.268 287.238 416.397 299.208 420.526 311.178 "/>
<path fill="none" stroke="#ffffff" stroke-width="1" stroke-linecap="butt" stroke-linejoin="round" d="M 429.659 269.733 C 422.758 272.145 415.537 274.013 408.138 275.267 "/>
<path id="S15" fill="#ffffff" fill-rule="evenodd" stroke="#000000" stroke-width="2" stroke-linecap="round" stroke-linejoin="round" d="M 408.138 275.267 C 412.268 287.238 416.397 299.208 420.526 311.178 C 431.039 318.702 444.758 317.368 453.327 308.757 C 445.438 295.749 437.548 282.741 429.659 269.733 C 422.758 272.145 415.537 274.013 408.138 275.267 Z"/>
<path fill="none" stroke="#ffffff" stroke-width="1" stroke-linecap="butt" stroke-linejoin="round" d="M 429.659 269.733 C 437.548 282.741 445.438 295.749 453.327 308.757 "/>
<path fill="none" stroke="#ffffff" stroke-width="1" stroke-linecap="butt" stroke-linejoin="round" d="M 452.409 259.016 C 445.272 263.330 437.591 266.961 429.659 269.733 "/>
<path id="S16" fill="#ffffff" fill-rule="evenodd" stroke="#000000" stroke-width="2" stroke-linecap="round" stroke-linejoin="round" d="M 429.659 269.733 C 437.548 282.741 445.438 295.749 453.327 308.757 C 464.341 313.613 478.590 309.633 486.186 298.727 C 474.927 285.490 463.668 272.253 452.409 259.016 C 445.272 263.330 437.591 266.961 429.659 269.733 Z"/>
<path fill="none" stroke="#ffffff" stroke-width="1" stroke-linecap="butt" stroke-linejoin="round" d="M 452.409 259.016 C 463.668 272.253 474.927 285.490 486.186 298.727 "/>
<path fill="none" stroke="#ffffff" stroke-width="1" stroke-linecap="butt" stroke-linejoin="round" d="M 472.267 244.207 C 466.253 249.694 459.721 254.598 452.409 259.016 "/>
<path id="S17" fill="#ffffff" fill-rule="evenodd" stroke="#000000" stroke-width="2" stroke-linecap="round" stroke-linejoin="round" d="M 452.409 259.016 C 463.668 272.253 474.927 285.490 486.186 298.727 C 496.588 300.571 509.115 293.726 512.965 280.350 C 499.399 268.302 485.833 256.255 472.267 244.207 C 466.253 249.694 459.721 254.598 452.409 259.016 Z"/>
<path fill="none" stroke="#ffffff" stroke-width="1" stroke-linecap="butt" stroke-linejoin="round" d="M 472.267 244.207 C 485.833 256.255 499.399 268.302 512.965 280.350 "/>
<path fill="none" stroke="#ffffff" stroke-width="1" stroke-linecap="butt" stroke-linejoin="round" d="M 488.512 226.282 C 483.605 232.812 478.147 238.843 472.267 244.207 "/>
<path id="S18" fill="#ffffff" fill-rule="evenodd" stroke="#000000" stroke-width="2" stroke-linecap="round" stroke-linejoin="round" d="M 472.267 244.207 C 485.833 256.255 499.399 268.302 512.965 280.350 C 523.950 278.861 534.323 266.057 532.797 253.292 C 518.035 244.289 503.274 235.285 488.512 226.282 C 483.605 232.812 478.147 238.843 472.267 244.207 Z"/>
<path fill="none" stroke="#ffffff" stroke-width="1" stroke-linecap="butt" stroke-linejoin="round" d="M 488.512 226.282 C 503.274 235.285 518.035 244.289 532.797 253.292 "/>
<path fill="none" stroke="#ffffff" stroke-width="1" stroke-linecap="butt" stroke-linejoin="round" d="M 501.179 205.916 C 497.475 213.174 493.212 220.029 488.512 226.282 "/>
<path id="S19" fill="#ffffff" fill-rule="evenodd" stroke="#000000" stroke-width="2" stroke-linecap="round" stroke-linejoin="round" d="M 488.512 226.282 C 503.274 235.285 518.035 244.289 532.797 253.292 C 543.547 247.640 550.689 233.368 547.295 221.661 C 531.923 216.413 516.551 211.164 501.179 205.916 C 497.475 213.174 493.212 220.029 488.512 226.282 Z"/>
<path fill="none" stroke="#ffffff" stroke-width="1" stroke-linecap="butt" stroke-linejoin="round" d="M 501.179 205.916 C 516.551 211.164 531.923 216.413 547.295 221.661 "/>
<path fill="none" stroke="#ffffff" stroke-width="1" stroke-linecap="butt" stroke-linejoin="round" d="M 510.123 184.691 C 507.671 191.958 504.740 198.940 501.179 205.916 "/>
<path id="S20" fill="#ffffff" fill-rule="evenodd" stroke="#000000" stroke-width="2" stroke-linecap="round" stroke-linejoin="round" d="M 501.179 205.916 C 516.551 211.164 531.923 216.413 547.295 221.661 C 574.907 225.542 607.627 212.884 607.782 198.238 C 575.229 193.722 542.676 189.207 510.123 184.691 C 507.671 191.958 504.740 198.940 501.179 205.916 Z"/>
<path fill="none" stroke="#ffffff" stroke-width="1" stroke-linecap="butt" stroke-linejoin="round" d="M 510.123 184.691 C 542.676 189.207 575.229 193.722 607.782 198.238 "/>
<path fill="none" stroke="#ffffff" stroke-width="1" stroke-linecap="butt" stroke-linejoin="round" d="M 516.295 159.795 C 514.812 168.599 512.677 177.129 510.123 184.691 "/>
<path id="S21" fill="#ffffff" fill-rule="evenodd" stroke="#000000" stroke-width="2" stroke-linecap="round" stroke-linejoin="round" d="M 510.123 184.691 C 542.676 189.207 575.229 193.722 607.782 198.238 C 626.070 196.462 642.342 179.888 640.484 167.359 C 599.087 164.837 557.691 162.316 516.295 159.795 C 514.812 168.599 512.677 177.129 510.123 184.691 Z"/>
<path fill="none" stroke="#ffffff" stroke-width="1" stroke-linecap="butt" stroke-linejoin="round" d="M 516.295 159.795 C 557.691 162.316 599.087 164.837 640.484 167.359 "/>
<path fill="none" stroke="#ffffff" stroke-width="1" stroke-linecap="butt" stroke-linejoin="round" d="M 518.591 132.842 C 518.502 142.291 517.685 151.550 516.295 159.795 "/>
<path id="S22" fill="#ffffff" fill-rule="evenodd" stroke="#000000" stroke-width="2" stroke-linecap="round" stroke-linejoin="round" d="M 516.295 159.795 C 557.691 162.316 599.087 164.837 640.484 167.359 C 654.436 161.384 661.524 144.548 655.904 135.219 C 610.133 134.427 564.362 133.634 518.591 132.842 C 518.502 142.291 517.685 151.550 516.295 159.795 Z"/>
<path fill="none" stroke="#ffffff" stroke-width="1" stroke-linecap="butt" stroke-linejoin="round" d="M 518.591 132.842 C 564.362 133.634 610.133 134.427 655.904 135.219 "/>
<path fill="none" stroke="#ffffff" stroke-width="1" stroke-linecap="butt" stroke-linejoin="round" d="M 517.420 110.118 C 518.276 117.782 518.661 125.370 518.591 132.842 "/>
<path id="S23" fill="#ffffff" fill-rule="evenodd" stroke="#000000" stroke-width="2" stroke-linecap="round" stroke-linejoin="round" d="M 518.591 132.842 C 564.362 133.634 610.133 134.427 655.904 135.219 C 667.759 131.097 680.713 104.113 661.612 103.310 C 640.277 102.415 577.434 104.427 517.420 110.118 C 518.276 117.782 518.661 125.370 518.591 132.842 Z"/>
<path id="S12_2" fill="#ffffff" fill-rule="evenodd" stroke="#000000" stroke-width="2" stroke-linecap="round" stroke-linejoin="round" d="M 202.580 110.118 C 232.061 112.914 260.665 115.620 284.283 121.510 C 285.100 177.939 303.567 234.536 360.000 234.065 C 360.000 234.069 360.000 255.242 360.000 275.685 C 351.821 276.797 343.890 277.321 336.004 277.300 C 327.788 277.279 319.680 276.593 311.862 275.267 C 304.463 274.013 297.242 272.145 290.341 269.733 C 282.409 266.961 274.728 263.330 267.591 259.016 C 260.279 254.598 253.747 249.694 247.733 244.207 C 241.853 238.843 236.395 232.812 231.488 226.282 C 226.788 220.029 222.525 213.174 218.821 205.916 C 215.260 198.940 212.329 191.958 209.877 184.691 C 207.323 177.129 205.188 168.599 203.705 159.795 C 202.315 151.550 201.498 142.291 201.409 132.842 C 201.339 125.370 201.724 117.782 202.580 110.118 Z"/>
<path fill="none" stroke="#ffffff" stroke-width="1" stroke-linecap="butt" stroke-linejoin="round" d="M 360.000 275.685 C 351.821 276.797 343.890 277.321 336.004 277.300 "/>
<path id="S13_2" fill="#ffffff" fill-rule="evenodd" stroke="#000000" stroke-width="2" stroke-linecap="round" stroke-linejoin="round" d="M 336.004 277.300 C 334.012 287.861 332.021 298.422 330.029 308.982 C 338.880 315.863 352.711 312.814 360.000 303.883 C 360.000 303.883 360.000 290.017 360.000 275.685 C 351.821 276.797 343.890 277.321 336.004 277.300 Z"/>
<path fill="none" stroke="#ffffff" stroke-width="1" stroke-linecap="butt" stroke-linejoin="round" d="M 336.004 277.300 C 334.012 287.861 332.021 298.422 330.029 308.982 "/>
<path fill="none" stroke="#ffffff" stroke-width="1" stroke-linecap="butt" stroke-linejoin="round" d="M 311.862 275.267 C 319.680 276.593 327.788 277.279 336.004 277.300 "/>
<path id="S14_2" fill="#ffffff" fill-rule="evenodd" stroke="#000000" stroke-width="2" stroke-linecap="round" stroke-linejoin="round" d="M 336.004 277.300 C 334.012 287.861 332.021 298.422 330.029 308.982 C 322.286 318.233 307.566 319.871 299.474 311.178 C 303.603 299.208 307.732 287.238 311.862 275.267 C 319.680 276.593 327.788 277.279 336.004 277.300 Z"/>
<path fill="none" stroke="#ffffff" stroke-width="1" stroke-linecap="butt" stroke-linejoin="round" d="M 311.862 275.267 C 307.732 287.238 303.603 299.208 299.474 311.178 "/>
<path fill="none" stroke="#ffffff" stroke-width="1" stroke-linecap="butt" stroke-linejoin="round" d="M 290.341 269.733 C 297.242 272.145 304.463 274.013 311.862 275.267 "/>
<path id="S15_2" fill="#ffffff" fill-rule="evenodd" stroke="#000000" stroke-width="2" stroke-linecap="round" stroke-linejoin="round" d="M 311.862 275.267 C 307.732 287.238 303.603 299.208 299.474 311.178 C 288.961 318.702 275.242 317.368 266.673 308.757 C 274.563 295.749 282.452 282.741 290.341 269.733 C 297.242 272.145 304.463 274.013 311.862 275.267 Z"/>
<path fill="none" stroke="#ffffff" stroke-width="1" stroke-linecap="butt" stroke-linejoin="round" d="M 290.341 269.733 C 282.452 282.741 274.563 295.749 266.673 308.757 "/>
<path fill="none" stroke="#ffffff" stroke-width="1" stroke-linecap="butt" stroke-linejoin="round" d="M 267.591 259.016 C 274.728 263.330 282.409 266.961 290.341 269.733 "/>
<path id="S16_2" fill="#ffffff" fill-rule="evenodd" stroke="#000000" stroke-width="2" stroke-linecap="round" stroke-linejoin="round" d="M 290.341 269.733 C 282.452 282.741 274.563 295.749 266.673 308.757 C 255.659 313.613 241.410 309.633 233.814 298.727 C 245.073 285.490 256.332 272.253 267.591 259.016 C 274.728 263.330 282.409 266.961 290.341 269.733 Z"/>
<path fill="none" stroke="#ffffff" stroke-width="1" stroke-linecap="butt" stroke-linejoin="round" d="M 267.591 259.016 C 256.332 272.253 245.073 285.490 233.814 298.727 "/>
<path fill="none" stroke="#ffffff" stroke-width="1" stroke-linecap="butt" stroke-linejoin="round" d="M 247.733 244.207 C 253.747 249.694 260.279 254.598 267.591 259.016 "/>
<path id="S17_2" fill="#ffffff" fill-rule="evenodd" stroke="#000000" stroke-width="2" stroke-linecap="round" stroke-linejoin="round" d="M 267.591 259.016 C 256.332 272.253 245.073 285.490 233.814 298.727 C 223.412 300.571 210.885 293.726 207.035 280.350 C 220.601 268.302 234.167 256.255 247.733 244.207 C 253.747 249.694 260.279 254.598 267.591 259.016 Z"/>
<path fill="none" stroke="#ffffff" stroke-width="1" stroke-linecap="butt" stroke-linejoin="round" d="M 247.733 244.207 C 234.167 256.255 220.601 268.302 207.035 280.350 "/>
<path fill="none" stroke="#ffffff" stroke-width="1" stroke-linecap="butt" stroke-linejoin="round" d="M 231.488 226.282 C 236.395 232.812 241.853 238.843 247.733 244.207 "/>
<path id="S18_2" fill="#ffffff" fill-rule="evenodd" stroke="#000000" stroke-width="2" stroke-linecap="round" stroke-linejoin="round" d="M 247.733 244.207 C 234.167 256.255 220.601 268.302 207.035 280.350 C 196.050 278.861 185.677 266.057 187.203 253.292 C 201.965 244.289 216.726 235.285 231.488 226.282 C 236.395 232.812 241.853 238.843 247.733 244.207 Z"/>
<path fill="none" stroke="#ffffff" stroke-width="1" stroke-linecap="butt" stroke-linejoin="round" d="M 231.488 226.282 C 216.726 235.285 201.965 244.289 187.203 253.292 "/>
<path fill="none" stroke="#ffffff" stroke-width="1" stroke-linecap="butt" stroke-linejoin="round" d="M 218.821 205.916 C 222.525 213.174 226.788 220.029 231.488 226.282 "/>
<path id="S19_2" fill="#ffffff" fill-rule="evenodd" stroke="#000000" stroke-width="2" stroke-linecap="round" stroke-linejoin="round" d="M 231.488 226.282 C 216.726 235.285 201.965 244.289 187.203 253.292 C 176.453 247.640 169.311 233.368 172.705 221.661 C 188.077 216.413 203.449 211.164 218.821 205.916 C 222.525 213.174 226.788 220.029 231.488 226.282 Z"/>
<path fill="none" stroke="#ffffff" stroke-width="1" stroke-linecap="butt" stroke-linejoin="round" d="M 218.821 205.916 C 203.449 211.164 188.077 216.413 172.705 221.661 "/>
<path fill="none" stroke="#ffffff" stroke-width="1" stroke-linecap="butt" stroke-linejoin="round" d="M 209.877 184.691 C 212.329 191.958 215.260 198.940 218.821 205.916 "/>
<path id="S20_2" fill="#ffffff" fill-rule="evenodd" stroke="#000000" stroke-width="2" stroke-linecap="round" stroke-linejoin="round" d="M 218.821 205.916 C 203.449 211.164 188.077 216.413 172.705 221.661 C 145.093 225.542 112.373 212.884 112.218 198.238 C 144.771 193.722 177.324 189.207 209.877 184.691 C 212.329 191.958 215.260 198.940 218.821 205.916 Z"/>
<path fill="none" stroke="#ffffff" stroke-width="1" stroke-linecap="butt" stroke-linejoin="round" d="M 209.877 184.691 C 177.324 189.207 144.771 193.722 112.218 198.238 "/>
<path fill="none" stroke="#ffffff" stroke-width="1" stroke-linecap="butt" stroke-linejoin="round" d="M 203.705 159.795 C 205.188 168.599 207.323 177.129 209.877 184.691 "/>
<path id="S21_2" fill="#ffffff" fill-rule="evenodd" stroke="#000000" stroke-width="2" stroke-linecap="round" stroke-linejoin="round" d="M 209.877 184.691 C 177.324 189.207 144.771 193.722 112.218 198.238 C 93.930 196.462 77.658 179.888 79.516 167.359 C 120.913 164.837 162.309 162.316 203.705 159.795 C 205.188 168.599 207.323 177.129 209.877 184.691 Z"/>
<path fill="none" stroke="#ffffff" stroke-width="1" stroke-linecap="butt" stroke-linejoin="round" d="M 203.705 159.795 C 162.309 162.316 120.913 164.837 79.516 167.359 "/>
<path fill="none" stroke="#ffffff" stroke-width="1" stroke-linecap="butt" stroke-linejoin="round" d="M 201.409 132.842 C 201.498 142.291 202.315 151.550 203.705 159.795 "/>
<path id="S22_2" fill="#ffffff" fill-rule="evenodd" stroke="#000000" stroke-width="2" stroke-linecap="round" stroke-linejoin="round" d="M 203.705 159.795 C 162.309 162.316 120.913 164.837 79.516 167.359 C 65.564 161.384 58.476 144.548 64.096 135.219 C 109.867 134.427 155.638 133.634 201.409 132.842 C 201.498 142.291 202.315 151.550 203.705 159.795 Z"/>
<path fill="none" stroke="#ffffff" stroke-width="1" stroke-linecap="butt" stroke-linejoin="round" d="M 201.409 132.842 C 155.638 133.634 109.867 134.427 64.096 135.219 "/>
<path fill="none" stroke="#ffffff" stroke-width="1" stroke-linecap="butt" stroke-linejoin="round" d="M 202.580 110.118 C 201.724 117.782 201.339 125.370 201.409 132.842 "/>
<path id="S23_2" fill="#ffffff" fill-rule="evenodd" stroke="#000000" stroke-width="2" stroke-linecap="round" stroke-linejoin="round" d="M 201.409 132.842 C 155.638 133.634 109.867 134.427 64.096 135.219 C 52.241 131.097 39.287 104.113 58.388 103.310 C 79.723 102.415 142.566 104.427 202.580 110.118 C 201.724 117.782 201.339 125.370 201.409 132.842 Z"/>
<path fill="#000000" fill-rule="evenodd" stroke="#ffffff" stroke-width="2" stroke-linecap="round" stroke-linejoin="round" d="M 522.427 292.517 C 519.070 285.762 516.635 273.346 517.928 267.763 C 520.134 258.238 526.469 246.395 528.504 243.639 C 530.255 241.270 540.712 229.040 544.007 224.693 C 547.650 219.886 551.544 208.740 554.514 208.014 C 556.727 207.474 560.269 212.139 560.293 214.804 C 560.328 218.792 558.122 223.994 557.765 225.236 C 556.362 230.118 545.256 244.205 546.912 246.560 C 548.823 249.277 554.712 248.633 557.982 248.369 C 560.670 248.153 576.236 240.906 578.637 239.679 C 581.351 238.293 598.270 227.682 600.254 226.482 C 601.975 225.440 616.467 215.402 619.101 215.167 C 619.962 215.090 624.423 214.258 626.014 217.113 C 627.364 219.536 625.545 222.047 625.225 222.637 C 623.901 225.071 608.044 234.569 606.366 235.844 C 604.669 237.133 588.397 247.827 588.389 250.628 C 588.388 251.046 589.988 253.314 590.370 253.487 C 592.867 254.618 609.917 246.677 611.864 245.929 C 614.100 245.071 632.877 235.505 636.005 235.852 C 636.705 235.930 640.078 235.929 641.154 238.636 C 642.097 241.008 640.129 243.520 639.733 244.068 C 637.931 246.558 618.870 254.252 616.799 255.341 C 614.879 256.351 596.924 264.193 596.129 266.931 C 595.992 267.403 596.843 270.570 597.234 270.871 C 599.226 272.403 615.640 266.253 617.492 265.776 C 619.308 265.307 634.901 259.991 637.303 260.544 C 637.993 260.703 641.682 261.300 642.135 263.911 C 642.559 266.359 639.130 269.374 638.481 269.917 C 636.612 271.484 620.838 275.216 619.093 275.849 C 616.859 276.661 596.990 283.462 595.195 286.021 C 594.935 286.391 594.169 289.317 594.411 289.699 C 595.792 291.887 613.655 286.322 615.579 285.906 C 617.186 285.558 630.590 281.337 632.995 281.507 C 633.651 281.553 636.865 282.698 637.280 284.895 C 637.672 286.976 634.919 289.742 634.375 290.229 C 632.295 292.092 614.185 296.303 612.152 296.922 C 608.251 298.111 574.894 309.343 569.582 310.067 C 565.888 310.571 548.547 314.489 538.594 309.536 C 529.341 304.931 524.876 297.444 522.427 292.517 Z"/>
<path fill="#000000" fill-rule="evenodd" stroke="#ffffff" stroke-width="2" stroke-linecap="round" stroke-linejoin="round" d="M 197.573 292.517 C 200.930 285.762 203.365 273.346 202.072 267.763 C 199.866 258.238 193.532 246.395 191.496 243.639 C 189.745 241.270 179.288 229.039 175.993 224.693 C 172.349 219.886 168.456 208.739 165.485 208.014 C 163.273 207.474 159.731 212.139 159.707 214.803 C 159.672 218.792 161.878 223.994 162.235 225.236 C 163.638 230.118 174.744 244.205 173.088 246.560 C 171.177 249.277 165.288 248.632 162.018 248.369 C 159.330 248.153 143.764 240.906 141.363 239.679 C 138.649 238.293 121.730 227.682 119.746 226.482 C 118.025 225.440 103.533 215.402 100.899 215.167 C 100.038 215.090 95.577 214.258 93.986 217.113 C 92.636 219.536 94.455 222.047 94.775 222.637 C 96.099 225.070 111.956 234.569 113.634 235.844 C 115.331 237.132 131.603 247.827 131.611 250.627 C 131.612 251.046 130.012 253.314 129.630 253.487 C 127.133 254.618 110.083 246.676 108.135 245.929 C 105.900 245.071 87.123 235.505 83.995 235.852 C 83.295 235.930 79.922 235.929 78.846 238.636 C 77.903 241.008 79.871 243.521 80.267 244.068 C 82.069 246.559 101.130 254.252 103.201 255.341 C 105.121 256.351 123.076 264.193 123.871 266.931 C 124.008 267.404 123.157 270.570 122.766 270.871 C 120.774 272.403 104.360 266.253 102.508 265.776 C 100.692 265.307 85.099 259.991 82.697 260.545 C 82.007 260.704 78.318 261.300 77.865 263.911 C 77.441 266.359 80.870 269.374 81.518 269.917 C 83.388 271.484 99.162 275.216 100.907 275.849 C 103.141 276.661 123.010 283.462 124.805 286.021 C 125.065 286.391 125.831 289.317 125.589 289.700 C 124.208 291.888 106.345 286.322 104.421 285.906 C 102.814 285.558 89.410 281.337 87.005 281.507 C 86.349 281.553 83.135 282.698 82.720 284.895 C 82.327 286.976 85.081 289.742 85.625 290.230 C 87.705 292.093 105.815 296.303 107.847 296.922 C 111.749 298.111 145.106 309.343 150.418 310.067 C 154.112 310.570 171.453 314.488 181.406 309.535 C 190.659 304.931 195.124 297.444 197.573 292.517 Z"/>
<path id="S36" fill="#000000" fill-rule="evenodd" stroke="#ffffff" stroke-width="2" stroke-linejoin="round" d="M 359.935 285.952 C 359.935 285.953 359.103 295.199 362.148 302.496 C 366.791 313.623 374.322 314.217 378.173 322.272 C 380.862 327.896 378.791 333.131 382.179 339.587 C 387.193 349.144 400.307 358.649 400.309 358.650 C 400.308 358.648 393.610 346.380 394.053 337.241 C 394.503 327.969 403.142 324.155 402.491 316.244 C 401.870 308.707 393.299 307.799 391.373 297.769 C 389.684 288.970 394.253 279.075 394.253 279.074 C 394.254 279.075 396.886 287.983 402.435 293.606 C 410.853 302.137 418.078 299.784 424.609 305.794 C 429.192 310.012 429.137 315.688 434.669 320.429 C 442.813 327.411 458.463 331.272 458.465 331.273 C 458.464 331.271 447.513 322.559 444.381 313.954 C 441.223 305.277 447.665 298.464 444.047 291.446 C 440.578 284.716 432.315 287.140 426.704 278.592 C 421.799 271.118 422.247 260.253 422.247 260.252 C 422.248 260.253 428.000 267.546 435.242 270.695 C 446.219 275.468 452.039 270.584 460.330 273.717 C 466.157 275.919 468.223 281.208 475.125 283.540 C 485.283 286.973 501.234 284.702 501.237 284.702 C 501.235 284.701 487.824 280.709 481.703 273.898 C 475.527 267.024 478.956 258.295 472.977 253.131 C 467.248 248.184 460.490 253.505 452.100 247.667 C 444.750 242.552 441.111 232.288 441.110 232.286 C 441.111 232.287 449.216 236.814 457.111 236.963 C 469.101 237.189 472.636 230.512 481.511 230.206 C 487.731 229.991 491.693 233.996 498.953 233.466 C 509.685 232.683 523.576 224.433 523.579 224.432 C 523.576 224.432 509.643 225.669 501.427 221.618 C 493.068 217.496 492.993 208.040 485.453 205.464 C 478.308 203.023 474.041 210.461 464.099 208.195 C 455.308 206.191 448.040 197.979 448.039 197.978 C 448.040 197.978 457.286 198.809 464.583 195.765 C 475.710 191.122 476.305 183.591 484.359 179.740 C 489.983 177.052 495.219 179.123 501.675 175.735 C 511.231 170.720 520.735 157.606 520.737 157.604 C 520.735 157.605 508.467 164.302 499.328 163.860 C 490.056 163.410 486.241 154.770 478.331 155.422 C 470.794 156.043 469.886 164.614 459.856 166.540 C 451.056 168.229 441.162 163.660 441.160 163.659 C 441.162 163.659 450.070 161.027 455.693 155.479 C 464.224 147.060 461.872 139.835 467.882 133.304 C 472.100 128.721 477.775 128.775 482.516 123.244 C 489.498 115.100 493.358 99.450 493.359 99.448 C 493.358 99.449 484.646 110.400 476.040 113.532 C 467.363 116.690 460.551 110.248 453.533 113.866 C 446.803 117.335 449.227 125.598 440.679 131.208 C 433.204 136.114 422.340 135.665 422.338 135.666 C 422.339 135.665 429.633 129.913 432.782 122.671 C 437.555 111.694 432.672 105.874 435.805 97.583 C 438.006 91.757 443.295 89.690 445.627 82.788 C 449.060 72.630 446.789 56.679 446.789 56.676 C 446.788 56.678 442.797 70.089 435.985 76.209 C 429.111 82.386 420.382 78.957 415.218 84.937 C 410.271 90.665 415.592 97.423 409.754 105.813 C 404.639 113.162 394.375 116.802 394.373 116.803 C 394.373 116.801 398.901 108.697 399.050 100.802 C 399.276 88.812 392.599 85.277 392.293 76.402 C 392.078 70.182 396.083 66.220 395.553 58.960 C 394.770 48.227 386.520 34.336 386.519 34.334 C 386.518 34.336 387.755 48.270 383.704 56.486 C 379.583 64.845 370.127 64.920 367.551 72.461 C 365.110 79.606 372.549 83.872 370.282 93.814 C 368.278 102.605 360.066 109.872 360.065 109.874 C 360.065 109.872 360.897 100.626 357.852 93.330 C 353.209 82.203 345.678 81.609 341.827 73.554 C 339.138 67.930 341.209 62.694 337.822 56.238 C 332.807 46.682 319.693 37.178 319.691 37.176 C 319.692 37.178 326.390 49.446 325.947 58.585 C 325.498 67.857 316.858 71.671 317.509 79.582 C 318.130 87.119 326.701 88.027 328.627 98.057 C 330.316 106.856 325.747 116.751 325.747 116.753 C 325.746 116.751 323.114 107.843 317.565 102.220 C 309.147 93.689 301.922 96.041 295.391 90.031 C 290.808 85.814 290.862 80.138 285.331 75.397 C 277.186 68.415 261.537 64.554 261.535 64.553 C 261.536 64.555 272.487 73.267 275.619 81.872 C 278.777 90.549 272.335 97.362 275.953 104.380 C 279.422 111.110 287.685 108.686 293.296 117.234 C 298.202 124.708 297.753 135.573 297.753 135.574 C 297.752 135.573 292.000 128.280 284.758 125.131 C 273.781 120.359 267.961 125.242 259.670 122.108 C 253.844 119.907 251.777 114.618 244.876 112.285 C 234.717 108.853 218.766 111.123 218.763 111.123 C 218.765 111.124 232.176 115.116 238.297 121.928 C 244.473 128.802 241.044 137.531 247.023 142.695 C 252.752 147.643 259.510 142.321 267.900 148.159 C 275.250 153.274 278.889 163.538 278.890 163.540 C 278.889 163.539 270.784 159.012 262.890 158.863 C 250.899 158.637 247.364 165.314 238.489 165.620 C 232.269 165.835 228.307 161.830 221.047 162.360 C 210.315 163.143 196.424 171.393 196.421 171.394 C 196.424 171.395 210.357 170.157 218.573 174.208 C 226.932 178.330 227.007 187.786 234.547 190.362 C 241.692 192.803 245.959 185.364 255.901 187.631 C 264.692 189.635 271.960 197.847 271.961 197.848 C 271.960 197.849 262.714 197.016 255.417 200.061 C 244.290 204.704 243.696 212.236 235.641 216.086 C 230.017 218.775 224.781 216.703 218.325 220.091 C 208.769 225.105 199.265 238.220 199.263 238.222 C 199.265 238.221 211.533 231.524 220.672 231.966 C 229.944 232.416 233.759 241.056 241.669 240.404 C 249.207 239.783 250.114 231.212 260.144 229.286 C 268.944 227.597 278.838 232.166 278.840 232.167 C 278.839 232.167 269.930 234.799 264.307 240.347 C 255.775 248.766 258.128 255.991 252.118 262.522 C 247.900 267.105 242.225 267.050 237.484 272.581 C 230.502 280.726 226.642 296.376 226.641 296.378 C 226.642 296.377 235.354 285.426 243.960 282.294 C 252.637 279.135 259.449 285.578 266.467 281.960 C 273.197 278.491 270.773 270.228 279.321 264.617 C 286.796 259.712 297.660 260.160 297.662 260.160 C 297.661 260.161 290.367 265.913 287.218 273.155 C 282.445 284.132 287.328 289.952 284.195 298.242 C 281.994 304.069 276.706 306.136 274.373 313.037 C 270.940 323.196 273.211 339.147 273.211 339.150 C 273.212 339.148 277.203 325.737 284.015 319.616 C 290.889 313.440 299.618 316.869 304.782 310.890 C 309.730 305.161 304.408 298.403 310.246 290.013 C 315.361 282.664 325.625 279.024 325.627 279.023 C 325.627 279.025 321.099 287.129 320.950 295.024 C 320.724 307.014 327.401 310.548 327.707 319.424 C 327.922 325.644 323.917 329.606 324.447 336.866 C 325.230 347.598 333.480 361.489 333.481 361.492 C 333.482 361.490 332.245 347.556 336.296 339.340 C 340.417 330.981 349.873 330.906 352.449 323.366 C 354.890 316.220 347.451 311.954 349.718 302.012 C 351.722 293.221 359.934 285.953 359.935 285.952 Z"/>
<path fill="#ffffff" fill-rule="evenodd" stroke="none" d="M 360.000 273.224 C 360.001 273.219 367.497 217.526 367.498 217.521 C 367.499 217.526 384.667 270.589 384.669 270.595 C 384.669 270.589 381.797 215.099 381.796 215.094 C 381.799 215.098 407.624 263.046 407.627 263.051 C 407.626 263.046 394.925 210.477 394.924 210.472 C 394.927 210.476 428.383 251.104 428.386 251.108 C 428.384 251.104 406.591 203.905 406.589 203.900 C 406.593 203.903 446.458 235.280 446.462 235.283 C 446.459 235.279 416.505 195.624 416.502 195.620 C 416.506 195.622 461.362 221.710 461.367 221.712 C 461.363 221.709 427.594 185.680 427.591 185.676 C 427.595 185.678 401.231 154.376 360.000 154.376 C 318.769 154.376 292.405 185.678 292.409 185.676 C 292.406 185.680 258.637 221.709 258.633 221.712 C 258.638 221.710 303.494 195.622 303.498 195.620 C 303.495 195.624 273.541 235.279 273.538 235.283 C 273.542 235.280 313.407 203.903 313.411 203.900 C 313.408 203.905 291.616 251.104 291.614 251.108 C 291.617 251.104 325.073 210.476 325.076 210.472 C 325.075 210.477 312.374 263.046 312.373 263.051 C 312.376 263.046 338.201 215.098 338.204 215.094 C 338.203 215.099 335.331 270.589 335.331 270.595 C 335.333 270.589 352.501 217.526 352.502 217.521 C 352.503 217.526 359.999 273.219 360.000 273.224 Z"/>
<path fill="#ffffff" fill-rule="evenodd" stroke="#000000" stroke-width="2" stroke-linecap="round" stroke-linejoin="round" d="M 348.461 196.548 C 348.461 202.935 353.613 208.087 360.000 208.087 C 366.387 208.087 371.539 202.935 371.539 196.548 C 371.539 190.161 366.387 185.009 360.000 185.009 C 353.613 185.009 348.461 190.161 348.461 196.548 M 332.244 203.429 C 339.494 207.406 351.366 209.305 360.000 209.304 C 368.381 209.303 379.947 207.508 387.680 203.459 C 388.209 201.268 388.390 198.942 388.338 196.548 C 387.992 180.867 375.685 168.210 360.000 168.210 C 344.315 168.210 332.023 180.867 331.662 196.548 C 331.607 198.945 331.784 201.274 332.244 203.429 Z"/>
<path fill="none" stroke="#000000" stroke-width="1" stroke-linecap="butt" stroke-linejoin="round" d="M 360.000 208.087 C 366.387 208.087 371.539 202.935 371.539 196.548 "/>
<path fill="none" stroke="#000000" stroke-width="1" stroke-linecap="butt" stroke-linejoin="round" d="M 371.539 196.548 C 371.539 190.161 366.387 185.009 360.000 185.009 "/>
<path fill="none" stroke="#000000" stroke-width="1" stroke-linecap="butt" stroke-linejoin="round" d="M 360.000 185.009 C 353.613 185.009 348.461 190.161 348.461 196.548 "/>
<path fill="none" stroke="#000000" stroke-width="1" stroke-linecap="butt" stroke-linejoin="round" d="M 348.461 196.548 C 348.461 202.935 353.613 208.087 360.000 208.087 "/>
<path fill="#000000" fill-rule="evenodd" stroke="none" d="M 360.000 208.087 C 366.387 208.087 371.539 202.935 371.539 196.548 C 371.539 190.161 366.387 185.009 360.000 185.009 C 353.613 185.009 348.461 190.161 348.461 196.548 C 348.461 202.935 353.613 208.087 360.000 208.087 Z"/>
<path fill="none" stroke="#000000" stroke-width="1" stroke-linecap="butt" stroke-linejoin="round" d="M 331.662 196.548 C 331.607 198.945 331.784 201.274 332.244 203.429 "/>
<path fill="none" stroke="#000000" stroke-width="1" stroke-linecap="butt" stroke-linejoin="round" d="M 387.680 203.459 C 388.209 201.268 388.390 198.942 388.338 196.548 "/>
<path fill="none" stroke="#000000" stroke-width="1" stroke-linecap="butt" stroke-linejoin="round" d="M 388.338 196.548 C 387.992 180.867 375.685 168.210 360.000 168.210 "/>
<path fill="none" stroke="#000000" stroke-width="1" stroke-linecap="butt" stroke-linejoin="round" d="M 360.000 168.210 C 344.315 168.210 332.023 180.867 331.662 196.548 "/>
<path fill="#000000" fill-rule="evenodd" stroke="#000000" stroke-width="2" stroke-linecap="round" stroke-linejoin="round" d="M 331.662 196.548 C 331.607 198.945 331.784 201.274 332.244 203.429 C 317.887 198.587 304.879 185.380 304.876 185.379 C 304.881 185.376 328.559 161.858 360.000 161.858 C 391.441 161.858 415.119 185.376 415.124 185.379 C 415.121 185.380 401.855 198.897 387.680 203.459 C 388.209 201.268 388.390 198.942 388.338 196.548 C 387.992 180.867 375.685 168.210 360.000 168.210 C 344.315 168.210 332.023 180.867 331.662 196.548 Z"/>
<path fill="#000000" fill-rule="evenodd" stroke="none" d="M 551.573 284.436 C 551.573 287.808 554.293 290.529 557.666 290.529 C 561.038 290.529 563.759 287.809 563.759 284.436 C 563.759 281.064 561.038 278.343 557.666 278.343 C 554.293 278.343 551.573 281.064 551.573 284.436 M 543.011 288.069 C 546.839 290.169 553.107 291.172 557.666 291.171 C 562.091 291.171 568.198 290.223 572.281 288.086 C 572.560 286.928 572.656 285.700 572.628 284.436 C 572.446 276.156 565.947 269.474 557.666 269.474 C 549.384 269.474 542.894 276.157 542.704 284.436 C 542.674 285.702 542.768 286.932 543.011 288.069 Z"/>
<path fill="none" stroke="#ffffff" stroke-width="1" stroke-linecap="butt" stroke-linejoin="round" d="M 557.666 290.529 C 561.038 290.529 563.759 287.809 563.759 284.436 "/>
<path fill="none" stroke="#ffffff" stroke-width="1" stroke-linecap="butt" stroke-linejoin="round" d="M 563.759 284.436 C 563.759 281.064 561.038 278.343 557.666 278.343 "/>
<path fill="none" stroke="#ffffff" stroke-width="1" stroke-linecap="butt" stroke-linejoin="round" d="M 557.666 278.343 C 554.293 278.343 551.573 281.064 551.573 284.436 "/>
<path fill="none" stroke="#ffffff" stroke-width="1" stroke-linecap="butt" stroke-linejoin="round" d="M 551.573 284.436 C 551.573 287.808 554.293 290.529 557.666 290.529 "/>
<path fill="#ffffff" fill-rule="evenodd" stroke="none" d="M 557.666 290.529 C 561.038 290.529 563.759 287.809 563.759 284.436 C 563.759 281.064 561.038 278.343 557.666 278.343 C 554.293 278.343 551.573 281.064 551.573 284.436 C 551.573 287.808 554.293 290.529 557.666 290.529 Z"/>
<path fill="none" stroke="#ffffff" stroke-width="1" stroke-linecap="butt" stroke-linejoin="round" d="M 542.704 284.436 C 542.674 285.702 542.768 286.932 543.011 288.069 "/>
<path fill="none" stroke="#ffffff" stroke-width="1" stroke-linecap="butt" stroke-linejoin="round" d="M 572.281 288.086 C 572.560 286.928 572.656 285.700 572.628 284.436 "/>
<path fill="none" stroke="#ffffff" stroke-width="1" stroke-linecap="butt" stroke-linejoin="round" d="M 572.628 284.436 C 572.446 276.156 565.947 269.474 557.666 269.474 "/>
<path fill="none" stroke="#ffffff" stroke-width="1" stroke-linecap="butt" stroke-linejoin="round" d="M 557.666 269.474 C 549.384 269.474 542.894 276.157 542.704 284.436 "/>
<path fill="#ffffff" fill-rule="evenodd" stroke="none" d="M 542.704 284.436 C 542.674 285.702 542.768 286.932 543.011 288.069 C 535.430 285.513 528.562 278.540 528.560 278.539 C 528.563 278.537 541.065 266.120 557.666 266.120 C 574.267 266.120 586.768 278.537 586.771 278.539 C 586.770 278.540 579.765 285.677 572.281 288.086 C 572.560 286.928 572.656 285.700 572.628 284.436 C 572.446 276.156 565.947 269.474 557.666 269.474 C 549.384 269.474 542.894 276.157 542.704 284.436 Z"/>
<path fill="#000000" fill-rule="evenodd" stroke="none" d="M 156.241 284.436 C 156.241 287.809 158.962 290.529 162.334 290.529 C 165.707 290.529 168.427 287.809 168.427 284.436 C 168.427 281.064 165.707 278.343 162.334 278.343 C 158.962 278.343 156.241 281.064 156.241 284.436 M 147.679 288.069 C 151.507 290.169 157.775 291.172 162.334 291.171 C 166.760 291.171 172.866 290.223 176.949 288.086 C 177.229 286.928 177.325 285.700 177.297 284.436 C 177.114 276.156 170.616 269.474 162.334 269.474 C 154.053 269.474 147.563 276.157 147.372 284.436 C 147.343 285.702 147.436 286.932 147.679 288.069 Z"/>
<path fill="none" stroke="#ffffff" stroke-width="1" stroke-linecap="butt" stroke-linejoin="round" d="M 162.334 290.529 C 165.707 290.529 168.427 287.809 168.427 284.436 "/>
<path fill="none" stroke="#ffffff" stroke-width="1" stroke-linecap="butt" stroke-linejoin="round" d="M 168.427 284.436 C 168.427 281.064 165.707 278.343 162.334 278.343 "/>
<path fill="none" stroke="#ffffff" stroke-width="1" stroke-linecap="butt" stroke-linejoin="round" d="M 162.334 278.343 C 158.962 278.343 156.241 281.064 156.241 284.436 "/>
<path fill="none" stroke="#ffffff" stroke-width="1" stroke-linecap="butt" stroke-linejoin="round" d="M 156.241 284.436 C 156.241 287.809 158.962 290.529 162.334 290.529 "/>
<path fill="#ffffff" fill-rule="evenodd" stroke="none" d="M 162.334 290.529 C 165.707 290.529 168.427 287.809 168.427 284.436 C 168.427 281.064 165.707 278.343 162.334 278.343 C 158.962 278.343 156.241 281.064 156.241 284.436 C 156.241 287.809 158.962 290.529 162.334 290.529 Z"/>
<path fill="none" stroke="#ffffff" stroke-width="1" stroke-linecap="butt" stroke-linejoin="round" d="M 147.372 284.436 C 147.343 285.702 147.436 286.932 147.679 288.069 "/>
<path fill="none" stroke="#ffffff" stroke-width="1" stroke-linecap="butt" stroke-linejoin="round" d="M 176.949 288.086 C 177.229 286.928 177.325 285.700 177.297 284.436 "/>
<path fill="none" stroke="#ffffff" stroke-width="1" stroke-linecap="butt" stroke-linejoin="round" d="M 177.297 284.436 C 177.114 276.156 170.616 269.474 162.334 269.474 "/>
<path fill="none" stroke="#ffffff" stroke-width="1" stroke-linecap="butt" stroke-linejoin="round" d="M 162.334 269.474 C 154.053 269.474 147.563 276.157 147.372 284.436 "/>
<path fill="#ffffff" fill-rule="evenodd" stroke="none" d="M 147.372 284.436 C 147.343 285.702 147.436 286.932 147.679 288.069 C 140.099 285.513 133.230 278.540 133.229 278.539 C 133.232 278.537 145.733 266.120 162.334 266.120 C 178.935 266.120 191.437 278.537 191.440 278.539 C 191.438 278.540 184.434 285.677 176.949 288.086 C 177.229 286.928 177.325 285.700 177.297 284.436 C 177.114 276.156 170.616 269.474 162.334 269.474 C 154.053 269.474 147.563 276.157 147.372 284.436 Z"/>
</g>
<g id="specs_2">
<path fill="#ff0000" fill-rule="evenodd" stroke="none" d="M 360.000 354.781 C 360.001 354.785 372.416 389.547 372.417 389.551 C 372.416 389.549 360.001 377.998 360.000 377.997 C 359.999 377.998 347.584 389.549 347.583 389.551 C 347.584 389.547 359.999 354.785 360.000 354.781 Z"/>
<path fill="#0000ff" fill-rule="evenodd" stroke="none" d="M 360.000 7.114 C 360.001 7.116 367.212 27.309 367.213 27.311 C 367.212 27.311 360.001 20.601 360.000 20.600 C 359.999 20.601 352.788 27.311 352.787 27.311 C 352.788 27.309 359.999 7.116 360.000 7.114 Z"/>
<path fill="#00ff00" fill-rule="evenodd" stroke="none" d="M 537.985 697.849 C 537.985 697.850 534.212 708.246 534.212 708.247 C 534.212 708.247 537.950 704.805 537.950 704.804 C 537.950 704.805 541.653 708.284 541.653 708.285 C 541.653 708.284 537.985 697.850 537.985 697.849 Z"/>
<path fill="#00ff00" fill-rule="evenodd" stroke="none" d="M 182.015 697.849 C 182.015 697.850 185.788 708.246 185.788 708.247 C 185.788 708.247 182.050 704.805 182.050 704.804 C 182.050 704.805 178.347 708.284 178.347 708.285 C 178.347 708.284 182.015 697.850 182.015 697.849 Z"/>
</g>
</g>
</svg>
