<?xml version="1.0" encoding="utf-8"?>
<!-- Generator: Moho 13.5 build 20210422 -->
<!DOCTYPE svg PUBLIC "-//W3C//DTD SVG 1.1//EN" "http://www.w3.org/Graphics/SVG/1.1/DTD/svg11.dtd">
<svg version="1.1" id="Frame_0" xmlns="http://www.w3.org/2000/svg" xmlns:xlink="http://www.w3.org/1999/xlink" width="720px" height="720px">
<g id="ankh_emperor">
<g id="ankh_emperor">
<path id="S21" fill="#ffffff" fill-rule="evenodd" stroke="#000000" stroke-width="2" stroke-linecap="round" stroke-linejoin="round" d="M 326.235 664.875 C 326.237 664.832 338.307 381.579 344.675 232.146 C 313.313 233.408 284.872 239.675 276.231 251.013 C 276.231 237.546 276.231 206.341 276.231 206.337 C 276.238 206.337 443.762 206.337 443.769 206.337 C 443.769 206.341 443.769 251.008 443.769 251.013 C 434.035 240.373 406.428 234.073 375.327 232.137 C 381.395 381.576 392.896 664.832 392.898 664.875 C 392.892 664.876 326.241 664.876 326.235 664.875 M 311.141 123.602 C 311.140 96.558 332.956 74.741 359.999 74.741 C 387.044 74.740 408.861 96.558 408.861 123.602 C 408.860 150.645 387.043 172.460 359.999 172.460 C 332.957 172.459 311.141 150.645 311.141 123.602 M 278.061 123.602 C 278.061 78.249 314.647 41.663 359.999 41.663 C 405.352 41.663 441.939 78.249 441.939 123.602 C 441.939 168.955 405.352 205.541 359.999 205.541 C 314.647 205.541 278.061 168.955 278.061 123.602 Z"/>
</g>
<g id="specs_2">
<path fill="#ff00ff" fill-rule="evenodd" stroke="none" d="M 260.795 452.474 C 260.815 452.474 459.185 452.474 459.205 452.474 C 459.205 452.454 459.205 254.084 459.205 254.064 C 459.185 254.064 260.815 254.064 260.795 254.064 C 260.795 254.084 260.795 452.454 260.795 452.474 Z"/>
<path fill="#ff0000" fill-rule="evenodd" stroke="none" d="M 360.000 674.246 C 360.001 674.250 372.432 709.056 372.433 709.059 C 372.432 709.058 360.001 697.492 360.000 697.491 C 359.999 697.492 347.568 709.058 347.567 709.059 C 347.568 709.056 359.999 674.250 360.000 674.246 Z"/>
<path fill="#0000ff" fill-rule="evenodd" stroke="none" d="M 360.000 11.041 C 360.001 11.043 367.221 31.261 367.222 31.263 C 367.221 31.262 360.001 24.544 360.000 24.544 C 359.999 24.544 352.779 31.262 352.778 31.263 C 352.779 31.261 359.999 11.043 360.000 11.041 Z"/>
<path fill="#00ff00" fill-rule="evenodd" stroke="none" d="M 226.090 228.296 C 226.092 228.296 246.274 220.972 246.276 220.972 C 246.275 220.972 239.593 228.228 239.593 228.228 C 239.593 228.229 246.348 235.415 246.348 235.416 C 246.346 235.415 226.092 228.297 226.090 228.296 Z"/>
<path fill="#ffff00" fill-rule="evenodd" stroke="none" d="M 230.218 484.459 C 230.219 484.457 241.116 460.732 241.117 460.730 C 241.117 460.731 241.691 472.711 241.691 472.712 C 241.692 472.712 253.682 473.003 253.683 473.003 C 253.681 473.004 230.221 484.458 230.218 484.459 Z"/>
<path fill="#ffff00" fill-rule="evenodd" stroke="none" d="M 489.782 484.169 C 489.781 484.166 478.410 460.664 478.409 460.662 C 478.409 460.663 478.076 472.653 478.076 472.654 C 478.075 472.654 466.092 473.185 466.091 473.185 C 466.093 473.186 489.779 484.168 489.782 484.169 Z"/>
<path fill="#00ff00" fill-rule="evenodd" stroke="none" d="M 493.910 228.296 C 493.908 228.296 473.726 220.972 473.724 220.972 C 473.725 220.972 480.407 228.228 480.407 228.228 C 480.407 228.229 473.652 235.415 473.652 235.416 C 473.654 235.415 493.908 228.297 493.910 228.296 Z"/>
<path fill="#be0027" fill-rule="evenodd" stroke="none" d="M 360.000 690.923 C 360.001 690.920 372.432 656.114 372.433 656.110 C 372.432 656.112 360.001 667.677 360.000 667.679 C 359.999 667.677 347.568 656.112 347.567 656.110 C 347.568 656.114 359.999 690.920 360.000 690.923 Z"/>
</g>
</g>
</svg>
