<?xml version="1.0" encoding="utf-8"?>
<!-- Generator: Moho 13.5 build 20210422 -->
<!DOCTYPE svg PUBLIC "-//W3C//DTD SVG 1.1//EN" "http://www.w3.org/Graphics/SVG/1.1/DTD/svg11.dtd">
<svg version="1.1" id="Frame_0" xmlns="http://www.w3.org/2000/svg" xmlns:xlink="http://www.w3.org/1999/xlink" width="720px" height="720px">
<g id="antler">
<g id="antler">
<path fill="#ffffff" fill-rule="evenodd" stroke="#000000" stroke-width="4" stroke-linecap="round" stroke-linejoin="round" d="M 101.548 613.672 C 101.555 613.662 126.259 554.400 166.826 512.025 C 195.044 482.548 219.865 465.586 238.695 448.219 C 263.166 425.649 298.626 355.713 285.075 300.093 C 267.194 226.705 203.274 206.090 203.266 206.081 C 203.278 206.090 286.407 193.851 321.111 299.116 C 338.351 351.406 315.503 412.346 315.503 412.357 C 315.512 412.353 376.858 382.006 407.121 366.189 C 446.096 345.819 478.175 323.433 511.967 269.697 C 566.517 182.951 473.148 64.862 473.144 64.853 C 473.151 64.860 606.472 158.517 555.534 286.796 C 520.715 374.480 430.610 411.051 430.598 411.063 C 430.605 411.067 462.508 448.721 501.526 448.810 C 564.956 448.955 609.593 402.332 609.604 402.328 C 609.594 402.336 598.065 472.537 506.850 487.464 C 443.041 497.906 383.873 436.466 383.861 436.460 C 383.847 436.469 301.005 450.027 239.473 525.429 C 191.040 584.778 188.303 658.921 188.305 658.930 C 188.300 658.929 154.651 661.149 131.834 650.297 C 115.742 642.644 101.551 613.675 101.548 613.672 Z"/>
</g>
<g id="specs">
<path fill="#ff0000" fill-rule="evenodd" stroke="none" d="M 162.084 589.605 C 162.084 589.609 161.764 626.566 161.764 626.570 C 161.763 626.568 154.078 611.428 154.077 611.427 C 154.076 611.427 138.422 618.004 138.420 618.004 C 138.422 618.001 162.082 589.608 162.084 589.605 Z"/>
<path fill="#be0027" fill-rule="evenodd" stroke="none" d="M 134.214 662.935 C 134.216 662.932 151.277 642.148 151.279 642.146 C 151.278 642.147 139.924 647.014 139.923 647.015 C 139.923 647.014 134.250 636.040 134.249 636.039 C 134.249 636.042 134.214 662.932 134.214 662.935 Z"/>
</g>
</g>
</svg>
