<?xml version="1.0" encoding="utf-8"?>
<!-- Generator: Moho 13.5 build 20210422 -->
<!DOCTYPE svg PUBLIC "-//W3C//DTD SVG 1.1//EN" "http://www.w3.org/Graphics/SVG/1.1/DTD/svg11.dtd">
<svg version="1.1" id="Frame_0" xmlns="http://www.w3.org/2000/svg" xmlns:xlink="http://www.w3.org/1999/xlink" width="720px" height="720px">
<g id="arches">
<g id="arches">
<path fill="#000000" fill-rule="evenodd" stroke="#ffffff" stroke-width="4" stroke-linejoin="round" d="M 125.894 592.269 C 116.821 592.276 107.859 592.281 100.867 592.269 C 100.867 567.228 100.867 517.785 100.867 517.778 C 100.869 517.773 98.893 478.955 122.199 468.672 C 145.217 458.515 154.777 469.618 156.369 480.862 C 118.172 470.399 125.897 536.819 125.894 536.825 C 125.894 536.831 125.894 573.631 125.894 592.269 M 254.074 592.254 C 244.146 592.260 234.237 592.265 224.476 592.254 C 224.476 552.952 224.476 475.171 224.476 475.159 C 224.479 475.151 223.234 416.728 258.752 397.477 C 287.647 381.816 304.257 399.488 308.249 417.299 C 304.871 406.926 291.606 407.517 282.256 408.906 C 248.639 413.897 254.077 494.198 254.074 494.207 C 254.075 494.216 254.074 559.345 254.074 592.254 M 438.530 592.192 C 426.388 592.200 414.139 592.209 402.074 592.192 C 402.074 536.220 402.075 423.938 402.074 423.921 C 402.080 423.909 396.766 327.919 454.341 300.716 C 495.069 281.473 522.962 312.155 530.761 330.612 C 513.873 309.186 498.990 314.502 481.654 320.207 C 429.556 337.352 438.535 442.956 438.530 442.968 C 438.531 442.983 438.530 542.555 438.530 592.192 M 654.846 163.270 C 654.843 163.266 623.442 127.617 623.439 127.614 C 623.439 127.660 623.439 592.340 623.439 592.387 C 634.201 592.328 644.963 592.323 655.864 592.209 C 654.867 431.638 654.848 163.313 654.846 163.270 Z"/>
<linearGradient id="B9A6F10D-EB84-4D13-A55D-483CFDAD61D7_1" x1="52.46%" y1="78.36%" x2="32.10%" y2="-42.95%">
<stop offset="0.00%" style="stop-color:rgb(255,255,255);stop-opacity:1.00" />
<stop offset="100.00%" style="stop-color:rgb(0,0,0);stop-opacity:1.00" />
</linearGradient>
<path fill="none" stroke="#ffffff" stroke-width="1" stroke-linecap="butt" stroke-linejoin="round" d="M 623.439 127.614 C 623.439 127.660 623.439 592.340 623.439 592.387 "/>
<path fill="none" stroke="#ffffff" stroke-width="1" stroke-linecap="butt" stroke-linejoin="round" d="M 530.761 330.612 C 522.962 312.155 495.069 281.473 454.341 300.716 "/>
<path fill="none" stroke="#ffffff" stroke-width="1" stroke-linecap="butt" stroke-linejoin="round" d="M 454.341 300.716 C 396.766 327.919 402.080 423.909 402.074 423.921 "/>
<path fill="none" stroke="#ffffff" stroke-width="1" stroke-linecap="butt" stroke-linejoin="round" d="M 402.074 423.921 C 402.075 423.938 402.074 536.220 402.074 592.192 "/>
<path fill="none" stroke="#ffffff" stroke-width="1" stroke-linecap="butt" stroke-linejoin="round" d="M 308.249 417.299 C 304.257 399.488 287.647 381.816 258.752 397.477 "/>
<path fill="none" stroke="#ffffff" stroke-width="1" stroke-linecap="butt" stroke-linejoin="round" d="M 258.752 397.477 C 223.234 416.728 224.479 475.151 224.476 475.159 "/>
<path fill="none" stroke="#ffffff" stroke-width="1" stroke-linecap="butt" stroke-linejoin="round" d="M 224.476 475.159 C 224.476 475.171 224.476 552.952 224.476 592.254 "/>
<path fill="none" stroke="#ffffff" stroke-width="1" stroke-linecap="butt" stroke-linejoin="round" d="M 156.369 480.862 C 154.777 469.618 145.217 458.515 122.199 468.672 "/>
<path fill="none" stroke="#ffffff" stroke-width="1" stroke-linecap="butt" stroke-linejoin="round" d="M 122.199 468.672 C 98.893 478.955 100.869 517.773 100.867 517.778 "/>
<path fill="none" stroke="#ffffff" stroke-width="1" stroke-linecap="butt" stroke-linejoin="round" d="M 100.867 517.778 C 100.867 517.785 100.867 567.228 100.867 592.269 "/>
<path fill="url(#B9A6F10D-EB84-4D13-A55D-483CFDAD61D7_1)" fill-rule="evenodd" stroke="#000000" stroke-width="4" stroke-linejoin="round" d="M 64.373 592.295 C 64.511 544.954 64.384 488.573 64.136 450.528 C 303.925 312.085 623.383 127.646 623.439 127.614 C 623.439 127.660 623.439 592.340 623.439 592.387 C 623.430 592.387 543.765 592.364 533.379 592.361 C 533.632 517.769 534.141 367.166 534.141 367.144 C 534.141 367.140 536.024 343.068 530.761 330.612 C 522.962 312.155 495.069 281.473 454.341 300.716 C 396.766 327.919 402.080 423.909 402.074 423.921 C 402.075 423.938 402.074 536.220 402.074 592.192 C 383.081 592.206 324.702 592.316 311.852 592.311 C 311.852 540.543 311.852 436.913 311.852 436.897 C 311.852 436.895 310.292 426.411 308.249 417.299 C 304.257 399.488 287.647 381.816 258.752 397.477 C 223.234 416.728 224.479 475.151 224.476 475.159 C 224.476 475.171 224.476 552.952 224.476 592.254 C 213.890 592.260 167.579 592.298 157.776 592.288 C 157.776 565.244 157.776 511.132 157.776 511.123 C 157.776 511.120 158.196 493.772 156.369 480.862 C 154.777 469.618 145.217 458.515 122.199 468.672 C 98.893 478.955 100.869 517.773 100.867 517.778 C 100.867 517.785 100.867 567.228 100.867 592.269 C 88.155 592.278 64.373 592.295 64.373 592.295 Z"/>
</g>
<g id="specs_2">
<path fill="#ff0000" fill-rule="evenodd" stroke="none" d="M 632.117 391.353 C 632.120 391.352 666.926 378.921 666.930 378.920 C 666.929 378.921 655.363 391.352 655.362 391.353 C 655.363 391.354 666.929 403.785 666.930 403.786 C 666.926 403.785 632.120 391.354 632.117 391.353 Z"/>
<path fill="#0000ff" fill-rule="evenodd" stroke="none" d="M 277.714 317.961 C 277.715 317.963 284.936 338.181 284.936 338.184 C 284.936 338.183 277.715 331.465 277.714 331.464 C 277.714 331.465 270.493 338.183 270.492 338.184 C 270.493 338.181 277.714 317.963 277.714 317.961 Z"/>
<path fill="#00ff00" fill-rule="evenodd" stroke="none" d="M 51.454 501.184 C 51.456 501.183 69.684 494.569 69.686 494.568 C 69.686 494.569 63.650 501.122 63.650 501.122 C 63.650 501.123 69.751 507.614 69.752 507.614 C 69.750 507.614 51.456 501.184 51.454 501.184 Z"/>
<path fill="#ffff00" fill-rule="evenodd" stroke="none" d="M 90.999 597.720 C 91.000 597.718 100.948 576.059 100.949 576.056 C 100.949 576.057 101.473 586.995 101.473 586.996 C 101.474 586.996 112.420 587.261 112.421 587.261 C 112.419 587.262 91.001 597.719 90.999 597.720 Z"/>
<path fill="#ffff00" fill-rule="evenodd" stroke="none" d="M 629.001 597.455 C 629.000 597.453 618.620 575.997 618.618 575.995 C 618.618 575.996 618.314 586.942 618.314 586.943 C 618.313 586.943 607.374 587.428 607.373 587.428 C 607.375 587.429 628.999 597.454 629.001 597.455 Z"/>
<path fill="#00ff00" fill-rule="evenodd" stroke="none" d="M 668.546 501.184 C 668.544 501.183 650.316 494.569 650.314 494.568 C 650.314 494.569 656.350 501.122 656.350 501.122 C 656.350 501.123 650.249 507.614 650.248 507.614 C 650.250 507.614 668.544 501.184 668.546 501.184 Z"/>
<path fill="#be0027" fill-rule="evenodd" stroke="none" d="M 360.000 618.808 C 360.001 618.804 372.432 583.998 372.433 583.995 C 372.432 583.996 360.001 595.562 360.000 595.563 C 359.999 595.562 347.568 583.996 347.567 583.995 C 347.568 583.998 359.999 618.804 360.000 618.808 Z"/>
<path fill="#ff00ff" fill-rule="evenodd" stroke="none" d="M 87.644 485.342 C 87.651 485.342 157.735 485.342 157.742 485.342 C 157.742 485.353 157.742 591.876 157.742 591.887 C 157.735 591.887 87.651 591.887 87.644 591.887 C 87.644 591.876 87.644 485.353 87.644 485.342 Z"/>
<path fill="#ff00ff" fill-rule="evenodd" stroke="none" d="M 200.308 429.124 C 200.319 429.124 312.298 429.124 312.309 429.124 C 312.309 429.141 312.309 591.871 312.309 591.887 C 312.298 591.887 200.319 591.887 200.308 591.887 C 200.308 591.871 200.308 429.141 200.308 429.124 Z"/>
<path fill="#ff00ff" fill-rule="evenodd" stroke="none" d="M 360.566 345.572 C 360.583 345.572 533.102 345.572 533.119 345.572 C 533.119 345.597 533.119 591.862 533.119 591.887 C 533.102 591.887 360.583 591.887 360.566 591.887 C 360.566 591.862 360.566 345.597 360.566 345.572 Z"/>
</g>
</g>
</svg>
