<?xml version="1.0" encoding="utf-8"?>
<!-- Generator: Moho 13.5 build 20210422 -->
<!DOCTYPE svg PUBLIC "-//W3C//DTD SVG 1.1//EN" "http://www.w3.org/Graphics/SVG/1.1/DTD/svg11.dtd">
<svg version="1.1" id="Frame_0" xmlns="http://www.w3.org/2000/svg" xmlns:xlink="http://www.w3.org/1999/xlink" width="720px" height="720px">
<g id="arm">
<g id="arm">
<path fill="#ffffff" fill-rule="evenodd" stroke="#000000" stroke-width="4" stroke-linecap="round" stroke-linejoin="round" d="M 371.356 370.742 C 391.846 368.547 424.020 355.907 434.978 344.724 C 453.671 325.647 471.638 293.652 474.992 284.913 C 477.875 277.401 490.676 235.342 495.844 221.366 C 501.560 205.909 521.509 180.561 518.813 172.653 C 516.806 166.764 500.856 165.463 494.685 169.324 C 485.448 175.104 476.708 187.831 474.374 190.477 C 465.192 200.884 449.069 247.165 441.212 246.811 C 432.145 246.404 424.977 231.894 420.776 223.974 C 417.325 217.468 411.138 170.966 410.435 163.634 C 409.639 155.347 409.210 100.787 409.060 94.455 C 408.930 88.958 410.749 40.831 407.421 34.417 C 406.333 32.322 401.691 20.825 392.779 21.358 C 385.214 21.810 382.103 29.688 381.216 31.294 C 377.556 37.918 378.985 88.397 378.516 94.136 C 378.042 99.938 377.325 153.131 370.888 157.266 C 369.926 157.884 362.349 157.531 361.392 156.907 C 355.118 152.817 348.349 101.879 347.208 96.296 C 345.897 89.886 340.336 32.582 334.938 25.888 C 333.730 24.390 328.775 16.621 320.959 18.121 C 314.111 19.436 311.216 27.659 310.538 29.375 C 307.450 37.187 317.745 92.393 318.280 98.762 C 318.776 104.668 327.103 157.544 321.966 163.400 C 321.079 164.411 312.543 167.073 311.268 166.646 C 304.464 164.367 291.005 116.398 289.161 111.259 C 287.430 106.436 276.898 62.664 272.093 57.945 C 270.712 56.588 263.918 48.970 257.239 51.765 C 250.978 54.385 249.073 66.714 248.775 69.005 C 247.914 75.614 262.377 117.456 263.607 122.375 C 265.228 128.854 282.552 185.425 279.373 193.606 C 278.925 194.759 273.287 200.761 272.052 200.819 C 265.002 201.150 244.870 154.967 242.407 150.195 C 240.347 146.202 226.636 110.333 222.181 105.480 C 220.967 104.158 213.052 99.233 207.649 102.085 C 202.532 104.785 201.303 115.376 201.187 117.369 C 200.743 124.985 222.688 170.811 224.686 176.261 C 228.392 186.371 255.393 275.232 261.634 287.934 C 266.126 297.077 282.366 342.878 308.401 358.522 C 332.604 373.065 356.408 372.343 371.356 370.742 Z"/>
<path fill="#ffffff" fill-rule="evenodd" stroke="none" d="M 300.479 351.455 C 338.734 352.224 376.990 352.993 415.245 353.763 C 415.134 377.296 421.851 616.903 420.822 672.900 C 420.152 709.388 301.056 710.019 299.178 673.573 C 297.642 643.770 301.784 374.241 300.479 351.455 Z"/>
<path fill="none" stroke="#000000" stroke-width="4" stroke-linecap="round" stroke-linejoin="round" d="M 300.479 351.455 C 301.784 374.241 297.642 643.770 299.178 673.573 C 301.056 710.019 420.152 709.388 420.822 672.900 C 421.851 616.903 415.134 377.296 415.245 353.763 "/>
</g>
<g id="specs">
<path fill="#ff00ff" fill-rule="evenodd" stroke="none" d="M 269.371 341.062 C 269.371 341.045 269.371 171.107 269.371 171.090 C 269.388 171.090 439.325 171.090 439.342 171.090 C 439.342 171.107 439.342 341.045 439.342 341.062 C 439.325 341.062 269.388 341.062 269.371 341.062 Z"/>
<path fill="#ff0000" fill-rule="evenodd" stroke="none" d="M 360.429 600.596 C 360.427 600.601 342.498 650.802 342.497 650.807 C 342.498 650.806 360.427 634.123 360.429 634.122 C 360.431 634.123 378.360 650.806 378.362 650.807 C 378.360 650.802 360.431 600.601 360.429 600.596 Z"/>
<path fill="#0000ff" fill-rule="evenodd" stroke="none" d="M 394.056 7.266 C 394.056 7.268 386.793 27.605 386.792 27.607 C 386.793 27.607 394.056 20.849 394.056 20.848 C 394.057 20.849 401.320 27.607 401.321 27.607 C 401.320 27.605 394.057 7.268 394.056 7.266 Z"/>
<path fill="#00ff00" fill-rule="evenodd" stroke="none" d="M 269.845 406.785 C 269.848 406.787 302.007 429.250 302.010 429.252 C 302.010 429.251 293.646 413.289 293.645 413.287 C 293.646 413.286 308.964 403.793 308.966 403.792 C 308.962 403.793 269.849 406.785 269.845 406.785 Z"/>
<path fill="#00ff00" fill-rule="evenodd" stroke="none" d="M 450.155 410.182 C 450.151 410.181 411.469 403.668 411.465 403.667 C 411.467 403.668 425.864 414.505 425.865 414.507 C 425.864 414.508 416.093 429.649 416.092 429.650 C 416.096 429.648 450.151 410.184 450.155 410.182 Z"/>
<path fill="#ffff00" fill-rule="evenodd" stroke="none" d="M 430.694 699.595 C 430.693 699.591 419.958 662.697 419.957 662.693 C 419.956 662.695 416.532 680.011 416.531 680.013 C 416.530 680.013 399.012 677.844 399.010 677.844 C 399.013 677.846 430.690 699.593 430.694 699.595 Z"/>
<path fill="#ffff00" fill-rule="evenodd" stroke="none" d="M 289.306 699.093 C 289.307 699.089 300.042 662.195 300.043 662.191 C 300.043 662.193 303.468 679.509 303.468 679.511 C 303.470 679.511 320.988 677.342 320.990 677.342 C 320.987 677.344 289.309 699.090 289.306 699.093 Z"/>
<path fill="#be0027" fill-rule="evenodd" stroke="none" d="M 360.000 714.526 C 359.999 714.523 351.094 689.588 351.093 689.585 C 351.094 689.586 359.999 697.872 360.000 697.873 C 360.001 697.872 368.906 689.586 368.907 689.585 C 368.906 689.588 360.001 714.523 360.000 714.526 Z"/>
</g>
</g>
</svg>
