<?xml version="1.0" encoding="utf-8"?>
<!-- Generator: Moho 13.5 build 20210422 -->
<!DOCTYPE svg PUBLIC "-//W3C//DTD SVG 1.1//EN" "http://www.w3.org/Graphics/SVG/1.1/DTD/svg11.dtd">
<svg version="1.1" id="Frame_0" xmlns="http://www.w3.org/2000/svg" xmlns:xlink="http://www.w3.org/1999/xlink" width="720px" height="720px">
<g id="arm">
<g id="arm">
<radialGradient id="B911D2BC-8E8A-48E2-9815-65D839A0D108_0" cx="49.68%" cy="74.98%" r="248.87%">
<stop offset="6.67%" style="stop-color:rgb(255,255,255);stop-opacity:1.00" />
<stop offset="100.00%" style="stop-color:rgb(0,0,0);stop-opacity:1.00" />
</radialGradient>
<path fill="url(#B911D2BC-8E8A-48E2-9815-65D839A0D108_0)" fill-rule="evenodd" stroke="#000000" stroke-width="4" stroke-linecap="round" stroke-linejoin="round" d="M 348.644 370.742 C 328.154 368.547 295.980 355.907 285.022 344.724 C 266.329 325.647 248.362 293.652 245.008 284.913 C 242.125 277.401 229.324 235.342 224.156 221.366 C 218.440 205.909 198.492 180.561 201.187 172.653 C 203.194 166.764 219.145 165.463 225.316 169.324 C 234.552 175.104 243.292 187.831 245.626 190.477 C 254.808 200.884 270.931 247.165 278.788 246.811 C 287.855 246.404 295.023 231.894 299.224 223.974 C 302.676 217.467 308.862 170.966 309.566 163.634 C 310.361 155.347 310.790 100.787 310.940 94.455 C 311.070 88.958 309.251 40.831 312.580 34.417 C 313.667 32.322 318.309 20.825 327.221 21.358 C 334.786 21.810 337.897 29.688 338.784 31.294 C 342.444 37.918 341.015 88.397 341.484 94.136 C 341.958 99.938 342.675 153.131 349.112 157.266 C 350.074 157.884 357.651 157.531 358.608 156.907 C 364.882 152.817 371.652 101.879 372.793 96.296 C 374.103 89.886 379.664 32.582 385.062 25.888 C 386.270 24.390 391.225 16.621 399.041 18.121 C 405.889 19.436 408.784 27.659 409.462 29.375 C 412.550 37.187 402.256 92.393 401.720 98.762 C 401.224 104.668 392.897 157.544 398.035 163.400 C 398.922 164.411 407.457 167.073 408.732 166.646 C 415.536 164.367 428.995 116.398 430.839 111.259 C 432.570 106.436 443.102 62.664 447.907 57.945 C 449.288 56.588 456.083 48.970 462.761 51.765 C 469.022 54.386 470.927 66.714 471.225 69.005 C 472.087 75.614 457.624 117.456 456.393 122.375 C 454.772 128.854 437.448 185.425 440.627 193.606 C 441.075 194.759 446.713 200.761 447.948 200.819 C 454.998 201.150 475.130 154.967 477.593 150.195 C 479.653 146.202 493.364 110.333 497.819 105.481 C 499.033 104.158 506.948 99.233 512.352 102.085 C 517.469 104.785 518.697 115.376 518.813 117.369 C 519.257 124.985 497.312 170.811 495.314 176.261 C 491.608 186.371 464.607 275.232 458.366 287.934 C 453.874 297.077 437.634 342.878 411.599 358.522 C 387.396 373.065 363.592 372.343 348.644 370.742 Z"/>
<linearGradient id="B911D2BC-8E8A-48E2-9815-65D839A0D108_1" x1="50.12%" y1="51.35%" x2="-216.12%" y2="54.62%">
<stop offset="6.27%" style="stop-color:rgb(255,255,255);stop-opacity:1.00" />
<stop offset="100.00%" style="stop-color:rgb(0,0,0);stop-opacity:1.00" />
</linearGradient>
<path fill="url(#B911D2BC-8E8A-48E2-9815-65D839A0D108_1)" fill-rule="evenodd" stroke="none" d="M 377.062 363.701 C 355.241 365.505 328.857 357.075 304.755 353.763 C 303.090 377.237 298.149 616.903 299.178 672.900 C 299.848 709.387 418.943 710.019 420.822 673.573 C 422.358 643.770 418.216 374.241 419.521 351.455 C 419.517 351.456 390.274 362.608 377.062 363.701 Z"/>
<path fill="none" stroke="#000000" stroke-width="4" stroke-linecap="round" stroke-linejoin="round" d="M 419.521 351.455 C 418.216 374.241 422.358 643.770 420.822 673.573 C 418.943 710.019 299.848 709.387 299.178 672.900 C 298.149 616.903 303.090 377.237 304.755 353.763 "/>
</g>
<g id="specs">
<path fill="#ff00ff" fill-rule="evenodd" stroke="none" d="M 450.629 341.062 C 450.629 341.045 450.629 171.107 450.629 171.090 C 450.612 171.090 280.676 171.090 280.659 171.090 C 280.659 171.107 280.658 341.045 280.658 341.062 C 280.675 341.062 450.612 341.062 450.629 341.062 Z"/>
<path fill="#ff0000" fill-rule="evenodd" stroke="none" d="M 359.571 600.596 C 359.573 600.601 377.501 650.802 377.503 650.807 C 377.501 650.806 359.573 634.123 359.571 634.122 C 359.569 634.123 341.640 650.806 341.638 650.807 C 341.640 650.802 359.569 600.601 359.571 600.596 Z"/>
<path fill="#0000ff" fill-rule="evenodd" stroke="none" d="M 325.944 7.266 C 325.945 7.268 333.208 27.605 333.208 27.607 C 333.208 27.607 325.945 20.849 325.944 20.848 C 325.943 20.849 318.680 27.607 318.679 27.607 C 318.680 27.605 325.943 7.268 325.944 7.266 Z"/>
<path fill="#00ff00" fill-rule="evenodd" stroke="none" d="M 450.155 406.785 C 450.152 406.787 417.993 429.250 417.990 429.252 C 417.990 429.251 426.354 413.289 426.355 413.287 C 426.354 413.286 411.036 403.793 411.034 403.792 C 411.038 403.793 450.151 406.785 450.155 406.785 Z"/>
<path fill="#00ff00" fill-rule="evenodd" stroke="none" d="M 269.845 410.182 C 269.849 410.181 308.531 403.668 308.535 403.667 C 308.533 403.668 294.136 414.505 294.135 414.507 C 294.136 414.508 303.907 429.649 303.908 429.650 C 303.904 429.648 269.849 410.184 269.845 410.182 Z"/>
<path fill="#ffff00" fill-rule="evenodd" stroke="none" d="M 289.306 699.595 C 289.307 699.591 300.042 662.697 300.043 662.693 C 300.043 662.695 303.468 680.011 303.468 680.013 C 303.470 680.013 320.988 677.844 320.990 677.844 C 320.987 677.846 289.309 699.593 289.306 699.595 Z"/>
<path fill="#ffff00" fill-rule="evenodd" stroke="none" d="M 430.694 699.093 C 430.693 699.089 419.958 662.195 419.957 662.191 C 419.957 662.193 416.532 679.509 416.532 679.511 C 416.530 679.511 399.012 677.342 399.010 677.342 C 399.013 677.344 430.690 699.090 430.694 699.093 Z"/>
<path fill="#be0027" fill-rule="evenodd" stroke="none" d="M 360.000 714.526 C 360.001 714.523 368.906 689.588 368.907 689.585 C 368.906 689.586 360.001 697.872 360.000 697.873 C 359.999 697.872 351.094 689.586 351.093 689.585 C 351.094 689.588 359.999 714.523 360.000 714.526 Z"/>
</g>
</g>
</svg>
