<?xml version="1.0" encoding="utf-8"?>
<!-- Generator: Moho 12.5 build 22414 -->
<!DOCTYPE svg PUBLIC "-//W3C//DTD SVG 1.1//EN" "http://www.w3.org/Graphics/SVG/1.1/DTD/svg11.dtd">
<svg version="1.1" id="Frame_0" xmlns="http://www.w3.org/2000/svg" xmlns:xlink="http://www.w3.org/1999/xlink" width="720px" height="720px">
<g id="arm_claw">
<g id="arm_claw">
<path fill="#ffffff" fill-rule="evenodd" stroke="#000000" stroke-width="3" stroke-linecap="round" stroke-linejoin="round" d="M 307.704 690.871 C 307.706 690.840 328.606 380.508 328.608 380.477 C 328.601 380.473 279.624 355.868 262.187 340.472 C 223.395 306.219 203.275 271.339 199.883 234.656 C 195.975 192.393 230.260 135.596 230.263 135.587 C 230.263 135.594 221.435 177.449 227.299 213.750 C 238.645 283.985 292.756 300.695 343.415 306.786 C 364.949 309.376 431.187 288.627 464.135 222.617 C 487.320 176.166 468.349 132.352 465.064 113.861 C 479.993 123.540 513.639 181.702 491.971 232.157 C 467.329 289.538 445.988 298.039 434.273 307.515 C 451.063 302.816 473.821 295.325 491.100 281.450 C 552.970 231.768 550.442 197.350 557.425 173.225 C 561.234 192.192 578.234 254.178 507.050 305.525 C 474.009 329.358 440.990 342.199 440.983 342.203 C 440.988 342.202 476.981 339.140 491.759 334.834 C 549.853 317.908 569.128 298.559 586.916 267.186 C 581.303 308.606 563.398 345.223 481.928 372.307 C 446.607 384.049 390.109 381.470 390.100 381.471 C 390.102 381.502 412.293 688.247 412.296 688.278 C 412.290 688.279 387.391 704.084 360.000 704.700 C 332.969 705.308 307.710 690.872 307.704 690.871 Z"/>
</g>
<g id="specs">
<path fill="#ff0000" fill-rule="evenodd" stroke="none" d="M 360.000 644.161 C 360.001 644.164 370.476 673.493 370.477 673.496 C 370.476 673.495 360.001 663.749 360.000 663.748 C 359.999 663.749 349.524 673.495 349.523 673.496 C 349.524 673.493 359.999 644.164 360.000 644.161 Z"/>
<path fill="#00ff00" fill-rule="evenodd" stroke="none" d="M 304.211 542.323 C 304.213 542.322 323.987 535.147 323.989 535.146 C 323.989 535.147 317.442 542.255 317.441 542.256 C 317.442 542.256 324.060 549.298 324.061 549.299 C 324.059 549.298 304.213 542.323 304.211 542.323 Z"/>
<path fill="#ffff00" fill-rule="evenodd" stroke="none" d="M 307.652 689.601 C 307.653 689.599 315.204 673.160 315.204 673.158 C 315.205 673.159 315.602 681.460 315.602 681.461 C 315.603 681.461 323.911 681.663 323.912 681.663 C 323.910 681.663 307.654 689.600 307.652 689.601 Z"/>
<path fill="#ffff00" fill-rule="evenodd" stroke="none" d="M 416.058 689.399 C 416.057 689.398 408.178 673.113 408.178 673.111 C 408.178 673.112 407.947 681.420 407.946 681.421 C 407.946 681.421 399.643 681.789 399.642 681.789 C 399.644 681.789 416.056 689.399 416.058 689.399 Z"/>
<path fill="#00ff00" fill-rule="evenodd" stroke="none" d="M 415.806 542.323 C 415.804 542.322 396.030 535.147 396.028 535.146 C 396.029 535.147 402.575 542.255 402.576 542.256 C 402.575 542.256 395.957 549.298 395.957 549.299 C 395.958 549.298 415.804 542.323 415.806 542.323 Z"/>
<path fill="#00ffff" fill-rule="evenodd" stroke="none" d="M 396.217 385.911 C 396.216 385.910 388.450 374.609 388.449 374.608 C 388.449 374.609 389.226 380.860 389.226 380.861 C 389.226 380.861 383.046 382.088 383.046 382.088 C 383.047 382.088 396.216 385.911 396.217 385.911 Z"/>
<path fill="#00ffff" fill-rule="evenodd" stroke="none" d="M 322.771 384.828 C 322.772 384.827 330.646 374.866 330.647 374.865 C 330.647 374.866 329.542 380.593 329.542 380.594 C 329.543 380.594 335.175 382.109 335.176 382.109 C 335.175 382.109 322.773 384.828 322.771 384.828 Z"/>
<path fill="#be0027" fill-rule="evenodd" stroke="none" d="M 360.000 715.074 C 360.001 715.072 367.622 693.732 367.623 693.730 C 367.622 693.731 360.001 700.822 360.000 700.823 C 359.999 700.822 352.378 693.731 352.377 693.730 C 352.378 693.732 359.999 715.072 360.000 715.074 Z"/>
<path fill="#ff00ff" fill-rule="evenodd" stroke="none" d="M 229.737 6.469 C 229.760 6.469 464.900 6.469 464.923 6.469 C 464.923 6.492 464.923 241.632 464.923 241.655 C 464.900 241.655 229.760 241.655 229.737 241.655 C 229.737 241.632 229.737 6.492 229.737 6.469 Z"/>
</g>
</g>
</svg>
