<?xml version="1.0" encoding="utf-8"?>
<!-- Generator: Moho 13.5 build 20210422 -->
<!DOCTYPE svg PUBLIC "-//W3C//DTD SVG 1.1//EN" "http://www.w3.org/Graphics/SVG/1.1/DTD/svg11.dtd">
<svg version="1.1" id="Frame_0" xmlns="http://www.w3.org/2000/svg" xmlns:xlink="http://www.w3.org/1999/xlink" width="720px" height="720px">
<g id="arm_power_fist">
<g id="arm_power_fist_2">
<path fill="#ffffff" fill-rule="evenodd" stroke="#000000" stroke-width="4" stroke-linecap="round" stroke-linejoin="round" d="M 428.365 208.755 C 419.497 208.307 396.719 199.044 395.150 181.316 C 408.425 174.065 460.651 120.005 460.618 115.847 C 486.613 126.919 491.895 145.664 489.501 151.951 C 487.710 156.655 468.175 181.079 468.173 181.082 C 468.169 181.084 438.344 209.258 428.365 208.755 Z"/>
<path fill="none" stroke="#ffffff" stroke-width="1" stroke-linecap="butt" stroke-linejoin="round" d="M 460.618 115.847 C 460.651 120.005 408.425 174.065 395.150 181.316 "/>
<path fill="#ffffff" fill-rule="evenodd" stroke="#000000" stroke-width="4" stroke-linecap="round" stroke-linejoin="round" d="M 355.314 157.963 C 392.390 155.707 404.290 125.228 386.777 120.234 C 392.437 113.950 409.790 100.733 418.737 77.336 C 436.073 76.131 460.416 90.122 460.618 115.847 C 460.651 120.005 408.425 174.065 395.150 181.316 C 379.946 183.838 356.485 180.834 351.343 159.653 C 351.362 159.607 352.868 159.243 355.314 157.963 Z"/>
<path fill="none" stroke="#ffffff" stroke-width="1" stroke-linecap="butt" stroke-linejoin="round" d="M 418.737 77.336 C 409.790 100.733 392.437 113.950 386.777 120.234 "/>
<path fill="#ffffff" fill-rule="evenodd" stroke="#000000" stroke-width="4" stroke-linecap="round" stroke-linejoin="round" d="M 386.777 120.234 C 361.656 113.073 346.641 101.237 340.389 96.107 C 355.718 79.446 370.474 48.556 373.132 43.868 C 393.097 41.289 416.196 52.605 418.737 77.336 C 409.790 100.733 392.437 113.950 386.777 120.234 Z"/>
<path fill="none" stroke="#ffffff" stroke-width="1" stroke-linecap="butt" stroke-linejoin="round" d="M 373.132 43.868 C 370.474 48.556 355.718 79.446 340.389 96.107 "/>
<path fill="#ffffff" fill-rule="evenodd" stroke="#000000" stroke-width="4" stroke-linecap="round" stroke-linejoin="round" d="M 340.389 96.107 C 336.076 92.569 317.431 77.455 297.306 71.857 C 297.817 64.239 315.959 25.375 330.312 20.027 C 342.680 15.419 372.858 27.674 373.132 43.868 C 370.474 48.556 355.718 79.446 340.389 96.107 Z"/>
<path fill="none" stroke="#ffffff" stroke-width="1" stroke-linecap="butt" stroke-linejoin="round" d="M 468.173 181.082 C 468.169 181.084 438.344 209.258 428.365 208.755 "/>
<path fill="none" stroke="#ffffff" stroke-width="1" stroke-linecap="butt" stroke-linejoin="round" d="M 428.365 208.755 C 419.497 208.307 396.719 199.044 395.150 181.316 "/>
<path fill="none" stroke="#ffffff" stroke-width="1" stroke-linecap="butt" stroke-linejoin="round" d="M 395.150 181.316 C 379.946 183.838 356.485 180.834 351.343 159.653 "/>
<path fill="none" stroke="#ffffff" stroke-width="1" stroke-linecap="butt" stroke-linejoin="round" d="M 351.343 159.653 C 351.362 159.607 352.868 159.243 355.314 157.963 "/>
<path fill="none" stroke="#ffffff" stroke-width="1" stroke-linecap="butt" stroke-linejoin="round" d="M 355.314 157.963 C 392.390 155.707 404.290 125.228 386.777 120.234 "/>
<path fill="none" stroke="#ffffff" stroke-width="1" stroke-linecap="butt" stroke-linejoin="round" d="M 386.777 120.234 C 361.656 113.073 346.641 101.237 340.389 96.107 "/>
<path fill="none" stroke="#ffffff" stroke-width="1" stroke-linecap="butt" stroke-linejoin="round" d="M 340.389 96.107 C 336.076 92.569 317.431 77.455 297.306 71.857 "/>
<path fill="#ffffff" fill-rule="evenodd" stroke="none" d="M 424.191 291.550 C 451.736 270.565 473.422 228.776 468.173 181.082 C 468.169 181.084 438.344 209.258 428.365 208.755 C 419.497 208.307 396.719 199.044 395.150 181.316 C 379.946 183.838 356.485 180.834 351.343 159.653 C 351.362 159.607 352.868 159.243 355.314 157.963 C 392.390 155.707 404.290 125.228 386.777 120.234 C 361.656 113.073 346.641 101.237 340.389 96.107 C 336.076 92.569 317.431 77.455 297.306 71.857 C 276.685 66.120 264.938 114.974 230.499 149.400 C 202.017 177.871 295.352 260.545 295.809 276.337 C 296.329 294.285 281.867 663.231 281.865 663.269 C 281.873 663.273 295.816 693.843 360.000 693.825 C 424.199 693.807 438.127 663.220 438.135 663.217 C 438.133 663.180 424.041 300.794 424.191 291.550 Z"/>
<path fill="none" stroke="#000000" stroke-width="4" stroke-linecap="round" stroke-linejoin="round" d="M 424.191 291.550 C 451.736 270.565 473.422 228.776 468.173 181.082 C 468.169 181.084 438.344 209.258 428.365 208.755 C 419.497 208.307 396.719 199.044 395.150 181.316 C 379.946 183.838 356.485 180.834 351.343 159.653 C 351.362 159.607 352.868 159.243 355.314 157.963 C 392.390 155.707 404.290 125.228 386.777 120.234 C 361.656 113.073 346.641 101.237 340.389 96.107 C 336.076 92.569 317.431 77.455 297.306 71.857 C 276.685 66.120 264.938 114.974 230.499 149.400 C 202.017 177.871 295.352 260.545 295.809 276.337 C 296.329 294.285 281.867 663.231 281.865 663.269 C 281.873 663.273 295.816 693.843 360.000 693.825 C 424.199 693.807 438.127 663.220 438.135 663.217 C 438.133 663.180 424.041 300.794 424.191 291.550 M 309.967 136.007 C 331.943 164.471 345.973 158.532 355.314 157.963 M 300.000 151.419 C 298.105 151.040 305.888 150.877 309.967 136.007 M 378.061 241.236 C 374.435 202.472 333.923 158.209 300.000 151.419 "/>
</g>
<g id="specs_2">
<path fill="#ff00ff" fill-rule="evenodd" stroke="none" d="M 299.929 454.718 C 299.941 454.718 420.059 454.718 420.071 454.718 C 420.071 454.706 420.071 334.588 420.071 334.576 C 420.059 334.576 299.941 334.576 299.929 334.576 C 299.929 334.588 299.929 454.706 299.929 454.718 Z"/>
<path fill="#ff0000" fill-rule="evenodd" stroke="none" d="M 360.000 621.721 C 360.001 621.725 372.432 656.531 372.433 656.534 C 372.432 656.533 360.001 644.967 360.000 644.966 C 359.999 644.967 347.568 656.533 347.567 656.534 C 347.568 656.531 359.999 621.725 360.000 621.721 Z"/>
<path fill="#0000ff" fill-rule="evenodd" stroke="none" d="M 336.554 6.558 C 336.555 6.560 343.775 26.779 343.776 26.781 C 343.775 26.780 336.555 20.062 336.554 20.061 C 336.553 20.062 329.333 26.780 329.332 26.781 C 329.333 26.779 336.553 6.560 336.554 6.558 Z"/>
<path fill="#00ff00" fill-rule="evenodd" stroke="none" d="M 275.683 397.680 C 275.685 397.680 291.567 391.916 291.569 391.916 C 291.568 391.916 286.309 397.626 286.309 397.626 C 286.309 397.627 291.625 403.282 291.626 403.283 C 291.624 403.282 275.685 397.681 275.683 397.680 Z"/>
<path fill="#00ff00" fill-rule="evenodd" stroke="none" d="M 444.317 397.680 C 444.315 397.680 428.433 391.916 428.431 391.916 C 428.432 391.916 433.691 397.626 433.691 397.626 C 433.691 397.627 428.375 403.282 428.374 403.283 C 428.376 403.282 444.315 397.681 444.317 397.680 Z"/>
<path fill="#be0027" fill-rule="evenodd" stroke="none" d="M 360.000 716.459 C 360.001 716.455 372.432 681.649 372.433 681.646 C 372.432 681.647 360.001 693.213 360.000 693.214 C 359.999 693.213 347.568 681.647 347.567 681.646 C 347.568 681.649 359.999 716.455 360.000 716.459 Z"/>
</g>
</g>
</svg>
