<?xml version="1.0" encoding="utf-8"?>
<!-- Generator: Moho 13.5.1 build 20210623 -->
<!DOCTYPE svg PUBLIC "-//W3C//DTD SVG 1.1//EN" "http://www.w3.org/Graphics/SVG/1.1/DTD/svg11.dtd">
<svg version="1.1" id="Frame_0" xmlns="http://www.w3.org/2000/svg" xmlns:xlink="http://www.w3.org/1999/xlink" width="720px" height="720px">
<g id="arm_claw">
<g id="arm_claw">
<radialGradient id="3A469B28-8343-41B4-97D4-1167FB6CBCE9_0" cx="41.70%" cy="44.91%" r="82.87%">
<stop offset="36.08%" style="stop-color:rgb(255,255,255);stop-opacity:1.00" />
<stop offset="100.00%" style="stop-color:rgb(0,0,0);stop-opacity:1.00" />
</radialGradient>
<path fill="url(#3A469B28-8343-41B4-97D4-1167FB6CBCE9_0)" fill-rule="evenodd" stroke="#000000" stroke-width="3" stroke-linecap="round" stroke-linejoin="round" d="M 307.704 690.871 C 307.706 690.840 328.606 380.508 328.608 380.477 C 328.601 380.473 279.624 355.869 262.187 340.472 C 223.395 306.219 203.275 271.339 199.883 234.657 C 195.975 192.393 230.260 135.596 230.263 135.587 C 230.263 135.594 221.435 177.449 227.299 213.750 C 238.646 283.985 292.756 300.695 343.415 306.786 C 364.949 309.376 431.187 288.628 464.135 222.617 C 487.320 176.166 468.349 132.352 465.064 113.861 C 479.993 123.540 513.639 181.702 491.971 232.157 C 467.329 289.538 445.988 298.039 434.273 307.515 C 451.063 302.816 473.821 295.325 491.100 281.450 C 552.970 231.769 550.442 197.350 557.425 173.225 C 561.235 192.192 578.234 254.178 507.050 305.525 C 474.009 329.358 440.990 342.199 440.983 342.203 C 440.988 342.202 476.981 339.140 491.759 334.834 C 549.853 317.908 569.128 298.560 586.916 267.187 C 581.303 308.606 563.398 345.223 481.928 372.307 C 446.607 384.049 390.109 381.470 390.100 381.471 C 390.102 381.502 412.293 688.247 412.296 688.278 C 412.290 688.280 387.391 704.084 360.000 704.701 C 332.969 705.309 307.710 690.872 307.704 690.871 Z"/>
</g>
<g id="specs">
<path fill="#ff0000" fill-rule="evenodd" stroke="none" d="M 360.000 644.161 C 360.001 644.164 370.476 673.493 370.477 673.496 C 370.476 673.495 360.001 663.749 360.000 663.748 C 359.999 663.749 349.524 673.495 349.523 673.496 C 349.524 673.493 359.999 644.164 360.000 644.161 Z"/>
<path fill="#00ff00" fill-rule="evenodd" stroke="none" d="M 220.992 481.688 C 220.996 481.686 268.406 464.483 268.411 464.481 C 268.409 464.483 252.712 481.526 252.711 481.528 C 252.713 481.529 268.580 498.412 268.582 498.414 C 268.577 498.412 220.996 481.690 220.992 481.688 Z"/>
<path fill="#ffff00" fill-rule="evenodd" stroke="none" d="M 307.652 689.601 C 307.653 689.599 315.204 673.160 315.204 673.158 C 315.205 673.159 315.602 681.460 315.602 681.461 C 315.603 681.461 323.911 681.663 323.912 681.663 C 323.910 681.664 307.654 689.600 307.652 689.601 Z"/>
<path fill="#ffff00" fill-rule="evenodd" stroke="none" d="M 416.058 689.400 C 416.057 689.398 408.178 673.113 408.178 673.111 C 408.178 673.112 407.947 681.420 407.946 681.421 C 407.946 681.421 399.643 681.789 399.642 681.789 C 399.644 681.790 416.056 689.399 416.058 689.400 Z"/>
<path fill="#00ff00" fill-rule="evenodd" stroke="none" d="M 488.547 481.688 C 488.542 481.686 441.133 464.483 441.128 464.481 C 441.130 464.483 456.826 481.526 456.828 481.528 C 456.826 481.529 440.958 498.412 440.957 498.414 C 440.962 498.412 488.542 481.690 488.547 481.688 Z"/>
<path fill="#be0027" fill-rule="evenodd" stroke="none" d="M 360.000 715.074 C 360.001 715.072 367.622 693.733 367.623 693.731 C 367.622 693.731 360.001 700.822 360.000 700.823 C 359.999 700.822 352.378 693.731 352.377 693.731 C 352.378 693.733 359.999 715.072 360.000 715.074 Z"/>
<path fill="#ff00ff" fill-rule="evenodd" stroke="none" d="M 229.737 6.469 C 229.761 6.469 464.899 6.469 464.923 6.469 C 464.923 6.492 464.923 241.632 464.923 241.655 C 464.899 241.655 229.761 241.655 229.737 241.655 C 229.737 241.632 229.737 6.492 229.737 6.469 Z"/>
</g>
</g>
</svg>
