<?xml version="1.0" encoding="utf-8"?>
<!-- Generator: Moho 12.5 build 22414 -->
<!DOCTYPE svg PUBLIC "-//W3C//DTD SVG 1.1//EN" "http://www.w3.org/Graphics/SVG/1.1/DTD/svg11.dtd">
<svg version="1.1" id="Frame_0" xmlns="http://www.w3.org/2000/svg" xmlns:xlink="http://www.w3.org/1999/xlink" width="720px" height="720px">
<g id="arm_power_fist">
<g id="arm_power_fist_2">
<path fill="#ffffff" fill-rule="evenodd" stroke="#000000" stroke-width="4" stroke-linecap="round" stroke-linejoin="round" d="M 428.280 208.943 C 419.423 208.496 396.673 199.244 395.106 181.538 C 408.365 174.296 460.526 120.303 460.493 116.151 C 486.455 127.209 491.731 145.931 489.340 152.210 C 487.551 156.908 468.041 181.301 468.039 181.304 C 468.035 181.307 438.247 209.446 428.280 208.943 Z"/>
<path fill="none" stroke="#ffffff" stroke-width="1" stroke-linecap="butt" stroke-linejoin="round" d="M 460.493 116.151 C 460.526 120.303 408.365 174.296 395.106 181.538 "/>
<path fill="#ffffff" fill-rule="evenodd" stroke="#000000" stroke-width="4" stroke-linecap="round" stroke-linejoin="round" d="M 355.320 158.215 C 392.349 155.961 404.235 125.519 386.743 120.533 C 392.397 114.256 409.728 101.055 418.664 77.688 C 435.978 76.484 460.291 90.458 460.493 116.151 C 460.526 120.303 408.365 174.296 395.106 181.538 C 379.921 184.057 356.490 181.056 351.354 159.903 C 351.372 159.856 352.877 159.493 355.320 158.215 Z"/>
<path fill="none" stroke="#ffffff" stroke-width="1" stroke-linecap="butt" stroke-linejoin="round" d="M 418.664 77.688 C 409.728 101.055 392.397 114.256 386.743 120.533 "/>
<path fill="#ffffff" fill-rule="evenodd" stroke="#000000" stroke-width="4" stroke-linecap="round" stroke-linejoin="round" d="M 386.743 120.533 C 361.654 113.380 346.657 101.559 340.413 96.436 C 355.723 79.795 370.461 48.943 373.116 44.261 C 393.056 41.685 416.126 52.988 418.664 77.688 C 409.728 101.055 392.397 114.256 386.743 120.533 Z"/>
<path fill="none" stroke="#ffffff" stroke-width="1" stroke-linecap="butt" stroke-linejoin="round" d="M 373.116 44.261 C 370.461 48.943 355.723 79.795 340.413 96.436 "/>
<path fill="#ffffff" fill-rule="evenodd" stroke="#000000" stroke-width="4" stroke-linecap="round" stroke-linejoin="round" d="M 340.413 96.436 C 336.106 92.901 317.484 77.807 297.384 72.215 C 297.894 64.607 316.014 25.792 330.349 20.450 C 342.702 15.847 372.842 28.088 373.116 44.261 C 370.461 48.943 355.723 79.795 340.413 96.436 Z"/>
<path fill="none" stroke="#ffffff" stroke-width="1" stroke-linecap="butt" stroke-linejoin="round" d="M 468.039 181.304 C 468.035 181.307 438.247 209.446 428.280 208.943 "/>
<path fill="none" stroke="#ffffff" stroke-width="1" stroke-linecap="butt" stroke-linejoin="round" d="M 428.280 208.943 C 419.423 208.496 396.673 199.244 395.106 181.538 "/>
<path fill="none" stroke="#ffffff" stroke-width="1" stroke-linecap="butt" stroke-linejoin="round" d="M 395.106 181.538 C 379.921 184.057 356.490 181.056 351.354 159.903 "/>
<path fill="none" stroke="#ffffff" stroke-width="1" stroke-linecap="butt" stroke-linejoin="round" d="M 351.354 159.903 C 351.372 159.856 352.877 159.493 355.320 158.215 "/>
<path fill="none" stroke="#ffffff" stroke-width="1" stroke-linecap="butt" stroke-linejoin="round" d="M 355.320 158.215 C 392.349 155.961 404.235 125.519 386.743 120.533 "/>
<path fill="none" stroke="#ffffff" stroke-width="1" stroke-linecap="butt" stroke-linejoin="round" d="M 386.743 120.533 C 361.654 113.380 346.657 101.559 340.413 96.436 "/>
<path fill="none" stroke="#ffffff" stroke-width="1" stroke-linecap="butt" stroke-linejoin="round" d="M 340.413 96.436 C 336.106 92.901 317.484 77.807 297.384 72.215 "/>
<path fill="#ffffff" fill-rule="evenodd" stroke="none" d="M 424.111 291.635 C 451.622 270.676 473.281 228.939 468.039 181.304 C 468.035 181.307 438.247 209.446 428.280 208.943 C 419.423 208.496 396.673 199.244 395.106 181.538 C 379.921 184.057 356.490 181.056 351.354 159.903 C 351.372 159.856 352.877 159.493 355.320 158.215 C 392.349 155.961 404.235 125.519 386.743 120.533 C 361.654 113.380 346.657 101.559 340.413 96.436 C 336.106 92.901 317.484 77.807 297.384 72.215 C 276.788 66.486 265.056 115.279 230.660 149.662 C 202.214 178.097 295.432 260.669 295.889 276.441 C 296.408 294.367 281.964 662.853 281.962 662.892 C 281.970 662.895 295.896 693.428 360.000 693.410 C 424.119 693.391 438.030 662.843 438.038 662.839 C 438.036 662.802 423.962 300.868 424.111 291.635 Z"/>
<path fill="none" stroke="#000000" stroke-width="4" stroke-linecap="round" stroke-linejoin="round" d="M 424.111 291.635 C 451.622 270.676 473.281 228.939 468.039 181.304 C 468.035 181.307 438.247 209.446 428.280 208.943 C 419.423 208.496 396.673 199.244 395.106 181.538 C 379.921 184.057 356.490 181.056 351.354 159.903 C 351.372 159.856 352.877 159.493 355.320 158.215 C 392.349 155.961 404.235 125.519 386.743 120.533 C 361.654 113.380 346.657 101.559 340.413 96.436 C 336.106 92.901 317.484 77.807 297.384 72.215 C 276.788 66.486 265.056 115.279 230.660 149.662 C 202.214 178.097 295.432 260.669 295.889 276.441 C 296.408 294.367 281.964 662.853 281.962 662.892 C 281.970 662.895 295.896 693.428 360.000 693.410 C 424.119 693.391 438.030 662.843 438.038 662.839 C 438.036 662.802 423.962 300.868 424.111 291.635 M 310.029 136.285 C 331.977 164.714 345.990 158.782 355.320 158.215 M 300.075 151.679 C 298.182 151.300 305.955 151.137 310.029 136.285 M 378.038 241.383 C 374.417 202.668 333.956 158.460 300.075 151.679 "/>
</g>
<g id="specs_2">
<path fill="#ff00ff" fill-rule="evenodd" stroke="none" d="M 300.004 454.600 C 300.016 454.600 419.985 454.600 419.997 454.600 C 419.997 454.588 419.997 334.619 419.997 334.607 C 419.985 334.607 300.016 334.607 300.004 334.607 C 300.004 334.619 300.004 454.588 300.004 454.600 Z"/>
<path fill="#ff0000" fill-rule="evenodd" stroke="none" d="M 360.000 621.396 C 360.001 621.399 372.416 656.162 372.417 656.165 C 372.416 656.164 360.001 644.613 360.000 644.612 C 359.999 644.613 347.584 656.164 347.583 656.165 C 347.584 656.162 359.999 621.399 360.000 621.396 Z"/>
<path fill="#0000ff" fill-rule="evenodd" stroke="none" d="M 336.583 6.998 C 336.584 7.000 343.795 27.193 343.796 27.195 C 343.795 27.194 336.584 20.485 336.583 20.484 C 336.582 20.485 329.371 27.194 329.370 27.195 C 329.371 27.193 336.582 7.000 336.583 6.998 Z"/>
<path fill="#00ff00" fill-rule="evenodd" stroke="none" d="M 275.788 397.633 C 275.790 397.633 291.652 391.877 291.653 391.876 C 291.653 391.877 286.401 397.579 286.401 397.580 C 286.401 397.580 291.710 403.229 291.711 403.229 C 291.709 403.229 275.790 397.634 275.788 397.633 Z"/>
<path fill="#00ff00" fill-rule="evenodd" stroke="none" d="M 444.212 397.633 C 444.210 397.633 428.348 391.877 428.347 391.876 C 428.347 391.877 433.599 397.579 433.599 397.580 C 433.599 397.580 428.290 403.229 428.289 403.229 C 428.291 403.229 444.210 397.634 444.212 397.633 Z"/>
<path fill="#00ffff" fill-rule="evenodd" stroke="none" d="M 492.530 128.800 C 492.529 128.802 484.371 151.838 484.370 151.841 C 484.370 151.839 482.825 140.719 482.825 140.718 C 482.824 140.718 471.622 141.458 471.620 141.458 C 471.623 141.457 492.528 128.801 492.530 128.800 Z"/>
<path fill="#00ffff" fill-rule="evenodd" stroke="none" d="M 227.470 129.564 C 227.471 129.566 237.147 152.007 237.148 152.009 C 237.148 152.008 237.948 140.809 237.948 140.808 C 237.949 140.808 249.176 140.800 249.177 140.800 C 249.175 140.799 227.472 129.565 227.470 129.564 Z"/>
<path fill="#be0027" fill-rule="evenodd" stroke="none" d="M 360.000 716.016 C 360.001 716.012 372.416 681.249 372.417 681.246 C 372.416 681.247 360.001 692.798 360.000 692.799 C 359.999 692.798 347.584 681.247 347.583 681.246 C 347.584 681.249 359.999 716.012 360.000 716.016 Z"/>
</g>
</g>
</svg>
