<?xml version="1.0" encoding="utf-8"?>
<!-- Generator: Moho 13.5 build 20210422 -->
<!DOCTYPE svg PUBLIC "-//W3C//DTD SVG 1.1//EN" "http://www.w3.org/Graphics/SVG/1.1/DTD/svg11.dtd">
<svg version="1.1" id="Frame_0" xmlns="http://www.w3.org/2000/svg" xmlns:xlink="http://www.w3.org/1999/xlink" width="720px" height="720px">
<g id="arms_strong">
<g id="arms_baby">
<path fill="#ffffff" fill-rule="evenodd" stroke="#000000" stroke-width="3" stroke-linejoin="round" d="M 240.298 409.357 C 223.226 412.982 184.156 442.206 133.119 448.437 C 130.772 448.724 162.772 518.800 173.709 606.162 C 174.134 609.557 191.861 611.823 199.839 614.453 C 224.060 622.437 244.251 646.921 222.048 648.776 C 204.296 650.260 204.442 638.774 196.298 637.072 C 186.895 635.108 181.020 632.857 170.548 637.072 C 162.951 640.130 177.826 679.068 154.162 680.379 C 132.891 681.557 147.160 636.707 145.383 640.583 C 134.432 664.471 140.231 681.199 108.893 679.649 C 93.024 678.863 123.203 641.317 124.900 638.242 C 126.467 635.402 95.902 675.671 71.524 670.900 C 52.162 667.111 83.779 644.473 104.417 635.901 C 109.810 633.661 67.875 655.058 51.421 643.569 C 42.616 637.422 73.280 627.223 84.758 623.039 C 97.345 618.451 122.786 613.798 121.954 612.449 C 94.966 568.661 10.559 458.699 14.612 371.439 C 16.932 321.492 147.172 243.227 212.395 227.240 C 237.249 200.300 482.752 200.300 507.606 227.240 C 572.828 243.226 703.068 321.492 705.388 371.438 C 709.440 458.699 625.035 568.661 598.046 612.449 C 597.214 613.798 622.655 618.451 635.242 623.039 C 646.720 627.223 677.384 637.421 668.579 643.569 C 652.125 655.058 610.190 633.661 615.583 635.901 C 636.222 644.473 667.839 667.112 648.476 670.900 C 624.098 675.671 593.533 635.402 595.101 638.242 C 596.797 641.317 626.976 678.863 611.107 679.649 C 579.769 681.199 585.568 664.471 574.618 640.583 C 572.841 636.707 587.109 681.557 565.839 680.378 C 542.174 679.068 557.049 640.130 549.452 637.072 C 538.980 632.857 533.105 635.107 523.702 637.072 C 515.558 638.773 515.704 650.259 497.952 648.776 C 475.749 646.921 495.940 622.437 520.161 614.453 C 528.139 611.823 545.866 609.556 546.291 606.162 C 557.227 518.800 589.228 448.724 586.882 448.437 C 535.844 442.206 496.986 411.777 479.702 409.357 C 424.191 423.542 295.807 423.544 240.298 409.357 Z"/>
</g>
<g id="specs_2">
<path fill="#ff00ff" fill-rule="evenodd" stroke="none" d="M 130.546 525.307 C 130.592 525.307 589.408 525.307 589.454 525.307 C 589.454 525.262 589.454 66.446 589.454 66.400 C 589.408 66.400 130.592 66.400 130.546 66.400 C 130.546 66.446 130.546 525.262 130.546 525.307 Z"/>
<path fill="#ff0000" fill-rule="evenodd" stroke="none" d="M 360.000 675.603 C 360.001 675.606 371.148 706.819 371.149 706.822 C 371.148 706.821 360.001 696.449 360.000 696.448 C 359.999 696.449 348.852 706.821 348.851 706.822 C 348.852 706.819 359.999 675.606 360.000 675.603 Z"/>
<path fill="#0000ff" fill-rule="evenodd" stroke="none" d="M 360.000 55.490 C 360.001 55.492 366.476 73.623 366.476 73.625 C 366.476 73.624 360.001 67.599 360.000 67.599 C 359.999 67.599 353.524 73.624 353.524 73.625 C 353.524 73.623 359.999 55.492 360.000 55.490 Z"/>
<path fill="#00ff00" fill-rule="evenodd" stroke="none" d="M 4.670 372.333 C 4.672 372.332 25.665 364.715 25.667 364.714 C 25.666 364.715 18.716 372.261 18.715 372.262 C 18.716 372.263 25.742 379.738 25.743 379.739 C 25.741 379.738 4.672 372.334 4.670 372.333 Z"/>
<path fill="#00ff00" fill-rule="evenodd" stroke="none" d="M 715.330 372.333 C 715.328 372.332 694.335 364.715 694.333 364.714 C 694.334 364.715 701.284 372.261 701.285 372.262 C 701.284 372.263 694.258 379.738 694.257 379.739 C 694.259 379.738 715.328 372.334 715.330 372.333 Z"/>
<path fill="#be0027" fill-rule="evenodd" stroke="none" d="M 139.965 678.460 C 139.966 678.457 149.971 650.442 149.972 650.439 C 149.971 650.440 139.966 659.750 139.965 659.751 C 139.964 659.750 129.959 650.440 129.958 650.439 C 129.959 650.442 139.964 678.457 139.965 678.460 Z"/>
<path fill="#be0027" fill-rule="evenodd" stroke="none" d="M 580.035 678.460 C 580.036 678.457 590.041 650.442 590.042 650.439 C 590.041 650.440 580.036 659.750 580.035 659.751 C 580.034 659.750 570.029 650.440 570.028 650.439 C 570.029 650.442 580.034 678.457 580.035 678.460 Z"/>
</g>
</g>
</svg>
