<?xml version="1.0" encoding="utf-8"?>
<!-- Generator: Moho 13.5 build 20210422 -->
<!DOCTYPE svg PUBLIC "-//W3C//DTD SVG 1.1//EN" "http://www.w3.org/Graphics/SVG/1.1/DTD/svg11.dtd">
<svg version="1.1" id="Frame_0" xmlns="http://www.w3.org/2000/svg" xmlns:xlink="http://www.w3.org/1999/xlink" width="720px" height="720px">
<g id="atlas">
<g id="atlas">
<path fill="#ffffff" fill-rule="evenodd" stroke="none" d="M 193.023 151.219 C 192.579 155.728 192.407 163.307 194.434 169.120 C 177.216 170.739 162.317 180.697 163.627 176.844 C 182.244 122.120 170.491 72.637 172.447 49.238 C 172.945 43.280 167.293 38.677 161.875 38.213 C 156.584 37.761 91.285 37.345 91.278 37.345 C 90.735 37.345 82.771 37.346 82.770 37.346 C 80.109 37.347 74.787 37.347 74.786 37.347 C 71.998 37.387 66.423 37.465 66.422 37.465 C 66.423 37.465 68.927 42.416 70.534 44.615 C 88.804 69.607 151.017 56.054 141.367 73.270 C 87.238 169.837 92.882 187.639 82.671 207.785 C 73.214 226.444 87.890 235.983 95.701 236.727 C 117.214 238.774 144.100 254.633 183.223 256.341 C 226.437 258.229 255.164 244.758 257.286 248.642 C 268.601 269.351 277.147 287.467 303.159 299.799 C 340.204 317.363 371.227 359.573 362.657 399.853 C 346.875 400.564 335.382 399.621 323.112 403.064 C 219.823 432.046 215.925 467.413 173.839 489.797 C 157.553 498.459 162.515 532.406 174.098 538.502 C 193.307 548.612 209.507 572.666 237.755 594.160 C 263.781 613.965 298.342 631.253 302.771 637.089 C 308.997 645.292 282.230 648.388 271.853 651.265 C 268.732 652.130 258.347 654.050 256.050 654.491 C 247.248 656.182 248.241 659.084 245.094 658.444 C 238.945 657.194 227.937 665.960 230.121 665.061 C 225.721 667.430 233.375 668.696 234.582 668.193 C 238.041 666.754 243.273 668.019 243.274 668.019 C 243.272 668.019 223.991 667.299 225.172 671.415 C 225.738 673.389 229.035 672.924 229.982 672.871 C 235.643 672.555 244.015 672.741 244.017 672.741 C 244.015 672.741 225.939 672.148 222.077 675.097 C 211.155 683.437 235.807 676.451 242.054 679.294 C 242.677 679.388 205.271 678.380 212.256 687.935 C 217.602 695.247 234.097 692.926 237.889 690.602 C 245.432 685.979 253.550 693.493 277.128 686.605 C 293.328 681.872 306.545 686.414 313.171 687.020 C 324.849 688.088 339.361 687.871 354.331 684.909 C 368.713 682.064 364.963 670.386 361.671 659.676 C 360.308 655.242 351.825 645.671 347.975 637.632 C 333.443 607.290 329.422 587.301 298.925 550.173 C 286.770 535.376 250.970 528.336 250.965 528.334 C 250.975 528.331 300.035 520.730 343.919 496.692 C 369.903 502.864 383.605 506.363 397.659 500.222 C 381.665 556.484 391.272 578.180 379.234 615.733 C 374.103 631.741 398.946 651.224 410.268 647.469 C 431.309 640.490 459.076 639.552 495.796 635.558 C 540.671 630.678 591.510 624.886 601.479 624.146 C 611.684 623.389 605.749 652.290 604.468 657.811 C 603.825 660.584 602.389 679.366 600.147 682.167 C 587.991 697.349 581.617 689.355 578.830 695.742 C 575.854 702.562 594.644 706.864 597.150 702.157 C 599.466 705.739 606.139 702.361 607.426 700.207 C 610.431 695.182 612.206 693.449 612.206 693.448 C 612.206 693.449 604.338 704.453 606.721 705.568 C 611.548 707.827 616.602 702.276 617.103 700.123 C 618.086 695.899 621.224 692.441 621.224 692.440 C 621.224 692.441 615.614 703.371 618.477 703.895 C 623.228 704.765 625.394 702.003 626.076 699.347 C 627.620 693.330 629.848 691.784 629.848 691.783 C 629.848 691.784 623.907 703.050 628.045 702.893 C 630.240 702.810 633.034 700.670 633.388 699.651 C 634.503 696.439 639.322 692.903 643.481 688.340 C 661.043 669.068 653.968 656.690 655.110 634.786 C 655.775 622.050 665.330 608.323 663.903 592.334 C 662.529 576.935 652.260 574.792 645.615 574.333 C 632.814 573.448 623.042 581.188 613.539 579.216 C 583.842 573.056 573.048 562.026 531.205 554.901 C 512.262 551.675 480.572 570.139 480.567 570.141 C 480.571 570.133 514.385 540.181 522.616 498.788 C 579.947 469.577 543.996 395.868 531.966 382.866 C 531.035 352.611 533.273 318.431 510.950 280.572 C 507.349 274.465 503.687 259.491 495.514 245.147 C 505.843 242.589 518.817 250.251 535.155 251.026 C 575.180 252.926 604.052 239.777 626.155 239.113 C 634.670 238.856 651.818 228.553 641.562 208.289 C 631.074 187.569 631.663 152.490 574.314 73.198 C 562.748 57.207 626.874 69.517 645.137 44.520 C 646.744 42.321 649.248 37.369 649.248 37.368 C 649.247 37.368 643.672 37.292 640.885 37.254 C 640.884 37.254 635.562 37.254 632.900 37.255 C 632.900 37.255 624.935 37.256 624.392 37.256 C 624.385 37.256 559.085 37.694 553.794 38.148 C 548.376 38.614 543.276 43.198 543.227 49.176 C 543.065 68.966 538.869 97.765 556.150 161.226 C 557.049 164.529 545.432 154.557 532.067 152.010 C 512.035 148.192 495.627 150.007 491.903 150.940 C 485.674 152.500 486.136 146.883 456.103 138.575 C 412.279 126.451 375.142 143.702 365.585 142.102 C 355.972 140.493 352.910 138.430 346.844 133.929 C 327.011 119.213 307.071 96.979 289.363 90.496 C 268.738 82.945 233.669 84.782 215.261 100.462 C 199.615 113.788 193.993 141.387 193.023 151.219 M 607.071 689.070 C 607.070 689.071 594.715 698.391 597.150 702.157 C 601.426 694.124 607.070 689.071 607.071 689.070 M 242.054 679.294 C 242.845 679.654 242.680 679.387 242.680 679.387 M 242.837 663.022 C 242.836 663.022 234.225 662.852 230.121 665.061 C 236.908 662.270 242.836 663.022 242.837 663.022 M 194.434 169.120 C 194.434 169.120 194.434 169.120 194.434 169.120 Z"/>
<path fill="none" stroke="#000000" stroke-width="2" stroke-linejoin="round" d="M 354.360 215.918 C 354.362 215.914 351.951 194.271 373.632 173.741 C 391.197 157.108 404.375 158.435 419.747 150.782 M 357.966 301.173 C 336.902 306.552 323.124 307.216 305.153 301.023 M 385.703 300.259 C 385.707 300.259 411.061 303.306 426.592 300.708 C 447.349 297.235 463.324 276.763 463.328 276.761 M 585.480 43.923 C 599.035 44.343 606.704 44.101 616.114 42.132 C 621.759 40.951 624.391 37.257 624.392 37.256 C 624.385 37.256 559.085 37.694 553.794 38.148 C 548.376 38.614 543.276 43.198 543.227 49.176 C 543.065 68.966 538.869 97.765 556.150 161.226 C 557.049 164.529 545.432 154.557 532.067 152.010 C 512.035 148.192 495.627 150.007 491.903 150.940 C 485.674 152.500 486.136 146.883 456.103 138.575 C 412.279 126.451 375.142 143.702 365.585 142.102 C 355.972 140.493 352.910 138.430 346.844 133.929 C 327.011 119.213 307.071 96.979 289.363 90.496 C 268.738 82.945 233.669 84.782 215.261 100.462 C 199.615 113.788 193.993 141.387 193.023 151.219 C 192.579 155.728 192.407 163.307 194.434 169.120 C 200.359 186.114 228.868 221.231 228.871 221.236 C 228.872 221.235 237.574 208.820 237.575 208.819 C 237.579 208.821 265.814 229.629 276.786 226.988 C 289.943 223.820 295.080 209.446 299.336 201.097 C 303.463 204.851 315.133 215.801 323.032 223.153 M 362.657 399.853 C 371.227 359.573 340.204 317.363 303.159 299.799 C 277.147 287.467 268.601 269.351 257.286 248.642 C 255.164 244.758 226.437 258.229 183.223 256.341 C 144.100 254.633 117.214 238.774 95.701 236.727 C 87.890 235.983 73.214 226.444 82.671 207.785 C 92.882 187.639 87.238 169.837 141.367 73.270 C 151.017 56.054 88.804 69.607 70.534 44.615 C 68.927 42.416 66.423 37.465 66.422 37.465 C 66.423 37.465 71.998 37.387 74.786 37.347 C 74.787 37.347 80.109 37.347 82.770 37.346 C 82.771 37.346 90.735 37.345 91.278 37.345 C 91.285 37.345 156.584 37.761 161.875 38.213 C 167.293 38.677 172.945 43.280 172.447 49.238 C 170.491 72.637 182.244 122.120 163.627 176.844 C 162.317 180.697 177.216 170.739 194.434 169.120 C 194.434 169.120 194.434 169.120 194.434 169.120 M 431.935 422.067 C 427.619 429.303 423.649 436.104 420.295 442.687 C 411.645 460.066 406.977 476.176 401.629 490.020 C 400.218 493.717 398.571 497.015 397.659 500.222 C 381.665 556.484 391.272 578.180 379.234 615.733 C 374.103 631.741 398.946 651.224 410.268 647.469 C 431.309 640.490 459.076 639.552 495.796 635.558 C 540.671 630.678 591.510 624.886 601.479 624.146 C 611.684 623.389 605.749 652.290 604.468 657.811 C 603.825 660.584 602.389 679.366 600.147 682.167 C 587.991 697.349 581.617 689.355 578.830 695.742 C 575.854 702.562 594.644 706.864 597.150 702.157 C 601.426 694.124 607.070 689.071 607.071 689.070 C 607.070 689.071 594.715 698.391 597.150 702.157 C 599.466 705.739 606.139 702.361 607.426 700.207 C 610.431 695.182 612.206 693.449 612.206 693.448 C 612.206 693.449 604.338 704.453 606.721 705.568 C 611.548 707.827 616.602 702.276 617.103 700.123 C 618.086 695.899 621.224 692.441 621.224 692.440 C 621.224 692.441 615.614 703.371 618.477 703.895 C 623.228 704.765 625.394 702.003 626.076 699.347 C 627.620 693.330 629.848 691.784 629.848 691.783 C 629.848 691.784 623.907 703.050 628.045 702.893 C 630.240 702.810 633.034 700.670 633.388 699.651 C 634.503 696.439 639.322 692.903 643.481 688.340 C 661.043 669.068 653.968 656.690 655.110 634.786 C 655.775 622.050 665.330 608.323 663.903 592.334 C 662.529 576.935 652.260 574.792 645.615 574.333 C 632.814 573.448 623.042 581.188 613.539 579.216 C 583.842 573.056 573.048 562.026 531.205 554.901 C 512.262 551.675 480.572 570.139 480.567 570.141 C 480.571 570.133 514.385 540.181 522.616 498.788 C 579.947 469.577 543.996 395.868 531.966 382.866 C 531.035 352.611 533.273 318.431 510.950 280.572 C 507.349 274.465 503.687 259.491 495.514 245.147 C 505.843 242.589 518.817 250.251 535.155 251.026 C 575.180 252.926 604.052 239.777 626.155 239.113 C 634.670 238.856 651.818 228.553 641.562 208.289 C 631.074 187.569 631.663 152.490 574.314 73.198 C 562.748 57.207 626.874 69.517 645.137 44.520 C 646.744 42.321 649.248 37.369 649.248 37.368 C 649.247 37.368 643.672 37.292 640.885 37.254 C 640.884 37.254 635.562 37.254 632.900 37.255 C 632.900 37.255 624.935 37.256 624.392 37.256 M 362.657 399.853 C 346.875 400.564 335.382 399.621 323.112 403.064 C 219.823 432.046 215.925 467.413 173.839 489.797 C 157.553 498.459 162.515 532.406 174.098 538.502 C 193.307 548.612 209.507 572.666 237.755 594.160 C 263.781 613.965 298.342 631.253 302.771 637.089 C 308.997 645.292 282.230 648.388 271.853 651.265 C 268.732 652.130 258.347 654.050 256.050 654.491 C 247.248 656.182 248.241 659.084 245.094 658.444 C 238.945 657.194 227.937 665.960 230.121 665.061 C 236.908 662.270 242.836 663.022 242.837 663.022 C 242.836 663.022 234.225 662.852 230.121 665.061 C 225.721 667.430 233.375 668.696 234.582 668.193 C 238.041 666.754 243.273 668.019 243.274 668.019 C 243.272 668.019 223.991 667.299 225.172 671.415 C 225.738 673.389 229.035 672.924 229.982 672.871 C 235.643 672.555 244.015 672.741 244.017 672.741 C 244.015 672.741 225.939 672.148 222.077 675.097 C 211.155 683.437 235.807 676.451 242.054 679.294 C 242.845 679.654 242.680 679.387 242.680 679.387 C 242.677 679.388 205.271 678.380 212.256 687.935 C 217.602 695.247 234.097 692.926 237.889 690.602 C 245.432 685.979 253.550 693.493 277.128 686.605 C 293.328 681.872 306.545 686.414 313.171 687.020 C 324.849 688.088 339.361 687.871 354.331 684.909 C 368.713 682.064 364.963 670.386 361.671 659.676 C 360.308 655.242 351.825 645.671 347.975 637.632 C 333.443 607.290 329.422 587.301 298.925 550.173 C 286.770 535.376 250.970 528.336 250.965 528.334 C 250.975 528.331 300.035 520.730 343.919 496.692 C 369.903 502.864 383.605 506.363 397.659 500.222 M 401.629 490.020 C 365.987 468.845 360.022 435.873 364.342 410.069 M 91.278 37.345 C 91.279 37.345 93.912 41.039 99.556 42.218 C 108.967 44.184 116.636 44.423 130.191 43.998 M 74.786 37.347 C 74.787 37.348 76.914 41.728 79.006 43.980 C 84.338 49.722 100.487 53.092 100.489 53.093 M 82.770 37.346 C 82.770 37.347 84.592 41.595 90.788 44.529 C 100.489 49.123 112.606 49.371 112.608 49.371 M 495.514 245.147 C 491.699 246.092 474.721 256.266 456.331 252.226 M 640.885 37.254 C 640.884 37.254 638.746 41.624 636.667 43.888 C 631.874 49.105 617.389 52.457 617.387 52.458 M 632.900 37.255 C 632.900 37.256 631.046 41.435 624.884 44.440 C 615.182 49.172 603.067 49.840 603.065 49.841 "/>
</g>
<g id="specs_2">
<path fill="#ff0000" fill-rule="evenodd" stroke="none" d="M 360.000 88.336 C 360.002 88.330 383.232 23.285 383.235 23.278 C 383.232 23.281 360.002 44.895 360.000 44.897 C 359.998 44.895 336.768 23.281 336.765 23.278 C 336.768 23.285 359.998 88.330 360.000 88.336 Z"/>
<path fill="#0000ff" fill-rule="evenodd" stroke="none" d="M 594.523 15.781 C 594.524 15.785 606.579 49.539 606.581 49.543 C 606.579 49.542 594.524 38.326 594.523 38.325 C 594.522 38.326 582.467 49.542 582.466 49.543 C 582.467 49.539 594.522 15.785 594.523 15.781 Z"/>
<path fill="#00ff00" fill-rule="evenodd" stroke="none" d="M 247.435 346.519 C 247.438 346.518 281.367 334.206 281.370 334.205 C 281.369 334.206 270.137 346.403 270.135 346.404 C 270.137 346.405 281.492 358.487 281.493 358.488 C 281.490 358.487 247.438 346.520 247.435 346.519 Z"/>
<path fill="#ffff00" fill-rule="evenodd" stroke="none" d="M 232.871 707.465 C 232.874 707.459 262.040 643.956 262.043 643.950 C 262.043 643.953 263.578 676.020 263.578 676.023 C 263.582 676.023 295.674 676.801 295.678 676.801 C 295.671 676.804 232.877 707.462 232.871 707.465 Z"/>
<path fill="#ffff00" fill-rule="evenodd" stroke="none" d="M 676.996 706.687 C 676.993 706.681 646.559 643.776 646.556 643.769 C 646.555 643.773 645.664 675.864 645.664 675.867 C 645.661 675.867 613.588 677.289 613.585 677.289 C 613.591 677.292 676.989 706.684 676.996 706.687 Z"/>
<path fill="#ff00ff" fill-rule="evenodd" stroke="none" d="M 213.117 196.960 C 213.127 196.960 309.919 196.960 309.928 196.960 C 309.928 196.950 309.928 103.256 309.928 103.247 C 309.919 103.247 213.127 103.247 213.117 103.247 C 213.117 103.256 213.117 196.950 213.117 196.960 Z"/>
<path fill="#0000ff" fill-rule="evenodd" stroke="none" d="M 125.477 15.781 C 125.478 15.784 137.533 49.539 137.534 49.542 C 137.533 49.541 125.478 38.325 125.477 38.324 C 125.476 38.325 113.421 49.541 113.420 49.542 C 113.421 49.539 125.476 15.784 125.477 15.781 Z"/>
<path fill="#00ff00" fill-rule="evenodd" stroke="none" d="M 608.896 346.519 C 608.892 346.518 574.964 334.206 574.960 334.205 C 574.961 334.206 586.194 346.403 586.195 346.405 C 586.194 346.406 574.839 358.487 574.838 358.488 C 574.841 358.487 608.892 346.520 608.896 346.519 Z"/>
</g>
</g>
</svg>
