<?xml version="1.0" encoding="utf-8"?>
<!-- Generator: Moho 12.5 build 22414 -->
<!DOCTYPE svg PUBLIC "-//W3C//DTD SVG 1.1//EN" "http://www.w3.org/Graphics/SVG/1.1/DTD/svg11.dtd">
<svg version="1.1" id="Frame_0" xmlns="http://www.w3.org/2000/svg" xmlns:xlink="http://www.w3.org/1999/xlink" width="720px" height="720px">
<g id="atom_2">
<g id="atom">
<path fill="#ffffff" fill-rule="evenodd" stroke="none" d="M 463.630 325.914 C 460.287 328.229 456.901 330.543 453.605 332.762 C 536.066 388.184 567.714 427.131 559.599 441.186 C 551.433 455.331 501.303 447.207 412.526 403.496 C 408.908 401.714 405.236 399.880 401.579 398.026 C 392.153 393.249 382.395 388.134 372.144 382.561 C 368.064 384.841 363.959 387.104 359.866 389.330 C 374.456 397.302 388.192 404.370 400.811 410.506 C 404.573 412.336 408.105 414.021 411.545 415.633 C 510.610 462.040 566.806 465.861 575.689 450.476 C 584.606 435.030 552.917 387.966 463.630 325.914 Z"/>
<path fill="none" stroke="#ffffff" stroke-width="1" stroke-linecap="butt" stroke-linejoin="round" d="M 411.545 415.633 C 408.105 414.021 404.573 412.336 400.811 410.506 "/>
<path fill="#ffffff" fill-rule="evenodd" stroke="none" d="M 411.545 415.633 C 408.105 414.021 404.573 412.336 400.811 410.506 C 394.422 508.447 376.269 556.521 359.834 556.521 C 343.502 556.521 325.473 509.045 318.854 410.504 C 318.601 406.448 318.365 402.324 318.104 398.016 C 317.575 387.500 317.150 376.511 316.859 364.851 C 312.999 362.548 309.114 360.203 305.002 357.694 C 305.238 374.240 305.938 389.667 306.810 403.659 C 307.177 408.041 307.460 411.977 307.757 415.804 C 317.279 524.522 342.068 575.100 359.834 575.100 C 377.502 575.100 402.117 525.074 411.545 415.633 Z"/>
<path fill="none" stroke="#ffffff" stroke-width="1" stroke-linecap="butt" stroke-linejoin="round" d="M 306.810 403.659 C 307.177 408.041 307.460 411.977 307.757 415.804 "/>
<path fill="#ffffff" fill-rule="evenodd" stroke="none" d="M 307.757 415.804 C 209.058 462.040 152.861 465.861 143.979 450.476 C 135.003 434.929 167.167 387.348 256.037 325.790 C 259.380 323.475 262.766 321.161 266.062 318.942 C 278.388 310.641 291.210 302.419 304.998 294.011 C 304.761 298.681 304.660 303.365 304.585 308.125 C 294.485 314.338 284.949 320.388 276.594 325.847 C 272.804 328.323 269.351 330.612 266.125 332.785 C 183.341 388.504 151.987 427.189 160.069 441.186 C 168.235 455.331 218.365 447.207 306.810 403.659 C 307.177 408.041 307.460 411.977 307.757 415.804 Z"/>
<path fill="none" stroke="#ffffff" stroke-width="1" stroke-linecap="butt" stroke-linejoin="round" d="M 266.062 318.942 C 262.766 321.161 259.380 323.475 256.037 325.790 "/>
<path fill="#ffffff" fill-rule="evenodd" stroke="none" d="M 256.037 325.790 C 166.750 263.738 135.061 216.674 143.979 201.228 C 152.861 185.843 209.058 189.663 308.122 236.071 C 311.562 237.682 315.094 239.368 318.856 241.198 C 331.475 247.334 345.211 254.402 359.801 262.374 C 355.709 264.600 351.604 266.863 347.524 269.143 C 337.273 263.570 327.514 258.455 318.089 253.677 C 314.432 251.824 310.760 249.989 307.141 248.208 C 218.365 204.496 168.235 196.373 160.069 210.518 C 151.954 224.573 183.601 263.520 266.062 318.942 C 262.766 321.161 259.380 323.475 256.037 325.790 Z"/>
<path fill="none" stroke="#ffffff" stroke-width="1" stroke-linecap="butt" stroke-linejoin="round" d="M 318.856 241.198 C 315.094 239.368 311.562 237.682 308.122 236.071 "/>
<path fill="#ffffff" fill-rule="evenodd" stroke="none" d="M 308.122 236.071 C 317.550 126.629 342.166 76.604 359.834 76.604 C 377.599 76.604 402.388 127.182 411.910 235.899 C 412.208 239.726 412.491 243.663 412.858 248.045 C 413.729 262.037 414.429 277.464 414.666 294.009 C 410.553 291.501 406.668 289.156 402.809 286.852 C 402.517 275.193 402.092 264.203 401.563 253.688 C 401.302 249.380 401.066 245.256 400.814 241.200 C 394.196 142.658 376.166 95.183 359.834 95.183 C 343.399 95.183 325.246 143.256 318.856 241.198 C 315.094 239.368 311.562 237.682 308.122 236.071 Z"/>
<path fill="none" stroke="#ffffff" stroke-width="1" stroke-linecap="butt" stroke-linejoin="round" d="M 411.910 235.899 C 412.208 239.726 412.491 243.663 412.858 248.045 "/>
<path fill="none" stroke="#ffffff" stroke-width="1" stroke-linecap="butt" stroke-linejoin="round" d="M 453.605 332.762 C 456.901 330.543 460.287 328.229 463.630 325.914 "/>
<path fill="#ffffff" fill-rule="evenodd" stroke="none" d="M 411.910 235.899 C 412.208 239.726 412.491 243.663 412.858 248.045 C 501.303 204.497 551.433 196.373 559.599 210.518 C 567.680 224.515 536.326 263.199 453.542 318.919 C 450.316 321.091 446.863 323.381 443.074 325.856 C 434.718 331.316 425.183 337.366 415.082 343.578 C 415.007 348.339 414.906 353.022 414.669 357.692 C 428.458 349.284 441.280 341.062 453.605 332.762 C 456.901 330.543 460.287 328.229 463.630 325.914 C 552.500 264.356 584.664 216.775 575.689 201.228 C 566.806 185.843 510.609 189.663 411.910 235.899 Z"/>
<path fill="none" stroke="#ffffff" stroke-width="1" stroke-linecap="butt" stroke-linejoin="round" d="M 304.585 308.125 C 304.660 303.365 304.761 298.681 304.998 294.011 "/>
<path fill="none" stroke="#ffffff" stroke-width="1" stroke-linecap="butt" stroke-linejoin="round" d="M 307.141 248.208 C 310.760 249.989 314.432 251.824 318.089 253.677 "/>
<path fill="#ffffff" fill-rule="evenodd" stroke="none" d="M 316.534 350.831 C 312.274 348.276 308.305 345.866 304.588 343.580 C 304.487 337.833 304.445 331.900 304.445 325.852 C 304.445 319.043 304.498 312.380 304.585 308.125 C 304.660 303.365 304.761 298.681 304.998 294.011 C 305.434 277.635 306.187 262.230 307.141 248.208 C 310.760 249.989 314.432 251.824 318.089 253.677 C 317.538 264.236 317.112 275.287 316.831 286.869 C 316.740 292.577 316.661 296.673 316.599 300.834 C 316.409 310.409 316.351 318.027 316.351 325.852 C 316.351 334.464 316.421 342.828 316.534 350.831 Z"/>
<path fill="none" stroke="#ffffff" stroke-width="1" stroke-linecap="butt" stroke-linejoin="round" d="M 316.859 364.851 C 312.999 362.548 309.114 360.203 305.002 357.694 "/>
<path fill="none" stroke="#ffffff" stroke-width="1" stroke-linecap="butt" stroke-linejoin="round" d="M 266.125 332.785 C 269.351 330.612 272.804 328.323 276.594 325.847 "/>
<path fill="none" stroke="#ffffff" stroke-width="1" stroke-linecap="butt" stroke-linejoin="round" d="M 304.588 343.580 C 308.305 345.866 312.274 348.276 316.534 350.831 "/>
<path fill="#ffffff" fill-rule="evenodd" stroke="none" d="M 359.849 375.818 C 355.636 378.157 351.568 380.389 347.583 382.548 C 342.536 379.774 337.377 376.844 332.139 373.820 C 327.009 370.858 321.995 367.917 316.859 364.851 C 312.999 362.548 309.114 360.203 305.002 357.694 C 291.112 349.225 278.203 340.944 266.125 332.785 C 269.351 330.612 272.804 328.323 276.594 325.847 C 285.161 331.450 294.598 337.436 304.588 343.580 C 308.305 345.866 312.274 348.276 316.534 350.831 C 323.226 354.843 330.530 359.143 338.092 363.509 C 345.551 367.815 352.829 371.936 359.849 375.818 Z"/>
<path fill="none" stroke="#ffffff" stroke-width="1" stroke-linecap="butt" stroke-linejoin="round" d="M 372.144 382.561 C 368.064 384.841 363.959 387.104 359.866 389.330 "/>
<path fill="none" stroke="#ffffff" stroke-width="1" stroke-linecap="butt" stroke-linejoin="round" d="M 318.854 410.504 C 318.601 406.448 318.365 402.324 318.104 398.016 "/>
<path fill="none" stroke="#ffffff" stroke-width="1" stroke-linecap="butt" stroke-linejoin="round" d="M 347.583 382.548 C 351.568 380.389 355.636 378.157 359.849 375.818 "/>
<path fill="#ffffff" fill-rule="evenodd" stroke="none" d="M 403.068 350.869 C 403.007 355.030 402.927 359.127 402.837 364.835 C 397.672 367.917 392.658 370.858 387.528 373.820 C 382.352 376.808 377.253 379.705 372.144 382.561 C 368.064 384.841 363.959 387.104 359.866 389.330 C 345.582 397.100 331.814 404.189 318.854 410.504 C 318.601 406.448 318.365 402.324 318.104 398.016 C 327.522 393.243 337.277 388.131 347.583 382.548 C 351.568 380.389 355.636 378.157 359.849 375.818 C 366.839 371.936 374.116 367.815 381.575 363.509 C 389.137 359.143 396.442 354.843 403.068 350.869 Z"/>
<path fill="none" stroke="#ffffff" stroke-width="1" stroke-linecap="butt" stroke-linejoin="round" d="M 415.082 343.578 C 415.007 348.339 414.906 353.022 414.669 357.692 "/>
<path fill="none" stroke="#ffffff" stroke-width="1" stroke-linecap="butt" stroke-linejoin="round" d="M 412.526 403.496 C 408.908 401.714 405.236 399.880 401.579 398.026 "/>
<path fill="none" stroke="#ffffff" stroke-width="1" stroke-linecap="butt" stroke-linejoin="round" d="M 402.837 364.835 C 402.927 359.127 403.007 355.030 403.068 350.869 "/>
<path fill="#ffffff" fill-rule="evenodd" stroke="none" d="M 403.133 300.873 C 407.394 303.428 411.362 305.838 415.079 308.124 C 415.180 313.871 415.222 319.804 415.222 325.852 C 415.222 332.661 415.169 339.324 415.082 343.578 C 415.007 348.339 414.906 353.022 414.669 357.692 C 414.234 374.069 413.481 389.473 412.526 403.496 C 408.908 401.714 405.236 399.880 401.579 398.026 C 402.129 387.467 402.555 376.417 402.837 364.835 C 402.927 359.127 403.007 355.030 403.068 350.869 C 403.259 341.295 403.316 333.676 403.316 325.852 C 403.316 317.239 403.246 308.876 403.133 300.873 Z"/>
<path fill="none" stroke="#ffffff" stroke-width="1" stroke-linecap="butt" stroke-linejoin="round" d="M 443.074 325.856 C 446.863 323.381 450.316 321.091 453.542 318.919 "/>
<path fill="none" stroke="#ffffff" stroke-width="1" stroke-linecap="butt" stroke-linejoin="round" d="M 414.666 294.009 C 410.553 291.501 406.668 289.156 402.809 286.852 "/>
<path fill="none" stroke="#ffffff" stroke-width="1" stroke-linecap="butt" stroke-linejoin="round" d="M 403.133 300.873 C 407.394 303.428 411.362 305.838 415.079 308.124 "/>
<path fill="#ffffff" fill-rule="evenodd" stroke="none" d="M 415.079 308.124 C 425.069 314.268 434.506 320.254 443.074 325.856 C 446.863 323.381 450.316 321.091 453.542 318.919 C 441.465 310.760 428.556 302.479 414.666 294.009 C 410.553 291.501 406.668 289.156 402.809 286.852 C 397.672 283.787 392.658 280.846 387.528 277.884 C 382.290 274.860 377.131 271.930 372.084 269.156 C 368.100 271.315 364.031 273.547 359.819 275.886 C 366.839 279.767 374.116 283.889 381.575 288.195 C 389.137 292.561 396.442 296.861 403.133 300.873 C 407.394 303.428 411.362 305.838 415.079 308.124 Z"/>
<path fill="none" stroke="#ffffff" stroke-width="1" stroke-linecap="butt" stroke-linejoin="round" d="M 316.599 300.834 C 316.661 296.673 316.740 292.577 316.831 286.869 "/>
<path fill="none" stroke="#ffffff" stroke-width="1" stroke-linecap="butt" stroke-linejoin="round" d="M 347.524 269.143 C 351.604 266.863 355.709 264.600 359.801 262.374 "/>
<path fill="none" stroke="#ffffff" stroke-width="1" stroke-linecap="butt" stroke-linejoin="round" d="M 400.814 241.200 C 401.066 245.256 401.302 249.380 401.563 253.688 "/>
<path fill="none" stroke="#ffffff" stroke-width="1" stroke-linecap="butt" stroke-linejoin="round" d="M 372.084 269.156 C 368.100 271.315 364.031 273.547 359.819 275.886 "/>
<path fill="#ffffff" fill-rule="evenodd" stroke="none" d="M 316.599 300.834 C 316.661 296.673 316.740 292.577 316.831 286.869 C 321.995 283.787 327.009 280.846 332.139 277.884 C 337.315 274.896 342.415 271.999 347.524 269.143 C 351.604 266.863 355.709 264.600 359.801 262.374 C 374.085 254.604 387.853 247.515 400.814 241.200 C 401.066 245.256 401.302 249.380 401.563 253.688 C 392.145 258.460 382.390 263.573 372.084 269.156 C 368.100 271.315 364.031 273.547 359.819 275.886 C 352.829 279.767 345.551 283.889 338.092 288.195 C 330.530 292.561 323.226 296.861 316.599 300.834 Z"/>
</g>
<g id="Layer_3">
<path fill="#ffffff" fill-rule="evenodd" stroke="none" d="M 360.000 347.962 C 372.221 347.962 382.079 338.103 382.079 325.883 C 382.079 313.662 372.221 303.804 360.000 303.804 C 347.779 303.804 337.921 313.662 337.921 325.883 C 337.921 338.103 347.779 347.962 360.000 347.962 Z"/>
<path fill="#ffffff" fill-rule="evenodd" stroke="none" d="M 493.632 225.205 C 501.809 225.205 508.404 218.609 508.404 210.433 C 508.404 202.257 501.809 195.661 493.632 195.661 C 485.456 195.661 478.860 202.257 478.860 210.433 C 478.860 218.609 485.456 225.205 493.632 225.205 Z"/>
<path fill="#ffffff" fill-rule="evenodd" stroke="none" d="M 225.184 312.880 C 233.361 312.880 239.957 306.284 239.957 298.108 C 239.957 289.932 233.361 283.336 225.184 283.336 C 217.008 283.336 210.412 289.932 210.412 298.108 C 210.412 306.284 217.008 312.880 225.184 312.880 Z"/>
<path fill="#ffffff" fill-rule="evenodd" stroke="none" d="M 335.456 550.597 C 343.632 550.597 350.228 544.001 350.228 535.825 C 350.228 527.648 343.632 521.053 335.456 521.053 C 327.280 521.053 320.684 527.648 320.684 535.825 C 320.684 544.001 327.280 550.597 335.456 550.597 Z"/>
</g>
<g id="specs_2">
<path fill="#ff00ff" fill-rule="evenodd" stroke="none" d="M 271.166 414.717 C 271.184 414.717 448.816 414.717 448.834 414.717 C 448.834 414.699 448.834 237.067 448.834 237.049 C 448.816 237.049 271.184 237.049 271.166 237.049 C 271.166 237.067 271.166 414.699 271.166 414.717 Z"/>
<path fill="#ff0000" fill-rule="evenodd" stroke="none" d="M 360.000 666.485 C 360.001 666.488 371.132 697.656 371.133 697.659 C 371.132 697.658 360.001 687.301 360.000 687.300 C 359.999 687.301 348.868 697.658 348.867 697.659 C 348.868 697.656 359.999 666.488 360.000 666.485 Z"/>
<path fill="#0000ff" fill-rule="evenodd" stroke="none" d="M 360.000 19.430 C 360.001 19.432 366.466 37.537 366.467 37.539 C 366.466 37.538 360.001 31.522 360.000 31.522 C 359.999 31.522 353.534 37.538 353.533 37.539 C 353.534 37.537 359.999 19.432 360.000 19.430 Z"/>
<path fill="#00ff00" fill-rule="evenodd" stroke="none" d="M 54.108 326.781 C 54.110 326.781 72.181 320.223 72.183 320.222 C 72.183 320.223 66.199 326.720 66.199 326.720 C 66.199 326.721 72.248 333.156 72.248 333.157 C 72.247 333.156 54.110 326.782 54.108 326.781 Z"/>
<path fill="#ffff00" fill-rule="evenodd" stroke="none" d="M 143.032 543.927 C 143.032 543.925 151.056 526.455 151.057 526.454 C 151.057 526.454 151.479 535.276 151.479 535.277 C 151.480 535.277 160.309 535.491 160.310 535.491 C 160.308 535.492 143.033 543.926 143.032 543.927 Z"/>
<path fill="#ffff00" fill-rule="evenodd" stroke="none" d="M 576.968 543.713 C 576.967 543.711 568.595 526.406 568.594 526.404 C 568.594 526.405 568.349 535.233 568.349 535.234 C 568.348 535.234 559.525 535.625 559.524 535.625 C 559.525 535.626 576.967 543.712 576.968 543.713 Z"/>
<path fill="#00ff00" fill-rule="evenodd" stroke="none" d="M 665.892 326.781 C 665.890 326.781 647.819 320.223 647.817 320.222 C 647.817 320.223 653.801 326.720 653.801 326.720 C 653.801 326.721 647.752 333.156 647.752 333.157 C 647.753 333.156 665.890 326.782 665.892 326.781 Z"/>
<path fill="#00ffff" fill-rule="evenodd" stroke="none" d="M 576.130 108.926 C 576.129 108.928 569.711 127.050 569.711 127.052 C 569.711 127.051 568.495 118.303 568.495 118.302 C 568.494 118.302 559.682 118.884 559.681 118.884 C 559.683 118.883 576.128 108.927 576.130 108.926 Z"/>
<path fill="#00ffff" fill-rule="evenodd" stroke="none" d="M 143.970 109.527 C 143.971 109.529 151.583 127.182 151.584 127.184 C 151.584 127.183 152.213 118.374 152.213 118.373 C 152.214 118.373 161.045 118.366 161.046 118.366 C 161.045 118.365 143.972 109.528 143.970 109.527 Z"/>
<path fill="#be0027" fill-rule="evenodd" stroke="none" d="M 360.000 648.985 C 360.001 648.982 371.132 617.814 371.133 617.811 C 371.132 617.812 360.001 628.169 360.000 628.170 C 359.999 628.169 348.868 617.812 348.867 617.811 C 348.868 617.814 359.999 648.982 360.000 648.985 Z"/>
</g>
</g>
</svg>
