<?xml version="1.0" encoding="utf-8"?>
<!-- Generator: Moho 12.5 build 22414 -->
<!DOCTYPE svg PUBLIC "-//W3C//DTD SVG 1.1//EN" "http://www.w3.org/Graphics/SVG/1.1/DTD/svg11.dtd">
<svg version="1.1" id="Frame_0" xmlns="http://www.w3.org/2000/svg" xmlns:xlink="http://www.w3.org/1999/xlink" width="720px" height="720px">
<g id="atom">
<g id="atom">
<radialGradient id="E15DC4AA-BC15-4DDA-B193-F0754266FBE3_0" cx="50.00%" cy="50.00%" r="50.00%">
<stop offset="0.00%" style="stop-color:rgb(255,255,255);stop-opacity:1.00" />
<stop offset="66.67%" style="stop-color:rgb(255,255,255);stop-opacity:1.00" />
<stop offset="100.00%" style="stop-color:rgb(255,255,255);stop-opacity:0.00" />
</radialGradient>
<path fill="url(#E15DC4AA-BC15-4DDA-B193-F0754266FBE3_0)" fill-rule="evenodd" stroke="none" d="M 358.527 612.480 C 517.308 612.480 645.398 484.390 645.398 325.609 C 645.398 166.828 517.308 38.738 358.527 38.738 C 199.745 38.738 71.656 166.828 71.656 325.609 C 71.656 484.390 199.745 612.480 358.527 612.480 Z"/>
<path fill="#ffffff" fill-rule="evenodd" stroke="#000000" stroke-width="4" stroke-linejoin="round" d="M 463.630 325.914 C 460.287 328.230 456.901 330.543 453.605 332.762 C 536.066 388.184 567.714 427.131 559.599 441.187 C 551.433 455.331 501.303 447.207 412.526 403.496 C 408.908 401.715 405.236 399.880 401.579 398.027 C 392.153 393.249 382.395 388.134 372.144 382.561 C 368.064 384.841 363.959 387.104 359.866 389.330 C 374.456 397.302 388.192 404.370 400.811 410.506 C 404.573 412.336 408.105 414.022 411.545 415.633 C 510.609 462.041 566.806 465.861 575.689 450.476 C 584.606 435.031 552.917 387.966 463.630 325.914 Z"/>
<path fill="none" stroke="#ffffff" stroke-width="1" stroke-linecap="butt" stroke-linejoin="round" d="M 411.545 415.633 C 408.105 414.022 404.573 412.336 400.811 410.506 "/>
<path fill="#ffffff" fill-rule="evenodd" stroke="#000000" stroke-width="4" stroke-linejoin="round" d="M 411.545 415.633 C 408.105 414.022 404.573 412.336 400.811 410.506 C 394.422 508.448 376.268 556.521 359.834 556.521 C 343.501 556.521 325.472 509.046 318.854 410.504 C 318.601 406.448 318.365 402.324 318.104 398.016 C 317.575 387.501 317.150 376.511 316.858 364.852 C 312.999 362.548 309.114 360.203 305.002 357.695 C 305.238 374.240 305.938 389.667 306.810 403.659 C 307.177 408.041 307.460 411.978 307.757 415.805 C 317.279 524.522 342.068 575.100 359.834 575.100 C 377.502 575.100 402.117 525.075 411.545 415.633 Z"/>
<path fill="none" stroke="#ffffff" stroke-width="1" stroke-linecap="butt" stroke-linejoin="round" d="M 306.810 403.659 C 307.177 408.041 307.460 411.978 307.757 415.805 "/>
<path fill="#ffffff" fill-rule="evenodd" stroke="#000000" stroke-width="4" stroke-linejoin="round" d="M 307.757 415.805 C 209.058 462.041 152.861 465.861 143.979 450.476 C 135.003 434.929 167.167 387.348 256.037 325.790 C 259.380 323.475 262.766 321.161 266.062 318.942 C 278.388 310.642 291.210 302.420 304.998 294.012 C 304.761 298.682 304.660 303.365 304.585 308.126 C 294.485 314.338 284.949 320.388 276.594 325.848 C 272.805 328.323 269.351 330.613 266.125 332.785 C 183.341 388.505 151.987 427.189 160.068 441.187 C 168.235 455.331 218.364 447.207 306.810 403.659 C 307.177 408.041 307.460 411.978 307.757 415.805 Z"/>
<path fill="none" stroke="#ffffff" stroke-width="1" stroke-linecap="butt" stroke-linejoin="round" d="M 266.062 318.942 C 262.766 321.161 259.380 323.475 256.037 325.790 "/>
<path fill="#ffffff" fill-rule="evenodd" stroke="#000000" stroke-width="4" stroke-linejoin="round" d="M 256.037 325.790 C 166.750 263.738 135.061 216.674 143.979 201.228 C 152.861 185.843 209.058 189.664 308.122 236.071 C 311.563 237.683 315.094 239.368 318.856 241.198 C 331.475 247.334 345.211 254.402 359.801 262.374 C 355.709 264.600 351.604 266.863 347.524 269.143 C 337.273 263.570 327.514 258.455 318.089 253.678 C 314.432 251.824 310.760 249.990 307.141 248.208 C 218.364 204.497 168.235 196.373 160.068 210.518 C 151.954 224.573 183.601 263.520 266.062 318.942 C 262.766 321.161 259.380 323.475 256.037 325.790 Z"/>
<path fill="none" stroke="#ffffff" stroke-width="1" stroke-linecap="butt" stroke-linejoin="round" d="M 318.856 241.198 C 315.094 239.368 311.563 237.683 308.122 236.071 "/>
<path fill="#ffffff" fill-rule="evenodd" stroke="#000000" stroke-width="4" stroke-linejoin="round" d="M 308.122 236.071 C 317.550 126.630 342.166 76.604 359.834 76.604 C 377.599 76.604 402.389 127.182 411.910 235.900 C 412.208 239.726 412.491 243.663 412.858 248.045 C 413.729 262.037 414.429 277.464 414.666 294.010 C 410.553 291.501 406.668 289.156 402.809 286.853 C 402.517 275.193 402.092 264.203 401.564 253.688 C 401.302 249.380 401.066 245.256 400.814 241.200 C 394.195 142.658 376.166 95.183 359.834 95.183 C 343.399 95.183 325.245 143.257 318.856 241.198 C 315.094 239.368 311.563 237.683 308.122 236.071 Z"/>
<path fill="none" stroke="#ffffff" stroke-width="1" stroke-linecap="butt" stroke-linejoin="round" d="M 411.910 235.900 C 412.208 239.726 412.491 243.663 412.858 248.045 "/>
<path fill="none" stroke="#ffffff" stroke-width="1" stroke-linecap="butt" stroke-linejoin="round" d="M 453.605 332.762 C 456.901 330.543 460.287 328.230 463.630 325.914 "/>
<path fill="#ffffff" fill-rule="evenodd" stroke="#000000" stroke-width="4" stroke-linejoin="round" d="M 411.910 235.900 C 412.208 239.726 412.491 243.663 412.858 248.045 C 501.303 204.497 551.433 196.373 559.599 210.518 C 567.680 224.515 536.327 263.200 453.542 318.919 C 450.316 321.091 446.863 323.381 443.074 325.857 C 434.719 331.316 425.183 337.366 415.082 343.578 C 415.007 348.339 414.906 353.022 414.669 357.692 C 428.458 349.284 441.280 341.063 453.605 332.762 C 456.901 330.543 460.287 328.230 463.630 325.914 C 552.500 264.356 584.665 216.775 575.689 201.228 C 566.806 185.843 510.609 189.664 411.910 235.900 Z"/>
<path fill="none" stroke="#ffffff" stroke-width="1" stroke-linecap="butt" stroke-linejoin="round" d="M 304.585 308.126 C 304.660 303.365 304.761 298.682 304.998 294.012 "/>
<path fill="none" stroke="#ffffff" stroke-width="1" stroke-linecap="butt" stroke-linejoin="round" d="M 307.141 248.208 C 310.760 249.990 314.432 251.824 318.089 253.678 "/>
<path fill="#ffffff" fill-rule="evenodd" stroke="#000000" stroke-width="4" stroke-linejoin="round" d="M 316.534 350.831 C 312.274 348.276 308.305 345.867 304.588 343.580 C 304.487 337.833 304.445 331.900 304.445 325.852 C 304.445 319.043 304.498 312.380 304.585 308.126 C 304.660 303.365 304.761 298.682 304.998 294.012 C 305.434 277.635 306.187 262.230 307.141 248.208 C 310.760 249.990 314.432 251.824 318.089 253.678 C 317.539 264.236 317.112 275.287 316.831 286.869 C 316.740 292.577 316.661 296.673 316.599 300.835 C 316.409 310.409 316.351 318.028 316.351 325.852 C 316.351 334.465 316.421 342.828 316.534 350.831 Z"/>
<path fill="none" stroke="#ffffff" stroke-width="1" stroke-linecap="butt" stroke-linejoin="round" d="M 316.858 364.852 C 312.999 362.548 309.114 360.203 305.002 357.695 "/>
<path fill="none" stroke="#ffffff" stroke-width="1" stroke-linecap="butt" stroke-linejoin="round" d="M 266.125 332.785 C 269.351 330.613 272.805 328.323 276.594 325.848 "/>
<path fill="none" stroke="#ffffff" stroke-width="1" stroke-linecap="butt" stroke-linejoin="round" d="M 304.588 343.580 C 308.305 345.867 312.274 348.276 316.534 350.831 "/>
<path fill="#ffffff" fill-rule="evenodd" stroke="#000000" stroke-width="4" stroke-linejoin="round" d="M 359.849 375.818 C 355.637 378.157 351.568 380.389 347.583 382.548 C 342.536 379.774 337.377 376.844 332.139 373.820 C 327.009 370.858 321.995 367.917 316.858 364.852 C 312.999 362.548 309.114 360.203 305.002 357.695 C 291.112 349.225 278.203 340.944 266.125 332.785 C 269.351 330.613 272.805 328.323 276.594 325.848 C 285.161 331.450 294.599 337.436 304.588 343.580 C 308.305 345.867 312.274 348.276 316.534 350.831 C 323.226 354.843 330.530 359.143 338.092 363.509 C 345.551 367.815 352.829 371.937 359.849 375.818 Z"/>
<path fill="none" stroke="#ffffff" stroke-width="1" stroke-linecap="butt" stroke-linejoin="round" d="M 372.144 382.561 C 368.064 384.841 363.959 387.104 359.866 389.330 "/>
<path fill="none" stroke="#ffffff" stroke-width="1" stroke-linecap="butt" stroke-linejoin="round" d="M 318.854 410.504 C 318.601 406.448 318.365 402.324 318.104 398.016 "/>
<path fill="none" stroke="#ffffff" stroke-width="1" stroke-linecap="butt" stroke-linejoin="round" d="M 347.583 382.548 C 351.568 380.389 355.637 378.157 359.849 375.818 "/>
<path fill="#ffffff" fill-rule="evenodd" stroke="#000000" stroke-width="4" stroke-linejoin="round" d="M 403.068 350.870 C 403.007 355.031 402.927 359.127 402.837 364.835 C 397.672 367.917 392.658 370.858 387.528 373.820 C 382.352 376.808 377.253 379.705 372.144 382.561 C 368.064 384.841 363.959 387.104 359.866 389.330 C 345.582 397.100 331.814 404.189 318.854 410.504 C 318.601 406.448 318.365 402.324 318.104 398.016 C 327.522 393.244 337.277 388.131 347.583 382.548 C 351.568 380.389 355.637 378.157 359.849 375.818 C 366.839 371.937 374.116 367.815 381.575 363.509 C 389.137 359.143 396.442 354.843 403.068 350.870 Z"/>
<path fill="none" stroke="#ffffff" stroke-width="1" stroke-linecap="butt" stroke-linejoin="round" d="M 415.082 343.578 C 415.007 348.339 414.906 353.022 414.669 357.692 "/>
<path fill="none" stroke="#ffffff" stroke-width="1" stroke-linecap="butt" stroke-linejoin="round" d="M 412.526 403.496 C 408.908 401.715 405.236 399.880 401.579 398.027 "/>
<path fill="none" stroke="#ffffff" stroke-width="1" stroke-linecap="butt" stroke-linejoin="round" d="M 402.837 364.835 C 402.927 359.127 403.007 355.031 403.068 350.870 "/>
<path fill="#ffffff" fill-rule="evenodd" stroke="#000000" stroke-width="4" stroke-linejoin="round" d="M 403.133 300.873 C 407.394 303.428 411.362 305.838 415.079 308.124 C 415.181 313.871 415.222 319.804 415.222 325.852 C 415.222 332.661 415.169 339.324 415.082 343.578 C 415.007 348.339 414.906 353.022 414.669 357.692 C 414.234 374.069 413.481 389.474 412.526 403.496 C 408.908 401.715 405.236 399.880 401.579 398.027 C 402.129 387.468 402.556 376.417 402.837 364.835 C 402.927 359.127 403.007 355.031 403.068 350.870 C 403.259 341.295 403.316 333.676 403.316 325.852 C 403.316 317.239 403.246 308.876 403.133 300.873 Z"/>
<path fill="none" stroke="#ffffff" stroke-width="1" stroke-linecap="butt" stroke-linejoin="round" d="M 443.074 325.857 C 446.863 323.381 450.316 321.091 453.542 318.919 "/>
<path fill="none" stroke="#ffffff" stroke-width="1" stroke-linecap="butt" stroke-linejoin="round" d="M 414.666 294.010 C 410.553 291.501 406.668 289.156 402.809 286.853 "/>
<path fill="none" stroke="#ffffff" stroke-width="1" stroke-linecap="butt" stroke-linejoin="round" d="M 403.133 300.873 C 407.394 303.428 411.362 305.838 415.079 308.124 "/>
<path fill="#ffffff" fill-rule="evenodd" stroke="#000000" stroke-width="4" stroke-linejoin="round" d="M 415.079 308.124 C 425.069 314.268 434.506 320.254 443.074 325.857 C 446.863 323.381 450.316 321.091 453.542 318.919 C 441.465 310.760 428.556 302.479 414.666 294.010 C 410.553 291.501 406.668 289.156 402.809 286.853 C 397.672 283.787 392.658 280.846 387.528 277.884 C 382.290 274.860 377.132 271.930 372.084 269.156 C 368.100 271.315 364.031 273.547 359.819 275.886 C 366.838 279.768 374.116 283.889 381.575 288.195 C 389.137 292.561 396.442 296.861 403.133 300.873 C 407.394 303.428 411.362 305.838 415.079 308.124 Z"/>
<path fill="none" stroke="#ffffff" stroke-width="1" stroke-linecap="butt" stroke-linejoin="round" d="M 316.599 300.835 C 316.661 296.673 316.740 292.577 316.831 286.869 "/>
<path fill="none" stroke="#ffffff" stroke-width="1" stroke-linecap="butt" stroke-linejoin="round" d="M 347.524 269.143 C 351.604 266.863 355.709 264.600 359.801 262.374 "/>
<path fill="none" stroke="#ffffff" stroke-width="1" stroke-linecap="butt" stroke-linejoin="round" d="M 400.814 241.200 C 401.066 245.256 401.302 249.380 401.564 253.688 "/>
<path fill="none" stroke="#ffffff" stroke-width="1" stroke-linecap="butt" stroke-linejoin="round" d="M 372.084 269.156 C 368.100 271.315 364.031 273.547 359.819 275.886 "/>
<path fill="#ffffff" fill-rule="evenodd" stroke="#000000" stroke-width="4" stroke-linejoin="round" d="M 316.599 300.835 C 316.661 296.673 316.740 292.577 316.831 286.869 C 321.995 283.787 327.009 280.846 332.139 277.884 C 337.315 274.896 342.415 271.999 347.524 269.143 C 351.604 266.863 355.709 264.600 359.801 262.374 C 374.085 254.604 387.853 247.515 400.814 241.200 C 401.066 245.256 401.302 249.380 401.564 253.688 C 392.145 258.460 382.390 263.573 372.084 269.156 C 368.100 271.315 364.031 273.547 359.819 275.886 C 352.829 279.768 345.551 283.889 338.092 288.195 C 330.530 292.561 323.226 296.861 316.599 300.835 Z"/>
</g>
<g id="specs_2">
<path fill="#ff00ff" fill-rule="evenodd" stroke="none" d="M 271.166 414.717 C 271.184 414.717 448.816 414.717 448.834 414.717 C 448.834 414.699 448.834 237.067 448.834 237.049 C 448.816 237.049 271.184 237.049 271.166 237.049 C 271.166 237.067 271.166 414.699 271.166 414.717 Z"/>
<path fill="#ff0000" fill-rule="evenodd" stroke="none" d="M 360.000 650.281 C 360.001 650.284 371.132 681.451 371.133 681.454 C 371.132 681.453 360.001 671.097 360.000 671.096 C 359.999 671.097 348.868 681.453 348.867 681.454 C 348.868 681.451 359.999 650.284 360.000 650.281 Z"/>
<path fill="#0000ff" fill-rule="evenodd" stroke="none" d="M 360.000 19.430 C 360.001 19.432 366.466 37.537 366.467 37.539 C 366.466 37.538 360.001 31.522 360.000 31.522 C 359.999 31.522 353.534 37.538 353.533 37.539 C 353.534 37.537 359.999 19.432 360.000 19.430 Z"/>
<path fill="#00ff00" fill-rule="evenodd" stroke="none" d="M 54.108 326.782 C 54.110 326.781 72.181 320.223 72.183 320.223 C 72.182 320.223 66.199 326.720 66.199 326.721 C 66.199 326.721 72.248 333.156 72.248 333.157 C 72.246 333.156 54.110 326.782 54.108 326.782 Z"/>
<path fill="#ffff00" fill-rule="evenodd" stroke="none" d="M 143.032 543.927 C 143.032 543.925 151.056 526.456 151.057 526.454 C 151.057 526.455 151.479 535.276 151.479 535.277 C 151.480 535.277 160.309 535.491 160.310 535.491 C 160.308 535.492 143.033 543.926 143.032 543.927 Z"/>
<path fill="#ffff00" fill-rule="evenodd" stroke="none" d="M 576.968 543.713 C 576.968 543.711 568.595 526.406 568.594 526.404 C 568.594 526.405 568.349 535.234 568.349 535.234 C 568.348 535.234 559.525 535.626 559.524 535.626 C 559.526 535.626 576.967 543.712 576.968 543.713 Z"/>
<path fill="#00ff00" fill-rule="evenodd" stroke="none" d="M 665.892 326.782 C 665.891 326.781 647.819 320.223 647.817 320.223 C 647.818 320.223 653.801 326.720 653.801 326.721 C 653.801 326.721 647.752 333.156 647.752 333.157 C 647.754 333.156 665.891 326.782 665.892 326.782 Z"/>
<path fill="#00ffff" fill-rule="evenodd" stroke="none" d="M 576.130 108.926 C 576.129 108.928 569.711 127.050 569.711 127.052 C 569.711 127.051 568.495 118.303 568.495 118.302 C 568.494 118.302 559.682 118.884 559.681 118.884 C 559.683 118.883 576.128 108.927 576.130 108.926 Z"/>
<path fill="#00ffff" fill-rule="evenodd" stroke="none" d="M 143.970 109.527 C 143.971 109.529 151.583 127.182 151.584 127.184 C 151.584 127.183 152.213 118.374 152.213 118.373 C 152.214 118.373 161.045 118.366 161.046 118.366 C 161.044 118.365 143.972 109.528 143.970 109.527 Z"/>
<path fill="#be0027" fill-rule="evenodd" stroke="none" d="M 360.000 630.465 C 360.001 630.462 371.132 599.295 371.133 599.292 C 371.132 599.293 360.001 609.650 360.000 609.651 C 359.999 609.650 348.868 599.293 348.867 599.292 C 348.868 599.295 359.999 630.462 360.000 630.465 Z"/>
</g>
</g>
</svg>
