<?xml version="1.0" encoding="utf-8"?>
<!-- Generator: Moho 12.5 build 22414 -->
<!DOCTYPE svg PUBLIC "-//W3C//DTD SVG 1.1//EN" "http://www.w3.org/Graphics/SVG/1.1/DTD/svg11.dtd">
<svg version="1.1" id="Frame_0" xmlns="http://www.w3.org/2000/svg" xmlns:xlink="http://www.w3.org/1999/xlink" width="720px" height="720px">
<g id="atom_2">
<g id="atom">
<path fill="#ffffff" fill-rule="evenodd" stroke="none" d="M 463.630 325.914 C 460.287 328.229 456.901 330.543 453.605 332.762 C 536.066 388.184 567.714 427.131 559.599 441.186 C 551.433 455.331 501.303 447.207 412.526 403.496 C 408.908 401.714 405.236 399.880 401.579 398.026 C 392.153 393.249 382.395 388.134 372.144 382.561 C 368.064 384.841 363.959 387.104 359.866 389.330 C 374.456 397.302 388.192 404.370 400.811 410.506 C 404.573 412.336 408.105 414.021 411.545 415.633 C 510.610 462.040 566.806 465.861 575.689 450.476 C 584.606 435.030 552.917 387.966 463.630 325.914 Z"/>
<path fill="none" stroke="#ffffff" stroke-width="1" stroke-linecap="butt" stroke-linejoin="round" d="M 411.545 415.633 C 408.105 414.021 404.573 412.336 400.811 410.506 "/>
<path fill="#ffffff" fill-rule="evenodd" stroke="none" d="M 411.545 415.633 C 408.105 414.021 404.573 412.336 400.811 410.506 C 394.422 508.447 376.269 556.521 359.834 556.521 C 343.502 556.521 325.473 509.045 318.854 410.504 C 318.601 406.448 318.365 402.324 318.104 398.016 C 317.575 387.500 317.150 376.511 316.859 364.851 C 312.999 362.548 309.114 360.203 305.002 357.694 C 305.238 374.240 305.938 389.667 306.810 403.659 C 307.177 408.041 307.460 411.977 307.757 415.804 C 317.279 524.522 342.068 575.100 359.834 575.100 C 377.502 575.100 402.117 525.074 411.545 415.633 Z"/>
<path fill="none" stroke="#ffffff" stroke-width="1" stroke-linecap="butt" stroke-linejoin="round" d="M 306.810 403.659 C 307.177 408.041 307.460 411.977 307.757 415.804 "/>
<path fill="#ffffff" fill-rule="evenodd" stroke="none" d="M 307.757 415.804 C 209.058 462.040 152.861 465.861 143.979 450.476 C 135.003 434.929 167.167 387.348 256.037 325.790 C 259.380 323.475 262.766 321.161 266.062 318.942 C 278.388 310.641 291.210 302.419 304.998 294.011 C 304.761 298.681 304.660 303.365 304.585 308.125 C 294.485 314.338 284.949 320.388 276.594 325.847 C 272.804 328.323 269.351 330.612 266.125 332.785 C 183.341 388.504 151.987 427.189 160.069 441.186 C 168.235 455.331 218.365 447.207 306.810 403.659 C 307.177 408.041 307.460 411.977 307.757 415.804 Z"/>
<path fill="none" stroke="#ffffff" stroke-width="1" stroke-linecap="butt" stroke-linejoin="round" d="M 266.062 318.942 C 262.766 321.161 259.380 323.475 256.037 325.790 "/>
<path fill="#ffffff" fill-rule="evenodd" stroke="none" d="M 256.037 325.790 C 166.750 263.738 135.061 216.674 143.979 201.228 C 152.861 185.843 209.058 189.663 308.122 236.071 C 311.562 237.682 315.094 239.368 318.856 241.198 C 331.475 247.334 345.211 254.402 359.801 262.374 C 355.709 264.600 351.604 266.863 347.524 269.143 C 337.273 263.570 327.514 258.455 318.089 253.677 C 314.432 251.824 310.760 249.989 307.141 248.208 C 218.365 204.496 168.235 196.373 160.069 210.518 C 151.954 224.573 183.601 263.520 266.062 318.942 C 262.766 321.161 259.380 323.475 256.037 325.790 Z"/>
<path fill="none" stroke="#ffffff" stroke-width="1" stroke-linecap="butt" stroke-linejoin="round" d="M 318.856 241.198 C 315.094 239.368 311.562 237.682 308.122 236.071 "/>
<path fill="#ffffff" fill-rule="evenodd" stroke="none" d="M 308.122 236.071 C 317.550 126.629 342.166 76.604 359.834 76.604 C 377.599 76.604 402.388 127.182 411.910 235.899 C 412.208 239.726 412.491 243.663 412.858 248.045 C 413.729 262.037 414.429 277.464 414.666 294.009 C 410.553 291.501 406.668 289.156 402.809 286.852 C 402.517 275.193 402.092 264.203 401.563 253.688 C 401.302 249.380 401.066 245.256 400.814 241.200 C 394.196 142.658 376.166 95.183 359.834 95.183 C 343.399 95.183 325.246 143.256 318.856 241.198 C 315.094 239.368 311.562 237.682 308.122 236.071 Z"/>
<path fill="none" stroke="#ffffff" stroke-width="1" stroke-linecap="butt" stroke-linejoin="round" d="M 411.910 235.899 C 412.208 239.726 412.491 243.663 412.858 248.045 "/>
<path fill="none" stroke="#ffffff" stroke-width="1" stroke-linecap="butt" stroke-linejoin="round" d="M 453.605 332.762 C 456.901 330.543 460.287 328.229 463.630 325.914 "/>
<path fill="#ffffff" fill-rule="evenodd" stroke="none" d="M 411.910 235.899 C 412.208 239.726 412.491 243.663 412.858 248.045 C 501.303 204.497 551.433 196.373 559.599 210.518 C 567.680 224.515 536.326 263.199 453.542 318.919 C 450.316 321.091 446.863 323.381 443.074 325.856 C 434.718 331.316 425.183 337.366 415.082 343.578 C 415.007 348.339 414.906 353.022 414.669 357.692 C 428.458 349.284 441.280 341.062 453.605 332.762 C 456.901 330.543 460.287 328.229 463.630 325.914 C 552.500 264.356 584.664 216.775 575.689 201.228 C 566.806 185.843 510.609 189.663 411.910 235.899 Z"/>
<path fill="none" stroke="#ffffff" stroke-width="1" stroke-linecap="butt" stroke-linejoin="round" d="M 304.585 308.125 C 304.660 303.365 304.761 298.681 304.998 294.011 "/>
<path fill="none" stroke="#ffffff" stroke-width="1" stroke-linecap="butt" stroke-linejoin="round" d="M 307.141 248.208 C 310.760 249.989 314.432 251.824 318.089 253.677 "/>
<path fill="#ffffff" fill-rule="evenodd" stroke="none" d="M 316.534 350.831 C 312.274 348.276 308.305 345.866 304.588 343.580 C 304.487 337.833 304.445 331.900 304.445 325.852 C 304.445 319.043 304.498 312.380 304.585 308.125 C 304.660 303.365 304.761 298.681 304.998 294.011 C 305.434 277.635 306.187 262.230 307.141 248.208 C 310.760 249.989 314.432 251.824 318.089 253.677 C 317.538 264.236 317.112 275.287 316.831 286.869 C 316.740 292.577 316.661 296.673 316.599 300.834 C 316.409 310.409 316.351 318.027 316.351 325.852 C 316.351 334.464 316.421 342.828 316.534 350.831 Z"/>
<path fill="none" stroke="#ffffff" stroke-width="1" stroke-linecap="butt" stroke-linejoin="round" d="M 316.859 364.851 C 312.999 362.548 309.114 360.203 305.002 357.694 "/>
<path fill="none" stroke="#ffffff" stroke-width="1" stroke-linecap="butt" stroke-linejoin="round" d="M 266.125 332.785 C 269.351 330.612 272.804 328.323 276.594 325.847 "/>
<path fill="none" stroke="#ffffff" stroke-width="1" stroke-linecap="butt" stroke-linejoin="round" d="M 304.588 343.580 C 308.305 345.866 312.274 348.276 316.534 350.831 "/>
<path fill="#ffffff" fill-rule="evenodd" stroke="none" d="M 359.849 375.818 C 355.636 378.157 351.568 380.389 347.583 382.548 C 342.536 379.774 337.377 376.844 332.139 373.820 C 327.009 370.858 321.995 367.917 316.859 364.851 C 312.999 362.548 309.114 360.203 305.002 357.694 C 291.112 349.225 278.203 340.944 266.125 332.785 C 269.351 330.612 272.804 328.323 276.594 325.847 C 285.161 331.450 294.598 337.436 304.588 343.580 C 308.305 345.866 312.274 348.276 316.534 350.831 C 323.226 354.843 330.530 359.143 338.092 363.509 C 345.551 367.815 352.829 371.936 359.849 375.818 Z"/>
<path fill="none" stroke="#ffffff" stroke-width="1" stroke-linecap="butt" stroke-linejoin="round" d="M 372.144 382.561 C 368.064 384.841 363.959 387.104 359.866 389.330 "/>
<path fill="none" stroke="#ffffff" stroke-width="1" stroke-linecap="butt" stroke-linejoin="round" d="M 318.854 410.504 C 318.601 406.448 318.365 402.324 318.104 398.016 "/>
<path fill="none" stroke="#ffffff" stroke-width="1" stroke-linecap="butt" stroke-linejoin="round" d="M 347.583 382.548 C 351.568 380.389 355.636 378.157 359.849 375.818 "/>
<path fill="#ffffff" fill-rule="evenodd" stroke="none" d="M 403.068 350.869 C 403.007 355.030 402.927 359.127 402.837 364.835 C 397.672 367.917 392.658 370.858 387.528 373.820 C 382.352 376.808 377.253 379.705 372.144 382.561 C 368.064 384.841 363.959 387.104 359.866 389.330 C 345.582 397.100 331.814 404.189 318.854 410.504 C 318.601 406.448 318.365 402.324 318.104 398.016 C 327.522 393.243 337.277 388.131 347.583 382.548 C 351.568 380.389 355.636 378.157 359.849 375.818 C 366.839 371.936 374.116 367.815 381.575 363.509 C 389.137 359.143 396.442 354.843 403.068 350.869 Z"/>
<path fill="none" stroke="#ffffff" stroke-width="1" stroke-linecap="butt" stroke-linejoin="round" d="M 415.082 343.578 C 415.007 348.339 414.906 353.022 414.669 357.692 "/>
<path fill="none" stroke="#ffffff" stroke-width="1" stroke-linecap="butt" stroke-linejoin="round" d="M 412.526 403.496 C 408.908 401.714 405.236 399.880 401.579 398.026 "/>
<path fill="none" stroke="#ffffff" stroke-width="1" stroke-linecap="butt" stroke-linejoin="round" d="M 402.837 364.835 C 402.927 359.127 403.007 355.030 403.068 350.869 "/>
<path fill="#ffffff" fill-rule="evenodd" stroke="none" d="M 403.133 300.873 C 407.394 303.428 411.362 305.838 415.079 308.124 C 415.180 313.871 415.222 319.804 415.222 325.852 C 415.222 332.661 415.169 339.324 415.082 343.578 C 415.007 348.339 414.906 353.022 414.669 357.692 C 414.234 374.069 413.481 389.473 412.526 403.496 C 408.908 401.714 405.236 399.880 401.579 398.026 C 402.129 387.467 402.555 376.417 402.837 364.835 C 402.927 359.127 403.007 355.030 403.068 350.869 C 403.259 341.295 403.316 333.676 403.316 325.852 C 403.316 317.239 403.246 308.876 403.133 300.873 Z"/>
<path fill="none" stroke="#ffffff" stroke-width="1" stroke-linecap="butt" stroke-linejoin="round" d="M 443.074 325.856 C 446.863 323.381 450.316 321.091 453.542 318.919 "/>
<path fill="none" stroke="#ffffff" stroke-width="1" stroke-linecap="butt" stroke-linejoin="round" d="M 414.666 294.009 C 410.553 291.501 406.668 289.156 402.809 286.852 "/>
<path fill="none" stroke="#ffffff" stroke-width="1" stroke-linecap="butt" stroke-linejoin="round" d="M 403.133 300.873 C 407.394 303.428 411.362 305.838 415.079 308.124 "/>
<path fill="#ffffff" fill-rule="evenodd" stroke="none" d="M 415.079 308.124 C 425.069 314.268 434.506 320.254 443.074 325.856 C 446.863 323.381 450.316 321.091 453.542 318.919 C 441.465 310.760 428.556 302.479 414.666 294.009 C 410.553 291.501 406.668 289.156 402.809 286.852 C 397.672 283.787 392.658 280.846 387.528 277.884 C 382.290 274.860 377.131 271.930 372.084 269.156 C 368.100 271.315 364.031 273.547 359.819 275.886 C 366.839 279.767 374.116 283.889 381.575 288.195 C 389.137 292.561 396.442 296.861 403.133 300.873 C 407.394 303.428 411.362 305.838 415.079 308.124 Z"/>
<path fill="none" stroke="#ffffff" stroke-width="1" stroke-linecap="butt" stroke-linejoin="round" d="M 316.599 300.834 C 316.661 296.673 316.740 292.577 316.831 286.869 "/>
<path fill="none" stroke="#ffffff" stroke-width="1" stroke-linecap="butt" stroke-linejoin="round" d="M 347.524 269.143 C 351.604 266.863 355.709 264.600 359.801 262.374 "/>
<path fill="none" stroke="#ffffff" stroke-width="1" stroke-linecap="butt" stroke-linejoin="round" d="M 400.814 241.200 C 401.066 245.256 401.302 249.380 401.563 253.688 "/>
<path fill="none" stroke="#ffffff" stroke-width="1" stroke-linecap="butt" stroke-linejoin="round" d="M 372.084 269.156 C 368.100 271.315 364.031 273.547 359.819 275.886 "/>
<path fill="#ffffff" fill-rule="evenodd" stroke="none" d="M 316.599 300.834 C 316.661 296.673 316.740 292.577 316.831 286.869 C 321.995 283.787 327.009 280.846 332.139 277.884 C 337.315 274.896 342.415 271.999 347.524 269.143 C 351.604 266.863 355.709 264.600 359.801 262.374 C 374.085 254.604 387.853 247.515 400.814 241.200 C 401.066 245.256 401.302 249.380 401.563 253.688 C 392.145 258.460 382.390 263.573 372.084 269.156 C 368.100 271.315 364.031 273.547 359.819 275.886 C 352.829 279.767 345.551 283.889 338.092 288.195 C 330.530 292.561 323.226 296.861 316.599 300.834 Z"/>
</g>
<g id="starburst_2">
<path fill="#000000" fill-rule="evenodd" stroke="none" d="M 360.000 372.203 C 360.000 372.201 363.044 355.453 363.045 355.451 C 363.045 355.453 369.350 371.262 369.351 371.264 C 369.351 371.262 368.852 354.273 368.851 354.271 C 368.852 354.273 378.053 368.569 378.054 368.571 C 378.053 368.569 374.183 352.026 374.183 352.024 C 374.184 352.025 385.921 364.306 385.922 364.307 C 385.922 364.305 378.921 348.830 378.920 348.829 C 378.922 348.830 392.773 358.656 392.774 358.657 C 392.773 358.656 382.947 344.805 382.946 344.803 C 382.948 344.804 398.423 351.805 398.424 351.806 C 398.423 351.804 386.143 340.067 386.141 340.066 C 386.143 340.066 402.686 343.936 402.688 343.936 C 402.686 343.935 388.390 334.735 388.388 334.734 C 388.390 334.734 405.379 335.234 405.381 335.234 C 405.380 335.233 389.570 328.928 389.568 328.928 C 389.570 328.927 406.318 325.883 406.320 325.883 C 406.318 325.883 389.570 322.838 389.568 322.838 C 389.570 322.837 405.380 316.533 405.381 316.532 C 405.379 316.532 388.390 317.031 388.388 317.031 C 388.390 317.030 402.686 307.830 402.688 307.829 C 402.686 307.830 386.143 311.699 386.141 311.700 C 386.143 311.699 398.423 299.962 398.424 299.960 C 398.423 299.961 382.948 306.962 382.946 306.962 C 382.947 306.961 392.773 293.110 392.774 293.109 C 392.773 293.110 378.922 302.936 378.920 302.937 C 378.921 302.935 385.922 287.460 385.923 287.459 C 385.922 287.460 374.184 299.740 374.183 299.741 C 374.183 299.740 378.053 283.197 378.054 283.195 C 378.053 283.196 368.852 297.493 368.851 297.494 C 368.852 297.493 369.351 280.503 369.351 280.502 C 369.350 280.503 363.045 296.313 363.045 296.314 C 363.044 296.313 360.000 279.564 360.000 279.563 C 360.000 279.564 356.956 296.313 356.955 296.314 C 356.955 296.313 350.650 280.503 350.649 280.502 C 350.649 280.503 351.149 297.493 351.149 297.494 C 351.148 297.493 341.947 283.196 341.946 283.195 C 341.947 283.197 345.817 299.740 345.817 299.741 C 345.816 299.740 334.079 287.460 334.078 287.459 C 334.078 287.460 341.079 302.935 341.080 302.937 C 341.078 302.936 327.227 293.110 327.226 293.109 C 327.227 293.110 337.053 306.961 337.054 306.962 C 337.052 306.962 321.577 299.961 321.576 299.960 C 321.577 299.961 333.857 311.699 333.859 311.700 C 333.857 311.699 317.314 307.830 317.312 307.829 C 317.314 307.830 331.610 317.030 331.612 317.031 C 331.610 317.031 314.621 316.532 314.619 316.532 C 314.620 316.533 330.430 322.837 330.432 322.838 C 330.430 322.838 313.682 325.883 313.680 325.883 C 313.682 325.883 330.430 328.927 330.432 328.928 C 330.430 328.928 314.620 335.233 314.619 335.234 C 314.621 335.234 331.610 334.734 331.612 334.734 C 331.610 334.735 317.314 343.935 317.312 343.936 C 317.314 343.936 333.857 340.066 333.859 340.066 C 333.857 340.067 321.577 351.804 321.576 351.805 C 321.577 351.804 337.052 344.804 337.054 344.803 C 337.053 344.805 327.227 358.656 327.226 358.657 C 327.227 358.656 341.078 348.830 341.080 348.829 C 341.079 348.830 334.078 364.305 334.077 364.307 C 334.078 364.306 345.816 352.025 345.817 352.024 C 345.817 352.026 341.947 368.569 341.946 368.571 C 341.947 368.569 351.148 354.273 351.149 354.271 C 351.149 354.273 350.649 371.262 350.649 371.264 C 350.650 371.262 356.955 355.453 356.955 355.451 C 356.956 355.453 360.000 372.201 360.000 372.203 Z"/>
<path fill="#000000" fill-rule="evenodd" stroke="none" d="M 493.611 234.427 C 493.611 234.426 495.183 225.778 495.183 225.777 C 495.184 225.778 498.439 233.941 498.439 233.942 C 498.439 233.941 498.181 225.169 498.181 225.168 C 498.182 225.169 502.932 232.551 502.933 232.551 C 502.932 232.550 500.934 224.009 500.934 224.008 C 500.935 224.009 506.995 230.349 506.996 230.350 C 506.995 230.349 503.381 222.359 503.380 222.358 C 503.381 222.358 510.533 227.432 510.533 227.433 C 510.533 227.432 505.459 220.280 505.459 220.279 C 505.460 220.280 513.450 223.895 513.451 223.895 C 513.450 223.894 507.109 217.834 507.108 217.833 C 507.109 217.834 515.651 219.832 515.652 219.832 C 515.651 219.832 508.270 215.081 508.269 215.081 C 508.270 215.081 517.042 215.338 517.043 215.338 C 517.042 215.338 508.879 212.083 508.878 212.082 C 508.879 212.082 517.527 210.510 517.527 210.510 C 517.527 210.510 508.879 208.938 508.878 208.938 C 508.879 208.938 517.042 205.682 517.043 205.682 C 517.042 205.682 508.270 205.940 508.269 205.940 C 508.270 205.939 515.651 201.189 515.652 201.189 C 515.651 201.189 507.109 203.187 507.108 203.187 C 507.109 203.187 513.450 197.126 513.451 197.126 C 513.450 197.126 505.460 200.741 505.459 200.741 C 505.459 200.740 510.533 193.588 510.533 193.588 C 510.533 193.588 503.381 198.662 503.380 198.662 C 503.381 198.661 506.995 190.671 506.996 190.671 C 506.995 190.671 500.935 197.012 500.934 197.013 C 500.934 197.012 502.932 188.470 502.933 188.469 C 502.932 188.470 498.182 195.852 498.181 195.852 C 498.181 195.851 498.439 187.079 498.439 187.078 C 498.439 187.079 495.184 195.242 495.183 195.243 C 495.183 195.242 493.611 186.595 493.611 186.594 C 493.611 186.595 492.039 195.242 492.039 195.243 C 492.038 195.242 488.783 187.079 488.783 187.078 C 488.783 187.079 489.041 195.851 489.041 195.852 C 489.040 195.852 484.290 188.470 484.289 188.469 C 484.289 188.470 486.288 197.012 486.288 197.013 C 486.287 197.012 480.227 190.671 480.226 190.671 C 480.227 190.671 483.841 198.661 483.842 198.662 C 483.841 198.662 476.689 193.588 476.689 193.588 C 476.689 193.588 481.763 200.740 481.763 200.741 C 481.762 200.741 473.772 197.126 473.771 197.125 C 473.772 197.126 480.113 203.187 480.113 203.187 C 480.112 203.187 471.571 201.189 471.570 201.189 C 471.571 201.189 478.952 205.939 478.953 205.940 C 478.952 205.940 470.180 205.682 470.179 205.682 C 470.180 205.682 478.343 208.938 478.344 208.938 C 478.343 208.938 469.695 210.510 469.694 210.510 C 469.695 210.510 478.343 212.082 478.344 212.082 C 478.343 212.083 470.180 215.338 470.179 215.338 C 470.180 215.338 478.952 215.081 478.953 215.081 C 478.952 215.081 471.571 219.832 471.570 219.832 C 471.571 219.832 480.112 217.834 480.113 217.833 C 480.113 217.834 473.772 223.894 473.771 223.895 C 473.772 223.894 481.762 220.280 481.763 220.279 C 481.763 220.280 476.689 227.432 476.689 227.433 C 476.689 227.432 483.841 222.358 483.842 222.358 C 483.841 222.359 480.227 230.349 480.226 230.350 C 480.227 230.349 486.287 224.009 486.288 224.008 C 486.288 224.009 484.289 232.550 484.289 232.551 C 484.290 232.551 489.040 225.169 489.041 225.168 C 489.041 225.169 488.783 233.941 488.783 233.942 C 488.783 233.941 492.038 225.778 492.039 225.777 C 492.039 225.778 493.611 234.426 493.611 234.427 Z"/>
<path fill="#000000" fill-rule="evenodd" stroke="none" d="M 225.324 322.485 C 225.324 322.484 226.896 313.836 226.896 313.835 C 226.897 313.836 230.152 321.999 230.152 322.000 C 230.152 321.999 229.894 313.227 229.894 313.226 C 229.895 313.227 234.645 320.608 234.646 320.609 C 234.646 320.608 232.647 312.067 232.647 312.066 C 232.648 312.066 238.708 318.407 238.709 318.408 C 238.708 318.407 235.094 310.417 235.093 310.416 C 235.094 310.416 242.246 315.490 242.247 315.490 C 242.246 315.490 237.173 308.338 237.172 308.337 C 237.173 308.337 245.163 311.952 245.164 311.953 C 245.163 311.952 238.822 305.892 238.822 305.891 C 238.823 305.891 247.365 307.890 247.365 307.890 C 247.365 307.889 239.983 303.139 239.982 303.138 C 239.983 303.138 248.755 303.396 248.756 303.396 C 248.755 303.396 240.592 300.140 240.591 300.140 C 240.592 300.140 249.240 298.568 249.241 298.568 C 249.240 298.568 240.592 296.996 240.591 296.996 C 240.592 296.995 248.755 293.740 248.756 293.740 C 248.755 293.740 239.983 293.997 239.982 293.998 C 239.983 293.997 247.365 289.247 247.365 289.246 C 247.365 289.247 238.823 291.245 238.822 291.245 C 238.822 291.244 245.163 285.184 245.164 285.183 C 245.163 285.184 237.173 288.798 237.172 288.799 C 237.173 288.798 242.246 281.646 242.247 281.646 C 242.246 281.646 235.094 286.720 235.093 286.720 C 235.094 286.719 238.709 278.729 238.709 278.728 C 238.708 278.729 232.648 285.070 232.647 285.070 C 232.647 285.070 234.646 276.528 234.646 276.527 C 234.645 276.528 229.895 283.909 229.894 283.910 C 229.894 283.909 230.152 275.137 230.152 275.136 C 230.152 275.137 226.897 283.300 226.896 283.301 C 226.896 283.300 225.324 274.652 225.324 274.651 C 225.324 274.652 223.752 283.300 223.752 283.301 C 223.752 283.300 220.496 275.137 220.496 275.136 C 220.496 275.137 220.754 283.909 220.754 283.910 C 220.753 283.909 216.003 276.528 216.002 276.527 C 216.003 276.528 218.001 285.070 218.001 285.070 C 218.000 285.070 211.940 278.729 211.939 278.728 C 211.940 278.729 215.555 286.719 215.555 286.720 C 215.554 286.720 208.403 281.646 208.402 281.646 C 208.402 281.646 213.476 288.798 213.476 288.799 C 213.476 288.798 205.485 285.183 205.484 285.183 C 205.485 285.184 211.826 291.244 211.826 291.245 C 211.826 291.245 203.284 289.247 203.283 289.246 C 203.284 289.247 210.666 293.997 210.666 293.998 C 210.665 293.997 201.893 293.740 201.892 293.740 C 201.893 293.740 210.056 296.995 210.057 296.996 C 210.056 296.996 201.408 298.568 201.407 298.568 C 201.408 298.568 210.056 300.140 210.057 300.140 C 210.056 300.140 201.893 303.396 201.892 303.396 C 201.893 303.396 210.665 303.138 210.666 303.138 C 210.666 303.139 203.284 307.889 203.283 307.890 C 203.284 307.890 211.826 305.891 211.826 305.891 C 211.826 305.892 205.485 311.952 205.484 311.952 C 205.485 311.952 213.476 308.337 213.476 308.337 C 213.476 308.338 208.402 315.490 208.402 315.490 C 208.403 315.490 215.554 310.416 215.555 310.416 C 215.555 310.417 211.940 318.407 211.939 318.408 C 211.940 318.407 218.000 312.066 218.001 312.066 C 218.001 312.067 216.003 320.608 216.002 320.609 C 216.003 320.608 220.753 313.227 220.754 313.226 C 220.754 313.227 220.496 321.999 220.496 322.000 C 220.496 321.999 223.752 313.836 223.752 313.835 C 223.752 313.836 225.324 322.484 225.324 322.485 Z"/>
<path fill="#000000" fill-rule="evenodd" stroke="none" d="M 335.743 560.202 C 335.743 560.201 337.315 551.554 337.315 551.553 C 337.315 551.553 340.570 559.717 340.571 559.717 C 340.571 559.716 340.313 550.944 340.313 550.943 C 340.313 550.944 345.064 558.326 345.064 558.327 C 345.064 558.326 343.066 549.784 343.066 549.783 C 343.066 549.784 349.127 556.124 349.127 556.125 C 349.127 556.124 345.512 548.134 345.512 548.133 C 345.513 548.134 352.664 553.207 352.665 553.208 C 352.665 553.207 347.591 546.055 347.591 546.055 C 347.591 546.055 355.582 549.670 355.582 549.670 C 355.582 549.670 349.241 543.609 349.240 543.609 C 349.241 543.609 357.783 545.607 357.784 545.607 C 357.783 545.607 350.401 540.856 350.401 540.856 C 350.401 540.856 359.173 541.114 359.174 541.114 C 359.174 541.113 351.011 537.858 351.010 537.858 C 351.011 537.857 359.658 536.286 359.659 536.285 C 359.658 536.285 351.011 534.713 351.010 534.713 C 351.011 534.713 359.174 531.457 359.174 531.457 C 359.173 531.457 350.401 531.715 350.401 531.715 C 350.401 531.715 357.783 526.964 357.784 526.964 C 357.783 526.964 349.241 528.962 349.240 528.962 C 349.241 528.962 355.582 522.901 355.582 522.901 C 355.582 522.901 347.591 526.516 347.591 526.516 C 347.591 526.516 352.665 519.364 352.665 519.363 C 352.664 519.364 345.513 524.437 345.512 524.438 C 345.512 524.437 349.127 516.447 349.128 516.446 C 349.127 516.446 343.066 522.787 343.066 522.788 C 343.066 522.787 345.064 514.245 345.064 514.244 C 345.064 514.245 340.313 521.627 340.313 521.628 C 340.313 521.627 340.571 512.854 340.571 512.853 C 340.570 512.854 337.315 521.017 337.315 521.018 C 337.315 521.017 335.743 512.370 335.743 512.369 C 335.743 512.370 334.171 521.017 334.171 521.018 C 334.170 521.017 330.915 512.854 330.914 512.853 C 330.914 512.854 331.172 521.627 331.172 521.628 C 331.172 521.627 326.421 514.245 326.421 514.244 C 326.421 514.245 328.419 522.787 328.419 522.788 C 328.419 522.787 322.358 516.446 322.358 516.446 C 322.358 516.447 325.973 524.437 325.974 524.438 C 325.973 524.437 318.821 519.364 318.820 519.363 C 318.821 519.364 323.894 526.516 323.895 526.516 C 323.894 526.516 315.904 522.901 315.903 522.901 C 315.903 522.901 322.244 528.962 322.245 528.962 C 322.244 528.962 313.702 526.964 313.702 526.964 C 313.702 526.964 321.084 531.715 321.085 531.715 C 321.084 531.715 312.312 531.457 312.311 531.457 C 312.312 531.457 320.475 534.713 320.475 534.713 C 320.475 534.713 311.827 536.285 311.826 536.285 C 311.827 536.286 320.475 537.857 320.475 537.858 C 320.475 537.858 312.312 541.113 312.311 541.114 C 312.312 541.114 321.084 540.856 321.085 540.856 C 321.084 540.856 313.702 545.607 313.702 545.607 C 313.702 545.607 322.244 543.609 322.245 543.609 C 322.244 543.609 315.903 549.669 315.903 549.670 C 315.904 549.670 323.894 546.055 323.895 546.055 C 323.894 546.055 318.821 553.207 318.820 553.208 C 318.821 553.207 325.973 548.134 325.974 548.133 C 325.973 548.134 322.358 556.124 322.358 556.125 C 322.358 556.124 328.419 549.784 328.419 549.783 C 328.419 549.784 326.421 558.326 326.421 558.327 C 326.421 558.326 331.172 550.944 331.172 550.943 C 331.172 550.944 330.914 559.716 330.914 559.717 C 330.915 559.717 334.170 551.553 334.171 551.553 C 334.171 551.554 335.743 560.201 335.743 560.202 Z"/>
</g>
<g id="Layer_3">
<path fill="#ffffff" fill-rule="evenodd" stroke="none" d="M 360.000 353.411 C 375.237 353.411 387.528 341.120 387.528 325.883 C 387.528 310.646 375.237 298.354 360.000 298.354 C 344.763 298.354 332.472 310.646 332.472 325.883 C 332.472 341.120 344.763 353.411 360.000 353.411 Z"/>
<path fill="#ffffff" fill-rule="evenodd" stroke="none" d="M 493.632 225.205 C 501.809 225.205 508.404 218.609 508.404 210.433 C 508.404 202.257 501.809 195.661 493.632 195.661 C 485.456 195.661 478.860 202.257 478.860 210.433 C 478.860 218.609 485.456 225.205 493.632 225.205 Z"/>
<path fill="#ffffff" fill-rule="evenodd" stroke="none" d="M 225.184 312.880 C 233.361 312.880 239.957 306.284 239.957 298.108 C 239.957 289.932 233.361 283.336 225.184 283.336 C 217.008 283.336 210.412 289.932 210.412 298.108 C 210.412 306.284 217.008 312.880 225.184 312.880 Z"/>
<path fill="#ffffff" fill-rule="evenodd" stroke="none" d="M 335.456 550.597 C 343.632 550.597 350.228 544.001 350.228 535.825 C 350.228 527.648 343.632 521.053 335.456 521.053 C 327.280 521.053 320.684 527.648 320.684 535.825 C 320.684 544.001 327.280 550.597 335.456 550.597 Z"/>
</g>
<g id="specs_2">
<path fill="#ff00ff" fill-rule="evenodd" stroke="none" d="M 271.166 414.717 C 271.184 414.717 448.816 414.717 448.834 414.717 C 448.834 414.699 448.834 237.067 448.834 237.049 C 448.816 237.049 271.184 237.049 271.166 237.049 C 271.166 237.067 271.166 414.699 271.166 414.717 Z"/>
<path fill="#ff0000" fill-rule="evenodd" stroke="none" d="M 360.000 666.485 C 360.001 666.488 371.132 697.656 371.133 697.659 C 371.132 697.658 360.001 687.301 360.000 687.300 C 359.999 687.301 348.868 697.658 348.867 697.659 C 348.868 697.656 359.999 666.488 360.000 666.485 Z"/>
<path fill="#0000ff" fill-rule="evenodd" stroke="none" d="M 360.000 19.430 C 360.001 19.432 366.466 37.537 366.467 37.539 C 366.466 37.538 360.001 31.522 360.000 31.522 C 359.999 31.522 353.534 37.538 353.533 37.539 C 353.534 37.537 359.999 19.432 360.000 19.430 Z"/>
<path fill="#00ff00" fill-rule="evenodd" stroke="none" d="M 54.108 326.781 C 54.110 326.781 72.181 320.223 72.183 320.222 C 72.183 320.223 66.199 326.720 66.199 326.720 C 66.199 326.721 72.248 333.156 72.248 333.157 C 72.247 333.156 54.110 326.782 54.108 326.781 Z"/>
<path fill="#ffff00" fill-rule="evenodd" stroke="none" d="M 143.032 543.927 C 143.032 543.925 151.056 526.455 151.057 526.454 C 151.057 526.454 151.479 535.276 151.479 535.277 C 151.480 535.277 160.309 535.491 160.310 535.491 C 160.308 535.492 143.033 543.926 143.032 543.927 Z"/>
<path fill="#ffff00" fill-rule="evenodd" stroke="none" d="M 576.968 543.713 C 576.967 543.711 568.595 526.406 568.594 526.404 C 568.594 526.405 568.349 535.233 568.349 535.234 C 568.348 535.234 559.525 535.625 559.524 535.625 C 559.525 535.626 576.967 543.712 576.968 543.713 Z"/>
<path fill="#00ff00" fill-rule="evenodd" stroke="none" d="M 665.892 326.781 C 665.890 326.781 647.819 320.223 647.817 320.222 C 647.817 320.223 653.801 326.720 653.801 326.720 C 653.801 326.721 647.752 333.156 647.752 333.157 C 647.753 333.156 665.890 326.782 665.892 326.781 Z"/>
<path fill="#00ffff" fill-rule="evenodd" stroke="none" d="M 576.130 108.926 C 576.129 108.928 569.711 127.050 569.711 127.052 C 569.711 127.051 568.495 118.303 568.495 118.302 C 568.494 118.302 559.682 118.884 559.681 118.884 C 559.683 118.883 576.128 108.927 576.130 108.926 Z"/>
<path fill="#00ffff" fill-rule="evenodd" stroke="none" d="M 143.970 109.527 C 143.971 109.529 151.583 127.182 151.584 127.184 C 151.584 127.183 152.213 118.374 152.213 118.373 C 152.214 118.373 161.045 118.366 161.046 118.366 C 161.045 118.365 143.972 109.528 143.970 109.527 Z"/>
<path fill="#be0027" fill-rule="evenodd" stroke="none" d="M 360.000 648.985 C 360.001 648.982 371.132 617.814 371.133 617.811 C 371.132 617.812 360.001 628.169 360.000 628.170 C 359.999 628.169 348.868 617.812 348.867 617.811 C 348.868 617.814 359.999 648.982 360.000 648.985 Z"/>
</g>
</g>
</svg>
