<?xml version="1.0" encoding="utf-8"?>
<!-- Generator: Moho 13.5 build 20210422 -->
<!DOCTYPE svg PUBLIC "-//W3C//DTD SVG 1.1//EN" "http://www.w3.org/Graphics/SVG/1.1/DTD/svg11.dtd">
<svg version="1.1" id="Frame_0" xmlns="http://www.w3.org/2000/svg" xmlns:xlink="http://www.w3.org/1999/xlink" width="720px" height="720px">
<g id="baby">
<g id="baby">
<radialGradient id="FE871690-C5E8-45FE-997D-9DF946B26D0F_0" cx="49.80%" cy="49.58%" r="191.03%">
<stop offset="16.86%" style="stop-color:rgb(255,255,255);stop-opacity:1.00" />
<stop offset="100.00%" style="stop-color:rgb(0,0,0);stop-opacity:1.00" />
</radialGradient>
<path fill="url(#FE871690-C5E8-45FE-997D-9DF946B26D0F_0)" fill-rule="evenodd" stroke="#000000" stroke-width="4" stroke-linecap="round" stroke-linejoin="round" d="M 438.903 476.114 C 446.970 479.497 459.124 483.308 463.176 484.579 C 454.501 501.418 458.345 529.951 452.610 536.784 C 432.483 560.764 506.208 580.313 506.214 580.317 C 506.216 580.318 523.012 592.228 527.300 588.063 C 537.562 578.098 515.375 577.944 518.402 573.191 C 521.165 568.854 530.233 577.804 532.848 573.253 C 535.312 568.964 519.393 568.353 521.200 564.143 C 523.440 558.925 533.198 570.776 535.203 565.790 C 537.151 560.946 522.993 557.839 524.072 555.227 C 525.537 551.682 533.770 560.690 536.440 554.644 C 537.350 552.583 523.045 548.175 516.260 542.064 C 515.144 541.059 503.254 533.637 503.254 533.637 C 503.254 533.637 522.381 484.361 518.836 464.123 C 526.591 433.822 459.670 396.942 458.027 395.614 C 463.639 378.084 453.635 302.412 451.647 295.318 C 468.100 291.591 513.454 278.606 522.547 260.596 C 539.519 246.648 550.395 213.413 549.627 204.224 C 556.979 200.472 561.833 192.176 565.713 183.238 C 571.185 174.017 587.526 159.786 578.486 155.203 C 575.960 153.922 568.026 169.158 563.160 166.308 C 559.114 163.938 576.185 147.365 569.176 143.538 C 562.662 139.982 557.103 161.617 553.473 159.945 C 547.956 157.403 560.969 135.499 551.929 134.123 C 544.713 133.024 546.140 156.673 542.633 156.181 C 534.316 155.015 539.956 134.180 532.076 134.484 C 520.899 134.914 535.529 162.132 525.572 166.826 C 519.874 169.512 512.516 155.661 507.926 160.122 C 503.096 164.815 513.449 172.409 515.577 179.260 C 516.857 183.381 519.144 189.155 519.907 191.080 C 519.907 191.080 497.047 221.924 496.077 224.268 C 477.282 224.324 468.358 227.340 453.966 232.074 C 442.217 232.184 430.907 235.925 421.684 241.917 C 403.723 227.910 382.518 220.169 360.429 220.169 C 337.781 219.951 316.535 227.779 298.316 241.917 C 289.108 235.903 277.783 232.184 266.034 232.074 C 251.642 227.340 242.718 224.324 223.923 224.268 C 222.953 221.924 200.093 191.080 200.093 191.080 C 200.856 189.155 203.144 183.381 204.423 179.260 C 206.551 172.409 216.904 164.815 212.074 160.122 C 207.484 155.661 200.126 169.512 194.428 166.826 C 184.471 162.132 199.104 134.137 187.924 134.484 C 181.948 134.669 184.526 157.847 180.066 158.214 C 175.292 158.608 176.724 133.604 168.720 134.629 C 160.636 135.664 172.919 159.773 169.008 161.574 C 163.538 164.092 158.097 140.835 152.530 143.363 C 144.467 147.025 160.861 164.873 156.301 167.616 C 152.629 169.825 143.741 153.608 140.499 154.822 C 132.460 157.834 148.562 173.854 154.288 183.238 C 158.276 192.128 163.021 200.472 170.373 204.224 C 169.605 213.413 180.481 246.648 197.453 260.596 C 206.546 278.606 251.900 291.591 268.353 295.318 C 266.365 302.412 256.361 378.084 261.973 395.614 C 260.330 396.942 193.409 433.822 201.164 464.123 C 197.619 484.361 211.981 525.025 216.746 533.637 C 208.996 537.785 204.217 542.335 203.331 543.698 C 198.921 550.487 180.023 550.845 181.275 555.513 C 183.246 562.866 194.848 550.721 196.321 555.144 C 198.154 560.650 180.441 559.755 181.968 565.217 C 183.773 571.669 196.393 560.909 198.495 565.969 C 199.512 568.416 181.820 569.690 186.097 575.694 C 188.828 579.526 199.027 568.147 202.436 572.959 C 205.939 577.905 179.933 577.961 192.023 588.420 C 198.269 593.823 213.784 580.318 213.786 580.317 C 213.792 580.313 287.517 560.764 267.390 536.784 C 261.655 529.951 265.499 501.418 256.825 484.579 C 260.876 483.308 273.030 479.497 281.097 476.114 C 295.680 470.000 309.661 462.535 319.335 453.819 C 331.071 457.726 346.077 458.464 360.445 458.609 C 374.271 458.624 389.189 457.672 400.665 453.819 C 410.339 462.535 424.320 470.000 438.903 476.114 Z"/>
<radialGradient id="FE871690-C5E8-45FE-997D-9DF946B26D0F_1" cx="50.00%" cy="49.97%" r="170.30%">
<stop offset="16.86%" style="stop-color:rgb(255,255,255);stop-opacity:1.00" />
<stop offset="100.00%" style="stop-color:rgb(0,0,0);stop-opacity:1.00" />
</radialGradient>
<path fill="url(#FE871690-C5E8-45FE-997D-9DF946B26D0F_1)" fill-rule="evenodd" stroke="#000000" stroke-width="4" stroke-linecap="round" stroke-linejoin="round" d="M 269.608 175.423 C 263.623 109.845 286.990 57.479 360.429 57.681 C 433.610 57.882 457.547 110.999 450.392 175.423 C 468.674 174.444 457.676 214.797 442.002 215.740 C 437.158 227.862 430.425 238.539 422.286 247.388 C 406.008 265.085 384.105 275.468 360.429 275.468 C 336.223 275.537 314.217 265.254 297.714 247.388 C 289.557 238.557 282.842 227.862 277.998 215.740 C 262.324 214.797 251.328 174.407 269.608 175.423 M 338.728 188.489 C 338.729 177.800 330.106 169.177 319.417 169.177 C 308.728 169.177 300.105 177.800 300.106 188.489 C 300.106 199.177 308.728 207.799 319.417 207.799 C 330.106 207.800 338.728 199.177 338.728 188.489 M 381.472 188.489 C 381.471 177.800 390.094 169.177 400.783 169.177 C 411.472 169.177 420.095 177.800 420.095 188.489 C 420.094 199.177 411.472 207.799 400.783 207.799 C 390.095 207.800 381.472 199.177 381.472 188.489 Z"/>
<path fill="none" stroke="#000000" stroke-width="4" stroke-linecap="round" stroke-linejoin="round" d="M 343.145 241.235 C 343.946 236.967 354.026 240.207 361.042 240.207 C 368.059 240.207 378.139 236.967 378.940 241.235 C 379.796 245.799 368.545 248.100 361.042 248.100 C 353.540 248.100 342.288 245.799 343.145 241.235 "/>
<path fill="none" stroke="#000000" stroke-width="4" stroke-linecap="round" stroke-linejoin="round" d="M 364.021 76.070 C 366.496 52.934 336.788 48.757 340.947 28.479 C 345.579 5.890 369.009 5.503 375.680 18.034 C 382.586 31.006 367.715 44.706 360.814 32.755 "/>
</g>
<g id="specs_2">
<path fill="#ff00ff" fill-rule="evenodd" stroke="none" d="M 282.345 439.555 C 282.360 439.555 437.640 439.555 437.655 439.555 C 437.655 439.539 437.655 284.260 437.655 284.245 C 437.640 284.245 282.360 284.245 282.345 284.245 C 282.345 284.260 282.345 439.539 282.345 439.555 Z"/>
<path fill="#ff0000" fill-rule="evenodd" stroke="none" d="M 360.000 680.545 C 360.001 680.549 371.878 713.804 371.879 713.807 C 371.878 713.806 360.001 702.756 360.000 702.755 C 359.999 702.756 348.122 713.806 348.121 713.807 C 348.122 713.804 359.999 680.549 360.000 680.545 Z"/>
<path fill="#0000ff" fill-rule="evenodd" stroke="none" d="M 360.000 45.597 C 360.001 45.599 366.900 64.917 366.900 64.919 C 366.900 64.918 360.001 58.499 360.000 58.499 C 359.999 58.499 353.101 64.918 353.100 64.919 C 353.101 64.917 359.999 45.599 360.000 45.597 Z"/>
<path fill="#00ff00" fill-rule="evenodd" stroke="none" d="M 248.585 342.685 C 248.587 342.684 267.237 335.917 267.239 335.916 C 267.239 335.917 261.064 342.621 261.063 342.622 C 261.064 342.623 267.306 349.264 267.307 349.265 C 267.305 349.264 248.587 342.686 248.585 342.685 Z"/>
<path fill="#ffff00" fill-rule="evenodd" stroke="none" d="M 173.504 582.054 C 173.505 582.053 180.402 567.037 180.403 567.035 C 180.403 567.036 180.766 574.618 180.766 574.619 C 180.767 574.619 188.355 574.803 188.356 574.803 C 188.355 574.804 173.506 582.054 173.504 582.054 Z"/>
<path fill="#ffff00" fill-rule="evenodd" stroke="none" d="M 546.496 581.870 C 546.495 581.869 539.298 566.994 539.298 566.992 C 539.298 566.993 539.086 574.582 539.086 574.582 C 539.086 574.582 531.502 574.919 531.501 574.919 C 531.502 574.919 546.494 581.870 546.496 581.870 Z"/>
<path fill="#00ff00" fill-rule="evenodd" stroke="none" d="M 471.415 342.685 C 471.413 342.684 452.763 335.917 452.761 335.916 C 452.761 335.917 458.936 342.621 458.937 342.622 C 458.936 342.623 452.694 349.264 452.693 349.265 C 452.695 349.264 471.413 342.686 471.415 342.685 Z"/>
<path fill="#00ffff" fill-rule="evenodd" stroke="none" d="M 580.439 120.161 C 580.438 120.163 573.892 138.646 573.892 138.648 C 573.892 138.647 572.652 129.725 572.652 129.724 C 572.651 129.724 563.663 130.317 563.662 130.317 C 563.664 130.316 580.437 120.162 580.439 120.161 Z"/>
<path fill="#00ffff" fill-rule="evenodd" stroke="none" d="M 139.668 120.774 C 139.669 120.776 147.432 138.781 147.433 138.783 C 147.433 138.782 148.075 129.797 148.075 129.796 C 148.076 129.796 157.083 129.789 157.084 129.789 C 157.082 129.788 139.670 120.775 139.668 120.774 Z"/>
<path fill="#be0027" fill-rule="evenodd" stroke="none" d="M 360.000 484.358 C 360.001 484.354 371.878 451.099 371.879 451.096 C 371.878 451.097 360.001 462.147 360.000 462.148 C 359.999 462.147 348.122 451.097 348.121 451.096 C 348.122 451.099 359.999 484.354 360.000 484.358 Z"/>
</g>
</g>
</svg>
