<?xml version="1.0" encoding="utf-8"?>
<!-- Generator: Moho 12.5 build 22414 -->
<!DOCTYPE svg PUBLIC "-//W3C//DTD SVG 1.1//EN" "http://www.w3.org/Graphics/SVG/1.1/DTD/svg11.dtd">
<svg version="1.1" id="Frame_0" xmlns="http://www.w3.org/2000/svg" xmlns:xlink="http://www.w3.org/1999/xlink" width="720px" height="720px">
<g id="baby">
<g id="baby">
<path fill="#ffffff" fill-rule="evenodd" stroke="#000000" stroke-width="4" stroke-linecap="round" stroke-linejoin="round" d="M 268.467 295.399 C 266.482 302.484 256.490 378.061 262.095 395.569 C 260.454 396.896 193.616 433.730 201.361 463.993 C 197.821 484.206 212.165 524.819 216.924 533.420 C 209.525 536.751 204.061 540.342 203.934 541.837 C 203.216 550.310 181.666 540.587 180.681 552.822 C 179.360 569.239 199.928 549.404 201.420 555.717 C 203.094 562.803 180.693 561.846 184.230 569.449 C 187.433 576.336 201.028 561.049 203.999 566.936 C 206.502 571.896 185.475 571.392 191.209 579.505 C 194.296 583.872 208.768 571.405 209.974 577.997 C 210.632 581.588 196.731 579.036 200.798 584.464 C 204.160 588.950 226.280 576.433 226.283 576.433 C 226.287 576.429 284.845 555.937 267.506 536.564 C 261.563 529.925 265.617 501.242 256.953 484.424 C 260.999 483.155 273.138 479.348 281.195 475.970 C 295.760 469.863 309.723 462.407 319.385 453.702 C 331.107 457.604 346.094 458.342 360.445 458.486 C 374.254 458.501 389.153 457.550 400.615 453.702 C 410.277 462.407 424.240 469.863 438.805 475.970 C 446.862 479.348 459.001 483.155 463.047 484.424 C 454.383 501.242 458.437 529.925 452.494 536.564 C 435.155 555.937 493.713 576.429 493.717 576.433 C 493.720 576.433 515.840 588.950 519.202 584.464 C 523.269 579.036 509.368 581.588 510.026 577.997 C 511.232 571.405 525.704 583.872 528.791 579.505 C 534.525 571.392 513.498 571.896 516.001 566.936 C 518.972 561.049 532.567 576.336 535.770 569.449 C 539.307 561.846 516.906 562.803 518.580 555.717 C 520.072 549.404 540.640 569.239 539.319 552.822 C 538.334 540.587 516.784 550.310 516.066 541.837 C 515.939 540.342 510.475 536.751 503.076 533.420 C 507.835 524.819 522.179 484.206 518.639 463.993 C 526.384 433.730 459.546 396.896 457.905 395.569 C 463.510 378.061 453.518 302.484 451.533 295.399 C 467.966 291.676 513.263 278.707 522.345 260.719 C 539.295 246.789 550.158 213.595 549.391 204.418 C 556.734 200.670 561.672 192.423 565.457 183.458 C 571.006 173.891 586.580 160.142 578.016 154.270 C 572.018 150.157 565.847 168.545 559.540 165.162 C 551.972 161.103 567.880 142.774 559.821 139.427 C 552.475 136.376 550.751 157.898 542.406 156.435 C 534.144 154.986 539.732 134.461 531.862 134.764 C 520.698 135.194 535.311 162.379 525.366 167.066 C 519.675 169.749 512.327 155.916 507.742 160.370 C 502.917 165.058 513.258 172.643 515.383 179.485 C 516.661 183.601 518.946 189.368 519.708 191.290 C 519.708 191.290 496.877 222.096 495.908 224.437 C 477.136 224.493 468.223 227.505 453.849 232.234 C 442.115 232.343 430.819 236.079 421.607 242.064 C 403.668 228.074 382.490 220.343 360.429 220.343 C 337.808 220.126 316.589 227.944 298.393 242.064 C 289.196 236.057 277.885 232.343 266.151 232.234 C 251.777 227.505 242.864 224.493 224.092 224.437 C 223.123 222.096 200.292 191.290 200.292 191.290 C 201.054 189.368 203.339 183.601 204.617 179.485 C 206.742 172.643 217.083 165.058 212.258 160.370 C 207.673 155.916 200.325 169.749 194.635 167.066 C 184.689 162.379 199.302 135.194 188.138 134.764 C 180.268 134.461 185.856 154.986 177.594 156.435 C 169.249 157.898 167.525 136.376 160.179 139.427 C 152.120 142.774 168.028 161.103 160.460 165.162 C 154.153 168.545 147.982 150.157 141.984 154.270 C 133.420 160.142 148.994 173.891 154.544 183.458 C 158.329 192.423 163.266 200.670 170.609 204.418 C 169.842 213.595 180.705 246.789 197.656 260.719 C 206.737 278.707 252.034 291.676 268.467 295.399 Z"/>
<path fill="#ffffff" fill-rule="evenodd" stroke="#000000" stroke-width="4" stroke-linecap="round" stroke-linejoin="round" d="M 269.720 175.653 C 263.743 110.156 287.081 57.855 360.429 58.057 C 433.519 58.258 457.425 111.309 450.280 175.653 C 468.539 174.675 457.555 214.977 441.900 215.920 C 437.062 228.027 430.337 238.691 422.208 247.528 C 405.951 265.203 384.075 275.573 360.429 275.573 C 336.252 275.642 314.274 265.372 297.792 247.528 C 289.644 238.708 282.938 228.027 278.100 215.920 C 262.445 214.977 251.463 174.638 269.720 175.653 M 344.521 185.819 C 344.521 173.547 334.622 163.648 322.350 163.648 C 310.079 163.648 300.180 173.548 300.180 185.819 C 300.180 198.090 310.079 207.989 322.350 207.989 C 334.622 207.989 344.521 198.090 344.521 185.819 M 377.561 185.819 C 377.561 173.547 387.460 163.648 399.732 163.648 C 412.003 163.648 421.902 173.548 421.902 185.819 C 421.902 198.090 412.003 207.989 399.732 207.989 C 387.460 207.989 377.561 198.090 377.561 185.819 Z"/>
<path fill="#ffffff" fill-rule="evenodd" stroke="#000000" stroke-width="4" stroke-linecap="round" stroke-linejoin="round" d="M 302.389 310.935 C 303.546 310.935 304.480 311.869 304.480 313.026 C 304.480 314.184 303.546 315.117 302.389 315.117 C 301.231 315.117 300.298 314.183 300.298 313.026 C 300.298 311.869 301.231 310.935 302.389 310.935 Z"/>
<path fill="#ffffff" fill-rule="evenodd" stroke="#000000" stroke-width="4" stroke-linecap="round" stroke-linejoin="round" d="M 417.391 310.935 C 418.548 310.935 419.482 311.869 419.482 313.026 C 419.482 314.184 418.548 315.117 417.391 315.117 C 416.233 315.117 415.299 314.184 415.299 313.026 C 415.299 311.869 416.233 310.935 417.391 310.935 Z"/>
<path fill="none" stroke="#000000" stroke-width="4" stroke-linecap="round" stroke-linejoin="round" d="M 343.166 241.383 C 343.966 237.120 354.034 240.356 361.041 240.356 C 368.049 240.356 378.116 237.120 378.916 241.383 C 379.772 245.941 368.534 248.239 361.041 248.239 C 353.548 248.239 342.310 245.941 343.166 241.383 "/>
<path fill="none" stroke="#000000" stroke-width="4" stroke-linecap="round" stroke-linejoin="round" d="M 364.016 76.424 C 366.488 53.316 336.817 49.144 340.970 28.892 C 345.597 6.331 368.998 5.944 375.661 18.459 C 382.558 31.415 367.706 45.098 360.813 33.162 "/>
</g>
<g id="specs_2">
<path fill="#ff00ff" fill-rule="evenodd" stroke="none" d="M 275.934 445.963 C 275.950 445.963 444.050 445.963 444.066 445.963 C 444.066 445.946 444.066 277.848 444.066 277.831 C 444.050 277.831 275.950 277.831 275.934 277.831 C 275.934 277.848 275.934 445.946 275.934 445.963 Z"/>
<path fill="#ff0000" fill-rule="evenodd" stroke="none" d="M 360.000 680.146 C 360.001 680.150 371.863 713.364 371.864 713.367 C 371.863 713.366 360.001 702.329 360.000 702.328 C 359.999 702.329 348.137 713.366 348.136 713.367 C 348.137 713.364 359.999 680.150 360.000 680.146 Z"/>
<path fill="#0000ff" fill-rule="evenodd" stroke="none" d="M 360.000 45.989 C 360.001 45.991 366.891 65.284 366.892 65.286 C 366.891 65.285 360.001 58.874 360.000 58.874 C 359.999 58.874 353.109 65.285 353.108 65.286 C 353.109 65.284 359.999 45.991 360.000 45.989 Z"/>
<path fill="#00ff00" fill-rule="evenodd" stroke="none" d="M 248.723 342.706 C 248.725 342.706 267.353 335.947 267.355 335.946 C 267.354 335.947 261.187 342.643 261.186 342.643 C 261.187 342.644 267.421 349.277 267.422 349.278 C 267.420 349.277 248.725 342.707 248.723 342.706 Z"/>
<path fill="#ffff00" fill-rule="evenodd" stroke="none" d="M 173.736 581.778 C 173.737 581.776 180.625 566.779 180.626 566.777 C 180.626 566.778 180.989 574.351 180.989 574.352 C 180.990 574.352 188.569 574.536 188.570 574.536 C 188.568 574.536 173.738 581.777 173.736 581.778 Z"/>
<path fill="#ffff00" fill-rule="evenodd" stroke="none" d="M 546.264 581.594 C 546.263 581.593 539.075 566.736 539.074 566.735 C 539.074 566.735 538.864 574.315 538.864 574.315 C 538.863 574.315 531.288 574.651 531.287 574.651 C 531.289 574.652 546.262 581.593 546.264 581.594 Z"/>
<path fill="#00ff00" fill-rule="evenodd" stroke="none" d="M 471.277 342.706 C 471.275 342.706 452.647 335.947 452.645 335.946 C 452.646 335.947 458.813 342.643 458.814 342.643 C 458.813 342.644 452.579 349.277 452.578 349.278 C 452.580 349.277 471.275 342.707 471.277 342.706 Z"/>
<path fill="#00ffff" fill-rule="evenodd" stroke="none" d="M 580.165 120.459 C 580.164 120.461 573.626 138.921 573.626 138.923 C 573.625 138.922 572.388 130.011 572.388 130.010 C 572.387 130.010 563.410 130.603 563.409 130.603 C 563.411 130.602 580.163 120.460 580.165 120.459 Z"/>
<path fill="#00ffff" fill-rule="evenodd" stroke="none" d="M 139.942 121.071 C 139.943 121.073 147.697 139.056 147.697 139.058 C 147.697 139.057 148.338 130.083 148.338 130.082 C 148.339 130.082 157.336 130.075 157.336 130.075 C 157.335 130.074 139.944 121.072 139.942 121.071 Z"/>
<path fill="#be0027" fill-rule="evenodd" stroke="none" d="M 360.000 484.203 C 360.001 484.199 371.863 450.985 371.864 450.982 C 371.863 450.983 360.001 462.020 360.000 462.021 C 359.999 462.020 348.137 450.983 348.136 450.982 C 348.137 450.985 359.999 484.199 360.000 484.203 Z"/>
</g>
</g>
</svg>
