<?xml version="1.0" encoding="utf-8"?>
<!-- Generator: Moho 12.5 build 22414 -->
<!DOCTYPE svg PUBLIC "-//W3C//DTD SVG 1.1//EN" "http://www.w3.org/Graphics/SVG/1.1/DTD/svg11.dtd">
<svg version="1.1" id="Frame_0" xmlns="http://www.w3.org/2000/svg" xmlns:xlink="http://www.w3.org/1999/xlink" width="720px" height="720px">
<g id="banner_vertical">
<g id="banner_2">
<path fill="#ffffff" fill-rule="evenodd" stroke="#000000" stroke-width="4" stroke-linejoin="round" d="M 488.619 449.383 C 474.810 454.881 484.749 563.688 474.569 566.022 C 474.569 566.022 474.569 566.022 474.569 566.022 C 474.569 566.022 474.569 566.022 474.569 566.022 C 474.554 566.021 373.051 560.635 323.105 560.326 C 328.110 623.666 322.039 704.917 322.039 704.932 C 322.048 704.920 412.860 588.074 412.869 588.062 C 412.876 588.074 488.078 702.681 488.085 702.692 C 488.085 702.667 499.661 449.086 488.619 449.383 Z"/>
<path fill="#ffffff" fill-rule="evenodd" stroke="#000000" stroke-width="4" stroke-linejoin="round" d="M 474.569 153.978 C 474.554 153.979 373.051 159.366 323.105 159.674 C 328.109 96.334 322.039 15.083 322.039 15.068 C 322.048 15.080 412.859 131.926 412.868 131.938 C 412.876 131.927 488.077 17.320 488.085 17.308 C 488.085 17.334 502.768 267.529 488.619 270.617 C 474.890 264.204 484.909 154.482 474.569 153.978 C 474.569 153.978 474.569 153.978 474.569 153.978 C 474.569 153.978 474.569 153.978 474.569 153.978 Z"/>
<path fill="none" stroke="#ffffff" stroke-width="1" stroke-linecap="butt" stroke-linejoin="round" d="M 323.105 560.326 C 373.051 560.635 474.554 566.021 474.569 566.022 "/>
<path fill="none" stroke="#ffffff" stroke-width="1" stroke-linecap="butt" stroke-linejoin="round" d="M 474.569 153.978 C 474.554 153.979 373.051 159.366 323.105 159.674 "/>
<path fill="none" stroke="#ffffff" stroke-width="1" stroke-linecap="butt" stroke-linejoin="round" d="M 474.569 153.978 C 474.569 153.978 474.569 153.978 474.569 153.978 "/>
<path fill="none" stroke="#ffffff" stroke-width="1" stroke-linecap="butt" stroke-linejoin="round" d="M 474.569 153.978 C 474.569 153.978 474.569 153.978 474.569 153.978 "/>
<path fill="none" stroke="#ffffff" stroke-width="1" stroke-linecap="butt" stroke-linejoin="round" d="M 474.569 566.022 C 474.569 566.022 474.569 566.022 474.569 566.022 "/>
<path fill="none" stroke="#ffffff" stroke-width="1" stroke-linecap="butt" stroke-linejoin="round" d="M 474.569 566.022 C 474.569 566.022 474.569 566.022 474.569 566.022 "/>
<path fill="#ffffff" fill-rule="evenodd" stroke="#000000" stroke-width="4" stroke-linejoin="round" d="M 323.105 560.326 C 373.051 560.635 474.554 566.021 474.569 566.022 C 463.222 564.036 465.247 492.639 467.303 451.911 C 469.092 416.488 466.588 400.430 467.226 360.518 C 467.858 320.949 469.079 303.913 467.303 268.089 C 465.284 227.360 463.466 158.685 474.569 153.978 C 474.554 153.979 373.051 159.366 323.105 159.674 C 299.833 160.244 279.546 158.824 258.450 158.992 C 242.321 165.435 247.102 218.002 248.726 361.305 C 247.282 502.890 239.979 555.836 258.451 561.009 C 288.931 559.104 299.833 559.756 323.105 560.326 M 474.569 153.978 C 474.569 153.978 474.569 153.978 474.569 153.978 C 474.569 153.978 474.569 153.978 474.569 153.978 M 474.569 566.022 C 474.569 566.022 474.569 566.022 474.569 566.022 C 474.569 566.022 474.569 566.022 474.569 566.022 Z"/>
<path fill="none" stroke="#000000" stroke-width="1" stroke-linecap="butt" stroke-linejoin="round" d="M 467.303 268.089 C 465.284 227.360 463.466 158.685 474.569 153.978 "/>
<path fill="none" stroke="#000000" stroke-width="1" stroke-linecap="butt" stroke-linejoin="round" d="M 474.569 153.978 C 474.569 153.978 474.569 153.978 474.569 153.978 "/>
<path fill="none" stroke="#000000" stroke-width="1" stroke-linecap="butt" stroke-linejoin="round" d="M 474.569 153.978 C 474.569 153.978 474.569 153.978 474.569 153.978 "/>
<path fill="none" stroke="#000000" stroke-width="1" stroke-linecap="butt" stroke-linejoin="round" d="M 474.569 153.978 C 484.909 154.482 474.890 264.204 488.619 270.617 "/>
<path fill="#000000" fill-rule="evenodd" stroke="#000000" stroke-width="4" stroke-linejoin="round" d="M 467.303 268.089 C 465.284 227.360 463.466 158.685 474.569 153.978 C 474.569 153.978 474.569 153.978 474.569 153.978 C 474.569 153.978 474.569 153.978 474.569 153.978 C 484.909 154.482 474.890 264.204 488.619 270.617 C 480.647 270.006 474.510 268.944 467.303 268.089 Z"/>
<path fill="none" stroke="#000000" stroke-width="1" stroke-linecap="butt" stroke-linejoin="round" d="M 474.569 566.022 C 463.222 564.036 465.247 492.639 467.303 451.911 "/>
<path fill="none" stroke="#000000" stroke-width="1" stroke-linecap="butt" stroke-linejoin="round" d="M 488.619 449.383 C 474.810 454.881 484.749 563.688 474.569 566.022 "/>
<path fill="none" stroke="#000000" stroke-width="1" stroke-linecap="butt" stroke-linejoin="round" d="M 474.569 566.022 C 474.569 566.022 474.569 566.022 474.569 566.022 "/>
<path fill="none" stroke="#000000" stroke-width="1" stroke-linecap="butt" stroke-linejoin="round" d="M 474.569 566.022 C 474.569 566.022 474.569 566.022 474.569 566.022 "/>
<path fill="#000000" fill-rule="evenodd" stroke="#000000" stroke-width="4" stroke-linejoin="round" d="M 474.569 566.022 C 463.222 564.036 465.247 492.639 467.303 451.911 C 474.510 451.056 480.647 449.994 488.619 449.383 C 474.810 454.881 484.749 563.688 474.569 566.022 C 474.569 566.022 474.569 566.022 474.569 566.022 C 474.569 566.022 474.569 566.022 474.569 566.022 Z"/>
</g>
<g id="specs_2">
<path fill="#ff00ff" fill-rule="evenodd" stroke="none" d="M 450.379 184.293 C 450.379 184.328 450.379 535.672 450.379 535.707 C 450.361 535.707 264.596 535.707 264.577 535.707 C 264.577 535.672 264.577 184.328 264.577 184.293 C 264.596 184.293 450.361 184.293 450.379 184.293 Z"/>
<path fill="#ff0000" fill-rule="evenodd" stroke="none" d="M 537.788 360.000 C 537.792 360.001 572.598 372.432 572.601 372.433 C 572.600 372.432 561.034 360.001 561.033 360.000 C 561.034 359.999 572.600 347.568 572.601 347.567 C 572.598 347.568 537.792 359.999 537.788 360.000 Z"/>
<path fill="#0000ff" fill-rule="evenodd" stroke="none" d="M 237.299 360.000 C 237.301 360.001 257.519 367.221 257.521 367.222 C 257.521 367.221 250.802 360.001 250.802 360.000 C 250.802 359.999 257.521 352.779 257.521 352.778 C 257.519 352.779 237.301 359.999 237.299 360.000 Z"/>
<path fill="#ffff00" fill-rule="evenodd" stroke="none" d="M 495.879 599.383 C 495.878 599.382 481.885 592.612 481.883 592.612 C 481.884 592.612 489.023 592.414 489.023 592.414 C 489.023 592.413 489.339 585.278 489.339 585.278 C 489.340 585.279 495.878 599.382 495.879 599.383 Z"/>
<path fill="#00ff00" fill-rule="evenodd" stroke="none" d="M 410.971 612.228 C 410.971 612.226 403.648 592.044 403.647 592.042 C 403.647 592.043 410.903 598.725 410.903 598.725 C 410.904 598.725 418.090 591.970 418.091 591.969 C 418.090 591.971 410.972 612.226 410.971 612.228 Z"/>
<path fill="#00ffff" fill-rule="evenodd" stroke="none" d="M 247.190 560.127 C 247.191 560.127 261.844 554.937 261.846 554.937 C 261.845 554.937 254.771 553.954 254.771 553.954 C 254.771 553.953 255.241 546.827 255.242 546.827 C 255.241 546.828 247.191 560.126 247.190 560.127 Z"/>
<path fill="#be0027" fill-rule="evenodd" stroke="none" d="M 484.060 360.000 C 484.057 360.001 449.251 372.432 449.247 372.433 C 449.248 372.432 460.814 360.001 460.815 360.000 C 460.814 359.999 449.248 347.568 449.247 347.567 C 449.251 347.568 484.057 359.999 484.060 360.000 Z"/>
<path fill="#ffff00" fill-rule="evenodd" stroke="none" d="M 495.879 120.617 C 495.878 120.618 481.884 127.388 481.883 127.388 C 481.884 127.388 489.022 127.587 489.023 127.587 C 489.023 127.588 489.339 134.722 489.339 134.723 C 489.340 134.721 495.878 120.619 495.879 120.617 Z"/>
<path fill="#00ff00" fill-rule="evenodd" stroke="none" d="M 410.971 107.772 C 410.970 107.774 403.647 127.956 403.647 127.958 C 403.647 127.957 410.902 121.275 410.903 121.275 C 410.904 121.275 418.090 128.030 418.091 128.031 C 418.090 128.029 410.972 107.774 410.971 107.772 Z"/>
<path fill="#00ffff" fill-rule="evenodd" stroke="none" d="M 247.190 159.873 C 247.191 159.874 261.844 165.063 261.846 165.064 C 261.845 165.064 254.772 166.047 254.771 166.047 C 254.771 166.047 255.241 173.173 255.241 173.174 C 255.241 173.172 247.190 159.875 247.190 159.873 Z"/>
</g>
</g>
</svg>
