<?xml version="1.0" encoding="utf-8"?>
<!-- Generator: Moho 13.0.3 build 635 -->
<!DOCTYPE svg PUBLIC "-//W3C//DTD SVG 1.1//EN" "http://www.w3.org/Graphics/SVG/1.1/DTD/svg11.dtd">
<svg version="1.1" id="Frame_0" xmlns="http://www.w3.org/2000/svg" xmlns:xlink="http://www.w3.org/1999/xlink" width="720px" height="720px">
<g id="beaker">
<g id="beaker">
<path fill="#ffffff" fill-rule="evenodd" stroke="#000000" stroke-width="4" stroke-linecap="round" stroke-linejoin="round" d="M 400.000 70.062 C 400.000 70.084 400.000 290.040 400.000 290.062 C 400.016 290.090 560.000 473.315 560.000 570.062 C 560.000 590.062 540.002 610.058 540.000 610.062 C 539.982 610.062 180.018 610.062 180.000 610.062 C 179.998 610.058 160.000 590.062 160.000 570.062 C 160.000 473.315 319.984 290.090 320.000 290.062 C 320.000 290.040 320.000 70.084 320.000 70.062 C 319.998 70.060 300.000 70.062 300.000 50.062 C 300.000 30.062 420.000 30.062 420.000 50.062 C 420.000 70.062 400.002 70.060 400.000 70.062 Z"/>
<path fill="#000000" fill-rule="evenodd" stroke="none" d="M 237.572 441.146 C 271.718 441.138 400.032 441.114 482.219 440.915 C 510.167 483.449 531.601 526.006 534.700 561.470 C 535.938 575.638 523.649 591.285 523.648 591.288 C 523.631 591.289 196.369 591.289 196.352 591.288 C 196.351 591.285 184.057 575.637 185.300 561.470 C 188.412 525.971 209.914 483.389 237.572 441.146 Z"/>
</g>
<g id="specs_2">
<path fill="#ff00ff" fill-rule="evenodd" stroke="none" d="M 247.245 585.778 C 247.268 585.778 472.733 585.778 472.755 585.778 C 472.755 585.764 472.755 445.078 472.755 445.064 C 472.733 445.064 247.268 445.064 247.245 445.064 C 247.245 445.078 247.245 585.764 247.245 585.778 Z"/>
<path fill="#ff0000" fill-rule="evenodd" stroke="none" d="M 360.000 669.197 C 360.001 669.201 372.416 703.964 372.417 703.967 C 372.416 703.966 360.001 692.415 360.000 692.413 C 359.999 692.415 347.584 703.966 347.583 703.967 C 347.584 703.964 359.999 669.201 360.000 669.197 Z"/>
<path fill="#0000ff" fill-rule="evenodd" stroke="none" d="M 360.000 20.758 C 360.001 20.760 367.212 40.953 367.213 40.955 C 367.212 40.955 360.001 34.245 360.000 34.244 C 359.999 34.245 352.788 40.955 352.787 40.955 C 352.788 40.953 359.999 20.760 360.000 20.758 Z"/>
<path fill="#00ff00" fill-rule="evenodd" stroke="none" d="M 286.063 279.049 C 286.065 279.048 303.848 272.595 303.849 272.595 C 303.849 272.595 297.961 278.988 297.960 278.989 C 297.961 278.989 303.913 285.322 303.914 285.323 C 303.912 285.322 286.065 279.049 286.063 279.049 Z"/>
<path fill="#ffff00" fill-rule="evenodd" stroke="none" d="M 174.612 617.556 C 174.612 617.555 181.468 602.628 181.469 602.626 C 181.469 602.627 181.830 610.165 181.830 610.165 C 181.831 610.165 189.374 610.348 189.375 610.348 C 189.374 610.349 174.613 617.556 174.612 617.556 Z"/>
<path fill="#ffff00" fill-rule="evenodd" stroke="none" d="M 545.388 617.374 C 545.388 617.372 538.234 602.585 538.233 602.584 C 538.233 602.584 538.024 610.128 538.024 610.129 C 538.023 610.129 530.483 610.463 530.483 610.463 C 530.484 610.464 545.387 617.373 545.388 617.374 Z"/>
<path fill="#00ff00" fill-rule="evenodd" stroke="none" d="M 433.937 279.049 C 433.935 279.048 416.152 272.595 416.151 272.595 C 416.151 272.595 422.039 278.988 422.040 278.989 C 422.039 278.989 416.087 285.322 416.086 285.323 C 416.088 285.322 433.935 279.049 433.937 279.049 Z"/>
<path fill="#be0027" fill-rule="evenodd" stroke="none" d="M 360.000 636.876 C 360.001 636.873 372.416 602.110 372.417 602.106 C 372.416 602.107 360.001 613.659 360.000 613.660 C 359.999 613.659 347.584 602.107 347.583 602.106 C 347.584 602.110 359.999 636.873 360.000 636.876 Z"/>
</g>
</g>
</svg>
