<?xml version="1.0" encoding="utf-8"?>
<!-- Generator: Moho 13.5 build 20210422 -->
<!DOCTYPE svg PUBLIC "-//W3C//DTD SVG 1.1//EN" "http://www.w3.org/Graphics/SVG/1.1/DTD/svg11.dtd">
<svg version="1.1" id="Frame_0" xmlns="http://www.w3.org/2000/svg" xmlns:xlink="http://www.w3.org/1999/xlink" width="720px" height="720px">
<g id="beaker">
<g id="beaker">
<path fill="#ffffff" fill-rule="evenodd" stroke="#000000" stroke-width="4" stroke-linecap="round" stroke-linejoin="round" d="M 400.050 69.701 C 400.050 69.723 400.050 289.953 400.050 289.975 C 400.066 290.003 560.249 473.456 560.249 570.323 C 560.249 590.348 540.226 610.369 540.224 610.373 C 540.206 610.373 179.794 610.373 179.776 610.373 C 179.774 610.369 159.751 590.348 159.751 570.323 C 159.751 473.456 319.934 290.003 319.950 289.975 C 319.950 289.953 319.950 69.723 319.950 69.701 C 319.948 69.699 299.925 69.701 299.926 49.676 C 299.926 29.651 420.075 29.651 420.075 49.676 C 420.075 69.701 400.052 69.699 400.050 69.701 Z"/>
<path fill="#000000" fill-rule="evenodd" stroke="none" d="M 237.419 441.248 C 271.608 441.239 400.082 441.215 482.371 441.015 C 510.354 483.603 531.815 526.212 534.918 561.721 C 536.158 575.906 523.853 591.573 523.852 591.576 C 523.835 591.577 196.165 591.577 196.148 591.576 C 196.147 591.573 183.838 575.906 185.082 561.721 C 188.198 526.178 209.727 483.543 237.419 441.248 Z"/>
</g>
<g id="specs_2">
<path fill="#ff00ff" fill-rule="evenodd" stroke="none" d="M 247.105 586.060 C 247.127 586.060 472.873 586.060 472.895 586.060 C 472.895 586.045 472.895 445.184 472.895 445.170 C 472.873 445.170 247.127 445.170 247.105 445.170 C 247.105 445.184 247.105 586.045 247.105 586.060 Z"/>
<path fill="#ff0000" fill-rule="evenodd" stroke="none" d="M 360.000 669.583 C 360.001 669.586 372.432 704.392 372.433 704.396 C 372.432 704.395 360.001 692.829 360.000 692.828 C 359.999 692.829 347.568 704.395 347.567 704.396 C 347.568 704.392 359.999 669.586 360.000 669.583 Z"/>
<path fill="#0000ff" fill-rule="evenodd" stroke="none" d="M 360.000 20.336 C 360.001 20.338 367.221 40.556 367.222 40.558 C 367.221 40.557 360.001 33.839 360.000 33.839 C 359.999 33.839 352.779 40.557 352.778 40.558 C 352.779 40.556 359.999 20.338 360.000 20.336 Z"/>
<path fill="#00ff00" fill-rule="evenodd" stroke="none" d="M 285.971 278.948 C 285.973 278.947 303.778 272.487 303.779 272.486 C 303.779 272.487 297.884 278.887 297.883 278.888 C 297.884 278.889 303.843 285.229 303.844 285.230 C 303.842 285.229 285.973 278.949 285.971 278.948 Z"/>
<path fill="#ffff00" fill-rule="evenodd" stroke="none" d="M 174.381 617.877 C 174.381 617.876 181.246 602.930 181.246 602.929 C 181.246 602.929 181.608 610.476 181.608 610.477 C 181.609 610.477 189.162 610.660 189.163 610.660 C 189.161 610.661 174.382 617.877 174.381 617.877 Z"/>
<path fill="#ffff00" fill-rule="evenodd" stroke="none" d="M 545.619 617.694 C 545.619 617.693 538.456 602.888 538.455 602.886 C 538.455 602.887 538.245 610.440 538.245 610.441 C 538.245 610.441 530.696 610.775 530.695 610.775 C 530.697 610.776 545.618 617.694 545.619 617.694 Z"/>
<path fill="#00ff00" fill-rule="evenodd" stroke="none" d="M 434.029 278.948 C 434.027 278.947 416.222 272.487 416.221 272.486 C 416.221 272.487 422.116 278.887 422.117 278.888 C 422.116 278.889 416.157 285.229 416.156 285.230 C 416.158 285.229 434.027 278.949 434.029 278.948 Z"/>
<path fill="#be0027" fill-rule="evenodd" stroke="none" d="M 360.000 637.221 C 360.001 637.218 372.432 602.412 372.433 602.408 C 372.432 602.409 360.001 613.975 360.000 613.976 C 359.999 613.975 347.568 602.409 347.567 602.408 C 347.568 602.412 359.999 637.218 360.000 637.221 Z"/>
</g>
</g>
</svg>
