<?xml version="1.0" encoding="utf-8"?>
<!-- Generator: Moho 13.5 build 20210422 -->
<!DOCTYPE svg PUBLIC "-//W3C//DTD SVG 1.1//EN" "http://www.w3.org/Graphics/SVG/1.1/DTD/svg11.dtd">
<svg version="1.1" id="Frame_0" xmlns="http://www.w3.org/2000/svg" xmlns:xlink="http://www.w3.org/1999/xlink" width="720px" height="720px">
<g id="bicycle">
<g id="bicycle_2">
<path fill="#ffffff" fill-rule="evenodd" stroke="#000000" stroke-width="4" stroke-linecap="round" stroke-linejoin="round" d="M 50.891 534.300 C 50.891 473.253 100.138 424.005 161.186 424.005 C 222.234 424.005 271.482 473.252 271.482 534.300 C 271.482 595.348 222.234 644.595 161.186 644.595 C 100.139 644.595 50.891 595.348 50.891 534.300 M 448.596 534.300 C 448.596 473.484 497.656 424.424 558.472 424.424 C 619.288 424.423 668.349 473.484 668.349 534.300 C 668.349 595.116 619.288 644.176 558.472 644.176 C 497.656 644.176 448.596 595.116 448.596 534.300 M 29.213 534.300 C 29.213 461.065 88.293 401.985 161.528 401.985 C 234.763 401.985 293.842 461.065 293.842 534.300 C 293.842 607.535 234.763 666.614 161.528 666.614 C 88.293 666.614 29.213 607.535 29.213 534.300 M 426.158 534.300 C 426.158 461.065 485.237 401.985 558.472 401.985 C 631.707 401.985 690.787 461.065 690.787 534.300 C 690.787 607.535 631.707 666.614 558.472 666.614 C 485.237 666.614 426.158 607.535 426.158 534.300 Z"/>
<path fill="#ffffff" fill-rule="evenodd" stroke="#000000" stroke-width="4" stroke-linecap="round" stroke-linejoin="round" d="M 476.249 370.496 C 476.240 370.511 411.407 468.086 379.005 516.850 C 382.628 518.817 361.157 534.129 361.156 534.128 C 294.613 533.909 216.691 534.973 161.528 533.470 C 161.535 533.455 234.465 359.902 234.473 359.885 C 221.608 339.929 208.743 319.973 195.879 300.018 C 195.876 300.018 166.648 301.107 166.645 301.108 C 145.182 305.453 146.512 280.641 157.592 279.295 C 190.355 275.315 277.931 282.349 270.278 294.826 C 266.642 300.753 216.528 300.383 216.523 300.383 C 216.526 300.388 244.001 342.068 244.003 342.072 C 244.025 342.072 462.919 342.072 462.941 342.072 C 462.937 342.063 423.902 249.483 423.898 249.474 C 423.903 249.474 475.324 249.071 475.329 249.071 C 475.330 249.070 488.755 249.988 488.643 236.504 C 488.548 224.989 472.983 223.842 472.981 223.841 C 472.972 223.841 375.433 224.773 375.424 224.773 C 375.423 224.772 371.288 220.069 371.317 215.500 C 371.347 210.799 375.687 206.026 375.687 206.025 C 375.697 206.025 473.431 206.452 473.441 206.452 C 473.444 206.455 505.323 207.246 505.126 239.940 C 504.982 264.012 476.576 265.174 476.573 265.177 C 476.570 265.177 458.484 265.215 449.440 265.234 C 460.071 290.847 481.332 342.064 481.332 342.072 C 481.345 342.086 565.099 532.623 565.109 532.641 C 559.539 534.016 548.456 535.809 548.454 535.809 C 548.447 535.792 476.257 370.513 476.249 370.496 M 353.687 510.014 C 356.651 509.053 363.317 509.822 363.318 509.822 C 396.547 459.583 462.996 359.120 463.006 359.105 C 462.985 359.105 324.317 359.299 254.972 359.396 C 254.982 359.411 320.874 459.949 353.687 510.014 M 338.566 518.388 C 338.566 518.388 185.936 518.388 185.920 518.387 C 185.927 518.373 246.475 375.711 246.481 375.697 C 246.490 375.711 338.557 518.373 338.566 518.388 Z"/>
<path fill="#ffffff" fill-rule="evenodd" stroke="#000000" stroke-width="4" stroke-linecap="round" stroke-linejoin="round" d="M 324.440 534.300 C 324.440 513.998 340.817 497.620 361.119 497.620 C 381.421 497.620 397.799 513.998 397.799 534.300 C 397.799 554.602 381.421 570.980 361.119 570.980 C 340.817 570.980 324.440 554.602 324.440 534.300 M 137.247 534.300 C 137.247 521.049 147.936 510.360 161.186 510.360 C 174.437 510.360 185.126 521.049 185.126 534.300 C 185.126 547.550 174.437 558.239 161.186 558.239 C 147.936 558.239 137.247 547.550 137.247 534.300 M 536.533 534.300 C 536.533 522.156 546.329 512.360 558.472 512.360 C 570.616 512.360 580.412 522.156 580.412 534.300 C 580.412 546.443 570.616 556.240 558.472 556.240 C 546.329 556.240 536.533 546.443 536.533 534.300 Z"/>
</g>
<g id="specs_2">
<path fill="#ff00ff" fill-rule="evenodd" stroke="none" d="M 48.712 290.865 C 48.741 290.865 338.315 290.865 338.344 290.865 C 338.344 290.839 338.344 21.016 338.344 20.989 C 338.315 20.989 48.741 20.989 48.712 20.989 C 48.712 21.016 48.712 290.839 48.712 290.865 Z"/>
<path fill="#ff0000" fill-rule="evenodd" stroke="none" d="M 360.000 674.899 C 360.001 674.902 372.432 709.708 372.433 709.712 C 372.432 709.710 360.001 698.145 360.000 698.143 C 359.999 698.145 347.568 709.710 347.567 709.712 C 347.568 709.708 359.999 674.902 360.000 674.899 Z"/>
<path fill="#0000ff" fill-rule="evenodd" stroke="none" d="M 434.970 176.225 C 434.971 176.227 442.192 196.445 442.192 196.447 C 442.192 196.446 434.971 189.728 434.970 189.728 C 434.970 189.728 427.749 196.446 427.748 196.447 C 427.749 196.445 434.970 176.227 434.970 176.225 Z"/>
<path fill="#00ff00" fill-rule="evenodd" stroke="none" d="M 15.614 528.330 C 15.616 528.329 35.969 521.006 35.971 521.006 C 35.970 521.006 29.232 528.261 29.231 528.262 C 29.232 528.263 36.043 535.449 36.044 535.450 C 36.042 535.449 15.616 528.331 15.614 528.330 Z"/>
<path fill="#ffff00" fill-rule="evenodd" stroke="none" d="M 92.673 660.491 C 92.674 660.489 102.586 640.979 102.587 640.977 C 102.587 640.978 103.108 650.830 103.108 650.831 C 103.109 650.831 114.014 651.070 114.015 651.070 C 114.013 651.071 92.676 660.490 92.673 660.491 Z"/>
<path fill="#ffff00" fill-rule="evenodd" stroke="none" d="M 628.652 660.252 C 628.651 660.250 618.310 640.924 618.309 640.922 C 618.308 640.923 618.005 650.782 618.005 650.783 C 618.004 650.783 607.106 651.220 607.105 651.220 C 607.107 651.221 628.650 660.251 628.652 660.252 Z"/>
<path fill="#00ff00" fill-rule="evenodd" stroke="none" d="M 704.615 528.330 C 704.613 528.329 684.260 521.006 684.258 521.006 C 684.259 521.006 690.997 528.261 690.998 528.262 C 690.997 528.263 684.185 535.449 684.184 535.450 C 684.186 535.449 704.613 528.331 704.615 528.330 Z"/>
<path fill="#be0027" fill-rule="evenodd" stroke="none" d="M 363.318 592.008 C 363.320 592.004 375.750 557.198 375.751 557.195 C 375.750 557.196 363.320 568.762 363.318 568.763 C 363.317 568.762 350.887 557.196 350.885 557.195 C 350.887 557.198 363.317 592.004 363.318 592.008 Z"/>
</g>
</g>
</svg>
