<?xml version="1.0" encoding="utf-8"?>
<!-- Generator: Moho 13.5.1 build 20210623 -->
<!DOCTYPE svg PUBLIC "-//W3C//DTD SVG 1.1//EN" "http://www.w3.org/Graphics/SVG/1.1/DTD/svg11.dtd">
<svg version="1.1" id="Frame_0" xmlns="http://www.w3.org/2000/svg" xmlns:xlink="http://www.w3.org/1999/xlink" width="720px" height="720px">
<g id="bike_recumbent">
<g id="bike_recumbent">
<path id="S5" fill="#ffffff" fill-rule="evenodd" stroke="#000000" stroke-width="2" stroke-linejoin="round" d="M 598.787 419.844 C 606.311 419.844 612.379 425.913 612.380 433.436 C 612.380 440.960 606.311 447.029 598.787 447.029 C 591.264 447.029 585.195 440.960 585.195 433.436 C 585.195 425.913 591.264 419.844 598.787 419.844 Z"/>
<path id="S3" fill="#ffffff" fill-rule="evenodd" stroke="#000000" stroke-width="2" stroke-linejoin="round" d="M 436.864 384.682 C 436.867 384.682 463.734 384.682 463.737 384.682 C 463.737 384.682 463.737 393.894 463.737 393.895 C 463.734 393.895 436.867 393.895 436.864 393.895 C 436.864 393.894 436.864 384.682 436.864 384.682 Z"/>
<path id="S1" fill="#ffffff" fill-rule="evenodd" stroke="#000000" stroke-width="2" stroke-linejoin="round" d="M 544.025 433.436 C 544.025 403.126 568.477 378.674 598.787 378.674 C 629.098 378.674 653.550 403.126 653.550 433.436 C 653.550 463.747 629.098 488.199 598.787 488.199 C 568.477 488.199 544.025 463.747 544.025 433.436 M 66.658 405.982 C 66.658 360.380 103.446 323.592 149.048 323.592 C 194.650 323.592 231.438 360.380 231.438 405.982 C 231.438 451.584 194.650 488.372 149.048 488.372 C 103.446 488.372 66.658 451.584 66.658 405.982 M 54.031 405.982 C 54.031 353.391 96.457 310.966 149.048 310.966 C 201.639 310.966 244.065 353.391 244.065 405.982 C 244.065 458.573 201.639 500.999 149.048 500.999 C 96.457 500.999 54.031 458.573 54.031 405.982 M 531.606 433.436 C 531.606 396.252 561.603 366.255 598.787 366.255 C 635.972 366.255 665.969 396.252 665.969 433.436 C 665.969 470.621 635.972 500.618 598.787 500.618 C 561.603 500.618 531.606 470.621 531.606 433.436 Z"/>
<path id="S2" fill="#ffffff" fill-rule="evenodd" stroke="#000000" stroke-width="2" stroke-linejoin="round" d="M 192.278 224.826 C 188.130 220.807 175.312 222.977 175.310 222.977 C 175.317 222.992 248.600 371.577 248.608 371.592 C 248.616 371.591 330.196 356.110 330.205 356.108 C 330.205 356.106 337.379 345.464 333.464 340.084 C 328.530 333.305 265.466 356.221 260.558 354.153 C 250.891 350.079 201.526 233.786 192.278 224.826 M 510.985 342.488 C 510.979 342.489 457.050 353.015 457.045 353.016 C 457.047 353.022 477.437 406.846 477.440 406.851 C 477.444 406.847 520.079 360.613 520.083 360.609 C 520.082 360.607 510.986 342.490 510.985 342.488 M 279.021 420.065 C 279.039 420.064 464.096 411.412 464.114 411.411 C 464.112 411.405 443.359 355.674 443.357 355.668 C 443.340 355.671 276.999 385.290 276.982 385.293 C 276.982 385.296 279.021 420.061 279.021 420.065 M 263.536 419.865 C 263.525 419.864 159.484 412.586 159.899 408.812 C 160.468 403.641 261.544 388.228 261.554 388.226 C 261.555 388.229 263.536 419.862 263.536 419.865 M 144.640 419.533 C 144.640 419.531 145.868 397.303 145.868 397.301 C 145.904 397.295 507.708 331.549 507.745 331.543 C 506.243 324.917 496.219 305.369 493.165 300.957 C 492.316 299.730 473.257 305.259 472.361 304.951 C 468.647 303.675 431.488 231.812 426.454 230.162 C 423.289 229.125 375.308 248.240 373.989 247.256 C 373.756 247.083 371.280 238.287 371.431 237.887 C 372.437 235.226 430.757 218.128 433.223 219.001 C 436.595 220.196 475.820 293.492 479.028 294.585 C 479.806 294.849 498.512 289.847 500.024 290.362 C 509.715 293.657 541.025 386.180 566.236 410.593 C 573.915 418.029 597.947 430.274 602.309 431.724 C 606.419 433.091 603.492 440.025 599.294 438.565 C 595.832 437.360 565.825 425.061 556.656 416.984 C 545.942 407.547 525.737 370.494 525.734 370.489 C 525.729 370.494 478.943 421.453 478.938 421.458 C 478.916 421.459 272.598 435.146 261.995 433.705 C 224.361 428.589 144.651 419.534 144.640 419.533 Z"/>
<path id="S4" fill="#ffffff" fill-rule="evenodd" stroke="#000000" stroke-width="2" stroke-linejoin="round" d="M 127.920 405.982 C 127.919 394.288 137.353 384.853 149.048 384.853 C 160.742 384.853 170.176 394.288 170.176 405.982 C 170.176 417.677 160.742 427.111 149.048 427.111 C 137.354 427.111 127.920 417.677 127.920 405.982 M 451.755 419.232 C 451.755 405.208 463.069 393.895 477.092 393.895 C 491.116 393.895 502.429 405.208 502.429 419.232 C 502.429 433.256 491.116 444.569 477.092 444.569 C 463.069 444.569 451.755 433.256 451.755 419.232 Z"/>
<path id="S6" fill="#ffffff" fill-rule="evenodd" stroke="#000000" stroke-width="2" stroke-linejoin="round" d="M 472.754 419.524 C 472.983 414.995 479.885 411.107 482.853 415.677 C 485.225 419.327 500.164 459.915 500.165 459.919 C 500.165 459.919 493.433 460.881 493.433 460.881 C 493.431 460.877 472.469 425.165 472.754 419.524 Z"/>
<path id="S7" fill="#ffffff" fill-rule="evenodd" stroke="#000000" stroke-width="2" stroke-linejoin="round" d="M 484.221 456.778 C 484.224 456.778 511.091 456.778 511.094 456.778 C 511.094 456.779 511.094 465.990 511.094 465.991 C 511.091 465.991 484.224 465.991 484.221 465.991 C 484.221 465.990 484.221 456.779 484.221 456.778 Z"/>
</g>
<g id="specs_2">
<path fill="#00ff00" fill-rule="evenodd" stroke="none" d="M 41.046 429.133 C 41.048 429.132 59.891 422.294 59.893 422.293 C 59.893 422.294 53.654 429.068 53.653 429.069 C 53.654 429.069 59.961 435.779 59.961 435.780 C 59.959 435.779 41.048 429.133 41.046 429.133 Z"/>
<path fill="#00ff00" fill-rule="evenodd" stroke="none" d="M 678.954 429.133 C 678.952 429.132 660.109 422.294 660.107 422.293 C 660.107 422.294 666.346 429.068 666.347 429.069 C 666.346 429.069 660.039 435.779 660.039 435.780 C 660.041 435.779 678.952 429.133 678.954 429.133 Z"/>
<path fill="#ff0000" fill-rule="evenodd" stroke="none" d="M 377.034 539.539 C 377.035 539.543 389.466 574.349 389.467 574.352 C 389.466 574.351 377.035 562.785 377.034 562.784 C 377.033 562.785 364.602 574.351 364.601 574.352 C 364.602 574.349 377.033 539.543 377.034 539.539 Z"/>
<path fill="#000000" fill-rule="evenodd" stroke="none" d="M 311.519 279.832 C 311.520 279.834 318.740 300.052 318.741 300.054 C 318.740 300.053 311.520 293.335 311.519 293.335 C 311.518 293.335 304.298 300.053 304.297 300.054 C 304.298 300.052 311.518 279.834 311.519 279.832 Z"/>
<path fill="#be0027" fill-rule="evenodd" stroke="none" d="M 377.034 524.466 C 377.035 524.462 389.466 489.656 389.467 489.653 C 389.466 489.654 377.035 501.220 377.034 501.221 C 377.033 501.220 364.602 489.654 364.601 489.653 C 364.602 489.656 377.033 524.462 377.034 524.466 Z"/>
</g>
</g>
</svg>
