<?xml version="1.0" encoding="utf-8"?>
<!-- Generator: Moho 13.5 build 20210422 -->
<!DOCTYPE svg PUBLIC "-//W3C//DTD SVG 1.1//EN" "http://www.w3.org/Graphics/SVG/1.1/DTD/svg11.dtd">
<svg version="1.1" id="Frame_0" xmlns="http://www.w3.org/2000/svg" xmlns:xlink="http://www.w3.org/1999/xlink" width="720px" height="720px">
<g id="bird">
<g id="bird">
<radialGradient id="35A1622C-BC14-421B-9EAC-C28EAC897FE8_0" cx="50.00%" cy="46.06%" r="100.05%">
<stop offset="10.59%" style="stop-color:rgb(255,255,255);stop-opacity:1.00" />
<stop offset="100.00%" style="stop-color:rgb(0,0,0);stop-opacity:1.00" />
</radialGradient>
<path fill="url(#35A1622C-BC14-421B-9EAC-C28EAC897FE8_0)" fill-rule="evenodd" stroke="#000000" stroke-width="3" stroke-linecap="round" stroke-linejoin="round" d="M 430.786 427.519 C 398.773 416.491 402.622 398.877 398.210 372.631 C 393.451 408.420 379.892 422.784 382.060 430.053 C 400.332 491.314 428.570 561.865 399.987 549.978 C 385.754 544.060 372.795 474.138 372.792 474.131 C 372.791 474.140 385.120 567.487 360.000 567.848 C 332.253 568.246 347.209 474.140 347.208 474.131 C 347.205 474.138 335.423 541.538 320.013 549.978 C 286.468 568.353 318.877 492.412 338.147 430.180 C 340.150 423.713 325.737 408.767 322.289 373.711 C 322.302 391.683 323.087 418.593 292.734 427.519 C 271.683 433.709 303.073 341.938 303.074 341.930 C 303.068 341.937 283.677 409.765 239.446 414.390 C 220.935 416.325 274.851 322.086 274.855 322.077 C 274.847 322.084 234.835 393.718 193.108 391.993 C 173.991 391.203 242.530 303.187 242.535 303.178 C 242.526 303.184 192.128 370.455 152.176 361.101 C 133.472 356.722 217.043 282.334 217.049 282.327 C 217.039 282.331 151.134 344.994 118.195 326.347 C 102.706 317.579 187.695 262.253 187.702 262.247 C 187.690 262.250 119.202 312.615 75.718 290.822 C 57.730 281.807 164.524 231.361 164.533 231.355 C 164.521 231.355 90.767 261.168 51.005 229.038 C 35.182 216.253 153.831 195.832 153.841 195.829 C 153.828 195.826 75.187 204.864 26.291 164.165 C 2.072 144.005 140.701 157.245 193.661 167.162 C 219.342 171.971 236.245 226.545 254.499 255.802 C 278.525 294.311 315.652 315.984 321.890 307.778 C 326.921 301.160 324.285 288.622 325.626 278.177 C 327.377 264.542 331.832 250.771 342.698 244.192 C 347.169 241.486 359.998 195.519 360.000 195.514 C 360.002 195.519 373.067 242.579 377.302 244.192 C 389.172 248.715 392.840 264.516 394.374 278.177 C 395.564 288.785 392.669 301.502 398.306 307.778 C 404.500 314.673 435.636 295.478 461.210 257.434 C 479.200 230.670 502.183 170.642 527.607 167.162 C 580.990 159.855 719.196 144.005 694.976 164.165 C 646.081 204.864 567.439 195.826 567.427 195.829 C 567.437 195.832 686.086 216.253 670.263 229.038 C 630.501 261.168 556.746 231.355 556.735 231.355 C 556.744 231.361 663.537 281.807 645.549 290.822 C 602.066 312.615 533.577 262.250 533.566 262.247 C 533.573 262.253 618.562 317.579 603.073 326.347 C 570.134 344.994 504.229 282.331 504.219 282.327 C 504.225 282.334 587.796 356.722 569.092 361.101 C 529.140 370.455 478.742 303.184 478.733 303.178 C 478.738 303.187 547.277 391.203 528.160 391.993 C 486.432 393.718 446.421 322.084 446.413 322.077 C 446.417 322.086 500.333 416.325 481.822 414.390 C 437.591 409.765 418.200 341.937 418.194 341.930 C 418.195 341.938 448.357 433.572 430.786 427.519 M 345.845 271.049 C 345.845 263.217 352.163 256.899 359.995 256.899 C 367.827 256.899 374.145 263.217 374.145 271.049 C 374.146 278.882 367.827 285.200 359.995 285.200 C 352.163 285.200 345.845 278.882 345.845 271.049 Z"/>
</g>
<g id="specs_2">
<path fill="#ff00ff" fill-rule="evenodd" stroke="none" d="M 274.104 452.671 C 274.121 452.671 445.879 452.671 445.896 452.671 C 445.896 452.655 445.896 291.196 445.896 291.180 C 445.879 291.180 274.121 291.180 274.104 291.180 C 274.104 291.196 274.104 452.655 274.104 452.671 Z"/>
<path fill="#ff0000" fill-rule="evenodd" stroke="none" d="M 360.000 606.150 C 360.001 606.153 370.574 635.757 370.575 635.760 C 370.574 635.759 360.001 625.922 360.000 625.921 C 359.999 625.922 349.426 635.759 349.425 635.760 C 349.426 635.757 359.999 606.153 360.000 606.150 Z"/>
<path fill="#0000ff" fill-rule="evenodd" stroke="none" d="M 360.000 184.341 C 360.001 184.342 366.142 201.539 366.143 201.541 C 366.142 201.540 360.001 195.826 360.000 195.825 C 359.999 195.826 353.858 201.540 353.857 201.541 C 353.858 201.539 359.999 184.342 360.000 184.341 Z"/>
<path fill="#00ff00" fill-rule="evenodd" stroke="none" d="M 217.224 445.853 C 217.228 445.852 261.749 429.697 261.753 429.696 C 261.752 429.697 247.012 445.701 247.010 445.703 C 247.012 445.705 261.912 461.558 261.914 461.560 C 261.909 461.558 217.228 445.855 217.224 445.853 Z"/>
<path fill="#ffff00" fill-rule="evenodd" stroke="none" d="M 292.974 569.618 C 292.975 569.616 302.895 548.018 302.896 548.016 C 302.896 548.017 303.418 558.923 303.418 558.924 C 303.419 558.924 314.335 559.189 314.336 559.189 C 314.334 559.190 292.976 569.617 292.974 569.618 Z"/>
<path fill="#ffff00" fill-rule="evenodd" stroke="none" d="M 425.890 569.354 C 425.889 569.352 415.538 547.956 415.537 547.954 C 415.537 547.955 415.234 558.870 415.234 558.871 C 415.232 558.871 404.324 559.355 404.323 559.355 C 404.326 559.356 425.888 569.353 425.890 569.354 Z"/>
<path fill="#00ffff" fill-rule="evenodd" stroke="none" d="M 596.190 130.289 C 596.191 130.291 605.624 150.070 605.625 150.071 C 605.624 150.071 597.594 144.000 597.593 143.999 C 597.592 144.000 590.959 151.572 590.958 151.572 C 590.958 151.570 596.189 130.291 596.190 130.289 Z"/>
<path fill="#00ffff" fill-rule="evenodd" stroke="none" d="M 123.612 130.643 C 123.611 130.645 115.518 151.008 115.517 151.011 C 115.518 151.010 123.125 144.417 123.126 144.416 C 123.127 144.417 130.250 151.529 130.251 151.530 C 130.250 151.528 123.613 130.645 123.612 130.643 Z"/>
<path fill="#be0027" fill-rule="evenodd" stroke="none" d="M 360.000 591.443 C 360.001 591.440 370.574 561.836 370.575 561.833 C 370.574 561.834 360.001 571.671 360.000 571.672 C 359.999 571.671 349.426 561.834 349.425 561.833 C 349.426 561.836 359.999 591.440 360.000 591.443 Z"/>
<path fill="#00ff00" fill-rule="evenodd" stroke="none" d="M 502.917 445.853 C 502.913 445.852 458.392 429.697 458.388 429.696 C 458.389 429.697 473.129 445.701 473.131 445.703 C 473.129 445.705 458.229 461.558 458.227 461.560 C 458.232 461.558 502.913 445.855 502.917 445.853 Z"/>
</g>
</g>
</svg>
