<?xml version="1.0" encoding="utf-8"?>
<!-- Generator: Moho 13.5 build 20210422 -->
<!DOCTYPE svg PUBLIC "-//W3C//DTD SVG 1.1//EN" "http://www.w3.org/Graphics/SVG/1.1/DTD/svg11.dtd">
<svg version="1.1" id="Frame_0" xmlns="http://www.w3.org/2000/svg" xmlns:xlink="http://www.w3.org/1999/xlink" width="720px" height="720px">
<g id="halves_mod">
</g>
<g id="halves">
<g id="bitey_half">
<g id="bitey_2">
<path fill="#000000" fill-rule="evenodd" stroke="none" d="M 491.573 447.262 C 491.566 447.264 423.953 464.765 423.946 464.767 C 423.946 464.758 420.634 368.165 420.633 368.155 C 420.640 368.163 491.566 447.254 491.573 447.262 M 376.286 498.308 C 376.280 498.310 308.666 515.812 308.659 515.814 C 308.658 515.804 295.840 415.138 295.839 415.128 C 295.847 415.136 376.278 498.300 376.286 498.308 M 235.045 550.447 C 235.038 550.449 167.232 573.414 167.225 573.416 C 167.225 573.405 159.840 463.232 159.839 463.221 C 159.847 463.229 235.037 550.438 235.045 550.447 M 472.366 265.797 C 472.360 265.795 406.365 242.930 406.359 242.928 C 406.359 242.939 405.061 353.364 405.061 353.375 C 405.068 353.366 472.359 265.806 472.366 265.797 M 353.773 216.561 C 353.767 216.559 287.772 193.696 287.766 193.694 C 287.766 193.705 286.468 304.128 286.467 304.139 C 286.474 304.130 353.766 216.570 353.773 216.561 M 225.528 166.336 C 225.521 166.334 159.527 143.470 159.520 143.468 C 159.520 143.479 158.222 253.903 158.221 253.914 C 158.228 253.906 225.521 166.345 225.528 166.336 Z"/>
<path fill="#ffffff" fill-rule="evenodd" stroke="#000000" stroke-width="4" stroke-linecap="round" stroke-linejoin="round" d="M 676.727 60.303 C 676.655 236.297 676.633 467.196 676.954 654.183 C 328.353 654.487 144.620 569.969 144.567 569.960 C 144.612 569.939 594.754 360.021 594.799 360.000 C 594.750 359.979 110.001 150.061 109.953 150.040 C 110.009 150.031 302.892 42.919 676.727 60.303 Z"/>
<path fill="#000000" fill-rule="evenodd" stroke="none" d="M 324.997 167.456 C 325.012 167.449 386.368 93.646 477.717 96.046 C 569.066 98.446 626.461 175.370 626.476 175.378 C 626.461 175.385 565.105 249.186 473.756 246.786 C 382.407 244.386 325.012 167.464 324.997 167.456 Z"/>
<path fill="#ffffff" fill-rule="evenodd" stroke="none" d="M 477.301 111.897 C 510.244 112.763 536.122 140.036 535.257 172.979 C 534.391 205.923 507.117 231.801 474.173 230.935 C 441.229 230.069 415.352 202.795 416.218 169.852 C 417.084 136.908 444.358 111.032 477.301 111.897 Z"/>
</g>
<g id="specs_2">
<path fill="#ff00ff" fill-rule="evenodd" stroke="none" d="M 35.846 471.192 C 35.871 471.192 284.916 471.192 284.941 471.192 C 284.941 471.170 284.941 248.830 284.941 248.808 C 284.916 248.808 35.871 248.808 35.846 248.808 C 35.846 248.830 35.846 471.170 35.846 471.192 Z"/>
<path fill="#ff0000" fill-rule="evenodd" stroke="none" d="M 641.705 360.000 C 641.710 359.998 694.616 341.103 694.622 341.101 C 694.620 341.103 677.040 359.998 677.038 360.000 C 677.040 360.002 694.620 378.897 694.622 378.899 C 694.616 378.897 641.710 360.002 641.705 360.000 Z"/>
<path fill="#00ff00" fill-rule="evenodd" stroke="none" d="M 487.125 33.161 C 487.124 33.165 473.330 71.181 473.328 71.184 C 473.330 71.183 486.995 58.597 486.997 58.596 C 486.998 58.597 500.535 71.320 500.537 71.321 C 500.535 71.318 487.126 33.165 487.125 33.161 Z"/>
<path fill="#be0027" fill-rule="evenodd" stroke="none" d="M 712.386 360.000 C 712.380 359.998 659.473 341.103 659.468 341.101 C 659.470 341.103 677.051 359.998 677.053 360.000 C 677.051 360.002 659.470 378.897 659.468 378.899 C 659.473 378.897 712.380 360.002 712.386 360.000 Z"/>
<path fill="none" stroke="#ffff00" stroke-width="8" stroke-linecap="round" stroke-linejoin="round" d="M 676.727 60.303 C 676.803 258.263 676.878 456.223 676.954 654.183 "/>
<path fill="#00ff00" fill-rule="evenodd" stroke="none" d="M 487.125 673.083 C 487.124 673.079 473.330 635.064 473.328 635.060 C 473.330 635.061 486.995 647.647 486.997 647.649 C 486.998 647.647 500.535 634.924 500.537 634.923 C 500.535 634.927 487.126 673.079 487.125 673.083 Z"/>
</g>
</g>
</g>
</svg>
