<?xml version="1.0" encoding="utf-8"?>
<!-- Generator: Moho 13.0.3 build 635 -->
<!DOCTYPE svg PUBLIC "-//W3C//DTD SVG 1.1//EN" "http://www.w3.org/Graphics/SVG/1.1/DTD/svg11.dtd">
<svg version="1.1" id="Frame_0" xmlns="http://www.w3.org/2000/svg" xmlns:xlink="http://www.w3.org/1999/xlink" width="720px" height="720px">
<g id="bob">
<g id="Bob">
<path fill="#000000" fill-rule="evenodd" stroke="#ffffff" stroke-width="4" stroke-linecap="round" stroke-linejoin="round" d="M 271.651 539.207 C 271.647 539.211 238.635 573.116 238.631 573.119 C 238.628 573.115 214.605 536.942 206.058 536.530 C 190.161 535.763 157.057 551.757 149.836 584.720 C 148.954 588.745 160.467 628.864 193.118 647.636 C 199.130 651.092 220.325 645.792 225.245 643.174 C 240.420 635.099 285.477 563.310 285.483 563.302 C 285.486 563.306 305.666 590.568 313.148 594.091 C 333.314 603.584 379.969 608.619 405.067 605.692 C 438.767 601.762 467.583 565.074 473.783 557.948 C 483.025 547.325 518.806 477.414 527.774 445.504 C 532.589 428.372 535.805 379.025 535.806 379.019 C 535.807 379.019 544.221 384.677 550.084 381.696 C 561.635 375.823 558.131 343.878 561.240 330.382 C 567.745 302.142 561.869 276.755 570.164 264.343 C 571.470 262.389 566.085 251.733 557.670 242.033 C 556.366 240.529 564.215 232.224 564.363 231.770 C 565.595 227.997 564.143 141.748 559.455 130.034 C 548.812 103.443 505.469 79.172 505.464 79.167 C 505.463 79.164 507.390 65.482 493.416 51.502 C 486.124 44.206 464.027 29.591 452.365 29.638 C 416.516 29.782 407.131 17.685 338.582 25.176 C 332.135 25.880 285.355 25.540 265.404 34.546 C 230.119 50.474 203.329 85.610 191.333 112.186 C 175.685 146.854 181.964 251.835 181.963 251.849 C 181.961 251.851 169.401 263.589 168.576 268.359 C 167.480 274.701 176.940 279.651 178.839 294.685 C 180.607 308.674 180.286 369.262 191.333 383.481 C 193.427 386.175 206.057 391.958 206.058 391.959 C 206.060 391.964 213.155 423.482 220.337 447.288 C 228.820 475.409 271.645 539.198 271.651 539.207 Z"/>
<path fill="#ffffff" fill-rule="evenodd" stroke="none" d="M 192.214 572.790 C 185.637 576.044 170.087 581.010 167.655 577.124 C 165.389 573.503 172.056 562.612 180.657 557.863 C 183.252 556.430 197.500 549.895 200.400 553.047 C 205.291 558.365 198.882 569.492 192.214 572.790 M 175.360 554.010 C 167.413 560.623 151.866 575.622 157.543 585.792 C 163.738 596.888 185.766 587.859 187.398 588.681 C 206.916 598.505 200.784 632.671 212.438 633.464 C 216.436 633.736 221.267 623.057 221.587 619.499 C 222.581 608.451 203.290 580.017 203.289 580.013 C 203.290 580.011 223.246 561.579 209.549 545.343 C 203.142 537.748 189.308 542.405 175.360 554.010 M 390.342 394.636 C 387.218 386.603 388.386 381.821 384.541 379.019 C 383.952 378.589 391.657 369.648 391.681 369.648 C 391.727 369.649 400.616 391.046 400.605 391.066 C 400.600 391.076 393.913 393.743 390.342 394.636 M 501.002 264.789 C 501.001 264.785 491.620 230.469 492.970 221.061 C 494.055 213.502 508.682 187.259 508.587 188.934 C 505.401 245.193 515.456 268.117 515.726 273.267 C 515.914 276.825 517.313 331.324 517.065 331.720 C 517.024 331.786 509.136 337.101 509.033 337.075 C 508.539 336.949 508.587 290.674 508.587 290.669 C 508.586 290.670 500.627 295.481 492.970 296.916 C 491.242 297.240 490.721 292.613 490.739 292.454 C 490.782 292.063 499.608 284.983 499.663 283.976 C 499.818 281.107 483.219 265.413 471.552 263.004 C 456.034 259.801 433.850 268.932 426.485 275.052 C 422.681 278.213 452.813 274.918 472.890 280.407 C 484.726 283.642 494.394 305.164 489.400 315.211 C 488.717 316.586 465.754 315.211 465.751 315.211 C 465.752 315.210 474.114 309.122 473.337 304.948 C 472.423 300.042 460.398 297.363 460.397 297.362 C 460.397 297.364 467.468 299.833 464.859 309.856 C 463.998 313.162 456.828 316.103 456.827 316.103 C 456.826 316.103 446.565 316.103 446.564 316.103 C 446.564 316.105 444.642 324.193 447.010 328.151 C 450.852 334.572 464.476 336.296 464.412 337.075 C 464.372 337.576 453.796 342.842 453.257 342.876 C 451.905 342.961 429.236 335.141 424.700 329.490 C 422.364 326.579 419.599 314.811 420.238 313.872 C 421.028 312.710 440.315 312.980 440.317 312.980 C 440.317 312.979 437.517 308.980 437.194 307.179 C 436.773 304.833 438.532 298.702 438.532 298.701 C 438.530 298.702 410.424 310.748 410.421 310.749 C 410.422 310.748 413.732 300.414 412.652 299.147 C 411.003 297.213 395.805 300.970 394.804 301.825 C 393.346 303.070 388.112 327.256 388.111 327.258 C 388.111 327.256 383.478 301.763 384.988 299.594 C 398.820 279.714 419.581 252.933 432.732 249.618 C 460.308 242.668 481.104 247.881 486.723 250.511 C 488.824 251.494 501.000 264.788 501.002 264.789 M 281.467 312.533 C 280.949 313.366 261.523 314.247 261.388 309.410 C 261.162 301.284 280.127 299.148 280.129 299.147 C 280.128 299.148 277.532 305.054 277.898 307.179 C 278.180 308.820 279.499 314.172 281.467 312.533 M 306.901 291.562 C 299.415 290.279 278.165 290.699 270.758 293.793 C 270.536 293.886 272.376 286.370 272.543 286.207 C 273.147 285.619 298.655 284.417 300.654 285.315 C 301.282 285.597 307.969 290.064 306.901 291.562 M 268.527 265.235 C 261.153 265.105 248.638 272.446 248.002 275.052 C 247.542 276.937 255.748 288.652 256.926 288.885 C 258.229 289.142 267.048 279.286 271.651 278.176 C 277.437 276.781 303.328 280.406 303.332 280.407 C 303.328 280.405 302.964 265.844 268.527 265.235 M 552.316 363.848 C 550.084 348.673 542.500 325.031 542.499 325.028 C 542.499 325.032 539.680 369.553 541.160 370.094 C 541.580 370.248 549.637 374.557 552.316 363.848 M 245.324 298.255 C 239.968 296.469 229.765 293.316 229.707 293.347 C 229.435 293.491 228.575 343.798 236.846 370.094 C 242.804 389.035 259.918 417.758 263.619 418.731 C 268.240 419.946 300.712 400.930 320.734 379.465 C 321.508 378.634 328.307 382.990 329.658 382.142 C 329.711 382.108 321.053 387.858 320.287 390.620 C 319.167 394.660 320.668 404.737 326.534 408.022 C 331.422 410.759 339.179 404.964 341.705 405.345 C 351.455 406.816 357.842 420.383 373.386 419.623 C 382.880 419.159 388.325 408.850 393.912 407.576 C 404.932 405.063 413.708 397.176 416.668 381.696 C 417.262 378.589 431.615 382.862 434.517 383.927 C 448.113 388.919 459.892 411.779 465.751 410.699 C 470.859 409.758 480.029 390.622 480.030 390.620 C 480.032 390.621 489.487 406.198 496.093 405.345 C 500.343 404.796 512.241 381.465 513.942 381.696 C 517.221 382.140 513.008 441.176 514.388 438.810 C 526.990 417.211 532.359 291.856 532.236 290.669 C 532.187 290.199 515.818 239.648 515.280 234.001 C 514.587 226.714 526.356 172.011 523.758 158.146 C 521.978 148.648 502.704 127.325 500.555 111.294 C 499.512 103.506 424.585 155.505 371.601 160.377 C 338.474 163.423 310.001 145.104 286.376 146.990 C 273.115 148.049 239.841 158.408 239.970 160.823 C 241.653 192.357 237.574 261.158 239.524 261.666 C 240.055 261.804 258.459 246.587 261.834 245.602 C 268.221 243.738 300.581 244.096 313.594 250.957 C 328.253 258.686 345.926 281.945 351.076 296.024 C 355.546 308.243 352.411 343.259 351.968 346.892 C 351.530 350.485 341.358 395.134 339.028 395.528 C 335.432 396.137 344.081 321.128 336.351 317.888 C 331.781 315.972 305.724 341.396 297.531 342.430 C 290.706 343.291 260.797 332.719 260.942 331.274 C 261.095 329.740 292.805 334.672 301.547 330.382 C 306.922 327.744 319.108 318.775 318.056 311.641 C 317.034 304.711 297.533 298.702 297.531 298.701 C 297.531 298.702 302.945 302.983 302.885 310.302 C 302.872 311.884 298.497 315.448 297.084 316.103 C 289.089 319.814 255.436 318.392 250.679 314.318 C 248.944 312.833 250.746 300.063 245.324 298.255 M 312.702 398.652 C 310.295 398.650 281.686 422.803 281.467 424.532 C 281.360 425.383 289.064 441.537 291.284 441.934 C 295.512 442.690 307.047 417.059 315.379 412.484 C 315.860 412.220 315.380 398.653 312.702 398.652 M 184.194 263.451 C 179.022 264.076 177.972 268.233 177.501 271.482 C 176.930 275.415 193.352 297.115 196.687 296.916 C 198.011 296.837 205.987 291.078 205.166 287.546 C 204.145 283.156 191.378 265.796 184.194 263.451 M 231.938 428.102 C 228.812 428.988 210.396 369.611 210.074 366.971 C 209.795 364.675 215.389 310.186 215.428 310.749 C 219.106 362.768 227.920 407.118 231.938 428.102 M 379.187 450.858 C 375.169 450.411 363.571 439.704 363.570 439.703 C 363.572 439.702 383.201 428.103 383.203 428.102 C 383.203 428.101 389.232 420.375 389.896 420.070 C 409.253 411.179 429.158 395.084 429.162 395.082 C 429.165 395.086 455.039 433.898 455.042 433.902 C 455.036 433.903 399.848 440.605 394.804 442.380 C 393.330 442.899 384.989 447.287 379.187 450.858 M 406.852 532.068 C 387.965 535.426 355.838 530.551 350.630 535.192 C 346.089 539.237 324.366 583.482 341.259 583.382 C 365.694 583.237 389.861 596.760 402.836 593.198 C 416.805 589.364 450.191 555.329 454.150 549.916 C 460.914 540.669 503.898 448.126 495.201 442.826 C 494.559 442.435 483.780 455.228 481.368 454.874 C 478.763 454.491 473.871 438.528 471.106 437.918 C 464.058 436.364 441.299 471.863 436.748 474.953 C 434.695 476.347 417.351 486.357 415.776 483.877 C 414.976 482.618 421.748 474.674 421.130 473.615 C 420.144 471.923 404.106 477.971 402.836 476.292 C 400.370 473.031 434.454 463.908 433.178 457.105 C 432.610 454.080 420.315 450.204 418.899 449.965 C 415.152 449.334 382.249 457.695 377.402 457.998 C 370.629 458.420 324.638 447.404 318.502 453.535 C 317.466 454.571 315.197 462.727 316.718 463.352 C 324.434 466.522 344.072 473.092 348.398 473.615 C 349.907 473.797 357.989 472.818 360.000 473.168 C 361.493 473.428 366.414 476.236 368.032 476.292 C 370.151 476.364 377.200 472.843 378.741 472.722 C 380.783 472.562 390.280 475.700 393.466 475.399 C 394.667 475.286 396.839 471.554 398.820 473.615 C 401.271 476.165 396.624 479.253 395.696 479.861 C 393.143 481.538 379.696 478.005 376.510 478.523 C 374.849 478.793 369.436 481.810 367.139 482.093 C 363.526 482.538 355.057 477.950 351.522 479.861 C 348.928 481.264 346.078 489.862 346.167 490.124 C 346.639 491.512 399.630 488.185 407.298 489.232 C 409.484 489.530 396.119 501.593 391.234 501.279 C 367.686 499.769 348.625 495.210 345.275 501.279 C 341.452 508.205 351.761 512.411 353.753 513.773 C 358.956 517.330 388.769 510.188 414.884 518.682 C 419.132 520.063 409.059 530.252 406.852 532.068 M 316.272 553.932 C 316.270 553.931 301.994 544.116 301.993 544.115 C 301.995 544.112 325.640 512.438 325.642 512.435 C 325.643 512.436 337.688 526.712 337.690 526.714 C 337.687 526.716 316.274 553.929 316.272 553.932 M 312.702 503.064 C 312.700 503.066 289.947 523.588 289.945 523.590 C 289.943 523.581 254.250 442.738 267.635 438.364 C 271.339 437.154 285.512 446.781 287.714 452.197 C 296.359 473.451 312.699 503.059 312.702 503.064 M 284.591 529.391 C 255.137 482.085 247.549 441.624 248.002 452.197 C 250.022 499.330 277.448 536.075 277.451 536.084 C 277.452 536.083 280.574 533.853 284.591 529.391 Z"/>
<path fill="#ffffff" fill-rule="evenodd" stroke="none" d="M 204.727 376.941 C 200.787 352.571 195.425 334.564 195.424 334.560 C 195.424 334.564 192.601 362.456 195.941 376.941 C 197.993 385.843 205.148 379.544 204.727 376.941 M 540.677 128.338 C 540.676 128.337 530.342 120.586 530.341 120.585 C 530.339 120.586 518.454 130.405 518.453 130.406 C 518.454 130.406 530.791 134.202 532.408 138.158 C 533.932 141.888 528.273 152.629 528.273 152.630 C 528.274 152.631 537.575 157.798 537.576 157.798 C 537.576 157.801 532.408 179.504 532.408 179.506 C 532.409 179.507 539.643 191.392 539.644 191.393 C 539.643 191.395 531.892 205.863 531.891 205.865 C 531.892 205.867 540.430 221.353 541.194 229.123 C 541.899 236.293 537.060 251.862 537.059 251.865 C 537.061 251.866 550.496 265.301 550.497 265.303 C 550.496 265.305 535.881 286.230 539.127 289.077 C 542.955 292.436 562.091 269.360 561.868 267.887 C 561.784 267.328 552.566 260.652 552.565 260.651 C 552.565 260.650 553.082 249.281 553.082 249.280 C 553.081 249.279 544.813 238.944 544.812 238.943 C 544.813 238.940 550.413 204.159 549.981 202.764 C 549.850 202.342 543.262 193.979 543.262 193.978 C 543.263 193.976 551.983 180.850 552.048 176.922 C 552.120 172.567 542.746 157.800 542.745 157.798 C 542.746 157.798 550.014 152.605 549.981 151.596 C 549.930 150.076 537.577 144.361 537.576 144.360 C 537.577 144.359 540.677 128.340 540.677 128.338 M 338.615 71.077 C 347.935 67.122 335.319 46.570 336.930 47.286 C 359.616 57.362 363.091 72.366 363.108 66.319 C 363.139 54.940 359.269 45.900 359.652 46.171 C 380.042 60.547 385.270 81.965 387.111 78.090 C 394.252 63.055 377.263 44.793 378.841 45.604 C 407.215 60.176 408.178 82.418 410.071 80.571 C 421.685 69.237 393.429 46.428 393.759 46.510 C 411.587 50.958 419.682 71.585 422.948 68.131 C 426.011 64.894 402.677 40.061 403.357 40.280 C 427.600 48.105 426.403 59.010 429.358 56.705 C 430.952 55.461 428.042 40.173 428.042 40.172 C 428.045 40.175 452.667 52.045 458.816 73.086 C 461.421 82.003 456.345 116.272 455.679 101.550 C 454.379 72.791 439.323 64.393 441.550 69.571 C 453.146 96.530 441.885 121.658 441.872 120.737 C 441.605 101.724 431.820 67.171 424.058 80.504 C 422.864 82.556 425.827 90.309 420.597 107.914 C 420.489 108.279 418.091 95.006 412.018 91.931 C 408.144 89.969 410.252 100.711 404.306 117.292 C 404.176 117.657 397.018 83.364 388.943 81.700 C 387.357 81.373 381.807 102.404 381.807 102.406 C 381.804 102.403 363.812 67.674 355.580 72.550 C 347.887 77.106 362.280 85.306 366.099 108.164 C 367.151 114.463 348.953 81.301 326.553 78.885 C 323.190 78.522 330.216 103.693 330.216 103.696 C 330.213 103.694 307.570 80.924 304.174 83.122 C 302.952 83.914 303.038 95.014 303.038 95.016 C 303.036 95.014 287.912 78.092 284.172 80.113 C 282.381 81.081 282.427 91.491 282.427 91.492 C 282.425 91.491 260.568 81.773 260.566 81.772 C 260.567 81.771 269.657 68.549 271.381 68.284 C 272.830 68.061 283.094 76.331 283.703 75.992 C 284.533 75.529 280.995 56.354 280.994 56.352 C 280.996 56.354 294.032 62.923 298.102 70.729 C 308.533 90.740 301.911 59.841 302.211 59.873 C 318.833 61.667 323.678 77.294 324.092 72.694 C 325.712 54.693 310.534 49.328 311.835 49.492 C 334.715 52.371 326.198 58.641 338.615 71.077 Z"/>
<path fill="#ffffff" fill-rule="evenodd" stroke="none" d="M 450.933 301.147 C 453.220 301.147 455.065 302.992 455.065 305.279 C 455.065 307.566 453.220 309.411 450.933 309.411 C 448.647 309.411 446.802 307.566 446.802 305.279 C 446.802 302.992 448.647 301.147 450.933 301.147 Z"/>
</g>
<g id="specs_2">
<path fill="#ff00ff" fill-rule="evenodd" stroke="none" d="M 135.766 569.872 C 135.775 569.872 219.509 569.872 219.517 569.872 C 219.517 569.864 219.517 486.129 219.517 486.121 C 219.509 486.121 135.775 486.121 135.766 486.121 C 135.766 486.129 135.766 569.864 135.766 569.872 Z"/>
<path fill="#ff0000" fill-rule="evenodd" stroke="none" d="M 386.672 661.688 C 386.673 661.692 399.088 696.455 399.089 696.458 C 399.088 696.457 386.673 684.906 386.672 684.905 C 386.671 684.906 374.256 696.457 374.254 696.458 C 374.256 696.455 386.671 661.692 386.672 661.688 Z"/>
<path fill="#0000ff" fill-rule="evenodd" stroke="none" d="M 367.181 8.965 C 367.182 8.967 374.393 29.160 374.394 29.162 C 374.393 29.161 367.182 22.451 367.181 22.451 C 367.180 22.451 359.969 29.161 359.968 29.162 C 359.969 29.160 367.180 8.967 367.181 8.965 Z"/>
<path fill="#00ff00" fill-rule="evenodd" stroke="none" d="M 166.543 337.408 C 166.545 337.407 186.701 330.093 186.704 330.092 C 186.703 330.093 180.029 337.339 180.029 337.340 C 180.029 337.341 186.776 344.518 186.776 344.519 C 186.774 344.518 166.545 337.409 166.543 337.408 Z"/>
<path fill="#ffff00" fill-rule="evenodd" stroke="none" d="M 287.943 602.293 C 287.944 602.290 302.643 570.287 302.644 570.284 C 302.644 570.286 303.418 586.446 303.418 586.448 C 303.420 586.448 319.593 586.840 319.595 586.840 C 319.591 586.841 287.946 602.292 287.943 602.293 Z"/>
<path fill="#ffff00" fill-rule="evenodd" stroke="none" d="M 462.832 601.901 C 462.831 601.898 447.493 570.196 447.492 570.193 C 447.492 570.195 447.043 586.367 447.043 586.369 C 447.041 586.369 430.878 587.086 430.876 587.086 C 430.879 587.087 462.829 601.900 462.832 601.901 Z"/>
<path fill="#00ff00" fill-rule="evenodd" stroke="none" d="M 576.025 337.408 C 576.023 337.407 555.867 330.093 555.865 330.092 C 555.866 330.093 562.539 337.339 562.540 337.340 C 562.539 337.341 555.793 344.518 555.792 344.519 C 555.794 344.518 576.023 337.409 576.025 337.408 Z"/>
<path fill="#00ffff" fill-rule="evenodd" stroke="none" d="M 549.769 95.449 C 549.768 95.451 542.610 115.663 542.609 115.665 C 542.609 115.664 541.254 105.907 541.254 105.906 C 541.253 105.906 531.424 106.555 531.423 106.555 C 531.425 106.554 549.767 95.450 549.769 95.449 Z"/>
<path fill="#00ffff" fill-rule="evenodd" stroke="none" d="M 187.782 96.119 C 187.783 96.120 196.273 115.810 196.273 115.812 C 196.274 115.811 196.975 105.986 196.976 105.985 C 196.977 105.985 206.827 105.977 206.828 105.977 C 206.826 105.976 187.784 96.119 187.782 96.119 Z"/>
<path fill="#be0027" fill-rule="evenodd" stroke="none" d="M 386.672 632.205 C 386.673 632.202 399.088 597.439 399.089 597.435 C 399.088 597.437 386.673 608.988 386.672 608.989 C 386.671 608.988 374.256 597.437 374.254 597.435 C 374.256 597.439 386.671 632.202 386.672 632.205 Z"/>
<path fill="#ff00ff" fill-rule="evenodd" stroke="none" d="M 80.371 507.296 C 80.379 507.296 164.114 507.296 164.122 507.296 C 164.122 507.287 164.122 423.553 164.122 423.544 C 164.114 423.544 80.379 423.544 80.371 423.544 C 80.371 423.553 80.371 507.287 80.371 507.296 Z"/>
<path fill="#ff00ff" fill-rule="evenodd" stroke="none" d="M 109.095 440.616 C 109.103 440.616 192.837 440.616 192.846 440.616 C 192.846 440.608 192.846 356.873 192.846 356.865 C 192.837 356.865 109.103 356.865 109.095 356.865 C 109.095 356.873 109.095 440.608 109.095 440.616 Z"/>
</g>
</g>
</svg>
