<?xml version="1.0" encoding="utf-8"?>
<!-- Generator: Moho 12.5 build 22414 -->
<!DOCTYPE svg PUBLIC "-//W3C//DTD SVG 1.1//EN" "http://www.w3.org/Graphics/SVG/1.1/DTD/svg11.dtd">
<svg version="1.1" id="Frame_0" xmlns="http://www.w3.org/2000/svg" xmlns:xlink="http://www.w3.org/1999/xlink" width="720px" height="720px">
<g id="bone">
<g id="bone">
<path fill="#ffffff" fill-rule="evenodd" stroke="none" d="M 707.772 327.640 C 707.772 339.995 703.188 351.252 695.473 360.028 C 703.188 368.749 707.772 380.006 707.772 392.361 C 707.772 419.220 686.105 440.887 659.246 440.887 C 638.027 440.887 620.049 427.364 613.484 408.586 C 453.466 408.509 236.278 408.497 106.541 408.514 C 99.951 427.364 81.973 440.887 60.755 440.887 C 33.896 440.887 12.228 419.220 12.228 392.361 C 12.228 380.005 21.452 365.022 24.527 360.028 C 24.527 360.028 12.228 339.995 12.228 327.640 C 12.228 300.781 33.895 279.113 60.755 279.113 C 81.973 279.113 101.185 298.008 106.516 311.414 C 106.293 311.352 506.282 311.445 613.459 311.486 C 620.049 292.636 638.027 279.113 659.246 279.113 C 686.105 279.113 707.772 300.781 707.772 327.640 Z"/>
<path fill="none" stroke="#000000" stroke-width="4" stroke-linecap="round" stroke-linejoin="round" d="M 106.516 311.414 C 107.798 314.910 109.383 319.653 109.689 324.640 M 613.484 408.586 C 611.675 403.413 610.719 398.001 610.719 392.361 M 707.772 327.640 C 707.772 339.995 703.188 351.252 695.473 360.028 C 703.188 368.749 707.772 380.006 707.772 392.361 C 707.772 419.220 686.105 440.887 659.246 440.887 C 638.027 440.887 620.049 427.364 613.484 408.586 C 453.466 408.509 236.278 408.497 106.541 408.514 C 108.325 403.413 109.281 398.001 109.281 392.361 M 659.246 279.113 C 686.105 279.113 707.772 300.781 707.772 327.640 M 613.459 311.486 C 620.049 292.636 638.027 279.113 659.246 279.113 M 610.719 327.640 C 610.719 321.999 611.675 316.588 613.459 311.486 C 506.282 311.445 106.293 311.352 106.516 311.414 C 101.185 298.008 81.973 279.113 60.755 279.113 C 33.895 279.113 12.228 300.781 12.228 327.640 C 12.228 339.995 24.527 360.028 24.527 360.028 C 21.452 365.022 12.228 380.005 12.228 392.361 C 12.228 419.220 33.896 440.887 60.755 440.887 C 81.973 440.887 99.951 427.364 106.541 408.514 "/>
</g>
<g id="specs">
<path fill="#ff0000" fill-rule="evenodd" stroke="none" d="M 360.000 448.107 C 360.001 448.109 368.159 470.953 368.160 470.955 C 368.159 470.954 360.001 463.363 360.000 463.363 C 359.999 463.363 351.841 470.954 351.840 470.955 C 351.841 470.953 359.999 448.109 360.000 448.107 Z"/>
<path fill="#0000ff" fill-rule="evenodd" stroke="none" d="M 360.028 301.582 C 360.028 301.584 364.767 314.853 364.768 314.855 C 364.767 314.854 360.028 310.445 360.028 310.444 C 360.027 310.445 355.288 314.854 355.288 314.855 C 355.288 314.853 360.027 301.584 360.028 301.582 Z"/>
<path fill="#00ff00" fill-rule="evenodd" stroke="none" d="M 14.016 360.067 C 14.017 360.067 27.262 355.260 27.264 355.260 C 27.263 355.260 22.878 360.022 22.878 360.022 C 22.878 360.023 27.311 364.740 27.312 364.740 C 27.310 364.740 14.017 360.068 14.016 360.067 Z"/>
<path fill="#ffff00" fill-rule="evenodd" stroke="none" d="M 203.970 416.886 C 203.970 416.885 205.117 402.841 205.117 402.840 C 205.118 402.841 207.620 408.811 207.620 408.811 C 207.621 408.811 213.755 406.745 213.756 406.745 C 213.755 406.746 203.971 416.885 203.970 416.886 Z"/>
<path fill="#ffff00" fill-rule="evenodd" stroke="none" d="M 516.896 416.996 C 516.896 416.994 515.467 402.976 515.467 402.975 C 515.467 402.976 513.085 408.995 513.085 408.995 C 513.084 408.995 506.909 407.053 506.909 407.053 C 506.910 407.053 516.895 416.995 516.896 416.996 Z"/>
<path fill="#00ff00" fill-rule="evenodd" stroke="none" d="M 705.984 360.067 C 705.983 360.067 692.737 355.260 692.736 355.260 C 692.737 355.260 697.122 360.022 697.123 360.022 C 697.122 360.023 692.689 364.740 692.688 364.740 C 692.690 364.740 705.983 360.068 705.984 360.067 Z"/>
<path fill="#00ffff" fill-rule="evenodd" stroke="none" d="M 515.766 303.004 C 515.766 303.006 515.889 317.096 515.889 317.097 C 515.888 317.097 512.858 311.376 512.858 311.376 C 512.858 311.376 506.934 313.986 506.933 313.986 C 506.934 313.985 515.765 303.005 515.766 303.004 Z"/>
<path fill="#00ffff" fill-rule="evenodd" stroke="none" d="M 204.242 303.114 C 204.242 303.115 205.059 317.182 205.059 317.183 C 205.059 317.183 207.701 311.273 207.701 311.272 C 207.702 311.273 213.786 313.482 213.787 313.482 C 213.786 313.481 204.243 303.115 204.242 303.114 Z"/>
<path fill="#be0027" fill-rule="evenodd" stroke="none" d="M 360.000 418.418 C 360.001 418.416 365.936 401.796 365.937 401.794 C 365.936 401.794 360.001 407.317 360.000 407.318 C 359.999 407.317 354.064 401.794 354.063 401.794 C 354.064 401.796 359.999 418.416 360.000 418.418 Z"/>
</g>
</g>
</svg>
