<?xml version="1.0" encoding="utf-8"?>
<!-- Generator: Moho 12.5 build 22414 -->
<!DOCTYPE svg PUBLIC "-//W3C//DTD SVG 1.1//EN" "http://www.w3.org/Graphics/SVG/1.1/DTD/svg11.dtd">
<svg version="1.1" id="Frame_0" xmlns="http://www.w3.org/2000/svg" xmlns:xlink="http://www.w3.org/1999/xlink" width="720px" height="720px">
<g id="bone_vertical">
<g id="bone">
<path fill="#ffffff" fill-rule="evenodd" stroke="none" d="M 328.709 10.422 C 340.656 10.422 351.541 14.855 360.027 22.315 C 368.460 14.855 379.345 10.422 391.292 10.422 C 417.264 10.422 438.215 31.374 438.215 57.345 C 438.215 77.863 425.139 95.248 406.982 101.596 C 406.907 256.328 406.895 466.342 406.912 591.794 C 425.139 598.166 438.215 615.551 438.215 636.068 C 438.215 662.040 417.264 682.992 391.292 682.992 C 379.345 682.992 364.856 674.072 360.027 671.099 C 360.027 671.099 340.656 682.992 328.709 682.992 C 302.737 682.992 281.785 662.040 281.785 636.068 C 281.785 615.550 300.055 596.974 313.019 591.818 C 312.959 592.034 313.048 205.256 313.088 101.620 C 294.861 95.248 281.785 77.863 281.785 57.345 C 281.785 31.373 302.737 10.422 328.709 10.422 Z"/>
<path fill="none" stroke="#000000" stroke-width="4" stroke-linecap="round" stroke-linejoin="round" d="M 313.019 591.818 C 316.399 590.579 320.985 589.046 325.808 588.750 M 406.982 101.596 C 401.979 103.345 396.746 104.269 391.292 104.269 M 328.709 10.422 C 340.656 10.422 351.541 14.855 360.027 22.315 C 368.460 14.855 379.345 10.422 391.292 10.422 C 417.264 10.422 438.215 31.374 438.215 57.345 C 438.215 77.863 425.139 95.248 406.982 101.596 C 406.907 256.328 406.895 466.342 406.912 591.794 C 401.979 590.069 396.746 589.145 391.292 589.145 M 281.785 57.345 C 281.785 31.373 302.737 10.422 328.709 10.422 M 313.088 101.620 C 294.861 95.248 281.785 77.863 281.785 57.345 M 328.709 104.269 C 323.255 104.269 318.022 103.345 313.088 101.620 C 313.048 205.256 312.959 592.034 313.019 591.818 C 300.055 596.974 281.785 615.550 281.785 636.068 C 281.785 662.040 302.737 682.992 328.709 682.992 C 340.656 682.992 360.027 671.099 360.027 671.099 C 364.856 674.072 379.345 682.992 391.292 682.992 C 417.264 682.992 438.215 662.040 438.215 636.068 C 438.215 615.551 425.139 598.166 406.912 591.794 "/>
</g>
<g id="specs">
<path fill="#ff0000" fill-rule="evenodd" stroke="none" d="M 360.000 689.059 C 360.001 689.061 367.890 711.150 367.891 711.152 C 367.890 711.152 360.001 703.811 360.000 703.811 C 359.999 703.811 352.110 711.152 352.109 711.152 C 352.110 711.150 359.999 689.061 360.000 689.059 Z"/>
<path fill="#0000ff" fill-rule="evenodd" stroke="none" d="M 360.000 2.134 C 360.000 2.135 364.583 14.966 364.583 14.968 C 364.583 14.967 360.000 10.704 360.000 10.703 C 360.000 10.704 355.417 14.967 355.417 14.968 C 355.417 14.966 360.000 2.135 360.000 2.134 Z"/>
<path fill="#00ff00" fill-rule="evenodd" stroke="none" d="M 303.617 347.344 C 303.618 347.343 316.426 342.696 316.427 342.695 C 316.427 342.696 312.186 347.300 312.186 347.301 C 312.186 347.301 316.473 351.862 316.474 351.862 C 316.473 351.862 303.618 347.344 303.617 347.344 Z"/>
<path fill="#ffff00" fill-rule="evenodd" stroke="none" d="M 429.481 678.139 C 429.480 678.138 423.967 665.678 423.966 665.677 C 423.966 665.677 423.579 671.925 423.579 671.926 C 423.578 671.926 417.320 671.990 417.319 671.990 C 417.320 671.991 429.479 678.139 429.481 678.139 Z"/>
<path fill="#00ff00" fill-rule="evenodd" stroke="none" d="M 416.383 347.344 C 416.382 347.343 403.574 342.696 403.572 342.695 C 403.573 342.696 407.813 347.300 407.814 347.301 C 407.813 347.301 403.527 351.862 403.526 351.862 C 403.527 351.862 416.382 347.344 416.383 347.344 Z"/>
<path fill="#00ffff" fill-rule="evenodd" stroke="none" d="M 433.387 18.592 C 433.387 18.594 427.975 31.098 427.974 31.099 C 427.974 31.099 427.537 24.854 427.537 24.854 C 427.536 24.854 421.277 24.840 421.276 24.840 C 421.277 24.839 433.386 18.593 433.387 18.592 Z"/>
<path fill="#ffff00" fill-rule="evenodd" stroke="none" d="M 290.520 678.139 C 290.520 678.138 296.033 665.678 296.034 665.677 C 296.034 665.677 296.421 671.925 296.421 671.926 C 296.422 671.926 302.680 671.990 302.681 671.990 C 302.680 671.991 290.521 678.139 290.520 678.139 Z"/>
<path fill="#00ffff" fill-rule="evenodd" stroke="none" d="M 286.613 18.592 C 286.613 18.594 292.025 31.098 292.026 31.099 C 292.026 31.099 292.463 24.854 292.463 24.854 C 292.464 24.854 298.723 24.840 298.724 24.840 C 298.723 24.839 286.614 18.593 286.613 18.592 Z"/>
<path fill="#be0027" fill-rule="evenodd" stroke="none" d="M 359.973 680.920 C 359.974 680.918 365.713 664.847 365.714 664.845 C 365.713 664.846 359.974 670.186 359.973 670.187 C 359.972 670.186 354.233 664.846 354.232 664.845 C 354.233 664.847 359.972 680.918 359.973 680.920 Z"/>
</g>
</g>
</svg>
