<?xml version="1.0" encoding="utf-8"?>
<!-- Generator: Moho 13.5.1 build 20210623 -->
<!DOCTYPE svg PUBLIC "-//W3C//DTD SVG 1.1//EN" "http://www.w3.org/Graphics/SVG/1.1/DTD/svg11.dtd">
<svg version="1.1" id="Frame_0" xmlns="http://www.w3.org/2000/svg" xmlns:xlink="http://www.w3.org/1999/xlink" width="720px" height="720px">
<g id="book_open">
<g id="book">
<linearGradient id="7C5CE3FA-9701-4637-B003-15005D1A2706_0" x1="49.83%" y1="-29.96%" x2="49.83%" y2="139.94%">
<stop offset="0.00%" style="stop-color:rgb(255,255,255);stop-opacity:1.00" />
<stop offset="100.00%" style="stop-color:rgb(0,0,0);stop-opacity:1.00" />
</linearGradient>
<path id="S3" fill="url(#7C5CE3FA-9701-4637-B003-15005D1A2706_0)" fill-rule="evenodd" stroke="#000000" stroke-width="2" stroke-linecap="round" stroke-linejoin="round" d="M 643.669 176.090 C 643.675 176.127 700.388 546.638 700.394 546.675 C 700.362 546.675 379.946 549.511 379.914 549.511 C 379.912 549.510 370.858 540.264 360.885 540.058 C 350.161 539.836 340.088 549.510 340.086 549.511 C 340.054 549.511 19.638 546.675 19.606 546.675 C 19.611 546.638 76.325 176.127 76.331 176.090 C 76.387 176.090 453.244 177.691 643.669 176.090 Z"/>
<linearGradient id="7C5CE3FA-9701-4637-B003-15005D1A2706_1" x1="-12.57%" y1="45.57%" x2="109.64%" y2="51.50%">
<stop offset="0.00%" style="stop-color:rgb(0,0,0);stop-opacity:1.00" />
<stop offset="28.24%" style="stop-color:rgb(255,255,255);stop-opacity:1.00" />
<stop offset="74.51%" style="stop-color:rgb(255,255,255);stop-opacity:1.00" />
<stop offset="100.00%" style="stop-color:rgb(0,0,0);stop-opacity:1.00" />
</linearGradient>
<path id="S2" fill="url(#7C5CE3FA-9701-4637-B003-15005D1A2706_1)" fill-rule="evenodd" stroke="#000000" stroke-width="2" stroke-linecap="round" stroke-linejoin="round" d="M 360.885 155.948 C 361.553 157.065 324.081 125.704 283.356 127.001 C 230.014 128.700 239.241 145.771 185.580 151.937 C 146.728 156.401 112.533 151.026 112.526 151.026 C 112.521 151.062 68.675 505.596 68.671 505.632 C 68.679 505.632 108.676 513.914 154.904 511.787 C 193.989 509.989 213.016 487.244 267.859 490.047 C 314.062 492.409 355.581 511.895 360.885 517.202 C 360.983 516.015 360.885 155.984 360.885 155.948 Z"/>
<linearGradient id="7C5CE3FA-9701-4637-B003-15005D1A2706_2" x1="110.27%" y1="47.04%" x2="-34.92%" y2="43.02%">
<stop offset="0.00%" style="stop-color:rgb(0,0,0);stop-opacity:1.00" />
<stop offset="61.18%" style="stop-color:rgb(255,255,255);stop-opacity:1.00" />
</linearGradient>
<path fill="none" stroke="#ffffff" stroke-width="1" stroke-linecap="butt" stroke-linejoin="round" d="M 112.526 151.026 C 112.521 151.062 68.675 505.596 68.671 505.632 "/>
<path id="S4" fill="url(#7C5CE3FA-9701-4637-B003-15005D1A2706_2)" fill-rule="evenodd" stroke="#000000" stroke-width="2" stroke-linecap="round" stroke-linejoin="round" d="M 112.526 151.026 C 112.521 151.062 68.675 505.596 68.671 505.632 C 58.589 515.346 48.507 525.060 38.425 534.775 C 38.430 534.738 88.707 172.214 88.707 172.213 C 88.710 172.210 102.859 155.437 112.526 151.026 Z"/>
<linearGradient id="7C5CE3FA-9701-4637-B003-15005D1A2706_3" x1="58.45%" y1="-31.17%" x2="62.49%" y2="211.42%">
<stop offset="0.00%" style="stop-color:rgb(0,0,0);stop-opacity:1.00" />
<stop offset="63.92%" style="stop-color:rgb(255,255,255);stop-opacity:1.00" />
</linearGradient>
<path fill="none" stroke="#ffffff" stroke-width="1" stroke-linecap="butt" stroke-linejoin="round" d="M 38.425 534.775 C 48.507 525.060 58.589 515.346 68.671 505.632 "/>
<path fill="none" stroke="#ffffff" stroke-width="1" stroke-linecap="butt" stroke-linejoin="round" d="M 68.671 505.632 C 68.679 505.632 108.676 513.914 154.904 511.787 "/>
<path fill="none" stroke="#ffffff" stroke-width="1" stroke-linecap="butt" stroke-linejoin="round" d="M 154.904 511.787 C 193.989 509.989 213.016 487.244 267.859 490.047 "/>
<path fill="none" stroke="#ffffff" stroke-width="1" stroke-linecap="butt" stroke-linejoin="round" d="M 267.859 490.047 C 314.062 492.409 355.581 511.895 360.885 517.202 "/>
<path id="S5" fill="url(#7C5CE3FA-9701-4637-B003-15005D1A2706_3)" fill-rule="evenodd" stroke="#000000" stroke-width="2" stroke-linecap="round" stroke-linejoin="round" d="M 151.762 539.432 C 106.340 540.116 38.437 534.775 38.425 534.775 C 48.507 525.060 58.589 515.346 68.671 505.632 C 68.679 505.632 108.676 513.914 154.904 511.787 C 193.989 509.989 213.016 487.244 267.859 490.047 C 314.062 492.409 355.581 511.895 360.885 517.202 C 342.717 517.202 334.067 536.091 334.064 536.093 C 334.057 536.093 291.298 531.528 262.634 531.551 C 218.120 531.588 196.270 538.762 151.762 539.432 Z"/>
<linearGradient id="7C5CE3FA-9701-4637-B003-15005D1A2706_4" x1="113.86%" y1="44.41%" x2="-12.19%" y2="51.55%">
<stop offset="0.00%" style="stop-color:rgb(0,0,0);stop-opacity:1.00" />
<stop offset="28.24%" style="stop-color:rgb(255,255,255);stop-opacity:1.00" />
<stop offset="74.51%" style="stop-color:rgb(255,255,255);stop-opacity:1.00" />
<stop offset="100.00%" style="stop-color:rgb(0,0,0);stop-opacity:1.00" />
</linearGradient>
<path id="S2_2" fill="url(#7C5CE3FA-9701-4637-B003-15005D1A2706_4)" fill-rule="evenodd" stroke="#000000" stroke-width="2" stroke-linecap="round" stroke-linejoin="round" d="M 360.872 155.948 C 360.204 157.065 397.675 125.704 438.401 127.001 C 491.743 128.700 482.516 145.771 536.176 151.937 C 575.029 156.401 609.224 151.026 609.231 151.026 C 609.235 151.062 653.081 505.596 653.086 505.632 C 653.077 505.632 613.081 513.914 566.853 511.787 C 527.767 509.989 508.740 487.244 453.898 490.047 C 407.694 492.409 366.175 511.895 360.872 517.202 C 360.774 516.015 360.872 155.984 360.872 155.948 Z"/>
<linearGradient id="7C5CE3FA-9701-4637-B003-15005D1A2706_5" x1="-26.61%" y1="46.45%" x2="136.78%" y2="42.22%">
<stop offset="0.00%" style="stop-color:rgb(0,0,0);stop-opacity:1.00" />
<stop offset="61.18%" style="stop-color:rgb(255,255,255);stop-opacity:1.00" />
</linearGradient>
<path fill="none" stroke="#ffffff" stroke-width="1" stroke-linecap="butt" stroke-linejoin="round" d="M 609.231 151.026 C 609.235 151.062 653.081 505.596 653.086 505.632 "/>
<path id="S4_2" fill="url(#7C5CE3FA-9701-4637-B003-15005D1A2706_5)" fill-rule="evenodd" stroke="#000000" stroke-width="2" stroke-linecap="round" stroke-linejoin="round" d="M 609.231 151.026 C 609.235 151.062 653.081 505.596 653.086 505.632 C 663.167 515.346 673.249 525.060 683.331 534.775 C 683.326 534.738 633.049 172.214 633.049 172.213 C 633.047 172.210 618.898 155.437 609.231 151.026 Z"/>
<linearGradient id="7C5CE3FA-9701-4637-B003-15005D1A2706_6" x1="58.45%" y1="-31.17%" x2="52.51%" y2="234.38%">
<stop offset="0.00%" style="stop-color:rgb(0,0,0);stop-opacity:1.00" />
<stop offset="63.92%" style="stop-color:rgb(255,255,255);stop-opacity:1.00" />
</linearGradient>
<path fill="none" stroke="#ffffff" stroke-width="1" stroke-linecap="butt" stroke-linejoin="round" d="M 683.331 534.775 C 673.249 525.060 663.167 515.346 653.086 505.632 "/>
<path fill="none" stroke="#ffffff" stroke-width="1" stroke-linecap="butt" stroke-linejoin="round" d="M 653.086 505.632 C 653.077 505.632 613.081 513.914 566.853 511.787 "/>
<path fill="none" stroke="#ffffff" stroke-width="1" stroke-linecap="butt" stroke-linejoin="round" d="M 566.853 511.787 C 527.767 509.989 508.740 487.244 453.898 490.047 "/>
<path fill="none" stroke="#ffffff" stroke-width="1" stroke-linecap="butt" stroke-linejoin="round" d="M 453.898 490.047 C 407.694 492.409 366.175 511.895 360.872 517.202 "/>
<path id="S5_2" fill="url(#7C5CE3FA-9701-4637-B003-15005D1A2706_6)" fill-rule="evenodd" stroke="#000000" stroke-width="2" stroke-linecap="round" stroke-linejoin="round" d="M 569.995 539.432 C 615.416 540.116 683.320 534.775 683.331 534.775 C 673.249 525.060 663.167 515.346 653.086 505.632 C 653.077 505.632 613.081 513.914 566.853 511.787 C 527.767 509.989 508.740 487.244 453.898 490.047 C 407.694 492.409 366.175 511.895 360.872 517.202 C 379.039 517.202 387.690 536.091 387.692 536.093 C 387.700 536.093 430.459 531.528 459.122 531.551 C 503.636 531.588 525.486 538.762 569.995 539.432 Z"/>
</g>
<g id="specs">
<path fill="#ff00ff" fill-rule="evenodd" stroke="none" d="M 121.499 471.710 C 121.547 471.710 598.198 471.710 598.246 471.710 C 598.246 471.680 598.246 172.051 598.246 172.021 C 598.198 172.021 121.547 172.021 121.499 172.021 C 121.499 172.051 121.499 471.680 121.499 471.710 Z"/>
<path fill="#ff0000" fill-rule="evenodd" stroke="none" d="M 360.000 544.935 C 360.001 544.938 372.432 579.744 372.433 579.748 C 372.432 579.747 360.001 568.181 360.000 568.180 C 359.999 568.181 347.568 579.747 347.567 579.748 C 347.568 579.744 359.999 544.938 360.000 544.935 Z"/>
<path fill="#0000ff" fill-rule="evenodd" stroke="none" d="M 360.000 92.894 C 360.001 92.896 367.221 113.114 367.222 113.116 C 367.221 113.116 360.001 106.397 360.000 106.397 C 359.999 106.397 352.779 113.116 352.778 113.116 C 352.779 113.114 359.999 92.896 360.000 92.894 Z"/>
<path fill="#00ff00" fill-rule="evenodd" stroke="none" d="M 37.701 342.224 C 37.703 342.223 57.884 334.900 57.886 334.899 C 57.886 334.900 51.204 342.155 51.203 342.156 C 51.204 342.156 57.958 349.343 57.959 349.344 C 57.957 349.343 37.703 342.224 37.701 342.224 Z"/>
<path fill="#ffff00" fill-rule="evenodd" stroke="none" d="M 118.365 556.055 C 118.366 556.054 127.326 536.544 127.327 536.542 C 127.327 536.543 127.799 546.395 127.799 546.396 C 127.800 546.396 137.660 546.635 137.661 546.635 C 137.659 546.636 118.367 556.055 118.365 556.055 Z"/>
<path fill="#ffff00" fill-rule="evenodd" stroke="none" d="M 602.961 555.817 C 602.960 555.815 593.610 536.489 593.609 536.487 C 593.609 536.488 593.334 546.347 593.334 546.348 C 593.333 546.348 583.480 546.785 583.479 546.785 C 583.481 546.786 602.959 555.816 602.961 555.817 Z"/>
<path fill="#00ff00" fill-rule="evenodd" stroke="none" d="M 683.345 342.224 C 683.343 342.223 663.161 334.900 663.159 334.899 C 663.160 334.900 669.842 342.155 669.843 342.156 C 669.842 342.156 663.087 349.343 663.087 349.344 C 663.089 349.343 683.343 342.224 683.345 342.224 Z"/>
<path fill="#00ffff" fill-rule="evenodd" stroke="none" d="M 497.574 127.600 C 497.573 127.602 490.406 147.839 490.405 147.841 C 490.405 147.840 489.048 138.071 489.047 138.070 C 489.046 138.071 479.205 138.720 479.204 138.720 C 479.206 138.719 497.572 127.601 497.574 127.600 Z"/>
<path fill="#00ffff" fill-rule="evenodd" stroke="none" d="M 223.527 128.271 C 223.528 128.273 232.028 147.987 232.029 147.989 C 232.029 147.988 232.731 138.150 232.731 138.149 C 232.732 138.149 242.595 138.142 242.596 138.142 C 242.594 138.141 223.529 128.272 223.527 128.271 Z"/>
<path fill="#be0027" fill-rule="evenodd" stroke="none" d="M 359.957 552.463 C 359.958 552.461 369.002 527.137 369.003 527.135 C 369.002 527.135 359.958 535.550 359.957 535.551 C 359.957 535.550 350.913 527.135 350.912 527.135 C 350.913 527.137 359.957 552.461 359.957 552.463 Z"/>
</g>
</g>
</svg>
