<?xml version="1.0" encoding="utf-8"?>
<!-- Generator: Moho 13.5 build 20210422 -->
<!DOCTYPE svg PUBLIC "-//W3C//DTD SVG 1.1//EN" "http://www.w3.org/Graphics/SVG/1.1/DTD/svg11.dtd">
<svg version="1.1" id="Frame_0" xmlns="http://www.w3.org/2000/svg" xmlns:xlink="http://www.w3.org/1999/xlink" width="720px" height="720px">
<g id="box">
<g id="box">
<path fill="#000000" fill-rule="evenodd" stroke="#ffffff" stroke-width="4" stroke-linecap="round" stroke-linejoin="round" d="M 159.751 398.599 C 159.757 398.593 219.856 338.548 219.862 338.542 C 219.862 338.548 219.862 378.555 219.862 398.562 C 219.856 398.562 159.757 398.599 159.751 398.599 Z"/>
<path fill="#000000" fill-rule="evenodd" stroke="#ffffff" stroke-width="4" stroke-linecap="round" stroke-linejoin="round" d="M 500.174 338.542 C 500.174 338.548 500.174 378.554 500.174 398.560 C 500.180 398.560 560.243 398.599 560.249 398.599 C 560.243 398.593 500.180 338.548 500.174 338.542 Z"/>
<path fill="none" stroke="#ffffff" stroke-width="1" stroke-linecap="butt" stroke-linejoin="round" d="M 500.174 338.542 C 500.174 338.548 500.174 378.554 500.174 398.560 "/>
<path fill="none" stroke="#ffffff" stroke-width="1" stroke-linecap="butt" stroke-linejoin="round" d="M 219.862 398.562 C 219.862 378.555 219.862 338.548 219.862 338.542 "/>
<path fill="#ffffff" fill-rule="evenodd" stroke="#000000" stroke-width="4" stroke-linecap="round" stroke-linejoin="round" d="M 500.174 338.542 C 500.174 338.548 500.174 378.554 500.174 398.560 C 500.146 398.560 219.890 398.562 219.862 398.562 C 219.862 378.555 219.862 338.548 219.862 338.542 C 219.890 338.542 500.146 338.542 500.174 338.542 Z"/>
<path fill="none" stroke="#ffffff" stroke-width="1" stroke-linecap="butt" stroke-linejoin="round" d="M 159.751 398.599 C 159.757 398.599 219.856 398.562 219.862 398.562 "/>
<path fill="none" stroke="#ffffff" stroke-width="1" stroke-linecap="butt" stroke-linejoin="round" d="M 219.862 398.562 C 219.890 398.562 500.146 398.560 500.174 398.560 "/>
<path fill="none" stroke="#ffffff" stroke-width="1" stroke-linecap="butt" stroke-linejoin="round" d="M 500.174 398.560 C 500.180 398.560 560.243 398.599 560.249 398.599 "/>
<path fill="#ffffff" fill-rule="evenodd" stroke="#000000" stroke-width="4" stroke-linecap="round" stroke-linejoin="round" d="M 159.751 398.599 C 159.757 398.599 219.856 398.562 219.862 398.562 C 219.890 398.562 500.146 398.560 500.174 398.560 C 500.180 398.560 560.243 398.599 560.249 398.599 C 560.249 398.619 560.249 598.828 560.249 598.848 C 560.209 598.848 159.791 598.848 159.751 598.848 C 159.751 598.828 159.751 398.619 159.751 398.599 Z"/>
<path fill="none" stroke="#ffffff" stroke-width="1" stroke-linecap="butt" stroke-linejoin="round" d="M 560.249 398.599 C 560.243 398.599 500.180 398.560 500.174 398.560 "/>
<path fill="none" stroke="#ffffff" stroke-width="1" stroke-linecap="butt" stroke-linejoin="round" d="M 500.174 398.560 C 500.146 398.560 219.890 398.562 219.862 398.562 "/>
<path fill="none" stroke="#ffffff" stroke-width="1" stroke-linecap="butt" stroke-linejoin="round" d="M 219.862 398.562 C 219.856 398.562 159.757 398.599 159.751 398.599 "/>
<path fill="#ffffff" fill-rule="evenodd" stroke="#000000" stroke-width="4" stroke-linecap="round" stroke-linejoin="round" d="M 601.801 460.241 C 601.797 460.235 574.100 419.146 560.249 398.599 C 560.243 398.599 500.180 398.560 500.174 398.560 C 500.146 398.560 219.890 398.562 219.862 398.562 C 219.856 398.562 159.757 398.599 159.751 398.599 C 145.900 419.146 118.202 460.235 118.198 460.241 C 118.247 460.241 601.753 460.241 601.801 460.241 Z"/>
<path fill="none" stroke="#ffffff" stroke-width="1" stroke-linecap="butt" stroke-linejoin="round" d="M 159.751 398.599 C 159.757 398.593 219.856 338.548 219.862 338.542 "/>
<path fill="#ffffff" fill-rule="evenodd" stroke="#000000" stroke-width="4" stroke-linecap="round" stroke-linejoin="round" d="M 79.651 418.624 C 79.659 418.622 159.743 398.601 159.751 398.599 C 159.757 398.593 219.856 338.548 219.862 338.542 C 219.856 338.544 159.757 358.547 159.751 358.549 C 159.743 358.555 79.659 418.618 79.651 418.624 Z"/>
<path fill="none" stroke="#ffffff" stroke-width="1" stroke-linecap="butt" stroke-linejoin="round" d="M 560.249 398.599 C 560.243 398.593 500.180 338.548 500.174 338.542 "/>
<path fill="#ffffff" fill-rule="evenodd" stroke="#000000" stroke-width="4" stroke-linecap="round" stroke-linejoin="round" d="M 560.249 398.599 C 560.243 398.593 500.180 338.548 500.174 338.542 C 500.180 338.544 560.243 358.547 560.249 358.549 C 560.257 358.555 640.340 418.618 640.348 418.624 C 640.340 418.622 560.257 398.601 560.249 398.599 Z"/>
</g>
<g id="specs_2">
<path fill="#ff00ff" fill-rule="evenodd" stroke="none" d="M 179.776 398.599 C 179.812 398.599 540.188 398.599 540.224 398.599 C 540.224 398.563 540.224 38.187 540.224 38.151 C 540.188 38.151 179.812 38.151 179.776 38.151 C 179.776 38.187 179.776 398.563 179.776 398.599 Z"/>
<path fill="#ff0000" fill-rule="evenodd" stroke="none" d="M 360.000 664.210 C 360.001 664.213 372.432 699.020 372.433 699.023 C 372.432 699.022 360.001 687.456 360.000 687.455 C 359.999 687.456 347.568 699.022 347.567 699.023 C 347.568 699.020 359.999 664.213 360.000 664.210 Z"/>
<path fill="#00ff00" fill-rule="evenodd" stroke="none" d="M 139.205 500.473 C 139.207 500.472 164.674 491.231 164.677 491.230 C 164.676 491.231 156.244 500.386 156.244 500.387 C 156.244 500.388 164.768 509.456 164.769 509.457 C 164.766 509.456 139.207 500.474 139.205 500.473 Z"/>
<path fill="#ffff00" fill-rule="evenodd" stroke="none" d="M 153.921 606.138 C 153.922 606.137 161.543 589.544 161.544 589.542 C 161.544 589.543 161.945 597.922 161.945 597.923 C 161.946 597.923 170.332 598.126 170.332 598.126 C 170.331 598.127 153.923 606.138 153.921 606.138 Z"/>
<path fill="#ffff00" fill-rule="evenodd" stroke="none" d="M 566.079 605.935 C 566.078 605.933 558.126 589.496 558.125 589.495 C 558.125 589.495 557.892 597.881 557.892 597.882 C 557.891 597.882 549.511 598.253 549.510 598.253 C 549.511 598.254 566.077 605.934 566.079 605.935 Z"/>
<path fill="#00ff00" fill-rule="evenodd" stroke="none" d="M 580.795 500.473 C 580.793 500.472 555.326 491.231 555.323 491.230 C 555.324 491.231 563.756 500.386 563.756 500.387 C 563.756 500.388 555.232 509.456 555.231 509.457 C 555.234 509.456 580.793 500.474 580.795 500.473 Z"/>
<path fill="#0000ff" fill-rule="evenodd" stroke="none" d="M 360.129 20.655 C 360.128 20.657 350.887 46.124 350.886 46.127 C 350.887 46.126 360.043 37.694 360.044 37.693 C 360.045 37.694 369.113 46.218 369.114 46.219 C 369.113 46.216 360.130 20.657 360.129 20.655 Z"/>
</g>
</g>
</svg>
