<?xml version="1.0" encoding="utf-8"?>
<!-- Generator: Moho 13.5.1 build 20210623 -->
<!DOCTYPE svg PUBLIC "-//W3C//DTD SVG 1.1//EN" "http://www.w3.org/Graphics/SVG/1.1/DTD/svg11.dtd">
<svg version="1.1" id="Frame_0" xmlns="http://www.w3.org/2000/svg" xmlns:xlink="http://www.w3.org/1999/xlink" width="720px" height="720px">
<g id="brain">
<g id="brain">
<linearGradient id="4FC72096-91A5-4539-9F0C-B6C88B26F712_0" x1="-7.71%" y1="53.61%" x2="119.40%" y2="31.49%">
<stop offset="0.00%" style="stop-color:rgb(0,0,0);stop-opacity:1.00" />
<stop offset="50.00%" style="stop-color:rgb(255,255,255);stop-opacity:1.00" />
<stop offset="100.00%" style="stop-color:rgb(0,0,0);stop-opacity:1.00" />
</linearGradient>
<path id="S4" fill="url(#4FC72096-91A5-4539-9F0C-B6C88B26F712_0)" fill-rule="evenodd" stroke="#000000" stroke-width="2" stroke-linejoin="round" d="M 344.637 411.742 C 380.551 410.288 457.443 410.176 457.456 410.175 C 478.097 459.223 486.841 536.229 502.114 649.917 C 483.433 650.002 438.660 648.350 438.653 648.350 C 422.875 569.044 416.436 507.294 344.637 411.742 Z"/>
<radialGradient id="4FC72096-91A5-4539-9F0C-B6C88B26F712_1" cx="50.00%" cy="50.00%" r="65.03%">
<stop offset="50.00%" style="stop-color:rgb(255,255,255);stop-opacity:1.00" />
<stop offset="100.00%" style="stop-color:rgb(0,0,0);stop-opacity:1.00" />
</radialGradient>
<path id="S3" fill="url(#4FC72096-91A5-4539-9F0C-B6C88B26F712_1)" fill-rule="evenodd" stroke="#000000" stroke-width="2" stroke-linejoin="round" d="M 496.854 370.218 C 562.394 370.218 598.929 409.956 598.929 448.704 C 598.929 487.453 562.394 527.191 496.854 527.191 C 431.314 527.191 394.779 487.453 394.779 448.704 C 394.779 409.956 431.314 370.218 496.854 370.218 Z"/>
<radialGradient id="4FC72096-91A5-4539-9F0C-B6C88B26F712_2" cx="49.54%" cy="50.59%" r="73.81%">
<stop offset="50.00%" style="stop-color:rgb(255,255,255);stop-opacity:1.00" />
<stop offset="100.00%" style="stop-color:rgb(0,0,0);stop-opacity:1.00" />
</radialGradient>
<path id="S1" fill="url(#4FC72096-91A5-4539-9F0C-B6C88B26F712_2)" fill-rule="evenodd" stroke="none" d="M 421.950 436.396 C 450.555 455.005 467.607 438.716 474.284 435.219 C 487.423 441.430 497.524 437.868 503.133 438.771 C 534.190 443.771 542.157 429.700 545.436 434.631 C 551.022 438.713 557.433 437.888 575.426 438.748 C 585.625 452.186 646.625 462.751 658.338 422.871 C 671.657 401.054 675.782 378.223 674.215 354.660 C 680.474 313.215 660.827 282.336 644.225 252.931 C 642.237 223.974 632.464 220.006 622.468 208.240 C 611.296 162.104 598.866 161.934 584.834 151.789 C 584.832 151.786 575.304 132.406 568.957 121.800 C 552.250 111.212 543.708 102.813 528.971 102.395 C 519.104 91.632 497.817 83.025 482.517 78.286 C 463.442 69.533 441.939 66.599 423.714 68.877 C 395.619 59.291 365.505 67.113 365.499 67.113 C 365.491 67.113 313.914 58.624 287.879 71.229 C 252.834 72.672 234.913 81.464 209.671 98.279 C 197.846 96.794 163.110 111.023 157.924 123.564 C 125.990 139.134 93.523 151.865 70.308 196.479 C 50.612 205.027 35.400 259.199 56.195 291.740 C 57.206 330.516 84.884 337.310 112.058 360.540 C 129.626 375.558 162.036 362.892 162.041 362.892 C 162.043 362.897 148.074 394.381 184.386 413.462 C 200.098 442.802 234.951 438.157 234.956 438.160 C 253.693 455.502 264.446 451.000 276.707 447.568 C 313.068 463.639 346.762 443.817 369.027 431.103 C 392.622 447.941 421.944 436.395 421.950 436.396 Z"/>
<path id="S2" fill="none" stroke="#000000" stroke-width="2" stroke-linejoin="round" d="M 322.573 122.388 C 314.145 108.667 306.892 111.411 299.052 105.923 M 490.749 102.983 C 494.473 102.395 498.198 101.807 501.922 101.219 M 436.063 95.926 C 435.279 92.986 434.495 90.046 433.711 87.106 M 380.200 81.814 C 389.164 77.603 403.719 83.578 403.721 83.578 C 403.724 83.577 413.818 75.412 430.770 77.697 M 404.748 113.454 C 395.585 101.143 385.834 99.417 375.495 97.690 M 350.677 113.550 C 353.059 96.632 347.270 91.224 347.270 91.222 C 347.271 91.221 356.625 85.765 361.383 82.990 M 224.960 148.261 C 230.989 166.458 239.947 175.212 253.185 179.426 C 270.650 154.525 291.988 130.626 322.573 122.388 C 331.044 119.724 350.674 113.551 350.677 113.550 C 354.849 113.735 359.774 113.954 364.323 114.155 M 89.713 284.684 C 80.501 276.255 71.259 258.732 70.896 239.994 M 97.946 244.110 C 85.437 255.331 89.713 284.680 89.713 284.684 C 94.132 303.676 109.249 308.169 115.586 309.381 M 176.153 294.093 C 176.149 294.087 140.393 276.594 133.227 238.230 C 130.625 224.297 108.530 228.429 96.181 223.529 M 180.085 195.026 C 164.265 199.131 160.753 210.323 152.632 212.356 C 134.242 216.960 137.505 188.818 79.717 202.948 M 185.562 179.426 C 185.561 179.428 180.677 183.030 180.085 195.026 C 180.942 210.466 181.445 225.401 204.379 242.934 M 219.668 111.215 C 213.395 107.687 209.475 104.159 192.030 112.979 M 157.924 123.564 C 151.260 134.736 157.969 137.128 137.931 157.082 M 260.830 110.627 C 260.826 110.627 241.552 102.049 219.668 111.215 C 175.820 129.580 172.878 173.875 156.160 178.251 C 148.308 180.306 135.103 166.254 113.822 168.842 M 282.587 92.398 C 282.585 92.400 260.640 110.364 260.830 110.627 C 267.823 120.294 266.318 125.132 269.062 132.384 M 315.517 82.402 C 301.989 95.339 300.708 84.000 282.587 92.398 C 277.744 88.803 277.297 82.990 263.182 88.870 M 287.879 71.229 C 296.926 74.886 311.931 76.733 315.517 82.402 C 318.431 79.098 320.735 73.748 326.101 71.817 M 113.052 321.520 C 113.052 321.521 103.549 323.393 110.882 334.079 C 124.105 353.349 133.619 349.367 144.988 357.012 M 162.041 362.892 C 162.036 362.892 129.626 375.558 112.058 360.540 C 84.884 337.310 57.206 330.516 56.195 291.740 C 35.400 259.199 50.612 205.027 70.308 196.479 C 93.523 151.865 125.990 139.134 157.924 123.564 C 163.110 111.023 197.846 96.794 209.671 98.279 C 234.913 81.464 252.834 72.672 287.879 71.229 C 313.914 58.624 365.491 67.113 365.499 67.113 C 365.505 67.113 395.619 59.291 423.714 68.877 C 441.939 66.599 463.442 69.533 482.517 78.286 C 488.595 85.550 490.748 102.980 490.749 102.983 C 490.744 102.982 459.676 90.570 436.063 95.926 C 436.059 95.928 413.985 108.334 404.748 113.454 C 404.747 113.456 401.655 127.237 400.201 133.717 C 346.597 143.611 322.475 182.958 305.520 237.641 M 146.025 325.051 C 150.384 331.588 140.629 332.833 159.100 344.663 M 172.377 333.959 C 163.810 331.063 146.028 325.052 146.025 325.051 C 146.022 325.051 113.055 321.520 113.052 321.520 C 113.047 321.515 74.055 332.188 66.780 272.924 M 195.731 314.463 C 179.491 313.847 137.359 314.004 114.410 258.223 M 215.945 287.015 C 200.721 273.301 182.406 271.838 170.273 245.874 M 239.661 271.747 C 226.096 255.282 230.840 228.238 230.840 228.233 C 230.874 201.400 198.153 210.351 218.492 169.430 M 644.225 324.082 C 643.833 328.002 643.441 331.922 643.049 335.843 M 647.165 279.392 C 649.517 301.741 644.225 324.077 644.225 324.082 C 659.304 331.587 654.026 355.836 658.926 371.713 M 476.637 231.761 C 473.333 199.852 458.212 205.104 448.999 191.775 M 507.802 184.131 C 514.074 183.151 516.969 178.008 526.619 181.190 M 493.101 175.898 C 503.011 176.739 507.800 184.130 507.802 184.131 C 507.801 184.132 502.235 190.949 501.334 198.244 M 622.102 310.835 C 633.593 301.334 637.439 288.893 635.405 273.511 M 614.824 351.131 C 614.824 351.128 632.687 345.530 622.102 310.835 C 615.878 306.271 610.121 301.150 602.475 296.445 C 602.475 284.906 611.295 272.340 602.475 257.046 C 614.172 245.328 619.332 248.226 624.232 253.518 M 639.542 363.129 C 640.907 357.170 642.272 351.211 643.637 345.251 M 592.478 359.364 C 592.481 359.363 601.885 355.248 614.824 351.131 C 621.992 354.611 639.539 363.128 639.542 363.129 C 650.859 385.088 647.368 398.645 651.282 416.403 M 545.436 393.469 C 547.788 402.290 550.140 411.110 552.492 419.931 M 555.238 378.769 C 573.862 380.764 603.057 378.180 610.120 384.649 C 633.811 402.383 618.352 417.579 622.468 434.044 M 457.820 347.603 C 455.672 364.290 461.935 376.413 468.992 381.709 C 502.249 375.879 504.267 399.349 545.436 393.469 C 548.279 389.206 555.237 378.771 555.238 378.769 C 573.729 351.115 573.071 325.851 573.073 325.846 C 582.828 332.420 587.488 330.924 593.067 329.962 M 503.133 438.771 C 512.448 435.191 516.747 429.167 523.679 419.931 M 474.284 435.219 C 487.423 441.430 497.524 437.868 503.133 438.771 C 534.190 443.771 542.157 429.700 545.436 434.631 C 551.022 438.713 557.433 437.888 575.426 438.748 C 587.754 427.511 589.589 420.218 589.538 408.758 M 250.825 337.989 C 246.319 328.845 244.006 320.587 237.308 310.557 M 319.633 340.547 C 313.790 344.771 309.048 362.500 303.756 373.476 M 212.023 403.466 C 227.319 391.116 236.124 409.348 276.118 392.882 C 275.967 369.749 281.998 364.071 281.999 364.068 C 281.998 364.067 283.040 353.363 273.766 354.072 M 421.950 436.396 C 450.555 455.005 467.607 438.716 474.284 435.219 C 467.892 425.508 469.427 414.013 455.468 400.526 C 436.084 403.281 392.600 404.176 353.738 377.004 C 341.783 382.409 325.027 382.794 310.812 415.815 C 299.693 408.503 277.658 409.435 276.118 392.882 M 369.027 431.103 C 392.622 447.941 421.944 436.395 421.950 436.396 C 415.947 431.193 410.581 426.595 404.897 421.695 M 276.707 447.568 C 313.068 463.639 346.762 443.817 369.027 431.103 C 360.951 427.225 350.137 427.229 341.978 424.047 M 236.618 350.059 C 236.615 350.060 217.495 346.656 206.731 354.660 C 184.339 371.309 183.856 394.448 184.386 413.462 C 200.098 442.802 234.951 438.157 234.956 438.160 C 253.693 455.502 264.446 451.000 276.707 447.568 C 261.542 439.187 260.724 422.088 232.604 424.635 M 286.115 322.318 C 274.351 327.542 250.828 337.987 250.825 337.989 C 250.823 337.990 236.620 350.058 236.618 350.059 C 236.617 350.060 228.042 356.154 226.136 360.540 M 282.986 313.080 C 276.444 309.069 271.923 305.304 267.298 285.860 M 359.619 334.079 C 345.454 336.488 344.469 340.712 319.633 340.547 C 304.199 340.444 286.118 322.320 286.115 322.318 C 286.115 322.317 283.774 318.986 282.986 313.080 C 285.846 303.777 284.964 291.373 296.699 283.508 M 396.664 343.487 C 381.943 338.902 376.812 338.768 359.619 334.079 C 357.388 312.535 362.720 302.054 354.326 299.973 M 416.358 361.014 C 417.046 369.284 417.734 377.555 418.422 385.825 M 405.485 312.910 C 405.484 312.913 400.159 319.369 396.664 343.487 C 406.271 350.428 416.356 361.012 416.358 361.014 C 416.360 361.015 430.279 371.283 437.239 376.417 M 506.626 330.551 C 471.392 324.405 405.495 312.911 405.485 312.910 C 405.485 312.907 411.303 298.307 409.013 284.684 M 611.296 217.061 C 611.292 217.061 587.779 206.475 571.898 222.941 C 572.294 237.611 577.777 254.691 573.073 266.455 C 536.050 278.807 526.038 322.311 506.626 330.551 C 520.655 339.396 518.294 354.275 524.267 366.420 M 417.246 224.117 C 417.247 224.112 411.364 198.249 434.299 169.430 C 446.395 159.517 454.875 147.677 476.637 134.737 C 470.105 118.771 457.682 113.899 439.003 114.743 M 519.156 125.902 C 518.507 119.438 517.859 112.975 517.211 106.511 M 481.929 125.328 C 494.338 125.519 519.151 125.902 519.156 125.902 C 537.317 127.047 545.692 138.064 558.961 144.145 M 434.299 169.430 C 422.342 163.550 409.797 165.314 394.900 171.194 M 584.834 151.789 C 598.866 161.934 611.296 162.104 622.468 208.240 C 603.359 196.374 583.662 195.893 583.658 195.891 C 583.655 195.890 566.409 184.131 557.785 178.250 C 557.782 178.255 562.177 207.440 535.440 221.765 C 536.714 233.780 531.564 242.120 531.323 252.342 C 525.283 264.696 514.954 246.751 485.457 275.275 M 528.971 102.395 C 543.708 102.813 552.250 111.212 568.957 121.800 C 575.304 132.406 584.832 151.786 584.834 151.789 C 585.825 163.734 592.178 174.998 584.246 193.539 M 482.517 78.286 C 497.817 83.025 519.104 91.632 528.971 102.395 C 536.968 118.596 540.246 122.361 553.080 127.680 M 400.201 133.717 C 413.430 133.763 432.341 132.829 448.411 132.384 M 263.469 262.408 C 252.608 222.815 278.479 211.445 285.984 185.964 M 352.780 258.173 C 348.003 277.006 318.529 275.847 313.752 311.145 M 367.263 251.754 C 368.439 233.917 355.502 227.841 370.791 198.244 M 622.468 208.240 C 632.464 220.006 642.237 223.974 644.225 252.931 C 660.827 282.336 680.474 313.215 674.215 354.660 C 675.782 378.223 671.657 401.054 658.338 422.871 C 646.625 462.751 585.625 452.186 575.426 438.748 M 557.785 178.250 C 557.779 178.248 507.219 153.556 507.214 153.553 C 507.214 153.553 504.078 147.673 502.510 144.733 M 414.836 259.645 C 451.376 255.851 473.166 232.150 476.637 231.761 C 487.552 227.672 498.679 233.726 504.862 245.874 M 184.386 413.462 C 148.074 394.381 162.043 362.897 162.041 362.892 C 162.042 362.889 164.465 351.331 172.377 333.959 C 184.068 328.839 195.729 314.465 195.731 314.463 C 201.275 306.934 203.834 292.972 215.945 287.015 C 222.098 281.999 239.658 271.749 239.661 271.747 C 246.880 268.559 263.466 262.409 263.469 262.408 C 294.344 260.944 352.771 258.173 352.780 258.173 C 357.187 256.220 367.262 251.755 367.263 251.754 C 367.268 251.755 396.609 248.870 414.836 259.645 C 419.143 270.454 424.061 285.930 461.936 301.737 C 483.836 291.152 495.198 294.423 507.214 281.156 "/>
</g>
<g id="specs_2">
<path fill="#ff00ff" fill-rule="evenodd" stroke="none" d="M 185.991 400.221 C 186.027 400.221 538.674 400.221 538.710 400.221 C 538.710 400.192 538.710 111.404 538.710 111.376 C 538.674 111.376 186.027 111.376 185.991 111.376 C 185.991 111.404 185.991 400.192 185.991 400.221 Z"/>
<path fill="#ff0000" fill-rule="evenodd" stroke="none" d="M 468.902 676.810 C 468.904 676.814 481.334 711.620 481.335 711.623 C 481.334 711.622 468.904 700.056 468.902 700.055 C 468.901 700.056 456.471 711.622 456.469 711.623 C 456.471 711.620 468.901 676.814 468.902 676.810 Z"/>
<path fill="#0000ff" fill-rule="evenodd" stroke="none" d="M 370.968 36.575 C 370.969 36.577 378.190 56.795 378.190 56.797 C 378.190 56.797 370.969 50.078 370.968 50.078 C 370.968 50.078 363.747 56.797 363.747 56.797 C 363.747 56.795 370.968 36.577 370.968 36.575 Z"/>
<path fill="#00ff00" fill-rule="evenodd" stroke="none" d="M 29.716 246.486 C 29.718 246.486 49.091 239.456 49.093 239.455 C 49.092 239.456 42.678 246.421 42.677 246.421 C 42.678 246.422 49.162 253.320 49.163 253.321 C 49.161 253.320 29.718 246.487 29.716 246.486 Z"/>
<path fill="#ffff00" fill-rule="evenodd" stroke="none" d="M 185.185 499.175 C 185.186 499.173 194.146 479.664 194.147 479.662 C 194.147 479.663 194.619 489.515 194.619 489.516 C 194.620 489.516 204.479 489.754 204.480 489.754 C 204.478 489.755 185.187 499.174 185.185 499.175 Z"/>
<path fill="#00ffff" fill-rule="evenodd" stroke="none" d="M 586.680 537.337 C 586.679 537.335 577.329 518.009 577.328 518.007 C 577.328 518.008 577.055 527.867 577.055 527.868 C 577.054 527.868 567.200 528.305 567.199 528.305 C 567.201 528.306 586.678 537.336 586.680 537.337 Z"/>
<path fill="#00ff00" fill-rule="evenodd" stroke="none" d="M 659.218 246.486 C 659.216 246.486 639.843 239.456 639.841 239.455 C 639.842 239.456 646.256 246.421 646.256 246.421 C 646.256 246.422 639.772 253.320 639.771 253.321 C 639.773 253.320 659.216 246.487 659.218 246.486 Z"/>
<path fill="#be0027" fill-rule="evenodd" stroke="none" d="M 468.119 672.084 C 468.120 672.080 480.551 637.274 480.552 637.271 C 480.551 637.272 468.120 648.838 468.119 648.839 C 468.118 648.838 455.687 637.272 455.686 637.271 C 455.687 637.274 468.118 672.080 468.119 672.084 Z"/>
</g>
</g>
</svg>
