<?xml version="1.0" encoding="utf-8"?>
<!-- Generator: Moho 13.5 build 20210422 -->
<!DOCTYPE svg PUBLIC "-//W3C//DTD SVG 1.1//EN" "http://www.w3.org/Graphics/SVG/1.1/DTD/svg11.dtd">
<svg version="1.1" id="Frame_0" xmlns="http://www.w3.org/2000/svg" xmlns:xlink="http://www.w3.org/1999/xlink" width="720px" height="720px">
<g id="branch_curly">
<g id="branch_curly">
<path fill="#ffffff" fill-rule="evenodd" stroke="#000000" stroke-width="4" stroke-linecap="round" stroke-linejoin="round" d="M 563.410 239.584 C 563.410 225.009 575.168 213.251 589.743 213.251 C 604.318 213.251 616.075 225.009 616.075 239.584 C 616.075 254.158 604.317 265.916 589.743 265.916 C 575.168 265.916 563.410 254.158 563.410 239.584 M 144.484 197.092 C 144.484 179.536 158.647 165.374 176.203 165.374 C 193.759 165.374 207.921 179.536 207.921 197.092 C 207.921 214.648 193.759 228.811 176.203 228.811 C 158.647 228.811 144.484 214.648 144.484 197.092 M 465.262 592.678 C 465.262 575.454 479.157 561.558 496.382 561.558 C 513.607 561.558 527.502 575.454 527.502 592.678 C 527.502 609.903 513.607 623.799 496.382 623.799 C 479.157 623.798 465.262 609.903 465.262 592.678 M 170.816 534.627 C 170.816 518.396 183.910 505.302 200.141 505.302 C 216.372 505.302 229.466 518.396 229.466 534.627 C 229.466 550.858 216.372 563.952 200.141 563.952 C 183.910 563.952 170.817 550.858 170.816 534.627 M 450.898 283.271 C 450.898 267.703 463.458 255.143 479.026 255.143 C 494.595 255.143 507.154 267.703 507.154 283.271 C 507.154 298.840 494.595 311.399 479.026 311.399 C 463.458 311.399 450.898 298.840 450.898 283.271 M 423.352 596.105 C 423.348 596.102 405.128 568.857 374.068 563.892 C 344.209 559.119 319.352 578.353 319.346 578.354 C 319.351 578.358 334.937 606.581 364.626 612.312 C 396.583 618.482 423.347 596.107 423.352 596.105 M 447.324 562.186 C 447.324 562.180 458.877 531.509 444.839 503.360 C 431.344 476.301 401.237 467.280 401.233 467.276 C 401.233 467.282 387.351 496.382 399.968 523.861 C 413.548 553.439 447.319 562.183 447.324 562.186 M 502.266 538.192 C 502.268 538.186 522.998 512.800 518.669 481.645 C 514.508 451.694 488.850 433.543 488.847 433.538 C 488.845 433.544 466.409 456.698 469.604 486.766 C 473.043 519.130 502.263 538.186 502.266 538.192 M 549.663 555.999 C 549.666 555.995 575.888 541.648 582.910 513.834 C 589.661 487.097 574.200 462.961 574.199 462.956 C 574.195 462.960 547.297 474.836 539.689 501.342 C 531.500 529.872 549.662 555.993 549.663 555.999 M 604.152 491.581 C 604.156 491.585 632.968 499.542 646.176 525.007 C 658.873 549.487 649.353 576.523 649.353 576.528 C 649.349 576.525 620.445 571.127 606.967 547.070 C 592.459 521.175 604.152 491.587 604.152 491.581 M 584.869 451.848 C 584.873 451.845 602.391 427.626 630.865 424.142 C 658.237 420.793 680.247 439.155 680.252 439.156 C 680.247 439.159 665.096 464.359 637.846 468.588 C 608.515 473.139 584.874 451.849 584.869 451.848 M 525.473 416.260 C 525.476 416.255 531.234 384.497 557.336 367.818 C 582.428 351.785 612.428 359.396 612.433 359.396 C 612.430 359.400 609.435 391.009 584.872 407.841 C 558.434 425.959 525.479 416.259 525.473 416.260 M 446.149 412.421 C 446.151 412.416 443.090 380.286 463.697 357.159 C 483.506 334.928 514.446 334.126 514.451 334.124 C 514.450 334.129 520.130 365.367 501.047 388.225 C 480.506 412.828 446.155 412.419 446.149 412.421 M 356.335 391.576 C 356.337 391.570 356.788 356.882 381.488 334.558 C 405.232 313.097 438.386 315.826 438.391 315.824 C 438.389 315.830 440.840 349.868 417.799 372.082 C 393.000 395.991 356.341 391.574 356.335 391.576 M 318.366 275.052 C 318.371 275.049 337.288 248.898 368.034 245.137 C 397.591 241.523 421.355 261.351 421.361 261.352 C 421.356 261.356 404.995 288.566 375.570 293.130 C 343.898 298.043 318.371 275.053 318.366 275.052 M 365.015 172.555 C 365.021 172.556 396.490 165.383 422.077 182.842 C 446.674 199.624 451.452 230.203 451.455 230.208 C 451.450 230.207 421.203 239.862 396.078 223.881 C 369.035 206.678 365.018 172.560 365.015 172.555 M 489.542 217.873 C 489.539 217.869 465.464 208.376 456.428 185.241 C 447.743 163.002 458.418 140.600 458.418 140.595 C 458.422 140.598 482.811 147.895 492.208 169.843 C 502.323 193.467 489.542 217.868 489.542 217.873 M 524.927 151.624 C 524.930 151.627 544.662 161.774 550.403 182.279 C 555.921 201.991 544.908 220.196 544.907 220.199 C 544.905 220.197 524.718 211.896 518.567 192.372 C 511.948 171.358 524.927 151.628 524.927 151.624 M 553.330 159.210 C 553.332 159.213 559.152 180.624 578.015 190.505 C 596.148 200.003 616.245 193.018 616.249 193.018 C 616.246 193.015 612.327 171.543 594.510 161.466 C 575.332 150.619 553.334 159.210 553.330 159.210 M 531.185 145.808 C 531.189 145.808 552.231 152.846 570.917 142.636 C 588.880 132.821 594.220 112.225 594.223 112.222 C 594.219 112.222 574.181 103.569 555.911 112.801 C 536.246 122.737 531.188 145.805 531.185 145.808 M 487.022 128.121 C 487.026 128.118 511.670 120.217 522.197 97.722 C 532.316 76.097 523.127 53.046 523.127 53.041 C 523.123 53.044 498.309 58.733 487.499 80.020 C 475.862 102.933 487.022 128.116 487.022 128.121 M 424.703 125.813 C 424.705 125.808 443.081 104.887 440.357 78.302 C 437.739 52.746 416.508 36.551 416.506 36.547 C 416.504 36.551 396.747 55.525 398.541 81.152 C 400.473 108.736 424.701 125.808 424.703 125.813 M 359.099 149.819 C 359.098 149.813 370.223 120.285 356.709 93.184 C 343.719 67.132 314.735 58.444 314.731 58.441 C 314.730 58.446 301.363 86.461 313.508 112.918 C 326.581 141.396 359.094 149.815 359.099 149.819 M 315.709 199.598 C 315.706 199.593 308.787 168.806 282.611 153.578 C 257.448 138.940 228.454 147.596 228.449 147.596 C 228.452 147.600 232.665 178.354 257.344 193.795 C 283.907 210.416 315.703 199.597 315.709 199.598 M 294.523 265.817 C 294.518 265.814 273.907 241.922 243.643 240.827 C 214.551 239.774 193.058 261.073 193.053 261.075 C 193.058 261.078 211.268 286.217 240.311 288.205 C 271.572 290.346 294.517 265.819 294.523 265.817 M 188.664 325.601 C 188.663 325.596 193.650 294.438 174.985 270.591 C 157.042 247.667 126.905 244.958 126.900 244.956 C 126.901 244.961 119.413 275.085 136.609 298.575 C 155.118 323.859 188.659 325.599 188.664 325.601 M 134.111 357.679 C 134.107 357.676 122.799 331.234 96.816 321.930 C 71.838 312.986 47.291 325.553 47.286 325.553 C 47.290 325.557 56.167 352.417 80.844 362.161 C 107.406 372.649 134.105 357.680 134.111 357.679 M 113.621 403.802 C 113.617 403.802 92.575 393.126 71.328 400.962 C 50.904 408.495 42.083 429.331 42.081 429.334 C 42.085 429.335 61.820 441.555 82.476 434.684 C 104.710 427.288 113.618 403.806 113.621 403.802 M 118.467 461.097 C 118.465 461.101 101.008 476.975 100.781 499.619 C 100.563 521.387 116.904 537.038 116.906 537.041 C 116.908 537.038 135.344 522.934 136.262 501.185 C 137.251 477.774 118.469 461.101 118.467 461.097 M 126.008 416.149 C 126.009 416.153 121.853 439.379 135.482 457.465 C 148.583 474.850 171.078 477.288 171.081 477.290 C 171.081 477.286 177.092 454.866 164.557 437.068 C 151.065 417.911 126.012 416.151 126.008 416.149 M 178.541 358.762 C 178.539 358.767 160.568 382.253 165.360 410.226 C 169.967 437.117 193.622 452.756 193.625 452.760 C 193.627 452.755 213.202 431.235 209.463 404.209 C 205.440 375.119 178.544 358.767 178.541 358.762 M 309.427 366.174 C 309.421 366.175 279.453 358.000 254.139 373.748 C 229.805 388.886 223.967 418.095 223.964 418.100 C 223.969 418.099 252.662 428.613 277.471 414.267 C 304.174 398.824 309.424 366.179 309.427 366.174 M 231.005 697.365 C 201.448 687.003 205.086 675.149 205.083 675.147 C 205.093 675.133 266.235 584.285 298.407 535.404 C 324.717 495.430 349.667 415.597 316.773 372.508 C 294.180 342.911 243.624 341.578 206.916 347.820 C 179.311 352.515 150.455 368.302 134.090 391.023 C 120.375 410.064 118.045 460.139 118.043 460.146 C 118.043 460.139 108.743 408.199 119.277 386.085 C 133.396 356.446 165.590 333.785 197.041 324.368 C 230.426 314.373 301.950 334.242 301.961 334.243 C 301.964 334.227 270.645 268.734 329.116 181.184 C 353.233 145.075 406.145 124.002 459.868 124.582 C 492.028 124.929 551.290 157.728 551.299 157.731 C 551.290 157.729 490.006 136.858 458.723 137.982 C 431.199 138.971 380.419 145.555 347.632 189.824 C 292.610 264.113 329.118 336.697 329.116 336.711 C 329.119 336.718 352.781 379.027 357.506 402.132 C 361.595 422.127 357.506 463.843 357.506 463.850 C 357.515 463.845 412.449 420.598 445.145 414.476 C 484.129 407.175 529.494 412.819 563.642 432.991 C 585.725 446.035 605.646 492.224 605.650 492.230 C 605.642 492.224 577.069 451.001 521.674 435.459 C 479.725 423.690 425.601 439.471 394.537 470.021 C 313.954 549.269 264.345 696.108 264.332 696.130 C 264.328 696.131 245.055 702.291 231.005 697.365 M 321.826 488.088 C 321.821 488.085 304.479 458.946 272.658 452.126 C 242.069 445.571 215.341 464.089 215.335 464.090 C 215.340 464.094 229.907 494.103 260.270 501.640 C 292.951 509.752 321.820 488.090 321.826 488.088 Z"/>
</g>
<g id="specs">
<path fill="#ff0000" fill-rule="evenodd" stroke="none" d="M 256.617 642.352 C 256.617 642.355 253.289 679.164 253.289 679.168 C 253.288 679.166 246.861 663.450 246.860 663.449 C 246.858 663.449 230.721 668.729 230.719 668.730 C 230.722 668.727 256.615 642.354 256.617 642.352 Z"/>
<path fill="#0000ff" fill-rule="evenodd" stroke="none" d="M 524.773 45.234 C 524.772 45.237 522.250 66.557 522.250 66.559 C 522.250 66.558 518.769 57.330 518.769 57.329 C 518.768 57.330 509.313 60.137 509.313 60.137 C 509.314 60.135 524.771 45.236 524.773 45.234 Z"/>
<path fill="#00ff00" fill-rule="evenodd" stroke="none" d="M 120.764 235.864 C 120.765 235.865 138.655 247.735 138.657 247.737 C 138.656 247.736 128.849 246.679 128.848 246.679 C 128.848 246.680 127.087 256.384 127.087 256.385 C 127.087 256.383 120.764 235.866 120.764 235.864 Z"/>
<path fill="#ffff00" fill-rule="evenodd" stroke="none" d="M 118.274 545.486 C 118.274 545.484 111.108 525.246 111.107 525.244 C 111.108 525.245 118.311 531.983 118.311 531.984 C 118.312 531.983 125.551 525.285 125.552 525.284 C 125.551 525.286 118.275 545.484 118.274 545.486 Z"/>
<path fill="#ffff00" fill-rule="evenodd" stroke="none" d="M 652.009 584.747 C 652.008 584.745 650.127 563.359 650.126 563.356 C 650.126 563.357 646.371 572.477 646.370 572.478 C 646.369 572.478 637.003 569.389 637.002 569.389 C 637.003 569.390 652.007 584.746 652.009 584.747 Z"/>
<path fill="#00ff00" fill-rule="evenodd" stroke="none" d="M 622.218 352.519 C 622.216 352.519 601.618 358.573 601.616 358.573 C 601.617 358.574 611.298 360.461 611.299 360.461 C 611.298 360.462 610.113 370.253 610.113 370.254 C 610.114 370.253 622.217 352.520 622.218 352.519 Z"/>
<path fill="#00ffff" fill-rule="evenodd" stroke="none" d="M 625.681 199.766 C 625.679 199.765 604.993 194.017 604.991 194.017 C 604.992 194.017 614.644 191.986 614.645 191.986 C 614.645 191.985 613.315 182.212 613.315 182.211 C 613.316 182.213 625.680 199.764 625.681 199.766 Z"/>
<path fill="#00ffff" fill-rule="evenodd" stroke="none" d="M 311.577 50.545 C 311.577 50.547 312.527 71.995 312.527 71.997 C 312.528 71.996 316.676 63.048 316.677 63.047 C 316.678 63.048 325.901 66.541 325.902 66.541 C 325.900 66.540 311.578 50.547 311.577 50.545 Z"/>
<path fill="#be0027" fill-rule="evenodd" stroke="none" d="M 219.465 707.801 C 219.467 707.799 240.001 690.438 240.003 690.436 C 240.002 690.437 227.956 693.174 227.955 693.174 C 227.954 693.173 224.357 681.355 224.357 681.354 C 224.356 681.357 219.465 707.798 219.465 707.801 Z"/>
</g>
</g>
</svg>
