<?xml version="1.0" encoding="utf-8"?>
<!-- Generator: Moho 12.5 build 22414 -->
<!DOCTYPE svg PUBLIC "-//W3C//DTD SVG 1.1//EN" "http://www.w3.org/Graphics/SVG/1.1/DTD/svg11.dtd">
<svg version="1.1" id="Frame_0" xmlns="http://www.w3.org/2000/svg" xmlns:xlink="http://www.w3.org/1999/xlink" width="720px" height="720px">
<g id="bubbles">
<g id="bubbles">
<path fill="#ffffff" fill-rule="evenodd" stroke="#000000" stroke-width="4" stroke-linecap="round" stroke-linejoin="round" d="M 341.164 430.577 C 358.528 430.577 372.536 416.569 372.536 399.205 C 372.536 381.840 358.528 367.832 341.164 367.832 C 323.799 367.832 309.791 381.840 309.791 399.205 C 309.792 416.569 323.799 430.577 341.164 430.577 Z"/>
<path fill="#ffffff" fill-rule="evenodd" stroke="#000000" stroke-width="4" stroke-linecap="round" stroke-linejoin="round" d="M 420.617 352.963 C 447.082 352.963 468.432 331.613 468.432 305.148 C 468.432 278.682 447.082 257.333 420.617 257.333 C 394.152 257.333 372.802 278.682 372.802 305.148 C 372.802 331.613 394.152 352.963 420.617 352.963 Z"/>
<path fill="none" stroke="#000000" stroke-width="4" stroke-linecap="round" stroke-linejoin="round" d="M 445.934 330.464 C 459.946 316.452 459.946 293.844 445.934 279.831 C 431.921 265.818 409.313 265.818 395.300 279.831 "/>
<path fill="#ffffff" fill-rule="evenodd" stroke="#000000" stroke-width="4" stroke-linecap="round" stroke-linejoin="round" d="M 298.954 497.075 C 323.735 497.075 343.725 477.084 343.725 452.303 C 343.725 427.523 323.734 407.533 298.954 407.533 C 274.174 407.533 254.183 427.523 254.183 452.303 C 254.183 477.084 274.173 497.075 298.954 497.075 Z"/>
<path fill="none" stroke="#000000" stroke-width="4" stroke-linecap="round" stroke-linejoin="round" d="M 322.659 476.009 C 335.780 462.888 335.780 441.719 322.659 428.598 C 309.538 415.478 288.370 415.478 275.249 428.598 "/>
<path fill="#ffffff" fill-rule="evenodd" stroke="#000000" stroke-width="4" stroke-linecap="round" stroke-linejoin="round" d="M 394.915 577.151 C 415.990 577.151 432.991 560.150 432.991 539.075 C 432.991 517.999 415.990 500.998 394.915 500.998 C 373.840 500.998 356.838 517.999 356.838 539.075 C 356.838 560.150 373.840 577.151 394.915 577.151 Z"/>
<path fill="none" stroke="#000000" stroke-width="4" stroke-linecap="round" stroke-linejoin="round" d="M 415.075 559.235 C 426.234 548.076 426.234 530.073 415.075 518.914 C 403.916 507.755 385.913 507.755 374.754 518.914 "/>
<path fill="#ffffff" fill-rule="evenodd" stroke="#000000" stroke-width="4" stroke-linecap="round" stroke-linejoin="round" d="M 360.000 654.257 C 374.428 654.257 386.067 642.618 386.067 628.190 C 386.067 613.761 374.428 602.122 360.000 602.122 C 345.572 602.122 333.933 613.761 333.933 628.190 C 333.933 642.618 345.572 654.257 360.000 654.257 Z"/>
<path fill="none" stroke="#000000" stroke-width="4" stroke-linecap="round" stroke-linejoin="round" d="M 373.802 641.991 C 381.441 634.352 381.441 622.027 373.802 614.388 C 366.163 606.748 353.837 606.748 346.198 614.388 "/>
<path fill="#ffffff" fill-rule="evenodd" stroke="#000000" stroke-width="4" stroke-linecap="round" stroke-linejoin="round" d="M 359.566 172.624 C 396.683 172.864 426.819 143.116 427.059 105.999 C 427.299 68.882 397.550 38.746 360.433 38.506 C 323.316 38.266 293.181 68.015 292.941 105.132 C 292.701 142.248 322.450 172.384 359.566 172.624 Z"/>
<path fill="none" stroke="#000000" stroke-width="4" stroke-linecap="round" stroke-linejoin="round" d="M 395.276 141.301 C 415.055 121.776 415.260 90.068 395.735 70.289 C 376.210 50.510 344.503 50.305 324.723 69.830 "/>
<path fill="none" stroke="#000000" stroke-width="4" stroke-linecap="round" stroke-linejoin="round" d="M 357.774 415.815 C 366.968 406.621 366.968 391.788 357.774 382.594 C 348.580 373.400 333.747 373.400 324.553 382.594 "/>
<path fill="#ffffff" fill-rule="evenodd" stroke="#000000" stroke-width="4" stroke-linecap="round" stroke-linejoin="round" d="M 293.642 264.297 C 314.079 264.297 330.566 247.811 330.566 227.374 C 330.566 206.937 314.079 190.450 293.642 190.450 C 273.205 190.450 256.719 206.937 256.719 227.374 C 256.719 247.811 273.206 264.297 293.642 264.297 Z"/>
<path fill="none" stroke="#000000" stroke-width="4" stroke-linecap="round" stroke-linejoin="round" d="M 313.192 246.923 C 324.013 236.103 324.013 218.644 313.192 207.824 C 302.372 197.003 284.913 197.003 274.092 207.824 "/>
</g>
<g id="specs_2">
<path fill="#ff0000" fill-rule="evenodd" stroke="none" d="M 360.000 670.370 C 360.001 670.373 371.310 702.038 371.311 702.041 C 371.310 702.040 360.001 691.518 360.000 691.517 C 359.999 691.518 348.690 702.040 348.689 702.041 C 348.690 702.038 359.999 670.373 360.000 670.370 Z"/>
<path fill="#0000ff" fill-rule="evenodd" stroke="none" d="M 360.000 23.059 C 360.001 23.061 366.570 41.455 366.570 41.457 C 366.570 41.456 360.001 35.344 360.000 35.344 C 359.999 35.344 353.430 41.456 353.430 41.457 C 353.430 41.455 359.999 23.061 360.000 23.059 Z"/>
<path fill="#00ff00" fill-rule="evenodd" stroke="none" d="M 175.216 346.876 C 175.218 346.875 199.060 338.223 199.063 338.222 C 199.062 338.223 191.168 346.794 191.167 346.795 C 191.168 346.796 199.148 355.286 199.149 355.287 C 199.146 355.286 175.218 346.877 175.216 346.876 Z"/>
<path fill="#ffff00" fill-rule="evenodd" stroke="none" d="M 181.847 567.465 C 181.848 567.463 190.000 549.714 190.001 549.712 C 190.001 549.713 190.430 558.676 190.430 558.677 C 190.431 558.677 199.401 558.894 199.402 558.894 C 199.400 558.895 181.849 567.464 181.847 567.465 Z"/>
<path fill="#ffff00" fill-rule="evenodd" stroke="none" d="M 538.153 567.247 C 538.152 567.245 529.646 549.664 529.645 549.662 C 529.645 549.663 529.396 558.632 529.396 558.633 C 529.395 558.633 520.430 559.030 520.430 559.030 C 520.431 559.031 538.151 567.246 538.153 567.247 Z"/>
<path fill="#00ff00" fill-rule="evenodd" stroke="none" d="M 544.784 346.876 C 544.782 346.875 520.940 338.223 520.937 338.222 C 520.938 338.223 528.832 346.794 528.833 346.795 C 528.832 346.796 520.852 355.286 520.851 355.287 C 520.854 355.286 544.782 346.877 544.784 346.876 Z"/>
<path fill="#00ffff" fill-rule="evenodd" stroke="none" d="M 537.301 125.520 C 537.300 125.522 530.780 143.933 530.779 143.935 C 530.779 143.934 529.544 135.046 529.544 135.045 C 529.543 135.045 520.590 135.636 520.589 135.637 C 520.591 135.636 537.299 125.521 537.301 125.520 Z"/>
<path fill="#00ffff" fill-rule="evenodd" stroke="none" d="M 182.801 126.130 C 182.802 126.132 190.535 144.067 190.536 144.069 C 190.536 144.068 191.175 135.118 191.175 135.117 C 191.176 135.117 200.149 135.110 200.150 135.110 C 200.148 135.109 182.803 126.131 182.801 126.130 Z"/>
<path fill="#be0027" fill-rule="evenodd" stroke="none" d="M 360.000 679.225 C 360.001 679.222 371.310 647.557 371.311 647.554 C 371.310 647.555 360.001 658.077 360.000 658.078 C 359.999 658.077 348.690 647.555 348.689 647.554 C 348.690 647.557 359.999 679.222 360.000 679.225 Z"/>
</g>
</g>
</svg>
