<?xml version="1.0" encoding="utf-8"?>
<!-- Generator: Moho 12.5 build 22414 -->
<!DOCTYPE svg PUBLIC "-//W3C//DTD SVG 1.1//EN" "http://www.w3.org/Graphics/SVG/1.1/DTD/svg11.dtd">
<svg version="1.1" id="Frame_0" xmlns="http://www.w3.org/2000/svg" xmlns:xlink="http://www.w3.org/1999/xlink" width="720px" height="720px">
<g id="bubbles">
<g id="bubbles">
<path fill="#ffffff" fill-rule="evenodd" stroke="#000000" stroke-width="4" stroke-linecap="round" stroke-linejoin="round" d="M 418.002 348.059 C 444.467 348.059 465.817 369.409 465.817 395.874 C 465.817 422.340 444.467 443.689 418.002 443.689 C 391.537 443.689 370.187 422.340 370.187 395.874 C 370.187 369.409 391.537 348.059 418.002 348.059 Z"/>
<path fill="none" stroke="#000000" stroke-width="4" stroke-linecap="round" stroke-linejoin="round" d="M 443.318 370.558 C 457.331 384.570 457.331 407.178 443.318 421.191 C 429.306 435.204 406.698 435.204 392.685 421.191 "/>
<path fill="#ffffff" fill-rule="evenodd" stroke="#000000" stroke-width="4" stroke-linecap="round" stroke-linejoin="round" d="M 298.954 194.795 C 323.735 194.795 343.725 214.785 343.725 239.566 C 343.725 264.347 323.735 284.337 298.954 284.337 C 274.174 284.337 254.183 264.347 254.183 239.566 C 254.183 214.786 274.174 194.795 298.954 194.795 Z"/>
<path fill="none" stroke="#000000" stroke-width="4" stroke-linecap="round" stroke-linejoin="round" d="M 322.659 215.861 C 335.780 228.982 335.780 250.151 322.659 263.271 C 309.538 276.392 288.370 276.392 275.249 263.271 "/>
<path fill="#ffffff" fill-rule="evenodd" stroke="#000000" stroke-width="4" stroke-linecap="round" stroke-linejoin="round" d="M 394.915 114.718 C 415.990 114.718 432.991 131.720 432.991 152.795 C 432.991 173.870 415.990 190.872 394.915 190.872 C 373.840 190.872 356.838 173.870 356.838 152.795 C 356.838 131.720 373.840 114.718 394.915 114.718 Z"/>
<path fill="none" stroke="#000000" stroke-width="4" stroke-linecap="round" stroke-linejoin="round" d="M 415.075 132.634 C 426.234 143.793 426.234 161.797 415.075 172.955 C 403.916 184.114 385.913 184.114 374.754 172.955 "/>
<path fill="#ffffff" fill-rule="evenodd" stroke="#000000" stroke-width="4" stroke-linecap="round" stroke-linejoin="round" d="M 360.000 37.613 C 374.428 37.613 386.067 49.252 386.067 63.680 C 386.067 78.108 374.428 89.747 360.000 89.747 C 345.572 89.747 333.933 78.108 333.933 63.680 C 333.933 49.252 345.572 37.613 360.000 37.613 Z"/>
<path fill="none" stroke="#000000" stroke-width="4" stroke-linecap="round" stroke-linejoin="round" d="M 373.802 49.878 C 381.441 57.517 381.441 69.843 373.802 77.482 C 366.163 85.121 353.837 85.121 346.198 77.482 "/>
<path fill="#ffffff" fill-rule="evenodd" stroke="#000000" stroke-width="4" stroke-linecap="round" stroke-linejoin="round" d="M 359.587 524.722 C 394.923 524.494 423.615 552.815 423.843 588.152 C 424.072 623.489 395.749 652.180 360.413 652.408 C 325.076 652.636 296.385 624.314 296.157 588.978 C 295.928 553.641 324.250 524.951 359.587 524.722 Z"/>
<path fill="none" stroke="#000000" stroke-width="4" stroke-linecap="round" stroke-linejoin="round" d="M 393.584 554.544 C 412.415 573.132 412.610 603.319 394.021 622.149 C 375.433 640.980 345.246 641.175 326.415 622.586 "/>
<path fill="#ffffff" fill-rule="evenodd" stroke="#000000" stroke-width="4" stroke-linecap="round" stroke-linejoin="round" d="M 338.301 252.706 C 355.666 252.706 369.674 266.714 369.674 284.078 C 369.674 301.443 355.666 315.451 338.301 315.450 C 320.937 315.450 306.929 301.442 306.929 284.078 C 306.929 266.714 320.937 252.706 338.301 252.706 Z"/>
<path fill="none" stroke="#000000" stroke-width="4" stroke-linecap="round" stroke-linejoin="round" d="M 354.912 267.468 C 364.106 276.661 364.106 291.495 354.912 300.689 C 345.718 309.883 330.884 309.883 321.690 300.689 "/>
<path fill="#ffffff" fill-rule="evenodd" stroke="#000000" stroke-width="4" stroke-linecap="round" stroke-linejoin="round" d="M 304.933 480.373 C 325.370 480.373 341.856 496.860 341.856 517.297 C 341.856 537.734 325.370 554.221 304.933 554.221 C 284.496 554.220 268.009 537.734 268.010 517.297 C 268.010 496.860 284.496 480.373 304.933 480.373 Z"/>
<path fill="none" stroke="#000000" stroke-width="4" stroke-linecap="round" stroke-linejoin="round" d="M 324.483 497.747 C 335.303 508.568 335.303 526.026 324.483 536.847 C 313.662 547.668 296.203 547.668 285.382 536.847 "/>
</g>
<g id="specs_2">
<path fill="#ff0000" fill-rule="evenodd" stroke="none" d="M 360.000 633.161 C 360.001 633.164 371.310 664.829 371.311 664.832 C 371.310 664.831 360.001 654.309 360.000 654.308 C 359.999 654.309 348.690 664.831 348.689 664.832 C 348.690 664.829 359.999 633.164 360.000 633.161 Z"/>
<path fill="#0000ff" fill-rule="evenodd" stroke="none" d="M 360.000 23.059 C 360.001 23.061 366.570 41.455 366.570 41.457 C 366.570 41.456 360.001 35.344 360.000 35.344 C 359.999 35.344 353.430 41.456 353.430 41.457 C 353.430 41.455 359.999 23.061 360.000 23.059 Z"/>
<path fill="#00ff00" fill-rule="evenodd" stroke="none" d="M 175.216 346.876 C 175.218 346.875 199.060 338.223 199.063 338.222 C 199.062 338.223 191.168 346.794 191.167 346.795 C 191.168 346.796 199.148 355.286 199.149 355.287 C 199.146 355.286 175.218 346.877 175.216 346.876 Z"/>
<path fill="#ffff00" fill-rule="evenodd" stroke="none" d="M 181.847 567.465 C 181.848 567.463 190.000 549.714 190.001 549.712 C 190.001 549.713 190.430 558.676 190.430 558.677 C 190.431 558.677 199.401 558.894 199.402 558.894 C 199.400 558.895 181.849 567.464 181.847 567.465 Z"/>
<path fill="#ffff00" fill-rule="evenodd" stroke="none" d="M 538.153 567.247 C 538.152 567.245 529.646 549.664 529.645 549.662 C 529.645 549.663 529.396 558.632 529.396 558.633 C 529.395 558.633 520.430 559.030 520.430 559.030 C 520.431 559.031 538.151 567.246 538.153 567.247 Z"/>
<path fill="#00ff00" fill-rule="evenodd" stroke="none" d="M 544.784 346.876 C 544.782 346.875 520.940 338.223 520.937 338.222 C 520.938 338.223 528.832 346.794 528.833 346.795 C 528.832 346.796 520.852 355.286 520.851 355.287 C 520.854 355.286 544.782 346.877 544.784 346.876 Z"/>
<path fill="#00ffff" fill-rule="evenodd" stroke="none" d="M 537.301 125.520 C 537.300 125.522 530.780 143.933 530.779 143.935 C 530.779 143.934 529.544 135.046 529.544 135.045 C 529.543 135.045 520.590 135.636 520.589 135.637 C 520.591 135.636 537.299 125.521 537.301 125.520 Z"/>
<path fill="#00ffff" fill-rule="evenodd" stroke="none" d="M 182.801 126.130 C 182.802 126.132 190.535 144.067 190.536 144.069 C 190.536 144.068 191.175 135.118 191.175 135.117 C 191.176 135.117 200.149 135.110 200.150 135.110 C 200.148 135.109 182.803 126.131 182.801 126.130 Z"/>
<path fill="#be0027" fill-rule="evenodd" stroke="none" d="M 360.000 675.409 C 360.001 675.406 371.310 643.741 371.311 643.737 C 371.310 643.738 360.001 654.261 360.000 654.262 C 359.999 654.261 348.690 643.738 348.689 643.737 C 348.690 643.741 359.999 675.406 360.000 675.409 Z"/>
</g>
</g>
</svg>
