<?xml version="1.0" encoding="utf-8"?>
<!-- Generator: Moho 12.5 build 22414 -->
<!DOCTYPE svg PUBLIC "-//W3C//DTD SVG 1.1//EN" "http://www.w3.org/Graphics/SVG/1.1/DTD/svg11.dtd">
<svg version="1.1" id="Frame_0" xmlns="http://www.w3.org/2000/svg" xmlns:xlink="http://www.w3.org/1999/xlink" width="720px" height="720px">
<g id="bubbles">
<g id="bubbles">
<path fill="#ffffff" fill-rule="evenodd" stroke="#000000" stroke-width="4" stroke-linecap="round" stroke-linejoin="round" d="M 407.374 348.064 C 433.840 348.064 455.189 369.414 455.189 395.879 C 455.189 422.344 433.840 443.694 407.374 443.694 C 380.909 443.694 359.559 422.344 359.559 395.879 C 359.559 369.414 380.909 348.064 407.374 348.064 Z"/>
<path fill="none" stroke="#000000" stroke-width="4" stroke-linecap="round" stroke-linejoin="round" d="M 432.691 370.563 C 446.703 384.575 446.703 407.183 432.691 421.196 C 418.678 435.208 396.070 435.208 382.058 421.196 "/>
<path fill="#ffffff" fill-rule="evenodd" stroke="#000000" stroke-width="4" stroke-linecap="round" stroke-linejoin="round" d="M 312.238 194.800 C 337.018 194.800 357.009 214.790 357.009 239.571 C 357.009 264.352 337.018 284.342 312.238 284.342 C 287.457 284.342 267.467 264.352 267.467 239.571 C 267.467 214.791 287.457 194.800 312.238 194.800 Z"/>
<path fill="none" stroke="#000000" stroke-width="4" stroke-linecap="round" stroke-linejoin="round" d="M 335.943 215.866 C 349.063 228.987 349.063 250.156 335.943 263.276 C 322.822 276.397 301.653 276.397 288.533 263.276 "/>
<path fill="#ffffff" fill-rule="evenodd" stroke="#000000" stroke-width="4" stroke-linecap="round" stroke-linejoin="round" d="M 394.915 114.718 C 415.990 114.718 432.991 131.720 432.991 152.795 C 432.991 173.870 415.990 190.872 394.915 190.872 C 373.840 190.872 356.838 173.870 356.838 152.795 C 356.838 131.720 373.840 114.718 394.915 114.718 Z"/>
<path fill="none" stroke="#000000" stroke-width="4" stroke-linecap="round" stroke-linejoin="round" d="M 415.075 132.634 C 426.234 143.793 426.234 161.797 415.075 172.955 C 403.916 184.114 385.913 184.114 374.754 172.955 "/>
<path fill="#ffffff" fill-rule="evenodd" stroke="#000000" stroke-width="4" stroke-linecap="round" stroke-linejoin="round" d="M 360.000 37.886 C 371.941 37.886 381.574 47.519 381.574 59.460 C 381.574 71.402 371.941 81.035 360.000 81.035 C 348.059 81.035 338.426 71.402 338.426 59.460 C 338.426 47.519 348.059 37.886 360.000 37.886 Z"/>
<path fill="none" stroke="#000000" stroke-width="4" stroke-linecap="round" stroke-linejoin="round" d="M 371.423 48.038 C 377.745 54.360 377.745 64.561 371.423 70.883 C 365.100 77.206 354.900 77.206 348.577 70.883 "/>
<path fill="#ffffff" fill-rule="evenodd" stroke="#000000" stroke-width="4" stroke-linecap="round" stroke-linejoin="round" d="M 359.587 524.722 C 394.924 524.494 423.615 552.815 423.843 588.152 C 424.072 623.489 395.749 652.180 360.413 652.408 C 325.076 652.637 296.385 624.315 296.157 588.978 C 295.928 553.641 324.250 524.951 359.587 524.722 Z"/>
<path fill="none" stroke="#000000" stroke-width="4" stroke-linecap="round" stroke-linejoin="round" d="M 393.584 554.544 C 412.415 573.132 412.610 603.319 394.021 622.149 C 375.433 640.980 345.246 641.175 326.415 622.586 "/>
<path fill="#ffffff" fill-rule="evenodd" stroke="#000000" stroke-width="4" stroke-linecap="round" stroke-linejoin="round" d="M 351.585 252.711 C 368.949 252.711 382.957 266.719 382.958 284.083 C 382.958 301.448 368.949 315.456 351.585 315.456 C 334.220 315.456 320.213 301.448 320.213 284.083 C 320.213 266.719 334.221 252.711 351.585 252.711 Z"/>
<path fill="none" stroke="#000000" stroke-width="4" stroke-linecap="round" stroke-linejoin="round" d="M 368.196 267.473 C 377.389 276.667 377.389 291.500 368.196 300.694 C 359.002 309.888 344.168 309.888 334.974 300.694 "/>
<path fill="#ffffff" fill-rule="evenodd" stroke="#000000" stroke-width="4" stroke-linecap="round" stroke-linejoin="round" d="M 373.081 428.332 C 391.535 428.332 406.421 443.218 406.421 461.671 C 406.421 480.125 391.535 495.011 373.081 495.011 C 354.628 495.011 339.742 480.124 339.742 461.671 C 339.742 443.218 354.628 428.332 373.081 428.332 Z"/>
<path fill="none" stroke="#000000" stroke-width="4" stroke-linecap="round" stroke-linejoin="round" d="M 390.734 444.019 C 400.504 453.790 400.504 469.553 390.734 479.324 C 380.963 489.094 365.200 489.094 355.429 479.324 "/>
<path fill="#ffffff" fill-rule="evenodd" stroke="#000000" stroke-width="4" stroke-linecap="round" stroke-linejoin="round" d="M 284.191 363.632 C 299.376 363.632 311.626 375.881 311.626 391.066 C 311.626 406.251 299.376 418.500 284.191 418.500 C 269.007 418.500 256.757 406.251 256.757 391.066 C 256.757 375.881 269.007 363.632 284.191 363.632 Z"/>
<path fill="none" stroke="#000000" stroke-width="4" stroke-linecap="round" stroke-linejoin="round" d="M 298.717 376.540 C 306.757 384.580 306.757 397.552 298.717 405.592 C 290.677 413.632 277.705 413.632 269.665 405.592 "/>
<path fill="#ffffff" fill-rule="evenodd" stroke="#000000" stroke-width="4" stroke-linecap="round" stroke-linejoin="round" d="M 346.079 104.830 C 361.263 104.830 373.513 117.080 373.513 132.265 C 373.513 147.450 361.263 159.699 346.079 159.699 C 330.894 159.699 318.644 147.450 318.644 132.265 C 318.644 117.080 330.894 104.830 346.079 104.830 Z"/>
<path fill="none" stroke="#000000" stroke-width="4" stroke-linecap="round" stroke-linejoin="round" d="M 360.604 117.739 C 368.644 125.779 368.644 138.751 360.604 146.791 C 352.564 154.831 339.593 154.831 331.553 146.791 "/>
<path fill="#ffffff" fill-rule="evenodd" stroke="#000000" stroke-width="4" stroke-linecap="round" stroke-linejoin="round" d="M 440.073 218.561 C 452.897 218.561 463.243 228.907 463.243 241.731 C 463.243 254.555 452.897 264.901 440.073 264.901 C 427.249 264.901 416.904 254.555 416.904 241.731 C 416.904 228.907 427.249 218.562 440.073 218.561 Z"/>
<path fill="none" stroke="#000000" stroke-width="4" stroke-linecap="round" stroke-linejoin="round" d="M 452.341 229.464 C 459.131 236.254 459.131 247.209 452.341 253.999 C 445.551 260.789 434.595 260.789 427.805 253.999 "/>
<path fill="#ffffff" fill-rule="evenodd" stroke="#000000" stroke-width="4" stroke-linecap="round" stroke-linejoin="round" d="M 309.152 487.406 C 329.589 487.406 346.076 503.892 346.076 524.329 C 346.076 544.766 329.589 561.253 309.152 561.253 C 288.715 561.253 272.229 544.766 272.229 524.329 C 272.229 503.893 288.715 487.406 309.152 487.406 Z"/>
<path fill="none" stroke="#000000" stroke-width="4" stroke-linecap="round" stroke-linejoin="round" d="M 328.702 504.780 C 339.523 515.601 339.523 533.059 328.702 543.880 C 317.881 554.701 300.423 554.701 289.602 543.880 "/>
</g>
<g id="specs_2">
<path fill="#ff0000" fill-rule="evenodd" stroke="none" d="M 360.000 674.349 C 360.001 674.352 371.310 706.017 371.311 706.020 C 371.310 706.019 360.001 695.497 360.000 695.496 C 359.999 695.497 348.690 706.019 348.689 706.020 C 348.690 706.017 359.999 674.352 360.000 674.349 Z"/>
<path fill="#0000ff" fill-rule="evenodd" stroke="none" d="M 360.000 23.059 C 360.001 23.061 366.570 41.455 366.570 41.457 C 366.570 41.456 360.001 35.344 360.000 35.344 C 359.999 35.344 353.430 41.456 353.430 41.457 C 353.430 41.455 359.999 23.061 360.000 23.059 Z"/>
<path fill="#00ff00" fill-rule="evenodd" stroke="none" d="M 175.216 346.876 C 175.218 346.875 199.060 338.223 199.063 338.222 C 199.062 338.223 191.168 346.794 191.167 346.795 C 191.168 346.796 199.148 355.286 199.149 355.287 C 199.146 355.286 175.218 346.877 175.216 346.876 Z"/>
<path fill="#ffff00" fill-rule="evenodd" stroke="none" d="M 181.847 567.465 C 181.848 567.463 190.000 549.714 190.001 549.712 C 190.001 549.713 190.430 558.676 190.430 558.677 C 190.431 558.677 199.401 558.894 199.402 558.894 C 199.400 558.895 181.849 567.464 181.847 567.465 Z"/>
<path fill="#ffff00" fill-rule="evenodd" stroke="none" d="M 538.153 567.247 C 538.152 567.245 529.646 549.664 529.645 549.662 C 529.645 549.663 529.396 558.632 529.396 558.633 C 529.395 558.633 520.430 559.030 520.430 559.030 C 520.431 559.031 538.151 567.246 538.153 567.247 Z"/>
<path fill="#00ff00" fill-rule="evenodd" stroke="none" d="M 544.784 346.876 C 544.782 346.875 520.940 338.223 520.937 338.222 C 520.938 338.223 528.832 346.794 528.833 346.795 C 528.832 346.796 520.852 355.286 520.851 355.287 C 520.854 355.286 544.782 346.877 544.784 346.876 Z"/>
<path fill="#00ffff" fill-rule="evenodd" stroke="none" d="M 537.301 125.520 C 537.300 125.522 530.780 143.933 530.779 143.935 C 530.779 143.934 529.544 135.046 529.544 135.045 C 529.543 135.045 520.590 135.636 520.589 135.637 C 520.591 135.636 537.299 125.521 537.301 125.520 Z"/>
<path fill="#00ffff" fill-rule="evenodd" stroke="none" d="M 182.801 126.130 C 182.802 126.132 190.535 144.067 190.536 144.069 C 190.536 144.068 191.175 135.118 191.175 135.117 C 191.176 135.117 200.149 135.110 200.150 135.110 C 200.148 135.109 182.803 126.131 182.801 126.130 Z"/>
<path fill="#be0027" fill-rule="evenodd" stroke="none" d="M 360.000 675.409 C 360.001 675.406 371.310 643.741 371.311 643.737 C 371.310 643.738 360.001 654.261 360.000 654.262 C 359.999 654.261 348.690 643.738 348.689 643.737 C 348.690 643.741 359.999 675.406 360.000 675.409 Z"/>
</g>
</g>
</svg>
