<?xml version="1.0" encoding="utf-8"?>
<!-- Generator: Moho 12.5 build 22414 -->
<!DOCTYPE svg PUBLIC "-//W3C//DTD SVG 1.1//EN" "http://www.w3.org/Graphics/SVG/1.1/DTD/svg11.dtd">
<svg version="1.1" id="Frame_0" xmlns="http://www.w3.org/2000/svg" xmlns:xlink="http://www.w3.org/1999/xlink" width="720px" height="720px">
<g id="bubbles">
<g id="bubbles">
<path fill="#ffffff" fill-rule="evenodd" stroke="#000000" stroke-width="4" stroke-linecap="round" stroke-linejoin="round" d="M 413.288 353.605 C 446.023 353.605 472.430 380.011 472.430 412.746 C 472.430 445.480 446.023 471.886 413.288 471.886 C 380.554 471.886 354.147 445.480 354.147 412.746 C 354.147 380.011 380.554 353.605 413.288 353.605 Z"/>
<path fill="none" stroke="#000000" stroke-width="4" stroke-linecap="round" stroke-linejoin="round" d="M 444.602 381.432 C 461.933 398.764 461.933 426.727 444.602 444.059 C 427.270 461.391 399.307 461.391 381.975 444.059 "/>
<path fill="#ffffff" fill-rule="evenodd" stroke="#000000" stroke-width="4" stroke-linecap="round" stroke-linejoin="round" d="M 315.214 205.050 C 346.702 205.050 372.103 230.452 372.103 261.939 C 372.103 293.427 346.702 318.828 315.214 318.828 C 283.727 318.828 258.326 293.427 258.326 261.939 C 258.326 230.452 283.727 205.050 315.214 205.050 Z"/>
<path fill="none" stroke="#000000" stroke-width="4" stroke-linecap="round" stroke-linejoin="round" d="M 345.335 231.818 C 362.007 248.490 362.007 275.388 345.335 292.060 C 328.663 308.732 301.765 308.732 285.093 292.060 "/>
<path fill="#ffffff" fill-rule="evenodd" stroke="#000000" stroke-width="4" stroke-linecap="round" stroke-linejoin="round" d="M 402.235 117.520 C 423.310 117.520 440.311 134.521 440.311 155.596 C 440.312 176.671 423.310 193.673 402.235 193.673 C 381.160 193.673 364.159 176.671 364.159 155.596 C 364.159 134.521 381.160 117.520 402.235 117.520 Z"/>
<path fill="none" stroke="#000000" stroke-width="4" stroke-linecap="round" stroke-linejoin="round" d="M 422.395 135.436 C 433.554 146.594 433.554 164.598 422.395 175.757 C 411.237 186.915 393.233 186.915 382.075 175.757 "/>
<path fill="#ffffff" fill-rule="evenodd" stroke="#000000" stroke-width="4" stroke-linecap="round" stroke-linejoin="round" d="M 345.625 38.742 C 364.876 38.742 380.406 54.272 380.406 73.523 C 380.406 92.774 364.876 108.304 345.625 108.304 C 326.374 108.304 310.844 92.774 310.844 73.523 C 310.844 54.272 326.374 38.742 345.625 38.742 Z"/>
<path fill="none" stroke="#000000" stroke-width="4" stroke-linecap="round" stroke-linejoin="round" d="M 364.041 55.107 C 374.234 65.300 374.234 81.745 364.041 91.938 C 353.848 102.131 337.402 102.131 327.210 91.938 "/>
<path fill="#ffffff" fill-rule="evenodd" stroke="#000000" stroke-width="4" stroke-linecap="round" stroke-linejoin="round" d="M 359.473 490.225 C 404.555 489.934 441.158 526.066 441.450 571.148 C 441.741 616.230 405.608 652.834 360.526 653.125 C 315.444 653.416 278.842 617.283 278.550 572.201 C 278.259 527.120 314.391 490.517 359.473 490.225 Z"/>
<path fill="none" stroke="#000000" stroke-width="4" stroke-linecap="round" stroke-linejoin="round" d="M 402.846 528.271 C 426.870 551.986 427.119 590.497 403.404 614.521 C 379.689 638.545 341.177 638.794 317.153 615.079 "/>
<path fill="#ffffff" fill-rule="evenodd" stroke="#000000" stroke-width="4" stroke-linecap="round" stroke-linejoin="round" d="M 374.049 259.732 C 395.124 259.732 412.126 276.733 412.126 297.808 C 412.126 318.884 395.124 335.885 374.049 335.885 C 352.974 335.885 335.972 318.883 335.972 297.808 C 335.972 276.733 352.974 259.732 374.049 259.732 Z"/>
<path fill="none" stroke="#000000" stroke-width="4" stroke-linecap="round" stroke-linejoin="round" d="M 394.209 277.648 C 405.368 288.807 405.368 306.810 394.209 317.969 C 383.050 329.128 365.047 329.128 353.888 317.969 "/>
<path fill="#ffffff" fill-rule="evenodd" stroke="#000000" stroke-width="4" stroke-linecap="round" stroke-linejoin="round" d="M 285.647 419.881 C 306.722 419.881 323.724 436.882 323.724 457.957 C 323.724 479.033 306.722 496.034 285.647 496.034 C 264.572 496.034 247.570 479.033 247.570 457.957 C 247.571 436.882 264.572 419.881 285.647 419.881 Z"/>
<path fill="none" stroke="#000000" stroke-width="4" stroke-linecap="round" stroke-linejoin="round" d="M 305.807 437.797 C 316.966 448.956 316.966 466.959 305.807 478.118 C 294.649 489.277 276.645 489.277 265.486 478.118 "/>
</g>
<g id="specs_2">
<path fill="#ff0000" fill-rule="evenodd" stroke="none" d="M 360.000 674.349 C 360.001 674.352 371.310 706.017 371.311 706.020 C 371.310 706.019 360.001 695.497 360.000 695.496 C 359.999 695.497 348.690 706.019 348.689 706.020 C 348.690 706.017 359.999 674.352 360.000 674.349 Z"/>
<path fill="#0000ff" fill-rule="evenodd" stroke="none" d="M 360.000 23.059 C 360.001 23.061 366.570 41.455 366.570 41.457 C 366.570 41.456 360.001 35.344 360.000 35.344 C 359.999 35.344 353.430 41.456 353.430 41.457 C 353.430 41.455 359.999 23.061 360.000 23.059 Z"/>
<path fill="#00ff00" fill-rule="evenodd" stroke="none" d="M 175.216 346.876 C 175.218 346.875 199.060 338.223 199.063 338.222 C 199.062 338.223 191.168 346.794 191.167 346.795 C 191.168 346.796 199.148 355.286 199.149 355.287 C 199.146 355.286 175.218 346.877 175.216 346.876 Z"/>
<path fill="#ffff00" fill-rule="evenodd" stroke="none" d="M 181.847 567.465 C 181.848 567.463 190.000 549.714 190.001 549.712 C 190.001 549.713 190.430 558.676 190.430 558.677 C 190.431 558.677 199.401 558.894 199.402 558.894 C 199.400 558.895 181.849 567.464 181.847 567.465 Z"/>
<path fill="#ffff00" fill-rule="evenodd" stroke="none" d="M 538.153 567.247 C 538.152 567.245 529.646 549.664 529.645 549.662 C 529.645 549.663 529.396 558.632 529.396 558.633 C 529.395 558.633 520.430 559.030 520.430 559.030 C 520.431 559.031 538.151 567.246 538.153 567.247 Z"/>
<path fill="#00ff00" fill-rule="evenodd" stroke="none" d="M 544.784 346.876 C 544.782 346.875 520.940 338.223 520.937 338.222 C 520.938 338.223 528.832 346.794 528.833 346.795 C 528.832 346.796 520.852 355.286 520.851 355.287 C 520.854 355.286 544.782 346.877 544.784 346.876 Z"/>
<path fill="#00ffff" fill-rule="evenodd" stroke="none" d="M 537.301 125.520 C 537.300 125.522 530.780 143.933 530.779 143.935 C 530.779 143.934 529.544 135.046 529.544 135.045 C 529.543 135.045 520.590 135.636 520.589 135.637 C 520.591 135.636 537.299 125.521 537.301 125.520 Z"/>
<path fill="#00ffff" fill-rule="evenodd" stroke="none" d="M 182.801 126.130 C 182.802 126.132 190.535 144.067 190.536 144.069 C 190.536 144.068 191.175 135.118 191.175 135.117 C 191.176 135.117 200.149 135.110 200.150 135.110 C 200.148 135.109 182.803 126.131 182.801 126.130 Z"/>
<path fill="#be0027" fill-rule="evenodd" stroke="none" d="M 360.000 675.409 C 360.001 675.406 371.310 643.741 371.311 643.737 C 371.310 643.738 360.001 654.261 360.000 654.262 C 359.999 654.261 348.690 643.738 348.689 643.737 C 348.690 643.741 359.999 675.406 360.000 675.409 Z"/>
</g>
</g>
</svg>
