<?xml version="1.0" encoding="utf-8"?>
<!-- Generator: Moho 13.5 build 20210422 -->
<!DOCTYPE svg PUBLIC "-//W3C//DTD SVG 1.1//EN" "http://www.w3.org/Graphics/SVG/1.1/DTD/svg11.dtd">
<svg version="1.1" id="Frame_0" xmlns="http://www.w3.org/2000/svg" xmlns:xlink="http://www.w3.org/1999/xlink" width="720px" height="720px">
<g id="halves">
<g id="capricorn_tail">
<g id="capricorn_tail">
<path fill="#ffffff" fill-rule="evenodd" stroke="#000000" stroke-width="4" stroke-linecap="round" stroke-linejoin="round" d="M 399.240 541.506 C 444.760 574.727 513.150 576.485 543.485 556.934 C 543.498 556.947 608.499 628.578 631.912 626.204 C 656.026 623.758 622.294 562.658 629.546 540.630 C 643.421 498.483 714.773 480.233 704.892 462.685 C 688.522 433.612 633.561 471.275 602.291 463.902 C 599.428 463.304 596.875 462.325 594.542 460.934 C 562.736 441.965 569.345 399.389 510.466 369.851 C 469.175 349.137 413.390 354.961 379.097 406.634 C 367.296 424.416 361.747 446.900 361.440 458.113 C 360.388 496.560 370.289 520.377 399.240 541.506 M 468.505 462.374 C 489.254 449.025 505.060 482.383 505.063 482.386 C 505.060 482.386 486.268 494.162 469.031 483.627 C 461.423 478.976 459.260 468.322 468.505 462.374 Z"/>
<path fill="none" stroke="#ffffff" stroke-width="1" stroke-linecap="butt" stroke-linejoin="round" d="M 379.097 406.634 C 367.296 424.416 361.747 446.900 361.440 458.113 "/>
<path fill="none" stroke="#ffffff" stroke-width="1" stroke-linecap="butt" stroke-linejoin="round" d="M 602.291 463.902 C 599.428 463.304 596.875 462.325 594.542 460.934 "/>
<path fill="none" stroke="#ffffff" stroke-width="1" stroke-linecap="butt" stroke-linejoin="round" d="M 594.542 460.934 C 562.736 441.965 569.345 399.389 510.466 369.851 "/>
<path fill="none" stroke="#ffffff" stroke-width="1" stroke-linecap="butt" stroke-linejoin="round" d="M 510.466 369.851 C 469.175 349.137 413.390 354.961 379.097 406.634 "/>
<path fill="#ffffff" fill-rule="evenodd" stroke="#000000" stroke-width="4" stroke-linecap="round" stroke-linejoin="round" d="M 379.097 406.634 C 367.296 424.416 361.747 446.900 361.440 458.113 C 352.006 459.102 329.118 459.751 329.115 459.751 C 329.115 459.737 329.190 320.662 329.190 320.648 C 329.190 320.648 334.224 320.186 335.184 320.100 C 369.118 317.063 423.306 302.079 453.539 304.166 C 490.766 306.737 552.685 318.855 579.654 356.714 C 600.467 385.931 608.069 426.669 602.291 463.902 C 599.428 463.304 596.875 462.325 594.542 460.934 C 562.736 441.965 569.345 399.389 510.466 369.851 C 469.175 349.137 413.390 354.961 379.097 406.634 Z"/>
<path fill="none" stroke="#000000" stroke-width="4" stroke-linecap="round" stroke-linejoin="round" d="M 505.063 482.386 C 505.066 482.392 522.263 528.281 534.073 543.141 C 522.263 528.281 505.066 482.392 505.063 482.386 M 534.073 543.141 C 539.390 549.830 543.472 556.940 543.485 556.934 "/>
<path fill="none" stroke="#000000" stroke-width="4" stroke-linecap="round" stroke-linejoin="round" d="M 545.025 535.609 C 545.029 535.613 569.482 566.406 585.984 581.563 C 601.713 596.010 632.899 616.788 632.904 616.792 M 560.090 533.934 C 560.093 533.938 578.169 555.229 590.253 565.584 C 603.745 577.145 630.389 593.355 630.393 593.358 M 571.807 524.728 C 571.810 524.731 586.663 541.413 596.709 549.194 C 604.951 555.577 621.184 564.063 621.187 564.065 M 579.340 515.522 C 579.343 515.524 595.615 528.194 605.691 534.287 C 611.125 537.573 621.185 542.303 621.187 542.304 M 593.568 472.838 C 593.572 472.838 616.805 478.472 632.775 476.002 C 653.414 472.810 688.974 464.470 688.979 464.468 M 592.731 484.555 C 592.734 484.556 613.071 489.633 627.069 489.577 C 642.016 489.516 668.052 487.066 668.056 487.066 M 590.220 497.110 C 590.222 497.110 603.646 501.454 611.520 503.185 C 623.372 505.791 642.107 508.826 642.110 508.827 M 586.035 507.153 C 586.037 507.154 600.194 514.779 608.716 518.200 C 614.930 520.694 626.206 523.891 626.208 523.891 "/>
</g>
<g id="specs_2">
<path fill="#ff0000" fill-rule="evenodd" stroke="none" d="M 340.699 390.449 C 340.698 390.448 325.229 384.924 325.228 384.923 C 325.228 384.924 330.368 390.448 330.369 390.449 C 330.368 390.449 325.228 395.974 325.228 395.974 C 325.229 395.974 340.698 390.449 340.699 390.449 Z"/>
<path fill="#0000ff" fill-rule="evenodd" stroke="none" d="M 322.474 389.633 C 322.475 389.633 331.460 386.424 331.461 386.424 C 331.461 386.424 328.475 389.633 328.475 389.633 C 328.475 389.634 331.461 392.842 331.461 392.843 C 331.460 392.842 322.475 389.634 322.474 389.633 Z"/>
<path fill="#00ff00" fill-rule="evenodd" stroke="none" d="M 473.562 573.413 C 473.562 573.412 476.816 564.443 476.817 564.442 C 476.816 564.442 473.592 567.412 473.592 567.412 C 473.592 567.412 470.398 564.410 470.397 564.410 C 470.398 564.411 473.561 573.412 473.562 573.413 Z"/>
<path fill="#00ff00" fill-rule="evenodd" stroke="none" d="M 473.562 300.750 C 473.562 300.751 476.816 309.721 476.817 309.722 C 476.816 309.721 473.592 306.752 473.592 306.751 C 473.592 306.752 470.398 309.753 470.397 309.754 C 470.398 309.753 473.561 300.751 473.562 300.750 Z"/>
<path fill="none" stroke="#ffff00" stroke-width="4" stroke-linecap="round" stroke-linejoin="round" d="M 329.190 320.648 C 329.190 320.662 329.115 459.737 329.115 459.751 "/>
</g>
</g>
</g>
</svg>
