<?xml version="1.0" encoding="utf-8"?>
<!-- Generator: Moho 13.5.1 build 20210623 -->
<!DOCTYPE svg PUBLIC "-//W3C//DTD SVG 1.1//EN" "http://www.w3.org/Graphics/SVG/1.1/DTD/svg11.dtd">
<svg version="1.1" id="Frame_0" xmlns="http://www.w3.org/2000/svg" xmlns:xlink="http://www.w3.org/1999/xlink" width="720px" height="720px">
<g id="cat">
<g id="cat">
<path id="S2" fill="none" stroke="#ffffff" stroke-width="2" stroke-linejoin="round" d="M 57.514 281.281 C 69.956 280.645 82.398 280.009 94.840 279.373 M 49.603 265.015 C 65.378 267.622 81.152 270.228 96.926 272.835 M 59.707 249.899 C 71.929 255.568 84.151 261.238 96.372 266.908 "/>
<radialGradient id="53C9F2F8-81D1-41DC-AC3A-464782889599_1" cx="52.55%" cy="51.29%" r="55.35%">
<stop offset="50.00%" style="stop-color:rgb(255,255,255);stop-opacity:1.00" />
<stop offset="100.00%" style="stop-color:rgb(0,0,0);stop-opacity:1.00" />
</radialGradient>
<path id="S1" fill="url(#53C9F2F8-81D1-41DC-AC3A-464782889599_1)" fill-rule="evenodd" stroke="none" d="M 141.111 232.278 C 153.975 228.757 164.683 239.784 164.685 239.785 C 164.683 239.786 161.083 254.729 148.219 258.249 C 135.355 261.770 124.648 250.743 124.645 250.743 C 124.647 250.741 128.247 235.798 141.111 232.278 M 600.209 353.541 C 599.454 333.687 657.944 265.738 636.773 175.460 C 630.505 148.736 588.440 82.131 566.835 96.765 C 545.826 110.994 599.663 126.556 609.227 189.946 C 619.464 257.788 580.996 296.955 567.548 308.071 C 538.748 331.876 390.174 299.429 299.662 322.211 C 282.103 326.630 254.985 309.422 245.517 284.842 C 221.217 221.753 203.481 221.068 200.635 213.966 C 194.048 197.530 181.336 183.202 176.330 175.346 C 175.589 174.183 167.503 191.886 168.130 203.438 C 162.516 192.799 156.758 187.001 151.549 182.800 C 148.737 180.532 149.007 200.643 150.483 214.362 C 110.157 225.494 109.903 248.516 84.111 267.084 C 76.329 272.686 85.256 289.193 97.215 295.308 C 110.810 302.261 128.933 290.110 139.808 300.605 C 178.345 337.792 154.975 365.601 170.015 413.911 C 181.146 449.667 200.837 464.940 206.292 489.184 C 212.679 517.568 196.952 569.953 168.295 598.685 C 160.132 606.869 136.522 598.134 138.656 619.497 C 139.143 624.374 170.981 624.935 180.040 619.796 C 241.350 585.021 249.135 496.760 254.708 496.747 C 260.165 496.734 312.981 536.153 315.933 602.273 C 316.226 608.824 300.523 606.623 297.009 612.464 C 291.594 621.466 292.263 629.455 336.887 626.319 C 346.724 625.628 341.811 603.693 341.252 587.052 C 339.157 524.659 298.549 480.976 303.969 479.990 C 350.370 471.556 435.765 466.158 436.159 471.467 C 439.768 520.111 466.501 540.415 462.897 553.634 C 460.158 563.680 424.056 593.291 415.226 598.794 C 409.490 602.368 383.324 593.993 378.591 617.512 C 377.511 622.878 426.537 620.662 438.489 616.362 C 447.181 613.234 500.416 565.180 506.008 555.267 C 510.956 546.496 489.505 505.373 522.007 476.311 C 531.312 467.991 558.622 540.313 615.112 558.932 C 622.365 561.322 604.592 599.564 600.216 605.332 C 597.217 609.286 565.147 613.640 572.814 624.435 C 577.815 631.475 617.215 628.997 620.532 627.028 C 627.318 623.000 665.207 543.915 653.388 534.949 C 580.755 479.850 629.108 417.047 600.209 353.541 Z"/>
</g>
<g id="cat_2">
<linearGradient id="0CB28D9E-B311-4285-9092-A7A611CFE2C7_0" x1="47.75%" y1="110.71%" x2="48.61%" y2="47.60%">
<stop offset="0.00%" style="stop-color:rgb(255,255,255);stop-opacity:1.00" />
<stop offset="100.00%" style="stop-color:rgb(0,0,0);stop-opacity:1.00" />
</linearGradient>
<path id="S1" fill="url(#0CB28D9E-B311-4285-9092-A7A611CFE2C7_0)" fill-rule="evenodd" stroke="none" d="M 221.279 236.409 C 221.277 236.407 201.906 216.440 200.635 213.966 C 191.238 234.182 172.445 274.606 172.443 274.613 C 172.447 274.609 205.000 249.144 221.279 236.409 M 253.484 448.107 C 253.489 448.094 290.715 362.829 309.331 320.190 C 296.532 323.980 286.664 323.720 273.213 316.479 C 266.637 360.355 253.486 448.093 253.484 448.107 M 436.681 438.166 C 436.682 438.153 447.715 356.308 453.232 315.379 C 453.228 315.379 411.185 313.876 411.181 313.875 C 419.681 355.306 436.678 438.153 436.681 438.166 M 581.740 293.163 C 590.681 305.809 599.623 318.455 608.565 331.100 C 608.565 331.102 605.375 338.136 601.682 344.373 C 588.679 333.411 575.676 322.450 562.673 311.488 C 574.173 304.684 581.738 293.165 581.740 293.163 M 601.153 261.578 C 601.152 261.580 595.241 272.853 591.640 278.481 C 601.791 286.782 611.942 295.082 622.092 303.382 C 622.093 303.379 631.054 278.482 631.055 278.479 C 621.087 272.846 611.120 267.212 601.153 261.578 M 611.258 222.769 C 611.258 222.770 608.619 240.369 608.619 240.371 C 618.722 243.539 628.826 246.707 638.929 249.876 C 638.929 249.873 641.833 226.451 641.833 226.449 C 631.641 225.222 621.450 223.995 611.258 222.769 M 609.665 189.953 C 609.666 189.957 610.641 205.725 610.641 205.726 C 621.112 204.948 631.584 204.170 642.055 203.391 C 642.055 203.389 640.908 193.982 639.246 184.260 C 629.386 186.158 619.526 188.056 609.665 189.953 M 599.015 156.024 C 599.016 156.026 606.250 170.689 606.251 170.691 C 614.467 166.682 622.684 162.673 630.901 158.664 C 630.900 158.663 622.374 143.033 622.373 143.032 C 614.587 147.363 606.801 151.693 599.015 156.024 M 579.678 127.494 C 579.679 127.495 588.832 139.111 588.833 139.112 C 595.939 134.141 603.044 129.170 610.150 124.199 C 610.149 124.197 599.206 111.777 599.205 111.775 C 592.696 117.015 586.187 122.254 579.678 127.494 M 566.835 96.765 C 558.414 103.287 568.000 113.239 568.001 113.241 C 573.439 108.477 578.878 103.713 584.316 98.949 C 584.314 98.949 575.685 89.910 566.835 96.765 M 517.432 317.695 C 529.950 356.352 554.980 433.654 554.984 433.666 C 554.984 433.654 555.065 354.044 555.106 314.234 C 555.102 314.234 517.436 317.695 517.432 317.695 M 502.756 317.145 C 502.752 317.145 465.044 315.578 465.040 315.578 C 475.441 356.204 496.238 437.445 496.241 437.457 C 496.242 437.445 500.584 357.249 502.756 317.145 M 362.588 314.514 C 369.319 356.586 382.779 440.716 382.781 440.729 C 382.783 440.716 395.118 355.707 401.286 313.197 C 401.282 313.197 362.592 314.514 362.588 314.514 M 353.519 314.361 C 353.515 314.362 314.004 319.719 314.000 319.719 C 318.320 364.111 326.958 452.879 326.960 452.893 C 326.962 452.879 344.666 360.538 353.519 314.361 M 248.943 293.606 C 229.882 328.109 191.765 397.103 191.759 397.113 C 191.767 397.105 243.173 342.096 268.880 314.587 C 268.878 314.585 248.945 293.608 248.943 293.606 M 242.552 279.098 C 236.197 263.493 231.199 251.951 231.198 251.949 C 213.818 275.305 179.064 322.010 179.058 322.017 C 179.065 322.013 221.388 293.404 242.552 279.098 Z"/>
<linearGradient id="0CB28D9E-B311-4285-9092-A7A611CFE2C7_1" x1="46.32%" y1="-65.70%" x2="44.50%" y2="134.18%">
<stop offset="0.00%" style="stop-color:rgb(255,255,255);stop-opacity:1.00" />
<stop offset="100.00%" style="stop-color:rgb(0,0,0);stop-opacity:1.00" />
</linearGradient>
<path id="S2" fill="url(#0CB28D9E-B311-4285-9092-A7A611CFE2C7_1)" fill-rule="evenodd" stroke="none" d="M 280.355 518.867 C 284.829 523.170 291.568 532.497 291.570 532.499 C 297.501 524.251 309.362 507.758 309.364 507.755 C 309.361 507.756 290.024 515.163 280.355 518.867 M 295.805 537.958 C 295.806 537.959 304.102 552.341 304.103 552.343 C 310.250 545.001 322.542 530.319 322.544 530.316 C 322.541 530.317 304.718 535.411 295.805 537.958 M 306.593 557.925 C 306.594 557.926 311.428 570.690 311.428 570.691 C 318.196 565.752 331.729 555.874 331.731 555.873 C 331.728 555.873 314.972 557.241 306.593 557.925 M 313.416 577.873 C 313.416 577.874 315.459 589.414 315.459 589.415 C 322.504 585.706 336.592 578.290 336.594 578.289 C 336.592 578.289 321.142 578.012 313.416 577.873 M 336.174 602.364 C 336.172 602.363 322.612 597.526 315.831 595.107 C 316.378 600.965 314.996 605.760 314.996 605.760 C 322.056 604.628 336.173 602.366 336.174 602.364 M 206.213 517.491 C 206.213 517.493 202.050 537.109 202.050 537.111 C 213.885 535.665 237.552 532.774 237.556 532.774 C 237.553 532.772 216.661 522.585 206.213 517.491 M 200.974 543.901 C 200.973 543.903 194.690 559.637 194.689 559.639 C 205.308 560.253 226.543 561.480 226.546 561.480 C 226.544 561.479 209.498 549.761 200.974 543.901 M 192.533 565.174 C 192.532 565.175 184.577 577.902 184.576 577.904 C 194.512 578.926 214.381 580.971 214.384 580.972 C 214.381 580.970 199.816 570.440 192.533 565.174 M 176.573 614.903 C 176.573 614.901 171.328 601.921 169.286 597.728 C 169.286 597.728 163.006 602.609 157.257 603.117 C 163.860 606.764 176.572 614.904 176.573 614.903 M 182.716 581.342 C 182.715 581.343 173.152 593.623 173.151 593.625 C 173.153 593.625 196.299 599.922 196.302 599.922 C 196.300 599.920 182.717 581.344 182.716 581.342 M 450.435 569.977 C 450.434 569.978 438.214 580.845 438.213 580.846 C 438.216 580.846 468.347 580.588 468.350 580.588 C 468.042 580.567 450.437 569.978 450.435 569.977 M 205.893 486.989 C 205.893 486.992 207.587 510.680 207.587 510.683 C 219.227 507.129 242.503 500.022 242.506 500.021 C 242.503 500.019 218.097 491.333 205.893 486.989 M 601.982 604.488 C 601.981 604.488 588.464 609.724 588.463 609.725 C 599.179 610.532 620.609 612.145 620.613 612.145 C 620.611 612.144 608.192 607.040 601.982 604.488 M 611.951 580.854 C 611.950 580.855 605.304 596.235 605.303 596.237 C 614.614 594.607 633.233 591.348 633.236 591.348 C 633.234 591.347 619.046 584.352 611.951 580.854 M 615.112 558.932 C 615.118 558.936 614.508 574.855 614.508 574.857 C 624.751 568.601 645.233 556.093 645.236 556.091 C 645.233 556.091 625.153 557.985 615.112 558.932 M 583.337 541.737 C 583.339 541.739 605.295 555.012 605.297 555.013 C 611.393 542.402 623.582 517.185 623.584 517.181 C 623.580 517.183 596.752 533.552 583.337 541.737 M 554.718 512.001 C 554.720 512.003 572.428 532.306 572.430 532.308 C 583.524 517.383 605.708 487.536 605.711 487.532 C 605.706 487.534 571.716 503.845 554.718 512.001 M 526.559 476.379 C 526.561 476.381 544.571 499.395 544.573 499.397 C 558.844 485.849 587.382 458.756 587.386 458.751 C 587.380 458.753 546.835 470.503 526.559 476.379 M 434.239 584.326 C 434.238 584.327 420.737 594.709 420.736 594.710 C 429.630 596.741 447.415 600.802 447.418 600.802 C 447.416 600.801 438.632 589.818 434.239 584.326 M 463.780 553.212 C 463.779 553.213 454.165 566.370 454.164 566.371 C 466.474 563.215 491.091 556.904 491.095 556.903 C 491.092 556.903 472.885 554.442 463.780 553.212 M 454.717 528.057 C 454.718 528.058 462.494 545.020 462.495 545.021 C 471.625 538.612 489.883 525.796 489.886 525.794 C 489.882 525.794 466.440 527.302 454.717 528.057 M 442.965 507.254 C 442.966 507.256 450.738 521.970 450.739 521.971 C 461.153 515.318 481.979 502.013 481.982 502.011 C 481.978 502.012 455.970 505.507 442.965 507.254 M 254.708 496.747 C 259.845 500.413 271.507 510.488 271.508 510.490 C 278.861 501.897 293.563 484.713 293.566 484.711 C 293.562 484.712 267.661 492.735 254.708 496.747 M 436.159 471.467 C 436.156 471.471 439.212 495.115 439.213 495.118 C 453.315 489.531 481.515 478.360 481.519 478.359 C 481.514 478.358 451.279 473.764 436.159 471.467 Z"/>
</g>
<g id="cat_3">
<path id="S1" fill="none" stroke="#ffffff" stroke-width="2" stroke-linejoin="round" d="M 141.111 232.278 C 153.975 228.757 164.683 239.784 164.685 239.785 C 164.683 239.786 161.083 254.729 148.219 258.249 C 135.355 261.770 124.648 250.743 124.645 250.743 C 124.647 250.741 128.247 235.798 141.111 232.278 M 600.209 353.541 C 599.454 333.687 657.944 265.738 636.773 175.460 C 630.505 148.736 588.440 82.131 566.835 96.765 C 545.826 110.994 599.663 126.556 609.227 189.946 C 619.464 257.788 580.996 296.955 567.548 308.071 C 538.748 331.876 390.174 299.429 299.662 322.211 C 282.103 326.630 254.985 309.422 245.517 284.842 C 221.217 221.753 203.481 221.068 200.635 213.966 C 194.048 197.530 181.336 183.202 176.330 175.346 C 175.589 174.183 167.503 191.886 168.130 203.438 C 162.516 192.799 156.758 187.001 151.549 182.800 C 148.737 180.532 149.007 200.643 150.483 214.362 C 110.157 225.494 109.903 248.516 84.111 267.084 C 76.329 272.686 85.256 289.193 97.215 295.308 C 110.810 302.261 128.933 290.110 139.808 300.605 C 178.345 337.792 154.975 365.601 170.015 413.911 C 181.146 449.667 200.837 464.940 206.292 489.184 C 212.679 517.568 196.952 569.953 168.295 598.685 C 160.132 606.869 136.522 598.134 138.656 619.497 C 139.143 624.374 170.981 624.935 180.040 619.796 C 241.350 585.021 249.135 496.760 254.708 496.747 C 260.165 496.734 312.981 536.153 315.933 602.273 C 316.226 608.824 300.523 606.623 297.009 612.464 C 291.594 621.466 292.263 629.455 336.887 626.319 C 346.724 625.628 341.811 603.693 341.252 587.052 C 339.157 524.659 298.549 480.976 303.969 479.990 C 350.370 471.556 435.765 466.158 436.159 471.467 C 439.768 520.111 466.501 540.415 462.897 553.634 C 460.158 563.680 424.056 593.291 415.226 598.794 C 409.490 602.368 383.324 593.993 378.591 617.512 C 377.511 622.878 426.537 620.662 438.489 616.362 C 447.181 613.234 500.416 565.180 506.008 555.267 C 510.956 546.496 489.505 505.373 522.007 476.311 C 531.312 467.991 558.622 540.313 615.112 558.932 C 622.365 561.322 604.592 599.564 600.216 605.332 C 597.217 609.286 565.147 613.640 572.814 624.435 C 577.815 631.475 617.215 628.997 620.532 627.028 C 627.318 623.000 665.207 543.915 653.388 534.949 C 580.755 479.850 629.108 417.047 600.209 353.541 "/>
</g>
<g id="specs_2">
<path fill="#ff00ff" fill-rule="evenodd" stroke="none" d="M 239.206 466.977 C 239.238 466.977 558.086 466.977 558.118 466.977 C 558.118 466.963 558.118 322.662 558.118 322.648 C 558.086 322.648 239.238 322.648 239.206 322.648 C 239.206 322.662 239.206 466.963 239.206 466.977 Z"/>
<path fill="#ff0000" fill-rule="evenodd" stroke="none" d="M 379.196 659.509 C 379.197 659.512 391.627 694.318 391.629 694.321 C 391.627 694.320 379.197 682.754 379.196 682.753 C 379.194 682.754 366.764 694.320 366.763 694.321 C 366.764 694.318 379.194 659.512 379.196 659.509 Z"/>
<path fill="#0000ff" fill-rule="evenodd" stroke="none" d="M 160.547 154.640 C 160.548 154.642 167.768 174.860 167.769 174.862 C 167.768 174.861 160.548 168.143 160.547 168.143 C 160.546 168.143 153.326 174.861 153.325 174.862 C 153.326 174.860 160.546 154.642 160.547 154.640 Z"/>
<path fill="#ffff00" fill-rule="evenodd" stroke="none" d="M 131.758 482.911 C 131.760 482.911 151.891 475.451 151.893 475.451 C 151.893 475.451 145.260 482.751 145.259 482.752 C 145.260 482.753 152.063 489.893 152.064 489.894 C 152.062 489.893 131.760 482.912 131.758 482.911 Z"/>
<path fill="#00ff00" fill-rule="evenodd" stroke="none" d="M 397.243 295.318 C 397.243 295.320 389.919 315.501 389.919 315.503 C 389.919 315.503 397.175 308.821 397.175 308.820 C 397.176 308.821 404.362 315.575 404.363 315.576 C 404.362 315.574 397.244 295.320 397.243 295.318 Z"/>
<path fill="#be0027" fill-rule="evenodd" stroke="none" d="M 654.676 350.792 C 654.673 350.791 619.867 338.360 619.864 338.359 C 619.865 338.360 631.431 350.791 631.432 350.792 C 631.431 350.793 619.865 363.224 619.864 363.225 C 619.867 363.224 654.673 350.793 654.676 350.792 Z"/>
</g>
</g>
</svg>
