<?xml version="1.0" encoding="utf-8"?>
<!-- Generator: Moho 13.5 build 20210422 -->
<!DOCTYPE svg PUBLIC "-//W3C//DTD SVG 1.1//EN" "http://www.w3.org/Graphics/SVG/1.1/DTD/svg11.dtd">
<svg version="1.1" id="Frame_0" xmlns="http://www.w3.org/2000/svg" xmlns:xlink="http://www.w3.org/1999/xlink" width="720px" height="720px">
<g id="cathedral">
<g id="cathedral">
<radialGradient id="812EF8AF-E5B6-45E7-80F2-BB55437CEC0C_0" cx="50.00%" cy="97.17%" r="139.95%">
<stop offset="23.92%" style="stop-color:rgb(255,255,255);stop-opacity:1.00" />
<stop offset="100.00%" style="stop-color:rgb(0,0,0);stop-opacity:1.00" />
</radialGradient>
<path fill="url(#812EF8AF-E5B6-45E7-80F2-BB55437CEC0C_0)" fill-rule="evenodd" stroke="#000000" stroke-width="4" stroke-linejoin="round" d="M 115.896 665.384 C 115.896 665.357 115.896 394.800 115.896 394.774 C 115.894 394.774 102.349 394.774 102.348 394.774 C 102.348 394.772 102.348 381.244 102.348 381.243 C 102.349 381.243 115.894 381.243 115.896 381.243 C 115.896 381.241 115.896 367.713 115.896 367.712 C 115.897 367.712 129.442 367.712 129.444 367.712 C 129.444 367.713 129.444 381.241 129.444 381.243 C 129.445 381.243 142.990 381.243 142.991 381.243 C 142.991 381.244 142.991 394.772 142.991 394.774 C 142.990 394.774 129.445 394.774 129.444 394.774 C 129.444 394.776 129.444 421.832 129.444 421.835 C 129.446 421.840 156.536 475.951 156.539 475.956 C 156.546 475.951 224.269 421.840 224.276 421.835 C 224.276 421.809 224.276 164.781 224.276 164.755 C 224.279 164.758 251.369 191.813 251.372 191.816 C 251.382 191.809 346.196 124.170 346.205 124.163 C 346.205 124.159 346.205 83.575 346.205 83.571 C 346.202 83.571 319.113 83.571 319.110 83.571 C 319.110 83.569 319.110 56.513 319.110 56.510 C 319.113 56.510 346.202 56.510 346.205 56.510 C 346.205 56.508 346.205 29.452 346.205 29.450 C 346.206 29.450 359.752 29.450 359.753 29.450 C 359.754 29.450 373.299 29.450 373.300 29.450 C 373.300 29.452 373.300 56.508 373.300 56.510 C 373.303 56.510 400.393 56.510 400.396 56.510 C 400.396 56.513 400.396 83.569 400.396 83.571 C 400.393 83.571 373.303 83.571 373.300 83.571 C 373.300 83.575 373.300 124.159 373.300 124.163 C 373.310 124.170 468.124 191.809 468.133 191.816 C 468.136 191.813 495.227 164.758 495.229 164.755 C 495.229 164.781 495.229 421.809 495.229 421.835 C 495.236 421.840 562.960 475.951 562.966 475.956 C 562.969 475.951 590.059 421.840 590.062 421.835 C 590.062 421.832 590.062 394.776 590.062 394.774 C 590.060 394.774 576.516 394.774 576.514 394.774 C 576.514 394.772 576.514 381.244 576.514 381.243 C 576.516 381.243 590.060 381.243 590.062 381.243 C 590.062 381.241 590.062 367.713 590.062 367.712 C 590.063 367.712 603.608 367.712 603.609 367.712 C 603.609 367.713 603.609 381.241 603.609 381.243 C 603.611 381.243 617.156 381.243 617.158 381.243 C 617.158 381.244 617.158 394.772 617.158 394.774 C 617.156 394.774 603.611 394.774 603.609 394.774 C 603.609 394.800 603.609 665.357 603.609 665.384 C 603.604 665.384 115.901 665.384 115.896 665.384 Z"/>
</g>
<g id="windows">
<path fill="#000000" fill-rule="evenodd" stroke="none" d="M 170.086 597.731 C 170.086 598.199 170.086 665.384 170.086 665.384 C 188.149 665.384 206.213 665.384 224.276 665.384 C 224.276 665.370 224.276 530.091 224.276 530.078 C 224.271 530.085 170.086 557.138 170.086 597.731 M 305.562 557.139 C 305.562 557.329 306.231 666.770 306.231 666.770 C 342.135 666.308 378.039 665.846 413.943 665.384 C 413.943 665.373 413.906 566.160 413.943 557.139 C 414.219 489.882 359.758 479.688 359.753 479.681 C 359.747 479.688 305.562 489.483 305.562 557.139 M 495.229 665.384 C 513.293 665.384 531.356 665.384 549.419 665.384 C 549.419 665.377 549.419 597.731 549.419 597.731 C 549.419 557.137 495.235 530.085 495.229 530.078 C 495.229 530.091 495.229 665.384 495.229 665.384 M 359.753 380.241 C 411.835 378.227 439.944 337.134 440.035 300.060 C 440.128 262.068 411.202 219.879 359.753 219.879 C 308.304 219.879 279.471 262.042 279.471 300.060 C 279.471 338.077 308.291 380.087 359.753 380.241 Z"/>
</g>
<g id="specs_2">
<path fill="#ff00ff" fill-rule="evenodd" stroke="none" d="M 293.444 367.256 C 293.457 367.256 426.543 367.256 426.556 367.256 C 426.556 367.243 426.556 234.157 426.556 234.144 C 426.543 234.144 293.457 234.144 293.444 234.144 C 293.444 234.157 293.444 367.243 293.444 367.256 Z"/>
<path fill="#ff0000" fill-rule="evenodd" stroke="none" d="M 360.000 676.208 C 360.001 676.211 372.157 710.249 372.159 710.252 C 372.157 710.251 360.001 698.941 360.000 698.939 C 359.999 698.941 347.843 710.251 347.841 710.252 C 347.843 710.249 359.999 676.211 360.000 676.208 Z"/>
<path fill="#0000ff" fill-rule="evenodd" stroke="none" d="M 360.000 17.394 C 360.001 17.396 367.062 37.168 367.063 37.170 C 367.062 37.169 360.001 30.599 360.000 30.599 C 359.999 30.599 352.938 37.169 352.937 37.170 C 352.938 37.168 359.999 17.396 360.000 17.394 Z"/>
<path fill="#00ff00" fill-rule="evenodd" stroke="none" d="M 103.476 522.672 C 103.478 522.672 123.214 515.510 123.216 515.510 C 123.216 515.510 116.681 522.605 116.681 522.606 C 116.681 522.607 123.287 529.634 123.287 529.635 C 123.285 529.634 103.478 522.673 103.476 522.672 Z"/>
<path fill="#ffff00" fill-rule="evenodd" stroke="none" d="M 131.764 671.271 C 131.764 671.270 140.205 652.893 140.206 652.891 C 140.206 652.892 140.650 662.172 140.650 662.172 C 140.651 662.173 149.938 662.397 149.939 662.397 C 149.937 662.398 131.765 671.271 131.764 671.271 Z"/>
<path fill="#ffff00" fill-rule="evenodd" stroke="none" d="M 588.237 671.046 C 588.236 671.044 579.428 652.840 579.428 652.838 C 579.428 652.839 579.169 662.126 579.169 662.127 C 579.168 662.127 569.887 662.539 569.886 662.539 C 569.888 662.540 588.235 671.045 588.237 671.046 Z"/>
<path fill="#00ff00" fill-rule="evenodd" stroke="none" d="M 616.524 522.672 C 616.522 522.672 596.786 515.510 596.784 515.510 C 596.784 515.510 603.319 522.605 603.319 522.606 C 603.319 522.607 596.713 529.634 596.713 529.635 C 596.715 529.634 616.522 522.673 616.524 522.672 Z"/>
<path fill="#00ffff" fill-rule="evenodd" stroke="none" d="M 500.993 160.672 C 500.992 160.674 493.983 180.465 493.983 180.467 C 493.982 180.466 492.655 170.912 492.655 170.911 C 492.654 170.912 483.030 171.547 483.029 171.547 C 483.031 171.546 500.991 160.673 500.993 160.672 Z"/>
<path fill="#00ffff" fill-rule="evenodd" stroke="none" d="M 219.007 161.328 C 219.008 161.330 227.321 180.610 227.322 180.611 C 227.322 180.610 228.009 170.990 228.009 170.989 C 228.010 170.989 237.655 170.981 237.656 170.981 C 237.654 170.980 219.009 161.329 219.007 161.328 Z"/>
<path fill="#be0027" fill-rule="evenodd" stroke="none" d="M 360.000 685.313 C 360.001 685.309 372.157 651.271 372.159 651.268 C 372.157 651.269 360.001 662.580 360.000 662.581 C 359.999 662.580 347.843 651.269 347.841 651.268 C 347.843 651.271 359.999 685.309 360.000 685.313 Z"/>
<path fill="#ff00ff" fill-rule="evenodd" stroke="none" d="M 314.693 651.328 C 314.702 651.328 405.298 651.328 405.307 651.328 C 405.307 651.313 405.307 497.005 405.307 496.990 C 405.298 496.990 314.702 496.990 314.693 496.990 C 314.693 497.005 314.693 651.313 314.693 651.328 Z"/>
</g>
</g>
</svg>
