<?xml version="1.0" encoding="utf-8"?>
<!-- Generator: Moho 13.5 build 20210422 -->
<!DOCTYPE svg PUBLIC "-//W3C//DTD SVG 1.1//EN" "http://www.w3.org/Graphics/SVG/1.1/DTD/svg11.dtd">
<svg version="1.1" id="Frame_0" xmlns="http://www.w3.org/2000/svg" xmlns:xlink="http://www.w3.org/1999/xlink" width="720px" height="720px">
<g id="chair">
<g id="chair_2">
<path fill="#ffffff" fill-rule="evenodd" stroke="#000000" stroke-width="4" stroke-linecap="round" stroke-linejoin="round" d="M 418.083 424.812 C 418.083 424.824 418.083 534.829 418.083 534.840 C 418.080 534.841 388.463 542.456 388.460 542.457 C 388.457 542.456 362.225 532.302 362.223 532.301 C 362.223 532.292 362.223 440.903 362.223 440.893 C 362.219 440.894 326.137 450.819 326.133 450.820 C 326.133 450.842 326.133 673.391 326.133 673.413 C 326.131 673.414 297.360 685.261 297.357 685.262 C 297.354 685.260 264.352 663.259 264.349 663.257 C 264.349 663.235 265.195 448.302 265.195 448.281 C 265.188 448.277 189.030 409.352 189.023 409.348 C 189.023 409.367 189.023 606.531 189.023 606.551 C 189.020 606.552 161.095 616.246 161.092 616.247 C 161.089 616.245 130.627 599.781 130.623 599.780 C 130.623 599.753 130.623 333.202 130.623 333.175 C 130.647 333.170 361.888 282.168 361.911 282.163 C 361.914 282.137 390.454 24.278 390.457 24.253 C 390.460 24.251 423.462 14.097 423.465 14.096 C 423.482 14.101 588.490 67.412 588.506 67.417 C 588.503 67.446 556.348 357.690 556.344 357.720 C 556.344 357.746 556.344 621.759 556.344 621.785 C 556.341 621.786 526.724 629.401 526.721 629.402 C 526.719 629.401 497.948 611.630 497.945 611.629 C 497.945 611.607 497.945 400.884 497.945 400.884 C 497.945 400.884 418.091 424.810 418.083 424.812 Z"/>
<path fill="none" stroke="#000000" stroke-width="1" stroke-linecap="butt" stroke-linejoin="round" d="M 361.911 282.163 C 361.914 282.137 390.454 24.278 390.457 24.253 "/>
<path fill="#000000" fill-rule="evenodd" stroke="#000000" stroke-width="4" stroke-linecap="round" stroke-linejoin="round" d="M 525.886 356.062 C 525.870 356.055 361.927 282.170 361.911 282.163 C 361.914 282.137 390.454 24.278 390.457 24.253 C 446.281 43.452 557.912 81.846 557.928 81.851 C 557.925 81.879 525.889 356.035 525.886 356.062 Z"/>
<path fill="none" stroke="#000000" stroke-width="1" stroke-linecap="butt" stroke-linejoin="round" d="M 130.623 333.175 C 130.623 333.202 130.623 599.753 130.623 599.780 "/>
<path fill="none" stroke="#000000" stroke-width="1" stroke-linecap="butt" stroke-linejoin="round" d="M 130.623 599.780 C 130.627 599.781 161.089 616.245 161.092 616.247 "/>
<path fill="none" stroke="#000000" stroke-width="1" stroke-linecap="butt" stroke-linejoin="round" d="M 189.023 409.348 C 189.030 409.352 265.188 448.277 265.195 448.281 "/>
<path fill="none" stroke="#000000" stroke-width="1" stroke-linecap="butt" stroke-linejoin="round" d="M 265.195 448.281 C 265.195 448.302 264.349 663.235 264.349 663.257 "/>
<path fill="none" stroke="#000000" stroke-width="1" stroke-linecap="butt" stroke-linejoin="round" d="M 264.349 663.257 C 264.352 663.259 297.354 685.260 297.357 685.262 "/>
<path fill="#000000" fill-rule="evenodd" stroke="#000000" stroke-width="4" stroke-linecap="round" stroke-linejoin="round" d="M 297.357 413.580 C 297.340 413.572 130.640 333.183 130.623 333.175 C 130.623 333.202 130.623 599.753 130.623 599.780 C 130.627 599.781 161.089 616.245 161.092 616.247 C 161.092 542.202 161.092 394.135 161.092 394.113 C 161.095 394.115 179.712 404.270 189.023 409.348 C 189.030 409.352 265.188 448.277 265.195 448.281 C 265.195 448.302 264.349 663.235 264.349 663.257 C 264.352 663.259 297.354 685.260 297.357 685.262 C 297.357 594.701 297.357 413.607 297.357 413.580 Z"/>
<path fill="none" stroke="#000000" stroke-width="1" stroke-linecap="butt" stroke-linejoin="round" d="M 388.460 542.457 C 388.457 542.456 362.225 532.302 362.223 532.301 "/>
<path fill="none" stroke="#000000" stroke-width="1" stroke-linecap="butt" stroke-linejoin="round" d="M 362.223 532.301 C 362.223 532.292 362.223 440.903 362.223 440.893 "/>
<path fill="#000000" fill-rule="evenodd" stroke="#000000" stroke-width="4" stroke-linecap="round" stroke-linejoin="round" d="M 387.856 433.704 C 387.856 433.715 388.259 506.206 388.460 542.457 C 388.457 542.456 362.225 532.302 362.223 532.301 C 362.223 532.292 362.223 440.903 362.223 440.893 C 370.767 438.497 387.854 433.705 387.856 433.704 Z"/>
<path fill="none" stroke="#000000" stroke-width="1" stroke-linecap="butt" stroke-linejoin="round" d="M 497.945 400.884 C 497.945 400.884 497.945 611.607 497.945 611.629 "/>
<path fill="none" stroke="#000000" stroke-width="1" stroke-linecap="butt" stroke-linejoin="round" d="M 497.945 611.629 C 497.948 611.630 526.719 629.401 526.721 629.402 "/>
<path fill="#000000" fill-rule="evenodd" stroke="#000000" stroke-width="4" stroke-linecap="round" stroke-linejoin="round" d="M 527.123 391.850 C 517.397 394.861 497.948 400.883 497.945 400.884 C 497.945 400.884 497.945 611.607 497.945 611.629 C 497.948 611.630 526.719 629.401 526.721 629.402 C 526.722 629.378 527.123 391.873 527.123 391.850 Z"/>
<path fill="none" stroke="#000000" stroke-width="4" stroke-linecap="round" stroke-linejoin="round" d="M 387.856 433.704 C 397.932 430.740 408.007 427.776 418.083 424.812 M 297.357 413.580 C 373.533 394.407 449.710 375.235 525.886 356.062 "/>
</g>
<g id="specs">
<path fill="#ff00ff" fill-rule="evenodd" stroke="none" d="M 183.870 357.976 C 183.901 357.976 493.605 357.976 493.636 357.976 C 493.636 357.945 493.636 48.241 493.636 48.210 C 493.605 48.210 183.901 48.210 183.870 48.210 C 183.870 48.241 183.870 357.945 183.870 357.976 Z"/>
<path fill="#ff0000" fill-rule="evenodd" stroke="none" d="M 298.192 681.322 C 298.193 681.325 310.375 715.436 310.377 715.440 C 310.375 715.438 298.193 704.103 298.192 704.102 C 298.190 704.103 286.008 715.438 286.007 715.440 C 286.008 715.436 298.190 681.325 298.192 681.322 Z"/>
<path fill="#0000ff" fill-rule="evenodd" stroke="none" d="M 497.137 26.078 C 497.138 26.080 504.215 45.895 504.215 45.897 C 504.215 45.896 497.138 39.312 497.137 39.311 C 497.137 39.312 490.060 45.896 490.060 45.897 C 490.060 45.895 497.137 26.080 497.137 26.078 Z"/>
<path fill="#00ff00" fill-rule="evenodd" stroke="none" d="M 117.474 348.941 C 117.476 348.940 137.255 341.763 137.257 341.763 C 137.256 341.763 130.708 348.873 130.707 348.874 C 130.708 348.875 137.328 355.918 137.328 355.919 C 137.326 355.918 117.476 348.941 117.474 348.941 Z"/>
<path fill="#ffff00" fill-rule="evenodd" stroke="none" d="M 128.016 605.913 C 128.017 605.911 136.799 586.791 136.799 586.789 C 136.799 586.790 137.262 596.445 137.262 596.446 C 137.263 596.446 146.926 596.681 146.927 596.681 C 146.925 596.682 128.018 605.912 128.016 605.913 Z"/>
<path fill="#ffff00" fill-rule="evenodd" stroke="none" d="M 559.482 629.823 C 559.481 629.821 550.317 610.881 550.316 610.879 C 550.316 610.880 550.048 620.542 550.048 620.543 C 550.047 620.543 540.390 620.971 540.389 620.971 C 540.391 620.972 559.480 629.822 559.482 629.823 Z"/>
<path fill="#00ff00" fill-rule="evenodd" stroke="none" d="M 570.715 348.941 C 570.713 348.940 550.935 341.763 550.932 341.763 C 550.933 341.763 557.482 348.873 557.482 348.874 C 557.482 348.875 550.862 355.918 550.861 355.919 C 550.863 355.918 570.713 348.941 570.715 348.941 Z"/>
<path fill="#00ffff" fill-rule="evenodd" stroke="none" d="M 590.716 59.473 C 590.716 59.475 583.692 79.308 583.691 79.310 C 583.691 79.309 582.361 69.735 582.360 69.734 C 582.360 69.734 572.715 70.371 572.714 70.371 C 572.716 70.370 590.715 59.474 590.716 59.473 Z"/>
<path fill="#00ffff" fill-rule="evenodd" stroke="none" d="M 421.676 1.742 C 421.675 1.745 418.695 22.573 418.695 22.575 C 418.695 22.574 424.316 14.710 424.316 14.709 C 424.317 14.710 432.565 19.749 432.566 19.750 C 432.565 19.748 421.677 1.744 421.676 1.742 Z"/>
</g>
</g>
</svg>
