<?xml version="1.0" encoding="utf-8"?>
<!-- Generator: Moho 13.5 build 20210422 -->
<!DOCTYPE svg PUBLIC "-//W3C//DTD SVG 1.1//EN" "http://www.w3.org/Graphics/SVG/1.1/DTD/svg11.dtd">
<svg version="1.1" id="Frame_0" xmlns="http://www.w3.org/2000/svg" xmlns:xlink="http://www.w3.org/1999/xlink" width="720px" height="720px">
<g id="chariot">
<g id="charioteer_2">
<path id="S17_2_2" fill="#000000" fill-rule="evenodd" stroke="#ffffff" stroke-width="2" stroke-linecap="round" stroke-linejoin="round" d="M 221.846 25.338 C 221.873 25.338 498.127 25.338 498.154 25.338 C 498.148 25.342 435.179 57.836 435.172 57.839 C 435.157 57.839 284.843 57.839 284.828 57.839 C 284.821 57.836 221.852 25.342 221.846 25.338 Z"/>
<path id="S17_2" fill="#000000" fill-rule="evenodd" stroke="#ffffff" stroke-width="2" stroke-linecap="round" stroke-linejoin="round" d="M 284.828 57.295 C 284.843 57.295 435.157 57.295 435.172 57.295 C 435.172 57.329 435.172 406.269 435.172 406.304 C 435.157 406.304 284.843 406.304 284.828 406.304 C 284.828 406.269 284.828 57.329 284.828 57.295 Z"/>
<path id="S5" fill="#000000" fill-rule="evenodd" stroke="#ffffff" stroke-width="2" stroke-linecap="round" stroke-linejoin="round" d="M 279.991 359.182 C 279.993 359.171 304.226 324.228 304.114 255.814 C 289.656 240.901 281.007 195.446 281.004 195.440 C 270.275 291.568 231.122 351.052 231.117 351.068 C 231.122 351.069 279.986 359.181 279.991 359.182 M 439.382 356.048 C 439.380 356.038 415.867 322.170 415.886 255.814 C 430.324 240.882 438.993 195.446 438.996 195.440 C 449.992 292.123 490.131 351.679 490.136 351.695 C 490.131 351.695 439.387 356.048 439.382 356.048 Z"/>
<path id="S1" fill="#000000" fill-rule="evenodd" stroke="#ffffff" stroke-width="2" stroke-linecap="round" stroke-linejoin="round" d="M 319.783 97.221 C 347.590 71.220 372.410 71.220 400.217 97.221 C 409.100 105.527 392.893 112.852 406.083 122.237 C 414.475 128.209 398.406 138.276 411.948 144.731 C 421.273 149.176 406.828 159.888 417.814 167.428 C 433.911 178.476 429.335 186.983 423.680 210.040 C 409.321 268.584 306.236 269.498 296.320 210.040 C 292.367 186.340 285.222 177.741 302.186 169.003 C 312.897 163.485 299.894 153.006 308.052 147.254 C 321.281 137.925 304.767 128.566 313.917 122.237 C 328.612 112.074 310.900 105.527 319.783 97.221 Z"/>
<path id="S14" fill="#000000" fill-rule="evenodd" stroke="#ffffff" stroke-width="2" stroke-linecap="round" stroke-linejoin="round" d="M 373.271 200.044 C 373.875 200.042 413.798 199.859 434.061 199.766 C 434.061 199.773 431.982 267.156 431.982 267.162 C 431.979 267.171 426.972 322.984 407.682 355.750 C 376.636 355.583 312.328 355.750 312.318 355.750 C 291.741 325.055 287.472 266.884 287.469 266.875 C 287.469 266.868 286.082 200.419 286.082 200.412 C 286.088 200.412 346.195 200.137 346.410 200.136 C 346.505 200.136 373.004 200.045 373.271 200.044 Z"/>
<path fill="none" stroke="#ffffff" stroke-width="1" stroke-linecap="butt" stroke-linejoin="round" d="M 434.061 199.766 C 413.798 199.859 373.875 200.042 373.271 200.044 "/>
<path fill="none" stroke="#ffffff" stroke-width="1" stroke-linecap="butt" stroke-linejoin="round" d="M 373.271 200.044 C 373.004 200.045 346.505 200.136 346.410 200.136 "/>
<path fill="none" stroke="#ffffff" stroke-width="1" stroke-linecap="butt" stroke-linejoin="round" d="M 346.410 200.136 C 346.195 200.137 286.088 200.412 286.082 200.412 "/>
<path id="S15" fill="#ffffff" fill-rule="evenodd" stroke="#000000" stroke-width="2" stroke-linecap="round" stroke-linejoin="round" d="M 286.082 200.412 C 286.082 200.410 289.305 182.549 289.305 182.547 C 289.319 182.547 430.681 182.547 430.695 182.547 C 430.061 187.747 434.061 199.765 434.061 199.766 C 413.798 199.859 373.875 200.042 373.271 200.044 C 373.004 200.045 346.505 200.136 346.410 200.136 C 346.195 200.137 286.088 200.412 286.082 200.412 Z"/>
<path id="S2" fill="#ffffff" fill-rule="evenodd" stroke="#000000" stroke-width="2" stroke-linecap="round" stroke-linejoin="round" d="M 390.219 121.748 C 394.828 171.731 374.655 188.387 360.000 188.387 C 345.345 188.387 325.172 171.731 329.781 121.748 C 348.885 110.265 371.708 112.130 390.219 121.748 Z"/>
<path id="S3" fill="none" stroke="#000000" stroke-width="2" stroke-linecap="round" stroke-linejoin="round" d="M 354.011 173.962 C 358.004 173.962 361.996 173.962 365.989 173.962 M 388.972 136.554 C 388.969 136.554 369.174 131.030 363.683 136.266 C 363.681 136.268 363.683 166.512 363.683 166.515 C 363.682 166.515 356.319 166.515 356.318 166.515 C 356.318 166.512 356.320 136.268 356.318 136.266 C 350.893 130.961 331.031 135.945 331.028 135.945 "/>
<path id="S4" fill="#ffffff" fill-rule="evenodd" stroke="#000000" stroke-width="2" stroke-linecap="round" stroke-linejoin="round" d="M 364.912 145.083 C 364.913 145.082 371.360 139.075 376.453 139.075 C 381.545 139.075 387.992 145.082 387.993 145.083 C 387.992 145.083 381.545 151.090 376.453 151.090 C 371.361 151.090 364.913 145.083 364.912 145.083 M 332.007 145.083 C 332.008 145.082 338.455 139.075 343.547 139.075 C 348.639 139.075 355.086 145.082 355.087 145.083 C 355.086 145.083 348.639 151.090 343.547 151.090 C 338.455 151.090 332.008 145.083 332.007 145.083 Z"/>
<path id="S9" fill="#000000" fill-rule="evenodd" stroke="#ffffff" stroke-width="2" stroke-linecap="round" stroke-linejoin="round" d="M 404.165 184.815 C 406.874 182.106 409.982 180.047 413.309 178.330 C 423.102 177.578 433.372 181.033 441.052 188.713 C 448.172 195.834 451.662 205.183 451.514 214.760 C 450.385 218.736 448.110 222.439 444.950 225.600 C 433.663 236.887 415.452 236.887 404.165 225.600 C 392.878 214.313 392.878 196.102 404.165 184.815 Z"/>
<path fill="none" stroke="#ffffff" stroke-width="1" stroke-linecap="butt" stroke-linejoin="round" d="M 404.165 184.815 C 406.874 182.106 409.982 180.047 413.309 178.330 "/>
<path fill="none" stroke="#ffffff" stroke-width="1" stroke-linecap="butt" stroke-linejoin="round" d="M 451.514 214.760 C 450.385 218.736 448.110 222.439 444.950 225.600 "/>
<path fill="none" stroke="#ffffff" stroke-width="1" stroke-linecap="butt" stroke-linejoin="round" d="M 444.950 225.600 C 433.663 236.887 415.452 236.887 404.165 225.600 "/>
<path fill="none" stroke="#ffffff" stroke-width="1" stroke-linecap="butt" stroke-linejoin="round" d="M 404.165 225.600 C 392.878 214.313 392.878 196.102 404.165 184.815 "/>
<path id="S10" fill="#ffffff" fill-rule="evenodd" stroke="#000000" stroke-width="2" stroke-linecap="round" stroke-linejoin="round" d="M 404.165 184.815 C 406.874 182.106 409.982 180.047 413.309 178.330 C 404.899 178.974 396.882 182.430 390.599 188.713 C 376.636 202.675 376.636 225.203 390.599 239.166 C 404.561 253.128 427.089 253.128 441.051 239.166 C 447.893 232.324 451.382 223.426 451.514 214.760 C 450.385 218.736 448.110 222.439 444.950 225.600 C 433.663 236.887 415.452 236.887 404.165 225.600 C 392.878 214.313 392.878 196.102 404.165 184.815 Z"/>
<path id="S9_2" fill="#000000" fill-rule="evenodd" stroke="#ffffff" stroke-width="2" stroke-linecap="round" stroke-linejoin="round" d="M 315.835 184.815 C 313.126 182.106 310.018 180.047 306.691 178.330 C 296.898 177.578 286.628 181.033 278.949 188.713 C 271.828 195.834 268.339 205.183 268.486 214.760 C 269.615 218.736 271.890 222.439 275.050 225.600 C 286.337 236.887 304.548 236.887 315.835 225.600 C 327.122 214.313 327.122 196.102 315.835 184.815 Z"/>
<path fill="none" stroke="#ffffff" stroke-width="1" stroke-linecap="butt" stroke-linejoin="round" d="M 315.835 184.815 C 313.126 182.106 310.018 180.047 306.691 178.330 "/>
<path fill="none" stroke="#ffffff" stroke-width="1" stroke-linecap="butt" stroke-linejoin="round" d="M 268.486 214.760 C 269.615 218.736 271.890 222.439 275.050 225.600 "/>
<path fill="none" stroke="#ffffff" stroke-width="1" stroke-linecap="butt" stroke-linejoin="round" d="M 275.050 225.600 C 286.337 236.887 304.548 236.887 315.835 225.600 "/>
<path fill="none" stroke="#ffffff" stroke-width="1" stroke-linecap="butt" stroke-linejoin="round" d="M 315.835 225.600 C 327.122 214.313 327.122 196.102 315.835 184.815 "/>
<path id="S10_2" fill="#ffffff" fill-rule="evenodd" stroke="#000000" stroke-width="2" stroke-linecap="round" stroke-linejoin="round" d="M 315.835 184.815 C 313.126 182.106 310.018 180.047 306.691 178.330 C 315.101 178.974 323.118 182.430 329.401 188.713 C 343.364 202.675 343.364 225.203 329.401 239.166 C 315.439 253.128 292.911 253.128 278.949 239.166 C 272.107 232.324 268.618 223.426 268.486 214.760 C 269.615 218.736 271.890 222.439 275.050 225.600 C 286.337 236.887 304.548 236.887 315.835 225.600 C 327.122 214.313 327.122 196.102 315.835 184.815 Z"/>
<path id="S13" fill="#ffffff" fill-rule="evenodd" stroke="#000000" stroke-width="2" stroke-linecap="round" stroke-linejoin="round" d="M 330.504 116.153 C 330.504 116.152 328.338 106.089 328.337 106.088 C 328.338 106.088 338.633 106.227 338.634 106.227 C 338.633 106.227 329.392 101.618 329.391 101.617 C 329.392 101.616 335.926 93.663 335.926 93.663 C 335.926 93.663 326.596 98.000 326.595 98.000 C 326.595 97.999 324.434 87.900 324.434 87.899 C 324.434 87.900 322.009 97.934 322.009 97.935 C 322.008 97.935 312.765 93.324 312.764 93.323 C 312.764 93.324 319.099 101.476 319.099 101.477 C 319.098 101.477 309.740 105.835 309.739 105.836 C 309.740 105.836 320.067 105.976 320.068 105.976 C 320.068 105.977 317.626 115.987 317.626 115.988 C 317.626 115.987 324.173 108.007 324.173 108.006 C 324.174 108.007 330.503 116.153 330.504 116.153 M 390.526 116.153 C 390.526 116.152 392.692 106.089 392.693 106.088 C 392.692 106.088 382.397 106.227 382.396 106.227 C 382.397 106.227 391.638 101.618 391.639 101.617 C 391.638 101.616 385.104 93.663 385.104 93.663 C 385.104 93.663 394.434 98.000 394.435 98.000 C 394.435 97.999 396.596 87.900 396.596 87.899 C 396.596 87.900 399.021 97.934 399.021 97.935 C 399.022 97.935 408.265 93.324 408.266 93.323 C 408.266 93.324 401.931 101.476 401.931 101.477 C 401.932 101.477 411.290 105.835 411.291 105.836 C 411.290 105.836 400.963 105.976 400.962 105.976 C 400.962 105.977 403.404 115.987 403.404 115.988 C 403.403 115.987 396.857 108.007 396.857 108.006 C 396.856 108.007 390.526 116.153 390.526 116.153 M 349.686 118.707 C 349.686 118.706 353.564 100.694 353.564 100.692 C 353.562 100.692 335.137 100.941 335.135 100.941 C 335.137 100.941 351.676 92.691 351.678 92.690 C 351.677 92.688 339.982 78.455 339.981 78.453 C 339.983 78.454 356.681 86.216 356.683 86.217 C 356.683 86.215 360.550 68.138 360.550 68.136 C 360.551 68.138 364.890 86.098 364.891 86.100 C 364.892 86.099 381.436 77.847 381.438 77.846 C 381.436 77.848 370.099 92.437 370.098 92.439 C 370.100 92.440 386.849 100.240 386.851 100.240 C 386.849 100.240 368.365 100.491 368.364 100.491 C 368.364 100.493 372.735 118.409 372.735 118.411 C 372.734 118.409 361.018 104.127 361.017 104.126 C 361.016 104.127 349.687 118.706 349.686 118.707 Z"/>
<path id="S18" fill="#ffffff" fill-rule="evenodd" stroke="#000000" stroke-width="2" stroke-linecap="round" stroke-linejoin="round" d="M 231.983 432.105 C 231.983 432.066 231.983 34.039 231.983 33.999 C 232.008 33.999 487.992 33.999 488.017 33.999 C 488.017 34.039 488.017 432.066 488.017 432.105 C 487.992 432.105 232.008 432.105 231.983 432.105 M 219.979 440.719 C 219.979 440.677 219.979 22.921 219.979 22.879 C 220.007 22.879 499.993 22.879 500.021 22.879 C 500.021 22.921 500.021 440.677 500.021 440.719 C 499.993 440.719 220.007 440.719 219.979 440.719 Z"/>
<path id="S1_2" fill="#000000" fill-rule="evenodd" stroke="#ffffff" stroke-width="2" stroke-linecap="round" stroke-linejoin="round" d="M 471.750 104.534 C 471.753 104.534 501.441 104.534 501.444 104.534 C 501.444 104.555 501.444 317.944 501.444 317.966 C 501.440 317.966 462.516 317.966 462.513 317.966 C 462.513 317.944 471.750 104.555 471.750 104.534 Z"/>
<path id="S2_2" fill="#000000" fill-rule="evenodd" stroke="#ffffff" stroke-width="2" stroke-linecap="round" stroke-linejoin="round" d="M 355.400 21.896 C 371.781 21.976 502.819 21.896 502.834 21.896 C 502.834 21.906 502.530 101.899 502.834 121.896 C 420.006 123.154 355.239 54.835 355.400 21.896 Z"/>
<path id="S1_2_2" fill="#000000" fill-rule="evenodd" stroke="#ffffff" stroke-width="2" stroke-linecap="round" stroke-linejoin="round" d="M 248.250 104.534 C 248.247 104.534 218.559 104.534 218.556 104.534 C 218.556 104.555 218.556 317.944 218.556 317.966 C 218.560 317.966 257.484 317.966 257.487 317.966 C 257.487 317.944 248.250 104.555 248.250 104.534 Z"/>
<path id="S2_2_2" fill="#000000" fill-rule="evenodd" stroke="#ffffff" stroke-width="2" stroke-linecap="round" stroke-linejoin="round" d="M 364.600 21.896 C 348.219 21.976 217.181 21.896 217.166 21.896 C 217.166 21.906 217.470 101.899 217.166 121.896 C 299.994 123.154 364.761 54.835 364.600 21.896 Z"/>
<path fill="none" stroke="#ffffff" stroke-width="1" stroke-linecap="butt" stroke-linejoin="round" d="M 373.271 200.044 C 373.004 200.045 346.505 200.136 346.410 200.136 "/>
<path fill="none" stroke="#ffffff" stroke-width="1" stroke-linecap="butt" stroke-linejoin="round" d="M 287.469 266.875 C 287.472 266.884 291.741 325.055 312.318 355.750 "/>
<path fill="none" stroke="#ffffff" stroke-width="1" stroke-linecap="butt" stroke-linejoin="round" d="M 312.318 355.750 C 312.328 355.750 376.636 355.583 407.682 355.750 "/>
<path fill="none" stroke="#ffffff" stroke-width="1" stroke-linecap="butt" stroke-linejoin="round" d="M 407.682 355.750 C 426.972 322.984 431.979 267.171 431.982 267.162 "/>
<path id="S26" fill="#ffffff" fill-rule="evenodd" stroke="#000000" stroke-width="2" stroke-linecap="round" stroke-linejoin="round" d="M 431.982 267.162 C 379.599 270.279 365.275 223.977 373.271 200.044 C 373.004 200.045 346.505 200.136 346.410 200.136 C 355.202 225.027 339.623 270.285 287.469 266.875 C 287.472 266.884 291.741 325.055 312.318 355.750 C 312.328 355.750 376.636 355.583 407.682 355.750 C 426.972 322.984 431.979 267.171 431.982 267.162 Z"/>
<path id="S17" fill="#ffffff" fill-rule="evenodd" stroke="#000000" stroke-width="2" stroke-linecap="round" stroke-linejoin="round" d="M 219.311 360.394 C 219.339 360.394 500.661 360.394 500.689 360.394 C 500.689 360.418 500.689 591.347 500.689 591.370 C 500.661 591.370 219.339 591.370 219.311 591.370 C 219.311 591.347 219.311 360.418 219.311 360.394 Z"/>
<path fill="#ffffff" fill-rule="evenodd" stroke="none" d="M 236.168 48.816 C 236.167 48.816 226.216 50.159 226.215 50.159 C 226.215 50.159 234.622 44.612 234.622 44.611 C 234.622 44.610 227.362 37.677 227.362 37.676 C 227.363 37.677 236.904 40.781 236.905 40.781 C 236.905 40.780 237.812 30.748 237.812 30.747 C 237.812 30.748 241.338 40.179 241.338 40.179 C 241.339 40.179 249.747 34.630 249.748 34.630 C 249.748 34.631 244.571 43.266 244.571 43.267 C 244.572 43.268 254.144 46.389 254.145 46.389 C 254.144 46.389 244.161 47.737 244.160 47.737 C 244.161 47.738 247.700 57.143 247.701 57.144 C 247.700 57.143 240.425 50.186 240.424 50.185 C 240.424 50.186 235.252 58.815 235.251 58.816 C 235.251 58.815 236.167 48.817 236.168 48.816 Z"/>
<path fill="#ffffff" fill-rule="evenodd" stroke="none" d="M 260.480 74.865 C 260.479 74.865 248.180 72.779 248.179 72.779 C 248.180 72.779 260.201 69.307 260.202 69.306 C 260.202 69.305 254.154 58.399 254.153 58.398 C 254.154 58.398 264.324 65.607 264.325 65.608 C 264.326 65.607 269.110 54.042 269.110 54.041 C 269.110 54.042 269.805 66.531 269.805 66.533 C 269.806 66.532 281.830 63.059 281.831 63.059 C 281.830 63.059 272.499 71.389 272.498 71.390 C 272.499 71.390 282.699 78.631 282.700 78.631 C 282.699 78.631 270.360 76.540 270.359 76.539 C 270.359 76.541 271.081 89.004 271.081 89.006 C 271.080 89.004 265.024 78.063 265.023 78.062 C 265.022 78.063 255.698 86.386 255.697 86.387 C 255.697 86.386 260.480 74.866 260.480 74.865 Z"/>
<path fill="#ffffff" fill-rule="evenodd" stroke="none" d="M 271.501 39.428 C 271.500 39.428 265.589 39.426 265.589 39.426 C 265.589 39.426 270.931 36.853 270.932 36.853 C 270.931 36.853 267.243 32.235 267.243 32.234 C 267.243 32.234 272.565 34.799 272.566 34.799 C 272.566 34.798 273.887 29.017 273.887 29.017 C 273.887 29.017 275.199 34.797 275.199 34.798 C 275.200 34.798 280.543 32.224 280.544 32.224 C 280.543 32.225 276.842 36.854 276.841 36.854 C 276.842 36.855 282.180 39.431 282.181 39.432 C 282.180 39.432 276.250 39.430 276.249 39.430 C 276.249 39.430 277.572 45.197 277.572 45.197 C 277.572 45.197 273.876 40.563 273.876 40.563 C 273.876 40.563 270.177 45.189 270.177 45.190 C 270.177 45.189 271.501 39.429 271.501 39.428 Z"/>
<path fill="#ffffff" fill-rule="evenodd" stroke="none" d="M 290.840 55.990 C 290.840 55.990 285.406 55.608 285.406 55.608 C 285.406 55.608 290.482 53.586 290.482 53.586 C 290.482 53.586 287.389 49.104 287.388 49.104 C 287.389 49.104 292.116 51.803 292.116 51.803 C 292.116 51.803 293.702 46.573 293.702 46.573 C 293.702 46.573 294.537 51.970 294.537 51.971 C 294.537 51.971 299.614 49.949 299.615 49.948 C 299.614 49.949 295.915 53.966 295.914 53.967 C 295.915 53.967 300.656 56.678 300.657 56.679 C 300.656 56.679 295.205 56.296 295.205 56.296 C 295.205 56.296 296.050 61.682 296.050 61.682 C 296.050 61.682 292.951 57.186 292.951 57.185 C 292.950 57.186 289.254 61.200 289.253 61.201 C 289.253 61.200 290.840 55.990 290.840 55.990 Z"/>
<path fill="#ffffff" fill-rule="evenodd" stroke="none" d="M 283.818 94.798 C 283.817 94.798 277.906 94.796 277.905 94.796 C 277.906 94.796 283.248 92.223 283.248 92.223 C 283.248 92.222 279.560 87.604 279.560 87.604 C 279.560 87.604 284.882 90.168 284.882 90.168 C 284.883 90.168 286.203 84.387 286.204 84.386 C 286.204 84.387 287.516 90.167 287.516 90.168 C 287.516 90.167 292.860 87.594 292.860 87.594 C 292.860 87.594 289.158 92.223 289.158 92.224 C 289.159 92.224 294.497 94.801 294.497 94.801 C 294.497 94.801 288.567 94.799 288.566 94.799 C 288.566 94.800 289.888 100.566 289.889 100.567 C 289.888 100.566 286.194 95.933 286.193 95.933 C 286.193 95.933 282.494 100.559 282.493 100.559 C 282.494 100.559 283.817 94.799 283.818 94.798 Z"/>
<path fill="#ffffff" fill-rule="evenodd" stroke="none" d="M 227.256 76.057 C 227.255 76.057 222.118 76.055 222.117 76.055 C 222.118 76.055 226.761 73.819 226.761 73.819 C 226.761 73.818 223.555 69.805 223.555 69.804 C 223.555 69.804 228.181 72.033 228.181 72.033 C 228.181 72.033 229.330 67.008 229.330 67.007 C 229.330 67.008 230.470 72.032 230.470 72.032 C 230.471 72.032 235.115 69.795 235.116 69.795 C 235.115 69.796 231.898 73.820 231.898 73.820 C 231.898 73.820 236.538 76.060 236.538 76.060 C 236.538 76.060 231.383 76.058 231.383 76.058 C 231.383 76.059 232.532 81.071 232.532 81.071 C 232.532 81.071 229.321 77.044 229.320 77.043 C 229.320 77.044 226.105 81.064 226.105 81.065 C 226.105 81.064 227.256 76.057 227.256 76.057 Z"/>
<path fill="#ffffff" fill-rule="evenodd" stroke="none" d="M 239.986 101.758 C 239.985 101.758 232.990 102.594 232.989 102.594 C 232.990 102.594 238.947 98.792 238.947 98.792 C 238.947 98.791 233.928 93.850 233.927 93.849 C 233.928 93.850 240.589 96.129 240.589 96.130 C 240.590 96.129 241.333 89.100 241.333 89.100 C 241.333 89.100 243.705 95.754 243.706 95.755 C 243.706 95.754 249.664 91.952 249.665 91.951 C 249.665 91.952 245.941 97.955 245.940 97.955 C 245.941 97.956 252.623 100.248 252.624 100.248 C 252.623 100.248 245.605 101.087 245.605 101.087 C 245.605 101.087 247.987 107.723 247.987 107.724 C 247.987 107.724 242.958 102.765 242.958 102.764 C 242.957 102.765 239.236 108.763 239.236 108.764 C 239.236 108.763 239.986 101.759 239.986 101.758 Z"/>
<path fill="#ffffff" fill-rule="evenodd" stroke="none" d="M 305.280 78.172 C 305.279 78.172 299.368 78.170 299.367 78.170 C 299.368 78.170 304.710 75.598 304.711 75.597 C 304.710 75.597 301.022 70.979 301.022 70.979 C 301.022 70.979 306.344 73.543 306.345 73.543 C 306.345 73.543 307.666 67.761 307.666 67.760 C 307.666 67.761 308.978 73.542 308.978 73.542 C 308.978 73.542 314.322 70.968 314.322 70.968 C 314.322 70.969 310.621 75.598 310.620 75.599 C 310.621 75.599 315.959 78.175 315.959 78.176 C 315.959 78.176 310.029 78.174 310.028 78.174 C 310.028 78.174 311.351 83.941 311.351 83.941 C 311.350 83.941 307.656 79.308 307.655 79.307 C 307.655 79.308 303.956 83.933 303.956 83.934 C 303.956 83.933 305.280 78.173 305.280 78.172 Z"/>
<path fill="#ffffff" fill-rule="evenodd" stroke="none" d="M 313.552 43.677 C 313.551 43.677 303.600 45.020 303.599 45.020 C 303.600 45.020 312.006 39.473 312.007 39.472 C 312.006 39.471 304.747 32.538 304.746 32.537 C 304.747 32.538 314.289 35.642 314.290 35.642 C 314.290 35.641 315.196 25.609 315.197 25.608 C 315.197 25.609 318.722 35.040 318.722 35.040 C 318.723 35.040 327.132 29.491 327.133 29.491 C 327.132 29.492 321.956 38.127 321.955 38.128 C 321.956 38.128 331.528 41.250 331.529 41.250 C 331.528 41.250 321.546 42.598 321.545 42.598 C 321.545 42.599 325.085 52.004 325.085 52.005 C 325.084 52.004 317.809 45.047 317.809 45.046 C 317.808 45.047 312.636 53.676 312.636 53.677 C 312.636 53.676 313.552 43.678 313.552 43.677 Z"/>
<path fill="#ffffff" fill-rule="evenodd" stroke="none" d="M 347.175 36.359 C 347.174 36.360 340.905 37.109 340.905 37.109 C 340.905 37.109 346.243 33.702 346.244 33.701 C 346.243 33.701 341.746 29.272 341.745 29.272 C 341.746 29.272 347.715 31.315 347.715 31.316 C 347.715 31.315 348.381 25.016 348.381 25.016 C 348.382 25.016 350.508 30.979 350.508 30.980 C 350.508 30.979 355.848 27.572 355.849 27.571 C 355.848 27.572 352.511 32.951 352.511 32.952 C 352.511 32.952 358.499 35.006 358.500 35.006 C 358.499 35.006 352.210 35.758 352.210 35.758 C 352.210 35.759 354.345 41.705 354.345 41.706 C 354.345 41.705 349.838 37.261 349.838 37.261 C 349.837 37.261 346.503 42.637 346.502 42.638 C 346.502 42.637 347.175 36.360 347.175 36.359 Z"/>
<path fill="#ffffff" fill-rule="evenodd" stroke="none" d="M 328.986 63.401 C 328.986 63.401 323.977 63.999 323.977 63.999 C 323.977 63.999 328.242 61.277 328.242 61.277 C 328.242 61.276 324.648 57.738 324.648 57.738 C 324.648 57.738 329.418 59.370 329.418 59.370 C 329.418 59.370 329.950 54.337 329.950 54.337 C 329.951 54.337 331.649 59.102 331.649 59.102 C 331.650 59.102 335.916 56.379 335.916 56.379 C 335.916 56.379 333.250 60.677 333.249 60.678 C 333.250 60.678 338.034 62.319 338.035 62.319 C 338.034 62.319 333.010 62.920 333.009 62.920 C 333.009 62.920 334.715 67.671 334.715 67.672 C 334.715 67.672 331.114 64.121 331.114 64.121 C 331.113 64.121 328.449 68.416 328.449 68.416 C 328.449 68.416 328.986 63.401 328.986 63.401 Z"/>
<path fill="#ffffff" fill-rule="evenodd" stroke="none" d="M 485.918 48.816 C 485.919 48.816 495.869 50.159 495.871 50.159 C 495.870 50.159 487.464 44.612 487.463 44.611 C 487.463 44.610 494.723 37.677 494.724 37.676 C 494.723 37.677 485.181 40.781 485.180 40.781 C 485.180 40.780 484.273 30.748 484.273 30.747 C 484.273 30.748 480.748 40.179 480.747 40.179 C 480.746 40.179 472.338 34.630 472.337 34.630 C 472.337 34.631 477.514 43.266 477.514 43.267 C 477.513 43.268 467.941 46.389 467.940 46.389 C 467.941 46.389 477.924 47.737 477.925 47.737 C 477.924 47.738 474.385 57.143 474.385 57.144 C 474.385 57.143 481.660 50.186 481.661 50.185 C 481.661 50.186 486.834 58.815 486.834 58.816 C 486.834 58.815 485.918 48.817 485.918 48.816 Z"/>
<path fill="#ffffff" fill-rule="evenodd" stroke="none" d="M 461.605 74.865 C 461.606 74.865 473.905 72.779 473.906 72.779 C 473.905 72.779 461.884 69.307 461.883 69.306 C 461.884 69.305 467.931 58.399 467.932 58.398 C 467.931 58.398 457.761 65.607 457.760 65.608 C 457.759 65.607 452.976 54.042 452.975 54.041 C 452.975 54.042 452.280 66.531 452.280 66.533 C 452.279 66.532 440.255 63.059 440.254 63.059 C 440.255 63.059 449.586 71.389 449.587 71.390 C 449.586 71.390 439.386 78.631 439.385 78.631 C 439.386 78.631 451.725 76.540 451.726 76.539 C 451.726 76.541 451.004 89.004 451.004 89.006 C 451.005 89.004 457.061 78.063 457.062 78.062 C 457.063 78.063 466.387 86.386 466.388 86.387 C 466.388 86.386 461.605 74.866 461.605 74.865 Z"/>
<path fill="#ffffff" fill-rule="evenodd" stroke="none" d="M 450.584 39.428 C 450.585 39.428 456.496 39.426 456.497 39.426 C 456.496 39.426 451.154 36.853 451.153 36.853 C 451.154 36.853 454.842 32.235 454.842 32.234 C 454.842 32.234 449.520 34.799 449.519 34.799 C 449.519 34.798 448.198 29.017 448.198 29.017 C 448.198 29.017 446.886 34.797 446.886 34.798 C 446.885 34.798 441.542 32.224 441.541 32.224 C 441.542 32.225 445.243 36.854 445.244 36.854 C 445.243 36.855 439.905 39.431 439.905 39.432 C 439.905 39.432 445.835 39.430 445.836 39.430 C 445.836 39.430 444.513 45.197 444.513 45.197 C 444.514 45.197 448.209 40.563 448.209 40.563 C 448.209 40.563 451.908 45.189 451.908 45.190 C 451.908 45.189 450.584 39.429 450.584 39.428 Z"/>
<path fill="#ffffff" fill-rule="evenodd" stroke="none" d="M 431.245 55.990 C 431.245 55.990 436.679 55.608 436.679 55.608 C 436.679 55.608 431.603 53.586 431.603 53.586 C 431.603 53.586 434.696 49.104 434.697 49.104 C 434.696 49.104 429.969 51.803 429.969 51.803 C 429.969 51.803 428.384 46.573 428.383 46.573 C 428.383 46.573 427.548 51.970 427.548 51.971 C 427.548 51.971 422.471 49.949 422.470 49.948 C 422.471 49.949 426.171 53.966 426.171 53.967 C 426.170 53.967 421.429 56.678 421.429 56.679 C 421.429 56.679 426.880 56.296 426.880 56.296 C 426.880 56.296 426.035 61.682 426.035 61.682 C 426.035 61.682 429.134 57.186 429.134 57.185 C 429.135 57.186 432.832 61.200 432.832 61.201 C 432.832 61.200 431.245 55.990 431.245 55.990 Z"/>
<path fill="#ffffff" fill-rule="evenodd" stroke="none" d="M 438.268 94.798 C 438.268 94.798 444.179 94.796 444.180 94.796 C 444.179 94.796 438.837 92.223 438.837 92.223 C 438.837 92.222 442.525 87.604 442.525 87.604 C 442.525 87.604 437.203 90.168 437.203 90.168 C 437.203 90.168 435.882 84.387 435.882 84.386 C 435.881 84.387 434.569 90.167 434.569 90.168 C 434.569 90.167 429.225 87.594 429.225 87.594 C 429.225 87.594 432.927 92.223 432.927 92.224 C 432.926 92.224 427.588 94.801 427.588 94.801 C 427.588 94.801 433.519 94.799 433.519 94.799 C 433.519 94.800 432.197 100.566 432.197 100.567 C 432.197 100.566 435.892 95.933 435.892 95.933 C 435.892 95.933 439.591 100.559 439.592 100.559 C 439.592 100.559 438.268 94.799 438.268 94.798 Z"/>
<path fill="#ffffff" fill-rule="evenodd" stroke="none" d="M 494.829 76.057 C 494.830 76.057 499.967 76.055 499.968 76.055 C 499.968 76.055 495.324 73.819 495.324 73.819 C 495.324 73.818 498.530 69.805 498.530 69.804 C 498.530 69.804 493.904 72.033 493.904 72.033 C 493.904 72.033 492.756 67.008 492.755 67.007 C 492.755 67.008 491.615 72.032 491.615 72.032 C 491.614 72.032 486.970 69.795 486.969 69.795 C 486.970 69.796 490.187 73.820 490.188 73.820 C 490.187 73.820 485.548 76.060 485.547 76.060 C 485.548 76.060 490.702 76.058 490.702 76.058 C 490.702 76.059 489.553 81.071 489.553 81.071 C 489.553 81.071 492.764 77.044 492.765 77.043 C 492.765 77.044 495.980 81.064 495.980 81.065 C 495.980 81.064 494.829 76.057 494.829 76.057 Z"/>
<path fill="#ffffff" fill-rule="evenodd" stroke="none" d="M 482.099 101.758 C 482.100 101.758 489.095 102.594 489.096 102.594 C 489.095 102.594 483.139 98.792 483.138 98.792 C 483.138 98.791 488.157 93.850 488.158 93.849 C 488.157 93.850 481.496 96.129 481.496 96.130 C 481.496 96.129 480.752 89.100 480.752 89.100 C 480.752 89.100 478.380 95.754 478.380 95.755 C 478.379 95.754 472.421 91.952 472.420 91.951 C 472.420 91.952 476.144 97.955 476.145 97.955 C 476.144 97.956 469.462 100.248 469.462 100.248 C 469.462 100.248 476.480 101.087 476.481 101.087 C 476.480 101.087 474.098 107.723 474.098 107.724 C 474.098 107.724 479.127 102.765 479.128 102.764 C 479.128 102.765 482.849 108.763 482.849 108.764 C 482.849 108.763 482.099 101.759 482.099 101.758 Z"/>
<path fill="#ffffff" fill-rule="evenodd" stroke="none" d="M 416.806 78.172 C 416.806 78.172 422.717 78.170 422.718 78.170 C 422.717 78.170 417.375 75.598 417.375 75.597 C 417.375 75.597 421.063 70.979 421.063 70.979 C 421.063 70.979 415.741 73.543 415.741 73.543 C 415.740 73.543 414.420 67.761 414.419 67.760 C 414.419 67.761 413.107 73.542 413.107 73.542 C 413.107 73.542 407.763 70.968 407.763 70.968 C 407.763 70.969 411.465 75.598 411.465 75.599 C 411.464 75.599 406.126 78.175 406.126 78.176 C 406.126 78.176 412.056 78.174 412.057 78.174 C 412.057 78.174 410.735 83.941 410.734 83.941 C 410.735 83.941 414.429 79.308 414.430 79.307 C 414.430 79.308 418.129 83.933 418.130 83.934 C 418.129 83.933 416.806 78.173 416.806 78.172 Z"/>
<path fill="#ffffff" fill-rule="evenodd" stroke="none" d="M 408.533 43.677 C 408.534 43.677 418.485 45.020 418.486 45.020 C 418.485 45.020 410.079 39.473 410.078 39.472 C 410.079 39.471 417.338 32.538 417.339 32.537 C 417.338 32.538 407.796 35.642 407.795 35.642 C 407.795 35.641 406.889 25.609 406.889 25.608 C 406.888 25.609 403.363 35.040 403.363 35.040 C 403.362 35.040 394.953 29.491 394.952 29.491 C 394.953 29.492 400.129 38.127 400.130 38.128 C 400.129 38.128 390.557 41.250 390.556 41.250 C 390.557 41.250 400.539 42.598 400.540 42.598 C 400.540 42.599 397.000 52.004 397.000 52.005 C 397.001 52.004 404.276 45.047 404.276 45.046 C 404.277 45.047 409.449 53.676 409.450 53.677 C 409.450 53.676 408.533 43.678 408.533 43.677 Z"/>
<path fill="#ffffff" fill-rule="evenodd" stroke="none" d="M 374.911 36.359 C 374.911 36.360 381.180 37.109 381.181 37.109 C 381.180 37.109 375.842 33.702 375.841 33.701 C 375.842 33.701 380.340 29.272 380.340 29.272 C 380.339 29.272 374.370 31.315 374.370 31.316 C 374.370 31.315 373.704 25.016 373.704 25.016 C 373.704 25.016 371.577 30.979 371.577 30.980 C 371.577 30.979 366.237 27.572 366.237 27.571 C 366.237 27.572 369.574 32.951 369.575 32.952 C 369.574 32.952 363.586 35.006 363.586 35.006 C 363.586 35.006 369.875 35.758 369.876 35.758 C 369.875 35.759 367.740 41.705 367.740 41.706 C 367.740 41.705 372.247 37.261 372.248 37.261 C 372.248 37.261 375.583 42.637 375.583 42.638 C 375.583 42.637 374.911 36.360 374.911 36.359 Z"/>
<path fill="#ffffff" fill-rule="evenodd" stroke="none" d="M 393.099 63.401 C 393.099 63.401 398.108 63.999 398.109 63.999 C 398.108 63.999 393.843 61.277 393.843 61.277 C 393.843 61.276 397.437 57.738 397.437 57.738 C 397.437 57.738 392.667 59.370 392.667 59.370 C 392.667 59.370 392.135 54.337 392.135 54.337 C 392.135 54.337 390.436 59.102 390.436 59.102 C 390.435 59.102 386.169 56.379 386.169 56.379 C 386.169 56.379 388.835 60.677 388.836 60.678 C 388.835 60.678 384.051 62.319 384.051 62.319 C 384.051 62.319 389.076 62.920 389.076 62.920 C 389.076 62.920 387.370 67.671 387.370 67.672 C 387.370 67.672 390.971 64.121 390.972 64.121 C 390.972 64.121 393.636 68.416 393.636 68.416 C 393.636 68.416 393.099 63.401 393.099 63.401 Z"/>
<path fill="#ffffff" fill-rule="evenodd" stroke="none" d="M 228.500 136.815 C 228.499 136.815 222.588 136.813 222.588 136.813 C 222.588 136.813 227.930 134.241 227.931 134.240 C 227.930 134.240 224.243 129.622 224.242 129.621 C 224.243 129.622 229.564 132.186 229.565 132.186 C 229.565 132.186 230.886 126.404 230.886 126.403 C 230.886 126.404 232.198 132.184 232.198 132.185 C 232.199 132.185 237.542 129.611 237.543 129.611 C 237.542 129.611 233.841 134.241 233.841 134.242 C 233.841 134.242 239.179 136.818 239.180 136.819 C 239.179 136.819 233.249 136.817 233.248 136.817 C 233.248 136.817 234.571 142.584 234.571 142.584 C 234.571 142.584 230.876 137.951 230.876 137.950 C 230.875 137.951 227.176 142.576 227.176 142.577 C 227.176 142.576 228.500 136.816 228.500 136.815 Z"/>
<path fill="#ffffff" fill-rule="evenodd" stroke="none" d="M 233.870 169.395 C 233.869 169.395 226.851 167.926 226.850 167.925 C 226.851 167.925 233.833 166.196 233.833 166.196 C 233.833 166.195 230.599 159.797 230.599 159.796 C 230.600 159.796 236.283 164.162 236.283 164.162 C 236.284 164.161 239.287 157.624 239.287 157.623 C 239.287 157.624 239.411 164.814 239.411 164.814 C 239.412 164.814 246.396 163.084 246.396 163.084 C 246.396 163.084 240.851 167.664 240.851 167.664 C 240.851 167.665 246.551 172.048 246.552 172.049 C 246.551 172.049 239.509 170.575 239.509 170.575 C 239.509 170.576 239.648 177.751 239.648 177.752 C 239.648 177.751 236.410 171.333 236.410 171.332 C 236.409 171.333 230.869 175.908 230.868 175.908 C 230.869 175.908 233.870 169.396 233.870 169.395 Z"/>
<path fill="#ffffff" fill-rule="evenodd" stroke="none" d="M 227.290 222.664 C 227.290 222.664 221.379 222.662 221.378 222.662 C 221.379 222.661 226.721 220.089 226.721 220.089 C 226.721 220.088 223.033 215.470 223.033 215.470 C 223.033 215.470 228.355 218.034 228.355 218.035 C 228.355 218.034 229.676 212.252 229.676 212.252 C 229.677 212.252 230.988 218.033 230.989 218.033 C 230.989 218.033 236.333 215.460 236.333 215.460 C 236.333 215.460 232.631 220.090 232.631 220.090 C 232.631 220.090 237.970 222.667 237.970 222.667 C 237.969 222.667 232.039 222.665 232.039 222.665 C 232.039 222.666 233.361 228.432 233.361 228.433 C 233.361 228.432 229.666 223.799 229.666 223.799 C 229.666 223.799 225.967 228.425 225.966 228.425 C 225.966 228.425 227.290 222.664 227.290 222.664 Z"/>
<path fill="#ffffff" fill-rule="evenodd" stroke="none" d="M 238.099 259.871 C 238.098 259.871 230.975 259.868 230.974 259.868 C 230.975 259.868 237.412 256.768 237.413 256.768 C 237.412 256.767 232.968 251.203 232.968 251.202 C 232.969 251.202 239.381 254.292 239.382 254.292 C 239.382 254.292 240.974 247.325 240.974 247.324 C 240.974 247.325 242.555 254.291 242.555 254.291 C 242.556 254.291 248.995 251.190 248.996 251.189 C 248.995 251.190 244.535 256.769 244.534 256.770 C 244.535 256.770 250.968 259.875 250.968 259.875 C 250.968 259.875 243.822 259.873 243.821 259.873 C 243.821 259.873 245.414 266.822 245.415 266.823 C 245.414 266.822 240.962 261.239 240.962 261.238 C 240.961 261.239 236.504 266.813 236.503 266.814 C 236.503 266.813 238.098 259.872 238.099 259.871 Z"/>
<path fill="#ffffff" fill-rule="evenodd" stroke="none" d="M 224.857 306.670 C 224.856 306.670 220.774 306.668 220.774 306.668 C 220.774 306.668 224.463 304.891 224.464 304.891 C 224.463 304.891 221.917 301.702 221.916 301.701 C 221.917 301.702 225.592 303.472 225.592 303.473 C 225.592 303.472 226.505 299.479 226.505 299.479 C 226.505 299.479 227.411 303.472 227.411 303.472 C 227.411 303.472 231.102 301.694 231.102 301.694 C 231.102 301.695 228.546 304.892 228.545 304.892 C 228.546 304.892 232.232 306.672 232.233 306.672 C 232.232 306.672 228.137 306.671 228.136 306.671 C 228.136 306.671 229.050 310.654 229.050 310.654 C 229.049 310.654 226.498 307.454 226.498 307.453 C 226.497 307.454 223.943 310.649 223.942 310.649 C 223.942 310.648 224.857 306.670 224.857 306.670 Z"/>
<path fill="#ffffff" fill-rule="evenodd" stroke="none" d="M 237.875 198.138 C 237.874 198.138 233.470 198.136 233.469 198.136 C 233.470 198.136 237.450 196.219 237.451 196.219 C 237.450 196.219 234.703 192.778 234.702 192.778 C 234.703 192.778 238.668 194.688 238.668 194.689 C 238.668 194.688 239.653 190.380 239.653 190.380 C 239.653 190.380 240.630 194.687 240.630 194.688 C 240.631 194.688 244.612 192.770 244.613 192.770 C 244.613 192.770 241.854 196.220 241.854 196.220 C 241.855 196.221 245.832 198.140 245.832 198.140 C 245.832 198.140 241.413 198.139 241.413 198.139 C 241.413 198.140 242.398 202.436 242.398 202.436 C 242.398 202.436 239.645 198.984 239.645 198.983 C 239.645 198.984 236.889 202.430 236.888 202.431 C 236.888 202.430 237.875 198.139 237.875 198.138 Z"/>
<path fill="#ffffff" fill-rule="evenodd" stroke="none" d="M 246.036 292.451 C 246.036 292.451 241.631 292.449 241.631 292.449 C 241.631 292.449 245.612 290.532 245.612 290.532 C 245.612 290.531 242.864 287.090 242.864 287.090 C 242.864 287.090 246.829 289.001 246.830 289.001 C 246.830 289.001 247.814 284.693 247.814 284.692 C 247.814 284.693 248.792 289.000 248.792 289.000 C 248.792 289.000 252.774 287.082 252.774 287.082 C 252.774 287.083 250.016 290.532 250.016 290.533 C 250.016 290.533 253.994 292.453 253.994 292.453 C 253.994 292.453 249.575 292.452 249.574 292.452 C 249.574 292.452 250.560 296.749 250.560 296.749 C 250.560 296.749 247.807 293.296 247.806 293.296 C 247.806 293.296 245.050 296.743 245.050 296.743 C 245.050 296.743 246.036 292.451 246.036 292.451 Z"/>
<path fill="#ffffff" fill-rule="evenodd" stroke="none" d="M 491.722 136.815 C 491.722 136.815 497.634 136.813 497.634 136.813 C 497.634 136.813 492.292 134.241 492.291 134.240 C 492.291 134.240 495.979 129.622 495.980 129.621 C 495.979 129.622 490.658 132.186 490.657 132.186 C 490.657 132.186 489.336 126.404 489.336 126.403 C 489.336 126.404 488.024 132.184 488.024 132.185 C 488.023 132.185 482.680 129.611 482.679 129.611 C 482.679 129.611 486.381 134.241 486.381 134.242 C 486.381 134.242 481.043 136.818 481.042 136.819 C 481.043 136.819 486.973 136.817 486.973 136.817 C 486.973 136.817 485.651 142.584 485.651 142.584 C 485.651 142.584 489.346 137.951 489.346 137.950 C 489.347 137.951 493.046 142.576 493.046 142.577 C 493.046 142.576 491.722 136.816 491.722 136.815 Z"/>
<path fill="#ffffff" fill-rule="evenodd" stroke="none" d="M 486.352 169.395 C 486.352 169.395 493.371 167.926 493.372 167.925 C 493.371 167.925 486.389 166.196 486.388 166.196 C 486.389 166.195 489.622 159.797 489.623 159.796 C 489.622 159.796 483.939 164.162 483.938 164.162 C 483.938 164.161 480.935 157.624 480.935 157.623 C 480.935 157.624 480.811 164.814 480.811 164.814 C 480.810 164.814 473.826 163.084 473.826 163.084 C 473.826 163.084 479.370 167.664 479.371 167.664 C 479.370 167.665 473.671 172.048 473.670 172.049 C 473.671 172.049 480.712 170.575 480.713 170.575 C 480.713 170.576 480.574 177.751 480.574 177.752 C 480.574 177.751 483.812 171.333 483.812 171.332 C 483.812 171.333 489.353 175.908 489.353 175.908 C 489.353 175.908 486.352 169.396 486.352 169.395 Z"/>
<path fill="#ffffff" fill-rule="evenodd" stroke="none" d="M 492.931 222.664 C 492.932 222.664 498.843 222.662 498.844 222.662 C 498.843 222.661 493.501 220.089 493.501 220.089 C 493.501 220.088 497.189 215.470 497.189 215.470 C 497.189 215.470 491.867 218.034 491.867 218.035 C 491.866 218.034 490.546 212.252 490.545 212.252 C 490.545 212.252 489.233 218.033 489.233 218.033 C 489.233 218.033 483.889 215.460 483.889 215.460 C 483.889 215.460 487.590 220.090 487.591 220.090 C 487.590 220.090 482.252 222.667 482.252 222.667 C 482.252 222.667 488.182 222.665 488.183 222.665 C 488.183 222.666 486.861 228.432 486.860 228.433 C 486.861 228.432 490.555 223.799 490.556 223.799 C 490.556 223.799 494.255 228.425 494.256 228.425 C 494.255 228.425 492.932 222.664 492.931 222.664 Z"/>
<path fill="#ffffff" fill-rule="evenodd" stroke="none" d="M 482.123 259.871 C 482.124 259.871 489.247 259.868 489.248 259.868 C 489.247 259.868 482.810 256.768 482.809 256.768 C 482.809 256.767 487.253 251.203 487.254 251.202 C 487.253 251.202 480.840 254.292 480.840 254.292 C 480.840 254.292 479.248 247.325 479.248 247.324 C 479.248 247.325 477.667 254.291 477.666 254.291 C 477.666 254.291 471.227 251.190 471.226 251.189 C 471.226 251.190 475.687 256.769 475.687 256.770 C 475.687 256.770 469.254 259.875 469.254 259.875 C 469.254 259.875 476.400 259.873 476.401 259.873 C 476.401 259.873 474.807 266.822 474.807 266.823 C 474.808 266.822 479.260 261.239 479.260 261.238 C 479.261 261.239 483.718 266.813 483.719 266.814 C 483.719 266.813 482.123 259.872 482.123 259.871 Z"/>
<path fill="#ffffff" fill-rule="evenodd" stroke="none" d="M 495.365 306.670 C 495.365 306.670 499.448 306.668 499.448 306.668 C 499.448 306.668 495.759 304.891 495.758 304.891 C 495.758 304.891 498.305 301.702 498.306 301.701 C 498.305 301.702 494.630 303.472 494.630 303.473 C 494.629 303.472 493.717 299.479 493.717 299.479 C 493.717 299.479 492.811 303.472 492.811 303.472 C 492.810 303.472 489.120 301.694 489.120 301.694 C 489.120 301.695 491.676 304.892 491.677 304.892 C 491.676 304.892 487.989 306.672 487.989 306.672 C 487.989 306.672 492.085 306.671 492.085 306.671 C 492.085 306.671 491.172 310.654 491.172 310.654 C 491.172 310.654 493.724 307.454 493.724 307.453 C 493.724 307.454 496.279 310.649 496.279 310.649 C 496.279 310.648 495.365 306.670 495.365 306.670 Z"/>
<path fill="#ffffff" fill-rule="evenodd" stroke="none" d="M 482.347 198.138 C 482.348 198.138 486.752 198.136 486.752 198.136 C 486.752 198.136 482.772 196.219 482.771 196.219 C 482.771 196.219 485.519 192.778 485.519 192.778 C 485.519 192.778 481.554 194.688 481.554 194.689 C 481.554 194.688 480.569 190.380 480.569 190.380 C 480.569 190.380 479.591 194.687 479.591 194.688 C 479.591 194.688 475.609 192.770 475.609 192.770 C 475.609 192.770 478.367 196.220 478.368 196.220 C 478.367 196.221 474.390 198.140 474.389 198.140 C 474.390 198.140 478.809 198.139 478.809 198.139 C 478.809 198.140 477.823 202.436 477.823 202.436 C 477.824 202.436 480.577 198.984 480.577 198.983 C 480.577 198.984 483.333 202.430 483.333 202.431 C 483.333 202.430 482.347 198.139 482.347 198.138 Z"/>
<path fill="#ffffff" fill-rule="evenodd" stroke="none" d="M 474.186 292.451 C 474.186 292.451 478.590 292.449 478.591 292.449 C 478.590 292.449 474.610 290.532 474.610 290.532 C 474.610 290.531 477.358 287.090 477.358 287.090 C 477.357 287.090 473.392 289.001 473.392 289.001 C 473.392 289.001 472.408 284.693 472.408 284.692 C 472.407 284.693 471.430 289.000 471.430 289.000 C 471.429 289.000 467.448 287.082 467.447 287.082 C 467.448 287.083 470.206 290.532 470.206 290.533 C 470.206 290.533 466.228 292.453 466.228 292.453 C 466.228 292.453 470.647 292.452 470.647 292.452 C 470.647 292.452 469.662 296.749 469.662 296.749 C 469.662 296.749 472.415 293.296 472.415 293.296 C 472.416 293.296 475.172 296.743 475.172 296.743 C 475.172 296.743 474.186 292.451 474.186 292.451 Z"/>
<path fill="#000000" fill-rule="evenodd" stroke="#ffffff" stroke-width="2" stroke-linejoin="round" d="M 296.548 409.581 C 296.553 409.582 339.999 427.578 340.003 427.580 C 340.003 427.581 343.110 429.302 341.888 432.253 C 340.665 435.203 337.251 434.224 337.251 434.224 C 337.247 434.222 293.800 416.226 293.796 416.224 C 293.796 416.224 290.431 414.510 291.694 411.461 C 292.957 408.413 296.548 409.581 296.548 409.581 M 365.887 416.678 C 365.889 416.674 383.885 373.228 383.887 373.223 C 383.888 373.223 385.609 370.116 388.560 371.338 C 391.510 372.561 390.531 375.975 390.531 375.975 C 390.529 375.980 372.533 419.426 372.531 419.430 C 372.531 419.430 370.817 422.795 367.768 421.533 C 364.720 420.270 365.888 416.679 365.887 416.678 M 380.152 427.075 C 380.156 427.073 423.603 409.077 423.607 409.075 C 423.607 409.075 427.022 408.096 428.244 411.046 C 429.466 413.997 426.359 415.718 426.359 415.719 C 426.354 415.721 382.908 433.717 382.904 433.719 C 382.903 433.718 379.313 434.886 378.050 431.838 C 376.787 428.789 380.152 427.075 380.152 427.075 M 383.608 506.077 C 383.606 506.072 365.610 462.626 365.608 462.622 C 365.609 462.621 364.629 459.207 367.580 457.985 C 370.530 456.763 372.252 459.870 372.252 459.870 C 372.254 459.874 390.250 503.321 390.252 503.325 C 390.252 503.325 391.420 506.916 388.371 508.179 C 385.322 509.442 383.609 506.077 383.608 506.077 M 385.131 445.496 C 385.135 445.497 426.445 462.970 426.449 462.972 C 426.449 462.972 429.556 464.694 428.333 467.645 C 427.111 470.595 423.697 469.616 423.697 469.616 C 423.693 469.614 380.246 451.618 380.242 451.616 C 380.242 451.616 376.726 449.835 378.140 446.853 C 380.073 442.775 385.130 445.496 385.131 445.496 M 330.237 503.016 C 330.238 503.012 348.234 459.566 348.236 459.561 C 348.237 459.561 349.958 456.455 352.909 457.677 C 355.859 458.899 354.880 462.313 354.880 462.314 C 354.878 462.318 336.882 505.764 336.880 505.769 C 336.880 505.769 335.166 509.134 332.118 507.871 C 329.069 506.608 330.237 503.017 330.237 503.016 M 293.595 462.927 C 293.600 462.926 337.046 444.930 337.050 444.928 C 337.051 444.928 340.465 443.949 341.687 446.899 C 342.909 449.850 339.802 451.572 339.802 451.572 C 339.798 451.574 296.352 469.570 296.347 469.572 C 296.347 469.571 292.756 470.739 291.493 467.690 C 290.230 464.641 293.595 462.928 293.595 462.927 M 347.658 419.285 C 347.656 419.281 329.660 375.835 329.658 375.830 C 329.658 375.830 328.679 372.416 331.629 371.194 C 334.580 369.971 336.301 373.078 336.302 373.078 C 336.304 373.083 354.300 416.529 354.302 416.533 C 354.301 416.534 355.469 420.125 352.420 421.387 C 349.372 422.650 347.658 419.285 347.658 419.285 M 312.899 387.590 C 312.902 387.594 346.155 420.846 346.158 420.849 C 346.158 420.850 348.369 423.629 346.111 425.887 C 343.853 428.145 341.074 425.934 341.073 425.934 C 341.070 425.931 307.817 392.679 307.814 392.675 C 307.814 392.675 305.361 389.804 307.695 387.470 C 310.028 385.137 312.899 387.590 312.899 387.590 M 374.244 420.683 C 374.247 420.679 407.500 387.427 407.503 387.424 C 407.504 387.424 410.283 385.212 412.541 387.470 C 414.800 389.729 412.588 392.508 412.588 392.509 C 412.585 392.512 379.332 425.764 379.329 425.768 C 379.329 425.768 376.458 428.220 374.125 425.887 C 371.791 423.554 374.244 420.683 374.244 420.683 M 383.445 435.746 C 383.449 435.746 430.475 435.746 430.480 435.746 C 430.480 435.747 434.009 436.149 434.009 439.342 C 434.009 442.536 430.480 442.937 430.480 442.938 C 430.475 442.938 383.449 442.938 383.445 442.938 C 383.444 442.937 379.679 442.642 379.679 439.342 C 379.679 436.042 383.444 435.747 383.445 435.746 M 356.404 510.058 C 356.404 510.053 356.404 463.027 356.404 463.022 C 356.405 463.022 356.807 459.493 360.000 459.493 C 363.194 459.493 363.595 463.022 363.596 463.022 C 363.596 463.027 363.596 510.053 363.596 510.058 C 363.595 510.058 363.300 513.822 360.000 513.822 C 356.700 513.822 356.405 510.058 356.404 510.058 M 379.221 453.369 C 379.224 453.373 412.476 486.625 412.480 486.628 C 412.480 486.629 414.691 489.408 412.433 491.667 C 410.175 493.925 407.395 491.713 407.395 491.713 C 407.391 491.710 374.139 458.458 374.136 458.454 C 374.136 458.454 371.683 455.583 374.016 453.250 C 376.350 450.916 379.220 453.369 379.221 453.369 M 308.267 486.806 C 308.270 486.803 341.523 453.550 341.526 453.547 C 341.526 453.547 344.306 451.335 346.564 453.594 C 348.822 455.852 346.611 458.631 346.611 458.632 C 346.608 458.635 313.355 491.888 313.352 491.891 C 313.351 491.891 310.481 494.344 308.147 492.011 C 305.814 489.677 308.267 486.806 308.267 486.806 M 289.756 435.746 C 289.761 435.746 336.786 435.746 336.791 435.746 C 336.792 435.747 340.321 436.148 340.321 439.342 C 340.321 442.536 336.792 442.937 336.791 442.938 C 336.786 442.938 289.761 442.938 289.756 442.938 C 289.756 442.937 285.991 442.642 285.991 439.342 C 285.991 436.042 289.756 435.747 289.756 435.746 M 356.404 416.115 C 356.404 416.110 356.404 369.084 356.404 369.079 C 356.405 369.079 356.807 365.550 360.000 365.550 C 363.194 365.550 363.595 369.079 363.596 369.079 C 363.596 369.084 363.596 416.110 363.596 416.115 C 363.595 416.115 363.300 419.880 360.000 419.880 C 356.700 419.880 356.405 416.115 356.404 416.115 Z"/>
<path fill="#000000" fill-rule="evenodd" stroke="#ffffff" stroke-width="2" stroke-linejoin="round" d="M 360.000 464.980 C 367.095 464.980 373.504 462.118 378.140 457.482 C 382.776 452.847 385.638 446.437 385.638 439.342 C 385.638 432.247 382.776 425.838 378.140 421.202 C 373.504 416.567 367.095 413.705 360.000 413.705 C 352.905 413.705 346.496 416.567 341.860 421.202 C 337.224 425.838 334.362 432.247 334.362 439.342 C 334.362 446.437 337.224 452.847 341.860 457.482 C 346.496 462.118 352.905 464.980 360.000 464.980 Z"/>
<path fill="#000000" fill-rule="evenodd" stroke="#ffffff" stroke-width="2" stroke-linejoin="round" d="M 315.351 483.991 C 326.761 495.401 342.537 502.445 360.000 502.445 C 377.463 502.445 393.239 495.401 404.649 483.991 C 416.059 472.582 423.103 456.806 423.103 439.342 C 423.103 421.879 416.059 406.103 404.649 394.693 C 393.239 383.283 377.463 376.239 360.000 376.239 C 342.537 376.239 326.761 383.283 315.351 394.693 C 303.941 406.103 296.897 421.879 296.897 439.342 C 296.897 456.806 303.941 472.582 315.351 483.991 M 306.987 492.355 C 320.534 505.902 339.265 514.266 360.000 514.266 C 380.735 514.266 399.466 505.902 413.013 492.355 C 426.560 478.808 434.923 460.077 434.923 439.342 C 434.923 418.607 426.560 399.876 413.013 386.329 C 399.466 372.782 380.735 364.419 360.000 364.419 C 339.265 364.419 320.534 372.782 306.987 386.329 C 293.440 399.876 285.077 418.607 285.077 439.342 C 285.077 460.077 293.440 478.808 306.987 492.355 Z"/>
<path id="S67" fill="#000000" fill-rule="evenodd" stroke="#ffffff" stroke-width="2" stroke-linecap="round" stroke-linejoin="round" d="M 219.561 349.783 C 219.589 349.783 500.411 349.783 500.439 349.783 C 500.439 349.784 500.439 360.532 500.439 360.533 C 500.411 360.533 219.589 360.533 219.561 360.533 C 219.561 360.532 219.561 349.784 219.561 349.783 Z"/>
<path id="S19" fill="#ffffff" fill-rule="evenodd" stroke="#000000" stroke-width="2" stroke-linecap="round" stroke-linejoin="round" d="M 239.803 326.577 C 252.893 326.577 263.453 337.137 263.453 350.227 C 263.453 363.318 252.893 373.878 239.803 373.878 C 226.712 373.878 216.152 363.318 216.152 350.227 C 216.152 337.137 226.712 326.577 239.803 326.577 Z"/>
<path id="S19_2" fill="#ffffff" fill-rule="evenodd" stroke="#000000" stroke-width="2" stroke-linecap="round" stroke-linejoin="round" d="M 481.015 332.131 C 495.962 336.896 505.591 340.739 503.848 367.639 C 494.731 368.838 487.558 369.526 477.744 371.664 C 474.039 350.527 463.093 349.730 455.320 348.831 C 456.689 336.915 469.214 329.988 481.015 332.131 Z"/>
<path id="S21" fill="none" stroke="#000000" stroke-width="2" stroke-linecap="round" stroke-linejoin="round" d="M 483.648 370.238 C 483.925 361.020 482.537 354.217 475.880 346.114 M 491.417 369.011 C 490.942 358.893 491.508 352.457 484.875 344.478 M 493.053 344.069 C 498.370 352.014 499.275 358.080 499.186 367.376 "/>
<path id="S21_2" fill="none" stroke="#000000" stroke-width="2" stroke-linecap="round" stroke-linejoin="round" d="M 245.741 348.733 C 235.595 348.363 228.225 346.342 219.810 338.437 M 245.210 357.390 C 233.199 356.139 225.501 356.378 216.452 347.944 M 218.339 358.990 C 227.068 364.652 233.684 365.541 243.798 365.299 "/>
<path id="S20" fill="#ffffff" fill-rule="evenodd" stroke="#000000" stroke-width="2" stroke-linecap="round" stroke-linejoin="round" d="M 200.672 148.951 C 200.673 148.950 208.044 147.473 208.044 147.472 C 208.049 147.494 251.895 366.161 251.900 366.183 C 251.899 366.183 244.528 367.661 244.527 367.661 C 244.523 367.639 200.677 148.972 200.672 148.951 Z"/>
<path fill="#ffffff" fill-rule="evenodd" stroke="#000000" stroke-width="2" stroke-linecap="round" stroke-linejoin="round" d="M 200.514 148.102 C 200.513 148.102 192.271 150.317 192.270 150.318 C 192.271 150.317 198.754 144.726 198.755 144.725 C 198.754 144.725 191.879 139.670 191.879 139.669 C 191.879 139.669 200.261 141.248 200.262 141.248 C 200.262 141.248 199.935 132.691 199.935 132.690 C 199.935 132.691 203.933 140.258 203.934 140.259 C 203.934 140.258 210.419 134.666 210.420 134.665 C 210.420 134.666 206.995 142.509 206.995 142.510 C 206.995 142.510 215.404 144.100 215.405 144.100 C 215.404 144.101 207.135 146.323 207.135 146.323 C 207.135 146.324 211.142 153.867 211.143 153.868 C 211.142 153.868 204.252 148.793 204.252 148.793 C 204.251 148.794 200.830 156.631 200.829 156.632 C 200.829 156.631 200.514 148.103 200.514 148.102 Z"/>
</g>
<g id="chariot_horses_2">
<path id="S15" fill="#ffffff" fill-rule="evenodd" stroke="#000000" stroke-width="2" stroke-linecap="round" stroke-linejoin="round" d="M 546.626 558.155 C 546.634 558.154 588.087 559.890 623.104 548.499 C 633.666 545.064 635.912 557.436 637.903 560.552 C 641.859 566.746 660.956 605.509 667.974 618.292 C 670.130 622.218 666.646 634.958 667.560 647.398 C 668.122 655.045 653.785 674.290 653.784 674.292 C 653.783 674.290 641.783 648.375 641.782 648.372 C 641.783 648.371 654.778 638.140 654.306 632.473 C 653.656 624.671 642.761 627.455 643.339 622.659 C 645.351 605.946 627.601 570.936 623.801 569.117 C 619.279 566.953 560.418 593.200 560.412 593.202 C 560.409 593.202 535.844 587.692 535.842 587.691 C 535.843 587.688 546.625 558.158 546.626 558.155 Z"/>
<path fill="#000000" fill-rule="evenodd" stroke="#ffffff" stroke-width="2" stroke-linecap="round" stroke-linejoin="round" d="M 617.974 389.739 C 637.482 394.512 638.075 410.797 640.302 432.389 C 649.298 424.045 663.383 414.667 658.302 392.747 C 655.418 380.303 640.526 370.419 631.867 371.945 C 630.625 381.736 625.137 386.502 617.974 389.739 Z"/>
<path fill="none" stroke="#000000" stroke-width="1" stroke-linecap="butt" stroke-linejoin="round" d="M 631.867 371.945 C 630.625 381.736 625.137 386.502 617.974 389.739 "/>
<path fill="#000000" fill-rule="evenodd" stroke="#ffffff" stroke-width="2" stroke-linecap="round" stroke-linejoin="round" d="M 631.867 371.945 C 630.625 381.736 625.137 386.502 617.974 389.739 C 615.567 389.150 613.440 387.344 610.684 386.237 C 614.500 379.402 620.254 372.701 614.288 353.473 C 623.614 356.386 629.571 366.552 631.867 371.945 Z"/>
<path fill="none" stroke="#000000" stroke-width="1" stroke-linecap="butt" stroke-linejoin="round" d="M 614.288 353.473 C 620.254 372.701 614.500 379.402 610.684 386.237 "/>
<path fill="#000000" fill-rule="evenodd" stroke="#ffffff" stroke-width="2" stroke-linecap="round" stroke-linejoin="round" d="M 614.288 353.473 C 620.254 372.701 614.500 379.402 610.684 386.237 C 605.315 384.082 599.897 382.403 593.830 381.009 C 595.248 363.592 589.230 350.053 573.957 341.959 C 589.551 338.814 604.240 342.900 614.288 353.473 Z"/>
<path fill="none" stroke="#000000" stroke-width="1" stroke-linecap="butt" stroke-linejoin="round" d="M 573.957 341.959 C 589.230 350.053 595.248 363.592 593.830 381.009 "/>
<path fill="#000000" fill-rule="evenodd" stroke="#ffffff" stroke-width="2" stroke-linecap="round" stroke-linejoin="round" d="M 573.957 341.959 C 589.230 350.053 595.248 363.592 593.830 381.009 C 587.715 379.605 581.408 378.745 574.538 378.712 C 568.560 364.573 559.236 349.171 533.562 345.075 C 542.775 338.271 565.044 337.418 573.957 341.959 Z"/>
<path fill="none" stroke="#000000" stroke-width="1" stroke-linecap="butt" stroke-linejoin="round" d="M 533.562 345.075 C 559.236 349.171 568.560 364.573 574.538 378.712 "/>
<path fill="#000000" fill-rule="evenodd" stroke="#ffffff" stroke-width="2" stroke-linecap="round" stroke-linejoin="round" d="M 533.562 345.075 C 559.236 349.171 568.560 364.573 574.538 378.712 C 565.688 378.669 556.249 379.165 546.410 382.645 C 539.073 369.027 521.625 359.482 500.333 359.198 C 505.761 352.921 521.306 344.288 533.562 345.075 Z"/>
<path fill="none" stroke="#000000" stroke-width="1" stroke-linecap="butt" stroke-linejoin="round" d="M 500.333 359.198 C 521.625 359.482 539.073 369.027 546.410 382.645 "/>
<path fill="#000000" fill-rule="evenodd" stroke="#ffffff" stroke-width="2" stroke-linecap="round" stroke-linejoin="round" d="M 500.333 359.198 C 521.625 359.482 539.073 369.027 546.410 382.645 C 539.035 385.253 531.719 388.349 525.125 393.679 C 512.978 387.524 496.533 379.171 465.249 391.629 C 472.634 372.433 489.373 361.741 500.333 359.198 Z"/>
<path fill="none" stroke="#000000" stroke-width="1" stroke-linecap="butt" stroke-linejoin="round" d="M 465.249 391.629 C 496.533 379.171 512.978 387.524 525.125 393.679 "/>
<path fill="#000000" fill-rule="evenodd" stroke="#ffffff" stroke-width="2" stroke-linecap="round" stroke-linejoin="round" d="M 465.249 391.629 C 496.533 379.171 512.978 387.524 525.125 393.679 C 515.256 401.657 507.712 411.083 502.652 420.632 C 481.833 415.142 463.983 413.687 443.564 426.529 C 444.327 418.986 452.920 398.072 465.249 391.629 Z"/>
<path fill="none" stroke="#000000" stroke-width="1" stroke-linecap="butt" stroke-linejoin="round" d="M 443.564 426.529 C 463.983 413.687 481.833 415.142 502.652 420.632 "/>
<path fill="#000000" fill-rule="evenodd" stroke="#ffffff" stroke-width="2" stroke-linecap="round" stroke-linejoin="round" d="M 443.564 426.529 C 463.983 413.687 481.833 415.142 502.652 420.632 C 494.183 436.615 487.172 448.778 483.768 461.939 C 469.068 454.782 436.430 462.762 418.431 482.648 C 418.867 474.634 418.686 448.723 443.564 426.529 Z"/>
<path fill="none" stroke="#000000" stroke-width="1" stroke-linecap="butt" stroke-linejoin="round" d="M 418.431 482.648 C 436.430 462.762 469.068 454.782 483.768 461.939 "/>
<path fill="#000000" fill-rule="evenodd" stroke="#ffffff" stroke-width="2" stroke-linecap="round" stroke-linejoin="round" d="M 418.431 482.648 C 436.430 462.762 469.068 454.782 483.768 461.939 C 480.340 475.197 468.790 522.210 468.789 522.216 C 468.783 522.217 425.852 527.544 413.230 529.921 C 408.337 517.115 403.168 501.184 418.431 482.648 Z"/>
<path id="S13" fill="#ffffff" fill-rule="evenodd" stroke="none" d="M 556.455 514.890 C 566.559 532.867 571.930 559.794 565.710 583.437 C 583.318 587.303 603.603 591.827 619.341 594.331 C 627.444 595.620 628.673 608.373 626.190 610.393 C 617.509 617.456 597.643 650.173 593.970 666.664 C 592.367 673.861 580.269 676.723 568.056 684.914 C 563.376 688.053 542.420 685.291 542.417 685.291 C 542.419 685.289 556.616 663.168 556.618 663.166 C 556.620 663.166 572.974 664.236 574.381 663.185 C 579.119 659.642 576.737 654.080 577.342 652.706 C 580.180 646.259 608.702 616.142 606.009 610.414 C 603.436 604.940 540.463 616.382 532.123 614.143 C 524.741 612.162 516.841 600.801 516.840 600.800 C 516.841 600.801 525.013 612.036 531.548 614.195 C 533.877 614.965 543.630 612.930 548.823 613.328 C 513.380 644.652 473.880 664.619 360.000 663.052 C 360.000 663.052 359.999 528.946 360.000 528.928 C 378.782 529.577 430.008 524.348 457.758 502.550 C 475.544 488.578 478.085 412.246 522.504 386.073 C 572.205 356.787 621.579 384.741 621.589 384.741 C 621.590 384.739 633.747 364.912 633.748 364.910 C 633.748 364.913 634.719 392.045 634.719 392.047 C 634.719 392.049 641.637 398.459 642.468 410.661 C 643.105 420.010 639.698 481.064 637.672 485.225 C 636.016 488.628 627.281 491.383 627.280 491.384 C 627.280 491.382 621.823 477.230 621.823 477.229 C 621.822 477.230 618.453 488.666 618.453 488.667 C 618.452 488.667 611.101 485.867 610.984 484.533 C 609.898 472.127 607.870 460.359 607.870 460.357 C 607.868 460.354 594.170 450.590 588.039 434.663 C 562.076 438.262 556.683 489.768 556.455 514.890 Z"/>
<path id="S13" fill="none" stroke="#000000" stroke-width="2" stroke-linecap="round" stroke-linejoin="round" d="M 556.455 514.890 C 566.559 532.867 571.930 559.794 565.710 583.437 C 583.318 587.303 603.603 591.827 619.341 594.331 C 627.444 595.620 628.673 608.373 626.190 610.393 C 617.509 617.456 597.643 650.173 593.970 666.664 C 592.367 673.861 580.269 676.723 568.056 684.914 C 563.376 688.053 542.420 685.291 542.417 685.291 C 542.419 685.289 556.616 663.168 556.618 663.166 C 556.620 663.166 572.974 664.236 574.381 663.185 C 579.119 659.642 576.737 654.080 577.342 652.706 C 580.180 646.259 608.702 616.142 606.009 610.414 C 603.436 604.940 540.463 616.382 532.123 614.143 C 524.741 612.162 516.841 600.801 516.840 600.800 C 516.841 600.801 525.013 612.036 531.548 614.195 C 533.877 614.965 543.630 612.930 548.823 613.328 C 513.380 644.652 473.880 664.619 360.000 663.052 C 360.000 663.052 359.999 528.946 360.000 528.928 C 378.782 529.577 430.008 524.348 457.758 502.550 C 475.544 488.578 478.085 412.246 522.504 386.073 C 572.205 356.787 621.579 384.741 621.589 384.741 C 621.590 384.739 633.747 364.912 633.748 364.910 C 633.748 364.913 634.719 392.045 634.719 392.047 C 634.719 392.049 641.637 398.459 642.468 410.661 C 643.105 420.010 639.698 481.064 637.672 485.225 C 636.016 488.628 627.281 491.383 627.280 491.384 C 627.280 491.382 621.823 477.230 621.823 477.229 C 621.822 477.230 618.453 488.666 618.453 488.667 C 618.452 488.667 611.101 485.867 610.984 484.533 C 609.898 472.127 607.870 460.359 607.870 460.357 C 607.868 460.354 594.170 450.590 588.039 434.663 C 562.076 438.262 556.683 489.768 556.455 514.890 M 532.399 575.590 C 538.785 577.400 551.277 580.210 565.710 583.437 "/>
<path fill="#000000" fill-rule="evenodd" stroke="none" d="M 625.373 424.882 C 629.680 423.188 631.788 418.346 630.094 414.039 C 628.400 409.731 623.558 407.623 619.250 409.317 C 614.943 411.012 612.835 415.854 614.529 420.161 C 616.224 424.468 621.065 426.577 625.373 424.882 M 630.493 437.485 C 630.493 437.482 639.623 427.516 633.810 412.740 C 627.998 397.964 614.525 396.889 614.523 396.887 C 614.523 396.890 605.395 406.856 611.207 421.631 C 617.019 436.407 630.491 437.483 630.493 437.485 Z"/>
<path id="S15_2" fill="#000000" fill-rule="evenodd" stroke="#ffffff" stroke-width="2" stroke-linecap="round" stroke-linejoin="round" d="M 173.374 558.155 C 173.366 558.154 131.913 559.890 96.896 548.499 C 86.334 545.064 84.088 557.436 82.098 560.552 C 78.141 566.746 59.044 605.509 52.026 618.292 C 49.870 622.218 53.354 634.958 52.440 647.398 C 51.878 655.045 66.215 674.290 66.216 674.292 C 66.217 674.290 78.217 648.375 78.218 648.372 C 78.217 648.371 65.222 638.140 65.694 632.473 C 66.344 624.671 77.239 627.455 76.661 622.659 C 74.649 605.946 92.399 570.936 96.199 569.117 C 100.721 566.953 159.582 593.200 159.588 593.202 C 159.591 593.202 184.156 587.692 184.158 587.691 C 184.157 587.688 173.375 558.158 173.374 558.155 Z"/>
<path fill="#ffffff" fill-rule="evenodd" stroke="#000000" stroke-width="2" stroke-linecap="round" stroke-linejoin="round" d="M 102.027 389.739 C 82.518 394.512 81.925 410.797 79.698 432.389 C 70.702 424.045 56.617 414.667 61.698 392.747 C 64.582 380.303 79.474 370.419 88.133 371.945 C 89.375 381.736 94.863 386.502 102.027 389.739 Z"/>
<path fill="none" stroke="#ffffff" stroke-width="1" stroke-linecap="butt" stroke-linejoin="round" d="M 88.133 371.945 C 89.375 381.736 94.863 386.502 102.027 389.739 "/>
<path fill="#ffffff" fill-rule="evenodd" stroke="#000000" stroke-width="2" stroke-linecap="round" stroke-linejoin="round" d="M 88.133 371.945 C 89.375 381.736 94.863 386.502 102.027 389.739 C 104.433 389.150 106.560 387.344 109.316 386.237 C 105.500 379.402 99.746 372.701 105.712 353.473 C 96.386 356.386 90.429 366.552 88.133 371.945 Z"/>
<path fill="none" stroke="#ffffff" stroke-width="1" stroke-linecap="butt" stroke-linejoin="round" d="M 105.712 353.473 C 99.746 372.701 105.500 379.402 109.316 386.237 "/>
<path fill="#ffffff" fill-rule="evenodd" stroke="#000000" stroke-width="2" stroke-linecap="round" stroke-linejoin="round" d="M 105.712 353.473 C 99.746 372.701 105.500 379.402 109.316 386.237 C 114.685 384.082 120.103 382.403 126.170 381.009 C 124.752 363.592 130.770 350.053 146.043 341.959 C 130.449 338.814 115.760 342.900 105.712 353.473 Z"/>
<path fill="none" stroke="#ffffff" stroke-width="1" stroke-linecap="butt" stroke-linejoin="round" d="M 146.043 341.959 C 130.770 350.053 124.752 363.592 126.170 381.009 "/>
<path fill="#ffffff" fill-rule="evenodd" stroke="#000000" stroke-width="2" stroke-linecap="round" stroke-linejoin="round" d="M 146.043 341.959 C 130.770 350.053 124.752 363.592 126.170 381.009 C 132.285 379.605 138.592 378.745 145.462 378.712 C 151.440 364.573 160.764 349.171 186.438 345.075 C 177.225 338.271 154.957 337.418 146.043 341.959 Z"/>
<path fill="none" stroke="#ffffff" stroke-width="1" stroke-linecap="butt" stroke-linejoin="round" d="M 186.438 345.075 C 160.764 349.171 151.440 364.573 145.462 378.712 "/>
<path fill="#ffffff" fill-rule="evenodd" stroke="#000000" stroke-width="2" stroke-linecap="round" stroke-linejoin="round" d="M 186.438 345.075 C 160.764 349.171 151.440 364.573 145.462 378.712 C 154.312 378.669 163.751 379.165 173.590 382.645 C 180.927 369.027 198.375 359.482 219.667 359.198 C 214.239 352.921 198.695 344.288 186.438 345.075 Z"/>
<path fill="none" stroke="#ffffff" stroke-width="1" stroke-linecap="butt" stroke-linejoin="round" d="M 219.667 359.198 C 198.375 359.482 180.927 369.027 173.590 382.645 "/>
<path fill="#ffffff" fill-rule="evenodd" stroke="#000000" stroke-width="2" stroke-linecap="round" stroke-linejoin="round" d="M 219.667 359.198 C 198.375 359.482 180.927 369.027 173.590 382.645 C 180.965 385.253 188.281 388.349 194.875 393.679 C 207.022 387.524 223.467 379.171 254.751 391.629 C 247.366 372.433 230.627 361.741 219.667 359.198 Z"/>
<path fill="none" stroke="#ffffff" stroke-width="1" stroke-linecap="butt" stroke-linejoin="round" d="M 254.751 391.629 C 223.467 379.171 207.022 387.524 194.875 393.679 "/>
<path fill="#ffffff" fill-rule="evenodd" stroke="#000000" stroke-width="2" stroke-linecap="round" stroke-linejoin="round" d="M 254.751 391.629 C 223.467 379.171 207.022 387.524 194.875 393.679 C 204.744 401.657 212.288 411.083 217.348 420.632 C 238.167 415.142 256.017 413.687 276.436 426.529 C 275.673 418.986 267.080 398.072 254.751 391.629 Z"/>
<path fill="none" stroke="#ffffff" stroke-width="1" stroke-linecap="butt" stroke-linejoin="round" d="M 276.436 426.529 C 256.017 413.687 238.167 415.142 217.348 420.632 "/>
<path fill="#ffffff" fill-rule="evenodd" stroke="#000000" stroke-width="2" stroke-linecap="round" stroke-linejoin="round" d="M 276.436 426.529 C 256.017 413.687 238.167 415.142 217.348 420.632 C 225.817 436.615 232.828 448.778 236.232 461.939 C 250.932 454.782 283.571 462.762 301.569 482.648 C 301.133 474.634 301.314 448.723 276.436 426.529 Z"/>
<path fill="none" stroke="#ffffff" stroke-width="1" stroke-linecap="butt" stroke-linejoin="round" d="M 301.569 482.648 C 283.571 462.762 250.932 454.782 236.232 461.939 "/>
<path fill="#ffffff" fill-rule="evenodd" stroke="#000000" stroke-width="2" stroke-linecap="round" stroke-linejoin="round" d="M 301.569 482.648 C 283.571 462.762 250.932 454.782 236.232 461.939 C 239.660 475.197 251.210 522.210 251.211 522.216 C 251.217 522.217 294.148 527.544 306.770 529.921 C 311.663 517.115 316.832 501.184 301.569 482.648 Z"/>
<path id="S13_2" fill="#000000" fill-rule="evenodd" stroke="none" d="M 163.545 514.890 C 153.441 532.867 148.070 559.794 154.290 583.437 C 136.682 587.303 116.397 591.827 100.659 594.331 C 92.556 595.620 91.327 608.373 93.810 610.393 C 102.491 617.456 122.357 650.173 126.030 666.664 C 127.633 673.861 139.731 676.723 151.944 684.914 C 156.624 688.053 177.580 685.291 177.583 685.291 C 177.581 685.289 163.384 663.168 163.382 663.166 C 163.381 663.166 147.026 664.236 145.619 663.185 C 140.881 659.642 143.263 654.080 142.658 652.706 C 139.820 646.259 111.298 616.142 113.991 610.414 C 116.564 604.940 179.537 616.382 187.877 614.143 C 195.259 612.162 203.159 600.801 203.160 600.800 C 203.159 600.801 194.987 612.036 188.452 614.195 C 186.123 614.965 176.370 612.930 171.177 613.328 C 206.620 644.652 246.120 664.619 360.000 663.052 C 360.000 663.052 360.001 528.946 360.000 528.928 C 341.218 529.577 289.992 524.348 262.242 502.550 C 244.456 488.578 241.915 412.246 197.496 386.073 C 147.795 356.787 98.421 384.741 98.411 384.741 C 98.410 384.739 86.253 364.912 86.252 364.910 C 86.252 364.913 85.281 392.045 85.281 392.047 C 85.281 392.049 78.363 398.459 77.532 410.661 C 76.895 420.010 80.302 481.064 82.328 485.225 C 83.984 488.628 92.719 491.383 92.720 491.384 C 92.720 491.382 98.177 477.230 98.177 477.229 C 98.178 477.230 101.547 488.666 101.548 488.667 C 101.548 488.667 108.899 485.867 109.016 484.533 C 110.102 472.127 112.130 460.359 112.130 460.357 C 112.132 460.354 125.830 450.590 131.961 434.663 C 157.924 438.262 163.317 489.768 163.545 514.890 Z"/>
<path id="S13_2" fill="none" stroke="#ffffff" stroke-width="2" stroke-linecap="round" stroke-linejoin="round" d="M 163.545 514.890 C 153.441 532.867 148.070 559.794 154.290 583.437 C 136.682 587.303 116.397 591.827 100.659 594.331 C 92.556 595.620 91.327 608.373 93.810 610.393 C 102.491 617.456 122.357 650.173 126.030 666.664 C 127.633 673.861 139.731 676.723 151.944 684.914 C 156.624 688.053 177.580 685.291 177.583 685.291 C 177.581 685.289 163.384 663.168 163.382 663.166 C 163.381 663.166 147.026 664.236 145.619 663.185 C 140.881 659.642 143.263 654.080 142.658 652.706 C 139.820 646.259 111.298 616.142 113.991 610.414 C 116.564 604.940 179.537 616.382 187.877 614.143 C 195.259 612.162 203.159 600.801 203.160 600.800 C 203.159 600.801 194.987 612.036 188.452 614.195 C 186.123 614.965 176.370 612.930 171.177 613.328 C 206.620 644.652 246.120 664.619 360.000 663.052 C 360.000 663.052 360.001 528.946 360.000 528.928 C 341.218 529.577 289.992 524.348 262.242 502.550 C 244.456 488.578 241.915 412.246 197.496 386.073 C 147.795 356.787 98.421 384.741 98.411 384.741 C 98.410 384.739 86.253 364.912 86.252 364.910 C 86.252 364.913 85.281 392.045 85.281 392.047 C 85.281 392.049 78.363 398.459 77.532 410.661 C 76.895 420.010 80.302 481.064 82.328 485.225 C 83.984 488.628 92.719 491.383 92.720 491.384 C 92.720 491.382 98.177 477.230 98.177 477.229 C 98.178 477.230 101.547 488.666 101.548 488.667 C 101.548 488.667 108.899 485.867 109.016 484.533 C 110.102 472.127 112.130 460.359 112.130 460.357 C 112.132 460.354 125.830 450.590 131.961 434.663 C 157.924 438.262 163.317 489.768 163.545 514.890 M 187.601 575.590 C 181.215 577.400 168.723 580.210 154.290 583.437 "/>
<path fill="#ffffff" fill-rule="evenodd" stroke="none" d="M 94.627 424.882 C 90.320 423.188 88.212 418.346 89.906 414.039 C 91.600 409.731 96.442 407.623 100.750 409.317 C 105.057 411.012 107.165 415.854 105.471 420.161 C 103.776 424.468 98.935 426.577 94.627 424.882 M 89.507 437.485 C 89.507 437.482 80.377 427.516 86.190 412.740 C 92.002 397.964 105.475 396.889 105.477 396.887 C 105.477 396.890 114.605 406.856 108.793 421.631 C 102.981 436.407 89.509 437.483 89.507 437.485 Z"/>
<path fill="#000000" fill-rule="evenodd" stroke="none" d="M 632.478 478.082 C 631.032 477.452 629.358 478.111 628.729 479.556 C 628.099 481.002 628.758 482.676 630.204 483.305 C 631.649 483.935 633.323 483.276 633.953 481.830 C 634.582 480.385 633.924 478.711 632.478 478.082 Z"/>
<path fill="#ffffff" fill-rule="evenodd" stroke="none" d="M 87.522 478.082 C 88.968 477.452 90.642 478.111 91.271 479.556 C 91.901 481.002 91.242 482.676 89.796 483.305 C 88.351 483.935 86.677 483.276 86.047 481.830 C 85.418 480.385 86.076 478.711 87.522 478.082 Z"/>
</g>
<g id="specs_2">
<path fill="#ff00ff" fill-rule="evenodd" stroke="none" d="M 320.907 342.760 C 320.915 342.760 399.085 342.760 399.093 342.760 C 399.093 342.752 399.093 264.582 399.093 264.574 C 399.085 264.574 320.915 264.574 320.907 264.574 C 320.907 264.582 320.907 342.752 320.907 342.760 Z"/>
<path fill="#ff0000" fill-rule="evenodd" stroke="none" d="M 360.000 679.595 C 360.001 679.598 372.416 714.361 372.417 714.364 C 372.416 714.363 360.001 702.811 360.000 702.810 C 359.999 702.811 347.584 714.363 347.583 714.364 C 347.584 714.361 359.999 679.598 360.000 679.595 Z"/>
<path fill="#0000ff" fill-rule="evenodd" stroke="none" d="M 360.000 5.477 C 360.001 5.479 367.212 25.672 367.213 25.674 C 367.212 25.673 360.001 18.964 360.000 18.963 C 359.999 18.964 352.788 25.673 352.787 25.674 C 352.788 25.672 359.999 5.479 360.000 5.477 Z"/>
<path fill="#00ff00" fill-rule="evenodd" stroke="none" d="M 38.396 520.909 C 38.398 520.908 57.398 514.014 57.400 514.013 C 57.399 514.014 51.108 520.844 51.108 520.845 C 51.108 520.846 57.468 527.611 57.468 527.612 C 57.466 527.611 38.398 520.910 38.396 520.909 Z"/>
<path fill="#00ff00" fill-rule="evenodd" stroke="none" d="M 681.604 520.909 C 681.602 520.908 662.602 514.014 662.600 514.013 C 662.601 514.014 668.892 520.844 668.892 520.845 C 668.892 520.846 662.533 527.611 662.532 527.612 C 662.534 527.611 681.602 520.910 681.604 520.909 Z"/>
<path fill="#00ffff" fill-rule="evenodd" stroke="none" d="M 580.393 262.448 C 580.393 262.450 573.848 280.929 573.847 280.931 C 573.847 280.930 572.608 272.010 572.608 272.009 C 572.607 272.009 563.621 272.602 563.620 272.602 C 563.622 272.601 580.392 262.449 580.393 262.448 Z"/>
<path fill="#00ffff" fill-rule="evenodd" stroke="none" d="M 139.718 263.061 C 139.719 263.062 147.481 281.064 147.482 281.065 C 147.482 281.065 148.123 272.081 148.124 272.081 C 148.124 272.081 157.130 272.074 157.131 272.074 C 157.129 272.073 139.720 263.061 139.718 263.061 Z"/>
</g>
</g>
</svg>
