<?xml version="1.0" encoding="utf-8"?>
<!-- Generator: Moho 12.5 build 22414 -->
<!DOCTYPE svg PUBLIC "-//W3C//DTD SVG 1.1//EN" "http://www.w3.org/Graphics/SVG/1.1/DTD/svg11.dtd">
<svg version="1.1" id="Frame_0" xmlns="http://www.w3.org/2000/svg" xmlns:xlink="http://www.w3.org/1999/xlink" width="720px" height="720px">
<g id="circle_spiral">
<g id="cloud_spiral_root">
<path fill="#ffffff" fill-rule="evenodd" stroke="none" d="M 360.000 596.177 C 500.811 596.177 614.404 482.584 614.404 341.774 C 614.404 200.963 500.811 87.370 360.000 87.370 C 219.189 87.370 105.596 200.963 105.596 341.774 C 105.596 482.584 219.189 596.177 360.000 596.177 Z"/>
<path fill="none" stroke="#000000" stroke-width="4" stroke-linecap="round" stroke-linejoin="round" d="M 604.098 371.149 C 602.507 412.416 597.237 433.275 575.983 476.189 M 530.256 180.457 C 583.769 228.655 607.192 290.877 604.098 371.149 M 212.437 216.472 C 280.858 106.327 437.914 97.287 530.256 180.457 M 208.196 406.565 C 175.078 346.560 176.784 273.866 212.437 216.472 M 437.019 451.501 C 365.701 513.810 255.178 491.691 208.196 406.565 M 479.177 353.518 C 480.210 390.509 464.892 427.148 437.019 451.501 M 383.232 252.404 C 437.329 252.139 477.731 301.781 479.177 353.518 M 315.724 293.646 C 329.002 268.221 355.037 252.543 383.232 252.404 M 324.498 355.831 C 305.359 339.494 306.332 311.630 315.724 293.646 M 347.839 363.173 C 337.678 362.940 332.207 362.412 324.498 355.831 M 366.134 334.409 C 377.849 347.389 363.196 363.525 347.839 363.173 M 354.460 336.520 C 354.806 332.878 362.306 330.168 366.134 334.409 M 105.596 341.774 C 105.596 482.584 219.189 596.177 360.000 596.177 C 500.811 596.177 614.404 482.584 614.404 341.774 C 614.404 200.963 500.811 87.370 360.000 87.370 C 219.189 87.370 105.596 200.963 105.596 341.774 "/>
</g>
<g id="specs_2">
<path fill="#ff00ff" fill-rule="evenodd" stroke="none" d="M 265.752 436.022 C 265.771 436.022 454.229 436.022 454.248 436.022 C 454.248 436.003 454.248 247.544 454.248 247.525 C 454.229 247.525 265.771 247.525 265.752 247.525 C 265.752 247.544 265.752 436.003 265.752 436.022 Z"/>
<path fill="#ff0000" fill-rule="evenodd" stroke="none" d="M 360.000 669.507 C 360.001 669.511 371.811 702.578 371.812 702.581 C 371.811 702.580 360.001 691.592 360.000 691.591 C 359.999 691.592 348.189 702.580 348.188 702.581 C 348.189 702.578 359.999 669.511 360.000 669.507 Z"/>
<path fill="#0000ff" fill-rule="evenodd" stroke="none" d="M 360.000 54.999 C 360.001 55.000 366.189 72.328 366.189 72.330 C 366.189 72.329 360.001 66.571 360.000 66.571 C 359.999 66.571 353.811 72.329 353.811 72.330 C 353.811 72.328 359.999 55.000 360.000 54.999 Z"/>
<path fill="#00ff00" fill-rule="evenodd" stroke="none" d="M 67.237 345.866 C 67.238 345.865 84.534 339.589 84.536 339.588 C 84.536 339.589 78.809 345.807 78.809 345.807 C 78.809 345.808 84.598 351.967 84.599 351.967 C 84.597 351.967 67.238 345.866 67.237 345.866 Z"/>
<path fill="#ffff00" fill-rule="evenodd" stroke="none" d="M 152.344 553.691 C 152.345 553.690 160.024 536.970 160.025 536.968 C 160.025 536.969 160.429 545.412 160.429 545.413 C 160.430 545.413 168.880 545.618 168.881 545.618 C 168.879 545.618 152.346 553.691 152.344 553.691 Z"/>
<path fill="#ffff00" fill-rule="evenodd" stroke="none" d="M 567.656 553.487 C 567.655 553.485 559.642 536.922 559.641 536.920 C 559.641 536.921 559.407 545.371 559.407 545.372 C 559.406 545.372 550.961 545.746 550.960 545.746 C 550.962 545.747 567.654 553.486 567.656 553.487 Z"/>
<path fill="#00ff00" fill-rule="evenodd" stroke="none" d="M 652.763 345.866 C 652.762 345.865 635.466 339.589 635.464 339.588 C 635.464 339.589 641.191 345.807 641.191 345.807 C 641.191 345.808 635.402 351.967 635.401 351.967 C 635.403 351.967 652.762 345.866 652.763 345.866 Z"/>
<path fill="#00ffff" fill-rule="evenodd" stroke="none" d="M 566.854 137.361 C 566.853 137.363 560.711 154.707 560.710 154.708 C 560.710 154.708 559.547 146.335 559.547 146.334 C 559.546 146.334 551.112 146.891 551.111 146.891 C 551.112 146.890 566.852 137.362 566.854 137.361 Z"/>
<path fill="#00ffff" fill-rule="evenodd" stroke="none" d="M 153.242 137.936 C 153.243 137.938 160.528 154.833 160.529 154.835 C 160.529 154.834 161.131 146.403 161.131 146.402 C 161.132 146.402 169.584 146.395 169.585 146.395 C 169.584 146.395 153.244 137.937 153.242 137.936 Z"/>
<path fill="#be0027" fill-rule="evenodd" stroke="none" d="M 360.000 636.761 C 360.001 636.758 370.654 606.928 370.655 606.925 C 370.654 606.926 360.001 616.839 360.000 616.840 C 359.999 616.839 349.346 606.926 349.345 606.925 C 349.346 606.928 359.999 636.758 360.000 636.761 Z"/>
</g>
</g>
</svg>
