<?xml version="1.0" encoding="utf-8"?>
<!-- Generator: Moho 12.5 build 22414 -->
<!DOCTYPE svg PUBLIC "-//W3C//DTD SVG 1.1//EN" "http://www.w3.org/Graphics/SVG/1.1/DTD/svg11.dtd">
<svg version="1.1" id="Frame_0" xmlns="http://www.w3.org/2000/svg" xmlns:xlink="http://www.w3.org/1999/xlink" width="720px" height="720px">
<g id="circles_concentric">
<g id="circles_concentric">
<path fill="none" stroke="#ffffff" stroke-width="4" stroke-linecap="round" stroke-linejoin="round" d="M 84.564 360.000 C 84.564 512.452 207.548 635.436 360.000 635.436 C 512.452 635.436 635.436 512.452 635.436 360.000 C 635.436 207.548 512.452 84.564 360.000 84.564 C 207.548 84.564 84.564 207.548 84.564 360.000 M 102.926 360.000 C 102.926 502.289 217.711 617.074 360.000 617.074 C 502.289 617.074 617.074 502.289 617.074 360.000 C 617.074 217.711 502.289 102.926 360.000 102.926 C 217.711 102.926 102.926 217.711 102.926 360.000 M 121.289 360.000 C 121.289 492.125 227.875 598.711 360.000 598.711 C 492.125 598.711 598.711 492.125 598.711 360.000 C 598.711 227.875 492.125 121.289 360.000 121.289 C 227.875 121.289 121.289 227.875 121.289 360.000 M 139.651 360.000 C 139.651 481.962 238.038 580.349 360.000 580.349 C 481.962 580.349 580.349 481.962 580.349 360.000 C 580.349 238.038 481.962 139.651 360.000 139.651 C 238.038 139.651 139.651 238.038 139.651 360.000 M 158.014 360.000 C 158.014 471.798 248.202 561.986 360.000 561.986 C 471.798 561.986 561.986 471.798 561.986 360.000 C 561.986 248.202 471.798 158.014 360.000 158.014 C 248.202 158.014 158.014 248.202 158.014 360.000 M 176.376 360.000 C 176.376 461.635 258.365 543.624 360.000 543.624 C 461.635 543.624 543.624 461.635 543.624 360.000 C 543.624 258.365 461.635 176.376 360.000 176.376 C 258.365 176.376 176.376 258.365 176.376 360.000 M 194.738 360.000 C 194.738 451.471 268.529 525.262 360.000 525.262 C 451.471 525.262 525.262 451.471 525.262 360.000 C 525.262 268.529 451.471 194.738 360.000 194.738 C 268.529 194.738 194.738 268.529 194.738 360.000 M 213.101 360.000 C 213.101 441.308 278.692 506.899 360.000 506.899 C 441.308 506.899 506.899 441.308 506.899 360.000 C 506.899 278.692 441.308 213.101 360.000 213.101 C 278.692 213.101 213.101 278.692 213.101 360.000 M 231.463 360.000 C 231.463 431.144 288.856 488.537 360.000 488.537 C 431.144 488.537 488.537 431.144 488.537 360.000 C 488.537 288.856 431.144 231.463 360.000 231.463 C 288.856 231.463 231.463 288.856 231.463 360.000 M 249.826 360.000 C 249.826 420.981 299.019 470.174 360.000 470.174 C 420.981 470.174 470.174 420.981 470.174 360.000 C 470.174 299.019 420.981 249.826 360.000 249.826 C 299.019 249.826 249.826 299.019 249.826 360.000 M 268.188 360.000 C 268.188 410.817 309.183 451.812 360.000 451.812 C 410.817 451.812 451.812 410.817 451.812 360.000 C 451.812 309.183 410.817 268.188 360.000 268.188 C 309.183 268.188 268.188 309.183 268.188 360.000 M 286.550 360.000 C 286.550 400.654 319.346 433.450 360.000 433.450 C 400.654 433.450 433.450 400.654 433.450 360.000 C 433.450 319.346 400.654 286.550 360.000 286.550 C 319.346 286.550 286.550 319.346 286.550 360.000 M 304.913 360.000 C 304.913 390.490 329.510 415.087 360.000 415.087 C 390.490 415.087 415.087 390.490 415.087 360.000 C 415.087 329.510 390.490 304.913 360.000 304.913 C 329.510 304.913 304.913 329.510 304.913 360.000 M 323.275 360.000 C 323.275 380.327 339.673 396.725 360.000 396.725 C 380.327 396.725 396.725 380.327 396.725 360.000 C 396.725 339.673 380.327 323.275 360.000 323.275 C 339.673 323.275 323.275 339.673 323.275 360.000 M 341.638 360.000 C 341.638 370.163 349.837 378.362 360.000 378.362 C 370.163 378.362 378.362 370.163 378.362 360.000 C 378.362 349.837 370.163 341.638 360.000 341.638 C 349.837 341.638 341.638 349.837 341.638 360.000 "/>
</g>
<g id="specs_2">
<path fill="#ff00ff" fill-rule="evenodd" stroke="none" d="M 269.031 450.969 C 269.050 450.969 450.950 450.969 450.969 450.969 C 450.969 450.950 450.969 269.050 450.969 269.031 C 450.950 269.031 269.050 269.031 269.031 269.031 C 269.031 269.050 269.031 450.950 269.031 450.969 Z"/>
<path fill="#ff0000" fill-rule="evenodd" stroke="none" d="M 360.000 336.359 C 360.001 336.362 371.400 368.279 371.401 368.282 C 371.400 368.281 360.001 357.675 360.000 357.674 C 359.999 357.675 348.600 368.281 348.599 368.282 C 348.600 368.279 359.999 336.362 360.000 336.359 Z"/>
<path fill="#0000ff" fill-rule="evenodd" stroke="none" d="M 360.000 49.755 C 360.001 49.757 366.622 68.297 366.622 68.299 C 366.622 68.298 360.001 62.138 360.000 62.137 C 359.999 62.138 353.378 68.298 353.378 68.299 C 353.378 68.297 359.999 49.757 360.000 49.755 Z"/>
<path fill="#00ff00" fill-rule="evenodd" stroke="none" d="M 46.758 360.920 C 46.760 360.920 65.266 354.204 65.268 354.204 C 65.267 354.204 59.140 360.857 59.139 360.858 C 59.140 360.858 65.334 367.448 65.334 367.449 C 65.332 367.448 46.760 360.921 46.758 360.920 Z"/>
<path fill="#ffff00" fill-rule="evenodd" stroke="none" d="M 137.818 583.283 C 137.819 583.281 146.036 565.392 146.036 565.390 C 146.037 565.391 146.469 574.425 146.469 574.426 C 146.470 574.426 155.511 574.645 155.512 574.645 C 155.510 574.646 137.820 583.282 137.818 583.283 Z"/>
<path fill="#ffff00" fill-rule="evenodd" stroke="none" d="M 582.182 583.064 C 582.181 583.062 573.607 565.341 573.606 565.339 C 573.606 565.340 573.355 574.381 573.355 574.382 C 573.354 574.382 564.319 574.782 564.318 574.782 C 564.320 574.783 582.180 583.063 582.182 583.064 Z"/>
<path fill="#00ff00" fill-rule="evenodd" stroke="none" d="M 673.242 360.920 C 673.240 360.920 654.734 354.204 654.733 354.204 C 654.733 354.204 660.860 360.857 660.861 360.858 C 660.860 360.858 654.666 367.448 654.666 367.449 C 654.668 367.448 673.240 360.921 673.242 360.920 Z"/>
<path fill="#00ffff" fill-rule="evenodd" stroke="none" d="M 581.323 137.831 C 581.322 137.832 574.750 156.390 574.750 156.391 C 574.749 156.391 573.505 147.432 573.505 147.432 C 573.504 147.432 564.480 148.027 564.479 148.028 C 564.481 148.027 581.321 137.832 581.323 137.831 Z"/>
<path fill="#00ffff" fill-rule="evenodd" stroke="none" d="M 138.779 138.446 C 138.780 138.447 146.575 156.525 146.576 156.527 C 146.576 156.526 147.220 147.505 147.220 147.504 C 147.221 147.504 156.265 147.497 156.266 147.497 C 156.264 147.496 138.781 138.447 138.779 138.446 Z"/>
<path fill="#be0027" fill-rule="evenodd" stroke="none" d="M 360.000 675.114 C 360.001 675.110 371.400 643.194 371.401 643.191 C 371.400 643.192 360.001 653.797 360.000 653.798 C 359.999 653.797 348.600 643.192 348.599 643.191 C 348.600 643.194 359.999 675.110 360.000 675.114 Z"/>
</g>
</g>
</svg>
