<?xml version="1.0" encoding="utf-8"?>
<!-- Generator: Moho 13.5 build 20210422 -->
<!DOCTYPE svg PUBLIC "-//W3C//DTD SVG 1.1//EN" "http://www.w3.org/Graphics/SVG/1.1/DTD/svg11.dtd">
<svg version="1.1" id="Frame_0" xmlns="http://www.w3.org/2000/svg" xmlns:xlink="http://www.w3.org/1999/xlink" width="720px" height="720px">
<g id="circle">
<g id="Circle">
<radialGradient id="8E02C545-A61C-4A1F-B3C0-8285B9A2D747_0" cx="50.00%" cy="50.00%" r="68.81%">
<stop offset="51.76%" style="stop-color:rgb(255,255,255);stop-opacity:1.00" />
<stop offset="100.00%" style="stop-color:rgb(0,0,0);stop-opacity:1.00" />
</radialGradient>
<path fill="url(#8E02C545-A61C-4A1F-B3C0-8285B9A2D747_0)" fill-rule="evenodd" stroke="#000000" stroke-width="4" stroke-linecap="round" stroke-linejoin="round" d="M 360.000 17.588 C 538.126 17.588 681.822 161.283 681.822 339.409 C 681.822 517.536 538.126 661.231 360.000 661.231 C 181.874 661.231 38.178 517.536 38.178 339.409 C 38.178 161.283 181.874 17.588 360.000 17.588 Z"/>
</g>
<g id="specs">
<path fill="#ff00ff" fill-rule="evenodd" stroke="none" d="M 144.210 555.200 C 144.253 555.200 575.747 555.200 575.790 555.200 C 575.790 555.156 575.790 123.662 575.790 123.619 C 575.747 123.619 144.253 123.619 144.210 123.619 C 144.210 123.662 144.210 555.156 144.210 555.200 Z"/>
<path fill="#ff0000" fill-rule="evenodd" stroke="none" d="M 360.000 679.153 C 360.001 679.156 372.114 713.074 372.116 713.077 C 372.114 713.076 360.001 701.805 360.000 701.804 C 359.999 701.805 347.886 713.076 347.884 713.077 C 347.886 713.074 359.999 679.156 360.000 679.153 Z"/>
<path fill="#0000ff" fill-rule="evenodd" stroke="none" d="M 360.000 5.914 C 360.001 5.916 367.037 25.618 367.038 25.620 C 367.037 25.620 360.001 19.073 360.000 19.072 C 359.999 19.073 352.963 25.620 352.962 25.620 C 352.963 25.618 359.999 5.916 360.000 5.914 Z"/>
<path fill="#00ff00" fill-rule="evenodd" stroke="none" d="M 27.115 340.387 C 27.117 340.387 46.783 333.250 46.785 333.250 C 46.784 333.250 40.273 340.320 40.272 340.321 C 40.273 340.322 46.855 347.324 46.856 347.325 C 46.854 347.324 27.117 340.388 27.115 340.387 Z"/>
<path fill="#ffff00" fill-rule="evenodd" stroke="none" d="M 123.902 575.801 C 123.903 575.799 132.634 556.788 132.635 556.786 C 132.635 556.787 133.095 566.387 133.095 566.388 C 133.096 566.388 142.704 566.621 142.705 566.621 C 142.703 566.622 123.904 575.800 123.902 575.801 Z"/>
<path fill="#ffff00" fill-rule="evenodd" stroke="none" d="M 596.119 575.712 C 596.118 575.710 587.006 556.877 587.006 556.875 C 587.006 556.876 586.738 566.484 586.738 566.484 C 586.737 566.485 577.136 566.910 577.135 566.910 C 577.137 566.911 596.117 575.711 596.119 575.712 Z"/>
<path fill="#00ff00" fill-rule="evenodd" stroke="none" d="M 692.885 340.387 C 692.883 340.387 673.217 333.250 673.215 333.250 C 673.216 333.250 679.727 340.320 679.728 340.321 C 679.727 340.322 673.145 347.324 673.144 347.325 C 673.146 347.324 692.883 340.388 692.885 340.387 Z"/>
<path fill="#00ffff" fill-rule="evenodd" stroke="none" d="M 595.190 100.661 C 595.190 100.663 588.205 120.384 588.205 120.386 C 588.205 120.385 586.882 110.865 586.882 110.864 C 586.881 110.864 577.291 111.497 577.290 111.497 C 577.292 111.496 595.189 100.662 595.190 100.661 Z"/>
<path fill="#00ffff" fill-rule="evenodd" stroke="none" d="M 124.890 100.915 C 124.891 100.917 133.174 120.129 133.175 120.131 C 133.175 120.130 133.860 110.543 133.860 110.542 C 133.861 110.542 143.472 110.534 143.473 110.534 C 143.471 110.533 124.892 100.916 124.890 100.915 Z"/>
<path fill="#be0027" fill-rule="evenodd" stroke="none" d="M 359.959 674.808 C 359.959 674.805 368.773 650.128 368.774 650.126 C 368.773 650.126 359.959 658.326 359.959 658.327 C 359.958 658.326 351.144 650.126 351.144 650.126 C 351.144 650.128 359.958 674.805 359.959 674.808 Z"/>
</g>
</g>
</svg>
