<?xml version="1.0" encoding="utf-8"?>
<!-- Generator: Moho 12.5 build 22414 -->
<!DOCTYPE svg PUBLIC "-//W3C//DTD SVG 1.1//EN" "http://www.w3.org/Graphics/SVG/1.1/DTD/svg11.dtd">
<svg version="1.1" id="Frame_0" xmlns="http://www.w3.org/2000/svg" xmlns:xlink="http://www.w3.org/1999/xlink" width="720px" height="720px">
<g id="circles_concentric">
<g id="circles_concentric">
<path fill="none" stroke="#000000" stroke-width="4" stroke-linecap="round" stroke-linejoin="round" d="M 81.665 360.000 C 81.665 514.056 205.944 638.335 360.000 638.335 C 514.056 638.335 638.335 514.056 638.335 360.000 C 638.335 205.944 514.056 81.665 360.000 81.665 C 205.944 81.665 81.665 205.944 81.665 360.000 M 103.075 360.000 C 103.075 502.206 217.794 616.925 360.000 616.925 C 502.206 616.925 616.925 502.206 616.925 360.000 C 616.925 217.794 502.206 103.075 360.000 103.075 C 217.794 103.075 103.075 217.794 103.075 360.000 M 124.486 360.000 C 124.486 490.356 229.645 595.514 360.000 595.514 C 490.356 595.514 595.514 490.356 595.514 360.000 C 595.514 229.645 490.356 124.486 360.000 124.486 C 229.645 124.486 124.486 229.645 124.486 360.000 M 145.896 360.000 C 145.896 478.505 241.495 574.104 360.000 574.104 C 478.505 574.104 574.104 478.505 574.104 360.000 C 574.104 241.495 478.505 145.896 360.000 145.896 C 241.495 145.896 145.896 241.495 145.896 360.000 M 167.307 360.000 C 167.307 466.655 253.345 552.693 360.000 552.693 C 466.655 552.693 552.693 466.655 552.693 360.000 C 552.693 253.345 466.655 167.307 360.000 167.307 C 253.345 167.307 167.307 253.345 167.307 360.000 M 188.717 360.000 C 188.717 454.804 265.196 531.283 360.000 531.283 C 454.804 531.283 531.283 454.804 531.283 360.000 C 531.283 265.196 454.804 188.717 360.000 188.717 C 265.196 188.717 188.717 265.196 188.717 360.000 M 210.127 360.000 C 210.127 442.954 277.046 509.873 360.000 509.873 C 442.954 509.873 509.873 442.954 509.873 360.000 C 509.873 277.046 442.954 210.127 360.000 210.127 C 277.046 210.127 210.127 277.046 210.127 360.000 M 231.538 360.000 C 231.538 431.103 288.897 488.462 360.000 488.462 C 431.103 488.462 488.462 431.103 488.462 360.000 C 488.462 288.897 431.103 231.538 360.000 231.538 C 288.897 231.538 231.538 288.897 231.538 360.000 M 252.948 360.000 C 252.948 419.253 300.747 467.052 360.000 467.052 C 419.253 467.052 467.052 419.253 467.052 360.000 C 467.052 300.747 419.253 252.948 360.000 252.948 C 300.747 252.948 252.948 300.747 252.948 360.000 M 274.359 360.000 C 274.359 407.402 312.598 445.641 360.000 445.641 C 407.402 445.641 445.641 407.402 445.641 360.000 C 445.641 312.598 407.402 274.359 360.000 274.359 C 312.598 274.359 274.359 312.598 274.359 360.000 M 295.769 360.000 C 295.769 395.552 324.448 424.231 360.000 424.231 C 395.552 424.231 424.231 395.552 424.231 360.000 C 424.231 324.448 395.552 295.769 360.000 295.769 C 324.448 295.769 295.769 324.448 295.769 360.000 M 317.179 360.000 C 317.179 383.701 336.299 402.821 360.000 402.821 C 383.701 402.821 402.821 383.701 402.821 360.000 C 402.821 336.299 383.701 317.179 360.000 317.179 C 336.299 317.179 317.179 336.299 317.179 360.000 M 338.589 360.000 C 338.589 371.851 348.149 381.411 360.000 381.411 C 371.851 381.411 381.411 371.851 381.411 360.000 C 381.411 348.149 371.851 338.589 360.000 338.589 C 348.149 338.589 338.589 348.149 338.589 360.000 "/>
</g>
<g id="circles_concentric_2">
<path fill="none" stroke="#ffffff" stroke-width="4" stroke-linecap="round" stroke-linejoin="round" d="M 85.800 360.000 C 85.800 511.768 208.232 634.200 360.000 634.200 C 511.768 634.200 634.200 511.768 634.200 360.000 C 634.200 208.232 511.768 85.800 360.000 85.800 C 208.232 85.800 85.800 208.232 85.800 360.000 M 106.892 360.000 C 106.892 500.093 219.907 613.108 360.000 613.108 C 500.093 613.108 613.108 500.093 613.108 360.000 C 613.108 219.907 500.093 106.892 360.000 106.892 C 219.907 106.892 106.892 219.907 106.892 360.000 M 127.985 360.000 C 127.985 488.419 231.581 592.015 360.000 592.015 C 488.419 592.015 592.015 488.419 592.015 360.000 C 592.015 231.581 488.419 127.985 360.000 127.985 C 231.581 127.985 127.985 231.581 127.985 360.000 M 149.077 360.000 C 149.077 476.745 243.256 570.923 360.000 570.923 C 476.745 570.923 570.923 476.745 570.923 360.000 C 570.923 243.256 476.745 149.077 360.000 149.077 C 243.256 149.077 149.077 243.256 149.077 360.000 M 170.169 360.000 C 170.169 465.070 254.930 549.831 360.000 549.831 C 465.070 549.831 549.831 465.070 549.831 360.000 C 549.831 254.930 465.070 170.169 360.000 170.169 C 254.930 170.169 170.169 254.930 170.169 360.000 M 191.262 360.000 C 191.262 453.395 266.605 528.738 360.000 528.738 C 453.395 528.738 528.738 453.395 528.738 360.000 C 528.738 266.605 453.395 191.262 360.000 191.262 C 266.605 191.262 191.262 266.605 191.262 360.000 M 212.354 360.000 C 212.354 441.721 278.279 507.646 360.000 507.646 C 441.721 507.646 507.646 441.721 507.646 360.000 C 507.646 278.279 441.721 212.354 360.000 212.354 C 278.279 212.354 212.354 278.279 212.354 360.000 M 233.446 360.000 C 233.446 430.047 289.953 486.554 360.000 486.554 C 430.047 486.554 486.554 430.047 486.554 360.000 C 486.554 289.953 430.047 233.446 360.000 233.446 C 289.953 233.446 233.446 289.953 233.446 360.000 M 254.538 360.000 C 254.538 418.372 301.628 465.462 360.000 465.462 C 418.372 465.462 465.462 418.372 465.462 360.000 C 465.462 301.628 418.372 254.538 360.000 254.538 C 301.628 254.538 254.538 301.628 254.538 360.000 M 275.631 360.000 C 275.631 406.698 313.302 444.369 360.000 444.369 C 406.698 444.369 444.369 406.698 444.369 360.000 C 444.369 313.302 406.698 275.631 360.000 275.631 C 313.302 275.631 275.631 313.302 275.631 360.000 M 296.723 360.000 C 296.723 395.023 324.977 423.277 360.000 423.277 C 395.023 423.277 423.277 395.023 423.277 360.000 C 423.277 324.977 395.023 296.723 360.000 296.723 C 324.977 296.723 296.723 324.977 296.723 360.000 M 317.815 360.000 C 317.815 383.349 336.651 402.185 360.000 402.185 C 383.349 402.185 402.185 383.349 402.185 360.000 C 402.185 336.651 383.349 317.815 360.000 317.815 C 336.651 317.815 317.815 336.651 317.815 360.000 M 338.908 360.000 C 338.908 371.675 348.325 381.092 360.000 381.092 C 371.675 381.092 381.092 371.675 381.092 360.000 C 381.092 348.325 371.675 338.908 360.000 338.908 C 348.325 338.908 338.908 348.325 338.908 360.000 "/>
</g>
<g id="specs_2">
<path fill="#ff00ff" fill-rule="evenodd" stroke="none" d="M 242.319 478.167 C 242.343 478.167 477.657 478.167 477.681 478.167 C 477.681 478.143 477.681 242.829 477.681 242.805 C 477.657 242.805 242.343 242.805 242.319 242.805 C 242.319 242.829 242.319 478.143 242.319 478.167 Z"/>
<path fill="#ff0000" fill-rule="evenodd" stroke="none" d="M 360.000 338.049 C 360.001 338.052 370.819 368.343 370.820 368.346 C 370.819 368.345 360.001 358.280 360.000 358.279 C 359.999 358.280 349.181 368.345 349.180 368.346 C 349.181 368.343 359.999 338.052 360.000 338.049 Z"/>
<path fill="#0000ff" fill-rule="evenodd" stroke="none" d="M 360.000 66.045 C 360.001 66.047 366.284 83.642 366.285 83.644 C 366.284 83.643 360.001 77.797 360.000 77.796 C 359.999 77.797 353.716 83.643 353.715 83.644 C 353.716 83.642 359.999 66.047 360.000 66.045 Z"/>
<path fill="#00ff00" fill-rule="evenodd" stroke="none" d="M 62.715 361.359 C 62.716 361.359 80.280 354.985 80.281 354.985 C 80.281 354.985 74.466 361.299 74.465 361.300 C 74.466 361.301 80.344 367.555 80.345 367.555 C 80.343 367.555 62.716 361.360 62.715 361.359 Z"/>
<path fill="#ffff00" fill-rule="evenodd" stroke="none" d="M 149.136 572.395 C 149.137 572.393 156.935 555.415 156.936 555.413 C 156.936 555.414 157.346 563.988 157.347 563.989 C 157.347 563.989 165.928 564.196 165.929 564.197 C 165.927 564.197 149.138 572.394 149.136 572.395 Z"/>
<path fill="#ffff00" fill-rule="evenodd" stroke="none" d="M 570.864 572.187 C 570.863 572.185 562.726 555.367 562.725 555.365 C 562.725 555.366 562.487 563.946 562.487 563.947 C 562.486 563.947 553.911 564.327 553.910 564.327 C 553.911 564.328 570.862 572.186 570.864 572.187 Z"/>
<path fill="#00ff00" fill-rule="evenodd" stroke="none" d="M 657.285 361.359 C 657.284 361.359 639.720 354.985 639.719 354.985 C 639.719 354.985 645.534 361.299 645.535 361.300 C 645.534 361.301 639.656 367.555 639.655 367.555 C 639.657 367.555 657.284 361.360 657.285 361.359 Z"/>
<path fill="#00ffff" fill-rule="evenodd" stroke="none" d="M 570.049 149.634 C 570.048 149.636 563.811 167.248 563.810 167.249 C 563.810 167.248 562.629 158.747 562.629 158.746 C 562.628 158.746 554.063 159.311 554.063 159.311 C 554.064 159.310 570.047 149.635 570.049 149.634 Z"/>
<path fill="#00ffff" fill-rule="evenodd" stroke="none" d="M 150.049 150.218 C 150.049 150.219 157.447 167.376 157.448 167.378 C 157.448 167.377 158.059 158.815 158.060 158.815 C 158.060 158.815 166.643 158.808 166.644 158.808 C 166.643 158.807 150.050 150.219 150.049 150.218 Z"/>
<path fill="#be0027" fill-rule="evenodd" stroke="none" d="M 360.000 659.547 C 360.001 659.544 370.819 629.254 370.820 629.251 C 370.819 629.252 360.001 639.317 360.000 639.318 C 359.999 639.317 349.181 629.252 349.180 629.251 C 349.181 629.254 359.999 659.544 360.000 659.547 Z"/>
</g>
</g>
</svg>
