<?xml version="1.0" encoding="utf-8"?>
<!-- Generator: Moho 13.5 build 20210422 -->
<!DOCTYPE svg PUBLIC "-//W3C//DTD SVG 1.1//EN" "http://www.w3.org/Graphics/SVG/1.1/DTD/svg11.dtd">
<svg version="1.1" id="Frame_0" xmlns="http://www.w3.org/2000/svg" xmlns:xlink="http://www.w3.org/1999/xlink" width="720px" height="720px">
<g id="circle_spiral">
<g id="cloud_spiral_root">
<radialGradient id="4FEEBBB3-33A9-4473-9C80-C31EBD03A545_0" cx="50.00%" cy="50.00%" r="50.00%">
<stop offset="24.31%" style="stop-color:rgb(22,22,22);stop-opacity:1.00" />
<stop offset="96.08%" style="stop-color:rgb(255,255,255);stop-opacity:1.00" />
</radialGradient>
<path fill="url(#4FEEBBB3-33A9-4473-9C80-C31EBD03A545_0)" fill-rule="evenodd" stroke="none" d="M 360.000 596.472 C 500.986 596.472 614.721 482.737 614.721 341.751 C 614.721 200.765 500.986 87.030 360.000 87.030 C 219.014 87.030 105.279 200.765 105.279 341.751 C 105.279 482.737 219.014 596.472 360.000 596.472 Z"/>
<path fill="none" stroke="#000000" stroke-width="4" stroke-linecap="round" stroke-linejoin="round" d="M 604.402 371.163 C 602.809 412.482 597.532 433.366 576.252 476.334 M 530.468 180.233 C 584.048 228.491 607.500 290.791 604.402 371.163 M 212.253 216.293 C 280.760 106.011 438.011 96.960 530.468 180.233 M 208.007 406.623 C 174.848 346.544 176.555 273.758 212.253 216.293 M 437.115 451.615 C 365.708 514.002 255.048 491.855 208.007 406.623 M 479.325 353.509 C 480.360 390.547 465.022 427.232 437.115 451.615 M 383.261 252.270 C 437.425 252.004 477.877 301.708 479.325 353.509 M 315.669 293.563 C 328.963 268.106 355.031 252.409 383.261 252.270 M 324.454 355.826 C 305.291 339.468 306.266 311.569 315.669 293.563 M 347.824 363.177 C 337.650 362.944 332.173 362.415 324.454 355.826 M 366.141 334.377 C 377.871 347.373 363.200 363.529 347.824 363.177 M 354.453 336.490 C 354.799 332.844 362.308 330.130 366.141 334.377 M 105.279 341.751 C 105.279 482.737 219.014 596.472 360.000 596.472 C 500.986 596.472 614.721 482.737 614.721 341.751 C 614.721 200.765 500.986 87.030 360.000 87.030 C 219.014 87.030 105.279 200.765 105.279 341.751 "/>
</g>
<g id="specs_2">
<path fill="#ff00ff" fill-rule="evenodd" stroke="none" d="M 265.634 436.117 C 265.653 436.117 454.347 436.117 454.366 436.117 C 454.366 436.098 454.366 247.404 454.366 247.385 C 454.347 247.385 265.653 247.385 265.634 247.385 C 265.634 247.404 265.634 436.098 265.634 436.117 Z"/>
<path fill="#ff0000" fill-rule="evenodd" stroke="none" d="M 360.000 669.893 C 360.001 669.896 371.825 703.004 371.826 703.008 C 371.825 703.007 360.001 692.005 360.000 692.004 C 359.999 692.005 348.175 703.007 348.174 703.008 C 348.175 703.004 359.999 669.896 360.000 669.893 Z"/>
<path fill="#0000ff" fill-rule="evenodd" stroke="none" d="M 360.000 54.619 C 360.001 54.620 366.196 71.970 366.197 71.971 C 366.196 71.971 360.001 66.206 360.000 66.206 C 359.999 66.206 353.804 71.971 353.803 71.971 C 353.804 71.970 359.999 54.620 360.000 54.619 Z"/>
<path fill="#00ff00" fill-rule="evenodd" stroke="none" d="M 66.872 345.848 C 66.874 345.848 84.191 339.563 84.193 339.563 C 84.192 339.563 78.459 345.789 78.458 345.790 C 78.459 345.790 84.255 351.957 84.256 351.957 C 84.254 351.957 66.874 345.849 66.872 345.848 Z"/>
<path fill="#ffff00" fill-rule="evenodd" stroke="none" d="M 152.085 553.932 C 152.086 553.931 159.775 537.190 159.776 537.188 C 159.776 537.189 160.180 545.643 160.180 545.644 C 160.181 545.644 168.642 545.849 168.643 545.849 C 168.641 545.850 152.087 553.932 152.085 553.932 Z"/>
<path fill="#ffff00" fill-rule="evenodd" stroke="none" d="M 567.915 553.727 C 567.914 553.726 559.891 537.142 559.890 537.141 C 559.890 537.142 559.655 545.602 559.655 545.603 C 559.654 545.603 551.199 545.977 551.198 545.977 C 551.200 545.978 567.913 553.727 567.915 553.727 Z"/>
<path fill="#00ff00" fill-rule="evenodd" stroke="none" d="M 653.128 345.848 C 653.126 345.848 635.809 339.563 635.807 339.563 C 635.808 339.563 641.541 345.789 641.542 345.790 C 641.541 345.790 635.745 351.957 635.744 351.957 C 635.746 351.957 653.126 345.849 653.128 345.848 Z"/>
<path fill="#00ffff" fill-rule="evenodd" stroke="none" d="M 567.111 137.084 C 567.111 137.086 560.961 154.451 560.960 154.453 C 560.960 154.452 559.795 146.069 559.795 146.068 C 559.794 146.068 551.350 146.626 551.349 146.626 C 551.350 146.625 567.110 137.085 567.111 137.084 Z"/>
<path fill="#00ffff" fill-rule="evenodd" stroke="none" d="M 152.985 137.659 C 152.985 137.661 160.280 154.578 160.281 154.580 C 160.281 154.579 160.884 146.137 160.884 146.136 C 160.884 146.136 169.347 146.129 169.348 146.129 C 169.347 146.128 152.986 137.660 152.985 137.659 Z"/>
<path fill="#be0027" fill-rule="evenodd" stroke="none" d="M 360.000 637.106 C 360.001 637.103 370.668 607.236 370.669 607.233 C 370.668 607.234 360.001 617.158 360.000 617.159 C 359.999 617.158 349.332 607.234 349.331 607.233 C 349.332 607.236 359.999 637.103 360.000 637.106 Z"/>
</g>
</g>
</svg>
