<?xml version="1.0" encoding="utf-8"?>
<!-- Generator: Moho 12.5 build 22414 -->
<!DOCTYPE svg PUBLIC "-//W3C//DTD SVG 1.1//EN" "http://www.w3.org/Graphics/SVG/1.1/DTD/svg11.dtd">
<svg version="1.1" id="Frame_0" xmlns="http://www.w3.org/2000/svg" xmlns:xlink="http://www.w3.org/1999/xlink" width="720px" height="720px">
<g id="clock">
<g id="clock">
<path fill="#000000" fill-rule="evenodd" stroke="#ffffff" stroke-width="4" stroke-linecap="round" stroke-linejoin="round" d="M 360.000 510.628 C 493.765 510.628 601.675 402.718 601.675 268.953 C 601.675 135.187 493.765 27.278 360.000 27.278 C 226.235 27.278 118.325 135.187 118.325 268.953 C 118.325 402.718 226.235 510.628 360.000 510.628 Z"/>
<path fill="#ffffff" fill-rule="evenodd" stroke="none" d="M 360.000 492.300 C 483.621 492.300 583.347 392.574 583.347 268.953 C 583.347 145.332 483.621 45.606 360.000 45.606 C 236.379 45.606 136.653 145.332 136.653 268.953 C 136.653 392.574 236.379 492.300 360.000 492.300 Z"/>
<path fill="#ffffff" fill-rule="evenodd" stroke="none" d="M 360.000 473.815 C 473.390 473.815 564.862 382.343 564.862 268.953 C 564.862 155.563 473.390 64.090 360.000 64.090 C 246.610 64.090 155.138 155.563 155.138 268.953 C 155.138 382.343 246.610 473.815 360.000 473.815 Z"/>
<path fill="none" stroke="#000000" stroke-width="4" stroke-linecap="round" stroke-linejoin="round" d="M 197.369 362.848 C 202.297 360.003 207.225 357.157 212.153 354.312 M 522.631 175.058 C 517.703 177.903 512.775 180.748 507.847 183.593 M 266.105 431.584 C 268.950 426.656 271.795 421.728 274.641 416.800 M 453.895 106.321 C 451.050 111.250 448.205 116.178 445.359 121.106 M 522.631 362.848 C 517.703 360.003 512.775 357.157 507.847 354.312 M 197.369 175.058 C 202.297 177.903 207.225 180.748 212.153 183.593 M 453.895 431.584 C 451.050 426.656 448.205 421.728 445.359 416.800 M 266.105 106.321 C 268.950 111.250 271.795 116.178 274.641 121.106 M 172.210 268.953 C 177.900 268.953 183.591 268.953 189.282 268.953 M 547.790 268.953 C 542.100 268.953 536.409 268.953 530.719 268.953 M 360.000 456.743 C 360.000 451.053 360.000 445.362 360.000 439.671 M 360.000 81.162 C 360.000 86.853 360.000 92.544 360.000 98.234 M 155.138 268.953 C 155.138 382.343 246.610 473.815 360.000 473.815 C 473.390 473.815 564.862 382.343 564.862 268.953 C 564.862 155.563 473.390 64.090 360.000 64.090 C 246.610 64.090 155.138 155.563 155.138 268.953 "/>
<path fill="#000000" fill-rule="evenodd" stroke="none" d="M 239.659 137.260 C 239.672 137.273 370.494 269.672 370.507 269.686 C 370.506 269.687 357.845 281.134 357.843 281.135 C 357.832 281.120 239.671 137.274 239.659 137.260 Z"/>
<path fill="#000000" fill-rule="evenodd" stroke="none" d="M 265.579 350.722 C 265.589 350.714 370.461 271.311 370.471 271.303 C 370.470 271.301 359.245 258.443 359.244 258.442 C 359.234 258.451 265.588 350.713 265.579 350.722 Z"/>
<path fill="none" stroke="#000000" stroke-width="4" stroke-linecap="round" stroke-linejoin="round" d="M 136.653 268.953 C 136.653 392.574 236.379 492.300 360.000 492.300 C 483.621 492.300 583.347 392.574 583.347 268.953 C 583.347 145.332 483.621 45.606 360.000 45.606 C 236.379 45.606 136.653 145.332 136.653 268.953 "/>
<path fill="none" stroke="#000000" stroke-width="4" stroke-linecap="round" stroke-linejoin="round" d="M 118.325 268.953 C 118.325 402.718 226.235 510.628 360.000 510.628 C 493.765 510.628 601.675 402.718 601.675 268.953 C 601.675 135.187 493.765 27.278 360.000 27.278 C 226.235 27.278 118.325 135.187 118.325 268.953 "/>
</g>
<g id="specs_2">
<path fill="#ff00ff" fill-rule="evenodd" stroke="none" d="M 431.197 334.194 C 431.210 334.194 561.667 334.194 561.680 334.194 C 561.680 334.181 561.680 203.724 561.680 203.711 C 561.667 203.711 431.210 203.711 431.197 203.711 C 431.197 203.724 431.197 334.181 431.197 334.194 Z"/>
<path fill="#ff0000" fill-rule="evenodd" stroke="none" d="M 360.000 679.862 C 360.001 679.866 371.559 712.228 371.560 712.231 C 371.559 712.230 360.001 701.476 360.000 701.475 C 359.999 701.476 348.441 712.230 348.440 712.231 C 348.441 712.228 359.999 679.866 360.000 679.862 Z"/>
<path fill="#0000ff" fill-rule="evenodd" stroke="none" d="M 360.000 18.992 C 360.001 18.993 365.342 33.949 365.342 33.951 C 365.342 33.950 360.001 28.981 360.000 28.980 C 359.999 28.981 354.658 33.950 354.658 33.951 C 354.658 33.949 359.999 18.993 360.000 18.992 Z"/>
<path fill="#00ff00" fill-rule="evenodd" stroke="none" d="M 107.303 270.291 C 107.305 270.290 122.234 264.873 122.235 264.872 C 122.235 264.873 117.292 270.240 117.292 270.240 C 117.292 270.241 122.289 275.557 122.289 275.557 C 122.288 275.557 107.305 270.291 107.303 270.291 Z"/>
<path fill="#ffff00" fill-rule="evenodd" stroke="none" d="M 180.763 449.674 C 180.764 449.673 187.392 435.241 187.393 435.239 C 187.393 435.240 187.742 442.528 187.742 442.529 C 187.743 442.529 195.036 442.705 195.037 442.705 C 195.035 442.706 180.765 449.673 180.763 449.674 Z"/>
<path fill="#ffff00" fill-rule="evenodd" stroke="none" d="M 539.237 449.497 C 539.236 449.496 532.320 435.200 532.319 435.198 C 532.319 435.199 532.116 442.492 532.116 442.493 C 532.116 442.493 524.827 442.816 524.826 442.816 C 524.827 442.817 539.235 449.497 539.237 449.497 Z"/>
<path fill="#00ff00" fill-rule="evenodd" stroke="none" d="M 612.697 270.291 C 612.695 270.290 597.766 264.873 597.765 264.872 C 597.765 264.873 602.708 270.240 602.708 270.240 C 602.708 270.241 597.711 275.557 597.711 275.557 C 597.712 275.557 612.695 270.291 612.697 270.291 Z"/>
<path fill="#00ffff" fill-rule="evenodd" stroke="none" d="M 538.544 90.321 C 538.544 90.323 533.242 105.293 533.241 105.295 C 533.241 105.294 532.237 98.067 532.237 98.067 C 532.236 98.067 524.957 98.547 524.956 98.547 C 524.957 98.547 538.543 90.322 538.544 90.321 Z"/>
<path fill="#00ffff" fill-rule="evenodd" stroke="none" d="M 181.538 90.818 C 181.539 90.819 187.827 105.403 187.828 105.404 C 187.828 105.403 188.348 98.126 188.348 98.125 C 188.349 98.125 195.644 98.119 195.645 98.119 C 195.644 98.119 181.540 90.818 181.538 90.818 Z"/>
<path fill="#be0027" fill-rule="evenodd" stroke="none" d="M 360.000 527.603 C 360.001 527.600 369.196 501.853 369.197 501.850 C 369.196 501.851 360.001 510.407 360.000 510.408 C 359.999 510.407 350.804 501.851 350.803 501.850 C 350.804 501.853 359.999 527.600 360.000 527.603 Z"/>
<path fill="#ff00ff" fill-rule="evenodd" stroke="none" d="M 158.320 334.195 C 158.333 334.195 288.790 334.195 288.803 334.195 C 288.803 334.182 288.803 203.724 288.803 203.711 C 288.790 203.711 158.333 203.711 158.320 203.711 C 158.320 203.724 158.320 334.182 158.320 334.195 Z"/>
<path fill="#ff00ff" fill-rule="evenodd" stroke="none" d="M 294.758 340.150 C 294.758 340.163 294.758 470.620 294.758 470.633 C 294.771 470.633 425.229 470.633 425.242 470.633 C 425.242 470.620 425.242 340.163 425.242 340.150 C 425.229 340.150 294.771 340.150 294.758 340.150 Z"/>
<path fill="#ff00ff" fill-rule="evenodd" stroke="none" d="M 294.758 67.272 C 294.758 67.285 294.758 197.743 294.758 197.756 C 294.771 197.756 425.229 197.756 425.242 197.756 C 425.242 197.743 425.242 67.285 425.242 67.272 C 425.229 67.272 294.771 67.272 294.758 67.272 Z"/>
</g>
</g>
</svg>
