<?xml version="1.0" encoding="utf-8"?>
<!-- Generator: Moho 12.5 build 22414 -->
<!DOCTYPE svg PUBLIC "-//W3C//DTD SVG 1.1//EN" "http://www.w3.org/Graphics/SVG/1.1/DTD/svg11.dtd">
<svg version="1.1" id="Frame_0" xmlns="http://www.w3.org/2000/svg" xmlns:xlink="http://www.w3.org/1999/xlink" width="720px" height="720px">
<g id="clock">
<g id="clock">
<path fill="#ffffff" fill-rule="evenodd" stroke="none" d="M 360.000 522.759 C 492.361 522.759 599.138 415.982 599.138 283.621 C 599.138 151.259 492.361 44.483 360.000 44.483 C 227.639 44.483 120.862 151.259 120.862 283.621 C 120.862 415.982 227.639 522.759 360.000 522.759 Z"/>
<path fill="#ffffff" fill-rule="evenodd" stroke="none" d="M 360.000 502.967 C 481.407 502.967 579.347 405.028 579.347 283.621 C 579.347 162.214 481.407 64.274 360.000 64.274 C 238.593 64.274 140.653 162.214 140.653 283.621 C 140.653 405.028 238.593 502.967 360.000 502.967 Z"/>
<path fill="none" stroke="#000000" stroke-width="4" stroke-linecap="round" stroke-linejoin="round" d="M 185.870 384.154 C 191.147 381.108 196.423 378.062 201.700 375.015 M 534.130 183.087 C 528.853 186.133 523.577 189.180 518.300 192.226 M 259.466 457.750 C 262.513 452.474 265.559 447.197 268.606 441.921 M 460.534 109.491 C 457.487 114.768 454.441 120.044 451.394 125.321 M 534.130 384.154 C 528.853 381.108 523.577 378.062 518.300 375.015 M 185.870 183.087 C 191.147 186.133 196.423 189.180 201.700 192.226 M 460.534 457.750 C 457.487 452.474 454.441 447.197 451.394 441.921 M 259.466 109.491 C 262.513 114.768 265.559 120.044 268.606 125.321 M 158.932 283.621 C 165.025 283.621 171.118 283.621 177.211 283.621 M 561.068 283.621 C 554.975 283.621 548.882 283.621 542.789 283.621 M 360.000 484.688 C 360.000 478.595 360.000 472.503 360.000 466.410 M 360.000 82.553 C 360.000 88.646 360.000 94.739 360.000 100.832 M 140.653 283.621 C 140.653 405.028 238.593 502.967 360.000 502.967 C 481.407 502.967 579.347 405.028 579.347 283.621 C 579.347 162.214 481.407 64.274 360.000 64.274 C 238.593 64.274 140.653 162.214 140.653 283.621 "/>
<path fill="#000000" fill-rule="evenodd" stroke="none" d="M 231.150 142.617 C 231.164 142.631 371.236 284.391 371.250 284.405 C 371.249 284.407 357.692 296.663 357.691 296.664 C 357.678 296.648 231.163 142.632 231.150 142.617 Z"/>
<path fill="#000000" fill-rule="evenodd" stroke="none" d="M 258.903 371.171 C 258.914 371.163 371.200 286.145 371.211 286.137 C 371.210 286.135 359.192 272.368 359.190 272.367 C 359.180 272.377 258.913 371.161 258.903 371.171 Z"/>
<path fill="none" stroke="#000000" stroke-width="4" stroke-linecap="round" stroke-linejoin="round" d="M 120.862 283.621 C 120.862 415.982 227.639 522.759 360.000 522.759 C 492.361 522.759 599.138 415.982 599.138 283.621 C 599.138 151.259 492.361 44.483 360.000 44.483 C 227.639 44.483 120.862 151.259 120.862 283.621 "/>
</g>
<g id="specs_2">
<path fill="#ff00ff" fill-rule="evenodd" stroke="none" d="M 431.197 348.862 C 431.210 348.862 561.667 348.862 561.680 348.862 C 561.680 348.849 561.680 218.392 561.680 218.379 C 561.667 218.379 431.210 218.379 431.197 218.379 C 431.197 218.392 431.197 348.849 431.197 348.862 Z"/>
<path fill="#ff0000" fill-rule="evenodd" stroke="none" d="M 360.000 667.451 C 360.001 667.455 371.559 699.817 371.560 699.820 C 371.559 699.819 360.001 689.065 360.000 689.064 C 359.999 689.065 348.441 699.819 348.440 699.820 C 348.441 699.817 359.999 667.455 360.000 667.451 Z"/>
<path fill="#0000ff" fill-rule="evenodd" stroke="none" d="M 360.000 33.660 C 360.001 33.661 365.342 48.617 365.342 48.619 C 365.342 48.618 360.001 43.649 360.000 43.648 C 359.999 43.649 354.658 48.618 354.658 48.619 C 354.658 48.617 359.999 33.661 360.000 33.660 Z"/>
<path fill="#00ff00" fill-rule="evenodd" stroke="none" d="M 107.303 284.959 C 107.305 284.958 122.234 279.541 122.235 279.540 C 122.235 279.541 117.292 284.908 117.292 284.908 C 117.292 284.909 122.289 290.225 122.289 290.225 C 122.288 290.225 107.305 284.959 107.303 284.959 Z"/>
<path fill="#ffff00" fill-rule="evenodd" stroke="none" d="M 180.763 464.342 C 180.764 464.341 187.392 449.909 187.393 449.907 C 187.393 449.908 187.742 457.196 187.742 457.196 C 187.743 457.196 195.036 457.373 195.037 457.373 C 195.035 457.374 180.765 464.341 180.763 464.342 Z"/>
<path fill="#ffff00" fill-rule="evenodd" stroke="none" d="M 539.237 464.165 C 539.236 464.164 532.320 449.868 532.319 449.866 C 532.319 449.867 532.116 457.160 532.116 457.161 C 532.116 457.161 524.827 457.484 524.826 457.484 C 524.827 457.485 539.235 464.165 539.237 464.165 Z"/>
<path fill="#00ff00" fill-rule="evenodd" stroke="none" d="M 612.697 284.959 C 612.695 284.958 597.766 279.541 597.765 279.540 C 597.765 279.541 602.708 284.908 602.708 284.908 C 602.708 284.909 597.711 290.225 597.711 290.225 C 597.712 290.225 612.695 284.959 612.697 284.959 Z"/>
<path fill="#00ffff" fill-rule="evenodd" stroke="none" d="M 538.544 104.989 C 538.544 104.991 533.242 119.961 533.241 119.963 C 533.241 119.962 532.237 112.735 532.237 112.735 C 532.236 112.735 524.957 113.215 524.956 113.215 C 524.957 113.215 538.543 104.990 538.544 104.989 Z"/>
<path fill="#00ffff" fill-rule="evenodd" stroke="none" d="M 181.538 105.486 C 181.539 105.487 187.827 120.070 187.828 120.072 C 187.828 120.071 188.348 112.794 188.348 112.793 C 188.349 112.793 195.644 112.787 195.645 112.787 C 195.644 112.787 181.540 105.486 181.538 105.486 Z"/>
<path fill="#be0027" fill-rule="evenodd" stroke="none" d="M 360.000 542.271 C 360.001 542.268 369.196 516.521 369.197 516.518 C 369.196 516.519 360.001 525.074 360.000 525.075 C 359.999 525.074 350.804 516.519 350.803 516.518 C 350.804 516.521 359.999 542.268 360.000 542.271 Z"/>
<path fill="#ff00ff" fill-rule="evenodd" stroke="none" d="M 158.320 348.862 C 158.333 348.862 288.790 348.862 288.803 348.862 C 288.803 348.849 288.803 218.392 288.803 218.379 C 288.790 218.379 158.333 218.379 158.320 218.379 C 158.320 218.392 158.320 348.849 158.320 348.862 Z"/>
<path fill="#ff00ff" fill-rule="evenodd" stroke="none" d="M 294.758 354.818 C 294.758 354.831 294.758 485.288 294.758 485.301 C 294.771 485.301 425.229 485.301 425.242 485.301 C 425.242 485.288 425.242 354.831 425.242 354.818 C 425.229 354.818 294.771 354.818 294.758 354.818 Z"/>
<path fill="#ff00ff" fill-rule="evenodd" stroke="none" d="M 294.758 81.940 C 294.758 81.953 294.758 212.410 294.758 212.424 C 294.771 212.424 425.229 212.424 425.242 212.424 C 425.242 212.410 425.242 81.953 425.242 81.940 C 425.229 81.940 294.771 81.940 294.758 81.940 Z"/>
</g>
</g>
</svg>
