<?xml version="1.0" encoding="utf-8"?>
<!-- Generator: Moho 12.5 build 22414 -->
<!DOCTYPE svg PUBLIC "-//W3C//DTD SVG 1.1//EN" "http://www.w3.org/Graphics/SVG/1.1/DTD/svg11.dtd">
<svg version="1.1" id="Frame_0" xmlns="http://www.w3.org/2000/svg" xmlns:xlink="http://www.w3.org/1999/xlink" width="720px" height="720px">
<g id="clock">
<g id="clock">
<path fill="#ffffff" fill-rule="evenodd" stroke="none" d="M 360.000 565.731 C 501.647 565.731 615.915 451.464 615.915 309.816 C 615.915 168.169 501.647 53.902 360.000 53.902 C 218.353 53.902 104.085 168.169 104.085 309.816 C 104.085 451.464 218.353 565.731 360.000 565.731 Z"/>
<path fill="#ffffff" fill-rule="evenodd" stroke="none" d="M 360.000 549.817 C 492.839 549.817 600.000 442.655 600.000 309.816 C 600.000 176.978 492.839 69.816 360.000 69.816 C 227.162 69.816 120.000 176.978 120.000 309.816 C 120.000 442.655 227.162 549.817 360.000 549.817 Z"/>
<path fill="none" stroke="#000000" stroke-width="4" stroke-linecap="round" stroke-linejoin="round" d="M 169.474 419.816 C 175.248 416.483 181.021 413.150 186.795 409.817 M 550.526 199.817 C 544.752 203.150 538.979 206.483 533.205 209.816 M 250.000 500.342 C 253.333 494.569 256.667 488.795 260.000 483.022 M 470.000 119.291 C 466.667 125.064 463.333 130.838 460.000 136.611 M 550.526 419.816 C 544.752 416.483 538.979 413.150 533.205 409.817 M 169.474 199.817 C 175.248 203.150 181.021 206.483 186.795 209.816 M 470.000 500.342 C 466.667 494.569 463.333 488.795 460.000 483.022 M 250.000 119.291 C 253.333 125.064 256.667 130.838 260.000 136.611 M 140.000 309.816 C 146.667 309.816 153.333 309.816 160.000 309.816 M 580.000 309.816 C 573.333 309.816 566.667 309.816 560.000 309.816 M 360.000 529.816 C 360.000 523.150 360.000 516.483 360.000 509.817 M 360.000 89.817 C 360.000 96.483 360.000 103.150 360.000 109.816 M 120.000 309.816 C 120.000 442.655 227.162 549.817 360.000 549.817 C 492.839 549.817 600.000 442.655 600.000 309.816 C 600.000 176.978 492.839 69.816 360.000 69.816 C 227.162 69.816 120.000 176.978 120.000 309.816 "/>
<path fill="#000000" fill-rule="evenodd" stroke="none" d="M 219.018 155.536 C 219.033 155.551 372.294 310.660 372.309 310.675 C 372.308 310.676 357.475 324.086 357.473 324.088 C 357.460 324.071 219.032 155.552 219.018 155.536 Z"/>
<path fill="#000000" fill-rule="evenodd" stroke="none" d="M 249.384 405.611 C 249.396 405.601 372.255 312.579 372.267 312.569 C 372.266 312.568 359.115 297.504 359.114 297.503 C 359.103 297.514 249.395 405.600 249.384 405.611 Z"/>
<path fill="none" stroke="#000000" stroke-width="4" stroke-linecap="round" stroke-linejoin="round" d="M 104.085 309.816 C 104.085 451.464 218.353 565.731 360.000 565.731 C 501.647 565.731 615.915 451.464 615.915 309.816 C 615.915 168.169 501.647 53.902 360.000 53.902 C 218.353 53.902 104.085 168.169 104.085 309.816 "/>
</g>
<g id="specs_2">
<path fill="#ff00ff" fill-rule="evenodd" stroke="none" d="M 429.531 373.531 C 429.543 373.531 556.947 373.531 556.959 373.531 C 556.959 373.518 556.959 246.115 556.959 246.102 C 556.947 246.102 429.543 246.102 429.531 246.102 C 429.531 246.115 429.531 373.518 429.531 373.531 Z"/>
<path fill="#ff0000" fill-rule="evenodd" stroke="none" d="M 360.000 668.952 C 360.001 668.956 372.416 703.719 372.417 703.722 C 372.416 703.721 360.001 692.169 360.000 692.168 C 359.999 692.169 347.584 703.721 347.583 703.722 C 347.584 703.719 359.999 668.956 360.000 668.952 Z"/>
<path fill="#0000ff" fill-rule="evenodd" stroke="none" d="M 360.000 41.310 C 360.001 41.312 365.738 57.378 365.739 57.379 C 365.738 57.379 360.001 52.040 360.000 52.040 C 359.999 52.040 354.262 57.379 354.261 57.379 C 354.262 57.378 359.999 41.312 360.000 41.310 Z"/>
<path fill="#00ff00" fill-rule="evenodd" stroke="none" d="M 88.555 311.254 C 88.557 311.253 104.594 305.434 104.595 305.433 C 104.595 305.434 99.285 311.199 99.285 311.200 C 99.285 311.200 104.653 316.910 104.653 316.911 C 104.651 316.910 88.557 311.254 88.555 311.254 Z"/>
<path fill="#ffff00" fill-rule="evenodd" stroke="none" d="M 167.465 503.946 C 167.466 503.944 174.586 488.442 174.587 488.440 C 174.587 488.441 174.962 496.269 174.962 496.270 C 174.962 496.270 182.797 496.460 182.798 496.460 C 182.796 496.461 167.467 503.945 167.465 503.946 Z"/>
<path fill="#ffff00" fill-rule="evenodd" stroke="none" d="M 552.535 503.756 C 552.534 503.754 545.104 488.398 545.104 488.396 C 545.104 488.397 544.886 496.231 544.886 496.232 C 544.885 496.232 537.055 496.579 537.055 496.579 C 537.056 496.580 552.533 503.755 552.535 503.756 Z"/>
<path fill="#00ff00" fill-rule="evenodd" stroke="none" d="M 631.445 311.254 C 631.443 311.253 615.406 305.434 615.405 305.433 C 615.405 305.434 620.715 311.199 620.715 311.200 C 620.715 311.200 615.347 316.910 615.347 316.911 C 615.349 316.910 631.443 311.254 631.445 311.254 Z"/>
<path fill="#00ffff" fill-rule="evenodd" stroke="none" d="M 551.791 117.932 C 551.790 117.934 546.095 134.015 546.094 134.016 C 546.094 134.016 545.016 126.253 545.016 126.252 C 545.015 126.252 537.195 126.768 537.194 126.768 C 537.196 126.768 551.789 117.933 551.791 117.932 Z"/>
<path fill="#00ffff" fill-rule="evenodd" stroke="none" d="M 168.298 118.465 C 168.299 118.467 175.054 134.132 175.054 134.134 C 175.054 134.133 175.613 126.316 175.613 126.315 C 175.613 126.315 183.450 126.309 183.451 126.309 C 183.450 126.308 168.300 118.466 168.298 118.465 Z"/>
<path fill="#be0027" fill-rule="evenodd" stroke="none" d="M 360.000 587.656 C 360.001 587.653 369.879 559.995 369.879 559.993 C 369.879 559.994 360.001 569.184 360.000 569.185 C 359.999 569.184 350.122 559.994 350.121 559.993 C 350.122 559.995 359.999 587.653 360.000 587.656 Z"/>
<path fill="#ff00ff" fill-rule="evenodd" stroke="none" d="M 163.041 373.531 C 163.053 373.531 290.457 373.531 290.470 373.531 C 290.470 373.518 290.470 246.115 290.470 246.102 C 290.457 246.102 163.053 246.102 163.041 246.102 C 163.041 246.115 163.041 373.518 163.041 373.531 Z"/>
<path fill="#ff00ff" fill-rule="evenodd" stroke="none" d="M 296.285 379.347 C 296.285 379.360 296.285 506.763 296.285 506.776 C 296.298 506.776 423.702 506.776 423.715 506.776 C 423.715 506.763 423.715 379.360 423.715 379.347 C 423.702 379.347 296.298 379.347 296.285 379.347 Z"/>
<path fill="#ff00ff" fill-rule="evenodd" stroke="none" d="M 296.286 112.857 C 296.286 112.870 296.285 240.273 296.285 240.286 C 296.298 240.286 423.702 240.286 423.715 240.286 C 423.715 240.273 423.715 112.870 423.715 112.857 C 423.702 112.857 296.298 112.857 296.286 112.857 Z"/>
</g>
</g>
</svg>
