<?xml version="1.0" encoding="utf-8"?>
<!-- Generator: Moho 13.5 build 20210422 -->
<!DOCTYPE svg PUBLIC "-//W3C//DTD SVG 1.1//EN" "http://www.w3.org/Graphics/SVG/1.1/DTD/svg11.dtd">
<svg version="1.1" id="Frame_0" xmlns="http://www.w3.org/2000/svg" xmlns:xlink="http://www.w3.org/1999/xlink" width="720px" height="720px">
<g id="cloud_spiraly">
<g id="cloud_spiraly">
<path fill="#ffffff" fill-rule="evenodd" stroke="none" d="M 437.618 353.840 C 468.488 353.840 485.735 372.588 485.735 390.886 C 485.735 409.185 468.488 427.933 437.618 427.933 C 406.748 427.933 389.500 409.185 389.500 390.886 C 389.500 372.588 406.747 353.840 437.618 353.840 Z"/>
<path fill="#ffffff" fill-rule="evenodd" stroke="none" d="M 282.029 415.095 C 332.449 420.242 363.897 397.891 389.240 372.977 C 406.163 383.905 432.464 389.004 455.087 380.818 C 485.663 369.754 514.845 337.580 517.113 309.276 C 520.709 264.386 491.963 225.920 467.780 210.230 C 418.726 178.406 363.920 203.476 351.072 215.124 C 301.659 259.924 307.188 305.432 304.672 324.797 C 300.877 353.997 288.476 369.326 273.207 380.641 C 260.281 390.220 231.362 399.019 231.358 399.021 C 231.363 399.023 265.214 413.378 282.029 415.095 Z"/>
<path fill="none" stroke="#000000" stroke-width="2" stroke-linejoin="round" d="M 282.029 415.095 C 332.449 420.242 363.897 397.891 389.240 372.977 C 406.163 383.905 432.464 389.004 455.087 380.818 C 485.663 369.754 514.845 337.580 517.113 309.276 C 520.709 264.386 491.963 225.920 467.780 210.230 C 418.726 178.406 363.920 203.476 351.072 215.124 C 301.659 259.924 307.188 305.432 304.672 324.797 C 300.877 353.997 288.476 369.326 273.207 380.641 C 260.281 390.220 231.362 399.019 231.358 399.021 C 231.363 399.023 265.214 413.378 282.029 415.095 M 392.151 245.309 C 342.386 270.776 326.917 332.731 389.240 372.977 M 463.541 312.341 C 483.723 267.395 434.012 223.886 392.151 245.309 M 403.508 324.523 C 421.442 346.920 453.400 334.923 463.541 312.341 M 418.747 286.854 C 401.556 284.101 387.358 304.353 403.508 324.523 M 421.218 302.963 C 430.239 302.952 430.420 288.724 418.747 286.854 "/>
<path fill="#ffffff" fill-rule="evenodd" stroke="none" d="M 332.318 435.715 C 352.000 397.367 344.027 365.538 332.135 337.752 C 346.029 327.729 358.207 308.472 358.724 288.018 C 359.423 260.373 342.968 227.299 321.249 216.743 C 286.802 200.001 247.434 210.867 227.521 225.168 C 187.130 254.177 190.027 305.351 195.278 319.133 C 215.474 372.140 253.234 381.846 267.795 389.832 C 289.752 401.875 298.057 416.442 302.294 432.040 C 305.882 445.245 303.902 470.876 303.902 470.880 C 303.905 470.876 325.753 448.504 332.318 435.715 Z"/>
<path fill="none" stroke="#000000" stroke-width="2" stroke-linejoin="round" d="M 332.318 435.715 C 352.000 397.367 344.027 365.538 332.135 337.752 C 346.029 327.729 358.207 308.472 358.724 288.018 C 359.423 260.373 342.968 227.299 321.249 216.743 C 286.802 200.001 247.434 210.867 227.521 225.168 C 187.130 254.177 190.027 305.351 195.278 319.133 C 215.474 372.140 253.234 381.846 267.795 389.832 C 289.752 401.875 298.057 416.442 302.294 432.040 C 305.882 445.245 303.902 470.876 303.902 470.880 C 303.905 470.876 325.753 448.504 332.318 435.715 M 231.902 295.935 C 236.674 343.238 280.965 374.666 332.135 337.752 M 307.097 260.129 C 277.739 230.231 227.887 256.143 231.902 295.935 M 298.167 311.454 C 321.460 304.180 321.847 275.151 307.097 260.129 M 273.044 287.724 C 265.542 300.490 277.190 318.005 298.167 311.454 M 286.570 290.752 C 289.353 283.602 278.138 279.055 273.044 287.724 "/>
<path fill="#ffffff" fill-rule="evenodd" stroke="none" d="M 48.206 348.166 C 82.655 321.689 115.662 323.816 145.371 330.563 C 152.787 314.967 169.670 299.396 189.858 295.170 C 217.142 289.458 252.923 299.770 267.333 319.389 C 290.186 350.504 286.558 391.512 275.993 413.852 C 254.562 459.167 203.296 465.584 188.678 462.880 C 132.453 452.479 115.975 416.800 105.413 403.812 C 89.486 384.228 73.535 378.638 57.300 377.268 C 43.556 376.108 18.501 382.724 18.497 382.724 C 18.500 382.721 36.717 356.996 48.206 348.166 Z"/>
<path fill="none" stroke="#000000" stroke-width="2" stroke-linejoin="round" d="M 75.489 358.473 C 111.999 355.387 135.505 368.779 135.511 368.780 M 22.135 379.693 C 22.140 379.691 45.507 361.006 75.489 358.473 M 48.206 348.166 C 82.655 321.689 115.662 323.816 145.371 330.563 C 152.787 314.967 169.670 299.396 189.858 295.170 C 217.142 289.458 252.923 299.770 267.333 319.389 C 290.186 350.504 286.558 391.512 275.993 413.852 C 254.562 459.167 203.296 465.584 188.678 462.880 C 132.453 452.479 115.975 416.800 105.413 403.812 C 89.486 384.228 73.535 378.638 57.300 377.268 C 43.556 376.108 18.501 382.724 18.497 382.724 C 18.500 382.721 36.717 356.996 48.206 348.166 M 205.031 422.355 C 157.262 426.210 118.059 388.001 145.371 330.563 M 226.883 341.297 C 261.857 364.978 245.214 419.112 205.031 422.355 M 177.614 359.469 C 180.598 335.053 209.311 329.399 226.883 341.297 M 205.703 380.071 C 194.407 389.826 174.927 381.456 177.614 359.469 M 200.245 367.210 C 206.829 363.152 213.373 373.447 205.703 380.071 "/>
<path fill="#ffffff" fill-rule="evenodd" stroke="none" d="M 672.935 350.243 C 639.703 320.191 606.049 314.431 574.266 325.071 C 568.549 309.571 553.811 293.276 534.944 287.504 C 509.444 279.703 474.463 286.433 459.039 303.879 C 434.576 331.546 434.157 371.051 442.619 393.125 C 460.438 439.613 511.745 447.148 526.499 446.563 C 577.053 444.558 595.510 414.855 606.000 404.487 C 625.382 385.330 642.730 380.532 660.318 380.644 C 675.208 380.738 701.498 390.296 701.503 390.297 C 701.500 390.293 684.537 360.735 672.935 350.243 Z"/>
<path fill="none" stroke="#000000" stroke-width="2" stroke-linejoin="round" d="M 642.597 358.662 C 605.715 351.812 580.361 362.332 580.355 362.333 M 697.887 386.682 C 697.881 386.679 674.532 364.594 642.597 358.662 M 672.935 350.243 C 639.703 320.191 606.049 314.431 574.266 325.071 C 568.549 309.571 553.811 293.276 534.944 287.504 C 509.444 279.703 474.463 286.433 459.039 303.879 C 434.576 331.546 434.157 371.051 442.619 393.125 C 460.438 439.613 511.745 447.148 526.499 446.563 C 577.053 444.558 595.510 414.855 606.000 404.487 C 625.382 385.330 642.730 380.532 660.318 380.644 C 675.208 380.738 701.498 390.296 701.503 390.297 C 701.500 390.293 684.537 360.735 672.935 350.243 M 509.490 407.363 C 554.666 415.167 595.319 382.154 574.266 325.071 M 495.680 328.249 C 460.313 347.786 471.487 400.798 509.490 407.363 M 541.049 349.821 C 540.318 326.302 513.451 318.432 495.680 328.249 M 512.506 367.020 C 522.424 377.291 541.708 371.002 541.049 349.821 M 518.818 355.239 C 512.896 350.804 505.772 360.046 512.506 367.020 "/>
<path fill="#ffffff" fill-rule="evenodd" stroke="none" d="M 511.934 464.803 C 474.470 487.837 440.874 491.329 399.141 472.278 C 391.224 488.828 373.248 505.330 351.791 509.770 C 322.791 515.770 284.802 504.728 269.542 483.849 C 245.340 450.736 249.295 407.179 260.575 383.471 C 283.454 335.382 337.934 328.690 353.458 331.599 C 413.165 342.788 432.666 379.281 441.772 394.557 C 455.948 418.339 469.251 427.926 484.765 436.794 C 506.719 449.344 533.321 446.473 533.326 446.474 C 533.324 446.476 525.933 456.196 511.934 464.803 Z"/>
<path fill="none" stroke="#000000" stroke-width="2" stroke-linejoin="round" d="M 466.128 458.181 C 429.142 452.015 409.715 431.704 409.710 431.701 M 531.316 447.989 C 531.310 447.990 500.232 463.867 466.128 458.181 M 511.934 464.803 C 474.470 487.837 440.874 491.329 399.141 472.278 C 391.224 488.828 373.248 505.330 351.791 509.770 C 322.791 515.770 284.802 504.728 269.542 483.849 C 245.340 450.736 249.295 407.179 260.575 383.471 C 283.454 335.382 337.934 328.690 353.458 331.599 C 413.165 342.788 432.666 379.281 441.772 394.557 C 455.948 418.339 469.251 427.926 484.765 436.794 C 506.719 449.344 533.321 446.473 533.326 446.474 C 533.324 446.476 525.933 456.196 511.934 464.803 M 335.984 374.612 C 386.743 370.633 428.298 411.324 399.141 472.278 M 312.569 460.674 C 275.471 435.429 293.286 377.959 335.984 374.612 M 364.958 441.490 C 361.727 467.421 331.209 473.358 312.569 460.674 M 335.166 419.532 C 347.190 409.196 367.867 418.136 364.958 441.490 M 340.933 433.210 C 333.928 437.504 327.001 426.551 335.166 419.532 "/>
</g>
<g id="specs_2">
<path fill="#ff00ff" fill-rule="evenodd" stroke="none" d="M 225.980 434.173 C 226.007 434.173 493.993 434.173 494.020 434.173 C 494.020 434.155 494.020 253.483 494.020 253.465 C 493.993 253.465 226.007 253.465 225.980 253.465 C 225.980 253.483 225.980 434.155 225.980 434.173 Z"/>
<path fill="#ff0000" fill-rule="evenodd" stroke="none" d="M 360.000 569.879 C 360.001 569.882 372.432 604.688 372.433 604.691 C 372.432 604.690 360.001 593.124 360.000 593.123 C 359.999 593.124 347.568 604.690 347.567 604.691 C 347.568 604.688 359.999 569.882 360.000 569.879 Z"/>
<path fill="#0000ff" fill-rule="evenodd" stroke="none" d="M 360.025 164.109 C 360.025 164.110 364.094 175.506 364.095 175.507 C 364.094 175.506 360.025 171.720 360.025 171.719 C 360.024 171.720 355.954 175.506 355.954 175.507 C 355.954 175.506 360.024 164.110 360.025 164.109 Z"/>
<path fill="#00ff00" fill-rule="evenodd" stroke="none" d="M 24.030 369.813 C 24.032 369.812 44.213 362.489 44.215 362.489 C 44.215 362.489 37.533 369.744 37.532 369.745 C 37.533 369.746 44.288 376.932 44.288 376.933 C 44.286 376.932 24.032 369.814 24.030 369.813 Z"/>
<path fill="#ffff00" fill-rule="evenodd" stroke="none" d="M 195.448 466.511 C 195.449 466.509 201.559 453.206 201.559 453.205 C 201.559 453.206 201.881 459.923 201.881 459.924 C 201.882 459.924 208.605 460.087 208.605 460.087 C 208.604 460.087 195.449 466.510 195.448 466.511 Z"/>
<path fill="#ffff00" fill-rule="evenodd" stroke="none" d="M 525.877 466.347 C 525.877 466.346 519.501 453.168 519.501 453.167 C 519.501 453.168 519.314 459.891 519.314 459.891 C 519.313 459.891 512.595 460.189 512.594 460.189 C 512.595 460.190 525.876 466.347 525.877 466.347 Z"/>
<path fill="#00ff00" fill-rule="evenodd" stroke="none" d="M 694.461 369.813 C 694.459 369.812 674.277 362.489 674.275 362.489 C 674.276 362.489 680.958 369.744 680.958 369.745 C 680.958 369.746 674.203 376.932 674.203 376.933 C 674.205 376.932 694.459 369.814 694.461 369.813 Z"/>
<path fill="#00ffff" fill-rule="evenodd" stroke="none" d="M 492.653 221.290 C 492.652 221.292 488.613 232.698 488.612 232.699 C 488.612 232.698 487.848 227.192 487.847 227.192 C 487.847 227.192 482.300 227.558 482.299 227.558 C 482.300 227.557 492.652 221.291 492.653 221.290 Z"/>
<path fill="#00ffff" fill-rule="evenodd" stroke="none" d="M 220.646 221.669 C 220.646 221.670 225.437 232.781 225.438 232.782 C 225.438 232.782 225.834 227.237 225.834 227.236 C 225.834 227.236 231.393 227.232 231.394 227.232 C 231.393 227.232 220.647 221.669 220.646 221.669 Z"/>
<path fill="#be0027" fill-rule="evenodd" stroke="none" d="M 360.000 525.979 C 360.001 525.975 372.432 491.169 372.433 491.166 C 372.432 491.167 360.001 502.733 360.000 502.734 C 359.999 502.733 347.568 491.167 347.567 491.166 C 347.568 491.169 359.999 525.975 360.000 525.979 Z"/>
</g>
</g>
</svg>
