<?xml version="1.0" encoding="utf-8"?>
<!-- Generator: Moho 12.5 build 22414 -->
<!DOCTYPE svg PUBLIC "-//W3C//DTD SVG 1.1//EN" "http://www.w3.org/Graphics/SVG/1.1/DTD/svg11.dtd">
<svg version="1.1" id="Frame_0" xmlns="http://www.w3.org/2000/svg" xmlns:xlink="http://www.w3.org/1999/xlink" width="720px" height="720px">
<g id="clouds">
<g id="clouds">
<path fill="#ffffff" fill-rule="evenodd" stroke="#000000" stroke-width="3" stroke-linejoin="round" d="M 250.695 119.853 C 250.871 93.773 277.305 64.463 317.855 77.174 C 314.060 44.293 365.072 9.931 400.738 51.801 C 422.852 -11.310 510.087 -1.234 519.483 54.846 C 544.316 31.109 573.718 50.832 574.603 69.840 C 613.093 47.367 651.294 82.257 651.458 109.437 C 651.623 136.889 618.459 168.355 576.290 150.190 C 578.340 189.725 521.297 218.774 478.527 170.165 C 470.770 192.974 386.895 229.589 365.090 163.042 C 359.460 175.625 333.920 185.576 321.131 160.814 C 281.612 177.952 250.518 146.208 250.695 119.853 Z"/>
<path fill="#ffffff" fill-rule="evenodd" stroke="#000000" stroke-width="3" stroke-linejoin="round" d="M 599.310 591.827 C 593.893 599.755 582.334 611.868 553.840 604.659 C 545.763 635.109 489.226 659.201 449.893 622.571 C 427.691 649.494 375.707 630.068 376.742 604.450 C 376.786 603.376 376.854 601.979 376.851 601.513 C 366.152 607.381 349.960 607.314 344.574 593.236 C 340.327 597.930 324.898 607.914 311.547 607.036 C 290.684 605.664 273.082 590.690 273.258 569.782 C 273.432 549.155 292.614 527.509 326.764 535.787 C 326.034 502.014 378.162 470.700 418.645 500.581 C 425.322 480.368 453.630 461.124 481.261 461.124 C 511.962 461.124 537.915 480.937 546.965 508.200 C 576.813 491.348 601.509 522.065 604.161 531.250 C 611.553 525.407 622.138 522.496 632.865 523.214 C 654.868 524.687 672.707 541.004 672.707 563.056 C 672.707 585.108 642.296 614.635 599.310 591.827 Z"/>
<path fill="#ffffff" fill-rule="evenodd" stroke="#000000" stroke-width="3" stroke-linejoin="round" d="M 221.342 409.550 C 209.545 434.191 138.246 441.736 120.899 398.055 C 102.111 411.326 78.886 407.272 67.678 381.011 C 36.060 399.802 14.032 371.557 16.021 352.869 C 18.788 326.867 46.596 326.008 55.160 325.990 C 54.242 293.210 91.484 261.840 136.930 285.362 C 148.611 240.885 200.241 248.431 207.413 273.845 C 252.219 226.332 323.759 270.731 315.583 311.999 C 353.205 292.403 390.005 325.031 387.601 351.926 C 385.506 375.364 346.752 394.414 319.781 377.931 C 312.163 410.989 271.773 443.054 221.342 409.550 Z"/>
</g>
<g id="specs_2">
<path fill="#ff0000" fill-rule="evenodd" stroke="none" d="M 360.000 682.062 C 360.001 682.065 370.859 712.466 370.860 712.469 C 370.859 712.468 360.001 702.366 360.000 702.365 C 359.999 702.366 349.141 712.468 349.140 712.469 C 349.141 712.466 359.999 682.065 360.000 682.062 Z"/>
<path fill="#0000ff" fill-rule="evenodd" stroke="none" d="M 481.660 449.759 C 481.660 449.760 487.967 467.420 487.968 467.422 C 487.967 467.421 481.660 461.553 481.660 461.553 C 481.659 461.553 475.352 467.421 475.352 467.422 C 475.352 467.420 481.659 449.760 481.660 449.759 Z"/>
<path fill="#be0027" fill-rule="evenodd" stroke="none" d="M 171.068 235.018 C 171.069 235.021 181.926 265.423 181.927 265.426 C 181.926 265.425 171.069 255.323 171.068 255.322 C 171.067 255.323 160.209 265.425 160.208 265.426 C 160.209 265.423 171.067 235.021 171.068 235.018 Z"/>
</g>
</g>
</svg>
