<?xml version="1.0" encoding="utf-8"?>
<!-- Generator: Moho 13.5 build 20210422 -->
<!DOCTYPE svg PUBLIC "-//W3C//DTD SVG 1.1//EN" "http://www.w3.org/Graphics/SVG/1.1/DTD/svg11.dtd">
<svg version="1.1" id="Frame_0" xmlns="http://www.w3.org/2000/svg" xmlns:xlink="http://www.w3.org/1999/xlink" width="720px" height="720px">
<g id="cloud">
<g id="cloud">
<radialGradient id="4A5CA113-4EFD-477B-A9CD-40406528EDB8_0" cx="49.66%" cy="85.75%" r="65.48%">
<stop offset="49.80%" style="stop-color:rgb(255,255,255);stop-opacity:1.00" />
<stop offset="100.00%" style="stop-color:rgb(0,0,0);stop-opacity:1.00" />
</radialGradient>
<path fill="url(#4A5CA113-4EFD-477B-A9CD-40406528EDB8_0)" fill-rule="evenodd" stroke="#000000" stroke-width="4" stroke-linecap="round" stroke-linejoin="round" d="M 10.986 448.176 C 10.985 398.984 48.288 358.730 95.924 354.106 C 90.056 340.911 86.626 325.619 86.626 309.505 C 86.626 248.451 136.011 203.230 196.931 199.198 C 230.468 196.979 261.859 206.869 283.660 229.730 C 296.109 171.798 349.218 133.881 409.664 136.166 C 477.142 138.716 536.377 187.260 534.094 256.429 C 543.811 252.145 555.245 248.934 567.244 249.624 C 613.248 252.270 655.308 301.337 636.184 353.961 C 673.742 365.944 705.687 397.356 709.014 438.721 C 713.697 496.941 661.326 536.105 603.489 544.247 C 570.009 548.960 537.549 543.255 517.199 519.624 C 504.059 533.272 486.451 546.720 465.405 547.050 C 451.728 547.265 439.365 540.672 428.767 534.057 C 400.311 577.742 348.371 589.878 294.631 583.694 C 245.540 578.046 201.340 559.694 178.848 518.221 C 159.660 536.201 133.517 544.337 105.534 542.723 C 53.289 539.710 10.986 500.508 10.986 448.176 Z"/>
</g>
</g>
</svg>
