<?xml version="1.0" encoding="utf-8"?>
<!-- Generator: Moho 13.5 build 20210422 -->
<!DOCTYPE svg PUBLIC "-//W3C//DTD SVG 1.1//EN" "http://www.w3.org/Graphics/SVG/1.1/DTD/svg11.dtd">
<svg version="1.1" id="Frame_0" xmlns="http://www.w3.org/2000/svg" xmlns:xlink="http://www.w3.org/1999/xlink" width="720px" height="720px">
<g id="cloud_spiraly_vertical">
<g id="cloud_spiraly">
<path fill="#ffffff" fill-rule="evenodd" stroke="none" d="M 365.638 264.278 C 365.638 236.023 348.478 220.236 331.730 220.236 C 314.981 220.237 297.822 236.023 297.822 264.278 C 297.822 292.534 314.981 308.320 331.730 308.320 C 348.478 308.320 365.638 292.534 365.638 264.278 Z"/>
<path fill="#ffffff" fill-rule="evenodd" stroke="none" d="M 309.572 406.688 C 304.861 360.538 325.318 331.754 348.122 308.558 C 338.120 293.069 333.453 268.995 340.946 248.289 C 351.072 220.302 380.521 193.592 406.427 191.517 C 447.515 188.225 482.723 214.536 497.083 236.671 C 526.212 281.570 503.266 331.734 492.604 343.493 C 451.599 388.720 409.946 383.660 392.221 385.963 C 365.494 389.436 351.464 400.786 341.108 414.762 C 332.340 426.594 324.286 453.063 324.284 453.067 C 324.283 453.062 311.143 422.079 309.572 406.688 Z"/>
<path fill="none" stroke="#000000" stroke-width="2" stroke-linejoin="round" d="M 309.572 406.688 C 304.861 360.538 325.318 331.754 348.122 308.558 C 338.120 293.069 333.453 268.995 340.946 248.289 C 351.072 220.302 380.521 193.592 406.427 191.517 C 447.515 188.225 482.723 214.536 497.083 236.671 C 526.212 281.570 503.266 331.734 492.604 343.493 C 451.599 388.720 409.946 383.660 392.221 385.963 C 365.494 389.436 351.464 400.786 341.108 414.762 C 332.340 426.594 324.286 453.063 324.284 453.067 C 324.283 453.062 311.143 422.079 309.572 406.688 M 464.977 305.894 C 441.666 351.443 384.959 365.602 348.122 308.558 M 403.622 240.551 C 444.761 222.079 484.585 267.578 464.977 305.894 M 392.472 295.498 C 371.972 279.084 382.953 249.832 403.622 240.551 M 426.950 281.550 C 429.470 297.285 410.934 310.281 392.472 295.498 M 412.206 279.289 C 412.216 271.032 425.239 270.866 426.950 281.550 "/>
<path fill="#ffffff" fill-rule="evenodd" stroke="none" d="M 290.698 360.659 C 325.798 342.644 354.931 349.941 380.363 360.826 C 389.537 348.109 407.163 336.962 425.885 336.489 C 451.188 335.849 481.461 350.910 491.123 370.790 C 506.446 402.319 496.501 438.352 483.411 456.578 C 456.859 493.548 410.020 490.896 397.405 486.090 C 348.888 467.605 340.005 433.044 332.695 419.716 C 321.672 399.619 308.339 392.018 294.062 388.139 C 281.976 384.855 258.516 386.668 258.512 386.668 C 258.516 386.665 278.993 366.667 290.698 360.659 Z"/>
<path fill="none" stroke="#000000" stroke-width="2" stroke-linejoin="round" d="M 290.698 360.659 C 325.798 342.644 354.931 349.941 380.363 360.826 C 389.537 348.109 407.163 336.962 425.885 336.489 C 451.188 335.849 481.461 350.910 491.123 370.790 C 506.446 402.319 496.501 438.352 483.411 456.578 C 456.859 493.548 410.020 490.896 397.405 486.090 C 348.888 467.605 340.005 433.044 332.695 419.716 C 321.672 399.619 308.339 392.018 294.062 388.139 C 281.976 384.855 258.516 386.668 258.512 386.668 C 258.516 386.665 278.993 366.667 290.698 360.659 M 418.639 452.569 C 375.342 448.201 346.576 407.662 380.363 360.826 M 451.412 383.743 C 478.777 410.614 455.060 456.243 418.639 452.569 M 404.434 391.916 C 411.091 370.597 437.662 370.242 451.412 383.743 M 426.154 414.912 C 414.470 421.778 398.437 411.117 404.434 391.916 M 423.382 402.532 C 429.926 399.984 434.089 410.249 426.154 414.912 "/>
<path fill="#ffffff" fill-rule="evenodd" stroke="none" d="M 370.832 620.705 C 395.066 589.174 393.119 558.963 386.943 531.770 C 401.218 524.982 415.471 509.529 419.339 491.052 C 424.567 466.079 415.129 433.328 397.171 420.139 C 368.692 399.222 331.158 402.542 310.710 412.213 C 269.233 431.828 263.359 478.751 265.835 492.132 C 275.355 543.594 308.012 558.676 319.899 568.343 C 337.825 582.921 342.941 597.522 344.195 612.381 C 345.257 624.961 339.201 647.893 339.201 647.897 C 339.204 647.894 362.750 631.221 370.832 620.705 Z"/>
<path fill="none" stroke="#000000" stroke-width="2" stroke-linejoin="round" d="M 361.398 595.733 C 364.222 562.315 351.965 540.800 351.964 540.795 M 341.975 644.567 C 341.977 644.562 359.079 623.175 361.398 595.733 M 370.832 620.705 C 395.066 589.174 393.119 558.963 386.943 531.770 C 401.218 524.982 415.471 509.529 419.339 491.052 C 424.567 466.079 415.129 433.328 397.171 420.139 C 368.692 399.222 331.158 402.542 310.710 412.213 C 269.233 431.828 263.359 478.751 265.835 492.132 C 275.355 543.594 308.012 558.676 319.899 568.343 C 337.825 582.921 342.941 597.522 344.195 612.381 C 345.257 624.961 339.201 647.893 339.201 647.897 C 339.204 647.894 362.750 631.221 370.832 620.705 M 302.927 477.164 C 299.398 520.886 334.371 556.768 386.943 531.770 M 377.118 457.163 C 355.443 425.151 305.895 440.385 302.927 477.164 M 360.486 502.258 C 382.834 499.527 388.009 473.247 377.118 457.163 M 341.629 476.549 C 332.701 486.887 340.361 504.718 360.486 502.258 M 353.401 481.544 C 357.115 475.518 347.692 469.528 341.629 476.549 "/>
<path fill="#ffffff" fill-rule="evenodd" stroke="none" d="M 368.930 48.894 C 396.437 79.311 401.709 110.114 391.971 139.205 C 406.157 144.437 421.072 157.927 426.355 175.196 C 433.495 198.536 427.335 230.554 411.368 244.672 C 386.044 267.063 349.885 267.445 329.681 259.701 C 287.131 243.391 280.234 196.430 280.769 182.926 C 282.605 136.654 309.791 119.761 319.281 110.159 C 336.815 92.419 341.207 76.540 341.105 60.442 C 341.019 46.813 332.270 22.749 332.269 22.746 C 332.273 22.748 359.327 38.274 368.930 48.894 Z"/>
<path fill="none" stroke="#000000" stroke-width="2" stroke-linejoin="round" d="M 361.224 76.662 C 367.494 110.420 357.865 133.626 357.865 133.631 M 335.578 26.055 C 335.580 26.060 355.795 47.432 361.224 76.662 M 368.930 48.894 C 396.437 79.311 401.709 110.114 391.971 139.205 C 406.157 144.437 421.072 157.927 426.355 175.196 C 433.495 198.536 427.335 230.554 411.368 244.672 C 386.044 267.063 349.885 267.445 329.681 259.701 C 287.131 243.391 280.234 196.430 280.769 182.926 C 282.605 136.654 309.791 119.761 319.281 110.159 C 336.815 92.419 341.207 76.540 341.105 60.442 C 341.019 46.813 332.270 22.749 332.269 22.746 C 332.273 22.748 359.327 38.274 368.930 48.894 M 316.649 198.494 C 309.506 157.145 339.723 119.935 391.971 139.205 M 389.062 211.134 C 371.179 243.506 322.657 233.277 316.649 198.494 M 369.316 169.608 C 390.844 170.277 398.047 194.869 389.062 211.134 M 353.574 195.733 C 344.174 186.656 349.930 169.005 369.316 169.608 M 364.357 189.956 C 368.417 195.376 359.958 201.897 353.574 195.733 "/>
<path fill="#ffffff" fill-rule="evenodd" stroke="none" d="M 264.074 196.257 C 242.992 230.548 239.795 261.298 257.233 299.496 C 242.084 306.742 226.980 323.195 222.917 342.835 C 217.424 369.379 227.531 404.149 246.641 418.117 C 276.950 440.269 316.817 436.649 338.517 426.325 C 382.533 405.383 388.658 355.518 385.995 341.309 C 375.754 286.660 342.353 268.810 328.370 260.476 C 306.602 247.501 297.828 235.324 289.711 221.125 C 278.224 201.030 280.852 176.681 280.851 176.677 C 280.849 176.679 271.952 183.443 264.074 196.257 Z"/>
<path fill="none" stroke="#000000" stroke-width="2" stroke-linejoin="round" d="M 270.135 238.183 C 275.780 272.036 294.370 289.817 294.372 289.822 M 279.464 178.517 C 279.463 178.523 264.931 206.968 270.135 238.183 M 264.074 196.257 C 242.992 230.548 239.795 261.298 257.233 299.496 C 242.084 306.742 226.980 323.195 222.917 342.835 C 217.424 369.379 227.531 404.149 246.641 418.117 C 276.950 440.269 316.817 436.649 338.517 426.325 C 382.533 405.383 388.658 355.518 385.995 341.309 C 375.754 286.660 342.353 268.810 328.370 260.476 C 306.602 247.501 297.828 235.324 289.711 221.125 C 278.224 201.030 280.852 176.681 280.851 176.677 C 280.849 176.679 271.952 183.443 264.074 196.257 M 346.626 357.303 C 350.267 310.844 313.024 272.809 257.233 299.496 M 267.854 378.734 C 290.961 412.690 343.563 396.384 346.626 357.303 M 285.413 330.784 C 261.678 333.740 256.244 361.674 267.854 378.734 M 305.510 358.052 C 314.971 347.046 306.788 328.121 285.413 330.784 M 292.992 352.773 C 289.061 359.185 299.086 365.525 305.510 358.052 "/>
</g>
<g id="specs_2">
<path fill="#ff00ff" fill-rule="evenodd" stroke="none" d="M 292.110 457.989 C 292.110 457.964 292.110 212.678 292.110 212.654 C 292.127 212.654 457.494 212.654 457.511 212.654 C 457.511 212.678 457.511 457.964 457.511 457.989 C 457.494 457.989 292.127 457.989 292.110 457.989 Z"/>
<path fill="#ff0000" fill-rule="evenodd" stroke="none" d="M 354.128 666.763 C 354.127 666.767 342.749 698.625 342.748 698.628 C 342.749 698.627 354.127 688.041 354.128 688.039 C 354.129 688.041 365.507 698.627 365.508 698.628 C 365.507 698.625 354.129 666.767 354.128 666.763 Z"/>
<path fill="#0000ff" fill-rule="evenodd" stroke="none" d="M 349.361 10.566 C 349.360 10.570 336.511 46.552 336.509 46.556 C 336.511 46.555 349.360 34.598 349.361 34.597 C 349.363 34.598 362.213 46.555 362.214 46.556 C 362.213 46.552 349.363 10.570 349.361 10.566 Z"/>
<path fill="#00ff00" fill-rule="evenodd" stroke="none" d="M 496.288 355.587 C 496.286 355.587 479.537 349.509 479.535 349.509 C 479.536 349.509 485.081 355.530 485.082 355.531 C 485.081 355.531 479.476 361.496 479.475 361.496 C 479.477 361.496 496.286 355.588 496.288 355.587 Z"/>
<path fill="#00ff00" fill-rule="evenodd" stroke="none" d="M 206.631 355.587 C 206.632 355.587 223.381 349.509 223.383 349.509 C 223.382 349.509 217.837 355.530 217.837 355.531 C 217.837 355.531 223.443 361.496 223.443 361.496 C 223.442 361.496 206.632 355.588 206.631 355.587 Z"/>
<path fill="#be0027" fill-rule="evenodd" stroke="none" d="M 343.105 662.472 C 343.104 662.469 331.727 630.612 331.726 630.608 C 331.727 630.609 343.104 641.196 343.105 641.197 C 343.107 641.196 354.484 630.609 354.485 630.608 C 354.484 630.612 343.107 662.469 343.105 662.472 Z"/>
</g>
</g>
</svg>
