<?xml version="1.0" encoding="utf-8"?>
<!-- Generator: Moho 12.5 build 22414 -->
<!DOCTYPE svg PUBLIC "-//W3C//DTD SVG 1.1//EN" "http://www.w3.org/Graphics/SVG/1.1/DTD/svg11.dtd">
<svg version="1.1" id="Frame_0" xmlns="http://www.w3.org/2000/svg" xmlns:xlink="http://www.w3.org/1999/xlink" width="720px" height="720px">
<g id="clouds">
<g id="clouds">
<path fill="#ffffff" fill-rule="evenodd" stroke="#000000" stroke-width="3" stroke-linejoin="round" d="M 207.462 143.267 C 207.653 114.928 236.376 83.080 280.437 96.892 C 276.314 61.164 331.743 23.826 370.498 69.322 C 394.527 0.745 489.316 11.694 499.526 72.630 C 526.509 46.838 558.457 68.269 559.419 88.924 C 601.243 64.504 642.752 102.416 642.929 131.949 C 643.108 161.778 607.073 195.969 561.252 176.231 C 563.480 219.190 501.497 250.754 455.024 197.935 C 446.594 222.720 355.457 262.506 331.763 190.196 C 325.645 203.869 297.894 214.681 283.997 187.775 C 241.056 206.397 207.269 171.905 207.462 143.267 Z"/>
<path fill="#ffffff" fill-rule="evenodd" stroke="#000000" stroke-width="3" stroke-linejoin="round" d="M 596.579 586.851 C 591.279 594.608 579.969 606.459 552.091 599.406 C 544.187 629.200 488.870 652.772 450.386 616.931 C 428.662 643.274 377.800 624.267 378.813 599.201 C 378.855 598.151 378.922 596.784 378.919 596.328 C 368.451 602.069 352.608 602.004 347.339 588.230 C 343.183 592.822 328.087 602.591 315.024 601.732 C 294.611 600.389 277.388 585.738 277.561 565.282 C 277.731 545.099 296.499 523.920 329.912 532.020 C 329.198 498.975 380.201 468.337 419.811 497.573 C 426.344 477.796 454.042 458.967 481.077 458.967 C 511.116 458.967 536.509 478.353 545.363 505.028 C 574.568 488.539 598.731 518.594 601.326 527.580 C 608.558 521.864 618.915 519.016 629.411 519.718 C 650.939 521.160 668.393 537.124 668.393 558.700 C 668.393 580.276 638.639 609.167 596.579 586.851 Z"/>
<path fill="#ffffff" fill-rule="evenodd" stroke="#000000" stroke-width="3" stroke-linejoin="round" d="M 256.928 409.550 C 245.131 434.191 173.832 441.736 156.485 398.055 C 137.697 411.326 114.472 407.272 103.265 381.011 C 71.647 399.802 49.619 371.557 51.607 352.869 C 54.375 326.867 82.182 326.008 90.746 325.990 C 89.828 293.210 127.071 261.840 172.516 285.362 C 184.197 240.885 235.827 248.431 242.999 273.845 C 287.805 226.332 359.345 270.731 351.169 311.999 C 388.792 292.403 425.592 325.031 423.188 351.926 C 421.092 375.364 382.338 394.414 355.367 377.931 C 347.750 410.989 307.359 443.054 256.928 409.550 Z"/>
</g>
<g id="specs_2">
<path fill="#ff0000" fill-rule="evenodd" stroke="none" d="M 360.000 682.062 C 360.001 682.065 370.859 712.466 370.860 712.469 C 370.859 712.468 360.001 702.366 360.000 702.365 C 359.999 702.366 349.141 712.468 349.140 712.469 C 349.141 712.466 359.999 682.065 360.000 682.062 Z"/>
<path fill="#0000ff" fill-rule="evenodd" stroke="none" d="M 481.660 449.759 C 481.660 449.760 487.967 467.420 487.968 467.422 C 487.967 467.421 481.660 461.553 481.660 461.553 C 481.659 461.553 475.352 467.421 475.351 467.422 C 475.352 467.420 481.659 449.760 481.660 449.759 Z"/>
<path fill="#be0027" fill-rule="evenodd" stroke="none" d="M 256.259 213.664 C 256.260 213.661 267.118 183.259 267.119 183.256 C 267.118 183.257 256.260 193.360 256.259 193.361 C 256.258 193.360 245.401 183.257 245.400 183.256 C 245.401 183.259 256.258 213.661 256.259 213.664 Z"/>
</g>
</g>
</svg>
