<?xml version="1.0" encoding="utf-8"?>
<!-- Generator: Moho 12.5 build 22414 -->
<!DOCTYPE svg PUBLIC "-//W3C//DTD SVG 1.1//EN" "http://www.w3.org/Graphics/SVG/1.1/DTD/svg11.dtd">
<svg version="1.1" id="Frame_0" xmlns="http://www.w3.org/2000/svg" xmlns:xlink="http://www.w3.org/1999/xlink" width="720px" height="720px">
<g id="clouds">
<g id="clouds">
<path fill="#ffffff" fill-rule="evenodd" stroke="#000000" stroke-width="4" stroke-linejoin="round" d="M 250.559 119.554 C 250.735 93.442 277.202 64.095 317.802 76.822 C 314.003 43.900 365.078 9.495 400.789 51.417 C 422.930 -11.773 510.274 -1.684 519.682 54.466 C 544.546 30.699 573.984 50.447 574.870 69.479 C 613.409 46.977 651.657 81.912 651.821 109.125 C 651.986 136.611 618.781 168.117 576.559 149.928 C 578.612 189.513 521.498 218.598 478.675 169.928 C 470.908 192.767 386.929 229.427 365.097 162.797 C 359.459 175.396 333.888 185.359 321.082 160.566 C 281.515 177.725 250.382 145.942 250.559 119.554 Z"/>
<path fill="#ffffff" fill-rule="evenodd" stroke="#000000" stroke-width="4" stroke-linejoin="round" d="M 599.608 592.116 C 594.184 600.054 582.610 612.182 554.082 604.963 C 545.994 635.452 489.387 659.574 450.005 622.898 C 427.775 649.855 375.728 630.405 376.763 604.754 C 376.807 603.680 376.875 602.281 376.872 601.814 C 366.160 607.689 349.947 607.622 344.555 593.527 C 340.303 598.226 324.854 608.223 311.487 607.344 C 290.598 605.970 272.974 590.977 273.150 570.044 C 273.324 549.391 292.530 527.717 326.722 536.007 C 325.992 502.191 378.184 470.838 418.718 500.756 C 425.403 480.518 453.747 461.250 481.412 461.250 C 512.151 461.250 538.137 481.088 547.198 508.385 C 577.083 491.512 601.810 522.267 604.465 531.463 C 611.866 525.613 622.464 522.699 633.205 523.418 C 655.235 524.893 673.096 541.229 673.096 563.309 C 673.096 585.388 642.648 614.952 599.608 592.116 Z"/>
<path fill="#ffffff" fill-rule="evenodd" stroke="#000000" stroke-width="4" stroke-linejoin="round" d="M 221.169 409.612 C 209.357 434.284 137.970 441.838 120.601 398.103 C 101.790 411.390 78.536 407.331 67.314 381.037 C 35.657 399.851 13.601 371.571 15.593 352.860 C 18.363 326.826 46.206 325.966 54.780 325.948 C 53.861 293.127 91.150 261.718 136.652 285.269 C 148.348 240.737 200.042 248.293 207.223 273.737 C 252.085 226.165 323.714 270.620 315.528 311.940 C 353.197 292.319 390.043 324.987 387.636 351.916 C 385.538 375.384 346.735 394.457 319.731 377.954 C 312.104 411.053 271.663 443.158 221.169 409.612 Z"/>
</g>
<g id="specs_2">
<path fill="#ff0000" fill-rule="evenodd" stroke="none" d="M 360.000 682.463 C 360.001 682.466 370.872 712.905 370.873 712.909 C 370.872 712.907 360.001 702.792 360.000 702.792 C 359.999 702.792 349.128 712.907 349.127 712.909 C 349.128 712.905 359.999 682.466 360.000 682.463 Z"/>
<path fill="#0000ff" fill-rule="evenodd" stroke="none" d="M 566.695 492.313 C 566.696 492.314 573.011 509.996 573.011 509.998 C 573.011 509.997 566.696 504.122 566.695 504.121 C 566.695 504.122 560.380 509.997 560.380 509.998 C 560.380 509.996 566.695 492.314 566.695 492.313 Z"/>
<path fill="#be0027" fill-rule="evenodd" stroke="none" d="M 94.951 259.299 C 94.952 259.302 105.823 289.742 105.824 289.745 C 105.823 289.744 94.952 279.629 94.951 279.628 C 94.950 279.629 84.079 289.744 84.078 289.745 C 84.079 289.742 94.950 259.302 94.951 259.299 Z"/>
<path fill="#ffff00" fill-rule="evenodd" stroke="none" d="M 277.581 437.649 C 277.582 437.646 288.453 407.206 288.454 407.203 C 288.453 407.204 277.582 417.319 277.581 417.320 C 277.580 417.319 266.709 407.204 266.707 407.203 C 266.709 407.206 277.580 437.646 277.581 437.649 Z"/>
</g>
</g>
</svg>
