<?xml version="1.0" encoding="utf-8"?>
<!-- Generator: Moho 12.5 build 22414 -->
<!DOCTYPE svg PUBLIC "-//W3C//DTD SVG 1.1//EN" "http://www.w3.org/Graphics/SVG/1.1/DTD/svg11.dtd">
<svg version="1.1" id="Frame_0" xmlns="http://www.w3.org/2000/svg" xmlns:xlink="http://www.w3.org/1999/xlink" width="720px" height="720px">
<g id="comet">
<g id="comet">
<path fill="#ffffff" fill-rule="evenodd" stroke="#000000" stroke-width="4" stroke-linecap="round" stroke-linejoin="round" d="M 273.935 660.799 C 198.267 591.993 254.846 529.564 237.464 485.768 C 275.626 504.297 240.901 534.571 284.386 546.131 C 251.547 450.387 283.635 436.153 265.328 380.709 C 314.313 405.000 286.960 455.656 311.943 469.365 C 336.678 369.297 266.894 350.413 282.715 282.405 C 302.247 298.286 295.918 312.068 320.104 319.461 C 279.698 234.892 351.834 158.518 359.625 64.504 C 405.988 159.975 342.951 232.309 380.983 269.359 C 399.881 257.818 392.537 237.632 408.074 221.222 C 451.892 320.828 371.755 329.225 414.985 447.747 C 427.276 441.127 410.916 419.108 442.240 387.828 C 432.338 433.530 474.162 442.755 431.358 546.131 C 467.992 544.874 457.715 503.942 482.536 485.768 C 471.696 559.541 500.165 604.670 433.355 664.797 C 394.940 699.369 317.696 700.591 273.935 660.799 Z"/>
<path fill="none" stroke="#000000" stroke-width="4" stroke-linecap="round" stroke-linejoin="round" d="M 422.398 659.043 C 379.733 693.831 326.683 689.411 283.603 652.104 C 222.327 599.041 251.029 552.048 247.306 515.129 C 256.476 549.409 259.133 553.018 297.173 556.736 C 264.022 451.943 290.197 467.877 277.150 399.682 C 295.828 425.622 282.667 469.168 311.891 488.227 C 353.751 415.789 297.739 354.161 289.165 303.338 C 311.072 327.107 308.957 329.955 335.050 333.144 C 294.340 220.566 354.541 180.524 362.206 92.198 C 392.762 190.272 318.939 218.988 382.692 285.969 C 399.953 274.296 401.998 259.650 406.268 239.644 C 433.383 294.454 356.803 373.067 414.149 468.764 C 427.211 465.760 433.147 414.846 434.921 415.584 C 444.194 452.119 449.182 490.909 415.265 558.592 C 449.705 563.772 456.674 551.922 474.551 512.344 C 462.313 572.743 480.814 611.412 422.398 659.043 "/>
<path fill="none" stroke="#000000" stroke-width="4" stroke-linecap="round" stroke-linejoin="round" d="M 323.575 665.313 C 252.813 627.272 257.738 582.059 253.610 551.518 C 262.941 566.898 280.121 569.729 311.662 564.929 "/>
<path fill="none" stroke="#000000" stroke-width="4" stroke-linecap="round" stroke-linejoin="round" d="M 401.255 564.190 C 429.795 571.131 444.325 572.290 462.512 553.172 C 449.988 596.217 447.828 631.383 397.720 663.679 "/>
<path fill="none" stroke="#000000" stroke-width="4" stroke-linecap="round" stroke-linejoin="round" d="M 311.662 564.929 C 288.534 505.297 290.713 498.357 287.692 470.914 C 294.372 486.639 297.289 495.297 315.360 503.992 "/>
<path fill="none" stroke="#000000" stroke-width="4" stroke-linecap="round" stroke-linejoin="round" d="M 412.491 486.338 C 420.772 480.972 428.530 477.139 434.077 461.856 C 426.978 489.313 426.842 516.375 401.255 564.190 "/>
<path fill="none" stroke="#000000" stroke-width="4" stroke-linecap="round" stroke-linejoin="round" d="M 315.360 503.992 C 359.157 449.807 328.225 371.332 310.097 334.979 "/>
<path fill="none" stroke="#000000" stroke-width="4" stroke-linecap="round" stroke-linejoin="round" d="M 400.914 283.454 C 386.035 344.969 359.697 402.549 412.491 486.338 "/>
<path fill="none" stroke="#000000" stroke-width="4" stroke-linecap="round" stroke-linejoin="round" d="M 310.097 334.979 C 323.265 343.941 334.276 348.414 348.680 346.287 "/>
<path fill="none" stroke="#000000" stroke-width="4" stroke-linecap="round" stroke-linejoin="round" d="M 381.718 300.573 C 387.469 298.219 396.543 292.584 400.914 283.454 "/>
<path fill="none" stroke="#000000" stroke-width="4" stroke-linecap="round" stroke-linejoin="round" d="M 348.680 346.287 C 317.846 230.152 339.218 217.634 359.286 150.126 C 359.305 174.093 316.001 260.519 381.718 300.573 "/>
</g>
<g id="circles">
<path fill="#000000" fill-rule="evenodd" stroke="#ffffff" stroke-width="4" stroke-linecap="round" stroke-linejoin="round" d="M 360.000 552.750 C 394.856 552.750 422.974 580.869 422.974 615.725 C 422.974 650.580 394.856 678.699 360.000 678.699 C 325.144 678.699 297.026 650.580 297.026 615.725 C 297.026 580.869 325.144 552.750 360.000 552.750 Z"/>
<path fill="none" stroke="#ffffff" stroke-width="4" stroke-linecap="round" stroke-linejoin="round" d="M 304.274 615.725 C 304.274 584.881 329.156 559.998 360.000 559.998 C 390.844 559.998 415.726 584.880 415.726 615.725 C 415.726 646.569 390.844 671.451 360.000 671.451 C 329.156 671.451 304.274 646.569 304.274 615.725 "/>
<path fill="none" stroke="#ffffff" stroke-width="4" stroke-linecap="round" stroke-linejoin="round" d="M 311.338 615.725 C 311.338 588.790 333.066 567.062 360.000 567.062 C 386.934 567.062 408.663 588.790 408.663 615.725 C 408.663 642.659 386.934 664.387 360.000 664.387 C 333.066 664.387 311.338 642.659 311.338 615.725 "/>
</g>
</g>
</svg>
