<?xml version="1.0" encoding="utf-8"?>
<!-- Generator: Moho 12.5 build 22414 -->
<!DOCTYPE svg PUBLIC "-//W3C//DTD SVG 1.1//EN" "http://www.w3.org/Graphics/SVG/1.1/DTD/svg11.dtd">
<svg version="1.1" id="Frame_0" xmlns="http://www.w3.org/2000/svg" xmlns:xlink="http://www.w3.org/1999/xlink" width="720px" height="720px">
<g id="comet_2">
<g id="comet">
<path fill="#ffffff" fill-rule="evenodd" stroke="#000000" stroke-width="4" stroke-linecap="round" stroke-linejoin="round" d="M 289.751 575.013 C 314.288 521.569 246.303 493.981 275.519 428.371 C 281.258 435.495 286.376 442.680 292.510 446.841 C 274.134 394.799 256.281 391.313 297.991 297.826 C 300.013 312.648 300.990 324.074 306.133 342.464 C 297.074 228.791 348.151 239.743 352.131 46.059 C 408.429 186.000 394.537 215.116 387.086 307.931 C 392.483 292.531 394.654 283.114 410.186 268.578 C 439.441 379.644 431.840 405.767 411.861 458.884 C 420.546 445.488 431.158 441.279 441.691 432.017 C 468.286 495.495 392.413 489.794 431.327 575.727 C 451.783 620.899 434.780 697.708 360.674 697.188 C 302.012 696.776 258.956 642.085 289.751 575.013 Z"/>
<path fill="#ffffff" fill-rule="evenodd" stroke="#000000" stroke-width="4" stroke-linecap="round" stroke-linejoin="round" d="M 300.137 575.202 C 325.284 524.755 275.190 503.715 284.319 453.461 C 295.454 464.159 300.821 468.120 309.315 471.298 C 309.605 430.279 273.244 408.526 294.353 339.084 C 299.691 361.440 307.517 387.711 318.531 396.777 C 309.660 226.378 359.140 234.954 359.639 89.813 C 402.569 217.893 355.539 274.428 382.913 358.338 C 402.169 336.137 389.289 315.650 405.397 291.240 C 436.820 427.885 386.764 444.258 404.726 488.199 C 415.126 462.970 417.984 473.453 434.695 451.694 C 444.733 482.110 377.827 505.448 419.635 575.860 C 441.964 613.464 426.844 688.160 360.000 687.698 C 307.083 687.333 270.435 634.785 300.137 575.202 Z"/>
<path fill="none" stroke="#000000" stroke-width="4" stroke-linecap="round" stroke-linejoin="round" d="M 399.256 501.217 C 382.809 540.799 395.267 577.644 402.434 603.965 M 386.545 437.662 C 373.861 491.548 375.554 550.546 374.364 594.432 M 303.394 480.032 C 312.895 525.423 337.405 519.995 318.223 599.199 M 327.227 456.729 C 346.562 505.361 343.337 545.151 344.705 594.432 M 345.171 336.503 C 341.240 410.644 373.167 451.488 356.293 584.898 "/>
</g>
<g id="circles">
<path fill="#000000" fill-rule="evenodd" stroke="#ffffff" stroke-width="4" stroke-linecap="round" stroke-linejoin="round" d="M 360.000 551.699 C 396.240 551.699 425.475 580.935 425.475 617.175 C 425.475 653.415 396.240 682.651 360.000 682.651 C 323.760 682.651 294.525 653.415 294.525 617.175 C 294.525 580.935 323.760 551.699 360.000 551.699 Z"/>
<path fill="none" stroke="#ffffff" stroke-width="4" stroke-linecap="round" stroke-linejoin="round" d="M 303.922 617.175 C 303.922 586.137 328.961 561.097 360.000 561.097 C 391.039 561.097 416.078 586.136 416.078 617.175 C 416.078 648.214 391.039 673.253 360.000 673.253 C 328.961 673.253 303.922 648.214 303.922 617.175 "/>
<path fill="none" stroke="#ffffff" stroke-width="4" stroke-linecap="round" stroke-linejoin="round" d="M 313.370 617.175 C 313.370 591.366 334.191 570.545 360.000 570.545 C 385.809 570.545 406.630 591.366 406.630 617.175 C 406.630 642.985 385.809 663.805 360.000 663.805 C 334.191 663.805 313.370 642.984 313.370 617.175 "/>
</g>
<g id="specs_2">
<path fill="#ff00ff" fill-rule="evenodd" stroke="none" d="M 278.261 694.903 C 278.278 694.903 441.722 694.903 441.739 694.903 C 441.739 694.887 441.739 531.442 441.739 531.426 C 441.722 531.426 278.278 531.426 278.261 531.426 C 278.261 531.442 278.261 694.887 278.261 694.903 Z"/>
<path fill="#ff0000" fill-rule="evenodd" stroke="none" d="M 357.809 34.996 C 357.810 34.993 366.748 9.966 366.749 9.964 C 366.748 9.965 357.810 18.281 357.809 18.282 C 357.808 18.281 348.870 9.965 348.869 9.964 C 348.870 9.966 357.808 34.993 357.809 34.996 Z"/>
<path fill="#0000ff" fill-rule="evenodd" stroke="none" d="M 360.000 711.001 C 360.001 710.999 366.465 692.898 366.466 692.897 C 366.465 692.897 360.001 698.912 360.000 698.912 C 359.999 698.912 353.535 692.897 353.534 692.897 C 353.535 692.898 359.999 710.999 360.000 711.001 Z"/>
<path fill="#00ff00" fill-rule="evenodd" stroke="none" d="M 215.696 401.199 C 215.698 401.198 233.766 394.642 233.768 394.641 C 233.767 394.642 227.785 401.137 227.785 401.138 C 227.785 401.139 233.833 407.572 233.833 407.573 C 233.831 407.572 215.698 401.200 215.696 401.199 Z"/>
<path fill="#ffff00" fill-rule="evenodd" stroke="none" d="M 256.988 666.521 C 256.989 666.520 265.011 649.053 265.012 649.052 C 265.012 649.052 265.434 657.872 265.434 657.873 C 265.435 657.873 274.262 658.087 274.263 658.087 C 274.261 658.088 256.990 666.521 256.988 666.521 Z"/>
<path fill="#ffff00" fill-rule="evenodd" stroke="none" d="M 463.012 666.307 C 463.011 666.306 454.640 649.004 454.640 649.002 C 454.639 649.003 454.394 657.829 454.394 657.830 C 454.393 657.830 445.572 658.221 445.571 658.221 C 445.573 658.222 463.010 666.307 463.012 666.307 Z"/>
<path fill="#00ff00" fill-rule="evenodd" stroke="none" d="M 504.304 401.199 C 504.302 401.198 486.234 394.642 486.232 394.641 C 486.233 394.642 492.215 401.137 492.215 401.138 C 492.215 401.139 486.167 407.572 486.167 407.573 C 486.169 407.572 504.302 401.200 504.304 401.199 Z"/>
<path fill="#00ffff" fill-rule="evenodd" stroke="none" d="M 462.174 183.394 C 462.173 183.396 455.756 201.514 455.756 201.516 C 455.756 201.515 454.541 192.769 454.540 192.768 C 454.540 192.768 445.729 193.350 445.728 193.350 C 445.730 193.349 462.172 183.395 462.174 183.394 Z"/>
<path fill="#00ffff" fill-rule="evenodd" stroke="none" d="M 257.926 183.994 C 257.927 183.996 265.538 201.646 265.538 201.648 C 265.538 201.647 266.168 192.839 266.168 192.838 C 266.168 192.838 274.998 192.832 274.999 192.832 C 274.997 192.831 257.928 183.995 257.926 183.994 Z"/>
<path fill="#be0027" fill-rule="evenodd" stroke="none" d="M 360.000 79.446 C 360.001 79.450 371.130 110.611 371.131 110.614 C 371.130 110.613 360.001 100.258 360.000 100.257 C 359.999 100.258 348.870 110.613 348.869 110.614 C 348.870 110.611 359.999 79.450 360.000 79.446 Z"/>
</g>
</g>
</svg>
