<?xml version="1.0" encoding="utf-8"?>
<!-- Generator: Moho 12.5 build 22414 -->
<!DOCTYPE svg PUBLIC "-//W3C//DTD SVG 1.1//EN" "http://www.w3.org/Graphics/SVG/1.1/DTD/svg11.dtd">
<svg version="1.1" id="Frame_0" xmlns="http://www.w3.org/2000/svg" xmlns:xlink="http://www.w3.org/1999/xlink" width="720px" height="720px">
<g id="comet_4">
<g id="comet">
<path fill="#ffffff" fill-rule="evenodd" stroke="#000000" stroke-width="3" stroke-linecap="round" stroke-linejoin="round" d="M 360.000 38.910 C 360.007 38.957 409.217 462.180 427.835 508.008 C 440.651 539.554 452.118 570.856 449.550 607.618 C 445.772 661.692 409.565 697.168 360.000 697.168 C 310.435 697.168 273.011 660.402 270.450 607.618 C 268.665 570.810 281.306 540.280 292.165 508.008 C 307.468 462.525 359.993 38.957 360.000 38.910 Z"/>
<path fill="#ffffff" fill-rule="evenodd" stroke="#000000" stroke-width="3" stroke-linecap="round" stroke-linejoin="round" d="M 360.000 174.711 C 360.006 174.746 407.013 484.268 421.173 517.764 C 433.129 546.047 443.071 574.440 440.755 607.592 C 437.348 656.355 404.697 688.346 360.000 688.346 C 315.303 688.346 281.554 655.191 279.245 607.592 C 277.635 574.398 288.627 546.727 298.827 517.764 C 310.547 484.487 359.994 174.746 360.000 174.711 Z"/>
<path fill="#ffffff" fill-rule="evenodd" stroke="#000000" stroke-width="3" stroke-linecap="round" stroke-linejoin="round" d="M 360.000 310.884 C 360.005 310.905 404.678 505.780 414.398 526.898 C 425.815 551.702 433.871 577.297 431.812 606.777 C 428.782 650.140 399.747 678.589 360.000 678.589 C 320.253 678.589 290.242 649.106 288.188 606.777 C 286.756 577.260 295.727 552.356 305.602 526.898 C 313.758 505.871 359.995 310.905 360.000 310.884 Z"/>
</g>
<g id="circles">
<path fill="#000000" fill-rule="evenodd" stroke="#ffffff" stroke-width="3" stroke-linecap="round" stroke-linejoin="round" d="M 360.000 540.765 C 396.537 540.765 426.012 570.240 426.012 606.777 C 426.012 643.315 396.537 672.790 360.000 672.790 C 323.463 672.790 293.988 643.315 293.988 606.777 C 293.988 570.240 323.463 540.765 360.000 540.765 Z"/>
<path fill="none" stroke="#ffffff" stroke-width="3" stroke-linecap="round" stroke-linejoin="round" d="M 303.463 606.777 C 303.463 575.484 328.707 550.240 360.000 550.240 C 391.293 550.240 416.538 575.484 416.538 606.777 C 416.538 638.071 391.293 663.315 360.000 663.315 C 328.707 663.315 303.463 638.070 303.463 606.777 "/>
<path fill="none" stroke="#ffffff" stroke-width="3" stroke-linecap="round" stroke-linejoin="round" d="M 312.988 606.777 C 312.988 580.757 333.979 559.765 360.000 559.765 C 386.021 559.765 407.012 580.756 407.012 606.777 C 407.012 632.799 386.021 653.790 360.000 653.790 C 333.979 653.790 312.988 632.798 312.988 606.777 "/>
</g>
<g id="specs_2">
<path fill="#ff00ff" fill-rule="evenodd" stroke="none" d="M 302.899 663.979 C 302.911 663.979 417.089 663.979 417.101 663.979 C 417.101 663.967 417.101 549.789 417.101 549.777 C 417.089 549.777 302.911 549.777 302.899 549.777 C 302.899 549.789 302.899 663.967 302.899 663.979 Z"/>
<path fill="#ff0000" fill-rule="evenodd" stroke="none" d="M 360.000 34.642 C 360.001 34.639 368.110 11.933 368.111 11.931 C 368.110 11.931 360.001 19.476 360.000 19.477 C 359.999 19.476 351.890 11.931 351.889 11.931 C 351.890 11.933 359.999 34.639 360.000 34.642 Z"/>
<path fill="#0000ff" fill-rule="evenodd" stroke="none" d="M 360.000 708.522 C 360.001 708.520 365.866 692.098 365.866 692.096 C 365.866 692.097 360.001 697.554 360.000 697.554 C 359.999 697.554 354.134 692.097 354.134 692.096 C 354.134 692.098 359.999 708.520 360.000 708.522 Z"/>
<path fill="#00ff00" fill-rule="evenodd" stroke="none" d="M 255.663 410.811 C 255.665 410.810 268.728 406.070 268.730 406.069 C 268.729 406.070 264.404 410.766 264.404 410.767 C 264.404 410.767 268.776 415.419 268.777 415.419 C 268.776 415.419 255.665 410.811 255.663 410.811 Z"/>
<path fill="#ffff00" fill-rule="evenodd" stroke="none" d="M 280.403 669.481 C 280.403 669.479 286.602 655.983 286.602 655.982 C 286.602 655.982 286.929 662.798 286.929 662.798 C 286.930 662.798 293.750 662.963 293.751 662.963 C 293.750 662.964 280.404 669.480 280.403 669.481 Z"/>
<path fill="#ffff00" fill-rule="evenodd" stroke="none" d="M 439.597 669.315 C 439.597 669.314 433.129 655.945 433.128 655.943 C 433.128 655.944 432.939 662.764 432.938 662.765 C 432.938 662.765 426.121 663.067 426.121 663.067 C 426.122 663.068 439.596 669.315 439.597 669.315 Z"/>
<path fill="#00ff00" fill-rule="evenodd" stroke="none" d="M 464.337 410.811 C 464.335 410.810 451.272 406.070 451.270 406.069 C 451.271 406.070 455.596 410.766 455.596 410.767 C 455.596 410.767 451.224 415.419 451.223 415.419 C 451.224 415.419 464.335 410.811 464.337 410.811 Z"/>
<path fill="#00ffff" fill-rule="evenodd" stroke="none" d="M 443.596 214.032 C 443.596 214.034 438.346 228.856 438.346 228.858 C 438.345 228.857 437.351 221.702 437.351 221.701 C 437.351 221.701 430.142 222.177 430.142 222.177 C 430.143 222.176 443.595 214.033 443.596 214.032 Z"/>
<path fill="#00ffff" fill-rule="evenodd" stroke="none" d="M 276.495 214.523 C 276.495 214.525 282.721 228.965 282.722 228.966 C 282.722 228.966 283.237 221.760 283.237 221.759 C 283.238 221.759 290.461 221.753 290.462 221.753 C 290.461 221.753 276.496 214.524 276.495 214.523 Z"/>
<path fill="#be0027" fill-rule="evenodd" stroke="none" d="M 360.000 41.658 C 360.001 41.661 370.098 69.932 370.099 69.935 C 370.098 69.934 360.001 60.540 360.000 60.539 C 359.999 60.540 349.902 69.934 349.901 69.935 C 349.902 69.932 359.999 41.661 360.000 41.658 Z"/>
</g>
</g>
</svg>
