<?xml version="1.0" encoding="utf-8"?>
<!-- Generator: Moho 12.5 build 22414 -->
<!DOCTYPE svg PUBLIC "-//W3C//DTD SVG 1.1//EN" "http://www.w3.org/Graphics/SVG/1.1/DTD/svg11.dtd">
<svg version="1.1" id="Frame_0" xmlns="http://www.w3.org/2000/svg" xmlns:xlink="http://www.w3.org/1999/xlink" width="720px" height="720px">
<g id="comet_3">
<g id="comet">
<path fill="#ffffff" fill-rule="evenodd" stroke="#000000" stroke-width="3" stroke-linecap="round" stroke-linejoin="round" d="M 360.000 38.910 C 360.006 38.957 396.388 463.236 417.069 508.008 C 431.743 539.776 450.295 569.753 449.550 607.618 C 448.484 661.813 409.565 697.168 360.000 697.168 C 310.435 697.168 270.365 660.464 270.450 607.618 C 270.511 569.746 290.232 540.615 302.931 508.008 C 320.294 463.425 359.994 38.957 360.000 38.910 Z"/>
<path fill="#ffffff" fill-rule="evenodd" stroke="#000000" stroke-width="3" stroke-linecap="round" stroke-linejoin="round" d="M 360.000 143.360 C 360.005 143.397 394.706 482.060 411.464 517.764 C 424.871 546.331 441.427 573.446 440.755 607.592 C 439.793 656.464 404.697 688.347 360.000 688.347 C 315.303 688.347 279.169 655.247 279.245 607.592 C 279.300 573.439 296.905 547.099 308.536 517.764 C 322.640 482.195 359.995 143.397 360.000 143.360 Z"/>
<path fill="#ffffff" fill-rule="evenodd" stroke="#000000" stroke-width="3" stroke-linecap="round" stroke-linejoin="round" d="M 360.000 248.095 C 360.005 248.123 392.955 500.340 405.765 526.898 C 417.955 552.173 432.409 576.413 431.812 606.778 C 430.957 650.238 399.747 678.589 360.000 678.589 C 320.253 678.589 288.120 649.156 288.188 606.778 C 288.237 576.407 303.617 552.873 314.235 526.898 C 325.060 500.420 359.995 248.123 360.000 248.095 Z"/>
</g>
<g id="circles">
<path fill="#000000" fill-rule="evenodd" stroke="#ffffff" stroke-width="3" stroke-linecap="round" stroke-linejoin="round" d="M 360.000 540.765 C 396.537 540.765 426.012 570.240 426.012 606.778 C 426.012 643.315 396.537 672.790 360.000 672.790 C 323.463 672.790 293.988 643.315 293.988 606.778 C 293.988 570.240 323.463 540.765 360.000 540.765 Z"/>
<path fill="none" stroke="#ffffff" stroke-width="3" stroke-linecap="round" stroke-linejoin="round" d="M 303.463 606.778 C 303.463 575.484 328.707 550.240 360.000 550.240 C 391.293 550.240 416.538 575.484 416.538 606.778 C 416.538 638.071 391.293 663.315 360.000 663.315 C 328.707 663.315 303.463 638.071 303.463 606.778 "/>
<path fill="none" stroke="#ffffff" stroke-width="3" stroke-linecap="round" stroke-linejoin="round" d="M 312.988 606.778 C 312.988 580.757 333.979 559.765 360.000 559.765 C 386.021 559.765 407.012 580.757 407.012 606.778 C 407.012 632.799 386.021 653.790 360.000 653.790 C 333.979 653.790 312.988 632.799 312.988 606.778 "/>
</g>
<g id="specs_2">
<path fill="#ff00ff" fill-rule="evenodd" stroke="none" d="M 302.899 663.979 C 302.911 663.979 417.089 663.979 417.101 663.979 C 417.101 663.967 417.101 549.789 417.101 549.777 C 417.089 549.777 302.911 549.777 302.899 549.777 C 302.899 549.789 302.899 663.967 302.899 663.979 Z"/>
<path fill="#ff0000" fill-rule="evenodd" stroke="none" d="M 360.000 34.642 C 360.001 34.639 368.110 11.933 368.111 11.931 C 368.110 11.931 360.001 19.476 360.000 19.477 C 359.999 19.476 351.890 11.931 351.889 11.931 C 351.890 11.933 359.999 34.639 360.000 34.642 Z"/>
<path fill="#0000ff" fill-rule="evenodd" stroke="none" d="M 360.000 708.522 C 360.001 708.520 365.866 692.098 365.866 692.096 C 365.866 692.097 360.001 697.554 360.000 697.554 C 359.999 697.554 354.134 692.097 354.134 692.096 C 354.134 692.098 359.999 708.520 360.000 708.522 Z"/>
<path fill="#00ff00" fill-rule="evenodd" stroke="none" d="M 255.663 410.811 C 255.665 410.810 268.728 406.070 268.730 406.070 C 268.729 406.070 264.404 410.766 264.404 410.767 C 264.404 410.767 268.776 415.419 268.777 415.419 C 268.776 415.419 255.665 410.811 255.663 410.811 Z"/>
<path fill="#ffff00" fill-rule="evenodd" stroke="none" d="M 280.403 669.481 C 280.403 669.479 286.602 655.983 286.602 655.982 C 286.602 655.982 286.929 662.798 286.929 662.799 C 286.930 662.799 293.750 662.964 293.751 662.964 C 293.750 662.964 280.404 669.480 280.403 669.481 Z"/>
<path fill="#ffff00" fill-rule="evenodd" stroke="none" d="M 439.597 669.315 C 439.597 669.314 433.129 655.945 433.128 655.943 C 433.128 655.944 432.939 662.764 432.939 662.765 C 432.938 662.765 426.121 663.068 426.121 663.068 C 426.122 663.068 439.596 669.315 439.597 669.315 Z"/>
<path fill="#00ff00" fill-rule="evenodd" stroke="none" d="M 464.337 410.811 C 464.335 410.810 451.272 406.070 451.270 406.070 C 451.271 406.070 455.596 410.766 455.596 410.767 C 455.596 410.767 451.224 415.419 451.223 415.419 C 451.224 415.419 464.335 410.811 464.337 410.811 Z"/>
<path fill="#00ffff" fill-rule="evenodd" stroke="none" d="M 443.596 214.032 C 443.596 214.034 438.346 228.857 438.346 228.858 C 438.345 228.857 437.351 221.702 437.351 221.701 C 437.351 221.701 430.142 222.177 430.142 222.177 C 430.143 222.176 443.595 214.033 443.596 214.032 Z"/>
<path fill="#00ffff" fill-rule="evenodd" stroke="none" d="M 276.495 214.523 C 276.495 214.525 282.721 228.965 282.722 228.966 C 282.722 228.966 283.237 221.760 283.237 221.759 C 283.238 221.759 290.461 221.753 290.462 221.753 C 290.461 221.753 276.496 214.524 276.495 214.523 Z"/>
<path fill="#be0027" fill-rule="evenodd" stroke="none" d="M 360.000 41.658 C 360.001 41.661 370.098 69.932 370.099 69.935 C 370.098 69.934 360.001 60.540 360.000 60.539 C 359.999 60.540 349.902 69.934 349.901 69.935 C 349.902 69.932 359.999 41.661 360.000 41.658 Z"/>
</g>
</g>
</svg>
