<?xml version="1.0" encoding="utf-8"?>
<!-- Generator: Moho 12.5 build 22414 -->
<!DOCTYPE svg PUBLIC "-//W3C//DTD SVG 1.1//EN" "http://www.w3.org/Graphics/SVG/1.1/DTD/svg11.dtd">
<svg version="1.1" id="Frame_0" xmlns="http://www.w3.org/2000/svg" xmlns:xlink="http://www.w3.org/1999/xlink" width="720px" height="720px">
<g id="comet">
<g id="comet">
<path fill="#ffffff" fill-rule="evenodd" stroke="#000000" stroke-width="4" stroke-linecap="round" stroke-linejoin="round" d="M 273.935 660.799 C 198.267 591.993 255.761 529.190 237.464 485.768 C 269.567 500.531 243.121 525.063 279.642 533.479 C 246.513 446.457 283.045 430.944 262.692 381.236 C 297.975 395.765 286.532 427.155 304.563 437.208 C 312.845 353.889 277.177 339.641 286.932 284.513 C 303.214 298.704 302.468 306.122 316.941 312.081 C 277.139 229.952 353.930 156.187 359.625 64.504 C 407.949 158.998 342.951 232.309 380.983 269.359 C 399.881 257.818 392.365 237.467 408.074 221.222 C 448.445 315.689 389.574 326.607 413.931 435.095 C 423.728 428.127 412.822 410.353 442.240 387.828 C 429.747 424.482 476.616 437.785 440.320 535.060 C 470.307 532.966 463.036 501.775 482.536 485.768 C 475.794 560.028 500.165 604.670 433.355 664.797 C 394.940 699.369 317.696 700.591 273.935 660.799 Z"/>
<path fill="none" stroke="#000000" stroke-width="4" stroke-linecap="round" stroke-linejoin="round" d="M 428.122 657.135 C 389.733 690.648 321.135 691.089 282.649 654.966 C 226.863 602.606 252.745 563.173 250.469 525.145 C 263.241 545.678 272.660 549.700 290.847 547.247 C 264.037 469.339 284.230 457.491 279.259 413.915 C 288.272 434.423 291.051 449.669 307.673 461.342 C 332.585 397.406 304.316 350.238 294.437 309.137 C 307.372 322.275 312.488 327.557 333.469 328.927 C 287.253 220.642 356.153 179.181 362.206 92.198 C 394.433 189.736 318.939 218.988 382.692 285.969 C 399.953 274.296 401.937 259.637 406.268 239.644 C 431.901 291.858 371.551 354.602 409.405 457.693 C 420.453 451.261 422.341 438.092 433.339 419.801 C 430.502 452.537 455.073 455.650 425.808 545.414 C 451.217 549.984 461.595 544.487 473.496 516.561 C 459.496 573.328 481.994 610.106 428.122 657.135 "/>
<path fill="none" stroke="#000000" stroke-width="4" stroke-linecap="round" stroke-linejoin="round" d="M 259.836 553.627 C 271.272 566.674 283.465 562.018 309.554 556.494 M 361.739 672.946 C 285.610 673.922 250.912 601.881 259.836 553.627 "/>
<path fill="none" stroke="#000000" stroke-width="4" stroke-linecap="round" stroke-linejoin="round" d="M 458.696 556.034 C 457.584 600.435 430.621 672.062 361.739 672.946 M 408.108 556.810 C 431.144 563.085 442.461 570.052 458.696 556.034 "/>
<path fill="none" stroke="#000000" stroke-width="4" stroke-linecap="round" stroke-linejoin="round" d="M 288.219 458.790 C 293.278 471.128 296.829 477.102 311.143 483.433 M 309.554 556.494 C 282.214 496.503 290.976 487.113 288.219 458.790 "/>
<path fill="none" stroke="#000000" stroke-width="4" stroke-linecap="round" stroke-linejoin="round" d="M 428.279 455.003 C 424.846 478.223 431.972 509.693 408.108 556.810 M 405.638 477.376 C 414.052 472.707 421.174 469.177 428.279 455.003 "/>
<path fill="none" stroke="#000000" stroke-width="4" stroke-linecap="round" stroke-linejoin="round" d="M 311.143 483.433 C 347.659 435.172 330.806 366.866 312.732 336.561 "/>
<path fill="none" stroke="#000000" stroke-width="4" stroke-linecap="round" stroke-linejoin="round" d="M 400.914 283.454 C 386.272 342.066 360.818 394.142 405.638 477.376 "/>
<path fill="none" stroke="#000000" stroke-width="4" stroke-linecap="round" stroke-linejoin="round" d="M 312.732 336.561 C 324.476 343.322 334.498 344.308 346.572 341.543 "/>
<path fill="none" stroke="#000000" stroke-width="4" stroke-linecap="round" stroke-linejoin="round" d="M 381.718 300.573 C 387.469 298.219 396.474 292.551 400.914 283.454 "/>
<path fill="none" stroke="#000000" stroke-width="4" stroke-linecap="round" stroke-linejoin="round" d="M 359.286 150.126 C 359.982 174.083 316.001 260.519 381.718 300.573 M 346.572 341.543 C 310.817 234.008 341.558 216.577 359.286 150.126 "/>
</g>
<g id="circles">
<path fill="#000000" fill-rule="evenodd" stroke="#ffffff" stroke-width="4" stroke-linecap="round" stroke-linejoin="round" d="M 360.000 535.190 C 397.182 535.190 427.177 565.185 427.177 602.367 C 427.177 639.549 397.182 669.545 360.000 669.545 C 322.818 669.545 292.823 639.549 292.823 602.367 C 292.823 565.185 322.818 535.190 360.000 535.190 Z"/>
<path fill="none" stroke="#ffffff" stroke-width="4" stroke-linecap="round" stroke-linejoin="round" d="M 300.555 602.367 C 300.555 569.465 327.097 542.922 360.000 542.922 C 392.903 542.922 419.445 569.465 419.445 602.367 C 419.445 635.270 392.903 661.813 360.000 661.813 C 327.098 661.812 300.555 635.270 300.555 602.367 "/>
<path fill="none" stroke="#ffffff" stroke-width="4" stroke-linecap="round" stroke-linejoin="round" d="M 308.090 602.367 C 308.090 573.635 331.268 550.457 360.000 550.457 C 388.732 550.457 411.910 573.635 411.910 602.367 C 411.910 631.099 388.732 654.278 360.000 654.278 C 331.268 654.278 308.090 631.099 308.090 602.367 "/>
</g>
<g id="specs_2">
<path fill="#ff00ff" fill-rule="evenodd" stroke="none" d="M 267.779 691.503 C 267.798 691.503 452.202 691.503 452.221 691.503 C 452.221 691.485 452.221 507.080 452.221 507.062 C 452.202 507.062 267.798 507.062 267.779 507.062 C 267.779 507.080 267.779 691.485 267.779 691.503 Z"/>
<path fill="#ff0000" fill-rule="evenodd" stroke="none" d="M 360.000 42.926 C 360.001 42.922 371.556 10.567 371.558 10.563 C 371.556 10.564 360.001 21.316 360.000 21.317 C 359.999 21.316 348.444 10.564 348.442 10.563 C 348.444 10.567 359.999 42.922 360.000 42.926 Z"/>
<path fill="#0000ff" fill-rule="evenodd" stroke="none" d="M 360.000 704.458 C 360.001 704.456 366.713 685.661 366.714 685.660 C 366.713 685.660 360.001 691.905 360.000 691.906 C 359.999 691.905 353.287 685.660 353.286 685.660 C 353.287 685.661 359.999 704.456 360.000 704.458 Z"/>
<path fill="#00ff00" fill-rule="evenodd" stroke="none" d="M 210.164 387.828 C 210.166 387.827 228.927 381.020 228.929 381.019 C 228.928 381.020 222.717 387.764 222.716 387.765 C 222.717 387.765 228.996 394.446 228.996 394.446 C 228.995 394.446 210.166 387.828 210.164 387.828 Z"/>
<path fill="#ffff00" fill-rule="evenodd" stroke="none" d="M 253.039 663.321 C 253.040 663.319 261.369 645.184 261.370 645.182 C 261.370 645.183 261.809 654.341 261.809 654.342 C 261.810 654.342 270.975 654.564 270.976 654.564 C 270.974 654.565 253.041 663.320 253.039 663.321 Z"/>
<path fill="#ffff00" fill-rule="evenodd" stroke="none" d="M 466.961 663.099 C 466.960 663.097 458.269 645.132 458.268 645.130 C 458.268 645.131 458.013 654.296 458.013 654.297 C 458.012 654.297 448.852 654.703 448.851 654.703 C 448.853 654.704 466.959 663.098 466.961 663.099 Z"/>
<path fill="#00ff00" fill-rule="evenodd" stroke="none" d="M 509.836 387.828 C 509.834 387.827 491.073 381.020 491.071 381.019 C 491.072 381.020 497.283 387.764 497.284 387.765 C 497.283 387.765 491.004 394.446 491.004 394.446 C 491.006 394.446 509.834 387.828 509.836 387.828 Z"/>
<path fill="#00ffff" fill-rule="evenodd" stroke="none" d="M 466.091 161.673 C 466.090 161.674 459.427 180.487 459.427 180.489 C 459.427 180.488 458.165 171.407 458.165 171.406 C 458.164 171.406 449.016 172.010 449.015 172.010 C 449.016 172.009 466.089 161.674 466.091 161.673 Z"/>
<path fill="#00ffff" fill-rule="evenodd" stroke="none" d="M 254.013 162.296 C 254.014 162.298 261.916 180.624 261.917 180.626 C 261.917 180.625 262.570 171.480 262.570 171.479 C 262.571 171.479 271.739 171.472 271.740 171.472 C 271.739 171.471 254.015 162.297 254.013 162.296 Z"/>
<path fill="#be0027" fill-rule="evenodd" stroke="none" d="M 360.000 53.740 C 360.001 53.743 371.556 86.099 371.558 86.103 C 371.556 86.101 360.001 75.350 360.000 75.349 C 359.999 75.350 348.444 86.101 348.442 86.103 C 348.444 86.099 359.999 53.743 360.000 53.740 Z"/>
</g>
</g>
</svg>
