<?xml version="1.0" encoding="utf-8"?>
<!-- Generator: Moho 12.5 build 22414 -->
<!DOCTYPE svg PUBLIC "-//W3C//DTD SVG 1.1//EN" "http://www.w3.org/Graphics/SVG/1.1/DTD/svg11.dtd">
<svg version="1.1" id="Frame_0" xmlns="http://www.w3.org/2000/svg" xmlns:xlink="http://www.w3.org/1999/xlink" width="720px" height="720px">
<g id="comet">
<g id="comet">
<path fill="#ffffff" fill-rule="evenodd" stroke="#000000" stroke-width="4" stroke-linecap="round" stroke-linejoin="round" d="M 258.519 614.377 C 245.447 552.789 259.913 518.536 251.025 485.768 C 276.559 504.454 261.216 513.311 279.642 533.479 C 261.809 457.253 283.045 430.944 262.692 381.236 C 297.975 395.765 286.532 427.155 304.563 437.208 C 312.845 353.889 277.177 339.641 286.932 284.513 C 303.214 298.704 302.468 306.122 316.941 312.081 C 277.139 229.952 353.930 156.187 359.625 64.504 C 407.949 158.998 342.951 232.309 380.983 269.359 C 399.881 257.818 392.365 237.467 408.074 221.222 C 448.445 315.689 389.574 326.607 413.931 435.095 C 423.728 428.127 412.822 410.353 442.240 387.828 C 429.747 424.482 463.558 442.474 440.320 535.060 C 451.714 527.285 451.592 515.188 467.356 501.961 C 463.883 553.447 468.548 569.377 456.563 621.614 C 446.846 663.967 414.016 703.415 360.000 703.092 C 307.792 702.780 268.899 663.282 258.519 614.377 Z"/>
<path fill="none" stroke="#000000" stroke-width="4" stroke-linecap="round" stroke-linejoin="round" d="M 360.000 693.486 C 303.871 693.354 274.294 644.575 267.852 612.323 C 259.218 569.094 262.323 551.037 262.625 525.145 C 270.278 542.351 276.561 546.858 290.847 547.247 C 276.894 466.045 284.230 457.491 279.259 413.915 C 288.272 434.423 291.051 449.669 307.673 461.342 C 332.585 397.406 304.316 350.238 294.437 309.137 C 307.372 322.275 312.488 327.557 333.469 328.927 C 287.253 220.642 356.153 179.181 362.206 92.198 C 394.433 189.736 318.939 218.988 382.692 285.969 C 399.953 274.296 401.937 259.637 406.268 239.644 C 431.901 291.858 371.551 354.602 409.405 457.693 C 420.453 451.261 422.340 438.092 433.339 419.801 C 430.477 452.795 449.432 453.914 427.427 546.493 C 439.829 546.543 446.660 542.773 458.315 526.817 C 455.065 549.294 458.939 584.306 445.155 627.987 C 433.832 663.871 411.181 693.608 360.000 693.486 "/>
<path fill="none" stroke="#000000" stroke-width="4" stroke-linecap="round" stroke-linejoin="round" d="M 271.942 553.087 C 277.870 563.067 290.840 565.189 304.695 559.193 M 360.000 684.272 C 288.517 683.658 269.459 606.623 271.942 553.087 "/>
<path fill="none" stroke="#000000" stroke-width="4" stroke-linecap="round" stroke-linejoin="round" d="M 444.268 553.335 C 448.075 609.327 431.653 684.887 360.000 684.272 M 414.046 557.350 C 428.326 559.097 436.231 563.458 444.268 553.335 "/>
<path fill="none" stroke="#000000" stroke-width="4" stroke-linecap="round" stroke-linejoin="round" d="M 291.458 460.409 C 295.327 471.770 298.586 477.049 311.143 483.433 M 304.695 559.193 C 294.982 518.621 292.484 488.751 291.458 460.409 "/>
<path fill="none" stroke="#000000" stroke-width="4" stroke-linecap="round" stroke-linejoin="round" d="M 428.279 455.003 C 424.830 478.117 430.817 507.511 414.046 557.350 M 405.638 477.376 C 414.052 472.707 421.155 469.168 428.279 455.003 "/>
<path fill="none" stroke="#000000" stroke-width="4" stroke-linecap="round" stroke-linejoin="round" d="M 311.143 483.433 C 340.491 431.812 330.806 366.866 312.732 336.561 "/>
<path fill="none" stroke="#000000" stroke-width="4" stroke-linecap="round" stroke-linejoin="round" d="M 400.914 283.454 C 386.272 342.066 360.818 394.142 405.638 477.376 "/>
<path fill="none" stroke="#000000" stroke-width="4" stroke-linecap="round" stroke-linejoin="round" d="M 312.732 336.561 C 324.476 343.322 334.498 344.308 346.572 341.543 "/>
<path fill="none" stroke="#000000" stroke-width="4" stroke-linecap="round" stroke-linejoin="round" d="M 381.718 300.573 C 387.469 298.219 396.474 292.551 400.914 283.454 "/>
<path fill="none" stroke="#000000" stroke-width="4" stroke-linecap="round" stroke-linejoin="round" d="M 359.286 150.126 C 359.982 174.083 316.001 260.519 381.718 300.573 M 346.572 341.543 C 310.817 234.008 341.558 216.577 359.286 150.126 "/>
</g>
<g id="circles">
<path fill="#000000" fill-rule="evenodd" stroke="#ffffff" stroke-width="4" stroke-linecap="round" stroke-linejoin="round" d="M 360.000 544.098 C 397.629 544.098 427.985 574.454 427.985 612.083 C 427.985 649.713 397.629 680.069 360.000 680.069 C 322.371 680.069 292.015 649.713 292.015 612.083 C 292.015 574.454 322.371 544.098 360.000 544.098 Z"/>
<path fill="none" stroke="#ffffff" stroke-width="4" stroke-linecap="round" stroke-linejoin="round" d="M 299.840 612.083 C 299.840 578.785 326.702 551.923 360.000 551.923 C 393.298 551.923 420.161 578.785 420.161 612.083 C 420.161 645.382 393.298 672.244 360.000 672.244 C 326.702 672.244 299.840 645.382 299.840 612.083 "/>
<path fill="none" stroke="#ffffff" stroke-width="4" stroke-linecap="round" stroke-linejoin="round" d="M 307.466 612.083 C 307.466 583.006 330.923 559.549 360.000 559.549 C 389.078 559.549 412.535 583.006 412.535 612.083 C 412.535 641.161 389.078 664.618 360.000 664.618 C 330.922 664.618 307.466 641.161 307.466 612.083 "/>
</g>
<g id="specs_2">
<path fill="#ff00ff" fill-rule="evenodd" stroke="none" d="M 275.128 692.791 C 275.145 692.791 444.855 692.791 444.872 692.791 C 444.872 692.774 444.872 523.064 444.872 523.047 C 444.855 523.047 275.145 523.047 275.128 523.047 C 275.128 523.064 275.128 692.774 275.128 692.791 Z"/>
<path fill="#ff0000" fill-rule="evenodd" stroke="none" d="M 360.000 42.926 C 360.001 42.922 371.556 10.567 371.558 10.563 C 371.556 10.564 360.001 21.316 360.000 21.317 C 359.999 21.316 348.444 10.564 348.442 10.563 C 348.444 10.567 359.999 42.922 360.000 42.926 Z"/>
<path fill="#0000ff" fill-rule="evenodd" stroke="none" d="M 360.000 704.458 C 360.001 704.456 366.713 685.661 366.714 685.660 C 366.713 685.660 360.001 691.905 360.000 691.906 C 359.999 691.905 353.287 685.660 353.286 685.660 C 353.287 685.661 359.999 704.456 360.000 704.458 Z"/>
<path fill="#00ff00" fill-rule="evenodd" stroke="none" d="M 210.164 387.828 C 210.166 387.827 228.927 381.020 228.929 381.019 C 228.928 381.020 222.717 387.764 222.716 387.765 C 222.717 387.765 228.996 394.446 228.996 394.446 C 228.995 394.446 210.166 387.828 210.164 387.828 Z"/>
<path fill="#ffff00" fill-rule="evenodd" stroke="none" d="M 253.039 663.321 C 253.040 663.319 261.369 645.184 261.370 645.182 C 261.370 645.183 261.809 654.341 261.809 654.342 C 261.810 654.342 270.975 654.564 270.976 654.564 C 270.974 654.565 253.041 663.320 253.039 663.321 Z"/>
<path fill="#ffff00" fill-rule="evenodd" stroke="none" d="M 466.961 663.099 C 466.960 663.097 458.269 645.132 458.268 645.130 C 458.268 645.131 458.013 654.296 458.013 654.297 C 458.012 654.297 448.852 654.703 448.851 654.703 C 448.853 654.704 466.959 663.098 466.961 663.099 Z"/>
<path fill="#00ff00" fill-rule="evenodd" stroke="none" d="M 509.836 387.828 C 509.834 387.827 491.073 381.020 491.071 381.019 C 491.072 381.020 497.283 387.764 497.284 387.765 C 497.283 387.765 491.004 394.446 491.004 394.446 C 491.006 394.446 509.834 387.828 509.836 387.828 Z"/>
<path fill="#00ffff" fill-rule="evenodd" stroke="none" d="M 466.091 161.673 C 466.090 161.674 459.427 180.487 459.427 180.489 C 459.427 180.488 458.165 171.407 458.165 171.406 C 458.164 171.406 449.016 172.010 449.015 172.010 C 449.016 172.009 466.089 161.674 466.091 161.673 Z"/>
<path fill="#00ffff" fill-rule="evenodd" stroke="none" d="M 254.013 162.296 C 254.014 162.298 261.916 180.624 261.917 180.626 C 261.917 180.625 262.570 171.480 262.570 171.479 C 262.571 171.479 271.739 171.472 271.740 171.472 C 271.739 171.471 254.015 162.297 254.013 162.296 Z"/>
<path fill="#be0027" fill-rule="evenodd" stroke="none" d="M 360.000 53.740 C 360.001 53.743 371.556 86.099 371.558 86.103 C 371.556 86.101 360.001 75.350 360.000 75.349 C 359.999 75.350 348.444 86.101 348.442 86.103 C 348.444 86.099 359.999 53.743 360.000 53.740 Z"/>
</g>
</g>
</svg>
