<?xml version="1.0" encoding="utf-8"?>
<!-- Generator: Moho 12.5 build 22414 -->
<!DOCTYPE svg PUBLIC "-//W3C//DTD SVG 1.1//EN" "http://www.w3.org/Graphics/SVG/1.1/DTD/svg11.dtd">
<svg version="1.1" id="Frame_0" xmlns="http://www.w3.org/2000/svg" xmlns:xlink="http://www.w3.org/1999/xlink" width="720px" height="720px">
<g id="comet">
<g id="comet">
<path fill="#ffffff" fill-rule="evenodd" stroke="#000000" stroke-width="4" stroke-linecap="round" stroke-linejoin="round" d="M 273.935 660.799 C 198.762 591.453 254.846 529.564 237.464 485.768 C 275.626 504.297 240.901 534.571 284.386 546.131 C 251.547 450.387 283.635 436.153 265.328 380.709 C 314.313 405.000 286.960 455.656 311.943 469.365 C 336.678 369.297 266.894 350.413 282.715 282.405 C 302.247 298.286 295.918 312.068 320.104 319.461 C 279.698 234.892 351.834 158.518 359.625 64.504 C 405.988 159.975 342.951 232.309 380.983 269.359 C 399.881 257.818 392.537 237.632 408.074 221.222 C 451.892 320.828 371.755 329.225 414.985 447.747 C 427.276 441.127 410.916 419.108 442.240 387.828 C 432.338 433.530 474.162 442.755 431.358 546.131 C 467.992 544.874 457.673 503.885 482.536 485.768 C 471.520 559.560 502.731 606.064 435.139 665.392 C 386.319 708.244 322.843 705.916 273.935 660.799 Z"/>
<path fill="none" stroke="#000000" stroke-width="4" stroke-linecap="round" stroke-linejoin="round" d="M 422.398 659.043 C 377.853 694.501 324.092 691.643 281.223 652.104 C 221.888 597.377 250.976 551.898 247.306 515.129 C 256.441 549.419 259.133 553.018 297.173 556.736 C 264.022 451.943 290.197 467.877 277.150 399.682 C 295.828 425.622 282.667 469.168 311.891 488.227 C 353.751 415.789 297.739 354.161 289.165 303.338 C 311.072 327.107 308.957 329.955 335.050 333.144 C 294.340 220.566 354.541 180.524 362.206 92.198 C 392.762 190.272 318.939 218.988 382.692 285.969 C 399.953 274.296 401.998 259.650 406.268 239.644 C 433.383 294.454 356.803 373.067 414.149 468.764 C 427.211 465.760 433.147 414.846 434.921 415.584 C 444.194 452.119 449.182 490.909 415.265 558.592 C 449.705 563.772 456.674 551.922 474.551 512.344 C 462.313 572.743 481.370 612.101 422.398 659.043 "/>
<path fill="none" stroke="#000000" stroke-width="4" stroke-linecap="round" stroke-linejoin="round" d="M 288.398 643.559 C 241.974 602.862 257.513 571.334 253.147 549.204 C 260.461 563.841 275.727 567.107 304.719 565.855 "/>
<path fill="none" stroke="#000000" stroke-width="4" stroke-linecap="round" stroke-linejoin="round" d="M 289.815 631.672 C 262.617 602.378 264.243 587.761 262.641 570.634 C 273.581 579.107 279.691 577.089 301.233 576.938 "/>
<path fill="none" stroke="#000000" stroke-width="4" stroke-linecap="round" stroke-linejoin="round" d="M 288.403 612.232 C 274.847 599.220 275.215 592.317 274.001 584.323 C 279.364 588.003 282.176 586.891 292.282 586.238 "/>
<path fill="none" stroke="#000000" stroke-width="4" stroke-linecap="round" stroke-linejoin="round" d="M 409.910 567.861 C 435.135 571.685 447.867 571.105 462.512 553.172 C 454.671 590.414 457.831 620.440 412.597 649.794 "/>
<path fill="none" stroke="#000000" stroke-width="4" stroke-linecap="round" stroke-linejoin="round" d="M 409.959 579.432 C 426.466 583.300 436.441 585.211 451.001 574.606 C 440.662 601.226 438.723 623.689 401.456 639.445 "/>
<path fill="none" stroke="#000000" stroke-width="4" stroke-linecap="round" stroke-linejoin="round" d="M 315.360 503.992 C 295.324 492.492 293.399 481.736 287.229 463.046 C 290.617 495.531 287.899 499.213 311.044 561.695 "/>
<path fill="none" stroke="#000000" stroke-width="4" stroke-linecap="round" stroke-linejoin="round" d="M 399.404 564.653 C 425.619 516.593 427.207 489.648 434.077 461.856 C 428.694 477.197 420.772 480.972 412.491 486.338 "/>
<path fill="none" stroke="#000000" stroke-width="4" stroke-linecap="round" stroke-linejoin="round" d="M 310.097 334.979 C 328.225 371.332 359.017 450.054 315.360 503.992 "/>
<path fill="none" stroke="#000000" stroke-width="4" stroke-linecap="round" stroke-linejoin="round" d="M 412.491 486.338 C 359.697 402.549 386.035 344.969 400.914 283.454 "/>
<path fill="none" stroke="#000000" stroke-width="4" stroke-linecap="round" stroke-linejoin="round" d="M 348.680 346.287 C 334.276 348.414 323.265 343.941 310.097 334.979 "/>
<path fill="none" stroke="#000000" stroke-width="4" stroke-linecap="round" stroke-linejoin="round" d="M 400.914 283.454 C 396.543 292.584 387.469 298.219 381.718 300.573 "/>
<path fill="none" stroke="#000000" stroke-width="4" stroke-linecap="round" stroke-linejoin="round" d="M 381.718 300.573 C 316.001 260.519 359.305 174.093 359.286 150.126 C 339.218 217.634 317.846 230.152 348.680 346.287 "/>
<path fill="#ffffff" fill-rule="evenodd" stroke="#000000" stroke-width="4" stroke-linecap="round" stroke-linejoin="round" d="M 367.630 602.698 C 367.624 602.682 248.019 564.057 303.699 445.222 C 344.415 358.324 327.121 258.209 353.878 214.109 C 399.512 407.868 491.404 484.731 386.091 587.674 C 386.089 587.676 367.632 602.696 367.630 602.698 Z"/>
<path fill="none" stroke="#000000" stroke-width="4" stroke-linecap="round" stroke-linejoin="round" d="M 362.526 591.777 C 357.530 584.069 268.973 550.274 312.562 459.869 C 354.065 373.793 341.831 301.846 353.247 253.031 C 389.874 417.351 474.593 479.276 387.473 568.288 "/>
<path fill="none" stroke="#000000" stroke-width="4" stroke-linecap="round" stroke-linejoin="round" d="M 363.961 574.769 C 358.894 568.277 290.141 542.015 323.481 473.428 C 351.254 416.296 354.339 348.491 358.611 307.027 C 380.556 420.580 450.566 474.738 383.596 557.401 "/>
<path fill="none" stroke="#000000" stroke-width="4" stroke-linecap="round" stroke-linejoin="round" d="M 364.968 559.859 C 357.449 554.360 314.029 526.734 333.855 486.459 C 354.901 443.704 359.246 393.395 363.970 362.485 C 381.182 439.800 423.915 482.627 374.707 544.261 "/>
<path fill="none" stroke="#000000" stroke-width="4" stroke-linecap="round" stroke-linejoin="round" d="M 361.770 546.377 C 357.306 542.546 340.786 524.668 345.777 498.640 C 351.079 470.991 364.843 442.454 368.976 423.668 C 377.631 470.436 396.368 480.881 374.296 536.556 "/>
<path fill="none" stroke="#000000" stroke-width="4" stroke-linecap="round" stroke-linejoin="round" d="M 361.125 534.584 C 356.832 517.690 352.514 500.060 368.221 466.112 C 370.651 489.068 377.017 507.915 365.742 533.552 "/>
</g>
<g id="circles">
<path fill="#000000" fill-rule="evenodd" stroke="#ffffff" stroke-width="4" stroke-linecap="round" stroke-linejoin="round" d="M 360.000 529.794 C 406.574 529.794 444.145 567.366 444.145 613.940 C 444.145 660.514 406.574 698.085 360.000 698.085 C 313.426 698.085 275.855 660.514 275.855 613.940 C 275.855 567.366 313.426 529.794 360.000 529.794 Z"/>
<path fill="none" stroke="#ffffff" stroke-width="4" stroke-linecap="round" stroke-linejoin="round" d="M 304.274 613.940 C 304.274 583.096 329.156 558.214 360.000 558.214 C 390.844 558.214 415.726 583.096 415.726 613.940 C 415.726 644.784 390.844 669.666 360.000 669.666 C 329.156 669.666 304.274 644.784 304.274 613.940 "/>
<path fill="none" stroke="#ffffff" stroke-width="4" stroke-linecap="round" stroke-linejoin="round" d="M 311.338 613.940 C 311.338 587.006 333.066 565.278 360.000 565.278 C 386.934 565.278 408.663 587.005 408.663 613.940 C 408.663 640.874 386.934 662.602 360.000 662.602 C 333.066 662.602 311.338 640.874 311.338 613.940 "/>
<path fill="none" stroke="#ffffff" stroke-width="4" stroke-linecap="round" stroke-linejoin="round" d="M 318.453 613.940 C 318.453 590.944 337.004 572.393 360.000 572.393 C 382.996 572.393 401.547 590.944 401.547 613.940 C 401.547 636.936 382.996 655.487 360.000 655.487 C 337.004 655.487 318.453 636.936 318.453 613.940 "/>
<path fill="none" stroke="#ffffff" stroke-width="4" stroke-linecap="round" stroke-linejoin="round" d="M 325.921 613.940 C 325.921 595.077 341.137 579.861 360.000 579.861 C 378.863 579.861 394.079 595.077 394.080 613.940 C 394.080 632.803 378.863 648.019 360.000 648.019 C 341.137 648.019 325.921 632.803 325.921 613.940 "/>
<path fill="none" stroke="#ffffff" stroke-width="4" stroke-linecap="round" stroke-linejoin="round" d="M 333.070 613.940 C 333.070 599.034 345.094 587.010 360.000 587.010 C 374.906 587.010 386.930 599.034 386.930 613.940 C 386.931 628.846 374.906 640.870 360.000 640.870 C 345.094 640.870 333.070 628.846 333.070 613.940 "/>
<path fill="none" stroke="#ffffff" stroke-width="4" stroke-linecap="round" stroke-linejoin="round" d="M 282.998 613.940 C 282.998 571.320 317.380 536.938 360.000 536.938 C 402.620 536.938 437.002 571.320 437.002 613.940 C 437.002 656.560 402.620 690.942 360.000 690.942 C 317.380 690.942 282.998 656.560 282.998 613.940 "/>
<path fill="none" stroke="#ffffff" stroke-width="4" stroke-linecap="round" stroke-linejoin="round" d="M 289.996 613.940 C 289.996 575.193 321.253 543.935 360.000 543.935 C 398.747 543.935 430.004 575.193 430.004 613.940 C 430.004 652.687 398.747 683.945 360.000 683.945 C 321.253 683.945 289.996 652.687 289.996 613.940 "/>
<path fill="none" stroke="#ffffff" stroke-width="4" stroke-linecap="round" stroke-linejoin="round" d="M 297.026 613.940 C 297.026 579.084 325.144 550.965 360.000 550.965 C 394.856 550.965 422.974 579.084 422.974 613.940 C 422.974 648.796 394.856 676.914 360.000 676.914 C 325.144 676.914 297.026 648.796 297.026 613.940 "/>
</g>
<g id="specs_2">
<path fill="#ff00ff" fill-rule="evenodd" stroke="none" d="M 267.779 691.503 C 267.798 691.503 452.202 691.503 452.221 691.503 C 452.221 691.485 452.221 507.080 452.221 507.062 C 452.202 507.062 267.798 507.062 267.779 507.062 C 267.779 507.080 267.779 691.485 267.779 691.503 Z"/>
<path fill="#ff0000" fill-rule="evenodd" stroke="none" d="M 360.000 42.926 C 360.001 42.922 371.556 10.567 371.558 10.563 C 371.556 10.564 360.001 21.316 360.000 21.317 C 359.999 21.316 348.444 10.564 348.442 10.563 C 348.444 10.567 359.999 42.922 360.000 42.926 Z"/>
<path fill="#0000ff" fill-rule="evenodd" stroke="none" d="M 360.000 704.458 C 360.001 704.456 366.713 685.661 366.714 685.660 C 366.713 685.660 360.001 691.905 360.000 691.906 C 359.999 691.905 353.287 685.660 353.286 685.660 C 353.287 685.661 359.999 704.456 360.000 704.458 Z"/>
<path fill="#00ff00" fill-rule="evenodd" stroke="none" d="M 210.164 387.828 C 210.166 387.827 228.927 381.020 228.929 381.019 C 228.928 381.020 222.717 387.764 222.716 387.765 C 222.717 387.765 228.996 394.446 228.996 394.446 C 228.995 394.446 210.166 387.828 210.164 387.828 Z"/>
<path fill="#ffff00" fill-rule="evenodd" stroke="none" d="M 253.039 663.321 C 253.040 663.319 261.369 645.184 261.370 645.182 C 261.370 645.183 261.809 654.341 261.809 654.342 C 261.810 654.342 270.975 654.564 270.976 654.564 C 270.974 654.565 253.041 663.320 253.039 663.321 Z"/>
<path fill="#ffff00" fill-rule="evenodd" stroke="none" d="M 466.961 663.099 C 466.960 663.097 458.269 645.132 458.268 645.130 C 458.268 645.131 458.013 654.296 458.013 654.297 C 458.012 654.297 448.852 654.703 448.851 654.703 C 448.853 654.704 466.959 663.098 466.961 663.099 Z"/>
<path fill="#00ff00" fill-rule="evenodd" stroke="none" d="M 509.836 387.828 C 509.834 387.827 491.073 381.020 491.071 381.019 C 491.072 381.020 497.283 387.764 497.284 387.765 C 497.283 387.765 491.004 394.446 491.004 394.446 C 491.006 394.446 509.834 387.828 509.836 387.828 Z"/>
<path fill="#00ffff" fill-rule="evenodd" stroke="none" d="M 466.091 161.673 C 466.090 161.674 459.427 180.487 459.427 180.489 C 459.427 180.488 458.165 171.407 458.165 171.406 C 458.164 171.406 449.016 172.010 449.015 172.010 C 449.016 172.009 466.089 161.674 466.091 161.673 Z"/>
<path fill="#00ffff" fill-rule="evenodd" stroke="none" d="M 254.013 162.296 C 254.014 162.298 261.916 180.624 261.917 180.626 C 261.917 180.625 262.570 171.480 262.570 171.479 C 262.571 171.479 271.739 171.472 271.740 171.472 C 271.739 171.471 254.015 162.297 254.013 162.296 Z"/>
<path fill="#be0027" fill-rule="evenodd" stroke="none" d="M 360.000 53.740 C 360.001 53.743 371.556 86.099 371.558 86.103 C 371.556 86.101 360.001 75.350 360.000 75.349 C 359.999 75.350 348.444 86.101 348.442 86.103 C 348.444 86.099 359.999 53.743 360.000 53.740 Z"/>
</g>
</g>
</svg>
