<?xml version="1.0" encoding="utf-8"?>
<!-- Generator: Moho 13.5 build 20210422 -->
<!DOCTYPE svg PUBLIC "-//W3C//DTD SVG 1.1//EN" "http://www.w3.org/Graphics/SVG/1.1/DTD/svg11.dtd">
<svg version="1.1" id="Frame_0" xmlns="http://www.w3.org/2000/svg" xmlns:xlink="http://www.w3.org/1999/xlink" width="720px" height="720px">
<g id="cross_hierophant">
<g id="cross_hierophant">
<path id="S24" fill="#ffffff" fill-rule="evenodd" stroke="#000000" stroke-width="2" stroke-linecap="round" stroke-linejoin="round" d="M 460.197 207.596 C 460.188 207.596 401.415 207.596 371.101 207.596 C 373.322 380.467 377.034 672.677 377.035 672.723 C 377.032 672.723 342.969 672.723 342.965 672.723 C 342.966 672.677 346.883 364.246 348.893 207.596 C 314.645 207.596 259.812 207.596 259.803 207.596 C 259.803 207.594 259.803 185.332 259.803 185.330 C 259.812 185.330 314.645 185.330 348.891 185.330 C 348.888 178.006 348.885 170.350 348.836 163.064 C 322.430 163.064 282.076 163.064 282.069 163.064 C 282.069 163.062 282.069 140.800 282.069 140.798 C 282.076 140.798 322.430 140.798 348.835 140.798 C 348.841 133.286 348.846 125.732 348.833 118.532 C 330.832 118.532 304.340 118.532 304.335 118.532 C 304.335 118.529 304.335 96.268 304.335 96.266 C 304.340 96.266 330.832 96.266 348.832 96.266 C 348.867 75.608 348.867 51.738 348.867 51.733 C 348.869 51.733 371.131 51.733 371.133 51.733 C 371.133 51.738 371.133 82.015 371.120 96.266 C 385.977 96.266 415.661 96.266 415.666 96.266 C 415.666 96.268 415.666 118.529 415.666 118.532 C 415.661 118.532 385.978 118.532 371.122 118.532 C 371.122 125.641 371.122 132.843 371.186 140.798 C 393.251 140.798 437.925 140.798 437.931 140.798 C 437.931 140.800 437.931 163.062 437.931 163.064 C 437.925 163.064 393.251 163.064 371.188 163.064 C 371.186 170.022 371.184 177.050 371.100 185.330 C 401.415 185.330 460.188 185.330 460.197 185.330 C 460.197 185.332 460.197 207.594 460.197 207.596 Z"/>
</g>
<g id="specs_3">
<path fill="#ff0000" fill-rule="evenodd" stroke="none" d="M 360.170 667.658 C 360.171 667.660 368.570 691.179 368.571 691.181 C 368.570 691.181 360.171 683.366 360.170 683.365 C 360.169 683.366 351.769 691.181 351.768 691.181 C 351.769 691.179 360.169 667.660 360.170 667.658 Z"/>
<path fill="#0000ff" fill-rule="evenodd" stroke="none" d="M 360.120 31.995 C 360.121 31.995 363.573 41.663 363.573 41.664 C 363.573 41.664 360.121 38.452 360.120 38.451 C 360.120 38.452 356.667 41.664 356.667 41.664 C 356.667 41.663 360.120 31.995 360.120 31.995 Z"/>
<path fill="#00ff00" fill-rule="evenodd" stroke="none" d="M 196.654 196.118 C 196.654 196.118 206.305 192.616 206.306 192.616 C 206.305 192.616 203.110 196.085 203.110 196.086 C 203.110 196.086 206.340 199.522 206.340 199.523 C 206.340 199.522 196.654 196.118 196.654 196.118 Z"/>
<path fill="#ffff00" fill-rule="evenodd" stroke="none" d="M 244.139 312.088 C 244.139 312.087 248.424 302.758 248.424 302.757 C 248.424 302.758 248.650 307.469 248.650 307.469 C 248.650 307.469 253.365 307.583 253.366 307.583 C 253.365 307.584 244.140 312.087 244.139 312.088 Z"/>
<path fill="#ffff00" fill-rule="evenodd" stroke="none" d="M 475.861 311.974 C 475.861 311.973 471.390 302.731 471.389 302.730 C 471.389 302.731 471.258 307.446 471.258 307.446 C 471.258 307.446 466.546 307.655 466.546 307.655 C 466.547 307.655 475.860 311.973 475.861 311.974 Z"/>
<path fill="#00ff00" fill-rule="evenodd" stroke="none" d="M 523.346 196.118 C 523.346 196.118 513.695 192.616 513.694 192.616 C 513.695 192.616 516.890 196.085 516.890 196.086 C 516.890 196.086 513.660 199.522 513.660 199.523 C 513.661 199.522 523.346 196.118 523.346 196.118 Z"/>
<path fill="#00ffff" fill-rule="evenodd" stroke="none" d="M 475.387 79.778 C 475.386 79.779 471.959 89.456 471.959 89.457 C 471.959 89.456 471.310 84.785 471.310 84.785 C 471.309 84.785 466.604 85.095 466.603 85.095 C 466.604 85.095 475.386 79.778 475.387 79.778 Z"/>
<path fill="#00ffff" fill-rule="evenodd" stroke="none" d="M 244.613 80.099 C 244.614 80.100 248.678 89.526 248.679 89.527 C 248.679 89.527 249.015 84.823 249.015 84.822 C 249.015 84.822 253.732 84.818 253.732 84.818 C 253.731 84.818 244.614 80.099 244.613 80.099 Z"/>
<path fill="#be0027" fill-rule="evenodd" stroke="none" d="M 360.170 692.506 C 360.171 692.504 368.570 668.985 368.571 668.983 C 368.570 668.984 360.171 676.799 360.170 676.800 C 360.169 676.799 351.769 668.984 351.768 668.983 C 351.769 668.985 360.169 692.504 360.170 692.506 Z"/>
</g>
</g>
</svg>
