<?xml version="1.0" encoding="utf-8"?>
<!-- Generator: Moho 13.0.3 build 635 -->
<!DOCTYPE svg PUBLIC "-//W3C//DTD SVG 1.1//EN" "http://www.w3.org/Graphics/SVG/1.1/DTD/svg11.dtd">
<svg version="1.1" id="Frame_0" xmlns="http://www.w3.org/2000/svg" xmlns:xlink="http://www.w3.org/1999/xlink" width="720px" height="720px">
<g id="crown_ornate_2">
<g id="crown_ornate">
<path fill="#000000" fill-rule="evenodd" stroke="#ffffff" stroke-width="4" stroke-linecap="round" stroke-linejoin="round" d="M 360.000 575.825 C 420.889 575.825 547.968 574.857 563.451 566.994 C 561.209 566.895 420.017 558.050 360.002 558.050 C 299.985 558.050 156.569 566.993 156.549 566.994 C 172.671 574.256 299.111 575.825 360.000 575.825 Z"/>
<path fill="#ffffff" fill-rule="evenodd" stroke="#000000" stroke-width="4" stroke-linecap="round" stroke-linejoin="round" d="M 360.007 270.408 C 389.270 244.787 428.592 228.836 470.148 229.862 C 549.233 231.816 636.489 306.158 613.164 372.700 C 604.852 396.412 588.018 418.735 570.963 436.097 C 558.257 451.279 538.283 468.802 538.280 468.806 C 538.277 468.806 521.696 468.903 513.312 468.953 C 417.546 469.515 280.018 470.323 209.710 470.735 C 199.085 470.798 182.904 470.892 182.901 470.892 C 182.897 470.889 162.057 450.415 148.380 433.866 C 131.041 415.193 113.532 392.185 106.836 372.700 C 85.172 309.660 163.146 227.263 249.851 229.862 C 291.402 231.108 330.730 244.787 360.007 270.408 Z"/>
<path fill="none" stroke="#000000" stroke-width="1" stroke-linecap="butt" stroke-linejoin="round" d="M 513.312 468.953 C 417.546 469.515 280.018 470.323 209.710 470.735 "/>
<path fill="#000000" fill-rule="evenodd" stroke="#000000" stroke-width="4" stroke-linecap="round" stroke-linejoin="round" d="M 571.471 388.330 C 560.187 422.166 529.820 453.326 513.312 468.953 C 417.546 469.515 280.018 470.323 209.710 470.735 C 189.527 452.269 153.760 416.861 143.754 388.330 C 125.121 335.193 191.323 265.475 264.565 267.670 C 299.665 268.722 332.888 280.276 357.619 301.920 C 382.339 280.277 415.582 266.039 450.660 267.670 C 517.466 270.777 590.314 331.826 571.471 388.330 Z"/>
<path fill="none" stroke="#ffffff" stroke-width="1" stroke-linecap="butt" stroke-linejoin="round" d="M 563.451 566.994 C 561.209 566.895 420.017 558.050 360.002 558.050 "/>
<path fill="none" stroke="#ffffff" stroke-width="1" stroke-linecap="butt" stroke-linejoin="round" d="M 360.002 558.050 C 299.985 558.050 156.569 566.993 156.549 566.994 "/>
<path fill="#ffffff" fill-rule="evenodd" stroke="#000000" stroke-width="4" stroke-linecap="round" stroke-linejoin="round" d="M 138.493 474.677 C 138.515 474.676 295.309 466.608 360.894 466.619 C 425.953 466.631 581.485 474.676 581.507 474.677 C 581.505 474.686 563.956 567.016 563.451 566.994 C 561.209 566.895 420.017 558.050 360.002 558.050 C 299.985 558.050 156.569 566.993 156.549 566.994 C 156.547 566.984 138.495 474.686 138.493 474.677 Z"/>
<path fill="none" stroke="#ffffff" stroke-width="1" stroke-linecap="butt" stroke-linejoin="round" d="M 581.507 474.677 C 581.485 474.676 425.953 466.631 360.894 466.619 "/>
<path fill="none" stroke="#ffffff" stroke-width="1" stroke-linecap="butt" stroke-linejoin="round" d="M 360.894 466.619 C 295.309 466.608 138.515 474.676 138.493 474.677 "/>
<path fill="#ffffff" fill-rule="evenodd" stroke="#000000" stroke-width="4" stroke-linecap="round" stroke-linejoin="round" d="M 596.798 445.503 C 593.559 451.682 590.737 457.065 588.401 461.524 C 584.181 469.575 583.805 470.293 581.507 474.677 C 581.485 474.676 425.953 466.631 360.894 466.619 C 295.309 466.608 138.515 474.676 138.493 474.677 C 138.492 474.676 133.788 465.699 131.349 461.046 C 128.688 455.969 125.838 450.531 122.983 445.083 C 117.274 434.190 111.219 422.637 105.246 411.241 C 102.461 405.927 99.617 400.500 96.882 395.281 C 87.111 376.638 74.329 352.249 74.326 352.245 C 74.338 352.249 155.879 375.086 187.025 393.056 C 203.905 402.795 207.162 438.208 237.568 433.866 C 271.854 428.971 262.817 388.728 277.800 372.651 C 298.762 350.158 359.992 311.441 360.000 311.435 C 360.008 311.441 421.238 350.158 442.200 372.651 C 457.183 388.728 448.146 428.971 482.432 433.866 C 512.838 438.208 516.095 402.795 532.975 393.056 C 564.122 375.086 645.664 352.249 645.675 352.245 C 645.672 352.249 630.702 380.812 622.964 395.578 C 620.524 400.232 617.632 405.749 614.591 411.552 C 608.792 422.617 602.346 434.915 596.798 445.503 Z"/>
<path fill="#ffffff" fill-rule="evenodd" stroke="#000000" stroke-width="4" stroke-linecap="round" stroke-linejoin="round" d="M 312.258 403.667 C 312.258 377.242 333.575 355.924 360.000 355.924 C 386.425 355.924 407.742 377.242 407.742 403.667 C 407.742 430.092 386.425 451.409 360.000 451.409 C 333.575 451.409 312.258 430.092 312.258 403.667 M 210.290 400.971 C 210.290 388.795 220.112 378.973 232.288 378.973 C 244.463 378.973 254.285 388.795 254.285 400.971 C 254.285 413.146 244.463 422.968 232.288 422.968 C 220.112 422.968 210.290 413.146 210.290 400.971 M 465.715 400.971 C 465.715 388.795 475.538 378.973 487.713 378.973 C 499.889 378.973 509.710 388.796 509.710 400.971 C 509.710 413.146 499.888 422.968 487.713 422.968 C 475.538 422.969 465.716 413.146 465.715 400.971 M 331.291 172.885 C 331.291 156.995 344.110 144.175 360.000 144.175 C 375.890 144.175 388.709 156.995 388.709 172.885 C 388.709 188.775 375.890 201.592 360.000 201.592 C 344.110 201.592 331.292 188.775 331.291 172.885 M 42.175 317.703 C 42.175 299.436 56.912 284.701 75.178 284.701 C 93.445 284.701 108.181 299.436 108.181 317.703 C 108.182 335.970 93.445 350.706 75.178 350.706 C 56.911 350.706 42.175 335.970 42.175 317.703 M 611.820 317.703 C 611.820 299.437 626.555 284.701 644.822 284.701 C 663.088 284.701 677.825 299.436 677.825 317.703 C 677.825 335.970 663.089 350.707 644.822 350.706 C 626.555 350.706 611.819 335.970 611.820 317.703 M 307.120 258.483 C 307.120 229.214 330.731 205.602 360.000 205.602 C 389.269 205.602 412.881 229.214 412.880 258.483 C 412.880 287.751 389.269 311.362 360.000 311.362 C 330.731 311.362 307.120 287.751 307.120 258.483 Z"/>
<path fill="#000000" fill-rule="evenodd" stroke="none" d="M 504.519 519.602 C 504.519 504.674 516.561 492.631 531.489 492.631 C 546.417 492.631 558.461 504.674 558.461 519.602 C 558.461 534.531 546.417 546.574 531.489 546.574 C 516.561 546.574 504.519 534.531 504.519 519.602 M 421.670 515.335 C 421.670 500.406 433.713 488.363 448.641 488.363 C 463.570 488.363 475.614 500.406 475.614 515.335 C 475.614 530.263 463.570 542.306 448.641 542.306 C 433.713 542.306 421.670 530.263 421.670 515.335 M 333.028 514.597 C 333.028 499.669 345.071 487.626 360.000 487.626 C 374.929 487.626 386.972 499.669 386.972 514.597 C 386.972 529.526 374.929 541.569 360.000 541.569 C 345.071 541.569 333.028 529.526 333.028 514.597 Z"/>
<path fill="#000000" fill-rule="evenodd" stroke="none" d="M 360.000 378.942 C 373.685 378.942 384.725 389.982 384.725 403.667 C 384.725 417.352 373.686 428.393 360.000 428.393 C 346.314 428.393 335.275 417.352 335.275 403.667 C 335.275 389.982 346.315 378.942 360.000 378.942 Z"/>
<path fill="#000000" fill-rule="evenodd" stroke="none" d="M 360.000 232.039 C 373.685 232.039 384.725 243.079 384.725 256.764 C 384.725 270.449 373.685 281.490 360.000 281.490 C 346.315 281.490 335.275 270.449 335.275 256.764 C 335.275 243.079 346.315 232.039 360.000 232.039 Z"/>
<path fill="#000000" fill-rule="evenodd" stroke="none" d="M 644.307 301.276 C 653.482 301.276 660.883 308.676 660.883 317.850 C 660.883 327.024 653.482 334.425 644.307 334.425 C 635.133 334.425 627.732 327.024 627.732 317.850 C 627.732 308.676 635.134 301.276 644.307 301.276 Z"/>
<path fill="#000000" fill-rule="evenodd" stroke="none" d="M 75.693 301.274 C 84.867 301.274 92.268 308.676 92.268 317.850 C 92.267 327.024 84.867 334.424 75.693 334.424 C 66.519 334.424 59.119 327.024 59.118 317.850 C 59.118 308.676 66.519 301.274 75.693 301.274 Z"/>
<path fill="#000000" fill-rule="evenodd" stroke="none" d="M 360.000 158.961 C 367.792 158.961 374.078 165.247 374.078 173.039 C 374.078 180.832 367.792 187.118 360.000 187.118 C 352.207 187.118 345.921 180.832 345.921 173.039 C 345.921 165.247 352.207 158.961 360.000 158.961 Z"/>
<path fill="none" stroke="#000000" stroke-width="4" stroke-linecap="round" stroke-linejoin="round" d="M 82.335 368.343 C 82.344 368.347 151.301 388.313 178.156 402.894 C 197.383 413.333 202.478 450.648 236.694 446.387 C 288.138 439.982 270.251 402.265 285.751 384.278 C 306.586 360.100 359.993 327.539 360.000 327.534 C 360.007 327.539 411.625 360.100 434.249 384.278 C 450.472 401.616 431.862 439.088 483.306 446.387 C 517.444 451.231 522.617 413.333 541.844 402.894 C 568.699 388.312 637.657 368.347 637.666 368.343 "/>
<path fill="#000000" fill-rule="evenodd" stroke="none" d="M 221.614 519.602 C 221.614 504.674 209.572 492.631 194.644 492.631 C 179.715 492.631 167.673 504.674 167.673 519.602 C 167.673 534.531 179.715 546.574 194.644 546.574 C 209.572 546.574 221.614 534.531 221.614 519.602 M 304.463 515.335 C 304.463 500.406 292.420 488.363 277.492 488.363 C 262.563 488.363 250.519 500.406 250.519 515.335 C 250.519 530.263 262.563 542.306 277.492 542.306 C 292.420 542.306 304.463 530.263 304.463 515.335 Z"/>
<path fill="none" stroke="#000000" stroke-width="4" stroke-linecap="round" stroke-linejoin="round" d="M 157.910 556.631 C 157.930 556.630 300.991 547.697 360.000 547.676 C 419.811 547.655 496.562 553.646 564.842 556.631 M 143.600 485.977 C 143.622 485.976 296.840 478.845 360.000 478.844 C 423.180 478.844 504.313 483.599 576.469 485.977 "/>
<path fill="none" stroke="#000000" stroke-width="4" stroke-linecap="round" stroke-linejoin="round" d="M 588.401 461.524 C 579.402 456.145 572.842 446.895 570.963 436.097 C 570.617 433.920 570.432 431.784 570.432 429.603 C 570.431 408.955 587.088 392.298 607.737 392.298 C 613.105 392.298 618.204 393.424 622.964 395.578 "/>
<path fill="none" stroke="#000000" stroke-width="4" stroke-linecap="round" stroke-linejoin="round" d="M 96.882 395.281 C 101.294 393.339 106.207 392.298 111.369 392.298 C 132.017 392.298 148.674 408.955 148.674 429.603 C 148.674 431.048 148.592 432.474 148.380 433.866 C 147.104 445.420 140.565 455.348 131.349 461.046 "/>
<path fill="none" stroke="#000000" stroke-width="1" stroke-linecap="butt" stroke-linejoin="round" d="M 122.983 445.083 C 117.274 434.190 111.219 422.637 105.246 411.241 "/>
<path fill="#000000" fill-rule="evenodd" stroke="none" d="M 130.689 429.603 C 130.689 435.912 127.686 441.502 122.983 445.083 C 117.274 434.190 111.219 422.637 105.246 411.241 C 107.174 410.628 109.230 410.283 111.369 410.283 C 122.062 410.283 130.688 418.910 130.689 429.603 Z"/>
<path fill="none" stroke="#000000" stroke-width="1" stroke-linecap="butt" stroke-linejoin="round" d="M 614.591 411.552 C 608.792 422.617 602.346 434.915 596.798 445.503 "/>
<path fill="#000000" fill-rule="evenodd" stroke="none" d="M 607.737 410.283 C 610.196 410.283 612.546 410.740 614.591 411.552 C 608.792 422.617 602.346 434.915 596.798 445.503 C 591.733 442.069 588.417 436.233 588.417 429.603 C 588.417 418.910 597.043 410.283 607.737 410.283 Z"/>
<path fill="#000000" fill-rule="evenodd" stroke="none" d="M 429.301 241.069 C 435.009 241.069 439.613 245.674 439.613 251.382 C 439.613 257.090 435.009 261.694 429.301 261.694 C 423.593 261.694 418.988 257.090 418.988 251.382 C 418.988 245.674 423.593 241.069 429.301 241.069 Z"/>
<path fill="#000000" fill-rule="evenodd" stroke="none" d="M 462.292 237.429 C 468.533 237.429 473.567 242.464 473.567 248.704 C 473.567 254.944 468.533 259.979 462.292 259.979 C 456.052 259.979 451.018 254.944 451.018 248.704 C 451.018 242.464 456.052 237.429 462.292 237.429 Z"/>
<path fill="#000000" fill-rule="evenodd" stroke="none" d="M 496.679 241.069 C 503.822 241.069 509.584 246.831 509.584 253.974 C 509.584 261.116 503.822 266.878 496.679 266.878 C 489.537 266.878 483.775 261.116 483.775 253.974 C 483.775 246.831 489.537 241.069 496.679 241.069 Z"/>
<path fill="#000000" fill-rule="evenodd" stroke="none" d="M 528.709 254.172 C 535.852 254.172 541.613 259.934 541.613 267.077 C 541.613 274.219 535.852 279.981 528.709 279.981 C 521.567 279.981 515.805 274.219 515.805 267.077 C 515.805 259.934 521.567 254.172 528.709 254.172 Z"/>
<path fill="#000000" fill-rule="evenodd" stroke="none" d="M 556.371 272.371 C 563.513 272.371 569.275 278.133 569.275 285.275 C 569.275 292.418 563.513 298.180 556.371 298.180 C 549.228 298.180 543.466 292.418 543.466 285.275 C 543.466 278.133 549.228 272.371 556.371 272.371 Z"/>
<path fill="#000000" fill-rule="evenodd" stroke="none" d="M 580.393 299.304 C 587.535 299.304 593.297 305.066 593.297 312.209 C 593.297 319.351 587.535 325.113 580.393 325.113 C 573.250 325.113 567.489 319.351 567.489 312.209 C 567.489 305.066 573.250 299.304 580.393 299.304 Z"/>
<path fill="#000000" fill-rule="evenodd" stroke="none" d="M 593.496 332.062 C 600.638 332.062 606.400 337.824 606.400 344.966 C 606.400 352.109 600.638 357.871 593.496 357.871 C 586.353 357.871 580.591 352.109 580.591 344.966 C 580.591 337.824 586.353 332.062 593.496 332.062 Z"/>
<path fill="#000000" fill-rule="evenodd" stroke="none" d="M 288.896 241.069 C 283.188 241.069 278.583 245.674 278.583 251.382 C 278.583 257.090 283.188 261.694 288.896 261.694 C 294.604 261.694 299.209 257.090 299.209 251.382 C 299.208 245.674 294.604 241.069 288.896 241.069 Z"/>
<path fill="#000000" fill-rule="evenodd" stroke="none" d="M 255.904 237.429 C 249.664 237.429 244.630 242.464 244.630 248.704 C 244.630 254.944 249.664 259.979 255.904 259.979 C 262.145 259.979 267.179 254.944 267.179 248.704 C 267.179 242.464 262.145 237.429 255.904 237.429 Z"/>
<path fill="#000000" fill-rule="evenodd" stroke="none" d="M 221.517 241.069 C 214.375 241.069 208.613 246.831 208.613 253.974 C 208.613 261.116 214.375 266.878 221.517 266.878 C 228.660 266.878 234.422 261.116 234.422 253.974 C 234.422 246.831 228.660 241.069 221.517 241.069 Z"/>
<path fill="#000000" fill-rule="evenodd" stroke="none" d="M 189.488 254.172 C 182.345 254.172 176.584 259.934 176.584 267.076 C 176.584 274.219 182.345 279.981 189.488 279.981 C 196.630 279.981 202.392 274.219 202.392 267.076 C 202.392 259.934 196.630 254.172 189.488 254.172 Z"/>
<path fill="#000000" fill-rule="evenodd" stroke="none" d="M 161.826 272.371 C 154.684 272.371 148.922 278.133 148.922 285.275 C 148.922 292.418 154.684 298.180 161.826 298.180 C 168.969 298.180 174.730 292.418 174.730 285.275 C 174.730 278.133 168.969 272.371 161.826 272.371 Z"/>
<path fill="#000000" fill-rule="evenodd" stroke="none" d="M 137.804 299.304 C 130.661 299.304 124.900 305.066 124.900 312.209 C 124.900 319.351 130.661 325.113 137.804 325.113 C 144.946 325.113 150.708 319.351 150.708 312.209 C 150.708 305.066 144.946 299.304 137.804 299.304 Z"/>
<path fill="#000000" fill-rule="evenodd" stroke="none" d="M 124.701 332.062 C 117.559 332.062 111.797 337.824 111.797 344.966 C 111.797 352.109 117.559 357.871 124.701 357.871 C 131.844 357.871 137.605 352.109 137.605 344.966 C 137.605 337.824 131.844 332.062 124.701 332.062 Z"/>
</g>
<g id="specs_2">
<path fill="#ff00ff" fill-rule="evenodd" stroke="none" d="M 260.919 459.081 C 260.938 459.081 459.062 459.081 459.081 459.081 C 459.081 459.062 459.081 260.938 459.081 260.919 C 459.062 260.919 260.938 260.919 260.919 260.919 C 260.919 260.938 260.919 459.062 260.919 459.081 Z"/>
<path fill="#ff0000" fill-rule="evenodd" stroke="none" d="M 360.000 625.320 C 360.001 625.323 372.416 660.086 372.417 660.090 C 372.416 660.089 360.001 648.537 360.000 648.536 C 359.999 648.537 347.584 660.089 347.583 660.090 C 347.584 660.086 359.999 625.323 360.000 625.320 Z"/>
<path fill="#0000ff" fill-rule="evenodd" stroke="none" d="M 360.000 127.869 C 360.001 127.871 367.212 148.064 367.213 148.066 C 367.212 148.066 360.001 141.356 360.000 141.355 C 359.999 141.356 352.788 148.066 352.787 148.066 C 352.788 148.064 359.999 127.871 360.000 127.869 Z"/>
<path fill="#00ff00" fill-rule="evenodd" stroke="none" d="M 122.580 475.928 C 122.581 475.928 136.607 470.838 136.609 470.838 C 136.608 470.838 131.964 475.881 131.964 475.881 C 131.964 475.882 136.659 480.876 136.659 480.877 C 136.658 480.876 122.581 475.929 122.580 475.928 Z"/>
<path fill="#ffff00" fill-rule="evenodd" stroke="none" d="M 153.455 577.980 C 153.456 577.979 161.094 561.348 161.095 561.346 C 161.095 561.347 161.497 569.745 161.497 569.746 C 161.498 569.746 169.903 569.950 169.904 569.950 C 169.902 569.951 153.457 577.980 153.455 577.980 Z"/>
<path fill="#ffff00" fill-rule="evenodd" stroke="none" d="M 566.545 577.777 C 566.544 577.775 558.574 561.301 558.573 561.299 C 558.573 561.300 558.339 569.704 558.339 569.705 C 558.339 569.705 549.939 570.078 549.938 570.078 C 549.940 570.078 566.543 577.776 566.545 577.777 Z"/>
<path fill="#00ff00" fill-rule="evenodd" stroke="none" d="M 597.420 475.928 C 597.419 475.928 583.393 470.838 583.391 470.838 C 583.392 470.838 588.036 475.881 588.036 475.881 C 588.036 475.882 583.341 480.876 583.341 480.877 C 583.342 480.876 597.419 475.929 597.420 475.928 Z"/>
<path fill="#00ffff" fill-rule="evenodd" stroke="none" d="M 566.989 244.985 C 566.988 244.986 560.842 262.341 560.841 262.343 C 560.841 262.342 559.678 253.964 559.677 253.963 C 559.677 253.963 551.237 254.521 551.236 254.521 C 551.238 254.520 566.987 244.985 566.989 244.985 Z"/>
<path fill="#00ffff" fill-rule="evenodd" stroke="none" d="M 153.123 245.560 C 153.123 245.561 160.413 262.468 160.414 262.469 C 160.414 262.469 161.016 254.032 161.017 254.031 C 161.017 254.031 169.475 254.025 169.476 254.025 C 169.474 254.024 153.124 245.561 153.123 245.560 Z"/>
<path fill="#be0027" fill-rule="evenodd" stroke="none" d="M 360.000 601.295 C 360.001 601.291 372.416 566.529 372.417 566.525 C 372.416 566.526 360.001 578.078 360.000 578.079 C 359.999 578.078 347.584 566.526 347.583 566.525 C 347.584 566.529 359.999 601.291 360.000 601.295 Z"/>
</g>
</g>
</svg>
