<?xml version="1.0" encoding="utf-8"?>
<!-- Generator: Moho 13.5 build 20210422 -->
<!DOCTYPE svg PUBLIC "-//W3C//DTD SVG 1.1//EN" "http://www.w3.org/Graphics/SVG/1.1/DTD/svg11.dtd">
<svg version="1.1" id="Frame_0" xmlns="http://www.w3.org/2000/svg" xmlns:xlink="http://www.w3.org/1999/xlink" width="720px" height="720px">
<g id="crown_5pt2">
<g id="crown_5pt2.2g">
<path id="S6" fill="#000000" fill-rule="evenodd" stroke="#ffffff" stroke-width="2" stroke-linecap="round" stroke-linejoin="round" d="M 586.261 337.104 C 467.022 382.405 253.151 382.405 134.281 337.104 C 249.663 286.607 449.653 277.578 586.261 337.104 Z"/>
<path fill="none" stroke="#ffffff" stroke-width="1" stroke-linecap="butt" stroke-linejoin="round" d="M 586.261 337.104 C 449.653 277.578 249.663 286.607 134.281 337.104 "/>
<path id="S4" fill="#ffffff" fill-rule="evenodd" stroke="#000000" stroke-width="2" stroke-linecap="round" stroke-linejoin="round" d="M 59.275 132.451 C 59.281 132.454 119.867 168.228 119.872 168.232 C 109.525 279.666 246.443 224.496 171.472 141.836 C 177.394 113.857 185.625 58.512 185.627 58.504 C 185.632 58.510 234.898 114.729 244.341 123.589 C 220.260 230.718 383.320 216.836 314.585 103.344 C 328.247 75.886 360.131 19.946 360.136 19.937 C 360.140 19.946 405.622 103.333 405.627 103.341 C 342.778 218.912 507.422 232.384 476.793 123.770 C 495.008 103.434 534.562 58.879 534.568 58.872 C 534.570 58.881 548.699 142.000 548.701 142.008 C 472.087 221.923 613.472 274.909 600.198 168.555 C 616.826 157.752 660.709 133.124 660.715 133.121 C 660.708 133.141 593.218 319.078 586.261 337.104 C 449.653 277.578 249.663 286.607 134.281 337.104 C 127.842 315.887 59.283 132.471 59.275 132.451 Z"/>
<path id="S5" fill="none" stroke="#000000" stroke-width="2" stroke-linecap="round" stroke-linejoin="round" d="M 600.704 288.401 C 465.676 230.850 243.583 237.696 119.838 289.101 "/>
</g>
<g id="specs_2">
<path fill="#ff00ff" fill-rule="evenodd" stroke="none" d="M 167.897 709.760 C 167.935 709.760 552.065 709.760 552.104 709.760 C 552.104 709.722 552.104 325.591 552.104 325.553 C 552.065 325.553 167.935 325.553 167.897 325.553 C 167.897 325.591 167.897 709.722 167.897 709.760 Z"/>
<path fill="#ff0000" fill-rule="evenodd" stroke="none" d="M 360.000 309.650 C 360.001 309.653 371.213 341.047 371.214 341.050 C 371.213 341.049 360.001 330.617 360.000 330.616 C 359.999 330.617 348.787 341.049 348.786 341.050 C 348.787 341.047 359.999 309.653 360.000 309.650 Z"/>
<path fill="#00ff00" fill-rule="evenodd" stroke="none" d="M 157.595 524.601 C 157.596 524.601 169.554 520.261 169.555 520.261 C 169.555 520.261 165.596 524.560 165.596 524.560 C 165.596 524.561 169.598 528.819 169.599 528.819 C 169.597 528.819 157.596 524.601 157.595 524.601 Z"/>
<path fill="#00ff00" fill-rule="evenodd" stroke="none" d="M 562.405 524.601 C 562.404 524.601 550.446 520.261 550.445 520.261 C 550.445 520.261 554.404 524.560 554.404 524.560 C 554.404 524.561 550.402 528.819 550.402 528.819 C 550.403 528.819 562.404 524.601 562.405 524.601 Z"/>
</g>
</g>
</svg>
