<?xml version="1.0" encoding="utf-8"?>
<!-- Generator: Moho 13.5.1 build 20210623 -->
<!DOCTYPE svg PUBLIC "-//W3C//DTD SVG 1.1//EN" "http://www.w3.org/Graphics/SVG/1.1/DTD/svg11.dtd">
<svg version="1.1" id="Frame_0" xmlns="http://www.w3.org/2000/svg" xmlns:xlink="http://www.w3.org/1999/xlink" width="720px" height="720px">
<g id="crown_hierophant">
<g id="crown_hierophant">
<path id="S6" fill="#000000" fill-rule="evenodd" stroke="#ffffff" stroke-width="2" stroke-linecap="round" stroke-linejoin="round" d="M 554.622 609.645 C 452.056 648.611 268.091 648.611 165.843 609.645 C 265.908 568.125 436.155 560.706 554.622 609.645 Z"/>
<path id="S6_2" fill="#000000" fill-rule="evenodd" stroke="#ffffff" stroke-width="2" stroke-linecap="round" stroke-linejoin="round" d="M 360.074 127.377 C 360.099 127.405 606.867 156.088 613.652 399.414 C 613.604 399.431 243.073 440.187 106.813 399.904 C 113.329 155.965 360.048 127.405 360.074 127.377 Z"/>
<path id="S4_2" fill="#ffffff" fill-rule="evenodd" stroke="#000000" stroke-width="2" stroke-linecap="round" stroke-linejoin="round" d="M 210.009 129.175 C 210.016 129.180 275.737 181.846 275.744 181.851 C 279.905 222.678 333.535 210.767 311.360 161.956 C 313.402 159.127 360.111 51.344 360.116 51.333 C 360.121 51.344 408.817 161.942 408.820 161.953 C 386.558 210.796 440.224 222.795 444.403 182.006 C 466.194 167.031 510.150 129.497 510.157 129.492 C 510.156 129.499 463.708 360.103 453.645 374.688 C 404.481 337.582 308.254 343.744 266.819 375.264 C 256.470 357.699 210.010 129.182 210.009 129.175 Z"/>
<path id="S3" fill="#ffffff" fill-rule="evenodd" stroke="#000000" stroke-width="2" stroke-linecap="round" stroke-linejoin="round" d="M 68.578 284.292 C 68.583 284.296 116.155 324.045 116.160 324.050 C 118.864 419.568 218.792 356.527 177.274 292.094 C 182.113 267.881 190.805 220.387 190.806 220.380 C 190.811 220.386 238.394 272.933 238.398 272.938 C 223.219 358.951 356.304 361.927 322.866 252.833 C 334.450 229.225 359.736 180.177 359.740 180.169 C 359.743 180.177 396.913 252.638 396.916 252.645 C 363.998 361.899 497.056 358.241 481.445 272.488 C 495.545 255.283 528.793 219.861 528.798 219.856 C 528.799 219.863 542.663 291.324 542.665 291.331 C 501.480 355.796 601.709 418.315 603.838 323.113 C 617.283 310.495 651.140 283.421 651.145 283.417 C 651.137 283.440 586.762 488.138 579.551 507.817 C 446.262 452.430 254.065 461.840 141.756 509.484 C 135.023 486.357 68.585 284.315 68.578 284.292 Z"/>
<path fill="none" stroke="#ffffff" stroke-width="1" stroke-linecap="butt" stroke-linejoin="round" d="M 554.622 609.645 C 436.155 560.706 265.908 568.125 165.843 609.645 "/>
<path id="S4" fill="#ffffff" fill-rule="evenodd" stroke="#000000" stroke-width="2" stroke-linecap="round" stroke-linejoin="round" d="M 101.326 398.871 C 101.330 398.875 143.488 438.744 143.492 438.748 C 145.448 525.968 237.431 464.647 197.834 406.944 C 201.953 382.692 210.008 335.272 210.009 335.265 C 210.013 335.270 252.152 387.935 252.156 387.941 C 237.431 464.646 360.074 464.646 327.210 368.046 C 337.830 344.626 360.113 295.482 360.116 295.475 C 360.119 295.482 392.967 368.036 392.971 368.043 C 360.074 464.646 482.717 464.646 467.991 388.096 C 481.239 371.596 510.153 335.587 510.157 335.582 C 510.158 335.589 522.312 407.085 522.313 407.092 C 482.717 464.646 574.699 525.968 576.567 439.025 C 589.137 427.208 618.660 399.452 618.665 399.448 C 618.658 399.469 561.311 591.273 554.622 609.645 C 436.155 560.706 265.908 568.125 165.843 609.645 C 159.745 588.067 101.332 398.893 101.326 398.871 Z"/>
<path id="S5" fill="none" stroke="#000000" stroke-width="2" stroke-linecap="round" stroke-linejoin="round" d="M 567.045 567.752 C 440.973 515.767 259.862 524.137 153.420 568.354 "/>
</g>
<g id="specs_2">
<path fill="#ff00ff" fill-rule="evenodd" stroke="none" d="M 216.050 570.556 C 216.079 570.556 503.922 570.556 503.950 570.556 C 503.950 570.527 503.950 282.684 503.950 282.655 C 503.922 282.655 216.079 282.655 216.050 282.655 C 216.050 282.684 216.050 570.527 216.050 570.556 Z"/>
<path fill="#ff0000" fill-rule="evenodd" stroke="none" d="M 360.000 580.776 C 360.001 580.779 371.601 613.259 371.602 613.262 C 371.601 613.261 360.001 602.468 360.000 602.467 C 359.999 602.468 348.399 613.261 348.398 613.262 C 348.399 613.259 359.999 580.779 360.000 580.776 Z"/>
<path fill="#0000ff" fill-rule="evenodd" stroke="none" d="M 360.000 46.710 C 360.001 46.712 366.295 64.337 366.296 64.339 C 366.295 64.338 360.001 58.482 360.000 58.481 C 359.999 58.482 353.705 64.338 353.704 64.339 C 353.705 64.337 359.999 46.712 360.000 46.710 Z"/>
<path fill="#00ff00" fill-rule="evenodd" stroke="none" d="M 126.741 523.669 C 126.742 523.669 140.522 518.668 140.524 518.668 C 140.523 518.668 135.961 523.622 135.960 523.623 C 135.961 523.623 140.573 528.530 140.573 528.531 C 140.572 528.530 126.742 523.670 126.741 523.669 Z"/>
<path fill="#00ff00" fill-rule="evenodd" stroke="none" d="M 593.259 523.669 C 593.258 523.669 579.477 518.668 579.476 518.668 C 579.477 518.668 584.039 523.622 584.040 523.623 C 584.039 523.623 579.427 528.530 579.427 528.531 C 579.428 528.530 593.258 523.670 593.259 523.669 Z"/>
<path fill="#00ffff" fill-rule="evenodd" stroke="none" d="M 560.006 219.524 C 560.005 219.526 554.066 236.296 554.066 236.297 C 554.065 236.296 552.941 228.201 552.941 228.200 C 552.940 228.200 544.785 228.739 544.784 228.739 C 544.786 228.738 560.004 219.525 560.006 219.524 Z"/>
<path fill="#00ffff" fill-rule="evenodd" stroke="none" d="M 160.091 220.080 C 160.092 220.082 167.136 236.418 167.137 236.419 C 167.137 236.419 167.719 228.266 167.719 228.266 C 167.720 228.266 175.893 228.260 175.893 228.260 C 175.892 228.259 160.093 220.081 160.091 220.080 Z"/>
</g>
</g>
</svg>
