<?xml version="1.0" encoding="utf-8"?>
<!-- Generator: Moho 13.5.1 build 20210623 -->
<!DOCTYPE svg PUBLIC "-//W3C//DTD SVG 1.1//EN" "http://www.w3.org/Graphics/SVG/1.1/DTD/svg11.dtd">
<svg version="1.1" id="Frame_0" xmlns="http://www.w3.org/2000/svg" xmlns:xlink="http://www.w3.org/1999/xlink" width="720px" height="720px">
<g id="crown_5pt">
<g id="crown_5pt">
<radialGradient id="D3A6B0D3-4D70-439F-8893-2197D22DB198_0" cx="50.00%" cy="97.70%" r="184.22%">
<stop offset="25.49%" style="stop-color:rgb(255,255,255);stop-opacity:1.00" />
<stop offset="100.00%" style="stop-color:rgb(0,0,0);stop-opacity:1.00" />
</radialGradient>
<path fill="url(#D3A6B0D3-4D70-439F-8893-2197D22DB198_0)" fill-rule="evenodd" stroke="#000000" stroke-width="4" stroke-linecap="round" stroke-linejoin="round" d="M 110.117 137.095 C 110.128 137.117 220.696 362.207 220.707 362.230 C 220.708 362.202 235.057 81.053 235.058 81.024 C 235.066 81.050 313.561 335.958 313.569 335.984 C 313.573 335.956 359.995 59.578 360.000 59.551 C 360.005 59.578 406.427 335.956 406.431 335.984 C 406.439 335.958 484.934 81.050 484.942 81.024 C 484.943 81.053 499.292 362.202 499.293 362.230 C 499.304 362.207 609.872 137.117 609.883 137.095 C 609.878 137.139 555.023 443.666 556.126 581.336 C 457.870 557.607 262.130 557.608 163.874 581.336 C 164.977 443.666 110.122 137.139 110.117 137.095 Z"/>
<path fill="#ffffff" fill-rule="evenodd" stroke="#000000" stroke-width="4" stroke-linecap="round" stroke-linejoin="round" d="M 85.016 136.344 C 85.016 122.147 96.469 110.694 110.666 110.694 C 124.863 110.694 136.315 122.147 136.315 136.344 C 136.315 150.540 124.863 161.993 110.666 161.993 C 96.469 161.993 85.016 150.540 85.016 136.344 M 583.685 136.344 C 583.685 122.147 595.137 110.694 609.334 110.694 C 623.531 110.694 634.984 122.147 634.984 136.344 C 634.984 150.540 623.531 161.993 609.334 161.993 C 595.137 161.993 583.685 150.540 583.685 136.344 M 209.087 82.659 C 209.088 68.463 220.540 57.010 234.737 57.010 C 248.933 57.010 260.386 68.463 260.386 82.659 C 260.386 96.856 248.933 108.309 234.737 108.309 C 220.540 108.309 209.087 96.856 209.087 82.659 M 459.615 82.659 C 459.615 68.463 471.067 57.010 485.264 57.010 C 499.460 57.010 510.913 68.463 510.913 82.659 C 510.913 96.856 499.461 108.309 485.264 108.309 C 471.067 108.309 459.615 96.856 459.615 82.659 M 334.351 59.993 C 334.351 45.796 345.803 34.344 360.000 34.344 C 374.197 34.344 385.649 45.796 385.649 59.993 C 385.649 74.190 374.197 85.642 360.000 85.642 C 345.803 85.642 334.351 74.190 334.351 59.993 Z"/>
<path fill="none" stroke="#000000" stroke-width="4" stroke-linecap="round" stroke-linejoin="round" d="M 556.126 535.009 C 457.870 511.280 262.130 511.280 163.874 535.009 "/>
<path fill="#000000" fill-rule="evenodd" stroke="#ffffff" stroke-width="4" stroke-linecap="round" stroke-linejoin="round" d="M 359.949 560.752 C 491.431 560.752 556.079 571.862 556.079 581.479 C 556.079 591.096 491.431 602.205 359.949 602.205 C 228.467 602.205 163.820 591.096 163.820 581.479 C 163.820 571.862 228.467 560.752 359.949 560.752 Z"/>
</g>
<g id="specs_2">
<path fill="#ff00ff" fill-rule="evenodd" stroke="none" d="M 260.795 544.116 C 260.815 544.116 459.185 544.116 459.205 544.116 C 459.205 544.096 459.205 345.727 459.205 345.707 C 459.185 345.707 260.815 345.707 260.795 345.707 C 260.795 345.727 260.795 544.096 260.795 544.116 Z"/>
<path fill="#ff0000" fill-rule="evenodd" stroke="none" d="M 360.000 667.168 C 360.001 667.172 372.432 701.978 372.433 701.982 C 372.432 701.980 360.001 690.415 360.000 690.413 C 359.999 690.415 347.568 701.980 347.567 701.982 C 347.568 701.978 359.999 667.172 360.000 667.168 Z"/>
<path fill="#0000ff" fill-rule="evenodd" stroke="none" d="M 360.000 20.916 C 360.001 20.918 367.221 41.137 367.222 41.139 C 367.221 41.138 360.001 34.420 360.000 34.419 C 359.999 34.420 352.779 41.138 352.778 41.139 C 352.779 41.137 359.999 20.918 360.000 20.916 Z"/>
<path fill="#00ff00" fill-rule="evenodd" stroke="none" d="M 146.104 439.587 C 146.105 439.586 158.742 435.001 158.743 435.001 C 158.743 435.001 154.559 439.544 154.559 439.544 C 154.559 439.545 158.788 444.044 158.789 444.045 C 158.787 444.044 146.105 439.587 146.104 439.587 Z"/>
<path fill="#ffff00" fill-rule="evenodd" stroke="none" d="M 162.182 585.978 C 162.183 585.977 169.499 570.049 169.499 570.047 C 169.499 570.048 169.885 578.091 169.885 578.092 C 169.886 578.092 177.935 578.287 177.936 578.287 C 177.934 578.288 162.184 585.978 162.182 585.978 Z"/>
<path fill="#ffff00" fill-rule="evenodd" stroke="none" d="M 557.818 585.783 C 557.817 585.782 550.183 570.003 550.182 570.002 C 550.182 570.003 549.959 578.052 549.959 578.053 C 549.958 578.053 541.913 578.410 541.913 578.410 C 541.914 578.410 557.816 585.783 557.818 585.783 Z"/>
<path fill="#00ff00" fill-rule="evenodd" stroke="none" d="M 573.896 439.587 C 573.895 439.586 561.258 435.001 561.257 435.001 C 561.257 435.001 565.441 439.544 565.441 439.544 C 565.441 439.545 561.212 444.044 561.211 444.045 C 561.213 444.044 573.895 439.587 573.896 439.587 Z"/>
<path fill="#00ffff" fill-rule="evenodd" stroke="none" d="M 638.873 105.648 C 638.872 105.650 630.591 129.033 630.590 129.036 C 630.590 129.035 629.022 117.747 629.021 117.746 C 629.020 117.746 617.649 118.497 617.648 118.497 C 617.650 118.495 638.871 105.649 638.873 105.648 Z"/>
<path fill="#00ffff" fill-rule="evenodd" stroke="none" d="M 81.239 106.423 C 81.240 106.425 91.062 129.204 91.063 129.206 C 91.063 129.205 91.875 117.838 91.875 117.837 C 91.876 117.837 103.272 117.828 103.273 117.828 C 103.271 117.827 81.241 106.424 81.239 106.423 Z"/>
<path fill="#be0027" fill-rule="evenodd" stroke="none" d="M 360.000 625.224 C 360.001 625.221 372.432 590.414 372.433 590.411 C 372.432 590.412 360.001 601.978 360.000 601.979 C 359.999 601.978 347.568 590.412 347.567 590.411 C 347.568 590.414 359.999 625.221 360.000 625.224 Z"/>
</g>
</g>
</svg>
