<?xml version="1.0" encoding="utf-8"?>
<!-- Generator: Moho 13.5 build 20210422 -->
<!DOCTYPE svg PUBLIC "-//W3C//DTD SVG 1.1//EN" "http://www.w3.org/Graphics/SVG/1.1/DTD/svg11.dtd">
<svg version="1.1" id="Frame_0" xmlns="http://www.w3.org/2000/svg" xmlns:xlink="http://www.w3.org/1999/xlink" width="720px" height="720px">
<g id="crown_5pt2">
<g id="crown_5pt2">
<path id="S3" fill="#000000" fill-rule="evenodd" stroke="#ffffff" stroke-width="2" stroke-linecap="round" stroke-linejoin="round" d="M 591.916 292.793 C 540.224 360.000 179.776 360.000 128.649 292.793 C 179.776 219.826 540.224 219.826 591.916 292.793 Z"/>
<path fill="none" stroke="#ffffff" stroke-width="1" stroke-linecap="butt" stroke-linejoin="round" d="M 591.916 292.793 C 540.224 219.826 179.776 219.826 128.649 292.793 "/>
<path id="S1" fill="#ffffff" fill-rule="evenodd" stroke="#000000" stroke-width="2" stroke-linecap="round" stroke-linejoin="round" d="M 51.770 115.610 C 51.780 115.617 152.250 188.238 152.260 188.246 C 152.263 188.233 181.274 57.691 181.277 57.678 C 181.287 57.687 281.712 153.621 281.722 153.630 C 281.730 153.617 360.136 21.450 360.144 21.437 C 360.152 21.450 438.434 153.611 438.442 153.624 C 438.452 153.615 538.923 57.977 538.933 57.967 C 538.935 57.980 567.901 188.214 567.903 188.227 C 567.913 188.220 668.220 116.142 668.230 116.134 C 668.222 116.152 598.459 276.969 591.916 292.793 C 540.224 219.826 179.776 219.826 128.649 292.793 C 122.496 274.133 51.778 115.627 51.770 115.610 Z"/>
<path id="S2" fill="none" stroke="#000000" stroke-width="2" stroke-linecap="round" stroke-linejoin="round" d="M 600.299 259.875 C 520.199 179.776 199.801 179.776 119.701 259.875 "/>
</g>
<g id="specs_2">
<path fill="#ff00ff" fill-rule="evenodd" stroke="none" d="M 147.019 700.866 C 147.061 700.866 572.939 700.866 572.981 700.866 C 572.981 700.824 572.981 274.946 572.981 274.903 C 572.939 274.903 147.061 274.903 147.019 274.903 C 147.019 274.946 147.019 700.824 147.019 700.866 Z"/>
<path fill="#ff0000" fill-rule="evenodd" stroke="none" d="M 360.000 263.668 C 360.001 263.672 372.432 298.478 372.433 298.481 C 372.432 298.480 360.001 286.914 360.000 286.913 C 359.999 286.914 347.568 298.480 347.567 298.481 C 347.568 298.478 359.999 263.672 360.000 263.668 Z"/>
<path fill="#00ff00" fill-rule="evenodd" stroke="none" d="M 135.598 495.584 C 135.599 495.584 148.856 490.773 148.858 490.772 C 148.857 490.773 144.468 495.539 144.468 495.539 C 144.468 495.540 148.905 500.260 148.906 500.261 C 148.904 500.260 135.599 495.585 135.598 495.584 Z"/>
<path fill="#00ff00" fill-rule="evenodd" stroke="none" d="M 584.402 495.584 C 584.401 495.584 571.144 490.773 571.142 490.772 C 571.143 490.773 575.532 495.539 575.532 495.539 C 575.532 495.540 571.095 500.260 571.094 500.261 C 571.096 500.260 584.401 495.585 584.402 495.584 Z"/>
</g>
</g>
</svg>
