<?xml version="1.0" encoding="utf-8"?>
<!-- Generator: Moho 13.5 build 20210422 -->
<!DOCTYPE svg PUBLIC "-//W3C//DTD SVG 1.1//EN" "http://www.w3.org/Graphics/SVG/1.1/DTD/svg11.dtd">
<svg version="1.1" id="Frame_0" xmlns="http://www.w3.org/2000/svg" xmlns:xlink="http://www.w3.org/1999/xlink" width="720px" height="720px">
<g id="crown_5pt2">
<g id="crown_5pt2">
<path id="S3" fill="#000000" fill-rule="evenodd" stroke="#ffffff" stroke-width="2" stroke-linecap="round" stroke-linejoin="round" d="M 591.916 292.793 C 574.586 334.695 147.043 334.246 128.649 292.793 C 207.565 228.709 520.022 231.074 591.916 292.793 Z"/>
<path fill="none" stroke="#ffffff" stroke-width="1" stroke-linecap="butt" stroke-linejoin="round" d="M 591.916 292.793 C 520.022 231.074 207.565 228.709 128.649 292.793 "/>
<path id="S1" fill="#ffffff" fill-rule="evenodd" stroke="#000000" stroke-width="2" stroke-linecap="round" stroke-linejoin="round" d="M 51.770 115.610 C 51.780 115.617 152.250 188.238 152.260 188.246 C 152.263 188.233 181.274 57.691 181.277 57.678 C 181.287 57.687 281.712 153.621 281.722 153.630 C 281.730 153.617 360.136 21.450 360.144 21.437 C 360.152 21.450 438.434 153.611 438.442 153.624 C 438.452 153.615 538.923 57.977 538.933 57.967 C 538.935 57.980 567.901 188.214 567.903 188.227 C 567.913 188.220 668.220 116.142 668.230 116.134 C 668.222 116.152 598.459 276.969 591.916 292.793 C 520.022 231.074 207.565 228.709 128.649 292.793 C 122.496 274.133 51.778 115.627 51.770 115.610 Z"/>
<path id="S2" fill="none" stroke="#000000" stroke-width="2" stroke-linecap="round" stroke-linejoin="round" d="M 606.525 255.826 C 518.075 183.191 208.126 181.041 114.040 256.351 "/>
</g>
<g id="specs_2">
<path fill="#ff00ff" fill-rule="evenodd" stroke="none" d="M 151.892 695.993 C 151.934 695.993 568.066 695.993 568.108 695.993 C 568.108 695.951 568.108 279.819 568.108 279.777 C 568.066 279.777 151.934 279.777 151.892 279.777 C 151.892 279.819 151.892 695.951 151.892 695.993 Z"/>
<path fill="#ff0000" fill-rule="evenodd" stroke="none" d="M 360.000 297.322 C 360.001 297.326 372.432 332.132 372.433 332.135 C 372.432 332.134 360.001 320.568 360.000 320.567 C 359.999 320.568 347.568 332.134 347.567 332.135 C 347.568 332.132 359.999 297.326 360.000 297.322 Z"/>
<path fill="#00ff00" fill-rule="evenodd" stroke="none" d="M 138.221 495.583 C 138.222 495.583 151.325 490.828 151.326 490.828 C 151.326 490.828 146.988 495.538 146.987 495.539 C 146.988 495.539 151.373 500.205 151.373 500.205 C 151.372 500.205 138.222 495.584 138.221 495.583 Z"/>
<path fill="#00ff00" fill-rule="evenodd" stroke="none" d="M 581.779 495.583 C 581.778 495.583 568.675 490.828 568.674 490.828 C 568.674 490.828 573.012 495.538 573.013 495.539 C 573.012 495.539 568.627 500.205 568.627 500.205 C 568.628 500.205 581.778 495.584 581.779 495.583 Z"/>
</g>
</g>
</svg>
