<?xml version="1.0" encoding="utf-8"?>
<!-- Generator: Moho 12.5 build 22414 -->
<!DOCTYPE svg PUBLIC "-//W3C//DTD SVG 1.1//EN" "http://www.w3.org/Graphics/SVG/1.1/DTD/svg11.dtd">
<svg version="1.1" id="Frame_0" xmlns="http://www.w3.org/2000/svg" xmlns:xlink="http://www.w3.org/1999/xlink" width="720px" height="720px">
<g id="crown_5pt">
<g id="crown_5pt">
<path fill="#ffffff" fill-rule="evenodd" stroke="#000000" stroke-width="4" stroke-linecap="round" stroke-linejoin="round" d="M 110.427 137.372 C 110.438 137.395 220.869 362.205 220.880 362.227 C 220.882 362.199 235.212 81.400 235.213 81.372 C 235.221 81.397 313.619 335.988 313.627 336.014 C 313.631 335.986 359.995 59.952 360.000 59.925 C 360.005 59.952 406.369 335.986 406.373 336.014 C 406.381 335.988 484.779 81.397 484.787 81.372 C 484.788 81.400 499.118 362.199 499.120 362.227 C 499.131 362.205 609.562 137.395 609.573 137.372 C 609.567 137.417 554.780 443.562 555.883 581.061 C 457.748 557.362 262.252 557.362 164.117 581.061 C 165.220 443.562 110.433 137.417 110.427 137.372 Z"/>
<path fill="#ffffff" fill-rule="evenodd" stroke="#000000" stroke-width="4" stroke-linecap="round" stroke-linejoin="round" d="M 85.359 136.622 C 85.359 122.443 96.797 111.005 110.976 111.005 C 125.155 111.005 136.593 122.443 136.593 136.622 C 136.593 150.801 125.155 162.239 110.976 162.239 C 96.797 162.239 85.359 150.801 85.359 136.622 M 583.407 136.622 C 583.407 122.443 594.845 111.005 609.024 111.005 C 623.203 111.005 634.641 122.443 634.641 136.622 C 634.641 150.801 623.203 162.239 609.024 162.239 C 594.845 162.239 583.407 150.801 583.407 136.622 M 209.275 83.005 C 209.275 68.826 220.714 57.387 234.893 57.387 C 249.072 57.387 260.510 68.826 260.510 83.005 C 260.510 97.184 249.072 108.622 234.893 108.622 C 220.714 108.622 209.275 97.184 209.275 83.005 M 459.491 83.005 C 459.491 68.826 470.929 57.387 485.108 57.387 C 499.287 57.387 510.725 68.826 510.725 83.005 C 510.725 97.184 499.287 108.622 485.108 108.622 C 470.929 108.622 459.491 97.184 459.491 83.005 M 334.383 60.366 C 334.383 46.187 345.821 34.749 360.000 34.749 C 374.179 34.749 385.617 46.187 385.617 60.366 C 385.617 74.545 374.179 85.984 360.000 85.984 C 345.821 85.984 334.383 74.545 334.383 60.366 Z"/>
<path fill="none" stroke="#000000" stroke-width="4" stroke-linecap="round" stroke-linejoin="round" d="M 555.883 534.791 C 457.748 511.092 262.252 511.092 164.117 534.791 "/>
<path fill="#000000" fill-rule="evenodd" stroke="#ffffff" stroke-width="4" stroke-linecap="round" stroke-linejoin="round" d="M 359.949 560.502 C 491.267 560.502 555.834 571.598 555.834 581.203 C 555.834 590.808 491.267 601.904 359.949 601.904 C 228.631 601.904 164.064 590.808 164.064 581.203 C 164.064 571.598 228.631 560.502 359.949 560.502 Z"/>
</g>
<g id="specs_2">
<path fill="#ff00ff" fill-rule="evenodd" stroke="none" d="M 260.919 543.887 C 260.938 543.887 459.062 543.887 459.081 543.887 C 459.081 543.868 459.081 345.745 459.081 345.725 C 459.062 345.725 260.938 345.725 260.919 345.725 C 260.919 345.745 260.919 543.868 260.919 543.887 Z"/>
<path fill="#ff0000" fill-rule="evenodd" stroke="none" d="M 360.000 666.786 C 360.001 666.790 372.416 701.553 372.417 701.556 C 372.416 701.555 360.001 690.004 360.000 690.002 C 359.999 690.004 347.584 701.555 347.583 701.556 C 347.584 701.553 359.999 666.790 360.000 666.786 Z"/>
<path fill="#0000ff" fill-rule="evenodd" stroke="none" d="M 360.000 21.338 C 360.001 21.340 367.212 41.533 367.213 41.535 C 367.212 41.535 360.001 34.825 360.000 34.824 C 359.999 34.825 352.788 41.535 352.787 41.535 C 352.788 41.533 359.999 21.340 360.000 21.338 Z"/>
<path fill="#00ff00" fill-rule="evenodd" stroke="none" d="M 146.370 439.488 C 146.372 439.487 158.992 434.908 158.994 434.908 C 158.993 434.908 154.815 439.445 154.814 439.445 C 154.815 439.446 159.039 443.940 159.039 443.940 C 159.038 443.940 146.372 439.488 146.370 439.488 Z"/>
<path fill="#ffff00" fill-rule="evenodd" stroke="none" d="M 162.428 585.698 C 162.429 585.696 169.736 569.788 169.736 569.786 C 169.736 569.787 170.121 577.820 170.121 577.821 C 170.122 577.821 178.161 578.016 178.162 578.016 C 178.161 578.017 162.430 585.697 162.428 585.698 Z"/>
<path fill="#ffff00" fill-rule="evenodd" stroke="none" d="M 557.572 585.503 C 557.571 585.501 549.946 569.742 549.946 569.741 C 549.946 569.742 549.723 577.781 549.722 577.782 C 549.722 577.782 541.687 578.138 541.686 578.138 C 541.688 578.139 557.570 585.502 557.572 585.503 Z"/>
<path fill="#00ff00" fill-rule="evenodd" stroke="none" d="M 573.630 439.488 C 573.629 439.487 561.008 434.908 561.006 434.908 C 561.007 434.908 565.185 439.445 565.186 439.445 C 565.185 439.446 560.961 443.940 560.961 443.940 C 560.962 443.940 573.629 439.488 573.630 439.488 Z"/>
<path fill="#00ffff" fill-rule="evenodd" stroke="none" d="M 638.526 105.964 C 638.525 105.967 630.254 129.321 630.253 129.323 C 630.253 129.322 628.687 118.048 628.687 118.047 C 628.686 118.047 617.329 118.797 617.328 118.797 C 617.330 118.796 638.524 105.966 638.526 105.964 Z"/>
<path fill="#00ffff" fill-rule="evenodd" stroke="none" d="M 81.586 106.739 C 81.587 106.741 91.396 129.491 91.397 129.494 C 91.397 129.493 92.208 118.140 92.209 118.138 C 92.210 118.138 103.591 118.130 103.592 118.130 C 103.590 118.128 81.588 106.740 81.586 106.739 Z"/>
<path fill="#be0027" fill-rule="evenodd" stroke="none" d="M 360.000 624.894 C 360.001 624.891 372.416 590.128 372.417 590.124 C 372.416 590.125 360.001 601.677 360.000 601.678 C 359.999 601.677 347.584 590.125 347.583 590.124 C 347.584 590.128 359.999 624.891 360.000 624.894 Z"/>
</g>
</g>
</svg>
