<?xml version="1.0" encoding="utf-8"?>
<!-- Generator: Moho 13.5 build 20210422 -->
<!DOCTYPE svg PUBLIC "-//W3C//DTD SVG 1.1//EN" "http://www.w3.org/Graphics/SVG/1.1/DTD/svg11.dtd">
<svg version="1.1" id="Frame_0" xmlns="http://www.w3.org/2000/svg" xmlns:xlink="http://www.w3.org/1999/xlink" width="720px" height="720px">
<g id="crown_hierophant">
<g id="crown_hierophant">
<path id="S6" fill="#000000" fill-rule="evenodd" stroke="#ffffff" stroke-width="2" stroke-linecap="round" stroke-linejoin="round" d="M 554.622 609.645 C 452.056 648.611 268.091 648.611 165.843 609.645 C 265.908 568.125 436.155 560.706 554.622 609.645 Z"/>
<path id="S6_2" fill="#000000" fill-rule="evenodd" stroke="#ffffff" stroke-width="2" stroke-linecap="round" stroke-linejoin="round" d="M 360.074 127.377 C 360.099 127.405 606.867 156.088 613.652 399.414 C 613.604 399.431 243.073 440.187 106.813 399.904 C 113.329 155.965 360.048 127.405 360.074 127.377 Z"/>
<path id="S4_2" fill="#ffffff" fill-rule="evenodd" stroke="#000000" stroke-width="2" stroke-linecap="round" stroke-linejoin="round" d="M 210.009 129.175 C 210.016 129.180 275.737 181.846 275.744 181.851 C 279.905 222.678 333.535 210.767 311.360 161.956 C 313.402 159.127 360.111 51.344 360.116 51.333 C 360.121 51.344 408.817 161.942 408.820 161.953 C 386.558 210.796 440.224 222.795 444.403 182.006 C 466.194 167.031 510.150 129.497 510.157 129.492 C 510.156 129.499 463.708 360.103 453.645 374.688 C 404.481 337.582 308.254 343.744 266.819 375.264 C 256.470 357.699 210.010 129.182 210.009 129.175 Z"/>
<path id="S3" fill="#ffffff" fill-rule="evenodd" stroke="#000000" stroke-width="2" stroke-linecap="round" stroke-linejoin="round" d="M 68.578 284.292 C 68.583 284.296 116.155 324.045 116.160 324.050 C 118.864 419.568 218.792 356.527 177.274 292.094 C 182.113 267.881 190.805 220.387 190.806 220.380 C 190.811 220.386 238.394 272.933 238.398 272.938 C 223.219 358.951 356.304 361.927 322.866 252.833 C 334.450 229.225 359.736 180.177 359.740 180.169 C 359.743 180.177 396.913 252.638 396.916 252.645 C 363.998 361.899 497.056 358.241 481.445 272.488 C 495.545 255.283 528.793 219.861 528.798 219.856 C 528.799 219.863 542.663 291.324 542.665 291.331 C 501.480 355.796 601.709 418.315 603.838 323.113 C 617.283 310.495 651.140 283.421 651.145 283.417 C 651.137 283.440 586.762 488.138 579.551 507.817 C 446.262 452.430 254.065 461.840 141.756 509.484 C 135.023 486.357 68.585 284.315 68.578 284.292 Z"/>
<path fill="none" stroke="#ffffff" stroke-width="1" stroke-linecap="butt" stroke-linejoin="round" d="M 554.622 609.645 C 436.155 560.706 265.908 568.125 165.843 609.645 "/>
<path id="S4" fill="#ffffff" fill-rule="evenodd" stroke="#000000" stroke-width="2" stroke-linecap="round" stroke-linejoin="round" d="M 101.326 398.871 C 101.330 398.875 143.488 438.744 143.492 438.748 C 145.448 525.968 237.431 464.647 197.834 406.944 C 201.953 382.692 210.008 335.272 210.009 335.265 C 210.013 335.270 252.152 387.935 252.156 387.941 C 237.431 464.646 360.074 464.646 327.210 368.046 C 337.830 344.626 360.113 295.482 360.116 295.475 C 360.119 295.482 392.967 368.036 392.971 368.043 C 360.074 464.646 482.717 464.646 467.991 388.096 C 481.239 371.596 510.153 335.587 510.157 335.582 C 510.158 335.589 522.312 407.085 522.313 407.092 C 482.717 464.646 574.699 525.968 576.567 439.025 C 589.137 427.208 618.660 399.452 618.665 399.448 C 618.658 399.469 561.311 591.273 554.622 609.645 C 436.155 560.706 265.908 568.125 165.843 609.645 C 159.745 588.067 101.332 398.893 101.326 398.871 Z"/>
<path id="S5" fill="none" stroke="#000000" stroke-width="2" stroke-linecap="round" stroke-linejoin="round" d="M 567.045 567.752 C 440.973 515.767 259.862 524.137 153.420 568.354 "/>
</g>
<g id="specs_2">
<path fill="#ff00ff" fill-rule="evenodd" stroke="none" d="M 267.427 577.135 C 267.446 577.135 452.554 577.135 452.573 577.135 C 452.573 577.117 452.573 392.008 452.573 391.989 C 452.554 391.989 267.446 391.989 267.427 391.989 C 267.427 392.008 267.427 577.117 267.427 577.135 Z"/>
<path fill="#ff0000" fill-rule="evenodd" stroke="none" d="M 360.000 580.776 C 360.001 580.779 371.601 613.259 371.602 613.262 C 371.601 613.261 360.001 602.468 360.000 602.467 C 359.999 602.468 348.399 613.261 348.398 613.262 C 348.399 613.259 359.999 580.779 360.000 580.776 Z"/>
<path fill="#0000ff" fill-rule="evenodd" stroke="none" d="M 360.000 27.030 C 360.001 27.032 366.739 45.899 366.739 45.901 C 366.739 45.900 360.001 39.631 360.000 39.630 C 359.999 39.631 353.261 45.900 353.261 45.901 C 353.261 45.899 359.999 27.032 360.000 27.030 Z"/>
<path fill="#00ff00" fill-rule="evenodd" stroke="none" d="M 110.316 529.017 C 110.317 529.017 125.068 523.664 125.069 523.663 C 125.069 523.664 120.185 528.967 120.185 528.967 C 120.185 528.968 125.122 534.220 125.123 534.221 C 125.121 534.220 110.317 529.018 110.316 529.017 Z"/>
<path fill="#00ff00" fill-rule="evenodd" stroke="none" d="M 609.684 529.017 C 609.683 529.017 594.932 523.664 594.930 523.663 C 594.931 523.664 599.814 528.967 599.815 528.967 C 599.814 528.968 594.878 534.220 594.877 534.221 C 594.879 534.220 609.683 529.018 609.684 529.017 Z"/>
<path fill="#00ffff" fill-rule="evenodd" stroke="none" d="M 574.089 203.456 C 574.088 203.458 567.731 221.408 567.730 221.410 C 567.730 221.409 566.527 212.744 566.526 212.743 C 566.526 212.743 557.797 213.319 557.796 213.320 C 557.797 213.318 574.087 203.457 574.089 203.456 Z"/>
<path fill="#00ffff" fill-rule="evenodd" stroke="none" d="M 146.015 204.051 C 146.016 204.053 153.556 221.539 153.557 221.541 C 153.557 221.540 154.180 212.814 154.180 212.813 C 154.181 212.813 162.929 212.807 162.930 212.807 C 162.928 212.806 146.017 204.052 146.015 204.051 Z"/>
</g>
</g>
</svg>
