<?xml version="1.0" encoding="utf-8"?>
<!-- Generator: Moho 12.5 build 22414 -->
<!DOCTYPE svg PUBLIC "-//W3C//DTD SVG 1.1//EN" "http://www.w3.org/Graphics/SVG/1.1/DTD/svg11.dtd">
<svg version="1.1" id="Frame_0" xmlns="http://www.w3.org/2000/svg" xmlns:xlink="http://www.w3.org/1999/xlink" width="720px" height="720px">
<g id="cup">
<g id="cup_2">
<path fill="#ffffff" fill-rule="evenodd" stroke="#000000" stroke-width="4" stroke-linecap="round" stroke-linejoin="round" d="M 86.902 70.418 C 86.929 70.418 177.347 50.012 360.000 50.012 C 542.653 50.012 633.071 70.418 633.098 70.418 C 633.092 70.441 681.306 290.871 430.884 415.244 C 391.183 434.961 391.562 554.241 433.309 577.796 C 488.492 608.934 559.960 618.951 560.249 634.146 C 560.642 654.773 453.855 674.802 360.000 674.802 C 266.145 674.802 158.449 655.046 159.751 634.146 C 160.695 618.977 231.508 608.934 286.691 577.796 C 328.438 554.241 328.817 434.961 289.116 415.244 C 38.694 290.871 86.908 70.441 86.902 70.418 Z"/>
<path fill="#000000" fill-rule="evenodd" stroke="none" d="M 360.000 85.091 C 483.809 85.091 545.520 79.339 545.520 76.626 C 545.520 73.912 483.809 68.161 360.000 68.161 C 236.191 68.161 174.480 73.912 174.480 76.626 C 174.480 79.339 236.191 85.091 360.000 85.091 Z"/>
<path fill="none" stroke="#000000" stroke-width="4" stroke-linecap="round" stroke-linejoin="round" d="M 86.902 70.418 C 86.929 70.420 226.001 84.897 360.000 84.897 C 493.999 84.897 542.066 75.245 633.098 70.418 "/>
</g>
<g id="specs">
<path fill="#ff00ff" fill-rule="evenodd" stroke="none" d="M 209.126 351.902 C 209.156 351.902 510.844 351.902 510.874 351.902 C 510.874 351.878 510.874 107.212 510.874 107.188 C 510.844 107.188 209.156 107.188 209.126 107.188 C 209.126 107.212 209.126 351.878 209.126 351.902 Z"/>
<path fill="#ff0000" fill-rule="evenodd" stroke="none" d="M 360.000 710.249 C 360.001 710.253 372.432 745.059 372.433 745.062 C 372.432 745.061 360.001 733.495 360.000 733.494 C 359.999 733.495 347.568 745.061 347.567 745.062 C 347.568 745.059 359.999 710.253 360.000 710.249 Z"/>
<path fill="#0000ff" fill-rule="evenodd" stroke="none" d="M 360.000 34.198 C 360.001 34.200 369.765 61.540 369.766 61.542 C 369.765 61.541 360.001 52.457 360.000 52.456 C 359.999 52.457 350.235 61.541 350.234 61.542 C 350.235 61.540 359.999 34.200 360.000 34.198 Z"/>
<path fill="#00ff00" fill-rule="evenodd" stroke="none" d="M 85.751 221.965 C 85.753 221.964 109.217 213.451 109.219 213.450 C 109.218 213.451 101.450 221.885 101.449 221.886 C 101.450 221.887 109.303 230.242 109.303 230.243 C 109.301 230.242 85.753 221.966 85.751 221.965 Z"/>
<path fill="#ffff00" fill-rule="evenodd" stroke="none" d="M 168.174 655.952 C 168.175 655.950 178.482 633.509 178.483 633.507 C 178.483 633.508 179.026 644.840 179.026 644.841 C 179.027 644.841 190.368 645.116 190.369 645.116 C 190.367 645.117 168.176 655.951 168.174 655.952 Z"/>
<path fill="#ffff00" fill-rule="evenodd" stroke="none" d="M 552.050 655.677 C 552.049 655.675 541.295 633.445 541.294 633.443 C 541.294 633.444 540.978 644.784 540.978 644.786 C 540.977 644.786 529.643 645.288 529.642 645.288 C 529.644 645.289 552.048 655.676 552.050 655.677 Z"/>
<path fill="#00ff00" fill-rule="evenodd" stroke="none" d="M 634.249 221.965 C 634.247 221.964 610.783 213.451 610.781 213.450 C 610.782 213.451 618.550 221.885 618.551 221.886 C 618.550 221.887 610.697 230.242 610.697 230.243 C 610.699 230.242 634.247 221.966 634.249 221.965 Z"/>
<path fill="#00ffff" fill-rule="evenodd" stroke="none" d="M 622.214 56.812 C 622.213 56.814 614.080 79.777 614.079 79.779 C 614.079 79.778 612.539 68.693 612.539 68.692 C 612.538 68.692 601.371 69.430 601.370 69.430 C 601.372 69.428 622.212 56.813 622.214 56.812 Z"/>
<path fill="#00ffff" fill-rule="evenodd" stroke="none" d="M 97.786 57.573 C 97.787 57.575 107.433 79.944 107.434 79.947 C 107.434 79.946 108.231 68.783 108.231 68.782 C 108.233 68.782 119.423 68.773 119.424 68.773 C 119.422 68.772 97.789 57.574 97.786 57.573 Z"/>
<path fill="#be0027" fill-rule="evenodd" stroke="none" d="M 359.957 689.323 C 359.958 689.320 369.002 663.997 369.003 663.994 C 369.002 663.995 359.958 672.410 359.957 672.411 C 359.957 672.410 350.913 663.995 350.912 663.994 C 350.913 663.997 359.957 689.320 359.957 689.323 Z"/>
</g>
</g>
</svg>
