<?xml version="1.0" encoding="utf-8"?>
<!-- Generator: Moho 13.5.1 build 20210623 -->
<!DOCTYPE svg PUBLIC "-//W3C//DTD SVG 1.1//EN" "http://www.w3.org/Graphics/SVG/1.1/DTD/svg11.dtd">
<svg version="1.1" id="Frame_0" xmlns="http://www.w3.org/2000/svg" xmlns:xlink="http://www.w3.org/1999/xlink" width="720px" height="720px">
<g id="cup">
<g id="cup_2">
<radialGradient id="3192170F-A0C1-4DEA-9A1E-71F270174773_0" cx="51.03%" cy="8.36%" r="89.59%">
<stop offset="30.59%" style="stop-color:rgb(255,255,255);stop-opacity:1.00" />
<stop offset="100.00%" style="stop-color:rgb(0,0,0);stop-opacity:1.00" />
</radialGradient>
<path fill="url(#3192170F-A0C1-4DEA-9A1E-71F270174773_0)" fill-rule="evenodd" stroke="#000000" stroke-width="4" stroke-linecap="round" stroke-linejoin="round" d="M 86.902 41.997 C 86.929 41.996 177.347 21.591 360.000 21.591 C 542.653 21.591 633.071 41.996 633.098 41.997 C 633.092 42.020 683.074 263.791 432.936 386.056 C 393.692 405.238 392.241 522.275 432.936 546.256 C 488.166 578.802 560.918 565.822 560.249 605.724 C 559.903 626.352 453.855 646.380 360.000 646.380 C 266.145 646.380 160.102 626.662 159.751 605.724 C 159.082 565.822 231.834 578.802 287.064 546.256 C 327.759 522.275 326.308 405.238 287.064 386.056 C 36.926 263.791 86.908 42.020 86.902 41.997 Z"/>
<path fill="#000000" fill-rule="evenodd" stroke="none" d="M 360.000 56.669 C 483.809 56.669 545.520 50.918 545.520 48.204 C 545.520 45.491 483.809 39.739 360.000 39.739 C 236.191 39.739 174.480 45.491 174.480 48.204 C 174.480 50.918 236.191 56.669 360.000 56.669 Z"/>
<path fill="none" stroke="#000000" stroke-width="4" stroke-linecap="round" stroke-linejoin="round" d="M 86.902 41.997 C 86.929 41.998 226.001 56.476 360.000 56.476 C 493.999 56.476 542.066 46.823 633.098 41.997 "/>
<path fill="none" stroke="#ffffff" stroke-width="4" stroke-linecap="round" stroke-linejoin="round" d="M 546.149 586.998 C 545.397 606.087 446.906 620.877 360.000 620.877 C 273.094 620.877 174.614 606.374 173.851 586.998 "/>
</g>
<g id="specs">
<path fill="#ff00ff" fill-rule="evenodd" stroke="none" d="M 209.126 323.481 C 209.156 323.481 510.844 323.481 510.874 323.481 C 510.874 323.456 510.874 78.791 510.874 78.766 C 510.844 78.766 209.156 78.766 209.126 78.766 C 209.126 78.791 209.126 323.456 209.126 323.481 Z"/>
<path fill="#ff0000" fill-rule="evenodd" stroke="none" d="M 360.000 681.828 C 360.001 681.831 372.432 716.637 372.433 716.641 C 372.432 716.640 360.001 705.073 360.000 705.072 C 359.999 705.073 347.568 716.640 347.567 716.641 C 347.568 716.637 359.999 681.831 360.000 681.828 Z"/>
<path fill="#0000ff" fill-rule="evenodd" stroke="none" d="M 360.000 5.776 C 360.001 5.779 369.765 33.118 369.766 33.121 C 369.765 33.120 360.001 24.035 360.000 24.034 C 359.999 24.035 350.235 33.120 350.234 33.121 C 350.235 33.118 359.999 5.779 360.000 5.776 Z"/>
<path fill="#00ff00" fill-rule="evenodd" stroke="none" d="M 85.751 193.544 C 85.753 193.543 109.217 185.029 109.219 185.028 C 109.218 185.029 101.450 193.463 101.449 193.464 C 101.450 193.465 109.303 201.820 109.303 201.821 C 109.301 201.820 85.753 193.544 85.751 193.544 Z"/>
<path fill="#ffff00" fill-rule="evenodd" stroke="none" d="M 168.174 627.530 C 168.175 627.528 178.482 605.087 178.483 605.085 C 178.483 605.086 179.026 616.418 179.026 616.419 C 179.027 616.419 190.368 616.694 190.369 616.694 C 190.367 616.695 168.176 627.529 168.174 627.530 Z"/>
<path fill="#ffff00" fill-rule="evenodd" stroke="none" d="M 552.050 627.255 C 552.049 627.253 541.295 605.024 541.294 605.021 C 541.294 605.023 540.978 616.363 540.978 616.364 C 540.977 616.364 529.643 616.866 529.642 616.866 C 529.644 616.867 552.048 627.254 552.050 627.255 Z"/>
<path fill="#00ff00" fill-rule="evenodd" stroke="none" d="M 634.249 193.544 C 634.247 193.543 610.783 185.029 610.781 185.028 C 610.782 185.029 618.550 193.463 618.551 193.464 C 618.550 193.465 610.697 201.820 610.697 201.821 C 610.699 201.820 634.247 193.544 634.249 193.544 Z"/>
<path fill="#be0027" fill-rule="evenodd" stroke="none" d="M 359.957 660.901 C 359.958 660.899 369.002 635.575 369.003 635.573 C 369.002 635.574 359.958 643.988 359.957 643.989 C 359.957 643.988 350.913 635.574 350.912 635.573 C 350.913 635.575 359.957 660.899 359.957 660.901 Z"/>
</g>
</g>
</svg>
