<?xml version="1.0" encoding="utf-8"?>
<!-- Generator: Moho 12.5 build 22414 -->
<!DOCTYPE svg PUBLIC "-//W3C//DTD SVG 1.1//EN" "http://www.w3.org/Graphics/SVG/1.1/DTD/svg11.dtd">
<svg version="1.1" id="Frame_0" xmlns="http://www.w3.org/2000/svg" xmlns:xlink="http://www.w3.org/1999/xlink" width="720px" height="720px">
<g id="dagger">
<g id="dagger">
<path fill="#ffffff" fill-rule="evenodd" stroke="#000000" stroke-width="4" stroke-linecap="round" stroke-linejoin="round" d="M 339.209 228.155 C 345.528 233.501 374.472 233.501 380.791 228.155 C 396.146 215.164 396.146 140.100 380.791 127.109 C 374.472 121.763 345.528 121.763 339.209 127.109 C 323.854 140.100 323.854 215.164 339.209 228.155 Z"/>
<path fill="#ffffff" fill-rule="evenodd" stroke="#000000" stroke-width="4" stroke-linecap="round" stroke-linejoin="round" d="M 360.000 143.128 C 380.861 143.128 397.690 126.300 397.690 105.438 C 397.690 84.577 380.861 67.749 360.000 67.749 C 339.139 67.749 322.310 84.577 322.310 105.438 C 322.310 126.300 339.139 143.128 360.000 143.128 Z"/>
<path fill="#ffffff" fill-rule="evenodd" stroke="none" d="M 431.814 485.805 C 431.807 485.827 383.938 632.361 360.000 705.639 C 359.993 705.617 288.193 485.827 288.186 485.805 C 288.189 485.786 310.205 290.722 310.207 290.702 C 310.217 290.702 409.783 290.702 409.793 290.702 C 409.795 290.722 431.812 485.786 431.814 485.805 Z"/>
<path fill="none" stroke="#000000" stroke-width="4" stroke-linecap="round" stroke-linejoin="round" d="M 431.814 485.805 C 431.807 485.827 383.938 632.361 360.000 705.639 C 359.993 705.617 288.193 485.827 288.186 485.805 C 288.189 485.786 310.205 290.722 310.207 290.702 C 310.217 290.702 409.783 290.702 409.793 290.702 C 409.795 290.722 431.812 485.786 431.814 485.805 M 360.000 290.702 C 360.000 429.014 360.000 705.598 360.000 705.639 "/>
<path fill="#ffffff" fill-rule="evenodd" stroke="#000000" stroke-width="4" stroke-linejoin="round" d="M 322.992 215.833 C 323.000 215.833 397.000 215.833 397.008 215.833 C 397.008 215.832 397.008 201.280 397.008 201.279 C 397.000 201.279 323.000 201.279 322.992 201.279 C 322.992 201.280 322.992 215.832 322.992 215.833 Z"/>
<path fill="#ffffff" fill-rule="evenodd" stroke="none" d="M 232.576 223.772 C 255.664 186.259 302.775 208.190 297.389 238.454 C 299.827 230.215 304.701 213.740 304.701 213.738 C 304.713 213.738 381.496 213.786 419.893 213.810 C 433.397 206.002 449.797 203.812 464.330 209.842 C 487.832 219.593 502.935 245.938 487.424 271.140 C 464.336 308.652 417.225 286.722 422.611 256.458 C 420.173 264.696 415.299 281.171 415.299 281.173 C 415.287 281.173 338.504 281.125 300.107 281.101 C 286.196 288.158 270.203 291.099 255.670 285.069 C 232.168 275.318 217.065 248.974 232.576 223.772 Z"/>
<path fill="none" stroke="#000000" stroke-width="4" stroke-linecap="round" stroke-linejoin="round" d="M 262.108 229.832 C 274.358 225.901 275.664 239.218 269.871 241.569 M 264.258 259.753 C 251.306 254.833 248.954 234.052 262.108 229.832 M 297.389 238.454 C 294.667 253.752 279.802 265.658 264.258 259.753 M 232.576 223.772 C 255.664 186.259 302.775 208.190 297.389 238.454 C 299.827 230.215 304.701 213.740 304.701 213.738 C 304.713 213.738 381.496 213.786 419.893 213.810 C 433.397 206.002 449.797 203.812 464.330 209.842 C 487.832 219.593 502.935 245.938 487.424 271.140 C 464.336 308.652 417.225 286.722 422.611 256.458 C 420.173 264.696 415.299 281.171 415.299 281.173 C 415.287 281.173 338.504 281.125 300.107 281.101 C 286.196 288.158 270.203 291.099 255.670 285.069 C 232.168 275.318 217.065 248.974 232.576 223.772 M 455.742 235.158 C 440.198 229.253 425.333 241.159 422.611 256.458 M 457.892 265.079 C 471.046 260.859 468.694 240.078 455.742 235.158 M 450.129 253.342 C 444.336 255.693 445.642 269.010 457.892 265.079 "/>
<path fill="none" stroke="#000000" stroke-width="4" stroke-linecap="round" stroke-linejoin="round" d="M 300.385 280.504 C 340.107 258.409 379.830 236.314 419.553 214.219 "/>
<path fill="#ffffff" fill-rule="evenodd" stroke="#000000" stroke-width="4" stroke-linejoin="round" d="M 303.957 293.539 C 303.968 293.539 416.032 293.539 416.043 293.539 C 416.043 293.538 416.043 278.987 416.043 278.985 C 416.032 278.985 303.968 278.985 303.957 278.985 C 303.957 278.987 303.957 293.538 303.957 293.539 Z"/>
</g>
<g id="specs_2">
<path fill="#ff0000" fill-rule="evenodd" stroke="none" d="M 360.000 38.005 C 360.001 38.001 371.944 4.561 371.945 4.557 C 371.944 4.558 360.001 15.671 360.000 15.672 C 359.999 15.671 348.056 4.558 348.055 4.557 C 348.056 4.561 359.999 38.001 360.000 38.005 Z"/>
<path fill="#0000ff" fill-rule="evenodd" stroke="none" d="M 360.000 713.580 C 360.001 713.578 366.938 694.153 366.939 694.151 C 366.938 694.152 360.001 700.606 360.000 700.607 C 359.999 700.606 353.062 694.152 353.061 694.151 C 353.062 694.153 359.999 713.578 360.000 713.580 Z"/>
<path fill="#00ff00" fill-rule="evenodd" stroke="none" d="M 213.070 247.984 C 213.072 247.985 232.462 255.021 232.464 255.022 C 232.463 255.021 226.043 248.051 226.043 248.050 C 226.043 248.049 232.533 241.145 232.534 241.144 C 232.532 241.145 213.072 247.984 213.070 247.984 Z"/>
<path fill="#00ff00" fill-rule="evenodd" stroke="none" d="M 506.930 247.984 C 506.928 247.985 487.538 255.021 487.536 255.022 C 487.537 255.021 493.957 248.051 493.957 248.050 C 493.957 248.049 487.467 241.145 487.466 241.144 C 487.468 241.145 506.928 247.984 506.930 247.984 Z"/>
<path fill="#00ffff" fill-rule="evenodd" stroke="none" d="M 443.109 500.770 C 443.108 500.768 435.481 479.232 435.480 479.230 C 435.480 479.231 434.036 489.627 434.036 489.628 C 434.035 489.628 423.562 488.936 423.561 488.936 C 423.563 488.937 443.107 500.769 443.109 500.770 Z"/>
<path fill="#00ffff" fill-rule="evenodd" stroke="none" d="M 276.891 500.056 C 276.892 500.054 285.938 479.075 285.939 479.073 C 285.939 479.074 286.687 489.543 286.687 489.544 C 286.688 489.544 297.183 489.552 297.184 489.552 C 297.182 489.553 276.893 500.055 276.891 500.056 Z"/>
<path fill="#be0027" fill-rule="evenodd" stroke="none" d="M 360.000 45.226 C 360.001 45.230 371.944 78.671 371.945 78.674 C 371.944 78.673 360.001 67.561 360.000 67.559 C 359.999 67.561 348.056 78.673 348.055 78.674 C 348.056 78.671 359.999 45.230 360.000 45.226 Z"/>
</g>
</g>
</svg>
