<?xml version="1.0" encoding="utf-8"?>
<!-- Generator: Moho 13.5 build 20210422 -->
<!DOCTYPE svg PUBLIC "-//W3C//DTD SVG 1.1//EN" "http://www.w3.org/Graphics/SVG/1.1/DTD/svg11.dtd">
<svg version="1.1" id="Frame_0" xmlns="http://www.w3.org/2000/svg" xmlns:xlink="http://www.w3.org/1999/xlink" width="720px" height="720px">
<g id="death">
<g id="death">
<path fill="#ffffff" fill-rule="evenodd" stroke="#000000" stroke-width="4" stroke-linecap="round" stroke-linejoin="round" d="M 360.000 26.351 C 470.149 26.351 470.149 118.141 470.149 356.798 C 470.149 426.026 429.866 450.933 402.458 505.282 C 389.857 530.269 430.624 545.893 380.962 581.414 C 362.922 594.316 386.745 603.443 360.000 639.236 C 362.174 607.445 328.433 599.938 339.038 579.813 C 363.712 532.992 308.345 536.100 317.542 507.109 C 336.082 448.670 249.851 447.008 249.851 356.798 C 249.851 118.141 249.851 26.351 360.000 26.351 Z"/>
<path fill="#000000" fill-rule="evenodd" stroke="none" d="M 299.689 112.931 C 299.689 98.092 311.659 86.121 326.498 86.121 C 341.338 86.120 353.309 98.091 353.308 112.931 C 353.308 127.770 341.337 139.740 326.498 139.740 C 311.659 139.740 299.689 127.770 299.689 112.931 M 345.833 154.360 C 345.834 154.357 359.999 128.675 360.000 128.672 C 360.001 128.675 374.166 154.357 374.167 154.360 C 374.164 154.360 345.836 154.360 345.833 154.360 M 366.267 112.458 C 366.267 97.729 378.149 85.848 392.878 85.848 C 407.606 85.848 419.488 97.729 419.488 112.458 C 419.488 127.187 407.606 139.068 392.878 139.068 C 378.149 139.068 366.267 127.187 366.267 112.458 M 321.468 205.733 C 321.468 205.730 321.845 178.573 321.943 171.485 C 303.066 158.985 287.822 137.926 287.240 112.861 C 286.337 73.987 321.116 45.208 360.000 45.208 C 398.884 45.208 433.663 73.987 432.760 112.861 C 432.178 137.926 416.934 158.985 398.057 171.485 C 398.155 178.573 398.532 205.730 398.532 205.733 C 398.531 205.733 386.281 205.733 386.279 205.733 C 386.279 205.732 386.279 188.191 386.279 188.189 C 386.279 188.189 382.237 188.189 382.236 188.189 C 382.236 188.191 382.236 205.732 382.236 205.733 C 382.235 205.733 370.109 205.733 370.108 205.733 C 370.108 205.732 370.108 188.191 370.108 188.189 C 370.107 188.189 366.065 188.189 366.065 188.189 C 366.065 188.191 366.065 205.732 366.065 205.733 C 366.064 205.733 353.937 205.733 353.935 205.733 C 353.935 205.732 353.935 188.191 353.935 188.189 C 353.935 188.189 349.893 188.189 349.892 188.189 C 349.892 188.191 349.892 205.732 349.892 205.733 C 349.891 205.733 337.764 205.733 337.763 205.733 C 337.763 205.732 337.764 188.191 337.764 188.189 C 337.763 188.189 333.721 188.189 333.721 188.189 C 333.721 188.191 333.721 205.732 333.721 205.733 C 333.719 205.733 321.469 205.733 321.468 205.733 Z"/>
</g>
<g id="scythe">
<path fill="#000000" fill-rule="evenodd" stroke="#ffffff" stroke-width="4" stroke-linecap="round" stroke-linejoin="round" d="M 546.944 154.585 C 546.947 154.605 645.167 223.620 575.309 351.636 C 597.646 231.278 517.752 178.628 517.746 178.611 C 517.749 178.608 546.941 154.587 546.944 154.585 Z"/>
<path fill="#000000" fill-rule="evenodd" stroke="#ffffff" stroke-width="4" stroke-linecap="round" stroke-linejoin="round" d="M 544.567 147.638 C 545.022 147.502 552.107 156.089 551.666 156.264 C 486.478 182.123 421.687 383.578 170.028 452.181 C 163.216 447.489 159.763 440.711 157.815 433.140 C 440.715 343.159 474.870 168.362 544.567 147.638 Z"/>
<path fill="#000000" fill-rule="evenodd" stroke="#ffffff" stroke-width="4" stroke-linecap="round" stroke-linejoin="round" d="M 336.873 383.914 C 336.871 383.910 316.114 350.927 316.112 350.923 C 316.113 350.923 327.108 344.004 327.109 344.003 C 327.111 344.006 347.868 376.990 347.870 376.993 C 347.869 376.994 336.874 383.913 336.873 383.914 M 328.261 394.624 C 328.259 394.620 305.118 357.847 305.116 357.843 C 305.117 357.843 316.111 350.924 316.112 350.923 C 316.115 350.927 339.256 387.699 339.258 387.703 C 339.257 387.704 328.262 394.623 328.261 394.624 M 314.879 397.754 C 314.877 397.750 294.121 364.767 294.119 364.763 C 294.120 364.763 305.115 357.844 305.116 357.843 C 305.118 357.847 325.874 390.831 325.876 390.834 C 325.875 390.835 314.880 397.753 314.879 397.754 Z"/>
<path fill="#000000" fill-rule="evenodd" stroke="#ffffff" stroke-width="4" stroke-linecap="round" stroke-linejoin="round" d="M 390.032 294.190 C 390.035 294.192 416.156 323.114 416.158 323.117 C 416.157 323.118 406.517 331.825 406.516 331.826 C 406.513 331.823 380.392 302.901 380.390 302.898 C 380.391 302.897 390.031 294.190 390.032 294.190 M 396.673 282.158 C 396.676 282.161 425.797 314.405 425.800 314.409 C 425.799 314.410 416.159 323.116 416.158 323.117 C 416.155 323.114 387.034 290.870 387.031 290.867 C 387.032 290.866 396.672 282.159 396.673 282.158 M 409.318 276.773 C 409.320 276.776 435.440 305.697 435.443 305.700 C 435.442 305.701 425.801 314.408 425.800 314.409 C 425.798 314.406 399.677 285.484 399.675 285.481 C 399.676 285.480 409.317 276.774 409.318 276.773 Z"/>
</g>
<g id="specs_2">
<path fill="#ff0000" fill-rule="evenodd" stroke="none" d="M 360.000 668.093 C 360.001 668.096 371.397 700.006 371.398 700.009 C 371.397 700.008 360.001 689.404 360.000 689.403 C 359.999 689.404 348.603 700.008 348.602 700.009 C 348.603 700.006 359.999 668.096 360.000 668.093 Z"/>
<path fill="#0000ff" fill-rule="evenodd" stroke="none" d="M 360.000 14.383 C 360.001 14.385 366.620 32.920 366.621 32.922 C 366.620 32.922 360.001 26.763 360.000 26.762 C 359.999 26.763 353.380 32.922 353.379 32.922 C 353.380 32.920 359.999 14.385 360.000 14.383 Z"/>
<path fill="#00ff00" fill-rule="evenodd" stroke="none" d="M 232.889 234.513 C 232.890 234.513 251.392 227.799 251.394 227.798 C 251.393 227.799 245.268 234.450 245.267 234.451 C 245.268 234.452 251.460 241.040 251.461 241.040 C 251.459 241.040 232.890 234.514 232.889 234.513 Z"/>
<path fill="#ffff00" fill-rule="evenodd" stroke="none" d="M 182.046 577.620 C 182.048 577.616 199.321 540.006 199.323 540.003 C 199.323 540.005 200.232 558.996 200.233 558.998 C 200.234 558.998 219.241 559.459 219.243 559.459 C 219.239 559.460 182.049 577.618 182.046 577.620 Z"/>
<path fill="#ffff00" fill-rule="evenodd" stroke="none" d="M 537.954 577.159 C 537.952 577.155 519.928 539.899 519.926 539.896 C 519.926 539.898 519.398 558.904 519.398 558.906 C 519.396 558.906 500.401 559.748 500.399 559.748 C 500.403 559.750 537.951 577.157 537.954 577.159 Z"/>
<path fill="#00ff00" fill-rule="evenodd" stroke="none" d="M 487.111 234.513 C 487.110 234.513 468.608 227.799 468.606 227.798 C 468.607 227.799 474.732 234.450 474.733 234.451 C 474.732 234.452 468.540 241.040 468.539 241.040 C 468.541 241.040 487.110 234.514 487.111 234.513 Z"/>
<path fill="#be0027" fill-rule="evenodd" stroke="none" d="M 360.000 663.942 C 360.001 663.939 371.397 632.029 371.398 632.026 C 371.397 632.027 360.001 642.631 360.000 642.632 C 359.999 642.631 348.603 632.027 348.602 632.026 C 348.603 632.029 359.999 663.939 360.000 663.942 Z"/>
</g>
</g>
</svg>
