<?xml version="1.0" encoding="utf-8"?>
<!-- Generator: Moho 12.5 build 22414 -->
<!DOCTYPE svg PUBLIC "-//W3C//DTD SVG 1.1//EN" "http://www.w3.org/Graphics/SVG/1.1/DTD/svg11.dtd">
<svg version="1.1" id="Frame_0" xmlns="http://www.w3.org/2000/svg" xmlns:xlink="http://www.w3.org/1999/xlink" width="720px" height="720px">
<g id="death">
<g id="death">
<path fill="#000000" fill-rule="evenodd" stroke="#ffffff" stroke-width="4" stroke-linecap="round" stroke-linejoin="round" d="M 360.000 26.765 C 470.012 26.765 470.012 118.442 470.012 356.802 C 470.012 425.944 429.780 450.820 402.405 505.102 C 389.820 530.057 430.536 545.661 380.936 581.138 C 362.918 594.025 386.712 603.140 360.000 638.888 C 362.171 607.137 328.473 599.639 339.064 579.540 C 363.707 532.777 308.409 535.881 317.595 506.926 C 336.112 448.560 249.988 446.900 249.988 356.802 C 249.988 118.442 249.988 26.765 360.000 26.765 Z"/>
<path fill="#ffffff" fill-rule="evenodd" stroke="none" d="M 299.764 113.238 C 299.764 98.417 311.719 86.461 326.540 86.461 C 341.361 86.461 353.317 98.417 353.317 113.238 C 353.317 128.058 341.361 140.014 326.540 140.014 C 311.720 140.014 299.764 128.058 299.764 113.238 M 345.850 154.616 C 345.852 154.613 359.999 128.963 360.000 128.960 C 360.001 128.963 374.148 154.613 374.150 154.616 C 374.147 154.616 345.853 154.616 345.850 154.616 M 366.259 112.766 C 366.259 98.055 378.126 86.189 392.836 86.189 C 407.547 86.189 419.414 98.055 419.414 112.766 C 419.414 127.476 407.547 139.343 392.836 139.343 C 378.126 139.343 366.259 127.476 366.259 112.766 M 321.516 205.925 C 321.516 205.922 321.892 178.798 321.990 171.720 C 303.137 159.235 287.912 138.202 287.331 113.168 C 286.428 74.342 321.164 45.599 360.000 45.599 C 398.836 45.599 433.572 74.342 432.670 113.168 C 432.088 138.202 416.863 159.235 398.010 171.720 C 398.108 178.799 398.484 205.922 398.484 205.925 C 398.483 205.925 386.248 205.925 386.247 205.925 C 386.247 205.924 386.247 188.404 386.247 188.403 C 386.246 188.403 382.209 188.403 382.209 188.403 C 382.209 188.404 382.209 205.924 382.209 205.925 C 382.207 205.925 370.096 205.925 370.095 205.925 C 370.095 205.924 370.095 188.404 370.095 188.403 C 370.095 188.403 366.057 188.403 366.057 188.403 C 366.057 188.404 366.057 205.924 366.057 205.925 C 366.056 205.925 353.944 205.925 353.943 205.925 C 353.943 205.924 353.943 188.404 353.943 188.403 C 353.943 188.403 349.905 188.403 349.905 188.403 C 349.905 188.404 349.905 205.924 349.905 205.925 C 349.904 205.925 337.792 205.925 337.791 205.925 C 337.791 205.924 337.791 188.404 337.791 188.403 C 337.791 188.403 333.754 188.403 333.753 188.403 C 333.753 188.404 333.753 205.924 333.753 205.925 C 333.752 205.925 321.518 205.925 321.516 205.925 Z"/>
</g>
<g id="scythe">
<path fill="#ffffff" fill-rule="evenodd" stroke="#000000" stroke-width="4" stroke-linecap="round" stroke-linejoin="round" d="M 546.712 154.840 C 546.715 154.860 644.813 223.790 575.041 351.647 C 597.350 231.438 517.556 178.854 517.550 178.836 C 517.553 178.834 546.709 154.843 546.712 154.840 Z"/>
<path fill="#ffffff" fill-rule="evenodd" stroke="#000000" stroke-width="4" stroke-linecap="round" stroke-linejoin="round" d="M 544.338 147.902 C 544.792 147.767 551.868 156.343 551.427 156.518 C 486.321 182.344 421.610 383.548 170.264 452.066 C 163.461 447.381 160.012 440.610 158.067 433.049 C 440.615 343.180 474.727 168.600 544.338 147.902 Z"/>
<path fill="#ffffff" fill-rule="evenodd" stroke="#000000" stroke-width="4" stroke-linecap="round" stroke-linejoin="round" d="M 336.901 383.884 C 336.899 383.881 316.169 350.938 316.167 350.935 C 316.168 350.934 327.149 344.024 327.150 344.023 C 327.152 344.026 347.883 376.969 347.885 376.972 C 347.884 376.973 336.903 383.883 336.901 383.884 M 328.300 394.581 C 328.298 394.577 305.186 357.850 305.184 357.846 C 305.185 357.845 316.166 350.935 316.167 350.935 C 316.169 350.938 339.281 387.665 339.284 387.669 C 339.283 387.669 328.301 394.580 328.300 394.581 M 314.935 397.707 C 314.933 397.704 294.203 364.761 294.201 364.758 C 294.202 364.757 305.183 357.847 305.184 357.846 C 305.186 357.849 325.916 390.792 325.918 390.796 C 325.917 390.796 314.936 397.706 314.935 397.707 Z"/>
<path fill="#ffffff" fill-rule="evenodd" stroke="#000000" stroke-width="4" stroke-linecap="round" stroke-linejoin="round" d="M 389.995 294.272 C 389.998 294.274 416.086 323.160 416.088 323.163 C 416.087 323.164 406.459 331.860 406.458 331.861 C 406.455 331.858 380.367 302.972 380.364 302.969 C 380.365 302.968 389.994 294.272 389.995 294.272 M 396.628 282.255 C 396.631 282.258 425.716 314.462 425.719 314.465 C 425.718 314.466 416.089 323.162 416.088 323.163 C 416.085 323.160 387.001 290.956 386.998 290.953 C 386.999 290.952 396.627 282.256 396.628 282.255 M 409.256 276.877 C 409.259 276.880 435.347 305.765 435.349 305.768 C 435.348 305.769 425.719 314.465 425.719 314.465 C 425.716 314.463 399.628 285.577 399.626 285.574 C 399.626 285.573 409.255 276.877 409.256 276.877 Z"/>
</g>
<g id="specs_2">
<path fill="#ff00ff" fill-rule="evenodd" stroke="none" d="M 271.502 399.967 C 271.519 399.967 448.481 399.967 448.499 399.967 C 448.499 399.949 448.499 222.988 448.499 222.970 C 448.481 222.970 271.519 222.970 271.502 222.970 C 271.502 222.988 271.502 399.949 271.502 399.967 Z"/>
<path fill="#ff0000" fill-rule="evenodd" stroke="none" d="M 360.000 667.710 C 360.001 667.713 371.383 699.583 371.384 699.586 C 371.383 699.585 360.001 688.995 360.000 688.994 C 359.999 688.995 348.617 699.585 348.616 699.586 C 348.617 699.583 359.999 667.713 360.000 667.710 Z"/>
<path fill="#0000ff" fill-rule="evenodd" stroke="none" d="M 360.000 14.813 C 360.001 14.815 366.612 33.327 366.613 33.329 C 366.612 33.328 360.001 27.177 360.000 27.176 C 359.999 27.177 353.388 33.328 353.387 33.329 C 353.388 33.327 359.999 14.815 360.000 14.813 Z"/>
<path fill="#00ff00" fill-rule="evenodd" stroke="none" d="M 233.047 234.670 C 233.049 234.669 251.527 227.964 251.529 227.963 C 251.528 227.964 245.410 234.607 245.410 234.607 C 245.410 234.608 251.595 241.188 251.596 241.188 C 251.594 241.188 233.049 234.670 233.047 234.670 Z"/>
<path fill="#ffff00" fill-rule="evenodd" stroke="none" d="M 266.620 513.435 C 266.621 513.433 275.685 493.698 275.686 493.696 C 275.686 493.697 276.163 503.662 276.164 503.663 C 276.165 503.663 286.138 503.905 286.139 503.905 C 286.137 503.906 266.622 513.434 266.620 513.435 Z"/>
<path fill="#ffff00" fill-rule="evenodd" stroke="none" d="M 453.380 513.193 C 453.379 513.191 443.921 493.642 443.920 493.640 C 443.920 493.641 443.643 503.614 443.643 503.615 C 443.642 503.615 433.674 504.057 433.673 504.057 C 433.675 504.058 453.378 513.192 453.380 513.193 Z"/>
<path fill="#00ff00" fill-rule="evenodd" stroke="none" d="M 486.953 234.670 C 486.951 234.669 468.473 227.964 468.471 227.963 C 468.472 227.964 474.590 234.607 474.590 234.607 C 474.590 234.608 468.405 241.188 468.404 241.188 C 468.406 241.188 486.951 234.670 486.953 234.670 Z"/>
<path fill="#be0027" fill-rule="evenodd" stroke="none" d="M 360.000 663.564 C 360.001 663.561 371.383 631.691 371.384 631.688 C 371.383 631.689 360.001 642.279 360.000 642.280 C 359.999 642.279 348.617 631.689 348.616 631.688 C 348.617 631.691 359.999 663.561 360.000 663.564 Z"/>
</g>
</g>
</svg>
