<?xml version="1.0" encoding="utf-8"?>
<!-- Generator: Moho 12.5 build 22414 -->
<!DOCTYPE svg PUBLIC "-//W3C//DTD SVG 1.1//EN" "http://www.w3.org/Graphics/SVG/1.1/DTD/svg11.dtd">
<svg version="1.1" id="Frame_0" xmlns="http://www.w3.org/2000/svg" xmlns:xlink="http://www.w3.org/1999/xlink" width="720px" height="720px">
<g id="devil_4">
<g id="devil_half">
<path fill="#ffffff" fill-rule="evenodd" stroke="#000000" stroke-width="4" stroke-linejoin="round" d="M 453.615 282.665 C 463.321 282.665 475.172 291.501 475.172 320.575 C 475.172 349.649 453.618 358.481 453.615 358.485 C 453.613 358.481 432.059 349.649 432.059 320.575 C 432.059 291.502 443.910 282.665 453.615 282.665 Z"/>
<path fill="#ffffff" fill-rule="evenodd" stroke="#000000" stroke-width="4" stroke-linejoin="round" d="M 486.411 353.930 C 453.652 372.843 415.835 368.372 393.055 328.915 C 393.055 328.915 511.413 260.581 511.425 260.574 C 530.338 293.333 519.169 335.016 486.411 353.930 M 457.964 525.703 C 457.954 525.701 419.190 506.317 361.029 506.317 C 361.029 506.328 361.033 618.804 361.029 618.814 C 514.950 619.682 613.059 509.051 613.059 370.608 C 613.059 232.166 514.950 121.535 361.029 122.402 C 361.029 122.402 361.029 197.401 361.029 234.900 C 361.029 238.236 361.029 479.546 361.029 479.570 C 361.029 479.571 361.029 486.748 361.029 486.749 C 438.577 486.930 457.954 525.700 457.964 525.703 Z"/>
<path fill="none" stroke="#ffffff" stroke-width="1" stroke-linecap="butt" stroke-linejoin="round" d="M 511.425 260.574 C 530.338 293.333 519.169 335.016 486.411 353.930 "/>
<path fill="none" stroke="#ffffff" stroke-width="1" stroke-linecap="butt" stroke-linejoin="round" d="M 486.411 353.930 C 453.652 372.843 415.835 368.372 393.055 328.915 "/>
<path fill="none" stroke="#ffffff" stroke-width="1" stroke-linecap="butt" stroke-linejoin="round" d="M 393.055 328.915 C 393.055 328.915 511.413 260.581 511.425 260.574 "/>
<path fill="none" stroke="#ffffff" stroke-width="1" stroke-linecap="butt" stroke-linejoin="round" d="M 361.029 234.900 C 361.029 238.236 361.029 479.546 361.029 479.570 "/>
<path fill="#ffffff" fill-rule="evenodd" stroke="none" d="M 511.425 260.574 C 530.338 293.333 519.169 335.016 486.411 353.930 C 453.652 372.843 415.835 368.372 393.055 328.915 C 393.055 328.915 511.413 260.581 511.425 260.574 M 562.378 324.929 C 553.743 253.514 516.415 197.656 476.641 189.730 C 432.715 180.976 388.622 202.532 361.029 234.900 C 361.029 238.236 361.029 479.546 361.029 479.570 C 361.034 479.567 403.698 446.237 403.750 445.787 C 480.963 425.318 514.460 466.483 525.444 471.592 C 557.414 440.284 563.056 393.425 563.060 393.417 C 563.063 393.409 609.677 397.290 597.995 312.617 C 589.863 314.625 571.990 320.092 562.378 324.929 Z"/>
<path fill="none" stroke="#000000" stroke-width="4" stroke-linejoin="round" d="M 380.416 312.448 C 380.416 312.459 380.416 428.758 380.416 428.769 C 380.421 428.767 410.905 409.463 424.452 404.872 C 446.255 397.484 476.544 416.316 464.936 441.430 M 526.250 228.441 C 477.639 256.443 380.431 312.439 380.416 312.448 M 403.750 445.787 C 415.180 438.305 425.894 426.662 437.951 428.865 M 511.425 260.574 C 530.338 293.333 519.169 335.016 486.411 353.930 C 453.652 372.843 415.835 368.372 393.055 328.915 C 393.055 328.915 511.413 260.581 511.425 260.574 M 562.378 324.929 C 553.743 253.514 516.415 197.656 476.641 189.730 C 432.715 180.976 388.622 202.532 361.029 234.900 C 361.029 238.236 361.029 479.546 361.029 479.570 C 361.034 479.567 403.698 446.237 403.750 445.787 C 480.963 425.318 514.460 466.483 525.444 471.592 C 557.414 440.284 563.056 393.425 563.060 393.417 C 563.063 393.409 609.677 397.290 597.995 312.617 C 589.863 314.625 571.990 320.092 562.378 324.929 "/>
<path fill="#ffffff" fill-rule="evenodd" stroke="#000000" stroke-width="4" stroke-linejoin="round" d="M 460.074 136.952 C 435.582 158.719 439.418 164.923 442.409 189.948 C 433.277 203.572 411.507 212.615 400.451 202.846 C 398.191 161.385 416.858 132.220 460.074 136.952 Z"/>
</g>
<g id="devil_half_2">
<path fill="#000000" fill-rule="evenodd" stroke="#ffffff" stroke-width="4" stroke-linejoin="round" d="M 232.145 353.930 C 264.904 372.843 302.721 368.372 325.502 328.915 C 325.502 328.915 207.143 260.581 207.131 260.574 C 188.218 293.333 199.387 335.016 232.145 353.930 M 260.592 525.703 C 260.602 525.702 299.366 506.317 357.527 506.317 C 357.527 506.328 357.523 618.804 357.527 618.814 C 203.606 619.682 105.497 509.051 105.497 370.608 C 105.497 232.166 203.606 121.535 357.527 122.402 C 357.527 122.402 357.527 197.401 357.527 234.900 C 357.527 238.236 357.527 479.546 357.527 479.570 C 357.527 479.571 357.527 486.748 357.527 486.749 C 279.979 486.930 260.602 525.700 260.592 525.703 Z"/>
<path fill="#000000" fill-rule="evenodd" stroke="#ffffff" stroke-width="4" stroke-linejoin="round" d="M 264.941 282.665 C 255.235 282.665 243.384 291.501 243.384 320.575 C 243.384 349.649 264.939 358.481 264.941 358.485 C 264.943 358.481 286.497 349.649 286.497 320.575 C 286.497 291.502 274.646 282.665 264.941 282.665 Z"/>
<path fill="none" stroke="#000000" stroke-width="1" stroke-linecap="butt" stroke-linejoin="round" d="M 207.131 260.574 C 188.218 293.333 199.387 335.016 232.145 353.930 "/>
<path fill="none" stroke="#000000" stroke-width="1" stroke-linecap="butt" stroke-linejoin="round" d="M 232.145 353.930 C 264.904 372.843 302.721 368.372 325.502 328.915 "/>
<path fill="none" stroke="#000000" stroke-width="1" stroke-linecap="butt" stroke-linejoin="round" d="M 325.502 328.915 C 325.502 328.915 207.143 260.581 207.131 260.574 "/>
<path fill="none" stroke="#000000" stroke-width="1" stroke-linecap="butt" stroke-linejoin="round" d="M 357.527 234.900 C 357.527 238.236 357.527 479.546 357.527 479.570 "/>
<path fill="#000000" fill-rule="evenodd" stroke="none" d="M 207.131 260.574 C 188.218 293.333 199.387 335.016 232.145 353.930 C 264.904 372.843 302.721 368.372 325.502 328.915 C 325.502 328.915 207.143 260.581 207.131 260.574 M 156.178 324.929 C 164.813 253.514 202.141 197.656 241.915 189.730 C 285.841 180.976 329.934 202.532 357.527 234.900 C 357.527 238.236 357.527 479.546 357.527 479.570 C 357.523 479.567 314.859 446.237 314.806 445.787 C 237.593 425.318 204.096 466.483 193.112 471.592 C 161.142 440.284 155.500 393.425 155.497 393.417 C 155.493 393.409 108.879 397.290 120.561 312.617 C 128.693 314.625 146.566 320.092 156.178 324.929 Z"/>
<path fill="none" stroke="#ffffff" stroke-width="4" stroke-linejoin="round" d="M 338.140 312.448 C 338.140 312.459 338.140 428.758 338.140 428.769 C 338.136 428.767 307.651 409.463 294.104 404.872 C 272.302 397.484 242.012 416.316 253.620 441.430 M 192.306 228.441 C 240.918 256.443 338.125 312.439 338.140 312.448 M 314.806 445.787 C 303.376 438.305 292.662 426.662 280.605 428.865 M 207.131 260.574 C 188.218 293.333 199.387 335.016 232.145 353.930 C 264.904 372.843 302.721 368.372 325.502 328.915 C 325.502 328.915 207.143 260.581 207.131 260.574 M 156.178 324.929 C 164.813 253.514 202.141 197.656 241.915 189.730 C 285.841 180.976 329.934 202.532 357.527 234.900 C 357.527 238.236 357.527 479.546 357.527 479.570 C 357.523 479.567 314.859 446.237 314.806 445.787 C 237.593 425.318 204.096 466.483 193.112 471.592 C 161.142 440.284 155.500 393.425 155.497 393.417 C 155.493 393.409 108.879 397.290 120.561 312.617 C 128.693 314.625 146.566 320.092 156.178 324.929 "/>
<path fill="#000000" fill-rule="evenodd" stroke="#ffffff" stroke-width="4" stroke-linejoin="round" d="M 258.482 136.952 C 282.974 158.719 279.139 164.923 276.147 189.948 C 285.279 203.572 307.050 212.615 318.105 202.846 C 320.366 161.385 301.699 132.220 258.482 136.952 Z"/>
</g>
<g id="specs_2">
<path fill="#ff0000" fill-rule="evenodd" stroke="none" d="M 360.000 681.526 C 360.001 681.529 371.741 714.401 371.742 714.404 C 371.741 714.403 360.001 703.480 360.000 703.479 C 359.999 703.480 348.259 714.403 348.258 714.404 C 348.259 714.401 359.999 681.529 360.000 681.526 Z"/>
<path fill="#0000ff" fill-rule="evenodd" stroke="none" d="M 360.000 107.186 C 360.001 107.188 366.820 126.282 366.821 126.284 C 366.820 126.283 360.001 119.939 360.000 119.938 C 359.999 119.939 353.180 126.283 353.179 126.284 C 353.180 126.282 359.999 107.188 360.000 107.186 Z"/>
<path fill="#00ff00" fill-rule="evenodd" stroke="none" d="M 91.448 370.851 C 91.449 370.851 109.858 364.171 109.860 364.170 C 109.859 364.171 103.764 370.788 103.764 370.789 C 103.764 370.790 109.926 377.345 109.926 377.346 C 109.924 377.345 91.449 370.852 91.448 370.851 Z"/>
<path fill="#ffff00" fill-rule="evenodd" stroke="none" d="M 162.596 545.491 C 162.596 545.489 169.897 529.594 169.897 529.593 C 169.897 529.594 170.282 537.620 170.282 537.621 C 170.283 537.621 178.315 537.816 178.316 537.816 C 178.315 537.816 162.597 545.490 162.596 545.491 Z"/>
<path fill="#ffff00" fill-rule="evenodd" stroke="none" d="M 557.404 545.296 C 557.404 545.294 549.786 529.549 549.785 529.548 C 549.785 529.548 549.562 537.581 549.562 537.582 C 549.561 537.582 541.534 537.938 541.533 537.938 C 541.534 537.939 557.403 545.295 557.404 545.296 Z"/>
<path fill="#00ff00" fill-rule="evenodd" stroke="none" d="M 628.552 370.851 C 628.551 370.851 610.142 364.171 610.140 364.170 C 610.141 364.171 616.236 370.788 616.236 370.789 C 616.236 370.790 610.075 377.345 610.074 377.346 C 610.076 377.345 628.551 370.852 628.552 370.851 Z"/>
<path fill="#00ffff" fill-rule="evenodd" stroke="none" d="M 541.393 180.420 C 541.392 180.421 536.006 195.630 536.006 195.631 C 536.006 195.630 534.986 188.289 534.985 188.288 C 534.985 188.288 527.589 188.776 527.589 188.776 C 527.590 188.776 541.391 180.420 541.393 180.420 Z"/>
<path fill="#00ffff" fill-rule="evenodd" stroke="none" d="M 178.713 180.924 C 178.713 180.925 185.101 195.741 185.102 195.742 C 185.102 195.741 185.630 188.348 185.630 188.348 C 185.631 188.348 193.043 188.342 193.043 188.342 C 193.042 188.341 178.714 180.924 178.713 180.924 Z"/>
<path fill="#be0027" fill-rule="evenodd" stroke="none" d="M 360.000 640.066 C 360.001 640.062 371.741 607.190 371.742 607.187 C 371.741 607.188 360.001 618.111 360.000 618.112 C 359.999 618.111 348.259 607.188 348.258 607.187 C 348.259 607.190 359.999 640.062 360.000 640.066 Z"/>
</g>
</g>
</svg>
