<?xml version="1.0" encoding="utf-8"?>
<!-- Generator: Moho 12.5 build 22414 -->
<!DOCTYPE svg PUBLIC "-//W3C//DTD SVG 1.1//EN" "http://www.w3.org/Graphics/SVG/1.1/DTD/svg11.dtd">
<svg version="1.1" id="Frame_0" xmlns="http://www.w3.org/2000/svg" xmlns:xlink="http://www.w3.org/1999/xlink" width="720px" height="720px">
<g id="devil_2">
<g id="devil_half">
<path fill="#000000" fill-rule="evenodd" stroke="#ffffff" stroke-width="4" stroke-linejoin="round" d="M 593.094 332.784 C 593.100 332.774 621.390 306.401 656.360 232.950 C 699.792 366.970 647.863 443.546 612.006 446.256 C 597.158 447.379 580.388 413.779 581.162 387.816 C 581.980 360.369 593.093 332.790 593.094 332.784 Z"/>
<path fill="#ffffff" fill-rule="evenodd" stroke="none" d="M 607.476 349.376 C 629.610 330.078 649.903 283.923 649.907 283.917 C 649.904 283.930 659.444 406.119 617.353 415.808 C 597.021 420.488 600.439 375.438 607.476 349.376 Z"/>
<path fill="#000000" fill-rule="evenodd" stroke="none" d="M 512.862 263.269 C 531.312 295.225 520.416 335.888 488.460 354.338 C 456.504 372.788 419.613 368.427 397.391 329.936 C 397.391 329.936 512.850 263.276 512.862 263.269 Z"/>
<path fill="#ffffff" fill-rule="evenodd" stroke="none" d="M 456.468 284.819 C 465.936 284.819 477.497 293.439 477.497 321.801 C 477.497 350.162 456.470 358.778 456.468 358.782 C 456.466 358.778 435.439 350.162 435.439 321.801 C 435.439 293.439 447.000 284.819 456.468 284.819 Z"/>
<path fill="#ffffff" fill-rule="evenodd" stroke="#000000" stroke-width="4" stroke-linejoin="round" d="M 551.985 11.061 C 435.271 81.258 481.918 174.553 481.911 174.570 C 481.904 174.567 435.194 158.997 411.836 151.212 C 412.490 56.471 459.205 11.160 551.985 11.061 Z"/>
<path fill="none" stroke="#000000" stroke-width="1" stroke-linecap="butt" stroke-linejoin="round" d="M 488.460 354.338 C 456.504 372.788 419.613 368.427 397.391 329.936 "/>
<path fill="none" stroke="#000000" stroke-width="1" stroke-linecap="butt" stroke-linejoin="round" d="M 397.391 329.936 C 397.391 329.936 512.850 263.276 512.862 263.269 "/>
<path fill="none" stroke="#000000" stroke-width="1" stroke-linecap="butt" stroke-linejoin="round" d="M 512.862 263.269 C 531.312 295.225 520.416 335.888 488.460 354.338 "/>
<path fill="#000000" fill-rule="evenodd" stroke="#ffffff" stroke-width="4" stroke-linejoin="round" d="M 488.460 354.338 C 456.504 372.788 419.613 368.427 397.391 329.936 C 397.391 329.936 512.850 263.276 512.862 263.269 C 531.312 295.225 520.416 335.888 488.460 354.338 M 460.710 521.905 C 460.700 521.903 422.886 502.993 366.150 502.993 C 366.150 503.004 366.153 616.454 366.150 616.465 C 517.446 616.465 612.006 506.688 612.006 370.608 C 612.006 234.528 517.446 124.752 366.150 124.752 C 366.150 124.752 366.150 200.400 366.150 238.224 C 366.150 241.478 366.150 476.877 366.150 476.901 C 366.150 476.902 366.150 483.903 366.150 483.904 C 441.798 484.081 460.700 521.901 460.710 521.905 Z"/>
<path fill="none" stroke="#ffffff" stroke-width="1" stroke-linecap="butt" stroke-linejoin="round" d="M 512.862 263.269 C 531.312 295.225 520.416 335.888 488.460 354.338 "/>
<path fill="none" stroke="#ffffff" stroke-width="1" stroke-linecap="butt" stroke-linejoin="round" d="M 488.460 354.338 C 456.504 372.788 419.613 368.427 397.391 329.936 "/>
<path fill="none" stroke="#ffffff" stroke-width="1" stroke-linecap="butt" stroke-linejoin="round" d="M 397.391 329.936 C 397.391 329.936 512.850 263.276 512.862 263.269 "/>
<path fill="none" stroke="#ffffff" stroke-width="1" stroke-linecap="butt" stroke-linejoin="round" d="M 366.150 238.224 C 366.150 241.478 366.150 476.877 366.150 476.901 "/>
<path fill="#ffffff" fill-rule="evenodd" stroke="none" d="M 512.862 263.269 C 531.312 295.225 520.416 335.888 488.460 354.338 C 456.504 372.788 419.613 368.427 397.391 329.936 C 397.391 329.936 512.850 263.276 512.862 263.269 M 478.930 194.160 C 437.428 180.497 393.066 206.649 366.150 238.224 C 366.150 241.478 366.150 476.877 366.150 476.901 C 366.154 476.898 403.953 444.972 407.824 443.946 C 483.146 423.978 521.581 475.921 526.537 469.118 C 611.299 352.793 546.075 216.265 478.930 194.160 Z"/>
<path fill="none" stroke="#000000" stroke-width="4" stroke-linejoin="round" d="M 428.019 404.033 C 450.734 397.362 479.996 421.161 466.042 445.278 M 385.062 427.345 C 385.066 427.342 414.631 407.965 428.019 404.033 M 385.062 313.872 C 385.062 313.883 385.062 427.333 385.062 427.345 M 527.323 231.923 C 479.903 259.239 385.076 313.864 385.062 313.872 M 407.824 443.946 C 418.553 438.150 429.282 432.353 440.011 426.557 M 512.862 263.269 C 531.312 295.225 520.416 335.888 488.460 354.338 C 456.504 372.788 419.613 368.427 397.391 329.936 C 397.391 329.936 512.850 263.276 512.862 263.269 M 478.930 194.160 C 437.428 180.497 393.066 206.649 366.150 238.224 C 366.150 241.478 366.150 476.877 366.150 476.901 C 366.154 476.898 403.953 444.972 407.824 443.946 C 483.146 423.978 521.581 475.921 526.537 469.118 C 611.299 352.793 546.075 216.265 478.930 194.160 "/>
</g>
<g id="devil_2">
<path fill="#ffffff" fill-rule="evenodd" stroke="#000000" stroke-width="4" stroke-linejoin="round" d="M 127.580 332.784 C 127.574 332.774 99.284 306.401 64.314 232.950 C 20.882 366.970 72.811 443.546 108.668 446.256 C 123.516 447.379 140.286 413.779 139.512 387.816 C 138.694 360.369 127.581 332.790 127.580 332.784 Z"/>
<path fill="#000000" fill-rule="evenodd" stroke="none" d="M 113.198 349.376 C 91.064 330.078 70.771 283.923 70.767 283.917 C 70.770 283.930 61.230 406.119 103.321 415.808 C 123.653 420.488 120.235 375.438 113.198 349.376 Z"/>
<path fill="#ffffff" fill-rule="evenodd" stroke="none" d="M 207.812 263.269 C 189.362 295.225 200.258 335.888 232.214 354.338 C 264.170 372.788 301.061 368.427 323.283 329.936 C 323.283 329.936 207.824 263.276 207.812 263.269 Z"/>
<path fill="#000000" fill-rule="evenodd" stroke="none" d="M 264.206 284.819 C 254.738 284.819 243.177 293.439 243.177 321.801 C 243.177 350.162 264.204 358.778 264.206 358.782 C 264.208 358.778 285.235 350.162 285.235 321.801 C 285.235 293.439 273.674 284.819 264.206 284.819 Z"/>
<path fill="#000000" fill-rule="evenodd" stroke="#ffffff" stroke-width="4" stroke-linejoin="round" d="M 168.689 11.061 C 285.403 81.258 238.756 174.553 238.763 174.570 C 238.770 174.567 285.480 158.997 308.838 151.212 C 308.184 56.471 261.469 11.160 168.689 11.061 Z"/>
<path fill="none" stroke="#ffffff" stroke-width="1" stroke-linecap="butt" stroke-linejoin="round" d="M 232.214 354.338 C 264.170 372.788 301.061 368.427 323.283 329.936 "/>
<path fill="none" stroke="#ffffff" stroke-width="1" stroke-linecap="butt" stroke-linejoin="round" d="M 323.283 329.936 C 323.283 329.936 207.824 263.276 207.812 263.269 "/>
<path fill="none" stroke="#ffffff" stroke-width="1" stroke-linecap="butt" stroke-linejoin="round" d="M 207.812 263.269 C 189.362 295.225 200.258 335.888 232.214 354.338 "/>
<path fill="#ffffff" fill-rule="evenodd" stroke="#000000" stroke-width="4" stroke-linejoin="round" d="M 232.214 354.338 C 264.170 372.788 301.061 368.427 323.283 329.936 C 323.283 329.936 207.824 263.276 207.812 263.269 C 189.362 295.225 200.258 335.888 232.214 354.338 M 259.964 521.905 C 259.974 521.903 297.788 502.993 354.524 502.993 C 354.524 503.004 354.521 616.454 354.524 616.465 C 203.228 616.465 108.668 506.688 108.668 370.608 C 108.668 234.528 203.228 124.752 354.524 124.752 C 354.524 124.752 354.524 200.400 354.524 238.224 C 354.524 241.478 354.524 476.877 354.524 476.901 C 354.524 476.902 354.524 483.903 354.524 483.904 C 278.876 484.081 259.974 521.901 259.964 521.905 Z"/>
<path fill="none" stroke="#000000" stroke-width="1" stroke-linecap="butt" stroke-linejoin="round" d="M 207.812 263.269 C 189.362 295.225 200.258 335.888 232.214 354.338 "/>
<path fill="none" stroke="#000000" stroke-width="1" stroke-linecap="butt" stroke-linejoin="round" d="M 232.214 354.338 C 264.170 372.788 301.061 368.427 323.283 329.936 "/>
<path fill="none" stroke="#000000" stroke-width="1" stroke-linecap="butt" stroke-linejoin="round" d="M 323.283 329.936 C 323.283 329.936 207.824 263.276 207.812 263.269 "/>
<path fill="none" stroke="#000000" stroke-width="1" stroke-linecap="butt" stroke-linejoin="round" d="M 354.524 238.224 C 354.524 241.478 354.524 476.877 354.524 476.901 "/>
<path fill="#000000" fill-rule="evenodd" stroke="none" d="M 207.812 263.269 C 189.362 295.225 200.258 335.888 232.214 354.338 C 264.170 372.788 301.061 368.427 323.283 329.936 C 323.283 329.936 207.824 263.276 207.812 263.269 M 241.744 194.160 C 283.246 180.497 327.608 206.649 354.524 238.224 C 354.524 241.478 354.524 476.877 354.524 476.901 C 354.520 476.898 316.721 444.972 312.850 443.946 C 237.528 423.978 199.093 475.921 194.137 469.118 C 109.375 352.793 174.599 216.265 241.744 194.160 Z"/>
<path fill="none" stroke="#ffffff" stroke-width="4" stroke-linejoin="round" d="M 292.655 404.033 C 269.940 397.362 240.678 421.161 254.632 445.278 M 335.612 427.345 C 335.608 427.342 306.043 407.965 292.655 404.033 M 335.612 313.872 C 335.612 313.883 335.612 427.333 335.612 427.345 M 193.351 231.923 C 240.771 259.239 335.598 313.864 335.612 313.872 M 312.850 443.946 C 302.121 438.150 291.392 432.353 280.663 426.557 M 207.812 263.269 C 189.362 295.225 200.258 335.888 232.214 354.338 C 264.170 372.788 301.061 368.427 323.283 329.936 C 323.283 329.936 207.824 263.276 207.812 263.269 M 241.744 194.160 C 283.246 180.497 327.608 206.649 354.524 238.224 C 354.524 241.478 354.524 476.877 354.524 476.901 C 354.520 476.898 316.721 444.972 312.850 443.946 C 237.528 423.978 199.093 475.921 194.137 469.118 C 109.375 352.793 174.599 216.265 241.744 194.160 "/>
</g>
<g id="specs_2">
<path fill="#ff0000" fill-rule="evenodd" stroke="none" d="M 360.000 681.526 C 360.001 681.529 371.741 714.401 371.742 714.404 C 371.741 714.403 360.001 703.480 360.000 703.479 C 359.999 703.480 348.259 714.403 348.258 714.404 C 348.259 714.401 359.999 681.529 360.000 681.526 Z"/>
<path fill="#0000ff" fill-rule="evenodd" stroke="none" d="M 360.000 107.186 C 360.001 107.188 366.820 126.282 366.821 126.284 C 366.820 126.283 360.001 119.939 360.000 119.938 C 359.999 119.939 353.180 126.283 353.179 126.284 C 353.180 126.282 359.999 107.188 360.000 107.186 Z"/>
<path fill="#00ff00" fill-rule="evenodd" stroke="none" d="M 31.195 342.489 C 31.197 342.488 50.622 335.439 50.624 335.439 C 50.623 335.439 44.192 342.423 44.191 342.423 C 44.192 342.424 50.693 349.341 50.694 349.342 C 50.692 349.341 31.197 342.490 31.195 342.489 Z"/>
<path fill="#ffff00" fill-rule="evenodd" stroke="none" d="M 158.810 548.991 C 158.811 548.990 166.251 532.790 166.252 532.789 C 166.252 532.789 166.644 540.970 166.644 540.970 C 166.644 540.970 174.831 541.169 174.832 541.169 C 174.830 541.170 158.812 548.990 158.810 548.991 Z"/>
<path fill="#ffff00" fill-rule="evenodd" stroke="none" d="M 561.190 548.793 C 561.189 548.791 553.425 532.744 553.425 532.742 C 553.425 532.743 553.197 540.930 553.197 540.931 C 553.196 540.931 545.015 541.293 545.014 541.293 C 545.015 541.294 561.188 548.792 561.190 548.793 Z"/>
<path fill="#00ff00" fill-rule="evenodd" stroke="none" d="M 688.805 342.489 C 688.803 342.488 669.378 335.439 669.376 335.439 C 669.377 335.439 675.808 342.423 675.809 342.423 C 675.808 342.424 669.307 349.341 669.306 349.342 C 669.308 349.341 688.803 342.490 688.805 342.489 Z"/>
<path fill="#00ffff" fill-rule="evenodd" stroke="none" d="M 544.871 176.919 C 544.871 176.921 539.382 192.421 539.381 192.422 C 539.381 192.421 538.341 184.939 538.341 184.938 C 538.341 184.939 530.803 185.436 530.802 185.436 C 530.804 185.435 544.870 176.920 544.871 176.919 Z"/>
<path fill="#00ffff" fill-rule="evenodd" stroke="none" d="M 175.236 177.433 C 175.237 177.434 181.747 192.534 181.748 192.535 C 181.748 192.535 182.286 185.000 182.286 184.999 C 182.287 184.999 189.841 184.993 189.842 184.993 C 189.840 184.992 175.238 177.434 175.236 177.433 Z"/>
<path fill="#be0027" fill-rule="evenodd" stroke="none" d="M 360.000 640.066 C 360.001 640.062 371.741 607.190 371.742 607.187 C 371.741 607.188 360.001 618.111 360.000 618.112 C 359.999 618.111 348.259 607.188 348.258 607.187 C 348.259 607.190 359.999 640.062 360.000 640.066 Z"/>
</g>
</g>
</svg>
