<?xml version="1.0" encoding="utf-8"?>
<!-- Generator: Moho 12.5 build 22414 -->
<!DOCTYPE svg PUBLIC "-//W3C//DTD SVG 1.1//EN" "http://www.w3.org/Graphics/SVG/1.1/DTD/svg11.dtd">
<svg version="1.1" id="Frame_0" xmlns="http://www.w3.org/2000/svg" xmlns:xlink="http://www.w3.org/1999/xlink" width="720px" height="720px">
<g id="devil_3">
<g id="devil_half">
<path fill="#000000" fill-rule="evenodd" stroke="none" d="M 514.013 263.269 C 532.463 295.225 521.568 335.888 489.612 354.338 C 457.655 372.788 420.765 368.427 398.542 329.936 C 398.542 329.936 514.002 263.276 514.013 263.269 Z"/>
<path fill="#ffffff" fill-rule="evenodd" stroke="none" d="M 457.619 284.819 C 467.087 284.819 478.648 293.439 478.648 321.801 C 478.648 350.162 457.621 358.778 457.619 358.782 C 457.617 358.778 436.591 350.162 436.591 321.801 C 436.591 293.439 448.152 284.819 457.619 284.819 Z"/>
<path fill="#ffffff" fill-rule="evenodd" stroke="#000000" stroke-width="4" stroke-linejoin="round" d="M 507.507 43.742 C 424.477 93.680 457.662 160.049 457.657 160.061 C 457.652 160.059 424.423 148.983 407.806 143.444 C 408.271 76.046 441.504 43.812 507.507 43.742 Z"/>
<path fill="none" stroke="#000000" stroke-width="1" stroke-linecap="butt" stroke-linejoin="round" d="M 489.612 354.338 C 457.655 372.788 420.765 368.427 398.542 329.936 "/>
<path fill="none" stroke="#000000" stroke-width="1" stroke-linecap="butt" stroke-linejoin="round" d="M 398.542 329.936 C 398.542 329.936 514.002 263.276 514.013 263.269 "/>
<path fill="none" stroke="#000000" stroke-width="1" stroke-linecap="butt" stroke-linejoin="round" d="M 514.013 263.269 C 532.463 295.225 521.568 335.888 489.612 354.338 "/>
<path fill="#000000" fill-rule="evenodd" stroke="#ffffff" stroke-width="4" stroke-linejoin="round" d="M 489.612 354.338 C 457.655 372.788 420.765 368.427 398.542 329.936 C 398.542 329.936 514.002 263.276 514.013 263.269 C 532.463 295.225 521.568 335.888 489.612 354.338 M 461.861 521.905 C 461.852 521.903 424.037 502.993 367.301 502.993 C 367.301 503.004 367.305 616.454 367.301 616.465 C 518.597 616.465 613.157 506.688 613.157 370.608 C 613.157 234.528 518.597 124.752 367.301 124.752 C 367.301 124.752 367.301 200.400 367.301 238.224 C 367.301 241.478 367.301 476.877 367.301 476.901 C 367.301 476.902 367.301 483.903 367.301 483.904 C 442.949 484.081 461.852 521.901 461.861 521.905 Z"/>
<path fill="none" stroke="#ffffff" stroke-width="1" stroke-linecap="butt" stroke-linejoin="round" d="M 514.013 263.269 C 532.463 295.225 521.568 335.888 489.612 354.338 "/>
<path fill="none" stroke="#ffffff" stroke-width="1" stroke-linecap="butt" stroke-linejoin="round" d="M 489.612 354.338 C 457.655 372.788 420.765 368.427 398.542 329.936 "/>
<path fill="none" stroke="#ffffff" stroke-width="1" stroke-linecap="butt" stroke-linejoin="round" d="M 398.542 329.936 C 398.542 329.936 514.002 263.276 514.013 263.269 "/>
<path fill="none" stroke="#ffffff" stroke-width="1" stroke-linecap="butt" stroke-linejoin="round" d="M 367.301 238.224 C 367.301 241.478 367.301 476.877 367.301 476.901 "/>
<path fill="#ffffff" fill-rule="evenodd" stroke="none" d="M 514.013 263.269 C 532.463 295.225 521.568 335.888 489.612 354.338 C 457.655 372.788 420.765 368.427 398.542 329.936 C 398.542 329.936 514.002 263.276 514.013 263.269 M 563.718 326.048 C 555.294 256.382 518.880 201.892 480.081 194.160 C 437.231 185.621 394.218 206.649 367.301 238.224 C 367.301 241.478 367.301 476.877 367.301 476.901 C 367.305 476.898 408.924 444.385 408.975 443.946 C 484.297 423.978 516.974 464.135 527.689 469.118 C 558.876 438.577 564.379 392.866 564.383 392.859 C 564.386 392.851 609.858 396.637 598.463 314.038 C 590.530 315.997 573.095 321.330 563.718 326.048 Z"/>
<path fill="none" stroke="#000000" stroke-width="4" stroke-linejoin="round" d="M 386.213 313.872 C 386.213 313.883 386.213 427.333 386.213 427.345 C 386.217 427.342 415.955 408.511 429.170 404.033 C 450.439 396.826 479.987 415.197 468.663 439.695 M 528.475 231.923 C 481.054 259.239 386.227 313.864 386.213 313.872 M 408.975 443.946 C 420.125 436.647 430.577 425.289 442.338 427.438 M 514.013 263.269 C 532.463 295.225 521.568 335.888 489.612 354.338 C 457.655 372.788 420.765 368.427 398.542 329.936 C 398.542 329.936 514.002 263.276 514.013 263.269 M 563.718 326.048 C 555.294 256.382 518.880 201.892 480.081 194.160 C 437.231 185.621 394.218 206.649 367.301 238.224 C 367.301 241.478 367.301 476.877 367.301 476.901 C 367.305 476.898 408.924 444.385 408.975 443.946 C 484.297 423.978 516.974 464.135 527.689 469.118 C 558.876 438.577 564.379 392.866 564.383 392.859 C 564.386 392.851 609.858 396.637 598.463 314.038 C 590.530 315.997 573.095 321.330 563.718 326.048 "/>
</g>
<g id="devil_half_2">
<path fill="#ffffff" fill-rule="evenodd" stroke="none" d="M 206.080 263.269 C 187.630 295.225 198.526 335.888 230.482 354.338 C 262.438 372.788 299.329 368.427 321.551 329.936 C 321.551 329.936 206.092 263.276 206.080 263.269 Z"/>
<path fill="#000000" fill-rule="evenodd" stroke="none" d="M 262.474 284.819 C 253.006 284.819 241.445 293.439 241.445 321.801 C 241.445 350.162 262.472 358.778 262.474 358.782 C 262.476 358.778 283.503 350.162 283.503 321.801 C 283.503 293.439 271.942 284.819 262.474 284.819 Z"/>
<path fill="#000000" fill-rule="evenodd" stroke="#ffffff" stroke-width="4" stroke-linejoin="round" d="M 212.586 43.742 C 295.616 93.680 262.432 160.049 262.437 160.061 C 262.442 160.059 295.671 148.983 312.288 143.444 C 311.823 76.046 278.590 43.812 212.586 43.742 Z"/>
<path fill="none" stroke="#ffffff" stroke-width="1" stroke-linecap="butt" stroke-linejoin="round" d="M 230.482 354.338 C 262.438 372.788 299.329 368.427 321.551 329.936 "/>
<path fill="none" stroke="#ffffff" stroke-width="1" stroke-linecap="butt" stroke-linejoin="round" d="M 321.551 329.936 C 321.551 329.936 206.092 263.276 206.080 263.269 "/>
<path fill="none" stroke="#ffffff" stroke-width="1" stroke-linecap="butt" stroke-linejoin="round" d="M 206.080 263.269 C 187.630 295.225 198.526 335.888 230.482 354.338 "/>
<path fill="#ffffff" fill-rule="evenodd" stroke="#000000" stroke-width="4" stroke-linejoin="round" d="M 230.482 354.338 C 262.438 372.788 299.329 368.427 321.551 329.936 C 321.551 329.936 206.092 263.276 206.080 263.269 C 187.630 295.225 198.526 335.888 230.482 354.338 M 258.232 521.905 C 258.242 521.903 296.056 502.993 352.792 502.993 C 352.792 503.004 352.789 616.454 352.792 616.465 C 201.496 616.465 106.936 506.688 106.936 370.608 C 106.936 234.528 201.496 124.752 352.792 124.752 C 352.792 124.752 352.792 200.400 352.792 238.224 C 352.792 241.478 352.792 476.877 352.792 476.901 C 352.792 476.902 352.792 483.903 352.792 483.904 C 277.144 484.081 258.242 521.901 258.232 521.905 Z"/>
<path fill="none" stroke="#000000" stroke-width="1" stroke-linecap="butt" stroke-linejoin="round" d="M 206.080 263.269 C 187.630 295.225 198.526 335.888 230.482 354.338 "/>
<path fill="none" stroke="#000000" stroke-width="1" stroke-linecap="butt" stroke-linejoin="round" d="M 230.482 354.338 C 262.438 372.788 299.329 368.427 321.551 329.936 "/>
<path fill="none" stroke="#000000" stroke-width="1" stroke-linecap="butt" stroke-linejoin="round" d="M 321.551 329.936 C 321.551 329.936 206.092 263.276 206.080 263.269 "/>
<path fill="none" stroke="#000000" stroke-width="1" stroke-linecap="butt" stroke-linejoin="round" d="M 352.792 238.224 C 352.792 241.478 352.792 476.877 352.792 476.901 "/>
<path fill="#000000" fill-rule="evenodd" stroke="none" d="M 206.080 263.269 C 187.630 295.225 198.526 335.888 230.482 354.338 C 262.438 372.788 299.329 368.427 321.551 329.936 C 321.551 329.936 206.092 263.276 206.080 263.269 M 156.375 326.048 C 164.799 256.382 201.213 201.892 240.012 194.160 C 282.862 185.621 325.876 206.649 352.792 238.224 C 352.792 241.478 352.792 476.877 352.792 476.901 C 352.788 476.898 311.169 444.385 311.118 443.946 C 235.796 423.978 203.120 464.135 192.405 469.118 C 161.218 438.577 155.714 392.866 155.710 392.859 C 155.707 392.851 110.235 396.637 121.631 314.038 C 129.563 315.997 146.999 321.330 156.375 326.048 Z"/>
<path fill="none" stroke="#ffffff" stroke-width="4" stroke-linejoin="round" d="M 333.880 313.872 C 333.880 313.883 333.880 427.333 333.880 427.345 C 333.876 427.342 304.138 408.511 290.923 404.033 C 269.655 396.826 240.106 415.197 251.431 439.695 M 191.619 231.923 C 239.039 259.239 333.866 313.864 333.880 313.872 M 311.118 443.946 C 299.968 436.647 289.517 425.289 277.755 427.438 M 206.080 263.269 C 187.630 295.225 198.526 335.888 230.482 354.338 C 262.438 372.788 299.329 368.427 321.551 329.936 C 321.551 329.936 206.092 263.276 206.080 263.269 M 156.375 326.048 C 164.799 256.382 201.213 201.892 240.012 194.160 C 282.862 185.621 325.876 206.649 352.792 238.224 C 352.792 241.478 352.792 476.877 352.792 476.901 C 352.788 476.898 311.169 444.385 311.118 443.946 C 235.796 423.978 203.120 464.135 192.405 469.118 C 161.218 438.577 155.714 392.866 155.710 392.859 C 155.707 392.851 110.235 396.637 121.631 314.038 C 129.563 315.997 146.999 321.330 156.375 326.048 "/>
</g>
<g id="specs_2">
<path fill="#ff0000" fill-rule="evenodd" stroke="none" d="M 360.000 681.526 C 360.001 681.529 371.741 714.401 371.742 714.404 C 371.741 714.403 360.001 703.480 360.000 703.479 C 359.999 703.480 348.259 714.403 348.258 714.404 C 348.259 714.401 359.999 681.529 360.000 681.526 Z"/>
<path fill="#0000ff" fill-rule="evenodd" stroke="none" d="M 360.000 107.186 C 360.001 107.188 366.820 126.282 366.821 126.284 C 366.820 126.283 360.001 119.939 360.000 119.938 C 359.999 119.939 353.180 126.283 353.179 126.284 C 353.180 126.282 359.999 107.188 360.000 107.186 Z"/>
<path fill="#00ff00" fill-rule="evenodd" stroke="none" d="M 91.448 370.851 C 91.449 370.851 109.858 364.171 109.860 364.170 C 109.859 364.171 103.764 370.789 103.764 370.789 C 103.764 370.790 109.925 377.345 109.926 377.345 C 109.924 377.345 91.449 370.852 91.448 370.851 Z"/>
<path fill="#ffff00" fill-rule="evenodd" stroke="none" d="M 162.596 545.491 C 162.596 545.489 169.897 529.594 169.897 529.593 C 169.897 529.594 170.282 537.620 170.282 537.621 C 170.283 537.621 178.315 537.816 178.316 537.816 C 178.315 537.816 162.597 545.490 162.596 545.491 Z"/>
<path fill="#ffff00" fill-rule="evenodd" stroke="none" d="M 557.404 545.296 C 557.404 545.294 549.786 529.549 549.785 529.548 C 549.785 529.548 549.562 537.581 549.562 537.582 C 549.561 537.582 541.534 537.938 541.533 537.938 C 541.534 537.939 557.403 545.295 557.404 545.296 Z"/>
<path fill="#00ff00" fill-rule="evenodd" stroke="none" d="M 628.552 370.851 C 628.551 370.851 610.142 364.171 610.140 364.170 C 610.141 364.171 616.236 370.789 616.236 370.789 C 616.236 370.790 610.075 377.345 610.074 377.345 C 610.076 377.345 628.551 370.852 628.552 370.851 Z"/>
<path fill="#00ffff" fill-rule="evenodd" stroke="none" d="M 541.393 180.420 C 541.392 180.421 536.006 195.630 536.006 195.631 C 536.006 195.630 534.986 188.289 534.985 188.288 C 534.985 188.288 527.589 188.776 527.589 188.776 C 527.590 188.776 541.391 180.420 541.393 180.420 Z"/>
<path fill="#00ffff" fill-rule="evenodd" stroke="none" d="M 178.713 180.924 C 178.713 180.925 185.101 195.741 185.102 195.742 C 185.102 195.741 185.630 188.348 185.630 188.348 C 185.631 188.348 193.043 188.342 193.043 188.342 C 193.042 188.341 178.714 180.924 178.713 180.924 Z"/>
<path fill="#be0027" fill-rule="evenodd" stroke="none" d="M 360.000 640.066 C 360.001 640.062 371.741 607.190 371.742 607.187 C 371.741 607.188 360.001 618.111 360.000 618.112 C 359.999 618.111 348.259 607.188 348.258 607.187 C 348.259 607.190 359.999 640.062 360.000 640.066 Z"/>
</g>
</g>
</svg>
