<?xml version="1.0" encoding="utf-8"?>
<!-- Generator: Moho 12.5 build 22414 -->
<!DOCTYPE svg PUBLIC "-//W3C//DTD SVG 1.1//EN" "http://www.w3.org/Graphics/SVG/1.1/DTD/svg11.dtd">
<svg version="1.1" id="Frame_0" xmlns="http://www.w3.org/2000/svg" xmlns:xlink="http://www.w3.org/1999/xlink" width="720px" height="720px">
<g id="devil_2">
<g id="devil_half">
<path fill="#000000" fill-rule="evenodd" stroke="#ffffff" stroke-width="4" stroke-linejoin="round" d="M 586.944 332.784 C 586.951 332.774 615.240 306.401 650.210 232.950 C 693.642 366.970 641.713 443.546 605.856 446.257 C 591.008 447.379 574.238 413.779 575.012 387.816 C 575.830 360.369 586.943 332.790 586.944 332.784 Z"/>
<path fill="#ffffff" fill-rule="evenodd" stroke="none" d="M 601.326 349.376 C 623.461 330.078 643.753 283.923 643.758 283.917 C 643.754 283.930 653.294 406.119 611.204 415.808 C 590.871 420.488 594.290 375.438 601.326 349.376 Z"/>
<path fill="#000000" fill-rule="evenodd" stroke="none" d="M 506.712 263.269 C 525.162 295.225 514.267 335.888 482.311 354.338 C 450.354 372.788 413.464 368.427 391.241 329.936 C 391.241 329.936 506.701 263.276 506.712 263.269 Z"/>
<path fill="#ffffff" fill-rule="evenodd" stroke="none" d="M 450.318 284.819 C 459.786 284.819 471.347 293.439 471.347 321.801 C 471.347 350.162 450.320 358.778 450.318 358.782 C 450.316 358.778 429.290 350.162 429.290 321.801 C 429.290 293.439 440.850 284.819 450.318 284.819 Z"/>
<path fill="#ffffff" fill-rule="evenodd" stroke="#000000" stroke-width="4" stroke-linejoin="round" d="M 545.836 11.061 C 429.121 81.259 475.768 174.553 475.761 174.570 C 475.754 174.567 429.045 158.998 405.687 151.212 C 406.340 56.471 453.055 11.160 545.836 11.061 Z"/>
<path fill="none" stroke="#000000" stroke-width="1" stroke-linecap="butt" stroke-linejoin="round" d="M 482.311 354.338 C 450.354 372.788 413.464 368.427 391.241 329.936 "/>
<path fill="none" stroke="#000000" stroke-width="1" stroke-linecap="butt" stroke-linejoin="round" d="M 391.241 329.936 C 391.241 329.936 506.701 263.276 506.712 263.269 "/>
<path fill="none" stroke="#000000" stroke-width="1" stroke-linecap="butt" stroke-linejoin="round" d="M 506.712 263.269 C 525.162 295.225 514.267 335.888 482.311 354.338 "/>
<path fill="#000000" fill-rule="evenodd" stroke="#ffffff" stroke-width="4" stroke-linejoin="round" d="M 482.311 354.338 C 450.354 372.788 413.464 368.427 391.241 329.936 C 391.241 329.936 506.701 263.276 506.712 263.269 C 525.162 295.225 514.267 335.888 482.311 354.338 M 454.560 521.905 C 454.551 521.903 416.736 502.993 360.000 502.993 C 360.000 503.004 360.004 616.454 360.000 616.465 C 511.296 616.465 605.856 506.688 605.856 370.608 C 605.856 234.529 511.296 124.752 360.000 124.752 C 360.000 124.752 360.000 200.400 360.000 238.224 C 360.000 241.478 360.000 476.877 360.000 476.901 C 360.000 476.902 360.000 483.903 360.000 483.904 C 435.648 484.081 454.551 521.901 454.560 521.905 Z"/>
<path fill="none" stroke="#ffffff" stroke-width="1" stroke-linecap="butt" stroke-linejoin="round" d="M 506.712 263.269 C 525.162 295.225 514.267 335.888 482.311 354.338 "/>
<path fill="none" stroke="#ffffff" stroke-width="1" stroke-linecap="butt" stroke-linejoin="round" d="M 482.311 354.338 C 450.354 372.788 413.464 368.427 391.241 329.936 "/>
<path fill="none" stroke="#ffffff" stroke-width="1" stroke-linecap="butt" stroke-linejoin="round" d="M 391.241 329.936 C 391.241 329.936 506.701 263.276 506.712 263.269 "/>
<path fill="none" stroke="#ffffff" stroke-width="1" stroke-linecap="butt" stroke-linejoin="round" d="M 360.000 238.224 C 360.000 241.478 360.000 476.877 360.000 476.901 "/>
<path fill="#ffffff" fill-rule="evenodd" stroke="none" d="M 506.712 263.269 C 525.162 295.225 514.267 335.888 482.311 354.338 C 450.354 372.788 413.464 368.427 391.241 329.936 C 391.241 329.936 506.701 263.276 506.712 263.269 M 472.780 194.160 C 431.279 180.497 386.917 206.649 360.000 238.224 C 360.000 241.478 360.000 476.877 360.000 476.901 C 360.004 476.898 397.803 444.972 401.674 443.946 C 476.996 423.978 515.431 475.921 520.388 469.119 C 605.150 352.793 539.925 216.265 472.780 194.160 Z"/>
<path fill="none" stroke="#000000" stroke-width="4" stroke-linejoin="round" d="M 421.869 404.033 C 444.585 397.362 473.847 421.161 459.893 445.278 M 378.912 427.345 C 378.917 427.342 408.481 407.965 421.869 404.033 M 378.912 313.872 C 378.912 313.884 378.912 427.333 378.912 427.345 M 521.174 231.923 C 473.753 259.239 378.926 313.864 378.912 313.872 M 401.674 443.946 C 412.404 438.150 423.133 432.353 433.862 426.557 M 506.712 263.269 C 525.162 295.225 514.267 335.888 482.311 354.338 C 450.354 372.788 413.464 368.427 391.241 329.936 C 391.241 329.936 506.701 263.276 506.712 263.269 M 472.780 194.160 C 431.279 180.497 386.917 206.649 360.000 238.224 C 360.000 241.478 360.000 476.877 360.000 476.901 C 360.004 476.898 397.803 444.972 401.674 443.946 C 476.996 423.978 515.431 475.921 520.388 469.119 C 605.150 352.793 539.925 216.265 472.780 194.160 "/>
</g>
<g id="devil_2">
<path fill="#ffffff" fill-rule="evenodd" stroke="#000000" stroke-width="4" stroke-linejoin="round" d="M 133.056 332.784 C 133.049 332.774 104.760 306.401 69.790 232.950 C 26.358 366.970 78.287 443.546 114.144 446.257 C 128.992 447.379 145.762 413.779 144.988 387.816 C 144.170 360.369 133.057 332.790 133.056 332.784 Z"/>
<path fill="#000000" fill-rule="evenodd" stroke="none" d="M 118.674 349.376 C 96.539 330.078 76.247 283.923 76.242 283.917 C 76.246 283.930 66.706 406.119 108.796 415.808 C 129.129 420.488 125.710 375.438 118.674 349.376 Z"/>
<path fill="#ffffff" fill-rule="evenodd" stroke="none" d="M 213.288 263.269 C 194.838 295.225 205.733 335.888 237.689 354.338 C 269.646 372.788 306.536 368.427 328.759 329.936 C 328.759 329.936 213.299 263.276 213.288 263.269 Z"/>
<path fill="#000000" fill-rule="evenodd" stroke="none" d="M 269.682 284.819 C 260.214 284.819 248.653 293.439 248.653 321.801 C 248.653 350.162 269.680 358.778 269.682 358.782 C 269.684 358.778 290.710 350.162 290.710 321.801 C 290.710 293.439 279.149 284.819 269.682 284.819 Z"/>
<path fill="#000000" fill-rule="evenodd" stroke="#ffffff" stroke-width="4" stroke-linejoin="round" d="M 174.164 11.061 C 290.879 81.259 244.232 174.553 244.239 174.570 C 244.246 174.567 290.955 158.998 314.313 151.212 C 313.660 56.471 266.945 11.160 174.164 11.061 Z"/>
<path fill="none" stroke="#ffffff" stroke-width="1" stroke-linecap="butt" stroke-linejoin="round" d="M 237.689 354.338 C 269.646 372.788 306.536 368.427 328.759 329.936 "/>
<path fill="none" stroke="#ffffff" stroke-width="1" stroke-linecap="butt" stroke-linejoin="round" d="M 328.759 329.936 C 328.759 329.936 213.299 263.276 213.288 263.269 "/>
<path fill="none" stroke="#ffffff" stroke-width="1" stroke-linecap="butt" stroke-linejoin="round" d="M 213.288 263.269 C 194.838 295.225 205.733 335.888 237.689 354.338 "/>
<path fill="#ffffff" fill-rule="evenodd" stroke="#000000" stroke-width="4" stroke-linejoin="round" d="M 237.689 354.338 C 269.646 372.788 306.536 368.427 328.759 329.936 C 328.759 329.936 213.299 263.276 213.288 263.269 C 194.838 295.225 205.733 335.888 237.689 354.338 M 265.440 521.905 C 265.449 521.903 303.264 502.993 360.000 502.993 C 360.000 503.004 359.996 616.454 360.000 616.465 C 208.704 616.465 114.144 506.688 114.144 370.608 C 114.144 234.529 208.704 124.752 360.000 124.752 C 360.000 124.752 360.000 200.400 360.000 238.224 C 360.000 241.478 360.000 476.877 360.000 476.901 C 360.000 476.902 360.000 483.903 360.000 483.904 C 284.352 484.081 265.449 521.901 265.440 521.905 Z"/>
<path fill="none" stroke="#000000" stroke-width="1" stroke-linecap="butt" stroke-linejoin="round" d="M 213.288 263.269 C 194.838 295.225 205.733 335.888 237.689 354.338 "/>
<path fill="none" stroke="#000000" stroke-width="1" stroke-linecap="butt" stroke-linejoin="round" d="M 237.689 354.338 C 269.646 372.788 306.536 368.427 328.759 329.936 "/>
<path fill="none" stroke="#000000" stroke-width="1" stroke-linecap="butt" stroke-linejoin="round" d="M 328.759 329.936 C 328.759 329.936 213.299 263.276 213.288 263.269 "/>
<path fill="none" stroke="#000000" stroke-width="1" stroke-linecap="butt" stroke-linejoin="round" d="M 360.000 238.224 C 360.000 241.478 360.000 476.877 360.000 476.901 "/>
<path fill="#000000" fill-rule="evenodd" stroke="none" d="M 213.288 263.269 C 194.838 295.225 205.733 335.888 237.689 354.338 C 269.646 372.788 306.536 368.427 328.759 329.936 C 328.759 329.936 213.299 263.276 213.288 263.269 M 247.220 194.160 C 288.721 180.497 333.083 206.649 360.000 238.224 C 360.000 241.478 360.000 476.877 360.000 476.901 C 359.996 476.898 322.197 444.972 318.326 443.946 C 243.004 423.978 204.569 475.921 199.612 469.119 C 114.851 352.793 180.075 216.265 247.220 194.160 Z"/>
<path fill="none" stroke="#ffffff" stroke-width="4" stroke-linejoin="round" d="M 298.131 404.033 C 275.415 397.362 246.153 421.161 260.107 445.278 M 341.088 427.345 C 341.084 427.342 311.519 407.965 298.131 404.033 M 341.088 313.872 C 341.088 313.884 341.088 427.333 341.088 427.345 M 198.826 231.923 C 246.247 259.239 341.074 313.864 341.088 313.872 M 318.326 443.946 C 307.596 438.150 296.867 432.353 286.138 426.557 M 213.288 263.269 C 194.838 295.225 205.733 335.888 237.689 354.338 C 269.646 372.788 306.536 368.427 328.759 329.936 C 328.759 329.936 213.299 263.276 213.288 263.269 M 247.220 194.160 C 288.721 180.497 333.083 206.649 360.000 238.224 C 360.000 241.478 360.000 476.877 360.000 476.901 C 359.996 476.898 322.197 444.972 318.326 443.946 C 243.004 423.978 204.569 475.921 199.612 469.119 C 114.851 352.793 180.075 216.265 247.220 194.160 "/>
</g>
<g id="specs_2">
<path fill="#ff0000" fill-rule="evenodd" stroke="none" d="M 360.000 681.526 C 360.001 681.529 371.741 714.401 371.742 714.404 C 371.741 714.403 360.001 703.480 360.000 703.479 C 359.999 703.480 348.259 714.403 348.258 714.404 C 348.259 714.401 359.999 681.529 360.000 681.526 Z"/>
<path fill="#0000ff" fill-rule="evenodd" stroke="none" d="M 360.000 107.186 C 360.001 107.188 366.820 126.282 366.821 126.284 C 366.820 126.284 360.001 119.939 360.000 119.938 C 359.999 119.939 353.180 126.284 353.179 126.284 C 353.180 126.282 359.999 107.188 360.000 107.186 Z"/>
<path fill="#00ff00" fill-rule="evenodd" stroke="none" d="M 37.382 342.874 C 37.384 342.873 56.444 335.957 56.445 335.956 C 56.445 335.957 50.134 342.809 50.134 342.810 C 50.134 342.810 56.514 349.597 56.514 349.598 C 56.512 349.597 37.384 342.875 37.382 342.874 Z"/>
<path fill="#ffff00" fill-rule="evenodd" stroke="none" d="M 162.596 545.491 C 162.597 545.489 169.897 529.595 169.898 529.593 C 169.898 529.594 170.282 537.620 170.282 537.621 C 170.283 537.621 178.316 537.815 178.316 537.815 C 178.315 537.816 162.598 545.490 162.596 545.491 Z"/>
<path fill="#ffff00" fill-rule="evenodd" stroke="none" d="M 557.404 545.296 C 557.403 545.294 549.786 529.549 549.785 529.548 C 549.785 529.549 549.562 537.581 549.562 537.582 C 549.561 537.582 541.533 537.938 541.532 537.938 C 541.534 537.938 557.402 545.295 557.404 545.296 Z"/>
<path fill="#00ff00" fill-rule="evenodd" stroke="none" d="M 682.618 342.874 C 682.616 342.873 663.556 335.957 663.555 335.956 C 663.555 335.957 669.866 342.809 669.866 342.810 C 669.866 342.810 663.486 349.597 663.486 349.598 C 663.488 349.597 682.616 342.875 682.618 342.874 Z"/>
<path fill="#00ffff" fill-rule="evenodd" stroke="none" d="M 541.393 180.420 C 541.392 180.421 536.006 195.630 536.006 195.631 C 536.006 195.630 534.986 188.289 534.986 188.288 C 534.985 188.288 527.589 188.777 527.588 188.777 C 527.590 188.776 541.391 180.421 541.393 180.420 Z"/>
<path fill="#00ffff" fill-rule="evenodd" stroke="none" d="M 178.713 180.924 C 178.713 180.925 185.102 195.741 185.102 195.742 C 185.102 195.741 185.630 188.348 185.630 188.348 C 185.631 188.348 193.043 188.342 193.043 188.342 C 193.042 188.341 178.714 180.925 178.713 180.924 Z"/>
<path fill="#be0027" fill-rule="evenodd" stroke="none" d="M 360.000 640.065 C 360.001 640.062 371.741 607.190 371.742 607.187 C 371.741 607.188 360.001 618.111 360.000 618.112 C 359.999 618.111 348.259 607.188 348.258 607.187 C 348.259 607.190 359.999 640.062 360.000 640.065 Z"/>
</g>
</g>
</svg>
