<?xml version="1.0" encoding="utf-8"?>
<!-- Generator: Moho 12.5 build 22414 -->
<!DOCTYPE svg PUBLIC "-//W3C//DTD SVG 1.1//EN" "http://www.w3.org/Graphics/SVG/1.1/DTD/svg11.dtd">
<svg version="1.1" id="Frame_0" xmlns="http://www.w3.org/2000/svg" xmlns:xlink="http://www.w3.org/1999/xlink" width="720px" height="720px">
<g id="devil_half">
<g id="devil_half">
<path fill="#000000" fill-rule="evenodd" stroke="#ffffff" stroke-width="4" stroke-linejoin="round" d="M 586.944 332.784 C 586.951 332.774 615.240 306.401 650.210 232.950 C 693.642 366.970 641.713 443.546 605.856 446.257 C 591.008 447.379 574.238 413.779 575.012 387.816 C 575.830 360.369 586.943 332.790 586.944 332.784 Z"/>
<path fill="#ffffff" fill-rule="evenodd" stroke="none" d="M 601.326 349.376 C 623.461 330.078 643.753 283.923 643.758 283.917 C 643.754 283.930 653.294 406.119 611.204 415.808 C 590.871 420.488 594.290 375.438 601.326 349.376 Z"/>
<path fill="#000000" fill-rule="evenodd" stroke="none" d="M 506.712 263.269 C 525.162 295.225 514.267 335.888 482.311 354.338 C 450.354 372.788 413.464 368.427 391.241 329.936 C 391.241 329.936 506.701 263.276 506.712 263.269 Z"/>
<path fill="#ffffff" fill-rule="evenodd" stroke="none" d="M 450.318 284.819 C 459.786 284.819 471.347 293.439 471.347 321.801 C 471.347 350.162 450.320 358.778 450.318 358.782 C 450.316 358.778 429.290 350.162 429.290 321.801 C 429.290 293.439 440.850 284.819 450.318 284.819 Z"/>
<path fill="#ffffff" fill-rule="evenodd" stroke="#000000" stroke-width="4" stroke-linejoin="round" d="M 545.836 11.061 C 429.121 81.259 475.768 174.553 475.761 174.570 C 475.754 174.567 429.045 158.998 405.687 151.212 C 406.340 56.471 453.055 11.160 545.836 11.061 Z"/>
<path fill="none" stroke="#000000" stroke-width="1" stroke-linecap="butt" stroke-linejoin="round" d="M 482.311 354.338 C 450.354 372.788 413.464 368.427 391.241 329.936 "/>
<path fill="none" stroke="#000000" stroke-width="1" stroke-linecap="butt" stroke-linejoin="round" d="M 391.241 329.936 C 391.241 329.936 506.701 263.276 506.712 263.269 "/>
<path fill="none" stroke="#000000" stroke-width="1" stroke-linecap="butt" stroke-linejoin="round" d="M 506.712 263.269 C 525.162 295.225 514.267 335.888 482.311 354.338 "/>
<path fill="#000000" fill-rule="evenodd" stroke="#ffffff" stroke-width="4" stroke-linejoin="round" d="M 482.311 354.338 C 450.354 372.788 413.464 368.427 391.241 329.936 C 391.241 329.936 506.701 263.276 506.712 263.269 C 525.162 295.225 514.267 335.888 482.311 354.338 M 454.560 521.905 C 454.551 521.903 416.736 502.993 360.000 502.993 C 360.000 503.004 360.004 616.454 360.000 616.465 C 511.296 616.465 605.856 506.688 605.856 370.608 C 605.856 234.529 511.296 124.752 360.000 124.752 C 360.000 124.752 360.000 200.400 360.000 238.224 C 360.000 241.478 360.000 476.877 360.000 476.901 C 360.000 476.902 360.000 483.903 360.000 483.904 C 435.648 484.081 454.551 521.901 454.560 521.905 Z"/>
<path fill="none" stroke="#ffffff" stroke-width="1" stroke-linecap="butt" stroke-linejoin="round" d="M 506.712 263.269 C 525.162 295.225 514.267 335.888 482.311 354.338 "/>
<path fill="none" stroke="#ffffff" stroke-width="1" stroke-linecap="butt" stroke-linejoin="round" d="M 482.311 354.338 C 450.354 372.788 413.464 368.427 391.241 329.936 "/>
<path fill="none" stroke="#ffffff" stroke-width="1" stroke-linecap="butt" stroke-linejoin="round" d="M 391.241 329.936 C 391.241 329.936 506.701 263.276 506.712 263.269 "/>
<path fill="none" stroke="#ffffff" stroke-width="1" stroke-linecap="butt" stroke-linejoin="round" d="M 360.000 238.224 C 360.000 241.478 360.000 476.877 360.000 476.901 "/>
<path fill="#ffffff" fill-rule="evenodd" stroke="none" d="M 506.712 263.269 C 525.162 295.225 514.267 335.888 482.311 354.338 C 450.354 372.788 413.464 368.427 391.241 329.936 C 391.241 329.936 506.701 263.276 506.712 263.269 M 472.780 194.160 C 431.279 180.497 386.917 206.649 360.000 238.224 C 360.000 241.478 360.000 476.877 360.000 476.901 C 360.004 476.898 397.803 444.972 401.674 443.946 C 476.996 423.978 515.431 475.921 520.388 469.119 C 605.150 352.793 539.925 216.265 472.780 194.160 Z"/>
<path fill="none" stroke="#000000" stroke-width="4" stroke-linejoin="round" d="M 421.869 404.033 C 444.585 397.362 473.847 421.161 459.893 445.278 M 378.912 427.345 C 378.917 427.342 408.481 407.965 421.869 404.033 M 378.912 313.872 C 378.912 313.884 378.912 427.333 378.912 427.345 M 521.174 231.923 C 473.753 259.239 378.926 313.864 378.912 313.872 M 401.674 443.946 C 412.404 438.150 423.133 432.353 433.862 426.557 M 506.712 263.269 C 525.162 295.225 514.267 335.888 482.311 354.338 C 450.354 372.788 413.464 368.427 391.241 329.936 C 391.241 329.936 506.701 263.276 506.712 263.269 M 472.780 194.160 C 431.279 180.497 386.917 206.649 360.000 238.224 C 360.000 241.478 360.000 476.877 360.000 476.901 C 360.004 476.898 397.803 444.972 401.674 443.946 C 476.996 423.978 515.431 475.921 520.388 469.119 C 605.150 352.793 539.925 216.265 472.780 194.160 "/>
<path fill="none" stroke="#ffffff" stroke-width="4" stroke-linejoin="round" d="M 554.680 399.305 C 571.239 401.780 585.662 409.725 600.386 421.214 M 544.731 427.064 C 561.590 433.363 577.401 442.372 590.926 457.654 M 535.088 448.320 C 550.479 456.551 566.257 468.957 577.002 489.925 M 388.040 526.793 C 392.678 557.234 395.204 580.189 394.378 613.371 M 421.875 532.634 C 427.376 556.675 427.948 581.345 429.238 607.625 M 449.624 542.349 C 454.310 558.224 457.794 576.977 459.009 598.241 M 360.970 523.389 C 403.100 525.952 440.355 535.387 475.790 552.472 M 521.270 471.104 C 537.707 487.001 547.508 498.538 559.469 519.838 M 455.627 523.094 C 470.489 539.658 479.487 555.030 485.753 584.985 M 378.487 464.591 C 426.848 468.633 490.119 484.296 513.539 567.452 M 395.266 450.009 C 444.391 451.363 512.763 473.927 537.624 546.376 "/>
<path fill="none" stroke="#000000" stroke-width="4" stroke-linejoin="round" d="M 494.702 17.684 C 500.831 23.342 506.960 28.999 513.089 34.657 M 455.099 35.128 C 467.200 42.829 479.301 50.529 491.401 58.230 M 425.397 67.188 C 441.584 74.260 457.771 81.332 473.958 88.403 M 410.311 108.205 C 428.855 113.705 447.399 119.205 465.943 124.706 "/>
</g>
<g id="specs_2">
<path fill="#ff0000" fill-rule="evenodd" stroke="none" d="M 360.492 370.511 C 360.489 370.512 327.617 382.252 327.613 382.253 C 327.615 382.252 338.538 370.512 338.539 370.511 C 338.538 370.510 327.615 358.770 327.613 358.769 C 327.617 358.770 360.489 370.510 360.492 370.511 Z"/>
<path fill="#0000ff" fill-rule="evenodd" stroke="none" d="M 344.072 183.714 C 344.074 183.714 363.168 176.895 363.170 176.894 C 363.170 176.895 356.825 183.714 356.824 183.714 C 356.825 183.715 363.170 190.534 363.170 190.535 C 363.168 190.534 344.074 183.715 344.072 183.714 Z"/>
<path fill="#ffff00" fill-rule="evenodd" stroke="none" d="M 557.404 545.296 C 557.403 545.294 549.786 529.549 549.785 529.548 C 549.785 529.548 549.562 537.581 549.562 537.582 C 549.561 537.582 541.533 537.938 541.533 537.938 C 541.534 537.939 557.403 545.295 557.404 545.296 Z"/>
<path fill="#00ff00" fill-rule="evenodd" stroke="none" d="M 682.618 342.874 C 682.616 342.873 663.556 335.957 663.555 335.956 C 663.555 335.957 669.866 342.809 669.866 342.810 C 669.866 342.810 663.486 349.597 663.486 349.598 C 663.488 349.597 682.616 342.875 682.618 342.874 Z"/>
<path fill="#be0027" fill-rule="evenodd" stroke="none" d="M 329.740 492.857 C 329.743 492.858 362.615 504.598 362.618 504.599 C 362.617 504.598 351.694 492.858 351.693 492.857 C 351.694 492.856 362.617 481.116 362.618 481.115 C 362.615 481.116 329.743 492.856 329.740 492.857 Z"/>
</g>
</g>
</svg>
