<?xml version="1.0" encoding="utf-8"?>
<!-- Generator: Moho 12.5 build 22414 -->
<!DOCTYPE svg PUBLIC "-//W3C//DTD SVG 1.1//EN" "http://www.w3.org/Graphics/SVG/1.1/DTD/svg11.dtd">
<svg version="1.1" id="Frame_0" xmlns="http://www.w3.org/2000/svg" xmlns:xlink="http://www.w3.org/1999/xlink" width="720px" height="720px">
<g id="devil_half_2">
<g id="devil_half">
<path fill="#ffffff" fill-rule="evenodd" stroke="none" d="M 506.712 263.269 C 525.162 295.225 514.267 335.888 482.311 354.338 C 450.354 372.788 413.464 368.427 391.241 329.936 C 391.241 329.936 506.701 263.276 506.712 263.269 Z"/>
<path fill="#000000" fill-rule="evenodd" stroke="none" d="M 450.318 284.819 C 459.786 284.819 471.347 293.439 471.347 321.801 C 471.347 350.162 450.320 358.778 450.318 358.782 C 450.316 358.778 429.290 350.162 429.290 321.801 C 429.290 293.439 440.851 284.819 450.318 284.819 Z"/>
<path fill="#000000" fill-rule="evenodd" stroke="#ffffff" stroke-width="4" stroke-linejoin="round" d="M 500.206 43.742 C 417.176 93.680 450.361 160.050 450.356 160.061 C 450.351 160.059 417.122 148.983 400.505 143.444 C 400.970 76.046 434.203 43.812 500.206 43.742 Z"/>
<path fill="none" stroke="#ffffff" stroke-width="1" stroke-linecap="butt" stroke-linejoin="round" d="M 482.311 354.338 C 450.354 372.788 413.464 368.427 391.241 329.936 "/>
<path fill="none" stroke="#ffffff" stroke-width="1" stroke-linecap="butt" stroke-linejoin="round" d="M 391.241 329.936 C 391.241 329.936 506.701 263.276 506.712 263.269 "/>
<path fill="none" stroke="#ffffff" stroke-width="1" stroke-linecap="butt" stroke-linejoin="round" d="M 506.712 263.269 C 525.162 295.225 514.267 335.888 482.311 354.338 "/>
<path fill="#ffffff" fill-rule="evenodd" stroke="#000000" stroke-width="4" stroke-linejoin="round" d="M 482.311 354.338 C 450.354 372.788 413.464 368.427 391.241 329.936 C 391.241 329.936 506.701 263.276 506.712 263.269 C 525.162 295.225 514.267 335.888 482.311 354.338 M 454.560 521.905 C 454.551 521.903 416.736 502.993 360.000 502.993 C 360.000 503.004 360.004 616.454 360.000 616.465 C 511.296 616.465 605.856 506.688 605.856 370.608 C 605.856 234.529 511.296 124.752 360.000 124.752 C 360.000 124.752 360.000 200.400 360.000 238.224 C 360.000 241.478 360.000 476.877 360.000 476.901 C 360.000 476.902 360.000 483.903 360.000 483.904 C 435.648 484.081 454.551 521.901 454.560 521.905 Z"/>
<path fill="none" stroke="#000000" stroke-width="1" stroke-linecap="butt" stroke-linejoin="round" d="M 506.712 263.269 C 525.162 295.225 514.267 335.888 482.311 354.338 "/>
<path fill="none" stroke="#000000" stroke-width="1" stroke-linecap="butt" stroke-linejoin="round" d="M 482.311 354.338 C 450.354 372.788 413.464 368.427 391.241 329.936 "/>
<path fill="none" stroke="#000000" stroke-width="1" stroke-linecap="butt" stroke-linejoin="round" d="M 391.241 329.936 C 391.241 329.936 506.701 263.276 506.712 263.269 "/>
<path fill="none" stroke="#000000" stroke-width="1" stroke-linecap="butt" stroke-linejoin="round" d="M 360.000 238.224 C 360.000 241.478 360.000 476.877 360.000 476.901 "/>
<path fill="#000000" fill-rule="evenodd" stroke="none" d="M 506.712 263.269 C 525.162 295.225 514.267 335.888 482.311 354.338 C 450.354 372.788 413.464 368.427 391.241 329.936 C 391.241 329.936 506.701 263.276 506.712 263.269 M 556.417 326.048 C 547.993 256.382 511.579 201.892 472.780 194.160 C 429.930 185.621 386.917 206.649 360.000 238.224 C 360.000 241.478 360.000 476.877 360.000 476.901 C 360.004 476.898 401.623 444.385 401.674 443.946 C 476.996 423.978 509.673 464.135 520.388 469.119 C 551.575 438.577 557.078 392.866 557.082 392.859 C 557.085 392.851 602.557 396.637 591.162 314.038 C 583.229 315.997 565.794 321.330 556.417 326.048 Z"/>
<path fill="none" stroke="#ffffff" stroke-width="4" stroke-linejoin="round" d="M 378.912 313.872 C 378.912 313.884 378.912 427.333 378.912 427.345 C 378.917 427.342 408.654 408.511 421.869 404.033 C 443.138 396.826 472.686 415.197 461.362 439.695 M 521.174 231.923 C 473.753 259.239 378.926 313.864 378.912 313.872 M 401.674 443.946 C 412.824 436.647 423.276 425.289 435.037 427.438 M 506.712 263.269 C 525.162 295.225 514.267 335.888 482.311 354.338 C 450.354 372.788 413.464 368.427 391.241 329.936 C 391.241 329.936 506.701 263.276 506.712 263.269 M 556.417 326.048 C 547.993 256.382 511.579 201.892 472.780 194.160 C 429.930 185.621 386.917 206.649 360.000 238.224 C 360.000 241.478 360.000 476.877 360.000 476.901 C 360.004 476.898 401.623 444.385 401.674 443.946 C 476.996 423.978 509.673 464.135 520.388 469.119 C 551.575 438.577 557.078 392.866 557.082 392.859 C 557.085 392.851 602.557 396.637 591.162 314.038 C 583.229 315.997 565.794 321.330 556.417 326.048 "/>
</g>
<g id="specs_2">
<path fill="#ff0000" fill-rule="evenodd" stroke="none" d="M 360.492 370.511 C 360.489 370.512 327.617 382.252 327.613 382.253 C 327.615 382.252 338.538 370.512 338.539 370.511 C 338.538 370.510 327.615 358.770 327.613 358.769 C 327.617 358.770 360.489 370.510 360.492 370.511 Z"/>
<path fill="#0000ff" fill-rule="evenodd" stroke="none" d="M 344.072 183.714 C 344.074 183.714 363.168 176.894 363.170 176.894 C 363.170 176.894 356.825 183.714 356.824 183.714 C 356.825 183.715 363.170 190.534 363.170 190.535 C 363.168 190.534 344.074 183.715 344.072 183.714 Z"/>
<path fill="#ffff00" fill-rule="evenodd" stroke="none" d="M 557.404 545.296 C 557.403 545.294 549.786 529.549 549.785 529.548 C 549.785 529.548 549.562 537.581 549.562 537.582 C 549.561 537.582 541.533 537.938 541.533 537.938 C 541.534 537.939 557.403 545.295 557.404 545.296 Z"/>
<path fill="#00ff00" fill-rule="evenodd" stroke="none" d="M 622.511 370.855 C 622.510 370.854 603.450 363.938 603.448 363.937 C 603.448 363.938 609.759 370.790 609.759 370.791 C 609.759 370.791 603.380 377.578 603.379 377.579 C 603.381 377.578 622.510 370.856 622.511 370.855 Z"/>
<path fill="#be0027" fill-rule="evenodd" stroke="none" d="M 329.740 492.857 C 329.743 492.858 362.615 504.598 362.618 504.599 C 362.617 504.598 351.694 492.858 351.693 492.857 C 351.694 492.856 362.617 481.116 362.618 481.115 C 362.615 481.116 329.743 492.856 329.740 492.857 Z"/>
</g>
</g>
</svg>
