<?xml version="1.0" encoding="utf-8"?>
<!-- Generator: Moho 13.5.1 build 20210623 -->
<!DOCTYPE svg PUBLIC "-//W3C//DTD SVG 1.1//EN" "http://www.w3.org/Graphics/SVG/1.1/DTD/svg11.dtd">
<svg version="1.1" id="Frame_0" xmlns="http://www.w3.org/2000/svg" xmlns:xlink="http://www.w3.org/1999/xlink" width="720px" height="720px">
<g id="dog">
<g id="dog_2">
<path id="S1" fill="#ffffff" fill-rule="evenodd" stroke="#000000" stroke-width="2" stroke-linecap="round" stroke-linejoin="round" d="M 557.648 322.378 C 578.368 322.248 616.723 323.526 642.356 297.330 C 695.812 242.698 661.120 170.538 617.537 155.304 C 651.250 282.611 547.709 302.622 521.094 297.313 C 451.538 274.677 381.777 315.275 329.511 285.549 C 269.282 251.292 270.903 184.407 253.850 167.518 C 289.483 158.606 290.964 127.075 290.968 127.071 C 290.962 127.072 261.017 109.565 232.542 133.485 C 120.105 108.525 164.030 170.997 76.202 174.159 C 63.922 237.732 133.190 202.559 159.219 206.363 C 146.603 218.436 107.697 232.685 97.127 237.942 C 99.950 263.662 133.519 227.402 171.827 245.423 C 200.222 258.780 166.392 332.861 194.432 373.492 C 183.653 375.313 176.132 372.459 148.959 367.465 C 109.744 360.258 29.806 438.447 29.793 438.455 C 58.971 461.655 103.646 399.657 142.295 407.551 C 176.393 414.516 205.569 425.237 205.575 425.239 C 205.571 425.241 206.648 432.370 163.112 446.264 C 119.575 460.159 111.789 531.370 115.900 556.275 C 150.557 549.072 136.087 503.416 175.727 482.508 C 202.613 470.473 231.236 477.978 278.865 448.959 C 398.231 474.558 379.053 418.485 448.481 433.212 C 463.888 475.111 475.286 489.969 529.412 504.523 C 524.237 531.743 501.802 573.723 523.137 602.242 C 546.608 580.974 551.317 533.593 562.880 491.293 C 528.902 465.847 523.684 433.121 523.680 433.116 C 523.687 433.118 550.706 461.174 592.059 458.393 C 596.453 505.448 593.326 530.029 632.132 560.310 C 650.801 530.950 612.197 493.553 632.469 420.298 C 583.782 404.966 553.922 369.180 557.648 322.378 Z"/>
<path id="S3" fill="none" stroke="#000000" stroke-width="2" stroke-linecap="round" stroke-linejoin="round" d="M 240.355 147.057 C 253.921 129.121 267.124 131.436 279.973 131.796 "/>
<path id="S4" fill="none" stroke="#000000" stroke-width="2" stroke-linecap="round" stroke-linejoin="round" d="M 637.569 545.314 C 633.344 542.093 629.120 538.873 624.896 535.652 M 636.090 526.268 C 631.864 523.044 627.638 519.821 623.412 516.597 M 540.450 576.257 C 537.863 570.684 535.276 565.112 532.690 559.539 M 532.691 592.022 C 530.335 586.392 527.979 580.762 525.622 575.131 M 57.796 442.099 C 60.130 436.091 62.464 430.084 64.798 424.076 M 42.973 443.665 C 45.647 439.079 48.321 434.493 50.995 429.907 M 138.494 537.152 C 137.270 532.620 136.045 528.089 134.820 523.557 M 128.977 551.009 C 127.588 545.690 126.199 540.371 124.811 535.051 "/>
<path id="S5" fill="#ffffff" fill-rule="evenodd" stroke="#000000" stroke-width="2" stroke-linecap="round" stroke-linejoin="round" d="M 75.629 172.521 C 85.402 171.440 93.652 169.944 93.573 173.879 C 93.366 184.207 86.378 194.440 78.805 196.568 C 73.987 197.921 72.570 191.141 71.110 186.354 C 69.623 181.477 69.968 173.147 75.629 172.521 Z"/>
<path id="S6" fill="#000000" fill-rule="evenodd" stroke="#000000" stroke-width="2" stroke-linecap="round" stroke-linejoin="round" d="M 174.435 147.833 C 187.317 144.161 207.836 155.282 207.839 155.282 C 207.836 155.285 196.264 175.551 183.382 179.223 C 170.501 182.895 149.981 171.776 149.978 171.775 C 149.980 171.773 161.553 151.505 174.435 147.833 Z"/>
<path id="S5_2" fill="#ffffff" fill-rule="evenodd" stroke="#000000" stroke-width="2" stroke-linecap="round" stroke-linejoin="round" d="M 171.149 152.533 C 177.270 148.580 185.398 150.329 189.351 156.451 C 193.304 162.573 191.555 170.700 185.433 174.653 C 179.311 178.606 171.184 176.857 167.231 170.735 C 163.278 164.613 165.027 156.486 171.149 152.533 Z"/>
</g>
<g id="specs_2">
<path fill="#ff0000" fill-rule="evenodd" stroke="none" d="M 537.666 625.529 C 537.669 625.532 565.026 650.382 565.029 650.385 C 565.027 650.384 548.615 646.035 548.613 646.035 C 548.612 646.036 543.094 662.094 543.093 662.095 C 543.092 662.091 537.667 625.533 537.666 625.529 Z"/>
<path fill="#0000ff" fill-rule="evenodd" stroke="none" d="M 192.421 99.734 C 192.422 99.736 201.152 119.350 201.153 119.352 C 201.152 119.352 193.444 113.199 193.443 113.198 C 193.442 113.199 186.751 120.445 186.751 120.445 C 186.751 120.443 192.421 99.736 192.421 99.734 Z"/>
<path fill="#00ffff" fill-rule="evenodd" stroke="none" d="M 51.876 241.234 C 51.877 241.232 66.232 225.267 66.233 225.266 C 66.233 225.267 63.755 234.814 63.755 234.815 C 63.756 234.815 73.099 237.973 73.100 237.974 C 73.098 237.974 51.878 241.233 51.876 241.234 Z"/>
<path fill="#ffff00" fill-rule="evenodd" stroke="none" d="M 308.239 593.160 C 308.239 593.158 306.956 571.728 306.956 571.726 C 306.956 571.726 312.012 580.195 312.013 580.196 C 312.013 580.195 320.824 575.763 320.825 575.763 C 320.823 575.764 308.241 593.158 308.239 593.160 Z"/>
<path fill="#00ff00" fill-rule="evenodd" stroke="none" d="M 379.870 280.252 C 379.871 280.254 383.079 301.482 383.079 301.484 C 383.078 301.484 377.280 293.504 377.280 293.504 C 377.279 293.504 368.904 298.712 368.903 298.713 C 368.904 298.711 379.869 280.254 379.870 280.252 Z"/>
<path fill="#be0027" fill-rule="evenodd" stroke="none" d="M 647.094 367.795 C 647.091 367.793 617.433 345.740 617.430 345.737 C 617.430 345.739 624.862 361.005 624.863 361.007 C 624.861 361.008 610.169 369.518 610.168 369.519 C 610.171 369.519 647.090 367.795 647.094 367.795 Z"/>
<path id="S7" fill="#ff00ff" fill-rule="evenodd" stroke="none" d="M 224.635 294.160 C 224.651 294.160 382.138 302.961 382.154 302.962 C 382.153 302.976 374.468 440.500 374.467 440.513 C 374.452 440.513 216.965 431.712 216.949 431.711 C 216.950 431.698 224.635 294.173 224.635 294.160 Z"/>
</g>
</g>
</svg>
