<?xml version="1.0" encoding="utf-8"?>
<!-- Generator: Moho 13.5 build 20210422 -->
<!DOCTYPE svg PUBLIC "-//W3C//DTD SVG 1.1//EN" "http://www.w3.org/Graphics/SVG/1.1/DTD/svg11.dtd">
<svg version="1.1" id="Frame_0" xmlns="http://www.w3.org/2000/svg" xmlns:xlink="http://www.w3.org/1999/xlink" width="720px" height="720px">
<g id="dog">
<g id="dog">
<path id="S1" fill="#ffffff" fill-rule="evenodd" stroke="#000000" stroke-width="2" stroke-linecap="round" stroke-linejoin="round" d="M 537.193 420.102 C 574.769 441.960 607.930 458.101 650.561 437.020 C 727.106 399.168 692.808 300.106 647.182 276.195 C 645.138 404.940 552.350 393.541 531.420 380.540 C 477.507 337.512 404.756 335.619 376.938 286.210 C 344.921 229.343 357.978 210.978 359.771 148.435 C 400.212 154.080 413.886 120.232 413.891 120.229 C 413.885 120.227 395.232 87.973 356.877 99.228 C 264.586 22.469 275.378 101.557 193.194 59.786 C 150.572 112.058 231.387 114.041 253.425 130.325 C 235.851 135.229 192.815 130.916 180.649 128.878 C 163.394 159.142 275.318 146.884 255.014 197.340 C 239.505 235.882 206.929 247.555 207.778 294.011 C 197.550 290.190 192.140 284.493 170.547 267.313 C 139.386 242.518 32.179 273.807 32.164 273.809 C 48.927 308.634 119.603 267.094 151.681 292.465 C 168.069 318.673 193.546 338.102 193.550 338.107 C 193.545 338.108 182.895 341.163 142.440 346.031 C 72.658 358.780 54.379 418.108 54.369 418.118 C 86.342 426.960 98.672 378.410 154.368 373.645 C 176.200 375.181 181.083 388.674 233.781 387.325 C 335.334 474.926 345.688 413.830 403.522 466.122 C 396.470 506.305 400.169 522.670 436.124 559.152 C 417.921 579.996 376.171 603.228 379.192 638.671 C 410.321 633.040 439.643 595.690 471.482 565.614 C 459.235 542.491 467.189 492.633 467.188 492.626 C 467.194 492.632 480.015 535.151 520.661 552.731 C 495.602 582.939 478.700 612.994 493.732 660.695 C 518.692 652.384 516.156 597.672 567.968 542.189 C 531.126 505.279 536.974 468.310 537.193 420.102 Z"/>
<path id="S3" fill="none" stroke="#000000" stroke-width="2" stroke-linecap="round" stroke-linejoin="round" d="M 354.644 119.258 C 374.849 106.663 387.026 113.952 399.593 119.174 "/>
<path id="S4" fill="none" stroke="#000000" stroke-width="2" stroke-linecap="round" stroke-linejoin="round" d="M 506.261 650.855 C 504.381 645.894 502.501 640.933 500.621 635.972 M 515.067 633.929 C 513.187 628.965 511.308 624.000 509.428 619.035 M 407.593 625.789 C 408.343 619.699 409.094 613.609 409.844 607.519 M 392.689 635.055 C 393.666 629.038 394.642 623.020 395.618 617.003 M 56.000 288.434 C 60.590 284.824 65.179 281.215 69.768 277.605 M 41.326 284.598 C 45.839 281.816 50.352 279.033 54.865 276.250 M 81.514 412.775 C 82.567 407.913 83.619 403.051 84.672 398.190 M 66.611 419.629 C 67.889 414.289 69.168 408.949 70.446 403.609 "/>
<path id="S5" fill="#ffffff" fill-rule="evenodd" stroke="#000000" stroke-width="2" stroke-linecap="round" stroke-linejoin="round" d="M 195.673 59.305 C 201.993 59.305 207.092 64.403 207.093 70.723 C 207.093 77.044 201.994 82.144 195.673 82.143 C 189.353 82.143 184.255 77.044 184.255 70.723 C 184.255 64.403 189.353 59.305 195.673 59.305 Z"/>
<path id="S6" fill="#ffffff" fill-rule="evenodd" stroke="#000000" stroke-width="2" stroke-linecap="round" stroke-linejoin="round" d="M 296.510 82.677 C 311.162 85.841 325.557 107.632 325.560 107.635 C 325.556 107.636 303.451 121.544 288.799 118.380 C 274.147 115.216 259.751 93.425 259.748 93.423 C 259.752 93.422 281.858 79.512 296.510 82.677 Z"/>
<path id="S5_2" fill="#000000" fill-rule="evenodd" stroke="#000000" stroke-width="2" stroke-linecap="round" stroke-linejoin="round" d="M 290.912 86.575 C 298.500 85.943 305.131 91.555 305.763 99.143 C 306.394 106.732 300.782 113.363 293.194 113.994 C 285.606 114.625 278.975 109.013 278.343 101.425 C 277.712 93.837 283.324 87.206 290.912 86.575 Z"/>
</g>
<g id="specs_2">
<path fill="#ff0000" fill-rule="evenodd" stroke="none" d="M 391.642 662.331 C 391.644 662.335 404.059 697.097 404.060 697.101 C 404.059 697.100 391.644 685.548 391.642 685.547 C 391.641 685.548 379.226 697.100 379.225 697.101 C 379.226 697.097 391.641 662.335 391.642 662.331 Z"/>
<path fill="#0000ff" fill-rule="evenodd" stroke="none" d="M 334.770 51.867 C 334.769 51.869 333.236 73.256 333.235 73.259 C 333.235 73.258 329.337 64.211 329.337 64.210 C 329.336 64.211 320.033 67.447 320.032 67.447 C 320.033 67.446 334.768 51.869 334.770 51.867 Z"/>
<path fill="#00ffff" fill-rule="evenodd" stroke="none" d="M 150.079 111.380 C 150.081 111.379 170.237 104.065 170.239 104.064 C 170.239 104.065 163.565 111.311 163.565 111.312 C 163.565 111.312 170.312 118.490 170.312 118.490 C 170.310 118.490 150.081 111.380 150.079 111.380 Z"/>
<path fill="#ffff00" fill-rule="evenodd" stroke="none" d="M 204.727 541.084 C 204.728 541.082 213.677 521.597 213.678 521.595 C 213.678 521.596 214.149 531.435 214.149 531.436 C 214.150 531.436 223.997 531.675 223.998 531.675 C 223.997 531.676 204.729 541.083 204.727 541.084 Z"/>
<path fill="#00ff00" fill-rule="evenodd" stroke="none" d="M 415.895 300.839 C 415.894 300.841 408.736 321.053 408.735 321.055 C 408.735 321.054 407.380 311.297 407.380 311.296 C 407.379 311.296 397.550 311.945 397.549 311.945 C 397.551 311.944 415.893 300.840 415.895 300.839 Z"/>
<path fill="#be0027" fill-rule="evenodd" stroke="none" d="M 625.415 516.139 C 625.413 516.136 609.655 482.756 609.654 482.752 C 609.654 482.754 609.021 499.700 609.021 499.702 C 609.019 499.702 592.071 500.290 592.070 500.290 C 592.073 500.292 625.412 516.138 625.415 516.139 Z"/>
</g>
</g>
</svg>
