<?xml version="1.0" encoding="utf-8"?>
<!-- Generator: Moho 13.5 build 20210422 -->
<!DOCTYPE svg PUBLIC "-//W3C//DTD SVG 1.1//EN" "http://www.w3.org/Graphics/SVG/1.1/DTD/svg11.dtd">
<svg version="1.1" id="Frame_0" xmlns="http://www.w3.org/2000/svg" xmlns:xlink="http://www.w3.org/1999/xlink" width="720px" height="720px">
<g id="dog">
<g id="dog_2">
<path id="S1" fill="#ffffff" fill-rule="evenodd" stroke="#000000" stroke-width="2" stroke-linecap="round" stroke-linejoin="round" d="M 551.837 419.817 C 570.154 429.449 603.346 448.616 638.251 437.592 C 711.046 414.601 714.422 334.706 683.188 300.783 C 653.011 428.807 552.372 397.736 531.420 380.540 C 480.783 327.880 400.223 330.838 368.156 280.063 C 331.203 221.551 364.091 163.384 357.009 140.482 C 392.596 149.391 408.733 122.306 408.738 122.304 C 408.732 122.302 390.583 92.793 354.244 100.474 C 266.920 25.597 276.236 101.300 197.367 62.776 C 156.645 113.011 234.219 114.603 255.362 130.197 C 238.569 134.900 197.588 129.155 185.802 128.814 C 176.192 152.803 222.824 136.645 248.099 170.541 C 266.834 195.666 202.183 245.024 207.778 294.011 C 197.424 290.545 192.140 284.493 170.547 267.313 C 139.386 242.518 32.179 273.808 32.164 273.809 C 46.960 307.974 115.482 274.363 145.821 299.497 C 172.589 321.671 193.251 344.840 193.256 344.845 C 193.251 344.845 190.847 351.633 145.953 343.397 C 101.059 335.161 60.705 394.240 52.613 418.118 C 86.535 428.072 95.261 381.040 140.021 381.264 C 169.370 383.306 191.059 403.381 246.672 400.216 C 339.801 478.915 349.278 420.491 403.522 466.122 C 397.389 510.284 400.442 528.737 441.286 567.018 C 423.923 588.567 384.411 615.001 389.794 650.163 C 420.478 642.465 446.912 602.934 476.997 571.104 C 459.028 532.702 469.823 501.415 469.823 501.408 C 469.828 501.413 480.437 538.841 518.180 555.841 C 499.919 599.366 485.602 619.553 505.549 664.485 C 535.807 647.399 519.385 596.292 571.702 541.284 C 536.017 504.875 526.541 459.301 551.837 419.817 Z"/>
<path id="S3" fill="none" stroke="#000000" stroke-width="2" stroke-linecap="round" stroke-linejoin="round" d="M 354.744 116.107 C 375.133 106.686 385.677 114.935 396.828 121.296 "/>
<path id="S4" fill="none" stroke="#000000" stroke-width="2" stroke-linecap="round" stroke-linejoin="round" d="M 517.393 653.830 C 515.186 649.006 512.979 644.181 510.772 639.357 M 525.048 636.354 C 522.841 631.526 520.634 626.698 518.427 621.870 M 417.271 635.413 C 417.613 629.286 417.954 623.160 418.296 617.033 M 403.019 645.653 C 403.591 639.584 404.164 633.515 404.736 627.447 M 55.123 290.191 C 60.004 285.995 64.886 281.800 69.768 277.605 M 41.326 284.598 C 45.839 281.816 50.352 279.033 54.865 276.250 M 81.514 411.897 C 82.567 407.328 83.619 402.759 84.672 398.190 M 66.611 419.629 C 67.889 414.289 69.168 408.949 70.446 403.609 "/>
<path id="S5" fill="#ffffff" fill-rule="evenodd" stroke="#000000" stroke-width="2" stroke-linecap="round" stroke-linejoin="round" d="M 197.632 61.063 C 206.751 64.707 214.724 67.269 212.803 70.700 C 207.763 79.702 196.793 85.431 189.120 83.743 C 184.238 82.669 186.179 76.030 187.144 71.125 C 188.128 66.128 192.350 58.952 197.632 61.063 Z"/>
<path id="S6" fill="#000000" fill-rule="evenodd" stroke="#000000" stroke-width="2" stroke-linecap="round" stroke-linejoin="round" d="M 296.299 85.785 C 309.376 88.609 322.224 108.058 322.226 108.060 C 322.223 108.061 302.494 120.474 289.418 117.651 C 276.341 114.827 263.492 95.378 263.489 95.376 C 263.493 95.375 283.222 82.961 296.299 85.785 Z"/>
<path id="S5_2" fill="#ffffff" fill-rule="evenodd" stroke="#000000" stroke-width="2" stroke-linecap="round" stroke-linejoin="round" d="M 291.193 88.380 C 298.446 87.777 304.784 93.141 305.388 100.394 C 305.991 107.647 300.627 113.985 293.374 114.588 C 286.121 115.192 279.783 109.828 279.180 102.574 C 278.576 95.322 283.940 88.984 291.193 88.380 Z"/>
</g>
<g id="specs_2">
<path fill="#ff0000" fill-rule="evenodd" stroke="none" d="M 391.642 662.331 C 391.644 662.335 404.059 697.097 404.060 697.101 C 404.059 697.100 391.644 685.548 391.642 685.547 C 391.641 685.548 379.226 697.100 379.225 697.101 C 379.226 697.097 391.641 662.335 391.642 662.331 Z"/>
<path fill="#0000ff" fill-rule="evenodd" stroke="none" d="M 334.770 51.867 C 334.769 51.869 333.236 73.256 333.235 73.259 C 333.235 73.258 329.337 64.211 329.337 64.210 C 329.336 64.211 320.033 67.447 320.032 67.447 C 320.033 67.446 334.768 51.869 334.770 51.867 Z"/>
<path fill="#00ffff" fill-rule="evenodd" stroke="none" d="M 150.079 111.380 C 150.081 111.379 170.237 104.065 170.239 104.064 C 170.239 104.065 163.565 111.311 163.565 111.312 C 163.565 111.312 170.312 118.490 170.312 118.490 C 170.310 118.490 150.081 111.380 150.079 111.380 Z"/>
<path fill="#ffff00" fill-rule="evenodd" stroke="none" d="M 204.727 541.084 C 204.728 541.082 213.677 521.597 213.678 521.595 C 213.678 521.596 214.149 531.435 214.149 531.436 C 214.150 531.436 223.997 531.675 223.998 531.675 C 223.997 531.676 204.729 541.083 204.727 541.084 Z"/>
<path fill="#00ff00" fill-rule="evenodd" stroke="none" d="M 415.017 299.083 C 415.016 299.085 407.858 319.297 407.857 319.299 C 407.857 319.298 406.502 309.541 406.501 309.540 C 406.500 309.540 396.672 310.189 396.671 310.189 C 396.672 310.188 415.015 299.084 415.017 299.083 Z"/>
<path fill="#be0027" fill-rule="evenodd" stroke="none" d="M 625.415 516.139 C 625.413 516.136 609.655 482.756 609.654 482.752 C 609.654 482.754 609.021 499.700 609.021 499.702 C 609.019 499.702 592.071 500.290 592.070 500.290 C 592.073 500.292 625.412 516.138 625.415 516.139 Z"/>
</g>
</g>
</svg>
