<?xml version="1.0" encoding="utf-8"?>
<!-- Generator: Moho 12.5 build 22414 -->
<!DOCTYPE svg PUBLIC "-//W3C//DTD SVG 1.1//EN" "http://www.w3.org/Graphics/SVG/1.1/DTD/svg11.dtd">
<svg version="1.1" id="Frame_0" xmlns="http://www.w3.org/2000/svg" xmlns:xlink="http://www.w3.org/1999/xlink" width="720px" height="720px">
<g id="door">
<g id="door">
<path fill="#000000" fill-rule="evenodd" stroke="none" d="M 297.325 536.213 C 297.325 536.162 297.913 197.716 298.207 28.469 C 298.237 28.486 598.494 201.838 598.524 201.855 C 598.524 201.906 598.620 709.496 598.620 709.547 C 598.590 709.530 297.355 536.230 297.325 536.213 M 360.917 519.908 C 360.825 510.205 360.732 500.502 360.640 490.800 C 425.206 527.944 489.771 565.089 554.337 602.233 C 554.318 602.222 360.659 490.811 360.640 490.800 C 360.640 490.761 361.207 107.819 361.207 107.780 C 425.563 144.936 554.255 219.236 554.275 219.247 C 554.275 219.286 554.337 602.195 554.337 602.233 C 554.337 611.830 554.337 631.021 554.337 631.024 C 554.318 631.013 425.391 556.947 360.917 519.908 M 335.319 96.436 C 335.321 96.437 351.957 104.755 360.276 108.915 C 360.276 108.956 360.276 520.693 360.276 520.734 C 360.276 520.693 360.276 246.188 360.276 108.915 C 351.957 104.755 335.321 96.437 335.319 96.436 Z"/>
<path fill="none" stroke="#000000" stroke-width="3" stroke-linejoin="round" d="M 297.325 536.213 C 297.325 536.162 297.913 197.716 298.207 28.469 C 298.237 28.486 598.494 201.838 598.524 201.855 C 598.524 201.906 598.620 709.496 598.620 709.547 C 598.590 709.530 297.355 536.230 297.325 536.213 M 360.917 519.908 C 360.825 510.205 360.732 500.502 360.640 490.800 C 425.206 527.944 489.771 565.089 554.337 602.233 C 554.337 611.830 554.337 621.427 554.337 631.024 C 554.337 631.021 554.337 611.830 554.337 602.233 C 554.318 602.222 360.659 490.811 360.640 490.800 C 360.640 490.761 361.207 107.819 361.207 107.780 C 361.226 107.792 489.919 182.092 554.275 219.247 C 554.255 219.236 425.563 144.936 361.207 107.780 M 554.337 602.233 C 554.337 602.195 554.275 219.286 554.275 219.247 M 360.917 519.908 C 425.391 556.947 554.318 631.013 554.337 631.024 M 361.207 108.248 C 361.207 245.521 361.207 382.794 361.207 520.067 M 335.319 96.436 C 335.321 96.437 351.957 104.755 360.276 108.915 C 360.276 108.956 360.276 520.693 360.276 520.734 C 360.276 520.693 360.276 246.188 360.276 108.915 C 351.957 104.755 335.321 96.437 335.319 96.436 "/>
<path fill="none" stroke="#ffffff" stroke-width="1" stroke-linecap="butt" stroke-linejoin="round" d="M 335.319 96.436 C 335.321 96.437 351.957 104.755 360.276 108.915 "/>
<path fill="none" stroke="#ffffff" stroke-width="1" stroke-linecap="butt" stroke-linejoin="round" d="M 360.276 108.915 C 360.276 246.188 360.276 520.693 360.276 520.734 "/>
<path fill="#ffffff" fill-rule="evenodd" stroke="none" d="M 167.210 632.202 C 167.207 632.200 150.571 623.882 142.251 619.722 C 142.251 482.449 142.251 207.945 142.251 207.903 C 142.271 207.892 335.299 96.447 335.319 96.436 C 335.321 96.437 351.957 104.755 360.276 108.915 C 360.276 246.188 360.276 520.693 360.276 520.734 C 360.257 520.746 167.229 632.190 167.210 632.202 Z"/>
<path fill="none" stroke="#000000" stroke-width="3" stroke-linejoin="round" d="M 142.251 619.722 C 142.251 619.720 142.251 207.942 142.251 207.903 C 142.268 207.894 335.299 96.447 335.319 96.436 C 335.321 96.437 351.957 104.755 360.276 108.915 C 360.276 108.956 360.276 520.693 360.276 520.734 C 360.257 520.746 167.229 632.190 167.210 632.202 C 158.890 628.042 150.571 623.882 142.251 619.722 M 142.251 207.903 C 150.571 212.063 158.890 216.223 167.210 220.383 C 167.227 220.373 360.257 108.926 360.276 108.915 M 167.210 632.202 C 167.210 632.199 167.210 220.421 167.210 220.383 "/>
<path fill="none" stroke="#ffffff" stroke-width="1" stroke-linecap="butt" stroke-linejoin="round" d="M 360.917 519.908 C 360.825 510.205 360.732 500.502 360.640 490.800 "/>
<path fill="none" stroke="#ffffff" stroke-width="1" stroke-linecap="butt" stroke-linejoin="round" d="M 360.640 490.800 C 425.206 527.944 489.771 565.089 554.337 602.233 "/>
<path fill="none" stroke="#ffffff" stroke-width="1" stroke-linecap="butt" stroke-linejoin="round" d="M 554.337 602.233 C 554.337 611.830 554.337 631.021 554.337 631.024 "/>
<path fill="none" stroke="#ffffff" stroke-width="1" stroke-linecap="butt" stroke-linejoin="round" d="M 554.337 631.024 C 554.318 631.013 425.391 556.947 360.917 519.908 "/>
<path fill="#ffffff" fill-rule="evenodd" stroke="#000000" stroke-width="3" stroke-linejoin="round" d="M 360.917 519.908 C 360.825 510.205 360.732 500.502 360.640 490.800 C 425.206 527.944 489.771 565.089 554.337 602.233 C 554.337 611.830 554.337 631.021 554.337 631.024 C 554.318 631.013 425.391 556.947 360.917 519.908 Z"/>
<path fill="#000000" fill-rule="evenodd" stroke="#000000" stroke-width="3" stroke-linejoin="round" d="M 142.251 619.722 C 142.251 619.719 142.251 207.942 142.251 207.903 C 150.571 212.063 158.890 216.223 167.210 220.383 C 167.210 220.421 167.210 632.199 167.210 632.202 C 158.890 628.042 150.571 623.882 142.251 619.722 Z"/>
<path fill="#ffffff" fill-rule="evenodd" stroke="#000000" stroke-width="3" stroke-linejoin="round" d="M 200.270 394.740 C 210.630 394.740 218.988 403.098 218.988 413.459 C 218.989 423.820 210.630 432.178 200.270 432.178 C 189.909 432.178 181.550 423.820 181.550 413.459 C 181.550 403.098 189.909 394.740 200.270 394.740 Z"/>
<path fill="none" stroke="#000000" stroke-width="3" stroke-linejoin="round" d="M 554.337 631.024 C 554.337 621.427 554.337 611.830 554.337 602.233 "/>
<path fill="none" stroke="#ffffff" stroke-width="1" stroke-linecap="butt" stroke-linejoin="round" d="M 598.524 201.855 C 598.494 201.838 298.237 28.486 298.207 28.469 "/>
<path fill="#ffffff" fill-rule="evenodd" stroke="#000000" stroke-width="3" stroke-linejoin="round" d="M 321.513 15.521 C 421.618 73.317 621.799 188.891 621.829 188.908 C 614.061 193.224 606.292 197.540 598.524 201.855 C 598.494 201.838 298.237 28.486 298.207 28.469 C 298.210 28.467 313.744 19.837 321.513 15.521 Z"/>
<path fill="none" stroke="#ffffff" stroke-width="1" stroke-linecap="butt" stroke-linejoin="round" d="M 598.524 201.855 C 606.292 197.540 614.061 193.224 621.829 188.908 "/>
<path fill="none" stroke="#ffffff" stroke-width="1" stroke-linecap="butt" stroke-linejoin="round" d="M 598.620 709.547 C 598.620 709.496 598.524 201.906 598.524 201.855 "/>
<path fill="#ffffff" fill-rule="evenodd" stroke="#000000" stroke-width="3" stroke-linejoin="round" d="M 598.524 201.855 C 606.292 197.540 614.061 193.224 621.829 188.908 C 621.829 188.959 621.926 696.549 621.926 696.600 C 621.923 696.601 606.389 705.231 598.620 709.547 C 598.620 709.496 598.524 201.906 598.524 201.855 Z"/>
</g>
<g id="specs_2">
<path fill="#ff00ff" fill-rule="evenodd" stroke="none" d="M 232.660 614.153 C 232.693 614.153 553.687 614.153 553.719 614.153 C 553.719 614.114 553.719 221.403 553.719 221.364 C 553.687 221.364 232.693 221.364 232.660 221.364 C 232.660 221.403 232.660 614.114 232.660 614.153 Z"/>
<path fill="#ff0000" fill-rule="evenodd" stroke="none" d="M 360.000 681.952 C 360.001 681.955 369.943 709.794 369.944 709.797 C 369.943 709.796 360.001 700.545 360.000 700.544 C 359.999 700.545 350.057 709.796 350.056 709.797 C 350.057 709.794 359.999 681.955 360.000 681.952 Z"/>
<path fill="#0000ff" fill-rule="evenodd" stroke="none" d="M 360.000 30.016 C 360.001 30.017 365.776 46.189 365.776 46.190 C 365.776 46.190 360.001 40.816 360.000 40.816 C 359.999 40.816 354.224 46.190 354.224 46.190 C 354.224 46.189 359.999 30.017 360.000 30.016 Z"/>
<path fill="#00ff00" fill-rule="evenodd" stroke="none" d="M 129.462 369.144 C 129.463 369.143 145.605 363.286 145.607 363.286 C 145.606 363.286 140.262 369.089 140.261 369.089 C 140.262 369.090 145.664 374.838 145.665 374.839 C 145.663 374.838 129.463 369.145 129.462 369.144 Z"/>
<path fill="#ffff00" fill-rule="evenodd" stroke="none" d="M 143.097 630.870 C 143.098 630.868 152.078 611.317 152.079 611.315 C 152.079 611.316 152.551 621.188 152.551 621.189 C 152.552 621.189 162.433 621.429 162.434 621.429 C 162.432 621.430 143.099 630.869 143.097 630.870 Z"/>
<path fill="#ffff00" fill-rule="evenodd" stroke="none" d="M 622.426 708.617 C 622.425 708.615 613.055 689.248 613.054 689.246 C 613.054 689.247 612.779 699.127 612.779 699.128 C 612.778 699.128 602.904 699.566 602.903 699.566 C 602.905 699.567 622.424 708.616 622.426 708.617 Z"/>
<path fill="#00ff00" fill-rule="evenodd" stroke="none" d="M 633.648 368.356 C 633.646 368.356 617.504 362.498 617.502 362.498 C 617.503 362.498 622.847 368.301 622.848 368.302 C 622.847 368.302 617.445 374.050 617.444 374.051 C 617.446 374.050 633.646 368.357 633.648 368.356 Z"/>
<path fill="#00ffff" fill-rule="evenodd" stroke="none" d="M 615.934 174.550 C 615.934 174.552 610.201 190.739 610.201 190.740 C 610.200 190.740 609.115 182.926 609.115 182.925 C 609.114 182.925 601.243 183.445 601.242 183.445 C 601.243 183.444 615.933 174.551 615.934 174.550 Z"/>
<path fill="#00ffff" fill-rule="evenodd" stroke="none" d="M 155.221 187.748 C 155.222 187.749 162.021 203.518 162.021 203.520 C 162.021 203.519 162.584 195.650 162.584 195.649 C 162.584 195.649 170.473 195.643 170.474 195.643 C 170.472 195.642 155.222 187.749 155.221 187.748 Z"/>
<path fill="#be0027" fill-rule="evenodd" stroke="none" d="M 360.000 533.576 C 360.001 533.574 369.943 505.734 369.944 505.731 C 369.943 505.732 360.001 514.983 360.000 514.984 C 359.999 514.983 350.057 505.732 350.056 505.731 C 350.057 505.734 359.999 533.574 360.000 533.576 Z"/>
</g>
</g>
</svg>
