<?xml version="1.0" encoding="utf-8"?>
<!-- Generator: Moho 12.5 build 22414 -->
<!DOCTYPE svg PUBLIC "-//W3C//DTD SVG 1.1//EN" "http://www.w3.org/Graphics/SVG/1.1/DTD/svg11.dtd">
<svg version="1.1" id="Frame_0" xmlns="http://www.w3.org/2000/svg" xmlns:xlink="http://www.w3.org/1999/xlink" width="720px" height="720px">
<g id="halves">
<g id="dragon_hind">
<g id="dragon_hind">
<path fill="#ffffff" fill-rule="evenodd" stroke="none" d="M 29.569 215.614 C 29.589 215.606 135.444 155.217 233.596 142.838 C 384.056 123.863 457.633 210.177 492.482 265.468 C 506.108 287.086 517.575 326.782 522.555 370.144 C 499.870 350.242 479.858 317.161 426.146 294.445 C 399.857 283.327 364.656 281.370 328.458 285.529 C 254.857 293.985 205.602 362.274 205.590 362.283 C 192.185 374.929 132.987 409.149 84.477 422.746 C 64.673 428.297 29.574 428.990 29.569 428.991 C 29.569 357.865 29.569 286.739 29.569 215.614 Z"/>
<path fill="none" stroke="#000000" stroke-width="1" stroke-linejoin="round" d="M 29.569 215.614 C 29.589 215.606 135.444 155.217 233.596 142.838 C 384.056 123.863 457.633 210.177 492.482 265.468 C 506.108 287.086 517.575 326.782 522.555 370.144 C 499.870 350.242 479.858 317.161 426.146 294.445 C 360.679 226.088 275.606 227.549 198.158 280.910 C 174.583 297.153 115.215 338.505 31.056 346.796 M 328.458 285.529 C 364.656 281.370 399.857 283.327 426.146 294.445 M 205.590 362.283 C 205.602 362.274 254.857 293.985 328.458 285.529 M 29.569 215.614 C 29.569 286.739 29.569 357.865 29.569 428.991 C 29.574 428.990 64.673 428.297 84.477 422.746 C 132.987 409.149 192.185 374.929 205.590 362.283 "/>
<path fill="none" stroke="#ffffff" stroke-width="1" stroke-linecap="butt" stroke-linejoin="round" d="M 205.590 362.283 C 205.602 362.274 254.857 293.985 328.458 285.529 "/>
<path fill="none" stroke="#ffffff" stroke-width="1" stroke-linecap="butt" stroke-linejoin="round" d="M 328.458 285.529 C 364.656 281.370 399.857 283.327 426.146 294.445 "/>
<path fill="none" stroke="#ffffff" stroke-width="1" stroke-linecap="butt" stroke-linejoin="round" d="M 426.146 294.445 C 479.858 317.161 499.870 350.242 522.555 370.144 "/>
<path fill="#ffffff" fill-rule="evenodd" stroke="#000000" stroke-width="1" stroke-linejoin="round" d="M 360.953 473.410 C 379.760 473.779 401.904 440.644 401.908 440.644 C 401.908 440.644 357.963 412.700 335.070 431.046 C 318.175 444.585 325.355 472.712 360.953 473.410 M 690.431 364.106 C 689.464 402.865 654.437 490.054 516.831 479.750 C 510.945 500.313 504.972 518.770 493.916 532.131 C 449.661 585.608 367.221 617.641 266.451 577.162 C 205.378 552.629 176.252 470.176 180.193 431.988 C 184.584 389.435 205.588 362.293 205.590 362.283 C 205.602 362.274 254.857 293.985 328.458 285.529 C 364.656 281.370 399.857 283.327 426.146 294.445 C 479.858 317.161 499.870 350.242 522.555 370.144 C 544.869 389.721 593.754 384.490 614.705 353.451 C 654.943 293.837 614.384 233.585 614.384 233.573 C 614.392 233.586 693.013 260.638 690.431 364.106 Z"/>
<path fill="none" stroke="#ffffff" stroke-width="1" stroke-linecap="butt" stroke-linejoin="round" d="M 29.569 215.614 C 29.569 286.739 29.569 357.865 29.569 428.991 "/>
<path fill="#ffffff" fill-rule="evenodd" stroke="#000000" stroke-width="1" stroke-linejoin="round" d="M 29.569 215.614 C 29.569 286.739 29.569 357.865 29.569 428.991 C 29.569 428.969 29.569 215.635 29.569 215.614 Z"/>
<path fill="none" stroke="#000000" stroke-width="1" stroke-linejoin="round" d="M 401.908 440.644 C 449.648 467.356 472.528 474.615 516.412 479.828 M 451.162 464.450 C 451.156 464.457 427.098 516.355 382.391 529.311 C 344.115 540.403 298.845 526.860 278.164 492.796 C 258.672 460.689 267.081 417.765 291.957 389.624 C 315.048 363.502 355.677 355.543 385.185 364.245 C 444.525 381.743 479.753 435.024 541.617 434.418 C 579.643 434.045 621.004 421.466 638.697 393.405 C 691.275 310.017 627.462 246.736 618.545 237.174 "/>
</g>
<g id="specs_2">
<path fill="#ff0000" fill-rule="evenodd" stroke="none" d="M 53.673 324.361 C 53.670 324.362 18.907 336.777 18.904 336.778 C 18.905 336.777 30.456 324.362 30.458 324.361 C 30.456 324.359 18.905 311.944 18.904 311.943 C 18.907 311.944 53.670 324.359 53.673 324.361 Z"/>
<path fill="#0000ff" fill-rule="evenodd" stroke="none" d="M 15.788 324.367 C 15.790 324.366 35.983 317.155 35.985 317.154 C 35.984 317.155 29.274 324.366 29.274 324.367 C 29.274 324.368 35.984 331.579 35.985 331.580 C 35.983 331.579 15.790 324.368 15.788 324.367 Z"/>
<path fill="#00ff00" fill-rule="evenodd" stroke="none" d="M 76.145 441.686 C 76.144 441.682 64.782 410.370 64.781 410.367 C 64.782 410.368 76.038 420.735 76.039 420.736 C 76.041 420.735 87.191 410.255 87.192 410.254 C 87.191 410.257 76.146 441.682 76.145 441.686 Z"/>
<path fill="#ffff00" fill-rule="evenodd" stroke="none" d="M 219.387 550.314 C 219.388 550.313 224.331 539.549 224.332 539.548 C 224.332 539.549 224.592 544.984 224.592 544.985 C 224.593 544.985 230.032 545.116 230.033 545.116 C 230.032 545.117 219.388 550.313 219.387 550.314 Z"/>
<path fill="#ffff00" fill-rule="evenodd" stroke="none" d="M 486.745 550.182 C 486.744 550.181 481.586 539.519 481.585 539.518 C 481.585 539.518 481.434 544.957 481.434 544.958 C 481.433 544.958 475.997 545.199 475.997 545.199 C 475.998 545.200 486.744 550.181 486.745 550.182 Z"/>
<path fill="#00ff00" fill-rule="evenodd" stroke="none" d="M 76.145 174.553 C 76.144 174.556 64.782 205.869 64.781 205.872 C 64.782 205.871 76.038 195.504 76.039 195.503 C 76.041 195.504 87.191 205.984 87.192 205.985 C 87.191 205.982 76.146 174.556 76.145 174.553 Z"/>
<path fill="#00ffff" fill-rule="evenodd" stroke="none" d="M 464.048 206.835 C 464.047 206.837 457.478 225.384 457.478 225.386 C 457.477 225.385 456.234 216.432 456.233 216.431 C 456.233 216.431 447.213 217.027 447.212 217.027 C 447.214 217.026 464.046 206.836 464.048 206.835 Z"/>
<path fill="#00ffff" fill-rule="evenodd" stroke="none" d="M 21.724 207.450 C 21.725 207.452 29.516 225.520 29.516 225.522 C 29.516 225.521 30.160 216.504 30.160 216.503 C 30.161 216.503 39.201 216.496 39.201 216.496 C 39.200 216.496 21.726 207.451 21.724 207.450 Z"/>
<path fill="#be0027" fill-rule="evenodd" stroke="none" d="M 360.000 618.486 C 360.001 618.482 372.416 583.720 372.417 583.716 C 372.416 583.717 360.001 595.269 360.000 595.270 C 359.999 595.269 347.584 583.717 347.583 583.716 C 347.584 583.720 359.999 618.482 360.000 618.486 Z"/>
<path fill="none" stroke="#ffff00" stroke-width="2" stroke-linejoin="round" d="M 29.569 215.614 C 29.569 286.739 29.569 357.865 29.569 428.991 "/>
</g>
</g>
</g>
<g id="combos">
</g>
</svg>
