<?xml version="1.0" encoding="utf-8"?>
<!-- Generator: Moho 12.5 build 22414 -->
<!DOCTYPE svg PUBLIC "-//W3C//DTD SVG 1.1//EN" "http://www.w3.org/Graphics/SVG/1.1/DTD/svg11.dtd">
<svg version="1.1" id="Frame_0" xmlns="http://www.w3.org/2000/svg" xmlns:xlink="http://www.w3.org/1999/xlink" width="720px" height="720px">
<g id="drape">
<g id="bunting">
<path fill="#ffffff" fill-rule="evenodd" stroke="none" d="M 705.371 489.514 C 705.365 489.485 647.815 201.734 647.809 201.705 C 647.803 201.734 590.253 489.485 590.247 489.514 C 590.250 489.515 612.746 495.253 618.328 497.912 C 625.154 501.164 637.152 518.442 647.809 518.295 C 658.127 518.153 668.533 501.470 675.890 497.912 C 682.389 494.768 705.368 489.515 705.371 489.514 M 360.000 518.295 C 131.363 518.295 72.191 201.705 72.191 201.705 C 72.191 201.705 203.354 259.267 360.000 259.267 C 516.647 259.267 647.809 201.705 647.809 201.705 C 647.809 201.705 588.638 518.295 360.000 518.295 Z"/>
<path fill="none" stroke="#000000" stroke-width="2" stroke-linecap="round" stroke-linejoin="round" d="M 216.096 288.048 C 120.898 245.983 120.159 230.486 72.191 201.705 C 100.972 259.267 129.753 288.048 158.534 316.829 M 503.904 288.048 C 599.103 245.983 599.841 230.486 647.809 201.705 C 647.812 201.734 664.028 396.319 672.138 493.627 M 623.479 493.627 C 631.589 396.319 647.807 201.734 647.809 201.705 C 619.028 240.080 619.028 259.267 561.466 316.829 M 705.371 489.514 C 705.365 489.485 647.815 201.734 647.809 201.705 C 647.803 201.734 590.253 489.485 590.247 489.514 C 590.250 489.515 612.746 495.253 618.328 497.912 C 625.154 501.164 637.152 518.442 647.809 518.295 C 658.127 518.153 668.533 501.470 675.890 497.912 C 682.389 494.768 705.368 489.515 705.371 489.514 M 360.000 518.295 C 131.363 518.295 72.191 201.705 72.191 201.705 C 72.191 201.705 203.354 259.267 360.000 259.267 C 516.647 259.267 647.809 201.705 647.809 201.705 C 647.809 201.705 588.638 518.295 360.000 518.295 "/>
<path fill="#ffffff" fill-rule="evenodd" stroke="none" d="M 72.191 201.705 C 72.186 201.734 14.635 489.485 14.629 489.514 C 14.632 489.515 37.129 495.253 42.711 497.912 C 49.536 501.164 61.534 518.441 72.191 518.295 C 82.509 518.152 92.915 501.470 100.272 497.912 C 106.772 494.768 129.750 489.515 129.753 489.514 C 129.747 489.485 72.197 201.734 72.191 201.705 Z"/>
<path fill="none" stroke="#000000" stroke-width="2" stroke-linecap="round" stroke-linejoin="round" d="M 72.191 201.705 C 72.194 201.734 88.411 396.319 96.521 493.627 M 47.862 493.627 C 55.972 396.319 72.189 201.734 72.191 201.705 C 72.197 201.734 129.747 489.485 129.753 489.514 C 129.750 489.515 106.772 494.768 100.272 497.912 C 92.915 501.470 82.509 518.152 72.191 518.295 C 61.534 518.441 49.536 501.164 42.711 497.912 C 37.129 495.253 14.632 489.515 14.629 489.514 C 14.635 489.485 72.186 201.734 72.191 201.705 "/>
</g>
<g id="specs_2">
<path fill="#ff00ff" fill-rule="evenodd" stroke="none" d="M 256.266 484.806 C 256.287 484.806 463.713 484.806 463.734 484.806 C 463.734 484.785 463.734 277.358 463.734 277.337 C 463.713 277.337 256.287 277.337 256.266 277.337 C 256.266 277.358 256.266 484.785 256.266 484.806 Z"/>
<path fill="#ff0000" fill-rule="evenodd" stroke="none" d="M 360.000 615.690 C 360.001 615.693 372.432 650.499 372.433 650.502 C 372.432 650.501 360.001 638.935 360.000 638.934 C 359.999 638.935 347.568 650.501 347.567 650.502 C 347.568 650.499 359.999 615.693 360.000 615.690 Z"/>
<path fill="#0000ff" fill-rule="evenodd" stroke="none" d="M 360.000 221.518 C 360.001 221.520 367.221 241.738 367.222 241.740 C 367.221 241.739 360.001 235.021 360.000 235.021 C 359.999 235.021 352.779 241.739 352.778 241.740 C 352.779 241.738 359.999 221.520 360.000 221.518 Z"/>
<path fill="#ffff00" fill-rule="evenodd" stroke="none" d="M 192.115 458.533 C 192.116 458.532 198.325 445.014 198.325 445.013 C 198.325 445.013 198.652 451.839 198.652 451.840 C 198.653 451.840 205.484 452.006 205.485 452.006 C 205.483 452.006 192.117 458.532 192.115 458.533 Z"/>
<path fill="#ffff00" fill-rule="evenodd" stroke="none" d="M 527.885 458.368 C 527.884 458.366 521.406 444.976 521.405 444.974 C 521.405 444.975 521.215 451.806 521.215 451.807 C 521.215 451.807 514.387 452.109 514.386 452.109 C 514.388 452.110 527.883 458.367 527.885 458.368 Z"/>
<path fill="#00ff00" fill-rule="evenodd" stroke="none" d="M 667.817 176.480 C 667.816 176.482 658.675 202.293 658.674 202.296 C 658.674 202.294 656.943 189.835 656.943 189.834 C 656.942 189.834 644.390 190.662 644.389 190.662 C 644.391 190.661 667.815 176.481 667.817 176.480 Z"/>
<path fill="#00ff00" fill-rule="evenodd" stroke="none" d="M 52.295 177.335 C 52.296 177.338 63.138 202.482 63.139 202.484 C 63.139 202.483 64.035 189.936 64.035 189.934 C 64.036 189.934 76.615 189.925 76.616 189.925 C 76.613 189.923 52.297 177.336 52.295 177.335 Z"/>
<path fill="#be0027" fill-rule="evenodd" stroke="none" d="M 360.000 571.789 C 360.001 571.786 372.432 536.980 372.433 536.977 C 372.432 536.978 360.001 548.544 360.000 548.545 C 359.999 548.544 347.568 536.978 347.567 536.977 C 347.568 536.980 359.999 571.786 360.000 571.789 Z"/>
</g>
</g>
</svg>
