<?xml version="1.0" encoding="utf-8"?>
<!-- Generator: Moho 12.5 build 22414 -->
<!DOCTYPE svg PUBLIC "-//W3C//DTD SVG 1.1//EN" "http://www.w3.org/Graphics/SVG/1.1/DTD/svg11.dtd">
<svg version="1.1" id="Frame_0" xmlns="http://www.w3.org/2000/svg" xmlns:xlink="http://www.w3.org/1999/xlink" width="720px" height="720px">
<g id="drape">
<g id="bunting">
<path fill="#ffffff" fill-rule="evenodd" stroke="none" d="M 704.941 489.353 C 704.935 489.324 647.457 201.931 647.451 201.902 C 647.445 201.931 589.966 489.324 589.960 489.353 C 589.963 489.354 612.432 495.085 618.007 497.740 C 624.824 500.988 636.807 518.245 647.451 518.098 C 657.756 517.956 668.149 501.294 675.497 497.740 C 681.988 494.601 704.938 489.354 704.941 489.353 M 360.000 518.098 C 131.647 518.098 72.549 201.902 72.549 201.902 C 72.549 201.902 203.549 259.392 360.000 259.392 C 516.452 259.392 647.451 201.902 647.451 201.902 C 647.451 201.902 588.353 518.098 360.000 518.098 Z"/>
<path fill="none" stroke="#000000" stroke-width="2" stroke-linecap="round" stroke-linejoin="round" d="M 216.275 288.137 C 121.195 246.125 120.458 230.647 72.549 201.902 C 101.295 259.392 130.040 288.137 158.784 316.882 M 503.725 288.137 C 598.805 246.125 599.542 230.647 647.451 201.902 C 647.453 201.931 663.650 396.274 671.750 493.460 M 623.152 493.460 C 631.252 396.274 647.449 201.931 647.451 201.902 C 618.706 240.229 618.706 259.392 561.216 316.882 M 704.941 489.353 C 704.935 489.324 647.457 201.931 647.451 201.902 C 647.445 201.931 589.966 489.324 589.960 489.353 C 589.963 489.354 612.432 495.085 618.007 497.740 C 624.824 500.988 636.807 518.245 647.451 518.098 C 657.756 517.956 668.149 501.294 675.497 497.740 C 681.988 494.601 704.938 489.354 704.941 489.353 M 360.000 518.098 C 131.647 518.098 72.549 201.902 72.549 201.902 C 72.549 201.902 203.549 259.392 360.000 259.392 C 516.452 259.392 647.451 201.902 647.451 201.902 C 647.451 201.902 588.353 518.098 360.000 518.098 "/>
<path fill="#ffffff" fill-rule="evenodd" stroke="none" d="M 72.549 201.902 C 72.544 201.931 15.065 489.324 15.059 489.353 C 15.062 489.354 37.530 495.085 43.105 497.740 C 49.922 500.988 61.905 518.244 72.549 518.098 C 82.854 517.956 93.247 501.294 100.595 497.740 C 107.087 494.601 130.037 489.354 130.040 489.353 C 130.034 489.324 72.555 201.931 72.549 201.902 Z"/>
<path fill="none" stroke="#000000" stroke-width="2" stroke-linecap="round" stroke-linejoin="round" d="M 72.549 201.902 C 72.552 201.931 88.749 396.274 96.848 493.460 M 48.250 493.460 C 56.350 396.274 72.547 201.931 72.549 201.902 C 72.555 201.931 130.034 489.324 130.040 489.353 C 130.037 489.354 107.087 494.601 100.595 497.740 C 93.247 501.294 82.854 517.956 72.549 518.098 C 61.905 518.244 49.922 500.988 43.105 497.740 C 37.530 495.085 15.062 489.354 15.059 489.353 C 15.065 489.324 72.544 201.931 72.549 201.902 "/>
</g>
<g id="specs_2">
<path fill="#ff00ff" fill-rule="evenodd" stroke="none" d="M 256.395 484.650 C 256.416 484.650 463.584 484.650 463.605 484.650 C 463.605 484.630 463.605 277.461 463.605 277.440 C 463.584 277.440 256.416 277.440 256.395 277.440 C 256.395 277.461 256.395 484.630 256.395 484.650 Z"/>
<path fill="#ff0000" fill-rule="evenodd" stroke="none" d="M 360.000 615.371 C 360.001 615.375 372.416 650.138 372.417 650.141 C 372.416 650.140 360.001 638.588 360.000 638.587 C 359.999 638.588 347.584 650.140 347.583 650.141 C 347.584 650.138 359.999 615.375 360.000 615.371 Z"/>
<path fill="#0000ff" fill-rule="evenodd" stroke="none" d="M 360.000 221.690 C 360.001 221.692 367.212 241.885 367.213 241.887 C 367.212 241.887 360.001 235.177 360.000 235.176 C 359.999 235.177 352.788 241.887 352.787 241.887 C 352.788 241.885 359.999 221.692 360.000 221.690 Z"/>
<path fill="#ffff00" fill-rule="evenodd" stroke="none" d="M 193.125 501.771 C 193.126 501.769 199.297 488.333 199.298 488.331 C 199.298 488.332 199.622 495.117 199.623 495.118 C 199.623 495.118 206.414 495.282 206.414 495.282 C 206.413 495.283 193.127 501.770 193.125 501.771 Z"/>
<path fill="#ffff00" fill-rule="evenodd" stroke="none" d="M 526.875 501.606 C 526.874 501.605 520.435 488.295 520.434 488.293 C 520.434 488.294 520.245 495.084 520.245 495.085 C 520.245 495.085 513.458 495.386 513.458 495.386 C 513.459 495.386 526.873 501.605 526.875 501.606 Z"/>
<path fill="#00ff00" fill-rule="evenodd" stroke="none" d="M 667.434 176.708 C 667.433 176.711 658.303 202.489 658.302 202.492 C 658.302 202.490 656.574 190.047 656.573 190.045 C 656.572 190.046 644.037 190.873 644.035 190.873 C 644.038 190.872 667.432 176.710 667.434 176.708 Z"/>
<path fill="#00ff00" fill-rule="evenodd" stroke="none" d="M 52.678 177.562 C 52.679 177.565 63.507 202.677 63.508 202.680 C 63.508 202.679 64.403 190.147 64.403 190.146 C 64.405 190.146 76.967 190.136 76.968 190.136 C 76.966 190.135 52.680 177.564 52.678 177.562 Z"/>
<path fill="#be0027" fill-rule="evenodd" stroke="none" d="M 360.000 571.526 C 360.001 571.522 372.416 536.760 372.417 536.756 C 372.416 536.758 360.001 548.309 360.000 548.310 C 359.999 548.309 347.584 536.758 347.583 536.756 C 347.584 536.760 359.999 571.522 360.000 571.526 Z"/>
</g>
</g>
</svg>
