<?xml version="1.0" encoding="utf-8"?>
<!-- Generator: Moho 13.5.1 build 20210623 -->
<!DOCTYPE svg PUBLIC "-//W3C//DTD SVG 1.1//EN" "http://www.w3.org/Graphics/SVG/1.1/DTD/svg11.dtd">
<svg version="1.1" id="Frame_0" xmlns="http://www.w3.org/2000/svg" xmlns:xlink="http://www.w3.org/1999/xlink" width="720px" height="720px">
<g id="egg">
<g id="egg">
<radialGradient id="6CE5DBD2-CC60-459D-9650-8B059AB54BD3_0" cx="49.50%" cy="55.98%" r="64.40%">
<stop offset="0.00%" style="stop-color:rgb(255,255,255);stop-opacity:1.00" />
<stop offset="37.25%" style="stop-color:rgb(255,255,255);stop-opacity:1.00" />
<stop offset="100.00%" style="stop-color:rgb(0,0,0);stop-opacity:1.00" />
</radialGradient>
<path fill="url(#6CE5DBD2-CC60-459D-9650-8B059AB54BD3_0)" fill-rule="evenodd" stroke="#000000" stroke-width="4" stroke-linejoin="round" d="M 360.000 15.528 C 470.069 15.528 625.198 262.332 583.646 448.465 C 558.086 562.959 477.312 648.033 360.000 648.033 C 242.688 648.033 161.914 562.959 136.355 448.465 C 94.802 262.332 249.931 15.528 360.000 15.528 Z"/>
<path fill="none" stroke="#000000" stroke-width="4" stroke-linejoin="round" d="M 130.806 371.193 C 157.441 348.363 210.704 302.709 210.712 302.703 C 210.717 302.709 265.641 369.046 265.646 369.053 C 265.652 369.049 324.856 330.531 324.862 330.527 C 324.868 330.529 368.144 346.698 389.785 354.784 "/>
</g>
<g id="specs_2">
<path fill="#ff00ff" fill-rule="evenodd" stroke="none" d="M 189.648 538.136 C 189.682 538.136 530.318 538.136 530.352 538.136 C 530.352 538.102 530.352 197.467 530.352 197.433 C 530.318 197.433 189.682 197.433 189.648 197.433 C 189.648 197.467 189.648 538.102 189.648 538.136 Z"/>
<path fill="#ff0000" fill-rule="evenodd" stroke="none" d="M 360.000 679.132 C 360.001 679.135 371.831 712.260 371.832 712.263 C 371.831 712.262 360.001 701.255 360.000 701.254 C 359.999 701.255 348.169 712.262 348.168 712.263 C 348.169 712.260 359.999 679.135 360.000 679.132 Z"/>
<path fill="#0000ff" fill-rule="evenodd" stroke="none" d="M 360.000 6.086 C 360.001 6.088 366.872 25.329 366.873 25.331 C 366.872 25.331 360.001 18.937 360.000 18.937 C 359.999 18.937 353.128 25.331 353.127 25.331 C 353.128 25.329 359.999 6.088 360.000 6.086 Z"/>
<path fill="#00ff00" fill-rule="evenodd" stroke="none" d="M 118.247 397.569 C 118.249 397.568 137.456 390.599 137.458 390.598 C 137.457 390.599 131.098 397.503 131.098 397.504 C 131.098 397.504 137.526 404.344 137.527 404.345 C 137.525 404.344 118.249 397.569 118.247 397.569 Z"/>
<path fill="#ffff00" fill-rule="evenodd" stroke="none" d="M 201.642 596.858 C 201.643 596.857 210.170 578.290 210.171 578.288 C 210.171 578.289 210.620 587.664 210.620 587.665 C 210.621 587.665 220.004 587.893 220.005 587.893 C 220.004 587.894 201.644 596.857 201.642 596.858 Z"/>
<path fill="#ffff00" fill-rule="evenodd" stroke="none" d="M 518.358 596.631 C 518.357 596.629 509.459 578.237 509.458 578.235 C 509.458 578.236 509.197 587.619 509.197 587.620 C 509.196 587.620 499.819 588.035 499.818 588.036 C 499.820 588.036 518.356 596.630 518.358 596.631 Z"/>
<path fill="#00ff00" fill-rule="evenodd" stroke="none" d="M 601.753 397.569 C 601.751 397.568 582.544 390.599 582.542 390.598 C 582.543 390.599 588.902 397.503 588.902 397.504 C 588.902 397.504 582.474 404.344 582.473 404.345 C 582.475 404.344 601.751 397.569 601.753 397.569 Z"/>
<path fill="#00ffff" fill-rule="evenodd" stroke="none" d="M 452.126 44.701 C 452.125 44.703 445.304 63.963 445.304 63.965 C 445.304 63.964 444.012 54.667 444.012 54.666 C 444.011 54.666 434.645 55.284 434.644 55.284 C 434.646 55.283 452.124 44.702 452.126 44.701 Z"/>
<path fill="#00ffff" fill-rule="evenodd" stroke="none" d="M 267.874 45.340 C 267.875 45.341 275.965 64.103 275.966 64.105 C 275.966 64.104 276.634 54.742 276.635 54.741 C 276.635 54.741 286.021 54.734 286.022 54.734 C 286.021 54.733 267.876 45.340 267.874 45.340 Z"/>
<path fill="#be0027" fill-rule="evenodd" stroke="none" d="M 360.000 668.839 C 360.001 668.836 371.831 635.712 371.832 635.708 C 371.831 635.709 360.001 646.717 360.000 646.718 C 359.999 646.717 348.169 635.709 348.168 635.708 C 348.169 635.712 359.999 668.836 360.000 668.839 Z"/>
</g>
</g>
</svg>
