<?xml version="1.0" encoding="utf-8"?>
<!-- Generator: Moho 12.5 build 22414 -->
<!DOCTYPE svg PUBLIC "-//W3C//DTD SVG 1.1//EN" "http://www.w3.org/Graphics/SVG/1.1/DTD/svg11.dtd">
<svg version="1.1" id="Frame_0" xmlns="http://www.w3.org/2000/svg" xmlns:xlink="http://www.w3.org/1999/xlink" width="720px" height="720px">
<g id="eggshell_2">
<g id="egg">
<path fill="#000000" fill-rule="evenodd" stroke="#ffffff" stroke-width="4" stroke-linejoin="round" d="M 493.820 419.367 C 493.826 419.368 556.101 422.287 556.107 422.287 C 556.109 422.275 573.301 344.431 581.897 305.503 C 581.892 305.506 530.807 334.693 530.802 334.696 C 530.797 334.685 474.361 230.570 474.355 230.560 C 474.348 230.566 402.444 292.491 402.437 292.497 C 402.431 292.492 347.252 246.833 347.246 246.829 C 347.238 246.837 264.681 332.061 264.673 332.070 C 264.667 332.066 200.986 291.028 200.979 291.024 C 200.972 291.031 129.736 369.353 129.729 369.361 C 137.549 367.538 153.185 363.893 153.188 363.893 C 153.189 363.900 170.704 435.905 170.706 435.912 C 170.710 435.911 211.578 418.396 211.582 418.394 C 211.585 418.400 249.534 474.836 249.538 474.842 C 249.545 474.836 319.713 422.051 319.720 422.046 C 319.732 422.052 445.151 488.396 445.163 488.403 C 445.168 488.396 493.815 419.374 493.820 419.367 Z"/>
<path fill="none" stroke="#ffffff" stroke-width="1" stroke-linecap="butt" stroke-linejoin="round" d="M 556.107 422.287 C 556.109 422.275 573.301 344.431 581.897 305.503 "/>
<path fill="none" stroke="#ffffff" stroke-width="1" stroke-linecap="butt" stroke-linejoin="round" d="M 129.729 369.361 C 137.549 367.538 153.185 363.893 153.188 363.893 "/>
<path fill="none" stroke="#ffffff" stroke-width="1" stroke-linecap="butt" stroke-linejoin="round" d="M 153.188 363.893 C 153.189 363.900 170.704 435.905 170.706 435.912 "/>
<path fill="none" stroke="#ffffff" stroke-width="1" stroke-linecap="butt" stroke-linejoin="round" d="M 170.706 435.912 C 170.710 435.911 211.578 418.396 211.582 418.394 "/>
<path fill="none" stroke="#ffffff" stroke-width="1" stroke-linecap="butt" stroke-linejoin="round" d="M 211.582 418.394 C 211.585 418.400 249.534 474.836 249.538 474.842 "/>
<path fill="none" stroke="#ffffff" stroke-width="1" stroke-linecap="butt" stroke-linejoin="round" d="M 249.538 474.842 C 249.545 474.836 319.713 422.051 319.720 422.046 "/>
<path fill="none" stroke="#ffffff" stroke-width="1" stroke-linecap="butt" stroke-linejoin="round" d="M 319.720 422.046 C 319.732 422.052 445.151 488.396 445.163 488.403 "/>
<path fill="none" stroke="#ffffff" stroke-width="1" stroke-linecap="butt" stroke-linejoin="round" d="M 445.163 488.403 C 445.168 488.396 493.815 419.374 493.820 419.367 "/>
<path fill="none" stroke="#ffffff" stroke-width="1" stroke-linecap="butt" stroke-linejoin="round" d="M 493.820 419.367 C 493.826 419.368 556.101 422.287 556.107 422.287 "/>
<path fill="#ffffff" fill-rule="evenodd" stroke="#000000" stroke-width="4" stroke-linejoin="round" d="M 58.784 572.165 C 100.896 542.578 159.990 550.756 160.001 550.754 C 159.997 550.757 129.558 580.543 129.555 580.546 C 129.554 580.549 121.496 611.310 121.496 611.313 C 121.491 611.313 75.333 611.095 75.329 611.095 C 75.326 611.098 51.974 647.100 51.971 647.104 C 51.967 647.104 13.046 649.050 13.042 649.051 C 13.047 649.043 18.929 600.167 58.784 572.165 M 205.742 606.228 C 205.741 606.233 193.092 654.885 193.090 654.890 C 193.082 654.888 109.400 638.347 109.392 638.345 C 109.402 638.342 205.733 606.232 205.742 606.228 M 640.778 632.505 C 640.785 632.504 708.898 614.016 708.905 614.014 C 708.903 614.018 688.469 654.886 688.467 654.890 C 688.462 654.888 640.783 632.508 640.778 632.505 M 580.438 600.389 C 580.438 600.385 584.930 560.828 584.930 560.824 C 584.935 560.823 634.315 551.690 634.320 551.689 C 634.323 551.683 669.972 492.366 669.975 492.360 C 669.971 492.373 679.174 590.504 625.206 621.800 C 566.244 655.993 494.806 627.639 494.793 627.639 C 494.802 627.636 580.429 600.392 580.438 600.389 M 556.107 422.287 C 556.109 422.275 573.301 344.431 581.897 305.503 C 581.898 305.517 593.561 401.910 583.646 448.465 C 559.208 563.204 477.312 648.033 360.000 648.033 C 242.688 648.033 161.915 562.959 136.355 448.465 C 130.537 422.407 129.730 369.369 129.729 369.361 C 137.549 367.538 153.185 363.893 153.188 363.893 C 153.189 363.900 170.704 435.905 170.706 435.912 C 170.710 435.911 211.578 418.396 211.582 418.394 C 211.585 418.400 249.534 474.836 249.538 474.842 C 249.545 474.836 319.713 422.051 319.720 422.046 C 319.732 422.052 445.151 488.396 445.163 488.403 C 445.168 488.396 493.815 419.374 493.820 419.367 C 493.826 419.368 556.101 422.287 556.107 422.287 Z"/>
</g>
<g id="specs_2">
<path fill="#ff0000" fill-rule="evenodd" stroke="none" d="M 360.000 679.132 C 360.001 679.135 371.831 712.260 371.832 712.263 C 371.831 712.262 360.001 701.255 360.000 701.254 C 359.999 701.255 348.169 712.262 348.168 712.263 C 348.169 712.260 359.999 679.135 360.000 679.132 Z"/>
<path fill="#00ff00" fill-rule="evenodd" stroke="none" d="M 118.247 439.418 C 118.249 439.417 137.456 432.448 137.458 432.447 C 137.457 432.448 131.098 439.352 131.098 439.353 C 131.098 439.354 137.526 446.193 137.527 446.194 C 137.525 446.193 118.249 439.418 118.247 439.418 Z"/>
<path fill="#00ff00" fill-rule="evenodd" stroke="none" d="M 601.753 439.418 C 601.751 439.417 582.544 432.448 582.542 432.447 C 582.543 432.448 588.902 439.352 588.902 439.353 C 588.902 439.354 582.474 446.193 582.473 446.194 C 582.475 446.193 601.751 439.418 601.753 439.418 Z"/>
<path fill="#ff00ff" fill-rule="evenodd" stroke="none" d="M 167.062 29.840 C 167.100 29.840 552.900 29.840 552.938 29.840 C 552.938 29.878 552.938 415.678 552.938 415.716 C 552.900 415.716 167.100 415.716 167.062 415.716 C 167.062 415.678 167.062 29.878 167.062 29.840 Z"/>
</g>
</g>
</svg>
