<?xml version="1.0" encoding="utf-8"?>
<!-- Generator: Moho 12.5 build 22414 -->
<!DOCTYPE svg PUBLIC "-//W3C//DTD SVG 1.1//EN" "http://www.w3.org/Graphics/SVG/1.1/DTD/svg11.dtd">
<svg version="1.1" id="Frame_0" xmlns="http://www.w3.org/2000/svg" xmlns:xlink="http://www.w3.org/1999/xlink" width="720px" height="720px">
<g id="eggshell">
<g id="egg">
<path fill="#ffffff" fill-rule="evenodd" stroke="#000000" stroke-width="4" stroke-linejoin="round" d="M 109.392 638.345 C 109.402 638.342 205.733 606.232 205.742 606.228 C 205.741 606.233 193.092 654.885 193.090 654.890 C 193.082 654.888 109.400 638.347 109.392 638.345 M 688.467 654.890 C 688.462 654.888 640.783 632.508 640.778 632.505 C 640.785 632.504 708.898 614.016 708.905 614.014 C 708.903 614.018 688.469 654.886 688.467 654.890 M 494.793 627.639 C 494.802 627.637 580.429 600.392 580.438 600.389 C 580.438 600.385 584.930 560.828 584.930 560.824 C 584.935 560.823 634.315 551.690 634.320 551.689 C 634.323 551.683 669.972 492.366 669.975 492.360 C 669.971 492.373 679.174 590.504 625.206 621.800 C 566.244 655.993 494.806 627.639 494.793 627.639 M 51.971 647.104 C 51.967 647.104 13.046 649.050 13.042 649.051 C 13.047 649.043 18.929 600.167 58.784 572.165 C 100.896 542.578 159.990 550.756 160.001 550.754 C 159.997 550.757 129.558 580.543 129.555 580.546 C 129.554 580.549 121.496 611.310 121.496 611.313 C 121.491 611.313 75.333 611.095 75.329 611.095 C 75.326 611.098 51.974 647.100 51.971 647.104 M 528.856 392.117 C 528.861 392.108 581.892 305.512 581.897 305.503 C 581.898 305.517 593.561 401.910 583.646 448.465 C 559.208 563.204 477.312 648.033 360.000 648.033 C 242.688 648.033 161.915 562.959 136.355 448.465 C 130.537 422.407 129.730 369.369 129.729 369.361 C 129.737 369.354 210.703 302.709 210.712 302.703 C 210.717 302.709 265.641 369.046 265.646 369.053 C 265.652 369.049 324.856 330.531 324.862 330.527 C 324.869 330.531 391.725 368.405 391.731 368.409 C 391.738 368.402 454.884 301.613 454.890 301.606 C 454.898 301.615 528.849 392.108 528.856 392.117 Z"/>
</g>
<g id="specs_2">
<path fill="#ff0000" fill-rule="evenodd" stroke="none" d="M 360.000 679.132 C 360.001 679.135 371.831 712.260 371.832 712.263 C 371.831 712.262 360.001 701.255 360.000 701.254 C 359.999 701.255 348.169 712.262 348.168 712.263 C 348.169 712.260 359.999 679.135 360.000 679.132 Z"/>
<path fill="#0000ff" fill-rule="evenodd" stroke="none" d="M 360.000 444.039 C 360.001 444.041 366.872 463.282 366.873 463.284 C 366.872 463.283 360.001 456.890 360.000 456.889 C 359.999 456.890 353.128 463.283 353.127 463.284 C 353.128 463.282 359.999 444.041 360.000 444.039 Z"/>
<path fill="#00ff00" fill-rule="evenodd" stroke="none" d="M 118.247 397.569 C 118.249 397.568 137.456 390.599 137.458 390.598 C 137.457 390.599 131.098 397.503 131.098 397.504 C 131.098 397.504 137.526 404.344 137.527 404.345 C 137.525 404.344 118.249 397.569 118.247 397.569 Z"/>
<path fill="#00ff00" fill-rule="evenodd" stroke="none" d="M 601.753 397.569 C 601.751 397.568 582.544 390.599 582.542 390.598 C 582.543 390.599 588.902 397.503 588.902 397.504 C 588.902 397.504 582.474 404.344 582.473 404.345 C 582.475 404.344 601.751 397.569 601.753 397.569 Z"/>
</g>
</g>
</svg>
