<?xml version="1.0" encoding="utf-8"?>
<!-- Generator: Moho 13.5 build 20210422 -->
<!DOCTYPE svg PUBLIC "-//W3C//DTD SVG 1.1//EN" "http://www.w3.org/Graphics/SVG/1.1/DTD/svg11.dtd">
<svg version="1.1" id="Frame_0" xmlns="http://www.w3.org/2000/svg" xmlns:xlink="http://www.w3.org/1999/xlink" width="720px" height="720px">
<g id="emperor">
<g id="emperor">
<path id="S8" fill="#000000" fill-rule="evenodd" stroke="#ffffff" stroke-width="2" stroke-linecap="round" stroke-linejoin="round" d="M 215.502 425.414 C 215.531 425.414 504.467 425.414 504.496 425.414 C 504.496 425.434 504.496 626.880 504.496 626.900 C 504.467 626.900 215.531 626.900 215.502 626.900 C 215.502 626.880 215.502 425.434 215.502 425.414 Z"/>
<linearGradient id="2290D8ED-A93A-4C25-B708-A7A17043370F_1" x1="50.00%" y1="66.14%" x2="50.00%" y2="-101.31%">
<stop offset="0.00%" style="stop-color:rgb(255,255,255);stop-opacity:1.00" />
<stop offset="100.00%" style="stop-color:rgb(0,0,0);stop-opacity:1.00" />
</linearGradient>
<path id="S1_2_2" fill="url(#2290D8ED-A93A-4C25-B708-A7A17043370F_1)" fill-rule="evenodd" stroke="#000000" stroke-width="2" stroke-linecap="round" stroke-linejoin="round" d="M 138.378 623.927 C 138.422 623.927 581.577 623.927 581.621 623.927 C 581.621 623.930 581.621 659.721 581.621 659.725 C 581.577 659.725 138.422 659.725 138.378 659.725 C 138.378 659.721 138.378 623.930 138.378 623.927 Z"/>
<linearGradient id="2290D8ED-A93A-4C25-B708-A7A17043370F_2" x1="50.00%" y1="50.00%" x2="50.00%" y2="-21.53%">
<stop offset="0.00%" style="stop-color:rgb(255,255,255);stop-opacity:1.00" />
<stop offset="100.00%" style="stop-color:rgb(0,0,0);stop-opacity:1.00" />
</linearGradient>
<path id="S1" fill="url(#2290D8ED-A93A-4C25-B708-A7A17043370F_2)" fill-rule="evenodd" stroke="#000000" stroke-width="2" stroke-linecap="round" stroke-linejoin="round" d="M 229.442 66.479 C 229.469 66.479 490.530 66.479 490.556 66.479 C 490.556 66.516 490.556 433.220 490.556 433.257 C 490.530 433.257 229.469 433.257 229.442 433.257 C 229.442 433.220 229.442 66.516 229.442 66.479 Z"/>
<path id="S2" fill="none" stroke="#000000" stroke-width="2" stroke-linecap="round" stroke-linejoin="round" d="M 269.650 361.539 C 269.650 361.513 269.650 107.743 269.650 107.717 C 269.668 107.717 450.330 107.717 450.349 107.717 C 450.349 107.743 450.349 361.513 450.349 361.539 C 450.330 361.539 269.668 361.539 269.650 361.539 "/>
<path id="S4" fill="#ffffff" fill-rule="evenodd" stroke="#000000" stroke-width="2" stroke-linecap="round" stroke-linejoin="round" d="M 496.951 89.596 C 503.080 91.253 507.065 91.923 512.122 93.086 C 517.736 81.549 512.957 67.712 501.420 62.098 C 489.882 56.484 476.045 61.263 470.431 72.801 C 464.818 84.339 469.596 98.175 481.134 103.789 C 474.516 97.381 473.213 85.546 480.754 80.256 C 491.588 72.657 499.173 81.904 496.951 89.596 Z"/>
<path id="S5" fill="#ffffff" fill-rule="evenodd" stroke="#000000" stroke-width="2" stroke-linecap="round" stroke-linejoin="round" d="M 223.646 89.596 C 217.517 91.253 213.532 91.923 208.475 93.086 C 202.861 81.548 207.640 67.712 219.178 62.098 C 230.716 56.484 244.552 61.263 250.166 72.801 C 255.780 84.339 251.001 98.175 239.464 103.789 C 246.081 97.381 247.384 85.546 239.843 80.256 C 229.009 72.657 221.425 81.904 223.646 89.596 Z"/>
<path id="S6" fill="#ffffff" fill-rule="evenodd" stroke="#000000" stroke-width="2" stroke-linecap="round" stroke-linejoin="round" d="M 491.257 135.468 C 491.258 135.463 467.004 97.256 497.388 84.605 C 501.975 87.317 508.324 90.966 512.166 92.768 C 502.851 124.395 491.259 135.464 491.257 135.468 Z"/>
<path id="S7" fill="#ffffff" fill-rule="evenodd" stroke="#000000" stroke-width="2" stroke-linecap="round" stroke-linejoin="round" d="M 229.340 135.468 C 229.340 135.463 253.593 97.257 223.209 84.605 C 218.622 87.317 212.274 90.966 208.431 92.768 C 217.746 124.395 229.338 135.464 229.340 135.468 Z"/>
<path id="S9" fill="#ffffff" fill-rule="evenodd" stroke="#000000" stroke-width="2" stroke-linecap="round" stroke-linejoin="round" d="M 374.256 512.623 C 429.837 511.534 472.073 437.912 475.098 452.982 C 451.697 498.969 395.598 609.218 395.590 609.233 C 395.594 609.236 436.704 639.140 436.708 639.143 C 436.701 639.143 364.427 639.143 364.419 639.143 C 364.420 639.130 374.255 512.638 374.256 512.623 M 345.743 512.623 C 292.664 513.403 253.956 443.440 244.900 452.982 C 270.672 503.629 324.401 609.218 324.409 609.233 C 324.405 609.236 283.294 639.140 283.290 639.143 C 283.297 639.143 355.572 639.143 355.579 639.143 C 355.578 639.130 345.744 512.636 345.743 512.623 Z"/>
<path id="S38" fill="#ffffff" fill-rule="evenodd" stroke="#000000" stroke-width="2" stroke-linecap="round" stroke-linejoin="round" d="M 236.884 303.102 C 366.092 530.180 485.792 297.678 531.478 439.134 C 523.178 434.265 508.094 425.246 496.458 426.295 C 448.286 430.642 445.063 502.297 360.503 501.934 C 276.122 501.571 271.715 434.690 223.541 430.923 C 212.309 430.045 188.524 439.133 188.520 439.134 C 188.525 439.121 236.879 303.115 236.884 303.102 Z"/>
<path fill="none" stroke="#000000" stroke-width="1" stroke-linecap="butt" stroke-linejoin="round" d="M 236.884 303.102 C 366.092 530.180 485.792 297.678 531.478 439.134 "/>
<path id="S39" fill="#000000" fill-rule="evenodd" stroke="#ffffff" stroke-width="2" stroke-linecap="round" stroke-linejoin="round" d="M 236.884 303.102 C 366.092 530.180 485.792 297.678 531.478 439.134 C 533.408 423.866 456.347 227.811 456.340 227.790 C 456.320 227.790 263.678 227.790 263.659 227.790 C 263.656 227.798 236.886 303.094 236.884 303.102 Z"/>
<path id="S29" fill="#ffffff" fill-rule="evenodd" stroke="#000000" stroke-width="2" stroke-linecap="round" stroke-linejoin="round" d="M 319.611 160.036 C 319.619 160.036 400.380 160.036 400.388 160.036 C 400.389 160.046 417.223 254.749 417.224 254.758 C 417.213 254.758 302.786 254.758 302.774 254.758 C 302.776 254.749 319.609 160.046 319.611 160.036 Z"/>
<path id="S30" fill="#ffffff" fill-rule="evenodd" stroke="#000000" stroke-width="2" stroke-linecap="round" stroke-linejoin="round" d="M 392.522 224.084 C 387.335 342.599 360.003 383.587 359.999 383.603 C 359.996 383.587 332.664 342.599 327.477 224.091 C 344.858 198.701 375.241 198.619 392.522 224.084 Z"/>
<path id="S32" fill="#ffffff" fill-rule="evenodd" stroke="#000000" stroke-width="2" stroke-linecap="round" stroke-linejoin="round" d="M 359.999 87.604 C 360.004 87.608 405.345 107.851 405.345 132.950 C 405.345 158.049 385.098 178.296 359.999 178.296 C 334.901 178.296 314.653 158.049 314.653 132.950 C 314.653 107.851 359.995 87.608 359.999 87.604 Z"/>
<path fill="none" stroke="#000000" stroke-width="1" stroke-linecap="butt" stroke-linejoin="round" d="M 327.477 224.091 C 344.858 198.701 375.241 198.619 392.522 224.084 "/>
<path id="S31" fill="#000000" fill-rule="evenodd" stroke="#000000" stroke-width="2" stroke-linecap="round" stroke-linejoin="round" d="M 327.477 224.091 C 344.858 198.701 375.241 198.619 392.522 224.084 C 393.219 212.763 393.625 198.710 393.808 183.495 C 386.131 176.496 372.759 173.346 363.537 183.542 C 363.516 193.219 363.514 212.401 363.514 212.404 C 363.514 212.404 356.485 212.404 356.484 212.404 C 356.484 212.401 356.484 193.219 356.485 183.541 C 347.272 172.992 333.963 178.248 326.191 183.499 C 326.374 198.714 326.780 212.767 327.477 224.091 Z"/>
<path fill="none" stroke="#ffffff" stroke-width="1" stroke-linecap="butt" stroke-linejoin="round" d="M 363.537 183.542 C 372.759 173.346 386.131 176.496 393.808 183.495 "/>
<path fill="none" stroke="#ffffff" stroke-width="1" stroke-linecap="butt" stroke-linejoin="round" d="M 326.191 183.499 C 333.963 178.248 347.272 172.992 356.485 183.541 "/>
<path fill="none" stroke="#ffffff" stroke-width="1" stroke-linecap="butt" stroke-linejoin="round" d="M 356.485 183.541 C 356.484 193.219 356.484 212.401 356.484 212.404 "/>
<path fill="none" stroke="#ffffff" stroke-width="1" stroke-linecap="butt" stroke-linejoin="round" d="M 356.484 212.404 C 356.485 212.404 363.514 212.404 363.514 212.404 "/>
<path fill="none" stroke="#ffffff" stroke-width="1" stroke-linecap="butt" stroke-linejoin="round" d="M 363.514 212.404 C 363.514 212.401 363.516 193.219 363.537 183.542 "/>
<path id="S35" fill="#ffffff" fill-rule="evenodd" stroke="#000000" stroke-width="2" stroke-linecap="round" stroke-linejoin="round" d="M 363.537 183.542 C 372.759 173.346 386.131 176.496 393.808 183.495 C 393.942 176.092 393.983 169.506 393.983 162.709 C 376.991 162.709 346.985 162.709 326.016 162.709 C 326.016 169.506 326.056 176.092 326.191 183.499 C 333.963 178.248 347.272 172.992 356.485 183.541 C 356.484 193.219 356.484 212.401 356.484 212.404 C 356.485 212.404 363.514 212.404 363.514 212.404 C 363.514 212.401 363.516 193.219 363.537 183.542 Z"/>
<path id="S33" fill="#ffffff" fill-rule="evenodd" stroke="#000000" stroke-width="2" stroke-linecap="round" stroke-linejoin="round" d="M 317.520 167.515 C 317.519 167.512 310.815 133.535 310.815 133.532 C 310.816 133.531 317.650 127.907 320.651 127.907 C 323.653 127.907 330.488 133.531 330.489 133.532 C 330.489 133.535 334.511 167.512 334.512 167.515 C 334.510 167.515 317.521 167.515 317.520 167.515 M 379.673 127.907 C 382.675 127.907 389.509 133.531 389.510 133.532 C 389.510 133.535 385.487 167.512 385.487 167.515 C 385.485 167.515 368.497 167.515 368.495 167.515 C 368.495 167.512 369.836 133.535 369.836 133.532 C 369.837 133.531 376.671 127.907 379.673 127.907 M 385.487 167.515 C 385.487 167.512 389.510 133.535 389.510 133.532 C 389.511 133.531 396.345 127.907 399.347 127.907 C 402.349 127.907 409.183 133.531 409.184 133.532 C 409.183 133.535 402.480 167.512 402.479 167.515 C 402.477 167.515 385.489 167.515 385.487 167.515 M 340.325 127.907 C 343.327 127.907 350.161 133.531 350.162 133.532 C 350.162 133.535 351.503 167.512 351.503 167.515 C 351.502 167.515 334.513 167.515 334.512 167.515 C 334.511 167.512 330.489 133.535 330.489 133.532 C 330.490 133.531 337.324 127.907 340.325 127.907 M 351.503 167.515 C 351.503 167.512 350.162 133.535 350.162 133.532 C 350.163 133.531 356.997 127.907 359.999 127.907 C 363.001 127.907 369.835 133.531 369.836 133.532 C 369.836 133.535 368.495 167.512 368.495 167.515 C 368.494 167.515 351.505 167.515 351.503 167.515 Z"/>
<path id="S34" fill="#000000" fill-rule="evenodd" stroke="none" d="M 327.835 139.467 C 327.835 135.867 324.931 132.964 321.332 132.964 C 317.733 132.964 314.829 135.867 314.829 139.467 C 314.829 143.066 317.733 145.970 321.332 145.970 C 324.931 145.970 327.835 143.066 327.835 139.467 M 347.169 139.467 C 347.169 135.867 344.265 132.964 340.666 132.964 C 337.066 132.964 334.163 135.867 334.163 139.467 C 334.163 143.066 337.066 145.970 340.666 145.970 C 344.265 145.970 347.169 143.066 347.169 139.467 M 392.164 139.467 C 392.164 135.867 395.067 132.964 398.667 132.964 C 402.266 132.964 405.170 135.867 405.170 139.467 C 405.170 143.066 402.266 145.970 398.667 145.970 C 395.067 145.970 392.164 143.066 392.164 139.467 M 372.830 139.467 C 372.830 135.867 375.733 132.964 379.333 132.964 C 382.932 132.964 385.836 135.867 385.836 139.467 C 385.836 143.066 382.932 145.970 379.333 145.970 C 375.733 145.970 372.830 143.066 372.830 139.467 M 353.496 139.467 C 353.496 135.867 356.400 132.964 359.999 132.964 C 363.599 132.964 366.502 135.867 366.502 139.467 C 366.502 143.066 363.599 145.970 359.999 145.970 C 356.400 145.970 353.496 143.066 353.496 139.467 Z"/>
<path id="S36" fill="#ffffff" fill-rule="evenodd" stroke="none" d="M 365.509 190.205 C 365.510 190.205 372.742 183.466 378.454 183.466 C 384.166 183.467 391.397 190.205 391.398 190.205 C 391.397 190.206 384.166 196.944 378.454 196.944 C 372.742 196.944 365.510 190.206 365.509 190.205 M 328.600 190.205 C 328.601 190.205 335.833 183.467 341.545 183.467 C 347.256 183.467 354.488 190.205 354.489 190.205 C 354.488 190.206 347.256 196.944 341.545 196.944 C 335.833 196.944 328.601 190.206 328.600 190.205 Z"/>
<path id="S15" fill="#000000" fill-rule="evenodd" stroke="#ffffff" stroke-width="2" stroke-linecap="round" stroke-linejoin="round" d="M 567.460 407.964 C 567.458 407.964 554.985 408.025 548.748 408.056 C 548.748 408.058 548.748 428.444 548.748 428.446 C 554.985 421.618 567.458 407.966 567.460 407.964 Z"/>
<path id="S16" fill="#ffffff" fill-rule="evenodd" stroke="#000000" stroke-width="2" stroke-linecap="round" stroke-linejoin="round" d="M 529.797 349.706 C 549.487 349.706 565.133 365.591 565.370 385.279 C 565.622 406.115 549.044 423.966 528.214 423.411 C 508.229 422.878 493.622 405.262 494.224 385.279 C 494.817 365.598 510.108 349.706 529.797 349.706 Z"/>
<path id="S17" fill="#000000" fill-rule="evenodd" stroke="#ffffff" stroke-width="2" stroke-linecap="round" stroke-linejoin="round" d="M 507.968 428.446 C 507.968 428.442 507.968 387.669 507.968 387.665 C 507.969 387.665 518.162 387.665 518.163 387.665 C 518.163 401.259 518.163 414.852 518.163 428.446 C 518.162 428.446 507.969 428.446 507.968 428.446 Z"/>
<path fill="none" stroke="#000000" stroke-width="1" stroke-linecap="butt" stroke-linejoin="round" d="M 518.163 387.665 C 518.163 401.259 518.163 414.852 518.163 428.446 "/>
<path id="S18" fill="#000000" fill-rule="evenodd" stroke="#ffffff" stroke-width="2" stroke-linecap="round" stroke-linejoin="round" d="M 518.163 387.665 C 518.163 401.259 518.163 414.852 518.163 428.446 C 518.164 428.446 528.357 428.446 528.358 428.446 C 528.358 414.852 528.358 401.259 528.358 387.665 C 528.357 387.665 518.164 387.665 518.163 387.665 Z"/>
<path fill="none" stroke="#000000" stroke-width="1" stroke-linecap="butt" stroke-linejoin="round" d="M 528.358 387.665 C 528.358 401.259 528.358 414.852 528.358 428.446 "/>
<path id="S19" fill="#000000" fill-rule="evenodd" stroke="#ffffff" stroke-width="2" stroke-linecap="round" stroke-linejoin="round" d="M 528.358 387.665 C 528.358 401.259 528.358 414.852 528.358 428.446 C 528.359 428.446 538.552 428.446 538.553 428.446 C 538.553 414.852 538.553 401.259 538.553 387.665 C 538.552 387.665 528.359 387.665 528.358 387.665 Z"/>
<path fill="none" stroke="#000000" stroke-width="1" stroke-linecap="butt" stroke-linejoin="round" d="M 538.553 387.665 C 538.553 401.259 538.553 414.852 538.553 428.446 "/>
<path fill="none" stroke="#000000" stroke-width="1" stroke-linecap="butt" stroke-linejoin="round" d="M 548.748 428.446 C 548.748 428.444 548.748 408.058 548.748 408.056 "/>
<path id="S20" fill="#000000" fill-rule="evenodd" stroke="#ffffff" stroke-width="2" stroke-linecap="round" stroke-linejoin="round" d="M 538.553 387.665 C 538.553 401.259 538.553 414.852 538.553 428.446 C 538.554 428.446 548.747 428.446 548.748 428.446 C 548.748 428.444 548.748 408.058 548.748 408.056 C 548.748 408.054 548.748 387.667 548.748 387.665 C 548.747 387.665 538.554 387.665 538.553 387.665 Z"/>
<linearGradient id="2290D8ED-A93A-4C25-B708-A7A17043370F_25" x1="50.00%" y1="50.00%" x2="50.00%" y2="-23.91%">
<stop offset="0.00%" style="stop-color:rgb(255,255,255);stop-opacity:1.00" />
<stop offset="100.00%" style="stop-color:rgb(0,0,0);stop-opacity:1.00" />
</linearGradient>
<path id="S37" fill="url(#2290D8ED-A93A-4C25-B708-A7A17043370F_25)" fill-rule="evenodd" stroke="#000000" stroke-width="2" stroke-linecap="round" stroke-linejoin="round" d="M 490.374 427.174 C 490.382 427.174 569.933 427.174 569.941 427.174 C 569.941 427.195 569.941 640.646 569.941 640.668 C 569.933 640.668 490.382 640.668 490.374 640.668 C 490.374 640.646 490.374 427.195 490.374 427.174 Z"/>
<path id="S12" fill="#ffffff" fill-rule="evenodd" stroke="#000000" stroke-width="2" stroke-linecap="round" stroke-linejoin="round" d="M 546.070 458.476 C 539.834 457.284 535.958 456.143 530.902 454.977 C 530.902 442.146 541.253 431.795 554.084 431.795 C 566.915 431.795 577.265 442.146 577.265 454.977 C 577.266 467.808 566.915 478.159 554.084 478.159 C 562.838 475.292 569.187 465.220 564.721 457.164 C 558.304 445.591 547.438 450.588 546.070 458.476 M 515.733 458.476 C 521.990 457.280 525.846 456.143 530.902 454.977 C 530.902 442.146 520.551 431.795 507.720 431.795 C 494.889 431.795 484.538 442.146 484.538 454.977 C 484.538 467.808 494.888 478.159 507.720 478.159 C 498.965 475.292 492.616 465.220 497.082 457.164 C 503.499 445.590 514.361 450.561 515.733 458.476 Z"/>
<path id="S13" fill="#ffffff" fill-rule="evenodd" stroke="#000000" stroke-width="2" stroke-linecap="round" stroke-linejoin="round" d="M 531.120 502.216 C 531.122 502.211 546.224 489.891 547.861 453.797 C 537.300 453.431 514.383 453.797 514.380 453.797 C 514.538 489.323 531.119 502.211 531.120 502.216 Z"/>
<path id="S21" fill="#ffffff" fill-rule="evenodd" stroke="#000000" stroke-width="2" stroke-linecap="round" stroke-linejoin="round" d="M 179.143 394.562 C 179.143 394.549 182.818 308.321 184.756 262.830 C 175.209 263.214 166.551 265.122 163.921 268.573 C 163.921 264.474 163.921 254.974 163.921 254.973 C 163.923 254.973 214.921 254.973 214.923 254.973 C 214.923 254.974 214.923 268.572 214.923 268.573 C 211.960 265.334 203.556 263.417 194.088 262.827 C 195.935 308.320 199.436 394.549 199.437 394.562 C 199.435 394.563 179.145 394.563 179.143 394.562 M 174.548 229.787 C 174.548 221.554 181.189 214.912 189.422 214.912 C 197.654 214.912 204.296 221.554 204.296 229.787 C 204.296 238.019 197.654 244.660 189.422 244.660 C 181.189 244.660 174.548 238.019 174.548 229.787 M 164.478 229.787 C 164.478 215.980 175.615 204.843 189.422 204.843 C 203.228 204.842 214.366 215.980 214.366 229.787 C 214.366 243.593 203.228 254.731 189.422 254.731 C 175.615 254.731 164.478 243.593 164.478 229.787 Z"/>
<path id="S22" fill="#000000" fill-rule="evenodd" stroke="#ffffff" stroke-width="2" stroke-linecap="round" stroke-linejoin="round" d="M 162.475 397.160 C 171.677 397.160 180.879 397.160 190.081 397.160 C 190.081 397.159 190.081 390.363 190.081 386.965 C 190.080 386.965 162.476 386.965 162.475 386.965 C 162.475 386.966 162.475 397.159 162.475 397.160 Z"/>
<path fill="none" stroke="#000000" stroke-width="1" stroke-linecap="butt" stroke-linejoin="round" d="M 190.081 397.160 C 180.879 397.160 171.677 397.160 162.475 397.160 "/>
<path id="S23" fill="#000000" fill-rule="evenodd" stroke="#ffffff" stroke-width="2" stroke-linecap="round" stroke-linejoin="round" d="M 162.475 407.355 C 171.677 407.355 180.879 407.355 190.081 407.355 C 190.081 407.354 190.081 397.161 190.081 397.160 C 180.879 397.160 171.677 397.160 162.475 397.160 C 162.475 397.161 162.475 407.354 162.475 407.355 Z"/>
<path fill="none" stroke="#000000" stroke-width="1" stroke-linecap="butt" stroke-linejoin="round" d="M 190.081 407.355 C 180.879 407.355 171.677 407.355 162.475 407.355 "/>
<path id="S24" fill="#000000" fill-rule="evenodd" stroke="#ffffff" stroke-width="2" stroke-linecap="round" stroke-linejoin="round" d="M 162.475 417.550 C 171.677 417.550 190.078 417.550 190.081 417.550 C 190.081 417.549 190.081 407.356 190.081 407.355 C 180.879 407.355 171.677 407.355 162.475 407.355 C 162.475 407.356 162.475 417.549 162.475 417.550 Z"/>
<path fill="none" stroke="#000000" stroke-width="1" stroke-linecap="butt" stroke-linejoin="round" d="M 162.475 417.550 C 171.677 417.550 190.078 417.550 190.081 417.550 "/>
<path id="S25" fill="#000000" fill-rule="evenodd" stroke="#ffffff" stroke-width="2" stroke-linecap="round" stroke-linejoin="round" d="M 190.081 417.550 C 190.081 417.551 190.081 424.347 190.081 427.745 C 190.078 427.745 162.478 427.745 162.475 427.745 C 162.475 427.744 162.475 417.551 162.475 417.550 C 171.677 417.550 190.078 417.550 190.081 417.550 Z"/>
<path fill="none" stroke="#000000" stroke-width="1" stroke-linecap="butt" stroke-linejoin="round" d="M 190.081 417.550 C 190.081 417.551 190.081 424.347 190.081 427.745 "/>
<path fill="none" stroke="#000000" stroke-width="1" stroke-linecap="butt" stroke-linejoin="round" d="M 190.081 386.965 C 190.081 390.363 190.081 397.159 190.081 397.160 "/>
<path fill="none" stroke="#000000" stroke-width="1" stroke-linecap="butt" stroke-linejoin="round" d="M 190.081 397.160 C 190.081 397.161 190.081 407.354 190.081 407.355 "/>
<path fill="none" stroke="#000000" stroke-width="1" stroke-linecap="butt" stroke-linejoin="round" d="M 190.081 407.355 C 190.081 407.356 190.081 417.549 190.081 417.550 "/>
<path id="S26" fill="#000000" fill-rule="evenodd" stroke="none" d="M 190.081 417.550 C 190.081 417.551 190.081 424.347 190.081 427.745 C 190.084 427.745 217.685 427.745 217.687 427.745 C 217.687 427.741 217.687 386.969 217.687 386.965 C 217.686 386.965 190.082 386.965 190.081 386.965 C 190.081 390.363 190.081 397.159 190.081 397.160 C 190.081 397.161 190.081 407.354 190.081 407.355 C 190.081 407.356 190.081 417.549 190.081 417.550 Z"/>
<path id="S26" fill="none" stroke="#ffffff" stroke-width="2" stroke-linecap="round" stroke-linejoin="round" d="M 203.544 417.539 C 203.544 417.537 203.544 405.119 203.544 398.908 M 190.081 417.550 C 190.082 417.550 203.543 417.539 203.544 417.539 M 190.081 417.550 C 190.081 417.551 190.081 424.347 190.081 427.745 C 190.084 427.745 217.685 427.745 217.687 427.745 C 217.687 427.741 217.687 386.969 217.687 386.965 C 217.686 386.965 190.082 386.965 190.081 386.965 C 190.081 390.363 190.081 397.159 190.081 397.160 C 190.081 397.161 190.081 407.354 190.081 407.355 C 190.081 407.356 190.081 417.549 190.081 417.550 "/>
<path id="S6_2" fill="none" stroke="#000000" stroke-width="2" stroke-linecap="round" stroke-linejoin="round" d="M 500.656 95.549 C 500.656 95.550 493.806 100.202 492.742 104.866 C 491.678 109.531 495.835 116.692 495.835 116.694 C 495.836 116.693 502.685 112.041 503.749 107.376 C 504.813 102.711 500.657 95.551 500.656 95.549 "/>
<path id="S7_2" fill="none" stroke="#000000" stroke-width="2" stroke-linecap="round" stroke-linejoin="round" d="M 219.941 95.549 C 219.942 95.550 226.792 100.202 227.856 104.866 C 228.919 109.531 224.763 116.692 224.763 116.694 C 224.762 116.693 217.912 112.041 216.849 107.376 C 215.785 102.711 219.941 95.551 219.941 95.549 "/>
<path id="S40" fill="#000000" fill-rule="evenodd" stroke="none" d="M 360.000 220.758 C 365.712 220.758 372.943 227.496 372.945 227.497 C 372.943 227.498 347.056 227.498 347.055 227.497 C 347.056 227.496 354.288 220.758 360.000 220.758 Z"/>
<linearGradient id="2290D8ED-A93A-4C25-B708-A7A17043370F_37" x1="50.00%" y1="50.00%" x2="50.00%" y2="-24.38%">
<stop offset="0.00%" style="stop-color:rgb(255,255,255);stop-opacity:1.00" />
<stop offset="100.00%" style="stop-color:rgb(0,0,0);stop-opacity:1.00" />
</linearGradient>
<path id="S3" fill="url(#2290D8ED-A93A-4C25-B708-A7A17043370F_37)" fill-rule="evenodd" stroke="#000000" stroke-width="2" stroke-linecap="round" stroke-linejoin="round" d="M 150.058 427.174 C 150.066 427.174 229.617 427.174 229.625 427.174 C 229.625 427.195 229.625 640.646 229.625 640.668 C 229.617 640.668 150.066 640.668 150.058 640.668 C 150.058 640.646 150.058 427.195 150.058 427.174 Z"/>
<path id="S11" fill="#ffffff" fill-rule="evenodd" stroke="#000000" stroke-width="2" stroke-linecap="round" stroke-linejoin="round" d="M 203.865 458.476 C 197.630 457.284 193.753 456.143 188.697 454.977 C 188.697 442.146 199.048 431.795 211.879 431.795 C 224.710 431.795 235.060 442.146 235.061 454.977 C 235.061 467.808 224.710 478.159 211.879 478.159 C 220.633 475.292 226.982 465.220 222.516 457.164 C 216.099 445.591 205.233 450.588 203.865 458.476 M 173.528 458.476 C 179.764 457.284 183.641 456.143 188.697 454.977 C 188.697 442.146 178.346 431.795 165.515 431.795 C 152.684 431.795 142.333 442.146 142.333 454.977 C 142.333 467.808 152.684 478.159 165.515 478.159 C 156.761 475.292 150.411 465.220 154.877 457.164 C 161.294 445.591 172.160 450.588 173.528 458.476 Z"/>
<path id="S14" fill="#ffffff" fill-rule="evenodd" stroke="#000000" stroke-width="2" stroke-linecap="round" stroke-linejoin="round" d="M 188.915 502.216 C 188.917 502.211 204.019 489.891 205.656 453.797 C 195.095 453.431 172.178 453.797 172.175 453.797 C 172.333 489.323 188.914 502.211 188.915 502.216 Z"/>
</g>
<g id="specs_2">
<path fill="#ff00ff" fill-rule="evenodd" stroke="none" d="M 437.147 383.022 C 437.165 383.022 622.853 383.022 622.872 383.022 C 622.872 383.003 622.872 197.315 622.872 197.296 C 622.853 197.296 437.165 197.296 437.147 197.296 C 437.147 197.315 437.147 383.003 437.147 383.022 Z"/>
<path fill="#ff0000" fill-rule="evenodd" stroke="none" d="M 360.000 662.331 C 360.001 662.335 372.416 697.097 372.417 697.101 C 372.416 697.100 360.001 685.548 360.000 685.547 C 359.999 685.548 347.584 697.100 347.583 697.101 C 347.584 697.097 359.999 662.335 360.000 662.331 Z"/>
<path fill="#0000ff" fill-rule="evenodd" stroke="none" d="M 360.000 47.551 C 360.001 47.553 367.212 67.746 367.213 67.748 C 367.212 67.748 360.001 61.038 360.000 61.037 C 359.999 61.038 352.788 67.748 352.787 67.748 C 352.788 67.746 359.999 47.553 360.000 47.551 Z"/>
<path fill="#00ff00" fill-rule="evenodd" stroke="none" d="M 9.983 627.191 C 9.984 627.193 17.298 647.350 17.299 647.352 C 17.298 647.351 10.052 640.677 10.051 640.677 C 10.051 640.677 2.873 647.424 2.873 647.424 C 2.873 647.422 9.983 627.193 9.983 627.191 Z"/>
<path fill="#00ff00" fill-rule="evenodd" stroke="none" d="M 710.017 627.192 C 710.016 627.194 702.702 647.350 702.701 647.352 C 702.702 647.351 709.948 640.677 709.949 640.677 C 709.949 640.677 717.127 647.424 717.128 647.425 C 717.127 647.423 710.017 627.194 710.017 627.192 Z"/>
</g>
</g>
</svg>
