<?xml version="1.0" encoding="utf-8"?>
<!-- Generator: Moho 13.5 build 20210422 -->
<!DOCTYPE svg PUBLIC "-//W3C//DTD SVG 1.1//EN" "http://www.w3.org/Graphics/SVG/1.1/DTD/svg11.dtd">
<svg version="1.1" id="Frame_0" xmlns="http://www.w3.org/2000/svg" xmlns:xlink="http://www.w3.org/1999/xlink" width="720px" height="720px">
<g id="emperor">
<g id="emperor">
<path id="S1_2_2" fill="#ffffff" fill-rule="evenodd" stroke="#000000" stroke-width="2" stroke-linecap="round" stroke-linejoin="round" d="M 138.378 621.528 C 138.422 621.528 581.577 621.528 581.621 621.528 C 581.621 621.532 581.621 659.721 581.621 659.725 C 581.577 659.725 138.422 659.725 138.378 659.725 C 138.378 659.721 138.378 621.532 138.378 621.528 Z"/>
<path id="S1" fill="#ffffff" fill-rule="evenodd" stroke="#000000" stroke-width="2" stroke-linecap="round" stroke-linejoin="round" d="M 229.442 66.479 C 229.469 66.479 490.530 66.479 490.556 66.479 C 490.556 66.516 490.556 433.220 490.556 433.257 C 490.530 433.257 229.469 433.257 229.442 433.257 C 229.442 433.220 229.442 66.516 229.442 66.479 Z"/>
<path id="S2" fill="#ffffff" fill-rule="evenodd" stroke="#000000" stroke-width="2" stroke-linecap="round" stroke-linejoin="round" d="M 269.650 107.717 C 269.668 107.717 450.330 107.717 450.348 107.717 C 450.348 107.743 450.348 361.513 450.348 361.538 C 450.330 361.538 269.668 361.538 269.650 361.538 C 269.650 361.513 269.650 107.743 269.650 107.717 Z"/>
<path id="S4" fill="#ffffff" fill-rule="evenodd" stroke="#000000" stroke-width="2" stroke-linecap="round" stroke-linejoin="round" d="M 496.951 89.596 C 503.080 91.253 507.065 91.923 512.122 93.086 C 517.736 81.549 512.957 67.712 501.419 62.098 C 489.882 56.484 476.045 61.263 470.431 72.801 C 464.817 84.339 469.596 98.175 481.134 103.789 C 474.516 97.381 473.214 85.546 480.754 80.256 C 491.588 72.657 499.173 81.904 496.951 89.596 Z"/>
<path id="S5" fill="#ffffff" fill-rule="evenodd" stroke="#000000" stroke-width="2" stroke-linecap="round" stroke-linejoin="round" d="M 223.646 89.596 C 217.517 91.253 213.532 91.923 208.475 93.086 C 202.861 81.549 207.640 67.712 219.178 62.098 C 230.716 56.484 244.552 61.263 250.166 72.801 C 255.780 84.339 251.001 98.175 239.464 103.789 C 246.081 97.381 247.384 85.546 239.843 80.256 C 229.010 72.657 221.425 81.904 223.646 89.596 Z"/>
<path id="S6" fill="#ffffff" fill-rule="evenodd" stroke="#000000" stroke-width="2" stroke-linecap="round" stroke-linejoin="round" d="M 491.257 135.468 C 491.258 135.463 467.004 97.256 497.388 84.605 C 501.975 87.317 508.324 90.966 512.166 92.768 C 502.851 124.395 491.259 135.464 491.257 135.468 Z"/>
<path id="S7" fill="#ffffff" fill-rule="evenodd" stroke="#000000" stroke-width="2" stroke-linecap="round" stroke-linejoin="round" d="M 229.340 135.468 C 229.340 135.463 253.593 97.256 223.209 84.605 C 218.622 87.317 212.274 90.966 208.431 92.768 C 217.747 124.395 229.338 135.464 229.340 135.468 Z"/>
<path id="S8" fill="#000000" fill-rule="evenodd" stroke="#ffffff" stroke-width="2" stroke-linecap="round" stroke-linejoin="round" d="M 215.502 425.414 C 215.531 425.414 504.467 425.414 504.496 425.414 C 504.496 425.434 504.496 626.880 504.496 626.900 C 504.467 626.900 215.531 626.900 215.502 626.900 C 215.502 626.880 215.502 425.434 215.502 425.414 Z"/>
<path id="S9" fill="#ffffff" fill-rule="evenodd" stroke="#000000" stroke-width="2" stroke-linecap="round" stroke-linejoin="round" d="M 374.256 512.623 C 429.837 511.534 472.073 437.912 475.098 452.982 C 451.697 498.970 395.597 609.218 395.590 609.233 C 395.594 609.236 436.704 639.140 436.708 639.143 C 436.701 639.143 364.427 639.143 364.419 639.143 C 364.420 639.130 374.255 512.638 374.256 512.623 M 345.743 512.623 C 292.663 513.403 253.956 443.440 244.900 452.982 C 270.672 503.629 324.401 609.218 324.409 609.233 C 324.405 609.236 283.294 639.140 283.290 639.143 C 283.297 639.143 355.572 639.143 355.579 639.143 C 355.578 639.130 345.744 512.636 345.743 512.623 Z"/>
<path id="S38" fill="#ffffff" fill-rule="evenodd" stroke="#000000" stroke-width="2" stroke-linecap="round" stroke-linejoin="round" d="M 236.884 303.102 C 366.092 530.180 485.792 297.678 531.478 439.134 C 523.178 434.265 508.138 426.038 496.458 426.295 C 447.741 427.369 445.063 502.298 360.502 501.934 C 276.122 501.571 271.715 434.690 223.541 430.923 C 212.309 430.045 188.524 439.133 188.521 439.134 C 188.525 439.121 236.879 303.115 236.884 303.102 Z"/>
<path fill="none" stroke="#000000" stroke-width="1" stroke-linecap="butt" stroke-linejoin="round" d="M 236.884 303.102 C 366.092 530.180 485.792 297.678 531.478 439.134 "/>
<path id="S39" fill="#000000" fill-rule="evenodd" stroke="#ffffff" stroke-width="2" stroke-linecap="round" stroke-linejoin="round" d="M 236.884 303.102 C 366.092 530.180 485.792 297.678 531.478 439.134 C 533.408 423.866 456.347 227.811 456.340 227.790 C 456.320 227.790 263.678 227.790 263.659 227.790 C 263.656 227.798 236.886 303.094 236.884 303.102 Z"/>
<path id="S29" fill="#ffffff" fill-rule="evenodd" stroke="#000000" stroke-width="2" stroke-linecap="round" stroke-linejoin="round" d="M 319.611 160.036 C 319.619 160.036 400.380 160.036 400.388 160.036 C 400.389 160.046 417.223 254.749 417.224 254.758 C 417.213 254.758 302.786 254.758 302.774 254.758 C 302.776 254.749 319.609 160.046 319.611 160.036 Z"/>
<path id="S30" fill="#ffffff" fill-rule="evenodd" stroke="#000000" stroke-width="2" stroke-linecap="round" stroke-linejoin="round" d="M 392.522 224.084 C 387.335 342.599 360.003 383.587 359.999 383.603 C 359.996 383.587 332.664 342.599 327.477 224.091 C 344.858 198.701 375.241 198.619 392.522 224.084 Z"/>
<path id="S32" fill="#ffffff" fill-rule="evenodd" stroke="#000000" stroke-width="2" stroke-linecap="round" stroke-linejoin="round" d="M 359.999 87.604 C 360.004 87.608 405.345 107.851 405.345 132.950 C 405.345 158.049 385.098 178.296 359.999 178.296 C 334.901 178.296 314.653 158.049 314.653 132.950 C 314.653 107.851 359.995 87.608 359.999 87.604 Z"/>
<path fill="none" stroke="#000000" stroke-width="1" stroke-linecap="butt" stroke-linejoin="round" d="M 327.477 224.091 C 344.858 198.701 375.241 198.619 392.522 224.084 "/>
<path id="S31" fill="#000000" fill-rule="evenodd" stroke="#000000" stroke-width="2" stroke-linecap="round" stroke-linejoin="round" d="M 327.477 224.091 C 344.858 198.701 375.241 198.619 392.522 224.084 C 393.219 212.763 393.625 198.710 393.808 183.494 C 386.131 176.496 372.759 173.346 363.537 183.542 C 363.517 193.219 363.514 212.401 363.514 212.404 C 363.514 212.404 356.485 212.404 356.484 212.404 C 356.484 212.401 356.484 193.219 356.485 183.541 C 347.272 172.992 333.963 178.247 326.191 183.499 C 326.374 198.713 326.780 212.766 327.477 224.091 Z"/>
<path fill="none" stroke="#ffffff" stroke-width="1" stroke-linecap="butt" stroke-linejoin="round" d="M 363.537 183.542 C 372.759 173.346 386.131 176.496 393.808 183.494 "/>
<path fill="none" stroke="#ffffff" stroke-width="1" stroke-linecap="butt" stroke-linejoin="round" d="M 326.191 183.499 C 333.963 178.247 347.272 172.992 356.485 183.541 "/>
<path fill="none" stroke="#ffffff" stroke-width="1" stroke-linecap="butt" stroke-linejoin="round" d="M 356.485 183.541 C 356.484 193.219 356.484 212.401 356.484 212.404 "/>
<path fill="none" stroke="#ffffff" stroke-width="1" stroke-linecap="butt" stroke-linejoin="round" d="M 356.484 212.404 C 356.485 212.404 363.514 212.404 363.514 212.404 "/>
<path fill="none" stroke="#ffffff" stroke-width="1" stroke-linecap="butt" stroke-linejoin="round" d="M 363.514 212.404 C 363.514 212.401 363.517 193.219 363.537 183.542 "/>
<path id="S35" fill="#ffffff" fill-rule="evenodd" stroke="#000000" stroke-width="2" stroke-linecap="round" stroke-linejoin="round" d="M 363.537 183.542 C 372.759 173.346 386.131 176.496 393.808 183.494 C 393.942 176.092 393.983 169.506 393.983 162.709 C 376.991 162.709 346.985 162.709 326.016 162.709 C 326.016 169.506 326.057 176.092 326.191 183.499 C 333.963 178.247 347.272 172.992 356.485 183.541 C 356.484 193.219 356.484 212.401 356.484 212.404 C 356.485 212.404 363.514 212.404 363.514 212.404 C 363.514 212.401 363.517 193.219 363.537 183.542 Z"/>
<path id="S33" fill="#ffffff" fill-rule="evenodd" stroke="#000000" stroke-width="2" stroke-linecap="round" stroke-linejoin="round" d="M 317.520 167.515 C 317.519 167.512 310.815 133.535 310.815 133.532 C 310.815 133.531 317.650 127.907 320.651 127.907 C 323.653 127.907 330.488 133.531 330.488 133.532 C 330.489 133.535 334.511 167.512 334.512 167.515 C 334.510 167.515 317.521 167.515 317.520 167.515 M 379.673 127.907 C 382.675 127.907 389.509 133.531 389.510 133.532 C 389.510 133.535 385.487 167.512 385.487 167.515 C 385.485 167.515 368.497 167.515 368.495 167.515 C 368.495 167.512 369.836 133.535 369.836 133.532 C 369.837 133.531 376.671 127.907 379.673 127.907 M 385.487 167.515 C 385.487 167.512 389.510 133.535 389.510 133.532 C 389.511 133.531 396.345 127.907 399.347 127.907 C 402.349 127.907 409.183 133.531 409.184 133.532 C 409.183 133.535 402.480 167.512 402.479 167.515 C 402.477 167.515 385.489 167.515 385.487 167.515 M 340.325 127.907 C 343.327 127.907 350.161 133.531 350.162 133.532 C 350.163 133.535 351.503 167.512 351.503 167.515 C 351.502 167.515 334.513 167.515 334.512 167.515 C 334.511 167.512 330.489 133.535 330.488 133.532 C 330.490 133.531 337.324 127.907 340.325 127.907 M 351.503 167.515 C 351.503 167.512 350.163 133.535 350.162 133.532 C 350.163 133.531 356.997 127.907 359.999 127.907 C 363.001 127.907 369.835 133.531 369.836 133.532 C 369.836 133.535 368.495 167.512 368.495 167.515 C 368.494 167.515 351.505 167.515 351.503 167.515 Z"/>
<path id="S34" fill="#000000" fill-rule="evenodd" stroke="none" d="M 327.835 139.467 C 327.835 135.868 324.932 132.964 321.332 132.964 C 317.733 132.964 314.829 135.868 314.829 139.467 C 314.829 143.066 317.733 145.970 321.332 145.970 C 324.932 145.970 327.835 143.066 327.835 139.467 M 347.169 139.467 C 347.169 135.868 344.265 132.964 340.666 132.964 C 337.066 132.964 334.163 135.868 334.163 139.467 C 334.163 143.066 337.066 145.970 340.666 145.970 C 344.265 145.970 347.169 143.066 347.169 139.467 M 392.163 139.467 C 392.163 135.868 395.067 132.964 398.666 132.964 C 402.266 132.964 405.169 135.868 405.169 139.467 C 405.169 143.066 402.266 145.970 398.666 145.970 C 395.067 145.970 392.163 143.066 392.163 139.467 M 372.830 139.467 C 372.830 135.868 375.733 132.964 379.333 132.964 C 382.932 132.964 385.836 135.868 385.836 139.467 C 385.836 143.066 382.932 145.970 379.333 145.970 C 375.733 145.970 372.830 143.066 372.830 139.467 M 353.496 139.467 C 353.496 135.868 356.400 132.964 359.999 132.964 C 363.599 132.964 366.502 135.868 366.502 139.467 C 366.502 143.066 363.599 145.970 359.999 145.970 C 356.400 145.970 353.496 143.066 353.496 139.467 Z"/>
<path id="S36" fill="#ffffff" fill-rule="evenodd" stroke="none" d="M 365.509 190.205 C 365.510 190.205 372.742 183.467 378.454 183.467 C 384.165 183.467 391.397 190.205 391.398 190.205 C 391.397 190.206 384.165 196.944 378.454 196.944 C 372.742 196.944 365.510 190.206 365.509 190.205 M 328.600 190.205 C 328.601 190.205 335.833 183.467 341.544 183.467 C 347.256 183.467 354.488 190.205 354.489 190.205 C 354.488 190.206 347.256 196.944 341.544 196.944 C 335.833 196.944 328.601 190.206 328.600 190.205 Z"/>
<path id="S15" fill="#000000" fill-rule="evenodd" stroke="#ffffff" stroke-width="2" stroke-linecap="round" stroke-linejoin="round" d="M 562.502 379.068 C 562.501 379.068 552.107 379.119 546.909 379.144 C 546.909 379.146 546.909 396.134 546.909 396.136 C 552.107 390.447 562.501 379.070 562.502 379.068 Z"/>
<path id="S16" fill="#ffffff" fill-rule="evenodd" stroke="#000000" stroke-width="2" stroke-linecap="round" stroke-linejoin="round" d="M 529.797 320.795 C 549.487 320.795 565.370 336.678 565.370 356.368 C 565.370 376.057 549.487 391.941 529.797 391.941 C 510.108 391.941 494.224 376.057 494.224 356.368 C 494.224 336.678 510.108 320.795 529.797 320.795 Z"/>
<path id="S17" fill="#000000" fill-rule="evenodd" stroke="#ffffff" stroke-width="2" stroke-linecap="round" stroke-linejoin="round" d="M 512.926 396.136 C 512.926 396.133 512.926 362.156 512.926 362.152 C 512.926 362.152 521.421 362.152 521.422 362.152 C 521.422 373.480 521.422 384.808 521.422 396.136 C 521.421 396.136 512.926 396.136 512.926 396.136 Z"/>
<path fill="none" stroke="#000000" stroke-width="1" stroke-linecap="butt" stroke-linejoin="round" d="M 521.422 362.152 C 521.422 373.480 521.422 384.808 521.422 396.136 "/>
<path id="S18" fill="#000000" fill-rule="evenodd" stroke="#ffffff" stroke-width="2" stroke-linecap="round" stroke-linejoin="round" d="M 521.422 362.152 C 521.422 373.480 521.422 384.808 521.422 396.136 C 521.422 396.136 529.916 396.136 529.917 396.136 C 529.917 384.808 529.917 373.480 529.917 362.152 C 529.917 362.152 521.422 362.152 521.422 362.152 Z"/>
<path fill="none" stroke="#000000" stroke-width="1" stroke-linecap="butt" stroke-linejoin="round" d="M 529.917 362.152 C 529.917 373.480 529.917 384.808 529.917 396.136 "/>
<path id="S19" fill="#000000" fill-rule="evenodd" stroke="#ffffff" stroke-width="2" stroke-linecap="round" stroke-linejoin="round" d="M 529.917 362.152 C 529.917 373.480 529.917 384.808 529.917 396.136 C 529.918 396.136 538.412 396.136 538.413 396.136 C 538.413 384.808 538.413 373.480 538.413 362.152 C 538.412 362.152 529.918 362.152 529.917 362.152 Z"/>
<path fill="none" stroke="#000000" stroke-width="1" stroke-linecap="butt" stroke-linejoin="round" d="M 538.413 362.152 C 538.413 373.480 538.413 384.808 538.413 396.136 "/>
<path fill="none" stroke="#000000" stroke-width="1" stroke-linecap="butt" stroke-linejoin="round" d="M 546.909 396.136 C 546.909 396.134 546.909 379.146 546.909 379.144 "/>
<path id="S20" fill="#000000" fill-rule="evenodd" stroke="#ffffff" stroke-width="2" stroke-linecap="round" stroke-linejoin="round" d="M 538.413 362.152 C 538.413 373.480 538.413 384.808 538.413 396.136 C 538.414 396.136 546.908 396.136 546.909 396.136 C 546.909 396.134 546.909 379.146 546.909 379.144 C 546.909 379.143 546.909 362.154 546.909 362.152 C 546.908 362.152 538.414 362.152 538.413 362.152 Z"/>
<path id="S37" fill="#ffffff" fill-rule="evenodd" stroke="#000000" stroke-width="2" stroke-linecap="round" stroke-linejoin="round" d="M 490.374 410.303 C 490.382 410.303 569.933 410.303 569.941 410.303 C 569.941 410.326 569.941 640.644 569.941 640.667 C 569.933 640.667 490.382 640.667 490.374 640.667 C 490.374 640.644 490.374 410.326 490.374 410.303 Z"/>
<path id="S12" fill="#ffffff" fill-rule="evenodd" stroke="#000000" stroke-width="2" stroke-linecap="round" stroke-linejoin="round" d="M 546.070 426.292 C 539.834 425.100 535.958 423.959 530.902 422.793 C 530.902 409.962 541.253 399.611 554.084 399.611 C 566.915 399.611 577.266 409.962 577.266 422.793 C 577.266 435.624 566.915 445.975 554.084 445.975 C 562.838 443.108 569.188 433.036 564.721 424.980 C 558.305 413.406 547.438 418.403 546.070 426.292 M 515.733 426.292 C 521.990 425.096 525.845 423.959 530.902 422.793 C 530.902 409.962 520.551 399.611 507.720 399.611 C 494.889 399.611 484.538 409.962 484.538 422.793 C 484.538 435.624 494.889 445.975 507.720 445.975 C 498.966 443.108 492.616 433.036 497.082 424.980 C 503.499 413.406 514.361 418.376 515.733 426.292 Z"/>
<path id="S13" fill="#ffffff" fill-rule="evenodd" stroke="#000000" stroke-width="2" stroke-linecap="round" stroke-linejoin="round" d="M 531.120 470.032 C 531.122 470.027 546.224 457.707 547.861 421.613 C 537.300 421.247 514.383 421.613 514.380 421.613 C 514.538 457.139 531.119 470.027 531.120 470.032 Z"/>
<path id="S3" fill="#ffffff" fill-rule="evenodd" stroke="#000000" stroke-width="2" stroke-linecap="round" stroke-linejoin="round" d="M 150.058 410.303 C 150.066 410.303 229.617 410.303 229.625 410.303 C 229.625 410.326 229.625 640.644 229.625 640.667 C 229.617 640.667 150.066 640.667 150.058 640.667 C 150.058 640.644 150.058 410.326 150.058 410.303 Z"/>
<path id="S11" fill="#ffffff" fill-rule="evenodd" stroke="#000000" stroke-width="2" stroke-linecap="round" stroke-linejoin="round" d="M 203.866 426.292 C 197.630 425.100 193.753 423.959 188.697 422.793 C 188.697 409.962 199.048 399.611 211.879 399.611 C 224.710 399.611 235.061 409.962 235.061 422.793 C 235.061 435.624 224.710 445.975 211.879 445.975 C 220.633 443.108 226.983 433.036 222.516 424.980 C 216.100 413.406 205.233 418.403 203.866 426.292 M 173.528 426.292 C 179.764 425.100 183.641 423.959 188.697 422.793 C 188.697 409.962 178.346 399.611 165.515 399.611 C 152.684 399.611 142.333 409.962 142.333 422.793 C 142.333 435.624 152.684 445.975 165.515 445.975 C 156.761 443.108 150.411 433.036 154.877 424.980 C 161.294 413.406 172.160 418.403 173.528 426.292 Z"/>
<path id="S14" fill="#ffffff" fill-rule="evenodd" stroke="#000000" stroke-width="2" stroke-linecap="round" stroke-linejoin="round" d="M 188.915 470.032 C 188.917 470.027 204.019 457.707 205.656 421.613 C 195.095 421.247 172.178 421.613 172.175 421.613 C 172.333 457.139 188.914 470.027 188.915 470.032 Z"/>
<path id="S21" fill="#ffffff" fill-rule="evenodd" stroke="#000000" stroke-width="2" stroke-linecap="round" stroke-linejoin="round" d="M 180.966 367.784 C 180.966 367.770 183.447 278.003 184.756 230.646 C 175.209 231.030 166.551 232.938 163.921 236.389 C 163.921 232.290 163.921 222.790 163.921 222.789 C 163.923 222.789 214.921 222.789 214.923 222.789 C 214.923 222.790 214.923 236.388 214.923 236.389 C 211.960 233.151 203.556 231.233 194.087 230.643 C 195.396 278.002 197.877 367.770 197.878 367.784 C 197.876 367.784 180.967 367.784 180.966 367.784 M 174.548 197.602 C 174.548 189.370 181.189 182.728 189.422 182.728 C 197.654 182.728 204.296 189.370 204.296 197.602 C 204.296 205.835 197.654 212.476 189.422 212.476 C 181.189 212.476 174.548 205.835 174.548 197.602 M 164.478 197.602 C 164.478 183.796 175.615 172.658 189.422 172.658 C 203.228 172.658 214.366 183.796 214.366 197.602 C 214.366 211.409 203.228 222.547 189.422 222.547 C 175.615 222.547 164.478 211.409 164.478 197.602 Z"/>
<path id="S22" fill="#000000" fill-rule="evenodd" stroke="#ffffff" stroke-width="2" stroke-linecap="round" stroke-linejoin="round" d="M 167.076 369.948 C 174.744 369.948 182.413 369.948 190.081 369.948 C 190.081 369.947 190.081 364.284 190.081 361.452 C 190.080 361.452 167.077 361.452 167.076 361.452 C 167.076 361.453 167.076 369.947 167.076 369.948 Z"/>
<path fill="none" stroke="#000000" stroke-width="1" stroke-linecap="butt" stroke-linejoin="round" d="M 190.081 369.948 C 182.413 369.948 174.744 369.948 167.076 369.948 "/>
<path id="S23" fill="#000000" fill-rule="evenodd" stroke="#ffffff" stroke-width="2" stroke-linecap="round" stroke-linejoin="round" d="M 167.076 378.444 C 174.744 378.444 182.413 378.444 190.081 378.444 C 190.081 378.443 190.081 369.949 190.081 369.948 C 182.413 369.948 174.744 369.948 167.076 369.948 C 167.076 369.949 167.076 378.443 167.076 378.444 Z"/>
<path fill="none" stroke="#000000" stroke-width="1" stroke-linecap="butt" stroke-linejoin="round" d="M 190.081 378.444 C 182.413 378.444 174.744 378.444 167.076 378.444 "/>
<path id="S24" fill="#000000" fill-rule="evenodd" stroke="#ffffff" stroke-width="2" stroke-linecap="round" stroke-linejoin="round" d="M 167.076 386.940 C 174.744 386.940 190.079 386.940 190.081 386.940 C 190.081 386.939 190.081 378.445 190.081 378.444 C 182.413 378.444 174.744 378.444 167.076 378.444 C 167.076 378.445 167.076 386.939 167.076 386.940 Z"/>
<path fill="none" stroke="#000000" stroke-width="1" stroke-linecap="butt" stroke-linejoin="round" d="M 167.076 386.940 C 174.744 386.940 190.079 386.940 190.081 386.940 "/>
<path id="S25" fill="#000000" fill-rule="evenodd" stroke="#ffffff" stroke-width="2" stroke-linecap="round" stroke-linejoin="round" d="M 190.081 386.940 C 190.081 386.941 190.081 392.604 190.081 395.436 C 190.079 395.436 167.078 395.436 167.076 395.436 C 167.076 395.435 167.076 386.941 167.076 386.940 C 174.744 386.940 190.079 386.940 190.081 386.940 Z"/>
<path fill="none" stroke="#000000" stroke-width="1" stroke-linecap="butt" stroke-linejoin="round" d="M 190.081 386.940 C 190.081 386.941 190.081 392.604 190.081 395.436 "/>
<path fill="none" stroke="#000000" stroke-width="1" stroke-linecap="butt" stroke-linejoin="round" d="M 190.081 361.452 C 190.081 364.284 190.081 369.947 190.081 369.948 "/>
<path fill="none" stroke="#000000" stroke-width="1" stroke-linecap="butt" stroke-linejoin="round" d="M 190.081 369.948 C 190.081 369.949 190.081 378.443 190.081 378.444 "/>
<path fill="none" stroke="#000000" stroke-width="1" stroke-linecap="butt" stroke-linejoin="round" d="M 190.081 378.444 C 190.081 378.445 190.081 386.939 190.081 386.940 "/>
<path id="S26" fill="#000000" fill-rule="evenodd" stroke="none" d="M 190.081 386.940 C 190.081 386.941 190.081 392.604 190.081 395.436 C 190.083 395.436 213.084 395.436 213.086 395.436 C 213.086 395.432 213.086 361.455 213.086 361.452 C 213.085 361.452 190.082 361.452 190.081 361.452 C 190.081 364.284 190.081 369.947 190.081 369.948 C 190.081 369.949 190.081 378.443 190.081 378.444 C 190.081 378.445 190.081 386.939 190.081 386.940 Z"/>
<path id="S26" fill="none" stroke="#ffffff" stroke-width="2" stroke-linecap="round" stroke-linejoin="round" d="M 201.300 386.931 C 201.300 386.929 201.300 376.580 201.300 371.405 M 190.081 386.940 C 190.082 386.940 201.299 386.931 201.300 386.931 M 190.081 386.940 C 190.081 386.941 190.081 392.604 190.081 395.436 C 190.083 395.436 213.084 395.436 213.086 395.436 C 213.086 395.432 213.086 361.455 213.086 361.452 C 213.085 361.452 190.082 361.452 190.081 361.452 C 190.081 364.284 190.081 369.947 190.081 369.948 C 190.081 369.949 190.081 378.443 190.081 378.444 C 190.081 378.445 190.081 386.939 190.081 386.940 "/>
<path id="S6_2" fill="none" stroke="#000000" stroke-width="2" stroke-linecap="round" stroke-linejoin="round" d="M 500.656 95.549 C 500.655 95.550 493.806 100.201 492.742 104.866 C 491.678 109.531 495.835 116.692 495.835 116.693 C 495.836 116.693 502.685 112.041 503.749 107.376 C 504.813 102.712 500.657 95.550 500.656 95.549 "/>
<path id="S7_2" fill="none" stroke="#000000" stroke-width="2" stroke-linecap="round" stroke-linejoin="round" d="M 219.941 95.549 C 219.942 95.550 226.792 100.201 227.855 104.866 C 228.919 109.531 224.763 116.692 224.763 116.693 C 224.762 116.693 217.912 112.041 216.848 107.376 C 215.785 102.712 219.941 95.550 219.941 95.549 "/>
<path id="S40" fill="#000000" fill-rule="evenodd" stroke="none" d="M 360.000 220.758 C 365.712 220.758 372.943 227.496 372.944 227.497 C 372.943 227.498 347.057 227.498 347.055 227.497 C 347.057 227.496 354.288 220.758 360.000 220.758 Z"/>
</g>
<g id="specs_2">
<path fill="#ff00ff" fill-rule="evenodd" stroke="none" d="M 437.147 359.908 C 437.165 359.908 622.853 359.908 622.872 359.908 C 622.872 359.889 622.872 174.201 622.872 174.182 C 622.853 174.182 437.165 174.182 437.147 174.182 C 437.147 174.201 437.147 359.889 437.147 359.908 Z"/>
<path fill="#ff0000" fill-rule="evenodd" stroke="none" d="M 360.000 662.331 C 360.001 662.335 372.416 697.097 372.417 697.101 C 372.416 697.100 360.001 685.548 360.000 685.547 C 359.999 685.548 347.584 697.100 347.583 697.101 C 347.584 697.097 359.999 662.335 360.000 662.331 Z"/>
<path fill="#0000ff" fill-rule="evenodd" stroke="none" d="M 360.000 47.551 C 360.001 47.553 367.212 67.746 367.213 67.748 C 367.212 67.748 360.001 61.038 360.000 61.037 C 359.999 61.038 352.788 67.748 352.787 67.748 C 352.788 67.746 359.999 47.553 360.000 47.551 Z"/>
<path fill="#00ff00" fill-rule="evenodd" stroke="none" d="M 41.283 627.191 C 41.284 627.193 48.598 647.350 48.599 647.352 C 48.598 647.351 41.352 640.678 41.351 640.677 C 41.350 640.678 34.173 647.424 34.172 647.424 C 34.173 647.422 41.282 627.193 41.283 627.191 Z"/>
<path fill="#00ff00" fill-rule="evenodd" stroke="none" d="M 678.717 627.192 C 678.716 627.194 671.402 647.350 671.401 647.352 C 671.402 647.351 678.648 640.678 678.649 640.677 C 678.650 640.678 685.827 647.424 685.828 647.425 C 685.827 647.423 678.718 627.194 678.717 627.192 Z"/>
</g>
</g>
</svg>
