<?xml version="1.0" encoding="utf-8"?>
<!-- Generator: Moho 13.5 build 20210422 -->
<!DOCTYPE svg PUBLIC "-//W3C//DTD SVG 1.1//EN" "http://www.w3.org/Graphics/SVG/1.1/DTD/svg11.dtd">
<svg version="1.1" id="Frame_0" xmlns="http://www.w3.org/2000/svg" xmlns:xlink="http://www.w3.org/1999/xlink" width="720px" height="720px">
<g id="empress">
<g id="empress">
<path id="S1" fill="#000000" fill-rule="evenodd" stroke="#ffffff" stroke-width="4" stroke-linecap="round" stroke-linejoin="round" d="M 264.137 116.886 C 343.100 115.305 317.001 149.129 375.706 179.646 C 405.590 195.182 380.683 226.784 415.795 250.839 C 458.310 279.964 414.376 328.207 434.700 356.459 C 488.040 430.603 390.869 513.443 342.112 531.598 C 267.997 559.194 176.962 532.079 113.909 485.800 C 86.592 465.751 36.551 429.508 87.418 373.314 C 113.408 344.601 43.517 322.586 104.691 270.690 C 132.576 247.034 97.376 206.455 143.115 180.212 C 205.823 144.231 168.426 118.803 264.137 116.886 Z"/>
<path id="S1_2" fill="none" stroke="#ffffff" stroke-width="4" stroke-linecap="round" stroke-linejoin="round" d="M 159.664 186.813 C 214.818 153.483 177.516 125.675 262.769 122.067 C 326.723 119.360 308.651 155.040 360.840 185.237 C 394.592 204.766 365.081 231.895 401.126 257.561 C 439.125 284.619 399.840 327.594 418.238 353.168 C 466.521 420.282 378.337 494.676 334.428 511.702 C 269.100 537.033 186.883 518.473 131.096 477.369 C 107.774 460.185 60.168 426.583 103.880 373.604 C 127.402 345.096 60.794 324.648 119.516 275.530 C 147.302 252.288 114.955 213.831 159.664 186.813 "/>
<path id="S1_2_2" fill="none" stroke="#ffffff" stroke-width="4" stroke-linecap="round" stroke-linejoin="round" d="M 172.138 195.003 C 221.954 160.882 185.028 130.185 264.967 128.700 C 318.285 127.710 300.079 160.215 341.695 188.345 C 386.345 218.525 352.430 234.974 384.368 261.290 C 417.682 288.739 385.617 324.728 400.715 349.664 C 449.157 429.671 332.462 513.518 273.056 507.322 C 112.215 490.547 82.523 417.195 120.261 376.052 C 147.328 346.543 82.119 329.613 138.723 281.253 C 164.885 258.902 131.201 223.044 172.138 195.003 "/>
<path id="S1_2_2_2" fill="none" stroke="#ffffff" stroke-width="4" stroke-linecap="round" stroke-linejoin="round" d="M 183.077 203.244 C 229.933 165.057 204.329 136.638 265.610 133.410 C 305.156 131.326 294.011 170.894 341.226 203.642 C 363.709 219.236 339.083 242.966 366.022 262.454 C 396.996 284.862 371.068 318.168 385.366 339.666 C 433.473 411.996 324.149 492.018 268.841 487.722 C 160.317 479.293 95.807 431.832 135.346 380.405 C 168.783 336.913 105.564 329.626 156.244 285.185 C 180.669 263.767 147.222 232.465 183.077 203.244 "/>
<path id="S1_2_2_2_2" fill="none" stroke="#ffffff" stroke-width="4" stroke-linecap="round" stroke-linejoin="round" d="M 197.400 209.615 C 245.016 168.197 214.345 151.321 265.849 150.000 C 305.203 148.992 277.286 171.768 328.085 210.495 C 348.372 225.960 322.484 249.262 347.984 268.514 C 376.619 290.132 354.635 320.396 368.312 340.397 C 410.548 402.160 315.725 467.982 267.941 467.927 C 171.664 467.816 121.567 413.955 157.539 371.754 C 177.412 348.439 119.761 327.169 171.826 290.028 C 202.961 267.818 163.246 239.323 197.400 209.615 "/>
<path id="S2" fill="#ffffff" fill-rule="evenodd" stroke="#000000" stroke-width="4" stroke-linecap="round" stroke-linejoin="round" d="M 508.118 226.774 C 508.111 226.783 440.823 312.729 440.816 312.738 C 440.804 312.731 386.276 249.820 323.294 241.721 C 279.247 236.057 201.757 244.633 163.008 296.133 C 121.077 351.864 148.316 537.602 242.873 580.810 C 323.995 617.878 384.443 583.805 442.777 549.049 C 520.260 657.727 669.442 664.315 689.718 667.413 C 664.078 639.963 525.566 502.965 487.383 472.436 C 463.698 578.861 519.137 671.787 519.140 671.807 C 519.142 671.781 586.842 435.993 540.861 412.666 C 507.742 395.865 395.469 437.572 386.729 435.086 C 350.420 424.757 350.645 371.469 359.478 342.606 C 383.670 358.963 424.380 374.763 450.693 367.238 C 504.662 351.804 510.914 254.810 510.920 254.798 C 510.925 254.799 554.820 262.271 554.824 262.272 C 554.824 262.271 555.058 252.231 555.058 252.230 C 555.058 252.229 555.291 242.189 555.291 242.188 C 555.291 242.187 555.525 232.147 555.525 232.146 C 555.525 232.145 555.758 222.105 555.758 222.104 C 555.756 222.104 531.942 224.439 531.938 224.439 C 531.935 224.440 508.120 226.774 508.118 226.774 Z"/>
<path id="S9" fill="none" stroke="#000000" stroke-width="4" stroke-linecap="round" stroke-linejoin="round" d="M 555.058 252.230 C 547.595 251.599 540.133 250.969 532.671 250.339 M 555.291 242.188 C 547.439 242.511 539.586 242.834 531.734 243.157 M 555.525 232.146 C 547.594 233.005 539.664 233.865 531.734 234.725 M 531.938 224.439 C 531.938 224.442 531.171 238.969 531.734 253.462 C 519.749 251.002 521.117 234.102 521.116 234.100 M 555.291 242.188 C 555.291 242.187 555.525 232.147 555.525 232.146 M 555.058 252.230 C 555.058 252.229 555.291 242.189 555.291 242.188 "/>
<path id="S14" fill="#ffffff" fill-rule="evenodd" stroke="#000000" stroke-width="4" stroke-linecap="round" stroke-linejoin="round" d="M 258.882 121.419 C 287.319 121.419 310.259 144.359 310.259 172.796 C 310.259 201.233 287.319 224.173 258.882 224.173 C 230.445 224.173 207.505 201.233 207.505 172.796 C 207.505 144.359 230.445 121.419 258.882 121.419 Z"/>
<path id="S11" fill="#ffffff" fill-rule="evenodd" stroke="#000000" stroke-width="4" stroke-linecap="round" stroke-linejoin="round" d="M 117.630 99.580 C 117.632 99.581 162.381 137.199 162.384 137.202 C 162.382 137.196 142.322 81.156 142.320 81.150 C 142.324 81.155 182.008 130.239 182.012 130.244 C 182.011 130.237 167.747 66.817 167.745 66.811 C 167.748 66.816 199.467 122.014 199.471 122.019 C 199.470 122.013 193.118 55.781 193.118 55.775 C 193.120 55.781 219.211 114.860 219.213 114.866 C 219.213 114.860 218.649 48.772 218.649 48.765 C 218.651 48.771 239.289 109.225 239.291 109.231 C 239.292 109.224 246.961 43.476 246.962 43.469 C 246.963 43.475 259.309 106.734 259.311 106.740 C 259.312 106.734 275.823 42.880 275.825 42.873 C 275.825 42.880 281.381 107.063 281.382 107.069 C 281.384 107.063 304.498 46.549 304.501 46.543 C 304.500 46.550 302.076 108.914 302.076 108.921 C 302.079 108.915 332.729 53.986 332.732 53.980 C 332.731 53.986 320.568 115.949 320.566 115.956 C 320.570 115.951 356.586 64.821 356.589 64.816 C 356.587 64.822 337.025 124.485 337.023 124.491 C 337.027 124.487 377.819 79.517 377.823 79.513 C 377.820 79.518 353.898 134.298 353.895 134.304 C 353.899 134.300 397.001 99.732 397.005 99.729 C 397.001 99.736 357.080 158.948 355.331 164.865 C 299.098 127.701 225.778 126.164 160.629 167.653 C 159.056 163.875 117.634 99.587 117.630 99.580 Z"/>
<path id="S15" fill="#ffffff" fill-rule="evenodd" stroke="none" d="M 264.921 228.029 C 267.953 228.029 270.398 230.475 270.398 233.507 C 270.398 236.539 267.953 238.984 264.921 238.985 C 261.889 238.985 259.443 236.539 259.443 233.507 C 259.443 230.475 261.889 228.029 264.921 228.029 Z"/>
<path id="S15_2" fill="#ffffff" fill-rule="evenodd" stroke="none" d="M 280.317 226.108 C 283.349 226.108 285.795 228.554 285.795 231.586 C 285.795 234.618 283.349 237.064 280.317 237.064 C 277.285 237.064 274.840 234.618 274.840 231.586 C 274.840 228.554 277.285 226.108 280.317 226.108 Z"/>
<path id="S15_2_2" fill="#ffffff" fill-rule="evenodd" stroke="none" d="M 295.981 225.574 C 299.013 225.574 301.459 228.020 301.459 231.052 C 301.459 234.084 299.013 236.529 295.981 236.529 C 292.949 236.529 290.503 234.084 290.503 231.052 C 290.503 228.020 292.949 225.574 295.981 225.574 Z"/>
<path id="S15_2_3" fill="#ffffff" fill-rule="evenodd" stroke="none" d="M 249.270 229.632 C 252.302 229.633 254.748 232.078 254.748 235.110 C 254.748 238.142 252.302 240.588 249.270 240.588 C 246.238 240.588 243.792 238.142 243.792 235.110 C 243.792 232.078 246.238 229.632 249.270 229.632 Z"/>
<path id="S15_2_4" fill="#ffffff" fill-rule="evenodd" stroke="none" d="M 233.989 231.987 C 237.021 231.987 239.467 234.432 239.467 237.464 C 239.467 240.496 237.021 242.942 233.989 242.942 C 230.957 242.942 228.511 240.496 228.511 237.464 C 228.511 234.432 230.957 231.987 233.989 231.987 Z"/>
<path id="S8" fill="#ffffff" fill-rule="evenodd" stroke="#000000" stroke-width="4" stroke-linecap="round" stroke-linejoin="round" d="M 544.005 413.262 C 586.426 432.170 533.824 659.689 517.543 702.189 C 497.736 657.924 458.723 586.516 466.984 487.582 C 471.373 435.016 498.025 392.769 544.005 413.262 Z"/>
<path id="S19" fill="#ffffff" fill-rule="evenodd" stroke="#000000" stroke-width="4" stroke-linecap="round" stroke-linejoin="round" d="M 338.996 294.897 C 367.433 294.897 390.373 317.837 390.373 346.274 C 390.373 374.711 367.433 397.651 338.996 397.651 C 310.559 397.651 287.619 374.711 287.619 346.274 C 287.619 317.837 310.559 294.897 338.996 294.897 Z"/>
<path id="S20" fill="#ffffff" fill-rule="evenodd" stroke="#000000" stroke-width="4" stroke-linecap="round" stroke-linejoin="round" d="M 243.432 310.695 C 271.868 310.695 294.809 333.636 294.809 362.073 C 294.809 390.509 271.868 413.450 243.432 413.450 C 214.995 413.450 192.055 390.509 192.055 362.073 C 192.055 333.636 214.995 310.696 243.432 310.695 Z"/>
<path id="S4" fill="#ffffff" fill-rule="evenodd" stroke="#000000" stroke-width="4" stroke-linecap="round" stroke-linejoin="round" d="M 174.874 291.005 C 217.579 280.571 212.072 354.375 208.736 394.175 C 270.171 360.700 343.429 423.565 336.229 505.126 C 335.236 504.202 330.064 504.414 330.064 504.414 C 330.063 504.414 325.004 503.752 325.004 503.752 C 325.003 503.752 319.546 503.236 319.546 503.236 C 319.530 503.234 213.112 492.748 160.086 490.819 C 144.247 482.334 107.742 307.406 174.874 291.005 Z"/>
<path fill="#ffffff" fill-rule="evenodd" stroke="#000000" stroke-width="4" stroke-linecap="round" stroke-linejoin="round" d="M 171.846 702.620 C 171.846 702.620 45.143 638.986 30.282 545.326 C 11.238 425.300 140.387 388.031 171.846 482.408 C 203.305 388.031 329.397 426.895 313.411 529.595 C 296.640 637.342 171.846 702.620 171.846 702.620 Z"/>
<path id="S10" fill="none" stroke="#000000" stroke-width="4" stroke-linecap="round" stroke-linejoin="round" d="M 319.546 503.236 C 320.098 497.140 319.664 491.041 318.242 484.937 M 325.004 503.752 C 325.717 498.265 325.801 491.430 324.311 484.262 M 330.064 504.414 C 332.209 497.702 332.002 491.187 330.380 484.937 M 325.004 503.752 C 325.003 503.752 319.546 503.236 319.546 503.236 M 330.064 504.414 C 330.063 504.414 325.004 503.752 325.004 503.752 "/>
<path fill="#000000" fill-rule="evenodd" stroke="none" d="M 239.835 28.086 C 239.835 28.087 241.237 30.515 242.255 32.278 C 241.440 33.678 239.835 36.457 239.835 36.458 C 239.836 36.458 242.610 36.458 244.676 36.470 C 245.406 37.735 246.916 40.351 246.916 40.351 C 246.917 40.351 248.212 38.107 249.166 36.454 C 250.787 36.458 253.997 36.458 253.997 36.458 C 253.997 36.457 252.643 34.111 251.586 32.263 C 252.392 30.867 253.997 28.087 253.997 28.086 C 253.997 28.086 250.787 28.086 249.155 28.086 C 248.427 26.809 246.917 24.193 246.916 24.193 C 246.916 24.193 245.648 26.389 244.664 28.086 C 242.623 28.086 239.836 28.086 239.835 28.086 Z"/>
<path fill="#000000" fill-rule="evenodd" stroke="none" d="M 269.286 27.261 C 269.287 27.261 270.689 29.689 271.706 31.452 C 270.891 32.852 269.287 35.631 269.286 35.632 C 269.287 35.632 272.062 35.632 274.127 35.644 C 274.857 36.909 276.367 39.525 276.368 39.525 C 276.368 39.525 277.663 37.282 278.618 35.628 C 280.238 35.632 283.448 35.632 283.449 35.632 C 283.448 35.631 282.094 33.286 281.037 31.437 C 281.844 30.041 283.448 27.261 283.449 27.261 C 283.448 27.261 280.239 27.261 278.606 27.261 C 277.878 25.984 276.368 23.368 276.368 23.367 C 276.367 23.368 275.099 25.564 274.115 27.261 C 272.075 27.261 269.287 27.261 269.286 27.261 Z"/>
<path fill="#000000" fill-rule="evenodd" stroke="none" d="M 300.288 30.355 C 300.288 30.355 301.301 32.970 302.037 34.867 C 301.018 36.126 299.007 38.627 299.006 38.627 C 299.007 38.627 301.749 39.052 303.788 39.380 C 304.316 40.742 305.408 43.559 305.408 43.559 C 305.408 43.559 307.031 41.540 308.228 40.052 C 309.829 40.304 313.001 40.795 313.001 40.795 C 313.001 40.794 312.022 38.269 311.261 36.281 C 312.271 35.024 314.282 32.523 314.283 32.523 C 314.282 32.523 311.111 32.031 309.497 31.781 C 308.974 30.408 307.882 27.592 307.881 27.591 C 307.881 27.591 306.292 29.567 305.059 31.094 C 303.043 30.782 300.288 30.355 300.288 30.355 Z"/>
<path fill="#000000" fill-rule="evenodd" stroke="none" d="M 331.436 37.192 C 331.436 37.192 331.918 39.955 332.267 41.959 C 331.021 42.994 328.558 45.052 328.558 45.052 C 328.558 45.052 331.164 46.006 333.099 46.728 C 333.349 48.167 333.868 51.143 333.868 51.144 C 333.868 51.143 335.856 49.482 337.321 48.258 C 338.841 48.819 341.855 49.922 341.856 49.922 C 341.856 49.922 341.391 47.254 341.034 45.155 C 342.272 44.121 344.734 42.062 344.735 42.062 C 344.734 42.062 341.721 40.958 340.187 40.396 C 339.944 38.947 339.425 35.971 339.425 35.971 C 339.425 35.971 337.479 37.597 335.970 38.852 C 334.055 38.150 331.437 37.192 331.436 37.192 Z"/>
<path fill="#000000" fill-rule="evenodd" stroke="none" d="M 356.057 48.170 C 356.057 48.170 356.368 50.957 356.594 52.980 C 355.287 53.936 352.703 55.840 352.703 55.840 C 352.703 55.840 355.246 56.952 357.133 57.790 C 357.295 59.242 357.630 62.244 357.630 62.245 C 357.631 62.244 359.716 60.708 361.254 59.575 C 362.737 60.228 365.678 61.514 365.678 61.514 C 365.678 61.513 365.377 58.822 365.150 56.705 C 366.448 55.748 369.032 53.845 369.032 53.844 C 369.032 53.844 366.091 52.558 364.595 51.904 C 364.441 50.442 364.105 47.441 364.105 47.440 C 364.105 47.440 362.063 48.944 360.481 50.104 C 358.612 49.287 356.057 48.170 356.057 48.170 Z"/>
<path fill="#000000" fill-rule="evenodd" stroke="none" d="M 380.142 63.260 C 380.142 63.260 380.067 66.063 380.012 68.098 C 378.585 68.865 375.764 70.395 375.764 70.395 C 375.764 70.395 378.129 71.846 379.883 72.937 C 379.844 74.397 379.763 77.417 379.763 77.417 C 379.763 77.417 382.040 76.182 383.719 75.272 C 385.098 76.123 387.834 77.801 387.834 77.802 C 387.834 77.801 387.907 75.094 387.973 72.966 C 389.391 72.197 392.212 70.668 392.212 70.667 C 392.212 70.667 389.477 68.988 388.085 68.134 C 388.133 66.665 388.214 63.646 388.214 63.645 C 388.214 63.646 385.984 64.854 384.258 65.785 C 382.519 64.718 380.142 63.260 380.142 63.260 Z"/>
<path fill="#000000" fill-rule="evenodd" stroke="none" d="M 401.642 83.786 C 401.642 83.786 401.247 86.563 400.960 88.578 C 399.455 89.177 396.477 90.374 396.477 90.374 C 396.477 90.374 398.661 92.086 400.278 93.370 C 400.072 94.816 399.646 97.807 399.646 97.808 C 399.647 97.808 402.050 96.841 403.821 96.129 C 405.094 97.132 407.620 99.112 407.621 99.112 C 407.621 99.112 408.003 96.431 408.312 94.324 C 409.808 93.723 412.786 92.526 412.786 92.525 C 412.786 92.525 410.260 90.544 408.975 89.537 C 409.191 88.083 409.617 85.093 409.617 85.092 C 409.617 85.093 407.264 86.038 405.442 86.766 C 403.836 85.507 401.642 83.786 401.642 83.786 Z"/>
<path fill="#000000" fill-rule="evenodd" stroke="none" d="M 222.687 32.006 C 222.687 32.007 221.673 34.621 220.937 36.518 C 221.957 37.777 223.968 40.278 223.968 40.279 C 223.968 40.279 221.226 40.703 219.187 41.032 C 218.659 42.393 217.567 45.210 217.567 45.211 C 217.566 45.210 215.943 43.191 214.747 41.703 C 213.146 41.955 209.974 42.446 209.973 42.446 C 209.973 42.446 210.953 39.921 211.714 37.932 C 210.703 36.676 208.692 34.174 208.692 34.174 C 208.692 34.174 211.864 33.683 213.477 33.432 C 214.001 32.059 215.093 29.243 215.093 29.242 C 215.093 29.243 216.683 31.219 217.916 32.745 C 219.932 32.433 222.687 32.006 222.687 32.006 Z"/>
<path fill="#000000" fill-rule="evenodd" stroke="none" d="M 195.532 39.757 C 195.532 39.758 194.866 42.482 194.383 44.459 C 195.557 45.574 197.876 47.793 197.877 47.793 C 197.876 47.793 195.213 48.570 193.233 49.161 C 192.887 50.580 192.170 53.514 192.170 53.515 C 192.170 53.515 190.298 51.724 188.918 50.404 C 187.363 50.861 184.282 51.760 184.282 51.760 C 184.282 51.760 184.925 49.129 185.421 47.059 C 184.256 45.944 181.937 43.725 181.937 43.725 C 181.937 43.724 185.018 42.825 186.585 42.368 C 186.926 40.938 187.643 38.004 187.643 38.003 C 187.643 38.004 189.476 39.756 190.896 41.110 C 192.855 40.538 195.531 39.757 195.532 39.757 Z"/>
<path fill="#000000" fill-rule="evenodd" stroke="none" d="M 168.294 50.372 C 168.294 50.372 167.983 53.159 167.756 55.182 C 169.064 56.138 171.648 58.042 171.648 58.042 C 171.647 58.042 169.105 59.153 167.218 59.992 C 167.056 61.444 166.720 64.446 166.720 64.447 C 166.720 64.446 164.634 62.910 163.097 61.777 C 161.614 62.430 158.673 63.716 158.672 63.716 C 158.673 63.715 158.973 61.024 159.201 58.907 C 157.903 57.950 155.319 56.047 155.318 56.046 C 155.319 56.046 158.259 54.760 159.755 54.106 C 159.910 52.644 160.246 49.642 160.246 49.642 C 160.246 49.642 162.288 51.146 163.870 52.306 C 165.739 51.489 168.294 50.372 168.294 50.372 Z"/>
<path fill="#000000" fill-rule="evenodd" stroke="none" d="M 140.906 64.636 C 140.906 64.636 140.981 67.439 141.036 69.474 C 142.462 70.241 145.284 71.771 145.284 71.771 C 145.284 71.771 142.919 73.222 141.165 74.313 C 141.204 75.773 141.285 78.793 141.285 78.793 C 141.285 78.793 139.008 77.558 137.329 76.648 C 135.950 77.499 133.214 79.178 133.214 79.178 C 133.214 79.177 133.141 76.470 133.075 74.342 C 131.657 73.573 128.836 72.044 128.835 72.043 C 128.836 72.043 131.571 70.364 132.963 69.510 C 132.915 68.041 132.833 65.022 132.833 65.022 C 132.834 65.022 135.063 66.230 136.790 67.161 C 138.529 66.094 140.905 64.636 140.906 64.636 Z"/>
<path fill="#000000" fill-rule="evenodd" stroke="none" d="M 114.451 84.612 C 114.452 84.612 114.847 87.389 115.134 89.404 C 116.639 90.003 119.616 91.199 119.617 91.199 C 119.616 91.200 117.433 92.912 115.815 94.196 C 116.021 95.642 116.447 98.633 116.447 98.633 C 116.447 98.633 114.044 97.667 112.272 96.954 C 110.999 97.957 108.473 99.938 108.473 99.938 C 108.473 99.937 108.091 97.256 107.782 95.150 C 106.286 94.548 103.308 93.351 103.307 93.351 C 103.308 93.351 105.833 91.370 107.118 90.362 C 106.902 88.909 106.476 85.919 106.476 85.918 C 106.476 85.918 108.829 86.864 110.652 87.591 C 112.257 86.332 114.451 84.612 114.451 84.612 Z"/>
</g>
<g id="specs_2">
<path fill="#ff00ff" fill-rule="evenodd" stroke="none" d="M 89.930 642.766 C 89.947 642.766 251.285 642.766 251.301 642.766 C 251.301 642.750 251.301 481.412 251.301 481.395 C 251.285 481.395 89.947 481.395 89.930 481.395 C 89.930 481.412 89.930 642.750 89.930 642.766 Z"/>
<path fill="#ff0000" fill-rule="evenodd" stroke="none" d="M 360.000 662.331 C 360.001 662.335 372.416 697.097 372.417 697.101 C 372.416 697.100 360.001 685.548 360.000 685.547 C 359.999 685.548 347.584 697.100 347.583 697.101 C 347.584 697.097 359.999 662.335 360.000 662.331 Z"/>
<path fill="#0000ff" fill-rule="evenodd" stroke="none" d="M 536.688 210.756 C 536.689 210.758 543.901 230.951 543.901 230.953 C 543.901 230.952 536.689 224.242 536.688 224.242 C 536.688 224.242 529.476 230.952 529.475 230.953 C 529.476 230.951 536.688 210.758 536.688 210.756 Z"/>
<path fill="#0000ff" fill-rule="evenodd" stroke="none" d="M 536.688 272.216 C 536.689 272.214 543.901 252.020 543.901 252.018 C 543.901 252.019 536.689 258.729 536.688 258.730 C 536.688 258.729 529.476 252.019 529.475 252.018 C 529.476 252.020 536.688 272.214 536.688 272.216 Z"/>
</g>
</g>
</svg>
