<?xml version="1.0" encoding="utf-8"?>
<!-- Generator: Moho 13.5 build 20210422 -->
<!DOCTYPE svg PUBLIC "-//W3C//DTD SVG 1.1//EN" "http://www.w3.org/Graphics/SVG/1.1/DTD/svg11.dtd">
<svg version="1.1" id="Frame_0" xmlns="http://www.w3.org/2000/svg" xmlns:xlink="http://www.w3.org/1999/xlink" width="720px" height="720px">
<g id="eye_up">
<g id="eye_up">
<path fill="#000000" fill-rule="evenodd" stroke="#000000" stroke-width="4" stroke-linecap="round" stroke-linejoin="round" d="M 288.521 252.605 C 288.521 213.042 320.437 181.126 360.000 181.126 C 399.563 181.126 431.479 213.042 431.479 252.605 C 431.479 292.168 399.563 324.084 360.000 324.084 C 320.437 324.084 288.521 292.168 288.521 252.605 M 190.547 205.425 C 232.533 176.045 290.043 158.582 360.000 158.582 C 427.899 158.582 484.073 175.033 528.990 205.164 C 533.272 220.114 535.537 236.088 535.537 252.605 C 535.537 349.764 457.159 428.142 360.000 428.142 C 262.841 428.142 184.463 349.764 184.463 252.605 C 184.463 236.088 186.728 220.114 190.547 205.425 Z"/>
<path fill="none" stroke="#ffffff" stroke-width="1" stroke-linecap="butt" stroke-linejoin="round" d="M 360.000 181.126 C 399.563 181.126 431.479 213.042 431.479 252.605 "/>
<path fill="none" stroke="#ffffff" stroke-width="1" stroke-linecap="butt" stroke-linejoin="round" d="M 431.479 252.605 C 431.479 292.168 399.563 324.084 360.000 324.084 "/>
<path fill="none" stroke="#ffffff" stroke-width="1" stroke-linecap="butt" stroke-linejoin="round" d="M 360.000 324.084 C 320.437 324.084 288.521 292.168 288.521 252.605 "/>
<path fill="none" stroke="#ffffff" stroke-width="1" stroke-linecap="butt" stroke-linejoin="round" d="M 288.521 252.605 C 288.521 213.042 320.437 181.126 360.000 181.126 "/>
<path fill="#ffffff" fill-rule="evenodd" stroke="#000000" stroke-width="4" stroke-linecap="round" stroke-linejoin="round" d="M 360.000 181.126 C 399.563 181.126 431.479 213.042 431.479 252.605 C 431.479 292.168 399.563 324.084 360.000 324.084 C 320.437 324.084 288.521 292.168 288.521 252.605 C 288.521 213.042 320.437 181.126 360.000 181.126 Z"/>
<radialGradient id="77A2BF57-080F-4D74-BD9F-7CCB18A2BEE7_2" cx="50.00%" cy="4.96%" r="73.26%">
<stop offset="0.00%" style="stop-color:rgb(255,255,255);stop-opacity:1.00" />
<stop offset="50.00%" style="stop-color:rgb(255,255,255);stop-opacity:1.00" />
<stop offset="100.00%" style="stop-color:rgb(0,0,0);stop-opacity:1.00" />
</radialGradient>
<path fill="none" stroke="#ffffff" stroke-width="1" stroke-linecap="butt" stroke-linejoin="round" d="M 184.463 252.605 C 184.463 236.088 186.728 220.114 190.547 205.425 "/>
<path fill="none" stroke="#ffffff" stroke-width="1" stroke-linecap="butt" stroke-linejoin="round" d="M 528.990 205.164 C 533.272 220.114 535.537 236.088 535.537 252.605 "/>
<path fill="none" stroke="#ffffff" stroke-width="1" stroke-linecap="butt" stroke-linejoin="round" d="M 535.537 252.605 C 535.537 349.764 457.159 428.142 360.000 428.142 "/>
<path fill="none" stroke="#ffffff" stroke-width="1" stroke-linecap="butt" stroke-linejoin="round" d="M 360.000 428.142 C 262.841 428.142 184.463 349.764 184.463 252.605 "/>
<path fill="url(#77A2BF57-080F-4D74-BD9F-7CCB18A2BEE7_2)" fill-rule="evenodd" stroke="#000000" stroke-width="4" stroke-linecap="round" stroke-linejoin="round" d="M 184.463 252.605 C 184.463 236.088 186.728 220.114 190.547 205.425 C 95.105 249.663 23.479 359.985 23.462 360.000 C 23.496 360.020 154.245 561.418 360.000 561.418 C 565.755 561.418 696.504 360.020 696.538 360.000 C 696.521 359.985 623.371 247.317 528.990 205.164 C 533.272 220.114 535.537 236.088 535.537 252.605 C 535.537 349.764 457.159 428.142 360.000 428.142 C 262.841 428.142 184.463 349.764 184.463 252.605 Z"/>
</g>
<g id="specs_2">
<path fill="#ff0000" fill-rule="evenodd" stroke="none" d="M 360.000 662.708 C 360.001 662.711 372.432 697.517 372.433 697.521 C 372.432 697.520 360.001 685.954 360.000 685.952 C 359.999 685.954 347.568 697.520 347.567 697.521 C 347.568 697.517 359.999 662.711 360.000 662.708 Z"/>
<path fill="#0000ff" fill-rule="evenodd" stroke="none" d="M 360.000 142.820 C 360.001 142.822 367.221 163.040 367.222 163.042 C 367.221 163.042 360.001 156.324 360.000 156.323 C 359.999 156.324 352.779 163.042 352.778 163.042 C 352.779 163.040 359.999 142.822 360.000 142.820 Z"/>
<path fill="#00ff00" fill-rule="evenodd" stroke="none" d="M 18.397 361.004 C 18.399 361.003 38.581 353.680 38.583 353.679 C 38.582 353.680 31.900 360.935 31.900 360.935 C 31.900 360.936 38.655 368.122 38.656 368.123 C 38.654 368.122 18.399 361.004 18.397 361.004 Z"/>
<path fill="#ffff00" fill-rule="evenodd" stroke="none" d="M 117.702 482.864 C 117.703 482.862 126.664 463.353 126.664 463.351 C 126.664 463.352 127.136 473.203 127.136 473.204 C 127.137 473.204 136.997 473.443 136.998 473.443 C 136.996 473.444 117.704 482.863 117.702 482.864 Z"/>
<path fill="#ffff00" fill-rule="evenodd" stroke="none" d="M 602.298 482.625 C 602.297 482.623 592.947 463.297 592.946 463.295 C 592.946 463.296 592.672 473.155 592.672 473.156 C 592.671 473.156 582.818 473.593 582.817 473.593 C 582.819 473.594 602.296 482.624 602.298 482.625 Z"/>
<path fill="#00ff00" fill-rule="evenodd" stroke="none" d="M 701.603 361.004 C 701.601 361.003 681.419 353.680 681.417 353.679 C 681.418 353.680 688.100 360.935 688.100 360.935 C 688.100 360.936 681.345 368.122 681.344 368.123 C 681.346 368.122 701.601 361.004 701.603 361.004 Z"/>
<path fill="#00ffff" fill-rule="evenodd" stroke="none" d="M 601.361 230.995 C 601.361 230.997 594.193 251.234 594.193 251.236 C 594.193 251.235 592.835 241.466 592.835 241.465 C 592.834 241.465 582.993 242.115 582.992 242.115 C 582.994 242.114 601.359 230.996 601.361 230.995 Z"/>
<path fill="#00ffff" fill-rule="evenodd" stroke="none" d="M 118.750 231.666 C 118.751 231.668 127.252 251.382 127.253 251.384 C 127.253 251.383 127.956 241.545 127.956 241.544 C 127.957 241.544 137.819 241.536 137.820 241.536 C 137.818 241.535 118.752 231.667 118.750 231.666 Z"/>
<path fill="#be0027" fill-rule="evenodd" stroke="none" d="M 360.000 584.971 C 360.001 584.968 372.432 550.162 372.433 550.158 C 372.432 550.159 360.001 561.725 360.000 561.726 C 359.999 561.725 347.568 550.159 347.567 550.158 C 347.568 550.162 359.999 584.968 360.000 584.971 Z"/>
</g>
</g>
</svg>
