<?xml version="1.0" encoding="utf-8"?>
<!-- Generator: Moho 12.5 build 22414 -->
<!DOCTYPE svg PUBLIC "-//W3C//DTD SVG 1.1//EN" "http://www.w3.org/Graphics/SVG/1.1/DTD/svg11.dtd">
<svg version="1.1" id="Frame_0" xmlns="http://www.w3.org/2000/svg" xmlns:xlink="http://www.w3.org/1999/xlink" width="720px" height="720px">
<g id="eye_side">
<g id="eye_side">
<path fill="#000000" fill-rule="evenodd" stroke="#000000" stroke-width="4" stroke-linejoin="round" d="M 151.038 360.000 C 151.038 325.259 179.064 297.234 213.805 297.234 C 248.546 297.234 276.571 325.259 276.571 360.000 C 276.571 394.741 248.546 422.766 213.805 422.766 C 179.064 422.766 151.038 394.741 151.038 360.000 M 391.551 360.000 C 391.551 439.689 339.480 506.901 266.074 529.979 C 108.844 486.469 31.792 360.017 31.768 360.000 C 31.791 359.983 112.689 225.201 264.730 189.616 C 338.186 211.441 391.551 279.327 391.551 360.000 Z"/>
<path fill="none" stroke="#ffffff" stroke-width="1" stroke-linecap="butt" stroke-linejoin="round" d="M 391.551 360.000 C 391.551 439.689 339.480 506.901 266.074 529.979 "/>
<path fill="none" stroke="#ffffff" stroke-width="1" stroke-linecap="butt" stroke-linejoin="round" d="M 264.730 189.616 C 338.186 211.441 391.551 279.327 391.551 360.000 "/>
<path fill="#ffffff" fill-rule="evenodd" stroke="#000000" stroke-width="4" stroke-linejoin="round" d="M 391.551 360.000 C 391.551 439.689 339.480 506.901 266.074 529.979 C 292.935 537.412 324.502 541.892 360.000 541.892 C 581.862 541.892 688.199 360.018 688.232 360.000 C 688.199 359.982 581.862 178.108 360.000 178.108 C 324.502 178.108 293.005 182.999 264.730 189.616 C 338.186 211.441 391.551 279.327 391.551 360.000 Z"/>
<path fill="none" stroke="#ffffff" stroke-width="1" stroke-linecap="butt" stroke-linejoin="round" d="M 213.805 297.234 C 248.546 297.234 276.571 325.259 276.571 360.000 "/>
<path fill="none" stroke="#ffffff" stroke-width="1" stroke-linecap="butt" stroke-linejoin="round" d="M 276.571 360.000 C 276.571 394.741 248.546 422.766 213.805 422.766 "/>
<path fill="none" stroke="#ffffff" stroke-width="1" stroke-linecap="butt" stroke-linejoin="round" d="M 213.805 422.766 C 179.064 422.766 151.038 394.741 151.038 360.000 "/>
<path fill="none" stroke="#ffffff" stroke-width="1" stroke-linecap="butt" stroke-linejoin="round" d="M 151.038 360.000 C 151.038 325.259 179.064 297.234 213.805 297.234 "/>
<path fill="#ffffff" fill-rule="evenodd" stroke="none" d="M 213.805 297.234 C 248.546 297.234 276.571 325.259 276.571 360.000 C 276.571 394.741 248.546 422.766 213.805 422.766 C 179.064 422.766 151.038 394.741 151.038 360.000 C 151.038 325.259 179.064 297.234 213.805 297.234 Z"/>
</g>
<g id="specs_2">
<path fill="#ff0000" fill-rule="evenodd" stroke="none" d="M 360.000 683.423 C 360.001 683.426 370.903 713.951 370.904 713.954 C 370.903 713.953 360.001 703.810 360.000 703.808 C 359.999 703.810 349.097 713.953 349.096 713.954 C 349.097 713.951 359.999 683.426 360.000 683.423 Z"/>
<path fill="#0000ff" fill-rule="evenodd" stroke="none" d="M 360.000 167.414 C 360.001 167.416 366.333 185.147 366.334 185.149 C 366.333 185.148 360.001 179.256 360.000 179.256 C 359.999 179.256 353.667 185.148 353.666 185.149 C 353.667 185.147 359.999 167.416 360.000 167.414 Z"/>
<path fill="#00ff00" fill-rule="evenodd" stroke="none" d="M 18.822 361.002 C 18.824 361.002 38.981 353.687 38.983 353.687 C 38.982 353.687 32.308 360.933 32.308 360.934 C 32.308 360.935 39.055 368.112 39.055 368.113 C 39.053 368.112 18.824 361.003 18.822 361.002 Z"/>
<path fill="#ffff00" fill-rule="evenodd" stroke="none" d="M 147.503 493.464 C 147.504 493.463 155.362 476.353 155.363 476.351 C 155.363 476.352 155.777 484.992 155.777 484.993 C 155.778 484.993 164.424 485.202 164.425 485.202 C 164.424 485.203 147.505 493.464 147.503 493.464 Z"/>
<path fill="#ffff00" fill-rule="evenodd" stroke="none" d="M 572.497 493.255 C 572.496 493.253 564.296 476.304 564.295 476.302 C 564.295 476.303 564.055 484.950 564.055 484.951 C 564.054 484.951 555.413 485.334 555.412 485.334 C 555.414 485.335 572.495 493.254 572.497 493.255 Z"/>
<path fill="#00ff00" fill-rule="evenodd" stroke="none" d="M 701.178 361.002 C 701.176 361.002 681.019 353.687 681.017 353.687 C 681.018 353.687 687.692 360.933 687.692 360.934 C 687.692 360.935 680.945 368.112 680.945 368.113 C 680.947 368.112 701.176 361.003 701.178 361.002 Z"/>
<path fill="#00ffff" fill-rule="evenodd" stroke="none" d="M 571.676 228.106 C 571.675 228.108 565.389 245.856 565.389 245.858 C 565.389 245.857 564.198 237.290 564.198 237.289 C 564.198 237.289 555.567 237.859 555.566 237.859 C 555.567 237.858 571.674 228.107 571.676 228.106 Z"/>
<path fill="#00ffff" fill-rule="evenodd" stroke="none" d="M 148.422 228.695 C 148.423 228.696 155.878 245.986 155.879 245.988 C 155.879 245.987 156.495 237.359 156.495 237.358 C 156.496 237.358 165.146 237.351 165.146 237.351 C 165.145 237.351 148.424 228.695 148.422 228.695 Z"/>
<path fill="#be0027" fill-rule="evenodd" stroke="none" d="M 360.000 562.966 C 360.001 562.963 370.903 532.438 370.904 532.434 C 370.903 532.435 360.001 542.579 360.000 542.580 C 359.999 542.579 349.097 532.435 349.096 532.434 C 349.097 532.438 359.999 562.963 360.000 562.966 Z"/>
</g>
</g>
</svg>
