<?xml version="1.0" encoding="utf-8"?>
<!-- Generator: Moho 12.5 build 22414 -->
<!DOCTYPE svg PUBLIC "-//W3C//DTD SVG 1.1//EN" "http://www.w3.org/Graphics/SVG/1.1/DTD/svg11.dtd">
<svg version="1.1" id="Frame_0" xmlns="http://www.w3.org/2000/svg" xmlns:xlink="http://www.w3.org/1999/xlink" width="720px" height="720px">
<g id="eye_up_starburst_2">
<g id="eye_up_starburst">
<path fill="#ffffff" fill-rule="evenodd" stroke="none" d="M 360.000 592.597 C 360.002 592.579 384.405 411.275 384.408 411.257 C 384.413 411.274 440.304 584.020 440.310 584.037 C 440.309 584.019 430.957 403.373 430.956 403.355 C 430.965 403.370 515.039 559.462 515.048 559.477 C 515.044 559.460 473.698 388.327 473.694 388.310 C 473.704 388.323 582.618 520.586 582.629 520.599 C 582.622 520.584 511.678 366.930 511.670 366.915 C 511.683 366.925 641.460 469.072 641.473 469.082 C 641.463 469.069 543.951 339.973 543.941 339.960 C 543.956 339.968 689.981 424.894 689.995 424.902 C 689.984 424.891 580.052 307.601 580.043 307.588 C 580.054 307.594 494.226 205.691 360.000 205.691 C 225.774 205.691 139.946 307.594 139.957 307.588 C 139.948 307.601 30.016 424.890 30.005 424.902 C 30.019 424.893 176.044 339.967 176.059 339.959 C 176.049 339.971 78.537 469.069 78.527 469.082 C 78.540 469.072 208.316 366.925 208.329 366.915 C 208.322 366.930 137.377 520.584 137.370 520.599 C 137.381 520.586 246.296 388.323 246.306 388.310 C 246.302 388.327 204.956 559.460 204.952 559.477 C 204.961 559.462 289.035 403.370 289.044 403.355 C 289.043 403.373 279.691 584.019 279.690 584.037 C 279.696 584.020 335.587 411.274 335.593 411.257 C 335.595 411.275 359.998 592.579 360.000 592.597 Z"/>
<path fill="#ffffff" fill-rule="evenodd" stroke="none" d="M 322.434 267.021 C 322.434 246.228 339.208 229.455 360.000 229.455 C 380.792 229.455 397.566 246.228 397.566 267.021 C 397.566 287.813 380.792 304.586 360.000 304.586 C 339.208 304.586 322.434 287.813 322.434 267.021 M 269.641 244.620 C 293.268 231.877 323.353 226.810 360.000 226.812 C 395.572 226.815 424.914 231.560 450.112 244.521 C 451.833 251.655 452.425 259.228 452.253 267.021 C 451.130 318.070 411.061 359.274 360.000 359.274 C 308.939 359.274 268.922 318.069 267.747 267.021 C 267.567 259.217 268.143 251.634 269.641 244.620 Z"/>
<path fill="none" stroke="#000000" stroke-width="1" stroke-linecap="butt" stroke-linejoin="round" d="M 360.000 229.455 C 380.792 229.455 397.566 246.228 397.566 267.021 "/>
<path fill="none" stroke="#000000" stroke-width="1" stroke-linecap="butt" stroke-linejoin="round" d="M 397.566 267.021 C 397.566 287.813 380.792 304.586 360.000 304.586 "/>
<path fill="none" stroke="#000000" stroke-width="1" stroke-linecap="butt" stroke-linejoin="round" d="M 360.000 304.586 C 339.208 304.586 322.434 287.813 322.434 267.021 "/>
<path fill="none" stroke="#000000" stroke-width="1" stroke-linecap="butt" stroke-linejoin="round" d="M 322.434 267.021 C 322.434 246.228 339.208 229.455 360.000 229.455 "/>
<path fill="#000000" fill-rule="evenodd" stroke="none" d="M 360.000 229.455 C 380.792 229.455 397.566 246.228 397.566 267.021 C 397.566 287.813 380.792 304.586 360.000 304.586 C 339.208 304.586 322.434 287.813 322.434 267.021 C 322.434 246.228 339.208 229.455 360.000 229.455 Z"/>
<path fill="none" stroke="#000000" stroke-width="1" stroke-linecap="butt" stroke-linejoin="round" d="M 267.747 267.021 C 267.567 259.217 268.143 251.634 269.641 244.620 "/>
<path fill="none" stroke="#000000" stroke-width="1" stroke-linecap="butt" stroke-linejoin="round" d="M 450.112 244.521 C 451.833 251.655 452.425 259.228 452.253 267.021 "/>
<path fill="none" stroke="#000000" stroke-width="1" stroke-linecap="butt" stroke-linejoin="round" d="M 452.253 267.021 C 451.130 318.070 411.061 359.274 360.000 359.274 "/>
<path fill="none" stroke="#000000" stroke-width="1" stroke-linecap="butt" stroke-linejoin="round" d="M 360.000 359.274 C 308.939 359.274 268.922 318.069 267.747 267.021 "/>
<path fill="#000000" fill-rule="evenodd" stroke="none" d="M 267.747 267.021 C 267.567 259.217 268.143 251.634 269.641 244.620 C 222.790 260.046 180.555 303.377 180.546 303.382 C 180.564 303.390 257.645 379.953 360.000 379.953 C 462.355 379.953 539.436 303.390 539.454 303.382 C 539.445 303.377 496.362 259.042 450.112 244.521 C 451.833 251.655 452.425 259.228 452.253 267.021 C 451.130 318.070 411.061 359.274 360.000 359.274 C 308.939 359.274 268.922 318.069 267.747 267.021 Z"/>
</g>
<g id="specs_2">
<path fill="#ff0000" fill-rule="evenodd" stroke="none" d="M 360.000 623.053 C 360.001 623.056 372.230 657.298 372.231 657.301 C 372.230 657.300 360.001 645.922 360.000 645.921 C 359.999 645.922 347.770 657.300 347.769 657.301 C 347.770 657.298 359.999 623.056 360.000 623.053 Z"/>
<path fill="#0000ff" fill-rule="evenodd" stroke="none" d="M 360.000 166.127 C 360.001 166.129 367.104 186.019 367.105 186.021 C 367.104 186.020 360.001 179.411 360.000 179.411 C 359.999 179.411 352.896 186.020 352.895 186.021 C 352.896 186.019 359.999 166.129 360.000 166.127 Z"/>
<path fill="#00ff00" fill-rule="evenodd" stroke="none" d="M 31.618 423.821 C 31.619 423.819 44.955 407.957 44.957 407.956 C 44.957 407.956 42.872 417.246 42.872 417.247 C 42.873 417.247 51.988 419.995 51.989 419.995 C 51.987 419.995 31.620 423.820 31.618 423.821 Z"/>
<path fill="#ffff00" fill-rule="evenodd" stroke="none" d="M 130.177 528.000 C 130.178 527.999 138.677 509.494 138.678 509.492 C 138.678 509.493 139.126 518.837 139.126 518.838 C 139.127 518.838 148.479 519.065 148.479 519.065 C 148.478 519.066 130.179 528.000 130.177 528.000 Z"/>
<path fill="#ffff00" fill-rule="evenodd" stroke="none" d="M 589.823 527.774 C 589.822 527.772 580.953 509.441 580.953 509.439 C 580.953 509.440 580.693 518.792 580.693 518.793 C 580.692 518.793 571.346 519.207 571.345 519.207 C 571.347 519.208 589.821 527.773 589.823 527.774 Z"/>
<path fill="#00ff00" fill-rule="evenodd" stroke="none" d="M 688.382 423.821 C 688.381 423.819 675.045 407.957 675.043 407.956 C 675.044 407.956 677.128 417.246 677.128 417.247 C 677.127 417.247 668.012 419.995 668.011 419.995 C 668.013 419.995 688.380 423.820 688.382 423.821 Z"/>
<path fill="#00ffff" fill-rule="evenodd" stroke="none" d="M 597.449 251.449 C 597.448 251.451 590.397 271.360 590.396 271.362 C 590.396 271.361 589.061 261.750 589.061 261.749 C 589.060 261.749 579.378 262.389 579.377 262.389 C 579.379 262.388 597.447 251.450 597.449 251.449 Z"/>
<path fill="#00ffff" fill-rule="evenodd" stroke="none" d="M 122.661 252.109 C 122.662 252.111 131.025 271.505 131.026 271.507 C 131.026 271.506 131.717 261.828 131.717 261.827 C 131.718 261.827 141.421 261.820 141.422 261.820 C 141.420 261.819 122.663 252.110 122.661 252.109 Z"/>
<path fill="#be0027" fill-rule="evenodd" stroke="none" d="M 360.000 610.922 C 360.001 610.919 368.898 586.006 368.899 586.004 C 368.898 586.005 360.001 594.283 360.000 594.284 C 359.999 594.283 351.102 586.005 351.101 586.004 C 351.102 586.006 359.999 610.919 360.000 610.922 Z"/>
</g>
</g>
</svg>
