<?xml version="1.0" encoding="utf-8"?>
<!-- Generator: Moho 13.5.1 build 20210623 -->
<!DOCTYPE svg PUBLIC "-//W3C//DTD SVG 1.1//EN" "http://www.w3.org/Graphics/SVG/1.1/DTD/svg11.dtd">
<svg version="1.1" id="Frame_0" xmlns="http://www.w3.org/2000/svg" xmlns:xlink="http://www.w3.org/1999/xlink" width="720px" height="720px">
<g id="eye_starburst">
<g id="starburst">
<path fill="#ffffff" fill-rule="evenodd" stroke="none" d="M 360.000 667.364 C 360.002 667.349 377.203 513.589 377.204 513.574 C 377.209 513.589 424.772 660.847 424.777 660.861 C 424.775 660.846 410.017 506.921 410.016 506.906 C 410.023 506.919 485.052 642.190 485.059 642.203 C 485.055 642.188 440.145 494.225 440.141 494.210 C 440.151 494.222 539.560 612.656 539.570 612.667 C 539.563 612.654 466.917 476.168 466.910 476.155 C 466.922 476.164 587.020 573.520 587.032 573.530 C 587.023 573.518 489.667 453.420 489.657 453.408 C 489.671 453.415 626.156 526.061 626.170 526.068 C 626.158 526.058 507.724 426.648 507.712 426.638 C 507.727 426.643 655.691 471.552 655.706 471.557 C 655.692 471.549 520.422 396.521 520.408 396.514 C 520.424 396.515 674.348 411.273 674.364 411.275 C 674.349 411.270 527.091 363.707 527.076 363.702 C 527.092 363.700 680.851 346.499 680.867 346.498 C 680.851 346.496 527.092 329.295 527.076 329.293 C 527.091 329.288 674.349 281.725 674.364 281.721 C 674.348 281.722 520.424 296.480 520.408 296.482 C 520.422 296.474 655.692 221.446 655.706 221.438 C 655.691 221.443 507.727 266.352 507.712 266.357 C 507.724 266.347 626.158 166.938 626.170 166.928 C 626.156 166.935 489.671 239.580 489.657 239.587 C 489.667 239.575 587.023 119.477 587.032 119.465 C 587.020 119.475 466.923 216.831 466.911 216.841 C 466.918 216.827 539.563 80.342 539.570 80.328 C 539.560 80.340 440.151 198.774 440.141 198.786 C 440.145 198.771 485.055 50.807 485.059 50.792 C 485.052 50.806 410.023 186.076 410.016 186.090 C 410.017 186.074 424.775 32.149 424.777 32.134 C 424.772 32.149 377.209 179.407 377.204 179.421 C 377.203 179.406 360.002 25.647 360.000 25.631 C 359.998 25.647 342.797 179.406 342.796 179.421 C 342.791 179.407 295.228 32.149 295.223 32.134 C 295.225 32.149 309.983 186.074 309.984 186.090 C 309.977 186.076 234.948 50.806 234.941 50.792 C 234.945 50.807 279.855 198.771 279.859 198.786 C 279.849 198.774 180.440 80.340 180.430 80.328 C 180.437 80.342 253.083 216.827 253.090 216.841 C 253.078 216.831 132.980 119.475 132.968 119.465 C 132.977 119.477 230.333 239.575 230.343 239.587 C 230.329 239.580 93.844 166.935 93.830 166.927 C 93.842 166.937 212.276 266.347 212.288 266.357 C 212.273 266.352 64.309 221.443 64.294 221.438 C 64.308 221.446 199.578 296.474 199.592 296.482 C 199.577 296.480 45.652 281.722 45.636 281.721 C 45.651 281.725 192.909 329.288 192.924 329.293 C 192.908 329.295 39.149 346.496 39.134 346.498 C 39.149 346.499 192.908 363.700 192.924 363.702 C 192.909 363.707 45.651 411.270 45.636 411.275 C 45.652 411.273 199.577 396.515 199.592 396.514 C 199.578 396.521 64.308 471.549 64.294 471.557 C 64.309 471.552 212.273 426.643 212.288 426.638 C 212.276 426.648 93.842 526.057 93.830 526.067 C 93.844 526.060 230.329 453.415 230.343 453.408 C 230.333 453.420 132.977 573.518 132.968 573.530 C 132.980 573.520 253.077 476.164 253.089 476.155 C 253.082 476.168 180.437 612.654 180.430 612.667 C 180.440 612.656 279.849 494.222 279.859 494.210 C 279.855 494.225 234.945 642.188 234.941 642.203 C 234.948 642.190 309.977 506.919 309.984 506.906 C 309.983 506.921 295.225 660.846 295.223 660.861 C 295.228 660.847 342.791 513.589 342.796 513.574 C 342.797 513.589 359.998 667.349 360.000 667.364 Z"/>
</g>
<g id="eye">
<path fill="#000000" fill-rule="evenodd" stroke="#ffffff" stroke-width="4" stroke-linecap="round" stroke-linejoin="round" d="M 332.735 346.498 C 332.735 331.406 344.909 319.232 360.000 319.232 C 375.091 319.232 387.265 331.406 387.265 346.498 C 387.265 361.589 375.091 373.763 360.000 373.763 C 344.909 373.763 332.735 361.589 332.735 346.498 M 271.397 346.498 C 271.397 297.457 310.959 257.895 360.000 257.895 C 409.041 257.895 448.603 297.457 448.603 346.498 C 448.603 395.539 409.041 435.100 360.000 435.100 C 310.959 435.100 271.397 395.539 271.397 346.498 M 178.467 346.498 C 178.485 346.487 246.405 235.782 360.000 235.782 C 473.595 235.782 541.515 346.487 541.533 346.498 C 541.515 346.509 473.595 457.213 360.000 457.213 C 246.405 457.213 178.485 346.509 178.467 346.498 Z"/>
<path fill="none" stroke="#ffffff" stroke-width="1" stroke-linecap="butt" stroke-linejoin="round" d="M 332.735 346.498 C 332.735 331.406 344.909 319.232 360.000 319.232 "/>
<path fill="none" stroke="#ffffff" stroke-width="1" stroke-linecap="butt" stroke-linejoin="round" d="M 360.000 319.232 C 375.091 319.232 387.265 331.406 387.265 346.498 "/>
<path fill="none" stroke="#ffffff" stroke-width="1" stroke-linecap="butt" stroke-linejoin="round" d="M 387.265 346.498 C 387.265 361.589 375.091 373.763 360.000 373.763 "/>
<path fill="none" stroke="#ffffff" stroke-width="1" stroke-linecap="butt" stroke-linejoin="round" d="M 360.000 373.763 C 344.909 373.763 332.735 361.589 332.735 346.498 "/>
<path fill="none" stroke="#ffffff" stroke-width="1" stroke-linecap="butt" stroke-linejoin="round" d="M 271.397 346.498 C 271.397 297.457 310.959 257.895 360.000 257.895 "/>
<path fill="none" stroke="#ffffff" stroke-width="1" stroke-linecap="butt" stroke-linejoin="round" d="M 360.000 257.895 C 409.041 257.895 448.603 297.457 448.603 346.498 "/>
<path fill="none" stroke="#ffffff" stroke-width="1" stroke-linecap="butt" stroke-linejoin="round" d="M 448.603 346.498 C 448.603 395.539 409.041 435.100 360.000 435.100 "/>
<path fill="none" stroke="#ffffff" stroke-width="1" stroke-linecap="butt" stroke-linejoin="round" d="M 360.000 435.100 C 310.959 435.100 271.397 395.539 271.397 346.498 "/>
<path fill="#ffffff" fill-rule="evenodd" stroke="none" d="M 332.735 346.498 C 332.735 331.406 344.909 319.232 360.000 319.232 C 375.091 319.232 387.265 331.406 387.265 346.498 C 387.265 361.589 375.091 373.763 360.000 373.763 C 344.909 373.763 332.735 361.589 332.735 346.498 M 271.397 346.498 C 271.397 297.457 310.959 257.895 360.000 257.895 C 409.041 257.895 448.603 297.457 448.603 346.498 C 448.603 395.539 409.041 435.100 360.000 435.100 C 310.959 435.100 271.397 395.539 271.397 346.498 Z"/>
</g>
<g id="specs_3">
<path fill="#ff00ff" fill-rule="evenodd" stroke="none" d="M 292.123 414.375 C 292.136 414.375 427.864 414.375 427.877 414.375 C 427.877 414.361 427.877 278.634 427.877 278.620 C 427.864 278.620 292.136 278.620 292.123 278.620 C 292.123 278.634 292.123 414.361 292.123 414.375 Z"/>
<path fill="#ff0000" fill-rule="evenodd" stroke="none" d="M 360.072 678.590 C 360.073 678.593 369.999 706.385 370.000 706.388 C 369.999 706.387 360.073 697.151 360.072 697.150 C 360.071 697.151 350.145 706.387 350.144 706.388 C 350.145 706.385 360.071 678.593 360.072 678.590 Z"/>
<path fill="#0000ff" fill-rule="evenodd" stroke="none" d="M 360.011 32.081 C 360.012 32.083 366.617 50.579 366.618 50.581 C 366.617 50.581 360.012 44.435 360.011 44.434 C 360.010 44.435 353.404 50.581 353.404 50.581 C 353.404 50.579 360.010 32.083 360.011 32.081 Z"/>
<path fill="#00ff00" fill-rule="evenodd" stroke="none" d="M 47.976 346.085 C 47.978 346.085 66.441 339.386 66.443 339.385 C 66.442 339.386 60.329 346.023 60.329 346.023 C 60.329 346.024 66.509 352.598 66.510 352.599 C 66.508 352.598 47.978 346.086 47.976 346.085 Z"/>
<path fill="#ffff00" fill-rule="evenodd" stroke="none" d="M 138.952 567.932 C 138.953 567.930 147.151 550.082 147.152 550.081 C 147.152 550.081 147.583 559.094 147.583 559.095 C 147.584 559.095 156.604 559.314 156.605 559.314 C 156.604 559.315 138.954 567.931 138.952 567.932 Z"/>
<path fill="#ffff00" fill-rule="evenodd" stroke="none" d="M 582.282 567.714 C 582.281 567.712 573.727 550.032 573.726 550.030 C 573.726 550.031 573.476 559.050 573.476 559.051 C 573.475 559.051 564.461 559.451 564.460 559.451 C 564.461 559.452 582.280 567.713 582.282 567.714 Z"/>
<path fill="#00ff00" fill-rule="evenodd" stroke="none" d="M 673.003 346.085 C 673.001 346.085 654.538 339.386 654.536 339.385 C 654.537 339.386 660.649 346.023 660.650 346.023 C 660.649 346.024 654.470 352.598 654.469 352.599 C 654.471 352.598 673.001 346.086 673.003 346.085 Z"/>
<path fill="#00ffff" fill-rule="evenodd" stroke="none" d="M 580.819 123.514 C 580.818 123.516 574.262 142.030 574.261 142.032 C 574.261 142.031 573.019 133.094 573.019 133.093 C 573.018 133.093 564.015 133.687 564.014 133.687 C 564.015 133.686 580.817 123.515 580.819 123.514 Z"/>
<path fill="#00ffff" fill-rule="evenodd" stroke="none" d="M 139.305 124.128 C 139.306 124.130 147.083 142.165 147.084 142.167 C 147.084 142.166 147.726 133.166 147.727 133.165 C 147.727 133.165 156.750 133.158 156.751 133.158 C 156.749 133.157 139.307 124.129 139.305 124.128 Z"/>
<path fill="#be0027" fill-rule="evenodd" stroke="none" d="M 360.072 662.986 C 360.073 662.983 369.999 635.190 370.000 635.188 C 369.999 635.189 360.073 644.424 360.072 644.425 C 360.071 644.424 350.145 635.189 350.144 635.188 C 350.145 635.190 360.071 662.983 360.072 662.986 Z"/>
</g>
</g>
</svg>
