<?xml version="1.0" encoding="utf-8"?>
<!-- Generator: Moho 12.5 build 22414 -->
<!DOCTYPE svg PUBLIC "-//W3C//DTD SVG 1.1//EN" "http://www.w3.org/Graphics/SVG/1.1/DTD/svg11.dtd">
<svg version="1.1" id="Frame_0" xmlns="http://www.w3.org/2000/svg" xmlns:xlink="http://www.w3.org/1999/xlink" width="720px" height="720px">
<g id="eye_up">
<g id="eye_up">
<path fill="#000000" fill-rule="evenodd" stroke="#000000" stroke-width="4" stroke-linecap="round" stroke-linejoin="round" d="M 288.610 252.739 C 288.610 213.225 320.486 181.349 360.000 181.349 C 399.514 181.349 431.390 213.225 431.390 252.739 C 431.390 292.253 399.514 324.129 360.000 324.129 C 320.486 324.129 288.610 292.253 288.610 252.739 M 190.758 205.617 C 232.692 176.274 290.130 158.833 360.000 158.833 C 427.815 158.833 483.919 175.263 528.780 205.357 C 533.056 220.288 535.319 236.242 535.319 252.739 C 535.318 349.776 457.038 428.058 360.000 428.058 C 262.962 428.058 184.681 349.776 184.681 252.739 C 184.681 236.242 186.944 220.288 190.758 205.617 Z"/>
<path fill="none" stroke="#ffffff" stroke-width="1" stroke-linecap="butt" stroke-linejoin="round" d="M 360.000 181.349 C 399.514 181.349 431.390 213.225 431.390 252.739 "/>
<path fill="none" stroke="#ffffff" stroke-width="1" stroke-linecap="butt" stroke-linejoin="round" d="M 431.390 252.739 C 431.390 292.253 399.514 324.129 360.000 324.129 "/>
<path fill="none" stroke="#ffffff" stroke-width="1" stroke-linecap="butt" stroke-linejoin="round" d="M 360.000 324.129 C 320.486 324.129 288.610 292.253 288.610 252.739 "/>
<path fill="none" stroke="#ffffff" stroke-width="1" stroke-linecap="butt" stroke-linejoin="round" d="M 288.610 252.739 C 288.610 213.225 320.486 181.349 360.000 181.349 "/>
<path fill="#ffffff" fill-rule="evenodd" stroke="#000000" stroke-width="4" stroke-linecap="round" stroke-linejoin="round" d="M 360.000 181.349 C 399.514 181.349 431.390 213.225 431.390 252.739 C 431.390 292.253 399.514 324.129 360.000 324.129 C 320.486 324.129 288.610 292.253 288.610 252.739 C 288.610 213.225 320.486 181.349 360.000 181.349 Z"/>
<path fill="none" stroke="#ffffff" stroke-width="1" stroke-linecap="butt" stroke-linejoin="round" d="M 184.681 252.739 C 184.681 236.242 186.944 220.288 190.758 205.617 "/>
<path fill="none" stroke="#ffffff" stroke-width="1" stroke-linecap="butt" stroke-linejoin="round" d="M 528.780 205.357 C 533.056 220.288 535.319 236.242 535.319 252.739 "/>
<path fill="none" stroke="#ffffff" stroke-width="1" stroke-linecap="butt" stroke-linejoin="round" d="M 535.319 252.739 C 535.318 349.776 457.038 428.058 360.000 428.058 "/>
<path fill="none" stroke="#ffffff" stroke-width="1" stroke-linecap="butt" stroke-linejoin="round" d="M 360.000 428.058 C 262.962 428.058 184.681 349.776 184.681 252.739 "/>
<path fill="#ffffff" fill-rule="evenodd" stroke="#000000" stroke-width="4" stroke-linecap="round" stroke-linejoin="round" d="M 184.681 252.739 C 184.681 236.242 186.944 220.288 190.758 205.617 C 95.434 249.801 23.897 359.985 23.881 360.000 C 23.914 360.020 154.501 561.167 360.000 561.167 C 565.499 561.167 696.086 360.020 696.119 360.000 C 696.103 359.985 623.044 247.457 528.780 205.357 C 533.056 220.288 535.319 236.242 535.319 252.739 C 535.318 349.776 457.038 428.058 360.000 428.058 C 262.962 428.058 184.681 349.776 184.681 252.739 Z"/>
</g>
<g id="specs_2">
<path fill="#ff0000" fill-rule="evenodd" stroke="none" d="M 360.000 662.331 C 360.001 662.335 372.416 697.097 372.417 697.101 C 372.416 697.100 360.001 685.548 360.000 685.547 C 359.999 685.548 347.584 697.100 347.583 697.101 C 347.584 697.097 359.999 662.335 360.000 662.331 Z"/>
<path fill="#0000ff" fill-rule="evenodd" stroke="none" d="M 360.000 143.090 C 360.001 143.092 367.212 163.285 367.213 163.287 C 367.212 163.287 360.001 156.577 360.000 156.576 C 359.999 156.577 352.788 163.287 352.787 163.287 C 352.788 163.285 359.999 143.092 360.000 143.090 Z"/>
<path fill="#00ff00" fill-rule="evenodd" stroke="none" d="M 18.822 361.002 C 18.824 361.002 38.981 353.687 38.983 353.687 C 38.982 353.687 32.308 360.933 32.308 360.934 C 32.308 360.935 39.055 368.112 39.055 368.113 C 39.053 368.112 18.824 361.003 18.822 361.002 Z"/>
<path fill="#ffff00" fill-rule="evenodd" stroke="none" d="M 118.004 482.711 C 118.005 482.709 126.954 463.224 126.955 463.222 C 126.955 463.223 127.426 473.063 127.426 473.064 C 127.427 473.064 137.274 473.302 137.275 473.302 C 137.273 473.303 118.006 482.710 118.004 482.711 Z"/>
<path fill="#ffff00" fill-rule="evenodd" stroke="none" d="M 601.996 482.473 C 601.995 482.471 592.657 463.169 592.656 463.167 C 592.656 463.168 592.383 473.015 592.383 473.016 C 592.382 473.016 582.540 473.452 582.539 473.452 C 582.541 473.453 601.994 482.472 601.996 482.473 Z"/>
<path fill="#00ff00" fill-rule="evenodd" stroke="none" d="M 701.178 361.002 C 701.176 361.002 681.019 353.687 681.017 353.687 C 681.018 353.687 687.692 360.933 687.692 360.934 C 687.692 360.935 680.945 368.112 680.945 368.113 C 680.947 368.112 701.176 361.003 701.178 361.002 Z"/>
<path fill="#00ffff" fill-rule="evenodd" stroke="none" d="M 601.061 231.155 C 601.060 231.157 593.902 251.370 593.901 251.372 C 593.901 251.371 592.546 241.614 592.546 241.613 C 592.545 241.613 582.716 242.262 582.715 242.262 C 582.717 242.261 601.059 231.156 601.061 231.155 Z"/>
<path fill="#00ffff" fill-rule="evenodd" stroke="none" d="M 119.051 231.825 C 119.051 231.827 127.541 251.517 127.542 251.519 C 127.542 251.518 128.244 241.692 128.244 241.691 C 128.245 241.691 138.095 241.684 138.096 241.684 C 138.094 241.683 119.052 231.826 119.051 231.825 Z"/>
<path fill="#be0027" fill-rule="evenodd" stroke="none" d="M 360.000 584.691 C 360.001 584.688 372.416 549.925 372.417 549.922 C 372.416 549.923 360.001 561.474 360.000 561.476 C 359.999 561.474 347.584 549.923 347.583 549.922 C 347.584 549.925 359.999 584.688 360.000 584.691 Z"/>
</g>
</g>
</svg>
