<?xml version="1.0" encoding="utf-8"?>
<!-- Generator: Moho 13.5.1 build 20210623 -->
<!DOCTYPE svg PUBLIC "-//W3C//DTD SVG 1.1//EN" "http://www.w3.org/Graphics/SVG/1.1/DTD/svg11.dtd">
<svg version="1.1" id="Frame_0" xmlns="http://www.w3.org/2000/svg" xmlns:xlink="http://www.w3.org/1999/xlink" width="720px" height="720px">
<g id="eyeball">
<g id="starburst_2">
<path fill="#000000" fill-rule="evenodd" stroke="none" d="M 360.000 533.201 C 360.002 533.195 377.796 466.562 377.798 466.556 C 377.801 466.562 408.345 528.342 408.348 528.348 C 408.348 528.341 411.742 459.664 411.742 459.658 C 411.746 459.663 453.338 514.416 453.342 514.422 C 453.341 514.415 442.908 446.530 442.906 446.523 C 442.912 446.528 494.022 492.372 494.027 492.377 C 494.025 492.371 470.602 427.852 470.600 427.845 C 470.606 427.849 529.446 463.162 529.452 463.166 C 529.449 463.160 494.136 404.319 494.132 404.314 C 494.138 404.316 558.657 427.738 558.664 427.741 C 558.659 427.736 512.815 376.625 512.810 376.620 C 512.817 376.621 580.702 387.054 580.709 387.055 C 580.703 387.051 525.950 345.460 525.944 345.455 C 525.951 345.455 594.628 342.062 594.635 342.061 C 594.628 342.058 532.849 311.514 532.843 311.511 C 532.849 311.510 599.482 293.715 599.488 293.713 C 599.482 293.711 532.849 275.917 532.843 275.915 C 532.849 275.912 594.628 245.368 594.635 245.365 C 594.628 245.365 525.951 241.971 525.944 241.971 C 525.950 241.967 580.703 200.376 580.709 200.372 C 580.702 200.373 512.817 210.806 512.810 210.807 C 512.815 210.802 558.659 159.691 558.664 159.686 C 558.657 159.688 494.138 183.111 494.132 183.113 C 494.136 183.107 529.449 124.267 529.452 124.261 C 529.446 124.264 470.606 159.578 470.600 159.581 C 470.603 159.575 494.025 95.056 494.028 95.049 C 494.022 95.054 442.912 140.899 442.906 140.903 C 442.908 140.896 453.341 73.011 453.342 73.005 C 453.338 73.010 411.746 127.763 411.742 127.769 C 411.742 127.762 408.348 59.085 408.348 59.079 C 408.345 59.085 377.801 120.864 377.798 120.871 C 377.796 120.864 360.002 54.232 360.000 54.225 C 359.998 54.232 342.204 120.864 342.202 120.871 C 342.199 120.864 311.655 59.085 311.652 59.079 C 311.652 59.085 308.258 127.762 308.258 127.769 C 308.254 127.763 266.662 73.010 266.658 73.005 C 266.659 73.011 277.092 140.896 277.094 140.903 C 277.088 140.899 225.978 95.054 225.973 95.049 C 225.975 95.056 249.398 159.575 249.400 159.581 C 249.394 159.578 190.554 124.264 190.548 124.261 C 190.551 124.267 225.864 183.107 225.868 183.113 C 225.862 183.110 161.343 159.688 161.336 159.686 C 161.341 159.691 207.185 210.802 207.190 210.807 C 207.183 210.806 139.298 200.373 139.291 200.372 C 139.297 200.376 194.050 241.967 194.056 241.971 C 194.049 241.971 125.372 245.365 125.365 245.365 C 125.372 245.368 187.151 275.912 187.157 275.915 C 187.151 275.917 120.518 293.711 120.512 293.713 C 120.518 293.715 187.151 311.510 187.157 311.511 C 187.151 311.514 125.372 342.058 125.365 342.061 C 125.372 342.062 194.049 345.455 194.056 345.455 C 194.050 345.460 139.297 387.051 139.291 387.055 C 139.298 387.054 207.183 376.621 207.190 376.620 C 207.185 376.625 161.341 427.735 161.336 427.740 C 161.343 427.738 225.862 404.315 225.868 404.313 C 225.864 404.319 190.551 463.160 190.548 463.166 C 190.554 463.162 249.394 427.849 249.400 427.845 C 249.397 427.852 225.975 492.371 225.972 492.377 C 225.978 492.372 277.088 446.528 277.094 446.523 C 277.092 446.530 266.659 514.415 266.658 514.422 C 266.662 514.416 308.254 459.663 308.258 459.658 C 308.258 459.664 311.652 528.341 311.652 528.348 C 311.655 528.342 342.199 466.562 342.202 466.556 C 342.204 466.562 359.998 533.195 360.000 533.201 Z"/>
</g>
<g id="eyeball">
<radialGradient id="CFF21D5D-28C3-4C68-9AB6-9D56F4044F2C_0" cx="40.25%" cy="54.60%" r="68.93%">
<stop offset="0.00%" style="stop-color:rgb(255,255,255);stop-opacity:1.00" />
<stop offset="50.00%" style="stop-color:rgb(255,255,255);stop-opacity:1.00" />
<stop offset="100.00%" style="stop-color:rgb(0,0,0);stop-opacity:1.00" />
</radialGradient>
<path fill="url(#CFF21D5D-28C3-4C68-9AB6-9D56F4044F2C_0)" fill-rule="evenodd" stroke="#000000" stroke-width="3" stroke-linejoin="round" d="M 360.000 82.066 C 477.145 82.066 571.647 176.568 571.647 293.713 C 571.647 410.858 477.145 505.360 360.000 505.360 C 242.855 505.360 148.353 410.858 148.353 293.713 C 148.353 176.568 242.855 82.066 360.000 82.066 Z"/>
<path fill="#000000" fill-rule="evenodd" stroke="#ffffff" stroke-width="3" stroke-linejoin="round" d="M 314.992 190.780 C 385.805 190.780 442.930 247.905 442.930 318.718 C 442.930 389.531 385.805 446.656 314.992 446.656 C 244.179 446.656 187.054 389.531 187.054 318.718 C 187.054 247.905 244.179 190.780 314.992 190.780 Z"/>
<path fill="#ffffff" fill-rule="evenodd" stroke="#000000" stroke-width="3" stroke-linejoin="round" d="M 299.566 296.866 C 316.997 296.866 331.059 310.928 331.059 328.359 C 331.059 345.791 316.997 359.853 299.566 359.853 C 282.134 359.853 268.072 345.791 268.072 328.359 C 268.072 310.928 282.134 296.866 299.566 296.866 Z"/>
</g>
<g id="specs_2">
<path fill="#ff00ff" fill-rule="evenodd" stroke="none" d="M 215.459 412.397 C 215.475 412.397 384.458 412.397 384.475 412.397 C 384.475 412.380 384.475 243.397 384.475 243.380 C 384.458 243.380 215.475 243.380 215.459 243.380 C 215.459 243.397 215.459 412.380 215.459 412.397 Z"/>
<path fill="#ff0000" fill-rule="evenodd" stroke="none" d="M 360.057 682.723 C 360.058 682.725 367.963 704.859 367.964 704.861 C 367.963 704.861 360.058 697.506 360.057 697.505 C 360.056 697.506 352.151 704.861 352.151 704.861 C 352.151 704.859 360.056 682.725 360.057 682.723 Z"/>
<path fill="#0000ff" fill-rule="evenodd" stroke="none" d="M 360.057 75.822 C 360.058 75.823 364.649 88.681 364.650 88.682 C 364.649 88.681 360.058 84.409 360.057 84.409 C 360.057 84.409 355.465 88.681 355.464 88.682 C 355.465 88.681 360.057 75.823 360.057 75.822 Z"/>
<path fill="#00ff00" fill-rule="evenodd" stroke="none" d="M 143.154 294.095 C 143.155 294.094 155.989 289.437 155.990 289.437 C 155.990 289.437 151.741 294.051 151.740 294.051 C 151.741 294.052 156.036 298.622 156.037 298.622 C 156.036 298.622 143.155 294.095 143.154 294.095 Z"/>
<path fill="#ffff00" fill-rule="evenodd" stroke="none" d="M 206.394 448.306 C 206.394 448.305 212.093 435.898 212.093 435.897 C 212.093 435.897 212.393 442.163 212.393 442.163 C 212.394 442.163 218.664 442.315 218.665 442.315 C 218.663 442.316 206.395 448.305 206.394 448.306 Z"/>
<path fill="#ffff00" fill-rule="evenodd" stroke="none" d="M 514.564 448.154 C 514.563 448.153 508.617 435.863 508.616 435.862 C 508.616 435.862 508.442 442.132 508.442 442.133 C 508.441 442.133 502.175 442.410 502.175 442.410 C 502.176 442.411 514.562 448.154 514.564 448.154 Z"/>
<path fill="#00ff00" fill-rule="evenodd" stroke="none" d="M 577.626 294.095 C 577.624 294.094 564.791 289.437 564.789 289.437 C 564.790 289.437 569.039 294.051 569.039 294.051 C 569.039 294.052 564.743 298.622 564.743 298.622 C 564.744 298.622 577.624 294.095 577.626 294.095 Z"/>
<path fill="#00ffff" fill-rule="evenodd" stroke="none" d="M 513.547 139.379 C 513.546 139.381 508.988 152.250 508.988 152.252 C 508.988 152.251 508.125 146.039 508.124 146.038 C 508.124 146.038 501.865 146.451 501.865 146.451 C 501.866 146.450 513.545 139.380 513.547 139.379 Z"/>
<path fill="#00ffff" fill-rule="evenodd" stroke="none" d="M 206.639 139.806 C 206.639 139.807 212.045 152.344 212.046 152.346 C 212.046 152.345 212.493 146.089 212.493 146.088 C 212.493 146.088 218.765 146.083 218.766 146.083 C 218.765 146.083 206.640 139.807 206.639 139.806 Z"/>
<path fill="#be0027" fill-rule="evenodd" stroke="none" d="M 360.057 518.884 C 360.058 518.882 367.963 496.748 367.964 496.746 C 367.963 496.746 360.058 504.102 360.057 504.102 C 360.056 504.102 352.151 496.746 352.151 496.746 C 352.151 496.748 360.056 518.882 360.057 518.884 Z"/>
</g>
</g>
</svg>
