<?xml version="1.0" encoding="utf-8"?>
<!-- Generator: Moho 12.5 build 22414 -->
<!DOCTYPE svg PUBLIC "-//W3C//DTD SVG 1.1//EN" "http://www.w3.org/Graphics/SVG/1.1/DTD/svg11.dtd">
<svg version="1.1" id="Frame_0" xmlns="http://www.w3.org/2000/svg" xmlns:xlink="http://www.w3.org/1999/xlink" width="720px" height="720px">
<g id="eye_closed">
<g id="eye_closed">
<path fill="#ffffff" fill-rule="evenodd" stroke="none" d="M 315.824 399.052 C 315.827 399.052 345.744 402.331 345.747 402.332 C 351.677 432.067 363.535 491.528 363.537 491.537 C 363.538 491.528 372.142 432.242 376.444 402.594 C 376.448 402.594 407.010 399.777 407.013 399.776 C 418.546 427.205 441.609 482.053 441.612 482.062 C 441.612 482.053 438.243 423.364 436.559 394.015 C 436.562 394.014 464.936 385.467 464.939 385.466 C 481.278 409.650 513.951 458.011 513.956 458.018 C 513.954 458.010 499.327 402.196 492.012 374.284 C 492.015 374.283 517.632 360.625 517.635 360.624 C 538.108 380.742 579.049 420.973 579.055 420.979 C 579.051 420.972 554.128 370.087 541.664 344.640 C 541.666 344.638 563.956 326.490 563.958 326.488 C 587.773 341.832 635.394 372.516 635.401 372.521 C 635.396 372.514 601.383 328.388 584.374 306.322 C 584.376 306.319 602.768 284.299 602.770 284.297 C 629.008 294.270 681.476 314.212 681.484 314.215 C 681.478 314.210 639.830 278.451 619.002 260.569 C 619.004 260.566 635.480 228.466 635.481 228.463 C 635.455 228.477 539.325 371.876 367.141 372.621 C 195.081 373.366 93.284 231.625 93.256 231.611 C 93.257 231.613 103.804 250.639 103.805 250.641 C 82.042 276.274 38.522 327.531 38.516 327.539 C 38.524 327.534 94.772 296.688 122.900 281.263 C 122.902 281.266 141.051 303.555 141.053 303.557 C 123.027 330.333 86.980 383.877 86.974 383.885 C 86.982 383.879 136.471 343.944 161.219 323.973 C 161.221 323.975 183.241 342.367 183.244 342.369 C 170.589 371.569 145.284 429.959 145.280 429.968 C 145.286 429.961 186.408 382.390 206.972 358.602 C 206.974 358.603 232.247 372.527 232.250 372.529 C 225.453 403.112 211.860 464.268 211.858 464.278 C 211.863 464.270 243.233 410.764 258.920 384.008 C 258.923 384.009 286.827 392.896 286.830 392.896 C 286.265 423.699 285.135 485.295 285.135 485.304 C 285.138 485.295 305.594 427.802 315.824 399.052 Z"/>
</g>
<g id="specs_2">
<path fill="#ff0000" fill-rule="evenodd" stroke="none" d="M 360.000 251.878 C 359.999 251.874 347.584 217.112 347.583 217.108 C 347.584 217.109 359.999 228.661 360.000 228.662 C 360.001 228.661 372.416 217.109 372.417 217.108 C 372.416 217.112 360.001 251.874 360.000 251.878 Z"/>
</g>
</g>
</svg>
