<?xml version="1.0" encoding="utf-8"?>
<!-- Generator: Moho 13.5.1 build 20210623 -->
<!DOCTYPE svg PUBLIC "-//W3C//DTD SVG 1.1//EN" "http://www.w3.org/Graphics/SVG/1.1/DTD/svg11.dtd">
<svg version="1.1" id="Frame_0" xmlns="http://www.w3.org/2000/svg" xmlns:xlink="http://www.w3.org/1999/xlink" width="720px" height="720px">
<g id="face_nest">
<g id="face">
<path id="S1" fill="#ffffff" fill-rule="evenodd" stroke="#000000" stroke-width="4" stroke-linecap="round" stroke-linejoin="round" d="M 360.000 553.097 C 466.878 553.097 553.097 466.878 553.097 360.000 C 553.097 253.122 466.878 166.903 360.000 166.903 C 253.122 166.903 166.903 253.122 166.903 360.000 C 166.903 466.878 253.122 553.097 360.000 553.097 Z"/>
</g>
<g id="specs_2">
<path fill="#ff00ff" fill-rule="evenodd" stroke="none" d="M 173.497 451.563 C 173.515 451.563 356.604 451.563 356.622 451.563 C 356.622 451.544 356.622 268.456 356.622 268.437 C 356.604 268.437 173.515 268.437 173.497 268.437 C 173.497 268.456 173.497 451.544 173.497 451.563 Z"/>
<path fill="#ff00ff" fill-rule="evenodd" stroke="none" d="M 546.503 451.563 C 546.485 451.563 363.396 451.563 363.378 451.563 C 363.378 451.544 363.378 268.456 363.378 268.437 C 363.396 268.437 546.485 268.437 546.503 268.437 C 546.503 268.456 546.503 451.544 546.503 451.563 Z"/>
<path fill="#ff0000" fill-rule="evenodd" stroke="none" d="M 360.000 662.708 C 360.001 662.711 372.432 697.517 372.433 697.521 C 372.432 697.520 360.001 685.954 360.000 685.952 C 359.999 685.954 347.568 697.520 347.567 697.521 C 347.568 697.517 359.999 662.711 360.000 662.708 Z"/>
<path fill="#00ff00" fill-rule="evenodd" stroke="none" d="M 172.998 360.082 C 173.000 360.082 189.153 354.220 189.155 354.219 C 189.154 354.220 183.806 360.027 183.806 360.027 C 183.806 360.028 189.213 365.780 189.213 365.781 C 189.211 365.780 173.000 360.083 172.998 360.082 Z"/>
<path fill="#00ff00" fill-rule="evenodd" stroke="none" d="M 547.002 360.082 C 547.000 360.082 530.847 354.220 530.845 354.219 C 530.846 354.220 536.194 360.027 536.194 360.027 C 536.194 360.028 530.787 365.780 530.787 365.781 C 530.789 365.780 547.000 360.083 547.002 360.082 Z"/>
<path fill="#00ff00" fill-rule="evenodd" stroke="none" d="M 198.093 453.572 C 198.094 453.571 209.152 440.418 209.153 440.416 C 209.153 440.417 207.425 448.120 207.425 448.121 C 207.425 448.121 214.984 450.400 214.985 450.400 C 214.983 450.400 198.094 453.572 198.093 453.572 Z"/>
<path fill="#00ff00" fill-rule="evenodd" stroke="none" d="M 521.990 266.570 C 521.988 266.570 505.068 269.571 505.066 269.571 C 505.067 269.571 512.602 271.926 512.603 271.927 C 512.602 271.927 510.796 279.612 510.796 279.613 C 510.797 279.611 521.988 266.571 521.990 266.570 Z"/>
<path fill="#00ff00" fill-rule="evenodd" stroke="none" d="M 266.570 521.990 C 266.570 521.988 269.571 505.068 269.571 505.066 C 269.571 505.067 271.926 512.602 271.927 512.603 C 271.927 512.602 279.612 510.796 279.613 510.796 C 279.611 510.797 266.571 521.988 266.570 521.990 Z"/>
<path fill="#00ff00" fill-rule="evenodd" stroke="none" d="M 453.572 198.093 C 453.571 198.094 440.418 209.152 440.416 209.153 C 440.417 209.153 448.120 207.425 448.121 207.425 C 448.121 207.425 450.400 214.984 450.400 214.985 C 450.400 214.983 453.572 198.094 453.572 198.093 Z"/>
<path fill="#00ff00" fill-rule="evenodd" stroke="none" d="M 360.082 547.002 C 360.082 547.000 354.220 530.847 354.219 530.845 C 354.220 530.846 360.027 536.194 360.027 536.194 C 360.028 536.194 365.780 530.787 365.781 530.787 C 365.780 530.789 360.083 547.000 360.082 547.002 Z"/>
<path fill="#00ff00" fill-rule="evenodd" stroke="none" d="M 360.082 172.998 C 360.082 173.000 354.220 189.153 354.219 189.155 C 354.220 189.154 360.027 183.806 360.027 183.806 C 360.028 183.806 365.780 189.213 365.781 189.213 C 365.780 189.211 360.083 173.000 360.082 172.998 Z"/>
<path fill="#00ff00" fill-rule="evenodd" stroke="none" d="M 198.011 266.570 C 198.012 266.570 214.932 269.571 214.934 269.571 C 214.933 269.571 207.398 271.926 207.397 271.927 C 207.398 271.927 209.204 279.612 209.204 279.613 C 209.203 279.611 198.012 266.571 198.011 266.570 Z"/>
<path fill="#00ff00" fill-rule="evenodd" stroke="none" d="M 521.907 453.572 C 521.906 453.571 510.848 440.418 510.847 440.416 C 510.847 440.417 512.575 448.120 512.575 448.121 C 512.575 448.121 505.016 450.400 505.015 450.400 C 505.017 450.400 521.906 453.572 521.907 453.572 Z"/>
<path fill="#00ff00" fill-rule="evenodd" stroke="none" d="M 266.428 198.093 C 266.429 198.094 279.582 209.152 279.584 209.153 C 279.583 209.153 271.880 207.425 271.879 207.425 C 271.879 207.425 269.600 214.984 269.600 214.985 C 269.600 214.983 266.428 198.094 266.428 198.093 Z"/>
<path fill="#00ff00" fill-rule="evenodd" stroke="none" d="M 453.430 521.990 C 453.430 521.988 450.429 505.068 450.429 505.066 C 450.429 505.067 448.074 512.602 448.073 512.603 C 448.073 512.602 440.388 510.796 440.387 510.796 C 440.389 510.797 453.429 521.988 453.430 521.990 Z"/>
</g>
</g>
</svg>
