<?xml version="1.0" encoding="utf-8"?>
<!-- Generator: Moho 13.5 build 20210422 -->
<!DOCTYPE svg PUBLIC "-//W3C//DTD SVG 1.1//EN" "http://www.w3.org/Graphics/SVG/1.1/DTD/svg11.dtd">
<svg version="1.1" id="Frame_0" xmlns="http://www.w3.org/2000/svg" xmlns:xlink="http://www.w3.org/1999/xlink" width="720px" height="720px">
<g id="face_nest">
<g id="face">
<path id="S1" fill="#ffffff" fill-rule="evenodd" stroke="#000000" stroke-width="4" stroke-linecap="round" stroke-linejoin="round" d="M 360.000 552.857 C 466.745 552.857 552.857 466.745 552.857 360.000 C 552.857 253.255 466.745 167.143 360.000 167.143 C 253.255 167.143 167.143 253.255 167.143 360.000 C 167.143 466.745 253.255 552.857 360.000 552.857 Z"/>
</g>
<g id="specs_2">
<path fill="#ff00ff" fill-rule="evenodd" stroke="none" d="M 173.729 451.449 C 173.747 451.449 356.608 451.449 356.626 451.449 C 356.626 451.430 356.626 268.570 356.626 268.551 C 356.608 268.551 173.747 268.551 173.729 268.551 C 173.729 268.570 173.729 451.430 173.729 451.449 Z"/>
<path fill="#ff0000" fill-rule="evenodd" stroke="none" d="M 360.000 662.331 C 360.001 662.335 372.416 697.097 372.417 697.101 C 372.416 697.100 360.001 685.548 360.000 685.547 C 359.999 685.548 347.584 697.100 347.583 697.101 C 347.584 697.097 359.999 662.335 360.000 662.331 Z"/>
<path fill="#00ff00" fill-rule="evenodd" stroke="none" d="M 173.231 360.082 C 173.232 360.082 189.366 354.227 189.367 354.226 C 189.367 354.227 184.025 360.027 184.025 360.027 C 184.025 360.028 189.425 365.773 189.426 365.774 C 189.424 365.773 173.232 360.083 173.231 360.082 Z"/>
<path fill="#00ff00" fill-rule="evenodd" stroke="none" d="M 546.769 360.082 C 546.768 360.082 530.634 354.227 530.633 354.226 C 530.633 354.227 535.975 360.027 535.975 360.027 C 535.975 360.028 530.575 365.773 530.575 365.774 C 530.576 365.773 546.768 360.083 546.769 360.082 Z"/>
<path fill="#00ff00" fill-rule="evenodd" stroke="none" d="M 198.294 453.456 C 198.295 453.454 209.340 440.318 209.341 440.316 C 209.341 440.317 207.615 448.011 207.615 448.011 C 207.615 448.012 215.164 450.287 215.165 450.287 C 215.163 450.288 198.296 453.456 198.294 453.456 Z"/>
<path fill="#00ff00" fill-rule="evenodd" stroke="none" d="M 521.788 266.686 C 521.786 266.687 504.887 269.683 504.885 269.683 C 504.886 269.684 512.412 272.036 512.413 272.036 C 512.412 272.037 510.609 279.712 510.609 279.713 C 510.610 279.712 521.787 266.688 521.788 266.686 Z"/>
<path fill="#00ff00" fill-rule="evenodd" stroke="none" d="M 266.686 521.788 C 266.687 521.786 269.683 504.887 269.683 504.886 C 269.684 504.886 272.036 512.412 272.036 512.413 C 272.037 512.412 279.712 510.609 279.713 510.609 C 279.712 510.610 266.688 521.787 266.686 521.788 Z"/>
<path fill="#00ff00" fill-rule="evenodd" stroke="none" d="M 453.456 198.294 C 453.454 198.295 440.318 209.340 440.316 209.341 C 440.317 209.341 448.011 207.615 448.011 207.615 C 448.012 207.615 450.287 215.164 450.287 215.165 C 450.288 215.163 453.455 198.296 453.456 198.294 Z"/>
<path fill="#00ff00" fill-rule="evenodd" stroke="none" d="M 360.082 546.769 C 360.082 546.768 354.227 530.634 354.226 530.633 C 354.227 530.633 360.027 535.975 360.027 535.975 C 360.028 535.975 365.773 530.575 365.774 530.575 C 365.773 530.576 360.083 546.768 360.082 546.769 Z"/>
<path fill="#00ff00" fill-rule="evenodd" stroke="none" d="M 360.082 173.231 C 360.081 173.232 354.227 189.366 354.226 189.367 C 354.227 189.367 360.027 184.025 360.027 184.025 C 360.028 184.025 365.773 189.425 365.774 189.426 C 365.773 189.424 360.083 173.232 360.082 173.231 Z"/>
<path fill="#00ff00" fill-rule="evenodd" stroke="none" d="M 198.212 266.686 C 198.214 266.687 215.113 269.683 215.115 269.683 C 215.114 269.684 207.588 272.036 207.587 272.036 C 207.588 272.037 209.391 279.712 209.391 279.713 C 209.390 279.712 198.213 266.688 198.212 266.686 Z"/>
<path fill="#00ff00" fill-rule="evenodd" stroke="none" d="M 521.706 453.456 C 521.705 453.454 510.660 440.318 510.659 440.316 C 510.659 440.317 512.385 448.011 512.385 448.011 C 512.385 448.012 504.836 450.287 504.835 450.287 C 504.837 450.288 521.704 453.456 521.706 453.456 Z"/>
<path fill="#00ff00" fill-rule="evenodd" stroke="none" d="M 266.544 198.294 C 266.546 198.295 279.682 209.340 279.684 209.341 C 279.683 209.341 271.990 207.615 271.989 207.615 C 271.988 207.615 269.713 215.164 269.713 215.165 C 269.712 215.163 266.545 198.296 266.544 198.294 Z"/>
<path fill="#00ff00" fill-rule="evenodd" stroke="none" d="M 453.314 521.788 C 453.313 521.786 450.317 504.887 450.317 504.886 C 450.316 504.886 447.964 512.412 447.964 512.413 C 447.963 512.412 440.288 510.609 440.287 510.609 C 440.288 510.610 453.312 521.787 453.314 521.788 Z"/>
<path fill="#ff00ff" fill-rule="evenodd" stroke="none" d="M 546.271 451.449 C 546.253 451.449 363.392 451.449 363.374 451.449 C 363.374 451.430 363.374 268.570 363.374 268.551 C 363.392 268.551 546.253 268.551 546.271 268.551 C 546.271 268.570 546.271 451.430 546.271 451.449 Z"/>
</g>
</g>
</svg>
