<?xml version="1.0" encoding="utf-8"?>
<!-- Generator: Moho 13.5 build 20210422 -->
<!DOCTYPE svg PUBLIC "-//W3C//DTD SVG 1.1//EN" "http://www.w3.org/Graphics/SVG/1.1/DTD/svg11.dtd">
<svg version="1.1" id="Frame_0" xmlns="http://www.w3.org/2000/svg" xmlns:xlink="http://www.w3.org/1999/xlink" width="720px" height="720px">
<g id="fire">
<g id="fire">
<radialGradient id="9448877F-C06B-43B6-86DE-CF1ABCA428C6_0" cx="43.42%" cy="83.52%" r="118.33%">
<stop offset="28.24%" style="stop-color:rgb(255,255,255);stop-opacity:1.00" />
<stop offset="100.00%" style="stop-color:rgb(0,0,0);stop-opacity:1.00" />
</radialGradient>
<path fill="url(#9448877F-C06B-43B6-86DE-CF1ABCA428C6_0)" fill-rule="evenodd" stroke="#000000" stroke-width="4" stroke-linecap="round" stroke-linejoin="round" d="M 346.787 651.576 C 205.454 652.158 90.213 501.712 244.220 371.101 C 216.541 464.032 245.347 512.915 269.862 499.310 C 321.089 470.879 289.492 346.193 248.875 293.379 C 222.305 258.831 251.282 198.683 287.811 178.787 C 259.845 220.824 279.046 279.861 302.873 283.148 C 323.774 286.031 337.491 238.385 347.584 210.678 C 369.575 150.310 321.442 129.224 360.353 55.733 C 369.799 125.299 430.990 195.865 391.971 275.106 C 378.259 302.955 363.845 349.791 395.506 376.230 C 423.077 399.252 464.833 310.222 438.775 278.966 C 567.447 347.619 361.733 459.669 431.405 504.439 C 479.238 535.176 477.221 452.701 510.895 424.950 C 554.690 540.342 509.625 650.905 346.787 651.576 Z"/>
<path fill="#ffffff" fill-rule="evenodd" stroke="#000000" stroke-width="4" stroke-linecap="round" stroke-linejoin="round" d="M 336.808 641.236 C 298.776 637.412 245.785 611.154 225.908 578.505 C 184.028 509.713 209.107 469.856 209.105 469.846 C 209.111 469.852 210.661 534.492 269.596 534.817 C 289.611 534.927 316.831 465.918 317.764 446.322 C 319.823 403.062 310.538 382.697 302.812 356.493 C 296.411 334.779 273.155 287.115 273.152 287.108 C 273.157 287.110 298.903 316.811 321.643 307.141 C 361.343 290.258 377.129 186.448 377.135 186.436 C 377.134 186.445 371.657 251.816 367.160 279.547 C 363.881 299.768 350.339 325.483 352.822 346.309 C 364.250 442.123 448.818 370.146 448.827 370.148 C 448.822 370.155 438.779 397.003 400.659 438.480 C 373.014 468.560 392.245 534.161 423.063 542.659 C 469.003 555.327 500.348 509.056 500.356 509.053 C 500.347 509.065 510.400 592.927 413.123 632.417 C 390.940 641.422 359.452 643.512 336.808 641.236 Z"/>
<path fill="#ffffff" fill-rule="evenodd" stroke="#000000" stroke-width="4" stroke-linecap="round" stroke-linejoin="round" d="M 320.450 624.575 C 246.147 598.073 237.119 550.507 237.111 550.500 C 237.117 550.500 276.940 581.091 300.961 553.861 C 321.688 530.365 336.780 488.529 341.289 457.524 C 343.667 441.169 339.794 418.891 337.010 402.601 C 332.721 377.508 326.727 330.949 326.726 330.942 C 326.727 330.947 337.000 368.779 343.849 382.494 C 350.411 395.634 365.845 415.400 380.495 414.956 C 391.286 414.629 379.375 438.478 379.375 438.480 C 379.374 438.484 368.936 463.645 367.053 477.688 C 364.640 495.677 358.035 523.123 368.173 538.178 C 399.070 584.060 458.900 563.940 458.909 563.942 C 458.904 563.948 431.806 606.641 413.372 616.325 C 388.596 629.340 346.810 633.977 320.450 624.575 Z"/>
</g>
<g id="specs_">
<path fill="#ff00ff" fill-rule="evenodd" stroke="none" d="M 230.146 650.755 C 230.172 650.755 489.828 650.755 489.854 650.755 C 489.854 650.732 489.854 413.064 489.854 413.041 C 489.828 413.041 230.172 413.041 230.146 413.041 C 230.146 413.064 230.146 650.732 230.146 650.755 Z"/>
<path fill="#ff0000" fill-rule="evenodd" stroke="none" d="M 360.000 664.930 C 360.001 664.934 372.432 699.740 372.433 699.743 C 372.432 699.742 360.001 688.176 360.000 688.175 C 359.999 688.176 347.568 699.742 347.567 699.743 C 347.568 699.740 359.999 664.934 360.000 664.930 Z"/>
<path fill="#0000ff" fill-rule="evenodd" stroke="none" d="M 360.000 46.897 C 360.001 46.899 367.221 67.117 367.222 67.119 C 367.221 67.118 360.001 60.400 360.000 60.399 C 359.999 60.400 352.779 67.118 352.778 67.119 C 352.779 67.117 359.999 46.899 360.000 46.897 Z"/>
<path fill="#00ff00" fill-rule="evenodd" stroke="none" d="M 169.026 449.500 C 169.028 449.499 189.210 442.176 189.212 442.176 C 189.211 442.176 182.529 449.431 182.529 449.432 C 182.529 449.433 189.284 456.619 189.284 456.620 C 189.282 456.619 169.028 449.501 169.026 449.500 Z"/>
<path fill="#ffff00" fill-rule="evenodd" stroke="none" d="M 221.423 621.424 C 221.424 621.422 230.384 601.913 230.385 601.911 C 230.385 601.912 230.857 611.764 230.857 611.765 C 230.858 611.765 240.718 612.004 240.719 612.004 C 240.717 612.004 221.425 621.423 221.423 621.424 Z"/>
<path fill="#ffff00" fill-rule="evenodd" stroke="none" d="M 490.941 621.185 C 490.940 621.183 481.590 601.857 481.589 601.855 C 481.589 601.856 481.315 611.716 481.315 611.717 C 481.314 611.717 471.461 612.154 471.460 612.154 C 471.462 612.154 490.939 621.184 490.941 621.185 Z"/>
<path fill="#00ff00" fill-rule="evenodd" stroke="none" d="M 530.736 449.500 C 530.734 449.499 510.552 442.176 510.550 442.176 C 510.551 442.176 517.233 449.431 517.233 449.432 C 517.233 449.433 510.478 456.619 510.477 456.620 C 510.480 456.619 530.734 449.501 530.736 449.500 Z"/>
<path fill="#00ffff" fill-rule="evenodd" stroke="none" d="M 481.500 294.706 C 481.500 294.708 474.332 314.946 474.332 314.948 C 474.332 314.947 472.974 305.178 472.974 305.177 C 472.973 305.177 463.132 305.826 463.131 305.826 C 463.133 305.825 481.498 294.707 481.500 294.706 Z"/>
<path fill="#00ffff" fill-rule="evenodd" stroke="none" d="M 249.813 191.199 C 249.814 191.201 258.315 210.915 258.315 210.917 C 258.315 210.916 259.018 201.079 259.018 201.078 C 259.019 201.078 268.882 201.070 268.883 201.070 C 268.881 201.069 249.815 191.200 249.813 191.199 Z"/>
<path fill="#be0027" fill-rule="evenodd" stroke="none" d="M 359.957 664.926 C 359.958 664.924 369.002 639.600 369.003 639.597 C 369.002 639.598 359.958 648.013 359.957 648.014 C 359.957 648.013 350.913 639.598 350.912 639.597 C 350.913 639.600 359.957 664.924 359.957 664.926 Z"/>
</g>
</g>
</svg>
