<?xml version="1.0" encoding="utf-8"?>
<!-- Generator: Moho 12.5 build 22414 -->
<!DOCTYPE svg PUBLIC "-//W3C//DTD SVG 1.1//EN" "http://www.w3.org/Graphics/SVG/1.1/DTD/svg11.dtd">
<svg version="1.1" id="Frame_0" xmlns="http://www.w3.org/2000/svg" xmlns:xlink="http://www.w3.org/1999/xlink" width="720px" height="720px">
<g id="fisheye">
<g id="fisheye">
<path fill="#000000" fill-rule="evenodd" stroke="#ffffff" stroke-width="2" stroke-linecap="round" stroke-linejoin="round" d="M 155.980 336.561 C 155.980 310.426 177.063 289.343 203.198 289.343 C 229.332 289.344 250.415 310.426 250.415 336.561 C 250.415 362.695 229.332 383.778 203.198 383.778 C 177.063 383.778 155.980 362.695 155.980 336.561 M 246.233 483.923 C 126.189 457.580 49.775 336.654 49.752 336.561 C 70.978 303.911 125.194 217.717 240.369 187.622 C 307.141 204.039 356.643 264.369 356.643 336.561 C 356.643 406.204 310.574 464.809 246.233 483.923 Z"/>
<path fill="none" stroke="#ffffff" stroke-width="1" stroke-linecap="butt" stroke-linejoin="round" d="M 356.643 336.561 C 356.643 406.204 310.574 464.809 246.233 483.923 "/>
<path fill="none" stroke="#ffffff" stroke-width="1" stroke-linecap="butt" stroke-linejoin="round" d="M 240.369 187.622 C 307.141 204.039 356.643 264.369 356.643 336.561 "/>
<path fill="#ffffff" fill-rule="evenodd" stroke="none" d="M 356.643 336.561 C 356.643 406.204 310.574 464.809 246.233 483.923 C 270.319 492.346 327.514 495.825 327.520 495.826 C 327.524 495.826 388.195 491.152 388.201 491.151 C 388.207 491.150 438.639 478.102 438.644 478.100 C 438.650 478.097 488.426 453.596 488.432 453.593 C 488.436 453.589 528.986 422.806 528.990 422.802 C 528.995 422.798 556.018 399.166 568.805 383.264 C 587.667 359.807 604.384 336.561 604.384 336.561 C 604.384 336.560 588.995 310.152 568.805 286.556 C 556.899 272.641 533.947 251.148 533.942 251.144 C 533.938 251.141 492.564 222.833 492.559 222.830 C 492.553 222.827 439.475 198.325 439.469 198.323 C 439.463 198.321 384.081 181.972 384.074 181.970 C 384.068 181.970 327.523 177.296 327.520 177.295 C 327.514 177.296 267.128 181.165 240.369 187.622 C 307.141 204.039 356.643 264.369 356.643 336.561 Z"/>
<path fill="none" stroke="#ffffff" stroke-width="1" stroke-linecap="butt" stroke-linejoin="round" d="M 203.198 289.343 C 229.332 289.344 250.415 310.426 250.415 336.561 "/>
<path fill="none" stroke="#ffffff" stroke-width="1" stroke-linecap="butt" stroke-linejoin="round" d="M 250.415 336.561 C 250.415 362.695 229.332 383.778 203.198 383.778 "/>
<path fill="none" stroke="#ffffff" stroke-width="1" stroke-linecap="butt" stroke-linejoin="round" d="M 203.198 383.778 C 177.063 383.778 155.980 362.695 155.980 336.561 "/>
<path fill="none" stroke="#ffffff" stroke-width="1" stroke-linecap="butt" stroke-linejoin="round" d="M 155.980 336.561 C 155.980 310.426 177.063 289.343 203.198 289.343 "/>
<path fill="#ffffff" fill-rule="evenodd" stroke="none" d="M 203.198 289.343 C 229.332 289.344 250.415 310.426 250.415 336.561 C 250.415 362.695 229.332 383.778 203.198 383.778 C 177.063 383.778 155.980 362.695 155.980 336.561 C 155.980 310.426 177.063 289.343 203.198 289.343 Z"/>
<path fill="none" stroke="#000000" stroke-width="2" stroke-linecap="round" stroke-linejoin="round" d="M 327.520 177.295 C 336.481 136.212 335.537 104.208 327.165 76.331 M 327.520 495.826 C 338.450 519.765 338.471 564.430 327.165 593.025 M 568.805 383.264 C 586.448 388.823 599.460 401.417 606.146 415.566 M 528.990 422.802 C 547.993 431.148 559.979 443.699 569.829 460.962 M 488.432 453.593 C 508.553 465.621 522.675 480.475 530.211 505.534 M 438.644 478.100 C 459.677 493.800 473.927 518.367 478.211 549.279 M 388.201 491.151 C 404.452 510.216 410.421 542.275 410.529 578.993 M 568.805 286.556 C 586.867 272.498 597.245 262.248 602.845 247.187 M 533.942 251.144 C 556.421 236.312 572.087 222.764 583.036 202.616 M 492.559 222.830 C 516.084 200.707 531.025 182.798 540.941 156.394 M 439.469 198.323 C 464.489 171.140 477.128 145.608 482.338 116.775 M 384.074 181.970 C 406.374 150.059 412.166 120.624 413.831 91.188 M 604.384 336.561 C 626.889 343.489 641.860 343.705 666.947 364.774 M 670.248 309.172 C 641.690 331.508 604.391 336.558 604.384 336.561 C 604.390 336.561 639.703 336.561 666.122 336.561 M 666.947 266.102 C 652.516 303.690 604.390 336.554 604.384 336.561 C 604.390 336.568 653.600 371.080 666.947 408.671 M 240.369 187.622 C 307.141 204.039 356.643 264.369 356.643 336.561 C 356.643 406.204 310.574 464.809 246.233 483.923 C 270.319 492.346 327.514 495.825 327.520 495.826 C 327.524 495.826 388.195 491.152 388.201 491.151 C 388.207 491.150 438.639 478.102 438.644 478.100 C 438.650 478.097 488.426 453.596 488.432 453.593 C 488.436 453.589 528.986 422.806 528.990 422.802 C 528.995 422.798 556.018 399.166 568.805 383.264 C 587.667 359.807 604.384 336.561 604.384 336.561 C 604.384 336.560 588.995 310.152 568.805 286.556 C 556.899 272.641 533.947 251.148 533.942 251.144 C 533.938 251.141 492.564 222.833 492.559 222.830 C 492.553 222.827 439.475 198.325 439.469 198.323 C 439.463 198.321 384.081 181.972 384.074 181.970 C 384.068 181.970 327.523 177.296 327.520 177.295 C 327.514 177.296 267.128 181.165 240.369 187.622 "/>
</g>
<g id="specs_2">
<path fill="#ff0000" fill-rule="evenodd" stroke="none" d="M 360.000 672.992 C 360.001 672.995 371.064 703.971 371.065 703.974 C 371.064 703.973 360.001 693.680 360.000 693.679 C 359.999 693.680 348.936 703.973 348.935 703.974 C 348.936 703.971 359.999 672.995 360.000 672.992 Z"/>
<path fill="#0000ff" fill-rule="evenodd" stroke="none" d="M 360.000 31.350 C 360.001 31.352 366.427 49.345 366.427 49.347 C 366.427 49.347 360.001 43.368 360.000 43.367 C 359.999 43.368 353.573 49.347 353.573 49.347 C 353.573 49.345 359.999 31.352 360.000 31.350 Z"/>
<path fill="#00ff00" fill-rule="evenodd" stroke="none" d="M 41.959 336.809 C 41.961 336.809 59.922 330.291 59.924 330.291 C 59.923 330.291 53.977 336.748 53.976 336.749 C 53.977 336.749 59.988 343.145 59.988 343.145 C 59.987 343.145 41.961 336.810 41.959 336.809 Z"/>
<path fill="#ffff00" fill-rule="evenodd" stroke="none" d="M 144.367 552.618 C 144.368 552.616 152.343 535.254 152.343 535.252 C 152.343 535.253 152.763 544.020 152.763 544.021 C 152.764 544.021 161.539 544.234 161.539 544.234 C 161.538 544.235 144.369 552.617 144.367 552.618 Z"/>
<path fill="#ffff00" fill-rule="evenodd" stroke="none" d="M 575.633 552.405 C 575.632 552.403 567.311 535.204 567.310 535.203 C 567.310 535.204 567.066 543.978 567.066 543.979 C 567.065 543.979 558.296 544.367 558.295 544.367 C 558.297 544.368 575.631 552.404 575.633 552.405 Z"/>
<path fill="#00ff00" fill-rule="evenodd" stroke="none" d="M 664.009 336.809 C 664.007 336.809 646.047 330.291 646.045 330.291 C 646.045 330.291 651.992 336.748 651.992 336.749 C 651.992 336.749 645.981 343.145 645.980 343.145 C 645.982 343.145 664.007 336.810 664.009 336.809 Z"/>
<path fill="#00ffff" fill-rule="evenodd" stroke="none" d="M 574.799 120.295 C 574.799 120.297 568.420 138.307 568.419 138.309 C 568.419 138.308 567.212 129.614 567.211 129.613 C 567.211 129.614 558.452 130.192 558.452 130.192 C 558.453 130.191 574.798 120.296 574.799 120.295 Z"/>
<path fill="#00ffff" fill-rule="evenodd" stroke="none" d="M 145.300 120.892 C 145.301 120.894 152.866 138.439 152.867 138.441 C 152.867 138.440 153.492 129.685 153.492 129.684 C 153.493 129.684 162.270 129.677 162.271 129.677 C 162.269 129.676 145.302 120.893 145.300 120.892 Z"/>
<path fill="#be0027" fill-rule="evenodd" stroke="none" d="M 360.000 633.924 C 360.001 633.920 371.064 602.945 371.065 602.942 C 371.064 602.943 360.001 613.236 360.000 613.237 C 359.999 613.236 348.936 602.943 348.935 602.942 C 348.936 602.945 359.999 633.920 360.000 633.924 Z"/>
</g>
</g>
</svg>
