<?xml version="1.0" encoding="utf-8"?>
<!-- Generator: Moho 13.5 build 20210422 -->
<!DOCTYPE svg PUBLIC "-//W3C//DTD SVG 1.1//EN" "http://www.w3.org/Graphics/SVG/1.1/DTD/svg11.dtd">
<svg version="1.1" id="Frame_0" xmlns="http://www.w3.org/2000/svg" xmlns:xlink="http://www.w3.org/1999/xlink" width="720px" height="720px">
<g id="halves">
<g id="fish_tail">
<g id="fish_tail">
<path fill="#ffffff" fill-rule="evenodd" stroke="#000000" stroke-width="4" stroke-linecap="round" stroke-linejoin="round" d="M 179.856 273.212 C 179.391 272.351 236.300 196.588 271.013 189.354 C 299.001 183.523 358.970 191.957 366.177 219.622 C 375.116 253.937 309.733 296.247 275.019 303.480 C 247.032 309.312 193.453 298.359 179.856 273.212 M 179.856 439.793 C 179.391 440.653 236.299 516.418 271.013 523.651 C 299.001 529.483 358.970 521.049 366.177 493.384 C 375.116 459.069 309.733 416.759 275.019 409.526 C 247.032 403.694 193.453 414.646 179.856 439.793 Z"/>
<path fill="none" stroke="#000000" stroke-width="4" stroke-linecap="round" stroke-linejoin="round" d="M 284.439 433.056 C 306.334 450.970 328.228 468.884 350.122 486.797 M 258.166 440.222 C 279.264 460.126 300.363 480.030 321.461 499.934 M 227.116 447.388 C 247.816 467.291 268.516 487.195 289.217 507.099 M 284.439 277.805 C 305.537 258.697 326.636 239.590 347.734 220.482 M 249.806 271.834 C 272.895 251.134 295.984 230.434 319.073 209.734 M 221.145 268.251 C 242.641 246.755 264.137 225.259 285.634 203.763 "/>
<path fill="#ffffff" fill-rule="evenodd" stroke="#000000" stroke-width="4" stroke-linecap="round" stroke-linejoin="round" d="M 89.651 174.354 C 89.607 282.109 89.594 423.481 89.790 537.968 C 100.177 537.260 109.216 536.457 118.237 535.448 C 255.532 520.086 309.122 421.525 394.812 420.975 C 422.306 420.799 460.722 440.035 486.422 449.802 C 537.727 469.300 628.877 561.292 660.701 529.689 C 690.994 499.607 590.052 413.673 590.052 361.429 C 590.052 309.186 690.994 223.252 660.701 193.169 C 628.877 161.566 538.769 256.558 486.422 273.057 C 460.916 281.096 421.498 293.099 394.812 291.338 C 309.306 285.694 255.573 191.855 118.237 176.865 C 108.989 175.856 99.758 175.045 89.651 174.354 Z"/>
<path fill="none" stroke="#000000" stroke-width="4" stroke-linecap="round" stroke-linejoin="round" d="M 524.992 373.823 C 542.201 374.540 559.411 375.257 576.621 375.974 M 523.916 396.411 C 545.787 401.430 567.658 406.449 589.528 411.469 M 520.690 416.847 C 552.599 431.189 584.509 445.530 616.418 459.871 M 514.236 440.510 C 557.619 465.249 601.002 489.988 644.384 514.727 M 526.068 350.160 C 543.277 348.009 560.487 345.857 577.697 343.706 M 524.992 325.421 C 546.504 320.043 568.016 314.664 589.528 309.286 M 519.614 303.908 C 551.882 290.643 584.150 277.377 616.418 264.111 M 514.236 283.472 C 557.619 258.733 601.002 233.994 644.384 209.256 "/>
</g>
<g id="specs">
<path fill="#ff00ff" fill-rule="evenodd" stroke="none" d="M 101.148 451.873 C 101.168 451.873 294.967 451.873 294.987 451.873 C 294.987 451.854 294.987 258.054 294.987 258.035 C 294.967 258.035 101.168 258.035 101.148 258.035 C 101.148 258.054 101.148 451.854 101.148 451.873 Z"/>
<path fill="#ff0000" fill-rule="evenodd" stroke="none" d="M 127.488 360.000 C 127.482 360.002 71.860 379.867 71.854 379.869 C 71.856 379.867 90.339 360.002 90.341 360.000 C 90.339 359.998 71.856 340.133 71.854 340.131 C 71.860 340.133 127.482 359.998 127.488 360.000 Z"/>
<path fill="#0000ff" fill-rule="evenodd" stroke="none" d="M 52.993 360.000 C 52.999 360.002 108.621 379.867 108.627 379.869 C 108.625 379.867 90.142 360.002 90.140 360.000 C 90.142 359.998 108.625 340.133 108.627 340.131 C 108.621 340.133 52.999 359.998 52.993 360.000 Z"/>
<path fill="none" stroke="#ffff00" stroke-width="6" stroke-linecap="round" stroke-linejoin="round" d="M 89.651 174.354 C 89.607 282.109 89.594 423.481 89.790 537.968 "/>
</g>
</g>
</g>
</svg>
