<?xml version="1.0" encoding="utf-8"?>
<!-- Generator: Moho 12.5 build 22414 -->
<!DOCTYPE svg PUBLIC "-//W3C//DTD SVG 1.1//EN" "http://www.w3.org/Graphics/SVG/1.1/DTD/svg11.dtd">
<svg version="1.1" id="Frame_0" xmlns="http://www.w3.org/2000/svg" xmlns:xlink="http://www.w3.org/1999/xlink" width="720px" height="720px">
<g id="fish">
<g id="fish">
<path fill="#ffffff" fill-rule="evenodd" stroke="#000000" stroke-width="4" stroke-linecap="round" stroke-linejoin="round" d="M 202.245 285.722 C 202.261 284.937 213.442 227.802 230.522 213.696 C 243.065 203.337 274.384 190.108 286.016 201.480 C 305.024 220.062 274.973 274.395 252.084 287.911 C 239.786 295.173 201.955 300.001 202.245 285.722 M 368.180 310.938 C 367.917 310.452 400.088 267.623 419.712 263.534 C 435.533 260.237 469.434 265.005 473.508 280.644 C 478.561 300.042 441.600 323.960 421.976 328.049 C 406.155 331.346 375.867 325.154 368.180 310.938 M 368.180 405.107 C 367.917 405.593 400.088 448.423 419.712 452.512 C 435.533 455.809 469.434 451.041 473.508 435.402 C 478.561 416.004 441.600 392.086 421.976 387.997 C 406.155 384.700 375.867 390.891 368.180 405.107 Z"/>
<path fill="none" stroke="#000000" stroke-width="4" stroke-linecap="round" stroke-linejoin="round" d="M 427.301 401.299 C 439.678 411.425 452.055 421.552 464.432 431.679 M 412.449 405.349 C 424.376 416.601 436.303 427.853 448.230 439.105 M 394.896 409.400 C 406.598 420.652 418.300 431.904 430.002 443.155 M 427.301 313.535 C 439.228 302.734 451.155 291.932 463.082 281.130 M 407.723 310.160 C 420.776 298.458 433.828 286.756 446.880 275.055 M 391.521 308.135 C 403.673 295.983 415.825 283.831 427.977 271.679 M 251.880 270.528 C 262.629 249.565 273.379 228.602 284.129 207.639 M 234.247 274.176 C 243.507 252.119 252.768 230.062 262.029 208.005 M 216.613 275.392 C 223.777 256.780 230.941 238.169 238.105 219.557 "/>
<path fill="#ffffff" fill-rule="evenodd" stroke="#000000" stroke-width="4" stroke-linecap="round" stroke-linejoin="round" d="M 114.271 307.632 C 124.949 307.632 133.563 316.246 133.563 326.924 C 133.563 337.602 124.949 346.216 114.271 346.216 C 103.593 346.216 94.979 337.602 94.979 326.924 C 94.979 316.246 103.593 307.632 114.271 307.632 M 640.003 455.925 C 657.127 438.920 600.065 390.341 600.065 360.808 C 600.065 331.275 657.127 282.696 640.003 265.691 C 622.012 247.825 571.074 301.524 541.482 310.851 C 527.063 315.395 504.780 322.181 489.695 321.185 C 441.358 317.995 410.983 264.947 333.347 256.474 C 328.119 255.903 322.901 255.445 317.187 255.054 C 236.327 249.515 160.790 269.038 146.355 274.256 C 130.732 279.904 42.478 303.727 27.095 357.827 C 25.311 364.101 27.900 371.904 33.454 379.705 C 64.819 423.755 136.721 438.364 146.355 441.399 C 159.576 445.563 238.071 466.013 317.266 460.605 C 323.138 460.205 328.248 459.751 333.347 459.181 C 410.960 450.497 441.254 394.780 489.695 394.469 C 505.237 394.370 526.954 405.244 541.482 410.765 C 570.485 421.787 622.012 473.790 640.003 455.925 Z"/>
<path fill="#ffffff" fill-rule="evenodd" stroke="none" d="M 230.522 506.304 C 243.065 516.663 274.384 529.892 286.016 518.520 C 305.024 499.938 274.973 445.606 252.084 432.089 C 239.786 424.827 216.509 433.562 202.245 434.278 C 202.245 434.278 213.442 492.198 230.522 506.304 Z"/>
<path fill="none" stroke="#000000" stroke-width="4" stroke-linecap="round" stroke-linejoin="round" d="M 199.284 381.320 C 188.122 419.642 155.795 441.611 155.791 441.617 M 196.319 318.057 C 196.319 318.063 208.793 348.675 199.284 381.320 M 202.245 434.278 C 202.245 434.278 213.442 492.198 230.522 506.304 C 243.065 516.663 274.384 529.892 286.016 518.520 C 305.024 499.938 274.973 445.606 252.084 432.089 C 239.786 424.827 216.509 433.562 202.245 434.278 "/>
<path fill="none" stroke="#000000" stroke-width="4" stroke-linecap="round" stroke-linejoin="round" d="M 563.286 367.814 C 573.014 368.219 582.743 368.625 592.472 369.030 M 562.678 380.583 C 575.041 383.420 587.405 386.258 599.768 389.095 M 560.854 392.136 C 578.892 400.243 596.931 408.350 614.969 416.457 M 557.206 405.512 C 581.730 419.497 606.254 433.482 630.779 447.467 M 563.894 354.437 C 573.623 353.221 583.351 352.005 593.080 350.789 M 563.286 340.452 C 575.447 337.412 587.608 334.372 599.768 331.332 M 560.246 328.291 C 578.487 320.792 596.728 313.293 614.969 305.794 M 557.206 316.739 C 581.730 302.754 606.254 288.769 630.779 274.784 M 243.052 437.423 C 257.387 458.729 271.722 480.035 286.058 501.341 M 228.859 439.937 C 243.375 465.139 257.891 490.341 272.407 515.544 M 214.032 441.428 C 224.093 463.694 234.155 485.961 244.216 508.227 "/>
<path fill="none" stroke="#000000" stroke-width="4" stroke-linecap="round" stroke-linejoin="round" d="M 36.115 381.191 C 51.722 381.393 67.328 381.596 82.934 381.799 "/>
</g>
<g id="specs_2">
<path fill="#ff00ff" fill-rule="evenodd" stroke="none" d="M 213.312 422.947 C 213.329 422.947 385.737 422.947 385.754 422.947 C 385.754 422.932 385.754 279.093 385.754 279.078 C 385.737 279.078 213.329 279.078 213.312 279.078 C 213.312 279.093 213.312 422.932 213.312 422.947 Z"/>
<path fill="#ff0000" fill-rule="evenodd" stroke="none" d="M 680.030 361.689 C 680.033 361.688 711.476 350.458 711.480 350.457 C 711.479 350.458 701.030 361.688 701.029 361.689 C 701.030 361.690 711.479 372.919 711.480 372.921 C 711.476 372.919 680.033 361.690 680.030 361.689 Z"/>
<path fill="#0000ff" fill-rule="evenodd" stroke="none" d="M 130.503 264.926 C 130.504 264.928 137.027 283.193 137.027 283.195 C 137.027 283.194 130.504 277.125 130.503 277.124 C 130.502 277.125 123.980 283.194 123.979 283.195 C 123.980 283.193 130.502 264.928 130.503 264.926 Z"/>
<path fill="#00ff00" fill-rule="evenodd" stroke="none" d="M 326.157 466.291 C 326.157 466.291 323.742 459.636 323.742 459.636 C 323.742 459.636 326.134 461.839 326.135 461.839 C 326.135 461.839 328.505 459.612 328.505 459.612 C 328.505 459.613 326.157 466.291 326.157 466.291 Z"/>
<path fill="#ffff00" fill-rule="evenodd" stroke="none" d="M 500.268 410.972 C 500.267 410.970 492.266 389.380 492.265 389.377 C 492.266 389.378 500.098 396.491 500.099 396.491 C 500.099 396.491 507.755 389.194 507.756 389.193 C 507.755 389.195 500.268 410.969 500.268 410.972 Z"/>
<path fill="#00ff00" fill-rule="evenodd" stroke="none" d="M 326.157 249.810 C 326.157 249.810 323.742 256.465 323.742 256.465 C 323.742 256.465 326.134 254.262 326.135 254.261 C 326.135 254.262 328.505 256.489 328.505 256.489 C 328.505 256.489 326.157 249.810 326.157 249.810 Z"/>
<path fill="#be0027" fill-rule="evenodd" stroke="none" d="M 613.753 361.111 C 613.751 361.110 591.117 353.027 591.115 353.026 C 591.116 353.027 598.637 361.110 598.638 361.111 C 598.637 361.112 591.116 369.195 591.115 369.196 C 591.117 369.195 613.751 361.112 613.753 361.111 Z"/>
<path fill="#ffff00" fill-rule="evenodd" stroke="none" d="M 500.268 304.244 C 500.267 304.246 492.266 325.836 492.265 325.838 C 492.266 325.838 500.098 318.725 500.099 318.725 C 500.099 318.725 507.755 326.022 507.756 326.023 C 507.755 326.021 500.268 304.246 500.268 304.244 Z"/>
</g>
</g>
</svg>
