<?xml version="1.0" encoding="utf-8"?>
<!-- Generator: Moho 13.5 build 20210422 -->
<!DOCTYPE svg PUBLIC "-//W3C//DTD SVG 1.1//EN" "http://www.w3.org/Graphics/SVG/1.1/DTD/svg11.dtd">
<svg version="1.1" id="Frame_0" xmlns="http://www.w3.org/2000/svg" xmlns:xlink="http://www.w3.org/1999/xlink" width="720px" height="720px">
<g id="halves">
<g id="fish_head">
<g id="fish_head">
<path fill="#ffffff" fill-rule="evenodd" stroke="#000000" stroke-width="4" stroke-linecap="round" stroke-linejoin="round" d="M 436.976 101.192 C 459.164 82.867 514.567 59.466 535.143 79.582 C 568.767 112.454 515.608 208.566 475.118 232.477 C 453.364 245.323 386.442 253.863 386.954 228.605 C 386.983 227.216 406.763 126.146 436.976 101.192 Z"/>
<path fill="none" stroke="#000000" stroke-width="4" stroke-linecap="round" stroke-linejoin="round" d="M 474.757 201.726 C 493.773 164.643 512.789 127.560 531.805 90.477 M 443.565 208.180 C 459.947 169.161 476.329 130.143 492.711 91.125 M 412.372 210.330 C 425.045 177.407 437.718 144.484 450.390 111.561 "/>
<path fill="#ffffff" fill-rule="evenodd" stroke="#000000" stroke-width="4" stroke-linecap="round" stroke-linejoin="round" d="M 590.285 174.354 C 590.241 282.109 590.228 423.481 590.424 537.968 C 450.332 547.535 311.476 511.359 288.087 503.992 C 271.045 498.624 143.853 472.779 88.370 394.858 C 78.545 381.059 73.963 367.255 77.119 356.157 C 104.331 260.454 260.450 218.312 288.087 208.321 C 313.623 199.090 447.245 164.554 590.285 174.354 M 231.332 335.617 C 212.442 335.617 197.204 320.379 197.204 301.490 C 197.204 282.600 212.442 267.362 231.332 267.362 C 250.221 267.362 265.458 282.601 265.458 301.490 C 265.458 320.379 250.221 335.617 231.332 335.617 Z"/>
<path fill="#ffffff" fill-rule="evenodd" stroke="none" d="M 436.976 618.808 C 459.164 637.133 514.567 660.534 535.143 640.418 C 568.767 607.546 515.608 511.434 475.118 487.523 C 453.364 474.677 412.187 490.130 386.954 491.395 C 386.954 491.395 406.763 593.854 436.976 618.808 Z"/>
<path fill="none" stroke="#000000" stroke-width="4" stroke-linecap="round" stroke-linejoin="round" d="M 381.717 397.714 C 361.971 465.505 304.787 504.368 304.779 504.379 M 376.472 285.803 C 376.473 285.815 398.538 339.966 381.717 397.714 M 386.954 491.395 C 386.954 491.395 406.763 593.854 436.976 618.808 C 459.164 637.133 514.567 660.534 535.143 640.418 C 568.767 607.546 515.608 511.434 475.118 487.523 C 453.364 474.677 412.187 490.130 386.954 491.395 "/>
<path fill="none" stroke="#000000" stroke-width="4" stroke-linecap="round" stroke-linejoin="round" d="M 459.141 496.960 C 484.500 534.649 509.858 572.339 535.217 610.028 M 434.035 501.405 C 459.713 545.988 485.391 590.570 511.069 635.153 M 407.805 504.044 C 425.604 543.432 443.403 582.821 461.201 622.209 "/>
<path fill="none" stroke="#000000" stroke-width="4" stroke-linecap="round" stroke-linejoin="round" d="M 93.077 397.486 C 120.684 397.844 148.291 398.203 175.898 398.561 "/>
</g>
<g id="specs_2">
<path fill="#ff00ff" fill-rule="evenodd" stroke="none" d="M 314.301 460.128 C 314.326 460.128 568.005 460.128 568.031 460.128 C 568.031 460.104 568.031 216.910 568.031 216.886 C 568.005 216.886 314.326 216.886 314.301 216.886 C 314.301 216.910 314.301 460.104 314.301 460.128 Z"/>
<path fill="#0000ff" fill-rule="evenodd" stroke="none" d="M 51.451 366.148 C 51.455 366.147 83.764 354.608 83.767 354.607 C 83.766 354.608 73.030 366.147 73.029 366.148 C 73.030 366.150 83.766 377.689 83.767 377.690 C 83.764 377.689 51.455 366.150 51.451 366.148 Z"/>
<path fill="#00ff00" fill-rule="evenodd" stroke="none" d="M 551.327 556.256 C 551.326 556.253 541.385 528.858 541.384 528.855 C 541.385 528.856 551.233 537.927 551.234 537.928 C 551.235 537.927 560.990 528.757 560.991 528.756 C 560.990 528.759 551.328 556.253 551.327 556.256 Z"/>
<path fill="#00ff00" fill-rule="evenodd" stroke="none" d="M 550.073 155.298 C 550.072 155.301 540.131 182.696 540.130 182.699 C 540.131 182.698 549.980 173.628 549.981 173.627 C 549.982 173.628 559.737 182.797 559.738 182.798 C 559.737 182.795 550.074 155.301 550.073 155.298 Z"/>
<path fill="#ff0000" fill-rule="evenodd" stroke="none" d="M 554.827 360.000 C 554.833 359.998 610.455 340.133 610.461 340.131 C 610.459 340.133 591.976 359.998 591.974 360.000 C 591.976 360.002 610.459 379.867 610.461 379.869 C 610.455 379.867 554.833 360.002 554.827 360.000 Z"/>
<path fill="#be0027" fill-rule="evenodd" stroke="none" d="M 626.859 360.000 C 626.853 359.998 571.231 340.133 571.225 340.131 C 571.227 340.133 589.710 359.998 589.712 360.000 C 589.710 360.002 571.227 379.867 571.225 379.869 C 571.231 379.867 626.853 360.002 626.859 360.000 Z"/>
<path fill="none" stroke="#ffff00" stroke-width="4" stroke-linecap="round" stroke-linejoin="round" d="M 590.285 174.354 C 590.241 282.109 590.228 423.481 590.424 537.968 "/>
<path fill="#00ff00" fill-rule="evenodd" stroke="none" d="M 172.093 556.256 C 172.092 556.253 162.152 528.858 162.151 528.855 C 162.152 528.856 172.000 537.927 172.001 537.928 C 172.002 537.927 181.757 528.757 181.758 528.756 C 181.757 528.759 172.094 556.253 172.093 556.256 Z"/>
<path fill="#00ff00" fill-rule="evenodd" stroke="none" d="M 170.430 157.840 C 170.429 157.842 160.489 185.238 160.488 185.241 C 160.489 185.240 170.337 176.169 170.338 176.168 C 170.339 176.169 180.094 185.339 180.095 185.340 C 180.094 185.337 170.431 157.842 170.430 157.840 Z"/>
</g>
</g>
</g>
</svg>
