<?xml version="1.0" encoding="utf-8"?>
<!-- Generator: Moho 12.5 build 22414 -->
<!DOCTYPE svg PUBLIC "-//W3C//DTD SVG 1.1//EN" "http://www.w3.org/Graphics/SVG/1.1/DTD/svg11.dtd">
<svg version="1.1" id="Frame_0" xmlns="http://www.w3.org/2000/svg" xmlns:xlink="http://www.w3.org/1999/xlink" width="720px" height="720px">
<g id="flame_2">
<g id="flames">
<path fill="#ffffff" fill-rule="evenodd" stroke="#000000" stroke-width="4" stroke-linecap="round" stroke-linejoin="round" d="M 360.000 32.255 C 313.132 111.122 315.217 198.187 359.394 247.621 C 414.013 308.742 429.767 397.372 360.397 410.481 C 296.309 422.592 252.716 311.154 284.784 208.936 C 222.351 282.618 198.482 339.581 182.069 398.243 C 157.691 485.371 201.376 642.891 360.000 642.640 C 506.500 642.408 579.077 504.936 532.092 360.000 C 487.594 222.739 368.024 189.558 360.000 32.255 Z"/>
</g>
<g id="specs_2">
<path fill="#ff00ff" fill-rule="evenodd" stroke="none" d="M 262.868 611.453 C 262.887 611.453 457.113 611.453 457.132 611.453 C 457.132 611.434 457.132 417.208 457.132 417.189 C 457.113 417.189 262.887 417.189 262.868 417.189 C 262.868 417.208 262.868 611.434 262.868 611.453 Z"/>
<path fill="#ff0000" fill-rule="evenodd" stroke="none" d="M 360.000 643.155 C 360.001 643.158 371.871 676.393 371.872 676.397 C 371.871 676.396 360.001 665.352 360.000 665.351 C 359.999 665.352 348.129 676.396 348.128 676.397 C 348.129 676.393 359.999 643.158 360.000 643.155 Z"/>
<path fill="#0000ff" fill-rule="evenodd" stroke="none" d="M 360.000 17.397 C 360.001 17.399 366.895 36.705 366.896 36.706 C 366.895 36.706 360.001 30.291 360.000 30.290 C 359.999 30.291 353.105 36.706 353.104 36.706 C 353.105 36.705 359.999 17.399 360.000 17.397 Z"/>
<path fill="#00ff00" fill-rule="evenodd" stroke="none" d="M 159.390 438.182 C 159.392 438.181 181.904 430.012 181.906 430.012 C 181.906 430.012 174.452 438.105 174.451 438.106 C 174.452 438.107 181.986 446.123 181.987 446.124 C 181.984 446.123 159.392 438.183 159.390 438.182 Z"/>
<path fill="#ffff00" fill-rule="evenodd" stroke="none" d="M 221.288 600.939 C 221.288 600.938 228.469 585.305 228.469 585.303 C 228.469 585.304 228.847 593.198 228.847 593.199 C 228.848 593.199 236.748 593.390 236.749 593.390 C 236.748 593.391 221.289 600.938 221.288 600.939 Z"/>
<path fill="#ffff00" fill-rule="evenodd" stroke="none" d="M 498.712 600.748 C 498.712 600.746 491.219 585.260 491.219 585.259 C 491.219 585.260 490.999 593.160 490.999 593.161 C 490.998 593.161 483.103 593.511 483.102 593.511 C 483.104 593.511 498.711 600.747 498.712 600.748 Z"/>
<path fill="#00ff00" fill-rule="evenodd" stroke="none" d="M 560.610 438.182 C 560.608 438.181 538.096 430.012 538.094 430.012 C 538.094 430.012 545.548 438.105 545.549 438.106 C 545.548 438.107 538.014 446.123 538.013 446.124 C 538.016 446.123 560.608 438.183 560.610 438.182 Z"/>
<path fill="#00ffff" fill-rule="evenodd" stroke="none" d="M 466.959 232.396 C 466.958 232.397 462.506 244.967 462.506 244.968 C 462.506 244.967 461.663 238.900 461.663 238.899 C 461.662 238.899 455.550 239.302 455.549 239.302 C 455.551 239.302 466.958 232.396 466.959 232.396 Z"/>
<path fill="#00ffff" fill-rule="evenodd" stroke="none" d="M 253.148 232.812 C 253.149 232.814 258.429 245.058 258.429 245.059 C 258.429 245.059 258.866 238.949 258.866 238.948 C 258.866 238.948 264.992 238.943 264.992 238.943 C 264.991 238.943 253.149 232.813 253.148 232.812 Z"/>
<path fill="#be0027" fill-rule="evenodd" stroke="none" d="M 360.000 671.952 C 360.001 671.949 371.871 638.713 371.872 638.710 C 371.871 638.711 360.001 649.755 360.000 649.756 C 359.999 649.755 348.129 638.711 348.128 638.710 C 348.129 638.713 359.999 671.949 360.000 671.952 Z"/>
</g>
</g>
</svg>
