<?xml version="1.0" encoding="utf-8"?>
<!-- Generator: Moho 12.5 build 22414 -->
<!DOCTYPE svg PUBLIC "-//W3C//DTD SVG 1.1//EN" "http://www.w3.org/Graphics/SVG/1.1/DTD/svg11.dtd">
<svg version="1.1" id="Frame_0" xmlns="http://www.w3.org/2000/svg" xmlns:xlink="http://www.w3.org/1999/xlink" width="720px" height="720px">
<g id="flames">
<g id="flames">
<path fill="#ffffff" fill-rule="evenodd" stroke="#000000" stroke-width="4" stroke-linecap="round" stroke-linejoin="round" d="M 360.000 269.824 C 330.148 320.836 332.660 377.053 361.490 408.567 C 399.237 449.827 408.598 511.694 359.629 519.754 C 316.472 526.857 293.006 453.052 311.544 383.645 C 260.518 435.052 255.119 478.617 256.707 520.209 C 260.614 622.522 337.010 635.062 360.000 692.102 C 390.372 638.282 484.547 598.733 463.293 480.907 C 447.032 390.760 365.765 369.648 360.000 269.824 Z"/>
<path fill="#ffffff" fill-rule="evenodd" stroke="#000000" stroke-width="4" stroke-linecap="round" stroke-linejoin="round" d="M 360.000 29.612 C 344.076 56.824 345.416 86.812 360.795 103.623 C 380.931 125.632 385.924 158.635 359.802 162.935 C 336.780 166.724 324.263 127.353 334.152 90.328 C 306.933 117.751 304.052 140.991 304.899 163.177 C 306.984 217.755 347.736 224.444 360.000 254.872 C 376.202 226.162 426.438 205.065 415.101 142.212 C 406.427 94.124 363.075 82.862 360.000 29.612 Z"/>
<path fill="#ffffff" fill-rule="evenodd" stroke="#000000" stroke-width="4" stroke-linecap="round" stroke-linejoin="round" d="M 461.004 157.154 C 476.928 184.366 475.588 214.354 460.209 231.165 C 440.073 253.175 435.079 286.177 461.202 290.477 C 484.223 294.266 496.741 254.895 486.852 217.871 C 514.071 245.293 516.952 268.533 516.104 290.719 C 514.020 345.297 473.268 351.987 461.004 382.414 C 444.802 353.704 394.566 332.608 405.903 269.754 C 414.577 221.666 457.928 210.404 461.004 157.154 Z"/>
<path fill="#ffffff" fill-rule="evenodd" stroke="#000000" stroke-width="4" stroke-linecap="round" stroke-linejoin="round" d="M 258.996 157.154 C 274.921 184.366 273.581 214.354 258.201 231.165 C 238.065 253.175 233.072 286.177 259.194 290.477 C 282.216 294.266 294.734 254.895 284.845 217.871 C 312.064 245.293 314.944 268.533 314.097 290.719 C 312.013 345.297 271.260 351.987 258.996 382.414 C 242.795 353.704 192.558 332.608 203.896 269.754 C 212.570 221.666 255.921 210.404 258.996 157.154 Z"/>
</g>
<g id="specs_2">
<path fill="#ff00ff" fill-rule="evenodd" stroke="none" d="M 290.230 608.422 C 290.244 608.422 429.756 608.422 429.770 608.422 C 429.770 608.408 429.770 468.895 429.770 468.881 C 429.756 468.881 290.244 468.881 290.230 468.881 C 290.230 468.895 290.230 608.408 290.230 608.422 Z"/>
<path fill="#ff0000" fill-rule="evenodd" stroke="none" d="M 360.000 679.164 C 360.001 679.168 371.871 712.403 371.872 712.407 C 371.871 712.405 360.001 701.361 360.000 701.360 C 359.999 701.361 348.129 712.405 348.128 712.407 C 348.129 712.403 359.999 679.168 360.000 679.164 Z"/>
<path fill="#0000ff" fill-rule="evenodd" stroke="none" d="M 360.000 17.397 C 360.001 17.399 366.895 36.704 366.896 36.706 C 366.895 36.706 360.001 30.291 360.000 30.290 C 359.999 30.291 353.105 36.706 353.104 36.706 C 353.105 36.704 359.999 17.399 360.000 17.397 Z"/>
<path fill="#00ff00" fill-rule="evenodd" stroke="none" d="M 224.946 396.295 C 224.948 396.295 240.103 390.796 240.105 390.795 C 240.104 390.796 235.086 396.244 235.086 396.245 C 235.086 396.245 240.158 401.641 240.159 401.642 C 240.157 401.641 224.948 396.296 224.946 396.295 Z"/>
<path fill="#ffff00" fill-rule="evenodd" stroke="none" d="M 231.567 628.582 C 231.568 628.581 238.215 614.106 238.216 614.105 C 238.216 614.106 238.566 621.415 238.566 621.415 C 238.567 621.415 245.882 621.593 245.882 621.593 C 245.881 621.593 231.568 628.581 231.567 628.582 Z"/>
<path fill="#ffff00" fill-rule="evenodd" stroke="none" d="M 488.433 628.405 C 488.432 628.403 481.496 614.065 481.495 614.064 C 481.495 614.065 481.292 621.379 481.292 621.380 C 481.291 621.380 473.981 621.704 473.980 621.704 C 473.981 621.705 488.432 628.404 488.433 628.405 Z"/>
<path fill="#00ff00" fill-rule="evenodd" stroke="none" d="M 495.054 396.295 C 495.052 396.295 479.897 390.796 479.895 390.795 C 479.896 390.796 484.914 396.244 484.914 396.245 C 484.914 396.245 479.842 401.641 479.841 401.642 C 479.843 401.641 495.052 396.296 495.054 396.295 Z"/>
<path fill="#00ffff" fill-rule="evenodd" stroke="none" d="M 466.959 108.795 C 466.958 108.796 462.506 121.366 462.506 121.367 C 462.506 121.366 461.663 115.299 461.663 115.298 C 461.662 115.298 455.550 115.701 455.549 115.701 C 455.550 115.701 466.958 108.795 466.959 108.795 Z"/>
<path fill="#00ffff" fill-rule="evenodd" stroke="none" d="M 253.148 109.211 C 253.149 109.213 258.429 121.457 258.429 121.459 C 258.429 121.458 258.866 115.348 258.866 115.347 C 258.866 115.347 264.992 115.342 264.992 115.342 C 264.991 115.342 253.149 109.212 253.148 109.211 Z"/>
<path fill="#be0027" fill-rule="evenodd" stroke="none" d="M 360.000 707.962 C 360.001 707.959 371.871 674.723 371.872 674.720 C 371.871 674.721 360.001 685.765 360.000 685.766 C 359.999 685.765 348.129 674.721 348.128 674.720 C 348.129 674.723 359.999 707.959 360.000 707.962 Z"/>
</g>
</g>
</svg>
