<?xml version="1.0" encoding="utf-8"?>
<!-- Generator: Moho 13.5 build 20210422 -->
<!DOCTYPE svg PUBLIC "-//W3C//DTD SVG 1.1//EN" "http://www.w3.org/Graphics/SVG/1.1/DTD/svg11.dtd">
<svg version="1.1" id="Frame_0" xmlns="http://www.w3.org/2000/svg" xmlns:xlink="http://www.w3.org/1999/xlink" width="720px" height="720px">
<g id="flame">
<g id="flame">
<linearGradient id="47C62D7B-B90D-48B8-B995-E8C8D6323170_0" x1="52.57%" y1="92.61%" x2="-40.48%" y2="-23.20%">
<stop offset="20.00%" style="stop-color:rgb(255,255,255);stop-opacity:1.00" />
<stop offset="100.00%" style="stop-color:rgb(0,0,0);stop-opacity:1.00" />
</linearGradient>
<path fill="url(#47C62D7B-B90D-48B8-B995-E8C8D6323170_0)" fill-rule="evenodd" stroke="#000000" stroke-width="4" stroke-linecap="round" stroke-linejoin="round" d="M 360.000 31.847 C 313.603 111.130 320.782 195.697 362.316 247.481 C 422.618 322.666 416.941 385.419 357.131 396.225 C 288.123 408.692 254.659 304.833 284.690 208.747 C 204.463 286.404 193.581 353.443 196.024 417.557 C 201.783 568.720 323.303 598.331 360.000 688.153 C 406.809 604.283 553.571 543.039 520.538 359.912 C 495.266 219.805 368.959 186.994 360.000 31.847 Z"/>
</g>
<g id="flame_2">
<path fill="#ffffff" fill-rule="evenodd" stroke="#000000" stroke-width="4" stroke-linecap="round" stroke-linejoin="round" d="M 351.978 82.276 C 334.204 151.030 352.134 205.163 383.838 245.914 C 453.470 335.415 434.097 410.682 363.171 419.804 C 299.966 427.933 246.979 368.108 257.321 270.962 C 219.509 333.816 213.156 372.402 216.845 414.391 C 229.001 552.762 328.534 568.474 360.000 645.746 C 400.706 573.006 532.838 520.734 502.010 362.213 C 478.376 240.689 394.920 239.211 351.978 82.276 Z"/>
</g>
<g id="specs_2">
<path fill="#ff00ff" fill-rule="evenodd" stroke="none" d="M 269.456 577.772 C 269.474 577.772 450.526 577.772 450.544 577.772 C 450.544 577.754 450.544 396.703 450.544 396.685 C 450.526 396.685 269.474 396.685 269.456 396.685 C 269.456 396.703 269.456 577.754 269.456 577.772 Z"/>
<path fill="#ff0000" fill-rule="evenodd" stroke="none" d="M 360.000 679.562 C 360.001 679.565 371.886 712.842 371.887 712.846 C 371.886 712.844 360.001 701.787 360.000 701.786 C 359.999 701.787 348.115 712.844 348.113 712.846 C 348.115 712.842 359.999 679.565 360.000 679.562 Z"/>
<path fill="#0000ff" fill-rule="evenodd" stroke="none" d="M 360.000 16.970 C 360.001 16.972 366.904 36.302 366.905 36.304 C 366.904 36.303 360.001 29.880 360.000 29.880 C 359.999 29.880 353.096 36.303 353.095 36.304 C 353.096 36.302 359.999 16.972 360.000 16.970 Z"/>
<path fill="#00ff00" fill-rule="evenodd" stroke="none" d="M 183.108 410.981 C 183.110 410.980 202.961 403.777 202.963 403.777 C 202.962 403.777 196.390 410.914 196.389 410.914 C 196.390 410.915 203.033 417.983 203.034 417.984 C 203.032 417.983 183.110 410.982 183.108 410.981 Z"/>
<path fill="#ffff00" fill-rule="evenodd" stroke="none" d="M 247.877 610.446 C 247.877 610.444 253.681 597.808 253.682 597.807 C 253.682 597.808 253.987 604.189 253.987 604.189 C 253.988 604.189 260.374 604.344 260.374 604.344 C 260.373 604.344 247.878 610.445 247.877 610.446 Z"/>
<path fill="#ffff00" fill-rule="evenodd" stroke="none" d="M 472.123 610.291 C 472.123 610.290 466.067 597.772 466.066 597.771 C 466.066 597.772 465.889 604.157 465.889 604.158 C 465.888 604.158 459.506 604.441 459.505 604.441 C 459.507 604.442 472.122 610.290 472.123 610.291 Z"/>
<path fill="#00ff00" fill-rule="evenodd" stroke="none" d="M 536.892 410.981 C 536.890 410.980 517.039 403.777 517.037 403.777 C 517.038 403.777 523.610 410.914 523.611 410.914 C 523.610 410.915 516.967 417.983 516.966 417.984 C 516.968 417.983 536.890 410.982 536.892 410.981 Z"/>
<path fill="#00ffff" fill-rule="evenodd" stroke="none" d="M 467.092 161.102 C 467.091 161.103 462.634 173.689 462.634 173.690 C 462.634 173.689 461.790 167.614 461.790 167.613 C 461.789 167.613 455.669 168.017 455.668 168.017 C 455.670 168.016 467.091 161.103 467.092 161.102 Z"/>
<path fill="#00ffff" fill-rule="evenodd" stroke="none" d="M 253.015 161.519 C 253.015 161.520 258.302 173.780 258.303 173.781 C 258.303 173.781 258.740 167.663 258.740 167.663 C 258.740 167.663 264.873 167.658 264.874 167.658 C 264.873 167.657 253.016 161.520 253.015 161.519 Z"/>
<path fill="#be0027" fill-rule="evenodd" stroke="none" d="M 360.000 708.395 C 360.001 708.392 371.886 675.115 371.887 675.112 C 371.886 675.113 360.001 686.170 360.000 686.172 C 359.999 686.170 348.115 675.113 348.113 675.112 C 348.115 675.115 359.999 708.392 360.000 708.395 Z"/>
</g>
</g>
</svg>
