<?xml version="1.0" encoding="utf-8"?>
<!-- Generator: Moho 12.5 build 22414 -->
<!DOCTYPE svg PUBLIC "-//W3C//DTD SVG 1.1//EN" "http://www.w3.org/Graphics/SVG/1.1/DTD/svg11.dtd">
<svg version="1.1" id="Frame_0" xmlns="http://www.w3.org/2000/svg" xmlns:xlink="http://www.w3.org/1999/xlink" width="720px" height="720px">
<g id="flower">
<g id="flower">
<path fill="#ffffff" fill-rule="evenodd" stroke="none" d="M 360.000 122.014 C 422.104 122.014 449.227 182.400 444.659 234.539 C 437.840 312.380 360.008 388.919 360.000 388.935 C 359.992 388.919 282.160 312.380 275.341 234.539 C 270.143 175.207 297.895 122.014 360.000 122.014 Z"/>
<path fill="none" stroke="#000000" stroke-width="4" stroke-linecap="round" stroke-linejoin="round" d="M 360.000 143.031 C 393.394 143.031 428.856 172.891 428.785 234.458 M 291.215 234.458 C 291.144 174.636 326.606 143.031 360.000 143.031 M 360.000 388.935 C 360.449 320.549 360.899 252.163 361.348 183.778 M 275.341 234.539 C 270.143 175.207 297.895 122.014 360.000 122.014 C 422.104 122.014 449.227 182.400 444.659 234.539 C 437.840 312.380 360.008 388.919 360.000 388.935 C 359.992 388.919 282.160 312.380 275.341 234.539 "/>
<path fill="#ffffff" fill-rule="evenodd" stroke="none" d="M 627.813 311.552 C 647.004 370.617 597.955 415.072 546.955 426.840 C 470.818 444.408 373.973 394.038 373.955 394.035 C 373.968 394.022 422.710 296.348 494.633 265.809 C 549.455 242.531 608.621 252.487 627.813 311.552 Z"/>
<path fill="none" stroke="#000000" stroke-width="4" stroke-linecap="round" stroke-linejoin="round" d="M 607.824 318.047 C 618.144 349.806 600.703 392.760 542.128 411.718 M 499.616 280.880 C 556.488 262.327 597.505 286.287 607.824 318.047 M 373.955 394.035 C 439.133 373.330 504.310 352.625 569.488 331.920 M 494.633 265.809 C 549.455 242.531 608.621 252.487 627.813 311.552 C 647.004 370.617 597.955 415.072 546.955 426.840 C 470.818 444.408 373.973 394.038 373.955 394.035 C 373.968 394.022 422.710 296.348 494.633 265.809 "/>
<path fill="#ffffff" fill-rule="evenodd" stroke="none" d="M 524.929 623.011 C 474.686 659.515 417.250 626.604 390.298 581.737 C 350.062 514.755 368.040 407.085 368.037 407.068 C 368.053 407.075 476.009 423.249 527.279 482.215 C 566.359 527.160 575.173 586.507 524.929 623.011 Z"/>
<path fill="none" stroke="#000000" stroke-width="4" stroke-linecap="round" stroke-linejoin="round" d="M 512.576 606.008 C 485.560 625.637 439.319 622.323 403.188 572.473 M 514.485 491.611 C 549.705 539.966 539.593 586.379 512.576 606.008 M 368.037 407.068 C 407.870 462.657 447.703 518.246 487.535 573.835 M 527.279 482.215 C 566.359 527.160 575.173 586.507 524.929 623.011 C 474.686 659.515 417.250 626.604 390.298 581.737 C 350.062 514.755 368.040 407.085 368.037 407.068 C 368.053 407.075 476.009 423.249 527.279 482.215 "/>
<path fill="#ffffff" fill-rule="evenodd" stroke="none" d="M 92.188 311.552 C 72.996 370.617 122.045 415.072 173.045 426.840 C 249.182 444.408 346.027 394.038 346.045 394.035 C 346.033 394.022 297.290 296.348 225.367 265.809 C 170.545 242.531 111.379 252.487 92.188 311.552 Z"/>
<path fill="none" stroke="#000000" stroke-width="4" stroke-linecap="round" stroke-linejoin="round" d="M 112.176 318.047 C 101.856 349.806 119.297 392.760 177.872 411.718 M 220.384 280.880 C 163.512 262.327 122.495 286.287 112.176 318.047 M 346.045 394.035 C 280.867 373.330 215.690 352.625 150.512 331.920 M 225.367 265.809 C 170.545 242.531 111.379 252.487 92.188 311.552 C 72.996 370.617 122.045 415.072 173.045 426.840 C 249.182 444.408 346.027 394.038 346.045 394.035 C 346.033 394.022 297.290 296.348 225.367 265.809 "/>
<path fill="#ffffff" fill-rule="evenodd" stroke="none" d="M 195.070 623.011 C 245.314 659.515 302.750 626.604 329.702 581.737 C 369.938 514.755 351.960 407.085 351.963 407.068 C 351.947 407.075 243.991 423.249 192.721 482.215 C 153.641 527.160 144.827 586.507 195.070 623.011 Z"/>
<path fill="none" stroke="#000000" stroke-width="4" stroke-linecap="round" stroke-linejoin="round" d="M 207.424 606.008 C 234.440 625.637 280.681 622.323 316.812 572.473 M 205.515 491.611 C 170.295 539.966 180.407 586.379 207.424 606.008 M 351.963 407.068 C 312.130 462.657 272.297 518.246 232.465 573.835 M 192.721 482.215 C 153.641 527.160 144.827 586.507 195.070 623.011 C 245.314 659.515 302.750 626.604 329.702 581.737 C 369.938 514.755 351.960 407.085 351.963 407.068 C 351.947 407.075 243.991 423.249 192.721 482.215 "/>
<path fill="none" stroke="#000000" stroke-width="4" stroke-linecap="round" stroke-linejoin="round" d="M 360.375 388.918 C 350.540 330.917 340.706 272.916 330.871 214.915 "/>
<path fill="none" stroke="#000000" stroke-width="4" stroke-linecap="round" stroke-linejoin="round" d="M 372.960 391.154 C 425.083 363.878 477.206 336.601 529.329 309.324 "/>
<path fill="none" stroke="#000000" stroke-width="4" stroke-linecap="round" stroke-linejoin="round" d="M 369.893 403.079 C 411.941 444.222 453.990 485.365 496.038 526.508 "/>
<path fill="none" stroke="#000000" stroke-width="4" stroke-linecap="round" stroke-linejoin="round" d="M 349.314 395.323 C 291.005 387.519 232.696 379.715 174.387 371.910 "/>
<path fill="none" stroke="#000000" stroke-width="4" stroke-linecap="round" stroke-linejoin="round" d="M 356.275 405.480 C 330.834 458.524 305.393 511.567 279.952 564.610 "/>
<path fill="none" stroke="#000000" stroke-width="4" stroke-linecap="round" stroke-linejoin="round" d="M 360.150 391.882 C 370.746 334.015 381.342 276.148 391.938 218.282 "/>
<path fill="none" stroke="#000000" stroke-width="4" stroke-linecap="round" stroke-linejoin="round" d="M 371.211 398.288 C 429.520 390.483 487.829 382.679 546.138 374.874 "/>
<path fill="none" stroke="#000000" stroke-width="4" stroke-linecap="round" stroke-linejoin="round" d="M 364.251 408.444 C 389.692 461.487 415.133 514.531 440.574 567.574 "/>
<path fill="none" stroke="#000000" stroke-width="4" stroke-linecap="round" stroke-linejoin="round" d="M 347.566 394.118 C 295.443 366.841 243.319 339.565 191.196 312.288 "/>
<path fill="none" stroke="#000000" stroke-width="4" stroke-linecap="round" stroke-linejoin="round" d="M 350.632 406.043 C 308.584 447.186 266.535 488.329 224.487 529.472 "/>
<path fill="none" stroke="#000000" stroke-width="4" stroke-linecap="round" stroke-linejoin="round" d="M 357.749 389.155 C 341.236 342.841 324.723 296.526 308.209 250.212 "/>
<path fill="none" stroke="#000000" stroke-width="4" stroke-linecap="round" stroke-linejoin="round" d="M 368.433 389.170 C 407.377 359.153 446.322 329.136 485.267 299.118 "/>
<path fill="none" stroke="#000000" stroke-width="4" stroke-linecap="round" stroke-linejoin="round" d="M 367.639 399.430 C 408.222 427.193 448.804 454.956 489.386 482.719 "/>
<path fill="none" stroke="#000000" stroke-width="4" stroke-linecap="round" stroke-linejoin="round" d="M 349.575 396.033 C 300.447 398.072 251.319 400.111 202.191 402.150 "/>
<path fill="none" stroke="#000000" stroke-width="4" stroke-linecap="round" stroke-linejoin="round" d="M 356.778 403.383 C 343.536 450.737 330.293 498.091 317.051 545.444 "/>
<path fill="none" stroke="#000000" stroke-width="4" stroke-linecap="round" stroke-linejoin="round" d="M 360.526 398.873 C 377.646 352.779 394.767 306.686 411.887 260.592 "/>
<path fill="none" stroke="#000000" stroke-width="4" stroke-linecap="round" stroke-linejoin="round" d="M 368.700 405.751 C 417.828 407.789 466.956 409.828 516.084 411.867 "/>
<path fill="none" stroke="#000000" stroke-width="4" stroke-linecap="round" stroke-linejoin="round" d="M 361.497 413.101 C 374.740 460.454 387.982 507.808 401.224 555.161 "/>
<path fill="none" stroke="#000000" stroke-width="4" stroke-linecap="round" stroke-linejoin="round" d="M 354.070 395.716 C 315.125 365.699 276.181 335.682 237.236 305.665 "/>
<path fill="none" stroke="#000000" stroke-width="4" stroke-linecap="round" stroke-linejoin="round" d="M 348.523 404.920 C 307.940 432.683 267.357 460.446 226.775 488.209 "/>
<path fill="#ffffff" fill-rule="evenodd" stroke="#000000" stroke-width="4" stroke-linecap="round" stroke-linejoin="round" d="M 360.000 462.799 C 396.880 462.799 426.631 433.048 426.631 396.169 C 426.631 359.289 396.880 329.537 360.000 329.537 C 323.120 329.537 293.369 359.289 293.369 396.169 C 293.369 433.048 323.120 462.799 360.000 462.799 Z"/>
</g>
<g id="specs_2">
<path fill="#ff00ff" fill-rule="evenodd" stroke="none" d="M 254.875 504.771 C 254.896 504.771 465.104 504.771 465.125 504.771 C 465.125 504.750 465.125 294.543 465.125 294.522 C 465.104 294.522 254.896 294.522 254.875 294.522 C 254.875 294.543 254.875 504.750 254.875 504.771 Z"/>
<path fill="#ff0000" fill-rule="evenodd" stroke="none" d="M 360.000 55.684 C 360.001 55.681 370.893 25.183 370.894 25.180 C 370.893 25.181 360.001 35.315 360.000 35.316 C 359.999 35.315 349.107 25.181 349.106 25.180 C 349.107 25.183 359.999 55.681 360.000 55.684 Z"/>
<path fill="#be0027" fill-rule="evenodd" stroke="none" d="M 360.000 648.089 C 360.001 648.086 367.725 626.459 367.725 626.457 C 367.725 626.458 360.001 633.644 360.000 633.645 C 359.999 633.644 352.275 626.458 352.275 626.457 C 352.275 626.459 359.999 648.086 360.000 648.089 Z"/>
<path fill="#00ff00" fill-rule="evenodd" stroke="none" d="M 605.753 470.516 C 605.752 470.514 587.570 456.485 587.568 456.484 C 587.569 456.485 592.017 466.052 592.017 466.053 C 592.016 466.053 582.795 471.178 582.794 471.178 C 582.796 471.178 605.751 470.516 605.753 470.516 Z"/>
<path fill="#00ffff" fill-rule="evenodd" stroke="none" d="M 512.236 183.341 C 512.234 183.342 494.201 195.665 494.200 195.666 C 494.201 195.666 504.161 194.454 504.162 194.454 C 504.162 194.455 506.087 204.302 506.088 204.303 C 506.088 204.301 512.235 183.343 512.236 183.341 Z"/>
<path fill="#00ff00" fill-rule="evenodd" stroke="none" d="M 114.247 470.516 C 114.248 470.515 132.430 456.486 132.432 456.484 C 132.432 456.485 127.984 466.052 127.983 466.053 C 127.984 466.053 137.206 471.178 137.207 471.179 C 137.204 471.179 114.249 470.516 114.247 470.516 Z"/>
<path fill="#00ffff" fill-rule="evenodd" stroke="none" d="M 207.765 183.341 C 207.766 183.343 225.799 195.665 225.800 195.666 C 225.799 195.666 215.839 194.454 215.838 194.454 C 215.838 194.455 213.913 204.302 213.913 204.303 C 213.912 204.301 207.765 183.344 207.765 183.341 Z"/>
<path fill="#0000ff" fill-rule="evenodd" stroke="none" d="M 360.000 99.784 C 360.001 99.787 370.893 130.285 370.894 130.288 C 370.893 130.287 360.001 120.153 360.000 120.151 C 359.999 120.153 349.107 130.287 349.106 130.288 C 349.107 130.285 359.999 99.787 360.000 99.784 Z"/>
</g>
</g>
</svg>
