<?xml version="1.0" encoding="utf-8"?>
<!-- Generator: Moho 12.5 build 22414 -->
<!DOCTYPE svg PUBLIC "-//W3C//DTD SVG 1.1//EN" "http://www.w3.org/Graphics/SVG/1.1/DTD/svg11.dtd">
<svg version="1.1" id="Frame_0" xmlns="http://www.w3.org/2000/svg" xmlns:xlink="http://www.w3.org/1999/xlink" width="720px" height="720px">
<g id="flower_jacobean_3">
<g id="flower_jacobean">
<path fill="none" stroke="#ffffff" stroke-width="4" stroke-linecap="round" stroke-linejoin="round" d="M 269.788 528.065 C 310.143 507.462 344.974 524.505 370.152 550.494 M 429.762 358.002 C 401.629 352.189 364.752 373.931 349.838 402.443 M 266.507 352.544 C 309.946 357.966 332.484 385.575 344.713 428.054 C 349.376 377.831 388.144 310.786 429.617 280.818 M 482.982 433.133 C 415.851 433.178 370.960 472.580 357.078 515.321 M 340.782 279.140 C 361.241 323.773 362.976 354.719 352.031 394.702 M 344.713 428.054 C 338.386 496.199 368.976 576.714 446.904 643.952 "/>
<path fill="#ffffff" fill-rule="evenodd" stroke="#000000" stroke-width="4" stroke-linecap="round" stroke-linejoin="round" d="M 350.682 384.656 C 333.067 347.488 287.157 360.816 285.741 293.559 C 317.815 320.593 352.111 311.714 350.682 384.656 M 270.767 562.098 C 269.772 565.570 268.234 569.488 266.242 573.436 C 256.374 592.994 248.667 591.097 234.157 609.377 C 238.095 589.212 222.928 581.820 235.626 561.232 C 218.138 569.056 210.280 562.146 187.110 563.501 C 204.906 548.474 204.263 536.771 222.133 529.851 C 203.794 521.218 200.045 509.754 186.180 497.798 C 205.271 500.231 215.260 493.304 234.337 499.236 C 238.477 500.523 242.334 502.120 245.577 503.834 C 267.677 515.501 277.845 537.439 270.767 562.098 M 270.192 170.713 C 265.004 160.952 268.692 148.893 278.452 143.705 C 288.213 138.517 300.272 142.206 305.460 151.966 C 310.648 161.726 306.959 173.785 297.199 178.973 C 287.439 184.161 275.380 180.473 270.192 170.713 M 302.784 278.740 C 299.368 277.567 295.535 275.829 291.695 273.636 C 272.672 262.772 274.964 255.174 257.457 239.740 C 277.391 244.713 285.556 229.948 305.462 243.690 C 298.550 225.822 305.855 218.330 305.698 195.122 C 319.786 213.670 331.508 213.631 337.496 231.834 C 347.064 213.964 358.706 210.811 371.361 197.582 C 367.947 216.522 374.349 226.854 367.441 245.601 C 365.942 249.669 364.149 253.438 362.270 256.588 C 349.478 278.057 327.045 287.080 302.784 278.740 M 203.820 370.443 C 219.738 373.557 235.092 363.229 238.206 347.310 C 241.321 331.392 230.992 316.038 215.073 312.924 C 199.155 309.809 183.801 320.138 180.687 336.057 C 177.573 351.975 187.902 367.328 203.820 370.443 M 174.192 365.400 C 168.145 356.413 165.523 345.038 167.774 333.530 C 170.025 322.023 176.742 312.475 185.730 306.429 C 194.717 300.383 206.092 297.760 217.600 300.011 C 229.107 302.262 238.655 308.979 244.701 317.966 C 250.748 326.954 253.370 338.329 251.119 349.836 C 248.868 361.344 242.151 370.892 233.164 376.938 C 224.176 382.984 212.801 385.608 201.293 383.356 C 189.786 381.105 180.238 374.388 174.192 365.400 M 219.074 400.923 C 229.073 396.078 258.494 381.366 264.163 352.389 C 269.832 323.412 248.126 298.697 240.691 290.441 C 241.208 262.785 233.167 250.311 229.458 223.702 C 215.872 244.053 197.442 258.393 193.966 281.299 C 177.325 255.699 164.823 262.413 139.671 241.782 C 150.974 268.094 132.488 282.631 155.850 306.940 C 129.720 301.431 121.049 313.158 89.085 318.135 C 117.755 333.366 120.325 349.501 146.708 353.665 C 124.266 370.828 122.533 387.551 107.165 407.922 C 132.458 398.985 150.351 408.011 172.350 391.781 C 167.492 415.137 181.237 435.773 183.518 458.508 C 195.609 438.585 210.333 424.085 219.074 400.923 M 347.966 459.670 C 384.444 423.904 412.284 452.714 432.420 391.174 C 400.131 405.567 362.573 372.820 347.966 459.670 M 385.998 582.123 C 349.974 568.555 336.748 625.649 284.304 592.056 C 316.740 580.477 330.637 538.592 385.998 582.123 M 342.966 477.879 C 315.426 466.820 264.836 500.466 244.603 433.751 C 280.711 448.983 315.244 418.832 342.966 477.879 M 409.875 604.820 C 408.332 551.422 475.528 551.449 439.350 477.017 C 423.869 527.716 363.135 525.298 409.875 604.820 M 469.173 364.484 C 470.967 353.577 463.615 343.331 452.707 341.537 C 441.800 339.744 431.555 347.096 429.762 358.002 C 427.968 368.909 435.320 379.155 446.227 380.949 C 457.133 382.742 467.379 375.391 469.173 364.484 M 493.398 396.003 C 495.566 392.497 498.468 388.669 501.878 384.949 C 518.771 366.522 526.649 370.991 548.246 355.404 C 537.678 376.334 552.049 389.149 531.728 407.832 C 553.360 404.651 559.852 414.673 585.721 420.357 C 561.522 431.354 558.606 444.408 536.835 446.477 C 554.306 461.637 554.876 475.389 566.404 492.813 C 546.188 484.231 533.072 488.748 513.954 476.327 C 509.805 473.631 506.063 470.684 503.031 467.798 C 482.368 448.141 477.991 420.897 493.398 396.003 M 450.665 204.377 C 436.805 219.373 437.721 242.651 452.717 256.510 C 467.712 270.370 490.990 269.454 504.850 254.458 C 518.710 239.463 517.793 216.185 502.798 202.325 C 487.802 188.465 464.524 189.382 450.665 204.377 M 475.653 175.968 C 489.279 175.432 503.200 180.142 514.040 190.161 C 524.881 200.180 530.670 213.688 531.207 227.314 C 531.743 240.940 527.033 254.861 517.014 265.701 C 506.995 276.542 493.487 282.331 479.861 282.867 C 466.235 283.404 452.314 278.694 441.474 268.675 C 430.633 258.656 424.844 245.148 424.308 231.522 C 423.771 217.896 428.480 203.975 438.500 193.134 C 448.519 182.294 462.027 176.505 475.653 175.968 M 407.925 200.572 C 406.506 214.487 402.819 255.733 430.116 280.963 C 457.413 306.192 498.242 299.275 512.002 296.767 C 541.291 315.604 559.971 315.235 590.931 328.851 C 578.108 300.843 574.928 271.617 552.685 252.751 C 591.113 251.845 592.185 234.012 630.915 220.703 C 595.253 215.420 591.898 186.004 550.411 194.963 C 573.588 170.611 566.756 153.569 582.554 116.033 C 547.282 136.680 528.297 128.767 506.394 154.281 C 502.843 118.891 486.072 105.980 474.406 76.048 C 467.260 109.054 445.762 122.258 448.608 156.556 C 426.795 135.911 395.601 136.995 369.735 124.410 C 383.086 150.534 388.889 175.894 407.925 200.572 Z"/>
<path fill="none" stroke="#000000" stroke-width="4" stroke-linecap="round" stroke-linejoin="round" d="M 362.270 256.588 C 353.419 245.490 338.392 240.882 324.532 246.011 C 310.499 251.205 302.057 264.755 302.784 278.740 C 327.045 287.080 349.478 278.057 362.270 256.588 M 133.374 387.959 C 146.980 380.440 160.586 372.920 174.192 365.400 C 168.145 356.413 165.523 345.038 167.774 333.530 C 152.505 330.616 137.236 327.702 121.967 324.787 M 188.443 430.423 C 192.727 414.734 197.010 399.045 201.293 383.356 C 189.786 381.105 180.238 374.388 174.192 365.400 M 222.077 255.401 C 220.585 270.271 219.092 285.141 217.600 300.011 C 206.092 297.760 194.717 300.383 185.730 306.429 C 177.345 295.565 168.961 284.702 160.577 273.839 M 167.774 333.530 C 170.025 322.023 176.742 312.475 185.730 306.429 M 503.031 467.798 C 517.617 460.749 526.540 445.189 524.330 428.469 C 522.093 411.540 509.145 398.724 493.398 396.003 C 477.991 420.897 482.368 448.141 503.031 467.798 M 478.468 117.324 C 477.530 136.872 476.591 156.420 475.653 175.968 C 489.279 175.432 503.200 180.142 514.040 190.161 C 527.257 175.729 540.473 161.296 553.689 146.864 M 396.569 148.253 C 410.546 163.214 424.523 178.174 438.500 193.134 C 448.519 182.294 462.027 176.505 475.653 175.968 M 561.848 299.988 C 546.903 288.559 531.959 277.130 517.014 265.701 C 527.033 254.861 531.743 240.940 531.207 227.314 C 548.388 225.513 565.569 223.711 582.750 221.910 M 514.040 190.161 C 524.881 200.180 530.670 213.688 531.207 227.314 "/>
<path fill="none" stroke="#000000" stroke-width="4" stroke-linecap="round" stroke-linejoin="round" d="M 245.577 503.834 C 234.950 513.246 231.123 528.490 236.961 542.067 C 242.871 555.814 256.839 563.546 270.767 562.098 C 277.845 537.439 267.677 515.501 245.577 503.834 "/>
</g>
<g id="specs_2">
<path fill="#ff0000" fill-rule="evenodd" stroke="none" d="M 360.000 640.814 C 360.001 640.818 372.416 675.580 372.417 675.584 C 372.416 675.583 360.001 664.031 360.000 664.030 C 359.999 664.031 347.584 675.583 347.583 675.584 C 347.584 675.580 359.999 640.818 360.000 640.814 Z"/>
<path fill="#0000ff" fill-rule="evenodd" stroke="none" d="M 360.000 67.827 C 360.001 67.829 367.212 88.022 367.213 88.024 C 367.212 88.023 360.001 81.313 360.000 81.313 C 359.999 81.313 352.788 88.023 352.787 88.024 C 352.788 88.022 359.999 67.829 360.000 67.827 Z"/>
<path fill="#00ff00" fill-rule="evenodd" stroke="none" d="M 69.227 318.352 C 69.229 318.351 89.386 311.037 89.388 311.036 C 89.387 311.037 82.714 318.283 82.713 318.284 C 82.714 318.285 89.460 325.462 89.460 325.463 C 89.458 325.462 69.229 318.353 69.227 318.352 Z"/>
<path fill="#ffff00" fill-rule="evenodd" stroke="none" d="M 171.511 578.381 C 171.511 578.379 180.461 558.894 180.462 558.892 C 180.462 558.893 180.933 568.733 180.933 568.734 C 180.934 568.734 190.781 568.972 190.782 568.972 C 190.780 568.973 171.512 578.380 171.511 578.381 Z"/>
<path fill="#ffff00" fill-rule="evenodd" stroke="none" d="M 453.883 650.261 C 453.882 650.259 444.544 630.957 444.543 630.955 C 444.543 630.956 444.269 640.803 444.269 640.804 C 444.268 640.804 434.427 641.240 434.426 641.240 C 434.428 641.241 453.881 650.260 453.883 650.261 Z"/>
<path fill="#00ff00" fill-rule="evenodd" stroke="none" d="M 603.470 419.937 C 603.468 419.937 583.311 412.623 583.309 412.622 C 583.310 412.623 589.983 419.869 589.984 419.869 C 589.983 419.870 583.237 427.047 583.237 427.048 C 583.239 427.047 603.468 419.938 603.470 419.937 Z"/>
<path fill="#00ffff" fill-rule="evenodd" stroke="none" d="M 594.082 103.283 C 594.081 103.285 586.923 123.497 586.922 123.499 C 586.922 123.498 585.567 113.741 585.566 113.740 C 585.565 113.741 575.737 114.390 575.736 114.390 C 575.737 114.388 594.080 103.284 594.082 103.283 Z"/>
<path fill="#00ffff" fill-rule="evenodd" stroke="none" d="M 186.516 163.664 C 186.517 163.666 195.007 183.356 195.007 183.358 C 195.008 183.357 195.709 173.531 195.709 173.530 C 195.710 173.530 205.561 173.522 205.562 173.522 C 205.560 173.521 186.518 163.665 186.516 163.664 Z"/>
</g>
</g>
</svg>
