<?xml version="1.0" encoding="utf-8"?>
<!-- Generator: Moho 12.5 build 22414 -->
<!DOCTYPE svg PUBLIC "-//W3C//DTD SVG 1.1//EN" "http://www.w3.org/Graphics/SVG/1.1/DTD/svg11.dtd">
<svg version="1.1" id="Frame_0" xmlns="http://www.w3.org/2000/svg" xmlns:xlink="http://www.w3.org/1999/xlink" width="720px" height="720px">
<g id="flower_tulip">
<g id="flower_tulip">
<path fill="#ffffff" fill-rule="evenodd" stroke="#000000" stroke-width="4" stroke-linecap="round" stroke-linejoin="round" d="M 563.559 403.086 C 506.859 454.562 306.990 337.485 295.538 535.513 C 368.056 438.658 470.402 568.758 563.559 403.086 M 139.000 207.593 C 155.626 314.771 317.426 252.934 269.247 475.399 C 235.035 357.505 77.783 398.400 139.000 207.593 Z"/>
<path fill="#ffffff" fill-rule="evenodd" stroke="#000000" stroke-width="4" stroke-linecap="round" stroke-linejoin="round" d="M 336.014 674.443 C 256.907 526.924 307.590 387.263 362.405 310.152 C 264.116 376.224 237.723 533.464 301.016 673.946 C 311.556 674.842 324.929 674.024 336.014 674.443 Z"/>
<path fill="#ffffff" fill-rule="evenodd" stroke="#000000" stroke-width="4" stroke-linecap="round" stroke-linejoin="round" d="M 330.541 64.095 C 402.711 85.326 395.176 135.670 360.250 229.665 C 395.510 134.773 409.863 85.809 484.121 90.824 C 524.664 153.239 488.888 189.620 423.179 266.628 C 488.266 190.349 528.344 159.481 582.257 211.946 C 635.587 263.842 524.760 231.493 442.654 341.547 C 411.795 376.348 364.780 375.196 329.322 354.369 C 293.864 333.542 269.963 293.040 285.331 249.140 C 342.266 122.885 258.371 42.865 330.541 64.095 Z"/>
<path fill="#ffffff" fill-rule="evenodd" stroke="#000000" stroke-width="4" stroke-linecap="round" stroke-linejoin="round" d="M 470.090 73.665 C 462.959 57.800 470.004 39.249 485.868 32.117 C 501.733 24.985 520.285 32.030 527.416 47.895 C 534.548 63.760 527.503 82.311 511.638 89.443 C 495.773 96.575 477.222 89.530 470.090 73.665 M 542.638 172.609 C 561.615 171.066 579.478 135.348 555.440 116.213 C 533.483 98.735 505.595 117.670 507.069 137.437 C 509.144 165.276 491.078 191.013 491.077 191.018 C 491.082 191.016 516.345 174.747 542.638 172.609 M 380.970 81.972 C 371.873 65.246 391.986 30.744 421.158 40.387 C 447.804 49.194 447.224 82.897 429.875 92.485 C 405.442 105.987 393.793 135.194 393.789 135.198 C 393.788 135.193 393.574 105.146 380.970 81.972 Z"/>
<path fill="none" stroke="#000000" stroke-width="4" stroke-linecap="round" stroke-linejoin="round" d="M 559.844 407.637 C 485.107 502.913 350.555 384.374 296.858 532.040 "/>
<path fill="none" stroke="#000000" stroke-width="4" stroke-linecap="round" stroke-linejoin="round" d="M 137.743 211.546 C 131.794 358.113 263.766 306.727 268.361 465.936 "/>
<path fill="none" stroke="#000000" stroke-width="4" stroke-linecap="round" stroke-linejoin="round" d="M 442.654 341.547 C 440.545 326.849 435.173 313.443 426.101 300.983 C 414.062 284.447 399.013 271.603 381.565 262.140 C 364.038 252.633 344.636 248.201 325.245 246.047 C 311.277 244.495 297.870 244.836 285.331 249.140 "/>
<path fill="none" stroke="#000000" stroke-width="4" stroke-linecap="round" stroke-linejoin="round" d="M 381.565 262.140 C 406.596 221.858 431.626 181.576 456.657 141.294 "/>
<path fill="none" stroke="#000000" stroke-width="4" stroke-linecap="round" stroke-linejoin="round" d="M 426.101 300.983 C 458.219 268.313 500.306 226.985 548.271 229.743 "/>
<path fill="none" stroke="#000000" stroke-width="4" stroke-linecap="round" stroke-linejoin="round" d="M 325.245 246.047 C 336.662 207.943 346.573 163.103 342.611 131.107 "/>
<path fill="none" stroke="#000000" stroke-width="4" stroke-linecap="round" stroke-linejoin="round" d="M 282.692 281.913 C 349.009 265.615 396.929 293.015 421.472 357.800 "/>
</g>
<g id="specs_2">
<path fill="#ff0000" fill-rule="evenodd" stroke="none" d="M 319.678 674.974 C 319.680 674.977 332.095 709.740 332.096 709.744 C 332.095 709.743 319.680 698.191 319.678 698.190 C 319.677 698.191 307.262 709.743 307.261 709.744 C 307.262 709.740 319.677 674.977 319.678 674.974 Z"/>
<path fill="#00ff00" fill-rule="evenodd" stroke="none" d="M 205.069 138.274 C 205.071 138.273 225.228 130.959 225.230 130.958 C 225.229 130.959 218.556 138.205 218.555 138.206 C 218.556 138.206 225.302 145.384 225.302 145.384 C 225.300 145.384 205.071 138.274 205.069 138.274 Z"/>
<path fill="#ffff00" fill-rule="evenodd" stroke="none" d="M 175.606 507.193 C 175.607 507.191 184.556 487.706 184.557 487.704 C 184.557 487.705 185.028 497.544 185.028 497.545 C 185.029 497.545 194.876 497.784 194.877 497.784 C 194.875 497.785 175.608 507.192 175.606 507.193 Z"/>
<path fill="#ffff00" fill-rule="evenodd" stroke="none" d="M 405.189 581.837 C 405.188 581.835 395.850 562.533 395.849 562.531 C 395.849 562.532 395.575 572.379 395.575 572.380 C 395.574 572.380 385.733 572.816 385.732 572.816 C 385.734 572.817 405.187 581.836 405.189 581.837 Z"/>
<path fill="#00ff00" fill-rule="evenodd" stroke="none" d="M 589.814 337.001 C 589.812 337.001 569.655 329.687 569.653 329.686 C 569.654 329.687 576.327 336.933 576.328 336.933 C 576.327 336.934 569.581 344.111 569.580 344.112 C 569.582 344.111 589.812 337.002 589.814 337.001 Z"/>
<path fill="#00ffff" fill-rule="evenodd" stroke="none" d="M 530.978 22.973 C 530.978 22.975 523.819 43.188 523.819 43.190 C 523.819 43.189 522.463 33.432 522.463 33.431 C 522.462 33.431 512.633 34.080 512.632 34.080 C 512.634 34.079 530.977 22.974 530.978 22.973 Z"/>
<path fill="#be0027" fill-rule="evenodd" stroke="none" d="M 322.201 692.805 C 322.202 692.801 325.439 656.030 325.439 656.026 C 325.438 656.028 316.341 670.339 316.341 670.341 C 316.339 670.340 301.410 662.297 301.409 662.296 C 301.411 662.299 322.199 692.802 322.201 692.805 Z"/>
</g>
</g>
</svg>
