<?xml version="1.0" encoding="utf-8"?>
<!-- Generator: Moho 12.5 build 22414 -->
<!DOCTYPE svg PUBLIC "-//W3C//DTD SVG 1.1//EN" "http://www.w3.org/Graphics/SVG/1.1/DTD/svg11.dtd">
<svg version="1.1" id="Frame_0" xmlns="http://www.w3.org/2000/svg" xmlns:xlink="http://www.w3.org/1999/xlink" width="720px" height="720px">
<g id="flower">
<g id="flower">
<path fill="#ffffff" fill-rule="evenodd" stroke="none" d="M 360.000 43.536 C 430.791 43.536 461.706 112.368 456.500 171.800 C 448.727 260.528 360.010 347.773 360.000 347.790 C 359.990 347.773 271.273 260.528 263.500 171.800 C 257.575 104.169 289.209 43.536 360.000 43.536 Z"/>
<path fill="none" stroke="#000000" stroke-width="4" stroke-linecap="round" stroke-linejoin="round" d="M 360.000 67.493 C 398.065 67.493 438.487 101.530 438.406 171.707 M 281.594 171.707 C 281.513 103.518 321.935 67.493 360.000 67.493 M 360.000 347.790 C 360.512 269.840 361.024 191.889 361.536 113.939 M 263.500 171.800 C 257.575 104.169 289.209 43.536 360.000 43.536 C 430.791 43.536 461.706 112.368 456.500 171.800 C 448.727 260.528 360.010 347.773 360.000 347.790 C 359.990 347.773 271.273 260.528 263.500 171.800 "/>
<path fill="#ffffff" fill-rule="evenodd" stroke="none" d="M 665.270 259.585 C 687.146 326.911 631.236 377.583 573.104 390.997 C 486.317 411.023 375.927 353.608 375.907 353.604 C 375.921 353.589 431.481 242.254 513.464 207.443 C 575.954 180.909 643.395 192.258 665.270 259.585 Z"/>
<path fill="none" stroke="#000000" stroke-width="4" stroke-linecap="round" stroke-linejoin="round" d="M 642.486 266.987 C 654.249 303.189 634.369 352.150 567.601 373.760 M 519.144 224.623 C 583.970 203.474 630.724 230.785 642.486 266.987 M 375.907 353.604 C 450.201 330.003 524.495 306.402 598.788 282.801 M 513.464 207.443 C 575.954 180.909 643.395 192.258 665.270 259.585 C 687.146 326.911 631.236 377.583 573.104 390.997 C 486.317 411.023 375.927 353.608 375.907 353.604 C 375.921 353.589 431.481 242.254 513.464 207.443 "/>
<path fill="#ffffff" fill-rule="evenodd" stroke="none" d="M 547.997 614.606 C 490.727 656.215 425.257 618.701 394.536 567.559 C 348.672 491.209 369.164 368.479 369.162 368.459 C 369.180 368.468 492.235 386.904 550.676 454.117 C 595.221 505.349 605.268 572.996 547.997 614.606 Z"/>
<path fill="none" stroke="#000000" stroke-width="4" stroke-linecap="round" stroke-linejoin="round" d="M 533.916 595.224 C 503.121 617.599 450.413 613.821 409.229 556.999 M 536.093 464.827 C 576.238 519.946 564.712 572.850 533.916 595.224 M 369.162 368.459 C 414.565 431.823 459.969 495.188 505.373 558.552 M 550.676 454.117 C 595.221 505.349 605.268 572.996 547.997 614.606 C 490.727 656.215 425.257 618.701 394.536 567.559 C 348.672 491.209 369.164 368.479 369.162 368.459 C 369.180 368.468 492.235 386.904 550.676 454.117 "/>
<path fill="#ffffff" fill-rule="evenodd" stroke="none" d="M 54.730 259.584 C 32.854 326.910 88.764 377.583 146.896 390.997 C 233.683 411.023 344.073 353.608 344.093 353.604 C 344.079 353.589 288.519 242.254 206.536 207.443 C 144.046 180.909 76.605 192.258 54.730 259.584 Z"/>
<path fill="none" stroke="#000000" stroke-width="4" stroke-linecap="round" stroke-linejoin="round" d="M 77.514 266.987 C 65.751 303.189 85.631 352.150 152.399 373.760 M 200.856 224.623 C 136.030 203.474 89.276 230.785 77.514 266.987 M 344.093 353.604 C 269.799 330.003 195.505 306.402 121.212 282.801 M 206.536 207.443 C 144.046 180.909 76.605 192.258 54.730 259.584 C 32.854 326.910 88.764 377.583 146.896 390.997 C 233.683 411.023 344.073 353.608 344.093 353.604 C 344.079 353.589 288.519 242.254 206.536 207.443 "/>
<path fill="#ffffff" fill-rule="evenodd" stroke="none" d="M 172.002 614.605 C 229.273 656.215 294.743 618.701 325.464 567.559 C 371.328 491.208 350.836 368.479 350.838 368.459 C 350.820 368.468 227.765 386.903 169.324 454.117 C 124.778 505.349 114.731 572.996 172.002 614.605 Z"/>
<path fill="none" stroke="#000000" stroke-width="4" stroke-linecap="round" stroke-linejoin="round" d="M 186.084 595.224 C 216.879 617.599 269.587 613.821 310.771 556.999 M 183.907 464.827 C 143.762 519.946 155.288 572.850 186.084 595.224 M 350.838 368.459 C 305.435 431.823 260.031 495.188 214.627 558.552 M 169.324 454.117 C 124.778 505.349 114.731 572.996 172.002 614.605 C 229.273 656.215 294.743 618.701 325.464 567.559 C 371.328 491.208 350.836 368.479 350.838 368.459 C 350.820 368.468 227.765 386.903 169.324 454.117 "/>
<path fill="none" stroke="#000000" stroke-width="4" stroke-linecap="round" stroke-linejoin="round" d="M 360.427 347.771 C 349.217 281.658 338.007 215.545 326.797 149.431 "/>
<path fill="none" stroke="#000000" stroke-width="4" stroke-linecap="round" stroke-linejoin="round" d="M 374.772 350.320 C 434.186 319.229 493.599 288.137 553.012 257.045 "/>
<path fill="none" stroke="#000000" stroke-width="4" stroke-linecap="round" stroke-linejoin="round" d="M 371.276 363.913 C 419.206 410.810 467.136 457.708 515.065 504.606 "/>
<path fill="none" stroke="#000000" stroke-width="4" stroke-linecap="round" stroke-linejoin="round" d="M 347.819 355.072 C 281.355 346.176 214.891 337.280 148.427 328.384 "/>
<path fill="none" stroke="#000000" stroke-width="4" stroke-linecap="round" stroke-linejoin="round" d="M 355.753 366.650 C 326.754 427.112 297.755 487.574 268.755 548.037 "/>
<path fill="none" stroke="#000000" stroke-width="4" stroke-linecap="round" stroke-linejoin="round" d="M 360.171 351.149 C 372.249 285.189 384.327 219.229 396.405 153.269 "/>
<path fill="none" stroke="#000000" stroke-width="4" stroke-linecap="round" stroke-linejoin="round" d="M 372.779 358.451 C 439.243 349.555 505.708 340.659 572.172 331.763 "/>
<path fill="none" stroke="#000000" stroke-width="4" stroke-linecap="round" stroke-linejoin="round" d="M 364.845 370.028 C 393.845 430.490 422.844 490.953 451.843 551.415 "/>
<path fill="none" stroke="#000000" stroke-width="4" stroke-linecap="round" stroke-linejoin="round" d="M 345.826 353.698 C 286.413 322.607 227.000 291.515 167.586 260.423 "/>
<path fill="none" stroke="#000000" stroke-width="4" stroke-linecap="round" stroke-linejoin="round" d="M 349.322 367.291 C 301.393 414.189 253.463 461.086 205.533 507.984 "/>
<path fill="none" stroke="#000000" stroke-width="4" stroke-linecap="round" stroke-linejoin="round" d="M 357.435 348.042 C 338.612 295.249 319.789 242.457 300.966 189.665 "/>
<path fill="none" stroke="#000000" stroke-width="4" stroke-linecap="round" stroke-linejoin="round" d="M 369.612 348.058 C 414.004 313.843 458.396 279.627 502.788 245.412 "/>
<path fill="none" stroke="#000000" stroke-width="4" stroke-linecap="round" stroke-linejoin="round" d="M 368.708 359.753 C 414.966 391.399 461.225 423.046 507.483 454.692 "/>
<path fill="none" stroke="#000000" stroke-width="4" stroke-linecap="round" stroke-linejoin="round" d="M 348.117 355.882 C 292.118 358.206 236.118 360.529 180.119 362.853 "/>
<path fill="none" stroke="#000000" stroke-width="4" stroke-linecap="round" stroke-linejoin="round" d="M 356.328 364.260 C 341.233 418.236 326.138 472.213 311.044 526.190 "/>
<path fill="none" stroke="#000000" stroke-width="4" stroke-linecap="round" stroke-linejoin="round" d="M 360.599 359.118 C 380.114 306.578 399.629 254.037 419.144 201.497 "/>
<path fill="none" stroke="#000000" stroke-width="4" stroke-linecap="round" stroke-linejoin="round" d="M 369.917 366.958 C 425.916 369.282 481.916 371.606 537.915 373.930 "/>
<path fill="none" stroke="#000000" stroke-width="4" stroke-linecap="round" stroke-linejoin="round" d="M 361.707 375.336 C 376.801 429.313 391.895 483.289 406.990 537.266 "/>
<path fill="none" stroke="#000000" stroke-width="4" stroke-linecap="round" stroke-linejoin="round" d="M 353.241 355.520 C 308.849 321.305 264.457 287.089 220.065 252.874 "/>
<path fill="none" stroke="#000000" stroke-width="4" stroke-linecap="round" stroke-linejoin="round" d="M 346.917 366.011 C 300.659 397.657 254.400 429.303 208.141 460.949 "/>
<path fill="#ffffff" fill-rule="evenodd" stroke="#000000" stroke-width="4" stroke-linecap="round" stroke-linejoin="round" d="M 360.000 431.986 C 402.038 431.986 435.951 398.074 435.951 356.036 C 435.951 313.998 402.038 280.085 360.000 280.085 C 317.962 280.085 284.049 313.998 284.049 356.036 C 284.049 398.074 317.962 431.986 360.000 431.986 Z"/>
</g>
<g id="specs_2">
<path fill="#ff00ff" fill-rule="evenodd" stroke="none" d="M 240.172 479.828 C 240.196 479.828 479.804 479.828 479.828 479.828 C 479.828 479.804 479.828 240.196 479.828 240.172 C 479.804 240.172 240.196 240.172 240.172 240.172 C 240.172 240.196 240.172 479.804 240.172 479.828 Z"/>
<path fill="#ff0000" fill-rule="evenodd" stroke="none" d="M 360.000 52.967 C 360.001 52.964 372.416 18.201 372.417 18.197 C 372.416 18.198 360.001 29.750 360.000 29.751 C 359.999 29.750 347.584 18.198 347.583 18.197 C 347.584 18.201 359.999 52.964 360.000 52.967 Z"/>
<path fill="#be0027" fill-rule="evenodd" stroke="none" d="M 360.000 610.018 C 360.001 610.016 367.212 589.823 367.213 589.821 C 367.212 589.822 360.001 596.532 360.000 596.533 C 359.999 596.532 352.788 589.822 352.787 589.821 C 352.788 589.823 359.999 610.016 360.000 610.018 Z"/>
<path fill="#00ff00" fill-rule="evenodd" stroke="none" d="M 589.454 430.897 C 589.452 430.896 572.476 417.797 572.474 417.796 C 572.475 417.797 576.628 426.729 576.628 426.730 C 576.627 426.730 568.018 431.515 568.017 431.516 C 568.019 431.516 589.451 430.897 589.454 430.897 Z"/>
<path fill="#00ffff" fill-rule="evenodd" stroke="none" d="M 500.575 162.258 C 500.573 162.259 482.870 174.357 482.868 174.358 C 482.869 174.358 492.647 173.169 492.648 173.169 C 492.648 173.170 494.539 182.837 494.539 182.838 C 494.540 182.835 500.574 162.260 500.575 162.258 Z"/>
<path fill="#00ff00" fill-rule="evenodd" stroke="none" d="M 130.546 430.897 C 130.548 430.896 147.524 417.798 147.526 417.796 C 147.525 417.797 143.373 426.729 143.372 426.730 C 143.373 426.730 151.983 431.516 151.984 431.516 C 151.982 431.516 130.549 430.897 130.546 430.897 Z"/>
<path fill="#00ffff" fill-rule="evenodd" stroke="none" d="M 219.425 162.258 C 219.427 162.260 237.130 174.357 237.132 174.358 C 237.131 174.358 227.353 173.169 227.352 173.169 C 227.352 173.170 225.461 182.837 225.461 182.838 C 225.461 182.836 219.426 162.261 219.425 162.258 Z"/>
<path fill="#0000ff" fill-rule="evenodd" stroke="none" d="M 360.000 18.197 C 360.001 18.201 372.416 52.964 372.417 52.967 C 372.416 52.966 360.001 41.415 360.000 41.413 C 359.999 41.415 347.584 52.966 347.583 52.967 C 347.584 52.964 359.999 18.201 360.000 18.197 Z"/>
</g>
</g>
</svg>
