<?xml version="1.0" encoding="utf-8"?>
<!-- Generator: Moho 12.5 build 22414 -->
<!DOCTYPE svg PUBLIC "-//W3C//DTD SVG 1.1//EN" "http://www.w3.org/Graphics/SVG/1.1/DTD/svg11.dtd">
<svg version="1.1" id="Frame_0" xmlns="http://www.w3.org/2000/svg" xmlns:xlink="http://www.w3.org/1999/xlink" width="720px" height="720px">
<g id="flower_jacobean_3">
<g id="flower_jacobean">
<path fill="none" stroke="#ffffff" stroke-width="4" stroke-linecap="round" stroke-linejoin="round" d="M 450.212 528.065 C 409.857 507.462 375.026 524.505 349.848 550.494 M 290.238 358.002 C 318.371 352.189 355.248 373.931 370.162 402.443 M 453.493 352.544 C 410.054 357.966 387.516 385.575 375.287 428.054 C 370.624 377.831 331.856 310.786 290.383 280.818 M 237.018 433.133 C 304.149 433.178 349.040 472.580 362.922 515.321 M 379.218 279.140 C 358.759 323.773 357.024 354.719 367.969 394.702 M 375.287 428.054 C 381.614 496.199 351.024 576.714 273.096 643.952 "/>
<path fill="#ffffff" fill-rule="evenodd" stroke="#000000" stroke-width="4" stroke-linecap="round" stroke-linejoin="round" d="M 369.318 384.656 C 386.933 347.488 432.843 360.816 434.259 293.560 C 402.185 320.593 367.889 311.714 369.318 384.656 M 449.233 562.098 C 450.228 565.570 451.766 569.488 453.758 573.436 C 463.626 592.994 471.333 591.097 485.843 609.377 C 481.905 589.212 497.072 581.820 484.374 561.232 C 501.862 569.056 509.720 562.146 532.890 563.501 C 515.094 548.474 515.737 536.771 497.867 529.851 C 516.206 521.218 519.955 509.754 533.820 497.798 C 514.729 500.231 504.740 493.304 485.663 499.236 C 481.523 500.523 477.666 502.120 474.423 503.834 C 452.323 515.501 442.155 537.439 449.233 562.098 M 446.706 173.814 C 451.895 164.054 448.206 151.995 438.446 146.807 C 428.686 141.619 416.627 145.308 411.439 155.068 C 406.251 164.828 409.939 176.887 419.700 182.075 C 429.460 187.263 441.518 183.575 446.706 173.814 M 417.216 278.740 C 420.632 277.567 424.465 275.829 428.305 273.636 C 447.328 262.772 445.036 255.174 462.543 239.740 C 442.609 244.713 434.444 229.948 414.538 243.690 C 421.450 225.822 414.145 218.330 414.302 195.122 C 400.214 213.670 388.492 213.631 382.504 231.834 C 372.936 213.964 361.294 210.811 348.639 197.582 C 352.053 216.522 345.651 226.854 352.559 245.601 C 354.058 249.669 355.851 253.438 357.730 256.588 C 370.522 278.057 392.955 287.080 417.216 278.740 M 516.180 370.443 C 500.262 373.557 484.908 363.229 481.794 347.310 C 478.679 331.392 489.008 316.038 504.927 312.924 C 520.845 309.809 536.199 320.138 539.313 336.057 C 542.427 351.975 532.098 367.328 516.180 370.443 M 545.808 365.400 C 551.855 356.413 554.477 345.038 552.226 333.530 C 549.975 322.023 543.258 312.475 534.270 306.429 C 525.283 300.383 513.908 297.760 502.400 300.011 C 490.893 302.262 481.345 308.979 475.299 317.966 C 469.252 326.954 466.630 338.329 468.881 349.836 C 471.132 361.344 477.849 370.892 486.836 376.938 C 495.824 382.984 507.199 385.608 518.707 383.356 C 530.214 381.105 539.762 374.388 545.808 365.400 M 500.926 400.923 C 490.927 396.078 461.506 381.366 455.837 352.389 C 450.168 323.412 471.874 298.697 479.309 290.441 C 478.792 262.785 486.833 250.311 490.542 223.702 C 504.128 244.053 522.558 258.393 526.034 281.299 C 542.675 255.699 555.177 262.413 580.329 241.782 C 569.026 268.094 587.512 282.631 564.150 306.940 C 590.280 301.431 598.951 313.158 630.915 318.135 C 602.245 333.366 599.675 349.501 573.292 353.665 C 595.734 370.828 597.467 387.551 612.835 407.922 C 587.542 398.985 569.649 408.011 547.650 391.781 C 552.508 415.137 538.763 435.773 536.482 458.508 C 524.391 438.585 509.668 424.085 500.926 400.923 M 372.034 459.670 C 335.556 423.904 307.716 452.714 287.580 391.174 C 319.869 405.567 357.427 372.820 372.034 459.670 M 334.002 582.123 C 370.026 568.555 383.252 625.649 435.696 592.056 C 403.260 580.477 389.363 538.592 334.002 582.123 M 377.034 477.879 C 404.574 466.820 455.164 500.466 475.397 433.751 C 439.289 448.983 404.756 418.832 377.034 477.879 M 310.125 604.820 C 311.668 551.422 244.472 551.449 280.650 477.017 C 296.131 527.716 356.865 525.298 310.125 604.820 M 250.827 364.484 C 249.033 353.577 256.385 343.331 267.293 341.537 C 278.200 339.744 288.445 347.096 290.238 358.002 C 292.032 368.909 284.681 379.155 273.774 380.949 C 262.867 382.742 252.621 375.391 250.827 364.484 M 226.602 396.003 C 224.434 392.497 221.532 388.669 218.122 384.949 C 201.229 366.522 193.351 370.991 171.754 355.404 C 182.322 376.334 167.951 389.149 188.272 407.832 C 166.640 404.651 160.148 414.673 134.279 420.357 C 158.478 431.354 161.394 444.408 183.165 446.477 C 165.694 461.637 165.124 475.389 153.596 492.813 C 173.812 484.231 186.928 488.748 206.046 476.327 C 210.195 473.631 213.937 470.684 216.969 467.798 C 237.632 448.141 242.009 420.897 226.602 396.003 M 269.335 204.377 C 283.195 219.373 282.279 242.651 267.283 256.510 C 252.288 270.370 229.010 269.454 215.150 254.458 C 201.290 239.463 202.207 216.185 217.202 202.325 C 232.198 188.465 255.476 189.382 269.335 204.377 M 244.347 175.968 C 230.721 175.432 216.800 180.142 205.960 190.161 C 195.119 200.180 189.330 213.688 188.793 227.314 C 188.257 240.940 192.967 254.861 202.986 265.701 C 213.005 276.542 226.513 282.331 240.139 282.867 C 253.765 283.404 267.686 278.694 278.526 268.675 C 289.367 258.656 295.156 245.148 295.693 231.522 C 296.229 217.896 291.520 203.975 281.500 193.134 C 271.481 182.294 257.973 176.505 244.347 175.968 M 312.075 200.572 C 313.494 214.487 317.181 255.733 289.884 280.963 C 262.587 306.192 221.758 299.275 207.998 296.767 C 178.710 315.604 160.029 315.235 129.069 328.851 C 141.892 300.843 145.072 271.617 167.315 252.751 C 128.887 251.845 127.815 234.012 89.085 220.703 C 124.747 215.420 128.102 186.004 169.589 194.963 C 146.412 170.611 153.244 153.569 137.446 116.033 C 172.718 136.680 191.703 128.767 213.606 154.281 C 217.157 118.891 233.928 105.980 245.594 76.048 C 252.740 109.054 274.238 122.258 271.392 156.556 C 293.205 135.911 324.399 136.995 350.265 124.410 C 336.914 150.534 331.111 175.894 312.075 200.572 Z"/>
<path fill="none" stroke="#000000" stroke-width="4" stroke-linecap="round" stroke-linejoin="round" d="M 357.730 256.588 C 366.581 245.490 381.608 240.882 395.468 246.011 C 409.501 251.205 417.943 264.755 417.216 278.740 C 392.955 287.080 370.522 278.057 357.730 256.588 M 586.626 387.959 C 573.020 380.440 559.414 372.920 545.808 365.400 C 551.855 356.413 554.477 345.038 552.226 333.530 C 567.495 330.616 582.764 327.702 598.033 324.787 M 531.557 430.423 C 527.273 414.734 522.990 399.045 518.707 383.356 C 530.214 381.105 539.762 374.388 545.808 365.400 M 497.923 255.401 C 499.415 270.271 500.908 285.141 502.400 300.011 C 513.908 297.760 525.283 300.383 534.270 306.429 C 542.655 295.565 551.039 284.702 559.423 273.839 M 552.226 333.530 C 549.975 322.023 543.258 312.475 534.270 306.429 M 216.969 467.798 C 202.383 460.749 193.460 445.189 195.670 428.469 C 197.907 411.540 210.855 398.724 226.602 396.003 C 242.009 420.897 237.632 448.141 216.969 467.798 M 241.532 117.324 C 242.470 136.872 243.409 156.420 244.347 175.968 C 230.721 175.432 216.800 180.142 205.960 190.161 C 192.743 175.729 179.527 161.296 166.311 146.864 M 323.431 148.253 C 309.454 163.214 295.477 178.174 281.500 193.134 C 271.481 182.294 257.973 176.505 244.347 175.968 M 158.152 299.988 C 173.097 288.559 188.041 277.130 202.986 265.701 C 192.967 254.861 188.257 240.940 188.793 227.314 C 171.612 225.513 154.431 223.711 137.250 221.910 M 205.960 190.161 C 195.119 200.180 189.330 213.688 188.793 227.314 "/>
</g>
<g id="specs_2">
<path fill="#ff0000" fill-rule="evenodd" stroke="none" d="M 360.983 638.654 C 360.982 638.658 347.589 673.056 347.587 673.059 C 347.589 673.058 360.325 661.862 360.327 661.861 C 360.328 661.862 372.411 673.760 372.413 673.762 C 372.411 673.758 360.984 638.658 360.983 638.654 Z"/>
<path fill="#0000ff" fill-rule="evenodd" stroke="none" d="M 429.227 127.303 C 429.226 127.305 421.264 147.214 421.263 147.216 C 421.264 147.216 428.722 140.780 428.722 140.780 C 428.723 140.780 435.678 147.755 435.679 147.756 C 435.678 147.754 429.227 127.305 429.227 127.303 Z"/>
<path fill="#00ff00" fill-rule="evenodd" stroke="none" d="M 648.270 318.010 C 648.268 318.009 628.112 310.695 628.110 310.694 C 628.110 310.695 634.784 317.941 634.784 317.942 C 634.784 317.943 628.037 325.120 628.037 325.121 C 628.039 325.120 648.268 318.011 648.270 318.010 Z"/>
<path fill="#ffff00" fill-rule="evenodd" stroke="none" d="M 546.758 577.106 C 546.757 577.104 537.808 557.619 537.807 557.617 C 537.807 557.618 537.336 567.457 537.336 567.458 C 537.335 567.458 527.488 567.697 527.487 567.697 C 527.489 567.698 546.756 577.105 546.758 577.106 Z"/>
<path fill="#ffff00" fill-rule="evenodd" stroke="none" d="M 259.505 656.645 C 259.506 656.643 268.845 637.341 268.846 637.339 C 268.846 637.340 269.119 647.187 269.119 647.188 C 269.120 647.188 278.961 647.624 278.962 647.624 C 278.960 647.625 259.507 656.644 259.505 656.645 Z"/>
<path fill="#00ff00" fill-rule="evenodd" stroke="none" d="M 115.954 420.790 C 115.956 420.789 136.112 413.475 136.114 413.474 C 136.113 413.475 129.440 420.721 129.439 420.722 C 129.440 420.723 136.186 427.900 136.187 427.901 C 136.185 427.900 115.956 420.791 115.954 420.790 Z"/>
<path fill="#00ffff" fill-rule="evenodd" stroke="none" d="M 122.606 98.877 C 122.607 98.878 140.822 110.192 140.823 110.193 C 140.822 110.193 131.001 109.431 131.000 109.431 C 131.000 109.432 129.533 119.173 129.533 119.174 C 129.532 119.172 122.606 98.879 122.606 98.877 Z"/>
</g>
</g>
</svg>
