<?xml version="1.0" encoding="utf-8"?>
<!-- Generator: Moho 12.5 build 22414 -->
<!DOCTYPE svg PUBLIC "-//W3C//DTD SVG 1.1//EN" "http://www.w3.org/Graphics/SVG/1.1/DTD/svg11.dtd">
<svg version="1.1" id="Frame_0" xmlns="http://www.w3.org/2000/svg" xmlns:xlink="http://www.w3.org/1999/xlink" width="720px" height="720px">
<g id="flower">
<g id="flower">
<path fill="#ffffff" fill-rule="evenodd" stroke="none" d="M 360.000 582.033 C 422.104 582.033 449.227 521.647 444.659 469.507 C 437.840 391.667 360.008 315.127 360.000 315.112 C 359.992 315.127 282.160 391.667 275.341 469.507 C 270.143 528.839 297.895 582.033 360.000 582.033 Z"/>
<path fill="none" stroke="#000000" stroke-width="4" stroke-linecap="round" stroke-linejoin="round" d="M 360.000 561.016 C 393.394 561.016 428.856 531.155 428.785 469.589 M 291.215 469.589 C 291.144 529.411 326.606 561.016 360.000 561.016 M 360.000 315.112 C 360.449 383.497 360.899 451.883 361.348 520.269 M 275.341 469.507 C 270.143 528.839 297.895 582.033 360.000 582.033 C 422.104 582.033 449.227 521.647 444.659 469.507 C 437.840 391.667 360.008 315.127 360.000 315.112 C 359.992 315.127 282.160 391.667 275.341 469.507 "/>
<path fill="#ffffff" fill-rule="evenodd" stroke="none" d="M 627.813 392.494 C 647.004 333.429 597.955 288.975 546.955 277.207 C 470.818 259.638 373.973 310.008 373.955 310.011 C 373.968 310.024 422.710 407.699 494.633 438.238 C 549.455 461.516 608.621 451.559 627.813 392.494 Z"/>
<path fill="none" stroke="#000000" stroke-width="4" stroke-linecap="round" stroke-linejoin="round" d="M 607.824 386.000 C 618.144 354.240 600.703 311.287 542.128 292.329 M 499.616 423.166 C 556.488 441.720 597.505 417.760 607.824 386.000 M 373.955 310.011 C 439.133 330.717 504.310 351.422 569.488 372.127 M 494.633 438.238 C 549.455 461.516 608.621 451.559 627.813 392.494 C 647.004 333.429 597.955 288.975 546.955 277.207 C 470.818 259.638 373.973 310.008 373.955 310.011 C 373.968 310.024 422.710 407.699 494.633 438.238 "/>
<path fill="#ffffff" fill-rule="evenodd" stroke="none" d="M 524.929 81.036 C 474.686 44.532 417.250 77.443 390.298 122.309 C 350.062 189.291 368.040 296.961 368.037 296.979 C 368.053 296.971 476.009 280.798 527.279 221.832 C 566.359 176.886 575.173 117.540 524.929 81.036 Z"/>
<path fill="none" stroke="#000000" stroke-width="4" stroke-linecap="round" stroke-linejoin="round" d="M 512.576 98.039 C 485.560 78.410 439.319 81.724 403.188 131.573 M 514.485 212.436 C 549.705 164.080 539.593 117.667 512.576 98.039 M 368.037 296.979 C 407.870 241.390 447.703 185.800 487.535 130.211 M 527.279 221.832 C 566.359 176.886 575.173 117.540 524.929 81.036 C 474.686 44.532 417.250 77.443 390.298 122.309 C 350.062 189.291 368.040 296.961 368.037 296.979 C 368.053 296.971 476.009 280.798 527.279 221.832 "/>
<path fill="#ffffff" fill-rule="evenodd" stroke="none" d="M 92.188 392.495 C 72.996 333.430 122.045 288.975 173.045 277.207 C 249.182 259.638 346.027 310.008 346.045 310.011 C 346.033 310.024 297.290 407.699 225.367 438.238 C 170.545 461.516 111.379 451.560 92.188 392.495 Z"/>
<path fill="none" stroke="#000000" stroke-width="4" stroke-linecap="round" stroke-linejoin="round" d="M 112.176 386.000 C 101.856 354.240 119.297 311.287 177.872 292.329 M 220.384 423.166 C 163.512 441.720 122.495 417.760 112.176 386.000 M 346.045 310.011 C 280.867 330.717 215.690 351.422 150.512 372.127 M 225.367 438.238 C 170.545 461.516 111.379 451.560 92.188 392.495 C 72.996 333.430 122.045 288.975 173.045 277.207 C 249.182 259.638 346.027 310.008 346.045 310.011 C 346.033 310.024 297.290 407.699 225.367 438.238 "/>
<path fill="#ffffff" fill-rule="evenodd" stroke="none" d="M 195.070 81.036 C 245.314 44.532 302.750 77.443 329.702 122.310 C 369.938 189.292 351.960 296.961 351.963 296.979 C 351.947 296.971 243.991 280.798 192.721 221.832 C 153.641 176.886 144.827 117.540 195.070 81.036 Z"/>
<path fill="none" stroke="#000000" stroke-width="4" stroke-linecap="round" stroke-linejoin="round" d="M 207.424 98.039 C 234.440 78.410 280.681 81.724 316.812 131.573 M 205.515 212.436 C 170.295 164.080 180.407 117.667 207.424 98.039 M 351.963 296.979 C 312.130 241.390 272.297 185.800 232.465 130.211 M 192.721 221.832 C 153.641 176.886 144.827 117.540 195.070 81.036 C 245.314 44.532 302.750 77.443 329.702 122.310 C 369.938 189.292 351.960 296.961 351.963 296.979 C 351.947 296.971 243.991 280.798 192.721 221.832 "/>
<path fill="none" stroke="#000000" stroke-width="4" stroke-linecap="round" stroke-linejoin="round" d="M 360.375 315.129 C 350.540 373.129 340.706 431.130 330.871 489.131 "/>
<path fill="none" stroke="#000000" stroke-width="4" stroke-linecap="round" stroke-linejoin="round" d="M 372.960 312.892 C 425.083 340.169 477.206 367.446 529.329 394.722 "/>
<path fill="none" stroke="#000000" stroke-width="4" stroke-linecap="round" stroke-linejoin="round" d="M 369.893 300.968 C 411.941 259.825 453.990 218.681 496.038 177.538 "/>
<path fill="none" stroke="#000000" stroke-width="4" stroke-linecap="round" stroke-linejoin="round" d="M 349.314 308.723 C 291.005 316.528 232.696 324.332 174.387 332.136 "/>
<path fill="none" stroke="#000000" stroke-width="4" stroke-linecap="round" stroke-linejoin="round" d="M 356.275 298.566 C 330.834 245.523 305.393 192.480 279.952 139.436 "/>
<path fill="none" stroke="#000000" stroke-width="4" stroke-linecap="round" stroke-linejoin="round" d="M 360.150 312.165 C 370.746 370.031 381.342 427.898 391.938 485.765 "/>
<path fill="none" stroke="#000000" stroke-width="4" stroke-linecap="round" stroke-linejoin="round" d="M 371.211 305.759 C 429.520 313.563 487.829 321.368 546.138 329.173 "/>
<path fill="none" stroke="#000000" stroke-width="4" stroke-linecap="round" stroke-linejoin="round" d="M 364.251 295.603 C 389.692 242.559 415.133 189.516 440.574 136.473 "/>
<path fill="none" stroke="#000000" stroke-width="4" stroke-linecap="round" stroke-linejoin="round" d="M 347.566 309.929 C 295.443 337.205 243.319 364.482 191.196 391.758 "/>
<path fill="none" stroke="#000000" stroke-width="4" stroke-linecap="round" stroke-linejoin="round" d="M 350.632 298.004 C 308.584 256.861 266.535 215.718 224.487 174.575 "/>
<path fill="none" stroke="#000000" stroke-width="4" stroke-linecap="round" stroke-linejoin="round" d="M 357.749 314.891 C 341.236 361.206 324.723 407.520 308.209 453.835 "/>
<path fill="none" stroke="#000000" stroke-width="4" stroke-linecap="round" stroke-linejoin="round" d="M 368.433 314.877 C 407.377 344.894 446.322 374.911 485.267 404.928 "/>
<path fill="none" stroke="#000000" stroke-width="4" stroke-linecap="round" stroke-linejoin="round" d="M 367.639 304.617 C 408.222 276.854 448.804 249.091 489.386 221.328 "/>
<path fill="none" stroke="#000000" stroke-width="4" stroke-linecap="round" stroke-linejoin="round" d="M 349.575 308.013 C 300.447 305.974 251.319 303.936 202.191 301.897 "/>
<path fill="none" stroke="#000000" stroke-width="4" stroke-linecap="round" stroke-linejoin="round" d="M 356.778 300.663 C 343.536 253.310 330.293 205.956 317.051 158.603 "/>
<path fill="none" stroke="#000000" stroke-width="4" stroke-linecap="round" stroke-linejoin="round" d="M 360.526 305.174 C 377.646 351.267 394.767 397.361 411.887 443.454 "/>
<path fill="none" stroke="#000000" stroke-width="4" stroke-linecap="round" stroke-linejoin="round" d="M 368.700 298.296 C 417.828 296.257 466.956 294.218 516.084 292.180 "/>
<path fill="none" stroke="#000000" stroke-width="4" stroke-linecap="round" stroke-linejoin="round" d="M 361.497 290.946 C 374.740 243.593 387.982 196.239 401.224 148.886 "/>
<path fill="none" stroke="#000000" stroke-width="4" stroke-linecap="round" stroke-linejoin="round" d="M 354.070 308.330 C 315.125 338.347 276.181 368.365 237.236 398.382 "/>
<path fill="none" stroke="#000000" stroke-width="4" stroke-linecap="round" stroke-linejoin="round" d="M 348.523 299.127 C 307.940 271.364 267.357 243.601 226.775 215.838 "/>
<path fill="#ffffff" fill-rule="evenodd" stroke="#000000" stroke-width="4" stroke-linecap="round" stroke-linejoin="round" d="M 360.000 241.247 C 396.880 241.247 426.631 270.998 426.631 307.878 C 426.631 344.758 396.880 374.509 360.000 374.509 C 323.120 374.509 293.369 344.758 293.369 307.878 C 293.369 270.998 323.120 241.247 360.000 241.247 Z"/>
</g>
<g id="specs_2">
<path fill="#ff00ff" fill-rule="evenodd" stroke="none" d="M 254.875 199.275 C 254.896 199.275 465.104 199.275 465.125 199.275 C 465.125 199.296 465.125 409.504 465.125 409.525 C 465.104 409.525 254.896 409.525 254.875 409.525 C 254.875 409.504 254.875 199.296 254.875 199.275 Z"/>
<path fill="#ff0000" fill-rule="evenodd" stroke="none" d="M 360.000 648.363 C 360.001 648.366 370.893 678.863 370.894 678.866 C 370.893 678.865 360.001 668.731 360.000 668.730 C 359.999 668.731 349.107 678.865 349.106 678.866 C 349.107 678.863 359.999 648.366 360.000 648.363 Z"/>
<path fill="#be0027" fill-rule="evenodd" stroke="none" d="M 360.000 600.166 C 360.001 600.164 367.725 578.536 367.725 578.534 C 367.725 578.535 360.001 585.721 360.000 585.722 C 359.999 585.721 352.275 578.535 352.275 578.534 C 352.275 578.536 359.999 600.164 360.000 600.166 Z"/>
<path fill="#00ff00" fill-rule="evenodd" stroke="none" d="M 605.753 233.531 C 605.752 233.532 587.570 247.561 587.568 247.563 C 587.569 247.562 592.017 237.995 592.017 237.994 C 592.016 237.994 582.795 232.869 582.794 232.868 C 582.796 232.868 605.751 233.531 605.753 233.531 Z"/>
<path fill="#00ffff" fill-rule="evenodd" stroke="none" d="M 512.236 520.706 C 512.234 520.704 494.201 508.382 494.200 508.381 C 494.201 508.381 504.161 509.592 504.162 509.592 C 504.162 509.591 506.087 499.745 506.088 499.744 C 506.088 499.746 512.235 520.703 512.236 520.706 Z"/>
<path fill="#00ff00" fill-rule="evenodd" stroke="none" d="M 114.247 233.531 C 114.248 233.532 132.430 247.561 132.432 247.562 C 132.432 247.561 127.984 237.995 127.983 237.994 C 127.984 237.994 137.206 232.868 137.207 232.868 C 137.204 232.868 114.249 233.531 114.247 233.531 Z"/>
<path fill="#00ffff" fill-rule="evenodd" stroke="none" d="M 207.765 520.705 C 207.766 520.704 225.799 508.382 225.800 508.380 C 225.799 508.380 215.839 509.592 215.838 509.592 C 215.838 509.591 213.913 499.744 213.913 499.743 C 213.912 499.745 207.765 520.703 207.765 520.705 Z"/>
<path fill="#0000ff" fill-rule="evenodd" stroke="none" d="M 360.000 51.861 C 360.001 51.864 370.893 82.362 370.894 82.365 C 370.893 82.364 360.001 72.230 360.000 72.229 C 359.999 72.230 349.107 82.364 349.106 82.365 C 349.107 82.362 359.999 51.864 360.000 51.861 Z"/>
</g>
</g>
</svg>
