<?xml version="1.0" encoding="utf-8"?>
<!-- Generator: Moho 13.5 build 20210422 -->
<!DOCTYPE svg PUBLIC "-//W3C//DTD SVG 1.1//EN" "http://www.w3.org/Graphics/SVG/1.1/DTD/svg11.dtd">
<svg version="1.1" id="Frame_0" xmlns="http://www.w3.org/2000/svg" xmlns:xlink="http://www.w3.org/1999/xlink" width="720px" height="720px">
<g id="flower_8petal">
<g id="flower_8petal_2">
<radialGradient id="F77F9977-CA01-4803-89BE-2EE0D86F6CD9_0" cx="50.00%" cy="50.00%" r="50.00%">
<stop offset="18.82%" style="stop-color:rgb(0,0,0);stop-opacity:1.00" />
<stop offset="84.31%" style="stop-color:rgb(255,255,255);stop-opacity:1.00" />
</radialGradient>
<path id="S1" fill="url(#F77F9977-CA01-4803-89BE-2EE0D86F6CD9_0)" fill-rule="evenodd" stroke="#000000" stroke-width="4" stroke-linecap="round" stroke-linejoin="round" d="M 163.959 321.877 C 163.959 430.384 251.493 517.918 360.000 517.918 C 468.507 517.918 556.041 430.384 556.041 321.877 C 556.041 213.369 468.507 125.836 360.000 125.836 C 251.493 125.836 163.959 213.369 163.959 321.877 M 144.159 106.035 C 195.961 123.303 206.927 74.887 278.942 126.122 C 293.572 39.015 335.581 65.471 360.000 16.632 C 384.420 65.471 426.372 39.108 441.236 125.995 C 512.897 75.013 524.040 123.303 575.841 106.035 C 558.574 157.837 606.990 168.803 555.755 240.818 C 642.861 255.448 616.406 297.457 665.245 321.877 C 616.406 346.296 642.767 388.248 555.883 403.113 C 606.863 474.773 558.574 485.916 575.841 537.718 C 524.039 520.450 512.896 568.740 441.235 517.759 C 426.371 604.645 384.420 578.283 360.000 627.122 C 335.581 578.282 293.572 604.738 278.942 517.631 C 206.927 568.866 195.961 520.450 144.159 537.718 C 161.426 485.916 113.136 474.774 164.118 403.112 C 77.232 388.249 103.594 346.296 54.755 321.877 C 103.594 297.457 77.138 255.448 164.246 240.819 C 113.009 168.801 161.427 157.837 144.159 106.035 Z"/>
</g>
<g id="specs_2">
<path fill="#ff00ff" fill-rule="evenodd" stroke="none" d="M 209.061 472.816 C 209.091 472.816 510.909 472.816 510.939 472.816 C 510.939 472.786 510.939 170.968 510.939 170.938 C 510.909 170.938 209.091 170.938 209.061 170.938 C 209.061 170.968 209.061 472.786 209.061 472.816 Z"/>
<path fill="#ff0000" fill-rule="evenodd" stroke="none" d="M 360.000 680.368 C 360.001 680.371 371.466 712.472 371.467 712.475 C 371.466 712.474 360.001 701.807 360.000 701.806 C 359.999 701.807 348.535 712.474 348.533 712.475 C 348.535 712.472 359.999 680.371 360.000 680.368 Z"/>
<path fill="#0000ff" fill-rule="evenodd" stroke="none" d="M 360.000 6.247 C 360.001 6.249 366.660 24.895 366.661 24.897 C 366.660 24.897 360.001 18.701 360.000 18.700 C 359.999 18.701 353.340 24.897 353.339 24.897 C 353.340 24.895 359.999 6.249 360.000 6.247 Z"/>
<path fill="#00ff00" fill-rule="evenodd" stroke="none" d="M 44.947 322.802 C 44.949 322.802 63.562 316.048 63.564 316.047 C 63.563 316.048 57.401 322.739 57.400 322.739 C 57.401 322.740 63.630 329.368 63.631 329.369 C 63.629 329.368 44.949 322.803 44.947 322.802 Z"/>
<path fill="#ffff00" fill-rule="evenodd" stroke="none" d="M 136.534 546.451 C 136.535 546.449 144.799 528.456 144.800 528.454 C 144.800 528.455 145.235 537.541 145.235 537.542 C 145.236 537.542 154.329 537.762 154.330 537.762 C 154.328 537.763 136.536 546.450 136.534 546.451 Z"/>
<path fill="#ffff00" fill-rule="evenodd" stroke="none" d="M 583.466 546.231 C 583.465 546.229 574.842 528.405 574.841 528.403 C 574.841 528.404 574.589 537.497 574.588 537.498 C 574.588 537.498 565.500 537.901 565.499 537.901 C 565.501 537.902 583.464 546.230 583.466 546.231 Z"/>
<path fill="#00ff00" fill-rule="evenodd" stroke="none" d="M 675.053 322.802 C 675.051 322.802 656.438 316.048 656.436 316.047 C 656.437 316.048 662.599 322.739 662.600 322.739 C 662.599 322.740 656.370 329.368 656.369 329.369 C 656.371 329.368 675.051 322.803 675.053 322.802 Z"/>
<path fill="#00ffff" fill-rule="evenodd" stroke="none" d="M 582.602 98.423 C 582.602 98.425 575.992 117.089 575.991 117.091 C 575.991 117.090 574.739 108.080 574.739 108.080 C 574.738 108.080 565.662 108.679 565.661 108.679 C 565.663 108.678 582.601 98.424 582.602 98.423 Z"/>
<path fill="#00ffff" fill-rule="evenodd" stroke="none" d="M 137.501 99.042 C 137.501 99.043 145.341 117.226 145.342 117.227 C 145.342 117.227 145.990 108.153 145.990 108.152 C 145.991 108.152 155.087 108.145 155.088 108.145 C 155.086 108.144 137.502 99.043 137.501 99.042 Z"/>
<path fill="#be0027" fill-rule="evenodd" stroke="none" d="M 360.000 646.989 C 360.001 646.985 371.466 614.884 371.467 614.881 C 371.466 614.882 360.001 625.549 360.000 625.550 C 359.999 625.549 348.535 614.882 348.533 614.881 C 348.535 614.884 359.999 646.985 360.000 646.989 Z"/>
</g>
</g>
</svg>
