<?xml version="1.0" encoding="utf-8"?>
<!-- Generator: Moho 13.5 build 20210422 -->
<!DOCTYPE svg PUBLIC "-//W3C//DTD SVG 1.1//EN" "http://www.w3.org/Graphics/SVG/1.1/DTD/svg11.dtd">
<svg version="1.1" id="Frame_0" xmlns="http://www.w3.org/2000/svg" xmlns:xlink="http://www.w3.org/1999/xlink" width="720px" height="720px">
<g id="flower_tulip_2">
<g id="flower_tulip">
<path fill="#ffffff" fill-rule="evenodd" stroke="#000000" stroke-width="4" stroke-linecap="round" stroke-linejoin="round" d="M 118.906 221.786 C 239.353 191.635 270.834 269.506 299.727 432.467 C 270.529 267.788 250.007 185.993 360.000 131.026 C 469.911 186.011 449.409 267.700 420.273 432.300 C 449.160 269.106 480.336 191.506 601.094 221.114 C 720.511 250.394 535.791 297.115 510.684 522.598 C 495.698 598.330 427.263 636.081 359.009 635.876 C 291.417 635.673 224.006 598.044 209.316 523.017 C 185.025 295.641 -1.582 251.946 118.906 221.786 Z"/>
<path fill="#ffffff" fill-rule="evenodd" stroke="#000000" stroke-width="4" stroke-linecap="round" stroke-linejoin="round" d="M 513.033 198.362 C 538.914 180.494 534.215 114.445 483.961 107.371 C 438.060 100.910 414.594 151.006 432.923 178.135 C 458.582 216.112 452.625 267.790 452.627 267.799 C 452.633 267.792 476.540 223.556 513.033 198.362 M 206.967 204.942 C 180.143 188.524 179.686 122.804 229.286 112.063 C 274.591 102.253 302.386 150.917 285.377 178.894 C 261.306 218.487 267.375 269.933 267.373 269.942 C 267.367 269.936 243.433 227.263 206.967 204.942 Z"/>
<path fill="none" stroke="#000000" stroke-width="4" stroke-linecap="round" stroke-linejoin="round" d="M 510.684 522.598 C 494.982 503.355 475.645 488.947 451.966 478.751 C 422.180 465.924 391.460 459.992 360.000 460.829 C 326.541 461.719 248.890 479.085 209.316 523.017 "/>
<path fill="none" stroke="#000000" stroke-width="4" stroke-linecap="round" stroke-linejoin="round" d="M 360.000 460.829 C 360.000 382.509 360.000 304.188 360.000 225.868 "/>
<path fill="none" stroke="#000000" stroke-width="4" stroke-linecap="round" stroke-linejoin="round" d="M 451.966 478.751 C 470.276 405.328 495.515 311.225 566.085 274.928 "/>
<path fill="none" stroke="#000000" stroke-width="4" stroke-linecap="round" stroke-linejoin="round" d="M 231.894 571.866 C 312.602 493.064 403.771 491.875 493.021 563.488 "/>
<path id="S8" fill="#ffffff" fill-rule="evenodd" stroke="#000000" stroke-width="4" stroke-linecap="round" stroke-linejoin="round" d="M 360.000 126.023 C 388.456 126.023 411.412 103.067 411.412 74.611 C 411.412 46.154 388.456 23.199 360.000 23.199 C 331.544 23.199 308.588 46.154 308.588 74.611 C 308.588 103.067 331.544 126.023 360.000 126.023 Z"/>
<path fill="none" stroke="#000000" stroke-width="4" stroke-linecap="round" stroke-linejoin="round" d="M 268.276 478.751 C 249.965 405.328 224.727 311.225 154.157 274.928 "/>
</g>
<g id="specs_2">
<path fill="#ff0000" fill-rule="evenodd" stroke="none" d="M 360.000 682.176 C 360.001 682.179 371.542 714.495 371.543 714.498 C 371.542 714.497 360.001 703.759 360.000 703.758 C 359.999 703.759 348.458 714.497 348.457 714.498 C 348.458 714.495 359.999 682.179 360.000 682.176 Z"/>
<path fill="#0000ff" fill-rule="evenodd" stroke="none" d="M 360.000 9.836 C 360.001 9.838 366.704 28.609 366.705 28.611 C 366.704 28.610 360.001 22.373 360.000 22.372 C 359.999 22.373 353.296 28.610 353.295 28.611 C 353.296 28.609 359.999 9.838 360.000 9.836 Z"/>
<path fill="#00ff00" fill-rule="evenodd" stroke="none" d="M 132.260 376.052 C 132.262 376.052 145.716 371.170 145.718 371.169 C 145.717 371.170 141.262 376.006 141.262 376.007 C 141.262 376.007 145.766 380.798 145.766 380.799 C 145.765 380.798 132.262 376.053 132.260 376.052 Z"/>
<path fill="#ffff00" fill-rule="evenodd" stroke="none" d="M 214.002 561.208 C 214.002 561.206 219.401 549.451 219.402 549.450 C 219.402 549.451 219.686 555.387 219.686 555.387 C 219.687 555.387 225.628 555.531 225.628 555.531 C 225.627 555.532 214.003 561.207 214.002 561.208 Z"/>
<path fill="#ffff00" fill-rule="evenodd" stroke="none" d="M 505.998 561.064 C 505.998 561.063 500.364 549.418 500.364 549.417 C 500.364 549.417 500.199 555.358 500.199 555.359 C 500.198 555.359 494.260 555.622 494.260 555.622 C 494.261 555.622 505.997 561.063 505.998 561.064 Z"/>
<path fill="#00ff00" fill-rule="evenodd" stroke="none" d="M 587.740 376.052 C 587.739 376.052 574.284 371.170 574.282 371.169 C 574.283 371.170 578.738 376.006 578.738 376.007 C 578.738 376.007 574.234 380.798 574.234 380.799 C 574.235 380.798 587.738 376.053 587.740 376.052 Z"/>
<path fill="#00ffff" fill-rule="evenodd" stroke="none" d="M 548.665 187.320 C 548.665 187.321 543.062 203.140 543.062 203.141 C 543.061 203.141 542.001 195.505 542.001 195.504 C 542.000 195.504 534.307 196.012 534.306 196.012 C 534.308 196.011 548.664 187.320 548.665 187.320 Z"/>
<path fill="#00ffff" fill-rule="evenodd" stroke="none" d="M 171.428 187.844 C 171.429 187.846 178.074 203.255 178.074 203.257 C 178.074 203.256 178.623 195.566 178.623 195.566 C 178.624 195.566 186.333 195.560 186.334 195.560 C 186.333 195.559 171.430 187.845 171.428 187.844 Z"/>
<path fill="#be0027" fill-rule="evenodd" stroke="none" d="M 360.000 656.064 C 360.001 656.061 371.542 623.745 371.543 623.742 C 371.542 623.743 360.001 634.481 360.000 634.482 C 359.999 634.481 348.458 623.743 348.457 623.742 C 348.458 623.745 359.999 656.061 360.000 656.064 Z"/>
</g>
</g>
</svg>
