<?xml version="1.0" encoding="utf-8"?>
<!-- Generator: Moho 12.5 build 22414 -->
<!DOCTYPE svg PUBLIC "-//W3C//DTD SVG 1.1//EN" "http://www.w3.org/Graphics/SVG/1.1/DTD/svg11.dtd">
<svg version="1.1" id="Frame_0" xmlns="http://www.w3.org/2000/svg" xmlns:xlink="http://www.w3.org/1999/xlink" width="720px" height="720px">
<g id="flowers">
<g id="flower">
<path fill="#ffffff" fill-rule="evenodd" stroke="none" d="M 119.893 338.101 C 141.536 338.101 150.988 359.145 149.396 377.315 C 147.020 404.441 119.896 431.114 119.893 431.119 C 119.890 431.114 92.767 404.441 90.391 377.315 C 88.579 356.638 98.251 338.101 119.893 338.101 Z"/>
<path fill="none" stroke="#000000" stroke-width="4" stroke-linecap="round" stroke-linejoin="round" d="M 119.893 431.119 C 120.050 406.200 120.207 381.281 120.363 356.362 M 90.391 377.315 C 88.579 356.638 98.251 338.101 119.893 338.101 C 141.536 338.101 150.988 359.145 149.396 377.315 C 147.020 404.441 119.896 431.114 119.893 431.119 C 119.890 431.114 92.767 404.441 90.391 377.315 "/>
<path fill="#ffffff" fill-rule="evenodd" stroke="none" d="M 208.691 402.521 C 215.379 423.104 198.286 438.596 180.513 442.697 C 153.981 448.820 120.232 431.267 120.226 431.265 C 120.230 431.261 137.216 397.223 162.280 386.580 C 181.385 378.468 202.003 381.938 208.691 402.521 Z"/>
<path fill="none" stroke="#000000" stroke-width="4" stroke-linecap="round" stroke-linejoin="round" d="M 120.226 431.265 C 144.449 423.506 168.673 415.747 192.897 407.988 M 162.280 386.580 C 181.385 378.468 202.003 381.938 208.691 402.521 C 215.379 423.104 198.286 438.596 180.513 442.697 C 153.981 448.820 120.232 431.267 120.226 431.265 C 120.230 431.261 137.216 397.223 162.280 386.580 "/>
<path fill="#ffffff" fill-rule="evenodd" stroke="none" d="M 175.013 506.892 C 157.504 519.613 137.488 508.144 128.096 492.508 C 114.074 469.166 120.339 431.645 120.338 431.638 C 120.344 431.641 157.965 437.277 175.832 457.826 C 189.450 473.489 192.522 494.171 175.013 506.892 Z"/>
<path fill="none" stroke="#000000" stroke-width="4" stroke-linecap="round" stroke-linejoin="round" d="M 120.338 431.638 C 135.005 451.856 149.671 472.074 164.338 492.292 M 175.832 457.826 C 189.450 473.489 192.522 494.171 175.013 506.892 C 157.504 519.613 137.488 508.144 128.096 492.508 C 114.074 469.166 120.339 431.645 120.338 431.638 C 120.344 431.641 157.965 437.277 175.832 457.826 "/>
<path fill="#ffffff" fill-rule="evenodd" stroke="none" d="M 31.458 402.340 C 24.770 422.923 41.863 438.415 59.636 442.516 C 86.169 448.638 119.918 431.085 119.924 431.084 C 119.920 431.079 102.933 397.041 77.869 386.399 C 58.764 378.287 38.146 381.757 31.458 402.340 Z"/>
<path fill="none" stroke="#000000" stroke-width="4" stroke-linecap="round" stroke-linejoin="round" d="M 119.924 431.084 C 95.579 423.385 71.234 415.686 46.890 407.988 M 77.869 386.399 C 58.764 378.287 38.146 381.757 31.458 402.340 C 24.770 422.923 41.863 438.415 59.636 442.516 C 86.169 448.638 119.918 431.085 119.924 431.084 C 119.920 431.079 102.933 397.041 77.869 386.399 "/>
<path fill="#ffffff" fill-rule="evenodd" stroke="none" d="M 65.317 506.529 C 82.827 519.250 102.842 507.781 112.235 492.146 C 126.257 468.803 119.991 431.282 119.992 431.276 C 119.987 431.279 82.365 436.915 64.499 457.464 C 50.880 473.127 47.808 493.808 65.317 506.529 Z"/>
<path fill="none" stroke="#000000" stroke-width="4" stroke-linecap="round" stroke-linejoin="round" d="M 119.992 431.276 C 105.144 451.615 90.297 471.953 75.449 492.292 M 64.499 457.464 C 50.880 473.127 47.808 493.808 65.317 506.529 C 82.827 519.250 102.842 507.781 112.235 492.146 C 126.257 468.803 119.991 431.282 119.992 431.276 C 119.987 431.279 82.365 436.915 64.499 457.464 "/>
<path fill="none" stroke="#000000" stroke-width="4" stroke-linecap="round" stroke-linejoin="round" d="M 120.024 431.026 C 116.597 409.755 113.170 388.484 109.742 367.213 "/>
<path fill="none" stroke="#000000" stroke-width="4" stroke-linecap="round" stroke-linejoin="round" d="M 120.175 431.409 C 139.751 420.977 159.327 410.545 178.902 400.114 "/>
<path fill="none" stroke="#000000" stroke-width="4" stroke-linecap="round" stroke-linejoin="round" d="M 120.386 431.463 C 136.024 446.242 151.662 461.020 167.301 475.799 "/>
<path fill="none" stroke="#000000" stroke-width="4" stroke-linecap="round" stroke-linejoin="round" d="M 119.962 430.965 C 98.378 427.951 76.794 424.938 55.210 421.924 "/>
<path fill="none" stroke="#000000" stroke-width="4" stroke-linecap="round" stroke-linejoin="round" d="M 120.006 431.462 C 110.670 450.667 101.334 469.872 91.998 489.077 "/>
<path fill="none" stroke="#000000" stroke-width="4" stroke-linecap="round" stroke-linejoin="round" d="M 120.034 431.089 C 123.697 410.188 127.360 389.287 131.023 368.386 "/>
<path fill="none" stroke="#000000" stroke-width="4" stroke-linecap="round" stroke-linejoin="round" d="M 120.316 431.513 C 141.797 428.661 163.278 425.809 184.760 422.957 "/>
<path fill="none" stroke="#000000" stroke-width="4" stroke-linecap="round" stroke-linejoin="round" d="M 120.007 431.436 C 129.329 450.994 138.651 470.552 147.972 490.110 "/>
<path fill="none" stroke="#000000" stroke-width="4" stroke-linecap="round" stroke-linejoin="round" d="M 119.971 431.118 C 100.336 421.128 80.702 411.137 61.067 401.146 "/>
<path fill="none" stroke="#000000" stroke-width="4" stroke-linecap="round" stroke-linejoin="round" d="M 119.848 431.393 C 104.122 446.539 88.395 461.686 72.669 476.832 "/>
<path fill="none" stroke="#000000" stroke-width="4" stroke-linecap="round" stroke-linejoin="round" d="M 119.991 431.153 C 113.942 413.940 107.894 396.727 101.845 379.514 "/>
<path fill="none" stroke="#000000" stroke-width="4" stroke-linecap="round" stroke-linejoin="round" d="M 120.098 431.202 C 134.581 419.654 149.064 408.105 163.547 396.557 "/>
<path fill="none" stroke="#000000" stroke-width="4" stroke-linecap="round" stroke-linejoin="round" d="M 120.394 431.514 C 135.257 441.189 150.120 450.864 164.983 460.539 "/>
<path fill="none" stroke="#000000" stroke-width="4" stroke-linecap="round" stroke-linejoin="round" d="M 119.833 431.169 C 101.522 431.600 83.210 432.031 64.899 432.462 "/>
<path fill="none" stroke="#000000" stroke-width="4" stroke-linecap="round" stroke-linejoin="round" d="M 120.182 431.525 C 115.097 448.482 110.011 465.440 104.926 482.398 "/>
<path fill="none" stroke="#000000" stroke-width="4" stroke-linecap="round" stroke-linejoin="round" d="M 120.076 431.320 C 126.043 415.257 132.009 399.194 137.975 383.131 "/>
<path fill="none" stroke="#000000" stroke-width="4" stroke-linecap="round" stroke-linejoin="round" d="M 120.147 431.511 C 138.193 432.957 156.240 434.403 174.287 435.848 "/>
<path fill="none" stroke="#000000" stroke-width="4" stroke-linecap="round" stroke-linejoin="round" d="M 120.018 431.515 C 124.765 449.605 129.512 467.695 134.259 485.784 "/>
<path fill="none" stroke="#000000" stroke-width="4" stroke-linecap="round" stroke-linejoin="round" d="M 120.076 431.234 C 105.755 420.436 91.433 409.637 77.112 398.838 "/>
<path fill="none" stroke="#000000" stroke-width="4" stroke-linecap="round" stroke-linejoin="round" d="M 119.863 431.222 C 104.397 441.632 88.932 452.042 73.466 462.452 "/>
<path fill="#ffffff" fill-rule="evenodd" stroke="#000000" stroke-width="4" stroke-linecap="round" stroke-linejoin="round" d="M 119.893 462.273 C 136.876 462.273 150.577 448.573 150.577 431.590 C 150.577 414.606 136.877 400.906 119.893 400.906 C 102.910 400.906 89.210 414.606 89.210 431.590 C 89.210 448.573 102.910 462.273 119.893 462.273 Z"/>
<path fill="#ffffff" fill-rule="evenodd" stroke="none" d="M 252.955 309.083 C 266.253 287.440 293.105 290.918 310.298 303.675 C 335.965 322.719 345.974 366.232 345.977 366.238 C 345.970 366.238 302.630 376.974 274.042 362.682 C 252.252 351.789 239.656 330.727 252.955 309.083 Z"/>
<path fill="none" stroke="#000000" stroke-width="4" stroke-linecap="round" stroke-linejoin="round" d="M 345.977 366.238 C 321.153 350.771 296.329 335.302 271.506 319.835 M 274.042 362.682 C 252.252 351.789 239.656 330.727 252.955 309.083 C 266.253 287.440 293.105 290.918 310.298 303.675 C 335.965 322.719 345.974 366.232 345.977 366.238 C 345.970 366.238 302.630 376.974 274.042 362.682 "/>
<path fill="#ffffff" fill-rule="evenodd" stroke="none" d="M 371.940 259.865 C 396.633 265.824 401.623 292.437 394.804 312.730 C 384.623 343.026 346.332 365.991 346.327 365.996 C 346.326 365.989 322.723 328.088 327.481 296.483 C 331.107 272.393 347.246 253.905 371.940 259.865 Z"/>
<path fill="none" stroke="#000000" stroke-width="4" stroke-linecap="round" stroke-linejoin="round" d="M 346.327 365.996 C 353.452 337.004 360.577 308.011 367.702 279.019 M 327.481 296.483 C 331.107 272.393 347.246 253.905 371.940 259.865 C 396.633 265.824 401.623 292.437 394.804 312.730 C 384.623 343.026 346.332 365.991 346.327 365.996 C 346.326 365.989 322.723 328.088 327.481 296.483 "/>
<path fill="#ffffff" fill-rule="evenodd" stroke="none" d="M 455.621 357.675 C 457.584 383.001 433.816 395.971 412.409 395.756 C 380.450 395.436 346.776 366.116 346.770 366.113 C 346.776 366.109 375.528 331.949 407.056 326.708 C 431.088 322.713 453.658 332.349 455.621 357.675 Z"/>
<path fill="none" stroke="#000000" stroke-width="4" stroke-linecap="round" stroke-linejoin="round" d="M 346.770 366.113 C 376.000 363.869 405.231 361.624 434.461 359.380 M 407.056 326.708 C 431.088 322.713 453.658 332.349 455.621 357.675 C 457.584 383.001 433.816 395.971 412.409 395.756 C 380.450 395.436 346.776 366.116 346.770 366.113 C 346.776 366.109 375.528 331.949 407.056 326.708 "/>
<path fill="#ffffff" fill-rule="evenodd" stroke="none" d="M 262.858 436.994 C 279.332 456.330 305.328 448.755 320.349 433.502 C 342.775 410.730 345.958 366.193 345.961 366.187 C 345.954 366.188 301.477 362.260 275.433 380.786 C 255.582 394.907 246.383 417.659 262.858 436.994 Z"/>
<path fill="none" stroke="#000000" stroke-width="4" stroke-linecap="round" stroke-linejoin="round" d="M 345.961 366.187 C 323.303 385.802 300.645 405.417 277.988 425.032 M 275.433 380.786 C 255.582 394.907 246.383 417.659 262.858 436.994 C 279.332 456.330 305.328 448.755 320.349 433.502 C 342.775 410.730 345.958 366.193 345.961 366.187 C 345.954 366.188 301.477 362.260 275.433 380.786 "/>
<path fill="#ffffff" fill-rule="evenodd" stroke="none" d="M 387.856 467.152 C 411.336 457.459 412.165 430.395 402.300 411.395 C 387.573 383.030 346.200 366.241 346.195 366.236 C 346.194 366.243 328.714 407.329 338.285 437.823 C 345.581 461.066 364.376 476.846 387.856 467.152 Z"/>
<path fill="none" stroke="#000000" stroke-width="4" stroke-linecap="round" stroke-linejoin="round" d="M 346.195 366.236 C 357.411 393.581 368.627 420.927 379.844 448.272 M 338.285 437.823 C 345.581 461.066 364.376 476.846 387.856 467.152 C 411.336 457.459 412.165 430.395 402.300 411.395 C 387.573 383.030 346.200 366.241 346.195 366.236 C 346.194 366.243 328.714 407.329 338.285 437.823 "/>
<path fill="none" stroke="#000000" stroke-width="4" stroke-linecap="round" stroke-linejoin="round" d="M 345.965 366.051 C 322.587 356.408 299.209 346.766 275.831 337.123 "/>
<path fill="none" stroke="#000000" stroke-width="4" stroke-linecap="round" stroke-linejoin="round" d="M 346.440 366.134 C 348.036 340.148 349.632 314.162 351.228 288.176 "/>
<path fill="none" stroke="#000000" stroke-width="4" stroke-linecap="round" stroke-linejoin="round" d="M 346.623 365.957 C 371.012 359.399 395.400 352.841 419.789 346.283 "/>
<path fill="none" stroke="#000000" stroke-width="4" stroke-linecap="round" stroke-linejoin="round" d="M 345.866 366.075 C 329.589 385.808 313.313 405.542 297.037 425.275 "/>
<path fill="none" stroke="#000000" stroke-width="4" stroke-linecap="round" stroke-linejoin="round" d="M 346.389 366.336 C 359.858 387.473 373.328 408.611 386.797 429.748 "/>
<path fill="none" stroke="#000000" stroke-width="4" stroke-linecap="round" stroke-linejoin="round" d="M 346.033 366.080 C 327.382 349.574 308.731 333.068 290.080 316.562 "/>
<path fill="none" stroke="#000000" stroke-width="4" stroke-linecap="round" stroke-linejoin="round" d="M 346.630 366.058 C 356.977 342.823 367.324 319.589 377.671 296.354 "/>
<path fill="none" stroke="#000000" stroke-width="4" stroke-linecap="round" stroke-linejoin="round" d="M 346.364 366.319 C 371.650 369.014 396.937 371.710 422.223 374.405 "/>
<path fill="none" stroke="#000000" stroke-width="4" stroke-linecap="round" stroke-linejoin="round" d="M 346.024 366.161 C 323.968 379.657 301.913 393.154 279.857 406.650 "/>
<path fill="none" stroke="#000000" stroke-width="4" stroke-linecap="round" stroke-linejoin="round" d="M 346.223 366.452 C 351.707 391.486 357.191 416.519 362.675 441.553 "/>
<path fill="none" stroke="#000000" stroke-width="4" stroke-linecap="round" stroke-linejoin="round" d="M 346.071 366.162 C 325.141 361.634 304.210 357.106 283.280 352.579 "/>
<path fill="none" stroke="#000000" stroke-width="4" stroke-linecap="round" stroke-linejoin="round" d="M 346.186 366.086 C 343.536 344.506 340.886 322.926 338.236 301.346 "/>
<path fill="none" stroke="#000000" stroke-width="4" stroke-linecap="round" stroke-linejoin="round" d="M 346.680 365.980 C 365.488 357.062 384.296 348.143 403.103 339.224 "/>
<path fill="none" stroke="#000000" stroke-width="4" stroke-linecap="round" stroke-linejoin="round" d="M 345.989 366.329 C 335.169 384.906 324.349 403.483 313.529 422.060 "/>
<path fill="none" stroke="#000000" stroke-width="4" stroke-linecap="round" stroke-linejoin="round" d="M 346.560 366.199 C 360.394 381.704 374.228 397.210 388.062 412.715 "/>
<path fill="none" stroke="#000000" stroke-width="4" stroke-linecap="round" stroke-linejoin="round" d="M 346.290 366.179 C 333.893 350.342 321.495 334.506 309.097 318.670 "/>
<path fill="none" stroke="#000000" stroke-width="4" stroke-linecap="round" stroke-linejoin="round" d="M 346.525 366.226 C 359.059 349.067 371.594 331.908 384.128 314.749 "/>
<path fill="none" stroke="#000000" stroke-width="4" stroke-linecap="round" stroke-linejoin="round" d="M 346.449 366.357 C 367.457 372.725 388.464 379.093 409.472 385.461 "/>
<path fill="none" stroke="#000000" stroke-width="4" stroke-linecap="round" stroke-linejoin="round" d="M 346.205 366.126 C 326.606 373.813 307.007 381.500 287.408 389.187 "/>
<path fill="none" stroke="#000000" stroke-width="4" stroke-linecap="round" stroke-linejoin="round" d="M 346.061 366.332 C 346.969 388.195 347.877 410.058 348.785 431.920 "/>
<path fill="#ffffff" fill-rule="evenodd" stroke="#000000" stroke-width="4" stroke-linecap="round" stroke-linejoin="round" d="M 377.132 385.381 C 387.567 368.397 382.285 346.278 365.301 335.843 C 348.317 325.408 326.198 330.690 315.763 347.674 C 305.327 364.658 310.610 386.777 327.594 397.212 C 344.578 407.648 366.697 402.365 377.132 385.381 Z"/>
<path fill="#ffffff" fill-rule="evenodd" stroke="none" d="M 177.546 165.739 C 191.675 172.861 190.921 189.709 183.903 201.048 C 173.426 217.975 146.942 226.463 146.938 226.466 C 146.938 226.461 138.007 200.123 145.382 181.632 C 151.003 167.537 163.417 158.618 177.546 165.739 Z"/>
<path fill="none" stroke="#000000" stroke-width="4" stroke-linecap="round" stroke-linejoin="round" d="M 146.938 226.466 C 155.240 210.249 163.542 194.032 171.844 177.816 M 145.382 181.632 C 151.003 167.537 163.417 158.618 177.546 165.739 C 191.675 172.861 190.921 189.709 183.903 201.048 C 173.426 217.975 146.942 226.463 146.938 226.466 C 146.938 226.461 138.007 200.123 145.382 181.632 "/>
<path fill="#ffffff" fill-rule="evenodd" stroke="none" d="M 214.319 237.015 C 211.912 252.653 195.656 257.142 182.703 253.972 C 163.367 249.238 147.110 226.673 147.107 226.670 C 147.111 226.669 169.400 210.037 189.265 211.336 C 204.407 212.327 216.726 221.376 214.319 237.015 Z"/>
<path fill="none" stroke="#000000" stroke-width="4" stroke-linecap="round" stroke-linejoin="round" d="M 147.107 226.670 C 165.474 229.576 183.842 232.481 202.209 235.387 M 189.265 211.336 C 204.407 212.327 216.726 221.376 214.319 237.015 C 211.912 252.653 195.656 257.142 182.703 253.972 C 163.367 249.238 147.110 226.673 147.107 226.670 C 147.111 226.669 169.400 210.037 189.265 211.336 "/>
<path fill="#ffffff" fill-rule="evenodd" stroke="none" d="M 157.989 294.070 C 142.372 296.614 133.079 282.540 132.092 269.242 C 130.619 249.389 147.056 226.955 147.057 226.951 C 147.060 226.954 169.766 243.013 174.669 262.308 C 178.406 277.014 173.606 291.527 157.989 294.070 Z"/>
<path fill="none" stroke="#000000" stroke-width="4" stroke-linecap="round" stroke-linejoin="round" d="M 147.057 226.951 C 149.980 244.976 152.902 263.001 155.824 281.026 M 174.669 262.308 C 178.406 277.014 173.606 291.527 157.989 294.070 C 142.372 296.614 133.079 282.540 132.092 269.242 C 130.619 249.389 147.056 226.955 147.057 226.951 C 147.060 226.954 169.766 243.013 174.669 262.308 "/>
<path fill="#ffffff" fill-rule="evenodd" stroke="none" d="M 98.674 178.577 C 87.534 189.814 93.596 205.553 103.849 214.078 C 119.156 226.806 146.965 226.451 146.969 226.453 C 146.968 226.448 147.079 198.638 134.218 183.442 C 124.415 171.860 109.813 167.340 98.674 178.577 Z"/>
<path fill="none" stroke="#000000" stroke-width="4" stroke-linecap="round" stroke-linejoin="round" d="M 146.969 226.453 C 133.609 213.416 120.249 200.379 106.890 187.342 M 134.218 183.442 C 124.415 171.860 109.813 167.340 98.674 178.577 C 87.534 189.814 93.596 205.553 103.849 214.078 C 119.156 226.806 146.965 226.451 146.969 226.453 C 146.968 226.448 147.079 198.638 134.218 183.442 "/>
<path fill="#ffffff" fill-rule="evenodd" stroke="none" d="M 86.495 257.738 C 93.739 271.804 110.580 270.903 121.857 263.786 C 138.692 253.161 146.948 226.604 146.951 226.601 C 146.946 226.600 120.531 217.901 102.105 225.437 C 88.060 231.181 79.250 243.672 86.495 257.738 Z"/>
<path fill="none" stroke="#000000" stroke-width="4" stroke-linecap="round" stroke-linejoin="round" d="M 146.951 226.601 C 130.565 234.993 114.179 243.385 97.794 251.777 M 102.105 225.437 C 88.060 231.181 79.250 243.672 86.495 257.738 C 93.739 271.804 110.580 270.903 121.857 263.786 C 138.692 253.161 146.948 226.604 146.951 226.601 C 146.946 226.600 120.531 217.901 102.105 225.437 "/>
<path fill="none" stroke="#000000" stroke-width="4" stroke-linecap="round" stroke-linejoin="round" d="M 147.054 226.448 C 151.816 211.434 156.577 196.419 161.339 181.405 "/>
<path fill="none" stroke="#000000" stroke-width="4" stroke-linecap="round" stroke-linejoin="round" d="M 147.027 226.748 C 163.239 226.379 179.451 226.010 195.664 225.641 "/>
<path fill="none" stroke="#000000" stroke-width="4" stroke-linecap="round" stroke-linejoin="round" d="M 147.146 226.852 C 152.493 241.646 157.839 256.440 163.185 271.234 "/>
<path fill="none" stroke="#000000" stroke-width="4" stroke-linecap="round" stroke-linejoin="round" d="M 147.034 226.388 C 133.934 217.318 120.835 208.248 107.735 199.178 "/>
<path fill="none" stroke="#000000" stroke-width="4" stroke-linecap="round" stroke-linejoin="round" d="M 146.899 226.726 C 134.484 236.192 122.070 245.658 109.655 255.124 "/>
<path fill="none" stroke="#000000" stroke-width="4" stroke-linecap="round" stroke-linejoin="round" d="M 147.039 226.492 C 156.308 214.053 165.577 201.613 174.846 189.173 "/>
<path fill="none" stroke="#000000" stroke-width="4" stroke-linecap="round" stroke-linejoin="round" d="M 147.084 226.862 C 162.046 232.068 177.009 237.275 191.971 242.481 "/>
<path fill="none" stroke="#000000" stroke-width="4" stroke-linecap="round" stroke-linejoin="round" d="M 146.908 226.710 C 146.558 242.545 146.208 258.381 145.858 274.217 "/>
<path fill="none" stroke="#000000" stroke-width="4" stroke-linecap="round" stroke-linejoin="round" d="M 146.989 226.491 C 137.458 213.507 127.927 200.524 118.397 187.541 "/>
<path fill="none" stroke="#000000" stroke-width="4" stroke-linecap="round" stroke-linejoin="round" d="M 146.818 226.630 C 131.568 231.343 116.317 236.056 101.066 240.769 "/>
<path fill="none" stroke="#000000" stroke-width="4" stroke-linecap="round" stroke-linejoin="round" d="M 146.991 226.520 C 148.706 213.292 150.421 200.064 152.136 186.837 "/>
<path fill="none" stroke="#000000" stroke-width="4" stroke-linecap="round" stroke-linejoin="round" d="M 147.044 226.587 C 160.299 223.814 173.554 221.040 186.810 218.266 "/>
<path fill="none" stroke="#000000" stroke-width="4" stroke-linecap="round" stroke-linejoin="round" d="M 147.135 226.888 C 153.654 238.095 160.174 249.302 166.693 260.509 "/>
<path fill="none" stroke="#000000" stroke-width="4" stroke-linecap="round" stroke-linejoin="round" d="M 146.882 226.478 C 134.786 220.734 122.690 214.990 110.593 209.246 "/>
<path fill="none" stroke="#000000" stroke-width="4" stroke-linecap="round" stroke-linejoin="round" d="M 146.993 226.825 C 138.093 236.223 129.193 245.620 120.293 255.018 "/>
<path fill="none" stroke="#000000" stroke-width="4" stroke-linecap="round" stroke-linejoin="round" d="M 146.991 226.657 C 156.172 218.134 165.353 209.610 174.533 201.087 "/>
<path fill="none" stroke="#000000" stroke-width="4" stroke-linecap="round" stroke-linejoin="round" d="M 146.974 226.805 C 158.280 233.687 169.586 240.569 180.892 247.451 "/>
<path fill="none" stroke="#000000" stroke-width="4" stroke-linecap="round" stroke-linejoin="round" d="M 146.889 226.765 C 144.036 240.137 141.182 253.509 138.329 266.881 "/>
<path fill="none" stroke="#000000" stroke-width="4" stroke-linecap="round" stroke-linejoin="round" d="M 147.019 226.601 C 141.223 214.839 135.427 203.076 129.630 191.314 "/>
<path fill="none" stroke="#000000" stroke-width="4" stroke-linecap="round" stroke-linejoin="round" d="M 146.884 226.523 C 133.362 228.230 119.840 229.937 106.318 231.644 "/>
<path fill="#ffffff" fill-rule="evenodd" stroke="#000000" stroke-width="4" stroke-linecap="round" stroke-linejoin="round" d="M 136.687 246.804 C 147.774 252.393 161.226 247.956 166.815 236.869 C 172.403 225.782 167.967 212.330 156.880 206.741 C 145.792 201.153 132.340 205.589 126.752 216.676 C 121.163 227.764 125.599 241.216 136.687 246.804 Z"/>
<path fill="#ffffff" fill-rule="evenodd" stroke="none" d="M 568.285 414.398 C 588.573 421.935 590.104 444.953 582.284 461.432 C 570.609 486.032 535.895 501.589 535.890 501.593 C 535.889 501.587 519.753 467.138 526.973 440.882 C 532.476 420.869 547.997 406.861 568.285 414.398 Z"/>
<path fill="none" stroke="#000000" stroke-width="4" stroke-linecap="round" stroke-linejoin="round" d="M 535.890 501.593 C 544.715 478.289 553.541 454.984 562.366 431.680 M 526.973 440.882 C 532.476 420.869 547.997 406.861 568.285 414.398 C 588.573 421.935 590.104 444.953 582.284 461.432 C 570.609 486.032 535.895 501.589 535.890 501.593 C 535.889 501.587 519.753 467.138 526.973 440.882 "/>
<path fill="#ffffff" fill-rule="evenodd" stroke="none" d="M 629.089 505.710 C 628.190 527.334 606.771 535.903 588.683 533.558 C 561.679 530.057 536.156 501.849 536.151 501.846 C 536.156 501.843 563.933 475.851 591.135 474.604 C 611.869 473.653 629.988 484.086 629.089 505.710 Z"/>
<path fill="none" stroke="#000000" stroke-width="4" stroke-linecap="round" stroke-linejoin="round" d="M 536.151 501.846 C 561.560 503.009 586.970 504.171 612.380 505.334 M 591.135 474.604 C 611.869 473.653 629.988 484.086 629.089 505.710 C 628.190 527.334 606.771 535.903 588.683 533.558 C 561.679 530.057 536.156 501.849 536.151 501.846 C 536.156 501.843 563.933 475.851 591.135 474.604 "/>
<path fill="#ffffff" fill-rule="evenodd" stroke="none" d="M 561.171 591.818 C 540.327 597.645 525.559 579.923 522.200 561.996 C 517.185 535.232 536.125 502.241 536.126 502.235 C 536.131 502.239 569.434 520.625 579.026 546.109 C 586.337 565.535 582.014 585.991 561.171 591.818 Z"/>
<path fill="none" stroke="#000000" stroke-width="4" stroke-linecap="round" stroke-linejoin="round" d="M 536.126 502.235 C 542.834 526.295 549.541 550.355 556.248 574.415 M 579.026 546.109 C 586.337 565.535 582.014 585.991 561.171 591.818 C 540.327 597.645 525.559 579.923 522.200 561.996 C 517.185 535.232 536.125 502.241 536.126 502.235 C 536.131 502.239 569.434 520.625 579.026 546.109 "/>
<path fill="#ffffff" fill-rule="evenodd" stroke="none" d="M 463.014 443.817 C 449.576 460.782 460.204 481.257 475.436 491.291 C 498.175 506.271 535.925 501.570 535.931 501.571 C 535.929 501.565 531.860 463.742 512.071 445.037 C 496.988 430.779 476.452 426.851 463.014 443.817 Z"/>
<path fill="none" stroke="#000000" stroke-width="4" stroke-linecap="round" stroke-linejoin="round" d="M 535.931 501.571 C 515.792 485.876 495.652 470.181 475.513 454.485 M 512.071 445.037 C 496.988 430.779 476.452 426.851 463.014 443.817 C 449.576 460.782 460.204 481.257 475.436 491.291 C 498.175 506.271 535.925 501.570 535.931 501.571 C 535.929 501.565 531.860 463.742 512.071 445.037 "/>
<path fill="#ffffff" fill-rule="evenodd" stroke="none" d="M 458.469 553.275 C 470.451 571.298 493.208 567.518 507.458 556.132 C 528.731 539.134 535.925 501.780 535.928 501.775 C 535.922 501.775 498.693 493.957 474.789 506.997 C 456.568 516.936 446.486 535.253 458.469 553.275 Z"/>
<path fill="none" stroke="#000000" stroke-width="4" stroke-linecap="round" stroke-linejoin="round" d="M 535.928 501.775 C 514.927 515.669 493.926 529.564 472.924 543.458 M 474.789 506.997 C 456.568 516.936 446.486 535.253 458.469 553.275 C 470.451 571.298 493.208 567.518 507.458 556.132 C 528.731 539.134 535.925 501.780 535.928 501.775 C 535.922 501.775 498.693 493.957 474.789 506.997 "/>
<path fill="none" stroke="#000000" stroke-width="4" stroke-linecap="round" stroke-linejoin="round" d="M 536.045 501.552 C 540.240 480.419 544.436 459.286 548.631 438.153 "/>
<path fill="none" stroke="#000000" stroke-width="4" stroke-linecap="round" stroke-linejoin="round" d="M 536.054 501.963 C 558.037 499.002 580.020 496.040 602.003 493.079 "/>
<path fill="none" stroke="#000000" stroke-width="4" stroke-linecap="round" stroke-linejoin="round" d="M 536.232 502.087 C 545.745 521.386 555.257 540.686 564.769 559.986 "/>
<path fill="none" stroke="#000000" stroke-width="4" stroke-linecap="round" stroke-linejoin="round" d="M 536.009 501.473 C 516.825 491.131 497.642 480.789 478.458 470.447 "/>
<path fill="none" stroke="#000000" stroke-width="4" stroke-linecap="round" stroke-linejoin="round" d="M 535.877 501.953 C 520.437 516.705 504.996 531.456 489.556 546.208 "/>
<path fill="none" stroke="#000000" stroke-width="4" stroke-linecap="round" stroke-linejoin="round" d="M 536.032 501.614 C 546.745 483.297 557.458 464.980 568.171 446.664 "/>
<path fill="none" stroke="#000000" stroke-width="4" stroke-linecap="round" stroke-linejoin="round" d="M 536.149 502.109 C 557.279 506.917 578.409 511.725 599.538 516.532 "/>
<path fill="none" stroke="#000000" stroke-width="4" stroke-linecap="round" stroke-linejoin="round" d="M 535.887 501.929 C 537.814 523.510 539.740 545.090 541.667 566.670 "/>
<path fill="none" stroke="#000000" stroke-width="4" stroke-linecap="round" stroke-linejoin="round" d="M 535.963 501.619 C 521.037 485.416 506.111 469.213 491.185 453.010 "/>
<path fill="none" stroke="#000000" stroke-width="4" stroke-linecap="round" stroke-linejoin="round" d="M 535.753 501.834 C 515.736 510.555 495.719 519.277 475.702 527.998 "/>
<path fill="none" stroke="#000000" stroke-width="4" stroke-linecap="round" stroke-linejoin="round" d="M 535.970 501.659 C 536.295 483.417 536.620 465.175 536.944 446.933 "/>
<path fill="none" stroke="#000000" stroke-width="4" stroke-linecap="round" stroke-linejoin="round" d="M 536.053 501.742 C 553.651 495.961 571.250 490.179 588.848 484.398 "/>
<path fill="none" stroke="#000000" stroke-width="4" stroke-linecap="round" stroke-linejoin="round" d="M 536.222 502.138 C 546.785 516.383 557.348 530.629 567.911 544.874 "/>
<path fill="none" stroke="#000000" stroke-width="4" stroke-linecap="round" stroke-linejoin="round" d="M 535.816 501.618 C 518.501 495.645 501.186 489.672 483.871 483.699 "/>
<path fill="none" stroke="#000000" stroke-width="4" stroke-linecap="round" stroke-linejoin="round" d="M 536.020 502.074 C 525.347 516.199 514.674 530.324 504.001 544.449 "/>
<path fill="none" stroke="#000000" stroke-width="4" stroke-linecap="round" stroke-linejoin="round" d="M 535.992 501.845 C 547.179 488.866 558.366 475.886 569.553 462.907 "/>
<path fill="none" stroke="#000000" stroke-width="4" stroke-linecap="round" stroke-linejoin="round" d="M 535.991 502.049 C 552.405 509.689 568.818 517.329 585.231 524.969 "/>
<path fill="none" stroke="#000000" stroke-width="4" stroke-linecap="round" stroke-linejoin="round" d="M 535.869 502.007 C 534.019 520.618 532.169 539.229 530.319 557.839 "/>
<path fill="none" stroke="#000000" stroke-width="4" stroke-linecap="round" stroke-linejoin="round" d="M 536.022 501.765 C 526.357 486.655 516.693 471.544 507.029 456.434 "/>
<path fill="none" stroke="#000000" stroke-width="4" stroke-linecap="round" stroke-linejoin="round" d="M 535.826 501.679 C 517.703 506.051 499.580 510.424 481.457 514.796 "/>
<path fill="#ffffff" fill-rule="evenodd" stroke="#000000" stroke-width="4" stroke-linecap="round" stroke-linejoin="round" d="M 525.041 530.797 C 540.961 536.711 558.575 528.640 564.489 512.720 C 570.404 496.800 562.332 479.186 546.412 473.271 C 530.492 467.357 512.878 475.428 506.964 491.348 C 501.049 507.268 509.121 524.882 525.041 530.797 Z"/>
<path fill="#ffffff" fill-rule="evenodd" stroke="none" d="M 460.417 100.868 C 480.813 93.630 496.759 110.301 501.335 127.957 C 508.168 154.315 491.528 188.524 491.527 188.530 C 491.522 188.526 457.040 172.460 445.728 147.691 C 437.106 128.811 440.021 108.106 460.417 100.868 Z"/>
<path fill="none" stroke="#000000" stroke-width="4" stroke-linecap="round" stroke-linejoin="round" d="M 491.527 188.530 C 483.340 164.993 475.154 141.457 466.967 117.921 M 445.728 147.691 C 437.106 128.811 440.021 108.106 460.417 100.868 C 480.813 93.630 496.759 110.301 501.335 127.957 C 508.168 154.315 491.528 188.524 491.527 188.530 C 491.522 188.526 457.040 172.460 445.728 147.691 "/>
<path fill="#ffffff" fill-rule="evenodd" stroke="none" d="M 565.646 131.880 C 578.833 149.042 567.906 169.358 552.528 179.167 C 529.571 193.811 491.895 188.556 491.889 188.557 C 491.891 188.551 496.515 150.792 516.577 132.380 C 531.868 118.345 552.460 114.719 565.646 131.880 Z"/>
<path fill="none" stroke="#000000" stroke-width="4" stroke-linecap="round" stroke-linejoin="round" d="M 491.889 188.557 C 512.122 173.143 532.356 157.729 552.590 142.315 M 516.577 132.380 C 531.868 118.345 552.460 114.719 565.646 131.880 C 578.833 149.042 567.906 169.358 552.528 179.167 C 529.571 193.811 491.895 188.556 491.889 188.557 C 491.891 188.551 496.515 150.792 516.577 132.380 "/>
<path fill="#ffffff" fill-rule="evenodd" stroke="none" d="M 568.814 241.504 C 556.568 259.349 533.869 255.234 519.788 243.641 C 498.767 226.332 492.122 188.876 492.120 188.870 C 492.126 188.871 529.465 181.601 553.176 194.990 C 571.249 205.197 581.060 223.660 568.814 241.504 Z"/>
<path fill="none" stroke="#000000" stroke-width="4" stroke-linecap="round" stroke-linejoin="round" d="M 492.120 188.870 C 512.703 203.019 533.287 217.167 553.871 231.316 M 553.176 194.990 C 571.249 205.197 581.060 223.660 568.814 241.504 C 556.568 259.349 533.869 255.234 519.788 243.641 C 498.767 226.332 492.122 188.876 492.120 188.870 C 492.126 188.871 529.465 181.601 553.176 194.990 "/>
<path fill="#ffffff" fill-rule="evenodd" stroke="none" d="M 398.559 190.985 C 399.140 212.620 420.430 221.503 438.551 219.423 C 465.603 216.319 491.538 188.490 491.544 188.486 C 491.538 188.484 464.146 162.087 436.966 160.440 C 416.248 159.184 397.977 169.350 398.559 190.985 Z"/>
<path fill="none" stroke="#000000" stroke-width="4" stroke-linecap="round" stroke-linejoin="round" d="M 491.544 188.486 C 466.026 189.373 440.508 190.260 414.991 191.146 M 436.966 160.440 C 416.248 159.184 397.977 169.350 398.559 190.985 C 399.140 212.620 420.430 221.503 438.551 219.423 C 465.603 216.319 491.538 188.490 491.544 188.486 C 491.538 188.484 464.146 162.087 436.966 160.440 "/>
<path fill="#ffffff" fill-rule="evenodd" stroke="none" d="M 465.314 277.850 C 486.070 283.983 501.097 266.480 504.719 248.603 C 510.127 221.916 491.673 188.651 491.672 188.645 C 491.668 188.649 458.098 206.543 448.133 231.884 C 440.537 251.200 444.559 271.717 465.314 277.850 Z"/>
<path fill="none" stroke="#000000" stroke-width="4" stroke-linecap="round" stroke-linejoin="round" d="M 491.672 188.645 C 484.482 212.778 477.291 236.911 470.101 261.044 M 448.133 231.884 C 440.537 251.200 444.559 271.717 465.314 277.850 C 486.070 283.983 501.097 266.480 504.719 248.603 C 510.127 221.916 491.673 188.651 491.672 188.645 C 491.668 188.649 458.098 206.543 448.133 231.884 "/>
<path fill="none" stroke="#000000" stroke-width="4" stroke-linecap="round" stroke-linejoin="round" d="M 491.619 188.399 C 481.275 169.499 470.931 150.599 460.587 131.699 "/>
<path fill="none" stroke="#000000" stroke-width="4" stroke-linecap="round" stroke-linejoin="round" d="M 491.889 188.709 C 506.849 172.331 521.808 155.952 536.768 139.574 "/>
<path fill="none" stroke="#000000" stroke-width="4" stroke-linecap="round" stroke-linejoin="round" d="M 492.105 188.689 C 511.786 197.386 531.467 206.084 551.147 214.782 "/>
<path fill="none" stroke="#000000" stroke-width="4" stroke-linecap="round" stroke-linejoin="round" d="M 491.540 188.362 C 470.191 192.740 448.842 197.119 427.493 201.497 "/>
<path fill="none" stroke="#000000" stroke-width="4" stroke-linecap="round" stroke-linejoin="round" d="M 491.748 188.815 C 489.372 210.037 486.997 231.258 484.621 252.480 "/>
<path fill="none" stroke="#000000" stroke-width="4" stroke-linecap="round" stroke-linejoin="round" d="M 491.649 188.455 C 488.111 167.532 484.573 146.610 481.035 125.687 "/>
<path fill="none" stroke="#000000" stroke-width="4" stroke-linecap="round" stroke-linejoin="round" d="M 492.056 188.760 C 511.347 178.888 530.637 169.015 549.928 159.143 "/>
<path fill="none" stroke="#000000" stroke-width="4" stroke-linecap="round" stroke-linejoin="round" d="M 491.740 188.790 C 507.066 204.104 522.392 219.418 537.718 234.733 "/>
<path fill="none" stroke="#000000" stroke-width="4" stroke-linecap="round" stroke-linejoin="round" d="M 491.599 188.503 C 469.754 185.655 447.909 182.806 426.064 179.957 "/>
<path fill="none" stroke="#000000" stroke-width="4" stroke-linecap="round" stroke-linejoin="round" d="M 491.576 188.803 C 481.821 208.337 472.065 227.871 462.310 247.404 "/>
<path fill="none" stroke="#000000" stroke-width="4" stroke-linecap="round" stroke-linejoin="round" d="M 491.630 188.529 C 480.173 174.330 468.716 160.131 457.258 145.932 "/>
<path fill="none" stroke="#000000" stroke-width="4" stroke-linecap="round" stroke-linejoin="round" d="M 491.747 188.540 C 501.534 172.813 511.321 157.085 521.107 141.358 "/>
<path fill="none" stroke="#000000" stroke-width="4" stroke-linecap="round" stroke-linejoin="round" d="M 492.131 188.735 C 509.374 192.882 526.616 197.029 543.859 201.176 "/>
<path fill="none" stroke="#000000" stroke-width="4" stroke-linecap="round" stroke-linejoin="round" d="M 491.486 188.597 C 474.373 195.127 457.261 201.658 440.148 208.188 "/>
<path fill="none" stroke="#000000" stroke-width="4" stroke-linecap="round" stroke-linejoin="round" d="M 491.934 188.815 C 492.813 206.497 493.692 224.180 494.571 241.862 "/>
<path fill="none" stroke="#000000" stroke-width="4" stroke-linecap="round" stroke-linejoin="round" d="M 491.766 188.658 C 492.017 171.525 492.267 154.391 492.518 137.258 "/>
<path fill="none" stroke="#000000" stroke-width="4" stroke-linecap="round" stroke-linejoin="round" d="M 491.897 188.815 C 509.387 184.142 526.878 179.468 544.369 174.795 "/>
<path fill="none" stroke="#000000" stroke-width="4" stroke-linecap="round" stroke-linejoin="round" d="M 491.777 188.861 C 502.300 204.321 512.824 219.782 523.348 235.242 "/>
<path fill="none" stroke="#000000" stroke-width="4" stroke-linecap="round" stroke-linejoin="round" d="M 491.737 188.577 C 474.629 183.190 457.521 177.803 440.412 172.416 "/>
<path fill="none" stroke="#000000" stroke-width="4" stroke-linecap="round" stroke-linejoin="round" d="M 491.533 188.637 C 480.439 203.620 469.346 218.603 458.252 233.586 "/>
<path fill="#ffffff" fill-rule="evenodd" stroke="#000000" stroke-width="4" stroke-linecap="round" stroke-linejoin="round" d="M 501.946 217.890 C 517.951 212.210 526.280 194.716 520.601 178.711 C 514.921 162.706 497.427 154.377 481.422 160.056 C 465.417 165.736 457.087 183.230 462.767 199.235 C 468.447 215.240 485.941 223.570 501.946 217.890 Z"/>
<path fill="#ffffff" fill-rule="evenodd" stroke="none" d="M 314.934 511.456 C 330.841 509.177 340.005 523.648 340.748 537.171 C 341.859 557.359 324.732 579.821 324.731 579.825 C 324.728 579.821 301.983 563.073 297.379 543.385 C 293.870 528.379 299.027 513.735 314.934 511.456 Z"/>
<path fill="none" stroke="#000000" stroke-width="4" stroke-linecap="round" stroke-linejoin="round" d="M 324.731 579.825 C 322.221 561.493 319.712 543.161 317.203 524.829 M 297.379 543.385 C 293.870 528.379 299.027 513.735 314.934 511.456 C 330.841 509.177 340.005 523.648 340.748 537.171 C 341.859 557.359 324.732 579.821 324.731 579.825 C 324.728 579.821 301.983 563.073 297.379 543.385 "/>
<path fill="#ffffff" fill-rule="evenodd" stroke="none" d="M 386.986 549.453 C 394.069 563.878 383.137 577.064 370.506 581.950 C 351.649 589.245 324.995 579.898 324.990 579.897 C 324.993 579.894 333.893 553.086 351.194 542.624 C 364.382 534.650 379.902 535.029 386.986 549.453 Z"/>
<path fill="none" stroke="#000000" stroke-width="4" stroke-linecap="round" stroke-linejoin="round" d="M 324.990 579.897 C 341.977 571.643 358.965 563.389 375.952 555.135 M 351.194 542.624 C 364.382 534.650 379.902 535.029 386.986 549.453 C 394.069 563.878 383.137 577.064 370.506 581.950 C 351.649 589.245 324.995 579.898 324.990 579.897 C 324.993 579.894 333.893 553.086 351.194 542.624 "/>
<path fill="#ffffff" fill-rule="evenodd" stroke="none" d="M 373.224 629.713 C 361.694 640.907 345.775 634.585 337.225 624.082 C 324.460 608.402 325.113 580.164 325.112 580.160 C 325.116 580.161 353.362 580.342 368.658 593.563 C 380.318 603.641 384.753 618.519 373.224 629.713 Z"/>
<path fill="none" stroke="#000000" stroke-width="4" stroke-linecap="round" stroke-linejoin="round" d="M 325.112 580.160 C 338.021 593.475 350.931 606.791 363.840 620.106 M 368.658 593.563 C 380.318 603.641 384.753 618.519 373.224 629.713 C 361.694 640.907 345.775 634.585 337.225 624.082 C 324.460 608.402 325.113 580.164 325.112 580.160 C 325.116 580.161 353.362 580.342 368.658 593.563 "/>
<path fill="#ffffff" fill-rule="evenodd" stroke="none" d="M 256.699 567.986 C 253.951 583.819 268.146 593.405 281.641 594.548 C 301.788 596.253 324.745 579.797 324.749 579.796 C 324.746 579.793 308.676 556.564 289.133 551.381 C 274.236 547.431 259.447 552.152 256.699 567.986 Z"/>
<path fill="none" stroke="#000000" stroke-width="4" stroke-linecap="round" stroke-linejoin="round" d="M 324.749 579.796 C 306.045 576.701 287.341 573.607 268.636 570.512 M 289.133 551.381 C 274.236 547.431 259.447 552.152 256.699 567.986 C 253.951 583.819 268.146 593.405 281.641 594.548 C 301.788 596.253 324.745 579.797 324.749 579.796 C 324.746 579.793 308.676 556.564 289.133 551.381 "/>
<path fill="#ffffff" fill-rule="evenodd" stroke="none" d="M 292.559 640.999 C 306.768 648.505 320.272 637.968 325.529 625.486 C 333.376 606.853 324.820 579.934 324.820 579.930 C 324.816 579.932 297.758 588.037 286.790 605.022 C 278.430 617.969 278.350 633.493 292.559 640.999 Z"/>
<path fill="none" stroke="#000000" stroke-width="4" stroke-linecap="round" stroke-linejoin="round" d="M 324.820 579.930 C 316.048 596.443 307.277 612.955 298.506 629.468 M 286.790 605.022 C 278.430 617.969 278.350 633.493 292.559 640.999 C 306.768 648.505 320.272 637.968 325.529 625.486 C 333.376 606.853 324.820 579.934 324.820 579.930 C 324.816 579.932 297.758 588.037 286.790 605.022 "/>
<path fill="none" stroke="#000000" stroke-width="4" stroke-linecap="round" stroke-linejoin="round" d="M 324.817 579.743 C 320.058 564.470 315.298 549.196 310.539 533.923 "/>
<path fill="none" stroke="#000000" stroke-width="4" stroke-linecap="round" stroke-linejoin="round" d="M 324.968 580.008 C 338.258 570.279 351.547 560.550 364.837 550.821 "/>
<path fill="none" stroke="#000000" stroke-width="4" stroke-linecap="round" stroke-linejoin="round" d="M 325.129 580.026 C 338.179 589.241 351.230 598.457 364.281 607.672 "/>
<path fill="none" stroke="#000000" stroke-width="4" stroke-linecap="round" stroke-linejoin="round" d="M 324.765 579.704 C 308.583 579.763 292.401 579.821 276.219 579.879 "/>
<path fill="none" stroke="#000000" stroke-width="4" stroke-linecap="round" stroke-linejoin="round" d="M 324.850 580.065 C 320.010 595.164 315.171 610.263 310.331 625.362 "/>
<path fill="none" stroke="#000000" stroke-width="4" stroke-linecap="round" stroke-linejoin="round" d="M 324.831 579.788 C 325.322 564.040 325.813 548.292 326.304 532.544 "/>
<path fill="none" stroke="#000000" stroke-width="4" stroke-linecap="round" stroke-linejoin="round" d="M 325.082 580.070 C 340.571 575.711 356.059 571.353 371.548 566.994 "/>
<path fill="none" stroke="#000000" stroke-width="4" stroke-linecap="round" stroke-linejoin="round" d="M 324.848 580.046 C 333.759 593.439 342.670 606.833 351.581 620.226 "/>
<path fill="none" stroke="#000000" stroke-width="4" stroke-linecap="round" stroke-linejoin="round" d="M 324.787 579.816 C 309.304 574.541 293.820 569.265 278.336 563.990 "/>
<path fill="none" stroke="#000000" stroke-width="4" stroke-linecap="round" stroke-linejoin="round" d="M 324.726 580.031 C 314.762 592.820 304.799 605.609 294.835 618.398 "/>
<path fill="none" stroke="#000000" stroke-width="4" stroke-linecap="round" stroke-linejoin="round" d="M 324.806 579.840 C 318.547 567.825 312.289 555.810 306.030 543.795 "/>
<path fill="none" stroke="#000000" stroke-width="4" stroke-linecap="round" stroke-linejoin="round" d="M 324.889 579.865 C 334.318 569.851 343.747 559.838 353.176 549.824 "/>
<path fill="none" stroke="#000000" stroke-width="4" stroke-linecap="round" stroke-linejoin="round" d="M 325.140 580.062 C 337.084 585.608 349.027 591.154 360.970 596.700 "/>
<path fill="none" stroke="#000000" stroke-width="4" stroke-linecap="round" stroke-linejoin="round" d="M 324.691 579.868 C 311.278 582.113 297.864 584.358 284.451 586.604 "/>
<path fill="none" stroke="#000000" stroke-width="4" stroke-linecap="round" stroke-linejoin="round" d="M 324.985 580.092 C 323.033 593.092 321.082 606.092 319.130 619.091 "/>
<path fill="none" stroke="#000000" stroke-width="4" stroke-linecap="round" stroke-linejoin="round" d="M 324.886 579.953 C 327.580 567.518 330.273 555.084 332.967 542.649 "/>
<path fill="none" stroke="#000000" stroke-width="4" stroke-linecap="round" stroke-linejoin="round" d="M 324.958 580.087 C 338.375 579.248 351.791 578.410 365.208 577.572 "/>
<path fill="none" stroke="#000000" stroke-width="4" stroke-linecap="round" stroke-linejoin="round" d="M 324.864 580.103 C 330.258 592.899 335.652 605.695 341.047 618.491 "/>
<path fill="none" stroke="#000000" stroke-width="4" stroke-linecap="round" stroke-linejoin="round" d="M 324.877 579.890 C 313.213 573.461 301.550 567.033 289.886 560.604 "/>
<path fill="none" stroke="#000000" stroke-width="4" stroke-linecap="round" stroke-linejoin="round" d="M 324.719 579.904 C 314.448 589.184 304.177 598.464 293.906 607.745 "/>
<path fill="#ffffff" fill-rule="evenodd" stroke="#000000" stroke-width="4" stroke-linecap="round" stroke-linejoin="round" d="M 328.012 602.723 C 340.494 600.934 349.121 589.422 347.333 576.939 C 345.544 564.456 334.031 555.829 321.549 557.618 C 309.066 559.407 300.439 570.919 302.227 583.402 C 304.016 595.885 315.529 604.512 328.012 602.723 Z"/>
<path fill="#ffffff" fill-rule="evenodd" stroke="none" d="M 616.491 248.613 C 632.398 246.333 641.561 260.805 642.305 274.328 C 643.415 294.516 626.289 316.977 626.287 316.982 C 626.284 316.978 603.539 300.230 598.936 280.542 C 595.427 265.535 600.583 250.892 616.491 248.613 Z"/>
<path fill="none" stroke="#000000" stroke-width="4" stroke-linecap="round" stroke-linejoin="round" d="M 626.287 316.982 C 623.778 298.650 621.268 280.317 618.759 261.985 M 598.936 280.542 C 595.427 265.535 600.583 250.892 616.491 248.613 C 632.398 246.333 641.561 260.805 642.305 274.328 C 643.415 294.516 626.289 316.977 626.287 316.982 C 626.284 316.978 603.539 300.230 598.936 280.542 "/>
<path fill="#ffffff" fill-rule="evenodd" stroke="none" d="M 688.542 286.610 C 695.625 301.034 684.694 314.221 672.062 319.107 C 653.206 326.402 626.551 317.054 626.547 317.054 C 626.549 317.050 635.449 290.243 652.751 279.781 C 665.938 271.807 681.458 272.185 688.542 286.610 Z"/>
<path fill="none" stroke="#000000" stroke-width="4" stroke-linecap="round" stroke-linejoin="round" d="M 626.547 317.054 C 643.534 308.800 660.521 300.546 677.509 292.291 M 652.751 279.781 C 665.938 271.807 681.458 272.185 688.542 286.610 C 695.625 301.034 684.694 314.221 672.062 319.107 C 653.206 326.402 626.551 317.054 626.547 317.054 C 626.549 317.050 635.449 290.243 652.751 279.781 "/>
<path fill="#ffffff" fill-rule="evenodd" stroke="none" d="M 674.780 366.870 C 663.251 378.064 647.331 371.742 638.781 361.239 C 626.016 345.559 626.670 317.321 626.669 317.316 C 626.673 317.318 654.918 317.498 670.215 330.720 C 681.874 340.798 686.310 355.676 674.780 366.870 Z"/>
<path fill="none" stroke="#000000" stroke-width="4" stroke-linecap="round" stroke-linejoin="round" d="M 626.669 317.316 C 639.578 330.632 652.487 343.947 665.396 357.263 M 670.215 330.720 C 681.874 340.798 686.310 355.676 674.780 366.870 C 663.251 378.064 647.331 371.742 638.781 361.239 C 626.016 345.559 626.670 317.321 626.669 317.316 C 626.673 317.318 654.918 317.498 670.215 330.720 "/>
<path fill="#ffffff" fill-rule="evenodd" stroke="none" d="M 558.256 305.142 C 555.508 320.976 569.703 330.562 583.197 331.704 C 603.344 333.410 626.301 316.954 626.306 316.952 C 626.302 316.950 610.232 293.720 590.689 288.538 C 575.793 284.588 561.004 289.309 558.256 305.142 Z"/>
<path fill="none" stroke="#000000" stroke-width="4" stroke-linecap="round" stroke-linejoin="round" d="M 626.306 316.952 C 607.601 313.858 588.897 310.763 570.193 307.668 M 590.689 288.538 C 575.793 284.588 561.004 289.309 558.256 305.142 C 555.508 320.976 569.703 330.562 583.197 331.704 C 603.344 333.410 626.301 316.954 626.306 316.952 C 626.302 316.950 610.232 293.720 590.689 288.538 "/>
<path fill="#ffffff" fill-rule="evenodd" stroke="none" d="M 594.116 378.156 C 608.325 385.662 621.828 375.124 627.085 362.643 C 634.933 344.009 626.376 317.091 626.376 317.086 C 626.372 317.089 599.314 325.194 588.346 342.179 C 579.986 355.126 579.907 370.650 594.116 378.156 Z"/>
<path fill="none" stroke="#000000" stroke-width="4" stroke-linecap="round" stroke-linejoin="round" d="M 626.376 317.086 C 617.605 333.599 608.834 350.112 600.063 366.625 M 588.346 342.179 C 579.986 355.126 579.907 370.650 594.116 378.156 C 608.325 385.662 621.828 375.124 627.085 362.643 C 634.933 344.009 626.376 317.091 626.376 317.086 C 626.372 317.089 599.314 325.194 588.346 342.179 "/>
<path fill="none" stroke="#000000" stroke-width="4" stroke-linecap="round" stroke-linejoin="round" d="M 626.373 316.900 C 621.614 301.626 616.855 286.353 612.096 271.080 "/>
<path fill="none" stroke="#000000" stroke-width="4" stroke-linecap="round" stroke-linejoin="round" d="M 626.525 317.165 C 639.814 307.436 653.104 297.707 666.393 287.978 "/>
<path fill="none" stroke="#000000" stroke-width="4" stroke-linecap="round" stroke-linejoin="round" d="M 626.685 317.182 C 639.736 326.398 652.787 335.613 665.837 344.829 "/>
<path fill="none" stroke="#000000" stroke-width="4" stroke-linecap="round" stroke-linejoin="round" d="M 626.321 316.861 C 610.140 316.919 593.958 316.977 577.776 317.035 "/>
<path fill="none" stroke="#000000" stroke-width="4" stroke-linecap="round" stroke-linejoin="round" d="M 626.406 317.221 C 621.566 332.320 616.727 347.420 611.887 362.519 "/>
<path fill="none" stroke="#000000" stroke-width="4" stroke-linecap="round" stroke-linejoin="round" d="M 626.387 316.945 C 626.878 301.197 627.370 285.448 627.861 269.700 "/>
<path fill="none" stroke="#000000" stroke-width="4" stroke-linecap="round" stroke-linejoin="round" d="M 626.639 317.227 C 642.128 312.868 657.616 308.509 673.104 304.150 "/>
<path fill="none" stroke="#000000" stroke-width="4" stroke-linecap="round" stroke-linejoin="round" d="M 626.404 317.202 C 635.315 330.596 644.227 343.989 653.138 357.383 "/>
<path fill="none" stroke="#000000" stroke-width="4" stroke-linecap="round" stroke-linejoin="round" d="M 626.344 316.973 C 610.860 311.698 595.377 306.422 579.893 301.147 "/>
<path fill="none" stroke="#000000" stroke-width="4" stroke-linecap="round" stroke-linejoin="round" d="M 626.283 317.187 C 616.319 329.976 606.355 342.765 596.391 355.554 "/>
<path fill="none" stroke="#000000" stroke-width="4" stroke-linecap="round" stroke-linejoin="round" d="M 626.362 316.996 C 620.104 304.982 613.845 292.967 607.586 280.952 "/>
<path fill="none" stroke="#000000" stroke-width="4" stroke-linecap="round" stroke-linejoin="round" d="M 626.446 317.021 C 635.875 307.008 645.304 296.994 654.733 286.981 "/>
<path fill="none" stroke="#000000" stroke-width="4" stroke-linecap="round" stroke-linejoin="round" d="M 626.697 317.219 C 638.640 322.765 650.583 328.311 662.526 333.857 "/>
<path fill="none" stroke="#000000" stroke-width="4" stroke-linecap="round" stroke-linejoin="round" d="M 626.248 317.024 C 612.834 319.270 599.421 321.515 586.007 323.760 "/>
<path fill="none" stroke="#000000" stroke-width="4" stroke-linecap="round" stroke-linejoin="round" d="M 626.542 317.249 C 624.590 330.249 622.638 343.249 620.686 356.248 "/>
<path fill="none" stroke="#000000" stroke-width="4" stroke-linecap="round" stroke-linejoin="round" d="M 626.443 317.110 C 629.136 304.675 631.830 292.241 634.523 279.806 "/>
<path fill="none" stroke="#000000" stroke-width="4" stroke-linecap="round" stroke-linejoin="round" d="M 626.515 317.243 C 639.931 316.405 653.348 315.567 666.764 314.729 "/>
<path fill="none" stroke="#000000" stroke-width="4" stroke-linecap="round" stroke-linejoin="round" d="M 626.420 317.259 C 631.815 330.055 637.209 342.852 642.603 355.648 "/>
<path fill="none" stroke="#000000" stroke-width="4" stroke-linecap="round" stroke-linejoin="round" d="M 626.433 317.047 C 614.770 310.618 603.106 304.189 591.442 297.761 "/>
<path fill="none" stroke="#000000" stroke-width="4" stroke-linecap="round" stroke-linejoin="round" d="M 626.276 317.060 C 616.005 326.341 605.734 335.621 595.463 344.901 "/>
<path fill="#ffffff" fill-rule="evenodd" stroke="#000000" stroke-width="4" stroke-linecap="round" stroke-linejoin="round" d="M 629.568 339.880 C 642.051 338.091 650.678 326.579 648.889 314.096 C 647.100 301.613 635.588 292.986 623.105 294.775 C 610.622 296.563 601.995 308.076 603.784 320.559 C 605.573 333.042 617.085 341.669 629.568 339.880 Z"/>
<path fill="#ffffff" fill-rule="evenodd" stroke="none" d="M 264.402 26.025 C 282.680 20.793 295.749 36.280 298.796 52.010 C 303.346 75.493 286.888 104.575 286.886 104.580 C 286.883 104.576 257.529 88.607 248.965 66.273 C 242.438 49.249 246.124 31.256 264.402 26.025 Z"/>
<path fill="none" stroke="#000000" stroke-width="4" stroke-linecap="round" stroke-linejoin="round" d="M 286.886 104.580 C 280.995 83.498 275.104 62.415 269.213 41.333 M 248.965 66.273 C 242.438 49.249 246.124 31.256 264.402 26.025 C 282.680 20.793 295.749 36.280 298.796 52.010 C 303.346 75.493 286.888 104.575 286.886 104.580 C 286.883 104.576 257.529 88.607 248.965 66.273 "/>
<path fill="#ffffff" fill-rule="evenodd" stroke="none" d="M 354.965 58.964 C 365.589 74.730 354.898 91.945 340.880 99.705 C 319.953 111.289 287.208 104.623 287.202 104.623 C 287.205 104.619 293.322 71.767 311.917 56.721 C 326.090 45.252 344.342 43.198 354.965 58.964 Z"/>
<path fill="none" stroke="#000000" stroke-width="4" stroke-linecap="round" stroke-linejoin="round" d="M 287.202 104.623 C 305.784 92.215 324.366 79.807 342.948 67.399 M 311.917 56.721 C 326.090 45.252 344.342 43.198 354.965 58.964 C 365.589 74.730 354.898 91.945 340.880 99.705 C 319.953 111.289 287.208 104.623 287.202 104.623 C 287.205 104.619 293.322 71.767 311.917 56.721 "/>
<path fill="#ffffff" fill-rule="evenodd" stroke="none" d="M 351.752 155.248 C 340.040 170.223 320.364 165.376 308.653 154.442 C 291.169 138.118 287.390 104.916 287.388 104.911 C 287.393 104.912 320.527 100.578 340.583 113.613 C 355.870 123.549 363.464 140.272 351.752 155.248 Z"/>
<path fill="none" stroke="#000000" stroke-width="4" stroke-linecap="round" stroke-linejoin="round" d="M 287.388 104.911 C 304.661 118.440 321.934 131.969 339.207 145.498 M 340.583 113.613 C 355.870 123.549 363.464 140.272 351.752 155.248 C 340.040 170.223 320.364 165.376 308.653 154.442 C 291.169 138.118 287.390 104.916 287.388 104.911 C 287.393 104.912 320.527 100.578 340.583 113.613 "/>
<path fill="#ffffff" fill-rule="evenodd" stroke="none" d="M 205.245 101.652 C 204.572 120.652 222.752 129.603 238.753 128.771 C 262.640 127.528 286.899 104.546 286.904 104.543 C 286.899 104.540 264.326 79.901 240.587 76.971 C 222.491 74.739 205.918 82.653 205.245 101.652 Z"/>
<path fill="none" stroke="#000000" stroke-width="4" stroke-linecap="round" stroke-linejoin="round" d="M 286.904 104.543 C 264.483 103.926 242.063 103.309 219.643 102.692 M 240.587 76.971 C 222.491 74.739 205.918 82.653 205.245 101.652 C 204.572 120.652 222.752 129.603 238.753 128.771 C 262.640 127.528 286.899 104.546 286.904 104.543 C 286.899 104.540 264.326 79.901 240.587 76.971 "/>
<path fill="#ffffff" fill-rule="evenodd" stroke="none" d="M 259.025 181.457 C 276.887 187.968 291.018 173.444 295.170 157.969 C 301.369 134.867 287.009 104.694 287.008 104.689 C 287.004 104.692 256.594 118.546 246.473 140.219 C 238.758 156.738 241.163 174.946 259.025 181.457 Z"/>
<path fill="none" stroke="#000000" stroke-width="4" stroke-linecap="round" stroke-linejoin="round" d="M 287.008 104.689 C 279.385 125.454 271.762 146.219 264.140 166.985 M 246.473 140.219 C 238.758 156.738 241.163 174.946 259.025 181.457 C 276.887 187.968 291.018 173.444 295.170 157.969 C 301.369 134.867 287.009 104.694 287.008 104.689 C 287.004 104.692 256.594 118.546 246.473 140.219 "/>
<path fill="none" stroke="#000000" stroke-width="4" stroke-linecap="round" stroke-linejoin="round" d="M 286.974 104.470 C 278.938 87.335 270.902 70.200 262.866 53.064 "/>
<path fill="none" stroke="#000000" stroke-width="4" stroke-linecap="round" stroke-linejoin="round" d="M 287.195 104.757 C 301.205 91.215 315.216 77.673 329.226 64.132 "/>
<path fill="none" stroke="#000000" stroke-width="4" stroke-linecap="round" stroke-linejoin="round" d="M 287.386 104.751 C 304.165 113.452 320.944 122.153 337.723 130.854 "/>
<path fill="none" stroke="#000000" stroke-width="4" stroke-linecap="round" stroke-linejoin="round" d="M 286.907 104.434 C 267.951 107.106 248.994 109.778 230.038 112.450 "/>
<path fill="none" stroke="#000000" stroke-width="4" stroke-linecap="round" stroke-linejoin="round" d="M 287.065 104.842 C 283.822 123.318 280.580 141.794 277.338 160.270 "/>
<path fill="none" stroke="#000000" stroke-width="4" stroke-linecap="round" stroke-linejoin="round" d="M 286.998 104.521 C 285.039 85.984 283.081 67.447 281.122 48.911 "/>
<path fill="none" stroke="#000000" stroke-width="4" stroke-linecap="round" stroke-linejoin="round" d="M 287.339 104.811 C 304.790 97.209 322.242 89.608 339.694 82.007 "/>
<path fill="none" stroke="#000000" stroke-width="4" stroke-linecap="round" stroke-linejoin="round" d="M 287.059 104.820 C 299.659 119.084 312.259 133.348 324.859 147.612 "/>
<path fill="none" stroke="#000000" stroke-width="4" stroke-linecap="round" stroke-linejoin="round" d="M 286.952 104.561 C 267.955 100.870 248.959 97.179 229.962 93.487 "/>
<path fill="none" stroke="#000000" stroke-width="4" stroke-linecap="round" stroke-linejoin="round" d="M 286.915 104.822 C 277.295 121.415 267.675 138.008 258.055 154.601 "/>
<path fill="none" stroke="#000000" stroke-width="4" stroke-linecap="round" stroke-linejoin="round" d="M 286.977 104.585 C 277.708 91.511 268.439 78.436 259.170 65.361 "/>
<path fill="none" stroke="#000000" stroke-width="4" stroke-linecap="round" stroke-linejoin="round" d="M 287.079 104.601 C 296.519 91.347 305.959 78.094 315.399 64.840 "/>
<path fill="none" stroke="#000000" stroke-width="4" stroke-linecap="round" stroke-linejoin="round" d="M 287.405 104.793 C 302.296 109.371 317.186 113.949 332.077 118.527 "/>
<path fill="none" stroke="#000000" stroke-width="4" stroke-linecap="round" stroke-linejoin="round" d="M 286.847 104.636 C 271.488 109.427 256.128 114.217 240.768 119.008 "/>
<path fill="none" stroke="#000000" stroke-width="4" stroke-linecap="round" stroke-linejoin="round" d="M 287.228 104.853 C 287.033 120.403 286.837 135.954 286.642 151.504 "/>
<path fill="none" stroke="#000000" stroke-width="4" stroke-linecap="round" stroke-linejoin="round" d="M 287.090 104.705 C 288.246 89.698 289.401 74.690 290.557 59.683 "/>
<path fill="none" stroke="#000000" stroke-width="4" stroke-linecap="round" stroke-linejoin="round" d="M 287.196 104.850 C 302.786 101.709 318.376 98.567 333.966 95.426 "/>
<path fill="none" stroke="#000000" stroke-width="4" stroke-linecap="round" stroke-linejoin="round" d="M 287.087 104.884 C 295.469 119.014 303.851 133.144 312.233 147.273 "/>
<path fill="none" stroke="#000000" stroke-width="4" stroke-linecap="round" stroke-linejoin="round" d="M 287.069 104.633 C 272.364 98.975 257.659 93.318 242.954 87.660 "/>
<path fill="none" stroke="#000000" stroke-width="4" stroke-linecap="round" stroke-linejoin="round" d="M 286.886 104.675 C 276.341 117.204 265.797 129.734 255.252 142.264 "/>
<path fill="#ffffff" fill-rule="evenodd" stroke="#000000" stroke-width="4" stroke-linecap="round" stroke-linejoin="round" d="M 294.417 130.890 C 308.760 126.785 317.018 111.903 312.913 97.561 C 308.808 83.218 293.926 74.960 279.583 79.065 C 265.241 83.170 256.982 98.052 261.088 112.394 C 265.193 126.737 280.075 134.995 294.417 130.890 Z"/>
</g>
<g id="specs_2">
<path fill="#ff0000" fill-rule="evenodd" stroke="none" d="M 360.000 665.890 C 360.001 665.893 370.893 696.391 370.894 696.394 C 370.893 696.393 360.001 686.259 360.000 686.258 C 359.999 686.259 349.107 696.393 349.106 696.394 C 349.107 696.391 359.999 665.893 360.000 665.890 Z"/>
<path fill="#0000ff" fill-rule="evenodd" stroke="none" d="M 272.386 11.237 C 272.386 11.239 278.713 28.954 278.714 28.956 C 278.713 28.955 272.386 23.069 272.386 23.068 C 272.385 23.069 266.058 28.955 266.058 28.956 C 266.058 28.954 272.385 11.239 272.386 11.237 Z"/>
<path fill="#00ff00" fill-rule="evenodd" stroke="none" d="M 16.879 409.780 C 16.881 409.780 34.564 403.363 34.566 403.362 C 34.565 403.363 28.710 409.720 28.710 409.721 C 28.710 409.721 34.629 416.018 34.629 416.018 C 34.627 416.018 16.881 409.781 16.879 409.780 Z"/>
<path fill="#ffff00" fill-rule="evenodd" stroke="none" d="M 257.725 448.046 C 257.726 448.044 265.577 430.950 265.578 430.949 C 265.578 430.949 265.991 439.581 265.991 439.582 C 265.992 439.582 274.631 439.792 274.632 439.792 C 274.630 439.793 257.727 448.045 257.725 448.046 Z"/>
<path fill="#ffff00" fill-rule="evenodd" stroke="none" d="M 582.490 593.521 C 582.489 593.520 574.297 576.586 574.296 576.584 C 574.296 576.585 574.056 585.224 574.056 585.225 C 574.055 585.225 565.421 585.608 565.421 585.608 C 565.422 585.608 582.488 593.521 582.490 593.521 Z"/>
<path fill="#00ff00" fill-rule="evenodd" stroke="none" d="M 703.121 294.659 C 703.119 294.658 685.436 288.242 685.434 288.241 C 685.435 288.242 691.290 294.599 691.290 294.599 C 691.290 294.600 685.372 300.897 685.371 300.897 C 685.373 300.897 703.119 294.660 703.121 294.659 Z"/>
<path fill="#00ffff" fill-rule="evenodd" stroke="none" d="M 571.482 121.221 C 571.481 121.223 565.201 138.955 565.201 138.957 C 565.201 138.956 564.011 130.396 564.011 130.395 C 564.010 130.395 555.388 130.965 555.387 130.965 C 555.388 130.964 571.480 121.222 571.482 121.221 Z"/>
<path fill="#00ffff" fill-rule="evenodd" stroke="none" d="M 88.509 167.654 C 88.509 167.655 95.958 184.929 95.958 184.931 C 95.958 184.930 96.574 176.310 96.574 176.309 C 96.575 176.309 105.216 176.303 105.217 176.303 C 105.216 176.302 88.510 167.655 88.509 167.654 Z"/>
<path fill="#be0027" fill-rule="evenodd" stroke="none" d="M 330.456 627.434 C 330.457 627.431 341.348 596.934 341.350 596.931 C 341.348 596.932 330.457 607.066 330.456 607.067 C 330.455 607.066 319.563 596.932 319.562 596.931 C 319.563 596.934 330.455 627.431 330.456 627.434 Z"/>
</g>
</g>
</svg>
