<?xml version="1.0" encoding="utf-8"?>
<!-- Generator: Moho 12.5 build 22414 -->
<!DOCTYPE svg PUBLIC "-//W3C//DTD SVG 1.1//EN" "http://www.w3.org/Graphics/SVG/1.1/DTD/svg11.dtd">
<svg version="1.1" id="Frame_0" xmlns="http://www.w3.org/2000/svg" xmlns:xlink="http://www.w3.org/1999/xlink" width="720px" height="720px">
<g id="flower">
<g id="flower">
<path fill="#ffffff" fill-rule="evenodd" stroke="none" d="M 360.540 572.131 C 422.644 572.131 449.766 511.745 445.199 459.606 C 438.380 381.765 360.548 305.226 360.540 305.210 C 360.531 305.226 282.700 381.765 275.881 459.606 C 270.683 518.938 298.435 572.131 360.540 572.131 Z"/>
<path fill="none" stroke="#000000" stroke-width="4" stroke-linecap="round" stroke-linejoin="round" d="M 360.540 305.210 C 360.989 376.716 361.438 448.223 361.888 519.729 M 275.881 459.606 C 270.683 518.938 298.435 572.131 360.540 572.131 C 422.644 572.131 449.766 511.745 445.199 459.606 C 438.380 381.765 360.548 305.226 360.540 305.210 C 360.531 305.226 282.700 381.765 275.881 459.606 "/>
<path fill="#ffffff" fill-rule="evenodd" stroke="none" d="M 615.350 387.274 C 634.541 328.209 585.492 283.754 534.493 271.986 C 458.355 254.418 361.510 304.788 361.493 304.791 C 361.505 304.804 410.247 402.478 482.171 433.017 C 536.993 456.295 596.159 446.339 615.350 387.274 Z"/>
<path fill="none" stroke="#000000" stroke-width="4" stroke-linecap="round" stroke-linejoin="round" d="M 361.493 304.791 C 431.004 327.056 500.516 349.322 570.028 371.587 M 482.171 433.017 C 536.993 456.295 596.159 446.339 615.350 387.274 C 634.541 328.209 585.492 283.754 534.493 271.986 C 458.355 254.418 361.510 304.788 361.493 304.791 C 361.505 304.804 410.247 402.478 482.171 433.017 "/>
<path fill="#ffffff" fill-rule="evenodd" stroke="none" d="M 518.708 87.777 C 468.464 51.273 411.029 84.184 384.077 129.051 C 343.840 196.033 361.818 303.703 361.816 303.720 C 361.832 303.713 469.788 287.539 521.058 228.574 C 560.137 183.628 568.952 124.281 518.708 87.777 Z"/>
<path fill="none" stroke="#000000" stroke-width="4" stroke-linecap="round" stroke-linejoin="round" d="M 361.816 303.720 C 403.902 245.704 445.989 187.688 488.075 129.672 M 521.058 228.574 C 560.137 183.628 568.952 124.281 518.708 87.777 C 468.464 51.273 411.029 84.184 384.077 129.051 C 343.840 196.033 361.818 303.703 361.816 303.720 C 361.832 303.713 469.788 287.539 521.058 228.574 "/>
<path fill="#ffffff" fill-rule="evenodd" stroke="none" d="M 106.770 387.794 C 87.579 328.729 136.628 284.274 187.627 272.506 C 263.765 254.938 360.610 305.308 360.627 305.311 C 360.615 305.324 311.872 402.998 239.949 433.537 C 185.127 456.815 125.961 446.859 106.770 387.794 Z"/>
<path fill="none" stroke="#000000" stroke-width="4" stroke-linecap="round" stroke-linejoin="round" d="M 360.627 305.311 C 290.769 327.403 220.910 349.495 151.052 371.587 M 239.949 433.537 C 185.127 456.815 125.961 446.859 106.770 387.794 C 87.579 328.729 136.628 284.274 187.627 272.506 C 263.765 254.938 360.610 305.308 360.627 305.311 C 360.615 305.324 311.872 402.998 239.949 433.537 "/>
<path fill="#ffffff" fill-rule="evenodd" stroke="none" d="M 203.931 88.817 C 254.175 52.313 311.611 85.225 338.563 130.091 C 378.799 197.073 360.822 304.743 360.824 304.760 C 360.808 304.753 252.852 288.580 201.582 229.614 C 162.502 184.668 153.688 125.322 203.931 88.817 Z"/>
<path fill="none" stroke="#000000" stroke-width="4" stroke-linecap="round" stroke-linejoin="round" d="M 360.824 304.760 C 318.217 246.398 275.611 188.034 233.005 129.672 M 201.582 229.614 C 162.502 184.668 153.688 125.322 203.931 88.817 C 254.175 52.313 311.611 85.225 338.563 130.091 C 378.799 197.073 360.822 304.743 360.824 304.760 C 360.808 304.753 252.852 288.580 201.582 229.614 "/>
<path fill="none" stroke="#000000" stroke-width="4" stroke-linecap="round" stroke-linejoin="round" d="M 360.915 305.476 C 351.080 366.515 341.245 427.553 331.411 488.592 "/>
<path fill="none" stroke="#000000" stroke-width="4" stroke-linecap="round" stroke-linejoin="round" d="M 361.350 304.379 C 417.523 334.313 473.696 364.248 529.869 394.182 "/>
<path fill="none" stroke="#000000" stroke-width="4" stroke-linecap="round" stroke-linejoin="round" d="M 361.953 304.225 C 406.828 261.816 451.703 219.407 496.578 176.999 "/>
<path fill="none" stroke="#000000" stroke-width="4" stroke-linecap="round" stroke-linejoin="round" d="M 360.738 305.652 C 298.801 314.300 236.864 322.948 174.927 331.597 "/>
<path fill="none" stroke="#000000" stroke-width="4" stroke-linecap="round" stroke-linejoin="round" d="M 360.864 304.228 C 334.073 249.118 307.282 194.007 280.491 138.897 "/>
<path fill="none" stroke="#000000" stroke-width="4" stroke-linecap="round" stroke-linejoin="round" d="M 360.943 305.297 C 371.455 365.273 381.966 425.249 392.478 485.225 "/>
<path fill="none" stroke="#000000" stroke-width="4" stroke-linecap="round" stroke-linejoin="round" d="M 361.752 304.080 C 423.394 312.264 485.036 320.449 546.677 328.633 "/>
<path fill="none" stroke="#000000" stroke-width="4" stroke-linecap="round" stroke-linejoin="round" d="M 360.867 304.302 C 387.616 248.179 414.365 192.056 441.114 135.933 "/>
<path fill="none" stroke="#000000" stroke-width="4" stroke-linecap="round" stroke-linejoin="round" d="M 360.762 305.212 C 304.420 333.881 248.078 362.550 191.736 391.219 "/>
<path fill="none" stroke="#000000" stroke-width="4" stroke-linecap="round" stroke-linejoin="round" d="M 360.411 304.425 C 315.283 260.961 270.155 217.498 225.027 174.035 "/>
<path fill="none" stroke="#000000" stroke-width="4" stroke-linecap="round" stroke-linejoin="round" d="M 360.821 305.113 C 343.464 354.507 326.106 403.901 308.749 453.295 "/>
<path fill="none" stroke="#000000" stroke-width="4" stroke-linecap="round" stroke-linejoin="round" d="M 361.126 304.971 C 402.686 338.110 444.246 371.249 485.807 404.388 "/>
<path fill="none" stroke="#000000" stroke-width="4" stroke-linecap="round" stroke-linejoin="round" d="M 361.977 304.077 C 404.627 276.314 447.277 248.551 489.926 220.788 "/>
<path fill="none" stroke="#000000" stroke-width="4" stroke-linecap="round" stroke-linejoin="round" d="M 360.366 305.069 C 307.821 303.832 255.276 302.594 202.731 301.357 "/>
<path fill="none" stroke="#000000" stroke-width="4" stroke-linecap="round" stroke-linejoin="round" d="M 361.368 304.047 C 346.775 255.386 332.183 206.724 317.591 158.063 "/>
<path fill="none" stroke="#000000" stroke-width="4" stroke-linecap="round" stroke-linejoin="round" d="M 361.066 304.634 C 378.186 350.728 395.306 396.821 412.427 442.914 "/>
<path fill="none" stroke="#000000" stroke-width="4" stroke-linecap="round" stroke-linejoin="round" d="M 361.267 304.084 C 413.052 299.936 464.838 295.788 516.624 291.640 "/>
<path fill="none" stroke="#000000" stroke-width="4" stroke-linecap="round" stroke-linejoin="round" d="M 360.898 304.075 C 374.520 252.165 388.142 200.255 401.764 148.346 "/>
<path fill="none" stroke="#000000" stroke-width="4" stroke-linecap="round" stroke-linejoin="round" d="M 361.064 304.880 C 319.968 335.867 278.872 366.854 237.776 397.842 "/>
<path fill="none" stroke="#000000" stroke-width="4" stroke-linecap="round" stroke-linejoin="round" d="M 360.453 304.915 C 316.074 275.043 271.694 245.170 227.315 215.298 "/>
<path fill="#ffffff" fill-rule="evenodd" stroke="#000000" stroke-width="4" stroke-linecap="round" stroke-linejoin="round" d="M 360.540 215.812 C 409.274 215.812 448.588 255.126 448.588 303.860 C 448.588 352.594 409.274 391.908 360.540 391.908 C 311.806 391.908 272.492 352.594 272.492 303.860 C 272.492 255.126 311.806 215.812 360.540 215.812 Z"/>
</g>
<g id="specs_2">
<path fill="#ff00ff" fill-rule="evenodd" stroke="none" d="M 280.641 223.962 C 280.657 223.962 440.422 223.962 440.438 223.962 C 440.438 223.978 440.438 383.743 440.438 383.759 C 440.422 383.759 280.657 383.759 280.641 383.759 C 280.641 383.743 280.641 223.978 280.641 223.962 Z"/>
<path fill="#ff0000" fill-rule="evenodd" stroke="none" d="M 360.540 647.823 C 360.541 647.826 371.433 678.324 371.434 678.327 C 371.433 678.326 360.541 668.192 360.540 668.190 C 360.539 668.192 349.647 678.326 349.646 678.327 C 349.647 678.324 360.539 647.826 360.540 647.823 Z"/>
<path fill="#be0027" fill-rule="evenodd" stroke="none" d="M 360.540 599.626 C 360.541 599.624 368.264 577.997 368.265 577.994 C 368.264 577.995 360.541 585.182 360.540 585.182 C 360.539 585.182 352.815 577.995 352.814 577.994 C 352.815 577.997 360.539 599.624 360.540 599.626 Z"/>
<path fill="#00ff00" fill-rule="evenodd" stroke="none" d="M 606.293 232.991 C 606.291 232.993 588.110 247.021 588.108 247.023 C 588.109 247.022 592.556 237.455 592.557 237.454 C 592.556 237.454 583.334 232.329 583.333 232.328 C 583.336 232.329 606.291 232.991 606.293 232.991 Z"/>
<path fill="#00ffff" fill-rule="evenodd" stroke="none" d="M 512.775 520.166 C 512.773 520.165 494.741 507.842 494.739 507.841 C 494.740 507.841 504.700 509.052 504.701 509.053 C 504.702 509.052 506.627 499.205 506.627 499.204 C 506.628 499.206 512.775 520.164 512.775 520.166 Z"/>
<path fill="#00ff00" fill-rule="evenodd" stroke="none" d="M 114.786 232.991 C 114.788 232.992 132.970 247.021 132.972 247.022 C 132.971 247.022 128.523 237.455 128.523 237.454 C 128.524 237.454 137.745 232.328 137.746 232.328 C 137.744 232.328 114.789 232.991 114.786 232.991 Z"/>
<path fill="#00ffff" fill-rule="evenodd" stroke="none" d="M 208.304 520.165 C 208.306 520.164 226.338 507.842 226.340 507.840 C 226.339 507.841 216.379 509.052 216.378 509.053 C 216.378 509.052 214.453 499.205 214.453 499.204 C 214.452 499.206 208.305 520.163 208.304 520.165 Z"/>
<path fill="#0000ff" fill-rule="evenodd" stroke="none" d="M 360.540 51.322 C 360.541 51.325 371.433 81.822 371.434 81.825 C 371.433 81.824 360.541 71.690 360.540 71.689 C 360.539 71.690 349.647 81.824 349.646 81.825 C 349.647 81.822 360.539 51.325 360.540 51.322 Z"/>
</g>
</g>
</svg>
