<?xml version="1.0" encoding="utf-8"?>
<!-- Generator: Moho 12.5 build 22414 -->
<!DOCTYPE svg PUBLIC "-//W3C//DTD SVG 1.1//EN" "http://www.w3.org/Graphics/SVG/1.1/DTD/svg11.dtd">
<svg version="1.1" id="Frame_0" xmlns="http://www.w3.org/2000/svg" xmlns:xlink="http://www.w3.org/1999/xlink" width="720px" height="720px">
<g id="flower_jacobean">
<g id="flower_jacobean">
<path fill="none" stroke="#ffffff" stroke-width="4" stroke-linecap="round" stroke-linejoin="round" d="M 214.088 528.065 C 255.232 506.808 290.916 524.056 316.778 550.494 M 374.061 358.002 C 345.929 352.189 309.051 373.931 294.137 402.443 M 210.806 352.544 C 254.245 357.966 276.783 385.575 289.012 428.054 C 293.675 377.831 332.443 310.786 373.916 280.818 M 427.281 433.133 C 360.150 433.178 315.259 472.580 301.377 515.321 M 246.308 261.304 C 297.542 299.005 307.805 352.644 296.330 394.702 M 289.012 428.054 C 282.685 496.199 313.275 576.714 391.203 643.952 "/>
<path fill="#ffffff" fill-rule="evenodd" stroke="#000000" stroke-width="4" stroke-linecap="round" stroke-linejoin="round" d="M 290.705 461.230 C 327.184 425.464 355.024 454.274 375.160 392.733 C 342.871 407.127 305.313 374.380 290.705 461.230 M 333.027 580.954 C 297.002 567.385 283.777 624.479 231.333 590.887 C 263.768 579.307 277.665 537.423 333.027 580.954 M 289.215 477.489 C 261.675 466.431 211.085 500.076 190.851 433.361 C 226.960 448.593 261.493 418.442 289.215 477.489 M 363.252 616.058 C 367.487 562.806 434.286 570.092 406.361 492.187 C 385.494 540.917 325.377 531.952 363.252 616.058 M 327.600 330.924 C 327.575 291.318 276.213 289.934 301.886 227.706 C 310.715 254.964 363.056 261.370 327.600 330.924 M 178.820 546.812 C 173.632 537.051 177.320 524.992 187.080 519.804 C 196.841 514.616 208.900 518.305 214.088 528.065 C 219.276 537.825 215.587 549.884 205.827 555.072 C 196.067 560.260 184.008 556.572 178.820 546.812 M 413.472 364.484 C 415.266 353.577 407.914 343.331 397.007 341.537 C 386.100 339.744 375.854 347.096 374.061 358.002 C 372.267 368.909 379.619 379.155 390.526 380.949 C 401.433 382.742 411.679 375.391 413.472 364.484 M 170.870 353.144 C 170.704 342.092 179.486 333.042 190.539 332.876 C 201.591 332.710 210.640 341.492 210.806 352.544 C 210.972 363.596 202.191 372.646 191.138 372.812 C 180.086 372.978 171.036 364.196 170.870 353.144 M 437.697 396.003 C 439.865 392.497 442.768 388.669 446.178 384.949 C 463.070 366.522 470.948 370.991 492.545 355.404 C 481.977 376.334 496.348 389.149 476.028 407.832 C 497.659 404.651 504.152 414.673 530.020 420.357 C 505.821 431.354 502.905 444.408 481.135 446.477 C 498.606 461.637 499.176 475.389 510.704 492.813 C 490.487 484.231 477.372 488.748 458.253 476.327 C 454.104 473.631 450.362 470.684 447.330 467.798 C 426.667 448.141 422.291 420.897 437.697 396.003 M 254.134 223.543 C 253.822 219.433 253.005 214.699 251.688 209.828 C 245.162 185.696 236.111 186.042 224.101 162.269 C 223.860 185.714 205.206 190.485 214.658 216.419 C 196.912 203.647 186.538 209.561 160.953 202.712 C 177.384 223.605 173.971 236.539 192.352 248.387 C 169.866 253.815 163.035 265.765 144.786 275.935 C 166.684 277.612 176.253 287.654 198.942 285.417 C 203.866 284.931 208.544 284.034 212.564 282.866 C 239.952 274.913 256.366 252.734 254.134 223.543 M 394.964 204.377 C 381.104 219.373 382.020 242.651 397.016 256.510 C 412.012 270.370 435.290 269.454 449.149 254.458 C 463.009 239.463 462.093 216.185 447.097 202.325 C 432.101 188.465 408.824 189.382 394.964 204.377 M 419.953 175.968 C 433.579 175.432 447.499 180.142 458.340 190.161 C 469.180 200.180 474.970 213.688 475.506 227.314 C 476.042 240.940 471.333 254.861 461.313 265.701 C 451.294 276.542 437.787 282.331 424.161 282.867 C 410.534 283.404 396.614 278.694 385.773 268.675 C 374.933 258.656 369.143 245.148 368.607 231.522 C 368.070 217.896 372.780 203.975 382.799 193.134 C 392.818 182.294 406.326 176.505 419.953 175.968 M 352.224 200.572 C 350.805 214.487 347.119 255.733 374.416 280.963 C 401.713 306.192 442.541 299.275 456.302 296.767 C 485.590 315.604 504.270 315.235 535.230 328.851 C 522.407 300.843 519.228 271.617 496.984 252.751 C 535.413 251.845 536.484 234.012 575.214 220.703 C 539.553 215.420 536.198 186.004 494.710 194.963 C 517.887 170.611 511.055 153.569 526.853 116.033 C 491.582 136.680 472.597 128.767 450.693 154.281 C 447.142 118.891 430.371 105.980 418.705 76.048 C 411.560 109.054 390.061 122.258 392.907 156.556 C 371.095 135.911 339.900 136.995 314.035 124.410 C 327.386 150.534 333.188 175.894 352.224 200.572 Z"/>
<path fill="none" stroke="#000000" stroke-width="4" stroke-linecap="round" stroke-linejoin="round" d="M 212.564 282.866 C 202.853 269.899 202.086 251.979 211.737 238.148 C 221.508 224.144 238.900 218.717 254.134 223.543 C 256.366 252.734 239.952 274.913 212.564 282.866 M 422.767 117.324 C 421.829 136.872 420.891 156.420 419.953 175.968 C 433.579 175.432 447.499 180.142 458.340 190.161 C 471.556 175.729 484.772 161.296 497.989 146.864 M 340.868 148.253 C 354.845 163.214 368.822 178.174 382.799 193.134 C 392.818 182.294 406.326 176.505 419.953 175.968 M 506.147 299.988 C 491.203 288.559 476.258 277.130 461.313 265.701 C 471.333 254.861 476.042 240.940 475.506 227.314 C 492.687 225.513 509.869 223.711 527.050 221.910 M 458.340 190.161 C 469.180 200.180 474.970 213.688 475.506 227.314 "/>
</g>
<g id="specs_2">
<path fill="#ff0000" fill-rule="evenodd" stroke="none" d="M 388.626 643.352 C 388.629 643.353 424.066 653.689 424.069 653.690 C 424.068 653.691 407.430 656.970 407.428 656.970 C 407.428 656.972 409.502 673.803 409.502 673.804 C 409.500 673.801 388.628 643.355 388.626 643.352 Z"/>
<path fill="#0000ff" fill-rule="evenodd" stroke="none" d="M 535.462 106.506 C 535.461 106.508 526.446 125.963 526.445 125.965 C 526.445 125.964 526.007 116.123 526.007 116.122 C 526.006 116.122 516.160 115.851 516.159 115.851 C 516.161 115.850 535.460 106.507 535.462 106.506 Z"/>
<path fill="#00ff00" fill-rule="evenodd" stroke="none" d="M 155.480 353.681 C 155.482 353.681 175.639 346.366 175.641 346.366 C 175.640 346.366 168.966 353.613 168.966 353.613 C 168.966 353.614 175.713 360.791 175.713 360.792 C 175.711 360.791 155.482 353.682 155.480 353.681 Z"/>
<path fill="#ffff00" fill-rule="evenodd" stroke="none" d="M 171.691 559.271 C 171.692 559.268 180.641 539.783 180.642 539.781 C 180.642 539.783 181.113 549.622 181.113 549.623 C 181.114 549.623 190.961 549.862 190.962 549.862 C 190.960 549.862 171.693 559.269 171.691 559.271 Z"/>
<path fill="#ffff00" fill-rule="evenodd" stroke="none" d="M 403.110 656.645 C 403.109 656.643 393.771 637.341 393.770 637.339 C 393.770 637.340 393.497 647.187 393.497 647.188 C 393.496 647.188 383.654 647.624 383.653 647.624 C 383.655 647.625 403.108 656.644 403.110 656.645 Z"/>
<path fill="#00ff00" fill-rule="evenodd" stroke="none" d="M 547.438 420.790 C 547.436 420.789 527.279 413.475 527.277 413.475 C 527.278 413.475 533.951 420.721 533.952 420.722 C 533.951 420.723 527.205 427.900 527.205 427.901 C 527.207 427.900 547.436 420.791 547.438 420.790 Z"/>
<path fill="#00ffff" fill-rule="evenodd" stroke="none" d="M 146.980 192.196 C 146.981 192.198 158.296 210.412 158.297 210.414 C 158.297 210.413 157.535 200.592 157.535 200.591 C 157.536 200.591 167.276 199.124 167.277 199.124 C 167.275 199.123 146.982 192.197 146.980 192.196 Z"/>
</g>
</g>
</svg>
