<?xml version="1.0" encoding="utf-8"?>
<!-- Generator: Moho 12.5 build 22414 -->
<!DOCTYPE svg PUBLIC "-//W3C//DTD SVG 1.1//EN" "http://www.w3.org/Graphics/SVG/1.1/DTD/svg11.dtd">
<svg version="1.1" id="Frame_0" xmlns="http://www.w3.org/2000/svg" xmlns:xlink="http://www.w3.org/1999/xlink" width="720px" height="720px">
<g id="flower_jacobean">
<g id="flower_jacobean">
<path fill="none" stroke="#ffffff" stroke-width="4" stroke-linecap="round" stroke-linejoin="round" d="M 505.912 528.065 C 464.768 506.808 429.084 524.056 403.222 550.494 M 345.939 358.002 C 374.071 352.189 410.949 373.931 425.863 402.443 M 509.194 352.544 C 465.755 357.966 443.217 385.575 430.988 428.054 C 426.325 377.831 387.557 310.786 346.084 280.818 M 292.719 433.133 C 359.850 433.178 404.741 472.580 418.623 515.321 M 473.692 261.304 C 422.458 299.005 412.195 352.643 423.670 394.702 M 430.988 428.054 C 437.315 496.199 406.725 576.714 328.797 643.952 "/>
<path fill="#ffffff" fill-rule="evenodd" stroke="#000000" stroke-width="4" stroke-linecap="round" stroke-linejoin="round" d="M 427.735 459.670 C 391.257 423.904 363.417 452.714 343.280 391.174 C 375.570 405.567 413.128 372.820 427.735 459.670 M 389.702 582.123 C 425.727 568.555 438.953 625.649 491.396 592.056 C 458.961 580.477 445.064 538.592 389.702 582.123 M 432.734 477.879 C 460.275 466.820 510.864 500.466 531.098 433.751 C 494.990 448.983 460.457 418.832 432.734 477.879 M 357.601 611.712 C 352.295 558.557 285.655 567.186 312.006 488.735 C 333.851 537.035 393.775 526.861 357.601 611.712 M 394.349 329.365 C 394.375 289.759 445.736 288.375 420.063 226.147 C 411.235 253.404 358.893 259.810 394.349 329.365 M 541.180 546.812 C 546.368 537.051 542.680 524.992 532.920 519.804 C 523.159 514.616 511.100 518.305 505.912 528.065 C 500.724 537.825 504.413 549.884 514.173 555.072 C 523.933 560.260 535.992 556.572 541.180 546.812 M 306.528 364.484 C 304.734 353.577 312.086 343.331 322.993 341.537 C 333.900 339.744 344.146 347.096 345.939 358.002 C 347.733 368.909 340.381 379.155 329.474 380.949 C 318.567 382.742 308.321 375.391 306.528 364.484 M 549.130 353.144 C 549.296 342.092 540.514 333.042 529.461 332.876 C 518.409 332.710 509.360 341.492 509.194 352.544 C 509.028 363.596 517.810 372.646 528.862 372.812 C 539.914 372.978 548.964 364.196 549.130 353.144 M 282.303 396.003 C 280.135 392.497 277.232 388.669 273.822 384.949 C 256.930 366.522 249.052 370.991 227.455 355.404 C 238.023 376.334 223.652 389.149 243.972 407.832 C 222.341 404.651 215.848 414.673 189.980 420.357 C 214.179 431.354 217.095 444.408 238.865 446.477 C 221.394 461.637 220.824 475.389 209.296 492.813 C 229.513 484.231 242.628 488.748 261.747 476.327 C 265.896 473.631 269.638 470.684 272.670 467.798 C 293.333 448.141 297.709 420.897 282.303 396.003 M 465.866 223.543 C 466.178 219.433 466.995 214.699 468.312 209.828 C 474.838 185.696 483.889 186.042 495.899 162.269 C 496.140 185.714 514.794 190.485 505.342 216.419 C 523.088 203.647 533.462 209.561 559.047 202.712 C 542.616 223.605 546.029 236.539 527.648 248.387 C 550.134 253.815 556.965 265.765 575.214 275.935 C 553.316 277.612 543.747 287.654 521.058 285.417 C 516.134 284.931 511.456 284.034 507.436 282.866 C 480.048 274.913 463.634 252.734 465.866 223.543 M 325.036 204.377 C 338.896 219.373 337.980 242.651 322.984 256.510 C 307.988 270.370 284.711 269.454 270.851 254.458 C 256.991 239.463 257.907 216.185 272.903 202.325 C 287.899 188.465 311.176 189.382 325.036 204.377 M 300.047 175.968 C 286.421 175.432 272.501 180.142 261.660 190.161 C 250.820 200.180 245.030 213.688 244.494 227.314 C 243.958 240.940 248.667 254.861 258.687 265.701 C 268.706 276.542 282.213 282.331 295.839 282.867 C 309.466 283.404 323.386 278.694 334.227 268.675 C 345.067 258.656 350.857 245.148 351.393 231.522 C 351.930 217.896 347.220 203.975 337.201 193.134 C 327.182 182.294 313.674 176.505 300.047 175.968 M 367.776 200.572 C 369.195 214.487 372.881 255.733 345.584 280.963 C 318.287 306.192 277.459 299.275 263.698 296.767 C 234.410 315.604 215.730 315.235 184.770 328.851 C 197.593 300.843 200.772 271.617 223.016 252.751 C 184.587 251.845 183.516 234.012 144.786 220.703 C 180.447 215.420 183.802 186.004 225.290 194.963 C 202.113 170.611 208.945 153.569 193.147 116.033 C 228.418 136.680 247.403 128.767 269.307 154.281 C 272.858 118.891 289.629 105.980 301.295 76.048 C 308.440 109.054 329.939 122.258 327.093 156.556 C 348.905 135.911 380.100 136.995 405.965 124.410 C 392.614 150.534 386.812 175.894 367.776 200.572 Z"/>
<path fill="none" stroke="#000000" stroke-width="4" stroke-linecap="round" stroke-linejoin="round" d="M 272.670 467.798 C 258.084 460.749 249.161 445.189 251.370 428.469 C 253.607 411.540 266.555 398.724 282.303 396.003 C 297.709 420.897 293.333 448.141 272.670 467.798 M 507.436 282.866 C 517.147 269.899 517.914 251.979 508.264 238.148 C 498.492 224.144 481.100 218.717 465.866 223.543 C 463.634 252.734 480.048 274.913 507.436 282.866 M 297.233 117.324 C 298.171 136.872 299.109 156.420 300.047 175.968 C 286.421 175.432 272.501 180.142 261.660 190.161 C 248.444 175.729 235.228 161.296 222.011 146.864 M 379.132 148.253 C 365.155 163.214 351.178 178.174 337.201 193.134 C 327.182 182.294 313.674 176.505 300.047 175.968 M 213.853 299.988 C 228.798 288.559 243.742 277.130 258.687 265.701 C 248.667 254.861 243.958 240.940 244.494 227.314 C 227.313 225.513 210.132 223.711 192.950 221.910 M 261.660 190.161 C 250.820 200.180 245.030 213.688 244.494 227.314 "/>
</g>
<g id="specs_2">
<path fill="#ff0000" fill-rule="evenodd" stroke="none" d="M 325.353 640.955 C 325.350 640.958 300.668 668.405 300.666 668.408 C 300.667 668.408 316.538 662.434 316.540 662.433 C 316.540 662.435 323.641 677.834 323.642 677.836 C 323.642 677.832 325.353 640.959 325.353 640.955 Z"/>
<path fill="#0000ff" fill-rule="evenodd" stroke="none" d="M 184.538 106.506 C 184.539 106.508 193.554 125.963 193.555 125.965 C 193.555 125.964 193.993 116.123 193.993 116.122 C 193.994 116.122 203.840 115.851 203.841 115.851 C 203.839 115.850 184.540 106.507 184.538 106.506 Z"/>
<path fill="#00ff00" fill-rule="evenodd" stroke="none" d="M 564.520 353.681 C 564.518 353.681 544.362 346.366 544.359 346.366 C 544.360 346.366 551.034 353.613 551.034 353.613 C 551.034 353.614 544.287 360.791 544.287 360.792 C 544.289 360.791 564.518 353.682 564.520 353.681 Z"/>
<path fill="#ffff00" fill-rule="evenodd" stroke="none" d="M 548.309 559.271 C 548.308 559.268 539.359 539.783 539.358 539.781 C 539.358 539.783 538.887 549.622 538.887 549.623 C 538.886 549.623 529.039 549.862 529.038 549.862 C 529.040 549.862 548.307 559.269 548.309 559.271 Z"/>
<path fill="#ffff00" fill-rule="evenodd" stroke="none" d="M 316.890 656.645 C 316.891 656.643 326.229 637.341 326.230 637.339 C 326.230 637.340 326.503 647.187 326.503 647.188 C 326.504 647.188 336.346 647.624 336.347 647.624 C 336.345 647.625 316.892 656.644 316.890 656.645 Z"/>
<path fill="#00ff00" fill-rule="evenodd" stroke="none" d="M 172.562 420.790 C 172.564 420.789 192.721 413.475 192.723 413.475 C 192.722 413.475 186.049 420.721 186.048 420.722 C 186.049 420.723 192.795 427.900 192.795 427.901 C 192.793 427.900 172.564 420.791 172.562 420.790 Z"/>
<path fill="#00ffff" fill-rule="evenodd" stroke="none" d="M 573.020 192.196 C 573.019 192.198 561.704 210.412 561.703 210.414 C 561.703 210.413 562.465 200.592 562.465 200.591 C 562.464 200.591 552.724 199.124 552.723 199.124 C 552.725 199.123 573.018 192.197 573.020 192.196 Z"/>
</g>
</g>
</svg>
