<?xml version="1.0" encoding="utf-8"?>
<!-- Generator: Moho 13.5 build 20210422 -->
<!DOCTYPE svg PUBLIC "-//W3C//DTD SVG 1.1//EN" "http://www.w3.org/Graphics/SVG/1.1/DTD/svg11.dtd">
<svg version="1.1" id="Frame_0" xmlns="http://www.w3.org/2000/svg" xmlns:xlink="http://www.w3.org/1999/xlink" width="720px" height="720px">
<g id="flower_2">
<g id="flower">
<path id="S1" fill="#ffffff" fill-rule="evenodd" stroke="none" d="M 360.540 23.126 C 360.540 58.218 448.269 87.971 448.269 145.947 C 448.269 216.131 360.548 303.399 360.540 303.415 C 360.531 303.399 272.810 216.131 272.810 145.947 C 272.810 87.971 360.540 58.218 360.540 23.126 Z"/>
<path id="S1" fill="none" stroke="#000000" stroke-width="4" stroke-linecap="round" stroke-linejoin="round" d="M 360.540 303.415 C 348.842 256.775 337.145 210.134 325.448 163.493 M 360.540 303.415 C 360.543 303.401 383.934 210.134 395.631 163.493 M 360.540 128.401 C 360.540 186.739 360.540 303.398 360.540 303.415 C 360.531 303.399 272.810 216.131 272.810 145.947 C 272.810 87.971 360.540 58.218 360.540 23.126 C 360.540 58.218 448.269 87.971 448.269 145.947 C 448.269 216.131 360.548 303.399 360.540 303.415 "/>
</g>
<g id="flower_2">
<path id="S1" fill="#ffffff" fill-rule="evenodd" stroke="none" d="M 627.534 217.109 C 594.160 227.953 592.973 320.583 537.834 338.499 C 471.085 360.186 360.981 303.726 360.963 303.723 C 360.975 303.710 416.866 193.315 483.614 171.627 C 538.753 153.711 594.160 227.953 627.534 217.109 Z"/>
<path id="S1" fill="none" stroke="#000000" stroke-width="4" stroke-linecap="round" stroke-linejoin="round" d="M 360.963 303.723 C 401.706 278.185 442.450 252.648 483.193 227.110 M 360.963 303.723 C 360.978 303.722 456.908 297.147 504.881 293.859 M 527.411 249.641 C 471.929 267.668 360.980 303.718 360.963 303.723 C 360.975 303.710 416.866 193.315 483.614 171.627 C 538.753 153.711 594.160 227.953 627.534 217.109 C 594.160 227.953 592.973 320.583 537.834 338.499 C 471.085 360.186 360.981 303.726 360.963 303.723 "/>
</g>
<g id="flower_3">
<path id="S1" fill="#ffffff" fill-rule="evenodd" stroke="none" d="M 525.551 530.980 C 504.925 502.590 416.461 530.085 382.384 483.181 C 341.131 426.401 360.804 304.239 360.801 304.221 C 360.818 304.228 483.081 323.269 524.334 380.049 C 558.411 426.952 504.925 502.590 525.551 530.980 Z"/>
<path id="S1" fill="none" stroke="#000000" stroke-width="4" stroke-linecap="round" stroke-linejoin="round" d="M 360.801 304.221 C 397.679 335.078 434.557 365.936 471.435 396.794 M 360.801 304.221 C 360.807 304.234 396.704 393.438 414.656 438.046 M 463.672 445.810 C 429.382 398.614 360.812 304.235 360.801 304.221 C 360.818 304.228 483.081 323.269 524.334 380.049 C 558.411 426.952 504.925 502.590 525.551 530.980 C 504.925 502.590 416.461 530.085 382.384 483.181 C 341.131 426.401 360.804 304.239 360.801 304.221 "/>
</g>
<g id="flower_4">
<path id="S1" fill="#ffffff" fill-rule="evenodd" stroke="none" d="M 195.528 530.980 C 216.154 502.590 162.668 426.952 196.746 380.049 C 237.999 323.269 360.262 304.228 360.278 304.221 C 360.276 304.239 379.948 426.401 338.695 483.181 C 304.618 530.085 216.154 502.590 195.528 530.980 Z"/>
<path id="S1" fill="none" stroke="#000000" stroke-width="4" stroke-linecap="round" stroke-linejoin="round" d="M 360.278 304.221 C 342.327 348.829 324.375 393.438 306.424 438.046 M 360.278 304.221 C 360.267 304.230 286.522 365.936 249.644 396.794 M 257.407 445.810 C 291.697 398.614 360.268 304.235 360.278 304.221 C 360.276 304.239 379.948 426.401 338.695 483.181 C 304.618 530.085 216.154 502.590 195.528 530.980 C 216.154 502.590 162.668 426.952 196.746 380.049 C 237.999 323.269 360.262 304.228 360.278 304.221 "/>
</g>
<g id="flower_5">
<path id="S1" fill="#ffffff" fill-rule="evenodd" stroke="none" d="M 93.545 217.109 C 126.919 227.953 182.327 153.711 237.465 171.627 C 304.214 193.315 360.104 303.710 360.116 303.723 C 360.098 303.726 249.994 360.186 183.245 338.499 C 128.107 320.583 126.919 227.953 93.545 217.109 Z"/>
<path id="S1" fill="none" stroke="#000000" stroke-width="4" stroke-linecap="round" stroke-linejoin="round" d="M 360.116 303.723 C 312.144 300.435 264.171 297.147 216.199 293.859 M 360.116 303.723 C 360.104 303.715 278.630 252.648 237.886 227.110 M 193.668 249.641 C 249.151 267.668 360.099 303.718 360.116 303.723 C 360.098 303.726 249.994 360.186 183.245 338.499 C 128.107 320.583 126.919 227.953 93.545 217.109 C 126.919 227.953 182.327 153.711 237.465 171.627 C 304.214 193.315 360.104 303.710 360.116 303.723 "/>
</g>
<g id="specs_2">
<path fill="#ff00ff" fill-rule="evenodd" stroke="none" d="M 262.156 205.477 C 262.175 205.477 458.904 205.477 458.924 205.477 C 458.924 205.496 458.924 402.225 458.924 402.245 C 458.904 402.245 262.175 402.245 262.156 402.245 C 262.156 402.225 262.156 205.496 262.156 205.477 Z"/>
<path fill="#ff0000" fill-rule="evenodd" stroke="none" d="M 360.540 647.823 C 360.541 647.826 371.432 678.324 371.433 678.327 C 371.432 678.326 360.541 668.192 360.540 668.190 C 360.539 668.192 349.647 678.326 349.646 678.327 C 349.647 678.324 360.539 647.826 360.540 647.823 Z"/>
<path fill="#be0027" fill-rule="evenodd" stroke="none" d="M 360.540 599.626 C 360.540 599.624 368.264 577.997 368.265 577.995 C 368.264 577.995 360.540 585.182 360.540 585.182 C 360.539 585.182 352.815 577.995 352.814 577.995 C 352.815 577.997 360.539 599.624 360.540 599.626 Z"/>
<path fill="#00ff00" fill-rule="evenodd" stroke="none" d="M 626.135 218.298 C 626.133 218.300 606.484 233.461 606.482 233.463 C 606.482 233.462 611.289 223.123 611.290 223.122 C 611.289 223.121 601.322 217.583 601.321 217.582 C 601.324 217.582 626.133 218.298 626.135 218.298 Z"/>
<path fill="#00ffff" fill-rule="evenodd" stroke="none" d="M 525.066 528.659 C 525.064 528.658 505.576 515.340 505.574 515.339 C 505.575 515.339 516.340 516.648 516.341 516.648 C 516.341 516.647 518.422 506.006 518.422 506.005 C 518.423 506.007 525.066 528.657 525.066 528.659 Z"/>
<path fill="#00ff00" fill-rule="evenodd" stroke="none" d="M 94.944 218.298 C 94.946 218.299 114.596 233.461 114.598 233.462 C 114.598 233.461 109.791 223.123 109.790 223.122 C 109.791 223.121 119.757 217.582 119.758 217.581 C 119.756 217.581 94.947 218.298 94.944 218.298 Z"/>
<path fill="#00ffff" fill-rule="evenodd" stroke="none" d="M 196.013 528.659 C 196.015 528.657 215.503 515.340 215.505 515.339 C 215.504 515.339 204.740 516.648 204.739 516.648 C 204.738 516.647 202.658 506.005 202.657 506.004 C 202.657 506.007 196.014 528.656 196.013 528.659 Z"/>
<path fill="#0000ff" fill-rule="evenodd" stroke="none" d="M 360.540 21.961 C 360.541 21.964 372.312 54.924 372.313 54.927 C 372.312 54.926 360.541 43.974 360.540 43.972 C 360.538 43.974 348.767 54.926 348.766 54.927 C 348.767 54.924 360.538 21.964 360.540 21.961 Z"/>
</g>
</g>
</svg>
