<?xml version="1.0" encoding="utf-8"?>
<!-- Generator: Moho 12.5 build 22414 -->
<!DOCTYPE svg PUBLIC "-//W3C//DTD SVG 1.1//EN" "http://www.w3.org/Graphics/SVG/1.1/DTD/svg11.dtd">
<svg version="1.1" id="Frame_0" xmlns="http://www.w3.org/2000/svg" xmlns:xlink="http://www.w3.org/1999/xlink" width="720px" height="720px">
<g id="flower_jacobean_2">
<g id="flower_jacobean">
<path fill="none" stroke="#ffffff" stroke-width="4" stroke-linecap="round" stroke-linejoin="round" d="M 632.729 503.294 C 634.088 496.063 624.828 492.516 612.897 484.095 M 646.547 419.076 C 675.837 462.966 617.029 500.357 574.441 478.724 M 517.133 593.243 C 485.273 588.339 453.922 633.239 480.089 665.217 M 281.049 654.366 C 286.460 631.363 290.300 620.892 302.916 604.661 M 306.395 138.922 C 303.992 116.639 298.494 102.571 280.957 92.497 M 212.805 584.067 C 241.727 586.027 255.583 579.583 277.982 567.476 M 202.498 161.253 C 202.143 179.197 209.067 191.687 222.133 198.990 M 276.387 238.099 C 251.140 202.786 201.561 189.211 158.577 193.063 M 313.270 211.323 C 281.272 150.566 319.930 89.010 381.420 94.197 M 334.121 402.796 C 350.164 403.113 359.386 406.685 370.388 418.159 M 328.155 340.798 C 312.734 346.402 320.662 375.098 334.701 379.240 M 336.556 558.126 C 364.967 543.736 389.410 555.793 407.049 574.116 M 472.918 374.111 C 441.006 368.382 400.041 394.001 384.055 426.609 M 252.505 373.569 C 323.048 357.093 371.311 391.225 379.283 451.676 C 383.946 401.453 422.714 334.407 464.187 304.439 M 513.260 464.287 C 449.570 462.561 405.944 498.759 391.648 538.942 M 336.389 270.346 C 388.925 317.035 392.396 370.788 385.730 418.677 M 379.283 451.676 C 372.956 519.821 403.546 600.335 481.474 667.574 "/>
<path fill="#ffffff" fill-rule="evenodd" stroke="#000000" stroke-width="4" stroke-linecap="round" stroke-linejoin="round" d="M 613.026 397.360 C 619.035 388.083 631.367 385.447 640.644 391.457 C 649.921 397.467 652.557 409.799 646.547 419.076 C 640.537 428.353 628.205 430.988 618.929 424.979 C 609.652 418.969 607.016 406.637 613.026 397.360 M 552.350 612.085 C 557.564 602.339 553.909 590.270 544.163 585.055 C 534.417 579.840 522.347 583.496 517.133 593.243 C 511.918 602.989 515.574 615.058 525.320 620.272 C 535.067 625.487 547.135 621.831 552.350 612.085 M 264.622 690.772 C 254.546 686.225 250.086 674.430 254.632 664.355 C 259.179 654.279 270.974 649.819 281.049 654.366 C 291.125 658.912 295.585 670.707 291.038 680.782 C 286.492 690.858 274.697 695.318 264.622 690.772 M 254.985 99.069 C 252.346 98.833 249.310 98.266 246.190 97.377 C 230.733 92.972 231.034 87.156 215.855 79.229 C 230.929 79.278 234.159 67.327 250.749 73.629 C 242.693 62.110 246.585 55.492 242.404 38.985 C 255.693 49.730 264.037 47.648 271.494 59.567 C 275.179 45.159 282.920 40.872 289.617 29.228 C 290.505 43.321 296.877 49.560 295.241 64.126 C 294.886 67.288 294.269 70.287 293.483 72.861 C 288.133 90.399 273.732 100.759 254.985 99.069 M 299.062 529.762 C 294.726 528.701 289.578 527.949 284.119 527.666 C 257.079 526.264 254.390 535.698 225.874 540.063 C 249.930 548.200 248.564 569.010 278.445 568.006 C 259.324 581.977 261.922 594.647 246.262 618.682 C 273.300 608.796 285.466 616.663 303.849 601.727 C 301.870 626.702 311.874 637.756 316.203 659.966 C 325.298 637.986 338.856 631.513 344.188 607.402 C 345.345 602.170 345.996 597.052 346.146 592.521 C 347.175 561.649 329.865 537.287 299.062 529.762 M 174.274 573.548 C 171.363 584.211 177.616 595.162 188.280 598.073 C 198.943 600.984 209.894 594.730 212.805 584.067 C 215.716 573.403 209.462 562.453 198.798 559.542 C 188.135 556.631 177.185 562.885 174.274 573.548 M 220.684 125.693 C 210.843 120.660 198.844 124.539 193.811 134.380 C 188.778 144.221 192.657 156.221 202.498 161.253 C 212.339 166.286 224.338 162.407 229.371 152.566 C 234.404 142.725 230.525 130.726 220.684 125.693 M 147.610 218.643 C 145.837 220.613 143.563 222.702 140.979 224.665 C 128.182 234.389 123.710 230.659 108.262 238.047 C 117.344 226.016 109.720 216.263 124.715 206.770 C 110.666 206.306 107.706 199.222 91.991 192.664 C 108.560 188.478 111.900 180.553 125.910 181.737 C 116.592 170.146 117.807 161.380 112.509 149.037 C 124.316 156.781 133.131 155.426 143.803 165.473 C 146.120 167.653 148.149 169.947 149.737 172.120 C 160.559 186.921 160.208 204.658 147.610 218.643 M 418.853 88.711 C 414.731 78.455 403.131 73.507 392.875 77.629 C 382.619 81.752 377.672 93.351 381.794 103.607 C 385.917 113.863 397.516 118.811 407.772 114.688 C 418.028 110.566 422.975 98.967 418.853 88.711 M 305.353 430.503 C 297.685 422.541 297.922 409.933 305.884 402.265 C 313.845 394.597 326.453 394.835 334.121 402.796 C 341.789 410.758 341.552 423.366 333.590 431.034 C 325.629 438.701 313.021 438.464 305.353 430.503 M 367.190 332.340 C 364.849 321.537 354.246 314.710 343.444 317.051 C 332.641 319.392 325.814 329.995 328.155 340.798 C 330.496 351.601 341.099 358.427 351.901 356.086 C 362.704 353.746 369.530 343.143 367.190 332.340 M 195.942 418.172 C 213.751 414.424 225.095 397.035 221.347 379.226 C 217.600 361.417 200.211 350.073 182.402 353.820 C 164.592 357.568 153.249 374.957 156.996 392.766 C 160.744 410.575 178.133 421.919 195.942 418.172 M 163.125 425.925 C 152.946 419.285 145.259 408.680 142.550 395.806 C 139.841 382.932 142.602 370.129 149.243 359.949 C 155.883 349.770 166.488 342.083 179.362 339.374 C 192.236 336.665 205.039 339.426 215.218 346.067 C 225.398 352.707 233.085 363.311 235.794 376.186 C 238.503 389.060 235.742 401.863 229.102 412.042 C 222.461 422.222 211.857 429.909 198.982 432.618 C 186.108 435.327 173.305 432.566 163.125 425.925 M 225.040 442.988 C 233.250 433.607 257.209 405.534 250.387 373.115 C 243.566 340.697 210.326 324.659 199.031 319.383 C 187.465 290.583 173.698 281.214 158.224 255.345 C 153.092 282.315 140.325 305.195 146.757 330.382 C 118.362 311.215 108.383 323.622 73.370 313.312 C 96.561 335.550 83.823 358.659 118.596 373.552 C 89.188 379.293 85.361 395.203 54.514 414.331 C 90.800 417.523 100.515 433.068 129.596 425.827 C 113.918 453.378 119.445 471.413 112.481 499.185 C 134.702 478.885 157.138 480.381 172.765 453.987 C 177.966 480.243 201.195 495.549 213.499 518.040 C 217.275 492.167 226.142 470.743 225.040 442.988 M 380.977 484.852 C 427.353 446.632 457.060 483.218 486.896 413.135 C 447.596 426.731 406.898 384.547 380.977 484.852 M 471.595 659.312 C 420.540 642.398 405.292 722.846 330.190 678.904 C 374.817 660.913 391.860 601.660 471.595 659.312 M 379.486 501.111 C 344.247 489.768 284.251 536.074 253.218 454.836 C 299.484 470.620 339.807 430.071 379.486 501.111 M 441.717 625.727 C 443.707 566.468 502.888 572.589 503.088 491.247 C 439.404 512.590 408.039 527.374 441.717 625.727 M 399.766 384.367 C 416.063 323.416 349.322 274.542 402.775 214.944 C 405.116 260.526 458.513 262.150 399.766 384.367 M 512.329 380.593 C 514.123 369.685 506.771 359.439 495.864 357.646 C 484.957 355.853 474.712 363.204 472.918 374.111 C 471.124 385.018 478.476 395.264 489.383 397.058 C 500.290 398.851 510.536 391.500 512.329 380.593 M 524.541 424.071 C 526.889 420.274 530.032 416.128 533.726 412.099 C 552.022 392.140 560.555 396.981 583.946 380.099 C 572.500 402.767 588.065 416.647 566.056 436.883 C 589.485 433.438 596.517 444.292 624.534 450.449 C 598.325 462.359 595.167 476.498 571.587 478.739 C 590.510 495.158 591.127 510.054 603.613 528.925 C 581.717 519.630 567.512 524.522 546.804 511.069 C 542.311 508.149 538.258 504.957 534.974 501.831 C 512.594 480.542 507.854 451.034 524.541 424.071 M 356.826 229.307 C 357.601 224.520 357.972 218.880 357.808 212.944 C 356.997 183.539 346.547 181.439 339.362 150.934 C 332.623 177.687 309.969 178.002 313.631 210.275 C 296.852 190.772 283.355 194.677 255.975 179.789 C 269.012 208.219 261.541 222.073 279.301 240.695 C 252.082 240.704 240.974 252.491 217.293 259.094 C 241.882 267.049 250.060 281.175 276.631 284.871 C 282.398 285.673 287.996 285.936 292.917 285.708 C 326.439 284.161 351.331 263.315 356.826 229.307 M 485.235 227.999 C 471.375 242.995 472.292 266.272 487.287 280.132 C 502.283 293.992 525.561 293.076 539.420 278.080 C 553.280 263.085 552.364 239.807 537.368 225.947 C 522.372 212.087 499.095 213.004 485.235 227.999 M 510.224 199.590 C 523.850 199.054 537.771 203.764 548.611 213.783 C 559.451 223.802 565.241 237.310 565.777 250.936 C 566.313 264.562 561.604 278.483 551.584 289.323 C 541.565 300.163 528.058 305.953 514.432 306.489 C 500.805 307.026 486.885 302.316 476.044 292.297 C 465.204 282.277 459.414 268.770 458.878 255.144 C 458.341 241.518 463.051 227.596 473.070 216.756 C 483.090 205.916 496.597 200.126 510.224 199.590 M 442.495 224.194 C 441.076 238.109 437.390 279.355 464.687 304.584 C 491.984 329.814 532.812 322.897 546.573 320.388 C 575.861 339.226 594.541 338.857 625.501 352.473 C 612.679 324.465 609.499 295.239 587.255 276.372 C 625.684 275.467 626.755 257.634 665.486 244.325 C 629.824 239.042 626.469 209.626 584.981 218.585 C 608.158 194.232 601.326 177.190 617.124 139.654 C 581.853 160.301 562.868 152.389 540.964 177.903 C 537.413 142.513 520.642 129.602 508.976 99.670 C 501.831 132.676 480.332 145.880 483.178 180.177 C 461.366 159.533 430.171 160.617 404.306 148.031 C 417.657 174.156 423.459 199.516 442.495 224.194 Z"/>
<path fill="none" stroke="#000000" stroke-width="4" stroke-linecap="round" stroke-linejoin="round" d="M 293.483 72.861 C 285.232 66.506 273.718 65.857 264.743 71.941 C 255.655 78.100 252.015 89.234 254.985 99.069 C 273.732 100.759 288.133 90.399 293.483 72.861 M 346.146 592.521 C 329.529 598.155 310.822 592.914 299.830 578.325 C 288.702 563.553 288.968 543.822 299.062 529.762 C 329.865 537.287 347.175 561.649 346.146 592.521 M 149.737 172.120 C 139.702 174.909 132.275 183.731 131.759 194.562 C 131.235 205.528 137.959 215.119 147.610 218.643 C 160.208 204.658 160.559 186.921 149.737 172.120 M 130.824 467.093 C 141.591 453.370 152.358 439.648 163.125 425.925 C 152.946 419.285 145.259 408.680 142.550 395.806 C 125.499 399.476 108.449 403.147 91.398 406.817 M 206.300 486.868 C 203.861 468.785 201.422 450.701 198.982 432.618 C 186.108 435.327 173.305 432.566 163.125 425.925 M 164.469 291.326 C 169.433 307.342 174.397 323.358 179.362 339.374 C 166.488 342.083 155.883 349.770 149.243 359.949 C 135.827 352.394 122.411 344.839 108.995 337.284 M 142.550 395.806 C 139.841 382.932 142.602 370.129 149.243 359.949 M 534.974 501.831 C 550.772 494.197 560.436 477.344 558.043 459.235 C 555.621 440.900 541.597 427.018 524.541 424.071 C 507.854 451.034 512.594 480.542 534.974 501.831 M 292.917 285.708 C 285.383 268.198 289.446 247.486 304.299 234.325 C 319.338 221.000 340.729 219.587 356.826 229.307 C 351.331 263.315 326.439 284.161 292.917 285.708 M 513.038 140.945 C 512.100 160.494 511.162 180.042 510.224 199.590 C 523.850 199.054 537.771 203.764 548.611 213.783 C 561.827 199.350 575.044 184.918 588.260 170.486 M 431.139 171.875 C 445.116 186.835 459.093 201.796 473.070 216.756 C 483.090 205.916 496.597 200.126 510.224 199.590 M 596.418 323.610 C 581.474 312.181 566.529 300.752 551.584 289.323 C 561.604 278.483 566.313 264.562 565.777 250.936 C 582.958 249.134 600.140 247.333 617.321 245.532 M 548.611 213.783 C 559.451 223.802 565.241 237.310 565.777 250.936 "/>
<path fill="#ffffff" fill-rule="evenodd" stroke="#000000" stroke-width="4" stroke-linecap="round" stroke-linejoin="round" d="M 252.171 295.404 C 261.715 323.044 232.036 351.644 302.555 369.911 C 275.700 337.286 301.437 316.412 252.171 295.404 Z"/>
<path fill="#ffffff" fill-rule="evenodd" stroke="#000000" stroke-width="4" stroke-linecap="round" stroke-linejoin="round" d="M 587.023 607.130 C 623.221 600.468 669.136 566.089 633.374 501.732 C 635.162 549.761 599.876 541.688 587.023 607.130 Z"/>
</g>
<g id="specs_2">
<path fill="#ff0000" fill-rule="evenodd" stroke="none" d="M 483.762 667.742 C 483.764 667.746 504.292 698.424 504.295 698.427 C 504.293 698.426 489.433 690.256 489.432 690.256 C 489.431 690.257 480.213 704.490 480.212 704.492 C 480.212 704.488 483.762 667.746 483.762 667.742 Z"/>
<path fill="#0000ff" fill-rule="evenodd" stroke="none" d="M 629.909 126.898 C 629.908 126.900 620.893 146.355 620.892 146.357 C 620.892 146.356 620.454 136.515 620.454 136.514 C 620.453 136.514 610.606 136.243 610.605 136.243 C 610.607 136.242 629.907 126.899 629.909 126.898 Z"/>
<path fill="#00ff00" fill-rule="evenodd" stroke="none" d="M 34.202 415.930 C 34.204 415.929 54.360 408.615 54.362 408.615 C 54.362 408.615 47.688 415.861 47.688 415.862 C 47.688 415.863 54.435 423.040 54.435 423.041 C 54.433 423.040 34.204 415.931 34.202 415.930 Z"/>
<path fill="#ffff00" fill-rule="evenodd" stroke="none" d="M 223.207 639.765 C 223.208 639.763 232.157 620.278 232.158 620.276 C 232.158 620.277 232.629 630.116 232.629 630.117 C 232.630 630.117 242.478 630.356 242.479 630.356 C 242.477 630.357 223.209 639.764 223.207 639.765 Z"/>
<path fill="#ffff00" fill-rule="evenodd" stroke="none" d="M 495.291 686.601 C 495.290 686.599 488.264 666.341 488.263 666.339 C 488.263 666.340 486.844 676.088 486.844 676.089 C 486.843 676.089 477.018 675.375 477.017 675.375 C 477.019 675.377 495.289 686.600 495.291 686.601 Z"/>
<path fill="#00ff00" fill-rule="evenodd" stroke="none" d="M 676.228 483.039 C 676.226 483.038 656.070 475.724 656.068 475.723 C 656.069 475.724 662.742 482.970 662.743 482.971 C 662.742 482.972 655.996 490.149 655.995 490.150 C 655.997 490.149 676.226 483.040 676.228 483.039 Z"/>
<path fill="#00ffff" fill-rule="evenodd" stroke="none" d="M 164.153 92.384 C 164.154 92.385 175.468 110.600 175.469 110.601 C 175.469 110.600 174.707 100.779 174.707 100.778 C 174.708 100.778 184.448 99.311 184.449 99.311 C 184.447 99.310 164.155 92.384 164.153 92.384 Z"/>
</g>
</g>
</svg>
