<?xml version="1.0" encoding="utf-8"?>
<!-- Generator: Moho 13.5 build 20210422 -->
<!DOCTYPE svg PUBLIC "-//W3C//DTD SVG 1.1//EN" "http://www.w3.org/Graphics/SVG/1.1/DTD/svg11.dtd">
<svg version="1.1" id="Frame_0" xmlns="http://www.w3.org/2000/svg" xmlns:xlink="http://www.w3.org/1999/xlink" width="720px" height="720px">
<g id="fool_3">
<g id="fool_2">
<path id="S18" fill="#000000" fill-rule="evenodd" stroke="#000000" stroke-width="2" stroke-linecap="round" stroke-linejoin="round" d="M 366.122 145.832 C 387.322 145.832 398.374 159.957 398.377 159.959 C 398.374 159.960 387.322 174.087 366.122 174.087 C 344.923 174.087 333.871 159.960 333.868 159.959 C 333.871 159.957 344.923 145.832 366.122 145.832 Z"/>
<path id="S1" fill="#000000" fill-rule="evenodd" stroke="#ffffff" stroke-width="2" stroke-linecap="round" stroke-linejoin="round" d="M 75.127 287.058 C 75.174 287.044 541.698 151.082 541.745 151.068 C 541.745 151.067 538.971 144.545 538.971 144.544 C 538.924 144.558 72.400 280.520 72.353 280.534 C 72.354 280.535 75.127 287.057 75.127 287.058 Z"/>
<path id="S4" fill="#ffffff" fill-rule="evenodd" stroke="#000000" stroke-width="2" stroke-linecap="round" stroke-linejoin="round" d="M 581.407 266.318 C 583.821 269.859 586.236 273.401 588.650 276.943 C 617.890 283.153 611.859 258.975 635.885 254.377 C 636.646 254.231 623.873 251.397 613.184 257.646 C 620.142 243.649 609.909 242.958 603.140 234.457 C 603.492 246.444 618.559 250.250 599.041 259.770 C 581.890 247.926 595.926 246.742 599.375 234.595 C 587.546 243.502 581.313 246.174 581.407 266.318 Z"/>
<path id="S6" fill="#ffffff" fill-rule="evenodd" stroke="#000000" stroke-width="2" stroke-linecap="round" stroke-linejoin="round" d="M 120.242 291.095 C 124.457 289.767 128.671 288.439 132.885 287.111 C 132.886 287.108 134.307 256.878 134.307 256.875 C 134.304 256.875 101.824 265.707 101.820 265.708 C 101.822 265.711 120.240 291.092 120.242 291.095 Z"/>
<path fill="none" stroke="#ffffff" stroke-width="1" stroke-linecap="butt" stroke-linejoin="round" d="M 581.407 266.318 C 583.821 269.859 586.236 273.401 588.650 276.943 "/>
<path id="S7" fill="#ffffff" fill-rule="evenodd" stroke="#000000" stroke-width="2" stroke-linecap="round" stroke-linejoin="round" d="M 422.783 317.566 C 437.880 281.006 444.193 257.124 454.314 237.750 C 456.282 237.908 466.666 292.173 515.023 300.477 C 549.796 306.448 580.159 270.191 581.407 266.318 C 583.821 269.859 586.236 273.401 588.650 276.943 C 588.446 280.433 569.761 369.513 506.900 368.854 C 449.473 368.253 424.969 325.069 422.783 317.566 Z"/>
<path id="S8" fill="none" stroke="#000000" stroke-width="2" stroke-linecap="round" stroke-linejoin="round" d="M 407.579 494.370 C 342.140 508.602 272.611 481.717 244.735 420.990 M 399.249 401.417 C 415.156 428.215 407.934 471.689 407.579 494.370 M 342.670 415.118 C 366.834 416.738 398.574 400.280 399.249 401.417 "/>
<path id="S9" fill="#ffffff" fill-rule="evenodd" stroke="#000000" stroke-width="2" stroke-linecap="round" stroke-linejoin="round" d="M 360.385 628.800 C 371.772 627.280 383.955 621.266 393.991 617.352 C 397.900 635.751 413.772 664.505 427.732 689.925 C 411.062 690.356 343.714 689.899 338.271 690.231 C 362.286 676.746 384.160 674.993 394.528 672.435 C 384.245 660.511 370.174 644.635 360.385 628.800 Z"/>
<path id="S13" fill="none" stroke="#000000" stroke-width="2" stroke-linecap="round" stroke-linejoin="round" d="M 342.670 415.118 C 366.834 416.738 398.574 400.280 399.249 401.417 C 399.662 393.951 414.217 341.980 422.783 317.566 C 437.880 281.006 444.193 257.124 454.314 237.750 "/>
<path fill="none" stroke="#ffffff" stroke-width="1" stroke-linecap="butt" stroke-linejoin="round" d="M 132.885 287.111 C 128.671 288.439 124.457 289.767 120.242 291.095 "/>
<path id="S14" fill="#ffffff" fill-rule="evenodd" stroke="#000000" stroke-width="2" stroke-linecap="round" stroke-linejoin="round" d="M 286.620 328.738 C 281.831 301.563 280.625 260.457 287.284 226.406 C 284.666 226.224 254.491 291.323 205.046 302.711 C 164.986 311.938 132.893 287.112 132.885 287.111 C 128.671 288.439 124.457 289.767 120.242 291.095 C 120.250 291.102 143.267 351.737 195.462 360.630 C 251.950 370.254 284.821 332.336 286.620 328.738 Z"/>
<path id="S15" fill="none" stroke="#000000" stroke-width="2" stroke-linecap="round" stroke-linejoin="round" d="M 244.735 420.990 C 270.869 408.679 289.075 401.030 314.502 400.502 C 327.888 409.025 338.776 414.857 342.670 415.118 "/>
<path id="S17" fill="#ffffff" fill-rule="evenodd" stroke="#000000" stroke-width="2" stroke-linecap="round" stroke-linejoin="round" d="M 161.918 518.088 C 172.098 524.847 182.278 531.606 192.458 538.364 C 185.506 544.503 164.345 566.398 139.950 610.524 C 116.967 597.409 79.227 572.007 70.892 564.423 C 80.713 560.432 121.928 577.128 134.723 576.727 C 147.896 549.051 155.211 530.463 161.918 518.088 Z"/>
<path id="S19" fill="#000000" fill-rule="evenodd" stroke="#ffffff" stroke-width="2" stroke-linecap="round" stroke-linejoin="round" d="M 518.681 118.648 C 518.679 118.650 508.724 121.698 504.310 133.186 C 499.896 144.673 505.250 153.603 505.250 153.605 C 505.251 153.604 515.207 150.556 519.621 139.069 C 524.035 127.581 518.681 118.650 518.681 118.648 M 477.020 126.364 C 477.022 126.365 487.366 125.178 496.005 133.942 C 504.644 142.706 503.308 153.032 503.309 153.034 C 503.307 153.033 492.963 154.221 484.324 145.457 C 475.684 136.692 477.021 126.366 477.020 126.364 M 561.047 232.964 C 566.924 179.567 506.168 161.547 506.162 161.540 C 506.161 161.549 460.456 213.710 492.748 253.027 C 513.711 278.550 557.201 267.900 561.047 232.964 Z"/>
<path id="S21" fill="#000000" fill-rule="evenodd" stroke="none" d="M 604.595 193.022 C 604.595 193.023 608.562 200.485 607.635 207.592 C 610.154 200.580 619.424 200.128 619.426 200.128 C 619.424 200.129 611.299 217.260 601.815 216.811 C 592.486 216.370 586.059 198.894 586.057 198.892 C 586.059 198.893 596.919 200.794 598.466 207.901 C 598.812 200.839 604.595 193.023 604.595 193.022 Z"/>
<path id="S21" fill="none" stroke="#000000" stroke-width="2" stroke-linecap="round" stroke-linejoin="round" d="M 598.466 207.901 C 598.812 200.839 604.595 193.023 604.595 193.022 C 604.595 193.023 608.562 200.485 607.635 207.592 C 610.154 200.580 619.424 200.128 619.426 200.128 C 619.424 200.129 611.299 217.260 601.815 216.811 C 592.486 216.370 586.059 198.894 586.057 198.892 C 586.059 198.893 596.919 200.794 598.466 207.901 M 600.270 251.724 C 600.785 240.292 601.300 228.861 601.815 217.429 "/>
<path id="S5" fill="none" stroke="#000000" stroke-width="2" stroke-linecap="round" stroke-linejoin="round" d="M 314.502 400.502 C 327.888 409.025 338.776 414.857 342.670 415.118 M 287.284 226.406 C 310.129 227.990 440.190 236.612 454.314 237.750 M 286.620 328.738 C 281.831 301.563 280.625 260.457 287.284 226.406 M 314.502 400.502 C 314.499 400.495 291.795 358.000 286.620 328.738 "/>
<path fill="none" stroke="#ffffff" stroke-width="1" stroke-linecap="butt" stroke-linejoin="round" d="M 333.868 159.959 C 333.871 159.957 344.923 145.832 366.122 145.832 "/>
<path fill="none" stroke="#ffffff" stroke-width="1" stroke-linecap="butt" stroke-linejoin="round" d="M 366.122 145.832 C 387.322 145.832 398.374 159.957 398.377 159.959 "/>
<path fill="none" stroke="#ffffff" stroke-width="1" stroke-linecap="butt" stroke-linejoin="round" d="M 398.377 159.959 C 398.374 159.960 387.322 174.087 366.122 174.087 "/>
<path fill="none" stroke="#ffffff" stroke-width="1" stroke-linecap="butt" stroke-linejoin="round" d="M 366.122 174.087 C 344.923 174.087 333.871 159.960 333.868 159.959 "/>
<path id="S3" fill="#ffffff" fill-rule="evenodd" stroke="#000000" stroke-width="2" stroke-linecap="round" stroke-linejoin="round" d="M 376.712 159.355 C 376.712 165.525 371.735 170.502 365.565 170.502 C 359.396 170.502 354.419 165.525 354.418 159.355 C 354.418 153.186 359.396 148.209 365.565 148.209 C 371.735 148.209 376.712 153.186 376.712 159.355 M 333.868 159.959 C 333.871 159.957 344.923 145.832 366.122 145.832 C 387.322 145.832 398.374 159.957 398.377 159.959 C 398.374 159.960 387.322 174.087 366.122 174.087 C 344.923 174.087 333.871 159.960 333.868 159.959 M 417.730 148.948 C 417.138 134.166 363.695 122.911 341.650 132.909 C 323.089 153.514 309.891 170.339 309.888 170.343 C 309.889 170.343 325.767 178.282 325.769 178.283 C 325.769 178.284 323.500 189.626 323.500 189.627 C 323.503 189.627 348.454 191.478 348.456 191.478 C 348.454 191.479 335.656 196.053 326.305 199.239 C 327.072 214.481 342.323 225.055 366.832 226.353 C 393.208 227.750 420.299 213.061 417.730 148.948 Z"/>
<path id="S22" fill="#ffffff" fill-rule="evenodd" stroke="#000000" stroke-width="2" stroke-linecap="round" stroke-linejoin="round" d="M 294.568 39.807 C 298.820 39.807 302.250 43.237 302.250 47.489 C 302.250 51.741 298.820 55.171 294.568 55.171 C 290.316 55.171 286.886 51.741 286.886 47.489 C 286.886 43.237 290.316 39.807 294.568 39.807 Z"/>
<path id="S25" fill="none" stroke="#ffffff" stroke-width="2" stroke-linecap="round" stroke-linejoin="round" d="M 534.085 193.374 C 524.824 183.094 515.562 172.815 506.301 162.536 C 510.575 177.497 514.544 192.458 518.514 207.418 M 498.363 203.144 C 501.009 189.913 503.655 176.683 506.301 163.452 "/>
<path id="S20" fill="#000000" fill-rule="evenodd" stroke="#ffffff" stroke-width="2" stroke-linecap="round" stroke-linejoin="round" d="M 506.014 148.477 C 511.279 148.606 515.422 152.958 515.293 158.222 C 515.163 163.487 510.811 167.630 505.547 167.500 C 500.282 167.371 496.139 163.019 496.269 157.754 C 496.398 152.490 500.750 148.348 506.014 148.477 Z"/>
<path id="S22_2" fill="#ffffff" fill-rule="evenodd" stroke="#000000" stroke-width="2" stroke-linecap="round" stroke-linejoin="round" d="M 403.568 14.160 C 407.820 14.160 411.250 17.590 411.250 21.842 C 411.250 26.094 407.820 29.524 403.568 29.524 C 399.316 29.524 395.886 26.094 395.886 21.842 C 395.886 17.590 399.316 14.160 403.568 14.160 Z"/>
<path id="S22_2_2" fill="#ffffff" fill-rule="evenodd" stroke="#000000" stroke-width="2" stroke-linecap="round" stroke-linejoin="round" d="M 493.638 72.171 C 497.890 72.171 501.320 75.601 501.320 79.853 C 501.320 84.105 497.890 87.535 493.638 87.535 C 489.386 87.535 485.956 84.105 485.956 79.853 C 485.956 75.601 489.386 72.171 493.638 72.171 Z"/>
<path fill="none" stroke="#ffffff" stroke-width="1" stroke-linecap="butt" stroke-linejoin="round" d="M 161.918 518.088 C 172.098 524.847 182.278 531.606 192.458 538.364 "/>
<path fill="none" stroke="#ffffff" stroke-width="1" stroke-linecap="butt" stroke-linejoin="round" d="M 360.385 628.800 C 371.772 627.280 383.955 621.266 393.991 617.352 "/>
<path id="S27" fill="#ffffff" fill-rule="evenodd" stroke="#000000" stroke-width="2" stroke-linecap="round" stroke-linejoin="round" d="M 161.918 518.088 C 172.098 524.847 182.278 531.606 192.458 538.364 C 197.813 533.635 221.416 514.923 246.424 502.198 C 271.577 489.398 320.401 482.041 320.408 482.039 C 320.409 482.046 317.757 510.881 328.248 553.731 C 337.879 593.068 354.086 618.610 360.385 628.800 C 371.772 627.280 383.955 621.266 393.991 617.352 C 387.685 587.674 386.615 545.238 401.812 491.191 C 406.978 472.817 405.421 414.627 399.249 401.417 C 398.574 400.280 366.834 416.738 342.670 415.118 C 338.776 414.857 327.888 409.025 314.502 400.502 C 314.490 400.508 242.935 419.807 202.784 460.204 C 175.593 487.562 166.719 509.229 161.918 518.088 Z"/>
<path fill="none" stroke="#ffffff" stroke-width="1" stroke-linecap="butt" stroke-linejoin="round" d="M 342.670 415.118 C 366.834 416.738 398.574 400.280 399.249 401.417 "/>
<path fill="none" stroke="#ffffff" stroke-width="1" stroke-linecap="butt" stroke-linejoin="round" d="M 422.783 317.566 C 437.880 281.006 444.193 257.124 454.314 237.750 "/>
<path fill="none" stroke="#ffffff" stroke-width="1" stroke-linecap="butt" stroke-linejoin="round" d="M 287.284 226.406 C 280.625 260.457 281.831 301.563 286.620 328.738 "/>
<path fill="none" stroke="#ffffff" stroke-width="1" stroke-linecap="butt" stroke-linejoin="round" d="M 314.502 400.502 C 327.888 409.025 338.776 414.857 342.670 415.118 "/>
<path id="S28" fill="#ffffff" fill-rule="evenodd" stroke="#000000" stroke-width="2" stroke-linecap="round" stroke-linejoin="round" d="M 342.670 415.118 C 366.834 416.738 398.574 400.280 399.249 401.417 C 399.662 393.951 414.217 341.980 422.783 317.566 C 437.880 281.006 444.193 257.124 454.314 237.750 C 440.190 236.612 310.129 227.990 287.284 226.406 C 280.625 260.457 281.831 301.563 286.620 328.738 C 291.795 358.000 314.499 400.495 314.502 400.502 C 327.888 409.025 338.776 414.857 342.670 415.118 Z"/>
<path fill="none" stroke="#ffffff" stroke-width="1" stroke-linecap="butt" stroke-linejoin="round" d="M 314.502 400.502 C 327.888 409.025 338.776 414.857 342.670 415.118 "/>
<path fill="none" stroke="#ffffff" stroke-width="1" stroke-linecap="butt" stroke-linejoin="round" d="M 342.670 415.118 C 366.834 416.738 398.574 400.280 399.249 401.417 "/>
<path id="S29" fill="#ffffff" fill-rule="evenodd" stroke="#000000" stroke-width="2" stroke-linecap="round" stroke-linejoin="round" d="M 314.502 400.502 C 327.888 409.025 338.776 414.857 342.670 415.118 C 366.834 416.738 398.574 400.280 399.249 401.417 C 415.156 428.215 407.934 471.689 407.579 494.370 C 342.140 508.602 272.611 481.717 244.735 420.990 C 270.869 408.679 289.075 401.030 314.502 400.502 Z"/>
<path id="S24" fill="#ffffff" fill-rule="evenodd" stroke="#000000" stroke-width="2" stroke-linecap="round" stroke-linejoin="round" d="M 308.340 388.294 C 337.125 404.028 359.817 410.194 402.495 393.387 C 402.275 400.537 402.238 402.407 403.618 410.745 C 361.411 424.802 334.733 423.991 303.692 400.655 C 302.830 400.006 307.919 392.900 308.340 388.294 Z"/>
<path id="S30" fill="#ffffff" fill-rule="evenodd" stroke="#000000" stroke-width="2" stroke-linecap="round" stroke-linejoin="round" d="M 419.665 137.202 C 434.666 115.066 451.219 98.887 485.715 81.383 C 460.645 76.227 428.699 75.834 406.566 97.521 C 411.477 70.109 413.130 58.015 401.772 29.202 C 377.627 53.101 372.265 69.167 366.649 87.975 C 350.775 66.954 332.596 54.795 300.171 51.654 C 314.140 66.197 326.648 90.199 342.880 123.415 C 354.759 119.700 379.392 121.697 379.395 121.697 C 379.399 121.698 406.620 126.302 419.665 137.202 Z"/>
</g>
<g id="specs_2">
<path fill="#ff00ff" fill-rule="evenodd" stroke="none" d="M 295.760 360.053 C 295.772 360.053 411.559 360.053 411.571 360.053 C 411.571 360.041 411.571 244.254 411.571 244.242 C 411.559 244.242 295.772 244.242 295.760 244.242 C 295.760 244.254 295.760 360.041 295.760 360.053 Z"/>
<path fill="#ff0000" fill-rule="evenodd" stroke="none" d="M 377.737 681.942 C 377.738 681.945 389.804 715.729 389.805 715.732 C 389.804 715.731 377.738 704.505 377.737 704.504 C 377.736 704.505 365.670 715.731 365.669 715.732 C 365.670 715.729 377.736 681.945 377.737 681.942 Z"/>
<path fill="#0000ff" fill-rule="evenodd" stroke="none" d="M 603.680 183.201 C 603.681 183.203 610.689 202.828 610.690 202.829 C 610.689 202.829 603.681 196.308 603.680 196.307 C 603.679 196.308 596.671 202.829 596.670 202.829 C 596.671 202.828 603.679 183.203 603.680 183.201 Z"/>
<path fill="#00ff00" fill-rule="evenodd" stroke="none" d="M 582.348 678.584 C 582.347 678.586 575.239 698.175 575.238 698.177 C 575.239 698.176 582.281 691.690 582.281 691.690 C 582.282 691.690 589.258 698.247 589.258 698.247 C 589.258 698.245 582.348 678.586 582.348 678.584 Z"/>
<path fill="#00ffff" fill-rule="evenodd" stroke="none" d="M 218.062 151.319 C 218.063 151.321 226.314 170.456 226.315 170.458 C 226.315 170.457 226.997 160.908 226.997 160.907 C 226.998 160.907 236.571 160.900 236.572 160.900 C 236.570 160.899 218.064 151.320 218.062 151.319 Z"/>
<path fill="#be0027" fill-rule="evenodd" stroke="none" d="M 377.737 708.993 C 377.738 708.990 389.804 675.206 389.805 675.203 C 389.804 675.204 377.738 686.430 377.737 686.431 C 377.736 686.430 365.670 675.204 365.669 675.203 C 365.670 675.206 377.736 708.990 377.737 708.993 Z"/>
</g>
</g>
</svg>
