<?xml version="1.0" encoding="utf-8"?>
<!-- Generator: Moho 13.5 build 20210422 -->
<!DOCTYPE svg PUBLIC "-//W3C//DTD SVG 1.1//EN" "http://www.w3.org/Graphics/SVG/1.1/DTD/svg11.dtd">
<svg version="1.1" id="Frame_0" xmlns="http://www.w3.org/2000/svg" xmlns:xlink="http://www.w3.org/1999/xlink" width="720px" height="720px">
<g id="fool">
<g id="fool_2">
<path id="S10" fill="#ffffff" fill-rule="evenodd" stroke="#000000" stroke-width="2" stroke-linecap="round" stroke-linejoin="round" d="M 181.854 565.614 C 192.466 569.618 203.078 573.622 213.690 577.626 C 213.694 577.621 224.253 545.827 252.257 523.746 C 275.956 505.060 325.305 497.886 325.312 497.884 C 331.880 456.094 347.024 433.203 348.219 429.024 C 344.212 428.756 333.009 422.755 319.235 413.985 C 319.223 413.992 232.497 433.605 198.137 484.632 C 173.022 521.931 182.512 553.307 181.854 565.614 Z"/>
<path id="S18" fill="#000000" fill-rule="evenodd" stroke="#000000" stroke-width="2" stroke-linecap="round" stroke-linejoin="round" d="M 372.351 151.938 C 394.164 151.938 405.536 166.473 405.539 166.474 C 405.536 166.476 394.164 181.011 372.351 181.011 C 350.537 181.011 339.165 166.476 339.162 166.474 C 339.165 166.473 350.537 151.938 372.351 151.938 Z"/>
<path fill="none" stroke="#ffffff" stroke-width="1" stroke-linecap="butt" stroke-linejoin="round" d="M 348.219 429.024 C 347.024 433.203 331.880 456.094 325.312 497.884 "/>
<path id="S16" fill="#ffffff" fill-rule="evenodd" stroke="#000000" stroke-width="2" stroke-linecap="round" stroke-linejoin="round" d="M 422.035 632.423 C 435.701 626.711 439.977 620.588 448.948 614.670 C 448.944 614.664 416.003 581.325 408.388 555.153 C 394.385 507.022 412.710 464.789 406.437 414.927 C 405.782 413.733 373.083 430.691 348.219 429.024 C 347.024 433.203 331.880 456.094 325.312 497.884 C 325.313 497.890 317.795 528.445 332.386 558.143 C 362.367 608.316 396.118 617.008 422.035 632.423 Z"/>
<path id="S1" fill="#000000" fill-rule="evenodd" stroke="#000000" stroke-width="2" stroke-linecap="round" stroke-linejoin="round" d="M 72.927 297.255 C 72.975 297.241 553.012 157.340 553.060 157.326 C 553.060 157.325 550.206 150.614 550.206 150.613 C 550.158 150.627 70.121 290.528 70.073 290.542 C 70.073 290.543 72.926 297.254 72.927 297.255 Z"/>
<path id="S2" fill="#ffffff" fill-rule="evenodd" stroke="#000000" stroke-width="2" stroke-linecap="round" stroke-linejoin="round" d="M 386.008 127.104 C 393.683 95.379 401.358 63.655 409.033 31.930 C 384.189 56.522 378.671 73.053 372.892 92.405 C 356.559 70.776 337.853 58.264 304.489 55.032 C 318.863 69.996 331.732 94.694 348.435 128.872 C 360.658 125.049 386.004 127.104 386.008 127.104 Z"/>
<path id="S4" fill="#ffffff" fill-rule="evenodd" stroke="#000000" stroke-width="2" stroke-linecap="round" stroke-linejoin="round" d="M 593.871 275.914 C 596.355 279.558 598.840 283.202 601.324 286.846 C 631.411 293.236 625.206 268.358 649.927 263.627 C 650.710 263.477 637.567 260.561 626.569 266.991 C 633.728 252.589 623.198 251.878 616.234 243.130 C 616.596 255.465 632.100 259.381 612.016 269.177 C 594.368 256.990 608.811 255.771 612.360 243.272 C 600.188 252.437 593.774 255.186 593.871 275.914 Z"/>
<path id="S6" fill="#ffffff" fill-rule="evenodd" stroke="#000000" stroke-width="2" stroke-linecap="round" stroke-linejoin="round" d="M 119.349 301.408 C 123.685 300.042 128.022 298.676 132.358 297.309 C 132.358 297.306 133.821 266.200 133.821 266.197 C 133.818 266.198 100.397 275.286 100.393 275.286 C 100.395 275.289 119.347 301.406 119.349 301.408 Z"/>
<path fill="none" stroke="#ffffff" stroke-width="1" stroke-linecap="butt" stroke-linejoin="round" d="M 593.871 275.914 C 596.355 279.558 598.840 283.202 601.324 286.846 "/>
<path id="S7" fill="#ffffff" fill-rule="evenodd" stroke="#000000" stroke-width="2" stroke-linecap="round" stroke-linejoin="round" d="M 430.653 328.646 C 446.186 291.028 452.683 266.454 463.097 246.518 C 465.122 246.681 475.807 302.518 525.565 311.062 C 561.344 317.206 592.587 279.899 593.871 275.914 C 596.355 279.558 598.840 283.202 601.324 286.846 C 601.114 290.438 581.888 382.098 517.206 381.421 C 458.115 380.802 432.902 336.367 430.653 328.646 Z"/>
<path fill="none" stroke="#ffffff" stroke-width="1" stroke-linecap="butt" stroke-linejoin="round" d="M 348.219 429.024 C 373.083 430.691 405.782 413.733 406.437 414.927 "/>
<path id="S8" fill="#ffffff" fill-rule="evenodd" stroke="#000000" stroke-width="2" stroke-linecap="round" stroke-linejoin="round" d="M 319.775 506.080 C 322.167 479.395 337.657 442.096 348.219 429.024 C 373.083 430.691 405.782 413.733 406.437 414.927 C 422.048 443.371 409.324 488.550 407.414 512.090 C 365.105 520.000 319.783 506.080 319.775 506.080 Z"/>
<path fill="none" stroke="#ffffff" stroke-width="1" stroke-linecap="butt" stroke-linejoin="round" d="M 422.035 632.423 C 435.701 626.711 439.977 620.588 448.948 614.670 "/>
<path id="S9" fill="#ffffff" fill-rule="evenodd" stroke="#000000" stroke-width="2" stroke-linecap="round" stroke-linejoin="round" d="M 422.035 632.423 C 435.701 626.711 439.977 620.588 448.948 614.670 C 448.952 614.678 478.067 650.586 485.170 688.897 C 468.021 689.500 398.697 688.623 393.117 689.212 C 419.905 672.570 446.923 671.477 457.864 669.921 C 450.857 655.365 436.625 641.102 422.035 632.423 Z"/>
<path fill="none" stroke="#ffffff" stroke-width="1" stroke-linecap="butt" stroke-linejoin="round" d="M 386.008 127.104 C 393.683 95.379 401.358 63.655 409.033 31.930 "/>
<path id="S11" fill="#ffffff" fill-rule="evenodd" stroke="#000000" stroke-width="2" stroke-linecap="round" stroke-linejoin="round" d="M 386.008 127.104 C 393.683 95.379 401.358 63.655 409.033 31.930 C 420.720 61.577 419.019 74.022 413.965 102.228 C 436.740 79.912 469.611 80.317 495.407 85.622 C 459.912 103.633 442.880 120.281 427.444 143.058 C 414.021 131.843 386.012 127.106 386.008 127.104 Z"/>
<path fill="none" stroke="#ffffff" stroke-width="1" stroke-linecap="butt" stroke-linejoin="round" d="M 348.219 429.024 C 373.083 430.691 405.782 413.733 406.437 414.927 "/>
<path fill="none" stroke="#ffffff" stroke-width="1" stroke-linecap="butt" stroke-linejoin="round" d="M 430.653 328.646 C 446.186 291.028 452.683 266.454 463.097 246.518 "/>
<path id="S13" fill="#ffffff" fill-rule="evenodd" stroke="#000000" stroke-width="2" stroke-linecap="round" stroke-linejoin="round" d="M 348.219 429.024 C 373.083 430.691 405.782 413.733 406.437 414.927 C 406.963 407.250 421.839 353.768 430.653 328.646 C 446.186 291.028 452.683 266.454 463.097 246.518 C 448.564 245.348 368.835 240.735 368.825 240.735 C 334.919 325.192 351.646 417.041 348.219 429.024 Z"/>
<path fill="none" stroke="#ffffff" stroke-width="1" stroke-linecap="butt" stroke-linejoin="round" d="M 132.358 297.309 C 128.022 298.676 123.685 300.042 119.349 301.408 "/>
<path id="S14" fill="#ffffff" fill-rule="evenodd" stroke="#000000" stroke-width="2" stroke-linecap="round" stroke-linejoin="round" d="M 290.546 340.142 C 285.617 312.180 284.376 269.884 291.228 234.846 C 288.535 234.659 257.486 301.643 206.609 313.362 C 165.388 322.856 132.365 297.311 132.358 297.309 C 128.022 298.676 123.685 300.042 119.349 301.408 C 119.356 301.416 143.040 363.807 196.748 372.958 C 254.871 382.861 288.695 343.844 290.546 340.142 Z"/>
<path fill="none" stroke="#ffffff" stroke-width="1" stroke-linecap="butt" stroke-linejoin="round" d="M 319.775 506.080 C 322.167 479.395 337.657 442.096 348.219 429.024 "/>
<path fill="none" stroke="#ffffff" stroke-width="1" stroke-linecap="butt" stroke-linejoin="round" d="M 348.219 429.024 C 344.212 428.756 333.009 422.755 319.235 413.985 "/>
<path id="S15" fill="#ffffff" fill-rule="evenodd" stroke="#000000" stroke-width="2" stroke-linecap="round" stroke-linejoin="round" d="M 319.775 506.080 C 322.167 479.395 337.657 442.096 348.219 429.024 C 344.212 428.756 333.009 422.755 319.235 413.985 C 293.071 414.528 274.306 422.329 247.448 435.066 C 265.512 493.397 319.767 506.072 319.775 506.080 Z"/>
<path fill="none" stroke="#ffffff" stroke-width="1" stroke-linecap="butt" stroke-linejoin="round" d="M 181.854 565.614 C 192.466 569.618 203.078 573.622 213.690 577.626 "/>
<path id="S17" fill="#ffffff" fill-rule="evenodd" stroke="#000000" stroke-width="2" stroke-linecap="round" stroke-linejoin="round" d="M 181.854 565.614 C 192.466 569.618 203.078 573.622 213.690 577.626 C 213.687 577.635 202.688 618.266 181.047 663.373 C 154.832 656.016 111.296 638.684 101.195 632.992 C 110.128 626.733 155.302 634.015 168.044 630.675 C 180.034 604.747 181.079 580.076 181.854 565.614 Z"/>
<path id="S19" fill="#ffffff" fill-rule="evenodd" stroke="#000000" stroke-width="2" stroke-linecap="round" stroke-linejoin="round" d="M 529.328 123.967 C 529.326 123.969 519.082 127.105 514.541 138.926 C 509.999 150.746 515.508 159.935 515.508 159.937 C 515.510 159.935 525.754 156.799 530.295 144.979 C 534.837 133.158 529.328 123.969 529.328 123.967 M 486.460 131.907 C 486.462 131.908 497.106 130.686 505.995 139.704 C 514.885 148.722 513.510 159.346 513.511 159.348 C 513.509 159.348 502.865 160.570 493.976 151.552 C 485.086 142.534 486.461 131.909 486.460 131.907 M 572.921 241.594 C 578.969 186.650 516.453 168.109 516.447 168.102 C 516.446 168.111 469.417 221.782 502.644 262.238 C 524.214 288.500 568.964 277.542 572.921 241.594 Z"/>
<path id="S21" fill="#000000" fill-rule="evenodd" stroke="none" d="M 617.731 200.495 C 617.731 200.496 621.812 208.174 620.859 215.487 C 623.451 208.272 632.990 207.807 632.991 207.807 C 632.989 207.808 624.628 225.435 614.870 224.974 C 605.271 224.519 598.658 206.537 598.656 206.535 C 598.658 206.536 609.833 208.492 611.424 215.805 C 611.780 208.538 617.730 200.496 617.731 200.495 Z"/>
<path id="S21" fill="none" stroke="#000000" stroke-width="2" stroke-linecap="round" stroke-linejoin="round" d="M 611.424 215.805 C 611.780 208.538 617.730 200.496 617.731 200.495 C 617.731 200.496 621.812 208.174 620.859 215.487 C 623.451 208.272 632.990 207.807 632.991 207.807 C 632.989 207.808 624.628 225.435 614.870 224.974 C 605.271 224.519 598.658 206.537 598.656 206.535 C 598.658 206.536 609.833 208.492 611.424 215.805 M 613.280 260.897 C 613.810 249.134 614.340 237.372 614.870 225.609 "/>
<path fill="none" stroke="#ffffff" stroke-width="1" stroke-linecap="butt" stroke-linejoin="round" d="M 319.235 413.985 C 333.009 422.755 344.212 428.756 348.219 429.024 "/>
<path fill="none" stroke="#ffffff" stroke-width="1" stroke-linecap="butt" stroke-linejoin="round" d="M 348.219 429.024 C 351.646 417.041 334.919 325.192 368.825 240.735 "/>
<path fill="none" stroke="#ffffff" stroke-width="1" stroke-linecap="butt" stroke-linejoin="round" d="M 291.228 234.846 C 284.376 269.884 285.617 312.180 290.546 340.142 "/>
<path id="S5" fill="#ffffff" fill-rule="evenodd" stroke="#000000" stroke-width="2" stroke-linecap="round" stroke-linejoin="round" d="M 319.235 413.985 C 333.009 422.755 344.212 428.756 348.219 429.024 C 351.646 417.041 334.919 325.192 368.825 240.735 C 368.818 240.734 314.736 236.476 291.228 234.846 C 284.376 269.884 285.617 312.180 290.546 340.142 C 295.870 370.252 319.232 413.977 319.235 413.985 Z"/>
<path fill="none" stroke="#ffffff" stroke-width="1" stroke-linecap="butt" stroke-linejoin="round" d="M 339.162 166.474 C 339.165 166.473 350.537 151.938 372.351 151.938 "/>
<path fill="none" stroke="#ffffff" stroke-width="1" stroke-linecap="butt" stroke-linejoin="round" d="M 372.351 151.938 C 394.164 151.938 405.536 166.473 405.539 166.474 "/>
<path fill="none" stroke="#ffffff" stroke-width="1" stroke-linecap="butt" stroke-linejoin="round" d="M 405.539 166.474 C 405.536 166.476 394.164 181.011 372.351 181.011 "/>
<path fill="none" stroke="#ffffff" stroke-width="1" stroke-linecap="butt" stroke-linejoin="round" d="M 372.351 181.011 C 350.537 181.011 339.165 166.476 339.162 166.474 "/>
<path id="S3" fill="#ffffff" fill-rule="evenodd" stroke="#000000" stroke-width="2" stroke-linecap="round" stroke-linejoin="round" d="M 383.247 165.853 C 383.247 172.202 378.126 177.323 371.777 177.323 C 365.429 177.323 360.308 172.202 360.308 165.853 C 360.308 159.505 365.429 154.384 371.777 154.384 C 378.126 154.384 383.247 159.505 383.247 165.853 M 339.162 166.474 C 339.165 166.473 350.537 151.938 372.351 151.938 C 394.164 151.938 405.536 166.473 405.539 166.474 C 405.536 166.476 394.164 181.011 372.351 181.011 C 350.537 181.011 339.165 166.476 339.162 166.474 M 425.453 155.145 C 424.844 139.934 369.854 128.353 347.169 138.641 C 328.071 159.843 314.491 177.155 314.487 177.159 C 314.489 177.160 330.827 185.328 330.828 185.329 C 330.828 185.330 328.494 197.000 328.494 197.002 C 328.496 197.002 354.170 198.906 354.173 198.906 C 354.171 198.907 341.002 203.614 331.380 206.892 C 332.169 222.576 347.862 233.456 373.081 234.791 C 400.221 236.229 428.096 221.114 425.453 155.145 Z"/>
<path id="S22" fill="#ffffff" fill-rule="evenodd" stroke="#000000" stroke-width="2" stroke-linecap="round" stroke-linejoin="round" d="M 298.724 42.842 C 303.099 42.842 306.628 46.372 306.628 50.747 C 306.628 55.122 303.099 58.651 298.724 58.651 C 294.349 58.651 290.820 55.122 290.820 50.747 C 290.819 46.372 294.349 42.842 298.724 42.842 Z"/>
<path id="S24" fill="#ffffff" fill-rule="evenodd" stroke="#000000" stroke-width="2" stroke-linecap="round" stroke-linejoin="round" d="M 312.895 401.424 C 342.514 417.613 365.863 423.958 409.777 406.664 C 409.550 414.021 409.513 415.945 410.932 424.524 C 367.503 438.989 340.052 438.154 308.112 414.142 C 307.225 413.475 312.461 406.163 312.895 401.424 Z"/>
<path id="S25" fill="none" stroke="#000000" stroke-width="2" stroke-linecap="round" stroke-linejoin="round" d="M 545.179 200.857 C 535.649 190.280 526.119 179.703 516.590 169.126 C 520.988 184.520 525.072 199.914 529.156 215.308 M 508.422 210.910 C 511.144 197.296 513.867 183.682 516.590 170.069 "/>
<path id="S20" fill="#ffffff" fill-rule="evenodd" stroke="#000000" stroke-width="2" stroke-linecap="round" stroke-linejoin="round" d="M 516.295 154.660 C 521.712 154.793 525.975 159.270 525.842 164.687 C 525.708 170.105 521.231 174.367 515.813 174.234 C 510.396 174.101 506.133 169.623 506.267 164.206 C 506.400 158.789 510.878 154.527 516.295 154.660 Z"/>
<path id="S22_2" fill="#ffffff" fill-rule="evenodd" stroke="#000000" stroke-width="2" stroke-linecap="round" stroke-linejoin="round" d="M 410.881 16.452 C 415.256 16.452 418.785 19.982 418.785 24.357 C 418.785 28.732 415.256 32.261 410.881 32.261 C 406.506 32.261 402.977 28.732 402.976 24.357 C 402.976 19.982 406.506 16.452 410.881 16.452 Z"/>
<path id="S22_2_2" fill="#ffffff" fill-rule="evenodd" stroke="#000000" stroke-width="2" stroke-linecap="round" stroke-linejoin="round" d="M 503.560 76.144 C 507.935 76.144 511.464 79.673 511.464 84.048 C 511.464 88.423 507.935 91.952 503.560 91.953 C 499.185 91.953 495.656 88.423 495.656 84.048 C 495.656 79.673 499.185 76.144 503.560 76.144 Z"/>
</g>
<g id="specs_2">
<path fill="#ff00ff" fill-rule="evenodd" stroke="none" d="M 496.953 267.080 C 496.960 267.080 566.973 267.080 566.980 267.080 C 566.980 267.073 566.980 197.060 566.980 197.053 C 566.973 197.053 496.960 197.053 496.953 197.053 C 496.953 197.060 496.953 267.073 496.953 267.080 Z"/>
<path fill="#ff0000" fill-rule="evenodd" stroke="none" d="M 446.017 665.403 C 446.019 665.407 458.434 700.169 458.435 700.173 C 458.434 700.172 446.019 688.620 446.017 688.619 C 446.016 688.620 433.601 700.172 433.600 700.173 C 433.601 700.169 446.016 665.407 446.017 665.403 Z"/>
<path fill="#0000ff" fill-rule="evenodd" stroke="none" d="M 360.000 11.029 C 360.001 11.031 367.212 31.224 367.213 31.226 C 367.212 31.226 360.001 24.516 360.000 24.515 C 359.999 24.516 352.788 31.226 352.787 31.226 C 352.788 31.224 359.999 11.031 360.000 11.029 Z"/>
<path fill="#00ff00" fill-rule="evenodd" stroke="none" d="M 18.822 353.834 C 18.824 353.833 38.981 346.519 38.983 346.519 C 38.982 346.519 32.308 353.765 32.308 353.766 C 32.308 353.767 39.055 360.944 39.055 360.945 C 39.053 360.944 18.824 353.835 18.822 353.834 Z"/>
<path fill="#ffff00" fill-rule="evenodd" stroke="none" d="M 118.004 596.028 C 118.005 596.026 126.954 576.541 126.955 576.539 C 126.955 576.540 127.426 586.379 127.426 586.380 C 127.427 586.380 137.274 586.619 137.275 586.619 C 137.273 586.620 118.006 596.027 118.004 596.028 Z"/>
<path fill="#ffff00" fill-rule="evenodd" stroke="none" d="M 601.996 595.789 C 601.995 595.788 592.657 576.486 592.656 576.484 C 592.656 576.485 592.383 586.332 592.383 586.333 C 592.382 586.333 582.540 586.769 582.539 586.769 C 582.541 586.770 601.994 595.789 601.996 595.789 Z"/>
<path fill="#00ff00" fill-rule="evenodd" stroke="none" d="M 701.178 353.834 C 701.176 353.833 681.019 346.519 681.017 346.519 C 681.018 346.519 687.692 353.765 687.692 353.766 C 687.692 353.767 680.945 360.944 680.945 360.945 C 680.947 360.944 701.176 353.835 701.178 353.834 Z"/>
<path fill="#00ffff" fill-rule="evenodd" stroke="none" d="M 601.061 110.849 C 601.060 110.851 593.902 131.063 593.901 131.065 C 593.901 131.064 592.546 121.307 592.546 121.306 C 592.545 121.306 582.716 121.955 582.715 121.955 C 582.717 121.954 601.059 110.850 601.061 110.849 Z"/>
<path fill="#00ffff" fill-rule="evenodd" stroke="none" d="M 119.051 111.519 C 119.051 111.521 127.541 131.211 127.542 131.213 C 127.542 131.212 128.244 121.386 128.244 121.385 C 128.245 121.385 138.095 121.377 138.096 121.377 C 138.094 121.376 119.052 111.520 119.051 111.519 Z"/>
<path fill="#be0027" fill-rule="evenodd" stroke="none" d="M 446.017 714.743 C 446.019 714.740 458.434 679.977 458.435 679.974 C 458.434 679.975 446.019 691.526 446.017 691.527 C 446.016 691.526 433.601 679.975 433.600 679.974 C 433.601 679.977 446.016 714.740 446.017 714.743 Z"/>
</g>
</g>
</svg>
