<?xml version="1.0" encoding="utf-8"?>
<!-- Generator: Moho 13.5.1 build 20210623 -->
<!DOCTYPE svg PUBLIC "-//W3C//DTD SVG 1.1//EN" "http://www.w3.org/Graphics/SVG/1.1/DTD/svg11.dtd">
<svg version="1.1" id="Frame_0" xmlns="http://www.w3.org/2000/svg" xmlns:xlink="http://www.w3.org/1999/xlink" width="720px" height="720px">
<g id="fool_2">
<g id="fool_2">
<path id="S18" fill="#000000" fill-rule="evenodd" stroke="#000000" stroke-width="2" stroke-linecap="round" stroke-linejoin="round" d="M 366.122 145.832 C 387.322 145.832 398.374 159.957 398.377 159.959 C 398.374 159.960 387.322 174.086 366.122 174.086 C 344.923 174.086 333.871 159.960 333.868 159.959 C 333.871 159.957 344.923 145.832 366.122 145.832 Z"/>
<path id="S1" fill="#000000" fill-rule="evenodd" stroke="#ffffff" stroke-width="2" stroke-linecap="round" stroke-linejoin="round" d="M 75.127 287.058 C 75.174 287.044 541.698 151.082 541.745 151.068 C 541.745 151.067 538.971 144.545 538.971 144.544 C 538.924 144.558 72.400 280.520 72.353 280.534 C 72.354 280.535 75.127 287.057 75.127 287.058 Z"/>
<path id="S4" fill="#ffffff" fill-rule="evenodd" stroke="#000000" stroke-width="2" stroke-linecap="round" stroke-linejoin="round" d="M 581.407 266.318 C 583.821 269.859 586.236 273.401 588.650 276.943 C 617.890 283.152 611.859 258.975 635.885 254.377 C 636.646 254.231 623.873 251.397 613.184 257.646 C 620.142 243.649 609.909 242.958 603.140 234.457 C 603.492 246.444 618.559 250.250 599.041 259.770 C 581.890 247.926 595.926 246.741 599.375 234.595 C 587.546 243.502 581.313 246.174 581.407 266.318 Z"/>
<path id="S6" fill="#ffffff" fill-rule="evenodd" stroke="#000000" stroke-width="2" stroke-linecap="round" stroke-linejoin="round" d="M 120.242 291.095 C 124.457 289.767 128.671 288.439 132.885 287.111 C 132.886 287.108 134.307 256.878 134.307 256.875 C 134.304 256.875 101.824 265.707 101.821 265.708 C 101.822 265.711 120.241 291.092 120.242 291.095 Z"/>
<path fill="none" stroke="#ffffff" stroke-width="1" stroke-linecap="butt" stroke-linejoin="round" d="M 581.407 266.318 C 583.821 269.859 586.236 273.401 588.650 276.943 "/>
<path id="S7" fill="#ffffff" fill-rule="evenodd" stroke="#000000" stroke-width="2" stroke-linecap="round" stroke-linejoin="round" d="M 422.783 317.565 C 437.880 281.006 444.193 257.124 454.314 237.749 C 456.282 237.908 466.666 292.173 515.023 300.477 C 549.796 306.447 580.159 270.191 581.407 266.318 C 583.821 269.859 586.236 273.401 588.650 276.943 C 588.446 280.433 569.761 369.513 506.900 368.854 C 449.473 368.253 424.969 325.069 422.783 317.565 Z"/>
<path id="S8" fill="none" stroke="#000000" stroke-width="2" stroke-linecap="round" stroke-linejoin="round" d="M 407.579 494.370 C 342.140 508.602 272.611 481.716 244.736 420.990 M 399.249 401.417 C 415.156 428.215 407.934 471.689 407.579 494.370 M 342.670 415.118 C 366.834 416.738 398.574 400.279 399.249 401.417 "/>
<path id="S9" fill="#ffffff" fill-rule="evenodd" stroke="#000000" stroke-width="2" stroke-linecap="round" stroke-linejoin="round" d="M 360.385 628.800 C 371.772 627.280 383.955 621.266 393.991 617.352 C 397.900 635.751 413.772 664.505 427.732 689.924 C 411.062 690.356 343.714 689.899 338.271 690.231 C 362.287 676.746 384.161 674.993 394.528 672.435 C 384.245 660.511 370.174 644.634 360.385 628.800 Z"/>
<path id="S13" fill="none" stroke="#000000" stroke-width="2" stroke-linecap="round" stroke-linejoin="round" d="M 342.670 415.118 C 366.834 416.738 398.574 400.279 399.249 401.417 C 399.662 393.951 414.217 341.980 422.783 317.565 C 437.880 281.006 444.193 257.124 454.314 237.749 "/>
<path fill="none" stroke="#ffffff" stroke-width="1" stroke-linecap="butt" stroke-linejoin="round" d="M 132.885 287.111 C 128.671 288.439 124.457 289.767 120.242 291.095 "/>
<path id="S14" fill="#ffffff" fill-rule="evenodd" stroke="#000000" stroke-width="2" stroke-linecap="round" stroke-linejoin="round" d="M 286.620 328.738 C 281.831 301.563 280.625 260.457 287.284 226.406 C 284.666 226.224 254.491 291.323 205.046 302.711 C 164.986 311.938 132.893 287.112 132.885 287.111 C 128.671 288.439 124.457 289.767 120.242 291.095 C 120.250 291.102 143.267 351.737 195.463 360.630 C 251.950 370.254 284.821 332.336 286.620 328.738 Z"/>
<path id="S15" fill="none" stroke="#000000" stroke-width="2" stroke-linecap="round" stroke-linejoin="round" d="M 244.736 420.990 C 270.869 408.679 289.075 401.030 314.502 400.502 C 327.888 409.025 338.776 414.857 342.670 415.118 "/>
<path id="S17" fill="#ffffff" fill-rule="evenodd" stroke="#000000" stroke-width="2" stroke-linecap="round" stroke-linejoin="round" d="M 161.918 518.088 C 172.098 524.847 182.278 531.606 192.458 538.364 C 185.506 544.503 164.345 566.398 139.950 610.524 C 116.967 597.409 79.227 572.006 70.892 564.423 C 80.713 560.432 121.928 577.128 134.723 576.727 C 147.896 549.051 155.211 530.463 161.918 518.088 Z"/>
<path id="S19" fill="#000000" fill-rule="evenodd" stroke="#ffffff" stroke-width="2" stroke-linecap="round" stroke-linejoin="round" d="M 518.681 118.648 C 518.679 118.650 508.724 121.698 504.310 133.186 C 499.896 144.673 505.250 153.603 505.250 153.605 C 505.251 153.604 515.207 150.556 519.621 139.069 C 524.035 127.581 518.681 118.650 518.681 118.648 M 477.020 126.364 C 477.022 126.365 487.366 125.178 496.005 133.942 C 504.644 142.706 503.308 153.032 503.309 153.034 C 503.307 153.033 492.963 154.221 484.324 145.457 C 475.684 136.692 477.021 126.366 477.020 126.364 M 561.047 232.964 C 566.924 179.566 506.168 161.547 506.162 161.540 C 506.161 161.549 460.456 213.710 492.748 253.027 C 513.711 278.550 557.201 267.900 561.047 232.964 Z"/>
<path id="S21" fill="#000000" fill-rule="evenodd" stroke="none" d="M 604.595 193.022 C 604.596 193.023 608.562 200.485 607.635 207.592 C 610.154 200.580 619.424 200.128 619.426 200.128 C 619.424 200.129 611.299 217.260 601.815 216.811 C 592.486 216.370 586.059 198.894 586.057 198.892 C 586.059 198.893 596.919 200.794 598.466 207.901 C 598.812 200.839 604.595 193.023 604.595 193.022 Z"/>
<path id="S21" fill="none" stroke="#000000" stroke-width="2" stroke-linecap="round" stroke-linejoin="round" d="M 598.466 207.901 C 598.812 200.839 604.595 193.023 604.595 193.022 C 604.596 193.023 608.562 200.485 607.635 207.592 C 610.154 200.580 619.424 200.128 619.426 200.128 C 619.424 200.129 611.299 217.260 601.815 216.811 C 592.486 216.370 586.059 198.894 586.057 198.892 C 586.059 198.893 596.919 200.794 598.466 207.901 M 600.270 251.723 C 600.785 240.292 601.300 228.861 601.815 217.429 "/>
<path id="S5" fill="none" stroke="#000000" stroke-width="2" stroke-linecap="round" stroke-linejoin="round" d="M 314.502 400.502 C 327.888 409.025 338.776 414.857 342.670 415.118 M 287.284 226.406 C 310.129 227.990 440.190 236.612 454.314 237.749 M 286.620 328.738 C 281.831 301.563 280.625 260.457 287.284 226.406 M 314.502 400.502 C 314.499 400.495 291.795 358.000 286.620 328.738 "/>
<path fill="none" stroke="#ffffff" stroke-width="1" stroke-linecap="butt" stroke-linejoin="round" d="M 333.868 159.959 C 333.871 159.957 344.923 145.832 366.122 145.832 "/>
<path fill="none" stroke="#ffffff" stroke-width="1" stroke-linecap="butt" stroke-linejoin="round" d="M 366.122 145.832 C 387.322 145.832 398.374 159.957 398.377 159.959 "/>
<path fill="none" stroke="#ffffff" stroke-width="1" stroke-linecap="butt" stroke-linejoin="round" d="M 398.377 159.959 C 398.374 159.960 387.322 174.086 366.122 174.086 "/>
<path fill="none" stroke="#ffffff" stroke-width="1" stroke-linecap="butt" stroke-linejoin="round" d="M 366.122 174.086 C 344.923 174.086 333.871 159.960 333.868 159.959 "/>
<path id="S3" fill="#ffffff" fill-rule="evenodd" stroke="#000000" stroke-width="2" stroke-linecap="round" stroke-linejoin="round" d="M 376.712 159.355 C 376.712 165.525 371.735 170.502 365.565 170.502 C 359.396 170.502 354.419 165.525 354.419 159.355 C 354.419 153.186 359.396 148.209 365.565 148.209 C 371.735 148.209 376.712 153.186 376.712 159.355 M 333.868 159.959 C 333.871 159.957 344.923 145.832 366.122 145.832 C 387.322 145.832 398.374 159.957 398.377 159.959 C 398.374 159.960 387.322 174.086 366.122 174.086 C 344.923 174.086 333.871 159.960 333.868 159.959 M 417.730 148.948 C 417.138 134.166 363.696 122.911 341.650 132.909 C 323.089 153.514 309.891 170.339 309.888 170.343 C 309.890 170.343 325.768 178.282 325.769 178.283 C 325.769 178.284 323.500 189.626 323.500 189.627 C 323.503 189.627 348.454 191.478 348.456 191.478 C 348.454 191.479 335.656 196.053 326.305 199.239 C 327.072 214.481 342.323 225.055 366.832 226.353 C 393.208 227.750 420.299 213.061 417.730 148.948 Z"/>
<path id="S22" fill="#ffffff" fill-rule="evenodd" stroke="#000000" stroke-width="2" stroke-linecap="round" stroke-linejoin="round" d="M 294.568 39.807 C 298.820 39.807 302.250 43.237 302.250 47.489 C 302.250 51.741 298.820 55.171 294.568 55.171 C 290.316 55.171 286.886 51.741 286.886 47.489 C 286.886 43.237 290.316 39.807 294.568 39.807 Z"/>
<path id="S25" fill="none" stroke="#ffffff" stroke-width="2" stroke-linecap="round" stroke-linejoin="round" d="M 534.085 193.374 C 524.824 183.094 515.562 172.815 506.301 162.536 C 510.575 177.497 514.545 192.457 518.514 207.418 M 498.363 203.144 C 501.009 189.913 503.655 176.683 506.301 163.452 "/>
<path id="S20" fill="#000000" fill-rule="evenodd" stroke="#ffffff" stroke-width="2" stroke-linecap="round" stroke-linejoin="round" d="M 506.014 148.477 C 511.279 148.606 515.422 152.958 515.293 158.222 C 515.163 163.487 510.812 167.630 505.547 167.500 C 500.282 167.371 496.139 163.019 496.269 157.754 C 496.398 152.490 500.750 148.348 506.014 148.477 Z"/>
<path id="S22_2" fill="#ffffff" fill-rule="evenodd" stroke="#000000" stroke-width="2" stroke-linecap="round" stroke-linejoin="round" d="M 403.568 14.160 C 407.820 14.160 411.250 17.590 411.250 21.842 C 411.250 26.094 407.820 29.524 403.568 29.524 C 399.316 29.524 395.886 26.094 395.886 21.842 C 395.886 17.590 399.316 14.160 403.568 14.160 Z"/>
<path id="S22_2_2" fill="#ffffff" fill-rule="evenodd" stroke="#000000" stroke-width="2" stroke-linecap="round" stroke-linejoin="round" d="M 493.638 72.171 C 497.890 72.171 501.320 75.601 501.320 79.853 C 501.320 84.105 497.890 87.535 493.638 87.535 C 489.386 87.535 485.956 84.105 485.956 79.853 C 485.956 75.601 489.386 72.171 493.638 72.171 Z"/>
<path fill="none" stroke="#ffffff" stroke-width="1" stroke-linecap="butt" stroke-linejoin="round" d="M 161.918 518.088 C 172.098 524.847 182.278 531.606 192.458 538.364 "/>
<path fill="none" stroke="#ffffff" stroke-width="1" stroke-linecap="butt" stroke-linejoin="round" d="M 360.385 628.800 C 371.772 627.280 383.955 621.266 393.991 617.352 "/>
<path id="S27" fill="#ffffff" fill-rule="evenodd" stroke="#000000" stroke-width="2" stroke-linecap="round" stroke-linejoin="round" d="M 161.918 518.088 C 172.098 524.847 182.278 531.606 192.458 538.364 C 197.813 533.635 221.417 514.923 246.424 502.197 C 271.577 489.398 320.401 482.041 320.408 482.039 C 320.409 482.046 317.758 510.881 328.249 553.731 C 337.880 593.068 354.086 618.610 360.385 628.800 C 371.772 627.280 383.955 621.266 393.991 617.352 C 387.686 587.674 386.614 545.238 401.812 491.191 C 406.978 472.817 405.421 414.627 399.249 401.417 C 398.574 400.279 366.834 416.738 342.670 415.118 C 338.776 414.857 327.888 409.025 314.502 400.502 C 314.490 400.508 242.935 419.807 202.784 460.204 C 175.593 487.562 166.719 509.229 161.918 518.088 Z"/>
<path fill="none" stroke="#ffffff" stroke-width="1" stroke-linecap="butt" stroke-linejoin="round" d="M 342.670 415.118 C 366.834 416.738 398.574 400.279 399.249 401.417 "/>
<path fill="none" stroke="#ffffff" stroke-width="1" stroke-linecap="butt" stroke-linejoin="round" d="M 422.783 317.565 C 437.880 281.006 444.193 257.124 454.314 237.749 "/>
<path fill="none" stroke="#ffffff" stroke-width="1" stroke-linecap="butt" stroke-linejoin="round" d="M 287.284 226.406 C 280.625 260.457 281.831 301.563 286.620 328.738 "/>
<path fill="none" stroke="#ffffff" stroke-width="1" stroke-linecap="butt" stroke-linejoin="round" d="M 314.502 400.502 C 327.888 409.025 338.776 414.857 342.670 415.118 "/>
<path id="S28" fill="#ffffff" fill-rule="evenodd" stroke="#000000" stroke-width="2" stroke-linecap="round" stroke-linejoin="round" d="M 342.670 415.118 C 366.834 416.738 398.574 400.279 399.249 401.417 C 399.662 393.951 414.217 341.980 422.783 317.565 C 437.880 281.006 444.193 257.124 454.314 237.749 C 440.190 236.612 310.129 227.990 287.284 226.406 C 280.625 260.457 281.831 301.563 286.620 328.738 C 291.795 358.000 314.499 400.495 314.502 400.502 C 327.888 409.025 338.776 414.857 342.670 415.118 Z"/>
<path fill="none" stroke="#ffffff" stroke-width="1" stroke-linecap="butt" stroke-linejoin="round" d="M 314.502 400.502 C 327.888 409.025 338.776 414.857 342.670 415.118 "/>
<path fill="none" stroke="#ffffff" stroke-width="1" stroke-linecap="butt" stroke-linejoin="round" d="M 342.670 415.118 C 366.834 416.738 398.574 400.279 399.249 401.417 "/>
<path id="S29" fill="#ffffff" fill-rule="evenodd" stroke="#000000" stroke-width="2" stroke-linecap="round" stroke-linejoin="round" d="M 314.502 400.502 C 327.888 409.025 338.776 414.857 342.670 415.118 C 366.834 416.738 398.574 400.279 399.249 401.417 C 415.156 428.215 407.934 471.689 407.579 494.370 C 342.140 508.602 272.611 481.716 244.736 420.990 C 270.869 408.679 289.075 401.030 314.502 400.502 Z"/>
<path id="S24" fill="#ffffff" fill-rule="evenodd" stroke="#000000" stroke-width="2" stroke-linecap="round" stroke-linejoin="round" d="M 308.341 388.294 C 337.126 404.028 359.817 410.194 402.495 393.387 C 402.275 400.537 402.238 402.407 403.618 410.745 C 361.411 424.802 334.733 423.991 303.692 400.654 C 302.830 400.006 307.919 392.900 308.341 388.294 Z"/>
<path id="S30" fill="#ffffff" fill-rule="evenodd" stroke="#000000" stroke-width="2" stroke-linecap="round" stroke-linejoin="round" d="M 419.665 137.202 C 434.666 115.066 451.219 98.887 485.715 81.383 C 460.645 76.227 428.699 75.834 406.566 97.521 C 411.477 70.109 413.130 58.015 401.772 29.202 C 377.627 53.101 372.265 69.167 366.649 87.975 C 350.776 66.954 332.596 54.795 300.171 51.654 C 314.140 66.197 326.648 90.199 342.880 123.415 C 354.759 119.700 379.392 121.697 379.395 121.697 C 379.400 121.698 406.620 126.302 419.665 137.202 Z"/>
</g>
<g id="specs_2">
<path fill="#ff00ff" fill-rule="evenodd" stroke="none" d="M 294.811 361.002 C 294.823 361.002 410.610 361.002 410.622 361.002 C 410.622 360.990 410.622 245.203 410.622 245.191 C 410.610 245.191 294.823 245.191 294.811 245.191 C 294.811 245.203 294.811 360.990 294.811 361.002 Z"/>
<path fill="#ff0000" fill-rule="evenodd" stroke="none" d="M 387.227 682.891 C 387.228 682.894 399.293 716.678 399.295 716.681 C 399.293 716.680 387.228 705.454 387.227 705.453 C 387.225 705.454 375.160 716.680 375.159 716.681 C 375.160 716.678 387.225 682.894 387.227 682.891 Z"/>
<path fill="#0000ff" fill-rule="evenodd" stroke="none" d="M 602.731 184.150 C 602.732 184.152 609.740 203.776 609.741 203.778 C 609.740 203.778 602.732 197.257 602.731 197.256 C 602.730 197.257 595.722 203.778 595.721 203.778 C 595.722 203.776 602.730 184.152 602.731 184.150 Z"/>
<path fill="#00ff00" fill-rule="evenodd" stroke="none" d="M 581.398 679.532 C 581.398 679.534 574.290 699.123 574.289 699.125 C 574.290 699.125 581.332 692.639 581.332 692.638 C 581.333 692.639 588.308 699.195 588.309 699.196 C 588.308 699.194 581.399 679.534 581.398 679.532 Z"/>
<path fill="#00ffff" fill-rule="evenodd" stroke="none" d="M 217.113 152.268 C 217.114 152.270 225.365 171.405 225.366 171.407 C 225.366 171.406 226.048 161.857 226.048 161.856 C 226.049 161.856 235.622 161.849 235.623 161.849 C 235.621 161.848 217.115 152.269 217.113 152.268 Z"/>
<path fill="#be0027" fill-rule="evenodd" stroke="none" d="M 387.227 709.942 C 387.228 709.939 399.293 676.155 399.295 676.151 C 399.293 676.152 387.228 687.379 387.227 687.380 C 387.225 687.379 375.160 676.152 375.159 676.151 C 375.160 676.155 387.225 709.939 387.227 709.942 Z"/>
</g>
</g>
</svg>
