<?xml version="1.0" encoding="utf-8"?>
<!-- Generator: Moho 13.5.1 build 20210623 -->
<!DOCTYPE svg PUBLIC "-//W3C//DTD SVG 1.1//EN" "http://www.w3.org/Graphics/SVG/1.1/DTD/svg11.dtd">
<svg version="1.1" id="Frame_0" xmlns="http://www.w3.org/2000/svg" xmlns:xlink="http://www.w3.org/1999/xlink" width="720px" height="720px">
<g id="foot">
<g id="foot">
<radialGradient id="9771C251-E580-48DC-B32D-621B4B6B6BC3_0" cx="43.98%" cy="47.04%" r="108.07%">
<stop offset="30.20%" style="stop-color:rgb(255,255,255);stop-opacity:1.00" />
<stop offset="100.00%" style="stop-color:rgb(0,0,0);stop-opacity:1.00" />
</radialGradient>
<path fill="url(#9771C251-E580-48DC-B32D-621B4B6B6BC3_0)" fill-rule="evenodd" stroke="#000000" stroke-width="4" stroke-linecap="round" stroke-linejoin="round" d="M 518.315 169.263 C 520.086 160.796 518.250 142.721 502.715 138.098 C 492.316 135.003 480.444 153.697 478.979 161.914 C 471.215 205.462 464.646 206.679 462.853 205.789 C 459.837 204.294 463.419 185.333 481.363 126.451 C 486.140 110.774 475.620 95.029 466.801 93.316 C 457.585 91.526 442.325 100.671 440.071 120.071 C 433.910 173.094 420.962 189.577 418.104 188.443 C 415.440 187.385 413.133 175.018 431.235 122.822 C 441.000 94.667 429.168 71.441 415.462 68.990 C 404.315 66.996 388.591 74.941 385.572 103.454 C 378.617 169.124 371.422 178.232 368.170 177.868 C 364.803 177.490 365.954 160.099 377.844 99.342 C 382.604 75.019 367.741 54.074 354.984 53.166 C 344.688 52.434 328.587 67.532 329.189 85.787 C 331.648 160.418 324.662 172.140 319.086 172.150 C 317.531 172.152 315.367 161.280 317.623 135.871 C 320.111 107.852 328.543 83.171 314.494 48.576 C 310.247 38.119 295.520 25.154 274.295 27.324 C 260.623 28.721 245.709 46.535 242.840 57.570 C 236.776 80.892 240.624 103.714 242.947 118.939 C 245.632 136.543 256.838 148.183 255.575 189.559 C 244.406 208.772 232.305 236.558 238.020 290.587 C 245.459 360.910 294.794 369.683 289.283 487.620 C 288.104 512.838 263.888 564.974 268.541 596.579 C 282.593 692.012 406.524 682.611 434.318 652.667 C 455.810 629.512 473.417 583.683 477.849 565.231 C 489.067 518.530 497.237 376.254 507.981 324.711 C 512.119 304.859 520.207 283.486 509.721 220.355 C 514.287 203.550 512.053 199.189 518.315 169.263 Z"/>
</g>
<g id="specs">
<path fill="#ff00ff" fill-rule="evenodd" stroke="none" d="M 284.564 393.041 C 284.582 393.041 469.077 393.041 469.095 393.041 C 469.095 393.023 469.095 208.528 469.095 208.510 C 469.077 208.510 284.582 208.510 284.564 208.510 C 284.564 208.528 284.564 393.023 284.564 393.041 Z"/>
<path fill="#ff0000" fill-rule="evenodd" stroke="none" d="M 360.000 677.112 C 360.001 677.116 372.432 711.921 372.433 711.925 C 372.432 711.924 360.001 700.358 360.000 700.357 C 359.999 700.358 347.568 711.924 347.567 711.925 C 347.568 711.921 359.999 677.116 360.000 677.112 Z"/>
<path fill="#0000ff" fill-rule="evenodd" stroke="none" d="M 278.719 13.173 C 278.719 13.175 285.940 33.393 285.940 33.395 C 285.940 33.395 278.719 26.676 278.719 26.676 C 278.718 26.676 271.497 33.395 271.497 33.395 C 271.497 33.393 278.718 13.175 278.719 13.173 Z"/>
<path fill="#00ff00" fill-rule="evenodd" stroke="none" d="M 247.171 350.165 C 247.173 350.164 267.354 342.841 267.356 342.841 C 267.355 342.841 260.674 350.096 260.673 350.097 C 260.674 350.097 267.428 357.284 267.429 357.285 C 267.427 357.284 247.173 350.165 247.171 350.165 Z"/>
<path fill="#ffff00" fill-rule="evenodd" stroke="none" d="M 271.031 634.724 C 271.032 634.723 279.021 617.328 279.022 617.327 C 279.022 617.328 279.442 626.111 279.442 626.112 C 279.443 626.112 288.234 626.325 288.235 626.325 C 288.233 626.326 271.033 634.724 271.031 634.724 Z"/>
<path fill="#ffff00" fill-rule="evenodd" stroke="none" d="M 458.199 634.511 C 458.198 634.509 449.862 617.279 449.862 617.277 C 449.862 617.278 449.617 626.068 449.617 626.069 C 449.616 626.069 440.831 626.459 440.830 626.459 C 440.832 626.459 458.197 634.510 458.199 634.511 Z"/>
<path fill="#00ff00" fill-rule="evenodd" stroke="none" d="M 517.001 350.165 C 516.999 350.164 496.818 342.841 496.816 342.841 C 496.816 342.841 503.498 350.096 503.499 350.097 C 503.498 350.097 496.744 357.284 496.743 357.285 C 496.745 357.284 516.999 350.165 517.001 350.165 Z"/>
<path fill="#be0027" fill-rule="evenodd" stroke="none" d="M 360.000 693.168 C 360.001 693.164 372.432 658.358 372.433 658.355 C 372.432 658.356 360.001 669.922 360.000 669.923 C 359.999 669.922 347.568 658.356 347.567 658.355 C 347.568 658.358 359.999 693.164 360.000 693.168 Z"/>
</g>
</g>
</svg>
