<?xml version="1.0" encoding="utf-8"?>
<!-- Generator: Moho 13.0.3 build 635 -->
<!DOCTYPE svg PUBLIC "-//W3C//DTD SVG 1.1//EN" "http://www.w3.org/Graphics/SVG/1.1/DTD/svg11.dtd">
<svg version="1.1" id="Frame_0" xmlns="http://www.w3.org/2000/svg" xmlns:xlink="http://www.w3.org/1999/xlink" width="720px" height="720px">
<g id="gears">
<g id="gears">
<path fill="#ffffff" fill-rule="evenodd" stroke="#000000" stroke-width="4" stroke-linecap="round" stroke-linejoin="round" d="M 373.158 360.006 C 373.158 381.406 390.421 398.669 411.821 398.669 C 433.221 398.669 450.484 381.406 450.484 360.006 C 450.484 338.606 433.221 321.343 411.821 321.343 C 390.421 321.343 373.158 338.606 373.158 360.006 M 231.146 323.087 C 229.443 331.484 228.307 340.167 227.802 348.905 C 221.463 348.905 208.637 348.905 208.635 348.905 C 208.635 348.907 208.635 371.105 208.635 371.107 C 208.637 371.107 221.463 371.107 227.803 371.107 C 228.369 379.872 229.530 388.463 231.253 396.896 C 225.076 398.551 212.687 401.871 212.685 401.871 C 212.685 401.874 218.431 423.315 218.431 423.318 C 218.433 423.317 230.822 419.997 237.000 418.342 C 239.756 426.481 243.039 434.354 247.002 442.346 C 241.415 445.571 230.308 451.984 230.306 451.985 C 230.307 451.987 241.406 471.211 241.407 471.213 C 241.409 471.212 252.517 464.799 258.055 461.601 C 263.018 469.119 268.506 476.242 273.890 482.238 C 269.368 486.760 260.298 495.829 260.297 495.831 C 260.298 495.832 275.995 511.529 275.996 511.530 C 275.998 511.529 285.067 502.460 289.590 497.937 C 296.085 503.732 302.992 509.066 310.198 513.820 C 307.028 519.310 300.615 530.418 300.614 530.420 C 300.616 530.421 319.840 541.520 319.842 541.521 C 319.843 541.520 326.256 530.412 329.398 524.969 C 337.063 528.819 345.044 532.145 353.456 534.935 C 351.830 541.005 348.510 553.394 348.510 553.396 C 348.512 553.396 369.954 559.142 369.956 559.142 C 369.956 559.140 373.276 546.751 374.902 540.681 C 383.299 542.384 391.982 543.520 400.720 544.024 C 400.720 550.364 400.720 563.191 400.720 563.193 C 400.722 563.193 422.920 563.193 422.923 563.193 C 422.923 563.191 422.923 550.364 422.923 544.024 C 431.687 543.459 440.278 542.298 448.711 540.574 C 450.367 546.751 453.686 559.140 453.687 559.142 C 453.689 559.142 475.131 553.396 475.133 553.396 C 475.132 553.394 471.813 541.005 470.157 534.828 C 478.297 532.072 486.170 528.788 494.161 524.825 C 497.386 530.412 503.800 541.520 503.801 541.521 C 503.802 541.520 523.027 530.421 523.029 530.420 C 523.028 530.418 516.614 519.310 513.417 513.772 C 520.934 508.810 528.058 503.322 534.053 497.937 C 538.575 502.459 547.645 511.529 547.646 511.530 C 547.648 511.529 563.344 495.832 563.346 495.831 C 563.344 495.829 554.275 486.760 549.753 482.238 C 555.548 475.743 560.882 468.835 565.635 461.629 C 571.126 464.799 582.234 471.212 582.235 471.213 C 582.236 471.211 593.336 451.987 593.337 451.985 C 593.335 451.984 582.227 445.571 576.785 442.429 C 580.635 434.764 583.960 426.784 586.750 418.371 C 592.820 419.997 605.209 423.317 605.211 423.317 C 605.212 423.315 610.957 401.874 610.958 401.871 C 610.956 401.871 598.567 398.551 592.497 396.925 C 594.199 388.528 595.336 379.845 595.840 371.107 C 602.180 371.107 615.006 371.107 615.008 371.107 C 615.008 371.105 615.008 348.907 615.008 348.905 C 615.006 348.905 602.180 348.905 595.840 348.905 C 595.274 340.140 594.113 331.549 592.389 323.116 C 598.567 321.461 610.956 318.141 610.958 318.140 C 610.957 318.138 605.212 296.696 605.211 296.694 C 605.209 296.695 592.820 300.014 586.643 301.670 C 583.887 293.531 580.603 285.657 576.640 277.666 C 582.227 274.441 593.335 268.028 593.337 268.027 C 593.336 268.025 582.236 248.801 582.235 248.799 C 582.234 248.800 571.126 255.213 565.587 258.410 C 560.625 250.893 555.137 243.769 549.752 237.774 C 554.275 233.252 563.344 224.182 563.346 224.181 C 563.344 224.179 547.648 208.483 547.646 208.481 C 547.645 208.483 538.575 217.552 534.053 222.075 C 527.558 216.279 520.651 210.946 513.444 206.192 C 516.614 200.702 523.028 189.594 523.029 189.592 C 523.027 189.591 503.802 178.492 503.801 178.491 C 503.800 178.492 497.386 189.600 494.244 195.042 C 486.580 191.193 478.599 187.867 470.186 185.077 C 471.813 179.007 475.132 166.618 475.133 166.616 C 475.131 166.615 453.689 160.870 453.687 160.870 C 453.686 160.871 450.367 173.261 448.740 179.331 C 440.343 177.628 431.660 176.492 422.923 175.987 C 422.923 169.647 422.923 156.821 422.923 156.819 C 422.920 156.819 400.722 156.819 400.720 156.819 C 400.720 156.821 400.720 169.647 400.720 175.987 C 391.955 176.553 383.365 177.714 374.931 179.438 C 373.276 173.261 369.956 160.871 369.956 160.870 C 369.954 160.870 348.512 166.615 348.509 166.616 C 348.510 166.618 351.830 179.007 353.485 185.184 C 345.346 187.940 337.473 191.224 329.481 195.186 C 326.256 189.600 319.843 178.492 319.842 178.491 C 319.840 178.492 300.616 189.591 300.614 189.592 C 300.615 189.594 307.028 200.701 310.226 206.240 C 302.709 211.202 295.585 216.690 289.589 222.075 C 285.067 217.552 275.998 208.483 275.996 208.481 C 275.995 208.483 260.298 224.179 260.297 224.181 C 260.298 224.182 269.368 233.252 273.890 237.774 C 268.095 244.269 262.761 251.177 258.007 258.383 C 252.517 255.213 241.409 248.800 241.407 248.799 C 241.406 248.801 230.307 268.025 230.306 268.027 C 230.307 268.028 241.415 274.441 246.858 277.583 C 243.008 285.247 239.682 293.228 236.892 301.641 C 230.822 300.014 218.433 296.695 218.431 296.694 C 218.431 296.697 212.685 318.138 212.685 318.140 C 212.687 318.141 225.076 321.461 231.146 323.087 Z"/>
<path fill="#ffffff" fill-rule="evenodd" stroke="#000000" stroke-width="4" stroke-linecap="round" stroke-linejoin="round" d="M 590.518 205.271 C 598.126 204.963 605.479 203.627 612.470 201.377 C 615.098 206.319 620.418 216.338 620.418 216.339 C 620.420 216.339 636.840 208.705 636.842 208.704 C 636.841 208.702 630.536 192.992 630.536 192.992 C 636.819 189.076 647.612 178.732 647.612 178.732 C 652.974 182.100 661.928 187.701 661.930 187.702 C 661.931 187.701 672.334 172.879 672.335 172.878 C 672.334 172.877 663.524 165.969 659.054 162.507 C 662.458 156.186 666.691 141.546 666.691 141.546 C 673.003 141.771 683.559 142.146 683.561 142.146 C 683.561 142.144 685.160 124.107 685.160 124.105 C 685.159 124.105 674.076 122.527 668.445 121.720 C 668.214 114.101 666.901 106.707 664.668 99.752 C 669.627 97.128 679.515 91.878 679.516 91.878 C 679.515 91.876 671.881 75.455 671.881 75.454 C 671.879 75.454 661.492 79.630 656.265 81.780 C 652.646 76.084 647.406 69.714 641.876 64.723 C 641.876 64.723 650.878 50.368 650.879 50.366 C 650.878 50.365 636.056 39.962 636.055 39.961 C 636.054 39.962 628.228 49.973 625.620 53.310 C 625.620 53.310 612.128 47.242 604.675 45.597 C 604.926 39.924 605.323 28.737 605.323 28.735 C 605.321 28.735 587.283 27.136 587.282 27.136 C 587.281 27.137 584.954 43.848 584.954 43.848 C 577.233 44.161 562.954 47.758 562.954 47.758 C 560.089 42.250 555.055 32.781 555.054 32.780 C 555.053 32.781 538.632 40.414 538.631 40.415 C 538.631 40.417 542.630 50.364 544.958 56.147 C 544.958 56.147 533.032 64.743 527.883 70.358 C 523.035 67.356 513.544 61.418 513.543 61.417 C 513.542 61.418 503.138 76.240 503.137 76.241 C 503.139 76.242 516.395 86.627 516.395 86.627 C 514.890 89.992 510.309 103.178 508.783 107.573 C 508.783 107.573 491.913 106.973 491.912 106.973 C 491.912 106.975 490.312 125.012 490.312 125.014 C 490.314 125.014 507.027 127.399 507.027 127.399 C 507.750 131.990 509.918 145.760 510.803 149.316 C 510.803 149.316 495.958 157.241 495.957 157.242 C 495.957 157.243 503.591 173.664 503.592 173.665 C 503.594 173.665 513.981 169.489 519.278 167.385 C 523.268 173.696 528.090 179.422 533.564 184.365 C 530.612 189.135 524.595 198.751 524.594 198.753 C 524.595 198.754 539.417 209.158 539.418 209.159 C 539.419 209.157 546.419 200.230 549.877 195.821 C 556.398 199.286 567.198 202.463 570.798 203.522 C 570.798 203.522 570.150 220.383 570.150 220.384 C 570.152 220.384 588.189 221.983 588.191 221.984 C 588.191 221.982 589.768 210.899 590.518 205.271 M 562.407 122.314 C 561.164 136.334 571.471 148.646 585.491 149.889 C 599.511 151.132 611.823 140.825 613.066 126.805 C 614.309 112.785 604.002 100.473 589.982 99.230 C 575.962 97.987 563.650 108.294 562.407 122.314 Z"/>
<path fill="#ffffff" fill-rule="evenodd" stroke="#000000" stroke-width="4" stroke-linecap="round" stroke-linejoin="round" d="M 133.393 356.054 C 140.998 355.709 148.345 354.337 155.324 352.052 C 157.977 356.981 163.346 366.974 163.347 366.975 C 163.348 366.974 179.731 359.260 179.733 359.259 C 179.732 359.257 173.349 343.578 173.349 343.578 C 179.613 339.631 190.354 329.234 190.354 329.234 C 195.733 332.576 204.715 338.133 204.716 338.133 C 204.717 338.132 215.047 323.259 215.048 323.258 C 215.047 323.257 206.204 316.393 201.717 312.953 C 205.089 306.615 209.250 291.954 209.250 291.954 C 215.562 292.148 226.121 292.471 226.122 292.471 C 226.123 292.469 227.632 274.424 227.632 274.422 C 227.631 274.422 216.540 272.899 210.906 272.120 C 210.637 264.502 209.287 257.115 207.020 250.171 C 211.966 247.522 221.828 242.224 221.829 242.223 C 221.828 242.221 214.113 225.839 214.112 225.837 C 214.111 225.838 203.745 230.065 198.528 232.240 C 194.881 226.562 189.609 220.219 184.055 215.255 C 184.055 215.255 192.986 200.855 192.987 200.854 C 192.986 200.853 178.113 190.522 178.112 190.521 C 178.111 190.523 170.335 200.572 167.743 203.922 C 167.743 203.922 154.221 197.921 146.760 196.313 C 146.983 190.639 147.325 179.449 147.325 179.448 C 147.323 179.448 129.278 177.938 129.276 177.937 C 129.276 177.939 127.031 194.662 127.031 194.662 C 119.312 195.012 105.050 198.680 105.050 198.680 C 102.158 193.186 97.078 183.742 97.077 183.741 C 97.075 183.741 80.693 191.456 80.691 191.457 C 80.692 191.459 84.739 201.386 87.096 207.157 C 87.096 207.157 75.213 215.813 70.091 221.453 C 65.228 218.474 55.709 212.584 55.707 212.583 C 55.706 212.584 45.376 227.457 45.375 227.458 C 45.377 227.459 58.684 237.779 58.684 237.779 C 57.196 241.151 52.680 254.359 51.175 258.762 C 51.175 258.762 34.303 258.245 34.302 258.245 C 34.302 258.247 32.792 276.292 32.791 276.294 C 32.793 276.294 49.518 278.597 49.518 278.597 C 50.263 283.183 52.499 296.943 53.402 300.494 C 53.402 300.494 38.596 308.492 38.595 308.493 C 38.595 308.495 46.310 324.877 46.311 324.879 C 46.313 324.878 56.679 320.651 61.966 318.521 C 65.987 324.812 70.837 330.515 76.336 335.431 C 73.407 340.214 67.438 349.861 67.437 349.862 C 67.438 349.863 82.311 360.194 82.312 360.195 C 82.313 360.193 89.269 351.232 92.705 346.805 C 99.243 350.239 110.058 353.362 113.663 354.403 C 113.663 354.403 113.099 371.267 113.099 371.268 C 113.101 371.269 131.146 372.779 131.148 372.779 C 131.148 372.777 132.671 361.686 133.393 356.054 M 102.929 273.075 C 101.666 288.176 112.828 301.377 127.929 302.641 C 143.030 303.904 156.231 292.742 157.494 277.641 C 158.758 262.540 147.596 249.339 132.495 248.075 C 117.394 246.812 104.193 257.974 102.929 273.075 Z"/>
<path fill="#ffffff" fill-rule="evenodd" stroke="#000000" stroke-width="4" stroke-linecap="round" stroke-linejoin="round" d="M 172.962 130.724 C 170.600 136.562 173.404 143.177 179.243 145.539 C 185.081 147.901 191.696 145.097 194.058 139.259 C 196.420 133.421 193.616 126.805 187.778 124.443 C 181.940 122.081 175.324 124.886 172.962 130.724 M 143.244 151.089 C 146.332 158.737 151.425 165.376 158.101 170.177 C 156.232 174.795 152.542 183.915 152.542 183.917 C 152.544 183.917 171.744 191.686 171.746 191.686 C 171.746 191.685 175.436 182.565 177.305 177.946 C 185.645 179.151 193.171 178.251 201.277 174.589 C 204.343 178.517 210.396 186.272 210.397 186.273 C 210.398 186.272 226.726 173.529 226.727 173.527 C 226.726 173.526 220.673 165.771 217.607 161.843 C 220.094 158.677 222.158 155.146 223.729 151.264 C 225.350 147.257 226.333 143.154 226.686 139.404 C 231.621 138.713 241.364 137.348 241.365 137.348 C 241.365 137.346 238.492 116.834 238.492 116.832 C 238.490 116.833 228.748 118.197 223.776 118.893 C 220.689 111.246 215.595 104.606 208.920 99.806 C 210.788 95.187 214.478 86.067 214.479 86.066 C 214.477 86.065 195.277 78.297 195.275 78.296 C 195.274 78.298 191.585 87.418 189.716 92.036 C 181.375 90.831 173.850 91.731 165.743 95.393 C 162.678 91.466 156.625 83.710 156.624 83.709 C 156.622 83.711 140.295 96.454 140.293 96.455 C 140.294 96.456 146.347 104.212 149.413 108.140 C 146.926 111.305 144.862 114.836 143.291 118.719 C 141.670 122.726 140.687 126.829 140.334 130.579 C 135.400 131.270 125.657 132.634 125.655 132.635 C 125.656 132.637 128.528 153.148 128.529 153.150 C 128.530 153.150 138.273 151.786 143.244 151.089 Z"/>
</g>
<g id="specs_2">
<path fill="#ff00ff" fill-rule="evenodd" stroke="none" d="M 293.383 477.909 C 293.407 477.909 529.177 477.909 529.201 477.909 C 529.201 477.885 529.201 242.115 529.201 242.091 C 529.177 242.091 293.407 242.091 293.383 242.091 C 293.383 242.115 293.383 477.885 293.383 477.909 Z"/>
<path fill="#ff0000" fill-rule="evenodd" stroke="none" d="M 360.000 595.009 C 360.001 595.013 372.416 629.775 372.417 629.779 C 372.416 629.778 360.001 618.226 360.000 618.225 C 359.999 618.226 347.584 629.778 347.583 629.779 C 347.584 629.775 359.999 595.013 360.000 595.009 Z"/>
<path fill="#0000ff" fill-rule="evenodd" stroke="none" d="M 412.318 119.755 C 412.319 119.757 419.530 139.950 419.531 139.952 C 419.530 139.952 412.319 133.242 412.318 133.241 C 412.317 133.242 405.106 139.952 405.105 139.952 C 405.106 139.950 412.317 119.757 412.318 119.755 Z"/>
<path fill="#00ff00" fill-rule="evenodd" stroke="none" d="M 7.538 268.677 C 7.540 268.676 27.696 261.362 27.698 261.361 C 27.698 261.362 21.024 268.608 21.024 268.609 C 21.024 268.609 27.770 275.787 27.771 275.787 C 27.769 275.787 7.540 268.677 7.538 268.677 Z"/>
<path fill="#ffff00" fill-rule="evenodd" stroke="none" d="M 245.208 524.207 C 245.209 524.205 254.158 504.720 254.159 504.718 C 254.159 504.719 254.630 514.558 254.630 514.559 C 254.631 514.559 264.478 514.798 264.479 514.798 C 264.477 514.799 245.210 524.206 245.208 524.207 Z"/>
<path fill="#ffff00" fill-rule="evenodd" stroke="none" d="M 578.402 522.942 C 578.401 522.940 569.063 503.638 569.062 503.636 C 569.062 503.637 568.788 513.484 568.788 513.485 C 568.787 513.485 558.946 513.922 558.945 513.922 C 558.947 513.922 578.400 522.941 578.402 522.942 Z"/>
<path fill="#00ff00" fill-rule="evenodd" stroke="none" d="M 650.912 361.002 C 650.910 361.002 630.753 353.687 630.751 353.687 C 630.752 353.687 637.425 360.933 637.426 360.934 C 637.425 360.935 630.679 368.112 630.679 368.113 C 630.681 368.112 650.910 361.003 650.912 361.002 Z"/>
<path fill="#00ffff" fill-rule="evenodd" stroke="none" d="M 659.534 23.640 C 659.533 23.642 652.375 43.854 652.374 43.856 C 652.374 43.855 651.019 34.098 651.018 34.097 C 651.018 34.097 641.189 34.746 641.188 34.746 C 641.189 34.745 659.532 23.641 659.534 23.640 Z"/>
<path fill="#00ffff" fill-rule="evenodd" stroke="none" d="M 127.257 68.421 C 127.258 68.423 135.748 88.113 135.749 88.115 C 135.749 88.114 136.451 78.288 136.451 78.287 C 136.452 78.287 146.302 78.279 146.303 78.279 C 146.301 78.278 127.259 68.422 127.257 68.421 Z"/>
<path fill="#be0027" fill-rule="evenodd" stroke="none" d="M 413.344 606.559 C 413.345 606.556 425.760 571.793 425.761 571.789 C 425.760 571.791 413.345 583.342 413.344 583.343 C 413.342 583.342 400.927 571.791 400.926 571.789 C 400.927 571.793 413.342 606.556 413.344 606.559 Z"/>
</g>
</g>
</svg>
