<?xml version="1.0" encoding="utf-8"?>
<!-- Generator: Moho 13.0.3 build 635 -->
<!DOCTYPE svg PUBLIC "-//W3C//DTD SVG 1.1//EN" "http://www.w3.org/Graphics/SVG/1.1/DTD/svg11.dtd">
<svg version="1.1" id="Frame_0" xmlns="http://www.w3.org/2000/svg" xmlns:xlink="http://www.w3.org/1999/xlink" width="720px" height="720px">
<g id="gears">
<g id="gears">
<path fill="#ffffff" fill-rule="evenodd" stroke="#000000" stroke-width="4" stroke-linecap="round" stroke-linejoin="round" d="M 559.593 329.192 C 569.681 330.334 579.642 330.069 589.313 328.526 C 591.771 335.573 596.744 349.858 596.745 349.860 C 596.747 349.860 619.939 343.139 619.941 343.139 C 619.941 343.136 614.826 321.150 614.826 321.150 C 623.903 317.267 640.230 305.832 640.230 305.832 C 646.612 311.361 657.273 320.563 657.274 320.565 C 657.276 320.563 674.001 303.147 674.003 303.145 C 674.001 303.144 663.796 292.249 658.610 286.777 C 664.380 279.139 672.938 260.707 672.938 260.707 C 681.209 262.288 695.045 264.928 695.047 264.929 C 695.048 264.927 700.823 241.482 700.824 241.480 C 700.822 241.479 686.537 237.146 679.281 234.936 C 680.526 224.849 680.299 214.838 678.772 205.218 C 685.841 202.769 699.939 197.862 699.941 197.861 C 699.940 197.859 693.220 174.667 693.219 174.664 C 693.217 174.665 678.679 178.055 671.353 179.824 C 667.742 171.582 662.132 162.123 655.860 154.421 C 655.860 154.421 670.643 137.333 670.645 137.332 C 670.643 137.330 653.227 120.605 653.225 120.603 C 653.224 120.605 640.875 132.206 636.759 136.073 C 636.759 136.073 620.213 125.333 610.726 121.648 C 612.210 114.224 615.009 99.561 615.009 99.559 C 615.007 99.559 591.562 93.783 591.560 93.782 C 591.559 93.784 585.093 115.333 585.093 115.333 C 574.854 114.175 555.305 116.011 555.305 116.011 C 552.650 108.169 547.942 94.667 547.941 94.665 C 547.939 94.666 524.747 101.386 524.745 101.387 C 524.745 101.389 527.991 115.311 529.883 123.406 C 529.883 123.406 512.418 132.308 504.490 138.661 C 498.712 133.718 487.413 123.962 487.412 123.961 C 487.410 123.963 470.685 141.379 470.683 141.380 C 470.685 141.382 486.042 157.764 486.042 157.764 C 483.375 161.892 474.657 178.337 471.751 183.818 C 471.751 183.818 449.642 179.597 449.639 179.597 C 449.639 179.599 443.863 203.044 443.862 203.046 C 443.865 203.047 465.405 209.589 465.405 209.589 C 465.423 215.785 465.479 234.373 465.923 239.240 C 465.923 239.240 444.748 246.664 444.745 246.665 C 444.746 246.667 451.466 269.859 451.467 269.861 C 451.469 269.861 466.007 266.471 473.416 264.776 C 477.391 273.903 482.580 282.431 488.789 290.059 C 483.928 295.743 474.043 307.193 474.041 307.194 C 474.043 307.196 491.459 323.920 491.460 323.922 C 491.462 323.921 502.502 313.580 507.956 308.472 C 515.845 314.366 529.432 320.749 533.960 322.877 C 533.960 322.877 529.677 344.964 529.677 344.967 C 529.679 344.967 553.124 350.743 553.126 350.743 C 553.127 350.741 557.460 336.456 559.593 329.192 M 539.420 214.152 C 534.930 232.374 546.009 250.697 564.232 255.186 C 582.455 259.676 600.777 248.597 605.266 230.374 C 609.756 212.151 598.677 193.829 580.454 189.340 C 562.231 184.850 543.909 195.929 539.420 214.152 Z"/>
<path fill="#ffffff" fill-rule="evenodd" stroke="#000000" stroke-width="4" stroke-linecap="round" stroke-linejoin="round" d="M 89.258 381.984 C 86.967 390.881 92.295 399.906 101.192 402.197 C 110.088 404.488 119.112 399.159 121.403 390.263 C 123.694 381.367 118.366 372.342 109.470 370.051 C 100.574 367.760 91.549 373.089 89.258 381.984 M 50.212 417.153 C 56.149 427.616 64.792 436.234 75.368 441.890 C 73.556 448.928 69.977 462.824 69.976 462.826 C 69.979 462.827 99.235 470.361 99.238 470.362 C 99.239 470.360 102.818 456.463 104.630 449.425 C 116.921 449.562 127.629 446.811 138.644 439.955 C 143.833 445.044 154.078 455.091 154.079 455.093 C 154.082 455.091 175.235 433.521 175.237 433.519 C 175.235 433.517 164.990 423.470 159.801 418.382 C 162.786 413.326 165.091 407.823 166.615 401.907 C 168.187 395.801 168.818 389.679 168.606 384.190 C 175.608 382.240 189.432 378.391 189.434 378.390 C 189.433 378.388 181.330 349.284 181.330 349.281 C 181.327 349.282 167.503 353.131 160.450 355.095 C 154.512 344.632 145.870 336.014 135.293 330.358 C 137.106 323.320 140.685 309.424 140.685 309.422 C 140.682 309.421 111.426 301.887 111.423 301.886 C 111.423 301.888 107.844 315.785 106.031 322.823 C 93.740 322.686 83.033 325.437 72.017 332.293 C 66.829 327.204 56.583 317.157 56.582 317.155 C 56.580 317.157 35.427 338.726 35.425 338.728 C 35.427 338.730 45.672 348.777 50.861 353.866 C 47.875 358.922 45.570 364.425 44.047 370.341 C 42.474 376.447 41.843 382.568 42.055 388.058 C 35.054 390.007 21.230 393.856 21.228 393.857 C 21.228 393.860 29.332 422.963 29.332 422.966 C 29.334 422.966 43.158 419.117 50.212 417.153 Z"/>
<path fill="#ffffff" fill-rule="evenodd" stroke="#000000" stroke-width="4" stroke-linecap="round" stroke-linejoin="round" d="M 307.720 429.882 C 302.232 457.929 320.431 484.982 348.479 490.470 C 376.526 495.958 403.579 477.759 409.067 449.711 C 414.555 421.664 396.356 394.611 368.308 389.123 C 340.261 383.635 313.207 401.834 307.720 429.882 M 438.035 298.525 C 442.947 291.368 452.742 277.098 452.743 277.096 C 452.745 277.097 471.663 289.652 471.664 289.653 C 471.663 289.655 462.327 304.213 457.685 311.450 C 468.130 319.508 477.801 329.107 486.115 339.702 C 493.323 335.016 507.822 325.588 507.824 325.587 C 507.826 325.589 520.498 344.427 520.500 344.429 C 520.497 344.431 506.312 354.301 499.323 359.164 C 505.901 370.547 511.211 383.074 514.885 396.160 C 523.175 394.620 540.153 391.466 540.156 391.465 C 540.156 391.467 544.655 413.721 544.656 413.724 C 544.653 413.724 527.770 417.415 519.452 419.233 C 521.210 434.316 521.020 445.997 519.294 459.295 C 527.868 461.111 544.812 464.701 544.815 464.701 C 544.815 464.704 540.455 486.985 540.455 486.988 C 540.452 486.987 523.404 483.926 514.778 482.378 C 511.300 495.357 506.191 507.766 499.665 519.438 C 506.822 524.350 521.091 534.145 521.094 534.146 C 521.092 534.148 508.538 553.066 508.536 553.068 C 508.534 553.066 493.976 543.730 486.739 539.088 C 478.681 549.533 469.083 559.204 458.487 567.517 C 463.174 574.725 472.601 589.225 472.603 589.227 C 472.601 589.228 453.762 601.901 453.761 601.903 C 453.759 601.900 443.889 587.715 439.026 580.726 C 427.643 587.304 415.116 592.615 402.029 596.288 C 403.570 604.578 406.724 621.556 406.724 621.559 C 406.722 621.559 384.468 626.058 384.466 626.058 C 384.465 626.056 380.775 609.173 378.957 600.854 C 363.874 602.613 352.192 602.423 338.895 600.698 C 337.078 609.271 333.488 626.215 333.488 626.218 C 333.486 626.218 311.204 621.858 311.202 621.857 C 311.202 621.855 314.263 604.807 315.812 596.181 C 302.832 592.703 290.424 587.594 278.752 581.068 C 273.839 588.225 264.045 602.494 264.043 602.497 C 264.042 602.495 245.124 589.941 245.122 589.939 C 245.124 589.937 254.460 575.379 259.102 568.141 C 248.657 560.084 238.985 550.486 230.672 539.890 C 223.464 544.577 208.965 554.004 208.962 554.006 C 208.961 554.004 196.288 535.165 196.287 535.164 C 196.289 535.162 210.475 525.292 217.465 520.428 C 210.886 509.046 205.575 496.519 201.901 483.432 C 193.611 484.972 176.634 488.127 176.631 488.127 C 176.631 488.125 172.132 465.871 172.131 465.869 C 172.134 465.868 189.017 462.178 197.335 460.359 C 195.576 445.277 195.767 433.595 197.492 420.298 C 188.919 418.481 171.974 414.891 171.972 414.891 C 171.972 414.889 176.332 392.607 176.332 392.605 C 176.335 392.605 193.383 395.666 202.009 397.215 C 205.486 384.235 210.595 371.827 217.121 360.155 C 209.965 355.242 195.695 345.448 195.693 345.446 C 195.694 345.444 208.249 326.527 208.250 326.525 C 208.252 326.527 222.811 335.863 230.048 340.504 C 238.106 330.059 247.704 320.388 258.299 312.075 C 253.613 304.867 244.185 290.368 244.184 290.365 C 244.186 290.364 263.024 277.691 263.026 277.690 C 263.028 277.692 272.898 291.878 277.761 298.867 C 289.144 292.289 301.671 286.978 314.757 283.305 C 313.217 275.014 310.063 258.037 310.062 258.034 C 310.064 258.034 332.318 253.535 332.321 253.534 C 332.321 253.537 336.012 270.419 337.830 278.738 C 352.913 276.979 364.595 277.170 377.892 278.895 C 379.708 270.322 383.298 253.377 383.299 253.374 C 383.301 253.375 405.583 257.735 405.585 257.735 C 405.585 257.738 402.523 274.786 400.975 283.411 C 413.954 286.889 426.363 291.999 438.035 298.525 Z"/>
</g>
<g id="specs_2">
<path fill="#ff00ff" fill-rule="evenodd" stroke="none" d="M 250.240 547.724 C 250.261 547.724 465.635 547.724 465.657 547.724 C 465.657 547.702 465.657 332.329 465.657 332.307 C 465.635 332.307 250.261 332.307 250.240 332.307 C 250.240 332.329 250.240 547.702 250.240 547.724 Z"/>
<path fill="#ff0000" fill-rule="evenodd" stroke="none" d="M 361.026 668.879 C 361.027 668.883 373.442 703.646 373.443 703.649 C 373.442 703.648 361.027 692.097 361.026 692.095 C 361.025 692.097 348.610 703.648 348.608 703.649 C 348.610 703.646 361.025 668.883 361.026 668.879 Z"/>
<path fill="#0000ff" fill-rule="evenodd" stroke="none" d="M 356.923 235.675 C 356.923 235.677 364.135 255.871 364.135 255.873 C 364.135 255.872 356.923 249.162 356.923 249.161 C 356.922 249.162 349.710 255.872 349.710 255.873 C 349.710 255.871 356.922 235.677 356.923 235.675 Z"/>
<path fill="#00ff00" fill-rule="evenodd" stroke="none" d="M 6.512 365.106 C 6.514 365.105 26.671 357.791 26.673 357.790 C 26.672 357.791 19.998 365.037 19.998 365.038 C 19.998 365.038 26.745 372.216 26.745 372.216 C 26.743 372.216 6.514 365.106 6.512 365.106 Z"/>
<path fill="#ffff00" fill-rule="evenodd" stroke="none" d="M 141.598 489.328 C 141.599 489.326 150.548 469.841 150.549 469.839 C 150.549 469.840 151.020 479.679 151.020 479.680 C 151.021 479.680 160.868 479.919 160.869 479.919 C 160.867 479.920 141.600 489.327 141.598 489.328 Z"/>
<path fill="#ffff00" fill-rule="evenodd" stroke="none" d="M 578.402 390.609 C 578.401 390.607 569.063 371.305 569.062 371.303 C 569.062 371.304 568.788 381.151 568.788 381.152 C 568.787 381.152 558.946 381.588 558.945 381.588 C 558.947 381.589 578.400 390.608 578.402 390.609 Z"/>
<path fill="#00ff00" fill-rule="evenodd" stroke="none" d="M 718.617 218.411 C 718.615 218.410 698.459 211.096 698.457 211.095 C 698.457 211.096 705.131 218.342 705.131 218.343 C 705.131 218.343 698.385 225.521 698.384 225.521 C 698.386 225.521 718.615 218.411 718.617 218.411 Z"/>
<path fill="#00ffff" fill-rule="evenodd" stroke="none" d="M 648.250 91.345 C 648.249 91.347 641.091 111.559 641.090 111.561 C 641.090 111.561 639.734 101.804 639.734 101.803 C 639.733 101.803 629.904 102.452 629.903 102.452 C 629.905 102.451 648.248 91.346 648.250 91.345 Z"/>
<path fill="#00ffff" fill-rule="evenodd" stroke="none" d="M 213.428 296.157 C 213.428 296.159 221.918 315.849 221.919 315.851 C 221.919 315.850 222.621 306.024 222.621 306.023 C 222.622 306.023 232.472 306.016 232.473 306.016 C 232.471 306.015 213.430 296.158 213.428 296.157 Z"/>
<path fill="#be0027" fill-rule="evenodd" stroke="none" d="M 358.974 654.774 C 358.975 654.770 371.390 620.007 371.392 620.004 C 371.390 620.005 358.975 631.557 358.974 631.558 C 358.973 631.557 346.558 620.005 346.557 620.004 C 346.558 620.007 358.973 654.770 358.974 654.774 Z"/>
</g>
</g>
</svg>
