<?xml version="1.0" encoding="utf-8"?>
<!-- Generator: Moho 12.5 build 22414 -->
<!DOCTYPE svg PUBLIC "-//W3C//DTD SVG 1.1//EN" "http://www.w3.org/Graphics/SVG/1.1/DTD/svg11.dtd">
<svg version="1.1" id="Frame_0" xmlns="http://www.w3.org/2000/svg" xmlns:xlink="http://www.w3.org/1999/xlink" width="720px" height="720px">
<g id="globe">
<g id="globe1.svg">
<path fill="#ffffff" fill-rule="evenodd" stroke="#000000" stroke-width="4" stroke-linecap="round" stroke-linejoin="round" d="M 569.013 135.181 C 566.951 132.948 564.805 130.801 562.657 128.567 C 506.657 72.653 439.147 44.739 359.957 44.739 C 304.558 44.739 254.739 58.476 210.681 85.966 C 210.423 86.052 209.993 86.310 209.735 86.481 C 191.271 98.078 173.748 112.162 157.343 128.567 C 101.343 184.567 73.429 252.163 73.429 331.354 C 73.429 410.458 101.342 477.967 157.343 533.967 C 213.258 589.882 280.853 617.882 359.957 617.882 C 439.147 617.882 506.657 589.882 562.657 533.967 C 618.572 477.967 646.571 410.458 646.571 331.354 C 646.571 255.169 620.718 189.893 569.013 135.181 Z"/>
<path fill="#000000" fill-rule="evenodd" stroke="none" d="M 506.143 103.867 C 506.573 103.867 507.003 103.867 507.346 103.867 C 509.065 104.726 510.613 105.930 511.901 107.390 C 512.589 108.164 512.933 109.195 512.847 110.227 C 512.847 111.086 512.933 111.774 513.362 112.461 C 513.792 112.718 514.136 112.804 514.566 112.890 C 515.941 113.148 517.229 113.148 518.605 112.890 C 519.894 112.804 520.667 113.320 521.097 114.437 C 521.612 115.727 521.526 117.015 520.839 118.305 C 520.582 118.906 520.152 119.508 519.636 120.024 C 518.777 120.711 518.433 121.657 518.605 122.773 C 519.120 123.548 519.808 123.977 520.667 124.063 C 524.535 124.407 527.973 125.696 530.980 127.759 C 533.559 129.478 535.622 131.712 536.996 134.290 C 536.567 134.633 536.051 134.805 535.622 135.150 C 533.558 136.180 531.324 136.868 529.090 137.040 C 527.285 137.298 525.480 137.470 523.675 137.384 C 523.238 137.790 522.809 138.191 522.386 138.587 C 524.019 139.876 525.566 141.166 527.113 142.540 C 527.973 143.314 528.574 144.087 529.003 144.947 C 530.551 148.814 532.871 152.165 535.794 154.916 C 538.114 157.065 540.520 159.041 543.012 160.932 C 544.817 162.307 546.793 163.510 548.942 164.283 C 549.372 165.830 549.372 167.377 548.942 169.010 C 547.739 173.651 546.965 178.378 546.536 183.190 C 546.450 184.566 546.965 185.855 548.169 186.800 C 548.942 190.324 547.997 193.417 545.419 196.082 C 543.700 197.801 542.668 199.777 542.325 202.012 C 542.153 203.129 542.067 204.418 541.895 205.535 C 541.207 212.496 540.262 219.458 539.144 226.247 C 538.972 226.934 539.058 227.622 539.230 228.224 C 539.661 229.599 540.606 230.544 542.067 231.060 C 543.356 231.490 544.129 232.435 544.473 233.982 C 545.074 236.216 545.505 238.622 545.763 240.943 C 545.934 241.631 546.020 242.404 546.020 243.092 C 546.364 249.795 546.364 256.498 546.020 263.288 C 546.020 264.921 546.278 266.554 546.793 268.100 C 547.825 270.851 549.028 273.601 550.317 276.265 C 551.177 278.070 552.380 279.788 553.755 281.421 C 554.270 282.023 554.958 282.711 555.560 283.312 C 562.005 289.499 568.279 295.774 574.380 302.305 C 575.670 303.766 577.217 305.141 578.850 306.259 C 580.139 307.203 581.686 307.720 583.405 307.720 C 585.983 307.634 588.647 307.548 591.311 307.289 C 594.061 307.118 596.726 307.290 599.390 307.720 C 600.077 307.634 600.507 307.375 600.765 306.860 C 602.827 303.078 605.921 301.188 610.133 301.102 C 610.906 301.359 611.421 301.790 611.765 302.391 C 613.914 305.829 616.922 308.407 620.531 310.040 C 622.471 309.671 624.419 309.298 626.375 308.923 C 627.406 311.673 627.922 314.423 627.836 317.345 C 627.664 322.415 627.149 327.315 625.946 332.041 C 625.688 333.159 625.773 334.189 626.118 335.135 C 628.609 342.182 629.383 349.487 628.266 356.964 C 628.094 357.823 628.094 358.683 628.008 359.628 C 627.750 366.504 626.805 373.379 625.172 380.168 C 625.000 381.199 625.000 382.145 625.172 383.090 C 626.805 388.762 626.118 394.177 623.281 399.333 C 621.734 402.083 620.188 404.833 618.641 407.670 C 616.578 411.279 615.632 415.146 615.632 419.271 C 615.718 425.029 614.859 430.701 613.054 436.202 C 612.367 438.608 611.593 440.929 610.820 443.421 C 610.734 443.851 610.562 444.280 610.476 444.710 C 610.133 445.913 609.788 446.859 609.187 447.718 C 609.015 448.147 608.757 448.577 608.585 449.007 C 607.210 452.358 605.921 455.710 604.718 459.062 C 603.600 462.070 602.312 464.992 600.851 467.914 C 599.905 469.719 599.218 471.695 598.616 473.672 C 598.444 474.360 598.100 474.962 597.670 475.391 C 595.780 477.969 594.577 480.806 594.147 483.985 C 593.889 485.962 593.374 487.939 592.686 489.743 C 591.225 492.923 591.655 495.587 593.889 497.650 C 602.742 485.790 610.476 473.328 617.093 460.179 C 620.445 453.820 623.453 447.203 626.290 440.413 C 628.953 433.710 631.445 426.834 633.680 419.959 C 635.829 412.912 637.720 405.951 639.438 398.817 C 641.071 391.512 642.446 384.294 643.564 376.902 C 644.852 367.535 645.798 358.081 646.313 348.628 C 648.376 313.048 644.337 278.156 634.110 244.037 C 627.578 222.036 617.952 201.669 605.577 182.761 C 605.405 182.503 605.405 182.332 605.319 182.073 C 605.234 181.042 604.718 180.183 603.601 179.581 C 603.257 179.409 602.999 179.151 602.656 178.979 C 602.312 178.894 601.882 178.808 601.452 178.636 C 601.280 178.550 601.023 178.550 600.679 178.464 C 600.249 178.034 599.819 177.604 599.304 177.089 C 599.132 176.745 598.874 176.488 598.531 176.402 C 598.187 176.143 597.928 175.971 597.585 175.799 C 597.155 175.971 596.726 176.230 596.382 176.402 C 596.632 178.411 596.890 180.417 597.155 182.417 C 596.726 181.901 596.382 181.471 595.952 181.042 C 594.577 179.752 593.288 178.206 592.084 176.659 C 591.569 175.971 591.053 175.542 590.452 175.198 C 586.326 172.620 582.631 169.526 579.537 165.744 C 577.818 163.596 576.099 161.705 574.208 159.728 C 572.404 157.924 570.083 157.236 567.248 157.838 C 565.013 158.353 563.123 159.213 561.318 160.502 C 559.513 161.791 557.708 162.995 555.989 164.283 C 553.755 165.659 551.950 166.002 550.317 165.229 C 550.510 164.145 550.711 163.057 550.918 161.963 C 551.434 161.619 551.950 161.276 552.465 160.932 C 552.637 160.760 552.809 160.502 552.895 160.244 C 554.528 156.119 553.841 152.166 551.004 148.384 C 549.716 146.493 548.598 144.603 547.739 142.454 C 547.567 142.368 547.395 142.196 547.223 142.025 C 546.707 141.853 546.192 141.595 545.677 141.165 C 545.247 140.908 544.988 140.477 544.902 139.962 C 544.902 139.790 544.902 139.532 544.902 139.361 C 544.902 139.103 544.902 138.845 544.902 138.587 C 545.074 138.157 545.161 137.728 545.247 137.298 C 546.450 135.837 547.911 134.891 549.802 134.719 C 550.661 134.548 551.435 134.719 552.036 135.150 C 555.560 137.556 559.169 140.134 562.520 142.798 C 565.443 145.119 568.794 145.978 572.662 145.119 C 574.208 146.751 575.670 148.384 577.045 150.103 C 580.053 153.970 584.006 156.635 588.991 157.924 C 570.427 134.204 549.028 113.492 524.535 95.788 C 504.854 81.608 483.713 70.436 460.938 62.185 C 458.360 61.326 455.868 60.552 453.290 59.950 C 458.102 62.013 462.399 64.850 466.095 68.631 C 467.298 69.748 468.243 70.951 469.103 72.240 C 472.712 77.483 477.439 81.694 483.197 84.874 C 483.884 85.217 484.658 85.475 485.517 85.733 C 492.994 87.623 499.869 90.890 506.229 95.444 C 509.030 97.799 511.837 100.148 514.652 102.492 C 511.988 102.664 509.237 102.406 506.573 101.632 C 502.276 100.515 498.064 99.140 493.939 97.421 C 491.104 96.390 488.869 96.304 487.064 97.249 C 486.807 98.195 487.150 98.882 487.923 99.225 C 488.698 99.569 489.299 100.086 489.900 100.687 C 491.362 102.062 492.995 103.179 494.714 104.039 C 495.572 104.382 496.260 104.897 497.034 105.241 C 497.034 105.327 497.119 105.413 497.291 105.499 C 497.635 106.188 498.064 106.789 498.409 107.304 C 498.838 107.821 499.354 108.164 500.127 108.250 C 500.385 108.250 500.558 108.250 500.815 108.250 C 500.987 108.164 501.331 108.164 501.588 108.078 C 501.846 107.992 502.190 107.820 502.534 107.734 C 502.534 107.648 502.534 107.562 502.620 107.562 C 502.791 106.789 503.050 106.102 503.479 105.499 C 503.737 104.898 504.253 104.555 504.940 104.211 C 505.198 104.211 505.284 104.125 505.542 104.039 C 505.713 103.953 505.971 103.867 506.143 103.867 Z"/>
<path fill="#000000" fill-rule="evenodd" stroke="none" d="M 372.763 63.818 C 372.935 68.115 374.052 71.982 376.114 75.420 C 376.716 76.538 377.575 77.225 378.779 77.740 C 382.387 79.288 385.825 81.007 389.091 82.811 C 389.607 83.155 390.208 83.327 390.896 83.584 C 393.388 84.444 395.966 84.959 398.545 85.303 C 399.146 85.647 399.748 86.077 400.264 86.507 C 401.638 87.882 403.443 88.397 405.506 87.882 C 403.357 85.131 402.584 81.951 403.100 78.343 C 403.357 77.139 403.357 75.850 403.357 74.561 C 405.849 72.842 408.342 71.037 410.749 69.060 C 413.241 67.170 416.163 66.310 419.256 66.396 C 419.085 63.646 417.796 61.411 415.475 59.693 C 415.131 59.435 414.874 59.006 414.530 58.662 C 413.068 56.599 411.436 54.709 409.717 52.818 C 408.944 52.302 408.170 51.872 407.311 51.700 C 405.849 51.271 404.904 50.239 404.561 48.520 C 404.475 48.176 404.389 47.833 404.303 47.489 C 351.793 39.925 300.830 45.770 251.500 65.107 C 240.327 69.490 229.498 74.819 219.099 81.006 C 218.498 81.350 217.982 81.865 217.552 82.554 C 215.661 85.991 213.599 89.342 211.279 92.608 C 209.903 94.413 208.443 96.132 206.810 97.507 C 205.005 99.054 203.372 100.687 201.825 102.492 C 199.333 105.327 196.927 108.164 194.434 110.914 C 195.122 115.211 193.575 118.133 189.535 119.938 C 188.246 120.539 187.387 121.399 186.700 122.344 C 184.551 126.126 181.543 129.133 177.675 131.540 C 173.293 134.204 170.199 137.728 168.394 142.282 C 167.706 143.830 166.847 145.377 165.816 146.751 C 164.354 148.384 163.066 150.103 161.777 151.822 C 159.370 155.260 157.394 158.783 155.932 162.651 C 155.589 163.596 155.503 164.628 155.761 165.658 C 156.534 170.729 156.964 175.627 157.050 180.698 C 157.050 184.480 156.448 188.003 155.503 191.441 C 154.815 193.589 154.471 195.738 154.471 197.887 C 154.471 202.527 154.901 207.082 155.589 211.551 C 155.675 211.981 155.761 212.582 155.932 213.012 C 157.050 216.707 158.338 220.145 159.800 223.669 C 160.917 222.466 161.347 221.004 161.089 219.286 C 160.058 213.270 159.628 207.254 159.542 201.152 C 159.542 199.261 159.972 197.457 160.831 195.738 C 161.519 194.535 161.777 193.160 161.777 191.612 C 161.862 188.863 162.635 186.371 164.097 184.136 C 163.753 192.730 164.097 201.410 165.214 210.004 C 165.472 211.723 166.073 213.270 167.105 214.559 C 170.284 218.856 170.972 223.755 169.254 229.169 C 169.082 229.857 168.824 230.458 168.480 231.060 C 167.793 232.607 167.792 234.068 168.565 235.615 C 177.184 242.208 185.807 248.796 194.434 255.381 C 198.388 255.295 202.341 254.952 206.208 254.522 C 206.896 254.866 207.497 255.209 208.013 255.553 C 210.935 257.615 213.083 260.280 214.373 263.546 C 220.757 264.265 227.145 264.982 233.537 265.694 C 233.619 268.334 233.705 270.969 233.796 273.601 C 236.975 274.116 238.866 276.007 239.381 279.187 C 240.241 283.741 242.905 287.008 247.288 288.898 C 251.843 291.047 256.312 292.938 260.694 294.828 C 261.125 295.000 261.640 295.086 262.156 295.086 C 262.381 293.313 262.610 291.538 262.843 289.758 C 266.453 288.555 269.203 289.930 270.922 293.969 C 271.867 296.375 273.586 298.094 275.821 299.297 C 276.250 303.594 275.993 308.235 275.048 313.048 C 275.048 313.219 274.876 313.564 274.789 313.736 C 270.749 318.719 266.109 322.845 260.523 325.939 C 260.179 326.111 259.836 326.455 259.578 326.884 C 259.406 336.166 259.320 345.276 259.148 354.385 C 259.062 355.503 258.890 356.792 258.546 357.909 C 257.945 359.628 257.773 361.347 258.117 363.152 C 262.328 366.676 265.766 370.801 268.343 375.699 C 269.719 378.192 271.266 380.598 273.071 382.918 C 275.906 386.442 277.883 390.395 279.001 394.606 C 280.461 400.279 283.642 404.661 288.626 407.670 C 289.056 407.927 289.485 408.271 289.829 408.529 C 290.569 408.703 291.314 408.875 292.063 409.044 C 297.564 414.373 303.408 418.841 309.681 422.537 C 310.283 422.881 310.627 423.311 310.885 423.998 C 313.119 429.670 313.979 435.600 313.377 441.960 C 312.861 447.718 312.775 453.304 313.291 458.976 C 313.549 461.898 312.690 464.477 310.885 466.711 C 309.681 468.258 309.338 469.976 309.939 471.867 C 310.971 475.477 311.830 479.172 312.690 482.954 C 314.838 492.837 314.666 502.635 312.260 512.346 C 311.830 514.323 311.830 516.127 312.174 518.104 C 312.862 521.714 313.291 525.237 313.291 528.932 C 313.377 532.628 313.205 536.323 312.947 540.019 C 312.689 543.199 312.689 546.292 312.775 549.387 C 312.861 550.246 313.119 550.934 313.463 551.707 C 314.494 553.512 315.783 555.059 317.330 556.434 C 318.619 560.731 321.627 563.738 326.440 565.286 C 330.393 566.747 334.347 567.348 338.300 567.177 C 338.901 565.887 338.816 564.684 338.042 563.481 C 336.409 560.989 334.261 560.301 331.597 561.418 C 330.393 560.043 330.651 557.980 332.112 555.403 C 333.487 553.082 335.120 551.106 337.182 549.558 C 338.042 549.043 338.472 548.355 338.558 547.410 C 338.815 545.347 339.073 543.285 339.417 541.222 C 338.094 540.335 336.776 539.447 335.464 538.558 C 335.601 537.442 335.746 536.325 335.894 535.207 C 336.925 534.604 338.042 534.003 339.331 533.487 C 340.363 533.144 341.050 532.370 341.394 531.253 C 341.738 530.136 341.738 529.018 341.566 527.815 C 343.628 524.377 345.261 520.768 346.550 516.815 C 347.926 512.518 351.019 510.799 355.746 511.745 C 357.379 512.088 359.012 512.088 360.558 511.830 C 365.286 510.884 368.465 508.221 369.840 503.924 C 370.270 502.806 370.614 501.603 371.044 500.486 C 371.474 499.025 371.645 497.650 371.559 496.103 C 376.286 495.415 380.497 493.783 384.192 491.118 C 384.709 490.775 385.052 490.345 385.310 489.829 C 387.372 485.962 390.380 483.555 394.334 482.610 C 398.115 477.539 402.584 473.500 407.740 470.493 C 410.061 469.203 411.264 467.141 411.350 464.391 C 411.436 462.070 411.607 459.836 412.124 457.687 C 412.639 455.195 413.670 452.961 415.389 451.156 C 417.108 449.093 419.171 447.460 421.405 446.171 C 423.210 445.226 425.187 444.280 427.163 443.421 C 428.624 442.905 430.000 442.475 431.288 442.132 C 435.327 441.702 439.367 441.702 443.320 442.132 C 444.094 441.874 444.609 441.444 444.953 440.843 C 448.219 434.999 451.485 429.241 454.750 423.569 C 457.501 418.756 458.704 413.514 458.274 407.928 C 458.102 405.951 458.102 403.802 458.188 401.826 C 457.838 401.426 457.494 401.026 457.157 400.622 C 456.727 397.270 457.930 394.606 460.680 392.630 C 462.141 391.512 463.517 390.395 464.805 389.192 C 469.103 385.411 473.142 381.543 477.009 377.590 C 479.673 375.012 480.877 371.917 480.619 368.394 C 480.275 364.355 479.759 360.487 479.072 356.792 C 478.642 356.190 478.126 355.933 477.611 355.933 C 475.634 355.761 474.259 354.644 473.314 352.667 C 473.228 352.495 473.056 352.237 472.970 352.151 C 469.790 352.237 466.868 351.378 464.204 349.487 C 463.087 348.714 462.141 347.768 461.282 346.651 C 458.789 343.471 455.696 342.440 451.914 343.557 C 449.852 344.159 447.961 344.158 446.070 343.471 C 442.976 342.354 440.055 341.237 437.218 339.862 C 436.273 339.518 435.414 339.174 434.554 338.744 C 432.062 337.799 429.483 336.596 426.991 335.135 C 424.929 333.846 422.780 333.760 420.546 334.705 C 417.967 337.713 415.389 337.885 412.811 335.049 C 412.210 334.447 411.865 333.588 411.607 332.728 C 411.092 329.291 410.405 325.853 409.803 322.415 C 409.373 320.267 408.428 318.376 407.053 316.657 C 403.787 312.360 400.350 308.235 396.912 304.282 C 394.334 301.274 390.982 299.899 387.029 300.157 C 386.083 300.243 384.966 300.329 383.935 300.586 C 379.380 301.531 375.770 300.243 372.935 296.633 C 372.504 296.204 372.161 295.774 371.903 295.172 C 370.872 293.625 369.497 292.336 367.778 291.476 C 365.801 289.500 363.825 287.437 361.848 285.460 C 360.387 283.828 358.496 282.797 356.261 282.453 C 353.082 282.023 349.902 281.336 346.722 280.563 C 344.058 279.874 341.566 280.305 339.159 281.593 C 334.175 284.344 329.792 283.484 325.839 279.015 C 320.510 272.999 313.979 269.905 306.158 269.733 C 305.213 269.733 304.267 269.905 303.322 270.163 C 298.251 272.140 293.267 274.289 288.282 276.609 C 287.337 277.039 286.477 277.726 285.876 278.758 C 284.328 281.078 283.297 283.656 282.610 286.320 C 282.266 287.437 281.750 288.469 280.891 289.328 C 280.547 289.758 280.203 290.188 280.031 290.703 C 275.906 289.070 272.211 286.836 268.687 284.000 C 267.742 283.312 266.710 283.140 265.594 283.312 C 264.047 283.484 262.757 284.172 261.984 285.546 C 261.383 286.492 260.523 287.180 259.406 287.781 C 258.202 288.125 257.085 288.125 255.968 287.609 C 254.588 286.610 253.214 285.608 251.843 284.601 C 247.374 281.335 245.913 277.124 247.546 272.140 C 248.577 268.874 249.179 265.436 249.007 261.827 C 249.006 260.624 249.179 259.421 249.437 258.131 C 249.866 256.843 249.780 255.553 249.179 254.522 C 246.428 253.233 243.421 253.405 240.241 254.952 C 239.554 255.295 238.866 255.553 238.006 255.639 C 232.850 255.811 230.272 253.662 230.014 249.022 C 229.928 246.959 230.787 245.498 232.592 244.552 C 232.764 244.380 232.850 244.295 232.936 244.123 C 233.710 242.318 234.912 241.115 236.631 240.341 C 237.630 235.734 238.633 231.122 239.640 226.505 C 238.007 224.872 235.858 224.528 233.451 225.302 C 231.561 225.904 229.584 226.161 227.693 226.161 C 227.263 226.161 226.834 226.333 226.405 226.591 C 225.942 227.598 225.483 228.600 225.029 229.599 C 223.052 231.576 222.366 234.154 222.795 237.334 C 222.967 238.193 222.795 239.053 222.279 239.826 C 220.045 242.576 217.123 243.350 213.427 241.974 C 210.248 240.771 206.982 239.998 203.630 239.654 C 197.614 231.060 197.012 222.036 201.739 212.669 C 202.341 211.637 202.685 210.434 202.771 209.230 C 203.028 206.824 203.028 204.590 202.857 202.270 C 205.774 199.180 208.697 196.086 211.622 192.988 C 219.357 192.215 226.834 192.214 234.311 192.902 C 234.912 192.902 235.514 193.160 236.116 193.589 C 236.631 193.934 237.146 194.363 237.663 194.793 C 238.747 194.253 239.835 193.709 240.928 193.160 C 242.900 190.729 244.877 188.294 246.858 185.855 C 248.830 187.578 250.807 189.297 252.788 191.011 C 256.312 188.433 259.320 188.862 261.726 192.472 C 262.671 193.847 263.188 195.308 263.102 197.027 C 262.929 204.848 266.109 210.520 272.297 214.215 C 271.867 202.270 272.383 190.324 274.016 178.550 C 274.101 178.034 274.531 177.604 275.219 177.261 C 281.836 173.393 289.056 170.729 296.533 169.182 C 297.907 166.002 298.251 162.565 297.650 159.041 C 297.478 157.924 297.649 156.807 298.079 155.775 C 299.798 151.049 303.321 148.642 308.564 148.384 C 310.111 148.384 311.572 148.384 313.033 148.384 C 313.119 148.212 313.377 148.126 313.548 148.041 C 313.544 145.611 313.544 143.176 313.548 140.735 C 316.385 139.876 319.135 138.587 321.713 136.954 C 323.604 135.665 325.666 134.891 327.987 134.547 C 330.995 134.461 333.917 134.290 336.753 133.946 C 337.096 131.626 338.386 129.907 340.534 128.704 C 341.222 128.360 341.996 128.102 342.769 127.844 C 347.065 127.758 351.363 127.329 355.488 126.469 C 355.918 126.297 356.262 126.040 356.433 125.524 C 355.660 124.492 354.113 124.063 351.965 124.149 C 349.816 124.321 347.840 123.977 345.777 123.204 C 341.480 121.743 340.191 118.820 342.081 114.695 C 342.253 114.523 342.425 114.266 342.683 114.094 C 344.310 114.500 345.943 114.901 347.582 115.297 C 350.933 113.922 354.629 113.320 358.324 113.492 C 359.098 113.492 359.957 113.578 360.816 113.578 C 363.653 112.117 366.317 110.570 368.895 108.765 C 370.012 107.992 370.442 106.875 370.184 105.499 C 367.692 103.093 364.769 101.804 361.418 101.890 C 359.527 101.890 357.637 102.062 355.746 102.406 C 355.660 102.320 355.488 102.148 355.231 102.148 C 356.084 100.205 356.944 98.258 357.809 96.304 C 358.238 95.530 358.152 94.671 357.637 93.812 C 356.519 91.921 355.574 90.031 354.457 88.226 C 351.535 85.733 348.785 85.647 346.207 87.709 C 345.089 88.655 344.402 89.686 343.972 91.147 C 340.620 91.319 338.472 90.030 337.613 87.108 C 337.010 85.475 336.237 84.014 335.206 82.811 C 334.175 81.694 332.799 80.749 331.252 80.147 C 328.159 79.116 324.979 78.428 321.713 78.428 C 319.478 78.600 317.846 79.803 316.987 81.865 C 315.353 85.733 314.923 89.686 315.783 93.725 C 315.955 94.413 315.697 95.101 315.096 95.530 C 313.463 96.648 311.830 97.851 310.283 99.225 C 309.252 100.257 308.307 101.202 307.361 102.406 C 306.330 103.695 305.298 104.898 304.095 105.930 C 303.665 103.523 302.291 102.664 299.798 103.265 C 297.220 103.781 295.501 102.835 294.642 100.343 C 289.829 99.483 285.618 97.163 281.922 93.467 C 280.891 92.523 280.031 91.577 279.001 90.632 C 278.657 90.374 278.313 89.944 278.313 89.428 C 279.259 84.273 282.266 80.835 287.508 79.116 C 289.227 78.600 290.860 77.998 292.407 77.225 C 296.790 75.248 301.345 75.162 305.986 77.053 C 309.166 78.343 312.346 79.288 315.697 79.803 C 315.578 77.603 315.463 75.397 315.353 73.186 C 320.190 72.275 325.031 71.358 329.878 70.436 C 330.823 70.865 331.510 71.553 331.769 72.412 C 332.542 74.561 332.370 76.366 330.995 77.998 C 334.518 78.858 337.870 80.233 341.135 82.038 C 344.487 83.928 347.840 83.928 351.277 81.951 C 351.443 79.924 351.615 77.889 351.793 75.850 C 352.394 75.764 352.996 75.420 353.512 75.076 C 355.059 73.443 355.317 71.638 354.371 69.404 C 349.644 64.334 344.058 61.240 337.699 60.208 C 336.753 59.951 336.238 59.521 335.980 58.662 C 338.987 54.193 342.941 53.076 348.011 55.224 C 349.816 56.083 351.793 56.599 353.770 56.943 C 358.668 57.029 363.395 57.630 368.035 58.662 C 368.465 58.834 368.895 59.177 369.325 59.607 C 370.442 61.068 371.559 62.443 372.763 63.818 Z"/>
<path fill="#000000" fill-rule="evenodd" stroke="none" d="M 363.739 114.180 C 363.188 114.242 362.644 114.299 362.106 114.351 C 361.470 114.872 360.840 115.388 360.215 115.899 C 362.472 117.995 364.736 120.086 367.005 122.172 C 367.262 122.172 367.520 122.172 367.692 122.172 C 370.442 121.829 373.192 121.829 375.856 122.086 C 378.865 122.516 381.357 122.344 383.333 121.399 C 383.419 120.539 383.162 119.766 382.387 119.336 C 381.528 118.734 380.669 118.219 379.809 117.790 C 374.739 115.039 369.239 114.523 363.395 116.242 C 363.504 115.560 363.619 114.873 363.739 114.180 Z"/>
<path fill="#000000" fill-rule="evenodd" stroke="none" d="M 295.501 233.123 C 295.210 232.868 294.924 232.611 294.642 232.349 C 291.204 231.747 288.712 230.029 287.165 227.020 C 286.391 225.560 285.274 224.528 283.813 223.841 C 282.094 223.153 280.461 222.294 279.001 221.263 C 278.312 220.918 277.539 220.747 276.680 220.747 C 276.164 221.004 275.649 221.004 275.048 221.004 C 271.867 218.598 268.086 217.825 263.703 218.684 C 262.671 218.856 261.555 218.856 260.523 218.856 C 256.827 219.114 253.906 220.747 251.671 223.669 C 254.421 223.583 257.257 223.755 260.007 224.184 C 263.617 224.872 267.141 225.732 270.664 226.934 C 271.867 227.365 272.985 227.880 274.187 228.395 C 275.219 228.739 276.164 229.341 276.938 230.286 C 277.453 230.888 278.055 231.318 278.743 231.919 C 279.688 235.357 281.836 236.474 285.188 235.615 C 288.626 234.497 292.063 233.724 295.501 233.123 Z"/>
<path fill="#000000" fill-rule="evenodd" stroke="none" d="M 299.798 236.216 C 299.937 237.022 300.079 237.824 300.228 238.622 C 298.509 239.482 297.134 240.771 296.102 242.232 C 295.930 242.662 295.673 243.006 295.587 243.521 C 299.798 243.608 304.095 243.779 308.393 243.951 C 310.541 244.209 312.690 244.295 314.838 243.951 C 318.705 243.264 322.487 242.146 326.011 240.685 C 325.580 239.139 323.948 238.107 321.197 237.334 C 315.869 236.045 310.541 235.099 305.213 234.669 C 304.267 234.497 303.408 234.669 302.463 235.013 C 301.603 235.357 300.658 235.787 299.798 236.216 Z"/>
</g>
<g id="specs_2">
<path fill="#ff00ff" fill-rule="evenodd" stroke="none" d="M 214.192 477.118 C 214.221 477.118 505.779 477.118 505.808 477.118 C 505.808 477.089 505.808 185.531 505.808 185.502 C 505.779 185.502 214.221 185.502 214.192 185.502 C 214.192 185.531 214.192 477.089 214.192 477.118 Z"/>
<path fill="#ff0000" fill-rule="evenodd" stroke="none" d="M 360.000 678.308 C 360.001 678.311 372.416 713.074 372.417 713.078 C 372.416 713.077 360.001 701.525 360.000 701.524 C 359.999 701.525 347.584 713.077 347.583 713.078 C 347.584 713.074 359.999 678.311 360.000 678.308 Z"/>
<path fill="#0000ff" fill-rule="evenodd" stroke="none" d="M 360.000 24.555 C 360.001 24.557 367.212 44.750 367.213 44.752 C 367.212 44.752 360.001 38.042 360.000 38.041 C 359.999 38.042 352.788 44.752 352.787 44.752 C 352.788 44.750 359.999 24.557 360.000 24.555 Z"/>
<path fill="#00ff00" fill-rule="evenodd" stroke="none" d="M 52.912 332.273 C 52.914 332.272 71.056 325.689 71.058 325.688 C 71.057 325.689 65.051 332.211 65.050 332.212 C 65.051 332.212 71.123 338.673 71.123 338.673 C 71.122 338.673 52.914 332.273 52.912 332.273 Z"/>
<path fill="#ffff00" fill-rule="evenodd" stroke="none" d="M 142.183 550.267 C 142.184 550.266 150.239 532.728 150.240 532.726 C 150.240 532.727 150.664 541.583 150.664 541.584 C 150.665 541.584 159.528 541.799 159.529 541.799 C 159.528 541.799 142.185 550.266 142.183 550.267 Z"/>
<path fill="#ffff00" fill-rule="evenodd" stroke="none" d="M 577.817 550.053 C 577.816 550.051 569.411 532.678 569.410 532.676 C 569.410 532.677 569.164 541.540 569.164 541.541 C 569.163 541.541 560.305 541.933 560.304 541.933 C 560.305 541.934 577.815 550.052 577.817 550.053 Z"/>
<path fill="#00ff00" fill-rule="evenodd" stroke="none" d="M 667.088 332.273 C 667.086 332.272 648.944 325.689 648.942 325.688 C 648.943 325.689 654.949 332.211 654.950 332.212 C 654.949 332.212 648.877 338.673 648.877 338.673 C 648.878 338.673 667.086 332.273 667.088 332.273 Z"/>
<path fill="#00ffff" fill-rule="evenodd" stroke="none" d="M 576.975 113.566 C 576.974 113.568 570.531 131.760 570.531 131.762 C 570.530 131.761 569.310 122.979 569.310 122.979 C 569.309 122.979 560.463 123.563 560.462 123.563 C 560.463 123.562 576.973 113.567 576.975 113.566 Z"/>
<path fill="#00ffff" fill-rule="evenodd" stroke="none" d="M 143.126 114.169 C 143.126 114.171 150.768 131.893 150.769 131.895 C 150.769 131.894 151.400 123.050 151.401 123.049 C 151.401 123.049 160.268 123.043 160.268 123.043 C 160.267 123.042 143.127 114.170 143.126 114.169 Z"/>
<path fill="#be0027" fill-rule="evenodd" stroke="none" d="M 360.000 650.587 C 360.001 650.584 372.416 615.821 372.417 615.817 C 372.416 615.819 360.001 627.370 360.000 627.371 C 359.999 627.370 347.584 615.819 347.583 615.817 C 347.584 615.821 359.999 650.584 360.000 650.587 Z"/>
</g>
</g>
</svg>
