<?xml version="1.0" encoding="utf-8"?>
<!-- Generator: Moho 12.5 build 22414 -->
<!DOCTYPE svg PUBLIC "-//W3C//DTD SVG 1.1//EN" "http://www.w3.org/Graphics/SVG/1.1/DTD/svg11.dtd">
<svg version="1.1" id="Frame_0" xmlns="http://www.w3.org/2000/svg" xmlns:xlink="http://www.w3.org/1999/xlink" width="720px" height="720px">
<g id="globe">
<g id="globe1.svg">
<path fill="#ffffff" fill-rule="evenodd" stroke="#000000" stroke-width="4" stroke-linecap="round" stroke-linejoin="round" d="M 572.101 132.283 C 570.009 130.017 567.831 127.838 565.652 125.572 C 508.825 68.831 440.317 40.504 359.956 40.504 C 303.739 40.504 253.187 54.450 208.475 82.341 C 208.213 82.428 207.777 82.690 207.515 82.864 C 188.777 94.630 170.997 108.924 154.349 125.572 C 97.522 182.399 69.195 250.994 69.195 331.354 C 69.194 411.627 97.521 480.134 154.349 536.961 C 211.090 593.702 279.683 622.116 359.956 622.116 C 440.317 622.116 508.824 593.702 565.652 536.961 C 622.392 480.134 650.806 411.627 650.806 331.354 C 650.806 254.044 624.570 187.804 572.101 132.283 Z"/>
<path fill="#000000" fill-rule="evenodd" stroke="none" d="M 613.916 209.520 C 613.966 209.460 614.024 209.402 614.090 209.345 C 614.090 209.345 614.003 209.345 613.916 209.520 C 614.081 210.106 614.169 210.251 614.264 210.392 C 612.956 210.741 611.997 210.218 611.299 208.823 C 611.125 208.299 610.775 207.950 610.427 207.601 C 604.584 201.845 599.700 195.479 595.601 188.503 C 603.820 195.804 612.047 203.100 620.281 210.392 C 620.186 207.867 620.099 205.338 620.020 202.805 C 620.215 201.879 620.419 200.949 620.631 200.014 C 608.943 177.165 594.554 156.147 577.373 137.048 C 548.506 105.129 514.494 80.447 475.250 63.180 C 471.936 61.610 468.447 60.389 464.872 59.430 C 463.825 58.994 462.865 59.081 461.820 59.430 C 455.017 62.570 447.953 63.442 440.539 62.133 C 439.719 60.773 438.905 59.407 438.097 58.034 C 437.923 57.599 437.662 57.162 437.574 56.727 C 437.138 55.243 436.266 54.546 435.045 54.546 C 430.685 54.371 427.894 56.552 426.586 61.174 C 424.719 62.197 422.859 63.215 421.004 64.227 C 422.306 65.802 423.615 67.372 424.929 68.936 C 423.353 70.889 421.783 72.837 420.219 74.779 C 420.824 77.342 421.434 79.901 422.051 82.453 C 422.661 82.453 423.272 82.453 424.057 82.366 C 426.673 82.105 429.202 82.715 431.382 84.285 C 432.691 81.581 434.783 80.361 437.749 80.796 C 439.283 81.820 440.824 82.837 442.371 83.849 C 442.633 84.285 442.807 84.721 442.807 85.157 C 443.243 87.861 444.726 89.692 447.254 90.564 C 450.482 91.610 453.272 91.436 455.453 90.041 C 455.714 89.430 455.627 88.645 455.365 87.861 C 454.493 85.767 452.836 84.285 450.656 83.413 C 452.051 82.018 453.796 81.233 455.889 81.233 C 458.505 81.145 460.947 81.843 462.953 83.325 C 464.080 83.476 465.214 83.622 466.354 83.762 C 467.313 86.029 467.226 88.384 466.180 90.739 C 465.657 91.697 464.959 92.308 463.825 92.657 C 457.894 94.314 451.789 94.576 445.511 93.355 C 444.464 92.570 443.679 91.524 443.505 90.215 C 442.633 85.681 440.191 84.111 436.266 85.332 C 435.046 87.250 434.958 89.082 436.266 91.087 C 438.534 94.750 438.011 97.716 434.696 99.983 C 434.435 99.721 434.086 99.459 433.911 99.198 C 430.010 99.988 426.115 100.773 422.225 101.553 C 423.266 104.494 424.312 107.431 425.365 110.361 C 423.004 111.238 420.649 112.111 418.301 112.977 C 417.516 113.064 416.731 113.064 415.771 113.064 C 413.329 113.326 412.022 114.373 411.760 116.378 C 415.736 118.361 419.719 120.337 423.708 122.309 C 424.864 122.547 426.027 122.780 427.196 123.007 C 427.452 125.512 427.713 128.012 427.981 130.507 C 421.841 131.355 415.707 132.198 409.580 133.036 C 409.318 133.036 409.056 133.036 408.795 133.036 C 405.306 132.339 402.254 132.949 399.899 134.780 C 400.824 135.716 401.754 136.646 402.690 137.571 C 403.324 141.180 403.963 144.785 404.608 148.385 C 405.300 150.599 405.997 152.809 406.701 155.013 C 408.091 155.338 409.486 155.657 410.887 155.973 C 411.115 156.297 411.347 156.617 411.586 156.932 C 413.178 157.024 414.777 157.111 416.382 157.193 C 417.190 159.349 418.004 161.500 418.824 163.647 C 416.992 167.571 414.464 170.973 411.324 173.851 C 410.365 174.723 409.231 175.421 408.010 175.857 C 404.085 176.990 401.818 179.345 401.120 182.833 C 401.492 183.013 401.870 183.186 402.254 183.357 C 403.998 187.281 403.388 190.944 400.335 194.258 C 396.847 198.182 392.661 200.189 387.777 200.101 C 386.992 200.101 386.381 200.363 386.119 201.061 C 383.329 206.468 380.015 211.613 376.265 216.672 C 375.655 217.369 375.218 218.154 374.783 218.939 C 373.474 221.730 373.212 224.607 374.085 227.573 C 374.869 230.363 375.655 233.154 376.178 235.945 C 376.352 236.817 376.439 237.689 376.439 238.649 C 376.700 251.032 376.963 263.503 377.399 275.888 C 378.097 276.585 378.881 277.022 379.841 277.196 C 380.713 277.370 381.585 277.806 382.195 278.591 C 383.504 279.812 384.812 281.121 386.207 282.341 C 386.643 282.778 387.079 282.952 387.690 282.865 C 390.132 282.603 392.224 283.039 394.056 284.522 C 394.225 285.688 394.399 286.851 394.579 288.010 C 395.881 289.874 397.190 291.735 398.504 293.592 C 401.818 295.860 405.219 298.214 408.446 300.656 C 410.626 302.313 412.981 303.533 415.510 304.406 C 419.522 305.975 422.836 308.418 425.452 311.732 C 428.418 309.987 431.470 308.330 434.609 306.761 C 437.749 305.191 441.063 304.231 444.551 303.970 C 446.121 304.144 447.168 304.929 447.778 306.499 C 448.301 307.894 449.348 308.418 450.918 308.156 C 457.022 307.021 462.865 305.016 468.360 301.876 C 471.935 299.871 475.511 299.173 479.087 299.696 C 479.523 299.784 479.784 299.958 479.872 300.220 C 481.005 305.103 483.883 308.331 488.331 310.161 C 489.813 310.685 491.209 310.860 492.779 310.685 C 494.784 310.510 496.790 310.249 498.797 309.987 C 501.761 310.336 503.070 312.255 502.633 315.481 C 502.372 317.662 502.023 320.016 501.674 322.458 C 500.715 328.301 500.541 334.057 501.413 339.901 C 502.983 342.778 504.727 345.744 506.646 348.448 C 514.146 359.523 517.022 371.383 515.192 384.291 C 515.192 384.815 515.192 385.250 515.367 385.687 C 516.849 388.303 517.460 391.007 517.460 393.797 C 516.762 394.408 515.977 395.105 515.192 395.716 C 513.971 396.850 512.664 397.983 511.268 399.030 C 509.523 400.251 508.390 401.908 507.866 404.001 C 507.343 406.442 506.994 408.885 506.820 411.414 C 506.733 412.809 506.384 414.117 505.686 415.338 C 503.418 419.262 503.070 423.449 504.640 427.723 C 505.599 430.338 506.907 432.955 508.564 435.310 C 510.919 438.885 511.703 442.897 510.832 447.432 C 510.534 447.666 510.243 447.899 509.960 448.129 C 508.739 451.095 507.866 454.234 507.431 457.374 C 506.994 460.339 507.518 463.130 508.826 465.746 C 509.873 467.926 510.570 470.281 510.919 472.549 C 511.093 473.159 511.006 473.769 510.832 474.293 C 508.477 480.049 507.605 486.154 508.216 492.433 C 511.007 493.567 514.058 494.352 517.285 494.788 C 518.768 494.875 520.251 494.526 521.471 493.654 C 522.605 493.044 523.739 492.520 524.785 492.084 C 527.314 491.212 529.844 490.950 532.634 491.299 C 533.768 491.212 534.815 490.776 535.600 490.078 C 537.518 488.683 539.612 487.462 541.705 486.416 C 545.280 484.497 549.030 482.665 552.606 480.747 C 557.490 478.305 560.978 474.381 562.810 469.322 C 564.030 466.008 565.774 463.043 567.955 460.426 C 568.478 459.816 569.089 459.206 569.525 458.595 C 571.357 456.153 572.664 453.362 573.276 450.310 C 579.554 447.955 582.781 443.420 583.043 436.618 C 583.043 435.397 583.130 434.176 583.130 432.956 C 583.304 429.380 584.961 426.414 587.926 424.234 C 589.932 422.751 591.938 421.094 593.944 419.524 C 594.554 419.001 595.340 418.390 595.950 417.955 C 600.049 414.902 602.578 410.978 603.625 406.181 C 603.799 405.222 603.973 404.262 604.060 403.478 C 605.107 395.280 605.543 387.256 605.543 379.233 C 605.543 376.791 605.717 374.349 605.892 371.907 C 606.415 367.459 606.328 363.186 605.456 359.000 C 605.369 358.389 605.369 357.779 605.456 357.343 C 606.676 352.372 608.945 348.186 612.345 344.610 C 612.607 343.302 612.781 341.994 612.869 340.686 C 613.392 335.104 615.572 330.307 619.671 326.209 C 622.113 323.767 623.508 320.714 623.857 317.139 C 624.032 315.569 624.293 314.173 624.904 312.691 C 626.648 308.505 627.607 303.970 627.869 299.347 C 628.043 298.214 628.131 296.993 628.393 295.859 C 630.137 287.312 630.398 278.679 629.438 270.045 C 628.393 271.440 627.084 272.835 625.689 274.056 C 624.207 275.365 622.636 276.673 621.154 277.807 C 619.060 279.551 616.793 280.248 614.351 279.986 C 613.151 276.153 611.960 272.316 610.775 268.475 C 611.727 269.234 612.686 269.990 613.654 270.742 C 614.089 270.568 614.351 270.307 614.613 269.958 C 614.962 269.435 615.398 268.998 615.834 268.649 C 617.752 267.079 619.147 265.074 619.932 262.719 C 622.113 255.742 624.729 248.852 627.694 242.050 C 628.131 241.091 628.218 240.044 628.131 239.085 C 626.911 228.532 623.335 218.939 617.142 210.130 C 616.233 209.844 615.332 209.554 614.439 209.258 C 613.916 209.520 613.916 209.520 613.916 209.695 M 614.439 209.258 C 614.264 209.258 614.177 209.345 614.090 209.345 M 526.530 142.630 C 526.094 142.368 525.657 142.280 525.134 142.193 C 522.169 141.409 520.076 139.577 518.855 136.525 C 517.372 132.687 516.151 128.588 515.192 124.402 C 516.638 124.698 518.092 124.989 519.553 125.274 C 526.356 125.449 532.809 127.019 539.001 129.984 C 543.274 132.077 545.716 135.303 546.501 139.838 C 547.685 141.384 548.877 142.924 550.076 144.460 C 549.205 145.332 548.158 145.681 546.938 145.333 C 545.019 144.897 543.535 144.025 542.402 142.455 C 541.705 141.408 540.658 140.798 539.524 140.362 C 538.914 140.187 538.565 139.838 538.216 139.315 C 537.279 139.466 536.348 139.611 535.425 139.751 C 533.420 142.891 530.454 143.851 526.530 142.630 M 512.663 146.117 C 513.092 145.047 513.528 143.971 513.971 142.891 C 514.233 142.891 514.407 142.891 514.669 142.803 C 517.023 143.240 518.332 144.635 518.507 147.077 C 518.645 147.605 518.790 148.128 518.942 148.647 C 521.522 151.297 524.110 153.942 526.704 156.583 C 528.819 156.791 530.941 156.995 533.071 157.193 C 533.506 157.629 533.943 157.979 534.466 158.152 C 538.739 159.723 543.100 159.810 547.461 158.240 C 547.461 157.978 547.461 157.717 547.461 157.542 C 547.635 155.798 547.896 155.362 548.333 156.408 C 549.633 157.198 550.941 157.984 552.257 158.764 C 552.976 158.971 553.703 159.175 554.437 159.374 C 556.494 165.425 558.557 171.472 560.629 177.514 C 560.455 178.647 559.670 179.346 558.362 179.346 C 556.879 179.694 555.483 180.479 554.437 181.787 C 553.827 182.485 552.955 182.833 551.821 182.572 C 547.548 181.525 543.100 180.479 538.739 179.607 C 537.867 179.345 537.082 178.996 536.472 178.560 C 534.030 176.729 531.326 175.682 528.361 175.159 C 527.714 175.425 527.075 175.687 526.443 175.944 C 523.041 174.548 520.163 174.985 517.634 176.903 C 517.975 179.175 518.325 181.443 518.681 183.706 C 515.447 183.507 512.220 183.303 509.000 183.095 C 508.441 182.547 507.888 181.995 507.343 181.438 C 505.737 181.036 504.139 180.629 502.547 180.217 C 502.547 179.345 502.460 178.560 502.285 177.775 C 502.110 176.816 501.588 176.293 500.802 176.031 C 498.187 175.508 495.832 174.809 493.389 173.676 C 492.866 173.414 492.343 173.241 491.732 172.891 C 488.593 172.979 485.627 172.630 482.750 171.932 C 482.511 168.361 482.278 164.786 482.052 161.206 C 480.592 161.007 479.138 160.803 477.692 160.595 C 477.103 158.942 476.522 157.285 475.947 155.623 C 471.935 154.490 468.098 154.839 464.522 156.757 C 461.906 156.321 459.202 155.973 456.412 155.798 C 454.057 155.536 451.877 156.234 449.958 157.717 C 446.731 160.507 443.156 162.338 439.057 163.472 C 437.574 163.822 436.266 163.909 434.784 163.647 C 429.725 163.560 424.842 162.339 420.132 160.071 C 420.918 158.240 422.051 157.107 423.795 156.845 C 425.277 157.019 426.760 157.106 428.330 157.106 C 432.865 157.106 436.005 155.362 437.574 151.612 C 436.870 150.832 436.173 150.047 435.481 149.257 C 434.522 147.251 434.871 145.507 436.528 144.199 C 438.447 142.629 440.714 141.408 443.243 140.449 C 443.236 139.262 443.236 138.070 443.243 136.873 C 442.510 136.500 441.783 136.122 441.063 135.740 C 441.499 135.391 441.935 135.216 442.283 134.868 C 446.731 134.867 451.092 134.083 455.278 132.600 C 459.377 131.204 463.302 131.466 467.139 133.472 C 470.017 137.397 474.029 138.879 478.999 138.007 C 483.441 141.471 487.888 144.930 492.343 148.385 C 492.685 147.401 493.034 146.413 493.389 145.420 C 494.226 145.309 495.069 145.193 495.918 145.071 C 496.006 144.112 495.395 143.414 494.261 142.891 C 490.599 141.408 487.198 139.577 483.970 137.222 C 482.488 136.176 480.831 135.303 478.999 134.954 C 475.686 134.169 473.854 132.338 473.679 129.198 C 472.975 128.767 472.278 128.332 471.587 127.890 C 476.732 129.372 481.878 130.943 486.936 132.687 C 488.070 132.949 489.029 133.472 489.901 134.169 C 495.133 138.530 500.715 142.804 506.471 147.077 C 506.646 147.513 506.907 147.949 507.082 148.298 C 510.389 151.617 513.703 154.931 517.023 158.240 C 515.563 154.204 514.109 150.163 512.663 146.117 M 570.658 148.211 C 570.048 147.164 569.176 146.466 568.043 145.856 C 565.600 144.722 563.420 143.152 561.414 141.321 C 560.019 139.926 558.449 138.444 556.967 137.048 C 552.693 133.211 550.862 128.588 551.385 123.007 C 553.848 125.803 556.319 128.593 558.797 131.379 C 561.938 133.996 564.990 136.786 568.043 139.577 C 572.229 143.414 575.804 147.513 578.769 152.135 C 580.601 154.926 582.171 157.892 583.392 160.856 C 581.909 160.769 580.601 160.159 579.379 158.850 C 576.240 155.449 573.449 151.874 570.658 148.211 M 570.745 196.525 C 571.530 197.048 572.141 197.747 572.403 198.619 C 575.368 202.195 578.595 205.595 582.083 208.823 C 582.694 209.346 583.217 209.956 583.653 210.741 C 589.408 219.637 594.554 228.968 599.264 238.474 C 603.625 247.282 607.461 256.265 610.950 265.509 C 611.037 265.684 611.037 265.859 610.950 266.207 C 610.078 266.382 609.380 265.771 608.857 264.114 C 608.421 262.893 607.723 261.760 606.851 260.713 C 603.450 256.614 600.223 252.254 597.171 247.719 C 591.153 238.735 585.747 229.404 580.949 219.811 C 579.206 216.323 577.112 213.096 574.845 210.043 C 571.357 205.421 568.216 200.363 565.425 195.218 C 567.431 195.043 569.176 195.479 570.745 196.525 Z"/>
<path fill="#000000" fill-rule="evenodd" stroke="none" d="M 465.482 141.844 C 464.952 142.140 464.429 142.431 463.912 142.716 C 464.435 145.682 466.354 147.426 469.842 147.949 C 470.540 144.897 469.406 142.978 466.703 142.193 C 466.267 142.019 465.918 141.845 465.482 141.844 Z"/>
<path fill="#000000" fill-rule="evenodd" stroke="none" d="M 489.378 156.757 C 489.901 157.193 490.599 157.455 491.297 157.455 C 492.082 157.455 492.866 157.193 493.389 156.757 C 493.913 156.321 494.261 155.798 494.261 155.275 C 494.261 154.577 493.913 154.054 493.389 153.705 C 492.866 153.269 492.082 153.094 491.297 153.094 C 490.598 153.094 489.901 153.269 489.378 153.705 C 488.768 154.054 488.506 154.577 488.506 155.275 C 488.506 155.798 488.768 156.321 489.378 156.757 Z"/>
<path fill="#000000" fill-rule="evenodd" stroke="none" d="M 408.185 97.018 C 408.271 97.367 408.097 97.541 407.835 97.802 C 403.998 100.331 402.864 103.471 404.434 107.134 C 409.196 106.732 413.963 106.326 418.737 105.913 C 419.347 105.913 420.045 105.826 420.656 105.739 C 421.173 104.349 421.696 102.954 422.225 101.553 C 421.353 99.983 420.306 98.587 419.260 97.367 C 416.295 94.314 412.894 92.744 408.969 92.657 C 408.271 93.878 407.923 95.361 408.185 97.018 Z"/>
<path fill="#000000" fill-rule="evenodd" stroke="none" d="M 371.294 49.400 C 378.009 48.354 384.724 48.528 391.440 50.098 C 397.457 51.494 402.079 49.924 405.306 45.476 C 404.457 44.639 403.614 43.796 402.777 42.947 C 366.411 38.061 330.130 39.633 294.025 47.569 C 247.105 57.947 205.680 79.052 169.749 110.797 C 157.975 121.088 147.074 132.251 136.870 144.199 C 129.632 152.659 123.004 161.379 116.725 170.624 C 110.620 179.519 105.125 188.851 100.154 198.357 C 95.183 207.951 90.822 217.631 87.073 227.660 C 86.201 230.102 85.329 232.631 84.369 235.160 C 86.898 238.823 88.207 242.922 88.032 247.195 C 88.032 249.201 88.643 250.945 89.951 252.516 C 92.481 255.829 94.573 259.405 96.230 263.242 C 96.753 264.463 97.364 265.684 97.974 266.992 C 99.196 269.347 100.416 271.876 101.637 274.231 C 102.684 276.237 103.032 278.591 102.858 280.946 C 102.335 286.091 103.730 290.365 107.131 293.679 C 109.076 293.101 111.024 292.520 112.975 291.935 C 113.873 295.136 114.774 298.334 115.678 301.528 C 115.678 308.069 115.242 314.610 114.544 321.151 C 114.544 321.499 114.283 321.848 113.934 322.284 C 110.010 326.384 108.003 331.180 108.003 336.762 C 108.003 341.906 108.003 346.965 108.003 351.936 C 108.003 354.639 108.091 357.343 108.352 360.046 C 108.440 361.529 108.352 363.012 108.003 364.582 C 117.597 376.791 124.138 390.483 127.888 405.571 C 128.062 406.269 128.498 407.054 129.021 407.751 C 132.510 412.025 136.783 415.339 141.841 417.868 C 142.888 418.391 143.760 419.089 144.632 419.961 C 148.818 424.583 152.045 429.990 154.225 436.008 C 156.667 442.897 158.063 449.961 158.586 457.200 C 158.673 460.077 159.284 462.956 160.330 465.659 C 161.202 468.101 162.336 470.456 163.557 472.724 C 164.255 474.031 164.865 475.340 165.389 476.560 C 165.999 478.130 166.871 479.526 167.918 480.921 C 169.313 482.753 170.185 484.758 170.534 487.026 C 170.621 487.549 170.882 488.072 171.231 488.509 C 172.278 489.643 172.976 490.776 173.238 492.172 C 173.499 493.305 173.935 494.526 174.371 495.834 C 175.767 499.322 177.337 502.724 179.342 505.950 C 181.086 509.003 182.569 512.317 183.528 515.718 C 184.139 517.811 184.749 519.817 185.360 521.910 C 185.883 523.828 186.581 525.747 187.628 527.666 C 188.500 529.323 189.633 530.980 190.854 532.550 C 198.965 542.492 207.249 552.172 215.709 561.766 C 216.669 562.813 217.454 563.946 218.238 565.167 C 221.378 564.993 224.430 565.429 227.483 566.562 C 230.622 567.784 233.675 569.092 236.727 570.487 C 238.036 571.098 239.344 570.923 240.564 570.051 C 240.390 568.306 239.518 566.999 237.949 566.388 C 234.460 564.993 230.797 563.771 227.134 562.813 C 226.087 562.463 225.041 562.202 223.995 562.202 C 222.686 557.667 221.640 553.044 220.941 548.336 C 220.768 547.202 220.244 546.329 219.459 545.457 C 217.454 543.451 215.273 541.969 212.657 541.097 C 212.594 531.185 212.538 521.272 212.483 511.358 C 212.919 511.009 213.354 510.660 213.791 510.485 C 214.053 510.311 214.314 510.137 214.663 510.050 C 215.012 510.050 215.273 510.050 215.709 510.050 C 216.232 510.137 216.843 510.225 217.453 510.398 C 217.885 510.807 218.321 511.214 218.762 511.619 C 223.819 500.979 229.924 490.950 236.902 481.793 C 237.512 480.921 237.948 479.962 237.949 478.828 C 238.646 470.368 238.908 461.734 238.733 453.275 C 238.646 452.490 238.820 451.792 239.256 451.095 C 239.692 450.048 240.216 449.001 240.826 448.043 C 246.233 446.124 251.727 445.426 257.309 445.949 C 257.745 445.687 258.007 445.514 258.356 445.165 C 261.844 442.462 264.460 439.060 266.204 435.048 C 267.251 432.432 267.949 429.815 268.210 427.112 C 268.560 422.751 268.471 418.390 267.687 414.030 C 266.902 409.146 267.164 404.437 268.560 399.902 C 269.257 397.635 270.478 395.716 272.222 393.971 C 274.315 391.966 276.408 389.698 278.414 387.431 C 280.768 384.815 283.124 381.850 285.391 378.710 C 285.653 378.274 285.827 377.838 285.914 377.315 C 286.699 373.041 286.699 368.942 286.001 364.756 C 285.827 363.448 285.304 362.314 284.432 361.268 C 283.560 360.396 283.123 359.349 283.123 358.128 C 283.123 357.605 283.036 357.256 282.775 356.907 C 282.426 356.558 282.165 356.383 281.728 356.297 C 281.380 356.209 281.030 356.035 280.681 356.035 C 280.333 355.861 280.071 355.773 279.722 355.599 C 279.024 355.424 278.414 355.425 277.629 355.425 C 276.932 355.337 276.408 355.598 276.060 356.297 C 274.576 355.860 273.356 354.465 272.222 351.936 C 271.176 349.756 269.345 348.709 266.641 349.145 C 264.460 348.971 262.280 348.360 260.361 347.139 C 259.140 346.529 257.920 345.831 256.524 345.133 C 255.827 342.168 254.083 340.598 251.117 340.336 C 250.158 340.773 249.198 340.860 248.239 340.860 C 240.216 340.424 233.326 337.546 227.395 332.401 C 225.826 331.092 224.866 329.436 224.343 327.429 C 223.558 324.377 222.948 321.412 222.163 318.534 C 221.988 317.749 221.640 317.138 220.941 316.615 C 218.151 314.348 215.273 312.080 212.396 309.987 C 210.825 308.853 209.604 307.633 208.732 306.063 C 208.035 305.017 206.988 304.057 205.680 303.359 C 203.849 302.400 202.192 301.266 200.883 299.784 C 200.273 298.999 199.314 298.737 198.267 298.737 C 197.307 298.912 196.348 299.261 195.476 299.609 C 194.953 299.958 194.256 300.220 193.558 300.220 C 192.076 300.394 190.680 300.656 189.197 301.091 C 184.226 297.429 180.214 292.806 177.162 286.964 C 176.813 286.266 176.464 285.569 175.941 284.870 C 174.284 282.341 172.278 280.423 169.837 278.854 C 167.481 277.283 164.778 276.673 161.813 276.934 C 158.586 277.195 155.533 277.807 152.481 278.854 C 152.046 278.854 151.609 278.854 151.173 278.854 C 150.588 278.130 150.007 277.403 149.429 276.673 C 150.127 272.836 148.818 270.132 145.417 268.475 C 144.894 268.213 144.370 267.777 143.934 267.341 C 141.318 264.289 138.789 264.464 136.173 267.865 C 134.865 269.522 133.731 271.091 132.510 272.748 C 130.766 275.190 129.021 277.545 127.451 279.899 C 126.928 280.684 126.318 281.469 125.707 282.341 C 123.876 284.522 122.045 286.789 120.300 289.056 C 120.039 289.406 119.690 289.755 119.341 290.103 C 118.175 287.723 117.013 285.339 115.853 282.952 C 114.163 283.711 112.477 284.467 110.794 285.219 C 108.091 284.522 106.958 283.039 107.131 280.510 C 107.480 277.108 107.568 273.882 107.568 270.655 C 107.568 267.079 108.091 263.678 109.050 260.364 C 109.748 258.097 109.487 256.003 108.352 253.998 C 106.925 253.537 105.501 253.071 104.079 252.602 C 105.907 244.234 107.739 235.862 109.574 227.486 C 109.280 227.082 108.989 226.676 108.702 226.264 C 107.393 226.439 105.911 227.486 104.515 229.405 C 102.596 231.933 100.939 234.549 99.544 237.253 C 98.291 237.635 97.041 238.013 95.794 238.387 C 94.136 234.201 94.660 229.840 97.102 225.306 C 99.719 220.509 101.811 215.450 103.294 210.130 C 103.469 209.520 103.817 209.171 104.341 208.910 C 105.998 207.863 107.306 206.468 108.265 204.724 C 110.882 200.189 113.324 195.479 115.853 190.857 C 117.160 188.415 119.167 187.194 121.783 187.194 C 121.957 187.194 121.957 187.194 122.045 187.194 C 123.030 188.565 124.018 189.932 125.009 191.294 C 126.318 191.555 127.451 191.119 128.237 189.985 C 129.632 188.066 131.376 186.758 133.469 185.886 C 133.731 185.799 134.167 185.799 134.603 185.886 C 134.778 188.415 134.079 190.770 132.422 193.212 C 132.161 193.648 131.899 194.084 131.638 194.520 C 129.720 197.834 129.545 201.235 130.940 204.462 C 131.551 205.857 131.899 207.340 131.986 208.997 C 133.117 211.269 134.251 213.536 135.388 215.799 C 135.737 215.450 135.998 215.189 136.173 214.753 C 136.347 214.229 136.434 213.706 136.347 213.183 C 136.347 212.399 136.434 211.614 136.783 210.828 C 137.219 209.607 137.045 208.648 136.085 207.950 C 134.428 207.166 134.080 205.683 134.865 203.677 C 137.655 196.787 140.883 190.072 144.458 183.532 C 147.859 177.165 153.091 172.630 159.981 170.100 C 164.516 168.269 168.180 165.217 170.709 160.943 C 172.104 158.764 172.976 156.234 173.499 153.705 C 173.673 153.007 174.023 152.309 174.546 151.786 C 176.029 150.042 177.947 148.646 180.214 147.513 C 182.830 146.292 185.273 145.071 187.628 143.763 C 188.674 143.153 189.546 142.629 190.243 142.019 C 191.115 141.408 191.552 140.711 191.814 139.838 C 192.162 138.443 192.599 137.309 193.209 136.175 C 194.168 134.345 195.215 132.600 196.348 130.942 C 196.872 130.420 197.220 129.635 197.569 128.676 C 197.831 127.454 198.703 126.582 199.837 126.146 C 201.145 125.623 202.453 125.449 203.936 125.711 C 206.291 125.274 208.558 125.361 210.738 125.797 C 213.267 126.321 215.883 126.669 218.500 126.669 C 222.686 127.019 225.128 125.274 225.739 121.524 C 225.826 121.001 226.000 120.478 226.000 120.041 C 226.262 117.077 226.524 114.286 226.873 111.407 C 226.873 110.972 226.698 110.535 226.349 110.187 C 225.826 109.663 225.389 109.140 224.866 108.704 C 227.507 108.418 230.153 108.128 232.802 107.832 C 233.151 108.093 233.413 108.355 233.501 108.704 C 233.588 109.140 233.762 109.489 234.023 109.750 C 234.198 110.100 234.373 110.361 234.721 110.535 C 234.983 110.797 235.332 110.884 235.768 110.884 C 236.465 110.972 237.076 111.320 237.774 111.582 C 238.210 112.018 238.559 112.541 238.646 113.064 C 238.820 113.588 238.907 114.111 239.082 114.635 C 239.169 115.245 239.082 115.768 238.821 116.291 C 238.472 117.250 238.297 118.210 238.384 119.169 C 243.176 119.727 247.973 120.279 252.774 120.826 C 253.384 118.472 253.384 116.204 252.861 113.936 C 252.512 112.018 252.076 110.187 251.815 108.355 C 252.425 106.960 253.384 105.826 254.605 104.867 C 255.652 104.169 256.698 103.558 257.919 103.210 C 258.094 103.035 258.355 103.035 258.530 102.861 C 258.879 102.425 259.141 101.814 259.053 101.291 C 258.879 100.070 258.792 99.024 258.443 97.977 C 257.920 95.971 256.785 94.314 255.303 93.094 C 253.384 93.094 253.384 92.134 255.042 90.128 C 256.612 88.296 258.269 86.814 260.187 85.419 C 260.187 85.331 260.361 85.331 260.448 85.244 C 259.310 82.605 258.176 79.959 257.047 77.308 C 255.589 79.349 254.136 81.384 252.687 83.413 C 252.159 80.977 251.636 78.535 251.117 76.087 C 249.112 75.390 247.105 75.651 245.187 77.133 C 242.308 79.139 239.518 81.581 236.989 84.110 C 236.378 84.197 235.768 84.110 235.157 83.849 C 234.373 83.587 233.588 83.587 232.802 83.849 C 232.105 84.110 231.669 84.547 231.232 85.244 C 230.971 86.029 230.710 86.727 230.360 87.338 C 227.570 89.605 224.430 91.262 221.029 92.395 C 220.331 92.570 219.634 92.832 218.762 93.094 C 217.454 93.442 216.320 93.094 215.273 92.309 C 214.401 90.390 214.750 88.646 216.407 87.338 C 222.512 82.803 228.617 78.181 234.547 73.646 C 236.553 72.162 238.646 71.639 240.826 72.162 C 241.026 73.883 241.228 75.598 241.436 77.308 C 245.622 76.872 248.850 74.517 251.292 70.331 C 252.338 68.325 253.995 67.279 256.175 66.930 C 257.745 66.668 259.227 66.494 260.623 66.494 C 261.495 66.319 262.367 66.145 263.152 65.971 C 263.152 67.279 262.716 68.325 261.931 69.285 C 261.408 69.983 260.623 70.418 259.751 70.680 C 258.791 70.942 257.919 71.378 257.222 72.076 C 257.134 72.250 257.047 72.424 257.047 72.512 C 257.396 74.691 258.704 75.913 260.885 76.000 C 262.716 75.651 264.460 75.041 266.031 73.994 C 266.641 73.645 267.513 73.384 268.385 73.384 C 271.699 73.733 273.617 72.075 274.141 68.587 C 274.315 68.151 274.490 67.714 274.664 67.279 C 276.665 67.982 278.671 68.680 280.681 69.372 C 283.559 69.459 284.955 68.064 285.042 65.099 C 285.216 59.866 287.920 56.900 293.240 56.203 C 293.501 56.116 293.763 55.942 293.938 55.593 C 294.897 53.848 295.420 52.017 295.420 49.924 C 299.631 50.046 303.846 50.163 308.066 50.273 C 308.148 51.383 308.236 52.488 308.328 53.586 C 308.497 53.941 308.671 54.291 308.850 54.633 C 305.012 58.819 300.740 62.657 296.292 66.232 C 292.106 69.459 291.147 73.296 293.328 77.832 C 293.938 79.052 294.636 80.273 295.595 81.233 C 296.205 81.843 296.815 82.367 297.688 82.803 C 298.037 82.977 298.472 83.238 298.909 83.413 C 301.961 81.669 304.839 79.751 307.717 77.657 C 308.502 76.960 309.461 76.523 310.595 76.175 C 315.478 74.604 319.665 71.901 322.892 68.063 C 323.240 67.715 323.677 67.628 324.200 67.715 C 328.648 68.150 333.008 67.802 337.282 66.494 C 339.811 65.884 341.904 64.662 343.822 62.831 C 345.567 60.913 347.747 60.389 350.450 61.087 C 351.410 61.261 352.282 61.087 353.154 60.564 C 354.288 59.866 355.335 59.430 356.468 58.994 C 355.881 58.127 355.300 57.255 354.723 56.377 C 360.242 54.058 365.765 51.732 371.294 49.400 Z"/>
<path fill="#000000" fill-rule="evenodd" stroke="none" d="M 623.160 395.541 C 622.628 395.573 622.105 395.602 621.590 395.629 C 619.845 399.466 617.578 403.042 614.788 406.269 C 612.869 408.623 610.950 411.152 609.119 413.769 C 607.811 415.513 606.764 417.518 605.892 419.524 C 605.369 420.833 604.932 422.053 604.497 423.449 C 602.490 429.554 600.572 435.833 598.566 442.025 C 596.822 447.694 595.426 453.450 594.554 459.293 C 598.479 455.718 602.055 452.054 605.456 448.129 C 606.328 446.996 607.200 445.950 608.072 444.728 C 610.340 441.589 611.909 438.100 612.694 434.089 C 614.438 425.106 617.404 416.560 621.677 408.361 C 623.770 404.350 624.206 400.076 623.160 395.541 Z"/>
<path fill="#000000" fill-rule="evenodd" stroke="none" d="M 148.905 241.526 C 151.169 239.292 153.437 237.054 155.708 234.811 C 153.437 234.467 151.169 234.117 148.905 233.764 C 147.012 233.914 145.123 234.059 143.237 234.201 C 142.012 235.746 140.792 237.286 139.574 238.823 C 142.681 239.728 145.792 240.629 148.905 241.526 Z"/>
<path fill="#000000" fill-rule="evenodd" stroke="none" d="M 156.144 239.172 C 156.057 239.259 156.144 239.434 156.231 239.434 C 157.538 241.614 159.458 242.486 162.075 242.137 C 161.664 241.037 161.257 239.932 160.853 238.823 C 159.280 238.943 157.711 239.060 156.144 239.172 Z"/>
<path fill="#000000" fill-rule="evenodd" stroke="none" d="M 121.521 217.369 C 121.663 217.780 121.809 218.187 121.958 218.590 C 123.789 220.247 125.446 221.991 127.016 223.910 C 127.975 225.044 128.498 226.264 128.498 227.573 C 128.760 231.759 130.678 234.899 134.167 236.817 C 135.039 236.817 135.823 236.555 136.608 236.120 C 138.352 235.334 139.225 234.114 139.399 232.457 C 139.399 232.282 139.399 232.195 139.399 232.021 C 137.568 227.311 134.603 223.474 130.504 220.422 C 129.370 219.724 128.323 219.026 127.451 218.415 C 125.707 217.107 123.702 216.759 121.521 217.369 Z"/>
<path fill="#000000" fill-rule="evenodd" stroke="none" d="M 399.114 87.338 C 399.027 87.512 398.852 87.686 398.765 87.861 C 397.457 90.040 397.893 92.134 400.073 93.878 C 396.760 92.919 394.666 93.966 393.533 96.930 C 392.224 100.768 392.050 104.344 393.097 107.832 C 395.975 106.436 398.329 104.430 400.422 101.901 C 402.603 99.198 402.515 96.582 400.161 93.878 C 402.865 95.100 405.219 94.576 406.876 92.309 C 406.004 88.035 403.388 86.379 399.114 87.338 Z"/>
</g>
<g id="specs_2">
<path fill="#ff00ff" fill-rule="evenodd" stroke="none" d="M 214.192 477.118 C 214.221 477.118 505.779 477.118 505.808 477.118 C 505.808 477.089 505.808 185.531 505.808 185.502 C 505.779 185.502 214.221 185.502 214.192 185.502 C 214.192 185.531 214.192 477.089 214.192 477.118 Z"/>
<path fill="#ff0000" fill-rule="evenodd" stroke="none" d="M 360.000 678.308 C 360.001 678.311 372.416 713.074 372.417 713.078 C 372.416 713.077 360.001 701.525 360.000 701.524 C 359.999 701.525 347.584 713.077 347.583 713.078 C 347.584 713.074 359.999 678.311 360.000 678.308 Z"/>
<path fill="#0000ff" fill-rule="evenodd" stroke="none" d="M 360.000 24.555 C 360.001 24.557 367.212 44.750 367.213 44.752 C 367.212 44.752 360.001 38.042 360.000 38.041 C 359.999 38.042 352.788 44.752 352.787 44.752 C 352.788 44.750 359.999 24.557 360.000 24.555 Z"/>
<path fill="#00ff00" fill-rule="evenodd" stroke="none" d="M 52.912 332.273 C 52.914 332.272 71.056 325.689 71.058 325.688 C 71.057 325.689 65.051 332.211 65.050 332.212 C 65.051 332.212 71.123 338.673 71.123 338.673 C 71.122 338.673 52.914 332.273 52.912 332.273 Z"/>
<path fill="#ffff00" fill-rule="evenodd" stroke="none" d="M 142.183 550.267 C 142.184 550.266 150.239 532.728 150.240 532.726 C 150.240 532.727 150.664 541.583 150.664 541.584 C 150.665 541.584 159.528 541.799 159.529 541.799 C 159.528 541.799 142.185 550.266 142.183 550.267 Z"/>
<path fill="#ffff00" fill-rule="evenodd" stroke="none" d="M 577.817 550.053 C 577.816 550.051 569.411 532.678 569.410 532.676 C 569.410 532.677 569.164 541.540 569.164 541.541 C 569.163 541.541 560.305 541.933 560.304 541.933 C 560.305 541.934 577.815 550.052 577.817 550.053 Z"/>
<path fill="#00ff00" fill-rule="evenodd" stroke="none" d="M 667.088 332.273 C 667.086 332.272 648.944 325.689 648.942 325.688 C 648.943 325.689 654.949 332.211 654.950 332.212 C 654.949 332.212 648.877 338.673 648.877 338.673 C 648.878 338.673 667.086 332.273 667.088 332.273 Z"/>
<path fill="#00ffff" fill-rule="evenodd" stroke="none" d="M 576.975 113.566 C 576.974 113.568 570.531 131.760 570.531 131.762 C 570.530 131.761 569.310 122.979 569.310 122.979 C 569.309 122.979 560.463 123.563 560.462 123.563 C 560.463 123.562 576.973 113.567 576.975 113.566 Z"/>
<path fill="#00ffff" fill-rule="evenodd" stroke="none" d="M 143.126 114.169 C 143.126 114.171 150.768 131.893 150.769 131.895 C 150.769 131.894 151.400 123.050 151.401 123.049 C 151.401 123.049 160.268 123.043 160.268 123.043 C 160.267 123.042 143.127 114.170 143.126 114.169 Z"/>
<path fill="#be0027" fill-rule="evenodd" stroke="none" d="M 360.000 650.587 C 360.001 650.584 372.416 615.821 372.417 615.817 C 372.416 615.819 360.001 627.370 360.000 627.371 C 359.999 627.370 347.584 615.819 347.583 615.817 C 347.584 615.821 359.999 650.584 360.000 650.587 Z"/>
</g>
</g>
</svg>
