<?xml version="1.0" encoding="utf-8"?>
<!-- Generator: Moho 12.5 build 22414 -->
<!DOCTYPE svg PUBLIC "-//W3C//DTD SVG 1.1//EN" "http://www.w3.org/Graphics/SVG/1.1/DTD/svg11.dtd">
<svg version="1.1" id="Frame_0" xmlns="http://www.w3.org/2000/svg" xmlns:xlink="http://www.w3.org/1999/xlink" width="720px" height="720px">
<g id="goat_horn">
<g id="goat_horn">
<path fill="#ffffff" fill-rule="evenodd" stroke="#000000" stroke-width="4" stroke-linecap="round" stroke-linejoin="round" d="M 252.376 221.785 C 252.372 221.794 207.722 319.241 207.718 319.251 C 207.716 319.264 195.575 428.225 195.574 428.237 C 195.576 428.253 216.175 560.677 216.177 560.690 C 216.188 560.715 271.887 687.743 271.892 687.753 C 271.902 687.755 319.760 702.030 375.180 697.195 C 455.663 690.173 492.194 657.847 492.206 657.843 C 492.200 657.835 431.916 588.464 417.005 563.792 C 409.232 550.931 375.545 477.694 369.698 453.680 C 365.553 436.659 358.437 390.074 358.557 359.092 C 358.659 332.680 362.902 303.095 370.147 272.728 C 377.334 242.607 385.629 216.049 395.208 193.955 C 406.679 167.499 423.514 138.527 436.148 121.012 C 448.453 103.953 471.073 84.436 481.946 76.009 C 518.330 47.810 569.990 25.953 569.994 25.944 C 569.989 25.949 456.700 51.908 456.679 51.913 C 456.671 51.917 381.387 89.082 381.378 89.087 C 381.371 89.093 309.070 148.344 309.061 148.351 C 309.055 148.358 252.381 221.778 252.376 221.785 Z"/>
<path fill="none" stroke="#000000" stroke-width="4" stroke-linecap="round" stroke-linejoin="round" d="M 456.679 51.913 C 456.680 51.915 454.943 61.463 462.011 68.928 C 470.396 77.785 481.944 76.008 481.946 76.009 C 518.330 47.810 569.990 25.953 569.994 25.944 C 569.989 25.949 456.700 51.908 456.679 51.913 C 456.671 51.917 381.387 89.082 381.378 89.087 C 381.381 89.089 391.264 107.724 403.895 115.739 C 418.074 124.735 436.144 121.012 436.148 121.012 C 448.453 103.953 471.073 84.436 481.946 76.009 M 309.061 148.351 C 309.065 148.354 321.428 169.361 348.372 183.163 C 373.035 195.795 395.204 193.953 395.208 193.955 C 406.679 167.499 423.514 138.527 436.148 121.012 M 216.177 560.690 C 216.188 560.692 261.121 583.956 325.456 583.318 C 382.210 582.755 416.996 563.794 417.005 563.792 C 409.232 550.931 375.545 477.694 369.698 453.680 C 369.690 453.681 336.584 469.493 289.076 464.261 C 231.654 457.938 195.583 428.240 195.574 428.237 C 195.576 428.253 216.175 560.677 216.177 560.690 C 216.188 560.715 271.887 687.743 271.892 687.753 C 271.902 687.755 319.760 702.030 375.180 697.195 C 455.663 690.173 492.194 657.847 492.206 657.843 C 492.200 657.835 431.916 588.464 417.005 563.792 M 207.718 319.251 C 207.725 319.255 235.396 351.365 285.502 362.790 C 326.619 372.165 358.550 359.093 358.557 359.092 C 358.659 332.680 362.902 303.095 370.147 272.728 C 370.141 272.727 342.220 273.965 309.046 260.039 C 272.700 244.780 252.382 221.789 252.376 221.785 C 252.381 221.778 309.055 148.358 309.061 148.351 C 309.070 148.344 381.371 89.093 381.378 89.087 M 370.147 272.728 C 377.334 242.607 385.629 216.049 395.208 193.955 M 369.698 453.680 C 365.553 436.659 358.437 390.074 358.557 359.092 M 207.718 319.251 C 207.716 319.264 195.575 428.225 195.574 428.237 M 252.376 221.785 C 252.372 221.794 207.722 319.241 207.718 319.251 "/>
</g>
<g id="specs">
<path fill="#ff0000" fill-rule="evenodd" stroke="none" d="M 335.783 581.218 C 335.787 581.221 371.210 620.734 371.213 620.738 C 371.211 620.737 348.408 612.114 348.406 612.113 C 348.405 612.116 338.163 634.239 338.162 634.241 C 338.161 634.236 335.783 581.223 335.783 581.218 Z"/>
<path fill="#0000ff" fill-rule="evenodd" stroke="none" d="M 570.285 25.592 C 570.283 25.594 547.346 46.187 547.343 46.189 C 547.344 46.187 552.343 32.938 552.343 32.937 C 552.342 32.936 539.487 26.996 539.486 26.996 C 539.489 26.995 570.282 25.592 570.285 25.592 Z"/>
<path fill="#00ffff" fill-rule="evenodd" stroke="none" d="M 453.091 119.516 C 453.088 119.517 424.468 130.967 424.465 130.968 C 424.466 130.967 433.716 120.245 433.717 120.244 C 433.716 120.243 423.688 110.244 423.687 110.243 C 423.690 110.244 453.088 119.515 453.091 119.516 Z"/>
<path fill="#00ffff" fill-rule="evenodd" stroke="none" d="M 377.464 71.003 C 377.464 71.006 374.997 102.472 374.997 102.476 C 374.998 102.474 382.659 90.163 382.659 90.162 C 382.661 90.163 395.492 96.917 395.493 96.918 C 395.491 96.915 377.466 71.005 377.464 71.003 Z"/>
<path fill="#00ff00" fill-rule="evenodd" stroke="none" d="M 375.974 349.013 C 375.972 349.015 353.158 369.745 353.156 369.747 C 353.156 369.745 358.076 356.466 358.077 356.465 C 358.075 356.464 345.185 350.601 345.184 350.601 C 345.187 350.600 375.971 349.013 375.974 349.013 Z"/>
<path fill="#00ff00" fill-rule="evenodd" stroke="none" d="M 196.789 304.554 C 196.791 304.555 223.200 320.453 223.203 320.455 C 223.202 320.455 209.069 319.556 209.068 319.556 C 209.068 319.558 207.154 333.589 207.154 333.590 C 207.153 333.587 196.790 304.557 196.789 304.554 Z"/>
<path fill="#ffff00" fill-rule="evenodd" stroke="none" d="M 293.379 707.725 C 293.378 707.723 281.727 679.184 281.726 679.181 C 281.727 679.182 292.514 688.357 292.515 688.357 C 292.516 688.357 302.443 678.258 302.444 678.257 C 302.444 678.260 293.380 707.723 293.379 707.725 Z"/>
<path fill="#ffff00" fill-rule="evenodd" stroke="none" d="M 489.000 675.779 C 488.999 675.776 473.071 649.385 473.070 649.382 C 473.070 649.384 473.984 663.515 473.984 663.517 C 473.983 663.517 459.954 665.446 459.953 665.446 C 459.955 665.448 488.997 675.778 489.000 675.779 Z"/>
<path fill="#be0027" fill-rule="evenodd" stroke="none" d="M 393.928 705.837 C 393.928 705.835 392.113 679.539 392.113 679.537 C 392.113 679.538 387.291 690.645 387.291 690.646 C 387.290 690.646 375.864 686.637 375.863 686.636 C 375.865 686.638 393.926 705.836 393.928 705.837 Z"/>
</g>
</g>
</svg>
