<?xml version="1.0" encoding="utf-8"?>
<!-- Generator: Moho 13.5.1 build 20210623 -->
<!DOCTYPE svg PUBLIC "-//W3C//DTD SVG 1.1//EN" "http://www.w3.org/Graphics/SVG/1.1/DTD/svg11.dtd">
<svg version="1.1" id="Frame_0" xmlns="http://www.w3.org/2000/svg" xmlns:xlink="http://www.w3.org/1999/xlink" width="720px" height="720px">
<g id="goat_horn">
<g id="goat_horn">
<path fill="#ffffff" fill-rule="evenodd" stroke="#000000" stroke-width="4" stroke-linecap="round" stroke-linejoin="round" d="M 252.376 221.785 C 252.372 221.794 207.722 319.241 207.718 319.251 C 207.716 319.264 195.575 428.225 195.574 428.237 C 195.576 428.253 216.175 560.677 216.177 560.690 C 216.188 560.715 271.887 687.743 271.892 687.753 C 271.902 687.755 319.760 702.030 375.180 697.195 C 455.663 690.173 492.194 657.847 492.205 657.843 C 492.199 657.835 431.916 588.464 417.005 563.792 C 409.232 550.931 375.545 477.694 369.698 453.680 C 365.553 436.659 358.437 390.074 358.557 359.092 C 358.659 332.680 362.902 303.095 370.147 272.728 C 377.334 242.607 385.629 216.049 395.208 193.955 C 406.679 167.499 423.514 138.527 436.148 121.012 C 448.453 103.953 471.073 84.436 481.946 76.009 C 518.330 47.810 569.990 25.953 569.994 25.944 C 569.989 25.949 456.700 51.908 456.679 51.913 C 456.671 51.917 381.387 89.082 381.378 89.087 C 381.371 89.093 309.070 148.344 309.061 148.351 C 309.055 148.358 252.381 221.778 252.376 221.785 Z"/>
<path fill="none" stroke="#000000" stroke-width="4" stroke-linecap="round" stroke-linejoin="round" d="M 456.679 51.913 C 456.680 51.915 454.943 61.463 462.011 68.928 C 470.396 77.785 481.944 76.008 481.946 76.009 C 518.330 47.810 569.990 25.953 569.994 25.944 C 569.989 25.949 456.700 51.908 456.679 51.913 C 456.671 51.917 381.387 89.082 381.378 89.087 C 381.380 89.089 391.264 107.724 403.895 115.739 C 418.074 124.735 436.144 121.012 436.148 121.012 C 448.453 103.953 471.073 84.436 481.946 76.009 M 309.061 148.351 C 309.065 148.354 321.428 169.361 348.372 183.163 C 373.035 195.795 395.204 193.953 395.208 193.955 C 406.679 167.499 423.514 138.527 436.148 121.012 M 216.177 560.690 C 216.188 560.692 261.121 583.956 325.456 583.318 C 382.210 582.755 416.996 563.794 417.005 563.792 C 409.232 550.931 375.545 477.694 369.698 453.680 C 369.690 453.681 336.584 469.493 289.076 464.261 C 231.654 457.938 195.583 428.240 195.574 428.237 C 195.576 428.253 216.175 560.677 216.177 560.690 C 216.188 560.715 271.887 687.743 271.892 687.753 C 271.902 687.755 319.760 702.030 375.180 697.195 C 455.663 690.173 492.194 657.847 492.205 657.843 C 492.199 657.835 431.916 588.464 417.005 563.792 M 207.718 319.251 C 207.725 319.255 235.396 351.365 285.502 362.790 C 326.619 372.165 358.550 359.093 358.557 359.092 C 358.659 332.680 362.902 303.095 370.147 272.728 C 370.141 272.727 342.220 273.965 309.046 260.039 C 272.700 244.780 252.382 221.789 252.376 221.785 C 252.381 221.778 309.055 148.358 309.061 148.351 C 309.070 148.344 381.371 89.093 381.378 89.087 M 370.147 272.728 C 377.334 242.607 385.629 216.049 395.208 193.955 M 369.698 453.680 C 365.553 436.659 358.437 390.074 358.557 359.092 M 207.718 319.251 C 207.716 319.264 195.575 428.225 195.574 428.237 M 252.376 221.785 C 252.372 221.794 207.722 319.241 207.718 319.251 "/>
</g>
<g id="specs">
<path fill="#ff0000" fill-rule="evenodd" stroke="none" d="M 355.523 624.926 C 355.526 624.930 387.451 667.320 387.454 667.324 C 387.452 667.323 365.467 656.787 365.465 656.786 C 365.464 656.788 353.373 677.958 353.371 677.960 C 353.372 677.955 355.523 624.931 355.523 624.926 Z"/>
<path fill="#00ff00" fill-rule="evenodd" stroke="none" d="M 383.294 396.190 C 383.292 396.192 360.823 420.351 360.821 420.353 C 360.821 420.352 364.875 405.747 364.875 405.746 C 364.874 405.745 350.600 400.650 350.599 400.650 C 350.602 400.649 383.291 396.190 383.294 396.190 Z"/>
<path fill="#00ff00" fill-rule="evenodd" stroke="none" d="M 188.196 364.874 C 188.199 364.875 217.793 379.457 217.796 379.459 C 217.795 379.459 202.641 379.771 202.640 379.771 C 202.640 379.772 201.860 394.909 201.860 394.910 C 201.858 394.907 188.198 364.877 188.196 364.874 Z"/>
<path fill="#be0027" fill-rule="evenodd" stroke="none" d="M 393.928 705.837 C 393.928 705.835 392.113 679.539 392.113 679.537 C 392.113 679.538 387.291 690.645 387.291 690.646 C 387.290 690.646 375.864 686.637 375.863 686.636 C 375.865 686.638 393.926 705.836 393.928 705.837 Z"/>
</g>
</g>
</svg>
