<?xml version="1.0" encoding="utf-8"?>
<!-- Generator: Moho 13.5.1 build 20210623 -->
<!DOCTYPE svg PUBLIC "-//W3C//DTD SVG 1.1//EN" "http://www.w3.org/Graphics/SVG/1.1/DTD/svg11.dtd">
<svg version="1.1" id="Frame_0" xmlns="http://www.w3.org/2000/svg" xmlns:xlink="http://www.w3.org/1999/xlink" width="720px" height="720px">
<g id="goddess">
<g id="goddess_2">
<path fill="none" stroke="#000000" stroke-width="0" stroke-linecap="round" stroke-linejoin="round" d="M 359.974 98.943 C 343.640 98.933 334.071 111.922 333.561 124.555 C 332.995 138.551 342.472 144.795 350.168 154.715 C 353.315 158.772 355.826 168.448 350.192 171.168 C 341.877 175.183 331.698 171.298 321.717 170.275 "/>
<path fill="none" stroke="#000000" stroke-width="0" stroke-linecap="round" stroke-linejoin="round" d="M 359.974 98.943 C 343.640 98.933 334.071 111.922 333.561 124.555 C 332.995 138.551 342.472 144.795 350.168 154.715 C 353.315 158.772 355.826 168.448 350.192 171.168 C 341.877 175.183 331.698 171.298 321.717 170.275 "/>
<radialGradient id="6A2EAF2B-3056-4613-87E1-068EB00F7051_2" cx="49.52%" cy="50.93%" r="100.99%">
<stop offset="28.63%" style="stop-color:rgb(255,255,255);stop-opacity:1.00" />
<stop offset="100.00%" style="stop-color:rgb(0,0,0);stop-opacity:1.00" />
</radialGradient>
<path fill="url(#6A2EAF2B-3056-4613-87E1-068EB00F7051_2)" fill-rule="evenodd" stroke="none" d="M 335.028 245.057 C 325.596 245.052 317.992 237.438 317.997 228.006 C 318.003 218.575 325.616 210.970 335.048 210.976 C 344.480 210.982 352.084 218.595 352.078 228.026 C 352.073 237.458 344.460 245.062 335.028 245.057 M 384.627 245.086 C 394.058 245.092 401.672 237.488 401.677 228.056 C 401.683 218.625 394.079 211.011 384.647 211.005 C 375.215 211.000 367.602 218.604 367.597 228.036 C 367.591 237.468 375.195 245.081 384.627 245.086 M 350.192 171.168 C 341.877 175.183 331.647 171.711 321.717 170.275 C 301.455 167.345 276.419 141.690 267.786 114.463 C 255.829 76.754 277.269 37.993 314.501 32.105 C 320.474 31.160 328.365 31.729 327.466 28.266 C 327.120 26.934 317.974 28.966 318.366 26.517 C 318.674 24.596 328.483 23.831 328.773 21.842 C 329.107 19.554 318.760 24.663 315.898 20.604 C 318.861 18.283 325.283 16.862 325.695 16.064 C 328.113 11.381 304.893 15.292 297.952 17.310 C 244.098 32.965 235.904 82.305 235.904 100.040 C 235.904 162.088 297.503 197.732 305.694 249.056 C 315.030 307.557 272.211 285.620 268.338 373.307 C 265.833 430.015 316.483 612.208 331.673 653.705 C 333.997 660.053 338.585 673.479 340.030 673.904 C 341.526 674.345 341.484 670.808 343.004 671.442 C 344.398 672.023 345.847 674.107 346.564 673.908 C 347.969 673.518 348.801 670.231 349.789 670.446 C 350.916 670.690 352.322 674.010 353.098 673.912 C 354.720 673.708 360.129 673.449 360.130 673.449 C 360.130 673.449 364.805 673.504 366.165 673.920 C 366.860 674.133 368.762 671.540 369.822 671.379 C 370.633 671.256 371.538 673.694 372.699 673.924 C 373.460 674.075 374.681 671.588 376.145 671.003 C 377.888 670.305 377.567 674.350 379.233 673.927 C 380.690 673.558 385.104 660.047 387.493 653.738 C 401.365 617.106 452.803 425.935 451.283 373.416 C 448.801 287.644 402.921 307.177 413.672 249.117 C 422.763 200.023 484.096 162.088 484.096 100.040 C 484.096 82.305 484.096 37.992 422.048 17.310 C 415.400 15.094 392.810 11.930 395.135 16.479 C 395.461 17.116 400.453 18.518 402.780 20.404 C 400.871 22.525 393.124 20.091 392.988 21.855 C 392.651 26.250 400.613 22.233 400.746 26.213 C 400.840 29.021 392.337 27.552 392.538 29.003 C 393.172 33.572 403.129 30.630 407.643 31.469 C 442.731 37.992 464.107 79.672 454.071 109.187 C 443.076 141.525 421.117 165.175 394.039 170.518 C 385.575 172.188 376.741 174.545 369.549 171.180 C 363.883 168.528 366.441 158.781 369.593 154.727 C 377.301 144.815 386.559 138.590 386.236 124.586 C 385.945 111.914 376.309 98.952 359.974 98.943 C 343.640 98.933 334.071 111.922 333.561 124.555 C 332.995 138.551 342.472 144.795 350.168 154.715 C 353.315 158.772 355.826 168.448 350.192 171.168 Z"/>
<path fill="none" stroke="#000000" stroke-width="4" stroke-linecap="round" stroke-linejoin="round" d="M 360.130 673.449 C 360.043 599.150 359.957 524.851 359.870 450.552 M 335.028 245.057 C 325.596 245.052 317.992 237.438 317.997 228.006 C 318.003 218.575 325.616 210.970 335.048 210.976 C 344.480 210.982 352.084 218.595 352.078 228.026 C 352.073 237.458 344.460 245.062 335.028 245.057 M 384.627 245.086 C 394.058 245.092 401.672 237.488 401.677 228.056 C 401.683 218.625 394.079 211.011 384.647 211.005 C 375.215 211.000 367.602 218.604 367.597 228.036 C 367.591 237.468 375.195 245.081 384.627 245.086 M 350.168 154.715 C 353.315 158.772 355.826 168.448 350.192 171.168 C 355.826 168.448 353.315 158.772 350.168 154.715 C 342.472 144.795 332.995 138.551 333.561 124.555 C 334.071 111.922 343.640 98.933 359.974 98.943 C 343.640 98.933 334.071 111.922 333.561 124.555 C 332.995 138.551 342.472 144.795 350.168 154.715 C 353.315 158.772 355.826 168.448 350.192 171.168 C 341.877 175.183 331.698 171.298 321.717 170.275 C 331.647 171.711 341.877 175.183 350.192 171.168 C 341.877 175.183 331.698 171.298 321.717 170.275 C 301.455 167.345 276.419 141.690 267.786 114.463 C 255.829 76.754 277.269 37.993 314.501 32.105 C 320.474 31.160 328.365 31.729 327.466 28.266 C 327.120 26.934 317.974 28.966 318.366 26.517 C 318.674 24.596 328.483 23.831 328.773 21.842 C 329.107 19.554 318.760 24.663 315.898 20.604 C 318.861 18.283 325.283 16.862 325.695 16.064 C 328.113 11.381 304.893 15.292 297.952 17.310 C 244.098 32.965 235.904 82.305 235.904 100.040 C 235.904 162.088 297.503 197.732 305.694 249.056 C 315.030 307.557 272.211 285.620 268.338 373.307 C 265.833 430.015 316.483 612.208 331.673 653.705 C 333.997 660.053 338.585 673.479 340.030 673.904 C 341.526 674.345 341.484 670.808 343.004 671.442 C 344.398 672.023 345.847 674.107 346.564 673.908 C 347.969 673.518 348.801 670.231 349.789 670.446 C 350.916 670.690 352.322 674.010 353.098 673.912 C 354.720 673.708 360.129 673.449 360.130 673.449 C 360.130 673.449 364.805 673.504 366.165 673.920 C 366.860 674.133 368.762 671.540 369.822 671.379 C 370.633 671.256 371.538 673.694 372.699 673.924 C 373.460 674.075 374.681 671.588 376.145 671.003 C 377.888 670.305 377.567 674.350 379.233 673.927 C 380.690 673.558 385.104 660.047 387.493 653.738 C 401.365 617.106 452.803 425.935 451.283 373.416 C 448.801 287.644 402.921 307.177 413.672 249.117 C 422.763 200.023 484.096 162.088 484.096 100.040 C 484.096 82.305 484.096 37.992 422.048 17.310 C 415.400 15.094 392.810 11.930 395.135 16.479 C 395.461 17.116 400.453 18.518 402.780 20.404 C 400.871 22.525 393.124 20.091 392.988 21.855 C 392.651 26.250 400.613 22.233 400.746 26.213 C 400.840 29.021 392.337 27.552 392.538 29.003 C 393.172 33.572 403.129 30.630 407.643 31.469 C 442.731 37.992 464.107 79.672 454.071 109.187 C 443.076 141.525 421.117 165.175 394.039 170.518 C 385.575 172.188 376.741 174.545 369.549 171.180 C 363.883 168.528 366.441 158.781 369.593 154.727 C 377.301 144.815 386.559 138.590 386.236 124.586 C 385.945 111.914 376.309 98.952 359.974 98.943 C 343.640 98.933 334.071 111.922 333.561 124.555 C 332.995 138.551 342.472 144.795 350.168 154.715 "/>
</g>
<g id="specs_2">
<path fill="#ff0000" fill-rule="evenodd" stroke="none" d="M 360.000 681.545 C 360.001 681.548 372.840 717.497 372.841 717.501 C 372.840 717.500 360.001 705.554 360.000 705.553 C 359.999 705.554 347.160 717.500 347.159 717.501 C 347.160 717.497 359.999 681.548 360.000 681.545 Z"/>
<path fill="#00ff00" fill-rule="evenodd" stroke="none" d="M 285.635 252.059 C 285.637 252.058 311.280 242.754 311.282 242.753 C 311.281 242.754 302.791 251.971 302.791 251.972 C 302.791 251.973 311.374 261.104 311.374 261.105 C 311.372 261.104 285.637 252.060 285.635 252.059 Z"/>
<path fill="#00ff00" fill-rule="evenodd" stroke="none" d="M 433.015 252.059 C 433.012 252.058 407.370 242.754 407.368 242.753 C 407.368 242.754 415.858 251.971 415.859 251.972 C 415.858 251.973 407.276 261.104 407.275 261.105 C 407.277 261.104 433.012 252.060 433.015 252.059 Z"/>
<path fill="#be0027" fill-rule="evenodd" stroke="none" d="M 360.000 693.664 C 360.001 693.661 372.840 657.712 372.841 657.708 C 372.840 657.709 360.001 669.655 360.000 669.656 C 359.999 669.655 347.160 657.709 347.159 657.708 C 347.160 657.712 359.999 693.661 360.000 693.664 Z"/>
<path fill="#ff00ff" fill-rule="evenodd" stroke="none" d="M 288.388 306.648 C 288.402 306.648 431.598 306.648 431.612 306.648 C 431.612 306.662 431.612 449.857 431.612 449.872 C 431.598 449.872 288.402 449.872 288.388 449.872 C 288.388 449.857 288.388 306.662 288.388 306.648 Z"/>
</g>
</g>
</svg>
