<?xml version="1.0" encoding="utf-8"?>
<!-- Generator: Moho 12.5 build 22414 -->
<!DOCTYPE svg PUBLIC "-//W3C//DTD SVG 1.1//EN" "http://www.w3.org/Graphics/SVG/1.1/DTD/svg11.dtd">
<svg version="1.1" id="Frame_0" xmlns="http://www.w3.org/2000/svg" xmlns:xlink="http://www.w3.org/1999/xlink" width="720px" height="720px">
<g id="hands_fists_2">
<g id="starburst">
<path fill="#ffffff" fill-rule="evenodd" stroke="none" d="M 360.000 111.505 C 360.000 277.168 360.000 442.832 360.000 608.495 C 360.002 608.485 375.084 506.512 375.086 506.502 C 375.089 506.512 410.163 603.450 410.167 603.459 C 410.166 603.449 403.858 500.665 403.857 500.655 C 403.862 500.664 456.847 589.001 456.852 589.010 C 456.850 589.000 430.275 489.533 430.272 489.523 C 430.279 489.530 499.061 566.128 499.068 566.136 C 499.064 566.126 453.750 473.700 453.745 473.691 C 453.753 473.697 535.817 535.819 535.826 535.826 C 535.819 535.817 473.697 453.754 473.691 453.745 C 473.700 453.750 566.126 499.064 566.136 499.068 C 566.128 499.061 489.530 430.279 489.523 430.272 C 489.533 430.275 589.000 456.850 589.010 456.852 C 589.001 456.847 500.664 403.862 500.655 403.857 C 500.665 403.858 603.449 410.166 603.459 410.167 C 603.450 410.163 506.512 375.089 506.502 375.086 C 506.512 375.084 608.485 360.002 608.495 360.000 C 608.485 359.999 506.512 344.916 506.502 344.914 C 506.512 344.911 603.450 309.837 603.459 309.833 C 603.449 309.834 500.665 316.142 500.655 316.143 C 500.664 316.138 589.001 263.153 589.010 263.148 C 589.000 263.150 489.533 289.725 489.523 289.728 C 489.530 289.721 566.128 220.939 566.136 220.932 C 566.126 220.936 473.700 266.250 473.691 266.255 C 473.697 266.247 535.819 184.183 535.826 184.174 C 535.817 184.181 453.754 246.303 453.745 246.309 C 453.750 246.300 499.064 153.874 499.068 153.864 C 499.061 153.872 430.279 230.470 430.272 230.477 C 430.275 230.467 456.850 131.000 456.852 130.991 C 456.847 130.999 403.862 219.336 403.857 219.345 C 403.858 219.335 410.166 116.551 410.167 116.541 C 410.163 116.550 375.089 213.488 375.086 213.498 C 375.084 213.488 360.002 111.515 360.000 111.505 Z"/>
<path fill="none" stroke="#000000" stroke-width="1" stroke-linecap="butt" stroke-linejoin="round" d="M 360.000 111.505 C 360.000 277.168 360.000 442.832 360.000 608.495 "/>
<path fill="#000000" fill-rule="evenodd" stroke="none" d="M 360.000 111.505 C 360.000 277.168 360.000 442.832 360.000 608.495 C 359.999 608.485 344.916 506.512 344.914 506.502 C 344.911 506.512 309.837 603.450 309.833 603.459 C 309.834 603.449 316.142 500.665 316.143 500.655 C 316.138 500.664 263.153 589.001 263.148 589.010 C 263.150 589.000 289.725 489.533 289.728 489.523 C 289.721 489.530 220.939 566.128 220.932 566.136 C 220.936 566.126 266.250 473.700 266.255 473.691 C 266.246 473.697 184.183 535.819 184.174 535.826 C 184.181 535.817 246.303 453.753 246.309 453.745 C 246.300 453.750 153.874 499.064 153.864 499.068 C 153.872 499.061 230.470 430.279 230.477 430.272 C 230.467 430.275 131.000 456.850 130.991 456.852 C 130.999 456.847 219.336 403.862 219.345 403.857 C 219.335 403.858 116.551 410.166 116.541 410.167 C 116.550 410.163 213.488 375.089 213.498 375.086 C 213.488 375.084 111.515 360.002 111.505 360.000 C 111.515 359.999 213.488 344.916 213.498 344.914 C 213.488 344.911 116.550 309.837 116.541 309.833 C 116.551 309.834 219.335 316.142 219.345 316.143 C 219.336 316.138 130.999 263.153 130.991 263.148 C 131.000 263.150 230.467 289.725 230.477 289.728 C 230.470 289.721 153.872 220.939 153.864 220.932 C 153.874 220.936 246.300 266.250 246.309 266.255 C 246.303 266.246 184.181 184.183 184.174 184.174 C 184.183 184.181 266.247 246.303 266.255 246.309 C 266.250 246.300 220.936 153.874 220.932 153.864 C 220.939 153.872 289.721 230.470 289.728 230.477 C 289.725 230.467 263.150 131.000 263.148 130.991 C 263.153 130.999 316.138 219.336 316.143 219.345 C 316.142 219.335 309.834 116.551 309.833 116.541 C 309.837 116.550 344.911 213.488 344.914 213.498 C 344.916 213.488 359.999 111.515 360.000 111.505 Z"/>
</g>
<g id="arm_power_fist_3">
<path fill="#ffffff" fill-rule="evenodd" stroke="#000000" stroke-width="5" stroke-linecap="round" stroke-linejoin="round" d="M 209.899 476.863 C 203.221 467.249 196.769 435.248 214.840 420.284 C 242.786 428.253 330.260 436.348 334.352 432.829 C 340.763 467.999 324.495 486.069 316.334 488.486 C 309.373 490.548 264.384 491.959 264.379 491.959 C 264.373 491.958 216.545 486.432 209.899 476.863 Z"/>
<path fill="none" stroke="#ffffff" stroke-width="1" stroke-linecap="butt" stroke-linejoin="round" d="M 334.352 432.829 C 330.260 436.348 242.786 428.253 214.840 420.284 "/>
<path fill="#ffffff" fill-rule="evenodd" stroke="#000000" stroke-width="5" stroke-linecap="round" stroke-linejoin="round" d="M 209.782 361.048 C 236.108 400.403 278.019 392.766 271.232 370.727 C 281.685 371.303 305.107 375.133 337.394 368.225 C 351.087 382.463 356.524 413.761 334.352 432.829 C 330.260 436.348 242.786 428.253 214.840 420.284 C 194.401 408.832 191.937 375.584 209.782 361.048 Z"/>
<path fill="none" stroke="#ffffff" stroke-width="1" stroke-linecap="butt" stroke-linejoin="round" d="M 337.394 368.225 C 305.107 375.133 281.685 371.303 271.232 370.727 "/>
<path fill="#ffffff" fill-rule="evenodd" stroke="#000000" stroke-width="5" stroke-linecap="round" stroke-linejoin="round" d="M 271.232 370.727 C 261.672 339.681 261.917 316.280 262.750 306.257 C 289.939 307.932 329.636 300.612 336.023 299.877 C 357.230 312.548 357.984 352.786 337.394 368.225 C 305.107 375.133 281.685 371.303 271.232 370.727 Z"/>
<path fill="none" stroke="#ffffff" stroke-width="1" stroke-linecap="butt" stroke-linejoin="round" d="M 336.023 299.877 C 329.636 300.612 289.939 307.932 262.750 306.257 "/>
<path fill="#ffffff" fill-rule="evenodd" stroke="#000000" stroke-width="5" stroke-linecap="round" stroke-linejoin="round" d="M 262.750 306.257 C 263.349 299.047 266.069 268.003 257.290 242.375 C 265.351 238.182 315.764 232.998 330.401 243.863 C 342.575 252.899 344.701 290.425 336.023 299.877 C 329.636 300.612 289.939 307.932 262.750 306.257 Z"/>
<path fill="none" stroke="#ffffff" stroke-width="1" stroke-linecap="butt" stroke-linejoin="round" d="M 264.379 491.959 C 264.373 491.958 216.545 486.432 209.899 476.863 "/>
<path fill="none" stroke="#ffffff" stroke-width="1" stroke-linecap="butt" stroke-linejoin="round" d="M 209.899 476.863 C 203.221 467.249 196.769 435.248 214.840 420.284 "/>
<path fill="none" stroke="#ffffff" stroke-width="1" stroke-linecap="butt" stroke-linejoin="round" d="M 214.840 420.284 C 194.401 408.832 191.937 375.584 209.782 361.048 "/>
<path fill="none" stroke="#ffffff" stroke-width="1" stroke-linecap="butt" stroke-linejoin="round" d="M 209.782 361.048 C 236.108 400.403 278.019 392.766 271.232 370.727 "/>
<path fill="none" stroke="#ffffff" stroke-width="1" stroke-linecap="butt" stroke-linejoin="round" d="M 271.232 370.727 C 261.672 339.681 261.917 316.280 262.750 306.257 "/>
<path fill="none" stroke="#ffffff" stroke-width="1" stroke-linecap="butt" stroke-linejoin="round" d="M 262.750 306.257 C 263.349 299.047 266.069 268.003 257.290 242.375 "/>
<path fill="#ffffff" fill-rule="evenodd" stroke="none" d="M 41.965 364.465 C 39.755 488.368 114.695 533.075 264.379 491.959 C 264.373 491.958 216.545 486.432 209.899 476.863 C 203.221 467.249 196.769 435.248 214.840 420.284 C 194.401 408.832 191.937 375.584 209.782 361.048 C 236.108 400.403 278.019 392.766 271.232 370.727 C 261.672 339.681 261.917 316.280 262.750 306.257 C 263.349 299.047 266.069 268.003 257.290 242.375 C 248.750 217.444 191.997 230.382 132.090 228.041 C 75.662 225.835 42.589 329.538 41.965 364.465 Z"/>
<path fill="none" stroke="#000000" stroke-width="5" stroke-linecap="round" stroke-linejoin="round" d="M 41.965 364.465 C 39.755 488.368 114.695 533.075 264.379 491.959 C 264.373 491.958 216.545 486.432 209.899 476.863 C 203.221 467.249 196.769 435.248 214.840 420.284 C 194.401 408.832 191.937 375.584 209.782 361.048 C 236.108 400.403 278.019 392.766 271.232 370.727 C 261.672 339.681 261.917 316.280 262.750 306.257 C 263.349 299.047 266.069 268.003 257.290 242.375 C 248.750 217.444 191.997 230.382 132.090 228.041 C 75.662 225.835 42.589 329.538 41.965 364.465 M 200.742 299.678 C 186.977 341.758 203.376 351.471 209.782 361.048 M 178.151 300.201 C 177.225 298.009 182.779 305.819 200.742 299.678 M 140.748 441.858 C 177.704 411.330 194.723 339.440 178.151 300.201 "/>
<path fill="#000000" fill-rule="evenodd" stroke="#ffffff" stroke-width="5" stroke-linecap="round" stroke-linejoin="round" d="M 510.101 476.863 C 516.779 467.249 523.231 435.248 505.160 420.284 C 477.214 428.253 389.740 436.348 385.648 432.829 C 379.237 467.999 395.505 486.069 403.666 488.486 C 410.627 490.548 455.616 491.959 455.621 491.959 C 455.627 491.958 503.455 486.432 510.101 476.863 Z"/>
<path fill="none" stroke="#000000" stroke-width="1" stroke-linecap="butt" stroke-linejoin="round" d="M 385.648 432.829 C 389.740 436.348 477.214 428.253 505.160 420.284 "/>
<path fill="#000000" fill-rule="evenodd" stroke="#ffffff" stroke-width="5" stroke-linecap="round" stroke-linejoin="round" d="M 510.218 361.048 C 483.891 400.403 441.980 392.766 448.767 370.727 C 438.315 371.303 414.893 375.133 382.606 368.225 C 368.913 382.463 363.476 413.761 385.648 432.829 C 389.740 436.348 477.214 428.253 505.160 420.284 C 525.599 408.831 528.063 375.584 510.218 361.048 Z"/>
<path fill="none" stroke="#000000" stroke-width="1" stroke-linecap="butt" stroke-linejoin="round" d="M 382.606 368.225 C 414.893 375.133 438.315 371.303 448.767 370.727 "/>
<path fill="#000000" fill-rule="evenodd" stroke="#ffffff" stroke-width="5" stroke-linecap="round" stroke-linejoin="round" d="M 448.767 370.727 C 458.328 339.681 458.083 316.280 457.250 306.257 C 430.061 307.932 390.364 300.612 383.978 299.877 C 362.770 312.548 362.016 352.786 382.606 368.225 C 414.893 375.133 438.315 371.303 448.767 370.727 Z"/>
<path fill="none" stroke="#000000" stroke-width="1" stroke-linecap="butt" stroke-linejoin="round" d="M 383.978 299.877 C 390.364 300.612 430.061 307.932 457.250 306.257 "/>
<path fill="#000000" fill-rule="evenodd" stroke="#ffffff" stroke-width="5" stroke-linecap="round" stroke-linejoin="round" d="M 457.250 306.257 C 456.651 299.047 453.931 268.003 462.710 242.375 C 454.649 238.182 404.236 232.998 389.599 243.863 C 377.425 252.899 375.299 290.425 383.978 299.877 C 390.364 300.612 430.061 307.932 457.250 306.257 Z"/>
<path fill="none" stroke="#000000" stroke-width="1" stroke-linecap="butt" stroke-linejoin="round" d="M 455.621 491.959 C 455.627 491.958 503.455 486.432 510.101 476.863 "/>
<path fill="none" stroke="#000000" stroke-width="1" stroke-linecap="butt" stroke-linejoin="round" d="M 510.101 476.863 C 516.779 467.249 523.231 435.248 505.160 420.284 "/>
<path fill="none" stroke="#000000" stroke-width="1" stroke-linecap="butt" stroke-linejoin="round" d="M 505.160 420.284 C 525.599 408.831 528.063 375.584 510.218 361.048 "/>
<path fill="none" stroke="#000000" stroke-width="1" stroke-linecap="butt" stroke-linejoin="round" d="M 510.218 361.048 C 483.891 400.403 441.980 392.766 448.767 370.727 "/>
<path fill="none" stroke="#000000" stroke-width="1" stroke-linecap="butt" stroke-linejoin="round" d="M 448.767 370.727 C 458.328 339.681 458.083 316.280 457.250 306.257 "/>
<path fill="none" stroke="#000000" stroke-width="1" stroke-linecap="butt" stroke-linejoin="round" d="M 457.250 306.257 C 456.651 299.047 453.931 268.003 462.710 242.375 "/>
<path fill="#000000" fill-rule="evenodd" stroke="none" d="M 678.035 364.465 C 680.245 488.368 605.305 533.075 455.621 491.959 C 455.627 491.958 503.455 486.432 510.101 476.863 C 516.779 467.249 523.231 435.248 505.160 420.284 C 525.599 408.831 528.063 375.584 510.218 361.048 C 483.891 400.403 441.980 392.766 448.767 370.727 C 458.328 339.681 458.083 316.280 457.250 306.257 C 456.651 299.047 453.931 268.003 462.710 242.375 C 471.250 217.444 528.003 230.382 587.910 228.041 C 644.338 225.835 677.411 329.538 678.035 364.465 Z"/>
<path fill="none" stroke="#ffffff" stroke-width="5" stroke-linecap="round" stroke-linejoin="round" d="M 678.035 364.465 C 680.245 488.368 605.305 533.075 455.621 491.959 C 455.627 491.958 503.455 486.432 510.101 476.863 C 516.779 467.249 523.231 435.248 505.160 420.284 C 525.599 408.831 528.063 375.584 510.218 361.048 C 483.891 400.403 441.980 392.766 448.767 370.727 C 458.328 339.681 458.083 316.280 457.250 306.257 C 456.651 299.047 453.931 268.003 462.710 242.375 C 471.250 217.444 528.003 230.382 587.910 228.041 C 644.338 225.835 677.411 329.538 678.035 364.465 M 519.257 299.678 C 533.023 341.758 516.624 351.471 510.218 361.048 M 541.849 300.201 C 542.775 298.009 537.221 305.819 519.257 299.678 M 579.252 441.858 C 542.296 411.330 525.277 339.440 541.849 300.201 "/>
</g>
<g id="specs_2">
<path fill="#ff0000" fill-rule="evenodd" stroke="none" d="M 360.000 661.614 C 360.001 661.619 374.603 702.503 374.604 702.508 C 374.603 702.506 360.001 688.920 360.000 688.919 C 359.999 688.920 345.397 702.506 345.396 702.508 C 345.397 702.503 359.999 661.619 360.000 661.614 Z"/>
<path fill="#0000ff" fill-rule="evenodd" stroke="none" d="M 360.000 95.750 C 360.001 95.752 368.324 119.057 368.324 119.059 C 368.324 119.059 360.001 111.315 360.000 111.314 C 359.999 111.315 351.676 119.059 351.676 119.059 C 351.676 119.057 359.999 95.752 360.000 95.750 Z"/>
<path fill="#00ff00" fill-rule="evenodd" stroke="none" d="M 19.901 361.181 C 19.904 361.180 44.002 352.435 44.005 352.434 C 44.004 352.435 36.025 361.099 36.025 361.099 C 36.025 361.100 44.091 369.681 44.092 369.682 C 44.089 369.681 19.904 361.182 19.901 361.181 Z"/>
<path fill="#ffff00" fill-rule="evenodd" stroke="none" d="M 81.793 504.054 C 81.794 504.052 92.082 481.652 92.083 481.650 C 92.083 481.651 92.625 492.962 92.625 492.963 C 92.626 492.963 103.947 493.238 103.948 493.238 C 103.946 493.239 81.795 504.053 81.793 504.054 Z"/>
<path fill="#ffff00" fill-rule="evenodd" stroke="none" d="M 638.207 503.780 C 638.206 503.778 627.470 481.588 627.469 481.586 C 627.469 481.587 627.155 492.907 627.154 492.908 C 627.153 492.908 615.839 493.409 615.838 493.410 C 615.840 493.411 638.205 503.779 638.207 503.780 Z"/>
<path fill="#00ff00" fill-rule="evenodd" stroke="none" d="M 700.099 361.181 C 700.096 361.180 675.998 352.435 675.995 352.434 C 675.996 352.435 683.975 361.099 683.975 361.099 C 683.975 361.100 675.909 369.681 675.908 369.682 C 675.911 369.681 700.096 361.182 700.099 361.181 Z"/>
<path fill="#00ffff" fill-rule="evenodd" stroke="none" d="M 634.665 222.054 C 634.665 222.056 626.509 245.085 626.508 245.087 C 626.508 245.086 624.963 233.969 624.963 233.968 C 624.962 233.968 613.763 234.708 613.762 234.708 C 613.764 234.707 634.663 222.055 634.665 222.054 Z"/>
<path fill="#00ffff" fill-rule="evenodd" stroke="none" d="M 85.470 222.817 C 85.471 222.819 95.144 245.253 95.145 245.255 C 95.145 245.254 95.945 234.059 95.945 234.058 C 95.946 234.058 107.169 234.050 107.170 234.050 C 107.168 234.048 85.472 222.818 85.470 222.817 Z"/>
<path fill="#be0027" fill-rule="evenodd" stroke="none" d="M 360.000 624.250 C 360.001 624.248 368.324 600.943 368.324 600.941 C 368.324 600.942 360.001 608.685 360.000 608.686 C 359.999 608.685 351.676 600.942 351.676 600.941 C 351.676 600.943 359.999 624.248 360.000 624.250 Z"/>
</g>
</g>
</svg>
