<?xml version="1.0" encoding="utf-8"?>
<!-- Generator: Moho 12.5 build 22414 -->
<!DOCTYPE svg PUBLIC "-//W3C//DTD SVG 1.1//EN" "http://www.w3.org/Graphics/SVG/1.1/DTD/svg11.dtd">
<svg version="1.1" id="Frame_0" xmlns="http://www.w3.org/2000/svg" xmlns:xlink="http://www.w3.org/1999/xlink" width="720px" height="720px">
<g id="hand_card">
<g id="card">
<path fill="#ffffff" fill-rule="evenodd" stroke="#000000" stroke-width="4" stroke-linejoin="round" d="M 349.893 21.856 C 348.197 19.909 342.461 19.405 342.460 19.405 C 342.439 19.405 130.136 19.405 130.115 19.405 C 130.114 19.405 125.733 19.898 123.875 21.467 C 122.082 22.982 121.085 27.461 121.085 27.461 C 121.085 27.493 121.085 348.614 121.085 348.646 C 121.085 348.647 121.825 352.060 124.771 354.435 C 127.119 356.328 131.241 355.889 131.242 355.889 C 131.264 355.889 351.764 356.447 351.786 356.447 C 351.786 356.415 351.786 28.881 351.786 28.848 C 351.786 28.847 352.397 24.731 349.893 21.856 Z"/>
</g>
<g id="hand_holding">
<path fill="#000000" fill-rule="evenodd" stroke="#ffffff" stroke-width="4" stroke-linejoin="round" d="M 481.586 528.847 C 486.701 542.191 493.000 635.387 442.904 655.672 C 405.605 670.774 364.096 629.738 353.493 613.819 C 339.325 592.550 329.258 536.545 322.420 531.384 C 320.113 529.642 293.254 525.677 293.251 525.676 C 293.254 525.677 315.520 527.983 321.787 533.286 C 330.062 540.290 331.982 555.987 331.298 557.382 C 329.276 561.508 300.228 564.186 288.812 557.383 C 266.512 544.094 258.973 518.913 259.642 513.628 C 261.717 497.253 265.730 492.408 278.666 482.556 C 285.217 477.566 331.927 483.824 331.932 483.824 C 331.927 483.824 285.674 477.003 277.398 483.190 C 259.058 496.900 256.702 518.440 264.081 530.115 C 273.411 544.878 237.379 530.175 234.278 511.091 C 228.043 472.727 252.972 437.329 264.081 432.460 C 272.255 428.878 336.364 436.899 336.371 436.899 C 336.364 436.898 274.942 429.739 265.349 431.826 C 256.473 433.758 240.334 461.369 236.814 471.776 C 234.353 479.052 232.558 506.433 229.839 506.018 C 204.398 502.136 207.556 447.909 210.181 437.533 C 215.629 415.996 247.834 392.892 253.935 387.437 C 270.629 372.514 359.823 392.510 359.834 392.510 C 359.823 392.510 281.313 369.936 253.935 387.437 C 250.128 389.871 233.773 391.513 233.771 391.514 C 233.768 391.516 207.446 406.896 200.669 409.631 C 180.951 417.588 152.471 398.733 163.255 389.974 C 184.578 372.656 203.053 355.843 213.351 351.292 C 241.673 338.779 278.523 331.443 295.153 334.805 C 336.982 343.259 409.978 353.034 424.515 368.413 C 440.866 385.713 458.165 467.742 481.586 528.847 Z"/>
</g>
<g id="specs_2">
<path fill="#ff00ff" fill-rule="evenodd" stroke="none" d="M 321.948 324.358 C 321.931 324.358 150.203 324.358 150.186 324.358 C 150.186 324.330 150.186 47.221 150.186 47.194 C 150.203 47.194 321.931 47.194 321.948 47.194 C 321.948 47.221 321.948 324.330 321.948 324.358 Z"/>
<path fill="#ff0000" fill-rule="evenodd" stroke="none" d="M 449.330 683.911 C 449.330 683.914 449.323 711.204 449.323 711.207 C 449.324 711.206 455.098 700.078 455.099 700.077 C 455.100 700.077 466.615 705.036 466.616 705.036 C 466.615 705.034 449.332 683.913 449.330 683.911 Z"/>
<path fill="#0000ff" fill-rule="evenodd" stroke="none" d="M 233.680 10.655 C 233.679 10.656 228.347 25.585 228.347 25.587 C 228.347 25.586 233.679 20.626 233.680 20.625 C 233.680 20.626 239.012 25.586 239.012 25.587 C 239.012 25.585 233.680 10.656 233.680 10.655 Z"/>
<path fill="#00ff00" fill-rule="evenodd" stroke="none" d="M 360.942 195.306 C 360.941 195.306 346.038 189.899 346.037 189.898 C 346.037 189.899 350.971 195.256 350.972 195.256 C 350.971 195.257 345.984 200.563 345.983 200.564 C 345.985 200.563 360.941 195.307 360.942 195.306 Z"/>
<path fill="#ffff00" fill-rule="evenodd" stroke="none" d="M 478.606 631.963 C 478.605 631.961 471.988 617.555 471.988 617.554 C 471.988 617.555 471.639 624.829 471.639 624.830 C 471.638 624.830 464.358 625.006 464.357 625.006 C 464.359 625.007 478.604 631.962 478.606 631.963 Z"/>
<path fill="#ffff00" fill-rule="evenodd" stroke="none" d="M 355.440 631.786 C 355.441 631.785 362.345 617.514 362.346 617.513 C 362.346 617.514 362.548 624.794 362.548 624.794 C 362.549 624.794 369.824 625.117 369.825 625.117 C 369.824 625.118 355.442 631.786 355.440 631.786 Z"/>
<path fill="#00ff00" fill-rule="evenodd" stroke="none" d="M 111.760 195.306 C 111.761 195.306 126.664 189.899 126.665 189.898 C 126.665 189.899 121.731 195.256 121.730 195.256 C 121.731 195.257 126.718 200.563 126.719 200.564 C 126.717 200.563 111.761 195.307 111.760 195.306 Z"/>
<path fill="#00ffff" fill-rule="evenodd" stroke="none" d="M 160.289 408.149 C 160.290 408.148 168.598 394.646 168.598 394.645 C 168.598 394.646 168.066 401.909 168.066 401.910 C 168.066 401.910 175.272 402.964 175.273 402.964 C 175.272 402.965 160.290 408.149 160.289 408.149 Z"/>
<path fill="#00ffff" fill-rule="evenodd" stroke="none" d="M 466.503 455.978 C 466.502 455.979 455.944 467.805 455.943 467.807 C 455.943 467.806 457.748 460.750 457.748 460.749 C 457.747 460.749 450.840 458.441 450.839 458.441 C 450.841 458.441 466.501 455.979 466.503 455.978 Z"/>
<path fill="#be0027" fill-rule="evenodd" stroke="none" d="M 445.315 669.432 C 445.314 669.430 428.031 648.309 428.030 648.307 C 428.031 648.307 439.546 653.266 439.547 653.267 C 439.547 653.266 445.322 642.137 445.323 642.136 C 445.323 642.139 445.315 669.430 445.315 669.432 Z"/>
</g>
</g>
</svg>
