<?xml version="1.0" encoding="utf-8"?>
<!-- Generator: Moho 13.5.1 build 20210623 -->
<!DOCTYPE svg PUBLIC "-//W3C//DTD SVG 1.1//EN" "http://www.w3.org/Graphics/SVG/1.1/DTD/svg11.dtd">
<svg version="1.1" id="Frame_0" xmlns="http://www.w3.org/2000/svg" xmlns:xlink="http://www.w3.org/1999/xlink" width="720px" height="720px">
<g id="hand_claddagh">
<g id="hand_claddagh">
<radialGradient id="23B4A8DF-3DAD-4703-8615-1FB6FFF771E1_0" cx="49.58%" cy="50.54%" r="120.96%">
<stop offset="29.02%" style="stop-color:rgb(255,255,255);stop-opacity:1.00" />
<stop offset="100.00%" style="stop-color:rgb(0,0,0);stop-opacity:1.00" />
</radialGradient>
<path fill="url(#23B4A8DF-3DAD-4703-8615-1FB6FFF771E1_0)" fill-rule="evenodd" stroke="#000000" stroke-width="3" stroke-linejoin="round" d="M 535.877 136.931 C 467.682 115.269 398.732 109.308 326.291 133.823 C 205.955 174.546 145.068 132.509 150.520 158.676 C 156.578 187.756 179.388 206.328 253.420 201.198 C 372.521 192.945 376.955 244.152 382.634 288.144 C 386.167 315.507 373.712 356.950 366.783 367.397 C 303.345 463.044 239.802 494.446 154.386 534.356 C 135.727 543.074 138.907 574.285 213.562 555.490 C 243.870 547.860 324.516 506.247 396.371 439.252 C 401.263 434.692 322.313 512.274 223.072 556.547 C 186.258 572.970 235.062 590.055 285.417 569.227 C 403.506 520.383 472.029 456.934 468.228 460.387 C 432.800 492.564 393.889 517.729 307.608 562.887 C 289.342 572.448 314.218 582.745 355.160 577.681 C 438.405 567.385 533.935 476.611 529.516 481.521 C 499.571 514.791 432.566 554.688 391.088 570.284 C 383.922 572.979 414.060 594.335 478.794 567.114 C 569.519 528.964 593.819 482.704 624.134 418.563 C 646.472 371.300 652.504 311.804 643.809 266.693 C 633.159 211.434 614.579 161.930 535.877 136.931 Z"/>
</g>
<g id="specs_2">
<path fill="#ff00ff" fill-rule="evenodd" stroke="none" d="M 8.552 517.621 C 8.596 517.621 442.463 517.621 442.507 517.621 C 442.507 517.590 442.507 202.410 442.507 202.379 C 442.463 202.379 8.596 202.379 8.552 202.379 C 8.552 202.410 8.552 517.590 8.552 517.621 Z"/>
<path fill="#ff0000" fill-rule="evenodd" stroke="none" d="M 690.042 315.327 C 690.044 315.326 717.003 305.698 717.005 305.697 C 717.004 305.698 708.046 315.326 708.045 315.327 C 708.046 315.328 717.004 324.955 717.005 324.956 C 717.003 324.955 690.044 315.328 690.042 315.327 Z"/>
<path fill="#0000ff" fill-rule="evenodd" stroke="none" d="M 449.078 98.259 C 449.079 98.262 459.997 128.835 459.999 128.838 C 459.997 128.837 449.079 118.678 449.078 118.677 C 449.077 118.678 438.158 128.837 438.157 128.838 C 438.158 128.835 449.077 98.262 449.078 98.259 Z"/>
<path fill="#00ff00" fill-rule="evenodd" stroke="none" d="M 668.401 314.735 C 668.398 314.736 637.825 325.655 637.822 325.656 C 637.823 325.655 647.982 314.736 647.982 314.735 C 647.982 314.734 637.823 303.816 637.822 303.814 C 637.825 303.816 668.398 314.734 668.401 314.735 Z"/>
<path fill="#ffff00" fill-rule="evenodd" stroke="none" d="M 526.578 565.028 C 526.575 565.026 497.850 551.419 497.847 551.418 C 497.849 551.418 512.441 550.892 512.442 550.892 C 512.442 550.890 512.968 536.298 512.968 536.297 C 512.970 536.300 526.577 565.025 526.578 565.028 Z"/>
<path fill="#ffff00" fill-rule="evenodd" stroke="none" d="M 139.203 565.028 C 139.206 565.026 167.931 551.419 167.934 551.418 C 167.932 551.418 153.340 550.892 153.339 550.892 C 153.339 550.890 152.813 536.299 152.813 536.297 C 152.812 536.300 139.204 565.025 139.203 565.028 Z"/>
</g>
</g>
</svg>
