<?xml version="1.0" encoding="utf-8"?>
<!-- Generator: Moho 12.5 build 22414 -->
<!DOCTYPE svg PUBLIC "-//W3C//DTD SVG 1.1//EN" "http://www.w3.org/Graphics/SVG/1.1/DTD/svg11.dtd">
<svg version="1.1" id="Frame_0" xmlns="http://www.w3.org/2000/svg" xmlns:xlink="http://www.w3.org/1999/xlink" width="720px" height="720px">
<g id="hands_fists">
<g id="starburst">
<path fill="#000000" fill-rule="evenodd" stroke="none" d="M 360.000 626.291 C 360.001 626.278 374.277 498.671 374.278 498.659 C 374.282 498.671 413.755 620.882 413.759 620.894 C 413.758 620.881 401.510 493.137 401.509 493.125 C 401.515 493.136 463.782 605.398 463.788 605.410 C 463.785 605.397 426.513 482.600 426.510 482.588 C 426.518 482.598 509.019 580.888 509.027 580.898 C 509.021 580.886 448.732 467.615 448.726 467.604 C 448.736 467.612 548.407 548.409 548.417 548.417 C 548.409 548.407 467.612 448.736 467.604 448.726 C 467.615 448.732 580.886 509.021 580.898 509.027 C 580.888 509.019 482.598 426.518 482.588 426.510 C 482.600 426.513 605.397 463.785 605.410 463.788 C 605.398 463.782 493.136 401.515 493.125 401.509 C 493.137 401.510 620.881 413.758 620.894 413.759 C 620.882 413.755 498.671 374.282 498.659 374.278 C 498.671 374.277 626.278 360.001 626.291 360.000 C 626.278 359.999 498.671 345.723 498.659 345.722 C 498.671 345.718 620.882 306.245 620.894 306.241 C 620.881 306.242 493.137 318.490 493.125 318.491 C 493.136 318.485 605.398 256.218 605.410 256.212 C 605.397 256.215 482.600 293.487 482.588 293.490 C 482.598 293.482 580.888 210.981 580.898 210.973 C 580.886 210.979 467.615 271.268 467.604 271.274 C 467.612 271.264 548.409 171.593 548.417 171.583 C 548.407 171.591 448.736 252.388 448.726 252.396 C 448.732 252.385 509.021 139.114 509.027 139.102 C 509.019 139.112 426.518 237.402 426.510 237.412 C 426.513 237.400 463.785 114.603 463.788 114.590 C 463.782 114.602 401.515 226.864 401.509 226.875 C 401.510 226.863 413.758 99.119 413.759 99.106 C 413.755 99.118 374.282 221.329 374.278 221.341 C 374.277 221.329 360.001 93.722 360.000 93.709 C 359.999 93.722 345.723 221.329 345.722 221.341 C 345.718 221.329 306.245 99.118 306.241 99.106 C 306.242 99.119 318.490 226.863 318.491 226.875 C 318.485 226.864 256.218 114.602 256.212 114.590 C 256.215 114.603 293.487 237.400 293.490 237.412 C 293.482 237.402 210.981 139.112 210.973 139.102 C 210.979 139.114 271.268 252.385 271.274 252.396 C 271.264 252.388 171.593 171.591 171.583 171.583 C 171.591 171.593 252.388 271.264 252.396 271.274 C 252.385 271.268 139.114 210.979 139.102 210.973 C 139.112 210.981 237.402 293.482 237.412 293.490 C 237.400 293.487 114.603 256.215 114.590 256.212 C 114.602 256.218 226.864 318.485 226.875 318.491 C 226.863 318.490 99.119 306.242 99.106 306.241 C 99.118 306.245 221.329 345.718 221.341 345.722 C 221.329 345.723 93.722 359.999 93.709 360.000 C 93.722 360.001 221.329 374.277 221.341 374.278 C 221.329 374.282 99.118 413.755 99.106 413.759 C 99.119 413.758 226.863 401.510 226.875 401.509 C 226.864 401.515 114.602 463.782 114.590 463.788 C 114.603 463.785 237.400 426.513 237.412 426.510 C 237.402 426.518 139.112 509.019 139.102 509.027 C 139.114 509.021 252.385 448.732 252.396 448.726 C 252.388 448.736 171.591 548.407 171.583 548.417 C 171.593 548.409 271.264 467.612 271.274 467.604 C 271.268 467.615 210.979 580.886 210.973 580.898 C 210.981 580.888 293.482 482.598 293.490 482.588 C 293.487 482.600 256.215 605.397 256.212 605.410 C 256.218 605.398 318.485 493.136 318.491 493.125 C 318.490 493.137 306.242 620.881 306.241 620.894 C 306.245 620.882 345.718 498.671 345.722 498.659 C 345.723 498.671 359.999 626.278 360.000 626.291 Z"/>
</g>
<g id="arm_power_fist_3">
<path fill="#ffffff" fill-rule="evenodd" stroke="#000000" stroke-width="5" stroke-linecap="round" stroke-linejoin="round" d="M 203.842 471.493 C 197.471 462.321 191.316 431.790 208.556 417.513 C 235.218 425.117 318.672 432.839 322.576 429.482 C 328.693 463.037 313.172 480.276 305.386 482.582 C 298.745 484.549 255.823 485.895 255.818 485.896 C 255.813 485.894 210.183 480.623 203.842 471.493 Z"/>
<path fill="none" stroke="#ffffff" stroke-width="1" stroke-linecap="butt" stroke-linejoin="round" d="M 322.576 429.482 C 318.672 432.839 235.218 425.117 208.556 417.513 "/>
<path fill="#ffffff" fill-rule="evenodd" stroke="#000000" stroke-width="5" stroke-linecap="round" stroke-linejoin="round" d="M 203.731 361.000 C 228.847 398.546 268.833 391.260 262.357 370.234 C 272.329 370.784 294.675 374.437 325.479 367.847 C 338.542 381.431 343.730 411.291 322.576 429.482 C 318.672 432.839 235.218 425.117 208.556 417.513 C 189.057 406.588 186.705 374.868 203.731 361.000 Z"/>
<path fill="none" stroke="#ffffff" stroke-width="1" stroke-linecap="butt" stroke-linejoin="round" d="M 325.479 367.847 C 294.675 374.437 272.329 370.784 262.357 370.234 "/>
<path fill="#ffffff" fill-rule="evenodd" stroke="#000000" stroke-width="5" stroke-linecap="round" stroke-linejoin="round" d="M 262.357 370.234 C 253.236 340.614 253.470 318.289 254.265 308.727 C 280.204 310.324 318.077 303.341 324.170 302.639 C 344.404 314.728 345.123 353.117 325.479 367.847 C 294.675 374.437 272.329 370.784 262.357 370.234 Z"/>
<path fill="none" stroke="#ffffff" stroke-width="1" stroke-linecap="butt" stroke-linejoin="round" d="M 324.170 302.639 C 318.077 303.341 280.204 310.324 254.265 308.727 "/>
<path fill="#ffffff" fill-rule="evenodd" stroke="#000000" stroke-width="5" stroke-linecap="round" stroke-linejoin="round" d="M 254.265 308.727 C 254.836 301.848 257.431 272.230 249.056 247.780 C 256.746 243.779 304.842 238.834 318.807 249.199 C 330.421 257.821 332.450 293.622 324.170 302.639 C 318.077 303.341 280.204 310.324 254.265 308.727 Z"/>
<path fill="none" stroke="#ffffff" stroke-width="1" stroke-linecap="butt" stroke-linejoin="round" d="M 255.818 485.896 C 255.813 485.894 210.183 480.623 203.842 471.493 "/>
<path fill="none" stroke="#ffffff" stroke-width="1" stroke-linecap="butt" stroke-linejoin="round" d="M 203.842 471.493 C 197.471 462.321 191.316 431.790 208.556 417.513 "/>
<path fill="none" stroke="#ffffff" stroke-width="1" stroke-linecap="butt" stroke-linejoin="round" d="M 208.556 417.513 C 189.057 406.588 186.705 374.868 203.731 361.000 "/>
<path fill="none" stroke="#ffffff" stroke-width="1" stroke-linecap="butt" stroke-linejoin="round" d="M 203.731 361.000 C 228.847 398.546 268.833 391.260 262.357 370.234 "/>
<path fill="none" stroke="#ffffff" stroke-width="1" stroke-linecap="butt" stroke-linejoin="round" d="M 262.357 370.234 C 253.236 340.614 253.470 318.289 254.265 308.727 "/>
<path fill="none" stroke="#ffffff" stroke-width="1" stroke-linecap="butt" stroke-linejoin="round" d="M 254.265 308.727 C 254.836 301.848 257.431 272.230 249.056 247.780 "/>
<path fill="#ffffff" fill-rule="evenodd" stroke="none" d="M 43.625 364.259 C 41.516 482.470 113.013 525.122 255.818 485.896 C 255.813 485.894 210.183 480.623 203.842 471.493 C 197.471 462.321 191.316 431.790 208.556 417.513 C 189.057 406.588 186.705 374.868 203.731 361.000 C 228.847 398.546 268.833 391.260 262.357 370.234 C 253.236 340.614 253.470 318.289 254.265 308.727 C 254.836 301.848 257.431 272.230 249.056 247.780 C 240.908 223.994 186.763 236.338 129.608 234.104 C 75.774 232.000 44.220 330.938 43.625 364.259 Z"/>
<path fill="none" stroke="#000000" stroke-width="5" stroke-linecap="round" stroke-linejoin="round" d="M 43.625 364.259 C 41.516 482.470 113.013 525.122 255.818 485.896 C 255.813 485.894 210.183 480.623 203.842 471.493 C 197.471 462.321 191.316 431.790 208.556 417.513 C 189.057 406.588 186.705 374.868 203.731 361.000 C 228.847 398.546 268.833 391.260 262.357 370.234 C 253.236 340.614 253.470 318.289 254.265 308.727 C 254.836 301.848 257.431 272.230 249.056 247.780 C 240.908 223.994 186.763 236.338 129.608 234.104 C 75.774 232.000 44.220 330.938 43.625 364.259 M 195.106 302.450 C 181.973 342.596 197.619 351.863 203.731 361.000 M 173.552 302.949 C 172.669 300.858 177.968 308.309 195.106 302.450 M 137.868 438.097 C 173.126 408.971 189.363 340.385 173.552 302.949 "/>
<path fill="#ffffff" fill-rule="evenodd" stroke="#000000" stroke-width="5" stroke-linecap="round" stroke-linejoin="round" d="M 516.158 471.493 C 522.529 462.321 528.684 431.790 511.444 417.513 C 484.781 425.117 401.327 432.839 397.424 429.482 C 391.307 463.037 406.828 480.276 414.614 482.582 C 421.255 484.549 464.177 485.895 464.182 485.896 C 464.187 485.894 509.817 480.623 516.158 471.493 Z"/>
<path fill="none" stroke="#ffffff" stroke-width="1" stroke-linecap="butt" stroke-linejoin="round" d="M 397.424 429.482 C 401.327 432.839 484.781 425.117 511.444 417.513 "/>
<path fill="#ffffff" fill-rule="evenodd" stroke="#000000" stroke-width="5" stroke-linecap="round" stroke-linejoin="round" d="M 516.269 361.000 C 491.152 398.546 451.167 391.260 457.643 370.234 C 447.671 370.784 425.324 374.437 394.521 367.847 C 381.458 381.431 376.270 411.291 397.424 429.482 C 401.327 432.839 484.781 425.117 511.444 417.513 C 530.943 406.588 533.295 374.868 516.269 361.000 Z"/>
<path fill="none" stroke="#ffffff" stroke-width="1" stroke-linecap="butt" stroke-linejoin="round" d="M 394.521 367.847 C 425.324 374.437 447.671 370.784 457.643 370.234 "/>
<path fill="#ffffff" fill-rule="evenodd" stroke="#000000" stroke-width="5" stroke-linecap="round" stroke-linejoin="round" d="M 457.643 370.234 C 466.764 340.614 466.530 318.289 465.735 308.727 C 439.796 310.324 401.923 303.341 395.830 302.639 C 375.596 314.728 374.877 353.117 394.521 367.847 C 425.324 374.437 447.671 370.784 457.643 370.234 Z"/>
<path fill="none" stroke="#ffffff" stroke-width="1" stroke-linecap="butt" stroke-linejoin="round" d="M 395.830 302.639 C 401.923 303.341 439.796 310.324 465.735 308.727 "/>
<path fill="#ffffff" fill-rule="evenodd" stroke="#000000" stroke-width="5" stroke-linecap="round" stroke-linejoin="round" d="M 465.735 308.727 C 465.164 301.848 462.569 272.230 470.944 247.780 C 463.254 243.779 415.157 238.834 401.193 249.199 C 389.579 257.821 387.550 293.622 395.830 302.639 C 401.923 303.341 439.796 310.324 465.735 308.727 Z"/>
<path fill="none" stroke="#ffffff" stroke-width="1" stroke-linecap="butt" stroke-linejoin="round" d="M 464.182 485.896 C 464.187 485.894 509.817 480.623 516.158 471.493 "/>
<path fill="none" stroke="#ffffff" stroke-width="1" stroke-linecap="butt" stroke-linejoin="round" d="M 516.158 471.493 C 522.529 462.321 528.684 431.790 511.444 417.513 "/>
<path fill="none" stroke="#ffffff" stroke-width="1" stroke-linecap="butt" stroke-linejoin="round" d="M 511.444 417.513 C 530.943 406.588 533.295 374.868 516.269 361.000 "/>
<path fill="none" stroke="#ffffff" stroke-width="1" stroke-linecap="butt" stroke-linejoin="round" d="M 516.269 361.000 C 491.152 398.546 451.167 391.260 457.643 370.234 "/>
<path fill="none" stroke="#ffffff" stroke-width="1" stroke-linecap="butt" stroke-linejoin="round" d="M 457.643 370.234 C 466.764 340.614 466.530 318.289 465.735 308.727 "/>
<path fill="none" stroke="#ffffff" stroke-width="1" stroke-linecap="butt" stroke-linejoin="round" d="M 465.735 308.727 C 465.164 301.848 462.569 272.230 470.944 247.780 "/>
<path fill="#ffffff" fill-rule="evenodd" stroke="none" d="M 676.375 364.260 C 678.484 482.470 606.987 525.122 464.182 485.896 C 464.187 485.894 509.817 480.623 516.158 471.493 C 522.529 462.321 528.684 431.790 511.444 417.513 C 530.943 406.588 533.295 374.868 516.269 361.000 C 491.152 398.546 451.167 391.260 457.643 370.234 C 466.764 340.614 466.530 318.289 465.735 308.727 C 465.164 301.848 462.569 272.230 470.944 247.780 C 479.092 223.994 533.237 236.338 590.392 234.104 C 644.226 232.000 675.781 330.938 676.375 364.260 Z"/>
<path fill="none" stroke="#000000" stroke-width="5" stroke-linecap="round" stroke-linejoin="round" d="M 676.375 364.260 C 678.484 482.470 606.987 525.122 464.182 485.896 C 464.187 485.894 509.817 480.623 516.158 471.493 C 522.529 462.321 528.684 431.790 511.444 417.513 C 530.943 406.588 533.295 374.868 516.269 361.000 C 491.152 398.546 451.167 391.260 457.643 370.234 C 466.764 340.614 466.530 318.289 465.735 308.727 C 465.164 301.848 462.569 272.230 470.944 247.780 C 479.092 223.994 533.237 236.338 590.392 234.104 C 644.226 232.000 675.781 330.938 676.375 364.260 M 524.894 302.450 C 538.027 342.596 522.381 351.863 516.269 361.000 M 546.448 302.949 C 547.331 300.858 542.032 308.309 524.894 302.450 M 582.132 438.097 C 546.874 408.971 530.636 340.385 546.448 302.949 "/>
</g>
<g id="specs_2">
<path fill="#ff0000" fill-rule="evenodd" stroke="none" d="M 360.000 665.722 C 360.001 665.726 374.603 706.611 374.604 706.615 C 374.603 706.613 360.001 693.028 360.000 693.026 C 359.999 693.028 345.397 706.613 345.396 706.615 C 345.397 706.611 359.999 665.726 360.000 665.722 Z"/>
<path fill="#0000ff" fill-rule="evenodd" stroke="none" d="M 360.000 81.562 C 360.001 81.565 368.771 106.121 368.771 106.123 C 368.771 106.122 360.001 97.963 360.000 97.962 C 359.999 97.963 351.229 106.122 351.229 106.123 C 351.229 106.121 359.999 81.565 360.000 81.562 Z"/>
<path fill="#00ff00" fill-rule="evenodd" stroke="none" d="M 25.445 361.179 C 25.447 361.178 49.153 352.576 49.156 352.575 C 49.155 352.576 41.306 361.098 41.305 361.099 C 41.306 361.100 49.240 369.541 49.241 369.542 C 49.239 369.541 25.447 361.180 25.445 361.179 Z"/>
<path fill="#ffff00" fill-rule="evenodd" stroke="none" d="M 89.988 499.901 C 89.989 499.899 99.974 478.158 99.975 478.156 C 99.975 478.157 100.501 489.135 100.501 489.137 C 100.502 489.137 111.489 489.403 111.490 489.403 C 111.488 489.404 89.990 499.900 89.988 499.901 Z"/>
<path fill="#ffff00" fill-rule="evenodd" stroke="none" d="M 630.012 499.635 C 630.011 499.633 619.591 478.097 619.590 478.094 C 619.590 478.095 619.285 489.082 619.285 489.083 C 619.284 489.083 608.303 489.570 608.302 489.570 C 608.304 489.571 630.010 499.634 630.012 499.635 Z"/>
<path fill="#00ff00" fill-rule="evenodd" stroke="none" d="M 694.555 361.179 C 694.553 361.178 670.847 352.576 670.844 352.575 C 670.845 352.576 678.694 361.098 678.695 361.099 C 678.694 361.100 670.760 369.541 670.759 369.542 C 670.761 369.541 694.553 361.180 694.555 361.179 Z"/>
<path fill="#00ffff" fill-rule="evenodd" stroke="none" d="M 626.575 226.207 C 626.574 226.209 618.658 248.560 618.658 248.562 C 618.658 248.561 617.159 237.772 617.158 237.771 C 617.157 237.771 606.288 238.488 606.287 238.488 C 606.289 238.487 626.573 226.208 626.575 226.207 Z"/>
<path fill="#00ffff" fill-rule="evenodd" stroke="none" d="M 93.556 226.948 C 93.557 226.950 102.946 248.723 102.947 248.725 C 102.947 248.724 103.723 237.859 103.723 237.858 C 103.724 237.858 114.617 237.849 114.618 237.849 C 114.616 237.848 93.559 226.949 93.556 226.948 Z"/>
<path fill="#0000ff" fill-rule="evenodd" stroke="none" d="M 360.000 638.438 C 360.001 638.436 368.771 613.879 368.771 613.877 C 368.771 613.878 360.001 622.037 360.000 622.038 C 359.999 622.037 351.229 613.878 351.229 613.877 C 351.229 613.879 359.999 638.436 360.000 638.438 Z"/>
</g>
</g>
</svg>
