<?xml version="1.0" encoding="utf-8"?>
<!-- Generator: Moho 13.5 build 20210422 -->
<!DOCTYPE svg PUBLIC "-//W3C//DTD SVG 1.1//EN" "http://www.w3.org/Graphics/SVG/1.1/DTD/svg11.dtd">
<svg version="1.1" id="Frame_0" xmlns="http://www.w3.org/2000/svg" xmlns:xlink="http://www.w3.org/1999/xlink" width="720px" height="720px">
<g id="hand_side">
<g id="hand_side_2">
<path fill="#ffffff" fill-rule="evenodd" stroke="#000000" stroke-width="4" stroke-linecap="round" stroke-linejoin="round" d="M 624.191 513.011 C 625.036 508.993 631.701 496.451 642.275 489.747 C 662.997 476.609 692.570 480.784 689.815 498.218 C 683.528 538.004 544.624 602.495 425.489 616.929 C 342.417 626.994 264.788 595.636 148.183 611.746 C 84.991 620.477 3.704 496.946 155.193 432.470 C 193.568 416.137 283.974 413.813 309.300 422.077 C 390.243 448.490 433.387 444.227 461.919 440.400 C 515.709 433.186 456.650 522.490 389.750 495.554 C 371.312 488.131 334.523 465.411 334.506 465.381 C 334.512 465.392 433.121 521.239 433.131 521.249 C 433.135 521.248 461.335 483.084 488.352 481.500 C 510.784 480.185 513.920 496.398 503.340 518.211 C 523.569 489.935 537.389 480.931 552.099 479.739 C 576.468 477.764 570.976 494.201 570.582 510.337 C 576.982 495.009 590.027 479.882 609.396 479.671 C 631.804 479.426 634.590 488.226 624.191 513.011 Z"/>
<path fill="none" stroke="#000000" stroke-width="4" stroke-linecap="round" stroke-linejoin="round" d="M 433.131 521.249 C 425.472 526.072 391.457 554.116 326.771 571.365 M 624.191 513.011 C 619.813 518.014 609.502 550.303 552.673 587.045 M 570.582 510.337 C 551.370 550.923 504.646 588.871 465.566 608.763 M 503.340 518.211 C 467.199 562.218 453.655 593.024 366.839 617.845 "/>
<path fill="none" stroke="#000000" stroke-width="4" stroke-linecap="round" stroke-linejoin="round" d="M 334.506 465.381 C 279.484 462.898 283.792 451.241 224.530 469.118 "/>
</g>
<g id="specs_2">
<path fill="#ff00ff" fill-rule="evenodd" stroke="none" d="M 160.699 483.377 C 160.742 483.377 592.442 483.377 592.485 483.377 C 592.485 483.343 592.485 143.864 592.485 143.830 C 592.442 143.830 160.742 143.830 160.699 143.830 C 160.699 143.864 160.699 483.343 160.699 483.377 Z"/>
<path fill="#ff0000" fill-rule="evenodd" stroke="none" d="M 43.528 526.372 C 43.524 526.373 9.988 538.350 9.985 538.351 C 9.986 538.350 21.130 526.373 21.131 526.372 C 21.130 526.370 9.986 514.393 9.985 514.392 C 9.988 514.393 43.524 526.370 43.528 526.372 Z"/>
<path fill="#0000ff" fill-rule="evenodd" stroke="none" d="M 388.174 133.440 C 388.175 133.442 395.132 152.923 395.133 152.925 C 395.132 152.924 388.175 146.451 388.174 146.450 C 388.173 146.451 381.216 152.924 381.215 152.925 C 381.216 152.923 388.173 133.442 388.174 133.440 Z"/>
<path fill="#00ff00" fill-rule="evenodd" stroke="none" d="M 147.801 626.963 C 147.800 626.960 139.920 605.246 139.919 605.243 C 139.920 605.244 147.727 612.433 147.727 612.434 C 147.728 612.433 155.460 605.166 155.461 605.165 C 155.460 605.167 147.801 626.960 147.801 626.963 Z"/>
<path fill="#00ff00" fill-rule="evenodd" stroke="none" d="M 147.801 419.674 C 147.800 419.676 139.920 441.391 139.919 441.393 C 139.920 441.392 147.727 434.203 147.727 434.202 C 147.728 434.203 155.460 441.471 155.461 441.471 C 155.460 441.469 147.801 419.676 147.801 419.674 Z"/>
</g>
</g>
</svg>
