<?xml version="1.0" encoding="utf-8"?>
<!-- Generator: Moho 13.5.1 build 20210623 -->
<!DOCTYPE svg PUBLIC "-//W3C//DTD SVG 1.1//EN" "http://www.w3.org/Graphics/SVG/1.1/DTD/svg11.dtd">
<svg version="1.1" id="Frame_0" xmlns="http://www.w3.org/2000/svg" xmlns:xlink="http://www.w3.org/1999/xlink" width="720px" height="720px">
<g id="hand_side">
<g id="hand_side_2">
<path fill="#ffffff" fill-rule="evenodd" stroke="#000000" stroke-width="4" stroke-linecap="round" stroke-linejoin="round" d="M 624.191 513.011 C 625.036 508.993 631.701 496.451 642.275 489.747 C 662.997 476.609 692.570 480.784 689.815 498.218 C 683.528 538.004 544.624 602.495 425.489 616.929 C 342.417 626.994 264.788 595.636 148.183 611.746 C 84.991 620.477 3.704 496.946 155.193 432.470 C 193.568 416.137 283.974 413.813 309.300 422.077 C 390.243 448.490 433.387 444.227 461.919 440.400 C 515.709 433.186 456.650 522.490 389.750 495.554 C 371.312 488.131 334.523 465.411 334.506 465.381 C 334.512 465.392 433.121 521.239 433.131 521.249 C 433.135 521.248 461.335 483.084 488.352 481.500 C 510.784 480.185 513.920 496.398 503.340 518.211 C 523.569 489.935 537.389 480.931 552.099 479.739 C 576.468 477.764 570.976 494.201 570.582 510.337 C 576.982 495.009 590.027 479.882 609.396 479.671 C 631.804 479.426 634.590 488.226 624.191 513.011 Z"/>
<path fill="none" stroke="#000000" stroke-width="4" stroke-linecap="round" stroke-linejoin="round" d="M 433.131 521.249 C 425.472 526.072 391.457 554.116 326.771 571.365 M 624.191 513.011 C 619.813 518.014 609.502 550.303 552.673 587.045 M 570.582 510.337 C 551.370 550.923 504.646 588.871 465.566 608.763 M 503.340 518.211 C 467.199 562.218 453.655 593.024 366.839 617.845 "/>
<path fill="none" stroke="#000000" stroke-width="4" stroke-linecap="round" stroke-linejoin="round" d="M 334.506 465.381 C 279.484 462.898 283.792 451.241 224.530 469.118 "/>
</g>
<g id="specs_2">
<path fill="#ff00ff" fill-rule="evenodd" stroke="none" d="M 160.699 483.377 C 160.742 483.377 592.442 483.377 592.485 483.377 C 592.485 483.343 592.485 143.864 592.485 143.830 C 592.442 143.830 160.742 143.830 160.699 143.830 C 160.699 143.864 160.699 483.343 160.699 483.377 Z"/>
<path fill="#ff0000" fill-rule="evenodd" stroke="none" d="M 43.528 526.372 C 43.524 526.373 9.988 538.350 9.985 538.351 C 9.986 538.350 21.130 526.373 21.131 526.372 C 21.130 526.370 9.986 514.393 9.985 514.392 C 9.988 514.393 43.524 526.370 43.528 526.372 Z"/>
<path fill="#0000ff" fill-rule="evenodd" stroke="none" d="M 385.176 133.440 C 385.177 133.442 392.134 152.923 392.135 152.925 C 392.134 152.924 385.177 146.451 385.176 146.450 C 385.175 146.451 378.218 152.924 378.218 152.925 C 378.218 152.923 385.175 133.442 385.176 133.440 Z"/>
<path fill="#00ff00" fill-rule="evenodd" stroke="none" d="M 632.716 312.204 C 632.710 312.206 579.243 331.608 579.238 331.610 C 579.240 331.608 596.941 312.386 596.943 312.385 C 596.941 312.383 579.047 293.344 579.045 293.342 C 579.050 293.344 632.710 312.202 632.716 312.204 Z"/>
<path fill="#00ff00" fill-rule="evenodd" stroke="none" d="M 122.321 312.204 C 122.326 312.206 175.793 331.608 175.799 331.610 C 175.797 331.608 158.095 312.386 158.094 312.385 C 158.095 312.383 175.990 293.344 175.992 293.342 C 175.987 293.344 122.326 312.202 122.321 312.204 Z"/>
</g>
</g>
</svg>
