<?xml version="1.0" encoding="utf-8"?>
<!-- Generator: Moho 13.5 build 20210422 -->
<!DOCTYPE svg PUBLIC "-//W3C//DTD SVG 1.1//EN" "http://www.w3.org/Graphics/SVG/1.1/DTD/svg11.dtd">
<svg version="1.1" id="Frame_0" xmlns="http://www.w3.org/2000/svg" xmlns:xlink="http://www.w3.org/1999/xlink" width="720px" height="720px">
<g id="hand_2finger">
<g id="hand_point">
<path id="S25" fill="#ffffff" fill-rule="evenodd" stroke="none" d="M 453.394 73.925 C 449.124 22.469 402.171 28.554 394.437 61.101 C 394.158 59.738 393.913 59.451 393.600 57.013 C 387.901 12.725 332.108 5.638 329.455 57.013 C 329.454 57.038 329.138 222.889 329.455 290.659 C 329.455 290.676 336.985 406.524 331.048 465.829 C 327.189 504.380 274.282 526.819 266.846 451.544 C 267.817 483.242 206.052 494.326 205.012 421.348 C 193.990 472.445 175.630 602.097 258.392 648.667 C 356.298 703.759 466.511 649.921 472.320 568.318 C 478.825 476.938 455.834 103.315 453.394 73.925 Z"/>
<path id="S25" fill="none" stroke="#000000" stroke-width="2" stroke-linecap="round" stroke-linejoin="round" d="M 394.437 61.101 C 394.957 97.641 393.771 240.749 393.600 286.979 M 453.394 73.925 C 449.124 22.469 402.171 28.554 394.437 61.101 C 394.158 59.738 393.913 59.451 393.600 57.013 C 387.901 12.725 332.108 5.638 329.455 57.013 C 329.454 57.038 329.138 222.889 329.455 290.659 C 329.455 290.676 336.985 406.524 331.048 465.829 C 327.189 504.380 274.282 526.819 266.846 451.544 C 267.817 483.242 206.052 494.326 205.012 421.348 C 193.990 472.445 175.630 602.097 258.392 648.667 C 356.298 703.759 466.511 649.921 472.320 568.318 C 478.825 476.938 455.834 103.315 453.394 73.925 "/>
<path fill="none" stroke="#ffffff" stroke-width="1" stroke-linecap="butt" stroke-linejoin="round" d="M 205.012 421.348 C 206.052 494.326 267.817 483.242 266.846 451.544 "/>
<path id="S27" fill="#ffffff" fill-rule="evenodd" stroke="#000000" stroke-width="2" stroke-linecap="round" stroke-linejoin="round" d="M 202.759 342.217 C 203.016 366.751 204.612 393.288 205.012 421.348 C 206.052 494.326 267.817 483.242 266.846 451.544 C 265.500 407.634 264.185 362.929 264.539 310.419 C 264.794 272.510 202.214 290.204 202.759 342.217 Z"/>
<path id="S31" fill="#ffffff" fill-rule="evenodd" stroke="#000000" stroke-width="2" stroke-linecap="round" stroke-linejoin="round" d="M 345.008 628.606 C 371.588 668.870 428.162 679.643 480.023 643.886 C 551.529 594.584 498.409 372.742 517.241 248.347 C 502.593 232.655 480.174 239.670 462.923 264.518 C 438.583 299.577 445.099 346.706 445.774 425.926 C 342.915 408.895 289.290 544.204 345.008 628.606 Z"/>
<path fill="none" stroke="#ffffff" stroke-width="1" stroke-linecap="butt" stroke-linejoin="round" d="M 331.048 465.829 C 336.985 406.524 329.455 290.676 329.455 290.659 "/>
<path fill="none" stroke="#ffffff" stroke-width="1" stroke-linecap="butt" stroke-linejoin="round" d="M 264.539 310.419 C 264.185 362.929 265.500 407.634 266.846 451.544 "/>
<path fill="none" stroke="#ffffff" stroke-width="1" stroke-linecap="butt" stroke-linejoin="round" d="M 266.846 451.544 C 274.282 526.819 327.189 504.380 331.048 465.829 "/>
<path id="S26" fill="#ffffff" fill-rule="evenodd" stroke="#000000" stroke-width="2" stroke-linecap="round" stroke-linejoin="round" d="M 331.048 465.829 C 336.985 406.524 329.455 290.676 329.455 290.659 C 327.821 237.171 265.197 246.102 264.539 310.419 C 264.185 362.929 265.500 407.634 266.846 451.544 C 274.282 526.819 327.189 504.380 331.048 465.829 Z"/>
</g>
<g id="specs">
<path fill="#ff0000" fill-rule="evenodd" stroke="none" d="M 373.901 682.488 C 373.902 682.491 385.954 716.239 385.956 716.243 C 385.954 716.242 373.902 705.027 373.901 705.026 C 373.899 705.027 361.847 716.242 361.845 716.243 C 361.847 716.239 373.899 682.491 373.901 682.488 Z"/>
<path fill="#0000ff" fill-rule="evenodd" stroke="none" d="M 359.730 2.883 C 359.731 2.885 366.732 22.489 366.732 22.491 C 366.732 22.490 359.731 15.976 359.730 15.976 C 359.729 15.976 352.728 22.490 352.727 22.491 C 352.728 22.489 359.729 2.885 359.730 2.883 Z"/>
<path fill="#00ff00" fill-rule="evenodd" stroke="none" d="M 165.295 489.768 C 165.297 489.768 183.581 483.133 183.583 483.133 C 183.582 483.133 177.529 489.706 177.528 489.707 C 177.529 489.707 183.648 496.218 183.649 496.219 C 183.647 496.218 165.297 489.769 165.295 489.768 Z"/>
<path fill="#00ff00" fill-rule="evenodd" stroke="none" d="M 547.012 489.768 C 547.010 489.768 528.727 483.133 528.725 483.133 C 528.725 483.133 534.779 489.706 534.779 489.707 C 534.779 489.707 528.659 496.218 528.659 496.219 C 528.661 496.218 547.010 489.769 547.012 489.768 Z"/>
<path fill="#be0027" fill-rule="evenodd" stroke="none" d="M 374.420 682.782 C 374.421 682.780 383.190 658.225 383.191 658.223 C 383.190 658.224 374.421 666.383 374.420 666.384 C 374.419 666.383 365.650 658.224 365.649 658.223 C 365.650 658.225 374.419 682.780 374.420 682.782 Z"/>
</g>
</g>
</svg>
