<?xml version="1.0" encoding="utf-8"?>
<!-- Generator: Moho 13.5 build 20210422 -->
<!DOCTYPE svg PUBLIC "-//W3C//DTD SVG 1.1//EN" "http://www.w3.org/Graphics/SVG/1.1/DTD/svg11.dtd">
<svg version="1.1" id="Frame_0" xmlns="http://www.w3.org/2000/svg" xmlns:xlink="http://www.w3.org/1999/xlink" width="720px" height="720px">
<g id="hands_fists">
<g id="starburst">
<path fill="#000000" fill-rule="evenodd" stroke="none" d="M 360.000 626.291 C 360.001 626.278 374.277 498.671 374.278 498.658 C 374.282 498.671 413.755 620.882 413.759 620.894 C 413.758 620.881 401.510 493.137 401.509 493.125 C 401.515 493.136 463.782 605.398 463.788 605.409 C 463.784 605.397 426.513 482.600 426.510 482.588 C 426.518 482.598 509.019 580.888 509.027 580.898 C 509.021 580.886 448.732 467.615 448.726 467.604 C 448.736 467.612 548.407 548.409 548.417 548.417 C 548.409 548.407 467.612 448.736 467.604 448.726 C 467.615 448.732 580.886 509.021 580.898 509.027 C 580.888 509.019 482.598 426.518 482.588 426.510 C 482.600 426.513 605.397 463.784 605.409 463.788 C 605.398 463.782 493.136 401.515 493.125 401.509 C 493.137 401.510 620.881 413.758 620.894 413.759 C 620.882 413.755 498.671 374.282 498.658 374.278 C 498.671 374.277 626.278 360.001 626.291 360.000 C 626.278 359.999 498.671 345.723 498.658 345.722 C 498.671 345.718 620.882 306.245 620.894 306.241 C 620.881 306.242 493.137 318.490 493.125 318.491 C 493.136 318.485 605.398 256.218 605.409 256.212 C 605.397 256.216 482.600 293.487 482.588 293.490 C 482.598 293.482 580.888 210.981 580.898 210.973 C 580.886 210.979 467.615 271.268 467.604 271.274 C 467.612 271.264 548.409 171.593 548.417 171.583 C 548.407 171.591 448.736 252.388 448.726 252.396 C 448.732 252.385 509.021 139.114 509.027 139.102 C 509.019 139.112 426.518 237.402 426.510 237.412 C 426.513 237.400 463.784 114.603 463.788 114.591 C 463.782 114.602 401.515 226.864 401.509 226.875 C 401.510 226.863 413.758 99.119 413.759 99.106 C 413.755 99.118 374.282 221.329 374.278 221.342 C 374.277 221.329 360.001 93.722 360.000 93.709 C 359.999 93.722 345.723 221.329 345.722 221.342 C 345.718 221.329 306.245 99.118 306.241 99.106 C 306.242 99.119 318.490 226.863 318.491 226.875 C 318.485 226.864 256.218 114.602 256.212 114.591 C 256.216 114.603 293.487 237.400 293.490 237.412 C 293.482 237.402 210.981 139.112 210.973 139.102 C 210.979 139.114 271.268 252.385 271.274 252.396 C 271.264 252.388 171.593 171.591 171.583 171.583 C 171.591 171.593 252.388 271.264 252.396 271.274 C 252.385 271.268 139.114 210.979 139.102 210.973 C 139.112 210.981 237.402 293.482 237.412 293.490 C 237.400 293.487 114.603 256.216 114.591 256.212 C 114.602 256.218 226.864 318.485 226.875 318.491 C 226.863 318.490 99.119 306.242 99.106 306.241 C 99.118 306.245 221.329 345.718 221.342 345.722 C 221.329 345.723 93.722 359.999 93.709 360.000 C 93.722 360.001 221.329 374.277 221.342 374.278 C 221.329 374.282 99.118 413.755 99.106 413.759 C 99.119 413.758 226.863 401.510 226.875 401.509 C 226.864 401.515 114.602 463.782 114.591 463.788 C 114.603 463.784 237.400 426.513 237.412 426.510 C 237.402 426.518 139.112 509.019 139.102 509.027 C 139.114 509.021 252.385 448.732 252.396 448.726 C 252.388 448.736 171.591 548.407 171.583 548.417 C 171.593 548.409 271.264 467.612 271.274 467.604 C 271.268 467.615 210.979 580.886 210.973 580.898 C 210.981 580.888 293.482 482.598 293.490 482.588 C 293.487 482.600 256.216 605.397 256.212 605.409 C 256.218 605.398 318.485 493.136 318.491 493.125 C 318.490 493.137 306.242 620.881 306.241 620.894 C 306.245 620.882 345.718 498.671 345.722 498.658 C 345.723 498.671 359.999 626.278 360.000 626.291 Z"/>
</g>
<g id="arm_power_fist_3">
<path fill="#ffffff" fill-rule="evenodd" stroke="#000000" stroke-width="5" stroke-linecap="round" stroke-linejoin="round" d="M 209.899 476.863 C 203.222 467.249 196.769 435.248 214.840 420.284 C 242.787 428.253 330.260 436.347 334.352 432.829 C 340.763 467.999 324.495 486.069 316.334 488.486 C 309.373 490.548 264.384 491.959 264.379 491.959 C 264.373 491.958 216.545 486.432 209.899 476.863 Z"/>
<path fill="none" stroke="#ffffff" stroke-width="1" stroke-linecap="butt" stroke-linejoin="round" d="M 334.352 432.829 C 330.260 436.347 242.787 428.253 214.840 420.284 "/>
<path fill="#ffffff" fill-rule="evenodd" stroke="#000000" stroke-width="5" stroke-linecap="round" stroke-linejoin="round" d="M 209.782 361.048 C 236.108 400.403 278.019 392.766 271.232 370.727 C 281.685 371.303 305.107 375.133 337.394 368.225 C 351.087 382.463 356.524 413.761 334.352 432.829 C 330.260 436.347 242.787 428.253 214.840 420.284 C 194.402 408.832 191.937 375.584 209.782 361.048 Z"/>
<path fill="none" stroke="#ffffff" stroke-width="1" stroke-linecap="butt" stroke-linejoin="round" d="M 337.394 368.225 C 305.107 375.133 281.685 371.303 271.232 370.727 "/>
<path fill="#ffffff" fill-rule="evenodd" stroke="#000000" stroke-width="5" stroke-linecap="round" stroke-linejoin="round" d="M 271.232 370.727 C 261.672 339.681 261.917 316.280 262.750 306.257 C 289.939 307.932 329.636 300.612 336.023 299.877 C 357.230 312.548 357.984 352.786 337.394 368.225 C 305.107 375.133 281.685 371.303 271.232 370.727 Z"/>
<path fill="none" stroke="#ffffff" stroke-width="1" stroke-linecap="butt" stroke-linejoin="round" d="M 336.023 299.877 C 329.636 300.612 289.939 307.932 262.750 306.257 "/>
<path fill="#ffffff" fill-rule="evenodd" stroke="#000000" stroke-width="5" stroke-linecap="round" stroke-linejoin="round" d="M 262.750 306.257 C 263.349 299.047 266.069 268.003 257.290 242.375 C 265.351 238.182 315.764 232.998 330.401 243.863 C 342.575 252.899 344.701 290.425 336.023 299.877 C 329.636 300.612 289.939 307.932 262.750 306.257 Z"/>
<path fill="none" stroke="#ffffff" stroke-width="1" stroke-linecap="butt" stroke-linejoin="round" d="M 264.379 491.959 C 264.373 491.958 216.545 486.432 209.899 476.863 "/>
<path fill="none" stroke="#ffffff" stroke-width="1" stroke-linecap="butt" stroke-linejoin="round" d="M 209.899 476.863 C 203.222 467.249 196.769 435.248 214.840 420.284 "/>
<path fill="none" stroke="#ffffff" stroke-width="1" stroke-linecap="butt" stroke-linejoin="round" d="M 214.840 420.284 C 194.402 408.832 191.937 375.584 209.782 361.048 "/>
<path fill="none" stroke="#ffffff" stroke-width="1" stroke-linecap="butt" stroke-linejoin="round" d="M 209.782 361.048 C 236.108 400.403 278.019 392.766 271.232 370.727 "/>
<path fill="none" stroke="#ffffff" stroke-width="1" stroke-linecap="butt" stroke-linejoin="round" d="M 271.232 370.727 C 261.672 339.681 261.917 316.280 262.750 306.257 "/>
<path fill="none" stroke="#ffffff" stroke-width="1" stroke-linecap="butt" stroke-linejoin="round" d="M 262.750 306.257 C 263.349 299.047 266.069 268.003 257.290 242.375 "/>
<path fill="#ffffff" fill-rule="evenodd" stroke="none" d="M 41.965 364.465 C 39.755 488.368 114.696 533.075 264.379 491.959 C 264.373 491.958 216.545 486.432 209.899 476.863 C 203.222 467.249 196.769 435.248 214.840 420.284 C 194.402 408.832 191.937 375.584 209.782 361.048 C 236.108 400.403 278.019 392.766 271.232 370.727 C 261.672 339.681 261.917 316.280 262.750 306.257 C 263.349 299.047 266.069 268.003 257.290 242.375 C 248.750 217.444 191.998 230.382 132.090 228.041 C 75.663 225.835 42.589 329.538 41.965 364.465 Z"/>
<path fill="none" stroke="#000000" stroke-width="5" stroke-linecap="round" stroke-linejoin="round" d="M 41.965 364.465 C 39.755 488.368 114.696 533.075 264.379 491.959 C 264.373 491.958 216.545 486.432 209.899 476.863 C 203.222 467.249 196.769 435.248 214.840 420.284 C 194.402 408.832 191.937 375.584 209.782 361.048 C 236.108 400.403 278.019 392.766 271.232 370.727 C 261.672 339.681 261.917 316.280 262.750 306.257 C 263.349 299.047 266.069 268.003 257.290 242.375 C 248.750 217.444 191.998 230.382 132.090 228.041 C 75.663 225.835 42.589 329.538 41.965 364.465 M 200.742 299.678 C 186.977 341.758 203.376 351.471 209.782 361.048 M 178.151 300.201 C 177.225 298.009 182.779 305.819 200.742 299.678 M 140.748 441.858 C 177.704 411.330 194.723 339.440 178.151 300.201 "/>
<path fill="#ffffff" fill-rule="evenodd" stroke="#000000" stroke-width="5" stroke-linecap="round" stroke-linejoin="round" d="M 510.101 476.863 C 516.779 467.249 523.231 435.248 505.160 420.284 C 477.214 428.253 389.740 436.347 385.648 432.829 C 379.237 467.999 395.505 486.069 403.666 488.486 C 410.627 490.548 455.616 491.959 455.621 491.959 C 455.627 491.958 503.455 486.432 510.101 476.863 Z"/>
<path fill="none" stroke="#ffffff" stroke-width="1" stroke-linecap="butt" stroke-linejoin="round" d="M 385.648 432.829 C 389.740 436.347 477.214 428.253 505.160 420.284 "/>
<path fill="#ffffff" fill-rule="evenodd" stroke="#000000" stroke-width="5" stroke-linecap="round" stroke-linejoin="round" d="M 510.218 361.048 C 483.891 400.403 441.980 392.766 448.767 370.727 C 438.315 371.303 414.893 375.133 382.606 368.225 C 368.913 382.463 363.476 413.761 385.648 432.829 C 389.740 436.347 477.214 428.253 505.160 420.284 C 525.598 408.831 528.063 375.584 510.218 361.048 Z"/>
<path fill="none" stroke="#ffffff" stroke-width="1" stroke-linecap="butt" stroke-linejoin="round" d="M 382.606 368.225 C 414.893 375.133 438.315 371.303 448.767 370.727 "/>
<path fill="#ffffff" fill-rule="evenodd" stroke="#000000" stroke-width="5" stroke-linecap="round" stroke-linejoin="round" d="M 448.767 370.727 C 458.328 339.681 458.083 316.280 457.250 306.257 C 430.061 307.932 390.364 300.612 383.978 299.877 C 362.770 312.548 362.016 352.786 382.606 368.225 C 414.893 375.133 438.315 371.303 448.767 370.727 Z"/>
<path fill="none" stroke="#ffffff" stroke-width="1" stroke-linecap="butt" stroke-linejoin="round" d="M 383.978 299.877 C 390.364 300.612 430.061 307.932 457.250 306.257 "/>
<path fill="#ffffff" fill-rule="evenodd" stroke="#000000" stroke-width="5" stroke-linecap="round" stroke-linejoin="round" d="M 457.250 306.257 C 456.651 299.047 453.931 268.003 462.710 242.375 C 454.649 238.182 404.236 232.998 389.599 243.863 C 377.425 252.899 375.299 290.425 383.978 299.877 C 390.364 300.612 430.061 307.932 457.250 306.257 Z"/>
<path fill="none" stroke="#ffffff" stroke-width="1" stroke-linecap="butt" stroke-linejoin="round" d="M 455.621 491.959 C 455.627 491.958 503.455 486.432 510.101 476.863 "/>
<path fill="none" stroke="#ffffff" stroke-width="1" stroke-linecap="butt" stroke-linejoin="round" d="M 510.101 476.863 C 516.779 467.249 523.231 435.248 505.160 420.284 "/>
<path fill="none" stroke="#ffffff" stroke-width="1" stroke-linecap="butt" stroke-linejoin="round" d="M 505.160 420.284 C 525.598 408.831 528.063 375.584 510.218 361.048 "/>
<path fill="none" stroke="#ffffff" stroke-width="1" stroke-linecap="butt" stroke-linejoin="round" d="M 510.218 361.048 C 483.891 400.403 441.980 392.766 448.767 370.727 "/>
<path fill="none" stroke="#ffffff" stroke-width="1" stroke-linecap="butt" stroke-linejoin="round" d="M 448.767 370.727 C 458.328 339.681 458.083 316.280 457.250 306.257 "/>
<path fill="none" stroke="#ffffff" stroke-width="1" stroke-linecap="butt" stroke-linejoin="round" d="M 457.250 306.257 C 456.651 299.047 453.931 268.003 462.710 242.375 "/>
<path fill="#ffffff" fill-rule="evenodd" stroke="none" d="M 678.035 364.465 C 680.245 488.368 605.305 533.075 455.621 491.959 C 455.627 491.958 503.455 486.432 510.101 476.863 C 516.779 467.249 523.231 435.248 505.160 420.284 C 525.598 408.831 528.063 375.584 510.218 361.048 C 483.891 400.403 441.980 392.766 448.767 370.727 C 458.328 339.681 458.083 316.280 457.250 306.257 C 456.651 299.047 453.931 268.003 462.710 242.375 C 471.250 217.444 528.002 230.382 587.910 228.041 C 644.337 225.835 677.411 329.538 678.035 364.465 Z"/>
<path fill="none" stroke="#000000" stroke-width="5" stroke-linecap="round" stroke-linejoin="round" d="M 678.035 364.465 C 680.245 488.368 605.305 533.075 455.621 491.959 C 455.627 491.958 503.455 486.432 510.101 476.863 C 516.779 467.249 523.231 435.248 505.160 420.284 C 525.598 408.831 528.063 375.584 510.218 361.048 C 483.891 400.403 441.980 392.766 448.767 370.727 C 458.328 339.681 458.083 316.280 457.250 306.257 C 456.651 299.047 453.931 268.003 462.710 242.375 C 471.250 217.444 528.002 230.382 587.910 228.041 C 644.337 225.835 677.411 329.538 678.035 364.465 M 519.257 299.678 C 533.023 341.758 516.624 351.471 510.218 361.048 M 541.849 300.201 C 542.775 298.009 537.221 305.820 519.257 299.678 M 579.252 441.858 C 542.296 411.330 525.277 339.440 541.849 300.201 "/>
</g>
<g id="specs_2">
<path fill="#ff0000" fill-rule="evenodd" stroke="none" d="M 360.000 665.721 C 360.001 665.725 374.603 706.610 374.604 706.614 C 374.603 706.613 360.001 693.027 360.000 693.026 C 359.999 693.027 345.397 706.613 345.396 706.614 C 345.397 706.610 359.999 665.725 360.000 665.721 Z"/>
<path fill="#0000ff" fill-rule="evenodd" stroke="none" d="M 360.000 81.562 C 360.001 81.565 368.771 106.121 368.772 106.123 C 368.771 106.122 360.001 97.963 360.000 97.962 C 359.999 97.963 351.229 106.122 351.228 106.123 C 351.229 106.121 359.999 81.565 360.000 81.562 Z"/>
<path fill="#00ff00" fill-rule="evenodd" stroke="none" d="M 19.901 361.181 C 19.904 361.180 44.003 352.435 44.005 352.434 C 44.004 352.435 36.026 361.099 36.025 361.100 C 36.026 361.100 44.091 369.681 44.092 369.682 C 44.089 369.681 19.904 361.182 19.901 361.181 Z"/>
<path fill="#ffff00" fill-rule="evenodd" stroke="none" d="M 81.793 504.055 C 81.794 504.052 92.083 481.652 92.084 481.650 C 92.084 481.651 92.625 492.962 92.626 492.963 C 92.627 492.963 103.947 493.238 103.948 493.238 C 103.946 493.239 81.796 504.054 81.793 504.055 Z"/>
<path fill="#ffff00" fill-rule="evenodd" stroke="none" d="M 638.207 503.780 C 638.206 503.778 627.470 481.588 627.469 481.586 C 627.469 481.587 627.154 492.907 627.154 492.908 C 627.153 492.908 615.839 493.409 615.838 493.410 C 615.840 493.411 638.204 503.779 638.207 503.780 Z"/>
<path fill="#00ff00" fill-rule="evenodd" stroke="none" d="M 700.099 361.181 C 700.096 361.180 675.997 352.435 675.995 352.434 C 675.996 352.435 683.974 361.099 683.975 361.100 C 683.974 361.100 675.909 369.681 675.908 369.682 C 675.911 369.681 700.096 361.182 700.099 361.181 Z"/>
<path fill="#00ffff" fill-rule="evenodd" stroke="none" d="M 634.665 222.053 C 634.665 222.056 626.509 245.085 626.508 245.088 C 626.508 245.086 624.963 233.969 624.963 233.968 C 624.962 233.968 613.763 234.708 613.762 234.708 C 613.764 234.707 634.663 222.055 634.665 222.053 Z"/>
<path fill="#00ffff" fill-rule="evenodd" stroke="none" d="M 85.470 222.817 C 85.471 222.819 95.144 245.253 95.145 245.256 C 95.145 245.255 95.945 234.060 95.945 234.058 C 95.946 234.058 107.169 234.050 107.170 234.050 C 107.168 234.048 85.472 222.818 85.470 222.817 Z"/>
<path fill="#0000ff" fill-rule="evenodd" stroke="none" d="M 360.000 638.438 C 360.001 638.435 368.771 613.879 368.772 613.877 C 368.771 613.878 360.001 622.037 360.000 622.038 C 359.999 622.037 351.229 613.878 351.228 613.877 C 351.229 613.879 359.999 638.435 360.000 638.438 Z"/>
</g>
</g>
</svg>
