<?xml version="1.0" encoding="utf-8"?>
<!-- Generator: Moho 13.5.1 build 20210623 -->
<!DOCTYPE svg PUBLIC "-//W3C//DTD SVG 1.1//EN" "http://www.w3.org/Graphics/SVG/1.1/DTD/svg11.dtd">
<svg version="1.1" id="Frame_0" xmlns="http://www.w3.org/2000/svg" xmlns:xlink="http://www.w3.org/1999/xlink" width="720px" height="720px">
<g id="hand">
<g id="hand">
<radialGradient id="AFB1A2DB-6DEB-4733-95CB-27EF552C2187_0" cx="41.02%" cy="64.60%" r="142.35%">
<stop offset="13.73%" style="stop-color:rgb(255,255,255);stop-opacity:1.00" />
<stop offset="100.00%" style="stop-color:rgb(0,0,0);stop-opacity:1.00" />
</radialGradient>
<path fill="url(#AFB1A2DB-6DEB-4733-95CB-27EF552C2187_0)" fill-rule="evenodd" stroke="#000000" stroke-width="4" stroke-linecap="round" stroke-linejoin="round" d="M 330.775 665.643 C 368.272 666.965 429.519 652.471 452.152 635.137 C 490.759 605.568 531.385 552.528 539.682 537.641 C 546.815 524.843 580.722 452.333 593.638 428.473 C 607.923 402.086 650.409 361.537 647.588 346.589 C 645.487 335.457 617.073 329.003 604.956 334.373 C 586.818 342.410 567.787 363.099 562.899 367.266 C 543.667 383.659 502.684 462.924 488.613 460.263 C 472.376 457.192 463.193 429.194 457.662 413.837 C 453.117 401.219 453.946 315.809 454.566 302.412 C 455.267 287.271 468.550 188.821 469.912 177.368 C 471.093 167.428 486.770 81.150 482.423 68.732 C 481.003 64.675 475.597 42.758 459.397 41.422 C 445.645 40.288 438.008 53.686 435.996 56.351 C 427.693 67.348 417.264 158.702 414.940 168.925 C 412.591 179.261 397.595 274.953 384.927 280.747 C 383.034 281.612 369.468 279.024 367.903 277.652 C 357.648 268.664 358.571 175.108 357.952 164.751 C 357.242 152.860 361.980 48.141 353.975 34.685 C 352.184 31.675 345.255 16.394 330.780 17.085 C 318.099 17.691 310.762 31.767 309.097 34.685 C 301.519 47.970 305.853 150.127 305.177 161.744 C 304.550 172.517 305.936 269.969 295.168 279.199 C 293.309 280.793 277.212 283.445 275.050 282.295 C 264.014 276.421 258.129 189.425 256.485 180.056 C 254.872 170.866 246.901 89.309 239.457 79.564 C 237.317 76.764 227.033 61.281 214.274 64.599 C 202.315 67.709 195.706 89.440 194.577 93.493 C 191.323 105.183 206.846 184.305 207.562 193.510 C 208.480 205.301 218.514 309.284 210.615 322.671 C 209.471 324.610 197.792 334.093 195.562 333.786 C 182.812 332.028 171.305 239.673 169.235 230.102 C 167.505 222.107 159.070 152.714 153.356 142.169 C 151.799 139.294 140.008 127.087 129.202 129.725 C 118.967 132.223 112.099 150.379 111.009 153.847 C 106.846 167.099 125.005 257.790 126.377 268.269 C 129.012 288.385 146.701 462.573 154.341 488.120 C 159.655 505.891 177.554 592.494 220.451 627.399 C 260.329 659.848 303.420 664.679 330.775 665.643 Z"/>
</g>
<g id="specs">
<path fill="#ff00ff" fill-rule="evenodd" stroke="none" d="M 445.312 586.252 C 445.287 586.252 200.553 586.252 200.529 586.252 C 200.529 586.227 200.529 336.746 200.529 336.721 C 200.553 336.721 445.287 336.721 445.312 336.721 C 445.312 336.746 445.312 586.227 445.312 586.252 Z"/>
<path fill="#ff0000" fill-rule="evenodd" stroke="none" d="M 336.997 678.253 C 336.996 678.256 324.888 712.158 324.887 712.161 C 324.888 712.160 336.996 700.895 336.997 700.893 C 336.999 700.895 349.106 712.160 349.107 712.161 C 349.106 712.158 336.999 678.256 336.997 678.253 Z"/>
<path fill="#0000ff" fill-rule="evenodd" stroke="none" d="M 331.634 2.659 C 331.634 2.661 324.600 22.354 324.600 22.356 C 324.600 22.356 331.634 15.812 331.634 15.811 C 331.635 15.812 338.668 22.356 338.669 22.356 C 338.668 22.354 331.635 2.661 331.634 2.659 Z"/>
<path fill="#00ff00" fill-rule="evenodd" stroke="none" d="M 609.083 459.334 C 609.078 459.332 560.071 442.841 560.066 442.840 C 560.068 442.841 576.566 459.932 576.568 459.933 C 576.566 459.935 560.708 477.620 560.707 477.622 C 560.712 477.620 609.078 459.336 609.083 459.334 Z"/>
<path fill="#ffff00" fill-rule="evenodd" stroke="none" d="M 461.879 645.039 C 461.878 645.038 453.150 626.035 453.149 626.033 C 453.149 626.034 452.690 635.630 452.690 635.631 C 452.689 635.631 443.085 635.863 443.084 635.863 C 443.086 635.864 461.877 645.039 461.879 645.039 Z"/>
<path fill="#ffff00" fill-rule="evenodd" stroke="none" d="M 215.114 642.662 C 215.115 642.660 224.223 623.836 224.224 623.834 C 224.224 623.835 224.491 633.438 224.491 633.439 C 224.492 633.439 234.089 633.864 234.090 633.864 C 234.088 633.865 215.116 642.661 215.114 642.662 Z"/>
<path fill="#be0027" fill-rule="evenodd" stroke="none" d="M 336.892 678.279 C 336.891 678.276 328.082 653.611 328.081 653.608 C 328.082 653.609 336.891 661.805 336.892 661.806 C 336.893 661.805 345.702 653.609 345.703 653.608 C 345.702 653.611 336.893 678.276 336.892 678.279 Z"/>
<path fill="#00ff00" fill-rule="evenodd" stroke="none" d="M 114.984 459.334 C 114.988 459.332 163.995 442.841 164.000 442.840 C 163.998 442.841 147.500 459.932 147.498 459.933 C 147.500 459.935 163.358 477.620 163.359 477.622 C 163.355 477.620 114.988 459.336 114.984 459.334 Z"/>
</g>
</g>
</svg>
