<?xml version="1.0" encoding="utf-8"?>
<!-- Generator: Moho 13.5 build 20210422 -->
<!DOCTYPE svg PUBLIC "-//W3C//DTD SVG 1.1//EN" "http://www.w3.org/Graphics/SVG/1.1/DTD/svg11.dtd">
<svg version="1.1" id="Frame_0" xmlns="http://www.w3.org/2000/svg" xmlns:xlink="http://www.w3.org/1999/xlink" width="720px" height="720px">
<g id="hands_giving">
<g id="hands_giving">
<path fill="#ffffff" fill-rule="evenodd" stroke="#000000" stroke-width="4" stroke-linecap="round" stroke-linejoin="round" d="M 636.749 394.777 C 636.745 394.771 654.094 360.025 656.279 356.720 C 661.388 348.993 675.845 341.514 680.411 346.319 C 690.699 357.146 646.239 467.942 593.830 520.096 C 555.761 557.980 501.056 567.049 444.864 617.550 C 416.608 642.944 335.869 610.700 387.549 527.380 C 401.595 504.733 432.273 460.428 446.027 451.197 C 473.816 432.550 502.457 402.349 516.225 404.875 C 518.866 405.360 533.182 403.174 514.168 439.726 C 507.298 452.932 459.137 468.612 460.016 503.137 C 460.183 509.689 508.669 495.715 535.634 483.606 C 544.400 479.670 552.710 454.096 559.087 437.396 C 564.486 423.258 548.342 407.580 553.285 388.578 C 554.636 383.383 559.491 376.453 561.012 376.240 C 565.873 375.558 582.231 417.661 582.231 417.661 C 582.231 417.661 583.337 413.683 584.153 411.700 C 585.302 408.904 575.411 374.704 579.814 358.568 C 581.814 351.242 588.075 343.710 589.981 343.561 C 595.908 343.098 609.784 396.127 609.784 396.127 C 609.780 396.125 619.131 354.083 628.576 338.747 C 634.510 329.114 645.964 325.739 646.628 327.861 C 653.322 330.354 636.757 394.780 636.749 394.777 Z"/>
<path fill="none" stroke="#000000" stroke-width="4" stroke-linecap="round" stroke-linejoin="round" d="M 582.231 417.661 C 575.565 443.344 570.633 456.017 568.141 474.014 M 609.784 396.127 C 598.635 424.452 591.927 445.362 588.389 464.854 M 636.749 394.777 C 636.747 394.781 625.971 422.388 616.991 437.030 C 598.479 467.211 576.000 471.607 554.283 479.887 "/>
<path fill="#ffffff" fill-rule="evenodd" stroke="#000000" stroke-width="4" stroke-linecap="round" stroke-linejoin="round" d="M 83.251 394.777 C 83.255 394.771 65.907 360.025 63.722 356.720 C 58.612 348.993 44.155 341.514 39.589 346.319 C 29.301 357.146 73.761 467.942 126.170 520.096 C 164.239 557.980 218.944 567.049 275.136 617.550 C 303.392 642.944 384.131 610.700 332.451 527.380 C 318.405 504.734 287.728 460.428 273.973 451.197 C 246.185 432.550 217.543 402.349 203.775 404.875 C 201.134 405.360 186.819 403.174 205.833 439.726 C 212.703 452.932 260.863 468.612 259.984 503.137 C 259.817 509.690 211.331 495.715 184.366 483.606 C 175.600 479.670 167.290 454.096 160.913 437.396 C 155.514 423.258 171.659 407.580 166.715 388.578 C 165.364 383.383 160.509 376.453 158.988 376.239 C 154.127 375.558 137.769 417.661 137.769 417.661 C 137.769 417.661 136.663 413.683 135.847 411.700 C 134.698 408.904 144.589 374.704 140.186 358.568 C 138.186 351.242 131.925 343.710 130.019 343.561 C 124.092 343.098 110.217 396.127 110.217 396.127 C 110.220 396.125 100.869 354.083 91.424 338.747 C 85.491 329.113 74.036 325.738 73.372 327.860 C 66.678 330.354 83.243 394.780 83.251 394.777 Z"/>
<path fill="none" stroke="#000000" stroke-width="4" stroke-linecap="round" stroke-linejoin="round" d="M 137.769 417.661 C 144.435 443.344 149.368 456.017 151.859 474.014 M 110.217 396.127 C 121.365 424.452 128.073 445.362 131.611 464.854 M 83.251 394.777 C 83.253 394.781 94.029 422.388 103.009 437.030 C 121.520 467.211 144.000 471.607 165.717 479.886 "/>
</g>
<g id="specs_2">
<path fill="#ff00ff" fill-rule="evenodd" stroke="none" d="M 90.486 402.620 C 90.540 402.620 629.460 402.620 629.514 402.620 C 629.514 402.582 629.514 22.313 629.514 22.275 C 629.460 22.275 90.540 22.275 90.486 22.275 C 90.486 22.313 90.486 402.582 90.486 402.620 Z"/>
<path fill="#ff0000" fill-rule="evenodd" stroke="none" d="M 360.000 679.381 C 360.001 679.384 371.535 711.680 371.536 711.684 C 371.535 711.683 360.001 700.951 360.000 700.950 C 359.999 700.951 348.465 711.683 348.464 711.684 C 348.465 711.680 359.999 679.384 360.000 679.381 Z"/>
<path fill="#0000ff" fill-rule="evenodd" stroke="none" d="M 360.000 9.872 C 360.001 9.874 366.701 28.634 366.701 28.636 C 366.701 28.636 360.001 22.402 360.000 22.401 C 359.999 22.402 353.299 28.636 353.299 28.636 C 353.299 28.634 359.999 9.874 360.000 9.872 Z"/>
<path fill="#00ff00" fill-rule="evenodd" stroke="none" d="M 116.623 517.521 C 116.625 517.521 131.003 512.303 131.005 512.303 C 131.004 512.303 126.244 517.472 126.243 517.473 C 126.244 517.473 131.056 522.593 131.057 522.594 C 131.055 522.593 116.625 517.522 116.623 517.521 Z"/>
<path fill="#ffff00" fill-rule="evenodd" stroke="none" d="M 260.332 609.980 C 260.332 609.980 264.018 601.954 264.018 601.954 C 264.018 601.954 264.212 606.006 264.212 606.007 C 264.213 606.007 268.268 606.105 268.269 606.105 C 268.268 606.105 260.332 609.980 260.332 609.980 Z"/>
<path fill="#ffff00" fill-rule="evenodd" stroke="none" d="M 459.668 609.882 C 459.668 609.881 455.822 601.931 455.822 601.931 C 455.822 601.931 455.709 605.986 455.709 605.987 C 455.708 605.987 451.655 606.167 451.655 606.167 C 451.656 606.167 459.668 609.882 459.668 609.882 Z"/>
<path fill="#00ff00" fill-rule="evenodd" stroke="none" d="M 603.377 517.521 C 603.375 517.521 588.997 512.303 588.995 512.303 C 588.996 512.303 593.756 517.472 593.757 517.473 C 593.756 517.473 588.944 522.593 588.943 522.594 C 588.945 522.593 603.375 517.522 603.377 517.521 Z"/>
<path fill="#be0027" fill-rule="evenodd" stroke="none" d="M 360.000 663.732 C 360.001 663.729 371.535 631.433 371.536 631.429 C 371.535 631.431 360.001 642.162 360.000 642.164 C 359.999 642.162 348.465 631.431 348.464 631.429 C 348.465 631.433 359.999 663.729 360.000 663.732 Z"/>
</g>
</g>
</svg>
