<?xml version="1.0" encoding="utf-8"?>
<!-- Generator: Moho 12.5 build 22414 -->
<!DOCTYPE svg PUBLIC "-//W3C//DTD SVG 1.1//EN" "http://www.w3.org/Graphics/SVG/1.1/DTD/svg11.dtd">
<svg version="1.1" id="Frame_0" xmlns="http://www.w3.org/2000/svg" xmlns:xlink="http://www.w3.org/1999/xlink" width="720px" height="720px">
<g id="handshake">
<g id="handshake">
<path fill="#000000" fill-rule="evenodd" stroke="none" d="M 8.578 182.349 C 10.925 252.312 46.766 275.520 78.376 314.430 C 97.215 303.252 111.520 287.401 136.461 285.250 C 147.249 284.320 157.355 292.470 160.897 296.298 C 172.057 308.359 168.338 334.782 168.338 334.786 C 177.600 326.090 205.715 297.231 216.745 290.928 C 225.398 285.983 250.852 280.106 261.265 290.585 C 281.809 311.258 261.135 350.491 261.135 350.497 C 267.066 344.161 294.817 341.784 305.497 355.284 C 318.708 371.982 298.474 416.691 298.474 416.697 C 303.793 410.817 323.822 407.931 340.860 418.249 C 359.005 429.236 354.536 456.141 328.429 494.230 C 345.175 505.127 385.507 527.027 441.234 521.692 C 472.772 518.672 466.385 483.095 466.387 483.091 C 466.393 483.092 507.029 500.638 524.537 484.879 C 544.814 466.627 537.769 444.204 537.771 444.200 C 537.776 444.200 573.048 453.562 587.579 438.884 C 606.648 419.622 600.969 393.079 600.971 393.074 C 600.975 393.073 635.785 393.852 645.858 380.759 C 652.895 371.613 660.787 336.926 647.856 315.769 C 647.843 315.760 557.184 258.200 511.848 229.416 C 467.487 211.522 445.901 184.840 404.869 163.263 C 381.379 150.911 347.225 120.038 334.249 134.745 C 307.806 164.716 230.583 234.352 193.129 183.668 C 179.776 165.599 280.205 57.384 280.208 57.353 C 285.139 51.718 193.680 22.855 117.017 35.126 C 85.040 40.245 4.778 69.052 8.578 182.349 Z"/>
<path fill="none" stroke="#ffffff" stroke-width="4" stroke-linejoin="round" d="M 466.387 483.091 C 434.970 465.577 403.553 448.063 372.136 430.549 M 537.771 444.200 C 497.530 416.714 457.289 389.228 417.049 361.742 M 600.971 393.074 C 552.854 361.922 504.737 330.770 456.621 299.618 M 8.578 182.349 C 10.925 252.312 46.766 275.520 78.376 314.430 C 97.215 303.252 111.520 287.401 136.461 285.250 C 147.249 284.320 157.355 292.470 160.897 296.298 C 172.057 308.359 168.338 334.782 168.338 334.786 C 177.600 326.090 205.715 297.231 216.745 290.928 C 225.398 285.983 250.852 280.106 261.265 290.585 C 281.809 311.258 261.135 350.491 261.135 350.497 C 267.066 344.161 294.817 341.784 305.497 355.284 C 318.708 371.982 298.474 416.691 298.474 416.697 C 303.793 410.817 323.822 407.931 340.860 418.249 C 359.005 429.236 354.536 456.141 328.429 494.230 C 345.175 505.127 385.507 527.027 441.234 521.692 C 472.772 518.672 466.385 483.095 466.387 483.091 C 466.393 483.092 507.029 500.638 524.537 484.879 C 544.814 466.627 537.769 444.204 537.771 444.200 C 537.776 444.200 573.048 453.562 587.579 438.884 C 606.648 419.622 600.969 393.079 600.971 393.074 C 600.975 393.073 635.785 393.852 645.858 380.759 C 652.895 371.613 660.787 336.926 647.856 315.769 C 647.843 315.760 557.184 258.200 511.848 229.416 C 467.487 211.522 445.901 184.840 404.869 163.263 C 381.379 150.911 347.225 120.038 334.249 134.745 C 307.806 164.716 230.583 234.352 193.129 183.668 C 179.776 165.599 280.205 57.384 280.208 57.353 C 285.139 51.718 193.680 22.855 117.017 35.126 C 85.040 40.245 4.778 69.052 8.578 182.349 "/>
<path fill="none" stroke="#ffffff" stroke-width="1" stroke-linecap="butt" stroke-linejoin="round" d="M 404.869 163.263 C 445.901 184.840 467.487 211.522 511.848 229.416 "/>
<path fill="none" stroke="#ffffff" stroke-width="1" stroke-linecap="butt" stroke-linejoin="round" d="M 511.848 229.416 C 557.184 258.200 647.843 315.760 647.856 315.769 "/>
<path fill="none" stroke="#ffffff" stroke-width="1" stroke-linecap="butt" stroke-linejoin="round" d="M 280.208 57.353 C 280.205 57.384 179.776 165.599 193.129 183.668 "/>
<path fill="none" stroke="#ffffff" stroke-width="1" stroke-linecap="butt" stroke-linejoin="round" d="M 193.129 183.668 C 230.583 234.352 307.806 164.716 334.249 134.745 "/>
<path fill="none" stroke="#ffffff" stroke-width="1" stroke-linecap="butt" stroke-linejoin="round" d="M 334.249 134.745 C 347.225 120.038 381.379 150.911 404.869 163.263 "/>
<path fill="#ffffff" fill-rule="evenodd" stroke="none" d="M 404.869 163.263 C 445.901 184.840 467.487 211.522 511.848 229.416 C 557.184 258.200 647.843 315.760 647.856 315.769 C 647.862 315.763 691.490 282.732 701.011 263.188 C 719.716 224.789 714.963 149.739 704.547 121.874 C 681.092 59.127 623.020 35.516 561.604 33.408 C 537.087 32.567 504.891 42.383 449.174 42.600 C 417.831 42.722 313.120 39.648 288.355 53.012 C 287.493 53.478 280.209 57.352 280.208 57.353 C 280.205 57.384 179.776 165.599 193.129 183.668 C 230.583 234.352 307.806 164.716 334.249 134.745 C 347.225 120.038 381.379 150.911 404.869 163.263 Z"/>
<path fill="none" stroke="#000000" stroke-width="4" stroke-linejoin="round" d="M 511.848 229.416 C 525.195 234.800 585.493 222.238 585.501 222.237 M 404.869 163.263 C 445.901 184.840 467.487 211.522 511.848 229.416 C 557.184 258.200 647.843 315.760 647.856 315.769 C 647.862 315.763 691.490 282.732 701.011 263.188 C 719.716 224.789 714.963 149.739 704.547 121.874 C 681.092 59.127 623.020 35.516 561.604 33.408 C 537.087 32.567 504.891 42.383 449.174 42.600 C 417.831 42.722 313.120 39.648 288.355 53.012 C 287.493 53.478 280.209 57.352 280.208 57.353 C 280.205 57.384 179.776 165.599 193.129 183.668 C 230.583 234.352 307.806 164.716 334.249 134.745 C 347.225 120.038 381.379 150.911 404.869 163.263 "/>
<path fill="none" stroke="#ffffff" stroke-width="1" stroke-linecap="butt" stroke-linejoin="round" d="M 298.474 416.697 C 303.793 410.817 323.822 407.931 340.860 418.249 "/>
<path fill="none" stroke="#ffffff" stroke-width="1" stroke-linecap="butt" stroke-linejoin="round" d="M 340.860 418.249 C 359.005 429.236 354.536 456.141 328.429 494.230 "/>
<path fill="#ffffff" fill-rule="evenodd" stroke="#000000" stroke-width="4" stroke-linejoin="round" d="M 245.139 529.348 C 225.717 516.933 233.039 484.877 233.038 484.873 C 250.157 478.187 286.900 429.489 298.474 416.697 C 303.793 410.817 323.822 407.931 340.860 418.249 C 359.005 429.236 354.536 456.141 328.429 494.230 C 327.892 495.013 303.414 521.481 291.583 529.470 C 284.097 534.525 260.514 539.176 245.139 529.348 Z"/>
<path fill="none" stroke="#ffffff" stroke-width="1" stroke-linecap="butt" stroke-linejoin="round" d="M 305.497 355.284 C 318.708 371.982 298.474 416.691 298.474 416.697 "/>
<path fill="none" stroke="#ffffff" stroke-width="1" stroke-linecap="butt" stroke-linejoin="round" d="M 298.474 416.697 C 286.900 429.489 250.157 478.187 233.038 484.873 "/>
<path fill="none" stroke="#ffffff" stroke-width="1" stroke-linecap="butt" stroke-linejoin="round" d="M 261.135 350.497 C 267.066 344.161 294.817 341.784 305.497 355.284 "/>
<path fill="#ffffff" fill-rule="evenodd" stroke="#000000" stroke-width="4" stroke-linejoin="round" d="M 305.497 355.284 C 318.708 371.982 298.474 416.691 298.474 416.697 C 286.900 429.489 250.157 478.187 233.038 484.873 C 223.049 488.774 197.692 501.965 177.905 484.022 C 161.404 469.060 171.125 438.464 171.124 438.460 C 194.318 430.638 240.088 372.982 261.135 350.497 C 267.066 344.161 294.817 341.784 305.497 355.284 Z"/>
<path fill="none" stroke="#ffffff" stroke-width="1" stroke-linecap="butt" stroke-linejoin="round" d="M 171.124 438.460 C 194.318 430.638 240.088 372.982 261.135 350.497 "/>
<path fill="none" stroke="#ffffff" stroke-width="1" stroke-linecap="butt" stroke-linejoin="round" d="M 261.135 350.497 C 261.135 350.491 281.809 311.258 261.265 290.585 "/>
<path fill="none" stroke="#ffffff" stroke-width="1" stroke-linecap="butt" stroke-linejoin="round" d="M 261.265 290.585 C 250.852 280.106 225.398 285.983 216.745 290.928 "/>
<path fill="none" stroke="#ffffff" stroke-width="1" stroke-linecap="butt" stroke-linejoin="round" d="M 216.745 290.928 C 205.715 297.231 177.600 326.090 168.338 334.786 "/>
<path fill="#ffffff" fill-rule="evenodd" stroke="#000000" stroke-width="4" stroke-linejoin="round" d="M 168.338 334.786 C 158.383 344.133 131.252 380.363 118.025 383.759 C 118.025 383.764 96.781 416.317 115.944 435.430 C 136.526 455.959 160.940 441.894 171.124 438.460 C 194.318 430.638 240.088 372.982 261.135 350.497 C 261.135 350.491 281.809 311.258 261.265 290.585 C 250.852 280.106 225.398 285.983 216.745 290.928 C 205.715 297.231 177.600 326.090 168.338 334.786 Z"/>
<path fill="none" stroke="#ffffff" stroke-width="1" stroke-linecap="butt" stroke-linejoin="round" d="M 160.897 296.298 C 172.057 308.359 168.338 334.782 168.338 334.786 "/>
<path fill="none" stroke="#ffffff" stroke-width="1" stroke-linecap="butt" stroke-linejoin="round" d="M 168.338 334.786 C 158.383 344.133 131.252 380.363 118.025 383.759 "/>
<path fill="none" stroke="#ffffff" stroke-width="1" stroke-linecap="butt" stroke-linejoin="round" d="M 78.376 314.430 C 97.215 303.252 111.520 287.401 136.461 285.250 "/>
<path fill="none" stroke="#ffffff" stroke-width="1" stroke-linecap="butt" stroke-linejoin="round" d="M 136.461 285.250 C 147.249 284.320 157.355 292.470 160.897 296.298 "/>
<path fill="#ffffff" fill-rule="evenodd" stroke="#000000" stroke-width="4" stroke-linejoin="round" d="M 160.897 296.298 C 172.057 308.359 168.338 334.782 168.338 334.786 C 158.383 344.133 131.252 380.363 118.025 383.759 C 109.422 385.968 84.419 386.780 73.489 373.647 C 66.744 365.542 65.116 343.294 66.426 335.951 C 67.267 331.238 73.453 317.350 78.376 314.430 C 97.215 303.252 111.520 287.401 136.461 285.250 C 147.249 284.320 157.355 292.470 160.897 296.298 Z"/>
</g>
<g id="specs_2">
<path fill="#ff0000" fill-rule="evenodd" stroke="none" d="M 360.000 643.481 C 360.001 643.484 372.432 678.290 372.433 678.294 C 372.432 678.292 360.001 666.727 360.000 666.725 C 359.999 666.727 347.568 678.292 347.567 678.294 C 347.568 678.290 359.999 643.484 360.000 643.481 Z"/>
<path fill="#0000ff" fill-rule="evenodd" stroke="none" d="M 360.000 34.115 C 360.001 34.117 367.221 54.335 367.222 54.337 C 367.221 54.336 360.001 47.618 360.000 47.617 C 359.999 47.618 352.779 54.336 352.778 54.337 C 352.779 54.335 359.999 34.117 360.000 34.115 Z"/>
<path fill="#00ff00" fill-rule="evenodd" stroke="none" d="M 64.282 310.995 C 64.284 310.994 83.424 304.048 83.426 304.048 C 83.425 304.048 77.088 310.929 77.088 310.930 C 77.088 310.931 83.494 317.746 83.495 317.747 C 83.493 317.746 64.284 310.995 64.282 310.995 Z"/>
<path fill="#ffff00" fill-rule="evenodd" stroke="none" d="M 164.931 446.925 C 164.931 446.923 172.145 431.216 172.146 431.215 C 172.146 431.216 172.526 439.147 172.526 439.148 C 172.527 439.148 180.464 439.340 180.465 439.340 C 180.463 439.341 164.932 446.924 164.931 446.925 Z"/>
<path fill="#ffff00" fill-rule="evenodd" stroke="none" d="M 555.069 446.732 C 555.069 446.731 547.541 431.172 547.541 431.170 C 547.541 431.171 547.320 439.109 547.320 439.109 C 547.319 439.109 539.386 439.461 539.385 439.461 C 539.387 439.462 555.068 446.731 555.069 446.732 Z"/>
<path fill="#00ff00" fill-rule="evenodd" stroke="none" d="M 655.718 310.995 C 655.716 310.994 636.576 304.048 636.574 304.048 C 636.575 304.048 642.912 310.929 642.912 310.930 C 642.912 310.931 636.506 317.746 636.505 317.747 C 636.507 317.746 655.716 310.995 655.718 310.995 Z"/>
<path fill="#00ffff" fill-rule="evenodd" stroke="none" d="M 676.830 60.692 C 676.829 60.694 667.420 87.261 667.419 87.263 C 667.419 87.262 665.637 74.438 665.637 74.437 C 665.636 74.437 652.717 75.290 652.715 75.290 C 652.718 75.288 676.828 60.693 676.830 60.692 Z"/>
<path fill="#00ffff" fill-rule="evenodd" stroke="none" d="M 43.282 61.572 C 43.283 61.575 54.442 87.455 54.443 87.457 C 54.443 87.456 55.366 74.541 55.366 74.540 C 55.367 74.540 68.314 74.530 68.315 74.530 C 68.313 74.529 43.284 61.573 43.282 61.572 Z"/>
<path fill="#be0027" fill-rule="evenodd" stroke="none" d="M 360.000 529.402 C 360.001 529.399 372.432 494.593 372.433 494.589 C 372.432 494.590 360.001 506.156 360.000 506.158 C 359.999 506.156 347.568 494.590 347.567 494.589 C 347.568 494.593 359.999 529.399 360.000 529.402 Z"/>
</g>
</g>
</svg>
