<?xml version="1.0" encoding="utf-8"?>
<!-- Generator: Moho 12.5 build 22414 -->
<!DOCTYPE svg PUBLIC "-//W3C//DTD SVG 1.1//EN" "http://www.w3.org/Graphics/SVG/1.1/DTD/svg11.dtd">
<svg version="1.1" id="Frame_0" xmlns="http://www.w3.org/2000/svg" xmlns:xlink="http://www.w3.org/1999/xlink" width="720px" height="720px">
<g id="hands_fists">
<g id="starburst">
<path fill="#000000" fill-rule="evenodd" stroke="#ffffff" stroke-width="5" stroke-linecap="round" stroke-linejoin="round" d="M 360.000 642.109 C 360.002 642.096 375.125 506.909 375.126 506.895 C 375.130 506.908 416.948 636.379 416.953 636.392 C 416.951 636.379 403.976 501.046 403.975 501.033 C 403.981 501.045 469.947 619.976 469.954 619.988 C 469.950 619.975 430.465 489.883 430.461 489.870 C 430.469 489.881 517.871 594.009 517.880 594.020 C 517.873 594.008 454.003 474.008 453.997 473.996 C 454.007 474.005 559.599 559.601 559.610 559.610 C 559.601 559.599 474.005 454.008 473.996 453.997 C 474.008 454.003 594.008 517.874 594.020 517.880 C 594.009 517.871 489.881 430.469 489.870 430.461 C 489.883 430.465 619.975 469.950 619.988 469.954 C 619.976 469.947 501.045 403.981 501.033 403.975 C 501.046 403.976 636.379 416.951 636.392 416.953 C 636.379 416.948 506.908 375.130 506.895 375.126 C 506.909 375.125 642.096 360.002 642.109 360.000 C 642.096 359.999 506.909 344.875 506.895 344.874 C 506.908 344.870 636.379 303.052 636.392 303.047 C 636.379 303.049 501.046 316.024 501.033 316.025 C 501.045 316.019 619.976 250.053 619.988 250.046 C 619.975 250.050 489.883 289.535 489.870 289.539 C 489.881 289.531 594.009 202.129 594.020 202.120 C 594.008 202.127 474.008 265.997 473.996 266.003 C 474.005 265.993 559.601 160.401 559.610 160.391 C 559.599 160.399 454.008 245.995 453.997 246.004 C 454.003 245.992 517.874 125.993 517.880 125.981 C 517.871 125.991 430.469 230.119 430.461 230.130 C 430.465 230.117 469.950 100.025 469.954 100.012 C 469.947 100.024 403.981 218.955 403.975 218.967 C 403.976 218.954 416.951 83.621 416.953 83.608 C 416.948 83.621 375.130 213.092 375.126 213.105 C 375.125 213.091 360.002 77.904 360.000 77.891 C 359.999 77.904 344.875 213.091 344.874 213.105 C 344.870 213.092 303.052 83.621 303.047 83.608 C 303.049 83.621 316.024 218.954 316.025 218.967 C 316.019 218.955 250.053 100.024 250.046 100.012 C 250.050 100.025 289.535 230.117 289.539 230.130 C 289.531 230.119 202.129 125.991 202.120 125.981 C 202.127 125.993 265.997 245.992 266.003 246.004 C 265.993 245.995 160.401 160.399 160.391 160.391 C 160.399 160.401 245.995 265.992 246.004 266.003 C 245.992 265.997 125.993 202.126 125.981 202.120 C 125.991 202.129 230.119 289.531 230.130 289.539 C 230.117 289.535 100.025 250.050 100.012 250.046 C 100.024 250.053 218.955 316.019 218.967 316.025 C 218.954 316.024 83.621 303.049 83.608 303.047 C 83.621 303.052 213.092 344.870 213.105 344.874 C 213.091 344.875 77.904 359.999 77.891 360.000 C 77.904 360.002 213.091 375.125 213.105 375.126 C 213.092 375.130 83.621 416.948 83.608 416.953 C 83.621 416.951 218.954 403.976 218.967 403.975 C 218.955 403.981 100.024 469.947 100.012 469.954 C 100.025 469.950 230.117 430.465 230.130 430.461 C 230.119 430.469 125.991 517.871 125.981 517.880 C 125.993 517.873 245.992 454.003 246.004 453.997 C 245.995 454.007 160.399 559.599 160.391 559.610 C 160.401 559.601 265.992 474.005 266.003 473.996 C 265.997 474.008 202.126 594.008 202.120 594.020 C 202.129 594.009 289.531 489.881 289.539 489.870 C 289.535 489.883 250.050 619.975 250.046 619.988 C 250.053 619.976 316.019 501.045 316.025 501.033 C 316.024 501.046 303.049 636.379 303.047 636.392 C 303.052 636.379 344.870 506.908 344.874 506.895 C 344.875 506.909 359.999 642.096 360.000 642.109 Z"/>
</g>
<g id="arm_power_fist_3">
<path fill="#ffffff" fill-rule="evenodd" stroke="#000000" stroke-width="5" stroke-linecap="round" stroke-linejoin="round" d="M 203.842 471.493 C 197.471 462.321 191.316 431.790 208.556 417.513 C 235.218 425.117 318.672 432.839 322.576 429.482 C 328.693 463.037 313.172 480.276 305.386 482.582 C 298.745 484.549 255.823 485.895 255.818 485.896 C 255.813 485.894 210.183 480.623 203.842 471.493 Z"/>
<path fill="none" stroke="#ffffff" stroke-width="1" stroke-linecap="butt" stroke-linejoin="round" d="M 322.576 429.482 C 318.672 432.839 235.218 425.117 208.556 417.513 "/>
<path fill="#ffffff" fill-rule="evenodd" stroke="#000000" stroke-width="5" stroke-linecap="round" stroke-linejoin="round" d="M 203.731 361.000 C 228.847 398.546 268.833 391.260 262.357 370.234 C 272.329 370.784 294.675 374.437 325.479 367.847 C 338.542 381.431 343.730 411.291 322.576 429.482 C 318.672 432.839 235.218 425.117 208.556 417.513 C 189.057 406.588 186.705 374.868 203.731 361.000 Z"/>
<path fill="none" stroke="#ffffff" stroke-width="1" stroke-linecap="butt" stroke-linejoin="round" d="M 325.479 367.847 C 294.675 374.437 272.329 370.784 262.357 370.234 "/>
<path fill="#ffffff" fill-rule="evenodd" stroke="#000000" stroke-width="5" stroke-linecap="round" stroke-linejoin="round" d="M 262.357 370.234 C 253.236 340.614 253.470 318.289 254.265 308.727 C 280.204 310.324 318.077 303.341 324.170 302.639 C 344.404 314.728 345.123 353.117 325.479 367.847 C 294.675 374.437 272.329 370.784 262.357 370.234 Z"/>
<path fill="none" stroke="#ffffff" stroke-width="1" stroke-linecap="butt" stroke-linejoin="round" d="M 324.170 302.639 C 318.077 303.341 280.204 310.324 254.265 308.727 "/>
<path fill="#ffffff" fill-rule="evenodd" stroke="#000000" stroke-width="5" stroke-linecap="round" stroke-linejoin="round" d="M 254.265 308.727 C 254.836 301.848 257.431 272.230 249.056 247.780 C 256.746 243.779 304.842 238.834 318.807 249.199 C 330.421 257.821 332.450 293.622 324.170 302.639 C 318.077 303.341 280.204 310.324 254.265 308.727 Z"/>
<path fill="none" stroke="#ffffff" stroke-width="1" stroke-linecap="butt" stroke-linejoin="round" d="M 255.818 485.896 C 255.813 485.894 210.183 480.623 203.842 471.493 "/>
<path fill="none" stroke="#ffffff" stroke-width="1" stroke-linecap="butt" stroke-linejoin="round" d="M 203.842 471.493 C 197.471 462.321 191.316 431.790 208.556 417.513 "/>
<path fill="none" stroke="#ffffff" stroke-width="1" stroke-linecap="butt" stroke-linejoin="round" d="M 208.556 417.513 C 189.057 406.588 186.705 374.868 203.731 361.000 "/>
<path fill="none" stroke="#ffffff" stroke-width="1" stroke-linecap="butt" stroke-linejoin="round" d="M 203.731 361.000 C 228.847 398.546 268.833 391.260 262.357 370.234 "/>
<path fill="none" stroke="#ffffff" stroke-width="1" stroke-linecap="butt" stroke-linejoin="round" d="M 262.357 370.234 C 253.236 340.614 253.470 318.289 254.265 308.727 "/>
<path fill="none" stroke="#ffffff" stroke-width="1" stroke-linecap="butt" stroke-linejoin="round" d="M 254.265 308.727 C 254.836 301.848 257.431 272.230 249.056 247.780 "/>
<path fill="#ffffff" fill-rule="evenodd" stroke="none" d="M 43.625 364.259 C 41.516 482.470 113.013 525.122 255.818 485.896 C 255.813 485.894 210.183 480.623 203.842 471.493 C 197.471 462.321 191.316 431.790 208.556 417.513 C 189.057 406.588 186.705 374.868 203.731 361.000 C 228.847 398.546 268.833 391.260 262.357 370.234 C 253.236 340.614 253.470 318.289 254.265 308.727 C 254.836 301.848 257.431 272.230 249.056 247.780 C 240.908 223.994 186.763 236.338 129.608 234.104 C 75.774 232.000 44.220 330.938 43.625 364.259 Z"/>
<path fill="none" stroke="#000000" stroke-width="5" stroke-linecap="round" stroke-linejoin="round" d="M 43.625 364.259 C 41.516 482.470 113.013 525.122 255.818 485.896 C 255.813 485.894 210.183 480.623 203.842 471.493 C 197.471 462.321 191.316 431.790 208.556 417.513 C 189.057 406.588 186.705 374.868 203.731 361.000 C 228.847 398.546 268.833 391.260 262.357 370.234 C 253.236 340.614 253.470 318.289 254.265 308.727 C 254.836 301.848 257.431 272.230 249.056 247.780 C 240.908 223.994 186.763 236.338 129.608 234.104 C 75.774 232.000 44.220 330.938 43.625 364.259 M 195.106 302.450 C 181.973 342.596 197.619 351.863 203.731 361.000 M 173.552 302.949 C 172.669 300.858 177.968 308.309 195.106 302.450 M 137.868 438.097 C 173.126 408.971 189.363 340.385 173.552 302.949 "/>
<path fill="#ffffff" fill-rule="evenodd" stroke="#000000" stroke-width="5" stroke-linecap="round" stroke-linejoin="round" d="M 516.158 471.493 C 522.529 462.321 528.684 431.790 511.444 417.513 C 484.781 425.117 401.327 432.839 397.424 429.482 C 391.307 463.037 406.828 480.276 414.614 482.582 C 421.255 484.549 464.177 485.895 464.182 485.896 C 464.187 485.894 509.817 480.623 516.158 471.493 Z"/>
<path fill="none" stroke="#ffffff" stroke-width="1" stroke-linecap="butt" stroke-linejoin="round" d="M 397.424 429.482 C 401.327 432.839 484.781 425.117 511.444 417.513 "/>
<path fill="#ffffff" fill-rule="evenodd" stroke="#000000" stroke-width="5" stroke-linecap="round" stroke-linejoin="round" d="M 516.269 361.000 C 491.152 398.546 451.167 391.260 457.643 370.234 C 447.671 370.784 425.324 374.437 394.521 367.847 C 381.458 381.431 376.270 411.291 397.424 429.482 C 401.327 432.839 484.781 425.117 511.444 417.513 C 530.943 406.588 533.295 374.868 516.269 361.000 Z"/>
<path fill="none" stroke="#ffffff" stroke-width="1" stroke-linecap="butt" stroke-linejoin="round" d="M 394.521 367.847 C 425.324 374.437 447.671 370.784 457.643 370.234 "/>
<path fill="#ffffff" fill-rule="evenodd" stroke="#000000" stroke-width="5" stroke-linecap="round" stroke-linejoin="round" d="M 457.643 370.234 C 466.764 340.614 466.530 318.289 465.735 308.727 C 439.796 310.324 401.923 303.341 395.830 302.639 C 375.596 314.728 374.877 353.117 394.521 367.847 C 425.324 374.437 447.671 370.784 457.643 370.234 Z"/>
<path fill="none" stroke="#ffffff" stroke-width="1" stroke-linecap="butt" stroke-linejoin="round" d="M 395.830 302.639 C 401.923 303.341 439.796 310.324 465.735 308.727 "/>
<path fill="#ffffff" fill-rule="evenodd" stroke="#000000" stroke-width="5" stroke-linecap="round" stroke-linejoin="round" d="M 465.735 308.727 C 465.164 301.848 462.569 272.230 470.944 247.780 C 463.254 243.779 415.157 238.834 401.193 249.199 C 389.579 257.821 387.550 293.622 395.830 302.639 C 401.923 303.341 439.796 310.324 465.735 308.727 Z"/>
<path fill="none" stroke="#ffffff" stroke-width="1" stroke-linecap="butt" stroke-linejoin="round" d="M 464.182 485.896 C 464.187 485.894 509.817 480.623 516.158 471.493 "/>
<path fill="none" stroke="#ffffff" stroke-width="1" stroke-linecap="butt" stroke-linejoin="round" d="M 516.158 471.493 C 522.529 462.321 528.684 431.790 511.444 417.513 "/>
<path fill="none" stroke="#ffffff" stroke-width="1" stroke-linecap="butt" stroke-linejoin="round" d="M 511.444 417.513 C 530.943 406.588 533.295 374.868 516.269 361.000 "/>
<path fill="none" stroke="#ffffff" stroke-width="1" stroke-linecap="butt" stroke-linejoin="round" d="M 516.269 361.000 C 491.152 398.546 451.167 391.260 457.643 370.234 "/>
<path fill="none" stroke="#ffffff" stroke-width="1" stroke-linecap="butt" stroke-linejoin="round" d="M 457.643 370.234 C 466.764 340.614 466.530 318.289 465.735 308.727 "/>
<path fill="none" stroke="#ffffff" stroke-width="1" stroke-linecap="butt" stroke-linejoin="round" d="M 465.735 308.727 C 465.164 301.848 462.569 272.230 470.944 247.780 "/>
<path fill="#ffffff" fill-rule="evenodd" stroke="none" d="M 676.375 364.260 C 678.484 482.470 606.987 525.122 464.182 485.896 C 464.187 485.894 509.817 480.623 516.158 471.493 C 522.529 462.321 528.684 431.790 511.444 417.513 C 530.943 406.588 533.295 374.868 516.269 361.000 C 491.152 398.546 451.167 391.260 457.643 370.234 C 466.764 340.614 466.530 318.289 465.735 308.727 C 465.164 301.848 462.569 272.230 470.944 247.780 C 479.092 223.994 533.237 236.338 590.392 234.104 C 644.226 232.000 675.781 330.938 676.375 364.260 Z"/>
<path fill="none" stroke="#000000" stroke-width="5" stroke-linecap="round" stroke-linejoin="round" d="M 676.375 364.260 C 678.484 482.470 606.987 525.122 464.182 485.896 C 464.187 485.894 509.817 480.623 516.158 471.493 C 522.529 462.321 528.684 431.790 511.444 417.513 C 530.943 406.588 533.295 374.868 516.269 361.000 C 491.152 398.546 451.167 391.260 457.643 370.234 C 466.764 340.614 466.530 318.289 465.735 308.727 C 465.164 301.848 462.569 272.230 470.944 247.780 C 479.092 223.994 533.237 236.338 590.392 234.104 C 644.226 232.000 675.781 330.938 676.375 364.260 M 524.894 302.450 C 538.027 342.596 522.381 351.863 516.269 361.000 M 546.448 302.949 C 547.331 300.858 542.032 308.309 524.894 302.450 M 582.132 438.097 C 546.874 408.971 530.636 340.385 546.448 302.949 "/>
</g>
<g id="specs_2">
<path fill="#ff0000" fill-rule="evenodd" stroke="none" d="M 360.000 665.722 C 360.001 665.726 374.603 706.611 374.604 706.615 C 374.603 706.613 360.001 693.028 360.000 693.026 C 359.999 693.028 345.397 706.613 345.396 706.615 C 345.397 706.611 359.999 665.726 360.000 665.722 Z"/>
<path fill="#0000ff" fill-rule="evenodd" stroke="none" d="M 360.000 120.392 C 360.001 120.395 368.482 144.144 368.483 144.146 C 368.482 144.146 360.001 136.254 360.000 136.253 C 359.999 136.254 351.518 144.146 351.517 144.146 C 351.518 144.144 359.999 120.395 360.000 120.392 Z"/>
<path fill="#00ff00" fill-rule="evenodd" stroke="none" d="M 25.445 361.179 C 25.447 361.178 49.153 352.576 49.156 352.575 C 49.155 352.576 41.306 361.098 41.305 361.099 C 41.306 361.100 49.240 369.541 49.241 369.542 C 49.239 369.541 25.447 361.180 25.445 361.179 Z"/>
<path fill="#ffff00" fill-rule="evenodd" stroke="none" d="M 89.988 499.901 C 89.989 499.899 99.974 478.158 99.975 478.156 C 99.975 478.157 100.501 489.135 100.501 489.137 C 100.502 489.137 111.489 489.403 111.490 489.403 C 111.488 489.404 89.990 499.900 89.988 499.901 Z"/>
<path fill="#ffff00" fill-rule="evenodd" stroke="none" d="M 630.012 499.635 C 630.011 499.633 619.591 478.097 619.590 478.094 C 619.590 478.095 619.285 489.082 619.285 489.083 C 619.284 489.083 608.303 489.570 608.302 489.570 C 608.304 489.571 630.010 499.634 630.012 499.635 Z"/>
<path fill="#00ff00" fill-rule="evenodd" stroke="none" d="M 694.555 361.179 C 694.553 361.178 670.847 352.576 670.844 352.575 C 670.845 352.576 678.694 361.098 678.695 361.099 C 678.694 361.100 670.760 369.541 670.759 369.542 C 670.761 369.541 694.553 361.180 694.555 361.179 Z"/>
<path fill="#00ffff" fill-rule="evenodd" stroke="none" d="M 626.575 226.207 C 626.574 226.209 618.658 248.560 618.658 248.562 C 618.658 248.561 617.159 237.772 617.158 237.771 C 617.157 237.771 606.288 238.488 606.287 238.488 C 606.289 238.487 626.573 226.208 626.575 226.207 Z"/>
<path fill="#00ffff" fill-rule="evenodd" stroke="none" d="M 93.556 226.948 C 93.557 226.950 102.946 248.723 102.947 248.725 C 102.947 248.724 103.723 237.859 103.723 237.858 C 103.724 237.858 114.617 237.849 114.618 237.849 C 114.616 237.848 93.559 226.949 93.556 226.948 Z"/>
<path fill="#be0027" fill-rule="evenodd" stroke="none" d="M 360.000 614.217 C 360.001 614.213 374.603 573.328 374.604 573.324 C 374.603 573.325 360.001 586.911 360.000 586.912 C 359.999 586.911 345.397 573.325 345.396 573.324 C 345.397 573.328 359.999 614.213 360.000 614.217 Z"/>
</g>
</g>
</svg>
