<?xml version="1.0" encoding="utf-8"?>
<!-- Generator: Moho 12.5 build 22414 -->
<!DOCTYPE svg PUBLIC "-//W3C//DTD SVG 1.1//EN" "http://www.w3.org/Graphics/SVG/1.1/DTD/svg11.dtd">
<svg version="1.1" id="Frame_0" xmlns="http://www.w3.org/2000/svg" xmlns:xlink="http://www.w3.org/1999/xlink" width="720px" height="720px">
<g id="hand_side">
<g id="hand_side_2">
<path fill="#ffffff" fill-rule="evenodd" stroke="#000000" stroke-width="4" stroke-linecap="round" stroke-linejoin="round" d="M 623.862 512.821 C 624.706 508.808 631.363 496.281 641.924 489.585 C 662.620 476.464 692.156 480.633 689.405 498.046 C 683.125 537.783 544.394 602.193 425.408 616.610 C 342.439 626.662 264.906 595.343 148.446 611.433 C 85.333 620.153 4.147 496.776 155.448 432.380 C 193.774 416.068 284.069 413.746 309.363 422.000 C 390.205 448.380 433.296 444.122 461.792 440.300 C 515.516 433.095 456.530 522.288 389.713 495.386 C 371.297 487.971 334.554 465.279 334.538 465.250 C 334.543 465.261 433.029 521.038 433.039 521.049 C 433.043 521.047 461.209 482.931 488.193 481.349 C 510.596 480.035 513.728 496.229 503.161 518.014 C 523.365 489.773 537.168 480.781 551.860 479.590 C 576.199 477.617 570.713 494.034 570.320 510.150 C 576.712 494.842 589.741 479.733 609.085 479.522 C 631.466 479.277 634.249 488.066 623.862 512.821 Z"/>
<path fill="none" stroke="#000000" stroke-width="4" stroke-linecap="round" stroke-linejoin="round" d="M 433.039 521.049 C 425.391 525.865 391.418 553.875 326.813 571.102 M 623.862 512.821 C 619.490 517.818 609.192 550.067 552.433 586.762 M 570.320 510.150 C 551.132 550.686 504.466 588.586 465.434 608.454 M 503.161 518.014 C 467.066 561.966 453.539 592.734 366.830 617.524 "/>
<path fill="none" stroke="#000000" stroke-width="4" stroke-linecap="round" stroke-linejoin="round" d="M 334.538 465.250 C 279.584 462.770 283.887 451.128 224.698 468.982 "/>
</g>
<g id="specs_2">
<path fill="#ff00ff" fill-rule="evenodd" stroke="none" d="M 160.947 483.223 C 160.990 483.223 592.153 483.223 592.196 483.223 C 592.196 483.189 592.196 144.133 592.196 144.099 C 592.153 144.099 160.990 144.099 160.947 144.099 C 160.947 144.133 160.947 483.189 160.947 483.223 Z"/>
<path fill="#ff0000" fill-rule="evenodd" stroke="none" d="M 43.921 512.895 C 43.918 512.896 10.423 524.859 10.420 524.860 C 10.421 524.859 21.551 512.896 21.552 512.895 C 21.551 512.894 10.421 500.932 10.420 500.931 C 10.423 500.932 43.918 512.894 43.921 512.895 Z"/>
<path fill="#0000ff" fill-rule="evenodd" stroke="none" d="M 704.013 496.986 C 704.011 496.987 684.554 503.936 684.552 503.936 C 684.553 503.936 691.018 496.987 691.018 496.986 C 691.018 496.986 684.553 490.037 684.552 490.036 C 684.554 490.037 704.011 496.986 704.013 496.986 Z"/>
<path fill="#00ff00" fill-rule="evenodd" stroke="none" d="M 148.064 626.631 C 148.064 626.628 140.194 604.941 140.193 604.938 C 140.194 604.939 147.990 612.119 147.991 612.120 C 147.992 612.119 155.715 604.861 155.715 604.860 C 155.715 604.862 148.065 626.628 148.064 626.631 Z"/>
<path fill="#00ff00" fill-rule="evenodd" stroke="none" d="M 148.064 419.599 C 148.064 419.602 140.194 441.289 140.193 441.292 C 140.194 441.291 147.990 434.111 147.991 434.110 C 147.992 434.111 155.715 441.369 155.715 441.370 C 155.715 441.368 148.065 419.602 148.064 419.599 Z"/>
</g>
</g>
</svg>
