<?xml version="1.0" encoding="utf-8"?>
<!-- Generator: Moho 13.5 build 20210422 -->
<!DOCTYPE svg PUBLIC "-//W3C//DTD SVG 1.1//EN" "http://www.w3.org/Graphics/SVG/1.1/DTD/svg11.dtd">
<svg version="1.1" id="Frame_0" xmlns="http://www.w3.org/2000/svg" xmlns:xlink="http://www.w3.org/1999/xlink" width="720px" height="720px">
<g id="hand_point_2">
<g id="hand_point">
<path fill="#ffffff" fill-rule="evenodd" stroke="#000000" stroke-width="4" stroke-linecap="round" stroke-linejoin="round" d="M 336.803 665.922 C 375.004 667.269 437.732 652.926 460.458 634.844 C 493.745 608.359 527.120 572.180 534.658 547.497 C 544.227 516.165 538.160 390.721 547.454 346.916 C 558.531 294.704 596.635 252.853 588.003 236.833 C 580.194 222.341 537.303 230.683 524.031 244.640 C 505.052 264.598 491.113 300.928 486.835 308.752 C 480.652 320.062 466.159 365.828 466.157 365.834 C 466.157 365.829 465.588 332.343 464.574 318.536 C 464.374 315.809 463.028 298.603 462.918 295.871 C 462.257 279.428 463.476 171.615 463.403 159.094 C 463.340 148.484 467.957 55.653 461.667 43.207 C 459.692 39.300 451.335 17.873 434.794 18.667 C 420.753 19.341 414.858 33.913 413.131 36.844 C 405.800 49.280 403.303 145.406 402.264 156.341 C 401.229 167.235 390.478 275.285 390.474 275.296 C 390.469 275.292 363.736 260.796 359.653 260.163 C 331.510 255.799 311.837 274.378 308.015 273.720 C 286.516 270.018 267.082 262.623 247.086 276.874 C 236.556 284.378 233.329 296.989 233.327 296.992 C 233.314 297.000 185.612 284.652 163.111 338.317 C 154.749 358.260 153.352 464.843 158.553 489.558 C 164.303 516.879 181.993 592.488 224.408 626.960 C 265.053 659.995 308.934 664.940 336.803 665.922 Z"/>
</g>
<g id="specs">
<path fill="#ff00ff" fill-rule="evenodd" stroke="none" d="M 441.339 582.492 C 441.317 582.492 223.215 582.492 223.193 582.492 C 223.193 582.469 223.193 349.848 223.193 349.825 C 223.215 349.825 441.317 349.825 441.339 349.825 C 441.339 349.848 441.339 582.469 441.339 582.492 Z"/>
<path fill="#ff0000" fill-rule="evenodd" stroke="none" d="M 346.099 677.680 C 346.098 677.683 334.046 711.432 334.044 711.435 C 334.046 711.434 346.098 700.219 346.099 700.218 C 346.101 700.219 358.153 711.434 358.155 711.435 C 358.153 711.432 346.101 677.683 346.099 677.680 Z"/>
<path fill="#0000ff" fill-rule="evenodd" stroke="none" d="M 436.916 4.892 C 436.915 4.894 429.914 24.498 429.913 24.500 C 429.914 24.499 436.915 17.985 436.916 17.984 C 436.916 17.985 443.918 24.499 443.918 24.500 C 443.918 24.498 436.916 4.894 436.916 4.892 Z"/>
<path fill="#00ff00" fill-rule="evenodd" stroke="none" d="M 553.565 486.894 C 553.563 486.893 533.995 479.793 533.993 479.792 C 533.994 479.793 540.472 486.827 540.473 486.828 C 540.472 486.828 533.923 493.797 533.922 493.797 C 533.924 493.797 553.563 486.895 553.565 486.894 Z"/>
<path fill="#ffff00" fill-rule="evenodd" stroke="none" d="M 479.383 634.913 C 479.382 634.911 470.693 615.994 470.692 615.992 C 470.692 615.993 470.235 625.546 470.235 625.547 C 470.234 625.547 460.674 625.778 460.673 625.778 C 460.675 625.779 479.381 634.912 479.383 634.913 Z"/>
<path fill="#ffff00" fill-rule="evenodd" stroke="none" d="M 211.531 634.681 C 211.532 634.679 220.598 615.940 220.599 615.939 C 220.599 615.940 220.865 625.499 220.865 625.500 C 220.866 625.500 230.419 625.924 230.420 625.924 C 230.419 625.925 211.533 634.680 211.531 634.681 Z"/>
<path fill="#00ff00" fill-rule="evenodd" stroke="none" d="M 145.034 486.894 C 145.036 486.893 164.604 479.793 164.606 479.792 C 164.605 479.793 158.126 486.827 158.126 486.828 C 158.126 486.828 164.676 493.797 164.676 493.797 C 164.674 493.797 145.036 486.895 145.034 486.894 Z"/>
<path fill="#be0027" fill-rule="evenodd" stroke="none" d="M 345.580 677.974 C 345.579 677.972 336.810 653.418 336.809 653.415 C 336.810 653.416 345.579 661.575 345.580 661.576 C 345.581 661.575 354.350 653.416 354.351 653.415 C 354.350 653.418 345.581 677.972 345.580 677.974 Z"/>
</g>
</g>
</svg>
