<?xml version="1.0" encoding="utf-8"?>
<!-- Generator: Moho 12.5 build 22414 -->
<!DOCTYPE svg PUBLIC "-//W3C//DTD SVG 1.1//EN" "http://www.w3.org/Graphics/SVG/1.1/DTD/svg11.dtd">
<svg version="1.1" id="Frame_0" xmlns="http://www.w3.org/2000/svg" xmlns:xlink="http://www.w3.org/1999/xlink" width="720px" height="720px">
<g id="hands_fists">
<g id="starburst">
<path fill="#ffffff" fill-rule="evenodd" stroke="none" d="M 360.000 611.205 C 360.001 611.193 373.468 490.815 373.469 490.803 C 373.473 490.815 410.710 606.103 410.714 606.114 C 410.712 606.102 399.158 485.595 399.157 485.583 C 399.163 485.593 457.903 591.496 457.908 591.507 C 457.905 591.495 422.745 475.655 422.742 475.643 C 422.750 475.652 500.577 568.374 500.585 568.383 C 500.579 568.373 443.705 461.519 443.700 461.508 C 443.709 461.516 537.733 537.735 537.743 537.743 C 537.735 537.733 461.516 443.709 461.508 443.700 C 461.519 443.706 568.373 500.579 568.383 500.585 C 568.374 500.577 475.652 422.750 475.643 422.742 C 475.655 422.745 591.495 457.905 591.507 457.908 C 591.496 457.903 485.593 399.163 485.583 399.157 C 485.595 399.158 606.102 410.712 606.114 410.714 C 606.103 410.710 490.815 373.473 490.803 373.469 C 490.815 373.468 611.193 360.001 611.205 360.000 C 611.193 359.999 490.815 346.532 490.803 346.531 C 490.815 346.527 606.103 309.290 606.114 309.286 C 606.102 309.288 485.595 320.842 485.583 320.843 C 485.593 320.837 591.496 262.097 591.507 262.092 C 591.495 262.095 475.655 297.255 475.643 297.258 C 475.652 297.250 568.374 219.423 568.383 219.416 C 568.373 219.421 461.519 276.295 461.508 276.300 C 461.516 276.291 537.735 182.267 537.743 182.257 C 537.733 182.265 443.709 258.484 443.700 258.492 C 443.706 258.481 500.579 151.627 500.585 151.617 C 500.577 151.626 422.750 244.348 422.742 244.357 C 422.745 244.345 457.905 128.505 457.908 128.493 C 457.903 128.504 399.163 234.407 399.157 234.417 C 399.158 234.405 410.712 113.898 410.714 113.886 C 410.710 113.898 373.473 229.185 373.469 229.197 C 373.468 229.185 360.001 108.807 360.000 108.795 C 359.999 108.807 346.532 229.185 346.531 229.197 C 346.527 229.185 309.290 113.898 309.286 113.886 C 309.288 113.898 320.842 234.405 320.843 234.417 C 320.837 234.407 262.097 128.504 262.092 128.493 C 262.095 128.505 297.255 244.345 297.258 244.357 C 297.250 244.348 219.423 151.626 219.416 151.617 C 219.421 151.627 276.295 258.481 276.300 258.492 C 276.291 258.484 182.267 182.265 182.257 182.257 C 182.265 182.267 258.484 276.291 258.492 276.300 C 258.481 276.294 151.627 219.421 151.617 219.415 C 151.626 219.423 244.348 297.250 244.357 297.258 C 244.345 297.255 128.505 262.095 128.493 262.092 C 128.504 262.097 234.407 320.837 234.417 320.843 C 234.405 320.842 113.898 309.288 113.886 309.286 C 113.898 309.290 229.185 346.527 229.197 346.531 C 229.185 346.532 108.807 359.999 108.795 360.000 C 108.807 360.001 229.185 373.468 229.197 373.469 C 229.185 373.473 113.898 410.710 113.886 410.714 C 113.898 410.712 234.405 399.158 234.417 399.157 C 234.407 399.163 128.504 457.903 128.493 457.908 C 128.505 457.905 244.345 422.745 244.357 422.742 C 244.348 422.750 151.626 500.577 151.617 500.585 C 151.627 500.579 258.481 443.705 258.492 443.700 C 258.484 443.709 182.265 537.733 182.257 537.743 C 182.267 537.735 276.291 461.516 276.300 461.508 C 276.294 461.519 219.421 568.373 219.415 568.383 C 219.423 568.374 297.250 475.652 297.258 475.643 C 297.255 475.655 262.095 591.495 262.092 591.507 C 262.097 591.496 320.837 485.593 320.843 485.583 C 320.842 485.595 309.288 606.102 309.286 606.114 C 309.290 606.103 346.527 490.815 346.531 490.803 C 346.532 490.815 359.999 611.193 360.000 611.205 Z"/>
</g>
<g id="arm_power_fist_3">
<path fill="#ffffff" fill-rule="evenodd" stroke="#000000" stroke-width="5" stroke-linecap="round" stroke-linejoin="round" d="M 203.842 471.493 C 197.471 462.321 191.316 431.790 208.556 417.513 C 235.218 425.117 318.672 432.839 322.576 429.482 C 328.693 463.037 313.172 480.276 305.386 482.582 C 298.745 484.549 255.823 485.895 255.818 485.896 C 255.813 485.894 210.183 480.623 203.842 471.493 Z"/>
<path fill="none" stroke="#ffffff" stroke-width="1" stroke-linecap="butt" stroke-linejoin="round" d="M 322.576 429.482 C 318.672 432.839 235.218 425.117 208.556 417.513 "/>
<path fill="#ffffff" fill-rule="evenodd" stroke="#000000" stroke-width="5" stroke-linecap="round" stroke-linejoin="round" d="M 203.731 361.000 C 228.847 398.546 268.833 391.260 262.357 370.234 C 272.329 370.784 294.675 374.437 325.479 367.847 C 338.542 381.431 343.730 411.291 322.576 429.482 C 318.672 432.839 235.218 425.117 208.556 417.513 C 189.057 406.588 186.705 374.868 203.731 361.000 Z"/>
<path fill="none" stroke="#ffffff" stroke-width="1" stroke-linecap="butt" stroke-linejoin="round" d="M 325.479 367.847 C 294.675 374.437 272.329 370.784 262.357 370.234 "/>
<path fill="#ffffff" fill-rule="evenodd" stroke="#000000" stroke-width="5" stroke-linecap="round" stroke-linejoin="round" d="M 262.357 370.234 C 253.236 340.614 253.470 318.289 254.265 308.727 C 280.204 310.324 318.077 303.341 324.170 302.639 C 344.404 314.728 345.123 353.117 325.479 367.847 C 294.675 374.437 272.329 370.784 262.357 370.234 Z"/>
<path fill="none" stroke="#ffffff" stroke-width="1" stroke-linecap="butt" stroke-linejoin="round" d="M 324.170 302.639 C 318.077 303.341 280.204 310.324 254.265 308.727 "/>
<path fill="#ffffff" fill-rule="evenodd" stroke="#000000" stroke-width="5" stroke-linecap="round" stroke-linejoin="round" d="M 254.265 308.727 C 254.836 301.848 257.431 272.230 249.056 247.780 C 256.746 243.779 304.842 238.834 318.807 249.199 C 330.421 257.821 332.450 293.622 324.170 302.639 C 318.077 303.341 280.204 310.324 254.265 308.727 Z"/>
<path fill="none" stroke="#ffffff" stroke-width="1" stroke-linecap="butt" stroke-linejoin="round" d="M 255.818 485.896 C 255.813 485.894 210.183 480.623 203.842 471.493 "/>
<path fill="none" stroke="#ffffff" stroke-width="1" stroke-linecap="butt" stroke-linejoin="round" d="M 203.842 471.493 C 197.471 462.321 191.316 431.790 208.556 417.513 "/>
<path fill="none" stroke="#ffffff" stroke-width="1" stroke-linecap="butt" stroke-linejoin="round" d="M 208.556 417.513 C 189.057 406.588 186.705 374.868 203.731 361.000 "/>
<path fill="none" stroke="#ffffff" stroke-width="1" stroke-linecap="butt" stroke-linejoin="round" d="M 203.731 361.000 C 228.847 398.546 268.833 391.260 262.357 370.234 "/>
<path fill="none" stroke="#ffffff" stroke-width="1" stroke-linecap="butt" stroke-linejoin="round" d="M 262.357 370.234 C 253.236 340.614 253.470 318.289 254.265 308.727 "/>
<path fill="none" stroke="#ffffff" stroke-width="1" stroke-linecap="butt" stroke-linejoin="round" d="M 254.265 308.727 C 254.836 301.848 257.431 272.230 249.056 247.780 "/>
<path fill="#ffffff" fill-rule="evenodd" stroke="none" d="M 43.625 364.259 C 41.516 482.470 113.013 525.122 255.818 485.896 C 255.813 485.894 210.183 480.623 203.842 471.493 C 197.471 462.321 191.316 431.790 208.556 417.513 C 189.057 406.588 186.705 374.868 203.731 361.000 C 228.847 398.546 268.833 391.260 262.357 370.234 C 253.236 340.614 253.470 318.289 254.265 308.727 C 254.836 301.848 257.431 272.230 249.056 247.780 C 240.908 223.994 186.763 236.338 129.608 234.104 C 75.774 232.000 44.220 330.938 43.625 364.259 Z"/>
<path fill="none" stroke="#000000" stroke-width="5" stroke-linecap="round" stroke-linejoin="round" d="M 43.625 364.259 C 41.516 482.470 113.013 525.122 255.818 485.896 C 255.813 485.894 210.183 480.623 203.842 471.493 C 197.471 462.321 191.316 431.790 208.556 417.513 C 189.057 406.588 186.705 374.868 203.731 361.000 C 228.847 398.546 268.833 391.260 262.357 370.234 C 253.236 340.614 253.470 318.289 254.265 308.727 C 254.836 301.848 257.431 272.230 249.056 247.780 C 240.908 223.994 186.763 236.338 129.608 234.104 C 75.774 232.000 44.220 330.938 43.625 364.259 M 195.106 302.450 C 181.973 342.596 197.619 351.863 203.731 361.000 M 173.552 302.949 C 172.669 300.858 177.968 308.309 195.106 302.450 M 137.868 438.097 C 173.126 408.971 189.363 340.385 173.552 302.949 "/>
<path fill="#ffffff" fill-rule="evenodd" stroke="#000000" stroke-width="5" stroke-linecap="round" stroke-linejoin="round" d="M 516.158 471.493 C 522.529 462.321 528.684 431.790 511.444 417.513 C 484.781 425.117 401.327 432.839 397.424 429.482 C 391.307 463.037 406.828 480.276 414.614 482.582 C 421.255 484.549 464.177 485.895 464.182 485.896 C 464.187 485.894 509.817 480.623 516.158 471.493 Z"/>
<path fill="none" stroke="#ffffff" stroke-width="1" stroke-linecap="butt" stroke-linejoin="round" d="M 397.424 429.482 C 401.327 432.839 484.781 425.117 511.444 417.513 "/>
<path fill="#ffffff" fill-rule="evenodd" stroke="#000000" stroke-width="5" stroke-linecap="round" stroke-linejoin="round" d="M 516.269 361.000 C 491.152 398.546 451.167 391.260 457.643 370.234 C 447.671 370.784 425.324 374.437 394.521 367.847 C 381.458 381.431 376.270 411.291 397.424 429.482 C 401.327 432.839 484.781 425.117 511.444 417.513 C 530.943 406.588 533.295 374.868 516.269 361.000 Z"/>
<path fill="none" stroke="#ffffff" stroke-width="1" stroke-linecap="butt" stroke-linejoin="round" d="M 394.521 367.847 C 425.324 374.437 447.671 370.784 457.643 370.234 "/>
<path fill="#ffffff" fill-rule="evenodd" stroke="#000000" stroke-width="5" stroke-linecap="round" stroke-linejoin="round" d="M 457.643 370.234 C 466.764 340.614 466.530 318.289 465.735 308.727 C 439.796 310.324 401.923 303.341 395.830 302.639 C 375.596 314.728 374.877 353.117 394.521 367.847 C 425.324 374.437 447.671 370.784 457.643 370.234 Z"/>
<path fill="none" stroke="#ffffff" stroke-width="1" stroke-linecap="butt" stroke-linejoin="round" d="M 395.830 302.639 C 401.923 303.341 439.796 310.324 465.735 308.727 "/>
<path fill="#ffffff" fill-rule="evenodd" stroke="#000000" stroke-width="5" stroke-linecap="round" stroke-linejoin="round" d="M 465.735 308.727 C 465.164 301.848 462.569 272.230 470.944 247.780 C 463.254 243.779 415.157 238.834 401.193 249.199 C 389.579 257.821 387.550 293.622 395.830 302.639 C 401.923 303.341 439.796 310.324 465.735 308.727 Z"/>
<path fill="none" stroke="#ffffff" stroke-width="1" stroke-linecap="butt" stroke-linejoin="round" d="M 464.182 485.896 C 464.187 485.894 509.817 480.623 516.158 471.493 "/>
<path fill="none" stroke="#ffffff" stroke-width="1" stroke-linecap="butt" stroke-linejoin="round" d="M 516.158 471.493 C 522.529 462.321 528.684 431.790 511.444 417.513 "/>
<path fill="none" stroke="#ffffff" stroke-width="1" stroke-linecap="butt" stroke-linejoin="round" d="M 511.444 417.513 C 530.943 406.588 533.295 374.868 516.269 361.000 "/>
<path fill="none" stroke="#ffffff" stroke-width="1" stroke-linecap="butt" stroke-linejoin="round" d="M 516.269 361.000 C 491.152 398.546 451.167 391.260 457.643 370.234 "/>
<path fill="none" stroke="#ffffff" stroke-width="1" stroke-linecap="butt" stroke-linejoin="round" d="M 457.643 370.234 C 466.764 340.614 466.530 318.289 465.735 308.727 "/>
<path fill="none" stroke="#ffffff" stroke-width="1" stroke-linecap="butt" stroke-linejoin="round" d="M 465.735 308.727 C 465.164 301.848 462.569 272.230 470.944 247.780 "/>
<path fill="#ffffff" fill-rule="evenodd" stroke="none" d="M 676.375 364.260 C 678.484 482.470 606.987 525.122 464.182 485.896 C 464.187 485.894 509.817 480.623 516.158 471.493 C 522.529 462.321 528.684 431.790 511.444 417.513 C 530.943 406.588 533.295 374.868 516.269 361.000 C 491.152 398.546 451.167 391.260 457.643 370.234 C 466.764 340.614 466.530 318.289 465.735 308.727 C 465.164 301.848 462.569 272.230 470.944 247.780 C 479.092 223.994 533.237 236.338 590.392 234.104 C 644.226 232.000 675.781 330.938 676.375 364.260 Z"/>
<path fill="none" stroke="#000000" stroke-width="5" stroke-linecap="round" stroke-linejoin="round" d="M 676.375 364.260 C 678.484 482.470 606.987 525.122 464.182 485.896 C 464.187 485.894 509.817 480.623 516.158 471.493 C 522.529 462.321 528.684 431.790 511.444 417.513 C 530.943 406.588 533.295 374.868 516.269 361.000 C 491.152 398.546 451.167 391.260 457.643 370.234 C 466.764 340.614 466.530 318.289 465.735 308.727 C 465.164 301.848 462.569 272.230 470.944 247.780 C 479.092 223.994 533.237 236.338 590.392 234.104 C 644.226 232.000 675.781 330.938 676.375 364.260 M 524.894 302.450 C 538.027 342.596 522.381 351.863 516.269 361.000 M 546.448 302.949 C 547.331 300.858 542.032 308.309 524.894 302.450 M 582.132 438.097 C 546.874 408.971 530.636 340.385 546.448 302.949 "/>
</g>
<g id="specs_2">
<path fill="#ff0000" fill-rule="evenodd" stroke="none" d="M 360.000 629.727 C 360.001 629.732 374.603 670.616 374.604 670.621 C 374.603 670.619 360.001 657.033 360.000 657.032 C 359.999 657.033 345.397 670.619 345.396 670.621 C 345.397 670.616 359.999 629.732 360.000 629.727 Z"/>
<path fill="#0000ff" fill-rule="evenodd" stroke="none" d="M 360.000 168.385 C 360.001 168.387 368.482 192.136 368.483 192.139 C 368.482 192.138 360.001 184.246 360.000 184.246 C 359.999 184.246 351.518 192.138 351.517 192.139 C 351.518 192.136 359.999 168.387 360.000 168.385 Z"/>
<path fill="#00ff00" fill-rule="evenodd" stroke="none" d="M 25.445 361.179 C 25.447 361.178 49.153 352.576 49.156 352.575 C 49.155 352.576 41.306 361.098 41.305 361.099 C 41.306 361.100 49.240 369.541 49.241 369.542 C 49.239 369.541 25.447 361.180 25.445 361.179 Z"/>
<path fill="#ffff00" fill-rule="evenodd" stroke="none" d="M 89.988 499.901 C 89.989 499.899 99.974 478.158 99.975 478.156 C 99.975 478.157 100.501 489.135 100.501 489.137 C 100.502 489.137 111.489 489.403 111.490 489.403 C 111.488 489.404 89.990 499.900 89.988 499.901 Z"/>
<path fill="#ffff00" fill-rule="evenodd" stroke="none" d="M 630.012 499.635 C 630.011 499.633 619.591 478.097 619.590 478.094 C 619.590 478.095 619.285 489.082 619.285 489.083 C 619.284 489.083 608.303 489.570 608.302 489.570 C 608.304 489.571 630.010 499.634 630.012 499.635 Z"/>
<path fill="#00ff00" fill-rule="evenodd" stroke="none" d="M 694.555 361.179 C 694.553 361.178 670.847 352.576 670.844 352.575 C 670.845 352.576 678.694 361.098 678.695 361.099 C 678.694 361.100 670.760 369.541 670.759 369.542 C 670.761 369.541 694.553 361.180 694.555 361.179 Z"/>
<path fill="#00ffff" fill-rule="evenodd" stroke="none" d="M 626.575 226.207 C 626.574 226.209 618.658 248.560 618.658 248.562 C 618.658 248.561 617.159 237.772 617.158 237.771 C 617.157 237.771 606.288 238.488 606.287 238.488 C 606.289 238.487 626.573 226.208 626.575 226.207 Z"/>
<path fill="#00ffff" fill-rule="evenodd" stroke="none" d="M 93.556 226.948 C 93.557 226.950 102.946 248.723 102.947 248.725 C 102.947 248.724 103.723 237.859 103.723 237.858 C 103.724 237.858 114.617 237.849 114.618 237.849 C 114.616 237.848 93.559 226.949 93.556 226.948 Z"/>
<path fill="#be0027" fill-rule="evenodd" stroke="none" d="M 360.000 578.223 C 360.001 578.219 374.603 537.334 374.604 537.330 C 374.603 537.331 360.001 550.917 360.000 550.918 C 359.999 550.917 345.397 537.331 345.396 537.330 C 345.397 537.334 359.999 578.219 360.000 578.223 Z"/>
</g>
</g>
</svg>
