<?xml version="1.0" encoding="utf-8"?>
<!-- Generator: Moho 13.5.1 build 20210623 -->
<!DOCTYPE svg PUBLIC "-//W3C//DTD SVG 1.1//EN" "http://www.w3.org/Graphics/SVG/1.1/DTD/svg11.dtd">
<svg version="1.1" id="Frame_0" xmlns="http://www.w3.org/2000/svg" xmlns:xlink="http://www.w3.org/1999/xlink" width="720px" height="720px">
<g id="hand_holding_fingers">
<g id="Hand_hold_fingers">
<radialGradient id="9CBCD430-4F67-4320-8A4B-DD697F6DB275_0" cx="55.12%" cy="57.66%" r="111.79%">
<stop offset="31.37%" style="stop-color:rgb(255,255,255);stop-opacity:1.00" />
<stop offset="100.00%" style="stop-color:rgb(0,0,0);stop-opacity:1.00" />
</radialGradient>
<path fill="url(#9CBCD430-4F67-4320-8A4B-DD697F6DB275_0)" fill-rule="evenodd" stroke="#000000" stroke-width="4" stroke-linecap="round" stroke-linejoin="round" d="M 605.801 366.784 C 604.898 343.064 600.751 283.573 599.036 259.898 C 597.982 245.334 596.826 208.498 593.736 194.227 C 590.189 177.845 579.100 135.579 567.827 123.174 C 562.965 117.824 547.421 102.439 539.273 107.401 C 527.752 114.415 534.813 126.127 534.861 131.573 C 534.981 145.046 547.230 177.346 548.951 190.709 C 550.739 204.583 552.123 239.941 550.312 253.812 C 548.831 265.157 550.851 301.720 536.282 303.490 C 527.252 304.587 526.005 234.414 521.276 215.118 C 517.864 201.198 508.074 166.319 501.673 153.496 C 493.470 137.065 466.662 98.759 453.129 86.345 C 446.429 80.198 425.738 59.943 418.496 64.356 C 406.075 71.924 413.424 90.867 419.430 102.755 C 425.469 114.711 446.279 144.910 452.155 157.838 C 458.282 171.319 470.516 206.729 472.931 221.339 C 476.134 240.716 482.259 309.202 473.157 309.956 C 465.326 310.605 454.129 253.722 447.799 238.054 C 440.631 220.311 423.161 174.979 411.810 159.574 C 397.289 139.868 351.712 95.329 328.792 86.735 C 322.087 84.221 302.477 77.922 296.563 84.447 C 292.206 89.254 301.889 107.483 305.246 113.242 C 314.696 129.453 356.259 155.862 366.760 171.413 C 376.605 185.992 391.638 228.159 396.011 245.199 C 399.825 260.056 411.345 309.699 404.880 313.837 C 396.028 319.505 369.583 265.460 334.060 250.859 C 317.595 244.092 269.968 234.862 247.721 241.494 C 234.441 245.454 200.898 260.474 190.303 269.930 C 182.536 276.863 155.774 291.580 164.180 308.968 C 169.585 320.151 198.797 311.116 208.371 309.051 C 219.525 306.644 243.861 288.565 255.090 287.422 C 269.586 285.947 303.278 291.248 314.511 298.552 C 330.473 308.932 354.175 353.002 361.080 370.747 C 371.281 396.967 389.622 469.628 380.403 496.209 C 374.040 514.558 337.211 552.855 318.567 558.293 C 304.085 562.517 277.553 555.978 251.765 545.240 C 241.410 540.928 220.712 521.499 210.165 509.555 C 185.941 482.123 153.280 500.645 157.245 513.358 C 163.253 532.617 196.484 574.711 212.414 587.620 C 239.979 609.958 324.670 645.094 359.792 650.126 C 399.758 655.853 502.855 653.715 544.788 625.405 C 571.648 607.271 602.099 548.000 607.384 502.841 C 615.527 433.260 606.947 396.919 605.801 366.784 Z"/>
</g>
<g id="specs">
<path fill="#ff00ff" fill-rule="evenodd" stroke="none" d="M 42.762 495.338 C 42.791 495.338 325.320 495.338 325.348 495.338 C 325.348 495.320 325.348 315.618 325.348 315.600 C 325.320 315.600 42.791 315.600 42.762 315.600 C 42.762 315.618 42.762 495.320 42.762 495.338 Z"/>
<path fill="#ff0000" fill-rule="evenodd" stroke="none" d="M 424.229 658.509 C 424.230 658.513 436.660 693.318 436.662 693.322 C 436.660 693.321 424.230 681.755 424.229 681.754 C 424.227 681.755 411.797 693.321 411.796 693.322 C 411.797 693.318 424.227 658.513 424.229 658.509 Z"/>
<path fill="#ffff00" fill-rule="evenodd" stroke="none" d="M 297.150 643.294 C 297.151 643.292 306.112 623.782 306.113 623.780 C 306.113 623.781 306.585 633.633 306.585 633.634 C 306.586 633.634 316.445 633.873 316.446 633.873 C 316.444 633.874 297.152 643.293 297.150 643.294 Z"/>
<path fill="#ffff00" fill-rule="evenodd" stroke="none" d="M 547.607 638.846 C 547.606 638.845 538.256 619.519 538.255 619.517 C 538.255 619.518 537.981 629.377 537.981 629.378 C 537.980 629.378 528.127 629.815 528.126 629.815 C 528.128 629.816 547.605 638.846 547.607 638.846 Z"/>
<path fill="#00ff00" fill-rule="evenodd" stroke="none" d="M 624.764 446.022 C 624.762 446.022 604.368 439.312 604.366 439.311 C 604.367 439.312 611.265 446.362 611.265 446.362 C 611.265 446.363 604.731 453.750 604.730 453.751 C 604.732 453.750 624.762 446.023 624.764 446.022 Z"/>
<path fill="#be0027" fill-rule="evenodd" stroke="none" d="M 425.038 666.882 C 425.038 666.879 434.082 641.556 434.083 641.553 C 434.082 641.554 425.038 649.969 425.038 649.970 C 425.037 649.969 415.993 641.554 415.992 641.553 C 415.993 641.556 425.037 666.879 425.038 666.882 Z"/>
<path fill="#0000ff" fill-rule="evenodd" stroke="none" d="M 422.344 47.990 C 422.344 47.993 431.388 73.316 431.389 73.319 C 431.388 73.318 422.344 64.903 422.344 64.902 C 422.343 64.903 413.299 73.318 413.298 73.319 C 413.299 73.316 422.343 47.993 422.344 47.990 Z"/>
</g>
</g>
</svg>
