<?xml version="1.0" encoding="utf-8"?>
<!-- Generator: Moho 13.0.3 build 635 -->
<!DOCTYPE svg PUBLIC "-//W3C//DTD SVG 1.1//EN" "http://www.w3.org/Graphics/SVG/1.1/DTD/svg11.dtd">
<svg version="1.1" id="Frame_0" xmlns="http://www.w3.org/2000/svg" xmlns:xlink="http://www.w3.org/1999/xlink" width="720px" height="720px">
<g id="harpy">
<g id="harpy">
<path fill="#000000" fill-rule="evenodd" stroke="#ffffff" stroke-width="4" stroke-linecap="round" stroke-linejoin="round" d="M 289.730 516.030 C 289.727 516.040 264.607 607.687 258.653 608.258 C 249.660 609.120 224.477 595.051 209.532 597.231 C 162.488 604.094 166.429 630.310 166.425 630.313 C 166.429 630.312 175.872 619.987 203.517 619.286 C 212.074 619.068 296.410 622.967 303.764 623.295 C 310.616 623.602 325.817 629.310 325.819 629.310 C 325.818 629.308 321.841 609.270 314.792 606.253 C 300.655 600.203 291.113 614.469 286.722 608.258 C 280.636 599.649 313.786 516.040 313.789 516.030 C 313.787 516.031 289.732 516.030 289.730 516.030 Z"/>
<path fill="#ffffff" fill-rule="evenodd" stroke="#000000" stroke-width="4" stroke-linecap="round" stroke-linejoin="round" d="M 336.846 525.053 C 336.843 525.062 311.724 616.709 305.769 617.280 C 296.776 618.143 271.593 604.073 256.648 606.253 C 209.604 613.116 213.546 639.332 213.541 639.335 C 213.545 639.334 222.989 629.009 250.633 628.308 C 259.190 628.090 343.527 631.989 350.881 632.318 C 357.732 632.624 372.933 638.332 372.935 638.332 C 372.934 638.330 368.957 618.292 361.908 615.276 C 347.771 609.225 338.229 623.491 333.839 617.280 C 327.752 608.671 360.903 525.062 360.906 525.053 C 360.903 525.053 336.848 525.053 336.846 525.053 Z"/>
<path fill="#000000" fill-rule="evenodd" stroke="#ffffff" stroke-width="4" stroke-linecap="round" stroke-linejoin="round" d="M 286.292 424.160 C 378.892 504.418 485.003 468.850 517.744 472.763 C 517.395 483.657 627.707 482.621 623.956 510.108 C 619.099 545.694 542.933 506.323 506.866 507.012 C 451.175 508.077 227.836 595.287 149.383 454.755 C 113.757 390.939 161.366 254.038 197.502 254.260 C 209.729 250.797 233.825 274.029 233.829 274.031 C 233.834 274.046 227.755 373.425 286.292 424.160 Z"/>
<path fill="none" stroke="#ffffff" stroke-width="1" stroke-linecap="butt" stroke-linejoin="round" d="M 286.292 424.160 C 378.892 504.418 485.003 468.850 517.744 472.763 "/>
<path fill="none" stroke="#ffffff" stroke-width="1" stroke-linecap="butt" stroke-linejoin="round" d="M 197.502 254.260 C 209.729 250.797 233.825 274.029 233.829 274.031 "/>
<path fill="none" stroke="#ffffff" stroke-width="1" stroke-linecap="butt" stroke-linejoin="round" d="M 233.829 274.031 C 233.834 274.046 227.755 373.425 286.292 424.160 "/>
<path fill="#ffffff" fill-rule="evenodd" stroke="#000000" stroke-width="4" stroke-linecap="round" stroke-linejoin="round" d="M 286.292 424.160 C 378.892 504.418 485.003 468.850 517.744 472.763 C 518.273 456.268 628.977 489.243 624.224 448.662 C 620.168 414.023 517.319 438.664 515.708 429.658 C 513.515 417.392 625.776 415.497 619.596 388.683 C 611.607 354.022 531.250 396.566 488.318 406.052 C 456.727 413.032 405.100 403.582 361.908 370.547 C 305.264 327.223 257.492 254.629 197.502 254.260 C 209.729 250.797 233.825 274.029 233.829 274.031 C 233.834 274.046 227.755 373.425 286.292 424.160 Z"/>
<path fill="#000000" fill-rule="evenodd" stroke="#ffffff" stroke-width="4" stroke-linecap="round" stroke-linejoin="round" d="M 292.476 397.505 C 284.419 380.775 320.615 363.611 327.138 346.226 C 368.168 236.869 273.502 195.860 339.167 157.760 C 488.790 70.947 527.537 -5.989 534.650 41.473 C 543.824 102.691 380.685 164.295 385.281 183.825 C 388.924 199.304 540.146 81.150 540.665 118.664 C 541.854 204.614 389.336 205.931 392.299 230.941 C 393.930 244.710 546.815 166.020 539.663 207.884 C 527.043 281.746 396.183 251.145 396.309 275.050 C 396.409 294.173 541.660 253.961 527.633 291.090 C 508.939 340.572 394.227 304.049 394.303 318.157 C 394.380 332.259 521.305 315.993 494.551 353.243 C 462.755 397.515 391.022 350.973 384.279 362.266 C 374.535 378.583 487.583 385.580 436.408 417.402 C 405.034 436.911 361.022 395.090 357.212 405.372 C 353.120 416.415 435.685 438.666 383.276 450.484 C 351.918 457.555 308.977 431.773 292.476 397.505 Z"/>
<path fill="#000000" fill-rule="evenodd" stroke="#ffffff" stroke-width="4" stroke-linecap="round" stroke-linejoin="round" d="M 141.188 177.891 C 141.355 177.651 169.316 178.701 169.318 178.701 C 169.317 178.705 156.051 204.346 154.861 216.400 C 153.830 226.844 161.777 240.511 160.490 250.927 C 159.347 260.181 149.274 270.268 148.370 279.549 C 147.579 287.676 154.715 298.128 153.730 306.233 C 152.834 313.609 144.026 321.308 143.318 328.704 C 142.693 335.225 149.164 343.438 148.388 349.943 C 147.667 355.982 139.841 361.995 139.273 368.050 C 138.770 373.413 144.059 385.354 144.059 385.356 C 144.058 385.354 135.518 374.350 134.765 368.670 C 133.988 362.809 140.171 355.445 139.586 349.563 C 138.921 342.885 130.593 336.126 129.759 329.467 C 128.855 322.249 135.578 312.996 134.844 305.759 C 134.006 297.500 124.558 288.750 123.508 280.515 C 122.345 271.390 129.785 259.469 128.842 250.318 C 127.757 239.788 114.662 228.214 115.482 217.660 C 116.582 203.497 133.057 189.540 141.188 177.891 M 267.905 177.891 C 267.737 177.651 239.777 178.701 239.775 178.701 C 239.776 178.705 253.041 204.346 254.232 216.400 C 255.263 226.844 247.316 240.511 248.603 250.927 C 249.746 260.181 259.819 270.268 260.723 279.549 C 261.514 287.676 254.377 298.128 255.362 306.234 C 256.259 313.609 265.067 321.308 265.775 328.704 C 266.399 335.225 259.929 343.438 260.705 349.943 C 261.425 355.982 269.251 361.995 269.820 368.050 C 270.323 373.413 265.034 385.354 265.033 385.356 C 265.034 385.354 273.575 374.350 274.328 368.670 C 275.105 362.809 268.922 355.445 269.507 349.563 C 270.172 342.885 278.501 336.126 279.334 329.467 C 280.238 322.249 273.515 312.996 274.249 305.759 C 275.086 297.500 284.535 288.750 285.585 280.515 C 286.748 271.390 279.308 259.469 280.251 250.318 C 281.336 239.788 294.431 228.214 293.611 217.660 C 292.511 203.497 276.036 189.541 267.905 177.891 Z"/>
<path fill="#000000" fill-rule="evenodd" stroke="#ffffff" stroke-width="4" stroke-linecap="round" stroke-linejoin="round" d="M 217.705 189.711 C 217.707 189.715 231.859 214.878 233.469 226.883 C 234.864 237.285 227.399 251.221 229.048 261.585 C 230.514 270.794 240.933 280.523 242.160 289.767 C 243.235 297.861 236.467 308.556 237.734 316.622 C 238.888 323.962 247.959 331.349 248.925 338.715 C 249.777 345.210 243.597 353.645 244.600 360.119 C 245.530 366.128 253.561 371.865 254.340 377.896 C 255.031 383.239 250.162 395.358 250.161 395.359 C 250.162 395.358 258.313 384.061 258.867 378.358 C 259.439 372.474 253.003 365.331 253.383 359.431 C 253.814 352.734 261.901 345.689 262.502 339.005 C 263.154 331.760 256.112 322.747 256.593 315.489 C 257.142 307.206 266.279 298.131 267.041 289.865 C 267.885 280.704 260.034 269.050 260.657 259.872 C 261.374 249.311 272.153 237.329 272.869 226.767 C 274.258 206.259 254.323 199.279 245.791 187.921 C 245.615 187.686 217.708 189.711 217.705 189.711 Z"/>
<path fill="#000000" fill-rule="evenodd" stroke="#ffffff" stroke-width="4" stroke-linecap="round" stroke-linejoin="round" d="M 191.388 189.711 C 191.386 189.715 177.234 214.878 175.624 226.883 C 174.228 237.285 181.693 251.221 180.044 261.585 C 178.579 270.794 168.160 280.523 166.932 289.767 C 165.858 297.861 172.625 308.556 171.358 316.622 C 170.205 323.962 161.133 331.349 160.167 338.715 C 159.316 345.210 165.496 353.645 164.493 360.119 C 163.563 366.128 155.532 371.865 154.752 377.896 C 154.062 383.239 158.931 395.358 158.932 395.359 C 158.931 395.358 150.779 384.061 150.225 378.358 C 149.654 372.474 156.090 365.331 155.710 359.431 C 155.279 352.734 147.191 345.689 146.590 339.005 C 145.939 331.760 152.980 322.747 152.499 315.489 C 151.951 307.206 142.813 298.131 142.052 289.865 C 141.208 280.704 149.059 269.050 148.436 259.872 C 147.719 249.311 135.036 237.286 136.224 226.767 C 137.818 212.651 154.770 199.279 163.302 187.921 C 163.478 187.686 191.385 189.711 191.388 189.711 Z"/>
<path fill="#000000" fill-rule="evenodd" stroke="none" d="M 145.624 222.676 C 145.626 222.675 151.025 210.595 167.948 210.595 C 184.870 210.595 190.269 222.675 190.272 222.676 C 190.269 222.677 184.870 234.757 167.948 234.758 C 151.025 234.758 145.626 222.677 145.624 222.676 M 219.137 222.676 C 219.139 222.675 224.539 210.595 241.461 210.595 C 258.384 210.595 263.783 222.675 263.786 222.676 C 263.783 222.677 258.384 234.758 241.461 234.758 C 224.539 234.758 219.139 222.677 219.137 222.676 Z"/>
<path fill="none" stroke="#ffffff" stroke-width="1" stroke-linecap="butt" stroke-linejoin="round" d="M 145.624 222.676 C 145.626 222.675 151.025 210.595 167.948 210.595 "/>
<path fill="none" stroke="#ffffff" stroke-width="1" stroke-linecap="butt" stroke-linejoin="round" d="M 167.948 210.595 C 184.870 210.595 190.269 222.675 190.272 222.676 "/>
<path fill="none" stroke="#ffffff" stroke-width="1" stroke-linecap="butt" stroke-linejoin="round" d="M 190.272 222.676 C 190.269 222.677 184.870 234.757 167.948 234.758 "/>
<path fill="none" stroke="#ffffff" stroke-width="1" stroke-linecap="butt" stroke-linejoin="round" d="M 167.948 234.758 C 151.025 234.758 145.626 222.677 145.624 222.676 "/>
<path fill="none" stroke="#ffffff" stroke-width="1" stroke-linecap="butt" stroke-linejoin="round" d="M 219.137 222.676 C 219.139 222.675 224.539 210.595 241.461 210.595 "/>
<path fill="none" stroke="#ffffff" stroke-width="1" stroke-linecap="butt" stroke-linejoin="round" d="M 241.461 210.595 C 258.384 210.595 263.783 222.675 263.786 222.676 "/>
<path fill="none" stroke="#ffffff" stroke-width="1" stroke-linecap="butt" stroke-linejoin="round" d="M 263.786 222.676 C 263.783 222.677 258.384 234.758 241.461 234.758 "/>
<path fill="none" stroke="#ffffff" stroke-width="1" stroke-linecap="butt" stroke-linejoin="round" d="M 241.461 234.758 C 224.539 234.758 219.139 222.677 219.137 222.676 "/>
<path fill="#ffffff" fill-rule="evenodd" stroke="#000000" stroke-width="4" stroke-linecap="round" stroke-linejoin="round" d="M 160.003 222.413 C 160.003 218.016 163.550 214.468 167.948 214.468 C 172.345 214.468 175.893 218.016 175.893 222.413 C 175.893 226.811 172.345 230.358 167.948 230.358 C 163.550 230.358 160.003 226.811 160.003 222.413 M 145.624 222.676 C 145.626 222.675 151.025 210.595 167.948 210.595 C 184.870 210.595 190.269 222.675 190.272 222.676 C 190.269 222.677 184.870 234.757 167.948 234.758 C 151.025 234.758 145.626 222.677 145.624 222.676 M 233.517 222.413 C 233.517 218.016 237.064 214.469 241.461 214.468 C 245.859 214.468 249.407 218.016 249.407 222.413 C 249.407 226.811 245.859 230.359 241.461 230.358 C 237.064 230.358 233.517 226.811 233.517 222.413 M 219.137 222.676 C 219.139 222.675 224.539 210.595 241.461 210.595 C 258.384 210.595 263.783 222.675 263.786 222.676 C 263.783 222.677 258.384 234.758 241.461 234.758 C 224.539 234.758 219.139 222.677 219.137 222.676 M 135.070 224.585 C 133.976 189.285 168.277 145.878 204.546 145.878 C 240.816 145.878 274.023 178.541 274.023 224.585 C 274.023 270.629 240.816 303.293 204.546 303.293 C 168.277 303.293 136.223 261.760 135.070 224.585 Z"/>
<path fill="#000000" fill-rule="evenodd" stroke="#ffffff" stroke-width="4" stroke-linecap="round" stroke-linejoin="round" d="M 204.547 273.804 C 217.498 273.804 223.444 277.478 223.510 278.018 C 223.582 278.606 218.198 286.601 204.078 286.446 C 190.529 286.297 185.584 278.018 185.582 278.018 C 185.584 278.017 191.595 273.804 204.547 273.804 Z"/>
<path fill="none" stroke="#ffffff" stroke-width="4" stroke-linecap="round" stroke-linejoin="round" d="M 185.582 278.018 C 198.693 280.359 210.868 280.359 223.510 278.018 "/>
<path fill="none" stroke="#000000" stroke-width="4" stroke-linecap="round" stroke-linejoin="round" d="M 135.070 224.585 C 138.494 209.963 157.620 189.170 183.710 202.378 C 204.750 213.029 193.483 259.677 204.546 259.755 C 216.338 259.838 205.219 212.902 223.019 203.967 C 254.757 188.038 270.856 209.376 274.023 224.585 "/>
<path fill="#ffffff" fill-rule="evenodd" stroke="#000000" stroke-width="4" stroke-linecap="round" stroke-linejoin="round" d="M 204.549 85.228 C 214.564 76.460 228.021 71.001 242.243 71.352 C 269.308 72.021 303.403 99.424 291.188 120.236 C 285.131 130.555 265.562 138.255 265.560 138.256 C 265.559 138.256 259.884 138.290 257.015 138.307 C 224.241 138.500 177.174 138.776 153.112 138.917 C 149.476 138.938 143.938 138.971 143.937 138.971 C 143.934 138.969 122.702 128.636 117.905 120.236 C 106.591 100.426 137.176 70.462 166.849 71.352 C 181.070 71.778 194.529 76.460 204.549 85.228 Z"/>
<path fill="none" stroke="#000000" stroke-width="1" stroke-linecap="butt" stroke-linejoin="round" d="M 257.015 138.307 C 224.241 138.500 177.174 138.776 153.112 138.917 "/>
<path fill="#000000" fill-rule="evenodd" stroke="#000000" stroke-width="4" stroke-linecap="round" stroke-linejoin="round" d="M 276.919 125.585 C 272.340 132.717 262.030 136.299 257.015 138.307 C 224.241 138.500 177.174 138.776 153.112 138.917 C 146.799 136.405 134.618 131.890 130.540 125.585 C 120.074 109.404 146.819 83.540 171.885 84.291 C 183.898 84.651 195.268 88.605 203.732 96.013 C 212.191 88.606 223.559 83.994 235.573 84.291 C 258.437 84.856 287.932 108.432 276.919 125.585 Z"/>
<path fill="#ffffff" fill-rule="evenodd" stroke="#000000" stroke-width="4" stroke-linecap="round" stroke-linejoin="round" d="M 128.739 155.136 C 128.754 155.136 280.339 155.136 280.354 155.136 C 280.353 155.139 274.175 186.727 274.175 186.730 C 274.161 186.730 134.932 186.730 134.918 186.730 C 134.918 186.727 128.740 155.139 128.739 155.136 Z"/>
<path fill="none" stroke="#ffffff" stroke-width="1" stroke-linecap="butt" stroke-linejoin="round" d="M 280.354 155.136 C 280.339 155.136 128.754 155.136 128.739 155.136 "/>
<path fill="#ffffff" fill-rule="evenodd" stroke="#000000" stroke-width="4" stroke-linecap="round" stroke-linejoin="round" d="M 302.314 113.235 C 302.312 113.240 287.674 141.169 280.354 155.136 C 280.339 155.136 128.754 155.136 128.739 155.136 C 121.419 141.169 106.781 113.240 106.779 113.235 C 106.783 113.237 134.689 121.052 145.348 127.202 C 151.125 130.535 152.240 142.655 162.646 141.169 C 174.380 139.494 171.287 125.721 176.415 120.219 C 183.589 112.521 204.544 99.271 204.546 99.269 C 204.549 99.271 225.504 112.521 232.678 120.219 C 237.806 125.721 234.713 139.494 246.447 141.169 C 256.853 142.655 257.967 130.535 263.745 127.202 C 274.404 121.052 302.310 113.237 302.314 113.235 Z"/>
<path fill="#ffffff" fill-rule="evenodd" stroke="#000000" stroke-width="4" stroke-linecap="round" stroke-linejoin="round" d="M 188.207 130.834 C 188.207 121.790 195.503 114.495 204.546 114.495 C 213.590 114.495 220.886 121.790 220.886 130.834 C 220.886 139.878 213.590 147.173 204.546 147.173 C 195.503 147.173 188.207 139.878 188.207 130.834 M 152.833 125.932 C 152.833 121.726 156.226 118.334 160.431 118.334 C 164.637 118.334 168.030 121.726 168.030 125.932 C 168.030 130.138 164.637 133.531 160.431 133.531 C 156.226 133.531 152.833 130.138 152.833 125.932 M 241.063 125.932 C 241.063 121.726 244.456 118.334 248.662 118.334 C 252.867 118.334 256.260 121.727 256.260 125.932 C 256.260 130.138 252.867 133.530 248.662 133.531 C 244.456 133.531 241.063 130.138 241.063 125.932 M 194.721 49.139 C 194.721 43.701 199.108 39.314 204.546 39.314 C 209.985 39.314 214.372 43.701 214.372 49.139 C 214.371 54.577 209.984 58.964 204.546 58.964 C 199.108 58.964 194.721 54.577 194.721 49.139 M 95.776 101.414 C 95.776 95.163 100.819 90.120 107.071 90.120 C 113.322 90.120 118.365 95.163 118.365 101.414 C 118.365 107.666 113.322 112.709 107.071 112.709 C 100.819 112.709 95.776 107.666 95.776 101.414 M 290.727 101.414 C 290.728 95.163 295.771 90.120 302.022 90.120 C 308.273 90.120 313.317 95.163 313.317 101.414 C 313.317 107.666 308.273 112.709 302.022 112.709 C 295.770 112.709 290.727 107.666 290.727 101.414 M 186.449 78.433 C 186.449 68.417 194.530 60.336 204.546 60.336 C 214.563 60.336 222.644 68.417 222.644 78.433 C 222.644 88.450 214.563 96.531 204.546 96.531 C 194.530 96.531 186.449 88.450 186.449 78.433 Z"/>
<path fill="#000000" fill-rule="evenodd" stroke="none" d="M 165.097 171.032 C 165.097 164.835 170.095 159.837 176.292 159.837 C 182.488 159.837 187.487 164.835 187.487 171.032 C 187.487 177.228 182.488 182.227 176.292 182.227 C 170.095 182.227 165.097 177.228 165.097 171.032 M 137.020 171.032 C 137.020 164.835 142.019 159.836 148.215 159.837 C 154.412 159.837 159.410 164.835 159.410 171.032 C 159.410 177.228 154.412 182.227 148.215 182.227 C 142.019 182.227 137.020 177.228 137.020 171.032 M 249.683 171.032 C 249.683 164.835 254.681 159.837 260.877 159.837 C 267.074 159.836 272.073 164.835 272.073 171.032 C 272.073 177.228 267.074 182.227 260.877 182.227 C 254.681 182.227 249.683 177.228 249.683 171.032 M 221.605 171.032 C 221.605 164.835 226.604 159.837 232.801 159.837 C 238.997 159.837 243.996 164.835 243.996 171.032 C 243.996 177.228 238.997 182.227 232.801 182.227 C 226.604 182.227 221.605 177.228 221.605 171.032 M 193.351 171.032 C 193.351 164.835 198.350 159.837 204.546 159.837 C 210.743 159.837 215.742 164.835 215.742 171.032 C 215.742 177.228 210.743 182.227 204.546 182.227 C 198.350 182.227 193.351 177.228 193.351 171.032 Z"/>
<path fill="#000000" fill-rule="evenodd" stroke="none" d="M 204.546 122.372 C 209.230 122.372 213.008 126.150 213.008 130.834 C 213.008 135.518 209.230 139.296 204.546 139.296 C 199.863 139.296 196.085 135.518 196.085 130.834 C 196.085 126.150 199.863 122.372 204.546 122.372 Z"/>
<path fill="#000000" fill-rule="evenodd" stroke="none" d="M 204.546 69.384 C 209.230 69.384 213.008 73.162 213.008 77.845 C 213.008 82.529 209.230 86.307 204.546 86.307 C 199.863 86.307 196.084 82.529 196.085 77.845 C 196.085 73.162 199.863 69.384 204.546 69.384 Z"/>
<path fill="#000000" fill-rule="evenodd" stroke="none" d="M 301.846 95.792 C 304.986 95.792 307.519 98.325 307.519 101.464 C 307.519 104.604 304.986 107.137 301.846 107.137 C 298.706 107.137 296.174 104.604 296.174 101.464 C 296.174 98.325 298.706 95.792 301.846 95.792 Z"/>
<path fill="#000000" fill-rule="evenodd" stroke="none" d="M 107.247 95.792 C 110.387 95.792 112.919 98.325 112.919 101.464 C 112.919 104.604 110.387 107.137 107.247 107.137 C 104.107 107.137 101.574 104.604 101.574 101.464 C 101.574 98.325 104.107 95.792 107.247 95.792 Z"/>
<path fill="#000000" fill-rule="evenodd" stroke="none" d="M 204.546 43.520 C 207.686 43.520 210.219 46.052 210.219 49.192 C 210.219 52.332 207.686 54.864 204.546 54.864 C 201.407 54.864 198.874 52.332 198.874 49.192 C 198.874 46.052 201.407 43.519 204.546 43.520 Z"/>
<path fill="#ffffff" fill-rule="evenodd" stroke="#000000" stroke-width="4" stroke-linecap="round" stroke-linejoin="round" d="M 164.034 401.975 C 181.816 401.975 196.160 416.319 196.160 434.101 C 196.160 451.882 181.816 466.227 164.034 466.227 C 146.252 466.227 131.908 451.882 131.908 434.101 C 131.908 416.319 146.252 401.975 164.034 401.975 Z"/>
<path fill="#000000" fill-rule="evenodd" stroke="#ffffff" stroke-width="4" stroke-linecap="round" stroke-linejoin="round" d="M 155.580 434.665 C 159.947 434.664 163.471 438.188 163.471 442.555 C 163.471 446.923 159.947 450.446 155.580 450.446 C 151.212 450.446 147.689 446.922 147.689 442.555 C 147.689 438.188 151.212 434.665 155.580 434.665 Z"/>
<path fill="#ffffff" fill-rule="evenodd" stroke="#000000" stroke-width="4" stroke-linecap="round" stroke-linejoin="round" d="M 240.686 401.975 C 222.904 401.975 208.560 416.319 208.560 434.101 C 208.560 451.882 222.904 466.227 240.686 466.227 C 258.468 466.227 272.812 451.882 272.812 434.101 C 272.812 416.319 258.468 401.975 240.686 401.975 Z"/>
<path fill="#000000" fill-rule="evenodd" stroke="#ffffff" stroke-width="4" stroke-linecap="round" stroke-linejoin="round" d="M 249.140 434.665 C 244.773 434.664 241.249 438.188 241.249 442.555 C 241.249 446.923 244.773 450.446 249.140 450.446 C 253.508 450.446 257.031 446.922 257.031 442.555 C 257.031 438.188 253.508 434.665 249.140 434.665 Z"/>
</g>
<g id="specs_2">
<path fill="#ff0000" fill-rule="evenodd" stroke="none" d="M 303.235 665.480 C 303.236 665.483 315.200 698.982 315.201 698.986 C 315.200 698.985 303.236 687.853 303.235 687.852 C 303.234 687.853 291.270 698.985 291.269 698.986 C 291.270 698.982 303.234 665.483 303.235 665.480 Z"/>
<path fill="#0000ff" fill-rule="evenodd" stroke="none" d="M 204.418 24.451 C 204.419 24.453 211.368 43.912 211.369 43.914 C 211.368 43.914 204.419 37.448 204.418 37.447 C 204.418 37.448 197.468 43.914 197.468 43.914 C 197.468 43.912 204.418 24.453 204.418 24.451 Z"/>
<path fill="#00ff00" fill-rule="evenodd" stroke="none" d="M 123.152 398.306 C 123.154 398.305 142.578 391.257 142.580 391.256 C 142.579 391.257 136.148 398.240 136.148 398.240 C 136.148 398.241 142.649 405.157 142.650 405.158 C 142.648 405.157 123.154 398.307 123.152 398.306 Z"/>
<path fill="#ffff00" fill-rule="evenodd" stroke="none" d="M 169.496 554.730 C 169.497 554.729 177.815 537.817 177.816 537.816 C 177.816 537.817 178.254 546.356 178.254 546.357 C 178.255 546.357 187.409 546.564 187.410 546.564 C 187.408 546.565 169.498 554.729 169.496 554.730 Z"/>
<path fill="#ffff00" fill-rule="evenodd" stroke="none" d="M 476.624 554.523 C 476.623 554.521 467.943 537.769 467.942 537.768 C 467.942 537.769 467.687 546.315 467.687 546.315 C 467.686 546.315 458.539 546.694 458.538 546.694 C 458.539 546.695 476.622 554.522 476.624 554.523 Z"/>
<path fill="#00ffff" fill-rule="evenodd" stroke="none" d="M 88.522 81.356 C 88.523 81.358 96.837 100.641 96.838 100.643 C 96.838 100.642 97.526 91.019 97.526 91.018 C 97.527 91.018 107.173 91.011 107.174 91.011 C 107.173 91.010 88.524 81.357 88.522 81.356 Z"/>
<path fill="#be0027" fill-rule="evenodd" stroke="none" d="M 670.952 445.658 C 670.949 445.657 637.450 433.693 637.446 433.692 C 637.447 433.693 648.579 445.657 648.580 445.658 C 648.579 445.660 637.447 457.623 637.446 457.624 C 637.450 457.623 670.949 445.660 670.952 445.658 Z"/>
<path fill="#00ffff" fill-rule="evenodd" stroke="none" d="M 320.109 81.356 C 320.108 81.358 311.793 100.641 311.793 100.643 C 311.793 100.642 311.105 91.019 311.105 91.018 C 311.104 91.018 301.457 91.011 301.456 91.011 C 301.458 91.010 320.107 81.357 320.109 81.356 Z"/>
<path fill="#00ff00" fill-rule="evenodd" stroke="none" d="M 541.425 23.511 C 541.424 23.513 532.673 42.232 532.672 42.233 C 532.672 42.232 532.282 32.748 532.282 32.747 C 532.281 32.747 522.794 32.453 522.793 32.453 C 522.795 32.452 541.423 23.512 541.425 23.511 Z"/>
</g>
</g>
</svg>
