<?xml version="1.0" encoding="utf-8"?>
<!-- Generator: Moho 13.0.3 build 635 -->
<!DOCTYPE svg PUBLIC "-//W3C//DTD SVG 1.1//EN" "http://www.w3.org/Graphics/SVG/1.1/DTD/svg11.dtd">
<svg version="1.1" id="Frame_0" xmlns="http://www.w3.org/2000/svg" xmlns:xlink="http://www.w3.org/1999/xlink" width="720px" height="720px">
<g id="harpy_6">
<g id="harpy">
<path fill="#ffffff" fill-rule="evenodd" stroke="#000000" stroke-width="3" stroke-linecap="round" stroke-linejoin="round" d="M 368.518 541.037 C 368.515 541.045 346.349 621.917 341.095 622.421 C 333.159 623.182 310.937 610.767 297.749 612.691 C 256.236 618.747 259.714 641.880 259.710 641.883 C 259.714 641.882 268.047 632.771 292.441 632.152 C 299.992 631.960 374.413 635.401 380.902 635.691 C 386.948 635.961 400.362 640.998 400.364 640.998 C 400.363 640.996 396.853 623.314 390.633 620.652 C 378.158 615.313 369.738 627.902 365.864 622.421 C 360.493 614.824 389.746 541.045 389.749 541.037 C 389.747 541.037 368.520 541.037 368.518 541.037 Z"/>
<path fill="#ffffff" fill-rule="evenodd" stroke="#000000" stroke-width="3" stroke-linecap="round" stroke-linejoin="round" d="M 410.094 548.998 C 410.092 549.006 387.926 629.879 382.671 630.383 C 374.736 631.144 352.513 618.728 339.326 620.652 C 297.813 626.708 301.291 649.841 301.287 649.844 C 301.290 649.843 309.624 640.733 334.018 640.113 C 341.568 639.922 415.990 643.362 422.479 643.652 C 428.525 643.922 441.939 648.959 441.941 648.960 C 441.940 648.958 438.430 631.276 432.210 628.614 C 419.735 623.274 411.315 635.863 407.441 630.383 C 402.070 622.786 431.323 549.006 431.326 548.998 C 431.323 548.998 410.097 548.998 410.094 548.998 Z"/>
<path fill="#ffffff" fill-rule="evenodd" stroke="#000000" stroke-width="3" stroke-linecap="round" stroke-linejoin="round" d="M 536.115 533.079 C 566.587 523.872 635.154 567.213 639.439 535.810 C 642.749 511.556 545.759 512.474 545.715 502.856 C 545.646 487.768 648.604 512.837 641.874 476.094 C 636.250 445.390 545.772 481.758 543.918 464.819 C 542.722 453.889 641.045 452.324 635.592 428.662 C 628.542 398.076 557.593 431.841 519.748 443.989 C 491.297 453.121 447.720 444.207 402.749 412.092 C 341.385 368.270 360.645 310.211 296.096 310.043 C 264.448 309.961 223.817 416.835 254.262 485.712 C 304.027 598.296 462.374 555.360 536.115 533.079 Z"/>
<path fill="#ffffff" fill-rule="evenodd" stroke="#000000" stroke-width="3" stroke-linecap="round" stroke-linejoin="round" d="M 379.060 447.895 C 368.655 428.484 400.631 416.010 414.805 383.773 C 449.956 303.825 385.809 267.895 437.484 244.401 C 557.976 189.617 592.759 134.651 595.419 171.277 C 599.022 220.905 461.051 253.542 461.875 269.649 C 462.556 282.950 595.671 204.286 592.126 234.137 C 584.766 296.107 460.304 290.405 460.681 308.998 C 460.910 320.268 591.817 272.878 581.907 305.954 C 565.964 359.171 463.135 326.679 461.143 343.724 C 459.363 358.951 578.461 343.713 563.434 371.760 C 543.124 409.666 456.538 368.574 453.099 379.516 C 448.538 394.028 555.706 391.167 530.211 418.374 C 499.910 450.709 446.780 405.461 440.365 414.016 C 431.095 426.381 519.063 436.267 478.627 462.420 C 452.796 479.127 421.747 434.182 413.999 445.910 C 408.088 454.860 463.094 479.246 433.553 489.144 C 412.767 496.109 390.894 469.971 379.060 447.895 Z"/>
<path fill="#000000" fill-rule="evenodd" stroke="#ffffff" stroke-width="3" stroke-linecap="round" stroke-linejoin="round" d="M 301.486 193.472 C 301.486 193.476 301.549 233.583 301.549 233.587 C 301.545 233.591 263.493 259.068 258.469 276.634 C 255.923 285.538 264.571 297.911 263.436 307.102 C 262.428 315.268 253.538 324.169 252.741 332.359 C 252.043 339.531 258.340 348.753 257.471 355.906 C 256.680 362.414 248.907 369.208 248.283 375.734 C 247.732 381.489 253.441 388.737 252.757 394.477 C 252.121 399.805 245.215 405.112 244.714 410.455 C 244.269 415.188 248.937 425.725 248.937 425.726 C 248.936 425.725 241.400 416.014 240.735 411.001 C 240.050 405.830 245.506 399.332 244.990 394.141 C 244.403 388.248 237.054 382.284 236.318 376.408 C 235.521 370.039 241.453 361.874 240.805 355.487 C 240.066 348.199 231.728 340.478 230.802 333.212 C 229.776 325.159 235.737 314.679 235.509 306.565 C 235.114 292.516 219.486 287.016 223.719 261.227 C 239.328 166.149 301.478 193.479 301.486 193.472 C 301.664 193.430 301.601 233.583 301.601 233.587 C 301.605 233.591 340.922 258.800 346.156 276.634 C 348.764 285.521 340.054 297.911 341.189 307.102 C 342.198 315.268 351.087 324.169 351.884 332.359 C 352.582 339.531 346.285 348.754 347.154 355.906 C 347.945 362.414 355.718 369.208 356.342 375.734 C 356.893 381.489 351.184 388.737 351.868 394.477 C 352.504 399.805 359.410 405.112 359.912 410.455 C 360.356 415.188 355.688 425.725 355.688 425.726 C 355.689 425.725 363.225 416.014 363.890 411.001 C 364.575 405.830 359.119 399.332 359.636 394.141 C 360.222 388.248 367.572 382.284 368.307 376.408 C 369.105 370.039 363.172 361.874 363.820 355.487 C 364.559 348.199 372.897 340.478 373.823 333.212 C 374.850 325.159 368.888 314.679 369.116 306.565 C 369.512 292.516 386.880 289.486 380.906 261.227 C 360.103 162.824 301.672 193.433 301.664 193.426 Z"/>
<path fill="#000000" fill-rule="evenodd" stroke="#ffffff" stroke-width="3" stroke-linecap="round" stroke-linejoin="round" d="M 313.924 253.084 C 313.926 253.087 326.414 275.291 327.835 285.885 C 329.066 295.064 322.479 307.361 323.934 316.507 C 325.227 324.633 334.421 333.219 335.504 341.376 C 336.452 348.518 330.480 357.956 331.599 365.073 C 332.616 371.550 340.621 378.068 341.474 384.569 C 342.225 390.300 336.772 397.743 337.657 403.456 C 338.478 408.759 345.565 413.821 346.252 419.144 C 346.861 423.858 342.565 434.552 342.564 434.553 C 342.565 434.552 349.758 424.584 350.247 419.551 C 350.751 414.359 345.072 408.055 345.407 402.849 C 345.788 396.940 352.924 390.723 353.455 384.825 C 354.029 378.432 347.816 370.478 348.240 364.074 C 348.725 356.764 356.788 348.757 357.460 341.462 C 358.204 333.378 351.276 323.095 351.826 314.996 C 352.459 305.676 361.971 295.102 362.602 285.783 C 363.828 267.686 346.237 261.526 338.708 251.504 C 338.552 251.297 313.927 253.083 313.924 253.084 Z"/>
<path fill="#000000" fill-rule="evenodd" stroke="#ffffff" stroke-width="3" stroke-linecap="round" stroke-linejoin="round" d="M 290.701 253.084 C 290.700 253.087 278.211 275.291 276.790 285.885 C 275.559 295.064 282.146 307.361 280.691 316.507 C 279.398 324.633 270.204 333.219 269.121 341.376 C 268.173 348.518 274.145 357.956 273.026 365.073 C 272.009 371.550 264.003 378.068 263.151 384.569 C 262.400 390.300 267.853 397.743 266.969 403.456 C 266.147 408.759 259.061 413.821 258.373 419.144 C 257.764 423.858 262.060 434.552 262.061 434.553 C 262.060 434.552 254.867 424.584 254.378 419.551 C 253.874 414.359 259.553 408.055 259.218 402.849 C 258.838 396.940 251.701 390.723 251.171 384.825 C 250.596 378.432 256.809 370.478 256.385 364.074 C 255.901 356.764 247.838 348.757 247.166 341.462 C 246.421 333.378 253.349 323.095 252.799 314.996 C 252.167 305.676 240.975 295.065 242.023 285.783 C 243.429 273.326 258.389 261.526 265.917 251.504 C 266.073 251.297 290.698 253.083 290.701 253.084 Z"/>
<path fill="#ffffff" fill-rule="evenodd" stroke="#000000" stroke-width="3" stroke-linecap="round" stroke-linejoin="round" d="M 266.563 440.391 C 282.254 440.391 294.912 453.049 294.912 468.740 C 294.912 484.431 282.254 497.089 266.563 497.089 C 250.872 497.089 238.214 484.431 238.214 468.740 C 238.214 453.049 250.872 440.391 266.563 440.391 Z"/>
<path fill="#000000" fill-rule="evenodd" stroke="#ffffff" stroke-width="3" stroke-linecap="round" stroke-linejoin="round" d="M 259.103 469.237 C 262.957 469.237 266.066 472.346 266.066 476.200 C 266.066 480.054 262.957 483.163 259.103 483.163 C 255.249 483.163 252.140 480.054 252.140 476.200 C 252.140 472.346 255.249 469.237 259.103 469.237 Z"/>
<path fill="#ffffff" fill-rule="evenodd" stroke="#000000" stroke-width="3" stroke-linecap="round" stroke-linejoin="round" d="M 334.203 440.391 C 318.512 440.391 305.854 453.049 305.854 468.740 C 305.854 484.431 318.512 497.089 334.203 497.089 C 349.894 497.089 362.552 484.431 362.552 468.740 C 362.552 453.049 349.894 440.391 334.203 440.391 Z"/>
<path fill="#000000" fill-rule="evenodd" stroke="#ffffff" stroke-width="3" stroke-linecap="round" stroke-linejoin="round" d="M 341.663 469.237 C 337.810 469.237 334.700 472.346 334.700 476.200 C 334.700 480.054 337.810 483.163 341.663 483.163 C 345.517 483.163 348.626 480.054 348.626 476.200 C 348.626 472.346 345.517 469.237 341.663 469.237 Z"/>
<path fill="#ffffff" fill-rule="evenodd" stroke="#000000" stroke-width="3" stroke-linecap="round" stroke-linejoin="round" d="M 302.300 208.544 C 325.686 208.602 349.635 212.628 364.819 216.794 C 367.962 191.675 372.096 140.865 372.098 140.857 C 372.094 140.860 328.592 169.685 328.588 169.688 C 328.585 169.684 301.449 123.449 301.446 123.445 C 301.443 123.449 274.307 169.684 274.304 169.688 C 274.300 169.685 230.799 140.860 230.794 140.857 C 230.796 140.865 234.762 191.656 237.669 216.790 C 254.590 210.554 278.927 208.487 302.300 208.544 Z"/>
<path fill="#ffffff" fill-rule="evenodd" stroke="#000000" stroke-width="3" stroke-linecap="round" stroke-linejoin="round" d="M 302.178 223.060 C 336.951 223.060 365.002 251.111 365.002 285.884 C 365.002 320.657 336.951 348.709 302.178 348.709 C 267.405 348.709 239.353 320.657 239.353 285.884 C 239.353 251.111 267.405 223.060 302.178 223.060 Z"/>
<path fill="#000000" fill-rule="evenodd" stroke="none" d="M 283.990 281.575 C 283.990 271.571 292.059 263.501 302.063 263.501 C 312.068 263.500 320.139 271.571 320.139 281.575 C 320.139 291.579 312.067 299.649 302.063 299.649 C 292.059 299.648 283.990 291.579 283.990 281.575 M 251.277 282.172 C 251.283 282.169 263.566 254.688 302.063 254.689 C 340.560 254.689 352.843 282.169 352.848 282.172 C 352.843 282.175 340.560 309.657 302.063 309.657 C 263.566 309.657 251.283 282.175 251.277 282.172 Z"/>
</g>
<g id="specs_2">
<path fill="#ff0000" fill-rule="evenodd" stroke="none" d="M 372.752 660.110 C 372.753 660.113 383.311 689.674 383.312 689.677 C 383.311 689.676 372.753 679.853 372.752 679.852 C 372.751 679.853 362.194 689.676 362.193 689.677 C 362.194 689.674 372.751 660.113 372.752 660.110 Z"/>
<path fill="#0000ff" fill-rule="evenodd" stroke="none" d="M 301.377 111.550 C 301.377 111.551 307.394 128.400 307.395 128.402 C 307.394 128.401 301.377 122.803 301.377 122.802 C 301.376 122.803 295.359 128.401 295.358 128.402 C 295.359 128.400 301.376 111.551 301.377 111.550 Z"/>
<path fill="#ffff00" fill-rule="evenodd" stroke="none" d="M 294.587 547.473 C 294.587 547.472 300.438 535.578 300.439 535.577 C 300.439 535.577 300.747 541.583 300.747 541.584 C 300.748 541.584 307.185 541.730 307.186 541.730 C 307.185 541.730 294.588 547.473 294.587 547.473 Z"/>
<path fill="#ffff00" fill-rule="evenodd" stroke="none" d="M 524.102 547.327 C 524.101 547.326 517.996 535.544 517.995 535.543 C 517.995 535.543 517.816 541.554 517.816 541.555 C 517.816 541.555 511.382 541.821 511.381 541.821 C 511.383 541.822 524.101 547.327 524.102 547.327 Z"/>
<path fill="#00ffff" fill-rule="evenodd" stroke="none" d="M 232.994 211.410 C 232.994 211.411 237.926 222.848 237.926 222.849 C 237.926 222.849 238.334 217.142 238.334 217.141 C 238.335 217.141 244.056 217.137 244.057 217.137 C 244.056 217.136 232.995 211.411 232.994 211.410 Z"/>
<path fill="#be0027" fill-rule="evenodd" stroke="none" d="M 666.012 478.938 C 666.009 478.937 636.449 468.380 636.446 468.379 C 636.447 468.380 646.269 478.937 646.270 478.938 C 646.269 478.939 636.447 489.497 636.446 489.498 C 636.449 489.497 666.009 478.939 666.012 478.938 Z"/>
<path fill="#00ffff" fill-rule="evenodd" stroke="none" d="M 370.354 211.410 C 370.354 211.411 365.422 222.848 365.422 222.849 C 365.422 222.849 365.014 217.142 365.014 217.141 C 365.013 217.141 359.292 217.137 359.291 217.137 C 359.292 217.136 370.353 211.411 370.354 211.410 Z"/>
<path fill="#00ff00" fill-rule="evenodd" stroke="none" d="M 599.067 309.538 C 599.065 309.537 582.917 303.677 582.916 303.677 C 582.916 303.677 588.262 309.483 588.263 309.483 C 588.262 309.484 582.858 315.234 582.857 315.234 C 582.859 315.234 599.065 309.538 599.067 309.538 Z"/>
</g>
</g>
</svg>
