<?xml version="1.0" encoding="utf-8"?>
<!-- Generator: Moho 13.0.3 build 635 -->
<!DOCTYPE svg PUBLIC "-//W3C//DTD SVG 1.1//EN" "http://www.w3.org/Graphics/SVG/1.1/DTD/svg11.dtd">
<svg version="1.1" id="Frame_0" xmlns="http://www.w3.org/2000/svg" xmlns:xlink="http://www.w3.org/1999/xlink" width="720px" height="720px">
<g id="harpy_3">
<g id="harpy">
<path fill="#ffffff" fill-rule="evenodd" stroke="#000000" stroke-width="3" stroke-linecap="round" stroke-linejoin="round" d="M 252.294 438.273 C 261.063 425.543 226.743 412.091 219.818 398.271 C 178.392 315.600 246.478 274.726 191.018 251.562 C 64.648 198.781 26.330 142.366 25.621 180.354 C 24.706 229.352 159.097 260.956 157.495 276.759 C 156.225 289.284 25.381 212.065 28.827 241.567 C 36.721 309.159 156.583 294.529 156.826 314.466 C 156.960 325.442 28.863 279.373 38.778 311.502 C 56.271 368.187 155.851 330.725 158.208 349.503 C 160.094 364.524 41.942 347.877 56.767 375.582 C 76.524 412.506 162.822 372.053 164.210 383.135 C 165.598 394.214 64.292 394.481 89.119 420.975 C 118.626 452.462 170.156 408.559 176.609 416.731 C 185.934 428.539 97.912 445.643 141.352 465.367 C 167.984 477.459 198.528 439.964 202.285 447.790 C 206.238 456.025 134.042 481.706 184.803 484.225 C 206.952 485.324 235.650 462.438 252.294 438.273 Z"/>
<path fill="#ffffff" fill-rule="evenodd" stroke="#000000" stroke-width="3" stroke-linecap="round" stroke-linejoin="round" d="M 368.518 541.037 C 368.515 541.045 346.349 621.917 341.095 622.421 C 333.159 623.182 310.937 610.767 297.749 612.691 C 256.236 618.747 259.714 641.880 259.710 641.883 C 259.714 641.882 268.047 632.771 292.441 632.152 C 299.992 631.960 374.413 635.401 380.902 635.691 C 386.948 635.961 400.362 640.998 400.364 640.998 C 400.363 640.996 396.853 623.314 390.633 620.652 C 378.158 615.313 369.738 627.902 365.864 622.421 C 360.493 614.824 389.746 541.045 389.749 541.037 C 389.747 541.037 368.520 541.037 368.518 541.037 Z"/>
<path fill="#ffffff" fill-rule="evenodd" stroke="#000000" stroke-width="3" stroke-linecap="round" stroke-linejoin="round" d="M 410.094 548.998 C 410.092 549.006 387.926 629.879 382.671 630.383 C 374.736 631.144 352.513 618.728 339.326 620.652 C 297.813 626.708 301.291 649.841 301.287 649.844 C 301.290 649.843 309.624 640.733 334.018 640.113 C 341.568 639.922 415.990 643.362 422.479 643.652 C 428.525 643.922 441.939 648.959 441.941 648.960 C 441.940 648.958 438.430 631.276 432.210 628.614 C 419.735 623.274 411.315 635.863 407.441 630.383 C 402.070 622.786 431.323 549.006 431.326 548.998 C 431.323 548.998 410.097 548.998 410.094 548.998 Z"/>
<path fill="#ffffff" fill-rule="evenodd" stroke="#000000" stroke-width="3" stroke-linecap="round" stroke-linejoin="round" d="M 536.115 533.079 C 566.568 523.807 635.153 567.213 639.439 535.810 C 642.749 511.556 545.759 512.474 545.715 502.856 C 545.646 487.768 648.604 512.837 641.874 476.094 C 636.250 445.390 545.772 481.758 543.918 464.819 C 542.722 453.889 641.045 452.324 635.592 428.662 C 628.542 398.076 558.073 437.942 519.748 443.989 C 499.160 447.237 467.863 435.349 441.173 412.658 C 393.229 371.899 349.033 310.369 296.096 310.043 C 264.209 309.847 209.873 399.348 253.635 486.966 C 310.483 600.784 462.315 555.549 536.115 533.079 Z"/>
<path fill="#ffffff" fill-rule="evenodd" stroke="#000000" stroke-width="3" stroke-linecap="round" stroke-linejoin="round" d="M 362.643 436.138 C 353.639 423.065 388.883 409.251 395.994 395.059 C 438.535 310.163 368.617 268.188 425.569 244.401 C 555.341 190.200 594.691 132.266 595.419 171.277 C 596.358 221.593 458.349 254.048 459.994 270.276 C 461.298 283.138 595.664 203.841 592.126 234.137 C 584.019 303.549 460.931 288.524 460.681 308.998 C 460.544 320.270 592.089 272.961 581.907 305.954 C 563.944 364.165 461.682 325.695 459.262 344.978 C 457.326 360.404 578.658 343.309 563.434 371.760 C 543.145 409.677 454.525 368.136 453.099 379.516 C 451.673 390.893 555.706 391.167 530.211 418.374 C 499.910 450.709 446.992 405.624 440.365 414.016 C 430.790 426.142 521.182 443.706 476.572 463.961 C 449.224 476.379 417.857 437.874 413.999 445.910 C 409.940 454.367 484.079 480.740 431.951 483.327 C 409.207 484.455 379.736 460.953 362.643 436.138 Z"/>
<path fill="#000000" fill-rule="evenodd" stroke="#ffffff" stroke-width="3" stroke-linecap="round" stroke-linejoin="round" d="M 246.403 242.653 C 246.551 242.441 271.224 243.368 271.226 243.368 C 271.225 243.371 259.519 265.997 258.469 276.634 C 257.559 285.850 264.571 297.911 263.436 307.102 C 262.428 315.268 253.538 324.169 252.741 332.359 C 252.043 339.531 258.340 348.753 257.471 355.906 C 256.680 362.414 248.907 369.208 248.283 375.734 C 247.732 381.489 253.441 388.737 252.757 394.477 C 252.121 399.805 245.215 405.112 244.714 410.455 C 244.269 415.188 248.937 425.725 248.937 425.726 C 248.936 425.725 241.400 416.014 240.735 411.001 C 240.050 405.830 245.506 399.332 244.990 394.141 C 244.403 388.248 237.054 382.284 236.318 376.408 C 235.521 370.039 241.453 361.874 240.805 355.487 C 240.066 348.199 231.728 340.478 230.802 333.212 C 229.776 325.159 236.341 314.640 235.509 306.565 C 234.551 297.273 222.996 287.059 223.719 277.746 C 224.690 265.248 239.228 252.933 246.403 242.653 M 358.222 242.653 C 358.074 242.441 333.401 243.368 333.399 243.368 C 333.400 243.371 345.106 265.997 346.156 276.634 C 347.066 285.850 340.054 297.911 341.189 307.102 C 342.198 315.268 351.087 324.169 351.884 332.359 C 352.582 339.531 346.285 348.754 347.154 355.906 C 347.945 362.414 355.718 369.208 356.342 375.734 C 356.893 381.489 351.184 388.737 351.868 394.477 C 352.504 399.805 359.410 405.112 359.912 410.455 C 360.356 415.188 355.688 425.725 355.688 425.726 C 355.689 425.725 363.225 416.014 363.890 411.001 C 364.575 405.830 359.119 399.332 359.636 394.141 C 360.222 388.248 367.572 382.284 368.307 376.408 C 369.105 370.039 363.172 361.874 363.820 355.487 C 364.559 348.199 372.897 340.478 373.823 333.212 C 374.850 325.159 368.284 314.640 369.116 306.565 C 370.074 297.273 381.629 287.059 380.906 277.746 C 379.935 265.248 365.397 252.933 358.222 242.653 Z"/>
<path fill="#000000" fill-rule="evenodd" stroke="#ffffff" stroke-width="3" stroke-linecap="round" stroke-linejoin="round" d="M 313.924 253.084 C 313.926 253.087 326.414 275.291 327.835 285.885 C 329.066 295.064 322.479 307.361 323.934 316.507 C 325.227 324.633 334.421 333.219 335.504 341.376 C 336.452 348.518 330.480 357.956 331.599 365.073 C 332.616 371.550 340.621 378.068 341.474 384.569 C 342.225 390.300 336.772 397.743 337.657 403.456 C 338.478 408.759 345.565 413.821 346.252 419.144 C 346.861 423.858 342.565 434.552 342.564 434.553 C 342.565 434.552 349.758 424.584 350.247 419.551 C 350.751 414.359 345.072 408.055 345.407 402.849 C 345.788 396.940 352.924 390.723 353.455 384.825 C 354.029 378.432 347.816 370.478 348.240 364.074 C 348.725 356.764 356.788 348.757 357.460 341.462 C 358.204 333.378 351.276 323.095 351.826 314.996 C 352.459 305.676 361.971 295.102 362.602 285.783 C 363.828 267.686 346.237 261.526 338.708 251.504 C 338.552 251.297 313.927 253.083 313.924 253.084 Z"/>
<path fill="#000000" fill-rule="evenodd" stroke="#ffffff" stroke-width="3" stroke-linecap="round" stroke-linejoin="round" d="M 290.701 253.084 C 290.700 253.087 278.211 275.291 276.790 285.885 C 275.559 295.064 282.146 307.361 280.691 316.507 C 279.398 324.633 270.204 333.219 269.121 341.376 C 268.173 348.518 274.145 357.956 273.026 365.073 C 272.009 371.550 264.003 378.068 263.151 384.569 C 262.400 390.300 267.853 397.743 266.969 403.456 C 266.147 408.759 259.061 413.821 258.373 419.144 C 257.764 423.858 262.060 434.552 262.061 434.553 C 262.060 434.552 254.867 424.584 254.378 419.551 C 253.874 414.359 259.553 408.055 259.218 402.849 C 258.838 396.940 251.701 390.723 251.171 384.825 C 250.596 378.432 256.809 370.478 256.385 364.074 C 255.901 356.764 247.838 348.757 247.166 341.462 C 246.421 333.378 253.349 323.095 252.799 314.996 C 252.167 305.676 240.975 295.065 242.023 285.783 C 243.429 273.326 258.389 261.526 265.917 251.504 C 266.073 251.297 290.698 253.083 290.701 253.084 Z"/>
<path fill="#000000" fill-rule="evenodd" stroke="none" d="M 250.317 282.173 C 250.319 282.171 255.084 271.512 270.017 271.512 C 284.950 271.512 289.714 282.171 289.716 282.173 C 289.714 282.174 284.950 292.834 270.017 292.834 C 255.084 292.834 250.319 282.174 250.317 282.173 M 315.188 282.173 C 315.190 282.171 319.955 271.512 334.887 271.512 C 349.820 271.512 354.585 282.171 354.587 282.173 C 354.585 282.174 349.820 292.834 334.887 292.834 C 319.954 292.834 315.190 282.174 315.188 282.173 Z"/>
<path fill="none" stroke="#ffffff" stroke-width="1" stroke-linecap="butt" stroke-linejoin="round" d="M 250.317 282.173 C 250.319 282.171 255.084 271.512 270.017 271.512 "/>
<path fill="none" stroke="#ffffff" stroke-width="1" stroke-linecap="butt" stroke-linejoin="round" d="M 270.017 271.512 C 284.950 271.512 289.714 282.171 289.716 282.173 "/>
<path fill="none" stroke="#ffffff" stroke-width="1" stroke-linecap="butt" stroke-linejoin="round" d="M 289.716 282.173 C 289.714 282.174 284.950 292.834 270.017 292.834 "/>
<path fill="none" stroke="#ffffff" stroke-width="1" stroke-linecap="butt" stroke-linejoin="round" d="M 270.017 292.834 C 255.084 292.834 250.319 282.174 250.317 282.173 "/>
<path fill="none" stroke="#ffffff" stroke-width="1" stroke-linecap="butt" stroke-linejoin="round" d="M 315.188 282.173 C 315.190 282.171 319.955 271.512 334.887 271.512 "/>
<path fill="none" stroke="#ffffff" stroke-width="1" stroke-linecap="butt" stroke-linejoin="round" d="M 334.887 271.512 C 349.820 271.512 354.585 282.171 354.587 282.173 "/>
<path fill="none" stroke="#ffffff" stroke-width="1" stroke-linecap="butt" stroke-linejoin="round" d="M 354.587 282.173 C 354.585 282.174 349.820 292.834 334.887 292.834 "/>
<path fill="none" stroke="#ffffff" stroke-width="1" stroke-linecap="butt" stroke-linejoin="round" d="M 334.887 292.834 C 319.954 292.834 315.190 282.174 315.188 282.173 "/>
<path fill="#ffffff" fill-rule="evenodd" stroke="none" d="M 263.006 281.941 C 263.006 278.060 266.136 274.930 270.017 274.930 C 273.897 274.930 277.028 278.060 277.028 281.941 C 277.028 285.821 273.897 288.952 270.017 288.952 C 266.136 288.952 263.006 285.821 263.006 281.941 M 250.317 282.173 C 250.319 282.171 255.084 271.512 270.017 271.512 C 284.950 271.512 289.714 282.171 289.716 282.173 C 289.714 282.174 284.950 292.834 270.017 292.834 C 255.084 292.834 250.319 282.174 250.317 282.173 M 327.877 281.941 C 327.877 278.060 331.007 274.930 334.887 274.930 C 338.768 274.930 341.899 278.060 341.899 281.941 C 341.899 285.821 338.768 288.952 334.887 288.952 C 331.007 288.952 327.877 285.821 327.877 281.941 M 315.188 282.173 C 315.190 282.171 319.955 271.512 334.887 271.512 C 349.820 271.512 354.585 282.171 354.587 282.173 C 354.585 282.174 349.820 292.834 334.887 292.834 C 319.954 292.834 315.190 282.174 315.188 282.173 M 241.005 283.857 C 240.039 252.707 270.307 214.404 302.313 214.404 C 334.318 214.404 363.620 243.226 363.620 283.857 C 363.620 324.488 334.318 353.311 302.313 353.311 C 270.307 353.311 242.022 316.661 241.005 283.857 Z"/>
<path fill="#000000" fill-rule="evenodd" stroke="#ffffff" stroke-width="3" stroke-linecap="round" stroke-linejoin="round" d="M 302.313 327.289 C 313.741 327.289 318.989 330.531 319.047 331.008 C 319.111 331.527 314.359 338.582 301.899 338.445 C 289.943 338.313 285.580 331.008 285.578 331.008 C 285.580 331.007 290.884 327.289 302.313 327.289 Z"/>
<path fill="none" stroke="#ffffff" stroke-width="3" stroke-linecap="round" stroke-linejoin="round" d="M 285.578 331.008 C 297.148 333.073 307.891 333.073 319.047 331.008 "/>
<path fill="none" stroke="#000000" stroke-width="3" stroke-linecap="round" stroke-linejoin="round" d="M 241.005 283.857 C 244.026 270.954 260.903 252.606 283.926 264.261 C 302.492 273.660 292.550 314.824 302.313 314.892 C 312.718 314.965 302.906 273.548 318.614 265.663 C 346.620 251.607 360.826 270.436 363.620 283.857 "/>
<path fill="#ffffff" fill-rule="evenodd" stroke="#000000" stroke-width="3" stroke-linecap="round" stroke-linejoin="round" d="M 302.315 160.885 C 311.152 153.147 323.027 148.330 335.577 148.640 C 359.460 149.230 389.546 173.412 378.767 191.776 C 373.423 200.882 356.155 207.677 356.152 207.678 C 356.152 207.678 351.144 207.708 348.613 207.723 C 319.691 207.893 278.158 208.137 256.925 208.261 C 253.717 208.280 248.830 208.309 248.829 208.309 C 248.827 208.307 230.091 199.189 225.858 191.776 C 215.874 174.296 242.863 147.855 269.048 148.640 C 281.596 149.016 293.473 153.147 302.315 160.885 Z"/>
<path fill="none" stroke="#000000" stroke-width="1" stroke-linecap="butt" stroke-linejoin="round" d="M 348.613 207.723 C 319.691 207.893 278.158 208.137 256.925 208.261 "/>
<path fill="#000000" fill-rule="evenodd" stroke="#000000" stroke-width="3" stroke-linecap="round" stroke-linejoin="round" d="M 366.176 196.497 C 362.136 202.790 353.037 205.951 348.613 207.723 C 319.691 207.893 278.158 208.137 256.925 208.261 C 251.355 206.045 240.606 202.061 237.007 196.497 C 227.772 182.218 251.372 159.395 273.491 160.058 C 284.092 160.376 294.125 163.865 301.593 170.401 C 309.059 163.865 319.090 159.796 329.692 160.058 C 349.867 160.556 375.894 181.360 366.176 196.497 Z"/>
<path fill="#ffffff" fill-rule="evenodd" stroke="#000000" stroke-width="3" stroke-linecap="round" stroke-linejoin="round" d="M 256.679 196.803 C 256.679 193.092 259.673 190.098 263.384 190.098 C 267.095 190.098 270.089 193.092 270.089 196.803 C 270.089 200.514 267.095 203.508 263.384 203.508 C 259.673 203.508 256.679 200.514 256.679 196.803 M 334.536 196.803 C 334.536 193.092 337.530 190.098 341.241 190.098 C 344.952 190.098 347.946 193.092 347.946 196.803 C 347.946 200.514 344.952 203.508 341.241 203.508 C 337.530 203.508 334.536 200.514 334.536 196.803 M 206.330 175.168 C 206.330 169.651 210.781 165.201 216.297 165.201 C 221.814 165.201 226.264 169.651 226.264 175.168 C 226.264 180.684 221.814 185.134 216.297 185.134 C 210.781 185.134 206.330 180.684 206.330 175.168 M 378.361 175.168 C 378.361 169.651 382.811 165.201 388.328 165.201 C 393.844 165.201 398.294 169.651 398.295 175.168 C 398.295 180.684 393.844 185.134 388.328 185.134 C 382.811 185.134 378.361 180.684 378.361 175.168 M 286.343 154.889 C 286.343 146.050 293.473 138.919 302.313 138.919 C 311.152 138.919 318.282 146.050 318.282 154.889 C 318.282 163.728 311.152 170.859 302.313 170.859 C 293.473 170.859 286.343 163.728 286.343 154.889 Z"/>
<path fill="#000000" fill-rule="evenodd" stroke="none" d="M 302.313 146.903 C 306.445 146.903 309.779 150.237 309.780 154.370 C 309.780 158.503 306.446 161.837 302.313 161.837 C 298.180 161.837 294.845 158.503 294.846 154.370 C 294.846 150.237 298.180 146.903 302.313 146.903 Z"/>
<path fill="#000000" fill-rule="evenodd" stroke="none" d="M 388.173 170.206 C 390.943 170.206 393.178 172.441 393.178 175.212 C 393.178 177.983 390.943 180.218 388.173 180.218 C 385.402 180.218 383.167 177.982 383.167 175.212 C 383.167 172.441 385.402 170.207 388.173 170.206 Z"/>
<path fill="#000000" fill-rule="evenodd" stroke="none" d="M 216.453 170.206 C 219.223 170.206 221.458 172.441 221.458 175.212 C 221.458 177.982 219.223 180.217 216.453 180.217 C 213.682 180.217 211.447 177.982 211.447 175.212 C 211.447 172.441 213.682 170.206 216.453 170.206 Z"/>
<path fill="#ffffff" fill-rule="evenodd" stroke="#000000" stroke-width="3" stroke-linecap="round" stroke-linejoin="round" d="M 266.563 440.391 C 282.254 440.391 294.912 453.049 294.912 468.740 C 294.912 484.431 282.254 497.089 266.563 497.089 C 250.872 497.089 238.214 484.431 238.214 468.740 C 238.214 453.049 250.872 440.391 266.563 440.391 Z"/>
<path fill="#000000" fill-rule="evenodd" stroke="#ffffff" stroke-width="3" stroke-linecap="round" stroke-linejoin="round" d="M 259.103 469.237 C 262.957 469.237 266.066 472.346 266.066 476.200 C 266.066 480.054 262.957 483.163 259.103 483.163 C 255.249 483.163 252.140 480.054 252.140 476.200 C 252.140 472.346 255.249 469.237 259.103 469.237 Z"/>
<path fill="#ffffff" fill-rule="evenodd" stroke="#000000" stroke-width="3" stroke-linecap="round" stroke-linejoin="round" d="M 334.203 440.391 C 318.512 440.391 305.854 453.049 305.854 468.740 C 305.854 484.431 318.512 497.089 334.203 497.089 C 349.894 497.089 362.552 484.431 362.552 468.740 C 362.552 453.049 349.894 440.391 334.203 440.391 Z"/>
<path fill="#000000" fill-rule="evenodd" stroke="#ffffff" stroke-width="3" stroke-linecap="round" stroke-linejoin="round" d="M 341.663 469.237 C 337.810 469.237 334.700 472.346 334.700 476.200 C 334.700 480.054 337.810 483.163 341.663 483.163 C 345.517 483.163 348.626 480.054 348.626 476.200 C 348.626 472.346 345.517 469.237 341.663 469.237 Z"/>
<path fill="none" stroke="#000000" stroke-width="3" stroke-linecap="round" stroke-linejoin="round" d="M 302.476 120.181 C 302.476 126.082 302.476 131.982 302.476 137.883 "/>
<path fill="none" stroke="#000000" stroke-width="3" stroke-linecap="round" stroke-linejoin="round" d="M 311.327 129.032 C 305.426 129.032 299.526 129.032 293.625 129.032 "/>
<path fill="none" stroke="#000000" stroke-width="3" stroke-linecap="round" stroke-linejoin="round" d="M 241.005 283.857 C 240.039 252.707 270.307 214.404 302.313 214.404 C 334.318 214.404 363.620 243.226 363.620 283.857 C 363.620 324.488 334.318 353.311 302.313 353.311 C 270.307 353.311 242.022 316.661 241.005 283.857 "/>
<path fill="#ffffff" fill-rule="evenodd" stroke="#000000" stroke-width="3" stroke-linecap="round" stroke-linejoin="round" d="M 235.418 222.573 C 235.431 222.573 369.194 222.573 369.207 222.573 C 369.207 222.576 363.755 250.450 363.754 250.453 C 363.742 250.453 240.883 250.453 240.871 250.453 C 240.870 250.450 235.419 222.576 235.418 222.573 Z"/>
<path fill="none" stroke="#ffffff" stroke-width="1" stroke-linecap="butt" stroke-linejoin="round" d="M 369.207 222.573 C 369.194 222.573 235.431 222.573 235.418 222.573 "/>
<path fill="#ffffff" fill-rule="evenodd" stroke="#000000" stroke-width="3" stroke-linecap="round" stroke-linejoin="round" d="M 388.586 185.599 C 388.584 185.603 375.667 210.249 369.207 222.573 C 369.194 222.573 235.431 222.573 235.418 222.573 C 228.959 210.249 216.042 185.603 216.040 185.599 C 216.043 185.600 240.668 192.497 250.074 197.924 C 255.172 200.865 256.156 211.560 265.338 210.249 C 275.693 208.770 272.964 196.617 277.488 191.762 C 283.819 184.969 302.310 173.277 302.313 173.275 C 302.315 173.277 320.806 184.969 327.137 191.762 C 331.662 196.617 328.932 208.770 339.287 210.249 C 348.469 211.560 349.453 200.865 354.551 197.924 C 363.957 192.497 388.582 185.600 388.586 185.599 Z"/>
<path fill="none" stroke="#000000" stroke-width="3" stroke-linecap="round" stroke-linejoin="round" d="M 287.894 201.129 C 287.894 193.148 294.332 186.710 302.313 186.710 C 310.293 186.710 316.731 193.148 316.731 201.129 C 316.731 209.109 310.293 215.546 302.313 215.546 C 294.332 215.546 287.894 209.109 287.894 201.129 "/>
<path fill="#000000" fill-rule="evenodd" stroke="none" d="M 267.501 236.600 C 267.501 231.132 271.912 226.721 277.380 226.721 C 282.848 226.721 287.259 231.132 287.259 236.600 C 287.259 242.068 282.848 246.479 277.380 246.479 C 271.912 246.479 267.501 242.068 267.501 236.600 M 242.726 236.600 C 242.726 231.132 247.137 226.721 252.605 226.721 C 258.072 226.721 262.483 231.132 262.483 236.600 C 262.483 242.068 258.072 246.479 252.605 246.479 C 247.137 246.479 242.726 242.068 242.726 236.600 M 342.142 236.600 C 342.142 231.132 346.553 226.721 352.021 226.721 C 357.489 226.721 361.900 231.132 361.900 236.600 C 361.900 242.068 357.489 246.479 352.021 246.479 C 346.553 246.479 342.142 242.068 342.142 236.600 M 317.366 236.600 C 317.366 231.132 321.777 226.721 327.245 226.721 C 332.713 226.721 337.124 231.132 337.124 236.600 C 337.124 242.068 332.713 246.479 327.245 246.479 C 321.777 246.479 317.366 242.068 317.366 236.600 M 292.434 236.600 C 292.434 231.132 296.845 226.721 302.313 226.721 C 307.781 226.721 312.192 231.132 312.192 236.600 C 312.192 242.068 307.781 246.479 302.313 246.479 C 296.845 246.479 292.434 242.068 292.434 236.600 Z"/>
<path fill="#000000" fill-rule="evenodd" stroke="none" d="M 302.313 193.661 C 306.445 193.661 309.780 196.996 309.780 201.129 C 309.780 205.261 306.445 208.596 302.313 208.596 C 298.180 208.596 294.846 205.261 294.846 201.129 C 294.846 196.996 298.180 193.661 302.313 193.661 Z"/>
</g>
<g id="specs_2">
<path fill="#ff0000" fill-rule="evenodd" stroke="none" d="M 372.752 660.110 C 372.753 660.113 383.310 689.674 383.311 689.677 C 383.310 689.676 372.753 679.853 372.752 679.852 C 372.751 679.853 362.194 689.676 362.193 689.677 C 362.194 689.674 372.751 660.113 372.752 660.110 Z"/>
<path fill="#0000ff" fill-rule="evenodd" stroke="none" d="M 302.200 107.254 C 302.200 107.255 308.333 124.426 308.333 124.428 C 308.333 124.428 302.200 118.722 302.200 118.721 C 302.199 118.722 296.067 124.428 296.066 124.428 C 296.067 124.426 302.199 107.255 302.200 107.254 Z"/>
<path fill="#00ff00" fill-rule="evenodd" stroke="none" d="M 16.625 309.539 C 16.627 309.539 33.131 303.550 33.133 303.549 C 33.132 303.550 27.668 309.483 27.667 309.484 C 27.668 309.484 33.192 315.361 33.192 315.362 C 33.191 315.361 16.627 309.540 16.625 309.539 Z"/>
<path fill="#ffff00" fill-rule="evenodd" stroke="none" d="M 254.441 575.187 C 254.442 575.185 261.783 560.262 261.783 560.261 C 261.783 560.262 262.170 567.797 262.170 567.798 C 262.171 567.798 270.248 567.981 270.249 567.981 C 270.247 567.982 254.443 575.186 254.441 575.187 Z"/>
<path fill="#ffff00" fill-rule="evenodd" stroke="none" d="M 542.402 575.004 C 542.401 575.002 534.741 560.220 534.740 560.218 C 534.740 560.219 534.516 567.761 534.516 567.761 C 534.515 567.761 526.443 568.095 526.442 568.095 C 526.443 568.096 542.400 575.003 542.402 575.004 Z"/>
<path fill="#00ffff" fill-rule="evenodd" stroke="none" d="M 199.929 157.468 C 199.930 157.469 207.267 174.485 207.268 174.487 C 207.268 174.486 207.875 165.995 207.875 165.994 C 207.876 165.994 216.388 165.987 216.389 165.987 C 216.387 165.987 199.931 157.469 199.929 157.468 Z"/>
<path fill="#be0027" fill-rule="evenodd" stroke="none" d="M 679.811 478.938 C 679.808 478.937 650.247 468.380 650.244 468.379 C 650.245 468.380 660.068 478.937 660.069 478.938 C 660.068 478.939 650.245 489.497 650.244 489.498 C 650.247 489.497 679.808 478.939 679.811 478.938 Z"/>
<path fill="#00ffff" fill-rule="evenodd" stroke="none" d="M 404.288 157.468 C 404.287 157.469 396.951 174.485 396.950 174.487 C 396.950 174.486 396.343 165.995 396.343 165.994 C 396.342 165.994 387.830 165.987 387.829 165.987 C 387.830 165.987 404.287 157.469 404.288 157.468 Z"/>
<path fill="#00ff00" fill-rule="evenodd" stroke="none" d="M 605.431 309.539 C 605.430 309.539 588.925 303.550 588.923 303.549 C 588.924 303.550 594.388 309.483 594.389 309.484 C 594.388 309.484 588.864 315.361 588.864 315.362 C 588.866 315.361 605.430 309.540 605.431 309.539 Z"/>
</g>
</g>
</svg>
