<?xml version="1.0" encoding="utf-8"?>
<!-- Generator: Moho 13.0.3 build 635 -->
<!DOCTYPE svg PUBLIC "-//W3C//DTD SVG 1.1//EN" "http://www.w3.org/Graphics/SVG/1.1/DTD/svg11.dtd">
<svg version="1.1" id="Frame_0" xmlns="http://www.w3.org/2000/svg" xmlns:xlink="http://www.w3.org/1999/xlink" width="720px" height="720px">
<g id="harpy">
<g id="harpy">
<path fill="#000000" fill-rule="evenodd" stroke="#ffffff" stroke-width="4" stroke-linecap="round" stroke-linejoin="round" d="M 262.020 468.866 C 251.173 453.795 283.825 430.588 287.219 412.332 C 308.569 297.499 208.207 273.609 266.230 224.652 C 398.440 113.100 423.191 30.590 438.464 76.087 C 458.164 134.770 308.252 223.854 316.180 242.285 C 322.464 256.892 450.789 114.200 457.835 151.049 C 473.980 235.478 324.024 263.346 331.299 287.458 C 335.304 300.732 472.142 196.610 472.392 239.080 C 472.833 314.011 338.644 306.676 342.932 330.193 C 346.362 349.006 482.386 284.104 475.042 323.109 C 465.255 375.091 345.934 359.112 348.467 372.990 C 351.000 386.864 473.149 348.734 453.295 390.075 C 429.698 439.209 350.953 405.877 346.280 418.171 C 339.528 435.936 452.066 423.132 407.218 463.382 C 379.723 488.059 329.098 454.546 327.137 465.334 C 325.032 476.921 410.211 484.447 360.662 505.215 C 331.016 517.641 284.240 499.734 262.020 468.866 Z"/>
<path fill="#000000" fill-rule="evenodd" stroke="#ffffff" stroke-width="4" stroke-linecap="round" stroke-linejoin="round" d="M 289.730 561.812 C 289.727 561.822 264.607 653.469 258.653 654.040 C 249.660 654.903 224.477 640.833 209.532 643.013 C 162.488 649.876 166.430 676.092 166.425 676.095 C 166.429 676.094 175.872 665.769 203.517 665.068 C 212.074 664.850 296.410 668.749 303.764 669.078 C 310.616 669.384 325.817 675.092 325.819 675.092 C 325.818 675.090 321.841 655.052 314.792 652.035 C 300.655 645.985 291.113 660.251 286.722 654.040 C 280.636 645.431 313.786 561.822 313.789 561.812 C 313.787 561.813 289.732 561.812 289.730 561.812 Z"/>
<path fill="#ffffff" fill-rule="evenodd" stroke="#000000" stroke-width="4" stroke-linecap="round" stroke-linejoin="round" d="M 336.846 570.835 C 336.843 570.844 311.724 662.491 305.769 663.062 C 296.776 663.925 271.593 649.855 256.648 652.035 C 209.604 658.898 213.546 685.114 213.541 685.117 C 213.545 685.116 222.989 674.791 250.633 674.090 C 259.190 673.873 343.527 677.771 350.881 678.100 C 357.732 678.406 372.933 684.114 372.935 684.114 C 372.934 684.112 368.957 664.075 361.908 661.058 C 347.771 655.007 338.229 669.273 333.839 663.062 C 327.752 654.453 360.903 570.844 360.906 570.835 C 360.903 570.835 336.848 570.835 336.846 570.835 Z"/>
<path fill="#000000" fill-rule="evenodd" stroke="#ffffff" stroke-width="4" stroke-linecap="round" stroke-linejoin="round" d="M 286.292 469.942 C 378.892 550.200 485.003 514.632 517.744 518.545 C 517.395 529.439 627.707 528.403 623.956 555.890 C 619.099 591.476 542.933 552.105 506.866 552.794 C 451.175 553.859 227.836 641.069 149.383 500.537 C 113.757 436.721 161.366 299.820 197.502 300.042 C 209.729 296.579 233.825 319.811 233.829 319.813 C 233.834 319.828 227.755 419.207 286.292 469.942 Z"/>
<path fill="none" stroke="#ffffff" stroke-width="1" stroke-linecap="butt" stroke-linejoin="round" d="M 286.292 469.942 C 378.892 550.200 485.003 514.632 517.744 518.545 "/>
<path fill="none" stroke="#ffffff" stroke-width="1" stroke-linecap="butt" stroke-linejoin="round" d="M 197.502 300.042 C 209.729 296.579 233.825 319.811 233.829 319.813 "/>
<path fill="none" stroke="#ffffff" stroke-width="1" stroke-linecap="butt" stroke-linejoin="round" d="M 233.829 319.813 C 233.834 319.828 227.755 419.207 286.292 469.942 "/>
<path fill="#ffffff" fill-rule="evenodd" stroke="#000000" stroke-width="4" stroke-linecap="round" stroke-linejoin="round" d="M 286.292 469.942 C 378.892 550.200 485.003 514.632 517.744 518.545 C 518.273 502.050 628.977 535.025 624.224 494.444 C 620.168 459.805 517.319 484.446 515.708 475.440 C 513.515 463.174 625.776 461.279 619.596 434.465 C 611.607 399.804 531.250 442.348 488.318 451.834 C 456.727 458.814 405.100 449.364 361.908 416.329 C 305.264 373.005 257.492 300.411 197.502 300.042 C 209.729 296.579 233.825 319.811 233.829 319.813 C 233.834 319.828 227.755 419.207 286.292 469.942 Z"/>
<path fill="#000000" fill-rule="evenodd" stroke="#ffffff" stroke-width="4" stroke-linecap="round" stroke-linejoin="round" d="M 292.476 443.287 C 284.419 426.558 320.615 409.393 327.138 392.008 C 368.168 282.651 273.502 241.642 339.167 203.542 C 488.790 116.729 527.537 39.793 534.650 87.255 C 543.824 148.473 380.685 210.077 385.281 229.607 C 388.924 245.086 540.146 126.932 540.665 164.446 C 541.854 250.396 389.336 251.713 392.299 276.723 C 393.930 290.492 546.815 211.802 539.663 253.666 C 527.043 327.528 396.183 296.927 396.309 320.832 C 396.409 339.955 541.660 299.743 527.633 336.872 C 508.939 386.354 394.227 349.831 394.303 363.939 C 394.380 378.041 521.305 361.775 494.551 399.025 C 462.755 443.297 391.022 396.755 384.279 408.048 C 374.535 424.365 487.583 431.362 436.408 463.184 C 405.034 482.693 361.022 440.872 357.212 451.154 C 353.120 462.197 435.685 484.448 383.276 496.266 C 351.918 503.337 308.977 477.555 292.476 443.287 Z"/>
<path fill="#000000" fill-rule="evenodd" stroke="#ffffff" stroke-width="4" stroke-linecap="round" stroke-linejoin="round" d="M 141.188 223.673 C 141.355 223.433 169.316 224.483 169.318 224.483 C 169.317 224.487 156.051 250.128 154.861 262.182 C 153.830 272.626 161.777 286.293 160.490 296.709 C 159.347 305.963 149.274 316.051 148.370 325.332 C 147.579 333.458 154.715 343.910 153.730 352.015 C 152.834 359.391 144.026 367.090 143.318 374.486 C 142.693 381.007 149.164 389.220 148.388 395.725 C 147.667 401.764 139.841 407.777 139.273 413.832 C 138.770 419.195 144.059 431.136 144.059 431.138 C 144.058 431.136 135.518 420.132 134.765 414.452 C 133.988 408.591 140.171 401.227 139.586 395.345 C 138.921 388.667 130.593 381.908 129.759 375.249 C 128.855 368.031 135.578 358.778 134.844 351.541 C 134.006 343.282 124.558 334.532 123.508 326.297 C 122.345 317.172 129.785 305.251 128.842 296.100 C 127.757 285.570 114.662 273.996 115.482 263.442 C 116.582 249.279 133.057 235.323 141.188 223.673 M 267.905 223.673 C 267.737 223.433 239.777 224.483 239.775 224.483 C 239.776 224.487 253.041 250.128 254.232 262.182 C 255.263 272.626 247.316 286.293 248.603 296.709 C 249.746 305.963 259.819 316.051 260.723 325.332 C 261.514 333.458 254.377 343.910 255.362 352.016 C 256.259 359.391 265.067 367.090 265.775 374.486 C 266.399 381.007 259.929 389.220 260.705 395.725 C 261.425 401.764 269.251 407.777 269.820 413.832 C 270.323 419.195 265.034 431.136 265.033 431.138 C 265.034 431.136 273.575 420.132 274.328 414.452 C 275.105 408.591 268.922 401.227 269.507 395.345 C 270.172 388.667 278.500 381.908 279.334 375.249 C 280.238 368.031 273.515 358.778 274.249 351.541 C 275.086 343.282 284.535 334.532 285.585 326.297 C 286.748 317.172 279.308 305.251 280.251 296.100 C 281.336 285.570 294.431 273.996 293.611 263.442 C 292.511 249.279 276.036 235.323 267.905 223.673 Z"/>
<path fill="#000000" fill-rule="evenodd" stroke="#ffffff" stroke-width="4" stroke-linecap="round" stroke-linejoin="round" d="M 217.705 235.493 C 217.707 235.497 231.859 260.660 233.469 272.665 C 234.864 283.067 227.399 297.003 229.048 307.367 C 230.514 316.576 240.933 326.305 242.160 335.549 C 243.235 343.643 236.467 354.338 237.734 362.404 C 238.888 369.744 247.959 377.131 248.925 384.497 C 249.777 390.992 243.597 399.427 244.600 405.901 C 245.530 411.910 253.561 417.647 254.340 423.678 C 255.031 429.021 250.162 441.140 250.161 441.141 C 250.162 441.140 258.313 429.843 258.867 424.140 C 259.439 418.256 253.003 411.113 253.383 405.213 C 253.814 398.516 261.901 391.471 262.502 384.787 C 263.154 377.542 256.112 368.529 256.593 361.271 C 257.142 352.988 266.279 343.913 267.041 335.647 C 267.885 326.486 260.034 314.832 260.657 305.654 C 261.374 295.093 272.153 283.111 272.869 272.549 C 274.258 252.041 254.323 245.061 245.791 233.703 C 245.615 233.469 217.708 235.493 217.705 235.493 Z"/>
<path fill="#000000" fill-rule="evenodd" stroke="#ffffff" stroke-width="4" stroke-linecap="round" stroke-linejoin="round" d="M 191.388 235.493 C 191.386 235.497 177.234 260.660 175.624 272.665 C 174.228 283.067 181.693 297.003 180.044 307.367 C 178.579 316.576 168.160 326.305 166.932 335.549 C 165.858 343.643 172.625 354.338 171.358 362.404 C 170.205 369.744 161.133 377.131 160.167 384.497 C 159.316 390.992 165.496 399.427 164.493 405.901 C 163.563 411.910 155.532 417.647 154.752 423.678 C 154.062 429.021 158.931 441.140 158.932 441.141 C 158.931 441.140 150.779 429.843 150.225 424.140 C 149.654 418.256 156.090 411.113 155.710 405.213 C 155.279 398.516 147.191 391.471 146.590 384.787 C 145.939 377.542 152.980 368.529 152.499 361.271 C 151.951 352.988 142.813 343.913 142.052 335.647 C 141.208 326.486 149.059 314.832 148.436 305.654 C 147.719 295.093 135.036 283.068 136.224 272.549 C 137.818 258.433 154.770 245.061 163.302 233.703 C 163.478 233.469 191.385 235.493 191.388 235.493 Z"/>
<path fill="#000000" fill-rule="evenodd" stroke="none" d="M 145.624 268.458 C 145.626 268.457 151.025 256.377 167.948 256.377 C 184.870 256.377 190.269 268.457 190.272 268.458 C 190.269 268.459 184.870 280.540 167.948 280.540 C 151.025 280.540 145.626 268.459 145.624 268.458 M 219.137 268.458 C 219.139 268.457 224.539 256.377 241.461 256.377 C 258.384 256.377 263.783 268.457 263.786 268.458 C 263.783 268.459 258.384 280.540 241.461 280.540 C 224.539 280.540 219.139 268.459 219.137 268.458 Z"/>
<path fill="none" stroke="#ffffff" stroke-width="1" stroke-linecap="butt" stroke-linejoin="round" d="M 145.624 268.458 C 145.626 268.457 151.025 256.377 167.948 256.377 "/>
<path fill="none" stroke="#ffffff" stroke-width="1" stroke-linecap="butt" stroke-linejoin="round" d="M 167.948 256.377 C 184.870 256.377 190.269 268.457 190.272 268.458 "/>
<path fill="none" stroke="#ffffff" stroke-width="1" stroke-linecap="butt" stroke-linejoin="round" d="M 190.272 268.458 C 190.269 268.459 184.870 280.540 167.948 280.540 "/>
<path fill="none" stroke="#ffffff" stroke-width="1" stroke-linecap="butt" stroke-linejoin="round" d="M 167.948 280.540 C 151.025 280.540 145.626 268.459 145.624 268.458 "/>
<path fill="none" stroke="#ffffff" stroke-width="1" stroke-linecap="butt" stroke-linejoin="round" d="M 219.137 268.458 C 219.139 268.457 224.539 256.377 241.461 256.377 "/>
<path fill="none" stroke="#ffffff" stroke-width="1" stroke-linecap="butt" stroke-linejoin="round" d="M 241.461 256.377 C 258.384 256.377 263.783 268.457 263.786 268.458 "/>
<path fill="none" stroke="#ffffff" stroke-width="1" stroke-linecap="butt" stroke-linejoin="round" d="M 263.786 268.458 C 263.783 268.459 258.384 280.540 241.461 280.540 "/>
<path fill="none" stroke="#ffffff" stroke-width="1" stroke-linecap="butt" stroke-linejoin="round" d="M 241.461 280.540 C 224.539 280.540 219.139 268.459 219.137 268.458 "/>
<path fill="#ffffff" fill-rule="evenodd" stroke="#000000" stroke-width="4" stroke-linecap="round" stroke-linejoin="round" d="M 160.003 268.195 C 160.003 263.798 163.550 260.250 167.948 260.250 C 172.345 260.250 175.893 263.798 175.893 268.195 C 175.893 272.593 172.345 276.140 167.948 276.140 C 163.550 276.140 160.003 272.593 160.003 268.195 M 145.624 268.458 C 145.626 268.457 151.025 256.377 167.948 256.377 C 184.870 256.377 190.269 268.457 190.272 268.458 C 190.269 268.459 184.870 280.540 167.948 280.540 C 151.025 280.540 145.626 268.459 145.624 268.458 M 233.517 268.195 C 233.517 263.798 237.064 260.251 241.461 260.250 C 245.859 260.250 249.407 263.798 249.407 268.195 C 249.407 272.593 245.859 276.141 241.461 276.140 C 237.064 276.140 233.517 272.593 233.517 268.195 M 219.137 268.458 C 219.139 268.457 224.539 256.377 241.461 256.377 C 258.384 256.377 263.783 268.457 263.786 268.458 C 263.783 268.459 258.384 280.540 241.461 280.540 C 224.539 280.540 219.139 268.459 219.137 268.458 M 135.070 270.367 C 133.976 235.067 168.277 191.660 204.546 191.660 C 240.816 191.660 274.023 224.323 274.023 270.367 C 274.023 316.411 240.816 349.075 204.546 349.075 C 168.277 349.075 136.223 307.542 135.070 270.367 Z"/>
<path fill="#000000" fill-rule="evenodd" stroke="#ffffff" stroke-width="4" stroke-linecap="round" stroke-linejoin="round" d="M 204.547 319.586 C 217.498 319.586 223.444 323.260 223.510 323.800 C 223.583 324.388 218.198 332.383 204.078 332.228 C 190.529 332.079 185.584 323.800 185.582 323.800 C 185.584 323.799 191.595 319.586 204.547 319.586 Z"/>
<path fill="none" stroke="#ffffff" stroke-width="4" stroke-linecap="round" stroke-linejoin="round" d="M 185.582 323.800 C 198.693 326.141 210.868 326.141 223.510 323.800 "/>
<path fill="none" stroke="#000000" stroke-width="4" stroke-linecap="round" stroke-linejoin="round" d="M 135.070 270.367 C 138.494 255.745 157.620 234.952 183.710 248.160 C 204.750 258.811 193.483 305.459 204.546 305.537 C 216.338 305.620 205.219 258.684 223.019 249.749 C 254.757 233.820 270.856 255.158 274.023 270.367 "/>
<path fill="#ffffff" fill-rule="evenodd" stroke="#000000" stroke-width="4" stroke-linecap="round" stroke-linejoin="round" d="M 204.549 131.010 C 214.564 122.242 228.021 116.783 242.243 117.134 C 269.308 117.803 303.403 145.206 291.188 166.018 C 285.131 176.337 265.562 184.037 265.560 184.039 C 265.559 184.039 259.884 184.072 257.015 184.089 C 224.241 184.282 177.174 184.558 153.112 184.699 C 149.476 184.720 143.938 184.753 143.937 184.753 C 143.934 184.751 122.702 174.418 117.905 166.018 C 106.591 146.208 137.176 116.244 166.849 117.134 C 181.070 117.560 194.529 122.242 204.549 131.010 Z"/>
<path fill="none" stroke="#000000" stroke-width="1" stroke-linecap="butt" stroke-linejoin="round" d="M 257.015 184.089 C 224.241 184.282 177.174 184.558 153.112 184.699 "/>
<path fill="#000000" fill-rule="evenodd" stroke="#000000" stroke-width="4" stroke-linecap="round" stroke-linejoin="round" d="M 276.919 171.367 C 272.340 178.499 262.030 182.081 257.015 184.089 C 224.241 184.282 177.174 184.558 153.112 184.699 C 146.799 182.187 134.618 177.673 130.540 171.367 C 120.074 155.186 146.819 129.322 171.885 130.073 C 183.898 130.433 195.268 134.387 203.732 141.795 C 212.191 134.388 223.559 129.776 235.573 130.073 C 258.437 130.638 287.932 154.214 276.919 171.367 Z"/>
<path fill="#ffffff" fill-rule="evenodd" stroke="#000000" stroke-width="4" stroke-linecap="round" stroke-linejoin="round" d="M 128.739 200.918 C 128.754 200.918 280.339 200.918 280.354 200.918 C 280.353 200.921 274.175 232.509 274.175 232.512 C 274.161 232.512 134.932 232.512 134.918 232.512 C 134.918 232.509 128.740 200.921 128.739 200.918 Z"/>
<path fill="none" stroke="#ffffff" stroke-width="1" stroke-linecap="butt" stroke-linejoin="round" d="M 280.354 200.918 C 280.339 200.918 128.754 200.918 128.739 200.918 "/>
<path fill="#ffffff" fill-rule="evenodd" stroke="#000000" stroke-width="4" stroke-linecap="round" stroke-linejoin="round" d="M 302.314 159.017 C 302.312 159.022 287.674 186.951 280.354 200.918 C 280.339 200.918 128.754 200.918 128.739 200.918 C 121.419 186.951 106.781 159.022 106.779 159.017 C 106.783 159.019 134.689 166.834 145.348 172.984 C 151.125 176.317 152.240 188.437 162.646 186.951 C 174.380 185.276 171.287 171.503 176.415 166.001 C 183.589 158.303 204.544 145.053 204.546 145.051 C 204.549 145.053 225.504 158.303 232.678 166.001 C 237.806 171.503 234.713 185.276 246.447 186.951 C 256.853 188.437 257.967 176.317 263.745 172.984 C 274.404 166.834 302.310 159.019 302.314 159.017 Z"/>
<path fill="#ffffff" fill-rule="evenodd" stroke="#000000" stroke-width="4" stroke-linecap="round" stroke-linejoin="round" d="M 188.207 176.616 C 188.207 167.572 195.503 160.277 204.546 160.277 C 213.590 160.277 220.886 167.572 220.886 176.616 C 220.886 185.660 213.590 192.955 204.546 192.955 C 195.503 192.955 188.207 185.660 188.207 176.616 M 152.833 171.714 C 152.833 167.508 156.226 164.116 160.431 164.116 C 164.637 164.116 168.030 167.508 168.030 171.714 C 168.030 175.920 164.637 179.313 160.431 179.313 C 156.226 179.313 152.833 175.920 152.833 171.714 M 241.063 171.714 C 241.063 167.508 244.456 164.116 248.662 164.116 C 252.867 164.116 256.260 167.509 256.260 171.714 C 256.260 175.920 252.867 179.312 248.662 179.313 C 244.456 179.313 241.063 175.920 241.063 171.714 M 194.721 94.921 C 194.721 89.483 199.108 85.096 204.546 85.096 C 209.985 85.096 214.372 89.483 214.372 94.921 C 214.371 100.359 209.984 104.746 204.546 104.746 C 199.108 104.746 194.721 100.359 194.721 94.921 M 95.776 147.196 C 95.776 140.945 100.819 135.902 107.071 135.902 C 113.322 135.902 118.365 140.945 118.365 147.196 C 118.365 153.448 113.322 158.491 107.071 158.491 C 100.819 158.491 95.776 153.448 95.776 147.196 M 290.727 147.196 C 290.728 140.945 295.771 135.902 302.022 135.902 C 308.273 135.902 313.317 140.945 313.317 147.196 C 313.317 153.448 308.273 158.491 302.022 158.491 C 295.770 158.491 290.727 153.448 290.727 147.196 M 186.449 124.216 C 186.449 114.199 194.530 106.118 204.546 106.118 C 214.563 106.118 222.644 114.199 222.644 124.216 C 222.644 134.232 214.563 142.313 204.546 142.313 C 194.530 142.313 186.449 134.232 186.449 124.216 Z"/>
<path fill="#000000" fill-rule="evenodd" stroke="none" d="M 165.097 216.814 C 165.097 210.617 170.095 205.619 176.292 205.619 C 182.488 205.619 187.487 210.617 187.487 216.814 C 187.487 223.010 182.488 228.009 176.292 228.009 C 170.095 228.009 165.097 223.010 165.097 216.814 M 137.020 216.814 C 137.020 210.617 142.019 205.618 148.215 205.619 C 154.412 205.619 159.410 210.618 159.410 216.814 C 159.410 223.010 154.412 228.009 148.215 228.009 C 142.019 228.009 137.020 223.010 137.020 216.814 M 249.683 216.814 C 249.683 210.618 254.681 205.619 260.877 205.619 C 267.074 205.618 272.073 210.617 272.073 216.814 C 272.073 223.010 267.074 228.009 260.877 228.009 C 254.681 228.009 249.683 223.010 249.683 216.814 M 221.605 216.814 C 221.605 210.617 226.604 205.619 232.801 205.619 C 238.997 205.619 243.996 210.617 243.996 216.814 C 243.996 223.010 238.997 228.009 232.801 228.009 C 226.604 228.009 221.605 223.010 221.605 216.814 M 193.351 216.814 C 193.351 210.617 198.350 205.619 204.546 205.619 C 210.743 205.619 215.742 210.617 215.742 216.814 C 215.742 223.010 210.743 228.009 204.546 228.009 C 198.350 228.009 193.351 223.010 193.351 216.814 Z"/>
<path fill="#000000" fill-rule="evenodd" stroke="none" d="M 204.546 168.154 C 209.230 168.154 213.008 171.932 213.008 176.616 C 213.008 181.300 209.230 185.078 204.546 185.078 C 199.863 185.078 196.085 181.300 196.085 176.616 C 196.085 171.932 199.863 168.154 204.546 168.154 Z"/>
<path fill="#000000" fill-rule="evenodd" stroke="none" d="M 204.546 115.166 C 209.230 115.166 213.008 118.944 213.008 123.627 C 213.008 128.311 209.230 132.089 204.546 132.089 C 199.863 132.089 196.084 128.311 196.085 123.627 C 196.085 118.944 199.863 115.166 204.546 115.166 Z"/>
<path fill="#000000" fill-rule="evenodd" stroke="none" d="M 301.846 141.574 C 304.986 141.574 307.519 144.107 307.519 147.246 C 307.519 150.386 304.986 152.919 301.846 152.919 C 298.706 152.919 296.174 150.386 296.174 147.246 C 296.174 144.107 298.706 141.574 301.846 141.574 Z"/>
<path fill="#000000" fill-rule="evenodd" stroke="none" d="M 107.247 141.574 C 110.387 141.574 112.919 144.107 112.919 147.246 C 112.919 150.386 110.387 152.919 107.247 152.919 C 104.107 152.919 101.574 150.386 101.574 147.246 C 101.574 144.107 104.107 141.574 107.247 141.574 Z"/>
<path fill="#000000" fill-rule="evenodd" stroke="none" d="M 204.546 89.302 C 207.686 89.302 210.219 91.834 210.219 94.974 C 210.219 98.114 207.686 100.646 204.546 100.646 C 201.407 100.646 198.874 98.114 198.874 94.974 C 198.874 91.834 201.407 89.302 204.546 89.302 Z"/>
<path fill="#ffffff" fill-rule="evenodd" stroke="#000000" stroke-width="4" stroke-linecap="round" stroke-linejoin="round" d="M 164.034 447.757 C 181.816 447.757 196.160 462.101 196.160 479.883 C 196.160 497.664 181.816 512.009 164.034 512.009 C 146.252 512.009 131.908 497.664 131.908 479.883 C 131.908 462.101 146.252 447.757 164.034 447.757 Z"/>
<path fill="#000000" fill-rule="evenodd" stroke="#ffffff" stroke-width="4" stroke-linecap="round" stroke-linejoin="round" d="M 155.580 480.447 C 159.947 480.447 163.471 483.970 163.471 488.337 C 163.471 492.705 159.947 496.228 155.580 496.228 C 151.212 496.228 147.689 492.704 147.689 488.337 C 147.689 483.970 151.212 480.447 155.580 480.447 Z"/>
<path fill="#ffffff" fill-rule="evenodd" stroke="#000000" stroke-width="4" stroke-linecap="round" stroke-linejoin="round" d="M 240.686 447.757 C 222.904 447.757 208.560 462.101 208.560 479.883 C 208.560 497.664 222.904 512.009 240.686 512.009 C 258.468 512.009 272.812 497.664 272.812 479.883 C 272.812 462.101 258.468 447.757 240.686 447.757 Z"/>
<path fill="#000000" fill-rule="evenodd" stroke="#ffffff" stroke-width="4" stroke-linecap="round" stroke-linejoin="round" d="M 249.140 480.447 C 244.773 480.447 241.249 483.970 241.249 488.337 C 241.249 492.705 244.773 496.228 249.140 496.228 C 253.508 496.228 257.031 492.704 257.031 488.337 C 257.031 483.970 253.508 480.447 249.140 480.447 Z"/>
</g>
<g id="specs_2">
<path fill="#ff0000" fill-rule="evenodd" stroke="none" d="M 303.235 711.262 C 303.236 711.265 315.200 744.764 315.201 744.768 C 315.200 744.767 303.236 733.635 303.235 733.634 C 303.234 733.635 291.270 744.767 291.269 744.768 C 291.270 744.764 303.234 711.265 303.235 711.262 Z"/>
<path fill="#0000ff" fill-rule="evenodd" stroke="none" d="M 204.418 70.233 C 204.419 70.235 211.368 89.694 211.369 89.696 C 211.368 89.696 204.419 83.230 204.418 83.229 C 204.418 83.230 197.468 89.696 197.468 89.696 C 197.468 89.694 204.418 70.235 204.418 70.233 Z"/>
<path fill="#00ff00" fill-rule="evenodd" stroke="none" d="M 123.152 444.088 C 123.154 444.087 142.578 437.039 142.580 437.038 C 142.579 437.039 136.148 444.022 136.148 444.022 C 136.148 444.023 142.649 450.939 142.650 450.940 C 142.648 450.939 123.154 444.089 123.152 444.088 Z"/>
<path fill="#ffff00" fill-rule="evenodd" stroke="none" d="M 150.297 600.512 C 150.298 600.510 158.617 583.599 158.617 583.598 C 158.617 583.599 159.055 592.138 159.055 592.139 C 159.056 592.139 168.210 592.346 168.211 592.346 C 168.209 592.347 150.299 600.511 150.297 600.512 Z"/>
<path fill="#ffff00" fill-rule="evenodd" stroke="none" d="M 476.624 600.305 C 476.623 600.303 467.943 583.551 467.942 583.550 C 467.942 583.551 467.687 592.097 467.687 592.097 C 467.686 592.098 458.539 592.476 458.538 592.476 C 458.539 592.477 476.622 600.304 476.624 600.305 Z"/>
<path fill="#00ffff" fill-rule="evenodd" stroke="none" d="M 88.522 127.138 C 88.523 127.140 96.837 146.423 96.838 146.425 C 96.838 146.424 97.526 136.801 97.526 136.800 C 97.527 136.800 107.173 136.793 107.174 136.793 C 107.173 136.792 88.524 127.139 88.522 127.138 Z"/>
<path fill="#be0027" fill-rule="evenodd" stroke="none" d="M 670.952 491.440 C 670.949 491.439 637.450 479.475 637.446 479.474 C 637.447 479.475 648.579 491.439 648.580 491.440 C 648.579 491.442 637.447 503.405 637.446 503.406 C 637.450 503.405 670.949 491.442 670.952 491.440 Z"/>
<path fill="#00ffff" fill-rule="evenodd" stroke="none" d="M 320.109 127.138 C 320.108 127.140 311.793 146.423 311.793 146.425 C 311.793 146.424 311.105 136.801 311.105 136.800 C 311.104 136.800 301.457 136.793 301.456 136.793 C 301.458 136.792 320.107 127.139 320.109 127.138 Z"/>
<path fill="#00ff00" fill-rule="evenodd" stroke="none" d="M 541.425 69.293 C 541.424 69.295 532.673 88.014 532.672 88.015 C 532.672 88.015 532.282 78.530 532.282 78.529 C 532.281 78.529 522.794 78.235 522.793 78.235 C 522.795 78.234 541.423 69.294 541.425 69.293 Z"/>
</g>
</g>
</svg>
