<?xml version="1.0" encoding="utf-8"?>
<!-- Generator: Moho 13.0.3 build 635 -->
<!DOCTYPE svg PUBLIC "-//W3C//DTD SVG 1.1//EN" "http://www.w3.org/Graphics/SVG/1.1/DTD/svg11.dtd">
<svg version="1.1" id="Frame_0" xmlns="http://www.w3.org/2000/svg" xmlns:xlink="http://www.w3.org/1999/xlink" width="720px" height="720px">
<g id="harpy_4">
<g id="harpy">
<path fill="#ffffff" fill-rule="evenodd" stroke="none" d="M 302.021 149.730 C 368.577 149.730 422.269 203.422 422.269 269.979 C 422.269 336.535 368.577 390.227 302.021 390.227 C 235.464 390.227 181.772 336.535 181.772 269.979 C 181.772 203.422 235.464 149.730 302.021 149.730 Z"/>
<path fill="#ffffff" fill-rule="evenodd" stroke="#000000" stroke-width="3" stroke-linecap="round" stroke-linejoin="round" d="M 252.294 438.273 C 261.063 425.543 226.743 412.091 219.818 398.271 C 178.392 315.600 246.478 274.726 191.018 251.562 C 64.648 198.781 26.330 142.366 25.621 180.354 C 24.706 229.352 159.097 260.956 157.495 276.759 C 156.225 289.284 25.381 212.065 28.827 241.567 C 36.721 309.159 156.583 294.529 156.826 314.466 C 156.960 325.442 28.863 279.373 38.778 311.502 C 56.271 368.187 155.851 330.725 158.208 349.503 C 160.094 364.524 41.942 347.877 56.767 375.582 C 76.524 412.506 162.822 372.053 164.210 383.135 C 165.598 394.214 64.292 394.481 89.119 420.975 C 118.626 452.462 170.156 408.559 176.609 416.731 C 185.934 428.539 97.912 445.643 141.352 465.367 C 167.984 477.459 198.528 439.964 202.285 447.790 C 206.238 456.025 134.042 481.706 184.803 484.225 C 206.952 485.324 235.650 462.438 252.294 438.273 Z"/>
<path fill="#ffffff" fill-rule="evenodd" stroke="#000000" stroke-width="3" stroke-linecap="round" stroke-linejoin="round" d="M 368.518 541.037 C 368.515 541.045 346.349 621.917 341.095 622.421 C 333.159 623.182 310.937 610.767 297.749 612.691 C 256.236 618.747 259.714 641.880 259.710 641.883 C 259.714 641.882 268.047 632.771 292.441 632.152 C 299.992 631.960 374.413 635.401 380.902 635.691 C 386.948 635.961 400.362 640.998 400.364 640.998 C 400.363 640.996 396.853 623.314 390.633 620.652 C 378.158 615.313 369.738 627.902 365.864 622.421 C 360.493 614.824 389.746 541.045 389.749 541.037 C 389.747 541.037 368.520 541.037 368.518 541.037 Z"/>
<path fill="#ffffff" fill-rule="evenodd" stroke="#000000" stroke-width="3" stroke-linecap="round" stroke-linejoin="round" d="M 410.094 548.998 C 410.092 549.006 387.926 629.879 382.671 630.383 C 374.736 631.144 352.513 618.728 339.326 620.652 C 297.813 626.708 301.291 649.841 301.287 649.844 C 301.290 649.843 309.624 640.733 334.018 640.113 C 341.568 639.922 415.990 643.362 422.479 643.652 C 428.525 643.922 441.939 648.959 441.941 648.960 C 441.940 648.958 438.430 631.276 432.210 628.614 C 419.735 623.274 411.315 635.863 407.441 630.383 C 402.070 622.786 431.323 549.006 431.326 548.998 C 431.323 548.998 410.097 548.998 410.094 548.998 Z"/>
<path fill="#ffffff" fill-rule="evenodd" stroke="#000000" stroke-width="3" stroke-linecap="round" stroke-linejoin="round" d="M 536.115 533.079 C 566.568 523.807 635.154 567.213 639.439 535.810 C 642.749 511.556 545.759 512.474 545.715 502.856 C 545.646 487.768 648.604 512.837 641.874 476.094 C 636.250 445.390 545.772 481.758 543.918 464.819 C 542.722 453.889 641.045 452.324 635.592 428.662 C 628.542 398.076 558.073 437.942 519.748 443.989 C 499.160 447.237 467.863 435.349 441.173 412.658 C 393.229 371.899 349.033 310.369 296.096 310.043 C 264.209 309.847 209.873 399.348 253.635 486.966 C 310.483 600.784 462.315 555.549 536.115 533.079 Z"/>
<path fill="#ffffff" fill-rule="evenodd" stroke="#000000" stroke-width="3" stroke-linecap="round" stroke-linejoin="round" d="M 362.643 436.138 C 353.639 423.065 388.883 409.251 395.994 395.059 C 438.535 310.163 368.617 268.188 425.569 244.401 C 555.341 190.200 594.691 132.266 595.419 171.277 C 596.358 221.593 458.349 254.048 459.994 270.276 C 461.298 283.138 595.664 203.841 592.126 234.137 C 584.019 303.549 460.931 288.524 460.681 308.998 C 460.544 320.270 592.089 272.961 581.907 305.954 C 563.944 364.165 461.682 325.695 459.262 344.978 C 457.326 360.404 578.658 343.309 563.434 371.760 C 543.145 409.677 454.525 368.136 453.099 379.516 C 451.673 390.893 555.706 391.167 530.211 418.374 C 499.910 450.709 446.992 405.624 440.365 414.016 C 430.790 426.142 521.182 443.706 476.572 463.961 C 449.224 476.379 417.857 437.874 413.999 445.910 C 409.940 454.367 484.079 480.740 431.951 483.327 C 409.207 484.455 379.736 460.953 362.643 436.138 Z"/>
<path fill="#000000" fill-rule="evenodd" stroke="#ffffff" stroke-width="3" stroke-linecap="round" stroke-linejoin="round" d="M 301.486 193.472 C 301.486 193.476 301.549 233.583 301.549 233.587 C 301.545 233.591 263.493 259.068 258.469 276.634 C 255.923 285.538 264.571 297.911 263.436 307.102 C 262.428 315.268 253.538 324.169 252.741 332.359 C 252.043 339.531 258.340 348.753 257.471 355.906 C 256.680 362.414 248.907 369.208 248.283 375.734 C 247.732 381.489 253.441 388.737 252.757 394.477 C 252.121 399.805 245.215 405.112 244.714 410.455 C 244.269 415.188 248.937 425.725 248.937 425.726 C 248.936 425.725 241.400 416.014 240.735 411.001 C 240.050 405.830 245.506 399.332 244.990 394.141 C 244.403 388.248 237.054 382.284 236.318 376.408 C 235.521 370.039 241.453 361.874 240.805 355.487 C 240.066 348.199 231.728 340.478 230.802 333.212 C 229.776 325.159 235.737 314.679 235.509 306.565 C 235.114 292.516 219.486 287.016 223.719 261.227 C 239.328 166.149 301.478 193.479 301.486 193.472 C 301.664 193.430 301.601 233.583 301.601 233.587 C 301.605 233.591 340.922 258.800 346.156 276.634 C 348.764 285.521 340.054 297.911 341.189 307.102 C 342.198 315.268 351.087 324.169 351.884 332.359 C 352.582 339.531 346.285 348.754 347.154 355.906 C 347.945 362.414 355.718 369.208 356.342 375.734 C 356.893 381.489 351.184 388.737 351.868 394.477 C 352.504 399.805 359.410 405.112 359.912 410.455 C 360.356 415.188 355.688 425.725 355.688 425.726 C 355.689 425.725 363.225 416.014 363.890 411.001 C 364.575 405.830 359.119 399.332 359.636 394.141 C 360.222 388.248 367.572 382.284 368.307 376.408 C 369.105 370.039 363.172 361.874 363.820 355.487 C 364.559 348.199 372.897 340.478 373.823 333.212 C 374.850 325.159 368.888 314.679 369.116 306.565 C 369.512 292.516 386.880 289.486 380.906 261.227 C 360.103 162.824 301.672 193.433 301.664 193.426 Z"/>
<path fill="#000000" fill-rule="evenodd" stroke="#ffffff" stroke-width="3" stroke-linecap="round" stroke-linejoin="round" d="M 313.924 253.084 C 313.926 253.087 326.414 275.291 327.835 285.885 C 329.066 295.064 322.479 307.361 323.934 316.507 C 325.227 324.633 334.421 333.219 335.504 341.376 C 336.452 348.518 330.480 357.956 331.599 365.073 C 332.616 371.550 340.621 378.068 341.474 384.569 C 342.225 390.300 336.772 397.743 337.657 403.456 C 338.478 408.759 345.565 413.821 346.252 419.144 C 346.861 423.858 342.565 434.552 342.564 434.553 C 342.565 434.552 349.758 424.584 350.247 419.551 C 350.751 414.359 345.072 408.055 345.407 402.849 C 345.788 396.940 352.924 390.723 353.455 384.825 C 354.029 378.432 347.816 370.478 348.240 364.074 C 348.725 356.764 356.788 348.757 357.460 341.462 C 358.204 333.378 351.276 323.095 351.826 314.996 C 352.459 305.676 361.971 295.102 362.602 285.783 C 363.828 267.686 346.237 261.526 338.708 251.504 C 338.552 251.297 313.927 253.083 313.924 253.084 Z"/>
<path fill="#000000" fill-rule="evenodd" stroke="#ffffff" stroke-width="3" stroke-linecap="round" stroke-linejoin="round" d="M 290.701 253.084 C 290.700 253.087 278.211 275.291 276.790 285.885 C 275.559 295.064 282.146 307.361 280.691 316.507 C 279.398 324.633 270.204 333.219 269.121 341.376 C 268.173 348.518 274.145 357.956 273.026 365.073 C 272.009 371.550 264.003 378.068 263.151 384.569 C 262.400 390.300 267.853 397.743 266.969 403.456 C 266.147 408.759 259.061 413.821 258.373 419.144 C 257.764 423.858 262.060 434.552 262.061 434.553 C 262.060 434.552 254.867 424.584 254.378 419.551 C 253.874 414.359 259.553 408.055 259.218 402.849 C 258.838 396.940 251.701 390.723 251.171 384.825 C 250.596 378.432 256.809 370.478 256.385 364.074 C 255.901 356.764 247.838 348.757 247.166 341.462 C 246.421 333.378 253.349 323.095 252.799 314.996 C 252.167 305.676 240.975 295.065 242.023 285.783 C 243.429 273.326 258.389 261.526 265.917 251.504 C 266.073 251.297 290.698 253.083 290.701 253.084 Z"/>
<path fill="#000000" fill-rule="evenodd" stroke="none" d="M 250.317 282.173 C 250.319 282.171 255.084 271.512 270.017 271.512 C 284.950 271.512 289.714 282.171 289.716 282.173 C 289.714 282.174 284.950 292.834 270.017 292.834 C 255.084 292.834 250.319 282.174 250.317 282.173 M 315.188 282.173 C 315.190 282.171 319.955 271.512 334.887 271.512 C 349.820 271.512 354.585 282.171 354.587 282.173 C 354.585 282.174 349.820 292.834 334.887 292.834 C 319.954 292.834 315.190 282.174 315.188 282.173 Z"/>
<path fill="none" stroke="#ffffff" stroke-width="1" stroke-linecap="butt" stroke-linejoin="round" d="M 250.317 282.173 C 250.319 282.171 255.084 271.512 270.017 271.512 "/>
<path fill="none" stroke="#ffffff" stroke-width="1" stroke-linecap="butt" stroke-linejoin="round" d="M 270.017 271.512 C 284.950 271.512 289.714 282.171 289.716 282.173 "/>
<path fill="none" stroke="#ffffff" stroke-width="1" stroke-linecap="butt" stroke-linejoin="round" d="M 289.716 282.173 C 289.714 282.174 284.950 292.834 270.017 292.834 "/>
<path fill="none" stroke="#ffffff" stroke-width="1" stroke-linecap="butt" stroke-linejoin="round" d="M 270.017 292.834 C 255.084 292.834 250.319 282.174 250.317 282.173 "/>
<path fill="none" stroke="#ffffff" stroke-width="1" stroke-linecap="butt" stroke-linejoin="round" d="M 315.188 282.173 C 315.190 282.171 319.955 271.512 334.887 271.512 "/>
<path fill="none" stroke="#ffffff" stroke-width="1" stroke-linecap="butt" stroke-linejoin="round" d="M 334.887 271.512 C 349.820 271.512 354.585 282.171 354.587 282.173 "/>
<path fill="none" stroke="#ffffff" stroke-width="1" stroke-linecap="butt" stroke-linejoin="round" d="M 354.587 282.173 C 354.585 282.174 349.820 292.834 334.887 292.834 "/>
<path fill="none" stroke="#ffffff" stroke-width="1" stroke-linecap="butt" stroke-linejoin="round" d="M 334.887 292.834 C 319.954 292.834 315.190 282.174 315.188 282.173 "/>
<path fill="#ffffff" fill-rule="evenodd" stroke="none" d="M 263.006 281.941 C 263.006 278.060 266.136 274.930 270.017 274.930 C 273.897 274.930 277.028 278.060 277.028 281.941 C 277.028 285.821 273.897 288.952 270.017 288.952 C 266.136 288.952 263.006 285.821 263.006 281.941 M 250.317 282.173 C 250.319 282.171 255.084 271.512 270.017 271.512 C 284.950 271.512 289.714 282.171 289.716 282.173 C 289.714 282.174 284.950 292.834 270.017 292.834 C 255.084 292.834 250.319 282.174 250.317 282.173 M 327.877 281.941 C 327.877 278.060 331.007 274.930 334.887 274.930 C 338.768 274.930 341.899 278.060 341.899 281.941 C 341.899 285.821 338.768 288.952 334.887 288.952 C 331.007 288.952 327.877 285.821 327.877 281.941 M 315.188 282.173 C 315.190 282.171 319.955 271.512 334.887 271.512 C 349.820 271.512 354.585 282.171 354.587 282.173 C 354.585 282.174 349.820 292.834 334.887 292.834 C 319.954 292.834 315.190 282.174 315.188 282.173 M 241.005 283.857 C 241.598 255.375 273.056 225.437 302.313 225.437 C 331.569 225.437 361.697 246.766 363.620 283.857 C 365.724 324.433 334.318 353.311 302.313 353.311 C 270.307 353.311 240.322 316.670 241.005 283.857 Z"/>
<path fill="#000000" fill-rule="evenodd" stroke="#ffffff" stroke-width="3" stroke-linecap="round" stroke-linejoin="round" d="M 302.313 327.289 C 313.741 327.289 318.989 330.531 319.047 331.008 C 319.111 331.527 314.359 338.582 301.899 338.445 C 289.943 338.313 285.580 331.008 285.578 331.008 C 285.580 331.007 290.884 327.289 302.313 327.289 Z"/>
<path fill="none" stroke="#ffffff" stroke-width="3" stroke-linecap="round" stroke-linejoin="round" d="M 285.578 331.008 C 297.148 333.073 307.891 333.073 319.047 331.008 "/>
<path fill="none" stroke="#000000" stroke-width="3" stroke-linecap="round" stroke-linejoin="round" d="M 241.005 283.857 C 244.026 270.954 260.903 252.606 283.926 264.261 C 302.492 273.660 292.550 314.824 302.313 314.892 C 312.718 314.965 302.906 273.548 318.614 265.663 C 346.620 251.607 360.826 270.436 363.620 283.857 "/>
<path fill="#ffffff" fill-rule="evenodd" stroke="#000000" stroke-width="3" stroke-linecap="round" stroke-linejoin="round" d="M 266.563 440.391 C 282.254 440.391 294.912 453.049 294.912 468.740 C 294.912 484.431 282.254 497.089 266.563 497.089 C 250.872 497.089 238.214 484.431 238.214 468.740 C 238.214 453.049 250.872 440.391 266.563 440.391 Z"/>
<path fill="#000000" fill-rule="evenodd" stroke="#ffffff" stroke-width="3" stroke-linecap="round" stroke-linejoin="round" d="M 259.103 469.237 C 262.957 469.237 266.066 472.346 266.066 476.200 C 266.066 480.054 262.957 483.163 259.103 483.163 C 255.249 483.163 252.140 480.054 252.140 476.200 C 252.140 472.346 255.249 469.237 259.103 469.237 Z"/>
<path fill="#ffffff" fill-rule="evenodd" stroke="#000000" stroke-width="3" stroke-linecap="round" stroke-linejoin="round" d="M 334.203 440.391 C 318.512 440.391 305.854 453.049 305.854 468.740 C 305.854 484.431 318.512 497.089 334.203 497.089 C 349.894 497.089 362.552 484.431 362.552 468.740 C 362.552 453.049 349.894 440.391 334.203 440.391 Z"/>
<path fill="#000000" fill-rule="evenodd" stroke="#ffffff" stroke-width="3" stroke-linecap="round" stroke-linejoin="round" d="M 341.663 469.237 C 337.810 469.237 334.700 472.346 334.700 476.200 C 334.700 480.054 337.810 483.163 341.663 483.163 C 345.517 483.163 348.626 480.054 348.626 476.200 C 348.626 472.346 345.517 469.237 341.663 469.237 Z"/>
<path fill="none" stroke="#000000" stroke-width="3" stroke-linecap="round" stroke-linejoin="round" d="M 241.005 283.857 C 241.598 255.375 273.056 225.437 302.313 225.437 C 331.569 225.437 361.697 246.766 363.620 283.857 C 365.724 324.433 334.318 353.311 302.313 353.311 C 270.307 353.311 240.322 316.670 241.005 283.857 "/>
</g>
<g id="specs_2">
<path fill="#ff0000" fill-rule="evenodd" stroke="none" d="M 372.752 660.110 C 372.753 660.113 383.310 689.674 383.311 689.677 C 383.310 689.676 372.753 679.853 372.752 679.852 C 372.751 679.853 362.194 689.676 362.193 689.677 C 362.194 689.674 372.751 660.113 372.752 660.110 Z"/>
<path fill="#0000ff" fill-rule="evenodd" stroke="none" d="M 302.429 130.325 C 302.430 130.327 311.236 154.986 311.237 154.989 C 311.236 154.988 302.430 146.794 302.429 146.793 C 302.428 146.794 293.621 154.988 293.621 154.989 C 293.621 154.986 302.428 130.327 302.429 130.325 Z"/>
<path fill="#00ff00" fill-rule="evenodd" stroke="none" d="M 22.990 309.538 C 22.991 309.537 39.139 303.678 39.141 303.677 C 39.140 303.678 33.794 309.483 33.793 309.483 C 33.794 309.484 39.198 315.234 39.199 315.234 C 39.197 315.234 22.991 309.538 22.990 309.538 Z"/>
<path fill="#ffff00" fill-rule="evenodd" stroke="none" d="M 294.587 547.473 C 294.587 547.472 300.438 535.578 300.439 535.577 C 300.439 535.577 300.747 541.583 300.747 541.584 C 300.748 541.584 307.186 541.730 307.186 541.730 C 307.185 541.730 294.588 547.473 294.587 547.473 Z"/>
<path fill="#ffff00" fill-rule="evenodd" stroke="none" d="M 524.102 547.327 C 524.101 547.326 517.996 535.544 517.995 535.543 C 517.995 535.543 517.816 541.554 517.816 541.555 C 517.816 541.555 511.382 541.821 511.381 541.821 C 511.383 541.822 524.101 547.327 524.102 547.327 Z"/>
<path fill="#00ffff" fill-rule="evenodd" stroke="none" d="M 198.784 180.491 C 198.785 180.493 206.173 197.627 206.173 197.629 C 206.173 197.628 206.784 189.078 206.784 189.077 C 206.785 189.077 215.357 189.070 215.357 189.070 C 215.356 189.069 198.785 180.492 198.784 180.491 Z"/>
<path fill="#be0027" fill-rule="evenodd" stroke="none" d="M 666.012 478.938 C 666.009 478.937 636.448 468.380 636.445 468.379 C 636.446 468.380 646.269 478.937 646.270 478.938 C 646.269 478.939 636.446 489.497 636.445 489.498 C 636.448 489.497 666.009 478.939 666.012 478.938 Z"/>
<path fill="#00ffff" fill-rule="evenodd" stroke="none" d="M 404.564 180.491 C 404.564 180.493 397.176 197.627 397.175 197.629 C 397.175 197.628 396.564 189.078 396.564 189.077 C 396.563 189.077 387.991 189.070 387.990 189.070 C 387.992 189.069 404.563 180.492 404.564 180.491 Z"/>
<path fill="#00ff00" fill-rule="evenodd" stroke="none" d="M 599.067 309.538 C 599.065 309.537 582.917 303.678 582.916 303.677 C 582.916 303.678 588.262 309.483 588.263 309.483 C 588.262 309.484 582.858 315.234 582.857 315.234 C 582.859 315.234 599.065 309.538 599.067 309.538 Z"/>
</g>
</g>
</svg>
