<?xml version="1.0" encoding="utf-8"?>
<!-- Generator: Moho 12.5 build 22414 -->
<!DOCTYPE svg PUBLIC "-//W3C//DTD SVG 1.1//EN" "http://www.w3.org/Graphics/SVG/1.1/DTD/svg11.dtd">
<svg version="1.1" id="Frame_0" xmlns="http://www.w3.org/2000/svg" xmlns:xlink="http://www.w3.org/1999/xlink" width="720px" height="720px">
<g id="harpy_7">
<g id="harpy">
<path fill="#ffffff" fill-rule="evenodd" stroke="#000000" stroke-width="4" stroke-linecap="round" stroke-linejoin="round" d="M 302.223 532.862 C 302.219 532.872 275.015 632.128 268.566 632.746 C 258.827 633.680 231.553 618.443 215.367 620.804 C 164.418 628.237 168.687 656.628 168.682 656.632 C 168.686 656.630 178.914 645.449 208.853 644.689 C 218.120 644.454 309.458 648.676 317.422 649.032 C 324.842 649.363 341.306 655.545 341.308 655.546 C 341.307 655.543 336.999 633.842 329.365 630.575 C 314.055 624.022 303.721 639.473 298.966 632.746 C 292.374 623.422 328.276 532.872 328.280 532.862 C 328.277 532.862 302.225 532.862 302.223 532.862 Z"/>
<path fill="#ffffff" fill-rule="evenodd" stroke="#000000" stroke-width="4" stroke-linecap="round" stroke-linejoin="round" d="M 353.250 542.633 C 353.247 542.643 326.042 641.899 319.594 642.517 C 309.854 643.451 282.580 628.214 266.395 630.575 C 215.446 638.008 219.714 666.399 219.710 666.403 C 219.714 666.402 229.941 655.220 259.881 654.460 C 269.148 654.225 360.485 658.447 368.450 658.803 C 375.870 659.134 392.333 665.316 392.336 665.317 C 392.334 665.314 388.027 643.613 380.393 640.346 C 365.082 633.793 354.749 649.244 349.993 642.517 C 343.402 633.193 379.304 542.643 379.307 542.633 C 379.305 542.633 353.253 542.633 353.250 542.633 Z"/>
<path fill="#ffffff" fill-rule="evenodd" stroke="#000000" stroke-width="4" stroke-linecap="round" stroke-linejoin="round" d="M 489.379 523.096 C 526.777 511.796 610.929 564.988 616.189 526.448 C 620.252 496.680 501.214 497.807 501.160 486.003 C 501.076 467.485 627.437 498.253 619.177 453.157 C 612.275 415.474 501.231 460.109 498.955 439.320 C 497.487 425.905 618.160 423.984 611.467 394.944 C 602.815 357.405 515.738 398.845 469.291 413.754 C 434.373 424.962 380.890 414.022 325.696 374.607 C 250.384 320.824 274.022 249.567 194.801 249.361 C 155.958 249.260 106.092 380.428 143.457 464.961 C 204.534 603.137 398.875 550.441 489.379 523.096 Z"/>
<path fill="#ffffff" fill-rule="evenodd" stroke="#000000" stroke-width="4" stroke-linecap="round" stroke-linejoin="round" d="M 296.623 418.548 C 283.853 394.725 323.098 379.416 340.494 339.850 C 383.634 241.730 304.907 197.633 368.327 168.798 C 516.208 101.561 558.898 34.100 562.162 79.052 C 566.585 139.961 397.252 180.017 398.263 199.785 C 399.098 216.110 562.472 119.564 558.121 156.201 C 549.088 232.258 396.335 225.259 396.798 248.078 C 397.079 261.910 557.742 203.748 545.580 244.343 C 526.012 309.656 399.810 269.778 397.364 290.698 C 395.180 309.386 541.350 290.684 522.907 325.106 C 497.981 371.629 391.712 321.197 387.491 334.626 C 381.894 352.437 513.423 348.926 482.132 382.317 C 444.943 422.001 379.736 366.468 371.864 376.968 C 360.486 392.144 468.451 404.277 418.823 436.374 C 387.119 456.880 349.013 401.718 339.505 416.113 C 332.249 427.097 399.759 457.026 363.503 469.174 C 337.991 477.722 311.147 445.642 296.623 418.548 Z"/>
<path fill="#000000" fill-rule="evenodd" stroke="#ffffff" stroke-width="4" stroke-linecap="round" stroke-linejoin="round" d="M 201.416 106.292 C 201.416 106.297 201.493 155.521 201.493 155.526 C 201.488 155.531 154.786 186.799 148.620 208.358 C 145.495 219.286 156.110 234.471 154.717 245.751 C 153.479 255.774 142.569 266.699 141.590 276.750 C 140.733 285.551 148.462 296.871 147.396 305.649 C 146.425 313.637 136.885 321.975 136.119 329.985 C 135.442 337.047 142.450 345.942 141.610 352.987 C 140.829 359.527 132.354 366.040 131.738 372.598 C 131.193 378.406 136.921 391.338 136.922 391.340 C 136.921 391.338 127.671 379.420 126.856 373.268 C 126.015 366.921 132.711 358.946 132.077 352.575 C 131.357 345.343 122.337 338.023 121.434 330.812 C 120.456 322.995 127.736 312.973 126.941 305.135 C 126.034 296.190 115.801 286.715 114.664 277.796 C 113.405 267.913 120.721 255.051 120.441 245.092 C 119.956 227.850 100.776 221.099 105.972 189.448 C 125.129 72.758 201.406 106.301 201.416 106.292 C 201.634 106.240 201.557 155.521 201.557 155.526 C 201.562 155.531 249.816 186.471 256.240 208.358 C 259.441 219.264 248.750 234.471 250.144 245.751 C 251.381 255.774 262.291 266.699 263.270 276.750 C 264.127 285.551 256.398 296.871 257.465 305.649 C 258.435 313.637 267.975 321.975 268.742 329.985 C 269.418 337.047 262.410 345.942 263.251 352.987 C 264.031 359.527 272.507 366.040 273.122 372.598 C 273.667 378.406 267.939 391.338 267.938 391.340 C 267.939 391.338 277.189 379.420 278.004 373.268 C 278.846 366.921 272.149 358.946 272.784 352.575 C 273.503 345.343 282.523 338.023 283.426 330.812 C 284.405 322.995 277.124 312.973 277.919 305.135 C 278.826 296.190 289.059 286.715 290.196 277.796 C 291.456 267.913 284.139 255.051 284.419 245.092 C 284.904 227.850 306.221 224.131 298.889 189.448 C 273.356 68.677 201.643 106.244 201.634 106.235 Z"/>
<path fill="#000000" fill-rule="evenodd" stroke="#ffffff" stroke-width="4" stroke-linecap="round" stroke-linejoin="round" d="M 216.681 179.454 C 216.683 179.458 232.010 206.710 233.754 219.712 C 235.265 230.977 227.180 246.070 228.966 257.295 C 230.553 267.268 241.838 277.805 243.167 287.816 C 244.330 296.582 237.001 308.165 238.373 316.900 C 239.622 324.849 249.447 332.849 250.493 340.827 C 251.415 347.862 244.722 356.996 245.808 364.008 C 246.816 370.516 255.514 376.729 256.358 383.261 C 257.105 389.047 251.832 402.172 251.832 402.174 C 251.833 402.172 260.660 389.938 261.260 383.761 C 261.879 377.389 254.909 369.652 255.320 363.263 C 255.787 356.010 264.546 348.380 265.197 341.141 C 265.902 333.295 258.277 323.534 258.798 315.673 C 259.392 306.702 269.288 296.875 270.113 287.922 C 271.026 278.001 262.524 265.379 263.198 255.439 C 263.975 244.001 275.649 231.024 276.424 219.586 C 277.928 197.376 256.339 189.816 247.098 177.515 C 246.908 177.261 216.684 179.454 216.681 179.454 Z"/>
<path fill="#000000" fill-rule="evenodd" stroke="#ffffff" stroke-width="4" stroke-linecap="round" stroke-linejoin="round" d="M 188.179 179.454 C 188.177 179.458 172.850 206.710 171.106 219.712 C 169.595 230.977 177.680 246.070 175.894 257.295 C 174.307 267.268 163.023 277.805 161.694 287.816 C 160.530 296.582 167.859 308.165 166.487 316.900 C 165.238 324.849 155.413 332.849 154.367 340.827 C 153.445 347.862 160.138 356.996 159.052 364.008 C 158.044 370.516 149.346 376.729 148.502 383.261 C 147.755 389.047 153.028 402.172 153.029 402.174 C 153.028 402.172 144.199 389.938 143.599 383.761 C 142.980 377.389 149.951 369.652 149.540 363.263 C 149.073 356.010 140.314 348.380 139.663 341.141 C 138.958 333.295 146.583 323.534 146.063 315.673 C 145.468 306.702 135.572 296.875 134.748 287.922 C 133.834 278.001 142.337 265.380 141.662 255.439 C 140.886 244.001 127.150 230.978 128.436 219.586 C 130.162 204.298 148.522 189.816 157.762 177.515 C 157.952 177.261 188.176 179.454 188.179 179.454 Z"/>
<path fill="#ffffff" fill-rule="evenodd" stroke="#000000" stroke-width="4" stroke-linecap="round" stroke-linejoin="round" d="M 158.555 409.338 C 177.812 409.338 193.348 424.874 193.348 444.131 C 193.348 463.389 177.812 478.924 158.555 478.924 C 139.297 478.924 123.761 463.389 123.761 444.131 C 123.761 424.874 139.297 409.338 158.555 409.338 Z"/>
<path fill="#000000" fill-rule="evenodd" stroke="#ffffff" stroke-width="4" stroke-linecap="round" stroke-linejoin="round" d="M 149.398 444.742 C 154.128 444.742 157.944 448.557 157.944 453.287 C 157.944 458.017 154.128 461.833 149.398 461.833 C 144.669 461.833 140.853 458.017 140.853 453.287 C 140.853 448.557 144.669 444.742 149.398 444.742 Z"/>
<path fill="#ffffff" fill-rule="evenodd" stroke="#000000" stroke-width="4" stroke-linecap="round" stroke-linejoin="round" d="M 241.570 409.338 C 222.312 409.338 206.777 424.874 206.777 444.131 C 206.777 463.389 222.312 478.924 241.570 478.924 C 260.828 478.924 276.363 463.389 276.363 444.131 C 276.363 424.874 260.828 409.338 241.570 409.338 Z"/>
<path fill="#000000" fill-rule="evenodd" stroke="#ffffff" stroke-width="4" stroke-linecap="round" stroke-linejoin="round" d="M 250.726 444.742 C 245.996 444.742 242.180 448.557 242.180 453.287 C 242.180 458.017 245.996 461.833 250.726 461.833 C 255.456 461.833 259.271 458.017 259.271 453.287 C 259.271 448.557 255.456 444.742 250.726 444.742 Z"/>
<path fill="#ffffff" fill-rule="evenodd" stroke="#000000" stroke-width="4" stroke-linecap="round" stroke-linejoin="round" d="M 202.415 124.791 C 231.117 124.862 260.510 129.802 279.145 134.915 C 283.002 104.086 288.077 41.727 288.078 41.718 C 288.073 41.721 234.683 77.099 234.678 77.102 C 234.675 77.096 201.370 20.353 201.366 20.347 C 201.363 20.353 168.058 77.096 168.055 77.102 C 168.049 77.099 114.660 41.721 114.655 41.718 C 114.657 41.727 119.525 104.064 123.093 134.910 C 143.860 127.257 173.728 124.720 202.415 124.791 Z"/>
<path fill="#000000" fill-rule="evenodd" stroke="none" d="M 138.616 215.155 C 138.618 215.154 144.466 202.071 162.793 202.071 C 181.120 202.071 186.968 215.154 186.970 215.155 C 186.968 215.157 181.120 228.240 162.793 228.240 C 144.466 228.240 138.618 215.157 138.616 215.155 M 218.232 215.155 C 218.235 215.154 224.082 202.071 242.410 202.071 C 260.737 202.071 266.584 215.154 266.587 215.155 C 266.584 215.157 260.737 228.240 242.410 228.240 C 224.082 228.240 218.235 215.157 218.232 215.155 Z"/>
<path fill="none" stroke="#ffffff" stroke-width="1" stroke-linecap="butt" stroke-linejoin="round" d="M 138.616 215.155 C 138.618 215.154 144.466 202.071 162.793 202.071 "/>
<path fill="none" stroke="#ffffff" stroke-width="1" stroke-linecap="butt" stroke-linejoin="round" d="M 162.793 202.071 C 181.120 202.071 186.968 215.154 186.970 215.155 "/>
<path fill="none" stroke="#ffffff" stroke-width="1" stroke-linecap="butt" stroke-linejoin="round" d="M 186.970 215.155 C 186.968 215.157 181.120 228.240 162.793 228.240 "/>
<path fill="none" stroke="#ffffff" stroke-width="1" stroke-linecap="butt" stroke-linejoin="round" d="M 162.793 228.240 C 144.466 228.240 138.618 215.157 138.616 215.155 "/>
<path fill="none" stroke="#ffffff" stroke-width="1" stroke-linecap="butt" stroke-linejoin="round" d="M 218.232 215.155 C 218.235 215.154 224.082 202.071 242.410 202.071 "/>
<path fill="none" stroke="#ffffff" stroke-width="1" stroke-linecap="butt" stroke-linejoin="round" d="M 242.410 202.071 C 260.737 202.071 266.584 215.154 266.587 215.155 "/>
<path fill="none" stroke="#ffffff" stroke-width="1" stroke-linecap="butt" stroke-linejoin="round" d="M 266.587 215.155 C 266.584 215.157 260.737 228.240 242.410 228.240 "/>
<path fill="none" stroke="#ffffff" stroke-width="1" stroke-linecap="butt" stroke-linejoin="round" d="M 242.410 228.240 C 224.082 228.240 218.235 215.157 218.232 215.155 "/>
<path fill="#ffffff" fill-rule="evenodd" stroke="none" d="M 154.189 214.871 C 154.189 210.108 158.031 206.266 162.793 206.266 C 167.556 206.266 171.398 210.108 171.398 214.871 C 171.398 219.634 167.556 223.475 162.793 223.475 C 158.031 223.475 154.189 219.633 154.189 214.871 M 138.616 215.155 C 138.618 215.154 144.466 202.071 162.793 202.071 C 181.120 202.071 186.968 215.154 186.970 215.155 C 186.968 215.157 181.120 228.240 162.793 228.240 C 144.466 228.240 138.618 215.157 138.616 215.155 M 233.805 214.871 C 233.805 210.108 237.647 206.267 242.410 206.266 C 247.172 206.266 251.015 210.108 251.015 214.871 C 251.015 219.634 247.172 223.476 242.410 223.475 C 237.647 223.475 233.805 219.633 233.805 214.871 M 218.232 215.155 C 218.235 215.154 224.082 202.071 242.410 202.071 C 260.737 202.071 266.584 215.154 266.587 215.155 C 266.584 215.157 260.737 228.240 242.410 228.240 C 224.082 228.240 218.235 215.157 218.232 215.155 M 127.186 217.223 C 127.375 181.362 165.601 141.707 202.430 141.707 C 239.259 141.707 275.979 170.500 277.674 217.223 C 279.481 267.057 241.711 302.464 202.430 302.464 C 163.149 302.464 126.975 257.503 127.186 217.223 Z"/>
<path fill="#000000" fill-rule="evenodd" stroke="#ffffff" stroke-width="4" stroke-linecap="round" stroke-linejoin="round" d="M 202.430 270.527 C 216.456 270.527 222.897 274.506 222.968 275.091 C 223.046 275.729 217.215 284.387 201.923 284.219 C 187.249 284.057 181.894 275.092 181.892 275.091 C 181.894 275.091 188.404 270.527 202.430 270.527 Z"/>
<path fill="none" stroke="#ffffff" stroke-width="4" stroke-linecap="round" stroke-linejoin="round" d="M 181.892 275.091 C 196.091 277.627 209.276 277.627 222.968 275.091 "/>
<path fill="none" stroke="#000000" stroke-width="4" stroke-linecap="round" stroke-linejoin="round" d="M 127.186 217.223 C 130.894 201.387 151.608 178.867 179.864 193.172 C 202.650 204.708 190.448 255.228 202.430 255.312 C 215.200 255.402 203.158 204.570 222.437 194.894 C 256.809 177.642 274.244 200.751 277.674 217.223 "/>
<path fill="none" stroke="#000000" stroke-width="4" stroke-linecap="round" stroke-linejoin="round" d="M 127.186 217.223 C 127.375 181.362 165.601 141.707 202.430 141.707 C 239.259 141.707 275.979 170.500 277.674 217.223 C 279.481 267.057 241.711 302.464 202.430 302.464 C 163.149 302.464 126.975 257.503 127.186 217.223 "/>
</g>
<g id="specs_2">
<path fill="#ff0000" fill-rule="evenodd" stroke="none" d="M 311.782 679.002 C 311.783 679.006 324.740 715.286 324.741 715.290 C 324.740 715.288 311.783 703.233 311.782 703.232 C 311.781 703.233 298.824 715.288 298.823 715.290 C 298.824 715.286 311.781 679.006 311.782 679.002 Z"/>
<path fill="#0000ff" fill-rule="evenodd" stroke="none" d="M 201.281 5.748 C 201.282 5.750 208.667 26.429 208.668 26.431 C 208.667 26.430 201.282 19.559 201.281 19.558 C 201.280 19.559 193.896 26.430 193.895 26.431 C 193.896 26.429 201.280 5.750 201.281 5.748 Z"/>
<path fill="#ffff00" fill-rule="evenodd" stroke="none" d="M 192.948 540.762 C 192.949 540.760 200.130 526.163 200.130 526.161 C 200.130 526.162 200.509 533.533 200.509 533.534 C 200.509 533.534 208.411 533.712 208.411 533.713 C 208.410 533.713 192.950 540.761 192.948 540.762 Z"/>
<path fill="#ffff00" fill-rule="evenodd" stroke="none" d="M 474.634 540.582 C 474.634 540.581 467.140 526.121 467.140 526.119 C 467.140 526.120 466.920 533.497 466.920 533.498 C 466.919 533.498 459.023 533.825 459.022 533.825 C 459.024 533.826 474.633 540.582 474.634 540.582 Z"/>
<path fill="#00ffff" fill-rule="evenodd" stroke="none" d="M 117.354 128.308 C 117.355 128.309 123.408 142.346 123.408 142.347 C 123.408 142.347 123.909 135.342 123.909 135.341 C 123.909 135.341 130.932 135.336 130.932 135.336 C 130.931 135.335 117.356 128.308 117.354 128.308 Z"/>
<path fill="#be0027" fill-rule="evenodd" stroke="none" d="M 648.802 456.648 C 648.799 456.647 612.519 443.690 612.515 443.689 C 612.516 443.690 624.572 456.647 624.573 456.648 C 624.572 456.649 612.516 469.606 612.515 469.608 C 612.519 469.606 648.799 456.649 648.802 456.648 Z"/>
<path fill="#00ffff" fill-rule="evenodd" stroke="none" d="M 285.938 128.308 C 285.938 128.309 279.885 142.346 279.884 142.347 C 279.884 142.347 279.384 135.342 279.384 135.341 C 279.384 135.341 272.361 135.336 272.360 135.336 C 272.362 135.335 285.937 128.308 285.938 128.308 Z"/>
<path fill="#00ff00" fill-rule="evenodd" stroke="none" d="M 566.640 248.741 C 566.638 248.740 546.819 241.549 546.817 241.548 C 546.818 241.549 553.379 248.673 553.380 248.674 C 553.379 248.675 546.746 255.732 546.746 255.732 C 546.748 255.732 566.638 248.742 566.640 248.741 Z"/>
</g>
</g>
</svg>
