<?xml version="1.0" encoding="utf-8"?>
<!-- Generator: Moho 13.0.3 build 635 -->
<!DOCTYPE svg PUBLIC "-//W3C//DTD SVG 1.1//EN" "http://www.w3.org/Graphics/SVG/1.1/DTD/svg11.dtd">
<svg version="1.1" id="Frame_0" xmlns="http://www.w3.org/2000/svg" xmlns:xlink="http://www.w3.org/1999/xlink" width="720px" height="720px">
<g id="harpy_5">
<g id="harpy">
<path fill="#000000" fill-rule="evenodd" stroke="none" d="M 319.159 237.076 C 337.991 231.398 369.655 247.577 389.822 314.471 C 409.989 381.364 392.544 412.349 373.713 418.026 C 354.881 423.704 323.218 407.524 303.050 340.631 C 282.883 273.737 300.328 242.753 319.159 237.076 Z"/>
<path fill="#ffffff" fill-rule="evenodd" stroke="#000000" stroke-width="3" stroke-linecap="round" stroke-linejoin="round" d="M 368.518 541.037 C 368.515 541.045 346.349 621.917 341.095 622.421 C 333.159 623.182 310.937 610.767 297.749 612.691 C 256.236 618.747 259.714 641.880 259.710 641.883 C 259.714 641.882 268.047 632.771 292.441 632.152 C 299.992 631.960 374.413 635.401 380.902 635.691 C 386.948 635.961 400.362 640.998 400.364 640.998 C 400.363 640.996 396.853 623.314 390.633 620.652 C 378.158 615.313 369.738 627.902 365.864 622.421 C 360.493 614.824 389.746 541.045 389.749 541.037 C 389.747 541.037 368.520 541.037 368.518 541.037 Z"/>
<path fill="#ffffff" fill-rule="evenodd" stroke="#000000" stroke-width="3" stroke-linecap="round" stroke-linejoin="round" d="M 410.094 548.998 C 410.092 549.006 387.926 629.879 382.671 630.383 C 374.736 631.144 352.513 618.728 339.326 620.652 C 297.813 626.708 301.291 649.841 301.287 649.844 C 301.290 649.843 309.624 640.733 334.018 640.113 C 341.568 639.922 415.990 643.362 422.479 643.652 C 428.525 643.922 441.939 648.959 441.941 648.960 C 441.940 648.958 438.430 631.276 432.210 628.614 C 419.735 623.274 411.315 635.863 407.441 630.383 C 402.070 622.786 431.323 549.006 431.326 548.998 C 431.323 548.998 410.097 548.998 410.094 548.998 Z"/>
<path fill="#ffffff" fill-rule="evenodd" stroke="#000000" stroke-width="3" stroke-linecap="round" stroke-linejoin="round" d="M 536.115 533.079 C 566.540 523.717 635.154 567.213 639.439 535.810 C 642.749 511.556 545.759 512.474 545.715 502.856 C 545.646 487.768 648.604 512.837 641.874 476.094 C 636.250 445.390 545.772 481.758 543.918 464.819 C 542.722 453.889 641.045 452.324 635.592 428.662 C 628.542 398.076 557.888 436.868 519.748 443.989 C 484.082 450.647 432.214 432.798 381.490 393.317 C 335.798 357.753 327.981 303.090 327.976 303.081 C 327.976 303.071 326.106 218.639 327.011 201.597 C 311.210 200.819 238.297 200.713 238.297 200.715 C 238.293 200.723 210.328 286.625 210.325 286.634 C 210.328 286.634 240.900 287.077 240.903 287.077 C 240.903 287.078 239.697 298.163 239.697 298.164 C 239.700 298.164 264.206 297.617 264.209 297.617 C 264.206 297.618 240.061 303.730 240.059 303.731 C 240.059 303.732 240.411 314.926 240.220 317.459 C 236.185 371.017 206.846 401.198 251.129 488.453 C 300.151 585.045 461.805 555.947 536.115 533.079 Z"/>
<path fill="#ffffff" fill-rule="evenodd" stroke="#000000" stroke-width="3" stroke-linecap="round" stroke-linejoin="round" d="M 256.063 434.312 C 273.019 434.312 286.697 447.990 286.697 464.946 C 286.697 481.902 273.019 495.580 256.063 495.580 C 239.107 495.580 225.429 481.902 225.429 464.946 C 225.429 447.990 239.107 434.312 256.063 434.312 Z"/>
<path fill="#000000" fill-rule="evenodd" stroke="#ffffff" stroke-width="3" stroke-linecap="round" stroke-linejoin="round" d="M 248.002 465.484 C 252.166 465.484 255.526 468.843 255.526 473.008 C 255.526 477.172 252.166 480.532 248.002 480.532 C 243.837 480.532 240.477 477.172 240.477 473.008 C 240.477 468.843 243.837 465.484 248.002 465.484 Z"/>
<path fill="#ffffff" fill-rule="evenodd" stroke="#000000" stroke-width="3" stroke-linecap="round" stroke-linejoin="round" d="M 329.155 434.312 C 312.199 434.312 298.521 447.990 298.521 464.946 C 298.521 481.902 312.199 495.580 329.155 495.580 C 346.111 495.580 359.789 481.902 359.789 464.946 C 359.789 447.990 346.111 434.312 329.155 434.312 Z"/>
<path fill="#000000" fill-rule="evenodd" stroke="#ffffff" stroke-width="3" stroke-linecap="round" stroke-linejoin="round" d="M 337.217 465.484 C 333.052 465.484 329.692 468.843 329.692 473.008 C 329.692 477.172 333.052 480.532 337.217 480.532 C 341.381 480.532 344.741 477.172 344.741 473.008 C 344.741 468.843 341.381 465.484 337.217 465.484 Z"/>
<path fill="#000000" fill-rule="evenodd" stroke="none" d="M 449.093 375.595 C 443.477 365.337 446.170 347.816 440.553 337.558 C 434.937 327.299 418.724 320.129 413.107 309.870 C 407.491 299.611 410.184 282.091 404.567 271.832 C 398.950 261.574 382.739 254.403 377.122 244.145 C 371.505 233.886 374.198 216.365 368.582 206.107 C 362.965 195.849 352.437 181.434 341.136 178.420 C 321.760 173.251 280.879 180.533 277.998 200.379 C 276.318 211.954 299.827 217.808 305.444 228.066 C 311.061 238.325 308.367 255.845 313.984 266.104 C 319.601 276.363 335.813 283.533 341.430 293.792 C 347.046 304.050 344.353 321.571 349.970 331.829 C 355.587 342.088 371.799 349.258 377.415 359.516 C 383.032 369.775 380.339 387.296 385.955 397.554 C 391.572 407.813 407.784 414.983 413.401 425.242 C 419.017 435.500 454.710 385.854 449.093 375.595 Z"/>
<path fill="none" stroke="#ffffff" stroke-width="3" stroke-linecap="round" stroke-linejoin="round" d="M 413.401 425.242 C 419.017 435.500 454.710 385.854 449.093 375.595 C 443.477 365.337 446.170 347.816 440.553 337.558 C 434.937 327.299 418.724 320.129 413.107 309.870 C 407.491 299.611 410.184 282.091 404.567 271.832 C 398.950 261.574 382.739 254.403 377.122 244.145 C 371.505 233.886 374.198 216.365 368.582 206.107 C 362.965 195.849 352.437 181.434 341.136 178.420 C 321.760 173.251 280.879 180.533 277.998 200.379 C 276.318 211.954 299.827 217.808 305.444 228.066 C 311.061 238.325 308.367 255.845 313.984 266.104 C 319.601 276.363 335.813 283.533 341.430 293.792 C 347.046 304.050 344.353 321.571 349.970 331.829 C 355.587 342.088 371.799 349.258 377.415 359.516 C 383.032 369.775 380.339 387.296 385.955 397.554 C 391.572 407.813 407.784 414.983 413.401 425.242 M 399.183 352.359 C 404.800 362.618 402.107 380.138 407.723 390.397 M 371.738 324.672 C 377.354 334.930 393.567 342.100 399.183 352.359 M 363.197 286.635 C 368.814 296.893 366.121 314.413 371.738 324.672 M 335.752 258.946 C 341.369 269.205 357.581 276.376 363.197 286.635 M 327.212 220.909 C 332.828 231.167 330.135 248.688 335.752 258.946 M 299.767 193.222 C 299.769 193.225 321.595 210.650 327.212 220.909 "/>
<path fill="#ffffff" fill-rule="evenodd" stroke="#000000" stroke-width="3" stroke-linecap="round" stroke-linejoin="round" d="M 362.643 436.138 C 353.639 423.065 388.883 409.251 395.994 395.059 C 438.535 310.163 368.617 268.188 425.569 244.401 C 555.341 190.200 594.691 132.266 595.419 171.277 C 596.358 221.593 458.349 254.048 459.994 270.276 C 461.298 283.138 595.664 203.841 592.126 234.137 C 584.019 303.549 460.931 288.524 460.681 308.998 C 460.544 320.270 592.089 272.961 581.907 305.954 C 563.944 364.165 461.682 325.695 459.262 344.978 C 457.326 360.404 578.658 343.309 563.434 371.760 C 543.145 409.677 454.525 368.136 453.099 379.516 C 451.673 390.893 555.706 391.167 530.211 418.374 C 499.910 450.709 446.992 405.624 440.365 414.016 C 430.790 426.142 521.182 443.706 476.572 463.961 C 449.224 476.379 417.857 437.874 413.999 445.910 C 409.940 454.367 484.079 480.740 431.951 483.327 C 409.207 484.455 379.736 460.953 362.643 436.138 Z"/>
<path fill="#000000" fill-rule="evenodd" stroke="none" d="M 255.807 239.375 C 255.807 232.646 261.235 227.217 267.964 227.217 C 274.693 227.218 280.122 232.646 280.122 239.375 C 280.122 246.104 274.694 251.533 267.964 251.533 C 261.235 251.533 255.807 246.104 255.807 239.375 M 237.570 239.375 C 237.573 239.373 245.281 224.454 267.688 224.454 C 290.096 224.454 297.803 239.373 297.806 239.375 C 297.803 239.376 290.096 254.296 267.688 254.296 C 245.281 254.296 237.573 239.376 237.570 239.375 Z"/>
<path fill="none" stroke="#000000" stroke-width="3" stroke-linecap="round" stroke-linejoin="round" d="M 227.849 399.554 C 260.428 397.995 306.962 395.433 343.678 349.255 M 228.353 386.663 C 268.430 387.424 309.147 375.884 338.307 339.049 "/>
<path fill="none" stroke="#ffffff" stroke-width="3" stroke-linecap="round" stroke-linejoin="round" d="M 322.326 185.702 C 322.329 185.705 344.154 203.131 349.771 213.389 C 355.388 223.647 352.695 241.168 358.311 251.427 C 363.928 261.685 380.140 268.856 385.757 279.115 C 391.373 289.373 388.680 306.893 394.297 317.152 C 399.914 327.410 416.126 334.581 421.743 344.839 C 427.359 355.098 424.666 372.618 430.282 382.877 "/>
<path fill="#ffffff" fill-rule="evenodd" stroke="#000000" stroke-width="3" stroke-linecap="round" stroke-linejoin="round" d="M 236.793 206.413 C 280.586 206.414 324.379 206.416 368.172 206.418 C 370.678 176.889 375.691 117.839 375.692 117.830 C 375.687 117.834 330.739 151.461 330.735 151.464 C 330.732 151.459 302.693 97.522 302.690 97.517 C 302.688 97.522 274.649 151.459 274.646 151.464 C 274.641 151.461 229.694 117.834 229.689 117.830 C 229.690 117.839 234.425 176.885 236.793 206.413 Z"/>
<path fill="none" stroke="#000000" stroke-width="3" stroke-linecap="round" stroke-linejoin="round" d="M 236.953 192.952 C 280.709 192.952 324.466 192.952 368.223 192.952 "/>
</g>
<g id="specs_2">
<path fill="#ff0000" fill-rule="evenodd" stroke="none" d="M 372.752 660.110 C 372.753 660.113 383.311 689.674 383.312 689.677 C 383.311 689.676 372.753 679.853 372.752 679.852 C 372.751 679.853 362.194 689.676 362.193 689.677 C 362.194 689.674 372.751 660.113 372.752 660.110 Z"/>
<path fill="#0000ff" fill-rule="evenodd" stroke="none" d="M 302.941 83.397 C 302.941 83.399 309.912 102.917 309.912 102.919 C 309.912 102.918 302.941 96.432 302.941 96.432 C 302.940 96.432 295.970 102.918 295.969 102.919 C 295.970 102.917 302.940 83.399 302.941 83.397 Z"/>
<path fill="#ffff00" fill-rule="evenodd" stroke="none" d="M 294.587 547.473 C 294.587 547.472 300.438 535.578 300.439 535.577 C 300.439 535.577 300.747 541.583 300.747 541.584 C 300.748 541.584 307.185 541.730 307.186 541.730 C 307.185 541.730 294.588 547.473 294.587 547.473 Z"/>
<path fill="#ffff00" fill-rule="evenodd" stroke="none" d="M 524.102 547.327 C 524.101 547.326 517.996 535.544 517.995 535.543 C 517.995 535.543 517.816 541.554 517.816 541.555 C 517.816 541.555 511.382 541.821 511.381 541.821 C 511.383 541.822 524.101 547.327 524.102 547.327 Z"/>
<path fill="#00ffff" fill-rule="evenodd" stroke="none" d="M 223.188 112.063 C 223.188 112.065 228.901 125.314 228.902 125.315 C 228.902 125.314 229.374 118.703 229.374 118.702 C 229.375 118.702 236.003 118.697 236.003 118.697 C 236.002 118.697 223.189 112.064 223.188 112.063 Z"/>
<path fill="#be0027" fill-rule="evenodd" stroke="none" d="M 666.012 478.938 C 666.009 478.937 636.449 468.380 636.446 468.379 C 636.447 468.380 646.269 478.937 646.270 478.938 C 646.269 478.939 636.447 489.497 636.446 489.498 C 636.449 489.497 666.009 478.939 666.012 478.938 Z"/>
<path fill="#00ffff" fill-rule="evenodd" stroke="none" d="M 382.309 112.063 C 382.308 112.065 376.595 125.314 376.595 125.315 C 376.595 125.314 376.123 118.703 376.123 118.702 C 376.122 118.702 369.494 118.697 369.493 118.697 C 369.494 118.697 382.308 112.064 382.309 112.063 Z"/>
<path fill="#00ff00" fill-rule="evenodd" stroke="none" d="M 599.067 309.538 C 599.065 309.537 582.917 303.677 582.916 303.677 C 582.916 303.677 588.262 309.483 588.263 309.483 C 588.262 309.484 582.858 315.234 582.857 315.234 C 582.859 315.234 599.065 309.538 599.067 309.538 Z"/>
</g>
</g>
</svg>
