<?xml version="1.0" encoding="utf-8"?>
<!-- Generator: Moho 13.0.3 build 635 -->
<!DOCTYPE svg PUBLIC "-//W3C//DTD SVG 1.1//EN" "http://www.w3.org/Graphics/SVG/1.1/DTD/svg11.dtd">
<svg version="1.1" id="Frame_0" xmlns="http://www.w3.org/2000/svg" xmlns:xlink="http://www.w3.org/1999/xlink" width="720px" height="720px">
<g id="harpy_2">
<g id="harpy">
<path fill="#ffffff" fill-rule="evenodd" stroke="none" d="M 384.714 637.854 C 384.714 637.839 385.733 485.405 385.733 485.390 C 385.739 485.404 447.510 624.797 447.516 624.811 C 447.513 624.796 417.200 475.492 417.197 475.477 C 417.206 475.490 504.654 600.308 504.662 600.320 C 504.657 600.306 445.413 459.949 445.407 459.935 C 445.418 459.946 555.023 565.756 555.034 565.766 C 555.025 565.754 469.787 439.499 469.779 439.486 C 469.792 439.495 597.497 522.521 597.510 522.529 C 597.499 522.518 489.736 414.866 489.725 414.855 C 489.739 414.861 630.956 471.987 630.970 471.993 C 630.958 471.984 504.672 386.774 504.659 386.766 C 504.674 386.769 654.281 415.534 654.296 415.537 C 654.282 415.531 514.011 355.946 513.997 355.940 C 514.013 355.940 666.356 354.548 666.371 354.548 C 666.356 354.544 517.166 323.106 517.151 323.103 C 517.166 323.099 666.057 290.409 666.072 290.406 C 666.056 290.406 513.623 289.387 513.607 289.387 C 513.621 289.381 653.015 227.610 653.029 227.603 C 653.014 227.606 503.710 257.919 503.695 257.922 C 503.708 257.914 628.525 170.466 628.537 170.457 C 628.523 170.463 488.166 229.707 488.152 229.713 C 488.163 229.702 593.973 120.097 593.984 120.086 C 593.971 120.095 467.717 205.333 467.704 205.341 C 467.712 205.329 550.738 77.623 550.747 77.610 C 550.736 77.621 443.084 185.385 443.073 185.396 C 443.079 185.382 500.204 44.164 500.210 44.150 C 500.201 44.163 414.991 170.449 414.982 170.462 C 414.985 170.447 443.752 20.837 443.755 20.823 C 443.749 20.837 384.163 161.110 384.157 161.124 C 384.157 161.109 382.765 8.764 382.765 8.749 C 382.762 8.764 351.323 157.954 351.320 157.969 C 351.317 157.954 318.627 9.064 318.624 9.049 C 318.623 9.064 317.605 161.497 317.605 161.512 C 317.598 161.498 255.827 22.105 255.821 22.091 C 255.824 22.106 286.137 171.411 286.140 171.426 C 286.131 171.413 198.683 46.594 198.674 46.582 C 198.680 46.596 257.924 186.955 257.930 186.969 C 257.919 186.958 148.315 81.148 148.304 81.137 C 148.312 81.150 233.551 207.404 233.559 207.417 C 233.547 207.409 105.841 124.381 105.829 124.373 C 105.839 124.384 213.602 232.036 213.613 232.047 C 213.599 232.041 72.382 174.916 72.367 174.910 C 72.380 174.919 198.666 260.129 198.679 260.138 C 198.664 260.135 49.055 231.368 49.040 231.365 C 49.054 231.371 189.327 290.956 189.341 290.962 C 189.326 290.962 36.981 292.354 36.966 292.354 C 36.981 292.357 186.171 323.797 186.186 323.800 C 186.171 323.804 37.280 356.493 37.265 356.496 C 37.280 356.496 189.715 357.516 189.730 357.516 C 189.716 357.522 50.322 419.292 50.308 419.298 C 50.323 419.295 199.628 388.983 199.643 388.980 C 199.631 388.989 74.811 476.436 74.799 476.445 C 74.813 476.439 215.172 417.197 215.186 417.191 C 215.175 417.202 109.365 526.805 109.354 526.816 C 109.367 526.807 235.621 441.570 235.634 441.561 C 235.626 441.574 152.600 569.279 152.592 569.292 C 152.602 569.281 260.254 461.518 260.264 461.507 C 260.259 461.521 203.133 602.739 203.128 602.753 C 203.136 602.741 288.347 476.455 288.355 476.442 C 288.352 476.457 259.585 626.064 259.582 626.079 C 259.588 626.065 319.174 485.793 319.180 485.779 C 319.180 485.794 320.572 638.138 320.572 638.153 C 320.575 638.138 352.015 488.948 352.018 488.934 C 352.021 488.948 384.710 637.839 384.714 637.854 Z"/>
<path fill="#ffffff" fill-rule="evenodd" stroke="none" d="M 351.669 639.586 C 351.670 639.571 368.618 488.079 368.620 488.063 C 368.624 488.078 415.486 633.164 415.490 633.179 C 415.489 633.164 400.948 481.509 400.947 481.494 C 400.954 481.507 474.876 614.782 474.884 614.796 C 474.879 614.781 430.632 469.000 430.627 468.986 C 430.637 468.997 528.581 585.685 528.591 585.696 C 528.584 585.683 457.010 451.210 457.003 451.196 C 457.015 451.206 575.342 547.126 575.354 547.136 C 575.344 547.124 479.424 428.797 479.414 428.785 C 479.428 428.792 613.900 500.367 613.914 500.374 C 613.902 500.364 497.214 402.421 497.203 402.411 C 497.217 402.415 642.998 446.661 643.013 446.666 C 643.000 446.658 509.725 372.737 509.712 372.730 C 509.727 372.731 661.381 387.271 661.397 387.273 C 661.382 387.268 516.296 340.407 516.281 340.402 C 516.296 340.401 667.788 323.453 667.804 323.451 C 667.788 323.449 516.296 306.503 516.281 306.501 C 516.296 306.496 661.382 259.634 661.397 259.629 C 661.381 259.631 509.727 274.171 509.712 274.172 C 509.725 274.165 643.000 200.244 643.013 200.236 C 642.998 200.241 497.217 244.489 497.203 244.493 C 497.214 244.483 613.902 146.539 613.914 146.529 C 613.900 146.536 479.428 218.110 479.414 218.118 C 479.424 218.106 575.344 99.778 575.354 99.766 C 575.342 99.776 457.015 195.697 457.003 195.707 C 457.010 195.693 528.584 61.221 528.591 61.207 C 528.581 61.219 430.637 177.906 430.627 177.918 C 430.632 177.903 474.879 32.121 474.884 32.106 C 474.876 32.119 400.954 165.396 400.947 165.409 C 400.948 165.394 415.489 13.738 415.490 13.723 C 415.486 13.738 368.624 158.824 368.620 158.839 C 368.618 158.823 351.670 7.332 351.669 7.317 C 351.667 7.332 334.720 158.823 334.718 158.839 C 334.714 158.824 287.852 13.738 287.847 13.723 C 287.848 13.738 302.389 165.394 302.390 165.409 C 302.383 165.396 228.461 32.119 228.453 32.106 C 228.458 32.121 272.706 177.903 272.710 177.918 C 272.700 177.906 174.756 61.219 174.747 61.207 C 174.754 61.221 246.328 195.693 246.335 195.707 C 246.324 195.697 127.997 99.776 127.985 99.766 C 127.994 99.778 223.914 218.105 223.924 218.117 C 223.910 218.110 89.438 146.536 89.424 146.529 C 89.436 146.539 206.124 244.483 206.135 244.493 C 206.121 244.489 60.338 200.241 60.323 200.236 C 60.337 200.244 193.613 274.165 193.626 274.172 C 193.611 274.171 41.955 259.631 41.940 259.629 C 41.955 259.634 187.042 306.496 187.056 306.501 C 187.041 306.503 35.548 323.449 35.533 323.451 C 35.548 323.453 187.041 340.401 187.056 340.402 C 187.042 340.407 41.955 387.268 41.940 387.273 C 41.955 387.271 193.611 372.731 193.626 372.730 C 193.613 372.737 60.337 446.658 60.323 446.666 C 60.338 446.661 206.121 402.415 206.135 402.411 C 206.124 402.421 89.436 500.363 89.424 500.373 C 89.438 500.366 223.910 428.792 223.924 428.785 C 223.914 428.797 127.994 547.124 127.985 547.136 C 127.997 547.126 246.323 451.206 246.334 451.196 C 246.327 451.210 174.754 585.683 174.747 585.696 C 174.756 585.685 272.700 468.997 272.710 468.986 C 272.706 469.000 228.458 614.781 228.453 614.796 C 228.461 614.782 302.383 481.507 302.390 481.494 C 302.389 481.509 287.848 633.164 287.847 633.179 C 287.852 633.164 334.714 488.078 334.718 488.063 C 334.720 488.079 351.667 639.571 351.669 639.586 Z"/>
<path fill="#000000" fill-rule="evenodd" stroke="#ffffff" stroke-width="4" stroke-linecap="round" stroke-linejoin="round" d="M 417.740 392.622 C 413.524 380.709 431.631 366.587 436.787 355.049 C 468.908 283.173 431.580 248.776 481.053 235.704 C 598.204 204.749 636.089 156.535 633.705 190.068 C 630.582 234.006 507.243 250.130 507.084 264.406 C 506.960 275.482 629.334 222.816 623.335 248.252 C 609.418 307.262 505.573 283.033 502.996 300.609 C 501.595 310.162 618.653 287.125 606.021 313.870 C 583.702 361.126 502.144 317.975 497.454 333.975 C 493.655 346.934 599.710 350.708 582.441 372.785 C 559.765 401.774 491.064 356.016 488.070 365.365 C 484.977 375.024 575.341 392.420 548.685 411.844 C 517.934 434.251 480.054 389.822 473.126 395.847 C 462.357 405.215 542.256 438.934 497.764 447.233 C 473.548 451.750 426.202 416.529 417.740 392.622 Z"/>
<path fill="#000000" fill-rule="evenodd" stroke="#ffffff" stroke-width="4" stroke-linecap="round" stroke-linejoin="round" d="M 288.609 396.610 C 292.826 384.696 274.718 370.574 269.562 359.037 C 237.441 287.161 274.769 252.764 225.297 239.692 C 108.146 208.737 70.261 160.523 72.644 194.056 C 75.768 237.994 199.106 254.118 199.266 268.394 C 199.390 279.470 77.015 226.804 83.014 252.240 C 96.931 311.251 200.776 287.020 203.354 304.596 C 204.755 314.150 87.697 291.113 100.328 317.858 C 122.647 365.114 204.205 321.963 208.895 337.962 C 212.694 350.921 106.639 354.696 123.908 376.773 C 146.584 405.762 215.286 360.004 218.279 369.353 C 221.372 379.012 131.009 396.408 157.665 415.832 C 188.415 438.239 226.296 393.810 233.223 399.835 C 243.992 409.203 164.093 442.922 208.585 451.221 C 232.801 455.738 280.147 420.516 288.609 396.610 Z"/>
<path fill="#000000" fill-rule="evenodd" stroke="#ffffff" stroke-width="4" stroke-linecap="round" stroke-linejoin="round" d="M 350.241 646.414 C 355.156 646.414 359.983 646.414 364.504 646.414 C 366.332 642.518 407.798 554.127 407.800 554.124 C 407.798 554.124 393.927 554.124 393.926 554.124 C 393.924 554.127 352.086 642.518 350.241 646.414 Z"/>
<path fill="#000000" fill-rule="evenodd" stroke="#ffffff" stroke-width="4" stroke-linecap="round" stroke-linejoin="round" d="M 324.092 656.801 C 325.470 653.992 327.267 650.345 329.141 646.414 C 309.891 646.414 283.553 646.414 283.552 646.414 C 283.551 646.415 276.015 656.801 276.014 656.802 C 276.015 656.801 296.809 656.801 324.092 656.801 Z"/>
<path fill="none" stroke="#ffffff" stroke-width="1" stroke-linecap="butt" stroke-linejoin="round" d="M 324.092 656.801 C 325.470 653.992 327.267 650.345 329.141 646.414 "/>
<path fill="none" stroke="#ffffff" stroke-width="1" stroke-linecap="butt" stroke-linejoin="round" d="M 350.241 646.414 C 355.156 646.414 359.983 646.414 364.504 646.414 "/>
<path fill="#ffffff" fill-rule="evenodd" stroke="#000000" stroke-width="4" stroke-linecap="round" stroke-linejoin="round" d="M 364.504 646.414 C 374.519 646.414 383.610 646.414 391.069 646.414 C 392.914 642.518 434.753 554.127 434.755 554.124 C 434.756 554.124 448.628 554.124 448.629 554.124 C 448.627 554.127 407.183 642.518 405.356 646.414 C 420.541 646.414 443.028 646.414 443.032 646.414 C 443.031 646.415 436.466 656.801 436.465 656.802 C 436.458 656.802 370.741 656.801 324.092 656.801 C 325.470 653.992 327.267 650.345 329.141 646.414 C 339.738 646.414 348.125 646.414 350.241 646.414 C 355.156 646.414 359.983 646.414 364.504 646.414 Z"/>
<path fill="#000000" fill-rule="evenodd" stroke="#ffffff" stroke-width="4" stroke-linecap="round" stroke-linejoin="round" d="M 314.670 159.096 C 314.665 159.091 267.458 111.993 267.453 111.988 C 267.453 111.998 268.619 179.111 270.437 212.395 C 313.681 212.352 384.113 212.335 423.958 212.401 C 426.072 179.126 427.429 111.998 427.429 111.988 C 427.425 111.993 380.217 159.091 380.212 159.096 C 380.209 159.091 347.444 111.993 347.441 111.988 C 347.438 111.993 314.673 159.091 314.670 159.096 Z"/>
<path fill="none" stroke="#ffffff" stroke-width="1" stroke-linecap="butt" stroke-linejoin="round" d="M 270.437 212.395 C 313.681 212.352 384.113 212.335 423.958 212.401 "/>
<path fill="#ffffff" fill-rule="evenodd" stroke="none" d="M 270.437 212.395 C 313.681 212.352 384.113 212.335 423.958 212.401 C 423.677 216.815 422.851 225.439 422.851 225.440 C 422.851 225.447 425.458 289.409 425.685 291.718 C 413.913 324.976 378.594 363.560 346.269 363.125 C 314.824 362.701 286.394 329.141 270.550 291.988 C 270.551 291.982 271.388 225.441 271.388 225.434 C 271.388 225.433 270.678 216.808 270.437 212.395 M 399.687 258.846 C 399.687 265.512 394.310 270.889 387.644 270.889 C 380.978 270.889 375.601 265.512 375.601 258.846 C 375.601 252.180 380.978 246.803 387.644 246.803 C 394.310 246.803 399.687 252.180 399.687 258.846 M 417.319 258.846 C 417.316 258.848 409.981 276.910 387.642 276.910 C 365.303 276.911 357.967 258.848 357.964 258.846 C 357.967 258.844 365.303 240.781 387.642 240.781 C 409.981 240.781 417.316 258.844 417.319 258.846 M 319.678 258.846 C 319.678 265.512 314.300 270.889 307.635 270.889 C 300.969 270.889 295.592 265.512 295.592 258.846 C 295.592 252.180 300.969 246.803 307.635 246.803 C 314.300 246.803 319.678 252.180 319.678 258.846 M 337.310 258.846 C 337.307 258.848 329.972 276.911 307.632 276.910 C 285.294 276.910 277.958 258.848 277.955 258.846 C 277.958 258.844 285.293 240.781 307.632 240.781 C 329.972 240.781 337.307 258.844 337.310 258.846 Z"/>
<path fill="#000000" fill-rule="evenodd" stroke="#ffffff" stroke-width="4" stroke-linecap="round" stroke-linejoin="round" d="M 346.556 312.432 C 365.763 312.432 375.922 314.220 376.233 315.833 C 376.360 316.491 368.624 333.074 346.556 333.074 C 324.488 333.074 316.882 315.835 316.879 315.833 C 316.882 315.833 327.349 312.432 346.556 312.432 Z"/>
<path fill="none" stroke="#ffffff" stroke-width="4" stroke-linecap="round" stroke-linejoin="round" d="M 316.879 315.833 C 325.931 318.531 338.214 322.753 346.556 322.753 C 354.897 322.753 365.506 319.939 376.233 315.833 "/>
<path fill="none" stroke="#000000" stroke-width="4" stroke-linecap="round" stroke-linejoin="round" d="M 346.665 225.438 C 346.492 249.065 346.320 272.693 346.147 296.321 M 271.388 225.434 C 296.480 225.435 346.657 225.438 346.665 225.438 C 346.672 225.438 397.456 225.439 422.851 225.440 "/>
<path fill="none" stroke="#000000" stroke-width="1" stroke-linecap="butt" stroke-linejoin="round" d="M 346.269 363.125 C 378.594 363.560 413.913 324.976 425.685 291.718 "/>
<path fill="none" stroke="#000000" stroke-width="1" stroke-linecap="butt" stroke-linejoin="round" d="M 270.550 291.988 C 286.394 329.141 314.824 362.701 346.269 363.125 "/>
<path fill="#000000" fill-rule="evenodd" stroke="#ffffff" stroke-width="4" stroke-linecap="round" stroke-linejoin="round" d="M 346.269 363.125 C 378.594 363.560 413.913 324.976 425.685 291.718 C 426.012 295.031 420.301 358.318 440.638 385.770 C 506.896 475.205 649.537 395.712 655.540 439.318 C 661.188 480.347 554.720 451.087 553.894 467.836 C 552.906 487.890 665.688 452.927 660.226 499.250 C 656.465 531.147 555.698 495.319 553.895 511.711 C 551.869 530.117 663.977 511.193 653.652 548.927 C 641.481 593.403 554.087 532.690 516.663 554.342 C 471.526 580.456 330.311 589.979 287.291 533.962 C 238.599 470.559 270.549 292.015 270.550 291.988 C 286.394 329.141 314.824 362.701 346.269 363.125 Z"/>
<path fill="none" stroke="#000000" stroke-width="1" stroke-linecap="butt" stroke-linejoin="round" d="M 375.601 258.846 C 375.601 252.180 380.978 246.803 387.644 246.803 "/>
<path fill="none" stroke="#000000" stroke-width="1" stroke-linecap="butt" stroke-linejoin="round" d="M 387.644 246.803 C 394.310 246.803 399.687 252.180 399.687 258.846 "/>
<path fill="none" stroke="#000000" stroke-width="1" stroke-linecap="butt" stroke-linejoin="round" d="M 399.687 258.846 C 399.687 265.512 394.310 270.889 387.644 270.889 "/>
<path fill="none" stroke="#000000" stroke-width="1" stroke-linecap="butt" stroke-linejoin="round" d="M 387.644 270.889 C 380.978 270.889 375.601 265.512 375.601 258.846 "/>
<path fill="none" stroke="#000000" stroke-width="1" stroke-linecap="butt" stroke-linejoin="round" d="M 357.964 258.846 C 357.967 258.844 365.303 240.781 387.642 240.781 "/>
<path fill="none" stroke="#000000" stroke-width="1" stroke-linecap="butt" stroke-linejoin="round" d="M 387.642 240.781 C 409.981 240.781 417.316 258.844 417.319 258.846 "/>
<path fill="none" stroke="#000000" stroke-width="1" stroke-linecap="butt" stroke-linejoin="round" d="M 417.319 258.846 C 417.316 258.848 409.981 276.910 387.642 276.910 "/>
<path fill="none" stroke="#000000" stroke-width="1" stroke-linecap="butt" stroke-linejoin="round" d="M 387.642 276.910 C 365.303 276.911 357.967 258.848 357.964 258.846 "/>
<path fill="none" stroke="#000000" stroke-width="1" stroke-linecap="butt" stroke-linejoin="round" d="M 295.592 258.846 C 295.592 252.180 300.969 246.803 307.635 246.803 "/>
<path fill="none" stroke="#000000" stroke-width="1" stroke-linecap="butt" stroke-linejoin="round" d="M 307.635 246.803 C 314.300 246.803 319.678 252.180 319.678 258.846 "/>
<path fill="none" stroke="#000000" stroke-width="1" stroke-linecap="butt" stroke-linejoin="round" d="M 319.678 258.846 C 319.678 265.512 314.300 270.889 307.635 270.889 "/>
<path fill="none" stroke="#000000" stroke-width="1" stroke-linecap="butt" stroke-linejoin="round" d="M 307.635 270.889 C 300.969 270.889 295.592 265.512 295.592 258.846 "/>
<path fill="none" stroke="#000000" stroke-width="1" stroke-linecap="butt" stroke-linejoin="round" d="M 277.955 258.846 C 277.958 258.844 285.293 240.781 307.632 240.781 "/>
<path fill="none" stroke="#000000" stroke-width="1" stroke-linecap="butt" stroke-linejoin="round" d="M 307.632 240.781 C 329.972 240.781 337.307 258.844 337.310 258.846 "/>
<path fill="none" stroke="#000000" stroke-width="1" stroke-linecap="butt" stroke-linejoin="round" d="M 337.310 258.846 C 337.307 258.848 329.972 276.911 307.632 276.910 "/>
<path fill="none" stroke="#000000" stroke-width="1" stroke-linecap="butt" stroke-linejoin="round" d="M 307.632 276.910 C 285.294 276.910 277.958 258.848 277.955 258.846 "/>
<path fill="#000000" fill-rule="evenodd" stroke="none" d="M 375.601 258.846 C 375.601 252.180 380.978 246.803 387.644 246.803 C 394.310 246.803 399.687 252.180 399.687 258.846 C 399.687 265.512 394.310 270.889 387.644 270.889 C 380.978 270.889 375.601 265.512 375.601 258.846 M 357.964 258.846 C 357.967 258.844 365.303 240.781 387.642 240.781 C 409.981 240.781 417.316 258.844 417.319 258.846 C 417.316 258.848 409.981 276.910 387.642 276.910 C 365.303 276.911 357.967 258.848 357.964 258.846 M 295.592 258.846 C 295.592 252.180 300.969 246.803 307.635 246.803 C 314.300 246.803 319.678 252.180 319.678 258.846 C 319.678 265.512 314.300 270.889 307.635 270.889 C 300.969 270.889 295.592 265.512 295.592 258.846 M 277.955 258.846 C 277.958 258.844 285.293 240.781 307.632 240.781 C 329.972 240.781 337.307 258.844 337.310 258.846 C 337.307 258.848 329.972 276.911 307.632 276.910 C 285.294 276.910 277.958 258.848 277.955 258.846 Z"/>
<path fill="#ffffff" fill-rule="evenodd" stroke="#000000" stroke-width="4" stroke-linecap="round" stroke-linejoin="round" d="M 465.897 462.659 C 465.897 433.869 442.672 410.644 413.882 410.644 C 385.092 410.644 361.867 433.869 361.867 462.659 C 361.867 491.449 385.092 514.674 413.882 514.674 C 442.672 514.674 465.897 491.449 465.897 462.659 M 243.576 462.659 C 243.576 433.869 266.801 410.644 295.591 410.644 C 324.381 410.644 347.606 433.869 347.606 462.659 C 347.606 491.449 324.381 514.674 295.591 514.674 C 266.801 514.674 243.576 491.449 243.576 462.659 Z"/>
<path fill="#000000" fill-rule="evenodd" stroke="#ffffff" stroke-width="4" stroke-linecap="round" stroke-linejoin="round" d="M 438.521 477.260 C 438.521 471.199 433.631 466.309 427.570 466.309 C 421.509 466.309 416.619 471.199 416.619 477.260 C 416.619 483.321 421.509 488.211 427.570 488.211 C 433.631 488.211 438.521 483.321 438.521 477.260 M 270.952 477.260 C 270.952 471.199 275.842 466.309 281.903 466.309 C 287.964 466.309 292.854 471.198 292.854 477.260 C 292.854 483.321 287.964 488.211 281.903 488.211 C 275.841 488.211 270.952 483.321 270.952 477.260 Z"/>
<path fill="none" stroke="#000000" stroke-width="4" stroke-linecap="round" stroke-linejoin="round" d="M 270.437 212.395 C 313.681 212.352 384.113 212.335 423.958 212.401 C 423.677 216.815 422.851 225.439 422.851 225.440 C 422.851 225.447 425.458 289.409 425.685 291.718 C 413.913 324.976 378.594 363.560 346.269 363.125 C 314.824 362.701 286.394 329.141 270.550 291.988 C 270.551 291.982 271.388 225.441 271.388 225.434 C 271.388 225.433 270.678 216.808 270.437 212.395 "/>
</g>
<g id="specs_2">
<path fill="#ff0000" fill-rule="evenodd" stroke="none" d="M 378.485 671.536 C 378.486 671.539 389.475 702.309 389.476 702.312 C 389.475 702.311 378.486 692.087 378.485 692.086 C 378.484 692.087 367.495 702.311 367.494 702.312 C 367.495 702.309 378.484 671.539 378.485 671.536 Z"/>
<path fill="#0000ff" fill-rule="evenodd" stroke="none" d="M 347.275 86.147 C 347.276 86.149 352.561 100.949 352.562 100.950 C 352.561 100.950 347.276 96.032 347.275 96.032 C 347.275 96.032 341.989 100.950 341.989 100.950 C 341.989 100.949 347.275 86.149 347.275 86.147 Z"/>
<path fill="#00ff00" fill-rule="evenodd" stroke="none" d="M 87.427 316.872 C 87.429 316.871 105.270 310.397 105.271 310.397 C 105.271 310.397 99.364 316.811 99.363 316.812 C 99.364 316.812 105.335 323.165 105.336 323.166 C 105.334 323.165 87.429 316.873 87.427 316.872 Z"/>
<path fill="#ffff00" fill-rule="evenodd" stroke="none" d="M 296.983 566.331 C 296.984 566.330 302.918 554.266 302.919 554.264 C 302.919 554.265 303.231 560.357 303.231 560.358 C 303.232 560.358 309.762 560.505 309.762 560.505 C 309.761 560.506 296.984 566.330 296.983 566.331 Z"/>
<path fill="#ffff00" fill-rule="evenodd" stroke="none" d="M 529.780 566.183 C 529.779 566.182 523.587 554.231 523.586 554.230 C 523.586 554.231 523.405 560.327 523.405 560.328 C 523.404 560.328 516.878 560.598 516.878 560.598 C 516.879 560.599 529.779 566.182 529.780 566.183 Z"/>
<path fill="#00ffff" fill-rule="evenodd" stroke="none" d="M 259.128 107.185 C 259.129 107.187 265.453 121.853 265.453 121.854 C 265.454 121.853 265.976 114.535 265.976 114.534 C 265.977 114.534 273.314 114.528 273.314 114.528 C 273.313 114.528 259.130 107.186 259.128 107.185 Z"/>
<path fill="#be0027" fill-rule="evenodd" stroke="none" d="M 679.367 495.575 C 679.364 495.574 648.594 484.585 648.591 484.584 C 648.592 484.585 658.817 495.574 658.818 495.575 C 658.817 495.576 648.592 506.565 648.591 506.566 C 648.594 506.565 679.364 495.576 679.367 495.575 Z"/>
<path fill="#00ffff" fill-rule="evenodd" stroke="none" d="M 435.266 107.185 C 435.265 107.187 428.942 121.853 428.941 121.854 C 428.941 121.853 428.418 114.535 428.418 114.534 C 428.417 114.534 421.080 114.528 421.080 114.528 C 421.081 114.528 435.265 107.186 435.266 107.185 Z"/>
<path fill="#00ff00" fill-rule="evenodd" stroke="none" d="M 617.490 316.872 C 617.488 316.871 599.647 310.397 599.646 310.397 C 599.646 310.397 605.553 316.811 605.554 316.812 C 605.553 316.812 599.582 323.165 599.581 323.166 C 599.583 323.165 617.488 316.873 617.490 316.872 Z"/>
</g>
</g>
</svg>
