<?xml version="1.0" encoding="utf-8"?>
<!-- Generator: Moho 13.0.3 build 635 -->
<!DOCTYPE svg PUBLIC "-//W3C//DTD SVG 1.1//EN" "http://www.w3.org/Graphics/SVG/1.1/DTD/svg11.dtd">
<svg version="1.1" id="Frame_0" xmlns="http://www.w3.org/2000/svg" xmlns:xlink="http://www.w3.org/1999/xlink" width="720px" height="720px">
<g id="harpy_6">
<g id="harpy">
<path fill="#ffffff" fill-rule="evenodd" stroke="#000000" stroke-width="4" stroke-linecap="round" stroke-linejoin="round" d="M 302.223 532.862 C 302.220 532.872 275.015 632.128 268.566 632.746 C 258.827 633.680 231.553 618.443 215.367 620.804 C 164.418 628.237 168.687 656.628 168.682 656.632 C 168.686 656.630 178.914 645.449 208.853 644.689 C 218.120 644.454 309.458 648.676 317.423 649.032 C 324.843 649.363 341.306 655.545 341.308 655.546 C 341.307 655.543 337.000 633.842 329.365 630.575 C 314.055 624.022 303.721 639.473 298.966 632.746 C 292.374 623.422 328.277 532.872 328.280 532.862 C 328.277 532.862 302.225 532.862 302.223 532.862 Z"/>
<path fill="#ffffff" fill-rule="evenodd" stroke="#000000" stroke-width="4" stroke-linecap="round" stroke-linejoin="round" d="M 353.250 542.633 C 353.247 542.643 326.042 641.899 319.594 642.517 C 309.854 643.451 282.581 628.214 266.395 630.575 C 215.446 638.008 219.715 666.399 219.710 666.403 C 219.714 666.402 229.941 655.220 259.881 654.460 C 269.148 654.225 360.486 658.447 368.450 658.803 C 375.870 659.134 392.333 665.316 392.336 665.317 C 392.335 665.314 388.027 643.613 380.393 640.346 C 365.082 633.793 354.749 649.244 349.993 642.517 C 343.402 633.193 379.304 542.643 379.308 542.633 C 379.305 542.633 353.253 542.633 353.250 542.633 Z"/>
<path fill="#ffffff" fill-rule="evenodd" stroke="#000000" stroke-width="4" stroke-linecap="round" stroke-linejoin="round" d="M 489.379 523.096 C 526.778 511.796 610.929 564.988 616.189 526.448 C 620.252 496.680 501.214 497.807 501.160 486.003 C 501.076 467.485 627.437 498.253 619.177 453.157 C 612.275 415.474 501.231 460.109 498.955 439.319 C 497.487 425.905 618.161 423.983 611.467 394.944 C 602.815 357.405 515.738 398.845 469.292 413.754 C 434.373 424.962 380.890 414.022 325.697 374.607 C 250.384 320.824 274.022 249.567 194.801 249.361 C 155.958 249.260 106.092 380.428 143.457 464.961 C 204.534 603.137 398.875 550.441 489.379 523.096 Z"/>
<path fill="#ffffff" fill-rule="evenodd" stroke="#000000" stroke-width="4" stroke-linecap="round" stroke-linejoin="round" d="M 296.623 418.548 C 283.853 394.724 323.098 379.416 340.494 339.850 C 383.635 241.730 304.907 197.633 368.327 168.798 C 516.208 101.561 558.898 34.100 562.162 79.052 C 566.585 139.961 397.252 180.017 398.263 199.785 C 399.099 216.110 562.473 119.564 558.121 156.200 C 549.088 232.258 396.335 225.259 396.798 248.078 C 397.079 261.910 557.742 203.748 545.580 244.343 C 526.012 309.656 399.810 269.778 397.365 290.698 C 395.180 309.386 541.350 290.684 522.907 325.106 C 497.981 371.629 391.712 321.197 387.492 334.626 C 381.894 352.437 513.423 348.925 482.132 382.317 C 444.943 422.001 379.736 366.468 371.864 376.968 C 360.487 392.144 468.451 404.277 418.823 436.374 C 387.120 456.879 349.013 401.718 339.505 416.113 C 332.249 427.096 399.759 457.026 363.503 469.174 C 337.992 477.722 311.147 445.642 296.623 418.548 Z"/>
<path fill="#000000" fill-rule="evenodd" stroke="#ffffff" stroke-width="4" stroke-linecap="round" stroke-linejoin="round" d="M 201.416 106.292 C 201.416 106.297 201.494 155.521 201.494 155.526 C 201.488 155.531 154.786 186.799 148.620 208.358 C 145.495 219.286 156.110 234.471 154.717 245.751 C 153.479 255.774 142.569 266.699 141.591 276.750 C 140.734 285.551 148.462 296.871 147.396 305.649 C 146.425 313.637 136.885 321.975 136.119 329.985 C 135.443 337.047 142.450 345.942 141.610 352.987 C 140.830 359.527 132.354 366.040 131.738 372.598 C 131.193 378.406 136.921 391.338 136.922 391.340 C 136.921 391.338 127.671 379.420 126.856 373.268 C 126.015 366.921 132.711 358.946 132.077 352.575 C 131.357 345.343 122.337 338.023 121.434 330.811 C 120.456 322.994 127.736 312.973 126.942 305.135 C 126.034 296.190 115.801 286.715 114.664 277.796 C 113.405 267.913 120.721 255.051 120.441 245.092 C 119.956 227.850 100.776 221.099 105.972 189.448 C 125.129 72.758 201.406 106.300 201.416 106.292 C 201.634 106.240 201.557 155.521 201.557 155.526 C 201.562 155.531 249.816 186.470 256.240 208.358 C 259.441 219.264 248.751 234.471 250.144 245.751 C 251.382 255.774 262.291 266.699 263.270 276.750 C 264.127 285.551 256.398 296.871 257.465 305.649 C 258.435 313.637 267.975 321.975 268.742 329.985 C 269.418 337.047 262.410 345.942 263.251 352.987 C 264.031 359.527 272.507 366.040 273.122 372.598 C 273.667 378.406 267.939 391.338 267.938 391.340 C 267.939 391.338 277.189 379.420 278.005 373.268 C 278.846 366.921 272.150 358.946 272.784 352.575 C 273.503 345.343 282.524 338.023 283.426 330.811 C 284.405 322.994 277.124 312.973 277.919 305.135 C 278.826 296.190 289.059 286.715 290.196 277.796 C 291.456 267.913 284.139 255.051 284.419 245.092 C 284.904 227.850 306.221 224.131 298.889 189.448 C 273.357 68.677 201.643 106.244 201.634 106.235 Z"/>
<path fill="#000000" fill-rule="evenodd" stroke="#ffffff" stroke-width="4" stroke-linecap="round" stroke-linejoin="round" d="M 216.681 179.454 C 216.683 179.458 232.010 206.709 233.754 219.711 C 235.265 230.977 227.180 246.070 228.966 257.295 C 230.553 267.268 241.838 277.805 243.167 287.816 C 244.330 296.582 237.001 308.164 238.373 316.900 C 239.622 324.849 249.447 332.849 250.493 340.827 C 251.415 347.862 244.723 356.996 245.808 364.007 C 246.816 370.516 255.514 376.729 256.358 383.261 C 257.106 389.047 251.832 402.172 251.832 402.174 C 251.833 402.172 260.661 389.938 261.261 383.761 C 261.880 377.389 254.909 369.652 255.321 363.263 C 255.788 356.010 264.547 348.380 265.197 341.141 C 265.903 333.295 258.277 323.534 258.798 315.673 C 259.392 306.702 269.288 296.874 270.113 287.921 C 271.027 278.000 262.524 265.379 263.198 255.439 C 263.975 244.001 275.650 231.024 276.424 219.586 C 277.929 197.376 256.339 189.816 247.099 177.515 C 246.908 177.261 216.684 179.454 216.681 179.454 Z"/>
<path fill="#000000" fill-rule="evenodd" stroke="#ffffff" stroke-width="4" stroke-linecap="round" stroke-linejoin="round" d="M 188.179 179.454 C 188.177 179.458 172.850 206.709 171.106 219.711 C 169.595 230.977 177.680 246.070 175.894 257.295 C 174.307 267.268 163.023 277.805 161.694 287.816 C 160.530 296.582 167.859 308.164 166.487 316.900 C 165.238 324.849 155.413 332.849 154.367 340.827 C 153.445 347.862 160.138 356.996 159.052 364.007 C 158.044 370.516 149.347 376.729 148.503 383.261 C 147.755 389.047 153.028 402.172 153.029 402.174 C 153.028 402.172 144.199 389.938 143.599 383.761 C 142.980 377.388 149.951 369.652 149.540 363.263 C 149.073 356.010 140.314 348.380 139.663 341.141 C 138.958 333.295 146.583 323.534 146.063 315.673 C 145.468 306.702 135.572 296.874 134.748 287.921 C 133.834 278.000 142.337 265.379 141.662 255.439 C 140.886 244.001 127.150 230.978 128.436 219.586 C 130.162 204.298 148.522 189.816 157.762 177.515 C 157.953 177.261 188.176 179.454 188.179 179.454 Z"/>
<path fill="#ffffff" fill-rule="evenodd" stroke="#000000" stroke-width="4" stroke-linecap="round" stroke-linejoin="round" d="M 158.555 409.338 C 177.812 409.338 193.348 424.873 193.348 444.131 C 193.348 463.389 177.812 478.924 158.555 478.924 C 139.297 478.924 123.762 463.389 123.762 444.131 C 123.762 424.873 139.297 409.338 158.555 409.338 Z"/>
<path fill="#000000" fill-rule="evenodd" stroke="#ffffff" stroke-width="4" stroke-linecap="round" stroke-linejoin="round" d="M 149.399 444.742 C 154.129 444.742 157.944 448.557 157.944 453.287 C 157.944 458.017 154.129 461.833 149.399 461.833 C 144.669 461.833 140.853 458.017 140.853 453.287 C 140.853 448.557 144.669 444.742 149.399 444.742 Z"/>
<path fill="#ffffff" fill-rule="evenodd" stroke="#000000" stroke-width="4" stroke-linecap="round" stroke-linejoin="round" d="M 241.570 409.338 C 222.312 409.338 206.777 424.873 206.777 444.131 C 206.777 463.389 222.312 478.924 241.570 478.924 C 260.828 478.924 276.363 463.389 276.363 444.131 C 276.363 424.873 260.828 409.338 241.570 409.338 Z"/>
<path fill="#000000" fill-rule="evenodd" stroke="#ffffff" stroke-width="4" stroke-linecap="round" stroke-linejoin="round" d="M 250.726 444.742 C 245.996 444.742 242.180 448.557 242.180 453.287 C 242.180 458.017 245.996 461.833 250.726 461.833 C 255.456 461.833 259.272 458.017 259.272 453.287 C 259.272 448.557 255.456 444.742 250.726 444.742 Z"/>
<path fill="#ffffff" fill-rule="evenodd" stroke="#000000" stroke-width="4" stroke-linecap="round" stroke-linejoin="round" d="M 202.415 124.791 C 231.117 124.862 260.510 129.802 279.145 134.915 C 283.002 104.086 288.077 41.727 288.078 41.717 C 288.073 41.721 234.684 77.098 234.678 77.102 C 234.675 77.096 201.370 20.353 201.367 20.347 C 201.363 20.353 168.058 77.096 168.055 77.102 C 168.050 77.098 114.660 41.721 114.655 41.717 C 114.657 41.727 119.525 104.064 123.093 134.910 C 143.860 127.256 173.728 124.720 202.415 124.791 Z"/>
<path fill="#ffffff" fill-rule="evenodd" stroke="#000000" stroke-width="4" stroke-linecap="round" stroke-linejoin="round" d="M 202.265 142.605 C 244.942 142.605 279.370 177.033 279.370 219.711 C 279.370 262.388 244.942 296.816 202.265 296.816 C 159.587 296.816 125.159 262.388 125.159 219.711 C 125.159 177.033 159.587 142.605 202.265 142.605 Z"/>
<path fill="#000000" fill-rule="evenodd" stroke="none" d="M 178.852 213.331 C 178.852 201.054 188.756 191.149 201.034 191.149 C 213.312 191.148 223.218 201.053 223.218 213.331 C 223.218 225.610 213.312 235.514 201.034 235.514 C 188.756 235.513 178.852 225.609 178.852 213.331 M 138.704 214.064 C 138.710 214.061 153.786 180.333 201.034 180.333 C 248.281 180.333 263.357 214.061 263.363 214.064 C 263.357 214.068 248.282 247.796 201.034 247.796 C 153.785 247.796 138.710 214.068 138.704 214.064 Z"/>
</g>
<g id="specs_2">
<path fill="#ff0000" fill-rule="evenodd" stroke="none" d="M 311.782 679.002 C 311.783 679.006 324.740 715.286 324.741 715.290 C 324.740 715.288 311.783 703.233 311.782 703.232 C 311.781 703.233 298.824 715.288 298.823 715.290 C 298.824 715.286 311.781 679.006 311.782 679.002 Z"/>
<path fill="#0000ff" fill-rule="evenodd" stroke="none" d="M 201.281 5.748 C 201.282 5.750 208.667 26.428 208.668 26.431 C 208.667 26.430 201.282 19.559 201.281 19.558 C 201.281 19.559 193.896 26.430 193.895 26.431 C 193.896 26.428 201.281 5.750 201.281 5.748 Z"/>
<path fill="#ffff00" fill-rule="evenodd" stroke="none" d="M 192.948 540.762 C 192.949 540.760 200.130 526.162 200.130 526.161 C 200.131 526.162 200.509 533.533 200.509 533.534 C 200.510 533.534 208.411 533.712 208.412 533.712 C 208.410 533.713 192.950 540.761 192.948 540.762 Z"/>
<path fill="#ffff00" fill-rule="evenodd" stroke="none" d="M 474.635 540.582 C 474.634 540.581 467.141 526.121 467.140 526.119 C 467.140 526.120 466.920 533.497 466.920 533.498 C 466.920 533.498 459.023 533.825 459.023 533.825 C 459.024 533.825 474.633 540.582 474.635 540.582 Z"/>
<path fill="#00ffff" fill-rule="evenodd" stroke="none" d="M 117.354 128.308 C 117.355 128.309 123.408 142.346 123.408 142.347 C 123.408 142.347 123.909 135.342 123.909 135.341 C 123.910 135.341 130.932 135.336 130.932 135.336 C 130.931 135.335 117.356 128.308 117.354 128.308 Z"/>
<path fill="#be0027" fill-rule="evenodd" stroke="none" d="M 648.803 456.648 C 648.799 456.647 612.519 443.690 612.515 443.689 C 612.516 443.690 624.572 456.647 624.573 456.648 C 624.572 456.649 612.516 469.606 612.515 469.607 C 612.519 469.606 648.799 456.649 648.803 456.648 Z"/>
<path fill="#00ffff" fill-rule="evenodd" stroke="none" d="M 285.938 128.308 C 285.938 128.309 279.885 142.346 279.885 142.347 C 279.885 142.347 279.384 135.342 279.384 135.341 C 279.384 135.341 272.361 135.336 272.361 135.336 C 272.362 135.335 285.937 128.308 285.938 128.308 Z"/>
<path fill="#00ff00" fill-rule="evenodd" stroke="none" d="M 566.640 248.741 C 566.638 248.740 546.819 241.548 546.817 241.548 C 546.818 241.548 553.380 248.673 553.380 248.674 C 553.380 248.675 546.747 255.732 546.746 255.732 C 546.748 255.732 566.638 248.741 566.640 248.741 Z"/>
</g>
</g>
</svg>
