<?xml version="1.0" encoding="utf-8"?>
<!-- Generator: Moho 13.0.3 build 635 -->
<!DOCTYPE svg PUBLIC "-//W3C//DTD SVG 1.1//EN" "http://www.w3.org/Graphics/SVG/1.1/DTD/svg11.dtd">
<svg version="1.1" id="Frame_0" xmlns="http://www.w3.org/2000/svg" xmlns:xlink="http://www.w3.org/1999/xlink" width="720px" height="720px">
<g id="harpy">
<g id="harpy">
<path fill="#ffffff" fill-rule="evenodd" stroke="none" d="M 341.645 621.334 C 341.645 621.319 342.598 478.808 342.598 478.794 C 342.604 478.807 400.354 609.127 400.359 609.140 C 400.357 609.126 372.017 469.540 372.014 469.526 C 372.022 469.538 453.778 586.232 453.786 586.243 C 453.780 586.230 398.394 455.009 398.388 454.996 C 398.398 455.006 500.868 553.929 500.878 553.939 C 500.870 553.927 421.181 435.890 421.173 435.879 C 421.185 435.886 540.578 513.508 540.589 513.516 C 540.579 513.506 439.831 412.861 439.821 412.851 C 439.834 412.856 571.859 466.264 571.872 466.269 C 571.860 466.261 453.795 386.598 453.783 386.590 C 453.797 386.593 593.666 413.485 593.680 413.488 C 593.667 413.482 462.526 357.776 462.513 357.770 C 462.528 357.770 604.954 356.469 604.968 356.469 C 604.954 356.466 465.476 327.074 465.462 327.071 C 465.476 327.068 604.675 296.505 604.689 296.502 C 604.674 296.502 462.163 295.550 462.149 295.550 C 462.162 295.544 592.482 237.794 592.495 237.788 C 592.481 237.791 452.896 266.130 452.882 266.133 C 452.893 266.125 569.586 184.370 569.598 184.362 C 569.584 184.367 438.364 239.755 438.350 239.760 C 438.360 239.750 537.283 137.280 537.293 137.269 C 537.281 137.277 419.245 216.967 419.233 216.975 C 419.241 216.963 496.863 97.570 496.870 97.558 C 496.860 97.568 396.215 198.318 396.205 198.328 C 396.211 198.315 449.618 66.289 449.623 66.276 C 449.615 66.288 369.952 184.354 369.944 184.365 C 369.946 184.352 396.840 44.481 396.843 44.467 C 396.837 44.480 341.130 175.622 341.125 175.636 C 341.124 175.621 339.823 33.193 339.823 33.179 C 339.820 33.193 310.428 172.672 310.425 172.686 C 310.422 172.672 279.860 33.474 279.857 33.460 C 279.857 33.474 278.904 175.984 278.904 175.999 C 278.899 175.986 221.148 45.666 221.143 45.653 C 221.146 45.667 249.485 185.253 249.488 185.267 C 249.480 185.256 167.724 68.561 167.715 68.549 C 167.721 68.562 223.109 199.785 223.114 199.798 C 223.104 199.788 120.634 100.865 120.624 100.855 C 120.632 100.867 200.322 218.903 200.330 218.915 C 200.318 218.907 80.925 141.285 80.914 141.277 C 80.924 141.287 181.672 241.932 181.682 241.942 C 181.669 241.937 49.644 188.530 49.631 188.525 C 49.642 188.533 167.708 268.196 167.720 268.204 C 167.706 268.202 27.835 241.307 27.821 241.305 C 27.834 241.310 158.977 297.017 158.990 297.022 C 158.976 297.022 16.547 298.324 16.533 298.324 C 16.547 298.327 156.026 327.720 156.040 327.723 C 156.026 327.726 16.827 358.287 16.813 358.291 C 16.827 358.291 159.339 359.244 159.353 359.244 C 159.340 359.250 29.020 416.999 29.007 417.005 C 29.021 417.002 168.607 388.662 168.621 388.660 C 168.610 388.668 51.915 470.423 51.903 470.431 C 51.916 470.426 183.139 415.040 183.153 415.034 C 183.143 415.044 84.219 517.513 84.210 517.524 C 84.221 517.516 202.258 437.826 202.270 437.818 C 202.262 437.830 124.640 557.223 124.632 557.234 C 124.642 557.224 225.287 456.476 225.297 456.466 C 225.291 456.479 171.884 588.505 171.879 588.518 C 171.887 588.506 251.551 470.440 251.559 470.428 C 251.556 470.442 224.661 610.312 224.658 610.326 C 224.664 610.312 280.372 479.171 280.377 479.158 C 280.377 479.172 281.678 621.599 281.678 621.613 C 281.681 621.599 311.075 482.121 311.078 482.107 C 311.081 482.121 341.642 621.320 341.645 621.334 Z"/>
<path fill="#ffffff" fill-rule="evenodd" stroke="none" d="M 310.751 622.953 C 310.753 622.939 326.597 481.308 326.599 481.294 C 326.603 481.307 370.414 616.949 370.418 616.963 C 370.417 616.949 356.823 475.166 356.822 475.152 C 356.829 475.164 425.939 599.764 425.946 599.777 C 425.942 599.763 387.332 461.633 387.328 461.619 C 387.337 461.630 476.148 572.560 476.157 572.571 C 476.150 572.559 409.235 446.839 409.229 446.826 C 409.240 446.835 519.865 536.512 519.876 536.521 C 519.867 536.510 430.190 425.885 430.181 425.874 C 430.194 425.881 555.913 492.796 555.926 492.803 C 555.915 492.793 446.823 401.226 446.812 401.216 C 446.826 401.221 583.117 442.587 583.131 442.591 C 583.118 442.584 458.520 373.474 458.507 373.468 C 458.521 373.469 600.304 387.062 600.318 387.064 C 600.304 387.059 464.662 343.249 464.648 343.244 C 464.663 343.243 606.294 327.398 606.308 327.396 C 606.294 327.395 464.663 311.551 464.648 311.549 C 464.662 311.545 600.304 267.733 600.318 267.729 C 600.304 267.730 458.521 281.324 458.507 281.325 C 458.520 281.319 583.118 212.209 583.131 212.202 C 583.117 212.206 446.826 253.574 446.812 253.578 C 446.823 253.569 555.915 162.000 555.926 161.991 C 555.913 161.998 430.194 228.913 430.181 228.919 C 430.190 228.908 519.867 118.283 519.876 118.272 C 519.865 118.281 409.240 207.958 409.229 207.967 C 409.235 207.955 476.150 82.235 476.157 82.223 C 476.148 82.234 384.579 191.326 384.570 191.336 C 384.574 191.323 425.942 55.030 425.946 55.016 C 425.939 55.028 356.829 179.630 356.822 179.642 C 356.823 179.628 370.417 37.844 370.418 37.830 C 370.414 37.843 326.603 173.486 326.599 173.499 C 326.597 173.485 310.753 31.855 310.751 31.841 C 310.749 31.855 294.906 173.485 294.904 173.499 C 294.900 173.486 251.088 37.843 251.084 37.830 C 251.085 37.844 264.679 179.628 264.680 179.642 C 264.673 179.630 195.563 55.028 195.556 55.016 C 195.560 55.030 236.928 191.323 236.932 191.336 C 236.923 191.326 145.354 82.234 145.345 82.223 C 145.352 82.235 212.268 207.955 212.274 207.967 C 212.263 207.958 101.639 118.281 101.627 118.272 C 101.636 118.283 191.313 228.908 191.322 228.919 C 191.309 228.912 65.590 161.998 65.577 161.991 C 65.588 162.000 174.680 253.569 174.691 253.578 C 174.677 253.574 38.384 212.206 38.370 212.202 C 38.383 212.209 162.984 281.319 162.996 281.325 C 162.982 281.324 21.198 267.730 21.184 267.729 C 21.197 267.733 156.840 311.545 156.854 311.549 C 156.840 311.551 15.208 327.395 15.194 327.396 C 15.208 327.398 156.840 343.243 156.854 343.244 C 156.840 343.249 21.197 387.059 21.184 387.064 C 21.198 387.062 162.982 373.469 162.996 373.468 C 162.984 373.474 38.383 442.584 38.370 442.591 C 38.384 442.587 174.677 401.221 174.691 401.216 C 174.680 401.226 65.588 492.793 65.577 492.802 C 65.590 492.795 191.309 425.881 191.322 425.874 C 191.313 425.885 101.636 536.510 101.627 536.521 C 101.639 536.512 212.262 446.835 212.273 446.826 C 212.267 446.839 145.352 572.559 145.345 572.571 C 145.354 572.560 236.923 463.469 236.932 463.458 C 236.928 463.471 195.560 599.763 195.556 599.777 C 195.563 599.764 264.673 475.164 264.680 475.152 C 264.679 475.166 251.085 616.949 251.084 616.963 C 251.088 616.949 294.900 481.307 294.904 481.294 C 294.906 481.308 310.749 622.939 310.751 622.953 Z"/>
<path fill="#000000" fill-rule="evenodd" stroke="#ffffff" stroke-width="3" stroke-linecap="round" stroke-linejoin="round" d="M 259.422 439.522 C 268.396 426.493 233.270 412.725 226.182 398.580 C 183.784 313.967 253.469 272.133 196.706 248.425 C 67.368 194.405 28.150 136.664 27.424 175.545 C 26.488 225.694 164.036 258.040 162.396 274.214 C 161.096 287.033 27.179 208.001 30.706 238.195 C 38.785 307.376 161.462 292.401 161.711 312.806 C 161.848 324.040 30.742 276.890 40.890 309.773 C 58.794 367.789 160.714 329.448 163.126 348.666 C 165.055 364.041 44.129 347.002 59.302 375.358 C 79.523 413.149 167.847 371.747 169.269 383.089 C 170.689 394.428 67.004 394.701 92.414 421.817 C 122.614 454.044 175.355 409.110 181.959 417.474 C 191.503 429.560 101.413 447.065 145.873 467.252 C 173.131 479.628 204.393 441.252 208.237 449.262 C 212.283 457.690 138.392 483.975 190.346 486.553 C 213.014 487.678 242.387 464.255 259.422 439.522 Z"/>
<path fill="#000000" fill-rule="evenodd" stroke="#ffffff" stroke-width="3" stroke-linecap="round" stroke-linejoin="round" d="M 387.548 544.699 C 387.546 544.708 364.859 627.480 359.481 627.995 C 351.359 628.774 328.615 616.067 315.117 618.036 C 272.629 624.235 276.189 647.911 276.185 647.914 C 276.189 647.913 284.718 638.589 309.685 637.955 C 317.413 637.759 393.582 641.279 400.224 641.576 C 406.412 641.853 420.141 647.008 420.143 647.009 C 420.142 647.007 416.550 628.909 410.183 626.185 C 397.415 620.720 388.798 633.605 384.832 627.995 C 379.336 620.220 409.275 544.708 409.278 544.699 C 409.276 544.699 387.551 544.699 387.548 544.699 Z"/>
<path fill="#ffffff" fill-rule="evenodd" stroke="#000000" stroke-width="3" stroke-linecap="round" stroke-linejoin="round" d="M 430.102 552.848 C 430.099 552.856 407.412 635.628 402.035 636.144 C 393.913 636.922 371.168 624.216 357.671 626.185 C 315.183 632.383 318.743 656.059 318.739 656.062 C 318.742 656.061 327.271 646.737 352.238 646.103 C 359.966 645.907 436.135 649.428 442.777 649.725 C 448.965 650.001 462.694 655.156 462.696 655.157 C 462.695 655.155 459.103 637.058 452.737 634.333 C 439.969 628.869 431.351 641.753 427.386 636.144 C 421.889 628.368 451.829 552.856 451.832 552.848 C 451.829 552.848 430.104 552.848 430.102 552.848 Z"/>
<path fill="#000000" fill-rule="evenodd" stroke="#ffffff" stroke-width="3" stroke-linecap="round" stroke-linejoin="round" d="M 384.444 461.726 C 468.076 534.212 563.911 502.088 593.481 505.622 C 593.166 515.461 692.795 514.526 689.407 539.350 C 685.020 571.490 616.230 535.932 583.656 536.555 C 533.358 537.516 333.933 614.358 260.794 489.358 C 210.171 402.841 271.616 308.079 304.253 308.280 C 315.295 305.152 337.058 326.135 337.061 326.137 C 337.066 326.150 331.575 415.905 384.444 461.726 Z"/>
<path fill="none" stroke="#ffffff" stroke-width="1" stroke-linecap="butt" stroke-linejoin="round" d="M 384.444 461.726 C 468.076 534.212 563.911 502.088 593.481 505.622 "/>
<path fill="none" stroke="#ffffff" stroke-width="1" stroke-linecap="butt" stroke-linejoin="round" d="M 304.253 308.280 C 315.295 305.152 337.058 326.135 337.061 326.137 "/>
<path fill="none" stroke="#ffffff" stroke-width="1" stroke-linecap="butt" stroke-linejoin="round" d="M 337.061 326.137 C 337.066 326.150 331.575 415.905 384.444 461.726 "/>
<path fill="#ffffff" fill-rule="evenodd" stroke="#000000" stroke-width="3" stroke-linecap="round" stroke-linejoin="round" d="M 384.444 461.726 C 468.076 534.212 563.911 502.088 593.481 505.622 C 593.958 490.725 693.941 520.506 689.649 483.855 C 685.985 452.571 593.096 474.826 591.642 466.692 C 589.661 455.614 691.051 453.902 685.469 429.685 C 678.254 398.381 605.679 436.804 566.905 445.372 C 538.373 451.676 491.745 443.141 452.737 413.305 C 401.579 374.177 358.433 308.613 304.253 308.280 C 315.295 305.152 337.058 326.135 337.061 326.137 C 337.066 326.150 331.575 415.905 384.444 461.726 Z"/>
<path fill="#000000" fill-rule="evenodd" stroke="#ffffff" stroke-width="3" stroke-linecap="round" stroke-linejoin="round" d="M 372.363 437.337 C 363.147 423.957 399.218 409.818 406.497 395.293 C 450.036 308.402 378.476 265.442 436.767 241.096 C 569.586 185.622 609.860 126.327 610.605 166.254 C 611.566 217.753 470.316 250.970 472.000 267.579 C 473.335 280.743 610.857 199.584 607.235 230.591 C 598.938 301.633 472.959 286.256 472.703 307.210 C 472.563 318.747 607.197 270.327 596.777 304.095 C 578.391 363.673 473.728 324.299 471.251 344.036 C 469.269 359.824 593.451 342.327 577.869 371.446 C 557.104 410.254 466.402 367.737 464.943 379.385 C 463.484 391.029 569.960 391.309 543.866 419.155 C 512.853 452.249 458.693 406.106 451.910 414.695 C 442.110 427.106 534.625 445.082 488.968 465.813 C 460.976 478.522 428.873 439.114 424.925 447.339 C 420.770 455.994 496.651 482.986 443.298 485.634 C 420.020 486.789 389.856 462.735 372.363 437.337 Z"/>
<path fill="#000000" fill-rule="evenodd" stroke="#ffffff" stroke-width="3" stroke-linecap="round" stroke-linejoin="round" d="M 253.392 239.307 C 253.544 239.090 278.796 240.039 278.798 240.039 C 278.797 240.042 266.816 263.200 265.741 274.087 C 264.810 283.519 271.987 295.863 270.825 305.270 C 269.793 313.628 260.695 322.738 259.879 331.120 C 259.164 338.460 265.610 347.900 264.720 355.220 C 263.910 361.881 255.955 368.835 255.316 375.514 C 254.752 381.404 260.596 388.822 259.895 394.697 C 259.244 400.151 252.176 405.582 251.663 411.050 C 251.208 415.894 255.985 426.679 255.986 426.680 C 255.985 426.679 248.271 416.740 247.591 411.610 C 246.890 406.317 252.474 399.666 251.945 394.353 C 251.345 388.322 243.823 382.218 243.070 376.204 C 242.254 369.685 248.326 361.328 247.663 354.792 C 246.906 347.332 238.372 339.430 237.424 331.993 C 236.374 323.751 243.093 312.985 242.242 304.720 C 241.262 295.210 229.435 284.756 230.176 275.225 C 231.169 262.433 246.049 249.828 253.392 239.307 M 367.837 239.307 C 367.686 239.090 342.434 240.039 342.431 240.039 C 342.433 240.042 354.413 263.200 355.488 274.087 C 356.420 283.519 349.243 295.863 350.404 305.270 C 351.437 313.628 360.534 322.738 361.351 331.120 C 362.065 338.460 355.620 347.900 356.510 355.220 C 357.319 361.881 365.274 368.835 365.914 375.514 C 366.478 381.404 360.634 388.822 361.335 394.697 C 361.985 400.151 369.053 405.582 369.567 411.050 C 370.021 415.894 365.244 426.679 365.244 426.680 C 365.245 426.679 372.958 416.740 373.638 411.610 C 374.340 406.317 368.756 399.666 369.284 394.353 C 369.885 388.322 377.407 382.218 378.160 376.204 C 378.976 369.685 372.904 361.328 373.567 354.792 C 374.323 347.332 382.857 339.430 383.805 331.993 C 384.856 323.751 378.136 312.985 378.988 304.720 C 379.968 295.210 391.794 284.756 391.054 275.225 C 390.061 262.433 375.181 249.828 367.837 239.307 Z"/>
<path fill="#000000" fill-rule="evenodd" stroke="#ffffff" stroke-width="3" stroke-linecap="round" stroke-linejoin="round" d="M 322.499 249.983 C 322.501 249.986 335.282 272.712 336.737 283.554 C 337.997 292.949 331.254 305.535 332.744 314.896 C 334.067 323.213 343.478 332.000 344.586 340.349 C 345.556 347.659 339.444 357.318 340.589 364.603 C 341.630 371.232 349.823 377.903 350.696 384.556 C 351.465 390.422 345.884 398.040 346.789 403.887 C 347.629 409.315 354.883 414.496 355.587 419.943 C 356.210 424.768 351.812 435.713 351.812 435.715 C 351.813 435.713 359.175 425.511 359.675 420.360 C 360.191 415.046 354.378 408.594 354.721 403.266 C 355.111 397.218 362.415 390.855 362.958 384.818 C 363.546 378.275 357.187 370.135 357.621 363.580 C 358.117 356.098 366.369 347.903 367.057 340.437 C 367.819 332.163 360.728 321.638 361.291 313.349 C 361.939 303.810 371.674 292.988 372.320 283.450 C 373.575 264.928 355.570 258.624 347.865 248.366 C 347.706 248.154 322.502 249.982 322.499 249.983 Z"/>
<path fill="#000000" fill-rule="evenodd" stroke="#ffffff" stroke-width="3" stroke-linecap="round" stroke-linejoin="round" d="M 298.730 249.983 C 298.729 249.986 285.947 272.712 284.493 283.554 C 283.233 292.949 289.975 305.535 288.486 314.896 C 287.162 323.213 277.752 332.000 276.643 340.349 C 275.673 347.659 281.785 357.318 280.640 364.603 C 279.599 371.232 271.406 377.903 270.534 384.556 C 269.764 390.422 275.346 398.040 274.441 403.887 C 273.600 409.315 266.347 414.496 265.643 419.943 C 265.020 424.768 269.417 435.713 269.417 435.715 C 269.417 435.713 262.055 425.511 261.554 420.360 C 261.038 415.046 266.851 408.594 266.508 403.266 C 266.119 397.218 258.814 390.855 258.272 384.818 C 257.683 378.275 264.043 370.135 263.608 363.580 C 263.113 356.098 254.860 347.903 254.172 340.437 C 253.410 332.163 260.501 321.638 259.939 313.349 C 259.291 303.810 247.836 292.950 248.909 283.450 C 250.348 270.701 265.659 258.624 273.365 248.366 C 273.524 248.154 298.728 249.982 298.730 249.983 Z"/>
<path fill="#000000" fill-rule="evenodd" stroke="none" d="M 257.398 279.755 C 257.400 279.754 262.277 268.844 277.561 268.844 C 292.844 268.844 297.720 279.754 297.722 279.755 C 297.720 279.756 292.844 290.666 277.561 290.666 C 262.277 290.666 257.400 279.756 257.398 279.755 M 323.792 279.755 C 323.795 279.754 328.671 268.844 343.955 268.844 C 359.238 268.844 364.115 279.754 364.117 279.755 C 364.115 279.756 359.238 290.666 343.955 290.666 C 328.671 290.666 323.795 279.756 323.792 279.755 Z"/>
<path fill="none" stroke="#ffffff" stroke-width="1" stroke-linecap="butt" stroke-linejoin="round" d="M 257.398 279.755 C 257.400 279.754 262.277 268.844 277.561 268.844 "/>
<path fill="none" stroke="#ffffff" stroke-width="1" stroke-linecap="butt" stroke-linejoin="round" d="M 277.561 268.844 C 292.844 268.844 297.720 279.754 297.722 279.755 "/>
<path fill="none" stroke="#ffffff" stroke-width="1" stroke-linecap="butt" stroke-linejoin="round" d="M 297.722 279.755 C 297.720 279.756 292.844 290.666 277.561 290.666 "/>
<path fill="none" stroke="#ffffff" stroke-width="1" stroke-linecap="butt" stroke-linejoin="round" d="M 277.561 290.666 C 262.277 290.666 257.400 279.756 257.398 279.755 "/>
<path fill="none" stroke="#ffffff" stroke-width="1" stroke-linecap="butt" stroke-linejoin="round" d="M 323.792 279.755 C 323.795 279.754 328.671 268.844 343.955 268.844 "/>
<path fill="none" stroke="#ffffff" stroke-width="1" stroke-linecap="butt" stroke-linejoin="round" d="M 343.955 268.844 C 359.238 268.844 364.115 279.754 364.117 279.755 "/>
<path fill="none" stroke="#ffffff" stroke-width="1" stroke-linecap="butt" stroke-linejoin="round" d="M 364.117 279.755 C 364.115 279.756 359.238 290.666 343.955 290.666 "/>
<path fill="none" stroke="#ffffff" stroke-width="1" stroke-linecap="butt" stroke-linejoin="round" d="M 343.955 290.666 C 328.671 290.666 323.795 279.756 323.792 279.755 "/>
<path fill="#ffffff" fill-rule="evenodd" stroke="#000000" stroke-width="3" stroke-linecap="round" stroke-linejoin="round" d="M 270.385 279.518 C 270.385 275.546 273.589 272.342 277.561 272.342 C 281.532 272.342 284.736 275.546 284.736 279.518 C 284.736 283.489 281.532 286.693 277.561 286.693 C 273.589 286.693 270.385 283.489 270.385 279.518 M 257.398 279.755 C 257.400 279.754 262.277 268.844 277.561 268.844 C 292.844 268.844 297.720 279.754 297.722 279.755 C 297.720 279.756 292.844 290.666 277.561 290.666 C 262.277 290.666 257.400 279.756 257.398 279.755 M 336.779 279.518 C 336.779 275.546 339.983 272.342 343.955 272.342 C 347.926 272.342 351.131 275.546 351.131 279.518 C 351.131 283.489 347.926 286.693 343.955 286.693 C 339.983 286.693 336.779 283.489 336.779 279.518 M 323.792 279.755 C 323.795 279.754 328.671 268.844 343.955 268.844 C 359.238 268.844 364.115 279.754 364.117 279.755 C 364.115 279.756 359.238 290.666 343.955 290.666 C 328.671 290.666 323.795 279.756 323.792 279.755 M 247.867 281.479 C 246.879 249.597 277.858 210.394 310.615 210.394 C 343.372 210.394 373.362 239.894 373.363 281.479 C 373.363 323.064 343.372 352.564 310.615 352.564 C 277.857 352.564 248.908 315.054 247.867 281.479 Z"/>
<path fill="#000000" fill-rule="evenodd" stroke="#ffffff" stroke-width="3" stroke-linecap="round" stroke-linejoin="round" d="M 310.615 325.931 C 322.312 325.931 327.682 329.249 327.742 329.737 C 327.807 330.269 322.944 337.489 310.192 337.349 C 297.954 337.214 293.489 329.738 293.487 329.737 C 293.489 329.736 298.918 325.931 310.615 325.931 Z"/>
<path fill="none" stroke="#ffffff" stroke-width="3" stroke-linecap="round" stroke-linejoin="round" d="M 293.487 329.737 C 305.328 331.851 316.324 331.851 327.742 329.737 "/>
<path fill="none" stroke="#000000" stroke-width="3" stroke-linecap="round" stroke-linejoin="round" d="M 247.867 281.479 C 250.959 268.273 268.233 249.493 291.796 261.422 C 310.798 271.042 300.623 313.173 310.615 313.243 C 321.264 313.318 311.222 270.927 327.299 262.858 C 355.963 248.471 370.503 267.743 373.363 281.479 "/>
<path fill="#ffffff" fill-rule="evenodd" stroke="#000000" stroke-width="3" stroke-linecap="round" stroke-linejoin="round" d="M 310.617 155.618 C 319.662 147.699 331.816 142.769 344.661 143.086 C 369.105 143.690 399.897 168.439 388.865 187.235 C 383.395 196.555 365.721 203.509 365.719 203.511 C 365.718 203.511 360.593 203.541 358.002 203.556 C 328.402 203.730 285.893 203.980 264.162 204.108 C 260.877 204.127 255.876 204.156 255.875 204.156 C 255.873 204.154 236.697 194.822 232.364 187.235 C 222.146 169.344 249.769 142.282 276.569 143.086 C 289.412 143.471 301.568 147.699 310.617 155.618 Z"/>
<path fill="none" stroke="#000000" stroke-width="1" stroke-linecap="butt" stroke-linejoin="round" d="M 358.002 203.556 C 328.402 203.730 285.893 203.980 264.162 204.108 "/>
<path fill="#000000" fill-rule="evenodd" stroke="#000000" stroke-width="3" stroke-linecap="round" stroke-linejoin="round" d="M 375.978 192.067 C 371.843 198.508 362.531 201.743 358.002 203.556 C 328.402 203.730 285.893 203.980 264.162 204.108 C 258.460 201.839 247.459 197.761 243.775 192.067 C 234.323 177.453 258.478 154.093 281.117 154.772 C 291.966 155.097 302.235 158.668 309.879 165.358 C 317.519 158.668 327.786 154.504 338.637 154.772 C 359.286 155.282 385.925 176.574 375.978 192.067 Z"/>
<path fill="#ffffff" fill-rule="evenodd" stroke="#000000" stroke-width="3" stroke-linecap="round" stroke-linejoin="round" d="M 242.149 218.756 C 242.163 218.756 379.067 218.756 379.081 218.756 C 379.080 218.759 373.500 247.287 373.500 247.290 C 373.487 247.290 247.742 247.290 247.730 247.290 C 247.729 247.287 242.150 218.759 242.149 218.756 Z"/>
<path fill="none" stroke="#ffffff" stroke-width="1" stroke-linecap="butt" stroke-linejoin="round" d="M 379.081 218.756 C 379.067 218.756 242.163 218.756 242.149 218.756 "/>
<path fill="#ffffff" fill-rule="evenodd" stroke="#000000" stroke-width="3" stroke-linecap="round" stroke-linejoin="round" d="M 398.914 180.913 C 398.912 180.917 385.692 206.141 379.081 218.756 C 379.067 218.756 242.163 218.756 242.149 218.756 C 235.538 206.141 222.318 180.917 222.316 180.913 C 222.319 180.914 247.523 187.973 257.150 193.527 C 262.367 196.538 263.374 207.483 272.772 206.142 C 283.370 204.628 280.576 192.190 285.207 187.220 C 291.687 180.268 310.612 168.301 310.615 168.299 C 310.617 168.301 329.543 180.268 336.022 187.220 C 340.653 192.190 337.860 204.628 348.457 206.142 C 357.856 207.483 358.862 196.538 364.080 193.527 C 373.707 187.973 398.911 180.914 398.914 180.913 Z"/>
<path fill="#ffffff" fill-rule="evenodd" stroke="#000000" stroke-width="3" stroke-linecap="round" stroke-linejoin="round" d="M 295.858 196.807 C 295.858 188.639 302.447 182.050 310.615 182.050 C 318.783 182.050 325.372 188.639 325.372 196.807 C 325.372 204.975 318.782 211.564 310.615 211.564 C 302.447 211.564 295.858 204.975 295.858 196.807 M 263.909 192.380 C 263.909 188.582 266.974 185.518 270.772 185.518 C 274.570 185.518 277.634 188.582 277.634 192.380 C 277.634 196.178 274.570 199.243 270.772 199.243 C 266.974 199.243 263.909 196.178 263.909 192.380 M 343.595 192.380 C 343.595 188.582 346.659 185.518 350.458 185.518 C 354.256 185.518 357.320 188.582 357.320 192.380 C 357.320 196.178 354.256 199.243 350.458 199.243 C 346.659 199.243 343.595 196.178 343.595 192.380 M 212.378 170.237 C 212.378 164.590 216.933 160.036 222.579 160.036 C 228.225 160.036 232.780 164.590 232.780 170.237 C 232.780 175.883 228.225 180.437 222.579 180.437 C 216.933 180.437 212.378 175.883 212.378 170.237 M 388.450 170.237 C 388.450 164.591 393.004 160.036 398.650 160.036 C 404.296 160.036 408.851 164.590 408.851 170.237 C 408.851 175.883 404.296 180.438 398.650 180.437 C 393.004 180.437 388.450 175.883 388.450 170.237 M 294.270 149.482 C 294.270 140.435 301.568 133.137 310.615 133.137 C 319.661 133.137 326.960 140.435 326.960 149.482 C 326.960 158.528 319.661 165.826 310.615 165.826 C 301.568 165.826 294.270 158.528 294.270 149.482 Z"/>
<path fill="#000000" fill-rule="evenodd" stroke="none" d="M 274.986 233.112 C 274.986 227.516 279.500 223.001 285.096 223.001 C 290.693 223.001 295.207 227.516 295.207 233.112 C 295.207 238.708 290.693 243.223 285.096 243.223 C 279.500 243.223 274.986 238.708 274.986 233.112 M 249.628 233.112 C 249.628 227.516 254.143 223.001 259.739 223.001 C 265.335 223.001 269.850 227.516 269.850 233.112 C 269.850 238.708 265.335 243.223 259.739 243.223 C 254.143 243.223 249.628 238.708 249.628 233.112 M 351.380 233.112 C 351.380 227.516 355.894 223.001 361.490 223.001 C 367.087 223.001 371.601 227.516 371.601 233.112 C 371.601 238.708 367.087 243.223 361.490 243.223 C 355.894 243.223 351.380 238.708 351.380 233.112 M 326.022 233.112 C 326.022 227.516 330.536 223.001 336.133 223.001 C 341.729 223.001 346.244 227.516 346.244 233.112 C 346.244 238.708 341.729 243.223 336.133 243.223 C 330.536 243.223 326.022 238.708 326.022 233.112 M 300.504 233.112 C 300.504 227.516 305.018 223.001 310.615 223.001 C 316.211 223.001 320.726 227.516 320.726 233.112 C 320.726 238.708 316.211 243.223 310.615 243.223 C 305.018 243.223 300.504 238.708 300.504 233.112 Z"/>
<path fill="#000000" fill-rule="evenodd" stroke="none" d="M 310.615 189.165 C 314.845 189.165 318.257 192.577 318.257 196.807 C 318.257 201.037 314.845 204.450 310.615 204.450 C 306.385 204.450 302.972 201.037 302.972 196.807 C 302.972 192.577 306.385 189.165 310.615 189.165 Z"/>
<path fill="#000000" fill-rule="evenodd" stroke="none" d="M 310.615 141.308 C 314.845 141.308 318.257 144.720 318.257 148.950 C 318.257 153.180 314.845 156.593 310.615 156.593 C 306.385 156.593 302.972 153.180 302.972 148.950 C 302.972 144.720 306.385 141.308 310.615 141.308 Z"/>
<path fill="#000000" fill-rule="evenodd" stroke="none" d="M 398.491 165.159 C 401.327 165.159 403.615 167.446 403.615 170.282 C 403.615 173.118 401.327 175.405 398.491 175.405 C 395.656 175.405 393.368 173.118 393.368 170.282 C 393.368 167.446 395.656 165.159 398.491 165.159 Z"/>
<path fill="#000000" fill-rule="evenodd" stroke="none" d="M 222.738 165.159 C 225.574 165.159 227.861 167.446 227.861 170.282 C 227.861 173.117 225.574 175.405 222.738 175.405 C 219.903 175.405 217.615 173.118 217.615 170.282 C 217.615 167.446 219.903 165.158 222.738 165.159 Z"/>
<path fill="#ffffff" fill-rule="evenodd" stroke="#000000" stroke-width="3" stroke-linecap="round" stroke-linejoin="round" d="M 274.026 441.689 C 290.085 441.689 303.041 454.645 303.041 470.704 C 303.041 486.764 290.085 499.719 274.026 499.719 C 257.966 499.719 245.011 486.764 245.011 470.704 C 245.011 454.645 257.966 441.689 274.026 441.689 Z"/>
<path fill="#000000" fill-rule="evenodd" stroke="#ffffff" stroke-width="3" stroke-linecap="round" stroke-linejoin="round" d="M 266.390 471.213 C 270.335 471.213 273.517 474.395 273.517 478.340 C 273.517 482.284 270.335 485.466 266.390 485.466 C 262.446 485.466 259.264 482.284 259.264 478.340 C 259.264 474.395 262.446 471.213 266.390 471.213 Z"/>
<path fill="#ffffff" fill-rule="evenodd" stroke="#000000" stroke-width="3" stroke-linecap="round" stroke-linejoin="round" d="M 343.254 441.689 C 327.195 441.689 314.240 454.645 314.240 470.704 C 314.240 486.764 327.195 499.719 343.254 499.719 C 359.314 499.719 372.269 486.764 372.269 470.704 C 372.269 454.645 359.314 441.689 343.254 441.689 Z"/>
<path fill="#000000" fill-rule="evenodd" stroke="#ffffff" stroke-width="3" stroke-linecap="round" stroke-linejoin="round" d="M 350.890 471.213 C 346.945 471.213 343.763 474.395 343.763 478.340 C 343.763 482.284 346.945 485.466 350.890 485.466 C 354.834 485.466 358.016 482.284 358.016 478.340 C 358.016 474.395 354.834 471.213 350.890 471.213 Z"/>
<path fill="none" stroke="#000000" stroke-width="3" stroke-linecap="round" stroke-linejoin="round" d="M 310.782 113.959 C 310.782 119.998 310.782 126.037 310.782 132.076 "/>
<path fill="none" stroke="#000000" stroke-width="3" stroke-linecap="round" stroke-linejoin="round" d="M 319.841 123.017 C 313.802 123.017 307.763 123.017 301.724 123.017 "/>
</g>
<g id="specs_2">
<path fill="#ff0000" fill-rule="evenodd" stroke="none" d="M 399.746 679.675 C 399.747 679.678 410.552 709.933 410.553 709.936 C 410.552 709.935 399.747 699.882 399.746 699.881 C 399.745 699.882 388.940 709.935 388.939 709.936 C 388.940 709.933 399.745 679.678 399.746 679.675 Z"/>
<path fill="#0000ff" fill-rule="evenodd" stroke="none" d="M 310.499 100.727 C 310.500 100.729 316.776 118.304 316.777 118.305 C 316.776 118.305 310.500 112.465 310.499 112.464 C 310.498 112.465 304.222 118.305 304.221 118.305 C 304.222 118.304 310.498 100.729 310.499 100.727 Z"/>
<path fill="#00ff00" fill-rule="evenodd" stroke="none" d="M 237.103 438.376 C 237.105 438.375 254.647 432.010 254.649 432.009 C 254.649 432.010 248.841 438.316 248.840 438.317 C 248.841 438.317 254.712 444.564 254.713 444.564 C 254.711 444.564 237.105 438.376 237.103 438.376 Z"/>
<path fill="#ffff00" fill-rule="evenodd" stroke="none" d="M 261.619 579.651 C 261.620 579.650 269.133 564.376 269.134 564.375 C 269.134 564.376 269.529 572.088 269.529 572.089 C 269.530 572.089 277.797 572.276 277.798 572.276 C 277.797 572.277 261.621 579.650 261.619 579.651 Z"/>
<path fill="#ffff00" fill-rule="evenodd" stroke="none" d="M 556.343 579.464 C 556.342 579.463 548.502 564.333 548.501 564.331 C 548.501 564.332 548.272 572.051 548.272 572.051 C 548.271 572.051 540.009 572.393 540.008 572.393 C 540.010 572.394 556.341 579.463 556.343 579.464 Z"/>
<path fill="#00ffff" fill-rule="evenodd" stroke="none" d="M 205.827 152.121 C 205.828 152.123 213.337 169.538 213.338 169.540 C 213.338 169.539 213.959 160.848 213.959 160.848 C 213.959 160.848 222.672 160.841 222.673 160.841 C 222.671 160.840 205.828 152.122 205.827 152.121 Z"/>
<path fill="#be0027" fill-rule="evenodd" stroke="none" d="M 731.852 481.142 C 731.848 481.141 701.594 470.336 701.591 470.335 C 701.591 470.336 711.645 481.141 711.646 481.142 C 711.645 481.143 701.591 491.949 701.591 491.950 C 701.594 491.949 731.848 481.143 731.852 481.142 Z"/>
<path fill="#00ffff" fill-rule="evenodd" stroke="none" d="M 414.986 152.121 C 414.985 152.123 407.475 169.538 407.475 169.540 C 407.475 169.539 406.854 160.848 406.854 160.848 C 406.853 160.848 398.140 160.841 398.140 160.841 C 398.141 160.840 414.984 152.122 414.986 152.121 Z"/>
<path fill="#00ff00" fill-rule="evenodd" stroke="none" d="M 614.868 99.878 C 614.867 99.880 606.964 116.786 606.963 116.787 C 606.963 116.786 606.611 108.220 606.611 108.219 C 606.610 108.219 598.041 107.954 598.041 107.954 C 598.042 107.953 614.867 99.879 614.868 99.878 Z"/>
</g>
</g>
</svg>
