<?xml version="1.0" encoding="utf-8"?>
<!-- Generator: Moho 13.0.3 build 635 -->
<!DOCTYPE svg PUBLIC "-//W3C//DTD SVG 1.1//EN" "http://www.w3.org/Graphics/SVG/1.1/DTD/svg11.dtd">
<svg version="1.1" id="Frame_0" xmlns="http://www.w3.org/2000/svg" xmlns:xlink="http://www.w3.org/1999/xlink" width="720px" height="720px">
<g id="harpy_2">
<g id="harpy">
<path fill="#ffffff" fill-rule="evenodd" stroke="none" d="M 338.653 499.887 C 338.655 499.875 351.858 381.853 351.859 381.841 C 351.863 381.852 388.371 494.884 388.375 494.895 C 388.374 494.884 377.046 376.735 377.044 376.723 C 377.050 376.734 434.640 480.564 434.646 480.574 C 434.643 480.563 400.171 366.990 400.168 366.978 C 400.175 366.988 476.479 457.894 476.487 457.903 C 476.481 457.893 420.721 353.130 420.715 353.120 C 420.724 353.127 512.909 427.855 512.918 427.862 C 512.911 427.853 438.183 335.669 438.176 335.660 C 438.186 335.665 542.948 391.426 542.959 391.431 C 542.950 391.424 452.043 315.120 452.034 315.112 C 452.045 315.115 565.618 349.587 565.630 349.590 C 565.619 349.584 461.790 291.995 461.779 291.989 C 461.791 291.990 579.940 303.318 579.951 303.319 C 579.940 303.315 466.908 266.807 466.897 266.803 C 466.909 266.802 584.931 253.599 584.943 253.597 C 584.931 253.596 466.909 240.394 466.897 240.392 C 466.908 240.389 579.940 203.880 579.951 203.877 C 579.940 203.878 461.791 215.205 461.779 215.206 C 461.790 215.201 565.619 157.611 565.630 157.606 C 565.618 157.609 452.045 192.081 452.034 192.084 C 452.043 192.077 542.950 115.772 542.959 115.764 C 542.948 115.770 438.186 171.531 438.176 171.536 C 438.183 171.527 512.911 79.342 512.918 79.333 C 512.909 79.341 420.724 154.069 420.715 154.076 C 420.721 154.066 476.482 49.303 476.487 49.293 C 476.480 49.302 400.175 140.209 400.168 140.218 C 400.171 140.206 434.643 26.633 434.646 26.621 C 434.640 26.632 377.050 130.462 377.044 130.473 C 377.046 130.461 388.374 12.312 388.375 12.300 C 388.371 12.311 351.863 125.342 351.859 125.354 C 351.858 125.342 338.655 7.321 338.653 7.309 C 338.652 7.321 325.450 125.342 325.448 125.354 C 325.445 125.342 288.936 12.311 288.932 12.300 C 288.933 12.312 300.261 130.461 300.262 130.473 C 300.257 130.462 242.666 26.632 242.661 26.621 C 242.664 26.633 277.136 140.206 277.140 140.218 C 277.132 140.209 200.827 49.302 200.820 49.293 C 200.825 49.303 256.587 154.066 256.592 154.076 C 256.583 154.069 164.398 79.341 164.389 79.333 C 164.397 79.342 239.125 171.526 239.132 171.536 C 239.122 171.530 134.359 115.770 134.348 115.764 C 134.357 115.772 225.264 192.077 225.273 192.084 C 225.262 192.081 111.688 157.609 111.677 157.606 C 111.687 157.611 215.518 215.201 215.529 215.206 C 215.517 215.205 97.367 203.878 97.355 203.877 C 97.367 203.880 210.398 240.389 210.410 240.392 C 210.398 240.394 92.376 253.596 92.364 253.597 C 92.376 253.599 210.398 266.802 210.410 266.803 C 210.398 266.807 97.367 303.315 97.355 303.319 C 97.367 303.318 215.517 291.990 215.529 291.989 C 215.518 291.995 111.687 349.584 111.677 349.590 C 111.688 349.587 225.262 315.115 225.273 315.112 C 225.264 315.120 134.357 391.423 134.348 391.431 C 134.359 391.425 239.122 335.665 239.132 335.660 C 239.125 335.669 164.397 427.853 164.389 427.862 C 164.398 427.855 256.582 353.127 256.592 353.120 C 256.586 353.130 200.825 457.893 200.820 457.903 C 200.827 457.894 277.132 366.988 277.140 366.978 C 277.136 366.990 242.664 480.563 242.661 480.574 C 242.666 480.564 300.257 376.734 300.262 376.723 C 300.261 376.735 288.933 494.884 288.932 494.895 C 288.936 494.884 325.445 381.852 325.448 381.841 C 325.450 381.853 338.652 499.875 338.653 499.887 Z"/>
<path fill="#000000" fill-rule="evenodd" stroke="#ffffff" stroke-width="4" stroke-linecap="round" stroke-linejoin="round" d="M 414.124 382.726 C 409.676 370.158 428.778 355.260 434.218 343.088 C 468.104 267.262 428.725 230.975 480.916 217.185 C 604.504 184.529 644.471 133.665 641.957 169.041 C 638.662 215.394 508.546 232.404 508.377 247.464 C 508.247 259.149 637.345 203.589 631.017 230.422 C 616.335 292.676 506.784 267.114 504.065 285.656 C 502.587 295.735 626.077 271.432 612.752 299.646 C 589.206 349.499 503.166 303.977 498.219 320.856 C 494.211 334.527 606.094 338.509 587.876 361.799 C 563.953 392.381 491.477 344.109 488.319 353.971 C 485.056 364.161 580.386 382.513 552.264 403.004 C 519.824 426.642 479.862 379.772 472.554 386.128 C 461.193 396.011 545.482 431.583 498.546 440.338 C 472.999 445.103 423.051 407.946 414.124 382.726 Z"/>
<path fill="#000000" fill-rule="evenodd" stroke="#ffffff" stroke-width="4" stroke-linecap="round" stroke-linejoin="round" d="M 277.897 386.933 C 282.345 374.365 263.243 359.467 257.804 347.295 C 223.918 271.469 263.297 235.182 211.106 221.392 C 87.517 188.736 47.551 137.872 50.065 173.248 C 53.360 219.601 183.476 236.611 183.644 251.671 C 183.775 263.356 54.676 207.796 61.005 234.630 C 75.687 296.883 185.238 271.321 187.957 289.863 C 189.435 299.942 65.945 275.639 79.270 303.853 C 102.816 353.706 188.855 308.184 193.803 325.062 C 197.810 338.734 85.928 342.716 104.146 366.006 C 128.068 396.588 200.545 348.316 203.703 358.178 C 206.966 368.368 111.637 386.720 139.758 407.211 C 172.198 430.849 212.160 383.979 219.468 390.335 C 230.829 400.218 146.539 435.790 193.476 444.545 C 219.023 449.310 268.971 412.153 277.897 386.933 Z"/>
<path fill="#000000" fill-rule="evenodd" stroke="#ffffff" stroke-width="4" stroke-linecap="round" stroke-linejoin="round" d="M 342.916 650.464 C 348.101 650.464 353.194 650.464 357.963 650.464 C 359.891 646.354 403.636 553.106 403.638 553.102 C 403.636 553.102 389.002 553.102 389.001 553.102 C 388.999 553.106 344.862 646.354 342.916 650.464 Z"/>
<path fill="#000000" fill-rule="evenodd" stroke="#ffffff" stroke-width="4" stroke-linecap="round" stroke-linejoin="round" d="M 315.330 661.422 C 316.784 658.459 318.680 654.611 320.656 650.464 C 300.349 650.464 272.563 650.464 272.562 650.464 C 272.561 650.465 264.611 661.421 264.610 661.422 C 264.611 661.422 286.547 661.422 315.330 661.422 Z"/>
<path fill="none" stroke="#ffffff" stroke-width="1" stroke-linecap="butt" stroke-linejoin="round" d="M 315.330 661.422 C 316.784 658.459 318.680 654.611 320.656 650.464 "/>
<path fill="none" stroke="#ffffff" stroke-width="1" stroke-linecap="butt" stroke-linejoin="round" d="M 342.916 650.464 C 348.101 650.464 353.194 650.464 357.963 650.464 "/>
<path fill="#ffffff" fill-rule="evenodd" stroke="#000000" stroke-width="4" stroke-linecap="round" stroke-linejoin="round" d="M 357.963 650.464 C 368.528 650.464 378.119 650.464 385.987 650.464 C 387.933 646.354 432.072 553.106 432.074 553.102 C 432.076 553.102 446.709 553.102 446.710 553.102 C 446.709 553.106 402.987 646.354 401.059 650.464 C 417.079 650.464 440.801 650.464 440.805 650.464 C 440.805 650.465 433.879 661.421 433.878 661.422 C 433.871 661.422 364.542 661.422 315.330 661.422 C 316.784 658.459 318.680 654.611 320.656 650.464 C 331.836 650.464 340.683 650.464 342.916 650.464 C 348.101 650.464 353.194 650.464 357.963 650.464 Z"/>
<path fill="#000000" fill-rule="evenodd" stroke="#ffffff" stroke-width="4" stroke-linecap="round" stroke-linejoin="round" d="M 305.390 136.367 C 305.385 136.362 255.584 86.676 255.579 86.671 C 255.579 86.682 256.809 157.482 258.727 192.595 C 304.347 192.550 378.650 192.531 420.683 192.601 C 422.914 157.498 424.345 86.682 424.346 86.671 C 424.341 86.676 374.539 136.362 374.534 136.367 C 374.531 136.362 339.966 86.676 339.962 86.671 C 339.959 86.676 305.393 136.362 305.390 136.367 Z"/>
<path fill="none" stroke="#ffffff" stroke-width="1" stroke-linecap="butt" stroke-linejoin="round" d="M 258.727 192.595 C 304.347 192.550 378.650 192.531 420.683 192.601 "/>
<path fill="#ffffff" fill-rule="evenodd" stroke="none" d="M 258.727 192.595 C 304.347 192.550 378.650 192.531 420.683 192.601 C 420.387 197.258 419.516 206.356 419.516 206.357 C 419.516 206.364 422.266 273.841 422.506 276.277 C 410.087 311.363 372.827 352.067 338.726 351.608 C 305.552 351.161 275.560 315.757 258.846 276.562 C 258.846 276.555 259.730 206.358 259.730 206.351 C 259.730 206.350 258.981 197.250 258.727 192.595 M 395.079 241.599 C 395.079 248.631 389.406 254.303 382.374 254.303 C 375.342 254.303 369.670 248.631 369.670 241.599 C 369.669 234.567 375.342 228.894 382.374 228.894 C 389.406 228.894 395.079 234.567 395.079 241.599 M 413.680 241.599 C 413.677 241.601 405.938 260.656 382.372 260.656 C 358.805 260.656 351.067 241.601 351.064 241.599 C 351.067 241.597 358.805 222.541 382.372 222.541 C 405.938 222.541 413.677 241.597 413.680 241.599 M 310.673 241.599 C 310.673 248.631 305.000 254.303 297.968 254.303 C 290.937 254.303 285.264 248.630 285.264 241.599 C 285.264 234.567 290.936 228.894 297.968 228.894 C 305.000 228.894 310.673 234.567 310.673 241.599 M 329.274 241.599 C 329.271 241.601 321.533 260.656 297.966 260.656 C 274.400 260.656 266.661 241.601 266.658 241.599 C 266.661 241.597 274.399 222.541 297.966 222.541 C 321.533 222.541 329.271 241.597 329.274 241.599 Z"/>
<path fill="#000000" fill-rule="evenodd" stroke="#ffffff" stroke-width="4" stroke-linecap="round" stroke-linejoin="round" d="M 339.028 298.129 C 359.291 298.129 370.008 300.015 370.336 301.717 C 370.470 302.411 362.309 319.905 339.028 319.905 C 315.747 319.905 307.723 301.719 307.720 301.717 C 307.723 301.717 318.766 298.129 339.028 298.129 Z"/>
<path fill="none" stroke="#ffffff" stroke-width="4" stroke-linecap="round" stroke-linejoin="round" d="M 307.720 301.717 C 317.270 304.564 330.229 309.017 339.028 309.017 C 347.828 309.017 359.020 306.048 370.336 301.717 "/>
<path fill="none" stroke="#000000" stroke-width="4" stroke-linecap="round" stroke-linejoin="round" d="M 339.143 206.354 C 338.961 231.281 338.779 256.207 338.597 281.133 M 259.730 206.351 C 286.201 206.352 339.135 206.354 339.143 206.354 C 339.151 206.354 392.725 206.356 419.516 206.357 "/>
<path fill="none" stroke="#000000" stroke-width="1" stroke-linecap="butt" stroke-linejoin="round" d="M 338.726 351.608 C 372.827 352.067 410.087 311.363 422.506 276.277 "/>
<path fill="none" stroke="#000000" stroke-width="1" stroke-linecap="butt" stroke-linejoin="round" d="M 258.846 276.562 C 275.560 315.757 305.552 351.161 338.726 351.608 "/>
<path fill="#000000" fill-rule="evenodd" stroke="#ffffff" stroke-width="4" stroke-linecap="round" stroke-linejoin="round" d="M 338.726 351.608 C 372.827 352.067 410.087 311.363 422.506 276.277 C 422.850 279.773 416.825 346.537 438.280 375.497 C 508.179 469.847 658.659 385.986 664.991 431.987 C 670.949 475.271 558.631 444.403 557.760 462.073 C 556.717 483.229 675.697 446.344 669.935 495.213 C 665.967 528.862 559.664 491.067 557.760 508.359 C 555.623 527.777 673.892 507.813 662.999 547.619 C 650.159 594.540 557.963 530.491 518.483 553.332 C 470.866 580.881 321.890 590.928 276.507 531.832 C 225.139 464.945 258.845 276.590 258.846 276.562 C 275.560 315.757 305.552 351.161 338.726 351.608 Z"/>
<path fill="none" stroke="#000000" stroke-width="1" stroke-linecap="butt" stroke-linejoin="round" d="M 369.670 241.599 C 369.669 234.567 375.342 228.894 382.374 228.894 "/>
<path fill="none" stroke="#000000" stroke-width="1" stroke-linecap="butt" stroke-linejoin="round" d="M 382.374 228.894 C 389.406 228.894 395.079 234.567 395.079 241.599 "/>
<path fill="none" stroke="#000000" stroke-width="1" stroke-linecap="butt" stroke-linejoin="round" d="M 395.079 241.599 C 395.079 248.631 389.406 254.303 382.374 254.303 "/>
<path fill="none" stroke="#000000" stroke-width="1" stroke-linecap="butt" stroke-linejoin="round" d="M 382.374 254.303 C 375.342 254.303 369.670 248.631 369.670 241.599 "/>
<path fill="none" stroke="#000000" stroke-width="1" stroke-linecap="butt" stroke-linejoin="round" d="M 351.064 241.599 C 351.067 241.597 358.805 222.541 382.372 222.541 "/>
<path fill="none" stroke="#000000" stroke-width="1" stroke-linecap="butt" stroke-linejoin="round" d="M 382.372 222.541 C 405.938 222.541 413.677 241.597 413.680 241.599 "/>
<path fill="none" stroke="#000000" stroke-width="1" stroke-linecap="butt" stroke-linejoin="round" d="M 413.680 241.599 C 413.677 241.601 405.938 260.656 382.372 260.656 "/>
<path fill="none" stroke="#000000" stroke-width="1" stroke-linecap="butt" stroke-linejoin="round" d="M 382.372 260.656 C 358.805 260.656 351.067 241.601 351.064 241.599 "/>
<path fill="none" stroke="#000000" stroke-width="1" stroke-linecap="butt" stroke-linejoin="round" d="M 285.264 241.599 C 285.264 234.567 290.936 228.894 297.968 228.894 "/>
<path fill="none" stroke="#000000" stroke-width="1" stroke-linecap="butt" stroke-linejoin="round" d="M 297.968 228.894 C 305.000 228.894 310.673 234.567 310.673 241.599 "/>
<path fill="none" stroke="#000000" stroke-width="1" stroke-linecap="butt" stroke-linejoin="round" d="M 310.673 241.599 C 310.673 248.631 305.000 254.303 297.968 254.303 "/>
<path fill="none" stroke="#000000" stroke-width="1" stroke-linecap="butt" stroke-linejoin="round" d="M 297.968 254.303 C 290.937 254.303 285.264 248.630 285.264 241.599 "/>
<path fill="none" stroke="#000000" stroke-width="1" stroke-linecap="butt" stroke-linejoin="round" d="M 266.658 241.599 C 266.661 241.597 274.399 222.541 297.966 222.541 "/>
<path fill="none" stroke="#000000" stroke-width="1" stroke-linecap="butt" stroke-linejoin="round" d="M 297.966 222.541 C 321.533 222.541 329.271 241.597 329.274 241.599 "/>
<path fill="none" stroke="#000000" stroke-width="1" stroke-linecap="butt" stroke-linejoin="round" d="M 329.274 241.599 C 329.271 241.601 321.533 260.656 297.966 260.656 "/>
<path fill="none" stroke="#000000" stroke-width="1" stroke-linecap="butt" stroke-linejoin="round" d="M 297.966 260.656 C 274.400 260.656 266.661 241.601 266.658 241.599 "/>
<path fill="#000000" fill-rule="evenodd" stroke="none" d="M 369.670 241.599 C 369.669 234.567 375.342 228.894 382.374 228.894 C 389.406 228.894 395.079 234.567 395.079 241.599 C 395.079 248.631 389.406 254.303 382.374 254.303 C 375.342 254.303 369.670 248.631 369.670 241.599 M 351.064 241.599 C 351.067 241.597 358.805 222.541 382.372 222.541 C 405.938 222.541 413.677 241.597 413.680 241.599 C 413.677 241.601 405.938 260.656 382.372 260.656 C 358.805 260.656 351.067 241.601 351.064 241.599 M 285.264 241.599 C 285.264 234.567 290.936 228.894 297.968 228.894 C 305.000 228.894 310.673 234.567 310.673 241.599 C 310.673 248.631 305.000 254.303 297.968 254.303 C 290.937 254.303 285.264 248.630 285.264 241.599 M 266.658 241.599 C 266.661 241.597 274.399 222.541 297.966 222.541 C 321.533 222.541 329.271 241.597 329.274 241.599 C 329.271 241.601 321.533 260.656 297.966 260.656 C 274.400 260.656 266.661 241.601 266.658 241.599 Z"/>
<path fill="#ffffff" fill-rule="evenodd" stroke="#000000" stroke-width="4" stroke-linecap="round" stroke-linejoin="round" d="M 464.928 456.611 C 464.928 426.239 440.426 401.738 410.054 401.738 C 379.682 401.738 355.181 426.239 355.181 456.611 C 355.180 486.983 379.682 511.484 410.054 511.484 C 440.426 511.485 464.928 486.983 464.928 456.611 M 230.389 456.611 C 230.389 426.239 254.891 401.738 285.263 401.738 C 315.635 401.738 340.136 426.239 340.136 456.611 C 340.136 486.983 315.635 511.484 285.263 511.484 C 254.891 511.485 230.389 486.983 230.389 456.611 Z"/>
<path fill="#000000" fill-rule="evenodd" stroke="#ffffff" stroke-width="4" stroke-linecap="round" stroke-linejoin="round" d="M 436.047 472.015 C 436.047 465.620 430.889 460.462 424.494 460.462 C 418.100 460.462 412.942 465.620 412.942 472.015 C 412.942 478.409 418.100 483.567 424.494 483.567 C 430.889 483.567 436.047 478.409 436.047 472.015 M 259.270 472.014 C 259.270 465.620 264.428 460.462 270.822 460.462 C 277.217 460.462 282.375 465.620 282.375 472.014 C 282.375 478.409 277.217 483.567 270.822 483.567 C 264.428 483.567 259.270 478.409 259.270 472.014 Z"/>
<path fill="none" stroke="#000000" stroke-width="4" stroke-linecap="round" stroke-linejoin="round" d="M 352.502 72.824 C 344.236 72.824 335.970 72.824 327.704 72.824 M 340.104 60.425 C 340.104 68.691 340.104 76.957 340.104 85.223 "/>
<path fill="none" stroke="#000000" stroke-width="4" stroke-linecap="round" stroke-linejoin="round" d="M 258.727 192.595 C 304.347 192.550 378.650 192.531 420.683 192.601 C 420.387 197.258 419.516 206.356 419.516 206.357 C 419.516 206.364 422.266 273.841 422.506 276.277 C 410.087 311.363 372.827 352.067 338.726 351.608 C 305.552 351.161 275.560 315.757 258.846 276.562 C 258.846 276.555 259.730 206.358 259.730 206.351 C 259.730 206.350 258.981 197.250 258.727 192.595 "/>
</g>
<g id="specs_2">
<path fill="#ff0000" fill-rule="evenodd" stroke="none" d="M 372.712 676.967 C 372.713 676.970 384.306 709.431 384.307 709.434 C 384.306 709.433 372.713 698.646 372.712 698.645 C 372.711 698.646 361.118 709.433 361.117 709.434 C 361.118 709.431 372.711 676.970 372.712 676.967 Z"/>
<path fill="#0000ff" fill-rule="evenodd" stroke="none" d="M 339.787 59.410 C 339.788 59.412 345.364 75.025 345.364 75.026 C 345.364 75.026 339.788 69.838 339.787 69.837 C 339.787 69.838 334.211 75.026 334.210 75.026 C 334.211 75.025 339.787 59.412 339.787 59.410 Z"/>
<path fill="#00ff00" fill-rule="evenodd" stroke="none" d="M 65.660 302.813 C 65.662 302.812 84.483 295.983 84.485 295.982 C 84.484 295.983 78.253 302.749 78.252 302.750 C 78.253 302.750 84.552 309.452 84.553 309.453 C 84.551 309.452 65.662 302.814 65.660 302.813 Z"/>
<path fill="#ffff00" fill-rule="evenodd" stroke="none" d="M 286.731 565.980 C 286.732 565.979 292.992 553.252 292.993 553.250 C 292.993 553.251 293.323 559.678 293.323 559.679 C 293.324 559.679 300.212 559.834 300.213 559.834 C 300.212 559.835 286.733 565.979 286.731 565.980 Z"/>
<path fill="#ffff00" fill-rule="evenodd" stroke="none" d="M 532.321 565.824 C 532.320 565.823 525.787 553.216 525.787 553.214 C 525.786 553.215 525.595 559.647 525.595 559.647 C 525.594 559.647 518.710 559.932 518.709 559.932 C 518.711 559.933 532.319 565.823 532.321 565.824 Z"/>
<path fill="#00ffff" fill-rule="evenodd" stroke="none" d="M 246.797 81.604 C 246.797 81.605 253.469 97.077 253.469 97.079 C 253.469 97.078 254.021 89.357 254.021 89.357 C 254.022 89.357 261.761 89.351 261.762 89.351 C 261.761 89.350 246.798 81.605 246.797 81.604 Z"/>
<path fill="#be0027" fill-rule="evenodd" stroke="none" d="M 690.128 491.336 C 690.124 491.335 657.664 479.742 657.661 479.741 C 657.662 479.742 668.448 491.335 668.449 491.336 C 668.448 491.337 657.662 502.930 657.661 502.931 C 657.664 502.930 690.124 491.337 690.128 491.336 Z"/>
<path fill="#00ffff" fill-rule="evenodd" stroke="none" d="M 432.613 81.604 C 432.613 81.605 425.941 97.077 425.941 97.079 C 425.940 97.078 425.389 89.357 425.389 89.357 C 425.388 89.357 417.648 89.351 417.647 89.351 C 417.649 89.350 432.612 81.605 432.613 81.604 Z"/>
<path fill="#00ff00" fill-rule="evenodd" stroke="none" d="M 624.851 302.813 C 624.849 302.812 606.027 295.983 606.025 295.982 C 606.026 295.983 612.258 302.749 612.258 302.750 C 612.258 302.750 605.958 309.452 605.958 309.453 C 605.959 309.452 624.849 302.814 624.851 302.813 Z"/>
</g>
</g>
</svg>
