<?xml version="1.0" encoding="utf-8"?>
<!-- Generator: Moho 13.5 build 20210422 -->
<!DOCTYPE svg PUBLIC "-//W3C//DTD SVG 1.1//EN" "http://www.w3.org/Graphics/SVG/1.1/DTD/svg11.dtd">
<svg version="1.1" id="Frame_0" xmlns="http://www.w3.org/2000/svg" xmlns:xlink="http://www.w3.org/1999/xlink" width="720px" height="720px">
<g id="head_beast">
<g id="beast_head">
<path fill="#ffffff" fill-rule="evenodd" stroke="#000000" stroke-width="4" stroke-linecap="round" stroke-linejoin="round" d="M 323.164 353.878 C 324.204 334.831 340.408 320.305 359.456 321.345 C 378.502 322.385 393.029 338.589 391.990 357.636 C 390.950 376.683 374.745 391.210 355.698 390.170 C 336.651 389.130 322.124 372.926 323.164 353.878 M 93.647 402.348 C 94.050 394.966 100.331 389.335 107.713 389.738 C 115.096 390.141 120.726 396.422 120.323 403.804 C 119.920 411.187 113.639 416.816 106.257 416.413 C 98.875 416.010 93.245 409.730 93.647 402.348 M 363.052 452.486 C 363.045 452.488 284.455 477.328 284.447 477.330 C 284.446 477.328 270.589 457.329 270.587 457.328 C 270.587 457.330 262.989 484.437 262.988 484.439 C 262.984 484.440 225.257 494.075 225.253 494.076 C 225.251 494.073 207.879 466.385 207.878 466.382 C 207.877 466.386 194.970 502.751 194.969 502.754 C 194.966 502.755 160.734 510.707 160.731 510.708 C 160.728 510.705 135.839 478.686 135.837 478.683 C 135.836 478.686 126.850 518.708 126.849 518.712 C 126.843 518.714 73.504 536.633 73.498 536.634 C 73.526 536.637 256.695 563.547 347.483 554.112 C 393.925 549.286 446.672 547.966 483.543 519.320 C 509.221 499.370 525.178 466.499 532.986 434.933 C 538.744 411.650 530.984 362.829 530.984 362.822 C 530.994 362.818 593.700 351.667 631.356 315.860 C 674.402 274.927 689.721 203.443 689.728 203.432 C 689.719 203.441 646.768 254.150 597.636 283.459 C 563.836 303.622 519.485 314.048 519.476 314.052 C 519.477 314.051 515.650 308.414 515.650 308.414 C 515.656 308.408 561.686 291.328 585.551 259.079 C 615.840 218.149 617.829 155.410 617.834 155.400 C 617.826 155.408 587.966 210.210 545.531 241.485 C 514.492 264.362 470.209 274.455 470.202 274.459 C 470.193 274.458 400.467 273.202 383.395 273.707 C 357.774 274.465 295.641 269.419 220.798 296.314 C 135.729 326.883 75.238 383.519 62.435 394.992 C 45.362 412.675 21.826 441.188 21.822 441.193 C 21.828 441.193 83.605 442.781 83.611 442.781 C 83.613 442.785 101.241 488.994 101.242 488.998 C 101.244 488.994 119.593 443.662 119.595 443.658 C 119.599 443.658 159.645 446.734 159.648 446.734 C 159.650 446.739 176.335 486.106 176.337 486.111 C 176.339 486.106 193.598 449.630 193.600 449.627 C 193.603 449.627 230.054 450.658 230.058 450.658 C 230.059 450.660 242.471 481.838 242.471 481.841 C 242.473 481.838 255.002 452.305 255.003 452.302 C 255.013 452.302 363.042 452.486 363.052 452.486 M 466.818 256.670 C 466.809 256.669 415.307 251.240 384.521 253.074 C 352.621 254.974 307.883 258.465 307.875 258.466 C 307.872 258.455 283.775 146.834 283.773 146.823 C 283.779 146.828 349.845 201.167 349.851 201.173 C 349.855 201.165 387.070 121.433 387.074 121.425 C 387.078 121.433 422.790 200.886 422.793 200.894 C 422.800 200.889 487.189 141.263 487.196 141.257 C 487.193 141.269 466.819 256.657 466.818 256.670 M 251.032 372.298 C 251.043 372.300 310.108 406.663 365.932 399.734 C 416.342 393.478 462.451 350.574 462.460 350.569 C 462.450 350.565 410.513 305.109 357.881 308.978 C 299.798 313.249 251.042 372.291 251.032 372.298 Z"/>
</g>
<g id="specs_2">
<path fill="#ff0000" fill-rule="evenodd" stroke="none" d="M 372.217 580.974 C 372.218 580.977 385.008 616.714 385.009 616.718 C 385.008 616.717 372.234 604.847 372.232 604.846 C 372.231 604.847 359.473 616.733 359.472 616.734 C 359.473 616.731 372.216 580.977 372.217 580.974 Z"/>
<path fill="#0000ff" fill-rule="evenodd" stroke="none" d="M 387.456 114.980 C 387.457 114.982 394.886 135.741 394.886 135.743 C 394.886 135.742 387.466 128.848 387.465 128.847 C 387.464 128.848 380.053 135.752 380.053 135.753 C 380.053 135.751 387.455 114.982 387.456 114.980 Z"/>
<path fill="#ffff00" fill-rule="evenodd" stroke="none" d="M 208.044 560.108 C 208.045 560.105 223.234 532.523 223.236 532.521 C 223.236 532.522 222.875 546.983 222.875 546.984 C 222.876 546.985 237.273 548.386 237.274 548.386 C 237.272 548.387 208.047 560.107 208.044 560.108 Z"/>
<path fill="#ffff00" fill-rule="evenodd" stroke="none" d="M 482.600 543.752 C 482.599 543.749 470.984 514.482 470.983 514.479 C 470.982 514.480 469.530 528.873 469.529 528.874 C 469.528 528.874 455.069 528.462 455.067 528.462 C 455.070 528.463 482.598 543.750 482.600 543.752 Z"/>
<path fill="#be0027" fill-rule="evenodd" stroke="none" d="M 558.879 437.210 C 558.876 437.208 524.858 420.371 524.855 420.369 C 524.856 420.370 535.168 434.431 535.169 434.433 C 535.168 434.434 521.885 445.731 521.884 445.733 C 521.888 445.732 558.876 437.210 558.879 437.210 Z"/>
</g>
</g>
</svg>
