<?xml version="1.0" encoding="utf-8"?>
<!-- Generator: Moho 13.5 build 20210422 -->
<!DOCTYPE svg PUBLIC "-//W3C//DTD SVG 1.1//EN" "http://www.w3.org/Graphics/SVG/1.1/DTD/svg11.dtd">
<svg version="1.1" id="Frame_0" xmlns="http://www.w3.org/2000/svg" xmlns:xlink="http://www.w3.org/1999/xlink" width="720px" height="720px">
<g id="head_phrenology">
<g id="phrenology_head">
<path fill="#ffffff" fill-rule="evenodd" stroke="#000000" stroke-width="4" stroke-linejoin="round" d="M 152.265 287.543 C 155.893 302.166 87.915 385.875 92.282 401.334 C 96.921 417.753 135.455 410.377 140.798 418.976 C 144.362 424.715 139.034 453.375 139.034 453.378 C 139.035 453.379 153.146 465.727 153.147 465.728 C 153.146 465.729 141.681 478.075 141.679 478.077 C 141.684 478.080 158.832 483.132 160.204 493.073 C 162.534 509.965 149.623 520.947 148.736 536.296 C 148.319 543.529 163.214 562.842 169.025 567.169 C 183.531 577.974 244.304 576.911 258.999 587.458 C 273.936 598.178 276.592 618.351 278.406 619.566 C 289.176 626.781 539.451 619.793 535.979 612.359 C 481.604 495.930 502.726 461.460 523.630 433.090 C 538.959 412.285 609.363 393.622 627.718 275.194 C 644.924 164.179 601.982 17.207 376.319 22.912 C 160.850 28.360 134.975 217.857 152.265 287.543 Z"/>
<path fill="#ffffff" fill-rule="evenodd" stroke="none" d="M 187.549 288.425 C 186.165 294.785 188.581 303.261 191.757 310.244 C 215.504 308.320 250.174 300.775 250.178 300.775 C 250.172 300.772 212.134 285.760 191.703 276.999 C 189.442 281.398 188.604 283.578 187.549 288.425 Z"/>
<path fill="none" stroke="#000000" stroke-width="4" stroke-linejoin="round" d="M 187.549 288.425 C 186.165 294.785 188.581 303.261 191.757 310.244 C 183.888 310.882 181.522 313.090 176.817 314.693 M 191.703 276.999 C 189.442 281.398 188.604 283.578 187.549 288.425 M 250.178 300.775 C 250.174 300.775 215.504 308.320 191.757 310.244 M 191.703 276.999 C 212.134 285.760 250.172 300.772 250.178 300.775 M 176.964 268.137 C 176.966 268.138 186.457 274.749 191.703 276.999 "/>
<path fill="none" stroke="#000000" stroke-width="4" stroke-linejoin="round" d="M 173.436 254.906 C 173.440 254.906 200.328 258.230 216.658 263.726 C 240.317 271.689 254.883 282.544 273.995 291.954 "/>
<path fill="none" stroke="#000000" stroke-width="4" stroke-linejoin="round" d="M 210.826 571.140 C 210.835 571.138 270.885 565.798 305.702 547.077 C 359.560 518.117 412.474 433.983 412.485 433.972 M 148.544 404.985 C 141.175 404.470 136.508 405.983 130.187 405.849 C 127.083 405.784 121.132 404.093 120.509 403.098 C 118.769 400.320 124.342 397.411 148.544 404.985 C 157.412 407.760 152.009 415.417 160.204 416.330 C 165.865 416.961 172.511 411.188 173.436 409.273 C 176.701 402.512 169.215 386.583 165.496 383.692 C 162.547 381.399 144.328 381.928 144.326 381.928 C 144.328 381.928 162.754 381.022 164.711 381.823 C 173.580 385.459 183.839 395.835 187.549 400.452 C 192.615 406.756 199.310 424.563 205.191 436.618 M 153.147 465.728 C 169.613 466.022 202.540 466.610 202.545 466.610 C 202.541 466.608 170.886 454.057 163.732 453.378 C 157.606 452.797 147.333 450.059 139.034 453.378 C 139.035 453.379 153.146 465.727 153.147 465.728 C 153.146 465.729 141.681 478.075 141.679 478.077 C 148.651 480.732 155.870 480.091 169.025 478.077 C 177.375 476.799 191.372 470.432 202.545 466.610 M 196.370 452.496 C 196.372 452.499 207.455 471.744 214.012 478.077 C 220.208 484.061 230.478 488.662 238.711 493.955 "/>
<path fill="none" stroke="#000000" stroke-width="4" stroke-linejoin="round" d="M 422.681 328.021 C 422.680 328.019 408.960 312.141 415.900 301.128 C 423.751 288.670 437.838 290.887 445.895 294.462 C 453.239 297.722 459.060 310.653 460.059 318.625 C 462.016 334.228 454.757 361.478 441.729 370.284 C 428.936 378.931 410.070 394.445 410.067 394.447 M 408.401 337.789 C 408.400 337.785 389.327 315.260 399.236 299.462 C 407.585 286.150 421.619 269.930 448.395 275.299 C 461.242 277.875 474.444 298.224 476.724 311.126 C 480.902 334.773 467.679 376.720 445.062 388.615 C 413.734 405.090 410.783 427.893 393.403 423.609 C 376.214 419.372 376.741 396.116 376.739 396.113 "/>
</g>
<g id="specs_2">
<path fill="#ff00ff" fill-rule="evenodd" stroke="none" d="M 259.214 270.071 C 259.241 270.071 528.850 270.071 528.877 270.071 C 528.877 270.050 528.877 59.517 528.877 59.496 C 528.850 59.496 259.241 59.496 259.214 59.496 C 259.214 59.517 259.214 270.050 259.214 270.071 Z"/>
<path fill="#ff0000" fill-rule="evenodd" stroke="none" d="M 403.552 678.272 C 403.554 678.275 414.443 708.764 414.444 708.767 C 414.443 708.766 403.554 698.634 403.552 698.633 C 403.551 698.634 392.662 708.766 392.661 708.767 C 392.662 708.764 403.551 678.275 403.552 678.272 Z"/>
<path fill="#0000ff" fill-rule="evenodd" stroke="none" d="M 391.455 14.797 C 391.455 14.799 397.780 32.510 397.781 32.512 C 397.780 32.511 391.455 26.626 391.455 26.625 C 391.454 26.626 385.129 32.511 385.128 32.512 C 385.129 32.510 391.454 14.799 391.455 14.797 Z"/>
<path fill="#ffff00" fill-rule="evenodd" stroke="none" d="M 300.630 628.981 C 300.631 628.979 309.428 609.824 309.429 609.822 C 309.429 609.823 309.892 619.496 309.892 619.497 C 309.893 619.497 319.573 619.731 319.574 619.732 C 319.573 619.732 300.632 628.980 300.630 628.981 Z"/>
<path fill="#ffff00" fill-rule="evenodd" stroke="none" d="M 494.377 628.746 C 494.376 628.744 485.196 609.770 485.196 609.768 C 485.195 609.769 484.927 619.449 484.927 619.450 C 484.926 619.450 475.251 619.879 475.250 619.879 C 475.252 619.880 494.375 628.745 494.377 628.746 Z"/>
<path fill="#00ff00" fill-rule="evenodd" stroke="none" d="M 636.254 291.268 C 636.252 291.268 618.573 284.853 618.572 284.852 C 618.572 284.853 624.425 291.208 624.426 291.209 C 624.425 291.209 618.508 297.504 618.508 297.505 C 618.510 297.504 636.252 291.269 636.254 291.268 Z"/>
<path fill="#00ffff" fill-rule="evenodd" stroke="none" d="M 602.884 102.347 C 602.884 102.349 596.605 120.076 596.605 120.078 C 596.604 120.077 595.416 111.520 595.415 111.519 C 595.415 111.519 586.794 112.088 586.793 112.088 C 586.795 112.087 602.883 102.348 602.884 102.347 Z"/>
<path fill="#00ffff" fill-rule="evenodd" stroke="none" d="M 180.123 102.934 C 180.124 102.936 187.570 120.206 187.571 120.207 C 187.571 120.207 188.186 111.589 188.186 111.588 C 188.187 111.588 196.827 111.581 196.827 111.581 C 196.826 111.580 180.125 102.935 180.123 102.934 Z"/>
<path fill="#be0027" fill-rule="evenodd" stroke="none" d="M 400.966 638.081 C 400.968 638.078 411.856 607.589 411.858 607.586 C 411.856 607.587 400.968 617.718 400.966 617.719 C 400.965 617.718 390.076 607.587 390.075 607.586 C 390.076 607.589 400.965 638.078 400.966 638.081 Z"/>
</g>
</g>
</svg>
