<?xml version="1.0" encoding="utf-8"?>
<!-- Generator: Moho 13.5.1 build 20210623 -->
<!DOCTYPE svg PUBLIC "-//W3C//DTD SVG 1.1//EN" "http://www.w3.org/Graphics/SVG/1.1/DTD/svg11.dtd">
<svg version="1.1" id="Frame_0" xmlns="http://www.w3.org/2000/svg" xmlns:xlink="http://www.w3.org/1999/xlink" width="720px" height="720px">
<g id="heart_break">
<g id="heart">
<radialGradient id="C1C6C282-B53D-4AF3-ADE3-08F50DF0404D_0" cx="50.34%" cy="41.52%" r="97.05%">
<stop offset="33.33%" style="stop-color:rgb(255,255,255);stop-opacity:1.00" />
<stop offset="100.00%" style="stop-color:rgb(0,0,0);stop-opacity:1.00" />
</radialGradient>
<path fill="url(#C1C6C282-B53D-4AF3-ADE3-08F50DF0404D_0)" fill-rule="evenodd" stroke="#000000" stroke-width="4" stroke-linecap="round" stroke-linejoin="round" d="M 380.815 206.593 C 380.813 206.587 363.533 148.545 363.531 148.540 C 363.549 148.530 408.019 16.993 544.903 57.492 C 606.598 75.745 637.059 157.936 635.394 227.548 C 633.289 315.592 567.300 380.927 505.147 433.451 C 450.159 479.919 360.367 565.096 360.353 565.109 C 360.355 565.101 379.736 479.187 379.738 479.178 C 379.733 479.170 336.276 396.676 336.271 396.668 C 336.277 396.660 396.958 322.977 396.965 322.969 C 396.958 322.963 336.277 265.387 336.271 265.381 C 336.275 265.376 380.810 206.598 380.815 206.593 M 353.634 150.670 C 353.635 150.676 366.285 208.481 366.286 208.486 C 366.282 208.492 322.687 267.971 322.682 267.977 C 322.689 267.982 384.278 324.586 384.285 324.592 C 384.279 324.599 324.777 399.239 324.771 399.246 C 324.776 399.254 369.540 481.047 369.544 481.055 C 369.543 481.064 357.083 567.229 357.082 567.238 C 357.068 567.224 261.600 482.386 212.203 435.673 C 153.186 379.863 84.866 317.729 82.659 229.848 C 80.915 160.382 110.687 78.126 172.203 59.740 C 308.974 18.860 353.616 150.661 353.634 150.670 Z"/>
</g>
<g id="specs">
<path fill="#ff0000" fill-rule="evenodd" stroke="none" d="M 360.000 669.867 C 360.001 669.870 371.359 701.672 371.360 701.675 C 371.359 701.674 360.001 691.107 360.000 691.105 C 359.999 691.107 348.641 701.674 348.640 701.675 C 348.641 701.672 359.999 669.870 360.000 669.867 Z"/>
<path fill="#0000ff" fill-rule="evenodd" stroke="none" d="M 360.000 39.399 C 360.001 39.401 366.598 57.874 366.599 57.876 C 366.598 57.875 360.001 51.737 360.000 51.737 C 359.999 51.737 353.402 57.875 353.401 57.876 C 353.402 57.874 359.999 39.401 360.000 39.399 Z"/>
<path fill="#00ff00" fill-rule="evenodd" stroke="none" d="M 67.132 250.995 C 67.134 250.995 85.990 244.153 85.992 244.152 C 85.992 244.153 79.749 250.931 79.748 250.932 C 79.749 250.932 86.060 257.647 86.060 257.648 C 86.058 257.647 67.134 250.996 67.132 250.995 Z"/>
<path fill="#ffff00" fill-rule="evenodd" stroke="none" d="M 195.856 443.658 C 195.857 443.656 204.229 425.428 204.230 425.426 C 204.230 425.427 204.671 434.631 204.671 434.632 C 204.672 434.632 213.884 434.855 213.885 434.855 C 213.883 434.856 195.858 443.657 195.856 443.658 Z"/>
<path fill="#00ff00" fill-rule="evenodd" stroke="none" d="M 652.868 250.995 C 652.866 250.995 634.010 244.153 634.008 244.152 C 634.008 244.153 640.251 250.931 640.252 250.932 C 640.251 250.932 633.940 257.647 633.940 257.648 C 633.942 257.647 652.866 250.996 652.868 250.995 Z"/>
<path fill="#00ffff" fill-rule="evenodd" stroke="none" d="M 595.847 70.813 C 595.845 70.813 577.674 79.309 577.672 79.309 C 577.673 79.310 586.880 79.689 586.881 79.689 C 586.881 79.689 587.167 88.900 587.167 88.901 C 587.167 88.899 595.846 70.814 595.847 70.813 Z"/>
<path fill="#00ffff" fill-rule="evenodd" stroke="none" d="M 121.238 70.813 C 121.240 70.813 139.411 79.309 139.413 79.309 C 139.412 79.310 130.204 79.689 130.203 79.689 C 130.203 79.689 129.918 88.900 129.918 88.901 C 129.917 88.899 121.239 70.814 121.238 70.813 Z"/>
<path fill="#be0027" fill-rule="evenodd" stroke="none" d="M 359.961 584.050 C 359.962 584.047 368.225 560.909 368.226 560.907 C 368.225 560.908 359.962 568.596 359.961 568.597 C 359.960 568.596 351.697 560.908 351.696 560.907 C 351.697 560.909 359.960 584.047 359.961 584.050 Z"/>
<path fill="#ffff00" fill-rule="evenodd" stroke="none" d="M 522.846 443.658 C 522.845 443.656 514.473 425.428 514.472 425.426 C 514.472 425.427 514.031 434.631 514.031 434.632 C 514.031 434.632 504.818 434.855 504.817 434.855 C 504.819 434.856 522.844 443.657 522.846 443.658 Z"/>
</g>
</g>
</svg>
