<?xml version="1.0" encoding="utf-8"?>
<!-- Generator: Moho 12.5 build 22414 -->
<!DOCTYPE svg PUBLIC "-//W3C//DTD SVG 1.1//EN" "http://www.w3.org/Graphics/SVG/1.1/DTD/svg11.dtd">
<svg version="1.1" id="Frame_0" xmlns="http://www.w3.org/2000/svg" xmlns:xlink="http://www.w3.org/1999/xlink" width="720px" height="720px">
<g id="heart_break">
<g id="heart">
<path fill="#ffffff" fill-rule="evenodd" stroke="#000000" stroke-width="4" stroke-linecap="round" stroke-linejoin="round" d="M 386.818 207.792 C 386.815 207.786 369.731 150.403 369.729 150.398 C 369.747 150.389 413.713 20.343 549.044 60.383 C 610.039 78.429 640.155 159.688 638.509 228.509 C 636.427 315.554 571.187 380.149 509.739 432.076 C 455.375 478.017 366.602 562.228 366.588 562.241 C 366.590 562.233 385.751 477.294 385.753 477.285 C 385.748 477.277 342.784 395.719 342.779 395.711 C 342.785 395.703 402.778 322.856 402.784 322.848 C 402.778 322.843 342.785 265.920 342.779 265.914 C 342.783 265.908 386.813 207.797 386.818 207.792 M 346.081 150.504 C 346.082 150.510 359.555 207.439 359.556 207.445 C 359.552 207.451 317.454 266.976 317.450 266.982 C 317.456 266.987 379.286 321.909 379.292 321.915 C 379.286 321.922 321.718 396.701 321.713 396.709 C 321.717 396.717 367.337 476.820 367.342 476.828 C 367.341 476.836 356.467 562.220 356.466 562.229 C 356.451 562.216 260.659 479.951 211.047 434.602 C 151.774 380.421 83.198 320.146 79.545 233.310 C 76.657 164.672 104.709 82.863 165.211 63.657 C 299.726 20.956 346.063 150.496 346.081 150.504 Z"/>
</g>
<g id="specs">
<path fill="#ff0000" fill-rule="evenodd" stroke="none" d="M 360.000 669.867 C 360.001 669.870 371.359 701.672 371.360 701.675 C 371.359 701.674 360.001 691.107 360.000 691.105 C 359.999 691.107 348.641 701.674 348.640 701.675 C 348.641 701.672 359.999 669.870 360.000 669.867 Z"/>
<path fill="#0000ff" fill-rule="evenodd" stroke="none" d="M 360.000 39.399 C 360.001 39.401 366.598 57.874 366.599 57.876 C 366.598 57.875 360.001 51.737 360.000 51.737 C 359.999 51.737 353.402 57.875 353.401 57.876 C 353.402 57.874 359.999 39.401 360.000 39.399 Z"/>
<path fill="#00ff00" fill-rule="evenodd" stroke="none" d="M 67.132 250.995 C 67.134 250.994 85.990 244.152 85.992 244.152 C 85.992 244.152 79.749 250.931 79.748 250.931 C 79.749 250.932 86.060 257.647 86.060 257.648 C 86.058 257.647 67.134 250.996 67.132 250.995 Z"/>
<path fill="#ffff00" fill-rule="evenodd" stroke="none" d="M 195.856 443.658 C 195.857 443.656 204.229 425.428 204.230 425.426 C 204.230 425.427 204.671 434.631 204.671 434.632 C 204.672 434.632 213.884 434.855 213.885 434.855 C 213.883 434.856 195.858 443.657 195.856 443.658 Z"/>
<path fill="#00ff00" fill-rule="evenodd" stroke="none" d="M 652.868 250.995 C 652.866 250.994 634.010 244.152 634.008 244.152 C 634.008 244.152 640.251 250.931 640.252 250.931 C 640.251 250.932 633.940 257.647 633.940 257.648 C 633.942 257.647 652.866 250.996 652.868 250.995 Z"/>
<path fill="#00ffff" fill-rule="evenodd" stroke="none" d="M 595.847 70.813 C 595.845 70.813 577.674 79.309 577.672 79.310 C 577.673 79.310 586.880 79.688 586.881 79.688 C 586.881 79.689 587.167 88.900 587.167 88.901 C 587.167 88.899 595.846 70.814 595.847 70.813 Z"/>
<path fill="#00ffff" fill-rule="evenodd" stroke="none" d="M 121.238 70.813 C 121.240 70.813 139.411 79.309 139.413 79.310 C 139.412 79.310 130.204 79.688 130.203 79.688 C 130.203 79.689 129.918 88.900 129.918 88.901 C 129.917 88.899 121.239 70.814 121.238 70.813 Z"/>
<path fill="#be0027" fill-rule="evenodd" stroke="none" d="M 359.961 578.991 C 359.962 578.989 368.225 555.851 368.226 555.848 C 368.225 555.849 359.962 563.538 359.961 563.538 C 359.960 563.538 351.697 555.849 351.696 555.848 C 351.697 555.851 359.960 578.989 359.961 578.991 Z"/>
<path fill="#ffff00" fill-rule="evenodd" stroke="none" d="M 522.846 443.658 C 522.845 443.656 514.473 425.428 514.472 425.426 C 514.472 425.427 514.031 434.631 514.031 434.632 C 514.031 434.632 504.818 434.855 504.817 434.855 C 504.819 434.856 522.844 443.657 522.846 443.658 Z"/>
</g>
</g>
</svg>
