<?xml version="1.0" encoding="utf-8"?>
<!-- Generator: Moho 13.5 build 20210422 -->
<!DOCTYPE svg PUBLIC "-//W3C//DTD SVG 1.1//EN" "http://www.w3.org/Graphics/SVG/1.1/DTD/svg11.dtd">
<svg version="1.1" id="Frame_0" xmlns="http://www.w3.org/2000/svg" xmlns:xlink="http://www.w3.org/1999/xlink" width="720px" height="720px">
<g id="hierophant">
<g id="hierophant_2">
<path id="S22" fill="#000000" fill-rule="evenodd" stroke="#ffffff" stroke-width="2" stroke-linecap="round" stroke-linejoin="round" d="M 219.675 424.293 C 219.704 424.293 504.233 424.294 504.260 424.293 C 506.562 496.330 529.864 675.147 529.867 675.172 C 529.833 675.172 194.102 675.172 194.068 675.172 C 194.070 675.147 219.673 424.318 219.675 424.293 Z"/>
<path id="S28" fill="#000000" fill-rule="evenodd" stroke="#ffffff" stroke-width="2" stroke-linecap="round" stroke-linejoin="round" d="M 138.527 240.029 C 138.635 240.006 361.946 202.793 361.967 202.789 C 361.990 202.793 585.385 240.031 585.408 240.029 C 584.443 394.528 499.302 500.710 361.967 500.710 C 241.800 500.710 139.599 411.694 138.527 240.029 Z"/>
<path id="S14" fill="#ffffff" fill-rule="evenodd" stroke="#000000" stroke-width="2" stroke-linecap="round" stroke-linejoin="round" d="M 210.343 220.077 C 210.908 219.959 361.952 194.809 361.967 194.806 C 361.983 194.809 513.576 220.078 513.592 220.077 C 512.937 324.918 455.161 396.972 361.967 396.972 C 280.423 396.972 211.071 336.567 210.343 220.077 Z"/>
<path id="S15" fill="#000000" fill-rule="evenodd" stroke="#ffffff" stroke-width="2" stroke-linecap="round" stroke-linejoin="round" d="M 238.656 215.614 C 239.116 215.518 361.955 195.064 361.967 195.061 C 361.980 195.064 485.266 215.615 485.279 215.614 C 484.746 300.877 437.759 359.476 361.967 359.476 C 295.650 359.476 239.249 310.351 238.656 215.614 Z"/>
<path id="S23" fill="#ffffff" fill-rule="evenodd" stroke="#000000" stroke-width="2" stroke-linecap="round" stroke-linejoin="round" d="M 351.216 236.568 C 351.218 236.568 372.661 236.568 372.663 236.568 C 372.663 236.609 378.041 642.830 378.041 642.871 C 378.038 642.871 345.813 642.871 345.810 642.871 C 345.810 642.830 351.216 236.609 351.216 236.568 Z"/>
<path id="S24" fill="#ffffff" fill-rule="evenodd" stroke="#000000" stroke-width="2" stroke-linecap="round" stroke-linejoin="round" d="M 638.503 156.175 C 638.497 156.175 604.293 156.175 586.651 156.175 C 586.667 257.314 586.669 428.272 586.669 428.299 C 586.668 428.299 573.712 428.299 573.711 428.299 C 573.711 428.272 573.713 247.824 573.726 156.175 C 553.795 156.175 521.883 156.175 521.878 156.175 C 521.878 156.174 521.878 143.218 521.878 143.217 C 521.883 143.217 553.795 143.217 573.725 143.217 C 573.723 138.954 573.721 134.499 573.693 130.258 C 558.325 130.258 534.840 130.258 534.836 130.258 C 534.836 130.257 534.836 117.301 534.836 117.300 C 534.840 117.300 558.325 117.300 573.692 117.300 C 573.696 112.929 573.699 108.532 573.691 104.342 C 563.215 104.342 547.797 104.342 547.794 104.342 C 547.794 104.340 547.794 91.385 547.794 91.383 C 547.797 91.383 563.215 91.383 573.691 91.383 C 573.711 79.362 573.711 65.469 573.711 65.467 C 573.712 65.467 586.668 65.467 586.669 65.467 C 586.669 65.469 586.669 83.090 586.662 91.383 C 595.308 91.383 612.583 91.383 612.586 91.383 C 612.586 91.385 612.586 104.340 612.586 104.342 C 612.583 104.342 595.308 104.342 586.662 104.342 C 586.662 108.479 586.663 112.670 586.700 117.300 C 599.541 117.300 625.540 117.300 625.544 117.300 C 625.544 117.301 625.544 130.257 625.544 130.258 C 625.540 130.258 599.541 130.258 586.701 130.258 C 586.700 134.308 586.699 138.398 586.650 143.217 C 604.293 143.217 638.497 143.217 638.503 143.217 C 638.503 143.218 638.503 156.174 638.503 156.175 Z"/>
<path id="S7" fill="#ffffff" fill-rule="evenodd" stroke="#000000" stroke-width="2" stroke-linecap="round" stroke-linejoin="round" d="M 548.603 231.141 C 548.606 231.141 579.199 231.141 579.202 231.141 C 579.202 231.145 579.202 271.936 579.202 271.940 C 579.199 271.940 548.606 271.940 548.603 271.940 C 548.603 271.936 548.603 231.145 548.603 231.141 Z"/>
<path id="S8" fill="#ffffff" fill-rule="evenodd" stroke="#000000" stroke-width="2" stroke-linecap="round" stroke-linejoin="round" d="M 579.202 231.141 C 579.204 231.141 599.599 231.141 599.602 231.141 C 599.602 231.142 599.602 241.339 599.602 241.340 C 599.599 241.340 579.204 241.340 579.202 241.340 C 579.202 241.339 579.202 231.142 579.202 231.141 Z"/>
<path id="S9" fill="#ffffff" fill-rule="evenodd" stroke="#000000" stroke-width="2" stroke-linecap="round" stroke-linejoin="round" d="M 579.202 241.340 C 579.204 241.340 599.599 241.340 599.602 241.340 C 599.602 241.341 599.602 251.539 599.602 251.540 C 599.599 251.540 579.204 251.540 579.202 251.540 C 579.202 251.539 579.202 241.341 579.202 241.340 Z"/>
<path id="S10" fill="#ffffff" fill-rule="evenodd" stroke="#000000" stroke-width="2" stroke-linecap="round" stroke-linejoin="round" d="M 579.202 251.540 C 579.204 251.540 599.599 251.540 599.602 251.540 C 599.602 251.541 599.602 261.739 599.602 261.740 C 599.599 261.740 579.204 261.740 579.202 261.740 C 579.202 261.739 579.202 251.541 579.202 251.540 Z"/>
<path id="S11" fill="#ffffff" fill-rule="evenodd" stroke="#000000" stroke-width="2" stroke-linecap="round" stroke-linejoin="round" d="M 579.202 261.740 C 579.204 261.740 599.599 261.740 599.602 261.740 C 599.602 261.741 599.602 271.939 599.602 271.940 C 599.599 271.940 579.204 271.940 579.202 271.940 C 579.202 271.939 579.202 261.741 579.202 261.740 Z"/>
<path id="S12" fill="#ffffff" fill-rule="evenodd" stroke="#000000" stroke-width="2" stroke-linecap="round" stroke-linejoin="round" d="M 569.003 241.340 C 569.003 241.343 569.003 261.738 569.003 261.740 C 569.003 261.738 569.003 241.343 569.003 241.340 C 569.003 241.340 569.003 241.340 569.003 241.340 M 569.003 261.740 C 569.003 261.740 569.003 261.740 569.003 261.740 C 569.004 261.740 579.201 261.740 579.202 261.740 C 579.202 261.740 579.202 261.740 579.202 261.740 C 579.201 261.740 569.004 261.740 569.003 261.740 C 569.003 261.740 569.003 261.740 569.003 261.740 Z"/>
<path id="S16" fill="#ffffff" fill-rule="evenodd" stroke="#000000" stroke-width="2" stroke-linecap="round" stroke-linejoin="round" d="M 361.967 143.341 C 402.775 143.341 410.542 174.497 410.983 192.628 C 411.446 211.705 404.398 246.712 361.464 246.448 C 318.927 246.187 312.414 211.526 312.952 192.628 C 313.468 174.499 321.160 143.341 361.967 143.341 Z"/>
<path id="S16_2" fill="#000000" fill-rule="evenodd" stroke="#ffffff" stroke-width="2" stroke-linecap="round" stroke-linejoin="round" d="M 361.967 126.031 C 402.775 126.031 410.607 157.185 410.983 175.318 C 411.372 194.114 404.267 228.130 361.967 228.130 C 319.667 228.130 312.563 194.114 312.952 175.318 C 313.328 157.185 321.160 126.031 361.967 126.031 Z"/>
<path id="S17" fill="#ffffff" fill-rule="evenodd" stroke="#000000" stroke-width="2" stroke-linecap="round" stroke-linejoin="round" d="M 409.727 138.409 C 411.724 206.288 361.953 225.100 361.949 225.109 C 361.944 225.100 312.174 206.288 314.170 138.409 C 314.170 138.409 409.727 138.409 409.727 138.409 Z"/>
<path id="S18" fill="none" stroke="#000000" stroke-width="2" stroke-linecap="round" stroke-linejoin="round" d="M 402.324 158.220 C 402.321 158.220 374.076 151.000 366.486 158.616 C 366.483 158.618 366.486 195.878 366.486 195.882 C 366.485 195.882 357.413 195.882 357.412 195.882 C 357.412 195.878 357.415 158.618 357.412 158.616 C 349.932 151.430 322.852 159.471 322.848 159.471 "/>
<path id="S20" fill="#000000" fill-rule="evenodd" stroke="none" d="M 368.000 169.478 C 368.001 169.477 375.944 162.076 382.218 162.076 C 388.491 162.076 396.434 169.477 396.435 169.478 C 396.434 169.479 388.491 176.879 382.218 176.879 C 375.944 176.879 368.001 169.479 368.000 169.478 M 327.461 169.478 C 327.463 169.477 335.405 162.077 341.678 162.077 C 347.952 162.077 355.895 169.477 355.896 169.478 C 355.895 169.479 347.952 176.879 341.678 176.879 C 335.405 176.879 327.463 169.479 327.461 169.478 Z"/>
<path id="S19" fill="#ffffff" fill-rule="evenodd" stroke="#000000" stroke-width="2" stroke-linecap="round" stroke-linejoin="round" d="M 425.653 310.958 C 425.652 310.943 409.729 154.351 409.727 154.335 C 409.726 154.332 393.803 122.486 393.801 122.482 C 393.801 122.503 393.801 326.864 393.801 326.885 C 393.804 326.883 425.650 310.960 425.653 310.958 M 298.244 310.958 C 298.246 310.943 314.169 154.351 314.170 154.335 C 314.172 154.332 330.095 122.486 330.097 122.482 C 330.097 122.503 330.097 326.864 330.097 326.885 C 330.093 326.883 298.247 310.960 298.244 310.958 Z"/>
<path id="S6_2" fill="none" stroke="#ffffff" stroke-width="2" stroke-linecap="round" stroke-linejoin="round" d="M 409.455 155.390 C 380.491 143.425 338.868 145.239 314.403 155.390 "/>
<path id="S6_2_2" fill="#000000" fill-rule="evenodd" stroke="#ffffff" stroke-width="2" stroke-linecap="round" stroke-linejoin="round" d="M 361.890 37.482 C 361.897 37.488 422.228 44.501 423.887 103.991 C 423.875 103.995 333.285 113.959 299.971 104.111 C 301.565 44.471 361.884 37.488 361.890 37.482 Z"/>
<path id="S4_2" fill="#ffffff" fill-rule="evenodd" stroke="#000000" stroke-width="2" stroke-linecap="round" stroke-linejoin="round" d="M 325.201 37.921 C 325.203 37.922 341.271 50.798 341.273 50.799 C 342.290 60.781 355.402 57.869 349.980 45.935 C 350.480 45.244 361.900 18.892 361.901 18.890 C 361.902 18.892 373.807 45.932 373.808 45.935 C 368.365 57.876 381.486 60.810 382.508 50.837 C 387.835 47.176 398.582 38.000 398.584 37.999 C 398.584 38.000 387.228 94.380 384.767 97.946 C 372.747 88.874 349.221 90.380 339.091 98.087 C 336.560 93.792 325.202 37.923 325.201 37.921 Z"/>
<path id="S3_2" fill="#ffffff" fill-rule="evenodd" stroke="#000000" stroke-width="2" stroke-linecap="round" stroke-linejoin="round" d="M 290.623 75.845 C 290.625 75.846 302.255 85.564 302.257 85.565 C 302.918 108.918 327.349 93.505 317.198 77.752 C 318.381 71.833 320.506 60.221 320.506 60.220 C 320.508 60.221 332.141 73.068 332.142 73.069 C 328.431 94.099 360.969 94.826 352.793 68.153 C 355.626 62.382 361.808 50.390 361.809 50.389 C 361.809 50.390 370.897 68.106 370.898 68.108 C 362.850 94.819 395.381 93.925 391.564 72.959 C 395.011 68.753 403.140 60.093 403.141 60.092 C 403.142 60.093 406.531 77.564 406.531 77.566 C 396.462 93.327 420.967 108.612 421.488 85.336 C 424.775 82.251 433.052 75.632 433.053 75.631 C 433.052 75.637 417.313 125.683 415.550 130.494 C 382.962 116.953 335.973 119.253 308.515 130.902 C 306.868 125.247 290.625 75.851 290.623 75.845 Z"/>
<path id="S4_3" fill="#ffffff" fill-rule="evenodd" stroke="#000000" stroke-width="2" stroke-linecap="round" stroke-linejoin="round" d="M 298.630 103.858 C 298.631 103.859 308.938 113.606 308.939 113.607 C 309.417 134.932 331.906 119.940 322.225 105.832 C 323.232 99.903 325.201 88.309 325.201 88.307 C 325.202 88.309 335.505 101.185 335.506 101.186 C 331.906 119.940 361.890 119.940 353.856 96.322 C 356.452 90.596 361.900 78.581 361.901 78.579 C 361.902 78.581 369.932 96.319 369.933 96.321 C 361.890 119.939 391.875 119.939 388.275 101.224 C 391.514 97.190 398.583 88.386 398.584 88.385 C 398.584 88.387 401.555 105.866 401.556 105.868 C 391.875 119.940 414.364 134.932 414.820 113.675 C 417.893 110.786 425.112 104.000 425.113 103.999 C 425.112 104.003 416.600 132.469 412.722 145.040 C 411.150 150.204 409.929 154.087 409.455 155.390 C 380.491 143.425 338.868 145.239 314.403 155.390 C 313.971 153.860 312.763 149.856 311.235 144.868 C 307.300 131.938 298.631 103.863 298.630 103.858 Z"/>
<path fill="none" stroke="#000000" stroke-width="1" stroke-linecap="butt" stroke-linejoin="round" d="M 311.235 144.868 C 312.763 149.856 313.971 153.860 314.403 155.390 "/>
<path fill="none" stroke="#000000" stroke-width="1" stroke-linecap="butt" stroke-linejoin="round" d="M 314.403 155.390 C 338.868 145.239 380.491 143.425 409.455 155.390 "/>
<path fill="none" stroke="#000000" stroke-width="1" stroke-linecap="butt" stroke-linejoin="round" d="M 409.455 155.390 C 409.929 154.087 411.150 150.204 412.722 145.040 "/>
<path id="S30" fill="#000000" fill-rule="evenodd" stroke="#ffffff" stroke-width="2" stroke-linecap="round" stroke-linejoin="round" d="M 412.722 145.040 C 381.829 132.188 337.386 134.102 311.235 144.868 C 312.763 149.856 313.971 153.860 314.403 155.390 C 338.868 145.239 380.491 143.425 409.455 155.390 C 409.929 154.087 411.150 150.204 412.722 145.040 Z"/>
<path id="S25" fill="#ffffff" fill-rule="evenodd" stroke="none" d="M 180.000 163.748 C 179.999 163.747 169.801 163.748 169.800 163.748 C 169.800 162.225 169.800 159.180 169.800 159.179 C 169.800 159.178 159.602 159.179 159.601 159.179 C 159.601 159.182 159.601 189.142 159.601 189.145 C 159.601 189.148 159.638 209.375 159.601 219.523 C 159.600 219.523 149.646 220.133 149.645 220.134 C 149.644 220.134 139.202 220.377 139.201 220.378 C 139.178 224.426 139.150 240.607 139.150 240.607 C 139.155 240.607 180.160 240.607 180.164 240.607 C 180.164 240.732 180.000 163.755 180.000 163.748 Z"/>
<path id="S25" fill="none" stroke="#000000" stroke-width="2" stroke-linecap="round" stroke-linejoin="round" d="M 169.800 163.748 C 169.800 163.751 169.800 191.386 169.800 198.498 M 180.000 163.748 C 179.999 163.747 169.801 163.748 169.800 163.748 C 169.800 162.225 169.800 159.180 169.800 159.179 C 169.800 159.178 159.602 159.179 159.601 159.179 C 159.601 159.182 159.601 189.142 159.601 189.145 C 159.601 189.148 159.638 209.375 159.601 219.523 C 159.600 219.523 149.646 220.133 149.645 220.134 C 149.644 220.134 139.202 220.377 139.201 220.378 C 139.178 224.426 139.150 240.607 139.150 240.607 C 139.155 240.607 180.160 240.607 180.164 240.607 C 180.164 240.732 180.000 163.755 180.000 163.748 "/>
<path fill="none" stroke="#ffffff" stroke-width="1" stroke-linecap="butt" stroke-linejoin="round" d="M 159.601 219.523 C 159.638 209.375 159.601 189.148 159.601 189.145 "/>
<path fill="none" stroke="#ffffff" stroke-width="1" stroke-linecap="butt" stroke-linejoin="round" d="M 149.645 220.134 C 149.646 220.133 159.600 219.523 159.601 219.523 "/>
<path id="S26" fill="#ffffff" fill-rule="evenodd" stroke="#000000" stroke-width="2" stroke-linecap="round" stroke-linejoin="round" d="M 159.601 219.523 C 159.638 209.375 159.601 189.148 159.601 189.145 C 156.160 189.275 149.280 189.535 149.278 189.535 C 149.278 189.536 149.645 220.131 149.645 220.134 C 149.646 220.133 159.600 219.523 159.601 219.523 Z"/>
<path fill="none" stroke="#ffffff" stroke-width="1" stroke-linecap="butt" stroke-linejoin="round" d="M 139.201 220.378 C 139.202 220.377 149.644 220.134 149.645 220.134 "/>
<path fill="none" stroke="#ffffff" stroke-width="1" stroke-linecap="butt" stroke-linejoin="round" d="M 149.645 220.134 C 149.645 220.131 149.278 189.536 149.278 189.535 "/>
<path id="S27" fill="#ffffff" fill-rule="evenodd" stroke="#000000" stroke-width="2" stroke-linecap="round" stroke-linejoin="round" d="M 139.201 189.779 C 139.201 189.782 139.201 220.374 139.201 220.378 C 139.202 220.377 149.644 220.134 149.645 220.134 C 149.645 220.131 149.278 189.536 149.278 189.535 C 149.277 189.535 139.202 189.779 139.201 189.779 Z"/>
<path id="S31" fill="#ffffff" fill-rule="evenodd" stroke="#000000" stroke-width="2" stroke-linecap="round" stroke-linejoin="round" d="M 153.855 241.161 C 165.750 240.820 182.599 241.143 182.602 241.143 C 182.602 241.138 186.992 185.022 186.992 185.016 C 186.991 185.017 178.310 184.499 176.888 190.457 C 175.274 197.221 174.544 204.096 173.777 209.710 C 165.136 212.127 150.866 206.787 153.855 241.161 Z"/>
</g>
<g id="specs_2">
<path fill="#ff00ff" fill-rule="evenodd" stroke="none" d="M 234.200 655.731 C 234.225 655.731 485.775 655.731 485.800 655.731 C 485.800 655.689 485.800 230.256 485.800 230.214 C 485.775 230.214 234.225 230.214 234.200 230.214 C 234.200 230.256 234.200 655.689 234.200 655.731 Z"/>
<path fill="#ff0000" fill-rule="evenodd" stroke="none" d="M 360.000 662.331 C 360.001 662.335 372.416 697.097 372.417 697.101 C 372.416 697.100 360.001 685.548 360.000 685.547 C 359.999 685.548 347.584 697.100 347.583 697.101 C 347.584 697.097 359.999 662.335 360.000 662.331 Z"/>
<path fill="#0000ff" fill-rule="evenodd" stroke="none" d="M 580.050 62.998 C 580.051 63.000 587.263 83.193 587.263 83.195 C 587.263 83.194 580.051 76.485 580.050 76.484 C 580.050 76.485 572.838 83.194 572.837 83.195 C 572.838 83.193 580.050 63.000 580.050 62.998 Z"/>
<path fill="#00ff00" fill-rule="evenodd" stroke="none" d="M 11.812 630.926 C 11.813 630.928 19.503 652.121 19.504 652.123 C 19.503 652.122 11.884 645.106 11.884 645.105 C 11.883 645.106 4.336 652.199 4.336 652.200 C 4.336 652.197 11.811 630.928 11.812 630.926 Z"/>
<path fill="#00ff00" fill-rule="evenodd" stroke="none" d="M 708.188 630.926 C 708.187 630.928 700.497 652.121 700.496 652.123 C 700.497 652.122 708.116 645.106 708.116 645.105 C 708.117 645.106 715.664 652.199 715.664 652.200 C 715.664 652.197 708.189 630.928 708.188 630.926 Z"/>
</g>
</g>
</svg>
