<?xml version="1.0" encoding="utf-8"?>
<!-- Generator: Moho 13.5 build 20210422 -->
<!DOCTYPE svg PUBLIC "-//W3C//DTD SVG 1.1//EN" "http://www.w3.org/Graphics/SVG/1.1/DTD/svg11.dtd">
<svg version="1.1" id="Frame_0" xmlns="http://www.w3.org/2000/svg" xmlns:xlink="http://www.w3.org/1999/xlink" width="720px" height="720px">
<g id="halves">
<g id="horse_fore">
<g id="horse_fore">
<path fill="#ffffff" fill-rule="evenodd" stroke="#000000" stroke-width="4" stroke-linecap="round" stroke-linejoin="round" d="M 359.986 290.269 C 359.993 339.304 359.996 398.194 360.057 452.727 C 350.746 455.434 340.477 457.917 329.786 459.750 C 289.309 466.693 249.267 460.992 249.259 460.992 C 249.256 460.992 220.345 456.127 220.342 456.126 C 220.345 456.127 249.667 462.217 249.670 462.217 C 249.671 462.221 257.818 491.612 258.448 494.434 C 259.382 498.619 267.003 534.962 266.795 543.261 C 266.733 545.729 264.142 557.749 264.142 557.750 C 264.142 557.754 268.801 590.302 268.802 590.306 C 268.803 590.310 279.852 636.403 279.853 636.408 C 279.853 636.409 279.570 643.825 273.554 644.578 C 268.276 645.238 264.081 633.536 263.600 644.619 C 263.393 649.394 268.141 654.426 268.177 657.268 C 268.222 660.714 262.813 672.672 262.813 672.673 C 262.810 672.674 248.334 679.371 233.888 680.033 C 222.367 680.561 210.349 676.513 210.347 676.512 C 210.348 676.510 223.093 654.425 228.330 649.291 C 231.795 645.895 246.376 637.454 246.378 637.452 C 246.377 637.452 244.519 632.939 245.435 628.408 C 246.702 622.145 251.723 617.524 251.724 617.523 C 251.723 617.518 243.358 564.176 243.357 564.171 C 243.356 564.169 232.532 550.573 232.396 539.786 C 232.353 536.323 235.076 531.638 235.076 531.631 C 235.078 531.604 226.798 499.094 226.797 499.090 C 226.796 499.089 221.241 491.726 216.779 483.750 C 210.470 472.469 205.824 460.271 205.822 460.269 C 205.821 460.269 195.859 457.597 195.858 457.596 C 195.851 457.600 133.573 492.238 133.567 492.241 C 133.568 492.244 136.488 508.128 140.685 517.397 C 145.560 528.165 154.666 536.129 157.306 542.815 C 158.509 545.862 154.124 555.896 160.077 556.376 C 161.107 556.459 173.629 551.795 173.630 551.795 C 173.632 551.797 188.014 564.530 190.910 572.535 C 193.628 580.047 191.016 597.867 191.016 597.870 C 191.012 597.869 163.095 590.318 156.582 586.251 C 151.308 582.957 138.457 570.242 135.684 565.527 C 131.240 557.971 127.444 525.145 124.106 519.804 C 113.294 502.506 104.259 486.615 106.141 478.934 C 107.453 473.582 122.331 464.186 129.369 458.234 C 140.718 448.636 168.580 426.948 168.584 426.945 C 168.582 426.941 155.087 401.062 153.924 383.573 C 153.248 373.401 158.872 361.147 158.339 357.313 C 157.702 352.728 147.366 344.625 144.362 328.695 C 141.293 312.427 146.738 298.556 146.033 295.493 C 135.758 250.894 112.667 241.497 115.703 235.055 C 121.137 223.526 113.917 199.658 113.917 199.655 C 113.916 199.659 120.620 229.769 106.863 244.022 C 98.262 252.934 88.787 248.622 88.785 248.622 C 88.784 248.624 77.080 262.243 77.079 262.244 C 77.079 262.246 78.858 280.094 78.067 282.147 C 77.306 284.125 67.788 293.913 64.551 295.777 C 63.079 296.624 56.194 298.299 56.193 298.299 C 56.194 298.297 58.130 274.994 58.130 274.992 C 58.130 274.992 52.453 294.835 52.065 295.702 C 51.217 297.600 29.733 296.091 30.375 273.749 C 30.452 271.081 33.665 266.951 33.665 266.950 C 33.666 266.942 43.355 189.572 43.356 189.564 C 43.356 189.563 38.630 185.474 38.629 185.473 C 38.630 185.471 46.273 161.955 46.274 161.952 C 46.272 161.950 31.320 138.472 31.318 138.470 C 31.319 138.470 39.423 139.481 44.334 141.598 C 50.582 144.291 58.515 151.023 58.516 151.024 C 58.523 151.022 91.212 136.454 130.843 136.243 C 178.893 135.989 224.436 170.132 246.329 193.166 C 263.948 211.702 298.936 271.617 312.742 278.850 C 322.329 283.872 339.328 288.979 359.986 290.269 M 38.625 279.611 C 38.324 277.075 38.371 273.308 40.918 273.501 C 45.742 273.866 42.486 277.764 42.578 280.626 C 42.630 282.223 43.510 284.156 41.996 284.666 C 39.742 285.424 38.906 281.972 38.625 279.611 Z"/>
<path fill="#000000" fill-rule="evenodd" stroke="none" d="M 56.425 196.287 C 60.574 196.270 63.935 199.603 63.953 203.753 C 63.970 207.902 60.637 211.264 56.488 211.281 C 52.338 211.299 48.976 207.965 48.959 203.816 C 48.942 199.666 52.275 196.305 56.425 196.287 Z"/>
</g>
<g id="specs_2">
<path fill="#ff00ff" fill-rule="evenodd" stroke="none" d="M 187.951 441.692 C 187.965 441.692 333.090 441.692 333.104 441.692 C 333.104 441.678 333.104 296.554 333.104 296.539 C 333.090 296.539 187.965 296.539 187.951 296.539 C 187.951 296.554 187.951 441.678 187.951 441.692 Z"/>
<path fill="#ff0000" fill-rule="evenodd" stroke="none" d="M 342.941 367.484 C 342.944 367.483 368.407 358.389 368.410 358.388 C 368.409 358.389 359.948 367.483 359.947 367.484 C 359.948 367.485 368.409 376.579 368.410 376.579 C 368.407 376.579 342.944 367.485 342.941 367.484 Z"/>
<path fill="#0000ff" fill-rule="evenodd" stroke="none" d="M 127.778 125.812 C 127.778 125.814 133.061 140.605 133.061 140.607 C 133.061 140.606 127.778 135.691 127.778 135.690 C 127.777 135.691 122.494 140.606 122.494 140.607 C 122.494 140.605 127.777 125.814 127.778 125.812 Z"/>
<path fill="#00ff00" fill-rule="evenodd" stroke="none" d="M 347.451 279.082 C 347.450 279.083 342.093 293.848 342.093 293.849 C 342.093 293.849 347.401 288.961 347.401 288.960 C 347.402 288.961 352.659 293.902 352.660 293.903 C 352.659 293.901 347.452 279.083 347.451 279.082 Z"/>
<path fill="#be0027" fill-rule="evenodd" stroke="none" d="M 376.715 367.266 C 376.713 367.265 351.249 358.172 351.247 358.171 C 351.247 358.172 359.709 367.265 359.710 367.266 C 359.709 367.267 351.247 376.361 351.247 376.362 C 351.249 376.361 376.713 367.267 376.715 367.266 Z"/>
<path fill="none" stroke="#ffff00" stroke-width="4" stroke-linecap="round" stroke-linejoin="round" d="M 359.986 290.269 C 359.993 339.304 359.996 398.194 360.057 452.727 "/>
</g>
</g>
</g>
</svg>
