<?xml version="1.0" encoding="utf-8"?>
<!-- Generator: Moho 13.5 build 20210422 -->
<!DOCTYPE svg PUBLIC "-//W3C//DTD SVG 1.1//EN" "http://www.w3.org/Graphics/SVG/1.1/DTD/svg11.dtd">
<svg version="1.1" id="Frame_0" xmlns="http://www.w3.org/2000/svg" xmlns:xlink="http://www.w3.org/1999/xlink" width="720px" height="720px">
<g id="halves">
<g id="horse_hind">
<g id="horse_hind">
<path fill="#ffffff" fill-rule="evenodd" stroke="#000000" stroke-width="4" stroke-linecap="round" stroke-linejoin="round" d="M 359.986 290.269 C 359.993 339.304 359.996 398.194 360.057 452.727 C 396.390 442.166 422.772 427.397 425.564 426.775 C 426.786 426.503 460.295 422.356 460.299 422.356 C 460.295 422.357 425.778 427.824 425.775 427.825 C 425.775 427.828 422.942 444.227 427.873 456.098 C 435.627 474.761 463.403 492.209 463.580 501.418 C 463.752 510.413 430.595 547.096 430.592 547.100 C 430.588 547.104 405.922 570.233 396.346 580.270 C 391.397 585.457 390.692 607.579 390.135 609.705 C 389.854 610.778 385.672 620.070 385.671 624.202 C 385.669 633.637 397.569 656.724 397.570 656.727 C 397.572 656.726 407.941 651.733 413.866 645.145 C 419.810 638.537 423.689 627.664 423.690 627.662 C 423.689 627.660 412.343 612.975 414.531 601.459 C 416.462 591.295 424.965 593.503 427.150 589.643 C 429.259 585.919 428.153 576.182 430.702 573.341 C 445.107 557.281 482.444 519.626 502.198 516.963 C 504.850 516.605 509.509 503.900 498.795 495.152 C 481.341 480.900 491.253 458.706 491.252 458.703 C 491.249 458.699 464.026 423.391 464.023 423.387 C 464.026 423.391 490.743 457.757 490.746 457.760 C 490.749 457.762 522.981 474.296 526.214 477.026 C 528.534 478.986 536.934 494.117 544.405 499.571 C 553.579 506.269 568.468 509.762 570.032 514.697 C 573.655 526.131 594.689 560.405 597.178 569.025 C 600.119 579.211 606.799 634.904 603.811 640.481 C 603.037 641.926 591.626 648.075 588.775 651.405 C 583.539 657.521 574.127 682.226 574.125 682.229 C 574.127 682.229 587.201 683.986 595.524 683.995 C 604.797 684.006 619.365 682.040 619.368 682.040 C 619.368 682.039 621.117 667.556 621.117 667.555 C 621.117 667.554 625.965 664.220 626.523 662.103 C 627.721 657.557 620.170 650.478 620.729 646.669 C 622.740 632.963 634.721 647.293 634.419 638.845 C 633.105 602.043 624.626 612.451 614.298 551.761 C 612.527 541.353 612.907 507.600 609.566 502.014 C 607.488 498.540 591.243 492.193 584.454 483.718 C 571.694 467.792 560.114 454.682 563.114 429.365 C 564.897 414.313 577.035 421.668 586.441 381.763 C 591.467 360.442 586.138 309.383 586.138 309.376 C 586.141 309.378 606.583 321.387 610.273 328.580 C 625.456 358.176 588.790 373.944 600.096 455.077 C 606.288 499.507 649.673 543.994 681.089 548.398 C 651.859 512.579 658.491 479.332 652.439 440.531 C 645.997 399.228 662.491 359.221 636.649 325.000 C 620.327 303.387 570.690 292.251 570.684 292.248 C 570.677 292.246 537.529 268.723 505.429 267.185 C 480.032 265.969 458.443 274.240 405.071 286.607 C 389.157 290.294 373.758 291.130 359.986 290.269 Z"/>
</g>
<g id="specs_2">
<path fill="#ff00ff" fill-rule="evenodd" stroke="none" d="M 429.779 413.163 C 429.791 413.163 555.608 413.163 555.621 413.163 C 555.621 413.150 555.621 287.334 555.621 287.321 C 555.608 287.321 429.791 287.321 429.779 287.321 C 429.779 287.334 429.779 413.150 429.779 413.163 Z"/>
<path fill="#ff0000" fill-rule="evenodd" stroke="none" d="M 377.570 369.228 C 377.567 369.229 351.856 378.411 351.853 378.412 C 351.854 378.411 360.398 369.229 360.399 369.228 C 360.398 369.227 351.854 360.044 351.853 360.044 C 351.856 360.044 377.567 369.227 377.570 369.228 Z"/>
<path fill="#0000ff" fill-rule="evenodd" stroke="none" d="M 340.075 368.999 C 340.078 368.998 370.164 358.253 370.167 358.252 C 370.166 358.253 360.169 368.998 360.168 368.999 C 360.169 369.000 370.166 379.745 370.167 379.746 C 370.164 379.745 340.078 369.000 340.075 368.999 Z"/>
<path fill="#00ff00" fill-rule="evenodd" stroke="none" d="M 378.660 282.772 C 378.659 282.774 374.015 295.574 374.014 295.575 C 374.015 295.575 378.616 291.337 378.616 291.336 C 378.617 291.337 383.175 295.621 383.175 295.621 C 383.175 295.620 378.660 282.774 378.660 282.772 Z"/>
<path fill="#ffff00" fill-rule="evenodd" stroke="none" d="M 498.201 252.993 C 498.202 252.995 506.086 275.071 506.087 275.073 C 506.086 275.073 498.202 267.737 498.201 267.736 C 498.201 267.737 490.316 275.073 490.316 275.073 C 490.316 275.071 498.201 252.995 498.201 252.993 Z"/>
<path fill="none" stroke="#ffff00" stroke-width="4" stroke-linecap="round" stroke-linejoin="round" d="M 359.986 290.269 C 359.993 339.304 359.996 398.194 360.057 452.727 "/>
</g>
</g>
</g>
</svg>
