<?xml version="1.0" encoding="utf-8"?>
<!-- Generator: Moho 13.5 build 20210422 -->
<!DOCTYPE svg PUBLIC "-//W3C//DTD SVG 1.1//EN" "http://www.w3.org/Graphics/SVG/1.1/DTD/svg11.dtd">
<svg version="1.1" id="Frame_0" xmlns="http://www.w3.org/2000/svg" xmlns:xlink="http://www.w3.org/1999/xlink" width="720px" height="720px">
<g id="horse">
<g id="horse">
<path fill="#ffffff" fill-rule="evenodd" stroke="#000000" stroke-width="4" stroke-linecap="round" stroke-linejoin="round" d="M 42.183 248.617 C 42.234 250.215 43.115 252.151 41.600 252.661 C 39.343 253.421 38.506 249.964 38.225 247.600 C 37.923 245.061 37.970 241.290 40.520 241.483 C 45.351 241.848 42.091 245.751 42.183 248.617 M 30.909 106.283 C 30.910 106.285 45.881 129.793 45.883 129.795 C 45.882 129.798 38.230 153.343 38.229 153.346 C 38.230 153.346 42.961 157.441 42.962 157.441 C 42.961 157.449 33.260 234.916 33.259 234.924 C 33.259 234.924 30.042 239.059 29.965 241.731 C 29.321 264.101 50.832 265.611 51.682 263.712 C 52.070 262.843 57.754 242.975 57.754 242.975 C 57.754 242.978 55.815 266.310 55.815 266.312 C 55.816 266.312 62.709 264.635 64.183 263.786 C 67.425 261.920 76.954 252.120 77.716 250.140 C 78.508 248.084 76.727 230.214 76.726 230.212 C 76.728 230.211 88.446 216.575 88.447 216.573 C 88.449 216.573 97.936 220.890 106.548 211.967 C 120.322 197.696 113.609 167.549 113.610 167.545 C 113.610 167.548 120.840 191.446 115.399 202.989 C 112.359 209.439 135.479 218.848 145.766 263.502 C 146.473 266.569 141.021 280.457 144.093 296.746 C 147.102 312.696 157.450 320.809 158.088 325.400 C 158.622 329.238 152.991 341.507 153.668 351.692 C 154.832 369.202 168.344 395.113 168.345 395.118 C 168.341 395.121 140.445 416.836 129.082 426.445 C 122.035 432.405 107.138 441.813 105.825 447.172 C 103.940 454.862 112.987 470.773 123.813 488.093 C 127.155 493.440 130.955 526.307 135.404 533.872 C 138.181 538.594 151.048 551.325 156.329 554.622 C 162.849 558.694 190.802 566.255 190.805 566.256 C 190.805 566.253 193.420 548.411 190.699 540.889 C 187.800 532.874 173.400 520.125 173.398 520.123 C 173.397 520.124 160.860 524.793 159.828 524.710 C 153.867 524.229 158.258 514.183 157.053 511.132 C 154.410 504.438 145.293 496.464 140.412 485.683 C 136.210 476.402 133.286 460.498 133.285 460.496 C 133.291 460.492 195.647 425.811 195.653 425.807 C 195.654 425.808 205.629 428.483 205.630 428.483 C 205.632 428.486 210.284 440.699 216.601 451.993 C 221.068 459.979 226.630 467.352 226.631 467.353 C 226.632 467.356 234.923 499.908 234.921 499.934 C 234.920 499.941 232.194 504.632 232.237 508.099 C 232.373 518.899 243.210 532.513 243.211 532.515 C 243.212 532.520 251.588 585.928 251.589 585.933 C 251.588 585.935 246.561 590.561 245.292 596.832 C 244.375 601.368 246.236 605.887 246.236 605.888 C 246.234 605.889 231.635 614.341 228.166 617.741 C 222.922 622.881 210.162 644.993 210.160 644.996 C 210.163 644.997 222.196 649.050 233.731 648.521 C 248.194 647.858 262.689 641.153 262.692 641.152 C 262.692 641.151 268.107 629.178 268.063 625.728 C 268.026 622.883 263.272 617.844 263.480 613.063 C 263.962 601.966 268.162 613.682 273.446 613.021 C 279.470 612.268 279.753 604.842 279.753 604.841 C 279.752 604.837 268.689 558.687 268.688 558.682 C 268.688 558.679 264.023 526.090 264.022 526.086 C 264.023 526.085 266.617 514.050 266.679 511.579 C 266.888 503.269 259.256 466.882 258.321 462.691 C 257.691 459.866 249.533 430.437 249.532 430.434 C 249.529 430.434 220.171 424.336 220.168 424.336 C 220.171 424.336 249.118 429.207 249.121 429.208 C 249.129 429.207 289.221 434.915 329.749 427.964 C 380.722 419.221 422.107 395.735 425.646 394.948 C 426.869 394.675 460.420 390.524 460.423 390.523 C 460.420 390.524 425.860 395.998 425.857 395.999 C 425.857 396.002 423.020 412.422 427.958 424.307 C 435.721 442.994 463.532 460.463 463.709 469.684 C 463.881 478.690 430.683 515.418 430.680 515.423 C 430.676 515.426 405.979 538.585 396.391 548.634 C 391.436 553.827 390.730 575.977 390.172 578.106 C 389.891 579.179 385.704 588.483 385.703 592.620 C 385.701 602.068 397.616 625.183 397.617 625.186 C 397.619 625.185 408.001 620.186 413.934 613.590 C 419.884 606.973 423.768 596.087 423.769 596.085 C 423.768 596.082 412.409 581.380 414.599 569.849 C 416.533 559.673 425.046 561.883 427.234 558.019 C 429.346 554.290 428.238 544.541 430.790 541.696 C 445.212 525.617 482.597 487.915 502.375 485.248 C 505.031 484.890 509.696 472.168 498.968 463.409 C 481.492 449.140 491.416 426.919 491.416 426.915 C 491.413 426.912 464.156 391.559 464.153 391.556 C 464.156 391.559 490.906 425.968 490.909 425.971 C 490.912 425.973 523.184 442.527 526.421 445.261 C 528.744 447.223 537.155 462.374 544.635 467.835 C 553.821 474.541 568.728 478.038 570.293 482.979 C 573.921 494.427 594.981 528.744 597.474 537.375 C 600.418 547.574 607.106 603.336 604.114 608.920 C 603.340 610.366 591.915 616.523 589.060 619.858 C 583.817 625.981 574.393 650.717 574.392 650.720 C 574.394 650.721 586.815 656.799 595.256 656.975 C 605.049 657.179 619.688 650.531 619.691 650.531 C 619.691 650.529 621.442 636.029 621.442 636.027 C 621.442 636.027 626.296 632.688 626.855 630.569 C 628.055 626.018 620.494 618.929 621.053 615.115 C 623.067 601.392 635.063 615.741 634.761 607.282 C 633.445 570.434 624.956 580.855 614.615 520.090 C 612.842 509.668 613.222 475.873 609.877 470.280 C 607.797 466.802 591.531 460.447 584.733 451.962 C 571.958 436.016 560.364 422.889 563.367 397.541 C 565.152 382.470 577.305 389.835 586.724 349.880 C 591.756 328.532 586.420 277.410 586.420 277.403 C 586.422 277.404 606.890 289.428 610.584 296.630 C 625.786 326.264 589.075 342.051 600.395 423.285 C 606.595 467.770 650.034 512.313 681.489 516.722 C 652.223 480.859 658.863 447.571 652.803 408.720 C 646.353 367.366 662.868 327.309 636.994 293.046 C 620.651 271.406 570.953 260.256 570.946 260.253 C 570.940 260.251 537.750 236.699 505.610 235.159 C 480.181 233.941 458.565 242.222 405.127 254.605 C 365.293 263.835 328.682 255.219 312.683 246.838 C 298.860 239.597 263.828 179.607 246.187 161.047 C 224.267 137.985 178.668 103.799 130.558 104.054 C 90.877 104.265 58.148 118.851 58.141 118.853 C 58.139 118.852 50.196 112.112 43.941 109.416 C 39.023 107.296 30.910 106.284 30.909 106.283 Z"/>
<path fill="#000000" fill-rule="evenodd" stroke="none" d="M 56.046 164.173 C 60.201 164.156 63.567 167.493 63.584 171.648 C 63.602 175.802 60.264 179.168 56.110 179.186 C 51.955 179.203 48.589 175.866 48.572 171.711 C 48.554 167.556 51.892 164.190 56.046 164.173 Z"/>
</g>
<g id="specs_2">
<path fill="#ff00ff" fill-rule="evenodd" stroke="none" d="M 173.557 393.447 C 173.596 393.447 561.268 394.202 561.307 394.202 C 561.307 394.189 561.307 262.709 561.307 262.696 C 561.268 262.696 173.596 262.696 173.557 262.696 C 173.557 262.709 173.557 393.434 173.557 393.447 Z"/>
<path fill="#ff0000" fill-rule="evenodd" stroke="none" d="M 360.000 659.517 C 360.001 659.520 372.432 694.326 372.433 694.330 C 372.432 694.328 360.001 682.763 360.000 682.761 C 359.999 682.763 347.568 694.328 347.567 694.330 C 347.568 694.326 359.999 659.520 360.000 659.517 Z"/>
<path fill="#0000ff" fill-rule="evenodd" stroke="none" d="M 61.433 103.792 C 61.434 103.794 68.661 124.010 68.662 124.012 C 68.661 124.011 61.438 117.295 61.437 117.295 C 61.437 117.295 54.218 124.016 54.218 124.017 C 54.218 124.015 61.432 103.794 61.433 103.792 Z"/>
<path fill="#00ff00" fill-rule="evenodd" stroke="none" d="M 364.722 245.094 C 364.721 245.096 355.037 264.257 355.036 264.259 C 355.037 264.258 363.039 258.492 363.040 258.492 C 363.041 258.492 369.367 266.058 369.368 266.059 C 369.368 266.057 364.723 245.096 364.722 245.094 Z"/>
<path fill="#00ffff" fill-rule="evenodd" stroke="none" d="M 26.751 145.853 C 26.753 145.855 44.604 157.782 44.606 157.783 C 44.606 157.782 39.848 149.142 39.848 149.141 C 39.848 149.141 48.122 143.774 48.123 143.773 C 48.121 143.773 26.754 145.853 26.751 145.853 Z"/>
</g>
</g>
</svg>
