<?xml version="1.0" encoding="utf-8"?>
<!-- Generator: Moho 12.5 build 22414 -->
<!DOCTYPE svg PUBLIC "-//W3C//DTD SVG 1.1//EN" "http://www.w3.org/Graphics/SVG/1.1/DTD/svg11.dtd">
<svg version="1.1" id="Frame_0" xmlns="http://www.w3.org/2000/svg" xmlns:xlink="http://www.w3.org/1999/xlink" width="720px" height="720px">
<g id="intercourse">
<g id="intercourse_2">
<path fill="#000000" fill-rule="evenodd" stroke="none" d="M 360.000 469.754 C 420.748 469.754 469.754 420.748 469.754 360.000 C 469.754 299.252 420.748 250.246 360.000 250.246 C 299.252 250.246 250.246 299.252 250.246 360.000 C 250.246 420.748 299.252 469.754 360.000 469.754 Z"/>
<path fill="#ffffff" fill-rule="evenodd" stroke="none" d="M 360.000 260.929 C 380.289 260.929 399.127 266.985 415.173 277.967 C 377.144 277.967 339.203 277.967 303.773 277.967 C 319.856 267.317 339.163 260.929 360.000 260.929 M 415.696 442.033 C 377.489 442.033 339.432 442.033 304.565 442.033 C 319.856 452.684 339.163 459.071 360.000 459.071 C 380.837 459.071 400.144 452.683 415.696 442.033 M 621.662 442.033 C 621.659 442.033 600.729 442.033 592.604 442.033 C 559.172 537.865 467.818 606.577 360.000 606.577 C 252.182 606.577 160.828 537.865 127.380 442.033 C 116.376 442.033 98.341 442.033 98.338 442.033 C 98.331 442.025 20.137 437.834 20.137 360.000 C 20.137 282.166 98.331 277.975 98.338 277.967 C 98.341 277.967 116.376 277.967 127.378 277.967 C 160.828 182.135 252.182 113.423 360.000 113.423 C 467.818 113.423 559.172 182.135 592.601 277.967 C 600.728 277.967 621.659 277.967 621.662 277.967 C 621.669 277.975 699.863 282.166 699.863 360.000 C 699.863 437.834 621.669 442.025 621.662 442.033 Z"/>
<path fill="none" stroke="#000000" stroke-width="4" stroke-linejoin="round" d="M 127.380 442.033 C 116.376 442.033 98.341 442.033 98.338 442.033 C 98.331 442.025 20.137 437.834 20.137 360.000 C 20.137 282.166 98.331 277.975 98.338 277.967 C 98.341 277.967 116.376 277.967 127.378 277.967 C 118.279 303.842 113.423 331.339 113.423 360.000 C 113.423 388.661 118.279 416.158 127.380 442.033 C 160.829 537.865 252.182 606.577 360.000 606.577 C 467.818 606.577 559.172 537.865 592.604 442.033 C 600.729 442.033 621.659 442.033 621.662 442.033 C 621.669 442.025 699.863 437.834 699.863 360.000 C 699.863 282.166 621.669 277.975 621.662 277.967 C 621.659 277.967 600.728 277.967 592.601 277.967 C 538.715 277.967 476.469 277.967 415.173 277.967 C 377.144 277.967 339.203 277.967 303.773 277.967 C 277.933 296.079 260.929 326.002 260.929 360.000 C 260.929 393.998 277.933 423.922 304.565 442.033 C 319.856 452.684 339.163 459.071 360.000 459.071 C 380.837 459.071 400.144 452.683 415.696 442.033 C 476.470 442.033 538.718 442.033 592.604 442.033 M 303.773 277.967 C 319.856 267.317 339.163 260.929 360.000 260.929 C 380.289 260.929 399.127 266.985 415.173 277.967 M 415.696 442.033 C 377.489 442.033 339.432 442.033 304.565 442.033 M 127.378 277.967 C 160.828 182.136 252.182 113.423 360.000 113.423 C 467.818 113.423 559.172 182.135 592.601 277.967 "/>
<path fill="#000000" fill-rule="evenodd" stroke="#ffffff" stroke-width="4" stroke-linejoin="round" d="M 620.424 277.872 C 665.881 277.872 702.552 314.543 702.552 360.000 C 702.552 405.457 665.881 442.128 620.424 442.128 C 574.967 442.128 538.296 405.457 538.296 360.000 C 538.296 314.543 574.967 277.872 620.424 277.872 Z"/>
</g>
<g id="specs_2">
<path fill="#ff0000" fill-rule="evenodd" stroke="none" d="M 360.000 662.331 C 360.001 662.335 372.416 697.097 372.417 697.101 C 372.416 697.100 360.001 685.548 360.000 685.547 C 359.999 685.548 347.584 697.100 347.583 697.101 C 347.584 697.097 359.999 662.335 360.000 662.331 Z"/>
<path fill="#0000ff" fill-rule="evenodd" stroke="none" d="M 360.000 98.370 C 360.001 98.372 367.212 118.565 367.213 118.567 C 367.212 118.566 360.001 111.856 360.000 111.856 C 359.999 111.856 352.788 118.566 352.787 118.567 C 352.788 118.565 359.999 98.372 360.000 98.370 Z"/>
<path fill="#00ff00" fill-rule="evenodd" stroke="none" d="M 5.758 361.006 C 5.760 361.005 26.688 353.411 26.690 353.410 C 26.689 353.411 19.760 360.935 19.760 360.936 C 19.760 360.936 26.765 368.388 26.766 368.389 C 26.763 368.388 5.760 361.007 5.758 361.006 Z"/>
<path fill="#ffff00" fill-rule="evenodd" stroke="none" d="M 176.945 544.110 C 176.946 544.109 183.715 529.370 183.716 529.368 C 183.716 529.369 184.072 536.812 184.072 536.812 C 184.073 536.812 191.522 536.993 191.523 536.993 C 191.521 536.994 176.947 544.110 176.945 544.110 Z"/>
<path fill="#ffff00" fill-rule="evenodd" stroke="none" d="M 543.055 543.930 C 543.054 543.928 535.990 529.328 535.990 529.326 C 535.990 529.327 535.783 536.776 535.783 536.776 C 535.782 536.776 528.338 537.106 528.337 537.106 C 528.339 537.107 543.053 543.929 543.055 543.930 Z"/>
<path fill="#00ff00" fill-rule="evenodd" stroke="none" d="M 714.242 361.006 C 714.240 361.005 693.312 353.411 693.310 353.410 C 693.311 353.411 700.240 360.935 700.240 360.936 C 700.240 360.936 693.235 368.388 693.235 368.389 C 693.237 368.388 714.240 361.007 714.242 361.006 Z"/>
<path fill="#00ffff" fill-rule="evenodd" stroke="none" d="M 542.347 177.103 C 542.347 177.104 536.932 192.394 536.932 192.395 C 536.932 192.394 535.906 185.014 535.906 185.013 C 535.905 185.013 528.470 185.504 528.470 185.504 C 528.471 185.503 542.346 177.104 542.347 177.103 Z"/>
<path fill="#00ffff" fill-rule="evenodd" stroke="none" d="M 177.737 177.610 C 177.738 177.611 184.160 192.505 184.160 192.507 C 184.160 192.506 184.691 185.074 184.691 185.073 C 184.692 185.073 192.143 185.067 192.144 185.067 C 192.142 185.066 177.738 177.610 177.737 177.610 Z"/>
<path fill="#be0027" fill-rule="evenodd" stroke="none" d="M 360.000 630.218 C 360.001 630.215 372.416 595.452 372.417 595.449 C 372.416 595.450 360.001 607.001 360.000 607.003 C 359.999 607.001 347.584 595.450 347.583 595.449 C 347.584 595.452 359.999 630.215 360.000 630.218 Z"/>
<path fill="#ff00ff" fill-rule="evenodd" stroke="none" d="M 556.817 297.365 C 556.830 297.365 682.074 297.365 682.087 297.365 C 682.087 297.378 682.087 422.622 682.087 422.635 C 682.074 422.635 556.830 422.635 556.817 422.635 C 556.817 422.622 556.817 297.378 556.817 297.365 Z"/>
</g>
</g>
</svg>
