<?xml version="1.0" encoding="utf-8"?>
<!-- Generator: Moho 13.5 build 20210422 -->
<!DOCTYPE svg PUBLIC "-//W3C//DTD SVG 1.1//EN" "http://www.w3.org/Graphics/SVG/1.1/DTD/svg11.dtd">
<svg version="1.1" id="Frame_0" xmlns="http://www.w3.org/2000/svg" xmlns:xlink="http://www.w3.org/1999/xlink" width="720px" height="720px">
<g id="key">
<g id="key">
<path fill="#ffffff" fill-rule="evenodd" stroke="#000000" stroke-width="4" stroke-linecap="round" stroke-linejoin="round" d="M 671.833 490.988 C 671.820 476.530 671.795 447.620 671.795 447.615 C 671.790 447.615 642.880 447.615 628.422 447.615 C 628.422 440.387 628.422 433.158 628.422 425.929 C 642.880 425.929 671.790 425.929 671.795 425.929 C 671.797 425.927 693.481 425.929 693.481 404.243 C 693.481 382.556 671.797 382.559 671.795 382.556 C 671.753 382.556 256.182 382.556 256.182 382.556 C 257.342 377.606 260.937 362.782 260.810 352.181 C 260.292 308.961 225.942 274.089 182.718 274.089 C 139.494 274.089 104.625 308.958 104.625 352.181 C 104.625 372.064 112.004 390.179 124.419 404.271 C 112.004 418.306 104.625 436.421 104.625 456.304 C 104.625 499.528 139.494 534.397 182.718 534.397 C 225.942 534.397 260.240 499.524 260.810 456.304 C 260.950 445.738 259.313 435.575 256.022 425.932 C 358.093 425.931 460.916 425.930 563.363 425.929 C 563.363 433.158 563.363 440.387 563.363 447.615 C 548.906 447.615 519.995 447.615 519.991 447.615 C 519.991 447.620 519.953 490.984 519.953 490.988 C 519.955 490.988 541.675 490.988 541.677 490.988 C 541.677 490.990 541.677 512.672 541.677 512.674 C 541.675 512.674 519.954 512.674 519.952 512.674 C 519.952 512.679 519.991 556.043 519.991 556.047 C 519.997 556.047 563.363 556.073 585.050 556.085 C 585.050 534.386 585.050 490.995 585.050 490.988 C 585.052 490.988 606.734 490.988 606.736 490.988 C 606.736 490.995 606.736 534.387 606.736 556.087 C 628.422 556.074 671.788 556.047 671.795 556.047 C 671.795 556.043 671.833 512.679 671.833 512.674 C 671.830 512.674 650.111 512.674 650.109 512.674 C 650.109 512.672 650.109 490.990 650.109 490.988 C 650.111 490.988 664.591 490.988 671.833 490.988 M 156.687 456.304 C 156.687 470.712 168.310 482.335 182.718 482.335 C 197.126 482.335 208.748 470.712 208.749 456.304 C 208.749 441.896 197.126 430.273 182.718 430.273 C 168.310 430.273 156.687 441.896 156.687 456.304 M 182.718 326.150 C 168.310 326.150 156.687 337.773 156.687 352.181 C 156.687 366.589 168.310 378.212 182.718 378.212 C 197.126 378.212 208.748 366.589 208.749 352.181 C 208.749 337.773 197.126 326.150 182.718 326.150 Z"/>
</g>
<g id="specs_2">
<path fill="#ff00ff" fill-rule="evenodd" stroke="none" d="M 492.177 318.449 C 492.177 318.467 492.177 490.019 492.177 490.036 C 492.160 490.036 320.607 490.036 320.590 490.036 C 320.590 490.019 320.590 318.467 320.590 318.449 C 320.607 318.449 492.160 318.449 492.177 318.449 Z"/>
<path fill="#ff0000" fill-rule="evenodd" stroke="none" d="M 42.400 404.243 C 42.397 404.244 12.296 414.994 12.293 414.995 C 12.294 414.994 22.296 404.244 22.297 404.243 C 22.296 404.242 12.294 393.492 12.293 393.491 C 12.296 393.492 42.397 404.242 42.400 404.243 Z"/>
<path fill="#0000ff" fill-rule="evenodd" stroke="none" d="M 110.420 404.243 C 110.422 404.244 127.907 410.488 127.909 410.489 C 127.908 410.488 122.098 404.244 122.098 404.243 C 122.098 404.242 127.908 397.998 127.909 397.997 C 127.907 397.998 110.422 404.242 110.420 404.243 Z"/>
<path fill="#00ff00" fill-rule="evenodd" stroke="none" d="M 179.648 262.766 C 179.648 262.768 174.388 277.263 174.387 277.265 C 174.388 277.264 179.599 272.465 179.599 272.464 C 179.600 272.465 184.761 277.316 184.762 277.317 C 184.761 277.315 179.649 262.768 179.648 262.766 Z"/>
<path fill="#00ff00" fill-rule="evenodd" stroke="none" d="M 179.648 545.719 C 179.648 545.718 174.388 531.223 174.387 531.221 C 174.388 531.222 179.599 536.021 179.599 536.021 C 179.600 536.021 184.761 531.169 184.762 531.169 C 184.761 531.170 179.649 545.718 179.648 545.719 Z"/>
<path fill="#be0027" fill-rule="evenodd" stroke="none" d="M 711.908 404.243 C 711.905 404.244 681.805 414.994 681.802 414.995 C 681.803 414.994 691.805 404.244 691.806 404.243 C 691.805 404.242 681.803 393.492 681.802 393.491 C 681.805 393.492 711.905 404.242 711.908 404.243 Z"/>
</g>
</g>
</svg>
