<?xml version="1.0" encoding="utf-8"?>
<!-- Generator: Moho 12.5 build 22414 -->
<!DOCTYPE svg PUBLIC "-//W3C//DTD SVG 1.1//EN" "http://www.w3.org/Graphics/SVG/1.1/DTD/svg11.dtd">
<svg version="1.1" id="Frame_0" xmlns="http://www.w3.org/2000/svg" xmlns:xlink="http://www.w3.org/1999/xlink" width="720px" height="720px">
<g id="knife">
<g id="knife">
<path fill="#ffffff" fill-rule="evenodd" stroke="#000000" stroke-width="4" stroke-linejoin="round" d="M 344.344 626.340 C 322.377 609.940 322.377 428.024 344.344 411.624 C 347.839 409.015 375.009 409.015 378.504 411.624 C 400.472 428.024 400.472 609.940 378.504 626.340 C 375.009 628.950 347.839 628.950 344.344 626.340 Z"/>
<path fill="#ffffff" fill-rule="evenodd" stroke="#000000" stroke-width="4" stroke-linejoin="round" d="M 333.346 442.770 C 333.346 442.727 333.346 15.809 333.346 15.766 C 333.359 15.804 435.495 35.627 458.435 395.839 C 436.954 396.004 391.234 391.312 390.447 441.808 C 390.415 443.870 333.352 442.769 333.346 442.770 Z"/>
</g>
<g id="specs_2">
<path fill="#ff0000" fill-rule="evenodd" stroke="none" d="M 360.041 676.796 C 360.042 676.799 370.522 706.143 370.523 706.146 C 370.522 706.145 360.042 696.394 360.041 696.393 C 360.040 696.394 349.560 706.145 349.559 706.146 C 349.560 706.143 360.040 676.799 360.041 676.796 Z"/>
<path fill="#0000ff" fill-rule="evenodd" stroke="none" d="M 338.030 12.395 C 338.031 12.397 344.118 29.442 344.118 29.444 C 344.118 29.443 338.031 23.779 338.030 23.778 C 338.029 23.779 331.942 29.443 331.941 29.444 C 331.942 29.442 338.029 12.397 338.030 12.395 Z"/>
<path fill="#00ff00" fill-rule="evenodd" stroke="none" d="M 320.615 314.769 C 320.617 314.768 337.631 308.595 337.633 308.594 C 337.632 308.595 331.999 314.711 331.998 314.711 C 331.999 314.712 337.694 320.771 337.694 320.771 C 337.692 320.771 320.617 314.769 320.615 314.769 Z"/>
<path fill="#ffff00" fill-rule="evenodd" stroke="none" d="M 332.929 610.750 C 332.929 610.749 338.188 599.300 338.188 599.298 C 338.188 599.299 338.465 605.081 338.465 605.081 C 338.466 605.081 344.251 605.221 344.252 605.221 C 344.251 605.222 332.930 610.749 332.929 610.750 Z"/>
<path fill="#ffff00" fill-rule="evenodd" stroke="none" d="M 390.272 610.610 C 390.271 610.609 384.784 599.267 384.784 599.266 C 384.784 599.266 384.623 605.052 384.623 605.053 C 384.623 605.053 378.840 605.309 378.839 605.309 C 378.841 605.310 390.271 610.609 390.272 610.610 Z"/>
<path fill="#00ff00" fill-rule="evenodd" stroke="none" d="M 464.381 314.769 C 464.380 314.768 447.366 308.595 447.364 308.594 C 447.364 308.595 452.997 314.711 452.998 314.711 C 452.997 314.712 447.303 320.771 447.302 320.771 C 447.304 320.771 464.380 314.769 464.381 314.769 Z"/>
<path fill="#00ffff" fill-rule="evenodd" stroke="none" d="M 414.448 109.661 C 414.448 109.662 408.405 126.724 408.405 126.726 C 408.405 126.725 407.260 118.489 407.260 118.488 C 407.259 118.488 398.963 119.036 398.962 119.036 C 398.964 119.035 414.447 109.661 414.448 109.661 Z"/>
<path fill="#00ffff" fill-rule="evenodd" stroke="none" d="M 328.740 110.226 C 328.740 110.228 335.907 126.848 335.907 126.850 C 335.907 126.849 336.500 118.555 336.500 118.554 C 336.501 118.554 344.816 118.548 344.816 118.548 C 344.815 118.547 328.741 110.227 328.740 110.226 Z"/>
<path fill="#be0027" fill-rule="evenodd" stroke="none" d="M 360.041 638.628 C 360.042 638.625 370.522 609.282 370.523 609.279 C 370.522 609.280 360.042 619.030 360.041 619.031 C 360.040 619.030 349.560 609.280 349.559 609.279 C 349.560 609.282 360.040 638.625 360.041 638.628 Z"/>
</g>
</g>
</svg>
