<?xml version="1.0" encoding="utf-8"?>
<!-- Generator: Moho 13.5.1 build 20210623 -->
<!DOCTYPE svg PUBLIC "-//W3C//DTD SVG 1.1//EN" "http://www.w3.org/Graphics/SVG/1.1/DTD/svg11.dtd">
<svg version="1.1" id="Frame_0" xmlns="http://www.w3.org/2000/svg" xmlns:xlink="http://www.w3.org/1999/xlink" width="720px" height="720px">
<g id="knife">
<g id="knife">
<radialGradient id="D56D70FF-A326-4D73-B9C1-614A89964DC8_0" cx="50.00%" cy="50.00%" r="125.97%">
<stop offset="15.29%" style="stop-color:rgb(255,255,255);stop-opacity:1.00" />
<stop offset="100.00%" style="stop-color:rgb(0,0,0);stop-opacity:1.00" />
</radialGradient>
<path fill="url(#D56D70FF-A326-4D73-B9C1-614A89964DC8_0)" fill-rule="evenodd" stroke="#000000" stroke-width="4" stroke-linejoin="round" d="M 344.344 626.341 C 322.377 609.940 322.377 428.024 344.344 411.624 C 347.839 409.015 375.009 409.015 378.504 411.624 C 400.472 428.024 400.472 609.940 378.504 626.341 C 375.009 628.950 347.839 628.950 344.344 626.341 Z"/>
<linearGradient id="D56D70FF-A326-4D73-B9C1-614A89964DC8_1" x1="151.31%" y1="89.55%" x2="-133.70%" y2="9.96%">
<stop offset="33.73%" style="stop-color:rgb(255,255,255);stop-opacity:1.00" />
<stop offset="100.00%" style="stop-color:rgb(0,0,0);stop-opacity:1.00" />
</linearGradient>
<path fill="url(#D56D70FF-A326-4D73-B9C1-614A89964DC8_1)" fill-rule="evenodd" stroke="#000000" stroke-width="4" stroke-linejoin="round" d="M 333.346 442.770 C 333.346 442.727 333.346 15.809 333.346 15.766 C 333.359 15.804 435.495 35.627 458.435 395.839 C 436.954 396.004 391.234 391.312 390.447 441.808 C 390.415 443.871 333.352 442.770 333.346 442.770 Z"/>
</g>
<g id="specs_2">
<path fill="#ff0000" fill-rule="evenodd" stroke="none" d="M 360.041 676.796 C 360.042 676.799 370.522 706.143 370.523 706.146 C 370.522 706.145 360.042 696.394 360.041 696.393 C 360.040 696.394 349.560 706.145 349.559 706.146 C 349.560 706.143 360.040 676.799 360.041 676.796 Z"/>
<path fill="#0000ff" fill-rule="evenodd" stroke="none" d="M 338.030 12.395 C 338.031 12.396 344.118 29.442 344.118 29.444 C 344.118 29.443 338.031 23.779 338.030 23.778 C 338.029 23.779 331.942 29.443 331.941 29.444 C 331.942 29.442 338.029 12.396 338.030 12.395 Z"/>
<path fill="#00ff00" fill-rule="evenodd" stroke="none" d="M 313.068 515.939 C 313.070 515.938 331.666 509.191 331.668 509.190 C 331.667 509.191 325.510 515.876 325.510 515.877 C 325.510 515.877 331.734 522.499 331.735 522.500 C 331.733 522.499 313.070 515.940 313.068 515.939 Z"/>
<path fill="#00ff00" fill-rule="evenodd" stroke="none" d="M 406.932 515.939 C 406.930 515.938 388.334 509.191 388.332 509.190 C 388.333 509.191 394.490 515.876 394.490 515.877 C 394.490 515.877 388.266 522.499 388.265 522.500 C 388.267 522.499 406.930 515.940 406.932 515.939 Z"/>
<path fill="#00ffff" fill-rule="evenodd" stroke="none" d="M 461.515 297.045 C 461.514 297.048 451.566 325.139 451.565 325.142 C 451.565 325.141 449.681 311.581 449.681 311.579 C 449.679 311.579 436.019 312.481 436.018 312.481 C 436.021 312.479 461.513 297.047 461.515 297.045 Z"/>
<path fill="#00ffff" fill-rule="evenodd" stroke="none" d="M 320.401 297.977 C 320.402 297.979 332.201 325.344 332.202 325.347 C 332.202 325.346 333.178 311.690 333.178 311.688 C 333.179 311.688 346.869 311.678 346.870 311.678 C 346.868 311.677 320.403 297.978 320.401 297.977 Z"/>
</g>
</g>
</svg>
