<?xml version="1.0" encoding="utf-8"?>
<!-- Generator: Moho 12.5 build 22414 -->
<!DOCTYPE svg PUBLIC "-//W3C//DTD SVG 1.1//EN" "http://www.w3.org/Graphics/SVG/1.1/DTD/svg11.dtd">
<svg version="1.1" id="Frame_0" xmlns="http://www.w3.org/2000/svg" xmlns:xlink="http://www.w3.org/1999/xlink" width="720px" height="720px">
<g id="knight_1_2">
<g id="sword_3">
<path fill="#ffffff" fill-rule="evenodd" stroke="#000000" stroke-width="4" stroke-linecap="round" stroke-linejoin="round" d="M 384.712 71.856 C 384.712 71.857 381.807 79.938 381.807 79.939 C 381.806 79.940 378.901 88.022 378.901 88.023 C 378.885 88.017 219.430 30.159 219.414 30.153 C 219.413 30.151 202.874 15.623 202.872 15.621 C 202.874 15.621 224.878 14.947 224.880 14.947 C 224.896 14.953 384.696 71.850 384.712 71.856 Z"/>
<path fill="#ffffff" fill-rule="evenodd" stroke="#000000" stroke-width="4" stroke-linecap="round" stroke-linejoin="round" d="M 389.433 58.722 C 389.432 58.726 374.182 101.152 374.180 101.156 C 374.181 101.156 379.372 103.023 379.373 103.023 C 379.375 103.019 394.624 60.592 394.626 60.588 C 394.625 60.588 389.434 58.722 389.433 58.722 Z"/>
<path fill="#ffffff" fill-rule="evenodd" stroke="#000000" stroke-width="4" stroke-linecap="round" stroke-linejoin="round" d="M 407.614 84.830 C 406.559 85.734 405.704 86.927 405.194 88.346 C 404.684 89.764 404.584 91.228 404.821 92.597 C 398.476 90.329 385.593 85.724 385.591 85.723 C 385.592 85.723 388.407 77.888 388.408 77.887 C 388.410 77.888 401.276 82.539 407.614 84.830 Z"/>
<path fill="none" stroke="#ffffff" stroke-width="1" stroke-linecap="butt" stroke-linejoin="round" d="M 405.194 88.346 C 404.684 89.764 404.584 91.228 404.821 92.597 "/>
<path fill="none" stroke="#ffffff" stroke-width="1" stroke-linecap="butt" stroke-linejoin="round" d="M 407.614 84.830 C 406.559 85.734 405.704 86.927 405.194 88.346 "/>
<path fill="#ffffff" fill-rule="evenodd" stroke="#000000" stroke-width="4" stroke-linecap="round" stroke-linejoin="round" d="M 405.194 88.346 C 404.684 89.764 404.584 91.228 404.821 92.597 C 405.341 95.411 407.289 97.869 410.169 98.905 C 414.468 100.450 419.183 98.229 420.729 93.930 C 422.274 89.630 420.052 84.916 415.753 83.370 C 412.873 82.335 409.806 82.991 407.614 84.830 C 406.559 85.734 405.704 86.927 405.194 88.346 Z"/>
<path fill="none" stroke="#000000" stroke-width="4" stroke-linecap="round" stroke-linejoin="round" d="M 381.807 79.939 C 326.052 59.899 270.298 39.858 214.544 19.817 "/>
</g>
<g id="horse_rearing">
<path fill="#000000" fill-rule="evenodd" stroke="#ffffff" stroke-width="4" stroke-linecap="round" stroke-linejoin="round" d="M 189.474 413.493 C 209.081 391.888 221.012 388.361 253.213 389.386 C 242.096 378.261 188.922 320.520 125.769 389.712 C 81.550 438.159 115.466 459.834 59.369 542.517 C 93.521 523.814 102.543 501.035 102.454 502.371 C 100.169 536.489 80.640 561.325 82.025 560.554 C 107.563 546.323 129.000 507.800 129.225 510.181 C 131.502 534.254 115.561 570.317 116.886 569.654 C 146.059 555.052 156.224 508.543 156.496 509.548 C 163.887 536.908 144.967 568.040 145.547 567.584 C 213.068 514.507 139.722 468.315 189.474 413.493 M 473.128 191.423 C 510.973 148.661 562.867 173.209 567.406 175.451 C 592.379 187.783 604.899 226.975 604.903 226.981 C 604.903 226.975 623.620 193.071 604.437 171.364 C 585.172 149.564 564.613 159.576 564.609 159.575 C 564.608 159.573 557.616 144.850 550.985 138.710 C 539.460 128.038 512.428 118.981 512.424 118.979 C 512.426 118.982 525.941 148.195 525.943 148.198 C 525.940 148.196 512.450 136.446 503.815 132.289 C 487.749 124.554 454.707 119.677 454.702 119.676 C 454.705 119.679 483.780 150.810 483.783 150.814 C 483.781 150.813 473.552 143.695 462.840 142.150 C 444.790 139.547 424.992 147.222 424.988 147.223 C 424.991 147.225 458.222 170.797 458.226 170.800 C 458.223 170.799 443.350 165.825 429.114 169.050 C 413.186 172.660 400.675 185.043 400.672 185.045 C 400.676 185.047 434.165 203.371 434.168 203.372 C 434.165 203.373 414.776 199.274 401.454 205.746 C 389.555 211.526 381.536 227.225 381.534 227.227 C 381.538 227.229 421.863 239.601 421.867 239.602 C 421.864 239.603 399.596 241.418 391.852 247.113 C 383.706 253.105 375.022 274.968 375.020 274.971 C 375.024 274.971 413.349 270.564 413.353 270.563 C 413.351 270.565 395.888 283.117 391.695 288.238 C 387.015 293.953 377.249 315.889 377.248 315.892 C 377.251 315.891 409.736 307.605 409.739 307.604 C 409.737 307.606 396.452 317.160 392.461 323.633 C 384.939 335.831 381.652 366.704 381.651 366.709 C 381.656 366.706 438.353 341.609 438.359 341.606 C 438.362 341.591 416.832 255.031 473.128 191.423 Z"/>
<path fill="#ffffff" fill-rule="evenodd" stroke="#000000" stroke-width="4" stroke-linecap="round" stroke-linejoin="round" d="M 266.868 442.739 C 265.415 406.973 362.613 373.773 384.354 443.134 C 386.249 449.179 383.418 470.131 374.954 493.805 C 361.943 530.198 311.110 540.266 311.122 556.028 C 311.131 568.267 350.138 602.026 358.324 606.654 C 367.255 611.704 387.513 637.924 387.516 637.927 C 387.511 637.927 344.913 637.192 344.909 637.192 C 344.908 637.190 342.834 623.938 337.435 618.455 C 334.300 615.271 326.316 620.373 323.954 614.216 C 313.107 585.937 278.287 562.223 280.940 552.075 C 282.854 544.753 302.345 522.289 301.405 501.984 C 300.715 487.065 267.983 470.180 266.868 442.739 M 522.120 389.848 C 522.120 389.845 525.329 357.581 525.329 357.577 C 525.337 357.574 567.196 348.692 599.265 328.343 C 608.937 322.206 614.349 333.991 617.136 336.595 C 622.675 341.769 651.682 375.606 661.969 386.580 C 665.127 389.950 664.910 403.571 669.009 415.765 C 671.529 423.261 662.134 446.160 662.134 446.163 C 662.132 446.161 643.505 423.343 643.503 423.341 C 643.504 423.339 653.867 409.790 651.944 404.249 C 649.297 396.621 639.125 402.191 638.474 397.253 C 636.204 380.039 609.504 349.608 605.241 348.763 C 600.169 347.759 548.084 389.057 548.079 389.061 C 548.076 389.061 522.122 389.848 522.120 389.848 Z"/>
<path fill="#ffffff" fill-rule="evenodd" stroke="none" d="M 607.243 375.097 C 590.878 376.626 569.453 377.301 550.871 377.949 C 551.029 352.734 538.767 327.207 524.068 311.834 C 517.862 286.678 510.059 233.837 535.076 223.592 C 545.281 237.934 561.467 244.181 561.469 244.183 C 561.470 244.185 566.510 255.423 570.772 267.540 C 571.231 268.843 579.292 269.757 579.293 269.757 C 579.293 269.756 579.731 257.468 579.731 257.467 C 579.732 257.468 588.808 270.209 588.809 270.210 C 588.810 270.210 596.831 265.220 597.614 261.396 C 598.571 256.720 586.339 194.849 583.308 185.671 C 579.353 173.694 570.800 169.062 570.798 169.060 C 570.798 169.057 562.879 142.198 562.878 142.196 C 562.878 142.198 555.810 165.120 555.809 165.123 C 555.799 165.125 501.730 143.149 457.157 191.831 C 426.496 225.317 436.459 281.894 422.301 324.783 C 410.401 360.833 356.443 356.258 307.886 361.713 C 233.260 370.097 230.756 402.123 231.720 442.292 C 232.742 484.905 266.319 485.957 261.700 512.971 C 259.876 523.633 229.635 536.458 223.028 545.097 C 213.219 557.923 248.352 572.008 250.902 611.537 C 251.413 619.469 258.335 615.376 263.356 619.621 C 271.888 626.833 273.090 643.662 273.091 643.664 C 273.096 643.664 318.381 643.729 318.385 643.729 C 318.382 643.726 298.282 615.649 288.969 611.370 C 266.292 600.949 249.805 561.044 250.370 558.212 C 256.554 527.224 309.308 550.594 333.340 491.047 C 345.401 461.160 340.778 424.817 340.779 424.811 C 340.779 424.815 343.224 456.967 341.670 463.152 C 349.770 458.663 359.887 462.921 391.937 467.362 C 464.817 477.460 508.641 452.162 541.655 412.136 C 536.917 414.668 527.142 417.600 524.617 417.428 C 517.536 416.944 506.494 407.813 506.492 407.812 C 506.494 407.813 517.296 417.140 525.179 417.229 C 534.084 417.329 594.069 389.769 598.042 394.579 C 602.200 399.612 581.417 437.007 580.233 444.175 C 579.981 445.703 583.785 450.649 579.958 455.402 C 578.821 456.813 562.208 459.932 562.207 459.933 C 562.206 459.936 553.687 485.672 553.686 485.675 C 553.688 485.674 575.332 483.066 579.204 478.732 C 589.308 467.420 600.662 461.462 600.420 453.861 C 599.867 436.444 611.335 398.670 618.199 389.390 C 620.163 386.736 615.669 374.309 607.243 375.097 Z"/>
<path fill="none" stroke="#000000" stroke-width="4" stroke-linecap="round" stroke-linejoin="round" d="M 550.871 377.949 C 535.625 378.420 522.424 378.813 515.581 378.640 M 607.243 375.097 C 590.878 376.626 569.453 377.301 550.871 377.949 C 551.029 352.734 538.767 327.207 524.068 311.834 C 517.862 286.678 510.059 233.837 535.076 223.592 C 545.281 237.934 561.467 244.181 561.469 244.183 C 561.470 244.185 566.510 255.423 570.772 267.540 C 571.231 268.843 579.292 269.757 579.293 269.757 C 579.293 269.756 579.731 257.468 579.731 257.467 C 579.732 257.468 588.808 270.209 588.809 270.210 C 588.810 270.210 596.831 265.220 597.614 261.396 C 598.571 256.720 586.339 194.849 583.308 185.671 C 579.353 173.694 570.800 169.062 570.798 169.060 C 570.798 169.057 562.879 142.198 562.878 142.196 C 562.878 142.198 555.810 165.120 555.809 165.123 C 555.799 165.125 501.730 143.149 457.157 191.831 C 426.496 225.317 436.459 281.894 422.301 324.783 C 410.401 360.833 356.443 356.258 307.886 361.713 C 233.260 370.097 230.756 402.123 231.720 442.292 C 232.742 484.905 266.319 485.957 261.700 512.971 C 259.876 523.633 229.635 536.458 223.028 545.097 C 213.219 557.923 248.352 572.008 250.902 611.537 C 251.413 619.469 258.335 615.376 263.356 619.621 C 271.888 626.833 273.090 643.662 273.091 643.664 C 273.096 643.664 318.381 643.729 318.385 643.729 C 318.382 643.726 298.282 615.649 288.969 611.370 C 266.292 600.949 249.805 561.044 250.370 558.212 C 256.554 527.224 309.308 550.594 333.340 491.047 C 345.401 461.160 340.778 424.817 340.779 424.811 C 340.779 424.815 343.224 456.967 341.670 463.152 C 349.770 458.663 359.887 462.921 391.937 467.362 C 464.817 477.460 508.641 452.162 541.655 412.136 C 536.917 414.668 527.142 417.600 524.617 417.428 C 517.536 416.944 506.494 407.813 506.492 407.812 C 506.494 407.813 517.296 417.140 525.179 417.229 C 534.084 417.329 594.069 389.769 598.042 394.579 C 602.200 399.612 581.417 437.007 580.233 444.175 C 579.981 445.703 583.785 450.649 579.958 455.402 C 578.821 456.813 562.208 459.932 562.207 459.933 C 562.206 459.936 553.687 485.672 553.686 485.675 C 553.688 485.674 575.332 483.066 579.204 478.732 C 589.308 467.420 600.662 461.462 600.420 453.861 C 599.867 436.444 611.335 398.670 618.199 389.390 C 620.163 386.736 615.669 374.309 607.243 375.097 "/>
<path fill="#000000" fill-rule="evenodd" stroke="none" d="M 570.596 205.263 C 575.022 202.065 576.012 195.915 572.815 191.490 C 569.617 187.064 563.467 186.074 559.042 189.272 C 554.616 192.469 553.626 198.619 556.824 203.044 C 560.021 207.470 566.171 208.460 570.596 205.263 M 578.213 215.538 C 578.213 215.535 584.782 203.240 575.191 189.966 C 565.599 176.692 551.863 179.069 551.861 179.068 C 551.861 179.070 545.294 191.365 554.885 204.639 C 564.476 217.912 578.211 215.537 578.213 215.538 M 593.028 258.957 C 593.286 257.352 592.200 255.848 590.594 255.590 C 588.989 255.331 587.485 256.418 587.227 258.023 C 586.968 259.628 588.055 261.132 589.660 261.391 C 591.266 261.649 592.769 260.563 593.028 258.957 Z"/>
</g>
<g id="tack">
<path fill="#000000" fill-rule="evenodd" stroke="#ffffff" stroke-width="4" stroke-linecap="round" stroke-linejoin="round" d="M 427.978 287.563 C 423.563 311.014 418.000 330.000 417.999 330.004 C 418.008 330.004 471.367 346.251 511.047 326.346 C 574.235 294.648 569.513 251.895 569.514 251.892 C 569.508 251.896 536.428 285.641 501.622 293.816 C 476.423 299.733 442.680 290.849 427.978 287.563 M 539.914 162.339 C 545.457 163.579 553.057 163.614 553.058 163.615 C 553.058 163.618 545.764 185.815 548.827 197.586 C 554.923 221.012 579.454 246.856 579.457 246.861 C 579.456 246.862 570.748 250.565 570.747 250.565 C 570.744 250.561 543.750 227.085 538.079 210.213 C 530.604 187.969 538.034 168.531 539.914 162.339 M 597.268 236.976 C 597.269 236.977 601.232 247.250 601.233 247.251 C 601.229 247.252 560.920 258.154 560.916 258.155 C 560.916 258.154 558.438 248.116 558.438 248.115 C 558.442 248.114 597.264 236.978 597.268 236.976 Z"/>
<path fill="#000000" fill-rule="evenodd" stroke="#ffffff" stroke-width="4" stroke-linecap="round" stroke-linejoin="round" d="M 579.190 240.504 C 574.184 239.714 569.508 243.116 568.718 248.122 C 567.928 253.128 571.329 257.804 576.335 258.594 C 581.342 259.384 586.018 255.983 586.808 250.977 C 587.598 245.971 584.196 241.294 579.190 240.504 Z"/>
<path fill="#000000" fill-rule="evenodd" stroke="#ffffff" stroke-width="4" stroke-linecap="round" stroke-linejoin="round" d="M 436.584 487.999 C 509.460 461.157 500.519 362.841 575.127 380.034 C 546.534 347.099 541.505 326.379 541.502 326.374 C 541.495 326.376 505.554 347.093 473.709 344.974 C 443.678 342.975 428.689 340.807 420.239 332.399 C 397.167 354.083 371.966 358.640 364.379 358.501 C 290.342 357.150 288.890 358.250 253.005 373.612 C 256.920 377.558 257.530 388.170 251.829 393.646 C 243.770 401.387 230.517 397.731 230.515 397.731 C 230.513 397.743 233.514 446.851 208.571 510.503 C 281.145 531.073 370.444 512.361 436.584 487.999 Z"/>
<path fill="#000000" fill-rule="evenodd" stroke="#ffffff" stroke-width="4" stroke-linecap="round" stroke-linejoin="round" d="M 436.039 395.649 C 438.441 377.377 427.518 354.192 413.686 336.171 C 384.150 349.263 378.282 357.066 339.223 357.983 C 338.798 380.386 349.220 411.704 359.481 419.909 C 374.332 431.786 432.877 419.710 436.039 395.649 Z"/>
<path fill="none" stroke="#ffffff" stroke-width="4" stroke-linecap="round" stroke-linejoin="round" d="M 212.910 503.452 C 283.092 520.561 370.175 507.083 433.330 481.491 C 501.468 453.879 496.860 364.240 566.449 370.814 "/>
<path fill="none" stroke="#ffffff" stroke-width="4" stroke-linecap="round" stroke-linejoin="round" d="M 420.757 322.766 C 423.075 323.431 470.202 336.992 507.635 319.546 C 552.992 298.407 563.265 266.637 569.433 252.510 "/>
</g>
<g id="knight">
<path fill="#ffffff" fill-rule="evenodd" stroke="#000000" stroke-width="4" stroke-linecap="round" stroke-linejoin="round" d="M 409.976 101.415 C 448.194 141.737 402.659 201.761 377.020 214.902 C 395.380 259.372 384.007 327.895 384.008 327.907 C 384.011 327.912 406.426 351.773 418.021 378.441 C 434.808 417.050 408.388 486.060 408.387 486.071 C 408.392 486.072 460.077 499.164 460.083 499.166 C 460.075 499.167 409.748 507.761 385.281 508.425 C 398.299 416.294 372.330 392.104 325.195 350.759 C 324.939 303.464 339.574 292.844 292.580 223.385 C 236.450 270.731 218.750 256.961 186.677 230.655 C 158.613 238.118 138.559 224.371 137.808 220.247 C 152.611 220.285 192.889 219.832 192.894 219.832 C 192.902 219.830 240.912 263.026 273.944 198.274 C 273.946 198.275 363.002 193.192 363.585 192.959 C 389.401 182.656 416.219 136.210 396.558 108.380 C 391.089 100.638 383.066 93.301 383.064 93.300 C 383.065 93.298 389.128 77.067 389.129 77.065 C 389.129 77.064 392.399 67.466 392.400 67.465 C 392.402 67.466 415.333 79.646 415.335 79.647 C 415.334 79.649 405.504 97.128 405.503 97.129 C 405.504 97.130 407.238 98.526 409.976 101.415 Z"/>
<path fill="#000000" fill-rule="evenodd" stroke="#ffffff" stroke-width="4" stroke-linecap="round" stroke-linejoin="round" d="M 300.524 370.801 C 299.747 369.480 316.116 324.130 316.118 324.126 C 316.125 324.125 392.398 321.111 392.405 321.111 C 392.410 321.114 417.439 329.271 438.522 355.161 C 395.675 388.723 335.030 382.586 300.524 370.801 Z"/>
<path fill="#000000" fill-rule="evenodd" stroke="#ffffff" stroke-width="4" stroke-linecap="round" stroke-linejoin="round" d="M 316.839 324.837 C 311.060 259.826 294.140 262.619 275.050 200.463 C 287.714 200.123 373.939 188.960 373.949 188.959 C 373.950 188.972 415.721 228.538 390.191 321.631 C 369.444 331.536 344.349 332.858 316.839 324.837 Z"/>
<path fill="#ffffff" fill-rule="evenodd" stroke="#000000" stroke-width="4" stroke-linecap="round" stroke-linejoin="round" d="M 378.951 177.943 C 382.678 176.438 385.842 221.688 348.242 235.060 C 296.131 253.592 267.577 195.448 267.569 195.445 C 267.574 195.444 313.345 192.395 313.350 192.394 C 313.352 192.390 293.760 173.498 289.059 158.758 C 291.742 143.067 310.283 123.032 310.285 123.028 C 310.289 123.030 342.136 130.076 347.701 141.997 C 347.699 142.001 349.000 157.300 345.667 187.119 C 356.211 184.368 369.082 181.927 378.951 177.943 Z"/>
<path fill="#ffffff" fill-rule="evenodd" stroke="#000000" stroke-width="4" stroke-linecap="round" stroke-linejoin="round" d="M 304.877 157.395 C 304.882 157.393 355.562 143.002 355.567 143.001 C 355.567 143.004 357.745 176.131 357.746 176.135 C 357.741 176.134 309.258 169.861 307.462 168.023 C 307.199 167.754 304.878 157.396 304.877 157.395 Z"/>
<path fill="none" stroke="#000000" stroke-width="4" stroke-linecap="round" stroke-linejoin="round" d="M 316.502 161.957 C 327.631 160.707 338.760 159.457 349.889 158.207 "/>
<path fill="#ffffff" fill-rule="evenodd" stroke="#000000" stroke-width="4" stroke-linecap="round" stroke-linejoin="round" d="M 310.116 122.171 C 310.115 122.169 310.349 112.767 300.766 103.257 C 286.053 88.654 266.149 87.684 256.143 92.197 C 246.763 96.429 239.587 112.263 247.343 121.622 C 264.427 142.238 282.834 116.594 296.834 118.113 C 305.848 119.092 310.114 122.170 310.116 122.171 Z"/>
<path fill="none" stroke="#000000" stroke-width="4" stroke-linecap="round" stroke-linejoin="round" d="M 389.129 77.065 C 400.228 83.938 411.328 84.138 407.561 88.402 C 403.355 93.161 397.438 87.912 397.437 87.912 C 397.437 87.912 398.408 92.209 393.054 94.747 "/>
<path fill="none" stroke="#000000" stroke-width="4" stroke-linecap="round" stroke-linejoin="round" d="M 268.839 127.759 C 272.943 126.141 277.668 121.178 278.367 115.408 C 279.073 109.575 277.189 103.703 271.976 100.992 C 266.614 98.204 259.103 98.965 256.078 104.196 C 251.274 112.503 257.635 121.349 263.885 118.100 C 266.583 116.698 269.267 111.133 263.904 109.942 "/>
<path fill="none" stroke="#000000" stroke-width="4" stroke-linecap="round" stroke-linejoin="round" d="M 306.908 118.893 C 299.202 110.348 294.956 108.440 285.931 106.359 C 281.763 105.398 279.985 106.247 277.013 106.192 "/>
</g>
<g id="specs">
<path fill="#ff0000" fill-rule="evenodd" stroke="none" d="M 370.150 676.382 C 370.149 676.385 356.808 713.738 356.807 713.742 C 356.808 713.741 370.149 701.328 370.150 701.327 C 370.151 701.328 383.491 713.741 383.493 713.742 C 383.491 713.738 370.151 676.385 370.150 676.382 Z"/>
<path fill="#0000ff" fill-rule="evenodd" stroke="none" d="M 564.777 117.117 C 564.776 117.120 557.027 138.817 557.027 138.820 C 557.027 138.819 564.776 131.609 564.777 131.608 C 564.778 131.609 572.527 138.819 572.527 138.820 C 572.527 138.817 564.778 117.120 564.777 117.117 Z"/>
<path fill="#ffff00" fill-rule="evenodd" stroke="none" d="M 679.530 445.613 C 679.529 445.611 669.913 424.674 669.912 424.672 C 669.912 424.673 669.405 435.245 669.405 435.246 C 669.404 435.246 658.823 435.503 658.822 435.503 C 658.824 435.504 679.528 445.612 679.530 445.613 Z"/>
<path fill="#00ffff" fill-rule="evenodd" stroke="none" d="M 606.303 176.323 C 606.301 176.324 584.890 184.833 584.888 184.834 C 584.888 184.833 591.821 176.834 591.822 176.834 C 591.821 176.833 584.342 169.343 584.341 169.342 C 584.344 169.343 606.301 176.322 606.303 176.323 Z"/>
<path fill="#be0027" fill-rule="evenodd" stroke="none" d="M 50.505 549.955 C 50.507 549.953 62.860 523.873 62.862 523.870 C 62.862 523.871 63.339 537.120 63.339 537.121 C 63.341 537.121 76.589 537.599 76.591 537.599 C 76.588 537.600 50.508 549.954 50.505 549.955 Z"/>
<path fill="#ff00ff" fill-rule="evenodd" stroke="none" d="M 318.807 237.517 C 318.815 237.517 392.020 237.517 392.028 237.517 C 392.028 237.525 392.028 310.730 392.028 310.738 C 392.020 310.738 318.815 310.738 318.807 310.738 C 318.807 310.730 318.807 237.525 318.807 237.517 Z"/>
<path fill="#ff00ff" fill-rule="evenodd" stroke="none" d="M 250.844 390.777 C 250.854 390.777 358.736 390.777 358.747 390.777 C 358.747 390.788 358.747 498.669 358.747 498.680 C 358.736 498.680 250.854 498.680 250.844 498.680 C 250.844 498.669 250.844 390.788 250.844 390.777 Z"/>
<path fill="#ff00ff" fill-rule="evenodd" stroke="none" d="M 92.479 77.657 C 92.494 77.657 233.960 77.657 233.974 77.657 C 233.974 77.671 233.974 219.136 233.974 219.150 C 233.960 219.150 92.494 219.150 92.479 219.150 C 92.479 219.136 92.479 77.671 92.479 77.657 Z"/>
<path fill="#00ff00" fill-rule="evenodd" stroke="none" d="M 494.834 533.185 C 494.833 533.182 485.216 512.245 485.215 512.243 C 485.215 512.244 484.709 522.817 484.709 522.818 C 484.708 522.818 474.127 523.074 474.126 523.074 C 474.128 523.075 494.832 533.184 494.834 533.185 Z"/>
</g>
</g>
</svg>
