<?xml version="1.0" encoding="utf-8"?>
<!-- Generator: Moho 13.5 build 20210422 -->
<!DOCTYPE svg PUBLIC "-//W3C//DTD SVG 1.1//EN" "http://www.w3.org/Graphics/SVG/1.1/DTD/svg11.dtd">
<svg version="1.1" id="Frame_0" xmlns="http://www.w3.org/2000/svg" xmlns:xlink="http://www.w3.org/1999/xlink" width="720px" height="720px">
<g id="knight">
<g id="sword">
<path fill="#ffffff" fill-rule="evenodd" stroke="#000000" stroke-width="4" stroke-linecap="round" stroke-linejoin="round" d="M 296.788 117.722 C 296.788 117.721 300.080 109.901 300.080 109.900 C 300.081 109.900 303.373 102.079 303.373 102.079 C 303.358 102.072 148.704 37.512 148.688 37.505 C 148.686 37.505 126.942 37.010 126.940 37.010 C 126.942 37.012 142.492 52.217 142.494 52.219 C 142.509 52.225 296.772 117.716 296.788 117.722 Z"/>
<path fill="#ffffff" fill-rule="evenodd" stroke="#000000" stroke-width="4" stroke-linecap="round" stroke-linejoin="round" d="M 291.437 130.431 C 291.439 130.427 308.722 89.374 308.723 89.370 C 308.724 89.370 313.747 91.485 313.748 91.485 C 313.746 91.490 296.464 132.542 296.462 132.546 C 296.461 132.546 291.438 130.431 291.437 130.431 Z"/>
<path fill="#ffffff" fill-rule="evenodd" stroke="#000000" stroke-width="4" stroke-linecap="round" stroke-linejoin="round" d="M 322.119 123.602 C 321.957 122.239 322.133 120.800 322.710 119.427 C 323.288 118.055 324.195 116.923 325.283 116.087 C 319.151 113.492 306.703 108.225 306.701 108.225 C 306.701 108.225 303.509 115.806 303.509 115.807 C 303.511 115.808 315.978 121.030 322.119 123.602 Z"/>
<path fill="none" stroke="#ffffff" stroke-width="1" stroke-linecap="butt" stroke-linejoin="round" d="M 322.710 119.427 C 323.288 118.055 324.195 116.923 325.283 116.087 "/>
<path fill="none" stroke="#ffffff" stroke-width="1" stroke-linecap="butt" stroke-linejoin="round" d="M 322.119 123.602 C 321.957 122.239 322.133 120.800 322.710 119.427 "/>
<path fill="#ffffff" fill-rule="evenodd" stroke="#000000" stroke-width="4" stroke-linecap="round" stroke-linejoin="round" d="M 322.710 119.427 C 323.288 118.055 324.195 116.923 325.283 116.087 C 327.543 114.388 330.603 113.903 333.390 115.076 C 337.550 116.827 339.493 121.596 337.742 125.755 C 335.991 129.915 331.222 131.858 327.062 130.107 C 324.275 128.934 322.483 126.406 322.119 123.602 C 321.957 122.239 322.133 120.800 322.710 119.427 Z"/>
<path fill="none" stroke="#000000" stroke-width="4" stroke-linecap="round" stroke-linejoin="round" d="M 300.080 109.900 C 246.132 87.189 192.183 64.477 138.234 41.765 "/>
</g>
<g id="knight">
<path fill="#000000" fill-rule="evenodd" stroke="#ffffff" stroke-width="4" stroke-linecap="round" stroke-linejoin="round" d="M 463.170 196.056 C 482.474 195.714 487.015 210.707 494.374 230.234 C 500.693 220.273 511.489 208.105 501.396 188.973 C 495.667 178.112 479.402 172.571 471.727 176.112 C 472.970 185.518 469.036 191.292 463.170 196.056 Z"/>
<path fill="none" stroke="#000000" stroke-width="1" stroke-linecap="butt" stroke-linejoin="round" d="M 471.727 176.112 C 472.970 185.518 469.036 191.292 463.170 196.056 "/>
<path fill="#000000" fill-rule="evenodd" stroke="#ffffff" stroke-width="4" stroke-linecap="round" stroke-linejoin="round" d="M 471.727 176.112 C 472.970 185.518 469.036 191.292 463.170 196.056 C 460.788 196.098 458.369 194.940 455.535 194.587 C 457.409 187.298 461.116 179.659 450.860 163.246 C 460.243 163.669 468.271 171.660 471.727 176.112 Z"/>
<path fill="none" stroke="#000000" stroke-width="1" stroke-linecap="butt" stroke-linejoin="round" d="M 450.860 163.246 C 461.116 179.659 457.409 187.298 455.535 194.587 "/>
<path fill="#000000" fill-rule="evenodd" stroke="#ffffff" stroke-width="4" stroke-linecap="round" stroke-linejoin="round" d="M 450.860 163.246 C 461.116 179.659 457.409 187.298 455.535 194.587 C 450.017 193.898 444.569 193.665 438.587 193.855 C 435.639 177.318 426.728 166.206 410.548 162.423 C 424.273 155.679 438.929 155.879 450.860 163.246 Z"/>
<path fill="none" stroke="#000000" stroke-width="1" stroke-linecap="butt" stroke-linejoin="round" d="M 410.548 162.423 C 426.728 166.206 435.639 177.318 438.587 193.855 "/>
<path fill="#000000" fill-rule="evenodd" stroke="#ffffff" stroke-width="4" stroke-linecap="round" stroke-linejoin="round" d="M 410.548 162.423 C 426.728 166.206 435.639 177.318 438.587 193.855 C 432.559 194.048 426.486 194.793 420.091 196.445 C 411.071 184.767 398.630 172.733 373.760 175.215 C 380.658 166.633 401.149 160.385 410.548 162.423 Z"/>
<path fill="none" stroke="#000000" stroke-width="1" stroke-linecap="butt" stroke-linejoin="round" d="M 373.760 175.215 C 398.630 172.733 411.071 184.767 420.091 196.445 "/>
<path fill="#000000" fill-rule="evenodd" stroke="#ffffff" stroke-width="4" stroke-linecap="round" stroke-linejoin="round" d="M 373.760 175.215 C 398.630 172.733 411.071 184.767 420.091 196.445 C 411.854 198.574 403.201 201.347 394.907 206.992 C 384.751 196.131 366.193 191.531 346.331 196.483 C 349.838 189.319 362.174 177.485 373.760 175.215 Z"/>
<path fill="none" stroke="#000000" stroke-width="1" stroke-linecap="butt" stroke-linejoin="round" d="M 346.331 196.483 C 366.193 191.531 384.751 196.131 394.907 206.992 "/>
<path fill="#000000" fill-rule="evenodd" stroke="#ffffff" stroke-width="4" stroke-linecap="round" stroke-linejoin="round" d="M 346.331 196.483 C 366.193 191.531 384.751 196.131 394.907 206.992 C 388.690 211.224 382.647 215.894 377.824 222.464 C 365.024 219.718 347.691 215.981 321.662 235.226 C 323.824 215.573 336.765 201.533 346.331 196.483 Z"/>
<path fill="none" stroke="#000000" stroke-width="1" stroke-linecap="butt" stroke-linejoin="round" d="M 321.662 235.226 C 347.691 215.981 365.024 219.718 377.824 222.464 "/>
<path fill="#000000" fill-rule="evenodd" stroke="#ffffff" stroke-width="4" stroke-linecap="round" stroke-linejoin="round" d="M 321.662 235.226 C 347.691 215.981 365.024 219.718 377.824 222.464 C 370.604 232.298 365.900 242.908 363.536 253.024 C 342.837 253.021 325.888 256.041 310.052 272.980 C 308.914 265.782 311.779 244.236 321.662 235.226 Z"/>
<path fill="none" stroke="#000000" stroke-width="1" stroke-linecap="butt" stroke-linejoin="round" d="M 310.052 272.980 C 325.888 256.041 342.837 253.021 363.536 253.024 "/>
<path fill="#000000" fill-rule="evenodd" stroke="#ffffff" stroke-width="4" stroke-linecap="round" stroke-linejoin="round" d="M 310.052 272.980 C 325.888 256.041 342.837 253.021 363.536 253.024 C 359.578 269.957 356.040 282.981 356.100 296.049 C 340.682 292.997 312.296 308.410 300.436 331.306 C 298.878 323.749 292.363 299.707 310.052 272.980 Z"/>
<path fill="none" stroke="#000000" stroke-width="1" stroke-linecap="butt" stroke-linejoin="round" d="M 300.436 331.306 C 312.296 308.410 340.682 292.997 356.100 296.049 "/>
<path fill="#000000" fill-rule="evenodd" stroke="#ffffff" stroke-width="4" stroke-linecap="round" stroke-linejoin="round" d="M 300.436 331.306 C 312.296 308.410 340.682 292.997 356.100 296.049 C 356.161 309.213 356.941 355.746 356.941 355.752 C 356.936 355.754 318.333 371.222 307.181 376.524 C 299.496 365.819 290.788 352.275 300.436 331.306 Z"/>
<path fill="#000000" fill-rule="evenodd" stroke="#ffffff" stroke-width="4" stroke-linecap="round" stroke-linejoin="round" d="M 184.675 401.443 C 151.004 397.481 168.459 420.360 138.470 424.323 C 133.490 396.071 147.813 385.261 164.694 381.566 C 177.468 382.527 181.197 397.951 184.675 401.443 Z"/>
<path fill="#ffffff" fill-rule="evenodd" stroke="#000000" stroke-width="4" stroke-linecap="round" stroke-linejoin="round" d="M 197.736 451.086 C 196.158 417.760 286.543 386.207 307.242 450.719 C 309.045 456.341 306.538 475.887 298.798 498.005 C 286.899 532.007 239.583 541.709 239.692 556.401 C 239.777 567.808 276.345 599.028 284.004 603.291 C 292.360 607.941 311.405 632.253 311.408 632.256 C 311.404 632.256 271.695 631.838 271.691 631.838 C 271.691 631.836 269.675 619.497 264.609 614.421 C 261.666 611.473 254.257 616.278 252.017 610.554 C 241.730 584.265 209.127 562.380 211.536 552.905 C 213.274 546.068 231.301 525.009 230.298 506.089 C 229.561 492.188 198.947 476.656 197.736 451.086 M 435.313 400.191 C 435.313 400.188 438.102 370.096 438.102 370.093 C 438.109 370.090 477.069 361.549 506.831 342.382 C 515.807 336.601 520.926 347.552 523.539 349.961 C 528.734 354.749 555.983 386.106 565.639 396.270 C 568.604 399.391 568.487 412.088 572.383 423.427 C 574.779 430.398 566.166 451.800 566.166 451.803 C 566.164 451.801 548.660 430.650 548.658 430.648 C 548.659 430.646 558.233 417.953 556.406 412.801 C 553.891 405.707 544.445 410.963 543.807 406.364 C 541.584 390.334 516.507 362.138 512.529 361.378 C 507.795 360.473 459.508 399.291 459.503 399.295 C 459.501 399.295 435.315 400.191 435.313 400.191 Z"/>
<path fill="#ffffff" fill-rule="evenodd" stroke="none" d="M 514.559 385.909 C 499.316 387.436 479.351 388.200 462.036 388.920 C 462.026 365.417 450.437 341.702 436.640 327.466 C 430.698 304.057 423.095 254.856 446.348 245.151 C 455.949 258.454 471.074 264.175 471.077 264.177 C 471.077 264.179 475.845 274.622 479.894 285.889 C 480.329 287.100 487.849 287.902 487.850 287.902 C 487.850 287.901 488.180 276.445 488.180 276.444 C 488.181 276.445 496.721 288.264 496.721 288.265 C 496.722 288.264 504.167 283.563 504.873 279.994 C 505.736 275.630 493.948 218.040 491.065 209.504 C 487.304 198.366 479.303 194.102 479.302 194.100 C 479.301 194.098 471.752 169.113 471.751 169.111 C 471.751 169.113 465.307 190.522 465.306 190.524 C 465.297 190.527 410.699 174.883 373.524 216.035 C 347.953 244.342 354.797 300.108 341.869 340.172 C 331.004 373.847 280.684 369.920 235.460 375.309 C 165.957 383.590 163.824 413.456 164.973 450.890 C 166.193 490.601 197.495 491.371 193.359 516.578 C 191.726 526.527 163.620 538.670 157.516 546.763 C 148.453 558.779 181.288 571.687 183.911 608.514 C 184.438 615.904 190.863 612.046 195.570 615.971 C 203.568 622.640 204.793 638.318 204.794 638.320 C 204.798 638.320 247.007 638.097 247.011 638.097 C 247.008 638.094 228.098 612.051 219.391 608.120 C 198.189 598.550 182.573 561.460 183.082 558.817 C 188.652 529.896 237.968 551.347 259.994 495.696 C 271.048 467.764 266.512 433.919 266.513 433.913 C 266.513 433.917 268.992 463.869 267.583 469.644 C 275.104 465.409 284.561 469.314 314.461 473.253 C 382.452 482.209 423.140 458.355 453.660 420.842 C 449.260 423.232 440.168 426.026 437.813 425.881 C 431.210 425.474 420.861 417.033 420.860 417.032 C 420.861 417.033 430.987 425.658 438.336 425.692 C 446.637 425.730 502.373 399.667 506.106 404.125 C 510.013 408.790 490.876 443.775 489.818 450.463 C 489.592 451.888 493.169 456.475 489.631 460.928 C 488.581 462.251 473.116 465.262 473.115 465.263 C 473.114 465.265 465.335 489.306 465.334 489.309 C 465.336 489.308 485.493 486.742 489.075 482.678 C 498.422 472.071 508.967 466.447 508.694 459.364 C 508.069 443.134 518.522 407.855 524.861 399.163 C 526.674 396.677 522.408 385.122 514.559 385.909 Z"/>
<path fill="none" stroke="#000000" stroke-width="4" stroke-linecap="round" stroke-linejoin="round" d="M 462.036 388.920 C 447.829 389.455 435.527 389.903 429.148 389.785 M 514.559 385.909 C 499.316 387.436 479.351 388.200 462.036 388.920 C 462.026 365.417 450.437 341.702 436.640 327.466 C 430.698 304.057 423.095 254.856 446.348 245.151 C 455.949 258.454 471.074 264.175 471.077 264.177 C 471.077 264.179 475.845 274.622 479.894 285.889 C 480.329 287.100 487.849 287.902 487.850 287.902 C 487.850 287.901 488.180 276.445 488.180 276.444 C 488.181 276.445 496.721 288.264 496.721 288.265 C 496.722 288.264 504.167 283.563 504.873 279.994 C 505.736 275.630 493.948 218.040 491.065 209.504 C 487.304 198.366 479.303 194.102 479.302 194.100 C 479.301 194.098 471.752 169.113 471.751 169.111 C 471.751 169.113 465.307 190.522 465.306 190.524 C 465.297 190.527 410.699 174.883 373.524 216.035 C 347.953 244.342 354.797 300.108 341.869 340.172 C 331.004 373.847 280.684 369.920 235.460 375.309 C 165.957 383.590 163.824 413.456 164.973 450.890 C 166.193 490.601 197.495 491.371 193.359 516.578 C 191.726 526.527 163.620 538.670 157.516 546.763 C 148.453 558.779 181.288 571.687 183.911 608.514 C 184.438 615.904 190.863 612.046 195.570 615.971 C 203.568 622.640 204.793 638.318 204.794 638.320 C 204.798 638.320 247.007 638.097 247.011 638.097 C 247.008 638.094 228.098 612.051 219.391 608.120 C 198.189 598.550 182.573 561.460 183.082 558.817 C 188.652 529.896 237.968 551.347 259.994 495.696 C 271.048 467.764 266.512 433.919 266.513 433.913 C 266.513 433.917 268.992 463.869 267.583 469.644 C 275.104 465.409 284.561 469.314 314.461 473.253 C 382.452 482.209 423.140 458.355 453.660 420.842 C 449.260 423.232 440.168 426.026 437.813 425.881 C 431.210 425.474 420.861 417.033 420.860 417.032 C 420.861 417.033 430.987 425.658 438.336 425.692 C 446.637 425.730 502.373 399.667 506.106 404.125 C 510.013 408.790 490.876 443.775 489.818 450.463 C 489.592 451.888 493.169 456.475 489.631 460.928 C 488.581 462.251 473.116 465.262 473.115 465.263 C 473.114 465.265 465.335 489.306 465.334 489.309 C 465.336 489.308 485.493 486.742 489.075 482.678 C 498.422 472.071 508.967 466.447 508.694 459.364 C 508.069 443.134 518.522 407.855 524.861 399.163 C 526.674 396.677 522.408 385.122 514.559 385.909 "/>
<path fill="#ffffff" fill-rule="evenodd" stroke="#000000" stroke-width="4" stroke-linecap="round" stroke-linejoin="round" d="M 124.408 246.807 C 124.415 246.805 168.101 285.563 197.678 230.331 C 204.006 239.198 208.306 244.953 215.610 250.950 C 214.092 252.233 212.604 253.466 210.708 254.993 C 163.997 292.936 147.555 280.279 118.684 256.934 C 92.575 264.072 73.794 251.390 73.068 247.551 C 86.865 247.490 124.403 246.807 124.408 246.807 Z"/>
<path fill="#ffffff" fill-rule="evenodd" stroke="#000000" stroke-width="4" stroke-linecap="round" stroke-linejoin="round" d="M 313.509 141.604 C 327.823 161.569 316.291 192.096 299.131 209.349 C 299.290 212.369 299.866 217.485 298.818 223.495 C 301.199 226.702 302.344 230.048 305.045 234.844 C 328.772 215.374 357.546 167.878 325.969 135.025 C 323.399 132.350 321.773 131.060 321.773 131.060 C 321.774 131.058 330.822 114.703 330.823 114.701 C 330.821 114.700 309.369 103.497 309.367 103.496 C 309.367 103.497 306.381 112.464 306.381 112.465 C 306.380 112.467 300.834 127.635 300.834 127.636 C 300.835 127.637 308.361 134.424 313.509 141.604 Z"/>
<path fill="none" stroke="#000000" stroke-width="4" stroke-linecap="round" stroke-linejoin="round" d="M 306.381 112.465 C 316.771 118.799 327.118 118.914 323.634 122.912 C 319.745 127.375 314.196 122.521 314.195 122.521 C 314.195 122.522 315.128 126.520 310.154 128.920 "/>
<path fill="none" stroke="#000000" stroke-width="1" stroke-linecap="butt" stroke-linejoin="round" d="M 210.708 254.993 C 212.604 253.466 214.092 252.233 215.610 250.950 "/>
<path fill="none" stroke="#000000" stroke-width="1" stroke-linecap="butt" stroke-linejoin="round" d="M 298.818 223.495 C 301.199 226.702 302.344 230.048 305.045 234.844 "/>
<path fill="#000000" fill-rule="evenodd" stroke="#ffffff" stroke-width="4" stroke-linecap="round" stroke-linejoin="round" d="M 240.613 343.871 C 235.908 294.821 224.679 287.281 210.708 254.993 C 212.604 253.466 214.092 252.233 215.610 250.950 C 218.846 253.607 247.497 267.915 269.299 259.990 C 289.029 252.818 296.591 236.266 298.818 223.495 C 301.199 226.702 302.344 230.048 305.045 234.844 C 315.034 252.582 324.266 283.030 309.048 339.998 C 297.867 347.169 262.599 353.746 240.613 343.871 Z"/>
<path fill="#000000" fill-rule="evenodd" stroke="#ffffff" stroke-width="4" stroke-linecap="round" stroke-linejoin="round" d="M 142.690 512.074 C 194.030 526.886 254.540 519.670 306.750 505.740 C 313.061 447.209 301.474 420.060 278.030 395.185 C 258.321 395.144 239.665 391.643 225.706 386.817 C 225.377 386.255 227.679 379.330 230.696 371.112 C 212.162 372.807 203.697 375.453 183.650 384.336 C 187.345 387.967 187.906 397.879 182.621 403.012 C 175.766 409.669 167.607 408.043 164.473 406.885 C 150.914 441.324 166.290 452.668 142.690 512.074 Z"/>
<path fill="#000000" fill-rule="evenodd" stroke="#ffffff" stroke-width="4" stroke-linecap="round" stroke-linejoin="round" d="M 326.988 493.554 C 326.989 493.544 345.889 430.161 331.380 384.984 C 339.380 381.510 347.075 377.025 354.225 371.344 C 346.495 361.986 339.113 355.429 332.390 351.243 C 334.636 349.519 336.986 347.555 339.387 345.367 C 347.142 353.322 361.269 355.146 389.266 356.909 C 418.955 358.779 452.385 339.350 452.392 339.348 C 452.395 339.353 457.397 357.396 483.470 385.418 C 411.004 385.279 423.613 464.202 355.138 490.342 C 349.688 492.423 344.034 494.373 338.256 496.300 C 334.389 495.374 326.989 493.554 326.988 493.554 Z"/>
<path fill="#000000" fill-rule="evenodd" stroke="#ffffff" stroke-width="4" stroke-linecap="round" stroke-linejoin="round" d="M 448.816 231.090 C 453.119 243.821 466.385 256.955 474.766 264.373 C 472.004 265.161 467.918 266.349 467.917 266.349 C 467.918 266.350 470.261 275.698 470.261 275.699 C 470.261 275.699 471.724 275.297 472.903 274.925 C 462.782 284.129 439.424 303.333 415.113 309.134 C 391.646 314.733 360.165 306.564 346.451 303.551 C 342.414 325.423 337.292 343.138 337.291 343.142 C 337.300 343.142 386.875 357.682 424.006 339.423 C 481.698 311.054 479.708 279.862 478.635 272.883 C 482.683 278.839 494.229 275.646 494.369 268.923 C 498.792 267.873 507.801 265.402 507.802 265.402 C 507.802 265.401 504.073 255.840 504.073 255.839 C 504.071 255.839 497.747 257.815 490.218 260.171 C 486.145 257.147 482.628 259.747 482.628 259.747 C 476.054 252.994 463.345 236.529 458.792 219.285 C 455.898 208.323 462.622 187.610 462.623 187.607 C 462.622 187.607 455.703 186.687 450.678 185.200 C 448.478 191.000 441.613 209.778 448.816 231.090 Z"/>
<path fill="none" stroke="#ffffff" stroke-width="1" stroke-linecap="butt" stroke-linejoin="round" d="M 278.030 395.185 C 301.474 420.060 313.061 447.209 306.750 505.740 "/>
<path fill="none" stroke="#ffffff" stroke-width="1" stroke-linecap="butt" stroke-linejoin="round" d="M 338.256 496.300 C 334.389 495.374 326.989 493.554 326.988 493.554 "/>
<path fill="none" stroke="#ffffff" stroke-width="1" stroke-linecap="butt" stroke-linejoin="round" d="M 326.988 493.554 C 326.989 493.544 345.889 430.161 331.380 384.984 "/>
<path fill="#ffffff" fill-rule="evenodd" stroke="#000000" stroke-width="4" stroke-linecap="round" stroke-linejoin="round" d="M 331.380 384.984 C 314.249 392.422 295.718 395.223 278.030 395.185 C 301.474 420.060 313.061 447.209 306.750 505.740 C 306.412 508.182 306.030 511.316 305.598 514.539 C 328.398 513.761 375.249 505.424 375.256 505.423 C 375.253 505.422 350.479 499.330 338.256 496.300 C 334.389 495.374 326.989 493.554 326.988 493.554 C 326.989 493.544 345.889 430.161 331.380 384.984 Z"/>
<path fill="none" stroke="#ffffff" stroke-width="1" stroke-linecap="butt" stroke-linejoin="round" d="M 299.131 209.349 C 299.290 212.369 299.866 217.485 298.818 223.495 "/>
<path fill="none" stroke="#ffffff" stroke-width="1" stroke-linecap="butt" stroke-linejoin="round" d="M 298.818 223.495 C 296.591 236.266 289.029 252.818 269.299 259.990 "/>
<path fill="none" stroke="#ffffff" stroke-width="1" stroke-linecap="butt" stroke-linejoin="round" d="M 269.299 259.990 C 247.497 267.915 218.846 253.607 215.610 250.950 "/>
<path fill="none" stroke="#ffffff" stroke-width="1" stroke-linecap="butt" stroke-linejoin="round" d="M 215.610 250.950 C 208.306 244.953 204.006 239.198 197.678 230.331 "/>
<path fill="#ffffff" fill-rule="evenodd" stroke="#000000" stroke-width="4" stroke-linecap="round" stroke-linejoin="round" d="M 298.224 205.875 C 299.567 205.351 299.010 207.048 299.131 209.349 C 299.290 212.369 299.866 217.485 298.818 223.495 C 296.591 236.266 289.029 252.818 269.299 259.990 C 247.497 267.915 218.846 253.607 215.610 250.950 C 208.306 244.953 204.006 239.198 197.678 230.331 C 195.678 227.530 193.851 223.591 193.850 223.591 C 193.854 223.590 236.496 220.451 236.500 220.450 C 236.502 220.447 218.119 202.966 213.641 189.258 C 216.040 174.615 233.191 155.821 233.193 155.817 C 233.196 155.819 262.926 162.179 268.190 173.255 C 268.188 173.258 269.385 187.497 266.587 215.324 C 276.641 212.580 288.741 209.577 298.224 205.875 Z"/>
<path fill="#ffffff" fill-rule="evenodd" stroke="none" d="M 228.376 187.884 C 228.381 187.883 275.523 174.140 275.528 174.138 C 275.528 174.142 277.773 205.004 277.774 205.007 C 277.769 205.006 232.540 199.475 230.854 197.773 C 230.607 197.524 228.376 187.885 228.376 187.884 Z"/>
<path fill="none" stroke="#000000" stroke-width="4" stroke-linecap="round" stroke-linejoin="round" d="M 239.240 192.061 C 251.665 190.809 264.090 189.557 276.514 188.306 M 230.854 197.773 C 230.607 197.524 228.376 187.885 228.376 187.884 C 228.381 187.883 275.523 174.140 275.528 174.138 C 275.528 174.142 277.773 205.004 277.774 205.007 C 277.769 205.006 232.540 199.475 230.854 197.773 "/>
<path fill="none" stroke="#000000" stroke-width="1" stroke-linecap="butt" stroke-linejoin="round" d="M 309.048 339.998 C 297.867 347.169 262.599 353.746 240.613 343.871 "/>
<path fill="none" stroke="#000000" stroke-width="1" stroke-linecap="butt" stroke-linejoin="round" d="M 230.696 371.112 C 227.679 379.330 225.377 386.255 225.706 386.817 "/>
<path fill="none" stroke="#000000" stroke-width="1" stroke-linecap="butt" stroke-linejoin="round" d="M 225.706 386.817 C 239.665 391.643 258.321 395.144 278.030 395.185 "/>
<path fill="none" stroke="#000000" stroke-width="1" stroke-linecap="butt" stroke-linejoin="round" d="M 278.030 395.185 C 295.718 395.223 314.249 392.422 331.380 384.984 "/>
<path fill="none" stroke="#000000" stroke-width="1" stroke-linecap="butt" stroke-linejoin="round" d="M 331.380 384.984 C 339.380 381.510 347.075 377.025 354.225 371.344 "/>
<path fill="none" stroke="#000000" stroke-width="1" stroke-linecap="butt" stroke-linejoin="round" d="M 354.225 371.344 C 346.495 361.986 339.113 355.429 332.390 351.243 "/>
<path fill="#000000" fill-rule="evenodd" stroke="#ffffff" stroke-width="4" stroke-linecap="round" stroke-linejoin="round" d="M 309.048 339.998 C 297.867 347.169 262.599 353.746 240.613 343.871 C 240.612 343.874 234.118 361.220 230.696 371.112 C 227.679 379.330 225.377 386.255 225.706 386.817 C 239.665 391.643 258.321 395.144 278.030 395.185 C 295.718 395.223 314.249 392.422 331.380 384.984 C 339.380 381.510 347.075 377.025 354.225 371.344 C 346.495 361.986 339.113 355.429 332.390 351.243 C 322.504 343.561 309.901 339.959 309.048 339.998 Z"/>
<path fill="#000000" fill-rule="evenodd" stroke="none" d="M 498.294 274.626 C 496.796 274.395 495.402 275.418 495.171 276.915 C 494.940 278.413 495.962 279.808 497.460 280.039 C 498.958 280.270 500.353 279.248 500.583 277.750 C 500.814 276.252 499.792 274.857 498.294 274.626 Z"/>
<path fill="none" stroke="#000000" stroke-width="4" stroke-linecap="round" stroke-linejoin="round" d="M 323.634 122.912 C 319.745 127.375 314.196 122.521 314.195 122.521 C 314.195 122.522 315.128 126.520 310.154 128.920 "/>
<path fill="none" stroke="#000000" stroke-width="1" stroke-linecap="butt" stroke-linejoin="round" d="M 164.694 381.566 C 147.813 385.261 133.490 396.071 138.470 424.323 "/>
<path fill="#000000" fill-rule="evenodd" stroke="#ffffff" stroke-width="4" stroke-linecap="round" stroke-linejoin="round" d="M 132.243 375.803 C 140.454 370.761 156.372 369.671 164.694 381.566 C 147.813 385.261 133.490 396.071 138.470 424.323 C 140.540 436.068 139.982 460.393 120.886 465.664 C 112.856 428.837 105.382 394.119 132.243 375.803 Z"/>
<path fill="none" stroke="#000000" stroke-width="1" stroke-linecap="butt" stroke-linejoin="round" d="M 120.886 465.664 C 112.856 428.837 105.382 394.119 132.243 375.803 "/>
<path fill="#000000" fill-rule="evenodd" stroke="#ffffff" stroke-width="4" stroke-linecap="round" stroke-linejoin="round" d="M 98.092 385.627 C 74.193 415.776 103.837 475.436 98.858 532.188 C 118.608 518.943 126.487 491.349 120.886 465.664 C 112.856 428.837 105.382 394.119 132.243 375.803 C 114.034 371.659 102.904 380.669 98.092 385.627 Z"/>
<path fill="none" stroke="#000000" stroke-width="1" stroke-linecap="butt" stroke-linejoin="round" d="M 98.092 385.627 C 74.193 415.776 103.837 475.436 98.858 532.188 "/>
<path fill="#000000" fill-rule="evenodd" stroke="#ffffff" stroke-width="4" stroke-linecap="round" stroke-linejoin="round" d="M 98.858 532.188 C 95.542 569.988 74.002 579.537 62.961 577.678 C 81.993 513.406 54.682 445.510 73.202 407.721 C 78.007 397.913 85.670 385.258 98.092 385.627 C 74.193 415.776 103.837 475.436 98.858 532.188 Z"/>
<path fill="none" stroke="#000000" stroke-width="1" stroke-linecap="butt" stroke-linejoin="round" d="M 73.202 407.721 C 54.682 445.510 81.993 513.406 62.961 577.678 "/>
<path fill="#000000" fill-rule="evenodd" stroke="#ffffff" stroke-width="4" stroke-linecap="round" stroke-linejoin="round" d="M 62.961 577.678 C 50.734 601.143 31.447 609.323 15.204 593.997 C 54.950 552.865 35.305 493.417 42.786 455.036 C 46.499 435.991 55.653 418.406 73.202 407.721 C 54.682 445.510 81.993 513.406 62.961 577.678 Z"/>
<path fill="none" stroke="#ffffff" stroke-width="4" stroke-linecap="round" stroke-linejoin="round" d="M 15.204 593.997 C 54.950 552.865 35.305 493.417 42.786 455.036 "/>
<path fill="#000000" fill-rule="evenodd" stroke="none" d="M 478.657 226.913 C 482.246 224.282 483.020 219.265 480.390 215.676 C 477.759 212.087 472.742 211.313 469.153 213.944 C 465.564 216.574 464.790 221.591 467.421 225.180 C 470.051 228.769 475.068 229.543 478.657 226.913 M 486.504 237.374 C 486.504 237.371 492.549 225.870 483.526 213.558 C 474.504 201.246 461.716 203.547 461.714 203.546 C 461.714 203.549 455.669 215.049 464.692 227.361 C 473.715 239.673 486.502 237.373 486.504 237.374 Z"/>
<path fill="none" stroke="#ffffff" stroke-width="4" stroke-linecap="round" stroke-linejoin="round" d="M 148.005 503.979 C 197.816 517.838 256.297 510.298 306.684 496.339 "/>
<path fill="none" stroke="#ffffff" stroke-width="4" stroke-linecap="round" stroke-linejoin="round" d="M 330.148 489.194 C 335.926 487.266 341.521 485.156 347.030 483.236 C 414.591 459.691 409.207 376.241 476.255 377.858 "/>
<path fill="none" stroke="#ffffff" stroke-width="4" stroke-linecap="round" stroke-linejoin="round" d="M 339.473 335.068 C 343.901 335.893 389.889 348.506 424.842 330.911 C 470.709 307.823 479.210 279.768 478.638 273.331 "/>
</g>
<g id="specs_2">
<path fill="#ff00ff" fill-rule="evenodd" stroke="none" d="M 181.099 501.000 C 181.109 501.000 284.143 501.000 284.154 501.000 C 284.154 500.990 284.154 397.955 284.154 397.945 C 284.143 397.945 181.109 397.945 181.099 397.945 C 181.099 397.955 181.099 500.990 181.099 501.000 Z"/>
<path fill="#ff0000" fill-rule="evenodd" stroke="none" d="M 261.157 638.440 C 261.158 638.444 272.592 670.459 272.593 670.462 C 272.592 670.461 261.158 659.823 261.157 659.822 C 261.155 659.823 249.721 670.461 249.720 670.462 C 249.721 670.459 261.155 638.444 261.157 638.440 Z"/>
<path fill="#00ff00" fill-rule="evenodd" stroke="none" d="M 705.221 637.812 C 705.220 637.814 698.484 656.377 698.484 656.379 C 698.484 656.378 705.158 650.232 705.158 650.232 C 705.159 650.232 711.769 656.445 711.770 656.446 C 711.769 656.444 705.222 637.814 705.221 637.812 Z"/>
<path fill="#ff00ff" fill-rule="evenodd" stroke="none" d="M 241.997 331.170 C 242.004 331.170 310.927 331.170 310.934 331.170 C 310.934 331.163 310.934 262.240 310.934 262.233 C 310.927 262.233 242.004 262.233 241.997 262.233 C 241.997 262.240 241.997 331.163 241.997 331.170 Z"/>
<path fill="#ff00ff" fill-rule="evenodd" stroke="none" d="M 37.739 246.255 C 37.751 246.255 155.891 246.255 155.903 246.255 C 155.903 246.243 155.903 128.103 155.903 128.091 C 155.891 128.091 37.751 128.091 37.739 128.091 C 37.739 128.103 37.739 246.243 37.739 246.255 Z"/>
<path fill="#ffff00" fill-rule="evenodd" stroke="none" d="M 482.625 551.076 C 482.624 551.074 475.888 532.510 475.887 532.508 C 475.888 532.509 482.561 538.655 482.562 538.656 C 482.563 538.655 489.173 532.442 489.173 532.441 C 489.173 532.443 482.625 551.074 482.625 551.076 Z"/>
</g>
</g>
</svg>
