<?xml version="1.0" encoding="utf-8"?>
<!-- Generator: Moho 12.5 build 22414 -->
<!DOCTYPE svg PUBLIC "-//W3C//DTD SVG 1.1//EN" "http://www.w3.org/Graphics/SVG/1.1/DTD/svg11.dtd">
<svg version="1.1" id="Frame_0" xmlns="http://www.w3.org/2000/svg" xmlns:xlink="http://www.w3.org/1999/xlink" width="720px" height="720px">
<g id="knight_1_3">
<g id="sword_3">
<path fill="#ffffff" fill-rule="evenodd" stroke="#000000" stroke-width="4" stroke-linecap="round" stroke-linejoin="round" d="M 384.712 71.856 C 384.712 71.857 381.807 79.938 381.807 79.939 C 381.806 79.940 378.901 88.022 378.901 88.023 C 378.885 88.017 219.430 30.159 219.414 30.153 C 219.413 30.151 202.874 15.623 202.872 15.621 C 202.874 15.621 224.878 14.947 224.880 14.947 C 224.896 14.953 384.696 71.850 384.712 71.856 Z"/>
<path fill="#ffffff" fill-rule="evenodd" stroke="#000000" stroke-width="4" stroke-linecap="round" stroke-linejoin="round" d="M 389.433 58.722 C 389.432 58.726 374.182 101.152 374.180 101.156 C 374.181 101.156 379.372 103.023 379.373 103.023 C 379.375 103.019 394.624 60.592 394.626 60.588 C 394.625 60.588 389.434 58.722 389.433 58.722 Z"/>
<path fill="#ffffff" fill-rule="evenodd" stroke="#000000" stroke-width="4" stroke-linecap="round" stroke-linejoin="round" d="M 407.614 84.830 C 406.559 85.734 405.704 86.927 405.194 88.346 C 404.684 89.764 404.584 91.228 404.821 92.597 C 398.476 90.329 385.593 85.724 385.591 85.723 C 385.592 85.723 388.407 77.888 388.408 77.887 C 388.410 77.888 401.276 82.539 407.614 84.830 Z"/>
<path fill="none" stroke="#ffffff" stroke-width="1" stroke-linecap="butt" stroke-linejoin="round" d="M 405.194 88.346 C 404.684 89.764 404.584 91.228 404.821 92.597 "/>
<path fill="none" stroke="#ffffff" stroke-width="1" stroke-linecap="butt" stroke-linejoin="round" d="M 407.614 84.830 C 406.559 85.734 405.704 86.927 405.194 88.346 "/>
<path fill="#ffffff" fill-rule="evenodd" stroke="#000000" stroke-width="4" stroke-linecap="round" stroke-linejoin="round" d="M 405.194 88.346 C 404.684 89.764 404.584 91.228 404.821 92.597 C 405.341 95.411 407.289 97.869 410.169 98.905 C 414.468 100.450 419.183 98.229 420.729 93.930 C 422.274 89.630 420.052 84.916 415.753 83.370 C 412.873 82.335 409.806 82.991 407.614 84.830 C 406.559 85.734 405.704 86.927 405.194 88.346 Z"/>
<path fill="none" stroke="#000000" stroke-width="4" stroke-linecap="round" stroke-linejoin="round" d="M 381.807 79.939 C 326.052 59.899 270.298 39.858 214.544 19.817 "/>
</g>
<g id="horse">
<path fill="#000000" fill-rule="evenodd" stroke="none" d="M 593.811 252.475 C 592.205 252.216 590.701 253.303 590.442 254.908 C 590.183 256.513 591.269 258.017 592.875 258.276 C 594.480 258.535 595.984 257.449 596.243 255.844 C 596.502 254.238 595.416 252.734 593.811 252.475 Z"/>
<path fill="none" stroke="#000000" stroke-width="4" stroke-linecap="round" stroke-linejoin="round" d="M 407.561 88.402 C 403.355 93.161 397.438 87.912 397.437 87.912 C 397.437 87.912 398.408 92.209 393.054 94.747 "/>
<path fill="#000000" fill-rule="evenodd" stroke="#ffffff" stroke-width="4" stroke-linecap="round" stroke-linejoin="round" d="M 381.114 311.804 C 394.009 287.329 424.578 271.005 441.097 274.395 C 441.064 288.519 441.553 338.447 441.553 338.453 C 441.547 338.456 400.016 354.762 388.012 360.367 C 379.847 348.824 370.607 334.229 381.114 311.804 Z"/>
<path fill="none" stroke="#000000" stroke-width="1" stroke-linecap="butt" stroke-linejoin="round" d="M 441.097 274.395 C 424.578 271.005 394.009 287.329 381.114 311.804 "/>
<path fill="#000000" fill-rule="evenodd" stroke="#ffffff" stroke-width="4" stroke-linecap="round" stroke-linejoin="round" d="M 391.867 249.302 C 408.983 231.246 427.190 228.133 449.396 228.291 C 445.023 246.428 441.130 260.374 441.097 274.395 C 424.578 271.005 394.009 287.329 381.114 311.804 C 379.499 303.685 372.689 277.843 391.867 249.302 Z"/>
<path fill="none" stroke="#000000" stroke-width="1" stroke-linecap="butt" stroke-linejoin="round" d="M 449.396 228.291 C 427.190 228.133 408.983 231.246 391.867 249.302 "/>
<path fill="#000000" fill-rule="evenodd" stroke="#ffffff" stroke-width="4" stroke-linecap="round" stroke-linejoin="round" d="M 404.605 208.883 C 432.674 188.431 451.242 192.570 464.954 195.612 C 457.135 206.108 452.008 217.456 449.396 228.291 C 427.190 228.133 408.983 231.246 391.867 249.302 C 390.700 241.570 393.935 218.475 404.605 208.883 Z"/>
<path fill="none" stroke="#000000" stroke-width="1" stroke-linecap="butt" stroke-linejoin="round" d="M 464.954 195.612 C 451.242 192.570 432.674 188.431 404.605 208.883 "/>
<path fill="#000000" fill-rule="evenodd" stroke="#ffffff" stroke-width="4" stroke-linecap="round" stroke-linejoin="round" d="M 431.361 167.503 C 452.707 162.339 472.582 167.412 483.398 179.141 C 476.696 183.634 470.178 188.599 464.954 195.612 C 451.242 192.570 432.674 188.431 404.605 208.883 C 407.071 187.814 421.061 172.848 431.361 167.503 Z"/>
<path fill="none" stroke="#000000" stroke-width="1" stroke-linecap="butt" stroke-linejoin="round" d="M 483.398 179.141 C 472.582 167.412 452.707 162.339 431.361 167.503 "/>
<path fill="#000000" fill-rule="evenodd" stroke="#ffffff" stroke-width="4" stroke-linecap="round" stroke-linejoin="round" d="M 460.947 144.890 C 487.648 142.413 500.905 155.417 510.495 168.014 C 501.642 170.236 492.338 173.146 483.398 179.141 C 472.582 167.412 452.707 162.339 431.361 167.503 C 435.177 159.842 448.500 147.239 460.947 144.890 Z"/>
<path fill="none" stroke="#000000" stroke-width="1" stroke-linecap="butt" stroke-linejoin="round" d="M 510.495 168.014 C 500.905 155.417 487.648 142.413 460.947 144.890 "/>
<path fill="#000000" fill-rule="evenodd" stroke="#ffffff" stroke-width="4" stroke-linecap="round" stroke-linejoin="round" d="M 500.511 131.441 C 517.842 135.621 527.319 147.609 530.358 165.374 C 523.889 165.535 517.368 166.289 510.495 168.014 C 500.905 155.417 487.648 142.413 460.947 144.890 C 468.412 135.734 490.443 129.185 500.511 131.441 Z"/>
<path fill="none" stroke="#000000" stroke-width="1" stroke-linecap="butt" stroke-linejoin="round" d="M 530.358 165.374 C 527.319 147.609 517.842 135.621 500.511 131.441 "/>
<path fill="#000000" fill-rule="evenodd" stroke="#ffffff" stroke-width="4" stroke-linecap="round" stroke-linejoin="round" d="M 543.754 132.626 C 554.635 150.311 550.600 158.479 548.535 166.285 C 542.620 165.505 536.777 165.214 530.358 165.374 C 527.319 147.609 517.842 135.621 500.511 131.441 C 515.287 124.309 531.009 124.633 543.754 132.626 Z"/>
<path fill="none" stroke="#000000" stroke-width="1" stroke-linecap="butt" stroke-linejoin="round" d="M 548.535 166.285 C 550.600 158.479 554.635 150.311 543.754 132.626 "/>
<path fill="#000000" fill-rule="evenodd" stroke="#ffffff" stroke-width="4" stroke-linecap="round" stroke-linejoin="round" d="M 566.045 146.585 C 567.308 156.686 563.045 162.851 556.715 167.918 C 554.159 167.946 551.573 166.685 548.535 166.285 C 550.600 158.479 554.635 150.311 543.754 132.626 C 553.818 133.150 562.370 141.783 566.045 146.585 Z"/>
<path fill="none" stroke="#000000" stroke-width="1" stroke-linecap="butt" stroke-linejoin="round" d="M 566.045 146.585 C 567.308 156.686 563.045 162.851 556.715 167.918 "/>
<path fill="#000000" fill-rule="evenodd" stroke="#ffffff" stroke-width="4" stroke-linecap="round" stroke-linejoin="round" d="M 556.715 167.918 C 577.428 167.696 582.187 183.815 589.937 204.819 C 596.791 194.181 608.465 181.207 597.779 160.605 C 591.713 148.910 574.306 142.844 566.045 146.585 C 567.308 156.686 563.045 162.851 556.715 167.918 Z"/>
<path fill="#000000" fill-rule="evenodd" stroke="#ffffff" stroke-width="4" stroke-linecap="round" stroke-linejoin="round" d="M 256.395 386.185 C 220.301 381.682 238.857 406.359 206.653 410.386 C 201.521 380.039 216.969 368.548 235.107 364.710 C 248.804 365.837 252.690 382.412 256.395 386.185 Z"/>
<path fill="none" stroke="#000000" stroke-width="1" stroke-linecap="butt" stroke-linejoin="round" d="M 235.107 364.710 C 216.969 368.548 201.521 380.039 206.653 410.386 "/>
<path fill="#000000" fill-rule="evenodd" stroke="#ffffff" stroke-width="4" stroke-linecap="round" stroke-linejoin="round" d="M 200.335 358.285 C 209.182 352.937 226.268 351.887 235.107 364.710 C 216.969 368.548 201.521 380.039 206.653 410.386 C 208.786 423.002 208.005 449.095 187.479 454.608 C 179.139 415.037 171.380 377.735 200.335 358.285 Z"/>
<path fill="none" stroke="#000000" stroke-width="1" stroke-linecap="butt" stroke-linejoin="round" d="M 187.479 454.608 C 179.139 415.037 171.380 377.735 200.335 358.285 "/>
<path fill="#000000" fill-rule="evenodd" stroke="#ffffff" stroke-width="4" stroke-linecap="round" stroke-linejoin="round" d="M 163.622 368.569 C 137.757 400.736 169.114 464.963 163.348 525.813 C 184.636 511.751 193.295 482.206 187.479 454.608 C 179.139 415.037 171.380 377.735 200.335 358.285 C 180.831 353.703 168.822 363.286 163.622 368.569 Z"/>
<path fill="none" stroke="#000000" stroke-width="1" stroke-linecap="butt" stroke-linejoin="round" d="M 163.622 368.569 C 137.757 400.736 169.114 464.963 163.348 525.813 "/>
<path fill="#000000" fill-rule="evenodd" stroke="#ffffff" stroke-width="4" stroke-linecap="round" stroke-linejoin="round" d="M 163.348 525.813 C 159.508 566.342 136.327 576.425 124.496 574.348 C 145.395 505.536 116.603 432.490 136.754 392.086 C 141.982 381.600 150.299 368.081 163.622 368.569 C 137.757 400.736 169.114 464.963 163.348 525.813 Z"/>
<path fill="none" stroke="#000000" stroke-width="1" stroke-linecap="butt" stroke-linejoin="round" d="M 136.754 392.086 C 116.603 432.490 145.395 505.536 124.496 574.348 "/>
<path fill="#000000" fill-rule="evenodd" stroke="#ffffff" stroke-width="4" stroke-linecap="round" stroke-linejoin="round" d="M 124.496 574.348 C 111.203 599.431 90.449 608.063 73.137 591.500 C 116.087 547.668 95.456 483.742 103.769 442.621 C 107.894 422.216 117.846 403.419 136.754 392.086 C 116.603 432.490 145.395 505.536 124.496 574.348 Z"/>
<path fill="none" stroke="#ffffff" stroke-width="4" stroke-linecap="round" stroke-linejoin="round" d="M 73.137 591.500 C 116.087 547.668 95.456 483.742 103.769 442.621 "/>
<path fill="#ffffff" fill-rule="evenodd" stroke="#000000" stroke-width="4" stroke-linecap="round" stroke-linejoin="round" d="M 270.036 439.542 C 268.593 403.776 365.798 370.600 387.522 439.968 C 389.415 446.012 386.580 466.963 378.110 490.635 C 365.089 527.025 314.254 537.080 314.261 552.843 C 314.267 565.082 353.265 598.850 361.451 603.480 C 370.381 608.532 390.631 634.758 390.634 634.761 C 390.630 634.761 348.032 634.015 348.027 634.015 C 348.026 634.013 345.957 620.760 340.559 615.276 C 337.424 612.092 329.439 617.191 327.079 611.033 C 316.239 582.752 281.425 559.030 284.080 548.881 C 285.996 541.560 305.493 519.102 304.559 498.796 C 303.872 483.877 271.144 466.984 270.036 439.542 M 525.301 386.717 C 525.302 386.713 528.519 354.450 528.519 354.446 C 528.527 354.443 570.389 345.572 602.462 325.231 C 612.136 319.096 617.545 330.883 620.331 333.487 C 625.869 338.663 654.868 372.508 665.151 383.484 C 668.309 386.855 668.088 400.476 672.184 412.671 C 674.702 420.168 665.302 443.064 665.301 443.067 C 665.299 443.065 646.679 420.243 646.677 420.240 C 646.678 420.238 657.044 406.692 655.122 401.151 C 652.477 393.521 642.304 399.090 641.654 394.151 C 639.388 376.936 612.696 346.498 608.433 345.653 C 603.361 344.647 551.266 385.932 551.261 385.936 C 551.258 385.936 525.304 386.716 525.301 386.717 Z"/>
<path fill="#ffffff" fill-rule="evenodd" stroke="none" d="M 610.428 371.987 C 594.063 373.512 572.638 374.181 554.056 374.824 C 554.221 349.609 541.965 324.080 527.270 308.703 C 521.070 283.545 513.281 230.702 538.301 220.464 C 548.501 234.808 564.686 241.059 564.688 241.061 C 564.689 241.063 569.726 252.303 573.985 264.421 C 574.443 265.723 582.505 266.640 582.506 266.640 C 582.506 266.639 582.946 254.351 582.946 254.350 C 582.947 254.351 592.020 267.094 592.021 267.096 C 592.022 267.095 600.044 262.107 600.828 258.283 C 601.787 253.608 589.570 191.734 586.542 182.555 C 582.590 170.577 574.038 165.942 574.037 165.941 C 574.036 165.938 566.124 139.077 566.123 139.074 C 566.122 139.077 559.049 161.997 559.048 162.000 C 559.038 162.002 500.580 144.810 460.389 188.682 C 432.744 218.861 439.668 278.740 425.500 321.626 C 413.590 357.673 359.634 353.084 311.075 358.527 C 236.447 366.891 233.935 398.917 234.888 439.087 C 235.899 481.700 269.477 482.760 264.850 509.772 C 263.024 520.434 232.779 533.252 226.170 541.889 C 216.358 554.712 251.487 568.806 254.027 608.336 C 254.536 616.268 261.459 612.177 266.479 616.423 C 275.010 623.637 276.207 640.467 276.208 640.469 C 276.213 640.469 321.498 640.545 321.502 640.545 C 321.499 640.542 301.406 612.461 292.095 608.179 C 269.420 597.752 252.943 557.843 253.509 555.011 C 259.701 524.025 312.449 547.408 336.496 487.867 C 348.565 457.984 343.951 421.639 343.952 421.633 C 343.952 421.637 346.388 453.790 344.833 459.974 C 352.934 455.488 363.050 459.748 395.099 464.197 C 467.977 474.314 511.807 449.027 544.831 409.010 C 540.093 411.540 530.317 414.470 527.792 414.297 C 520.711 413.811 509.671 404.677 509.669 404.676 C 509.671 404.677 520.471 414.007 528.354 414.098 C 537.259 414.200 597.251 386.656 601.223 391.467 C 605.379 396.501 584.587 433.891 583.401 441.058 C 583.148 442.586 586.951 447.533 583.123 452.285 C 581.986 453.696 565.372 456.811 565.371 456.811 C 565.370 456.814 556.844 482.548 556.843 482.551 C 556.846 482.550 578.490 479.948 582.364 475.614 C 592.470 464.306 603.826 458.351 603.586 450.749 C 603.037 433.332 614.515 395.561 621.381 386.283 C 623.345 383.629 618.855 371.201 610.428 371.987 Z"/>
<path fill="none" stroke="#000000" stroke-width="4" stroke-linecap="round" stroke-linejoin="round" d="M 554.056 374.824 C 538.809 375.292 525.609 375.681 518.765 375.507 M 610.428 371.987 C 594.063 373.512 572.638 374.181 554.056 374.824 C 554.221 349.609 541.965 324.080 527.270 308.703 C 521.070 283.545 513.281 230.702 538.301 220.464 C 548.501 234.808 564.686 241.059 564.688 241.061 C 564.689 241.063 569.726 252.303 573.985 264.421 C 574.443 265.723 582.505 266.640 582.506 266.640 C 582.506 266.639 582.946 254.351 582.946 254.350 C 582.947 254.351 592.020 267.094 592.021 267.096 C 592.022 267.095 600.044 262.107 600.828 258.283 C 601.787 253.608 589.570 191.734 586.542 182.555 C 582.590 170.577 574.038 165.942 574.037 165.941 C 574.036 165.938 566.124 139.077 566.123 139.074 C 566.122 139.077 559.049 161.997 559.048 162.000 C 559.038 162.002 500.580 144.810 460.389 188.682 C 432.744 218.861 439.668 278.740 425.500 321.626 C 413.590 357.673 359.634 353.084 311.075 358.527 C 236.447 366.891 233.935 398.917 234.888 439.087 C 235.899 481.700 269.477 482.760 264.850 509.772 C 263.024 520.434 232.779 533.252 226.170 541.889 C 216.358 554.712 251.487 568.806 254.027 608.336 C 254.536 616.268 261.459 612.177 266.479 616.423 C 275.010 623.637 276.207 640.467 276.208 640.469 C 276.213 640.469 321.498 640.545 321.502 640.545 C 321.499 640.542 301.406 612.461 292.095 608.179 C 269.420 597.752 252.943 557.843 253.509 555.011 C 259.701 524.025 312.449 547.408 336.496 487.867 C 348.565 457.984 343.951 421.639 343.952 421.633 C 343.952 421.637 346.388 453.790 344.833 459.974 C 352.934 455.488 363.050 459.748 395.099 464.197 C 467.977 474.314 511.807 449.027 544.831 409.010 C 540.093 411.540 530.317 414.470 527.792 414.297 C 520.711 413.811 509.671 404.677 509.669 404.676 C 509.671 404.677 520.471 414.007 528.354 414.098 C 537.259 414.200 597.251 386.656 601.223 391.467 C 605.379 396.501 584.587 433.891 583.401 441.058 C 583.148 442.586 586.951 447.533 583.123 452.285 C 581.986 453.696 565.372 456.811 565.371 456.811 C 565.370 456.814 556.844 482.548 556.843 482.551 C 556.846 482.550 578.490 479.948 582.364 475.614 C 592.470 464.306 603.826 458.351 603.586 450.749 C 603.037 433.332 614.515 395.561 621.381 386.283 C 623.345 383.629 618.855 371.201 610.428 371.987 "/>
<path fill="#000000" fill-rule="evenodd" stroke="none" d="M 573.100 201.139 C 576.970 198.344 577.838 192.967 575.043 189.097 C 572.247 185.226 566.870 184.359 563.000 187.154 C 559.130 189.949 558.263 195.326 561.058 199.196 C 563.853 203.066 569.230 203.934 573.100 201.139 M 581.440 212.420 C 581.439 212.418 588.012 200.124 578.424 186.848 C 568.836 173.572 555.099 175.945 555.097 175.944 C 555.097 175.946 548.526 188.239 558.114 201.515 C 567.702 214.791 581.437 212.419 581.440 212.420 Z"/>
</g>
<g id="knight_2">
<path fill="#000000" fill-rule="evenodd" stroke="#ffffff" stroke-width="4" stroke-linecap="round" stroke-linejoin="round" d="M 316.839 324.837 C 312.158 272.178 300.168 264.005 285.420 229.260 C 287.466 227.636 289.071 226.325 290.709 224.960 C 294.161 227.835 324.792 243.399 348.242 235.060 C 369.463 227.513 377.700 209.811 380.185 196.127 C 382.716 199.586 383.918 203.184 386.780 208.349 C 397.365 227.455 407.041 260.189 390.288 321.194 C 378.240 328.804 340.352 335.596 316.839 324.837 Z"/>
<path fill="#000000" fill-rule="evenodd" stroke="none" d="M 593.811 252.475 C 592.205 252.216 590.701 253.303 590.442 254.908 C 590.183 256.513 591.269 258.017 592.875 258.276 C 594.480 258.535 595.984 257.449 596.243 255.844 C 596.502 254.238 595.416 252.734 593.811 252.475 Z"/>
<path fill="none" stroke="#ffffff" stroke-width="1" stroke-linecap="butt" stroke-linejoin="round" d="M 290.709 224.960 C 289.071 226.325 287.466 227.636 285.420 229.260 "/>
<path fill="#ffffff" fill-rule="evenodd" stroke="#000000" stroke-width="4" stroke-linecap="round" stroke-linejoin="round" d="M 192.894 219.832 C 192.902 219.830 239.481 261.738 271.625 202.704 C 278.348 212.265 282.918 218.471 290.709 224.960 C 289.071 226.325 287.466 227.636 285.420 229.260 C 235.022 269.619 217.477 255.916 186.677 230.655 C 158.613 238.118 138.559 224.371 137.808 220.247 C 152.611 220.285 192.889 219.832 192.894 219.832 Z"/>
<path fill="none" stroke="#ffffff" stroke-width="1" stroke-linecap="butt" stroke-linejoin="round" d="M 380.185 196.127 C 382.716 199.586 383.918 203.184 386.780 208.349 "/>
<path fill="#ffffff" fill-rule="evenodd" stroke="#000000" stroke-width="4" stroke-linecap="round" stroke-linejoin="round" d="M 396.558 108.380 C 411.766 129.907 399.165 162.571 380.626 180.953 C 380.774 184.194 381.354 189.687 380.185 196.127 C 382.716 199.586 383.918 203.184 386.780 208.349 C 412.382 187.639 443.607 136.898 409.976 101.415 C 407.238 98.526 405.504 97.130 405.503 97.129 C 405.504 97.128 415.334 79.649 415.335 79.647 C 415.333 79.646 392.402 67.466 392.400 67.465 C 392.399 67.466 389.129 77.064 389.129 77.065 C 389.128 77.067 383.065 93.298 383.064 93.300 C 383.066 93.301 391.089 100.638 396.558 108.380 Z"/>
<path fill="none" stroke="#000000" stroke-width="4" stroke-linecap="round" stroke-linejoin="round" d="M 389.129 77.065 C 400.228 83.938 411.328 84.138 407.561 88.402 C 403.355 93.161 397.438 87.912 397.437 87.912 C 397.437 87.912 398.408 92.209 393.054 94.747 "/>
<path fill="#000000" fill-rule="evenodd" stroke="#ffffff" stroke-width="4" stroke-linecap="round" stroke-linejoin="round" d="M 210.523 504.561 C 265.493 520.837 330.465 513.547 386.583 498.993 C 393.792 436.245 381.564 407.031 356.597 380.169 C 335.454 379.977 315.465 376.083 300.524 370.801 C 300.176 370.195 302.698 362.782 305.996 353.988 C 286.098 355.669 276.997 358.444 255.424 367.823 C 259.360 371.747 259.889 382.385 254.179 387.853 C 246.775 394.943 238.035 393.138 234.681 391.872 C 219.876 428.719 236.288 441.005 210.523 504.561 Z"/>
<path fill="#000000" fill-rule="evenodd" stroke="#ffffff" stroke-width="4" stroke-linecap="round" stroke-linejoin="round" d="M 408.387 486.071 C 408.388 486.060 429.138 418.201 413.910 369.625 C 422.520 365.957 430.809 361.202 438.522 355.161 C 430.300 345.064 422.428 337.974 415.247 333.432 C 417.670 331.600 420.205 329.510 422.797 327.181 C 431.058 335.774 446.200 337.836 476.224 339.937 C 508.062 342.166 544.073 321.571 544.080 321.569 C 544.083 321.574 549.315 340.969 577.078 371.228 C 499.333 370.537 512.271 455.303 438.612 482.835 C 432.749 485.027 426.668 487.077 420.455 489.101 C 416.314 488.079 408.388 486.071 408.387 486.071 Z"/>
<path fill="#000000" fill-rule="evenodd" stroke="#ffffff" stroke-width="4" stroke-linecap="round" stroke-linejoin="round" d="M 541.054 205.397 C 545.574 219.087 559.709 233.278 568.645 241.299 C 565.676 242.124 561.283 243.368 561.283 243.368 C 561.283 243.369 563.727 253.415 563.727 253.416 C 563.727 253.416 565.300 252.997 566.567 252.606 C 555.640 262.405 530.436 282.833 504.311 288.875 C 479.092 294.707 445.379 285.707 430.689 282.371 C 426.194 305.807 420.566 324.774 420.565 324.778 C 420.575 324.778 473.653 340.748 513.626 321.437 C 575.732 291.433 573.831 257.953 572.732 250.458 C 577.031 256.878 589.442 253.539 589.642 246.327 C 594.395 245.234 604.078 242.651 604.080 242.650 C 604.080 242.649 600.151 232.363 600.151 232.362 C 600.149 232.363 593.349 234.435 585.254 236.907 C 580.907 233.631 577.114 236.395 577.114 236.395 C 570.112 229.101 556.600 211.341 551.844 192.807 C 548.821 181.025 556.191 158.853 556.191 158.850 C 556.190 158.850 548.775 157.811 543.394 156.178 C 540.991 162.384 533.485 182.479 541.054 205.397 Z"/>
<path fill="none" stroke="#ffffff" stroke-width="1" stroke-linecap="butt" stroke-linejoin="round" d="M 356.597 380.169 C 381.564 407.031 393.792 436.245 386.583 498.993 "/>
<path fill="none" stroke="#ffffff" stroke-width="1" stroke-linecap="butt" stroke-linejoin="round" d="M 420.455 489.101 C 416.314 488.079 408.388 486.071 408.387 486.071 "/>
<path fill="none" stroke="#ffffff" stroke-width="1" stroke-linecap="butt" stroke-linejoin="round" d="M 408.387 486.071 C 408.388 486.060 429.138 418.201 413.910 369.625 "/>
<path fill="#ffffff" fill-rule="evenodd" stroke="#000000" stroke-width="4" stroke-linecap="round" stroke-linejoin="round" d="M 413.910 369.625 C 395.477 377.476 375.574 380.342 356.597 380.169 C 381.564 407.031 393.792 436.245 386.583 498.993 C 386.202 501.610 385.769 504.970 385.281 508.425 C 409.748 507.761 460.075 499.167 460.083 499.166 C 460.079 499.165 433.546 492.443 420.455 489.101 C 416.314 488.079 408.388 486.071 408.387 486.071 C 408.388 486.060 429.138 418.201 413.910 369.625 Z"/>
<path fill="none" stroke="#ffffff" stroke-width="1" stroke-linecap="butt" stroke-linejoin="round" d="M 380.626 180.953 C 380.774 184.194 381.354 189.687 380.185 196.127 "/>
<path fill="none" stroke="#ffffff" stroke-width="1" stroke-linecap="butt" stroke-linejoin="round" d="M 380.185 196.127 C 377.700 209.811 369.463 227.513 348.242 235.060 "/>
<path fill="none" stroke="#ffffff" stroke-width="1" stroke-linecap="butt" stroke-linejoin="round" d="M 348.242 235.060 C 324.792 243.399 294.161 227.835 290.709 224.960 "/>
<path fill="none" stroke="#ffffff" stroke-width="1" stroke-linecap="butt" stroke-linejoin="round" d="M 290.709 224.960 C 282.918 218.471 278.348 212.265 271.625 202.704 "/>
<path fill="#ffffff" fill-rule="evenodd" stroke="#000000" stroke-width="4" stroke-linecap="round" stroke-linejoin="round" d="M 379.679 177.219 C 381.124 176.667 380.514 178.483 380.626 180.953 C 380.774 184.194 381.354 189.687 380.185 196.127 C 377.700 209.811 369.463 227.513 348.242 235.060 C 324.792 243.399 294.161 227.835 290.709 224.960 C 282.918 218.471 278.348 212.265 271.625 202.704 C 269.501 199.684 267.569 195.445 267.569 195.445 C 267.574 195.444 313.345 192.395 313.350 192.394 C 313.352 192.390 293.760 173.498 289.059 158.758 C 291.742 143.067 310.283 123.032 310.285 123.028 C 310.289 123.030 342.136 130.076 347.701 141.997 C 347.699 142.001 348.877 157.286 345.667 187.119 C 356.474 184.251 369.478 181.120 379.679 177.219 Z"/>
<path fill="#ffffff" fill-rule="evenodd" stroke="none" d="M 304.877 157.395 C 304.882 157.393 355.562 143.002 355.567 143.001 C 355.567 143.004 357.745 176.131 357.746 176.135 C 357.741 176.134 309.258 169.861 307.462 168.023 C 307.199 167.754 304.878 157.396 304.877 157.395 Z"/>
<path fill="none" stroke="#000000" stroke-width="4" stroke-linecap="round" stroke-linejoin="round" d="M 316.502 161.957 C 329.841 160.707 343.180 159.457 356.519 158.207 M 307.462 168.023 C 307.199 167.754 304.878 157.396 304.877 157.395 C 304.882 157.393 355.562 143.002 355.567 143.001 C 355.567 143.004 357.745 176.131 357.746 176.135 C 357.741 176.134 309.258 169.861 307.462 168.023 "/>
<path fill="none" stroke="#000000" stroke-width="1" stroke-linecap="butt" stroke-linejoin="round" d="M 390.288 321.194 C 378.240 328.804 340.352 335.596 316.839 324.837 "/>
<path fill="none" stroke="#000000" stroke-width="1" stroke-linecap="butt" stroke-linejoin="round" d="M 305.996 353.988 C 302.698 362.782 300.176 370.195 300.524 370.801 "/>
<path fill="none" stroke="#000000" stroke-width="1" stroke-linecap="butt" stroke-linejoin="round" d="M 300.524 370.801 C 315.465 376.083 335.454 379.977 356.597 380.169 "/>
<path fill="none" stroke="#000000" stroke-width="1" stroke-linecap="butt" stroke-linejoin="round" d="M 356.597 380.169 C 375.574 380.342 395.477 377.476 413.910 369.625 "/>
<path fill="none" stroke="#000000" stroke-width="1" stroke-linecap="butt" stroke-linejoin="round" d="M 413.910 369.625 C 422.520 365.957 430.809 361.202 438.522 355.161 "/>
<path fill="none" stroke="#000000" stroke-width="1" stroke-linecap="butt" stroke-linejoin="round" d="M 438.522 355.161 C 430.300 345.064 422.428 337.974 415.247 333.432 "/>
<path fill="#000000" fill-rule="evenodd" stroke="#ffffff" stroke-width="4" stroke-linecap="round" stroke-linejoin="round" d="M 390.288 321.194 C 378.240 328.804 340.352 335.596 316.839 324.837 C 316.838 324.840 309.741 343.401 305.996 353.988 C 302.698 362.782 300.176 370.195 300.524 370.801 C 315.465 376.083 335.454 379.977 356.597 380.169 C 375.574 380.342 395.477 377.476 413.910 369.625 C 422.520 365.957 430.809 361.202 438.522 355.161 C 430.300 345.064 422.428 337.974 415.247 333.432 C 404.698 325.118 391.204 321.158 390.288 321.194 Z"/>
<path fill="none" stroke="#ffffff" stroke-width="4" stroke-linecap="round" stroke-linejoin="round" d="M 216.287 495.916 C 269.623 511.157 332.420 503.506 386.583 488.907 "/>
<path fill="none" stroke="#ffffff" stroke-width="4" stroke-linecap="round" stroke-linejoin="round" d="M 411.810 481.417 C 418.023 479.392 424.042 477.169 429.967 475.151 C 502.625 450.397 497.473 360.826 569.393 363.063 "/>
<path fill="none" stroke="#ffffff" stroke-width="4" stroke-linecap="round" stroke-linejoin="round" d="M 422.967 316.133 C 427.711 317.051 476.955 330.926 514.586 312.311 C 563.967 287.884 573.297 257.849 572.732 250.938 "/>
</g>
<g id="specs">
<path fill="#ff0000" fill-rule="evenodd" stroke="none" d="M 370.150 676.382 C 370.149 676.385 356.808 713.738 356.807 713.742 C 356.808 713.741 370.149 701.328 370.150 701.327 C 370.151 701.328 383.491 713.741 383.493 713.742 C 383.491 713.738 370.151 676.385 370.150 676.382 Z"/>
<path fill="#0000ff" fill-rule="evenodd" stroke="none" d="M 564.777 117.117 C 564.776 117.120 557.027 138.817 557.027 138.820 C 557.027 138.819 564.776 131.609 564.777 131.608 C 564.778 131.609 572.527 138.819 572.527 138.820 C 572.527 138.817 564.778 117.120 564.777 117.117 Z"/>
<path fill="#ffff00" fill-rule="evenodd" stroke="none" d="M 679.530 445.613 C 679.529 445.611 669.913 424.674 669.912 424.672 C 669.912 424.673 669.405 435.245 669.405 435.246 C 669.404 435.246 658.823 435.503 658.822 435.503 C 658.824 435.504 679.528 445.612 679.530 445.613 Z"/>
<path fill="#00ffff" fill-rule="evenodd" stroke="none" d="M 606.303 176.323 C 606.301 176.324 584.890 184.833 584.888 184.834 C 584.888 184.833 591.821 176.834 591.822 176.834 C 591.821 176.833 584.342 169.343 584.341 169.342 C 584.344 169.343 606.301 176.322 606.303 176.323 Z"/>
<path fill="#ff00ff" fill-rule="evenodd" stroke="none" d="M 318.807 239.964 C 318.815 239.964 392.020 239.964 392.028 239.964 C 392.028 239.972 392.028 313.177 392.028 313.185 C 392.020 313.185 318.815 313.185 318.807 313.185 C 318.807 313.177 318.807 239.972 318.807 239.964 Z"/>
<path fill="#ff00ff" fill-rule="evenodd" stroke="none" d="M 253.808 390.071 C 253.818 390.071 355.772 390.071 355.782 390.071 C 355.782 390.081 355.782 492.034 355.782 492.044 C 355.772 492.044 253.818 492.044 253.808 492.044 C 253.808 492.034 253.808 390.081 253.808 390.071 Z"/>
<path fill="#ff00ff" fill-rule="evenodd" stroke="none" d="M 81.467 57.222 C 81.483 57.222 243.380 57.222 243.396 57.222 C 243.396 57.238 243.396 219.134 243.396 219.150 C 243.380 219.150 81.483 219.150 81.467 219.150 C 81.467 219.134 81.467 57.238 81.467 57.222 Z"/>
<path fill="#00ff00" fill-rule="evenodd" stroke="none" d="M 494.834 533.185 C 494.833 533.182 485.216 512.245 485.215 512.243 C 485.215 512.244 484.709 522.817 484.709 522.818 C 484.708 522.818 474.127 523.074 474.126 523.074 C 474.128 523.075 494.832 533.184 494.834 533.185 Z"/>
</g>
</g>
</svg>
