<?xml version="1.0" encoding="utf-8"?>
<!-- Generator: Moho 13.0.3 build 635 -->
<!DOCTYPE svg PUBLIC "-//W3C//DTD SVG 1.1//EN" "http://www.w3.org/Graphics/SVG/1.1/DTD/svg11.dtd">
<svg version="1.1" id="Frame_0" xmlns="http://www.w3.org/2000/svg" xmlns:xlink="http://www.w3.org/1999/xlink" width="720px" height="720px">
<g id="knight_1">
<g id="sword_3">
<path fill="#ffffff" fill-rule="evenodd" stroke="#000000" stroke-width="4" stroke-linecap="round" stroke-linejoin="round" d="M 286.865 68.036 C 286.865 68.036 285.316 75.877 285.316 75.878 C 285.315 75.879 283.766 83.720 283.766 83.721 C 283.751 83.718 128.973 52.653 128.958 52.650 C 128.956 52.649 111.716 41.580 111.715 41.579 C 111.717 41.579 131.871 37.898 131.873 37.898 C 131.888 37.901 286.850 68.033 286.865 68.036 Z"/>
<path fill="#ffffff" fill-rule="evenodd" stroke="#000000" stroke-width="4" stroke-linecap="round" stroke-linejoin="round" d="M 289.383 55.293 C 289.382 55.298 281.249 96.459 281.249 96.463 C 281.249 96.463 286.286 97.458 286.286 97.458 C 286.287 97.454 294.420 56.293 294.421 56.289 C 294.420 56.289 289.383 55.294 289.383 55.293 Z"/>
<path fill="#ffffff" fill-rule="evenodd" stroke="#000000" stroke-width="4" stroke-linecap="round" stroke-linejoin="round" d="M 309.743 76.790 C 308.899 77.769 308.278 78.985 308.006 80.361 C 307.734 81.738 307.846 83.099 308.254 84.325 C 302.100 83.121 289.604 80.675 289.603 80.675 C 289.603 80.674 291.104 73.073 291.104 73.072 C 291.106 73.073 303.593 75.563 309.743 76.790 Z"/>
<path fill="none" stroke="#ffffff" stroke-width="1" stroke-linecap="butt" stroke-linejoin="round" d="M 308.006 80.361 C 307.734 81.738 307.846 83.099 308.254 84.325 "/>
<path fill="none" stroke="#ffffff" stroke-width="1" stroke-linecap="butt" stroke-linejoin="round" d="M 309.743 76.790 C 308.899 77.769 308.278 78.985 308.006 80.361 "/>
<path fill="#ffffff" fill-rule="evenodd" stroke="#000000" stroke-width="4" stroke-linecap="round" stroke-linejoin="round" d="M 308.006 80.361 C 307.734 81.738 307.846 83.099 308.254 84.325 C 309.124 86.842 311.258 88.833 314.053 89.386 C 318.224 90.210 322.253 87.510 323.077 83.339 C 323.901 79.168 321.201 75.138 317.030 74.314 C 314.236 73.762 311.505 74.792 309.743 76.790 C 308.899 77.769 308.278 78.985 308.006 80.361 Z"/>
<path fill="none" stroke="#000000" stroke-width="4" stroke-linecap="round" stroke-linejoin="round" d="M 285.316 75.878 C 231.223 65.191 177.131 54.504 123.039 43.817 "/>
</g>
<g id="horse_rearing">
<path fill="#000000" fill-rule="evenodd" stroke="#ffffff" stroke-width="4" stroke-linecap="round" stroke-linejoin="round" d="M 159.683 409.453 C 174.501 386.700 184.941 381.694 214.680 377.871 C 202.819 369.295 153.136 329.798 97.631 397.030 C 60.125 442.460 98.541 462.984 59.234 547.254 C 87.845 525.016 92.764 502.752 92.880 503.992 C 95.829 535.679 81.561 561.388 82.720 560.474 C 104.078 543.620 118.074 505.053 118.633 507.207 C 124.287 528.988 114.978 564.482 116.097 563.677 C 140.740 545.944 143.198 501.706 143.596 502.590 C 154.437 526.634 141.659 558.039 142.124 557.534 C 196.310 498.774 122.082 467.187 159.683 409.453 M 387.445 163.438 C 415.890 118.547 467.203 133.423 471.706 134.811 C 496.476 142.447 513.779 176.604 513.784 176.608 C 513.783 176.603 525.963 142.682 505.125 125.576 C 484.199 108.397 466.790 120.638 466.786 120.638 C 466.785 120.636 458.182 108.143 451.181 103.483 C 439.012 95.383 412.835 91.061 412.831 91.060 C 412.833 91.063 429.574 115.904 429.576 115.906 C 429.573 115.905 415.439 107.105 406.890 104.563 C 390.984 99.834 359.903 100.243 359.898 100.242 C 359.902 100.245 391.223 124.546 391.226 124.548 C 391.224 124.548 380.772 119.522 370.701 119.687 C 353.731 119.967 336.676 129.949 336.673 129.950 C 336.676 129.952 370.698 146.692 370.701 146.694 C 370.699 146.694 356.297 144.324 343.694 149.395 C 329.594 155.068 319.931 168.297 319.929 168.299 C 319.932 168.300 353.414 180.181 353.417 180.182 C 353.414 180.183 334.993 179.286 323.710 187.204 C 313.632 194.276 308.587 209.887 308.586 209.889 C 308.590 209.890 347.472 215.290 347.476 215.291 C 347.473 215.292 327.281 220.255 321.009 226.634 C 314.411 233.344 309.667 254.718 309.666 254.721 C 309.670 254.720 344.231 244.999 344.235 244.998 C 344.233 245.000 330.046 259.117 326.951 264.443 C 323.496 270.387 317.769 291.987 317.768 291.990 C 317.771 291.988 346.392 279.568 346.395 279.567 C 346.394 279.568 335.602 290.313 332.892 296.851 C 327.786 309.171 329.334 338.025 329.334 338.029 C 329.339 338.026 377.718 306.576 377.723 306.573 C 377.724 306.559 345.133 230.212 387.445 163.438 Z"/>
<path fill="#ffffff" fill-rule="evenodd" stroke="#000000" stroke-width="4" stroke-linecap="round" stroke-linejoin="round" d="M 235.121 424.872 C 228.493 392.225 312.887 347.336 343.127 407.850 C 345.762 413.123 346.262 432.792 341.989 455.797 C 335.419 491.161 290.203 507.934 292.546 522.415 C 294.366 533.659 335.445 558.314 343.408 561.945 C 353.267 566.441 374.845 594.388 374.848 594.391 C 374.844 594.391 337.539 594.679 337.535 594.679 C 337.534 594.677 332.815 580.773 325.962 575.879 C 322.577 573.463 316.029 579.287 312.948 573.979 C 298.796 549.602 263.294 532.966 264.230 523.249 C 264.905 516.238 279.490 492.714 275.621 474.196 C 272.779 460.591 240.206 449.920 235.121 424.872 M 461.822 338.503 C 461.822 338.500 459.996 308.380 459.996 308.377 C 460.002 308.374 497.149 294.018 523.603 270.576 C 531.581 263.506 538.298 273.533 541.244 275.513 C 547.099 279.448 578.759 306.245 589.834 314.806 C 593.235 317.435 595.050 329.982 600.621 340.579 C 604.046 347.094 598.803 369.524 598.802 369.527 C 598.800 369.525 578.310 351.316 578.308 351.315 C 578.308 351.313 585.824 337.330 583.238 332.524 C 579.676 325.906 571.155 332.530 569.826 328.089 C 565.193 312.608 536.157 288.599 532.115 288.454 C 527.307 288.282 485.562 333.934 485.557 333.939 C 485.555 333.939 461.825 338.503 461.822 338.503 Z"/>
<path fill="#ffffff" fill-rule="evenodd" stroke="none" d="M 537.852 312.353 C 523.042 316.180 503.456 319.970 486.479 323.315 C 482.893 300.124 467.849 278.485 452.068 266.535 C 442.643 244.339 427.655 196.943 449.125 183.828 C 460.623 195.495 476.419 198.840 476.422 198.841 C 476.423 198.843 482.717 208.423 488.426 218.925 C 489.040 220.055 496.582 219.702 496.583 219.702 C 496.583 219.701 495.166 208.345 495.166 208.344 C 495.167 208.345 505.392 218.709 505.393 218.710 C 505.394 218.709 512.025 212.937 512.179 209.308 C 512.367 204.870 491.972 149.833 487.829 141.849 C 482.423 131.429 473.878 128.439 473.877 128.437 C 473.876 128.435 462.626 104.928 462.624 104.926 C 462.624 104.928 459.522 127.035 459.522 127.038 C 459.513 127.041 406.582 114.850 372.831 166.176 C 349.615 201.481 367.141 251.989 360.480 293.492 C 354.881 328.376 304.627 332.157 260.819 344.354 C 193.493 363.101 195.931 392.898 202.760 429.663 C 210.005 468.665 241.012 464.662 240.765 490.166 C 240.667 500.233 214.779 516.492 209.987 525.407 C 202.872 538.643 237.238 546.385 245.430 582.328 C 247.073 589.540 252.779 584.837 258.069 587.913 C 266.296 592.697 270.217 606.367 270.218 606.369 C 270.222 606.369 310.377 609.593 310.382 609.593 C 310.379 609.590 290.194 580.171 280.382 576.542 C 258.598 568.484 236.950 536.097 237.050 533.412 C 238.147 504.024 290.076 517.690 303.344 459.421 C 310.004 430.176 300.378 397.468 300.378 397.462 C 300.379 397.465 307.383 426.646 306.870 432.558 C 313.648 427.236 323.574 429.650 353.679 428.988 C 422.137 427.482 458.659 397.753 483.070 356.091 C 479.091 359.119 470.544 363.259 468.198 363.474 C 461.620 364.077 450.124 357.322 450.122 357.321 C 450.124 357.321 461.429 364.293 468.685 363.208 C 476.882 361.983 527.919 327.784 532.281 331.615 C 536.846 335.624 523.284 373.059 523.257 379.820 C 523.251 381.261 527.479 385.243 524.665 390.176 C 523.830 391.641 509.027 396.965 509.026 396.966 C 509.025 396.968 505.007 421.876 505.006 421.879 C 505.008 421.878 524.509 416.279 527.426 411.723 C 535.035 399.835 544.585 392.680 543.239 385.732 C 540.152 369.811 545.100 333.407 550.034 323.865 C 551.445 321.135 545.477 310.383 537.852 312.353 Z"/>
<path fill="none" stroke="#000000" stroke-width="4" stroke-linecap="round" stroke-linejoin="round" d="M 486.479 323.315 C 472.540 326.005 460.469 328.319 454.156 329.173 M 537.852 312.353 C 523.042 316.180 503.456 319.970 486.479 323.315 C 482.893 300.124 467.849 278.485 452.068 266.535 C 442.643 244.339 427.655 196.943 449.125 183.828 C 460.623 195.495 476.419 198.840 476.422 198.841 C 476.423 198.843 482.717 208.423 488.426 218.925 C 489.040 220.055 496.582 219.702 496.583 219.702 C 496.583 219.701 495.166 208.345 495.166 208.344 C 495.167 208.345 505.392 218.709 505.393 218.710 C 505.394 218.709 512.025 212.937 512.179 209.308 C 512.367 204.870 491.972 149.833 487.829 141.849 C 482.423 131.429 473.878 128.439 473.877 128.437 C 473.876 128.435 462.626 104.928 462.624 104.926 C 462.624 104.928 459.522 127.035 459.522 127.038 C 459.513 127.041 406.582 114.850 372.831 166.176 C 349.615 201.481 367.141 251.989 360.480 293.492 C 354.881 328.376 304.627 332.157 260.819 344.354 C 193.493 363.101 195.931 392.898 202.760 429.663 C 210.005 468.665 241.012 464.662 240.765 490.166 C 240.667 500.233 214.779 516.492 209.987 525.407 C 202.872 538.643 237.238 546.385 245.430 582.328 C 247.073 589.540 252.779 584.837 258.069 587.913 C 266.296 592.697 270.217 606.367 270.218 606.369 C 270.222 606.369 310.377 609.593 310.382 609.593 C 310.379 609.590 290.194 580.171 280.382 576.542 C 258.598 568.484 236.950 536.097 237.050 533.412 C 238.147 504.024 290.076 517.690 303.344 459.421 C 310.004 430.176 300.378 397.468 300.378 397.462 C 300.379 397.465 307.383 426.646 306.870 432.558 C 313.648 427.236 323.574 429.650 353.679 428.988 C 422.137 427.482 458.659 397.753 483.070 356.091 C 479.091 359.119 470.544 363.259 468.198 363.474 C 461.620 364.077 450.124 357.322 450.122 357.321 C 450.124 357.321 461.429 364.293 468.685 363.208 C 476.882 361.983 527.919 327.784 532.281 331.615 C 536.846 335.624 523.284 373.059 523.257 379.820 C 523.251 381.261 527.479 385.243 524.665 390.176 C 523.830 391.641 509.027 396.965 509.026 396.966 C 509.025 396.968 505.007 421.876 505.006 421.879 C 505.008 421.878 524.509 416.279 527.426 411.723 C 535.035 399.835 544.585 392.680 543.239 385.732 C 540.152 369.811 545.100 333.407 550.034 323.865 C 551.445 321.135 545.477 310.383 537.852 312.353 "/>
<path fill="#000000" fill-rule="evenodd" stroke="none" d="M 479.049 161.730 C 482.642 158.137 482.642 152.341 479.049 148.748 C 475.456 145.155 469.659 145.155 466.066 148.748 C 462.473 152.341 462.473 158.137 466.066 161.730 C 469.659 165.323 475.456 165.323 479.049 161.730 M 487.568 170.044 C 487.567 170.042 491.783 157.773 481.006 146.996 C 470.229 136.219 457.960 140.435 457.958 140.435 C 457.959 140.437 453.743 152.705 464.520 163.482 C 475.297 174.259 487.565 170.044 487.568 170.044 M 507.605 207.746 C 507.605 206.233 506.384 205.012 504.870 205.012 C 503.357 205.012 502.136 206.233 502.136 207.746 C 502.136 209.260 503.357 210.480 504.870 210.480 C 506.384 210.480 507.605 209.260 507.605 207.746 Z"/>
</g>
<g id="tack">
<path fill="#000000" fill-rule="evenodd" stroke="#ffffff" stroke-width="4" stroke-linecap="round" stroke-linejoin="round" d="M 414.934 423.595 C 414.931 423.589 383.373 369.593 383.370 369.588 C 383.365 369.590 332.168 390.497 332.163 390.499 C 332.164 390.504 338.489 414.182 342.458 435.184 C 398.562 428.854 414.927 423.596 414.934 423.595 Z"/>
<path fill="#000000" fill-rule="evenodd" stroke="#ffffff" stroke-width="4" stroke-linecap="round" stroke-linejoin="round" d="M 228.206 352.574 C 257.668 341.784 322.964 327.389 322.973 327.386 C 322.973 327.400 366.918 404.447 317.237 465.112 C 278.304 512.652 203.953 509.342 203.942 509.346 C 203.941 509.335 192.668 395.569 192.666 395.558 C 192.669 395.556 206.632 392.300 216.972 382.588 C 226.173 373.945 227.687 359.384 228.206 352.574 M 358.820 298.996 C 353.700 308.242 345.130 314.361 345.129 314.363 C 345.138 314.372 349.024 412.838 434.702 404.226 C 505.526 397.108 538.042 308.953 538.052 308.944 C 538.045 308.941 470.167 278.605 470.161 278.602 C 470.155 278.605 441.110 303.107 412.247 305.246 C 382.853 307.425 369.216 304.306 358.820 298.996 Z"/>
<path fill="#000000" fill-rule="evenodd" stroke="#ffffff" stroke-width="4" stroke-linecap="round" stroke-linejoin="round" d="M 407.261 363.700 C 404.946 340.682 354.387 303.911 353.656 304.638 C 331.376 326.817 322.612 329.513 280.980 335.836 C 269.132 337.636 280.255 391.182 299.196 409.208 C 321.462 430.400 410.805 398.944 407.261 363.700 Z"/>
<path fill="#000000" fill-rule="evenodd" stroke="#ffffff" stroke-width="4" stroke-linecap="round" stroke-linejoin="round" d="M 359.430 256.657 C 358.773 278.855 356.414 297.115 356.414 297.119 C 356.422 297.118 407.830 304.312 441.420 280.257 C 494.907 241.951 484.364 203.334 484.365 203.331 C 484.360 203.336 458.846 239.156 428.035 251.720 C 405.729 260.816 373.421 257.544 359.430 256.657 M 444.162 125.302 C 449.437 125.637 456.429 124.567 456.430 124.567 C 456.430 124.570 452.946 146.034 457.469 156.410 C 466.472 177.060 492.772 197.260 492.776 197.264 C 492.775 197.264 485.307 201.932 485.306 201.932 C 485.302 201.929 457.081 184.264 449.421 169.577 C 439.322 150.213 443.331 131.266 444.162 125.302 M 507.714 185.593 C 507.715 185.594 512.849 194.462 512.849 194.463 C 512.846 194.465 477.373 210.334 477.370 210.335 C 477.369 210.335 473.635 201.467 473.635 201.466 C 473.638 201.464 507.711 185.595 507.714 185.593 Z"/>
<path fill="#000000" fill-rule="evenodd" stroke="#ffffff" stroke-width="4" stroke-linecap="round" stroke-linejoin="round" d="M 491.608 191.459 C 486.891 191.459 483.086 195.264 483.086 199.981 C 483.086 204.698 486.891 208.503 491.608 208.503 C 496.324 208.503 500.130 204.698 500.130 199.981 C 500.130 195.264 496.324 191.459 491.608 191.459 Z"/>
</g>
<g id="knight">
<path fill="#ffffff" fill-rule="evenodd" stroke="#000000" stroke-width="4" stroke-linecap="round" stroke-linejoin="round" d="M 313.579 93.469 C 354.668 124.851 321.131 185.965 300.120 202.622 C 325.459 240.608 331.436 305.402 331.439 305.412 C 331.444 305.417 368.191 321.807 382.774 351.246 C 399.341 384.687 387.652 441.920 387.652 441.930 C 387.655 441.932 419.305 462.596 419.309 462.598 C 419.303 462.597 384.017 455.171 366.773 454.779 C 381.617 377.702 334.286 325.399 289.681 335.125 C 225.018 349.224 283.434 280.637 223.796 222.931 C 179.027 280.253 153.775 269.215 120.905 244.566 C 104.437 249.237 84.461 235.697 84.457 235.696 C 84.461 235.696 114.845 236.026 114.848 236.026 C 114.848 236.025 112.872 222.945 112.872 222.944 C 112.873 222.945 121.069 232.005 125.239 235.046 C 157.392 258.487 180.399 241.411 202.952 202.622 C 202.954 202.622 284.023 184.753 284.525 184.453 C 306.716 171.160 324.472 124.512 302.283 101.856 C 296.111 95.554 287.652 90.002 287.650 90.001 C 287.651 89.999 290.816 74.188 290.816 74.186 C 290.816 74.186 292.398 64.882 292.398 64.881 C 292.401 64.882 315.274 72.674 315.276 72.674 C 315.276 72.676 308.835 90.192 308.834 90.194 C 308.835 90.194 310.635 91.220 313.579 93.469 Z"/>
<path fill="#000000" fill-rule="evenodd" stroke="#ffffff" stroke-width="4" stroke-linecap="round" stroke-linejoin="round" d="M 233.708 345.146 C 233.708 345.138 242.882 303.743 233.356 261.644 C 227.381 235.243 208.740 203.734 208.738 203.728 C 208.746 203.726 293.445 179.244 293.453 179.241 C 293.460 179.253 363.972 296.544 362.862 297.989 C 311.239 365.198 233.721 345.142 233.708 345.146 Z"/>
<path fill="#ffffff" fill-rule="evenodd" stroke="#000000" stroke-width="4" stroke-linecap="round" stroke-linejoin="round" d="M 267.196 181.743 C 276.476 177.652 287.907 173.448 296.416 168.379 C 299.854 166.331 306.916 211.184 270.740 227.631 C 226.642 247.679 196.683 200.970 196.675 200.967 C 196.680 200.966 238.282 191.380 238.286 191.379 C 238.287 191.376 217.487 176.922 210.982 164.076 C 211.122 149.261 225.187 128.105 225.188 128.102 C 225.192 128.103 255.497 129.856 262.377 139.985 C 262.376 139.989 265.839 153.852 267.196 181.743 M 332.728 157.272 C 332.728 157.269 335.517 128.476 335.517 128.473 C 335.514 128.473 309.523 130.115 309.521 130.115 C 309.520 130.117 306.559 148.383 306.558 148.384 C 306.561 148.385 332.725 157.271 332.728 157.272 M 159.799 240.733 C 165.097 238.843 172.434 236.741 172.435 236.741 C 172.436 236.743 186.586 263.072 186.588 263.075 C 186.585 263.075 160.068 268.926 160.065 268.927 C 160.065 268.924 158.979 240.149 159.799 240.733 M 352.705 377.241 C 352.704 377.240 348.372 366.736 348.371 366.734 C 348.375 366.732 380.846 338.237 380.850 338.234 C 380.851 338.237 393.193 369.338 393.194 369.341 C 393.190 369.342 352.795 376.727 352.705 377.241 Z"/>
<path fill="#ffffff" fill-rule="evenodd" stroke="#000000" stroke-width="4" stroke-linecap="round" stroke-linejoin="round" d="M 225.314 160.478 C 225.318 160.476 269.748 139.743 269.753 139.740 C 269.753 139.743 276.665 169.857 276.665 169.860 C 276.661 169.860 231.187 171.283 229.264 169.860 C 228.982 169.652 225.314 160.479 225.314 160.478 Z"/>
<path fill="none" stroke="#000000" stroke-width="4" stroke-linecap="round" stroke-linejoin="round" d="M 236.670 162.948 C 246.710 160.149 256.750 157.351 266.790 154.553 "/>
<path fill="#ffffff" fill-rule="evenodd" stroke="#000000" stroke-width="4" stroke-linecap="round" stroke-linejoin="round" d="M 221.832 125.413 C 221.831 125.412 218.501 118.509 208.014 115.182 C 191.914 110.075 177.125 116.780 171.553 123.777 C 166.328 130.336 167.021 144.484 176.127 148.382 C 196.184 156.966 199.981 131.526 210.694 127.416 C 217.593 124.769 221.831 125.413 221.832 125.413 Z"/>
<path fill="none" stroke="#000000" stroke-width="4" stroke-linecap="round" stroke-linejoin="round" d="M 290.816 74.186 C 302.032 78.856 312.261 77.395 309.431 81.871 C 306.272 86.866 300.058 82.920 300.057 82.921 C 300.057 82.921 301.586 86.725 297.043 89.850 "/>
<path fill="none" stroke="#000000" stroke-width="4" stroke-linecap="round" stroke-linejoin="round" d="M 193.992 144.828 C 196.366 142.128 197.943 136.771 196.301 132.328 C 194.642 127.837 191.090 124.283 186.302 124.258 C 181.378 124.233 176.217 127.581 175.972 132.499 C 175.582 140.308 183.485 144.352 186.806 139.671 C 188.240 137.650 188.114 132.617 183.783 133.750 "/>
<path fill="none" stroke="#000000" stroke-width="4" stroke-linecap="round" stroke-linejoin="round" d="M 218.287 124.230 C 209.521 120.905 205.733 121.102 198.416 122.953 C 195.037 123.808 194.065 125.086 191.889 126.152 "/>
</g>
<g id="specs">
<path fill="#ff0000" fill-rule="evenodd" stroke="none" d="M 321.378 635.830 C 321.377 635.834 308.962 670.596 308.961 670.600 C 308.962 670.599 321.377 659.047 321.378 659.046 C 321.379 659.047 333.794 670.599 333.796 670.600 C 333.794 670.596 321.379 635.834 321.378 635.830 Z"/>
<path fill="#0000ff" fill-rule="evenodd" stroke="none" d="M 463.982 92.382 C 463.981 92.385 456.769 112.578 456.769 112.580 C 456.769 112.579 463.981 105.869 463.982 105.868 C 463.982 105.869 471.194 112.579 471.195 112.580 C 471.194 112.578 463.982 92.385 463.982 92.382 Z"/>
<path fill="#ffff00" fill-rule="evenodd" stroke="none" d="M 610.785 378.093 C 610.784 378.091 601.834 358.606 601.834 358.604 C 601.833 358.605 601.362 368.444 601.362 368.445 C 601.361 368.445 591.514 368.684 591.513 368.684 C 591.515 368.685 610.783 378.092 610.785 378.093 Z"/>
<path fill="#00ff00" fill-rule="evenodd" stroke="none" d="M 224.333 293.997 C 224.335 293.996 244.491 286.682 244.493 286.682 C 244.492 286.682 237.819 293.928 237.818 293.929 C 237.819 293.930 244.565 301.107 244.566 301.108 C 244.564 301.107 224.335 293.998 224.333 293.997 Z"/>
<path fill="#00ffff" fill-rule="evenodd" stroke="none" d="M 151.669 130.900 C 151.671 130.901 171.025 140.132 171.027 140.133 C 171.026 140.132 165.086 132.274 165.085 132.273 C 165.086 132.273 172.495 125.781 172.496 125.781 C 172.494 125.781 151.671 130.900 151.669 130.900 Z"/>
<path fill="#00ffff" fill-rule="evenodd" stroke="none" d="M 511.049 112.674 C 511.049 112.676 502.559 132.365 502.558 132.367 C 502.558 132.366 501.856 122.541 501.856 122.540 C 501.855 122.540 492.005 122.532 492.004 122.532 C 492.006 122.531 511.048 112.675 511.049 112.674 Z"/>
<path fill="#be0027" fill-rule="evenodd" stroke="none" d="M 72.799 452.232 C 72.801 452.229 84.298 427.958 84.299 427.955 C 84.299 427.957 84.744 440.286 84.744 440.288 C 84.745 440.288 97.075 440.732 97.076 440.732 C 97.073 440.733 72.802 452.230 72.799 452.232 Z"/>
<path fill="#00ff00" fill-rule="evenodd" stroke="none" d="M 437.245 467.446 C 437.243 467.445 420.662 453.849 420.661 453.848 C 420.661 453.849 424.548 462.900 424.548 462.901 C 424.547 462.901 415.799 467.430 415.798 467.430 C 415.801 467.430 437.243 467.446 437.245 467.446 Z"/>
<path fill="#ff00ff" fill-rule="evenodd" stroke="none" d="M 249.888 236.052 C 249.895 236.052 321.157 236.052 321.164 236.052 C 321.164 236.059 321.164 307.321 321.164 307.328 C 321.157 307.328 249.895 307.328 249.888 307.328 C 249.888 307.321 249.888 236.059 249.888 236.052 Z"/>
<path fill="#ff00ff" fill-rule="evenodd" stroke="none" d="M 415.660 310.790 C 415.667 310.790 482.191 310.790 482.198 310.790 C 482.198 310.796 482.198 377.320 482.198 377.327 C 482.191 377.327 415.667 377.327 415.660 377.327 C 415.660 377.320 415.660 310.796 415.660 310.790 Z"/>
<path fill="#ff00ff" fill-rule="evenodd" stroke="none" d="M 210.345 397.555 C 210.353 397.555 283.236 397.555 283.243 397.555 C 283.243 397.562 283.243 470.445 283.243 470.452 C 283.236 470.452 210.353 470.452 210.345 470.452 C 210.345 470.445 210.345 397.562 210.345 397.555 Z"/>
<path fill="#ff00ff" fill-rule="evenodd" stroke="none" d="M 62.588 162.173 C 62.595 162.173 135.478 162.173 135.485 162.173 C 135.485 162.180 135.485 235.063 135.485 235.070 C 135.478 235.070 62.595 235.070 62.588 235.070 C 62.588 235.063 62.588 162.180 62.588 162.173 Z"/>
</g>
</g>
</svg>
