<?xml version="1.0" encoding="utf-8"?>
<!-- Generator: Moho 13.5.1 build 20210623 -->
<!DOCTYPE svg PUBLIC "-//W3C//DTD SVG 1.1//EN" "http://www.w3.org/Graphics/SVG/1.1/DTD/svg11.dtd">
<svg version="1.1" id="Frame_0" xmlns="http://www.w3.org/2000/svg" xmlns:xlink="http://www.w3.org/1999/xlink" width="720px" height="720px">
<g id="knot_4pt">
<g id="knot_4pt">
<linearGradient id="6E61F7F6-5693-47EC-81D6-F50DFC04B17B_0" x1="1.50%" y1="135.31%" x2="38.74%" y2="9.01%">
<stop offset="0.00%" style="stop-color:rgb(0,0,0);stop-opacity:1.00" />
<stop offset="82.35%" style="stop-color:rgb(255,255,255);stop-opacity:1.00" />
</linearGradient>
<path fill="url(#6E61F7F6-5693-47EC-81D6-F50DFC04B17B_0)" fill-rule="evenodd" stroke="#000000" stroke-width="4" stroke-linecap="round" stroke-linejoin="round" d="M 309.863 238.116 C 290.502 240.764 270.639 244.865 250.335 250.793 C 262.587 208.655 282.675 167.289 312.316 135.967 C 322.407 125.300 334.394 115.354 347.708 107.271 C 351.462 104.991 360.172 100.185 360.173 100.184 C 360.201 100.180 507.786 22.068 603.457 119.640 C 664.031 181.418 658.899 287.100 619.805 360.276 C 617.283 355.515 615.056 351.562 612.746 347.697 C 606.038 336.471 598.387 325.796 589.043 316.981 C 611.590 261.931 601.255 190.320 565.856 155.892 C 531.161 122.151 462.013 111.809 407.767 135.875 C 400.686 139.017 393.472 142.032 386.784 145.841 C 377.214 151.293 359.994 165.266 359.991 165.268 C 359.985 165.276 321.663 210.412 309.863 238.116 Z"/>
<linearGradient id="6E61F7F6-5693-47EC-81D6-F50DFC04B17B_1" x1="-35.47%" y1="1.63%" x2="92.01%" y2="33.23%">
<stop offset="0.00%" style="stop-color:rgb(0,0,0);stop-opacity:1.00" />
<stop offset="82.35%" style="stop-color:rgb(255,255,255);stop-opacity:1.00" />
</linearGradient>
<path fill="none" stroke="#ffffff" stroke-width="1" stroke-linecap="butt" stroke-linejoin="round" d="M 619.805 360.276 C 617.283 355.515 615.056 351.562 612.746 347.697 "/>
<path fill="none" stroke="#ffffff" stroke-width="1" stroke-linecap="butt" stroke-linejoin="round" d="M 612.746 347.697 C 606.038 336.471 598.387 325.796 589.043 316.981 "/>
<path fill="url(#6E61F7F6-5693-47EC-81D6-F50DFC04B17B_1)" fill-rule="evenodd" stroke="#000000" stroke-width="4" stroke-linecap="round" stroke-linejoin="round" d="M 565.856 567.960 C 531.438 601.917 461.762 605.953 407.287 584.246 C 396.967 595.079 385.269 604.784 372.320 612.736 C 368.567 615.040 364.721 617.264 360.034 619.798 C 431.885 657.930 546.137 655.980 595.553 609.607 C 668.282 541.357 660.027 436.163 619.805 360.276 C 617.283 355.515 615.056 351.562 612.746 347.697 C 606.038 336.471 598.387 325.796 589.043 316.981 C 542.399 272.978 485.373 254.553 469.619 250.486 C 475.492 270.659 479.513 290.742 481.983 310.061 C 511.655 322.902 538.680 340.835 558.448 364.517 C 564.533 371.702 569.674 378.982 574.176 386.773 C 578.069 393.513 581.068 400.854 584.083 407.456 C 609.402 462.892 600.696 533.587 565.856 567.960 Z"/>
<linearGradient id="6E61F7F6-5693-47EC-81D6-F50DFC04B17B_2" x1="99.03%" y1="-35.60%" x2="67.19%" y2="91.75%">
<stop offset="0.00%" style="stop-color:rgb(0,0,0);stop-opacity:1.00" />
<stop offset="82.35%" style="stop-color:rgb(255,255,255);stop-opacity:1.00" />
</linearGradient>
<path fill="none" stroke="#ffffff" stroke-width="1" stroke-linecap="butt" stroke-linejoin="round" d="M 360.034 619.798 C 364.721 617.264 368.567 615.040 372.320 612.736 "/>
<path fill="none" stroke="#ffffff" stroke-width="1" stroke-linecap="butt" stroke-linejoin="round" d="M 372.320 612.736 C 385.269 604.784 396.967 595.079 407.287 584.246 "/>
<path fill="url(#6E61F7F6-5693-47EC-81D6-F50DFC04B17B_2)" fill-rule="evenodd" stroke="#000000" stroke-width="4" stroke-linecap="round" stroke-linejoin="round" d="M 153.789 567.960 C 118.994 533.548 111.710 462.851 135.916 407.187 C 125.053 396.885 115.302 385.215 107.281 372.309 C 105.013 368.660 102.823 364.921 100.113 360.077 C 60.036 433.224 50.200 536.857 115.749 602.832 C 181.679 669.191 286.158 660.005 360.034 619.798 C 364.721 617.264 368.567 615.040 372.320 612.736 C 385.269 604.784 396.967 595.079 407.287 584.246 C 436.767 553.303 456.974 511.999 469.249 469.551 C 449.216 475.394 429.183 479.446 409.900 481.938 C 397.841 509.593 381.355 535.017 359.947 554.328 C 351.547 562.065 342.777 568.590 333.244 574.165 C 327.146 577.730 320.618 580.736 313.119 584.158 C 259.692 608.539 188.630 602.418 153.789 567.960 Z"/>
<linearGradient id="6E61F7F6-5693-47EC-81D6-F50DFC04B17B_3" x1="135.51%" y1="97.98%" x2="13.13%" y2="63.90%">
<stop offset="0.00%" style="stop-color:rgb(0,0,0);stop-opacity:1.00" />
<stop offset="82.35%" style="stop-color:rgb(255,255,255);stop-opacity:1.00" />
</linearGradient>
<path fill="none" stroke="#ffffff" stroke-width="1" stroke-linecap="butt" stroke-linejoin="round" d="M 312.316 135.967 C 322.407 125.300 334.394 115.354 347.708 107.271 "/>
<path fill="none" stroke="#ffffff" stroke-width="1" stroke-linecap="butt" stroke-linejoin="round" d="M 347.708 107.271 C 351.462 104.991 360.172 100.185 360.173 100.184 "/>
<path fill="none" stroke="#ffffff" stroke-width="1" stroke-linecap="butt" stroke-linejoin="round" d="M 100.113 360.077 C 102.823 364.921 105.013 368.660 107.281 372.309 "/>
<path fill="none" stroke="#ffffff" stroke-width="1" stroke-linecap="butt" stroke-linejoin="round" d="M 107.281 372.309 C 115.302 385.215 125.053 396.885 135.916 407.187 "/>
<path fill="url(#6E61F7F6-5693-47EC-81D6-F50DFC04B17B_3)" fill-rule="evenodd" stroke="#000000" stroke-width="4" stroke-linecap="round" stroke-linejoin="round" d="M 153.789 155.892 C 188.187 121.702 258.976 109.230 312.316 135.967 C 322.407 125.300 334.394 115.354 347.708 107.271 C 351.462 104.991 360.172 100.185 360.173 100.184 C 320.619 67.416 183.474 49.204 113.490 121.898 C 50.835 186.981 60.687 288.536 100.113 360.077 C 102.823 364.921 105.013 368.660 107.281 372.309 C 115.302 385.215 125.053 396.885 135.916 407.187 C 166.851 436.526 207.953 456.728 250.803 469.390 C 245.014 449.922 240.829 429.848 238.217 410.471 C 210.599 398.922 184.691 382.840 164.326 361.277 C 156.143 352.616 148.491 342.399 142.184 331.106 C 139.123 325.623 137.021 319.593 134.294 314.261 C 107.894 262.650 119.419 190.055 153.789 155.892 Z"/>
<linearGradient id="6E61F7F6-5693-47EC-81D6-F50DFC04B17B_4" x1="-0.55%" y1="-28.83%" x2="109.87%" y2="126.92%">
<stop offset="0.00%" style="stop-color:rgb(0,0,0);stop-opacity:1.00" />
<stop offset="35.69%" style="stop-color:rgb(255,255,255);stop-opacity:1.00" />
<stop offset="67.84%" style="stop-color:rgb(255,255,255);stop-opacity:1.00" />
<stop offset="100.00%" style="stop-color:rgb(0,0,0);stop-opacity:1.00" />
</linearGradient>
<path fill="none" stroke="#ffffff" stroke-width="1" stroke-linecap="butt" stroke-linejoin="round" d="M 407.767 135.875 C 400.686 139.017 393.472 142.032 386.784 145.841 "/>
<path fill="none" stroke="#ffffff" stroke-width="1" stroke-linecap="butt" stroke-linejoin="round" d="M 386.784 145.841 C 377.214 151.293 359.994 165.266 359.991 165.268 "/>
<path fill="none" stroke="#ffffff" stroke-width="1" stroke-linecap="butt" stroke-linejoin="round" d="M 481.983 310.061 C 479.513 290.742 475.492 270.659 469.619 250.486 "/>
<path fill="url(#6E61F7F6-5693-47EC-81D6-F50DFC04B17B_4)" fill-rule="evenodd" stroke="#000000" stroke-width="4" stroke-linecap="round" stroke-linejoin="round" d="M 469.619 250.486 C 457.504 208.513 437.437 167.140 407.767 135.875 C 400.686 139.017 393.472 142.032 386.784 145.841 C 377.214 151.293 359.994 165.266 359.991 165.268 C 369.606 176.596 398.450 210.580 409.984 238.019 C 417.580 255.757 423.246 274.283 427.140 292.791 C 432.256 316.016 434.544 339.121 434.544 360.003 C 434.544 381.070 432.176 404.333 426.759 428.594 C 445.123 425.143 463.612 420.172 481.466 413.385 C 484.045 395.583 485.350 377.118 485.350 360.003 C 485.350 344.722 484.324 328.342 481.983 310.061 C 479.513 290.742 475.492 270.659 469.619 250.486 Z"/>
<linearGradient id="6E61F7F6-5693-47EC-81D6-F50DFC04B17B_5" x1="-41.16%" y1="103.44%" x2="131.39%" y2="-33.98%">
<stop offset="0.00%" style="stop-color:rgb(0,0,0);stop-opacity:1.00" />
<stop offset="35.69%" style="stop-color:rgb(255,255,255);stop-opacity:1.00" />
<stop offset="67.84%" style="stop-color:rgb(255,255,255);stop-opacity:1.00" />
<stop offset="100.00%" style="stop-color:rgb(0,0,0);stop-opacity:1.00" />
</linearGradient>
<path fill="none" stroke="#ffffff" stroke-width="1" stroke-linecap="butt" stroke-linejoin="round" d="M 574.176 386.773 C 578.069 393.513 581.068 400.854 584.083 407.456 "/>
<path fill="none" stroke="#ffffff" stroke-width="1" stroke-linecap="butt" stroke-linejoin="round" d="M 469.249 469.551 C 449.216 475.394 429.183 479.446 409.900 481.938 "/>
<path fill="none" stroke="#ffffff" stroke-width="1" stroke-linecap="butt" stroke-linejoin="round" d="M 426.759 428.594 C 445.123 425.143 463.612 420.172 481.466 413.385 "/>
<path fill="none" stroke="#ffffff" stroke-width="1" stroke-linecap="butt" stroke-linejoin="round" d="M 558.448 364.517 C 564.533 371.702 569.674 378.982 574.176 386.773 "/>
<path fill="url(#6E61F7F6-5693-47EC-81D6-F50DFC04B17B_5)" fill-rule="evenodd" stroke="#000000" stroke-width="4" stroke-linecap="round" stroke-linejoin="round" d="M 574.176 386.773 C 578.069 393.513 581.068 400.854 584.083 407.456 C 552.574 437.158 511.238 457.304 469.249 469.551 C 449.216 475.394 429.183 479.446 409.900 481.938 C 391.653 484.299 375.295 485.339 360.014 485.339 C 344.326 485.340 327.516 484.234 310.217 481.921 C 302.598 464.119 296.896 445.599 292.914 427.125 C 316.339 432.058 339.274 434.352 360.014 434.534 C 380.845 434.716 404.017 432.870 426.759 428.594 C 445.123 425.143 463.612 420.172 481.466 413.385 C 510.303 402.334 537.264 386.461 558.448 364.517 C 564.533 371.702 569.674 378.982 574.176 386.773 Z"/>
<linearGradient id="6E61F7F6-5693-47EC-81D6-F50DFC04B17B_6" x1="121.58%" y1="130.48%" x2="0.01%" y2="-35.00%">
<stop offset="0.00%" style="stop-color:rgb(0,0,0);stop-opacity:1.00" />
<stop offset="35.69%" style="stop-color:rgb(255,255,255);stop-opacity:1.00" />
<stop offset="67.84%" style="stop-color:rgb(255,255,255);stop-opacity:1.00" />
<stop offset="100.00%" style="stop-color:rgb(0,0,0);stop-opacity:1.00" />
</linearGradient>
<path fill="none" stroke="#ffffff" stroke-width="1" stroke-linecap="butt" stroke-linejoin="round" d="M 333.244 574.165 C 327.146 577.730 320.618 580.736 313.119 584.158 "/>
<path fill="none" stroke="#ffffff" stroke-width="1" stroke-linecap="butt" stroke-linejoin="round" d="M 250.803 469.390 C 245.014 449.922 240.829 429.848 238.217 410.471 "/>
<path fill="none" stroke="#ffffff" stroke-width="1" stroke-linecap="butt" stroke-linejoin="round" d="M 292.914 427.125 C 296.896 445.599 302.598 464.119 310.217 481.921 "/>
<path fill="none" stroke="#ffffff" stroke-width="1" stroke-linecap="butt" stroke-linejoin="round" d="M 359.947 554.328 C 351.547 562.065 342.777 568.590 333.244 574.165 "/>
<path fill="url(#6E61F7F6-5693-47EC-81D6-F50DFC04B17B_6)" fill-rule="evenodd" stroke="#000000" stroke-width="4" stroke-linecap="round" stroke-linejoin="round" d="M 333.244 574.165 C 327.146 577.730 320.618 580.736 313.119 584.158 C 283.730 553.028 263.450 511.922 250.803 469.390 C 245.014 449.922 240.829 429.848 238.217 410.471 C 235.792 392.485 234.677 375.691 234.678 360.003 C 234.678 344.722 235.710 328.351 238.022 310.362 C 255.822 302.656 274.357 296.912 292.703 292.999 C 287.766 316.070 285.483 339.147 285.483 360.003 C 285.483 380.885 287.810 403.925 292.914 427.125 C 296.896 445.599 302.598 464.119 310.217 481.921 C 321.715 508.991 338.155 534.586 359.947 554.328 C 351.547 562.065 342.777 568.590 333.244 574.165 Z"/>
<linearGradient id="6E61F7F6-5693-47EC-81D6-F50DFC04B17B_7" x1="-35.33%" y1="114.21%" x2="126.05%" y2="-10.69%">
<stop offset="0.00%" style="stop-color:rgb(0,0,0);stop-opacity:1.00" />
<stop offset="35.69%" style="stop-color:rgb(255,255,255);stop-opacity:1.00" />
<stop offset="67.84%" style="stop-color:rgb(255,255,255);stop-opacity:1.00" />
<stop offset="100.00%" style="stop-color:rgb(0,0,0);stop-opacity:1.00" />
</linearGradient>
<path fill="none" stroke="#ffffff" stroke-width="1" stroke-linecap="butt" stroke-linejoin="round" d="M 134.294 314.261 C 137.021 319.593 139.123 325.623 142.184 331.106 "/>
<path fill="none" stroke="#ffffff" stroke-width="1" stroke-linecap="butt" stroke-linejoin="round" d="M 142.184 331.106 C 148.491 342.399 156.143 352.616 164.326 361.277 "/>
<path fill="none" stroke="#ffffff" stroke-width="1" stroke-linecap="butt" stroke-linejoin="round" d="M 238.022 310.362 C 255.822 302.656 274.357 296.912 292.703 292.999 "/>
<path fill="none" stroke="#ffffff" stroke-width="1" stroke-linecap="butt" stroke-linejoin="round" d="M 427.140 292.791 C 423.246 274.283 417.580 255.757 409.984 238.019 "/>
<path fill="none" stroke="#ffffff" stroke-width="1" stroke-linecap="butt" stroke-linejoin="round" d="M 309.863 238.116 C 290.502 240.764 270.639 244.865 250.335 250.793 "/>
<path fill="url(#6E61F7F6-5693-47EC-81D6-F50DFC04B17B_7)" fill-rule="evenodd" stroke="#000000" stroke-width="4" stroke-linecap="round" stroke-linejoin="round" d="M 250.335 250.793 C 207.584 263.274 165.645 283.935 134.294 314.261 C 137.021 319.593 139.123 325.623 142.184 331.106 C 148.491 342.399 156.143 352.616 164.326 361.277 C 184.536 338.883 210.446 322.109 238.022 310.362 C 255.822 302.656 274.357 296.912 292.703 292.999 C 316.068 287.785 339.132 285.473 360.014 285.473 C 381.081 285.473 404.376 287.823 427.140 292.791 C 423.246 274.283 417.580 255.757 409.984 238.019 C 393.509 235.804 376.144 234.667 360.014 234.667 C 343.884 234.667 326.561 235.830 309.863 238.116 C 290.502 240.764 270.639 244.865 250.335 250.793 Z"/>
</g>
<g id="specs_2">
<path fill="#ff00ff" fill-rule="evenodd" stroke="none" d="M 183.076 536.495 C 183.111 536.495 535.796 536.495 535.831 536.495 C 535.831 536.459 535.831 183.774 535.831 183.739 C 535.796 183.739 183.111 183.739 183.076 183.739 C 183.076 183.774 183.076 536.459 183.076 536.495 Z"/>
<path fill="#ff0000" fill-rule="evenodd" stroke="none" d="M 359.454 676.424 C 359.455 676.428 372.444 712.797 372.445 712.801 C 372.444 712.800 359.455 700.714 359.454 700.713 C 359.452 700.714 346.463 712.800 346.462 712.801 C 346.463 712.797 359.452 676.428 359.454 676.424 Z"/>
<path fill="#0000ff" fill-rule="evenodd" stroke="none" d="M 359.454 86.553 C 359.454 86.555 366.999 107.682 367.000 107.684 C 366.999 107.683 359.454 100.663 359.454 100.663 C 359.453 100.663 351.908 107.683 351.907 107.684 C 351.908 107.682 359.453 86.555 359.454 86.553 Z"/>
<path fill="#00ff00" fill-rule="evenodd" stroke="none" d="M 88.115 361.166 C 88.117 361.166 109.205 353.514 109.208 353.513 C 109.207 353.514 102.225 361.095 102.224 361.095 C 102.225 361.096 109.283 368.605 109.284 368.606 C 109.281 368.605 88.117 361.167 88.115 361.166 Z"/>
<path fill="#ffff00" fill-rule="evenodd" stroke="none" d="M 106.963 614.557 C 106.964 614.555 116.327 594.170 116.328 594.168 C 116.328 594.169 116.821 604.463 116.821 604.464 C 116.822 604.464 127.124 604.713 127.125 604.714 C 127.123 604.714 106.965 614.556 106.963 614.557 Z"/>
<path fill="#ffff00" fill-rule="evenodd" stroke="none" d="M 611.279 614.308 C 611.278 614.306 601.509 594.111 601.508 594.109 C 601.508 594.110 601.221 604.413 601.221 604.414 C 601.220 604.414 590.924 604.870 590.923 604.870 C 590.925 604.871 611.277 614.307 611.279 614.308 Z"/>
<path fill="#00ff00" fill-rule="evenodd" stroke="none" d="M 633.935 361.166 C 633.933 361.166 612.844 353.514 612.842 353.513 C 612.843 353.514 619.825 361.095 619.826 361.095 C 619.825 361.096 612.767 368.605 612.766 368.606 C 612.768 368.605 633.933 361.167 633.935 361.166 Z"/>
<path fill="#00ffff" fill-rule="evenodd" stroke="none" d="M 611.658 106.948 C 611.657 106.950 604.168 128.096 604.167 128.098 C 604.167 128.097 602.749 117.889 602.749 117.888 C 602.748 117.888 592.465 118.567 592.464 118.567 C 592.466 118.566 611.656 106.949 611.658 106.948 Z"/>
<path fill="#00ffff" fill-rule="evenodd" stroke="none" d="M 107.366 107.649 C 107.367 107.651 116.249 128.251 116.250 128.253 C 116.250 128.252 116.984 117.972 116.984 117.971 C 116.985 117.971 127.291 117.963 127.292 117.963 C 127.290 117.962 107.368 107.650 107.366 107.649 Z"/>
<path fill="#be0027" fill-rule="evenodd" stroke="none" d="M 359.454 642.850 C 359.455 642.846 372.444 606.477 372.445 606.473 C 372.444 606.474 359.455 618.560 359.454 618.561 C 359.452 618.560 346.463 606.474 346.462 606.473 C 346.463 606.477 359.452 642.846 359.454 642.850 Z"/>
</g>
</g>
</svg>
