<?xml version="1.0" encoding="utf-8"?>
<!-- Generator: Moho 12.5 build 22414 -->
<!DOCTYPE svg PUBLIC "-//W3C//DTD SVG 1.1//EN" "http://www.w3.org/Graphics/SVG/1.1/DTD/svg11.dtd">
<svg version="1.1" id="Frame_0" xmlns="http://www.w3.org/2000/svg" xmlns:xlink="http://www.w3.org/1999/xlink" width="720px" height="720px">
<g id="ladder">
<g id="ladder">
<path fill="#ffffff" fill-rule="evenodd" stroke="#000000" stroke-width="4" stroke-linejoin="round" d="M 344.778 31.587 C 344.775 31.586 334.291 15.545 318.021 21.463 C 303.134 26.878 304.871 44.093 304.869 44.095 C 304.894 44.154 549.734 633.651 549.758 633.710 C 549.761 633.711 560.245 649.752 576.515 643.835 C 591.402 638.420 589.665 621.204 589.667 621.202 C 589.642 621.143 344.802 31.646 344.778 31.587 Z"/>
<path fill="#ffffff" fill-rule="evenodd" stroke="#000000" stroke-width="4" stroke-linejoin="round" d="M 549.305 578.321 C 543.412 561.837 526.682 566.904 526.680 566.902 C 526.664 566.907 368.464 616.490 368.449 616.495 C 368.450 616.498 382.052 649.248 382.053 649.251 C 382.069 649.246 540.269 599.664 540.284 599.659 C 540.285 599.657 554.691 593.390 549.305 578.321 M 508.490 480.052 C 502.597 463.567 485.867 468.635 485.865 468.633 C 485.849 468.638 327.649 518.220 327.634 518.225 C 327.635 518.229 341.237 550.979 341.238 550.982 C 341.254 550.977 499.454 501.395 499.469 501.390 C 499.470 501.388 513.877 495.121 508.490 480.052 M 467.675 381.783 C 461.782 365.298 445.052 370.365 445.050 370.364 C 445.034 370.369 286.834 419.952 286.819 419.957 C 286.820 419.960 300.422 452.709 300.424 452.713 C 300.439 452.708 458.639 403.125 458.655 403.120 C 458.656 403.118 473.062 396.852 467.675 381.783 M 426.860 283.514 C 420.967 267.029 404.238 272.096 404.235 272.095 C 404.220 272.100 246.020 321.682 246.004 321.687 C 246.005 321.691 259.607 354.440 259.609 354.443 C 259.624 354.438 417.824 304.856 417.840 304.851 C 417.841 304.849 432.247 298.582 426.860 283.514 M 386.046 185.245 C 380.153 168.760 363.423 173.827 363.420 173.826 C 363.404 173.831 205.205 223.413 205.189 223.418 C 205.190 223.421 218.792 256.171 218.794 256.175 C 218.809 256.170 377.009 206.587 377.025 206.582 C 377.026 206.580 391.432 200.314 386.046 185.245 M 345.231 86.976 C 339.338 70.491 322.608 75.558 322.605 75.557 C 322.589 75.562 164.390 125.144 164.374 125.149 C 164.375 125.152 177.977 157.902 177.979 157.905 C 177.994 157.900 336.194 108.318 336.210 108.313 C 336.211 108.311 350.617 102.045 345.231 86.976 Z"/>
<path fill="#ffffff" fill-rule="evenodd" stroke="#000000" stroke-width="4" stroke-linejoin="round" d="M 170.242 86.290 C 170.239 86.289 159.755 70.247 143.485 76.165 C 128.598 81.580 130.335 98.795 130.333 98.797 C 130.358 98.856 375.198 688.354 375.222 688.412 C 375.225 688.414 385.709 704.455 401.979 698.537 C 416.866 693.122 415.129 675.907 415.131 675.905 C 415.106 675.846 170.266 86.348 170.242 86.290 Z"/>
</g>
<g id="specs_2">
<path fill="#ff0000" fill-rule="evenodd" stroke="none" d="M 360.000 671.163 C 360.001 671.166 372.432 705.972 372.433 705.976 C 372.432 705.975 360.001 694.409 360.000 694.407 C 359.999 694.409 347.568 705.975 347.567 705.976 C 347.568 705.972 359.999 671.166 360.000 671.163 Z"/>
<path fill="#0000ff" fill-rule="evenodd" stroke="none" d="M 251.878 86.966 C 251.879 86.968 264.292 104.485 264.293 104.487 C 264.292 104.486 255.526 99.968 255.525 99.968 C 255.524 99.968 250.386 108.387 250.386 108.388 C 250.386 108.385 251.878 86.968 251.878 86.966 Z"/>
<path fill="#00ff00" fill-rule="evenodd" stroke="none" d="M 245.482 400.733 C 245.483 400.732 261.358 386.279 261.360 386.277 C 261.359 386.278 257.942 395.530 257.942 395.531 C 257.942 395.531 266.924 399.606 266.925 399.606 C 266.923 399.607 245.484 400.733 245.482 400.733 Z"/>
<path fill="#ffff00" fill-rule="evenodd" stroke="none" d="M 388.524 700.209 C 388.525 700.207 389.385 678.755 389.385 678.753 C 389.386 678.754 393.571 687.685 393.572 687.685 C 393.573 687.685 402.781 684.153 402.782 684.153 C 402.781 684.155 388.526 700.207 388.524 700.209 Z"/>
<path fill="#ffff00" fill-rule="evenodd" stroke="none" d="M 590.305 638.132 C 590.303 638.131 574.301 623.818 574.299 623.817 C 574.300 623.818 577.799 633.040 577.799 633.040 C 577.798 633.041 568.853 637.195 568.852 637.195 C 568.854 637.195 590.302 638.132 590.305 638.132 Z"/>
<path fill="#00ff00" fill-rule="evenodd" stroke="none" d="M 479.882 327.749 C 479.879 327.749 458.430 328.659 458.428 328.659 C 458.429 328.660 467.369 332.825 467.370 332.825 C 467.369 332.826 463.859 342.043 463.858 342.044 C 463.860 342.042 479.880 327.751 479.882 327.749 Z"/>
<path fill="#00ffff" fill-rule="evenodd" stroke="none" d="M 331.089 16.418 C 331.089 16.420 332.164 37.862 332.164 37.864 C 332.164 37.863 327.191 29.346 327.190 29.345 C 327.189 29.346 318.336 33.692 318.335 33.693 C 318.337 33.691 331.088 16.419 331.089 16.418 Z"/>
<path fill="#00ffff" fill-rule="evenodd" stroke="none" d="M 130.252 83.423 C 130.254 83.424 145.618 98.419 145.620 98.420 C 145.619 98.420 142.524 89.055 142.524 89.054 C 142.525 89.053 151.642 85.293 151.643 85.292 C 151.641 85.292 130.254 83.423 130.252 83.423 Z"/>
<path fill="#be0027" fill-rule="evenodd" stroke="none" d="M 479.349 643.527 C 479.349 643.523 477.595 606.606 477.595 606.602 C 477.595 606.604 470.502 622.030 470.501 622.032 C 470.500 622.031 454.603 616.068 454.601 616.067 C 454.604 616.070 479.346 643.524 479.349 643.527 Z"/>
</g>
</g>
</svg>
