<?xml version="1.0" encoding="utf-8"?>
<!-- Generator: Moho 12.5 build 22414 -->
<!DOCTYPE svg PUBLIC "-//W3C//DTD SVG 1.1//EN" "http://www.w3.org/Graphics/SVG/1.1/DTD/svg11.dtd">
<svg version="1.1" id="Frame_0" xmlns="http://www.w3.org/2000/svg" xmlns:xlink="http://www.w3.org/1999/xlink" width="720px" height="720px">
<g id="lamb_head2">
<g id="lamb_head2_2">
<path fill="#ffffff" fill-rule="evenodd" stroke="#000000" stroke-width="4" stroke-linejoin="round" d="M 359.301 587.357 C 368.386 587.357 392.221 585.924 403.327 575.477 C 411.675 567.625 415.206 543.334 415.207 543.331 C 415.218 543.317 499.924 499.084 517.935 408.457 C 534.633 324.437 506.649 277.960 503.983 263.112 C 509.961 257.100 515.982 253.841 523.525 251.920 C 545.233 250.793 571.805 260.007 592.710 255.414 C 634.562 246.220 693.999 218.477 712.907 186.231 C 735.969 146.901 624.013 129.099 579.431 134.518 C 545.808 138.604 489.292 193.912 489.283 193.918 C 489.277 193.915 432.703 146.874 361.398 147.096 C 292.908 147.311 230.723 193.915 230.718 193.918 C 230.709 193.912 174.193 138.604 140.569 134.518 C 95.987 129.099 -15.969 146.901 7.093 186.231 C 26.001 218.478 85.438 246.220 127.291 255.414 C 148.196 260.007 174.767 250.793 196.475 251.920 C 204.018 253.841 210.040 257.100 216.017 263.112 C 213.352 277.960 185.368 324.437 202.066 408.457 C 220.077 499.084 304.783 543.317 304.793 543.331 C 304.794 543.334 305.465 565.757 316.673 575.477 C 327.701 585.040 346.718 587.357 359.301 587.357 M 244.090 322.502 C 258.606 330.330 302.241 326.002 302.242 325.996 C 302.239 325.991 297.969 290.250 268.184 279.174 C 240.322 268.815 215.348 291.053 215.343 291.055 C 215.346 291.058 232.712 316.366 244.090 322.502 M 475.910 322.502 C 461.394 330.330 417.759 326.002 417.758 325.996 C 417.761 325.991 422.031 290.250 451.816 279.174 C 479.678 268.814 504.652 291.053 504.657 291.055 C 504.654 291.058 487.288 316.366 475.910 322.502 Z"/>
<path fill="none" stroke="#000000" stroke-width="4" stroke-linejoin="round" d="M 224.973 247.316 C 225.755 239.415 227.922 228.162 227.922 228.160 C 227.913 228.154 197.519 174.682 140.569 159.675 C 86.212 145.352 56.156 161.527 35.745 175.049 M 500.618 247.316 C 499.836 239.415 497.669 228.162 497.669 228.160 C 497.678 228.154 528.072 174.682 585.022 159.675 C 639.379 145.352 669.435 161.527 689.846 175.049 M 347.393 478.286 C 347.392 478.286 342.115 479.905 337.321 477.816 C 333.128 475.989 330.961 471.709 330.960 471.708 C 330.962 471.708 343.053 473.432 346.333 474.997 C 350.047 476.769 351.444 486.273 360.115 486.273 C 368.785 486.273 370.182 476.769 373.896 474.997 C 377.176 473.432 389.267 471.708 389.269 471.708 C 389.268 471.709 384.913 476.903 381.318 478.286 C 378.174 479.495 375.310 478.599 372.306 478.755 M 303.727 328.290 C 303.728 328.304 309.875 352.308 322.479 474.751 C 324.027 489.787 358.701 497.301 358.705 497.303 C 358.705 497.307 360.303 533.529 358.603 534.945 C 355.927 537.174 320.308 537.837 301.998 517.474 C 295.232 509.950 295.709 496.512 295.708 496.509 M 416.274 328.290 C 416.273 328.304 415.698 351.042 398.220 475.221 C 396.057 490.587 360.118 497.301 360.115 497.303 C 360.115 497.307 360.185 533.971 361.398 534.945 C 363.305 536.478 399.692 537.837 418.003 517.474 C 424.768 509.950 424.292 496.512 424.292 496.509 "/>
<path fill="none" stroke="#000000" stroke-width="1" stroke-linecap="butt" stroke-linejoin="round" d="M 244.090 322.502 C 258.606 330.330 302.241 326.002 302.242 325.996 "/>
<path fill="none" stroke="#000000" stroke-width="1" stroke-linecap="butt" stroke-linejoin="round" d="M 302.242 325.996 C 302.239 325.991 297.969 290.250 268.184 279.174 "/>
<path fill="none" stroke="#000000" stroke-width="1" stroke-linecap="butt" stroke-linejoin="round" d="M 268.184 279.174 C 240.322 268.815 215.348 291.053 215.343 291.055 "/>
<path fill="none" stroke="#000000" stroke-width="1" stroke-linecap="butt" stroke-linejoin="round" d="M 215.343 291.055 C 215.346 291.058 232.712 316.366 244.090 322.502 "/>
<path fill="none" stroke="#000000" stroke-width="1" stroke-linecap="butt" stroke-linejoin="round" d="M 475.910 322.502 C 461.394 330.330 417.759 326.002 417.758 325.996 "/>
<path fill="none" stroke="#000000" stroke-width="1" stroke-linecap="butt" stroke-linejoin="round" d="M 417.758 325.996 C 417.761 325.991 422.031 290.250 451.816 279.174 "/>
<path fill="none" stroke="#000000" stroke-width="1" stroke-linecap="butt" stroke-linejoin="round" d="M 451.816 279.174 C 479.678 268.814 504.652 291.053 504.657 291.055 "/>
<path fill="none" stroke="#000000" stroke-width="1" stroke-linecap="butt" stroke-linejoin="round" d="M 504.657 291.055 C 504.654 291.058 487.288 316.366 475.910 322.502 "/>
<path fill="#000000" fill-rule="evenodd" stroke="none" d="M 244.090 322.502 C 258.606 330.330 302.241 326.002 302.242 325.996 C 302.239 325.991 297.969 290.250 268.184 279.174 C 240.322 268.815 215.348 291.053 215.343 291.055 C 215.346 291.058 232.712 316.366 244.090 322.502 M 475.910 322.502 C 461.394 330.330 417.759 326.002 417.758 325.996 C 417.761 325.991 422.031 290.250 451.816 279.174 C 479.678 268.814 504.652 291.053 504.657 291.055 C 504.654 291.058 487.288 316.366 475.910 322.502 Z"/>
</g>
<g id="specs_2">
<path fill="#ff00ff" fill-rule="evenodd" stroke="none" d="M 299.158 287.743 C 299.170 287.743 420.830 287.743 420.842 287.743 C 420.842 287.731 420.842 166.072 420.842 166.060 C 420.830 166.060 299.170 166.060 299.158 166.060 C 299.158 166.072 299.158 287.731 299.158 287.743 Z"/>
<path fill="#ff0000" fill-rule="evenodd" stroke="none" d="M 360.000 624.540 C 360.001 624.543 372.432 659.349 372.433 659.353 C 372.432 659.352 360.001 647.786 360.000 647.785 C 359.999 647.786 347.568 659.352 347.567 659.353 C 347.568 659.349 359.999 624.543 360.000 624.540 Z"/>
<path fill="#0000ff" fill-rule="evenodd" stroke="none" d="M 360.000 134.233 C 360.001 134.235 367.221 154.453 367.222 154.455 C 367.221 154.455 360.001 147.737 360.000 147.736 C 359.999 147.737 352.779 154.455 352.778 154.455 C 352.779 154.453 359.999 134.235 360.000 134.233 Z"/>
<path fill="#00ff00" fill-rule="evenodd" stroke="none" d="M 185.294 361.005 C 185.296 361.004 205.477 353.681 205.479 353.680 C 205.479 353.681 198.797 360.936 198.796 360.936 C 198.797 360.937 205.552 368.124 205.552 368.125 C 205.550 368.124 185.296 361.005 185.294 361.005 Z"/>
<path fill="#ffff00" fill-rule="evenodd" stroke="none" d="M 255.378 523.251 C 255.379 523.249 264.340 503.739 264.341 503.737 C 264.341 503.738 264.812 513.590 264.812 513.591 C 264.813 513.591 274.673 513.830 274.674 513.830 C 274.672 513.831 255.380 523.250 255.378 523.251 Z"/>
<path fill="#ffff00" fill-rule="evenodd" stroke="none" d="M 464.968 523.012 C 464.967 523.010 455.617 503.684 455.617 503.682 C 455.616 503.683 455.342 513.542 455.342 513.543 C 455.341 513.543 445.488 513.980 445.487 513.980 C 445.489 513.981 464.966 523.011 464.968 523.012 Z"/>
<path fill="#00ff00" fill-rule="evenodd" stroke="none" d="M 536.731 361.005 C 536.729 361.004 516.548 353.681 516.546 353.680 C 516.546 353.681 523.228 360.936 523.229 360.936 C 523.228 360.937 516.474 368.124 516.473 368.125 C 516.475 368.124 536.729 361.005 536.731 361.005 Z"/>
<path fill="#00ffff" fill-rule="evenodd" stroke="none" d="M 472.177 164.692 C 472.176 164.694 465.009 184.931 465.008 184.933 C 465.008 184.932 463.651 175.163 463.651 175.162 C 463.650 175.162 453.809 175.812 453.808 175.812 C 453.810 175.811 472.175 164.693 472.177 164.692 Z"/>
<path fill="#00ffff" fill-rule="evenodd" stroke="none" d="M 250.871 165.363 C 250.871 165.365 259.372 185.079 259.373 185.081 C 259.373 185.080 260.076 175.242 260.076 175.241 C 260.077 175.241 269.939 175.233 269.940 175.233 C 269.938 175.232 250.873 165.364 250.871 165.363 Z"/>
<path fill="#be0027" fill-rule="evenodd" stroke="none" d="M 360.000 610.000 C 360.001 609.996 372.432 575.190 372.433 575.187 C 372.432 575.188 360.001 586.754 360.000 586.755 C 359.999 586.754 347.568 575.188 347.567 575.187 C 347.568 575.190 359.999 609.996 360.000 610.000 Z"/>
</g>
</g>
</svg>
