<?xml version="1.0" encoding="utf-8"?>
<!-- Generator: Moho 13.5.1 build 20210623 -->
<!DOCTYPE svg PUBLIC "-//W3C//DTD SVG 1.1//EN" "http://www.w3.org/Graphics/SVG/1.1/DTD/svg11.dtd">
<svg version="1.1" id="Frame_0" xmlns="http://www.w3.org/2000/svg" xmlns:xlink="http://www.w3.org/1999/xlink" width="720px" height="720px">
<g id="leg">
<g id="leg">
<linearGradient id="87F3D298-D77C-4EE5-AA95-CFD1D9C3DCCC_0" x1="28.89%" y1="57.57%" x2="155.73%" y2="-63.42%">
<stop offset="8.24%" style="stop-color:rgb(255,255,255);stop-opacity:1.00" />
<stop offset="100.00%" style="stop-color:rgb(0,0,0);stop-opacity:1.00" />
</linearGradient>
<path fill="url(#87F3D298-D77C-4EE5-AA95-CFD1D9C3DCCC_0)" fill-rule="evenodd" stroke="#000000" stroke-width="4" stroke-linecap="round" stroke-linejoin="round" d="M 229.165 693.310 C 232.557 692.550 233.710 696.971 248.325 697.707 C 261.906 698.391 311.189 689.867 324.783 689.536 C 335.650 689.271 377.453 699.366 386.162 692.861 C 390.967 689.272 397.545 666.652 396.886 660.692 C 396.099 653.579 378.506 632.843 375.439 626.378 C 356.433 586.308 340.314 468.549 314.346 417.602 C 300.327 390.096 247.824 364.414 248.800 353.270 C 250.547 333.341 450.913 264.419 491.568 240.113 C 524.011 220.716 571.664 165.500 546.723 107.810 C 527.773 63.977 470.724 15.419 398.908 48.738 C 360.701 66.464 244.626 170.755 217.241 202.757 C 198.305 224.885 134.960 313.673 129.846 342.345 C 128.594 349.370 131.973 375.808 134.702 382.401 C 159.783 443.016 324.762 590.827 319.014 627.084 C 317.439 637.022 275.806 645.391 266.064 647.907 C 257.749 650.054 226.517 653.939 217.943 654.424 C 211.058 653.690 195.944 651.099 180.988 641.488 C 176.095 638.344 162.775 645.259 171.013 658.113 C 175.154 664.575 196.280 662.103 196.283 662.103 C 196.281 662.104 172.434 663.341 174.338 670.083 C 177.654 681.829 201.600 672.078 201.603 672.078 C 201.601 672.079 175.691 674.036 181.653 683.383 C 188.242 693.712 210.245 678.729 210.248 678.728 C 210.246 678.729 188.395 685.049 193.623 692.028 C 199.224 699.505 219.791 687.154 219.794 687.154 C 219.792 687.154 202.251 694.475 204.938 697.234 C 213.213 705.733 226.974 693.800 229.165 693.310 Z"/>
</g>
<g id="specs">
<path fill="#ff0000" fill-rule="evenodd" stroke="none" d="M 423.321 163.084 C 423.322 163.081 436.939 130.729 436.940 130.726 C 436.940 130.728 438.229 146.801 438.229 146.803 C 438.230 146.803 454.355 146.674 454.357 146.674 C 454.354 146.676 423.324 163.083 423.321 163.084 Z"/>
<path fill="#0000ff" fill-rule="evenodd" stroke="none" d="M 450.818 22.270 C 450.819 22.272 457.677 41.473 457.677 41.475 C 457.677 41.474 450.819 35.094 450.818 35.093 C 450.817 35.094 443.960 41.474 443.959 41.475 C 443.960 41.473 450.817 22.272 450.818 22.270 Z"/>
<path fill="#ffff00" fill-rule="evenodd" stroke="none" d="M 201.173 708.035 C 201.174 708.033 207.712 685.559 207.713 685.556 C 207.713 685.557 209.800 696.106 209.800 696.107 C 209.801 696.107 220.472 694.785 220.473 694.785 C 220.471 694.787 201.175 708.034 201.173 708.035 Z"/>
<path fill="#ffff00" fill-rule="evenodd" stroke="none" d="M 394.487 706.850 C 394.486 706.848 387.948 684.373 387.947 684.371 C 387.947 684.372 385.861 694.921 385.860 694.922 C 385.859 694.922 375.188 693.600 375.187 693.600 C 375.189 693.601 394.485 706.848 394.487 706.850 Z"/>
<path fill="#00ffff" fill-rule="evenodd" stroke="none" d="M 547.593 82.906 C 547.592 82.907 536.537 100.039 536.536 100.041 C 536.536 100.040 537.421 90.715 537.421 90.714 C 537.420 90.714 528.184 89.159 528.183 89.159 C 528.185 89.158 547.591 82.906 547.593 82.906 Z"/>
<path fill="#00ffff" fill-rule="evenodd" stroke="none" d="M 340.516 68.701 C 340.517 68.703 351.003 86.189 351.004 86.191 C 351.004 86.190 350.426 76.841 350.426 76.840 C 350.427 76.840 359.710 75.590 359.711 75.590 C 359.709 75.589 340.518 68.701 340.516 68.701 Z"/>
<path fill="#be0027" fill-rule="evenodd" stroke="none" d="M 542.610 216.675 C 542.609 216.673 531.097 192.371 531.096 192.369 C 531.096 192.370 530.651 204.715 530.651 204.717 C 530.650 204.717 518.305 205.161 518.304 205.161 C 518.306 205.163 542.608 216.674 542.610 216.675 Z"/>
</g>
</g>
</svg>
