<?xml version="1.0" encoding="utf-8"?>
<!-- Generator: Moho 13.5.1 build 20210623 -->
<!DOCTYPE svg PUBLIC "-//W3C//DTD SVG 1.1//EN" "http://www.w3.org/Graphics/SVG/1.1/DTD/svg11.dtd">
<svg version="1.1" id="Frame_0" xmlns="http://www.w3.org/2000/svg" xmlns:xlink="http://www.w3.org/1999/xlink" width="720px" height="720px">
<g id="leg_stand">
<g id="leg_stand">
<linearGradient id="04F60170-4A3E-4AB4-AF06-6B92E458080F_0" x1="51.56%" y1="48.62%" x2="51.56%" y2="-98.81%">
<stop offset="8.24%" style="stop-color:rgb(255,255,255);stop-opacity:1.00" />
<stop offset="100.00%" style="stop-color:rgb(0,0,0);stop-opacity:1.00" />
</linearGradient>
<path fill="url(#04F60170-4A3E-4AB4-AF06-6B92E458080F_0)" fill-rule="evenodd" stroke="#000000" stroke-width="4" stroke-linejoin="round" d="M 420.848 180.332 C 427.473 176.319 474.052 164.103 461.139 88.009 C 448.829 15.471 376.960 -4.363 322.946 34.582 C 281.169 64.704 277.858 126.194 277.839 148.422 C 277.702 312.789 332.254 355.998 332.833 379.911 C 333.286 398.624 338.529 421.178 349.348 437.199 C 356.553 447.867 363.752 537.610 361.096 618.430 C 360.404 639.470 319.381 640.875 309.424 645.962 C 305.700 647.865 280.642 657.987 275.441 658.852 C 253.021 662.582 251.779 657.159 246.216 663.107 C 241.409 668.247 256.126 677.681 260.314 674.870 C 269.369 668.792 278.921 668.457 278.923 668.457 C 278.921 668.457 260.847 671.840 261.726 677.011 C 262.538 681.793 271.021 681.039 273.372 679.423 C 279.008 675.548 281.898 674.861 281.899 674.860 C 281.898 674.861 267.868 681.983 269.796 684.333 C 273.731 689.128 281.802 685.403 283.409 683.393 C 286.553 679.462 291.745 677.659 291.746 677.659 C 291.745 677.660 280.166 685.665 282.823 687.633 C 287.353 690.989 291.024 688.847 293.087 686.399 C 297.724 680.896 301.000 680.633 301.001 680.633 C 301.000 680.634 288.965 688.785 293.236 690.668 C 295.582 691.702 299.475 690.524 300.474 689.757 C 302.190 688.441 306.187 688.628 310.089 689.062 C 334.519 691.782 345.053 683.627 359.760 683.230 C 373.306 682.864 388.823 688.245 405.738 686.057 C 423.293 683.785 417.788 663.509 415.076 655.733 C 413.641 651.617 411.841 643.350 408.950 632.129 C 400.956 601.105 429.059 555.099 431.967 479.504 C 434.267 419.693 404.753 385.400 404.743 375.510 C 404.731 364.031 430.034 335.974 430.348 253.286 C 430.532 204.594 419.991 180.851 420.848 180.332 Z"/>
</g>
<g id="specs_2">
<path fill="#ff0000" fill-rule="evenodd" stroke="none" d="M 360.694 119.401 C 360.696 119.398 376.518 85.997 376.519 85.994 C 376.519 85.995 377.131 102.963 377.131 102.965 C 377.132 102.965 394.100 103.576 394.102 103.576 C 394.099 103.578 360.698 119.400 360.694 119.401 Z"/>
<path fill="#0000ff" fill-rule="evenodd" stroke="none" d="M 374.133 4.648 C 374.134 4.650 381.354 24.869 381.355 24.871 C 381.354 24.870 374.134 18.152 374.133 18.151 C 374.132 18.152 366.912 24.870 366.911 24.871 C 366.912 24.869 374.132 4.650 374.133 4.648 Z"/>
<path fill="#00ff00" fill-rule="evenodd" stroke="none" d="M 314.053 378.086 C 314.055 378.085 334.237 370.762 334.239 370.761 C 334.238 370.762 327.556 378.017 327.556 378.017 C 327.556 378.018 334.311 385.204 334.312 385.205 C 334.310 385.204 314.055 378.086 314.053 378.086 Z"/>
<path fill="#00ff00" fill-rule="evenodd" stroke="none" d="M 424.359 378.086 C 424.357 378.085 404.175 370.762 404.173 370.761 C 404.174 370.762 410.856 378.017 410.856 378.017 C 410.856 378.018 404.101 385.204 404.101 385.205 C 404.103 385.204 424.357 378.086 424.359 378.086 Z"/>
<path fill="#be0027" fill-rule="evenodd" stroke="none" d="M 360.000 703.604 C 360.001 703.600 372.432 668.795 372.433 668.791 C 372.432 668.792 360.001 680.358 360.000 680.359 C 359.999 680.358 347.568 668.792 347.567 668.791 C 347.568 668.795 359.999 703.600 360.000 703.604 Z"/>
</g>
</g>
</svg>
