<?xml version="1.0" encoding="utf-8"?>
<!-- Generator: Moho 12.5 build 22414 -->
<!DOCTYPE svg PUBLIC "-//W3C//DTD SVG 1.1//EN" "http://www.w3.org/Graphics/SVG/1.1/DTD/svg11.dtd">
<svg version="1.1" id="Frame_0" xmlns="http://www.w3.org/2000/svg" xmlns:xlink="http://www.w3.org/1999/xlink" width="720px" height="720px">
<g id="leg_stand">
<g id="leg_stand">
<path fill="#ffffff" fill-rule="evenodd" stroke="#000000" stroke-width="4" stroke-linejoin="round" d="M 420.848 180.332 C 427.473 176.319 474.052 164.103 461.139 88.009 C 448.829 15.471 376.960 -4.363 322.946 34.582 C 281.169 64.704 277.858 126.194 277.839 148.422 C 277.702 312.789 332.254 355.998 332.833 379.911 C 333.286 398.624 338.529 421.178 349.348 437.199 C 356.553 447.867 363.752 537.610 361.096 618.430 C 360.404 639.470 319.381 640.875 309.424 645.962 C 305.700 647.865 280.642 657.987 275.441 658.852 C 253.021 662.582 251.779 657.159 246.216 663.107 C 241.409 668.247 256.126 677.681 260.314 674.870 C 269.369 668.792 278.921 668.457 278.923 668.457 C 278.921 668.457 260.847 671.840 261.726 677.011 C 262.538 681.793 271.021 681.039 273.372 679.423 C 279.008 675.548 281.898 674.861 281.899 674.860 C 281.898 674.861 267.868 681.983 269.796 684.333 C 273.731 689.128 281.802 685.403 283.409 683.393 C 286.553 679.462 291.745 677.659 291.746 677.659 C 291.745 677.660 280.166 685.665 282.823 687.633 C 287.353 690.989 291.024 688.847 293.087 686.399 C 297.724 680.896 301.000 680.633 301.001 680.633 C 301.000 680.634 288.965 688.785 293.236 690.668 C 295.582 691.702 299.475 690.524 300.474 689.757 C 302.190 688.441 306.187 688.628 310.089 689.062 C 334.519 691.782 345.053 683.627 359.760 683.230 C 373.306 682.864 388.823 688.245 405.738 686.057 C 423.293 683.785 417.788 663.509 415.076 655.733 C 413.641 651.617 411.841 643.350 408.950 632.129 C 400.956 601.105 429.059 555.099 431.967 479.504 C 434.267 419.693 404.753 385.400 404.743 375.510 C 404.731 364.031 430.034 335.974 430.348 253.286 C 430.532 204.594 419.991 180.851 420.848 180.332 Z"/>
</g>
<g id="specs_2">
<path fill="#ff00ff" fill-rule="evenodd" stroke="none" d="M 317.521 165.252 C 317.532 165.252 428.715 165.252 428.726 165.252 C 428.726 165.240 428.726 54.058 428.726 54.047 C 428.715 54.047 317.532 54.047 317.521 54.047 C 317.521 54.058 317.521 165.240 317.521 165.252 Z"/>
<path fill="#ff0000" fill-rule="evenodd" stroke="none" d="M 358.796 125.095 C 358.798 125.092 374.620 91.691 374.621 91.688 C 374.621 91.689 375.232 108.657 375.233 108.659 C 375.234 108.659 392.202 109.270 392.204 109.270 C 392.201 109.272 358.799 125.094 358.796 125.095 Z"/>
<path fill="#0000ff" fill-rule="evenodd" stroke="none" d="M 374.133 4.648 C 374.134 4.650 381.354 24.869 381.355 24.871 C 381.354 24.870 374.134 18.152 374.133 18.151 C 374.132 18.152 366.912 24.870 366.911 24.871 C 366.912 24.869 374.132 4.650 374.133 4.648 Z"/>
<path fill="#00ff00" fill-rule="evenodd" stroke="none" d="M 312.156 361.004 C 312.158 361.003 332.339 353.680 332.341 353.679 C 332.340 353.680 325.659 360.935 325.658 360.935 C 325.659 360.936 332.413 368.122 332.414 368.123 C 332.412 368.122 312.158 361.004 312.156 361.004 Z"/>
<path fill="#ffff00" fill-rule="evenodd" stroke="none" d="M 273.162 151.252 C 273.163 151.251 282.123 131.741 282.124 131.739 C 282.124 131.740 282.596 141.592 282.596 141.593 C 282.597 141.593 292.457 141.832 292.458 141.832 C 292.456 141.833 273.164 151.251 273.162 151.252 Z"/>
<path fill="#00ff00" fill-rule="evenodd" stroke="none" d="M 430.053 361.004 C 430.051 361.003 409.869 353.680 409.867 353.679 C 409.868 353.680 416.550 360.935 416.550 360.935 C 416.550 360.936 409.795 368.122 409.795 368.123 C 409.797 368.122 430.051 361.004 430.053 361.004 Z"/>
<path fill="#00ffff" fill-rule="evenodd" stroke="none" d="M 450.896 36.085 C 450.895 36.087 443.115 58.056 443.114 58.058 C 443.114 58.057 441.641 47.452 441.641 47.451 C 441.640 47.451 430.957 48.157 430.956 48.157 C 430.958 48.155 450.894 36.086 450.896 36.085 Z"/>
<path fill="#00ffff" fill-rule="evenodd" stroke="none" d="M 298.491 36.814 C 298.492 36.816 307.719 58.216 307.720 58.218 C 307.720 58.217 308.483 47.538 308.483 47.537 C 308.484 47.537 319.190 47.528 319.191 47.528 C 319.189 47.527 298.493 36.815 298.491 36.814 Z"/>
<path fill="#be0027" fill-rule="evenodd" stroke="none" d="M 360.000 703.604 C 360.001 703.600 372.432 668.795 372.433 668.791 C 372.432 668.792 360.001 680.358 360.000 680.359 C 359.999 680.358 347.568 668.792 347.567 668.791 C 347.568 668.795 359.999 703.600 360.000 703.604 Z"/>
<path fill="#ffff00" fill-rule="evenodd" stroke="none" d="M 466.088 151.253 C 466.087 151.251 457.127 131.742 457.126 131.740 C 457.126 131.741 456.654 141.592 456.654 141.593 C 456.653 141.593 446.793 141.832 446.792 141.832 C 446.794 141.833 466.086 151.252 466.088 151.253 Z"/>
</g>
</g>
</svg>
