<?xml version="1.0" encoding="utf-8"?>
<!-- Generator: Moho 12.5 build 22414 -->
<!DOCTYPE svg PUBLIC "-//W3C//DTD SVG 1.1//EN" "http://www.w3.org/Graphics/SVG/1.1/DTD/svg11.dtd">
<svg version="1.1" id="Frame_0" xmlns="http://www.w3.org/2000/svg" xmlns:xlink="http://www.w3.org/1999/xlink" width="720px" height="720px">
<g id="leg_crouch">
<g id="leg_crouch">
<path fill="#ffffff" fill-rule="evenodd" stroke="#000000" stroke-width="4" stroke-linejoin="round" d="M 640.227 117.265 C 615.441 18.005 519.789 7.119 449.471 23.633 C 193.283 83.797 184.983 178.888 81.079 232.529 C 42.787 252.298 52.737 332.022 79.773 346.309 C 123.482 369.407 162.177 422.063 226.408 471.149 C 287.116 517.542 366.735 559.985 376.593 573.978 C 391.527 595.174 310.985 603.642 296.665 604.730 C 288.205 605.373 234.399 616.544 223.744 615.625 C 175.954 611.502 176.863 598.050 162.048 606.763 C 149.245 614.292 173.391 642.187 183.549 639.001 C 205.512 632.112 225.044 637.146 225.048 637.146 C 225.044 637.147 186.439 633.186 185.126 644.178 C 183.912 654.342 201.532 657.888 207.257 656.023 C 220.982 651.550 227.241 651.887 227.243 651.887 C 227.240 651.888 194.586 657.915 197.083 663.823 C 202.180 675.881 220.744 673.167 225.198 670.061 C 233.913 663.985 245.499 663.440 245.501 663.439 C 245.499 663.441 217.275 672.720 221.477 678.293 C 228.640 687.793 237.350 685.654 242.990 681.932 C 255.665 673.566 262.453 674.993 262.455 674.992 C 262.453 674.993 233.219 684.296 240.738 690.660 C 244.868 694.156 253.620 694.454 255.934 693.146 C 263.255 689.008 278.106 687.194 293.231 689.297 C 343.224 696.248 365.702 687.232 395.910 687.481 C 423.332 687.707 454.744 694.141 489.080 690.617 C 526.592 686.768 521.539 643.015 513.313 627.519 C 508.051 617.606 483.545 594.180 476.139 576.921 C 443.906 501.804 439.466 462.464 371.023 370.803 C 343.342 333.733 255.261 317.831 255.250 317.826 C 255.269 317.820 361.626 313.840 451.383 261.273 C 584.052 319.346 662.301 205.660 640.227 117.265 Z"/>
</g>
<g id="specs_2">
<path fill="#ff00ff" fill-rule="evenodd" stroke="none" d="M 400.321 237.038 C 400.339 237.038 579.705 237.038 579.723 237.038 C 579.723 237.020 579.723 57.654 579.723 57.636 C 579.705 57.636 400.339 57.636 400.321 57.636 C 400.321 57.654 400.321 237.020 400.321 237.038 Z"/>
<path fill="#ff0000" fill-rule="evenodd" stroke="none" d="M 488.489 151.584 C 488.491 151.581 504.313 118.180 504.314 118.177 C 504.314 118.178 504.926 135.146 504.926 135.148 C 504.928 135.148 521.896 135.759 521.897 135.759 C 521.894 135.761 488.493 151.583 488.489 151.584 Z"/>
<path fill="#0000ff" fill-rule="evenodd" stroke="none" d="M 484.513 2.345 C 484.513 2.347 491.734 22.565 491.735 22.567 C 491.734 22.567 484.513 15.849 484.513 15.848 C 484.512 15.849 477.291 22.567 477.291 22.567 C 477.291 22.565 484.512 2.347 484.513 2.345 Z"/>
<path fill="#00ff00" fill-rule="evenodd" stroke="none" d="M 44.842 294.890 C 44.844 294.890 65.026 287.566 65.028 287.566 C 65.027 287.566 58.345 294.822 58.345 294.822 C 58.345 294.823 65.100 302.009 65.101 302.010 C 65.099 302.009 44.844 294.891 44.842 294.890 Z"/>
<path fill="#ffff00" fill-rule="evenodd" stroke="none" d="M 236.705 698.261 C 236.706 698.259 245.667 678.750 245.668 678.748 C 245.668 678.749 246.139 688.600 246.139 688.601 C 246.140 688.601 256.000 688.840 256.001 688.840 C 255.999 688.841 236.707 698.260 236.705 698.261 Z"/>
<path fill="#ffff00" fill-rule="evenodd" stroke="none" d="M 581.362 274.899 C 581.361 274.897 572.011 255.571 572.010 255.569 C 572.010 255.570 571.736 265.430 571.736 265.431 C 571.735 265.431 561.882 265.867 561.881 265.867 C 561.883 265.868 581.360 274.898 581.362 274.899 Z"/>
<path fill="#00ff00" fill-rule="evenodd" stroke="none" d="M 531.913 651.900 C 531.911 651.899 511.730 644.576 511.728 644.575 C 511.728 644.576 518.410 651.831 518.411 651.832 C 518.410 651.833 511.655 659.019 511.655 659.020 C 511.657 659.019 531.911 651.901 531.913 651.900 Z"/>
<path fill="#00ffff" fill-rule="evenodd" stroke="none" d="M 581.527 24.056 C 581.527 24.058 574.359 44.295 574.359 44.297 C 574.359 44.296 573.001 34.527 573.001 34.526 C 573.000 34.526 563.159 35.176 563.158 35.176 C 563.160 35.175 581.525 24.057 581.527 24.056 Z"/>
<path fill="#00ffff" fill-rule="evenodd" stroke="none" d="M 156.214 597.705 C 156.215 597.707 164.716 617.421 164.717 617.423 C 164.717 617.422 165.419 607.584 165.419 607.583 C 165.420 607.583 175.283 607.576 175.284 607.576 C 175.282 607.575 156.216 597.706 156.214 597.705 Z"/>
<path fill="#be0027" fill-rule="evenodd" stroke="none" d="M 664.997 144.120 C 664.994 144.119 630.188 131.689 630.185 131.687 C 630.186 131.689 641.752 144.119 641.753 144.120 C 641.752 144.122 630.186 156.552 630.185 156.553 C 630.188 156.552 664.994 144.122 664.997 144.120 Z"/>
</g>
</g>
</svg>
