<?xml version="1.0" encoding="utf-8"?>
<!-- Generator: Moho 13.5.1 build 20210623 -->
<!DOCTYPE svg PUBLIC "-//W3C//DTD SVG 1.1//EN" "http://www.w3.org/Graphics/SVG/1.1/DTD/svg11.dtd">
<svg version="1.1" id="Frame_0" xmlns="http://www.w3.org/2000/svg" xmlns:xlink="http://www.w3.org/1999/xlink" width="720px" height="720px">
<g id="leg_crouch">
<g id="leg_crouch">
<linearGradient id="217DEAF3-DC06-4FF5-B2C0-6093B29B552B_0" x1="-2.28%" y1="83.77%" x2="144.94%" y2="-45.92%">
<stop offset="39.61%" style="stop-color:rgb(255,255,255);stop-opacity:1.00" />
<stop offset="100.00%" style="stop-color:rgb(0,0,0);stop-opacity:1.00" />
</linearGradient>
<path fill="url(#217DEAF3-DC06-4FF5-B2C0-6093B29B552B_0)" fill-rule="evenodd" stroke="#000000" stroke-width="4" stroke-linejoin="round" d="M 639.278 121.061 C 614.492 21.801 518.840 10.915 448.522 27.429 C 192.334 87.593 184.034 182.684 80.130 236.325 C 41.838 256.093 51.788 335.818 78.824 350.105 C 122.533 373.203 161.228 425.859 225.459 474.945 C 286.166 521.338 365.786 563.781 375.644 577.774 C 390.578 598.970 310.036 607.438 295.716 608.526 C 287.256 609.169 233.450 620.340 222.795 619.420 C 175.005 615.297 175.914 601.846 161.099 610.558 C 148.295 618.088 172.442 645.983 182.600 642.797 C 204.563 635.908 224.095 640.942 224.099 640.942 C 224.095 640.942 185.490 636.982 184.177 647.974 C 182.963 658.138 200.583 661.684 206.308 659.818 C 220.033 655.346 226.292 655.683 226.294 655.683 C 226.291 655.684 193.637 661.711 196.134 667.619 C 201.231 679.677 219.795 676.963 224.249 673.857 C 232.964 667.781 244.550 667.236 244.552 667.235 C 244.550 667.237 216.326 676.516 220.528 682.088 C 227.691 691.589 236.401 689.450 242.041 685.728 C 254.716 677.362 261.504 678.788 261.506 678.788 C 261.504 678.789 232.270 688.092 239.789 694.456 C 243.919 697.952 252.671 698.250 254.985 696.942 C 262.306 692.803 277.157 690.990 292.282 693.093 C 342.274 700.044 364.753 691.028 394.961 691.277 C 422.383 691.503 453.795 697.937 488.131 694.413 C 525.643 690.564 520.590 646.811 512.364 631.315 C 507.102 621.402 482.595 597.976 475.190 580.717 C 442.957 505.600 438.517 466.260 370.074 374.599 C 342.393 337.529 254.312 321.627 254.301 321.622 C 254.320 321.616 360.677 317.636 450.434 265.069 C 583.103 323.141 661.352 209.456 639.278 121.061 Z"/>
</g>
<g id="specs_2">
<path fill="#ff0000" fill-rule="evenodd" stroke="none" d="M 499.877 153.482 C 499.879 153.479 515.701 120.078 515.703 120.074 C 515.703 120.076 516.314 137.044 516.314 137.046 C 516.316 137.046 533.284 137.657 533.285 137.657 C 533.282 137.659 499.881 153.481 499.877 153.482 Z"/>
<path fill="#0000ff" fill-rule="evenodd" stroke="none" d="M 514.880 6.141 C 514.881 6.143 522.102 26.361 522.102 26.363 C 522.102 26.363 514.881 19.644 514.880 19.644 C 514.880 19.644 507.659 26.363 507.658 26.363 C 507.659 26.361 514.880 6.143 514.880 6.141 Z"/>
<path fill="#ffff00" fill-rule="evenodd" stroke="none" d="M 235.756 702.057 C 235.757 702.055 244.718 682.546 244.719 682.544 C 244.719 682.545 245.190 692.396 245.190 692.397 C 245.191 692.397 255.051 692.636 255.052 692.636 C 255.050 692.637 235.758 702.056 235.756 702.057 Z"/>
<path fill="#00ff00" fill-rule="evenodd" stroke="none" d="M 664.048 144.120 C 664.045 144.119 629.239 131.689 629.236 131.687 C 629.237 131.689 640.803 144.119 640.804 144.120 C 640.803 144.121 629.237 156.552 629.236 156.553 C 629.239 156.552 664.045 144.121 664.048 144.120 Z"/>
<path fill="#be0027" fill-rule="evenodd" stroke="none" d="M 597.737 280.664 C 597.736 280.661 588.267 244.935 588.266 244.932 C 588.266 244.934 584.572 261.506 584.572 261.507 C 584.570 261.507 567.775 259.016 567.773 259.015 C 567.776 259.017 597.734 280.662 597.737 280.664 Z"/>
<path fill="#ffff00" fill-rule="evenodd" stroke="none" d="M 496.096 702.057 C 496.095 702.055 487.135 682.546 487.134 682.544 C 487.134 682.545 486.662 692.396 486.662 692.397 C 486.661 692.397 476.802 692.636 476.801 692.636 C 476.803 692.637 496.094 702.056 496.096 702.057 Z"/>
</g>
</g>
</svg>
