<?xml version="1.0" encoding="utf-8"?>
<!-- Generator: Moho 13.5.1 build 20210623 -->
<!DOCTYPE svg PUBLIC "-//W3C//DTD SVG 1.1//EN" "http://www.w3.org/Graphics/SVG/1.1/DTD/svg11.dtd">
<svg version="1.1" id="Frame_0" xmlns="http://www.w3.org/2000/svg" xmlns:xlink="http://www.w3.org/1999/xlink" width="720px" height="720px">
<g id="leg_hoof">
<g id="leg_hoof">
<linearGradient id="4888DE4E-3CEC-45A9-B248-0F6A242AD72D_0" x1="50.32%" y1="54.28%" x2="66.22%" y2="-59.20%">
<stop offset="6.27%" style="stop-color:rgb(255,255,255);stop-opacity:1.00" />
<stop offset="100.00%" style="stop-color:rgb(0,0,0);stop-opacity:1.00" />
</linearGradient>
<path fill="url(#4888DE4E-3CEC-45A9-B248-0F6A242AD72D_0)" fill-rule="evenodd" stroke="#000000" stroke-width="4" stroke-linecap="round" stroke-linejoin="round" d="M 262.448 76.190 C 169.494 168.080 193.768 278.851 211.734 323.283 C 241.223 396.212 358.661 413.649 369.270 448.448 C 375.479 468.815 355.227 546.789 341.215 562.822 C 330.342 575.264 270.288 588.538 257.053 598.429 C 249.890 603.782 224.628 635.767 224.625 635.770 C 224.620 635.777 181.527 697.692 181.522 697.698 C 181.526 697.699 223.554 700.517 223.558 700.517 C 223.567 700.517 309.916 697.699 309.924 697.698 C 309.926 697.693 324.225 643.236 324.227 643.231 C 324.227 643.229 325.669 626.664 328.267 624.326 C 334.214 618.973 366.985 619.613 372.507 625.405 C 401.658 655.982 405.975 530.160 416.746 486.213 C 422.126 464.260 437.431 415.166 466.380 398.813 C 482.836 389.518 404.583 391.842 393.008 324.361 C 373.609 211.278 536.845 251.600 540.832 109.639 C 541.429 88.374 501.552 39.689 453.433 30.871 C 395.511 20.256 311.094 28.100 262.448 76.190 Z"/>
<path fill="none" stroke="#000000" stroke-width="4" stroke-linecap="round" stroke-linejoin="round" d="M 255.128 640.832 C 244.605 660.727 234.081 680.622 223.558 700.517 M 224.625 635.770 C 234.792 637.458 255.125 640.831 255.128 640.832 C 255.135 640.832 301.194 642.431 324.227 643.231 "/>
</g>
<g id="specs">
<path fill="#0000ff" fill-rule="evenodd" stroke="none" d="M 393.066 7.569 C 393.067 7.572 403.644 37.188 403.645 37.191 C 403.644 37.190 393.067 27.349 393.066 27.348 C 393.065 27.349 382.488 37.190 382.487 37.191 C 382.488 37.188 393.065 7.572 393.066 7.569 Z"/>
<path fill="#00ff00" fill-rule="evenodd" stroke="none" d="M 557.987 138.205 C 557.984 138.206 527.825 149.968 527.822 149.969 C 527.823 149.968 538.035 139.957 538.036 139.956 C 538.035 139.955 527.395 128.816 527.394 128.815 C 527.397 128.816 557.984 138.204 557.987 138.205 Z"/>
<path fill="#ff0000" fill-rule="evenodd" stroke="none" d="M 357.369 158.426 C 357.372 158.420 381.982 104.841 381.984 104.835 C 381.984 104.838 383.280 131.894 383.280 131.897 C 383.283 131.897 410.361 132.553 410.363 132.553 C 410.358 132.556 357.375 158.423 357.369 158.426 Z"/>
<path fill="#00ff00" fill-rule="evenodd" stroke="none" d="M 197.144 138.205 C 197.147 138.206 227.305 149.968 227.308 149.969 C 227.307 149.968 217.096 139.957 217.095 139.956 C 217.096 139.955 227.736 128.816 227.737 128.815 C 227.734 128.816 197.147 138.204 197.144 138.205 Z"/>
</g>
</g>
</svg>
