<?xml version="1.0" encoding="utf-8"?>
<!-- Generator: Moho 13.0.3 build 635 -->
<!DOCTYPE svg PUBLIC "-//W3C//DTD SVG 1.1//EN" "http://www.w3.org/Graphics/SVG/1.1/DTD/svg11.dtd">
<svg version="1.1" id="Frame_0" xmlns="http://www.w3.org/2000/svg" xmlns:xlink="http://www.w3.org/1999/xlink" width="720px" height="720px">
<g id="leg_horse_hind">
<g id="leg_horse_hind">
<path fill="#000000" fill-rule="evenodd" stroke="#ffffff" stroke-width="4" stroke-linecap="round" stroke-linejoin="round" d="M 474.056 603.992 C 505.337 608.805 536.618 613.617 567.899 618.430 C 567.898 618.433 559.237 653.076 559.237 653.079 C 559.226 653.079 450.967 651.636 450.956 651.636 C 450.958 651.631 474.054 603.997 474.056 603.992 Z"/>
<path fill="none" stroke="#ffffff" stroke-width="1" stroke-linecap="butt" stroke-linejoin="round" d="M 474.056 603.992 C 505.337 608.805 536.618 613.617 567.899 618.430 "/>
<path fill="#ffffff" fill-rule="evenodd" stroke="none" d="M 335.457 66.921 C 255.340 -12.009 81.130 25.020 116.008 215.626 C 136.213 326.048 187.895 348.830 209.851 364.332 C 321.112 442.888 465.617 405.334 485.605 432.187 C 541.101 506.742 526.987 563.078 518.811 567.899 C 498.139 580.091 474.060 603.989 474.056 603.992 C 505.337 608.805 536.618 613.617 567.899 618.430 C 567.898 618.427 555.489 600.371 563.567 590.999 C 575.393 577.277 605.654 617.370 603.992 595.330 C 597.200 505.246 554.827 424.582 541.911 370.106 C 536.533 347.420 454.342 389.605 404.756 331.126 C 371.431 291.823 426.514 156.629 335.457 66.921 Z"/>
<path fill="none" stroke="#000000" stroke-width="4" stroke-linecap="round" stroke-linejoin="round" d="M 308.025 335.457 C 357.201 388.316 431.242 389.475 491.380 387.432 M 325.350 105.902 C 357.915 188.689 370.115 303.162 283.482 345.562 M 518.811 414.862 C 552.143 460.440 561.791 499.821 562.124 570.786 M 508.705 384.544 C 510.631 403.794 523.624 406.200 539.024 403.312 M 335.457 66.921 C 255.340 -12.009 81.130 25.020 116.008 215.626 C 136.213 326.048 187.895 348.830 209.851 364.332 C 321.112 442.888 465.617 405.334 485.605 432.187 C 541.101 506.742 526.987 563.078 518.811 567.899 C 498.139 580.091 474.060 603.989 474.056 603.992 C 505.337 608.805 536.618 613.617 567.899 618.430 C 567.898 618.427 555.489 600.371 563.567 590.999 C 575.393 577.277 605.654 617.370 603.992 595.330 C 597.200 505.246 554.827 424.582 541.911 370.106 C 536.533 347.420 454.342 389.605 404.756 331.126 C 371.431 291.823 426.514 156.629 335.457 66.921 "/>
</g>
<g id="specs_2">
<path fill="#ff00ff" fill-rule="evenodd" stroke="none" d="M 156.529 304.145 C 156.549 304.145 354.672 304.145 354.692 304.145 C 354.692 304.125 354.692 106.002 354.692 105.983 C 354.672 105.983 156.549 105.983 156.529 105.983 C 156.529 106.002 156.529 304.125 156.529 304.145 Z"/>
<path fill="#ff0000" fill-rule="evenodd" stroke="none" d="M 253.619 146.651 C 253.615 146.649 220.255 130.847 220.252 130.845 C 220.254 130.845 237.201 130.234 237.202 130.234 C 237.202 130.233 237.813 113.286 237.813 113.284 C 237.815 113.287 253.617 146.647 253.619 146.651 Z"/>
<path fill="#0000ff" fill-rule="evenodd" stroke="none" d="M 233.634 9.407 C 233.634 9.409 240.846 29.602 240.847 29.604 C 240.846 29.603 233.634 22.893 233.634 22.893 C 233.633 22.893 226.421 29.603 226.421 29.604 C 226.421 29.602 233.633 9.409 233.634 9.407 Z"/>
<path fill="#00ff00" fill-rule="evenodd" stroke="none" d="M 92.444 201.208 C 92.447 201.207 120.146 191.155 120.149 191.154 C 120.148 191.155 110.977 201.113 110.977 201.114 C 110.977 201.115 120.248 210.978 120.249 210.979 C 120.246 210.978 92.447 201.209 92.444 201.208 Z"/>
<path fill="#ffff00" fill-rule="evenodd" stroke="none" d="M 192.725 369.144 C 192.726 369.142 201.675 349.657 201.676 349.655 C 201.676 349.656 202.147 359.495 202.147 359.496 C 202.148 359.496 211.995 359.735 211.996 359.735 C 211.994 359.736 192.727 369.143 192.725 369.144 Z"/>
<path fill="#ffff00" fill-rule="evenodd" stroke="none" d="M 611.886 609.551 C 611.885 609.549 602.547 590.247 602.546 590.245 C 602.546 590.246 602.272 600.093 602.272 600.094 C 602.271 600.094 592.430 600.530 592.429 600.530 C 592.431 600.531 611.884 609.550 611.886 609.551 Z"/>
<path fill="#00ff00" fill-rule="evenodd" stroke="none" d="M 412.541 201.208 C 412.538 201.207 384.839 191.155 384.836 191.154 C 384.837 191.155 394.008 201.113 394.009 201.114 C 394.008 201.115 384.737 210.978 384.737 210.979 C 384.739 210.978 412.538 201.209 412.541 201.208 Z"/>
<path fill="#be0027" fill-rule="evenodd" stroke="none" d="M 383.978 98.597 C 383.975 98.596 349.212 86.181 349.208 86.180 C 349.209 86.181 360.761 98.596 360.762 98.597 C 360.761 98.598 349.209 111.013 349.208 111.015 C 349.212 111.013 383.975 98.598 383.978 98.597 Z"/>
</g>
</g>
</svg>
