<?xml version="1.0" encoding="utf-8"?>
<!-- Generator: Moho 13.0.3 build 635 -->
<!DOCTYPE svg PUBLIC "-//W3C//DTD SVG 1.1//EN" "http://www.w3.org/Graphics/SVG/1.1/DTD/svg11.dtd">
<svg version="1.1" id="Frame_0" xmlns="http://www.w3.org/2000/svg" xmlns:xlink="http://www.w3.org/1999/xlink" width="720px" height="720px">
<g id="leg_horse_front">
<g id="leg_horse_fore">
<path fill="#000000" fill-rule="evenodd" stroke="#ffffff" stroke-width="4" stroke-linecap="round" stroke-linejoin="round" d="M 205.121 425.575 C 169.275 436.329 133.428 447.083 97.582 457.837 C 92.428 479.309 129.841 565.364 129.844 565.375 C 129.854 565.366 222.318 475.052 222.327 475.043 C 222.325 475.038 205.123 425.580 205.121 425.575 Z"/>
<path fill="none" stroke="#ffffff" stroke-width="1" stroke-linecap="butt" stroke-linejoin="round" d="M 205.121 425.575 C 169.275 436.329 133.428 447.083 97.582 457.837 "/>
<path fill="#ffffff" fill-rule="evenodd" stroke="none" d="M 566.071 222.109 C 620.132 215.641 652.092 262.508 644.395 300.830 C 635.230 346.462 587.105 353.533 563.695 345.217 C 545.304 338.683 517.011 342.084 457.552 316.469 C 347.861 269.212 357.782 255.438 301.906 240.609 C 262.562 230.167 217.284 320.255 205.121 361.053 C 200.551 376.379 173.162 354.071 168.558 391.163 C 166.071 411.200 205.117 425.572 205.121 425.575 C 169.275 436.329 133.428 447.083 97.582 457.837 C 114.080 389.104 80.652 376.987 106.185 343.846 C 185.127 241.385 237.878 164.893 289.001 152.427 C 339.823 140.035 323.489 171.382 416.949 181.392 C 495.774 189.835 543.838 224.769 566.071 222.109 Z"/>
<path fill="none" stroke="#000000" stroke-width="4" stroke-linecap="round" stroke-linejoin="round" d="M 566.071 222.109 C 620.132 215.641 652.092 262.508 644.395 300.830 C 635.230 346.462 587.105 353.533 563.695 345.217 C 545.304 338.683 517.011 342.084 457.552 316.469 C 347.861 269.212 357.782 255.438 301.906 240.609 C 262.562 230.167 217.284 320.255 205.121 361.053 C 200.551 376.379 173.162 354.071 168.558 391.163 C 166.071 411.200 205.117 425.572 205.121 425.575 C 169.275 436.329 133.428 447.083 97.582 457.837 C 114.080 389.104 80.652 376.987 106.185 343.846 C 185.127 241.385 237.878 164.893 289.001 152.427 C 339.823 140.035 323.489 171.382 416.949 181.392 C 495.774 189.835 543.838 224.769 566.071 222.109 M 166.105 355.788 C 190.894 285.837 250.214 227.938 288.320 199.464 M 558.810 326.489 C 533.080 303.863 529.966 278.222 549.244 242.759 M 312.757 196.048 C 397.687 231.327 431.075 291.763 537.075 290.001 M 328.753 175.200 C 316.054 195.256 299.374 212.470 264.229 189.218 "/>
</g>
<g id="specs_2">
<path fill="#ff0000" fill-rule="evenodd" stroke="none" d="M 564.580 284.898 C 564.584 284.897 599.347 272.482 599.350 272.481 C 599.349 272.482 587.798 284.897 587.796 284.898 C 587.798 284.900 599.349 297.314 599.350 297.316 C 599.347 297.314 564.584 284.900 564.580 284.898 Z"/>
<path fill="#0000ff" fill-rule="evenodd" stroke="none" d="M 303.959 134.674 C 303.960 134.676 311.172 154.869 311.172 154.871 C 311.172 154.870 303.960 148.161 303.959 148.160 C 303.959 148.161 296.747 154.870 296.746 154.871 C 296.747 154.869 303.959 134.676 303.959 134.674 Z"/>
<path fill="#00ff00" fill-rule="evenodd" stroke="none" d="M 79.258 361.002 C 79.260 361.002 99.417 353.687 99.419 353.687 C 99.418 353.687 92.745 360.933 92.744 360.934 C 92.745 360.935 99.491 368.112 99.491 368.113 C 99.489 368.112 79.260 361.003 79.258 361.002 Z"/>
<path fill="#ffff00" fill-rule="evenodd" stroke="none" d="M 188.833 527.138 C 188.832 527.136 179.494 507.834 179.493 507.832 C 179.493 507.833 179.220 517.680 179.220 517.681 C 179.219 517.681 169.377 518.117 169.376 518.117 C 169.378 518.118 188.831 527.137 188.833 527.138 Z"/>
<path fill="#be0027" fill-rule="evenodd" stroke="none" d="M 668.577 296.388 C 668.574 296.387 633.811 283.972 633.807 283.970 C 633.808 283.972 645.360 296.387 645.361 296.388 C 645.360 296.389 633.808 308.804 633.807 308.805 C 633.811 308.804 668.574 296.389 668.577 296.388 Z"/>
</g>
</g>
</svg>
