<?xml version="1.0" encoding="utf-8"?>
<!-- Generator: Moho 13.5 build 20210422 -->
<!DOCTYPE svg PUBLIC "-//W3C//DTD SVG 1.1//EN" "http://www.w3.org/Graphics/SVG/1.1/DTD/svg11.dtd">
<svg version="1.1" id="Frame_0" xmlns="http://www.w3.org/2000/svg" xmlns:xlink="http://www.w3.org/1999/xlink" width="720px" height="720px">
<g id="lightning">
<g id="lightning">
<path fill="#ffffff" fill-rule="evenodd" stroke="#000000" stroke-width="4" stroke-linecap="round" stroke-linejoin="round" d="M 367.454 43.558 C 367.437 43.593 192.844 396.860 192.826 396.895 C 192.838 396.895 313.552 396.895 313.564 396.895 C 313.549 396.927 164.979 712.637 164.964 712.668 C 164.996 712.628 477.610 313.350 477.641 313.310 C 477.628 313.309 344.535 307.119 344.521 307.118 C 344.542 307.092 555.011 43.996 555.036 43.973 C 555.018 43.973 367.473 43.558 367.454 43.558 Z"/>
</g>
<g id="specs">
<path fill="#0000ff" fill-rule="evenodd" stroke="none" d="M 455.392 26.742 C 455.393 26.744 462.614 46.962 462.615 46.964 C 462.614 46.964 455.393 40.245 455.392 40.245 C 455.392 40.245 448.171 46.964 448.170 46.964 C 448.171 46.962 455.392 26.744 455.392 26.742 Z"/>
<path fill="#00ff00" fill-rule="evenodd" stroke="none" d="M 222.997 305.693 C 222.999 305.693 244.249 308.755 244.251 308.756 C 244.250 308.756 234.936 312.001 234.935 312.002 C 234.935 312.003 237.501 321.525 237.502 321.526 C 237.500 321.525 222.998 305.694 222.997 305.693 Z"/>
<path fill="#00ff00" fill-rule="evenodd" stroke="none" d="M 477.971 312.986 C 477.969 312.986 456.501 313.233 456.499 313.233 C 456.500 313.233 465.307 317.673 465.308 317.673 C 465.308 317.674 461.513 326.778 461.513 326.779 C 461.515 326.778 477.969 312.988 477.971 312.986 Z"/>
<path fill="#00ffff" fill-rule="evenodd" stroke="none" d="M 552.829 43.778 C 552.828 43.780 541.101 61.763 541.100 61.765 C 541.100 61.764 542.079 51.950 542.079 51.949 C 542.078 51.949 532.361 50.265 532.360 50.265 C 532.362 50.264 552.827 43.779 552.829 43.778 Z"/>
<path fill="#00ffff" fill-rule="evenodd" stroke="none" d="M 360.137 35.298 C 360.137 35.300 368.638 55.015 368.639 55.017 C 368.639 55.016 369.341 45.178 369.341 45.177 C 369.342 45.177 379.205 45.169 379.206 45.169 C 379.204 45.168 360.139 35.299 360.137 35.298 Z"/>
<path fill="#ff0000" fill-rule="evenodd" stroke="none" d="M 455.568 41.576 C 455.570 41.573 469.251 3.264 469.253 3.260 C 469.251 3.262 455.570 15.992 455.568 15.993 C 455.567 15.992 441.886 3.262 441.885 3.260 C 441.886 3.264 455.567 41.573 455.568 41.576 Z"/>
</g>
</g>
</svg>
