<?xml version="1.0" encoding="utf-8"?>
<!-- Generator: Moho 13.5 build 20210422 -->
<!DOCTYPE svg PUBLIC "-//W3C//DTD SVG 1.1//EN" "http://www.w3.org/Graphics/SVG/1.1/DTD/svg11.dtd">
<svg version="1.1" id="Frame_0" xmlns="http://www.w3.org/2000/svg" xmlns:xlink="http://www.w3.org/1999/xlink" width="720px" height="720px">
<g id="lion">
<g id="lion">
<path id="S22" fill="#ffffff" fill-rule="evenodd" stroke="#000000" stroke-width="2" stroke-linecap="round" stroke-linejoin="round" d="M 418.455 510.423 C 410.965 567.298 442.936 585.834 442.938 585.841 C 442.930 585.842 388.676 577.592 365.303 590.693 C 353.053 597.560 340.075 622.715 340.072 622.718 C 340.095 622.718 568.751 623.689 568.774 623.689 C 568.773 623.663 654.155 486.415 562.301 369.381 C 560.100 372.411 430.737 417.161 418.455 510.423 Z"/>
<path id="S20" fill="#000000" fill-rule="evenodd" stroke="none" d="M 244.273 360.980 C 244.271 360.977 222.010 332.650 222.008 332.648 C 222.011 332.648 258.010 334.085 258.014 334.085 C 258.012 334.088 244.275 360.977 244.273 360.980 M 213.814 389.704 C 213.813 389.700 204.291 354.955 204.290 354.951 C 204.293 354.953 236.912 370.249 236.915 370.250 C 236.913 370.252 213.816 389.702 213.814 389.704 M 177.262 406.427 C 177.262 406.424 178.774 370.429 178.774 370.425 C 178.777 370.428 205.187 394.932 205.190 394.934 C 205.187 394.935 177.264 406.426 177.262 406.427 M 138.169 416.667 C 138.170 416.663 144.748 381.241 144.749 381.238 C 144.751 381.240 167.438 409.228 167.440 409.231 C 167.437 409.231 138.172 416.666 138.169 416.667 M 224.068 205.615 C 224.067 205.619 209.465 238.554 209.463 238.557 C 209.467 238.556 244.003 228.301 244.007 228.299 C 244.005 228.297 224.070 205.618 224.068 205.615 M 187.474 185.275 C 187.474 185.279 186.800 221.300 186.800 221.303 C 186.802 221.301 214.651 198.445 214.653 198.442 C 214.651 198.441 187.477 185.276 187.474 185.275 M 147.929 178.066 C 147.930 178.069 158.258 212.585 158.259 212.588 C 158.261 212.585 177.826 182.333 177.828 182.330 C 177.825 182.330 147.932 178.066 147.929 178.066 M 107.519 177.768 C 107.521 177.771 122.618 210.482 122.619 210.485 C 122.621 210.482 137.718 177.771 137.720 177.768 C 137.717 177.768 107.522 177.768 107.519 177.768 Z"/>
<path id="S19" fill="#ffffff" fill-rule="evenodd" stroke="#000000" stroke-width="2" stroke-linecap="round" stroke-linejoin="round" d="M 242.062 419.844 C 266.795 518.800 235.269 589.706 235.269 589.723 C 235.265 589.723 209.344 581.628 198.392 587.783 C 186.677 594.366 179.956 622.714 179.954 622.718 C 179.962 622.718 265.344 621.748 265.352 621.748 C 265.357 621.734 304.551 555.248 311.933 477.771 C 313.884 479.140 275.086 431.601 242.062 419.844 Z"/>
<path id="S1" fill="#ffffff" fill-rule="evenodd" stroke="#000000" stroke-width="2" stroke-linecap="round" stroke-linejoin="round" d="M 600.088 369.381 C 527.267 276.598 492.553 348.004 364.273 183.058 C 351.543 247.006 339.587 359.662 267.229 419.844 C 289.638 537.208 260.437 589.706 260.436 589.723 C 260.432 589.723 234.512 581.628 223.560 587.783 C 211.844 594.366 205.123 622.714 205.121 622.718 C 205.130 622.718 290.511 621.748 290.520 621.748 C 290.524 621.734 337.938 555.595 337.100 477.771 C 389.746 497.443 412.447 471.256 456.242 510.423 C 444.863 568.422 480.722 585.834 480.725 585.841 C 480.717 585.842 426.463 577.592 403.090 590.693 C 390.840 597.560 377.862 622.715 377.859 622.718 C 377.882 622.718 606.538 623.689 606.560 623.689 C 606.560 623.663 691.941 486.415 600.088 369.381 Z"/>
<path id="S3" fill="#000000" fill-rule="evenodd" stroke="#ffffff" stroke-width="2" stroke-linecap="round" stroke-linejoin="round" d="M 273.249 533.785 C 248.321 515.832 224.631 490.345 235.890 444.798 C 249.018 393.897 325.803 365.071 329.478 275.265 C 333.116 186.369 252.185 139.352 220.117 133.870 C 307.492 31.510 416.062 184.774 477.762 153.981 C 477.921 173.606 457.758 189.139 433.038 190.597 C 472.188 198.672 466.127 242.059 505.039 242.468 C 491.593 256.732 486.383 261.445 458.738 252.347 C 499.423 300.524 445.611 321.897 465.625 366.958 C 445.376 360.237 437.949 355.282 435.477 327.339 C 438.256 400.659 386.907 406.129 392.442 453.113 C 378.484 439.389 363.379 428.345 371.439 399.079 C 325.019 486.878 275.177 455.875 273.249 533.785 Z"/>
<path id="S5" fill="#ffffff" fill-rule="evenodd" stroke="#000000" stroke-width="2" stroke-linecap="round" stroke-linejoin="round" d="M 621.840 593.404 C 593.268 600.386 510.951 602.983 510.809 538.237 C 510.710 493.092 565.588 476.165 540.662 426.006 C 535.644 432.012 527.992 433.377 520.576 434.400 C 546.983 471.374 487.609 485.637 488.488 543.089 C 489.250 592.885 511.191 625.911 607.318 623.689 C 613.158 613.117 616.102 606.065 621.840 593.404 Z"/>
<path id="S6" fill="#ffffff" fill-rule="evenodd" stroke="#000000" stroke-width="2" stroke-linecap="round" stroke-linejoin="round" d="M 337.210 96.311 C 299.312 96.709 273.635 130.064 273.629 130.067 C 273.633 130.071 295.948 139.077 313.597 162.733 C 325.962 151.949 358.084 142.058 337.210 96.311 Z"/>
<path id="S9" fill="none" stroke="#000000" stroke-width="2" stroke-linecap="round" stroke-linejoin="round" d="M 298.980 130.502 C 307.574 115.283 318.854 109.195 329.597 105.793 "/>
<path fill="none" stroke="#ffffff" stroke-width="1" stroke-linecap="butt" stroke-linejoin="round" d="M 235.890 444.798 C 249.018 393.897 325.803 365.071 329.478 275.265 "/>
<path fill="none" stroke="#ffffff" stroke-width="1" stroke-linecap="butt" stroke-linejoin="round" d="M 329.478 275.265 C 333.116 186.369 252.185 139.352 220.117 133.870 "/>
<path id="S2" fill="#ffffff" fill-rule="evenodd" stroke="#000000" stroke-width="2" stroke-linecap="round" stroke-linejoin="round" d="M 220.117 133.870 C 190.411 128.791 128.551 139.840 128.542 139.841 C 119.255 141.557 98.163 145.453 98.160 145.454 C 98.160 145.456 101.266 171.534 101.267 171.537 C 101.267 171.539 103.622 191.310 103.622 191.312 C 103.637 191.321 229.092 161.574 252.153 281.893 C 272.854 389.903 131.758 408.915 131.746 408.927 C 131.746 408.931 137.268 445.377 137.269 445.380 C 137.279 445.380 173.469 443.631 235.890 444.798 C 249.018 393.897 325.803 365.071 329.478 275.265 C 333.116 186.369 252.185 139.352 220.117 133.870 Z"/>
<path id="S7" fill="#000000" fill-rule="evenodd" stroke="none" d="M 227.898 149.788 C 244.821 153.762 255.011 173.740 255.014 173.743 C 255.011 173.744 236.994 187.099 220.070 183.126 C 203.147 179.152 192.956 159.174 192.954 159.171 C 192.957 159.170 210.974 145.815 227.898 149.788 Z"/>
<path id="S17" fill="#ffffff" fill-rule="evenodd" stroke="none" d="M 223.603 155.117 C 229.698 155.117 234.614 160.033 234.614 166.128 C 234.614 172.222 229.698 177.139 223.603 177.139 C 217.509 177.139 212.593 172.222 212.592 166.128 C 212.592 160.033 217.509 155.117 223.603 155.117 Z"/>
<path id="S18" fill="none" stroke="#000000" stroke-width="2" stroke-linecap="round" stroke-linejoin="round" d="M 101.267 171.537 C 121.639 164.194 127.508 154.166 128.542 139.841 "/>
<path id="S4" fill="#000000" fill-rule="evenodd" stroke="#ffffff" stroke-width="2" stroke-linecap="round" stroke-linejoin="round" d="M 506.690 433.342 C 481.889 419.097 502.605 403.339 474.902 384.908 C 486.090 380.915 501.244 379.431 506.368 401.876 C 510.696 377.495 486.194 376.464 497.222 345.121 C 504.218 368.674 527.032 354.166 528.012 394.612 C 534.040 382.000 519.263 374.289 543.803 357.736 C 539.895 395.634 561.430 389.722 547.244 423.107 C 543.240 432.533 517.901 439.780 506.690 433.342 Z"/>
</g>
<g id="specs_2">
<path fill="#ff0000" fill-rule="evenodd" stroke="none" d="M 360.000 611.929 C 360.002 611.933 375.095 654.196 375.097 654.201 C 375.095 654.199 360.002 640.155 360.000 640.154 C 359.999 640.155 344.905 654.199 344.903 654.201 C 344.905 654.196 359.999 611.933 360.000 611.929 Z"/>
<path fill="#0000ff" fill-rule="evenodd" stroke="none" d="M 289.256 64.164 C 289.257 64.167 298.025 88.717 298.025 88.719 C 298.025 88.719 289.257 80.561 289.256 80.560 C 289.255 80.561 280.488 88.719 280.487 88.719 C 280.488 88.717 289.255 64.167 289.256 64.164 Z"/>
<path fill="#00ff00" fill-rule="evenodd" stroke="none" d="M 514.384 291.038 C 514.383 291.041 510.706 316.849 510.705 316.852 C 510.705 316.851 506.747 305.548 506.746 305.547 C 506.745 305.547 495.187 308.680 495.185 308.681 C 495.187 308.679 514.382 291.040 514.384 291.038 Z"/>
<path fill="#ff00ff" fill-rule="evenodd" stroke="none" d="M 30.269 381.982 C 30.286 381.982 205.264 381.974 205.281 381.974 C 205.281 381.956 205.273 209.033 205.273 209.016 C 205.256 209.016 30.278 209.024 30.261 209.024 C 30.261 209.041 30.269 381.965 30.269 381.982 Z"/>
</g>
</g>
</svg>
