<?xml version="1.0" encoding="utf-8"?>
<!-- Generator: Moho 13.5 build 20210422 -->
<!DOCTYPE svg PUBLIC "-//W3C//DTD SVG 1.1//EN" "http://www.w3.org/Graphics/SVG/1.1/DTD/svg11.dtd">
<svg version="1.1" id="Frame_0" xmlns="http://www.w3.org/2000/svg" xmlns:xlink="http://www.w3.org/1999/xlink" width="720px" height="720px">
<g id="lion_tail">
<g id="lion_tail">
<path fill="#ffffff" fill-rule="evenodd" stroke="#000000" stroke-width="4" stroke-linejoin="round" d="M 99.676 139.726 C 299.925 99.676 339.975 177.840 339.975 239.851 C 339.975 343.202 219.826 377.981 219.826 480.149 C 219.826 605.447 319.950 680.399 440.100 680.399 C 580.274 680.399 660.374 500.174 600.299 400.050 C 596.122 393.088 666.849 355.975 625.762 282.050 C 604.416 243.645 595.113 211.525 595.110 211.518 C 595.109 211.526 570.276 268.418 587.821 295.400 C 592.192 302.121 579.665 323.496 579.664 323.498 C 579.663 323.490 553.135 291.184 566.645 240.208 C 576.939 201.370 510.164 169.049 510.159 169.042 C 510.160 169.050 546.195 210.187 524.509 249.845 C 507.697 280.590 521.743 328.640 521.743 328.647 C 521.741 328.644 503.482 322.533 501.921 297.273 C 499.670 260.852 463.825 237.266 463.821 237.260 C 463.822 237.268 480.874 275.063 465.318 320.944 C 439.146 398.134 553.726 410.849 560.249 420.075 C 605.192 483.633 548.453 620.324 440.100 620.324 C 339.975 620.324 279.805 549.546 279.900 480.149 C 280.015 396.779 400.050 357.110 400.050 239.851 C 400.050 142.134 339.975 39.601 99.676 79.651 C 84.088 82.249 89.783 141.705 99.676 139.726 Z"/>
<path fill="none" stroke="#000000" stroke-width="4" stroke-linejoin="round" d="M 535.901 385.281 C 535.896 385.279 503.168 381.239 486.743 360.810 C 475.926 347.357 476.694 326.076 476.693 326.073 M 534.614 363.400 C 534.611 363.398 512.882 359.232 501.162 345.393 C 486.966 328.632 490.758 323.256 486.990 301.617 C 484.564 287.682 485.703 272.016 485.703 272.013 M 546.198 349.241 C 546.197 349.236 536.807 324.367 533.559 300.594 C 529.036 267.490 541.097 270.371 546.198 242.409 C 548.523 229.667 543.624 207.660 543.624 207.656 M 569.367 342.806 C 569.365 342.803 555.523 329.231 550.151 313.306 C 544.034 295.170 547.486 273.304 547.485 273.300 M 587.387 350.529 C 587.389 350.525 604.216 336.432 607.820 318.769 C 613.254 292.144 599.803 289.962 596.397 263.003 C 595.162 253.231 595.110 242.411 595.110 242.409 M 596.396 376.271 C 596.398 376.270 608.655 369.685 615.181 359.644 C 625.319 344.049 626.725 340.798 626.001 322.212 C 625.495 309.202 616.992 296.471 616.991 296.469 "/>
</g>
<g id="specs_2">
<path fill="#ff0000" fill-rule="evenodd" stroke="none" d="M 130.545 108.624 C 130.542 108.626 95.736 121.056 95.733 121.057 C 95.734 121.056 107.300 108.626 107.301 108.624 C 107.300 108.623 95.734 96.193 95.733 96.191 C 95.736 96.193 130.542 108.623 130.545 108.624 Z"/>
<path fill="#be0027" fill-rule="evenodd" stroke="none" d="M 72.564 108.427 C 72.567 108.428 107.373 120.859 107.377 120.860 C 107.376 120.859 95.810 108.428 95.809 108.427 C 95.810 108.426 107.376 95.995 107.377 95.994 C 107.373 95.995 72.567 108.426 72.564 108.427 Z"/>
</g>
</g>
</svg>
