<?xml version="1.0" encoding="utf-8"?>
<!-- Generator: Moho 12.5 build 22414 -->
<!DOCTYPE svg PUBLIC "-//W3C//DTD SVG 1.1//EN" "http://www.w3.org/Graphics/SVG/1.1/DTD/svg11.dtd">
<svg version="1.1" id="Frame_0" xmlns="http://www.w3.org/2000/svg" xmlns:xlink="http://www.w3.org/1999/xlink" width="720px" height="720px">
<g id="lion_tail">
<g id="lion_tail">
<path fill="#ffffff" fill-rule="evenodd" stroke="#000000" stroke-width="4" stroke-linejoin="round" d="M 99.676 139.726 C 299.925 99.676 339.975 177.840 339.975 239.851 C 339.975 343.202 219.826 377.981 219.826 480.149 C 219.826 605.447 319.950 680.399 440.100 680.399 C 580.274 680.399 660.374 500.174 600.299 400.050 C 596.122 393.088 666.849 355.975 625.762 282.050 C 604.416 243.645 595.113 211.525 595.110 211.518 C 595.109 211.526 570.276 268.418 587.821 295.400 C 592.192 302.121 579.665 323.496 579.664 323.498 C 579.663 323.490 553.135 291.184 566.645 240.208 C 576.939 201.370 510.164 169.049 510.159 169.042 C 510.160 169.050 546.195 210.187 524.509 249.845 C 507.697 280.590 521.743 328.640 521.743 328.647 C 521.741 328.644 503.482 322.533 501.921 297.273 C 499.670 260.852 463.825 237.266 463.821 237.260 C 463.822 237.268 480.874 275.063 465.318 320.944 C 439.146 398.134 553.726 410.849 560.249 420.075 C 605.192 483.633 548.453 620.324 440.100 620.324 C 339.975 620.324 279.805 549.546 279.900 480.149 C 280.015 396.779 400.050 357.111 400.050 239.851 C 400.050 142.134 339.975 39.601 99.676 79.651 C 84.088 82.249 89.783 141.705 99.676 139.726 Z"/>
<path fill="none" stroke="#000000" stroke-width="4" stroke-linejoin="round" d="M 535.901 385.281 C 535.896 385.279 503.168 381.239 486.743 360.810 C 475.926 347.357 476.694 326.076 476.693 326.073 M 534.614 363.400 C 534.611 363.398 512.882 359.232 501.162 345.393 C 486.966 328.632 490.758 323.256 486.990 301.617 C 484.564 287.682 485.703 272.016 485.703 272.013 M 546.198 349.241 C 546.197 349.236 536.807 324.367 533.559 300.594 C 529.036 267.490 541.097 270.371 546.198 242.409 C 548.523 229.667 543.624 207.660 543.624 207.656 M 569.367 342.806 C 569.365 342.803 555.523 329.231 550.151 313.306 C 544.034 295.170 547.486 273.304 547.485 273.300 M 587.387 350.529 C 587.389 350.525 604.216 336.432 607.820 318.769 C 613.254 292.144 599.803 289.962 596.397 263.003 C 595.162 253.231 595.110 242.411 595.110 242.409 M 596.396 376.271 C 596.398 376.270 608.655 369.685 615.181 359.644 C 625.319 344.049 626.725 340.798 626.001 322.212 C 625.495 309.202 616.992 296.471 616.991 296.469 "/>
</g>
<g id="specs_2">
<path fill="#ff0000" fill-rule="evenodd" stroke="none" d="M 134.137 108.624 C 134.134 108.626 99.328 121.056 99.324 121.057 C 99.326 121.056 110.892 108.626 110.893 108.624 C 110.892 108.623 99.326 96.193 99.324 96.191 C 99.328 96.193 134.134 108.623 134.137 108.624 Z"/>
<path fill="#0000ff" fill-rule="evenodd" stroke="none" d="M 541.885 185.604 C 541.885 185.606 549.106 205.824 549.107 205.826 C 549.106 205.825 541.885 199.107 541.885 199.106 C 541.884 199.107 534.663 205.825 534.663 205.826 C 534.663 205.824 541.884 185.606 541.885 185.604 Z"/>
<path fill="#00ff00" fill-rule="evenodd" stroke="none" d="M 208.768 488.443 C 208.771 488.442 231.147 480.322 231.149 480.322 C 231.149 480.322 223.740 488.366 223.739 488.367 C 223.740 488.368 231.229 496.336 231.230 496.337 C 231.228 496.336 208.771 488.443 208.768 488.443 Z"/>
<path fill="#ffff00" fill-rule="evenodd" stroke="none" d="M 283.197 641.990 C 283.198 641.988 293.867 618.760 293.868 618.758 C 293.868 618.759 294.430 630.488 294.430 630.489 C 294.431 630.489 306.170 630.774 306.171 630.774 C 306.169 630.775 283.200 641.989 283.197 641.990 Z"/>
<path fill="#ffff00" fill-rule="evenodd" stroke="none" d="M 562.861 641.706 C 562.860 641.703 551.728 618.694 551.727 618.691 C 551.727 618.693 551.400 630.431 551.400 630.432 C 551.399 630.432 539.668 630.952 539.667 630.952 C 539.669 630.953 562.859 641.705 562.861 641.706 Z"/>
<path fill="#00ff00" fill-rule="evenodd" stroke="none" d="M 633.760 488.443 C 633.757 488.442 611.381 480.322 611.379 480.322 C 611.379 480.322 618.788 488.366 618.789 488.367 C 618.788 488.368 611.299 496.336 611.298 496.337 C 611.300 496.336 633.757 488.443 633.760 488.443 Z"/>
<path fill="#00ffff" fill-rule="evenodd" stroke="none" d="M 595.948 212.045 C 595.949 212.047 602.475 232.499 602.475 232.501 C 602.475 232.501 595.487 225.540 595.487 225.539 C 595.486 225.540 588.040 232.007 588.039 232.008 C 588.040 232.006 595.948 212.047 595.948 212.045 Z"/>
<path fill="#00ffff" fill-rule="evenodd" stroke="none" d="M 461.129 235.516 C 461.130 235.518 469.631 255.232 469.631 255.234 C 469.632 255.233 470.334 245.395 470.334 245.394 C 470.335 245.394 480.198 245.387 480.199 245.387 C 480.197 245.386 461.131 235.517 461.129 235.516 Z"/>
<path fill="#be0027" fill-rule="evenodd" stroke="none" d="M 76.156 108.427 C 76.159 108.428 110.965 120.859 110.969 120.860 C 110.968 120.859 99.402 108.428 99.400 108.427 C 99.402 108.426 110.968 95.995 110.969 95.994 C 110.965 95.995 76.159 108.426 76.156 108.427 Z"/>
</g>
</g>
</svg>
