<?xml version="1.0" encoding="utf-8"?>
<!-- Generator: Moho 12.5 build 22414 -->
<!DOCTYPE svg PUBLIC "-//W3C//DTD SVG 1.1//EN" "http://www.w3.org/Graphics/SVG/1.1/DTD/svg11.dtd">
<svg version="1.1" id="Frame_0" xmlns="http://www.w3.org/2000/svg" xmlns:xlink="http://www.w3.org/1999/xlink" width="720px" height="720px">
<g id="lizard">
<g id="lizard">
<path fill="#ffffff" fill-rule="evenodd" stroke="#000000" stroke-width="4" stroke-linejoin="round" d="M 476.757 287.438 C 476.757 287.438 455.656 251.729 460.295 249.079 C 464.094 246.909 480.944 272.090 485.310 272.372 C 490.067 272.680 511.629 247.243 515.297 250.288 C 518.705 253.118 500.299 278.084 501.923 282.205 C 503.637 286.556 534.728 291.592 535.386 296.858 C 535.921 301.130 500.049 294.181 495.422 296.363 C 486.310 300.662 460.110 358.010 450.485 360.990 C 440.771 363.998 379.303 342.400 376.251 332.700 C 374.940 328.534 386.329 303.247 390.393 301.647 C 397.103 299.004 432.771 329.827 439.876 328.590 C 446.845 327.378 476.757 287.438 476.757 287.438 M 274.707 242.977 C 274.707 242.977 306.005 215.760 302.440 211.780 C 299.521 208.521 275.581 227.092 271.349 225.981 C 266.738 224.771 254.314 193.826 249.872 195.557 C 245.745 197.165 255.324 226.666 252.482 230.064 C 249.482 233.650 218.391 228.610 216.103 233.398 C 214.247 237.283 250.712 241.788 254.178 245.551 C 260.931 252.882 258.246 315.822 265.572 322.581 C 273.045 329.477 337.822 334.944 344.854 327.599 C 347.703 324.624 349.540 298.613 346.861 295.484 C 342.013 289.821 294.608 301.978 288.654 297.492 C 282.901 293.157 274.707 242.977 274.707 242.977 M 452.725 492.201 C 452.725 492.201 419.962 517.636 423.300 521.808 C 426.033 525.224 450.969 508.013 455.133 509.358 C 459.669 510.822 470.353 542.410 474.884 540.929 C 479.094 539.552 471.171 509.565 474.197 506.331 C 477.392 502.916 508.154 509.677 510.705 505.024 C 512.775 501.248 477.391 493.929 473.365 490.773 C 465.028 484.238 439.320 424.519 429.472 420.614 C 420.020 416.867 354.639 428.031 352.518 440.334 C 351.775 444.638 359.202 470.738 363.059 472.787 C 369.427 476.171 408.234 450.023 415.270 451.607 C 422.167 453.160 452.725 492.201 452.725 492.201 M 234.271 529.796 C 234.271 529.796 273.289 543.865 271.403 548.864 C 269.859 552.958 240.826 544.292 237.282 546.857 C 233.420 549.651 233.016 582.995 228.249 582.986 C 223.820 582.977 222.091 552.009 218.214 549.868 C 214.120 547.608 186.952 563.541 183.088 559.904 C 179.953 556.952 211.345 539.060 214.199 534.814 C 220.110 526.024 226.111 461.283 234.271 454.528 C 242.103 448.043 306.756 441.947 313.554 449.510 C 316.474 452.758 316.589 480.491 313.554 483.631 C 308.542 488.817 263.556 475.937 257.353 479.617 C 251.273 483.225 234.271 529.796 234.271 529.796 Z"/>
<path fill="#ffffff" fill-rule="evenodd" stroke="none" d="M 397.041 600.573 C 397.041 593.907 402.418 588.530 409.084 588.530 C 415.750 588.530 421.127 593.907 421.127 600.573 C 421.127 607.239 415.750 612.616 409.084 612.616 C 402.418 612.616 397.041 607.239 397.041 600.573 M 352.883 616.630 C 352.883 609.965 358.261 604.587 364.926 604.588 C 371.592 604.588 376.969 609.965 376.969 616.630 C 376.969 623.296 371.592 628.673 364.926 628.673 C 358.261 628.673 352.883 623.296 352.883 616.630 M 419.120 244.302 C 411.952 178.793 341.851 92.776 341.844 92.761 C 341.846 92.775 374.658 190.482 367.937 238.280 C 361.199 286.194 293.508 322.070 289.658 409.892 C 286.821 474.601 341.838 562.422 341.844 562.437 C 341.842 562.441 324.336 599.406 326.790 608.602 C 332.055 628.331 392.081 677.276 411.091 669.820 C 430.304 662.284 440.166 585.022 431.162 566.451 C 427.259 558.400 393.030 541.364 393.026 541.362 C 393.023 541.349 366.127 457.771 363.922 416.918 C 360.739 357.937 425.033 298.347 419.120 244.302 Z"/>
<path fill="none" stroke="#000000" stroke-width="4" stroke-linejoin="round" d="M 397.041 600.573 C 397.041 593.907 402.418 588.530 409.084 588.530 C 415.750 588.530 421.127 593.907 421.127 600.573 C 421.127 607.239 415.750 612.616 409.084 612.616 C 402.418 612.616 397.041 607.239 397.041 600.573 M 352.883 616.630 C 352.883 609.965 358.261 604.587 364.926 604.588 C 371.592 604.588 376.969 609.965 376.969 616.630 C 376.969 623.296 371.592 628.673 364.926 628.673 C 358.261 628.673 352.883 623.296 352.883 616.630 M 419.120 244.302 C 411.952 178.793 341.851 92.776 341.844 92.761 C 341.846 92.775 374.658 190.482 367.937 238.280 C 361.199 286.194 293.508 322.070 289.658 409.892 C 286.821 474.601 341.838 562.422 341.844 562.437 C 341.842 562.441 324.336 599.406 326.790 608.602 C 332.055 628.331 392.081 677.276 411.091 669.820 C 430.304 662.284 440.166 585.022 431.162 566.451 C 427.259 558.400 393.030 541.364 393.026 541.362 C 393.023 541.349 366.127 457.771 363.922 416.918 C 360.739 357.937 425.033 298.347 419.120 244.302 M 326.790 412.903 C 328.103 463.348 374.957 568.443 374.962 568.459 M 394.030 241.291 C 389.935 302.517 324.878 339.418 326.790 412.903 M 342.227 93.445 C 342.232 93.459 397.363 191.451 394.030 241.291 "/>
</g>
<g id="specs_2">
<path fill="#ff0000" fill-rule="evenodd" stroke="none" d="M 360.000 54.208 C 360.001 54.205 371.359 22.402 371.360 22.398 C 371.359 22.399 360.001 32.967 360.000 32.968 C 359.999 32.967 348.641 22.399 348.640 22.398 C 348.641 22.402 359.999 54.205 360.000 54.208 Z"/>
<path fill="#0000ff" fill-rule="evenodd" stroke="none" d="M 338.915 83.669 C 338.916 83.670 351.385 98.814 351.387 98.816 C 351.386 98.815 343.098 95.276 343.097 95.276 C 343.097 95.277 338.970 103.288 338.970 103.289 C 338.970 103.287 338.915 83.670 338.915 83.669 Z"/>
<path fill="#00ff00" fill-rule="evenodd" stroke="none" d="M 255.251 382.207 C 255.253 382.207 273.694 375.515 273.695 375.515 C 273.695 375.515 267.590 382.144 267.589 382.145 C 267.590 382.146 273.761 388.712 273.762 388.713 C 273.760 388.712 255.253 382.208 255.251 382.207 Z"/>
<path fill="#ffff00" fill-rule="evenodd" stroke="none" d="M 228.041 591.381 C 228.040 591.379 221.168 573.006 221.167 573.005 C 221.168 573.005 227.856 579.045 227.857 579.046 C 227.858 579.045 234.363 572.809 234.364 572.808 C 234.363 572.810 228.041 591.379 228.041 591.381 Z"/>
<path fill="#ffff00" fill-rule="evenodd" stroke="none" d="M 477.482 551.092 C 477.482 551.090 479.548 531.583 479.548 531.581 C 479.548 531.581 474.579 539.100 474.579 539.101 C 474.578 539.101 466.721 534.687 466.720 534.686 C 466.721 534.688 477.481 551.090 477.482 551.092 Z"/>
<path fill="#00ff00" fill-rule="evenodd" stroke="none" d="M 402.878 382.207 C 402.876 382.207 384.436 375.515 384.434 375.515 C 384.435 375.515 390.540 382.144 390.541 382.145 C 390.540 382.146 384.368 388.712 384.368 388.713 C 384.369 388.712 402.876 382.208 402.878 382.207 Z"/>
<path fill="#00ffff" fill-rule="evenodd" stroke="none" d="M 518.767 242.225 C 518.767 242.227 514.806 261.439 514.805 261.441 C 514.805 261.440 512.357 252.767 512.357 252.767 C 512.356 252.767 503.530 254.583 503.529 254.583 C 503.530 254.582 518.766 242.226 518.767 242.225 Z"/>
<path fill="#00ffff" fill-rule="evenodd" stroke="none" d="M 246.338 186.160 C 246.338 186.162 246.408 205.778 246.408 205.780 C 246.409 205.779 250.529 197.764 250.529 197.764 C 250.530 197.764 258.821 201.296 258.822 201.296 C 258.820 201.295 246.339 186.161 246.338 186.160 Z"/>
<path fill="#be0027" fill-rule="evenodd" stroke="none" d="M 418.063 689.529 C 418.063 689.526 417.969 655.755 417.969 655.752 C 417.968 655.753 410.865 669.546 410.864 669.547 C 410.863 669.546 396.595 663.454 396.594 663.453 C 396.596 663.456 418.061 689.526 418.063 689.529 Z"/>
</g>
</g>
</svg>
