<?xml version="1.0" encoding="utf-8"?>
<!-- Generator: Moho 13.0.3 build 635 -->
<!DOCTYPE svg PUBLIC "-//W3C//DTD SVG 1.1//EN" "http://www.w3.org/Graphics/SVG/1.1/DTD/svg11.dtd">
<svg version="1.1" id="Frame_0" xmlns="http://www.w3.org/2000/svg" xmlns:xlink="http://www.w3.org/1999/xlink" width="720px" height="720px">
<g id="lizard">
<g id="lizard_4">
<path fill="#ffffff" fill-rule="evenodd" stroke="#000000" stroke-width="4" stroke-linejoin="round" d="M 431.162 566.451 C 440.166 585.022 430.305 662.284 411.091 669.820 C 407.218 651.327 356.882 530.550 341.561 482.842 C 299.166 350.823 389.844 315.526 394.713 240.608 C 400.747 147.777 347.622 61.185 347.617 61.167 C 347.624 61.186 419.532 138.909 419.120 244.302 C 419.043 264.092 411.286 284.531 401.424 305.755 C 414.838 313.751 434.761 329.480 439.876 328.590 C 446.845 327.378 476.757 287.438 476.757 287.438 C 476.757 287.438 455.656 251.729 460.295 249.079 C 464.094 246.909 480.944 272.090 485.310 272.372 C 490.067 272.680 511.629 247.243 515.297 250.288 C 518.705 253.118 500.299 278.084 501.923 282.205 C 503.637 286.556 534.728 291.592 535.386 296.858 C 535.921 301.130 500.049 294.181 495.422 296.363 C 486.310 300.662 460.110 358.010 450.485 360.990 C 442.811 363.366 384.858 340.037 384.858 340.037 C 379.274 352.770 362.072 390.994 363.923 416.917 C 364.882 430.360 368.598 451.982 370.809 458.913 C 370.809 458.913 427.452 436.959 434.847 438.978 C 445.066 441.769 475.608 499.399 484.463 505.213 C 488.739 508.020 524.612 512.350 522.866 516.286 C 520.714 521.136 489.494 516.977 486.596 520.646 C 483.851 524.123 494.259 553.341 490.179 555.065 C 485.788 556.921 472.495 526.340 467.852 525.260 C 463.591 524.269 440.184 543.508 437.174 540.333 C 433.498 536.456 464.015 508.366 464.015 508.366 C 464.015 508.366 430.318 471.827 423.291 471.052 C 417.562 470.420 381.821 497.678 381.821 497.678 C 386.025 508.138 393.025 541.357 393.026 541.362 C 393.030 541.364 427.259 558.401 431.162 566.451 M 397.041 600.573 C 397.041 593.907 402.418 588.530 409.084 588.530 C 415.750 588.530 421.127 593.907 421.127 600.573 C 421.127 607.239 415.750 612.616 409.084 612.616 C 402.419 612.616 397.041 607.239 397.041 600.573 Z"/>
<path fill="none" stroke="#ffffff" stroke-width="1" stroke-linecap="butt" stroke-linejoin="round" d="M 411.091 669.820 C 407.218 651.327 356.882 530.550 341.561 482.842 "/>
<path fill="none" stroke="#ffffff" stroke-width="1" stroke-linecap="butt" stroke-linejoin="round" d="M 341.561 482.842 C 299.166 350.823 389.844 315.526 394.713 240.608 "/>
<path fill="none" stroke="#ffffff" stroke-width="1" stroke-linecap="butt" stroke-linejoin="round" d="M 394.713 240.608 C 400.747 147.777 347.622 61.185 347.617 61.167 "/>
<path fill="#ffffff" fill-rule="evenodd" stroke="#000000" stroke-width="4" stroke-linejoin="round" d="M 347.617 61.167 C 347.619 61.185 383.314 145.810 367.937 238.280 C 364.787 257.224 352.412 274.330 338.115 293.970 C 323.161 294.364 293.298 300.991 288.654 297.491 C 282.901 293.157 274.706 242.977 274.706 242.977 C 274.706 242.977 306.005 215.760 302.440 211.780 C 299.521 208.521 275.581 227.092 271.349 225.981 C 266.738 224.771 254.314 193.826 249.872 195.557 C 245.745 197.165 255.324 226.666 252.482 230.064 C 249.482 233.650 218.391 228.610 216.103 233.398 C 214.247 237.283 250.712 241.788 254.178 245.551 C 260.931 252.881 258.246 315.822 265.572 322.581 C 269.831 326.512 313.218 330.979 313.218 330.979 C 307.684 342.584 290.592 377.380 289.658 409.892 C 288.969 433.880 299.948 479.887 299.948 479.887 C 286.603 481.003 247.070 488.447 242.132 493.288 C 234.567 500.703 234.011 565.719 228.857 574.974 C 226.369 579.443 196.587 599.903 199.958 602.581 C 204.113 605.882 229.851 587.729 234.119 589.638 C 238.163 591.446 242.480 622.161 246.894 621.798 C 251.645 621.408 249.254 588.148 252.868 585.040 C 256.185 582.187 285.842 588.390 287.038 584.181 C 288.498 579.042 248.438 568.291 248.438 568.291 C 248.438 568.291 261.479 520.460 267.236 516.355 C 271.640 513.215 298.564 517.530 313.836 517.552 C 323.491 538.846 341.841 562.432 341.844 562.437 C 341.842 562.442 324.336 599.406 326.790 608.602 C 332.056 628.331 392.081 677.277 411.091 669.820 C 407.218 651.327 356.882 530.550 341.561 482.842 C 299.166 350.823 389.844 315.526 394.713 240.608 C 400.747 147.777 347.622 61.185 347.617 61.167 M 364.926 628.673 C 358.261 628.673 352.883 623.296 352.883 616.631 C 352.883 609.965 358.261 604.588 364.926 604.588 C 371.592 604.588 376.969 609.965 376.969 616.631 C 376.969 623.296 371.592 628.673 364.926 628.673 Z"/>
<path fill="none" stroke="#000000" stroke-width="1" stroke-linecap="butt" stroke-linejoin="round" d="M 409.084 588.530 C 415.750 588.530 421.127 593.907 421.127 600.573 "/>
<path fill="none" stroke="#000000" stroke-width="1" stroke-linecap="butt" stroke-linejoin="round" d="M 421.127 600.573 C 421.127 607.239 415.750 612.616 409.084 612.616 "/>
<path fill="none" stroke="#000000" stroke-width="1" stroke-linecap="butt" stroke-linejoin="round" d="M 409.084 612.616 C 402.419 612.616 397.041 607.239 397.041 600.573 "/>
<path fill="none" stroke="#000000" stroke-width="1" stroke-linecap="butt" stroke-linejoin="round" d="M 397.041 600.573 C 397.041 593.907 402.418 588.530 409.084 588.530 "/>
<path fill="#000000" fill-rule="evenodd" stroke="none" d="M 409.084 588.530 C 415.750 588.530 421.127 593.907 421.127 600.573 C 421.127 607.239 415.750 612.616 409.084 612.616 C 402.419 612.616 397.041 607.239 397.041 600.573 C 397.041 593.907 402.418 588.530 409.084 588.530 Z"/>
<path fill="none" stroke="#000000" stroke-width="1" stroke-linecap="butt" stroke-linejoin="round" d="M 364.926 604.588 C 371.592 604.588 376.969 609.965 376.969 616.631 "/>
<path fill="none" stroke="#000000" stroke-width="1" stroke-linecap="butt" stroke-linejoin="round" d="M 376.969 616.631 C 376.969 623.296 371.592 628.673 364.926 628.673 "/>
<path fill="none" stroke="#000000" stroke-width="1" stroke-linecap="butt" stroke-linejoin="round" d="M 364.926 628.673 C 358.261 628.673 352.883 623.296 352.883 616.631 "/>
<path fill="none" stroke="#000000" stroke-width="1" stroke-linecap="butt" stroke-linejoin="round" d="M 352.883 616.631 C 352.883 609.965 358.261 604.588 364.926 604.588 "/>
<path fill="#000000" fill-rule="evenodd" stroke="none" d="M 364.926 604.588 C 371.592 604.588 376.969 609.965 376.969 616.631 C 376.969 623.296 371.592 628.673 364.926 628.673 C 358.261 628.673 352.883 623.296 352.883 616.631 C 352.883 609.965 358.261 604.588 364.926 604.588 Z"/>
</g>
<g id="specs_2">
<path fill="#ff0000" fill-rule="evenodd" stroke="none" d="M 360.000 54.208 C 360.001 54.205 371.359 22.401 371.360 22.398 C 371.359 22.399 360.001 32.967 360.000 32.968 C 359.999 32.967 348.641 22.399 348.640 22.398 C 348.641 22.401 359.999 54.205 360.000 54.208 Z"/>
<path fill="#0000ff" fill-rule="evenodd" stroke="none" d="M 343.753 49.975 C 343.754 49.976 356.223 65.120 356.224 65.122 C 356.224 65.121 347.936 61.582 347.935 61.582 C 347.935 61.583 343.808 69.594 343.808 69.595 C 343.808 69.593 343.753 49.977 343.753 49.975 Z"/>
<path fill="#00ff00" fill-rule="evenodd" stroke="none" d="M 255.251 382.207 C 255.253 382.207 273.694 375.515 273.695 375.515 C 273.695 375.515 267.590 382.144 267.589 382.145 C 267.590 382.146 273.761 388.712 273.762 388.713 C 273.760 388.712 255.253 382.208 255.251 382.207 Z"/>
<path fill="#ffff00" fill-rule="evenodd" stroke="none" d="M 246.766 629.872 C 246.765 629.871 239.893 611.498 239.892 611.496 C 239.893 611.496 246.582 617.536 246.582 617.537 C 246.583 617.536 253.088 611.300 253.089 611.299 C 253.088 611.301 246.767 629.870 246.766 629.872 Z"/>
<path fill="#ffff00" fill-rule="evenodd" stroke="none" d="M 492.868 564.209 C 492.868 564.207 493.011 544.591 493.011 544.589 C 493.010 544.589 488.803 552.560 488.803 552.560 C 488.802 552.560 480.550 548.938 480.549 548.938 C 480.550 548.939 492.867 564.207 492.868 564.209 Z"/>
<path fill="#00ff00" fill-rule="evenodd" stroke="none" d="M 402.878 382.207 C 402.876 382.207 384.436 375.515 384.434 375.515 C 384.435 375.515 390.540 382.144 390.541 382.145 C 390.540 382.146 384.368 388.712 384.368 388.713 C 384.369 388.712 402.876 382.208 402.878 382.207 Z"/>
<path fill="#00ffff" fill-rule="evenodd" stroke="none" d="M 518.767 242.225 C 518.767 242.227 514.806 261.439 514.805 261.441 C 514.805 261.440 512.357 252.767 512.357 252.766 C 512.356 252.767 503.530 254.583 503.529 254.583 C 503.530 254.582 518.766 242.226 518.767 242.225 Z"/>
<path fill="#00ffff" fill-rule="evenodd" stroke="none" d="M 246.338 186.160 C 246.338 186.162 246.408 205.778 246.408 205.780 C 246.409 205.779 250.529 197.764 250.529 197.764 C 250.530 197.764 258.821 201.296 258.822 201.296 C 258.820 201.295 246.339 186.161 246.338 186.160 Z"/>
<path fill="#be0027" fill-rule="evenodd" stroke="none" d="M 418.063 691.610 C 418.063 691.606 417.969 657.836 417.969 657.833 C 417.968 657.834 410.865 671.626 410.864 671.628 C 410.863 671.627 396.595 665.534 396.594 665.534 C 396.596 665.536 418.061 691.607 418.063 691.610 Z"/>
</g>
</g>
</svg>
