<?xml version="1.0" encoding="utf-8"?>
<!-- Generator: Moho 13.5.1 build 20210623 -->
<!DOCTYPE svg PUBLIC "-//W3C//DTD SVG 1.1//EN" "http://www.w3.org/Graphics/SVG/1.1/DTD/svg11.dtd">
<svg version="1.1" id="Frame_0" xmlns="http://www.w3.org/2000/svg" xmlns:xlink="http://www.w3.org/1999/xlink" width="720px" height="720px">
<g id="lizard">
<g id="lizard_4">
<linearGradient id="D5CBD748-2455-4D22-A94C-D94760DBEF2F_0" x1="48.12%" y1="50.00%" x2="-129.33%" y2="49.06%">
<stop offset="0.00%" style="stop-color:rgb(255,255,255);stop-opacity:1.00" />
<stop offset="100.00%" style="stop-color:rgb(0,0,0);stop-opacity:1.00" />
</linearGradient>
<path fill="url(#D5CBD748-2455-4D22-A94C-D94760DBEF2F_0)" fill-rule="evenodd" stroke="#000000" stroke-width="4" stroke-linejoin="round" d="M 431.251 566.708 C 440.266 585.302 430.392 662.660 411.155 670.206 C 407.277 651.690 356.878 530.762 341.538 482.995 C 299.090 350.812 389.881 315.470 394.757 240.459 C 400.798 147.512 347.606 60.813 347.602 60.795 C 347.609 60.813 419.606 138.633 419.193 244.158 C 419.116 263.972 411.350 284.437 401.475 305.687 C 414.906 313.694 434.854 329.442 439.976 328.551 C 446.953 327.337 476.902 287.347 476.902 287.347 C 476.902 287.347 455.775 251.594 460.420 248.941 C 464.224 246.768 481.095 271.980 485.467 272.263 C 490.229 272.571 511.818 247.103 515.490 250.151 C 518.902 252.985 500.474 277.982 502.099 282.108 C 503.815 286.464 534.945 291.507 535.605 296.779 C 536.140 301.057 500.223 294.099 495.591 296.284 C 486.467 300.588 460.234 358.007 450.598 360.991 C 442.915 363.370 384.889 340.013 384.889 340.013 C 379.298 352.761 362.075 391.033 363.927 416.988 C 364.888 430.448 368.608 452.096 370.822 459.036 C 370.822 459.036 427.536 437.054 434.940 439.077 C 445.172 441.871 475.752 499.573 484.618 505.394 C 488.900 508.205 524.817 512.540 523.069 516.480 C 520.914 521.337 489.655 517.172 486.754 520.846 C 484.005 524.327 494.426 553.582 490.341 555.308 C 485.945 557.166 472.635 526.547 467.986 525.466 C 463.720 524.473 440.284 543.737 437.270 540.558 C 433.590 536.675 464.145 508.551 464.145 508.551 C 464.145 508.551 430.406 471.966 423.370 471.190 C 417.634 470.558 381.849 497.849 381.849 497.849 C 386.058 508.322 393.067 541.583 393.068 541.588 C 393.071 541.590 427.342 558.648 431.251 566.708 M 397.087 600.873 C 397.087 594.199 402.471 588.814 409.145 588.814 C 415.819 588.815 421.203 594.199 421.203 600.873 C 421.203 607.547 415.819 612.930 409.145 612.930 C 402.471 612.930 397.087 607.547 397.087 600.873 Z"/>
<linearGradient id="D5CBD748-2455-4D22-A94C-D94760DBEF2F_1" x1="61.17%" y1="53.37%" x2="-130.90%" y2="54.01%">
<stop offset="0.00%" style="stop-color:rgb(255,255,255);stop-opacity:1.00" />
<stop offset="100.00%" style="stop-color:rgb(0,0,0);stop-opacity:1.00" />
</linearGradient>
<path fill="none" stroke="#ffffff" stroke-width="1" stroke-linecap="butt" stroke-linejoin="round" d="M 411.155 670.206 C 407.277 651.690 356.878 530.762 341.538 482.995 "/>
<path fill="none" stroke="#ffffff" stroke-width="1" stroke-linecap="butt" stroke-linejoin="round" d="M 341.538 482.995 C 299.090 350.812 389.881 315.470 394.757 240.459 "/>
<path fill="none" stroke="#ffffff" stroke-width="1" stroke-linecap="butt" stroke-linejoin="round" d="M 394.757 240.459 C 400.798 147.512 347.606 60.813 347.602 60.795 "/>
<path fill="url(#D5CBD748-2455-4D22-A94C-D94760DBEF2F_1)" fill-rule="evenodd" stroke="#000000" stroke-width="4" stroke-linejoin="round" d="M 347.602 60.795 C 347.604 60.813 383.343 145.543 367.947 238.128 C 364.793 257.096 352.403 274.223 338.088 293.888 C 323.116 294.283 293.215 300.917 288.565 297.414 C 282.805 293.074 274.600 242.831 274.600 242.831 C 274.600 242.831 305.938 215.580 302.369 211.595 C 299.446 208.332 275.476 226.927 271.239 225.814 C 266.622 224.602 254.182 193.619 249.735 195.352 C 245.603 196.962 255.194 226.500 252.348 229.902 C 249.344 233.493 218.215 228.446 215.924 233.240 C 214.065 237.130 250.575 241.641 254.046 245.408 C 260.808 252.748 258.119 315.767 265.454 322.535 C 269.719 326.470 313.160 330.943 313.160 330.943 C 307.619 342.562 290.505 377.402 289.570 409.955 C 288.880 433.972 299.873 480.036 299.873 480.036 C 286.511 481.153 246.930 488.607 241.985 493.454 C 234.411 500.878 233.854 565.975 228.694 575.241 C 226.202 579.716 196.383 600.201 199.759 602.883 C 203.919 606.189 229.689 588.012 233.962 589.924 C 238.011 591.734 242.333 622.487 246.753 622.124 C 251.510 621.734 249.116 588.432 252.735 585.320 C 256.056 582.464 285.749 588.674 286.947 584.461 C 288.409 579.315 248.299 568.551 248.299 568.551 C 248.299 568.551 261.357 520.660 267.120 516.550 C 271.530 513.406 298.487 517.726 313.778 517.748 C 323.445 539.068 341.818 562.684 341.821 562.689 C 341.820 562.694 324.292 599.704 326.749 608.911 C 332.021 628.665 392.121 677.672 411.155 670.206 C 407.277 651.690 356.878 530.762 341.538 482.995 C 299.090 350.812 389.881 315.470 394.757 240.459 C 400.798 147.512 347.606 60.813 347.602 60.795 M 364.933 629.008 C 358.259 629.008 352.875 623.624 352.875 616.950 C 352.875 610.276 358.259 604.892 364.933 604.892 C 371.606 604.892 376.990 610.276 376.990 616.950 C 376.990 623.624 371.606 629.008 364.933 629.008 Z"/>
<path fill="none" stroke="#000000" stroke-width="4" stroke-linejoin="round" d="M 397.087 600.873 C 397.087 594.199 402.471 588.814 409.145 588.814 C 415.819 588.815 421.203 594.199 421.203 600.873 C 421.203 607.547 415.819 612.930 409.145 612.930 C 402.471 612.930 397.087 607.547 397.087 600.873 "/>
<path fill="none" stroke="#000000" stroke-width="4" stroke-linejoin="round" d="M 352.875 616.950 C 352.875 610.276 358.259 604.892 364.933 604.892 C 371.606 604.892 376.990 610.276 376.990 616.950 C 376.990 623.624 371.606 629.008 364.933 629.008 C 358.259 629.008 352.875 623.624 352.875 616.950 "/>
</g>
<g id="specs_2">
<path fill="#ff0000" fill-rule="evenodd" stroke="none" d="M 360.000 53.827 C 360.001 53.824 371.373 21.981 371.374 21.978 C 371.373 21.979 360.001 32.560 360.000 32.561 C 359.999 32.560 348.627 21.979 348.626 21.978 C 348.627 21.981 359.999 53.824 360.000 53.827 Z"/>
<path fill="#00ff00" fill-rule="evenodd" stroke="none" d="M 202.441 398.500 C 202.445 398.498 241.807 384.215 241.811 384.214 C 241.809 384.215 228.777 398.365 228.776 398.367 C 228.777 398.368 241.951 412.384 241.953 412.386 C 241.949 412.384 202.445 398.501 202.441 398.500 Z"/>
<path fill="#00ff00" fill-rule="evenodd" stroke="none" d="M 517.559 398.500 C 517.555 398.498 478.193 384.215 478.189 384.214 C 478.191 384.215 491.223 398.365 491.224 398.367 C 491.223 398.368 478.049 412.384 478.047 412.386 C 478.051 412.384 517.555 398.501 517.559 398.500 Z"/>
<path fill="#be0027" fill-rule="evenodd" stroke="none" d="M 418.136 692.023 C 418.136 692.019 418.041 658.207 418.041 658.203 C 418.041 658.205 410.928 672.014 410.927 672.016 C 410.926 672.015 396.641 665.915 396.639 665.914 C 396.641 665.917 418.133 692.020 418.136 692.023 Z"/>
</g>
</g>
</svg>
