<?xml version="1.0" encoding="utf-8"?>
<!-- Generator: Moho 13.5 build 20210422 -->
<!DOCTYPE svg PUBLIC "-//W3C//DTD SVG 1.1//EN" "http://www.w3.org/Graphics/SVG/1.1/DTD/svg11.dtd">
<svg version="1.1" id="Frame_0" xmlns="http://www.w3.org/2000/svg" xmlns:xlink="http://www.w3.org/1999/xlink" width="720px" height="720px">
<g id="lute">
<g id="lute">
<path fill="#000000" fill-rule="evenodd" stroke="#ffffff" stroke-width="4" stroke-linejoin="round" d="M 524.022 524.196 C 523.567 634.487 411.765 633.464 360.000 627.306 C 404.143 627.306 487.489 617.590 487.604 524.196 C 487.810 358.022 401.543 297.354 360.000 297.354 C 404.393 292.288 524.759 345.471 524.022 524.196 Z"/>
<path fill="#000000" fill-rule="evenodd" stroke="none" d="M 403.950 23.258 C 403.959 23.258 493.931 23.258 493.940 23.258 C 493.930 23.267 386.990 118.680 386.980 118.689 C 386.981 118.711 396.545 333.879 396.546 333.901 C 396.539 333.901 323.461 333.901 323.454 333.901 C 323.455 333.879 333.019 118.711 333.020 118.689 C 333.027 118.680 403.943 23.267 403.950 23.258 Z"/>
<path fill="none" stroke="#ffffff" stroke-width="1" stroke-linecap="butt" stroke-linejoin="round" d="M 360.000 297.354 C 401.543 297.354 487.810 358.022 487.604 524.196 "/>
<path fill="none" stroke="#ffffff" stroke-width="1" stroke-linecap="butt" stroke-linejoin="round" d="M 487.604 524.196 C 487.489 617.590 404.143 627.306 360.000 627.306 "/>
<path fill="#ffffff" fill-rule="evenodd" stroke="#000000" stroke-width="4" stroke-linejoin="round" d="M 360.000 297.354 C 401.543 297.354 487.810 358.022 487.604 524.196 C 487.489 617.590 404.143 627.306 360.000 627.306 C 315.857 627.306 232.511 617.590 232.395 524.196 C 232.190 358.022 318.457 297.354 360.000 297.354 Z"/>
<path fill="#000000" fill-rule="evenodd" stroke="none" d="M 360.000 411.693 C 391.585 411.693 417.065 437.173 417.065 468.757 C 417.065 500.342 391.585 525.822 360.000 525.822 C 328.415 525.822 302.935 500.342 302.935 468.757 C 302.935 437.173 328.415 411.693 360.000 411.693 Z"/>
<path fill="none" stroke="#ffffff" stroke-width="4" stroke-linejoin="round" d="M 414.846 47.387 C 395.734 71.147 357.516 118.660 357.510 118.667 C 357.510 118.714 357.510 432.705 357.510 589.724 M 408.821 35.745 C 388.001 63.386 346.367 118.659 346.361 118.667 C 346.360 118.714 340.710 432.705 337.885 589.724 M 421.089 59.450 C 403.715 79.189 368.973 118.661 368.968 118.667 C 368.968 118.714 374.413 432.705 377.136 589.724 M 426.409 69.749 C 410.530 86.142 378.777 118.924 378.772 118.929 C 378.773 118.976 394.055 589.682 394.057 589.724 C 394.049 589.724 320.972 589.724 320.964 589.724 C 320.966 589.682 336.760 118.980 336.762 118.933 C 336.768 118.924 381.346 56.810 403.638 25.749 "/>
<path fill="#000000" fill-rule="evenodd" stroke="none" d="M 427.966 89.804 C 432.965 89.804 436.997 93.837 436.997 98.835 C 436.997 103.834 432.965 107.866 427.966 107.866 C 422.967 107.866 418.935 103.834 418.935 98.835 C 418.935 93.837 422.967 89.804 427.966 89.804 Z"/>
<path fill="#000000" fill-rule="evenodd" stroke="none" d="M 459.985 60.248 C 464.984 60.248 469.016 64.280 469.016 69.279 C 469.016 74.278 464.984 78.310 459.985 78.310 C 454.987 78.310 450.954 74.278 450.954 69.279 C 450.954 64.280 454.987 60.248 459.985 60.248 Z"/>
<path fill="#000000" fill-rule="evenodd" stroke="none" d="M 492.826 31.513 C 497.824 31.513 501.857 35.545 501.857 40.544 C 501.857 45.543 497.824 49.575 492.826 49.575 C 487.827 49.575 483.794 45.543 483.794 40.544 C 483.794 35.545 487.827 31.513 492.826 31.513 Z"/>
<path fill="#000000" fill-rule="evenodd" stroke="none" d="M 335.630 83.562 C 340.534 82.594 345.271 85.770 346.238 90.674 C 347.206 95.578 344.030 100.314 339.126 101.282 C 334.222 102.249 329.485 99.074 328.517 94.170 C 327.550 89.266 330.726 84.529 335.630 83.562 Z"/>
<path fill="#000000" fill-rule="evenodd" stroke="none" d="M 357.931 52.383 C 362.835 51.416 367.572 54.591 368.539 59.495 C 369.507 64.400 366.331 69.136 361.427 70.104 C 356.523 71.071 351.786 67.896 350.819 62.991 C 349.852 58.087 353.027 53.351 357.931 52.383 Z"/>
<path fill="#000000" fill-rule="evenodd" stroke="none" d="M 382.161 22.498 C 387.065 21.530 391.802 24.706 392.770 29.610 C 393.737 34.515 390.561 39.251 385.657 40.219 C 380.753 41.186 376.017 38.011 375.049 33.107 C 374.082 28.202 377.257 23.466 382.161 22.498 Z"/>
<path fill="none" stroke="#000000" stroke-width="4" stroke-linejoin="round" d="M 417.899 53.286 C 399.429 75.079 362.495 118.660 362.490 118.667 C 362.490 118.714 362.490 432.705 362.490 589.724 M 411.801 41.504 C 391.613 67.225 351.244 118.659 351.238 118.667 C 351.237 118.714 345.655 432.705 342.864 589.724 M 423.996 65.068 C 407.245 82.934 373.746 118.661 373.741 118.667 C 373.742 118.714 379.324 432.705 382.115 589.724 M 429.098 74.945 C 413.812 89.606 383.243 118.925 383.238 118.929 C 383.240 118.976 399.034 589.677 399.036 589.724 C 399.028 589.724 325.951 589.724 325.943 589.724 C 325.945 589.682 341.739 118.980 341.741 118.933 C 341.747 118.924 385.041 60.743 406.691 31.647 "/>
<path fill="#ffffff" fill-rule="evenodd" stroke="#000000" stroke-width="4" stroke-linejoin="round" d="M 375.055 33.116 C 374.087 28.212 377.263 23.475 382.167 22.508 C 387.071 21.540 391.807 24.716 392.775 29.620 C 393.742 34.524 390.567 39.261 385.663 40.229 C 380.759 41.196 376.022 38.020 375.055 33.116 M 350.824 63.001 C 349.857 58.097 353.032 53.360 357.936 52.393 C 362.840 51.425 367.577 54.601 368.545 59.505 C 369.512 64.409 366.337 69.146 361.432 70.114 C 356.528 71.081 351.792 67.905 350.824 63.001 M 328.523 94.179 C 327.555 89.275 330.731 84.539 335.635 83.571 C 340.539 82.604 345.276 85.779 346.243 90.683 C 347.211 95.587 344.035 100.324 339.131 101.291 C 334.227 102.259 329.490 99.083 328.523 94.179 M 483.800 40.554 C 483.800 35.555 487.832 31.523 492.831 31.523 C 497.829 31.523 501.862 35.555 501.862 40.554 C 501.862 45.552 497.829 49.585 492.831 49.585 C 487.832 49.585 483.800 45.552 483.800 40.554 M 450.959 69.289 C 450.959 64.290 454.992 60.258 459.990 60.258 C 464.989 60.258 469.022 64.290 469.022 69.289 C 469.022 74.288 464.989 78.320 459.990 78.320 C 454.992 78.320 450.959 74.288 450.959 69.289 M 418.940 98.845 C 418.940 93.846 422.973 89.814 427.971 89.814 C 432.970 89.814 437.002 93.846 437.002 98.845 C 437.002 103.844 432.970 107.876 427.971 107.876 C 422.973 107.876 418.940 103.844 418.940 98.845 M 333.026 118.699 C 333.026 118.699 384.249 118.779 386.985 118.699 C 386.996 118.689 493.935 23.277 493.945 23.268 C 493.936 23.268 403.964 23.268 403.955 23.268 C 403.948 23.277 333.033 118.689 333.026 118.699 Z"/>
</g>
<g id="specs_2">
<path fill="#ff00ff" fill-rule="evenodd" stroke="none" d="M 313.227 516.092 C 313.236 516.092 406.764 516.092 406.773 516.092 C 406.773 516.082 406.773 422.554 406.773 422.545 C 406.764 422.545 313.236 422.545 313.227 422.545 C 313.227 422.554 313.227 516.082 313.227 516.092 Z"/>
<path fill="#ff0000" fill-rule="evenodd" stroke="none" d="M 360.000 655.452 C 360.001 655.455 371.344 687.216 371.345 687.219 C 371.344 687.218 360.001 676.664 360.000 676.663 C 359.999 676.664 348.656 687.218 348.655 687.219 C 348.656 687.216 359.999 655.455 360.000 655.452 Z"/>
<path fill="#0000ff" fill-rule="evenodd" stroke="none" d="M 442.071 13.403 C 442.072 13.405 448.661 31.855 448.662 31.857 C 448.661 31.856 442.072 25.726 442.071 25.725 C 442.071 25.726 435.482 31.856 435.481 31.857 C 435.482 31.855 442.071 13.405 442.071 13.403 Z"/>
<path fill="#00ff00" fill-rule="evenodd" stroke="none" d="M 211.067 477.694 C 211.071 477.693 243.993 465.747 243.996 465.746 C 243.995 465.747 233.095 477.582 233.094 477.583 C 233.095 477.584 244.114 489.308 244.115 489.309 C 244.112 489.308 211.071 477.696 211.067 477.694 Z"/>
<path fill="#ffff00" fill-rule="evenodd" stroke="none" d="M 277.155 624.455 C 277.156 624.453 287.881 601.101 287.883 601.099 C 287.883 601.100 288.447 612.892 288.447 612.893 C 288.448 612.893 300.250 613.179 300.251 613.179 C 300.248 613.180 277.158 624.454 277.155 624.455 Z"/>
<path fill="#ffff00" fill-rule="evenodd" stroke="none" d="M 489.018 624.169 C 489.017 624.167 477.826 601.035 477.825 601.032 C 477.825 601.033 477.497 612.835 477.497 612.836 C 477.496 612.836 465.702 613.359 465.700 613.359 C 465.703 613.360 489.016 624.168 489.018 624.169 Z"/>
<path fill="#00ff00" fill-rule="evenodd" stroke="none" d="M 545.044 477.694 C 545.041 477.693 512.118 465.747 512.115 465.746 C 512.116 465.747 523.016 477.582 523.017 477.583 C 523.016 477.584 511.997 489.308 511.996 489.309 C 512.000 489.308 545.041 477.696 545.044 477.694 Z"/>
<path fill="#00ffff" fill-rule="evenodd" stroke="none" d="M 481.658 342.775 C 481.657 342.777 472.925 367.431 472.924 367.434 C 472.924 367.433 471.271 355.532 471.271 355.530 C 471.270 355.530 459.281 356.322 459.279 356.322 C 459.282 356.321 481.656 342.776 481.658 342.775 Z"/>
<path fill="#00ffff" fill-rule="evenodd" stroke="none" d="M 262.964 343.592 C 262.965 343.594 273.320 367.612 273.321 367.614 C 273.322 367.613 274.178 355.628 274.178 355.626 C 274.179 355.626 286.194 355.617 286.195 355.617 C 286.193 355.616 262.966 343.593 262.964 343.592 Z"/>
<path fill="#be0027" fill-rule="evenodd" stroke="none" d="M 360.000 645.573 C 360.001 645.570 371.344 613.809 371.345 613.806 C 371.344 613.807 360.001 624.361 360.000 624.362 C 359.999 624.361 348.656 613.807 348.655 613.806 C 348.656 613.809 359.999 645.570 360.000 645.573 Z"/>
</g>
</g>
</svg>
