<?xml version="1.0" encoding="utf-8"?>
<!-- Generator: Moho 12.5 build 22414 -->
<!DOCTYPE svg PUBLIC "-//W3C//DTD SVG 1.1//EN" "http://www.w3.org/Graphics/SVG/1.1/DTD/svg11.dtd">
<svg version="1.1" id="Frame_0" xmlns="http://www.w3.org/2000/svg" xmlns:xlink="http://www.w3.org/1999/xlink" width="720px" height="720px">
<g id="M_logo">
<g id="dots_2">
<path fill="#ffffff" fill-rule="evenodd" stroke="#000000" stroke-width="3" stroke-linecap="round" stroke-linejoin="round" d="M 360.000 463.396 C 376.996 463.396 390.706 477.107 390.706 494.103 C 390.706 511.098 376.996 524.809 360.000 524.809 C 343.004 524.809 329.294 511.098 329.294 494.103 C 329.294 477.107 343.004 463.396 360.000 463.396 Z"/>
<path fill="#ffffff" fill-rule="evenodd" stroke="#000000" stroke-width="3" stroke-linecap="round" stroke-linejoin="round" d="M 360.000 53.927 C 376.996 53.927 390.706 67.637 390.706 84.633 C 390.706 101.629 376.996 115.339 360.000 115.339 C 343.004 115.339 329.294 101.629 329.294 84.633 C 329.294 67.637 343.004 53.927 360.000 53.927 Z"/>
</g>
<g id="M_logo_strokes">
<path fill="#ffffff" fill-rule="evenodd" stroke="none" d="M 494.114 295.444 C 479.201 333.791 431.695 364.272 387.846 395.105 C 423.569 424.751 451.946 455.330 451.550 494.723 C 450.958 553.712 360.009 616.137 360.000 616.149 C 359.991 616.137 269.089 555.241 268.450 494.723 C 268.039 455.768 296.486 424.516 331.209 395.081 C 288.255 365.049 240.480 334.306 224.835 293.863 C 199.839 229.251 224.844 146.797 224.835 73.254 C 224.833 68.333 224.300 65.334 223.247 64.281 C 222.545 63.228 220.958 62.693 218.493 62.693 C 218.493 59.534 218.493 56.360 218.493 53.193 C 242.956 53.193 267.420 53.193 291.891 53.193 C 291.883 56.360 291.883 59.534 291.891 62.693 C 288.365 62.694 286.611 64.282 286.611 67.449 C 286.611 68.860 287.136 70.798 288.189 73.254 C 289.600 75.368 358.406 201.549 358.413 201.561 C 358.421 201.549 427.759 75.719 429.171 73.254 C 430.575 70.440 431.285 68.510 431.285 67.449 C 431.286 64.282 429.874 62.693 427.057 62.693 C 427.058 59.534 427.057 56.360 427.057 53.193 C 451.871 53.193 476.685 53.193 501.507 53.193 C 501.499 56.360 501.499 59.534 501.507 62.693 C 499.744 62.693 497.990 63.228 496.228 64.281 C 494.816 64.983 494.114 66.746 494.114 69.563 C 494.099 144.860 518.674 232.287 494.114 295.444 M 449.766 273.894 C 438.125 311.208 395.749 338.238 359.148 372.402 C 350.156 365.084 282.155 312.800 269.182 273.894 C 253.867 227.964 269.708 119.739 269.708 119.723 C 269.716 119.740 354.711 285.504 354.719 285.521 C 354.720 285.521 358.947 285.521 358.947 285.521 C 358.956 285.504 448.695 119.740 448.704 119.723 C 448.704 119.723 449.766 119.723 449.766 119.723 C 449.766 119.739 465.460 223.590 449.766 273.894 M 270.234 119.723 C 270.234 119.723 269.708 119.723 269.708 119.723 C 269.708 119.723 270.234 119.723 270.234 119.723 M 414.210 494.723 C 414.165 464.328 390.924 439.396 359.677 415.637 C 329.150 439.250 305.176 464.540 305.790 494.723 C 306.723 540.598 359.995 572.694 360.000 572.702 C 360.005 572.694 414.283 543.634 414.210 494.723 Z"/>
<path fill="none" stroke="#000000" stroke-width="3" stroke-linecap="round" stroke-linejoin="round" d="M 331.209 395.081 C 296.486 424.516 268.039 455.768 268.450 494.723 C 269.089 555.241 359.991 616.137 360.000 616.149 C 360.009 616.137 450.958 553.712 451.550 494.723 C 451.946 455.330 423.569 424.751 387.846 395.105 C 378.827 387.619 371.870 382.755 359.148 372.402 C 350.156 365.085 282.155 312.800 269.182 273.894 C 253.867 227.964 269.708 119.739 269.708 119.723 C 269.708 119.723 270.234 119.723 270.234 119.723 C 270.234 119.723 269.708 119.723 269.708 119.723 C 269.716 119.740 354.711 285.504 354.719 285.521 C 354.720 285.521 358.947 285.521 358.947 285.521 C 358.956 285.504 448.695 119.740 448.704 119.723 C 448.704 119.723 449.766 119.723 449.766 119.723 C 449.766 119.739 464.417 230.025 449.766 273.894 C 437.384 310.969 395.749 338.238 359.148 372.402 M 359.677 415.637 C 329.150 439.250 305.176 464.540 305.790 494.723 C 306.723 540.598 359.995 572.694 360.000 572.702 C 360.005 572.694 413.252 541.427 414.210 494.723 C 414.833 464.335 390.924 439.396 359.677 415.637 C 350.876 408.877 341.492 402.202 331.209 395.081 C 288.255 365.049 240.480 334.306 224.835 293.863 C 199.839 229.251 224.844 146.797 224.835 73.254 C 224.833 68.333 224.300 65.334 223.247 64.281 C 222.545 63.228 220.958 62.693 218.493 62.693 C 218.493 59.534 218.493 56.360 218.493 53.193 C 242.956 53.193 267.420 53.193 291.891 53.193 C 291.883 56.360 291.883 59.534 291.891 62.693 C 288.365 62.694 286.611 64.282 286.611 67.449 C 286.611 68.860 287.136 70.798 288.189 73.254 C 289.600 75.368 358.406 201.549 358.413 201.561 C 358.421 201.549 427.759 75.719 429.171 73.254 C 430.575 70.440 431.285 68.510 431.285 67.449 C 431.286 64.282 429.874 62.693 427.057 62.693 C 427.058 59.534 427.057 56.360 427.057 53.193 C 451.871 53.193 476.685 53.193 501.507 53.193 C 501.499 56.360 501.499 59.534 501.507 62.693 C 499.744 62.693 497.990 63.228 496.228 64.281 C 494.816 64.983 494.114 66.746 494.114 69.563 C 494.099 144.860 518.674 232.287 494.114 295.444 C 479.201 333.791 431.695 364.272 387.846 395.105 "/>
</g>
<g id="specs_2">
<path fill="#ff0000" fill-rule="evenodd" stroke="none" d="M 360.000 677.484 C 360.001 677.487 370.407 706.624 370.408 706.627 C 370.407 706.626 360.001 696.944 360.000 696.943 C 359.999 696.944 349.593 706.626 349.592 706.627 C 349.593 706.624 359.999 677.487 360.000 677.484 Z"/>
<path fill="#0000ff" fill-rule="evenodd" stroke="none" d="M 360.000 14.141 C 360.001 14.143 366.045 31.068 366.046 31.070 C 366.045 31.070 360.001 25.445 360.000 25.445 C 359.999 25.445 353.955 31.070 353.954 31.070 C 353.955 31.068 359.999 14.143 360.000 14.141 Z"/>
<path fill="#00ff00" fill-rule="evenodd" stroke="none" d="M 175.754 214.417 C 175.755 214.417 195.038 207.420 195.040 207.419 C 195.040 207.420 188.655 214.351 188.655 214.352 C 188.655 214.353 195.109 221.219 195.110 221.220 C 195.108 221.219 175.755 214.418 175.754 214.417 Z"/>
<path fill="#ffff00" fill-rule="evenodd" stroke="none" d="M 269.067 575.619 C 269.068 575.618 275.103 562.476 275.104 562.475 C 275.104 562.476 275.422 569.112 275.422 569.112 C 275.422 569.112 282.063 569.273 282.064 569.273 C 282.063 569.274 269.068 575.618 269.067 575.619 Z"/>
<path fill="#ffff00" fill-rule="evenodd" stroke="none" d="M 450.933 575.458 C 450.932 575.457 444.634 562.439 444.634 562.438 C 444.634 562.438 444.449 569.079 444.449 569.080 C 444.448 569.080 437.811 569.374 437.811 569.374 C 437.812 569.375 450.932 575.457 450.933 575.458 Z"/>
<path fill="#00ff00" fill-rule="evenodd" stroke="none" d="M 544.246 214.417 C 544.245 214.417 524.962 207.420 524.960 207.419 C 524.960 207.420 531.345 214.351 531.345 214.352 C 531.345 214.353 524.891 221.219 524.890 221.220 C 524.892 221.219 544.245 214.418 544.246 214.417 Z"/>
<path fill="#00ffff" fill-rule="evenodd" stroke="none" d="M 521.345 31.195 C 521.344 31.196 516.554 44.724 516.553 44.725 C 516.553 44.725 515.646 38.194 515.646 38.194 C 515.645 38.194 509.067 38.628 509.066 38.628 C 509.067 38.628 521.343 31.196 521.345 31.195 Z"/>
<path fill="#00ffff" fill-rule="evenodd" stroke="none" d="M 198.749 31.644 C 198.750 31.645 204.432 44.823 204.432 44.824 C 204.432 44.823 204.902 38.248 204.902 38.247 C 204.903 38.247 211.495 38.242 211.496 38.242 C 211.494 38.241 198.750 31.644 198.749 31.644 Z"/>
<path fill="#be0027" fill-rule="evenodd" stroke="none" d="M 360.000 652.857 C 360.001 652.854 370.407 623.716 370.408 623.714 C 370.407 623.715 360.001 633.397 360.000 633.398 C 359.999 633.397 349.593 623.715 349.592 623.714 C 349.593 623.716 359.999 652.854 360.000 652.857 Z"/>
</g>
</g>
</svg>
