<?xml version="1.0" encoding="utf-8"?>
<!-- Generator: Moho 13.5 build 20210422 -->
<!DOCTYPE svg PUBLIC "-//W3C//DTD SVG 1.1//EN" "http://www.w3.org/Graphics/SVG/1.1/DTD/svg11.dtd">
<svg version="1.1" id="Frame_0" xmlns="http://www.w3.org/2000/svg" xmlns:xlink="http://www.w3.org/1999/xlink" width="720px" height="720px">
<g id="magician">
<g id="magician_2">
<path id="S32" fill="#000000" fill-rule="evenodd" stroke="#000000" stroke-width="2" stroke-linecap="round" stroke-linejoin="round" d="M 86.804 166.827 C 86.831 166.851 359.973 406.895 360.000 406.919 C 360.027 406.895 633.169 166.851 633.196 166.827 C 633.202 166.878 635.968 676.877 689.560 681.925 C 513.351 681.794 30.512 681.925 30.440 681.925 C 79.772 675.416 86.798 166.878 86.804 166.827 Z"/>
<path id="S16" fill="#000000" fill-rule="evenodd" stroke="#000000" stroke-width="2" stroke-linecap="round" stroke-linejoin="round" d="M 317.522 95.769 C 317.523 95.769 325.367 95.769 325.368 95.769 C 325.368 95.769 332.336 95.769 332.337 95.769 C 332.337 95.769 339.305 95.769 339.305 95.769 C 339.306 95.769 346.273 95.769 346.274 95.769 C 346.274 95.769 374.127 95.769 374.127 95.769 C 374.128 95.769 381.096 95.769 381.096 95.769 C 381.097 95.769 388.065 95.769 388.065 95.769 C 388.066 95.769 395.035 95.769 395.035 95.769 C 395.036 95.769 402.477 95.769 402.478 95.769 C 402.480 95.778 419.998 180.978 420.000 180.986 C 419.999 180.986 300.011 180.986 300.000 180.986 C 300.002 180.978 317.520 95.778 317.522 95.769 Z"/>
<path id="S5" fill="#ffffff" fill-rule="evenodd" stroke="#000000" stroke-width="2" stroke-linecap="round" stroke-linejoin="round" d="M 669.426 180.987 C 669.424 180.987 649.428 180.987 649.426 180.987 C 649.426 179.150 649.426 177.038 649.426 174.915 C 656.093 174.998 662.760 175.081 669.426 175.164 C 669.426 175.165 669.426 180.987 669.426 180.987 Z"/>
<path fill="none" stroke="#ffffff" stroke-width="1" stroke-linecap="butt" stroke-linejoin="round" d="M 669.426 175.164 C 662.760 175.081 656.093 174.998 649.426 174.915 "/>
<path id="S6" fill="#ffffff" fill-rule="evenodd" stroke="#000000" stroke-width="2" stroke-linecap="round" stroke-linejoin="round" d="M 669.426 167.350 C 669.426 167.350 669.426 175.163 669.426 175.164 C 662.760 175.081 656.093 174.998 649.426 174.915 C 649.426 172.461 649.426 169.929 649.426 167.621 C 656.093 167.530 662.760 167.440 669.426 167.350 Z"/>
<path fill="none" stroke="#ffffff" stroke-width="1" stroke-linecap="butt" stroke-linejoin="round" d="M 669.426 167.350 C 662.760 167.440 656.093 167.530 649.426 167.621 "/>
<path id="S7" fill="#ffffff" fill-rule="evenodd" stroke="#000000" stroke-width="2" stroke-linecap="round" stroke-linejoin="round" d="M 669.426 160.987 C 669.426 160.987 669.426 167.349 669.426 167.350 C 662.760 167.440 656.093 167.530 649.426 167.621 C 649.426 164.645 649.426 160.987 649.426 160.987 C 649.428 160.987 669.424 160.986 669.426 160.987 Z"/>
<path id="S12" fill="#ffffff" fill-rule="evenodd" stroke="none" d="M 89.656 160.987 C 89.656 160.989 89.656 180.985 89.656 180.987 C 89.654 180.987 69.658 180.987 69.656 180.987 C 69.652 180.985 29.660 160.989 29.656 160.987 C 29.657 160.987 39.647 160.987 39.648 160.987 C 39.649 160.987 50.679 160.987 50.680 160.987 C 50.681 160.987 60.962 160.987 60.963 160.987 C 60.966 160.987 89.653 160.987 89.656 160.987 Z"/>
<path id="S12" fill="none" stroke="#000000" stroke-width="2" stroke-linecap="round" stroke-linejoin="round" d="M 60.963 160.987 C 60.966 160.987 89.653 160.987 89.656 160.987 C 89.656 160.989 89.656 180.985 89.656 180.987 C 89.654 180.987 69.658 180.987 69.656 180.987 C 69.652 180.985 29.660 160.989 29.656 160.987 C 29.657 160.987 39.647 160.987 39.648 160.987 C 39.649 160.987 50.679 160.987 50.680 160.987 C 50.681 160.987 60.962 160.987 60.963 160.987 C 67.144 164.186 73.326 167.386 79.508 170.586 M 39.648 160.987 C 47.403 164.726 55.157 168.466 62.912 172.205 M 50.680 160.987 C 57.655 164.456 64.630 167.926 71.605 171.396 "/>
<path fill="none" stroke="#ffffff" stroke-width="1" stroke-linecap="butt" stroke-linejoin="round" d="M 649.426 160.987 C 649.426 160.987 649.426 164.645 649.426 167.621 "/>
<path fill="none" stroke="#ffffff" stroke-width="1" stroke-linecap="butt" stroke-linejoin="round" d="M 649.426 167.621 C 649.426 169.929 649.426 172.461 649.426 174.915 "/>
<path fill="none" stroke="#ffffff" stroke-width="1" stroke-linecap="butt" stroke-linejoin="round" d="M 649.426 174.915 C 649.426 177.038 649.426 179.150 649.426 180.987 "/>
<path id="S26" fill="#ffffff" fill-rule="evenodd" stroke="none" d="M 629.426 181.224 C 629.426 181.222 629.426 160.989 629.426 160.987 C 629.428 160.987 649.157 160.612 649.426 160.987 C 649.426 160.987 649.426 164.645 649.426 167.621 C 649.426 169.929 649.426 172.461 649.426 174.915 C 649.426 177.038 649.426 179.150 649.426 180.987 C 649.426 180.987 643.267 180.987 643.267 180.987 C 643.265 180.987 629.428 181.224 629.426 181.224 Z"/>
<path id="S26" fill="none" stroke="#000000" stroke-width="2" stroke-linecap="round" stroke-linejoin="round" d="M 629.426 181.224 C 629.426 181.222 629.426 160.989 629.426 160.987 C 629.428 160.987 649.157 160.612 649.426 160.987 C 649.426 160.987 649.426 164.645 649.426 167.621 C 649.426 169.929 649.426 172.461 649.426 174.915 C 649.426 177.038 649.426 179.150 649.426 180.987 C 649.426 180.987 643.267 180.987 643.267 180.987 C 643.265 180.987 629.428 181.224 629.426 181.224 M 643.275 170.856 C 643.274 170.856 639.316 171.036 637.337 171.126 M 643.267 180.987 C 643.269 177.610 643.275 170.857 643.275 170.856 "/>
<path id="S25" fill="#ffffff" fill-rule="evenodd" stroke="#000000" stroke-width="2" stroke-linecap="round" stroke-linejoin="round" d="M 486.094 570.579 C 495.540 615.034 504.259 644.264 513.341 681.107 C 416.156 681.333 300.305 681.327 206.609 681.107 C 216.675 644.238 226.863 615.211 236.808 570.502 C 238.570 562.550 299.994 181.025 300.000 180.986 C 300.001 180.986 309.753 180.986 309.754 180.986 C 309.755 180.986 319.597 180.986 319.598 180.986 C 319.599 180.986 329.440 180.986 329.441 180.986 C 329.442 180.986 339.284 180.986 339.285 180.986 C 339.286 180.986 381.557 180.986 381.558 180.986 C 381.559 180.986 391.401 180.986 391.402 180.986 C 391.403 180.986 401.246 180.986 401.246 180.986 C 401.247 180.986 411.090 180.986 411.091 180.986 C 411.092 180.986 419.999 180.986 420.000 180.986 C 420.007 181.025 484.358 562.375 486.094 570.579 Z"/>
<path fill="none" stroke="#000000" stroke-width="1" stroke-linecap="butt" stroke-linejoin="round" d="M 300.000 180.986 C 299.994 181.025 238.570 562.550 236.808 570.502 "/>
<path id="S27" fill="#000000" fill-rule="evenodd" stroke="#000000" stroke-width="2" stroke-linecap="round" stroke-linejoin="round" d="M 300.000 180.986 C 299.994 181.025 238.570 562.550 236.808 570.502 C 213.470 569.843 202.529 610.596 179.546 609.737 C 179.569 597.173 180.000 220.986 180.000 220.986 C 180.000 220.986 299.988 180.991 300.000 180.986 Z"/>
<path fill="none" stroke="#000000" stroke-width="1" stroke-linecap="butt" stroke-linejoin="round" d="M 420.000 180.986 C 420.007 181.025 484.358 562.375 486.094 570.579 "/>
<path id="S28" fill="#000000" fill-rule="evenodd" stroke="#000000" stroke-width="2" stroke-linecap="round" stroke-linejoin="round" d="M 486.094 570.579 C 508.633 570.518 518.000 610.327 540.104 610.015 C 540.106 598.513 539.963 218.441 539.963 218.441 C 539.963 218.441 420.012 180.990 420.000 180.986 C 420.007 181.025 484.358 562.375 486.094 570.579 Z"/>
<path fill="none" stroke="#000000" stroke-width="1" stroke-linecap="butt" stroke-linejoin="round" d="M 486.094 570.579 C 508.633 570.518 518.000 610.327 540.104 610.015 "/>
<path fill="none" stroke="#000000" stroke-width="1" stroke-linecap="butt" stroke-linejoin="round" d="M 513.341 681.107 C 504.259 644.264 495.540 615.034 486.094 570.579 "/>
<path id="S29" fill="#000000" fill-rule="evenodd" stroke="#000000" stroke-width="2" stroke-linecap="round" stroke-linejoin="round" d="M 486.094 570.579 C 508.633 570.518 518.000 610.327 540.104 610.015 C 540.081 648.305 540.036 680.951 540.000 680.987 C 539.983 681.003 528.227 681.072 513.341 681.107 C 504.259 644.264 495.540 615.034 486.094 570.579 Z"/>
<path fill="none" stroke="#000000" stroke-width="1" stroke-linecap="butt" stroke-linejoin="round" d="M 179.546 609.737 C 202.529 610.596 213.470 569.843 236.808 570.502 "/>
<path fill="none" stroke="#000000" stroke-width="1" stroke-linecap="butt" stroke-linejoin="round" d="M 236.808 570.502 C 226.863 615.211 216.675 644.238 206.609 681.107 "/>
<path id="S30" fill="#000000" fill-rule="evenodd" stroke="#000000" stroke-width="2" stroke-linecap="round" stroke-linejoin="round" d="M 179.546 609.737 C 202.529 610.596 213.470 569.843 236.808 570.502 C 226.863 615.211 216.675 644.238 206.609 681.107 C 191.391 681.071 180.017 681.003 180.000 680.987 C 179.963 680.951 179.776 647.619 179.546 609.737 Z"/>
<path fill="none" stroke="#ffffff" stroke-width="1" stroke-linecap="butt" stroke-linejoin="round" d="M 539.963 218.441 C 539.963 218.441 540.106 598.513 540.104 610.015 "/>
<path id="S24" fill="#ffffff" fill-rule="evenodd" stroke="#000000" stroke-width="2" stroke-linecap="round" stroke-linejoin="round" d="M 629.399 160.732 C 626.365 162.337 563.494 203.257 539.963 218.441 C 539.963 218.441 540.106 598.513 540.104 610.015 C 662.073 608.316 629.399 160.732 629.399 160.732 Z"/>
<path fill="none" stroke="#ffffff" stroke-width="1" stroke-linecap="butt" stroke-linejoin="round" d="M 179.546 609.737 C 179.569 597.173 180.000 220.986 180.000 220.986 "/>
<path id="S31" fill="#ffffff" fill-rule="evenodd" stroke="#000000" stroke-width="2" stroke-linecap="round" stroke-linejoin="round" d="M 90.361 161.227 C 90.955 195.794 58.136 605.208 179.546 609.737 C 179.569 597.173 180.000 220.986 180.000 220.986 C 153.333 203.209 96.289 165.179 90.361 161.227 Z"/>
<path id="S33" fill="none" stroke="#000000" stroke-width="2" stroke-linecap="round" stroke-linejoin="round" d="M 539.348 579.571 C 639.745 570.788 616.249 169.809 616.249 169.809 "/>
<path id="S33_2" fill="none" stroke="#000000" stroke-width="2" stroke-linecap="round" stroke-linejoin="round" d="M 179.783 579.571 C 79.386 570.788 102.883 169.809 102.883 169.809 "/>
<path id="S34" fill="none" stroke="#ffffff" stroke-width="2" stroke-linecap="round" stroke-linejoin="round" d="M 286.896 185.741 C 266.129 306.811 222.306 564.636 220.501 572.532 C 210.429 616.409 200.368 644.911 190.302 681.100 "/>
<path id="S34_2" fill="none" stroke="#ffffff" stroke-width="2" stroke-linecap="round" stroke-linejoin="round" d="M 433.104 185.741 C 453.871 306.811 497.694 564.636 499.499 572.532 C 509.571 616.409 519.632 644.911 529.698 681.100 "/>
<path id="S35" fill="none" stroke="#ffffff" stroke-width="2" stroke-linecap="round" stroke-linejoin="round" d="M 381.558 180.986 C 379.081 152.581 376.604 124.175 374.127 95.769 C 374.128 95.769 381.096 95.769 381.096 95.769 C 384.532 124.175 387.967 152.581 391.402 180.986 C 391.401 180.986 381.559 180.986 381.558 180.986 C 381.557 180.986 339.286 180.986 339.285 180.986 C 341.615 152.581 343.944 124.175 346.274 95.769 C 346.274 95.769 374.127 95.769 374.127 95.769 M 401.246 180.986 C 396.853 152.581 392.459 124.175 388.065 95.769 C 388.066 95.769 395.035 95.769 395.035 95.769 C 400.387 124.175 405.739 152.581 411.091 180.986 C 411.090 180.986 401.247 180.986 401.246 180.986 C 401.246 180.986 391.403 180.986 391.402 180.986 M 329.441 180.986 C 332.729 152.581 336.017 124.175 339.305 95.769 C 339.306 95.769 346.273 95.769 346.274 95.769 M 319.598 180.986 C 323.844 152.581 328.090 124.175 332.337 95.769 C 332.337 95.769 339.305 95.769 339.305 95.769 M 317.522 95.769 C 317.523 95.769 325.367 95.769 325.368 95.769 C 325.368 95.769 332.336 95.769 332.337 95.769 M 300.000 180.986 C 300.002 180.978 317.520 95.778 317.522 95.769 M 420.000 180.986 C 419.999 180.986 300.011 180.986 300.000 180.986 M 402.478 95.769 C 402.480 95.778 419.998 180.978 420.000 180.986 M 395.035 95.769 C 395.036 95.769 402.477 95.769 402.478 95.769 M 381.096 95.769 C 381.097 95.769 388.065 95.769 388.065 95.769 M 309.754 180.986 C 314.959 152.581 320.163 124.175 325.368 95.769 M 319.598 180.986 C 319.597 180.986 309.755 180.986 309.754 180.986 M 329.441 180.986 C 329.440 180.986 319.599 180.986 319.598 180.986 M 339.285 180.986 C 339.284 180.986 329.442 180.986 329.441 180.986 "/>
<path id="S36" fill="#000000" fill-rule="evenodd" stroke="none" d="M 367.558 120.600 C 367.558 113.250 373.488 107.322 380.838 107.322 C 388.187 107.322 394.117 113.250 394.117 120.600 C 394.117 127.950 388.188 133.880 380.838 133.880 C 373.487 133.880 367.558 127.950 367.558 120.600 M 325.883 120.600 C 325.883 113.250 331.812 107.320 339.163 107.320 C 346.513 107.320 352.442 113.250 352.442 120.600 C 352.442 127.950 346.513 133.880 339.163 133.880 C 331.812 133.880 325.883 127.950 325.883 120.600 Z"/>
<path id="S17" fill="#ffffff" fill-rule="evenodd" stroke="#000000" stroke-width="2" stroke-linecap="round" stroke-linejoin="round" d="M 339.163 113.990 C 342.821 113.990 345.773 116.941 345.773 120.600 C 345.773 124.259 342.821 127.210 339.163 127.210 C 335.504 127.210 332.553 124.259 332.553 120.600 C 332.553 116.942 335.504 113.990 339.163 113.990 Z"/>
<path id="S17_2" fill="#ffffff" fill-rule="evenodd" stroke="#000000" stroke-width="2" stroke-linecap="round" stroke-linejoin="round" d="M 381.005 113.990 C 384.664 113.990 387.616 116.941 387.616 120.600 C 387.616 124.259 384.664 127.210 381.005 127.210 C 377.347 127.210 374.396 124.258 374.396 120.600 C 374.396 116.942 377.347 113.991 381.005 113.990 Z"/>
<path fill="none" stroke="#ffffff" stroke-width="1" stroke-linecap="butt" stroke-linejoin="round" d="M 367.558 120.600 C 367.558 113.250 373.488 107.322 380.838 107.322 "/>
<path fill="none" stroke="#ffffff" stroke-width="1" stroke-linecap="butt" stroke-linejoin="round" d="M 380.838 107.322 C 388.187 107.322 394.117 113.250 394.117 120.600 "/>
<path fill="none" stroke="#ffffff" stroke-width="1" stroke-linecap="butt" stroke-linejoin="round" d="M 394.117 120.600 C 394.117 127.950 388.188 133.880 380.838 133.880 "/>
<path fill="none" stroke="#ffffff" stroke-width="1" stroke-linecap="butt" stroke-linejoin="round" d="M 380.838 133.880 C 373.487 133.880 367.558 127.950 367.558 120.600 "/>
<path fill="none" stroke="#ffffff" stroke-width="1" stroke-linecap="butt" stroke-linejoin="round" d="M 325.883 120.600 C 325.883 113.250 331.812 107.320 339.163 107.320 "/>
<path fill="none" stroke="#ffffff" stroke-width="1" stroke-linecap="butt" stroke-linejoin="round" d="M 339.163 107.320 C 346.513 107.320 352.442 113.250 352.442 120.600 "/>
<path fill="none" stroke="#ffffff" stroke-width="1" stroke-linecap="butt" stroke-linejoin="round" d="M 352.442 120.600 C 352.442 127.950 346.513 133.880 339.163 133.880 "/>
<path fill="none" stroke="#ffffff" stroke-width="1" stroke-linecap="butt" stroke-linejoin="round" d="M 339.163 133.880 C 331.812 133.880 325.883 127.950 325.883 120.600 "/>
<path id="S20" fill="#ffffff" fill-rule="evenodd" stroke="#000000" stroke-width="2" stroke-linecap="round" stroke-linejoin="round" d="M 367.558 120.600 C 367.558 113.250 373.488 107.322 380.838 107.322 C 388.187 107.322 394.117 113.250 394.117 120.600 C 394.117 127.950 388.188 133.880 380.838 133.880 C 373.487 133.880 367.558 127.950 367.558 120.600 M 325.883 120.600 C 325.883 113.250 331.812 107.320 339.163 107.320 C 346.513 107.320 352.442 113.250 352.442 120.600 C 352.442 127.950 346.513 133.880 339.163 133.880 C 331.812 133.880 325.883 127.950 325.883 120.600 M 360.000 180.974 C 350.659 180.974 319.996 160.968 317.104 99.846 C 317.100 99.760 402.896 99.846 402.896 99.846 C 400.004 160.968 369.341 180.974 360.000 180.974 Z"/>
<path id="S21" fill="none" stroke="#000000" stroke-width="2" stroke-linecap="round" stroke-linejoin="round" d="M 356.638 154.386 C 356.638 154.381 356.638 106.644 356.638 106.639 C 356.639 106.639 363.361 106.639 363.362 106.639 C 363.362 106.644 363.362 154.381 363.362 154.386 C 363.361 154.386 356.639 154.386 356.638 154.386 "/>
<path id="S19" fill="none" stroke="#000000" stroke-width="2" stroke-linecap="round" stroke-linejoin="round" d="M 352.593 165.598 C 357.531 165.598 362.469 165.598 367.407 165.598 "/>
<path id="S23" fill="#000000" fill-rule="evenodd" stroke="#ffffff" stroke-width="2" stroke-linecap="round" stroke-linejoin="round" d="M 382.212 102.860 C 382.213 102.860 394.870 102.858 394.871 102.858 C 394.873 102.858 401.239 102.857 404.423 102.856 C 404.420 102.855 398.791 61.022 359.835 61.111 C 321.027 61.200 315.577 102.870 315.577 102.870 C 319.279 102.870 326.682 102.868 326.683 102.868 C 326.684 102.868 337.787 102.867 337.788 102.867 C 337.790 102.867 348.893 102.865 348.894 102.865 C 348.896 102.865 359.999 102.863 360.000 102.863 C 360.001 102.863 370.327 102.862 370.328 102.862 C 370.329 102.862 382.210 102.860 382.212 102.860 Z"/>
<path id="S37" fill="none" stroke="#ffffff" stroke-width="2" stroke-linecap="round" stroke-linejoin="round" d="M 326.683 102.868 C 327.893 68.552 359.832 61.115 359.835 61.111 C 359.833 61.115 340.296 72.445 337.788 102.867 C 337.787 102.867 326.684 102.868 326.683 102.868 M 370.328 102.862 C 371.304 75.525 359.837 61.115 359.835 61.111 C 359.838 61.115 382.567 70.470 382.212 102.860 C 382.210 102.860 370.329 102.862 370.328 102.862 C 370.327 102.862 360.001 102.863 360.000 102.863 C 360.000 102.859 359.836 61.115 359.835 61.111 C 359.834 61.115 349.321 76.780 348.894 102.865 C 348.893 102.865 337.790 102.867 337.788 102.867 M 394.871 102.858 C 394.560 70.006 363.234 61.670 363.231 61.666 C 363.230 61.666 360.967 61.296 359.835 61.111 M 348.894 102.865 C 348.896 102.865 359.999 102.863 360.000 102.863 M 382.212 102.860 C 382.213 102.860 394.870 102.858 394.871 102.858 "/>
<path fill="none" stroke="#ffffff" stroke-width="1" stroke-linecap="butt" stroke-linejoin="round" d="M 394.871 102.858 C 394.873 102.858 401.239 102.857 404.423 102.856 "/>
<path fill="none" stroke="#ffffff" stroke-width="1" stroke-linecap="butt" stroke-linejoin="round" d="M 315.577 102.870 C 319.279 102.870 326.682 102.868 326.683 102.868 "/>
<path fill="none" stroke="#ffffff" stroke-width="1" stroke-linecap="butt" stroke-linejoin="round" d="M 326.683 102.868 C 326.684 102.868 337.787 102.867 337.788 102.867 "/>
<path fill="none" stroke="#ffffff" stroke-width="1" stroke-linecap="butt" stroke-linejoin="round" d="M 337.788 102.867 C 337.790 102.867 348.893 102.865 348.894 102.865 "/>
<path fill="none" stroke="#ffffff" stroke-width="1" stroke-linecap="butt" stroke-linejoin="round" d="M 348.894 102.865 C 348.896 102.865 359.999 102.863 360.000 102.863 "/>
<path fill="none" stroke="#ffffff" stroke-width="1" stroke-linecap="butt" stroke-linejoin="round" d="M 360.000 102.863 C 360.001 102.863 370.327 102.862 370.328 102.862 "/>
<path fill="none" stroke="#ffffff" stroke-width="1" stroke-linecap="butt" stroke-linejoin="round" d="M 370.328 102.862 C 370.329 102.862 382.210 102.860 382.212 102.860 "/>
<path fill="none" stroke="#ffffff" stroke-width="1" stroke-linecap="butt" stroke-linejoin="round" d="M 382.212 102.860 C 382.213 102.860 394.870 102.858 394.871 102.858 "/>
<path id="S22" fill="#ffffff" fill-rule="evenodd" stroke="#000000" stroke-width="2" stroke-linecap="round" stroke-linejoin="round" d="M 394.871 102.858 C 394.873 102.858 401.239 102.857 404.423 102.856 C 404.423 102.858 407.221 117.744 407.222 117.746 C 407.212 117.746 312.788 117.746 312.778 117.746 C 312.779 117.744 315.577 102.870 315.577 102.870 C 319.279 102.870 326.682 102.868 326.683 102.868 C 326.684 102.868 337.787 102.867 337.788 102.867 C 337.790 102.867 348.893 102.865 348.894 102.865 C 348.896 102.865 359.999 102.863 360.000 102.863 C 360.001 102.863 370.327 102.862 370.328 102.862 C 370.329 102.862 382.210 102.860 382.212 102.860 C 382.213 102.860 394.870 102.858 394.871 102.858 Z"/>
</g>
<g id="specs_2">
<path fill="#ff00ff" fill-rule="evenodd" stroke="none" d="M 278.304 634.020 C 278.320 634.020 441.680 634.020 441.696 634.020 C 441.696 633.979 441.696 221.946 441.696 221.905 C 441.680 221.905 278.320 221.905 278.304 221.905 C 278.304 221.946 278.304 633.979 278.304 634.020 Z"/>
<path fill="#ff0000" fill-rule="evenodd" stroke="none" d="M 360.000 676.706 C 360.001 676.709 372.416 711.472 372.417 711.475 C 372.416 711.474 360.001 699.923 360.000 699.922 C 359.999 699.923 347.584 711.474 347.583 711.475 C 347.584 711.472 359.999 676.709 360.000 676.706 Z"/>
<path fill="#0000ff" fill-rule="evenodd" stroke="none" d="M 360.000 44.891 C 360.001 44.893 367.212 65.086 367.213 65.088 C 367.212 65.087 360.001 58.377 360.000 58.377 C 359.999 58.377 352.788 65.087 352.787 65.088 C 352.788 65.086 359.999 44.893 360.000 44.891 Z"/>
<path fill="#00ffff" fill-rule="evenodd" stroke="none" d="M 56.556 140.316 C 56.557 140.318 63.871 160.474 63.872 160.476 C 63.871 160.476 56.625 153.802 56.624 153.801 C 56.624 153.802 49.446 160.548 49.446 160.549 C 49.446 160.547 56.556 140.318 56.556 140.316 Z"/>
<path fill="#ffff00" fill-rule="evenodd" stroke="none" d="M 658.310 154.689 C 658.309 154.691 650.995 174.848 650.994 174.850 C 650.995 174.849 658.241 168.175 658.242 168.175 C 658.243 168.176 665.420 174.922 665.421 174.922 C 665.420 174.920 658.311 154.691 658.310 154.689 Z"/>
<path fill="#00ff00" fill-rule="evenodd" stroke="none" d="M 668.445 350.579 C 668.442 350.577 633.679 338.162 633.676 338.161 C 633.677 338.162 645.229 350.577 645.230 350.579 C 645.229 350.580 633.677 362.995 633.676 362.996 C 633.679 362.995 668.442 350.580 668.445 350.579 Z"/>
<path fill="#00ff00" fill-rule="evenodd" stroke="none" d="M 51.555 350.579 C 51.558 350.577 86.321 338.162 86.324 338.161 C 86.323 338.162 74.771 350.577 74.770 350.579 C 74.771 350.580 86.323 362.995 86.324 362.996 C 86.321 362.995 51.558 350.580 51.555 350.579 Z"/>
</g>
</g>
</svg>
