<?xml version="1.0" encoding="utf-8"?>
<!-- Generator: Moho 13.5 build 20210422 -->
<!DOCTYPE svg PUBLIC "-//W3C//DTD SVG 1.1//EN" "http://www.w3.org/Graphics/SVG/1.1/DTD/svg11.dtd">
<svg version="1.1" id="Frame_0" xmlns="http://www.w3.org/2000/svg" xmlns:xlink="http://www.w3.org/1999/xlink" width="720px" height="720px">
<g id="magician">
<g id="magician">
<path id="S16" fill="#000000" fill-rule="evenodd" stroke="#ffffff" stroke-width="2" stroke-linecap="round" stroke-linejoin="round" d="M 317.522 95.769 C 317.530 95.769 402.470 95.769 402.478 95.769 C 402.480 95.778 419.998 180.978 420.000 180.986 C 419.999 180.986 300.011 180.986 300.000 180.986 C 300.002 180.978 317.520 95.778 317.522 95.769 Z"/>
<path id="S17" fill="#ffffff" fill-rule="evenodd" stroke="#000000" stroke-width="2" stroke-linecap="round" stroke-linejoin="round" d="M 339.162 114.003 C 342.821 114.003 345.773 116.954 345.773 120.613 C 345.773 124.271 342.821 127.223 339.162 127.223 C 335.504 127.223 332.553 124.271 332.553 120.613 C 332.553 116.954 335.504 114.003 339.162 114.003 Z"/>
<path id="S17_2" fill="#ffffff" fill-rule="evenodd" stroke="#000000" stroke-width="2" stroke-linecap="round" stroke-linejoin="round" d="M 381.005 114.003 C 384.664 114.002 387.616 116.954 387.616 120.613 C 387.616 124.272 384.664 127.223 381.005 127.223 C 377.347 127.222 374.396 124.271 374.396 120.613 C 374.396 116.954 377.347 114.003 381.005 114.003 Z"/>
<path id="S20" fill="#ffffff" fill-rule="evenodd" stroke="#000000" stroke-width="2" stroke-linecap="round" stroke-linejoin="round" d="M 367.558 120.613 C 367.558 113.263 373.488 107.334 380.838 107.334 C 388.187 107.334 394.117 113.263 394.117 120.613 C 394.117 127.963 388.188 133.892 380.838 133.892 C 373.487 133.892 367.558 127.963 367.558 120.613 M 325.883 120.613 C 325.883 113.263 331.812 107.333 339.162 107.333 C 346.513 107.333 352.442 113.263 352.442 120.613 C 352.442 127.963 346.513 133.892 339.162 133.892 C 331.812 133.892 325.883 127.963 325.883 120.613 M 360.000 180.986 C 350.659 180.986 319.996 160.981 317.104 99.858 C 317.100 99.773 402.896 99.858 402.896 99.858 C 400.004 160.981 369.341 180.986 360.000 180.986 Z"/>
<path id="S21" fill="none" stroke="#000000" stroke-width="2" stroke-linecap="round" stroke-linejoin="round" d="M 356.638 154.398 C 356.638 154.394 356.638 106.657 356.638 106.652 C 356.639 106.652 363.361 106.652 363.362 106.652 C 363.362 106.657 363.362 154.394 363.362 154.398 C 363.361 154.398 356.639 154.398 356.638 154.398 "/>
<path id="S19" fill="none" stroke="#000000" stroke-width="2" stroke-linecap="round" stroke-linejoin="round" d="M 352.593 165.611 C 357.531 165.611 362.469 165.611 367.407 165.611 "/>
<path id="S22" fill="#ffffff" fill-rule="evenodd" stroke="#000000" stroke-width="2" stroke-linecap="round" stroke-linejoin="round" d="M 315.577 102.883 C 345.192 102.878 374.808 102.874 404.423 102.869 C 404.423 102.871 407.221 117.757 407.222 117.758 C 407.212 117.758 312.788 117.758 312.778 117.758 C 312.779 117.757 315.577 102.883 315.577 102.883 Z"/>
<path fill="none" stroke="#000000" stroke-width="1" stroke-linecap="butt" stroke-linejoin="round" d="M 315.577 102.883 C 345.192 102.878 374.808 102.874 404.423 102.869 "/>
<path id="S23" fill="#000000" fill-rule="evenodd" stroke="#ffffff" stroke-width="2" stroke-linecap="round" stroke-linejoin="round" d="M 315.577 102.883 C 345.192 102.878 374.808 102.874 404.423 102.869 C 404.420 102.868 398.791 61.035 359.835 61.124 C 321.027 61.212 315.577 102.883 315.577 102.883 Z"/>
<path id="S5" fill="#ffffff" fill-rule="evenodd" stroke="#000000" stroke-width="2" stroke-linecap="round" stroke-linejoin="round" d="M 669.426 180.987 C 669.424 180.987 649.428 180.987 649.426 180.987 C 649.426 179.150 649.426 177.038 649.426 174.915 C 656.093 174.998 662.760 175.081 669.426 175.164 C 669.426 175.165 669.426 180.987 669.426 180.987 Z"/>
<path fill="none" stroke="#ffffff" stroke-width="1" stroke-linecap="butt" stroke-linejoin="round" d="M 669.426 175.164 C 662.760 175.081 656.093 174.998 649.426 174.915 "/>
<path id="S6" fill="#ffffff" fill-rule="evenodd" stroke="#000000" stroke-width="2" stroke-linecap="round" stroke-linejoin="round" d="M 669.426 167.350 C 669.426 167.350 669.426 175.163 669.426 175.164 C 662.760 175.081 656.093 174.998 649.426 174.915 C 649.426 172.461 649.426 169.929 649.426 167.621 C 656.093 167.530 662.760 167.440 669.426 167.350 Z"/>
<path fill="none" stroke="#ffffff" stroke-width="1" stroke-linecap="butt" stroke-linejoin="round" d="M 669.426 167.350 C 662.760 167.440 656.093 167.530 649.426 167.621 "/>
<path id="S7" fill="#ffffff" fill-rule="evenodd" stroke="#000000" stroke-width="2" stroke-linecap="round" stroke-linejoin="round" d="M 669.426 160.987 C 669.426 160.987 669.426 167.349 669.426 167.350 C 662.760 167.440 656.093 167.530 649.426 167.621 C 649.426 164.645 649.426 160.987 649.426 160.987 C 649.428 160.987 669.424 160.986 669.426 160.987 Z"/>
<path id="S12" fill="#ffffff" fill-rule="evenodd" stroke="none" d="M 89.656 160.987 C 89.656 160.989 89.656 180.985 89.656 180.987 C 89.654 180.987 69.658 180.987 69.656 180.987 C 69.652 180.985 29.660 160.989 29.656 160.987 C 29.657 160.987 39.647 160.987 39.648 160.987 C 39.649 160.987 50.679 160.987 50.680 160.987 C 50.681 160.987 60.962 160.987 60.963 160.987 C 60.966 160.987 89.653 160.987 89.656 160.987 Z"/>
<path id="S12" fill="none" stroke="#000000" stroke-width="2" stroke-linecap="round" stroke-linejoin="round" d="M 60.963 160.987 C 60.966 160.987 89.653 160.987 89.656 160.987 C 89.656 160.989 89.656 180.985 89.656 180.987 C 89.654 180.987 69.658 180.987 69.656 180.987 C 69.652 180.985 29.660 160.989 29.656 160.987 C 29.657 160.987 39.647 160.987 39.648 160.987 C 39.649 160.987 50.679 160.987 50.680 160.987 C 50.681 160.987 60.962 160.987 60.963 160.987 C 67.144 164.186 73.326 167.386 79.508 170.586 M 39.648 160.987 C 47.403 164.726 55.157 168.466 62.912 172.205 M 50.680 160.987 C 57.655 164.456 64.630 167.926 71.605 171.396 "/>
<path fill="none" stroke="#ffffff" stroke-width="1" stroke-linecap="butt" stroke-linejoin="round" d="M 649.426 160.987 C 649.426 160.987 649.426 164.645 649.426 167.621 "/>
<path fill="none" stroke="#ffffff" stroke-width="1" stroke-linecap="butt" stroke-linejoin="round" d="M 649.426 167.621 C 649.426 169.929 649.426 172.461 649.426 174.915 "/>
<path fill="none" stroke="#ffffff" stroke-width="1" stroke-linecap="butt" stroke-linejoin="round" d="M 649.426 174.915 C 649.426 177.038 649.426 179.150 649.426 180.987 "/>
<path id="S26" fill="#ffffff" fill-rule="evenodd" stroke="none" d="M 629.426 181.224 C 629.426 181.222 629.426 160.989 629.426 160.987 C 629.428 160.987 649.157 160.612 649.426 160.987 C 649.426 160.987 649.426 164.645 649.426 167.621 C 649.426 169.929 649.426 172.461 649.426 174.915 C 649.426 177.038 649.426 179.150 649.426 180.987 C 649.426 180.987 643.267 180.987 643.267 180.987 C 643.265 180.987 629.428 181.224 629.426 181.224 Z"/>
<path id="S26" fill="none" stroke="#000000" stroke-width="2" stroke-linecap="round" stroke-linejoin="round" d="M 629.426 181.224 C 629.426 181.222 629.426 160.989 629.426 160.987 C 629.428 160.987 649.157 160.612 649.426 160.987 C 649.426 160.987 649.426 164.645 649.426 167.621 C 649.426 169.929 649.426 172.461 649.426 174.915 C 649.426 177.038 649.426 179.150 649.426 180.987 C 649.426 180.987 643.267 180.987 643.267 180.987 C 643.265 180.987 629.428 181.224 629.426 181.224 M 643.275 170.856 C 643.274 170.856 639.316 171.036 637.337 171.126 M 643.267 180.987 C 643.269 177.610 643.275 170.857 643.275 170.856 "/>
<path id="S14" fill="#000000" fill-rule="evenodd" stroke="#ffffff" stroke-width="2" stroke-linecap="round" stroke-linejoin="round" d="M 629.399 160.732 C 626.515 162.593 617.863 168.175 612.130 171.875 C 623.150 201.636 629.006 233.109 629.006 265.984 C 629.005 346.387 593.981 418.396 539.853 466.260 C 540.096 476.152 540.100 484.389 540.104 492.437 C 607.206 438.384 649.153 357.210 649.154 265.984 C 649.153 229.174 629.399 160.732 629.399 160.732 Z"/>
<path id="S15" fill="#000000" fill-rule="evenodd" stroke="#ffffff" stroke-width="2" stroke-linecap="round" stroke-linejoin="round" d="M 90.994 265.984 C 90.994 344.897 124.734 415.726 179.532 465.705 C 179.560 474.571 179.586 483.395 179.546 492.159 C 112.794 438.384 70.847 357.210 70.847 265.984 C 70.846 229.174 77.676 194.000 90.361 161.227 C 96.289 165.179 102.098 169.051 107.606 172.723 C 96.729 202.292 90.994 233.451 90.994 265.984 Z"/>
<path fill="none" stroke="#ffffff" stroke-width="1" stroke-linecap="butt" stroke-linejoin="round" d="M 539.853 466.260 C 593.981 418.396 629.005 346.387 629.006 265.984 "/>
<path fill="none" stroke="#ffffff" stroke-width="1" stroke-linecap="butt" stroke-linejoin="round" d="M 629.006 265.984 C 629.006 233.109 623.150 201.636 612.130 171.875 "/>
<path id="S18" fill="#ffffff" fill-rule="evenodd" stroke="#000000" stroke-width="2" stroke-linecap="round" stroke-linejoin="round" d="M 612.130 171.875 C 588.913 186.856 563.494 203.257 539.963 218.441 C 539.963 218.441 540.042 371.578 539.853 466.260 C 593.981 418.396 629.005 346.387 629.006 265.984 C 629.006 233.109 623.150 201.636 612.130 171.875 Z"/>
<path fill="none" stroke="#ffffff" stroke-width="1" stroke-linecap="butt" stroke-linejoin="round" d="M 90.994 265.984 C 90.994 344.897 124.734 415.726 179.532 465.705 "/>
<path fill="none" stroke="#ffffff" stroke-width="1" stroke-linecap="butt" stroke-linejoin="round" d="M 107.606 172.723 C 96.729 202.292 90.994 233.451 90.994 265.984 "/>
<path id="S24" fill="#ffffff" fill-rule="evenodd" stroke="#000000" stroke-width="2" stroke-linecap="round" stroke-linejoin="round" d="M 90.994 265.984 C 90.994 344.897 124.734 415.726 179.532 465.705 C 179.933 371.004 180.000 220.986 180.000 220.986 C 153.333 203.209 130.934 188.275 107.606 172.723 C 96.729 202.292 90.994 233.451 90.994 265.984 Z"/>
<path id="S25" fill="#ffffff" fill-rule="evenodd" stroke="#000000" stroke-width="2" stroke-linecap="round" stroke-linejoin="round" d="M 484.594 527.247 C 496.089 588.670 503.759 629.820 513.341 681.107 C 416.156 681.333 300.305 681.327 206.609 681.107 C 216.175 629.794 223.870 588.669 235.308 527.169 C 236.631 520.022 279.765 289.346 300.000 180.986 C 300.005 180.987 419.999 180.987 420.000 180.986 C 440.224 289.346 483.226 519.898 484.594 527.247 Z"/>
<path fill="none" stroke="#000000" stroke-width="1" stroke-linecap="butt" stroke-linejoin="round" d="M 300.000 180.986 C 279.765 289.346 236.631 520.022 235.308 527.169 "/>
<path fill="none" stroke="#000000" stroke-width="1" stroke-linecap="butt" stroke-linejoin="round" d="M 179.546 492.159 C 179.586 483.395 179.560 474.571 179.532 465.705 "/>
<path fill="none" stroke="#000000" stroke-width="1" stroke-linecap="butt" stroke-linejoin="round" d="M 179.532 465.705 C 179.933 371.004 180.000 220.986 180.000 220.986 "/>
<path id="S27" fill="#000000" fill-rule="evenodd" stroke="#ffffff" stroke-width="2" stroke-linecap="round" stroke-linejoin="round" d="M 300.000 180.986 C 279.765 289.346 236.631 520.022 235.308 527.169 C 215.305 517.667 196.534 505.846 179.546 492.159 C 179.586 483.395 179.560 474.571 179.532 465.705 C 179.933 371.004 180.000 220.986 180.000 220.986 C 180.000 220.986 299.988 180.992 300.000 180.986 Z"/>
<path fill="none" stroke="#000000" stroke-width="1" stroke-linecap="butt" stroke-linejoin="round" d="M 540.104 492.437 C 540.100 484.389 540.096 476.152 539.853 466.260 "/>
<path fill="none" stroke="#000000" stroke-width="1" stroke-linecap="butt" stroke-linejoin="round" d="M 539.853 466.260 C 540.042 371.578 539.963 218.441 539.963 218.441 "/>
<path fill="none" stroke="#000000" stroke-width="1" stroke-linecap="butt" stroke-linejoin="round" d="M 420.000 180.986 C 440.224 289.346 483.226 519.898 484.594 527.247 "/>
<path id="S28" fill="#000000" fill-rule="evenodd" stroke="#ffffff" stroke-width="2" stroke-linecap="round" stroke-linejoin="round" d="M 484.594 527.247 C 504.547 517.785 523.239 506.027 540.104 492.437 C 540.100 484.389 540.096 476.152 539.853 466.260 C 540.042 371.578 539.963 218.441 539.963 218.441 C 539.963 218.441 420.012 180.992 420.000 180.986 C 440.224 289.346 483.226 519.898 484.594 527.247 Z"/>
<path fill="none" stroke="#000000" stroke-width="1" stroke-linecap="butt" stroke-linejoin="round" d="M 484.594 527.247 C 504.547 517.785 523.239 506.027 540.104 492.437 "/>
<path fill="none" stroke="#000000" stroke-width="1" stroke-linecap="butt" stroke-linejoin="round" d="M 513.341 681.107 C 503.759 629.820 496.089 588.670 484.594 527.247 "/>
<path id="S29" fill="#000000" fill-rule="evenodd" stroke="#ffffff" stroke-width="2" stroke-linecap="round" stroke-linejoin="round" d="M 484.594 527.247 C 504.547 517.785 523.239 506.027 540.104 492.437 C 540.108 594.161 540.102 680.899 540.000 680.987 C 539.982 681.002 528.227 681.072 513.341 681.107 C 503.759 629.820 496.089 588.670 484.594 527.247 Z"/>
<path fill="none" stroke="#000000" stroke-width="1" stroke-linecap="butt" stroke-linejoin="round" d="M 179.546 492.159 C 196.534 505.846 215.305 517.667 235.308 527.169 "/>
<path fill="none" stroke="#000000" stroke-width="1" stroke-linecap="butt" stroke-linejoin="round" d="M 235.308 527.169 C 223.870 588.669 216.175 629.794 206.609 681.107 "/>
<path id="S30" fill="#000000" fill-rule="evenodd" stroke="#ffffff" stroke-width="2" stroke-linecap="round" stroke-linejoin="round" d="M 179.546 492.159 C 196.534 505.846 215.305 517.667 235.308 527.169 C 223.870 588.669 216.175 629.794 206.609 681.107 C 191.391 681.071 180.018 681.002 180.000 680.987 C 179.896 680.898 179.884 592.555 179.546 492.159 Z"/>
</g>
<g id="specs_2">
<path fill="#ff00ff" fill-rule="evenodd" stroke="none" d="M 278.304 634.020 C 278.320 634.020 441.680 634.020 441.696 634.020 C 441.696 633.979 441.696 221.946 441.696 221.905 C 441.680 221.905 278.320 221.905 278.304 221.905 C 278.304 221.946 278.304 633.979 278.304 634.020 Z"/>
<path fill="#ff0000" fill-rule="evenodd" stroke="none" d="M 360.000 676.706 C 360.001 676.709 372.416 711.472 372.417 711.475 C 372.416 711.474 360.001 699.923 360.000 699.922 C 359.999 699.923 347.584 711.474 347.583 711.475 C 347.584 711.472 359.999 676.709 360.000 676.706 Z"/>
<path fill="#0000ff" fill-rule="evenodd" stroke="none" d="M 360.000 44.891 C 360.001 44.893 367.212 65.086 367.213 65.088 C 367.212 65.087 360.001 58.377 360.000 58.377 C 359.999 58.377 352.788 65.087 352.787 65.088 C 352.788 65.086 359.999 44.893 360.000 44.891 Z"/>
<path fill="#00ffff" fill-rule="evenodd" stroke="none" d="M 56.556 140.316 C 56.557 140.318 63.871 160.474 63.872 160.476 C 63.871 160.476 56.625 153.802 56.624 153.801 C 56.624 153.802 49.446 160.548 49.446 160.549 C 49.446 160.547 56.556 140.318 56.556 140.316 Z"/>
<path fill="#ffff00" fill-rule="evenodd" stroke="none" d="M 658.310 154.689 C 658.309 154.691 650.995 174.848 650.994 174.850 C 650.995 174.849 658.241 168.175 658.242 168.175 C 658.243 168.176 665.420 174.922 665.421 174.922 C 665.420 174.920 658.311 154.691 658.310 154.689 Z"/>
</g>
</g>
</svg>
