<?xml version="1.0" encoding="utf-8"?>
<!-- Generator: Moho 13.5 build 20210422 -->
<!DOCTYPE svg PUBLIC "-//W3C//DTD SVG 1.1//EN" "http://www.w3.org/Graphics/SVG/1.1/DTD/svg11.dtd">
<svg version="1.1" id="Frame_0" xmlns="http://www.w3.org/2000/svg" xmlns:xlink="http://www.w3.org/1999/xlink" width="720px" height="720px">
<g id="man">
<g id="hair">
<path fill="#000000" fill-rule="evenodd" stroke="none" d="M 359.703 74.297 C 365.656 74.190 371.862 71.553 377.201 73.984 C 381.637 76.004 383.360 81.495 386.964 85.025 C 391.204 89.177 398.538 90.874 400.967 96.750 C 403.587 103.089 398.643 110.513 398.643 118.211 C 398.643 125.909 403.587 133.333 400.967 139.673 C 398.538 145.548 390.852 146.914 386.964 151.398 C 382.694 156.323 382.677 165.048 376.903 167.568 C 371.618 169.875 365.853 164.370 360.000 164.370 C 354.147 164.370 348.382 169.875 343.097 167.568 C 337.323 165.048 337.306 156.323 333.036 151.398 C 329.148 146.914 321.462 145.549 319.033 139.673 C 316.413 133.333 321.357 125.909 321.357 118.211 C 321.357 110.513 316.413 103.090 319.033 96.750 C 321.462 90.874 328.912 89.292 333.036 85.025 C 336.197 81.753 337.411 76.648 341.314 74.625 C 346.787 71.788 353.446 74.408 359.703 74.297 Z"/>
</g>
<g id="man">
<path fill="#ffffff" fill-rule="evenodd" stroke="none" d="M 344.965 404.515 C 342.615 424.084 357.913 420.875 357.915 423.684 C 357.959 499.637 346.744 503.063 347.304 514.104 C 347.543 518.818 354.288 542.404 354.758 552.251 C 357.795 615.866 338.014 619.956 344.611 637.019 C 351.931 655.953 342.996 657.437 345.783 663.251 C 348.584 669.094 354.471 679.617 342.700 680.105 C 321.392 680.988 336.929 667.411 334.209 667.279 C 331.359 667.142 334.019 678.775 329.384 679.396 C 319.143 680.770 328.546 668.013 327.540 668.114 C 326.112 668.258 327.637 679.724 323.685 679.802 C 314.497 679.983 323.314 668.729 322.112 669.191 C 320.322 669.879 321.598 678.613 317.966 679.054 C 307.990 680.267 318.042 668.936 316.704 669.314 C 313.651 670.177 316.896 678.751 310.470 679.209 C 303.327 679.718 308.660 671.411 314.313 666.247 C 315.740 664.945 315.891 662.627 318.380 657.854 C 321.656 651.571 322.947 641.708 323.128 639.402 C 323.879 629.786 315.696 606.312 311.644 560.812 C 309.931 541.575 317.022 533.602 314.186 513.712 C 308.958 477.043 295.136 462.722 297.874 394.155 C 299.231 360.156 314.814 335.942 315.408 327.606 C 315.886 320.895 310.316 280.405 309.471 272.520 C 308.583 264.229 309.894 242.458 309.720 244.807 C 305.599 300.459 298.822 304.428 299.028 313.493 C 299.163 319.389 290.811 340.178 283.901 353.132 C 277.444 365.235 261.407 380.206 261.064 385.538 C 260.880 388.403 257.377 406.752 256.431 409.150 C 255.453 411.629 245.845 431.623 243.248 430.241 C 241.117 429.108 248.122 410.698 247.339 410.241 C 246.319 409.645 238.257 435.199 235.364 433.972 C 232.575 432.788 242.679 409.532 242.032 409.235 C 241.355 408.925 231.333 433.815 228.502 432.386 C 225.737 430.992 238.250 408.143 237.535 407.806 C 236.847 407.481 224.337 431.581 223.464 428.730 C 221.361 421.871 237.714 398.766 235.078 398.492 C 231.110 398.079 227.649 408.774 224.485 410.888 C 222.463 412.238 220.273 411.185 220.813 410.068 C 233.440 383.908 238.773 388.623 243.082 380.477 C 248.613 370.020 249.586 340.705 271.203 305.535 C 275.414 298.686 266.728 281.735 274.990 236.867 C 277.865 221.254 270.620 214.771 281.841 198.223 C 293.933 180.391 307.207 184.066 341.667 172.106 C 347.001 170.255 345.834 154.486 345.191 150.129 C 344.845 147.781 332.406 138.490 331.436 136.332 C 329.811 132.714 328.974 107.203 330.786 103.674 C 332.734 99.879 342.005 84.619 359.891 83.997 C 377.855 85.131 386.588 99.898 388.453 103.674 C 390.278 107.372 388.680 133.910 386.827 137.593 C 385.882 139.470 374.935 147.204 374.047 149.260 C 372.305 153.293 372.035 170.174 377.571 172.106 C 412.010 184.127 425.305 180.391 437.397 198.223 C 448.619 214.771 441.393 221.250 444.248 236.867 C 453.107 285.318 443.032 299.241 448.035 305.535 C 470.180 333.399 471.290 370.598 476.753 379.879 C 481.445 387.849 491.476 386.896 498.425 410.068 C 499.342 413.124 495.678 411.579 495.347 411.542 C 493.594 411.347 489.807 398.768 483.863 397.600 C 481.716 397.179 498.099 421.724 495.775 428.730 C 494.836 431.560 482.391 407.481 481.703 407.806 C 480.988 408.143 493.501 430.992 490.737 432.386 C 487.905 433.815 477.883 408.925 477.206 409.235 C 476.560 409.532 486.663 432.788 483.874 433.972 C 480.981 435.199 472.919 409.645 471.899 410.241 C 471.116 410.698 478.121 429.108 475.990 430.241 C 473.393 431.623 463.785 411.629 462.807 409.150 C 461.862 406.752 458.358 388.403 458.174 385.538 C 457.831 380.206 441.795 365.235 435.338 353.132 C 428.427 340.178 420.376 319.388 420.210 313.493 C 419.819 299.651 414.236 296.876 409.518 244.807 C 409.305 242.461 410.655 264.229 409.767 272.520 C 408.922 280.405 403.352 320.895 403.830 327.606 C 404.424 335.942 420.007 360.156 421.365 394.155 C 424.102 462.722 410.280 477.043 405.052 513.712 C 402.216 533.602 409.353 541.579 407.594 560.812 C 403.542 605.117 395.341 629.788 396.111 639.402 C 396.240 641.022 396.924 651.292 399.398 652.376 C 418.693 660.833 420.421 668.639 430.219 669.706 C 435.094 670.237 443.366 678.418 435.543 677.359 C 434.328 677.195 430.913 671.706 428.742 672.409 C 427.768 672.724 438.844 678.931 432.783 678.401 C 428.657 678.040 424.272 671.356 422.316 672.300 C 421.513 672.688 432.769 678.944 425.868 678.825 C 421.880 678.756 416.749 671.157 415.530 671.940 C 414.902 672.344 426.684 681.348 418.392 679.880 C 416.783 679.596 414.649 675.307 414.649 675.307 C 414.648 675.306 408.861 671.804 406.848 671.551 C 405.635 671.399 412.770 675.103 412.771 675.103 C 412.771 675.104 419.531 681.042 412.065 680.819 C 406.419 680.651 405.412 681.048 401.686 679.388 C 398.765 678.086 394.104 679.150 392.938 679.107 C 390.342 679.013 379.814 679.980 373.476 678.303 C 365.283 676.135 370.221 666.314 373.691 661.130 C 376.833 656.434 367.949 654.437 374.627 637.019 C 381.177 619.938 360.846 610.492 364.480 552.251 C 365.094 542.412 371.695 518.818 371.934 514.104 C 372.494 503.063 361.289 500.682 361.323 423.684 C 361.324 420.875 377.760 423.369 374.273 404.515 C 373.684 401.331 379.868 422.429 359.857 422.337 C 340.263 422.247 345.354 401.281 344.965 404.515 Z"/>
<path fill="none" stroke="#000000" stroke-width="2" stroke-linecap="round" stroke-linejoin="round" d="M 306.356 243.639 C 307.788 243.639 310.651 243.639 310.651 243.639 C 310.652 243.640 313.319 250.929 316.096 253.054 C 323.611 258.806 345.089 258.156 345.092 258.157 M 403.977 253.054 C 396.462 258.806 374.984 258.156 374.981 258.157 M 409.421 243.639 C 409.421 243.640 406.753 250.929 403.977 253.054 M 413.716 243.639 C 412.284 243.639 409.422 243.639 409.421 243.639 M 359.857 422.337 C 340.263 422.247 345.354 401.281 344.965 404.515 C 342.615 424.084 357.913 420.875 357.915 423.684 C 357.959 499.637 346.744 503.063 347.304 514.104 C 347.543 518.818 354.288 542.404 354.758 552.251 C 357.795 615.866 338.014 619.956 344.611 637.019 C 351.931 655.953 342.996 657.437 345.783 663.251 C 348.584 669.094 354.471 679.617 342.700 680.105 C 321.392 680.988 336.929 667.411 334.209 667.279 C 331.359 667.142 334.019 678.775 329.384 679.396 C 319.143 680.770 328.546 668.013 327.540 668.114 C 326.112 668.258 327.637 679.724 323.685 679.802 C 314.497 679.983 323.314 668.729 322.112 669.191 C 320.322 669.879 321.598 678.613 317.966 679.054 C 307.990 680.267 318.042 668.936 316.704 669.314 C 313.651 670.177 316.896 678.751 310.470 679.209 C 303.327 679.718 308.660 671.411 314.313 666.247 C 315.740 664.945 315.891 662.627 318.380 657.854 C 321.656 651.571 322.947 641.708 323.128 639.402 C 323.879 629.786 315.696 606.312 311.644 560.812 C 309.931 541.575 317.022 533.602 314.186 513.712 C 308.958 477.043 295.136 462.722 297.874 394.155 C 299.231 360.156 314.814 335.942 315.408 327.606 C 315.886 320.895 310.316 280.405 309.471 272.520 C 308.583 264.229 309.894 242.458 309.720 244.807 C 305.599 300.459 298.822 304.428 299.028 313.493 C 299.163 319.389 290.811 340.178 283.901 353.132 C 277.444 365.235 261.407 380.206 261.064 385.538 C 260.880 388.403 257.377 406.752 256.431 409.150 C 255.453 411.629 245.845 431.623 243.248 430.241 C 241.117 429.108 248.122 410.698 247.339 410.241 C 246.319 409.645 238.257 435.199 235.364 433.972 C 232.575 432.788 242.679 409.532 242.032 409.235 C 241.355 408.925 231.333 433.815 228.502 432.386 C 225.737 430.992 238.250 408.143 237.535 407.806 C 236.847 407.481 224.337 431.581 223.464 428.730 C 221.361 421.871 237.714 398.766 235.078 398.492 C 231.110 398.079 227.649 408.774 224.485 410.888 C 222.463 412.238 220.273 411.185 220.813 410.068 C 233.440 383.908 238.773 388.623 243.082 380.477 C 248.613 370.020 249.586 340.705 271.203 305.535 C 275.414 298.686 266.728 281.735 274.990 236.867 C 277.865 221.254 270.620 214.771 281.841 198.223 C 293.933 180.391 307.207 184.066 341.667 172.106 C 347.001 170.255 345.834 154.486 345.191 150.129 C 344.845 147.781 332.406 138.490 331.436 136.332 C 329.811 132.714 328.974 107.203 330.786 103.674 C 332.734 99.879 342.005 84.619 359.891 83.997 C 377.855 85.131 386.588 99.898 388.453 103.674 C 390.278 107.372 388.680 133.910 386.827 137.593 C 385.882 139.470 374.935 147.204 374.047 149.260 C 372.305 153.293 372.035 170.174 377.571 172.106 C 412.010 184.127 425.305 180.391 437.397 198.223 C 448.619 214.771 441.393 221.250 444.248 236.867 C 453.107 285.318 443.032 299.241 448.035 305.535 C 470.180 333.399 471.290 370.598 476.753 379.879 C 481.445 387.849 491.476 386.896 498.425 410.068 C 499.342 413.124 495.678 411.579 495.347 411.542 C 493.594 411.347 489.807 398.768 483.863 397.600 C 481.716 397.179 498.099 421.724 495.775 428.730 C 494.836 431.560 482.391 407.481 481.703 407.806 C 480.988 408.143 493.501 430.992 490.737 432.386 C 487.905 433.815 477.883 408.925 477.206 409.235 C 476.560 409.532 486.663 432.788 483.874 433.972 C 480.981 435.199 472.919 409.645 471.899 410.241 C 471.116 410.698 478.121 429.108 475.990 430.241 C 473.393 431.623 463.785 411.629 462.807 409.150 C 461.862 406.752 458.358 388.403 458.174 385.538 C 457.831 380.206 441.795 365.235 435.338 353.132 C 428.427 340.178 420.376 319.388 420.210 313.493 C 419.819 299.651 414.236 296.876 409.518 244.807 C 409.305 242.461 410.655 264.229 409.767 272.520 C 408.922 280.405 403.352 320.895 403.830 327.606 C 404.424 335.942 420.007 360.156 421.365 394.155 C 424.102 462.722 410.280 477.043 405.052 513.712 C 402.216 533.602 409.353 541.579 407.594 560.812 C 403.542 605.117 395.341 629.788 396.111 639.402 C 396.240 641.022 396.924 651.292 399.398 652.376 C 418.693 660.833 420.421 668.639 430.219 669.706 C 435.094 670.237 443.366 678.418 435.543 677.359 C 434.328 677.195 430.913 671.706 428.742 672.409 C 427.768 672.724 438.844 678.931 432.783 678.401 C 428.657 678.040 424.272 671.356 422.316 672.300 C 421.513 672.688 432.769 678.944 425.868 678.825 C 421.880 678.756 416.749 671.157 415.530 671.940 C 414.902 672.344 426.684 681.348 418.392 679.880 C 416.783 679.596 414.649 675.307 414.649 675.307 C 414.648 675.306 408.861 671.804 406.848 671.551 C 405.635 671.399 412.770 675.103 412.771 675.103 C 412.771 675.104 419.531 681.042 412.065 680.819 C 406.419 680.651 405.412 681.048 401.686 679.388 C 398.765 678.086 394.104 679.150 392.938 679.107 C 390.342 679.013 379.814 679.980 373.476 678.303 C 365.283 676.135 370.221 666.314 373.691 661.130 C 376.833 656.434 367.949 654.437 374.627 637.019 C 381.177 619.938 360.846 610.492 364.480 552.251 C 365.094 542.412 371.695 518.818 371.934 514.104 C 372.494 503.063 361.289 500.682 361.323 423.684 C 361.324 420.875 377.760 423.369 374.273 404.515 C 373.684 401.331 379.868 422.429 359.857 422.337 "/>
<path fill="#ffffff" fill-rule="evenodd" stroke="#000000" stroke-width="2" stroke-linecap="round" stroke-linejoin="round" d="M 360.000 341.076 C 360.539 341.076 360.824 341.919 360.824 343.846 C 360.824 345.773 360.539 346.616 360.000 346.616 C 359.461 346.616 359.176 345.773 359.176 343.846 C 359.176 341.919 359.461 341.076 360.000 341.076 Z"/>
<path fill="none" stroke="#000000" stroke-width="2" stroke-linecap="round" stroke-linejoin="round" d="M 353.403 393.670 C 353.403 393.672 351.550 412.800 359.735 413.458 C 367.840 414.110 366.066 393.409 366.067 393.406 "/>
</g>
<g id="specs_2">
<path fill="#ff0000" fill-rule="evenodd" stroke="none" d="M 360.000 684.639 C 360.001 684.642 370.583 714.271 370.584 714.274 C 370.583 714.273 360.001 704.427 360.000 704.426 C 359.999 704.427 349.417 714.273 349.416 714.274 C 349.417 714.271 359.999 684.642 360.000 684.639 Z"/>
<path fill="#0000ff" fill-rule="evenodd" stroke="none" d="M 360.000 9.706 C 360.001 9.707 366.147 26.918 366.148 26.920 C 366.147 26.920 360.001 21.201 360.000 21.200 C 359.999 21.201 353.853 26.920 353.852 26.920 C 353.853 26.918 359.999 9.707 360.000 9.706 Z"/>
<path fill="#00ff00" fill-rule="evenodd" stroke="none" d="M 260.557 236.093 C 260.559 236.092 279.791 229.114 279.793 229.113 C 279.793 229.114 273.425 236.027 273.425 236.028 C 273.425 236.028 279.862 242.877 279.863 242.878 C 279.861 242.877 260.559 236.093 260.557 236.093 Z"/>
<path fill="#ffff00" fill-rule="evenodd" stroke="none" d="M 221.694 437.129 C 221.694 437.127 229.657 419.792 229.657 419.790 C 229.657 419.791 230.077 428.545 230.077 428.546 C 230.077 428.546 238.838 428.758 238.839 428.758 C 238.837 428.759 221.695 437.128 221.694 437.129 Z"/>
<path fill="#ffff00" fill-rule="evenodd" stroke="none" d="M 500.626 436.917 C 500.625 436.915 492.317 419.743 492.316 419.741 C 492.316 419.742 492.072 428.502 492.072 428.503 C 492.071 428.503 483.316 428.891 483.315 428.891 C 483.317 428.892 500.624 436.916 500.626 436.917 Z"/>
<path fill="#00ff00" fill-rule="evenodd" stroke="none" d="M 459.662 236.093 C 459.660 236.092 440.428 229.114 440.426 229.113 C 440.427 229.114 446.794 236.027 446.795 236.028 C 446.794 236.028 440.357 242.877 440.357 242.878 C 440.358 242.877 459.660 236.093 459.662 236.093 Z"/>
<path fill="#ff00ff" fill-rule="evenodd" stroke="none" d="M 267.476 207.180 C 267.494 207.180 452.506 207.180 452.524 207.180 C 452.524 207.161 450.322 20.278 450.322 20.259 C 450.304 20.259 267.494 20.259 267.476 20.259 C 267.476 20.278 267.476 207.161 267.476 207.180 Z"/>
</g>
</g>
</svg>
