<?xml version="1.0" encoding="utf-8"?>
<!-- Generator: Moho 13.5 build 20210422 -->
<!DOCTYPE svg PUBLIC "-//W3C//DTD SVG 1.1//EN" "http://www.w3.org/Graphics/SVG/1.1/DTD/svg11.dtd">
<svg version="1.1" id="Frame_0" xmlns="http://www.w3.org/2000/svg" xmlns:xlink="http://www.w3.org/1999/xlink" width="720px" height="720px">
<g id="menorah">
<g id="menorah2.svg">
<path fill="#ffffff" fill-rule="evenodd" stroke="#000000" stroke-width="4" stroke-linecap="round" stroke-linejoin="round" d="M 359.712 138.774 C 359.714 138.774 380.255 140.895 380.257 140.895 C 380.257 140.906 380.258 253.156 380.257 253.167 C 380.260 253.166 404.113 249.185 412.873 237.199 C 421.234 225.759 418.597 212.275 419.904 198.165 C 421.791 177.791 419.904 140.901 419.904 140.895 C 419.908 140.895 458.081 140.895 458.084 140.895 C 458.084 140.902 461.402 186.583 458.084 217.255 C 455.762 238.731 447.971 257.993 430.943 271.284 C 398.125 296.898 380.262 293.613 380.257 293.615 C 380.257 293.620 380.257 342.850 380.257 342.855 C 380.266 342.851 416.565 353.744 471.161 299.858 C 493.113 278.191 491.787 247.772 496.265 217.255 C 500.226 190.263 496.265 140.902 496.265 140.895 C 496.269 140.895 534.441 140.895 534.445 140.895 C 534.445 140.904 540.544 202.793 534.445 236.345 C 527.924 272.222 522.940 304.920 498.293 331.795 C 451.660 382.644 380.269 389.060 380.257 389.065 C 380.257 389.070 380.257 437.012 380.257 437.017 C 380.271 437.009 456.307 441.575 525.424 360.250 C 556.102 324.155 564.331 282.983 572.625 236.345 C 578.595 202.770 572.625 140.904 572.625 140.895 C 572.628 140.895 610.802 140.895 610.805 140.895 C 610.805 140.907 618.957 215.334 610.805 255.435 C 600.431 306.472 586.677 349.720 552.556 389.065 C 490.807 460.268 380.275 479.305 380.257 479.314 C 380.257 479.322 380.256 560.869 380.257 560.877 C 380.264 560.878 531.517 597.696 531.524 597.698 C 531.524 597.701 531.523 631.033 531.524 631.036 C 531.520 631.037 483.075 646.943 359.712 646.738 C 236.967 646.533 187.906 631.037 187.902 631.036 C 187.902 631.033 187.902 597.701 187.902 597.698 C 187.909 597.696 339.161 560.878 339.168 560.877 C 339.169 560.869 339.168 479.322 339.168 479.314 C 339.151 479.305 224.131 463.508 165.896 389.065 C 133.806 348.046 118.020 306.472 107.646 255.435 C 99.495 215.334 107.646 140.907 107.646 140.895 C 107.650 140.895 145.823 140.895 145.827 140.895 C 145.827 140.904 139.856 202.770 145.827 236.345 C 154.120 282.983 162.659 323.894 193.027 360.250 C 259.689 440.056 339.154 437.009 339.168 437.017 C 339.168 437.012 339.168 389.070 339.168 389.065 C 339.156 389.060 270.105 384.943 220.159 331.795 C 195.187 305.222 190.528 272.222 184.007 236.345 C 177.909 202.793 184.007 140.904 184.007 140.895 C 184.011 140.895 222.183 140.895 222.187 140.895 C 222.187 140.902 218.226 190.263 222.187 217.255 C 226.665 247.772 226.171 277.379 247.291 299.858 C 295.534 351.205 339.159 342.851 339.168 342.855 C 339.168 342.850 339.168 293.620 339.168 293.615 C 339.163 293.613 321.766 297.977 289.456 274.206 C 265.560 256.625 262.571 239.995 260.367 217.255 C 256.994 182.434 260.367 140.902 260.367 140.895 C 260.371 140.895 298.543 140.895 298.547 140.895 C 298.547 140.901 296.277 177.830 298.547 198.165 C 300.210 213.061 298.007 227.569 307.527 239.147 C 316.413 249.955 339.165 252.192 339.168 252.193 C 339.168 252.182 339.168 140.906 339.168 140.895 C 339.170 140.895 359.710 138.774 359.712 138.774 Z"/>
<path fill="#ffffff" fill-rule="evenodd" stroke="#000000" stroke-width="4" stroke-linecap="round" stroke-linejoin="round" d="M 564.673 141.915 C 564.673 141.913 564.673 119.893 564.673 119.891 C 564.679 119.891 617.990 119.891 617.995 119.891 C 617.995 119.893 617.995 141.913 617.995 141.915 C 617.990 141.915 564.679 141.915 564.673 141.915 M 488.169 141.915 C 488.169 141.913 488.169 119.893 488.169 119.891 C 488.174 119.891 541.485 119.891 541.490 119.891 C 541.490 119.893 541.490 141.913 541.490 141.915 C 541.485 141.915 488.174 141.915 488.169 141.915 M 411.664 141.915 C 411.664 141.913 411.664 119.893 411.664 119.891 C 411.670 119.891 464.980 119.891 464.986 119.891 C 464.986 119.893 464.986 141.913 464.986 141.915 C 464.980 141.915 411.670 141.915 411.664 141.915 M 333.339 141.929 C 333.339 141.926 333.339 119.907 333.339 119.905 C 333.345 119.905 386.655 119.905 386.661 119.905 C 386.661 119.907 386.661 141.926 386.661 141.929 C 386.655 141.929 333.345 141.929 333.339 141.929 M 252.280 141.915 C 252.280 141.913 252.280 119.893 252.280 119.891 C 252.285 119.891 305.596 119.891 305.601 119.891 C 305.601 119.893 305.601 141.913 305.601 141.915 C 305.596 141.915 252.285 141.915 252.280 141.915 M 177.514 141.915 C 177.514 141.913 177.514 119.893 177.514 119.891 C 177.519 119.891 230.830 119.891 230.835 119.891 C 230.835 119.893 230.835 141.913 230.835 141.915 C 230.830 141.915 177.519 141.915 177.514 141.915 M 99.850 141.915 C 99.850 141.913 99.850 119.893 99.850 119.891 C 99.855 119.891 153.166 119.891 153.171 119.891 C 153.171 119.893 153.171 141.913 153.171 141.915 C 153.166 141.915 99.855 141.915 99.850 141.915 Z"/>
<path fill="none" stroke="#ffffff" stroke-width="4" stroke-linecap="round" stroke-linejoin="round" d="M 192.908 600.956 C 192.925 600.957 280.155 613.216 360.000 613.216 C 439.845 613.216 471.395 605.042 527.092 600.956 "/>
<path fill="none" stroke="#000000" stroke-width="4" stroke-linecap="round" stroke-linejoin="round" d="M 192.908 600.956 C 192.925 600.957 280.155 613.216 360.000 613.216 C 439.845 613.216 471.395 605.042 527.092 600.956 "/>
</g>
<g id="specs_2">
<path fill="#ff00ff" fill-rule="evenodd" stroke="none" d="M 218.519 598.767 C 218.547 598.767 501.453 598.767 501.481 598.767 C 501.481 598.741 501.481 339.444 501.481 339.418 C 501.453 339.418 218.547 339.418 218.519 339.418 C 218.519 339.444 218.519 598.741 218.519 598.767 Z"/>
<path fill="#ff0000" fill-rule="evenodd" stroke="none" d="M 360.000 676.511 C 360.001 676.514 370.983 707.265 370.984 707.268 C 370.983 707.267 360.001 697.049 360.000 697.048 C 359.999 697.049 349.017 707.267 349.016 707.268 C 349.017 707.265 359.999 676.514 360.000 676.511 Z"/>
<path fill="#0000ff" fill-rule="evenodd" stroke="none" d="M 360.000 108.993 C 360.001 108.995 366.380 126.858 366.381 126.860 C 366.380 126.859 360.001 120.924 360.000 120.923 C 359.999 120.924 353.620 126.859 353.619 126.860 C 353.620 126.858 359.999 108.995 360.000 108.993 Z"/>
<path fill="#00ff00" fill-rule="evenodd" stroke="none" d="M 108.379 300.099 C 108.381 300.098 126.760 293.429 126.762 293.428 C 126.761 293.429 120.676 300.036 120.676 300.037 C 120.676 300.037 126.827 306.582 126.828 306.583 C 126.826 306.582 108.381 300.099 108.379 300.099 Z"/>
<path fill="#ffff00" fill-rule="evenodd" stroke="none" d="M 184.375 637.409 C 184.376 637.407 192.292 620.171 192.293 620.169 C 192.293 620.170 192.710 628.874 192.710 628.875 C 192.711 628.875 201.422 629.086 201.423 629.086 C 201.421 629.087 184.376 637.408 184.375 637.409 Z"/>
<path fill="#ffff00" fill-rule="evenodd" stroke="none" d="M 533.274 637.198 C 533.274 637.196 525.013 620.122 525.012 620.120 C 525.012 620.121 524.770 628.831 524.770 628.832 C 524.769 628.832 516.064 629.218 516.063 629.218 C 516.065 629.219 533.273 637.197 533.274 637.198 Z"/>
<path fill="#00ff00" fill-rule="evenodd" stroke="none" d="M 611.691 300.099 C 611.689 300.098 593.309 293.429 593.308 293.428 C 593.308 293.429 599.393 300.036 599.394 300.037 C 599.393 300.037 593.242 306.582 593.241 306.583 C 593.243 306.582 611.689 300.099 611.691 300.099 Z"/>
</g>
</g>
</svg>
