<?xml version="1.0" encoding="utf-8"?>
<!-- Generator: Moho 13.5.1 build 20210623 -->
<!DOCTYPE svg PUBLIC "-//W3C//DTD SVG 1.1//EN" "http://www.w3.org/Graphics/SVG/1.1/DTD/svg11.dtd">
<svg version="1.1" id="Frame_0" xmlns="http://www.w3.org/2000/svg" xmlns:xlink="http://www.w3.org/1999/xlink" width="720px" height="720px">
<g id="moons_triple">
<g id="moons_triple">
<radialGradient id="DD427ED9-D42A-45CA-849C-1A07C009C6BF_0" cx="50.00%" cy="50.00%" r="159.03%">
<stop offset="20.00%" style="stop-color:rgb(255,255,255);stop-opacity:1.00" />
<stop offset="100.00%" style="stop-color:rgb(0,0,0);stop-opacity:1.00" />
</radialGradient>
<path id="S1" fill="url(#DD427ED9-D42A-45CA-849C-1A07C009C6BF_0)" fill-rule="evenodd" stroke="#000000" stroke-width="4" stroke-linejoin="round" d="M 360.000 502.681 C 438.973 502.681 502.681 438.973 502.681 360.000 C 502.681 281.027 438.973 217.319 360.000 217.319 C 281.027 217.319 217.319 281.027 217.319 360.000 C 217.319 438.973 281.027 502.681 360.000 502.681 Z"/>
<radialGradient id="DD427ED9-D42A-45CA-849C-1A07C009C6BF_1" cx="59.63%" cy="48.39%" r="184.95%">
<stop offset="20.00%" style="stop-color:rgb(255,255,255);stop-opacity:1.00" />
<stop offset="100.00%" style="stop-color:rgb(0,0,0);stop-opacity:1.00" />
</radialGradient>
<path id="S2" fill="url(#DD427ED9-D42A-45CA-849C-1A07C009C6BF_1)" fill-rule="evenodd" stroke="#000000" stroke-width="4" stroke-linejoin="round" d="M 692.859 494.627 C 677.977 500.199 661.947 502.681 645.363 502.681 C 566.390 502.682 502.682 438.973 502.682 360.000 C 502.682 281.027 566.390 217.319 645.363 217.319 C 661.948 217.319 678.190 219.987 693.072 225.448 C 621.583 241.099 574.016 288.858 574.022 360.000 C 574.028 431.135 621.583 478.901 692.859 494.627 Z"/>
<radialGradient id="DD427ED9-D42A-45CA-849C-1A07C009C6BF_2" cx="38.57%" cy="49.20%" r="175.72%">
<stop offset="20.00%" style="stop-color:rgb(255,255,255);stop-opacity:1.00" />
<stop offset="100.00%" style="stop-color:rgb(0,0,0);stop-opacity:1.00" />
</radialGradient>
<path id="S3" fill="url(#DD427ED9-D42A-45CA-849C-1A07C009C6BF_2)" fill-rule="evenodd" stroke="#000000" stroke-width="4" stroke-linejoin="round" d="M 27.141 494.627 C 42.023 500.199 58.053 502.681 74.637 502.681 C 153.611 502.682 217.319 438.973 217.319 360.000 C 217.319 281.027 153.611 217.319 74.637 217.319 C 58.053 217.319 41.811 219.987 26.929 225.448 C 98.417 241.099 145.984 288.858 145.978 360.000 C 145.971 431.135 98.417 478.901 27.141 494.627 Z"/>
</g>
<g id="specs_2">
<path fill="#ff00ff" fill-rule="evenodd" stroke="none" d="M 249.542 470.458 C 249.564 470.458 470.436 470.458 470.458 470.458 C 470.458 470.436 470.458 249.564 470.458 249.542 C 470.436 249.542 249.564 249.542 249.542 249.542 C 249.542 249.564 249.542 470.436 249.542 470.458 Z"/>
<path fill="#ff0000" fill-rule="evenodd" stroke="none" d="M 360.000 599.861 C 360.001 599.864 372.432 634.670 372.433 634.674 C 372.432 634.672 360.001 623.107 360.000 623.105 C 359.999 623.107 347.568 634.672 347.567 634.674 C 347.568 634.670 359.999 599.864 360.000 599.861 Z"/>
<path fill="#0000ff" fill-rule="evenodd" stroke="none" d="M 360.000 201.479 C 360.001 201.481 367.221 221.699 367.222 221.701 C 367.221 221.700 360.001 214.982 360.000 214.982 C 359.999 214.982 352.779 221.700 352.778 221.701 C 352.779 221.699 359.999 201.481 360.000 201.479 Z"/>
<path fill="#00ff00" fill-rule="evenodd" stroke="none" d="M 52.352 360.993 C 52.353 360.993 70.529 354.398 70.531 354.397 C 70.530 354.397 64.513 360.931 64.512 360.932 C 64.513 360.933 70.596 367.404 70.596 367.405 C 70.595 367.404 52.353 360.994 52.352 360.993 Z"/>
<path fill="#ffff00" fill-rule="evenodd" stroke="none" d="M 208.231 512.749 C 208.231 512.748 213.844 500.527 213.844 500.526 C 213.844 500.527 214.140 506.698 214.140 506.698 C 214.141 506.698 220.316 506.848 220.317 506.848 C 220.316 506.849 208.232 512.748 208.231 512.749 Z"/>
<path fill="#ffff00" fill-rule="evenodd" stroke="none" d="M 511.769 512.599 C 511.769 512.598 505.912 500.493 505.912 500.492 C 505.912 500.492 505.740 506.668 505.740 506.668 C 505.740 506.668 499.568 506.942 499.567 506.942 C 499.568 506.942 511.768 512.599 511.769 512.599 Z"/>
<path fill="#00ff00" fill-rule="evenodd" stroke="none" d="M 667.649 360.993 C 667.647 360.993 649.471 354.398 649.469 354.397 C 649.470 354.397 655.487 360.931 655.488 360.932 C 655.487 360.933 649.404 367.404 649.404 367.405 C 649.405 367.404 667.647 360.994 667.649 360.993 Z"/>
<path fill="#00ffff" fill-rule="evenodd" stroke="none" d="M 511.183 208.466 C 511.182 208.467 506.693 221.143 506.693 221.144 C 506.693 221.144 505.843 215.025 505.842 215.024 C 505.842 215.024 499.678 215.431 499.677 215.431 C 499.678 215.431 511.182 208.466 511.183 208.466 Z"/>
<path fill="#00ffff" fill-rule="evenodd" stroke="none" d="M 208.887 208.886 C 208.888 208.887 214.212 221.236 214.213 221.237 C 214.213 221.236 214.653 215.074 214.653 215.074 C 214.654 215.074 220.831 215.069 220.832 215.069 C 220.831 215.068 208.888 208.887 208.887 208.886 Z"/>
<path fill="#be0027" fill-rule="evenodd" stroke="none" d="M 360.000 529.371 C 360.001 529.368 372.432 494.562 372.433 494.558 C 372.432 494.559 360.001 506.125 360.000 506.127 C 359.999 506.125 347.568 494.559 347.567 494.558 C 347.568 494.562 359.999 529.368 360.000 529.371 Z"/>
</g>
</g>
</svg>
