<?xml version="1.0" encoding="utf-8"?>
<!-- Generator: Moho 12.5 build 22414 -->
<!DOCTYPE svg PUBLIC "-//W3C//DTD SVG 1.1//EN" "http://www.w3.org/Graphics/SVG/1.1/DTD/svg11.dtd">
<svg version="1.1" id="Frame_0" xmlns="http://www.w3.org/2000/svg" xmlns:xlink="http://www.w3.org/1999/xlink" width="720px" height="720px">
<g id="moon">
<g id="moon">
<path fill="#000000" fill-rule="evenodd" stroke="#000000" stroke-width="4" stroke-linecap="round" stroke-linejoin="round" d="M 360.000 662.535 C 535.267 662.535 676.655 521.143 676.654 345.876 C 676.653 170.610 535.265 29.222 360.000 29.222 C 184.735 29.222 43.347 170.610 43.346 345.876 C 43.345 521.143 184.733 662.535 360.000 662.535 Z"/>
<path fill="#ffffff" fill-rule="evenodd" stroke="#000000" stroke-width="4" stroke-linecap="round" stroke-linejoin="round" d="M 360.000 662.535 C 443.695 662.784 544.718 516.856 544.717 345.876 C 544.716 174.897 443.697 28.973 360.000 29.222 C 179.528 29.759 43.347 170.610 43.346 345.876 C 43.345 521.143 179.528 661.998 360.000 662.535 Z"/>
</g>
<g id="specs_2">
<path fill="#ff00ff" fill-rule="evenodd" stroke="none" d="M 106.584 540.455 C 106.623 540.455 495.698 540.455 495.737 540.455 C 495.737 540.416 495.737 151.341 495.737 151.302 C 495.698 151.302 106.623 151.302 106.584 151.302 C 106.584 151.341 106.584 540.416 106.584 540.455 Z"/>
<path fill="#ff0000" fill-rule="evenodd" stroke="none" d="M 360.000 671.846 C 360.001 671.849 371.947 705.298 371.948 705.302 C 371.947 705.301 360.001 694.186 360.000 694.184 C 359.999 694.186 348.053 705.301 348.052 705.302 C 348.053 705.298 359.999 671.849 360.000 671.846 Z"/>
<path fill="#0000ff" fill-rule="evenodd" stroke="none" d="M 360.000 16.990 C 360.001 16.991 366.940 36.422 366.940 36.424 C 366.940 36.423 360.001 29.967 360.000 29.966 C 359.999 29.967 353.060 36.423 353.060 36.424 C 353.060 36.422 359.999 16.991 360.000 16.990 Z"/>
<path fill="#00ff00" fill-rule="evenodd" stroke="none" d="M 32.215 346.844 C 32.217 346.843 51.612 339.806 51.614 339.805 C 51.613 339.806 45.192 346.778 45.191 346.779 C 45.192 346.779 51.683 353.686 51.684 353.686 C 51.682 353.686 32.217 346.845 32.215 346.844 Z"/>
<path fill="#ffff00" fill-rule="evenodd" stroke="none" d="M 127.783 579.889 C 127.784 579.887 136.396 561.138 136.396 561.136 C 136.396 561.137 136.850 570.605 136.850 570.606 C 136.851 570.606 146.326 570.835 146.327 570.835 C 146.325 570.836 127.785 579.888 127.783 579.889 Z"/>
<path fill="#ffff00" fill-rule="evenodd" stroke="none" d="M 593.490 579.659 C 593.490 579.657 584.504 561.085 584.503 561.083 C 584.503 561.084 584.240 570.559 584.240 570.559 C 584.239 570.560 574.770 570.979 574.769 570.979 C 574.771 570.980 593.489 579.658 593.490 579.659 Z"/>
<path fill="#00ff00" fill-rule="evenodd" stroke="none" d="M 688.790 346.844 C 688.788 346.843 669.394 339.806 669.392 339.805 C 669.392 339.806 675.814 346.778 675.814 346.779 C 675.814 346.779 669.322 353.686 669.322 353.686 C 669.324 353.686 688.788 346.845 688.790 346.844 Z"/>
<path fill="#00ffff" fill-rule="evenodd" stroke="none" d="M 591.954 113.038 C 591.953 113.040 585.065 132.488 585.064 132.490 C 585.064 132.489 583.760 123.101 583.760 123.100 C 583.759 123.100 574.301 123.725 574.300 123.725 C 574.302 123.724 591.952 113.039 591.954 113.038 Z"/>
<path fill="#00ffff" fill-rule="evenodd" stroke="none" d="M 128.154 113.683 C 128.155 113.685 136.324 132.630 136.325 132.632 C 136.325 132.631 137.000 123.177 137.000 123.176 C 137.001 123.176 146.479 123.169 146.480 123.169 C 146.478 123.168 128.156 113.684 128.154 113.683 Z"/>
<path fill="#be0027" fill-rule="evenodd" stroke="none" d="M 360.000 676.928 C 360.001 676.926 368.554 652.977 368.555 652.974 C 368.554 652.975 360.001 660.933 360.000 660.934 C 359.999 660.933 351.446 652.975 351.445 652.974 C 351.446 652.977 359.999 676.926 360.000 676.928 Z"/>
</g>
</g>
</svg>
