<?xml version="1.0" encoding="utf-8"?>
<!-- Generator: Moho 13.5 build 20210422 -->
<!DOCTYPE svg PUBLIC "-//W3C//DTD SVG 1.1//EN" "http://www.w3.org/Graphics/SVG/1.1/DTD/svg11.dtd">
<svg version="1.1" id="Frame_0" xmlns="http://www.w3.org/2000/svg" xmlns:xlink="http://www.w3.org/1999/xlink" width="720px" height="720px">
<g id="moons_triple">
<g id="moons_triple">
<path id="S1" fill="#ffffff" fill-rule="evenodd" stroke="#000000" stroke-width="4" stroke-linejoin="round" d="M 146.244 360.000 C 146.238 431.046 98.743 478.753 27.556 494.460 C 42.419 500.025 58.429 502.504 74.992 502.504 C 153.867 502.504 217.496 438.875 217.496 360.000 C 217.496 281.125 153.867 217.496 74.992 217.496 C 58.428 217.496 42.207 220.161 27.343 225.615 C 98.743 241.247 146.250 288.947 146.244 360.000 M 573.756 360.000 C 573.762 431.046 621.257 478.753 692.445 494.460 C 677.581 500.025 661.572 502.504 645.008 502.504 C 566.133 502.504 502.504 438.875 502.504 360.000 C 502.504 281.125 566.133 217.496 645.008 217.496 C 661.572 217.496 677.794 220.161 692.657 225.615 C 621.257 241.247 573.750 288.947 573.756 360.000 M 217.496 360.000 C 217.496 438.875 281.125 502.504 360.000 502.504 C 438.875 502.504 502.504 438.875 502.504 360.000 C 502.504 281.125 438.875 217.496 360.000 217.496 C 281.125 217.496 217.496 281.125 217.496 360.000 Z"/>
</g>
<g id="specs_2">
<path fill="#ff00ff" fill-rule="evenodd" stroke="none" d="M 249.679 470.321 C 249.701 470.321 470.299 470.321 470.321 470.321 C 470.321 470.299 470.321 249.701 470.321 249.679 C 470.299 249.679 249.701 249.679 249.679 249.679 C 249.679 249.701 249.679 470.299 249.679 470.321 Z"/>
<path fill="#ff0000" fill-rule="evenodd" stroke="none" d="M 360.000 599.562 C 360.001 599.566 372.416 634.328 372.417 634.332 C 372.416 634.331 360.001 622.779 360.000 622.778 C 359.999 622.779 347.584 634.331 347.583 634.332 C 347.584 634.328 359.999 599.566 360.000 599.562 Z"/>
<path fill="#0000ff" fill-rule="evenodd" stroke="none" d="M 360.000 201.676 C 360.001 201.678 367.212 221.871 367.213 221.873 C 367.212 221.873 360.001 215.163 360.000 215.162 C 359.999 215.163 352.788 221.873 352.787 221.873 C 352.788 221.871 359.999 201.678 360.000 201.676 Z"/>
<path fill="#00ff00" fill-rule="evenodd" stroke="none" d="M 52.734 360.992 C 52.736 360.991 70.889 354.404 70.891 354.404 C 70.890 354.404 64.880 360.930 64.879 360.931 C 64.880 360.931 70.956 367.395 70.956 367.396 C 70.954 367.395 52.736 360.993 52.734 360.992 Z"/>
<path fill="#ffff00" fill-rule="evenodd" stroke="none" d="M 208.419 512.559 C 208.420 512.558 214.026 500.353 214.026 500.351 C 214.026 500.352 214.321 506.515 214.321 506.516 C 214.322 506.516 220.490 506.665 220.491 506.665 C 220.489 506.666 208.421 512.558 208.419 512.559 Z"/>
<path fill="#ffff00" fill-rule="evenodd" stroke="none" d="M 511.581 512.409 C 511.580 512.408 505.731 500.318 505.730 500.317 C 505.730 500.317 505.559 506.485 505.559 506.486 C 505.558 506.486 499.394 506.759 499.393 506.759 C 499.395 506.760 511.579 512.409 511.581 512.409 Z"/>
<path fill="#00ff00" fill-rule="evenodd" stroke="none" d="M 667.266 360.992 C 667.264 360.991 649.111 354.404 649.109 354.404 C 649.110 354.404 655.120 360.930 655.121 360.931 C 655.120 360.931 649.044 367.395 649.044 367.396 C 649.046 367.395 667.264 360.993 667.266 360.992 Z"/>
<path fill="#00ffff" fill-rule="evenodd" stroke="none" d="M 510.995 208.654 C 510.994 208.656 506.511 221.316 506.510 221.317 C 506.510 221.317 505.661 215.205 505.661 215.205 C 505.660 215.205 499.504 215.611 499.503 215.611 C 499.504 215.610 510.994 208.655 510.995 208.654 Z"/>
<path fill="#00ffff" fill-rule="evenodd" stroke="none" d="M 209.075 209.074 C 209.076 209.075 214.394 221.408 214.394 221.410 C 214.394 221.409 214.834 215.255 214.834 215.254 C 214.834 215.254 221.004 215.249 221.005 215.249 C 221.004 215.249 209.076 209.075 209.075 209.074 Z"/>
<path fill="#be0027" fill-rule="evenodd" stroke="none" d="M 360.000 529.161 C 360.001 529.157 372.416 494.395 372.417 494.391 C 372.416 494.392 360.001 505.944 360.000 505.945 C 359.999 505.944 347.584 494.392 347.583 494.391 C 347.584 494.395 359.999 529.157 360.000 529.161 Z"/>
</g>
</g>
</svg>
