<?xml version="1.0" encoding="utf-8"?>
<!-- Generator: Moho 13.0.3 build 635 -->
<!DOCTYPE svg PUBLIC "-//W3C//DTD SVG 1.1//EN" "http://www.w3.org/Graphics/SVG/1.1/DTD/svg11.dtd">
<svg version="1.1" id="Frame_0" xmlns="http://www.w3.org/2000/svg" xmlns:xlink="http://www.w3.org/1999/xlink" width="720px" height="720px">
<g id="mouth_open">
<g id="mouth_open">
<path fill="#ffffff" fill-rule="evenodd" stroke="none" d="M 360.000 217.273 C 578.030 217.273 654.226 359.986 654.255 360.000 C 654.226 360.014 576.975 499.065 360.000 499.065 C 143.025 499.065 65.774 360.014 65.745 360.000 C 65.774 359.986 141.970 217.273 360.000 217.273 Z"/>
<path fill="#000000" fill-rule="evenodd" stroke="#ffffff" stroke-width="4" stroke-linecap="round" stroke-linejoin="round" d="M 360.000 204.837 C 520.324 204.837 594.191 246.606 592.463 266.433 C 590.782 285.724 515.992 293.093 360.000 293.093 C 204.008 293.093 129.218 285.724 127.537 266.433 C 125.809 246.606 199.676 204.837 360.000 204.837 Z"/>
<path fill="#000000" fill-rule="evenodd" stroke="#ffffff" stroke-width="4" stroke-linecap="round" stroke-linejoin="round" d="M 360.000 457.972 C 499.728 457.985 566.342 442.153 569.587 459.192 C 573.005 477.137 507.153 527.765 360.000 528.441 C 209.351 529.133 141.480 477.579 144.897 459.192 C 148.149 441.689 216.595 457.959 360.000 457.972 Z"/>
<path fill="#ffffff" fill-rule="evenodd" stroke="#000000" stroke-width="4" stroke-linecap="round" stroke-linejoin="round" d="M 238.429 140.858 C 305.404 117.459 359.988 158.195 360.000 158.196 C 360.012 158.195 414.596 117.459 481.571 140.858 C 633.731 194.018 654.238 359.960 654.255 359.982 C 654.226 359.968 578.030 217.255 360.000 217.255 C 141.970 217.255 65.774 359.968 65.745 359.982 C 65.762 359.960 86.269 194.018 238.429 140.858 Z"/>
<path fill="#ffffff" fill-rule="evenodd" stroke="#000000" stroke-width="4" stroke-linecap="round" stroke-linejoin="round" d="M 360.000 598.078 C 107.654 598.078 65.774 360.006 65.745 359.982 C 65.774 359.996 143.025 499.048 360.000 499.048 C 576.975 499.048 654.226 359.996 654.255 359.982 C 654.226 360.006 612.346 598.078 360.000 598.078 Z"/>
</g>
<g id="specs_2">
<path fill="#ff00ff" fill-rule="evenodd" stroke="none" d="M 235.178 484.822 C 235.203 484.822 484.797 484.822 484.822 484.822 C 484.822 484.797 484.822 235.203 484.822 235.178 C 484.797 235.178 235.203 235.178 235.178 235.178 C 235.178 235.203 235.178 484.797 235.178 484.822 Z"/>
<path fill="#ff0000" fill-rule="evenodd" stroke="none" d="M 360.000 666.694 C 360.001 666.698 372.416 701.461 372.417 701.464 C 372.416 701.463 360.001 689.911 360.000 689.910 C 359.999 689.911 347.584 701.463 347.583 701.464 C 347.584 701.461 359.999 666.698 360.000 666.694 Z"/>
<path fill="#0000ff" fill-rule="evenodd" stroke="none" d="M 360.000 121.624 C 360.001 121.626 367.212 141.819 367.213 141.821 C 367.212 141.820 360.001 135.110 360.000 135.109 C 359.999 135.110 352.788 141.820 352.787 141.821 C 352.788 141.819 359.999 121.626 360.000 121.624 Z"/>
<path fill="#00ff00" fill-rule="evenodd" stroke="none" d="M 34.382 360.998 C 34.384 360.997 53.621 354.016 53.623 354.016 C 53.622 354.016 47.253 360.932 47.253 360.933 C 47.253 360.933 53.692 367.783 53.693 367.784 C 53.691 367.783 34.384 360.998 34.382 360.998 Z"/>
<path fill="#ffff00" fill-rule="evenodd" stroke="none" d="M 155.667 542.592 C 155.668 542.590 163.225 526.138 163.225 526.136 C 163.225 526.137 163.623 534.445 163.623 534.446 C 163.624 534.446 171.939 534.647 171.939 534.647 C 171.938 534.648 155.669 542.591 155.667 542.592 Z"/>
<path fill="#ffff00" fill-rule="evenodd" stroke="none" d="M 564.333 542.390 C 564.332 542.389 556.447 526.091 556.446 526.089 C 556.446 526.090 556.215 534.404 556.215 534.405 C 556.214 534.405 547.905 534.774 547.904 534.774 C 547.906 534.774 564.331 542.389 564.333 542.390 Z"/>
<path fill="#00ff00" fill-rule="evenodd" stroke="none" d="M 685.618 360.998 C 685.616 360.997 666.379 354.016 666.377 354.016 C 666.378 354.016 672.747 360.932 672.747 360.933 C 672.747 360.933 666.308 367.783 666.307 367.784 C 666.309 367.783 685.616 360.998 685.618 360.998 Z"/>
<path fill="#00ffff" fill-rule="evenodd" stroke="none" d="M 568.543 172.592 C 568.542 172.594 562.350 190.079 562.349 190.081 C 562.349 190.080 561.176 181.640 561.176 181.639 C 561.175 181.639 552.672 182.200 552.671 182.200 C 552.673 182.199 568.541 172.593 568.543 172.592 Z"/>
<path fill="#00ffff" fill-rule="evenodd" stroke="none" d="M 151.554 173.172 C 151.554 173.173 158.899 190.207 158.900 190.209 C 158.900 190.208 159.507 181.708 159.507 181.707 C 159.508 181.707 168.029 181.700 168.030 181.700 C 168.029 181.700 151.555 173.172 151.554 173.172 Z"/>
<path fill="#be0027" fill-rule="evenodd" stroke="none" d="M 360.000 618.479 C 360.001 618.475 372.416 583.713 372.417 583.709 C 372.416 583.710 360.001 595.262 360.000 595.263 C 359.999 595.262 347.584 583.710 347.583 583.709 C 347.584 583.713 359.999 618.475 360.000 618.479 Z"/>
</g>
</g>
</svg>
