<?xml version="1.0" encoding="utf-8"?>
<!-- Generator: Moho 13.0.3 build 635 -->
<!DOCTYPE svg PUBLIC "-//W3C//DTD SVG 1.1//EN" "http://www.w3.org/Graphics/SVG/1.1/DTD/svg11.dtd">
<svg version="1.1" id="Frame_0" xmlns="http://www.w3.org/2000/svg" xmlns:xlink="http://www.w3.org/1999/xlink" width="720px" height="720px">
<g id="mouth_open">
<g id="mouth_open">
<path fill="#000000" fill-rule="evenodd" stroke="#ffffff" stroke-width="4" stroke-linecap="round" stroke-linejoin="round" d="M 360.000 204.837 C 382.445 204.837 403.226 205.660 421.595 206.981 C 442.888 208.631 462.142 211.066 478.593 213.802 C 496.048 216.846 511.445 220.427 524.560 224.214 C 572.240 238.076 594.244 255.631 592.463 266.433 C 590.779 276.643 568.409 275.291 524.560 271.754 C 511.044 270.786 495.642 269.618 478.593 268.494 C 461.346 267.412 442.292 266.382 421.595 265.647 C 402.720 265.006 382.613 264.586 360.000 264.425 C 360.920 264.594 360.919 264.594 360.919 264.594 C 360.919 264.594 360.919 264.594 360.000 264.425 C 341.439 264.446 324.029 264.763 305.760 265.501 C 284.638 266.137 265.431 267.118 248.761 268.015 C 231.270 269.142 215.714 270.362 202.795 271.246 C 153.668 275.236 129.239 277.170 127.537 266.433 C 125.730 255.032 150.287 236.135 202.795 222.242 C 216.309 218.640 231.740 215.375 248.761 212.685 C 265.918 210.035 284.816 207.927 305.760 206.523 C 322.459 205.451 340.607 204.837 360.000 204.837 Z"/>
<path fill="#000000" fill-rule="evenodd" stroke="#ffffff" stroke-width="4" stroke-linecap="round" stroke-linejoin="round" d="M 360.000 457.972 C 382.357 457.974 402.841 457.570 421.595 457.122 C 443.117 456.382 462.200 455.376 478.593 454.458 C 496.455 453.413 511.597 452.416 524.560 451.733 C 553.281 450.476 568.099 451.377 569.587 459.192 C 571.228 467.805 556.909 483.949 524.560 498.784 C 512.163 504.499 496.887 509.997 478.593 514.706 C 461.905 518.989 442.716 522.587 421.595 524.939 C 402.505 527.103 382.175 528.339 360.000 528.426 C 360.000 528.441 360.000 528.441 360.000 528.441 C 360.000 528.441 360.000 528.441 360.000 528.426 C 340.416 528.518 322.230 527.727 305.760 526.184 C 284.318 524.304 265.110 521.298 248.761 517.834 C 231.174 513.933 215.908 509.272 202.795 504.263 C 161.685 488.400 143.067 469.039 144.897 459.192 C 146.555 450.265 165.171 450.123 202.795 452.151 C 215.621 452.856 230.858 453.835 248.761 454.842 C 265.474 455.723 284.470 456.598 305.760 457.212 C 322.426 457.669 340.522 457.971 360.000 457.972 Z"/>
<path fill="none" stroke="#ffffff" stroke-width="4" stroke-linecap="round" stroke-linejoin="round" d="M 524.560 271.754 C 524.560 254.037 524.560 238.216 524.560 224.214 C 572.240 238.076 594.244 255.631 592.463 266.433 C 590.779 276.643 568.409 275.291 524.560 271.754 C 511.044 270.786 495.642 269.618 478.593 268.494 C 478.593 249.595 478.593 230.443 478.593 213.802 C 496.048 216.846 511.445 220.427 524.560 224.214 M 421.595 265.647 C 421.595 243.446 421.595 223.927 421.595 206.981 C 442.888 208.631 462.142 211.066 478.593 213.802 M 360.000 264.425 C 360.000 248.138 360.000 222.165 360.000 204.837 C 340.607 204.837 322.459 205.451 305.760 206.523 C 305.760 224.270 305.760 250.289 305.760 265.501 C 284.638 266.137 265.431 267.118 248.761 268.015 C 248.761 252.867 248.761 229.692 248.761 212.685 C 265.918 210.035 284.816 207.927 305.760 206.523 M 202.795 271.246 C 202.795 258.139 202.795 239.034 202.795 222.242 C 216.309 218.640 231.740 215.375 248.761 212.685 M 202.795 504.263 C 202.795 489.464 202.795 471.517 202.795 452.151 C 215.621 452.856 230.858 453.835 248.761 454.842 C 248.761 480.215 248.761 501.968 248.761 517.834 C 231.174 513.933 215.908 509.272 202.795 504.263 C 161.685 488.400 143.067 469.039 144.897 459.192 C 146.555 450.265 165.171 450.123 202.795 452.151 M 305.760 526.184 C 305.760 510.222 305.760 485.576 305.760 457.212 C 322.426 457.669 340.522 457.971 360.000 457.972 C 360.000 487.622 360.000 512.579 360.000 528.426 C 340.416 528.518 322.230 527.727 305.760 526.184 C 284.318 524.304 265.110 521.298 248.761 517.834 M 524.560 498.784 C 524.560 485.382 524.560 469.277 524.560 451.733 C 553.281 450.476 568.099 451.377 569.587 459.192 C 571.228 467.805 556.909 483.949 524.560 498.784 C 512.163 504.499 496.887 509.997 478.593 514.706 C 478.593 499.170 478.593 478.327 478.593 454.458 C 496.455 453.413 511.597 452.416 524.560 451.733 M 421.595 524.939 C 421.595 508.540 421.595 484.866 421.595 457.122 C 443.117 456.382 462.200 455.376 478.593 454.458 M 248.761 454.842 C 265.474 455.723 284.470 456.598 305.760 457.212 M 360.000 528.441 C 360.000 528.441 360.000 528.441 360.000 528.426 C 360.000 528.441 360.000 528.441 360.000 528.441 C 382.175 528.339 402.505 527.103 421.595 524.939 C 442.716 522.587 461.905 518.989 478.593 514.706 M 360.000 457.972 C 382.357 457.974 402.841 457.570 421.595 457.122 M 127.537 266.433 C 125.730 255.032 150.287 236.135 202.795 222.242 M 202.795 271.246 C 153.668 275.236 129.239 277.170 127.537 266.433 M 248.761 268.015 C 231.270 269.142 215.714 270.362 202.795 271.246 M 360.000 264.425 C 341.439 264.446 324.029 264.763 305.760 265.501 M 360.919 264.594 C 360.919 264.594 360.919 264.594 360.000 264.425 C 360.920 264.594 360.919 264.594 360.919 264.594 M 421.595 265.647 C 402.720 265.006 382.613 264.586 360.000 264.425 M 478.593 268.494 C 461.346 267.412 442.292 266.382 421.595 265.647 M 360.000 204.837 C 382.445 204.837 403.226 205.660 421.595 206.981 "/>
<path fill="#ffffff" fill-rule="evenodd" stroke="#000000" stroke-width="4" stroke-linecap="round" stroke-linejoin="round" d="M 238.429 140.858 C 305.404 117.459 359.988 158.195 360.000 158.196 C 360.012 158.195 414.596 117.459 481.571 140.858 C 633.731 194.018 654.238 359.960 654.255 359.982 C 654.226 359.968 578.030 217.255 360.000 217.255 C 141.970 217.255 65.774 359.968 65.745 359.982 C 65.762 359.960 86.269 194.018 238.429 140.858 Z"/>
<path fill="#ffffff" fill-rule="evenodd" stroke="#000000" stroke-width="4" stroke-linecap="round" stroke-linejoin="round" d="M 360.000 598.078 C 107.654 598.078 65.774 360.006 65.745 359.982 C 65.774 359.996 143.025 499.047 360.000 499.047 C 576.975 499.047 654.226 359.996 654.255 359.982 C 654.226 360.006 612.346 598.078 360.000 598.078 Z"/>
</g>
<g id="specs_2">
<path fill="#ff00ff" fill-rule="evenodd" stroke="none" d="M 262.539 458.381 C 262.558 458.381 457.442 458.381 457.461 458.381 C 457.461 458.361 457.461 263.477 457.461 263.458 C 457.442 263.458 262.558 263.458 262.539 263.458 C 262.539 263.477 262.539 458.361 262.539 458.381 Z"/>
<path fill="#ff0000" fill-rule="evenodd" stroke="none" d="M 360.000 666.694 C 360.001 666.698 372.416 701.461 372.417 701.464 C 372.416 701.463 360.001 689.911 360.000 689.910 C 359.999 689.911 347.584 701.463 347.583 701.464 C 347.584 701.461 359.999 666.698 360.000 666.694 Z"/>
<path fill="#0000ff" fill-rule="evenodd" stroke="none" d="M 360.000 121.624 C 360.001 121.626 367.212 141.819 367.213 141.821 C 367.212 141.820 360.001 135.110 360.000 135.109 C 359.999 135.110 352.788 141.820 352.787 141.821 C 352.788 141.819 359.999 121.626 360.000 121.624 Z"/>
<path fill="#00ff00" fill-rule="evenodd" stroke="none" d="M 34.382 360.998 C 34.384 360.997 53.621 354.016 53.623 354.016 C 53.622 354.016 47.253 360.932 47.253 360.933 C 47.253 360.933 53.692 367.783 53.693 367.784 C 53.691 367.783 34.384 360.998 34.382 360.998 Z"/>
<path fill="#ffff00" fill-rule="evenodd" stroke="none" d="M 155.667 542.592 C 155.668 542.590 163.225 526.138 163.225 526.136 C 163.225 526.137 163.623 534.445 163.623 534.446 C 163.624 534.446 171.939 534.647 171.939 534.647 C 171.938 534.648 155.669 542.591 155.667 542.592 Z"/>
<path fill="#ffff00" fill-rule="evenodd" stroke="none" d="M 564.333 542.390 C 564.332 542.389 556.447 526.091 556.446 526.089 C 556.446 526.090 556.215 534.404 556.215 534.405 C 556.214 534.405 547.905 534.774 547.904 534.774 C 547.906 534.774 564.331 542.389 564.333 542.390 Z"/>
<path fill="#00ff00" fill-rule="evenodd" stroke="none" d="M 685.618 360.998 C 685.616 360.997 666.379 354.016 666.377 354.016 C 666.378 354.016 672.747 360.932 672.747 360.933 C 672.747 360.933 666.308 367.783 666.307 367.784 C 666.309 367.783 685.616 360.998 685.618 360.998 Z"/>
<path fill="#00ffff" fill-rule="evenodd" stroke="none" d="M 568.543 172.592 C 568.542 172.594 562.350 190.079 562.349 190.081 C 562.349 190.080 561.176 181.640 561.176 181.639 C 561.175 181.639 552.672 182.200 552.671 182.200 C 552.673 182.199 568.541 172.593 568.543 172.592 Z"/>
<path fill="#00ffff" fill-rule="evenodd" stroke="none" d="M 151.554 173.172 C 151.554 173.173 158.899 190.207 158.900 190.209 C 158.900 190.208 159.507 181.708 159.507 181.707 C 159.508 181.707 168.029 181.700 168.030 181.700 C 168.029 181.700 151.555 173.172 151.554 173.172 Z"/>
<path fill="#be0027" fill-rule="evenodd" stroke="none" d="M 360.000 618.479 C 360.001 618.475 372.416 583.713 372.417 583.709 C 372.416 583.710 360.001 595.262 360.000 595.263 C 359.999 595.262 347.584 583.710 347.583 583.709 C 347.584 583.713 359.999 618.475 360.000 618.479 Z"/>
</g>
</g>
</svg>
