<?xml version="1.0" encoding="utf-8"?>
<!-- Generator: Moho 12.5 build 22414 -->
<!DOCTYPE svg PUBLIC "-//W3C//DTD SVG 1.1//EN" "http://www.w3.org/Graphics/SVG/1.1/DTD/svg11.dtd">
<svg version="1.1" id="Frame_0" xmlns="http://www.w3.org/2000/svg" xmlns:xlink="http://www.w3.org/1999/xlink" width="720px" height="720px">
<g id="mushroom_cloud">
<g id="Layer_159">
<path fill="#ffffff" fill-rule="evenodd" stroke="#000000" stroke-width="4" stroke-linecap="round" stroke-linejoin="round" d="M 360.052 366.609 C 352.672 361.983 338.525 359.930 329.478 362.205 C 329.478 315.618 329.477 257.333 329.478 257.322 C 329.484 257.322 390.620 257.322 390.626 257.322 C 390.626 257.333 390.695 325.222 390.626 362.269 C 380.898 360.812 368.774 362.623 360.052 366.609 Z"/>
<path fill="#ffffff" fill-rule="evenodd" stroke="#000000" stroke-width="4" stroke-linecap="round" stroke-linejoin="round" d="M 390.626 426.474 C 390.433 420.257 390.626 413.827 390.626 407.447 C 381.314 408.424 369.967 405.633 360.052 401.062 C 350.067 407.320 339.661 411.069 329.478 412.084 C 329.478 415.694 329.651 420.465 329.478 424.813 C 324.629 546.623 318.566 609.184 240.000 629.594 C 280.000 629.647 440.000 629.594 480.000 629.594 C 400.000 609.594 393.596 540.870 390.626 426.474 Z"/>
<path fill="none" stroke="#ffffff" stroke-width="1" stroke-linecap="butt" stroke-linejoin="round" d="M 329.478 424.813 C 329.651 420.465 329.478 415.694 329.478 412.084 "/>
<path fill="none" stroke="#ffffff" stroke-width="1" stroke-linecap="butt" stroke-linejoin="round" d="M 329.478 412.084 C 339.661 411.069 350.067 407.320 360.052 401.062 "/>
<path fill="none" stroke="#ffffff" stroke-width="1" stroke-linecap="butt" stroke-linejoin="round" d="M 360.052 401.062 C 369.967 405.633 381.314 408.424 390.626 407.447 "/>
<path fill="none" stroke="#ffffff" stroke-width="1" stroke-linecap="butt" stroke-linejoin="round" d="M 390.626 407.447 C 390.626 413.827 390.433 420.257 390.626 426.474 "/>
<path fill="none" stroke="#ffffff" stroke-width="1" stroke-linecap="butt" stroke-linejoin="round" d="M 390.626 362.269 C 380.898 360.812 368.774 362.623 360.052 366.609 "/>
<path fill="none" stroke="#ffffff" stroke-width="1" stroke-linecap="butt" stroke-linejoin="round" d="M 360.052 366.609 C 352.672 361.983 338.525 359.930 329.478 362.205 "/>
<path fill="#ffffff" fill-rule="evenodd" stroke="none" d="M 294.230 414.374 C 298.749 427.378 314.270 429.784 329.478 424.813 C 329.651 420.465 329.478 415.694 329.478 412.084 C 339.661 411.069 350.067 407.320 360.052 401.062 C 369.967 405.633 381.314 408.424 390.626 407.447 C 390.626 413.827 390.433 420.257 390.626 426.474 C 393.977 425.213 397.135 423.844 399.874 421.538 C 408.698 429.047 421.902 422.107 425.874 414.374 C 440.402 419.822 448.471 413.854 449.464 403.241 C 461.986 396.150 457.873 377.592 436.987 380.582 C 437.726 370.493 416.707 364.038 403.990 369.302 C 401.780 365.313 396.533 363.180 390.626 362.269 C 380.898 360.812 368.774 362.623 360.052 366.609 C 352.672 361.983 338.525 359.930 329.478 362.205 C 326.214 362.954 323.596 364.353 322.288 366.421 C 313.387 359.365 294.850 366.069 294.230 372.761 C 275.253 369.439 248.676 381.004 266.111 399.125 C 256.308 409.213 281.529 417.436 294.230 414.374 Z"/>
<path fill="none" stroke="#000000" stroke-width="4" stroke-linecap="round" stroke-linejoin="round" d="M 294.230 414.374 C 298.749 427.378 314.270 429.784 329.478 424.813 C 329.651 420.465 329.478 415.694 329.478 412.084 C 322.824 412.776 316.148 412.152 309.999 410.126 M 266.111 399.125 C 256.308 409.213 281.529 417.436 294.230 414.374 M 294.230 372.761 C 275.253 369.439 248.676 381.004 266.111 399.125 M 322.288 366.421 C 313.387 359.365 294.850 366.069 294.230 372.761 M 329.478 362.205 C 326.214 362.954 323.596 364.353 322.288 366.421 M 360.052 366.609 C 352.672 361.983 338.525 359.930 329.478 362.205 M 390.626 362.269 C 380.898 360.812 368.774 362.623 360.052 366.609 M 403.990 369.302 C 401.780 365.313 396.533 363.180 390.626 362.269 M 436.987 380.582 C 437.726 370.493 416.707 364.038 403.990 369.302 M 449.464 403.241 C 461.986 396.150 457.873 377.592 436.987 380.582 M 425.874 414.374 C 440.402 419.822 448.471 413.854 449.464 403.241 M 399.874 421.538 C 408.698 429.047 421.902 422.107 425.874 414.374 M 390.626 426.474 C 393.977 425.213 397.135 423.844 399.874 421.538 M 390.626 426.474 C 390.433 420.257 390.626 413.827 390.626 407.447 C 381.314 408.424 369.967 405.633 360.052 401.062 C 350.067 407.320 339.661 411.069 329.478 412.084 M 402.333 402.719 C 399.291 405.476 395.167 406.970 390.626 407.447 M 410.105 405.980 C 407.658 405.063 404.974 403.960 402.333 402.719 "/>
<path fill="#ffffff" fill-rule="evenodd" stroke="#000000" stroke-width="4" stroke-linecap="round" stroke-linejoin="round" d="M 195.085 155.656 C 128.054 150.167 94.421 141.197 94.421 132.617 C 94.421 122.930 137.294 112.747 223.095 107.723 C 261.303 105.263 306.575 103.926 360.000 103.926 C 416.987 103.926 464.697 105.447 502.685 107.922 C 585.121 113.328 625.579 123.207 625.579 132.617 C 625.579 141.059 593.022 149.878 528.129 155.358 C 527.172 161.837 524.891 168.013 521.249 173.253 C 645.998 164.195 706.468 145.835 706.468 132.617 C 706.468 118.132 633.845 97.472 483.831 89.673 C 448.417 87.866 406.599 86.756 360.000 86.756 C 315.731 86.756 275.777 87.757 240.577 89.473 C 87.982 96.954 13.532 117.951 13.532 132.617 C 13.532 145.654 72.356 163.692 189.958 172.599 C 190.873 166.729 192.639 160.947 195.085 155.656 Z"/>
<path fill="none" stroke="#ffffff" stroke-width="1" stroke-linecap="butt" stroke-linejoin="round" d="M 360.000 86.756 C 406.599 86.756 448.417 87.866 483.831 89.673 "/>
<path fill="none" stroke="#ffffff" stroke-width="1" stroke-linecap="butt" stroke-linejoin="round" d="M 240.577 89.473 C 275.777 87.757 315.731 86.756 360.000 86.756 "/>
<path fill="#ffffff" fill-rule="evenodd" stroke="#000000" stroke-width="4" stroke-linecap="round" stroke-linejoin="round" d="M 360.000 86.756 C 406.599 86.756 448.417 87.866 483.831 89.673 C 477.636 70.498 444.539 51.438 418.106 71.367 C 408.944 54.281 377.260 50.495 357.425 72.627 C 350.811 58.059 330.429 57.272 322.782 73.100 C 293.982 45.982 250.627 66.728 240.577 89.473 C 275.777 87.757 315.731 86.756 360.000 86.756 Z"/>
<path fill="none" stroke="#ffffff" stroke-width="1" stroke-linecap="butt" stroke-linejoin="round" d="M 502.685 107.922 C 464.697 105.447 416.987 103.926 360.000 103.926 "/>
<path fill="none" stroke="#ffffff" stroke-width="1" stroke-linecap="butt" stroke-linejoin="round" d="M 360.000 103.926 C 306.575 103.926 261.303 105.263 223.095 107.723 "/>
<path fill="none" stroke="#ffffff" stroke-width="1" stroke-linecap="butt" stroke-linejoin="round" d="M 195.085 155.656 C 192.639 160.947 190.873 166.729 189.958 172.599 "/>
<path fill="none" stroke="#ffffff" stroke-width="1" stroke-linecap="butt" stroke-linejoin="round" d="M 521.249 173.253 C 524.891 168.013 527.172 161.837 528.129 155.358 "/>
<path fill="#ffffff" fill-rule="evenodd" stroke="#000000" stroke-width="4" stroke-linecap="round" stroke-linejoin="round" d="M 500.537 115.593 C 501.845 112.946 502.535 110.281 502.685 107.922 C 464.697 105.447 416.987 103.926 360.000 103.926 C 306.575 103.926 261.303 105.263 223.095 107.723 C 215.974 114.441 211.939 124.798 214.514 132.421 C 206.252 137.700 199.548 146.000 195.085 155.656 C 192.639 160.947 190.873 166.729 189.958 172.599 C 187.043 191.284 193.184 210.829 212.928 219.853 C 204.912 232.485 217.054 253.406 232.934 249.752 C 231.581 279.696 264.112 304.339 297.547 280.990 C 309.755 295.777 337.001 288.621 335.164 271.987 C 348.084 280.223 372.101 284.191 381.650 266.536 C 386.745 278.491 399.541 290.241 416.348 279.915 C 435.205 300.411 461.247 282.506 467.391 261.030 C 485.910 271.277 491.711 253.982 493.189 245.465 C 534.084 246.598 533.383 195.127 517.820 177.379 C 519.148 176.015 520.353 174.544 521.249 173.253 C 524.891 168.013 527.172 161.837 528.129 155.358 C 530.909 136.528 521.589 116.177 500.537 115.593 Z"/>
<path fill="none" stroke="#000000" stroke-width="4" stroke-linecap="round" stroke-linejoin="round" d="M 421.241 604.230 C 430.171 617.567 438.796 624.608 448.297 629.521 M 402.420 579.527 C 408.071 603.405 414.357 615.283 424.770 630.109 M 397.126 594.231 C 399.936 606.633 403.709 623.194 410.066 629.521 M 300.667 601.877 C 292.041 613.444 285.016 622.418 271.259 629.521 M 317.724 587.761 C 309.818 608.076 302.828 617.755 291.844 629.521 M 324.194 602.465 C 319.172 614.898 314.476 625.272 308.313 629.521 M 373.012 599.524 C 373.992 609.327 375.131 624.763 375.952 628.932 M 347.228 603.952 C 345.659 612.277 344.179 622.774 342.522 628.929 M 338.235 592.521 C 334.833 605.324 330.951 620.840 326.472 628.417 M 383.529 587.815 C 385.872 603.294 389.073 621.070 393.528 629.005 M 360.588 595.461 C 360.392 606.839 360.196 618.216 360.000 629.594 "/>
<path fill="none" stroke="#000000" stroke-width="4" stroke-linecap="round" stroke-linejoin="round" d="M 384.125 293.515 C 384.283 286.876 384.441 280.237 384.599 273.598 M 376.537 295.412 C 376.695 287.983 376.853 280.553 377.011 273.124 M 368.001 294.938 C 368.001 289.405 368.001 283.873 368.001 278.340 M 358.991 299.206 C 358.833 292.725 358.675 286.244 358.517 279.763 M 351.404 293.989 C 350.929 288.931 350.455 283.873 349.981 278.814 M 343.816 299.206 C 343.342 291.460 342.868 283.715 342.393 275.969 M 335.755 294.464 C 335.754 288.141 335.754 281.818 335.754 275.495 M 383.651 436.255 C 383.492 426.771 383.334 417.286 383.176 407.802 M 374.640 431.987 C 374.482 423.293 374.324 414.599 374.166 405.905 M 367.053 423.451 C 366.895 416.812 366.737 410.173 366.579 403.534 M 358.517 430.564 C 358.517 421.238 358.517 411.912 358.517 402.585 M 349.507 424.400 C 349.349 418.393 349.191 412.386 349.033 406.379 M 342.868 442.894 C 342.868 431.513 342.868 420.131 342.868 408.750 M 335.280 431.987 C 335.280 425.190 335.280 418.393 335.280 411.595 "/>
</g>
<g id="specs_2">
<path fill="#ff00ff" fill-rule="evenodd" stroke="none" d="M 244.548 264.569 C 244.571 264.569 475.429 264.569 475.452 264.569 C 475.452 264.551 475.452 80.999 475.452 80.980 C 475.429 80.980 244.571 80.980 244.548 80.980 C 244.548 80.999 244.548 264.551 244.548 264.569 Z"/>
<path fill="#ff0000" fill-rule="evenodd" stroke="none" d="M 360.000 666.385 C 360.001 666.389 372.416 701.152 372.417 701.155 C 372.416 701.154 360.001 689.603 360.000 689.601 C 359.999 689.603 347.584 701.154 347.583 701.155 C 347.584 701.152 359.999 666.389 360.000 666.385 Z"/>
<path fill="#0000ff" fill-rule="evenodd" stroke="none" d="M 360.000 47.179 C 360.001 47.181 367.212 67.374 367.213 67.376 C 367.212 67.375 360.001 60.665 360.000 60.664 C 359.999 60.665 352.788 67.375 352.787 67.376 C 352.788 67.374 359.999 47.181 360.000 47.179 Z"/>
<path fill="#00ff00" fill-rule="evenodd" stroke="none" d="M 245.165 392.900 C 245.167 392.899 259.785 387.595 259.786 387.595 C 259.786 387.595 254.946 392.850 254.945 392.851 C 254.946 392.851 259.839 398.056 259.839 398.057 C 259.838 398.056 245.167 392.900 245.165 392.900 Z"/>
<path fill="#ffff00" fill-rule="evenodd" stroke="none" d="M 244.539 635.046 C 244.539 635.045 248.809 625.748 248.810 625.747 C 248.810 625.748 249.035 630.442 249.035 630.443 C 249.035 630.443 253.733 630.557 253.734 630.557 C 253.733 630.557 244.540 635.045 244.539 635.046 Z"/>
<path fill="#ffff00" fill-rule="evenodd" stroke="none" d="M 475.461 634.932 C 475.461 634.931 471.005 625.722 471.005 625.721 C 471.005 625.721 470.874 630.419 470.874 630.420 C 470.874 630.420 466.178 630.628 466.178 630.628 C 466.179 630.628 475.460 634.931 475.461 634.932 Z"/>
<path fill="#00ff00" fill-rule="evenodd" stroke="none" d="M 474.835 392.900 C 474.834 392.899 460.215 387.595 460.214 387.595 C 460.214 387.595 465.054 392.850 465.055 392.851 C 465.054 392.851 460.162 398.056 460.161 398.057 C 460.163 398.056 474.834 392.900 474.835 392.900 Z"/>
<path fill="#00ffff" fill-rule="evenodd" stroke="none" d="M 552.651 69.656 C 552.650 69.657 546.930 85.810 546.929 85.811 C 546.929 85.810 545.846 78.013 545.846 78.013 C 545.845 78.013 537.990 78.531 537.989 78.531 C 537.991 78.530 552.649 69.657 552.651 69.656 Z"/>
<path fill="#00ffff" fill-rule="evenodd" stroke="none" d="M 167.461 70.191 C 167.462 70.193 174.246 85.928 174.247 85.929 C 174.247 85.928 174.808 78.076 174.808 78.076 C 174.809 78.076 182.680 78.070 182.681 78.070 C 182.679 78.069 167.462 70.192 167.461 70.191 Z"/>
<path fill="#be0027" fill-rule="evenodd" stroke="none" d="M 360.000 655.534 C 360.001 655.530 372.416 620.767 372.417 620.764 C 372.416 620.765 360.001 632.316 360.000 632.318 C 359.999 632.316 347.584 620.765 347.583 620.764 C 347.584 620.767 359.999 655.530 360.000 655.534 Z"/>
</g>
</g>
</svg>
