<?xml version="1.0" encoding="utf-8"?>
<!-- Generator: Moho 13.5.1 build 20210623 -->
<!DOCTYPE svg PUBLIC "-//W3C//DTD SVG 1.1//EN" "http://www.w3.org/Graphics/SVG/1.1/DTD/svg11.dtd">
<svg version="1.1" id="Frame_0" xmlns="http://www.w3.org/2000/svg" xmlns:xlink="http://www.w3.org/1999/xlink" width="720px" height="720px">
<g id="mushroom_cloud">
<g id="Layer_159">
<linearGradient id="6EF6AC7E-7085-4953-B4BF-0EA7D76E9523_0" x1="51.90%" y1="86.65%" x2="49.41%" y2="-17.83%">
<stop offset="34.12%" style="stop-color:rgb(255,255,255);stop-opacity:1.00" />
<stop offset="100.00%" style="stop-color:rgb(0,0,0);stop-opacity:1.00" />
</linearGradient>
<path fill="url(#6EF6AC7E-7085-4953-B4BF-0EA7D76E9523_0)" fill-rule="evenodd" stroke="#000000" stroke-width="4" stroke-linecap="round" stroke-linejoin="round" d="M 360.052 366.617 C 352.663 361.986 338.498 359.930 329.440 362.208 C 329.440 315.563 329.439 257.205 329.440 257.194 C 329.446 257.195 390.658 257.195 390.664 257.194 C 390.664 257.205 390.733 325.179 390.664 362.272 C 380.924 360.813 368.785 362.627 360.052 366.617 Z"/>
<linearGradient id="6EF6AC7E-7085-4953-B4BF-0EA7D76E9523_1" x1="50.00%" y1="50.60%" x2="49.84%" y2="-40.89%">
<stop offset="34.12%" style="stop-color:rgb(255,255,255);stop-opacity:1.00" />
<stop offset="100.00%" style="stop-color:rgb(0,0,0);stop-opacity:1.00" />
</linearGradient>
<path fill="url(#6EF6AC7E-7085-4953-B4BF-0EA7D76E9523_1)" fill-rule="evenodd" stroke="#000000" stroke-width="4" stroke-linecap="round" stroke-linejoin="round" d="M 390.664 426.557 C 390.471 420.332 390.664 413.894 390.664 407.506 C 381.341 408.485 369.980 405.690 360.052 401.114 C 350.055 407.379 339.636 411.132 329.440 412.149 C 329.440 415.764 329.260 420.541 329.440 424.894 C 333.507 523.414 325.666 587.137 291.348 601.594 C 324.201 609.745 395.945 608.520 428.652 601.594 C 393.325 587.066 386.883 518.843 390.664 426.557 Z"/>
<radialGradient id="6EF6AC7E-7085-4953-B4BF-0EA7D76E9523_2" cx="48.39%" cy="50.50%" r="93.78%">
<stop offset="43.53%" style="stop-color:rgb(255,255,255);stop-opacity:1.00" />
<stop offset="100.00%" style="stop-color:rgb(0,0,0);stop-opacity:1.00" />
</radialGradient>
<path fill="none" stroke="#ffffff" stroke-width="1" stroke-linecap="butt" stroke-linejoin="round" d="M 329.440 424.894 C 329.260 420.541 329.440 415.764 329.440 412.149 "/>
<path fill="none" stroke="#ffffff" stroke-width="1" stroke-linecap="butt" stroke-linejoin="round" d="M 329.440 412.149 C 339.636 411.132 350.055 407.379 360.052 401.114 "/>
<path fill="none" stroke="#ffffff" stroke-width="1" stroke-linecap="butt" stroke-linejoin="round" d="M 360.052 401.114 C 369.980 405.690 381.341 408.485 390.664 407.506 "/>
<path fill="none" stroke="#ffffff" stroke-width="1" stroke-linecap="butt" stroke-linejoin="round" d="M 390.664 407.506 C 390.664 413.894 390.471 420.332 390.664 426.557 "/>
<path fill="none" stroke="#ffffff" stroke-width="1" stroke-linecap="butt" stroke-linejoin="round" d="M 390.664 362.272 C 380.924 360.813 368.785 362.627 360.052 366.617 "/>
<path fill="none" stroke="#ffffff" stroke-width="1" stroke-linecap="butt" stroke-linejoin="round" d="M 360.052 366.617 C 352.663 361.986 338.498 359.930 329.440 362.208 "/>
<path fill="url(#6EF6AC7E-7085-4953-B4BF-0EA7D76E9523_2)" fill-rule="evenodd" stroke="none" d="M 294.148 414.442 C 298.672 427.463 314.213 429.871 329.440 424.894 C 329.260 420.541 329.440 415.764 329.440 412.149 C 339.636 411.132 350.055 407.379 360.052 401.114 C 369.980 405.690 381.341 408.485 390.664 407.506 C 390.664 413.894 390.471 420.332 390.664 426.557 C 394.096 425.521 397.181 423.924 399.923 421.615 C 408.759 429.133 421.979 422.184 425.956 414.442 C 440.503 419.896 448.581 413.921 449.575 403.295 C 462.113 396.195 457.995 377.614 437.083 380.608 C 437.823 370.507 416.778 364.044 404.045 369.314 C 401.832 365.319 396.579 363.184 390.664 362.272 C 380.924 360.813 368.785 362.627 360.052 366.617 C 352.663 361.986 338.498 359.930 329.440 362.208 C 326.172 362.958 323.551 364.359 322.241 366.429 C 313.329 359.365 294.769 366.076 294.148 372.778 C 275.147 369.451 248.538 381.030 265.994 399.174 C 256.179 409.274 281.431 417.508 294.148 414.442 Z"/>
<path fill="none" stroke="#000000" stroke-width="4" stroke-linecap="round" stroke-linejoin="round" d="M 294.148 414.442 C 298.672 427.463 314.213 429.871 329.440 424.894 C 329.260 420.541 329.440 415.764 329.440 412.149 C 322.777 412.842 316.093 412.217 309.936 410.188 M 265.994 399.174 C 256.179 409.274 281.431 417.508 294.148 414.442 M 294.148 372.778 C 275.147 369.451 248.538 381.030 265.994 399.174 M 322.241 366.429 C 313.329 359.365 294.769 366.076 294.148 372.778 M 329.440 362.208 C 326.172 362.958 323.551 364.359 322.241 366.429 M 360.052 366.617 C 352.663 361.986 338.498 359.930 329.440 362.208 M 390.664 362.272 C 380.924 360.813 368.785 362.627 360.052 366.617 M 404.045 369.314 C 401.832 365.319 396.579 363.184 390.664 362.272 M 437.083 380.608 C 437.823 370.507 416.778 364.044 404.045 369.314 M 449.575 403.295 C 462.113 396.195 457.995 377.614 437.083 380.608 M 425.956 414.442 C 440.503 419.896 448.581 413.921 449.575 403.295 M 399.923 421.615 C 408.759 429.133 421.979 422.184 425.956 414.442 M 390.664 426.557 C 394.096 425.521 397.181 423.924 399.923 421.615 M 390.664 426.557 C 390.471 420.332 390.664 413.894 390.664 407.506 C 381.341 408.485 369.980 405.690 360.052 401.114 C 350.055 407.379 339.636 411.132 329.440 412.149 M 402.386 402.772 C 399.340 405.532 395.210 407.029 390.664 407.506 M 410.167 406.037 C 407.717 405.119 405.030 404.015 402.386 402.772 "/>
<path fill="#ffffff" fill-rule="evenodd" stroke="#000000" stroke-width="4" stroke-linecap="round" stroke-linejoin="round" d="M 194.879 155.401 C 127.765 149.906 94.090 140.925 94.090 132.334 C 94.090 122.635 137.016 112.439 222.924 107.409 C 261.180 104.946 306.508 103.608 360.000 103.608 C 417.058 103.608 464.828 105.130 502.863 107.609 C 585.402 113.021 625.910 122.912 625.910 132.334 C 625.910 140.787 593.312 149.616 528.338 155.103 C 527.381 161.591 525.097 167.774 521.450 173.020 C 646.355 163.951 706.900 145.568 706.900 132.334 C 706.900 117.831 634.186 97.145 483.985 89.336 C 448.527 87.527 406.657 86.416 360.000 86.416 C 315.676 86.416 275.672 87.419 240.428 89.137 C 87.643 96.627 13.100 117.650 13.100 132.334 C 13.100 145.387 71.998 163.448 189.746 172.365 C 190.662 166.488 192.430 160.699 194.879 155.401 Z"/>
<radialGradient id="6EF6AC7E-7085-4953-B4BF-0EA7D76E9523_4" cx="47.65%" cy="354.01%" r="598.03%">
<stop offset="43.53%" style="stop-color:rgb(255,255,255);stop-opacity:1.00" />
<stop offset="100.00%" style="stop-color:rgb(0,0,0);stop-opacity:1.00" />
</radialGradient>
<path fill="none" stroke="#ffffff" stroke-width="1" stroke-linecap="butt" stroke-linejoin="round" d="M 360.000 86.416 C 406.657 86.416 448.527 87.527 483.985 89.336 "/>
<path fill="none" stroke="#ffffff" stroke-width="1" stroke-linecap="butt" stroke-linejoin="round" d="M 240.428 89.137 C 275.672 87.419 315.676 86.416 360.000 86.416 "/>
<path fill="url(#6EF6AC7E-7085-4953-B4BF-0EA7D76E9523_4)" fill-rule="evenodd" stroke="#000000" stroke-width="4" stroke-linecap="round" stroke-linejoin="round" d="M 360.000 86.416 C 406.657 86.416 448.527 87.527 483.985 89.336 C 477.782 70.137 444.644 51.054 418.178 71.007 C 409.005 53.900 377.281 50.110 357.422 72.270 C 350.799 57.683 330.392 56.895 322.736 72.742 C 293.900 45.591 250.491 66.363 240.428 89.137 C 275.672 87.419 315.676 86.416 360.000 86.416 Z"/>
<radialGradient id="6EF6AC7E-7085-4953-B4BF-0EA7D76E9523_5" cx="49.80%" cy="35.97%" r="103.45%">
<stop offset="43.53%" style="stop-color:rgb(255,255,255);stop-opacity:1.00" />
<stop offset="100.00%" style="stop-color:rgb(0,0,0);stop-opacity:1.00" />
</radialGradient>
<path fill="none" stroke="#ffffff" stroke-width="1" stroke-linecap="butt" stroke-linejoin="round" d="M 502.863 107.609 C 464.828 105.130 417.058 103.608 360.000 103.608 "/>
<path fill="none" stroke="#ffffff" stroke-width="1" stroke-linecap="butt" stroke-linejoin="round" d="M 360.000 103.608 C 306.508 103.608 261.180 104.946 222.924 107.409 "/>
<path fill="none" stroke="#ffffff" stroke-width="1" stroke-linecap="butt" stroke-linejoin="round" d="M 194.879 155.401 C 192.430 160.699 190.662 166.488 189.746 172.365 "/>
<path fill="none" stroke="#ffffff" stroke-width="1" stroke-linecap="butt" stroke-linejoin="round" d="M 521.450 173.020 C 525.097 167.774 527.381 161.591 528.338 155.103 "/>
<path fill="url(#6EF6AC7E-7085-4953-B4BF-0EA7D76E9523_5)" fill-rule="evenodd" stroke="#000000" stroke-width="4" stroke-linecap="round" stroke-linejoin="round" d="M 500.712 115.289 C 502.022 112.639 502.712 109.970 502.863 107.609 C 464.828 105.130 417.058 103.608 360.000 103.608 C 306.508 103.608 261.180 104.946 222.924 107.409 C 215.794 114.136 211.754 124.505 214.332 132.138 C 206.060 137.423 199.348 145.733 194.879 155.401 C 192.430 160.699 190.662 166.488 189.746 172.365 C 186.828 191.074 192.976 210.643 212.745 219.679 C 204.718 232.327 216.876 253.273 232.776 249.615 C 231.421 279.596 263.992 304.269 297.469 280.892 C 309.693 295.697 336.972 288.532 335.133 271.877 C 348.069 280.124 372.116 284.097 381.677 266.420 C 386.779 278.390 399.590 290.154 416.418 279.816 C 435.298 300.337 461.373 282.410 467.525 260.907 C 486.067 271.167 491.875 253.850 493.355 245.323 C 534.301 246.457 533.599 194.922 518.017 177.152 C 519.346 175.786 520.553 174.313 521.450 173.020 C 525.097 167.774 527.381 161.591 528.338 155.103 C 531.122 136.250 521.790 115.873 500.712 115.289 Z"/>
</g>
<g id="specs_2">
<path fill="#ff00ff" fill-rule="evenodd" stroke="none" d="M 244.404 264.450 C 244.427 264.450 475.573 264.450 475.596 264.450 C 475.596 264.432 475.596 80.651 475.596 80.633 C 475.573 80.633 244.427 80.633 244.404 80.633 C 244.404 80.651 244.404 264.432 244.404 264.450 Z"/>
<path fill="#ff0000" fill-rule="evenodd" stroke="none" d="M 360.000 545.342 C 360.001 545.345 372.432 580.152 372.433 580.155 C 372.432 580.154 360.001 568.588 360.000 568.587 C 359.999 568.588 347.568 580.154 347.567 580.155 C 347.568 580.152 359.999 545.345 360.000 545.342 Z"/>
<path fill="#0000ff" fill-rule="evenodd" stroke="none" d="M 360.000 46.789 C 360.001 46.791 367.221 67.009 367.222 67.011 C 367.221 67.011 360.001 60.292 360.000 60.292 C 359.999 60.292 352.779 67.011 352.778 67.011 C 352.779 67.009 359.999 46.791 360.000 46.789 Z"/>
<path fill="#00ff00" fill-rule="evenodd" stroke="none" d="M 245.022 392.941 C 245.023 392.940 259.660 387.630 259.661 387.629 C 259.661 387.630 254.815 392.892 254.814 392.892 C 254.815 392.893 259.714 398.104 259.714 398.104 C 259.713 398.104 245.023 392.942 245.022 392.941 Z"/>
<path fill="#ffff00" fill-rule="evenodd" stroke="none" d="M 294.554 603.274 C 294.555 603.274 296.975 598.004 296.975 598.003 C 296.975 598.004 297.103 600.665 297.103 600.665 C 297.103 600.665 299.766 600.730 299.766 600.730 C 299.766 600.730 294.555 603.274 294.554 603.274 Z"/>
<path fill="#ffff00" fill-rule="evenodd" stroke="none" d="M 425.446 603.210 C 425.445 603.209 422.920 597.989 422.920 597.989 C 422.920 597.989 422.846 600.652 422.846 600.652 C 422.845 600.652 420.184 600.770 420.184 600.770 C 420.184 600.770 425.445 603.209 425.446 603.210 Z"/>
<path fill="#00ff00" fill-rule="evenodd" stroke="none" d="M 474.978 392.941 C 474.977 392.940 460.340 387.630 460.339 387.629 C 460.339 387.630 465.185 392.892 465.186 392.892 C 465.185 392.893 460.287 398.104 460.286 398.104 C 460.288 398.104 474.977 392.942 474.978 392.941 Z"/>
<path fill="#00ffff" fill-rule="evenodd" stroke="none" d="M 552.891 69.294 C 552.890 69.296 547.162 85.468 547.162 85.470 C 547.162 85.469 546.077 77.662 546.077 77.661 C 546.076 77.662 538.212 78.181 538.211 78.181 C 538.213 78.180 552.889 69.295 552.891 69.294 Z"/>
<path fill="#00ffff" fill-rule="evenodd" stroke="none" d="M 167.221 69.830 C 167.222 69.832 174.015 85.587 174.015 85.588 C 174.016 85.587 174.577 77.725 174.577 77.725 C 174.578 77.725 182.459 77.719 182.460 77.719 C 182.459 77.718 167.223 69.831 167.221 69.830 Z"/>
<path fill="#be0027" fill-rule="evenodd" stroke="none" d="M 360.000 625.594 C 360.001 625.591 369.710 598.407 369.710 598.405 C 369.710 598.405 360.001 607.439 360.000 607.440 C 359.999 607.439 350.291 598.405 350.290 598.405 C 350.291 598.407 359.999 625.591 360.000 625.594 Z"/>
</g>
</g>
</svg>
