<?xml version="1.0" encoding="utf-8"?>
<!-- Generator: Moho 12.5 build 22414 -->
<!DOCTYPE svg PUBLIC "-//W3C//DTD SVG 1.1//EN" "http://www.w3.org/Graphics/SVG/1.1/DTD/svg11.dtd">
<svg version="1.1" id="Frame_0" xmlns="http://www.w3.org/2000/svg" xmlns:xlink="http://www.w3.org/1999/xlink" width="720px" height="720px">
<g id="mushroom_cloud">
<g id="mushroom_cloud">
<path fill="#ffffff" fill-rule="evenodd" stroke="#000000" stroke-width="4" stroke-linejoin="round" d="M 284.361 609.766 C 324.220 560.586 325.399 505.624 326.429 461.756 C 330.094 470.415 338.273 477.218 348.434 477.930 C 359.128 478.679 368.672 472.914 374.933 464.912 C 377.949 466.752 381.347 468.142 385.050 468.232 C 386.700 485.989 388.333 562.849 426.520 609.766 C 375.632 611.892 318.044 609.141 284.361 609.766 Z"/>
<path fill="#ffffff" fill-rule="evenodd" stroke="none" d="M 271.153 381.567 C 260.433 381.567 251.163 387.621 246.605 396.413 C 255.382 398.130 262.691 403.940 265.906 412.098 C 276.057 412.098 285.048 416.942 290.800 424.630 C 293.119 423.385 301.138 421.815 302.638 421.639 C 308.017 421.007 320.466 425.984 321.632 427.502 C 322.961 424.737 324.496 420.988 326.289 419.179 C 327.281 402.259 326.888 386.138 326.400 370.542 C 324.408 370.071 322.143 370.017 319.811 370.118 C 306.643 370.689 295.437 378.412 291.146 390.083 C 286.004 384.781 278.963 381.567 271.153 381.567 Z"/>
<path fill="none" stroke="#000000" stroke-width="4" stroke-linejoin="round" d="M 271.153 381.567 C 260.433 381.567 251.163 387.621 246.605 396.413 C 255.382 398.130 262.691 403.940 265.906 412.098 C 276.057 412.098 285.048 416.942 290.800 424.630 C 293.119 423.385 301.138 421.815 302.638 421.639 C 308.017 421.007 320.466 425.984 321.632 427.502 C 322.961 424.737 324.496 420.988 326.289 419.179 C 327.281 402.259 326.888 386.138 326.400 370.542 C 324.408 370.071 322.143 370.017 319.811 370.118 C 306.643 370.689 295.437 378.412 291.146 390.083 C 286.004 384.781 278.963 381.567 271.153 381.567 M 298.822 409.236 C 298.821 401.732 295.855 394.938 291.146 390.083 "/>
<path fill="#ffffff" fill-rule="evenodd" stroke="none" d="M 392.801 420.817 C 391.330 420.492 386.891 419.581 383.729 419.730 C 382.253 396.638 382.281 384.461 382.965 370.389 C 397.010 368.784 410.324 376.943 413.704 389.951 C 418.155 387.095 423.638 385.383 429.531 385.383 C 439.354 385.383 448.037 390.138 453.535 397.666 C 442.712 401.642 434.870 411.269 433.529 423.056 C 429.470 420.819 424.915 419.583 420.064 419.583 C 413.155 419.583 406.846 422.091 402.146 426.136 C 401.180 423.739 392.801 420.817 392.801 420.817 Z"/>
<path fill="none" stroke="#000000" stroke-width="4" stroke-linejoin="round" d="M 392.801 420.817 C 391.330 420.492 386.891 419.581 383.729 419.730 C 382.253 396.638 382.281 384.461 382.965 370.389 C 397.010 368.784 410.324 376.943 413.704 389.951 C 414.145 391.655 414.266 393.513 414.266 395.401 M 402.146 426.136 C 401.180 423.739 392.801 420.817 392.801 420.817 M 420.064 419.583 C 424.915 419.583 429.470 420.819 433.529 423.056 C 434.870 411.269 442.712 401.642 453.535 397.666 C 448.037 390.138 439.354 385.383 429.531 385.383 C 423.638 385.383 418.155 387.095 413.704 389.951 M 402.146 426.136 C 406.846 422.091 413.155 419.583 420.064 419.583 "/>
<path fill="none" stroke="#ffffff" stroke-width="1" stroke-linecap="butt" stroke-linejoin="round" d="M 326.289 419.179 C 324.496 420.988 322.961 424.737 321.632 427.502 "/>
<path fill="none" stroke="#ffffff" stroke-width="1" stroke-linecap="butt" stroke-linejoin="round" d="M 321.632 427.502 C 320.466 425.984 308.017 421.007 302.638 421.639 "/>
<path fill="none" stroke="#ffffff" stroke-width="1" stroke-linecap="butt" stroke-linejoin="round" d="M 302.638 421.639 C 301.138 421.815 293.119 423.385 290.800 424.630 "/>
<path fill="none" stroke="#ffffff" stroke-width="1" stroke-linecap="butt" stroke-linejoin="round" d="M 290.800 424.630 C 285.048 416.942 276.057 412.098 265.906 412.098 "/>
<path fill="none" stroke="#ffffff" stroke-width="1" stroke-linecap="butt" stroke-linejoin="round" d="M 265.906 412.098 C 262.691 403.940 255.382 398.130 246.605 396.413 "/>
<path fill="none" stroke="#ffffff" stroke-width="1" stroke-linecap="butt" stroke-linejoin="round" d="M 326.429 461.756 C 330.094 470.415 338.273 477.218 348.434 477.930 "/>
<path fill="none" stroke="#ffffff" stroke-width="1" stroke-linecap="butt" stroke-linejoin="round" d="M 348.434 477.930 C 359.128 478.679 368.672 472.914 374.933 464.912 "/>
<path fill="none" stroke="#ffffff" stroke-width="1" stroke-linecap="butt" stroke-linejoin="round" d="M 374.933 464.912 C 377.949 466.752 381.347 468.142 385.050 468.232 "/>
<path fill="none" stroke="#ffffff" stroke-width="1" stroke-linecap="butt" stroke-linejoin="round" d="M 453.535 397.666 C 442.712 401.642 434.870 411.269 433.529 423.056 "/>
<path fill="none" stroke="#ffffff" stroke-width="1" stroke-linecap="butt" stroke-linejoin="round" d="M 433.529 423.056 C 429.470 420.819 424.915 419.583 420.064 419.583 "/>
<path fill="none" stroke="#ffffff" stroke-width="1" stroke-linecap="butt" stroke-linejoin="round" d="M 420.064 419.583 C 413.155 419.583 406.846 422.091 402.146 426.136 "/>
<path fill="none" stroke="#ffffff" stroke-width="1" stroke-linecap="butt" stroke-linejoin="round" d="M 402.146 426.136 C 401.180 423.739 392.801 420.817 392.801 420.817 "/>
<path fill="none" stroke="#ffffff" stroke-width="1" stroke-linecap="butt" stroke-linejoin="round" d="M 392.801 420.817 C 391.330 420.492 386.891 419.581 383.729 419.730 "/>
<path fill="#ffffff" fill-rule="evenodd" stroke="none" d="M 383.729 419.730 C 380.032 419.904 376.618 421.051 373.826 422.845 C 367.684 415.654 358.599 411.234 348.434 411.144 C 339.879 411.067 331.718 413.670 326.289 419.179 C 324.496 420.988 322.961 424.737 321.632 427.502 C 320.466 425.984 308.017 421.007 302.638 421.639 C 301.138 421.815 293.119 423.385 290.800 424.630 C 285.048 416.942 276.057 412.098 265.906 412.098 C 262.691 403.940 255.382 398.130 246.605 396.413 C 244.795 396.059 242.969 395.878 241.099 395.878 C 225.521 395.878 212.954 408.445 212.954 424.024 C 212.954 437.889 222.908 449.369 236.113 451.755 C 239.990 464.804 251.832 474.113 265.906 474.113 C 274.144 474.113 281.617 470.923 287.068 465.777 C 291.280 469.253 296.737 471.052 302.638 471.251 C 311.938 471.564 320.463 468.119 326.429 461.756 C 330.094 470.415 338.273 477.218 348.434 477.930 C 359.128 478.679 368.672 472.914 374.933 464.912 C 377.949 466.752 381.347 468.142 385.050 468.232 C 389.819 468.348 394.208 466.508 397.920 464.066 C 402.978 470.755 411.005 475.067 420.064 475.067 C 433.731 475.067 445.046 465.256 447.383 452.116 C 452.163 455.182 457.810 456.940 463.879 456.940 C 480.777 456.940 494.410 443.308 494.410 426.409 C 494.410 409.510 480.777 395.878 463.879 395.878 C 460.161 395.878 456.601 396.538 453.535 397.666 C 442.712 401.642 434.870 411.269 433.529 423.056 C 429.470 420.819 424.915 419.583 420.064 419.583 C 413.155 419.583 406.846 422.091 402.146 426.136 C 401.180 423.739 392.801 420.817 392.801 420.817 C 391.330 420.492 386.891 419.581 383.729 419.730 Z"/>
<path fill="none" stroke="#000000" stroke-width="4" stroke-linejoin="round" d="M 383.729 419.730 C 380.032 419.904 376.618 421.051 373.826 422.845 C 367.684 415.654 358.599 411.234 348.434 411.144 C 339.879 411.067 331.718 413.670 326.289 419.179 C 324.496 420.988 322.961 424.737 321.632 427.502 C 320.466 425.984 308.017 421.007 302.638 421.639 C 301.138 421.815 293.119 423.385 290.800 424.630 C 285.048 416.942 276.057 412.098 265.906 412.098 C 258.011 412.098 250.818 415.027 245.530 419.705 M 392.801 420.817 C 391.330 420.492 386.891 419.581 383.729 419.730 M 402.146 426.136 C 401.180 423.739 392.801 420.817 392.801 420.817 M 280.472 435.278 C 282.760 430.753 286.380 427.034 290.800 424.630 M 212.954 424.024 C 212.954 437.889 222.908 449.369 236.113 451.755 C 235.346 449.177 234.898 446.195 234.898 443.105 M 241.099 395.878 C 225.521 395.878 212.954 408.445 212.954 424.024 M 246.605 396.413 C 244.795 396.059 242.969 395.878 241.099 395.878 M 265.906 412.098 C 262.691 403.940 255.382 398.130 246.605 396.413 M 321.632 427.502 C 320.627 429.592 319.811 431.179 319.811 431.179 M 381.827 444.537 C 381.827 436.219 378.808 428.626 373.826 422.845 M 420.064 419.583 C 424.915 419.583 429.470 420.819 433.529 423.056 C 434.870 411.269 442.712 401.642 453.535 397.666 C 456.601 396.538 460.161 395.878 463.879 395.878 C 480.777 395.878 494.410 409.510 494.410 426.409 C 494.410 443.308 480.777 456.940 463.879 456.940 C 457.810 456.940 452.163 455.182 447.383 452.116 C 445.046 465.256 433.731 475.067 420.064 475.067 C 411.005 475.067 402.978 470.755 397.920 464.066 C 394.404 459.417 392.322 453.621 392.322 447.325 M 402.146 426.136 C 406.846 422.091 413.155 419.583 420.064 419.583 M 385.050 468.232 C 381.347 468.142 377.949 466.752 374.933 464.912 C 368.672 472.914 359.128 478.679 348.434 477.930 C 338.273 477.218 330.094 470.415 326.429 461.756 C 320.463 468.119 311.938 471.564 302.638 471.251 C 296.737 471.052 291.280 469.253 287.068 465.777 C 283.149 462.543 280.540 457.738 280.509 452.245 M 397.920 464.066 C 394.208 466.508 389.819 468.348 385.050 468.232 M 447.807 447.325 C 447.807 449.014 447.657 450.667 447.383 452.116 M 446.594 439.167 C 447.359 441.597 447.807 444.408 447.807 447.325 M 265.906 474.113 C 251.832 474.113 239.990 464.804 236.113 451.755 M 287.068 465.777 C 281.617 470.923 274.144 474.113 265.906 474.113 "/>
<path fill="none" stroke="#ffffff" stroke-width="1" stroke-linecap="butt" stroke-linejoin="round" d="M 348.434 411.144 C 339.879 411.067 331.718 413.670 326.289 419.179 "/>
<path fill="none" stroke="#ffffff" stroke-width="1" stroke-linecap="butt" stroke-linejoin="round" d="M 326.289 419.179 C 327.281 402.259 326.888 386.138 326.400 370.542 "/>
<path fill="none" stroke="#ffffff" stroke-width="1" stroke-linecap="butt" stroke-linejoin="round" d="M 382.965 370.389 C 382.281 384.461 382.253 396.638 383.729 419.730 "/>
<path fill="none" stroke="#ffffff" stroke-width="1" stroke-linecap="butt" stroke-linejoin="round" d="M 383.729 419.730 C 380.032 419.904 376.618 421.051 373.826 422.845 "/>
<path fill="none" stroke="#ffffff" stroke-width="1" stroke-linecap="butt" stroke-linejoin="round" d="M 373.826 422.845 C 367.684 415.654 358.599 411.234 348.434 411.144 "/>
<path fill="#ffffff" fill-rule="evenodd" stroke="#000000" stroke-width="4" stroke-linejoin="round" d="M 348.434 411.144 C 339.879 411.067 331.718 413.670 326.289 419.179 C 327.281 402.259 326.888 386.138 326.400 370.542 C 325.391 338.285 322.405 308.237 315.021 281.451 C 327.650 289.937 342.798 295.786 358.885 295.696 C 370.782 295.630 383.252 292.217 393.319 287.061 C 386.858 312.259 384.418 340.507 382.965 370.389 C 382.281 384.461 382.253 396.638 383.729 419.730 C 380.032 419.904 376.618 421.051 373.826 422.845 C 367.684 415.654 358.599 411.234 348.434 411.144 Z"/>
<path fill="none" stroke="#ffffff" stroke-width="1" stroke-linecap="butt" stroke-linejoin="round" d="M 315.021 281.451 C 327.650 289.937 342.798 295.786 358.885 295.696 "/>
<path fill="none" stroke="#ffffff" stroke-width="1" stroke-linecap="butt" stroke-linejoin="round" d="M 358.885 295.696 C 370.782 295.630 383.252 292.217 393.319 287.061 "/>
<path fill="#ffffff" fill-rule="evenodd" stroke="#000000" stroke-width="4" stroke-linejoin="round" d="M 79.474 177.158 C 75.238 206.062 85.068 272.037 184.274 253.605 C 198.952 275.556 224.243 290.203 252.981 289.972 C 271.991 289.819 289.239 282.610 301.875 270.724 C 305.844 274.524 310.218 278.102 315.021 281.451 C 327.650 289.937 342.798 295.786 358.885 295.696 C 370.782 295.630 383.252 292.217 393.319 287.061 C 398.018 284.763 402.134 282.102 405.532 279.240 C 418.290 290.181 434.562 296.548 452.385 296.651 C 487.784 296.855 518.177 275.972 533.416 246.073 C 609.393 267.452 644.458 207.160 638.693 172.775 C 633.305 140.640 609.017 116.082 577.115 113.875 C 567.934 82.923 539.315 61.419 505.337 60.437 C 486.208 59.884 468.471 65.717 454.993 76.995 C 433.819 48.278 399.744 31.467 361.747 31.814 C 325.588 32.144 293.272 47.877 273.162 73.566 C 260.643 63.000 244.616 57.611 227.220 57.574 C 190.952 57.498 160.782 83.615 158.564 119.816 C 125.086 115.837 86.028 132.442 79.474 177.158 Z"/>
<path fill="#ffffff" fill-rule="evenodd" stroke="#000000" stroke-width="4" stroke-linejoin="round" d="M 145.441 640.529 C 132.926 614.552 180.107 605.148 201.438 609.083 C 209.963 590.333 229.811 581.336 251.496 581.632 C 264.938 581.816 277.507 584.435 287.245 592.021 C 302.846 574.052 326.292 566.885 351.636 566.929 C 375.899 566.972 398.383 573.405 413.415 589.319 C 422.387 582.577 433.540 580.337 445.455 580.162 C 468.416 579.825 486.952 592.726 492.697 614.960 C 521.838 604.667 551.144 607.044 565.440 640.529 C 565.440 640.529 145.441 640.529 145.441 640.529 Z"/>
<path fill="none" stroke="#000000" stroke-width="4" stroke-linecap="round" stroke-linejoin="round" d="M 385.140 544.905 C 387.515 554.742 389.890 564.579 392.264 574.416 M 375.093 552.732 C 375.802 558.209 376.511 563.686 377.220 569.163 M 362.673 542.296 C 363.222 550.293 363.771 558.290 364.319 566.287 M 350.712 547.968 C 350.472 553.915 350.233 559.862 349.993 565.809 M 338.762 539.665 C 337.808 549.019 336.854 558.373 335.901 567.727 M 326.533 548.985 C 324.638 556.269 322.744 563.553 320.849 570.837 M 378.684 316.945 C 379.944 308.692 381.205 300.439 382.465 292.186 M 368.423 310.743 C 368.806 305.512 369.189 300.282 369.572 295.051 M 355.487 321.713 C 355.407 313.462 355.327 305.212 355.246 296.961 M 344.485 316.481 C 343.933 309.497 343.382 302.513 342.830 295.529 M 333.020 313.106 C 331.594 305.175 330.168 297.244 328.742 289.313 "/>
</g>
<g id="specs_2">
<path fill="#ff00ff" fill-rule="evenodd" stroke="none" d="M 205.871 266.392 C 205.902 266.392 514.098 266.392 514.129 266.392 C 514.129 266.373 514.129 76.038 514.129 76.019 C 514.098 76.019 205.902 76.019 205.871 76.019 C 205.871 76.038 205.871 266.373 205.871 266.392 Z"/>
<path fill="#ff0000" fill-rule="evenodd" stroke="none" d="M 360.000 678.811 C 360.001 678.814 372.416 713.577 372.417 713.581 C 372.416 713.579 360.001 702.028 360.000 702.027 C 359.999 702.028 347.584 713.579 347.583 713.581 C 347.584 713.577 359.999 678.814 360.000 678.811 Z"/>
<path fill="#0000ff" fill-rule="evenodd" stroke="none" d="M 360.000 14.531 C 360.001 14.533 367.212 34.726 367.213 34.729 C 367.212 34.728 360.001 28.018 360.000 28.017 C 359.999 28.018 352.788 34.728 352.787 34.729 C 352.788 34.726 359.999 14.533 360.000 14.531 Z"/>
<path fill="#00ff00" fill-rule="evenodd" stroke="none" d="M 194.431 426.991 C 194.433 426.990 214.926 419.553 214.928 419.553 C 214.928 419.553 208.143 426.921 208.142 426.921 C 208.143 426.922 215.002 434.219 215.002 434.220 C 215.000 434.219 194.433 426.991 194.431 426.991 Z"/>
<path fill="#ffff00" fill-rule="evenodd" stroke="none" d="M 160.160 644.568 C 160.161 644.567 167.551 628.476 167.552 628.474 C 167.552 628.475 167.941 636.601 167.941 636.601 C 167.942 636.601 176.074 636.798 176.075 636.798 C 176.073 636.799 160.162 644.568 160.160 644.568 Z"/>
<path fill="#ffff00" fill-rule="evenodd" stroke="none" d="M 559.840 644.371 C 559.839 644.370 552.127 628.430 552.127 628.429 C 552.126 628.429 551.901 636.561 551.901 636.562 C 551.900 636.562 543.773 636.922 543.772 636.922 C 543.774 636.923 559.838 644.370 559.840 644.371 Z"/>
<path fill="#00ff00" fill-rule="evenodd" stroke="none" d="M 516.404 426.991 C 516.402 426.990 495.909 419.553 495.907 419.553 C 495.908 419.553 502.692 426.921 502.693 426.921 C 502.692 426.922 495.834 434.219 495.833 434.220 C 495.835 434.219 516.402 426.991 516.404 426.991 Z"/>
<path fill="#00ffff" fill-rule="evenodd" stroke="none" d="M 601.061 110.685 C 601.060 110.687 593.902 130.899 593.901 130.901 C 593.901 130.900 592.546 121.143 592.546 121.142 C 592.545 121.143 582.716 121.791 582.715 121.792 C 582.717 121.790 601.059 110.686 601.061 110.685 Z"/>
<path fill="#00ffff" fill-rule="evenodd" stroke="none" d="M 119.051 111.355 C 119.051 111.357 127.541 131.047 127.542 131.049 C 127.542 131.048 128.244 121.222 128.244 121.221 C 128.245 121.221 138.095 121.214 138.096 121.214 C 138.094 121.213 119.052 111.356 119.051 111.355 Z"/>
<path fill="#be0027" fill-rule="evenodd" stroke="none" d="M 360.000 667.959 C 360.001 667.955 372.416 633.192 372.417 633.189 C 372.416 633.190 360.001 644.742 360.000 644.743 C 359.999 644.742 347.584 633.190 347.583 633.189 C 347.584 633.192 359.999 667.955 360.000 667.959 Z"/>
</g>
</g>
</svg>
