<?xml version="1.0" encoding="utf-8"?>
<!-- Generator: Moho 12.5 build 22414 -->
<!DOCTYPE svg PUBLIC "-//W3C//DTD SVG 1.1//EN" "http://www.w3.org/Graphics/SVG/1.1/DTD/svg11.dtd">
<svg version="1.1" id="Frame_0" xmlns="http://www.w3.org/2000/svg" xmlns:xlink="http://www.w3.org/1999/xlink" width="720px" height="720px">
<g id="mushroom_cloud">
<g id="Layer_159">
<path fill="#ffffff" fill-rule="evenodd" stroke="#000000" stroke-width="4" stroke-linecap="round" stroke-linejoin="round" d="M 360.052 366.609 C 352.672 361.983 338.525 359.930 329.478 362.205 C 329.478 315.618 329.477 257.333 329.478 257.322 C 329.484 257.323 390.620 257.322 390.626 257.322 C 390.626 257.333 390.695 325.222 390.626 362.269 C 380.898 360.812 368.774 362.623 360.052 366.609 Z"/>
<path fill="#ffffff" fill-rule="evenodd" stroke="#000000" stroke-width="4" stroke-linecap="round" stroke-linejoin="round" d="M 390.626 426.474 C 390.433 420.257 390.626 413.827 390.626 407.447 C 381.314 408.424 369.967 405.633 360.052 401.063 C 350.067 407.320 339.661 411.069 329.478 412.084 C 329.478 415.695 329.298 420.465 329.478 424.813 C 333.540 523.211 325.709 586.854 291.433 601.293 C 324.245 609.434 395.900 608.211 428.567 601.293 C 393.284 586.784 386.850 518.645 390.626 426.474 Z"/>
<path fill="none" stroke="#ffffff" stroke-width="1" stroke-linecap="butt" stroke-linejoin="round" d="M 329.478 424.813 C 329.298 420.465 329.478 415.695 329.478 412.084 "/>
<path fill="none" stroke="#ffffff" stroke-width="1" stroke-linecap="butt" stroke-linejoin="round" d="M 329.478 412.084 C 339.661 411.069 350.067 407.320 360.052 401.063 "/>
<path fill="none" stroke="#ffffff" stroke-width="1" stroke-linecap="butt" stroke-linejoin="round" d="M 360.052 401.063 C 369.967 405.633 381.314 408.424 390.626 407.447 "/>
<path fill="none" stroke="#ffffff" stroke-width="1" stroke-linecap="butt" stroke-linejoin="round" d="M 390.626 407.447 C 390.626 413.827 390.433 420.257 390.626 426.474 "/>
<path fill="none" stroke="#ffffff" stroke-width="1" stroke-linecap="butt" stroke-linejoin="round" d="M 390.626 362.269 C 380.898 360.812 368.774 362.623 360.052 366.609 "/>
<path fill="none" stroke="#ffffff" stroke-width="1" stroke-linecap="butt" stroke-linejoin="round" d="M 360.052 366.609 C 352.672 361.983 338.525 359.930 329.478 362.205 "/>
<path fill="#ffffff" fill-rule="evenodd" stroke="none" d="M 294.230 414.374 C 298.749 427.379 314.270 429.784 329.478 424.813 C 329.298 420.465 329.478 415.695 329.478 412.084 C 339.661 411.069 350.067 407.320 360.052 401.063 C 369.967 405.633 381.314 408.424 390.626 407.447 C 390.626 413.827 390.433 420.257 390.626 426.474 C 394.054 425.440 397.135 423.844 399.874 421.538 C 408.698 429.047 421.902 422.107 425.874 414.374 C 440.402 419.822 448.471 413.854 449.464 403.241 C 461.986 396.150 457.873 377.592 436.987 380.583 C 437.726 370.494 416.707 364.039 403.990 369.302 C 401.780 365.313 396.533 363.180 390.626 362.269 C 380.898 360.812 368.774 362.623 360.052 366.609 C 352.672 361.983 338.525 359.930 329.478 362.205 C 326.214 362.954 323.596 364.353 322.288 366.421 C 313.387 359.366 294.850 366.069 294.230 372.762 C 275.253 369.439 248.676 381.004 266.111 399.125 C 256.308 409.213 281.529 417.436 294.230 414.374 Z"/>
<path fill="none" stroke="#000000" stroke-width="4" stroke-linecap="round" stroke-linejoin="round" d="M 294.230 414.374 C 298.749 427.379 314.270 429.784 329.478 424.813 C 329.298 420.465 329.478 415.695 329.478 412.084 C 322.824 412.776 316.148 412.152 309.999 410.126 M 266.111 399.125 C 256.308 409.213 281.529 417.436 294.230 414.374 M 294.230 372.762 C 275.253 369.439 248.676 381.004 266.111 399.125 M 322.288 366.421 C 313.387 359.366 294.850 366.069 294.230 372.762 M 329.478 362.205 C 326.214 362.954 323.596 364.353 322.288 366.421 M 360.052 366.609 C 352.672 361.983 338.525 359.930 329.478 362.205 M 390.626 362.269 C 380.898 360.812 368.774 362.623 360.052 366.609 M 403.990 369.302 C 401.780 365.313 396.533 363.180 390.626 362.269 M 436.987 380.583 C 437.726 370.494 416.707 364.039 403.990 369.302 M 449.464 403.241 C 461.986 396.150 457.873 377.592 436.987 380.583 M 425.874 414.374 C 440.402 419.822 448.471 413.854 449.464 403.241 M 399.874 421.538 C 408.698 429.047 421.902 422.107 425.874 414.374 M 390.626 426.474 C 394.054 425.440 397.135 423.844 399.874 421.538 M 390.626 426.474 C 390.433 420.257 390.626 413.827 390.626 407.447 C 381.314 408.424 369.967 405.633 360.052 401.063 C 350.067 407.320 339.661 411.069 329.478 412.084 M 402.333 402.719 C 399.291 405.476 395.167 406.970 390.626 407.447 M 410.105 405.980 C 407.658 405.063 404.974 403.960 402.333 402.719 "/>
<path fill="#ffffff" fill-rule="evenodd" stroke="#000000" stroke-width="4" stroke-linecap="round" stroke-linejoin="round" d="M 195.085 155.656 C 128.054 150.167 94.421 141.198 94.421 132.618 C 94.421 122.930 137.294 112.747 223.095 107.723 C 261.303 105.263 306.575 103.927 360.000 103.927 C 416.987 103.927 464.697 105.447 502.685 107.923 C 585.121 113.328 625.579 123.207 625.579 132.618 C 625.579 141.059 593.022 149.878 528.129 155.358 C 527.172 161.838 524.891 168.013 521.249 173.253 C 645.998 164.195 706.468 145.835 706.468 132.618 C 706.468 118.133 633.845 97.472 483.831 89.673 C 448.417 87.866 406.599 86.756 360.000 86.756 C 315.731 86.756 275.777 87.758 240.577 89.474 C 87.982 96.954 13.532 117.952 13.532 132.618 C 13.532 145.654 72.356 163.693 189.958 172.599 C 190.873 166.729 192.639 160.947 195.085 155.656 Z"/>
<path fill="none" stroke="#ffffff" stroke-width="1" stroke-linecap="butt" stroke-linejoin="round" d="M 360.000 86.756 C 406.599 86.756 448.417 87.866 483.831 89.673 "/>
<path fill="none" stroke="#ffffff" stroke-width="1" stroke-linecap="butt" stroke-linejoin="round" d="M 240.577 89.474 C 275.777 87.758 315.731 86.756 360.000 86.756 "/>
<path fill="#ffffff" fill-rule="evenodd" stroke="#000000" stroke-width="4" stroke-linecap="round" stroke-linejoin="round" d="M 360.000 86.756 C 406.599 86.756 448.417 87.866 483.831 89.673 C 477.636 70.498 444.539 51.438 418.106 71.367 C 408.944 54.281 377.260 50.495 357.425 72.627 C 350.811 58.059 330.429 57.272 322.782 73.100 C 293.982 45.982 250.627 66.728 240.577 89.474 C 275.777 87.758 315.731 86.756 360.000 86.756 Z"/>
<path fill="none" stroke="#ffffff" stroke-width="1" stroke-linecap="butt" stroke-linejoin="round" d="M 502.685 107.923 C 464.697 105.447 416.987 103.927 360.000 103.927 "/>
<path fill="none" stroke="#ffffff" stroke-width="1" stroke-linecap="butt" stroke-linejoin="round" d="M 360.000 103.927 C 306.575 103.927 261.303 105.263 223.095 107.723 "/>
<path fill="none" stroke="#ffffff" stroke-width="1" stroke-linecap="butt" stroke-linejoin="round" d="M 195.085 155.656 C 192.639 160.947 190.873 166.729 189.958 172.599 "/>
<path fill="none" stroke="#ffffff" stroke-width="1" stroke-linecap="butt" stroke-linejoin="round" d="M 521.249 173.253 C 524.891 168.013 527.172 161.838 528.129 155.358 "/>
<path fill="#ffffff" fill-rule="evenodd" stroke="#000000" stroke-width="4" stroke-linecap="round" stroke-linejoin="round" d="M 500.537 115.593 C 501.845 112.946 502.535 110.281 502.685 107.923 C 464.697 105.447 416.987 103.927 360.000 103.927 C 306.575 103.927 261.303 105.263 223.095 107.723 C 215.974 114.442 211.939 124.798 214.514 132.422 C 206.252 137.700 199.548 146.000 195.085 155.656 C 192.639 160.947 190.873 166.729 189.958 172.599 C 187.043 191.284 193.184 210.829 212.928 219.853 C 204.912 232.486 217.054 253.406 232.934 249.753 C 231.581 279.696 264.112 304.339 297.547 280.990 C 309.755 295.777 337.001 288.621 335.164 271.987 C 348.084 280.223 372.101 284.191 381.650 266.536 C 386.745 278.491 399.541 290.241 416.348 279.916 C 435.205 300.412 461.247 282.506 467.391 261.030 C 485.910 271.277 491.711 253.982 493.189 245.465 C 534.084 246.598 533.383 195.127 517.820 177.379 C 519.148 176.016 520.353 174.544 521.249 173.253 C 524.891 168.013 527.172 161.838 528.129 155.358 C 530.909 136.528 521.589 116.177 500.537 115.593 Z"/>
</g>
<g id="specs_2">
<path fill="#ff00ff" fill-rule="evenodd" stroke="none" d="M 244.548 264.569 C 244.571 264.569 475.429 264.569 475.452 264.569 C 475.452 264.551 475.452 80.999 475.452 80.981 C 475.429 80.981 244.571 80.981 244.548 80.981 C 244.548 80.999 244.548 264.551 244.548 264.569 Z"/>
<path fill="#ff0000" fill-rule="evenodd" stroke="none" d="M 360.000 545.111 C 360.001 545.115 372.416 579.878 372.417 579.881 C 372.416 579.880 360.001 568.329 360.000 568.327 C 359.999 568.329 347.584 579.880 347.583 579.881 C 347.584 579.878 359.999 545.115 360.000 545.111 Z"/>
<path fill="#0000ff" fill-rule="evenodd" stroke="none" d="M 360.000 47.179 C 360.001 47.181 367.212 67.374 367.213 67.376 C 367.212 67.375 360.001 60.665 360.000 60.665 C 359.999 60.665 352.788 67.375 352.787 67.376 C 352.788 67.374 359.999 47.181 360.000 47.179 Z"/>
<path fill="#00ff00" fill-rule="evenodd" stroke="none" d="M 245.165 392.900 C 245.167 392.900 259.785 387.595 259.786 387.595 C 259.786 387.595 254.946 392.851 254.945 392.851 C 254.946 392.852 259.839 398.057 259.839 398.057 C 259.838 398.057 245.167 392.901 245.165 392.900 Z"/>
<path fill="#ffff00" fill-rule="evenodd" stroke="none" d="M 294.636 602.971 C 294.636 602.971 297.053 597.708 297.054 597.708 C 297.054 597.708 297.181 600.365 297.181 600.365 C 297.181 600.365 299.841 600.430 299.841 600.430 C 299.841 600.430 294.636 602.971 294.636 602.971 Z"/>
<path fill="#ffff00" fill-rule="evenodd" stroke="none" d="M 425.364 602.907 C 425.364 602.907 422.841 597.693 422.841 597.693 C 422.841 597.693 422.768 600.352 422.768 600.353 C 422.767 600.353 420.109 600.471 420.109 600.471 C 420.109 600.471 425.364 602.907 425.364 602.907 Z"/>
<path fill="#00ff00" fill-rule="evenodd" stroke="none" d="M 474.835 392.900 C 474.834 392.900 460.215 387.595 460.214 387.595 C 460.214 387.595 465.054 392.851 465.055 392.851 C 465.054 392.852 460.162 398.057 460.161 398.057 C 460.163 398.057 474.834 392.901 474.835 392.900 Z"/>
<path fill="#00ffff" fill-rule="evenodd" stroke="none" d="M 552.651 69.656 C 552.650 69.658 546.930 85.810 546.929 85.811 C 546.929 85.811 545.846 78.014 545.846 78.013 C 545.845 78.013 537.990 78.531 537.989 78.532 C 537.991 78.531 552.649 69.657 552.651 69.656 Z"/>
<path fill="#00ffff" fill-rule="evenodd" stroke="none" d="M 167.461 70.191 C 167.462 70.193 174.246 85.928 174.247 85.929 C 174.247 85.929 174.808 78.077 174.808 78.076 C 174.809 78.076 182.680 78.070 182.681 78.070 C 182.679 78.069 167.462 70.192 167.461 70.191 Z"/>
<path fill="#be0027" fill-rule="evenodd" stroke="none" d="M 360.000 625.264 C 360.001 625.261 369.697 598.111 369.698 598.108 C 369.697 598.109 360.001 607.131 360.000 607.132 C 359.999 607.131 350.303 598.109 350.302 598.108 C 350.303 598.111 359.999 625.261 360.000 625.264 Z"/>
</g>
</g>
</svg>
