<?xml version="1.0" encoding="utf-8"?>
<!-- Generator: Moho 13.5 build 20210422 -->
<!DOCTYPE svg PUBLIC "-//W3C//DTD SVG 1.1//EN" "http://www.w3.org/Graphics/SVG/1.1/DTD/svg11.dtd">
<svg version="1.1" id="Frame_0" xmlns="http://www.w3.org/2000/svg" xmlns:xlink="http://www.w3.org/1999/xlink" width="720px" height="720px">
<g id="oroboros">
<g id="oroborus">
<radialGradient id="CE4EFC54-0B04-493B-9F6D-76BD5ED9DE89_0" cx="49.94%" cy="53.25%" r="56.85%">
<stop offset="0.00%" style="stop-color:rgb(255,255,255);stop-opacity:1.00" />
<stop offset="80.00%" style="stop-color:rgb(255,255,255);stop-opacity:1.00" />
<stop offset="100.00%" style="stop-color:rgb(0,0,0);stop-opacity:1.00" />
</radialGradient>
<path fill="url(#CE4EFC54-0B04-493B-9F6D-76BD5ED9DE89_0)" fill-rule="evenodd" stroke="#000000" stroke-width="4" stroke-linejoin="round" d="M 336.602 54.839 C 336.602 41.888 347.049 31.441 360.000 31.441 C 372.951 31.441 383.398 41.888 383.398 54.839 C 383.398 67.789 372.951 78.236 360.000 78.236 C 347.049 78.236 336.602 67.789 336.602 54.839 M 403.062 100.617 C 403.045 100.617 342.313 83.241 236.908 104.218 C 234.453 104.707 259.584 26.052 359.127 16.564 C 454.931 7.433 484.351 87.510 484.363 87.517 C 484.372 87.525 657.049 154.367 652.980 369.731 C 649.917 531.864 522.163 662.711 360.000 662.711 C 197.837 662.711 64.594 531.875 67.020 369.731 C 68.248 287.641 103.546 213.298 159.820 162.430 C 246.737 83.861 376.120 102.018 376.132 102.017 C 376.121 102.021 265.339 116.641 187.883 197.614 C 145.136 242.303 119.076 302.803 119.622 369.731 C 120.706 502.774 226.952 610.109 360.000 610.109 C 493.048 610.109 600.307 502.779 600.378 369.731 C 600.475 189.947 439.455 142.104 439.446 142.098 C 439.440 142.100 395.777 158.253 369.871 159.656 C 299.158 163.488 265.773 150.052 266.409 149.698 C 329.509 114.662 403.048 100.622 403.062 100.617 Z"/>
</g>
<g id="specs_2">
<path fill="#ff00ff" fill-rule="evenodd" stroke="none" d="M 201.132 528.599 C 201.163 528.599 518.837 528.599 518.868 528.599 C 518.868 528.567 518.868 210.894 518.868 210.862 C 518.837 210.862 201.163 210.862 201.132 210.862 C 201.132 210.894 201.132 528.567 201.132 528.599 Z"/>
<path fill="#ff0000" fill-rule="evenodd" stroke="none" d="M 360.059 686.301 C 360.061 686.304 371.074 717.141 371.075 717.144 C 371.074 717.143 360.061 706.896 360.059 706.895 C 360.058 706.896 349.046 717.143 349.045 717.144 C 349.046 717.141 360.058 686.304 360.059 686.301 Z"/>
<path fill="#0000ff" fill-rule="evenodd" stroke="none" d="M 360.059 6.906 C 360.060 6.908 366.457 24.820 366.458 24.822 C 366.457 24.821 360.060 18.869 360.059 18.869 C 360.059 18.869 353.662 24.821 353.662 24.822 C 353.662 24.820 360.059 6.908 360.059 6.906 Z"/>
<path fill="#00ff00" fill-rule="evenodd" stroke="none" d="M 57.879 370.352 C 57.881 370.351 75.761 363.864 75.762 363.863 C 75.762 363.864 69.842 370.291 69.842 370.292 C 69.842 370.293 75.826 376.660 75.827 376.660 C 75.825 376.660 57.881 370.353 57.879 370.352 Z"/>
<path fill="#ffff00" fill-rule="evenodd" stroke="none" d="M 145.982 585.193 C 145.983 585.191 153.922 567.907 153.923 567.905 C 153.923 567.906 154.340 576.634 154.340 576.635 C 154.341 576.635 163.076 576.847 163.077 576.847 C 163.076 576.848 145.984 585.192 145.982 585.193 Z"/>
<path fill="#ffff00" fill-rule="evenodd" stroke="none" d="M 575.311 584.981 C 575.311 584.979 567.027 567.858 567.026 567.856 C 567.026 567.857 566.783 576.591 566.783 576.592 C 566.782 576.592 558.053 576.979 558.052 576.980 C 558.054 576.980 575.310 584.980 575.311 584.981 Z"/>
<path fill="#00ff00" fill-rule="evenodd" stroke="none" d="M 663.167 370.352 C 663.165 370.351 645.286 363.864 645.284 363.863 C 645.284 363.864 651.204 370.291 651.204 370.292 C 651.204 370.293 645.220 376.660 645.219 376.660 C 645.221 376.660 663.165 370.353 663.167 370.352 Z"/>
<path fill="#00ffff" fill-rule="evenodd" stroke="none" d="M 573.894 154.810 C 573.894 154.811 567.544 172.741 567.543 172.742 C 567.543 172.742 566.341 164.087 566.341 164.086 C 566.340 164.086 557.621 164.661 557.620 164.661 C 557.622 164.660 573.893 154.811 573.894 154.810 Z"/>
<path fill="#00ffff" fill-rule="evenodd" stroke="none" d="M 146.324 155.404 C 146.324 155.405 153.856 172.871 153.856 172.873 C 153.856 172.872 154.479 164.157 154.479 164.156 C 154.480 164.156 163.218 164.149 163.219 164.149 C 163.217 164.148 146.325 155.405 146.324 155.404 Z"/>
<path fill="#be0027" fill-rule="evenodd" stroke="none" d="M 360.059 679.519 C 360.061 679.516 371.074 648.680 371.075 648.677 C 371.074 648.678 360.061 658.925 360.059 658.926 C 360.058 658.925 349.046 648.678 349.045 648.677 C 349.046 648.680 360.058 679.516 360.059 679.519 Z"/>
</g>
</g>
</svg>
