<?xml version="1.0" encoding="utf-8"?>
<!-- Generator: Moho 13.5.1 build 20210623 -->
<!DOCTYPE svg PUBLIC "-//W3C//DTD SVG 1.1//EN" "http://www.w3.org/Graphics/SVG/1.1/DTD/svg11.dtd">
<svg version="1.1" id="Frame_0" xmlns="http://www.w3.org/2000/svg" xmlns:xlink="http://www.w3.org/1999/xlink" width="720px" height="720px">
<g id="pear">
<g id="pear">
<radialGradient id="AD382CC9-E48B-4987-8376-DE8CFBEE6BC8_0" cx="50.00%" cy="50.15%" r="74.19%">
<stop offset="50.00%" style="stop-color:rgb(255,255,255);stop-opacity:1.00" />
<stop offset="100.00%" style="stop-color:rgb(0,0,0);stop-opacity:1.00" />
</radialGradient>
<path id="S1" fill="url(#AD382CC9-E48B-4987-8376-DE8CFBEE6BC8_0)" fill-rule="evenodd" stroke="#000000" stroke-width="4" stroke-linejoin="round" d="M 351.247 194.917 C 469.384 152.272 437.708 290.124 529.800 411.042 C 612.231 519.275 492.066 694.041 360.000 651.306 C 227.934 694.041 107.824 519.317 190.200 411.042 C 281.770 290.681 231.255 153.015 351.247 194.917 Z"/>
<linearGradient id="AD382CC9-E48B-4987-8376-DE8CFBEE6BC8_1" x1="12.95%" y1="72.84%" x2="108.10%" y2="-28.65%">
<stop offset="14.51%" style="stop-color:rgb(255,255,255);stop-opacity:1.00" />
<stop offset="100.00%" style="stop-color:rgb(0,0,0);stop-opacity:1.00" />
</linearGradient>
<path id="S2" fill="url(#AD382CC9-E48B-4987-8376-DE8CFBEE6BC8_1)" fill-rule="evenodd" stroke="#000000" stroke-width="4" stroke-linejoin="round" d="M 346.491 200.040 C 346.234 148.585 358.749 95.256 426.633 52.511 C 433.675 54.991 435.820 59.713 441.098 67.646 C 370.676 109.056 362.515 148.469 355.152 203.752 C 354.784 206.513 346.027 202.048 346.491 200.040 Z"/>
<linearGradient id="AD382CC9-E48B-4987-8376-DE8CFBEE6BC8_2" x1="73.44%" y1="25.98%" x2="42.90%" y2="110.47%">
<stop offset="14.51%" style="stop-color:rgb(255,255,255);stop-opacity:1.00" />
<stop offset="100.00%" style="stop-color:rgb(0,0,0);stop-opacity:1.00" />
</linearGradient>
<path id="S3" fill="url(#AD382CC9-E48B-4987-8376-DE8CFBEE6BC8_2)" fill-rule="evenodd" stroke="#000000" stroke-width="4" stroke-linejoin="round" d="M 240.913 76.944 C 282.502 151.798 312.030 112.830 351.735 147.207 C 354.651 64.820 283.929 71.171 240.913 76.944 Z"/>
</g>
<g id="specs_2">
<path fill="#ff00ff" fill-rule="evenodd" stroke="none" d="M 250.436 629.540 C 250.458 629.540 462.566 629.540 462.587 629.540 C 462.587 629.505 462.587 277.239 462.587 277.204 C 462.566 277.204 250.458 277.204 250.436 277.204 C 250.436 277.239 250.436 629.505 250.436 629.540 Z"/>
<path fill="#ff0000" fill-rule="evenodd" stroke="none" d="M 360.000 65.279 C 360.001 65.276 372.432 30.470 372.433 30.467 C 372.432 30.468 360.001 42.034 360.000 42.035 C 359.999 42.034 347.568 30.468 347.567 30.467 C 347.568 30.470 359.999 65.276 360.000 65.279 Z"/>
<path fill="#0000ff" fill-rule="evenodd" stroke="none" d="M 360.000 63.053 C 360.001 63.055 367.221 83.273 367.222 83.275 C 367.221 83.275 360.001 76.557 360.000 76.556 C 359.999 76.557 352.779 83.275 352.778 83.275 C 352.779 83.273 359.999 63.055 360.000 63.053 Z"/>
<path fill="#00ff00" fill-rule="evenodd" stroke="none" d="M 213.233 341.738 C 213.235 341.737 231.012 335.286 231.014 335.286 C 231.013 335.286 225.128 341.677 225.127 341.678 C 225.128 341.679 231.077 348.009 231.078 348.010 C 231.076 348.009 213.235 341.739 213.233 341.738 Z"/>
<path fill="#ffff00" fill-rule="evenodd" stroke="none" d="M 197.638 618.818 C 197.639 618.816 206.437 599.660 206.438 599.658 C 206.438 599.659 206.901 609.333 206.901 609.334 C 206.902 609.334 216.583 609.568 216.584 609.568 C 216.583 609.569 197.640 618.818 197.638 618.818 Z"/>
<path fill="#ffff00" fill-rule="evenodd" stroke="none" d="M 522.362 618.584 C 522.361 618.582 513.180 599.606 513.179 599.604 C 513.179 599.605 512.911 609.285 512.911 609.286 C 512.910 609.286 503.234 609.715 503.233 609.715 C 503.235 609.716 522.360 618.583 522.362 618.584 Z"/>
<path fill="#00ff00" fill-rule="evenodd" stroke="none" d="M 506.767 341.738 C 506.765 341.737 488.988 335.286 488.986 335.286 C 488.987 335.286 494.872 341.677 494.873 341.678 C 494.872 341.679 488.923 348.009 488.922 348.010 C 488.924 348.009 506.765 341.739 506.767 341.738 Z"/>
<path fill="#be0027" fill-rule="evenodd" stroke="none" d="M 360.000 676.500 C 360.001 676.496 372.432 641.691 372.433 641.687 C 372.432 641.688 360.001 653.254 360.000 653.255 C 359.999 653.254 347.568 641.688 347.567 641.687 C 347.568 641.691 359.999 676.496 360.000 676.500 Z"/>
</g>
</g>
</svg>
