<?xml version="1.0" encoding="utf-8"?>
<!-- Generator: Moho 13.5 build 20210422 -->
<!DOCTYPE svg PUBLIC "-//W3C//DTD SVG 1.1//EN" "http://www.w3.org/Graphics/SVG/1.1/DTD/svg11.dtd">
<svg version="1.1" id="Frame_0" xmlns="http://www.w3.org/2000/svg" xmlns:xlink="http://www.w3.org/1999/xlink" width="720px" height="720px">
<g id="pear">
<g id="pear">
<path id="S1" fill="#ffffff" fill-rule="evenodd" stroke="#000000" stroke-width="4" stroke-linejoin="round" d="M 351.258 167.250 C 469.248 124.658 437.612 262.339 529.588 383.106 C 611.917 491.205 491.902 665.753 360.000 623.071 C 228.098 665.753 108.138 491.247 190.412 383.106 C 281.868 262.895 231.415 125.401 351.258 167.250 Z"/>
<path id="S2" fill="#ffffff" fill-rule="evenodd" stroke="#000000" stroke-width="4" stroke-linejoin="round" d="M 346.508 172.367 C 346.251 120.976 358.750 67.713 426.550 25.022 C 433.583 27.498 435.726 32.215 440.997 40.137 C 370.663 81.496 362.512 120.861 355.158 176.074 C 354.790 178.832 346.044 174.373 346.508 172.367 Z"/>
<path id="S3" fill="#ffffff" fill-rule="evenodd" stroke="#000000" stroke-width="4" stroke-linejoin="round" d="M 241.061 49.424 C 282.598 124.185 312.090 85.265 351.745 119.600 C 354.657 37.315 284.023 43.658 241.061 49.424 Z"/>
</g>
<g id="specs_2">
<path fill="#ff00ff" fill-rule="evenodd" stroke="none" d="M 226.963 589.719 C 226.989 589.719 493.011 589.719 493.037 589.719 C 493.037 589.692 493.037 323.671 493.037 323.644 C 493.011 323.644 226.989 323.644 226.963 323.644 C 226.963 323.671 226.963 589.692 226.963 589.719 Z"/>
<path fill="#ff0000" fill-rule="evenodd" stroke="none" d="M 360.000 667.289 C 360.001 667.293 372.416 702.055 372.417 702.059 C 372.416 702.058 360.001 690.506 360.000 690.505 C 359.999 690.506 347.584 702.058 347.583 702.059 C 347.584 702.055 359.999 667.293 360.000 667.289 Z"/>
<path fill="#0000ff" fill-rule="evenodd" stroke="none" d="M 360.000 35.550 C 360.001 35.552 367.212 55.745 367.213 55.747 C 367.212 55.747 360.001 49.037 360.000 49.036 C 359.999 49.037 352.788 55.747 352.787 55.747 C 352.788 55.745 359.999 35.552 360.000 35.550 Z"/>
<path fill="#00ff00" fill-rule="evenodd" stroke="none" d="M 213.416 313.889 C 213.417 313.888 231.173 307.445 231.174 307.444 C 231.174 307.445 225.295 313.828 225.295 313.829 C 225.295 313.829 231.238 320.152 231.238 320.152 C 231.237 320.152 213.417 313.889 213.416 313.889 Z"/>
<path fill="#ffff00" fill-rule="evenodd" stroke="none" d="M 197.840 590.624 C 197.841 590.622 206.628 571.490 206.629 571.488 C 206.629 571.489 207.092 581.150 207.092 581.151 C 207.093 581.151 216.762 581.386 216.763 581.386 C 216.761 581.387 197.842 590.623 197.840 590.624 Z"/>
<path fill="#ffff00" fill-rule="evenodd" stroke="none" d="M 522.160 590.390 C 522.159 590.388 512.990 571.435 512.989 571.433 C 512.989 571.434 512.720 581.103 512.720 581.104 C 512.719 581.104 503.056 581.532 503.055 581.533 C 503.057 581.533 522.158 590.389 522.160 590.390 Z"/>
<path fill="#00ff00" fill-rule="evenodd" stroke="none" d="M 506.584 313.889 C 506.583 313.888 488.827 307.445 488.826 307.444 C 488.826 307.445 494.705 313.828 494.705 313.829 C 494.705 313.829 488.762 320.152 488.762 320.152 C 488.763 320.152 506.583 313.889 506.584 313.889 Z"/>
<path fill="#be0027" fill-rule="evenodd" stroke="none" d="M 360.000 648.234 C 360.001 648.230 372.416 613.468 372.417 613.464 C 372.416 613.466 360.001 625.017 360.000 625.018 C 359.999 625.017 347.584 613.466 347.583 613.464 C 347.584 613.468 359.999 648.230 360.000 648.234 Z"/>
</g>
</g>
</svg>
