<?xml version="1.0" encoding="utf-8"?>
<!-- Generator: Moho 13.5.1 build 20210623 -->
<!DOCTYPE svg PUBLIC "-//W3C//DTD SVG 1.1//EN" "http://www.w3.org/Graphics/SVG/1.1/DTD/svg11.dtd">
<svg version="1.1" id="Frame_0" xmlns="http://www.w3.org/2000/svg" xmlns:xlink="http://www.w3.org/1999/xlink" width="720px" height="720px">
<g id="pentacle">
<g id="pentacle">
<radialGradient id="E86B9AB0-DD66-48C0-B30E-F0F61BEE8D2B_0" cx="50.00%" cy="50.00%" r="70.10%">
<stop offset="63.92%" style="stop-color:rgb(255,255,255);stop-opacity:1.00" />
<stop offset="100.00%" style="stop-color:rgb(0,0,0);stop-opacity:1.00" />
</radialGradient>
<path fill="url(#E86B9AB0-DD66-48C0-B30E-F0F61BEE8D2B_0)" fill-rule="evenodd" stroke="#000000" stroke-width="4" stroke-linecap="round" stroke-linejoin="round" d="M 360.000 25.470 C 525.818 25.470 659.585 159.237 659.585 325.055 C 659.585 490.874 525.818 624.641 360.000 624.641 C 194.182 624.641 60.415 490.874 60.415 325.055 C 60.415 159.237 194.182 25.470 360.000 25.470 Z"/>
<radialGradient id="E86B9AB0-DD66-48C0-B30E-F0F61BEE8D2B_1" cx="50.00%" cy="50.00%" r="88.71%">
<stop offset="39.61%" style="stop-color:rgb(255,255,255);stop-opacity:1.00" />
<stop offset="100.00%" style="stop-color:rgb(0,0,0);stop-opacity:1.00" />
</radialGradient>
<path fill="url(#E86B9AB0-DD66-48C0-B30E-F0F61BEE8D2B_1)" fill-rule="evenodd" stroke="#000000" stroke-width="4" stroke-linecap="round" stroke-linejoin="round" d="M 360.000 62.291 C 505.438 62.291 622.764 179.617 622.764 325.055 C 622.764 470.494 505.438 587.820 360.000 587.820 C 214.562 587.820 97.236 470.494 97.236 325.055 C 97.236 179.617 214.562 62.291 360.000 62.291 Z"/>
</g>
<g id="star_2">
<path fill="none" stroke="#000000" stroke-width="4" stroke-linecap="round" stroke-linejoin="round" d="M 338.540 402.401 C 338.535 402.398 293.453 369.657 293.448 369.654 C 293.446 369.652 279.300 359.379 272.226 354.241 C 272.220 354.258 218.004 521.232 217.999 521.248 C 218.013 521.238 360.019 418.021 360.033 418.010 C 360.036 418.009 381.477 402.424 381.479 402.422 C 381.484 402.419 426.585 369.637 426.590 369.634 C 426.589 369.632 421.121 352.783 418.386 344.358 C 418.380 344.362 360.028 386.775 360.022 386.779 C 360.020 386.781 338.542 402.399 338.540 402.401 C 338.532 402.406 265.595 455.413 265.588 455.419 C 265.591 455.410 284.162 398.242 293.448 369.654 M 426.590 369.634 C 426.593 369.643 454.481 455.372 454.484 455.381 C 454.477 455.375 381.487 402.428 381.479 402.422 M 388.031 251.009 C 378.680 222.246 359.981 164.728 359.978 164.720 C 359.975 164.728 331.911 251.012 331.908 251.020 C 331.907 251.023 326.586 267.511 323.924 275.757 C 323.931 275.757 396.069 275.742 396.076 275.742 C 404.826 275.765 422.324 275.811 422.326 275.812 C 428.084 293.518 439.596 328.925 439.598 328.931 C 439.599 328.933 445.077 345.781 447.816 354.206 C 447.830 354.196 589.836 250.979 589.851 250.968 C 589.833 250.968 414.278 251.003 414.260 251.003 C 405.517 251.005 388.034 251.009 388.031 251.009 C 388.026 251.009 350.616 251.016 331.908 251.020 M 439.598 328.931 C 464.005 311.193 512.812 275.724 512.820 275.719 C 512.811 275.719 422.335 275.811 422.326 275.812 M 280.433 328.963 C 286.183 311.255 297.682 275.843 297.683 275.837 C 297.684 275.835 303.054 259.296 305.740 251.026 C 305.722 251.026 130.167 251.061 130.149 251.061 C 130.164 251.071 272.212 354.231 272.226 354.241 M 502.110 521.191 C 502.104 521.175 447.822 354.223 447.816 354.206 M 360.033 418.010 C 360.048 418.021 502.096 521.181 502.110 521.191 M 359.967 84.018 C 359.961 84.035 305.745 251.009 305.740 251.026 M 414.260 251.003 C 414.255 250.987 359.972 84.035 359.967 84.018 M 360.022 386.779 C 360.016 386.775 301.648 344.385 301.642 344.381 C 301.644 344.374 323.922 275.764 323.924 275.757 M 396.076 275.742 C 396.078 275.749 418.384 344.351 418.386 344.358 M 297.683 275.837 C 267.516 275.818 207.189 275.780 207.180 275.780 C 207.188 275.785 280.426 328.958 280.433 328.963 C 280.436 328.965 294.572 339.242 301.642 344.381 "/>
<path fill="#ffffff" fill-rule="evenodd" stroke="#000000" stroke-width="4" stroke-linecap="round" stroke-linejoin="round" d="M 589.851 250.968 C 589.833 250.968 414.278 251.003 414.260 251.003 C 414.255 250.987 359.972 84.035 359.967 84.018 C 359.961 84.035 305.745 251.009 305.740 251.026 C 305.722 251.026 130.167 251.061 130.149 251.061 C 130.164 251.071 272.212 354.231 272.226 354.241 C 272.220 354.258 218.004 521.232 217.999 521.248 C 218.013 521.238 360.019 418.021 360.033 418.010 C 360.048 418.021 502.096 521.181 502.110 521.191 C 502.104 521.175 447.822 354.223 447.816 354.206 C 447.830 354.196 589.836 250.979 589.851 250.968 Z"/>
<path fill="none" stroke="#000000" stroke-width="4" stroke-linecap="round" stroke-linejoin="round" d="M 338.540 402.401 C 338.535 402.398 293.453 369.657 293.448 369.654 C 293.446 369.652 279.300 359.379 272.226 354.241 C 272.220 354.258 218.004 521.232 217.999 521.248 C 218.013 521.238 360.019 418.021 360.033 418.010 C 360.036 418.009 381.477 402.424 381.479 402.422 C 381.484 402.419 426.585 369.637 426.590 369.634 C 426.589 369.632 421.121 352.783 418.386 344.358 C 418.380 344.362 360.028 386.775 360.022 386.779 C 360.020 386.781 338.542 402.399 338.540 402.401 C 338.532 402.406 265.595 455.413 265.588 455.419 C 265.591 455.410 284.162 398.242 293.448 369.654 M 426.590 369.634 C 426.593 369.643 454.481 455.372 454.484 455.381 C 454.477 455.375 381.487 402.428 381.479 402.422 M 388.031 251.009 C 378.680 222.246 359.981 164.728 359.978 164.720 C 359.975 164.728 331.911 251.012 331.908 251.020 C 331.907 251.023 326.586 267.511 323.924 275.757 C 323.931 275.757 396.069 275.742 396.076 275.742 C 404.826 275.765 422.324 275.811 422.326 275.812 C 428.084 293.518 439.596 328.925 439.598 328.931 C 439.599 328.933 445.077 345.781 447.816 354.206 C 447.830 354.196 589.836 250.979 589.851 250.968 C 589.833 250.968 414.278 251.003 414.260 251.003 C 405.517 251.005 388.034 251.009 388.031 251.009 C 388.026 251.009 350.616 251.016 331.908 251.020 M 439.598 328.931 C 464.005 311.193 512.812 275.724 512.820 275.719 C 512.811 275.719 422.335 275.811 422.326 275.812 M 280.433 328.963 C 286.183 311.255 297.682 275.843 297.683 275.837 C 297.684 275.835 303.054 259.296 305.740 251.026 C 305.722 251.026 130.167 251.061 130.149 251.061 C 130.164 251.071 272.212 354.231 272.226 354.241 M 502.110 521.191 C 502.104 521.175 447.822 354.223 447.816 354.206 M 360.033 418.010 C 360.048 418.021 502.096 521.181 502.110 521.191 M 359.967 84.018 C 359.961 84.035 305.745 251.009 305.740 251.026 M 414.260 251.003 C 414.255 250.987 359.972 84.035 359.967 84.018 M 360.022 386.779 C 360.016 386.775 301.648 344.385 301.642 344.381 C 301.644 344.374 323.922 275.764 323.924 275.757 M 396.076 275.742 C 396.078 275.749 418.384 344.351 418.386 344.358 M 297.683 275.837 C 267.516 275.818 207.189 275.780 207.180 275.780 C 207.188 275.785 280.426 328.958 280.433 328.963 C 280.436 328.965 294.572 339.242 301.642 344.381 "/>
</g>
<g id="specs_2">
<path fill="#ff00ff" fill-rule="evenodd" stroke="none" d="M 165.301 519.317 C 165.340 519.317 554.723 519.317 554.762 519.317 C 554.762 519.278 554.762 129.894 554.762 129.856 C 554.723 129.856 165.340 129.856 165.301 129.856 C 165.301 129.894 165.301 519.278 165.301 519.317 Z"/>
<path fill="#ff0000" fill-rule="evenodd" stroke="none" d="M 360.055 679.411 C 360.056 679.414 371.183 710.569 371.184 710.572 C 371.183 710.571 360.056 700.218 360.055 700.217 C 360.054 700.218 348.927 710.571 348.926 710.572 C 348.927 710.569 360.054 679.414 360.055 679.411 Z"/>
<path fill="#0000ff" fill-rule="evenodd" stroke="none" d="M 360.032 3.088 C 360.032 3.090 366.816 22.084 366.816 22.085 C 366.816 22.085 360.032 15.774 360.032 15.773 C 360.031 15.774 353.248 22.085 353.247 22.085 C 353.248 22.084 360.031 3.090 360.032 3.088 Z"/>
<path fill="#00ff00" fill-rule="evenodd" stroke="none" d="M 39.613 325.530 C 39.615 325.529 58.573 318.650 58.575 318.649 C 58.575 318.650 52.298 325.465 52.297 325.466 C 52.298 325.466 58.643 332.218 58.644 332.218 C 58.642 332.218 39.615 325.531 39.613 325.530 Z"/>
<path fill="#ffff00" fill-rule="evenodd" stroke="none" d="M 133.034 553.337 C 133.034 553.336 141.452 535.008 141.453 535.006 C 141.453 535.007 141.896 544.262 141.896 544.263 C 141.897 544.263 151.160 544.487 151.161 544.487 C 151.159 544.488 133.035 553.336 133.034 553.337 Z"/>
<path fill="#ffff00" fill-rule="evenodd" stroke="none" d="M 588.275 553.113 C 588.274 553.111 579.491 534.956 579.490 534.954 C 579.490 534.955 579.232 544.217 579.232 544.218 C 579.231 544.218 569.975 544.628 569.974 544.628 C 569.976 544.629 588.273 553.112 588.275 553.113 Z"/>
<path fill="#00ff00" fill-rule="evenodd" stroke="none" d="M 681.433 325.530 C 681.431 325.529 662.473 318.650 662.471 318.649 C 662.471 318.650 668.748 325.465 668.749 325.466 C 668.748 325.466 662.403 332.218 662.402 332.218 C 662.404 332.218 681.431 325.531 681.433 325.530 Z"/>
<path fill="#00ffff" fill-rule="evenodd" stroke="none" d="M 586.773 96.978 C 586.772 96.980 580.039 115.991 580.038 115.993 C 580.038 115.992 578.763 106.815 578.763 106.814 C 578.762 106.814 569.517 107.425 569.516 107.425 C 569.518 107.424 586.771 96.979 586.773 96.978 Z"/>
<path fill="#00ffff" fill-rule="evenodd" stroke="none" d="M 133.396 97.608 C 133.397 97.610 141.382 116.130 141.383 116.132 C 141.383 116.131 142.043 106.889 142.043 106.888 C 142.044 106.888 151.309 106.881 151.310 106.881 C 151.308 106.880 133.398 97.609 133.396 97.608 Z"/>
<path fill="#be0027" fill-rule="evenodd" stroke="none" d="M 360.032 655.505 C 360.033 655.502 371.710 622.805 371.711 622.802 C 371.710 622.803 360.033 633.668 360.032 633.669 C 360.031 633.668 348.353 622.803 348.352 622.802 C 348.353 622.805 360.031 655.502 360.032 655.505 Z"/>
</g>
</g>
</svg>
