<?xml version="1.0" encoding="utf-8"?>
<!-- Generator: Moho 13.5.1 build 20210623 -->
<!DOCTYPE svg PUBLIC "-//W3C//DTD SVG 1.1//EN" "http://www.w3.org/Graphics/SVG/1.1/DTD/svg11.dtd">
<svg version="1.1" id="Frame_0" xmlns="http://www.w3.org/2000/svg" xmlns:xlink="http://www.w3.org/1999/xlink" width="720px" height="720px">
<g id="pillar">
<g id="pillar">
<path fill="#ffffff" fill-rule="evenodd" stroke="#000000" stroke-width="3" stroke-linejoin="round" d="M 447.528 629.399 C 436.589 629.591 283.407 629.039 272.472 629.399 C 257.855 629.881 259.969 661.625 259.968 661.628 C 259.988 661.628 460.012 661.628 460.032 661.628 C 460.031 661.625 462.145 629.143 447.528 629.399 C 447.527 629.396 448.486 602.261 435.024 602.012 C 426.027 601.846 293.000 601.864 284.976 602.012 C 271.514 602.261 272.473 629.396 272.472 629.399 C 272.490 629.399 447.510 629.399 447.528 629.399 M 291.531 602.012 C 291.531 601.978 291.531 259.704 291.531 259.669 C 291.545 259.669 428.455 259.669 428.469 259.669 C 428.469 259.704 428.469 601.978 428.469 602.012 C 428.455 602.012 291.545 602.012 291.531 602.012 Z"/>
<path fill="none" stroke="#000000" stroke-width="3" stroke-linejoin="round" d="M 411.105 259.669 C 411.105 373.783 411.105 487.898 411.105 602.012 M 308.895 259.669 C 308.895 373.783 308.895 487.898 308.895 602.012 M 333.402 259.393 C 333.139 373.599 332.876 487.806 332.613 602.012 M 387.387 259.669 C 387.387 373.783 387.387 487.898 387.387 602.012 M 360.000 259.669 C 360.000 373.783 360.000 487.898 360.000 602.012 "/>
<path fill="#ffffff" fill-rule="evenodd" stroke="#000000" stroke-width="3" stroke-linejoin="round" d="M 291.531 218.589 C 291.538 218.589 359.993 218.589 360.000 218.589 C 360.007 218.589 428.462 218.589 428.469 218.589 C 428.469 218.592 428.469 252.505 428.469 252.509 C 428.469 252.512 428.469 280.260 428.469 280.262 C 428.462 280.262 360.007 280.262 360.000 280.262 C 359.993 280.262 291.538 280.262 291.531 280.262 C 291.531 280.260 291.531 252.512 291.531 252.509 C 291.531 252.505 291.531 218.592 291.531 218.589 Z"/>
<path fill="none" stroke="#000000" stroke-width="3" stroke-linejoin="round" d="M 291.531 252.509 C 337.177 252.509 382.823 252.509 428.469 252.509 "/>
<path fill="#ffffff" fill-rule="evenodd" stroke="none" d="M 323.687 225.211 C 348.480 225.240 373.273 225.270 398.066 225.299 C 392.837 229.421 383.400 244.189 387.811 259.677 C 394.994 284.902 418.474 293.159 427.679 293.149 C 441.228 293.133 472.083 285.610 474.502 247.221 C 476.268 219.206 449.307 196.775 428.469 197.367 C 420.481 197.594 299.519 197.594 291.531 197.367 C 270.693 196.775 243.017 216.509 245.498 247.221 C 248.594 285.561 278.772 293.133 292.321 293.149 C 301.526 293.159 324.387 284.717 332.189 259.677 C 336.930 244.463 327.767 228.848 323.687 225.211 Z"/>
<path fill="none" stroke="#000000" stroke-width="3" stroke-linejoin="round" d="M 323.687 225.211 C 319.744 221.696 304.851 214.548 289.682 220.704 C 262.132 231.885 263.850 266.403 288.820 265.206 C 311.508 264.119 301.795 237.122 292.492 243.307 M 323.687 225.211 C 348.480 225.240 373.273 225.270 398.066 225.299 C 392.837 229.421 383.400 244.189 387.811 259.677 C 394.994 284.902 418.474 293.159 427.679 293.149 C 441.228 293.133 472.083 285.610 474.502 247.221 C 476.268 219.206 449.307 196.775 428.469 197.367 C 420.481 197.594 299.519 197.594 291.531 197.367 C 270.693 196.775 243.017 216.509 245.498 247.221 C 248.594 285.561 278.772 293.133 292.321 293.149 C 301.526 293.159 324.387 284.717 332.189 259.677 C 336.930 244.463 327.767 228.848 323.687 225.211 M 438.335 223.787 C 419.644 211.840 403.939 220.670 398.066 225.299 M 431.180 265.206 C 454.787 265.255 460.634 238.041 438.335 223.787 M 427.508 241.458 C 412.076 238.871 407.745 265.157 431.180 265.206 "/>
</g>
<g id="specs_2">
<path fill="#ff00ff" fill-rule="evenodd" stroke="none" d="M 269.882 197.605 C 269.900 197.605 450.100 197.605 450.118 197.605 C 450.118 197.587 450.118 17.387 450.118 17.369 C 450.100 17.369 269.900 17.369 269.882 17.369 C 269.882 17.387 269.882 197.587 269.882 197.605 Z"/>
<path fill="#ff0000" fill-rule="evenodd" stroke="none" d="M 360.000 653.314 C 360.001 653.316 368.501 677.117 368.502 677.120 C 368.501 677.119 360.001 669.210 360.000 669.209 C 359.999 669.210 351.499 677.119 351.498 677.120 C 351.499 677.117 359.999 653.316 360.000 653.314 Z"/>
<path fill="#00ff00" fill-rule="evenodd" stroke="none" d="M 281.686 437.758 C 281.687 437.757 295.488 432.749 295.490 432.749 C 295.489 432.749 290.920 437.711 290.919 437.711 C 290.920 437.712 295.539 442.626 295.539 442.626 C 295.538 442.626 281.687 437.758 281.686 437.758 Z"/>
<path fill="#ffff00" fill-rule="evenodd" stroke="none" d="M 256.866 665.259 C 256.867 665.257 264.865 647.843 264.866 647.841 C 264.866 647.842 265.287 656.636 265.287 656.636 C 265.288 656.636 274.088 656.850 274.089 656.850 C 274.088 656.851 256.868 665.258 256.866 665.259 Z"/>
<path fill="#ffff00" fill-rule="evenodd" stroke="none" d="M 463.134 665.045 C 463.133 665.044 454.787 647.793 454.786 647.792 C 454.786 647.792 454.542 656.593 454.542 656.594 C 454.541 656.594 445.746 656.983 445.745 656.984 C 445.747 656.984 463.132 665.045 463.134 665.045 Z"/>
<path fill="#00ff00" fill-rule="evenodd" stroke="none" d="M 438.314 437.758 C 438.313 437.757 424.512 432.749 424.510 432.749 C 424.511 432.749 429.080 437.711 429.081 437.711 C 429.080 437.712 424.461 442.626 424.461 442.626 C 424.462 442.626 438.313 437.758 438.314 437.758 Z"/>
</g>
</g>
</svg>
