<?xml version="1.0" encoding="utf-8"?>
<!-- Generator: Moho 13.5.1 build 20210623 -->
<!DOCTYPE svg PUBLIC "-//W3C//DTD SVG 1.1//EN" "http://www.w3.org/Graphics/SVG/1.1/DTD/svg11.dtd">
<svg version="1.1" id="Frame_0" xmlns="http://www.w3.org/2000/svg" xmlns:xlink="http://www.w3.org/1999/xlink" width="720px" height="720px">
<g id="pills_2">
<g id="pill2">
<radialGradient id="ABA4227A-82FF-49A6-9581-F139443457B3_0" cx="60.24%" cy="74.36%" r="73.72%">
<stop offset="24.31%" style="stop-color:rgb(255,255,255);stop-opacity:1.00" />
<stop offset="100.00%" style="stop-color:rgb(0,0,0);stop-opacity:1.00" />
</radialGradient>
<path id="S1" fill="url(#ABA4227A-82FF-49A6-9581-F139443457B3_0)" fill-rule="evenodd" stroke="#000000" stroke-width="2" stroke-linejoin="round" d="M 416.673 305.462 C 424.401 300.719 434.936 294.623 447.025 289.863 C 427.285 299.256 434.399 353.822 463.196 408.456 C 491.084 461.364 510.010 472.444 521.571 467.007 C 507.797 473.772 498.674 477.841 488.900 481.546 C 476.701 484.912 453.816 469.829 428.922 422.467 C 399.954 367.352 398.075 316.876 416.673 305.462 Z"/>
<path fill="none" stroke="#ffffff" stroke-width="1" stroke-linecap="butt" stroke-linejoin="round" d="M 463.196 408.456 C 491.084 461.364 510.010 472.444 521.571 467.007 "/>
<path id="S2" fill="#ffffff" fill-rule="evenodd" stroke="#000000" stroke-width="2" stroke-linejoin="round" d="M 502.833 351.922 C 501.258 367.373 487.143 390.120 463.196 408.456 C 491.084 461.364 510.010 472.444 521.571 467.007 C 537.231 458.391 533.035 415.782 502.833 351.922 Z"/>
<path fill="none" stroke="#ffffff" stroke-width="1" stroke-linecap="butt" stroke-linejoin="round" d="M 502.833 351.922 C 501.258 367.373 487.143 390.120 463.196 408.456 "/>
<path fill="none" stroke="#ffffff" stroke-width="1" stroke-linecap="butt" stroke-linejoin="round" d="M 463.196 408.456 C 434.399 353.822 427.285 299.256 447.025 289.863 "/>
<path id="S3" fill="#ffffff" fill-rule="evenodd" stroke="#000000" stroke-width="2" stroke-linejoin="round" d="M 502.833 351.922 C 501.258 367.373 487.143 390.120 463.196 408.456 C 434.399 353.822 427.285 299.256 447.025 289.863 C 461.850 282.807 496.880 339.334 502.833 351.922 Z"/>
<radialGradient id="ABA4227A-82FF-49A6-9581-F139443457B3_3" cx="38.75%" cy="95.31%" r="113.31%">
<stop offset="24.31%" style="stop-color:rgb(255,255,255);stop-opacity:1.00" />
<stop offset="100.00%" style="stop-color:rgb(0,0,0);stop-opacity:1.00" />
</radialGradient>
<path id="S1_2" fill="url(#ABA4227A-82FF-49A6-9581-F139443457B3_3)" fill-rule="evenodd" stroke="#000000" stroke-width="2" stroke-linejoin="round" d="M 209.601 474.506 C 214.749 467.041 221.397 456.845 226.794 445.026 C 216.363 464.238 162.254 454.231 109.230 422.567 C 57.880 391.904 47.823 372.414 53.867 361.159 C 46.379 374.554 41.831 383.447 37.610 393.010 C 33.600 405.012 47.444 428.668 93.414 456.047 C 146.909 487.907 197.213 492.470 209.601 474.506 Z"/>
<path fill="none" stroke="#ffffff" stroke-width="1" stroke-linecap="butt" stroke-linejoin="round" d="M 109.230 422.567 C 57.880 391.904 47.823 372.414 53.867 361.159 "/>
<path id="S2_2" fill="#ffffff" fill-rule="evenodd" stroke="#000000" stroke-width="2" stroke-linejoin="round" d="M 167.792 385.995 C 152.279 386.746 128.814 399.630 109.230 422.567 C 57.880 391.904 47.823 372.414 53.867 361.159 C 63.305 345.980 105.630 352.438 167.792 385.995 Z"/>
<path fill="none" stroke="#ffffff" stroke-width="1" stroke-linecap="butt" stroke-linejoin="round" d="M 167.792 385.995 C 152.279 386.746 128.814 399.630 109.230 422.567 "/>
<path fill="none" stroke="#ffffff" stroke-width="1" stroke-linecap="butt" stroke-linejoin="round" d="M 109.230 422.567 C 162.254 454.231 216.363 464.238 226.794 445.026 "/>
<path id="S3_2" fill="#ffffff" fill-rule="evenodd" stroke="#000000" stroke-width="2" stroke-linejoin="round" d="M 167.792 385.995 C 152.279 386.746 128.814 399.630 109.230 422.567 C 162.254 454.231 216.363 464.238 226.794 445.026 C 234.628 430.598 180.046 392.609 167.792 385.995 Z"/>
<radialGradient id="ABA4227A-82FF-49A6-9581-F139443457B3_6" cx="52.12%" cy="44.84%" r="132.89%">
<stop offset="24.31%" style="stop-color:rgb(255,255,255);stop-opacity:1.00" />
<stop offset="100.00%" style="stop-color:rgb(0,0,0);stop-opacity:1.00" />
</radialGradient>
<path id="S1_5" fill="url(#ABA4227A-82FF-49A6-9581-F139443457B3_6)" fill-rule="evenodd" stroke="#000000" stroke-width="2" stroke-linejoin="round" d="M 274.829 220.221 C 270.669 212.164 265.367 201.208 261.512 188.801 C 269.424 209.180 324.365 206.112 380.975 181.424 C 435.797 157.516 448.243 139.459 443.674 127.529 C 449.405 141.764 452.789 151.162 455.763 161.183 C 458.220 173.597 441.489 195.307 392.419 216.638 C 335.317 241.461 284.840 239.611 274.829 220.221 Z"/>
<path fill="none" stroke="#ffffff" stroke-width="1" stroke-linecap="butt" stroke-linejoin="round" d="M 380.975 181.424 C 435.797 157.516 448.243 139.459 443.674 127.529 "/>
<path id="S2_5" fill="#ffffff" fill-rule="evenodd" stroke="#000000" stroke-width="2" stroke-linejoin="round" d="M 327.520 137.724 C 342.813 140.435 364.456 156.189 380.975 181.424 C 435.797 157.516 448.243 139.459 443.674 127.529 C 436.237 111.275 393.435 112.316 327.520 137.724 Z"/>
<path fill="none" stroke="#ffffff" stroke-width="1" stroke-linecap="butt" stroke-linejoin="round" d="M 327.520 137.724 C 342.813 140.435 364.456 156.189 380.975 181.424 "/>
<path fill="none" stroke="#ffffff" stroke-width="1" stroke-linecap="butt" stroke-linejoin="round" d="M 380.975 181.424 C 324.365 206.112 269.424 209.180 261.512 188.801 "/>
<path id="S3_5" fill="#ffffff" fill-rule="evenodd" stroke="#000000" stroke-width="2" stroke-linejoin="round" d="M 327.520 137.724 C 342.813 140.435 364.456 156.189 380.975 181.424 C 324.365 206.112 269.424 209.180 261.512 188.801 C 255.570 173.495 314.527 142.732 327.520 137.724 Z"/>
</g>
<g id="pill1">
<radialGradient id="BA92B9FD-D5C2-48E4-9A42-F65BCC433B6A_0" cx="32.64%" cy="54.60%" r="76.25%">
<stop offset="50.00%" style="stop-color:rgb(255,255,255);stop-opacity:1.00" />
<stop offset="100.00%" style="stop-color:rgb(0,0,0);stop-opacity:1.00" />
</radialGradient>
<path id="S4_2" fill="url(#BA92B9FD-D5C2-48E4-9A42-F65BCC433B6A_0)" fill-rule="evenodd" stroke="#000000" stroke-width="2" stroke-linejoin="round" d="M 274.128 509.191 C 274.129 509.198 280.075 556.493 283.049 580.143 C 283.573 584.317 284.098 588.491 284.623 592.665 C 284.629 592.664 347.229 584.794 347.229 584.794 C 410.298 582.905 398.310 487.537 336.734 501.319 C 336.734 501.319 274.134 509.190 274.128 509.191 Z"/>
<path fill="none" stroke="#000000" stroke-width="1" stroke-linecap="butt" stroke-linejoin="round" d="M 274.128 509.191 C 274.129 509.198 280.075 556.493 283.049 580.143 "/>
<path fill="none" stroke="#000000" stroke-width="1" stroke-linecap="butt" stroke-linejoin="round" d="M 283.049 580.143 C 283.573 584.317 284.098 588.491 284.623 592.665 "/>
<path id="S5_2" fill="#000000" fill-rule="evenodd" stroke="#ffffff" stroke-width="2" stroke-linejoin="round" d="M 222.017 600.536 C 160.442 614.319 148.451 518.951 211.522 517.062 C 211.522 517.062 274.122 509.191 274.128 509.191 C 274.129 509.198 280.075 556.493 283.049 580.143 C 283.573 584.317 284.098 588.491 284.623 592.665 C 284.617 592.665 222.017 600.536 222.017 600.536 Z"/>
<path id="S6_2" fill="none" stroke="#ffffff" stroke-width="2" stroke-linejoin="round" d="M 283.049 580.143 C 253.880 583.838 225.144 587.451 225.144 587.451 C 200.033 593.058 185.037 576.437 182.745 558.205 "/>
<path id="S7_2" fill="none" stroke="#000000" stroke-width="2" stroke-linejoin="round" d="M 349.866 571.770 C 349.866 571.770 316.141 576.010 283.049 580.143 "/>
<radialGradient id="BA92B9FD-D5C2-48E4-9A42-F65BCC433B6A_4" cx="47.13%" cy="39.48%" r="77.39%">
<stop offset="50.00%" style="stop-color:rgb(255,255,255);stop-opacity:1.00" />
<stop offset="100.00%" style="stop-color:rgb(0,0,0);stop-opacity:1.00" />
</radialGradient>
<path id="S4_4" fill="url(#BA92B9FD-D5C2-48E4-9A42-F65BCC433B6A_4)" fill-rule="evenodd" stroke="#000000" stroke-width="2" stroke-linejoin="round" d="M 152.723 261.090 C 152.730 261.087 195.862 240.795 217.430 230.647 C 221.237 228.856 225.044 227.066 228.850 225.275 C 228.853 225.280 255.712 282.370 255.712 282.370 C 287.876 336.655 200.902 377.575 179.585 318.186 C 179.585 318.186 152.726 261.096 152.723 261.090 Z"/>
<path fill="none" stroke="#000000" stroke-width="1" stroke-linecap="butt" stroke-linejoin="round" d="M 152.723 261.090 C 152.730 261.087 195.862 240.795 217.430 230.647 "/>
<path fill="none" stroke="#000000" stroke-width="1" stroke-linecap="butt" stroke-linejoin="round" d="M 217.430 230.647 C 221.237 228.856 225.044 227.066 228.850 225.275 "/>
<path id="S5_4" fill="#000000" fill-rule="evenodd" stroke="#ffffff" stroke-width="2" stroke-linejoin="round" d="M 201.988 168.179 C 180.671 108.790 93.697 149.709 125.861 203.995 C 125.861 203.995 152.720 261.084 152.723 261.090 C 152.730 261.087 195.862 240.795 217.430 230.647 C 221.237 228.856 225.044 227.066 228.850 225.275 C 228.848 225.269 201.988 168.179 201.988 168.179 Z"/>
<path id="S6_4" fill="none" stroke="#ffffff" stroke-width="2" stroke-linejoin="round" d="M 217.430 230.647 C 204.939 204.031 192.609 177.824 192.609 177.824 C 183.904 153.612 161.838 149.841 145.211 157.664 "/>
<path id="S7_4" fill="none" stroke="#000000" stroke-width="2" stroke-linejoin="round" d="M 246.123 291.569 C 246.123 291.569 231.653 260.812 217.430 230.647 "/>
<radialGradient id="BA92B9FD-D5C2-48E4-9A42-F65BCC433B6A_8" cx="44.52%" cy="44.61%" r="88.69%">
<stop offset="50.00%" style="stop-color:rgb(255,255,255);stop-opacity:1.00" />
<stop offset="100.00%" style="stop-color:rgb(0,0,0);stop-opacity:1.00" />
</radialGradient>
<path id="S4_6" fill="url(#BA92B9FD-D5C2-48E4-9A42-F65BCC433B6A_8)" fill-rule="evenodd" stroke="#000000" stroke-width="2" stroke-linejoin="round" d="M 537.677 191.916 C 537.682 191.921 575.070 221.489 593.767 236.275 C 597.067 238.884 600.366 241.494 603.666 244.103 C 603.662 244.108 564.526 293.595 564.526 293.595 C 530.264 346.581 454.872 286.960 498.536 241.409 C 498.536 241.409 537.673 191.921 537.677 191.916 Z"/>
<path fill="none" stroke="#000000" stroke-width="1" stroke-linecap="butt" stroke-linejoin="round" d="M 537.677 191.916 C 537.682 191.921 575.070 221.489 593.767 236.275 "/>
<path fill="none" stroke="#000000" stroke-width="1" stroke-linecap="butt" stroke-linejoin="round" d="M 593.767 236.275 C 597.067 238.884 600.366 241.494 603.666 244.103 "/>
<path id="S5_6" fill="#000000" fill-rule="evenodd" stroke="#ffffff" stroke-width="2" stroke-linejoin="round" d="M 642.806 194.611 C 686.471 149.060 611.079 89.437 576.817 142.424 C 576.817 142.424 537.680 191.911 537.677 191.916 C 537.682 191.921 575.070 221.489 593.767 236.275 C 597.067 238.884 600.366 241.494 603.666 244.103 C 603.670 244.098 642.806 194.611 642.806 194.611 Z"/>
<path id="S6_6" fill="none" stroke="#ffffff" stroke-width="2" stroke-linejoin="round" d="M 593.767 236.275 C 612.027 213.230 629.992 190.513 629.992 190.513 C 647.787 171.930 641.328 150.495 626.915 139.097 "/>
<path id="S7_6" fill="none" stroke="#000000" stroke-width="2" stroke-linejoin="round" d="M 552.018 289.111 C 552.018 289.111 573.102 262.450 593.767 236.275 "/>
</g>
<g id="pill3">
<path id="S1_3_3" fill="#ffffff" fill-rule="evenodd" stroke="#000000" stroke-width="2" stroke-linejoin="round" d="M 552.494 544.959 C 565.712 558.176 565.712 579.501 552.494 592.719 C 539.277 605.936 517.952 605.936 504.734 592.719 C 491.517 579.501 491.517 558.176 504.734 544.959 C 517.952 531.741 539.277 531.741 552.494 544.959 Z"/>
<path id="S1_2_2_3" fill="none" stroke="#000000" stroke-width="2" stroke-linejoin="round" d="M 545.716 586.498 C 536.096 596.118 520.575 596.118 510.955 586.498 C 501.335 576.878 501.335 561.358 510.955 551.738 "/>
<path id="S1_3_4" fill="#ffffff" fill-rule="evenodd" stroke="#000000" stroke-width="2" stroke-linejoin="round" d="M 357.276 388.336 C 370.493 401.554 370.493 422.879 357.276 436.097 C 344.059 449.314 322.733 449.314 309.516 436.097 C 296.299 422.879 296.299 401.554 309.516 388.336 C 322.733 375.119 344.059 375.119 357.276 388.336 Z"/>
<path id="S1_2_2_4" fill="none" stroke="#000000" stroke-width="2" stroke-linejoin="round" d="M 350.497 429.876 C 340.877 439.496 325.356 439.496 315.737 429.876 C 306.117 420.256 306.117 404.735 315.737 395.116 "/>
<path id="S1_3_6" fill="#ffffff" fill-rule="evenodd" stroke="#000000" stroke-width="2" stroke-linejoin="round" d="M 642.502 331.178 C 655.720 344.395 655.720 365.721 642.502 378.938 C 629.285 392.156 607.960 392.156 594.742 378.938 C 581.525 365.721 581.525 344.395 594.742 331.178 C 607.960 317.960 629.285 317.960 642.502 331.178 Z"/>
<path id="S1_2_2_6" fill="none" stroke="#000000" stroke-width="2" stroke-linejoin="round" d="M 635.723 372.717 C 626.103 382.337 610.583 382.337 600.963 372.717 C 591.343 363.097 591.343 347.577 600.963 337.957 "/>
<path id="S1_3_7" fill="#ffffff" fill-rule="evenodd" stroke="#000000" stroke-width="2" stroke-linejoin="round" d="M 519.655 129.928 C 532.872 143.145 532.872 164.471 519.655 177.688 C 506.437 190.905 485.112 190.905 471.895 177.688 C 458.677 164.471 458.677 143.145 471.895 129.928 C 485.112 116.711 506.437 116.711 519.655 129.928 Z"/>
<path id="S1_2_2_7" fill="none" stroke="#000000" stroke-width="2" stroke-linejoin="round" d="M 512.875 171.467 C 503.256 181.087 487.735 181.087 478.115 171.467 C 468.495 161.848 468.495 146.327 478.115 136.707 "/>
<path id="S1_3_3_2" fill="#ffffff" fill-rule="evenodd" stroke="#000000" stroke-width="2" stroke-linejoin="round" d="M 300.215 41.750 C 313.433 54.967 313.433 76.292 300.215 89.509 C 286.998 102.727 265.673 102.727 252.455 89.509 C 239.238 76.292 239.238 54.967 252.455 41.750 C 265.673 28.532 286.998 28.532 300.215 41.750 Z"/>
<path id="S1_2_2_3_2" fill="none" stroke="#000000" stroke-width="2" stroke-linejoin="round" d="M 293.437 83.289 C 283.817 92.909 268.296 92.909 258.676 83.289 C 249.056 73.669 249.056 58.148 258.676 48.529 "/>
</g>
<g id="specs_2">
<path fill="#ff0000" fill-rule="evenodd" stroke="none" d="M 360.000 663.993 C 360.001 663.996 372.086 697.834 372.088 697.838 C 372.086 697.837 360.001 686.592 360.000 686.591 C 359.999 686.592 347.914 697.837 347.912 697.838 C 347.914 697.834 359.999 663.996 360.000 663.993 Z"/>
<path fill="#0000ff" fill-rule="evenodd" stroke="none" d="M 360.000 2.144 C 360.001 2.146 367.021 21.802 367.021 21.804 C 367.021 21.804 360.001 15.272 360.000 15.272 C 359.999 15.272 352.980 21.804 352.979 21.804 C 352.980 21.802 359.999 2.146 360.000 2.144 Z"/>
<path fill="#00ff00" fill-rule="evenodd" stroke="none" d="M 27.890 335.838 C 27.892 335.837 47.513 328.717 47.515 328.717 C 47.514 328.717 41.018 335.771 41.017 335.771 C 41.018 335.772 47.585 342.759 47.586 342.760 C 47.584 342.759 27.892 335.839 27.890 335.838 Z"/>
<path fill="#ffff00" fill-rule="evenodd" stroke="none" d="M 124.436 571.594 C 124.436 571.593 133.148 552.625 133.149 552.623 C 133.149 552.624 133.607 562.203 133.607 562.204 C 133.608 562.204 143.194 562.436 143.195 562.436 C 143.193 562.437 124.437 571.593 124.436 571.594 Z"/>
<path fill="#ffff00" fill-rule="evenodd" stroke="none" d="M 595.564 571.362 C 595.564 571.360 586.473 552.571 586.473 552.570 C 586.473 552.570 586.206 562.156 586.206 562.157 C 586.205 562.157 576.626 562.581 576.625 562.581 C 576.626 562.582 595.563 571.361 595.564 571.362 Z"/>
<path fill="#00ff00" fill-rule="evenodd" stroke="none" d="M 692.110 335.838 C 692.108 335.837 672.487 328.717 672.485 328.717 C 672.486 328.717 678.982 335.771 678.983 335.771 C 678.982 335.772 672.415 342.759 672.415 342.760 C 672.417 342.759 692.108 335.839 692.110 335.838 Z"/>
<path fill="#00ffff" fill-rule="evenodd" stroke="none" d="M 594.654 99.311 C 594.653 99.313 587.685 118.988 587.685 118.989 C 587.685 118.989 586.365 109.491 586.365 109.490 C 586.364 109.490 576.796 110.122 576.795 110.122 C 576.797 110.121 594.652 99.312 594.654 99.311 Z"/>
<path fill="#00ffff" fill-rule="evenodd" stroke="none" d="M 125.455 99.963 C 125.455 99.965 133.720 119.131 133.721 119.133 C 133.721 119.132 134.404 109.568 134.404 109.567 C 134.405 109.567 143.993 109.559 143.994 109.559 C 143.993 109.559 125.456 99.964 125.455 99.963 Z"/>
<path fill="#be0027" fill-rule="evenodd" stroke="none" d="M 360.000 653.744 C 360.001 653.741 372.086 619.902 372.088 619.899 C 372.086 619.900 360.001 631.144 360.000 631.146 C 359.999 631.144 347.914 619.900 347.912 619.899 C 347.914 619.902 359.999 653.741 360.000 653.744 Z"/>
</g>
</g>
</svg>
