<?xml version="1.0" encoding="utf-8"?>
<!-- Generator: Moho 13.5 build 20210422 -->
<!DOCTYPE svg PUBLIC "-//W3C//DTD SVG 1.1//EN" "http://www.w3.org/Graphics/SVG/1.1/DTD/svg11.dtd">
<svg version="1.1" id="Frame_0" xmlns="http://www.w3.org/2000/svg" xmlns:xlink="http://www.w3.org/1999/xlink" width="720px" height="720px">
<g id="pillar">
<g id="pillar_white_2">
<path id="S1" fill="#ffffff" fill-rule="evenodd" stroke="#000000" stroke-width="2" stroke-linecap="round" stroke-linejoin="round" d="M 260.000 30.646 C 320.000 30.646 400.000 30.646 460.000 30.646 C 429.600 45.846 430.832 96.005 417.761 119.246 C 413.834 126.230 408.344 130.772 400.000 130.646 C 394.484 130.563 380.002 130.646 380.000 130.646 C 379.998 130.646 360.002 131.069 360.000 131.069 C 359.998 131.069 340.002 130.646 340.000 130.646 C 339.998 130.646 325.516 130.563 320.000 130.646 C 312.699 130.756 307.583 127.292 303.519 121.318 C 289.021 100.020 291.600 46.446 260.000 30.646 Z"/>
<path id="S2" fill="none" stroke="#000000" stroke-width="2" stroke-linecap="round" stroke-linejoin="round" d="M 417.761 119.246 C 423.930 104.719 415.329 80.113 415.328 80.109 C 415.325 80.114 384.112 105.356 380.000 130.646 C 383.054 108.985 360.002 80.114 360.000 80.109 C 359.998 80.114 336.938 108.986 340.000 130.646 C 336.912 105.775 304.675 80.537 304.672 80.532 C 304.672 80.536 296.592 106.428 303.519 121.318 C 307.583 127.292 312.699 130.756 320.000 130.646 C 315.314 110.438 332.039 80.537 332.040 80.532 C 332.043 80.537 360.000 107.823 360.000 131.069 C 360.000 107.823 387.957 80.537 387.960 80.532 C 387.961 80.537 404.686 110.438 400.000 130.646 C 394.484 130.563 380.002 130.646 380.000 130.646 C 379.998 130.646 360.002 131.069 360.000 131.069 C 359.998 131.069 340.002 130.646 340.000 130.646 C 339.998 130.646 325.516 130.563 320.000 130.646 M 417.761 119.246 C 413.834 126.230 408.344 130.772 400.000 130.646 "/>
<path id="S3" fill="#ffffff" fill-rule="evenodd" stroke="#000000" stroke-width="2" stroke-linecap="round" stroke-linejoin="round" d="M 320.000 134.435 C 320.008 134.435 399.992 134.435 400.000 134.435 C 400.002 134.487 420.000 494.435 418.909 654.451 C 420.000 654.435 301.102 654.451 301.091 654.451 C 300.000 494.435 319.998 134.487 320.000 134.435 Z"/>
<path id="S4_2" fill="#ffffff" fill-rule="evenodd" stroke="#000000" stroke-width="2" stroke-linecap="round" stroke-linejoin="round" d="M 295.332 644.473 C 295.345 644.473 424.655 644.473 424.668 644.473 C 424.668 644.474 424.668 660.935 424.668 660.937 C 424.655 660.937 295.345 660.937 295.332 660.937 C 295.332 660.935 295.332 644.474 295.332 644.473 Z"/>
<path id="S4_2_2" fill="#ffffff" fill-rule="evenodd" stroke="#000000" stroke-width="2" stroke-linecap="round" stroke-linejoin="round" d="M 317.121 130.567 C 317.129 130.567 402.871 130.567 402.879 130.567 C 402.879 130.568 402.879 147.029 402.879 147.031 C 402.871 147.031 317.129 147.031 317.121 147.031 C 317.121 147.029 317.121 130.568 317.121 130.567 Z"/>
<path id="S4_2_2_2" fill="#ffffff" fill-rule="evenodd" stroke="#000000" stroke-width="2" stroke-linecap="round" stroke-linejoin="round" d="M 256.404 19.345 C 256.424 19.345 463.576 19.345 463.596 19.345 C 463.596 19.346 463.596 32.911 463.596 32.912 C 463.576 32.912 256.424 32.912 256.404 32.912 C 256.404 32.911 256.404 19.346 256.404 19.345 Z"/>
<path id="S4" fill="#ffffff" fill-rule="evenodd" stroke="#000000" stroke-width="2" stroke-linecap="round" stroke-linejoin="round" d="M 280.000 660.655 C 280.016 660.655 439.984 660.655 440.000 660.655 C 440.000 660.659 440.000 700.651 440.000 700.655 C 439.984 700.655 280.016 700.655 280.000 700.655 C 280.000 700.651 280.000 660.659 280.000 660.655 Z"/>
</g>
<g id="specs_2">
<path fill="#ff00ff" fill-rule="evenodd" stroke="none" d="M 313.145 453.888 C 313.155 453.888 406.845 453.888 406.855 453.888 C 406.855 453.872 406.855 295.764 406.855 295.748 C 406.845 295.748 313.155 295.748 313.145 295.748 C 313.145 295.764 313.145 453.872 313.145 453.888 Z"/>
<path fill="#ff0000" fill-rule="evenodd" stroke="none" d="M 360.000 681.709 C 360.001 681.712 372.416 716.475 372.417 716.478 C 372.416 716.477 360.001 704.925 360.000 704.924 C 359.999 704.925 347.584 716.477 347.583 716.478 C 347.584 716.475 359.999 681.712 360.000 681.709 Z"/>
<path fill="#0000ff" fill-rule="evenodd" stroke="none" d="M 360.000 18.197 C 360.001 18.199 367.212 38.392 367.213 38.394 C 367.212 38.394 360.001 31.684 360.000 31.683 C 359.999 31.684 352.788 38.394 352.787 38.394 C 352.788 38.392 359.999 18.199 360.000 18.197 Z"/>
<path fill="#00ff00" fill-rule="evenodd" stroke="none" d="M 259.898 360.102 C 259.900 360.102 280.056 352.788 280.058 352.787 C 280.057 352.788 273.384 360.034 273.383 360.034 C 273.384 360.035 280.130 367.212 280.131 367.213 C 280.129 367.212 259.900 360.103 259.898 360.102 Z"/>
<path fill="#00ff00" fill-rule="evenodd" stroke="none" d="M 460.102 360.102 C 460.100 360.102 439.944 352.788 439.942 352.787 C 439.943 352.788 446.616 360.034 446.617 360.034 C 446.616 360.035 439.870 367.212 439.869 367.213 C 439.871 367.212 460.100 360.103 460.102 360.102 Z"/>
</g>
</g>
</svg>
