<?xml version="1.0" encoding="utf-8"?>
<!-- Generator: Moho 13.5.1 build 20210623 -->
<!DOCTYPE svg PUBLIC "-//W3C//DTD SVG 1.1//EN" "http://www.w3.org/Graphics/SVG/1.1/DTD/svg11.dtd">
<svg version="1.1" id="Frame_0" xmlns="http://www.w3.org/2000/svg" xmlns:xlink="http://www.w3.org/1999/xlink" width="720px" height="720px">
<g id="pipe">
<g id="pipe">
<path fill="#000000" fill-rule="evenodd" stroke="#ffffff" stroke-width="4" stroke-linecap="round" stroke-linejoin="round" d="M 174.775 443.709 C 233.055 443.709 259.183 458.450 259.183 466.458 C 259.183 474.465 233.055 489.207 174.775 489.207 C 116.495 489.207 90.367 474.465 90.367 466.458 C 90.367 458.450 116.495 443.709 174.775 443.709 Z"/>
<path fill="none" stroke="#ffffff" stroke-width="1" stroke-linecap="butt" stroke-linejoin="round" d="M 174.775 489.207 C 116.495 489.207 90.367 474.465 90.367 466.458 "/>
<path fill="none" stroke="#ffffff" stroke-width="1" stroke-linecap="butt" stroke-linejoin="round" d="M 259.183 466.458 C 259.183 474.465 233.055 489.207 174.775 489.207 "/>
<path fill="#ffffff" fill-rule="evenodd" stroke="none" d="M 174.775 489.207 C 116.495 489.207 90.367 474.465 90.367 466.458 C 78.552 480.459 53.206 642.528 151.582 680.725 C 180.038 691.773 221.897 685.340 238.111 678.391 C 320.303 643.168 344.330 502.803 484.591 438.694 C 532.162 416.951 599.890 421.331 599.900 421.336 C 599.900 421.336 612.297 429.533 627.953 428.559 C 652.927 427.007 658.667 392.606 629.633 388.076 C 608.646 384.801 599.712 393.872 599.709 393.873 C 599.693 393.874 499.922 387.173 447.395 405.218 C 333.286 444.416 269.040 550.415 269.086 547.326 C 269.419 524.503 264.774 474.860 259.183 466.458 C 259.183 474.465 233.055 489.207 174.775 489.207 Z"/>
<path fill="none" stroke="#000000" stroke-width="4" stroke-linecap="round" stroke-linejoin="round" d="M 258.372 617.703 C 267.518 587.533 268.840 564.282 269.086 547.326 C 269.419 524.503 264.774 474.860 259.183 466.458 C 259.183 474.465 233.055 489.207 174.775 489.207 C 116.495 489.207 90.367 474.465 90.367 466.458 C 78.552 480.459 53.206 642.528 151.582 680.725 C 180.038 691.773 221.897 685.340 238.111 678.391 C 320.303 643.168 344.330 502.803 484.591 438.694 C 532.162 416.951 599.890 421.331 599.900 421.336 C 599.900 421.336 612.297 429.533 627.953 428.559 C 652.927 427.007 658.667 392.606 629.633 388.076 C 608.646 384.801 599.712 393.872 599.709 393.873 C 599.693 393.874 499.922 387.173 447.395 405.218 C 333.286 444.416 269.040 550.415 269.086 547.326 "/>
<path fill="#ffffff" fill-rule="evenodd" stroke="#000000" stroke-width="4" stroke-linecap="round" stroke-linejoin="round" d="M 175.475 455.674 C 210.028 455.674 226.350 463.191 226.350 465.571 C 226.350 467.951 210.028 475.468 175.475 475.468 C 140.923 475.468 124.601 467.951 124.601 465.571 C 124.601 463.191 140.923 455.674 175.475 455.674 Z"/>
<path fill="#000000" fill-rule="evenodd" stroke="none" d="M 603.033 412.008 C 603.033 412.009 605.966 417.140 605.966 417.141 C 605.968 417.141 612.002 422.458 625.397 422.640 C 638.954 422.825 644.094 413.475 644.096 413.474 C 644.096 413.474 643.363 409.075 643.363 409.075 C 643.361 409.076 638.893 417.365 626.131 418.241 C 609.070 419.411 603.035 412.009 603.033 412.008 M 249.180 646.797 C 247.405 651.276 238.372 668.350 238.371 668.352 C 238.379 668.345 268.541 652.940 313.601 592.357 C 332.386 567.099 390.767 470.060 472.734 437.117 C 552.005 405.258 600.092 415.402 600.105 415.400 C 600.105 415.400 598.084 412.262 598.084 412.262 C 598.071 412.264 554.344 400.079 470.168 430.703 C 356.841 471.933 301.772 607.502 253.845 631.552 C 253.143 631.905 250.354 643.836 249.180 646.797 M 131.251 499.983 C 120.503 533.871 115.762 566.157 125.966 601.245 C 147.662 675.854 178.703 677.484 178.708 677.492 C 178.700 677.484 121.057 676.106 100.387 601.250 C 81.524 532.934 99.821 488.289 99.821 488.278 C 99.824 488.279 115.126 495.812 131.251 499.983 Z"/>
</g>
<g id="specs_2">
<path fill="#ff00ff" fill-rule="evenodd" stroke="none" d="M 96.328 476.614 C 96.343 476.614 251.630 476.614 251.645 476.614 C 251.645 476.598 251.645 321.312 251.645 321.296 C 251.630 321.296 96.343 321.296 96.328 321.296 C 96.328 321.312 96.328 476.598 96.328 476.614 Z"/>
<path fill="#ff0000" fill-rule="evenodd" stroke="none" d="M 652.514 409.444 C 652.518 409.443 687.324 397.012 687.328 397.011 C 687.326 397.012 675.760 409.443 675.759 409.444 C 675.760 409.445 687.326 421.876 687.328 421.877 C 687.324 421.876 652.518 409.445 652.514 409.444 Z"/>
<path fill="#00ffff" fill-rule="evenodd" stroke="none" d="M 509.516 377.999 C 509.517 378.001 516.737 398.219 516.738 398.221 C 516.737 398.221 509.517 391.502 509.516 391.502 C 509.515 391.502 502.295 398.221 502.294 398.221 C 502.295 398.219 509.515 378.001 509.516 377.999 Z"/>
<path fill="#00ff00" fill-rule="evenodd" stroke="none" d="M 66.344 583.460 C 66.346 583.459 85.940 576.349 85.942 576.348 C 85.941 576.349 79.454 583.393 79.453 583.394 C 79.454 583.394 86.012 590.371 86.013 590.372 C 86.011 590.371 66.346 583.460 66.344 583.460 Z"/>
<path fill="#be0027" fill-rule="evenodd" stroke="none" d="M 190.437 697.494 C 190.436 697.492 182.977 677.361 182.977 677.359 C 182.977 677.360 190.277 683.992 190.278 683.993 C 190.279 683.992 197.419 677.190 197.420 677.189 C 197.419 677.191 190.438 697.492 190.437 697.494 Z"/>
<path fill="#00ff00" fill-rule="evenodd" stroke="none" d="M 343.945 583.460 C 343.943 583.459 324.349 576.349 324.347 576.348 C 324.347 576.349 330.834 583.393 330.835 583.394 C 330.834 583.394 324.277 590.371 324.276 590.372 C 324.278 590.371 343.943 583.460 343.945 583.460 Z"/>
<path fill="#0000ff" fill-rule="evenodd" stroke="none" d="M 675.370 408.693 C 675.367 408.692 640.561 396.261 640.557 396.260 C 640.558 396.261 652.124 408.692 652.125 408.693 C 652.124 408.694 640.558 421.125 640.557 421.126 C 640.561 421.125 675.367 408.694 675.370 408.693 Z"/>
<path fill="#ff00ff" fill-rule="evenodd" stroke="none" d="M 150.592 363.611 C 150.611 363.611 338.335 363.611 338.353 363.611 C 338.353 363.592 338.353 175.869 338.353 175.850 C 338.335 175.850 150.611 175.850 150.592 175.850 C 150.592 175.869 150.592 363.592 150.592 363.611 Z"/>
<path fill="#ff00ff" fill-rule="evenodd" stroke="none" d="M 38.005 232.166 C 38.028 232.166 261.047 232.166 261.069 232.166 C 261.069 232.144 261.069 9.125 261.069 9.102 C 261.047 9.102 38.028 9.102 38.005 9.102 C 38.005 9.125 38.005 232.144 38.005 232.166 Z"/>
</g>
</g>
</svg>
