<?xml version="1.0" encoding="utf-8"?>
<!-- Generator: Moho 13.0.3 build 635 -->
<!DOCTYPE svg PUBLIC "-//W3C//DTD SVG 1.1//EN" "http://www.w3.org/Graphics/SVG/1.1/DTD/svg11.dtd">
<svg version="1.1" id="Frame_0" xmlns="http://www.w3.org/2000/svg" xmlns:xlink="http://www.w3.org/1999/xlink" width="720px" height="720px">
<g id="pipe">
<g id="pipe">
<path fill="#000000" fill-rule="evenodd" stroke="#ffffff" stroke-width="4" stroke-linecap="round" stroke-linejoin="round" d="M 175.006 443.605 C 233.213 443.605 259.308 458.328 259.308 466.325 C 259.308 474.323 233.213 489.046 175.006 489.046 C 116.798 489.046 90.702 474.323 90.702 466.325 C 90.702 458.328 116.798 443.605 175.006 443.605 Z"/>
<path fill="none" stroke="#ffffff" stroke-width="1" stroke-linecap="butt" stroke-linejoin="round" d="M 175.006 489.046 C 116.798 489.046 90.702 474.323 90.702 466.325 "/>
<path fill="none" stroke="#ffffff" stroke-width="1" stroke-linecap="butt" stroke-linejoin="round" d="M 259.308 466.325 C 259.308 474.323 233.213 489.046 175.006 489.046 "/>
<path fill="#ffffff" fill-rule="evenodd" stroke="none" d="M 175.006 489.046 C 116.798 489.046 90.702 474.323 90.702 466.325 C 78.902 480.309 53.588 642.177 151.842 680.326 C 180.262 691.361 222.069 684.935 238.263 677.995 C 320.352 642.815 344.350 502.625 484.436 438.596 C 531.948 416.880 599.591 421.255 599.602 421.260 C 599.601 421.260 611.983 429.446 627.619 428.474 C 652.563 426.924 658.295 392.565 629.298 388.041 C 608.336 384.771 599.413 393.830 599.410 393.831 C 599.395 393.832 499.748 387.140 447.286 405.161 C 333.319 444.311 269.154 550.178 269.199 547.093 C 269.531 524.298 264.892 474.717 259.308 466.325 C 259.308 474.323 233.213 489.046 175.006 489.046 Z"/>
<path fill="none" stroke="#000000" stroke-width="4" stroke-linecap="round" stroke-linejoin="round" d="M 258.499 617.383 C 267.633 587.250 268.953 564.028 269.199 547.093 C 269.531 524.298 264.892 474.717 259.308 466.325 C 259.308 474.323 233.213 489.046 175.006 489.046 C 116.798 489.046 90.702 474.323 90.702 466.325 C 78.902 480.309 53.588 642.177 151.842 680.326 C 180.262 691.361 222.069 684.935 238.263 677.995 C 320.352 642.815 344.350 502.625 484.436 438.596 C 531.948 416.880 599.591 421.255 599.602 421.260 C 599.601 421.260 611.983 429.446 627.619 428.474 C 652.563 426.924 658.295 392.565 629.298 388.041 C 608.336 384.771 599.413 393.830 599.410 393.831 C 599.395 393.832 499.748 387.140 447.286 405.161 C 333.319 444.311 269.154 550.178 269.199 547.093 "/>
<path fill="#ffffff" fill-rule="evenodd" stroke="#000000" stroke-width="4" stroke-linecap="round" stroke-linejoin="round" d="M 175.705 455.555 C 210.214 455.555 226.516 463.063 226.516 465.440 C 226.516 467.816 210.214 475.324 175.705 475.324 C 141.195 475.324 124.893 467.816 124.893 465.440 C 124.893 463.063 141.195 455.555 175.705 455.555 Z"/>
<path fill="#000000" fill-rule="evenodd" stroke="none" d="M 249.318 646.440 C 247.545 650.914 238.523 667.967 238.522 667.969 C 238.530 667.961 268.655 652.576 313.658 592.068 C 332.421 566.842 390.729 469.923 472.594 437.021 C 551.766 405.201 599.793 415.334 599.806 415.331 C 599.806 415.331 597.788 412.197 597.788 412.197 C 597.775 412.199 554.102 400.029 470.031 430.615 C 356.845 471.794 301.845 607.193 253.977 631.214 C 253.276 631.566 250.491 643.483 249.318 646.440 M 625.800 418.168 C 608.760 419.337 602.733 411.944 602.731 411.943 C 602.731 411.944 605.660 417.069 605.660 417.070 C 605.662 417.070 611.688 422.380 625.067 422.562 C 638.607 422.747 643.740 413.409 643.742 413.408 C 643.742 413.407 643.010 409.014 643.010 409.014 C 643.008 409.015 638.546 417.294 625.800 418.168 M 131.536 499.809 C 120.801 533.655 116.066 565.901 126.257 600.945 C 147.926 675.461 178.928 677.089 178.933 677.097 C 178.926 677.089 121.354 675.713 100.710 600.950 C 81.870 532.719 100.145 488.129 100.144 488.118 C 100.148 488.119 115.431 495.643 131.536 499.809 Z"/>
</g>
<g id="specs_2">
<path fill="#ff00ff" fill-rule="evenodd" stroke="none" d="M 96.656 476.469 C 96.671 476.469 251.765 476.469 251.780 476.469 C 251.780 476.453 251.780 321.360 251.780 321.344 C 251.765 321.344 96.671 321.344 96.656 321.344 C 96.656 321.360 96.656 476.453 96.656 476.469 Z"/>
<path fill="#ff0000" fill-rule="evenodd" stroke="none" d="M 610.342 409.383 C 610.346 409.381 645.108 396.966 645.112 396.965 C 645.111 396.966 633.559 409.381 633.558 409.383 C 633.559 409.384 645.111 421.799 645.112 421.800 C 645.108 421.799 610.346 409.384 610.342 409.383 Z"/>
<path fill="#0000ff" fill-rule="evenodd" stroke="none" d="M 509.330 377.977 C 509.331 377.979 516.542 398.172 516.543 398.174 C 516.542 398.173 509.331 391.463 509.330 391.462 C 509.329 391.463 502.118 398.173 502.117 398.174 C 502.118 398.172 509.329 377.979 509.330 377.977 Z"/>
<path fill="#00ff00" fill-rule="evenodd" stroke="none" d="M 66.709 583.182 C 66.711 583.181 86.281 576.080 86.283 576.079 C 86.282 576.080 79.803 583.115 79.802 583.116 C 79.803 583.116 86.353 590.085 86.354 590.086 C 86.352 590.085 66.711 583.182 66.709 583.182 Z"/>
<path fill="#ffff00" fill-rule="evenodd" stroke="none" d="M 190.648 697.074 C 190.647 697.072 183.198 676.966 183.197 676.964 C 183.197 676.965 190.488 683.589 190.489 683.590 C 190.490 683.589 197.621 676.795 197.622 676.794 C 197.621 676.796 190.649 697.072 190.648 697.074 Z"/>
<path fill="#00ff00" fill-rule="evenodd" stroke="none" d="M 343.965 583.182 C 343.963 583.181 324.393 576.080 324.391 576.079 C 324.392 576.080 330.871 583.115 330.871 583.116 C 330.871 583.116 324.321 590.085 324.320 590.086 C 324.322 590.085 343.963 583.182 343.965 583.182 Z"/>
<path fill="#be0027" fill-rule="evenodd" stroke="none" d="M 674.978 408.632 C 674.974 408.631 640.212 396.216 640.208 396.215 C 640.209 396.216 651.761 408.631 651.762 408.632 C 651.761 408.634 640.209 421.049 640.208 421.050 C 640.212 421.049 674.974 408.634 674.978 408.632 Z"/>
<path fill="#ff00ff" fill-rule="evenodd" stroke="none" d="M 150.853 363.606 C 150.871 363.606 338.361 363.606 338.380 363.606 C 338.380 363.588 338.380 176.098 338.380 176.079 C 338.361 176.079 150.871 176.079 150.853 176.079 C 150.853 176.098 150.853 363.588 150.853 363.606 Z"/>
<path fill="#ff00ff" fill-rule="evenodd" stroke="none" d="M 38.406 232.325 C 38.428 232.325 261.170 232.325 261.192 232.325 C 261.192 232.303 261.192 9.561 261.192 9.539 C 261.170 9.539 38.428 9.539 38.406 9.539 C 38.406 9.561 38.406 232.303 38.406 232.325 Z"/>
</g>
</g>
</svg>
