<?xml version="1.0" encoding="utf-8"?>
<!-- Generator: Moho 12.5 build 22414 -->
<!DOCTYPE svg PUBLIC "-//W3C//DTD SVG 1.1//EN" "http://www.w3.org/Graphics/SVG/1.1/DTD/svg11.dtd">
<svg version="1.1" id="Frame_0" xmlns="http://www.w3.org/2000/svg" xmlns:xlink="http://www.w3.org/1999/xlink" width="720px" height="720px">
<g id="pitchfork">
<g id="pitchfork">
<path fill="#ffffff" fill-rule="evenodd" stroke="#000000" stroke-width="4" stroke-linejoin="round" d="M 439.976 234.466 C 427.905 255.391 408.843 273.534 374.161 280.859 C 374.263 281.783 384.883 666.868 384.884 666.907 C 384.879 666.907 335.122 666.907 335.117 666.907 C 335.118 666.868 344.802 281.756 345.857 280.860 C 310.709 273.997 292.046 255.415 279.963 234.477 C 260.762 201.204 274.250 106.563 274.250 106.551 C 274.248 106.552 255.429 117.665 255.427 117.666 C 255.430 117.660 283.583 50.829 283.585 50.822 C 283.588 50.829 311.741 117.660 311.744 117.666 C 311.742 117.665 291.450 106.553 291.448 106.551 C 291.450 106.564 283.970 197.519 305.230 227.045 C 313.423 238.422 329.452 248.742 345.656 250.496 C 347.138 199.676 349.887 106.568 349.886 106.554 C 349.884 106.555 331.843 117.668 331.841 117.669 C 331.844 117.663 359.997 50.832 360.000 50.825 C 360.003 50.832 388.156 117.663 388.159 117.669 C 388.157 117.668 370.112 106.555 370.110 106.554 C 370.109 106.569 372.949 202.336 374.377 250.497 C 390.333 248.770 406.622 238.434 414.816 227.054 C 436.076 197.527 428.545 106.563 428.546 106.551 C 428.544 106.552 408.258 117.665 408.256 117.666 C 408.259 117.660 436.412 50.829 436.415 50.822 C 436.418 50.829 464.570 117.660 464.573 117.666 C 464.571 117.665 445.746 106.553 445.744 106.551 C 445.744 106.563 459.172 201.193 439.976 234.466 Z"/>
</g>
<g id="specs_2">
<path fill="#ff0000" fill-rule="evenodd" stroke="none" d="M 360.000 632.485 C 360.001 632.488 372.416 667.251 372.417 667.254 C 372.416 667.253 360.001 655.702 360.000 655.701 C 359.999 655.702 347.584 667.253 347.583 667.254 C 347.584 667.251 359.999 632.488 360.000 632.485 Z"/>
<path fill="#0000ff" fill-rule="evenodd" stroke="none" d="M 360.000 29.821 C 360.001 29.823 367.212 50.016 367.213 50.018 C 367.212 50.017 360.001 43.307 360.000 43.307 C 359.999 43.307 352.788 50.017 352.787 50.018 C 352.788 50.016 359.999 29.823 360.000 29.821 Z"/>
<path fill="#00ff00" fill-rule="evenodd" stroke="none" d="M 317.451 359.912 C 317.453 359.911 337.610 352.597 337.612 352.596 C 337.611 352.597 330.938 359.843 330.937 359.844 C 330.938 359.844 337.684 367.022 337.684 367.022 C 337.682 367.022 317.453 359.912 317.451 359.912 Z"/>
<path fill="#ffff00" fill-rule="evenodd" stroke="none" d="M 317.518 602.106 C 317.518 602.104 326.468 582.618 326.469 582.617 C 326.469 582.618 326.940 592.457 326.940 592.458 C 326.941 592.458 336.788 592.697 336.789 592.697 C 336.787 592.697 317.519 602.105 317.518 602.106 Z"/>
<path fill="#ffff00" fill-rule="evenodd" stroke="none" d="M 402.483 601.867 C 402.482 601.865 393.143 582.563 393.142 582.561 C 393.142 582.562 392.869 592.409 392.869 592.410 C 392.868 592.410 383.027 592.846 383.026 592.846 C 383.028 592.847 402.481 601.866 402.483 601.867 Z"/>
<path fill="#00ff00" fill-rule="evenodd" stroke="none" d="M 402.549 359.912 C 402.547 359.911 382.390 352.597 382.388 352.596 C 382.389 352.597 389.062 359.843 389.063 359.844 C 389.062 359.844 382.316 367.022 382.316 367.022 C 382.318 367.022 402.547 359.912 402.549 359.912 Z"/>
<path fill="#00ffff" fill-rule="evenodd" stroke="none" d="M 452.990 37.776 C 452.989 37.777 447.942 52.028 447.942 52.029 C 447.942 52.028 446.986 45.149 446.986 45.149 C 446.985 45.149 440.055 45.607 440.055 45.607 C 440.056 45.606 452.989 37.777 452.990 37.776 Z"/>
<path fill="#00ffff" fill-rule="evenodd" stroke="none" d="M 267.010 38.248 C 267.011 38.250 272.996 52.132 272.997 52.133 C 272.997 52.133 273.492 45.205 273.492 45.205 C 273.493 45.205 280.438 45.199 280.438 45.199 C 280.437 45.198 267.012 38.249 267.010 38.248 Z"/>
<path fill="#be0027" fill-rule="evenodd" stroke="none" d="M 360.000 691.428 C 360.001 691.425 372.416 656.662 372.417 656.659 C 372.416 656.660 360.001 668.211 360.000 668.213 C 359.999 668.211 347.584 656.660 347.583 656.659 C 347.584 656.662 359.999 691.425 360.000 691.428 Z"/>
</g>
</g>
</svg>
