<?xml version="1.0" encoding="utf-8"?>
<!-- Generator: Moho 12.5 build 22414 -->
<!DOCTYPE svg PUBLIC "-//W3C//DTD SVG 1.1//EN" "http://www.w3.org/Graphics/SVG/1.1/DTD/svg11.dtd">
<svg version="1.1" id="Frame_0" xmlns="http://www.w3.org/2000/svg" xmlns:xlink="http://www.w3.org/1999/xlink" width="720px" height="720px">
<g id="pitchfork">
<g id="pitchfork">
<path fill="#ffffff" fill-rule="evenodd" stroke="#000000" stroke-width="4" stroke-linejoin="round" d="M 437.904 235.557 C 425.234 255.846 404.285 271.843 369.499 276.523 C 369.593 277.460 376.691 667.958 376.691 667.997 C 376.688 667.997 343.312 667.997 343.309 667.997 C 343.309 667.958 349.452 277.442 350.514 276.524 C 315.309 272.328 294.732 255.867 282.054 235.568 C 261.712 202.998 277.659 107.654 277.659 107.642 C 277.657 107.643 255.429 118.756 255.427 118.757 C 255.430 118.751 283.583 51.920 283.585 51.913 C 283.588 51.920 311.741 118.751 311.744 118.757 C 311.742 118.756 289.514 107.643 289.512 107.642 C 289.513 107.654 279.599 198.386 300.391 228.135 C 310.493 242.591 331.187 255.055 351.595 257.013 C 352.458 204.278 354.074 107.659 354.074 107.644 C 354.072 107.646 331.844 118.759 331.841 118.760 C 331.844 118.753 359.997 51.922 360.000 51.915 C 360.003 51.922 388.156 118.753 388.159 118.760 C 388.157 118.759 365.929 107.646 365.927 107.645 C 365.927 107.660 367.590 207.038 368.427 257.014 C 388.524 255.086 409.546 242.603 419.651 228.145 C 440.443 198.394 430.487 107.654 430.488 107.642 C 430.486 107.643 408.258 118.756 408.256 118.757 C 408.259 118.751 436.412 51.920 436.415 51.913 C 436.417 51.920 464.570 118.751 464.573 118.757 C 464.571 118.756 442.343 107.643 442.341 107.642 C 442.341 107.654 458.242 202.988 437.904 235.557 Z"/>
</g>
<g id="specs_2">
<path fill="#ff0000" fill-rule="evenodd" stroke="none" d="M 360.000 633.576 C 360.001 633.579 372.416 668.342 372.417 668.345 C 372.416 668.344 360.001 656.793 360.000 656.791 C 359.999 656.793 347.584 668.344 347.583 668.345 C 347.584 668.342 359.999 633.579 360.000 633.576 Z"/>
<path fill="#0000ff" fill-rule="evenodd" stroke="none" d="M 360.000 30.911 C 360.001 30.913 367.212 51.106 367.213 51.108 C 367.212 51.108 360.001 44.398 360.000 44.397 C 359.999 44.398 352.788 51.108 352.787 51.108 C 352.788 51.106 359.999 30.913 360.000 30.911 Z"/>
<path fill="#00ff00" fill-rule="evenodd" stroke="none" d="M 317.451 361.002 C 317.453 361.002 337.610 353.687 337.612 353.687 C 337.611 353.687 330.938 360.933 330.937 360.934 C 330.938 360.935 337.684 368.112 337.684 368.113 C 337.682 368.112 317.453 361.003 317.451 361.002 Z"/>
<path fill="#ffff00" fill-rule="evenodd" stroke="none" d="M 317.517 603.196 C 317.518 603.194 326.467 583.709 326.468 583.707 C 326.468 583.708 326.940 593.548 326.940 593.549 C 326.941 593.549 336.788 593.787 336.789 593.787 C 336.787 593.788 317.519 603.195 317.517 603.196 Z"/>
<path fill="#ffff00" fill-rule="evenodd" stroke="none" d="M 402.483 602.958 C 402.482 602.956 393.143 583.654 393.142 583.652 C 393.142 583.653 392.869 593.500 392.869 593.501 C 392.868 593.501 383.027 593.937 383.026 593.937 C 383.028 593.938 402.481 602.957 402.483 602.958 Z"/>
<path fill="#00ff00" fill-rule="evenodd" stroke="none" d="M 402.549 361.002 C 402.547 361.002 382.390 353.687 382.388 353.687 C 382.389 353.687 389.062 360.933 389.063 360.934 C 389.062 360.935 382.316 368.112 382.316 368.113 C 382.318 368.112 402.547 361.003 402.549 361.002 Z"/>
<path fill="#00ffff" fill-rule="evenodd" stroke="none" d="M 452.990 38.867 C 452.989 38.868 447.942 53.119 447.942 53.120 C 447.942 53.119 446.986 46.240 446.986 46.239 C 446.985 46.239 440.055 46.697 440.055 46.697 C 440.056 46.697 452.989 38.868 452.990 38.867 Z"/>
<path fill="#00ffff" fill-rule="evenodd" stroke="none" d="M 267.010 39.339 C 267.011 39.340 272.997 53.223 272.997 53.224 C 272.997 53.224 273.492 46.296 273.492 46.295 C 273.493 46.295 280.438 46.290 280.438 46.290 C 280.437 46.289 267.011 39.340 267.010 39.339 Z"/>
<path fill="#be0027" fill-rule="evenodd" stroke="none" d="M 360.000 692.519 C 360.001 692.516 372.416 657.753 372.417 657.750 C 372.416 657.751 360.001 669.302 360.000 669.303 C 359.999 669.302 347.584 657.751 347.583 657.750 C 347.584 657.753 359.999 692.516 360.000 692.519 Z"/>
</g>
</g>
</svg>
