<?xml version="1.0" encoding="utf-8"?>
<!-- Generator: Moho 13.5.1 build 20210623 -->
<!DOCTYPE svg PUBLIC "-//W3C//DTD SVG 1.1//EN" "http://www.w3.org/Graphics/SVG/1.1/DTD/svg11.dtd">
<svg version="1.1" id="Frame_0" xmlns="http://www.w3.org/2000/svg" xmlns:xlink="http://www.w3.org/1999/xlink" width="720px" height="720px">
<g id="pitchfork">
<g id="pitchfork">
<linearGradient id="16C51C82-5250-4984-AF04-6D0F4B33E19D_0" x1="50.00%" y1="70.06%" x2="50.00%" y2="-132.45%">
<stop offset="11.37%" style="stop-color:rgb(255,255,255);stop-opacity:1.00" />
<stop offset="100.00%" style="stop-color:rgb(0,0,0);stop-opacity:1.00" />
</linearGradient>
<path fill="url(#16C51C82-5250-4984-AF04-6D0F4B33E19D_0)" fill-rule="evenodd" stroke="#000000" stroke-width="4" stroke-linejoin="round" d="M 440.076 234.310 C 427.989 255.260 408.904 273.426 374.178 280.760 C 374.281 281.685 384.914 667.250 384.915 667.289 C 384.910 667.289 335.091 667.289 335.086 667.289 C 335.087 667.250 344.783 281.658 345.840 280.761 C 310.648 273.890 291.961 255.285 279.863 234.321 C 260.638 201.006 274.144 106.247 274.143 106.235 C 274.141 106.236 255.298 117.363 255.297 117.365 C 255.299 117.358 283.487 50.443 283.490 50.437 C 283.493 50.443 311.681 117.358 311.684 117.365 C 311.682 117.363 291.365 106.237 291.363 106.236 C 291.364 106.248 283.875 197.316 305.162 226.879 C 313.365 238.271 329.414 248.603 345.638 250.359 C 347.122 199.476 349.875 106.252 349.874 106.238 C 349.872 106.239 331.808 117.366 331.806 117.367 C 331.809 117.361 359.997 50.446 360.000 50.440 C 360.003 50.446 388.191 117.361 388.194 117.367 C 388.192 117.366 370.125 106.240 370.123 106.239 C 370.122 106.253 372.965 202.140 374.395 250.361 C 390.371 248.632 406.680 238.283 414.884 226.889 C 436.170 197.324 428.630 106.247 428.631 106.235 C 428.629 106.236 408.318 117.363 408.316 117.365 C 408.319 117.358 436.507 50.443 436.510 50.437 C 436.513 50.443 464.701 117.358 464.703 117.365 C 464.702 117.363 445.853 106.237 445.851 106.236 C 445.851 106.248 459.296 200.995 440.076 234.310 Z"/>
</g>
<g id="specs_2">
<path fill="#ff0000" fill-rule="evenodd" stroke="none" d="M 360.000 632.824 C 360.001 632.828 372.432 667.633 372.433 667.637 C 372.432 667.636 360.001 656.070 360.000 656.069 C 359.999 656.070 347.568 667.636 347.567 667.637 C 347.568 667.633 359.999 632.828 360.000 632.824 Z"/>
<path fill="#0000ff" fill-rule="evenodd" stroke="none" d="M 360.000 29.409 C 360.001 29.411 367.221 49.630 367.222 49.632 C 367.221 49.631 360.001 42.913 360.000 42.912 C 359.999 42.913 352.779 49.631 352.778 49.632 C 352.779 49.630 359.999 29.411 360.000 29.409 Z"/>
<path fill="#00ff00" fill-rule="evenodd" stroke="none" d="M 317.398 359.911 C 317.400 359.911 337.582 352.587 337.584 352.587 C 337.583 352.587 330.901 359.842 330.901 359.843 C 330.901 359.844 337.656 367.030 337.657 367.031 C 337.655 367.030 317.400 359.912 317.398 359.911 Z"/>
<path fill="#00ff00" fill-rule="evenodd" stroke="none" d="M 402.602 359.911 C 402.600 359.911 382.418 352.587 382.416 352.587 C 382.417 352.587 389.099 359.842 389.099 359.843 C 389.099 359.844 382.344 367.030 382.343 367.031 C 382.346 367.030 402.600 359.912 402.602 359.911 Z"/>
<path fill="#be0027" fill-rule="evenodd" stroke="none" d="M 360.000 691.841 C 360.001 691.838 372.432 657.032 372.433 657.028 C 372.432 657.029 360.001 668.595 360.000 668.596 C 359.999 668.595 347.568 657.029 347.567 657.028 C 347.568 657.032 359.999 691.838 360.000 691.841 Z"/>
</g>
</g>
</svg>
