<?xml version="1.0" encoding="utf-8"?>
<!-- Generator: Moho 13.5.1 build 20210623 -->
<!DOCTYPE svg PUBLIC "-//W3C//DTD SVG 1.1//EN" "http://www.w3.org/Graphics/SVG/1.1/DTD/svg11.dtd">
<svg version="1.1" id="Frame_0" xmlns="http://www.w3.org/2000/svg" xmlns:xlink="http://www.w3.org/1999/xlink" width="720px" height="720px">
<g id="pomegranate">
<g id="circles2">
<path fill="#000000" fill-rule="evenodd" stroke="none" d="M 360.955 149.662 C 489.563 149.662 593.311 253.411 593.311 382.019 C 593.311 510.627 489.563 614.376 360.955 614.376 C 232.347 614.376 128.599 510.627 128.599 382.019 C 128.599 253.411 232.347 149.663 360.955 149.662 Z"/>
<path id="S2" fill="#ffffff" fill-rule="evenodd" stroke="#ffffff" stroke-width="2" stroke-linecap="round" stroke-linejoin="round" d="M 406.435 525.562 C 421.882 525.562 434.342 538.023 434.342 553.469 C 434.342 568.916 421.882 581.376 406.435 581.376 C 390.989 581.376 378.529 568.916 378.529 553.469 C 378.529 538.023 390.989 525.562 406.435 525.562 Z"/>
<path id="S2_2" fill="#ffffff" fill-rule="evenodd" stroke="#ffffff" stroke-width="2" stroke-linecap="round" stroke-linejoin="round" d="M 480.853 486.028 C 496.300 486.028 508.760 498.488 508.760 513.935 C 508.760 529.381 496.300 541.841 480.853 541.841 C 465.407 541.841 452.947 529.381 452.947 513.935 C 452.947 498.488 465.407 486.028 480.853 486.028 Z"/>
<path id="S2_3" fill="#ffffff" fill-rule="evenodd" stroke="#ffffff" stroke-width="2" stroke-linecap="round" stroke-linejoin="round" d="M 412.249 443.005 C 427.696 443.004 440.156 455.465 440.156 470.912 C 440.156 486.358 427.695 498.818 412.249 498.818 C 396.803 498.818 384.343 486.358 384.343 470.912 C 384.342 455.465 396.803 443.005 412.249 443.005 Z"/>
<path id="S2_4" fill="#ffffff" fill-rule="evenodd" stroke="#ffffff" stroke-width="2" stroke-linecap="round" stroke-linejoin="round" d="M 475.039 396.493 C 490.486 396.493 502.947 408.954 502.946 424.400 C 502.946 439.847 490.486 452.307 475.039 452.307 C 459.593 452.307 447.133 439.846 447.133 424.400 C 447.133 408.954 459.593 396.493 475.039 396.493 Z"/>
<path id="S2_5" fill="#ffffff" fill-rule="evenodd" stroke="#ffffff" stroke-width="2" stroke-linecap="round" stroke-linejoin="round" d="M 544.806 423.237 C 560.253 423.237 572.713 435.698 572.713 451.144 C 572.713 466.591 560.253 479.051 544.806 479.051 C 529.360 479.051 516.900 466.590 516.900 451.144 C 516.900 435.698 529.360 423.237 544.806 423.237 Z"/>
<path id="S2_6" fill="#ffffff" fill-rule="evenodd" stroke="#ffffff" stroke-width="2" stroke-linecap="round" stroke-linejoin="round" d="M 414.575 352.307 C 430.021 352.307 442.482 364.768 442.482 380.214 C 442.482 395.661 430.021 408.121 414.575 408.121 C 399.129 408.121 386.668 395.661 386.668 380.214 C 386.668 364.768 399.129 352.308 414.575 352.307 Z"/>
<path id="S2_7" fill="#ffffff" fill-rule="evenodd" stroke="#ffffff" stroke-width="2" stroke-linecap="round" stroke-linejoin="round" d="M 471.551 298.819 C 486.997 298.819 499.458 311.280 499.458 326.726 C 499.458 342.173 486.997 354.633 471.551 354.633 C 456.105 354.633 443.644 342.173 443.644 326.726 C 443.644 311.280 456.105 298.819 471.551 298.819 Z"/>
<path id="S2_8" fill="#ffffff" fill-rule="evenodd" stroke="#ffffff" stroke-width="2" stroke-linecap="round" stroke-linejoin="round" d="M 536.667 344.168 C 552.114 344.168 564.574 356.629 564.574 372.075 C 564.574 387.521 552.113 399.982 536.667 399.982 C 521.221 399.982 508.761 387.521 508.760 372.075 C 508.760 356.629 521.221 344.168 536.667 344.168 Z"/>
<path id="S2_9" fill="#ffffff" fill-rule="evenodd" stroke="#ffffff" stroke-width="2" stroke-linecap="round" stroke-linejoin="round" d="M 534.341 255.796 C 549.788 255.796 562.248 268.257 562.248 283.703 C 562.248 299.150 549.788 311.610 534.341 311.610 C 518.895 311.610 506.435 299.150 506.435 283.703 C 506.435 268.257 518.895 255.797 534.341 255.796 Z"/>
<path id="S2_10" fill="#ffffff" fill-rule="evenodd" stroke="#ffffff" stroke-width="2" stroke-linecap="round" stroke-linejoin="round" d="M 412.249 258.122 C 427.696 258.122 440.156 270.583 440.156 286.029 C 440.156 301.475 427.695 313.936 412.249 313.936 C 396.803 313.936 384.343 301.475 384.343 286.029 C 384.343 270.583 396.803 258.122 412.249 258.122 Z"/>
<path id="S2_11" fill="#ffffff" fill-rule="evenodd" stroke="#ffffff" stroke-width="2" stroke-linecap="round" stroke-linejoin="round" d="M 471.551 201.146 C 486.998 201.146 499.458 213.606 499.458 229.053 C 499.458 244.499 486.997 256.959 471.551 256.959 C 456.105 256.959 443.645 244.499 443.645 229.053 C 443.644 213.606 456.105 201.146 471.551 201.146 Z"/>
<path id="S2_12" fill="#ffffff" fill-rule="evenodd" stroke="#ffffff" stroke-width="2" stroke-linecap="round" stroke-linejoin="round" d="M 399.458 174.402 C 414.905 174.401 427.366 186.862 427.365 202.309 C 427.365 217.755 414.905 230.215 399.458 230.215 C 384.012 230.215 371.552 217.755 371.552 202.309 C 371.552 186.862 384.012 174.402 399.458 174.402 Z"/>
<path id="S2_13" fill="#ffffff" fill-rule="evenodd" stroke="#ffffff" stroke-width="2" stroke-linecap="round" stroke-linejoin="round" d="M 314.576 525.562 C 299.129 525.562 286.669 538.023 286.669 553.470 C 286.669 568.916 299.130 581.376 314.576 581.376 C 330.022 581.376 342.482 568.916 342.482 553.470 C 342.483 538.023 330.022 525.562 314.576 525.562 Z"/>
<path id="S2_2_2" fill="#ffffff" fill-rule="evenodd" stroke="#ffffff" stroke-width="2" stroke-linecap="round" stroke-linejoin="round" d="M 237.832 481.376 C 222.386 481.376 209.925 493.837 209.925 509.283 C 209.925 524.730 222.386 537.190 237.832 537.190 C 253.279 537.190 265.739 524.730 265.739 509.283 C 265.739 493.837 253.279 481.376 237.832 481.376 Z"/>
<path id="S2_3_2" fill="#ffffff" fill-rule="evenodd" stroke="#ffffff" stroke-width="2" stroke-linecap="round" stroke-linejoin="round" d="M 308.762 443.004 C 293.316 443.004 280.855 455.465 280.855 470.911 C 280.855 486.358 293.316 498.818 308.762 498.818 C 324.208 498.818 336.669 486.358 336.669 470.911 C 336.669 455.465 324.208 443.005 308.762 443.004 Z"/>
<path id="S2_4_2" fill="#ffffff" fill-rule="evenodd" stroke="#ffffff" stroke-width="2" stroke-linecap="round" stroke-linejoin="round" d="M 247.135 393.005 C 231.688 393.005 219.228 405.466 219.228 420.912 C 219.228 436.358 231.688 448.819 247.135 448.819 C 262.581 448.818 275.041 436.358 275.041 420.912 C 275.041 405.466 262.581 393.005 247.135 393.005 Z"/>
<path id="S2_5_2" fill="#ffffff" fill-rule="evenodd" stroke="#ffffff" stroke-width="2" stroke-linecap="round" stroke-linejoin="round" d="M 179.693 419.749 C 164.247 419.749 151.786 432.210 151.786 447.656 C 151.786 463.102 164.247 475.563 179.693 475.563 C 195.139 475.563 207.600 463.102 207.600 447.656 C 207.600 432.210 195.140 419.749 179.693 419.749 Z"/>
<path id="S2_6_2" fill="#ffffff" fill-rule="evenodd" stroke="#ffffff" stroke-width="2" stroke-linecap="round" stroke-linejoin="round" d="M 306.437 352.307 C 290.990 352.307 278.529 364.768 278.530 380.214 C 278.530 395.661 290.990 408.121 306.437 408.121 C 321.883 408.121 334.343 395.660 334.343 380.214 C 334.343 364.768 321.883 352.307 306.437 352.307 Z"/>
<path id="S2_7_2" fill="#ffffff" fill-rule="evenodd" stroke="#ffffff" stroke-width="2" stroke-linecap="round" stroke-linejoin="round" d="M 249.460 301.145 C 234.014 301.145 221.553 313.606 221.553 329.052 C 221.553 344.498 234.014 356.959 249.460 356.958 C 264.906 356.958 277.367 344.498 277.367 329.052 C 277.367 313.606 264.907 301.145 249.460 301.145 Z"/>
<path id="S2_8_2" fill="#ffffff" fill-rule="evenodd" stroke="#ffffff" stroke-width="2" stroke-linecap="round" stroke-linejoin="round" d="M 178.530 338.354 C 163.084 338.354 150.623 350.815 150.623 366.261 C 150.623 381.707 163.084 394.168 178.530 394.168 C 193.976 394.168 206.437 381.707 206.437 366.261 C 206.437 350.815 193.976 338.354 178.530 338.354 Z"/>
<path id="S2_9_2" fill="#ffffff" fill-rule="evenodd" stroke="#ffffff" stroke-width="2" stroke-linecap="round" stroke-linejoin="round" d="M 192.484 253.471 C 177.038 253.471 164.577 265.931 164.577 281.378 C 164.577 296.824 177.038 309.285 192.484 309.284 C 207.930 309.284 220.390 296.824 220.391 281.378 C 220.391 265.932 207.930 253.471 192.484 253.471 Z"/>
<path id="S2_10_2" fill="#ffffff" fill-rule="evenodd" stroke="#ffffff" stroke-width="2" stroke-linecap="round" stroke-linejoin="round" d="M 308.762 258.122 C 293.316 258.122 280.855 270.583 280.855 286.029 C 280.855 301.475 293.316 313.936 308.762 313.936 C 324.208 313.936 336.669 301.475 336.669 286.029 C 336.669 270.583 324.208 258.122 308.762 258.122 Z"/>
<path id="S2_11_2" fill="#ffffff" fill-rule="evenodd" stroke="#ffffff" stroke-width="2" stroke-linecap="round" stroke-linejoin="round" d="M 249.460 201.146 C 234.014 201.146 221.553 213.606 221.553 229.053 C 221.553 244.499 234.014 256.959 249.460 256.959 C 264.906 256.959 277.367 244.499 277.367 229.053 C 277.367 213.606 264.906 201.146 249.460 201.146 Z"/>
<path id="S2_12_2" fill="#ffffff" fill-rule="evenodd" stroke="#ffffff" stroke-width="2" stroke-linecap="round" stroke-linejoin="round" d="M 321.553 174.402 C 306.107 174.401 293.646 186.862 293.646 202.309 C 293.646 217.755 306.107 230.215 321.553 230.215 C 336.999 230.215 349.459 217.755 349.459 202.309 C 349.459 186.862 336.999 174.402 321.553 174.402 Z"/>
</g>
<g id="pomegranate">
<path fill="#ffffff" fill-rule="evenodd" stroke="#000000" stroke-width="4" stroke-linecap="round" stroke-linejoin="round" d="M 336.073 361.450 C 336.073 237.922 358.376 179.665 336.073 166.732 C 321.759 158.431 247.994 188.752 220.479 214.217 C 179.022 252.586 140.257 328.453 141.047 384.935 C 141.800 438.735 180.651 509.561 220.479 545.737 C 248.230 570.944 321.563 601.176 336.073 593.223 C 362.984 578.472 336.073 508.485 336.073 361.450 M 386.021 361.450 C 386.021 237.922 363.718 179.665 386.021 166.732 C 400.335 158.431 474.100 188.752 501.615 214.217 C 543.072 252.586 581.837 328.453 581.047 384.935 C 580.294 438.735 541.443 509.561 501.615 545.737 C 473.863 570.944 400.531 601.176 386.021 593.223 C 359.110 578.472 386.021 508.485 386.021 361.450 M 345.567 46.417 C 345.599 46.412 359.968 8.383 360.000 8.383 C 360.032 8.382 376.035 45.142 376.067 45.147 C 376.091 45.150 396.999 23.156 397.022 23.163 C 397.052 23.173 398.866 62.563 398.866 62.567 C 398.869 62.565 428.074 41.444 428.101 41.455 C 428.148 41.476 409.836 84.892 417.762 106.266 C 436.118 155.772 507.744 155.787 543.026 192.380 C 589.186 240.255 618.989 304.820 618.989 377.403 C 618.989 449.987 589.929 515.280 543.026 562.427 C 496.123 609.574 431.375 638.575 360.000 638.575 C 288.625 638.575 223.877 609.574 176.974 562.427 C 130.071 515.280 101.011 449.987 101.011 377.403 C 101.011 304.820 130.611 240.059 176.974 192.380 C 212.884 155.451 288.387 157.225 304.690 106.266 C 310.630 87.700 291.863 51.646 291.899 51.621 C 291.920 51.607 321.026 63.656 321.029 63.657 C 321.029 63.653 320.495 20.634 320.527 20.622 C 320.554 20.612 345.539 46.423 345.567 46.417 Z"/>
</g>
<g id="specs">
<path fill="#ff0000" fill-rule="evenodd" stroke="none" d="M 360.000 644.474 C 360.001 644.477 372.432 679.283 372.433 679.287 C 372.432 679.285 360.001 667.720 360.000 667.718 C 359.999 667.720 347.568 679.285 347.567 679.287 C 347.568 679.283 359.999 644.477 360.000 644.474 Z"/>
<path fill="#0000ff" fill-rule="evenodd" stroke="none" d="M 360.000 -0.463 C 360.001 -0.461 367.221 19.757 367.222 19.759 C 367.221 19.759 360.001 13.041 360.000 13.040 C 359.999 13.041 352.779 19.759 352.778 19.759 C 352.779 19.757 359.999 -0.461 360.000 -0.463 Z"/>
<path fill="#00ff00" fill-rule="evenodd" stroke="none" d="M 89.083 377.855 C 89.085 377.854 105.121 372.036 105.123 372.035 C 105.122 372.036 99.813 377.800 99.812 377.801 C 99.813 377.801 105.180 383.512 105.181 383.512 C 105.179 383.512 89.085 377.855 89.083 377.855 Z"/>
<path fill="#ffff00" fill-rule="evenodd" stroke="none" d="M 168.102 570.544 C 168.103 570.543 175.223 555.041 175.224 555.039 C 175.224 555.040 175.599 562.868 175.599 562.869 C 175.600 562.869 183.434 563.059 183.435 563.059 C 183.434 563.060 168.104 570.544 168.102 570.544 Z"/>
<path fill="#ffff00" fill-rule="evenodd" stroke="none" d="M 553.166 570.355 C 553.165 570.353 545.736 554.997 545.735 554.995 C 545.735 554.996 545.517 562.830 545.517 562.831 C 545.516 562.831 537.687 563.178 537.686 563.178 C 537.688 563.179 553.164 570.354 553.166 570.355 Z"/>
<path fill="#00ff00" fill-rule="evenodd" stroke="none" d="M 631.963 377.855 C 631.961 377.854 615.925 372.036 615.923 372.035 C 615.924 372.036 621.233 377.800 621.234 377.801 C 621.233 377.801 615.866 383.512 615.866 383.512 C 615.867 383.512 631.961 377.855 631.963 377.855 Z"/>
<path fill="#00ffff" fill-rule="evenodd" stroke="none" d="M 551.895 184.536 C 551.894 184.537 546.199 200.618 546.199 200.620 C 546.199 200.619 545.120 192.857 545.120 192.856 C 545.119 192.856 537.299 193.372 537.298 193.372 C 537.300 193.371 551.893 184.537 551.895 184.536 Z"/>
<path fill="#00ffff" fill-rule="evenodd" stroke="none" d="M 168.409 185.069 C 168.409 185.071 175.164 200.736 175.165 200.737 C 175.165 200.737 175.723 192.919 175.723 192.918 C 175.724 192.918 183.561 192.912 183.562 192.912 C 183.560 192.912 168.410 185.070 168.409 185.069 Z"/>
<path fill="#be0027" fill-rule="evenodd" stroke="none" d="M 360.000 653.187 C 360.001 653.185 369.045 627.861 369.046 627.859 C 369.045 627.859 360.001 636.274 360.000 636.275 C 359.999 636.274 350.955 627.859 350.954 627.859 C 350.955 627.861 359.999 653.185 360.000 653.187 Z"/>
</g>
</g>
</svg>
