<?xml version="1.0" encoding="utf-8"?>
<!-- Generator: Moho 12.5 build 22414 -->
<!DOCTYPE svg PUBLIC "-//W3C//DTD SVG 1.1//EN" "http://www.w3.org/Graphics/SVG/1.1/DTD/svg11.dtd">
<svg version="1.1" id="Frame_0" xmlns="http://www.w3.org/2000/svg" xmlns:xlink="http://www.w3.org/1999/xlink" width="720px" height="720px">
<g id="poot">
<g id="poot_3">
<path fill="#ffffff" fill-rule="evenodd" stroke="none" d="M 371.743 366.023 C 325.636 358.520 300.494 336.550 281.761 309.680 C 263.033 316.616 237.323 320.836 216.022 310.107 C 186.805 295.392 165.240 261.425 163.403 230.700 C 160.820 187.481 195.122 150.299 222.627 138.274 C 281.297 112.621 318.109 139.603 337.467 156.982 C 371.510 187.545 372.503 221.807 373.581 243.797 C 375.796 288.974 378.639 317.187 392.706 337.382 C 401.441 349.922 424.432 367.015 424.435 367.018 C 424.430 367.018 388.283 368.715 371.743 366.023 Z"/>
<path fill="none" stroke="#000000" stroke-width="4" stroke-linejoin="round" d="M 371.743 366.023 C 325.636 358.520 300.494 336.550 281.761 309.680 C 263.033 316.616 237.323 320.836 216.022 310.107 C 186.805 295.392 165.240 261.425 163.403 230.700 C 160.820 187.481 195.122 150.299 222.627 138.274 C 281.297 112.621 318.109 139.603 337.467 156.982 C 371.510 187.545 372.503 221.807 373.581 243.797 C 375.796 288.974 378.639 317.187 392.706 337.382 C 401.441 349.922 424.432 367.015 424.435 367.018 C 424.430 367.018 388.283 368.715 371.743 366.023 M 293.041 183.583 C 345.710 211.980 345.813 285.959 281.761 309.680 M 215.282 241.709 C 200.935 198.966 256.243 163.743 293.041 183.583 M 273.073 260.363 C 252.925 280.441 223.091 264.975 215.282 241.709 M 262.235 221.565 C 279.475 220.758 291.219 242.282 273.073 260.363 M 258.015 237.161 C 249.053 236.684 250.528 222.114 262.235 221.565 "/>
<path fill="#ffffff" fill-rule="evenodd" stroke="none" d="M 312.823 404.395 C 267.147 428.774 230.221 426.313 195.652 415.225 C 185.945 436.465 166.412 461.745 139.074 467.272 C 102.300 474.708 60.397 452.675 38.259 425.178 C 8.165 387.799 12.169 333.003 28.324 303.917 C 62.786 241.874 113.363 240.909 142.104 243.212 C 192.650 247.263 216.554 276.791 232.285 295.445 C 264.604 333.769 282.258 353.671 312.045 365.063 C 327.866 371.114 359.923 369.853 359.928 369.853 C 359.923 369.857 329.208 395.649 312.823 404.395 Z"/>
<path fill="none" stroke="#000000" stroke-width="4" stroke-linejoin="round" d="M 312.823 404.395 C 267.147 428.774 230.221 426.313 195.652 415.225 C 185.945 436.465 166.412 461.745 139.074 467.272 C 102.300 474.708 60.397 452.675 38.259 425.178 C 8.165 387.799 12.169 333.003 28.324 303.917 C 62.786 241.874 113.363 240.909 142.104 243.212 C 192.650 247.263 216.554 276.791 232.285 295.445 C 264.604 333.769 282.258 353.671 312.045 365.063 C 327.866 371.114 359.923 369.853 359.928 369.853 C 359.923 369.857 329.208 395.649 312.823 404.395 M 120.834 296.517 C 186.338 286.140 227.162 346.275 195.652 415.225 M 91.378 400.009 C 50.004 371.984 75.069 303.766 120.834 296.517 M 154.847 377.602 C 150.586 408.839 113.898 415.263 91.378 400.009 M 119.216 350.697 C 133.866 338.397 158.684 349.471 154.847 377.602 M 125.981 367.277 C 117.762 372.881 109.268 359.049 119.216 350.697 "/>
<path fill="#ffffff" fill-rule="evenodd" stroke="none" d="M 415.625 501.518 C 377.613 535.792 341.601 542.230 305.792 539.830 C 300.659 561.101 284.876 585.465 261.107 596.323 C 228.504 611.216 184.688 606.374 157.162 586.887 C 118.444 559.477 110.166 504.672 118.734 472.917 C 137.011 405.181 185.305 392.201 213.428 387.562 C 262.886 379.404 292.857 402.036 312.394 416.184 C 352.533 445.250 374.213 460.138 405.506 463.969 C 422.127 466.003 452.582 457.154 452.586 457.153 C 452.583 457.158 429.261 489.223 415.625 501.518 Z"/>
<path fill="none" stroke="#000000" stroke-width="4" stroke-linejoin="round" d="M 415.625 501.518 C 377.613 535.792 341.601 542.230 305.792 539.830 C 300.659 561.101 284.876 585.465 261.107 596.323 C 228.504 611.216 184.688 606.374 157.162 586.887 C 118.444 559.477 110.166 504.672 118.734 472.917 C 137.011 405.181 185.305 392.201 213.428 387.562 C 262.886 379.404 292.857 402.036 312.394 416.184 C 352.533 445.250 374.213 460.138 405.506 463.969 C 422.127 466.003 452.582 457.154 452.586 457.153 C 452.583 457.158 429.261 489.223 415.625 501.518 M 205.724 443.772 C 266.095 418.207 323.373 466.981 305.792 539.830 M 202.127 550.082 C 155.755 533.055 163.545 461.634 205.724 443.772 M 257.679 513.460 C 261.035 544.444 227.368 559.350 202.127 550.082 M 217.083 496.137 C 228.208 480.845 254.656 485.556 257.679 513.460 M 227.524 510.433 C 220.974 517.768 209.528 506.521 217.083 496.137 "/>
<path fill="#ffffff" fill-rule="evenodd" stroke="none" d="M 426.443 404.981 C 387.255 432.883 352.936 435.010 319.760 428.907 C 312.673 448.214 295.309 469.260 271.944 476.834 C 239.897 487.223 199.508 477.977 175.909 456.813 C 142.715 427.045 140.896 374.981 152.321 346.256 C 176.693 284.982 223.184 278.072 249.943 276.773 C 297.002 274.490 322.544 298.854 339.260 314.171 C 373.604 345.640 392.240 361.878 421.045 368.830 C 436.344 372.522 465.734 367.544 465.739 367.544 C 465.735 367.548 440.501 394.972 426.443 404.981 Z"/>
<path fill="none" stroke="#000000" stroke-width="4" stroke-linejoin="round" d="M 426.443 404.981 C 387.255 432.883 352.936 435.010 319.760 428.907 C 312.673 448.214 295.309 469.260 271.944 476.834 C 239.897 487.223 199.508 477.977 175.909 456.813 C 142.715 427.045 140.896 374.981 152.321 346.256 C 176.693 284.982 223.184 278.072 249.943 276.773 C 297.002 274.490 322.544 298.854 339.260 314.171 C 373.604 345.640 392.240 361.878 421.045 368.830 C 436.344 372.522 465.734 367.544 465.739 367.544 C 465.735 367.548 440.501 394.972 426.443 404.981 M 236.687 328.424 C 295.813 311.065 344.033 362.784 319.760 428.907 M 221.863 427.298 C 180.401 406.398 195.378 340.552 236.687 328.424 M 277.681 399.096 C 277.473 428.388 244.431 438.674 221.863 427.298 M 241.645 378.543 C 253.681 365.465 277.868 372.716 277.681 399.096 M 249.853 393.017 C 242.946 399.159 233.472 387.424 241.645 378.543 "/>
<path fill="#ffffff" fill-rule="evenodd" stroke="none" d="M 521.447 403.699 C 479.931 407.550 479.530 410.897 427.583 390.697 C 411.943 405.375 383.759 411.241 358.670 406.069 C 328.060 399.760 298.918 377.243 286.547 350.564 C 269.280 313.327 282.812 268.763 301.874 247.631 C 340.545 204.760 380.165 213.691 402.915 219.402 C 458.276 233.301 485.904 269.790 544.341 322.120 C 588.350 361.529 641.987 371.774 641.992 371.775 C 641.980 371.780 593.852 396.983 521.447 403.699 Z"/>
<path fill="none" stroke="#000000" stroke-width="4" stroke-linejoin="round" d="M 505.449 348.074 C 474.927 337.221 456.478 325.706 456.473 325.704 M 642.064 371.372 C 642.050 371.370 575.463 372.970 505.449 348.074 M 521.447 403.699 C 479.931 407.550 479.530 410.897 427.583 390.697 C 411.943 405.375 383.759 411.241 358.670 406.069 C 328.060 399.760 298.918 377.243 286.547 350.564 C 269.280 313.327 282.812 268.763 301.874 247.631 C 340.545 204.760 380.165 213.691 402.915 219.402 C 458.276 233.301 485.904 269.790 544.341 322.120 C 588.350 361.529 641.987 371.774 641.992 371.775 C 641.980 371.780 593.852 396.983 521.447 403.699 M 388.089 259.326 C 452.288 268.401 478.796 342.637 427.583 390.697 M 331.502 338.057 C 302.626 295.899 346.749 253.482 388.089 259.326 M 394.856 343.459 C 379.806 369.159 346.022 359.256 331.502 338.057 M 368.783 304.257 C 388.031 298.225 409.985 317.624 394.856 343.459 M 369.792 326.074 C 358.168 323.319 359.467 307.176 368.783 304.257 "/>
<path fill="#ffffff" fill-rule="evenodd" stroke="none" d="M 579.781 439.110 C 536.482 472.923 505.232 484.740 461.647 495.874 C 462.471 514.936 455.117 539.156 437.815 553.984 C 414.083 574.321 376.409 580.199 348.436 571.128 C 308.796 558.274 287.964 515.705 284.490 487.021 C 277.682 430.814 303.780 404.304 322.958 391.604 C 370.378 360.202 410.834 376.658 437.378 381.046 C 480.834 388.229 506.075 392.078 538.991 390.759 C 592.486 388.614 642.454 371.552 642.465 371.550 C 642.458 371.557 631.366 398.826 579.781 439.110 Z"/>
<path fill="none" stroke="#000000" stroke-width="4" stroke-linejoin="round" d="M 538.595 425.045 C 476.946 444.203 431.986 437.113 431.975 437.114 M 640.865 372.772 C 640.855 372.777 606.106 404.064 538.595 425.045 M 579.781 439.110 C 536.482 472.923 505.232 484.740 461.647 495.874 C 462.471 514.936 455.117 539.156 437.815 553.984 C 414.083 574.321 376.409 580.199 348.436 571.128 C 308.796 558.274 287.964 515.705 284.490 487.021 C 277.682 430.814 303.780 404.304 322.958 391.604 C 370.378 360.202 410.834 376.658 437.378 381.046 C 480.834 388.229 506.075 392.078 538.991 390.759 C 592.486 388.614 642.454 371.552 642.465 371.550 C 642.458 371.557 631.366 398.826 579.781 439.110 M 354.638 439.495 C 399.068 403.521 458.822 430.589 461.647 495.874 M 377.246 529.449 C 334.282 526.357 323.597 464.628 354.638 439.495 M 414.972 485.371 C 425.252 510.527 400.631 531.132 377.246 529.449 M 376.778 480.639 C 382.414 465.143 405.714 462.716 414.972 485.371 M 388.973 490.101 C 385.252 497.826 372.950 491.161 376.778 480.639 "/>
</g>
<g id="specs_3">
<path fill="#ff0000" fill-rule="evenodd" stroke="none" d="M 682.941 373.815 C 682.943 373.814 712.642 363.207 712.645 363.206 C 712.644 363.207 702.776 373.814 702.775 373.815 C 702.776 373.816 712.644 384.423 712.645 384.424 C 712.642 384.423 682.943 373.816 682.941 373.815 Z"/>
<path fill="#0000ff" fill-rule="evenodd" stroke="none" d="M 5.321 350.500 C 5.323 350.499 22.574 344.338 22.576 344.337 C 22.575 344.338 16.843 350.499 16.843 350.500 C 16.843 350.500 22.575 356.661 22.576 356.662 C 22.574 356.661 5.323 350.500 5.321 350.500 Z"/>
<path fill="#00ff00" fill-rule="evenodd" stroke="none" d="M 272.298 596.653 C 272.297 596.651 266.921 581.832 266.920 581.831 C 266.921 581.831 272.247 586.738 272.248 586.738 C 272.248 586.738 277.525 581.778 277.526 581.778 C 277.525 581.779 272.298 596.651 272.298 596.653 Z"/>
<path fill="#ffff00" fill-rule="evenodd" stroke="none" d="M 448.373 555.943 C 448.372 555.942 435.639 550.094 435.638 550.093 C 435.638 550.093 442.068 549.786 442.068 549.786 C 442.068 549.785 442.224 543.349 442.224 543.349 C 442.225 543.350 448.372 555.941 448.373 555.943 Z"/>
<path fill="#ffff00" fill-rule="evenodd" stroke="none" d="M 448.217 230.491 C 448.216 230.492 435.602 236.594 435.601 236.595 C 435.601 236.595 442.037 236.774 442.037 236.774 C 442.037 236.775 442.322 243.205 442.323 243.206 C 442.323 243.205 448.216 230.493 448.217 230.491 Z"/>
<path fill="#00ff00" fill-rule="evenodd" stroke="none" d="M 272.297 118.707 C 272.297 118.709 266.920 133.527 266.920 133.529 C 266.920 133.528 272.247 128.622 272.248 128.621 C 272.248 128.622 277.525 133.581 277.525 133.582 C 277.525 133.580 272.298 118.709 272.297 118.707 Z"/>
<path fill="#00ffff" fill-rule="evenodd" stroke="none" d="M 68.646 248.893 C 68.647 248.893 84.812 254.618 84.814 254.618 C 84.813 254.619 77.010 255.703 77.009 255.703 C 77.009 255.704 77.528 263.565 77.528 263.566 C 77.527 263.564 68.647 248.894 68.646 248.893 Z"/>
<path fill="#00ffff" fill-rule="evenodd" stroke="none" d="M 123.440 567.038 C 123.441 567.037 139.189 560.247 139.191 560.246 C 139.190 560.246 131.331 559.685 131.330 559.685 C 131.330 559.684 131.325 551.806 131.325 551.805 C 131.324 551.807 123.440 567.036 123.440 567.038 Z"/>
<path fill="#be0027" fill-rule="evenodd" stroke="none" d="M 659.611 375.190 C 659.608 375.189 629.909 364.582 629.906 364.581 C 629.907 364.582 639.776 375.189 639.777 375.190 C 639.776 375.191 629.907 385.797 629.906 385.798 C 629.909 385.797 659.608 375.191 659.611 375.190 Z"/>
</g>
</g>
</svg>
