<?xml version="1.0" encoding="utf-8"?>
<!-- Generator: Moho 13.5 build 20210422 -->
<!DOCTYPE svg PUBLIC "-//W3C//DTD SVG 1.1//EN" "http://www.w3.org/Graphics/SVG/1.1/DTD/svg11.dtd">
<svg version="1.1" id="Frame_0" xmlns="http://www.w3.org/2000/svg" xmlns:xlink="http://www.w3.org/1999/xlink" width="720px" height="720px">
<g id="priestess">
<g id="details">
<path id="S7" fill="#000000" fill-rule="evenodd" stroke="#ffffff" stroke-width="2" stroke-linecap="round" stroke-linejoin="round" d="M 301.086 153.643 C 301.097 153.643 418.903 153.643 418.914 153.643 C 418.921 153.669 482.753 415.187 482.759 415.213 C 482.735 415.214 241.310 421.097 241.286 421.097 C 241.292 421.070 301.080 153.669 301.086 153.643 Z"/>
<path id="S1" fill="#ffffff" fill-rule="evenodd" stroke="#000000" stroke-width="2" stroke-linecap="round" stroke-linejoin="round" d="M 360.000 198.214 C 360.004 198.205 398.325 198.215 398.325 102.401 C 398.325 102.401 383.592 79.614 360.000 79.614 C 336.408 79.614 321.678 102.399 321.675 102.401 C 321.675 198.214 359.996 198.205 360.000 198.214 Z"/>
<path id="S7_2" fill="#ffffff" fill-rule="evenodd" stroke="#000000" stroke-width="2" stroke-linecap="round" stroke-linejoin="round" d="M 304.708 184.775 C 329.470 229.242 387.170 228.607 415.292 184.775 C 440.282 225.223 463.632 326.207 463.637 326.221 C 463.615 326.230 241.308 421.088 241.286 421.097 C 241.292 421.073 251.101 243.741 304.708 184.775 Z"/>
<path id="S4" fill="#000000" fill-rule="evenodd" stroke="none" d="M 312.742 344.042 C 312.738 344.044 283.796 356.717 269.322 363.054 C 266.478 353.601 266.471 342.597 272.309 333.649 C 288.149 309.374 346.250 329.570 346.258 329.569 C 342.283 331.299 334.334 334.759 334.333 334.760 C 334.332 334.760 324.019 339.248 324.018 339.249 C 324.017 339.249 312.743 344.041 312.742 344.042 Z"/>
<path id="S4" fill="none" stroke="#ffffff" stroke-width="2" stroke-linecap="round" stroke-linejoin="round" d="M 334.333 334.760 C 327.381 331.937 319.897 329.949 311.748 328.733 M 324.018 339.249 C 315.793 335.714 306.635 333.734 298.490 332.129 M 312.742 344.042 C 305.871 341.323 297.646 339.512 289.959 338.736 M 312.742 344.042 C 312.738 344.044 283.796 356.717 269.322 363.054 C 266.478 353.601 266.471 342.597 272.309 333.649 C 288.149 309.374 346.250 329.570 346.258 329.569 C 342.283 331.299 334.334 334.759 334.333 334.760 C 334.332 334.760 324.019 339.248 324.018 339.249 C 324.017 339.249 312.743 344.041 312.742 344.042 "/>
<path id="S9" fill="#000000" fill-rule="evenodd" stroke="none" d="M 365.968 140.523 C 365.969 140.523 371.571 134.412 376.253 134.412 C 380.935 134.412 386.536 140.523 386.537 140.523 C 386.536 140.524 380.935 146.634 376.253 146.634 C 371.571 146.635 365.969 140.524 365.968 140.523 M 333.332 140.523 C 333.333 140.523 338.934 134.412 343.617 134.412 C 348.299 134.412 353.900 140.523 353.901 140.523 C 353.900 140.524 348.299 146.634 343.617 146.634 C 338.934 146.635 333.333 140.524 333.332 140.523 Z"/>
<path id="S10" fill="none" stroke="#000000" stroke-width="2" stroke-linecap="round" stroke-linejoin="round" d="M 351.158 177.684 C 357.009 177.684 362.860 177.684 368.711 177.684 M 389.353 127.049 C 389.351 127.049 377.522 120.015 364.697 127.049 M 328.488 127.049 C 328.490 127.049 342.838 120.762 353.144 127.049 C 363.399 133.305 359.835 165.272 360.000 165.374 C 360.016 165.384 362.516 165.353 363.774 165.343 "/>
</g>
<g id="priestess_2">
<path fill="#ffffff" fill-rule="evenodd" stroke="#000000" stroke-width="2" stroke-linecap="round" stroke-linejoin="round" d="M 583.914 274.247 C 583.914 274.247 583.914 274.247 583.914 274.247 C 598.747 335.169 591.036 401.019 556.728 458.608 C 522.420 516.198 468.199 554.383 408.158 569.594 C 348.116 584.805 282.254 577.042 224.664 542.734 C 167.074 508.426 128.888 454.205 113.677 394.163 C 98.466 334.121 106.230 268.259 140.538 210.670 C 174.503 153.656 227.985 115.661 286.848 100.847 C 262.554 116.419 240.853 136.179 224.066 161.483 C 192.311 209.349 180.770 264.662 192.943 317.315 C 204.364 366.714 237.819 416.059 284.078 443.607 C 332.204 472.268 389.637 477.439 438.214 459.579 C 487.901 441.312 524.446 411.591 556.738 359.313 C 573.294 332.510 579.371 302.703 583.914 274.247 Z"/>
<path id="S12" fill="#000000" fill-rule="evenodd" stroke="#ffffff" stroke-width="2" stroke-linecap="round" stroke-linejoin="round" d="M 334.631 117.725 C 327.925 197.895 217.484 301.456 304.612 380.211 C 285.807 390.196 256.522 418.291 245.024 452.784 C 131.581 325.161 280.475 208.031 303.258 117.666 C 313.904 117.652 324.532 117.642 334.631 117.725 Z"/>
<path id="S11" fill="#000000" fill-rule="evenodd" stroke="#ffffff" stroke-width="2" stroke-linecap="round" stroke-linejoin="round" d="M 385.890 117.654 C 400.392 117.624 410.566 117.618 416.742 117.666 C 439.525 208.031 588.419 325.161 474.976 452.784 C 463.440 418.176 441.487 393.985 415.408 380.200 C 502.179 301.075 393.372 199.277 385.890 117.654 Z"/>
<path fill="none" stroke="#000000" stroke-width="1" stroke-linecap="butt" stroke-linejoin="round" d="M 245.024 452.784 C 256.522 418.291 285.807 390.196 304.612 380.211 "/>
<path id="S1" fill="#000000" fill-rule="evenodd" stroke="#ffffff" stroke-width="2" stroke-linecap="round" stroke-linejoin="round" d="M 91.723 682.735 C 91.738 682.712 175.932 660.059 245.024 452.784 C 256.522 418.291 285.807 390.196 304.612 380.211 C 430.684 469.898 268.440 603.581 420.669 682.735 C 310.063 682.735 91.756 682.735 91.723 682.735 Z"/>
<path id="S5" fill="#ffffff" fill-rule="evenodd" stroke="#000000" stroke-width="2" stroke-linecap="round" stroke-linejoin="round" d="M 360.000 45.359 C 377.296 45.359 391.249 59.312 391.249 76.608 C 391.249 93.904 377.296 107.856 360.000 107.856 C 342.704 107.856 328.751 93.904 328.751 76.608 C 328.751 59.312 342.704 45.359 360.000 45.359 Z"/>
<path id="S2_2" fill="#ffffff" fill-rule="evenodd" stroke="#000000" stroke-width="2" stroke-linecap="round" stroke-linejoin="round" d="M 285.499 356.925 C 344.225 328.818 484.133 274.752 484.153 274.744 C 484.155 274.748 501.768 318.520 501.769 318.524 C 501.751 318.532 318.813 392.188 317.640 392.839 C 305.889 381.282 292.237 368.562 285.499 356.925 Z"/>
<path id="S5_2" fill="#ffffff" fill-rule="evenodd" stroke="none" d="M 398.137 326.108 C 421.822 335.375 437.235 353.344 436.812 354.022 C 431.090 363.187 422.067 376.703 407.526 385.984 C 402.783 378.364 404.190 366.440 374.843 348.699 C 376.047 346.329 378.624 341.648 378.624 341.647 C 378.625 341.647 383.054 336.277 383.055 336.277 C 383.055 336.276 389.683 330.866 389.684 330.865 C 389.685 330.865 395.038 327.147 398.137 326.108 Z"/>
<path id="S5_2" fill="none" stroke="#000000" stroke-width="2" stroke-linecap="round" stroke-linejoin="round" d="M 378.624 341.647 C 394.122 348.950 402.070 356.385 411.877 367.398 M 383.055 336.277 C 399.292 342.587 409.311 350.087 419.364 360.332 M 389.684 330.865 C 405.146 337.266 414.934 343.150 426.791 353.846 M 389.684 330.865 C 389.685 330.865 395.038 327.147 398.137 326.108 C 421.822 335.375 437.235 353.344 436.812 354.022 C 431.090 363.187 422.067 376.703 407.526 385.984 C 402.783 378.364 404.190 366.440 374.843 348.699 C 376.047 346.329 378.624 341.648 378.624 341.647 C 378.625 341.647 383.054 336.277 383.055 336.277 C 383.055 336.276 389.683 330.866 389.684 330.865 "/>
<path fill="none" stroke="#000000" stroke-width="1" stroke-linecap="butt" stroke-linejoin="round" d="M 304.612 380.211 C 430.684 469.898 268.440 603.581 420.669 682.735 "/>
<path fill="none" stroke="#000000" stroke-width="1" stroke-linecap="butt" stroke-linejoin="round" d="M 474.976 452.784 C 463.440 418.176 441.487 393.985 415.408 380.200 "/>
<path id="S2" fill="#000000" fill-rule="evenodd" stroke="#ffffff" stroke-width="2" stroke-linecap="round" stroke-linejoin="round" d="M 304.612 380.211 C 430.684 469.898 268.440 603.581 420.669 682.735 C 495.444 682.735 647.417 682.735 647.440 682.735 C 647.422 682.712 544.068 660.059 474.976 452.784 C 463.440 418.176 441.487 393.985 415.408 380.200 C 380.840 361.928 329.268 367.120 304.612 380.211 Z"/>
<path id="S8" fill="#000000" fill-rule="evenodd" stroke="#ffffff" stroke-width="2" stroke-linecap="round" stroke-linejoin="round" d="M 484.523 274.612 C 486.202 273.954 491.492 279.994 497.320 294.862 C 503.149 309.729 503.373 317.755 501.694 318.413 C 500.016 319.071 494.726 313.031 488.897 298.164 C 483.069 283.296 482.845 275.270 484.523 274.612 Z"/>
<path fill="#ffffff" fill-rule="evenodd" stroke="#000000" stroke-width="2" stroke-linecap="round" stroke-linejoin="round" d="M 370.929 539.914 C 370.929 539.914 370.929 539.914 370.929 539.914 C 364.615 565.845 367.898 593.873 382.501 618.385 C 397.104 642.898 420.182 659.151 445.738 665.625 C 471.294 672.100 499.328 668.795 523.841 654.193 C 548.353 639.590 564.607 616.511 571.081 590.955 C 577.556 565.398 574.251 537.365 559.648 512.852 C 545.191 488.585 522.427 472.413 497.373 466.107 C 507.713 472.735 516.950 481.146 524.095 491.917 C 537.611 512.290 542.524 535.834 537.342 558.245 C 532.481 579.271 518.241 600.274 498.552 612.000 C 478.067 624.199 453.621 626.400 432.945 618.799 C 411.796 611.023 396.241 598.373 382.496 576.121 C 375.449 564.713 372.863 552.026 370.929 539.914 Z"/>
<path fill="none" stroke="#ffffff" stroke-width="1" stroke-linecap="butt" stroke-linejoin="round" d="M 385.890 117.654 C 400.392 117.624 410.566 117.618 416.742 117.666 "/>
<path id="S9" fill="#ffffff" fill-rule="evenodd" stroke="#000000" stroke-width="2" stroke-linecap="round" stroke-linejoin="round" d="M 385.890 117.654 C 400.392 117.624 410.566 117.618 416.742 117.666 C 408.481 84.915 415.955 56.117 455.813 31.206 C 398.325 54.201 382.850 84.635 385.890 117.654 Z"/>
<path fill="none" stroke="#ffffff" stroke-width="1" stroke-linecap="butt" stroke-linejoin="round" d="M 303.258 117.666 C 313.904 117.652 324.532 117.642 334.631 117.725 "/>
<path id="S10" fill="#ffffff" fill-rule="evenodd" stroke="#000000" stroke-width="2" stroke-linecap="round" stroke-linejoin="round" d="M 303.258 117.666 C 313.904 117.652 324.532 117.642 334.631 117.725 C 337.428 84.339 321.675 54.201 264.187 31.206 C 304.045 56.117 311.519 84.915 303.258 117.666 Z"/>
<path id="S6" fill="#ffffff" fill-rule="evenodd" stroke="#000000" stroke-width="2" stroke-linecap="round" stroke-linejoin="round" d="M 302.660 108.769 C 302.672 108.769 417.328 108.769 417.340 108.769 C 417.340 108.770 417.340 118.487 417.340 118.488 C 417.328 118.488 302.672 118.488 302.660 118.488 C 302.660 118.487 302.660 108.770 302.660 108.769 Z"/>
</g>
<g id="specs_2">
<path fill="#ff00ff" fill-rule="evenodd" stroke="none" d="M 308.290 311.433 C 308.301 311.433 411.699 311.433 411.710 311.433 C 411.710 311.424 411.710 223.792 411.710 223.784 C 411.699 223.784 308.301 223.784 308.290 223.784 C 308.290 223.792 308.290 311.424 308.290 311.433 Z"/>
<path fill="#ff0000" fill-rule="evenodd" stroke="none" d="M 360.000 681.591 C 360.001 681.595 371.896 714.902 371.898 714.905 C 371.896 714.904 360.001 703.836 360.000 703.835 C 359.999 703.836 348.104 714.904 348.102 714.905 C 348.104 714.902 359.999 681.595 360.000 681.591 Z"/>
<path fill="#0000ff" fill-rule="evenodd" stroke="none" d="M 360.000 29.478 C 360.001 29.480 366.910 48.828 366.911 48.830 C 366.910 48.829 360.001 42.400 360.000 42.400 C 359.999 42.400 353.090 48.829 353.089 48.830 C 353.090 48.828 359.999 29.480 360.000 29.478 Z"/>
<path fill="#00ff00" fill-rule="evenodd" stroke="none" d="M 33.107 357.931 C 33.109 357.930 52.421 350.922 52.423 350.922 C 52.422 350.922 46.028 357.865 46.028 357.866 C 46.028 357.866 52.492 364.743 52.493 364.744 C 52.491 364.743 33.109 357.932 33.107 357.931 Z"/>
<path fill="#ffff00" fill-rule="evenodd" stroke="none" d="M 128.136 589.985 C 128.136 589.983 136.711 571.314 136.712 571.312 C 136.712 571.313 137.163 580.740 137.163 580.741 C 137.164 580.741 146.599 580.970 146.600 580.970 C 146.598 580.971 128.137 589.984 128.136 589.985 Z"/>
<path fill="#ffff00" fill-rule="evenodd" stroke="none" d="M 591.864 589.756 C 591.864 589.754 582.916 571.260 582.915 571.259 C 582.915 571.260 582.653 580.694 582.653 580.695 C 582.652 580.695 573.223 581.113 573.222 581.113 C 573.224 581.114 591.863 589.755 591.864 589.756 Z"/>
<path fill="#00ff00" fill-rule="evenodd" stroke="none" d="M 686.893 357.931 C 686.891 357.930 667.579 350.922 667.577 350.922 C 667.578 350.922 673.972 357.865 673.972 357.866 C 673.972 357.866 667.508 364.743 667.507 364.744 C 667.509 364.743 686.891 357.932 686.893 357.931 Z"/>
<path fill="#00ffff" fill-rule="evenodd" stroke="none" d="M 590.968 125.119 C 590.968 125.121 584.109 144.487 584.108 144.489 C 584.108 144.488 582.810 135.139 582.809 135.138 C 582.808 135.138 573.391 135.760 573.390 135.760 C 573.392 135.759 590.967 125.120 590.968 125.119 Z"/>
<path fill="#00ffff" fill-rule="evenodd" stroke="none" d="M 129.139 125.761 C 129.139 125.763 137.274 144.628 137.275 144.630 C 137.275 144.629 137.947 135.215 137.947 135.214 C 137.948 135.214 147.386 135.207 147.387 135.207 C 147.385 135.206 129.140 125.762 129.139 125.761 Z"/>
</g>
</g>
</svg>
