<?xml version="1.0" encoding="utf-8"?>
<!-- Generator: Moho 12.5 build 22414 -->
<!DOCTYPE svg PUBLIC "-//W3C//DTD SVG 1.1//EN" "http://www.w3.org/Graphics/SVG/1.1/DTD/svg11.dtd">
<svg version="1.1" id="Frame_0" xmlns="http://www.w3.org/2000/svg" xmlns:xlink="http://www.w3.org/1999/xlink" width="720px" height="720px">
<g id="projection">
<g id="eye_up_2">
<path fill="#000000" fill-rule="evenodd" stroke="#000000" stroke-width="4" stroke-linecap="round" stroke-linejoin="round" d="M 374.614 114.671 C 374.614 122.760 368.089 129.285 360.000 129.285 C 351.911 129.285 345.386 122.760 345.386 114.671 C 345.386 106.582 351.911 100.057 360.000 100.057 C 368.089 100.057 374.614 106.582 374.614 114.671 M 394.646 124.317 C 386.061 130.324 374.303 133.895 360.000 133.895 C 346.118 133.895 334.632 130.531 325.449 124.371 C 324.573 121.314 324.110 118.048 324.110 114.671 C 324.111 94.806 340.135 78.781 360.000 78.781 C 379.865 78.781 395.890 94.806 395.890 114.671 C 395.890 118.048 395.426 121.314 394.646 124.317 Z"/>
<path fill="none" stroke="#ffffff" stroke-width="1" stroke-linecap="butt" stroke-linejoin="round" d="M 360.000 129.285 C 351.911 129.285 345.386 122.760 345.386 114.671 "/>
<path fill="none" stroke="#ffffff" stroke-width="1" stroke-linecap="butt" stroke-linejoin="round" d="M 345.386 114.671 C 345.386 106.582 351.911 100.057 360.000 100.057 "/>
<path fill="none" stroke="#ffffff" stroke-width="1" stroke-linecap="butt" stroke-linejoin="round" d="M 360.000 100.057 C 368.089 100.057 374.614 106.582 374.614 114.671 "/>
<path fill="none" stroke="#ffffff" stroke-width="1" stroke-linecap="butt" stroke-linejoin="round" d="M 374.614 114.671 C 374.614 122.760 368.089 129.285 360.000 129.285 "/>
<path fill="#ffffff" fill-rule="evenodd" stroke="#000000" stroke-width="4" stroke-linecap="round" stroke-linejoin="round" d="M 360.000 129.285 C 351.911 129.285 345.386 122.760 345.386 114.671 C 345.386 106.582 351.911 100.057 360.000 100.057 C 368.089 100.057 374.614 106.582 374.614 114.671 C 374.614 122.760 368.089 129.285 360.000 129.285 Z"/>
<path fill="none" stroke="#ffffff" stroke-width="1" stroke-linecap="butt" stroke-linejoin="round" d="M 395.890 114.671 C 395.890 118.048 395.426 121.314 394.646 124.317 "/>
<path fill="none" stroke="#ffffff" stroke-width="1" stroke-linecap="butt" stroke-linejoin="round" d="M 325.449 124.371 C 324.573 121.314 324.110 118.048 324.110 114.671 "/>
<path fill="none" stroke="#ffffff" stroke-width="1" stroke-linecap="butt" stroke-linejoin="round" d="M 324.110 114.671 C 324.111 94.806 340.135 78.781 360.000 78.781 "/>
<path fill="none" stroke="#ffffff" stroke-width="1" stroke-linecap="butt" stroke-linejoin="round" d="M 360.000 78.781 C 379.865 78.781 395.890 94.806 395.890 114.671 "/>
<path fill="#ffffff" fill-rule="evenodd" stroke="#000000" stroke-width="4" stroke-linecap="round" stroke-linejoin="round" d="M 395.890 114.671 C 395.890 118.048 395.426 121.314 394.646 124.317 C 414.160 115.272 428.804 92.717 428.808 92.714 C 428.801 92.709 402.068 51.532 360.000 51.532 C 317.932 51.532 291.199 92.709 291.192 92.714 C 291.196 92.717 306.152 115.752 325.449 124.371 C 324.573 121.314 324.110 118.048 324.110 114.671 C 324.111 94.806 340.135 78.781 360.000 78.781 C 379.865 78.781 395.890 94.806 395.890 114.671 Z"/>
</g>
<g id="projection">
<path fill="#000000" fill-rule="evenodd" stroke="#000000" stroke-width="4" stroke-linejoin="round" d="M 162.526 506.115 C 162.526 478.789 168.037 452.785 178.011 429.148 C 187.985 405.511 202.422 384.243 220.275 366.390 C 238.128 348.537 259.397 334.099 283.034 324.125 C 306.670 314.151 332.675 308.640 360.000 308.640 C 387.325 308.640 413.330 314.151 436.966 324.125 C 460.603 334.099 481.872 348.537 499.725 366.390 C 517.578 384.243 532.015 405.511 541.989 429.148 C 551.963 452.785 557.474 478.789 557.474 506.115 C 557.474 533.440 551.963 559.444 541.989 583.081 C 532.015 606.718 517.578 627.986 499.725 645.839 C 481.872 663.692 460.603 678.130 436.966 688.104 C 413.330 698.078 387.325 703.589 360.000 703.589 C 332.675 703.589 306.670 698.078 283.034 688.104 C 259.397 678.130 238.128 663.692 220.275 645.839 C 202.422 627.986 187.985 606.718 178.011 583.081 C 168.037 559.444 162.526 533.440 162.526 506.115 Z"/>
<path fill="none" stroke="#ffffff" stroke-width="1" stroke-linecap="butt" stroke-linejoin="round" d="M 178.011 429.148 C 187.985 405.511 202.422 384.243 220.275 366.390 "/>
<path fill="none" stroke="#ffffff" stroke-width="1" stroke-linecap="butt" stroke-linejoin="round" d="M 220.275 366.390 C 238.128 348.537 259.397 334.099 283.034 324.125 "/>
<path fill="none" stroke="#ffffff" stroke-width="1" stroke-linecap="butt" stroke-linejoin="round" d="M 283.034 324.125 C 306.670 314.151 332.675 308.640 360.000 308.640 "/>
<path fill="none" stroke="#ffffff" stroke-width="1" stroke-linecap="butt" stroke-linejoin="round" d="M 360.000 308.640 C 387.325 308.640 413.330 314.151 436.966 324.125 "/>
<path fill="none" stroke="#ffffff" stroke-width="1" stroke-linecap="butt" stroke-linejoin="round" d="M 436.966 324.125 C 460.603 334.099 481.872 348.537 499.725 366.390 "/>
<path fill="none" stroke="#ffffff" stroke-width="1" stroke-linecap="butt" stroke-linejoin="round" d="M 499.725 366.390 C 517.578 384.243 532.015 405.511 541.989 429.148 "/>
<path fill="#ffffff" fill-rule="evenodd" stroke="#000000" stroke-width="4" stroke-linejoin="round" d="M 360.000 109.896 C 359.982 109.928 238.674 322.731 178.011 429.148 C 187.985 405.511 202.422 384.243 220.275 366.390 C 238.128 348.537 259.397 334.099 283.034 324.125 C 306.670 314.151 332.675 308.640 360.000 308.640 C 387.325 308.640 413.330 314.151 436.966 324.125 C 460.603 334.099 481.872 348.537 499.725 366.390 C 517.578 384.243 532.015 405.511 541.989 429.148 C 481.326 322.731 360.018 109.928 360.000 109.896 Z"/>
</g>
<g id="specs_2">
<path fill="#ff00ff" fill-rule="evenodd" stroke="none" d="M 218.983 647.556 C 219.012 647.556 500.988 647.556 501.017 647.556 C 501.017 647.528 501.017 365.551 501.017 365.523 C 500.988 365.523 219.012 365.523 218.983 365.523 C 218.983 365.551 218.983 647.528 218.983 647.556 Z"/>
<path fill="#ff0000" fill-rule="evenodd" stroke="none" d="M 360.000 38.925 C 360.001 38.922 371.664 6.265 371.665 6.262 C 371.664 6.263 360.001 17.115 360.000 17.116 C 359.999 17.115 348.336 6.263 348.335 6.262 C 348.336 6.265 359.999 38.922 360.000 38.925 Z"/>
<path fill="#0000ff" fill-rule="evenodd" stroke="none" d="M 360.000 32.420 C 360.001 32.422 366.775 51.392 366.776 51.393 C 366.775 51.393 360.001 45.089 360.000 45.089 C 359.999 45.089 353.225 51.393 353.224 51.393 C 353.225 51.392 359.999 32.422 360.000 32.420 Z"/>
<path fill="#00ff00" fill-rule="evenodd" stroke="none" d="M 111.862 520.766 C 111.864 520.765 126.524 515.446 126.525 515.445 C 126.525 515.446 121.671 520.716 121.670 520.716 C 121.671 520.717 126.578 525.937 126.578 525.937 C 126.577 525.937 111.864 520.766 111.862 520.766 Z"/>
<path fill="#00ff00" fill-rule="evenodd" stroke="none" d="M 608.138 520.766 C 608.136 520.765 593.476 515.446 593.475 515.445 C 593.475 515.446 598.329 520.716 598.330 520.716 C 598.329 520.717 593.422 525.937 593.422 525.937 C 593.423 525.937 608.136 520.766 608.138 520.766 Z"/>
<path fill="#00ffff" fill-rule="evenodd" stroke="none" d="M 509.949 226.561 C 509.948 226.562 505.496 239.134 505.496 239.135 C 505.496 239.134 504.652 233.066 504.652 233.065 C 504.652 233.065 498.539 233.469 498.538 233.469 C 498.539 233.468 509.948 226.562 509.949 226.561 Z"/>
<path fill="#00ffff" fill-rule="evenodd" stroke="none" d="M 210.156 226.978 C 210.157 226.979 215.437 239.225 215.438 239.227 C 215.438 239.226 215.874 233.115 215.874 233.114 C 215.875 233.114 222.001 233.110 222.002 233.110 C 222.001 233.109 210.157 226.979 210.156 226.978 Z"/>
</g>
</g>
</svg>
