<?xml version="1.0" encoding="utf-8"?>
<!-- Generator: Moho 12.5 build 22414 -->
<!DOCTYPE svg PUBLIC "-//W3C//DTD SVG 1.1//EN" "http://www.w3.org/Graphics/SVG/1.1/DTD/svg11.dtd">
<svg version="1.1" id="Frame_0" xmlns="http://www.w3.org/2000/svg" xmlns:xlink="http://www.w3.org/1999/xlink" width="720px" height="720px">
<g id="projection_3">
<g id="projection">
<path fill="#000000" fill-rule="evenodd" stroke="#ffffff" stroke-width="4" stroke-linecap="round" stroke-linejoin="round" d="M 41.446 406.742 C 41.446 433.293 46.801 458.561 56.492 481.527 C 66.184 504.494 80.212 525.160 97.559 542.507 C 114.906 559.854 135.572 573.882 158.538 583.574 C 181.505 593.265 206.773 598.620 233.324 598.620 C 259.874 598.620 287.648 592.207 308.109 583.573 C 328.569 574.940 351.741 559.854 369.088 542.507 C 386.435 525.160 400.463 504.494 410.155 481.527 C 419.846 458.561 425.201 433.293 425.201 406.742 C 425.201 380.192 419.846 354.924 410.155 331.957 C 400.463 308.990 386.435 288.325 369.088 270.978 C 351.741 253.631 325.998 237.460 308.109 229.911 C 290.219 222.362 259.874 214.865 233.323 214.865 C 206.773 214.865 181.505 220.220 158.538 229.911 C 135.572 239.603 114.906 253.631 97.559 270.978 C 80.212 288.325 66.184 308.990 56.492 331.957 C 46.801 354.924 41.446 380.192 41.446 406.742 Z"/>
<path fill="#ffffff" fill-rule="evenodd" stroke="#ffffff" stroke-width="4" stroke-linecap="round" stroke-linejoin="round" d="M 578.387 406.742 C 578.387 432.895 599.484 453.993 625.637 453.993 C 651.790 453.993 672.888 432.895 672.888 406.742 C 672.888 380.589 651.790 359.492 625.637 359.492 C 599.484 359.492 578.387 380.589 578.387 406.742 Z"/>
<path fill="none" stroke="#ffffff" stroke-width="1" stroke-linecap="butt" stroke-linejoin="round" d="M 625.637 453.993 C 599.484 453.993 578.387 432.895 578.387 406.742 "/>
<path fill="none" stroke="#ffffff" stroke-width="1" stroke-linecap="butt" stroke-linejoin="round" d="M 578.387 406.742 C 578.387 380.589 599.484 359.492 625.637 359.492 "/>
<path fill="none" stroke="#ffffff" stroke-width="1" stroke-linecap="butt" stroke-linejoin="round" d="M 308.109 229.911 C 325.998 237.460 351.741 253.631 369.088 270.978 "/>
<path fill="none" stroke="#ffffff" stroke-width="1" stroke-linecap="butt" stroke-linejoin="round" d="M 369.088 270.978 C 386.435 288.325 400.463 308.990 410.155 331.957 "/>
<path fill="none" stroke="#ffffff" stroke-width="1" stroke-linecap="butt" stroke-linejoin="round" d="M 410.155 331.957 C 419.846 354.924 425.201 380.192 425.201 406.742 "/>
<path fill="none" stroke="#ffffff" stroke-width="1" stroke-linecap="butt" stroke-linejoin="round" d="M 425.201 406.742 C 425.201 433.293 419.846 458.561 410.155 481.527 "/>
<path fill="none" stroke="#ffffff" stroke-width="1" stroke-linecap="butt" stroke-linejoin="round" d="M 410.155 481.527 C 400.463 504.494 386.435 525.160 369.088 542.507 "/>
<path fill="none" stroke="#ffffff" stroke-width="1" stroke-linecap="butt" stroke-linejoin="round" d="M 369.088 542.507 C 351.741 559.854 328.569 574.940 308.109 583.573 "/>
<path fill="#ffffff" fill-rule="evenodd" stroke="#ffffff" stroke-width="4" stroke-linecap="round" stroke-linejoin="round" d="M 308.109 583.573 C 413.951 540.380 519.794 497.186 625.637 453.993 C 599.484 453.993 578.387 432.895 578.387 406.742 C 578.387 380.589 599.484 359.492 625.637 359.492 C 519.794 316.298 413.951 273.105 308.109 229.911 C 325.998 237.460 351.741 253.631 369.088 270.978 C 386.435 288.325 400.463 308.990 410.155 331.957 C 419.846 354.924 425.201 380.192 425.201 406.742 C 425.201 433.293 419.846 458.561 410.155 481.527 C 400.463 504.494 386.435 525.160 369.088 542.507 C 351.741 559.854 328.569 574.940 308.109 583.573 Z"/>
<path fill="#000000" fill-rule="evenodd" stroke="#000000" stroke-width="4" stroke-linecap="round" stroke-linejoin="round" d="M 620.556 416.363 C 615.230 416.363 610.935 412.067 610.935 406.742 C 610.935 401.417 615.230 397.121 620.556 397.121 C 625.881 397.121 630.177 401.417 630.177 406.742 C 630.177 412.067 625.881 416.363 620.556 416.363 M 614.205 429.551 C 610.251 423.899 607.900 416.158 607.900 406.742 C 607.900 397.603 610.114 390.042 614.170 383.996 C 616.182 383.420 618.332 383.115 620.556 383.115 C 633.633 383.115 644.183 393.665 644.183 406.742 C 644.183 419.820 633.633 430.369 620.556 430.369 C 618.332 430.369 616.182 430.065 614.205 429.551 Z"/>
<path fill="none" stroke="#ffffff" stroke-width="1" stroke-linecap="butt" stroke-linejoin="round" d="M 610.935 406.742 C 610.935 401.417 615.230 397.121 620.556 397.121 "/>
<path fill="none" stroke="#ffffff" stroke-width="1" stroke-linecap="butt" stroke-linejoin="round" d="M 620.556 397.121 C 625.881 397.121 630.177 401.417 630.177 406.742 "/>
<path fill="none" stroke="#ffffff" stroke-width="1" stroke-linecap="butt" stroke-linejoin="round" d="M 630.177 406.742 C 630.177 412.067 625.881 416.363 620.556 416.363 "/>
<path fill="none" stroke="#ffffff" stroke-width="1" stroke-linecap="butt" stroke-linejoin="round" d="M 620.556 416.363 C 615.230 416.363 610.935 412.067 610.935 406.742 "/>
<path fill="#ffffff" fill-rule="evenodd" stroke="#000000" stroke-width="4" stroke-linecap="round" stroke-linejoin="round" d="M 610.935 406.742 C 610.935 401.417 615.230 397.121 620.556 397.121 C 625.881 397.121 630.177 401.417 630.177 406.742 C 630.177 412.067 625.881 416.363 620.556 416.363 C 615.230 416.363 610.935 412.067 610.935 406.742 Z"/>
<path fill="none" stroke="#ffffff" stroke-width="1" stroke-linecap="butt" stroke-linejoin="round" d="M 620.556 430.369 C 618.332 430.369 616.182 430.065 614.205 429.551 "/>
<path fill="none" stroke="#ffffff" stroke-width="1" stroke-linecap="butt" stroke-linejoin="round" d="M 614.170 383.996 C 616.182 383.420 618.332 383.115 620.556 383.115 "/>
<path fill="none" stroke="#ffffff" stroke-width="1" stroke-linecap="butt" stroke-linejoin="round" d="M 620.556 383.115 C 633.633 383.115 644.183 393.665 644.183 406.742 "/>
<path fill="none" stroke="#ffffff" stroke-width="1" stroke-linecap="butt" stroke-linejoin="round" d="M 644.183 406.742 C 644.183 419.820 633.633 430.369 620.556 430.369 "/>
<path fill="#ffffff" fill-rule="evenodd" stroke="#000000" stroke-width="4" stroke-linecap="round" stroke-linejoin="round" d="M 620.556 430.369 C 618.332 430.369 616.182 430.065 614.205 429.551 C 620.160 442.397 635.009 452.038 635.011 452.040 C 635.014 452.036 662.122 434.437 662.122 406.742 C 662.122 379.048 635.014 361.449 635.011 361.444 C 635.009 361.446 619.844 371.292 614.170 383.996 C 616.182 383.420 618.332 383.115 620.556 383.115 C 633.633 383.115 644.183 393.665 644.183 406.742 C 644.183 419.820 633.633 430.369 620.556 430.369 Z"/>
</g>
<g id="specs_2">
<path fill="#ff00ff" fill-rule="evenodd" stroke="none" d="M 98.902 539.756 C 98.928 539.756 364.903 539.756 364.930 539.756 C 364.930 539.730 364.930 273.755 364.930 273.728 C 364.903 273.728 98.928 273.728 98.902 273.728 C 98.902 273.755 98.902 539.730 98.902 539.756 Z"/>
<path fill="#ff0000" fill-rule="evenodd" stroke="none" d="M 683.718 406.742 C 683.721 406.741 714.772 395.652 714.775 395.651 C 714.774 395.652 704.456 406.741 704.455 406.742 C 704.456 406.743 714.774 417.833 714.775 417.834 C 714.772 417.833 683.721 406.743 683.718 406.742 Z"/>
<path fill="#00ffff" fill-rule="evenodd" stroke="none" d="M 233.263 199.506 C 233.263 199.507 239.789 217.779 239.789 217.781 C 239.789 217.780 233.263 211.709 233.263 211.708 C 233.262 211.709 226.737 217.780 226.736 217.781 C 226.737 217.779 233.262 199.507 233.263 199.506 Z"/>
<path fill="#be0027" fill-rule="evenodd" stroke="none" d="M 22.504 407.651 C 22.507 407.650 43.195 400.143 43.197 400.142 C 43.197 400.143 36.347 407.581 36.346 407.581 C 36.347 407.582 43.271 414.949 43.272 414.950 C 43.270 414.949 22.507 407.652 22.504 407.651 Z"/>
<path fill="#0000ff" fill-rule="evenodd" stroke="none" d="M 690.690 406.847 C 690.688 406.846 669.999 399.339 669.997 399.339 C 669.997 399.339 676.847 406.777 676.848 406.777 C 676.847 406.778 669.923 414.145 669.922 414.146 C 669.924 414.145 690.688 406.848 690.690 406.847 Z"/>
<path fill="#00ffff" fill-rule="evenodd" stroke="none" d="M 233.262 622.619 C 233.263 622.616 244.497 591.161 244.498 591.157 C 244.497 591.158 233.263 601.611 233.262 601.612 C 233.261 601.611 222.027 591.158 222.026 591.157 C 222.027 591.161 233.261 622.616 233.262 622.619 Z"/>
<path fill="#00ff00" fill-rule="evenodd" stroke="none" d="M 634.933 484.188 C 634.935 484.184 647.698 448.447 647.699 448.443 C 647.698 448.444 634.935 460.320 634.933 460.321 C 634.932 460.320 622.169 448.444 622.168 448.443 C 622.169 448.447 634.932 484.184 634.933 484.188 Z"/>
<path fill="#00ff00" fill-rule="evenodd" stroke="none" d="M 634.933 329.297 C 634.935 329.301 647.698 365.037 647.699 365.041 C 647.698 365.040 634.935 353.165 634.933 353.163 C 634.932 353.165 622.169 365.040 622.168 365.041 C 622.169 365.037 634.932 329.301 634.933 329.297 Z"/>
</g>
</g>
</svg>
