<?xml version="1.0" encoding="utf-8"?>
<!-- Generator: Moho 12.5 build 22414 -->
<!DOCTYPE svg PUBLIC "-//W3C//DTD SVG 1.1//EN" "http://www.w3.org/Graphics/SVG/1.1/DTD/svg11.dtd">
<svg version="1.1" id="Frame_0" xmlns="http://www.w3.org/2000/svg" xmlns:xlink="http://www.w3.org/1999/xlink" width="720px" height="720px">
<g id="projection_2">
<g id="projection">
<path fill="#000000" fill-rule="evenodd" stroke="#ffffff" stroke-width="4" stroke-linecap="round" stroke-linejoin="round" d="M 41.446 406.742 C 41.446 433.293 46.801 458.561 56.492 481.527 C 66.184 504.494 80.212 525.160 97.559 542.507 C 114.906 559.854 135.572 573.882 158.538 583.574 C 181.505 593.265 206.773 598.620 233.324 598.620 C 259.874 598.620 287.648 592.207 308.109 583.573 C 328.569 574.940 351.741 559.854 369.088 542.507 C 386.435 525.160 400.463 504.494 410.155 481.527 C 419.846 458.561 425.201 433.293 425.201 406.742 C 425.201 380.192 419.846 354.924 410.155 331.957 C 400.463 308.990 386.435 288.325 369.088 270.978 C 351.741 253.631 325.998 237.460 308.109 229.911 C 290.219 222.362 259.874 214.865 233.323 214.865 C 206.773 214.865 181.505 220.220 158.538 229.911 C 135.572 239.603 114.906 253.631 97.559 270.978 C 80.212 288.325 66.184 308.990 56.492 331.957 C 46.801 354.924 41.446 380.192 41.446 406.742 Z"/>
<path fill="#000000" fill-rule="evenodd" stroke="#ffffff" stroke-width="4" stroke-linecap="round" stroke-linejoin="round" d="M 578.387 406.742 C 578.387 432.895 599.484 453.993 625.637 453.993 C 651.790 453.993 672.888 432.895 672.888 406.742 C 672.888 380.589 651.790 359.492 625.637 359.492 C 599.484 359.492 578.387 380.589 578.387 406.742 Z"/>
<path fill="none" stroke="#ffffff" stroke-width="1" stroke-linecap="butt" stroke-linejoin="round" d="M 625.637 453.993 C 599.484 453.993 578.387 432.895 578.387 406.742 "/>
<path fill="none" stroke="#ffffff" stroke-width="1" stroke-linecap="butt" stroke-linejoin="round" d="M 578.387 406.742 C 578.387 380.589 599.484 359.492 625.637 359.492 "/>
<path fill="none" stroke="#ffffff" stroke-width="1" stroke-linecap="butt" stroke-linejoin="round" d="M 308.109 229.911 C 325.998 237.460 351.741 253.631 369.088 270.978 "/>
<path fill="none" stroke="#ffffff" stroke-width="1" stroke-linecap="butt" stroke-linejoin="round" d="M 369.088 270.978 C 386.435 288.325 400.463 308.990 410.155 331.957 "/>
<path fill="none" stroke="#ffffff" stroke-width="1" stroke-linecap="butt" stroke-linejoin="round" d="M 410.155 331.957 C 419.846 354.924 425.201 380.192 425.201 406.742 "/>
<path fill="none" stroke="#ffffff" stroke-width="1" stroke-linecap="butt" stroke-linejoin="round" d="M 425.201 406.742 C 425.201 433.293 419.846 458.561 410.155 481.527 "/>
<path fill="none" stroke="#ffffff" stroke-width="1" stroke-linecap="butt" stroke-linejoin="round" d="M 410.155 481.527 C 400.463 504.494 386.435 525.160 369.088 542.507 "/>
<path fill="none" stroke="#ffffff" stroke-width="1" stroke-linecap="butt" stroke-linejoin="round" d="M 369.088 542.507 C 351.741 559.854 328.569 574.940 308.109 583.573 "/>
<path fill="#ffffff" fill-rule="evenodd" stroke="#ffffff" stroke-width="4" stroke-linecap="round" stroke-linejoin="round" d="M 308.109 583.573 C 413.951 540.380 519.794 497.186 625.637 453.993 C 599.484 453.993 578.387 432.895 578.387 406.742 C 578.387 380.589 599.484 359.492 625.637 359.492 C 519.794 316.298 413.951 273.105 308.109 229.911 C 325.998 237.460 351.741 253.631 369.088 270.978 C 386.435 288.325 400.463 308.990 410.155 331.957 C 419.846 354.924 425.201 380.192 425.201 406.742 C 425.201 433.293 419.846 458.561 410.155 481.527 C 400.463 504.494 386.435 525.160 369.088 542.507 C 351.741 559.854 328.569 574.940 308.109 583.573 Z"/>
</g>
<g id="specs_2">
<path fill="#ff00ff" fill-rule="evenodd" stroke="none" d="M 98.902 539.756 C 98.928 539.756 364.903 539.756 364.930 539.756 C 364.930 539.730 364.930 273.755 364.930 273.728 C 364.903 273.728 98.928 273.728 98.902 273.728 C 98.902 273.755 98.902 539.730 98.902 539.756 Z"/>
<path fill="#ff0000" fill-rule="evenodd" stroke="none" d="M 683.718 406.742 C 683.721 406.741 714.772 395.652 714.775 395.651 C 714.774 395.652 704.456 406.741 704.455 406.742 C 704.456 406.743 714.774 417.833 714.775 417.834 C 714.772 417.833 683.721 406.743 683.718 406.742 Z"/>
<path fill="#0000ff" fill-rule="evenodd" stroke="none" d="M 233.262 203.789 C 233.263 203.791 239.705 221.828 239.705 221.830 C 239.705 221.830 233.263 215.836 233.262 215.836 C 233.262 215.836 226.820 221.830 226.820 221.830 C 226.820 221.828 233.262 203.791 233.262 203.789 Z"/>
<path fill="#00ff00" fill-rule="evenodd" stroke="none" d="M 6.976 407.651 C 6.978 407.650 27.667 400.143 27.669 400.142 C 27.668 400.143 20.819 407.581 20.818 407.581 C 20.819 407.582 27.743 414.949 27.744 414.950 C 27.742 414.949 6.978 407.652 6.976 407.651 Z"/>
<path fill="#00ff00" fill-rule="evenodd" stroke="none" d="M 707.358 407.651 C 707.356 407.650 686.667 400.143 686.665 400.142 C 686.666 400.143 693.516 407.581 693.516 407.581 C 693.516 407.582 686.591 414.949 686.590 414.950 C 686.592 414.949 707.356 407.652 707.358 407.651 Z"/>
<path fill="#be0027" fill-rule="evenodd" stroke="none" d="M 233.262 621.468 C 233.263 621.465 244.353 590.414 244.354 590.411 C 244.353 590.412 233.263 600.730 233.262 600.732 C 233.261 600.730 222.172 590.412 222.171 590.411 C 222.172 590.414 233.261 621.465 233.262 621.468 Z"/>
<path fill="#0000ff" fill-rule="evenodd" stroke="none" d="M 626.525 347.896 C 626.526 347.898 632.967 365.935 632.968 365.937 C 632.967 365.936 626.526 359.943 626.525 359.942 C 626.525 359.943 620.083 365.936 620.082 365.937 C 620.083 365.935 626.525 347.898 626.525 347.896 Z"/>
<path fill="#be0027" fill-rule="evenodd" stroke="none" d="M 629.219 474.668 C 629.220 474.665 640.309 443.614 640.311 443.611 C 640.309 443.612 629.220 453.930 629.219 453.931 C 629.218 453.930 618.128 443.612 618.127 443.611 C 618.128 443.614 629.218 474.665 629.219 474.668 Z"/>
<path fill="#ff00ff" fill-rule="evenodd" stroke="none" d="M 595.385 437.883 C 595.391 437.883 657.659 437.883 657.666 437.883 C 657.666 437.877 657.666 375.608 657.666 375.602 C 657.659 375.602 595.391 375.602 595.385 375.602 C 595.385 375.608 595.385 437.877 595.385 437.883 Z"/>
</g>
</g>
</svg>
