<?xml version="1.0" encoding="utf-8"?>
<!-- Generator: Moho 13.5.1 build 20210623 -->
<!DOCTYPE svg PUBLIC "-//W3C//DTD SVG 1.1//EN" "http://www.w3.org/Graphics/SVG/1.1/DTD/svg11.dtd">
<svg version="1.1" id="Frame_0" xmlns="http://www.w3.org/2000/svg" xmlns:xlink="http://www.w3.org/1999/xlink" width="720px" height="720px">
<g id="rabbit">
<g id="rabbit">
<path fill="#ffffff" fill-rule="evenodd" stroke="#000000" stroke-width="4" stroke-linecap="round" stroke-linejoin="round" d="M 109.746 307.664 C 110.108 298.277 117.972 290.996 127.359 291.357 C 136.746 291.719 144.027 299.583 143.666 308.970 C 143.304 318.357 135.440 325.638 126.053 325.277 C 116.665 324.915 109.384 317.051 109.746 307.664 M 542.693 365.467 C 547.481 361.532 558.806 368.029 568.440 356.120 C 590.295 329.104 578.298 293.932 569.950 292.992 C 553.473 291.138 533.065 331.669 524.694 335.070 C 512.819 339.894 438.169 332.674 393.696 334.455 C 300.983 338.168 259.121 370.929 230.090 353.316 C 217.486 345.669 192.766 303.703 197.421 289.715 C 201.199 278.364 247.391 247.567 260.975 237.389 C 289.179 216.259 331.006 158.850 322.699 150.914 C 311.342 140.064 254.755 184.298 239.536 196.591 C 218.726 213.400 173.819 290.155 169.040 270.891 C 167.992 266.669 206.185 219.786 214.870 205.873 C 224.089 191.104 267.786 144.125 255.461 131.828 C 241.047 117.447 189.920 175.995 176.879 191.631 C 165.356 205.445 143.576 266.380 136.923 269.192 C 125.986 273.816 91.565 278.756 81.618 285.239 C 69.705 293.003 33.004 325.208 37.889 338.561 C 51.028 374.477 122.701 356.275 135.579 373.343 C 143.342 383.630 130.196 418.217 143.379 435.357 C 152.704 447.480 89.283 459.564 77.304 469.074 C 62.562 480.778 6.561 525.274 19.045 539.362 C 34.091 556.341 78.229 502.458 92.447 495.069 C 116.389 482.625 171.038 478.454 163.457 480.619 C 146.472 485.470 120.002 491.993 110.210 498.132 C 92.350 509.331 27.261 558.193 41.442 573.791 C 56.498 590.351 111.295 531.804 131.017 524.305 C 153.798 515.645 239.230 517.955 246.426 498.774 C 252.591 482.339 314.986 497.160 350.121 493.878 C 374.829 491.569 420.474 478.091 438.279 482.441 C 450.442 485.412 477.518 510.886 489.061 515.736 C 506.091 522.892 559.907 526.232 576.857 533.575 C 588.945 538.811 616.000 561.922 629.465 569.833 C 648.319 580.910 662.059 577.580 662.781 570.746 C 665.212 547.727 593.457 495.364 580.666 498.767 C 565.037 502.924 528.759 476.299 537.270 480.903 C 555.088 490.542 571.765 492.132 582.728 491.274 C 603.488 489.650 634.885 522.022 646.606 532.416 C 660.000 544.294 682.054 557.152 696.449 547.939 C 713.748 536.868 638.115 483.069 623.747 465.553 C 595.817 431.502 565.840 460.706 543.495 415.600 C 535.924 400.317 538.004 369.320 542.693 365.467 Z"/>
</g>
<g id="specs_2">
<path fill="#ff0000" fill-rule="evenodd" stroke="none" d="M 353.566 655.911 C 353.567 655.914 365.304 688.778 365.305 688.781 C 365.304 688.780 353.567 677.860 353.566 677.859 C 353.564 677.860 341.828 688.780 341.826 688.781 C 341.828 688.778 353.564 655.914 353.566 655.911 Z"/>
<path fill="#0000ff" fill-rule="evenodd" stroke="none" d="M 23.933 336.809 C 23.935 336.809 43.025 329.991 43.027 329.990 C 43.026 329.991 36.683 336.809 36.682 336.809 C 36.683 336.810 43.026 343.628 43.027 343.628 C 43.025 343.628 23.935 336.810 23.933 336.809 Z"/>
<path fill="#ffff00" fill-rule="evenodd" stroke="none" d="M 36.838 580.332 C 36.839 580.330 43.562 565.693 43.563 565.692 C 43.563 565.693 43.917 573.084 43.917 573.085 C 43.918 573.085 51.315 573.264 51.316 573.264 C 51.314 573.265 36.840 580.331 36.838 580.332 Z"/>
<path fill="#00ff00" fill-rule="evenodd" stroke="none" d="M 378.145 324.784 C 378.144 324.785 372.195 339.754 372.195 339.755 C 372.195 339.755 377.788 334.908 377.788 334.908 C 377.789 334.908 383.025 340.136 383.025 340.137 C 383.025 340.135 378.146 324.785 378.145 324.784 Z"/>
<path fill="#be0027" fill-rule="evenodd" stroke="none" d="M 556.707 389.241 C 556.704 389.241 532.794 380.701 532.791 380.700 C 532.792 380.701 540.737 389.241 540.738 389.241 C 540.737 389.242 532.792 397.782 532.791 397.783 C 532.794 397.782 556.704 389.242 556.707 389.241 Z"/>
<path fill="#ffff00" fill-rule="evenodd" stroke="none" d="M 666.593 580.332 C 666.592 580.330 659.869 565.693 659.869 565.692 C 659.869 565.693 659.514 573.084 659.514 573.085 C 659.514 573.085 652.117 573.264 652.116 573.264 C 652.117 573.265 666.591 580.331 666.593 580.332 Z"/>
</g>
</g>
</svg>
