<?xml version="1.0" encoding="utf-8"?>
<!-- Generator: Moho 13.5.1 build 20210623 -->
<!DOCTYPE svg PUBLIC "-//W3C//DTD SVG 1.1//EN" "http://www.w3.org/Graphics/SVG/1.1/DTD/svg11.dtd">
<svg version="1.1" id="Frame_0" xmlns="http://www.w3.org/2000/svg" xmlns:xlink="http://www.w3.org/1999/xlink" width="720px" height="720px">
<g id="rabbit">
<g id="rabbit">
<path fill="#ffffff" fill-rule="evenodd" stroke="#000000" stroke-width="4" stroke-linecap="round" stroke-linejoin="round" d="M 114.753 311.350 C 115.090 302.624 122.400 295.856 131.126 296.193 C 139.852 296.529 146.620 303.839 146.284 312.565 C 145.948 321.291 138.637 328.059 129.911 327.723 C 121.185 327.387 114.417 320.076 114.753 311.350 M 517.203 365.082 C 521.654 361.424 532.181 367.463 541.137 356.393 C 561.452 331.280 550.300 298.586 542.541 297.712 C 527.224 295.989 508.253 333.664 500.472 336.826 C 489.434 341.310 420.042 334.599 378.702 336.254 C 292.520 339.706 253.606 370.159 226.620 353.787 C 214.904 346.678 191.925 307.668 196.253 294.666 C 199.765 284.115 242.703 255.487 255.330 246.026 C 281.547 226.384 320.427 173.019 312.706 165.643 C 302.148 155.557 249.547 196.674 235.401 208.101 C 216.057 223.727 174.313 295.075 169.871 277.168 C 168.897 273.243 204.399 229.663 212.472 216.730 C 221.042 203.001 261.661 159.331 250.204 147.901 C 236.805 134.533 189.280 188.956 177.157 203.491 C 166.446 216.332 146.200 272.974 140.016 275.589 C 129.850 279.887 97.853 284.479 88.606 290.506 C 77.533 297.722 43.417 327.659 47.958 340.072 C 60.171 373.457 126.796 356.538 138.767 372.403 C 145.983 381.965 133.763 414.116 146.017 430.048 C 154.686 441.318 95.732 452.550 84.597 461.391 C 70.893 472.270 18.837 513.632 30.442 526.728 C 44.428 542.510 85.457 492.423 98.673 485.554 C 120.928 473.988 171.728 470.110 164.681 472.122 C 148.893 476.632 124.287 482.695 115.185 488.402 C 98.582 498.812 38.079 544.232 51.261 558.731 C 65.256 574.125 116.193 519.702 134.526 512.732 C 155.702 504.681 235.116 506.829 241.805 488.998 C 247.537 473.721 305.536 487.498 338.196 484.447 C 361.164 482.301 403.593 469.772 420.144 473.816 C 431.450 476.578 456.619 500.257 467.349 504.766 C 483.179 511.417 533.204 514.523 548.960 521.348 C 560.197 526.216 585.346 547.699 597.863 555.052 C 615.389 565.349 628.161 562.253 628.832 555.901 C 631.092 534.503 564.391 485.829 552.502 488.992 C 537.973 492.856 504.250 468.107 512.162 472.387 C 528.725 481.347 544.227 482.824 554.418 482.027 C 573.715 480.517 602.901 510.609 613.796 520.271 C 626.247 531.312 646.748 543.264 660.129 534.701 C 676.209 524.409 605.903 474.400 592.548 458.118 C 566.585 426.466 538.720 453.612 517.949 411.683 C 510.911 397.477 512.844 368.664 517.203 365.082 Z"/>
</g>
<g id="specs_2">
<path fill="#ff0000" fill-rule="evenodd" stroke="none" d="M 680.018 386.547 C 680.021 386.546 710.570 375.636 710.573 375.635 C 710.572 375.636 700.420 386.546 700.419 386.547 C 700.420 386.548 710.572 397.458 710.573 397.459 C 710.570 397.458 680.021 386.548 680.018 386.547 Z"/>
<path fill="#0000ff" fill-rule="evenodd" stroke="none" d="M 34.985 338.443 C 34.987 338.442 52.732 332.105 52.734 332.104 C 52.733 332.105 46.837 338.442 46.836 338.443 C 46.837 338.444 52.733 344.781 52.734 344.782 C 52.732 344.781 34.987 338.444 34.985 338.443 Z"/>
<path fill="#ffff00" fill-rule="evenodd" stroke="none" d="M 46.981 564.811 C 46.982 564.810 53.231 551.204 53.232 551.203 C 53.232 551.203 53.561 558.074 53.561 558.075 C 53.562 558.075 60.438 558.242 60.439 558.242 C 60.437 558.242 46.983 564.811 46.981 564.811 Z"/>
<path fill="#00ff00" fill-rule="evenodd" stroke="none" d="M 364.246 327.264 C 364.246 327.266 358.715 341.180 358.715 341.181 C 358.715 341.181 363.914 336.676 363.914 336.675 C 363.915 336.676 368.782 341.536 368.782 341.536 C 368.782 341.535 364.247 327.266 364.246 327.264 Z"/>
<path fill="#be0027" fill-rule="evenodd" stroke="none" d="M 530.230 387.182 C 530.228 387.181 508.001 379.243 507.999 379.242 C 508.000 379.243 515.385 387.181 515.386 387.182 C 515.385 387.182 508.000 395.120 507.999 395.121 C 508.001 395.120 530.228 387.182 530.230 387.182 Z"/>
<path fill="#ffff00" fill-rule="evenodd" stroke="none" d="M 632.375 564.811 C 632.375 564.810 626.125 551.204 626.125 551.203 C 626.125 551.203 625.795 558.074 625.795 558.075 C 625.795 558.075 618.919 558.242 618.918 558.242 C 618.919 558.242 632.374 564.811 632.375 564.811 Z"/>
</g>
</g>
</svg>
