<?xml version="1.0" encoding="utf-8"?>
<!-- Generator: Moho 13.5 build 20210422 -->
<!DOCTYPE svg PUBLIC "-//W3C//DTD SVG 1.1//EN" "http://www.w3.org/Graphics/SVG/1.1/DTD/svg11.dtd">
<svg version="1.1" id="Frame_0" xmlns="http://www.w3.org/2000/svg" xmlns:xlink="http://www.w3.org/1999/xlink" width="720px" height="720px">
<g id="rain">
<g id="rain">
<path fill="#ffffff" fill-rule="evenodd" stroke="#000000" stroke-width="4" stroke-linecap="round" stroke-linejoin="round" d="M 223.726 605.452 C 248.263 548.379 254.152 505.545 254.155 505.535 C 254.159 505.545 258.957 548.279 284.585 605.452 C 308.994 659.903 284.730 690.897 254.155 690.762 C 226.877 690.642 199.409 662.012 223.726 605.452 M 435.414 605.452 C 459.951 548.379 465.840 505.545 465.843 505.535 C 465.846 505.545 470.645 548.279 496.273 605.452 C 520.682 659.904 496.417 690.897 465.843 690.762 C 438.565 690.642 411.097 662.012 435.414 605.452 M 541.258 473.147 C 565.795 416.074 571.684 373.240 571.687 373.230 C 571.691 373.240 576.489 415.974 602.117 473.147 C 626.526 527.598 602.262 558.592 571.687 558.457 C 544.409 558.337 516.941 529.707 541.258 473.147 M 329.570 473.147 C 354.107 416.074 359.997 373.240 360.000 373.230 C 360.003 373.240 364.801 415.974 390.429 473.147 C 414.838 527.598 390.574 558.592 360.000 558.457 C 332.721 558.337 305.253 529.707 329.570 473.147 M 223.726 367.303 C 248.263 310.230 254.153 267.397 254.156 267.387 C 254.159 267.397 258.957 310.130 284.586 367.303 C 308.994 421.755 284.730 452.748 254.156 452.614 C 226.877 452.494 199.410 423.863 223.726 367.303 M 117.882 473.147 C 142.419 416.074 148.309 373.240 148.312 373.230 C 148.315 373.240 153.114 415.974 178.742 473.147 C 203.151 527.598 178.886 558.592 148.312 558.457 C 121.034 558.337 93.566 529.707 117.882 473.147 M 223.726 129.154 C 248.263 72.082 254.153 29.248 254.156 29.238 C 254.159 29.248 258.957 71.982 284.586 129.154 C 308.994 183.606 284.730 214.599 254.156 214.465 C 226.877 214.345 199.410 185.714 223.726 129.154 M 117.882 234.998 C 142.419 177.925 148.309 135.092 148.312 135.082 C 148.315 135.092 153.114 177.825 178.742 234.998 C 203.151 289.450 178.886 320.443 148.312 320.308 C 121.034 320.189 93.566 291.558 117.882 234.998 M 541.258 234.998 C 565.795 177.926 571.685 135.092 571.688 135.082 C 571.691 135.092 576.489 177.826 602.118 234.998 C 626.526 289.450 602.262 320.443 571.688 320.309 C 544.409 320.189 516.942 291.558 541.258 234.998 M 329.571 234.998 C 354.107 177.926 359.997 135.092 360.000 135.082 C 360.003 135.092 364.802 177.826 390.430 234.998 C 414.839 289.450 390.574 320.443 360.000 320.309 C 332.722 320.189 305.254 291.558 329.571 234.998 M 435.414 367.303 C 459.951 310.230 465.841 267.397 465.844 267.387 C 465.847 267.397 470.646 310.130 496.274 367.303 C 520.682 421.755 496.418 452.748 465.844 452.614 C 438.565 452.494 411.098 423.863 435.414 367.303 M 435.414 129.154 C 459.951 72.082 465.841 29.248 465.844 29.238 C 465.847 29.248 470.646 71.982 496.274 129.154 C 520.682 183.606 496.418 214.599 465.844 214.465 C 438.566 214.345 411.098 185.714 435.414 129.154 Z"/>
</g>
<g id="specs_2">
<path fill="#ff0000" fill-rule="evenodd" stroke="none" d="M 360.000 43.338 C 360.001 43.334 372.416 8.571 372.417 8.568 C 372.416 8.569 360.001 20.120 360.000 20.122 C 359.999 20.120 347.584 8.569 347.583 8.568 C 347.584 8.571 359.999 43.334 360.000 43.338 Z"/>
<path fill="#00ff00" fill-rule="evenodd" stroke="none" d="M 69.758 360.987 C 69.760 360.986 86.907 354.764 86.908 354.764 C 86.908 354.764 81.231 360.928 81.230 360.929 C 81.231 360.930 86.970 367.035 86.970 367.036 C 86.969 367.036 69.760 360.988 69.758 360.987 Z"/>
<path fill="#00ff00" fill-rule="evenodd" stroke="none" d="M 650.242 360.987 C 650.240 360.986 633.093 354.764 633.092 354.764 C 633.092 354.764 638.769 360.928 638.770 360.929 C 638.769 360.930 633.030 367.035 633.030 367.036 C 633.031 367.036 650.240 360.988 650.242 360.987 Z"/>
<path fill="#be0027" fill-rule="evenodd" stroke="none" d="M 465.182 231.273 C 465.183 231.269 477.598 196.506 477.599 196.503 C 477.598 196.504 465.183 208.055 465.182 208.057 C 465.180 208.055 452.765 196.504 452.764 196.503 C 452.765 196.506 465.180 231.269 465.182 231.273 Z"/>
</g>
</g>
</svg>
