<?xml version="1.0" encoding="utf-8"?>
<!-- Generator: Moho 13.5 build 20210422 -->
<!DOCTYPE svg PUBLIC "-//W3C//DTD SVG 1.1//EN" "http://www.w3.org/Graphics/SVG/1.1/DTD/svg11.dtd">
<svg version="1.1" id="Frame_0" xmlns="http://www.w3.org/2000/svg" xmlns:xlink="http://www.w3.org/1999/xlink" width="720px" height="720px">
<g id="rain_2">
<g id="rain">
<path id="S1" fill="#ffffff" fill-rule="evenodd" stroke="#000000" stroke-width="4" stroke-linecap="round" stroke-linejoin="round" d="M 329.532 605.757 C 354.100 548.614 359.996 505.727 359.999 505.717 C 360.002 505.727 364.807 548.514 390.467 605.757 C 414.906 660.277 390.611 691.309 359.999 691.174 C 332.687 691.054 305.185 662.388 329.532 605.757 M 329.532 367.312 C 354.100 310.168 359.997 267.281 360.000 267.271 C 360.003 267.281 364.807 310.068 390.468 367.312 C 414.907 421.832 390.612 452.864 360.000 452.729 C 332.687 452.609 305.186 423.942 329.532 367.312 M 329.532 128.866 C 354.100 71.723 359.997 28.836 360.000 28.826 C 360.003 28.836 364.807 71.623 390.468 128.866 C 414.907 183.386 390.612 214.418 360.000 214.283 C 332.687 214.163 305.185 185.497 329.532 128.866 Z"/>
<path id="S1_2" fill="#ffffff" fill-rule="evenodd" stroke="#000000" stroke-width="4" stroke-linecap="round" stroke-linejoin="round" d="M 196.245 515.486 C 230.918 463.846 244.614 422.779 244.619 422.769 C 244.620 422.780 241.461 465.720 256.138 526.711 C 270.116 584.799 240.521 610.825 210.458 605.054 C 183.635 599.905 161.884 566.663 196.245 515.486 M 240.167 281.121 C 274.840 229.481 288.536 188.413 288.540 188.404 C 288.542 188.415 285.383 231.354 300.060 292.345 C 314.038 350.433 284.443 376.459 254.380 370.688 C 227.556 365.539 205.805 332.298 240.167 281.121 Z"/>
<path id="S1_2_2" fill="#ffffff" fill-rule="evenodd" stroke="#000000" stroke-width="4" stroke-linecap="round" stroke-linejoin="round" d="M 523.755 515.486 C 489.082 463.846 475.386 422.779 475.381 422.769 C 475.380 422.780 478.539 465.720 463.862 526.711 C 449.884 584.799 479.479 610.825 509.542 605.054 C 536.365 599.905 558.116 566.663 523.755 515.486 M 479.833 281.121 C 445.160 229.480 431.464 188.413 431.460 188.404 C 431.458 188.414 434.618 231.354 419.941 292.345 C 405.962 350.433 435.557 376.459 465.621 370.688 C 492.444 365.539 514.195 332.297 479.833 281.121 Z"/>
</g>
<g id="specs_2">
<path fill="#ff0000" fill-rule="evenodd" stroke="none" d="M 360.000 38.416 C 360.001 38.413 372.432 3.606 372.433 3.603 C 372.432 3.604 360.001 15.170 360.000 15.171 C 359.999 15.170 347.568 3.604 347.567 3.603 C 347.568 3.606 359.999 38.413 360.000 38.416 Z"/>
<path fill="#00ff00" fill-rule="evenodd" stroke="none" d="M 183.122 394.937 C 183.124 394.936 199.408 389.027 199.409 389.026 C 199.409 389.027 194.017 394.881 194.017 394.882 C 194.017 394.883 199.468 400.681 199.468 400.682 C 199.467 400.681 183.124 394.938 183.122 394.937 Z"/>
<path fill="#00ff00" fill-rule="evenodd" stroke="none" d="M 536.878 394.937 C 536.877 394.936 520.592 389.027 520.591 389.026 C 520.591 389.027 525.983 394.881 525.983 394.882 C 525.983 394.883 520.532 400.681 520.532 400.682 C 520.534 400.681 536.877 394.938 536.878 394.937 Z"/>
<path fill="#be0027" fill-rule="evenodd" stroke="none" d="M 360.000 713.836 C 360.001 713.832 372.432 679.026 372.433 679.023 C 372.432 679.024 360.001 690.590 360.000 690.591 C 359.999 690.590 347.568 679.024 347.567 679.023 C 347.568 679.026 359.999 713.832 360.000 713.836 Z"/>
</g>
</g>
</svg>
