<?xml version="1.0" encoding="utf-8"?>
<!-- Generator: Moho 13.5 build 20210422 -->
<!DOCTYPE svg PUBLIC "-//W3C//DTD SVG 1.1//EN" "http://www.w3.org/Graphics/SVG/1.1/DTD/svg11.dtd">
<svg version="1.1" id="Frame_0" xmlns="http://www.w3.org/2000/svg" xmlns:xlink="http://www.w3.org/1999/xlink" width="720px" height="720px">
<g id="rain_2">
<g id="rain">
<path id="S1" fill="#ffffff" fill-rule="evenodd" stroke="#000000" stroke-width="4" stroke-linecap="round" stroke-linejoin="round" d="M 330.343 608.274 C 354.256 552.651 359.996 510.904 359.999 510.895 C 360.002 510.904 364.679 552.553 389.657 608.274 C 413.446 661.343 389.797 691.550 359.999 691.419 C 333.413 691.302 306.643 663.398 330.343 608.274 M 330.343 376.172 C 354.257 320.548 359.997 278.802 360.000 278.792 C 360.003 278.802 364.680 320.451 389.657 376.172 C 413.446 429.241 389.798 459.447 360.000 459.316 C 333.414 459.199 306.644 431.296 330.343 376.172 M 330.343 144.069 C 354.257 88.446 359.997 46.699 360.000 46.690 C 360.003 46.699 364.680 88.348 389.657 144.069 C 413.446 197.138 389.798 227.345 360.000 227.214 C 333.414 227.097 306.644 199.193 330.343 144.069 Z"/>
<path id="S1_2" fill="#ffffff" fill-rule="evenodd" stroke="#000000" stroke-width="4" stroke-linecap="round" stroke-linejoin="round" d="M 200.602 520.404 C 234.352 470.137 247.684 430.163 247.688 430.154 C 247.689 430.164 244.614 471.961 258.901 531.330 C 272.507 587.873 243.700 613.207 214.436 607.589 C 188.326 602.577 167.154 570.219 200.602 520.404 M 243.355 292.273 C 277.105 242.007 290.437 202.032 290.441 202.023 C 290.442 202.033 287.367 243.831 301.654 303.199 C 315.261 359.742 286.453 385.076 257.189 379.458 C 231.080 374.446 209.907 342.089 243.355 292.273 Z"/>
<path id="S1_2_2" fill="#ffffff" fill-rule="evenodd" stroke="#000000" stroke-width="4" stroke-linecap="round" stroke-linejoin="round" d="M 519.398 520.404 C 485.648 470.137 472.316 430.163 472.312 430.154 C 472.311 430.164 475.386 471.961 461.099 531.330 C 447.493 587.873 476.300 613.207 505.564 607.589 C 531.674 602.577 552.846 570.219 519.398 520.404 M 476.645 292.273 C 442.895 242.007 429.563 202.032 429.559 202.023 C 429.558 202.033 432.633 243.830 418.346 303.199 C 404.740 359.742 433.547 385.075 462.811 379.458 C 488.921 374.446 510.093 342.088 476.645 292.273 Z"/>
</g>
<g id="specs_2">
<path fill="#ff0000" fill-rule="evenodd" stroke="none" d="M 360.000 38.398 C 360.001 38.395 372.101 4.515 372.102 4.511 C 372.101 4.512 360.001 15.771 360.000 15.772 C 359.999 15.771 347.899 4.512 347.898 4.511 C 347.899 4.515 359.999 38.395 360.000 38.398 Z"/>
<path fill="#00ff00" fill-rule="evenodd" stroke="none" d="M 187.827 403.062 C 187.829 403.061 203.680 397.309 203.681 397.308 C 203.681 397.309 198.433 403.008 198.432 403.008 C 198.433 403.009 203.738 408.653 203.739 408.654 C 203.737 408.653 187.829 403.062 187.827 403.062 Z"/>
<path fill="#00ff00" fill-rule="evenodd" stroke="none" d="M 532.173 403.062 C 532.171 403.061 516.320 397.309 516.319 397.308 C 516.319 397.309 521.567 403.008 521.568 403.008 C 521.567 403.009 516.262 408.653 516.261 408.654 C 516.263 408.653 532.171 403.062 532.173 403.062 Z"/>
<path fill="#be0027" fill-rule="evenodd" stroke="none" d="M 360.000 713.477 C 360.001 713.474 372.101 679.594 372.102 679.590 C 372.101 679.591 360.001 690.850 360.000 690.851 C 359.999 690.850 347.899 679.591 347.898 679.590 C 347.899 679.594 359.999 713.474 360.000 713.477 Z"/>
</g>
</g>
</svg>
