<?xml version="1.0" encoding="utf-8"?>
<!-- Generator: Moho 12.5 build 22414 -->
<!DOCTYPE svg PUBLIC "-//W3C//DTD SVG 1.1//EN" "http://www.w3.org/Graphics/SVG/1.1/DTD/svg11.dtd">
<svg version="1.1" id="Frame_0" xmlns="http://www.w3.org/2000/svg" xmlns:xlink="http://www.w3.org/1999/xlink" width="720px" height="720px">
<g id="rainbow_half">
<g id="rainbow_half">
<path fill="#ff00ff" fill-rule="evenodd" stroke="none" d="M 131.759 460.922 C 131.759 461.041 118.129 460.952 112.706 460.952 C 112.706 397.758 136.887 334.564 185.249 286.202 C 281.973 189.478 438.027 189.478 534.751 286.202 C 583.113 334.564 607.294 397.758 607.294 460.954 C 601.324 461.080 594.767 461.087 588.118 461.094 C 588.261 402.956 566.012 344.428 521.309 299.644 C 432.107 210.279 287.974 210.360 198.691 299.644 C 154.049 344.286 131.876 403.922 131.759 460.922 Z"/>
<path fill="none" stroke="#0000ff" stroke-width="1" stroke-linecap="butt" stroke-linejoin="round" d="M 112.706 460.952 C 112.706 397.758 136.887 334.564 185.249 286.202 "/>
<path fill="none" stroke="#0000ff" stroke-width="1" stroke-linecap="butt" stroke-linejoin="round" d="M 185.249 286.202 C 281.973 189.478 438.027 189.478 534.751 286.202 "/>
<path fill="none" stroke="#0000ff" stroke-width="1" stroke-linecap="butt" stroke-linejoin="round" d="M 534.751 286.202 C 583.113 334.564 607.294 397.758 607.294 460.954 "/>
<path fill="#0000ff" fill-rule="evenodd" stroke="none" d="M 607.294 460.954 C 613.452 460.954 619.518 460.954 626.317 460.954 C 626.317 392.897 600.275 324.842 548.193 272.760 C 444.030 168.596 275.971 168.596 171.807 272.760 C 119.725 324.842 93.684 392.897 93.683 460.952 C 99.129 460.952 104.647 460.952 112.706 460.952 C 112.706 397.758 136.887 334.564 185.249 286.202 C 281.973 189.478 438.027 189.478 534.751 286.202 C 583.113 334.564 607.294 397.758 607.294 460.954 Z"/>
<path fill="none" stroke="#00ffff" stroke-width="1" stroke-linecap="butt" stroke-linejoin="round" d="M 93.683 460.952 C 93.684 392.897 119.725 324.842 171.807 272.760 "/>
<path fill="none" stroke="#00ffff" stroke-width="1" stroke-linecap="butt" stroke-linejoin="round" d="M 171.807 272.760 C 275.971 168.596 444.030 168.596 548.193 272.760 "/>
<path fill="none" stroke="#00ffff" stroke-width="1" stroke-linecap="butt" stroke-linejoin="round" d="M 548.193 272.760 C 600.275 324.842 626.317 392.897 626.317 460.954 "/>
<path fill="#00ffff" fill-rule="evenodd" stroke="none" d="M 626.317 460.954 C 633.071 460.954 639.701 460.954 645.339 460.954 C 645.339 388.036 617.438 315.119 561.636 259.317 C 450.032 147.713 269.969 147.714 158.364 259.317 C 102.562 315.119 74.661 388.036 74.661 460.952 C 80.116 460.952 85.649 460.952 93.683 460.952 C 93.684 392.897 119.725 324.842 171.807 272.760 C 275.971 168.596 444.030 168.596 548.193 272.760 C 600.275 324.842 626.317 392.897 626.317 460.954 Z"/>
<path fill="none" stroke="#00ff00" stroke-width="1" stroke-linecap="butt" stroke-linejoin="round" d="M 74.661 460.952 C 74.661 388.036 102.562 315.119 158.364 259.317 "/>
<path fill="none" stroke="#00ff00" stroke-width="1" stroke-linecap="butt" stroke-linejoin="round" d="M 158.364 259.317 C 269.969 147.714 450.032 147.713 561.636 259.317 "/>
<path fill="none" stroke="#00ff00" stroke-width="1" stroke-linecap="butt" stroke-linejoin="round" d="M 561.636 259.317 C 617.438 315.119 645.339 388.036 645.339 460.954 "/>
<path fill="#00ff00" fill-rule="evenodd" stroke="none" d="M 664.362 460.954 C 664.362 383.175 634.600 305.397 575.078 245.875 C 456.034 126.830 263.966 126.831 144.922 245.875 C 85.400 305.397 55.639 383.175 55.638 460.952 C 61.086 460.952 66.621 460.951 74.661 460.952 C 74.661 388.036 102.562 315.119 158.364 259.317 C 269.969 147.714 450.032 147.713 561.636 259.317 C 617.438 315.119 645.339 388.036 645.339 460.954 C 651.497 460.954 657.534 460.954 664.362 460.954 Z"/>
<path fill="none" stroke="#ffff00" stroke-width="1" stroke-linecap="butt" stroke-linejoin="round" d="M 55.638 460.952 C 55.639 383.175 85.400 305.397 144.922 245.875 "/>
<path fill="none" stroke="#ffff00" stroke-width="1" stroke-linecap="butt" stroke-linejoin="round" d="M 144.922 245.875 C 263.966 126.831 456.034 126.830 575.078 245.875 "/>
<path fill="none" stroke="#ffff00" stroke-width="1" stroke-linecap="butt" stroke-linejoin="round" d="M 575.078 245.875 C 634.600 305.397 664.362 383.175 664.362 460.954 "/>
<path fill="#ffff00" fill-rule="evenodd" stroke="none" d="M 683.384 460.954 C 683.384 378.314 651.763 295.675 588.521 232.432 C 462.036 105.947 257.964 105.948 131.479 232.432 C 68.237 295.675 36.616 378.314 36.616 460.952 C 42.041 460.952 47.561 460.952 55.638 460.952 C 55.639 383.175 85.400 305.397 144.922 245.875 C 263.966 126.831 456.034 126.830 575.078 245.875 C 634.600 305.397 664.362 383.175 664.362 460.954 C 670.777 460.954 677.041 460.954 683.384 460.954 Z"/>
<path fill="none" stroke="#ff0000" stroke-width="1" stroke-linecap="butt" stroke-linejoin="round" d="M 36.616 460.952 C 36.616 378.314 68.237 295.675 131.479 232.432 "/>
<path fill="none" stroke="#ff0000" stroke-width="1" stroke-linecap="butt" stroke-linejoin="round" d="M 131.479 232.432 C 257.964 105.948 462.036 105.947 588.521 232.432 "/>
<path fill="none" stroke="#ff0000" stroke-width="1" stroke-linecap="butt" stroke-linejoin="round" d="M 588.521 232.432 C 651.763 295.675 683.384 378.314 683.384 460.954 "/>
<path fill="#ff0000" fill-rule="evenodd" stroke="none" d="M 683.384 460.954 C 689.852 460.954 696.141 460.954 702.407 460.954 C 702.407 373.453 668.926 285.952 601.963 218.990 C 468.038 85.064 251.962 85.065 118.037 218.990 C 51.074 285.952 19.675 373.510 17.593 460.952 C 20.312 460.952 28.469 460.952 36.616 460.952 C 36.616 378.314 68.237 295.675 131.479 232.432 C 257.964 105.948 462.036 105.947 588.521 232.432 C 651.763 295.675 683.384 378.314 683.384 460.954 Z"/>
</g>
<g id="specs_2">
<path fill="#ff00ff" fill-rule="evenodd" stroke="none" d="M 246.172 463.915 C 246.195 463.915 473.805 463.915 473.828 463.915 C 473.828 463.892 473.828 236.282 473.828 236.259 C 473.805 236.259 246.195 236.259 246.172 236.259 C 246.172 236.282 246.172 463.892 246.172 463.915 Z"/>
<path fill="#ff0000" fill-rule="evenodd" stroke="none" d="M 360.000 565.134 C 360.001 565.138 372.432 599.943 372.433 599.947 C 372.432 599.946 360.001 588.380 360.000 588.379 C 359.999 588.380 347.568 599.946 347.567 599.947 C 347.568 599.943 359.999 565.138 360.000 565.134 Z"/>
<path fill="#0000ff" fill-rule="evenodd" stroke="none" d="M 360.000 96.126 C 360.001 96.128 367.221 116.346 367.222 116.348 C 367.221 116.348 360.001 109.630 360.000 109.629 C 359.999 109.630 352.779 116.348 352.778 116.348 C 352.779 116.346 359.999 96.128 360.000 96.126 Z"/>
<path fill="#00ff00" fill-rule="evenodd" stroke="none" d="M 18.397 361.004 C 18.399 361.003 38.581 353.680 38.583 353.679 C 38.582 353.680 31.900 360.935 31.900 360.935 C 31.900 360.936 38.655 368.122 38.656 368.123 C 38.654 368.122 18.399 361.004 18.397 361.004 Z"/>
<path fill="#ffff00" fill-rule="evenodd" stroke="none" d="M 72.885 478.663 C 72.884 478.660 63.669 453.788 63.668 453.786 C 63.669 453.787 72.687 461.982 72.688 461.982 C 72.689 461.982 81.511 453.577 81.512 453.576 C 81.511 453.578 72.886 478.660 72.885 478.663 Z"/>
<path fill="#ffff00" fill-rule="evenodd" stroke="none" d="M 647.204 478.482 C 647.203 478.479 638.488 453.427 638.487 453.425 C 638.488 453.426 647.340 461.800 647.341 461.801 C 647.342 461.800 656.331 453.573 656.332 453.572 C 656.331 453.575 647.204 478.479 647.204 478.482 Z"/>
<path fill="#00ff00" fill-rule="evenodd" stroke="none" d="M 701.603 361.004 C 701.601 361.003 681.419 353.680 681.417 353.679 C 681.418 353.680 688.100 360.935 688.100 360.935 C 688.100 360.936 681.345 368.122 681.344 368.123 C 681.346 368.122 701.601 361.004 701.603 361.004 Z"/>
<path fill="#00ffff" fill-rule="evenodd" stroke="none" d="M 601.361 196.070 C 601.361 196.072 594.193 216.310 594.193 216.312 C 594.193 216.311 592.835 206.542 592.835 206.541 C 592.834 206.541 582.993 207.190 582.992 207.190 C 582.994 207.189 601.359 196.071 601.361 196.070 Z"/>
<path fill="#00ffff" fill-rule="evenodd" stroke="none" d="M 118.750 196.741 C 118.751 196.743 127.252 216.457 127.253 216.459 C 127.253 216.458 127.956 206.621 127.956 206.620 C 127.957 206.620 137.819 206.612 137.820 206.612 C 137.818 206.611 118.752 196.742 118.750 196.741 Z"/>
<path fill="#be0027" fill-rule="evenodd" stroke="none" d="M 360.000 493.464 C 360.002 493.459 375.821 449.164 375.823 449.159 C 375.821 449.161 360.002 463.880 360.000 463.882 C 359.998 463.880 344.179 449.161 344.177 449.159 C 344.179 449.164 359.998 493.459 360.000 493.464 Z"/>
</g>
</g>
</svg>
