<?xml version="1.0" encoding="utf-8"?>
<!-- Generator: Moho 12.5 build 22414 -->
<!DOCTYPE svg PUBLIC "-//W3C//DTD SVG 1.1//EN" "http://www.w3.org/Graphics/SVG/1.1/DTD/svg11.dtd">
<svg version="1.1" id="Frame_0" xmlns="http://www.w3.org/2000/svg" xmlns:xlink="http://www.w3.org/1999/xlink" width="720px" height="720px">
<g id="rain">
<g id="rain">
<path fill="#ffffff" fill-rule="evenodd" stroke="#000000" stroke-width="4" stroke-linecap="round" stroke-linejoin="round" d="M 177.000 595.520 C 195.546 552.383 199.997 520.008 199.999 520.000 C 200.002 520.008 203.628 552.307 222.999 595.520 C 241.448 636.676 223.108 660.102 199.999 660.000 C 179.381 659.910 158.621 638.270 177.000 595.520 M 497.000 595.520 C 515.546 552.383 519.997 520.008 520.000 520.000 C 520.002 520.008 523.629 552.307 542.999 595.520 C 561.448 636.676 543.108 660.102 520.000 660.000 C 499.382 659.910 478.621 638.270 497.000 595.520 M 337.000 595.520 C 355.546 552.383 359.997 520.008 359.999 520.000 C 360.002 520.008 363.629 552.307 382.999 595.520 C 401.448 636.676 383.108 660.102 359.999 660.000 C 339.381 659.909 318.621 638.270 337.000 595.520 M 417.000 495.520 C 435.546 452.383 439.997 420.008 440.000 420.000 C 440.002 420.008 443.629 452.307 462.999 495.520 C 481.448 536.676 463.108 560.102 440.000 560.000 C 419.382 559.909 398.621 538.270 417.000 495.520 M 257.000 495.520 C 275.546 452.383 279.997 420.008 280.000 420.000 C 280.002 420.008 283.629 452.307 302.999 495.520 C 321.448 536.676 303.108 560.102 280.000 560.000 C 259.382 559.909 238.621 538.270 257.000 495.520 M 177.000 415.520 C 195.546 372.383 199.998 340.008 200.000 340.000 C 200.002 340.008 203.629 372.307 223.000 415.520 C 241.448 456.676 223.109 480.102 200.000 480.000 C 179.382 479.909 158.621 458.269 177.000 415.520 M 97.000 495.520 C 115.546 452.383 119.998 420.008 120.000 420.000 C 120.002 420.008 123.629 452.307 143.000 495.520 C 161.448 536.676 143.109 560.102 120.000 560.000 C 99.382 559.909 78.621 538.270 97.000 495.520 M 97.000 135.520 C 115.546 92.383 119.998 60.008 120.000 60.000 C 120.002 60.008 123.629 92.307 143.000 135.520 C 161.448 176.676 143.109 200.102 120.000 200.000 C 99.382 199.909 78.621 178.269 97.000 135.520 M 177.000 235.520 C 195.546 192.383 199.998 160.008 200.000 160.000 C 200.002 160.008 203.629 192.307 223.000 235.520 C 241.448 276.676 223.109 300.102 200.000 300.000 C 179.382 299.909 158.621 278.269 177.000 235.520 M 97.000 315.520 C 115.546 272.383 119.998 240.008 120.000 240.000 C 120.002 240.008 123.629 272.307 143.000 315.520 C 161.448 356.676 143.109 380.102 120.000 380.000 C 99.382 379.910 78.621 358.270 97.000 315.520 M 497.000 415.520 C 515.546 372.383 519.998 340.008 520.000 340.000 C 520.002 340.008 523.629 372.307 543.000 415.520 C 561.448 456.676 543.109 480.102 520.000 480.000 C 499.382 479.909 478.621 458.269 497.000 415.520 M 577.000 495.520 C 595.546 452.383 599.997 420.008 600.000 420.000 C 600.002 420.008 603.629 452.307 622.999 495.520 C 641.448 536.676 623.109 560.102 600.000 560.000 C 579.382 559.909 558.621 538.270 577.000 495.520 M 577.000 135.520 C 595.546 92.383 599.997 60.008 600.000 60.000 C 600.002 60.008 603.629 92.307 622.999 135.520 C 641.448 176.676 623.109 200.102 600.000 200.000 C 579.382 199.909 558.621 178.269 577.000 135.520 M 497.000 235.520 C 515.546 192.383 519.998 160.008 520.000 160.000 C 520.002 160.008 523.629 192.307 543.000 235.520 C 561.448 276.676 543.109 300.102 520.000 300.000 C 499.382 299.909 478.621 278.269 497.000 235.520 M 577.000 315.520 C 595.546 272.383 599.997 240.008 600.000 240.000 C 600.002 240.008 603.629 272.307 622.999 315.520 C 641.448 356.676 623.109 380.102 600.000 380.000 C 579.382 379.909 558.621 358.270 577.000 315.520 M 417.000 315.520 C 435.546 272.383 439.998 240.008 440.000 240.000 C 440.002 240.008 443.629 272.307 463.000 315.520 C 481.449 356.676 463.109 380.102 440.000 380.000 C 419.382 379.910 398.621 358.270 417.000 315.520 M 257.000 315.520 C 275.546 272.383 279.998 240.008 280.000 240.000 C 280.002 240.008 283.629 272.307 303.000 315.520 C 321.449 356.676 303.109 380.102 280.000 380.000 C 259.382 379.910 238.621 358.270 257.000 315.520 M 337.000 415.520 C 355.546 372.383 359.997 340.008 360.000 340.000 C 360.002 340.008 363.629 372.307 383.000 415.520 C 401.449 456.676 383.109 480.102 360.000 480.000 C 339.382 479.909 318.621 458.269 337.000 415.520 M 417.000 135.520 C 435.546 92.383 439.998 60.008 440.000 60.000 C 440.002 60.008 443.629 92.307 463.000 135.520 C 481.449 176.676 463.109 200.102 440.000 200.000 C 419.382 199.909 398.621 178.269 417.000 135.520 M 257.000 135.520 C 275.546 92.383 279.998 60.008 280.000 60.000 C 280.002 60.008 283.629 92.307 303.000 135.520 C 321.449 176.676 303.109 200.102 280.000 200.000 C 259.382 199.909 238.621 178.269 257.000 135.520 M 337.000 235.520 C 355.546 192.383 359.997 160.008 360.000 160.000 C 360.002 160.008 363.629 192.307 383.000 235.520 C 401.449 276.676 383.109 300.102 360.000 300.000 C 339.382 299.909 318.621 278.269 337.000 235.520 Z"/>
</g>
<g id="specs_2">
<path fill="#ff0000" fill-rule="evenodd" stroke="none" d="M 360.000 61.719 C 360.001 61.716 372.416 26.953 372.417 26.949 C 372.416 26.950 360.001 38.502 360.000 38.503 C 359.999 38.502 347.584 26.950 347.583 26.949 C 347.584 26.953 359.999 61.716 360.000 61.719 Z"/>
<path fill="#0000ff" fill-rule="evenodd" stroke="none" d="M 199.674 525.097 C 199.675 525.099 206.886 545.292 206.887 545.294 C 206.886 545.293 199.675 538.583 199.674 538.583 C 199.673 538.583 192.462 545.293 192.461 545.294 C 192.462 545.292 199.673 525.099 199.674 525.097 Z"/>
<path fill="#00ff00" fill-rule="evenodd" stroke="none" d="M 18.822 361.002 C 18.824 361.002 38.981 353.687 38.983 353.687 C 38.982 353.687 32.308 360.933 32.308 360.934 C 32.308 360.935 39.055 368.112 39.055 368.113 C 39.053 368.112 18.824 361.003 18.822 361.002 Z"/>
<path fill="#00ff00" fill-rule="evenodd" stroke="none" d="M 701.178 361.002 C 701.176 361.002 681.019 353.687 681.017 353.687 C 681.018 353.687 687.692 360.933 687.692 360.934 C 687.692 360.935 680.945 368.112 680.945 368.113 C 680.947 368.112 701.176 361.003 701.178 361.002 Z"/>
<path fill="#be0027" fill-rule="evenodd" stroke="none" d="M 520.326 186.632 C 520.327 186.628 532.742 151.866 532.744 151.862 C 532.742 151.863 520.327 163.415 520.326 163.416 C 520.325 163.415 507.910 151.863 507.909 151.862 C 507.910 151.866 520.325 186.628 520.326 186.632 Z"/>
</g>
</g>
</svg>
