<?xml version="1.0" encoding="utf-8"?>
<!-- Generator: Moho 13.5 build 20210422 -->
<!DOCTYPE svg PUBLIC "-//W3C//DTD SVG 1.1//EN" "http://www.w3.org/Graphics/SVG/1.1/DTD/svg11.dtd">
<svg version="1.1" id="Frame_0" xmlns="http://www.w3.org/2000/svg" xmlns:xlink="http://www.w3.org/1999/xlink" width="720px" height="720px">
<g id="rain">
<g id="rain">
<path fill="#ffffff" fill-rule="evenodd" stroke="#000000" stroke-width="4" stroke-linecap="round" stroke-linejoin="round" d="M 223.556 605.757 C 248.123 548.614 254.020 505.727 254.023 505.717 C 254.027 505.727 258.831 548.514 284.491 605.757 C 308.930 660.277 284.636 691.309 254.023 691.174 C 226.711 691.054 199.209 662.388 223.556 605.757 M 435.508 605.757 C 460.075 548.614 465.972 505.727 465.975 505.717 C 465.978 505.727 470.783 548.514 496.443 605.757 C 520.882 660.277 496.587 691.309 465.975 691.174 C 438.663 691.054 411.161 662.388 435.508 605.757 M 541.484 473.288 C 566.051 416.144 571.948 373.257 571.951 373.247 C 571.954 373.257 576.759 416.044 602.419 473.288 C 626.858 527.807 602.563 558.839 571.951 558.704 C 544.639 558.584 517.137 529.918 541.484 473.288 M 329.532 473.288 C 354.100 416.144 359.997 373.257 360.000 373.247 C 360.003 373.257 364.807 416.044 390.467 473.288 C 414.906 527.807 390.612 558.839 360.000 558.704 C 332.687 558.584 305.185 529.918 329.532 473.288 M 223.557 367.312 C 248.124 310.168 254.021 267.281 254.024 267.271 C 254.027 267.281 258.832 310.068 284.492 367.312 C 308.931 421.832 284.636 452.864 254.024 452.729 C 226.712 452.609 199.210 423.942 223.557 367.312 M 117.581 473.288 C 142.148 416.144 148.045 373.257 148.048 373.247 C 148.051 373.257 152.856 416.044 178.516 473.288 C 202.955 527.807 178.661 558.839 148.048 558.704 C 120.736 558.584 93.234 529.918 117.581 473.288 M 223.557 128.866 C 248.124 71.723 254.021 28.836 254.024 28.826 C 254.027 28.836 258.832 71.623 284.492 128.866 C 308.931 183.386 284.636 214.418 254.024 214.283 C 226.712 214.163 199.210 185.497 223.557 128.866 M 117.581 234.842 C 142.148 177.699 148.045 134.811 148.048 134.801 C 148.051 134.811 152.856 177.598 178.516 234.842 C 202.955 289.362 178.661 320.394 148.048 320.259 C 120.736 320.139 93.234 291.473 117.581 234.842 M 541.484 234.843 C 566.051 177.699 571.949 134.812 571.952 134.802 C 571.955 134.812 576.759 177.599 602.419 234.843 C 626.858 289.362 602.564 320.394 571.952 320.259 C 544.639 320.139 517.137 291.473 541.484 234.843 M 329.533 234.843 C 354.100 177.699 359.997 134.812 360.000 134.802 C 360.003 134.812 364.808 177.599 390.468 234.843 C 414.907 289.362 390.612 320.394 360.000 320.259 C 332.687 320.139 305.186 291.473 329.533 234.843 M 435.508 367.312 C 460.076 310.168 465.973 267.281 465.976 267.271 C 465.979 267.281 470.783 310.068 496.443 367.312 C 520.883 421.832 496.588 452.864 465.976 452.729 C 438.663 452.609 411.161 423.942 435.508 367.312 M 435.508 128.866 C 460.076 71.723 465.973 28.836 465.976 28.826 C 465.979 28.836 470.783 71.623 496.443 128.866 C 520.883 183.386 496.588 214.418 465.976 214.283 C 438.663 214.163 411.161 185.497 435.508 128.866 Z"/>
</g>
<g id="specs_2">
<path fill="#ff0000" fill-rule="evenodd" stroke="none" d="M 360.000 42.943 C 360.001 42.940 372.432 8.133 372.433 8.130 C 372.432 8.131 360.001 19.697 360.000 19.698 C 359.999 19.697 347.568 8.131 347.567 8.130 C 347.568 8.133 359.999 42.940 360.000 42.943 Z"/>
<path fill="#00ff00" fill-rule="evenodd" stroke="none" d="M 69.396 360.988 C 69.398 360.988 86.566 354.758 86.568 354.757 C 86.568 354.758 80.883 360.930 80.883 360.930 C 80.883 360.931 86.630 367.044 86.630 367.045 C 86.628 367.044 69.398 360.989 69.396 360.988 Z"/>
<path fill="#00ff00" fill-rule="evenodd" stroke="none" d="M 650.604 360.988 C 650.602 360.988 633.434 354.758 633.432 354.757 C 633.432 354.758 639.117 360.930 639.117 360.930 C 639.117 360.931 633.370 367.044 633.370 367.045 C 633.372 367.044 650.602 360.989 650.604 360.988 Z"/>
<path fill="#be0027" fill-rule="evenodd" stroke="none" d="M 360.000 606.590 C 360.001 606.593 372.432 641.400 372.433 641.403 C 372.432 641.402 360.001 629.836 360.000 629.835 C 359.999 629.836 347.568 641.402 347.567 641.403 C 347.568 641.400 359.999 606.593 360.000 606.590 Z"/>
</g>
</g>
</svg>
