<?xml version="1.0" encoding="utf-8"?>
<!-- Generator: Moho 12.5 build 22414 -->
<!DOCTYPE svg PUBLIC "-//W3C//DTD SVG 1.1//EN" "http://www.w3.org/Graphics/SVG/1.1/DTD/svg11.dtd">
<svg version="1.1" id="Frame_0" xmlns="http://www.w3.org/2000/svg" xmlns:xlink="http://www.w3.org/1999/xlink" width="720px" height="720px">
<g id="ring">
<g id="ring">
<path fill="#ffffff" fill-rule="evenodd" stroke="#000000" stroke-width="4" stroke-linejoin="round" d="M 81.548 353.070 C 81.548 198.949 205.879 74.618 360.000 74.618 C 514.121 74.618 638.452 198.949 638.452 353.070 C 638.452 507.191 514.121 631.522 360.000 631.522 C 205.879 631.522 81.548 507.191 81.548 353.070 M 39.125 353.070 C 39.125 175.468 182.398 32.195 360.000 32.195 C 537.602 32.195 680.875 175.468 680.875 353.070 C 680.875 530.672 537.602 673.945 360.000 673.945 C 182.398 673.945 39.125 530.672 39.125 353.070 Z"/>
</g>
<g id="specs_empty_(almost)">
<path fill="#ff00ff" fill-rule="evenodd" stroke="none" d="M 141.733 570.036 C 141.777 570.036 578.864 570.036 578.908 570.036 C 578.908 569.992 578.908 132.906 578.908 132.862 C 578.864 132.862 141.777 132.862 141.733 132.862 C 141.733 132.906 141.733 569.992 141.733 570.036 Z"/>
<path fill="#ff0000" fill-rule="evenodd" stroke="none" d="M 360.321 677.466 C 360.322 677.469 372.501 711.572 372.503 711.576 C 372.501 711.575 360.322 700.242 360.321 700.241 C 360.319 700.242 348.140 711.575 348.139 711.576 C 348.140 711.572 360.319 677.469 360.321 677.466 Z"/>
<path fill="#0000ff" fill-rule="evenodd" stroke="none" d="M 360.321 16.132 C 360.321 16.134 367.396 35.944 367.397 35.946 C 367.396 35.945 360.321 29.363 360.321 29.363 C 360.320 29.363 353.245 35.945 353.245 35.946 C 353.245 35.944 360.320 16.134 360.321 16.132 Z"/>
<path fill="#00ff00" fill-rule="evenodd" stroke="none" d="M 26.130 352.433 C 26.132 352.432 45.906 345.257 45.908 345.257 C 45.907 345.257 39.360 352.365 39.360 352.366 C 39.360 352.367 45.978 359.408 45.979 359.409 C 45.977 359.408 26.132 352.434 26.130 352.433 Z"/>
<path fill="#ffff00" fill-rule="evenodd" stroke="none" d="M 123.566 590.032 C 123.567 590.030 132.346 570.915 132.347 570.913 C 132.347 570.914 132.810 580.566 132.810 580.567 C 132.811 580.567 142.471 580.802 142.472 580.802 C 142.470 580.803 123.568 590.031 123.566 590.032 Z"/>
<path fill="#ffff00" fill-rule="evenodd" stroke="none" d="M 598.374 589.798 C 598.373 589.796 589.212 570.861 589.211 570.859 C 589.211 570.860 588.942 580.519 588.942 580.520 C 588.941 580.520 579.287 580.948 579.286 580.948 C 579.288 580.949 598.372 589.797 598.374 589.798 Z"/>
<path fill="#00ff00" fill-rule="evenodd" stroke="none" d="M 695.536 352.433 C 695.534 352.432 675.761 345.257 675.759 345.257 C 675.759 345.257 682.306 352.365 682.307 352.366 C 682.306 352.367 675.688 359.408 675.687 359.409 C 675.689 359.408 695.534 352.434 695.536 352.433 Z"/>
<path fill="#00ffff" fill-rule="evenodd" stroke="none" d="M 596.807 114.058 C 596.806 114.060 589.784 133.889 589.783 133.891 C 589.783 133.890 588.453 124.318 588.453 124.317 C 588.452 124.317 578.810 124.953 578.809 124.953 C 578.811 124.952 596.805 114.059 596.807 114.058 Z"/>
<path fill="#00ffff" fill-rule="evenodd" stroke="none" d="M 123.944 114.715 C 123.945 114.717 132.273 134.033 132.274 134.035 C 132.274 134.034 132.963 124.395 132.963 124.394 C 132.964 124.394 142.627 124.387 142.628 124.387 C 142.626 124.386 123.946 114.716 123.944 114.715 Z"/>
<path fill="#be0027" fill-rule="evenodd" stroke="none" d="M 360.833 696.819 C 360.834 696.816 373.014 662.713 373.015 662.709 C 373.014 662.710 360.834 674.043 360.833 674.044 C 360.832 674.043 348.653 662.710 348.651 662.709 C 348.653 662.713 360.832 696.816 360.833 696.819 Z"/>
</g>
</g>
</svg>
