<?xml version="1.0" encoding="utf-8"?>
<!-- Generator: Moho 12.5 build 22414 -->
<!DOCTYPE svg PUBLIC "-//W3C//DTD SVG 1.1//EN" "http://www.w3.org/Graphics/SVG/1.1/DTD/svg11.dtd">
<svg version="1.1" id="Frame_0" xmlns="http://www.w3.org/2000/svg" xmlns:xlink="http://www.w3.org/1999/xlink" width="720px" height="720px">
<g id="ripples">
<g id="ripples">
<path fill="#ffffff" fill-rule="evenodd" stroke="#000000" stroke-width="4" stroke-linecap="round" stroke-linejoin="round" d="M 37.353 360.000 C 37.353 403.232 181.417 438.108 360.000 438.108 C 538.583 438.108 682.647 403.232 682.647 360.000 C 682.647 316.768 538.583 281.892 360.000 281.892 C 181.417 281.892 37.353 316.768 37.353 360.000 M 91.127 360.000 C 91.127 396.027 211.180 425.090 360.000 425.090 C 508.820 425.090 628.873 396.027 628.873 360.000 C 628.873 323.973 508.820 294.910 360.000 294.910 C 211.180 294.910 91.127 323.973 91.127 360.000 M 144.902 360.000 C 144.902 388.822 240.945 412.072 360.000 412.072 C 479.055 412.072 575.098 388.822 575.098 360.000 C 575.098 331.178 479.055 307.928 360.000 307.928 C 240.945 307.928 144.902 331.178 144.902 360.000 M 198.676 360.000 C 198.676 381.616 270.708 399.054 360.000 399.054 C 449.292 399.054 521.324 381.616 521.324 360.000 C 521.324 338.384 449.292 320.946 360.000 320.946 C 270.708 320.946 198.676 338.384 198.676 360.000 M 252.451 360.000 C 252.451 374.411 300.472 386.036 360.000 386.036 C 419.528 386.036 467.549 374.411 467.549 360.000 C 467.549 345.589 419.528 333.964 360.000 333.964 C 300.472 333.964 252.451 345.589 252.451 360.000 M 306.225 360.000 C 306.225 367.205 330.236 373.018 360.000 373.018 C 389.764 373.018 413.775 367.205 413.775 360.000 C 413.775 352.795 389.764 346.982 360.000 346.982 C 330.236 346.982 306.225 352.795 306.225 360.000 Z"/>
</g>
<g id="specs_2">
<path fill="#ff00ff" fill-rule="evenodd" stroke="none" d="M 217.818 361.062 C 217.847 361.062 502.153 361.062 502.182 361.062 C 502.182 361.034 502.182 76.728 502.182 76.699 C 502.153 76.699 217.847 76.699 217.818 76.699 C 217.818 76.728 217.818 361.034 217.818 361.062 Z"/>
<path fill="#ff0000" fill-rule="evenodd" stroke="none" d="M 360.000 475.827 C 360.001 475.830 372.416 510.593 372.417 510.596 C 372.416 510.595 360.001 499.044 360.000 499.043 C 359.999 499.044 347.584 510.595 347.583 510.596 C 347.584 510.593 359.999 475.830 360.000 475.827 Z"/>
<path fill="#00ff00" fill-rule="evenodd" stroke="none" d="M 18.822 361.002 C 18.824 361.002 38.981 353.687 38.983 353.687 C 38.982 353.687 32.308 360.933 32.308 360.934 C 32.308 360.935 39.055 368.112 39.055 368.113 C 39.053 368.112 18.824 361.003 18.822 361.002 Z"/>
<path fill="#ffff00" fill-rule="evenodd" stroke="none" d="M 118.004 424.121 C 118.005 424.119 126.954 404.634 126.955 404.632 C 126.955 404.633 127.426 414.472 127.426 414.473 C 127.427 414.473 137.274 414.712 137.275 414.712 C 137.273 414.713 118.006 424.120 118.004 424.121 Z"/>
<path fill="#ffff00" fill-rule="evenodd" stroke="none" d="M 601.996 423.882 C 601.995 423.880 592.657 404.578 592.656 404.576 C 592.656 404.577 592.383 414.424 592.383 414.425 C 592.382 414.425 582.540 414.862 582.539 414.862 C 582.541 414.862 601.994 423.881 601.996 423.882 Z"/>
<path fill="#00ff00" fill-rule="evenodd" stroke="none" d="M 701.178 361.002 C 701.176 361.002 681.019 353.687 681.017 353.687 C 681.018 353.687 687.692 360.933 687.692 360.934 C 687.692 360.935 680.945 368.112 680.945 368.113 C 680.947 368.112 701.176 361.003 701.178 361.002 Z"/>
<path fill="#00ffff" fill-rule="evenodd" stroke="none" d="M 601.061 293.200 C 601.060 293.202 593.902 313.414 593.901 313.416 C 593.901 313.415 592.546 303.658 592.546 303.657 C 592.545 303.657 582.716 304.306 582.715 304.306 C 582.717 304.305 601.059 293.201 601.061 293.200 Z"/>
<path fill="#00ffff" fill-rule="evenodd" stroke="none" d="M 119.051 293.870 C 119.051 293.871 127.541 313.561 127.542 313.563 C 127.542 313.562 128.244 303.737 128.244 303.736 C 128.245 303.736 138.095 303.728 138.096 303.728 C 138.094 303.727 119.052 293.870 119.051 293.870 Z"/>
<path fill="#be0027" fill-rule="evenodd" stroke="none" d="M 360.000 464.098 C 360.001 464.095 372.416 429.332 372.417 429.328 C 372.416 429.330 360.001 440.881 360.000 440.882 C 359.999 440.881 347.584 429.330 347.583 429.328 C 347.584 429.332 359.999 464.095 360.000 464.098 Z"/>
</g>
</g>
</svg>
