<?xml version="1.0" encoding="utf-8"?>
<!-- Generator: Moho 13.5.1 build 20210623 -->
<!DOCTYPE svg PUBLIC "-//W3C//DTD SVG 1.1//EN" "http://www.w3.org/Graphics/SVG/1.1/DTD/svg11.dtd">
<svg version="1.1" id="Frame_0" xmlns="http://www.w3.org/2000/svg" xmlns:xlink="http://www.w3.org/1999/xlink" width="720px" height="720px">
<g id="scales">
<g id="scales">
<path fill="#ffffff" fill-rule="evenodd" stroke="#000000" stroke-width="4" stroke-linecap="round" stroke-linejoin="round" d="M 359.988 113.933 C 359.990 113.979 384.851 570.253 384.853 570.298 C 384.848 570.298 335.127 570.298 335.122 570.298 C 335.124 570.253 359.985 113.979 359.988 113.933 Z"/>
<path fill="#ffffff" fill-rule="evenodd" stroke="#000000" stroke-width="4" stroke-linecap="round" stroke-linejoin="round" d="M 269.135 412.926 C 202.317 412.927 88.483 412.927 20.940 412.926 C 54.519 440.815 97.780 457.598 145.062 457.598 C 192.344 457.598 241.645 435.835 269.135 412.926 M 450.676 412.926 C 517.493 412.927 631.328 412.927 698.871 412.926 C 665.291 440.815 622.031 457.598 574.749 457.598 C 527.467 457.598 478.166 435.835 450.676 412.926 Z"/>
<path fill="#ffffff" fill-rule="evenodd" stroke="#000000" stroke-width="4" stroke-linecap="round" stroke-linejoin="round" d="M 156.814 151.363 C 153.811 148.360 149.659 146.506 145.062 146.506 C 140.466 146.506 136.314 148.360 133.311 151.363 C 130.308 154.366 128.453 158.518 128.453 163.115 C 128.453 167.711 133.310 174.865 133.310 174.866 C 133.312 174.867 140.466 179.723 145.062 179.723 C 149.659 179.723 156.813 174.867 156.814 174.866 C 156.815 174.865 161.671 167.711 161.671 163.115 C 161.671 158.519 159.817 154.366 156.814 151.363 M 562.997 151.363 C 566.000 148.360 570.152 146.506 574.749 146.506 C 579.345 146.506 583.497 148.360 586.500 151.363 C 589.503 154.366 591.357 158.518 591.357 163.115 C 591.358 167.711 586.501 174.865 586.500 174.866 C 586.499 174.867 579.345 179.723 574.749 179.723 C 570.152 179.723 562.998 174.867 562.997 174.866 C 562.996 174.865 558.140 167.711 558.140 163.115 C 558.140 158.518 559.994 154.366 562.997 151.363 Z"/>
<path fill="#ffffff" fill-rule="evenodd" stroke="#000000" stroke-width="4" stroke-linecap="round" stroke-linejoin="round" d="M 359.988 137.342 C 360.009 137.343 577.612 142.469 577.612 142.468 C 577.590 142.465 360.010 109.728 359.988 109.727 C 359.800 109.728 142.220 142.465 142.199 142.468 C 142.199 142.469 360.047 137.343 359.988 137.342 Z"/>
<path fill="none" stroke="#000000" stroke-width="4" stroke-linecap="round" stroke-linejoin="round" d="M 562.997 174.866 C 525.557 254.220 488.116 333.573 450.676 412.926 C 517.493 412.927 631.328 412.927 698.871 412.926 C 661.414 333.573 623.957 254.220 586.500 174.866 "/>
<path fill="none" stroke="#000000" stroke-width="4" stroke-linecap="round" stroke-linejoin="round" d="M 156.814 174.866 C 194.254 254.220 231.694 333.573 269.135 412.926 C 202.317 412.927 88.483 412.927 20.940 412.926 C 58.397 333.573 95.854 254.220 133.310 174.866 "/>
<path fill="#ffffff" fill-rule="evenodd" stroke="#000000" stroke-width="4" stroke-linecap="round" stroke-linejoin="round" d="M 224.170 560.161 C 224.197 560.161 495.778 560.161 495.805 560.161 C 495.805 560.163 495.805 584.212 495.805 584.214 C 495.778 584.214 224.197 584.214 224.170 584.214 C 224.170 584.212 224.170 560.163 224.170 560.161 Z"/>
<path fill="#ffffff" fill-rule="evenodd" stroke="#000000" stroke-width="4" stroke-linecap="round" stroke-linejoin="round" d="M 196.411 581.924 C 196.444 581.924 523.532 581.924 523.565 581.924 C 523.565 581.926 523.565 605.975 523.565 605.977 C 523.532 605.977 196.444 605.977 196.411 605.977 C 196.411 605.975 196.411 581.926 196.411 581.924 Z"/>
<path fill="#ffffff" fill-rule="evenodd" stroke="#000000" stroke-width="4" stroke-linecap="round" stroke-linejoin="round" d="M 172.662 604.159 C 172.699 604.159 547.276 604.159 547.314 604.159 C 547.314 604.161 547.314 628.210 547.314 628.213 C 547.276 628.213 172.699 628.213 172.662 628.213 C 172.662 628.210 172.662 604.161 172.662 604.159 Z"/>
</g>
<g id="specs_2">
<path fill="#ff00ff" fill-rule="evenodd" stroke="none" d="M 61.374 410.327 C 61.390 410.327 223.504 410.327 223.521 410.327 C 223.521 410.311 223.521 248.196 223.521 248.180 C 223.504 248.180 61.390 248.180 61.374 248.180 C 61.374 248.196 61.374 410.311 61.374 410.327 Z"/>
<path fill="#ff0000" fill-rule="evenodd" stroke="none" d="M 360.000 677.828 C 360.001 677.831 372.432 712.637 372.433 712.641 C 372.432 712.640 360.001 701.074 360.000 701.073 C 359.999 701.074 347.568 712.640 347.567 712.641 C 347.568 712.637 359.999 677.831 360.000 677.828 Z"/>
<path fill="#0000ff" fill-rule="evenodd" stroke="none" d="M 360.000 94.878 C 360.001 94.880 367.221 115.098 367.222 115.100 C 367.221 115.099 360.001 108.381 360.000 108.380 C 359.999 108.381 352.779 115.099 352.778 115.100 C 352.779 115.098 359.999 94.880 360.000 94.878 Z"/>
<path fill="#00ff00" fill-rule="evenodd" stroke="none" d="M 124.424 144.208 C 124.426 144.208 138.343 139.157 138.345 139.157 C 138.344 139.157 133.736 144.161 133.736 144.161 C 133.736 144.162 138.394 149.117 138.395 149.118 C 138.393 149.117 124.426 144.209 124.424 144.208 Z"/>
<path fill="#00ff00" fill-rule="evenodd" stroke="none" d="M 595.576 144.208 C 595.574 144.208 581.657 139.157 581.656 139.157 C 581.656 139.157 586.264 144.161 586.264 144.161 C 586.264 144.162 581.606 149.117 581.605 149.118 C 581.607 149.117 595.574 144.209 595.576 144.208 Z"/>
<path fill="#be0027" fill-rule="evenodd" stroke="none" d="M 360.000 651.956 C 360.001 651.952 372.432 617.146 372.433 617.143 C 372.432 617.144 360.001 628.710 360.000 628.711 C 359.999 628.710 347.568 617.144 347.567 617.143 C 347.568 617.146 359.999 651.952 360.000 651.956 Z"/>
<path fill="#ff00ff" fill-rule="evenodd" stroke="none" d="M 658.626 410.327 C 658.610 410.327 496.496 410.327 496.479 410.327 C 496.479 410.311 496.479 248.196 496.479 248.180 C 496.496 248.180 658.610 248.180 658.626 248.180 C 658.626 248.196 658.626 410.311 658.626 410.327 Z"/>
</g>
</g>
</svg>
