<?xml version="1.0" encoding="utf-8"?>
<!-- Generator: Moho 13.5 build 20210422 -->
<!DOCTYPE svg PUBLIC "-//W3C//DTD SVG 1.1//EN" "http://www.w3.org/Graphics/SVG/1.1/DTD/svg11.dtd">
<svg version="1.1" id="Frame_0" xmlns="http://www.w3.org/2000/svg" xmlns:xlink="http://www.w3.org/1999/xlink" width="720px" height="720px">
<g id="scroll_double">
<g id="double_scroll">
<linearGradient id="03BCD2A7-5DF6-44C3-B668-EEF60DF2B849_0" x1="-21.85%" y1="63.93%" x2="120.72%" y2="63.93%">
<stop offset="0.00%" style="stop-color:rgb(0,0,0);stop-opacity:1.00" />
<stop offset="35.69%" style="stop-color:rgb(255,255,255);stop-opacity:1.00" />
<stop offset="65.10%" style="stop-color:rgb(255,255,255);stop-opacity:1.00" />
<stop offset="100.00%" style="stop-color:rgb(0,0,0);stop-opacity:1.00" />
</linearGradient>
<path fill="url(#03BCD2A7-5DF6-44C3-B668-EEF60DF2B849_0)" fill-rule="evenodd" stroke="#000000" stroke-width="4" stroke-linecap="round" stroke-linejoin="round" d="M 116.732 125.986 C 116.781 125.986 603.219 125.986 603.268 125.986 C 603.268 126.025 603.268 512.776 603.268 512.814 C 603.219 512.814 116.781 512.814 116.732 512.814 C 116.732 512.776 116.732 126.025 116.732 125.986 Z"/>
<path fill="#000000" fill-rule="evenodd" stroke="#ffffff" stroke-width="4" stroke-linecap="round" stroke-linejoin="round" d="M 100.030 646.802 C 103.617 649.573 125.232 649.573 128.819 646.802 C 145.251 634.108 126.477 568.848 128.819 514.906 C 128.823 514.800 117.986 511.770 114.424 511.770 C 110.863 511.770 100.028 514.871 100.030 514.906 C 103.625 569.190 83.598 634.108 100.030 646.802 Z"/>
<linearGradient id="03BCD2A7-5DF6-44C3-B668-EEF60DF2B849_2" x1="-34.29%" y1="47.05%" x2="126.48%" y2="46.55%">
<stop offset="0.00%" style="stop-color:rgb(0,0,0);stop-opacity:1.00" />
<stop offset="35.69%" style="stop-color:rgb(255,255,255);stop-opacity:1.00" />
<stop offset="65.10%" style="stop-color:rgb(255,255,255);stop-opacity:1.00" />
<stop offset="100.00%" style="stop-color:rgb(0,0,0);stop-opacity:1.00" />
</linearGradient>
<path fill="url(#03BCD2A7-5DF6-44C3-B668-EEF60DF2B849_2)" fill-rule="evenodd" stroke="#000000" stroke-width="4" stroke-linecap="round" stroke-linejoin="round" d="M 36.771 514.350 C 36.771 391.398 36.771 145.532 36.771 145.495 C 36.247 154.351 61.062 164.908 114.424 164.908 C 167.787 164.908 191.174 153.073 192.078 145.495 C 192.078 268.446 192.078 391.398 192.078 514.350 C 192.078 522.182 167.787 533.764 114.424 533.764 C 61.062 533.764 36.771 523.582 36.771 514.350 Z"/>
<path fill="none" stroke="#000000" stroke-width="1" stroke-linecap="butt" stroke-linejoin="round" d="M 192.078 145.495 C 191.174 153.073 167.787 164.908 114.424 164.908 "/>
<path fill="none" stroke="#000000" stroke-width="1" stroke-linecap="butt" stroke-linejoin="round" d="M 114.424 164.908 C 61.062 164.908 36.247 154.351 36.771 145.495 "/>
<path fill="#000000" fill-rule="evenodd" stroke="#ffffff" stroke-width="4" stroke-linecap="round" stroke-linejoin="round" d="M 114.424 126.081 C 167.787 126.081 193.200 136.090 192.078 145.495 C 191.174 153.073 167.787 164.908 114.424 164.908 C 61.062 164.908 36.247 154.351 36.771 145.495 C 37.342 135.826 61.062 126.081 114.424 126.081 Z"/>
<path fill="#000000" fill-rule="evenodd" stroke="#ffffff" stroke-width="4" stroke-linecap="round" stroke-linejoin="round" d="M 100.030 14.156 C 103.616 11.385 125.232 11.385 128.819 14.156 C 145.251 26.850 126.477 92.110 128.819 146.051 C 128.823 146.158 117.986 149.188 114.424 149.188 C 110.863 149.188 100.027 146.087 100.030 146.051 C 103.625 91.768 83.598 26.850 100.030 14.156 Z"/>
<path fill="#000000" fill-rule="evenodd" stroke="#ffffff" stroke-width="4" stroke-linecap="round" stroke-linejoin="round" d="M 591.181 646.802 C 594.768 649.573 616.383 649.573 619.970 646.802 C 636.402 634.108 617.628 568.848 619.970 514.906 C 619.974 514.800 609.137 511.770 605.576 511.770 C 602.014 511.770 591.179 514.871 591.181 514.906 C 594.776 569.190 574.749 634.108 591.181 646.802 Z"/>
<linearGradient id="03BCD2A7-5DF6-44C3-B668-EEF60DF2B849_6" x1="-37.24%" y1="50.00%" x2="137.79%" y2="50.00%">
<stop offset="0.00%" style="stop-color:rgb(0,0,0);stop-opacity:1.00" />
<stop offset="35.69%" style="stop-color:rgb(255,255,255);stop-opacity:1.00" />
<stop offset="65.10%" style="stop-color:rgb(255,255,255);stop-opacity:1.00" />
<stop offset="100.00%" style="stop-color:rgb(0,0,0);stop-opacity:1.00" />
</linearGradient>
<path fill="url(#03BCD2A7-5DF6-44C3-B668-EEF60DF2B849_6)" fill-rule="evenodd" stroke="#000000" stroke-width="4" stroke-linecap="round" stroke-linejoin="round" d="M 527.922 514.350 C 527.922 391.398 527.922 145.532 527.922 145.495 C 527.398 154.351 552.213 164.908 605.576 164.908 C 658.938 164.908 682.325 153.073 683.229 145.495 C 683.229 268.446 683.229 391.398 683.229 514.350 C 683.229 522.182 658.938 533.764 605.576 533.764 C 552.213 533.764 527.922 523.582 527.922 514.350 Z"/>
<path fill="none" stroke="#000000" stroke-width="1" stroke-linecap="butt" stroke-linejoin="round" d="M 683.229 145.495 C 682.325 153.073 658.938 164.908 605.576 164.908 "/>
<path fill="none" stroke="#000000" stroke-width="1" stroke-linecap="butt" stroke-linejoin="round" d="M 605.576 164.908 C 552.213 164.908 527.398 154.351 527.922 145.495 "/>
<path fill="#000000" fill-rule="evenodd" stroke="#ffffff" stroke-width="4" stroke-linecap="round" stroke-linejoin="round" d="M 605.576 126.081 C 658.938 126.081 684.352 136.090 683.229 145.495 C 682.325 153.073 658.938 164.908 605.576 164.908 C 552.213 164.908 527.398 154.351 527.922 145.495 C 528.494 135.826 552.213 126.081 605.576 126.081 Z"/>
<path fill="#000000" fill-rule="evenodd" stroke="#ffffff" stroke-width="4" stroke-linecap="round" stroke-linejoin="round" d="M 591.181 14.156 C 594.768 11.385 616.383 11.385 619.970 14.156 C 636.402 26.850 617.628 92.110 619.970 146.051 C 619.974 146.158 609.137 149.188 605.576 149.188 C 602.014 149.188 591.179 146.087 591.181 146.051 C 594.776 91.768 574.749 26.850 591.181 14.156 Z"/>
</g>
<g id="specs_2">
<path fill="#ff00ff" fill-rule="evenodd" stroke="none" d="M 203.533 473.097 C 203.564 473.097 516.436 473.097 516.467 473.097 C 516.467 473.066 516.467 160.195 516.467 160.164 C 516.436 160.164 203.564 160.164 203.533 160.164 C 203.533 160.195 203.533 473.066 203.533 473.097 Z"/>
<path fill="#ff0000" fill-rule="evenodd" stroke="none" d="M 360.000 680.260 C 360.001 680.263 372.052 714.006 372.053 714.010 C 372.052 714.009 360.001 702.796 360.000 702.795 C 359.999 702.796 347.948 714.009 347.947 714.010 C 347.948 714.006 359.999 680.263 360.000 680.260 Z"/>
<path fill="#0000ff" fill-rule="evenodd" stroke="none" d="M 360.000 78.097 C 360.001 78.099 367.001 97.700 367.001 97.702 C 367.001 97.701 360.001 91.188 360.000 91.188 C 359.999 91.188 352.999 97.701 352.999 97.702 C 352.999 97.700 359.999 78.099 360.000 78.097 Z"/>
<path fill="#00ff00" fill-rule="evenodd" stroke="none" d="M 28.828 331.452 C 28.830 331.451 48.395 324.351 48.397 324.351 C 48.397 324.351 41.919 331.385 41.918 331.386 C 41.919 331.386 48.467 338.353 48.468 338.354 C 48.466 338.353 28.830 331.452 28.828 331.452 Z"/>
<path fill="#ffff00" fill-rule="evenodd" stroke="none" d="M 98.576 593.133 C 98.577 593.130 108.245 572.081 108.246 572.079 C 108.246 572.080 108.755 582.709 108.755 582.710 C 108.756 582.710 119.394 582.968 119.395 582.968 C 119.393 582.969 98.578 593.132 98.576 593.133 Z"/>
<path fill="#ffff00" fill-rule="evenodd" stroke="none" d="M 621.424 592.875 C 621.423 592.873 611.335 572.021 611.334 572.019 C 611.334 572.020 611.038 582.658 611.038 582.659 C 611.037 582.659 600.406 583.130 600.405 583.130 C 600.407 583.131 621.422 592.874 621.424 592.875 Z"/>
<path fill="#00ff00" fill-rule="evenodd" stroke="none" d="M 691.172 331.452 C 691.170 331.451 671.605 324.351 671.603 324.351 C 671.603 324.351 678.081 331.385 678.082 331.386 C 678.081 331.386 671.533 338.353 671.532 338.354 C 671.534 338.353 691.170 331.452 691.172 331.452 Z"/>
<path fill="#00ffff" fill-rule="evenodd" stroke="none" d="M 620.414 69.003 C 620.413 69.005 612.680 90.840 612.679 90.842 C 612.679 90.841 611.215 80.301 611.215 80.300 C 611.214 80.300 600.596 81.001 600.594 81.001 C 600.596 81.000 620.412 69.004 620.414 69.003 Z"/>
<path fill="#00ffff" fill-rule="evenodd" stroke="none" d="M 99.707 69.727 C 99.708 69.729 108.879 90.999 108.880 91.001 C 108.880 91.000 109.639 80.386 109.639 80.385 C 109.640 80.385 120.281 80.377 120.282 80.377 C 120.280 80.376 99.709 69.728 99.707 69.727 Z"/>
<path fill="#be0027" fill-rule="evenodd" stroke="none" d="M 360.000 581.384 C 360.001 581.381 372.052 547.638 372.053 547.634 C 372.052 547.635 360.001 558.848 360.000 558.849 C 359.999 558.848 347.948 547.635 347.947 547.634 C 347.948 547.638 359.999 581.381 360.000 581.384 Z"/>
</g>
</g>
</svg>
