<?xml version="1.0" encoding="utf-8"?>
<!-- Generator: Moho 13.5.1 build 20210623 -->
<!DOCTYPE svg PUBLIC "-//W3C//DTD SVG 1.1//EN" "http://www.w3.org/Graphics/SVG/1.1/DTD/svg11.dtd">
<svg version="1.1" id="Frame_0" xmlns="http://www.w3.org/2000/svg" xmlns:xlink="http://www.w3.org/1999/xlink" width="720px" height="720px">
<g id="scroll_double">
<g id="double_scroll">
<linearGradient id="03BCD2A7-5DF6-44C3-B668-EEF60DF2B849_0" x1="-50.17%" y1="46.46%" x2="148.47%" y2="46.46%">
<stop offset="0.00%" style="stop-color:rgb(0,0,0);stop-opacity:1.00" />
<stop offset="50.00%" style="stop-color:rgb(255,255,255);stop-opacity:1.00" />
<stop offset="100.00%" style="stop-color:rgb(0,0,0);stop-opacity:1.00" />
</linearGradient>
<path fill="url(#03BCD2A7-5DF6-44C3-B668-EEF60DF2B849_0)" fill-rule="evenodd" stroke="#000000" stroke-width="4" stroke-linecap="round" stroke-linejoin="round" d="M 120.883 117.896 C 120.931 117.896 599.069 117.896 599.117 117.896 C 599.117 117.935 599.117 498.086 599.117 498.124 C 599.069 498.124 120.931 498.124 120.883 498.124 C 120.883 498.086 120.883 117.935 120.883 117.896 Z"/>
<path fill="#000000" fill-rule="evenodd" stroke="#ffffff" stroke-width="4" stroke-linecap="round" stroke-linejoin="round" d="M 104.466 629.825 C 107.992 632.548 129.238 632.548 132.764 629.825 C 148.915 617.347 130.462 553.201 132.764 500.180 C 132.768 500.076 122.116 497.097 118.615 497.097 C 115.114 497.097 104.464 500.145 104.466 500.180 C 108.000 553.537 88.315 617.347 104.466 629.825 Z"/>
<linearGradient id="03BCD2A7-5DF6-44C3-B668-EEF60DF2B849_2" x1="-33.53%" y1="50.54%" x2="131.96%" y2="50.54%">
<stop offset="0.00%" style="stop-color:rgb(0,0,0);stop-opacity:1.00" />
<stop offset="50.00%" style="stop-color:rgb(255,255,255);stop-opacity:1.00" />
<stop offset="100.00%" style="stop-color:rgb(0,0,0);stop-opacity:1.00" />
</linearGradient>
<path fill="url(#03BCD2A7-5DF6-44C3-B668-EEF60DF2B849_2)" fill-rule="evenodd" stroke="#000000" stroke-width="4" stroke-linecap="round" stroke-linejoin="round" d="M 42.286 499.633 C 42.286 378.780 42.286 137.108 42.286 137.072 C 41.772 145.778 66.163 156.155 118.615 156.155 C 171.067 156.155 194.055 144.522 194.944 137.072 C 194.944 257.926 194.944 378.780 194.944 499.633 C 194.944 507.331 171.067 518.716 118.615 518.716 C 66.163 518.716 42.286 508.708 42.286 499.633 Z"/>
<path fill="none" stroke="#000000" stroke-width="1" stroke-linecap="butt" stroke-linejoin="round" d="M 194.944 137.072 C 194.055 144.522 171.067 156.155 118.615 156.155 "/>
<path fill="none" stroke="#000000" stroke-width="1" stroke-linecap="butt" stroke-linejoin="round" d="M 118.615 156.155 C 66.163 156.155 41.772 145.778 42.286 137.072 "/>
<path fill="#000000" fill-rule="evenodd" stroke="#ffffff" stroke-width="4" stroke-linecap="round" stroke-linejoin="round" d="M 118.615 117.990 C 171.067 117.990 196.047 127.828 194.944 137.072 C 194.055 144.522 171.067 156.155 118.615 156.155 C 66.163 156.155 41.772 145.778 42.286 137.072 C 42.848 127.568 66.163 117.990 118.615 117.990 Z"/>
<path fill="#000000" fill-rule="evenodd" stroke="#ffffff" stroke-width="4" stroke-linecap="round" stroke-linejoin="round" d="M 104.466 7.975 C 107.991 5.251 129.238 5.251 132.764 7.975 C 148.915 20.452 130.462 84.598 132.764 137.619 C 132.768 137.724 122.116 140.702 118.615 140.702 C 115.114 140.702 104.464 137.654 104.466 137.619 C 108.000 84.263 88.314 20.452 104.466 7.975 Z"/>
<path fill="#000000" fill-rule="evenodd" stroke="#ffffff" stroke-width="4" stroke-linecap="round" stroke-linejoin="round" d="M 587.236 629.825 C 590.762 632.548 612.008 632.548 615.534 629.825 C 631.685 617.347 613.232 553.201 615.534 500.180 C 615.538 500.076 604.886 497.097 601.385 497.097 C 597.884 497.097 587.234 500.145 587.236 500.180 C 590.770 553.537 571.085 617.347 587.236 629.825 Z"/>
<linearGradient id="03BCD2A7-5DF6-44C3-B668-EEF60DF2B849_6" x1="-34.88%" y1="50.81%" x2="135.29%" y2="50.81%">
<stop offset="0.00%" style="stop-color:rgb(0,0,0);stop-opacity:1.00" />
<stop offset="50.00%" style="stop-color:rgb(255,255,255);stop-opacity:1.00" />
<stop offset="100.00%" style="stop-color:rgb(0,0,0);stop-opacity:1.00" />
</linearGradient>
<path fill="url(#03BCD2A7-5DF6-44C3-B668-EEF60DF2B849_6)" fill-rule="evenodd" stroke="#000000" stroke-width="4" stroke-linecap="round" stroke-linejoin="round" d="M 525.056 499.633 C 525.056 378.780 525.056 137.108 525.056 137.072 C 524.542 145.778 548.933 156.155 601.385 156.155 C 653.837 156.155 676.825 144.522 677.714 137.072 C 677.714 257.926 677.714 378.780 677.714 499.633 C 677.714 507.331 653.837 518.716 601.385 518.716 C 548.933 518.716 525.056 508.708 525.056 499.633 Z"/>
<path fill="none" stroke="#000000" stroke-width="1" stroke-linecap="butt" stroke-linejoin="round" d="M 677.714 137.072 C 676.825 144.522 653.837 156.155 601.385 156.155 "/>
<path fill="none" stroke="#000000" stroke-width="1" stroke-linecap="butt" stroke-linejoin="round" d="M 601.385 156.155 C 548.933 156.155 524.542 145.778 525.056 137.072 "/>
<path fill="#000000" fill-rule="evenodd" stroke="#ffffff" stroke-width="4" stroke-linecap="round" stroke-linejoin="round" d="M 601.385 117.990 C 653.837 117.990 678.817 127.828 677.714 137.072 C 676.825 144.522 653.837 156.155 601.385 156.155 C 548.933 156.155 524.542 145.778 525.056 137.072 C 525.618 127.568 548.933 117.990 601.385 117.990 Z"/>
<path fill="#000000" fill-rule="evenodd" stroke="#ffffff" stroke-width="4" stroke-linecap="round" stroke-linejoin="round" d="M 587.236 7.975 C 590.762 5.251 612.008 5.251 615.534 7.975 C 631.685 20.452 613.232 84.598 615.534 137.619 C 615.538 137.724 604.886 140.702 601.385 140.702 C 597.884 140.702 587.234 137.654 587.236 137.619 C 590.770 84.263 571.085 20.452 587.236 7.975 Z"/>
</g>
<g id="specs_2">
<path fill="#ff00ff" fill-rule="evenodd" stroke="none" d="M 206.203 459.085 C 206.234 459.085 513.766 459.085 513.797 459.085 C 513.797 459.054 513.797 151.522 513.797 151.491 C 513.766 151.491 206.234 151.491 206.203 151.491 C 206.203 151.522 206.203 459.054 206.203 459.085 Z"/>
<path fill="#ff0000" fill-rule="evenodd" stroke="none" d="M 360.000 680.302 C 360.001 680.305 371.846 713.472 371.848 713.475 C 371.846 713.474 360.001 702.453 360.000 702.452 C 359.999 702.453 348.154 713.474 348.152 713.475 C 348.154 713.472 359.999 680.305 360.000 680.302 Z"/>
<path fill="#0000ff" fill-rule="evenodd" stroke="none" d="M 360.000 70.825 C 360.001 70.827 366.881 90.093 366.882 90.095 C 366.881 90.094 360.001 83.692 360.000 83.692 C 359.999 83.692 353.119 90.094 353.118 90.095 C 353.119 90.093 359.999 70.827 360.000 70.825 Z"/>
<path fill="#00ff00" fill-rule="evenodd" stroke="none" d="M 29.689 319.857 C 29.691 319.857 49.205 312.776 49.207 312.775 C 49.206 312.776 42.745 319.791 42.745 319.792 C 42.745 319.792 49.277 326.741 49.277 326.742 C 49.275 326.741 29.691 319.858 29.689 319.857 Z"/>
<path fill="#00ff00" fill-rule="evenodd" stroke="none" d="M 690.311 319.857 C 690.309 319.857 670.795 312.776 670.793 312.775 C 670.794 312.776 677.255 319.791 677.255 319.792 C 677.255 319.792 670.723 326.741 670.723 326.742 C 670.725 326.741 690.309 319.858 690.311 319.857 Z"/>
<path fill="#be0027" fill-rule="evenodd" stroke="none" d="M 360.000 565.523 C 360.001 565.520 371.846 532.353 371.848 532.349 C 371.846 532.350 360.001 543.372 360.000 543.373 C 359.999 543.372 348.154 532.350 348.152 532.349 C 348.154 532.353 359.999 565.520 360.000 565.523 Z"/>
</g>
</g>
</svg>
