<?xml version="1.0" encoding="utf-8"?>
<!-- Generator: Moho 12.5 build 22414 -->
<!DOCTYPE svg PUBLIC "-//W3C//DTD SVG 1.1//EN" "http://www.w3.org/Graphics/SVG/1.1/DTD/svg11.dtd">
<svg version="1.1" id="Frame_0" xmlns="http://www.w3.org/2000/svg" xmlns:xlink="http://www.w3.org/1999/xlink" width="720px" height="720px">
<g id="skeleton">
<g id="skeleton">
<path fill="#ffffff" fill-rule="evenodd" stroke="none" d="M 279.627 192.973 C 280.810 194.318 281.389 195.982 281.389 197.676 C 283.064 197.886 284.640 198.672 285.823 200.017 C 288.395 202.940 288.111 207.373 285.188 209.944 C 282.879 211.976 279.627 212.225 277.115 210.810 C 259.692 226.121 236.053 246.913 221.934 259.335 C 223.022 262.018 222.359 265.210 220.050 267.242 C 217.127 269.813 212.695 269.530 210.123 266.606 C 208.940 265.262 208.509 262.748 208.366 261.910 C 208.366 261.910 205.110 260.907 203.927 259.562 C 201.356 256.639 201.639 252.207 204.563 249.635 C 206.872 247.604 210.772 247.821 212.635 248.770 C 212.605 248.784 256.148 210.501 267.816 200.244 C 266.729 197.562 267.391 194.369 269.700 192.337 C 272.623 189.766 277.056 190.050 279.627 192.973 Z"/>
<path fill="none" stroke="#000000" stroke-width="4" stroke-linecap="round" stroke-linejoin="round" d="M 212.635 248.770 C 213.110 249.027 213.736 249.392 214.247 249.905 M 277.115 210.810 C 276.423 210.420 275.801 209.923 275.261 209.309 M 279.627 192.973 C 280.810 194.318 281.389 195.982 281.389 197.676 C 283.064 197.886 284.640 198.672 285.823 200.017 C 288.395 202.940 288.111 207.373 285.188 209.944 C 282.879 211.976 279.627 212.225 277.115 210.810 C 259.692 226.121 236.053 246.913 221.934 259.335 C 221.640 258.609 221.226 257.929 220.686 257.315 M 269.700 192.337 C 272.623 189.766 277.056 190.050 279.627 192.973 M 267.816 200.244 C 266.729 197.562 267.391 194.369 269.700 192.337 M 269.065 202.265 C 268.525 201.651 268.111 200.970 267.816 200.244 C 256.148 210.501 212.605 248.784 212.635 248.770 C 210.772 247.821 206.872 247.604 204.563 249.635 C 201.639 252.207 201.356 256.639 203.927 259.562 C 205.110 260.907 208.366 261.910 208.366 261.910 C 208.509 262.748 208.940 265.262 210.123 266.606 C 212.695 269.530 217.127 269.813 220.050 267.242 C 222.359 265.210 223.022 262.018 221.934 259.335 "/>
<path fill="#ffffff" fill-rule="evenodd" stroke="#000000" stroke-width="4" stroke-linecap="round" stroke-linejoin="round" d="M 317.980 90.048 C 317.980 79.721 326.310 71.390 336.637 71.390 C 346.964 71.390 355.295 79.721 355.295 90.048 C 355.295 100.375 346.964 108.706 336.637 108.706 C 326.310 108.706 317.980 100.375 317.980 90.048 M 350.093 118.880 C 350.094 118.878 359.951 101.005 359.952 101.003 C 359.953 101.005 369.811 118.878 369.812 118.880 C 369.810 118.880 350.095 118.880 350.093 118.880 M 364.314 89.719 C 364.314 79.469 372.582 71.200 382.832 71.200 C 393.083 71.200 401.351 79.469 401.351 89.719 C 401.351 99.969 393.083 108.238 382.832 108.238 C 372.582 108.238 364.314 99.969 364.314 89.719 M 333.137 154.633 C 333.137 154.630 333.399 135.730 333.467 130.798 C 320.330 122.098 309.722 107.443 309.316 89.999 C 308.688 62.946 332.891 42.918 359.952 42.918 C 387.013 42.918 411.217 62.946 410.588 89.999 C 410.183 107.443 399.574 122.099 386.437 130.798 C 386.506 135.731 386.767 154.630 386.768 154.633 C 386.767 154.633 378.242 154.633 378.241 154.633 C 378.241 154.631 378.241 142.424 378.241 142.423 C 378.241 142.423 375.428 142.423 375.427 142.423 C 375.427 142.424 375.427 154.631 375.427 154.633 C 375.426 154.633 366.987 154.633 366.986 154.633 C 366.986 154.631 366.986 142.424 366.986 142.423 C 366.986 142.423 364.173 142.423 364.173 142.423 C 364.173 142.424 364.173 154.631 364.173 154.633 C 364.172 154.633 355.733 154.633 355.732 154.633 C 355.732 154.631 355.732 142.424 355.732 142.423 C 355.732 142.423 352.918 142.423 352.918 142.423 C 352.918 142.424 352.918 154.631 352.918 154.633 C 352.917 154.633 344.477 154.633 344.477 154.633 C 344.477 154.631 344.477 142.424 344.477 142.423 C 344.477 142.423 341.664 142.423 341.664 142.423 C 341.664 142.424 341.664 154.631 341.664 154.633 C 341.663 154.633 333.138 154.633 333.137 154.633 Z"/>
<path fill="#ffffff" fill-rule="evenodd" stroke="none" d="M 198.268 274.464 C 200.059 274.506 201.674 275.208 202.920 276.356 C 204.210 275.267 205.856 274.641 207.647 274.682 C 211.539 274.773 214.606 277.986 214.515 281.878 C 214.443 284.953 212.423 287.513 209.680 288.401 C 209.128 311.589 208.393 343.062 207.957 361.863 C 210.667 362.881 212.565 365.532 212.494 368.607 C 212.403 372.499 209.190 375.566 205.298 375.475 C 203.507 375.433 201.367 374.046 200.654 373.584 C 200.654 373.584 197.709 375.298 195.919 375.256 C 192.027 375.166 188.960 371.953 189.051 368.061 C 189.122 364.986 191.925 362.266 193.886 361.538 C 193.876 361.570 195.241 303.607 195.609 288.076 C 192.899 287.058 191.000 284.407 191.072 281.332 C 191.163 277.440 194.376 274.373 198.268 274.464 Z"/>
<path fill="none" stroke="#000000" stroke-width="4" stroke-linecap="round" stroke-linejoin="round" d="M 193.886 361.538 C 194.397 361.364 195.090 361.151 195.814 361.123 M 209.680 288.401 C 208.924 288.645 208.137 288.766 207.319 288.747 M 198.268 274.464 C 200.059 274.506 201.674 275.208 202.920 276.356 C 204.210 275.267 205.856 274.641 207.647 274.682 C 211.539 274.773 214.606 277.986 214.515 281.878 C 214.443 284.953 212.423 287.513 209.680 288.401 C 209.128 311.589 208.393 343.062 207.957 361.863 C 207.224 361.587 206.443 361.430 205.626 361.411 M 191.072 281.332 C 191.163 277.440 194.376 274.373 198.268 274.464 M 195.609 288.076 C 192.899 287.058 191.000 284.407 191.072 281.332 M 197.940 288.528 C 197.123 288.509 196.342 288.352 195.609 288.076 C 195.241 303.607 193.876 361.570 193.886 361.538 C 191.925 362.266 189.122 364.986 189.051 368.061 C 188.960 371.953 192.027 375.166 195.919 375.256 C 197.709 375.298 200.654 373.584 200.654 373.584 C 201.367 374.046 203.507 375.433 205.298 375.475 C 209.190 375.566 212.403 372.499 212.494 368.607 C 212.565 365.532 210.667 362.881 207.957 361.863 "/>
<path fill="#ffffff" fill-rule="evenodd" stroke="#000000" stroke-width="4" stroke-linecap="round" stroke-linejoin="round" d="M 290.404 613.763 C 296.709 613.763 301.795 618.849 301.794 625.153 C 301.794 631.458 296.709 636.543 290.404 636.543 C 284.100 636.543 279.014 631.458 279.014 625.153 C 279.014 618.849 284.100 613.763 290.404 613.763 Z"/>
<path fill="#ffffff" fill-rule="evenodd" stroke="#000000" stroke-width="4" stroke-linecap="round" stroke-linejoin="round" d="M 350.692 162.080 C 350.694 162.080 369.210 162.080 369.212 162.080 C 369.212 162.082 369.212 180.598 369.212 180.600 C 369.210 180.600 350.694 180.600 350.692 180.600 C 350.692 180.598 350.692 162.082 350.692 162.080 Z"/>
<path fill="#ffffff" fill-rule="evenodd" stroke="#000000" stroke-width="4" stroke-linecap="round" stroke-linejoin="round" d="M 350.692 190.542 C 350.694 190.542 369.210 190.542 369.212 190.542 C 369.212 190.544 369.212 209.060 369.212 209.062 C 369.210 209.062 350.694 209.062 350.692 209.062 C 350.692 209.060 350.692 190.544 350.692 190.542 Z"/>
<path fill="#ffffff" fill-rule="evenodd" stroke="#000000" stroke-width="4" stroke-linecap="round" stroke-linejoin="round" d="M 350.692 219.004 C 350.694 219.004 369.210 219.004 369.212 219.004 C 369.212 219.006 369.212 237.522 369.212 237.524 C 369.210 237.524 350.694 237.524 350.692 237.524 C 350.692 237.522 350.692 219.006 350.692 219.004 Z"/>
<path fill="#ffffff" fill-rule="evenodd" stroke="#000000" stroke-width="4" stroke-linecap="round" stroke-linejoin="round" d="M 350.692 248.501 C 350.694 248.501 369.210 248.501 369.212 248.501 C 369.212 248.503 369.212 267.019 369.212 267.021 C 369.210 267.021 350.694 267.021 350.692 267.021 C 350.692 267.019 350.692 248.503 350.692 248.501 Z"/>
<path fill="#ffffff" fill-rule="evenodd" stroke="#000000" stroke-width="4" stroke-linecap="round" stroke-linejoin="round" d="M 350.692 277.998 C 350.694 277.998 369.210 277.998 369.212 277.998 C 369.212 278.000 369.212 296.516 369.212 296.518 C 369.210 296.518 350.694 296.518 350.692 296.518 C 350.692 296.516 350.692 278.000 350.692 277.998 Z"/>
<path fill="#ffffff" fill-rule="evenodd" stroke="#000000" stroke-width="4" stroke-linecap="round" stroke-linejoin="round" d="M 350.692 306.978 C 350.694 306.978 369.210 306.978 369.212 306.978 C 369.212 306.979 369.212 325.496 369.212 325.497 C 369.210 325.497 350.694 325.497 350.692 325.497 C 350.692 325.496 350.692 306.979 350.692 306.978 Z"/>
<path fill="#ffffff" fill-rule="evenodd" stroke="#000000" stroke-width="4" stroke-linecap="round" stroke-linejoin="round" d="M 333.869 330.720 C 345.019 330.738 354.747 336.657 359.953 345.349 C 365.453 337.033 375.054 330.720 386.035 330.720 C 402.929 330.720 416.558 344.349 416.558 361.243 C 416.558 378.137 402.929 391.766 386.035 391.765 C 372.834 391.765 359.953 377.137 359.953 377.137 C 356.220 380.794 345.019 391.765 333.869 391.765 C 316.975 391.765 303.347 378.137 303.347 361.243 C 303.347 344.349 319.578 330.697 333.869 330.720 M 374.125 361.243 C 374.125 354.651 379.443 349.333 386.035 349.333 C 392.627 349.333 397.945 354.651 397.945 361.243 C 397.945 367.835 392.627 373.153 386.035 373.153 C 379.443 373.153 374.125 367.835 374.125 361.243 M 321.960 361.243 C 321.960 354.651 327.277 349.333 333.869 349.333 C 340.461 349.333 345.779 354.651 345.779 361.243 C 345.779 367.835 340.461 373.152 333.869 373.152 C 327.277 373.152 321.960 367.835 321.960 361.243 Z"/>
<path fill="#ffffff" fill-rule="evenodd" stroke="#000000" stroke-width="4" stroke-linecap="round" stroke-linejoin="round" d="M 380.310 189.141 C 388.397 192.422 415.746 192.069 423.841 189.141 C 425.354 188.594 429.098 194.704 423.841 201.044 C 420.084 205.574 385.381 205.702 380.310 201.044 C 375.632 196.746 378.819 188.536 380.310 189.141 Z"/>
<path fill="#ffffff" fill-rule="evenodd" stroke="#000000" stroke-width="4" stroke-linecap="round" stroke-linejoin="round" d="M 380.310 216.051 C 388.397 219.332 415.746 218.978 423.841 216.051 C 425.354 215.504 429.098 221.613 423.841 227.953 C 420.084 232.484 385.381 232.612 380.310 227.953 C 375.632 223.655 378.819 215.446 380.310 216.051 Z"/>
<path fill="#ffffff" fill-rule="evenodd" stroke="#000000" stroke-width="4" stroke-linecap="round" stroke-linejoin="round" d="M 380.310 243.478 C 388.397 246.759 415.746 246.405 423.841 243.478 C 425.354 242.931 429.098 249.040 423.841 255.380 C 420.084 259.911 385.381 260.039 380.310 255.380 C 375.632 251.082 378.819 242.873 380.310 243.478 Z"/>
<path fill="#ffffff" fill-rule="evenodd" stroke="#000000" stroke-width="4" stroke-linecap="round" stroke-linejoin="round" d="M 339.717 189.141 C 331.629 192.422 304.281 192.069 296.186 189.141 C 294.673 188.594 290.929 194.704 296.186 201.044 C 299.943 205.574 334.646 205.702 339.717 201.044 C 344.395 196.746 341.208 188.536 339.717 189.141 Z"/>
<path fill="#ffffff" fill-rule="evenodd" stroke="#000000" stroke-width="4" stroke-linecap="round" stroke-linejoin="round" d="M 339.717 216.051 C 331.629 219.332 304.281 218.978 296.186 216.051 C 294.673 215.504 290.929 221.613 296.186 227.953 C 299.943 232.484 334.646 232.612 339.717 227.953 C 344.395 223.655 341.208 215.446 339.717 216.051 Z"/>
<path fill="#ffffff" fill-rule="evenodd" stroke="#000000" stroke-width="4" stroke-linecap="round" stroke-linejoin="round" d="M 339.717 243.478 C 331.629 246.759 304.281 246.405 296.186 243.478 C 294.673 242.931 290.929 249.040 296.186 255.380 C 299.943 259.911 334.646 260.039 339.717 255.380 C 344.395 251.082 341.208 242.873 339.717 243.478 Z"/>
<path fill="#ffffff" fill-rule="evenodd" stroke="none" d="M 310.672 391.301 C 312.329 392.324 313.459 393.871 313.998 395.632 C 315.806 395.320 317.695 395.637 319.352 396.659 C 322.954 398.883 324.066 403.584 321.842 407.186 C 320.085 410.031 316.783 411.323 313.721 410.648 C 300.460 432.102 282.474 461.228 271.734 478.628 C 273.716 481.073 274.041 484.603 272.284 487.449 C 270.060 491.051 265.360 492.163 261.758 489.939 C 260.101 488.916 258.855 486.438 258.440 485.612 C 258.440 485.612 254.735 485.603 253.078 484.579 C 249.476 482.355 248.364 477.656 250.588 474.053 C 252.346 471.208 256.470 470.196 258.710 470.591 C 258.683 470.616 291.816 416.981 300.697 402.611 C 298.714 400.167 298.389 396.636 300.146 393.790 C 302.370 390.188 307.070 389.077 310.672 391.301 Z"/>
<path fill="none" stroke="#000000" stroke-width="4" stroke-linecap="round" stroke-linejoin="round" d="M 258.710 470.591 C 259.285 470.709 260.052 470.889 260.746 471.261 M 313.721 410.648 C 312.877 410.462 312.072 410.142 311.316 409.675 M 310.672 391.301 C 312.329 392.324 313.459 393.871 313.998 395.632 C 315.806 395.320 317.695 395.637 319.352 396.659 C 322.954 398.883 324.066 403.584 321.842 407.186 C 320.085 410.031 316.783 411.323 313.721 410.648 C 300.460 432.102 282.474 461.228 271.734 478.628 C 271.197 477.967 270.551 477.390 269.794 476.923 M 300.146 393.790 C 302.370 390.188 307.070 389.077 310.672 391.301 M 300.697 402.611 C 298.714 400.167 298.389 396.636 300.146 393.790 M 302.636 404.316 C 301.880 403.849 301.233 403.273 300.697 402.611 C 291.816 416.981 258.683 470.616 258.710 470.591 C 256.470 470.196 252.346 471.208 250.588 474.053 C 248.364 477.656 249.476 482.355 253.078 484.579 C 254.735 485.603 258.440 485.612 258.440 485.612 C 258.855 486.438 260.101 488.916 261.758 489.939 C 265.360 492.163 270.060 491.051 272.284 487.449 C 274.041 484.603 273.716 481.073 271.734 478.628 "/>
<path fill="#ffffff" fill-rule="evenodd" stroke="none" d="M 264.743 497.122 C 262.813 497.382 261.151 498.335 259.943 499.724 C 258.418 498.702 256.564 498.223 254.634 498.482 C 250.438 499.046 247.509 502.886 248.073 507.082 C 248.519 510.396 251.009 512.921 254.080 513.551 C 257.455 538.546 262.020 572.472 264.744 592.738 C 261.938 594.163 260.204 597.255 260.650 600.570 C 261.214 604.765 265.054 607.695 269.249 607.131 C 271.179 606.871 273.326 605.115 274.041 604.530 C 274.041 604.530 277.429 606.030 279.359 605.770 C 283.554 605.206 286.484 601.366 285.919 597.171 C 285.473 593.856 282.118 591.252 279.912 590.701 C 279.926 590.735 271.507 528.256 269.249 511.515 C 272.055 510.090 273.789 506.997 273.343 503.683 C 272.779 499.487 268.939 496.558 264.743 497.122 Z"/>
<path fill="none" stroke="#000000" stroke-width="4" stroke-linecap="round" stroke-linejoin="round" d="M 279.912 590.701 C 279.339 590.574 278.565 590.427 277.780 590.483 M 254.080 513.551 C 254.927 513.725 255.792 513.761 256.673 513.642 M 264.743 497.122 C 262.813 497.382 261.151 498.335 259.943 499.724 C 258.418 498.702 256.564 498.223 254.634 498.482 C 250.438 499.046 247.509 502.886 248.073 507.082 C 248.519 510.396 251.009 512.921 254.080 513.551 C 257.455 538.546 262.020 572.472 264.744 592.738 C 265.503 592.352 266.329 592.089 267.210 591.970 M 273.343 503.683 C 272.779 499.487 268.939 496.558 264.743 497.122 M 269.249 511.515 C 272.055 510.090 273.789 506.997 273.343 503.683 M 266.783 512.282 C 267.664 512.164 268.489 511.901 269.249 511.515 C 271.507 528.256 279.926 590.735 279.912 590.701 C 282.118 591.252 285.473 593.856 285.919 597.171 C 286.484 601.366 283.554 605.206 279.359 605.770 C 277.429 606.030 274.041 604.530 274.041 604.530 C 273.326 605.115 271.179 606.871 269.249 607.131 C 265.054 607.695 261.214 604.765 260.650 600.570 C 260.204 597.255 261.938 594.163 264.744 592.738 "/>
<path fill="#ffffff" fill-rule="evenodd" stroke="#000000" stroke-width="4" stroke-linecap="round" stroke-linejoin="round" d="M 271.184 616.311 C 271.185 616.313 271.184 635.528 271.184 635.530 C 271.177 635.530 198.677 635.530 198.669 635.530 C 198.669 635.529 271.177 616.312 271.184 616.311 Z"/>
<path fill="#ffffff" fill-rule="evenodd" stroke="#000000" stroke-width="4" stroke-linecap="round" stroke-linejoin="round" d="M 199.698 382.136 C 206.002 382.136 211.088 387.222 211.088 393.526 C 211.088 399.831 206.002 404.916 199.698 404.916 C 193.394 404.916 188.308 399.831 188.308 393.526 C 188.308 387.222 193.393 382.136 199.698 382.136 Z"/>
<path fill="#ffffff" fill-rule="evenodd" stroke="#000000" stroke-width="4" stroke-linecap="round" stroke-linejoin="round" d="M 197.180 412.741 C 197.180 412.741 203.776 412.741 203.776 412.741 C 203.776 412.745 203.776 442.974 203.776 442.977 C 203.776 442.977 197.180 442.977 197.180 442.977 C 197.180 442.974 197.180 412.745 197.180 412.741 Z"/>
<path fill="#ffffff" fill-rule="evenodd" stroke="#000000" stroke-width="4" stroke-linecap="round" stroke-linejoin="round" d="M 184.341 407.507 C 184.341 407.507 190.625 409.512 190.625 409.512 C 190.624 409.515 181.433 438.313 181.432 438.316 C 181.432 438.316 175.149 436.311 175.148 436.311 C 175.149 436.308 184.340 407.509 184.341 407.507 Z"/>
<path fill="#ffffff" fill-rule="evenodd" stroke="#000000" stroke-width="4" stroke-linecap="round" stroke-linejoin="round" d="M 209.648 409.590 C 209.648 409.590 215.911 407.522 215.912 407.522 C 215.913 407.525 225.391 436.230 225.392 436.233 C 225.392 436.233 219.129 438.301 219.128 438.301 C 219.127 438.298 209.649 409.593 209.648 409.590 Z"/>
<path fill="#ffffff" fill-rule="evenodd" stroke="none" d="M 440.373 192.973 C 439.190 194.318 438.611 195.982 438.611 197.676 C 436.936 197.887 435.360 198.673 434.177 200.017 C 431.605 202.940 431.889 207.373 434.812 209.944 C 437.121 211.976 440.373 212.225 442.885 210.810 C 460.308 226.121 483.947 246.913 498.066 259.335 C 496.978 262.018 497.641 265.211 499.950 267.242 C 502.873 269.813 507.305 269.530 509.877 266.607 C 511.060 265.262 511.491 262.748 511.634 261.910 C 511.634 261.910 514.890 260.907 516.073 259.562 C 518.644 256.639 518.361 252.207 515.438 249.635 C 513.128 247.604 509.228 247.821 507.365 248.770 C 507.395 248.784 463.852 210.501 452.184 200.244 C 453.271 197.562 452.609 194.369 450.300 192.338 C 447.377 189.766 442.944 190.050 440.373 192.973 Z"/>
<path fill="none" stroke="#000000" stroke-width="4" stroke-linecap="round" stroke-linejoin="round" d="M 507.365 248.770 C 506.890 249.027 506.264 249.392 505.753 249.905 M 442.885 210.810 C 443.577 210.420 444.199 209.923 444.739 209.309 M 440.373 192.973 C 439.190 194.318 438.611 195.982 438.611 197.676 C 436.936 197.887 435.360 198.673 434.177 200.017 C 431.605 202.940 431.889 207.373 434.812 209.944 C 437.121 211.976 440.373 212.225 442.885 210.810 C 460.308 226.121 483.947 246.913 498.066 259.335 C 498.360 258.609 498.774 257.929 499.314 257.315 M 450.300 192.338 C 447.377 189.766 442.944 190.050 440.373 192.973 M 452.184 200.244 C 453.271 197.562 452.609 194.369 450.300 192.338 M 450.935 202.265 C 451.475 201.651 451.889 200.970 452.184 200.244 C 463.852 210.501 507.395 248.784 507.365 248.770 C 509.228 247.821 513.128 247.604 515.438 249.635 C 518.361 252.207 518.644 256.639 516.073 259.562 C 514.890 260.907 511.634 261.910 511.634 261.910 C 511.491 262.748 511.060 265.262 509.877 266.607 C 507.305 269.530 502.873 269.813 499.950 267.242 C 497.641 265.211 496.978 262.018 498.066 259.335 "/>
<path fill="#ffffff" fill-rule="evenodd" stroke="none" d="M 521.732 274.464 C 519.941 274.506 518.326 275.208 517.080 276.356 C 515.790 275.267 514.144 274.641 512.353 274.682 C 508.461 274.773 505.394 277.986 505.485 281.878 C 505.557 284.953 507.577 287.513 510.320 288.401 C 510.872 311.589 511.607 343.062 512.043 361.863 C 509.333 362.881 507.435 365.532 507.506 368.607 C 507.597 372.499 510.810 375.566 514.702 375.475 C 516.492 375.433 518.633 374.046 519.346 373.584 C 519.346 373.584 522.290 375.298 524.081 375.257 C 527.973 375.166 531.040 371.953 530.949 368.061 C 530.878 364.986 528.075 362.266 526.114 361.538 C 526.124 361.570 524.759 303.607 524.391 288.076 C 527.100 287.058 529.000 284.407 528.928 281.332 C 528.837 277.440 525.624 274.373 521.732 274.464 Z"/>
<path fill="none" stroke="#000000" stroke-width="4" stroke-linecap="round" stroke-linejoin="round" d="M 526.114 361.538 C 525.603 361.364 524.910 361.151 524.186 361.123 M 510.320 288.401 C 511.076 288.645 511.863 288.766 512.681 288.747 M 521.732 274.464 C 519.941 274.506 518.326 275.208 517.080 276.356 C 515.790 275.267 514.144 274.641 512.353 274.682 C 508.461 274.773 505.394 277.986 505.485 281.878 C 505.557 284.953 507.577 287.513 510.320 288.401 C 510.872 311.589 511.607 343.062 512.043 361.863 C 512.776 361.587 513.557 361.430 514.374 361.411 M 528.928 281.332 C 528.837 277.440 525.624 274.373 521.732 274.464 M 524.391 288.076 C 527.100 287.058 529.000 284.407 528.928 281.332 M 522.060 288.528 C 522.877 288.509 523.658 288.352 524.391 288.076 C 524.759 303.607 526.124 361.570 526.114 361.538 C 528.075 362.266 530.878 364.986 530.949 368.061 C 531.040 371.953 527.973 375.166 524.081 375.257 C 522.290 375.298 519.346 373.584 519.346 373.584 C 518.633 374.046 516.492 375.433 514.702 375.475 C 510.810 375.566 507.597 372.499 507.506 368.607 C 507.435 365.532 509.333 362.881 512.043 361.863 "/>
<path fill="#ffffff" fill-rule="evenodd" stroke="#000000" stroke-width="4" stroke-linecap="round" stroke-linejoin="round" d="M 429.596 613.763 C 423.291 613.763 418.206 618.849 418.206 625.153 C 418.206 631.458 423.291 636.543 429.596 636.543 C 435.900 636.543 440.986 631.458 440.986 625.153 C 440.986 618.849 435.900 613.763 429.596 613.763 Z"/>
<path fill="#ffffff" fill-rule="evenodd" stroke="none" d="M 409.328 391.301 C 407.671 392.324 406.541 393.871 406.002 395.632 C 404.194 395.320 402.305 395.637 400.648 396.659 C 397.046 398.883 395.934 403.584 398.158 407.186 C 399.915 410.031 403.218 411.323 406.279 410.648 C 419.540 432.102 437.526 461.228 448.266 478.628 C 446.284 481.073 445.959 484.603 447.716 487.449 C 449.940 491.051 454.640 492.163 458.242 489.939 C 459.899 488.916 461.145 486.438 461.560 485.612 C 461.560 485.612 465.265 485.603 466.922 484.579 C 470.524 482.355 471.636 477.656 469.412 474.053 C 467.654 471.208 463.530 470.196 461.290 470.591 C 461.317 470.616 428.184 416.981 419.303 402.611 C 421.286 400.167 421.611 396.636 419.854 393.790 C 417.630 390.188 412.930 389.077 409.328 391.301 Z"/>
<path fill="none" stroke="#000000" stroke-width="4" stroke-linecap="round" stroke-linejoin="round" d="M 461.290 470.591 C 460.715 470.709 459.948 470.889 459.254 471.261 M 406.279 410.648 C 407.123 410.462 407.928 410.142 408.684 409.675 M 409.328 391.301 C 407.671 392.324 406.541 393.871 406.002 395.632 C 404.194 395.320 402.305 395.637 400.648 396.659 C 397.046 398.883 395.934 403.584 398.158 407.186 C 399.915 410.031 403.218 411.323 406.279 410.648 C 419.540 432.102 437.526 461.228 448.266 478.628 C 448.803 477.967 449.449 477.390 450.206 476.923 M 419.854 393.790 C 417.630 390.188 412.930 389.077 409.328 391.301 M 419.303 402.611 C 421.286 400.167 421.611 396.636 419.854 393.790 M 417.364 404.316 C 418.120 403.849 418.767 403.273 419.303 402.611 C 428.184 416.981 461.317 470.616 461.290 470.591 C 463.530 470.196 467.654 471.208 469.412 474.053 C 471.636 477.656 470.524 482.355 466.922 484.579 C 465.265 485.603 461.560 485.612 461.560 485.612 C 461.145 486.438 459.899 488.916 458.242 489.939 C 454.640 492.163 449.940 491.051 447.716 487.449 C 445.959 484.603 446.284 481.073 448.266 478.628 "/>
<path fill="#ffffff" fill-rule="evenodd" stroke="none" d="M 455.257 497.122 C 457.187 497.382 458.849 498.335 460.057 499.724 C 461.582 498.702 463.436 498.223 465.366 498.482 C 469.562 499.046 472.491 502.886 471.927 507.082 C 471.481 510.396 468.991 512.921 465.920 513.551 C 462.545 538.546 457.980 572.472 455.256 592.738 C 458.062 594.163 459.796 597.255 459.350 600.570 C 458.786 604.765 454.946 607.695 450.751 607.131 C 448.821 606.871 446.674 605.115 445.959 604.530 C 445.959 604.530 442.571 606.030 440.641 605.770 C 436.446 605.206 433.516 601.366 434.081 597.171 C 434.527 593.856 437.882 591.252 440.088 590.701 C 440.074 590.735 448.493 528.256 450.751 511.515 C 447.945 510.090 446.211 506.997 446.657 503.683 C 447.221 499.487 451.061 496.558 455.257 497.122 Z"/>
<path fill="none" stroke="#000000" stroke-width="4" stroke-linecap="round" stroke-linejoin="round" d="M 440.088 590.701 C 440.661 590.574 441.435 590.427 442.220 590.483 M 465.920 513.551 C 465.074 513.725 464.208 513.761 463.327 513.642 M 455.257 497.122 C 457.187 497.382 458.849 498.335 460.057 499.724 C 461.582 498.702 463.436 498.223 465.366 498.482 C 469.562 499.046 472.491 502.886 471.927 507.082 C 471.481 510.396 468.991 512.921 465.920 513.551 C 462.545 538.546 457.980 572.472 455.256 592.738 C 454.497 592.352 453.671 592.089 452.790 591.970 M 446.657 503.683 C 447.221 499.487 451.061 496.558 455.257 497.122 M 450.751 511.515 C 447.945 510.090 446.211 506.997 446.657 503.683 M 453.217 512.282 C 452.336 512.164 451.511 511.901 450.751 511.515 C 448.493 528.256 440.074 590.735 440.088 590.701 C 437.882 591.252 434.527 593.856 434.081 597.171 C 433.516 601.366 436.446 605.206 440.641 605.770 C 442.571 606.030 445.959 604.530 445.959 604.530 C 446.674 605.115 448.821 606.871 450.751 607.131 C 454.946 607.695 458.786 604.765 459.350 600.570 C 459.796 597.255 458.062 594.163 455.256 592.738 "/>
<path fill="#ffffff" fill-rule="evenodd" stroke="#000000" stroke-width="4" stroke-linecap="round" stroke-linejoin="round" d="M 448.816 616.311 C 448.815 616.313 448.816 635.528 448.816 635.530 C 448.823 635.530 521.323 635.530 521.331 635.530 C 521.331 635.529 448.823 616.312 448.816 616.311 Z"/>
<path fill="#ffffff" fill-rule="evenodd" stroke="#000000" stroke-width="4" stroke-linecap="round" stroke-linejoin="round" d="M 520.302 382.136 C 513.998 382.136 508.912 387.222 508.912 393.526 C 508.912 399.831 513.998 404.916 520.302 404.916 C 526.607 404.916 531.692 399.831 531.692 393.526 C 531.692 387.222 526.607 382.136 520.302 382.136 Z"/>
<path fill="#ffffff" fill-rule="evenodd" stroke="#000000" stroke-width="4" stroke-linecap="round" stroke-linejoin="round" d="M 522.820 412.741 C 522.820 412.741 516.224 412.741 516.224 412.741 C 516.224 412.744 516.224 442.974 516.224 442.977 C 516.224 442.977 522.820 442.977 522.820 442.977 C 522.820 442.974 522.820 412.744 522.820 412.741 Z"/>
<path fill="#ffffff" fill-rule="evenodd" stroke="#000000" stroke-width="4" stroke-linecap="round" stroke-linejoin="round" d="M 535.659 407.507 C 535.659 407.507 529.375 409.512 529.375 409.512 C 529.376 409.515 538.567 438.314 538.568 438.316 C 538.568 438.316 544.852 436.311 544.852 436.311 C 544.851 436.308 535.660 407.510 535.659 407.507 Z"/>
<path fill="#ffffff" fill-rule="evenodd" stroke="#000000" stroke-width="4" stroke-linecap="round" stroke-linejoin="round" d="M 510.353 409.590 C 510.352 409.590 504.089 407.522 504.088 407.522 C 504.087 407.525 494.609 436.230 494.608 436.233 C 494.608 436.233 500.871 438.301 500.872 438.301 C 500.873 438.298 510.352 409.593 510.353 409.590 Z"/>
</g>
<g id="specs_2">
<path fill="#ff00ff" fill-rule="evenodd" stroke="none" d="M 284.171 353.037 C 284.187 353.037 435.813 353.037 435.829 353.037 C 435.829 353.021 435.829 201.395 435.829 201.379 C 435.813 201.379 284.187 201.379 284.171 201.379 C 284.171 201.395 284.171 353.021 284.171 353.037 Z"/>
<path fill="#ff0000" fill-rule="evenodd" stroke="none" d="M 360.000 670.375 C 360.001 670.378 371.431 702.383 371.432 702.386 C 371.431 702.385 360.001 691.750 360.000 691.749 C 359.999 691.750 348.569 702.385 348.568 702.386 C 348.569 702.383 359.999 670.378 360.000 670.375 Z"/>
<path fill="#0000ff" fill-rule="evenodd" stroke="none" d="M 360.000 25.041 C 360.001 25.043 366.640 43.634 366.641 43.636 C 366.640 43.635 360.001 37.458 360.000 37.457 C 359.999 37.458 353.360 43.635 353.359 43.636 C 353.360 43.634 359.999 25.043 360.000 25.041 Z"/>
<path fill="#ffff00" fill-rule="evenodd" stroke="none" d="M 197.430 469.677 C 197.429 469.675 190.457 450.857 190.456 450.855 C 190.457 450.856 197.280 457.056 197.281 457.056 C 197.282 457.056 203.957 450.697 203.957 450.696 C 203.957 450.698 197.431 469.675 197.430 469.677 Z"/>
<path fill="#ffff00" fill-rule="evenodd" stroke="none" d="M 522.949 468.636 C 522.949 468.635 529.543 449.681 529.544 449.679 C 529.543 449.679 522.845 456.015 522.845 456.016 C 522.844 456.015 516.043 449.791 516.042 449.790 C 516.043 449.792 522.948 468.635 522.949 468.636 Z"/>
<path fill="#00ff00" fill-rule="evenodd" stroke="none" d="M 459.750 175.531 C 459.749 175.532 456.788 183.893 456.788 183.894 C 456.788 183.894 456.227 179.857 456.227 179.857 C 456.227 179.857 452.161 180.125 452.160 180.125 C 452.161 180.125 459.749 175.531 459.750 175.531 Z"/>
<path fill="#00ff00" fill-rule="evenodd" stroke="none" d="M 260.353 175.808 C 260.353 175.809 263.866 183.954 263.866 183.955 C 263.866 183.955 264.156 179.890 264.156 179.890 C 264.157 179.890 268.232 179.886 268.232 179.886 C 268.231 179.886 260.354 175.809 260.353 175.808 Z"/>
<path fill="#be0027" fill-rule="evenodd" stroke="none" d="M 360.000 446.992 C 360.001 446.989 371.431 414.984 371.432 414.981 C 371.431 414.982 360.001 425.617 360.000 425.618 C 359.999 425.617 348.569 414.982 348.568 414.981 C 348.569 414.984 359.999 446.989 360.000 446.992 Z"/>
</g>
</g>
</svg>
