<?xml version="1.0" encoding="utf-8"?>
<!-- Generator: Moho 13.5 build 20210422 -->
<!DOCTYPE svg PUBLIC "-//W3C//DTD SVG 1.1//EN" "http://www.w3.org/Graphics/SVG/1.1/DTD/svg11.dtd">
<svg version="1.1" id="Frame_0" xmlns="http://www.w3.org/2000/svg" xmlns:xlink="http://www.w3.org/1999/xlink" width="720px" height="720px">
<g id="skeleton">
<g id="skeleton">
<path fill="#ffffff" fill-rule="evenodd" stroke="none" d="M 279.527 192.765 C 280.711 194.112 281.291 195.778 281.291 197.474 C 282.968 197.684 284.547 198.471 285.731 199.817 C 288.306 202.744 288.022 207.182 285.095 209.757 C 282.782 211.791 279.527 212.041 277.011 210.624 C 259.567 225.954 235.898 246.772 221.762 259.210 C 222.851 261.896 222.188 265.092 219.876 267.126 C 216.949 269.701 212.511 269.417 209.936 266.490 C 208.752 265.144 208.321 262.626 208.177 261.787 C 208.177 261.787 204.917 260.783 203.733 259.437 C 201.158 256.510 201.442 252.072 204.369 249.498 C 206.681 247.464 210.586 247.681 212.452 248.631 C 212.422 248.646 256.018 210.314 267.702 200.045 C 266.613 197.359 267.275 194.162 269.587 192.128 C 272.514 189.554 276.953 189.838 279.527 192.765 Z"/>
<path fill="none" stroke="#000000" stroke-width="4" stroke-linecap="round" stroke-linejoin="round" d="M 212.452 248.631 C 212.927 248.889 213.554 249.254 214.065 249.768 M 277.011 210.624 C 276.318 210.234 275.696 209.735 275.155 209.121 M 279.527 192.765 C 280.711 194.112 281.291 195.778 281.291 197.474 C 282.968 197.684 284.547 198.471 285.731 199.817 C 288.306 202.744 288.022 207.182 285.095 209.757 C 282.782 211.791 279.527 212.041 277.011 210.624 C 259.567 225.954 235.898 246.772 221.762 259.210 C 221.468 258.483 221.053 257.802 220.512 257.187 M 269.587 192.128 C 272.514 189.554 276.953 189.838 279.527 192.765 M 267.702 200.045 C 266.613 197.359 267.275 194.162 269.587 192.128 M 268.951 202.068 C 268.411 201.453 267.996 200.772 267.702 200.045 C 256.018 210.314 212.422 248.646 212.452 248.631 C 210.586 247.681 206.681 247.464 204.369 249.498 C 201.442 252.072 201.158 256.510 203.733 259.437 C 204.917 260.783 208.177 261.787 208.177 261.787 C 208.321 262.626 208.752 265.144 209.936 266.490 C 212.511 269.417 216.949 269.701 219.876 267.126 C 222.188 265.092 222.851 261.896 221.762 259.210 "/>
<path fill="#ffffff" fill-rule="evenodd" stroke="#000000" stroke-width="4" stroke-linecap="round" stroke-linejoin="round" d="M 317.927 89.711 C 317.927 79.372 326.268 71.031 336.608 71.031 C 346.948 71.031 355.289 79.372 355.289 89.711 C 355.289 100.051 346.948 108.393 336.608 108.393 C 326.268 108.393 317.927 100.051 317.927 89.711 M 350.081 118.580 C 350.082 118.578 359.951 100.682 359.952 100.680 C 359.953 100.682 369.823 118.578 369.824 118.580 C 369.822 118.580 350.083 118.580 350.081 118.580 M 364.319 89.382 C 364.319 79.119 372.598 70.841 382.861 70.840 C 393.124 70.840 401.403 79.119 401.403 89.382 C 401.403 99.645 393.124 107.924 382.861 107.924 C 372.598 107.924 364.319 99.645 364.319 89.382 M 333.103 154.377 C 333.104 154.374 333.366 135.451 333.434 130.512 C 320.281 121.802 309.659 107.128 309.253 89.663 C 308.624 62.575 332.857 42.522 359.952 42.522 C 387.047 42.522 411.280 62.576 410.651 89.663 C 410.245 107.128 399.623 121.802 386.470 130.512 C 386.539 135.451 386.801 154.374 386.801 154.377 C 386.800 154.377 378.264 154.377 378.264 154.377 C 378.264 154.375 378.264 142.153 378.264 142.152 C 378.263 142.152 375.447 142.152 375.447 142.152 C 375.447 142.153 375.447 154.375 375.447 154.377 C 375.446 154.377 366.996 154.377 366.995 154.377 C 366.995 154.375 366.995 142.153 366.995 142.152 C 366.995 142.152 364.178 142.152 364.178 142.152 C 364.178 142.153 364.178 154.375 364.178 154.377 C 364.177 154.377 355.727 154.377 355.726 154.377 C 355.726 154.375 355.726 142.153 355.726 142.152 C 355.726 142.152 352.910 142.152 352.909 142.152 C 352.909 142.153 352.909 154.375 352.909 154.377 C 352.908 154.377 344.458 154.377 344.457 154.377 C 344.457 154.375 344.458 142.153 344.458 142.152 C 344.458 142.152 341.641 142.152 341.641 142.152 C 341.641 142.153 341.641 154.375 341.641 154.377 C 341.640 154.377 333.104 154.377 333.103 154.377 Z"/>
<path fill="#ffffff" fill-rule="evenodd" stroke="none" d="M 198.067 274.357 C 199.859 274.399 201.477 275.102 202.724 276.251 C 204.016 275.161 205.664 274.534 207.457 274.576 C 211.354 274.666 214.424 277.884 214.334 281.781 C 214.262 284.859 212.239 287.422 209.493 288.311 C 208.940 311.529 208.204 343.041 207.768 361.865 C 210.481 362.885 212.382 365.539 212.310 368.617 C 212.219 372.514 209.002 375.585 205.105 375.494 C 203.312 375.452 201.169 374.063 200.455 373.600 C 200.455 373.600 197.507 375.317 195.715 375.275 C 191.818 375.185 188.747 371.967 188.838 368.070 C 188.910 364.992 191.716 362.268 193.679 361.540 C 193.669 361.572 195.036 303.537 195.404 287.987 C 192.691 286.967 190.790 284.313 190.862 281.234 C 190.952 277.337 194.170 274.267 198.067 274.357 Z"/>
<path fill="none" stroke="#000000" stroke-width="4" stroke-linecap="round" stroke-linejoin="round" d="M 193.679 361.540 C 194.191 361.366 194.884 361.152 195.609 361.124 M 209.493 288.311 C 208.736 288.557 207.947 288.677 207.129 288.658 M 198.067 274.357 C 199.859 274.399 201.477 275.102 202.724 276.251 C 204.016 275.161 205.664 274.534 207.457 274.576 C 211.354 274.666 214.424 277.884 214.334 281.781 C 214.262 284.859 212.239 287.422 209.493 288.311 C 208.940 311.529 208.204 343.041 207.768 361.865 C 207.034 361.589 206.252 361.432 205.433 361.413 M 190.862 281.234 C 190.952 277.337 194.170 274.267 198.067 274.357 M 195.404 287.987 C 192.691 286.967 190.790 284.313 190.862 281.234 M 197.738 288.439 C 196.920 288.420 196.138 288.263 195.404 287.987 C 195.036 303.537 193.669 361.572 193.679 361.540 C 191.716 362.268 188.910 364.992 188.838 368.070 C 188.747 371.967 191.818 375.185 195.715 375.275 C 197.507 375.317 200.455 373.600 200.455 373.600 C 201.169 374.063 203.312 375.452 205.105 375.494 C 209.002 375.585 212.219 372.514 212.310 368.617 C 212.382 365.539 210.481 362.885 207.768 361.865 "/>
<path fill="#ffffff" fill-rule="evenodd" stroke="#000000" stroke-width="4" stroke-linecap="round" stroke-linejoin="round" d="M 290.317 614.079 C 296.630 614.079 301.722 619.171 301.722 625.484 C 301.722 631.796 296.630 636.888 290.317 636.888 C 284.005 636.888 278.914 631.796 278.914 625.484 C 278.914 619.172 284.005 614.080 290.317 614.079 Z"/>
<path fill="#ffffff" fill-rule="evenodd" stroke="#000000" stroke-width="4" stroke-linecap="round" stroke-linejoin="round" d="M 350.681 161.834 C 350.683 161.834 369.222 161.834 369.224 161.834 C 369.224 161.836 369.224 180.375 369.224 180.376 C 369.222 180.376 350.683 180.376 350.681 180.376 C 350.681 180.375 350.681 161.836 350.681 161.834 Z"/>
<path fill="#ffffff" fill-rule="evenodd" stroke="#000000" stroke-width="4" stroke-linecap="round" stroke-linejoin="round" d="M 350.681 190.331 C 350.683 190.331 369.222 190.331 369.224 190.331 C 369.224 190.333 369.224 208.872 369.224 208.874 C 369.222 208.874 350.683 208.874 350.681 208.874 C 350.681 208.872 350.681 190.333 350.681 190.331 Z"/>
<path fill="#ffffff" fill-rule="evenodd" stroke="#000000" stroke-width="4" stroke-linecap="round" stroke-linejoin="round" d="M 350.681 218.828 C 350.683 218.828 369.222 218.828 369.224 218.828 C 369.224 218.830 369.224 237.369 369.224 237.371 C 369.222 237.371 350.683 237.371 350.681 237.371 C 350.681 237.369 350.681 218.830 350.681 218.828 Z"/>
<path fill="#ffffff" fill-rule="evenodd" stroke="#000000" stroke-width="4" stroke-linecap="round" stroke-linejoin="round" d="M 350.681 248.362 C 350.683 248.362 369.222 248.362 369.224 248.362 C 369.224 248.364 369.224 266.903 369.224 266.905 C 369.222 266.905 350.683 266.905 350.681 266.905 C 350.681 266.903 350.681 248.364 350.681 248.362 Z"/>
<path fill="#ffffff" fill-rule="evenodd" stroke="#000000" stroke-width="4" stroke-linecap="round" stroke-linejoin="round" d="M 350.681 277.896 C 350.683 277.896 369.222 277.896 369.224 277.896 C 369.224 277.898 369.224 296.437 369.224 296.439 C 369.222 296.439 350.683 296.439 350.681 296.439 C 350.681 296.437 350.681 277.898 350.681 277.896 Z"/>
<path fill="#ffffff" fill-rule="evenodd" stroke="#000000" stroke-width="4" stroke-linecap="round" stroke-linejoin="round" d="M 350.681 306.911 C 350.683 306.911 369.222 306.911 369.224 306.911 C 369.224 306.913 369.224 325.452 369.224 325.454 C 369.222 325.454 350.683 325.454 350.681 325.454 C 350.681 325.452 350.681 306.913 350.681 306.911 Z"/>
<path fill="#ffffff" fill-rule="evenodd" stroke="#000000" stroke-width="4" stroke-linecap="round" stroke-linejoin="round" d="M 333.837 330.683 C 345.001 330.701 354.741 336.628 359.954 345.331 C 365.460 337.005 375.073 330.684 386.068 330.684 C 402.983 330.684 416.628 344.329 416.628 361.244 C 416.628 378.159 402.983 391.805 386.068 391.805 C 372.850 391.805 359.954 377.158 359.954 377.158 C 356.215 380.820 345.001 391.805 333.837 391.805 C 316.922 391.805 303.276 378.159 303.276 361.244 C 303.276 344.329 319.528 330.661 333.837 330.683 M 374.143 361.244 C 374.143 354.644 379.467 349.320 386.068 349.320 C 392.668 349.320 397.992 354.644 397.992 361.244 C 397.992 367.845 392.668 373.169 386.068 373.169 C 379.467 373.169 374.143 367.844 374.143 361.244 M 321.912 361.244 C 321.912 354.644 327.237 349.320 333.837 349.320 C 340.437 349.320 345.761 354.644 345.761 361.244 C 345.761 367.844 340.437 373.169 333.837 373.169 C 327.237 373.169 321.912 367.844 321.912 361.244 Z"/>
<path fill="#ffffff" fill-rule="evenodd" stroke="#000000" stroke-width="4" stroke-linecap="round" stroke-linejoin="round" d="M 380.336 188.928 C 388.433 192.213 415.815 191.859 423.920 188.928 C 425.435 188.380 429.184 194.498 423.920 200.846 C 420.159 205.382 385.413 205.510 380.336 200.846 C 375.651 196.542 378.843 188.323 380.336 188.928 Z"/>
<path fill="#ffffff" fill-rule="evenodd" stroke="#000000" stroke-width="4" stroke-linecap="round" stroke-linejoin="round" d="M 380.336 215.872 C 388.433 219.157 415.815 218.802 423.920 215.872 C 425.435 215.324 429.184 221.441 423.920 227.788 C 420.159 232.325 385.413 232.453 380.336 227.788 C 375.652 223.485 378.843 215.266 380.336 215.872 Z"/>
<path fill="#ffffff" fill-rule="evenodd" stroke="#000000" stroke-width="4" stroke-linecap="round" stroke-linejoin="round" d="M 380.336 243.333 C 388.433 246.618 415.815 246.263 423.920 243.333 C 425.435 242.785 429.184 248.902 423.920 255.250 C 420.159 259.786 385.413 259.914 380.336 255.250 C 375.651 250.946 378.843 242.727 380.336 243.333 Z"/>
<path fill="#ffffff" fill-rule="evenodd" stroke="#000000" stroke-width="4" stroke-linecap="round" stroke-linejoin="round" d="M 339.691 188.928 C 331.594 192.213 304.212 191.859 296.107 188.928 C 294.591 188.380 290.843 194.498 296.107 200.846 C 299.868 205.382 334.614 205.510 339.691 200.846 C 344.375 196.542 341.184 188.323 339.691 188.928 Z"/>
<path fill="#ffffff" fill-rule="evenodd" stroke="#000000" stroke-width="4" stroke-linecap="round" stroke-linejoin="round" d="M 339.691 215.872 C 331.594 219.157 304.212 218.802 296.107 215.872 C 294.592 215.324 290.843 221.441 296.107 227.788 C 299.868 232.325 334.614 232.453 339.691 227.788 C 344.375 223.485 341.184 215.266 339.691 215.872 Z"/>
<path fill="#ffffff" fill-rule="evenodd" stroke="#000000" stroke-width="4" stroke-linecap="round" stroke-linejoin="round" d="M 339.691 243.333 C 331.594 246.618 304.212 246.263 296.107 243.333 C 294.591 242.785 290.843 248.902 296.107 255.250 C 299.868 259.786 334.614 259.914 339.691 255.250 C 344.375 250.946 341.184 242.727 339.691 243.333 Z"/>
<path fill="#ffffff" fill-rule="evenodd" stroke="none" d="M 310.611 391.340 C 312.270 392.364 313.402 393.913 313.941 395.676 C 315.751 395.363 317.642 395.681 319.301 396.705 C 322.908 398.932 324.021 403.638 321.794 407.245 C 320.035 410.094 316.729 411.387 313.663 410.711 C 300.386 432.191 282.378 461.354 271.624 478.776 C 273.608 481.224 273.934 484.758 272.175 487.608 C 269.948 491.214 265.242 492.327 261.635 490.100 C 259.976 489.076 258.729 486.595 258.314 485.768 C 258.314 485.768 254.604 485.759 252.945 484.735 C 249.338 482.508 248.225 477.802 250.452 474.196 C 252.211 471.346 256.341 470.333 258.584 470.729 C 258.557 470.753 291.732 417.052 300.623 402.664 C 298.638 400.217 298.312 396.681 300.072 393.832 C 302.299 390.225 307.004 389.113 310.611 391.340 Z"/>
<path fill="none" stroke="#000000" stroke-width="4" stroke-linecap="round" stroke-linejoin="round" d="M 258.584 470.729 C 259.159 470.846 259.927 471.027 260.622 471.399 M 313.663 410.711 C 312.818 410.525 312.013 410.205 311.255 409.737 M 310.611 391.340 C 312.270 392.364 313.402 393.913 313.941 395.676 C 315.751 395.363 317.642 395.681 319.301 396.705 C 322.908 398.932 324.021 403.638 321.794 407.245 C 320.035 410.094 316.729 411.387 313.663 410.711 C 300.386 432.191 282.378 461.354 271.624 478.776 C 271.087 478.113 270.439 477.536 269.682 477.069 M 300.072 393.832 C 302.299 390.225 307.004 389.113 310.611 391.340 M 300.623 402.664 C 298.638 400.217 298.312 396.681 300.072 393.832 M 302.565 404.371 C 301.808 403.904 301.160 403.327 300.623 402.664 C 291.732 417.052 258.557 470.753 258.584 470.729 C 256.341 470.333 252.211 471.346 250.452 474.196 C 248.225 477.802 249.338 482.508 252.945 484.735 C 254.604 485.759 258.314 485.768 258.314 485.768 C 258.729 486.595 259.976 489.076 261.635 490.100 C 265.242 492.327 269.948 491.214 272.175 487.608 C 273.934 484.758 273.608 481.224 271.624 478.776 "/>
<path fill="#ffffff" fill-rule="evenodd" stroke="none" d="M 264.625 497.293 C 262.692 497.553 261.028 498.507 259.818 499.898 C 258.292 498.875 256.435 498.395 254.503 498.655 C 250.302 499.220 247.369 503.064 247.934 507.265 C 248.380 510.584 250.873 513.111 253.949 513.743 C 257.327 538.768 261.898 572.736 264.625 593.028 C 261.816 594.455 260.080 597.551 260.526 600.869 C 261.091 605.070 264.935 608.003 269.136 607.438 C 271.069 607.178 273.218 605.420 273.934 604.834 C 273.934 604.834 277.326 606.336 279.258 606.076 C 283.459 605.511 286.392 601.667 285.827 597.466 C 285.381 594.147 282.021 591.540 279.812 590.988 C 279.827 591.022 271.397 528.465 269.136 511.704 C 271.945 510.277 273.682 507.180 273.235 503.861 C 272.670 499.661 268.825 496.728 264.625 497.293 Z"/>
<path fill="none" stroke="#000000" stroke-width="4" stroke-linecap="round" stroke-linejoin="round" d="M 279.812 590.988 C 279.239 590.861 278.464 590.714 277.677 590.771 M 253.949 513.743 C 254.796 513.917 255.662 513.952 256.544 513.834 M 264.625 497.293 C 262.692 497.553 261.028 498.507 259.818 499.898 C 258.292 498.875 256.435 498.395 254.503 498.655 C 250.302 499.220 247.369 503.064 247.934 507.265 C 248.380 510.584 250.873 513.111 253.949 513.743 C 257.327 538.768 261.898 572.736 264.625 593.028 C 265.386 592.641 266.212 592.378 267.094 592.259 M 273.235 503.861 C 272.670 499.661 268.825 496.728 264.625 497.293 M 269.136 511.704 C 271.945 510.277 273.682 507.180 273.235 503.861 M 266.667 512.472 C 267.549 512.353 268.375 512.090 269.136 511.704 C 271.397 528.465 279.827 591.022 279.812 590.988 C 282.021 591.540 285.381 594.147 285.827 597.466 C 286.392 601.667 283.459 605.511 279.258 606.076 C 277.326 606.336 273.934 604.834 273.934 604.834 C 273.218 605.420 271.069 607.178 269.136 607.438 C 264.935 608.003 261.091 605.070 260.526 600.869 C 260.080 597.551 261.816 594.455 264.625 593.028 "/>
<path fill="#ffffff" fill-rule="evenodd" stroke="#000000" stroke-width="4" stroke-linecap="round" stroke-linejoin="round" d="M 199.498 382.164 C 205.810 382.164 210.902 387.256 210.902 393.568 C 210.902 399.880 205.810 404.972 199.498 404.972 C 193.186 404.972 188.094 399.880 188.094 393.568 C 188.094 387.256 193.186 382.164 199.498 382.164 Z"/>
<path fill="#ffffff" fill-rule="evenodd" stroke="#000000" stroke-width="4" stroke-linecap="round" stroke-linejoin="round" d="M 196.977 412.807 C 196.977 412.807 203.581 412.807 203.582 412.807 C 203.582 412.810 203.582 443.077 203.582 443.080 C 203.581 443.080 196.977 443.080 196.977 443.080 C 196.977 443.077 196.977 412.810 196.977 412.807 Z"/>
<path fill="#ffffff" fill-rule="evenodd" stroke="#000000" stroke-width="4" stroke-linecap="round" stroke-linejoin="round" d="M 184.122 407.565 C 184.123 407.566 190.414 409.574 190.414 409.574 C 190.413 409.577 181.211 438.411 181.210 438.414 C 181.209 438.414 174.918 436.406 174.918 436.406 C 174.919 436.403 184.121 407.568 184.122 407.565 Z"/>
<path fill="#ffffff" fill-rule="evenodd" stroke="#000000" stroke-width="4" stroke-linecap="round" stroke-linejoin="round" d="M 209.460 409.652 C 209.461 409.652 215.732 407.581 215.732 407.581 C 215.733 407.584 225.224 436.324 225.225 436.327 C 225.224 436.328 218.953 438.398 218.952 438.398 C 218.952 438.396 209.461 409.655 209.460 409.652 Z"/>
<path fill="#ffffff" fill-rule="evenodd" stroke="none" d="M 440.473 192.765 C 439.289 194.112 438.709 195.778 438.709 197.474 C 437.032 197.684 435.453 198.471 434.269 199.818 C 431.694 202.745 431.979 207.183 434.905 209.757 C 437.218 211.791 440.473 212.041 442.989 210.624 C 460.433 225.954 484.102 246.772 498.238 259.210 C 497.149 261.896 497.812 265.092 500.124 267.126 C 503.051 269.701 507.489 269.417 510.064 266.490 C 511.248 265.144 511.679 262.627 511.823 261.788 C 511.823 261.788 515.083 260.783 516.267 259.437 C 518.842 256.510 518.558 252.072 515.631 249.498 C 513.319 247.464 509.414 247.681 507.548 248.631 C 507.579 248.646 463.982 210.314 452.298 200.045 C 453.387 197.360 452.725 194.162 450.413 192.128 C 447.486 189.554 443.047 189.838 440.473 192.765 Z"/>
<path fill="none" stroke="#000000" stroke-width="4" stroke-linecap="round" stroke-linejoin="round" d="M 507.548 248.631 C 507.074 248.889 506.446 249.254 505.935 249.768 M 442.989 210.624 C 443.682 210.234 444.304 209.736 444.845 209.121 M 440.473 192.765 C 439.289 194.112 438.709 195.778 438.709 197.474 C 437.032 197.684 435.453 198.471 434.269 199.818 C 431.694 202.745 431.979 207.183 434.905 209.757 C 437.218 211.791 440.473 212.041 442.989 210.624 C 460.433 225.954 484.102 246.772 498.238 259.210 C 498.532 258.483 498.947 257.802 499.488 257.187 M 450.413 192.128 C 447.486 189.554 443.047 189.838 440.473 192.765 M 452.298 200.045 C 453.387 197.360 452.725 194.162 450.413 192.128 M 451.049 202.068 C 451.589 201.454 452.004 200.772 452.298 200.045 C 463.982 210.314 507.579 248.646 507.548 248.631 C 509.414 247.681 513.319 247.464 515.631 249.498 C 518.558 252.072 518.842 256.510 516.267 259.437 C 515.083 260.783 511.823 261.788 511.823 261.788 C 511.679 262.627 511.248 265.144 510.064 266.490 C 507.489 269.417 503.051 269.701 500.124 267.126 C 497.812 265.092 497.149 261.896 498.238 259.210 "/>
<path fill="#ffffff" fill-rule="evenodd" stroke="none" d="M 521.933 274.357 C 520.141 274.399 518.523 275.102 517.276 276.251 C 515.984 275.161 514.336 274.534 512.543 274.576 C 508.646 274.667 505.576 277.884 505.666 281.781 C 505.738 284.859 507.761 287.422 510.507 288.311 C 511.060 311.529 511.796 343.041 512.232 361.865 C 509.519 362.885 507.618 365.539 507.690 368.617 C 507.781 372.514 510.998 375.585 514.895 375.494 C 516.687 375.452 518.830 374.063 519.544 373.600 C 519.544 373.600 522.492 375.317 524.285 375.275 C 528.182 375.185 531.253 371.968 531.162 368.070 C 531.090 364.992 528.284 362.268 526.321 361.540 C 526.331 361.572 524.964 303.537 524.596 287.987 C 527.309 286.967 529.210 284.313 529.138 281.234 C 529.048 277.337 525.830 274.267 521.933 274.357 Z"/>
<path fill="none" stroke="#000000" stroke-width="4" stroke-linecap="round" stroke-linejoin="round" d="M 526.321 361.540 C 525.809 361.366 525.116 361.152 524.391 361.124 M 510.507 288.311 C 511.264 288.557 512.053 288.677 512.871 288.658 M 521.933 274.357 C 520.141 274.399 518.523 275.102 517.276 276.251 C 515.984 275.161 514.336 274.534 512.543 274.576 C 508.646 274.667 505.576 277.884 505.666 281.781 C 505.738 284.859 507.761 287.422 510.507 288.311 C 511.060 311.529 511.796 343.041 512.232 361.865 C 512.966 361.589 513.748 361.432 514.567 361.413 M 529.138 281.234 C 529.048 277.337 525.830 274.267 521.933 274.357 M 524.596 287.987 C 527.309 286.967 529.210 284.313 529.138 281.234 M 522.261 288.439 C 523.080 288.420 523.862 288.263 524.596 287.987 C 524.964 303.537 526.331 361.572 526.321 361.540 C 528.284 362.268 531.090 364.992 531.162 368.070 C 531.253 371.968 528.182 375.185 524.285 375.275 C 522.492 375.317 519.544 373.600 519.544 373.600 C 518.830 374.063 516.687 375.452 514.895 375.494 C 510.998 375.585 507.781 372.514 507.690 368.617 C 507.618 365.539 509.519 362.885 512.232 361.865 "/>
<path fill="#ffffff" fill-rule="evenodd" stroke="#000000" stroke-width="4" stroke-linecap="round" stroke-linejoin="round" d="M 429.683 614.079 C 423.370 614.079 418.278 619.171 418.278 625.484 C 418.278 631.796 423.370 636.888 429.683 636.888 C 435.995 636.888 441.086 631.796 441.086 625.484 C 441.086 619.172 435.995 614.080 429.683 614.079 Z"/>
<path fill="#ffffff" fill-rule="evenodd" stroke="none" d="M 409.389 391.340 C 407.730 392.364 406.598 393.913 406.059 395.676 C 404.249 395.363 402.358 395.681 400.699 396.705 C 397.092 398.932 395.979 403.638 398.206 407.245 C 399.965 410.094 403.271 411.387 406.337 410.711 C 419.614 432.191 437.622 461.354 448.376 478.776 C 446.392 481.224 446.066 484.758 447.825 487.608 C 450.052 491.214 454.758 492.327 458.365 490.100 C 460.024 489.076 461.271 486.595 461.686 485.768 C 461.686 485.768 465.396 485.759 467.055 484.735 C 470.662 482.508 471.775 477.802 469.548 474.196 C 467.789 471.346 463.659 470.333 461.417 470.729 C 461.443 470.753 428.268 417.052 419.377 402.664 C 421.362 400.217 421.688 396.681 419.928 393.832 C 417.701 390.225 412.996 389.113 409.389 391.340 Z"/>
<path fill="none" stroke="#000000" stroke-width="4" stroke-linecap="round" stroke-linejoin="round" d="M 461.417 470.729 C 460.841 470.846 460.073 471.027 459.378 471.399 M 406.337 410.711 C 407.182 410.525 407.987 410.205 408.745 409.737 M 409.389 391.340 C 407.730 392.364 406.598 393.913 406.059 395.676 C 404.249 395.363 402.358 395.681 400.699 396.705 C 397.092 398.932 395.979 403.638 398.206 407.245 C 399.965 410.094 403.271 411.387 406.337 410.711 C 419.614 432.191 437.622 461.354 448.376 478.776 C 448.913 478.113 449.561 477.536 450.318 477.069 M 419.928 393.832 C 417.701 390.225 412.996 389.113 409.389 391.340 M 419.377 402.664 C 421.362 400.217 421.688 396.681 419.928 393.832 M 417.435 404.371 C 418.192 403.904 418.840 403.327 419.377 402.664 C 428.268 417.052 461.443 470.753 461.417 470.729 C 463.659 470.333 467.789 471.346 469.548 474.196 C 471.775 477.802 470.662 482.508 467.055 484.735 C 465.396 485.759 461.686 485.768 461.686 485.768 C 461.271 486.595 460.024 489.076 458.365 490.100 C 454.758 492.327 450.052 491.214 447.825 487.608 C 446.066 484.758 446.392 481.224 448.376 478.776 "/>
<path fill="#ffffff" fill-rule="evenodd" stroke="none" d="M 455.375 497.293 C 457.308 497.553 458.972 498.507 460.182 499.898 C 461.708 498.875 463.565 498.395 465.497 498.655 C 469.698 499.220 472.631 503.064 472.066 507.265 C 471.620 510.584 469.127 513.111 466.052 513.743 C 462.673 538.768 458.102 572.736 455.375 593.028 C 458.184 594.455 459.920 597.551 459.474 600.869 C 458.909 605.070 455.065 608.003 450.864 607.438 C 448.932 607.178 446.782 605.420 446.066 604.834 C 446.066 604.834 442.674 606.336 440.742 606.076 C 436.541 605.511 433.608 601.667 434.173 597.466 C 434.619 594.147 437.979 591.540 440.188 590.988 C 440.173 591.022 448.603 528.465 450.865 511.704 C 448.055 510.277 446.318 507.180 446.765 503.861 C 447.330 499.661 451.175 496.728 455.375 497.293 Z"/>
<path fill="none" stroke="#000000" stroke-width="4" stroke-linecap="round" stroke-linejoin="round" d="M 440.188 590.988 C 440.761 590.861 441.536 590.714 442.323 590.771 M 466.052 513.743 C 465.204 513.917 464.338 513.952 463.456 513.834 M 455.375 497.293 C 457.308 497.553 458.972 498.507 460.182 499.898 C 461.708 498.875 463.565 498.395 465.497 498.655 C 469.698 499.220 472.631 503.064 472.066 507.265 C 471.620 510.584 469.127 513.111 466.052 513.743 C 462.673 538.768 458.102 572.736 455.375 593.028 C 454.614 592.641 453.788 592.378 452.906 592.259 M 446.765 503.861 C 447.330 499.661 451.175 496.728 455.375 497.293 M 450.865 511.704 C 448.055 510.277 446.318 507.180 446.765 503.861 M 453.333 512.472 C 452.451 512.353 451.625 512.090 450.865 511.704 C 448.603 528.465 440.173 591.022 440.188 590.988 C 437.979 591.540 434.619 594.147 434.173 597.466 C 433.608 601.667 436.541 605.511 440.742 606.076 C 442.674 606.336 446.066 604.834 446.066 604.834 C 446.782 605.420 448.932 607.178 450.864 607.438 C 455.065 608.003 458.909 605.070 459.474 600.869 C 459.920 597.551 458.184 594.455 455.375 593.028 "/>
<path fill="#ffffff" fill-rule="evenodd" stroke="#000000" stroke-width="4" stroke-linecap="round" stroke-linejoin="round" d="M 488.027 625.672 C 488.027 625.673 488.027 637.388 488.027 637.389 C 488.030 637.389 515.350 637.389 515.353 637.389 C 515.350 637.388 488.030 625.672 488.027 625.672 Z"/>
<path fill="#ffffff" fill-rule="evenodd" stroke="#000000" stroke-width="4" stroke-linecap="round" stroke-linejoin="round" d="M 520.502 382.164 C 514.190 382.164 509.098 387.256 509.098 393.568 C 509.098 399.880 514.190 404.972 520.502 404.972 C 526.814 404.972 531.906 399.880 531.906 393.568 C 531.906 387.256 526.814 382.164 520.502 382.164 Z"/>
<path fill="#ffffff" fill-rule="evenodd" stroke="#000000" stroke-width="4" stroke-linecap="round" stroke-linejoin="round" d="M 523.023 412.807 C 523.023 412.807 516.419 412.807 516.418 412.807 C 516.418 412.810 516.418 443.077 516.418 443.080 C 516.419 443.080 523.023 443.080 523.023 443.080 C 523.023 443.077 523.023 412.810 523.023 412.807 Z"/>
<path fill="#ffffff" fill-rule="evenodd" stroke="#000000" stroke-width="4" stroke-linecap="round" stroke-linejoin="round" d="M 535.878 407.566 C 535.878 407.566 529.586 409.574 529.586 409.574 C 529.587 409.577 538.789 438.411 538.790 438.414 C 538.791 438.414 545.082 436.406 545.082 436.406 C 545.081 436.403 535.879 407.569 535.878 407.566 Z"/>
<path fill="#ffffff" fill-rule="evenodd" stroke="#000000" stroke-width="4" stroke-linecap="round" stroke-linejoin="round" d="M 510.540 409.652 C 510.539 409.652 504.269 407.581 504.268 407.581 C 504.267 407.584 494.776 436.324 494.776 436.327 C 494.776 436.328 501.047 438.398 501.048 438.398 C 501.048 438.396 510.539 409.655 510.540 409.652 Z"/>
<path fill="#ffffff" fill-rule="evenodd" stroke="#000000" stroke-width="4" stroke-linejoin="round" d="M 448.202 615.263 C 448.205 615.264 479.256 624.360 479.259 624.361 C 479.259 624.362 479.865 637.097 479.865 637.098 C 479.862 637.098 448.206 637.098 448.202 637.098 C 448.202 637.096 448.202 615.266 448.202 615.263 Z"/>
<path fill="#ffffff" fill-rule="evenodd" stroke="#000000" stroke-width="4" stroke-linecap="round" stroke-linejoin="round" d="M 231.973 625.672 C 231.973 625.673 231.973 637.388 231.973 637.389 C 231.970 637.389 204.650 637.389 204.647 637.389 C 204.650 637.388 231.970 625.672 231.973 625.672 Z"/>
<path fill="#ffffff" fill-rule="evenodd" stroke="#000000" stroke-width="4" stroke-linejoin="round" d="M 271.798 615.263 C 271.795 615.264 240.744 624.360 240.741 624.361 C 240.741 624.362 240.135 637.097 240.135 637.098 C 240.138 637.098 271.794 637.098 271.798 637.098 C 271.798 637.096 271.798 615.266 271.798 615.263 Z"/>
</g>
<g id="specs_2">
<path fill="#ff00ff" fill-rule="evenodd" stroke="none" d="M 284.077 353.028 C 284.092 353.028 435.908 353.028 435.923 353.028 C 435.923 353.013 435.923 201.197 435.923 201.182 C 435.908 201.182 284.092 201.182 284.077 201.182 C 284.077 201.197 284.077 353.013 284.077 353.028 Z"/>
<path fill="#ff0000" fill-rule="evenodd" stroke="none" d="M 360.000 670.761 C 360.001 670.765 371.446 702.810 371.447 702.813 C 371.446 702.812 360.001 692.164 360.000 692.162 C 359.999 692.164 348.555 702.812 348.553 702.813 C 348.555 702.810 359.999 670.765 360.000 670.761 Z"/>
<path fill="#0000ff" fill-rule="evenodd" stroke="none" d="M 360.000 24.623 C 360.001 24.625 366.648 43.240 366.649 43.241 C 366.648 43.241 360.001 37.056 360.000 37.055 C 359.999 37.056 353.352 43.241 353.351 43.241 C 353.352 43.240 359.999 24.625 360.000 24.623 Z"/>
<path fill="#00ff00" fill-rule="evenodd" stroke="none" d="M 459.874 175.301 C 459.874 175.302 456.909 183.674 456.909 183.674 C 456.909 183.674 456.347 179.633 456.347 179.632 C 456.347 179.632 452.275 179.901 452.275 179.901 C 452.276 179.901 459.873 175.301 459.874 175.301 Z"/>
<path fill="#00ff00" fill-rule="evenodd" stroke="none" d="M 260.229 175.578 C 260.229 175.579 263.746 183.735 263.746 183.736 C 263.746 183.735 264.037 179.666 264.037 179.665 C 264.037 179.665 268.117 179.662 268.118 179.662 C 268.117 179.661 260.230 175.579 260.229 175.578 Z"/>
<path fill="#00ffff" fill-rule="evenodd" stroke="none" d="M 702.112 619.639 C 702.112 619.641 708.760 638.255 708.761 638.257 C 708.760 638.257 702.112 632.071 702.112 632.071 C 702.111 632.071 695.463 638.257 695.463 638.257 C 695.463 638.255 702.111 619.641 702.112 619.639 Z"/>
<path fill="#00ffff" fill-rule="evenodd" stroke="none" d="M 17.888 619.639 C 17.888 619.641 11.240 638.255 11.239 638.257 C 11.240 638.256 17.888 632.071 17.888 632.071 C 17.889 632.071 24.537 638.256 24.537 638.257 C 24.537 638.255 17.889 619.641 17.888 619.639 Z"/>
</g>
</g>
</svg>
