<?xml version="1.0" encoding="utf-8"?>
<!-- Generator: Moho 12.5 build 22414 -->
<!DOCTYPE svg PUBLIC "-//W3C//DTD SVG 1.1//EN" "http://www.w3.org/Graphics/SVG/1.1/DTD/svg11.dtd">
<svg version="1.1" id="Frame_0" xmlns="http://www.w3.org/2000/svg" xmlns:xlink="http://www.w3.org/1999/xlink" width="720px" height="720px">
<g id="spiderweb_2">
<g id="spiderweb_2">
<path fill="none" stroke="#000000" stroke-width="4" stroke-linecap="round" stroke-linejoin="round" d="M 362.823 360.482 C 362.830 360.480 438.142 340.668 438.149 340.666 C 438.155 340.660 498.959 284.149 498.965 284.143 C 498.967 284.135 512.615 229.906 519.440 202.787 C 519.436 202.787 479.955 202.833 479.951 202.833 C 474.894 223.357 464.782 264.400 464.781 264.406 C 464.776 264.411 418.431 306.423 418.426 306.427 C 418.421 306.429 362.799 320.967 362.794 320.969 C 362.794 320.965 362.832 281.460 362.832 281.456 C 362.836 281.455 398.700 272.190 398.703 272.189 C 398.706 272.186 430.593 244.673 430.596 244.670 C 430.597 244.666 437.174 216.809 440.463 202.878 C 440.459 202.878 400.978 202.924 400.974 202.924 C 399.453 209.766 396.412 223.447 396.411 223.449 C 396.410 223.450 378.982 238.691 378.980 238.693 C 378.979 238.693 362.873 242.686 362.871 242.686 C 362.871 242.682 361.485 202.974 361.485 202.970 C 361.486 202.973 378.979 238.689 378.980 238.693 C 378.982 238.696 398.701 272.186 398.703 272.189 C 398.705 272.192 418.424 306.424 418.426 306.427 C 418.428 306.431 438.147 340.662 438.149 340.666 C 438.151 340.669 457.870 374.900 457.872 374.904 C 457.863 374.906 362.871 399.992 362.861 399.994 C 362.861 399.990 362.823 360.486 362.823 360.482 C 362.823 360.478 362.794 320.973 362.794 320.969 M 362.900 439.507 C 362.911 439.504 477.584 409.145 477.595 409.142 C 477.604 409.134 567.326 323.624 567.335 323.616 C 567.338 323.604 588.057 243.003 598.418 202.696 C 598.414 202.696 558.933 202.742 558.929 202.742 C 550.336 236.454 533.153 303.869 533.150 303.879 C 533.142 303.886 457.880 374.897 457.872 374.904 C 457.874 374.907 477.593 409.139 477.595 409.142 C 477.597 409.146 497.316 443.377 497.318 443.380 C 497.305 443.384 362.952 479.017 362.938 479.020 C 362.938 479.016 362.900 439.511 362.900 439.507 C 362.900 439.503 362.861 399.998 362.861 399.994 M 497.318 443.380 C 497.328 443.370 601.509 343.363 601.519 343.353 C 601.523 343.338 625.778 249.551 637.907 202.651 C 637.903 202.651 598.422 202.696 598.418 202.696 M 517.041 477.619 C 510.467 466.206 497.320 443.384 497.318 443.380 M 362.871 242.686 C 362.871 242.690 362.832 281.452 362.832 281.456 M 362.938 479.020 C 362.938 479.024 362.713 505.362 362.601 518.533 M 635.704 363.089 C 635.700 363.087 601.523 343.355 601.519 343.353 C 601.516 343.351 567.338 323.618 567.335 323.616 C 567.331 323.614 533.153 303.881 533.150 303.879 C 533.146 303.877 498.969 284.145 498.965 284.143 C 498.962 284.141 464.784 264.408 464.781 264.406 C 464.777 264.404 430.600 244.672 430.596 244.670 C 430.593 244.668 396.415 223.451 396.411 223.449 C 396.408 223.447 361.488 202.972 361.485 202.970 C 361.489 202.970 400.970 202.924 400.974 202.924 M 440.463 202.878 C 440.466 202.878 479.947 202.833 479.951 202.833 M 519.440 202.787 C 519.444 202.787 558.925 202.742 558.929 202.742 M 637.907 202.651 C 637.911 202.651 677.392 202.605 677.396 202.605 "/>
<path fill="none" stroke="#000000" stroke-width="4" stroke-linecap="round" stroke-linejoin="round" d="M 362.832 281.456 C 362.828 281.455 320.940 272.932 320.936 272.931 C 320.933 272.928 289.788 243.930 289.785 243.927 C 289.784 243.923 282.218 217.056 278.434 203.621 C 278.438 203.621 317.919 203.666 317.923 203.666 C 319.939 210.013 323.970 222.704 323.970 222.706 C 323.972 222.708 341.400 238.691 341.401 238.693 C 341.403 238.693 362.869 242.686 362.871 242.686 M 202.598 478.361 C 209.173 466.949 222.319 444.126 222.321 444.123 C 222.323 444.119 242.042 409.888 242.044 409.885 C 242.046 409.881 261.765 375.650 261.767 375.646 C 261.760 375.639 187.239 303.144 187.232 303.137 C 187.229 303.127 169.056 236.702 159.968 203.484 C 159.972 203.484 199.453 203.530 199.457 203.530 C 206.777 230.153 221.414 283.392 221.416 283.400 C 221.422 283.406 281.484 341.402 281.490 341.408 C 281.498 341.410 362.815 360.480 362.823 360.482 M 120.479 203.439 C 131.335 243.250 153.044 322.861 153.047 322.873 C 153.056 322.882 242.035 409.876 242.044 409.885 C 242.056 409.888 362.888 439.504 362.900 439.507 M 261.767 375.646 C 261.777 375.649 362.851 399.992 362.861 399.994 M 362.794 320.969 C 362.787 320.968 301.219 307.171 301.213 307.169 C 301.208 307.165 255.605 263.668 255.601 263.664 C 255.599 263.658 244.497 223.605 238.946 203.575 C 238.950 203.575 278.431 203.621 278.434 203.621 M 261.767 375.646 C 261.769 375.643 281.488 341.411 281.490 341.408 C 281.492 341.405 301.211 307.173 301.213 307.169 C 301.215 307.166 320.934 272.935 320.936 272.931 C 320.938 272.928 341.399 238.696 341.401 238.693 C 341.403 238.689 354.550 214.878 361.124 202.970 C 361.120 202.972 323.974 222.704 323.970 222.706 C 323.967 222.708 289.789 243.925 289.785 243.927 C 289.782 243.929 255.604 263.662 255.601 263.664 C 255.597 263.666 221.420 283.398 221.416 283.400 C 221.413 283.402 187.235 303.135 187.232 303.137 C 187.228 303.139 153.051 322.871 153.047 322.873 C 153.044 322.875 118.866 342.608 118.862 342.610 C 118.859 342.596 93.614 249.799 80.990 203.393 C 80.994 203.393 120.475 203.439 120.479 203.439 C 120.483 203.439 159.964 203.484 159.968 203.484 M 118.862 342.610 C 118.873 342.620 222.311 444.113 222.321 444.123 C 222.335 444.126 362.924 479.017 362.938 479.020 M 84.678 362.346 C 84.681 362.344 118.859 342.612 118.862 342.610 M 361.124 202.970 C 361.120 202.970 317.928 203.666 317.923 203.666 M 238.946 203.575 C 238.942 203.575 199.461 203.530 199.457 203.530 M 80.990 203.393 C 80.986 203.393 41.505 203.347 41.501 203.347 "/>
</g>
<g id="spiderweb">
<path fill="none" stroke="#ffffff" stroke-width="4" stroke-linecap="round" stroke-linejoin="round" d="M 359.853 358.255 C 359.861 358.253 438.884 336.956 438.892 336.954 C 438.898 336.948 496.733 278.952 496.738 278.946 C 496.741 278.938 510.883 226.194 517.956 199.818 C 517.952 199.818 478.471 199.863 478.467 199.863 C 473.162 219.645 462.556 259.203 462.554 259.209 C 462.550 259.214 419.173 302.711 419.169 302.715 C 419.163 302.717 359.830 318.740 359.824 318.742 C 359.824 318.738 359.863 279.233 359.863 279.229 C 359.867 279.228 399.442 268.478 399.446 268.477 C 399.449 268.474 428.367 239.476 428.369 239.473 C 428.370 239.469 435.442 213.097 438.978 199.909 C 438.974 199.909 399.493 199.954 399.489 199.954 C 397.721 206.548 394.185 219.734 394.185 219.736 C 394.183 219.738 379.724 234.237 379.723 234.238 C 379.721 234.239 359.904 239.716 359.902 239.716 C 359.902 239.712 360.000 200.004 360.000 200.000 C 360.002 200.004 379.721 234.235 379.723 234.238 C 379.725 234.242 399.444 268.473 399.446 268.477 C 399.448 268.480 419.167 302.712 419.169 302.715 C 419.171 302.718 438.890 336.950 438.892 336.954 C 438.894 336.957 458.613 371.188 458.615 371.192 C 458.605 371.194 359.902 397.765 359.892 397.767 C 359.892 397.763 359.854 358.259 359.853 358.255 C 359.853 358.251 359.824 318.746 359.824 318.742 M 359.931 437.280 C 359.942 437.277 478.326 405.433 478.338 405.430 C 478.346 405.422 565.099 318.428 565.108 318.419 C 565.111 318.407 586.325 239.291 596.934 199.727 C 596.930 199.727 557.448 199.772 557.445 199.772 C 548.604 232.742 530.926 298.672 530.923 298.682 C 530.916 298.690 458.622 371.184 458.615 371.192 C 458.617 371.195 478.336 405.427 478.338 405.430 C 478.340 405.434 498.059 439.665 498.061 439.668 C 498.047 439.672 359.983 476.789 359.969 476.793 C 359.969 476.789 359.931 437.284 359.931 437.280 C 359.931 437.276 359.892 397.771 359.892 397.767 M 498.061 439.668 C 498.071 439.658 599.282 338.166 599.292 338.156 C 599.296 338.142 624.046 245.839 636.422 199.681 C 636.418 199.681 596.938 199.727 596.934 199.727 M 517.784 473.907 C 511.209 462.494 498.063 439.672 498.061 439.668 M 359.902 239.716 C 359.902 239.720 359.863 279.225 359.863 279.229 M 359.969 476.793 C 359.969 476.797 359.744 503.135 359.632 516.306 M 633.477 357.892 C 633.474 357.890 599.296 338.158 599.292 338.156 C 599.289 338.154 565.111 318.421 565.108 318.419 C 565.104 318.417 530.926 298.684 530.923 298.682 C 530.920 298.680 496.742 278.948 496.738 278.946 C 496.735 278.944 462.557 259.211 462.554 259.209 C 462.551 259.207 428.373 239.475 428.369 239.473 C 428.366 239.471 394.188 219.738 394.185 219.736 C 394.181 219.734 360.003 200.002 360.000 200.000 C 360.004 200.000 399.485 199.954 399.489 199.954 M 438.978 199.909 C 438.982 199.909 478.463 199.863 478.467 199.863 M 517.956 199.818 C 517.960 199.818 557.441 199.772 557.445 199.772 M 636.422 199.681 C 636.426 199.681 675.907 199.635 675.911 199.635 "/>
<path fill="#ffffff" fill-rule="evenodd" stroke="none" d="M 678.371 297.203 C 678.371 298.588 677.255 299.704 675.870 299.704 C 674.486 299.704 673.369 298.588 673.369 297.203 C 673.369 295.819 674.486 294.702 675.870 294.702 C 677.255 294.702 678.371 295.819 678.371 297.203 M 673.149 300.350 C 674.025 299.922 674.953 299.704 675.870 299.704 C 676.788 299.704 677.716 299.922 678.591 300.350 C 679.466 300.778 680.998 302.259 680.998 302.260 C 680.998 302.260 682.717 305.392 682.717 305.393 C 682.717 305.393 683.373 309.708 683.373 309.709 C 683.373 309.709 682.717 314.024 682.717 314.025 C 682.717 314.025 681.706 316.315 680.998 317.158 C 680.289 318.000 679.466 318.639 678.591 319.067 C 677.716 319.495 676.788 319.713 675.870 319.713 C 674.953 319.713 674.025 319.495 673.149 319.067 C 672.274 318.639 671.450 318.001 670.742 317.158 C 670.033 316.315 669.023 314.025 669.023 314.025 C 669.023 314.024 668.367 309.709 668.367 309.709 C 668.367 309.708 669.023 305.393 669.023 305.393 C 669.023 305.392 670.742 302.260 670.742 302.260 C 670.742 302.259 672.274 300.778 673.149 300.350 Z"/>
<path fill="none" stroke="#ffffff" stroke-width="4" stroke-linecap="round" stroke-linejoin="round" d="M 658.363 319.713 C 658.363 319.714 661.697 326.382 663.365 329.717 M 669.023 314.025 C 665.469 315.921 658.364 319.712 658.363 319.713 M 658.363 309.709 C 658.362 309.710 651.693 316.378 648.359 319.713 M 668.367 309.709 C 665.032 309.709 658.364 309.709 658.363 309.709 M 658.363 299.704 C 658.362 299.705 651.693 303.039 648.359 304.707 M 669.023 305.393 C 665.469 303.497 658.364 299.705 658.363 299.704 M 663.365 294.702 C 663.366 294.702 670.034 291.368 673.369 289.700 M 670.742 302.260 C 668.283 299.740 663.366 294.703 663.365 294.702 M 693.377 319.713 C 693.377 319.714 690.043 326.382 688.375 329.717 M 682.717 314.025 C 686.270 315.921 693.376 319.712 693.377 319.713 M 693.377 309.709 C 693.378 309.710 700.047 316.378 703.381 319.713 M 683.373 309.709 C 686.708 309.709 693.376 309.709 693.377 309.709 M 693.377 299.704 C 693.378 299.705 700.047 303.039 703.381 304.707 M 682.717 305.393 C 686.270 303.497 693.376 299.705 693.377 299.704 M 688.375 294.702 C 688.374 294.702 681.706 291.368 678.371 289.700 M 680.998 302.260 C 683.457 299.740 688.375 294.703 688.375 294.702 M 678.371 297.203 C 678.371 298.588 677.255 299.704 675.870 299.704 C 674.486 299.704 673.369 298.588 673.369 297.203 C 673.369 295.819 674.486 294.702 675.870 294.702 C 677.255 294.702 678.371 295.819 678.371 297.203 M 673.149 300.350 C 674.025 299.922 674.953 299.704 675.870 299.704 C 676.788 299.704 677.716 299.922 678.591 300.350 C 679.466 300.778 680.998 302.259 680.998 302.260 C 680.998 302.260 682.717 305.392 682.717 305.393 C 682.717 305.393 683.373 309.708 683.373 309.709 C 683.373 309.709 682.717 314.024 682.717 314.025 C 682.717 314.025 681.706 316.315 680.998 317.158 C 680.289 318.000 679.466 318.639 678.591 319.067 C 677.716 319.495 676.788 319.713 675.870 319.713 C 674.953 319.713 674.025 319.495 673.149 319.067 C 672.274 318.639 671.450 318.001 670.742 317.158 C 670.033 316.315 669.023 314.025 669.023 314.025 C 669.023 314.024 668.367 309.709 668.367 309.709 C 668.367 309.708 669.023 305.393 669.023 305.393 C 669.023 305.392 670.742 302.260 670.742 302.260 C 670.742 302.259 672.274 300.778 673.149 300.350 "/>
<path fill="none" stroke="#ffffff" stroke-width="4" stroke-linecap="round" stroke-linejoin="round" d="M 675.911 199.635 C 675.911 199.645 675.813 263.041 675.763 294.744 "/>
<path fill="none" stroke="#ffffff" stroke-width="4" stroke-linecap="round" stroke-linejoin="round" d="M 359.863 279.229 C 359.859 279.228 320.197 268.478 320.193 268.477 C 320.190 268.474 291.273 239.476 291.270 239.473 C 291.269 239.469 284.198 213.097 280.661 199.909 C 280.665 199.909 320.146 199.954 320.150 199.954 C 321.918 206.548 325.454 219.734 325.455 219.736 C 325.456 219.738 339.915 234.237 339.916 234.238 C 339.918 234.239 359.900 239.716 359.902 239.716 M 201.856 473.907 C 208.430 462.494 221.577 439.672 221.579 439.668 C 221.581 439.665 241.300 405.434 241.302 405.430 C 241.304 405.427 261.023 371.195 261.024 371.192 C 261.017 371.184 188.724 298.690 188.716 298.682 C 188.714 298.672 171.035 232.742 162.195 199.772 C 162.199 199.772 201.680 199.818 201.684 199.818 C 208.756 226.194 222.899 278.938 222.901 278.946 C 222.907 278.952 280.742 336.948 280.747 336.954 C 280.755 336.956 359.846 358.253 359.853 358.255 M 122.706 199.727 C 133.315 239.291 154.529 318.407 154.532 318.419 C 154.540 318.428 241.293 405.422 241.302 405.430 C 241.313 405.433 359.919 437.277 359.931 437.280 M 261.024 371.192 C 261.034 371.194 359.882 397.765 359.892 397.767 M 359.824 318.742 C 359.818 318.740 300.476 302.717 300.470 302.715 C 300.466 302.711 257.090 259.214 257.085 259.209 C 257.084 259.203 246.477 219.645 241.173 199.863 C 241.177 199.863 280.657 199.909 280.661 199.909 M 261.024 371.192 C 261.026 371.188 280.745 336.957 280.747 336.954 C 280.749 336.950 300.468 302.718 300.470 302.715 C 300.472 302.712 320.191 268.480 320.193 268.477 C 320.195 268.473 339.914 234.242 339.916 234.238 C 339.918 234.235 353.065 211.413 359.639 200.000 C 359.636 200.002 325.458 219.734 325.455 219.736 C 325.451 219.738 291.273 239.471 291.270 239.473 C 291.266 239.475 257.089 259.207 257.085 259.209 C 257.082 259.211 222.904 278.944 222.901 278.946 C 222.897 278.948 188.720 298.680 188.716 298.682 C 188.713 298.684 154.535 318.417 154.532 318.419 C 154.528 318.421 120.350 338.154 120.347 338.156 C 120.343 338.142 95.594 245.839 83.217 199.681 C 83.221 199.681 122.702 199.727 122.706 199.727 C 122.710 199.727 162.191 199.772 162.195 199.772 M 120.347 338.156 C 120.357 338.166 221.568 439.658 221.579 439.668 C 221.592 439.672 359.955 476.789 359.969 476.793 M 86.162 357.892 C 86.166 357.890 120.344 338.158 120.347 338.156 M 359.639 200.000 C 359.635 200.000 320.154 199.954 320.150 199.954 M 241.173 199.863 C 241.169 199.863 201.688 199.818 201.684 199.818 M 83.217 199.681 C 83.213 199.681 43.732 199.635 43.728 199.635 "/>
</g>
<g id="specs_2">
<path fill="#ff00ff" fill-rule="evenodd" stroke="none" d="M 275.106 388.588 C 275.123 388.588 444.877 388.588 444.894 388.588 C 444.894 388.571 444.894 218.817 444.894 218.800 C 444.877 218.800 275.123 218.800 275.106 218.800 C 275.106 218.817 275.106 388.571 275.106 388.588 Z"/>
<path fill="#ff0000" fill-rule="evenodd" stroke="none" d="M 360.000 221.961 C 360.001 221.957 372.416 187.194 372.417 187.191 C 372.416 187.192 360.001 198.744 360.000 198.745 C 359.999 198.744 347.584 187.192 347.583 187.191 C 347.584 187.194 359.999 221.957 360.000 221.961 Z"/>
<path fill="#0000ff" fill-rule="evenodd" stroke="none" d="M 360.000 155.504 C 360.001 155.506 367.212 175.699 367.213 175.701 C 367.212 175.700 360.001 168.990 360.000 168.990 C 359.999 168.990 352.788 175.700 352.787 175.701 C 352.788 175.699 359.999 155.506 360.000 155.504 Z"/>
<path fill="#00ff00" fill-rule="evenodd" stroke="none" d="M 691.300 200.976 C 691.298 200.975 671.141 193.661 671.139 193.660 C 671.140 193.661 677.813 200.907 677.814 200.908 C 677.813 200.908 671.067 208.086 671.067 208.086 C 671.069 208.086 691.298 200.976 691.300 200.976 Z"/>
<path fill="#be0027" fill-rule="evenodd" stroke="none" d="M 360.000 543.412 C 360.001 543.408 372.416 508.646 372.417 508.642 C 372.416 508.643 360.001 520.195 360.000 520.196 C 359.999 520.195 347.584 508.643 347.583 508.642 C 347.584 508.646 359.999 543.408 360.000 543.412 Z"/>
<path fill="#ffff00" fill-rule="evenodd" stroke="none" d="M 527.052 489.462 C 527.050 489.460 510.708 475.578 510.706 475.577 C 510.707 475.577 520.307 477.782 520.308 477.783 C 520.309 477.782 523.199 468.365 523.200 468.364 C 523.200 468.366 527.051 489.460 527.052 489.462 Z"/>
<path fill="#00ffff" fill-rule="evenodd" stroke="none" d="M 648.782 367.400 C 648.779 367.399 627.686 363.548 627.684 363.548 C 627.685 363.548 637.101 360.657 637.102 360.657 C 637.102 360.656 634.897 351.055 634.897 351.054 C 634.898 351.056 648.780 367.398 648.782 367.400 Z"/>
<path fill="#00ff00" fill-rule="evenodd" stroke="none" d="M 27.663 200.976 C 27.665 200.975 47.822 193.661 47.824 193.660 C 47.823 193.661 41.150 200.907 41.149 200.908 C 41.150 200.908 47.896 208.086 47.897 208.086 C 47.895 208.086 27.665 200.976 27.663 200.976 Z"/>
<path fill="#ffff00" fill-rule="evenodd" stroke="none" d="M 191.912 489.462 C 191.913 489.460 208.255 475.578 208.257 475.577 C 208.256 475.577 198.656 477.782 198.655 477.783 C 198.655 477.782 195.764 468.365 195.764 468.364 C 195.763 468.366 191.912 489.460 191.912 489.462 Z"/>
<path fill="#00ffff" fill-rule="evenodd" stroke="none" d="M 70.182 367.400 C 70.184 367.399 91.277 363.548 91.279 363.548 C 91.279 363.548 81.862 360.657 81.861 360.657 C 81.861 360.656 84.066 351.055 84.066 351.054 C 84.065 351.056 70.183 367.398 70.182 367.400 Z"/>
</g>
</g>
</svg>
