<?xml version="1.0" encoding="utf-8"?>
<!-- Generator: Moho 13.5.1 build 20210623 -->
<!DOCTYPE svg PUBLIC "-//W3C//DTD SVG 1.1//EN" "http://www.w3.org/Graphics/SVG/1.1/DTD/svg11.dtd">
<svg version="1.1" id="Frame_0" xmlns="http://www.w3.org/2000/svg" xmlns:xlink="http://www.w3.org/1999/xlink" width="720px" height="720px">
<g id="spiral_squirt">
<g id="spiral_squirt">
<path fill="#ffffff" fill-rule="evenodd" stroke="none" d="M 426.280 106.063 C 479.314 189.060 480.141 259.456 464.258 326.668 C 503.010 343.141 544.264 380.809 557.355 429.364 C 575.309 495.961 552.256 577.601 506.558 623.685 C 442.279 688.506 335.630 686.883 278.065 660.573 C 155.269 604.449 145.911 508.672 146.003 453.821 C 146.163 357.358 198.606 307.628 231.641 275.019 C 299.514 208.022 334.632 171.580 351.804 113.392 C 360.924 82.486 353.762 21.878 353.762 21.868 C 353.769 21.877 407.256 76.290 426.280 106.063 Z"/>
<path fill="none" stroke="#000000" stroke-width="2" stroke-linejoin="round" d="M 398.533 179.135 C 395.608 262.695 358.802 312.290 358.798 312.304 M 355.482 24.464 C 355.486 24.479 401.477 95.055 398.533 179.135 M 426.280 106.063 C 479.314 189.060 480.141 259.456 464.258 326.668 C 503.010 343.141 544.264 380.809 557.355 429.364 C 575.309 495.961 552.256 577.601 506.558 623.685 C 442.279 688.506 335.630 686.883 278.065 660.573 C 155.269 604.449 145.911 508.672 146.003 453.821 C 146.163 357.358 198.606 307.628 231.641 275.019 C 299.514 208.022 334.632 171.580 351.804 113.392 C 360.924 82.486 353.762 21.878 353.762 21.868 C 353.769 21.877 407.256 76.290 426.280 106.063 M 250.261 486.228 C 220.833 363.543 331.538 270.248 464.258 326.668 M 450.921 526.688 C 403.929 609.326 270.821 571.943 250.261 486.228 M 398.980 409.655 C 458.856 413.087 476.498 481.708 450.921 526.688 M 353.254 481.233 C 327.747 455.278 345.057 406.564 398.980 409.655 M 383.693 465.936 C 395.544 480.689 370.576 498.858 353.254 481.233 "/>
</g>
<g id="specs_2">
<path fill="#ff00ff" fill-rule="evenodd" stroke="none" d="M 222.888 622.378 C 222.916 622.378 497.084 622.378 497.112 622.378 C 497.112 622.351 497.112 348.182 497.112 348.155 C 497.084 348.155 222.916 348.155 222.888 348.155 C 222.888 348.182 222.888 622.351 222.888 622.378 Z"/>
<path fill="#ff0000" fill-rule="evenodd" stroke="none" d="M 360.000 739.803 C 360.001 739.806 372.432 774.612 372.433 774.616 C 372.432 774.614 360.001 763.048 360.000 763.047 C 359.999 763.048 347.568 774.614 347.567 774.616 C 347.568 774.612 359.999 739.806 360.000 739.803 Z"/>
<path fill="#0000ff" fill-rule="evenodd" stroke="none" d="M 360.000 17.772 C 360.001 17.774 367.221 37.992 367.222 37.994 C 367.221 37.993 360.001 31.275 360.000 31.274 C 359.999 31.275 352.779 37.993 352.778 37.994 C 352.779 37.992 359.999 17.774 360.000 17.772 Z"/>
<path fill="#00ff00" fill-rule="evenodd" stroke="none" d="M 134.139 455.325 C 134.141 455.324 154.323 448.002 154.325 448.001 C 154.324 448.002 147.642 455.256 147.641 455.257 C 147.642 455.258 154.397 462.444 154.397 462.445 C 154.395 462.444 134.141 455.326 134.139 455.325 Z"/>
<path fill="#ffff00" fill-rule="evenodd" stroke="none" d="M 214.945 635.695 C 214.946 635.693 223.907 616.183 223.908 616.181 C 223.908 616.183 224.380 626.034 224.380 626.035 C 224.381 626.035 234.240 626.274 234.241 626.274 C 234.239 626.275 214.947 635.694 214.945 635.695 Z"/>
<path fill="#ffff00" fill-rule="evenodd" stroke="none" d="M 512.310 635.456 C 512.309 635.454 502.959 616.128 502.959 616.126 C 502.958 616.127 502.684 625.986 502.684 625.987 C 502.683 625.987 492.830 626.424 492.829 626.424 C 492.831 626.425 512.308 635.455 512.310 635.456 Z"/>
<path fill="#00ff00" fill-rule="evenodd" stroke="none" d="M 575.046 455.325 C 575.044 455.324 554.863 448.002 554.861 448.001 C 554.861 448.002 561.543 455.256 561.544 455.257 C 561.543 455.258 554.788 462.444 554.788 462.445 C 554.790 462.444 575.044 455.326 575.046 455.325 Z"/>
<path fill="#be0027" fill-rule="evenodd" stroke="none" d="M 360.000 695.903 C 360.001 695.899 372.432 661.093 372.433 661.090 C 372.432 661.091 360.001 672.657 360.000 672.658 C 359.999 672.657 347.568 661.091 347.567 661.090 C 347.568 661.093 359.999 695.899 360.000 695.903 Z"/>
</g>
</g>
</svg>
