<?xml version="1.0" encoding="utf-8"?>
<!-- Generator: Moho 12.5 build 22414 -->
<!DOCTYPE svg PUBLIC "-//W3C//DTD SVG 1.1//EN" "http://www.w3.org/Graphics/SVG/1.1/DTD/svg11.dtd">
<svg version="1.1" id="Frame_0" xmlns="http://www.w3.org/2000/svg" xmlns:xlink="http://www.w3.org/1999/xlink" width="720px" height="720px">
<g id="stars_7">
<g id="stars">
<path fill="#ffffff" fill-rule="evenodd" stroke="#000000" stroke-width="4" stroke-linecap="round" stroke-linejoin="round" d="M 171.807 172.578 C 171.800 172.579 95.690 182.852 95.682 182.853 C 95.689 182.849 159.984 140.419 159.991 140.415 C 159.985 140.410 104.459 87.381 104.454 87.376 C 104.461 87.378 177.444 111.119 177.451 111.122 C 177.452 111.114 184.385 34.380 184.386 34.372 C 184.389 34.380 211.351 106.513 211.354 106.520 C 211.360 106.516 275.672 64.076 275.679 64.072 C 275.675 64.078 236.084 130.131 236.080 130.138 C 236.087 130.140 309.302 154.014 309.309 154.016 C 309.302 154.017 232.948 164.324 232.941 164.325 C 232.943 164.332 260.015 236.269 260.018 236.276 C 260.012 236.271 204.372 183.053 204.366 183.047 C 204.362 183.054 164.801 249.057 164.797 249.063 C 164.798 249.056 171.807 172.585 171.807 172.578 Z"/>
<path fill="#ffffff" fill-rule="evenodd" stroke="#000000" stroke-width="4" stroke-linecap="round" stroke-linejoin="round" d="M 364.701 376.437 C 364.692 376.435 270.623 360.488 270.614 360.486 C 270.623 360.483 362.565 333.925 362.574 333.922 C 362.570 333.914 316.313 250.494 316.309 250.486 C 316.317 250.491 394.103 305.627 394.111 305.632 C 394.115 305.623 430.702 217.175 430.705 217.166 C 430.706 217.175 436.022 312.697 436.023 312.706 C 436.032 312.704 527.998 286.139 528.007 286.136 C 528.000 286.142 456.626 349.851 456.619 349.857 C 456.627 349.863 534.641 405.241 534.649 405.247 C 534.639 405.245 440.269 389.247 440.260 389.246 C 440.260 389.255 445.779 484.583 445.779 484.593 C 445.774 484.585 399.452 400.898 399.448 400.889 C 399.441 400.896 328.122 464.556 328.115 464.563 C 328.118 464.554 364.697 376.446 364.701 376.437 Z"/>
<path fill="#ffffff" fill-rule="evenodd" stroke="#000000" stroke-width="4" stroke-linecap="round" stroke-linejoin="round" d="M 442.057 100.775 C 442.052 100.775 396.839 100.760 396.835 100.760 C 396.839 100.758 437.698 81.081 437.702 81.079 C 437.699 81.075 409.492 45.755 409.489 45.752 C 409.493 45.753 450.197 65.366 450.201 65.368 C 450.202 65.363 460.305 21.144 460.306 21.140 C 460.307 21.144 470.342 65.355 470.343 65.360 C 470.347 65.358 511.217 45.675 511.221 45.673 C 511.218 45.677 482.906 81.086 482.903 81.090 C 482.907 81.092 523.736 100.799 523.740 100.801 C 523.736 100.801 478.378 100.787 478.373 100.787 C 478.374 100.791 488.489 144.896 488.490 144.900 C 488.487 144.897 460.228 109.457 460.225 109.454 C 460.222 109.457 431.932 144.840 431.929 144.843 C 431.930 144.839 442.056 100.780 442.057 100.775 Z"/>
<path fill="#ffffff" fill-rule="evenodd" stroke="#000000" stroke-width="4" stroke-linecap="round" stroke-linejoin="round" d="M 589.975 227.446 C 589.971 227.446 548.413 224.530 548.409 224.530 C 548.413 224.528 587.233 209.064 587.237 209.063 C 587.234 209.059 563.574 174.783 563.572 174.780 C 563.576 174.782 599.730 195.421 599.734 195.423 C 599.735 195.419 611.860 155.423 611.861 155.419 C 611.862 155.423 618.248 196.705 618.248 196.709 C 618.252 196.708 657.082 181.240 657.086 181.238 C 657.083 181.241 628.787 211.971 628.784 211.974 C 628.787 211.976 665.051 232.712 665.055 232.714 C 665.050 232.714 623.360 229.789 623.355 229.788 C 623.356 229.792 629.822 270.981 629.822 270.986 C 629.820 270.982 606.120 236.593 606.118 236.589 C 606.115 236.593 577.840 267.299 577.837 267.302 C 577.838 267.298 589.974 227.450 589.975 227.446 Z"/>
<path fill="#ffffff" fill-rule="evenodd" stroke="#000000" stroke-width="4" stroke-linecap="round" stroke-linejoin="round" d="M 536.262 572.824 C 536.257 572.824 491.044 572.809 491.040 572.809 C 491.044 572.807 531.903 553.130 531.907 553.128 C 531.904 553.124 503.697 517.804 503.694 517.801 C 503.699 517.803 544.402 537.415 544.406 537.417 C 544.407 537.412 554.510 493.193 554.511 493.189 C 554.512 493.193 564.547 537.404 564.548 537.409 C 564.552 537.407 605.422 517.724 605.426 517.722 C 605.423 517.726 577.111 553.135 577.109 553.139 C 577.113 553.141 617.941 572.849 617.945 572.851 C 617.941 572.851 572.583 572.836 572.578 572.836 C 572.579 572.840 582.694 616.945 582.695 616.949 C 582.692 616.946 554.433 581.506 554.430 581.503 C 554.427 581.506 526.137 616.889 526.134 616.892 C 526.135 616.888 536.261 572.829 536.262 572.824 Z"/>
<path fill="#ffffff" fill-rule="evenodd" stroke="#000000" stroke-width="4" stroke-linecap="round" stroke-linejoin="round" d="M 92.087 373.994 C 92.083 373.994 52.785 373.981 52.782 373.981 C 52.785 373.980 88.298 356.877 88.302 356.875 C 88.299 356.872 63.783 326.173 63.780 326.170 C 63.784 326.172 99.162 343.218 99.165 343.220 C 99.166 343.216 107.947 304.783 107.948 304.779 C 107.949 304.783 116.671 343.209 116.672 343.213 C 116.675 343.211 152.198 326.104 152.201 326.102 C 152.199 326.105 127.591 356.882 127.589 356.885 C 127.592 356.886 163.079 374.015 163.082 374.017 C 163.078 374.017 123.655 374.004 123.651 374.004 C 123.652 374.008 132.443 412.342 132.444 412.346 C 132.441 412.343 107.880 381.540 107.877 381.537 C 107.875 381.540 83.286 412.293 83.284 412.296 C 83.285 412.292 92.086 373.998 92.087 373.994 Z"/>
<path fill="#ffffff" fill-rule="evenodd" stroke="#000000" stroke-width="4" stroke-linecap="round" stroke-linejoin="round" d="M 201.013 577.509 C 201.008 577.509 147.505 583.902 147.500 583.903 C 147.504 583.900 193.063 554.823 193.068 554.820 C 193.064 554.816 154.678 517.021 154.675 517.017 C 154.680 517.019 205.625 534.454 205.630 534.456 C 205.631 534.451 211.316 480.694 211.316 480.689 C 211.318 480.694 229.461 531.586 229.463 531.591 C 229.467 531.588 275.038 502.503 275.043 502.500 C 275.040 502.505 246.559 548.419 246.556 548.424 C 246.561 548.425 297.668 565.957 297.673 565.958 C 297.668 565.959 243.994 572.373 243.988 572.373 C 243.990 572.379 262.212 623.134 262.214 623.139 C 262.210 623.135 223.746 585.206 223.742 585.202 C 223.739 585.207 195.280 631.086 195.277 631.091 C 195.278 631.085 201.013 577.514 201.013 577.509 Z"/>
</g>
<g id="specs_2">
<path fill="#ff0000" fill-rule="evenodd" stroke="none" d="M 360.000 666.770 C 360.001 666.773 371.486 698.932 371.487 698.935 C 371.486 698.934 360.001 688.248 360.000 688.247 C 359.999 688.248 348.514 698.934 348.513 698.935 C 348.514 698.932 359.999 666.773 360.000 666.770 Z"/>
<path fill="#0000ff" fill-rule="evenodd" stroke="none" d="M 341.569 21.419 C 341.569 21.421 348.240 40.101 348.241 40.103 C 348.240 40.102 341.569 33.895 341.569 33.894 C 341.568 33.895 334.897 40.102 334.896 40.103 C 334.897 40.101 341.568 21.421 341.569 21.419 Z"/>
<path fill="#ffff00" fill-rule="evenodd" stroke="none" d="M 84.498 516.423 C 84.499 516.421 94.574 494.486 94.575 494.484 C 94.575 494.485 95.105 505.561 95.105 505.563 C 95.107 505.563 106.192 505.831 106.193 505.831 C 106.191 505.832 84.500 516.422 84.498 516.423 Z"/>
<path fill="#00ff00" fill-rule="evenodd" stroke="none" d="M 614.178 356.972 C 614.176 356.971 595.530 350.205 595.528 350.204 C 595.529 350.205 601.702 356.908 601.703 356.909 C 601.702 356.910 595.462 363.549 595.461 363.550 C 595.463 363.549 614.176 356.973 614.178 356.972 Z"/>
<path fill="#00ffff" fill-rule="evenodd" stroke="none" d="M 590.168 93.281 C 590.168 93.282 583.546 111.980 583.545 111.982 C 583.545 111.981 582.291 102.955 582.291 102.954 C 582.290 102.954 573.197 103.555 573.196 103.555 C 573.198 103.554 590.167 93.282 590.168 93.281 Z"/>
<path fill="#be0027" fill-rule="evenodd" stroke="none" d="M 387.647 588.323 C 387.648 588.320 399.133 556.162 399.134 556.158 C 399.133 556.159 387.648 566.846 387.647 566.847 C 387.646 566.846 376.161 556.159 376.160 556.158 C 376.161 556.162 387.646 588.320 387.647 588.323 Z"/>
</g>
</g>
</svg>
