<?xml version="1.0" encoding="utf-8"?>
<!-- Generator: Moho 13.0.3 build 635 -->
<!DOCTYPE svg PUBLIC "-//W3C//DTD SVG 1.1//EN" "http://www.w3.org/Graphics/SVG/1.1/DTD/svg11.dtd">
<svg version="1.1" id="Frame_0" xmlns="http://www.w3.org/2000/svg" xmlns:xlink="http://www.w3.org/1999/xlink" width="720px" height="720px">
<g id="stars_circle">
<g id="stars_circle">
<path fill="#ffffff" fill-rule="evenodd" stroke="#000000" stroke-width="4" stroke-linecap="round" stroke-linejoin="round" d="M 470.726 134.081 C 470.722 134.082 432.809 138.297 432.805 138.298 C 432.808 138.295 461.003 112.600 461.005 112.598 C 461.004 112.594 445.279 77.840 445.277 77.836 C 445.280 77.838 478.430 96.712 478.434 96.714 C 478.437 96.711 506.631 71.017 506.634 71.014 C 506.633 71.018 498.926 108.377 498.925 108.381 C 498.929 108.383 532.079 127.257 532.082 127.259 C 532.078 127.259 494.166 131.475 494.162 131.475 C 494.161 131.479 486.455 168.839 486.454 168.843 C 486.452 168.840 470.727 134.085 470.726 134.081 M 249.652 516.992 C 249.651 516.988 234.345 482.047 234.343 482.043 C 234.343 482.047 226.187 519.312 226.187 519.315 C 226.183 519.316 188.222 523.075 188.218 523.075 C 188.222 523.077 221.142 542.349 221.145 542.351 C 221.145 542.355 212.989 579.619 212.988 579.623 C 212.991 579.620 241.492 554.266 241.495 554.264 C 241.498 554.266 274.419 573.537 274.422 573.539 C 274.421 573.536 259.115 538.595 259.114 538.591 C 259.117 538.589 287.618 513.234 287.621 513.232 C 287.617 513.232 249.656 516.991 249.652 516.992 M 551.564 215.080 C 551.561 215.078 516.620 199.772 516.616 199.771 C 516.620 199.770 553.884 191.615 553.888 191.614 C 553.888 191.610 557.648 153.649 557.648 153.646 C 557.650 153.649 576.922 186.569 576.923 186.573 C 576.927 186.572 614.191 178.416 614.195 178.416 C 614.193 178.419 588.839 206.920 588.836 206.923 C 588.838 206.926 608.110 239.846 608.112 239.850 C 608.108 239.848 573.167 224.543 573.164 224.541 C 573.161 224.544 547.807 253.045 547.804 253.048 C 547.805 253.044 551.564 215.083 551.564 215.080 M 168.654 436.153 C 168.654 436.149 172.870 398.236 172.870 398.233 C 172.868 398.235 147.173 426.430 147.170 426.433 C 147.167 426.431 112.412 410.706 112.409 410.705 C 112.411 410.708 131.285 443.858 131.287 443.861 C 131.284 443.864 105.589 472.058 105.587 472.061 C 105.590 472.060 142.950 464.354 142.954 464.353 C 142.956 464.356 161.830 497.506 161.832 497.509 C 161.832 497.506 166.048 459.593 166.048 459.589 C 166.052 459.589 203.412 451.882 203.416 451.881 C 203.412 451.880 168.658 436.155 168.654 436.153 M 581.073 325.646 C 581.071 325.643 558.464 294.917 558.462 294.914 C 558.466 294.915 594.815 306.485 594.819 306.486 C 594.821 306.483 617.057 275.487 617.059 275.484 C 617.059 275.488 617.288 313.634 617.288 313.638 C 617.292 313.639 653.642 325.208 653.645 325.209 C 653.642 325.210 617.434 337.216 617.430 337.217 C 617.430 337.221 617.660 375.367 617.660 375.371 C 617.658 375.368 595.051 344.642 595.048 344.639 C 595.045 344.640 558.837 356.646 558.833 356.647 C 558.835 356.644 581.071 325.649 581.073 325.646 M 138.927 325.646 C 138.929 325.643 161.536 294.917 161.538 294.914 C 161.534 294.915 125.185 306.485 125.181 306.486 C 125.179 306.483 102.943 275.487 102.941 275.484 C 102.941 275.488 102.712 313.634 102.712 313.638 C 102.708 313.639 66.358 325.208 66.355 325.209 C 66.358 325.210 102.566 337.216 102.570 337.217 C 102.570 337.221 102.340 375.367 102.340 375.371 C 102.342 375.368 124.950 344.642 124.952 344.639 C 124.955 344.640 161.163 356.646 161.167 356.647 C 161.165 356.644 138.929 325.649 138.927 325.646 M 551.346 436.153 C 551.346 436.149 547.130 398.236 547.130 398.233 C 547.132 398.235 572.827 426.430 572.830 426.433 C 572.833 426.431 607.588 410.706 607.591 410.705 C 607.589 410.708 588.715 443.858 588.713 443.861 C 588.716 443.864 614.411 472.058 614.413 472.061 C 614.410 472.060 577.050 464.354 577.046 464.353 C 577.044 464.356 558.170 497.506 558.168 497.509 C 558.168 497.506 553.953 459.593 553.952 459.589 C 553.948 459.589 516.588 451.882 516.584 451.881 C 516.588 451.880 551.343 436.155 551.346 436.153 M 168.436 215.080 C 168.439 215.078 203.380 199.772 203.384 199.771 C 203.380 199.770 166.116 191.615 166.112 191.614 C 166.112 191.610 162.352 153.649 162.352 153.646 C 162.350 153.649 143.078 186.569 143.077 186.573 C 143.073 186.572 105.809 178.416 105.805 178.416 C 105.807 178.419 131.161 206.920 131.164 206.923 C 131.162 206.926 111.890 239.846 111.888 239.850 C 111.892 239.848 146.833 224.543 146.836 224.541 C 146.839 224.544 172.193 253.045 172.196 253.048 C 172.195 253.044 168.436 215.083 168.436 215.080 M 470.348 516.992 C 470.349 516.988 485.655 482.047 485.657 482.043 C 485.658 482.047 493.813 519.312 493.813 519.315 C 493.817 519.316 531.778 523.075 531.782 523.075 C 531.778 523.077 498.858 542.349 498.855 542.351 C 498.855 542.355 507.011 579.619 507.012 579.623 C 507.009 579.620 478.508 554.266 478.505 554.264 C 478.502 554.266 445.581 573.537 445.578 573.539 C 445.579 573.536 460.885 538.595 460.886 538.591 C 460.884 538.589 432.382 513.234 432.379 513.232 C 432.383 513.232 470.344 516.991 470.348 516.992 M 249.274 134.081 C 249.278 134.082 287.191 138.297 287.195 138.298 C 287.192 138.295 258.998 112.600 258.995 112.598 C 258.996 112.594 274.721 77.840 274.723 77.836 C 274.720 77.838 241.570 96.712 241.566 96.714 C 241.563 96.711 213.369 71.017 213.366 71.014 C 213.367 71.018 221.074 108.377 221.075 108.381 C 221.071 108.383 187.921 127.257 187.918 127.259 C 187.922 127.259 225.834 131.475 225.838 131.475 C 225.839 131.479 233.545 168.839 233.546 168.843 C 233.548 168.840 249.273 134.085 249.274 134.081 M 359.782 546.501 C 359.785 546.499 390.511 523.892 390.514 523.889 C 390.513 523.893 378.943 560.242 378.942 560.246 C 378.945 560.248 409.940 582.484 409.943 582.486 C 409.940 582.486 371.794 582.716 371.790 582.716 C 371.789 582.719 360.219 619.069 360.218 619.073 C 360.217 619.069 348.211 582.861 348.210 582.858 C 348.206 582.858 310.060 583.087 310.057 583.087 C 310.060 583.085 340.785 560.478 340.788 560.476 C 340.787 560.472 328.781 524.264 328.780 524.260 C 328.783 524.263 359.779 546.499 359.782 546.501 M 359.782 104.354 C 359.785 104.356 390.511 126.963 390.514 126.966 C 390.513 126.962 378.943 90.612 378.942 90.609 C 378.945 90.606 409.940 68.371 409.943 68.368 C 409.940 68.368 371.794 68.139 371.790 68.139 C 371.789 68.135 360.219 31.786 360.218 31.782 C 360.217 31.786 348.211 67.993 348.210 67.997 C 348.206 67.997 310.060 67.768 310.057 67.768 C 310.060 67.770 340.785 90.377 340.788 90.379 C 340.787 90.383 328.781 126.591 328.780 126.594 C 328.783 126.592 359.779 104.356 359.782 104.354 Z"/>
</g>
<g id="specs_2">
<path fill="#ff00ff" fill-rule="evenodd" stroke="none" d="M 218.334 467.093 C 218.363 467.093 501.637 467.093 501.666 467.093 C 501.666 467.065 501.666 183.790 501.666 183.762 C 501.637 183.762 218.363 183.762 218.334 183.762 C 218.334 183.790 218.334 467.065 218.334 467.093 Z"/>
<path fill="#ff0000" fill-rule="evenodd" stroke="none" d="M 360.000 676.654 C 360.001 676.657 371.149 707.872 371.150 707.875 C 371.149 707.874 360.001 697.502 360.000 697.501 C 359.999 697.502 348.851 707.874 348.850 707.875 C 348.851 707.872 359.999 676.657 360.000 676.654 Z"/>
<path fill="#0000ff" fill-rule="evenodd" stroke="none" d="M 360.000 18.509 C 360.001 18.511 366.476 36.643 366.477 36.645 C 366.476 36.644 360.001 30.619 360.000 30.619 C 359.999 30.619 353.524 36.644 353.523 36.645 C 353.524 36.643 359.999 18.511 360.000 18.509 Z"/>
<path fill="#00ff00" fill-rule="evenodd" stroke="none" d="M 53.643 326.327 C 53.645 326.327 71.744 319.759 71.746 319.758 C 71.745 319.759 65.753 326.266 65.752 326.266 C 65.753 326.267 71.810 332.712 71.811 332.712 C 71.809 332.712 53.645 326.328 53.643 326.327 Z"/>
<path fill="#ffff00" fill-rule="evenodd" stroke="none" d="M 142.702 543.803 C 142.703 543.801 150.739 526.305 150.739 526.303 C 150.739 526.304 151.162 535.139 151.163 535.140 C 151.163 535.140 160.006 535.354 160.007 535.354 C 160.005 535.355 142.704 543.802 142.702 543.803 Z"/>
<path fill="#ffff00" fill-rule="evenodd" stroke="none" d="M 577.298 543.589 C 577.297 543.587 568.912 526.255 568.911 526.253 C 568.911 526.254 568.666 535.096 568.666 535.097 C 568.665 535.097 559.828 535.489 559.827 535.489 C 559.829 535.490 577.296 543.588 577.298 543.589 Z"/>
<path fill="#00ff00" fill-rule="evenodd" stroke="none" d="M 666.357 326.327 C 666.355 326.327 648.256 319.759 648.254 319.758 C 648.255 319.759 654.247 326.266 654.248 326.266 C 654.247 326.267 648.190 332.712 648.189 332.712 C 648.191 332.712 666.355 326.328 666.357 326.327 Z"/>
<path fill="#00ffff" fill-rule="evenodd" stroke="none" d="M 576.458 108.141 C 576.458 108.143 570.030 126.292 570.029 126.294 C 570.029 126.293 568.812 117.532 568.812 117.531 C 568.811 117.531 559.985 118.114 559.984 118.114 C 559.986 118.113 576.457 108.142 576.458 108.141 Z"/>
<path fill="#00ffff" fill-rule="evenodd" stroke="none" d="M 143.642 108.743 C 143.643 108.745 151.266 126.425 151.267 126.427 C 151.267 126.426 151.897 117.603 151.897 117.602 C 151.898 117.602 160.743 117.595 160.744 117.595 C 160.742 117.594 143.644 108.744 143.642 108.743 Z"/>
<path fill="#be0027" fill-rule="evenodd" stroke="none" d="M 360.000 643.033 C 360.001 643.030 371.149 611.815 371.150 611.811 C 371.149 611.812 360.001 622.185 360.000 622.186 C 359.999 622.185 348.851 611.812 348.850 611.811 C 348.851 611.815 359.999 643.030 360.000 643.033 Z"/>
</g>
</g>
</svg>
