<?xml version="1.0" encoding="utf-8"?>
<!-- Generator: Moho 13.5 build 20210422 -->
<!DOCTYPE svg PUBLIC "-//W3C//DTD SVG 1.1//EN" "http://www.w3.org/Graphics/SVG/1.1/DTD/svg11.dtd">
<svg version="1.1" id="Frame_0" xmlns="http://www.w3.org/2000/svg" xmlns:xlink="http://www.w3.org/1999/xlink" width="720px" height="720px">
<g id="strength">
<g id="strength">
<path id="S22" fill="#ffffff" fill-rule="evenodd" stroke="#000000" stroke-width="2" stroke-linecap="round" stroke-linejoin="round" d="M 489.640 530.288 C 484.682 567.938 505.845 580.208 505.847 580.213 C 505.842 580.213 469.927 574.752 454.455 583.424 C 446.345 587.970 437.754 604.622 437.752 604.624 C 437.768 604.624 589.132 605.266 589.147 605.267 C 589.146 605.250 645.667 514.395 584.862 436.922 C 583.405 438.928 497.770 468.550 489.640 530.288 Z"/>
<path id="S20" fill="#000000" fill-rule="evenodd" stroke="none" d="M 374.336 431.360 C 374.335 431.358 359.598 412.607 359.597 412.605 C 359.599 412.605 383.429 413.557 383.432 413.557 C 383.431 413.559 374.337 431.359 374.336 431.360 M 354.173 450.375 C 354.172 450.372 347.869 427.372 347.868 427.370 C 347.870 427.371 369.463 437.496 369.465 437.497 C 369.463 437.498 354.174 450.373 354.173 450.375 M 329.976 461.445 C 329.976 461.443 330.977 437.615 330.977 437.613 C 330.979 437.614 348.462 453.836 348.464 453.837 C 348.462 453.838 329.978 461.445 329.976 461.445 M 304.098 468.224 C 304.098 468.221 308.453 444.773 308.453 444.770 C 308.455 444.772 323.473 463.299 323.474 463.301 C 323.472 463.302 304.099 468.223 304.098 468.224 M 360.960 328.513 C 360.960 328.515 351.293 350.318 351.292 350.320 C 351.295 350.319 374.157 343.530 374.159 343.529 C 374.158 343.528 360.962 328.514 360.960 328.513 M 336.736 315.048 C 336.736 315.051 336.290 338.896 336.290 338.898 C 336.292 338.896 354.727 323.766 354.728 323.765 C 354.727 323.764 336.738 315.049 336.736 315.048 M 310.559 310.276 C 310.559 310.278 317.396 333.126 317.397 333.129 C 317.398 333.127 330.349 313.101 330.351 313.099 C 330.349 313.098 310.561 310.276 310.559 310.276 M 283.808 310.078 C 283.809 310.081 293.803 331.735 293.804 331.737 C 293.805 331.735 303.799 310.081 303.800 310.078 C 303.798 310.078 283.810 310.078 283.808 310.078 Z"/>
<path id="S19" fill="#ffffff" fill-rule="evenodd" stroke="#000000" stroke-width="2" stroke-linecap="round" stroke-linejoin="round" d="M 372.872 470.326 C 389.245 535.833 368.375 582.771 368.375 582.782 C 368.373 582.782 351.213 577.424 343.964 581.498 C 336.208 585.856 331.759 604.622 331.758 604.624 C 331.764 604.624 388.284 603.982 388.290 603.982 C 388.293 603.972 414.238 559.961 419.125 508.673 C 420.416 509.579 394.733 478.110 372.872 470.326 Z"/>
<path id="S1" fill="#ffffff" fill-rule="evenodd" stroke="#000000" stroke-width="2" stroke-linecap="round" stroke-linejoin="round" d="M 609.876 436.922 C 561.670 375.501 538.691 422.770 453.772 313.581 C 445.346 355.912 437.431 430.488 389.532 470.326 C 404.366 548.019 385.036 582.771 385.035 582.782 C 385.033 582.782 367.874 577.424 360.624 581.498 C 352.869 585.856 348.419 604.622 348.418 604.624 C 348.424 604.624 404.944 603.982 404.950 603.982 C 404.953 603.972 436.339 560.190 435.785 508.673 C 470.635 521.695 485.663 504.360 514.654 530.288 C 507.121 568.682 530.859 580.208 530.861 580.213 C 530.855 580.213 494.941 574.752 479.468 583.424 C 471.359 587.970 462.768 604.622 462.766 604.624 C 462.781 604.624 614.145 605.266 614.160 605.267 C 614.160 605.250 670.680 514.395 609.876 436.922 Z"/>
<path id="S3" fill="#000000" fill-rule="evenodd" stroke="#ffffff" stroke-width="2" stroke-linecap="round" stroke-linejoin="round" d="M 393.517 545.753 C 377.015 533.868 361.333 516.997 368.786 486.846 C 377.476 453.150 428.306 434.069 430.739 374.619 C 433.147 315.772 379.573 284.649 358.345 281.019 C 416.185 213.260 488.056 314.716 528.899 294.332 C 529.004 307.324 515.657 317.606 499.293 318.571 C 525.209 323.917 521.197 352.637 546.956 352.908 C 538.055 362.351 534.606 365.471 516.306 359.448 C 543.238 391.340 507.616 405.488 520.865 435.317 C 507.460 430.869 502.544 427.588 500.908 409.091 C 502.747 457.627 468.756 461.248 472.420 492.350 C 463.180 483.265 453.181 475.954 458.516 456.581 C 427.787 514.702 394.793 494.178 393.517 545.753 Z"/>
<path id="S5" fill="#ffffff" fill-rule="evenodd" stroke="#000000" stroke-width="2" stroke-linecap="round" stroke-linejoin="round" d="M 624.275 585.219 C 605.361 589.841 550.870 591.560 550.775 548.700 C 550.710 518.815 587.038 507.610 570.537 474.406 C 567.216 478.381 562.150 479.286 557.241 479.963 C 574.722 504.438 535.418 513.880 536.000 551.912 C 536.504 584.875 551.028 606.738 614.662 605.267 C 618.528 598.268 620.477 593.600 624.275 585.219 Z"/>
<path id="S6" fill="#ffffff" fill-rule="evenodd" stroke="#000000" stroke-width="2" stroke-linecap="round" stroke-linejoin="round" d="M 435.858 256.157 C 410.770 256.420 393.773 278.500 393.769 278.502 C 393.771 278.504 408.543 284.466 420.226 300.126 C 428.412 292.987 449.676 286.440 435.858 256.157 Z"/>
<path id="S9" fill="none" stroke="#000000" stroke-width="2" stroke-linecap="round" stroke-linejoin="round" d="M 410.550 278.790 C 416.239 268.715 423.706 264.685 430.818 262.433 "/>
<path id="S10" fill="#000000" fill-rule="evenodd" stroke="#ffffff" stroke-width="2" stroke-linecap="round" stroke-linejoin="round" d="M 242.646 407.224 C 219.512 407.136 243.901 342.386 267.398 349.625 C 281.055 353.832 280.259 335.089 295.221 341.395 C 308.970 347.191 313.556 333.255 323.736 343.550 C 330.340 350.230 339.984 343.056 342.495 352.286 C 345.549 363.512 353.203 361.842 348.987 373.022 C 344.834 384.032 355.594 402.168 329.857 396.256 C 308.463 391.342 264.372 407.306 242.646 407.224 Z"/>
<path id="S11" fill="#ffffff" fill-rule="evenodd" stroke="#000000" stroke-width="2" stroke-linecap="round" stroke-linejoin="round" d="M 287.205 405.598 C 291.426 411.739 301.015 418.126 313.934 415.883 C 321.842 414.509 329.105 410.107 329.107 410.106 C 329.107 410.107 336.672 414.435 336.673 414.435 C 336.673 414.432 341.157 392.971 340.358 382.167 C 339.013 363.984 328.404 355.265 312.116 355.885 C 291.266 356.679 284.514 373.039 279.239 387.248 C 274.680 388.964 266.001 393.825 265.679 391.925 C 259.049 352.859 240.494 344.250 240.974 289.926 C 265.250 293.666 306.675 283.131 306.678 283.131 C 306.679 283.131 323.103 281.602 323.105 281.602 C 323.100 281.601 304.530 266.301 278.286 276.645 C 259.876 269.530 243.621 266.653 220.911 268.671 C 210.560 304.222 208.878 336.851 218.956 385.789 C 177.693 469.344 123.038 431.548 103.174 482.772 C 80.479 541.292 142.018 566.012 210.035 568.136 C 142.066 567.708 107.254 598.343 95.991 604.832 C 119.845 602.393 272.860 604.145 272.877 604.145 C 272.879 604.145 287.155 604.640 290.307 604.345 C 289.925 559.038 251.443 508.279 196.451 499.033 C 212.895 497.738 235.308 492.491 249.354 475.326 C 253.338 517.406 270.105 536.399 279.041 547.813 C 294.900 534.258 304.289 511.666 308.025 498.842 C 342.695 503.309 350.566 486.545 350.570 486.544 C 350.568 486.544 332.587 487.178 332.585 487.178 C 332.582 487.178 304.569 487.533 304.566 487.533 C 304.564 487.535 287.590 496.087 283.290 511.872 C 277.933 476.023 295.258 452.867 273.373 417.572 C 271.448 414.467 282.448 409.239 287.205 405.598 Z"/>
<path id="S12" fill="none" stroke="#000000" stroke-width="2" stroke-linecap="round" stroke-linejoin="round" d="M 272.877 604.145 C 271.253 560.904 226.645 513.399 169.070 506.482 M 313.834 385.419 C 321.133 392.030 329.673 390.377 335.733 385.419 M 308.876 406.078 C 310.471 410.925 311.986 413.786 313.934 415.883 "/>
<path id="S13" fill="#ffffff" fill-rule="evenodd" stroke="#000000" stroke-width="2" stroke-linecap="round" stroke-linejoin="round" d="M 233.404 466.952 C 233.712 459.562 239.922 453.849 247.312 454.157 C 254.702 454.465 260.415 460.675 260.107 468.065 C 259.799 475.455 253.589 481.168 246.199 480.860 C 238.809 480.552 233.096 474.342 233.404 466.952 M 211.192 438.322 C 211.500 430.933 217.710 425.220 225.099 425.528 C 232.489 425.836 238.202 432.045 237.894 439.435 C 237.586 446.825 231.377 452.538 223.987 452.230 C 216.597 451.922 210.884 445.712 211.192 438.322 Z"/>
<path id="S14" fill="#000000" fill-rule="evenodd" stroke="none" d="M 306.086 350.454 C 331.535 350.586 345.046 363.185 340.955 365.988 C 310.580 386.802 305.886 348.724 278.984 382.844 C 270.600 393.479 263.276 372.593 263.285 369.954 C 263.305 363.844 274.730 350.292 306.086 350.454 Z"/>
<path id="S15" fill="none" stroke="#000000" stroke-width="2" stroke-linecap="round" stroke-linejoin="round" d="M 332.585 487.178 C 331.495 491.038 323.503 492.845 318.435 492.724 "/>
<path id="S16" fill="none" stroke="#000000" stroke-width="2" stroke-linecap="round" stroke-linejoin="round" d="M 306.678 283.131 C 304.180 279.355 296.399 279.598 288.814 280.727 "/>
<path fill="none" stroke="#ffffff" stroke-width="1" stroke-linecap="butt" stroke-linejoin="round" d="M 368.786 486.846 C 377.476 453.150 428.306 434.069 430.739 374.619 "/>
<path fill="none" stroke="#ffffff" stroke-width="1" stroke-linecap="butt" stroke-linejoin="round" d="M 430.739 374.619 C 433.147 315.772 379.573 284.649 358.345 281.019 "/>
<path id="S2" fill="#ffffff" fill-rule="evenodd" stroke="#000000" stroke-width="2" stroke-linecap="round" stroke-linejoin="round" d="M 358.345 281.019 C 338.681 277.657 297.731 284.972 297.725 284.972 C 291.577 286.108 277.615 288.687 277.612 288.688 C 277.613 288.689 279.669 305.952 279.669 305.954 C 279.669 305.955 281.228 319.043 281.229 319.044 C 281.238 319.050 364.286 299.359 379.552 379.006 C 393.255 450.506 299.853 463.092 299.845 463.100 C 299.846 463.103 303.501 487.229 303.502 487.231 C 303.508 487.231 327.465 486.073 368.786 486.846 C 377.476 453.150 428.306 434.069 430.739 374.619 C 433.147 315.772 379.573 284.649 358.345 281.019 Z"/>
<path id="S7" fill="#000000" fill-rule="evenodd" stroke="none" d="M 363.496 291.557 C 374.698 294.187 381.444 307.413 381.446 307.414 C 381.444 307.415 369.517 316.256 358.314 313.625 C 347.111 310.995 340.365 297.770 340.364 297.768 C 340.366 297.768 352.293 288.927 363.496 291.557 Z"/>
<path id="S17" fill="#ffffff" fill-rule="evenodd" stroke="none" d="M 360.653 295.084 C 364.687 295.084 367.942 298.339 367.942 302.373 C 367.942 306.408 364.687 309.662 360.653 309.662 C 356.618 309.662 353.364 306.408 353.364 302.373 C 353.364 298.339 356.618 295.084 360.653 295.084 Z"/>
<path id="S18" fill="none" stroke="#000000" stroke-width="2" stroke-linecap="round" stroke-linejoin="round" d="M 279.669 305.954 C 293.155 301.093 297.040 294.455 297.725 284.972 "/>
<path fill="#ffffff" fill-rule="evenodd" stroke="#000000" stroke-width="2" stroke-linejoin="round" d="M 359.982 235.512 C 347.685 233.926 330.464 220.166 330.461 220.164 C 330.786 219.960 352.078 204.726 361.519 204.963 C 367.105 205.103 376.781 210.441 376.890 219.757 C 377.028 231.501 365.961 236.283 359.982 235.512 M 363.633 245.310 C 349.315 245.498 335.497 236.252 322.234 226.357 C 309.214 236.080 295.272 245.500 280.822 245.310 C 266.380 245.121 257.528 229.581 257.574 220.718 C 257.632 209.559 266.485 194.647 282.935 195.164 C 296.041 195.575 309.753 204.806 322.257 214.036 C 334.952 204.637 348.533 195.572 361.519 195.164 C 377.970 194.647 386.823 209.559 386.881 220.718 C 386.927 229.581 378.075 245.121 363.633 245.310 M 284.473 235.512 C 292.704 234.292 302.898 228.372 313.983 220.156 C 302.917 211.872 292.468 204.723 282.935 204.963 C 277.350 205.103 267.674 210.441 267.565 219.757 C 267.427 231.501 279.311 236.277 284.473 235.512 Z"/>
<path fill="none" stroke="#000000" stroke-width="2" stroke-linejoin="round" d="M 322.234 226.357 C 325.089 224.224 330.364 220.225 330.461 220.164 M 313.983 220.156 C 316.679 218.154 319.432 216.080 322.257 214.036 "/>
<path id="S4" fill="#000000" fill-rule="evenodd" stroke="#ffffff" stroke-width="2" stroke-linecap="round" stroke-linejoin="round" d="M 548.049 479.262 C 531.631 469.833 545.345 459.401 527.006 447.200 C 534.412 444.557 544.444 443.575 547.836 458.433 C 550.701 442.293 534.481 441.611 541.781 420.862 C 546.412 436.453 561.515 426.850 562.164 453.624 C 566.154 445.275 556.372 440.171 572.617 429.213 C 570.030 454.301 584.285 450.387 574.895 472.487 C 572.244 478.726 555.470 483.524 548.049 479.262 Z"/>
<path id="S23_2" fill="#ffffff" fill-rule="evenodd" stroke="#000000" stroke-width="2" stroke-linecap="round" stroke-linejoin="round" d="M 331.733 365.704 C 337.605 361.696 328.296 353.961 328.296 353.959 C 328.297 353.959 340.400 353.884 338.403 347.061 C 336.405 340.238 326.172 346.701 326.171 346.701 C 326.171 346.700 329.840 335.166 322.733 334.957 C 315.627 334.748 318.612 346.477 318.611 346.478 C 318.610 346.478 308.774 339.424 306.379 346.119 C 303.984 352.813 316.063 353.599 316.064 353.600 C 316.063 353.601 306.315 360.775 311.941 365.121 C 317.568 369.468 322.048 358.223 322.049 358.223 C 322.050 358.224 325.861 369.712 331.733 365.704 Z"/>
<path id="S24_2" fill="#000000" fill-rule="evenodd" stroke="none" d="M 322.238 347.155 C 324.805 347.155 326.875 349.226 326.875 351.792 C 326.875 354.359 324.805 356.429 322.238 356.429 C 319.672 356.429 317.601 354.359 317.601 351.792 C 317.601 349.226 319.672 347.155 322.238 347.155 Z"/>
</g>
<g id="specs_2">
<path fill="#ff0000" fill-rule="evenodd" stroke="none" d="M 360.000 620.798 C 360.001 620.800 369.993 648.778 369.994 648.781 C 369.993 648.780 360.001 639.483 360.000 639.482 C 359.999 639.483 350.007 648.780 350.006 648.781 C 350.007 648.778 359.999 620.800 360.000 620.798 Z"/>
<path fill="#0000ff" fill-rule="evenodd" stroke="none" d="M 326.242 164.620 C 326.242 164.622 332.046 180.873 332.047 180.875 C 332.046 180.875 326.242 175.474 326.242 175.474 C 326.241 175.474 320.437 180.875 320.436 180.875 C 320.437 180.873 326.241 164.622 326.242 164.620 Z"/>
<path fill="#00ff00" fill-rule="evenodd" stroke="none" d="M 13.893 581.384 C 13.894 581.386 19.781 597.608 19.781 597.610 C 19.781 597.609 13.949 592.238 13.948 592.238 C 13.948 592.238 8.171 597.668 8.171 597.668 C 8.171 597.667 13.893 581.386 13.893 581.384 Z"/>
<path fill="#00ffff" fill-rule="evenodd" stroke="none" d="M 609.007 343.419 C 609.006 343.421 601.881 363.538 601.881 363.540 C 601.880 363.539 600.531 353.828 600.531 353.827 C 600.530 353.827 590.747 354.473 590.746 354.473 C 590.748 354.472 609.005 343.420 609.007 343.419 Z"/>
<path fill="#00ffff" fill-rule="evenodd" stroke="none" d="M 129.254 344.085 C 129.255 344.087 137.705 363.685 137.706 363.687 C 137.706 363.686 138.404 353.906 138.404 353.905 C 138.405 353.905 148.209 353.898 148.210 353.898 C 148.208 353.897 129.256 344.086 129.254 344.085 Z"/>
<path fill="#00ff00" fill-rule="evenodd" stroke="none" d="M 706.107 581.384 C 706.106 581.386 700.220 597.608 700.219 597.610 C 700.220 597.609 706.051 592.238 706.052 592.238 C 706.052 592.238 711.829 597.668 711.829 597.668 C 711.829 597.667 706.107 581.386 706.107 581.384 Z"/>
</g>
</g>
</svg>
