<?xml version="1.0" encoding="utf-8"?>
<!-- Generator: Moho 13.5 build 20210422 -->
<!DOCTYPE svg PUBLIC "-//W3C//DTD SVG 1.1//EN" "http://www.w3.org/Graphics/SVG/1.1/DTD/svg11.dtd">
<svg version="1.1" id="Frame_0" xmlns="http://www.w3.org/2000/svg" xmlns:xlink="http://www.w3.org/1999/xlink" width="720px" height="720px">
<g id="sun_pointy_2">
<g id="sun_pointy">
<path id="S1" fill="#ffffff" fill-rule="evenodd" stroke="#000000" stroke-width="4" stroke-linecap="round" stroke-linejoin="round" d="M 411.284 195.816 C 399.885 191.078 387.534 187.877 374.502 186.403 C 403.144 150.635 459.566 80.173 459.575 80.162 C 459.573 80.176 449.521 171.033 444.584 215.652 C 434.630 207.554 423.522 200.886 411.284 195.816 Z"/>
<path id="S2" fill="#ffffff" fill-rule="evenodd" stroke="#000000" stroke-width="4" stroke-linecap="round" stroke-linejoin="round" d="M 484.742 269.274 C 479.621 256.927 472.778 245.531 464.905 235.974 C 509.525 231.037 600.382 220.985 600.396 220.983 C 600.385 220.992 529.031 278.129 493.990 306.188 C 492.537 293.193 489.305 280.787 484.742 269.274 Z"/>
<path id="S3" fill="#ffffff" fill-rule="evenodd" stroke="#000000" stroke-width="4" stroke-linecap="round" stroke-linejoin="round" d="M 484.743 371.842 C 489.484 360.448 492.686 348.097 494.155 335.061 C 529.923 363.702 600.386 420.125 600.396 420.133 C 600.383 420.132 509.525 410.079 464.906 405.142 C 473.007 395.190 479.676 384.084 484.743 371.842 Z"/>
<path id="S4" fill="#ffffff" fill-rule="evenodd" stroke="#000000" stroke-width="4" stroke-linecap="round" stroke-linejoin="round" d="M 411.329 445.143 C 423.667 440.063 435.055 433.251 444.584 425.464 C 449.521 470.083 459.573 560.940 459.575 560.954 C 459.566 560.943 402.430 489.589 374.370 454.547 C 387.366 453.096 399.772 449.865 411.329 445.143 Z"/>
<path id="S5" fill="#ffffff" fill-rule="evenodd" stroke="#000000" stroke-width="4" stroke-linecap="round" stroke-linejoin="round" d="M 308.716 445.300 C 320.115 450.046 332.466 453.250 345.497 454.714 C 316.856 490.482 260.434 560.944 260.425 560.954 C 260.427 560.941 270.354 471.220 275.393 425.675 C 285.357 433.687 296.470 440.306 308.716 445.300 Z"/>
<path id="S6" fill="#ffffff" fill-rule="evenodd" stroke="#000000" stroke-width="4" stroke-linecap="round" stroke-linejoin="round" d="M 235.415 371.888 C 240.293 383.733 246.768 394.703 254.883 405.166 C 209.339 410.205 119.618 420.132 119.604 420.133 C 119.615 420.125 190.969 362.988 226.011 334.928 C 227.463 347.925 230.695 360.332 235.415 371.888 Z"/>
<path id="S7" fill="#ffffff" fill-rule="evenodd" stroke="#000000" stroke-width="4" stroke-linecap="round" stroke-linejoin="round" d="M 235.258 269.274 C 230.516 280.677 227.314 293.029 225.844 306.055 C 190.077 277.414 119.614 220.992 119.604 220.983 C 119.617 220.985 209.339 230.912 254.884 235.951 C 246.874 245.918 240.256 257.033 235.258 269.274 Z"/>
<path id="S8" fill="#ffffff" fill-rule="evenodd" stroke="#000000" stroke-width="4" stroke-linecap="round" stroke-linejoin="round" d="M 308.670 195.975 C 296.827 200.854 285.857 207.329 275.393 215.442 C 270.354 169.897 260.427 80.176 260.425 80.163 C 260.434 80.173 317.570 151.527 345.630 186.568 C 332.634 188.022 320.227 191.255 308.670 195.975 Z"/>
<path fill="none" stroke="#ffffff" stroke-width="1" stroke-linecap="butt" stroke-linejoin="round" d="M 308.670 195.975 C 320.227 191.255 332.634 188.022 345.630 186.568 "/>
<path fill="none" stroke="#ffffff" stroke-width="1" stroke-linecap="butt" stroke-linejoin="round" d="M 374.502 186.403 C 387.534 187.877 399.885 191.078 411.284 195.816 "/>
<path id="S9" fill="#ffffff" fill-rule="evenodd" stroke="#000000" stroke-width="4" stroke-linecap="round" stroke-linejoin="round" d="M 360.000 19.138 C 359.995 19.155 325.680 137.375 308.670 195.975 C 320.227 191.255 332.634 188.022 345.630 186.568 C 349.622 186.014 354.776 185.719 360.000 185.719 C 364.932 185.719 369.801 185.982 374.502 186.403 C 387.534 187.877 399.885 191.078 411.284 195.816 C 394.320 137.375 360.005 19.155 360.000 19.138 Z"/>
<path fill="none" stroke="#ffffff" stroke-width="1" stroke-linecap="butt" stroke-linejoin="round" d="M 411.284 195.816 C 423.522 200.886 434.630 207.554 444.584 215.652 "/>
<path fill="none" stroke="#ffffff" stroke-width="1" stroke-linecap="butt" stroke-linejoin="round" d="M 464.905 235.974 C 472.778 245.531 479.621 256.927 484.742 269.274 "/>
<path id="S10" fill="#ffffff" fill-rule="evenodd" stroke="#000000" stroke-width="4" stroke-linecap="round" stroke-linejoin="round" d="M 573.137 107.422 C 573.125 107.410 411.247 196.759 411.284 195.816 C 423.522 200.886 434.630 207.554 444.584 215.652 C 452.107 221.758 458.863 228.526 464.905 235.974 C 472.778 245.531 479.621 256.927 484.742 269.274 C 485.248 268.494 573.128 107.438 573.137 107.422 Z"/>
<path fill="none" stroke="#ffffff" stroke-width="1" stroke-linecap="butt" stroke-linejoin="round" d="M 484.742 269.274 C 489.305 280.787 492.537 293.193 493.990 306.188 "/>
<path fill="none" stroke="#ffffff" stroke-width="1" stroke-linecap="butt" stroke-linejoin="round" d="M 494.155 335.061 C 492.686 348.097 489.484 360.448 484.743 371.842 "/>
<path id="S11" fill="#ffffff" fill-rule="evenodd" stroke="#000000" stroke-width="4" stroke-linecap="round" stroke-linejoin="round" d="M 661.421 320.558 C 661.403 320.553 543.184 286.238 484.742 269.274 C 489.305 280.787 492.537 293.193 493.990 306.188 C 494.549 310.186 494.844 315.339 494.844 320.564 C 494.844 325.496 494.581 330.365 494.155 335.061 C 492.686 348.097 489.484 360.448 484.743 371.842 C 543.184 354.879 661.403 320.563 661.421 320.558 Z"/>
<path fill="none" stroke="#ffffff" stroke-width="1" stroke-linecap="butt" stroke-linejoin="round" d="M 484.743 371.842 C 479.676 384.084 473.007 395.190 464.906 405.142 "/>
<path fill="none" stroke="#ffffff" stroke-width="1" stroke-linecap="butt" stroke-linejoin="round" d="M 444.584 425.464 C 435.055 433.251 423.667 440.063 411.329 445.143 "/>
<path id="S12" fill="#ffffff" fill-rule="evenodd" stroke="#000000" stroke-width="4" stroke-linecap="round" stroke-linejoin="round" d="M 573.137 533.695 C 573.128 533.679 484.435 372.440 484.743 371.842 C 479.676 384.084 473.007 395.190 464.906 405.142 C 458.803 412.669 452.034 419.423 444.584 425.464 C 435.055 433.251 423.667 440.063 411.329 445.143 C 411.346 445.152 573.121 533.686 573.137 533.695 Z"/>
<path fill="none" stroke="#ffffff" stroke-width="1" stroke-linecap="butt" stroke-linejoin="round" d="M 374.370 454.547 C 387.366 453.096 399.772 449.865 411.329 445.143 "/>
<path fill="none" stroke="#ffffff" stroke-width="1" stroke-linecap="butt" stroke-linejoin="round" d="M 308.716 445.300 C 320.115 450.046 332.466 453.250 345.497 454.714 "/>
<path id="S13" fill="#ffffff" fill-rule="evenodd" stroke="#000000" stroke-width="4" stroke-linecap="round" stroke-linejoin="round" d="M 345.497 454.714 C 350.199 455.145 355.068 455.408 360.000 455.408 C 365.225 455.408 370.378 455.113 374.370 454.547 C 387.366 453.096 399.772 449.865 411.329 445.143 C 394.320 503.742 360.005 621.961 360.000 621.979 C 359.995 621.961 325.680 503.742 308.716 445.300 C 320.115 450.046 332.466 453.250 345.497 454.714 Z"/>
<path fill="none" stroke="#ffffff" stroke-width="1" stroke-linecap="butt" stroke-linejoin="round" d="M 235.415 371.888 C 240.293 383.733 246.768 394.703 254.883 405.166 "/>
<path fill="none" stroke="#ffffff" stroke-width="1" stroke-linecap="butt" stroke-linejoin="round" d="M 275.393 425.675 C 285.357 433.687 296.470 440.306 308.716 445.300 "/>
<path id="S14" fill="#ffffff" fill-rule="evenodd" stroke="#000000" stroke-width="4" stroke-linecap="round" stroke-linejoin="round" d="M 146.863 533.695 C 146.872 533.679 235.406 371.904 235.415 371.888 C 240.293 383.733 246.768 394.703 254.883 405.166 C 260.979 412.793 267.927 419.746 275.393 425.675 C 285.357 433.687 296.470 440.306 308.716 445.300 C 308.754 446.265 146.879 533.686 146.863 533.695 Z"/>
<path fill="none" stroke="#ffffff" stroke-width="1" stroke-linecap="butt" stroke-linejoin="round" d="M 235.258 269.274 C 230.516 280.677 227.314 293.029 225.844 306.055 "/>
<path fill="none" stroke="#ffffff" stroke-width="1" stroke-linecap="butt" stroke-linejoin="round" d="M 226.011 334.928 C 227.463 347.925 230.695 360.332 235.415 371.888 "/>
<path id="S15" fill="#ffffff" fill-rule="evenodd" stroke="#000000" stroke-width="4" stroke-linecap="round" stroke-linejoin="round" d="M 58.579 320.558 C 58.597 320.553 176.816 286.238 235.258 269.274 C 230.516 280.677 227.314 293.029 225.844 306.055 C 225.419 310.763 225.156 315.632 225.156 320.564 C 225.156 325.788 225.451 330.942 226.011 334.928 C 227.463 347.925 230.695 360.332 235.415 371.888 C 176.816 354.878 58.597 320.563 58.579 320.558 Z"/>
<path fill="none" stroke="#ffffff" stroke-width="1" stroke-linecap="butt" stroke-linejoin="round" d="M 308.670 195.975 C 296.827 200.854 285.857 207.329 275.393 215.442 "/>
<path fill="none" stroke="#ffffff" stroke-width="1" stroke-linecap="butt" stroke-linejoin="round" d="M 254.884 235.951 C 246.874 245.918 240.256 257.033 235.258 269.274 "/>
<path id="S16" fill="#ffffff" fill-rule="evenodd" stroke="#000000" stroke-width="4" stroke-linecap="round" stroke-linejoin="round" d="M 146.863 107.422 C 146.879 107.430 308.654 195.966 308.670 195.975 C 296.827 200.854 285.857 207.329 275.393 215.442 C 267.767 221.540 260.814 228.488 254.884 235.951 C 246.874 245.918 240.256 257.033 235.258 269.274 C 236.837 270.585 146.872 107.438 146.863 107.422 Z"/>
</g>
<g id="specs_2">
<path fill="#ff00ff" fill-rule="evenodd" stroke="none" d="M 262.249 418.313 C 262.268 418.313 457.732 418.313 457.751 418.313 C 457.751 418.294 457.751 222.830 457.751 222.811 C 457.732 222.811 262.268 222.811 262.249 222.811 C 262.249 222.830 262.249 418.294 262.249 418.313 Z"/>
<path fill="#ff0000" fill-rule="evenodd" stroke="none" d="M 360.000 681.856 C 360.001 681.859 371.369 713.689 371.370 713.693 C 371.369 713.692 360.001 703.115 360.000 703.114 C 359.999 703.115 348.631 713.692 348.630 713.693 C 348.631 713.689 359.999 681.859 360.000 681.856 Z"/>
<path fill="#0000ff" fill-rule="evenodd" stroke="none" d="M 360.000 7.597 C 360.001 7.599 366.604 26.088 366.604 26.090 C 366.604 26.089 360.001 19.946 360.000 19.945 C 359.999 19.946 353.396 26.089 353.396 26.090 C 353.396 26.088 359.999 7.599 360.000 7.597 Z"/>
<path fill="#00ff00" fill-rule="evenodd" stroke="none" d="M 47.607 321.480 C 47.609 321.479 66.065 314.782 66.067 314.781 C 66.066 314.782 59.956 321.417 59.955 321.417 C 59.956 321.418 66.133 327.990 66.133 327.990 C 66.132 327.990 47.609 321.480 47.607 321.480 Z"/>
<path fill="#ffff00" fill-rule="evenodd" stroke="none" d="M 138.421 543.240 C 138.422 543.238 146.616 525.397 146.617 525.395 C 146.617 525.396 147.048 534.405 147.048 534.406 C 147.049 534.406 156.066 534.625 156.066 534.625 C 156.065 534.625 138.423 543.239 138.421 543.240 Z"/>
<path fill="#ffff00" fill-rule="evenodd" stroke="none" d="M 581.579 543.021 C 581.578 543.019 573.028 525.346 573.027 525.344 C 573.027 525.345 572.776 534.361 572.776 534.362 C 572.776 534.362 563.765 534.762 563.764 534.762 C 563.766 534.763 581.577 543.020 581.579 543.021 Z"/>
<path fill="#00ff00" fill-rule="evenodd" stroke="none" d="M 672.393 321.480 C 672.391 321.479 653.935 314.782 653.933 314.781 C 653.934 314.782 660.044 321.417 660.045 321.417 C 660.044 321.418 653.867 327.990 653.867 327.990 C 653.868 327.990 672.391 321.480 672.393 321.480 Z"/>
<path fill="#00ffff" fill-rule="evenodd" stroke="none" d="M 580.723 98.995 C 580.722 98.997 574.168 117.504 574.167 117.506 C 574.167 117.505 572.926 108.571 572.926 108.570 C 572.925 108.570 563.925 109.164 563.924 109.164 C 563.926 109.163 580.721 98.996 580.723 98.995 Z"/>
<path fill="#00ffff" fill-rule="evenodd" stroke="none" d="M 139.379 99.608 C 139.380 99.610 147.154 117.639 147.155 117.641 C 147.155 117.640 147.797 108.643 147.797 108.642 C 147.798 108.642 156.817 108.635 156.818 108.635 C 156.817 108.634 139.381 99.609 139.379 99.608 Z"/>
<path fill="#be0027" fill-rule="evenodd" stroke="none" d="M 360.000 641.710 C 360.001 641.707 371.369 609.877 371.370 609.874 C 371.369 609.875 360.001 620.452 360.000 620.453 C 359.999 620.452 348.631 609.875 348.630 609.874 C 348.631 609.877 359.999 641.707 360.000 641.710 Z"/>
</g>
</g>
</svg>
