<?xml version="1.0" encoding="utf-8"?>
<!-- Generator: Moho 13.5 build 20210422 -->
<!DOCTYPE svg PUBLIC "-//W3C//DTD SVG 1.1//EN" "http://www.w3.org/Graphics/SVG/1.1/DTD/svg11.dtd">
<svg version="1.1" id="Frame_0" xmlns="http://www.w3.org/2000/svg" xmlns:xlink="http://www.w3.org/1999/xlink" width="720px" height="720px">
<g id="sun_pointy">
<g id="sun_pointy">
<path id="S1" fill="#ffffff" fill-rule="evenodd" stroke="#000000" stroke-width="4" stroke-linecap="round" stroke-linejoin="round" d="M 290.074 239.985 C 290.057 239.983 119.920 221.158 119.903 221.156 C 119.916 221.167 253.532 328.160 253.546 328.171 C 253.549 328.162 290.070 239.994 290.074 239.985 M 466.454 313.044 C 466.468 313.055 600.084 420.048 600.097 420.059 C 600.080 420.057 429.943 401.232 429.926 401.230 C 429.930 401.221 466.451 313.053 466.454 313.044 M 279.377 390.534 C 279.375 390.551 260.551 560.688 260.549 560.705 C 260.560 560.691 367.552 427.075 367.563 427.062 C 367.554 427.058 279.386 390.538 279.377 390.534 M 352.437 214.153 C 352.448 214.140 459.440 80.524 459.451 80.511 C 459.449 80.528 440.625 250.664 440.623 250.681 C 440.614 250.677 352.446 214.157 352.437 214.153 M 253.546 313.044 C 253.532 313.055 119.917 420.048 119.904 420.059 C 119.921 420.057 290.057 401.232 290.074 401.230 C 290.070 401.221 253.549 313.053 253.546 313.044 M 429.926 239.985 C 429.943 239.983 600.079 221.158 600.097 221.156 C 600.083 221.167 466.468 328.160 466.454 328.171 C 466.451 328.162 429.930 239.994 429.926 239.985 M 352.437 427.062 C 352.448 427.075 459.440 560.691 459.451 560.704 C 459.449 560.687 440.625 390.551 440.623 390.534 C 440.614 390.538 352.446 427.058 352.437 427.062 M 279.377 250.681 C 279.375 250.664 260.551 80.528 260.549 80.511 C 260.560 80.524 367.552 214.140 367.563 214.153 C 367.554 214.157 279.386 250.677 279.377 250.681 Z"/>
<path id="S1_2" fill="#ffffff" fill-rule="evenodd" stroke="#000000" stroke-width="4" stroke-linecap="round" stroke-linejoin="round" d="M 320.903 203.324 C 320.886 203.314 147.146 107.745 147.128 107.736 C 147.138 107.753 242.707 281.493 242.716 281.510 C 242.724 281.503 320.895 203.332 320.903 203.324 M 477.284 359.705 C 477.293 359.722 572.862 533.462 572.872 533.479 C 572.854 533.470 399.114 437.901 399.097 437.891 C 399.105 437.883 477.276 359.712 477.284 359.705 M 242.716 359.705 C 242.707 359.722 147.138 533.462 147.128 533.479 C 147.146 533.470 320.886 437.901 320.903 437.891 C 320.895 437.883 242.724 359.712 242.716 359.705 M 399.097 203.324 C 399.114 203.314 572.854 107.745 572.872 107.736 C 572.862 107.753 477.293 281.493 477.284 281.510 C 477.276 281.503 399.105 203.332 399.097 203.324 M 249.422 265.321 C 249.403 265.327 58.973 320.602 58.954 320.608 C 58.973 320.613 249.403 375.888 249.422 375.894 C 249.422 375.883 249.422 265.332 249.422 265.321 M 470.578 265.321 C 470.597 265.327 661.027 320.602 661.046 320.608 C 661.027 320.613 470.597 375.888 470.578 375.894 C 470.578 375.883 470.578 265.332 470.578 265.321 M 304.714 431.185 C 304.719 431.204 359.994 621.634 360.000 621.653 C 360.006 621.634 415.281 431.204 415.286 431.185 C 415.275 431.185 304.725 431.185 304.714 431.185 M 304.714 210.030 C 304.719 210.011 359.994 19.581 360.000 19.562 C 360.006 19.581 415.281 210.011 415.286 210.030 C 415.275 210.030 304.725 210.030 304.714 210.030 Z"/>
<path id="S3" fill="#ffffff" fill-rule="evenodd" stroke="#000000" stroke-width="4" stroke-linecap="round" stroke-linejoin="round" d="M 360.000 455.290 C 434.543 455.290 494.677 395.156 494.677 320.613 C 494.677 246.070 434.543 185.936 360.000 185.936 C 285.457 185.936 225.323 246.070 225.323 320.613 C 225.323 395.156 285.457 455.290 360.000 455.290 Z"/>
</g>
<g id="specs_2">
<path fill="#ff00ff" fill-rule="evenodd" stroke="none" d="M 265.154 415.457 C 265.173 415.457 454.827 415.457 454.846 415.457 C 454.846 415.438 454.846 225.784 454.846 225.765 C 454.827 225.765 265.173 225.765 265.154 225.765 C 265.154 225.784 265.154 415.438 265.154 415.457 Z"/>
<path fill="#ff0000" fill-rule="evenodd" stroke="none" d="M 360.000 681.456 C 360.001 681.459 371.355 713.250 371.356 713.253 C 371.355 713.252 360.001 702.688 360.000 702.687 C 359.999 702.688 348.645 713.252 348.644 713.253 C 348.645 713.250 359.999 681.459 360.000 681.456 Z"/>
<path fill="#0000ff" fill-rule="evenodd" stroke="none" d="M 360.000 8.036 C 360.001 8.037 366.596 26.504 366.596 26.506 C 366.596 26.505 360.001 20.369 360.000 20.368 C 359.999 20.369 353.404 26.505 353.404 26.506 C 353.404 26.504 359.999 8.037 360.000 8.036 Z"/>
<path fill="#00ff00" fill-rule="evenodd" stroke="none" d="M 47.996 321.528 C 47.998 321.527 66.431 314.838 66.432 314.838 C 66.432 314.838 60.329 321.465 60.328 321.465 C 60.329 321.466 66.498 328.030 66.499 328.030 C 66.497 328.030 47.998 321.528 47.996 321.528 Z"/>
<path fill="#ffff00" fill-rule="evenodd" stroke="none" d="M 138.697 543.012 C 138.697 543.010 146.881 525.191 146.882 525.189 C 146.882 525.190 147.313 534.188 147.313 534.189 C 147.314 534.189 156.319 534.407 156.320 534.408 C 156.318 534.408 138.698 543.011 138.697 543.012 Z"/>
<path fill="#ffff00" fill-rule="evenodd" stroke="none" d="M 581.303 542.794 C 581.303 542.792 572.763 525.141 572.762 525.139 C 572.762 525.140 572.512 534.145 572.512 534.145 C 572.511 534.145 563.511 534.544 563.510 534.544 C 563.512 534.545 581.302 542.793 581.303 542.794 Z"/>
<path fill="#00ff00" fill-rule="evenodd" stroke="none" d="M 672.004 321.528 C 672.002 321.527 653.569 314.838 653.568 314.838 C 653.568 314.838 659.671 321.465 659.672 321.465 C 659.671 321.466 653.502 328.030 653.501 328.030 C 653.503 328.030 672.002 321.528 672.004 321.528 Z"/>
<path fill="#00ffff" fill-rule="evenodd" stroke="none" d="M 580.448 99.320 C 580.448 99.322 573.901 117.806 573.901 117.807 C 573.901 117.806 572.661 108.884 572.661 108.883 C 572.660 108.883 563.672 109.476 563.671 109.477 C 563.672 109.476 580.447 99.321 580.448 99.320 Z"/>
<path fill="#00ffff" fill-rule="evenodd" stroke="none" d="M 139.654 99.933 C 139.655 99.934 147.419 117.941 147.419 117.942 C 147.420 117.941 148.061 108.956 148.061 108.955 C 148.062 108.955 157.070 108.948 157.071 108.948 C 157.069 108.947 139.656 99.933 139.654 99.933 Z"/>
<path fill="#be0027" fill-rule="evenodd" stroke="none" d="M 360.000 641.360 C 360.001 641.357 371.355 609.567 371.356 609.564 C 371.355 609.565 360.001 620.128 360.000 620.129 C 359.999 620.128 348.645 609.565 348.644 609.564 C 348.645 609.567 359.999 641.357 360.000 641.360 Z"/>
</g>
</g>
</svg>
