<?xml version="1.0" encoding="utf-8"?>
<!-- Generator: Moho 13.5.1 build 20210623 -->
<!DOCTYPE svg PUBLIC "-//W3C//DTD SVG 1.1//EN" "http://www.w3.org/Graphics/SVG/1.1/DTD/svg11.dtd">
<svg version="1.1" id="Frame_0" xmlns="http://www.w3.org/2000/svg" xmlns:xlink="http://www.w3.org/1999/xlink" width="720px" height="720px">
<g id="sun_pointy_2">
<g id="sun_pointy">
<radialGradient id="649A0246-9BA6-4FA2-A542-2E15D57BCA34_0" cx="50.00%" cy="50.00%" r="41.91%">
<stop offset="15.69%" style="stop-color:rgb(0,0,0);stop-opacity:1.00" />
<stop offset="72.94%" style="stop-color:rgb(255,255,255);stop-opacity:1.00" />
</radialGradient>
<path id="S1" fill="url(#649A0246-9BA6-4FA2-A542-2E15D57BCA34_0)" fill-rule="evenodd" stroke="#000000" stroke-width="4" stroke-linecap="round" stroke-linejoin="round" d="M 225.925 320.562 C 225.925 394.771 285.791 454.637 360.000 454.637 C 434.210 454.637 494.075 394.771 494.075 320.562 C 494.075 246.352 434.210 186.487 360.000 186.487 C 285.791 186.487 225.925 246.352 225.925 320.562 M 374.502 186.403 C 369.801 185.982 349.622 186.014 345.630 186.568 C 317.570 151.527 260.434 80.173 260.425 80.163 C 260.427 80.176 270.354 169.897 275.393 215.442 C 267.767 221.540 260.814 228.488 254.884 235.951 C 209.339 230.912 119.617 220.985 119.604 220.983 C 119.614 220.992 190.077 277.414 225.844 306.055 C 225.419 310.763 225.451 330.942 226.011 334.928 C 190.969 362.988 119.615 420.125 119.604 420.133 C 119.618 420.132 209.339 410.205 254.883 405.166 C 260.979 412.793 267.927 419.746 275.393 425.675 C 270.354 471.220 260.427 560.941 260.425 560.954 C 260.434 560.944 316.856 490.482 345.497 454.714 C 350.199 455.145 370.378 455.113 374.370 454.547 C 402.430 489.589 459.566 560.943 459.575 560.954 C 459.573 560.940 449.521 470.083 444.584 425.464 C 452.034 419.423 458.803 412.669 464.906 405.142 C 509.525 410.079 600.383 420.132 600.396 420.133 C 600.386 420.125 529.923 363.702 494.155 335.061 C 494.581 330.365 494.549 310.186 493.990 306.188 C 529.031 278.129 600.385 220.992 600.396 220.983 C 600.382 220.985 509.525 231.037 464.905 235.974 C 458.863 228.526 452.107 221.758 444.584 215.652 C 449.521 171.033 459.573 80.176 459.575 80.162 C 459.566 80.173 403.144 150.635 374.502 186.403 Z"/>
</g>
<g id="sun_pointy_2">
<path id="S16" fill="none" stroke="#000000" stroke-width="4" stroke-linecap="round" stroke-linejoin="round" d="M 235.258 269.274 C 236.837 270.585 146.872 107.438 146.863 107.422 C 146.879 107.430 308.654 195.966 308.670 195.975 "/>
<radialGradient id="046ED82E-DF85-4E56-8290-5024B5E29C1C_1" cx="50.00%" cy="50.00%" r="46.77%">
<stop offset="0.00%" style="stop-color:rgb(0,0,0);stop-opacity:1.00" />
<stop offset="72.94%" style="stop-color:rgb(255,255,255);stop-opacity:1.00" />
</radialGradient>
<path id="S2" fill="url(#046ED82E-DF85-4E56-8290-5024B5E29C1C_1)" fill-rule="evenodd" stroke="#000000" stroke-width="4" stroke-linecap="round" stroke-linejoin="round" d="M 225.770 320.562 C 225.770 394.857 285.705 454.792 360.000 454.792 C 434.295 454.792 494.230 394.857 494.230 320.562 C 494.230 246.267 434.295 186.332 360.000 186.332 C 285.705 186.332 225.770 246.267 225.770 320.562 M 360.000 19.138 C 359.995 19.155 325.680 137.375 308.670 195.975 C 308.654 195.966 146.879 107.430 146.863 107.422 C 146.872 107.438 236.837 270.585 235.258 269.274 C 176.816 286.238 58.597 320.553 58.579 320.558 C 58.597 320.563 176.816 354.878 235.415 371.888 C 235.406 371.904 146.872 533.679 146.863 533.695 C 146.879 533.686 308.754 446.265 308.716 445.300 C 325.680 503.742 359.995 621.961 360.000 621.979 C 360.005 621.961 394.320 503.742 411.329 445.143 C 411.346 445.152 573.121 533.686 573.137 533.695 C 573.128 533.679 484.435 372.440 484.743 371.842 C 543.184 354.879 661.403 320.563 661.421 320.558 C 661.403 320.553 543.184 286.238 484.742 269.274 C 485.248 268.494 573.128 107.438 573.137 107.422 C 573.125 107.410 411.247 196.759 411.284 195.816 C 394.320 137.375 360.005 19.155 360.000 19.138 Z"/>
</g>
<g id="specs_2">
<path fill="#ff00ff" fill-rule="evenodd" stroke="none" d="M 262.249 418.313 C 262.268 418.313 457.732 418.313 457.751 418.313 C 457.751 418.294 457.751 222.830 457.751 222.811 C 457.732 222.811 262.268 222.811 262.249 222.811 C 262.249 222.830 262.249 418.294 262.249 418.313 Z"/>
<path fill="#ff0000" fill-rule="evenodd" stroke="none" d="M 360.000 681.856 C 360.001 681.859 371.369 713.689 371.370 713.693 C 371.369 713.692 360.001 703.115 360.000 703.114 C 359.999 703.115 348.631 713.692 348.630 713.693 C 348.631 713.689 359.999 681.859 360.000 681.856 Z"/>
<path fill="#0000ff" fill-rule="evenodd" stroke="none" d="M 360.000 7.597 C 360.001 7.599 366.604 26.088 366.604 26.090 C 366.604 26.089 360.001 19.946 360.000 19.945 C 359.999 19.946 353.396 26.089 353.396 26.090 C 353.396 26.088 359.999 7.599 360.000 7.597 Z"/>
<path fill="#00ff00" fill-rule="evenodd" stroke="none" d="M 47.607 321.480 C 47.609 321.479 66.065 314.782 66.067 314.781 C 66.066 314.782 59.956 321.417 59.955 321.417 C 59.956 321.418 66.133 327.990 66.133 327.990 C 66.132 327.990 47.609 321.480 47.607 321.480 Z"/>
<path fill="#ffff00" fill-rule="evenodd" stroke="none" d="M 138.421 543.240 C 138.422 543.238 146.616 525.397 146.617 525.395 C 146.617 525.396 147.048 534.405 147.048 534.406 C 147.049 534.406 156.066 534.625 156.066 534.625 C 156.065 534.625 138.423 543.239 138.421 543.240 Z"/>
<path fill="#ffff00" fill-rule="evenodd" stroke="none" d="M 581.579 543.021 C 581.578 543.019 573.028 525.346 573.027 525.344 C 573.027 525.345 572.776 534.361 572.776 534.362 C 572.776 534.362 563.765 534.762 563.764 534.762 C 563.766 534.763 581.577 543.020 581.579 543.021 Z"/>
<path fill="#00ff00" fill-rule="evenodd" stroke="none" d="M 672.393 321.480 C 672.391 321.479 653.935 314.782 653.933 314.781 C 653.934 314.782 660.044 321.417 660.045 321.417 C 660.044 321.418 653.867 327.990 653.867 327.990 C 653.868 327.990 672.391 321.480 672.393 321.480 Z"/>
<path fill="#00ffff" fill-rule="evenodd" stroke="none" d="M 580.723 98.995 C 580.722 98.997 574.168 117.504 574.167 117.506 C 574.167 117.505 572.926 108.571 572.926 108.570 C 572.925 108.570 563.925 109.164 563.924 109.164 C 563.926 109.163 580.721 98.996 580.723 98.995 Z"/>
<path fill="#00ffff" fill-rule="evenodd" stroke="none" d="M 139.379 99.608 C 139.380 99.610 147.154 117.639 147.155 117.641 C 147.155 117.640 147.797 108.643 147.797 108.642 C 147.798 108.642 156.817 108.635 156.818 108.635 C 156.817 108.634 139.381 99.609 139.379 99.608 Z"/>
<path fill="#be0027" fill-rule="evenodd" stroke="none" d="M 360.000 641.710 C 360.001 641.707 371.369 609.877 371.370 609.874 C 371.369 609.875 360.001 620.452 360.000 620.453 C 359.999 620.452 348.631 609.875 348.630 609.874 C 348.631 609.877 359.999 641.707 360.000 641.710 Z"/>
</g>
</g>
</svg>
