<?xml version="1.0" encoding="utf-8"?>
<!-- Generator: Moho 13.5 build 20210422 -->
<!DOCTYPE svg PUBLIC "-//W3C//DTD SVG 1.1//EN" "http://www.w3.org/Graphics/SVG/1.1/DTD/svg11.dtd">
<svg version="1.1" id="Frame_0" xmlns="http://www.w3.org/2000/svg" xmlns:xlink="http://www.w3.org/1999/xlink" width="720px" height="720px">
<g id="sun_ring">
<g id="sun_ring">
<radialGradient id="7ABBA0AC-B882-4B5F-B184-2A9A0ED543CF_0" cx="50.00%" cy="50.00%" r="50.00%">
<stop offset="9.41%" style="stop-color:rgb(0,0,0);stop-opacity:1.00" />
<stop offset="70.59%" style="stop-color:rgb(255,255,255);stop-opacity:1.00" />
</radialGradient>
<path fill="url(#7ABBA0AC-B882-4B5F-B184-2A9A0ED543CF_0)" fill-rule="evenodd" stroke="#000000" stroke-width="4" stroke-linejoin="round" d="M 180.291 354.854 C 180.291 255.387 260.532 175.146 360.000 175.146 C 459.468 175.146 539.709 255.387 539.709 354.854 C 539.709 454.322 459.468 534.563 360.000 534.563 C 260.532 534.563 180.291 454.322 180.291 354.854 M 338.207 575.504 C 342.454 556.872 359.860 541.466 359.862 541.463 C 359.863 541.467 358.099 561.065 364.553 576.531 C 374.394 600.116 390.357 601.375 398.520 618.448 C 404.219 630.370 399.828 641.467 407.009 655.151 C 417.639 675.407 445.435 695.552 445.439 695.556 C 445.438 695.552 431.241 669.549 432.180 650.177 C 433.132 630.524 451.446 622.438 450.065 605.671 C 448.748 589.694 430.581 587.771 426.499 566.510 C 422.918 547.859 432.604 526.887 432.605 526.883 C 432.607 526.887 438.184 545.769 449.944 557.688 C 467.788 575.771 483.103 570.784 496.946 583.523 C 506.661 592.463 506.545 604.492 518.269 614.542 C 535.533 629.341 568.704 637.524 568.709 637.527 C 568.706 637.523 545.495 619.057 538.856 600.817 C 532.161 582.424 545.817 567.984 538.148 553.109 C 530.795 538.844 513.281 543.982 501.388 525.863 C 490.990 510.021 491.940 486.992 491.940 486.988 C 491.942 486.991 504.134 502.450 519.485 509.125 C 542.751 519.241 555.087 508.891 572.661 515.532 C 585.012 520.199 589.392 531.408 604.021 536.352 C 625.552 543.628 659.363 538.815 659.368 538.816 C 659.364 538.813 630.938 530.352 617.966 515.914 C 604.874 501.344 612.143 482.841 599.468 471.895 C 587.326 461.408 573.001 472.689 555.217 460.314 C 539.639 449.473 531.924 427.716 531.922 427.713 C 531.926 427.714 549.104 437.311 565.838 437.626 C 591.253 438.104 598.745 423.953 617.557 423.303 C 630.741 422.848 639.139 431.336 654.528 430.214 C 677.276 428.554 706.720 411.066 706.725 411.064 C 706.720 411.064 677.187 413.685 659.772 405.099 C 642.055 396.363 641.895 376.320 625.912 370.860 C 610.767 365.685 601.724 381.452 580.650 376.648 C 562.017 372.400 546.612 354.994 546.609 354.992 C 546.612 354.991 566.211 356.755 581.677 350.301 C 605.261 340.460 606.521 324.497 623.594 316.335 C 635.515 310.635 646.613 315.026 660.297 307.845 C 680.553 297.216 700.698 269.419 700.702 269.415 C 700.697 269.417 674.694 283.613 655.323 282.675 C 635.669 281.723 627.584 263.408 610.817 264.790 C 594.840 266.106 592.917 284.274 571.656 288.355 C 553.005 291.936 532.033 282.250 532.029 282.249 C 532.032 282.248 550.915 276.670 562.833 264.910 C 580.916 247.066 575.930 231.752 588.668 217.909 C 597.609 208.194 609.638 208.309 619.687 196.585 C 634.486 179.321 642.670 146.150 642.672 146.145 C 642.669 146.148 624.202 169.359 605.963 175.998 C 587.570 182.693 573.130 169.038 558.255 176.706 C 543.989 184.060 549.128 201.573 531.009 213.466 C 515.167 223.864 492.138 222.914 492.134 222.915 C 492.136 222.912 507.596 210.720 514.270 195.370 C 524.387 172.104 514.037 159.767 520.677 142.193 C 525.344 129.843 536.554 125.463 541.498 110.834 C 548.774 89.302 543.961 55.492 543.961 55.486 C 543.959 55.490 535.497 83.916 521.060 96.888 C 506.490 109.980 487.987 102.711 477.041 115.386 C 466.554 127.529 477.835 141.853 465.459 159.637 C 454.619 175.216 432.862 182.930 432.858 182.932 C 432.859 182.929 442.456 165.751 442.772 149.017 C 443.250 123.601 429.099 116.110 428.449 97.298 C 427.993 84.113 436.482 75.715 435.359 60.327 C 433.700 37.579 416.212 8.135 416.210 8.129 C 416.209 8.134 418.831 37.667 410.244 55.082 C 401.509 72.800 381.466 72.959 376.005 88.942 C 370.831 104.087 386.598 113.131 381.793 134.204 C 377.546 152.837 360.140 168.242 360.138 168.246 C 360.137 168.242 361.901 148.644 355.447 133.177 C 345.606 109.593 329.643 108.333 321.480 91.260 C 315.781 79.339 320.172 68.242 312.991 54.557 C 302.361 34.302 274.565 14.156 274.561 14.152 C 274.562 14.157 288.759 40.160 287.821 59.531 C 286.868 79.185 268.554 87.270 269.935 104.037 C 271.252 120.014 289.419 121.938 293.501 143.198 C 297.082 161.849 287.396 182.821 287.395 182.825 C 287.393 182.822 281.816 163.939 270.056 152.021 C 252.212 133.938 236.897 138.925 223.054 126.186 C 213.339 117.246 213.455 105.217 201.731 95.167 C 184.467 80.368 151.296 72.184 151.291 72.182 C 151.294 72.186 174.505 90.652 181.144 108.891 C 187.839 127.284 174.183 141.724 181.852 156.600 C 189.205 170.865 206.719 165.727 218.612 183.846 C 229.010 199.688 228.060 222.716 228.061 222.720 C 228.058 222.718 215.866 207.258 200.515 200.584 C 177.249 190.467 164.913 200.818 147.339 194.177 C 134.988 189.510 130.608 178.300 115.980 173.357 C 94.448 166.080 60.637 170.893 60.632 170.893 C 60.636 170.895 89.062 179.357 102.034 193.795 C 115.126 208.365 107.857 226.867 120.532 237.814 C 132.674 248.300 146.999 237.019 164.783 249.395 C 180.361 260.236 188.076 281.993 188.078 281.996 C 188.074 281.995 170.896 272.398 154.162 272.083 C 128.747 271.604 121.255 285.755 102.443 286.405 C 89.259 286.861 80.861 278.372 65.472 279.495 C 42.724 281.154 13.280 298.642 13.275 298.644 C 13.280 298.645 42.813 296.024 60.228 304.610 C 77.945 313.346 78.105 333.388 94.088 338.849 C 109.233 344.024 118.276 328.257 139.350 333.061 C 157.983 337.309 173.388 354.715 173.391 354.717 C 173.388 354.717 153.789 352.954 138.323 359.407 C 114.739 369.248 113.479 385.212 96.406 393.374 C 84.485 399.073 73.387 394.683 59.703 401.864 C 39.447 412.493 19.302 440.289 19.298 440.293 C 19.303 440.292 45.306 426.095 64.677 427.034 C 84.331 427.986 92.416 446.300 109.183 444.919 C 125.160 443.602 127.083 425.435 148.344 421.353 C 166.995 417.772 187.967 427.459 187.971 427.459 C 187.968 427.461 169.085 433.038 157.167 444.799 C 139.084 462.642 144.070 477.957 131.332 491.800 C 122.391 501.515 110.362 501.400 100.313 513.123 C 85.514 530.387 77.330 563.558 77.328 563.563 C 77.331 563.560 95.798 540.349 114.037 533.710 C 132.430 527.016 146.870 540.671 161.745 533.003 C 176.011 525.649 170.872 508.135 188.991 496.243 C 204.834 485.844 227.862 486.795 227.866 486.794 C 227.864 486.797 212.404 498.989 205.730 514.339 C 195.613 537.605 205.963 549.942 199.323 567.516 C 194.656 579.866 183.446 584.246 178.502 598.875 C 171.226 620.406 176.039 654.217 176.039 654.223 C 176.041 654.218 184.503 625.793 198.940 612.820 C 213.510 599.729 232.013 606.997 242.959 594.322 C 253.446 582.180 242.165 567.856 254.541 550.072 C 265.381 534.493 287.138 526.779 287.142 526.776 C 287.141 526.780 277.544 543.958 277.228 560.692 C 276.750 586.107 290.901 593.599 291.551 612.411 C 292.007 625.595 283.518 633.994 284.641 649.382 C 286.300 672.130 303.788 701.574 303.790 701.579 C 303.791 701.575 301.169 672.041 309.756 654.627 C 318.492 636.909 338.534 636.750 343.995 620.767 C 349.169 605.621 333.402 596.578 338.207 575.504 Z"/>
</g>
<g id="specs_2">
<path fill="#ff00ff" fill-rule="evenodd" stroke="none" d="M 234.855 479.047 C 234.880 479.047 485.087 479.047 485.112 479.047 C 485.112 479.022 485.112 228.815 485.112 228.790 C 485.087 228.790 234.880 228.790 234.855 228.790 C 234.855 228.815 234.855 479.022 234.855 479.047 Z"/>
<path fill="#ff0000" fill-rule="evenodd" stroke="none" d="M 359.976 679.978 C 359.977 679.982 372.782 715.838 372.784 715.841 C 372.782 715.840 359.977 703.925 359.976 703.924 C 359.974 703.925 347.169 715.840 347.168 715.841 C 347.169 715.838 359.974 679.982 359.976 679.978 Z"/>
<path fill="#0000ff" fill-rule="evenodd" stroke="none" d="M 359.976 8.076 C 359.976 8.079 367.415 28.907 367.416 28.909 C 367.415 28.908 359.976 21.987 359.976 21.987 C 359.975 21.987 352.537 28.908 352.536 28.909 C 352.537 28.907 359.975 8.079 359.976 8.076 Z"/>
<path fill="#00ff00" fill-rule="evenodd" stroke="none" d="M 8.603 354.832 C 8.605 354.832 29.396 347.288 29.398 347.287 C 29.397 347.288 22.514 354.761 22.513 354.762 C 22.514 354.763 29.472 362.166 29.473 362.167 C 29.471 362.166 8.605 354.833 8.603 354.832 Z"/>
<path fill="#ffff00" fill-rule="evenodd" stroke="none" d="M 111.049 604.647 C 111.050 604.644 120.281 584.546 120.282 584.544 C 120.282 584.545 120.768 594.694 120.768 594.695 C 120.769 594.695 130.926 594.942 130.927 594.942 C 130.925 594.943 111.051 604.646 111.049 604.647 Z"/>
<path fill="#ffff00" fill-rule="evenodd" stroke="none" d="M 610.268 604.401 C 610.267 604.398 600.635 584.489 600.634 584.487 C 600.634 584.488 600.351 594.645 600.351 594.646 C 600.350 594.646 590.200 595.096 590.199 595.096 C 590.201 595.097 610.266 604.400 610.268 604.401 Z"/>
<path fill="#00ff00" fill-rule="evenodd" stroke="none" d="M 712.425 354.832 C 712.423 354.832 691.633 347.288 691.631 347.287 C 691.631 347.288 698.515 354.761 698.516 354.762 C 698.515 354.763 691.557 362.166 691.556 362.167 C 691.558 362.166 712.423 354.833 712.425 354.832 Z"/>
<path fill="#00ffff" fill-rule="evenodd" stroke="none" d="M 608.620 104.202 C 608.620 104.204 601.236 125.052 601.235 125.054 C 601.235 125.053 599.837 114.989 599.837 114.988 C 599.836 114.988 589.698 115.658 589.697 115.658 C 589.699 115.657 608.618 104.203 608.620 104.202 Z"/>
<path fill="#00ffff" fill-rule="evenodd" stroke="none" d="M 111.446 104.893 C 111.447 104.895 120.204 125.204 120.205 125.206 C 120.205 125.205 120.929 115.071 120.929 115.070 C 120.930 115.070 131.090 115.061 131.091 115.061 C 131.089 115.060 111.448 104.894 111.446 104.893 Z"/>
<path fill="#be0027" fill-rule="evenodd" stroke="none" d="M 360.000 709.530 C 360.001 709.527 368.896 684.621 368.897 684.618 C 368.896 684.619 360.001 692.895 360.000 692.896 C 359.999 692.895 351.104 684.619 351.103 684.618 C 351.104 684.621 359.999 709.527 360.000 709.530 Z"/>
</g>
</g>
</svg>
