<?xml version="1.0" encoding="utf-8"?>
<!-- Generator: Moho 13.5.1 build 20210623 -->
<!DOCTYPE svg PUBLIC "-//W3C//DTD SVG 1.1//EN" "http://www.w3.org/Graphics/SVG/1.1/DTD/svg11.dtd">
<svg version="1.1" id="Frame_0" xmlns="http://www.w3.org/2000/svg" xmlns:xlink="http://www.w3.org/1999/xlink" width="720px" height="720px">
<g id="sword">
<g id="sword_2">
<linearGradient id="09311219-F3C0-4CBB-B78A-B265544F9F44_0" x1="50.00%" y1="50.00%" x2="50.00%" y2="-358.60%">
<stop offset="0.00%" style="stop-color:rgb(255,255,255);stop-opacity:1.00" />
<stop offset="100.00%" style="stop-color:rgb(0,0,0);stop-opacity:1.00" />
</linearGradient>
<path fill="url(#09311219-F3C0-4CBB-B78A-B265544F9F44_0)" fill-rule="evenodd" stroke="#000000" stroke-width="2" stroke-linecap="round" stroke-linejoin="round" d="M 295.580 566.820 C 295.593 566.820 424.407 566.820 424.420 566.820 C 424.420 566.822 424.420 582.585 424.420 582.586 C 424.407 582.586 295.593 582.586 295.580 582.586 C 295.580 582.585 295.580 566.822 295.580 566.820 Z"/>
<linearGradient id="09311219-F3C0-4CBB-B78A-B265544F9F44_1" x1="50.00%" y1="50.00%" x2="50.00%" y2="-86.71%">
<stop offset="0.00%" style="stop-color:rgb(255,255,255);stop-opacity:1.00" />
<stop offset="100.00%" style="stop-color:rgb(0,0,0);stop-opacity:1.00" />
</linearGradient>
<path fill="url(#09311219-F3C0-4CBB-B78A-B265544F9F44_1)" fill-rule="evenodd" stroke="#000000" stroke-width="2" stroke-linecap="round" stroke-linejoin="round" d="M 348.209 640.937 C 351.660 638.976 355.693 637.829 360.000 637.829 C 364.307 637.829 368.340 638.976 371.791 640.937 C 371.826 621.683 371.896 582.592 371.895 582.586 C 371.893 582.586 348.107 582.586 348.104 582.586 C 348.104 582.592 348.174 621.683 348.209 640.937 Z"/>
<linearGradient id="09311219-F3C0-4CBB-B78A-B265544F9F44_2" x1="50.00%" y1="50.00%" x2="46.85%" y2="-60.22%">
<stop offset="0.00%" style="stop-color:rgb(255,255,255);stop-opacity:1.00" />
<stop offset="100.00%" style="stop-color:rgb(0,0,0);stop-opacity:1.00" />
</linearGradient>
<path fill="none" stroke="#ffffff" stroke-width="1" stroke-linecap="butt" stroke-linejoin="round" d="M 360.000 637.829 C 364.307 637.829 368.340 638.976 371.791 640.937 "/>
<path fill="none" stroke="#ffffff" stroke-width="1" stroke-linecap="butt" stroke-linejoin="round" d="M 348.209 640.937 C 351.660 638.976 355.693 637.829 360.000 637.829 "/>
<path fill="url(#09311219-F3C0-4CBB-B78A-B265544F9F44_2)" fill-rule="evenodd" stroke="#000000" stroke-width="2" stroke-linecap="round" stroke-linejoin="round" d="M 360.000 637.829 C 364.307 637.829 368.340 638.976 371.791 640.937 C 378.856 645.054 383.582 652.667 383.582 661.412 C 383.583 674.465 373.053 684.995 360.000 684.995 C 346.947 684.995 336.417 674.465 336.417 661.412 C 336.417 652.667 341.144 645.054 348.209 640.937 C 351.660 638.976 355.693 637.829 360.000 637.829 Z"/>
<linearGradient id="09311219-F3C0-4CBB-B78A-B265544F9F44_3" x1="50.00%" y1="50.00%" x2="50.00%" y2="-32.71%">
<stop offset="0.00%" style="stop-color:rgb(255,255,255);stop-opacity:1.00" />
<stop offset="100.00%" style="stop-color:rgb(0,0,0);stop-opacity:1.00" />
</linearGradient>
<path id="S4" fill="url(#09311219-F3C0-4CBB-B78A-B265544F9F44_3)" fill-rule="evenodd" stroke="#000000" stroke-width="2" stroke-linecap="round" stroke-linejoin="round" d="M 360.000 566.820 C 360.000 385.726 360.000 204.631 360.000 23.536 C 360.002 23.542 383.082 82.054 383.084 82.060 C 383.084 82.108 384.543 566.772 384.543 566.820 C 384.541 566.820 360.002 566.820 360.000 566.820 Z"/>
<linearGradient id="09311219-F3C0-4CBB-B78A-B265544F9F44_4" x1="50.00%" y1="50.00%" x2="50.00%" y2="141.60%">
<stop offset="0.00%" style="stop-color:rgb(255,255,255);stop-opacity:1.00" />
<stop offset="100.00%" style="stop-color:rgb(0,0,0);stop-opacity:1.00" />
</linearGradient>
<path fill="none" stroke="#ffffff" stroke-width="1" stroke-linecap="butt" stroke-linejoin="round" d="M 360.000 566.820 C 360.000 385.726 360.000 204.631 360.000 23.536 "/>
<path id="S5" fill="url(#09311219-F3C0-4CBB-B78A-B265544F9F44_4)" fill-rule="evenodd" stroke="#000000" stroke-width="2" stroke-linecap="round" stroke-linejoin="round" d="M 336.916 82.060 C 336.916 82.108 335.457 566.772 335.457 566.820 C 335.459 566.820 359.998 566.820 360.000 566.820 C 360.000 385.726 360.000 204.631 360.000 23.536 C 359.998 23.542 336.918 82.054 336.916 82.060 Z"/>
</g>
<g id="specs">
<path fill="#ff0000" fill-rule="evenodd" stroke="none" d="M 360.000 680.376 C 360.001 680.379 371.693 713.117 371.694 713.120 C 371.693 713.119 360.001 702.241 360.000 702.239 C 359.999 702.241 348.307 713.119 348.306 713.120 C 348.307 713.117 359.999 680.379 360.000 680.376 Z"/>
<path fill="#0000ff" fill-rule="evenodd" stroke="none" d="M 360.000 18.900 C 360.001 18.902 366.792 37.919 366.793 37.921 C 366.792 37.921 360.001 31.602 360.000 31.601 C 359.999 31.602 353.208 37.921 353.207 37.921 C 353.208 37.919 359.999 18.902 360.000 18.900 Z"/>
<path fill="#00ff00" fill-rule="evenodd" stroke="none" d="M 320.914 611.438 C 320.916 611.437 339.899 604.549 339.900 604.549 C 339.900 604.549 333.615 611.373 333.614 611.374 C 333.615 611.375 339.968 618.134 339.969 618.135 C 339.967 618.134 320.916 611.439 320.914 611.438 Z"/>
<path fill="#00ff00" fill-rule="evenodd" stroke="none" d="M 397.998 611.438 C 397.996 611.437 379.014 604.549 379.012 604.549 C 379.013 604.549 385.297 611.373 385.298 611.374 C 385.297 611.375 378.944 618.134 378.943 618.135 C 378.945 618.134 397.996 611.439 397.998 611.438 Z"/>
<path fill="#00ffff" fill-rule="evenodd" stroke="none" d="M 407.584 527.826 C 407.582 527.827 391.864 540.504 391.862 540.506 C 391.862 540.505 395.591 532.010 395.592 532.009 C 395.591 532.009 387.388 527.677 387.387 527.677 C 387.389 527.677 407.582 527.826 407.584 527.826 Z"/>
<path fill="#be0027" fill-rule="evenodd" stroke="none" d="M 359.960 682.472 C 359.961 682.470 368.468 658.650 368.469 658.648 C 368.468 658.649 359.961 666.564 359.960 666.565 C 359.959 666.564 351.452 658.649 351.452 658.648 C 351.452 658.650 359.959 682.470 359.960 682.472 Z"/>
<path fill="#00ffff" fill-rule="evenodd" stroke="none" d="M 312.416 527.826 C 312.418 527.827 328.136 540.504 328.138 540.506 C 328.138 540.505 324.409 532.010 324.408 532.009 C 324.409 532.009 332.612 527.677 332.613 527.677 C 332.611 527.677 312.418 527.826 312.416 527.826 Z"/>
</g>
</g>
</svg>
