<?xml version="1.0" encoding="utf-8"?>
<!-- Generator: Moho 12.5 build 22414 -->
<!DOCTYPE svg PUBLIC "-//W3C//DTD SVG 1.1//EN" "http://www.w3.org/Graphics/SVG/1.1/DTD/svg11.dtd">
<svg version="1.1" id="Frame_0" xmlns="http://www.w3.org/2000/svg" xmlns:xlink="http://www.w3.org/1999/xlink" width="720px" height="720px">
<g id="sword">
<g id="sword_2">
<path fill="#ffffff" fill-rule="evenodd" stroke="#000000" stroke-width="4" stroke-linecap="round" stroke-linejoin="round" d="M 335.457 566.820 C 335.459 566.820 359.998 566.820 360.000 566.820 C 360.002 566.820 384.541 566.820 384.543 566.820 C 384.543 566.772 383.084 82.108 383.084 82.060 C 383.082 82.054 360.002 23.542 360.000 23.536 C 359.998 23.542 336.918 82.054 336.916 82.060 C 336.916 82.108 335.457 566.772 335.457 566.820 Z"/>
<path fill="#ffffff" fill-rule="evenodd" stroke="#000000" stroke-width="4" stroke-linecap="round" stroke-linejoin="round" d="M 295.580 566.820 C 295.593 566.820 424.407 566.820 424.420 566.820 C 424.420 566.822 424.420 582.585 424.420 582.586 C 424.407 582.586 295.593 582.586 295.580 582.586 C 295.580 582.585 295.580 566.822 295.580 566.820 Z"/>
<path fill="#ffffff" fill-rule="evenodd" stroke="#000000" stroke-width="4" stroke-linecap="round" stroke-linejoin="round" d="M 348.209 640.937 C 351.660 638.976 355.693 637.829 360.000 637.830 C 364.307 637.830 368.340 638.977 371.791 640.937 C 371.826 621.683 371.896 582.592 371.895 582.586 C 371.893 582.586 348.107 582.586 348.104 582.586 C 348.104 582.592 348.174 621.683 348.209 640.937 Z"/>
<path fill="none" stroke="#ffffff" stroke-width="1" stroke-linecap="butt" stroke-linejoin="round" d="M 360.000 637.830 C 364.307 637.830 368.340 638.977 371.791 640.937 "/>
<path fill="none" stroke="#ffffff" stroke-width="1" stroke-linecap="butt" stroke-linejoin="round" d="M 348.209 640.937 C 351.660 638.976 355.693 637.829 360.000 637.830 "/>
<path fill="#ffffff" fill-rule="evenodd" stroke="#000000" stroke-width="4" stroke-linecap="round" stroke-linejoin="round" d="M 360.000 637.830 C 364.307 637.830 368.340 638.977 371.791 640.937 C 378.856 645.054 383.582 652.667 383.582 661.412 C 383.583 674.465 373.053 684.995 360.000 684.995 C 346.947 684.995 336.417 674.465 336.417 661.412 C 336.417 652.667 341.144 645.054 348.209 640.937 C 351.660 638.976 355.693 637.829 360.000 637.830 Z"/>
<path fill="none" stroke="#000000" stroke-width="4" stroke-linecap="round" stroke-linejoin="round" d="M 360.000 566.820 C 360.000 397.539 360.000 228.257 360.000 58.975 "/>
</g>
<g id="specs">
<path fill="#ff0000" fill-rule="evenodd" stroke="none" d="M 360.000 680.376 C 360.001 680.379 371.693 713.117 371.694 713.121 C 371.693 713.120 360.001 702.241 360.000 702.240 C 359.999 702.241 348.307 713.120 348.306 713.121 C 348.307 713.117 359.999 680.379 360.000 680.376 Z"/>
<path fill="#0000ff" fill-rule="evenodd" stroke="none" d="M 360.000 18.900 C 360.001 18.902 366.792 37.919 366.793 37.921 C 366.792 37.921 360.001 31.601 360.000 31.601 C 359.999 31.601 353.208 37.921 353.207 37.921 C 353.208 37.919 359.999 18.902 360.000 18.900 Z"/>
<path fill="#00ff00" fill-rule="evenodd" stroke="none" d="M 320.914 355.211 C 320.916 355.210 339.899 348.322 339.900 348.321 C 339.900 348.322 333.615 355.146 333.614 355.146 C 333.615 355.147 339.968 361.907 339.969 361.908 C 339.967 361.907 320.916 355.211 320.914 355.211 Z"/>
<path fill="#ffff00" fill-rule="evenodd" stroke="none" d="M 288.086 590.554 C 288.086 590.552 296.515 572.201 296.516 572.200 C 296.516 572.200 296.960 581.467 296.960 581.468 C 296.961 581.468 306.234 581.693 306.235 581.693 C 306.234 581.693 288.087 590.553 288.086 590.554 Z"/>
<path fill="#ffff00" fill-rule="evenodd" stroke="none" d="M 432.125 590.329 C 432.124 590.327 423.330 572.149 423.329 572.147 C 423.329 572.148 423.071 581.422 423.071 581.423 C 423.070 581.423 413.802 581.834 413.801 581.834 C 413.803 581.835 432.123 590.328 432.125 590.329 Z"/>
<path fill="#00ff00" fill-rule="evenodd" stroke="none" d="M 397.998 355.211 C 397.996 355.210 379.014 348.322 379.012 348.321 C 379.013 348.322 385.297 355.146 385.298 355.146 C 385.297 355.147 378.944 361.907 378.943 361.908 C 378.945 361.907 397.996 355.211 397.998 355.211 Z"/>
<path fill="#00ffff" fill-rule="evenodd" stroke="none" d="M 390.225 126.373 C 390.225 126.375 383.483 145.410 383.482 145.412 C 383.482 145.411 382.206 136.222 382.206 136.221 C 382.205 136.221 372.948 136.832 372.947 136.832 C 372.949 136.831 390.224 126.374 390.225 126.373 Z"/>
<path fill="#00ffff" fill-rule="evenodd" stroke="none" d="M 327.808 127.004 C 327.809 127.006 335.805 145.549 335.806 145.551 C 335.806 145.550 336.467 136.296 336.467 136.295 C 336.468 136.295 345.744 136.288 345.745 136.288 C 345.743 136.287 327.810 127.005 327.808 127.004 Z"/>
<path fill="#be0027" fill-rule="evenodd" stroke="none" d="M 359.960 682.472 C 359.961 682.470 368.468 658.651 368.469 658.648 C 368.468 658.649 359.961 666.564 359.960 666.565 C 359.959 666.564 351.452 658.649 351.452 658.648 C 351.452 658.651 359.959 682.470 359.960 682.472 Z"/>
</g>
</g>
</svg>
