<?xml version="1.0" encoding="utf-8"?>
<!-- Generator: Moho 13.5 build 20210422 -->
<!DOCTYPE svg PUBLIC "-//W3C//DTD SVG 1.1//EN" "http://www.w3.org/Graphics/SVG/1.1/DTD/svg11.dtd">
<svg version="1.1" id="Frame_0" xmlns="http://www.w3.org/2000/svg" xmlns:xlink="http://www.w3.org/1999/xlink" width="720px" height="720px">
<g id="sycophant">
<g id="sycophant">
<path id="S5" fill="#ffffff" fill-rule="evenodd" stroke="none" d="M 187.697 310.928 C 186.902 304.633 188.375 303.638 194.102 304.019 C 193.723 298.645 196.315 292.699 223.107 315.861 C 214.696 307.602 211.317 299.123 220.239 303.362 C 223.540 304.930 264.473 326.720 265.229 347.121 C 265.720 360.386 263.172 374.401 238.601 373.749 C 220.459 373.268 170.649 312.671 187.697 310.928 Z"/>
<path id="S5" fill="none" stroke="#000000" stroke-width="2" stroke-linecap="round" stroke-linejoin="round" d="M 187.697 310.928 C 195.799 319.942 203.902 328.955 212.004 337.969 M 194.102 304.019 C 202.849 312.288 211.596 320.558 220.342 328.828 M 223.107 315.861 C 227.331 319.585 231.556 323.310 235.781 327.034 M 238.601 373.749 C 220.459 373.268 170.649 312.671 187.697 310.928 C 186.902 304.633 188.375 303.638 194.102 304.019 C 193.723 298.645 196.315 292.699 223.107 315.861 C 214.696 307.602 211.317 299.123 220.239 303.362 C 223.540 304.930 264.473 326.720 265.229 347.121 C 265.720 360.386 263.172 374.401 238.601 373.749 "/>
<path id="S1" fill="#ffffff" fill-rule="evenodd" stroke="#000000" stroke-width="2" stroke-linecap="round" stroke-linejoin="round" d="M 377.189 148.800 C 392.160 163.771 399.646 183.334 399.646 202.897 C 399.646 222.460 393.796 243.861 377.189 256.995 C 362.813 268.364 327.299 273.834 327.294 273.836 C 327.294 273.838 324.210 293.967 324.210 293.969 C 324.207 293.967 294.325 273.838 294.322 273.836 C 294.319 273.834 276.481 264.480 268.996 256.995 C 254.024 242.023 246.538 222.460 246.538 202.897 C 246.538 183.334 254.025 163.771 268.996 148.800 C 283.967 133.829 303.530 126.343 323.092 126.343 C 342.655 126.343 362.218 133.829 377.189 148.800 Z"/>
<path fill="none" stroke="#000000" stroke-width="1" stroke-linecap="butt" stroke-linejoin="round" d="M 323.092 126.343 C 342.655 126.343 362.218 133.829 377.189 148.800 "/>
<path id="S2" fill="#000000" fill-rule="evenodd" stroke="none" d="M 322.680 202.470 C 322.680 202.463 322.955 151.719 323.092 126.343 C 342.655 126.343 362.218 133.829 377.189 148.800 C 359.020 166.690 322.686 202.465 322.680 202.470 Z"/>
<path id="S4" fill="none" stroke="#000000" stroke-width="2" stroke-linecap="round" stroke-linejoin="round" d="M 301.437 227.337 C 309.046 236.849 309.046 249.214 301.437 258.726 "/>
<path id="S8" fill="#ffffff" fill-rule="evenodd" stroke="#000000" stroke-width="2" stroke-linecap="round" stroke-linejoin="round" d="M 606.487 509.811 C 606.487 509.818 606.487 572.568 606.487 572.574 C 606.497 572.574 711.082 572.574 711.093 572.574 C 711.082 572.568 606.497 509.818 606.487 509.811 Z"/>
<path id="S11" fill="#ffffff" fill-rule="evenodd" stroke="none" d="M 322.114 177.634 C 333.908 177.634 343.422 187.148 343.422 198.941 C 343.422 210.735 333.908 220.249 322.114 220.249 C 310.321 220.249 300.808 210.735 300.808 198.941 C 300.808 187.148 310.321 177.634 322.114 177.634 Z"/>
<path id="S12" fill="none" stroke="#000000" stroke-width="2" stroke-linecap="round" stroke-linejoin="round" d="M 300.808 198.941 C 300.808 187.148 310.321 177.634 322.114 177.634 C 333.908 177.634 343.422 187.148 343.422 198.941 "/>
<path id="S5_2" fill="#ffffff" fill-rule="evenodd" stroke="none" d="M 187.697 310.928 C 186.902 304.633 188.375 303.638 194.102 304.019 C 193.723 298.645 196.315 292.699 223.107 315.861 C 214.696 307.602 211.317 299.123 220.239 303.362 C 223.540 304.930 264.473 326.720 265.229 347.121 C 265.720 360.386 263.172 374.401 238.601 373.749 C 220.459 373.268 170.649 312.671 187.697 310.928 Z"/>
<path id="S5_2" fill="none" stroke="#000000" stroke-width="2" stroke-linecap="round" stroke-linejoin="round" d="M 187.697 310.928 C 195.799 319.942 203.902 328.955 212.004 337.969 M 194.102 304.019 C 202.849 312.288 211.596 320.558 220.342 328.828 M 223.107 315.861 C 227.331 319.585 231.556 323.310 235.781 327.034 M 238.601 373.749 C 220.459 373.268 170.649 312.671 187.697 310.928 C 186.902 304.633 188.375 303.638 194.102 304.019 C 193.723 298.645 196.315 292.699 223.107 315.861 C 214.696 307.602 211.317 299.123 220.239 303.362 C 223.540 304.930 264.473 326.720 265.229 347.121 C 265.720 360.386 263.172 374.401 238.601 373.749 "/>
<path id="S10_2" fill="#000000" fill-rule="evenodd" stroke="#ffffff" stroke-width="2" stroke-linecap="round" stroke-linejoin="round" d="M 250.828 321.521 C 250.833 321.533 219.732 469.751 356.755 447.468 C 305.299 448.191 295.048 390.641 296.704 321.598 C 296.699 321.598 250.833 321.521 250.828 321.521 Z"/>
<path id="S1_2" fill="#ffffff" fill-rule="evenodd" stroke="#000000" stroke-width="2" stroke-linecap="round" stroke-linejoin="round" d="M 377.189 148.800 C 392.160 163.771 399.646 183.334 399.646 202.897 C 399.646 222.460 393.796 243.861 377.189 256.995 C 362.813 268.364 327.299 273.834 327.294 273.836 C 327.294 273.838 324.210 293.967 324.210 293.969 C 324.207 293.967 294.325 273.838 294.322 273.836 C 294.319 273.834 276.481 264.480 268.996 256.995 C 254.024 242.023 246.538 222.460 246.538 202.897 C 246.538 183.334 254.025 163.771 268.996 148.800 C 283.967 133.829 303.530 126.343 323.092 126.343 C 342.655 126.343 362.218 133.829 377.189 148.800 Z"/>
<path fill="none" stroke="#000000" stroke-width="1" stroke-linecap="butt" stroke-linejoin="round" d="M 323.092 126.343 C 342.655 126.343 362.218 133.829 377.189 148.800 "/>
<path id="S2_2" fill="#000000" fill-rule="evenodd" stroke="#ffffff" stroke-width="2" stroke-linecap="round" stroke-linejoin="round" d="M 322.680 202.470 C 322.680 202.463 322.955 151.719 323.092 126.343 C 342.655 126.343 362.218 133.829 377.189 148.800 C 359.020 166.690 322.686 202.465 322.680 202.470 Z"/>
<path id="S4_2" fill="none" stroke="#000000" stroke-width="2" stroke-linecap="round" stroke-linejoin="round" d="M 301.437 227.337 C 309.046 236.849 309.046 249.214 301.437 258.726 "/>
<path id="S8_2" fill="#ffffff" fill-rule="evenodd" stroke="#000000" stroke-width="2" stroke-linecap="round" stroke-linejoin="round" d="M 606.487 509.811 C 606.487 509.818 606.487 572.568 606.487 572.574 C 606.497 572.574 711.082 572.574 711.093 572.574 C 711.082 572.568 606.497 509.818 606.487 509.811 Z"/>
<path id="S11_2" fill="#ffffff" fill-rule="evenodd" stroke="none" d="M 322.114 177.634 C 333.908 177.634 343.422 187.148 343.422 198.941 C 343.422 210.735 333.908 220.249 322.114 220.249 C 310.321 220.249 300.808 210.735 300.808 198.941 C 300.808 187.148 310.321 177.634 322.114 177.634 Z"/>
<path id="S12_2" fill="none" stroke="#000000" stroke-width="2" stroke-linecap="round" stroke-linejoin="round" d="M 300.808 198.941 C 300.808 187.148 310.321 177.634 322.114 177.634 C 333.908 177.634 343.422 187.148 343.422 198.941 "/>
<path fill="none" stroke="#ffffff" stroke-width="1" stroke-linecap="butt" stroke-linejoin="round" d="M 296.704 321.598 C 295.048 390.641 305.299 448.191 356.755 447.468 "/>
<path id="S9_2" fill="#ffffff" fill-rule="evenodd" stroke="#000000" stroke-width="2" stroke-linecap="round" stroke-linejoin="round" d="M 355.433 321.521 C 331.946 321.038 296.709 321.598 296.704 321.598 C 295.048 390.641 305.299 448.191 356.755 447.468 C 250.824 448.056 251.055 571.266 334.512 572.574 C 376.349 573.230 622.191 574.880 627.407 572.574 C 630.283 356.980 654.660 144.184 460.039 149.383 C 395.443 151.108 354.444 181.350 355.433 321.521 Z"/>
<path id="S13_2" fill="none" stroke="#000000" stroke-width="2" stroke-linecap="round" stroke-linejoin="round" d="M 356.755 447.468 C 360.278 446.895 460.028 447.047 460.039 447.047 C 460.039 447.030 460.140 333.194 460.190 276.267 "/>
</g>
<g id="specs_2">
<path fill="#ff00ff" fill-rule="evenodd" stroke="none" d="M 373.340 541.931 C 373.361 541.931 588.497 541.931 588.518 541.931 C 588.518 541.898 588.518 207.884 588.518 207.850 C 588.497 207.850 373.361 207.850 373.340 207.850 C 373.340 207.884 373.340 541.898 373.340 541.931 Z"/>
<path fill="#ff0000" fill-rule="evenodd" stroke="none" d="M 472.727 561.058 C 472.728 561.061 483.197 590.373 483.198 590.376 C 483.197 590.375 472.728 580.635 472.727 580.634 C 472.726 580.635 462.258 590.375 462.257 590.376 C 462.258 590.373 472.726 561.061 472.727 561.058 Z"/>
<path fill="#0000ff" fill-rule="evenodd" stroke="none" d="M 322.229 92.874 C 322.229 92.875 328.310 109.902 328.311 109.904 C 328.310 109.904 322.229 104.246 322.229 104.245 C 322.228 104.246 316.147 109.904 316.147 109.904 C 316.147 109.902 322.228 92.875 322.229 92.874 Z"/>
<path fill="#00ff00" fill-rule="evenodd" stroke="none" d="M 35.323 528.349 C 35.323 528.350 29.155 545.347 29.155 545.348 C 29.155 545.348 35.265 539.721 35.266 539.720 C 35.267 539.721 41.319 545.409 41.319 545.410 C 41.319 545.408 35.324 528.350 35.323 528.349 Z"/>
</g>
</g>
</svg>
