<?xml version="1.0" encoding="utf-8"?>
<!-- Generator: Moho 12.5 build 22414 -->
<!DOCTYPE svg PUBLIC "-//W3C//DTD SVG 1.1//EN" "http://www.w3.org/Graphics/SVG/1.1/DTD/svg11.dtd">
<svg version="1.1" id="Frame_0" xmlns="http://www.w3.org/2000/svg" xmlns:xlink="http://www.w3.org/1999/xlink" width="720px" height="720px">
<g id="t_rex">
<g id="t_rex">
<path fill="#ffffff" fill-rule="evenodd" stroke="#000000" stroke-width="4" stroke-linejoin="round" d="M 300.048 509.525 C 297.738 543.456 317.214 556.814 310.483 563.555 C 276.556 597.537 296.035 606.060 228.615 605.612 C 226.636 605.599 211.806 611.052 201.498 622.069 C 201.795 611.555 204.167 606.420 227.535 595.292 C 206.184 596.856 188.798 607.714 183.239 615.667 C 184.217 605.200 189.592 598.644 212.677 589.468 C 193.017 589.300 182.522 599.413 175.620 603.052 C 177.967 597.581 181.072 581.756 220.344 580.963 C 271.316 579.933 267.058 552.742 267.063 552.739 C 267.061 552.737 258.702 544.721 246.739 528.143 C 232.682 508.663 219.629 488.182 227.722 465.574 C 244.807 417.849 282.621 373.328 298.531 373.318 C 310.473 373.310 363.551 408.784 356.417 438.658 C 342.680 496.177 309.403 486.791 300.048 509.525 Z"/>
<path fill="#ffffff" fill-rule="evenodd" stroke="#000000" stroke-width="4" stroke-linejoin="round" d="M 375.155 490.402 C 374.532 487.460 394.125 468.850 399.171 439.730 C 387.219 485.946 353.303 507.193 355.982 512.024 C 373.572 543.740 406.346 533.978 405.144 544.065 C 398.936 596.192 422.374 623.938 348.453 627.193 C 346.261 627.290 329.811 631.674 316.408 641.684 C 318.557 631.372 319.868 625.965 343.952 616.375 C 322.224 616.541 303.745 625.904 297.543 633.553 C 299.247 623.279 304.660 616.747 328.103 609.256 C 308.685 607.746 297.245 616.028 290.407 619.630 C 292.953 613.700 296.743 596.752 340.406 599.042 C 382.552 601.251 362.425 564.742 362.427 564.738 C 362.424 564.737 350.872 561.932 328.647 555.908 C 303.534 549.101 279.421 539.708 270.674 515.215 C 257.079 477.148 307.227 411.391 307.230 411.381 C 307.228 411.385 292.342 425.782 280.874 451.155 C 280.166 452.721 254.985 441.029 228.081 406.921 C 210.608 384.768 201.792 350.313 201.789 350.307 C 201.786 350.308 174.107 365.381 168.566 364.661 C 164.185 364.091 145.609 347.592 145.607 347.590 C 139.868 351.653 138.033 363.545 138.033 363.546 C 138.033 363.545 133.471 356.050 137.326 347.240 C 130.539 350.677 125.328 361.281 125.328 361.282 C 125.328 361.281 123.984 349.112 132.655 343.379 C 123.713 344.328 117.726 349.812 117.725 349.811 C 117.726 349.811 123.073 336.483 141.663 333.111 C 147.740 332.008 168.977 349.978 171.652 349.143 C 174.142 348.366 182.285 323.615 186.526 321.204 C 187.208 320.816 176.847 320.548 170.000 286.505 C 166.835 270.766 88.908 313.099 56.233 289.719 C 49.827 285.135 42.602 271.142 42.600 271.140 C 42.604 271.142 76.089 282.774 76.092 282.775 C 76.093 282.772 86.226 255.737 86.227 255.735 C 86.229 255.736 113.828 268.838 113.830 268.839 C 113.831 268.836 119.310 241.846 119.310 241.843 C 119.313 241.845 139.737 257.220 139.739 257.221 C 139.741 257.218 152.807 225.770 152.808 225.767 C 152.810 225.768 170.915 237.566 170.917 237.567 C 170.917 237.564 173.789 206.902 173.790 206.899 C 173.787 206.898 144.313 198.533 144.310 198.532 C 144.309 198.536 135.784 231.865 135.783 231.869 C 135.781 231.867 113.601 212.527 113.598 212.525 C 113.597 212.528 104.306 239.229 104.305 239.232 C 104.303 239.230 82.042 224.404 82.040 224.403 C 82.038 224.406 68.026 254.421 68.024 254.424 C 68.022 254.422 48.253 232.076 48.251 232.074 C 48.249 232.077 35.022 252.069 32.127 262.072 C 9.931 233.205 12.289 159.988 123.584 125.260 C 143.024 119.194 195.169 117.392 211.424 149.367 C 238.319 202.269 204.431 216.711 214.684 237.630 C 228.438 265.691 284.286 239.084 350.914 290.983 C 479.902 391.455 456.119 489.326 531.115 513.411 C 613.228 539.783 681.955 466.903 681.970 466.898 C 681.955 466.909 675.603 559.279 538.506 575.415 C 441.041 586.887 378.493 506.173 375.155 490.402 M 76.535 178.781 C 75.615 169.075 82.702 160.503 92.408 159.583 C 102.113 158.663 110.685 165.750 111.605 175.455 C 112.526 185.160 105.439 193.732 95.733 194.653 C 86.028 195.573 77.456 188.486 76.535 178.781 Z"/>
<path fill="#ffffff" fill-rule="evenodd" stroke="#000000" stroke-width="4" stroke-linejoin="round" d="M 213.724 345.334 C 212.701 346.815 192.916 365.287 187.998 366.934 C 185.339 370.076 161.358 366.020 161.356 366.019 C 157.393 372.172 157.197 383.923 157.198 383.925 C 157.197 383.924 150.894 377.315 152.857 367.501 C 146.720 372.503 143.776 384.443 143.776 384.444 C 143.776 384.443 139.707 372.368 147.251 364.613 C 138.369 367.564 133.499 374.469 133.498 374.469 C 133.499 374.469 136.399 360.674 154.130 352.172 C 157.911 350.358 176.194 356.730 177.048 355.029 C 180.020 353.852 188.529 327.757 199.994 323.748 C 216.657 317.921 223.510 331.173 213.724 345.334 Z"/>
</g>
<g id="specs_2">
<path fill="#ff00ff" fill-rule="evenodd" stroke="none" d="M 241.242 410.468 C 241.253 410.468 352.479 410.468 352.490 410.468 C 352.490 410.457 352.490 299.231 352.490 299.219 C 352.479 299.219 241.253 299.219 241.242 299.219 C 241.242 299.231 241.242 410.457 241.242 410.468 Z"/>
<path fill="#ff0000" fill-rule="evenodd" stroke="none" d="M 360.000 650.845 C 360.001 650.848 372.416 685.611 372.417 685.615 C 372.416 685.614 360.001 674.062 360.000 674.061 C 359.999 674.062 347.584 685.614 347.583 685.615 C 347.584 685.611 359.999 650.848 360.000 650.845 Z"/>
<path fill="#0000ff" fill-rule="evenodd" stroke="none" d="M 130.975 109.255 C 130.976 109.257 140.517 128.459 140.518 128.461 C 140.517 128.460 132.565 122.647 132.564 122.647 C 132.564 122.647 126.193 130.160 126.193 130.161 C 126.193 130.159 130.975 109.257 130.975 109.255 Z"/>
<path fill="#ffff00" fill-rule="evenodd" stroke="none" d="M 112.216 376.332 C 112.217 376.330 121.166 356.845 121.167 356.843 C 121.167 356.844 121.639 366.684 121.639 366.684 C 121.640 366.685 131.487 366.923 131.488 366.923 C 131.486 366.924 112.218 376.331 112.216 376.332 Z"/>
<path fill="#ffff00" fill-rule="evenodd" stroke="none" d="M 405.226 624.950 C 405.226 624.948 395.887 605.646 395.886 605.644 C 395.886 605.645 395.613 615.492 395.613 615.493 C 395.612 615.493 385.771 615.929 385.770 615.929 C 385.771 615.930 405.225 624.949 405.226 624.950 Z"/>
<path fill="#00ff00" fill-rule="evenodd" stroke="none" d="M 305.847 249.882 C 305.846 249.884 292.803 266.903 292.801 266.905 C 292.802 266.905 301.721 262.722 301.722 262.722 C 301.723 262.723 306.536 271.317 306.536 271.318 C 306.536 271.315 305.847 249.885 305.847 249.882 Z"/>
<path fill="#00ffff" fill-rule="evenodd" stroke="none" d="M 196.807 117.064 C 196.807 117.066 195.113 138.441 195.113 138.443 C 195.113 138.443 191.283 129.367 191.282 129.366 C 191.281 129.366 181.954 132.532 181.953 132.533 C 181.954 132.531 196.806 117.066 196.807 117.064 Z"/>
<path fill="#00ffff" fill-rule="evenodd" stroke="none" d="M 62.334 137.207 C 62.335 137.208 70.825 156.898 70.826 156.900 C 70.826 156.899 71.528 147.074 71.528 147.073 C 71.529 147.073 81.379 147.065 81.380 147.065 C 81.378 147.064 62.336 137.207 62.334 137.207 Z"/>
<path fill="#be0027" fill-rule="evenodd" stroke="none" d="M 689.726 448.797 C 689.723 448.800 663.715 474.994 663.712 474.997 C 663.714 474.996 679.860 469.814 679.862 469.814 C 679.863 469.815 686.193 485.547 686.194 485.549 C 686.194 485.545 689.726 448.801 689.726 448.797 Z"/>
<path fill="#00ff00" fill-rule="evenodd" stroke="none" d="M 386.317 301.033 C 386.315 301.034 367.212 310.774 367.210 310.775 C 367.211 310.775 377.062 310.843 377.063 310.843 C 377.063 310.844 377.704 320.673 377.704 320.674 C 377.705 320.672 386.316 301.035 386.317 301.033 Z"/>
</g>
</g>
</svg>
