<?xml version="1.0" encoding="utf-8"?>
<!-- Generator: Moho 12.5 build 22414 -->
<!DOCTYPE svg PUBLIC "-//W3C//DTD SVG 1.1//EN" "http://www.w3.org/Graphics/SVG/1.1/DTD/svg11.dtd">
<svg version="1.1" id="Frame_0" xmlns="http://www.w3.org/2000/svg" xmlns:xlink="http://www.w3.org/1999/xlink" width="720px" height="720px">
<g id="t_rex">
<g id="t_rex">
<path fill="#ffffff" fill-rule="evenodd" stroke="#000000" stroke-width="4" stroke-linejoin="round" d="M 300.048 509.525 C 297.738 543.456 317.214 556.814 310.483 563.555 C 276.556 597.537 296.035 606.060 228.615 605.612 C 226.636 605.599 211.806 611.052 201.498 622.069 C 201.795 611.555 204.167 606.420 227.535 595.292 C 206.184 596.856 188.797 607.714 183.239 615.667 C 184.217 605.201 189.592 598.644 212.677 589.468 C 193.017 589.300 182.522 599.413 175.620 603.052 C 177.967 597.581 181.072 581.756 220.344 580.963 C 271.316 579.933 267.058 552.742 267.063 552.739 C 267.061 552.737 258.702 544.721 246.739 528.143 C 232.683 508.663 219.629 488.182 227.722 465.574 C 244.807 417.849 282.621 373.328 298.531 373.317 C 310.473 373.310 363.551 408.784 356.417 438.658 C 342.680 496.177 309.403 486.791 300.048 509.525 Z"/>
<path fill="#ffffff" fill-rule="evenodd" stroke="#000000" stroke-width="4" stroke-linejoin="round" d="M 375.155 490.403 C 374.532 487.460 394.125 468.850 399.171 439.730 C 387.219 485.946 353.303 507.193 355.982 512.024 C 373.572 543.740 406.346 533.978 405.144 544.066 C 398.935 596.192 422.374 623.938 348.453 627.193 C 346.260 627.290 329.811 631.674 316.408 641.684 C 318.557 631.372 319.868 625.965 343.952 616.375 C 322.224 616.541 303.745 625.904 297.543 633.553 C 299.247 623.279 304.660 616.747 328.103 609.256 C 308.685 607.746 297.245 616.027 290.407 619.629 C 292.953 613.700 296.743 596.752 340.406 599.041 C 382.553 601.252 362.425 564.741 362.428 564.738 C 362.424 564.737 350.872 561.932 328.647 555.908 C 303.534 549.101 281.008 539.082 270.674 515.215 C 255.238 479.564 290.959 411.391 290.961 411.381 C 290.959 411.385 282.174 426.539 273.643 449.347 C 273.099 450.802 251.655 438.324 228.081 406.921 C 211.143 384.356 201.792 350.313 201.789 350.307 C 201.786 350.309 172.165 369.476 165.960 368.891 C 160.973 368.421 139.926 349.534 139.924 349.532 C 133.415 354.140 131.334 367.626 131.334 367.627 C 131.334 367.626 126.160 359.125 130.532 349.134 C 122.835 353.032 116.925 365.058 116.925 365.060 C 116.925 365.058 115.401 351.258 125.235 344.756 C 115.093 345.832 108.304 352.051 108.303 352.051 C 108.304 352.051 114.368 336.936 135.451 333.111 C 142.342 331.860 166.418 352.210 169.460 351.293 C 172.190 350.471 181.867 323.797 186.526 321.204 C 187.212 320.822 176.950 320.528 170.000 286.505 C 166.940 271.525 85.441 318.385 61.656 289.719 C 59.775 287.451 52.545 274.834 52.544 274.833 C 52.546 274.834 76.025 283.384 76.027 283.385 C 76.027 283.383 74.756 263.254 74.756 263.252 C 74.758 263.253 96.395 274.405 96.397 274.406 C 96.397 274.404 97.978 249.354 97.978 249.352 C 97.980 249.353 118.046 267.039 118.048 267.041 C 118.048 267.038 118.508 242.028 118.508 242.025 C 118.510 242.027 136.919 255.674 136.921 255.676 C 136.920 255.671 118.684 207.590 118.682 207.585 C 118.681 207.588 107.709 234.427 107.708 234.430 C 107.707 234.428 89.021 218.406 89.019 218.405 C 89.019 218.407 84.508 243.057 84.507 243.060 C 84.505 243.058 65.026 228.019 65.024 228.018 C 65.024 228.020 62.493 251.378 62.493 251.380 C 62.491 251.379 42.887 235.003 42.885 235.001 C 42.884 235.004 40.027 252.286 38.030 258.278 C 15.070 222.838 16.990 159.784 123.584 125.260 C 142.958 118.985 195.169 117.393 211.424 149.367 C 238.319 202.269 204.431 216.711 214.684 237.630 C 228.438 265.691 284.286 239.084 350.914 290.983 C 479.902 391.455 456.119 489.326 531.115 513.412 C 613.228 539.783 681.955 466.903 681.970 466.898 C 681.955 466.909 675.603 559.279 538.506 575.415 C 441.041 586.887 378.493 506.173 375.155 490.403 M 76.535 178.781 C 75.615 169.076 82.702 160.503 92.408 159.583 C 102.113 158.663 110.685 165.750 111.605 175.455 C 112.526 185.160 105.439 193.732 95.733 194.653 C 86.028 195.573 77.456 188.487 76.535 178.781 Z"/>
<path fill="#ffffff" fill-rule="evenodd" stroke="#000000" stroke-width="4" stroke-linejoin="round" d="M 213.724 345.334 C 212.693 347.007 193.275 369.417 187.998 371.470 C 185.156 375.173 157.786 370.433 157.783 370.431 C 153.290 377.410 153.067 390.737 153.068 390.738 C 153.067 390.737 145.919 383.242 148.146 372.113 C 141.185 377.785 137.847 391.325 137.847 391.327 C 137.847 391.325 133.232 377.632 141.787 368.837 C 131.714 372.184 126.192 380.014 126.190 380.014 C 126.192 380.014 129.481 364.370 149.589 354.728 C 153.878 352.671 174.628 359.905 175.580 357.968 C 178.789 356.664 187.547 328.023 199.994 323.748 C 216.689 318.013 222.760 330.683 213.724 345.334 Z"/>
</g>
<g id="specs_2">
<path fill="#ff00ff" fill-rule="evenodd" stroke="none" d="M 241.242 410.468 C 241.253 410.468 352.479 410.468 352.490 410.468 C 352.490 410.457 352.490 299.231 352.490 299.219 C 352.479 299.219 241.253 299.219 241.242 299.219 C 241.242 299.231 241.242 410.457 241.242 410.468 Z"/>
<path fill="#ff0000" fill-rule="evenodd" stroke="none" d="M 360.000 650.845 C 360.001 650.848 372.416 685.611 372.417 685.615 C 372.416 685.614 360.001 674.062 360.000 674.061 C 359.999 674.062 347.584 685.614 347.583 685.615 C 347.584 685.611 359.999 650.848 360.000 650.845 Z"/>
<path fill="#0000ff" fill-rule="evenodd" stroke="none" d="M 130.975 109.255 C 130.976 109.257 140.517 128.459 140.518 128.461 C 140.517 128.460 132.565 122.647 132.564 122.647 C 132.564 122.647 126.193 130.160 126.193 130.161 C 126.193 130.159 130.975 109.257 130.975 109.255 Z"/>
<path fill="#ffff00" fill-rule="evenodd" stroke="none" d="M 112.216 376.332 C 112.217 376.330 121.166 356.845 121.167 356.843 C 121.167 356.844 121.639 366.684 121.639 366.684 C 121.640 366.685 131.487 366.923 131.488 366.923 C 131.486 366.924 112.218 376.331 112.216 376.332 Z"/>
<path fill="#ffff00" fill-rule="evenodd" stroke="none" d="M 405.226 624.950 C 405.226 624.948 395.887 605.646 395.886 605.644 C 395.886 605.645 395.613 615.492 395.613 615.493 C 395.612 615.493 385.771 615.929 385.770 615.929 C 385.771 615.930 405.225 624.949 405.226 624.950 Z"/>
<path fill="#00ff00" fill-rule="evenodd" stroke="none" d="M 305.847 249.882 C 305.846 249.884 292.803 266.903 292.801 266.905 C 292.802 266.905 301.721 262.722 301.722 262.722 C 301.723 262.723 306.536 271.317 306.536 271.318 C 306.536 271.315 305.847 249.885 305.847 249.882 Z"/>
<path fill="#00ffff" fill-rule="evenodd" stroke="none" d="M 196.807 117.064 C 196.807 117.066 195.113 138.441 195.113 138.443 C 195.113 138.443 191.283 129.367 191.282 129.366 C 191.281 129.366 181.954 132.532 181.953 132.533 C 181.954 132.531 196.806 117.066 196.807 117.064 Z"/>
<path fill="#00ffff" fill-rule="evenodd" stroke="none" d="M 62.334 137.207 C 62.335 137.208 70.825 156.898 70.826 156.900 C 70.826 156.899 71.528 147.074 71.528 147.073 C 71.529 147.073 81.379 147.065 81.380 147.065 C 81.378 147.064 62.336 137.207 62.334 137.207 Z"/>
<path fill="#be0027" fill-rule="evenodd" stroke="none" d="M 689.726 448.797 C 689.723 448.800 663.715 474.994 663.712 474.997 C 663.714 474.996 679.860 469.814 679.862 469.814 C 679.863 469.815 686.193 485.547 686.194 485.549 C 686.194 485.545 689.726 448.801 689.726 448.797 Z"/>
<path fill="#00ff00" fill-rule="evenodd" stroke="none" d="M 386.317 301.033 C 386.315 301.034 367.212 310.774 367.210 310.775 C 367.211 310.775 377.062 310.843 377.063 310.843 C 377.063 310.844 377.704 320.673 377.704 320.674 C 377.705 320.672 386.316 301.035 386.317 301.033 Z"/>
</g>
</g>
</svg>
