<?xml version="1.0" encoding="utf-8"?>
<!-- Generator: Moho 13.5.1 build 20210623 -->
<!DOCTYPE svg PUBLIC "-//W3C//DTD SVG 1.1//EN" "http://www.w3.org/Graphics/SVG/1.1/DTD/svg11.dtd">
<svg version="1.1" id="Frame_0" xmlns="http://www.w3.org/2000/svg" xmlns:xlink="http://www.w3.org/1999/xlink" width="720px" height="720px">
<g id="table">
<g id="table">
<path fill="#ffffff" fill-rule="evenodd" stroke="#000000" stroke-width="4" stroke-linecap="round" stroke-linejoin="round" d="M 477.270 426.961 C 477.287 426.953 590.689 372.266 647.399 344.919 C 647.399 344.946 647.399 616.925 647.399 616.953 C 647.396 616.954 616.313 633.753 616.309 633.755 C 616.309 558.203 616.309 407.121 616.309 407.098 C 616.307 407.100 597.310 417.461 587.811 422.643 C 587.803 422.647 510.095 462.364 510.087 462.368 C 510.087 462.390 510.950 681.700 510.950 681.722 C 510.947 681.724 477.273 704.173 477.270 704.176 C 477.270 611.771 477.270 426.989 477.270 426.961 Z"/>
<path fill="#ffffff" fill-rule="evenodd" stroke="#000000" stroke-width="4" stroke-linecap="round" stroke-linejoin="round" d="M 244.520 404.671 C 244.520 404.682 244.110 478.649 243.904 515.638 C 243.907 515.637 270.673 505.277 270.676 505.276 C 270.676 505.266 270.676 412.016 270.676 412.007 C 261.957 409.561 244.523 404.671 244.520 404.671 Z"/>
<path fill="#ffffff" fill-rule="evenodd" stroke="#000000" stroke-width="4" stroke-linecap="round" stroke-linejoin="round" d="M 102.417 361.964 C 102.420 361.965 122.266 368.110 132.190 371.183 C 132.190 371.204 132.190 586.197 132.190 586.219 C 132.187 586.220 102.830 604.352 102.827 604.354 C 102.691 523.558 102.417 361.988 102.417 361.964 Z"/>
<path fill="none" stroke="#000000" stroke-width="1" stroke-linecap="butt" stroke-linejoin="round" d="M 616.309 633.755 C 616.309 558.203 616.309 407.121 616.309 407.098 "/>
<path fill="none" stroke="#000000" stroke-width="1" stroke-linecap="butt" stroke-linejoin="round" d="M 616.309 407.098 C 616.307 407.100 597.310 417.461 587.811 422.643 "/>
<path id="S4" fill="#000000" fill-rule="evenodd" stroke="#000000" stroke-width="4" stroke-linecap="round" stroke-linejoin="round" d="M 587.811 623.861 C 587.813 623.862 616.307 633.754 616.309 633.755 C 616.309 558.203 616.309 407.121 616.309 407.098 C 616.307 407.100 597.310 417.461 587.811 422.643 C 587.811 422.663 587.811 623.841 587.811 623.861 Z"/>
<path fill="none" stroke="#000000" stroke-width="1" stroke-linecap="butt" stroke-linejoin="round" d="M 132.190 371.183 C 122.266 368.110 102.420 361.965 102.417 361.964 "/>
<path fill="none" stroke="#000000" stroke-width="1" stroke-linecap="butt" stroke-linejoin="round" d="M 102.417 361.964 C 102.417 361.988 102.691 523.558 102.827 604.354 "/>
<path fill="none" stroke="#000000" stroke-width="1" stroke-linecap="butt" stroke-linejoin="round" d="M 477.270 426.961 C 477.270 426.989 477.270 611.771 477.270 704.176 "/>
<path fill="none" stroke="#000000" stroke-width="1" stroke-linecap="butt" stroke-linejoin="round" d="M 270.676 412.007 C 261.957 409.561 244.523 404.671 244.520 404.671 "/>
<path id="S5" fill="#000000" fill-rule="evenodd" stroke="#000000" stroke-width="4" stroke-linecap="round" stroke-linejoin="round" d="M 244.520 404.671 C 234.240 401.647 223.959 398.622 213.678 395.598 C 213.670 395.596 132.198 371.185 132.190 371.183 C 122.266 368.110 102.420 361.965 102.417 361.964 C 102.417 361.988 102.691 523.558 102.827 604.354 C 102.824 604.353 72.604 596.583 72.601 596.582 C 72.601 596.553 72.601 311.972 72.601 311.944 C 207.491 350.283 342.381 388.622 477.270 426.961 C 477.270 426.989 477.270 611.771 477.270 704.176 C 477.267 704.174 447.911 692.087 447.908 692.085 C 447.908 692.063 447.908 464.982 447.908 464.959 C 447.890 464.954 270.694 412.012 270.676 412.007 C 261.957 409.561 244.523 404.671 244.520 404.671 Z"/>
<path fill="none" stroke="#000000" stroke-width="1" stroke-linecap="butt" stroke-linejoin="round" d="M 244.520 404.671 C 234.240 401.647 223.959 398.622 213.678 395.598 "/>
<path fill="none" stroke="#000000" stroke-width="1" stroke-linecap="butt" stroke-linejoin="round" d="M 243.904 515.638 C 244.110 478.649 244.520 404.682 244.520 404.671 "/>
<path id="S6" fill="#000000" fill-rule="evenodd" stroke="#000000" stroke-width="4" stroke-linecap="round" stroke-linejoin="round" d="M 244.520 404.671 C 234.240 401.647 223.959 398.622 213.678 395.598 C 213.678 395.609 213.678 507.855 213.678 507.866 C 213.682 507.867 243.901 515.638 243.904 515.638 C 244.110 478.649 244.520 404.682 244.520 404.671 Z"/>
<path fill="none" stroke="#ffffff" stroke-width="1" stroke-linecap="butt" stroke-linejoin="round" d="M 477.270 426.961 C 342.381 388.622 207.491 350.283 72.601 311.944 "/>
<path fill="none" stroke="#ffffff" stroke-width="1" stroke-linecap="butt" stroke-linejoin="round" d="M 647.399 344.919 C 590.689 372.266 477.287 426.953 477.270 426.961 "/>
<path id="S7" fill="#ffffff" fill-rule="evenodd" stroke="#000000" stroke-width="4" stroke-linecap="round" stroke-linejoin="round" d="M 477.270 426.961 C 342.381 388.622 207.491 350.283 72.601 311.944 C 72.621 311.937 270.974 250.050 270.994 250.044 C 271.032 250.053 647.361 344.909 647.399 344.919 C 590.689 372.266 477.287 426.953 477.270 426.961 Z"/>
</g>
<g id="specs_2">
<path fill="#ff00ff" fill-rule="evenodd" stroke="none" d="M 202.938 346.915 C 202.972 346.915 545.212 346.915 545.246 346.915 C 545.246 346.881 545.246 5.930 545.246 5.896 C 545.212 5.896 202.972 5.896 202.938 5.896 C 202.938 5.930 202.938 346.881 202.938 346.915 Z"/>
<path fill="#ff0000" fill-rule="evenodd" stroke="none" d="M 677.375 474.498 C 677.379 474.496 712.185 462.066 712.189 462.065 C 712.187 462.066 700.621 474.496 700.620 474.498 C 700.621 474.499 712.187 486.929 712.189 486.930 C 712.185 486.929 677.379 474.499 677.375 474.498 Z"/>
<path fill="#00ff00" fill-rule="evenodd" stroke="none" d="M 18.397 361.004 C 18.399 361.003 38.581 353.680 38.583 353.679 C 38.582 353.680 31.900 360.935 31.900 360.935 C 31.900 360.936 38.655 368.122 38.656 368.123 C 38.654 368.122 18.399 361.004 18.397 361.004 Z"/>
<path fill="#00ff00" fill-rule="evenodd" stroke="none" d="M 701.603 361.004 C 701.601 361.003 681.419 353.680 681.417 353.679 C 681.418 353.680 688.100 360.935 688.100 360.935 C 688.100 360.936 681.345 368.122 681.344 368.123 C 681.346 368.122 701.601 361.004 701.603 361.004 Z"/>
<path fill="#be0027" fill-rule="evenodd" stroke="none" d="M 316.485 647.609 C 316.486 647.606 328.917 612.800 328.918 612.796 C 328.917 612.797 316.486 624.363 316.485 624.364 C 316.484 624.363 304.054 612.797 304.052 612.796 C 304.054 612.800 316.484 647.606 316.485 647.609 Z"/>
</g>
</g>
</svg>
