<?xml version="1.0" encoding="utf-8"?>
<!-- Generator: Moho 13.5.1 build 20210623 -->
<!DOCTYPE svg PUBLIC "-//W3C//DTD SVG 1.1//EN" "http://www.w3.org/Graphics/SVG/1.1/DTD/svg11.dtd">
<svg version="1.1" id="Frame_0" xmlns="http://www.w3.org/2000/svg" xmlns:xlink="http://www.w3.org/1999/xlink" width="720px" height="720px">
<g id="tail">
<g id="tail">
<path fill="#ffffff" fill-rule="evenodd" stroke="#000000" stroke-width="4" stroke-linecap="round" stroke-linejoin="round" d="M 356.075 344.432 C 358.213 394.513 334.162 443.116 334.764 493.108 C 335.547 558.079 346.023 576.703 351.652 618.500 C 345.018 623.988 313.493 579.036 313.489 579.032 C 313.494 579.045 359.995 706.808 360.000 706.821 C 360.005 706.808 406.507 579.045 406.511 579.032 C 406.507 579.036 374.040 621.410 365.823 618.677 C 362.315 576.897 351.407 557.697 355.280 493.094 C 358.272 443.189 387.941 397.157 390.545 347.098 C 393.150 297.043 370.362 248.132 370.569 197.931 C 370.954 104.529 390.056 75.735 395.232 34.494 C 396.185 35.572 391.092 17.752 355.929 21.793 C 337.745 23.884 332.755 32.710 332.752 32.711 C 332.751 32.728 317.214 89.231 322.092 197.820 C 324.345 247.971 353.938 294.355 356.075 344.432 Z"/>
</g>
<g id="specs">
<path fill="#ff0000" fill-rule="evenodd" stroke="none" d="M 359.050 94.536 C 359.048 94.531 341.092 44.252 341.090 44.247 C 341.092 44.249 359.048 60.956 359.050 60.958 C 359.052 60.956 377.009 44.249 377.010 44.247 C 377.009 44.252 359.052 94.531 359.050 94.536 Z"/>
<path fill="#0000ff" fill-rule="evenodd" stroke="none" d="M 359.050 4.181 C 359.051 4.184 369.482 33.390 369.483 33.393 C 369.482 33.392 359.051 23.687 359.050 23.686 C 359.049 23.687 348.618 33.392 348.617 33.393 C 348.618 33.390 359.049 4.184 359.050 4.181 Z"/>
<path fill="#be0027" fill-rule="evenodd" stroke="none" d="M 359.008 716.476 C 359.009 716.474 367.928 691.500 367.929 691.498 C 367.928 691.499 359.009 699.797 359.008 699.798 C 359.007 699.797 350.088 691.499 350.088 691.498 C 350.088 691.500 359.007 716.474 359.008 716.476 Z"/>
<path fill="#00ff00" fill-rule="evenodd" stroke="none" d="M 429.447 356.688 C 429.444 356.689 400.238 367.120 400.235 367.121 C 400.236 367.120 409.941 356.689 409.942 356.688 C 409.941 356.687 400.236 346.256 400.235 346.255 C 400.238 346.256 429.444 356.687 429.447 356.688 Z"/>
<path fill="#00ff00" fill-rule="evenodd" stroke="none" d="M 312.865 356.688 C 312.868 356.689 342.074 367.120 342.077 367.121 C 342.076 367.120 332.371 356.689 332.370 356.688 C 332.371 356.687 342.076 346.256 342.077 346.255 C 342.074 346.256 312.868 356.687 312.865 356.688 Z"/>
</g>
</g>
</svg>
