<?xml version="1.0" encoding="utf-8"?>
<!-- Generator: Moho 13.5.1 build 20210623 -->
<!DOCTYPE svg PUBLIC "-//W3C//DTD SVG 1.1//EN" "http://www.w3.org/Graphics/SVG/1.1/DTD/svg11.dtd">
<svg version="1.1" id="Frame_0" xmlns="http://www.w3.org/2000/svg" xmlns:xlink="http://www.w3.org/1999/xlink" width="720px" height="720px">
<g id="teacup">
<g id="teacup">
<path fill="#ffffff" fill-rule="evenodd" stroke="#000000" stroke-width="4" stroke-linecap="round" stroke-linejoin="round" d="M 204.472 273.448 C 204.461 273.444 144.825 219.053 96.828 231.044 C 50.826 242.535 22.796 276.597 23.434 324.008 C 24.594 410.187 113.152 482.873 268.079 474.057 C 268.076 474.053 282.270 422.078 239.900 431.383 C 157.773 449.419 60.577 392.992 58.385 327.374 C 57.388 297.511 73.076 273.640 102.196 266.946 C 139.191 258.440 173.415 299.737 183.774 315.289 C 203.699 310.699 204.470 273.452 204.472 273.448 Z"/>
<path fill="#ffffff" fill-rule="evenodd" stroke="#000000" stroke-width="4" stroke-linecap="round" stroke-linejoin="round" d="M 173.492 169.968 C 173.517 169.965 252.958 146.166 416.498 147.489 C 592.191 148.910 659.480 169.965 659.504 169.968 C 659.503 169.989 679.789 282.646 649.106 379.247 C 615.715 484.373 548.945 556.924 526.062 571.230 C 514.893 578.213 459.197 590.805 416.498 590.805 C 373.800 590.805 318.103 578.213 306.934 571.230 C 284.052 556.924 217.281 484.373 183.890 379.247 C 153.207 282.646 173.493 169.989 173.492 169.968 Z"/>
<path fill="none" stroke="#000000" stroke-width="4" stroke-linecap="round" stroke-linejoin="round" d="M 188.541 175.843 C 197.905 179.332 216.631 186.309 216.634 186.310 C 216.654 186.313 274.403 208.046 416.600 208.139 C 556.104 208.231 617.073 185.365 617.093 185.363 C 617.096 185.362 635.403 179.516 644.557 176.593 "/>
<path fill="#000000" fill-rule="evenodd" stroke="#000000" stroke-width="4" stroke-linecap="round" stroke-linejoin="round" d="M 419.574 175.151 C 525.445 174.992 551.254 181.959 617.093 185.363 C 617.073 185.365 556.104 208.231 416.600 208.139 C 274.403 208.046 216.654 186.313 216.634 186.310 C 216.655 186.309 310.779 175.313 419.574 175.151 Z"/>
</g>
<g id="specs_2">
<path fill="#ff00ff" fill-rule="evenodd" stroke="none" d="M 273.765 511.951 C 273.793 511.951 559.203 511.951 559.232 511.951 C 559.232 511.925 559.232 248.065 559.232 248.039 C 559.203 248.039 273.793 248.039 273.765 248.039 C 273.765 248.065 273.765 511.925 273.765 511.951 Z"/>
<path fill="#ff0000" fill-rule="evenodd" stroke="none" d="M 416.498 675.689 C 416.500 675.693 430.371 714.534 430.373 714.538 C 430.371 714.537 416.500 701.630 416.498 701.628 C 416.497 701.630 402.625 714.537 402.624 714.538 C 402.625 714.534 416.497 675.693 416.498 675.689 Z"/>
<path fill="#0000ff" fill-rule="evenodd" stroke="none" d="M 416.503 137.179 C 416.504 137.181 423.905 157.906 423.906 157.908 C 423.905 157.907 416.504 151.020 416.503 151.020 C 416.503 151.020 409.101 157.907 409.101 157.908 C 409.101 157.906 416.503 137.181 416.503 137.179 Z"/>
<path fill="#00ff00" fill-rule="evenodd" stroke="none" d="M 9.479 330.330 C 9.481 330.329 32.003 322.157 32.005 322.156 C 32.004 322.157 24.548 330.253 24.547 330.254 C 24.548 330.255 32.085 338.275 32.086 338.275 C 32.084 338.275 9.481 330.331 9.479 330.330 Z"/>
<path fill="#ffff00" fill-rule="evenodd" stroke="none" d="M 299.170 575.731 C 299.171 575.730 303.537 566.223 303.538 566.222 C 303.538 566.223 303.767 571.023 303.767 571.024 C 303.768 571.024 308.572 571.140 308.573 571.140 C 308.572 571.140 299.171 575.730 299.170 575.731 Z"/>
<path fill="#ffff00" fill-rule="evenodd" stroke="none" d="M 535.305 575.614 C 535.305 575.613 530.749 566.196 530.748 566.195 C 530.748 566.196 530.615 571.000 530.615 571.000 C 530.614 571.000 525.813 571.213 525.812 571.213 C 525.813 571.214 535.304 575.614 535.305 575.614 Z"/>
<path fill="#00ff00" fill-rule="evenodd" stroke="none" d="M 676.592 330.330 C 676.590 330.329 654.069 322.157 654.066 322.156 C 654.067 322.157 661.524 330.253 661.524 330.254 C 661.524 330.255 653.986 338.275 653.985 338.275 C 653.987 338.275 676.590 330.331 676.592 330.330 Z"/>
</g>
</g>
</svg>
