<?xml version="1.0" encoding="utf-8"?>
<!-- Generator: Moho 13.5 build 20210422 -->
<!DOCTYPE svg PUBLIC "-//W3C//DTD SVG 1.1//EN" "http://www.w3.org/Graphics/SVG/1.1/DTD/svg11.dtd">
<svg version="1.1" id="Frame_0" xmlns="http://www.w3.org/2000/svg" xmlns:xlink="http://www.w3.org/1999/xlink" width="720px" height="720px">
<g id="thistle">
<g id="thistle">
<path fill="#ffffff" fill-rule="evenodd" stroke="#000000" stroke-width="4" stroke-linejoin="round" d="M 596.175 652.366 C 636.159 512.514 413.805 501.956 371.202 561.773 C 349.184 592.689 408.356 414.370 575.036 448.532 C 658.419 465.621 673.824 551.068 630.728 615.284 C 629.949 616.443 595.428 654.979 596.175 652.366 M 576.547 415.314 C 376.334 452.170 368.045 552.241 366.673 540.635 C 353.684 430.753 394.809 331.006 523.700 320.192 C 705.235 304.960 671.706 127.367 683.748 262.816 C 685.661 284.333 692.957 393.885 576.547 415.314 Z"/>
<path fill="#ffffff" fill-rule="evenodd" stroke="#000000" stroke-width="4" stroke-linejoin="round" d="M 123.825 652.366 C 83.841 512.514 306.195 501.956 348.798 561.773 C 370.816 592.689 311.644 414.370 144.964 448.532 C 61.581 465.621 46.176 551.068 89.272 615.284 C 90.051 616.443 124.572 654.979 123.825 652.366 M 143.453 415.314 C 343.666 452.170 351.955 552.241 353.327 540.635 C 366.316 430.753 325.191 331.006 196.300 320.192 C 14.765 304.960 48.294 127.367 36.252 262.816 C 34.339 284.333 27.043 393.885 143.453 415.314 Z"/>
<path fill="#ffffff" fill-rule="evenodd" stroke="#000000" stroke-width="4" stroke-linejoin="round" d="M 345.511 173.227 C 300.867 291.994 349.270 288.259 360.523 471.180 C 370.808 287.611 419.456 291.848 374.489 173.227 C 371.384 165.037 362.602 164.073 359.958 153.084 C 357.410 164.030 348.601 165.009 345.511 173.227 Z"/>
<path fill="none" stroke="#000000" stroke-width="4" stroke-linejoin="round" d="M 352.711 536.706 C 327.237 290.318 62.757 455.480 41.528 215.249 M 351.977 561.660 C 317.227 511.795 233.614 455.215 139.873 500.744 C 89.531 525.195 90.202 589.116 120.058 647.528 M 367.389 536.706 C 392.863 290.318 657.343 455.480 678.572 215.249 M 368.123 561.660 C 402.873 511.795 486.486 455.215 580.227 500.744 C 630.569 525.195 629.898 589.116 600.042 647.528 "/>
</g>
<g id="specs_2">
<path fill="#ff00ff" fill-rule="evenodd" stroke="none" d="M 173.369 400.945 C 173.406 400.945 546.594 400.945 546.631 400.945 C 546.631 400.907 546.631 22.128 546.631 22.090 C 546.594 22.090 173.406 22.090 173.369 22.090 C 173.369 22.128 173.369 400.907 173.369 400.945 Z"/>
<path fill="#ff0000" fill-rule="evenodd" stroke="none" d="M 360.000 681.390 C 360.001 681.393 371.559 713.756 371.560 713.759 C 371.559 713.758 360.001 703.004 360.000 703.003 C 359.999 703.004 348.441 713.758 348.440 713.759 C 348.441 713.756 359.999 681.393 360.000 681.390 Z"/>
<path fill="#0000ff" fill-rule="evenodd" stroke="none" d="M 360.000 6.158 C 360.001 6.160 366.714 24.959 366.715 24.961 C 366.714 24.961 360.001 18.714 360.000 18.713 C 359.999 18.714 353.286 24.961 353.285 24.961 C 353.286 24.959 359.999 6.160 360.000 6.158 Z"/>
<path fill="#00ff00" fill-rule="evenodd" stroke="none" d="M 34.505 432.204 C 34.508 432.203 64.591 421.286 64.594 421.285 C 64.593 421.286 54.633 432.101 54.632 432.102 C 54.633 432.103 64.702 442.815 64.703 442.816 C 64.700 442.815 34.508 432.205 34.505 432.204 Z"/>
<path fill="#00ff00" fill-rule="evenodd" stroke="none" d="M 685.495 432.204 C 685.492 432.203 655.409 421.286 655.406 421.285 C 655.407 421.286 665.367 432.101 665.368 432.102 C 665.367 432.103 655.298 442.815 655.297 442.816 C 655.300 442.815 685.492 432.205 685.495 432.204 Z"/>
<path fill="#be0027" fill-rule="evenodd" stroke="none" d="M 360.000 590.056 C 360.001 590.052 371.559 557.689 371.560 557.686 C 371.559 557.687 360.001 568.441 360.000 568.442 C 359.999 568.441 348.441 557.687 348.440 557.686 C 348.441 557.689 359.999 590.052 360.000 590.056 Z"/>
</g>
</g>
</svg>
