<?xml version="1.0" encoding="utf-8"?>
<!-- Generator: Moho 12.5 build 22414 -->
<!DOCTYPE svg PUBLIC "-//W3C//DTD SVG 1.1//EN" "http://www.w3.org/Graphics/SVG/1.1/DTD/svg11.dtd">
<svg version="1.1" id="Frame_0" xmlns="http://www.w3.org/2000/svg" xmlns:xlink="http://www.w3.org/1999/xlink" width="720px" height="720px">
<g id="throne_iso">
<g id="throne">
<path fill="#000000" fill-rule="evenodd" stroke="#ffffff" stroke-width="4" stroke-linejoin="round" d="M 509.944 409.863 C 466.479 385.640 423.013 361.416 379.548 337.192 C 379.548 337.185 381.666 263.791 381.666 263.784 C 424.140 287.915 466.614 312.046 509.087 336.177 C 509.087 336.184 509.944 409.856 509.944 409.863 Z"/>
<path fill="#000000" fill-rule="evenodd" stroke="#ffffff" stroke-width="4" stroke-linejoin="round" d="M 249.807 339.191 C 249.980 274.210 250.326 144.268 250.326 144.248 C 236.903 135.680 210.060 118.546 210.056 118.544 C 209.485 184.233 208.913 249.923 208.342 315.613 C 208.346 315.615 249.803 339.188 249.807 339.191 Z"/>
<path fill="#000000" fill-rule="evenodd" stroke="#ffffff" stroke-width="4" stroke-linejoin="round" d="M 165.501 540.101 C 165.501 540.081 164.930 407.579 164.644 341.318 C 164.662 341.327 337.705 438.129 337.722 438.139 C 337.722 438.159 337.722 638.615 337.722 638.635 C 337.705 638.625 165.518 540.110 165.501 540.101 Z"/>
<path fill="none" stroke="#ffffff" stroke-width="1" stroke-linecap="butt" stroke-linejoin="round" d="M 250.326 144.248 C 236.903 135.680 210.060 118.546 210.056 118.544 "/>
<path fill="#ffffff" fill-rule="evenodd" stroke="#000000" stroke-width="4" stroke-linejoin="round" d="M 274.317 26.863 C 287.741 35.289 301.165 43.714 314.588 52.140 C 314.582 52.149 250.333 144.239 250.326 144.248 C 236.903 135.680 210.060 118.546 210.056 118.544 C 210.062 118.534 274.311 26.873 274.317 26.863 Z"/>
<path fill="none" stroke="#ffffff" stroke-width="1" stroke-linecap="butt" stroke-linejoin="round" d="M 274.317 26.863 C 287.741 35.289 301.165 43.714 314.588 52.140 "/>
<path fill="#ffffff" fill-rule="evenodd" stroke="#000000" stroke-width="4" stroke-linejoin="round" d="M 314.588 52.140 C 314.594 52.141 378.844 67.989 378.850 67.991 C 365.426 59.708 338.583 43.145 338.579 43.143 C 338.573 43.141 274.324 26.865 274.317 26.863 C 287.741 35.289 301.165 43.714 314.588 52.140 Z"/>
<path fill="none" stroke="#ffffff" stroke-width="1" stroke-linecap="butt" stroke-linejoin="round" d="M 164.644 341.318 C 164.662 341.327 337.705 438.129 337.722 438.139 "/>
<path fill="none" stroke="#ffffff" stroke-width="1" stroke-linecap="butt" stroke-linejoin="round" d="M 249.807 339.191 C 249.803 339.188 208.346 315.615 208.342 315.613 "/>
<path fill="#ffffff" fill-rule="evenodd" stroke="#000000" stroke-width="4" stroke-linejoin="round" d="M 164.644 341.318 C 164.662 341.327 337.705 438.129 337.722 438.139 C 352.288 429.570 381.416 412.436 381.420 412.434 C 357.800 399.739 310.566 374.353 310.558 374.349 C 310.552 374.346 249.813 339.194 249.807 339.191 C 249.803 339.188 208.346 315.615 208.342 315.613 C 208.338 315.616 164.649 341.315 164.644 341.318 Z"/>
<path fill="none" stroke="#ffffff" stroke-width="1" stroke-linecap="butt" stroke-linejoin="round" d="M 509.087 336.177 C 466.614 312.046 424.140 287.915 381.666 263.784 "/>
<path fill="#ffffff" fill-rule="evenodd" stroke="#000000" stroke-width="4" stroke-linejoin="round" d="M 382.277 215.365 C 439.970 247.924 497.663 280.483 555.356 313.042 C 555.351 313.045 509.092 336.174 509.087 336.177 C 466.614 312.046 424.140 287.915 381.666 263.784 C 381.666 263.779 382.277 215.369 382.277 215.365 Z"/>
<path fill="none" stroke="#ffffff" stroke-width="1" stroke-linecap="butt" stroke-linejoin="round" d="M 337.722 438.139 C 337.722 438.159 337.722 638.615 337.722 638.635 "/>
<path fill="none" stroke="#ffffff" stroke-width="1" stroke-linecap="butt" stroke-linejoin="round" d="M 555.356 313.042 C 555.351 313.045 509.092 336.174 509.087 336.177 "/>
<path fill="none" stroke="#ffffff" stroke-width="1" stroke-linecap="butt" stroke-linejoin="round" d="M 509.087 336.177 C 509.087 336.184 509.944 409.856 509.944 409.863 "/>
<path fill="none" stroke="#ffffff" stroke-width="1" stroke-linecap="butt" stroke-linejoin="round" d="M 381.420 412.434 C 381.416 412.436 352.288 429.570 337.722 438.139 "/>
<path fill="#ffffff" fill-rule="evenodd" stroke="#000000" stroke-width="4" stroke-linejoin="round" d="M 337.722 438.139 C 337.722 438.159 337.722 638.615 337.722 638.635 C 409.981 597.222 554.477 514.408 554.499 514.396 C 554.499 514.376 555.356 313.063 555.356 313.042 C 555.351 313.045 509.092 336.174 509.087 336.177 C 509.087 336.184 509.944 409.856 509.944 409.863 C 509.931 409.871 381.433 484.400 381.420 484.407 C 381.420 484.400 381.420 412.441 381.420 412.434 C 381.416 412.436 352.288 429.570 337.722 438.139 Z"/>
<path fill="none" stroke="#ffffff" stroke-width="1" stroke-linecap="butt" stroke-linejoin="round" d="M 310.558 374.349 C 310.552 374.346 249.813 339.194 249.807 339.191 "/>
<path fill="none" stroke="#ffffff" stroke-width="1" stroke-linecap="butt" stroke-linejoin="round" d="M 249.807 339.191 C 249.980 274.210 250.326 144.268 250.326 144.248 "/>
<path fill="none" stroke="#ffffff" stroke-width="1" stroke-linecap="butt" stroke-linejoin="round" d="M 250.326 144.248 C 250.333 144.239 314.582 52.149 314.588 52.140 "/>
<path fill="none" stroke="#ffffff" stroke-width="1" stroke-linecap="butt" stroke-linejoin="round" d="M 314.588 52.140 C 314.594 52.141 378.844 67.989 378.850 67.991 "/>
<path fill="none" stroke="#ffffff" stroke-width="1" stroke-linecap="butt" stroke-linejoin="round" d="M 382.277 215.365 C 382.277 215.369 381.666 263.779 381.666 263.784 "/>
<path fill="none" stroke="#ffffff" stroke-width="1" stroke-linecap="butt" stroke-linejoin="round" d="M 381.666 263.784 C 381.666 263.791 379.548 337.185 379.548 337.192 "/>
<path fill="#ffffff" fill-rule="evenodd" stroke="#000000" stroke-width="4" stroke-linejoin="round" d="M 379.548 337.192 C 379.541 337.196 333.555 361.964 310.558 374.349 C 310.552 374.346 249.813 339.194 249.807 339.191 C 249.980 274.210 250.326 144.268 250.326 144.248 C 250.333 144.239 314.582 52.149 314.588 52.140 C 314.594 52.141 378.844 67.989 378.850 67.991 C 378.850 68.006 382.277 215.350 382.277 215.365 C 382.277 215.369 381.666 263.779 381.666 263.784 C 381.666 263.791 379.548 337.185 379.548 337.192 Z"/>
<path fill="none" stroke="#ffffff" stroke-width="1" stroke-linecap="butt" stroke-linejoin="round" d="M 381.420 412.434 C 357.800 399.739 310.566 374.353 310.558 374.349 "/>
<path fill="none" stroke="#ffffff" stroke-width="1" stroke-linecap="butt" stroke-linejoin="round" d="M 310.558 374.349 C 333.555 361.964 379.541 337.196 379.548 337.192 "/>
<path fill="none" stroke="#ffffff" stroke-width="1" stroke-linecap="butt" stroke-linejoin="round" d="M 379.548 337.192 C 423.013 361.416 466.479 385.640 509.944 409.863 "/>
<path fill="none" stroke="#ffffff" stroke-width="1" stroke-linecap="butt" stroke-linejoin="round" d="M 509.944 409.863 C 509.931 409.871 381.433 484.400 381.420 484.407 "/>
<path fill="none" stroke="#ffffff" stroke-width="1" stroke-linecap="butt" stroke-linejoin="round" d="M 381.420 484.407 C 381.420 484.400 381.420 412.441 381.420 412.434 "/>
<path fill="#ffffff" fill-rule="evenodd" stroke="#000000" stroke-width="4" stroke-linejoin="round" d="M 381.420 412.434 C 357.800 399.739 310.566 374.353 310.558 374.349 C 333.555 361.964 379.541 337.196 379.548 337.192 C 423.013 361.416 466.479 385.640 509.944 409.863 C 509.931 409.871 381.433 484.400 381.420 484.407 C 381.420 484.400 381.420 412.441 381.420 412.434 Z"/>
</g>
<g id="specs_2">
<path fill="#ff00ff" fill-rule="evenodd" stroke="none" d="M 330.294 399.837 C 330.309 399.837 487.925 399.837 487.941 399.837 C 487.941 399.818 487.941 201.870 487.941 201.850 C 487.925 201.850 330.309 201.850 330.294 201.850 C 330.294 201.870 330.294 399.818 330.294 399.837 Z"/>
<path fill="#ff0000" fill-rule="evenodd" stroke="none" d="M 338.589 653.949 C 338.590 653.952 351.020 688.758 351.022 688.761 C 351.020 688.760 338.590 677.194 338.589 677.193 C 338.587 677.194 326.157 688.760 326.156 688.761 C 326.157 688.758 338.587 653.952 338.589 653.949 Z"/>
<path fill="#0000ff" fill-rule="evenodd" stroke="none" d="M 293.820 24.584 C 293.820 24.586 301.041 44.805 301.041 44.807 C 301.041 44.806 293.820 38.088 293.820 38.087 C 293.819 38.088 286.598 44.806 286.598 44.807 C 286.598 44.805 293.819 24.586 293.820 24.584 Z"/>
<path fill="#00ff00" fill-rule="evenodd" stroke="none" d="M 144.144 270.391 C 144.149 270.389 191.357 253.259 191.361 253.257 C 191.360 253.259 175.731 270.230 175.729 270.232 C 175.731 270.234 191.531 287.043 191.532 287.045 C 191.527 287.043 144.149 270.393 144.144 270.391 Z"/>
<path fill="#00ff00" fill-rule="evenodd" stroke="none" d="M 423.163 171.121 C 423.158 171.119 375.950 153.989 375.946 153.987 C 375.947 153.989 391.576 170.960 391.578 170.962 C 391.576 170.963 375.776 187.773 375.775 187.774 C 375.779 187.773 423.158 171.122 423.163 171.121 Z"/>
</g>
</g>
</svg>
