<?xml version="1.0" encoding="utf-8"?>
<!-- Generator: Moho 12.5 build 22414 -->
<!DOCTYPE svg PUBLIC "-//W3C//DTD SVG 1.1//EN" "http://www.w3.org/Graphics/SVG/1.1/DTD/svg11.dtd">
<svg version="1.1" id="Frame_0" xmlns="http://www.w3.org/2000/svg" xmlns:xlink="http://www.w3.org/1999/xlink" width="720px" height="720px">
<g id="throne">
<g id="throne2">
<path fill="#ffffff" fill-rule="evenodd" stroke="#000000" stroke-width="4" stroke-linecap="round" stroke-linejoin="round" d="M 232.852 356.189 C 232.878 356.189 402.383 356.189 487.148 356.189 C 487.148 356.185 487.148 314.716 487.148 314.712 C 487.148 314.684 487.148 34.919 487.148 34.891 C 487.122 34.891 232.878 34.891 232.852 34.891 C 232.852 34.919 232.852 314.687 232.852 314.715 C 232.852 314.719 232.852 342.364 232.852 356.189 Z"/>
<path fill="#ffffff" fill-rule="evenodd" stroke="#000000" stroke-width="4" stroke-linecap="round" stroke-linejoin="round" d="M 538.007 610.484 C 419.336 610.484 300.664 610.484 181.993 610.484 C 181.993 610.461 181.993 381.778 181.993 381.594 C 181.904 381.865 537.971 381.596 538.007 381.596 C 538.007 381.619 538.007 610.461 538.007 610.484 Z"/>
<path fill="none" stroke="#ffffff" stroke-width="1" stroke-linecap="butt" stroke-linejoin="round" d="M 538.007 610.484 C 538.007 610.461 538.007 381.619 538.007 381.596 "/>
<path fill="#ffffff" fill-rule="evenodd" stroke="#000000" stroke-width="4" stroke-linecap="round" stroke-linejoin="round" d="M 538.007 330.759 C 538.012 330.759 588.861 330.759 588.866 330.759 C 588.866 330.787 588.866 610.456 588.866 610.484 C 588.861 610.484 538.012 610.484 538.007 610.484 C 538.007 610.461 538.007 381.619 538.007 381.596 C 538.007 381.591 538.007 330.764 538.007 330.759 Z"/>
<path fill="none" stroke="#ffffff" stroke-width="1" stroke-linecap="butt" stroke-linejoin="round" d="M 181.993 381.594 C 181.993 381.778 181.993 610.461 181.993 610.484 "/>
<path fill="#ffffff" fill-rule="evenodd" stroke="#000000" stroke-width="4" stroke-linecap="round" stroke-linejoin="round" d="M 131.134 330.759 C 131.139 330.759 181.988 330.759 181.993 330.759 C 181.993 330.764 181.993 381.553 181.993 381.594 C 181.993 381.778 181.993 610.461 181.993 610.484 C 181.988 610.484 131.139 610.484 131.134 610.484 C 131.134 610.456 131.134 330.787 131.134 330.759 Z"/>
<path fill="none" stroke="#ffffff" stroke-width="1" stroke-linecap="butt" stroke-linejoin="round" d="M 181.993 330.759 C 181.988 330.759 131.139 330.759 131.134 330.759 "/>
<path fill="none" stroke="#ffffff" stroke-width="1" stroke-linecap="butt" stroke-linejoin="round" d="M 538.007 330.759 C 538.012 330.759 588.861 330.759 588.866 330.759 "/>
<path fill="#ffffff" fill-rule="evenodd" stroke="#000000" stroke-width="4" stroke-linecap="round" stroke-linejoin="round" d="M 131.134 330.759 C 151.060 325.277 190.907 314.313 190.913 314.312 C 190.917 314.312 218.872 314.580 232.852 314.715 C 215.899 320.063 198.946 325.411 181.993 330.759 C 181.988 330.759 131.139 330.759 131.134 330.759 M 487.148 314.712 C 504.101 320.061 521.054 325.410 538.007 330.759 C 538.012 330.759 588.861 330.759 588.866 330.759 C 568.939 325.277 529.092 314.313 529.086 314.312 C 529.082 314.312 501.127 314.578 487.148 314.712 Z"/>
<path fill="none" stroke="#ffffff" stroke-width="1" stroke-linecap="butt" stroke-linejoin="round" d="M 232.852 356.189 C 232.878 356.189 402.383 356.189 487.148 356.189 "/>
<path fill="none" stroke="#ffffff" stroke-width="1" stroke-linecap="butt" stroke-linejoin="round" d="M 538.007 381.596 C 537.971 381.596 181.904 381.865 181.993 381.594 "/>
<path fill="#ffffff" fill-rule="evenodd" stroke="#000000" stroke-width="4" stroke-linecap="round" stroke-linejoin="round" d="M 232.852 356.189 C 232.878 356.189 402.383 356.189 487.148 356.189 C 487.153 356.192 538.002 381.594 538.007 381.596 C 537.971 381.596 181.904 381.865 181.993 381.594 C 182.008 381.551 232.847 356.192 232.852 356.189 Z"/>
<path fill="none" stroke="#000000" stroke-width="1" stroke-linecap="butt" stroke-linejoin="round" d="M 487.148 356.189 C 487.153 356.192 538.002 381.594 538.007 381.596 "/>
<path fill="none" stroke="#000000" stroke-width="1" stroke-linecap="butt" stroke-linejoin="round" d="M 538.007 381.596 C 538.007 381.591 538.007 330.764 538.007 330.759 "/>
<path fill="none" stroke="#000000" stroke-width="1" stroke-linecap="butt" stroke-linejoin="round" d="M 538.007 330.759 C 521.054 325.410 504.101 320.061 487.148 314.712 "/>
<path fill="none" stroke="#000000" stroke-width="1" stroke-linecap="butt" stroke-linejoin="round" d="M 487.148 314.712 C 487.148 314.716 487.148 356.185 487.148 356.189 "/>
<path fill="#000000" fill-rule="evenodd" stroke="#000000" stroke-width="4" stroke-linecap="round" stroke-linejoin="round" d="M 487.148 356.189 C 487.153 356.192 538.002 381.594 538.007 381.596 C 538.007 381.591 538.007 330.764 538.007 330.759 C 521.054 325.410 504.101 320.061 487.148 314.712 C 487.148 314.716 487.148 356.185 487.148 356.189 Z"/>
<path fill="none" stroke="#000000" stroke-width="1" stroke-linecap="butt" stroke-linejoin="round" d="M 181.993 330.759 C 198.946 325.411 215.899 320.063 232.852 314.715 "/>
<path fill="none" stroke="#000000" stroke-width="1" stroke-linecap="butt" stroke-linejoin="round" d="M 232.852 314.715 C 232.852 314.719 232.852 342.364 232.852 356.189 "/>
<path fill="none" stroke="#000000" stroke-width="1" stroke-linecap="butt" stroke-linejoin="round" d="M 232.852 356.189 C 232.847 356.192 182.008 381.551 181.993 381.594 "/>
<path fill="none" stroke="#000000" stroke-width="1" stroke-linecap="butt" stroke-linejoin="round" d="M 181.993 381.594 C 181.993 381.553 181.993 330.764 181.993 330.759 "/>
<path fill="#000000" fill-rule="evenodd" stroke="#000000" stroke-width="4" stroke-linecap="round" stroke-linejoin="round" d="M 181.993 330.759 C 198.946 325.411 215.899 320.063 232.852 314.715 C 232.852 314.719 232.852 342.364 232.852 356.189 C 232.847 356.192 182.008 381.551 181.993 381.594 C 181.993 381.553 181.993 330.764 181.993 330.759 Z"/>
<path fill="none" stroke="#000000" stroke-width="4" stroke-linecap="round" stroke-linejoin="round" d="M 490.545 610.484 C 490.545 549.768 490.545 428.356 490.545 428.337 "/>
<path fill="none" stroke="#000000" stroke-width="4" stroke-linecap="round" stroke-linejoin="round" d="M 229.455 428.336 C 229.455 489.052 229.455 610.466 229.455 610.484 "/>
<path fill="none" stroke="#000000" stroke-width="4" stroke-linecap="round" stroke-linejoin="round" d="M 490.545 610.484 C 490.545 549.768 490.545 428.356 490.545 428.337 "/>
<path fill="none" stroke="#000000" stroke-width="4" stroke-linecap="round" stroke-linejoin="round" d="M 490.545 428.337 C 403.515 428.337 229.481 428.336 229.455 428.336 "/>
<path fill="none" stroke="#000000" stroke-width="4" stroke-linecap="round" stroke-linejoin="round" d="M 258.073 355.925 C 258.073 258.165 258.073 62.674 258.073 62.644 C 258.094 62.644 461.906 62.644 461.927 62.644 C 461.927 62.674 461.927 258.163 461.927 355.922 "/>
<path fill="none" stroke="#000000" stroke-width="4" stroke-linecap="round" stroke-linejoin="round" d="M 180.563 332.755 C 178.800 351.327 166.949 358.650 156.304 358.650 C 145.659 358.650 131.415 349.933 132.044 332.755 "/>
<path fill="none" stroke="#000000" stroke-width="4" stroke-linecap="round" stroke-linejoin="round" d="M 156.304 358.650 C 156.304 358.663 156.297 609.309 156.296 609.321 "/>
<path fill="none" stroke="#000000" stroke-width="4" stroke-linecap="round" stroke-linejoin="round" d="M 540.348 332.755 C 542.112 351.327 553.962 358.650 564.607 358.650 C 575.253 358.650 589.496 349.933 588.867 332.755 "/>
<path fill="none" stroke="#000000" stroke-width="4" stroke-linecap="round" stroke-linejoin="round" d="M 564.607 358.650 C 564.607 358.663 564.612 525.764 564.615 609.321 "/>
</g>
<g id="specs_2">
<path fill="#ff00ff" fill-rule="evenodd" stroke="none" d="M 201.990 372.169 C 202.021 372.169 517.979 372.169 518.010 372.169 C 518.010 372.137 518.010 56.179 518.010 56.148 C 517.979 56.148 202.021 56.148 201.990 56.148 C 201.990 56.179 201.990 372.137 201.990 372.169 Z"/>
<path fill="#ff0000" fill-rule="evenodd" stroke="none" d="M 360.000 674.016 C 360.001 674.019 373.393 711.518 373.395 711.521 C 373.393 711.520 360.001 699.060 360.000 699.058 C 359.999 699.060 346.607 711.520 346.605 711.521 C 346.607 711.518 359.999 674.019 360.000 674.016 Z"/>
<path fill="#0000ff" fill-rule="evenodd" stroke="none" d="M 360.000 19.676 C 360.001 19.678 367.780 41.460 367.781 41.462 C 367.780 41.461 360.001 34.224 360.000 34.223 C 359.999 34.224 352.220 41.461 352.219 41.462 C 352.220 41.460 359.999 19.678 360.000 19.676 Z"/>
<path fill="#00ff00" fill-rule="evenodd" stroke="none" d="M 215.177 205.220 C 215.178 205.219 232.243 199.027 232.244 199.027 C 232.244 199.027 226.594 205.162 226.594 205.162 C 226.594 205.163 232.305 211.239 232.306 211.240 C 232.304 211.239 215.178 205.221 215.177 205.220 Z"/>
<path fill="#ffff00" fill-rule="evenodd" stroke="none" d="M 123.310 618.433 C 123.311 618.431 133.483 596.283 133.484 596.281 C 133.484 596.282 134.019 607.466 134.019 607.467 C 134.021 607.467 145.213 607.738 145.214 607.738 C 145.212 607.739 123.312 618.432 123.310 618.433 Z"/>
<path fill="#ffff00" fill-rule="evenodd" stroke="none" d="M 596.690 618.161 C 596.689 618.159 586.075 596.220 586.074 596.218 C 586.074 596.219 585.763 607.411 585.763 607.412 C 585.762 607.412 574.576 607.908 574.575 607.908 C 574.577 607.909 596.688 618.160 596.690 618.161 Z"/>
<path fill="#00ff00" fill-rule="evenodd" stroke="none" d="M 504.823 205.220 C 504.822 205.219 487.757 199.027 487.756 199.027 C 487.756 199.027 493.406 205.162 493.407 205.162 C 493.406 205.163 487.695 211.239 487.694 211.240 C 487.696 211.239 504.822 205.221 504.823 205.220 Z"/>
<path fill="#00ffff" fill-rule="evenodd" stroke="none" d="M 498.050 21.449 C 498.049 21.451 491.172 40.868 491.172 40.870 C 491.172 40.869 489.870 31.496 489.870 31.495 C 489.869 31.495 480.426 32.118 480.425 32.118 C 480.427 32.117 498.048 21.450 498.050 21.449 Z"/>
<path fill="#00ffff" fill-rule="evenodd" stroke="none" d="M 221.950 22.092 C 221.951 22.094 230.107 41.010 230.108 41.012 C 230.108 41.011 230.782 31.571 230.782 31.570 C 230.783 31.570 240.245 31.563 240.246 31.563 C 240.245 31.562 221.952 22.093 221.950 22.092 Z"/>
<path fill="#be0027" fill-rule="evenodd" stroke="none" d="M 360.000 637.215 C 360.001 637.211 373.393 599.713 373.395 599.709 C 373.393 599.711 360.001 612.171 360.000 612.172 C 359.999 612.171 346.607 599.711 346.605 599.709 C 346.607 599.713 359.999 637.211 360.000 637.215 Z"/>
</g>
</g>
</svg>
