<?xml version="1.0" encoding="utf-8"?>
<!-- Generator: Moho 12.5 build 22414 -->
<!DOCTYPE svg PUBLIC "-//W3C//DTD SVG 1.1//EN" "http://www.w3.org/Graphics/SVG/1.1/DTD/svg11.dtd">
<svg version="1.1" id="Frame_0" xmlns="http://www.w3.org/2000/svg" xmlns:xlink="http://www.w3.org/1999/xlink" width="720px" height="720px">
<g id="throne">
<g id="throne2">
<path fill="#ffffff" fill-rule="evenodd" stroke="#000000" stroke-width="4" stroke-linecap="round" stroke-linejoin="round" d="M 242.128 352.666 C 242.152 352.666 399.291 352.666 477.872 352.666 C 477.872 352.663 477.872 314.219 477.872 314.215 C 477.872 314.189 477.872 54.834 477.872 54.808 C 477.848 54.808 242.152 54.808 242.128 54.808 C 242.128 54.834 242.128 314.192 242.128 314.218 C 242.128 314.222 242.128 339.850 242.128 352.666 Z"/>
<path fill="#ffffff" fill-rule="evenodd" stroke="#000000" stroke-width="4" stroke-linecap="round" stroke-linejoin="round" d="M 525.020 588.410 C 415.007 588.410 304.993 588.410 194.980 588.410 C 194.980 588.388 194.980 376.239 194.980 376.218 C 195.013 376.218 524.987 376.220 525.020 376.220 C 525.020 376.241 525.020 588.388 525.020 588.410 Z"/>
<path fill="none" stroke="#ffffff" stroke-width="1" stroke-linecap="butt" stroke-linejoin="round" d="M 525.020 588.410 C 525.020 588.388 525.020 376.241 525.020 376.220 "/>
<path fill="#ffffff" fill-rule="evenodd" stroke="#000000" stroke-width="4" stroke-linecap="round" stroke-linejoin="round" d="M 525.020 329.092 C 525.025 329.092 572.165 329.092 572.169 329.092 C 572.169 329.118 572.169 588.384 572.169 588.410 C 572.165 588.410 525.025 588.410 525.020 588.410 C 525.020 588.388 525.020 376.241 525.020 376.220 C 525.020 376.215 525.020 329.097 525.020 329.092 Z"/>
<path fill="none" stroke="#ffffff" stroke-width="1" stroke-linecap="butt" stroke-linejoin="round" d="M 194.980 376.218 C 194.980 376.239 194.980 588.388 194.980 588.410 "/>
<path fill="#ffffff" fill-rule="evenodd" stroke="#000000" stroke-width="4" stroke-linecap="round" stroke-linejoin="round" d="M 147.831 329.092 C 147.835 329.092 194.975 329.092 194.980 329.092 C 194.980 329.097 194.980 376.213 194.980 376.218 C 194.980 376.239 194.980 588.388 194.980 588.410 C 194.975 588.410 147.835 588.410 147.831 588.410 C 147.831 588.384 147.831 329.118 147.831 329.092 Z"/>
<path fill="none" stroke="#ffffff" stroke-width="1" stroke-linecap="butt" stroke-linejoin="round" d="M 194.980 329.092 C 194.975 329.092 147.835 329.092 147.831 329.092 "/>
<path fill="none" stroke="#ffffff" stroke-width="1" stroke-linecap="butt" stroke-linejoin="round" d="M 525.020 329.092 C 525.025 329.092 572.165 329.092 572.169 329.092 "/>
<path fill="#ffffff" fill-rule="evenodd" stroke="#000000" stroke-width="4" stroke-linecap="round" stroke-linejoin="round" d="M 147.831 329.092 C 166.303 324.009 203.243 313.846 203.248 313.844 C 203.252 313.844 229.168 314.093 242.128 314.218 C 226.412 319.176 210.696 324.134 194.980 329.092 C 194.975 329.092 147.835 329.092 147.831 329.092 M 477.872 314.215 C 493.588 319.174 509.304 324.133 525.020 329.092 C 525.025 329.092 572.165 329.092 572.169 329.092 C 553.696 324.009 516.756 313.846 516.751 313.844 C 516.747 313.844 490.832 314.091 477.872 314.215 Z"/>
<path fill="none" stroke="#ffffff" stroke-width="1" stroke-linecap="butt" stroke-linejoin="round" d="M 242.128 352.666 C 242.152 352.666 399.291 352.666 477.872 352.666 "/>
<path fill="none" stroke="#ffffff" stroke-width="1" stroke-linecap="butt" stroke-linejoin="round" d="M 525.020 376.220 C 524.987 376.220 195.013 376.218 194.980 376.218 "/>
<path fill="#ffffff" fill-rule="evenodd" stroke="#000000" stroke-width="4" stroke-linecap="round" stroke-linejoin="round" d="M 242.128 352.666 C 242.152 352.666 399.291 352.666 477.872 352.666 C 477.877 352.669 525.016 376.218 525.020 376.220 C 524.987 376.220 195.013 376.218 194.980 376.218 C 194.984 376.216 242.123 352.669 242.128 352.666 Z"/>
<path fill="none" stroke="#000000" stroke-width="1" stroke-linecap="butt" stroke-linejoin="round" d="M 477.872 352.666 C 477.877 352.669 525.016 376.218 525.020 376.220 "/>
<path fill="none" stroke="#000000" stroke-width="1" stroke-linecap="butt" stroke-linejoin="round" d="M 525.020 376.220 C 525.020 376.215 525.020 329.097 525.020 329.092 "/>
<path fill="none" stroke="#000000" stroke-width="1" stroke-linecap="butt" stroke-linejoin="round" d="M 525.020 329.092 C 509.304 324.133 493.588 319.174 477.872 314.215 "/>
<path fill="none" stroke="#000000" stroke-width="1" stroke-linecap="butt" stroke-linejoin="round" d="M 477.872 314.215 C 477.872 314.219 477.872 352.663 477.872 352.666 "/>
<path fill="#000000" fill-rule="evenodd" stroke="#000000" stroke-width="4" stroke-linecap="round" stroke-linejoin="round" d="M 477.872 352.666 C 477.877 352.669 525.016 376.218 525.020 376.220 C 525.020 376.215 525.020 329.097 525.020 329.092 C 509.304 324.133 493.588 319.174 477.872 314.215 C 477.872 314.219 477.872 352.663 477.872 352.666 Z"/>
<path fill="none" stroke="#000000" stroke-width="1" stroke-linecap="butt" stroke-linejoin="round" d="M 194.980 329.092 C 210.696 324.134 226.412 319.176 242.128 314.218 "/>
<path fill="none" stroke="#000000" stroke-width="1" stroke-linecap="butt" stroke-linejoin="round" d="M 242.128 314.218 C 242.128 314.222 242.128 339.850 242.128 352.666 "/>
<path fill="none" stroke="#000000" stroke-width="1" stroke-linecap="butt" stroke-linejoin="round" d="M 242.128 352.666 C 242.123 352.669 194.984 376.216 194.980 376.218 "/>
<path fill="none" stroke="#000000" stroke-width="1" stroke-linecap="butt" stroke-linejoin="round" d="M 194.980 376.218 C 194.980 376.213 194.980 329.097 194.980 329.092 "/>
<path fill="#000000" fill-rule="evenodd" stroke="#000000" stroke-width="4" stroke-linecap="round" stroke-linejoin="round" d="M 194.980 329.092 C 210.696 324.134 226.412 319.176 242.128 314.218 C 242.128 314.222 242.128 339.850 242.128 352.666 C 242.123 352.669 194.984 376.216 194.980 376.218 C 194.980 376.213 194.980 329.097 194.980 329.092 Z"/>
<path fill="none" stroke="#000000" stroke-width="4" stroke-linecap="round" stroke-linejoin="round" d="M 481.021 588.410 C 481.021 532.124 481.021 419.568 481.021 419.551 "/>
<path fill="none" stroke="#000000" stroke-width="4" stroke-linecap="round" stroke-linejoin="round" d="M 238.979 419.550 C 238.979 475.836 238.979 588.393 238.979 588.410 "/>
<path fill="none" stroke="#000000" stroke-width="4" stroke-linecap="round" stroke-linejoin="round" d="M 481.021 588.410 C 481.021 532.124 481.021 419.568 481.021 419.551 "/>
<path fill="none" stroke="#000000" stroke-width="4" stroke-linecap="round" stroke-linejoin="round" d="M 481.021 419.551 C 400.340 419.551 239.003 419.550 238.979 419.550 "/>
</g>
<g id="specs_2">
<path fill="#ff00ff" fill-rule="evenodd" stroke="none" d="M 213.517 367.480 C 213.546 367.480 506.454 367.480 506.483 367.480 C 506.483 367.451 506.483 74.544 506.483 74.514 C 506.454 74.514 213.546 74.514 213.517 74.514 C 213.517 74.544 213.517 367.451 213.517 367.480 Z"/>
<path fill="#ff0000" fill-rule="evenodd" stroke="none" d="M 360.000 657.036 C 360.001 657.040 372.416 691.802 372.417 691.806 C 372.416 691.804 360.001 680.253 360.000 680.252 C 359.999 680.253 347.584 691.804 347.583 691.806 C 347.584 691.802 359.999 657.040 360.000 657.036 Z"/>
<path fill="#0000ff" fill-rule="evenodd" stroke="none" d="M 360.000 40.703 C 360.001 40.705 367.212 60.898 367.213 60.900 C 367.212 60.899 360.001 54.189 360.000 54.189 C 359.999 54.189 352.788 60.899 352.787 60.900 C 352.788 60.898 359.999 40.705 360.000 40.703 Z"/>
<path fill="#00ff00" fill-rule="evenodd" stroke="none" d="M 225.742 212.711 C 225.744 212.710 241.563 206.970 241.565 206.969 C 241.564 206.970 236.326 212.657 236.326 212.657 C 236.326 212.658 241.621 218.291 241.622 218.292 C 241.620 218.291 225.744 212.712 225.742 212.711 Z"/>
<path fill="#ffff00" fill-rule="evenodd" stroke="none" d="M 140.577 595.778 C 140.578 595.776 150.008 575.245 150.009 575.243 C 150.009 575.244 150.506 585.611 150.506 585.612 C 150.507 585.612 160.883 585.864 160.884 585.864 C 160.882 585.865 140.579 595.777 140.577 595.778 Z"/>
<path fill="#ffff00" fill-rule="evenodd" stroke="none" d="M 579.423 595.527 C 579.422 595.525 569.582 575.186 569.581 575.184 C 569.581 575.185 569.293 585.561 569.292 585.562 C 569.292 585.562 558.922 586.022 558.921 586.022 C 558.923 586.023 579.421 595.526 579.423 595.527 Z"/>
<path fill="#00ff00" fill-rule="evenodd" stroke="none" d="M 494.258 212.711 C 494.257 212.710 478.437 206.970 478.435 206.969 C 478.436 206.970 483.674 212.657 483.674 212.657 C 483.674 212.658 478.379 218.291 478.378 218.292 C 478.380 218.291 494.256 212.712 494.258 212.711 Z"/>
<path fill="#00ffff" fill-rule="evenodd" stroke="none" d="M 487.979 42.347 C 487.978 42.349 481.603 60.349 481.602 60.351 C 481.602 60.350 480.395 51.661 480.395 51.660 C 480.394 51.660 471.641 52.237 471.640 52.237 C 471.642 52.236 487.977 42.348 487.979 42.347 Z"/>
<path fill="#00ffff" fill-rule="evenodd" stroke="none" d="M 232.021 42.943 C 232.022 42.945 239.583 60.480 239.584 60.482 C 239.584 60.481 240.209 51.731 240.209 51.730 C 240.210 51.730 248.982 51.723 248.983 51.723 C 248.981 51.722 232.023 42.944 232.021 42.943 Z"/>
<path fill="#be0027" fill-rule="evenodd" stroke="none" d="M 360.000 613.191 C 360.001 613.187 372.416 578.424 372.417 578.421 C 372.416 578.422 360.001 589.974 360.000 589.975 C 359.999 589.974 347.584 578.422 347.583 578.421 C 347.584 578.424 359.999 613.187 360.000 613.191 Z"/>
<path fill="#ff00ff" fill-rule="evenodd" stroke="none" d="M 239.847 588.154 C 239.871 588.154 480.129 588.154 480.154 588.154 C 480.154 588.137 480.154 419.790 480.154 419.773 C 480.129 419.773 239.871 419.773 239.847 419.773 C 239.847 419.790 239.847 588.137 239.847 588.154 Z"/>
</g>
</g>
</svg>
