<?xml version="1.0" encoding="utf-8"?>
<!-- Generator: Moho 12.5 build 22414 -->
<!DOCTYPE svg PUBLIC "-//W3C//DTD SVG 1.1//EN" "http://www.w3.org/Graphics/SVG/1.1/DTD/svg11.dtd">
<svg version="1.1" id="Frame_0" xmlns="http://www.w3.org/2000/svg" xmlns:xlink="http://www.w3.org/1999/xlink" width="720px" height="720px">
<g id="throne">
<g id="throne2">
<path fill="#ffffff" fill-rule="evenodd" stroke="#000000" stroke-width="4" stroke-linecap="round" stroke-linejoin="round" d="M 417.927 110.921 C 417.928 110.921 423.915 111.460 428.640 109.489 C 435.845 106.482 436.230 101.606 441.445 99.112 C 445.087 97.371 448.477 98.712 452.657 96.518 C 458.845 93.271 464.999 84.780 465.001 84.779 C 464.999 84.779 457.056 89.116 451.138 88.830 C 445.134 88.539 442.664 82.944 437.542 83.366 C 432.661 83.768 432.074 89.318 425.579 90.565 C 419.881 91.658 413.474 88.699 413.473 88.699 C 413.474 88.699 419.242 86.995 422.883 83.402 C 428.407 77.951 426.884 73.273 430.776 69.044 C 433.507 66.076 437.182 66.112 440.251 62.530 C 444.772 57.256 447.273 47.123 447.273 47.121 C 447.272 47.122 441.631 54.213 436.059 56.241 C 430.440 58.286 426.029 54.115 421.485 56.457 C 417.127 58.704 418.696 64.054 413.161 67.687 C 408.322 70.863 401.287 70.573 401.286 70.573 C 401.286 70.572 406.009 66.848 408.048 62.159 C 411.138 55.051 407.976 51.282 410.005 45.913 C 411.431 42.141 414.855 40.803 416.365 36.334 C 418.588 29.756 417.118 19.427 417.118 19.426 C 417.117 19.427 414.533 28.111 410.122 32.074 C 405.671 36.073 400.019 33.852 396.675 37.724 C 393.471 41.434 396.918 45.810 393.137 51.243 C 389.825 56.002 383.178 58.358 383.177 58.359 C 383.178 58.358 386.109 53.110 386.206 47.998 C 386.352 40.234 382.029 37.945 381.831 32.198 C 381.691 28.171 384.284 25.605 383.942 20.904 C 383.435 13.955 378.092 4.960 378.092 4.958 C 378.091 4.960 378.892 13.982 376.269 19.302 C 373.600 24.715 367.478 24.764 365.809 29.646 C 364.229 34.273 369.045 37.036 367.578 43.473 C 366.280 49.165 360.963 53.871 360.962 53.872 C 360.962 53.871 361.501 47.884 359.529 43.159 C 356.523 35.955 351.646 35.570 349.153 30.355 C 347.412 26.713 348.753 23.323 346.559 19.142 C 343.312 12.954 334.821 6.800 334.819 6.799 C 334.820 6.800 339.157 14.744 338.870 20.661 C 338.579 26.665 332.984 29.136 333.406 34.258 C 333.809 39.139 339.358 39.726 340.605 46.221 C 341.699 51.919 338.740 58.325 338.740 58.326 C 338.739 58.325 337.036 52.557 333.443 48.916 C 327.992 43.392 323.313 44.915 319.085 41.024 C 316.117 38.293 316.152 34.618 312.571 31.548 C 307.296 27.027 297.163 24.526 297.162 24.526 C 297.162 24.527 304.253 30.168 306.281 35.740 C 308.327 41.359 304.155 45.771 306.497 50.315 C 308.744 54.673 314.094 53.103 317.727 58.638 C 320.904 63.478 320.614 70.513 320.614 70.514 C 320.613 70.513 316.888 65.791 312.199 63.752 C 305.092 60.661 301.323 63.823 295.954 61.794 C 292.181 60.369 290.843 56.944 286.375 55.434 C 279.797 53.211 269.468 54.681 269.466 54.681 C 269.467 54.682 278.151 57.267 282.114 61.678 C 286.114 66.129 283.893 71.781 287.765 75.125 C 291.475 78.328 295.850 74.883 301.283 78.663 C 306.042 81.975 308.399 88.621 308.400 88.622 C 308.399 88.621 303.151 85.690 298.039 85.594 C 290.275 85.448 287.986 89.770 282.239 89.969 C 278.211 90.108 275.646 87.515 270.945 87.858 C 263.996 88.365 255.001 93.707 254.999 93.708 C 255.001 93.708 264.023 92.907 269.343 95.530 C 274.755 98.199 274.804 104.322 279.687 105.990 C 284.314 107.571 287.076 102.754 293.514 104.222 C 299.206 105.519 303.913 110.837 303.913 110.837 C 341.918 110.864 417.916 110.921 417.927 110.921 Z"/>
<path fill="none" stroke="#000000" stroke-width="4" stroke-linecap="round" stroke-linejoin="round" d="M 319.688 111.996 C 319.688 89.684 337.688 71.684 360.000 71.684 C 382.312 71.684 400.312 89.684 400.312 111.996 C 400.312 134.308 382.312 152.308 360.000 152.308 C 337.688 152.308 319.688 134.308 319.688 111.996 "/>
<path fill="#ffffff" fill-rule="evenodd" stroke="#000000" stroke-width="4" stroke-linecap="round" stroke-linejoin="round" d="M 246.521 397.173 C 246.544 397.173 397.826 397.173 473.479 397.173 C 473.479 397.169 473.479 360.158 473.479 360.154 C 473.479 360.129 473.479 110.441 473.479 110.416 C 473.456 110.416 246.544 110.416 246.521 110.416 C 246.521 110.441 246.521 360.132 246.521 360.157 C 246.521 360.161 246.521 384.834 246.521 397.173 Z"/>
<path fill="#ffffff" fill-rule="evenodd" stroke="#000000" stroke-width="4" stroke-linecap="round" stroke-linejoin="round" d="M 518.870 624.129 C 412.957 624.129 307.043 624.129 201.130 624.129 C 201.130 624.109 201.130 420.010 201.130 419.846 C 201.050 420.088 518.838 419.849 518.870 419.849 C 518.870 419.869 518.870 624.109 518.870 624.129 Z"/>
<path fill="none" stroke="#ffffff" stroke-width="1" stroke-linecap="butt" stroke-linejoin="round" d="M 518.870 624.129 C 518.870 624.109 518.870 419.869 518.870 419.849 "/>
<path fill="#ffffff" fill-rule="evenodd" stroke="#000000" stroke-width="4" stroke-linecap="round" stroke-linejoin="round" d="M 518.870 374.477 C 518.874 374.477 564.257 374.477 564.261 374.477 C 564.261 374.502 564.261 624.104 564.261 624.129 C 564.257 624.129 518.874 624.129 518.870 624.129 C 518.870 624.109 518.870 419.869 518.870 419.849 C 518.870 419.844 518.870 374.481 518.870 374.477 Z"/>
<path fill="none" stroke="#ffffff" stroke-width="1" stroke-linecap="butt" stroke-linejoin="round" d="M 201.130 419.846 C 201.130 420.010 201.130 624.109 201.130 624.129 "/>
<path fill="#ffffff" fill-rule="evenodd" stroke="#000000" stroke-width="4" stroke-linecap="round" stroke-linejoin="round" d="M 155.739 374.477 C 155.743 374.477 201.126 374.477 201.130 374.477 C 201.130 374.481 201.130 419.810 201.130 419.846 C 201.130 420.010 201.130 624.109 201.130 624.129 C 201.126 624.129 155.743 624.129 155.739 624.129 C 155.739 624.104 155.739 374.502 155.739 374.477 Z"/>
<path fill="none" stroke="#ffffff" stroke-width="1" stroke-linecap="butt" stroke-linejoin="round" d="M 201.130 374.477 C 201.126 374.477 155.743 374.477 155.739 374.477 "/>
<path fill="none" stroke="#ffffff" stroke-width="1" stroke-linecap="butt" stroke-linejoin="round" d="M 518.870 374.477 C 518.874 374.477 564.257 374.477 564.261 374.477 "/>
<path fill="#ffffff" fill-rule="evenodd" stroke="#000000" stroke-width="4" stroke-linecap="round" stroke-linejoin="round" d="M 155.739 374.477 C 173.523 369.584 209.086 359.799 209.091 359.797 C 209.095 359.797 234.045 360.037 246.521 360.157 C 231.391 364.930 216.261 369.703 201.130 374.477 C 201.126 374.477 155.743 374.477 155.739 374.477 M 473.479 360.154 C 488.609 364.928 503.739 369.703 518.870 374.477 C 518.874 374.477 564.257 374.477 564.261 374.477 C 546.477 369.584 510.914 359.799 510.909 359.797 C 510.905 359.797 485.955 360.035 473.479 360.154 Z"/>
<path fill="none" stroke="#ffffff" stroke-width="1" stroke-linecap="butt" stroke-linejoin="round" d="M 246.521 397.173 C 246.544 397.173 397.826 397.173 473.479 397.173 "/>
<path fill="none" stroke="#ffffff" stroke-width="1" stroke-linecap="butt" stroke-linejoin="round" d="M 518.870 419.849 C 518.838 419.849 201.050 420.088 201.130 419.846 "/>
<path fill="#ffffff" fill-rule="evenodd" stroke="#000000" stroke-width="4" stroke-linecap="round" stroke-linejoin="round" d="M 246.521 397.173 C 246.544 397.173 397.826 397.173 473.479 397.173 C 473.483 397.175 518.865 419.846 518.870 419.849 C 518.838 419.849 201.050 420.088 201.130 419.846 C 201.143 419.808 246.517 397.175 246.521 397.173 Z"/>
<path fill="none" stroke="#000000" stroke-width="1" stroke-linecap="butt" stroke-linejoin="round" d="M 473.479 397.173 C 473.483 397.175 518.865 419.846 518.870 419.849 "/>
<path fill="none" stroke="#000000" stroke-width="1" stroke-linecap="butt" stroke-linejoin="round" d="M 518.870 419.849 C 518.870 419.844 518.870 374.481 518.870 374.477 "/>
<path fill="none" stroke="#000000" stroke-width="1" stroke-linecap="butt" stroke-linejoin="round" d="M 518.870 374.477 C 503.739 369.703 488.609 364.928 473.479 360.154 "/>
<path fill="none" stroke="#000000" stroke-width="1" stroke-linecap="butt" stroke-linejoin="round" d="M 473.479 360.154 C 473.479 360.158 473.479 397.169 473.479 397.173 "/>
<path fill="#000000" fill-rule="evenodd" stroke="#000000" stroke-width="4" stroke-linecap="round" stroke-linejoin="round" d="M 473.479 397.173 C 473.483 397.175 518.865 419.846 518.870 419.849 C 518.870 419.844 518.870 374.481 518.870 374.477 C 503.739 369.703 488.609 364.928 473.479 360.154 C 473.479 360.158 473.479 397.169 473.479 397.173 Z"/>
<path fill="none" stroke="#000000" stroke-width="1" stroke-linecap="butt" stroke-linejoin="round" d="M 201.130 374.477 C 216.261 369.703 231.391 364.930 246.521 360.157 "/>
<path fill="none" stroke="#000000" stroke-width="1" stroke-linecap="butt" stroke-linejoin="round" d="M 246.521 360.157 C 246.521 360.161 246.521 384.834 246.521 397.173 "/>
<path fill="none" stroke="#000000" stroke-width="1" stroke-linecap="butt" stroke-linejoin="round" d="M 246.521 397.173 C 246.517 397.175 201.143 419.808 201.130 419.846 "/>
<path fill="none" stroke="#000000" stroke-width="1" stroke-linecap="butt" stroke-linejoin="round" d="M 201.130 419.846 C 201.130 419.810 201.130 374.481 201.130 374.477 "/>
<path fill="#000000" fill-rule="evenodd" stroke="#000000" stroke-width="4" stroke-linecap="round" stroke-linejoin="round" d="M 201.130 374.477 C 216.261 369.703 231.391 364.930 246.521 360.157 C 246.521 360.161 246.521 384.834 246.521 397.173 C 246.517 397.175 201.143 419.808 201.130 419.846 C 201.130 419.810 201.130 374.481 201.130 374.477 Z"/>
<path fill="none" stroke="#000000" stroke-width="4" stroke-linecap="round" stroke-linejoin="round" d="M 476.511 624.129 C 476.511 569.941 476.511 461.581 476.511 461.565 "/>
<path fill="none" stroke="#000000" stroke-width="4" stroke-linecap="round" stroke-linejoin="round" d="M 243.489 461.563 C 243.489 515.752 243.489 624.113 243.489 624.129 "/>
<path fill="none" stroke="#000000" stroke-width="4" stroke-linecap="round" stroke-linejoin="round" d="M 476.511 624.129 C 476.511 569.941 476.511 461.581 476.511 461.565 "/>
<path fill="none" stroke="#000000" stroke-width="4" stroke-linecap="round" stroke-linejoin="round" d="M 476.511 461.565 C 398.837 461.564 243.513 461.563 243.489 461.563 "/>
<path fill="#ffffff" fill-rule="evenodd" stroke="#000000" stroke-width="4" stroke-linecap="round" stroke-linejoin="round" d="M 443.061 623.683 C 443.063 623.683 451.648 624.456 458.422 621.629 C 468.753 617.318 469.305 610.325 476.784 606.750 C 482.006 604.253 486.867 606.177 492.861 603.031 C 501.734 598.375 510.558 586.199 510.560 586.197 C 510.558 586.198 499.168 592.417 490.682 592.006 C 482.073 591.588 478.532 583.566 471.187 584.171 C 464.189 584.748 463.346 592.706 454.033 594.494 C 445.863 596.062 436.676 591.819 436.675 591.819 C 436.676 591.818 444.948 589.375 450.168 584.224 C 458.089 576.408 455.905 569.699 461.485 563.635 C 465.401 559.380 470.670 559.430 475.073 554.295 C 481.555 546.733 485.140 532.203 485.141 532.200 C 485.139 532.202 477.050 542.369 469.061 545.277 C 461.004 548.210 454.679 542.228 448.163 545.587 C 441.914 548.808 444.165 556.480 436.228 561.689 C 429.288 566.244 419.201 565.828 419.199 565.828 C 419.200 565.827 425.972 560.486 428.896 553.762 C 433.327 543.571 428.793 538.167 431.702 530.469 C 433.747 525.059 438.657 523.140 440.822 516.732 C 444.010 507.301 441.901 492.490 441.902 492.488 C 441.901 492.490 438.194 504.941 431.870 510.624 C 425.487 516.358 417.383 513.174 412.588 518.727 C 407.994 524.045 412.936 530.320 407.515 538.110 C 402.766 544.934 393.236 548.313 393.234 548.314 C 393.235 548.313 397.438 540.788 397.576 533.458 C 397.786 522.325 391.587 519.043 391.303 510.803 C 391.103 505.028 394.821 501.349 394.330 494.608 C 393.603 484.644 385.942 471.746 385.941 471.744 C 385.941 471.746 387.089 484.683 383.328 492.311 C 379.501 500.072 370.722 500.142 368.330 507.143 C 366.063 513.777 372.970 517.738 370.866 526.969 C 369.005 535.131 361.380 541.879 361.379 541.881 C 361.379 541.879 362.152 533.294 359.325 526.520 C 355.014 516.189 348.021 515.637 344.446 508.158 C 341.950 502.936 343.873 498.075 340.727 492.081 C 336.071 483.208 323.895 474.384 323.893 474.382 C 323.894 474.384 330.113 485.774 329.702 494.260 C 329.285 502.869 321.262 506.411 321.867 513.755 C 322.444 520.754 330.402 521.596 332.190 530.909 C 333.758 539.079 329.516 548.266 329.515 548.267 C 329.515 548.266 327.071 539.995 321.920 534.774 C 314.104 526.853 307.395 529.037 301.332 523.457 C 297.076 519.541 297.127 514.272 291.991 509.870 C 284.429 503.387 269.898 499.802 269.896 499.801 C 269.898 499.803 280.065 507.892 282.973 515.882 C 285.906 523.938 279.924 530.263 283.283 536.779 C 286.504 543.028 294.176 540.777 299.386 548.714 C 303.940 555.654 303.524 565.741 303.524 565.743 C 303.523 565.742 298.183 558.970 291.459 556.046 C 281.267 551.615 275.863 556.149 268.165 553.240 C 262.755 551.196 260.837 546.285 254.429 544.120 C 244.997 540.932 230.186 543.041 230.184 543.041 C 230.186 543.042 242.637 546.748 248.320 553.073 C 254.054 559.455 250.871 567.560 256.423 572.355 C 261.742 576.948 268.016 572.007 275.806 577.428 C 282.630 582.176 286.010 591.707 286.011 591.708 C 286.009 591.708 278.484 587.504 271.154 587.366 C 260.021 587.156 256.739 593.355 248.499 593.640 C 242.724 593.839 239.045 590.121 232.304 590.613 C 222.340 591.339 209.442 599.000 209.440 599.001 C 209.442 599.001 222.379 597.853 230.007 601.614 C 237.768 605.440 237.838 614.220 244.839 616.612 C 251.473 618.879 255.435 611.972 264.666 614.077 C 272.827 615.937 279.577 623.563 279.577 623.563 C 334.072 623.603 443.045 623.683 443.061 623.683 Z"/>
<path fill="none" stroke="#000000" stroke-width="4" stroke-linecap="round" stroke-linejoin="round" d="M 269.031 396.937 C 269.031 309.687 269.031 135.212 269.031 135.186 C 269.049 135.186 450.951 135.186 450.969 135.186 C 450.969 135.212 450.969 309.685 450.969 396.934 "/>
<path fill="#ffffff" fill-rule="evenodd" stroke="#000000" stroke-width="4" stroke-linecap="round" stroke-linejoin="round" d="M 417.927 397.105 C 417.928 397.105 423.915 397.644 428.640 395.673 C 435.845 392.666 436.230 387.790 441.445 385.296 C 445.087 383.555 448.477 384.896 452.657 382.703 C 458.845 379.455 464.999 370.964 465.001 370.963 C 464.999 370.963 457.056 375.300 451.138 375.014 C 445.134 374.723 442.664 369.128 437.542 369.550 C 432.661 369.952 432.073 375.502 425.579 376.749 C 419.881 377.842 413.474 374.884 413.473 374.884 C 413.474 374.883 419.242 373.179 422.883 369.586 C 428.407 364.135 426.884 359.457 430.776 355.228 C 433.507 352.260 437.182 352.296 440.251 348.714 C 444.772 343.440 447.273 333.307 447.273 333.305 C 447.272 333.306 441.631 340.397 436.059 342.425 C 430.440 344.470 426.029 340.299 421.485 342.641 C 417.127 344.888 418.697 350.238 413.161 353.871 C 408.322 357.048 401.287 356.757 401.286 356.757 C 401.286 356.757 406.009 353.032 408.048 348.343 C 411.138 341.235 407.977 337.466 410.005 332.098 C 411.431 328.325 414.855 326.987 416.365 322.518 C 418.588 315.940 417.118 305.611 417.118 305.610 C 417.117 305.611 414.533 314.295 410.122 318.258 C 405.671 322.257 400.019 320.037 396.675 323.909 C 393.471 327.618 396.917 331.994 393.137 337.427 C 389.825 342.186 383.178 344.542 383.177 344.543 C 383.178 344.542 386.109 339.294 386.206 334.182 C 386.352 326.418 382.029 324.130 381.831 318.383 C 381.691 314.355 384.284 311.789 383.942 307.088 C 383.435 300.139 378.092 291.144 378.092 291.143 C 378.091 291.144 378.892 300.166 376.269 305.486 C 373.600 310.899 367.478 310.948 365.809 315.830 C 364.229 320.457 369.045 323.220 367.578 329.657 C 366.280 335.349 360.963 340.056 360.962 340.057 C 360.962 340.056 361.501 334.068 359.529 329.343 C 356.523 322.139 351.646 321.754 349.153 316.539 C 347.412 312.897 348.753 309.507 346.559 305.326 C 343.312 299.138 334.821 292.984 334.819 292.983 C 334.820 292.984 339.157 300.928 338.870 306.845 C 338.579 312.849 332.984 315.320 333.406 320.442 C 333.809 325.323 339.358 325.910 340.605 332.405 C 341.699 338.103 338.740 344.509 338.740 344.511 C 338.739 344.510 337.036 338.741 333.443 335.100 C 327.992 329.576 323.313 331.099 319.085 327.208 C 316.117 324.477 316.152 320.802 312.571 317.732 C 307.296 313.211 297.163 310.711 297.162 310.710 C 297.162 310.711 304.253 316.352 306.281 321.924 C 308.327 327.543 304.155 331.955 306.497 336.499 C 308.744 340.857 314.094 339.287 317.727 344.822 C 320.904 349.662 320.614 356.697 320.614 356.698 C 320.613 356.697 316.888 351.975 312.199 349.936 C 305.092 346.845 301.323 350.007 295.954 347.978 C 292.181 346.553 290.844 343.128 286.375 341.618 C 279.797 339.395 269.468 340.866 269.466 340.866 C 269.467 340.866 278.151 343.451 282.114 347.862 C 286.114 352.313 283.893 357.965 287.765 361.309 C 291.475 364.512 295.850 361.066 301.283 364.847 C 306.042 368.159 308.399 374.805 308.400 374.806 C 308.399 374.806 303.151 371.874 298.039 371.778 C 290.275 371.632 287.986 375.955 282.239 376.153 C 278.211 376.292 275.646 373.699 270.945 374.042 C 263.996 374.549 255.001 379.891 254.999 379.892 C 255.001 379.892 264.023 379.091 269.343 381.714 C 274.755 384.383 274.804 390.506 279.687 392.174 C 284.314 393.755 287.076 388.938 293.514 390.406 C 299.206 391.704 303.913 397.021 303.913 397.021 C 341.918 397.049 417.916 397.105 417.927 397.105 Z"/>
<path fill="none" stroke="#000000" stroke-width="4" stroke-linecap="round" stroke-linejoin="round" d="M 199.854 376.257 C 198.280 392.833 187.703 399.369 178.203 399.369 C 168.702 399.369 155.989 391.589 156.551 376.257 "/>
<path fill="none" stroke="#000000" stroke-width="4" stroke-linecap="round" stroke-linejoin="round" d="M 178.203 399.369 C 178.203 399.380 178.196 623.080 178.196 623.092 "/>
<path fill="none" stroke="#000000" stroke-width="4" stroke-linecap="round" stroke-linejoin="round" d="M 520.960 376.257 C 522.534 392.833 533.110 399.369 542.611 399.369 C 552.112 399.369 564.824 391.589 564.262 376.257 "/>
<path fill="none" stroke="#000000" stroke-width="4" stroke-linecap="round" stroke-linejoin="round" d="M 542.611 399.369 C 542.611 399.380 542.615 548.518 542.618 623.092 "/>
</g>
<g id="specs_2">
<path fill="#ff00ff" fill-rule="evenodd" stroke="none" d="M 218.977 411.435 C 219.005 411.435 500.995 411.435 501.023 411.435 C 501.023 411.406 501.023 129.416 501.023 129.388 C 500.995 129.388 219.005 129.388 218.977 129.388 C 218.977 129.416 218.977 411.406 218.977 411.435 Z"/>
<path fill="#ff0000" fill-rule="evenodd" stroke="none" d="M 360.000 680.831 C 360.001 680.834 371.953 714.301 371.955 714.305 C 371.953 714.303 360.001 703.182 360.000 703.181 C 359.999 703.182 348.047 714.303 348.045 714.305 C 348.047 714.301 359.999 680.834 360.000 680.831 Z"/>
<path fill="#0000ff" fill-rule="evenodd" stroke="none" d="M 360.000 96.836 C 360.001 96.838 366.943 116.279 366.944 116.281 C 366.943 116.280 360.001 109.820 360.000 109.820 C 359.999 109.820 353.057 116.280 353.056 116.281 C 353.057 116.279 359.999 96.838 360.000 96.836 Z"/>
<path fill="#00ff00" fill-rule="evenodd" stroke="none" d="M 230.746 262.434 C 230.748 262.433 245.977 256.907 245.979 256.906 C 245.978 256.907 240.936 262.381 240.936 262.382 C 240.936 262.383 246.033 267.806 246.034 267.806 C 246.032 267.806 230.748 262.434 230.746 262.434 Z"/>
<path fill="#ffff00" fill-rule="evenodd" stroke="none" d="M 148.755 631.223 C 148.756 631.221 157.835 611.455 157.836 611.453 C 157.836 611.454 158.314 621.435 158.314 621.436 C 158.315 621.436 168.304 621.679 168.305 621.679 C 168.303 621.680 148.757 631.222 148.755 631.223 Z"/>
<path fill="#ffff00" fill-rule="evenodd" stroke="none" d="M 571.245 630.981 C 571.244 630.979 561.770 611.399 561.769 611.397 C 561.769 611.398 561.492 621.387 561.492 621.388 C 561.491 621.388 551.508 621.830 551.507 621.830 C 551.509 621.831 571.243 630.980 571.245 630.981 Z"/>
<path fill="#00ff00" fill-rule="evenodd" stroke="none" d="M 489.254 262.434 C 489.253 262.433 474.023 256.907 474.021 256.906 C 474.022 256.907 479.064 262.381 479.065 262.382 C 479.064 262.383 473.967 267.806 473.966 267.806 C 473.968 267.806 489.253 262.434 489.254 262.434 Z"/>
<path fill="#00ffff" fill-rule="evenodd" stroke="none" d="M 483.209 98.419 C 483.208 98.421 477.071 115.750 477.070 115.752 C 477.070 115.751 475.908 107.386 475.908 107.385 C 475.907 107.385 467.480 107.941 467.479 107.941 C 467.481 107.940 483.207 98.420 483.209 98.419 Z"/>
<path fill="#00ffff" fill-rule="evenodd" stroke="none" d="M 236.791 98.993 C 236.792 98.995 244.071 115.877 244.072 115.879 C 244.072 115.878 244.674 107.453 244.674 107.452 C 244.675 107.452 253.120 107.446 253.121 107.446 C 253.119 107.445 236.793 98.994 236.791 98.993 Z"/>
<path fill="#be0027" fill-rule="evenodd" stroke="none" d="M 360.000 647.987 C 360.001 647.983 371.953 614.516 371.955 614.513 C 371.953 614.514 360.001 625.635 360.000 625.636 C 359.999 625.635 348.047 614.514 348.045 614.513 C 348.047 614.516 359.999 647.983 360.000 647.987 Z"/>
</g>
</g>
</svg>
