<?xml version="1.0" encoding="utf-8"?>
<!-- Generator: Moho 13.0.3 build 635 -->
<!DOCTYPE svg PUBLIC "-//W3C//DTD SVG 1.1//EN" "http://www.w3.org/Graphics/SVG/1.1/DTD/svg11.dtd">
<svg version="1.1" id="Frame_0" xmlns="http://www.w3.org/2000/svg" xmlns:xlink="http://www.w3.org/1999/xlink" width="720px" height="720px">
<g id="throne">
<g id="throne">
<path fill="#000000" fill-rule="evenodd" stroke="#ffffff" stroke-width="3" stroke-linecap="round" stroke-linejoin="round" d="M 273.840 403.229 C 268.125 397.511 262.411 391.793 256.696 386.076 C 256.696 386.082 256.696 454.976 256.696 454.983 C 256.697 454.983 273.911 454.945 273.913 454.945 C 273.913 454.940 273.840 403.234 273.840 403.229 M 446.087 454.945 C 446.089 454.945 463.303 454.985 463.304 454.985 C 463.304 454.978 463.304 386.082 463.304 386.076 C 457.565 391.815 451.826 397.554 446.087 403.293 C 446.087 403.298 446.087 454.940 446.087 454.945 C 446.070 454.945 273.930 454.945 273.913 454.945 C 273.930 454.945 446.070 454.945 446.087 454.945 Z"/>
<path fill="none" stroke="#ffffff" stroke-width="1" stroke-linecap="butt" stroke-linejoin="round" d="M 273.913 454.945 C 273.930 454.945 446.070 454.945 446.087 454.945 "/>
<path fill="none" stroke="#ffffff" stroke-width="1" stroke-linecap="butt" stroke-linejoin="round" d="M 446.087 454.945 C 446.087 454.940 446.087 403.298 446.087 403.293 "/>
<path fill="none" stroke="#ffffff" stroke-width="1" stroke-linecap="butt" stroke-linejoin="round" d="M 273.840 403.229 C 273.840 403.234 273.913 454.940 273.913 454.945 "/>
<path fill="#ffffff" fill-rule="evenodd" stroke="#000000" stroke-width="3" stroke-linecap="round" stroke-linejoin="round" d="M 273.913 454.945 C 273.930 454.945 446.070 454.945 446.087 454.945 C 446.087 454.940 446.087 403.298 446.087 403.293 C 446.087 403.260 446.087 76.195 446.087 76.162 C 446.085 76.164 428.871 93.378 428.870 93.380 C 428.863 93.372 360.007 17.956 360.000 17.949 C 359.993 17.956 291.137 93.372 291.130 93.380 C 291.129 93.378 273.915 76.164 273.913 76.162 C 273.913 76.195 273.840 403.196 273.840 403.229 C 273.840 403.234 273.913 454.940 273.913 454.945 Z"/>
<path fill="none" stroke="#ffffff" stroke-width="1" stroke-linecap="butt" stroke-linejoin="round" d="M 463.304 454.985 C 463.304 454.978 463.304 386.082 463.304 386.076 "/>
<path fill="#ffffff" fill-rule="evenodd" stroke="#000000" stroke-width="3" stroke-linecap="round" stroke-linejoin="round" d="M 463.304 386.076 C 463.309 386.076 514.951 386.076 514.957 386.076 C 514.957 386.100 514.957 627.095 514.957 627.119 C 514.951 627.119 463.309 627.119 463.304 627.119 C 463.304 627.102 463.304 455.002 463.304 454.985 C 463.304 454.978 463.304 386.082 463.304 386.076 Z"/>
<path fill="none" stroke="#ffffff" stroke-width="1" stroke-linecap="butt" stroke-linejoin="round" d="M 256.696 386.076 C 256.696 386.082 256.696 454.976 256.696 454.983 "/>
<path fill="#ffffff" fill-rule="evenodd" stroke="#000000" stroke-width="3" stroke-linecap="round" stroke-linejoin="round" d="M 205.043 386.076 C 205.049 386.076 256.691 386.076 256.696 386.076 C 256.696 386.082 256.696 454.976 256.696 454.983 C 256.696 455.000 256.696 627.102 256.696 627.119 C 256.691 627.119 205.049 627.119 205.043 627.119 C 205.043 627.095 205.043 386.100 205.043 386.076 Z"/>
<path fill="#000000" fill-rule="evenodd" stroke="#ffffff" stroke-width="3" stroke-linecap="round" stroke-linejoin="round" d="M 291.130 117.979 C 291.137 117.971 359.993 41.735 360.000 41.728 C 360.007 41.735 428.863 117.971 428.870 117.979 C 428.870 118.013 428.870 454.911 428.870 454.945 C 428.856 454.945 291.144 454.945 291.130 454.945 C 291.130 454.911 291.130 118.013 291.130 117.979 Z"/>
<path fill="none" stroke="#ffffff" stroke-width="1" stroke-linecap="butt" stroke-linejoin="round" d="M 256.696 454.983 C 256.697 454.983 273.911 454.945 273.913 454.945 "/>
<path fill="none" stroke="#ffffff" stroke-width="1" stroke-linecap="butt" stroke-linejoin="round" d="M 273.913 454.945 C 273.930 454.945 446.070 454.945 446.087 454.945 "/>
<path fill="none" stroke="#ffffff" stroke-width="1" stroke-linecap="butt" stroke-linejoin="round" d="M 446.087 454.945 C 446.089 454.945 463.303 454.985 463.304 454.985 "/>
<path fill="#ffffff" fill-rule="evenodd" stroke="#000000" stroke-width="3" stroke-linecap="round" stroke-linejoin="round" d="M 256.696 454.983 C 256.697 454.983 273.911 454.945 273.913 454.945 C 273.930 454.945 446.070 454.945 446.087 454.945 C 446.089 454.945 463.303 454.985 463.304 454.985 C 463.304 455.002 463.304 627.102 463.304 627.119 C 463.284 627.119 256.716 627.119 256.696 627.119 C 256.696 627.102 256.696 455.000 256.696 454.983 Z"/>
<path fill="#000000" fill-rule="evenodd" stroke="#ffffff" stroke-width="3" stroke-linecap="round" stroke-linejoin="round" d="M 273.913 609.902 C 273.913 609.888 273.913 472.176 273.913 472.163 C 273.930 472.163 446.070 472.163 446.087 472.163 C 446.087 472.176 446.087 609.888 446.087 609.902 C 446.070 609.902 273.930 609.902 273.913 609.902 M 480.522 609.902 C 480.522 609.881 480.522 403.314 480.522 403.293 C 480.524 403.293 497.737 403.293 497.739 403.293 C 497.739 403.314 497.739 609.881 497.739 609.902 C 497.737 609.902 480.524 609.902 480.522 609.902 M 222.261 609.902 C 222.261 609.881 222.261 403.314 222.261 403.293 C 222.263 403.293 239.476 403.293 239.478 403.293 C 239.478 403.314 239.478 609.881 239.478 609.902 C 239.476 609.902 222.263 609.902 222.261 609.902 Z"/>
</g>
<g id="specs_2">
<path fill="#ff00ff" fill-rule="evenodd" stroke="none" d="M 296.443 450.889 C 296.455 450.889 423.545 450.889 423.557 450.889 C 423.557 450.856 423.557 120.283 423.557 120.250 C 423.545 120.250 296.455 120.250 296.443 120.250 C 296.443 120.283 296.443 450.856 296.443 450.889 Z"/>
<path fill="#ff0000" fill-rule="evenodd" stroke="none" d="M 360.000 685.333 C 360.001 685.336 370.689 715.262 370.690 715.264 C 370.689 715.264 360.001 705.319 360.000 705.318 C 359.999 705.319 349.311 715.264 349.310 715.264 C 349.311 715.262 359.999 685.336 360.000 685.333 Z"/>
<path fill="#0000ff" fill-rule="evenodd" stroke="none" d="M 360.000 7.742 C 360.001 7.744 366.209 25.127 366.209 25.129 C 366.209 25.128 360.001 19.352 360.000 19.351 C 359.999 19.352 353.791 25.128 353.791 25.129 C 353.791 25.127 359.999 7.744 360.000 7.742 Z"/>
<path fill="#00ff00" fill-rule="evenodd" stroke="none" d="M 258.499 318.069 C 258.501 318.068 275.853 311.772 275.855 311.771 C 275.854 311.772 270.109 318.010 270.108 318.010 C 270.109 318.011 275.917 324.190 275.917 324.190 C 275.915 324.190 258.501 318.069 258.499 318.069 Z"/>
<path fill="#ffff00" fill-rule="evenodd" stroke="none" d="M 200.295 631.920 C 200.295 631.918 206.201 619.059 206.202 619.058 C 206.202 619.058 206.513 625.552 206.513 625.553 C 206.513 625.553 213.012 625.710 213.013 625.710 C 213.012 625.711 200.296 631.919 200.295 631.920 Z"/>
<path fill="#ffff00" fill-rule="evenodd" stroke="none" d="M 519.705 631.762 C 519.705 631.761 513.542 619.023 513.541 619.021 C 513.541 619.022 513.361 625.520 513.361 625.521 C 513.360 625.521 506.865 625.809 506.865 625.809 C 506.866 625.810 519.704 631.761 519.705 631.762 Z"/>
<path fill="#00ff00" fill-rule="evenodd" stroke="none" d="M 461.501 318.069 C 461.499 318.068 444.147 311.772 444.145 311.771 C 444.146 311.772 449.891 318.010 449.892 318.010 C 449.891 318.011 444.083 324.190 444.083 324.190 C 444.085 324.190 461.499 318.069 461.501 318.069 Z"/>
<path fill="#00ffff" fill-rule="evenodd" stroke="none" d="M 454.151 68.844 C 454.150 68.846 447.988 86.246 447.988 86.248 C 447.987 86.247 446.821 77.847 446.820 77.847 C 446.820 77.847 438.358 78.405 438.357 78.405 C 438.359 78.404 454.150 68.845 454.151 68.844 Z"/>
<path fill="#00ffff" fill-rule="evenodd" stroke="none" d="M 265.849 69.421 C 265.850 69.423 273.158 86.373 273.159 86.375 C 273.159 86.374 273.763 77.915 273.763 77.914 C 273.764 77.914 282.244 77.908 282.245 77.908 C 282.243 77.907 265.851 69.422 265.849 69.421 Z"/>
<path fill="#be0027" fill-rule="evenodd" stroke="none" d="M 360.000 646.657 C 360.001 646.654 370.689 616.728 370.690 616.725 C 370.689 616.726 360.001 626.670 360.000 626.671 C 359.999 626.670 349.311 616.726 349.310 616.725 C 349.311 616.728 359.999 646.654 360.000 646.657 Z"/>
<path fill="#ff00ff" fill-rule="evenodd" stroke="none" d="M 280.665 478.014 C 280.681 478.014 439.221 478.014 439.237 478.014 C 439.237 478.027 439.237 603.738 439.237 603.751 C 439.221 603.751 280.681 603.751 280.665 603.751 C 280.665 603.738 280.665 478.027 280.665 478.014 Z"/>
</g>
</g>
</svg>
