<?xml version="1.0" encoding="utf-8"?>
<!-- Generator: Moho 12.5 build 22414 -->
<!DOCTYPE svg PUBLIC "-//W3C//DTD SVG 1.1//EN" "http://www.w3.org/Graphics/SVG/1.1/DTD/svg11.dtd">
<svg version="1.1" id="Frame_0" xmlns="http://www.w3.org/2000/svg" xmlns:xlink="http://www.w3.org/1999/xlink" width="720px" height="720px">
<g id="throne_iso">
<g id="throne">
<path fill="#000000" fill-rule="evenodd" stroke="#ffffff" stroke-width="4" stroke-linejoin="round" d="M 509.944 409.863 C 466.479 385.640 423.013 361.416 379.548 337.192 C 379.548 337.185 381.666 263.791 381.666 263.784 C 424.140 287.915 466.614 312.046 509.087 336.177 C 509.087 336.184 509.944 409.856 509.944 409.863 Z"/>
<path fill="#000000" fill-rule="evenodd" stroke="#ffffff" stroke-width="4" stroke-linejoin="round" d="M 249.807 339.191 C 249.980 274.210 250.326 144.268 250.326 144.248 C 236.903 135.680 210.060 118.546 210.056 118.544 C 209.485 184.233 208.913 249.923 208.342 315.613 C 208.346 315.615 249.803 339.188 249.807 339.191 Z"/>
<path fill="#000000" fill-rule="evenodd" stroke="#ffffff" stroke-width="4" stroke-linejoin="round" d="M 165.501 540.101 C 165.501 540.081 164.930 407.579 164.644 341.318 C 164.662 341.327 337.705 438.129 337.722 438.139 C 337.722 438.159 337.722 638.615 337.722 638.635 C 337.705 638.625 165.518 540.110 165.501 540.101 Z"/>
<path fill="none" stroke="#ffffff" stroke-width="1" stroke-linecap="butt" stroke-linejoin="round" d="M 250.326 144.248 C 236.903 135.680 210.060 118.546 210.056 118.544 "/>
<path fill="#ffffff" fill-rule="evenodd" stroke="#000000" stroke-width="4" stroke-linejoin="round" d="M 274.317 26.863 C 287.741 35.289 301.165 43.714 314.588 52.140 C 314.582 52.149 250.333 144.239 250.326 144.248 C 236.903 135.680 210.060 118.546 210.056 118.544 C 210.062 118.534 274.311 26.873 274.317 26.863 Z"/>
<path fill="none" stroke="#ffffff" stroke-width="1" stroke-linecap="butt" stroke-linejoin="round" d="M 274.317 26.863 C 287.741 35.289 301.165 43.714 314.588 52.140 "/>
<path fill="#ffffff" fill-rule="evenodd" stroke="#000000" stroke-width="4" stroke-linejoin="round" d="M 314.588 52.140 C 314.594 52.141 378.844 67.989 378.850 67.991 C 365.426 59.708 338.583 43.145 338.579 43.143 C 338.573 43.141 274.324 26.865 274.317 26.863 C 287.741 35.289 301.165 43.714 314.588 52.140 Z"/>
<path fill="none" stroke="#ffffff" stroke-width="1" stroke-linecap="butt" stroke-linejoin="round" d="M 164.644 341.318 C 164.662 341.327 337.705 438.129 337.722 438.139 "/>
<path fill="none" stroke="#ffffff" stroke-width="1" stroke-linecap="butt" stroke-linejoin="round" d="M 249.807 339.191 C 249.803 339.188 208.346 315.615 208.342 315.613 "/>
<path fill="#ffffff" fill-rule="evenodd" stroke="#000000" stroke-width="4" stroke-linejoin="round" d="M 164.644 341.318 C 164.662 341.327 337.705 438.129 337.722 438.139 C 352.288 429.570 381.416 412.436 381.420 412.434 C 357.800 399.739 310.566 374.353 310.558 374.349 C 310.552 374.346 249.813 339.194 249.807 339.191 C 249.803 339.188 208.346 315.615 208.342 315.613 C 208.338 315.616 164.649 341.315 164.644 341.318 Z"/>
<path fill="none" stroke="#ffffff" stroke-width="1" stroke-linecap="butt" stroke-linejoin="round" d="M 509.087 336.177 C 466.614 312.046 424.140 287.915 381.666 263.784 "/>
<path fill="#ffffff" fill-rule="evenodd" stroke="#000000" stroke-width="4" stroke-linejoin="round" d="M 382.277 215.365 C 439.970 247.924 497.663 280.483 555.356 313.042 C 555.351 313.045 509.092 336.174 509.087 336.177 C 466.614 312.046 424.140 287.915 381.666 263.784 C 381.666 263.779 382.277 215.369 382.277 215.365 Z"/>
<path fill="none" stroke="#ffffff" stroke-width="1" stroke-linecap="butt" stroke-linejoin="round" d="M 337.722 438.139 C 337.722 438.159 337.722 638.615 337.722 638.635 "/>
<path fill="none" stroke="#ffffff" stroke-width="1" stroke-linecap="butt" stroke-linejoin="round" d="M 555.356 313.042 C 555.351 313.045 509.092 336.174 509.087 336.177 "/>
<path fill="none" stroke="#ffffff" stroke-width="1" stroke-linecap="butt" stroke-linejoin="round" d="M 509.087 336.177 C 509.087 336.184 509.944 409.856 509.944 409.863 "/>
<path fill="none" stroke="#ffffff" stroke-width="1" stroke-linecap="butt" stroke-linejoin="round" d="M 381.420 412.434 C 381.416 412.436 352.288 429.570 337.722 438.139 "/>
<path fill="#ffffff" fill-rule="evenodd" stroke="#000000" stroke-width="4" stroke-linejoin="round" d="M 337.722 438.139 C 337.722 438.159 337.722 638.615 337.722 638.635 C 409.981 597.222 554.477 514.408 554.499 514.396 C 554.499 514.376 555.356 313.063 555.356 313.042 C 555.351 313.045 509.092 336.174 509.087 336.177 C 509.087 336.184 509.944 409.856 509.944 409.863 C 509.931 409.871 381.433 484.400 381.420 484.407 C 381.420 484.400 381.420 412.441 381.420 412.434 C 381.416 412.436 352.288 429.570 337.722 438.139 Z"/>
<path fill="none" stroke="#ffffff" stroke-width="1" stroke-linecap="butt" stroke-linejoin="round" d="M 310.558 374.349 C 310.552 374.346 249.813 339.194 249.807 339.191 "/>
<path fill="none" stroke="#ffffff" stroke-width="1" stroke-linecap="butt" stroke-linejoin="round" d="M 249.807 339.191 C 249.980 274.210 250.326 144.268 250.326 144.248 "/>
<path fill="none" stroke="#ffffff" stroke-width="1" stroke-linecap="butt" stroke-linejoin="round" d="M 250.326 144.248 C 250.333 144.239 314.582 52.149 314.588 52.140 "/>
<path fill="none" stroke="#ffffff" stroke-width="1" stroke-linecap="butt" stroke-linejoin="round" d="M 314.588 52.140 C 314.594 52.141 378.844 67.989 378.850 67.991 "/>
<path fill="none" stroke="#ffffff" stroke-width="1" stroke-linecap="butt" stroke-linejoin="round" d="M 382.277 215.365 C 382.277 215.369 381.666 263.779 381.666 263.784 "/>
<path fill="none" stroke="#ffffff" stroke-width="1" stroke-linecap="butt" stroke-linejoin="round" d="M 381.666 263.784 C 381.666 263.791 379.548 337.185 379.548 337.192 "/>
<path fill="#ffffff" fill-rule="evenodd" stroke="#000000" stroke-width="4" stroke-linejoin="round" d="M 379.548 337.192 C 379.541 337.196 333.555 361.964 310.558 374.349 C 310.552 374.346 249.813 339.194 249.807 339.191 C 249.980 274.210 250.326 144.268 250.326 144.248 C 250.333 144.239 314.582 52.149 314.588 52.140 C 314.594 52.141 378.844 67.989 378.850 67.991 C 378.850 68.006 382.277 215.350 382.277 215.365 C 382.277 215.369 381.666 263.779 381.666 263.784 C 381.666 263.791 379.548 337.185 379.548 337.192 Z"/>
<path fill="none" stroke="#ffffff" stroke-width="1" stroke-linecap="butt" stroke-linejoin="round" d="M 381.420 412.434 C 357.800 399.739 310.566 374.353 310.558 374.349 "/>
<path fill="none" stroke="#ffffff" stroke-width="1" stroke-linecap="butt" stroke-linejoin="round" d="M 310.558 374.349 C 333.555 361.964 379.541 337.196 379.548 337.192 "/>
<path fill="none" stroke="#ffffff" stroke-width="1" stroke-linecap="butt" stroke-linejoin="round" d="M 379.548 337.192 C 423.013 361.416 466.479 385.640 509.944 409.863 "/>
<path fill="none" stroke="#ffffff" stroke-width="1" stroke-linecap="butt" stroke-linejoin="round" d="M 509.944 409.863 C 509.931 409.871 381.433 484.400 381.420 484.407 "/>
<path fill="none" stroke="#ffffff" stroke-width="1" stroke-linecap="butt" stroke-linejoin="round" d="M 381.420 484.407 C 381.420 484.400 381.420 412.441 381.420 412.434 "/>
<path fill="#ffffff" fill-rule="evenodd" stroke="#000000" stroke-width="4" stroke-linejoin="round" d="M 381.420 412.434 C 357.800 399.739 310.566 374.353 310.558 374.349 C 333.555 361.964 379.541 337.196 379.548 337.192 C 423.013 361.416 466.479 385.640 509.944 409.863 C 509.931 409.871 381.433 484.400 381.420 484.407 C 381.420 484.400 381.420 412.441 381.420 412.434 Z"/>
</g>
<g id="specs_2">
<path fill="#ff00ff" fill-rule="evenodd" stroke="none" d="M 291.939 401.784 C 291.959 401.784 490.328 401.784 490.348 401.784 C 490.348 401.764 490.348 203.394 490.348 203.374 C 490.328 203.374 291.959 203.374 291.939 203.374 C 291.939 203.394 291.939 401.764 291.939 401.784 Z"/>
<path fill="#ff0000" fill-rule="evenodd" stroke="none" d="M 338.589 678.279 C 338.590 678.283 351.020 713.089 351.022 713.092 C 351.020 713.091 338.590 701.525 338.589 701.524 C 338.587 701.525 326.157 713.091 326.156 713.092 C 326.157 713.089 338.587 678.283 338.589 678.279 Z"/>
<path fill="#0000ff" fill-rule="evenodd" stroke="none" d="M 293.820 24.584 C 293.820 24.586 301.041 44.805 301.042 44.807 C 301.041 44.806 293.820 38.088 293.820 38.087 C 293.819 38.088 286.598 44.806 286.598 44.807 C 286.598 44.805 293.819 24.586 293.820 24.584 Z"/>
<path fill="#00ff00" fill-rule="evenodd" stroke="none" d="M 180.173 332.972 C 180.176 332.968 212.494 294.529 212.497 294.526 C 212.497 294.528 207.447 317.040 207.447 317.042 C 207.449 317.043 229.537 323.700 229.539 323.701 C 229.534 323.702 180.178 332.971 180.173 332.972 Z"/>
<path fill="#ffff00" fill-rule="evenodd" stroke="none" d="M 168.311 561.659 C 168.312 561.656 179.504 537.287 179.505 537.284 C 179.506 537.286 180.095 549.591 180.095 549.593 C 180.096 549.593 192.412 549.891 192.413 549.891 C 192.411 549.892 168.313 561.658 168.311 561.659 Z"/>
<path fill="#ffff00" fill-rule="evenodd" stroke="none" d="M 556.057 530.217 C 556.055 530.214 544.376 506.074 544.375 506.071 C 544.375 506.073 544.033 518.388 544.033 518.389 C 544.031 518.389 531.724 518.935 531.722 518.935 C 531.725 518.936 556.054 530.216 556.057 530.217 Z"/>
<path fill="#be0027" fill-rule="evenodd" stroke="none" d="M 338.589 658.710 C 338.590 658.707 351.020 623.901 351.022 623.898 C 351.020 623.899 338.590 635.465 338.589 635.466 C 338.587 635.465 326.157 623.899 326.156 623.898 C 326.157 623.901 338.587 658.707 338.589 658.710 Z"/>
<path fill="#00ff00" fill-rule="evenodd" stroke="none" d="M 407.118 201.945 C 407.113 201.946 357.665 210.715 357.660 210.716 C 357.662 210.717 379.683 217.599 379.685 217.600 C 379.685 217.602 374.406 240.060 374.406 240.062 C 374.409 240.058 407.115 201.949 407.118 201.945 Z"/>
</g>
</g>
</svg>
