<?xml version="1.0" encoding="utf-8"?>
<!-- Generator: Moho 13.5.1 build 20210623 -->
<!DOCTYPE svg PUBLIC "-//W3C//DTD SVG 1.1//EN" "http://www.w3.org/Graphics/SVG/1.1/DTD/svg11.dtd">
<svg version="1.1" id="Frame_0" xmlns="http://www.w3.org/2000/svg" xmlns:xlink="http://www.w3.org/1999/xlink" width="720px" height="720px">
<g id="tower2">
<g id="tower2">
<linearGradient id="2EC80C40-756F-42D8-8DDE-4B48254CDE2D_0" x1="-18.75%" y1="50.81%" x2="116.53%" y2="50.81%">
<stop offset="0.39%" style="stop-color:rgb(0,0,0);stop-opacity:1.00" />
<stop offset="30.20%" style="stop-color:rgb(255,255,255);stop-opacity:1.00" />
<stop offset="67.06%" style="stop-color:rgb(255,255,255);stop-opacity:1.00" />
<stop offset="100.00%" style="stop-color:rgb(0,0,0);stop-opacity:1.00" />
</linearGradient>
<path id="S2" fill="url(#2EC80C40-756F-42D8-8DDE-4B48254CDE2D_0)" fill-rule="evenodd" stroke="#000000" stroke-width="4" stroke-linecap="round" stroke-linejoin="round" d="M 229.314 233.209 C 229.341 233.209 494.227 233.209 494.253 233.209 C 494.253 233.253 494.253 672.247 494.253 672.291 C 494.227 672.291 229.341 672.291 229.314 672.291 C 229.314 672.247 229.314 233.253 229.314 233.209 Z"/>
<path fill="#000000" fill-rule="evenodd" stroke="none" d="M 304.222 324.649 C 305.336 291.973 328.921 269.334 359.538 269.333 C 390.155 269.333 412.225 287.927 414.856 324.649 C 416.550 348.295 414.999 436.135 414.999 436.146 C 414.988 436.146 306.617 436.396 306.606 436.396 C 306.606 436.385 303.380 349.361 304.222 324.649 M 304.222 549.327 C 302.974 516.656 328.921 494.011 359.538 494.011 C 390.155 494.011 414.894 512.512 414.856 549.327 C 414.829 574.694 414.999 660.814 414.999 660.825 C 414.988 660.825 306.617 661.075 306.606 661.075 C 306.606 661.064 305.101 572.319 304.222 549.327 Z"/>
<linearGradient id="2EC80C40-756F-42D8-8DDE-4B48254CDE2D_2" x1="50.44%" y1="-51.06%" x2="50.44%" y2="348.37%">
<stop offset="0.39%" style="stop-color:rgb(0,0,0);stop-opacity:1.00" />
<stop offset="53.73%" style="stop-color:rgb(255,255,255);stop-opacity:1.00" />
</linearGradient>
<path id="S3" fill="url(#2EC80C40-756F-42D8-8DDE-4B48254CDE2D_2)" fill-rule="evenodd" stroke="#000000" stroke-width="4" stroke-linecap="round" stroke-linejoin="round" d="M 360.000 108.432 C 360.014 108.443 495.009 227.793 495.023 227.805 C 494.996 227.805 225.004 227.805 224.977 227.805 C 224.991 227.793 359.987 108.443 360.000 108.432 Z"/>
<linearGradient id="2EC80C40-756F-42D8-8DDE-4B48254CDE2D_3" x1="-18.85%" y1="55.66%" x2="118.20%" y2="55.66%">
<stop offset="0.39%" style="stop-color:rgb(0,0,0);stop-opacity:1.00" />
<stop offset="30.20%" style="stop-color:rgb(255,255,255);stop-opacity:1.00" />
<stop offset="67.06%" style="stop-color:rgb(255,255,255);stop-opacity:1.00" />
<stop offset="100.00%" style="stop-color:rgb(0,0,0);stop-opacity:1.00" />
</linearGradient>
<path id="S4" fill="url(#2EC80C40-756F-42D8-8DDE-4B48254CDE2D_3)" fill-rule="evenodd" stroke="#000000" stroke-width="4" stroke-linecap="round" stroke-linejoin="round" d="M 324.293 135.369 C 324.293 135.365 324.293 91.479 324.293 91.475 C 324.300 91.475 394.416 91.475 394.423 91.475 C 394.423 91.479 394.423 135.365 394.423 135.369 C 394.420 135.366 359.692 103.541 359.689 103.537 C 359.685 103.541 324.296 135.366 324.293 135.369 M 321.092 89.649 C 321.092 68.732 337.965 51.858 358.882 51.858 C 379.798 51.858 396.671 68.732 396.671 89.649 C 386.773 89.533 328.979 89.491 321.092 89.649 Z"/>
<radialGradient id="2EC80C40-756F-42D8-8DDE-4B48254CDE2D_4" cx="50.00%" cy="50.00%" r="86.43%">
<stop offset="28.63%" style="stop-color:rgb(255,255,255);stop-opacity:1.00" />
<stop offset="100.00%" style="stop-color:rgb(0,0,0);stop-opacity:1.00" />
</radialGradient>
<path id="S5" fill="url(#2EC80C40-756F-42D8-8DDE-4B48254CDE2D_4)" fill-rule="evenodd" stroke="#000000" stroke-width="4" stroke-linecap="round" stroke-linejoin="round" d="M 359.185 49.943 C 366.491 49.943 372.384 44.050 372.384 36.744 C 372.384 29.439 366.491 23.545 359.185 23.545 C 351.880 23.545 345.986 29.438 345.986 36.744 C 345.986 44.050 351.880 49.944 359.185 49.943 Z"/>
</g>
<g id="specs">
<path fill="#ff00ff" fill-rule="evenodd" stroke="none" d="M 305.616 406.228 C 305.627 406.228 414.373 406.228 414.384 406.228 C 414.384 406.217 414.384 297.470 414.384 297.459 C 414.373 297.459 305.627 297.459 305.616 297.459 C 305.616 297.470 305.616 406.217 305.616 406.228 Z"/>
<path fill="#ff0000" fill-rule="evenodd" stroke="none" d="M 360.000 680.139 C 360.001 680.142 372.432 714.948 372.433 714.952 C 372.432 714.950 360.001 703.385 360.000 703.383 C 359.999 703.385 347.568 714.950 347.567 714.952 C 347.568 714.948 359.999 680.142 360.000 680.139 Z"/>
<path fill="#0000ff" fill-rule="evenodd" stroke="none" d="M 360.000 9.758 C 360.001 9.760 367.221 29.979 367.222 29.981 C 367.221 29.980 360.001 23.261 360.000 23.260 C 359.999 23.261 352.779 29.980 352.778 29.981 C 352.779 29.979 359.999 9.760 360.000 9.758 Z"/>
<path fill="#00ff00" fill-rule="evenodd" stroke="none" d="M 213.577 348.923 C 213.579 348.922 233.761 341.599 233.763 341.598 C 233.762 341.599 227.080 348.854 227.080 348.855 C 227.080 348.855 233.835 356.042 233.835 356.043 C 233.833 356.042 213.579 348.923 213.577 348.923 Z"/>
<path fill="#ffff00" fill-rule="evenodd" stroke="none" d="M 222.459 677.818 C 222.460 677.816 231.421 658.307 231.422 658.305 C 231.422 658.306 231.894 668.157 231.894 668.158 C 231.895 668.158 241.754 668.397 241.755 668.397 C 241.753 668.398 222.461 677.817 222.459 677.818 Z"/>
<path fill="#ffff00" fill-rule="evenodd" stroke="none" d="M 500.948 677.579 C 500.947 677.577 491.597 658.251 491.596 658.249 C 491.596 658.250 491.322 668.109 491.322 668.110 C 491.321 668.110 481.468 668.547 481.467 668.547 C 481.469 668.548 500.946 677.578 500.948 677.579 Z"/>
<path fill="#00ff00" fill-rule="evenodd" stroke="none" d="M 509.551 348.923 C 509.549 348.922 489.367 341.599 489.365 341.598 C 489.366 341.599 496.048 348.854 496.048 348.855 C 496.048 348.855 489.293 356.042 489.293 356.043 C 489.295 356.042 509.549 348.923 509.551 348.923 Z"/>
<path fill="#00ffff" fill-rule="evenodd" stroke="none" d="M 447.301 168.090 C 447.301 168.092 440.133 188.330 440.133 188.332 C 440.133 188.331 438.775 178.562 438.775 178.561 C 438.774 178.561 428.933 179.211 428.932 179.211 C 428.934 179.209 447.299 168.092 447.301 168.090 Z"/>
<path fill="#00ffff" fill-rule="evenodd" stroke="none" d="M 271.769 168.761 C 271.770 168.763 280.271 188.478 280.272 188.480 C 280.272 188.479 280.974 178.641 280.975 178.640 C 280.976 178.640 290.838 178.632 290.839 178.632 C 290.837 178.631 271.771 168.762 271.769 168.761 Z"/>
<path fill="#be0027" fill-rule="evenodd" stroke="none" d="M 359.957 685.776 C 359.958 685.774 369.002 660.450 369.003 660.447 C 369.002 660.448 359.958 668.863 359.957 668.864 C 359.957 668.863 350.913 660.448 350.912 660.447 C 350.913 660.450 359.957 685.774 359.957 685.776 Z"/>
</g>
</g>
</svg>
