<?xml version="1.0" encoding="utf-8"?>
<!-- Generator: Moho 13.5 build 20210422 -->
<!DOCTYPE svg PUBLIC "-//W3C//DTD SVG 1.1//EN" "http://www.w3.org/Graphics/SVG/1.1/DTD/svg11.dtd">
<svg version="1.1" id="Frame_0" xmlns="http://www.w3.org/2000/svg" xmlns:xlink="http://www.w3.org/1999/xlink" width="720px" height="720px">
<g id="gradients">
</g>
<g id="BW_gradients">
<g id="tree3">
<radialGradient id="253AAAEA-27F0-46F8-843A-B4A8E9D5233A_0" cx="50.21%" cy="54.28%" r="63.19%">
<stop offset="37.65%" style="stop-color:rgb(255,255,255);stop-opacity:1.00" />
<stop offset="90.59%" style="stop-color:rgb(0,0,0);stop-opacity:1.00" />
</radialGradient>
<path fill="url(#253AAAEA-27F0-46F8-843A-B4A8E9D5233A_0)" fill-rule="evenodd" stroke="none" d="M 360.000 9.479 C 360.022 9.523 639.277 216.190 579.984 446.590 C 545.544 580.416 439.312 626.576 360.000 626.576 C 280.688 626.576 174.456 580.416 140.016 446.590 C 80.723 216.190 359.978 9.523 360.000 9.479 Z"/>
<path id="S2" fill="#000000" fill-rule="evenodd" stroke="none" d="M 350.865 219.383 C 350.866 219.365 357.905 40.000 360.000 40.000 C 362.131 40.000 366.090 159.588 369.135 219.383 C 369.145 219.375 470.522 145.994 471.249 146.939 C 472.063 147.995 403.539 210.179 369.684 241.799 C 371.056 284.509 372.428 327.219 373.800 369.928 C 428.040 336.981 535.566 269.550 536.520 271.085 C 537.565 272.768 374.321 400.312 374.305 400.325 C 374.305 400.337 376.702 524.261 376.702 524.274 C 376.720 524.266 555.433 440.611 556.195 442.322 C 557.022 444.181 377.312 557.836 377.339 558.230 C 375.004 600.704 380.000 699.986 380.000 700.000 C 379.996 700.000 340.004 700.000 340.000 700.000 C 340.000 699.986 342.868 557.984 342.868 557.970 C 283.180 519.420 162.974 444.180 163.805 442.321 C 164.573 440.606 343.505 525.524 343.523 525.533 C 343.523 525.520 345.255 442.376 346.120 400.798 C 290.230 357.561 177.416 272.820 178.450 271.085 C 179.406 269.480 346.510 370.253 346.527 370.263 C 347.816 327.469 349.105 284.675 350.395 241.881 C 316.513 210.234 247.938 147.996 248.751 146.939 C 249.477 145.994 350.855 219.375 350.865 219.383 Z"/>
</g>
<g id="specs">
<path fill="#ff00ff" fill-rule="evenodd" stroke="none" d="M 223.420 496.580 C 223.447 496.580 496.553 496.580 496.580 496.580 C 496.580 496.553 496.580 223.447 496.580 223.420 C 496.553 223.420 223.447 223.420 223.420 223.420 C 223.420 223.447 223.420 496.553 223.420 496.580 Z"/>
<path fill="#ff0000" fill-rule="evenodd" stroke="none" d="M 360.000 680.000 C 360.001 680.003 372.416 714.766 372.417 714.770 C 372.416 714.768 360.001 703.217 360.000 703.216 C 359.999 703.217 347.584 714.768 347.583 714.770 C 347.584 714.766 359.999 680.003 360.000 680.000 Z"/>
<path fill="#0000ff" fill-rule="evenodd" stroke="none" d="M 360.000 18.197 C 360.001 18.199 367.212 38.392 367.213 38.394 C 367.212 38.394 360.001 31.684 360.000 31.683 C 359.999 31.684 352.788 38.394 352.787 38.394 C 352.788 38.392 359.999 18.199 360.000 18.197 Z"/>
<path fill="#00ff00" fill-rule="evenodd" stroke="none" d="M 18.822 361.002 C 18.824 361.002 38.981 353.687 38.983 353.687 C 38.982 353.687 32.308 360.933 32.308 360.934 C 32.308 360.935 39.055 368.112 39.055 368.113 C 39.053 368.112 18.824 361.003 18.822 361.002 Z"/>
<path fill="#ffff00" fill-rule="evenodd" stroke="none" d="M 118.004 603.196 C 118.005 603.194 126.954 583.709 126.955 583.707 C 126.955 583.708 127.426 593.548 127.426 593.549 C 127.427 593.549 137.274 593.787 137.275 593.787 C 137.273 593.788 118.006 603.195 118.004 603.196 Z"/>
<path fill="#ffff00" fill-rule="evenodd" stroke="none" d="M 601.996 602.958 C 601.995 602.956 592.657 583.654 592.656 583.652 C 592.656 583.653 592.383 593.500 592.383 593.501 C 592.382 593.501 582.540 593.937 582.539 593.937 C 582.541 593.938 601.994 602.957 601.996 602.958 Z"/>
<path fill="#00ff00" fill-rule="evenodd" stroke="none" d="M 701.178 361.002 C 701.176 361.002 681.019 353.687 681.017 353.687 C 681.018 353.687 687.692 360.933 687.692 360.934 C 687.692 360.935 680.945 368.112 680.945 368.113 C 680.947 368.112 701.176 361.003 701.178 361.002 Z"/>
<path fill="#00ffff" fill-rule="evenodd" stroke="none" d="M 601.061 118.017 C 601.060 118.019 593.902 138.231 593.901 138.233 C 593.901 138.232 592.546 128.475 592.546 128.474 C 592.545 128.474 582.716 129.123 582.715 129.123 C 582.717 129.122 601.059 118.018 601.061 118.017 Z"/>
<path fill="#00ffff" fill-rule="evenodd" stroke="none" d="M 119.051 118.687 C 119.051 118.689 127.541 138.379 127.542 138.381 C 127.542 138.380 128.244 128.554 128.244 128.553 C 128.245 128.553 138.095 128.546 138.096 128.546 C 138.094 128.545 119.052 118.688 119.051 118.687 Z"/>
<path fill="#be0027" fill-rule="evenodd" stroke="none" d="M 360.000 694.007 C 360.001 694.004 372.416 659.241 372.417 659.238 C 372.416 659.239 360.001 670.790 360.000 670.792 C 359.999 670.790 347.584 659.239 347.583 659.238 C 347.584 659.241 359.999 694.004 360.000 694.007 Z"/>
</g>
</g>
</svg>
