<?xml version="1.0" encoding="utf-8"?>
<!-- Generator: Moho 13.5 build 20210422 -->
<!DOCTYPE svg PUBLIC "-//W3C//DTD SVG 1.1//EN" "http://www.w3.org/Graphics/SVG/1.1/DTD/svg11.dtd">
<svg version="1.1" id="Frame_0" xmlns="http://www.w3.org/2000/svg" xmlns:xlink="http://www.w3.org/1999/xlink" width="720px" height="720px">
<g id="gradients">
</g>
<g id="BW_gradients">
<g id="tree2">
<radialGradient id="8770577A-179E-4D2B-BA85-FC9591D8E9B5_0" cx="49.99%" cy="71.26%" r="99.31%">
<stop offset="10.59%" style="stop-color:rgb(255,255,255);stop-opacity:1.00" />
<stop offset="100.00%" style="stop-color:rgb(0,0,0);stop-opacity:1.00" />
</radialGradient>
<path id="S1" fill="url(#8770577A-179E-4D2B-BA85-FC9591D8E9B5_0)" fill-rule="evenodd" stroke="none" d="M 360.000 546.962 C 504.834 546.962 621.672 430.124 621.672 285.291 C 621.672 140.457 504.834 23.619 360.000 23.619 C 215.166 23.619 98.328 140.457 98.328 285.291 C 98.328 430.124 215.166 546.962 360.000 546.962 Z"/>
<path id="S2" fill="#000000" fill-rule="evenodd" stroke="none" d="M 341.133 417.525 C 342.938 357.054 344.744 296.582 346.550 236.111 C 301.966 214.996 212.449 174.142 212.798 172.767 C 213.126 171.475 347.195 211.929 347.208 211.933 C 347.209 211.916 357.989 40.000 360.000 40.000 C 362.046 40.000 368.528 154.622 372.792 211.933 C 372.805 211.929 506.873 171.475 507.202 172.766 C 507.552 174.141 418.108 214.898 373.561 235.963 C 375.482 296.290 377.403 356.617 379.324 416.944 C 379.344 416.937 570.739 343.403 571.381 345.240 C 572.074 347.221 380.050 453.250 380.031 453.261 C 380.031 453.285 383.318 699.975 383.318 700.000 C 383.313 700.000 336.687 700.000 336.682 700.000 C 336.682 699.975 339.270 536.055 340.564 454.083 C 276.582 417.802 147.922 347.223 148.619 345.240 C 149.272 343.382 341.114 417.518 341.133 417.525 Z"/>
</g>
<g id="specs">
<path fill="#ff00ff" fill-rule="evenodd" stroke="none" d="M 223.420 496.580 C 223.447 496.580 496.553 496.580 496.580 496.580 C 496.580 496.553 496.580 223.447 496.580 223.420 C 496.553 223.420 223.447 223.420 223.420 223.420 C 223.420 223.447 223.420 496.553 223.420 496.580 Z"/>
<path fill="#ff0000" fill-rule="evenodd" stroke="none" d="M 360.000 677.423 C 360.001 677.427 372.416 712.189 372.417 712.193 C 372.416 712.192 360.001 700.640 360.000 700.639 C 359.999 700.640 347.584 712.192 347.583 712.193 C 347.584 712.189 359.999 677.427 360.000 677.423 Z"/>
<path fill="#0000ff" fill-rule="evenodd" stroke="none" d="M 360.000 18.197 C 360.001 18.199 367.212 38.392 367.213 38.394 C 367.212 38.394 360.001 31.684 360.000 31.683 C 359.999 31.684 352.788 38.394 352.787 38.394 C 352.788 38.392 359.999 18.199 360.000 18.197 Z"/>
<path fill="#00ff00" fill-rule="evenodd" stroke="none" d="M 18.822 361.002 C 18.824 361.002 38.981 353.687 38.983 353.687 C 38.982 353.687 32.308 360.933 32.308 360.934 C 32.308 360.935 39.055 368.112 39.055 368.113 C 39.053 368.112 18.824 361.003 18.822 361.002 Z"/>
<path fill="#ffff00" fill-rule="evenodd" stroke="none" d="M 118.004 603.196 C 118.005 603.194 126.954 583.709 126.955 583.707 C 126.955 583.708 127.426 593.548 127.426 593.549 C 127.427 593.549 137.274 593.787 137.275 593.787 C 137.273 593.788 118.006 603.195 118.004 603.196 Z"/>
<path fill="#ffff00" fill-rule="evenodd" stroke="none" d="M 601.996 602.958 C 601.995 602.956 592.657 583.654 592.656 583.652 C 592.656 583.653 592.383 593.500 592.383 593.501 C 592.382 593.501 582.540 593.937 582.539 593.937 C 582.541 593.938 601.994 602.957 601.996 602.958 Z"/>
<path fill="#00ff00" fill-rule="evenodd" stroke="none" d="M 701.178 361.002 C 701.176 361.002 681.019 353.687 681.017 353.687 C 681.018 353.687 687.692 360.933 687.692 360.934 C 687.692 360.935 680.945 368.112 680.945 368.113 C 680.947 368.112 701.176 361.003 701.178 361.002 Z"/>
<path fill="#00ffff" fill-rule="evenodd" stroke="none" d="M 601.061 118.017 C 601.060 118.019 593.902 138.231 593.901 138.233 C 593.901 138.232 592.546 128.475 592.546 128.474 C 592.545 128.474 582.716 129.123 582.715 129.123 C 582.717 129.122 601.059 118.018 601.061 118.017 Z"/>
<path fill="#00ffff" fill-rule="evenodd" stroke="none" d="M 119.051 118.687 C 119.051 118.689 127.541 138.379 127.542 138.381 C 127.542 138.380 128.244 128.554 128.244 128.553 C 128.245 128.553 138.095 128.546 138.096 128.546 C 138.094 128.545 119.052 118.688 119.051 118.687 Z"/>
<path fill="#be0027" fill-rule="evenodd" stroke="none" d="M 360.000 691.430 C 360.001 691.427 372.416 656.664 372.417 656.661 C 372.416 656.662 360.001 668.214 360.000 668.215 C 359.999 668.214 347.584 656.662 347.583 656.661 C 347.584 656.664 359.999 691.427 360.000 691.430 Z"/>
</g>
</g>
</svg>
