<?xml version="1.0" encoding="utf-8"?>
<!-- Generator: Moho 13.5 build 20210422 -->
<!DOCTYPE svg PUBLIC "-//W3C//DTD SVG 1.1//EN" "http://www.w3.org/Graphics/SVG/1.1/DTD/svg11.dtd">
<svg version="1.1" id="Frame_0" xmlns="http://www.w3.org/2000/svg" xmlns:xlink="http://www.w3.org/1999/xlink" width="720px" height="720px">
<g id="gradients">
</g>
<g id="BW_gradients">
<g id="tree4">
<path id="S1" fill="#000000" fill-rule="evenodd" stroke="none" d="M 341.764 570.226 C 341.767 570.226 378.233 570.226 378.236 570.226 C 378.236 570.237 378.236 683.405 378.236 683.416 C 378.233 683.416 341.767 683.416 341.764 683.416 C 341.764 683.405 341.764 570.237 341.764 570.226 Z"/>
<linearGradient id="444F5A80-B18C-4D5B-B2AF-4A13454F335F_1" x1="50.32%" y1="94.20%" x2="50.32%" y2="-5.75%">
<stop offset="0.00%" style="stop-color:rgb(255,255,255);stop-opacity:1.00" />
<stop offset="100.00%" style="stop-color:rgb(0,0,0);stop-opacity:1.00" />
</linearGradient>
<path id="S2" fill="url(#444F5A80-B18C-4D5B-B2AF-4A13454F335F_1)" fill-rule="evenodd" stroke="#000000" stroke-width="4" stroke-linecap="round" stroke-linejoin="round" d="M 360.000 36.584 C 360.004 36.593 400.495 129.642 400.499 129.651 C 400.497 129.651 383.186 124.454 383.184 124.453 C 383.189 124.464 430.140 230.254 430.145 230.265 C 430.142 230.264 407.433 224.632 407.430 224.632 C 407.437 224.645 476.901 358.533 476.908 358.547 C 476.904 358.546 442.488 346.631 442.485 346.630 C 442.493 346.645 523.663 499.391 523.671 499.406 C 523.666 499.405 480.648 489.178 480.644 489.177 C 480.652 489.194 557.319 659.658 557.326 659.675 C 557.307 659.670 360.020 605.055 360.000 605.050 C 359.980 605.055 162.693 659.670 162.674 659.675 C 162.681 659.658 239.348 489.194 239.356 489.177 C 239.352 489.178 196.334 499.405 196.329 499.406 C 196.337 499.391 277.507 346.645 277.515 346.630 C 277.512 346.631 243.096 358.546 243.093 358.547 C 243.099 358.533 312.563 224.645 312.570 224.632 C 312.567 224.632 289.858 230.264 289.855 230.265 C 289.860 230.254 336.811 124.464 336.816 124.453 C 336.814 124.454 319.503 129.651 319.501 129.651 C 319.505 129.642 359.996 36.593 360.000 36.584 Z"/>
</g>
<g id="specs">
<path fill="#ff00ff" fill-rule="evenodd" stroke="none" d="M 223.420 496.580 C 223.447 496.580 496.553 496.580 496.580 496.580 C 496.580 496.553 496.580 223.447 496.580 223.420 C 496.553 223.420 223.447 223.420 223.420 223.420 C 223.420 223.447 223.420 496.553 223.420 496.580 Z"/>
<path fill="#ff0000" fill-rule="evenodd" stroke="none" d="M 360.000 677.423 C 360.001 677.427 372.416 712.189 372.417 712.193 C 372.416 712.192 360.001 700.640 360.000 700.639 C 359.999 700.640 347.584 712.192 347.583 712.193 C 347.584 712.189 359.999 677.427 360.000 677.423 Z"/>
<path fill="#0000ff" fill-rule="evenodd" stroke="none" d="M 360.000 18.197 C 360.001 18.199 367.212 38.392 367.213 38.394 C 367.212 38.394 360.001 31.684 360.000 31.683 C 359.999 31.684 352.788 38.394 352.787 38.394 C 352.788 38.392 359.999 18.199 360.000 18.197 Z"/>
<path fill="#00ff00" fill-rule="evenodd" stroke="none" d="M 18.822 361.002 C 18.824 361.002 38.981 353.687 38.983 353.687 C 38.982 353.687 32.308 360.933 32.308 360.934 C 32.308 360.935 39.055 368.112 39.055 368.113 C 39.053 368.112 18.824 361.003 18.822 361.002 Z"/>
<path fill="#ffff00" fill-rule="evenodd" stroke="none" d="M 118.004 603.196 C 118.005 603.194 126.954 583.709 126.955 583.707 C 126.955 583.708 127.426 593.548 127.426 593.549 C 127.427 593.549 137.274 593.787 137.275 593.787 C 137.273 593.788 118.006 603.195 118.004 603.196 Z"/>
<path fill="#ffff00" fill-rule="evenodd" stroke="none" d="M 601.996 602.958 C 601.995 602.956 592.657 583.654 592.656 583.652 C 592.656 583.653 592.383 593.500 592.383 593.501 C 592.382 593.501 582.540 593.937 582.539 593.937 C 582.541 593.938 601.994 602.957 601.996 602.958 Z"/>
<path fill="#00ff00" fill-rule="evenodd" stroke="none" d="M 701.178 361.002 C 701.176 361.002 681.019 353.687 681.017 353.687 C 681.018 353.687 687.692 360.933 687.692 360.934 C 687.692 360.935 680.945 368.112 680.945 368.113 C 680.947 368.112 701.176 361.003 701.178 361.002 Z"/>
<path fill="#00ffff" fill-rule="evenodd" stroke="none" d="M 601.061 118.017 C 601.060 118.019 593.902 138.231 593.901 138.233 C 593.901 138.232 592.546 128.475 592.546 128.474 C 592.545 128.474 582.716 129.123 582.715 129.123 C 582.717 129.122 601.059 118.018 601.061 118.017 Z"/>
<path fill="#00ffff" fill-rule="evenodd" stroke="none" d="M 119.051 118.687 C 119.051 118.689 127.541 138.379 127.542 138.381 C 127.542 138.380 128.244 128.554 128.244 128.553 C 128.245 128.553 138.095 128.546 138.096 128.546 C 138.094 128.545 119.052 118.688 119.051 118.687 Z"/>
<path fill="#be0027" fill-rule="evenodd" stroke="none" d="M 360.000 691.430 C 360.001 691.427 372.416 656.664 372.417 656.661 C 372.416 656.662 360.001 668.214 360.000 668.215 C 359.999 668.214 347.584 656.662 347.583 656.661 C 347.584 656.664 359.999 691.427 360.000 691.430 Z"/>
</g>
</g>
</svg>
