<?xml version="1.0" encoding="utf-8"?>
<!-- Generator: Moho 13.5.1 build 20210623 -->
<!DOCTYPE svg PUBLIC "-//W3C//DTD SVG 1.1//EN" "http://www.w3.org/Graphics/SVG/1.1/DTD/svg11.dtd">
<svg version="1.1" id="Frame_0" xmlns="http://www.w3.org/2000/svg" xmlns:xlink="http://www.w3.org/1999/xlink" width="720px" height="720px">
<g id="tree">
<g id="tree">
<path fill="none" stroke="#000000" stroke-width="0" stroke-linecap="round" stroke-linejoin="round" d="M 358.768 97.012 C 354.056 97.064 353.880 169.858 353.827 196.451 C 353.788 216.195 354.450 212.073 353.330 245.115 C 352.996 254.974 350.136 276.012 346.571 275.988 C 343.367 275.966 325.584 279.894 310.145 279.129 C 289.936 278.127 264.144 275.708 244.850 264.999 C 229.230 256.327 216.948 238.638 207.107 225.543 C 202.310 219.159 197.144 209.779 193.397 202.727 "/>
<path fill="none" stroke="#000000" stroke-width="0" stroke-linecap="round" stroke-linejoin="round" d="M 524.821 193.534 C 524.405 194.589 514.241 217.624 510.340 223.749 C 502.642 235.836 493.146 250.571 480.629 261.149 C 466.457 273.126 430.308 275.813 404.943 278.415 C 392.370 279.705 375.300 276.316 371.166 275.520 C 368.105 274.930 365.832 254.835 365.702 245.229 C 365.241 211.298 364.813 200.509 364.655 196.182 C 363.638 168.324 364.080 96.954 358.768 97.012 "/>
<path fill="#ffffff" fill-rule="evenodd" stroke="#000000" stroke-width="4" stroke-linecap="round" stroke-linejoin="round" d="M 431.955 124.157 C 431.960 124.158 461.476 136.959 479.753 131.939 C 498.030 126.919 516.866 100.837 516.870 100.833 C 516.865 100.833 487.349 88.031 469.072 93.051 C 450.795 98.071 431.959 124.154 431.955 124.157 M 287.324 128.157 C 287.319 128.158 257.582 140.436 239.397 135.095 C 221.211 129.753 202.838 103.342 202.834 103.339 C 202.839 103.338 232.578 91.060 250.763 96.402 C 268.948 101.743 287.321 128.154 287.324 128.157 M 472.131 267.243 C 472.127 267.240 443.230 252.399 435.734 234.870 C 428.255 217.379 437.458 186.302 437.458 186.297 C 437.461 186.301 465.866 201.408 473.329 218.830 C 480.792 236.253 472.131 267.238 472.131 267.243 M 404.314 191.364 C 404.311 191.368 380.538 213.047 377.629 231.775 C 374.719 250.504 390.792 278.374 390.793 278.379 C 390.796 278.375 414.568 256.696 417.478 237.967 C 420.388 219.239 404.315 191.368 404.314 191.364 M 429.293 82.481 C 429.288 82.482 397.117 82.778 382.456 94.791 C 367.796 106.804 361.182 138.290 361.179 138.294 C 361.184 138.293 393.356 137.997 408.016 125.984 C 422.677 113.971 429.291 82.485 429.293 82.481 M 444.036 288.723 C 444.038 288.727 453.147 319.583 468.720 330.386 C 484.294 341.190 516.387 338.913 516.392 338.914 C 516.389 338.910 507.280 308.053 491.706 297.250 C 476.133 286.447 444.040 288.723 444.036 288.723 M 513.863 217.949 C 513.862 217.945 512.975 185.784 500.696 171.346 C 488.416 156.909 456.814 150.873 456.810 150.871 C 456.811 150.875 457.697 183.036 469.977 197.474 C 482.257 211.912 513.858 217.947 513.863 217.949 M 363.006 176.567 C 363.010 176.568 392.527 189.369 410.803 184.349 C 429.080 179.329 447.916 153.246 447.920 153.244 C 447.915 153.243 418.398 140.441 400.122 145.461 C 381.845 150.482 363.009 176.564 363.006 176.567 M 446.176 361.312 C 446.174 361.307 442.747 329.317 429.363 315.896 C 415.980 302.476 384.000 298.959 383.995 298.957 C 383.997 298.962 387.424 330.952 400.807 344.373 C 414.191 357.794 446.172 361.310 446.176 361.312 M 576.341 278.306 C 576.338 278.303 553.127 256.023 534.246 254.363 C 515.366 252.703 488.624 270.590 488.619 270.591 C 488.624 270.594 511.833 292.875 530.714 294.536 C 549.595 296.196 576.337 278.308 576.341 278.306 M 597.631 196.622 C 597.626 196.622 566.570 188.216 549.209 195.822 C 531.849 203.428 516.974 231.956 516.971 231.960 C 516.976 231.960 548.032 240.367 565.392 232.760 C 582.753 225.155 597.627 196.626 597.631 196.622 M 542.280 105.798 C 542.278 105.802 518.324 127.281 515.257 145.986 C 512.191 164.689 528.030 192.693 528.031 192.698 C 528.034 192.694 551.987 171.214 555.054 152.510 C 558.121 133.807 542.282 105.803 542.280 105.798 M 361.367 14.102 C 361.365 14.106 340.525 38.617 340.007 57.563 C 339.488 76.510 358.957 102.124 358.959 102.129 C 358.961 102.125 379.801 77.613 380.319 58.667 C 380.838 39.720 361.369 14.106 361.367 14.102 M 270.180 358.594 C 270.185 358.593 302.945 357.400 317.190 344.520 C 331.248 331.810 335.722 299.788 335.723 299.784 C 335.719 299.785 303.593 301.523 289.485 314.181 C 275.378 326.839 270.182 358.589 270.180 358.594 M 316.934 190.899 C 316.937 190.904 338.454 214.822 339.502 233.746 C 340.550 252.671 321.805 278.820 321.803 278.825 C 321.801 278.820 300.284 254.901 299.236 235.976 C 298.189 217.052 316.933 190.904 316.934 190.899 M 287.186 82.565 C 287.191 82.567 319.362 82.824 334.038 94.819 C 348.712 106.815 355.364 138.293 355.366 138.298 C 355.361 138.296 323.189 138.039 308.515 126.043 C 293.840 114.048 287.188 82.570 287.186 82.565 M 290.160 191.906 C 290.159 191.910 294.543 223.784 284.788 240.034 C 275.034 256.285 244.844 267.405 244.840 267.408 C 244.840 267.404 240.457 235.530 250.212 219.279 C 259.966 203.029 290.156 191.908 290.160 191.906 M 205.700 226.673 C 205.701 226.669 201.907 194.720 211.959 178.653 C 222.012 162.585 252.403 152.023 252.406 152.021 C 252.406 152.026 256.200 183.974 246.147 200.042 C 236.094 216.110 205.705 226.670 205.700 226.673 M 353.362 177.373 C 353.357 177.374 323.620 189.652 305.435 184.310 C 287.249 178.969 268.875 152.558 268.872 152.555 C 268.877 152.554 298.615 140.276 316.800 145.618 C 334.985 150.960 353.358 177.370 353.362 177.373 M 175.104 107.783 C 175.107 107.787 198.362 130.018 200.831 148.810 C 203.300 167.602 186.576 195.088 186.574 195.092 C 186.572 195.088 163.316 172.856 160.848 154.064 C 158.379 135.272 175.103 107.788 175.104 107.783 M 201.940 339.552 C 201.942 339.548 212.094 309.018 228.025 298.750 C 243.956 288.483 275.953 291.848 275.958 291.847 C 275.956 291.851 265.804 322.381 249.873 332.649 C 233.941 342.917 201.944 339.552 201.940 339.552 M 142.211 279.044 C 142.215 279.041 165.180 256.510 184.042 254.644 C 202.903 252.779 229.838 270.375 229.843 270.377 C 229.839 270.380 206.873 292.911 188.011 294.777 C 169.150 296.642 142.215 279.045 142.211 279.044 M 115.489 202.496 C 115.494 202.495 145.538 190.988 163.579 196.797 C 181.621 202.606 199.307 229.482 199.311 229.485 C 199.306 229.486 169.261 240.993 151.220 235.184 C 133.178 229.375 115.493 202.499 115.489 202.496 Z"/>
<path fill="#ffffff" fill-rule="evenodd" stroke="#000000" stroke-width="4" stroke-linecap="round" stroke-linejoin="round" d="M 364.655 196.182 C 363.638 168.324 364.080 96.954 358.768 97.012 C 354.056 97.064 353.880 169.858 353.827 196.451 C 353.788 216.195 354.450 212.073 353.330 245.115 C 352.996 254.974 350.136 276.012 346.571 275.988 C 343.367 275.966 325.584 279.894 310.145 279.129 C 289.936 278.127 264.144 275.708 244.850 264.999 C 229.230 256.327 216.948 238.638 207.107 225.543 C 202.310 219.159 197.144 209.779 193.397 202.727 C 191.565 199.279 188.643 192.319 187.827 190.965 C 187.520 190.457 183.845 186.414 183.476 186.508 C 182.914 186.652 182.739 192.131 182.706 192.356 C 182.335 194.919 185.392 202.093 186.576 205.441 C 189.474 213.635 193.383 221.488 197.399 229.396 C 207.698 249.675 225.156 269.693 242.487 280.566 C 252.720 286.986 266.203 289.927 279.541 291.474 C 321.250 296.312 339.093 297.788 339.035 304.384 C 338.771 334.282 312.183 683.225 312.183 683.230 C 312.188 683.231 337.835 690.845 360.667 690.371 C 382.254 689.922 407.722 685.443 407.727 685.442 C 407.726 685.437 380.002 333.958 379.208 303.941 C 379.028 297.119 407.936 296.273 434.586 291.101 C 450.884 287.938 469.943 284.553 482.357 276.094 C 497.330 265.892 512.152 247.313 519.738 228.655 C 522.960 220.731 529.821 196.144 529.532 194.159 C 529.459 193.660 530.098 184.855 529.487 184.783 C 529.135 184.742 525.280 192.370 524.821 193.534 C 524.405 194.589 514.241 217.624 510.340 223.749 C 502.642 235.836 493.146 250.571 480.629 261.149 C 466.457 273.126 430.308 275.813 404.943 278.415 C 392.370 279.705 375.300 276.316 371.166 275.520 C 368.105 274.930 365.832 254.835 365.702 245.229 C 365.241 211.298 364.813 200.509 364.655 196.182 Z"/>
</g>
<g id="specs_2">
<path fill="#ff0000" fill-rule="evenodd" stroke="none" d="M 360.000 646.143 C 360.001 646.147 372.342 680.702 372.343 680.705 C 372.342 680.704 360.001 669.221 360.000 669.220 C 359.999 669.221 347.658 680.704 347.657 680.705 C 347.658 680.702 359.999 646.147 360.000 646.143 Z"/>
<path fill="#0000ff" fill-rule="evenodd" stroke="none" d="M 361.147 4.196 C 361.147 4.198 368.316 24.270 368.316 24.272 C 368.316 24.271 361.147 17.602 361.147 17.601 C 361.146 17.602 353.977 24.271 353.977 24.272 C 353.977 24.270 361.146 4.198 361.147 4.196 Z"/>
<path fill="#00ff00" fill-rule="evenodd" stroke="none" d="M 304.124 495.952 C 304.127 495.951 329.314 486.812 329.317 486.811 C 329.316 486.812 320.977 495.866 320.976 495.867 C 320.977 495.868 329.407 504.837 329.408 504.838 C 329.405 504.837 304.127 495.953 304.124 495.952 Z"/>
<path fill="#ffff00" fill-rule="evenodd" stroke="none" d="M 301.245 692.482 C 301.246 692.480 311.095 671.037 311.096 671.035 C 311.096 671.036 311.614 681.864 311.614 681.865 C 311.615 681.865 322.452 682.128 322.453 682.128 C 322.451 682.129 301.247 692.481 301.245 692.482 Z"/>
<path fill="#ffff00" fill-rule="evenodd" stroke="none" d="M 418.755 692.220 C 418.754 692.217 408.478 670.976 408.477 670.974 C 408.477 670.975 408.175 681.812 408.175 681.813 C 408.174 681.813 397.344 682.293 397.343 682.293 C 397.345 682.294 418.753 692.219 418.755 692.220 Z"/>
<path fill="#00ff00" fill-rule="evenodd" stroke="none" d="M 415.876 495.952 C 415.873 495.951 390.686 486.812 390.683 486.811 C 390.684 486.812 399.023 495.866 399.024 495.867 C 399.023 495.868 390.593 504.837 390.592 504.838 C 390.595 504.837 415.873 495.953 415.876 495.952 Z"/>
<path fill="#00ffff" fill-rule="evenodd" stroke="none" d="M 591.436 151.385 C 591.435 151.388 582.530 176.533 582.529 176.536 C 582.529 176.534 580.842 164.396 580.842 164.395 C 580.841 164.395 568.613 165.202 568.612 165.203 C 568.614 165.201 591.434 151.387 591.436 151.385 Z"/>
<path fill="#00ffff" fill-rule="evenodd" stroke="none" d="M 125.235 152.219 C 125.236 152.221 135.798 176.717 135.799 176.720 C 135.799 176.718 136.673 164.494 136.673 164.493 C 136.674 164.493 148.928 164.484 148.930 164.484 C 148.927 164.482 125.237 152.220 125.235 152.219 Z"/>
<path fill="#be0027" fill-rule="evenodd" stroke="none" d="M 360.000 714.961 C 360.001 714.957 372.342 680.402 372.343 680.399 C 372.342 680.400 360.001 691.882 360.000 691.884 C 359.999 691.882 347.658 680.400 347.657 680.399 C 347.658 680.402 359.999 714.957 360.000 714.961 Z"/>
</g>
</g>
</svg>
