<?xml version="1.0" encoding="utf-8"?>
<!-- Generator: Moho 13.5 build 20210422 -->
<!DOCTYPE svg PUBLIC "-//W3C//DTD SVG 1.1//EN" "http://www.w3.org/Graphics/SVG/1.1/DTD/svg11.dtd">
<svg version="1.1" id="Frame_0" xmlns="http://www.w3.org/2000/svg" xmlns:xlink="http://www.w3.org/1999/xlink" width="720px" height="720px">
<g id="halves">
<g id="tree_top">
<g id="tree_top">
<path fill="#ffffff" fill-rule="evenodd" stroke="#000000" stroke-width="2" stroke-linecap="round" stroke-linejoin="round" d="M 313.954 470.212 C 313.963 470.212 406.037 470.212 406.046 470.212 C 406.047 470.205 403.835 419.719 412.995 403.544 C 424.325 383.538 449.590 390.371 450.722 390.055 C 453.481 389.285 505.344 395.127 546.615 371.811 C 585.620 349.776 592.161 325.899 592.165 325.895 C 592.160 325.898 568.767 345.348 536.603 358.340 C 505.887 370.747 468.901 366.664 468.894 366.665 C 468.903 366.655 538.166 336.597 554.566 269.002 C 570.817 202.020 496.208 166.191 496.204 166.188 C 496.207 166.192 551.675 216.935 531.723 264.057 C 519.363 293.248 505.340 306.848 487.758 320.006 C 474.105 330.223 446.292 350.088 446.288 350.091 C 446.288 350.086 452.414 323.864 449.927 299.224 C 444.909 249.484 418.917 239.028 418.914 239.022 C 418.916 239.027 432.185 261.077 432.033 297.260 C 431.923 323.246 424.338 355.463 412.607 364.987 C 404.370 371.674 386.637 379.591 376.717 375.718 C 372.705 374.152 375.000 338.152 372.727 310.402 C 370.463 282.770 360.017 170.852 360.016 170.838 C 359.983 170.498 349.540 282.770 347.273 310.402 C 344.997 338.152 347.508 374.880 343.283 375.718 C 330.327 378.290 316.063 370.373 307.393 364.987 C 294.557 357.013 288.077 323.246 287.967 297.260 C 287.815 261.077 301.084 239.027 301.086 239.022 C 301.083 239.028 275.091 249.484 270.073 299.224 C 267.586 323.864 273.712 350.086 273.712 350.091 C 273.708 350.088 245.895 330.223 232.242 320.006 C 214.660 306.848 200.637 293.248 188.277 264.057 C 168.325 216.935 223.793 166.192 223.796 166.188 C 223.792 166.191 149.183 202.020 165.434 269.002 C 181.834 336.597 251.097 366.655 251.106 366.665 C 251.099 366.664 214.114 370.747 183.397 358.340 C 151.233 345.348 127.840 325.898 127.835 325.895 C 127.839 325.899 134.380 349.776 173.385 371.811 C 214.656 395.127 266.519 389.285 269.278 390.055 C 270.411 390.371 288.945 389.316 307.005 403.544 C 316.166 410.761 313.953 470.205 313.954 470.212 M 114.917 258.653 C 114.919 258.656 123.579 280.775 135.777 287.524 C 147.947 294.258 171.235 289.861 171.239 289.862 C 171.237 289.859 162.346 268.078 150.224 261.361 C 138.102 254.643 114.921 258.653 114.917 258.653 M 148.428 325.083 C 148.431 325.084 161.756 337.571 172.454 338.220 C 183.127 338.868 197.835 328.115 197.837 328.114 C 197.835 328.113 184.461 315.937 173.827 315.285 C 163.192 314.632 148.431 325.082 148.428 325.083 M 348.482 286.834 C 348.482 286.831 349.515 267.844 342.869 258.879 C 336.238 249.935 317.815 245.408 317.813 245.406 C 317.813 245.409 317.060 264.226 323.661 273.143 C 330.263 282.059 348.480 286.832 348.482 286.834 M 269.592 298.230 C 269.589 298.227 259.023 274.967 245.536 268.417 C 232.080 261.881 207.320 267.935 207.316 267.935 C 207.318 267.938 218.113 290.822 231.517 297.342 C 244.921 303.863 269.588 298.230 269.592 298.230 M 226.505 194.708 C 226.506 194.712 227.716 225.434 239.770 238.861 C 251.797 252.257 282.140 256.757 282.144 256.759 C 282.143 256.755 280.508 226.349 268.533 212.993 C 256.557 199.637 226.509 194.710 226.505 194.708 M 341.397 160.139 C 341.393 160.141 311.298 172.912 302.485 189.955 C 293.692 206.959 300.642 238.828 300.642 238.833 C 300.646 238.830 330.267 225.755 339.039 208.818 C 347.811 191.880 341.396 160.144 341.397 160.139 M 360.496 81.297 C 360.494 81.301 339.505 106.367 339.412 125.553 C 339.319 144.696 360.008 169.913 360.010 169.917 C 360.012 169.913 380.441 144.792 380.545 125.718 C 380.650 106.644 360.498 81.302 360.496 81.297 M 282.283 100.728 C 282.279 100.729 249.927 105.444 237.078 119.692 C 224.258 133.909 222.893 166.498 222.891 166.503 C 222.896 166.501 254.865 161.372 267.648 147.215 C 280.432 133.058 282.281 100.733 282.283 100.728 M 147.608 114.873 C 147.608 114.877 139.069 146.435 147.032 163.891 C 154.978 181.307 184.337 195.520 184.340 195.523 C 184.340 195.518 192.347 164.145 184.442 146.787 C 176.536 129.428 147.612 114.876 147.608 114.873 M 95.829 181.107 C 95.831 181.111 101.402 213.326 115.986 225.793 C 130.537 238.232 163.151 238.733 163.155 238.734 C 163.153 238.730 157.178 206.907 142.688 194.504 C 128.197 182.101 95.834 181.108 95.829 181.107 M 66.669 260.282 C 66.670 260.287 68.346 292.936 81.333 307.059 C 94.291 321.150 126.611 325.550 126.615 325.552 C 126.614 325.547 124.490 293.238 111.588 279.190 C 98.685 265.142 66.673 260.284 66.669 260.282 M 52.169 358.812 C 52.174 358.813 80.360 375.377 99.298 372.302 C 118.194 369.233 139.650 344.665 139.654 344.662 C 139.649 344.661 111.501 328.660 92.671 331.705 C 73.841 334.750 52.174 358.809 52.169 358.812 M 101.743 426.545 C 101.747 426.544 134.402 428.120 149.745 416.601 C 165.054 405.106 172.643 373.384 172.645 373.379 C 172.640 373.381 140.280 372.284 125.020 383.727 C 109.759 395.170 101.745 426.541 101.743 426.545 M 181.263 467.414 C 181.267 467.411 211.503 454.976 220.504 438.033 C 229.485 421.127 222.890 389.183 222.890 389.178 C 222.886 389.181 193.122 401.925 184.162 418.764 C 175.202 435.604 181.264 467.409 181.263 467.414 M 291.997 447.531 C 291.997 447.527 297.314 424.724 291.175 412.430 C 285.049 400.164 263.677 390.730 263.674 390.727 C 263.675 390.731 258.733 413.388 264.829 425.614 C 270.924 437.841 291.994 447.528 291.997 447.531 M 605.083 258.653 C 605.081 258.656 596.421 280.775 584.223 287.524 C 572.053 294.258 548.765 289.861 548.761 289.862 C 548.763 289.859 557.654 268.078 569.776 261.361 C 581.898 254.643 605.079 258.653 605.083 258.653 M 371.518 286.834 C 371.518 286.831 370.485 267.844 377.131 258.879 C 383.762 249.935 402.185 245.408 402.187 245.406 C 402.187 245.409 402.940 264.226 396.339 273.143 C 389.737 282.059 371.520 286.832 371.518 286.834 M 450.408 298.230 C 450.411 298.227 460.977 274.967 474.464 268.417 C 487.920 261.881 512.680 267.935 512.684 267.935 C 512.682 267.938 501.887 290.822 488.483 297.342 C 475.079 303.863 450.412 298.230 450.408 298.230 M 493.495 194.708 C 493.494 194.712 492.284 225.434 480.230 238.861 C 468.203 252.257 437.860 256.757 437.856 256.759 C 437.857 256.755 439.492 226.349 451.467 212.993 C 463.443 199.637 493.491 194.710 493.495 194.708 M 424.701 295.443 C 424.699 295.447 421.650 321.199 410.626 331.690 C 399.627 342.159 373.815 343.935 373.812 343.936 C 373.813 343.933 377.199 318.474 388.152 308.037 C 399.105 297.600 424.697 295.445 424.701 295.443 M 378.603 160.139 C 378.607 160.141 408.702 172.912 417.515 189.955 C 426.308 206.959 419.358 238.828 419.358 238.833 C 419.354 238.830 389.733 225.755 380.961 208.818 C 372.189 191.880 378.604 160.144 378.603 160.139 M 437.717 100.728 C 437.721 100.729 470.073 105.444 482.922 119.692 C 495.742 133.909 497.107 166.498 497.109 166.503 C 497.104 166.501 465.135 161.372 452.352 147.215 C 439.568 133.058 437.719 100.733 437.717 100.728 M 572.392 114.873 C 572.392 114.877 580.931 146.435 572.968 163.891 C 565.022 181.307 535.663 195.520 535.660 195.523 C 535.660 195.518 527.653 164.145 535.559 146.787 C 543.464 129.428 572.388 114.876 572.392 114.873 M 624.171 181.107 C 624.169 181.111 618.598 213.326 604.015 225.793 C 589.463 238.232 556.849 238.733 556.845 238.734 C 556.847 238.730 562.822 206.907 577.312 194.504 C 591.803 182.101 624.166 181.108 624.171 181.107 M 653.331 260.282 C 653.330 260.287 651.654 292.936 638.667 307.059 C 625.709 321.150 593.389 325.550 593.385 325.552 C 593.386 325.547 595.510 293.238 608.412 279.190 C 621.315 265.142 653.327 260.284 653.331 260.282 M 667.831 358.812 C 667.826 358.813 639.640 375.377 620.702 372.302 C 601.806 369.233 580.350 344.665 580.346 344.662 C 580.351 344.661 608.499 328.660 627.329 331.705 C 646.159 334.750 667.826 358.809 667.831 358.812 M 618.257 426.545 C 618.253 426.544 585.598 428.120 570.255 416.601 C 554.946 405.106 547.357 373.384 547.355 373.379 C 547.360 373.381 579.720 372.284 594.980 383.727 C 610.241 395.170 618.255 426.541 618.257 426.545 M 538.737 467.414 C 538.733 467.411 508.497 454.976 499.496 438.033 C 490.515 421.127 497.110 389.183 497.110 389.178 C 497.114 389.181 526.878 401.925 535.838 418.764 C 544.798 435.604 538.736 467.409 538.737 467.414 M 428.003 447.531 C 428.003 447.527 422.686 424.724 428.825 412.430 C 434.951 400.164 456.323 390.730 456.326 390.727 C 456.325 390.731 461.267 413.388 455.171 425.614 C 449.076 437.841 428.006 447.528 428.003 447.531 Z"/>
<path fill="#ffffff" fill-rule="evenodd" stroke="#000000" stroke-width="2" stroke-linecap="round" stroke-linejoin="round" d="M 547.547 338.220 C 536.873 338.868 522.165 328.115 522.163 328.114 C 522.165 328.113 535.539 315.937 546.173 315.285 C 556.808 314.632 571.569 325.082 571.572 325.083 C 571.569 325.084 558.244 337.571 547.547 338.220 Z"/>
<path fill="#ffffff" fill-rule="evenodd" stroke="#000000" stroke-width="2" stroke-linecap="round" stroke-linejoin="round" d="M 264.867 454.794 C 264.867 444.751 256.765 436.650 246.722 436.650 C 236.679 436.650 228.578 444.751 228.578 454.794 C 228.577 464.838 236.679 472.939 246.722 472.939 C 256.765 472.939 264.867 464.838 264.867 454.794 M 163.432 448.797 C 163.432 438.754 155.330 430.652 145.287 430.652 C 135.244 430.652 127.142 438.754 127.142 448.797 C 127.142 458.840 135.244 466.942 145.287 466.942 C 155.330 466.942 163.432 458.840 163.432 448.797 M 92.104 401.245 C 92.104 391.201 84.002 383.100 73.959 383.100 C 63.916 383.100 55.814 391.201 55.814 401.245 C 55.814 411.288 63.916 419.389 73.959 419.389 C 84.002 419.389 92.104 411.288 92.104 401.245 M 217.241 119.686 C 217.241 109.643 209.139 101.541 199.096 101.541 C 189.053 101.541 180.951 109.643 180.951 119.686 C 180.951 129.729 189.053 137.830 199.096 137.830 C 209.139 137.830 217.241 129.729 217.241 119.686 M 102.115 232.309 C 102.115 222.266 94.013 214.164 83.970 214.164 C 73.927 214.164 65.825 222.266 65.825 232.309 C 65.825 242.352 73.927 250.454 83.970 250.454 C 94.013 250.454 102.115 242.352 102.115 232.309 M 228.503 236.063 C 228.503 226.020 220.401 217.918 210.358 217.918 C 200.315 217.918 192.213 226.020 192.213 236.063 C 192.213 246.106 200.315 254.208 210.358 254.208 C 220.401 254.208 228.503 246.106 228.503 236.063 M 326.110 129.697 C 326.110 119.654 318.008 111.552 307.965 111.552 C 297.922 111.552 289.821 119.654 289.821 129.697 C 289.821 139.740 297.922 147.842 307.965 147.842 C 318.009 147.842 326.110 139.740 326.110 129.697 M 294.826 174.746 C 294.826 164.703 286.724 156.601 276.681 156.601 C 266.638 156.601 258.536 164.703 258.536 174.746 C 258.536 184.789 266.638 192.891 276.681 192.891 C 286.724 192.891 294.826 184.789 294.826 174.746 M 455.133 454.794 C 455.133 444.751 463.235 436.650 473.278 436.650 C 483.321 436.650 491.422 444.751 491.423 454.794 C 491.423 464.838 483.321 472.939 473.278 472.939 C 463.235 472.939 455.133 464.838 455.133 454.794 M 556.568 448.797 C 556.568 438.754 564.670 430.652 574.713 430.652 C 584.756 430.652 592.858 438.754 592.858 448.797 C 592.858 458.840 584.756 466.942 574.713 466.942 C 564.670 466.942 556.568 458.840 556.568 448.797 M 627.896 401.245 C 627.896 391.201 635.998 383.100 646.041 383.100 C 656.084 383.100 664.186 391.201 664.186 401.245 C 664.186 411.288 656.084 419.389 646.041 419.389 C 635.998 419.389 627.896 411.288 627.896 401.245 M 502.759 119.686 C 502.759 109.643 510.861 101.541 520.904 101.541 C 530.947 101.541 539.049 109.643 539.049 119.686 C 539.049 129.729 530.947 137.830 520.904 137.830 C 510.861 137.830 502.759 129.729 502.759 119.686 M 617.885 232.309 C 617.885 222.266 625.987 214.164 636.030 214.164 C 646.073 214.164 654.175 222.266 654.175 232.309 C 654.175 242.352 646.073 250.454 636.030 250.454 C 625.987 250.454 617.885 242.352 617.885 232.309 M 491.497 236.063 C 491.497 226.020 499.599 217.918 509.642 217.918 C 519.685 217.918 527.787 226.020 527.787 236.063 C 527.787 246.106 519.685 254.208 509.642 254.208 C 499.599 254.208 491.497 246.106 491.497 236.063 M 393.890 129.697 C 393.890 119.654 401.992 111.552 412.035 111.552 C 422.078 111.552 430.179 119.654 430.179 129.697 C 430.180 139.740 422.078 147.842 412.035 147.842 C 401.991 147.842 393.890 139.740 393.890 129.697 M 425.174 174.746 C 425.174 164.703 433.276 156.601 443.319 156.601 C 453.362 156.601 461.464 164.703 461.464 174.746 C 461.464 184.789 453.362 192.891 443.319 192.891 C 433.276 192.891 425.174 184.789 425.174 174.746 Z"/>
<path fill="#ffffff" fill-rule="evenodd" stroke="#000000" stroke-width="2" stroke-linecap="round" stroke-linejoin="round" d="M 308.953 331.690 C 319.952 342.159 345.763 343.935 345.767 343.936 C 345.765 343.933 342.379 318.474 331.426 308.037 C 320.473 297.600 294.882 295.445 294.878 295.443 C 294.879 295.447 297.929 321.199 308.953 331.690 Z"/>
<path fill="none" stroke="#ffffff" stroke-width="2" stroke-linecap="round" stroke-linejoin="round" d="M 313.954 470.212 C 313.963 470.212 406.037 470.212 406.046 470.212 "/>
</g>
<g id="specs_2">
<path fill="#ff0000" fill-rule="evenodd" stroke="none" d="M 360.000 458.664 C 360.001 458.665 366.208 476.047 366.209 476.049 C 366.208 476.048 360.001 470.272 360.000 470.272 C 359.999 470.272 353.792 476.048 353.791 476.049 C 353.792 476.047 359.999 458.665 360.000 458.664 Z"/>
<path fill="#ffff00" fill-rule="evenodd" stroke="none" d="M 313.245 471.012 C 313.245 471.011 314.988 467.217 314.988 467.217 C 314.988 467.217 315.080 469.133 315.080 469.133 C 315.080 469.133 316.997 469.180 316.998 469.180 C 316.997 469.180 313.245 471.011 313.245 471.012 Z"/>
<path fill="#ffff00" fill-rule="evenodd" stroke="none" d="M 407.488 470.965 C 407.488 470.965 405.670 467.206 405.669 467.206 C 405.669 467.206 405.616 469.123 405.616 469.124 C 405.616 469.124 403.700 469.208 403.700 469.209 C 403.700 469.209 407.488 470.965 407.488 470.965 Z"/>
<path fill="#be0027" fill-rule="evenodd" stroke="none" d="M 360.000 481.768 C 360.001 481.766 366.208 464.385 366.209 464.383 C 366.208 464.384 360.001 470.160 360.000 470.160 C 359.999 470.160 353.792 464.384 353.791 464.383 C 353.792 464.385 359.999 481.766 360.000 481.768 Z"/>
<path fill="none" stroke="#ffff00" stroke-width="2" stroke-linecap="round" stroke-linejoin="round" d="M 313.954 470.212 C 313.963 470.212 406.037 470.212 406.046 470.212 "/>
</g>
</g>
</g>
</svg>
