<?xml version="1.0" encoding="utf-8"?>
<!-- Generator: Moho 13.5.1 build 20210623 -->
<!DOCTYPE svg PUBLIC "-//W3C//DTD SVG 1.1//EN" "http://www.w3.org/Graphics/SVG/1.1/DTD/svg11.dtd">
<svg version="1.1" id="Frame_0" xmlns="http://www.w3.org/2000/svg" xmlns:xlink="http://www.w3.org/1999/xlink" width="720px" height="720px">
<g id="triangle">
<g id="triangle">
<radialGradient id="FF7D93F5-77F2-46FD-B596-1EF0381D61B0_0" cx="50.00%" cy="63.23%" r="84.82%">
<stop offset="41.18%" style="stop-color:rgb(255,255,255);stop-opacity:1.00" />
<stop offset="100.00%" style="stop-color:rgb(0,0,0);stop-opacity:1.00" />
</radialGradient>
<path fill="url(#FF7D93F5-77F2-46FD-B596-1EF0381D61B0_0)" fill-rule="evenodd" stroke="#000000" stroke-width="4" stroke-linecap="round" stroke-linejoin="round" d="M 360.000 73.898 C 360.033 73.955 690.329 646.045 690.362 646.102 C 690.296 646.102 29.704 646.102 29.638 646.102 C 29.671 646.045 359.967 73.955 360.000 73.898 Z"/>
</g>
<g id="specs_2">
<path fill="#ff00ff" fill-rule="evenodd" stroke="none" d="M 230.023 560.475 C 230.049 560.475 490.101 560.475 490.127 560.475 C 490.127 560.449 490.127 300.396 490.127 300.370 C 490.101 300.370 230.049 300.370 230.023 300.370 C 230.023 300.396 230.023 560.449 230.023 560.475 Z"/>
<path fill="#ff0000" fill-rule="evenodd" stroke="none" d="M 360.000 654.133 C 360.001 654.136 370.660 683.981 370.661 683.984 C 370.660 683.983 360.001 674.065 360.000 674.065 C 359.999 674.065 349.340 683.983 349.339 683.984 C 349.340 683.981 359.999 654.136 360.000 654.133 Z"/>
<path fill="#0000ff" fill-rule="evenodd" stroke="none" d="M 360.075 66.215 C 360.075 66.217 366.267 83.553 366.267 83.555 C 366.267 83.554 360.075 77.794 360.075 77.793 C 360.074 77.794 353.883 83.554 353.882 83.555 C 353.883 83.553 360.074 66.217 360.075 66.215 Z"/>
<path fill="#00ff00" fill-rule="evenodd" stroke="none" d="M 184.374 353.304 C 184.376 353.305 202.502 356.519 202.504 356.520 C 202.503 356.520 194.431 359.042 194.430 359.043 C 194.430 359.043 196.365 367.276 196.365 367.277 C 196.364 367.275 184.375 353.306 184.374 353.304 Z"/>
<path fill="#ffff00" fill-rule="evenodd" stroke="none" d="M 31.421 645.820 C 31.422 645.819 43.174 631.649 43.175 631.647 C 43.175 631.648 41.379 639.913 41.378 639.913 C 41.379 639.914 49.493 642.299 49.494 642.300 C 49.492 642.300 31.423 645.820 31.421 645.820 Z"/>
<path fill="#ffff00" fill-rule="evenodd" stroke="none" d="M 691.523 645.985 C 691.522 645.983 679.489 632.052 679.487 632.050 C 679.488 632.051 681.449 640.278 681.449 640.279 C 681.448 640.279 673.384 642.827 673.384 642.828 C 673.385 642.828 691.521 645.985 691.523 645.985 Z"/>
<path fill="#00ff00" fill-rule="evenodd" stroke="none" d="M 536.672 355.216 C 536.670 355.216 518.544 358.431 518.543 358.431 C 518.543 358.431 526.615 360.954 526.616 360.954 C 526.616 360.955 524.681 369.187 524.681 369.188 C 524.682 369.187 536.671 355.217 536.672 355.216 Z"/>
<path fill="#be0027" fill-rule="evenodd" stroke="none" d="M 359.957 657.102 C 359.958 657.100 369.002 631.776 369.003 631.774 C 369.002 631.775 359.958 640.189 359.957 640.190 C 359.957 640.189 350.913 631.775 350.912 631.774 C 350.913 631.776 359.957 657.100 359.957 657.102 Z"/>
</g>
</g>
</svg>
