<?xml version="1.0" encoding="utf-8"?>
<!-- Generator: Moho 13.0.3 build 635 -->
<!DOCTYPE svg PUBLIC "-//W3C//DTD SVG 1.1//EN" "http://www.w3.org/Graphics/SVG/1.1/DTD/svg11.dtd">
<svg version="1.1" id="Frame_0" xmlns="http://www.w3.org/2000/svg" xmlns:xlink="http://www.w3.org/1999/xlink" width="720px" height="720px">
<g id="triskele">
<g id="triskele">
<path fill="#ffffff" fill-rule="evenodd" stroke="#000000" stroke-width="4" stroke-linecap="round" stroke-linejoin="round" d="M 416.405 550.655 C 441.868 581.030 487.814 596.872 526.781 589.619 C 565.975 582.324 604.079 551.023 616.213 513.046 C 625.774 483.123 616.217 446.759 596.346 422.428 C 578.304 400.337 547.905 383.587 519.663 387.576 C 488.715 391.946 457.315 417.929 450.208 448.365 C 444.303 473.655 456.095 505.604 477.747 519.944 C 494.130 530.794 519.970 531.866 535.777 520.192 C 551.331 508.705 560.523 483.165 552.471 465.585 C 548.205 456.268 536.362 450.432 526.119 450.711 C 520.669 450.859 513.773 453.284 511.991 458.437 C 506.658 473.862 521.184 471.063 525.043 477.615 C 530.399 486.708 524.003 494.881 517.317 498.034 C 505.572 503.573 489.244 492.690 482.741 481.450 C 476.181 470.111 478.875 454.077 485.666 442.874 C 493.364 430.176 508.404 421.499 523.195 420.192 C 540.504 418.662 559.388 426.260 570.794 439.370 C 585.087 455.799 589.583 480.860 584.866 502.119 C 580.610 521.303 567.015 538.829 549.850 548.394 C 527.455 560.872 498.238 562.903 474.325 553.663 C 450.727 544.547 431.823 523.323 422.586 499.772 C 412.769 474.739 413.325 444.896 424.381 420.384 C 436.275 394.013 459.986 371.771 487.488 362.796 C 522.077 351.509 563.207 357.398 594.029 376.732 C 621.956 394.250 641.814 425.312 648.140 457.666 C 655.197 493.764 646.830 534.071 625.236 563.847 C 602.657 594.982 565.168 616.699 526.918 620.717 C 477.189 625.941 433.968 608.275 400.814 577.670 C 357.025 537.246 361.563 480.011 329.454 435.354 C 296.509 389.534 246.581 374.064 199.803 382.095 C 160.739 388.801 124.074 420.828 110.872 458.201 C 97.593 495.792 105.648 544.442 132.470 573.938 C 153.604 597.180 189.874 607.086 220.881 602.042 C 249.034 597.463 278.739 579.511 289.406 553.058 C 301.094 524.072 294.293 483.887 271.488 462.515 C 252.539 444.756 218.974 438.993 195.730 450.574 C 178.141 459.337 164.293 481.179 166.499 500.705 C 168.670 519.919 186.193 540.649 205.443 542.467 C 215.645 543.430 226.621 536.092 231.501 527.082 C 234.097 522.288 235.445 515.104 231.873 510.984 C 221.182 498.653 216.343 512.632 208.739 512.698 C 198.186 512.790 194.306 503.165 194.918 495.797 C 195.994 482.857 213.583 474.158 226.568 474.146 C 239.669 474.134 252.208 484.485 258.514 495.967 C 265.662 508.982 265.657 526.346 259.393 539.809 C 252.064 555.565 236.041 568.120 218.985 571.442 C 197.611 575.606 173.659 566.969 157.607 552.255 C 143.121 538.977 134.740 518.440 135.040 498.792 C 135.430 473.158 148.280 446.841 168.239 430.750 C 187.933 414.873 215.765 409.113 240.779 412.890 C 267.367 416.904 292.934 432.307 308.634 454.137 C 325.525 477.624 332.932 509.279 326.953 537.584 C 319.433 573.183 293.768 605.857 261.613 622.883 C 232.479 638.310 195.650 639.977 164.468 629.278 C 129.677 617.341 98.954 589.941 83.964 556.352 C 68.289 521.230 68.227 477.906 83.872 442.771 C 104.212 397.092 141.132 368.528 184.203 355.086 C 233.830 339.598 277.816 362.999 325.831 365.744 C 376.805 368.659 436.531 328.811 456.295 279.725 C 471.099 242.957 460.616 194.774 434.851 164.655 C 408.936 134.359 362.776 117.010 323.821 125.490 C 293.126 132.172 266.412 158.631 255.276 188.005 C 245.166 214.675 245.860 249.376 263.435 271.841 C 282.694 296.457 320.896 310.659 350.808 301.595 C 375.662 294.064 397.435 267.878 399.028 241.957 C 400.233 222.344 388.241 199.430 370.228 191.577 C 352.503 183.850 325.788 188.660 314.589 204.423 C 308.654 212.776 309.521 225.950 314.884 234.681 C 317.737 239.328 323.285 244.087 328.639 243.054 C 344.663 239.961 334.977 228.780 338.722 222.162 C 343.919 212.977 354.194 214.429 360.268 218.643 C 370.937 226.045 369.676 245.627 363.194 256.878 C 356.655 268.230 341.420 273.913 328.323 273.633 C 313.478 273.316 298.444 264.629 289.916 252.474 C 279.936 238.248 277.074 218.095 282.725 201.662 C 289.806 181.070 309.262 164.645 330.031 158.101 C 348.773 152.195 370.749 155.206 387.615 165.289 C 409.619 178.444 425.985 202.731 429.941 228.060 C 433.844 253.055 424.916 280.039 409.138 299.813 C 392.368 320.831 366.245 335.272 339.490 337.953 C 310.704 340.838 279.586 331.425 258.063 312.094 C 230.994 287.783 215.529 249.219 216.861 212.860 C 218.069 179.915 235.040 147.187 259.896 125.532 C 287.630 101.370 326.720 88.463 363.304 92.276 C 401.558 96.262 439.109 117.870 461.714 148.987 C 491.103 189.441 499.280 236.167 487.486 279.719 C 469.174 347.336 422.023 358.787 396.844 404.695 C 374.269 445.856 384.350 512.417 416.405 550.655 Z"/>
</g>
<g id="specs_2">
<path fill="#ff0000" fill-rule="evenodd" stroke="none" d="M 370.462 662.994 C 370.463 662.997 382.358 696.305 382.360 696.308 C 382.358 696.307 370.463 685.239 370.462 685.238 C 370.461 685.239 358.565 696.307 358.564 696.308 C 358.565 696.305 370.460 662.997 370.462 662.994 Z"/>
<path fill="#00ffff" fill-rule="evenodd" stroke="none" d="M 351.367 631.841 C 351.368 631.837 366.871 591.557 366.872 591.553 C 366.871 591.554 352.030 604.703 352.028 604.705 C 352.027 604.703 337.844 590.847 337.843 590.846 C 337.844 590.850 351.365 631.837 351.367 631.841 Z"/>
<path fill="#00ffff" fill-rule="evenodd" stroke="none" d="M 558.657 298.174 C 558.652 298.175 516.018 304.890 516.013 304.890 C 516.015 304.891 534.823 311.169 534.825 311.170 C 534.824 311.172 529.915 330.383 529.915 330.384 C 529.918 330.381 558.654 298.178 558.657 298.174 Z"/>
<path fill="#00ffff" fill-rule="evenodd" stroke="none" d="M 159.202 293.579 C 159.205 293.582 186.337 327.148 186.340 327.151 C 186.339 327.149 182.372 307.722 182.372 307.720 C 182.374 307.719 201.465 302.365 201.467 302.364 C 201.463 302.363 159.206 293.579 159.202 293.579 Z"/>
<path fill="#00ff00" fill-rule="evenodd" stroke="none" d="M 694.870 615.044 C 694.865 615.038 644.694 552.972 644.689 552.966 C 644.690 552.969 652.026 588.893 652.026 588.896 C 652.023 588.897 616.721 598.797 616.718 598.798 C 616.726 598.800 694.862 615.043 694.870 615.044 Z"/>
<path fill="#00ff00" fill-rule="evenodd" stroke="none" d="M 351.835 6.856 C 351.832 6.864 323.167 81.346 323.165 81.353 C 323.167 81.351 350.609 57.037 350.612 57.035 C 350.615 57.037 376.840 82.660 376.843 82.662 C 376.840 82.655 351.838 6.864 351.835 6.856 Z"/>
<path fill="#00ff00" fill-rule="evenodd" stroke="none" d="M 7.058 594.084 C 7.066 594.083 85.901 581.667 85.909 581.666 C 85.906 581.665 51.128 570.056 51.125 570.054 C 51.126 570.051 60.203 534.528 60.203 534.524 C 60.198 534.530 7.063 594.078 7.058 594.084 Z"/>
</g>
</g>
</svg>
