<?xml version="1.0" encoding="utf-8"?>
<!-- Generator: Moho 13.5.1 build 20210623 -->
<!DOCTYPE svg PUBLIC "-//W3C//DTD SVG 1.1//EN" "http://www.w3.org/Graphics/SVG/1.1/DTD/svg11.dtd">
<svg version="1.1" id="Frame_0" xmlns="http://www.w3.org/2000/svg" xmlns:xlink="http://www.w3.org/1999/xlink" width="720px" height="720px">
<g id="trumpet">
<g id="trumpet">
<path fill="#ffffff" fill-rule="evenodd" stroke="#000000" stroke-width="1" stroke-linejoin="round" d="M 701.470 372.385 C 701.470 386.115 697.485 391.822 694.661 391.822 C 691.836 391.822 687.851 386.115 687.851 372.385 C 687.851 358.654 691.836 352.947 694.661 352.947 C 697.485 352.947 701.470 358.654 701.470 372.385 Z"/>
<path fill="#ffffff" fill-rule="evenodd" stroke="#000000" stroke-width="1" stroke-linejoin="round" d="M 254.539 468.227 C 254.553 468.220 310.633 400.232 389.677 393.465 C 527.308 381.681 694.766 386.255 694.796 386.254 C 694.797 386.253 697.058 382.133 697.058 372.385 C 697.058 362.637 694.797 358.517 694.796 358.516 C 694.766 358.515 527.308 362.266 389.677 351.305 C 310.594 345.006 254.553 276.549 254.539 276.542 C 254.539 276.561 254.539 468.208 254.539 468.227 Z"/>
<path fill="#ffffff" fill-rule="evenodd" stroke="#000000" stroke-width="1" stroke-linejoin="round" d="M 254.697 273.827 C 263.513 273.801 274.056 305.392 274.234 372.359 C 274.411 439.291 264.044 470.917 255.232 470.943 C 246.416 470.968 235.873 439.377 235.695 372.410 C 235.518 305.478 245.886 273.852 254.697 273.827 M 254.551 286.970 C 257.557 286.970 266.577 307.400 266.577 372.385 C 266.577 437.369 257.557 457.800 254.551 457.800 C 251.546 457.800 242.525 437.369 242.525 372.385 C 242.525 307.400 251.546 286.970 254.551 286.970 Z"/>
<path fill="none" stroke="#000000" stroke-width="1" stroke-linecap="butt" stroke-linejoin="round" d="M 266.577 372.385 C 266.577 437.369 257.557 457.800 254.551 457.800 "/>
<path fill="none" stroke="#000000" stroke-width="1" stroke-linecap="butt" stroke-linejoin="round" d="M 254.551 457.800 C 251.546 457.800 242.525 437.369 242.525 372.385 "/>
<path fill="none" stroke="#000000" stroke-width="1" stroke-linecap="butt" stroke-linejoin="round" d="M 242.525 372.385 C 242.525 307.400 251.546 286.970 254.551 286.970 "/>
<path fill="none" stroke="#000000" stroke-width="1" stroke-linecap="butt" stroke-linejoin="round" d="M 254.551 286.970 C 257.557 286.970 266.577 307.400 266.577 372.385 "/>
<path fill="#000000" fill-rule="evenodd" stroke="#ffffff" stroke-width="1" stroke-linejoin="round" d="M 266.577 372.385 C 266.577 437.369 257.557 457.800 254.551 457.800 C 251.546 457.800 242.525 437.369 242.525 372.385 C 242.525 307.400 251.546 286.970 254.551 286.970 C 257.557 286.970 266.577 307.400 266.577 372.385 Z"/>
</g>
<g id="specs_2">
<path fill="#ff00ff" fill-rule="evenodd" stroke="none" d="M 7.731 290.217 C 7.731 290.233 7.731 454.536 7.731 454.552 C 7.756 454.552 256.287 454.553 256.312 454.553 C 256.312 454.536 256.312 290.233 256.312 290.217 C 256.287 290.217 7.756 290.217 7.731 290.217 Z"/>
<path fill="#ff0000" fill-rule="evenodd" stroke="none" d="M 671.275 372.385 C 671.277 372.386 695.384 380.995 695.386 380.996 C 695.385 380.995 687.375 372.386 687.374 372.385 C 687.375 372.384 695.385 363.775 695.386 363.774 C 695.384 363.775 671.277 372.384 671.275 372.385 Z"/>
<path fill="#00ff00" fill-rule="evenodd" stroke="none" d="M 523.168 283.461 C 523.169 283.465 540.086 330.084 540.087 330.089 C 540.086 330.087 523.327 314.652 523.325 314.651 C 523.323 314.652 506.723 330.256 506.722 330.257 C 506.723 330.253 523.166 283.465 523.168 283.461 Z"/>
<path fill="#00ff00" fill-rule="evenodd" stroke="none" d="M 523.168 461.309 C 523.169 461.304 540.086 414.685 540.087 414.681 C 540.086 414.682 523.327 430.117 523.325 430.119 C 523.323 430.117 506.723 414.513 506.722 414.512 C 506.723 414.517 523.166 461.304 523.168 461.309 Z"/>
<path fill="#ffff00" fill-rule="evenodd" stroke="none" d="M 714.248 372.385 C 714.245 372.386 690.139 380.995 690.137 380.996 C 690.138 380.995 698.148 372.386 698.149 372.385 C 698.148 372.384 690.138 363.775 690.137 363.774 C 690.139 363.775 714.245 372.384 714.248 372.385 Z"/>
</g>
</g>
</svg>
