<?xml version="1.0" encoding="utf-8"?>
<!-- Generator: Moho 13.5 build 20210422 -->
<!DOCTYPE svg PUBLIC "-//W3C//DTD SVG 1.1//EN" "http://www.w3.org/Graphics/SVG/1.1/DTD/svg11.dtd">
<svg version="1.1" id="Frame_0" xmlns="http://www.w3.org/2000/svg" xmlns:xlink="http://www.w3.org/1999/xlink" width="720px" height="720px">
<g id="two_faced">
<g id="two_faced">
<path fill="#000000" fill-rule="evenodd" stroke="#ffffff" stroke-width="2" stroke-linejoin="round" d="M 360.339 110.760 C 360.339 110.812 360.339 633.327 360.339 633.380 C 360.323 633.376 243.422 628.750 202.284 602.734 C 126.844 555.026 128.129 522.284 128.122 522.276 C 128.139 522.274 207.861 490.482 297.082 502.864 C 194.342 460.340 112.810 480.228 112.791 480.226 C 112.790 480.221 98.397 429.226 98.396 429.221 C 98.389 429.219 35.526 408.969 35.519 408.967 C 35.527 408.953 102.729 278.876 109.223 263.404 C 104.283 194.056 118.488 110.651 118.489 110.636 C 118.513 110.636 360.315 110.760 360.339 110.760 M 150.309 256.831 C 150.317 256.830 176.663 256.159 226.803 247.430 C 268.729 240.132 308.812 229.651 308.820 229.649 C 308.814 229.659 303.023 312.230 243.157 322.497 C 183.290 332.763 150.319 256.838 150.309 256.831 Z"/>
<path fill="#ffffff" fill-rule="evenodd" stroke="#000000" stroke-width="2" stroke-linejoin="round" d="M 404.569 295.217 C 404.576 295.218 430.922 295.889 481.062 304.618 C 522.989 311.917 563.072 322.397 563.080 322.399 C 563.073 322.390 557.283 239.818 497.416 229.552 C 437.549 219.285 404.578 295.211 404.569 295.217 M 359.661 110.760 C 359.661 110.812 359.661 633.327 359.661 633.380 C 359.677 633.376 476.578 628.750 517.716 602.734 C 593.156 555.026 591.870 522.284 591.878 522.276 C 591.861 522.271 473.183 530.867 427.638 474.540 C 483.169 488.722 607.191 480.225 607.209 480.226 C 607.210 480.221 621.603 429.226 621.604 429.221 C 621.611 429.219 684.474 408.969 684.481 408.967 C 684.473 408.953 617.288 279.913 610.777 263.404 C 612.404 178.833 601.512 110.651 601.511 110.636 C 601.487 110.636 359.685 110.760 359.661 110.760 Z"/>
</g>
<g id="specs_2">
<path fill="#ff00ff" fill-rule="evenodd" stroke="none" d="M 275.538 321.212 C 275.530 321.212 190.516 321.212 190.507 321.212 C 190.507 321.203 190.507 236.189 190.507 236.181 C 190.516 236.181 275.530 236.181 275.538 236.181 C 275.538 236.189 275.538 321.203 275.538 321.212 Z"/>
<path fill="#ff0000" fill-rule="evenodd" stroke="none" d="M 360.000 676.954 C 359.999 676.957 348.007 710.536 348.005 710.540 C 348.007 710.539 359.999 699.380 360.000 699.379 C 360.001 699.380 371.993 710.539 371.995 710.540 C 371.993 710.536 360.001 676.957 360.000 676.954 Z"/>
<path fill="#0000ff" fill-rule="evenodd" stroke="none" d="M 360.000 96.282 C 359.999 96.284 353.033 115.789 353.033 115.791 C 353.033 115.791 359.999 109.309 360.000 109.308 C 360.001 109.309 366.967 115.791 366.967 115.791 C 366.967 115.789 360.001 96.284 360.000 96.282 Z"/>
<path fill="#00ff00" fill-rule="evenodd" stroke="none" d="M 621.651 506.685 C 621.649 506.685 606.191 501.075 606.189 501.075 C 606.190 501.075 611.308 506.632 611.308 506.633 C 611.308 506.634 606.134 512.138 606.134 512.138 C 606.135 512.138 621.649 506.686 621.651 506.685 Z"/>
<path fill="#ffff00" fill-rule="evenodd" stroke="none" d="M 514.133 614.721 C 514.132 614.719 508.432 602.309 508.431 602.308 C 508.431 602.309 508.131 608.575 508.131 608.576 C 508.131 608.576 501.859 608.728 501.858 608.728 C 501.859 608.729 514.131 614.720 514.133 614.721 Z"/>
<path fill="#ffff00" fill-rule="evenodd" stroke="none" d="M 205.867 614.569 C 205.868 614.568 211.816 602.274 211.817 602.273 C 211.817 602.273 211.991 608.545 211.991 608.545 C 211.991 608.545 218.259 608.823 218.260 608.823 C 218.259 608.824 205.869 614.568 205.867 614.569 Z"/>
<path fill="#00ff00" fill-rule="evenodd" stroke="none" d="M 98.349 506.685 C 98.351 506.685 113.809 501.075 113.811 501.075 C 113.810 501.075 108.692 506.632 108.692 506.633 C 108.692 506.634 113.866 512.138 113.866 512.138 C 113.865 512.138 98.351 506.686 98.349 506.685 Z"/>
<path fill="#00ffff" fill-rule="evenodd" stroke="none" d="M 112.638 101.915 C 112.638 101.917 119.984 122.658 119.985 122.660 C 119.985 122.659 121.376 112.647 121.376 112.646 C 121.377 112.646 131.463 113.312 131.464 113.312 C 131.462 113.311 112.640 101.916 112.638 101.915 Z"/>
<path fill="#00ffff" fill-rule="evenodd" stroke="none" d="M 607.254 102.603 C 607.254 102.605 598.542 122.810 598.541 122.812 C 598.541 122.811 597.820 112.728 597.820 112.727 C 597.819 112.727 587.711 112.719 587.710 112.719 C 587.712 112.718 607.253 102.604 607.254 102.603 Z"/>
<path fill="#be0027" fill-rule="evenodd" stroke="none" d="M 360.000 656.522 C 359.999 656.518 348.007 622.939 348.005 622.936 C 348.007 622.937 359.999 634.095 360.000 634.096 C 360.001 634.095 371.993 622.937 371.995 622.936 C 371.993 622.939 360.001 656.518 360.000 656.522 Z"/>
<path fill="#ff00ff" fill-rule="evenodd" stroke="none" d="M 529.493 321.211 C 529.484 321.211 444.470 321.211 444.462 321.211 C 444.462 321.203 444.462 236.189 444.462 236.180 C 444.470 236.180 529.484 236.180 529.493 236.180 C 529.493 236.189 529.493 321.203 529.493 321.211 Z"/>
</g>
</g>
</svg>
