<?xml version="1.0" encoding="utf-8"?>
<!-- Generator: Moho 12.5 build 22414 -->
<!DOCTYPE svg PUBLIC "-//W3C//DTD SVG 1.1//EN" "http://www.w3.org/Graphics/SVG/1.1/DTD/svg11.dtd">
<svg version="1.1" id="Frame_0" xmlns="http://www.w3.org/2000/svg" xmlns:xlink="http://www.w3.org/1999/xlink" width="720px" height="720px">
<g id="two_faced_2">
<g id="two_faced">
<path fill="#000000" fill-rule="evenodd" stroke="#ffffff" stroke-width="2" stroke-linejoin="round" d="M 359.661 111.070 C 359.661 111.122 359.661 632.987 359.661 633.040 C 359.677 633.036 476.433 628.416 517.520 602.432 C 592.866 554.783 591.582 522.082 591.590 522.074 C 591.573 522.072 511.950 490.320 422.839 502.686 C 525.452 460.216 606.883 480.079 606.901 480.076 C 606.903 480.071 621.278 429.140 621.279 429.135 C 621.285 429.133 684.071 408.908 684.077 408.906 C 684.070 408.892 616.951 278.977 610.465 263.524 C 615.399 194.262 601.212 110.962 601.211 110.946 C 601.186 110.946 359.686 111.070 359.661 111.070 M 569.430 256.959 C 569.422 256.958 543.109 256.288 493.031 247.571 C 451.157 240.281 411.124 229.813 411.116 229.812 C 411.123 229.821 416.906 312.290 476.698 322.543 C 536.491 332.797 569.421 256.966 569.430 256.959 Z"/>
<path fill="#ffffff" fill-rule="evenodd" stroke="#000000" stroke-width="2" stroke-linejoin="round" d="M 315.487 295.298 C 315.479 295.299 289.166 295.969 239.088 304.687 C 197.214 311.976 157.181 322.444 157.173 322.446 C 157.179 322.436 162.963 239.968 222.755 229.714 C 282.547 219.460 315.477 295.291 315.487 295.298 M 360.339 111.070 C 360.339 111.122 360.339 632.987 360.339 633.040 C 360.323 633.036 243.567 628.416 202.480 602.432 C 127.134 554.783 128.418 522.082 128.411 522.074 C 128.427 522.069 246.958 530.654 292.446 474.397 C 236.984 488.562 113.117 480.076 113.099 480.076 C 113.097 480.071 98.722 429.140 98.721 429.135 C 98.715 429.133 35.929 408.908 35.923 408.906 C 35.930 408.892 103.032 280.013 109.535 263.524 C 107.910 179.059 118.788 110.962 118.789 110.946 C 118.814 110.946 360.315 111.070 360.339 111.070 Z"/>
</g>
<g id="specs_2">
<path fill="#ff00ff" fill-rule="evenodd" stroke="none" d="M 444.357 321.260 C 444.365 321.260 529.273 321.260 529.282 321.260 C 529.282 321.252 529.282 236.343 529.282 236.335 C 529.273 236.335 444.365 236.335 444.357 236.335 C 444.357 236.343 444.357 321.252 444.357 321.260 Z"/>
<path fill="#ff0000" fill-rule="evenodd" stroke="none" d="M 360.000 676.560 C 360.001 676.563 371.979 710.100 371.980 710.104 C 371.979 710.103 360.001 698.958 360.000 698.957 C 359.999 698.958 348.021 710.103 348.020 710.104 C 348.021 710.100 359.999 676.563 360.000 676.560 Z"/>
<path fill="#0000ff" fill-rule="evenodd" stroke="none" d="M 360.000 96.610 C 360.001 96.612 366.958 116.093 366.959 116.095 C 366.958 116.094 360.001 109.621 360.000 109.620 C 359.999 109.621 353.042 116.094 353.041 116.095 C 353.042 116.093 359.999 96.612 360.000 96.610 Z"/>
<path fill="#00ff00" fill-rule="evenodd" stroke="none" d="M 98.675 506.503 C 98.676 506.502 114.115 500.900 114.117 500.899 C 114.116 500.900 109.005 506.450 109.004 506.451 C 109.005 506.451 114.172 511.949 114.172 511.949 C 114.171 511.949 98.676 506.503 98.675 506.503 Z"/>
<path fill="#ffff00" fill-rule="evenodd" stroke="none" d="M 206.059 614.404 C 206.060 614.403 211.753 602.008 211.753 602.007 C 211.753 602.007 212.053 608.266 212.053 608.267 C 212.054 608.267 218.318 608.419 218.319 608.419 C 218.317 608.419 206.060 614.403 206.059 614.404 Z"/>
<path fill="#ffff00" fill-rule="evenodd" stroke="none" d="M 513.941 614.252 C 513.940 614.251 508.000 601.972 507.999 601.971 C 507.999 601.972 507.825 608.236 507.825 608.236 C 507.824 608.236 501.564 608.514 501.564 608.514 C 501.565 608.514 513.940 614.252 513.941 614.252 Z"/>
<path fill="#00ff00" fill-rule="evenodd" stroke="none" d="M 621.325 506.503 C 621.324 506.502 605.885 500.900 605.883 500.899 C 605.884 500.900 610.995 506.450 610.996 506.451 C 610.995 506.451 605.828 511.949 605.828 511.949 C 605.829 511.949 621.324 506.503 621.325 506.503 Z"/>
<path fill="#00ffff" fill-rule="evenodd" stroke="none" d="M 607.054 102.237 C 607.054 102.239 599.717 122.954 599.717 122.956 C 599.717 122.955 598.327 112.955 598.327 112.954 C 598.326 112.954 588.253 113.619 588.252 113.619 C 588.254 113.618 607.053 102.238 607.054 102.237 Z"/>
<path fill="#00ffff" fill-rule="evenodd" stroke="none" d="M 113.053 102.923 C 113.054 102.925 121.755 123.105 121.756 123.107 C 121.756 123.106 122.476 113.036 122.476 113.035 C 122.477 113.035 132.572 113.027 132.573 113.027 C 132.571 113.026 113.055 102.924 113.053 102.923 Z"/>
<path fill="#be0027" fill-rule="evenodd" stroke="none" d="M 360.000 656.153 C 360.001 656.150 371.979 622.612 371.980 622.609 C 371.979 622.610 360.001 633.754 360.000 633.755 C 359.999 633.754 348.021 622.610 348.020 622.609 C 348.021 622.612 359.999 656.150 360.000 656.153 Z"/>
<path fill="#ff00ff" fill-rule="evenodd" stroke="none" d="M 190.718 321.260 C 190.727 321.260 275.635 321.260 275.643 321.260 C 275.643 321.251 275.643 236.343 275.643 236.334 C 275.635 236.334 190.727 236.334 190.718 236.334 C 190.718 236.343 190.718 321.251 190.718 321.260 Z"/>
</g>
</g>
</svg>
