<?xml version="1.0" encoding="utf-8"?>
<!-- Generator: Moho 12.5 build 22414 -->
<!DOCTYPE svg PUBLIC "-//W3C//DTD SVG 1.1//EN" "http://www.w3.org/Graphics/SVG/1.1/DTD/svg11.dtd">
<svg version="1.1" id="Frame_0" xmlns="http://www.w3.org/2000/svg" xmlns:xlink="http://www.w3.org/1999/xlink" width="720px" height="720px">
<g id="two_faced">
<g id="two_faced">
<path fill="#000000" fill-rule="evenodd" stroke="#ffffff" stroke-width="2" stroke-linejoin="round" d="M 359.661 27.128 C 359.661 229.098 359.661 632.979 359.661 633.040 C 439.096 633.107 487.278 621.557 517.520 602.432 C 572.979 567.360 591.582 522.082 591.589 522.074 C 591.573 522.072 511.949 490.320 422.839 502.686 C 525.452 460.216 606.883 480.079 606.902 480.076 C 606.903 480.071 621.278 429.140 621.279 429.135 C 621.285 429.133 684.071 408.908 684.077 408.906 C 684.070 408.892 610.474 263.538 610.465 263.524 C 610.466 263.521 607.401 125.189 532.268 75.711 C 442.226 16.416 359.661 27.128 359.661 27.128 M 569.430 256.959 C 569.422 256.958 543.109 256.288 493.031 247.571 C 451.157 240.281 411.124 229.813 411.116 229.812 C 411.123 229.821 416.906 312.289 476.698 322.543 C 536.491 332.797 569.421 256.966 569.430 256.959 Z"/>
<path fill="#ffffff" fill-rule="evenodd" stroke="#000000" stroke-width="2" stroke-linejoin="round" d="M 324.770 302.518 C 324.762 302.519 298.449 303.189 248.371 311.907 C 206.497 319.197 166.464 329.664 166.456 329.666 C 166.463 329.657 172.246 247.188 232.038 236.934 C 291.831 226.680 324.761 302.512 324.770 302.518 M 360.339 27.128 C 360.339 229.098 360.339 632.979 360.339 633.040 C 280.904 633.107 232.722 621.557 202.480 602.432 C 147.021 567.360 128.418 522.082 128.411 522.074 C 128.427 522.069 246.958 530.654 292.446 474.397 C 236.984 488.562 113.116 480.076 113.098 480.076 C 113.097 480.071 98.722 429.140 98.721 429.135 C 98.715 429.133 35.929 408.908 35.923 408.906 C 35.930 408.892 109.527 263.538 109.535 263.524 C 109.534 263.521 112.599 125.189 187.732 75.711 C 277.774 16.416 360.339 27.128 360.339 27.128 Z"/>
</g>
<g id="specs_2">
<path fill="#ff00ff" fill-rule="evenodd" stroke="none" d="M 444.357 323.333 C 444.365 323.333 529.273 323.333 529.282 323.333 C 529.282 323.324 529.282 238.416 529.282 238.407 C 529.273 238.407 444.365 238.407 444.357 238.407 C 444.357 238.416 444.357 323.324 444.357 323.333 Z"/>
<path fill="#ff0000" fill-rule="evenodd" stroke="none" d="M 360.000 676.560 C 360.001 676.563 371.979 710.100 371.980 710.104 C 371.979 710.103 360.001 698.958 360.000 698.957 C 359.999 698.958 348.021 710.103 348.020 710.104 C 348.021 710.100 359.999 676.563 360.000 676.560 Z"/>
<path fill="#0000ff" fill-rule="evenodd" stroke="none" d="M 360.000 12.668 C 360.001 12.670 366.958 32.151 366.959 32.153 C 366.958 32.152 360.001 25.679 360.000 25.678 C 359.999 25.679 353.042 32.152 353.041 32.153 C 353.042 32.151 359.999 12.670 360.000 12.668 Z"/>
<path fill="#00ff00" fill-rule="evenodd" stroke="none" d="M 98.675 506.503 C 98.676 506.502 114.115 500.900 114.117 500.899 C 114.116 500.900 109.005 506.450 109.004 506.451 C 109.005 506.451 114.172 511.949 114.172 511.949 C 114.171 511.949 98.676 506.503 98.675 506.503 Z"/>
<path fill="#ffff00" fill-rule="evenodd" stroke="none" d="M 206.059 614.404 C 206.060 614.403 211.753 602.008 211.753 602.007 C 211.753 602.007 212.053 608.266 212.053 608.267 C 212.054 608.267 218.318 608.419 218.319 608.419 C 218.317 608.419 206.060 614.403 206.059 614.404 Z"/>
<path fill="#ffff00" fill-rule="evenodd" stroke="none" d="M 513.941 614.252 C 513.940 614.251 508.000 601.972 507.999 601.971 C 507.999 601.972 507.825 608.236 507.825 608.236 C 507.824 608.236 501.564 608.514 501.564 608.514 C 501.565 608.514 513.940 614.252 513.941 614.252 Z"/>
<path fill="#00ff00" fill-rule="evenodd" stroke="none" d="M 621.325 506.503 C 621.324 506.502 605.885 500.900 605.883 500.899 C 605.884 500.900 610.995 506.450 610.996 506.451 C 610.995 506.451 605.828 511.949 605.828 511.949 C 605.829 511.949 621.324 506.503 621.325 506.503 Z"/>
<path fill="#00ffff" fill-rule="evenodd" stroke="none" d="M 573.836 97.422 C 573.836 97.424 567.486 115.353 567.486 115.355 C 567.485 115.354 566.283 106.699 566.283 106.698 C 566.282 106.698 557.563 107.274 557.563 107.274 C 557.564 107.273 573.835 97.423 573.836 97.422 Z"/>
<path fill="#00ffff" fill-rule="evenodd" stroke="none" d="M 146.271 98.016 C 146.272 98.018 153.803 115.484 153.804 115.486 C 153.804 115.485 154.426 106.769 154.426 106.768 C 154.427 106.768 163.165 106.761 163.166 106.761 C 163.164 106.760 146.273 98.017 146.271 98.016 Z"/>
<path fill="#be0027" fill-rule="evenodd" stroke="none" d="M 360.000 656.153 C 360.001 656.150 371.979 622.612 371.980 622.609 C 371.979 622.610 360.001 633.754 360.000 633.755 C 359.999 633.754 348.021 622.610 348.020 622.609 C 348.021 622.612 359.999 656.150 360.000 656.153 Z"/>
<path fill="#ff00ff" fill-rule="evenodd" stroke="none" d="M 190.718 323.332 C 190.727 323.332 275.635 323.332 275.644 323.332 C 275.644 323.324 275.644 238.416 275.644 238.407 C 275.635 238.407 190.727 238.407 190.718 238.407 C 190.718 238.416 190.718 323.324 190.718 323.332 Z"/>
</g>
</g>
</svg>
