<?xml version="1.0" encoding="utf-8"?>
<!-- Generator: Moho 13.5.1 build 20210623 -->
<!DOCTYPE svg PUBLIC "-//W3C//DTD SVG 1.1//EN" "http://www.w3.org/Graphics/SVG/1.1/DTD/svg11.dtd">
<svg version="1.1" id="Frame_0" xmlns="http://www.w3.org/2000/svg" xmlns:xlink="http://www.w3.org/1999/xlink" width="720px" height="720px">
<g id="unihorn">
<g id="unihorn">
<path fill="#ffffff" fill-rule="evenodd" stroke="#000000" stroke-width="4" stroke-linecap="round" stroke-linejoin="round" d="M 360.131 17.885 C 360.132 17.889 366.991 42.718 368.086 54.361 C 369.057 64.684 367.035 84.547 367.281 87.451 C 367.602 91.227 374.711 116.207 375.818 129.647 C 376.867 142.381 374.125 166.837 374.431 170.414 C 374.736 173.972 381.711 197.462 382.673 210.132 C 383.627 222.691 380.265 246.758 380.550 250.286 C 380.843 253.906 388.191 277.726 389.353 290.599 C 390.613 304.557 387.225 331.401 387.700 335.311 C 388.067 338.332 395.634 357.877 396.945 368.628 C 398.907 384.719 394.404 415.802 394.850 420.335 C 395.169 423.583 401.998 444.907 403.214 456.457 C 404.818 471.696 401.395 501.097 402.000 505.360 C 402.432 508.409 410.786 527.958 412.201 538.825 C 414.498 556.467 408.751 590.554 409.149 595.538 C 409.466 599.498 417.093 625.629 418.442 639.702 C 420.064 656.624 420.539 690.422 417.330 693.961 C 413.927 697.712 378.153 700.144 360.131 700.144 C 342.110 700.144 306.361 697.688 302.933 693.961 C 300.416 691.223 298.484 665.000 299.769 651.827 C 300.959 639.630 309.790 617.520 310.083 614.089 C 310.466 609.604 302.954 579.168 304.650 563.238 C 306.020 550.377 316.859 527.526 317.232 523.911 C 317.626 520.100 311.479 494.218 312.627 480.634 C 313.771 467.096 324.112 442.694 324.382 438.886 C 324.626 435.461 318.658 412.394 319.391 400.195 C 320.291 385.219 331.161 358.061 331.532 353.862 C 331.837 350.415 327.802 326.946 328.645 314.662 C 329.651 300.002 338.434 272.959 338.682 268.837 C 338.903 265.175 333.876 240.351 334.871 227.334 C 335.943 213.316 345.450 187.744 345.832 183.812 C 346.214 179.870 342.138 152.915 343.427 138.878 C 344.606 126.022 352.744 102.407 352.982 98.787 C 353.180 95.774 349.063 75.372 349.669 64.643 C 350.515 49.658 360.130 17.890 360.131 17.885 Z"/>
<path fill="none" stroke="#000000" stroke-width="4" stroke-linecap="round" stroke-linejoin="round" d="M 331.532 353.862 C 350.255 347.678 368.977 341.494 387.700 335.311 M 352.982 98.787 C 357.748 95.008 362.515 91.229 367.281 87.451 M 345.832 183.812 C 355.365 179.346 364.898 174.880 374.431 170.414 M 338.682 268.837 C 352.638 262.653 366.594 256.470 380.550 250.286 M 324.382 438.886 C 347.871 432.703 371.361 426.519 394.850 420.335 M 317.232 523.911 C 345.488 517.727 373.744 511.544 402.000 505.360 M 310.083 614.089 C 343.105 607.905 376.127 601.721 409.149 595.538 "/>
</g>
<g id="specs">
<path fill="#ff0000" fill-rule="evenodd" stroke="none" d="M 360.000 666.256 C 360.001 666.259 372.432 701.065 372.433 701.069 C 372.432 701.068 360.001 689.502 360.000 689.500 C 359.999 689.502 347.568 701.068 347.567 701.069 C 347.568 701.065 359.999 666.259 360.000 666.256 Z"/>
<path fill="#00ff00" fill-rule="evenodd" stroke="none" d="M 297.021 389.443 C 297.024 389.442 324.376 379.517 324.378 379.516 C 324.377 379.517 315.322 389.350 315.321 389.351 C 315.322 389.352 324.476 399.092 324.477 399.093 C 324.474 399.092 297.024 389.444 297.021 389.443 Z"/>
<path fill="#00ff00" fill-rule="evenodd" stroke="none" d="M 422.979 389.443 C 422.976 389.442 395.624 379.517 395.622 379.516 C 395.623 379.517 404.678 389.350 404.679 389.351 C 404.678 389.352 395.524 399.092 395.523 399.093 C 395.526 399.092 422.976 389.444 422.979 389.443 Z"/>
<path fill="#be0027" fill-rule="evenodd" stroke="none" d="M 360.000 716.044 C 360.001 716.042 369.045 690.718 369.046 690.715 C 369.045 690.716 360.001 699.131 360.000 699.132 C 359.999 699.131 350.955 690.716 350.954 690.715 C 350.955 690.718 359.999 716.042 360.000 716.044 Z"/>
</g>
</g>
</svg>
