<?xml version="1.0" encoding="utf-8"?>
<!-- Generator: Moho 12.5 build 22414 -->
<!DOCTYPE svg PUBLIC "-//W3C//DTD SVG 1.1//EN" "http://www.w3.org/Graphics/SVG/1.1/DTD/svg11.dtd">
<svg version="1.1" id="Frame_0" xmlns="http://www.w3.org/2000/svg" xmlns:xlink="http://www.w3.org/1999/xlink" width="720px" height="720px">
<g id="urn">
<g id="urn">
<path fill="#ffffff" fill-rule="evenodd" stroke="#000000" stroke-width="4" stroke-linejoin="round" d="M 178.839 162.931 C 187.525 181.450 221.998 194.472 233.944 247.094 C 258.886 222.459 290.427 186.150 276.745 132.874 C 269.428 104.382 228.476 90.515 199.305 102.146 C 175.988 111.444 170.069 144.236 178.839 162.931 M 443.256 132.873 C 429.040 194.245 461.479 222.188 486.055 247.093 C 498.188 194.514 529.268 184.246 541.162 162.931 C 550.082 146.944 544.012 111.444 520.695 102.146 C 491.525 90.515 450.215 98.758 443.256 132.873 M 480.149 38.892 C 480.147 38.896 462.113 53.474 454.874 83.220 C 479.610 67.807 507.825 62.583 535.670 75.949 C 577.791 96.168 581.033 146.401 569.662 172.146 C 556.455 202.048 516.032 219.257 512.716 276.126 C 538.116 307.671 560.249 350.607 560.249 419.365 C 560.249 559.539 495.339 602.007 460.125 619.614 C 420.075 639.639 299.925 639.639 259.875 619.614 C 224.661 602.007 159.751 559.539 159.751 419.365 C 159.751 350.607 181.884 307.672 207.283 276.127 C 203.968 219.257 160.231 197.078 150.338 172.146 C 139.957 145.986 141.646 94.949 184.330 75.949 C 213.135 63.127 245.768 69.965 266.231 88.192 C 258.315 64.154 239.853 38.897 239.851 38.892 C 239.875 38.894 480.125 38.893 480.149 38.892 Z"/>
</g>
<g id="specs_2">
<path fill="#ff00ff" fill-rule="evenodd" stroke="none" d="M 222.623 563.037 C 222.650 563.037 497.350 563.037 497.377 563.037 C 497.377 563.010 497.377 288.311 497.377 288.283 C 497.350 288.283 222.650 288.283 222.623 288.283 C 222.623 288.311 222.623 563.010 222.623 563.037 Z"/>
<path fill="#ff0000" fill-rule="evenodd" stroke="none" d="M 360.000 699.570 C 360.001 699.573 372.432 734.379 372.433 734.383 C 372.432 734.381 360.001 722.816 360.000 722.814 C 359.999 722.816 347.568 734.381 347.567 734.383 C 347.568 734.379 359.999 699.573 360.000 699.570 Z"/>
<path fill="#0000ff" fill-rule="evenodd" stroke="none" d="M 360.000 25.835 C 360.001 25.837 367.221 46.055 367.222 46.057 C 367.221 46.057 360.001 39.339 360.000 39.338 C 359.999 39.339 352.779 46.057 352.778 46.057 C 352.779 46.055 359.999 25.837 360.000 25.835 Z"/>
<path fill="#00ff00" fill-rule="evenodd" stroke="none" d="M 146.929 420.906 C 146.931 420.905 167.437 413.465 167.439 413.464 C 167.438 413.465 160.649 420.836 160.648 420.837 C 160.649 420.838 167.512 428.139 167.513 428.140 C 167.511 428.139 146.931 420.907 146.929 420.906 Z"/>
<path fill="#ffff00" fill-rule="evenodd" stroke="none" d="M 239.693 617.252 C 239.694 617.251 247.535 600.177 247.536 600.176 C 247.536 600.177 247.949 608.798 247.949 608.799 C 247.950 608.799 256.579 609.008 256.579 609.008 C 256.578 609.009 239.695 617.252 239.693 617.252 Z"/>
<path fill="#ffff00" fill-rule="evenodd" stroke="none" d="M 480.307 617.043 C 480.306 617.042 472.124 600.129 472.123 600.127 C 472.123 600.128 471.883 608.756 471.883 608.757 C 471.882 608.757 463.259 609.139 463.258 609.139 C 463.260 609.140 480.305 617.043 480.307 617.043 Z"/>
<path fill="#00ff00" fill-rule="evenodd" stroke="none" d="M 573.071 420.906 C 573.069 420.905 552.563 413.465 552.561 413.464 C 552.562 413.465 559.351 420.836 559.352 420.837 C 559.351 420.838 552.488 428.139 552.487 428.140 C 552.489 428.139 573.069 420.907 573.071 420.906 Z"/>
<path fill="#00ffff" fill-rule="evenodd" stroke="none" d="M 557.145 73.011 C 557.144 73.013 550.134 92.806 550.134 92.808 C 550.134 92.807 548.806 83.252 548.806 83.251 C 548.805 83.251 539.180 83.887 539.179 83.887 C 539.180 83.886 557.143 73.012 557.145 73.011 Z"/>
<path fill="#00ffff" fill-rule="evenodd" stroke="none" d="M 162.855 73.667 C 162.856 73.669 171.170 92.951 171.171 92.953 C 171.171 92.952 171.858 83.330 171.858 83.329 C 171.859 83.329 181.505 83.321 181.506 83.321 C 181.504 83.320 162.857 73.668 162.855 73.667 Z"/>
<path fill="#be0027" fill-rule="evenodd" stroke="none" d="M 360.000 655.670 C 360.001 655.666 372.432 620.860 372.433 620.857 C 372.432 620.858 360.001 632.424 360.000 632.425 C 359.999 632.424 347.568 620.858 347.567 620.857 C 347.568 620.860 359.999 655.666 360.000 655.670 Z"/>
</g>
</g>
</svg>
