<?xml version="1.0" encoding="utf-8"?>
<!-- Generator: Moho 13.5 build 20210422 -->
<!DOCTYPE svg PUBLIC "-//W3C//DTD SVG 1.1//EN" "http://www.w3.org/Graphics/SVG/1.1/DTD/svg11.dtd">
<svg version="1.1" id="Frame_0" xmlns="http://www.w3.org/2000/svg" xmlns:xlink="http://www.w3.org/1999/xlink" width="720px" height="720px">
<g id="venus">
<g id="venus">
<path id="S1" fill="#ffffff" fill-rule="evenodd" stroke="#000000" stroke-width="4" stroke-linejoin="round" d="M 250.100 511.835 C 250.109 511.835 309.901 511.835 339.802 511.835 C 339.812 491.234 339.819 460.154 339.833 450.031 C 253.070 445.692 173.459 360.582 173.459 264.560 C 173.459 161.311 256.751 78.020 360.000 78.020 C 463.249 78.020 546.541 161.311 546.541 264.560 C 546.541 360.582 467.272 440.789 380.165 450.031 C 380.188 468.726 380.333 511.829 380.333 511.835 C 410.189 511.835 469.891 511.835 469.900 511.835 C 469.900 511.839 469.900 552.322 469.900 552.326 C 469.891 552.326 410.190 552.326 380.335 552.326 C 380.305 582.210 380.245 641.971 380.245 641.980 C 380.241 641.980 339.759 641.980 339.755 641.980 C 339.755 641.971 339.788 582.210 339.804 552.326 C 309.903 552.326 250.109 552.326 250.100 552.326 C 250.100 552.322 250.100 511.839 250.100 511.835 M 214.813 264.560 C 214.813 344.921 279.640 409.748 360.000 409.748 C 440.360 409.748 505.187 344.921 505.187 264.560 C 505.187 184.200 440.360 119.374 360.000 119.374 C 279.640 119.374 214.813 184.200 214.813 264.560 Z"/>
</g>
<g id="specs_2">
<path fill="#ff00ff" fill-rule="evenodd" stroke="none" d="M 255.740 367.985 C 255.761 367.985 464.239 367.985 464.260 367.985 C 464.260 367.964 464.260 159.485 464.260 159.465 C 464.239 159.465 255.761 159.465 255.740 159.465 C 255.740 159.485 255.740 367.964 255.740 367.985 Z"/>
<path fill="#ff0000" fill-rule="evenodd" stroke="none" d="M 360.000 643.672 C 360.001 643.675 372.432 678.481 372.433 678.485 C 372.432 678.484 360.001 666.918 360.000 666.917 C 359.999 666.918 347.568 678.484 347.567 678.485 C 347.568 678.481 359.999 643.675 360.000 643.672 Z"/>
<path fill="#0000ff" fill-rule="evenodd" stroke="none" d="M 360.000 61.325 C 360.001 61.327 367.221 81.545 367.222 81.547 C 367.221 81.546 360.001 74.828 360.000 74.827 C 359.999 74.828 352.779 81.546 352.778 81.547 C 352.779 81.545 359.999 61.327 360.000 61.325 Z"/>
<path fill="#00ff00" fill-rule="evenodd" stroke="none" d="M 157.653 262.421 C 157.655 262.420 177.836 255.097 177.838 255.096 C 177.837 255.097 171.156 262.352 171.155 262.353 C 171.156 262.353 177.910 269.540 177.911 269.540 C 177.909 269.540 157.655 262.422 157.653 262.421 Z"/>
<path fill="#00ff00" fill-rule="evenodd" stroke="none" d="M 562.347 262.421 C 562.345 262.420 542.164 255.097 542.162 255.096 C 542.163 255.097 548.844 262.352 548.845 262.353 C 548.844 262.353 542.090 269.540 542.089 269.540 C 542.091 269.540 562.345 262.422 562.347 262.421 Z"/>
<path fill="#be0027" fill-rule="evenodd" stroke="none" d="M 360.000 665.799 C 360.001 665.796 372.432 630.990 372.433 630.987 C 372.432 630.988 360.001 642.554 360.000 642.555 C 359.999 642.554 347.568 630.988 347.567 630.987 C 347.568 630.990 359.999 665.796 360.000 665.799 Z"/>
<path fill="#00ffff" fill-rule="evenodd" stroke="none" d="M 240.324 531.721 C 240.325 531.720 252.261 527.389 252.262 527.388 C 252.262 527.389 248.310 531.680 248.309 531.680 C 248.310 531.681 252.305 535.931 252.305 535.931 C 252.304 535.931 240.325 531.721 240.324 531.721 Z"/>
<path fill="#00ffff" fill-rule="evenodd" stroke="none" d="M 479.676 531.721 C 479.675 531.720 467.739 527.389 467.738 527.388 C 467.738 527.389 471.690 531.680 471.691 531.680 C 471.690 531.681 467.695 535.931 467.695 535.931 C 467.696 535.931 479.675 531.721 479.676 531.721 Z"/>
</g>
</g>
</svg>
