<?xml version="1.0" encoding="utf-8"?>
<!-- Generator: Moho 12.5 build 22414 -->
<!DOCTYPE svg PUBLIC "-//W3C//DTD SVG 1.1//EN" "http://www.w3.org/Graphics/SVG/1.1/DTD/svg11.dtd">
<svg version="1.1" id="Frame_0" xmlns="http://www.w3.org/2000/svg" xmlns:xlink="http://www.w3.org/1999/xlink" width="720px" height="720px">
<g id="wand">
<g id="wand2">
<path fill="#ffffff" fill-rule="evenodd" stroke="#000000" stroke-width="4" stroke-linejoin="round" d="M 360.000 667.847 C 368.801 667.847 375.901 674.947 375.901 683.748 C 375.901 692.549 368.801 699.648 360.000 699.648 C 351.199 699.648 344.099 692.549 344.099 683.748 C 344.099 674.947 351.199 667.847 360.000 667.847 Z"/>
<path fill="#ffffff" fill-rule="evenodd" stroke="#000000" stroke-width="4" stroke-linejoin="round" d="M 375.661 181.190 C 364.062 196.655 336.998 181.190 344.731 219.853 C 356.330 204.388 383.394 219.853 375.661 181.190 Z"/>
<path fill="#ffffff" fill-rule="evenodd" stroke="#000000" stroke-width="4" stroke-linejoin="round" d="M 375.661 200.521 C 364.062 215.986 336.998 200.521 344.731 239.184 C 356.330 223.719 383.394 239.184 375.661 200.521 Z"/>
<path fill="#ffffff" fill-rule="evenodd" stroke="#000000" stroke-width="4" stroke-linejoin="round" d="M 375.661 219.853 C 364.062 235.318 336.998 219.853 344.731 258.516 C 356.330 243.050 383.394 258.516 375.661 219.853 Z"/>
<path fill="#ffffff" fill-rule="evenodd" stroke="#000000" stroke-width="4" stroke-linejoin="round" d="M 375.661 239.184 C 364.062 254.649 336.998 239.184 344.731 277.847 C 356.330 262.382 383.394 277.847 375.661 239.184 Z"/>
<path fill="#ffffff" fill-rule="evenodd" stroke="#000000" stroke-width="4" stroke-linejoin="round" d="M 375.661 258.516 C 364.062 273.981 336.998 258.516 344.731 297.179 C 356.330 281.713 383.394 297.179 375.661 258.516 Z"/>
<path fill="#ffffff" fill-rule="evenodd" stroke="#000000" stroke-width="4" stroke-linejoin="round" d="M 375.661 277.847 C 364.062 293.312 336.998 277.847 344.731 316.510 C 356.330 301.045 383.394 316.510 375.661 277.847 Z"/>
<path fill="#ffffff" fill-rule="evenodd" stroke="#000000" stroke-width="4" stroke-linejoin="round" d="M 375.661 297.179 C 364.062 312.644 336.998 297.179 344.731 335.842 C 356.330 320.376 383.394 335.842 375.661 297.179 Z"/>
<path fill="#ffffff" fill-rule="evenodd" stroke="#000000" stroke-width="4" stroke-linejoin="round" d="M 375.661 316.510 C 364.062 331.975 336.998 316.510 344.731 355.173 C 356.330 339.708 383.394 355.173 375.661 316.510 Z"/>
<path fill="#ffffff" fill-rule="evenodd" stroke="#000000" stroke-width="4" stroke-linejoin="round" d="M 375.661 335.842 C 364.062 351.307 336.998 335.842 344.731 374.505 C 356.330 359.040 383.394 374.505 375.661 335.842 Z"/>
<path fill="#ffffff" fill-rule="evenodd" stroke="#000000" stroke-width="4" stroke-linejoin="round" d="M 375.661 355.173 C 364.062 370.638 336.998 355.173 344.731 393.836 C 356.330 378.371 383.394 393.836 375.661 355.173 Z"/>
<path fill="#ffffff" fill-rule="evenodd" stroke="#000000" stroke-width="4" stroke-linejoin="round" d="M 375.661 374.505 C 364.062 389.970 336.998 374.505 344.731 413.168 C 356.330 397.703 383.394 413.168 375.661 374.505 Z"/>
<path fill="#ffffff" fill-rule="evenodd" stroke="#000000" stroke-width="4" stroke-linejoin="round" d="M 375.661 393.836 C 364.062 409.301 336.998 393.836 344.731 432.499 C 356.330 417.034 383.394 432.499 375.661 393.836 Z"/>
<path fill="#ffffff" fill-rule="evenodd" stroke="#000000" stroke-width="4" stroke-linejoin="round" d="M 375.661 413.168 C 364.062 428.633 336.998 413.168 344.731 451.831 C 356.330 436.366 383.394 451.831 375.661 413.168 Z"/>
<path fill="#ffffff" fill-rule="evenodd" stroke="#000000" stroke-width="4" stroke-linejoin="round" d="M 375.661 432.499 C 364.062 447.964 336.998 432.499 344.731 471.162 C 356.330 455.697 383.394 471.162 375.661 432.499 Z"/>
<path fill="#ffffff" fill-rule="evenodd" stroke="#000000" stroke-width="4" stroke-linejoin="round" d="M 375.661 451.831 C 364.062 467.296 336.998 451.831 344.731 490.494 C 356.330 475.029 383.394 490.494 375.661 451.831 Z"/>
<path fill="#ffffff" fill-rule="evenodd" stroke="#000000" stroke-width="4" stroke-linejoin="round" d="M 375.661 471.162 C 364.062 486.627 336.998 471.162 344.731 509.825 C 356.330 494.360 383.394 509.825 375.661 471.162 Z"/>
<path fill="#ffffff" fill-rule="evenodd" stroke="#000000" stroke-width="4" stroke-linejoin="round" d="M 375.661 490.494 C 364.062 505.959 336.998 490.494 344.731 529.157 C 356.330 513.691 383.394 529.157 375.661 490.494 Z"/>
<path fill="#ffffff" fill-rule="evenodd" stroke="#000000" stroke-width="4" stroke-linejoin="round" d="M 375.661 509.825 C 364.062 525.290 336.998 509.825 344.731 548.488 C 356.330 533.023 383.394 548.488 375.661 509.825 Z"/>
<path fill="#ffffff" fill-rule="evenodd" stroke="#000000" stroke-width="4" stroke-linejoin="round" d="M 375.661 529.157 C 364.062 544.622 336.998 529.157 344.731 567.820 C 356.330 552.354 383.394 567.820 375.661 529.157 Z"/>
<path fill="#ffffff" fill-rule="evenodd" stroke="#000000" stroke-width="4" stroke-linejoin="round" d="M 375.661 548.488 C 364.062 563.953 336.998 548.488 344.731 587.152 C 356.330 571.686 383.394 587.151 375.661 548.488 Z"/>
<path fill="#ffffff" fill-rule="evenodd" stroke="#000000" stroke-width="4" stroke-linejoin="round" d="M 375.661 567.820 C 364.062 583.285 336.998 567.820 344.731 606.483 C 356.330 591.017 383.394 606.483 375.661 567.820 Z"/>
<path fill="#ffffff" fill-rule="evenodd" stroke="#000000" stroke-width="4" stroke-linejoin="round" d="M 375.661 587.152 C 364.062 602.617 336.998 587.151 344.731 625.814 C 356.330 610.349 383.394 625.814 375.661 587.152 Z"/>
<path fill="#ffffff" fill-rule="evenodd" stroke="#000000" stroke-width="4" stroke-linejoin="round" d="M 375.661 606.483 C 364.062 621.948 336.998 606.483 344.731 645.146 C 356.330 629.681 383.394 645.146 375.661 606.483 Z"/>
<path fill="#ffffff" fill-rule="evenodd" stroke="#000000" stroke-width="4" stroke-linejoin="round" d="M 375.661 625.814 C 364.062 641.279 336.998 625.814 344.731 664.477 C 356.330 649.012 383.394 664.477 375.661 625.814 Z"/>
<path fill="#ffffff" fill-rule="evenodd" stroke="#000000" stroke-width="4" stroke-linejoin="round" d="M 375.661 645.146 C 364.062 660.611 336.998 645.146 344.731 683.809 C 356.330 668.343 383.394 683.809 375.661 645.146 Z"/>
<path fill="#ffffff" fill-rule="evenodd" stroke="#000000" stroke-width="4" stroke-linejoin="round" d="M 360.000 164.391 C 368.801 164.391 375.901 171.491 375.901 180.291 C 375.901 189.092 368.801 196.192 360.000 196.192 C 351.199 196.192 344.099 189.092 344.099 180.291 C 344.099 171.491 351.199 164.391 360.000 164.391 Z"/>
<path fill="#ffffff" fill-rule="evenodd" stroke="#000000" stroke-width="4" stroke-linejoin="round" d="M 375.661 181.190 C 364.062 196.655 336.998 181.190 344.731 219.853 C 356.330 204.388 383.394 219.853 375.661 181.190 Z"/>
<path fill="#ffffff" fill-rule="evenodd" stroke="#000000" stroke-width="4" stroke-linejoin="round" d="M 375.661 297.179 C 364.062 312.644 336.998 297.179 344.731 335.842 C 356.330 320.376 383.394 335.842 375.661 297.179 Z"/>
<path fill="#ffffff" fill-rule="evenodd" stroke="#000000" stroke-width="4" stroke-linejoin="round" d="M 375.661 413.168 C 364.062 428.633 336.998 413.168 344.731 451.831 C 356.330 436.366 383.394 451.831 375.661 413.168 Z"/>
<path fill="#ffffff" fill-rule="evenodd" stroke="#000000" stroke-width="4" stroke-linejoin="round" d="M 375.661 529.157 C 364.062 544.622 336.998 529.157 344.731 567.820 C 356.330 552.354 383.394 567.820 375.661 529.157 Z"/>
<path fill="#ffffff" fill-rule="evenodd" stroke="#000000" stroke-width="4" stroke-linejoin="round" d="M 375.661 645.146 C 364.062 660.611 336.998 645.146 344.731 683.809 C 356.330 668.343 383.394 683.809 375.661 645.146 Z"/>
<path fill="#ffffff" fill-rule="evenodd" stroke="#000000" stroke-width="4" stroke-linejoin="round" d="M 406.720 200.607 C 395.122 216.073 368.058 200.608 375.790 239.271 C 387.389 223.805 414.453 239.270 406.720 200.607 Z"/>
<path fill="#ffffff" fill-rule="evenodd" stroke="#000000" stroke-width="4" stroke-linejoin="round" d="M 406.720 316.596 C 395.122 332.062 368.057 316.597 375.790 355.260 C 387.389 339.794 414.453 355.259 406.720 316.596 Z"/>
<path fill="#ffffff" fill-rule="evenodd" stroke="#000000" stroke-width="4" stroke-linejoin="round" d="M 406.720 432.586 C 395.122 448.051 368.058 432.586 375.790 471.248 C 387.389 455.783 414.453 471.248 406.720 432.586 Z"/>
<path fill="#ffffff" fill-rule="evenodd" stroke="#000000" stroke-width="4" stroke-linejoin="round" d="M 406.720 548.574 C 395.122 564.040 368.058 548.575 375.790 587.237 C 387.389 571.772 414.453 587.237 406.720 548.574 Z"/>
<path fill="#ffffff" fill-rule="evenodd" stroke="#000000" stroke-width="4" stroke-linejoin="round" d="M 313.280 258.950 C 324.878 274.415 351.943 258.950 344.210 297.613 C 332.611 282.148 305.547 297.613 313.280 258.950 Z"/>
<path fill="#ffffff" fill-rule="evenodd" stroke="#000000" stroke-width="4" stroke-linejoin="round" d="M 313.280 374.939 C 324.878 390.404 351.942 374.939 344.210 413.602 C 332.611 398.137 305.547 413.602 313.280 374.939 Z"/>
<path fill="#ffffff" fill-rule="evenodd" stroke="#000000" stroke-width="4" stroke-linejoin="round" d="M 313.280 490.927 C 324.878 506.393 351.942 490.928 344.210 529.591 C 332.611 514.125 305.547 529.590 313.280 490.927 Z"/>
<path fill="#ffffff" fill-rule="evenodd" stroke="#000000" stroke-width="4" stroke-linejoin="round" d="M 313.280 606.917 C 324.878 622.382 351.942 606.917 344.210 645.579 C 332.611 630.114 305.547 645.579 313.280 606.917 Z"/>
</g>
<g id="specs_2">
<path fill="#ff0000" fill-rule="evenodd" stroke="none" d="M 360.000 683.811 C 360.001 683.814 371.221 715.231 371.222 715.234 C 371.221 715.233 360.001 704.793 360.000 704.792 C 359.999 704.793 348.779 715.233 348.778 715.234 C 348.779 715.231 359.999 683.814 360.000 683.811 Z"/>
<path fill="#00ff00" fill-rule="evenodd" stroke="none" d="M 302.554 248.635 C 302.555 248.637 310.762 266.192 310.763 266.194 C 310.763 266.193 311.129 257.298 311.129 257.297 C 311.130 257.297 320.028 257.021 320.029 257.021 C 320.027 257.020 302.556 248.636 302.554 248.635 Z"/>
<path fill="#00ff00" fill-rule="evenodd" stroke="none" d="M 417.357 305.919 C 417.356 305.921 409.149 323.476 409.148 323.478 C 409.148 323.477 408.782 314.582 408.782 314.581 C 408.781 314.581 399.884 314.305 399.883 314.305 C 399.884 314.304 417.355 305.920 417.357 305.919 Z"/>
<path fill="#ff00ff" fill-rule="evenodd" stroke="none" d="M 267.505 5.711 C 267.523 5.711 452.477 5.711 452.495 5.711 C 452.495 5.730 452.495 190.683 452.495 190.702 C 452.477 190.702 267.523 190.702 267.505 190.702 C 267.505 190.683 267.505 5.730 267.505 5.711 Z"/>
</g>
</g>
</svg>
