<?xml version="1.0" encoding="utf-8"?>
<!-- Generator: Moho 12.5 build 22414 -->
<!DOCTYPE svg PUBLIC "-//W3C//DTD SVG 1.1//EN" "http://www.w3.org/Graphics/SVG/1.1/DTD/svg11.dtd">
<svg version="1.1" id="Frame_0" xmlns="http://www.w3.org/2000/svg" xmlns:xlink="http://www.w3.org/1999/xlink" width="720px" height="720px">
<g id="waterworks_2">
<g id="waterworks">
<path fill="#000000" fill-rule="evenodd" stroke="#ffffff" stroke-width="2" stroke-linecap="round" stroke-linejoin="round" d="M 554.181 246.879 C 554.181 246.868 545.758 209.542 545.758 134.142 C 545.758 58.741 554.181 21.416 554.181 21.405 C 554.191 21.407 672.737 -2.073 696.528 114.489 C 696.998 116.791 696.998 151.492 696.528 153.795 C 672.737 270.357 554.191 246.876 554.181 246.879 Z"/>
<path fill="#000000" fill-rule="evenodd" stroke="#ffffff" stroke-width="2" stroke-linecap="round" stroke-linejoin="round" d="M 26.662 545.021 C 26.673 545.021 63.999 536.598 139.399 536.598 C 214.800 536.598 252.125 545.021 252.136 545.021 C 252.134 545.031 275.614 663.577 159.052 687.368 C 156.750 687.838 122.049 687.838 119.746 687.368 C 3.184 663.577 26.665 545.031 26.662 545.021 Z"/>
<path fill="#ffffff" fill-rule="evenodd" stroke="none" d="M 524.531 202.818 C 509.648 206.118 494.784 197.756 482.861 200.225 C 471.019 202.676 462.760 214.151 451.360 217.666 C 439.943 221.186 426.766 216.344 415.877 220.957 C 404.986 225.570 399.362 238.344 389.036 243.932 C 378.704 249.523 364.994 247.232 355.308 253.776 C 345.618 260.322 342.649 273.869 333.651 281.286 C 324.653 288.703 310.807 289.026 302.569 297.264 C 294.331 305.502 294.009 319.348 286.591 328.346 C 279.174 337.344 265.627 340.313 259.081 350.002 C 252.537 359.689 254.827 373.399 249.237 383.731 C 243.649 394.057 230.875 399.681 226.262 410.572 C 221.649 421.461 226.491 434.638 222.971 446.055 C 219.456 457.455 208.316 465.789 205.530 477.556 C 202.368 490.912 213.000 503.031 208.213 519.257 C 237.231 526.656 253.024 540.267 253.024 549.533 C 253.024 558.918 239.092 572.551 208.096 579.840 C 173.280 588.027 125.594 589.099 92.848 584.221 C 46.294 577.286 25.689 560.874 25.689 549.533 C 25.689 538.192 46.591 521.755 92.847 514.845 C 92.847 514.845 95.633 506.592 96.057 502.291 C 97.656 486.038 87.974 469.718 91.218 454.001 C 94.463 438.283 109.702 427.323 114.367 412.193 C 119.038 397.039 112.613 379.550 118.735 365.097 C 124.858 350.642 141.812 343.177 149.229 329.472 C 156.649 315.759 153.608 297.562 162.294 284.706 C 170.983 271.846 188.963 267.905 198.808 255.963 C 208.652 244.020 209.080 225.643 220.014 214.709 C 230.948 203.775 249.326 203.347 261.268 193.502 C 273.210 183.658 277.151 165.678 290.011 156.989 C 302.867 148.303 321.064 151.344 334.777 143.923 C 348.482 136.507 355.947 119.553 370.402 113.430 C 384.855 107.308 402.344 113.734 417.497 109.062 C 432.628 104.397 443.588 89.158 459.306 85.914 C 475.023 82.669 491.273 91.300 507.595 90.751 C 512.325 90.593 520.150 87.570 520.150 87.570 C 521.657 54.001 543.497 20.412 554.838 20.412 C 566.179 20.412 585.402 40.683 589.526 87.569 C 593.271 130.142 592.381 164.519 585.145 202.816 C 579.233 234.106 566.040 247.948 554.838 247.746 C 545.455 247.577 531.906 234.201 524.531 202.818 Z"/>
<path fill="none" stroke="#000000" stroke-width="2" stroke-linecap="round" stroke-linejoin="round" d="M 201.390 536.068 C 214.081 539.807 220.029 544.640 220.029 549.533 C 220.029 554.464 213.988 559.335 201.404 563.036 C 194.107 565.182 184.514 566.937 172.595 568.054 C 164.237 568.838 155.045 569.309 144.745 569.421 C 142.654 569.444 121.624 569.176 113.800 568.658 C 102.159 567.889 92.368 566.552 84.676 564.860 C 66.897 560.950 58.685 555.283 58.685 549.533 C 58.685 543.784 66.897 538.117 84.676 534.206 C 82.942 539.106 81.628 544.202 81.628 549.533 C 81.628 554.834 82.927 559.903 84.676 564.860 M 208.213 519.257 C 236.898 526.673 253.024 540.267 253.024 549.533 C 253.024 558.918 239.092 572.551 208.096 579.840 C 173.280 588.027 125.594 589.099 92.848 584.221 C 46.294 577.286 25.689 560.874 25.689 549.533 C 25.689 538.192 46.262 521.561 92.847 514.845 C 90.417 521.337 87.125 527.670 84.676 534.206 M 520.150 87.570 C 521.453 53.975 543.497 20.412 554.838 20.412 C 566.179 20.412 585.402 40.683 589.526 87.569 C 593.271 130.142 592.381 164.519 585.145 202.816 C 579.233 234.106 564.222 247.746 554.838 247.746 C 545.453 247.746 532.447 233.660 524.531 202.818 C 509.648 206.118 494.784 197.756 482.861 200.225 C 471.019 202.676 462.760 214.151 451.360 217.666 C 439.943 221.186 426.766 216.344 415.877 220.957 C 404.986 225.570 399.362 238.344 389.036 243.932 C 378.704 249.523 364.994 247.232 355.308 253.776 C 345.618 260.322 342.649 273.869 333.651 281.286 C 324.653 288.703 310.807 289.026 302.569 297.264 C 294.331 305.502 294.009 319.348 286.591 328.346 C 279.174 337.344 265.627 340.313 259.081 350.002 C 252.537 359.689 254.827 373.399 249.237 383.731 C 243.649 394.057 230.875 399.681 226.262 410.572 C 221.649 421.461 226.491 434.638 222.971 446.055 C 219.456 457.455 207.913 465.700 205.530 477.556 C 203.165 489.316 212.648 503.290 208.213 519.257 C 206.633 524.945 203.644 530.463 201.390 536.068 C 195.952 549.588 198.164 555.584 201.404 563.036 M 113.800 568.658 C 111.173 562.585 108.927 556.258 108.954 549.533 C 108.979 543.111 121.951 527.402 122.549 505.019 C 122.960 489.636 114.933 474.327 117.990 459.517 C 121.047 444.707 135.407 434.380 139.802 420.123 C 144.204 405.845 138.149 389.365 143.918 375.747 C 149.687 362.127 165.663 355.093 172.651 342.179 C 179.643 329.258 176.778 312.112 184.962 299.999 C 193.149 287.881 210.091 284.168 219.366 272.916 C 228.642 261.662 229.046 244.346 239.349 234.044 C 249.651 223.741 266.967 223.337 278.220 214.061 C 289.473 204.786 293.186 187.844 305.303 179.657 C 317.417 171.472 334.563 174.337 347.484 167.346 C 360.398 160.357 367.432 144.382 381.052 138.613 C 394.670 132.844 411.150 138.899 425.428 134.497 C 439.685 130.102 450.012 115.743 464.822 112.685 C 479.632 109.628 495.071 119.282 510.324 117.244 C 519.413 116.029 529.770 111.002 535.727 108.434 C 542.018 105.744 548.245 103.649 554.838 103.649 C 561.431 103.649 567.642 105.782 573.949 108.433 C 573.212 97.182 571.887 87.511 570.184 79.490 C 566.453 61.910 560.688 53.407 554.838 53.407 C 548.988 53.407 543.223 61.910 539.492 79.491 C 532.932 81.800 526.585 85.165 520.150 87.570 C 515.905 89.162 512.325 90.593 507.595 90.751 C 491.273 91.300 475.023 82.669 459.306 85.914 C 443.588 89.158 432.628 104.397 417.497 109.062 C 402.344 113.734 384.855 107.308 370.402 113.430 C 355.947 119.553 348.482 136.507 334.777 143.923 C 321.064 151.344 302.867 148.303 290.011 156.989 C 277.151 165.678 273.210 183.658 261.268 193.502 C 249.326 203.347 230.948 203.775 220.014 214.709 C 209.080 225.643 208.652 244.020 198.808 255.963 C 188.963 267.905 170.983 271.846 162.294 284.706 C 153.608 297.562 156.649 315.759 149.229 329.472 C 141.812 343.177 124.858 350.642 118.735 365.097 C 112.613 379.550 119.038 397.039 114.367 412.193 C 109.702 427.323 94.463 438.283 91.218 454.001 C 87.974 469.718 97.656 486.038 96.057 502.291 C 95.633 506.592 94.420 510.764 92.847 514.845 C 92.847 514.845 95.633 506.592 96.057 502.291 C 97.656 486.038 87.974 469.718 91.218 454.001 C 94.463 438.283 109.702 427.323 114.367 412.193 C 119.038 397.039 112.613 379.550 118.735 365.097 C 124.858 350.642 141.812 343.177 149.229 329.472 C 156.649 315.759 153.608 297.562 162.294 284.706 C 170.983 271.846 188.963 267.905 198.808 255.963 C 208.652 244.020 209.080 225.643 220.014 214.709 C 230.948 203.775 249.326 203.347 261.268 193.502 C 273.210 183.658 277.151 165.678 290.011 156.989 C 302.867 148.303 321.064 151.344 334.777 143.923 C 348.482 136.507 355.947 119.553 370.402 113.430 C 384.855 107.308 402.344 113.734 417.497 109.062 C 432.628 104.397 443.588 89.158 459.306 85.914 C 475.023 82.669 491.273 91.300 507.595 90.751 C 512.325 90.593 520.150 87.570 520.150 87.570 C 521.657 54.001 543.497 20.412 554.838 20.412 C 566.179 20.412 585.402 40.683 589.526 87.569 C 593.271 130.142 592.381 164.519 585.145 202.816 C 579.233 234.106 566.040 247.948 554.838 247.746 C 545.455 247.577 531.906 234.201 524.531 202.818 C 530.329 201.533 535.726 198.343 541.366 196.083 C 545.112 208.803 549.945 214.751 554.838 214.751 C 559.731 214.751 564.564 208.803 568.303 196.112 C 570.415 188.943 572.151 179.328 573.337 167.330 C 567.235 164.686 561.223 161.848 554.838 162.366 C 538.568 163.688 525.159 173.345 516.185 174.171 C 502.880 175.396 489.536 167.559 476.677 170.213 C 463.816 172.868 454.849 185.336 442.470 189.153 C 430.072 192.975 415.762 187.718 403.938 192.727 C 392.111 197.736 386.004 211.607 374.791 217.675 C 363.571 223.747 348.683 221.259 338.165 228.366 C 327.643 235.474 324.418 250.185 314.647 258.239 C 304.876 266.294 289.841 266.644 280.895 275.590 C 271.949 284.536 271.599 299.572 263.544 309.343 C 255.490 319.113 240.779 322.338 233.671 332.859 C 226.564 343.378 229.052 358.266 222.980 369.486 C 216.912 380.699 203.041 386.806 198.032 398.633 C 193.023 410.458 198.280 424.767 194.458 437.165 C 190.641 449.544 178.173 458.511 175.518 471.372 C 172.864 484.231 181.327 497.954 179.476 510.880 C 177.323 525.915 167.671 543.127 167.671 549.533 C 167.671 556.054 170.074 562.144 172.595 568.054 M 144.745 569.421 C 141.937 562.923 139.415 556.454 139.415 549.533 C 139.415 531.204 151.027 517.694 152.081 508.059 C 153.640 493.808 144.986 479.465 147.834 465.667 C 150.682 451.868 164.060 442.247 168.156 428.964 C 172.257 415.661 166.616 400.307 171.991 387.620 C 177.366 374.930 192.249 368.377 198.760 356.345 C 205.274 344.307 202.605 328.332 210.231 317.046 C 217.858 305.756 233.643 302.297 242.285 291.813 C 250.927 281.329 251.303 265.196 260.902 255.597 C 270.501 245.998 286.634 245.622 297.118 236.980 C 307.601 228.338 311.061 212.553 322.350 204.925 C 333.637 197.300 349.612 199.969 361.650 193.455 C 373.682 186.944 380.235 172.061 392.925 166.685 C 405.612 161.311 420.966 166.952 434.269 162.851 C 447.552 158.756 457.173 145.378 470.972 142.529 C 484.770 139.681 499.050 147.580 513.365 146.776 C 519.994 146.404 536.891 132.962 554.838 134.110 C 561.312 134.524 566.703 136.842 574.757 139.153 C 574.843 128.007 574.568 117.875 573.949 108.433 M 574.757 139.153 C 574.674 149.953 574.122 159.396 573.337 167.330 M 539.492 79.491 C 550.611 75.575 562.705 76.614 570.184 79.490 M 541.366 196.083 C 552.601 191.583 563.364 193.898 568.303 196.112 M 25.689 549.533 C 25.689 538.192 46.591 521.755 92.847 514.845 M 92.848 584.221 C 46.294 577.286 25.689 560.874 25.689 549.533 M 208.096 579.840 C 173.280 588.027 125.594 589.099 92.848 584.221 M 253.024 549.533 C 253.024 558.918 239.092 572.551 208.096 579.840 M 208.213 519.257 C 237.231 526.656 253.024 540.267 253.024 549.533 M 205.530 477.556 C 202.368 490.912 213.000 503.031 208.213 519.257 M 222.971 446.055 C 219.456 457.455 208.316 465.789 205.530 477.556 M 226.262 410.572 C 221.649 421.461 226.491 434.638 222.971 446.055 M 249.237 383.731 C 243.649 394.057 230.875 399.681 226.262 410.572 M 259.081 350.002 C 252.537 359.689 254.827 373.399 249.237 383.731 M 286.591 328.346 C 279.174 337.344 265.627 340.313 259.081 350.002 M 302.569 297.264 C 294.331 305.502 294.009 319.348 286.591 328.346 M 333.651 281.286 C 324.653 288.703 310.807 289.026 302.569 297.264 M 355.308 253.776 C 345.618 260.322 342.649 273.869 333.651 281.286 M 389.036 243.932 C 378.704 249.523 364.994 247.232 355.308 253.776 M 415.877 220.957 C 404.986 225.570 399.362 238.344 389.036 243.932 M 451.360 217.666 C 439.943 221.186 426.766 216.344 415.877 220.957 M 482.861 200.225 C 471.019 202.676 462.760 214.151 451.360 217.666 M 524.531 202.818 C 509.648 206.118 494.784 197.756 482.861 200.225 "/>
<path fill="#000000" fill-rule="evenodd" stroke="none" d="M 220.029 549.533 C 220.029 554.464 213.988 559.335 201.404 563.036 C 198.164 555.584 195.952 549.588 201.390 536.068 C 214.081 539.807 220.029 544.640 220.029 549.533 Z"/>
<path fill="#000000" fill-rule="evenodd" stroke="none" d="M 58.685 549.533 C 58.685 543.784 66.897 538.117 84.676 534.206 C 82.942 539.106 81.628 544.202 81.628 549.533 C 81.628 554.834 82.927 559.903 84.676 564.860 C 66.897 560.950 58.685 555.283 58.685 549.533 Z"/>
<path fill="#000000" fill-rule="evenodd" stroke="none" d="M 554.838 53.407 C 560.688 53.407 566.453 61.910 570.184 79.490 C 562.705 76.614 550.611 75.575 539.492 79.491 C 543.223 61.910 548.988 53.407 554.838 53.407 Z"/>
<path fill="#000000" fill-rule="evenodd" stroke="none" d="M 554.838 214.751 C 549.945 214.751 545.112 208.803 541.366 196.083 C 552.601 191.583 563.364 193.898 568.303 196.112 C 564.564 208.803 559.731 214.751 554.838 214.751 Z"/>
<path fill="#ffffff" fill-rule="evenodd" stroke="#000000" stroke-width="2" stroke-linecap="round" stroke-linejoin="round" d="M 513.308 257.074 C 521.377 259.392 529.016 252.749 531.615 238.085 C 537.412 205.382 564.014 205.821 564.017 205.818 C 564.012 205.819 536.342 201.426 514.408 217.185 C 495.194 230.990 501.062 253.555 513.308 257.074 Z"/>
<path fill="#ffffff" fill-rule="evenodd" stroke="#000000" stroke-width="2" stroke-linecap="round" stroke-linejoin="round" d="M 513.308 13.662 C 521.377 11.344 529.016 17.987 531.615 32.651 C 537.412 65.353 564.014 64.914 564.017 64.917 C 564.012 64.916 536.342 69.309 514.408 53.550 C 495.195 39.746 501.063 17.180 513.308 13.662 Z"/>
<path fill="#ffffff" fill-rule="evenodd" stroke="#000000" stroke-width="2" stroke-linecap="round" stroke-linejoin="round" d="M 20.226 504.272 C 17.908 512.341 24.551 519.979 39.215 522.579 C 71.918 528.376 71.479 554.978 71.482 554.981 C 71.481 554.976 75.874 527.305 60.114 505.372 C 46.310 486.158 23.744 492.026 20.226 504.272 Z"/>
<path fill="#ffffff" fill-rule="evenodd" stroke="#000000" stroke-width="2" stroke-linecap="round" stroke-linejoin="round" d="M 263.638 504.272 C 265.956 512.341 259.313 519.979 244.649 522.579 C 211.946 528.376 212.386 554.978 212.382 554.981 C 212.383 554.976 207.990 527.306 223.749 505.372 C 237.554 486.158 260.120 492.026 263.638 504.272 Z"/>
</g>
<g id="specs_2">
<path fill="#ff0000" fill-rule="evenodd" stroke="none" d="M 494.118 489.084 C 494.121 489.086 524.782 503.610 524.785 503.611 C 524.784 503.611 509.208 504.173 509.206 504.173 C 509.206 504.174 508.645 519.750 508.645 519.752 C 508.643 519.749 494.119 489.087 494.118 489.084 Z"/>
<path fill="#0000ff" fill-rule="evenodd" stroke="none" d="M 710.211 139.815 C 710.209 139.816 691.650 146.444 691.648 146.444 C 691.648 146.444 697.815 139.816 697.816 139.815 C 697.815 139.814 691.648 133.186 691.648 133.185 C 691.650 133.186 710.209 139.814 710.211 139.815 Z"/>
<path fill="#00ff00" fill-rule="evenodd" stroke="none" d="M 171.342 165.073 C 171.344 165.074 192.177 174.813 192.179 174.814 C 192.178 174.814 181.622 175.248 181.621 175.248 C 181.621 175.249 181.294 185.809 181.294 185.810 C 181.293 185.808 171.343 165.075 171.342 165.073 Z"/>
<path fill="#ffff00" fill-rule="evenodd" stroke="none" d="M 22.840 640.330 C 22.841 640.328 34.645 614.627 34.646 614.625 C 34.646 614.626 35.268 627.604 35.268 627.605 C 35.269 627.605 48.257 627.920 48.259 627.920 C 48.256 627.921 22.842 640.329 22.840 640.330 Z"/>
<path fill="#ffff00" fill-rule="evenodd" stroke="none" d="M 256.314 640.016 C 256.313 640.013 243.996 614.554 243.995 614.552 C 243.995 614.553 243.634 627.541 243.634 627.542 C 243.632 627.542 230.652 628.118 230.651 628.118 C 230.653 628.119 256.312 640.014 256.314 640.016 Z"/>
<path fill="#00ff00" fill-rule="evenodd" stroke="none" d="M 359.089 352.820 C 359.088 352.818 349.349 331.985 349.348 331.983 C 349.348 331.984 348.914 342.540 348.914 342.541 C 348.913 342.541 338.354 342.868 338.353 342.869 C 338.355 342.870 359.087 352.819 359.089 352.820 Z"/>
<path fill="#be0027" fill-rule="evenodd" stroke="none" d="M 143.420 710.333 C 143.421 710.329 154.832 678.378 154.833 678.375 C 154.832 678.376 143.421 688.993 143.420 688.994 C 143.419 688.993 132.008 678.376 132.007 678.375 C 132.008 678.378 143.419 710.329 143.420 710.333 Z"/>
<path fill="#00ffff" fill-rule="evenodd" stroke="none" d="M 648.331 251.193 C 648.329 251.191 622.629 239.388 622.626 239.386 C 622.628 239.386 635.605 238.765 635.606 238.765 C 635.607 238.763 635.921 225.775 635.921 225.774 C 635.923 225.776 648.330 251.190 648.331 251.193 Z"/>
<path fill="#00ffff" fill-rule="evenodd" stroke="none" d="M 648.016 17.718 C 648.014 17.719 622.556 30.036 622.553 30.038 C 622.554 30.038 635.542 30.399 635.543 30.399 C 635.543 30.400 636.119 43.380 636.119 43.381 C 636.120 43.379 648.015 17.721 648.016 17.718 Z"/>
</g>
</g>
</svg>
