<?xml version="1.0" encoding="utf-8"?>
<!-- Generator: Moho 13.5.1 build 20210623 -->
<!DOCTYPE svg PUBLIC "-//W3C//DTD SVG 1.1//EN" "http://www.w3.org/Graphics/SVG/1.1/DTD/svg11.dtd">
<svg version="1.1" id="Frame_0" xmlns="http://www.w3.org/2000/svg" xmlns:xlink="http://www.w3.org/1999/xlink" width="720px" height="720px">
<g id="water">
<g id="water">
<linearGradient id="2E3BB2F1-D5FB-4B3D-A5D1-DD816AA8BC52_0" x1="50.00%" y1="35.20%" x2="50.00%" y2="112.73%">
<stop offset="50.00%" style="stop-color:rgb(255,255,255);stop-opacity:1.00" />
<stop offset="100.00%" style="stop-color:rgb(0,0,0);stop-opacity:1.00" />
</linearGradient>
<path fill="url(#2E3BB2F1-D5FB-4B3D-A5D1-DD816AA8BC52_0)" fill-rule="evenodd" stroke="none" d="M 279.810 17.494 C 279.812 17.502 298.245 79.856 298.245 102.382 C 298.245 124.908 279.810 164.743 279.810 187.270 C 279.810 209.796 298.245 249.631 298.245 272.157 C 298.245 294.683 279.810 334.519 279.810 357.045 C 279.810 379.571 298.245 419.406 298.245 441.932 C 298.245 464.458 279.810 504.294 279.810 526.820 C 279.810 549.346 298.245 589.182 298.245 611.708 C 298.245 634.234 279.812 696.587 279.810 696.595 C 279.825 696.595 430.525 696.595 430.540 696.595 C 430.542 696.587 448.974 634.234 448.974 611.708 C 448.974 589.182 430.540 549.346 430.540 526.820 C 430.540 504.294 448.974 464.458 448.974 441.932 C 448.974 419.406 430.540 379.571 430.540 357.045 C 430.540 334.519 448.974 294.683 448.974 272.157 C 448.974 249.631 430.540 209.796 430.540 187.270 C 430.540 164.743 448.974 124.908 448.974 102.382 C 448.974 79.856 430.542 17.502 430.540 17.494 C 430.525 17.494 279.825 17.494 279.810 17.494 Z"/>
<path fill="none" stroke="#000000" stroke-width="4" stroke-linejoin="round" d="M 430.540 17.494 C 430.525 17.494 279.825 17.494 279.810 17.494 C 279.812 17.502 298.245 79.856 298.245 102.382 C 298.245 124.908 279.810 164.743 279.810 187.270 C 279.810 209.796 298.245 249.631 298.245 272.157 C 298.245 294.683 279.810 334.519 279.810 357.045 C 279.810 379.571 298.245 419.406 298.245 441.932 C 298.245 464.458 279.810 504.294 279.810 526.820 C 279.810 549.346 298.245 589.182 298.245 611.708 C 298.245 634.234 279.812 696.587 279.810 696.595 C 279.825 696.595 430.525 696.595 430.540 696.595 C 430.542 696.587 448.974 634.234 448.974 611.708 C 448.974 589.182 430.540 549.346 430.540 526.820 C 430.540 504.294 448.974 464.458 448.974 441.932 C 448.974 419.406 430.540 379.571 430.540 357.045 C 430.540 334.519 448.974 294.683 448.974 272.157 C 448.974 249.631 430.540 209.796 430.540 187.270 C 430.540 164.743 448.974 124.908 448.974 102.382 C 448.974 79.856 430.542 17.502 430.540 17.494 M 335.927 611.708 C 335.927 634.234 317.495 696.587 317.493 696.595 M 317.493 526.820 C 317.493 549.346 335.927 589.182 335.927 611.708 M 335.927 441.932 C 335.927 464.458 317.493 504.294 317.493 526.820 M 317.493 357.045 C 317.493 379.571 335.927 419.406 335.927 441.932 M 335.927 272.157 C 335.927 294.683 317.493 334.519 317.493 357.045 M 317.493 187.270 C 317.493 209.796 335.927 249.631 335.927 272.157 M 335.927 102.382 C 335.927 124.908 317.493 164.743 317.493 187.270 M 317.493 17.494 C 317.495 17.502 335.927 79.856 335.927 102.382 M 411.292 611.708 C 411.292 634.234 392.860 696.587 392.858 696.595 M 392.858 526.820 C 392.858 549.346 411.292 589.182 411.292 611.708 M 411.292 441.932 C 411.292 464.458 392.858 504.294 392.858 526.820 M 392.858 357.045 C 392.858 379.571 411.292 419.406 411.292 441.932 M 411.292 272.157 C 411.292 294.683 392.858 334.519 392.858 357.045 M 392.858 187.270 C 392.858 209.796 411.292 249.631 411.292 272.157 M 411.292 102.382 C 411.292 124.908 392.858 164.743 392.858 187.270 M 392.858 17.494 C 392.860 17.502 411.292 79.856 411.292 102.382 M 373.609 611.708 C 373.609 634.234 355.177 696.587 355.175 696.595 M 355.175 526.820 C 355.175 549.346 373.609 589.182 373.609 611.708 M 373.609 441.932 C 373.609 464.458 355.175 504.294 355.175 526.820 M 355.175 357.045 C 355.175 379.571 373.609 419.406 373.609 441.932 M 373.609 272.157 C 373.609 294.683 355.175 334.519 355.175 357.045 M 355.175 187.270 C 355.175 209.796 373.609 249.631 373.609 272.157 M 373.609 102.382 C 373.609 124.908 355.175 164.743 355.175 187.270 M 355.175 17.494 C 355.177 17.502 373.609 79.856 373.609 102.382 "/>
<path fill="#ffffff" fill-rule="evenodd" stroke="#000000" stroke-width="4" stroke-linejoin="round" d="M 295.451 581.042 C 311.893 589.479 313.988 605.188 313.989 605.191 C 313.987 605.184 313.579 567.734 290.739 538.617 C 279.210 523.921 260.332 522.304 253.734 536.786 C 245.237 555.440 262.437 564.102 295.451 581.042 M 203.090 619.744 C 221.556 619.400 231.839 629.695 231.842 629.696 C 231.836 629.692 208.280 597.164 170.333 587.223 C 152.264 582.489 136.729 596.372 139.947 608.420 C 146.534 633.088 165.561 620.443 203.090 619.744 M 424.549 581.042 C 408.020 589.309 406.012 605.188 406.011 605.191 C 406.013 605.184 405.792 567.230 429.261 538.617 C 441.831 523.293 464.672 522.348 468.574 538.517 C 473.475 558.819 461.674 562.475 424.549 581.042 M 516.333 619.167 C 498.356 622.360 488.161 629.695 488.158 629.696 C 488.164 629.692 509.411 596.009 549.667 587.223 C 567.916 583.239 585.072 597.103 580.053 608.420 C 568.575 634.306 546.534 613.802 516.333 619.167 M 260.839 696.005 C 263.245 698.895 263.149 702.513 263.149 702.514 C 263.169 702.514 460.567 702.514 460.587 702.514 C 460.587 702.513 459.805 699.233 461.737 695.363 C 479.118 660.560 552.716 692.484 522.413 651.734 C 489.692 607.731 456.420 698.498 433.108 666.894 C 415.159 642.559 498.320 616.890 458.706 602.015 C 396.815 578.776 425.818 671.501 385.822 662.246 C 350.429 654.056 423.843 582.263 356.370 583.802 C 298.604 585.119 368.321 647.420 333.707 662.109 C 292.231 679.709 303.018 570.338 248.262 602.958 C 217.337 621.380 303.116 638.810 274.344 664.858 C 259.085 678.672 194.011 609.640 180.423 662.382 C 171.325 697.696 232.491 661.948 260.839 696.005 Z"/>
</g>
<g id="specs_2">
<path fill="#ff0000" fill-rule="evenodd" stroke="none" d="M 360.000 84.824 C 360.001 84.821 372.432 50.015 372.433 50.012 C 372.432 50.013 360.001 61.579 360.000 61.580 C 359.999 61.579 347.568 50.013 347.567 50.012 C 347.568 50.015 359.999 84.821 360.000 84.824 Z"/>
<path fill="#0000ff" fill-rule="evenodd" stroke="none" d="M 360.000 7.523 C 360.001 7.525 367.221 27.743 367.222 27.745 C 367.221 27.744 360.001 21.026 360.000 21.026 C 359.999 21.026 352.779 27.744 352.778 27.745 C 352.779 27.743 359.999 7.525 360.000 7.523 Z"/>
<path fill="#00ff00" fill-rule="evenodd" stroke="none" d="M 200.677 361.004 C 200.679 361.003 220.861 353.680 220.863 353.679 C 220.862 353.680 214.180 360.935 214.180 360.935 C 214.180 360.936 220.935 368.122 220.935 368.123 C 220.933 368.122 200.679 361.004 200.677 361.004 Z"/>
<path fill="#00ff00" fill-rule="evenodd" stroke="none" d="M 519.323 361.004 C 519.321 361.003 499.139 353.680 499.137 353.679 C 499.138 353.680 505.820 360.935 505.820 360.935 C 505.820 360.936 499.065 368.122 499.065 368.123 C 499.067 368.122 519.321 361.004 519.323 361.004 Z"/>
<path fill="#be0027" fill-rule="evenodd" stroke="none" d="M 360.000 724.223 C 360.001 724.219 372.432 689.413 372.433 689.410 C 372.432 689.411 360.001 700.977 360.000 700.978 C 359.999 700.977 347.568 689.411 347.567 689.410 C 347.568 689.413 359.999 724.219 360.000 724.223 Z"/>
</g>
</g>
</svg>
