<?xml version="1.0" encoding="utf-8"?>
<!-- Generator: Moho 13.5.1 build 20210623 -->
<!DOCTYPE svg PUBLIC "-//W3C//DTD SVG 1.1//EN" "http://www.w3.org/Graphics/SVG/1.1/DTD/svg11.dtd">
<svg version="1.1" id="Frame_0" xmlns="http://www.w3.org/2000/svg" xmlns:xlink="http://www.w3.org/1999/xlink" width="720px" height="720px">
<g id="wave">
<g id="Layer_2">
<path fill="#000000" fill-rule="evenodd" stroke="#ffffff" stroke-width="4" stroke-linejoin="round" d="M 46.599 319.536 C 89.157 50.190 410.686 38.718 499.854 140.403 C 524.050 167.997 550.007 223.835 507.356 227.340 C 460.387 231.199 386.275 281.623 385.337 356.280 C 384.278 440.605 522.830 502.199 522.843 502.214 C 522.837 502.214 457.479 500.270 457.473 500.270 C 457.449 500.275 328.431 546.924 219.637 556.838 C 133.964 564.646 24.325 460.513 46.599 319.536 Z"/>
<path fill="none" stroke="#ffffff" stroke-width="4" stroke-linejoin="round" d="M 103.011 316.457 C 103.016 316.473 95.189 398.422 152.592 468.067 C 218.734 548.315 327.634 546.154 327.651 546.161 M 176.775 183.897 C 176.773 183.914 137.003 285.820 151.475 349.079 C 165.022 408.297 193.233 438.964 239.363 478.488 C 286.638 518.993 362.593 540.427 362.606 540.433 M 241.260 187.737 C 241.257 187.752 206.501 276.406 215.574 332.948 C 225.286 393.469 246.619 429.316 290.981 471.615 C 325.023 504.073 399.130 526.131 399.141 526.136 M 317.769 181.222 C 317.764 181.237 269.916 267.956 274.581 326.703 C 279.039 382.840 298.777 416.162 336.819 457.685 C 365.559 489.056 430.348 514.726 430.357 514.732 M 453.727 170.256 C 453.715 170.273 338.055 222.555 331.124 343.155 C 328.140 395.077 362.209 434.468 393.757 461.532 C 420.821 484.750 475.503 503.337 475.511 503.341 "/>
</g>
<g id="wave">
<linearGradient id="B3357A75-C65C-4F5F-B1E6-6B33304CE96E_0" x1="49.40%" y1="-6.12%" x2="24.68%" y2="140.20%">
<stop offset="50.00%" style="stop-color:rgb(255,255,255);stop-opacity:1.00" />
<stop offset="100.00%" style="stop-color:rgb(0,0,0);stop-opacity:1.00" />
</linearGradient>
<path fill="url(#B3357A75-C65C-4F5F-B1E6-6B33304CE96E_0)" fill-rule="evenodd" stroke="none" d="M 158.205 457.279 C 155.134 469.823 145.142 479.946 133.137 483.802 C 154.898 513.719 189.902 528.054 234.610 534.094 C 332.542 547.325 382.056 494.086 461.985 487.805 C 575.633 478.873 675.212 555.994 675.234 556.001 C 675.212 555.998 564.122 505.700 464.075 525.433 C 403.540 537.373 344.486 591.066 221.206 579.538 C 154.007 573.254 58.018 546.128 53.262 453.095 C 52.811 444.276 54.549 435.546 57.730 427.050 C 62.025 415.582 72.813 403.686 81.620 399.599 C 127.322 378.389 168.724 414.317 158.205 457.279 Z"/>
<path fill="none" stroke="#000000" stroke-width="4" stroke-linejoin="round" d="M 125.271 453.875 C 122.464 456.330 110.718 454.717 115.780 448.438 M 110.842 428.083 C 129.548 426.277 134.803 445.540 125.271 453.875 M 93.162 466.740 C 86.554 453.035 90.568 430.041 110.842 428.083 M 133.137 483.802 C 117.741 488.749 100.878 482.740 93.162 466.740 M 158.205 457.279 C 155.134 469.823 145.142 479.946 133.137 483.802 C 154.898 513.719 189.902 528.054 234.610 534.094 C 332.542 547.325 382.056 494.086 461.985 487.805 C 575.633 478.873 675.212 555.994 675.234 556.001 C 675.212 555.998 564.122 505.700 464.075 525.433 C 403.540 537.373 344.486 591.066 221.206 579.538 C 154.007 573.254 58.018 546.128 53.262 453.095 C 52.811 444.276 54.549 435.546 57.730 427.050 C 62.025 415.582 72.813 403.686 81.620 399.599 C 127.322 378.389 168.724 414.317 158.205 457.279 "/>
<radialGradient id="B3357A75-C65C-4F5F-B1E6-6B33304CE96E_1" cx="56.96%" cy="45.84%" r="80.14%">
<stop offset="50.00%" style="stop-color:rgb(255,255,255);stop-opacity:1.00" />
<stop offset="100.00%" style="stop-color:rgb(0,0,0);stop-opacity:1.00" />
</radialGradient>
<path fill="none" stroke="#ffffff" stroke-width="1" stroke-linecap="butt" stroke-linejoin="round" d="M 57.730 427.050 C 62.025 415.582 72.813 403.686 81.620 399.599 "/>
<path fill="none" stroke="#ffffff" stroke-width="1" stroke-linecap="butt" stroke-linejoin="round" d="M 53.262 453.095 C 52.811 444.276 54.549 435.546 57.730 427.050 "/>
<path fill="url(#B3357A75-C65C-4F5F-B1E6-6B33304CE96E_1)" fill-rule="evenodd" stroke="none" d="M 57.730 427.050 C 62.025 415.582 72.813 403.686 81.620 399.599 C 75.358 387.785 76.211 371.927 74.847 361.708 C 92.548 372.373 117.250 372.850 133.923 360.100 C 169.105 333.194 162.466 285.029 122.039 264.290 C 117.145 261.777 111.075 259.466 104.377 257.792 C 90.628 254.356 56.746 254.157 33.667 289.527 C 33.789 290.458 22.472 308.585 19.789 335.633 C 16.564 368.151 27.320 415.946 53.262 453.095 C 52.811 444.276 54.549 435.546 57.730 427.050 Z"/>
<path fill="none" stroke="#000000" stroke-width="4" stroke-linejoin="round" d="M 57.730 427.050 C 62.025 415.582 72.813 403.686 81.620 399.599 C 75.358 387.785 76.211 371.927 74.847 361.708 C 92.548 372.373 117.250 372.850 133.923 360.100 C 169.105 333.194 162.466 285.029 122.039 264.290 C 117.145 261.777 111.075 259.466 104.377 257.792 C 90.628 254.356 56.746 254.157 33.667 289.527 C 33.789 290.458 22.472 308.585 19.789 335.633 C 16.564 368.151 27.320 415.946 53.262 453.095 C 52.811 444.276 54.549 435.546 57.730 427.050 M 60.392 324.581 C 56.878 340.320 62.539 354.088 74.847 361.708 M 105.116 299.907 C 85.258 286.562 64.889 304.435 60.392 324.581 M 102.392 333.681 C 116.756 331.582 122.999 311.925 105.116 299.907 M 96.406 321.480 C 89.082 323.312 92.637 335.106 102.392 333.681 "/>
<radialGradient id="B3357A75-C65C-4F5F-B1E6-6B33304CE96E_2" cx="66.49%" cy="62.10%" r="88.46%">
<stop offset="50.00%" style="stop-color:rgb(255,255,255);stop-opacity:1.00" />
<stop offset="100.00%" style="stop-color:rgb(0,0,0);stop-opacity:1.00" />
</radialGradient>
<path fill="none" stroke="#ffffff" stroke-width="1" stroke-linecap="butt" stroke-linejoin="round" d="M 33.667 289.527 C 56.746 254.157 90.628 254.356 104.377 257.792 "/>
<path fill="none" stroke="#ffffff" stroke-width="1" stroke-linecap="butt" stroke-linejoin="round" d="M 104.377 257.792 C 111.075 259.466 117.145 261.777 122.039 264.290 "/>
<path fill="url(#B3357A75-C65C-4F5F-B1E6-6B33304CE96E_2)" fill-rule="evenodd" stroke="none" d="M 122.039 264.290 C 126.137 248.736 134.129 237.023 144.190 230.658 C 148.759 240.393 155.868 248.459 165.415 253.174 C 202.993 271.735 241.180 253.676 251.671 216.580 C 254.858 205.310 255.537 192.474 252.995 178.392 C 251.801 171.777 249.508 164.557 246.117 157.695 C 240.267 145.859 230.814 135.716 218.687 129.410 C 191.988 115.528 159.126 111.028 128.183 124.646 C 53.969 152.785 29.558 258.281 33.667 289.527 C 56.746 254.157 90.628 254.356 104.377 257.792 C 111.075 259.466 117.145 261.777 122.039 264.290 Z"/>
<path fill="none" stroke="#000000" stroke-width="4" stroke-linejoin="round" d="M 122.039 264.290 C 126.137 248.736 134.129 237.023 144.190 230.658 C 148.759 240.393 155.868 248.459 165.415 253.174 C 202.993 271.735 241.180 253.676 251.671 216.580 C 254.858 205.310 255.537 192.474 252.995 178.392 C 251.801 171.777 249.508 164.557 246.117 157.695 C 240.267 145.859 230.814 135.716 218.687 129.410 C 191.988 115.528 159.126 111.028 128.183 124.646 C 53.969 152.785 29.558 258.281 33.667 289.527 C 56.746 254.157 90.628 254.356 104.377 257.792 C 111.075 259.466 117.145 261.777 122.039 264.290 M 167.569 164.888 C 139.304 173.436 132.949 206.712 144.190 230.658 M 211.842 197.924 C 216.120 172.406 188.937 158.426 167.569 164.888 M 177.359 210.321 C 185.840 223.533 207.989 220.905 211.842 197.924 M 186.704 198.977 C 181.630 192.581 171.600 201.349 177.359 210.321 "/>
<radialGradient id="B3357A75-C65C-4F5F-B1E6-6B33304CE96E_3" cx="58.03%" cy="50.64%" r="70.44%">
<stop offset="50.00%" style="stop-color:rgb(255,255,255);stop-opacity:1.00" />
<stop offset="100.00%" style="stop-color:rgb(0,0,0);stop-opacity:1.00" />
</radialGradient>
<path fill="none" stroke="#ffffff" stroke-width="1" stroke-linecap="butt" stroke-linejoin="round" d="M 252.995 178.392 C 251.801 171.777 249.508 164.557 246.117 157.695 "/>
<path fill="none" stroke="#ffffff" stroke-width="1" stroke-linecap="butt" stroke-linejoin="round" d="M 246.117 157.695 C 240.267 145.859 230.814 135.716 218.687 129.410 "/>
<path fill="none" stroke="#ffffff" stroke-width="1" stroke-linecap="butt" stroke-linejoin="round" d="M 218.687 129.410 C 191.988 115.528 159.126 111.028 128.183 124.646 "/>
<path fill="none" stroke="#ffffff" stroke-width="1" stroke-linecap="butt" stroke-linejoin="round" d="M 251.671 216.580 C 254.858 205.310 255.537 192.474 252.995 178.392 "/>
<path fill="url(#B3357A75-C65C-4F5F-B1E6-6B33304CE96E_3)" fill-rule="evenodd" stroke="none" d="M 252.995 178.392 C 251.801 171.777 249.508 164.557 246.117 157.695 C 240.267 145.859 230.814 135.716 218.687 129.410 C 191.988 115.528 159.126 111.028 128.183 124.646 C 130.084 123.925 165.710 97.104 207.131 78.410 C 305.127 34.182 362.358 84.250 363.216 83.937 C 390.854 106.917 400.605 132.595 399.536 152.620 C 398.060 180.276 387.756 207.984 366.551 227.213 C 325.264 264.652 273.630 253.767 251.671 216.580 C 254.858 205.310 255.537 192.474 252.995 178.392 Z"/>
<path fill="none" stroke="#000000" stroke-width="4" stroke-linejoin="round" d="M 252.995 178.392 C 251.801 171.777 249.508 164.557 246.117 157.695 C 240.267 145.859 230.814 135.716 218.687 129.410 C 191.988 115.528 159.126 111.028 128.183 124.646 C 130.084 123.925 165.710 97.104 207.131 78.410 C 305.127 34.182 362.358 84.250 363.216 83.937 C 390.854 106.917 400.605 132.595 399.536 152.620 C 398.060 180.276 387.756 207.984 366.551 227.213 C 325.264 264.652 273.630 253.767 251.671 216.580 C 254.858 205.310 255.537 192.474 252.995 178.392 M 330.248 132.007 C 301.976 107.040 260.374 126.415 246.117 157.695 M 324.640 196.068 C 352.526 184.683 349.727 149.209 330.248 132.007 M 291.255 169.513 C 283.364 185.998 299.526 206.322 324.640 196.068 M 308.208 171.822 C 311.435 162.883 296.613 158.318 291.255 169.513 "/>
<radialGradient id="B3357A75-C65C-4F5F-B1E6-6B33304CE96E_4" cx="45.63%" cy="53.28%" r="77.11%">
<stop offset="50.00%" style="stop-color:rgb(255,255,255);stop-opacity:1.00" />
<stop offset="100.00%" style="stop-color:rgb(0,0,0);stop-opacity:1.00" />
</radialGradient>
<path fill="none" stroke="#ffffff" stroke-width="1" stroke-linecap="butt" stroke-linejoin="round" d="M 366.551 227.213 C 387.756 207.984 398.060 180.276 399.536 152.620 "/>
<path fill="none" stroke="#ffffff" stroke-width="1" stroke-linecap="butt" stroke-linejoin="round" d="M 399.536 152.620 C 400.605 132.595 390.854 106.917 363.216 83.937 "/>
<path fill="url(#B3357A75-C65C-4F5F-B1E6-6B33304CE96E_4)" fill-rule="evenodd" stroke="none" d="M 405.824 297.616 C 377.746 278.215 365.859 251.122 366.551 227.213 C 387.756 207.984 398.060 180.276 399.536 152.620 C 400.605 132.595 390.854 106.917 363.216 83.937 C 423.781 61.834 467.963 66.436 516.985 96.421 C 552.055 117.873 586.927 178.774 570.459 235.284 C 561.117 267.340 531.550 297.498 497.946 308.900 C 466.060 319.720 429.019 313.644 405.824 297.616 Z"/>
<path fill="none" stroke="#000000" stroke-width="4" stroke-linejoin="round" d="M 448.502 198.434 C 462.432 201.507 461.164 219.308 450.316 218.015 M 429.210 242.707 C 409.492 219.163 428.297 193.976 448.502 198.434 M 502.395 234.138 C 487.038 259.650 449.522 266.959 429.210 242.707 M 428.876 142.456 C 483.782 132.738 530.543 187.379 502.395 234.138 M 399.536 152.620 C 408.065 147.909 417.916 144.396 428.876 142.456 M 405.824 297.616 C 377.746 278.215 365.859 251.122 366.551 227.213 C 387.756 207.984 398.060 180.276 399.536 152.620 C 400.605 132.595 390.854 106.917 363.216 83.937 C 423.781 61.834 467.963 66.436 516.985 96.421 C 552.055 117.873 586.927 178.774 570.459 235.284 C 561.117 267.340 531.550 297.498 497.946 308.900 C 466.060 319.720 429.019 313.644 405.824 297.616 "/>
</g>
<g id="specs_2">
<path fill="#ff0000" fill-rule="evenodd" stroke="none" d="M 681.884 561.515 C 681.887 561.515 713.117 568.567 713.120 568.568 C 713.118 568.568 698.891 572.297 698.889 572.297 C 698.889 572.299 701.585 586.758 701.585 586.759 C 701.583 586.757 681.886 561.517 681.884 561.515 Z"/>
<path fill="#0000ff" fill-rule="evenodd" stroke="none" d="M 302.332 40.219 C 302.332 40.221 308.587 57.735 308.588 57.737 C 308.587 57.737 302.332 51.917 302.332 51.916 C 302.331 51.917 296.076 57.737 296.076 57.737 C 296.076 57.735 302.331 40.221 302.332 40.219 Z"/>
<path fill="#00ff00" fill-rule="evenodd" stroke="none" d="M 6.415 337.547 C 6.417 337.546 23.899 331.203 23.901 331.202 C 23.901 331.203 18.113 337.487 18.112 337.488 C 18.113 337.489 23.964 343.714 23.965 343.715 C 23.963 343.714 6.417 337.548 6.415 337.547 Z"/>
<path fill="#ffff00" fill-rule="evenodd" stroke="none" d="M 92.439 547.611 C 92.440 547.609 100.202 530.709 100.203 530.708 C 100.203 530.708 100.611 539.242 100.611 539.243 C 100.612 539.243 109.153 539.451 109.154 539.451 C 109.152 539.451 92.441 547.610 92.439 547.611 Z"/>
<path fill="#ffff00" fill-rule="evenodd" stroke="none" d="M 650.557 547.404 C 650.556 547.402 642.457 530.661 642.456 530.659 C 642.456 530.660 642.219 539.201 642.219 539.202 C 642.218 539.202 633.682 539.580 633.681 539.580 C 633.683 539.581 650.555 547.403 650.557 547.404 Z"/>
<path fill="#00ff00" fill-rule="evenodd" stroke="none" d="M 598.248 337.547 C 598.247 337.546 580.764 331.203 580.763 331.202 C 580.763 331.203 586.551 337.487 586.552 337.488 C 586.551 337.489 580.700 343.714 580.699 343.715 C 580.701 343.714 598.247 337.548 598.248 337.547 Z"/>
<path fill="#00ffff" fill-rule="evenodd" stroke="none" d="M 540.318 103.053 C 540.318 103.055 534.109 120.586 534.109 120.588 C 534.108 120.587 532.933 112.124 532.933 112.123 C 532.932 112.123 524.407 112.686 524.406 112.686 C 524.408 112.685 540.317 103.054 540.318 103.053 Z"/>
<path fill="#00ffff" fill-rule="evenodd" stroke="none" d="M 93.347 127.378 C 93.348 127.380 100.712 144.457 100.712 144.459 C 100.712 144.458 101.321 135.936 101.321 135.935 C 101.322 135.935 109.866 135.928 109.866 135.928 C 109.865 135.928 93.349 127.379 93.347 127.378 Z"/>
<path fill="#be0027" fill-rule="evenodd" stroke="none" d="M 302.332 595.972 C 302.333 595.969 313.101 565.818 313.102 565.815 C 313.101 565.815 302.333 575.835 302.332 575.836 C 302.331 575.835 291.563 565.815 291.562 565.815 C 291.563 565.818 302.331 595.969 302.332 595.972 Z"/>
</g>
</g>
</svg>
