<?xml version="1.0" encoding="utf-8"?>
<!-- Generator: Moho 13.5.1 build 20210623 -->
<!DOCTYPE svg PUBLIC "-//W3C//DTD SVG 1.1//EN" "http://www.w3.org/Graphics/SVG/1.1/DTD/svg11.dtd">
<svg version="1.1" id="Frame_0" xmlns="http://www.w3.org/2000/svg" xmlns:xlink="http://www.w3.org/1999/xlink" width="720px" height="720px">
<g id="wheel_of_fortune">
<g id="wheel_of_fortune">
<g id="wheel_of_fortune">
<radialGradient id="1241C0CD-E909-4A7C-8BA7-10D96A7D56BF_0" cx="50.00%" cy="50.00%" r="87.66%">
<stop offset="50.00%" style="stop-color:rgb(255,255,255);stop-opacity:1.00" />
<stop offset="100.00%" style="stop-color:rgb(0,0,0);stop-opacity:1.00" />
</radialGradient>
<path id="S1" fill="url(#1241C0CD-E909-4A7C-8BA7-10D96A7D56BF_0)" fill-rule="evenodd" stroke="#000000" stroke-width="4" stroke-linecap="round" stroke-linejoin="round" d="M 360.000 635.874 C 526.048 635.874 660.000 501.922 660.000 335.874 C 660.000 169.826 526.048 35.874 360.000 35.874 C 193.952 35.874 60.000 169.826 60.000 335.874 C 60.000 501.922 193.952 635.874 360.000 635.874 Z"/>
<radialGradient id="1241C0CD-E909-4A7C-8BA7-10D96A7D56BF_1" cx="50.00%" cy="50.00%" r="86.47%">
<stop offset="50.00%" style="stop-color:rgb(255,255,255);stop-opacity:1.00" />
<stop offset="100.00%" style="stop-color:rgb(0,0,0);stop-opacity:1.00" />
</radialGradient>
<path id="S10" fill="url(#1241C0CD-E909-4A7C-8BA7-10D96A7D56BF_1)" fill-rule="evenodd" stroke="#000000" stroke-width="4" stroke-linecap="round" stroke-linejoin="round" d="M 360.000 543.364 C 474.845 543.364 567.491 450.718 567.491 335.874 C 567.491 221.029 474.845 128.383 360.000 128.383 C 245.155 128.383 152.509 221.029 152.509 335.874 C 152.509 450.718 245.155 543.364 360.000 543.364 Z"/>
<path id="S3" fill="none" stroke="#000000" stroke-width="4" stroke-linecap="round" stroke-linejoin="round" d="M 172.206 328.525 C 172.206 333.424 172.206 338.323 172.206 343.222 M 547.794 328.525 C 547.794 333.424 547.794 338.323 547.794 343.222 M 487.595 473.860 C 491.059 470.396 494.523 466.932 497.987 463.468 M 222.013 208.279 C 225.477 204.815 228.941 201.351 232.405 197.887 M 222.013 463.468 C 225.477 466.932 228.941 470.396 232.405 473.860 M 487.595 197.887 C 491.059 201.351 494.523 204.815 497.987 208.279 M 352.652 523.668 C 357.551 523.668 362.449 523.668 367.348 523.668 M 352.652 148.079 C 357.551 148.079 362.449 148.079 367.348 148.079 M 310.590 481.116 C 316.080 486.606 327.058 497.585 327.060 497.587 C 327.062 497.585 343.528 481.118 343.530 481.116 C 343.532 481.118 359.998 497.585 360.000 497.587 C 360.002 497.585 376.468 481.118 376.470 481.116 C 376.472 481.118 392.938 497.585 392.940 497.587 C 392.942 497.585 403.920 486.606 409.410 481.116 M 310.590 464.647 C 316.080 470.137 327.058 481.115 327.060 481.117 C 327.062 481.115 343.528 464.648 343.530 464.647 C 343.532 464.648 359.998 481.115 360.000 481.117 C 360.002 481.115 376.468 464.648 376.470 464.647 C 376.472 464.648 392.938 481.115 392.940 481.117 C 392.942 481.115 403.920 470.137 409.410 464.647 M 339.251 235.355 C 353.084 235.355 366.916 235.355 380.749 235.355 M 380.749 169.882 C 380.749 181.366 371.485 190.631 360.000 190.631 C 348.515 190.631 339.251 181.366 339.251 169.882 M 339.251 211.379 C 339.251 199.895 348.515 190.631 360.000 190.631 C 371.485 190.631 380.749 199.895 380.749 211.379 C 380.749 222.864 371.485 232.128 360.000 232.128 C 348.515 232.128 339.251 222.864 339.251 211.379 M 463.745 315.124 C 463.745 328.957 463.745 342.790 463.745 356.623 M 484.494 315.124 C 484.498 315.126 525.988 335.872 525.992 335.874 C 525.988 335.876 484.498 356.621 484.494 356.623 C 484.494 356.619 484.494 315.128 484.494 315.124 M 194.025 335.874 C 194.025 319.068 207.582 305.510 224.388 305.510 C 241.194 305.510 254.751 319.068 254.751 335.874 C 254.751 352.680 241.194 366.237 224.388 366.237 C 207.582 366.237 194.025 352.679 194.025 335.874 M 227.954 467.919 C 315.985 379.889 404.015 291.858 492.046 203.828 M 227.954 203.828 C 315.985 291.858 404.015 379.889 492.046 467.919 M 173.258 335.874 C 297.753 335.874 422.247 335.874 546.742 335.874 M 360.000 149.132 C 360.000 273.626 360.000 398.121 360.000 522.615 M 297.753 335.874 C 297.753 370.327 325.547 398.121 360.000 398.121 C 394.453 398.121 422.247 370.327 422.247 335.874 C 422.247 301.420 394.453 273.626 360.000 273.626 C 325.547 273.626 297.753 301.420 297.753 335.874 "/>
</g>
<g id="">
<path id="S1" fill="#000000" fill-rule="evenodd" stroke="none" d="M 170.356 161.826 C 170.379 161.022 170.655 160.011 171.184 158.793 C 171.413 158.195 171.655 157.885 171.907 157.862 C 172.183 157.816 172.620 158.092 173.217 158.689 C 174.343 159.816 175.469 160.941 176.594 162.067 C 177.238 162.710 178.777 163.974 181.213 165.858 C 183.671 167.719 185.578 169.327 186.934 170.683 C 190.978 174.727 192.460 178.920 191.380 183.263 C 191.104 184.365 190.748 185.135 190.311 185.572 C 189.714 186.169 189.013 186.066 188.209 185.262 C 187.979 185.032 187.727 184.710 187.451 184.297 C 185.291 181.172 183.166 178.334 181.075 175.784 C 178.984 173.188 177.330 171.258 176.112 169.994 C 174.894 168.730 173.791 167.581 172.803 166.547 C 171.815 165.467 171.149 164.617 170.804 163.997 C 170.460 163.331 170.310 162.607 170.356 161.826 M 180.868 134.495 C 174.274 141.090 167.680 147.684 161.085 154.278 C 160.626 154.738 160.120 154.967 159.569 154.967 C 159.041 154.944 158.627 154.669 158.328 154.140 C 156.422 150.763 154.514 147.386 152.607 144.008 C 152.354 143.479 152.274 142.916 152.366 142.319 C 152.481 141.698 152.699 141.227 153.021 140.906 C 153.319 140.607 153.572 140.561 153.779 140.768 C 154.468 141.457 155.330 142.089 156.364 142.663 C 157.421 143.215 158.259 143.479 158.880 143.456 C 167.324 135.013 175.768 126.569 184.211 118.125 C 184.671 117.665 185.061 117.458 185.383 117.504 C 185.705 117.504 186.072 117.803 186.486 118.400 C 187.336 119.642 188.186 120.883 189.036 122.123 C 189.519 122.881 189.829 123.513 189.967 124.018 C 190.082 124.501 190.093 124.880 190.001 125.155 C 189.932 125.408 189.875 125.695 189.829 126.017 C 189.760 126.316 189.852 126.775 190.105 127.396 C 190.357 128.016 190.828 128.809 191.518 129.774 C 192.712 131.520 194.229 133.312 196.067 135.150 C 197.836 136.919 200.547 139.125 204.201 141.767 C 207.831 144.387 210.565 146.615 212.403 148.454 C 213.552 149.602 214.368 150.923 214.850 152.417 C 215.356 153.887 215.746 155.634 216.022 157.656 C 216.091 158.184 216.102 158.540 216.056 158.724 C 216.033 158.885 215.896 159.206 215.643 159.689 C 215.390 160.126 215.137 160.562 214.885 160.999 C 214.586 161.481 214.345 161.722 214.161 161.722 C 214.023 161.722 213.782 161.550 213.437 161.205 C 211.829 159.597 208.543 156.288 203.580 151.280 C 198.617 146.225 192.919 140.481 186.486 134.047 C 185.590 133.151 184.717 132.715 183.867 132.738 C 183.039 132.738 182.040 133.324 180.868 134.495 Z"/>
</g>
<g id="">
<path id="S1" fill="#000000" fill-rule="evenodd" stroke="none" d="M 169.930 519.214 C 170.642 518.502 171.711 517.456 173.135 516.078 C 174.537 514.676 175.468 513.745 175.927 513.286 C 177.696 511.517 179.936 508.863 182.648 505.325 C 185.336 501.809 187.599 499.132 189.437 497.294 C 190.586 496.146 191.907 495.330 193.401 494.847 C 194.871 494.342 196.617 493.951 198.639 493.676 C 199.168 493.607 199.524 493.595 199.708 493.641 C 199.868 493.664 200.190 493.802 200.673 494.055 C 201.109 494.308 201.546 494.560 201.982 494.813 C 202.465 495.112 202.706 495.353 202.706 495.537 C 202.706 495.674 202.534 495.916 202.189 496.260 C 193.171 505.279 184.153 514.297 175.134 523.315 C 174.307 524.142 173.928 524.935 173.997 525.693 C 174.043 526.428 174.537 527.474 175.479 528.829 C 178.236 532.689 179.638 534.642 179.684 534.688 C 179.982 535.125 180.063 535.619 179.925 536.170 C 179.787 536.722 179.477 537.147 178.994 537.445 C 176.134 539.134 173.274 540.823 170.413 542.512 C 169.907 542.788 169.344 542.868 168.724 542.753 C 168.104 542.638 167.633 542.420 167.311 542.098 C 167.012 541.799 166.966 541.547 167.173 541.340 C 167.839 540.674 168.414 539.892 168.896 538.996 C 169.356 538.077 169.563 537.296 169.517 536.653 C 168.299 534.792 167.357 533.137 166.691 531.690 C 166.001 530.265 165.553 529.059 165.346 528.071 C 165.094 527.083 165.105 526.153 165.381 525.280 C 165.611 524.406 165.932 523.671 166.346 523.074 C 166.759 522.476 167.368 521.776 168.173 520.971 C 168.759 520.385 169.345 519.800 169.930 519.214 Z"/>
</g>
<g id="">
<path id="S1" fill="#000000" fill-rule="evenodd" stroke="none" d="M 547.538 506.801 C 547.515 507.605 547.239 508.616 546.711 509.834 C 546.481 510.431 546.240 510.741 545.987 510.764 C 545.711 510.810 545.275 510.535 544.677 509.937 C 543.551 508.811 542.426 507.685 541.300 506.560 C 540.656 505.916 539.117 504.653 536.682 502.769 C 534.223 500.908 532.316 499.299 530.961 497.944 C 526.917 493.900 525.435 489.707 526.515 485.364 C 526.790 484.261 527.146 483.492 527.583 483.055 C 528.180 482.458 528.881 482.561 529.685 483.365 C 529.915 483.595 530.168 483.917 530.443 484.330 C 532.603 487.455 534.729 490.293 536.819 492.843 C 538.910 495.439 540.565 497.369 541.782 498.633 C 543.000 499.897 544.103 501.045 545.091 502.079 C 546.079 503.159 546.745 504.009 547.090 504.630 C 547.435 505.296 547.584 506.020 547.538 506.801 M 537.026 534.131 C 543.620 527.537 550.214 520.942 556.809 514.349 C 557.268 513.889 557.774 513.659 558.325 513.659 C 558.854 513.682 559.267 513.958 559.566 514.487 C 561.473 517.864 563.380 521.241 565.287 524.619 C 565.540 525.148 565.620 525.711 565.528 526.308 C 565.414 526.928 565.195 527.399 564.874 527.721 C 564.575 528.020 564.322 528.066 564.115 527.859 C 563.426 527.170 562.565 526.538 561.531 525.963 C 560.474 525.412 559.635 525.148 559.015 525.171 C 550.571 533.614 542.127 542.057 533.683 550.502 C 533.224 550.962 532.833 551.168 532.511 551.122 C 532.190 551.122 531.822 550.824 531.409 550.226 C 530.558 548.985 529.708 547.744 528.858 546.504 C 528.376 545.746 528.065 545.114 527.928 544.609 C 527.813 544.126 527.801 543.747 527.893 543.471 C 527.962 543.219 528.019 542.931 528.065 542.610 C 528.134 542.311 528.043 541.851 527.790 541.231 C 527.537 540.611 527.066 539.818 526.377 538.853 C 525.182 537.107 523.666 535.315 521.827 533.477 C 520.058 531.707 517.347 529.502 513.694 526.859 C 510.064 524.240 507.329 522.011 505.491 520.173 C 504.342 519.024 503.527 517.703 503.044 516.210 C 502.539 514.739 502.148 512.993 501.872 510.971 C 501.803 510.443 501.792 510.087 501.838 509.903 C 501.861 509.742 501.999 509.420 502.252 508.938 C 502.505 508.501 502.757 508.064 503.010 507.628 C 503.308 507.146 503.550 506.904 503.733 506.904 C 503.871 506.904 504.113 507.077 504.457 507.421 C 506.066 509.030 509.351 512.338 514.314 517.347 C 519.277 522.402 524.975 528.146 531.409 534.579 C 532.305 535.476 533.178 535.912 534.028 535.889 C 534.855 535.889 535.854 535.303 537.026 534.131 Z"/>
</g>
<g id="">
<path id="S1" fill="#000000" fill-rule="evenodd" stroke="none" d="M 556.486 137.794 C 556.463 137.817 556.383 137.874 556.245 137.966 C 556.107 138.058 555.912 138.207 555.659 138.414 C 555.429 138.598 555.188 138.816 554.935 139.069 C 553.672 140.332 552.982 141.435 552.867 142.377 C 554.234 144.342 555.601 146.307 556.969 148.271 C 559.565 151.924 559.370 155.244 556.383 158.231 C 554.797 159.816 552.201 161.540 548.594 163.401 C 545.010 165.285 542.000 166.548 539.564 167.192 C 536.669 167.835 534.130 167.663 531.947 166.675 C 531.672 166.537 531.430 166.365 531.224 166.158 C 530.856 165.790 530.615 165.388 530.500 164.952 C 530.385 164.515 530.431 164.193 530.638 163.987 C 530.707 163.918 530.776 163.872 530.845 163.849 C 539.047 161.573 544.263 159.322 546.491 157.094 C 548.582 155.003 548.582 152.429 546.491 149.374 C 544.952 147.145 543.412 144.916 541.873 142.688 C 541.575 142.297 541.414 141.883 541.391 141.447 C 541.391 140.987 541.529 140.620 541.804 140.344 C 541.988 140.160 542.206 140.034 542.459 139.965 C 546.123 138.667 549.788 137.369 553.453 136.070 C 554.487 135.772 555.406 136.024 556.210 136.829 C 556.624 137.242 556.716 137.564 556.486 137.794 Z"/>
</g>
<g id="">
<path id="S1" fill="#000000" fill-rule="evenodd" stroke="none" d="M 378.662 80.058 C 375.827 77.371 372.420 76.028 368.440 76.028 C 364.460 76.028 361.028 77.396 358.143 80.132 C 358.143 80.108 358.143 80.083 358.143 80.058 C 357.969 80.257 357.795 80.456 357.621 80.655 C 357.596 80.655 357.571 80.655 357.546 80.655 C 357.521 80.705 357.496 80.754 357.471 80.804 C 356.924 81.401 356.974 81.973 357.621 82.520 C 358.491 83.291 359.361 84.062 360.232 84.833 C 360.779 85.331 361.327 85.306 361.874 84.759 C 361.898 84.784 361.923 84.809 361.948 84.833 C 363.689 82.943 365.853 81.998 368.440 81.998 C 370.728 81.998 372.743 82.818 374.484 84.460 C 376.971 86.848 378.215 89.733 378.215 93.116 C 378.215 96.249 377.145 98.936 375.006 101.174 C 371.922 104.408 368.142 106.024 363.665 106.024 C 359.536 106.024 355.979 104.606 352.994 101.771 C 352.969 101.796 352.945 101.821 352.920 101.846 C 349.637 98.712 348.045 95.180 348.144 91.250 C 348.642 88.017 349.786 84.709 351.577 81.326 C 355.855 73.268 362.968 65.706 372.917 58.643 C 373.464 58.245 373.738 57.996 373.738 57.897 C 373.737 57.872 373.737 57.847 373.738 57.822 C 373.788 57.673 373.812 57.300 373.812 56.703 C 373.812 55.659 373.812 54.614 373.812 53.569 C 373.812 52.823 373.439 52.450 372.693 52.450 C 364.187 52.450 355.680 52.450 347.174 52.450 C 346.826 52.450 346.453 52.425 346.055 52.375 C 344.637 52.376 343.220 52.376 341.802 52.375 C 341.056 52.375 340.683 52.748 340.683 53.494 C 340.683 56.803 340.683 60.111 340.683 63.418 C 340.683 64.115 340.907 64.189 341.354 63.642 C 342.697 61.976 344.040 60.310 345.384 58.643 C 345.831 58.096 346.428 57.822 347.174 57.822 C 352.497 57.822 357.819 57.823 363.142 57.822 C 363.888 57.822 363.988 58.071 363.441 58.568 C 350.806 70.358 343.717 81.127 342.175 90.877 C 342.175 91.002 342.175 91.126 342.175 91.250 C 342.175 97.667 344.861 103.089 350.234 107.517 C 350.258 107.492 350.283 107.467 350.308 107.442 C 354.238 110.526 358.690 112.068 363.665 112.068 C 369.883 112.068 375.106 109.830 379.334 105.353 C 382.617 101.920 384.259 97.841 384.259 93.116 C 384.259 87.942 382.393 83.590 378.662 80.058 Z"/>
</g>
<g id="">
<path id="S1" fill="#000000" fill-rule="evenodd" stroke="none" d="M 609.499 343.456 C 607.634 340.272 605.768 337.089 603.903 333.905 C 603.754 333.657 603.679 333.333 603.679 332.935 C 603.679 332.537 603.754 332.214 603.903 331.965 C 605.768 328.781 607.634 325.598 609.499 322.414 C 609.847 321.768 610.370 321.594 611.066 321.892 C 619.473 325.473 627.879 329.055 636.286 332.637 C 636.983 332.935 636.983 333.234 636.286 333.532 C 627.879 337.039 619.473 340.546 611.066 344.053 C 610.419 344.302 609.897 344.103 609.499 343.456 M 584.577 347.112 C 584.577 353.977 584.577 360.841 584.577 367.707 C 584.577 368.453 584.776 368.502 585.174 367.856 C 586.716 365.343 588.258 362.831 589.800 360.320 C 590.149 359.723 590.696 359.275 591.442 358.977 C 596.541 356.762 601.639 354.549 606.738 352.336 C 607.435 352.037 607.982 352.236 608.380 352.933 C 609.399 354.723 610.419 356.514 611.439 358.305 C 611.837 358.952 612.359 359.126 613.006 358.827 C 613.901 358.404 614.797 357.981 615.692 357.559 C 616.389 357.211 616.563 356.713 616.215 356.066 C 615.244 354.300 614.274 352.534 613.305 350.769 C 612.956 350.122 613.106 349.649 613.752 349.351 C 621.636 345.968 629.521 342.585 637.406 339.203 C 638.102 338.905 638.699 339.004 639.197 339.502 C 640.614 340.844 642.031 342.187 643.450 343.531 C 643.997 344.028 644.270 343.929 644.270 343.232 C 644.270 336.367 644.270 329.503 644.270 322.638 C 644.270 322.191 644.171 321.967 643.972 321.967 C 643.823 321.967 643.649 322.066 643.450 322.265 C 642.031 323.683 640.614 325.100 639.197 326.518 C 638.649 327.065 638.052 327.190 637.406 326.891 C 629.521 323.508 621.636 320.126 613.752 316.744 C 613.056 316.445 612.882 315.972 613.230 315.326 C 614.249 313.435 615.269 311.545 616.289 309.655 C 616.638 309.008 616.488 308.536 615.842 308.237 C 614.946 307.814 614.050 307.392 613.155 306.969 C 612.509 306.670 611.986 306.844 611.588 307.491 C 610.494 309.406 609.399 311.321 608.305 313.237 C 607.957 313.883 607.435 314.057 606.738 313.759 C 601.639 311.595 596.541 309.431 591.442 307.267 C 590.746 306.969 590.198 306.496 589.800 305.850 C 588.258 303.362 586.716 300.875 585.174 298.388 C 584.776 297.741 584.577 297.791 584.577 298.537 C 584.577 305.402 584.577 312.266 584.577 319.131 C 584.577 319.877 584.801 319.977 585.249 319.430 C 586.741 317.589 588.233 315.749 589.726 313.908 C 590.223 313.311 590.795 313.162 591.442 313.460 C 595.521 315.226 599.600 316.992 603.679 318.758 C 604.326 319.057 604.500 319.529 604.201 320.176 C 602.286 324.056 600.371 327.936 598.456 331.816 C 598.158 332.463 598.158 333.109 598.456 333.756 C 600.371 337.760 602.286 341.765 604.201 345.769 C 604.500 346.416 604.326 346.889 603.679 347.187 C 599.600 348.953 595.521 350.718 591.442 352.485 C 590.795 352.783 590.223 352.634 589.726 352.037 C 588.258 350.320 586.791 348.604 585.323 346.889 C 584.826 346.292 584.577 346.366 584.577 347.112 Z"/>
</g>
<g id="">
<path id="S1" fill="#000000" fill-rule="evenodd" stroke="none" d="M 327.903 556.865 C 330.639 556.741 333.375 556.616 336.110 556.492 C 336.807 556.442 337.379 556.716 337.827 557.313 C 340.563 560.845 341.930 563.904 341.931 566.491 C 341.931 568.480 341.309 571.042 340.065 574.176 C 339.219 576.315 338.797 578.330 338.797 580.220 C 338.797 582.906 339.393 585.145 340.587 586.936 C 340.613 586.910 340.638 586.886 340.662 586.861 C 342.454 589.746 344.965 591.835 348.198 593.129 C 343.821 596.661 341.632 600.690 341.632 605.217 C 341.632 608.251 342.403 611.012 343.945 613.499 C 346.731 617.976 351.556 620.488 358.421 621.035 C 358.421 621.084 358.421 621.134 358.421 621.185 C 367.226 621.184 376.030 621.184 384.835 621.185 C 385.581 621.185 385.656 620.986 385.059 620.588 C 382.845 619.120 380.632 617.652 378.418 616.185 C 377.821 615.787 377.523 615.215 377.523 614.469 C 377.523 598.899 377.523 583.329 377.523 567.759 C 377.523 566.963 377.821 566.366 378.418 565.968 C 380.582 564.526 382.746 563.083 384.910 561.641 C 385.606 561.193 385.556 560.969 384.760 560.969 C 380.706 560.969 376.652 560.969 372.598 560.969 C 372.250 560.969 371.877 560.994 371.479 561.044 C 369.166 561.044 366.853 561.044 364.539 561.044 C 363.743 561.044 363.669 561.268 364.315 561.715 C 366.703 563.357 369.091 564.998 371.479 566.640 C 371.479 582.583 371.479 598.526 371.479 614.469 C 371.479 615.215 371.106 615.588 370.359 615.588 C 366.529 615.588 362.699 615.588 358.868 615.588 C 355.735 615.588 353.073 614.668 350.885 612.828 C 348.696 610.987 347.601 608.525 347.601 605.440 C 347.601 603.749 348.049 602.108 348.944 600.516 C 349.840 598.924 351.009 597.755 352.451 597.009 C 354.690 595.865 357.923 595.293 362.152 595.293 C 362.997 595.292 363.843 595.292 364.689 595.293 C 365.236 595.143 365.509 594.770 365.509 594.173 C 365.510 593.128 365.510 592.084 365.509 591.039 C 365.509 590.492 365.236 590.144 364.689 589.995 C 364.689 589.970 364.689 589.945 364.689 589.920 C 364.092 589.920 363.495 589.920 362.898 589.920 C 358.421 589.920 355.187 589.672 353.198 589.174 C 349.815 588.328 347.303 586.488 345.661 583.652 C 345.114 582.707 344.841 581.638 344.841 580.444 C 344.841 579.300 345.139 577.982 345.736 576.489 C 347.278 572.709 348.049 569.326 348.049 566.341 C 348.049 562.561 346.283 558.382 342.751 553.806 C 342.552 553.458 342.154 552.910 341.557 552.164 C 340.936 551.393 340.314 550.622 339.692 549.851 C 339.244 549.254 338.722 549.155 338.125 549.553 C 334.643 551.791 331.161 554.030 327.679 556.268 C 327.430 556.467 327.331 556.616 327.380 556.716 C 327.430 556.815 327.604 556.865 327.903 556.865 Z"/>
</g>
<g id="">
<path id="S1" fill="#000000" fill-rule="evenodd" stroke="none" d="M 104.708 338.784 C 103.961 338.037 103.588 337.117 103.588 336.023 C 103.588 334.978 103.961 334.083 104.708 333.337 C 105.454 332.590 106.349 332.217 107.394 332.217 C 108.438 332.217 109.334 332.590 110.080 333.337 C 110.826 334.083 111.199 334.978 111.199 336.023 C 111.199 337.117 110.851 338.037 110.155 338.784 C 109.408 339.530 108.488 339.903 107.394 339.903 C 106.299 339.903 105.404 339.530 104.708 338.784 M 125.003 353.483 C 129.679 348.658 132.017 342.813 132.017 335.948 C 132.017 328.984 129.679 323.114 125.003 318.339 C 120.278 313.563 114.433 311.176 107.468 311.176 C 100.504 311.176 94.659 313.563 89.933 318.339 C 85.158 323.114 82.770 328.984 82.770 335.948 C 82.770 342.962 85.183 348.832 90.008 353.558 C 94.784 358.283 100.678 360.646 107.692 360.646 C 114.507 360.646 120.278 358.259 125.003 353.483 M 86.203 357.662 C 80.432 351.792 77.547 344.554 77.547 335.948 C 77.547 327.392 80.407 320.154 86.128 314.235 C 91.799 308.315 98.888 305.355 107.394 305.355 C 115.850 305.355 122.939 308.340 128.659 314.309 C 134.380 320.229 137.240 327.442 137.240 335.948 C 137.240 344.305 134.405 351.468 128.734 357.438 C 123.013 363.407 116.000 366.392 107.692 366.392 C 99.136 366.392 91.973 363.482 86.203 357.662 Z"/>
</g>
</g>
<g id="specs_2">
<path fill="#ff00ff" fill-rule="evenodd" stroke="none" d="M 258.302 437.404 C 258.323 437.404 461.678 437.404 461.698 437.404 C 461.698 437.384 461.698 234.029 461.698 234.008 C 461.678 234.008 258.323 234.008 258.302 234.008 C 258.302 234.029 258.302 437.384 258.302 437.404 Z"/>
<path fill="#ff0000" fill-rule="evenodd" stroke="none" d="M 360.000 682.338 C 360.001 682.341 371.533 714.632 371.534 714.635 C 371.533 714.634 360.001 703.904 360.000 703.903 C 359.999 703.904 348.467 714.634 348.466 714.635 C 348.467 714.632 359.999 682.341 360.000 682.338 Z"/>
<path fill="#0000ff" fill-rule="evenodd" stroke="none" d="M 360.000 18.210 C 360.001 18.211 366.699 36.968 366.700 36.970 C 366.699 36.970 360.001 30.737 360.000 30.737 C 359.999 30.737 353.301 36.970 353.300 36.970 C 353.301 36.968 359.999 18.211 360.000 18.210 Z"/>
<path fill="#00ff00" fill-rule="evenodd" stroke="none" d="M 43.084 336.638 C 43.086 336.637 61.808 329.843 61.810 329.842 C 61.810 329.843 55.611 336.573 55.610 336.574 C 55.611 336.575 61.877 343.242 61.878 343.242 C 61.876 343.242 43.086 336.638 43.084 336.638 Z"/>
<path fill="#ffff00" fill-rule="evenodd" stroke="none" d="M 135.212 561.609 C 135.213 561.607 143.526 543.508 143.527 543.506 C 143.527 543.507 143.964 552.646 143.964 552.647 C 143.965 552.647 153.112 552.869 153.113 552.869 C 153.112 552.870 135.214 561.608 135.212 561.609 Z"/>
<path fill="#ffff00" fill-rule="evenodd" stroke="none" d="M 584.788 561.387 C 584.787 561.385 576.113 543.456 576.112 543.454 C 576.112 543.455 575.858 552.602 575.858 552.603 C 575.857 552.603 566.716 553.008 566.714 553.008 C 566.716 553.009 584.786 561.386 584.788 561.387 Z"/>
<path fill="#00ff00" fill-rule="evenodd" stroke="none" d="M 676.916 336.638 C 676.914 336.637 658.192 329.843 658.190 329.842 C 658.190 329.843 664.389 336.573 664.390 336.574 C 664.389 336.575 658.123 343.242 658.122 343.242 C 658.124 343.242 676.914 336.638 676.916 336.638 Z"/>
<path fill="#00ffff" fill-rule="evenodd" stroke="none" d="M 583.919 110.931 C 583.918 110.933 577.269 129.708 577.269 129.710 C 577.269 129.709 576.009 120.646 576.009 120.645 C 576.008 120.645 566.878 121.248 566.877 121.248 C 566.879 121.247 583.917 110.932 583.919 110.931 Z"/>
<path fill="#00ffff" fill-rule="evenodd" stroke="none" d="M 136.185 111.553 C 136.186 111.555 144.072 129.845 144.072 129.847 C 144.072 129.846 144.725 120.719 144.725 120.718 C 144.726 120.718 153.875 120.711 153.876 120.711 C 153.874 120.710 136.187 111.554 136.185 111.553 Z"/>
<path fill="#be0027" fill-rule="evenodd" stroke="none" d="M 360.000 661.350 C 360.001 661.347 371.533 629.057 371.534 629.053 C 371.533 629.054 360.001 639.784 360.000 639.785 C 359.999 639.784 348.467 629.054 348.466 629.053 C 348.467 629.057 359.999 661.347 360.000 661.350 Z"/>
</g>
</g>
</svg>
