<?xml version="1.0" encoding="utf-8"?>
<!-- Generator: Moho 12.5 build 22414 -->
<!DOCTYPE svg PUBLIC "-//W3C//DTD SVG 1.1//EN" "http://www.w3.org/Graphics/SVG/1.1/DTD/svg11.dtd">
<svg version="1.1" id="Frame_0" xmlns="http://www.w3.org/2000/svg" xmlns:xlink="http://www.w3.org/1999/xlink" width="720px" height="720px">
<g id="wheel">
<g id="wheel">
<path fill="#ffffff" fill-rule="evenodd" stroke="#000000" stroke-width="4" stroke-linejoin="round" d="M 91.690 215.089 C 91.708 215.096 275.423 291.194 275.441 291.201 C 275.442 291.203 288.579 298.483 283.411 310.959 C 278.243 323.436 263.806 319.295 263.804 319.295 C 263.786 319.288 80.071 243.191 80.053 243.183 C 80.052 243.181 65.822 235.935 71.163 223.043 C 76.503 210.151 91.688 215.090 91.690 215.089 M 384.895 245.101 C 384.903 245.083 461.000 61.368 461.008 61.349 C 461.010 61.349 468.289 48.212 480.766 53.380 C 493.242 58.548 489.101 72.984 489.102 72.986 C 489.094 73.005 412.997 256.720 412.989 256.738 C 412.987 256.739 405.741 270.969 392.849 265.628 C 379.958 260.288 384.896 245.104 384.895 245.101 M 445.214 289.064 C 445.233 289.056 628.947 212.959 628.966 212.951 C 628.968 212.952 643.404 208.811 648.572 221.287 C 653.740 233.763 640.604 241.043 640.603 241.045 C 640.584 241.053 456.869 317.150 456.851 317.158 C 456.849 317.157 441.664 322.095 436.324 309.203 C 430.984 296.311 445.214 289.066 445.214 289.064 M 459.828 623.129 C 459.820 623.110 383.723 439.396 383.715 439.377 C 383.716 439.375 379.574 424.939 392.051 419.771 C 404.527 414.603 411.807 427.740 411.809 427.740 C 411.817 427.759 487.914 611.474 487.921 611.492 C 487.921 611.494 492.859 626.679 479.967 632.019 C 467.075 637.359 459.830 623.130 459.828 623.129 M 466.266 366.957 C 466.283 366.965 640.966 440.850 640.983 440.858 C 640.984 440.860 654.120 448.139 648.953 460.616 C 643.785 473.092 629.348 468.951 629.346 468.952 C 629.328 468.944 445.613 392.847 445.594 392.839 C 445.593 392.837 430.727 385.309 436.704 372.700 C 444.881 355.452 466.263 366.958 466.266 366.957 M 234.144 610.189 C 234.151 610.170 310.249 426.455 310.256 426.437 C 310.258 426.436 317.538 413.300 330.014 418.467 C 342.491 423.635 338.350 438.072 338.350 438.074 C 338.343 438.092 262.245 621.807 262.238 621.826 C 262.236 621.826 254.990 636.056 242.098 630.716 C 229.206 625.376 234.145 610.191 234.144 610.189 M 79.204 440.670 C 79.222 440.663 262.937 364.565 262.955 364.558 C 262.957 364.559 277.394 360.417 282.562 372.893 C 287.730 385.370 274.593 392.649 274.592 392.651 C 274.574 392.659 90.859 468.756 90.841 468.764 C 90.839 468.763 75.654 473.701 70.314 460.810 C 64.974 447.918 79.203 440.672 79.204 440.670 M 307.810 256.125 C 307.802 256.107 231.705 72.392 231.697 72.373 C 231.698 72.371 227.557 57.935 240.033 52.767 C 252.509 47.599 259.789 60.736 259.791 60.737 C 259.799 60.755 335.896 244.470 335.904 244.488 C 335.903 244.490 340.841 259.675 327.949 265.015 C 315.057 270.355 307.812 256.126 307.810 256.125 M 160.831 122.101 C 160.845 122.115 301.454 262.725 301.468 262.739 C 301.468 262.741 310.819 274.494 301.270 284.043 C 291.721 293.592 279.968 284.241 279.966 284.241 C 279.952 284.227 139.342 143.618 139.328 143.604 C 139.328 143.601 128.955 131.462 138.822 121.595 C 148.689 111.728 160.829 122.101 160.831 122.101 M 420.232 262.034 C 420.246 262.020 560.856 121.411 560.870 121.396 C 560.872 121.396 572.625 112.046 582.174 121.595 C 591.722 131.144 582.372 142.897 582.372 142.899 C 582.358 142.913 441.749 283.522 441.734 283.537 C 441.732 283.537 429.593 293.910 419.726 284.043 C 409.859 274.176 420.232 262.036 420.232 262.034 M 459.136 325.733 C 459.156 325.733 658.008 325.733 658.027 325.733 C 658.029 325.735 672.951 327.433 672.951 340.938 C 672.951 354.442 658.029 356.140 658.027 356.142 C 658.008 356.142 459.156 356.142 459.136 356.142 C 459.134 356.140 443.216 354.892 443.215 340.938 C 443.215 326.983 459.134 325.735 459.136 325.733 M 344.796 639.961 C 344.796 639.942 344.796 441.090 344.796 441.070 C 344.797 441.069 346.496 426.146 360.000 426.146 C 373.504 426.146 375.203 441.069 375.204 441.070 C 375.204 441.090 375.204 639.942 375.204 639.961 C 375.203 639.963 373.954 655.882 360.000 655.882 C 346.046 655.882 344.797 639.963 344.796 639.961 M 441.276 400.252 C 441.290 400.267 581.900 540.876 581.914 540.890 C 581.914 540.892 591.264 552.645 581.715 562.194 C 572.166 571.743 560.414 562.393 560.412 562.393 C 560.398 562.379 419.788 421.769 419.774 421.755 C 419.774 421.753 409.401 409.613 419.268 399.746 C 429.135 389.879 441.274 400.252 441.276 400.252 M 141.243 541.641 C 141.257 541.627 281.867 401.017 281.881 401.003 C 281.883 401.003 293.636 391.653 303.185 401.202 C 312.734 410.751 303.383 422.503 303.383 422.505 C 303.369 422.520 162.759 563.129 162.745 563.143 C 162.743 563.143 150.604 573.516 140.737 563.649 C 130.870 553.782 141.243 541.643 141.243 541.641 M 62.969 325.733 C 62.989 325.733 261.841 325.733 261.860 325.733 C 261.862 325.735 276.785 327.433 276.785 340.938 C 276.785 354.442 261.862 356.140 261.860 356.142 C 261.841 356.142 62.989 356.142 62.969 356.142 C 62.968 356.140 47.049 354.892 47.049 340.938 C 47.049 326.983 62.968 325.735 62.969 325.733 M 344.796 242.719 C 344.796 242.699 344.796 43.848 344.796 43.828 C 344.797 43.827 346.496 28.904 360.000 28.904 C 373.504 28.904 375.203 43.827 375.204 43.828 C 375.204 43.848 375.204 242.699 375.204 242.719 C 375.203 242.721 373.954 258.640 360.000 258.640 C 346.046 258.640 344.797 242.721 344.796 242.719 Z"/>
<path fill="#ffffff" fill-rule="evenodd" stroke="#000000" stroke-width="4" stroke-linejoin="round" d="M 360.000 449.348 C 390.002 449.348 417.104 437.246 436.706 417.644 C 456.308 398.042 468.410 370.940 468.410 340.938 C 468.410 310.936 456.308 283.834 436.706 264.232 C 417.104 244.630 390.002 232.528 360.000 232.528 C 329.998 232.528 302.896 244.630 283.294 264.232 C 263.692 283.834 251.590 310.936 251.590 340.938 C 251.590 370.940 263.692 398.042 283.294 417.644 C 302.896 437.246 329.998 449.348 360.000 449.348 Z"/>
<path fill="#ffffff" fill-rule="evenodd" stroke="#000000" stroke-width="4" stroke-linejoin="round" d="M 171.199 529.739 C 219.446 577.986 286.155 607.772 360.000 607.772 C 433.845 607.772 500.554 577.986 548.801 529.739 C 597.048 481.492 626.834 414.783 626.834 340.938 C 626.834 267.092 597.049 200.383 548.801 152.136 C 500.554 103.889 433.845 74.104 360.000 74.104 C 286.155 74.104 219.446 103.889 171.199 152.136 C 122.952 200.383 93.166 267.092 93.166 340.938 C 93.166 414.783 122.952 481.492 171.199 529.739 M 135.832 565.106 C 193.117 622.391 272.322 657.755 360.000 657.755 C 447.678 657.755 526.883 622.391 584.168 565.106 C 641.453 507.821 676.817 428.616 676.817 340.938 C 676.817 253.260 641.453 174.055 584.168 116.770 C 526.883 59.484 447.679 24.119 360.000 24.119 C 272.322 24.119 193.117 59.484 135.832 116.770 C 78.547 174.055 43.183 253.259 43.183 340.938 C 43.183 428.616 78.547 507.821 135.832 565.106 Z"/>
</g>
<g id="specs">
<path fill="#ff00ff" fill-rule="evenodd" stroke="none" d="M 269.739 431.766 C 269.758 431.766 450.242 431.766 450.261 431.766 C 450.261 431.748 450.261 251.263 450.261 251.245 C 450.242 251.245 269.758 251.245 269.739 251.245 C 269.739 251.263 269.739 431.748 269.739 431.766 Z"/>
<path fill="#ff0000" fill-rule="evenodd" stroke="none" d="M 360.000 681.240 C 360.001 681.243 372.163 715.296 372.164 715.299 C 372.163 715.298 360.001 703.983 360.000 703.981 C 359.999 703.983 347.837 715.298 347.836 715.299 C 347.837 715.296 359.999 681.243 360.000 681.240 Z"/>
<path fill="#0000ff" fill-rule="evenodd" stroke="none" d="M 360.000 6.684 C 360.001 6.686 367.065 26.467 367.066 26.469 C 367.065 26.468 360.001 19.895 360.000 19.895 C 359.999 19.895 352.935 26.468 352.934 26.469 C 352.935 26.467 359.999 6.686 360.000 6.684 Z"/>
<path fill="#00ff00" fill-rule="evenodd" stroke="none" d="M 26.302 342.488 C 26.304 342.488 46.049 335.323 46.051 335.323 C 46.050 335.323 39.513 342.421 39.512 342.422 C 39.513 342.423 46.121 349.454 46.122 349.454 C 46.120 349.454 26.304 342.489 26.302 342.488 Z"/>
<path fill="#ffff00" fill-rule="evenodd" stroke="none" d="M 123.595 579.737 C 123.595 579.735 132.362 560.648 132.363 560.646 C 132.363 560.647 132.825 570.285 132.825 570.286 C 132.826 570.286 142.472 570.520 142.473 570.520 C 142.471 570.521 123.596 579.736 123.595 579.737 Z"/>
<path fill="#ffff00" fill-rule="evenodd" stroke="none" d="M 597.702 579.503 C 597.701 579.501 588.554 560.594 588.553 560.592 C 588.553 560.593 588.284 570.238 588.284 570.239 C 588.283 570.239 578.644 570.667 578.643 570.667 C 578.645 570.668 597.700 579.502 597.702 579.503 Z"/>
<path fill="#00ff00" fill-rule="evenodd" stroke="none" d="M 694.721 342.488 C 694.719 342.488 674.974 335.323 674.973 335.323 C 674.973 335.323 681.510 342.421 681.511 342.422 C 681.510 342.423 674.902 349.454 674.901 349.454 C 674.903 349.454 694.719 342.489 694.721 342.488 Z"/>
<path fill="#00ffff" fill-rule="evenodd" stroke="none" d="M 596.138 104.465 C 596.137 104.467 589.125 124.266 589.124 124.268 C 589.124 124.267 587.796 114.710 587.796 114.709 C 587.795 114.709 578.167 115.344 578.166 115.345 C 578.168 115.343 596.136 104.466 596.138 104.465 Z"/>
<path fill="#00ffff" fill-rule="evenodd" stroke="none" d="M 123.972 105.121 C 123.973 105.123 132.289 124.411 132.290 124.413 C 132.290 124.412 132.978 114.787 132.978 114.786 C 132.979 114.786 142.628 114.779 142.629 114.779 C 142.627 114.778 123.974 105.122 123.972 105.121 Z"/>
<path fill="#be0027" fill-rule="evenodd" stroke="none" d="M 360.000 655.137 C 360.001 655.135 368.849 630.359 368.850 630.357 C 368.849 630.357 360.001 638.590 360.000 638.591 C 359.999 638.590 351.151 630.357 351.150 630.357 C 351.151 630.359 359.999 655.135 360.000 655.137 Z"/>
</g>
</g>
</svg>
