<?xml version="1.0" encoding="utf-8"?>
<!-- Generator: Moho 13.5 build 20210422 -->
<!DOCTYPE svg PUBLIC "-//W3C//DTD SVG 1.1//EN" "http://www.w3.org/Graphics/SVG/1.1/DTD/svg11.dtd">
<svg version="1.1" id="Frame_0" xmlns="http://www.w3.org/2000/svg" xmlns:xlink="http://www.w3.org/1999/xlink" width="720px" height="720px">
<g id="wing_eagle">
<g id="wing_eagle_2">
<path fill="#ffffff" fill-rule="evenodd" stroke="#000000" stroke-width="3" stroke-linejoin="round" d="M 150.877 415.834 C 170.990 432.852 264.054 447.145 297.629 474.706 C 349.553 517.327 360.247 581.426 347.926 622.509 C 335.439 664.145 284.897 658.750 284.891 658.754 C 284.901 658.757 307.863 701.037 382.596 688.696 C 422.755 682.064 452.966 649.843 452.973 649.839 C 452.975 649.834 473.435 617.823 478.332 604.390 C 506.395 527.413 487.301 434.995 519.697 337.275 C 552.394 238.645 647.333 96.190 647.344 96.165 C 647.335 96.170 570.044 72.637 484.699 236.552 C 456.819 290.099 437.033 386.852 437.028 386.867 C 437.031 386.851 450.223 288.484 469.070 230.507 C 494.048 153.670 554.356 36.301 554.367 36.282 C 554.359 36.286 463.902 24.594 397.239 227.225 C 379.485 281.190 370.582 373.965 370.580 373.980 C 370.581 373.964 373.625 276.140 387.709 218.093 C 405.853 143.315 461.382 29.997 461.390 29.978 C 461.376 29.995 357.596 54.376 322.712 200.173 C 312.595 242.459 308.723 313.458 308.722 313.469 C 308.722 313.459 306.592 251.705 309.575 213.895 C 314.414 152.570 327.438 72.541 327.440 72.527 C 327.432 72.541 264.152 93.513 249.437 215.932 C 245.157 251.533 242.082 309.778 242.081 309.788 C 242.081 309.780 236.193 262.522 237.415 233.398 C 239.639 180.376 242.342 108.784 242.342 108.772 C 242.336 108.787 184.292 137.539 179.046 256.051 C 177.899 281.948 177.538 324.088 177.538 324.095 C 177.537 324.090 173.063 298.618 173.197 273.847 C 173.431 230.363 168.276 187.574 168.276 187.566 C 168.271 187.578 115.200 211.527 121.000 310.485 C 124.338 367.442 135.834 403.105 150.877 415.834 Z"/>
<path fill="none" stroke="#ffffff" stroke-width="1" stroke-linecap="butt" stroke-linejoin="round" d="M 150.877 415.834 C 170.990 432.852 264.054 447.145 297.629 474.706 "/>
<path fill="none" stroke="#ffffff" stroke-width="1" stroke-linecap="butt" stroke-linejoin="round" d="M 297.629 474.706 C 349.553 517.327 360.247 581.426 347.926 622.509 "/>
<path fill="none" stroke="#ffffff" stroke-width="1" stroke-linecap="butt" stroke-linejoin="round" d="M 347.926 622.509 C 335.439 664.145 284.897 658.750 284.891 658.754 "/>
<path fill="none" stroke="#ffffff" stroke-width="1" stroke-linecap="butt" stroke-linejoin="round" d="M 284.891 658.754 C 284.901 658.757 307.863 701.037 382.596 688.696 "/>
<path fill="none" stroke="#ffffff" stroke-width="1" stroke-linecap="butt" stroke-linejoin="round" d="M 382.596 688.696 C 422.755 682.064 452.966 649.843 452.973 649.839 "/>
<path fill="#ffffff" fill-rule="evenodd" stroke="#000000" stroke-width="3" stroke-linejoin="round" d="M 190.508 294.732 C 190.504 294.744 104.769 310.223 150.877 415.834 C 170.990 432.852 264.054 447.145 297.629 474.706 C 349.553 517.327 360.247 581.426 347.926 622.509 C 335.439 664.145 284.897 658.750 284.891 658.754 C 284.901 658.757 307.863 701.037 382.596 688.696 C 422.755 682.064 452.966 649.843 452.973 649.839 C 522.695 575.536 490.441 461.920 552.208 348.791 C 512.486 349.160 484.749 351.119 461.451 427.954 C 452.562 457.267 449.517 507.062 449.516 507.070 C 449.516 507.062 449.731 456.892 451.151 425.923 C 452.908 387.606 477.055 356.620 488.269 323.250 C 429.386 334.506 415.412 347.789 398.711 384.616 C 388.392 407.371 390.947 449.747 390.946 449.754 C 390.946 449.748 392.661 418.679 392.006 396.021 C 390.510 344.256 412.152 298.142 412.154 298.132 C 412.146 298.139 353.241 294.055 338.847 364.543 C 334.906 383.845 338.803 416.261 338.803 416.266 C 338.802 416.262 332.562 389.255 331.137 372.327 C 326.695 319.538 336.421 277.481 336.422 277.472 C 336.415 277.479 288.197 290.456 272.341 348.243 C 267.339 366.473 265.155 397.348 265.155 397.353 C 265.154 397.349 267.984 369.292 263.915 351.642 C 256.787 320.731 259.124 277.249 259.123 277.242 C 259.118 277.251 201.284 290.696 204.685 366.610 C 205.030 374.321 203.236 386.823 203.236 386.825 C 203.235 386.822 200.674 371.107 197.516 359.280 C 189.090 327.716 190.509 294.738 190.508 294.732 Z"/>
<path fill="#ffffff" fill-rule="evenodd" stroke="#000000" stroke-width="3" stroke-linejoin="round" d="M 226.954 347.382 C 226.947 347.389 147.818 332.721 150.596 416.421 C 170.709 433.440 263.773 447.732 297.349 475.293 C 349.272 517.914 359.966 582.013 347.646 623.096 C 335.159 664.732 284.617 659.338 284.611 659.341 C 284.621 659.345 303.535 700.969 378.379 697.156 C 414.634 695.308 421.903 689.576 445.515 671.985 C 502.426 623.148 476.950 598.661 535.431 571.167 C 459.012 512.656 464.615 606.267 417.016 625.156 C 463.495 602.002 458.118 531.988 499.132 506.086 C 408.368 454.140 427.790 548.629 396.418 574.794 C 422.151 543.344 418.643 502.439 418.444 498.804 C 415.624 447.246 439.519 425.898 439.521 425.891 C 439.513 425.893 354.175 388.296 360.321 447.732 C 363.492 478.401 355.325 497.949 355.324 497.954 C 355.324 497.947 366.029 475.578 356.329 432.022 C 348.457 396.677 373.448 376.499 373.450 376.493 C 373.442 376.496 296.596 369.545 299.107 403.267 C 301.386 433.893 299.095 444.043 299.095 444.047 C 299.094 444.043 305.568 417.117 294.307 400.855 C 281.571 382.462 295.236 354.699 295.236 354.694 C 295.230 354.698 226.264 337.861 229.967 392.517 C 230.903 406.338 228.644 417.067 228.644 417.070 C 228.643 417.067 234.951 402.843 224.573 385.949 C 210.246 362.627 226.954 347.386 226.954 347.382 Z"/>
</g>
<g id="specs_2">
<path fill="#ff0000" fill-rule="evenodd" stroke="none" d="M 177.639 385.234 C 177.636 385.233 142.830 372.802 142.827 372.801 C 142.828 372.802 154.394 385.233 154.395 385.234 C 154.394 385.235 142.828 397.666 142.827 397.667 C 142.830 397.666 177.636 385.235 177.639 385.234 Z"/>
</g>
</g>
</svg>
