<?xml version="1.0" encoding="utf-8"?>
<!-- Generator: Moho 13.5.1 build 20210623 -->
<!DOCTYPE svg PUBLIC "-//W3C//DTD SVG 1.1//EN" "http://www.w3.org/Graphics/SVG/1.1/DTD/svg11.dtd">
<svg version="1.1" id="Frame_0" xmlns="http://www.w3.org/2000/svg" xmlns:xlink="http://www.w3.org/1999/xlink" width="720px" height="720px">
<g id="wings_pair">
<g id="wings_pair_2">
<radialGradient id="6CC2D785-2AB9-4DBD-B54B-44DE69AF3656_0" cx="51.32%" cy="48.67%" r="71.46%">
<stop offset="50.00%" style="stop-color:rgb(255,255,255);stop-opacity:1.00" />
<stop offset="100.00%" style="stop-color:rgb(0,0,0);stop-opacity:1.00" />
</radialGradient>
<path id="S12_2" fill="url(#6CC2D785-2AB9-4DBD-B54B-44DE69AF3656_0)" fill-rule="evenodd" stroke="#000000" stroke-width="2" stroke-linecap="round" stroke-linejoin="round" d="M 99.452 320.855 C 118.449 307.354 136.885 292.297 156.105 289.144 C 191.364 283.360 219.305 357.854 272.048 316.394 C 284.932 306.266 296.004 325.812 296.006 325.813 C 296.005 325.814 287.198 336.612 282.386 341.398 C 277.373 346.385 272.021 350.902 266.457 354.853 C 261.191 358.592 255.660 361.850 249.993 364.581 C 243.479 367.722 236.595 370.186 229.626 371.905 C 222.488 373.665 215.529 374.656 208.530 374.977 C 201.687 375.291 194.696 374.942 187.735 373.955 C 181.070 373.010 174.304 371.432 167.633 369.269 C 161.221 367.191 155.188 364.725 149.274 361.796 C 143.119 358.748 136.628 354.857 130.368 350.401 C 124.504 346.229 118.372 341.092 112.568 335.396 C 107.978 330.892 103.595 326.040 99.452 320.855 Z"/>
<radialGradient id="6CC2D785-2AB9-4DBD-B54B-44DE69AF3656_1" cx="49.84%" cy="47.41%" r="66.31%">
<stop offset="50.00%" style="stop-color:rgb(255,255,255);stop-opacity:1.00" />
<stop offset="100.00%" style="stop-color:rgb(0,0,0);stop-opacity:1.00" />
</radialGradient>
<path fill="none" stroke="#ffffff" stroke-width="1" stroke-linecap="butt" stroke-linejoin="round" d="M 296.006 325.813 C 296.005 325.814 287.198 336.612 282.386 341.398 "/>
<path id="S13_2" fill="url(#6CC2D785-2AB9-4DBD-B54B-44DE69AF3656_1)" fill-rule="evenodd" stroke="#000000" stroke-width="2" stroke-linecap="round" stroke-linejoin="round" d="M 282.386 341.398 C 287.601 349.037 292.815 356.676 298.030 364.314 C 307.603 363.115 314.165 352.843 313.165 342.972 C 313.165 342.972 296.008 325.814 296.006 325.813 C 296.005 325.814 287.198 336.612 282.386 341.398 Z"/>
<radialGradient id="6CC2D785-2AB9-4DBD-B54B-44DE69AF3656_2" cx="52.91%" cy="53.90%" r="58.52%">
<stop offset="50.00%" style="stop-color:rgb(255,255,255);stop-opacity:1.00" />
<stop offset="100.00%" style="stop-color:rgb(0,0,0);stop-opacity:1.00" />
</radialGradient>
<path fill="none" stroke="#ffffff" stroke-width="1" stroke-linecap="butt" stroke-linejoin="round" d="M 282.386 341.398 C 287.601 349.037 292.815 356.676 298.030 364.314 "/>
<path fill="none" stroke="#ffffff" stroke-width="1" stroke-linecap="butt" stroke-linejoin="round" d="M 266.457 354.853 C 272.021 350.902 277.373 346.385 282.386 341.398 "/>
<path id="S14_2" fill="url(#6CC2D785-2AB9-4DBD-B54B-44DE69AF3656_2)" fill-rule="evenodd" stroke="#000000" stroke-width="2" stroke-linecap="round" stroke-linejoin="round" d="M 282.386 341.398 C 287.601 349.037 292.815 356.676 298.030 364.314 C 298.948 374.656 290.986 384.611 280.772 384.245 C 276.000 374.448 271.228 364.650 266.457 354.853 C 272.021 350.902 277.373 346.385 282.386 341.398 Z"/>
<radialGradient id="6CC2D785-2AB9-4DBD-B54B-44DE69AF3656_3" cx="48.38%" cy="51.69%" r="66.46%">
<stop offset="50.00%" style="stop-color:rgb(255,255,255);stop-opacity:1.00" />
<stop offset="100.00%" style="stop-color:rgb(0,0,0);stop-opacity:1.00" />
</radialGradient>
<path fill="none" stroke="#ffffff" stroke-width="1" stroke-linecap="butt" stroke-linejoin="round" d="M 266.457 354.853 C 271.228 364.650 276.000 374.448 280.772 384.245 "/>
<path fill="none" stroke="#ffffff" stroke-width="1" stroke-linecap="butt" stroke-linejoin="round" d="M 249.993 364.581 C 255.660 361.850 261.191 358.592 266.457 354.853 "/>
<path id="S15_2" fill="url(#6CC2D785-2AB9-4DBD-B54B-44DE69AF3656_3)" fill-rule="evenodd" stroke="#000000" stroke-width="2" stroke-linecap="round" stroke-linejoin="round" d="M 266.457 354.853 C 271.228 364.650 276.000 374.448 280.772 384.245 C 278.953 395.221 269.792 402.758 259.337 402.733 C 256.222 390.016 253.108 377.298 249.993 364.581 C 255.660 361.850 261.191 358.592 266.457 354.853 Z"/>
<radialGradient id="6CC2D785-2AB9-4DBD-B54B-44DE69AF3656_4" cx="42.21%" cy="50.56%" r="74.03%">
<stop offset="50.00%" style="stop-color:rgb(255,255,255);stop-opacity:1.00" />
<stop offset="100.00%" style="stop-color:rgb(0,0,0);stop-opacity:1.00" />
</radialGradient>
<path fill="none" stroke="#ffffff" stroke-width="1" stroke-linecap="butt" stroke-linejoin="round" d="M 249.993 364.581 C 253.108 377.298 256.222 390.016 259.337 402.733 "/>
<path fill="none" stroke="#ffffff" stroke-width="1" stroke-linecap="butt" stroke-linejoin="round" d="M 229.626 371.905 C 236.595 370.186 243.479 367.722 249.993 364.581 "/>
<path id="S16_2" fill="url(#6CC2D785-2AB9-4DBD-B54B-44DE69AF3656_4)" fill-rule="evenodd" stroke="#000000" stroke-width="2" stroke-linecap="round" stroke-linejoin="round" d="M 249.993 364.581 C 253.108 377.298 256.222 390.016 259.337 402.733 C 255.590 412.391 244.497 418.640 233.238 416.626 C 232.034 401.719 230.830 386.812 229.626 371.905 C 236.595 370.186 243.479 367.722 249.993 364.581 Z"/>
<radialGradient id="6CC2D785-2AB9-4DBD-B54B-44DE69AF3656_5" cx="43.42%" cy="54.29%" r="73.90%">
<stop offset="50.00%" style="stop-color:rgb(255,255,255);stop-opacity:1.00" />
<stop offset="100.00%" style="stop-color:rgb(0,0,0);stop-opacity:1.00" />
</radialGradient>
<path fill="none" stroke="#ffffff" stroke-width="1" stroke-linecap="butt" stroke-linejoin="round" d="M 229.626 371.905 C 230.830 386.812 232.034 401.719 233.238 416.626 "/>
<path fill="none" stroke="#ffffff" stroke-width="1" stroke-linecap="butt" stroke-linejoin="round" d="M 208.530 374.977 C 215.529 374.656 222.488 373.665 229.626 371.905 "/>
<path id="S17_2" fill="url(#6CC2D785-2AB9-4DBD-B54B-44DE69AF3656_5)" fill-rule="evenodd" stroke="#000000" stroke-width="2" stroke-linecap="round" stroke-linejoin="round" d="M 229.626 371.905 C 230.830 386.812 232.034 401.719 233.238 416.626 C 228.030 424.078 216.240 427.536 205.758 421.738 C 206.682 406.151 207.606 390.564 208.530 374.977 C 215.529 374.656 222.488 373.665 229.626 371.905 Z"/>
<radialGradient id="6CC2D785-2AB9-4DBD-B54B-44DE69AF3656_6" cx="51.10%" cy="48.07%" r="72.22%">
<stop offset="50.00%" style="stop-color:rgb(255,255,255);stop-opacity:1.00" />
<stop offset="100.00%" style="stop-color:rgb(0,0,0);stop-opacity:1.00" />
</radialGradient>
<path fill="none" stroke="#ffffff" stroke-width="1" stroke-linecap="butt" stroke-linejoin="round" d="M 208.530 374.977 C 207.606 390.564 206.682 406.151 205.758 421.738 "/>
<path fill="none" stroke="#ffffff" stroke-width="1" stroke-linecap="butt" stroke-linejoin="round" d="M 187.735 373.955 C 194.696 374.942 201.687 375.291 208.530 374.977 "/>
<path id="S18_2" fill="url(#6CC2D785-2AB9-4DBD-B54B-44DE69AF3656_6)" fill-rule="evenodd" stroke="#000000" stroke-width="2" stroke-linecap="round" stroke-linejoin="round" d="M 208.530 374.977 C 207.606 390.564 206.682 406.151 205.758 421.738 C 198.167 427.517 184.062 426.038 177.223 417.341 C 180.727 402.879 184.231 388.417 187.735 373.955 C 194.696 374.942 201.687 375.291 208.530 374.977 Z"/>
<radialGradient id="6CC2D785-2AB9-4DBD-B54B-44DE69AF3656_7" cx="43.57%" cy="48.77%" r="73.99%">
<stop offset="50.00%" style="stop-color:rgb(255,255,255);stop-opacity:1.00" />
<stop offset="100.00%" style="stop-color:rgb(0,0,0);stop-opacity:1.00" />
</radialGradient>
<path fill="none" stroke="#ffffff" stroke-width="1" stroke-linecap="butt" stroke-linejoin="round" d="M 187.735 373.955 C 184.231 388.417 180.727 402.879 177.223 417.341 "/>
<path fill="none" stroke="#ffffff" stroke-width="1" stroke-linecap="butt" stroke-linejoin="round" d="M 167.633 369.269 C 174.304 371.432 181.070 373.010 187.735 373.955 "/>
<path id="S19_2" fill="url(#6CC2D785-2AB9-4DBD-B54B-44DE69AF3656_7)" fill-rule="evenodd" stroke="#000000" stroke-width="2" stroke-linecap="round" stroke-linejoin="round" d="M 187.735 373.955 C 184.231 388.417 180.727 402.879 177.223 417.341 C 167.242 420.444 154.210 416.104 149.151 406.915 C 155.312 394.366 161.473 381.818 167.633 369.269 C 174.304 371.432 181.070 373.010 187.735 373.955 Z"/>
<radialGradient id="6CC2D785-2AB9-4DBD-B54B-44DE69AF3656_8" cx="29.77%" cy="26.04%" r="87.35%">
<stop offset="50.00%" style="stop-color:rgb(255,255,255);stop-opacity:1.00" />
<stop offset="100.00%" style="stop-color:rgb(0,0,0);stop-opacity:1.00" />
</radialGradient>
<path fill="none" stroke="#ffffff" stroke-width="1" stroke-linecap="butt" stroke-linejoin="round" d="M 167.633 369.269 C 161.473 381.818 155.312 394.366 149.151 406.915 "/>
<path fill="none" stroke="#ffffff" stroke-width="1" stroke-linecap="butt" stroke-linejoin="round" d="M 149.274 361.796 C 155.188 364.725 161.221 367.191 167.633 369.269 "/>
<path id="S20_2" fill="url(#6CC2D785-2AB9-4DBD-B54B-44DE69AF3656_8)" fill-rule="evenodd" stroke="#000000" stroke-width="2" stroke-linecap="round" stroke-linejoin="round" d="M 167.633 369.269 C 161.473 381.818 155.312 394.366 149.151 406.915 C 134.710 426.080 107.095 438.289 98.087 429.471 C 115.150 406.912 132.212 384.354 149.274 361.796 C 155.188 364.725 161.221 367.191 167.633 369.269 Z"/>
<radialGradient id="6CC2D785-2AB9-4DBD-B54B-44DE69AF3656_9" cx="39.87%" cy="38.99%" r="84.93%">
<stop offset="50.00%" style="stop-color:rgb(255,255,255);stop-opacity:1.00" />
<stop offset="100.00%" style="stop-color:rgb(0,0,0);stop-opacity:1.00" />
</radialGradient>
<path fill="none" stroke="#ffffff" stroke-width="1" stroke-linecap="butt" stroke-linejoin="round" d="M 149.274 361.796 C 132.212 384.354 115.150 406.912 98.087 429.471 "/>
<path fill="none" stroke="#ffffff" stroke-width="1" stroke-linecap="butt" stroke-linejoin="round" d="M 130.368 350.401 C 136.628 354.857 143.119 358.748 149.274 361.796 "/>
<path id="S21_2" fill="url(#6CC2D785-2AB9-4DBD-B54B-44DE69AF3656_9)" fill-rule="evenodd" stroke="#000000" stroke-width="2" stroke-linecap="round" stroke-linejoin="round" d="M 149.274 361.796 C 132.212 384.354 115.150 406.912 98.087 429.471 C 85.877 439.519 65.889 439.335 59.396 430.579 C 83.053 403.853 106.710 377.127 130.368 350.401 C 136.628 354.857 143.119 358.748 149.274 361.796 Z"/>
<radialGradient id="6CC2D785-2AB9-4DBD-B54B-44DE69AF3656_10" cx="41.72%" cy="45.63%" r="79.64%">
<stop offset="50.00%" style="stop-color:rgb(255,255,255);stop-opacity:1.00" />
<stop offset="100.00%" style="stop-color:rgb(0,0,0);stop-opacity:1.00" />
</radialGradient>
<path fill="none" stroke="#ffffff" stroke-width="1" stroke-linecap="butt" stroke-linejoin="round" d="M 130.368 350.401 C 106.710 377.127 83.053 403.853 59.396 430.579 "/>
<path fill="none" stroke="#ffffff" stroke-width="1" stroke-linecap="butt" stroke-linejoin="round" d="M 112.568 335.396 C 118.372 341.092 124.504 346.229 130.368 350.401 "/>
<path id="S22_2" fill="url(#6CC2D785-2AB9-4DBD-B54B-44DE69AF3656_10)" fill-rule="evenodd" stroke="#000000" stroke-width="2" stroke-linecap="round" stroke-linejoin="round" d="M 130.368 350.401 C 106.710 377.127 83.053 403.853 59.396 430.579 C 47.269 435.433 32.710 429.502 30.453 420.405 C 57.824 392.069 85.196 363.732 112.568 335.396 C 118.372 341.092 124.504 346.229 130.368 350.401 Z"/>
<radialGradient id="6CC2D785-2AB9-4DBD-B54B-44DE69AF3656_11" cx="38.49%" cy="45.94%" r="84.57%">
<stop offset="50.00%" style="stop-color:rgb(255,255,255);stop-opacity:1.00" />
<stop offset="100.00%" style="stop-color:rgb(0,0,0);stop-opacity:1.00" />
</radialGradient>
<path fill="none" stroke="#ffffff" stroke-width="1" stroke-linecap="butt" stroke-linejoin="round" d="M 112.568 335.396 C 85.196 363.732 57.824 392.069 30.453 420.405 "/>
<path fill="none" stroke="#ffffff" stroke-width="1" stroke-linecap="butt" stroke-linejoin="round" d="M 99.452 320.855 C 103.595 326.040 107.978 330.892 112.568 335.396 "/>
<path id="S23_2" fill="url(#6CC2D785-2AB9-4DBD-B54B-44DE69AF3656_11)" fill-rule="evenodd" stroke="#000000" stroke-width="2" stroke-linecap="round" stroke-linejoin="round" d="M 112.568 335.396 C 85.196 363.732 57.824 392.069 30.453 420.405 C 20.731 425.111 -3.575 416.572 7.561 404.460 C 19.999 390.932 57.163 350.910 99.452 320.855 C 103.595 326.040 107.978 330.892 112.568 335.396 Z"/>
<radialGradient id="6CC2D785-2AB9-4DBD-B54B-44DE69AF3656_12" cx="48.38%" cy="48.67%" r="71.64%">
<stop offset="50.00%" style="stop-color:rgb(255,255,255);stop-opacity:1.00" />
<stop offset="100.00%" style="stop-color:rgb(0,0,0);stop-opacity:1.00" />
</radialGradient>
<path id="S12_2_2" fill="url(#6CC2D785-2AB9-4DBD-B54B-44DE69AF3656_12)" fill-rule="evenodd" stroke="#000000" stroke-width="2" stroke-linecap="round" stroke-linejoin="round" d="M 620.548 321.132 C 601.551 307.631 583.115 292.574 563.895 289.421 C 528.636 283.637 509.402 356.064 447.952 316.671 C 433.188 307.205 423.996 326.088 423.994 326.089 C 423.995 326.091 432.802 336.889 437.614 341.675 C 442.627 346.662 447.979 351.179 453.543 355.130 C 458.809 358.869 464.340 362.127 470.007 364.858 C 476.521 367.999 483.405 370.463 490.374 372.181 C 497.512 373.942 504.471 374.933 511.470 375.254 C 518.313 375.567 525.304 375.219 532.265 374.232 C 538.930 373.287 545.696 371.709 552.367 369.546 C 558.779 367.468 564.812 365.003 570.726 362.073 C 576.881 359.025 583.372 355.134 589.632 350.678 C 595.496 346.506 601.628 341.369 607.432 335.673 C 612.022 331.169 616.405 326.317 620.548 321.132 Z"/>
<radialGradient id="6CC2D785-2AB9-4DBD-B54B-44DE69AF3656_13" cx="58.22%" cy="48.71%" r="66.31%">
<stop offset="50.00%" style="stop-color:rgb(255,255,255);stop-opacity:1.00" />
<stop offset="100.00%" style="stop-color:rgb(0,0,0);stop-opacity:1.00" />
</radialGradient>
<path fill="none" stroke="#ffffff" stroke-width="1" stroke-linecap="butt" stroke-linejoin="round" d="M 423.994 326.089 C 423.995 326.091 432.802 336.889 437.614 341.675 "/>
<path id="S13_2_2" fill="url(#6CC2D785-2AB9-4DBD-B54B-44DE69AF3656_13)" fill-rule="evenodd" stroke="#000000" stroke-width="2" stroke-linecap="round" stroke-linejoin="round" d="M 437.614 341.675 C 432.399 349.314 427.185 356.953 421.970 364.592 C 412.397 363.393 405.836 353.120 406.835 343.250 C 406.835 343.250 423.992 326.091 423.994 326.089 C 423.995 326.091 432.802 336.889 437.614 341.675 Z"/>
<radialGradient id="6CC2D785-2AB9-4DBD-B54B-44DE69AF3656_14" cx="47.09%" cy="50.42%" r="62.11%">
<stop offset="50.00%" style="stop-color:rgb(255,255,255);stop-opacity:1.00" />
<stop offset="100.00%" style="stop-color:rgb(0,0,0);stop-opacity:1.00" />
</radialGradient>
<path fill="none" stroke="#ffffff" stroke-width="1" stroke-linecap="butt" stroke-linejoin="round" d="M 437.614 341.675 C 432.399 349.314 427.185 356.953 421.970 364.592 "/>
<path fill="none" stroke="#ffffff" stroke-width="1" stroke-linecap="butt" stroke-linejoin="round" d="M 453.543 355.130 C 447.979 351.179 442.627 346.662 437.614 341.675 "/>
<path id="S14_2_2" fill="url(#6CC2D785-2AB9-4DBD-B54B-44DE69AF3656_14)" fill-rule="evenodd" stroke="#000000" stroke-width="2" stroke-linecap="round" stroke-linejoin="round" d="M 437.614 341.675 C 432.399 349.314 427.185 356.953 421.970 364.592 C 421.052 374.934 429.014 384.888 439.228 384.523 C 444.000 374.725 448.772 364.927 453.543 355.130 C 447.979 351.179 442.627 346.662 437.614 341.675 Z"/>
<radialGradient id="6CC2D785-2AB9-4DBD-B54B-44DE69AF3656_15" cx="46.76%" cy="50.32%" r="65.66%">
<stop offset="50.00%" style="stop-color:rgb(255,255,255);stop-opacity:1.00" />
<stop offset="100.00%" style="stop-color:rgb(0,0,0);stop-opacity:1.00" />
</radialGradient>
<path fill="none" stroke="#ffffff" stroke-width="1" stroke-linecap="butt" stroke-linejoin="round" d="M 453.543 355.130 C 448.772 364.927 444.000 374.725 439.228 384.523 "/>
<path fill="none" stroke="#ffffff" stroke-width="1" stroke-linecap="butt" stroke-linejoin="round" d="M 470.007 364.858 C 464.340 362.127 458.809 358.869 453.543 355.130 "/>
<path id="S15_2_2" fill="url(#6CC2D785-2AB9-4DBD-B54B-44DE69AF3656_15)" fill-rule="evenodd" stroke="#000000" stroke-width="2" stroke-linecap="round" stroke-linejoin="round" d="M 453.543 355.130 C 448.772 364.927 444.000 374.725 439.228 384.523 C 441.048 395.498 450.208 403.035 460.663 403.010 C 463.778 390.292 466.893 377.575 470.007 364.858 C 464.340 362.127 458.809 358.869 453.543 355.130 Z"/>
<radialGradient id="6CC2D785-2AB9-4DBD-B54B-44DE69AF3656_16" cx="48.84%" cy="50.57%" r="67.19%">
<stop offset="50.00%" style="stop-color:rgb(255,255,255);stop-opacity:1.00" />
<stop offset="100.00%" style="stop-color:rgb(0,0,0);stop-opacity:1.00" />
</radialGradient>
<path fill="none" stroke="#ffffff" stroke-width="1" stroke-linecap="butt" stroke-linejoin="round" d="M 470.007 364.858 C 466.893 377.575 463.778 390.292 460.663 403.010 "/>
<path fill="none" stroke="#ffffff" stroke-width="1" stroke-linecap="butt" stroke-linejoin="round" d="M 490.374 372.181 C 483.405 370.463 476.521 367.999 470.007 364.858 "/>
<path id="S16_2_2" fill="url(#6CC2D785-2AB9-4DBD-B54B-44DE69AF3656_16)" fill-rule="evenodd" stroke="#000000" stroke-width="2" stroke-linecap="round" stroke-linejoin="round" d="M 470.007 364.858 C 466.893 377.575 463.778 390.292 460.663 403.010 C 464.410 412.667 475.503 418.917 486.762 416.902 C 487.966 401.995 489.170 387.088 490.374 372.181 C 483.405 370.463 476.521 367.999 470.007 364.858 Z"/>
<radialGradient id="6CC2D785-2AB9-4DBD-B54B-44DE69AF3656_17" cx="51.17%" cy="50.21%" r="67.57%">
<stop offset="50.00%" style="stop-color:rgb(255,255,255);stop-opacity:1.00" />
<stop offset="100.00%" style="stop-color:rgb(0,0,0);stop-opacity:1.00" />
</radialGradient>
<path fill="none" stroke="#ffffff" stroke-width="1" stroke-linecap="butt" stroke-linejoin="round" d="M 490.374 372.181 C 489.170 387.088 487.966 401.995 486.762 416.902 "/>
<path fill="none" stroke="#ffffff" stroke-width="1" stroke-linecap="butt" stroke-linejoin="round" d="M 511.470 375.254 C 504.471 374.933 497.512 373.942 490.374 372.181 "/>
<path id="S17_2_2" fill="url(#6CC2D785-2AB9-4DBD-B54B-44DE69AF3656_17)" fill-rule="evenodd" stroke="#000000" stroke-width="2" stroke-linecap="round" stroke-linejoin="round" d="M 490.374 372.181 C 489.170 387.088 487.966 401.995 486.762 416.902 C 491.970 424.354 503.759 427.813 514.242 422.015 C 513.318 406.428 512.394 390.841 511.470 375.254 C 504.471 374.933 497.512 373.942 490.374 372.181 Z"/>
<radialGradient id="6CC2D785-2AB9-4DBD-B54B-44DE69AF3656_18" cx="52.64%" cy="47.42%" r="72.58%">
<stop offset="50.00%" style="stop-color:rgb(255,255,255);stop-opacity:1.00" />
<stop offset="100.00%" style="stop-color:rgb(0,0,0);stop-opacity:1.00" />
</radialGradient>
<path fill="none" stroke="#ffffff" stroke-width="1" stroke-linecap="butt" stroke-linejoin="round" d="M 511.470 375.254 C 512.394 390.841 513.318 406.428 514.242 422.015 "/>
<path fill="none" stroke="#ffffff" stroke-width="1" stroke-linecap="butt" stroke-linejoin="round" d="M 532.265 374.232 C 525.304 375.219 518.313 375.567 511.470 375.254 "/>
<path id="S18_2_2" fill="url(#6CC2D785-2AB9-4DBD-B54B-44DE69AF3656_18)" fill-rule="evenodd" stroke="#000000" stroke-width="2" stroke-linecap="round" stroke-linejoin="round" d="M 511.470 375.254 C 512.394 390.841 513.318 406.428 514.242 422.015 C 521.833 427.794 535.938 426.315 542.777 417.618 C 539.273 403.156 535.769 388.694 532.265 374.232 C 525.304 375.219 518.313 375.567 511.470 375.254 Z"/>
<radialGradient id="6CC2D785-2AB9-4DBD-B54B-44DE69AF3656_19" cx="58.58%" cy="45.40%" r="71.62%">
<stop offset="50.00%" style="stop-color:rgb(255,255,255);stop-opacity:1.00" />
<stop offset="100.00%" style="stop-color:rgb(0,0,0);stop-opacity:1.00" />
</radialGradient>
<path fill="none" stroke="#ffffff" stroke-width="1" stroke-linecap="butt" stroke-linejoin="round" d="M 532.265 374.232 C 535.769 388.694 539.273 403.156 542.777 417.618 "/>
<path fill="none" stroke="#ffffff" stroke-width="1" stroke-linecap="butt" stroke-linejoin="round" d="M 552.367 369.546 C 545.696 371.709 538.930 373.287 532.265 374.232 "/>
<path id="S19_2_2" fill="url(#6CC2D785-2AB9-4DBD-B54B-44DE69AF3656_19)" fill-rule="evenodd" stroke="#000000" stroke-width="2" stroke-linecap="round" stroke-linejoin="round" d="M 532.265 374.232 C 535.769 388.694 539.273 403.156 542.777 417.618 C 552.758 420.720 565.790 416.381 570.849 407.192 C 564.688 394.644 558.527 382.095 552.367 369.546 C 545.696 371.709 538.930 373.287 532.265 374.232 Z"/>
<radialGradient id="6CC2D785-2AB9-4DBD-B54B-44DE69AF3656_20" cx="71.42%" cy="26.04%" r="86.54%">
<stop offset="50.00%" style="stop-color:rgb(255,255,255);stop-opacity:1.00" />
<stop offset="100.00%" style="stop-color:rgb(0,0,0);stop-opacity:1.00" />
</radialGradient>
<path fill="none" stroke="#ffffff" stroke-width="1" stroke-linecap="butt" stroke-linejoin="round" d="M 552.367 369.546 C 558.527 382.095 564.688 394.644 570.849 407.192 "/>
<path fill="none" stroke="#ffffff" stroke-width="1" stroke-linecap="butt" stroke-linejoin="round" d="M 570.726 362.073 C 564.812 365.003 558.779 367.468 552.367 369.546 "/>
<path id="S20_2_2" fill="url(#6CC2D785-2AB9-4DBD-B54B-44DE69AF3656_20)" fill-rule="evenodd" stroke="#000000" stroke-width="2" stroke-linecap="round" stroke-linejoin="round" d="M 552.367 369.546 C 558.527 382.095 564.688 394.644 570.849 407.192 C 585.290 426.357 612.905 438.565 621.913 429.747 C 604.850 407.189 587.788 384.631 570.726 362.073 C 564.812 365.003 558.779 367.468 552.367 369.546 Z"/>
<radialGradient id="6CC2D785-2AB9-4DBD-B54B-44DE69AF3656_21" cx="57.37%" cy="38.04%" r="86.89%">
<stop offset="50.00%" style="stop-color:rgb(255,255,255);stop-opacity:1.00" />
<stop offset="100.00%" style="stop-color:rgb(0,0,0);stop-opacity:1.00" />
</radialGradient>
<path fill="none" stroke="#ffffff" stroke-width="1" stroke-linecap="butt" stroke-linejoin="round" d="M 570.726 362.073 C 587.788 384.631 604.850 407.189 621.913 429.747 "/>
<path fill="none" stroke="#ffffff" stroke-width="1" stroke-linecap="butt" stroke-linejoin="round" d="M 589.632 350.678 C 583.372 355.134 576.881 359.025 570.726 362.073 "/>
<path id="S21_2_2" fill="url(#6CC2D785-2AB9-4DBD-B54B-44DE69AF3656_21)" fill-rule="evenodd" stroke="#000000" stroke-width="2" stroke-linecap="round" stroke-linejoin="round" d="M 570.726 362.073 C 587.788 384.631 604.850 407.189 621.913 429.747 C 634.123 439.795 654.111 439.612 660.605 430.856 C 636.947 404.130 613.290 377.404 589.632 350.678 C 583.372 355.134 576.881 359.025 570.726 362.073 Z"/>
<radialGradient id="6CC2D785-2AB9-4DBD-B54B-44DE69AF3656_22" cx="56.63%" cy="41.36%" r="78.50%">
<stop offset="50.00%" style="stop-color:rgb(255,255,255);stop-opacity:1.00" />
<stop offset="100.00%" style="stop-color:rgb(0,0,0);stop-opacity:1.00" />
</radialGradient>
<path fill="none" stroke="#ffffff" stroke-width="1" stroke-linecap="butt" stroke-linejoin="round" d="M 589.632 350.678 C 613.290 377.404 636.947 404.130 660.605 430.856 "/>
<path fill="none" stroke="#ffffff" stroke-width="1" stroke-linecap="butt" stroke-linejoin="round" d="M 607.432 335.673 C 601.628 341.369 595.496 346.506 589.632 350.678 "/>
<path id="S22_2_2" fill="url(#6CC2D785-2AB9-4DBD-B54B-44DE69AF3656_22)" fill-rule="evenodd" stroke="#000000" stroke-width="2" stroke-linecap="round" stroke-linejoin="round" d="M 589.632 350.678 C 613.290 377.404 636.947 404.130 660.605 430.856 C 672.731 435.711 687.290 429.779 689.548 420.681 C 662.176 392.345 634.804 364.009 607.432 335.673 C 601.628 341.369 595.496 346.506 589.632 350.678 Z"/>
<radialGradient id="6CC2D785-2AB9-4DBD-B54B-44DE69AF3656_23" cx="58.44%" cy="43.48%" r="82.42%">
<stop offset="50.00%" style="stop-color:rgb(255,255,255);stop-opacity:1.00" />
<stop offset="100.00%" style="stop-color:rgb(0,0,0);stop-opacity:1.00" />
</radialGradient>
<path fill="none" stroke="#ffffff" stroke-width="1" stroke-linecap="butt" stroke-linejoin="round" d="M 607.432 335.673 C 634.804 364.009 662.176 392.345 689.548 420.681 "/>
<path fill="none" stroke="#ffffff" stroke-width="1" stroke-linecap="butt" stroke-linejoin="round" d="M 620.548 321.132 C 616.405 326.317 612.022 331.169 607.432 335.673 "/>
<path id="S23_2_2" fill="url(#6CC2D785-2AB9-4DBD-B54B-44DE69AF3656_23)" fill-rule="evenodd" stroke="#000000" stroke-width="2" stroke-linecap="round" stroke-linejoin="round" d="M 607.432 335.673 C 634.804 364.009 662.176 392.345 689.548 420.681 C 699.270 425.387 723.574 416.849 712.439 404.737 C 700.001 391.209 662.837 351.187 620.548 321.132 C 616.405 326.317 612.022 331.169 607.432 335.673 Z"/>
</g>
<g id="specs_2">
<path fill="#ff00ff" fill-rule="evenodd" stroke="none" d="M 197.417 522.583 C 197.449 522.583 522.551 522.583 522.583 522.583 C 522.583 522.551 522.583 197.449 522.583 197.417 C 522.551 197.417 197.449 197.417 197.417 197.417 C 197.417 197.449 197.417 522.551 197.417 522.583 Z"/>
<path fill="#ff0000" fill-rule="evenodd" stroke="none" d="M 360.000 570.052 C 360.001 570.056 372.432 604.862 372.433 604.865 C 372.432 604.864 360.001 593.298 360.000 593.297 C 359.999 593.298 347.568 604.864 347.567 604.865 C 347.568 604.862 359.999 570.056 360.000 570.052 Z"/>
<path fill="#0000ff" fill-rule="evenodd" stroke="none" d="M 360.000 181.933 C 360.001 181.935 367.221 202.153 367.222 202.155 C 367.221 202.155 360.001 195.437 360.000 195.436 C 359.999 195.437 352.779 202.155 352.778 202.155 C 352.779 202.153 359.999 181.935 360.000 181.933 Z"/>
<path fill="#be0027" fill-rule="evenodd" stroke="none" d="M 360.000 548.325 C 360.001 548.322 372.432 513.516 372.433 513.512 C 372.432 513.513 360.001 525.079 360.000 525.081 C 359.999 525.079 347.568 513.513 347.567 513.512 C 347.568 513.516 359.999 548.322 360.000 548.325 Z"/>
</g>
</g>
</svg>
