<?xml version="1.0" encoding="utf-8"?>
<!-- Generator: Moho 13.5.1 build 20210623 -->
<!DOCTYPE svg PUBLIC "-//W3C//DTD SVG 1.1//EN" "http://www.w3.org/Graphics/SVG/1.1/DTD/svg11.dtd">
<svg version="1.1" id="Frame_0" xmlns="http://www.w3.org/2000/svg" xmlns:xlink="http://www.w3.org/1999/xlink" width="720px" height="720px">
<g id="wing_egypt">
<g id="wing_Egypt_2">
<path fill="#000000" fill-rule="evenodd" stroke="#ffffff" stroke-width="4" stroke-linecap="round" stroke-linejoin="round" d="M 58.746 435.456 C 68.499 437.593 273.507 433.386 306.033 435.457 C 438.868 443.915 502.380 442.480 687.430 496.407 C 720.170 505.948 709.417 456.939 650.186 437.504 C 625.837 429.515 480.062 416.208 480.045 416.206 C 480.062 416.208 614.803 426.142 649.504 433.856 C 688.218 442.462 691.337 397.228 641.551 380.391 C 616.454 371.903 461.581 383.482 461.563 383.482 C 461.581 383.482 610.351 373.452 635.136 376.531 C 669.434 380.791 675.071 328.650 620.732 324.024 C 601.987 322.428 447.914 357.776 447.897 357.779 C 447.914 357.776 556.230 328.312 620.922 322.000 C 651.239 319.042 626.314 270.837 580.308 275.356 C 550.594 278.274 409.661 336.602 409.643 336.608 C 409.660 336.601 481.071 300.849 578.034 273.076 C 612.851 263.104 571.751 228.918 532.828 234.442 C 501.394 238.903 378.408 326.253 378.392 326.262 C 378.404 326.255 443.349 276.313 489.748 251.672 C 534.616 227.844 483.759 203.305 440.009 227.423 C 420.038 238.433 357.872 307.822 357.864 307.830 C 357.872 307.823 382.944 270.152 433.981 230.612 C 455.255 214.131 397.217 203.464 374.571 226.359 C 352.062 249.115 306.094 309.528 306.087 309.537 C 306.094 309.528 339.740 264.833 372.160 223.593 C 384.470 207.933 332.121 208.740 315.677 224.870 C 305.357 234.993 260.576 306.969 260.570 306.977 C 260.576 306.969 273.231 275.886 311.543 226.997 C 322.949 212.442 278.031 209.106 260.743 226.571 C 247.009 240.447 213.735 311.223 213.730 311.231 C 213.734 311.223 226.425 274.897 259.193 223.593 C 270.765 205.475 229.987 205.230 215.453 225.933 C 199.322 248.910 171.028 320.582 171.024 320.592 C 171.028 320.582 182.633 279.545 211.664 226.146 C 221.711 207.666 179.116 205.495 165.170 227.635 C 156.653 241.157 125.565 318.880 125.561 318.890 C 125.565 318.880 129.503 284.154 163.446 225.295 C 171.732 210.927 127.952 212.488 119.363 226.784 C 106.293 248.537 91.812 317.178 91.809 317.187 C 91.811 317.178 96.442 287.391 113.851 225.295 C 114.734 222.146 90.381 214.181 80.787 226.997 C 67.672 244.516 57.370 312.074 57.367 312.083 C 57.369 312.074 60.608 268.098 71.833 227.847 C 75.183 215.832 49.060 221.242 42.902 232.953 C 32.510 252.717 35.604 271.405 33.259 314.635 C 31.148 353.533 27.932 428.708 58.746 435.456 Z"/>
<path fill="#ffffff" fill-rule="evenodd" stroke="#000000" stroke-width="4" stroke-linecap="round" stroke-linejoin="round" d="M 295.700 437.158 C 295.722 437.161 443.118 442.939 513.541 464.810 C 527.060 469.009 529.201 415.383 488.946 407.735 C 456.514 401.573 325.336 410.782 325.320 410.782 C 325.337 410.781 461.862 398.555 500.794 403.636 C 516.498 405.685 510.974 357.463 465.840 355.476 C 440.272 354.350 303.982 398.015 303.966 398.019 C 303.983 398.015 435.205 354.395 468.444 351.547 C 490.826 349.629 459.150 304.552 431.736 313.072 C 395.115 324.454 290.204 382.696 290.190 382.703 C 290.203 382.697 380.594 328.018 419.425 315.672 C 444.464 307.712 402.923 272.352 368.076 289.604 C 344.524 301.265 266.780 371.634 266.769 371.642 C 266.778 371.634 329.273 314.407 354.250 295.065 C 377.108 277.365 323.985 272.993 313.609 277.198 C 291.913 285.990 236.469 363.976 236.462 363.985 C 236.467 363.977 279.959 308.348 295.011 287.407 C 302.360 277.184 270.635 273.245 250.927 281.452 C 234.149 288.438 202.026 357.170 202.021 357.178 C 202.025 357.171 227.083 303.502 239.216 285.706 C 243.726 279.091 218.482 266.119 199.954 279.750 C 188.222 288.380 157.251 358.871 157.247 358.879 C 157.250 358.872 180.799 303.869 190.311 286.557 C 194.012 279.821 168.298 267.611 152.425 282.302 C 141.597 292.324 123.497 349.513 123.494 349.520 C 123.497 349.514 141.419 299.373 147.603 284.855 C 150.495 278.067 121.773 267.739 111.096 282.302 C 103.576 292.560 87.678 349.513 87.675 349.520 C 87.677 349.514 103.378 302.602 107.652 286.557 C 109.439 279.845 84.284 266.843 73.211 285.706 C 66.871 296.506 58.747 346.111 58.746 346.117 C 58.747 346.111 66.597 305.079 69.077 289.109 C 70.273 281.410 51.402 266.579 38.080 284.855 C 32.886 291.981 33.183 311.193 32.570 328.248 C 29.675 408.815 35.541 404.726 60.123 412.484 C 60.147 412.487 295.677 437.156 295.700 437.158 Z"/>
<path fill="#000000" fill-rule="evenodd" stroke="#ffffff" stroke-width="4" stroke-linecap="round" stroke-linejoin="round" d="M 148.981 398.870 C 160.826 400.542 278.808 433.834 301.211 436.307 C 309.972 437.275 336.020 435.357 362.516 436.308 C 375.662 436.780 378.296 399.497 339.784 397.168 C 333.703 396.800 298.460 406.527 298.456 406.528 C 298.460 406.527 333.971 394.873 343.229 391.212 C 359.066 384.949 336.489 359.609 317.054 362.284 C 302.205 364.327 267.464 401.419 267.459 401.423 C 267.463 401.419 296.411 371.248 308.787 361.432 C 321.575 351.289 289.617 337.986 277.790 345.266 C 269.476 350.384 230.267 393.760 230.262 393.765 C 230.266 393.760 262.032 356.438 270.902 344.415 C 280.050 332.016 258.693 321.306 238.528 331.652 C 227.093 337.519 203.401 384.400 203.398 384.405 C 203.400 384.400 228.487 339.288 228.196 330.801 C 227.893 321.954 208.598 319.792 196.509 329.100 C 189.277 334.668 168.959 380.997 168.957 381.002 C 168.959 380.997 188.259 337.637 190.310 329.950 C 194.209 315.341 166.576 314.802 158.625 324.846 C 153.475 331.350 137.273 378.444 137.271 378.449 C 137.273 378.444 149.029 339.504 152.425 326.547 C 154.456 318.797 129.768 311.702 119.361 328.248 C 115.752 333.987 105.586 373.340 105.585 373.344 C 105.586 373.340 110.018 345.157 115.918 329.100 C 123.067 309.640 95.412 307.554 85.609 318.038 C 75.928 328.392 71.145 377.593 71.144 377.599 C 71.144 377.594 78.032 333.909 77.343 326.547 C 76.191 314.224 56.164 312.464 47.035 318.889 C 31.651 329.715 32.872 368.727 38.080 393.765 C 48.847 399.114 140.593 397.686 148.981 398.870 Z"/>
<path fill="#ffffff" fill-rule="evenodd" stroke="#000000" stroke-width="4" stroke-linecap="round" stroke-linejoin="round" d="M 86.298 445.667 C 86.321 445.666 305.092 437.693 310.129 437.653 C 364.364 437.225 323.956 394.705 292.895 402.985 C 284.847 405.130 260.486 413.967 260.483 413.968 C 260.485 413.967 281.651 407.310 288.210 404.518 C 317.763 391.938 272.957 371.217 254.057 380.755 C 245.763 384.941 225.355 405.922 225.353 405.924 C 225.355 405.922 241.075 389.854 253.169 380.724 C 265.944 371.079 236.070 354.122 218.102 368.486 C 209.951 375.002 190.713 400.568 190.711 400.571 C 190.713 400.568 205.424 380.813 215.146 369.555 C 224.035 359.260 193.532 346.601 176.910 364.588 C 165.100 377.368 158.739 395.464 158.737 395.467 C 158.738 395.464 168.184 373.551 172.776 367.466 C 183.494 353.264 153.581 345.995 139.538 361.046 C 131.770 369.372 125.675 393.406 125.673 393.409 C 125.675 393.406 133.874 369.945 137.936 363.103 C 146.517 348.648 114.160 339.945 104.095 356.822 C 99.567 364.414 92.411 391.209 92.410 391.212 C 92.411 391.209 98.178 368.169 100.738 361.788 C 109.706 339.436 75.177 344.572 69.077 358.029 C 64.884 367.280 61.414 389.755 61.413 389.758 C 61.414 389.755 66.715 367.531 68.652 360.442 C 74.656 338.475 41.577 338.359 36.014 358.879 C 33.574 367.879 34.979 375.194 34.637 397.168 C 33.815 449.851 86.293 445.662 86.298 445.667 Z"/>
</g>
<g id="specs_2">
<path fill="#ff0000" fill-rule="evenodd" stroke="none" d="M 79.411 333.303 C 79.407 333.304 45.388 345.453 45.385 345.455 C 45.386 345.453 56.691 333.304 56.692 333.303 C 56.691 333.302 45.386 321.152 45.385 321.151 C 45.388 321.152 79.407 333.302 79.411 333.303 Z"/>
<path fill="#00ff00" fill-rule="evenodd" stroke="none" d="M 8.568 333.303 C 8.571 333.304 42.590 345.453 42.594 345.455 C 42.593 345.453 31.288 333.304 31.287 333.303 C 31.288 333.302 42.593 321.152 42.594 321.151 C 42.590 321.152 8.571 333.302 8.568 333.303 Z"/>
</g>
</g>
</svg>
