<?xml version="1.0" encoding="utf-8"?>
<!-- Generator: Moho 13.5.1 build 20210623 -->
<!DOCTYPE svg PUBLIC "-//W3C//DTD SVG 1.1//EN" "http://www.w3.org/Graphics/SVG/1.1/DTD/svg11.dtd">
<svg version="1.1" id="Frame_0" xmlns="http://www.w3.org/2000/svg" xmlns:xlink="http://www.w3.org/1999/xlink" width="720px" height="720px">
<g id="wings_pair">
<g id="wings_pair">
<radialGradient id="9F2E47BE-F6A0-4FE6-9CC4-9D72E7127A3B_0" cx="51.11%" cy="48.39%" r="71.46%">
<stop offset="50.00%" style="stop-color:rgb(255,255,255);stop-opacity:1.00" />
<stop offset="100.00%" style="stop-color:rgb(0,0,0);stop-opacity:1.00" />
</radialGradient>
<path id="S12_2" fill="url(#9F2E47BE-F6A0-4FE6-9CC4-9D72E7127A3B_0)" fill-rule="evenodd" stroke="#000000" stroke-width="2" stroke-linecap="round" stroke-linejoin="round" d="M 125.823 313.434 C 148.421 297.373 170.352 279.462 193.215 275.711 C 235.159 268.831 268.396 357.446 331.138 308.127 C 346.465 296.079 359.636 319.331 359.638 319.332 C 359.637 319.334 349.160 332.178 343.437 337.872 C 337.474 343.804 331.107 349.177 324.488 353.877 C 318.224 358.325 311.644 362.200 304.903 365.450 C 297.153 369.186 288.965 372.117 280.675 374.162 C 272.184 376.256 263.905 377.435 255.579 377.816 C 247.439 378.189 239.122 377.775 230.842 376.600 C 222.914 375.476 214.865 373.599 206.929 371.026 C 199.301 368.554 192.125 365.621 185.090 362.136 C 177.767 358.510 170.046 353.882 162.599 348.581 C 155.624 343.619 148.330 337.508 141.425 330.732 C 135.965 325.374 130.751 319.602 125.823 313.434 Z"/>
<radialGradient id="9F2E47BE-F6A0-4FE6-9CC4-9D72E7127A3B_1" cx="50.10%" cy="47.83%" r="66.31%">
<stop offset="50.00%" style="stop-color:rgb(255,255,255);stop-opacity:1.00" />
<stop offset="100.00%" style="stop-color:rgb(0,0,0);stop-opacity:1.00" />
</radialGradient>
<path fill="none" stroke="#ffffff" stroke-width="1" stroke-linecap="butt" stroke-linejoin="round" d="M 359.638 319.332 C 359.637 319.334 349.160 332.178 343.437 337.872 "/>
<path id="S13_2" fill="url(#9F2E47BE-F6A0-4FE6-9CC4-9D72E7127A3B_1)" fill-rule="evenodd" stroke="#000000" stroke-width="2" stroke-linecap="round" stroke-linejoin="round" d="M 343.437 337.872 C 349.640 346.959 355.843 356.046 362.046 365.132 C 373.434 363.706 381.240 351.486 380.051 339.744 C 380.051 339.744 359.641 319.334 359.638 319.332 C 359.637 319.334 349.160 332.178 343.437 337.872 Z"/>
<radialGradient id="9F2E47BE-F6A0-4FE6-9CC4-9D72E7127A3B_2" cx="52.66%" cy="53.35%" r="58.52%">
<stop offset="50.00%" style="stop-color:rgb(255,255,255);stop-opacity:1.00" />
<stop offset="100.00%" style="stop-color:rgb(0,0,0);stop-opacity:1.00" />
</radialGradient>
<path fill="none" stroke="#ffffff" stroke-width="1" stroke-linecap="butt" stroke-linejoin="round" d="M 343.437 337.872 C 349.640 346.959 355.843 356.046 362.046 365.132 "/>
<path fill="none" stroke="#ffffff" stroke-width="1" stroke-linecap="butt" stroke-linejoin="round" d="M 324.488 353.877 C 331.107 349.177 337.474 343.804 343.437 337.872 "/>
<path id="S14_2" fill="url(#9F2E47BE-F6A0-4FE6-9CC4-9D72E7127A3B_2)" fill-rule="evenodd" stroke="#000000" stroke-width="2" stroke-linecap="round" stroke-linejoin="round" d="M 343.437 337.872 C 349.640 346.959 355.843 356.046 362.046 365.132 C 363.138 377.435 353.667 389.277 341.517 388.842 C 335.840 377.187 330.164 365.532 324.488 353.877 C 331.107 349.177 337.474 343.804 343.437 337.872 Z"/>
<radialGradient id="9F2E47BE-F6A0-4FE6-9CC4-9D72E7127A3B_3" cx="48.64%" cy="51.43%" r="66.46%">
<stop offset="50.00%" style="stop-color:rgb(255,255,255);stop-opacity:1.00" />
<stop offset="100.00%" style="stop-color:rgb(0,0,0);stop-opacity:1.00" />
</radialGradient>
<path fill="none" stroke="#ffffff" stroke-width="1" stroke-linecap="butt" stroke-linejoin="round" d="M 324.488 353.877 C 330.164 365.532 335.840 377.187 341.517 388.842 "/>
<path fill="none" stroke="#ffffff" stroke-width="1" stroke-linecap="butt" stroke-linejoin="round" d="M 304.903 365.450 C 311.644 362.200 318.224 358.325 324.488 353.877 "/>
<path id="S15_2" fill="url(#9F2E47BE-F6A0-4FE6-9CC4-9D72E7127A3B_3)" fill-rule="evenodd" stroke="#000000" stroke-width="2" stroke-linecap="round" stroke-linejoin="round" d="M 324.488 353.877 C 330.164 365.532 335.840 377.187 341.517 388.842 C 339.352 401.898 328.455 410.865 316.018 410.834 C 312.313 395.706 308.608 380.578 304.903 365.450 C 311.644 362.200 318.224 358.325 324.488 353.877 Z"/>
<radialGradient id="9F2E47BE-F6A0-4FE6-9CC4-9D72E7127A3B_4" cx="43.45%" cy="50.72%" r="74.03%">
<stop offset="50.00%" style="stop-color:rgb(255,255,255);stop-opacity:1.00" />
<stop offset="100.00%" style="stop-color:rgb(0,0,0);stop-opacity:1.00" />
</radialGradient>
<path fill="none" stroke="#ffffff" stroke-width="1" stroke-linecap="butt" stroke-linejoin="round" d="M 304.903 365.450 C 308.608 380.578 312.313 395.706 316.018 410.834 "/>
<path fill="none" stroke="#ffffff" stroke-width="1" stroke-linecap="butt" stroke-linejoin="round" d="M 280.675 374.162 C 288.965 372.117 297.153 369.186 304.903 365.450 "/>
<path id="S16_2" fill="url(#9F2E47BE-F6A0-4FE6-9CC4-9D72E7127A3B_4)" fill-rule="evenodd" stroke="#000000" stroke-width="2" stroke-linecap="round" stroke-linejoin="round" d="M 304.903 365.450 C 308.608 380.578 312.313 395.706 316.018 410.834 C 311.561 422.323 298.365 429.757 284.971 427.361 C 283.539 409.628 282.107 391.895 280.675 374.162 C 288.965 372.117 297.153 369.186 304.903 365.450 Z"/>
<radialGradient id="9F2E47BE-F6A0-4FE6-9CC4-9D72E7127A3B_5" cx="44.47%" cy="54.04%" r="73.90%">
<stop offset="50.00%" style="stop-color:rgb(255,255,255);stop-opacity:1.00" />
<stop offset="100.00%" style="stop-color:rgb(0,0,0);stop-opacity:1.00" />
</radialGradient>
<path fill="none" stroke="#ffffff" stroke-width="1" stroke-linecap="butt" stroke-linejoin="round" d="M 280.675 374.162 C 282.107 391.895 283.539 409.628 284.971 427.361 "/>
<path fill="none" stroke="#ffffff" stroke-width="1" stroke-linecap="butt" stroke-linejoin="round" d="M 255.579 377.816 C 263.905 377.435 272.184 376.256 280.675 374.162 "/>
<path id="S17_2" fill="url(#9F2E47BE-F6A0-4FE6-9CC4-9D72E7127A3B_5)" fill-rule="evenodd" stroke="#000000" stroke-width="2" stroke-linecap="round" stroke-linejoin="round" d="M 280.675 374.162 C 282.107 391.895 283.539 409.628 284.971 427.361 C 278.775 436.225 264.752 440.339 252.281 433.442 C 253.381 414.900 254.480 396.358 255.579 377.816 C 263.905 377.435 272.184 376.256 280.675 374.162 Z"/>
<radialGradient id="9F2E47BE-F6A0-4FE6-9CC4-9D72E7127A3B_6" cx="50.92%" cy="48.74%" r="72.22%">
<stop offset="50.00%" style="stop-color:rgb(255,255,255);stop-opacity:1.00" />
<stop offset="100.00%" style="stop-color:rgb(0,0,0);stop-opacity:1.00" />
</radialGradient>
<path fill="none" stroke="#ffffff" stroke-width="1" stroke-linecap="butt" stroke-linejoin="round" d="M 255.579 377.816 C 254.480 396.358 253.381 414.900 252.281 433.442 "/>
<path fill="none" stroke="#ffffff" stroke-width="1" stroke-linecap="butt" stroke-linejoin="round" d="M 230.842 376.600 C 239.122 377.775 247.439 378.189 255.579 377.816 "/>
<path id="S18_2" fill="url(#9F2E47BE-F6A0-4FE6-9CC4-9D72E7127A3B_6)" fill-rule="evenodd" stroke="#000000" stroke-width="2" stroke-linecap="round" stroke-linejoin="round" d="M 255.579 377.816 C 254.480 396.358 253.381 414.900 252.281 433.442 C 243.252 440.316 226.473 438.557 218.337 428.212 C 222.505 411.008 226.674 393.804 230.842 376.600 C 239.122 377.775 247.439 378.189 255.579 377.816 Z"/>
<radialGradient id="9F2E47BE-F6A0-4FE6-9CC4-9D72E7127A3B_7" cx="44.59%" cy="49.31%" r="73.99%">
<stop offset="50.00%" style="stop-color:rgb(255,255,255);stop-opacity:1.00" />
<stop offset="100.00%" style="stop-color:rgb(0,0,0);stop-opacity:1.00" />
</radialGradient>
<path fill="none" stroke="#ffffff" stroke-width="1" stroke-linecap="butt" stroke-linejoin="round" d="M 230.842 376.600 C 226.674 393.804 222.505 411.008 218.337 428.212 "/>
<path fill="none" stroke="#ffffff" stroke-width="1" stroke-linecap="butt" stroke-linejoin="round" d="M 206.929 371.026 C 214.865 373.599 222.914 375.476 230.842 376.600 "/>
<path id="S19_2" fill="url(#9F2E47BE-F6A0-4FE6-9CC4-9D72E7127A3B_7)" fill-rule="evenodd" stroke="#000000" stroke-width="2" stroke-linecap="round" stroke-linejoin="round" d="M 230.842 376.600 C 226.674 393.804 222.505 411.008 218.337 428.212 C 206.464 431.902 190.961 426.740 184.944 415.809 C 192.272 400.882 199.601 385.954 206.929 371.026 C 214.865 373.599 222.914 375.476 230.842 376.600 Z"/>
<radialGradient id="9F2E47BE-F6A0-4FE6-9CC4-9D72E7127A3B_8" cx="32.99%" cy="30.53%" r="87.35%">
<stop offset="50.00%" style="stop-color:rgb(255,255,255);stop-opacity:1.00" />
<stop offset="100.00%" style="stop-color:rgb(0,0,0);stop-opacity:1.00" />
</radialGradient>
<path fill="none" stroke="#ffffff" stroke-width="1" stroke-linecap="butt" stroke-linejoin="round" d="M 206.929 371.026 C 199.601 385.954 192.272 400.882 184.944 415.809 "/>
<path fill="none" stroke="#ffffff" stroke-width="1" stroke-linecap="butt" stroke-linejoin="round" d="M 185.090 362.136 C 192.125 365.621 199.301 368.554 206.929 371.026 "/>
<path id="S20_2" fill="url(#9F2E47BE-F6A0-4FE6-9CC4-9D72E7127A3B_8)" fill-rule="evenodd" stroke="#000000" stroke-width="2" stroke-linecap="round" stroke-linejoin="round" d="M 206.929 371.026 C 199.601 385.954 192.272 400.882 184.944 415.809 C 167.764 438.607 134.914 453.130 124.199 442.640 C 144.496 415.806 164.793 388.971 185.090 362.136 C 192.125 365.621 199.301 368.554 206.929 371.026 Z"/>
<radialGradient id="9F2E47BE-F6A0-4FE6-9CC4-9D72E7127A3B_9" cx="41.49%" cy="40.97%" r="84.93%">
<stop offset="50.00%" style="stop-color:rgb(255,255,255);stop-opacity:1.00" />
<stop offset="100.00%" style="stop-color:rgb(0,0,0);stop-opacity:1.00" />
</radialGradient>
<path fill="none" stroke="#ffffff" stroke-width="1" stroke-linecap="butt" stroke-linejoin="round" d="M 185.090 362.136 C 164.793 388.971 144.496 415.806 124.199 442.640 "/>
<path fill="none" stroke="#ffffff" stroke-width="1" stroke-linecap="butt" stroke-linejoin="round" d="M 162.599 348.581 C 170.046 353.882 177.767 358.510 185.090 362.136 "/>
<path id="S21_2" fill="url(#9F2E47BE-F6A0-4FE6-9CC4-9D72E7127A3B_9)" fill-rule="evenodd" stroke="#000000" stroke-width="2" stroke-linecap="round" stroke-linejoin="round" d="M 185.090 362.136 C 164.793 388.971 144.496 415.806 124.199 442.640 C 109.675 454.594 85.897 454.375 78.172 443.959 C 106.314 412.167 134.457 380.374 162.599 348.581 C 170.046 353.882 177.767 358.510 185.090 362.136 Z"/>
<radialGradient id="9F2E47BE-F6A0-4FE6-9CC4-9D72E7127A3B_10" cx="43.04%" cy="46.58%" r="79.64%">
<stop offset="50.00%" style="stop-color:rgb(255,255,255);stop-opacity:1.00" />
<stop offset="100.00%" style="stop-color:rgb(0,0,0);stop-opacity:1.00" />
</radialGradient>
<path fill="none" stroke="#ffffff" stroke-width="1" stroke-linecap="butt" stroke-linejoin="round" d="M 162.599 348.581 C 134.457 380.374 106.314 412.167 78.172 443.959 "/>
<path fill="none" stroke="#ffffff" stroke-width="1" stroke-linecap="butt" stroke-linejoin="round" d="M 141.425 330.732 C 148.330 337.508 155.624 343.619 162.599 348.581 "/>
<path id="S22_2" fill="url(#9F2E47BE-F6A0-4FE6-9CC4-9D72E7127A3B_10)" fill-rule="evenodd" stroke="#000000" stroke-width="2" stroke-linecap="round" stroke-linejoin="round" d="M 162.599 348.581 C 134.457 380.374 106.314 412.167 78.172 443.959 C 63.746 449.734 46.428 442.678 43.743 431.856 C 76.303 398.148 108.864 364.440 141.425 330.732 C 148.330 337.508 155.624 343.619 162.599 348.581 Z"/>
<radialGradient id="9F2E47BE-F6A0-4FE6-9CC4-9D72E7127A3B_11" cx="39.71%" cy="46.85%" r="84.57%">
<stop offset="50.00%" style="stop-color:rgb(255,255,255);stop-opacity:1.00" />
<stop offset="100.00%" style="stop-color:rgb(0,0,0);stop-opacity:1.00" />
</radialGradient>
<path fill="none" stroke="#ffffff" stroke-width="1" stroke-linecap="butt" stroke-linejoin="round" d="M 141.425 330.732 C 108.864 364.440 76.303 398.148 43.743 431.856 "/>
<path fill="none" stroke="#ffffff" stroke-width="1" stroke-linecap="butt" stroke-linejoin="round" d="M 125.823 313.434 C 130.751 319.602 135.965 325.374 141.425 330.732 "/>
<path id="S23_2" fill="url(#9F2E47BE-F6A0-4FE6-9CC4-9D72E7127A3B_11)" fill-rule="evenodd" stroke="#000000" stroke-width="2" stroke-linecap="round" stroke-linejoin="round" d="M 141.425 330.732 C 108.864 364.440 76.303 398.148 43.743 431.856 C 32.177 437.454 3.265 427.297 16.511 412.889 C 31.308 396.796 75.517 349.187 125.823 313.434 C 130.751 319.602 135.965 325.374 141.425 330.732 Z"/>
<radialGradient id="9F2E47BE-F6A0-4FE6-9CC4-9D72E7127A3B_12" cx="48.64%" cy="48.40%" r="71.63%">
<stop offset="50.00%" style="stop-color:rgb(255,255,255);stop-opacity:1.00" />
<stop offset="100.00%" style="stop-color:rgb(0,0,0);stop-opacity:1.00" />
</radialGradient>
<path id="S12_2_2" fill="url(#9F2E47BE-F6A0-4FE6-9CC4-9D72E7127A3B_12)" fill-rule="evenodd" stroke="#000000" stroke-width="2" stroke-linecap="round" stroke-linejoin="round" d="M 594.177 313.764 C 571.579 297.703 549.648 279.792 526.785 276.041 C 484.841 269.160 461.961 355.318 388.862 308.456 C 371.298 297.196 360.364 319.660 360.362 319.661 C 360.363 319.663 370.840 332.508 376.563 338.201 C 382.526 344.133 388.893 349.506 395.512 354.207 C 401.776 358.654 408.356 362.530 415.097 365.779 C 422.847 369.515 431.035 372.447 439.325 374.491 C 447.816 376.585 456.095 377.764 464.421 378.145 C 472.561 378.518 480.878 378.104 489.158 376.930 C 497.086 375.805 505.135 373.929 513.071 371.356 C 520.699 368.884 527.875 365.951 534.910 362.466 C 542.233 358.840 549.954 354.211 557.401 348.910 C 564.376 343.948 571.670 337.837 578.575 331.061 C 584.035 325.703 589.249 319.931 594.177 313.764 Z"/>
<radialGradient id="9F2E47BE-F6A0-4FE6-9CC4-9D72E7127A3B_13" cx="56.68%" cy="48.91%" r="66.31%">
<stop offset="50.00%" style="stop-color:rgb(255,255,255);stop-opacity:1.00" />
<stop offset="100.00%" style="stop-color:rgb(0,0,0);stop-opacity:1.00" />
</radialGradient>
<path fill="none" stroke="#ffffff" stroke-width="1" stroke-linecap="butt" stroke-linejoin="round" d="M 360.362 319.661 C 360.363 319.663 370.840 332.508 376.563 338.201 "/>
<path id="S13_2_2" fill="url(#9F2E47BE-F6A0-4FE6-9CC4-9D72E7127A3B_13)" fill-rule="evenodd" stroke="#000000" stroke-width="2" stroke-linecap="round" stroke-linejoin="round" d="M 376.563 338.201 C 370.360 347.288 364.157 356.375 357.954 365.462 C 346.566 364.036 338.761 351.816 339.949 340.074 C 339.949 340.074 360.360 319.663 360.362 319.661 C 360.363 319.663 370.840 332.508 376.563 338.201 Z"/>
<radialGradient id="9F2E47BE-F6A0-4FE6-9CC4-9D72E7127A3B_14" cx="47.34%" cy="50.42%" r="62.11%">
<stop offset="50.00%" style="stop-color:rgb(255,255,255);stop-opacity:1.00" />
<stop offset="100.00%" style="stop-color:rgb(0,0,0);stop-opacity:1.00" />
</radialGradient>
<path fill="none" stroke="#ffffff" stroke-width="1" stroke-linecap="butt" stroke-linejoin="round" d="M 376.563 338.201 C 370.360 347.288 364.157 356.375 357.954 365.462 "/>
<path fill="none" stroke="#ffffff" stroke-width="1" stroke-linecap="butt" stroke-linejoin="round" d="M 395.512 354.207 C 388.893 349.506 382.526 344.133 376.563 338.201 "/>
<path id="S14_2_2" fill="url(#9F2E47BE-F6A0-4FE6-9CC4-9D72E7127A3B_14)" fill-rule="evenodd" stroke="#000000" stroke-width="2" stroke-linecap="round" stroke-linejoin="round" d="M 376.563 338.201 C 370.360 347.288 364.157 356.375 357.954 365.462 C 356.862 377.765 366.333 389.606 378.483 389.171 C 384.160 377.517 389.836 365.862 395.512 354.207 C 388.893 349.506 382.526 344.133 376.563 338.201 Z"/>
<radialGradient id="9F2E47BE-F6A0-4FE6-9CC4-9D72E7127A3B_15" cx="47.28%" cy="50.27%" r="65.66%">
<stop offset="50.00%" style="stop-color:rgb(255,255,255);stop-opacity:1.00" />
<stop offset="100.00%" style="stop-color:rgb(0,0,0);stop-opacity:1.00" />
</radialGradient>
<path fill="none" stroke="#ffffff" stroke-width="1" stroke-linecap="butt" stroke-linejoin="round" d="M 395.512 354.207 C 389.836 365.862 384.160 377.517 378.483 389.171 "/>
<path fill="none" stroke="#ffffff" stroke-width="1" stroke-linecap="butt" stroke-linejoin="round" d="M 415.097 365.779 C 408.356 362.530 401.776 358.654 395.512 354.207 "/>
<path id="S15_2_2" fill="url(#9F2E47BE-F6A0-4FE6-9CC4-9D72E7127A3B_15)" fill-rule="evenodd" stroke="#000000" stroke-width="2" stroke-linecap="round" stroke-linejoin="round" d="M 395.512 354.207 C 389.836 365.862 384.160 377.517 378.483 389.171 C 380.648 402.228 391.545 411.194 403.982 411.163 C 407.687 396.035 411.392 380.907 415.097 365.779 C 408.356 362.530 401.776 358.654 395.512 354.207 Z"/>
<radialGradient id="9F2E47BE-F6A0-4FE6-9CC4-9D72E7127A3B_16" cx="49.03%" cy="50.73%" r="67.19%">
<stop offset="50.00%" style="stop-color:rgb(255,255,255);stop-opacity:1.00" />
<stop offset="100.00%" style="stop-color:rgb(0,0,0);stop-opacity:1.00" />
</radialGradient>
<path fill="none" stroke="#ffffff" stroke-width="1" stroke-linecap="butt" stroke-linejoin="round" d="M 415.097 365.779 C 411.392 380.907 407.687 396.035 403.982 411.163 "/>
<path fill="none" stroke="#ffffff" stroke-width="1" stroke-linecap="butt" stroke-linejoin="round" d="M 439.325 374.491 C 431.035 372.447 422.847 369.515 415.097 365.779 "/>
<path id="S16_2_2" fill="url(#9F2E47BE-F6A0-4FE6-9CC4-9D72E7127A3B_16)" fill-rule="evenodd" stroke="#000000" stroke-width="2" stroke-linecap="round" stroke-linejoin="round" d="M 415.097 365.779 C 411.392 380.907 407.687 396.035 403.982 411.163 C 408.439 422.652 421.635 430.086 435.029 427.690 C 436.461 409.957 437.893 392.224 439.325 374.491 C 431.035 372.447 422.847 369.515 415.097 365.779 Z"/>
<radialGradient id="9F2E47BE-F6A0-4FE6-9CC4-9D72E7127A3B_17" cx="50.99%" cy="50.61%" r="67.57%">
<stop offset="50.00%" style="stop-color:rgb(255,255,255);stop-opacity:1.00" />
<stop offset="100.00%" style="stop-color:rgb(0,0,0);stop-opacity:1.00" />
</radialGradient>
<path fill="none" stroke="#ffffff" stroke-width="1" stroke-linecap="butt" stroke-linejoin="round" d="M 439.325 374.491 C 437.893 392.224 436.461 409.957 435.029 427.690 "/>
<path fill="none" stroke="#ffffff" stroke-width="1" stroke-linecap="butt" stroke-linejoin="round" d="M 464.421 378.145 C 456.095 377.764 447.816 376.585 439.325 374.491 "/>
<path id="S17_2_2" fill="url(#9F2E47BE-F6A0-4FE6-9CC4-9D72E7127A3B_17)" fill-rule="evenodd" stroke="#000000" stroke-width="2" stroke-linecap="round" stroke-linejoin="round" d="M 439.325 374.491 C 437.893 392.224 436.461 409.957 435.029 427.690 C 441.225 436.555 455.248 440.669 467.719 433.772 C 466.619 415.230 465.520 396.688 464.421 378.145 C 456.095 377.764 447.816 376.585 439.325 374.491 Z"/>
<radialGradient id="9F2E47BE-F6A0-4FE6-9CC4-9D72E7127A3B_18" cx="52.22%" cy="48.20%" r="72.58%">
<stop offset="50.00%" style="stop-color:rgb(255,255,255);stop-opacity:1.00" />
<stop offset="100.00%" style="stop-color:rgb(0,0,0);stop-opacity:1.00" />
</radialGradient>
<path fill="none" stroke="#ffffff" stroke-width="1" stroke-linecap="butt" stroke-linejoin="round" d="M 464.421 378.145 C 465.520 396.688 466.619 415.230 467.719 433.772 "/>
<path fill="none" stroke="#ffffff" stroke-width="1" stroke-linecap="butt" stroke-linejoin="round" d="M 489.158 376.930 C 480.878 378.104 472.561 378.518 464.421 378.145 "/>
<path id="S18_2_2" fill="url(#9F2E47BE-F6A0-4FE6-9CC4-9D72E7127A3B_18)" fill-rule="evenodd" stroke="#000000" stroke-width="2" stroke-linecap="round" stroke-linejoin="round" d="M 464.421 378.145 C 465.520 396.688 466.619 415.230 467.719 433.772 C 476.749 440.646 493.527 438.887 501.663 428.541 C 497.495 411.337 493.326 394.133 489.158 376.930 C 480.878 378.104 472.561 378.518 464.421 378.145 Z"/>
<radialGradient id="9F2E47BE-F6A0-4FE6-9CC4-9D72E7127A3B_19" cx="57.21%" cy="46.48%" r="71.62%">
<stop offset="50.00%" style="stop-color:rgb(255,255,255);stop-opacity:1.00" />
<stop offset="100.00%" style="stop-color:rgb(0,0,0);stop-opacity:1.00" />
</radialGradient>
<path fill="none" stroke="#ffffff" stroke-width="1" stroke-linecap="butt" stroke-linejoin="round" d="M 489.158 376.930 C 493.326 394.133 497.495 411.337 501.663 428.541 "/>
<path fill="none" stroke="#ffffff" stroke-width="1" stroke-linecap="butt" stroke-linejoin="round" d="M 513.071 371.356 C 505.135 373.929 497.086 375.805 489.158 376.930 "/>
<path id="S19_2_2" fill="url(#9F2E47BE-F6A0-4FE6-9CC4-9D72E7127A3B_19)" fill-rule="evenodd" stroke="#000000" stroke-width="2" stroke-linecap="round" stroke-linejoin="round" d="M 489.158 376.930 C 493.326 394.133 497.495 411.337 501.663 428.541 C 513.536 432.231 529.039 427.070 535.056 416.139 C 527.728 401.211 520.399 386.284 513.071 371.356 C 505.135 373.929 497.086 375.805 489.158 376.930 Z"/>
<radialGradient id="9F2E47BE-F6A0-4FE6-9CC4-9D72E7127A3B_20" cx="68.01%" cy="30.53%" r="86.54%">
<stop offset="50.00%" style="stop-color:rgb(255,255,255);stop-opacity:1.00" />
<stop offset="100.00%" style="stop-color:rgb(0,0,0);stop-opacity:1.00" />
</radialGradient>
<path fill="none" stroke="#ffffff" stroke-width="1" stroke-linecap="butt" stroke-linejoin="round" d="M 513.071 371.356 C 520.399 386.284 527.728 401.211 535.056 416.139 "/>
<path fill="none" stroke="#ffffff" stroke-width="1" stroke-linecap="butt" stroke-linejoin="round" d="M 534.910 362.466 C 527.875 365.951 520.699 368.884 513.071 371.356 "/>
<path id="S20_2_2" fill="url(#9F2E47BE-F6A0-4FE6-9CC4-9D72E7127A3B_20)" fill-rule="evenodd" stroke="#000000" stroke-width="2" stroke-linecap="round" stroke-linejoin="round" d="M 513.071 371.356 C 520.399 386.284 527.728 401.211 535.056 416.139 C 552.235 438.937 585.086 453.459 595.801 442.969 C 575.504 416.135 555.207 389.300 534.910 362.466 C 527.875 365.951 520.699 368.884 513.071 371.356 Z"/>
<radialGradient id="9F2E47BE-F6A0-4FE6-9CC4-9D72E7127A3B_21" cx="56.19%" cy="40.17%" r="86.89%">
<stop offset="50.00%" style="stop-color:rgb(255,255,255);stop-opacity:1.00" />
<stop offset="100.00%" style="stop-color:rgb(0,0,0);stop-opacity:1.00" />
</radialGradient>
<path fill="none" stroke="#ffffff" stroke-width="1" stroke-linecap="butt" stroke-linejoin="round" d="M 534.910 362.466 C 555.207 389.300 575.504 416.135 595.801 442.969 "/>
<path fill="none" stroke="#ffffff" stroke-width="1" stroke-linecap="butt" stroke-linejoin="round" d="M 557.401 348.910 C 549.954 354.211 542.233 358.840 534.910 362.466 "/>
<path id="S21_2_2" fill="url(#9F2E47BE-F6A0-4FE6-9CC4-9D72E7127A3B_21)" fill-rule="evenodd" stroke="#000000" stroke-width="2" stroke-linecap="round" stroke-linejoin="round" d="M 534.910 362.466 C 555.207 389.300 575.504 416.135 595.801 442.969 C 610.325 454.923 634.103 454.704 641.828 444.289 C 613.686 412.496 585.543 380.703 557.401 348.910 C 549.954 354.211 542.233 358.840 534.910 362.466 Z"/>
<radialGradient id="9F2E47BE-F6A0-4FE6-9CC4-9D72E7127A3B_22" cx="55.57%" cy="42.99%" r="78.50%">
<stop offset="50.00%" style="stop-color:rgb(255,255,255);stop-opacity:1.00" />
<stop offset="100.00%" style="stop-color:rgb(0,0,0);stop-opacity:1.00" />
</radialGradient>
<path fill="none" stroke="#ffffff" stroke-width="1" stroke-linecap="butt" stroke-linejoin="round" d="M 557.401 348.910 C 585.543 380.703 613.686 412.496 641.828 444.289 "/>
<path fill="none" stroke="#ffffff" stroke-width="1" stroke-linecap="butt" stroke-linejoin="round" d="M 578.575 331.061 C 571.670 337.837 564.376 343.948 557.401 348.910 "/>
<path id="S22_2_2" fill="url(#9F2E47BE-F6A0-4FE6-9CC4-9D72E7127A3B_22)" fill-rule="evenodd" stroke="#000000" stroke-width="2" stroke-linecap="round" stroke-linejoin="round" d="M 557.401 348.910 C 585.543 380.703 613.686 412.496 641.828 444.289 C 656.254 450.064 673.572 443.007 676.258 432.185 C 643.697 398.477 611.136 364.769 578.575 331.061 C 571.670 337.837 564.376 343.948 557.401 348.910 Z"/>
<radialGradient id="9F2E47BE-F6A0-4FE6-9CC4-9D72E7127A3B_23" cx="57.71%" cy="44.78%" r="82.42%">
<stop offset="50.00%" style="stop-color:rgb(255,255,255);stop-opacity:1.00" />
<stop offset="100.00%" style="stop-color:rgb(0,0,0);stop-opacity:1.00" />
</radialGradient>
<path fill="none" stroke="#ffffff" stroke-width="1" stroke-linecap="butt" stroke-linejoin="round" d="M 578.575 331.061 C 611.136 364.769 643.697 398.477 676.258 432.185 "/>
<path fill="none" stroke="#ffffff" stroke-width="1" stroke-linecap="butt" stroke-linejoin="round" d="M 594.177 313.764 C 589.249 319.931 584.035 325.703 578.575 331.061 "/>
<path id="S23_2_2" fill="url(#9F2E47BE-F6A0-4FE6-9CC4-9D72E7127A3B_23)" fill-rule="evenodd" stroke="#000000" stroke-width="2" stroke-linecap="round" stroke-linejoin="round" d="M 578.575 331.061 C 611.136 364.769 643.697 398.477 676.258 432.185 C 687.823 437.783 716.735 427.627 703.489 413.218 C 688.693 397.125 644.483 349.517 594.177 313.764 C 589.249 319.931 584.035 325.703 578.575 331.061 Z"/>
</g>
<g id="circle">
<radialGradient id="D9A22775-5BAE-4257-B245-4EE6E53AC950_0" cx="50.00%" cy="50.00%" r="74.84%">
<stop offset="50.00%" style="stop-color:rgb(255,255,255);stop-opacity:1.00" />
<stop offset="100.00%" style="stop-color:rgb(0,0,0);stop-opacity:1.00" />
</radialGradient>
<path id="S1" fill="url(#D9A22775-5BAE-4257-B245-4EE6E53AC950_0)" fill-rule="evenodd" stroke="#000000" stroke-width="2" stroke-linecap="round" stroke-linejoin="round" d="M 360.000 422.774 C 394.745 422.774 422.775 394.745 422.774 360.000 C 422.774 325.255 394.745 297.226 360.000 297.226 C 325.255 297.226 297.226 325.255 297.226 360.000 C 297.225 394.745 325.255 422.774 360.000 422.774 Z"/>
</g>
<g id="specs_2">
<path fill="#ff00ff" fill-rule="evenodd" stroke="none" d="M 197.417 522.583 C 197.449 522.583 522.551 522.583 522.583 522.583 C 522.583 522.551 522.583 197.449 522.583 197.417 C 522.551 197.417 197.449 197.417 197.417 197.417 C 197.417 197.449 197.417 522.551 197.417 522.583 Z"/>
<path fill="#ff0000" fill-rule="evenodd" stroke="none" d="M 360.000 570.052 C 360.001 570.056 372.432 604.862 372.433 604.865 C 372.432 604.864 360.001 593.298 360.000 593.297 C 359.999 593.298 347.568 604.864 347.567 604.865 C 347.568 604.862 359.999 570.056 360.000 570.052 Z"/>
<path fill="#0000ff" fill-rule="evenodd" stroke="none" d="M 360.000 181.933 C 360.001 181.935 367.221 202.153 367.222 202.155 C 367.221 202.155 360.001 195.437 360.000 195.436 C 359.999 195.437 352.779 202.155 352.778 202.155 C 352.779 202.153 359.999 181.935 360.000 181.933 Z"/>
<path fill="#be0027" fill-rule="evenodd" stroke="none" d="M 360.000 546.295 C 360.001 546.291 372.432 511.485 372.433 511.482 C 372.432 511.483 360.001 523.049 360.000 523.050 C 359.999 523.049 347.568 511.483 347.567 511.482 C 347.568 511.485 359.999 546.291 360.000 546.295 Z"/>
</g>
</g>
</svg>
