<?xml version="1.0" encoding="utf-8"?>
<!-- Generator: Moho 13.5.1 build 20210623 -->
<!DOCTYPE svg PUBLIC "-//W3C//DTD SVG 1.1//EN" "http://www.w3.org/Graphics/SVG/1.1/DTD/svg11.dtd">
<svg version="1.1" id="Frame_0" xmlns="http://www.w3.org/2000/svg" xmlns:xlink="http://www.w3.org/1999/xlink" width="720px" height="720px">
<g id="wing_o_pain">
<g id="wing_o_pain">
<linearGradient id="3A23DBF9-4304-4FA2-A4F7-15D17F1CB72C_0" x1="37.48%" y1="73.80%" x2="66.65%" y2="-62.97%">
<stop offset="0.00%" style="stop-color:rgb(255,255,255);stop-opacity:1.00" />
<stop offset="100.00%" style="stop-color:rgb(0,0,0);stop-opacity:1.00" />
</linearGradient>
<path id="S1" fill="url(#3A23DBF9-4304-4FA2-A4F7-15D17F1CB72C_0)" fill-rule="evenodd" stroke="#000000" stroke-width="2" stroke-linecap="round" stroke-linejoin="round" d="M 128.295 111.641 C 141.328 102.227 161.599 103.672 175.359 107.295 C 201.425 113.813 228.939 127.569 253.560 137.708 C 351.311 178.981 460.631 235.643 467.887 356.380 C 467.964 382.797 466.754 411.184 472.236 435.468 C 485.288 493.282 518.551 548.086 567.492 587.477 C 520.675 575.088 506.811 555.464 496.853 553.330 C 481.508 549.508 438.927 589.538 430.237 556.228 C 425.893 541.024 442.545 531.609 453.407 525.818 C 456.305 524.370 467.887 519.299 467.887 516.401 C 467.887 513.509 455.168 509.298 427.340 520.025 C 406.179 528.182 368.688 551.159 349.864 546.813 C 329.589 542.469 324.519 521.471 336.106 506.265 C 344.794 494.679 366.516 488.162 379.551 484.544 C 392.584 480.925 444.719 476.578 446.165 475.853 C 452.681 470.783 438.927 466.440 436.029 466.440 C 428.067 464.267 409.963 465.718 401.273 466.440 C 364.345 471.510 328.862 483.818 292.661 494.678 C 276.007 499.749 258.630 508.439 241.251 498.303 C 221.701 487.441 224.596 458.477 241.251 446.169 C 257.905 433.135 322.346 426.619 344.793 426.619 C 365.069 425.892 386.067 425.168 405.616 426.619 C 412.133 428.065 424.442 431.684 429.513 426.619 C 436.029 420.822 428.066 413.584 422.996 410.687 C 417.925 409.241 381.722 404.896 375.205 404.896 C 321.625 404.896 268.040 420.822 214.458 421.549 C 202.152 422.273 186.947 423.721 176.085 415.756 C 150.019 396.928 157.980 362.171 184.772 348.416 C 192.737 344.073 201.425 344.073 210.114 344.073 C 268.765 342.624 314.384 348.415 370.862 361.449 C 383.895 364.343 396.928 367.243 409.963 369.415 C 412.861 370.139 420.099 371.586 420.823 367.240 C 425.165 351.309 373.035 338.278 362.173 335.384 C 322.347 322.351 278.902 316.555 236.182 313.661 C 217.359 312.209 165.223 312.210 150.017 306.420 C 118.881 294.111 115.984 236.182 171.015 235.461 C 215.185 234.010 286.868 251.388 327.415 267.318 C 345.520 274.560 362.897 281.799 379.551 289.766 C 383.895 291.214 394.031 297.730 398.375 296.282 C 404.171 294.112 389.687 280.350 388.240 278.178 C 375.933 265.871 360.726 256.456 344.793 247.769 C 305.693 225.320 246.318 207.940 201.425 197.805 C 180.429 192.736 139.876 192.015 124.670 176.809 C 109.464 162.324 111.637 124.674 128.295 111.641 Z"/>
</g>
<g id="specs_2">
<path fill="#ff0000" fill-rule="evenodd" stroke="none" d="M 547.409 575.191 C 547.412 575.192 582.039 588.114 582.042 588.116 C 582.040 588.116 565.186 590.169 565.184 590.169 C 565.184 590.171 566.019 607.129 566.019 607.131 C 566.017 607.128 547.411 575.194 547.409 575.191 Z"/>
<path fill="#0000ff" fill-rule="evenodd" stroke="none" d="M 145.994 63.879 C 145.994 63.881 153.215 84.099 153.216 84.101 C 153.215 84.100 145.994 77.382 145.994 77.381 C 145.993 77.382 138.772 84.100 138.772 84.101 C 138.772 84.099 145.993 63.881 145.994 63.879 Z"/>
<path fill="#00ff00" fill-rule="evenodd" stroke="none" d="M 86.972 360.967 C 86.973 360.967 100.020 356.233 100.021 356.232 C 100.021 356.233 95.701 360.923 95.701 360.923 C 95.701 360.924 100.068 365.569 100.068 365.570 C 100.067 365.569 86.973 360.968 86.972 360.967 Z"/>
<path fill="#be0027" fill-rule="evenodd" stroke="none" d="M 564.983 590.108 C 564.982 590.107 554.021 571.646 554.020 571.644 C 554.020 571.645 554.586 581.492 554.587 581.493 C 554.586 581.493 544.805 582.767 544.804 582.767 C 544.806 582.768 564.981 590.108 564.983 590.108 Z"/>
<path fill="#00ff00" fill-rule="evenodd" stroke="none" d="M 528.635 360.967 C 528.633 360.967 515.587 356.233 515.586 356.232 C 515.586 356.233 519.905 360.923 519.906 360.923 C 519.905 360.924 515.539 365.569 515.538 365.570 C 515.540 365.569 528.633 360.968 528.635 360.967 Z"/>
</g>
</g>
</svg>
