<?xml version="1.0" encoding="utf-8"?>
<!-- Generator: Moho 13.5 build 20210422 -->
<!DOCTYPE svg PUBLIC "-//W3C//DTD SVG 1.1//EN" "http://www.w3.org/Graphics/SVG/1.1/DTD/svg11.dtd">
<svg version="1.1" id="Frame_0" xmlns="http://www.w3.org/2000/svg" xmlns:xlink="http://www.w3.org/1999/xlink" width="720px" height="720px">
<g id="wing_bat">
<g id="wing_bat">
<path fill="#ffffff" fill-rule="evenodd" stroke="#000000" stroke-width="4" stroke-linejoin="round" d="M 41.730 118.586 C 41.746 118.593 166.675 153.350 207.396 188.781 C 249.203 225.157 289.077 293.547 302.014 347.433 C 313.412 394.911 272.343 465.417 292.456 509.909 C 317.614 565.559 401.343 603.816 455.888 631.288 C 519.733 663.444 684.286 699.138 684.309 699.145 C 684.301 699.127 617.396 630.222 607.850 525.200 C 600.938 449.165 629.492 377.743 641.301 376.106 C 625.284 375.838 588.425 326.525 562.930 257.594 C 535.929 184.591 547.640 120.937 547.638 120.923 C 547.623 120.922 469.147 133.080 396.632 108.499 C 329.021 85.581 287.688 30.136 287.677 30.128 C 287.666 30.131 239.584 53.876 175.283 55.272 C 109.150 56.708 60.577 40.084 60.565 40.083 C 60.564 40.086 56.671 50.909 52.949 70.990 C 48.188 96.669 41.731 118.581 41.730 118.586 Z"/>
<path fill="#000000" fill-rule="evenodd" stroke="#ffffff" stroke-width="4" stroke-linejoin="round" d="M 38.230 129.525 C 75.786 143.625 157.539 177.106 196.882 206.940 C 236.145 236.713 289.768 324.094 289.589 387.574 C 289.253 506.411 249.021 493.383 203.137 483.836 C 203.146 483.843 286.254 574.157 419.053 632.531 C 583.111 704.646 697.661 702.005 697.689 702.012 C 697.666 702.004 541.412 652.787 468.705 620.243 C 394.349 586.961 303.599 529.490 305.837 516.599 C 306.518 512.675 317.628 481.246 323.637 457.842 C 328.279 439.764 331.433 413.028 333.553 411.468 C 336.524 409.282 413.665 426.866 493.062 414.626 C 658.511 389.119 667.088 364.641 667.105 364.636 C 667.087 364.639 619.519 383.867 486.395 392.015 C 416.496 396.294 332.739 381.425 330.686 375.150 C 329.680 372.076 324.692 350.350 319.288 334.730 C 313.472 317.916 303.648 297.692 302.014 292.956 C 299.901 286.834 369.393 275.146 452.245 215.127 C 516.042 168.912 559.096 108.510 559.107 108.499 C 559.095 108.508 512.583 151.506 441.075 196.904 C 363.019 246.459 284.379 263.718 282.899 258.550 C 281.986 255.363 275.099 240.101 268.196 229.165 C 258.922 214.474 244.624 198.331 240.847 194.515 C 237.391 191.025 259.444 168.349 280.294 115.325 C 293.693 81.248 287.677 23.448 287.678 23.439 C 287.675 23.447 275.518 74.701 258.352 108.362 C 237.978 148.312 211.117 169.996 207.396 167.755 C 204.583 166.061 183.362 156.222 167.359 149.680 C 153.885 144.172 61.410 110.275 46.509 105.528 C 43.585 104.597 40.904 106.626 39.303 108.298 C 33.139 114.734 34.790 128.233 38.230 129.525 Z"/>
</g>
<g id="specs">
<path fill="#ff0000" fill-rule="evenodd" stroke="none" d="M 75.627 118.652 C 75.623 118.653 40.817 131.084 40.814 131.085 C 40.815 131.084 52.381 118.653 52.382 118.652 C 52.381 118.651 40.815 106.220 40.814 106.219 C 40.817 106.220 75.623 118.651 75.627 118.652 Z"/>
</g>
</g>
</svg>
