<?xml version="1.0" encoding="utf-8"?>
<!-- Generator: Moho 13.5 build 20210422 -->
<!DOCTYPE svg PUBLIC "-//W3C//DTD SVG 1.1//EN" "http://www.w3.org/Graphics/SVG/1.1/DTD/svg11.dtd">
<svg version="1.1" id="Frame_0" xmlns="http://www.w3.org/2000/svg" xmlns:xlink="http://www.w3.org/1999/xlink" width="720px" height="720px">
<g id="wing_egypt">
<g id="wing_Egypt_2">
<path fill="#000000" fill-rule="evenodd" stroke="#ffffff" stroke-width="4" stroke-linecap="round" stroke-linejoin="round" d="M 58.746 284.544 C 68.499 282.407 273.507 286.614 306.033 284.543 C 438.868 276.085 502.380 277.520 687.430 223.593 C 720.170 214.052 709.417 263.061 650.186 282.496 C 625.837 290.485 480.062 303.792 480.045 303.794 C 480.062 303.792 614.803 293.858 649.504 286.145 C 688.218 277.538 691.337 322.772 641.551 339.609 C 616.454 348.097 461.581 336.518 461.563 336.518 C 461.581 336.518 610.351 346.548 635.136 343.469 C 669.434 339.209 675.071 391.351 620.732 395.976 C 601.987 397.572 447.914 362.224 447.897 362.221 C 447.914 362.224 556.230 391.688 620.922 398.000 C 651.239 400.958 626.314 449.164 580.308 444.644 C 550.594 441.726 409.661 383.398 409.643 383.392 C 409.660 383.399 481.071 419.151 578.034 446.924 C 612.851 456.896 571.751 491.082 532.828 485.558 C 501.394 481.097 378.408 393.747 378.392 393.738 C 378.404 393.745 443.349 443.687 489.748 468.328 C 534.616 492.156 483.759 516.695 440.009 492.577 C 420.038 481.567 357.872 412.178 357.864 412.170 C 357.872 412.178 382.944 449.848 433.981 489.388 C 455.255 505.869 397.217 516.536 374.571 493.641 C 352.062 470.885 306.094 410.472 306.087 410.463 C 306.094 410.472 339.740 455.167 372.160 496.407 C 384.470 512.067 332.121 511.260 315.677 495.130 C 305.357 485.007 260.576 413.031 260.570 413.023 C 260.576 413.031 273.231 444.114 311.543 493.003 C 322.949 507.558 278.031 510.894 260.743 493.429 C 247.009 479.553 213.735 408.777 213.730 408.769 C 213.734 408.777 226.425 445.104 259.193 496.407 C 270.765 514.525 229.987 514.770 215.453 494.067 C 199.322 471.090 171.028 399.418 171.024 399.409 C 171.028 399.418 182.633 440.455 211.664 493.854 C 221.711 512.334 179.116 514.505 165.170 492.365 C 156.653 478.843 125.565 401.120 125.561 401.110 C 125.565 401.120 129.503 435.846 163.446 494.705 C 171.732 509.073 127.952 507.512 119.363 493.216 C 106.293 471.463 91.812 402.822 91.809 402.813 C 91.811 402.822 96.442 432.609 113.851 494.705 C 114.734 497.854 90.381 505.819 80.787 493.003 C 67.672 475.484 57.370 407.926 57.367 407.917 C 57.369 407.926 60.608 451.902 71.833 492.153 C 75.183 504.168 49.060 498.759 42.902 487.047 C 32.510 467.283 35.604 448.595 33.259 405.365 C 31.148 366.467 27.932 291.292 58.746 284.544 Z"/>
<path fill="#ffffff" fill-rule="evenodd" stroke="#000000" stroke-width="4" stroke-linecap="round" stroke-linejoin="round" d="M 295.700 282.842 C 295.722 282.839 443.118 277.061 513.541 255.190 C 527.060 250.991 529.201 304.617 488.946 312.265 C 456.514 318.427 325.336 309.218 325.320 309.218 C 325.337 309.219 461.862 321.445 500.794 316.364 C 516.498 314.315 510.974 362.537 465.840 364.524 C 440.272 365.650 303.982 321.985 303.966 321.981 C 303.983 321.985 435.205 365.605 468.444 368.453 C 490.826 370.371 459.150 415.448 431.736 406.928 C 395.115 395.546 290.204 337.304 290.190 337.297 C 290.203 337.304 380.594 391.982 419.425 404.328 C 444.464 412.288 402.923 447.648 368.076 430.396 C 344.524 418.735 266.780 348.366 266.769 348.358 C 266.778 348.366 329.273 405.593 354.250 424.935 C 377.108 442.635 323.985 447.007 313.609 442.803 C 291.913 434.010 236.469 356.024 236.462 356.016 C 236.467 356.023 279.959 411.652 295.011 432.593 C 302.360 442.816 270.635 446.755 250.927 438.548 C 234.149 431.562 202.026 362.830 202.021 362.822 C 202.025 362.829 227.083 416.498 239.216 434.294 C 243.726 440.909 218.482 453.881 199.954 440.250 C 188.222 431.620 157.251 361.129 157.247 361.121 C 157.250 361.128 180.799 416.131 190.311 433.443 C 194.012 440.179 168.298 452.389 152.425 437.698 C 141.597 427.676 123.497 370.487 123.494 370.480 C 123.497 370.486 141.419 420.627 147.603 435.145 C 150.495 441.933 121.773 452.261 111.096 437.698 C 103.576 427.440 87.678 370.487 87.675 370.480 C 87.677 370.486 103.378 417.398 107.652 433.443 C 109.439 440.155 84.284 453.157 73.211 434.294 C 66.871 423.494 58.747 373.889 58.746 373.883 C 58.747 373.889 66.597 414.921 69.077 430.891 C 70.273 438.590 51.402 453.421 38.080 435.145 C 32.886 428.019 33.183 408.807 32.570 391.752 C 29.675 311.185 35.541 315.274 60.123 307.516 C 60.147 307.513 295.677 282.844 295.700 282.842 Z"/>
<path fill="#000000" fill-rule="evenodd" stroke="#ffffff" stroke-width="4" stroke-linecap="round" stroke-linejoin="round" d="M 148.981 321.130 C 160.826 319.458 278.808 286.166 301.211 283.693 C 309.972 282.725 336.020 284.643 362.516 283.692 C 375.662 283.220 378.296 320.503 339.784 322.832 C 333.703 323.200 298.460 313.473 298.456 313.472 C 298.460 313.473 333.971 325.127 343.229 328.788 C 359.066 335.051 336.489 360.391 317.054 357.716 C 302.205 355.673 267.464 318.581 267.459 318.577 C 267.463 318.581 296.411 348.752 308.787 358.568 C 321.575 368.711 289.617 382.014 277.790 374.734 C 269.476 369.616 230.267 326.240 230.262 326.235 C 230.266 326.240 262.032 363.562 270.902 375.585 C 280.050 387.984 258.693 398.694 238.528 388.348 C 227.093 382.481 203.401 335.600 203.398 335.595 C 203.400 335.600 228.487 380.712 228.196 389.199 C 227.893 398.046 208.598 400.208 196.509 390.900 C 189.277 385.332 168.959 339.003 168.957 338.998 C 168.959 339.003 188.259 382.363 190.310 390.050 C 194.209 404.659 166.576 405.198 158.625 395.154 C 153.475 388.650 137.273 341.556 137.271 341.551 C 137.273 341.556 149.029 380.496 152.425 393.453 C 154.456 401.203 129.768 408.298 119.361 391.752 C 115.752 386.013 105.586 346.661 105.585 346.656 C 105.586 346.660 110.018 374.843 115.918 390.900 C 123.067 410.360 95.412 412.446 85.609 401.962 C 75.928 391.608 71.145 342.407 71.144 342.401 C 71.144 342.406 78.032 386.091 77.343 393.453 C 76.191 405.776 56.164 407.536 47.035 401.111 C 31.651 390.285 32.872 351.273 38.080 326.235 C 48.847 320.886 140.593 322.314 148.981 321.130 Z"/>
<path fill="#ffffff" fill-rule="evenodd" stroke="#000000" stroke-width="4" stroke-linecap="round" stroke-linejoin="round" d="M 86.298 274.333 C 86.321 274.334 305.092 282.307 310.129 282.347 C 364.364 282.775 323.956 325.295 292.895 317.015 C 284.847 314.870 260.486 306.033 260.483 306.032 C 260.485 306.033 281.651 312.690 288.210 315.483 C 317.763 328.062 272.957 348.784 254.057 339.245 C 245.763 335.059 225.355 314.078 225.353 314.076 C 225.355 314.078 241.075 330.147 253.169 339.276 C 265.944 348.921 236.070 365.878 218.102 351.514 C 209.951 344.998 190.713 319.432 190.711 319.429 C 190.713 319.432 205.424 339.187 215.146 350.445 C 224.035 360.740 193.532 373.399 176.910 355.412 C 165.100 342.632 158.739 324.536 158.737 324.533 C 158.738 324.536 168.184 346.449 172.776 352.534 C 183.494 366.736 153.581 374.005 139.538 358.954 C 131.770 350.628 125.675 326.594 125.673 326.591 C 125.675 326.594 133.874 350.055 137.936 356.897 C 146.517 371.352 114.160 380.055 104.095 363.178 C 99.567 355.586 92.411 328.791 92.410 328.788 C 92.411 328.791 98.178 351.831 100.738 358.212 C 109.706 380.564 75.177 375.428 69.077 361.971 C 64.884 352.720 61.414 330.245 61.413 330.242 C 61.414 330.245 66.715 352.469 68.652 359.558 C 74.656 381.525 41.577 381.641 36.014 361.121 C 33.574 352.121 34.979 344.806 34.637 322.832 C 33.815 270.149 86.293 274.338 86.298 274.333 Z"/>
</g>
<g id="specs_2">
<path fill="#ff0000" fill-rule="evenodd" stroke="none" d="M 107.881 382.901 C 107.877 382.900 73.858 370.751 73.855 370.749 C 73.856 370.751 85.160 382.900 85.162 382.901 C 85.160 382.902 73.856 395.052 73.855 395.053 C 73.858 395.052 107.877 382.902 107.881 382.901 Z"/>
<path fill="#0000ff" fill-rule="evenodd" stroke="none" d="M 131.645 264.350 C 131.645 264.352 124.587 284.113 124.587 284.115 C 124.587 284.114 131.645 277.548 131.645 277.547 C 131.646 277.548 138.703 284.114 138.704 284.115 C 138.703 284.113 131.646 264.352 131.645 264.350 Z"/>
<path fill="#00ff00" fill-rule="evenodd" stroke="none" d="M 664.752 360.981 C 664.750 360.980 645.025 353.822 645.023 353.822 C 645.024 353.822 651.554 360.914 651.555 360.914 C 651.554 360.915 644.953 367.939 644.952 367.939 C 644.954 367.939 664.750 360.982 664.752 360.981 Z"/>
<path fill="#ffff00" fill-rule="evenodd" stroke="none" d="M 330.017 498.962 C 330.016 498.960 321.259 479.892 321.258 479.890 C 321.258 479.891 320.797 489.520 320.797 489.521 C 320.796 489.521 311.159 489.754 311.158 489.754 C 311.160 489.755 330.015 498.961 330.017 498.962 Z"/>
<path fill="#ffff00" fill-rule="evenodd" stroke="none" d="M 74.247 498.729 C 74.248 498.727 83.387 479.838 83.388 479.836 C 83.388 479.837 83.656 489.473 83.656 489.474 C 83.657 489.474 93.287 489.901 93.288 489.901 C 93.286 489.902 74.249 498.728 74.247 498.729 Z"/>
<path fill="#00ffff" fill-rule="evenodd" stroke="none" d="M 41.375 276.984 C 41.376 276.986 48.381 296.765 48.382 296.767 C 48.382 296.766 49.709 287.218 49.709 287.217 C 49.710 287.217 59.328 287.852 59.329 287.852 C 59.327 287.851 41.377 276.985 41.375 276.984 Z"/>
<path fill="#00ffff" fill-rule="evenodd" stroke="none" d="M 708.580 221.555 C 708.579 221.557 698.341 239.874 698.340 239.876 C 698.340 239.875 698.641 230.240 698.641 230.239 C 698.641 230.238 689.053 229.244 689.052 229.244 C 689.053 229.243 708.578 221.556 708.580 221.555 Z"/>
<path fill="#be0027" fill-rule="evenodd" stroke="none" d="M 14.436 382.108 C 14.439 382.107 48.458 369.958 48.462 369.957 C 48.460 369.958 37.156 382.107 37.155 382.108 C 37.156 382.110 48.460 394.259 48.462 394.260 C 48.458 394.259 14.439 382.110 14.436 382.108 Z"/>
</g>
</g>
</svg>
