<?xml version="1.0" encoding="utf-8"?>
<!-- Generator: Moho 12.5 build 22414 -->
<!DOCTYPE svg PUBLIC "-//W3C//DTD SVG 1.1//EN" "http://www.w3.org/Graphics/SVG/1.1/DTD/svg11.dtd">
<svg version="1.1" id="Frame_0" xmlns="http://www.w3.org/2000/svg" xmlns:xlink="http://www.w3.org/1999/xlink" width="720px" height="720px">
<g id="wing_bat">
<g id="wing_bat">
<path fill="#ffffff" fill-rule="evenodd" stroke="#000000" stroke-width="4" stroke-linejoin="round" d="M 41.730 601.414 C 41.746 601.407 166.675 566.650 207.396 531.219 C 249.203 494.843 289.077 426.453 302.014 372.567 C 313.412 325.089 272.343 254.583 292.456 210.091 C 317.614 154.441 401.343 116.184 455.888 88.712 C 519.733 56.556 684.286 20.862 684.309 20.855 C 684.301 20.873 617.396 89.778 607.850 194.800 C 600.938 270.835 629.492 342.257 641.301 343.894 C 625.284 344.162 588.425 393.475 562.930 462.406 C 535.929 535.409 547.640 599.063 547.638 599.077 C 547.623 599.078 469.147 586.920 396.632 611.501 C 329.021 634.419 287.688 689.864 287.677 689.872 C 287.666 689.869 239.584 666.124 175.283 664.728 C 109.150 663.292 60.577 679.916 60.565 679.917 C 60.564 679.914 56.671 669.091 52.949 649.010 C 48.188 623.331 41.731 601.419 41.730 601.414 Z"/>
<path fill="#000000" fill-rule="evenodd" stroke="#ffffff" stroke-width="4" stroke-linejoin="round" d="M 38.230 590.475 C 75.786 576.375 157.539 542.894 196.882 513.060 C 236.145 483.287 289.768 395.906 289.589 332.426 C 289.253 213.589 249.021 226.617 203.137 236.164 C 203.146 236.157 286.254 145.843 419.053 87.469 C 583.111 15.354 697.661 17.995 697.689 17.988 C 697.666 17.996 541.412 67.213 468.705 99.757 C 394.349 133.039 303.599 190.510 305.837 203.401 C 306.518 207.325 317.628 238.754 323.637 262.158 C 328.279 280.236 331.433 306.972 333.553 308.532 C 336.524 310.718 413.665 293.134 493.062 305.374 C 658.511 330.881 667.088 355.359 667.105 355.364 C 667.087 355.361 619.519 336.133 486.395 327.985 C 416.496 323.706 332.739 338.575 330.686 344.850 C 329.680 347.924 324.692 369.650 319.288 385.270 C 313.472 402.084 303.648 422.308 302.014 427.044 C 299.901 433.166 369.393 444.854 452.245 504.873 C 516.042 551.088 559.096 611.490 559.107 611.501 C 559.095 611.492 512.583 568.494 441.075 523.096 C 363.019 473.541 284.379 456.282 282.899 461.450 C 281.986 464.637 275.099 479.899 268.196 490.835 C 258.922 505.526 244.624 521.669 240.847 525.485 C 237.391 528.975 259.444 551.651 280.294 604.675 C 293.693 638.752 287.677 696.552 287.678 696.562 C 287.675 696.553 275.518 645.299 258.352 611.638 C 237.978 571.688 211.117 550.004 207.396 552.245 C 204.583 553.939 183.362 563.778 167.359 570.320 C 153.885 575.828 61.410 609.725 46.509 614.472 C 43.585 615.403 40.904 613.375 39.303 611.702 C 33.139 605.266 34.790 591.767 38.230 590.475 Z"/>
</g>
<g id="specs">
<path fill="#ff0000" fill-rule="evenodd" stroke="none" d="M 116.765 586.851 C 116.762 586.853 91.721 614.037 91.719 614.039 C 91.719 614.038 96.183 597.656 96.183 597.654 C 96.182 597.654 80.163 592.023 80.162 592.023 C 80.165 592.022 116.761 586.851 116.765 586.851 Z"/>
<path fill="#0000ff" fill-rule="evenodd" stroke="none" d="M 383.175 38.227 C 383.177 38.228 398.539 53.226 398.540 53.227 C 398.539 53.227 389.103 50.360 389.102 50.359 C 389.102 50.360 385.562 59.566 385.562 59.567 C 385.562 59.564 383.176 38.229 383.175 38.227 Z"/>
<path fill="#00ffff" fill-rule="evenodd" stroke="none" d="M 203.309 235.481 C 203.311 235.479 217.679 219.528 217.681 219.526 C 217.681 219.527 215.194 229.072 215.194 229.073 C 215.195 229.073 224.535 232.239 224.536 232.240 C 224.534 232.240 203.312 235.481 203.309 235.481 Z"/>
<path fill="#ffff00" fill-rule="evenodd" stroke="none" d="M 286.953 698.306 C 286.952 698.304 280.238 677.912 280.238 677.910 C 280.239 677.910 287.289 684.807 287.290 684.808 C 287.291 684.807 294.677 678.272 294.678 678.271 C 294.677 678.273 286.953 698.304 286.953 698.306 Z"/>
<path fill="#ffff00" fill-rule="evenodd" stroke="none" d="M 554.695 606.590 C 554.694 606.588 546.290 586.832 546.289 586.830 C 546.289 586.831 545.538 596.665 545.538 596.666 C 545.537 596.666 535.674 596.626 535.673 596.626 C 535.675 596.627 554.693 606.589 554.695 606.590 Z"/>
<path fill="#00ff00" fill-rule="evenodd" stroke="none" d="M 668.699 354.633 C 668.698 354.631 653.289 339.682 653.287 339.680 C 653.288 339.681 656.410 349.037 656.410 349.038 C 656.410 349.038 647.303 352.826 647.302 352.826 C 647.304 352.827 668.697 354.633 668.699 354.633 Z"/>
<path fill="#00ffff" fill-rule="evenodd" stroke="none" d="M 694.549 17.636 C 694.547 17.638 676.339 29.012 676.337 29.013 C 676.337 29.012 681.358 20.522 681.358 20.521 C 681.357 20.521 673.252 14.902 673.251 14.902 C 673.253 14.902 694.547 17.636 694.549 17.636 Z"/>
<path fill="#00ff00" fill-rule="evenodd" stroke="none" d="M 248.544 429.612 C 248.546 429.612 269.983 430.774 269.986 430.774 C 269.985 430.775 260.996 434.835 260.995 434.835 C 260.996 434.836 264.398 444.093 264.398 444.094 C 264.396 444.093 248.546 429.613 248.544 429.612 Z"/>
<path fill="#be0027" fill-rule="evenodd" stroke="none" d="M 35.110 625.642 C 35.112 625.642 62.001 625.973 62.003 625.973 C 62.002 625.973 51.107 620.151 51.106 620.150 C 51.106 620.149 56.129 608.863 56.129 608.862 C 56.127 608.864 35.112 625.640 35.110 625.642 Z"/>
</g>
</g>
</svg>
