<?xml version="1.0" encoding="utf-8"?>
<!-- Generator: Moho 13.5.1 build 20210623 -->
<!DOCTYPE svg PUBLIC "-//W3C//DTD SVG 1.1//EN" "http://www.w3.org/Graphics/SVG/1.1/DTD/svg11.dtd">
<svg version="1.1" id="Frame_0" xmlns="http://www.w3.org/2000/svg" xmlns:xlink="http://www.w3.org/1999/xlink" width="720px" height="720px">
<g id="wings_pair_2">
<g id="wing">
<radialGradient id="869651AE-1BE5-4624-A46D-8D3A8CE9B47C_0" cx="45.81%" cy="44.96%" r="90.82%">
<stop offset="50.00%" style="stop-color:rgb(255,255,255);stop-opacity:1.00" />
<stop offset="100.00%" style="stop-color:rgb(0,0,0);stop-opacity:1.00" />
</radialGradient>
<path id="S12_2_2" fill="url(#869651AE-1BE5-4624-A46D-8D3A8CE9B47C_0)" fill-rule="evenodd" stroke="#000000" stroke-width="2" stroke-linecap="round" stroke-linejoin="round" d="M 584.748 291.623 C 560.334 289.314 535.614 285.293 516.440 292.532 C 481.267 305.811 501.845 381.930 425.124 378.362 C 406.689 377.504 408.249 399.547 408.247 399.549 C 408.249 399.550 421.955 404.756 428.858 406.586 C 436.049 408.493 443.303 409.793 450.452 410.466 C 457.217 411.103 463.972 411.162 470.573 410.669 C 478.161 410.104 485.731 408.728 492.985 406.628 C 500.416 404.477 507.279 401.718 513.826 398.328 C 520.226 395.014 526.414 391.018 532.237 386.457 C 537.813 382.089 543.149 377.092 548.090 371.611 C 552.840 366.344 557.040 360.923 560.888 355.142 C 564.893 349.126 568.760 342.165 572.121 334.811 C 575.269 327.925 578.155 320.018 580.447 311.774 C 582.260 305.255 583.701 298.527 584.748 291.623 Z"/>
<radialGradient id="869651AE-1BE5-4624-A46D-8D3A8CE9B47C_1" cx="47.48%" cy="42.69%" r="78.16%">
<stop offset="50.00%" style="stop-color:rgb(255,255,255);stop-opacity:1.00" />
<stop offset="100.00%" style="stop-color:rgb(0,0,0);stop-opacity:1.00" />
</radialGradient>
<path fill="none" stroke="#ffffff" stroke-width="1" stroke-linecap="butt" stroke-linejoin="round" d="M 408.247 399.549 C 408.249 399.550 421.955 404.756 428.858 406.586 "/>
<path id="S13_2_2" fill="url(#869651AE-1BE5-4624-A46D-8D3A8CE9B47C_1)" fill-rule="evenodd" stroke="#000000" stroke-width="2" stroke-linecap="round" stroke-linejoin="round" d="M 428.858 406.586 C 428.125 416.291 427.392 425.995 426.659 435.699 C 417.305 439.643 405.921 433.735 401.639 424.214 C 401.639 424.214 408.246 399.552 408.247 399.549 C 408.249 399.550 421.955 404.756 428.858 406.586 Z"/>
<radialGradient id="869651AE-1BE5-4624-A46D-8D3A8CE9B47C_2" cx="47.28%" cy="44.11%" r="75.69%">
<stop offset="50.00%" style="stop-color:rgb(255,255,255);stop-opacity:1.00" />
<stop offset="100.00%" style="stop-color:rgb(0,0,0);stop-opacity:1.00" />
</radialGradient>
<path fill="none" stroke="#ffffff" stroke-width="1" stroke-linecap="butt" stroke-linejoin="round" d="M 428.858 406.586 C 428.125 416.291 427.392 425.995 426.659 435.699 "/>
<path fill="none" stroke="#ffffff" stroke-width="1" stroke-linecap="butt" stroke-linejoin="round" d="M 450.452 410.466 C 443.303 409.793 436.049 408.493 428.858 406.586 "/>
<path id="S14_2_2" fill="url(#869651AE-1BE5-4624-A46D-8D3A8CE9B47C_2)" fill-rule="evenodd" stroke="#000000" stroke-width="2" stroke-linecap="round" stroke-linejoin="round" d="M 428.858 406.586 C 428.125 416.291 427.392 425.995 426.659 435.699 C 431.264 445.606 443.756 450.488 452.871 444.782 C 452.065 433.343 451.258 421.905 450.452 410.466 C 443.303 409.793 436.049 408.493 428.858 406.586 Z"/>
<radialGradient id="869651AE-1BE5-4624-A46D-8D3A8CE9B47C_3" cx="49.67%" cy="46.73%" r="76.27%">
<stop offset="50.00%" style="stop-color:rgb(255,255,255);stop-opacity:1.00" />
<stop offset="100.00%" style="stop-color:rgb(0,0,0);stop-opacity:1.00" />
</radialGradient>
<path fill="none" stroke="#ffffff" stroke-width="1" stroke-linecap="butt" stroke-linejoin="round" d="M 450.452 410.466 C 451.258 421.905 452.065 433.343 452.871 444.782 "/>
<path fill="none" stroke="#ffffff" stroke-width="1" stroke-linecap="butt" stroke-linejoin="round" d="M 470.573 410.669 C 463.972 411.162 457.217 411.103 450.452 410.466 "/>
<path id="S15_2_2" fill="url(#869651AE-1BE5-4624-A46D-8D3A8CE9B47C_3)" fill-rule="evenodd" stroke="#000000" stroke-width="2" stroke-linecap="round" stroke-linejoin="round" d="M 450.452 410.466 C 451.258 421.905 452.065 433.343 452.871 444.782 C 460.304 453.826 472.616 455.875 482.130 450.351 C 478.278 437.124 474.425 423.896 470.573 410.669 C 463.972 411.162 457.217 411.103 450.452 410.466 Z"/>
<radialGradient id="869651AE-1BE5-4624-A46D-8D3A8CE9B47C_4" cx="48.52%" cy="45.56%" r="78.03%">
<stop offset="50.00%" style="stop-color:rgb(255,255,255);stop-opacity:1.00" />
<stop offset="100.00%" style="stop-color:rgb(0,0,0);stop-opacity:1.00" />
</radialGradient>
<path fill="none" stroke="#ffffff" stroke-width="1" stroke-linecap="butt" stroke-linejoin="round" d="M 470.573 410.669 C 474.425 423.896 478.278 437.124 482.130 450.351 "/>
<path fill="none" stroke="#ffffff" stroke-width="1" stroke-linecap="butt" stroke-linejoin="round" d="M 492.985 406.628 C 485.731 408.728 478.161 410.104 470.573 410.669 "/>
<path id="S16_2_2" fill="url(#869651AE-1BE5-4624-A46D-8D3A8CE9B47C_4)" fill-rule="evenodd" stroke="#000000" stroke-width="2" stroke-linecap="round" stroke-linejoin="round" d="M 470.573 410.669 C 474.425 423.896 478.278 437.124 482.130 450.351 C 490.625 457.180 504.022 457.039 513.222 449.279 C 506.477 435.062 499.731 420.845 492.985 406.628 C 485.731 408.728 478.161 410.104 470.573 410.669 Z"/>
<radialGradient id="869651AE-1BE5-4624-A46D-8D3A8CE9B47C_5" cx="49.43%" cy="45.70%" r="78.25%">
<stop offset="50.00%" style="stop-color:rgb(255,255,255);stop-opacity:1.00" />
<stop offset="100.00%" style="stop-color:rgb(0,0,0);stop-opacity:1.00" />
</radialGradient>
<path fill="none" stroke="#ffffff" stroke-width="1" stroke-linecap="butt" stroke-linejoin="round" d="M 492.985 406.628 C 499.731 420.845 506.477 435.062 513.222 449.279 "/>
<path fill="none" stroke="#ffffff" stroke-width="1" stroke-linecap="butt" stroke-linejoin="round" d="M 513.826 398.328 C 507.279 401.718 500.416 404.477 492.985 406.628 "/>
<path id="S17_2_2" fill="url(#869651AE-1BE5-4624-A46D-8D3A8CE9B47C_5)" fill-rule="evenodd" stroke="#000000" stroke-width="2" stroke-linecap="round" stroke-linejoin="round" d="M 492.985 406.628 C 499.731 420.845 506.477 435.062 513.222 449.279 C 521.889 453.330 534.451 450.279 540.953 439.481 C 531.911 425.763 522.868 412.046 513.826 398.328 C 507.279 401.718 500.416 404.477 492.985 406.628 Z"/>
<radialGradient id="869651AE-1BE5-4624-A46D-8D3A8CE9B47C_6" cx="46.57%" cy="45.33%" r="72.64%">
<stop offset="50.00%" style="stop-color:rgb(255,255,255);stop-opacity:1.00" />
<stop offset="100.00%" style="stop-color:rgb(0,0,0);stop-opacity:1.00" />
</radialGradient>
<path fill="none" stroke="#ffffff" stroke-width="1" stroke-linecap="butt" stroke-linejoin="round" d="M 513.826 398.328 C 522.868 412.046 531.911 425.763 540.953 439.481 "/>
<path fill="none" stroke="#ffffff" stroke-width="1" stroke-linecap="butt" stroke-linejoin="round" d="M 532.237 386.457 C 526.414 391.018 520.226 395.014 513.826 398.328 "/>
<path id="S18_2_2" fill="url(#869651AE-1BE5-4624-A46D-8D3A8CE9B47C_6)" fill-rule="evenodd" stroke="#000000" stroke-width="2" stroke-linecap="round" stroke-linejoin="round" d="M 513.826 398.328 C 522.868 412.046 531.911 425.763 540.953 439.481 C 550.911 440.753 562.985 431.985 564.642 420.461 C 553.840 409.126 543.039 397.791 532.237 386.457 C 526.414 391.018 520.226 395.014 513.826 398.328 Z"/>
<radialGradient id="869651AE-1BE5-4624-A46D-8D3A8CE9B47C_7" cx="49.78%" cy="44.16%" r="65.14%">
<stop offset="50.00%" style="stop-color:rgb(255,255,255);stop-opacity:1.00" />
<stop offset="100.00%" style="stop-color:rgb(0,0,0);stop-opacity:1.00" />
</radialGradient>
<path fill="none" stroke="#ffffff" stroke-width="1" stroke-linecap="butt" stroke-linejoin="round" d="M 532.237 386.457 C 543.039 397.791 553.840 409.126 564.642 420.461 "/>
<path fill="none" stroke="#ffffff" stroke-width="1" stroke-linecap="butt" stroke-linejoin="round" d="M 548.090 371.611 C 543.149 377.092 537.813 382.089 532.237 386.457 "/>
<path id="S19_2_2" fill="url(#869651AE-1BE5-4624-A46D-8D3A8CE9B47C_7)" fill-rule="evenodd" stroke="#000000" stroke-width="2" stroke-linecap="round" stroke-linejoin="round" d="M 532.237 386.457 C 543.039 397.791 553.840 409.126 564.642 420.461 C 575.369 418.037 584.962 407.227 584.737 396.193 C 572.522 387.999 560.306 379.805 548.090 371.611 C 543.149 377.092 537.813 382.089 532.237 386.457 Z"/>
<radialGradient id="869651AE-1BE5-4624-A46D-8D3A8CE9B47C_8" cx="54.65%" cy="26.96%" r="96.30%">
<stop offset="50.00%" style="stop-color:rgb(255,255,255);stop-opacity:1.00" />
<stop offset="100.00%" style="stop-color:rgb(0,0,0);stop-opacity:1.00" />
</radialGradient>
<path fill="none" stroke="#ffffff" stroke-width="1" stroke-linecap="butt" stroke-linejoin="round" d="M 548.090 371.611 C 560.306 379.805 572.522 387.999 584.737 396.193 "/>
<path fill="none" stroke="#ffffff" stroke-width="1" stroke-linecap="butt" stroke-linejoin="round" d="M 560.888 355.142 C 557.040 360.923 552.840 366.344 548.090 371.611 "/>
<path id="S20_2_2" fill="url(#869651AE-1BE5-4624-A46D-8D3A8CE9B47C_8)" fill-rule="evenodd" stroke="#000000" stroke-width="2" stroke-linecap="round" stroke-linejoin="round" d="M 548.090 371.611 C 560.306 379.805 572.522 387.999 584.737 396.193 C 607.980 406.059 639.567 402.654 643.135 389.880 C 615.719 378.301 588.304 366.721 560.888 355.142 C 557.040 360.923 552.840 366.344 548.090 371.611 Z"/>
<radialGradient id="869651AE-1BE5-4624-A46D-8D3A8CE9B47C_9" cx="50.45%" cy="39.76%" r="83.16%">
<stop offset="50.00%" style="stop-color:rgb(255,255,255);stop-opacity:1.00" />
<stop offset="100.00%" style="stop-color:rgb(0,0,0);stop-opacity:1.00" />
</radialGradient>
<path fill="none" stroke="#ffffff" stroke-width="1" stroke-linecap="butt" stroke-linejoin="round" d="M 560.888 355.142 C 588.304 366.721 615.719 378.301 643.135 389.880 "/>
<path fill="none" stroke="#ffffff" stroke-width="1" stroke-linecap="butt" stroke-linejoin="round" d="M 572.121 334.811 C 568.760 342.165 564.893 349.126 560.888 355.142 "/>
<path id="S21_2_2" fill="url(#869651AE-1BE5-4624-A46D-8D3A8CE9B47C_9)" fill-rule="evenodd" stroke="#000000" stroke-width="2" stroke-linecap="round" stroke-linejoin="round" d="M 560.888 355.142 C 588.304 366.721 615.719 378.301 643.135 389.880 C 659.548 392.613 677.666 381.929 678.977 370.534 C 643.358 358.627 607.740 346.719 572.121 334.811 C 568.760 342.165 564.893 349.126 560.888 355.142 Z"/>
<radialGradient id="869651AE-1BE5-4624-A46D-8D3A8CE9B47C_10" cx="51.15%" cy="42.11%" r="74.87%">
<stop offset="50.00%" style="stop-color:rgb(255,255,255);stop-opacity:1.00" />
<stop offset="100.00%" style="stop-color:rgb(0,0,0);stop-opacity:1.00" />
</radialGradient>
<path fill="none" stroke="#ffffff" stroke-width="1" stroke-linecap="butt" stroke-linejoin="round" d="M 572.121 334.811 C 607.740 346.719 643.358 358.627 678.977 370.534 "/>
<path fill="none" stroke="#ffffff" stroke-width="1" stroke-linecap="butt" stroke-linejoin="round" d="M 580.447 311.774 C 578.155 320.018 575.269 327.925 572.121 334.811 "/>
<path id="S22_2_2" fill="url(#869651AE-1BE5-4624-A46D-8D3A8CE9B47C_10)" fill-rule="evenodd" stroke="#000000" stroke-width="2" stroke-linecap="round" stroke-linejoin="round" d="M 572.121 334.811 C 607.740 346.719 643.358 358.627 678.977 370.534 C 692.582 368.578 702.727 355.514 699.998 346.036 C 660.148 334.615 620.297 323.195 580.447 311.774 C 578.155 320.018 575.269 327.925 572.121 334.811 Z"/>
<radialGradient id="869651AE-1BE5-4624-A46D-8D3A8CE9B47C_11" cx="53.19%" cy="42.75%" r="75.46%">
<stop offset="50.00%" style="stop-color:rgb(255,255,255);stop-opacity:1.00" />
<stop offset="100.00%" style="stop-color:rgb(0,0,0);stop-opacity:1.00" />
</radialGradient>
<path fill="none" stroke="#ffffff" stroke-width="1" stroke-linecap="butt" stroke-linejoin="round" d="M 580.447 311.774 C 620.297 323.195 660.148 334.615 699.998 346.036 "/>
<path fill="none" stroke="#ffffff" stroke-width="1" stroke-linecap="butt" stroke-linejoin="round" d="M 584.748 291.623 C 583.701 298.527 582.260 305.255 580.447 311.774 "/>
<path id="S23_2_2" fill="url(#869651AE-1BE5-4624-A46D-8D3A8CE9B47C_11)" fill-rule="evenodd" stroke="#000000" stroke-width="2" stroke-linecap="round" stroke-linejoin="round" d="M 580.447 311.774 C 620.297 323.195 660.148 334.615 699.998 346.036 C 711.334 345.209 728.989 324.642 712.470 319.464 C 694.018 313.679 639.096 296.762 584.748 291.623 C 583.701 298.527 582.260 305.255 580.447 311.774 Z"/>
</g>
<g id="wing_2">
<radialGradient id="F3F705F1-9450-4D27-9F09-0CE0D17223B7_0" cx="54.19%" cy="44.96%" r="90.82%">
<stop offset="50.00%" style="stop-color:rgb(255,255,255);stop-opacity:1.00" />
<stop offset="100.00%" style="stop-color:rgb(0,0,0);stop-opacity:1.00" />
</radialGradient>
<path id="S12_2_2" fill="url(#F3F705F1-9450-4D27-9F09-0CE0D17223B7_0)" fill-rule="evenodd" stroke="#000000" stroke-width="2" stroke-linecap="round" stroke-linejoin="round" d="M 135.959 291.623 C 160.373 289.314 185.094 285.293 204.267 292.532 C 239.440 305.811 218.862 381.930 295.584 378.362 C 314.018 377.504 312.459 399.547 312.460 399.549 C 312.458 399.550 298.752 404.756 291.849 406.586 C 284.658 408.493 277.405 409.793 270.255 410.466 C 263.490 411.103 256.735 411.162 250.134 410.669 C 242.546 410.104 234.977 408.728 227.722 406.628 C 220.291 404.477 213.428 401.718 206.882 398.328 C 200.481 395.014 194.294 391.018 188.470 386.457 C 182.894 382.089 177.558 377.092 172.617 371.611 C 167.867 366.344 163.667 360.923 159.820 355.142 C 155.814 349.126 151.947 342.165 148.586 334.811 C 145.438 327.926 142.553 320.019 140.260 311.774 C 138.448 305.255 137.006 298.527 135.959 291.623 Z"/>
<radialGradient id="F3F705F1-9450-4D27-9F09-0CE0D17223B7_1" cx="52.52%" cy="42.69%" r="78.16%">
<stop offset="50.00%" style="stop-color:rgb(255,255,255);stop-opacity:1.00" />
<stop offset="100.00%" style="stop-color:rgb(0,0,0);stop-opacity:1.00" />
</radialGradient>
<path fill="none" stroke="#ffffff" stroke-width="1" stroke-linecap="butt" stroke-linejoin="round" d="M 312.460 399.549 C 312.458 399.550 298.752 404.756 291.849 406.586 "/>
<path id="S13_2_2" fill="url(#F3F705F1-9450-4D27-9F09-0CE0D17223B7_1)" fill-rule="evenodd" stroke="#000000" stroke-width="2" stroke-linecap="round" stroke-linejoin="round" d="M 291.849 406.586 C 292.582 416.291 293.315 425.995 294.048 435.699 C 303.402 439.643 314.786 433.735 319.069 424.214 C 319.069 424.214 312.461 399.552 312.460 399.549 C 312.458 399.550 298.752 404.756 291.849 406.586 Z"/>
<radialGradient id="F3F705F1-9450-4D27-9F09-0CE0D17223B7_2" cx="52.72%" cy="44.11%" r="75.69%">
<stop offset="50.00%" style="stop-color:rgb(255,255,255);stop-opacity:1.00" />
<stop offset="100.00%" style="stop-color:rgb(0,0,0);stop-opacity:1.00" />
</radialGradient>
<path fill="none" stroke="#ffffff" stroke-width="1" stroke-linecap="butt" stroke-linejoin="round" d="M 291.849 406.586 C 292.582 416.291 293.315 425.995 294.048 435.699 "/>
<path fill="none" stroke="#ffffff" stroke-width="1" stroke-linecap="butt" stroke-linejoin="round" d="M 270.255 410.466 C 277.405 409.793 284.658 408.493 291.849 406.586 "/>
<path id="S14_2_2" fill="url(#F3F705F1-9450-4D27-9F09-0CE0D17223B7_2)" fill-rule="evenodd" stroke="#000000" stroke-width="2" stroke-linecap="round" stroke-linejoin="round" d="M 291.849 406.586 C 292.582 416.291 293.315 425.995 294.048 435.699 C 289.443 445.606 276.951 450.489 267.836 444.782 C 268.642 433.343 269.449 421.905 270.255 410.466 C 277.405 409.793 284.658 408.493 291.849 406.586 Z"/>
<radialGradient id="F3F705F1-9450-4D27-9F09-0CE0D17223B7_3" cx="50.33%" cy="46.73%" r="76.27%">
<stop offset="50.00%" style="stop-color:rgb(255,255,255);stop-opacity:1.00" />
<stop offset="100.00%" style="stop-color:rgb(0,0,0);stop-opacity:1.00" />
</radialGradient>
<path fill="none" stroke="#ffffff" stroke-width="1" stroke-linecap="butt" stroke-linejoin="round" d="M 270.255 410.466 C 269.449 421.905 268.642 433.343 267.836 444.782 "/>
<path fill="none" stroke="#ffffff" stroke-width="1" stroke-linecap="butt" stroke-linejoin="round" d="M 250.134 410.669 C 256.735 411.162 263.490 411.103 270.255 410.466 "/>
<path id="S15_2_2" fill="url(#F3F705F1-9450-4D27-9F09-0CE0D17223B7_3)" fill-rule="evenodd" stroke="#000000" stroke-width="2" stroke-linecap="round" stroke-linejoin="round" d="M 270.255 410.466 C 269.449 421.905 268.642 433.343 267.836 444.782 C 260.404 453.826 248.091 455.875 238.577 450.351 C 242.429 437.124 246.282 423.896 250.134 410.669 C 256.735 411.162 263.490 411.103 270.255 410.466 Z"/>
<radialGradient id="F3F705F1-9450-4D27-9F09-0CE0D17223B7_4" cx="51.48%" cy="45.56%" r="78.03%">
<stop offset="50.00%" style="stop-color:rgb(255,255,255);stop-opacity:1.00" />
<stop offset="100.00%" style="stop-color:rgb(0,0,0);stop-opacity:1.00" />
</radialGradient>
<path fill="none" stroke="#ffffff" stroke-width="1" stroke-linecap="butt" stroke-linejoin="round" d="M 250.134 410.669 C 246.282 423.896 242.429 437.124 238.577 450.351 "/>
<path fill="none" stroke="#ffffff" stroke-width="1" stroke-linecap="butt" stroke-linejoin="round" d="M 227.722 406.628 C 234.977 408.728 242.546 410.104 250.134 410.669 "/>
<path id="S16_2_2" fill="url(#F3F705F1-9450-4D27-9F09-0CE0D17223B7_4)" fill-rule="evenodd" stroke="#000000" stroke-width="2" stroke-linecap="round" stroke-linejoin="round" d="M 250.134 410.669 C 246.282 423.896 242.429 437.124 238.577 450.351 C 230.082 457.180 216.685 457.039 207.485 449.279 C 214.231 435.062 220.976 420.845 227.722 406.628 C 234.977 408.728 242.546 410.104 250.134 410.669 Z"/>
<radialGradient id="F3F705F1-9450-4D27-9F09-0CE0D17223B7_5" cx="50.57%" cy="45.70%" r="78.25%">
<stop offset="50.00%" style="stop-color:rgb(255,255,255);stop-opacity:1.00" />
<stop offset="100.00%" style="stop-color:rgb(0,0,0);stop-opacity:1.00" />
</radialGradient>
<path fill="none" stroke="#ffffff" stroke-width="1" stroke-linecap="butt" stroke-linejoin="round" d="M 227.722 406.628 C 220.976 420.845 214.231 435.062 207.485 449.279 "/>
<path fill="none" stroke="#ffffff" stroke-width="1" stroke-linecap="butt" stroke-linejoin="round" d="M 206.882 398.328 C 213.428 401.718 220.291 404.477 227.722 406.628 "/>
<path id="S17_2_2" fill="url(#F3F705F1-9450-4D27-9F09-0CE0D17223B7_5)" fill-rule="evenodd" stroke="#000000" stroke-width="2" stroke-linecap="round" stroke-linejoin="round" d="M 227.722 406.628 C 220.976 420.845 214.231 435.062 207.485 449.279 C 198.818 453.330 186.256 450.279 179.754 439.481 C 188.797 425.763 197.839 412.046 206.882 398.328 C 213.428 401.718 220.291 404.477 227.722 406.628 Z"/>
<radialGradient id="F3F705F1-9450-4D27-9F09-0CE0D17223B7_6" cx="53.43%" cy="45.33%" r="72.64%">
<stop offset="50.00%" style="stop-color:rgb(255,255,255);stop-opacity:1.00" />
<stop offset="100.00%" style="stop-color:rgb(0,0,0);stop-opacity:1.00" />
</radialGradient>
<path fill="none" stroke="#ffffff" stroke-width="1" stroke-linecap="butt" stroke-linejoin="round" d="M 206.882 398.328 C 197.839 412.046 188.797 425.763 179.754 439.481 "/>
<path fill="none" stroke="#ffffff" stroke-width="1" stroke-linecap="butt" stroke-linejoin="round" d="M 188.470 386.457 C 194.294 391.018 200.481 395.014 206.882 398.328 "/>
<path id="S18_2_2" fill="url(#F3F705F1-9450-4D27-9F09-0CE0D17223B7_6)" fill-rule="evenodd" stroke="#000000" stroke-width="2" stroke-linecap="round" stroke-linejoin="round" d="M 206.882 398.328 C 197.839 412.046 188.797 425.763 179.754 439.481 C 169.796 440.753 157.722 431.985 156.065 420.461 C 166.867 409.126 177.669 397.791 188.470 386.457 C 194.294 391.018 200.481 395.014 206.882 398.328 Z"/>
<radialGradient id="F3F705F1-9450-4D27-9F09-0CE0D17223B7_7" cx="50.22%" cy="44.16%" r="65.14%">
<stop offset="50.00%" style="stop-color:rgb(255,255,255);stop-opacity:1.00" />
<stop offset="100.00%" style="stop-color:rgb(0,0,0);stop-opacity:1.00" />
</radialGradient>
<path fill="none" stroke="#ffffff" stroke-width="1" stroke-linecap="butt" stroke-linejoin="round" d="M 188.470 386.457 C 177.669 397.791 166.867 409.126 156.065 420.461 "/>
<path fill="none" stroke="#ffffff" stroke-width="1" stroke-linecap="butt" stroke-linejoin="round" d="M 172.617 371.611 C 177.558 377.092 182.894 382.089 188.470 386.457 "/>
<path id="S19_2_2" fill="url(#F3F705F1-9450-4D27-9F09-0CE0D17223B7_7)" fill-rule="evenodd" stroke="#000000" stroke-width="2" stroke-linecap="round" stroke-linejoin="round" d="M 188.470 386.457 C 177.669 397.791 166.867 409.126 156.065 420.461 C 145.338 418.037 135.745 407.227 135.970 396.193 C 148.186 387.999 160.401 379.805 172.617 371.611 C 177.558 377.092 182.894 382.089 188.470 386.457 Z"/>
<radialGradient id="F3F705F1-9450-4D27-9F09-0CE0D17223B7_8" cx="45.35%" cy="26.96%" r="96.30%">
<stop offset="50.00%" style="stop-color:rgb(255,255,255);stop-opacity:1.00" />
<stop offset="100.00%" style="stop-color:rgb(0,0,0);stop-opacity:1.00" />
</radialGradient>
<path fill="none" stroke="#ffffff" stroke-width="1" stroke-linecap="butt" stroke-linejoin="round" d="M 172.617 371.611 C 160.401 379.805 148.186 387.999 135.970 396.193 "/>
<path fill="none" stroke="#ffffff" stroke-width="1" stroke-linecap="butt" stroke-linejoin="round" d="M 159.820 355.142 C 163.667 360.923 167.867 366.344 172.617 371.611 "/>
<path id="S20_2_2" fill="url(#F3F705F1-9450-4D27-9F09-0CE0D17223B7_8)" fill-rule="evenodd" stroke="#000000" stroke-width="2" stroke-linecap="round" stroke-linejoin="round" d="M 172.617 371.611 C 160.401 379.805 148.186 387.999 135.970 396.193 C 112.727 406.059 81.140 402.654 77.572 389.880 C 104.988 378.301 132.404 366.721 159.820 355.142 C 163.667 360.923 167.867 366.344 172.617 371.611 Z"/>
<radialGradient id="F3F705F1-9450-4D27-9F09-0CE0D17223B7_9" cx="49.55%" cy="39.76%" r="83.16%">
<stop offset="50.00%" style="stop-color:rgb(255,255,255);stop-opacity:1.00" />
<stop offset="100.00%" style="stop-color:rgb(0,0,0);stop-opacity:1.00" />
</radialGradient>
<path fill="none" stroke="#ffffff" stroke-width="1" stroke-linecap="butt" stroke-linejoin="round" d="M 159.820 355.142 C 132.404 366.721 104.988 378.301 77.572 389.880 "/>
<path fill="none" stroke="#ffffff" stroke-width="1" stroke-linecap="butt" stroke-linejoin="round" d="M 148.586 334.811 C 151.947 342.165 155.814 349.126 159.820 355.142 "/>
<path id="S21_2_2" fill="url(#F3F705F1-9450-4D27-9F09-0CE0D17223B7_9)" fill-rule="evenodd" stroke="#000000" stroke-width="2" stroke-linecap="round" stroke-linejoin="round" d="M 159.820 355.142 C 132.404 366.721 104.988 378.301 77.572 389.880 C 61.159 392.613 43.041 381.929 41.730 370.535 C 77.349 358.627 112.968 346.719 148.586 334.811 C 151.947 342.165 155.814 349.126 159.820 355.142 Z"/>
<radialGradient id="F3F705F1-9450-4D27-9F09-0CE0D17223B7_10" cx="48.85%" cy="42.11%" r="74.87%">
<stop offset="50.00%" style="stop-color:rgb(255,255,255);stop-opacity:1.00" />
<stop offset="100.00%" style="stop-color:rgb(0,0,0);stop-opacity:1.00" />
</radialGradient>
<path fill="none" stroke="#ffffff" stroke-width="1" stroke-linecap="butt" stroke-linejoin="round" d="M 148.586 334.811 C 112.968 346.719 77.349 358.627 41.730 370.535 "/>
<path fill="none" stroke="#ffffff" stroke-width="1" stroke-linecap="butt" stroke-linejoin="round" d="M 140.260 311.774 C 142.553 320.019 145.438 327.926 148.586 334.811 "/>
<path id="S22_2_2" fill="url(#F3F705F1-9450-4D27-9F09-0CE0D17223B7_10)" fill-rule="evenodd" stroke="#000000" stroke-width="2" stroke-linecap="round" stroke-linejoin="round" d="M 148.586 334.811 C 112.968 346.719 77.349 358.627 41.730 370.535 C 28.126 368.578 17.980 355.514 20.709 346.036 C 60.559 334.615 100.410 323.195 140.260 311.774 C 142.553 320.019 145.438 327.926 148.586 334.811 Z"/>
<radialGradient id="F3F705F1-9450-4D27-9F09-0CE0D17223B7_11" cx="46.81%" cy="42.75%" r="75.46%">
<stop offset="50.00%" style="stop-color:rgb(255,255,255);stop-opacity:1.00" />
<stop offset="100.00%" style="stop-color:rgb(0,0,0);stop-opacity:1.00" />
</radialGradient>
<path fill="none" stroke="#ffffff" stroke-width="1" stroke-linecap="butt" stroke-linejoin="round" d="M 140.260 311.774 C 100.410 323.195 60.559 334.615 20.709 346.036 "/>
<path fill="none" stroke="#ffffff" stroke-width="1" stroke-linecap="butt" stroke-linejoin="round" d="M 135.959 291.623 C 137.006 298.527 138.448 305.255 140.260 311.774 "/>
<path id="S23_2_2" fill="url(#F3F705F1-9450-4D27-9F09-0CE0D17223B7_11)" fill-rule="evenodd" stroke="#000000" stroke-width="2" stroke-linecap="round" stroke-linejoin="round" d="M 140.260 311.774 C 100.410 323.195 60.559 334.615 20.709 346.036 C 9.374 345.210 -8.282 324.642 8.238 319.464 C 26.689 313.679 81.611 296.762 135.959 291.623 C 137.006 298.527 138.448 305.255 140.260 311.774 Z"/>
</g>
<g id="specs_2">
<path fill="#ff00ff" fill-rule="evenodd" stroke="none" d="M 197.417 522.583 C 197.449 522.583 522.551 522.583 522.583 522.583 C 522.583 522.551 522.583 197.449 522.583 197.417 C 522.551 197.417 197.449 197.417 197.417 197.417 C 197.417 197.449 197.417 522.551 197.417 522.583 Z"/>
<path fill="#ff0000" fill-rule="evenodd" stroke="none" d="M 360.000 570.052 C 360.001 570.056 372.432 604.862 372.433 604.865 C 372.432 604.864 360.001 593.298 360.000 593.297 C 359.999 593.298 347.568 604.864 347.567 604.865 C 347.568 604.862 359.999 570.056 360.000 570.052 Z"/>
<path fill="#0000ff" fill-rule="evenodd" stroke="none" d="M 360.000 181.933 C 360.001 181.935 367.221 202.153 367.222 202.155 C 367.221 202.155 360.001 195.437 360.000 195.436 C 359.999 195.437 352.779 202.155 352.778 202.155 C 352.779 202.153 359.999 181.935 360.000 181.933 Z"/>
<path fill="#be0027" fill-rule="evenodd" stroke="none" d="M 360.000 548.325 C 360.001 548.322 372.432 513.516 372.433 513.512 C 372.432 513.513 360.001 525.079 360.000 525.081 C 359.999 525.079 347.568 513.513 347.567 513.512 C 347.568 513.516 359.999 548.322 360.000 548.325 Z"/>
</g>
</g>
</svg>
