<?xml version="1.0" encoding="utf-8"?>
<!-- Generator: Moho 12.5 build 22414 -->
<!DOCTYPE svg PUBLIC "-//W3C//DTD SVG 1.1//EN" "http://www.w3.org/Graphics/SVG/1.1/DTD/svg11.dtd">
<svg version="1.1" id="Frame_0" xmlns="http://www.w3.org/2000/svg" xmlns:xlink="http://www.w3.org/1999/xlink" width="720px" height="720px">
<g id="wings_egypt">
<g id="wing_Egypt">
<path fill="#ffffff" fill-rule="evenodd" stroke="#000000" stroke-width="4" stroke-linecap="round" stroke-linejoin="round" d="M 383.705 311.126 C 388.690 310.034 493.469 312.184 510.092 311.126 C 577.984 306.804 610.445 307.536 705.023 279.975 C 721.756 275.098 716.260 300.147 685.987 310.080 C 673.543 314.163 599.038 320.964 599.030 320.965 C 599.038 320.964 667.904 315.887 685.639 311.944 C 705.425 307.546 707.019 330.664 681.574 339.270 C 668.747 343.608 589.593 337.690 589.583 337.690 C 589.592 337.690 665.629 342.816 678.296 341.243 C 695.826 339.065 698.707 365.715 670.934 368.079 C 661.354 368.894 582.607 350.828 582.599 350.827 C 582.607 350.828 637.967 365.887 671.031 369.113 C 686.526 370.625 673.787 395.263 650.273 392.953 C 635.087 391.461 563.057 361.650 563.048 361.647 C 563.056 361.651 599.554 379.923 649.111 394.118 C 666.906 399.215 645.900 416.687 626.007 413.864 C 609.941 411.583 547.083 366.939 547.075 366.935 C 547.081 366.939 580.274 392.464 603.989 405.057 C 626.920 417.236 600.928 429.778 578.567 417.451 C 568.360 411.824 536.588 376.359 536.584 376.355 C 536.588 376.359 549.402 395.613 575.486 415.821 C 586.359 424.244 556.697 429.696 545.122 417.995 C 533.618 406.364 510.124 375.487 510.120 375.483 C 510.124 375.487 527.320 398.331 543.890 419.408 C 550.182 427.412 523.426 427.000 515.022 418.756 C 509.747 413.582 486.860 376.795 486.857 376.791 C 486.860 376.795 493.328 392.682 512.909 417.669 C 518.738 425.107 495.781 426.813 486.946 417.886 C 479.926 410.795 462.920 374.621 462.917 374.617 C 462.920 374.621 469.406 393.188 486.153 419.408 C 492.067 428.668 471.226 428.793 463.798 418.212 C 455.553 406.469 441.092 369.838 441.090 369.833 C 441.092 369.838 447.024 390.812 461.861 418.104 C 466.996 427.549 445.226 428.658 438.098 417.343 C 433.745 410.432 417.857 370.707 417.854 370.703 C 417.856 370.708 419.870 388.456 437.217 418.539 C 441.452 425.882 419.076 425.084 414.687 417.777 C 408.007 406.659 400.605 371.578 400.604 371.573 C 400.605 371.578 402.972 386.802 411.870 418.539 C 412.321 420.148 399.874 424.219 394.971 417.669 C 388.268 408.715 383.002 374.186 383.001 374.182 C 383.002 374.186 384.657 396.662 390.394 417.234 C 392.107 423.375 378.755 420.610 375.608 414.625 C 370.296 404.523 371.878 394.972 370.679 372.877 C 369.600 352.997 367.957 314.575 383.705 311.126 Z"/>
<path fill="#000000" fill-rule="evenodd" stroke="#ffffff" stroke-width="4" stroke-linecap="round" stroke-linejoin="round" d="M 504.812 310.256 C 504.823 310.255 580.156 307.303 616.149 296.124 C 623.059 293.977 624.153 321.386 603.579 325.295 C 587.003 328.444 519.958 323.737 519.950 323.737 C 519.959 323.737 589.736 329.986 609.634 327.390 C 617.660 326.342 614.837 350.988 591.769 352.004 C 578.701 352.579 509.045 330.262 509.036 330.260 C 509.045 330.262 576.112 352.556 593.100 354.012 C 604.539 354.992 588.350 378.031 574.339 373.676 C 555.622 367.859 502.003 338.092 501.995 338.088 C 502.002 338.091 548.200 366.038 568.047 372.348 C 580.844 376.416 559.613 394.488 541.803 385.670 C 529.765 379.711 490.031 343.745 490.026 343.741 C 490.030 343.745 521.970 372.994 534.736 382.879 C 546.419 391.926 519.268 394.160 513.965 392.011 C 502.876 387.518 474.539 347.659 474.535 347.655 C 474.538 347.659 496.767 376.091 504.460 386.793 C 508.216 392.018 492.001 394.031 481.929 389.837 C 473.354 386.267 456.935 351.138 456.933 351.134 C 456.934 351.138 469.742 378.567 475.943 387.663 C 478.248 391.044 465.346 397.673 455.876 390.707 C 449.880 386.296 434.051 350.268 434.049 350.264 C 434.051 350.268 446.086 378.380 450.948 387.228 C 452.839 390.671 439.697 396.911 431.584 389.402 C 426.051 384.281 416.800 355.051 416.798 355.048 C 416.799 355.051 425.959 380.678 429.120 388.098 C 430.598 391.567 415.918 396.846 410.461 389.402 C 406.618 384.160 398.493 355.051 398.492 355.048 C 398.493 355.051 406.517 379.028 408.701 387.228 C 409.614 390.659 396.758 397.304 391.098 387.663 C 387.858 382.143 383.706 356.790 383.705 356.787 C 383.706 356.790 387.718 377.762 388.986 385.923 C 389.597 389.859 379.952 397.438 373.143 388.098 C 370.488 384.455 370.640 374.636 370.327 365.920 C 368.848 324.742 371.846 326.832 384.409 322.867 C 384.421 322.866 504.800 310.258 504.812 310.256 Z"/>
<path fill="#ffffff" fill-rule="evenodd" stroke="#000000" stroke-width="4" stroke-linecap="round" stroke-linejoin="round" d="M 429.824 329.825 C 435.878 328.971 496.178 311.956 507.628 310.691 C 512.106 310.197 525.419 311.177 538.961 310.691 C 545.680 310.450 547.026 329.505 527.343 330.695 C 524.235 330.883 506.222 325.912 506.220 325.911 C 506.222 325.912 524.372 331.868 529.103 333.739 C 537.198 336.940 525.658 349.892 515.725 348.525 C 508.136 347.480 490.380 328.523 490.377 328.521 C 490.380 328.523 505.175 343.943 511.501 348.960 C 518.036 354.144 501.703 360.943 495.658 357.222 C 491.409 354.606 471.369 332.437 471.367 332.434 C 471.369 332.437 487.604 351.512 492.138 357.657 C 496.813 363.994 485.898 369.468 475.591 364.180 C 469.747 361.182 457.638 337.221 457.636 337.218 C 457.638 337.221 470.459 360.277 470.311 364.615 C 470.155 369.137 460.294 370.241 454.116 365.485 C 450.420 362.639 440.035 338.960 440.034 338.958 C 440.035 338.960 449.899 361.121 450.947 365.050 C 452.940 372.516 438.817 372.792 434.753 367.659 C 432.121 364.335 423.840 340.265 423.839 340.262 C 423.840 340.265 429.849 360.167 431.584 366.789 C 432.622 370.751 420.005 374.376 414.686 365.920 C 412.841 362.987 407.646 342.874 407.645 342.872 C 407.645 342.874 409.911 357.277 412.926 365.485 C 416.579 375.430 402.446 376.496 397.435 371.138 C 392.487 365.846 390.043 340.700 390.042 340.697 C 390.042 340.700 393.562 363.027 393.211 366.789 C 392.622 373.088 382.386 373.987 377.720 370.703 C 369.858 365.170 370.482 345.231 373.143 332.434 C 378.646 329.700 425.537 330.431 429.824 329.825 Z"/>
<path fill="#000000" fill-rule="evenodd" stroke="#ffffff" stroke-width="4" stroke-linecap="round" stroke-linejoin="round" d="M 397.787 305.908 C 397.799 305.908 509.612 309.983 512.186 310.003 C 539.906 310.222 519.253 331.955 503.378 327.722 C 499.265 326.626 486.814 322.109 486.812 322.109 C 486.814 322.109 497.631 325.512 500.984 326.939 C 516.088 333.369 493.188 343.959 483.529 339.084 C 479.289 336.944 468.859 326.221 468.857 326.220 C 468.859 326.221 476.893 334.434 483.074 339.100 C 489.604 344.029 474.335 352.696 465.151 345.354 C 460.986 342.024 451.154 328.957 451.152 328.956 C 451.154 328.957 458.672 339.054 463.641 344.808 C 468.184 350.070 452.594 356.539 444.099 347.346 C 438.063 340.815 434.811 331.567 434.810 331.565 C 434.811 331.566 439.639 342.766 441.986 345.876 C 447.464 353.135 432.175 356.849 424.998 349.157 C 421.028 344.902 417.913 332.618 417.912 332.616 C 417.912 332.618 422.103 344.609 424.179 348.106 C 428.565 355.494 412.027 359.942 406.883 351.316 C 404.569 347.435 400.911 333.741 400.911 333.739 C 400.911 333.741 403.859 345.516 405.168 348.778 C 409.751 360.202 392.103 357.577 388.986 350.699 C 386.843 345.971 385.069 334.484 385.068 334.483 C 385.069 334.484 387.778 345.842 388.768 349.466 C 391.837 360.693 374.930 360.752 372.087 350.264 C 370.840 345.665 371.559 341.926 371.383 330.695 C 370.963 303.769 397.785 305.910 397.787 305.908 Z"/>
<path fill="#ffffff" fill-rule="evenodd" stroke="#000000" stroke-width="4" stroke-linecap="round" stroke-linejoin="round" d="M 336.295 311.126 C 331.310 310.034 226.531 312.184 209.908 311.126 C 142.016 306.803 109.555 307.536 14.977 279.975 C -1.756 275.098 3.740 300.147 34.013 310.080 C 46.457 314.163 120.962 320.964 120.971 320.965 C 120.962 320.964 52.096 315.887 34.361 311.944 C 14.575 307.546 12.981 330.664 38.426 339.270 C 51.253 343.608 130.408 337.690 130.417 337.690 C 130.408 337.690 54.372 342.816 41.704 341.243 C 24.175 339.065 21.294 365.715 49.066 368.079 C 58.647 368.894 137.393 350.828 137.401 350.827 C 137.393 350.828 82.033 365.887 48.969 369.113 C 33.474 370.625 46.214 395.263 69.727 392.953 C 84.913 391.461 156.944 361.650 156.953 361.647 C 156.944 361.651 120.446 379.923 70.889 394.118 C 53.094 399.215 74.101 416.687 93.993 413.864 C 110.059 411.583 172.917 366.939 172.925 366.935 C 172.919 366.939 139.726 392.463 116.011 405.057 C 93.080 417.236 119.073 429.778 141.433 417.451 C 151.640 411.824 183.413 376.359 183.417 376.355 C 183.413 376.359 170.598 395.613 144.514 415.821 C 133.641 424.244 163.303 429.696 174.878 417.995 C 186.382 406.364 209.876 375.487 209.880 375.483 C 209.876 375.487 192.680 398.331 176.110 419.408 C 169.819 427.412 196.574 427.000 204.978 418.756 C 210.253 413.582 233.140 376.795 233.143 376.791 C 233.140 376.795 226.672 392.682 207.091 417.669 C 201.262 425.108 224.219 426.813 233.055 417.886 C 240.074 410.795 257.081 374.621 257.083 374.617 C 257.081 374.621 250.594 393.187 233.847 419.408 C 227.933 428.668 248.774 428.794 256.202 418.212 C 264.447 406.469 278.908 369.838 278.910 369.833 C 278.908 369.838 272.976 390.812 258.139 418.104 C 253.004 427.549 274.774 428.658 281.902 417.343 C 286.255 410.432 302.144 370.707 302.146 370.703 C 302.144 370.708 300.131 388.456 282.783 418.539 C 278.548 425.882 300.924 425.084 305.313 417.778 C 311.993 406.660 319.395 371.578 319.396 371.573 C 319.395 371.578 317.028 386.802 308.130 418.539 C 307.679 420.148 320.126 424.219 325.029 417.669 C 331.732 408.715 336.998 374.186 336.999 374.182 C 336.998 374.186 335.343 396.662 329.606 417.234 C 327.893 423.375 341.245 420.610 344.392 414.625 C 349.704 404.523 348.122 394.972 349.321 372.877 C 350.400 352.997 352.043 314.575 336.295 311.126 Z"/>
<path fill="#000000" fill-rule="evenodd" stroke="#ffffff" stroke-width="4" stroke-linecap="round" stroke-linejoin="round" d="M 215.188 310.256 C 215.177 310.255 139.844 307.302 103.851 296.124 C 96.941 293.977 95.847 321.386 116.421 325.295 C 132.997 328.444 200.042 323.737 200.050 323.737 C 200.041 323.737 130.264 329.986 110.366 327.390 C 102.340 326.342 105.163 350.988 128.231 352.004 C 141.299 352.579 210.955 330.262 210.964 330.260 C 210.955 330.262 143.888 352.556 126.900 354.012 C 115.461 354.992 131.650 378.031 145.661 373.676 C 164.378 367.859 217.997 338.092 218.005 338.088 C 217.998 338.091 171.800 366.037 151.953 372.347 C 139.156 376.416 160.387 394.488 178.197 385.670 C 190.235 379.711 229.970 343.745 229.975 343.741 C 229.970 343.745 198.030 372.994 185.264 382.879 C 173.581 391.926 200.732 394.160 206.035 392.011 C 217.124 387.517 245.461 347.659 245.465 347.655 C 245.462 347.659 223.234 376.091 215.541 386.793 C 211.785 392.018 227.999 394.031 238.072 389.837 C 246.647 386.267 263.065 351.138 263.068 351.134 C 263.066 351.138 250.258 378.567 244.057 387.663 C 241.752 391.044 254.654 397.673 264.124 390.707 C 270.120 386.296 285.949 350.268 285.951 350.264 C 285.950 350.268 273.914 378.380 269.052 387.228 C 267.161 390.671 280.303 396.911 288.416 389.402 C 293.950 384.281 303.201 355.051 303.202 355.048 C 303.201 355.051 294.041 380.678 290.880 388.098 C 289.402 391.567 304.082 396.846 309.539 389.402 C 313.382 384.160 321.508 355.051 321.509 355.048 C 321.508 355.051 313.483 379.027 311.299 387.228 C 310.386 390.658 323.242 397.304 328.902 387.663 C 332.142 382.143 336.294 356.790 336.295 356.787 C 336.294 356.790 332.282 377.762 331.014 385.923 C 330.403 389.859 340.048 397.438 346.857 388.098 C 349.512 384.455 349.360 374.636 349.673 365.920 C 351.152 324.742 348.154 326.832 335.591 322.867 C 335.579 322.866 215.200 310.258 215.188 310.256 Z"/>
<path fill="#ffffff" fill-rule="evenodd" stroke="#000000" stroke-width="4" stroke-linecap="round" stroke-linejoin="round" d="M 290.176 329.825 C 284.122 328.971 223.822 311.956 212.372 310.691 C 207.894 310.197 194.581 311.177 181.039 310.691 C 174.320 310.450 172.974 329.505 192.657 330.695 C 195.765 330.883 213.778 325.912 213.780 325.911 C 213.778 325.912 195.628 331.868 190.897 333.739 C 182.802 336.940 194.342 349.891 204.275 348.524 C 211.864 347.480 229.620 328.523 229.623 328.521 C 229.620 328.523 214.825 343.943 208.500 348.960 C 201.964 354.144 218.297 360.943 224.342 357.222 C 228.591 354.606 248.631 332.437 248.633 332.434 C 248.631 332.437 232.396 351.512 227.863 357.657 C 223.187 363.994 234.102 369.468 244.409 364.180 C 250.253 361.182 262.362 337.221 262.364 337.218 C 262.362 337.221 249.541 360.277 249.689 364.615 C 249.845 369.137 259.706 370.242 265.884 365.485 C 269.581 362.639 279.965 338.960 279.966 338.957 C 279.965 338.960 270.101 361.121 269.053 365.050 C 267.060 372.516 281.183 372.792 285.247 367.659 C 287.879 364.335 296.160 340.265 296.161 340.262 C 296.160 340.265 290.151 360.167 288.416 366.789 C 287.378 370.750 299.995 374.376 305.314 365.920 C 307.159 362.987 312.355 342.874 312.355 342.872 C 312.355 342.874 310.089 357.277 307.074 365.485 C 303.420 375.431 317.555 376.496 322.565 371.138 C 327.513 365.846 329.957 340.700 329.958 340.697 C 329.958 340.700 326.438 363.027 326.789 366.789 C 327.378 373.088 337.614 373.987 342.280 370.703 C 350.142 365.170 349.518 345.231 346.857 332.434 C 341.354 329.700 294.463 330.431 290.176 329.825 Z"/>
<path fill="#000000" fill-rule="evenodd" stroke="#ffffff" stroke-width="4" stroke-linecap="round" stroke-linejoin="round" d="M 322.213 305.908 C 322.201 305.908 210.388 309.983 207.814 310.003 C 180.094 310.222 200.747 331.954 216.622 327.722 C 220.735 326.626 233.186 322.109 233.188 322.109 C 233.186 322.109 222.369 325.512 219.016 326.939 C 203.912 333.369 226.812 343.959 236.472 339.084 C 240.711 336.944 251.141 326.221 251.143 326.220 C 251.141 326.221 243.107 334.434 236.926 339.100 C 230.396 344.029 245.665 352.696 254.849 345.354 C 259.014 342.024 268.847 328.957 268.848 328.956 C 268.847 328.957 261.328 339.054 256.359 344.808 C 251.816 350.070 267.406 356.540 275.902 347.346 C 281.937 340.815 285.189 331.566 285.190 331.565 C 285.189 331.566 280.361 342.766 278.014 345.876 C 272.536 353.135 287.825 356.849 295.002 349.157 C 298.973 344.902 302.087 332.618 302.088 332.616 C 302.088 332.618 297.897 344.609 295.821 348.106 C 291.435 355.494 307.973 359.942 313.117 351.316 C 315.431 347.435 319.089 333.741 319.089 333.739 C 319.089 333.741 316.141 345.516 314.833 348.778 C 310.249 360.202 327.897 357.577 331.014 350.699 C 333.157 345.971 334.931 334.484 334.932 334.482 C 334.931 334.484 332.222 345.842 331.232 349.466 C 328.163 360.693 345.070 360.752 347.913 350.264 C 349.160 345.665 348.441 341.926 348.617 330.695 C 349.037 303.769 322.215 305.910 322.213 305.908 Z"/>
</g>
<g id="circle">
<path fill="#ffffff" fill-rule="evenodd" stroke="#000000" stroke-width="4" stroke-linecap="round" stroke-linejoin="round" d="M 360.000 279.727 C 404.431 279.727 440.273 315.569 440.273 360.000 C 440.273 404.431 404.431 440.273 360.000 440.273 C 315.569 440.273 279.727 404.431 279.727 360.000 C 279.727 315.569 315.569 279.727 360.000 279.727 Z"/>
</g>
<g id="specs_2">
<path fill="#ff00ff" fill-rule="evenodd" stroke="none" d="M 303.466 416.534 C 303.477 416.534 416.523 416.534 416.534 416.534 C 416.534 416.523 416.534 303.477 416.534 303.466 C 416.523 303.466 303.477 303.466 303.466 303.466 C 303.466 303.477 303.466 416.523 303.466 416.534 Z"/>
<path fill="#ff0000" fill-rule="evenodd" stroke="none" d="M 360.000 497.269 C 360.001 497.272 372.432 532.078 372.433 532.082 C 372.432 532.080 360.001 520.515 360.000 520.513 C 359.999 520.515 347.568 532.080 347.567 532.082 C 347.568 532.078 359.999 497.272 360.000 497.269 Z"/>
<path fill="#0000ff" fill-rule="evenodd" stroke="none" d="M 360.000 263.310 C 360.001 263.313 368.135 286.089 368.136 286.091 C 368.135 286.090 360.001 278.522 360.000 278.521 C 359.999 278.522 351.865 286.090 351.864 286.091 C 351.865 286.089 359.999 263.313 360.000 263.310 Z"/>
<path fill="#00ff00" fill-rule="evenodd" stroke="none" d="M 10.019 321.724 C 10.021 321.723 30.697 314.220 30.699 314.219 C 30.699 314.220 23.853 321.653 23.852 321.654 C 23.853 321.655 30.773 329.017 30.774 329.018 C 30.772 329.017 10.021 321.724 10.019 321.724 Z"/>
<path fill="#ffff00" fill-rule="evenodd" stroke="none" d="M 147.149 428.561 C 147.150 428.560 155.021 411.421 155.022 411.419 C 155.022 411.420 155.436 420.075 155.436 420.076 C 155.437 420.076 164.098 420.285 164.099 420.285 C 164.097 420.286 147.150 428.560 147.149 428.561 Z"/>
<path fill="#ffff00" fill-rule="evenodd" stroke="none" d="M 572.851 428.352 C 572.850 428.350 564.637 411.372 564.636 411.371 C 564.636 411.372 564.395 420.033 564.395 420.033 C 564.394 420.033 555.738 420.417 555.738 420.417 C 555.739 420.418 572.850 428.351 572.851 428.352 Z"/>
<path fill="#00ff00" fill-rule="evenodd" stroke="none" d="M 709.981 321.724 C 709.979 321.723 689.303 314.220 689.301 314.219 C 689.301 314.220 696.147 321.653 696.148 321.654 C 696.147 321.655 689.227 329.017 689.226 329.018 C 689.228 329.017 709.979 321.724 709.981 321.724 Z"/>
<path fill="#00ffff" fill-rule="evenodd" stroke="none" d="M 430.572 288.240 C 430.571 288.242 422.497 311.040 422.496 311.042 C 422.496 311.041 420.967 300.036 420.967 300.035 C 420.966 300.035 409.880 300.767 409.879 300.767 C 409.881 300.766 430.570 288.241 430.572 288.240 Z"/>
<path fill="#00ffff" fill-rule="evenodd" stroke="none" d="M 289.428 288.996 C 289.429 288.998 299.005 311.206 299.006 311.209 C 299.006 311.207 299.797 300.125 299.797 300.124 C 299.799 300.124 310.909 300.115 310.910 300.115 C 310.908 300.114 289.430 288.997 289.428 288.996 Z"/>
<path fill="#be0027" fill-rule="evenodd" stroke="none" d="M 360.000 464.676 C 360.001 464.672 374.005 425.463 374.006 425.459 C 374.005 425.460 360.001 438.489 360.000 438.491 C 359.999 438.489 345.996 425.460 345.994 425.459 C 345.996 425.463 359.999 464.672 360.000 464.676 Z"/>
</g>
</g>
</svg>
