<?xml version="1.0" encoding="utf-8"?>
<!-- Generator: Moho 13.5 build 20210422 -->
<!DOCTYPE svg PUBLIC "-//W3C//DTD SVG 1.1//EN" "http://www.w3.org/Graphics/SVG/1.1/DTD/svg11.dtd">
<svg version="1.1" id="Frame_0" xmlns="http://www.w3.org/2000/svg" xmlns:xlink="http://www.w3.org/1999/xlink" width="720px" height="720px">
<g id="wing">
<g id="wingR_2">
<path fill="#ffffff" fill-rule="evenodd" stroke="#000000" stroke-width="4" stroke-linecap="round" stroke-linejoin="round" d="M 59.515 189.833 C 96.684 213.502 142.867 218.404 189.529 284.148 C 258.847 381.814 196.921 433.195 236.012 492.096 C 258.887 526.562 314.823 539.558 396.288 585.843 C 534.042 664.108 629.359 716.813 642.560 699.346 C 653.983 684.231 622.915 614.312 587.307 585.764 C 520.240 531.994 377.279 486.158 377.258 486.148 C 377.282 486.152 634.428 581.634 616.350 529.077 C 595.966 469.818 546.354 454.711 526.113 446.865 C 502.851 437.849 364.990 416.245 364.974 416.242 C 364.997 416.242 594.227 456.128 589.188 421.738 C 586.682 404.637 539.115 370.199 492.553 358.984 C 448.254 348.315 351.006 351.068 350.991 351.067 C 351.012 351.064 561.931 354.656 560.045 323.074 C 559.004 305.630 496.369 272.561 453.525 275.888 C 386.856 281.065 328.598 291.016 328.585 291.017 C 328.603 291.012 511.965 264.191 507.314 236.553 C 504.353 218.955 440.347 193.724 392.566 205.156 C 354.893 214.169 291.288 234.233 291.278 234.236 C 291.291 234.229 424.162 197.134 426.290 164.887 C 426.812 156.963 400.890 141.451 357.116 142.364 C 309.480 143.358 242.868 181.776 242.856 181.780 C 242.868 181.772 363.380 120.130 354.373 101.600 C 348.300 89.105 321.883 81.650 292.088 86.359 C 257.100 91.889 195.174 138.489 195.164 138.494 C 195.172 138.486 294.257 72.572 271.946 52.299 C 263.778 44.877 217.334 48.062 198.838 60.581 C 186.005 69.266 140.607 112.893 140.601 112.898 C 140.604 112.891 191.356 49.725 169.958 44.399 C 138.526 36.574 110.996 53.386 89.225 71.309 C 75.896 82.282 43.661 116.273 40.635 152.743 C 38.977 172.734 48.983 183.126 59.515 189.833 Z"/>
</g>
<g id="specs_2">
<path fill="#ff0000" fill-rule="evenodd" stroke="none" d="M 100.742 155.535 C 100.737 155.533 49.989 136.677 49.984 136.676 C 49.985 136.677 66.694 155.099 66.696 155.101 C 66.694 155.103 49.521 173.095 49.520 173.097 C 49.525 173.095 100.737 155.537 100.742 155.535 Z"/>
</g>
</g>
</svg>
