<?xml version="1.0" encoding="utf-8"?>
<!-- Generator: Moho 13.5 build 20210422 -->
<!DOCTYPE svg PUBLIC "-//W3C//DTD SVG 1.1//EN" "http://www.w3.org/Graphics/SVG/1.1/DTD/svg11.dtd">
<svg version="1.1" id="Frame_0" xmlns="http://www.w3.org/2000/svg" xmlns:xlink="http://www.w3.org/1999/xlink" width="720px" height="720px">
<g id="wing_angel2">
<g id="wing_angel2">
<path id="S12" fill="#ffffff" fill-rule="evenodd" stroke="#000000" stroke-width="2" stroke-linecap="round" stroke-linejoin="round" d="M 373.426 557.174 C 313.578 551.499 255.509 546.005 207.564 534.049 C 205.904 419.493 168.415 304.597 53.851 305.553 C 53.851 305.544 53.851 221.068 53.851 221.060 C 53.855 221.059 86.556 217.739 102.564 217.781 C 119.243 217.825 135.704 219.217 151.576 221.908 C 166.595 224.455 181.255 228.247 195.264 233.143 C 211.368 238.770 226.960 246.141 241.449 254.899 C 256.292 263.868 269.553 273.824 281.762 284.963 C 293.699 295.853 304.779 308.096 314.742 321.353 C 324.283 334.046 332.937 347.963 340.456 362.697 C 347.685 376.860 353.636 391.034 358.614 405.785 C 363.797 421.136 368.133 438.453 371.143 456.328 C 373.965 473.065 375.624 491.861 375.804 511.044 C 375.947 526.212 375.165 541.617 373.426 557.174 Z"/>
<path fill="none" stroke="#ffffff" stroke-width="1" stroke-linecap="butt" stroke-linejoin="round" d="M 53.851 221.060 C 53.855 221.059 86.556 217.739 102.564 217.781 "/>
<path id="S13" fill="#ffffff" fill-rule="evenodd" stroke="#000000" stroke-width="2" stroke-linecap="round" stroke-linejoin="round" d="M 102.564 217.781 C 106.608 196.342 110.651 174.903 114.695 153.464 C 96.726 139.496 68.648 145.685 53.851 163.816 C 53.851 163.816 53.851 221.054 53.851 221.060 C 53.855 221.059 86.556 217.739 102.564 217.781 Z"/>
<path fill="none" stroke="#ffffff" stroke-width="1" stroke-linecap="butt" stroke-linejoin="round" d="M 102.564 217.781 C 106.608 196.342 110.651 174.903 114.695 153.464 "/>
<path fill="none" stroke="#ffffff" stroke-width="1" stroke-linecap="butt" stroke-linejoin="round" d="M 151.576 221.908 C 135.704 219.217 119.243 217.825 102.564 217.781 "/>
<path id="S14" fill="#ffffff" fill-rule="evenodd" stroke="#000000" stroke-width="2" stroke-linecap="round" stroke-linejoin="round" d="M 102.564 217.781 C 106.608 196.342 110.651 174.903 114.695 153.464 C 130.414 134.683 160.296 131.358 176.724 149.005 C 168.341 173.306 159.959 197.607 151.576 221.908 C 135.704 219.217 119.243 217.825 102.564 217.781 Z"/>
<path fill="none" stroke="#ffffff" stroke-width="1" stroke-linecap="butt" stroke-linejoin="round" d="M 151.576 221.908 C 159.959 197.607 168.341 173.306 176.724 149.005 "/>
<path fill="none" stroke="#ffffff" stroke-width="1" stroke-linecap="butt" stroke-linejoin="round" d="M 195.264 233.143 C 181.255 228.247 166.595 224.455 151.576 221.908 "/>
<path id="S15" fill="#ffffff" fill-rule="evenodd" stroke="#000000" stroke-width="2" stroke-linecap="round" stroke-linejoin="round" d="M 151.576 221.908 C 159.959 197.607 168.341 173.306 176.724 149.005 C 198.065 133.732 225.917 136.440 243.313 153.922 C 227.296 180.329 211.280 206.736 195.264 233.143 C 181.255 228.247 166.595 224.455 151.576 221.908 Z"/>
<path fill="none" stroke="#ffffff" stroke-width="1" stroke-linecap="butt" stroke-linejoin="round" d="M 195.264 233.143 C 211.280 206.736 227.296 180.329 243.313 153.922 "/>
<path fill="none" stroke="#ffffff" stroke-width="1" stroke-linecap="butt" stroke-linejoin="round" d="M 241.449 254.899 C 226.960 246.141 211.368 238.770 195.264 233.143 "/>
<path id="S16" fill="#ffffff" fill-rule="evenodd" stroke="#000000" stroke-width="2" stroke-linecap="round" stroke-linejoin="round" d="M 195.264 233.143 C 211.280 206.736 227.296 180.329 243.313 153.922 C 265.671 144.062 294.599 152.142 310.019 174.282 C 287.162 201.154 264.306 228.027 241.449 254.899 C 226.960 246.141 211.368 238.770 195.264 233.143 Z"/>
<path fill="none" stroke="#ffffff" stroke-width="1" stroke-linecap="butt" stroke-linejoin="round" d="M 241.449 254.899 C 264.306 228.027 287.162 201.154 310.019 174.282 "/>
<path fill="none" stroke="#ffffff" stroke-width="1" stroke-linecap="butt" stroke-linejoin="round" d="M 281.762 284.963 C 269.553 273.824 256.292 263.868 241.449 254.899 "/>
<path id="S17" fill="#ffffff" fill-rule="evenodd" stroke="#000000" stroke-width="2" stroke-linecap="round" stroke-linejoin="round" d="M 241.449 254.899 C 264.306 228.027 287.162 201.154 310.019 174.282 C 331.136 170.539 356.568 184.435 364.382 211.590 C 336.842 236.048 309.302 260.505 281.762 284.963 C 269.553 273.824 256.292 263.868 241.449 254.899 Z"/>
<path fill="none" stroke="#ffffff" stroke-width="1" stroke-linecap="butt" stroke-linejoin="round" d="M 281.762 284.963 C 309.302 260.505 336.842 236.048 364.382 211.590 "/>
<path fill="none" stroke="#ffffff" stroke-width="1" stroke-linecap="butt" stroke-linejoin="round" d="M 314.742 321.353 C 304.779 308.096 293.699 295.853 281.762 284.963 "/>
<path id="S18" fill="#ffffff" fill-rule="evenodd" stroke="#000000" stroke-width="2" stroke-linecap="round" stroke-linejoin="round" d="M 281.762 284.963 C 309.302 260.505 336.842 236.048 364.382 211.590 C 386.683 214.613 407.741 240.605 404.643 266.520 C 374.676 284.797 344.709 303.075 314.742 321.353 C 304.779 308.096 293.699 295.853 281.762 284.963 Z"/>
<path fill="none" stroke="#ffffff" stroke-width="1" stroke-linecap="butt" stroke-linejoin="round" d="M 314.742 321.353 C 344.709 303.075 374.676 284.797 404.643 266.520 "/>
<path fill="none" stroke="#ffffff" stroke-width="1" stroke-linecap="butt" stroke-linejoin="round" d="M 340.456 362.697 C 332.937 347.963 324.283 334.046 314.742 321.353 "/>
<path id="S19" fill="#ffffff" fill-rule="evenodd" stroke="#000000" stroke-width="2" stroke-linecap="round" stroke-linejoin="round" d="M 314.742 321.353 C 344.709 303.075 374.676 284.797 404.643 266.520 C 426.466 277.993 440.965 306.968 434.076 330.733 C 402.870 341.388 371.663 352.042 340.456 362.697 C 332.937 347.963 324.283 334.046 314.742 321.353 Z"/>
<path fill="none" stroke="#ffffff" stroke-width="1" stroke-linecap="butt" stroke-linejoin="round" d="M 340.456 362.697 C 371.663 352.042 402.870 341.388 434.076 330.733 "/>
<path fill="none" stroke="#ffffff" stroke-width="1" stroke-linecap="butt" stroke-linejoin="round" d="M 358.614 405.785 C 353.636 391.034 347.685 376.860 340.456 362.697 "/>
<path id="S20" fill="#ffffff" fill-rule="evenodd" stroke="#000000" stroke-width="2" stroke-linecap="round" stroke-linejoin="round" d="M 340.456 362.697 C 371.663 352.042 402.870 341.388 434.076 330.733 C 490.131 322.854 556.555 348.552 556.870 378.284 C 490.785 387.451 424.699 396.618 358.614 405.785 C 353.636 391.034 347.685 376.860 340.456 362.697 Z"/>
<path fill="none" stroke="#ffffff" stroke-width="1" stroke-linecap="butt" stroke-linejoin="round" d="M 358.614 405.785 C 424.699 396.618 490.785 387.451 556.870 378.284 "/>
<path fill="none" stroke="#ffffff" stroke-width="1" stroke-linecap="butt" stroke-linejoin="round" d="M 371.143 456.328 C 368.133 438.453 363.797 421.136 358.614 405.785 "/>
<path id="S21" fill="#ffffff" fill-rule="evenodd" stroke="#000000" stroke-width="2" stroke-linecap="round" stroke-linejoin="round" d="M 358.614 405.785 C 424.699 396.618 490.785 387.451 556.870 378.284 C 593.996 381.890 627.030 415.537 623.257 440.972 C 539.219 446.091 455.181 451.209 371.143 456.328 C 368.133 438.453 363.797 421.136 358.614 405.785 Z"/>
<path fill="none" stroke="#ffffff" stroke-width="1" stroke-linecap="butt" stroke-linejoin="round" d="M 371.143 456.328 C 455.181 451.209 539.219 446.091 623.257 440.972 "/>
<path fill="none" stroke="#ffffff" stroke-width="1" stroke-linecap="butt" stroke-linejoin="round" d="M 375.804 511.044 C 375.624 491.861 373.965 473.065 371.143 456.328 "/>
<path id="S22" fill="#ffffff" fill-rule="evenodd" stroke="#000000" stroke-width="2" stroke-linecap="round" stroke-linejoin="round" d="M 371.143 456.328 C 455.181 451.209 539.219 446.091 623.257 440.972 C 651.581 453.102 665.971 487.279 654.562 506.219 C 561.643 507.827 468.723 509.435 375.804 511.044 C 375.624 491.861 373.965 473.065 371.143 456.328 Z"/>
<path fill="none" stroke="#ffffff" stroke-width="1" stroke-linecap="butt" stroke-linejoin="round" d="M 375.804 511.044 C 468.723 509.435 561.643 507.827 654.562 506.219 "/>
<path fill="none" stroke="#ffffff" stroke-width="1" stroke-linecap="butt" stroke-linejoin="round" d="M 373.426 557.174 C 375.165 541.617 375.947 526.212 375.804 511.044 "/>
<path id="S23" fill="#ffffff" fill-rule="evenodd" stroke="#000000" stroke-width="2" stroke-linecap="round" stroke-linejoin="round" d="M 375.804 511.044 C 468.723 509.435 561.643 507.827 654.562 506.219 C 678.628 514.585 704.926 569.367 666.149 570.995 C 622.837 572.814 495.261 568.729 373.426 557.174 C 375.165 541.617 375.947 526.212 375.804 511.044 Z"/>
</g>
<g id="specs_2">
<path fill="#ff0000" fill-rule="evenodd" stroke="none" d="M 77.525 243.919 C 77.521 243.921 42.715 256.351 42.712 256.352 C 42.713 256.351 54.279 243.921 54.280 243.919 C 54.279 243.918 42.713 231.488 42.712 231.486 C 42.715 231.488 77.521 243.918 77.525 243.919 Z"/>
</g>
</g>
</svg>
