<?xml version="1.0" encoding="utf-8"?>
<!-- Generator: Moho 12.5 build 22414 -->
<!DOCTYPE svg PUBLIC "-//W3C//DTD SVG 1.1//EN" "http://www.w3.org/Graphics/SVG/1.1/DTD/svg11.dtd">
<svg version="1.1" id="Frame_0" xmlns="http://www.w3.org/2000/svg" xmlns:xlink="http://www.w3.org/1999/xlink" width="720px" height="720px">
<g id="wing_angel">
<g id="wing_angel">
<path fill="#ffffff" fill-rule="evenodd" stroke="none" d="M 473.928 683.593 C 429.620 672.034 450.971 390.718 442.789 276.628 C 442.782 276.663 446.874 644.598 428.100 637.391 C 383.635 620.322 411.211 334.581 404.783 259.680 C 404.777 259.713 401.678 595.748 385.189 587.439 C 345.101 567.239 371.297 297.310 366.936 236.183 C 366.906 243.098 359.614 516.509 345.635 508.569 C 304.696 485.315 331.335 336.190 334.844 215.095 C 331.334 251.964 320.900 444.035 311.264 432.164 C 272.355 384.230 295.790 279.455 299.300 195.214 C 299.299 195.229 282.986 351.332 279.553 347.849 C 237.141 304.826 265.925 217.215 270.606 173.922 C 270.603 173.932 250.840 273.438 246.197 270.786 C 225.079 258.728 216.400 185.994 232.819 126.625 C 242.708 90.868 286.161 49.854 333.196 40.183 C 377.681 31.038 423.985 44.294 462.524 80.956 C 499.687 116.310 483.792 196.653 482.483 272.750 C 476.666 610.994 493.315 688.650 473.928 683.593 Z"/>
<path fill="none" stroke="#000000" stroke-width="4" stroke-linecap="round" stroke-linejoin="round" d="M 462.939 172.059 C 471.155 171.209 463.330 111.047 463.330 111.040 M 432.756 91.116 C 438.983 126.186 433.858 175.070 462.939 172.059 M 428.247 157.121 C 438.234 159.985 432.755 91.123 432.756 91.116 M 400.408 75.477 C 405.310 96.601 393.683 147.209 428.247 157.121 M 388.126 141.674 C 402.604 146.005 400.309 76.008 400.408 75.477 M 365.727 67.627 C 371.224 83.021 358.340 132.761 388.126 141.674 M 352.590 131.421 C 371.910 139.300 364.420 76.481 365.727 67.627 M 332.837 67.185 C 334.115 85.974 321.253 118.642 352.590 131.421 M 318.591 122.058 C 327.876 124.804 332.835 67.190 332.837 67.185 M 302.453 68.696 C 302.455 68.701 285.290 112.209 318.591 122.058 M 457.421 283.697 C 471.456 284.108 467.171 251.774 459.909 173.532 M 423.891 155.989 C 430.116 178.505 423.462 282.702 457.421 283.697 M 410.749 263.454 C 439.820 270.094 423.446 165.287 423.891 155.989 M 389.501 141.241 C 392.752 165.105 386.266 257.861 410.749 263.454 M 378.848 243.640 C 394.001 247.484 389.261 143.540 389.501 141.241 M 357.189 131.982 C 360.901 164.441 347.530 235.694 378.848 243.640 M 340.541 217.828 C 358.944 225.520 357.187 131.991 357.189 131.982 M 323.190 122.619 C 324.384 152.225 311.920 205.866 340.541 217.828 M 305.434 199.545 C 317.809 207.427 323.188 122.627 323.190 122.619 M 296.720 106.686 C 296.438 134.257 278.290 182.257 305.434 199.545 M 272.980 175.272 C 285.912 185.785 296.717 106.693 296.720 106.686 M 269.405 96.562 C 264.075 114.333 247.551 154.600 272.980 175.272 M 482.483 272.750 C 476.666 610.994 493.315 688.650 473.928 683.593 C 429.620 672.034 450.971 390.718 442.789 276.628 C 442.782 276.663 446.874 644.598 428.100 637.391 C 383.635 620.322 411.211 334.581 404.783 259.680 C 404.777 259.713 401.678 595.748 385.189 587.439 C 345.101 567.239 371.297 297.310 366.936 236.183 C 366.906 243.098 359.614 516.509 345.635 508.569 C 304.696 485.315 331.335 336.190 334.844 215.095 C 331.334 251.964 320.900 444.035 311.264 432.164 C 272.355 384.230 295.790 279.455 299.300 195.214 C 299.299 195.229 282.986 351.332 279.553 347.849 C 237.141 304.826 265.925 217.215 270.606 173.922 C 270.603 173.932 250.840 273.438 246.197 270.786 C 225.079 258.728 216.400 185.994 232.819 126.625 C 242.708 90.868 286.161 49.854 333.196 40.183 C 377.681 31.038 423.985 44.294 462.524 80.956 C 499.687 116.310 483.792 196.653 482.483 272.750 "/>
</g>
<g id="specs_3">
<path fill="#ff0000" fill-rule="evenodd" stroke="none" d="M 260.551 168.870 C 260.547 168.872 225.742 181.302 225.738 181.303 C 225.739 181.302 237.305 168.872 237.306 168.870 C 237.305 168.869 225.739 156.439 225.738 156.438 C 225.742 156.439 260.547 168.869 260.551 168.870 Z"/>
<path fill="#0000ff" fill-rule="evenodd" stroke="none" d="M 360.000 23.389 C 360.001 23.392 367.221 43.610 367.222 43.612 C 367.221 43.611 360.001 36.893 360.000 36.892 C 359.999 36.893 352.779 43.611 352.778 43.612 C 352.779 43.610 359.999 23.392 360.000 23.389 Z"/>
<path fill="#be0027" fill-rule="evenodd" stroke="none" d="M 476.245 697.383 C 476.246 697.380 485.349 661.559 485.350 661.556 C 485.348 661.557 474.061 674.241 474.060 674.242 C 474.058 674.241 460.595 663.895 460.594 663.894 C 460.596 663.897 476.244 697.380 476.245 697.383 Z"/>
</g>
</g>
</svg>
