<?xml version="1.0" encoding="utf-8"?>
<!-- Generator: Moho 13.5.1 build 20210623 -->
<!DOCTYPE svg PUBLIC "-//W3C//DTD SVG 1.1//EN" "http://www.w3.org/Graphics/SVG/1.1/DTD/svg11.dtd">
<svg version="1.1" id="Frame_0" xmlns="http://www.w3.org/2000/svg" xmlns:xlink="http://www.w3.org/1999/xlink" width="720px" height="720px">
<g id="wing_bat_2">
<g id="white">
<radialGradient id="31E63F49-6226-4B9E-BD66-62B08F221513_0" cx="49.93%" cy="64.26%" r="107.78%">
<stop offset="27.84%" style="stop-color:rgb(255,255,255);stop-opacity:1.00" />
<stop offset="100.00%" style="stop-color:rgb(0,0,0);stop-opacity:1.00" />
</radialGradient>
<path id="S1" fill="url(#31E63F49-6226-4B9E-BD66-62B08F221513_0)" fill-rule="evenodd" stroke="#000000" stroke-width="4" stroke-linejoin="round" d="M 284.056 684.620 C 286.152 684.607 280.907 591.568 209.611 544.731 C 182.193 550.340 46.509 614.472 46.509 614.472 C 49.298 622.844 60.560 679.912 60.565 679.917 C 60.587 679.918 226.110 661.666 284.056 684.620 Z"/>
<radialGradient id="31E63F49-6226-4B9E-BD66-62B08F221513_1" cx="33.77%" cy="42.92%" r="93.22%">
<stop offset="27.84%" style="stop-color:rgb(255,255,255);stop-opacity:1.00" />
<stop offset="100.00%" style="stop-color:rgb(0,0,0);stop-opacity:1.00" />
</radialGradient>
<path id="S2" fill="url(#31E63F49-6226-4B9E-BD66-62B08F221513_1)" fill-rule="evenodd" stroke="#000000" stroke-width="4" stroke-linejoin="round" d="M 236.266 524.323 C 273.931 594.978 283.847 640.623 290.829 680.868 C 344.951 627.867 400.689 587.442 542.632 599.817 C 496.928 551.289 397.339 485.618 285.139 458.463 C 257.914 472.167 233.014 510.842 236.266 524.323 Z"/>
<radialGradient id="31E63F49-6226-4B9E-BD66-62B08F221513_2" cx="50.00%" cy="32.58%" r="93.08%">
<stop offset="27.84%" style="stop-color:rgb(255,255,255);stop-opacity:1.00" />
<stop offset="100.00%" style="stop-color:rgb(0,0,0);stop-opacity:1.00" />
</radialGradient>
<path id="S3" fill="url(#31E63F49-6226-4B9E-BD66-62B08F221513_2)" fill-rule="evenodd" stroke="#000000" stroke-width="4" stroke-linejoin="round" d="M 301.267 429.284 C 454.832 471.957 498.164 537.156 548.208 595.887 C 540.250 532.133 527.715 432.495 631.912 347.254 C 566.181 324.531 450.327 313.506 330.686 338.130 C 310.749 364.492 301.497 395.268 301.267 429.284 Z"/>
<radialGradient id="31E63F49-6226-4B9E-BD66-62B08F221513_3" cx="52.43%" cy="51.01%" r="98.94%">
<stop offset="27.84%" style="stop-color:rgb(255,255,255);stop-opacity:1.00" />
<stop offset="100.00%" style="stop-color:rgb(0,0,0);stop-opacity:1.00" />
</radialGradient>
<path id="S4" fill="url(#31E63F49-6226-4B9E-BD66-62B08F221513_3)" fill-rule="evenodd" stroke="#000000" stroke-width="4" stroke-linejoin="round" d="M 330.566 310.772 C 475.329 276.552 573.444 321.782 637.512 338.412 C 567.093 197.810 627.136 76.587 679.360 25.458 C 525.101 36.634 383.814 90.367 291.066 211.567 C 293.911 239.471 313.249 285.461 330.566 310.772 Z"/>
</g>
<g id="black">
<path id="S1" fill="#000000" fill-rule="evenodd" stroke="#ffffff" stroke-width="4" stroke-linejoin="round" d="M 38.230 590.475 C 316.264 520.927 345.831 232.398 203.137 236.164 C 414.969 27.011 612.979 6.009 705.255 23.299 C 699.461 24.175 690.322 24.359 679.360 25.458 C 554.155 38.017 415.635 82.757 291.066 211.567 C 309.660 234.221 325.848 279.162 330.566 310.772 C 476.379 268.153 577.644 316.532 637.512 338.412 C 650.934 343.318 667.102 355.362 667.105 355.364 C 667.102 355.363 648.076 351.293 631.912 347.254 C 566.181 330.831 450.327 313.506 330.686 338.130 C 324.398 369.742 315.146 401.568 301.267 429.284 C 454.832 471.957 501.314 536.106 548.208 595.887 C 552.920 601.894 559.106 611.500 559.107 611.501 C 559.105 611.500 548.945 605.662 542.632 599.817 C 495.879 556.538 397.339 485.618 285.139 458.463 C 272.612 483.716 240.363 520.291 236.266 524.323 C 277.080 591.828 289.097 641.673 290.829 680.868 C 291.258 690.580 289.271 697.622 289.271 697.624 C 289.271 697.622 285.805 692.637 284.056 684.620 C 275.734 646.486 246.778 586.450 207.511 547.881 C 182.716 560.748 92.846 603.552 46.509 614.472 C 34.531 608.595 32.671 599.216 38.230 590.475 Z"/>
</g>
<g id="specs">
<path fill="#ff0000" fill-rule="evenodd" stroke="none" d="M 87.209 602.284 C 87.205 602.283 51.471 592.850 51.467 592.849 C 51.468 592.850 64.047 604.254 64.048 604.256 C 64.047 604.257 53.577 617.624 53.576 617.625 C 53.580 617.623 87.206 602.286 87.209 602.284 Z"/>
<path fill="#00ff00" fill-rule="evenodd" stroke="none" d="M 15.436 605.144 C 15.439 605.143 50.245 592.712 50.248 592.711 C 50.247 592.712 38.681 605.143 38.680 605.144 C 38.681 605.145 50.247 617.576 50.248 617.577 C 50.245 617.576 15.439 605.145 15.436 605.144 Z"/>
</g>
</g>
</svg>
