<?xml version="1.0" encoding="utf-8"?>
<!-- Generator: Moho 13.5.1 build 20210623 -->
<!DOCTYPE svg PUBLIC "-//W3C//DTD SVG 1.1//EN" "http://www.w3.org/Graphics/SVG/1.1/DTD/svg11.dtd">
<svg version="1.1" id="Frame_0" xmlns="http://www.w3.org/2000/svg" xmlns:xlink="http://www.w3.org/1999/xlink" width="720px" height="720px">
<g id="woman">
<g id="hair">
<path id="S1" fill="#000000" fill-rule="evenodd" stroke="#ffffff" stroke-width="2" stroke-linejoin="round" d="M 336.600 74.332 C 345.881 68.943 371.990 69.023 381.318 74.332 C 429.800 101.926 437.614 221.704 460.195 292.975 C 391.322 343.047 332.894 345.139 261.888 297.140 C 282.573 229.742 287.826 102.652 336.600 74.332 Z"/>
</g>
<g id="woman">
<path fill="#ffffff" fill-rule="evenodd" stroke="#000000" stroke-width="2" stroke-linecap="round" stroke-linejoin="round" d="M 359.956 81.246 C 338.348 81.715 331.657 102.298 331.816 113.001 C 332.010 126.002 344.975 139.880 346.183 140.693 C 349.130 142.673 347.609 155.403 346.997 162.080 C 345.686 176.379 295.567 181.197 289.687 203.853 C 284.619 223.380 275.621 237.736 268.751 259.345 C 258.611 291.248 254.754 292.192 250.879 295.384 C 227.069 315.003 216.018 340.411 208.483 341.344 C 190.173 343.610 185.190 351.289 175.899 361.370 C 171.733 365.890 184.873 358.233 192.756 353.401 C 194.716 352.200 171.571 374.273 170.414 380.364 C 169.830 383.442 190.913 363.709 191.468 364.284 C 192.040 364.877 168.982 381.266 172.303 383.790 C 174.984 385.827 194.992 366.584 195.460 367.221 C 195.907 367.830 174.136 383.486 175.942 386.145 C 177.890 389.012 199.818 368.846 200.403 370.010 C 200.913 371.027 181.099 383.950 181.233 386.974 C 181.454 391.964 213.660 367.222 216.470 363.673 C 217.457 362.426 221.852 351.743 222.384 350.053 C 223.732 345.771 239.309 336.395 248.403 329.267 C 258.231 321.563 264.349 308.781 272.403 302.315 C 287.889 289.883 309.718 236.386 309.721 236.379 C 309.722 236.382 316.461 250.739 319.269 264.114 C 325.463 293.612 321.015 311.235 310.200 333.413 C 300.798 352.692 283.817 370.527 285.766 405.992 C 288.918 463.355 305.652 483.762 314.857 530.663 C 319.563 554.644 310.333 564.958 314.714 588.039 C 320.890 620.578 324.369 644.272 323.879 652.117 C 323.727 654.557 322.580 664.985 319.335 671.734 C 316.900 676.798 316.948 679.315 315.443 680.658 C 309.380 686.068 302.859 694.302 310.456 694.110 C 316.387 693.961 314.560 686.551 317.404 685.881 C 318.579 685.604 310.217 694.631 318.939 694.273 C 322.331 694.134 322.783 686.345 324.543 686.077 C 325.610 685.914 316.961 693.112 324.412 695.068 C 328.048 696.023 328.702 686.318 331.701 685.914 C 332.762 685.771 322.202 692.154 329.867 694.637 C 334.254 696.057 336.154 686.707 338.411 685.026 C 343.276 681.403 327.114 694.895 342.612 695.390 C 355.225 695.794 348.652 683.607 345.563 677.472 C 343.420 673.217 349.983 672.040 344.441 658.104 C 337.886 641.621 355.702 608.098 354.153 575.895 C 353.600 564.415 347.619 536.579 347.445 531.079 C 347.036 518.142 355.019 513.333 358.726 425.084 C 358.803 423.243 354.454 423.862 344.350 403.488 C 342.801 400.364 350.273 415.340 359.560 422.928 C 369.286 415.512 376.886 400.410 375.174 403.488 C 364.122 423.364 360.717 423.570 360.798 425.084 C 365.508 513.346 373.564 518.153 372.743 531.079 C 372.414 536.270 364.554 562.125 363.765 572.960 C 361.378 605.715 379.741 638.946 375.385 656.483 C 373.142 665.508 377.422 668.179 373.281 673.181 C 368.849 678.534 367.715 689.719 370.344 690.446 C 375.581 691.894 386.682 689.059 388.649 689.279 C 389.735 689.400 395.355 691.539 398.412 691.950 C 405.731 692.934 400.320 697.240 415.388 696.102 C 419.679 695.778 413.462 688.723 407.914 687.236 C 405.476 686.582 412.922 689.848 412.923 689.848 C 412.923 689.848 416.424 693.780 417.278 693.978 C 424.264 695.602 416.186 687.527 416.185 687.527 C 416.186 687.527 420.179 692.250 421.986 692.262 C 427.536 692.298 420.607 687.287 420.607 687.287 C 420.608 687.287 425.479 691.259 428.281 691.032 C 431.738 690.753 425.997 686.630 425.997 686.630 C 425.997 686.630 429.347 689.545 432.551 688.779 C 434.651 688.276 428.844 684.493 425.445 684.545 C 421.243 684.609 406.696 674.605 403.020 670.646 C 400.993 668.464 399.005 665.715 395.910 657.957 C 393.210 651.188 395.989 626.314 400.268 588.703 C 403.002 564.680 400.505 554.386 406.659 529.999 C 418.253 484.049 430.999 462.887 433.758 405.992 C 435.479 370.516 418.726 352.692 409.324 333.413 C 398.509 311.235 394.061 293.612 400.255 264.114 C 403.063 250.739 409.802 236.382 409.803 236.379 C 409.806 236.386 431.635 289.883 447.121 302.315 C 455.175 308.781 461.293 321.563 471.121 329.267 C 480.215 336.395 495.793 345.771 497.140 350.053 C 497.672 351.743 502.067 362.426 503.055 363.673 C 505.864 367.222 538.070 391.964 538.291 386.974 C 538.425 383.950 518.611 371.027 519.122 370.010 C 519.706 368.846 541.635 389.012 543.582 386.145 C 545.388 383.486 523.617 367.830 524.064 367.221 C 524.532 366.584 544.540 385.827 547.221 383.790 C 550.542 381.266 527.484 364.877 528.057 364.284 C 528.611 363.709 549.694 383.442 549.110 380.364 C 547.953 374.273 524.808 352.200 526.768 353.401 C 534.651 358.233 547.791 365.890 543.625 361.370 C 534.334 351.289 529.351 343.610 511.042 341.344 C 503.506 340.411 492.455 315.003 468.645 295.384 C 464.770 292.192 460.914 291.248 450.773 259.345 C 443.904 237.736 434.905 223.380 429.837 203.853 C 423.957 181.197 373.838 176.379 372.527 162.080 C 371.915 155.403 370.438 142.737 373.341 140.693 C 374.610 139.799 386.857 128.420 387.376 110.535 C 387.647 101.204 381.843 80.772 359.956 81.246 Z"/>
<path fill="#ffffff" fill-rule="evenodd" stroke="#000000" stroke-width="2" stroke-linecap="round" stroke-linejoin="round" d="M 329.778 223.563 C 342.161 223.563 352.152 233.553 352.152 245.937 C 352.152 258.320 342.161 268.310 329.778 268.310 C 317.394 268.310 307.404 258.320 307.404 245.937 C 307.404 233.553 317.394 223.563 329.778 223.563 Z"/>
<path fill="#ffffff" fill-rule="evenodd" stroke="#000000" stroke-width="2" stroke-linecap="round" stroke-linejoin="round" d="M 390.585 223.564 C 378.202 223.564 368.212 233.553 368.212 245.937 C 368.212 258.320 378.202 268.311 390.585 268.311 C 402.969 268.311 412.960 258.321 412.960 245.937 C 412.959 233.553 402.969 223.564 390.585 223.564 Z"/>
<path fill="#ffffff" fill-rule="evenodd" stroke="none" d="M 319.160 210.286 C 319.168 210.286 399.893 210.286 399.901 210.286 C 399.901 210.290 399.901 245.920 399.901 245.923 C 399.893 245.923 319.168 245.923 319.160 245.923 C 319.160 245.920 319.160 210.290 319.160 210.286 Z"/>
<path fill="none" stroke="#000000" stroke-width="2" stroke-linecap="round" stroke-linejoin="round" d="M 358.914 344.242 C 358.914 341.973 359.624 341.065 360.136 341.065 C 360.648 341.065 361.358 341.973 361.358 344.242 C 361.358 346.512 360.648 347.420 360.136 347.420 C 359.624 347.420 358.914 346.512 358.914 344.242 "/>
</g>
<g id="specs_2">
<path fill="#ff00ff" fill-rule="evenodd" stroke="none" d="M 270.939 194.796 C 270.957 194.796 449.043 194.796 449.061 194.796 C 449.061 194.778 449.061 12.149 449.061 12.130 C 449.043 12.130 270.957 12.130 270.939 12.130 C 270.939 12.149 270.939 194.778 270.939 194.796 Z"/>
<path fill="#ff0000" fill-rule="evenodd" stroke="none" d="M 360.000 680.562 C 360.001 680.565 371.251 712.066 371.252 712.069 C 371.251 712.068 360.001 701.600 360.000 701.599 C 359.999 701.600 348.749 712.068 348.748 712.069 C 348.749 712.066 359.999 680.565 360.000 680.562 Z"/>
<path fill="#0000ff" fill-rule="evenodd" stroke="none" d="M 360.000 1.497 C 360.001 1.499 366.535 19.797 366.536 19.799 C 366.535 19.798 360.001 13.718 360.000 13.717 C 359.999 13.718 353.465 19.798 353.464 19.799 C 353.465 19.797 359.999 1.499 360.000 1.497 Z"/>
<path fill="#00ff00" fill-rule="evenodd" stroke="none" d="M 276.948 199.830 C 276.950 199.829 294.026 193.632 294.028 193.632 C 294.027 193.632 288.374 199.771 288.373 199.772 C 288.374 199.772 294.089 205.853 294.089 205.854 C 294.088 205.853 276.950 199.830 276.948 199.830 Z"/>
<path fill="#00ffff" fill-rule="evenodd" stroke="none" d="M 166.319 392.471 C 166.320 392.469 174.706 374.209 174.707 374.207 C 174.707 374.208 175.149 383.429 175.149 383.430 C 175.150 383.430 184.378 383.654 184.379 383.654 C 184.377 383.655 166.321 392.470 166.319 392.471 Z"/>
<path fill="#00ffff" fill-rule="evenodd" stroke="none" d="M 554.150 392.247 C 554.149 392.245 545.398 374.157 545.397 374.156 C 545.397 374.156 545.141 383.384 545.141 383.385 C 545.140 383.385 535.918 383.794 535.917 383.794 C 535.919 383.795 554.148 392.246 554.150 392.247 Z"/>
<path fill="#00ff00" fill-rule="evenodd" stroke="none" d="M 442.538 199.830 C 442.536 199.829 425.460 193.632 425.458 193.632 C 425.459 193.632 431.112 199.771 431.113 199.772 C 431.112 199.772 425.397 205.853 425.396 205.854 C 425.398 205.853 442.536 199.830 442.538 199.830 Z"/>
<path fill="#00ff00" fill-rule="evenodd" stroke="none" d="M 446.973 437.747 C 446.972 437.743 434.099 401.395 434.098 401.391 C 434.097 401.393 431.660 418.939 431.659 418.941 C 431.658 418.941 413.982 417.774 413.980 417.774 C 413.984 417.776 446.970 437.745 446.973 437.747 Z"/>
<path fill="#00ff00" fill-rule="evenodd" stroke="none" d="M 270.206 436.542 C 270.208 436.538 285.476 401.129 285.477 401.126 C 285.477 401.127 286.739 418.797 286.740 418.799 C 286.741 418.799 304.455 418.813 304.457 418.813 C 304.453 418.815 270.210 436.540 270.206 436.542 Z"/>
<path fill="#be0027" fill-rule="evenodd" stroke="none" d="M 360.000 713.683 C 360.001 713.680 371.251 682.180 371.252 682.176 C 371.251 682.177 360.001 692.645 360.000 692.646 C 359.999 692.645 348.749 682.177 348.748 682.176 C 348.749 682.180 359.999 713.680 360.000 713.683 Z"/>
</g>
</g>
</svg>
