<?xml version="1.0" encoding="utf-8"?>
<!-- Generator: Moho 13.5 build 20210422 -->
<!DOCTYPE svg PUBLIC "-//W3C//DTD SVG 1.1//EN" "http://www.w3.org/Graphics/SVG/1.1/DTD/svg11.dtd">
<svg version="1.1" id="Frame_0" xmlns="http://www.w3.org/2000/svg" xmlns:xlink="http://www.w3.org/1999/xlink" width="720px" height="720px">
<g id="halves">
<g id="woman_libra">
<g id="hair">
<path fill="#000000" fill-rule="evenodd" stroke="#ffffff" stroke-width="4" stroke-linecap="round" stroke-linejoin="round" d="M 360.000 30.893 C 351.304 25.711 320.529 30.986 311.071 39.783 C 295.719 54.060 299.757 64.641 287.007 78.359 C 271.845 94.671 256.896 92.443 243.129 109.948 C 229.970 126.681 236.480 140.866 223.548 157.776 C 210.142 175.304 194.238 172.647 180.952 190.266 C 164.774 211.722 170.110 222.538 157.865 251.281 C 144.524 282.598 120.828 277.847 112.926 321.080 C 107.235 352.220 135.032 388.199 135.035 388.206 C 135.057 388.206 359.694 389.335 359.716 389.335 C 359.739 389.335 586.002 388.206 586.025 388.206 C 586.027 388.199 613.824 352.220 608.133 321.080 C 600.231 277.847 576.535 282.598 563.194 251.281 C 550.949 222.538 556.285 211.722 540.107 190.266 C 526.822 172.647 510.917 175.304 497.511 157.776 C 484.579 140.866 491.090 126.681 477.930 109.948 C 464.164 92.443 449.214 94.671 434.052 78.359 C 421.302 64.641 425.295 54.109 409.989 39.783 C 400.346 30.758 368.908 25.206 360.000 30.893 Z"/>
<path fill="none" stroke="#ffffff" stroke-width="4" stroke-linecap="round" stroke-linejoin="round" d="M 238.869 389.276 C 229.367 379.460 212.849 364.188 213.001 338.772 C 213.175 309.516 228.915 309.432 232.464 287.051 C 236.760 259.958 228.065 251.834 236.860 229.941 C 244.511 210.896 260.329 210.133 268.136 191.151 C 275.254 173.842 265.734 163.223 272.999 145.975 C 281.535 125.708 296.411 124.191 307.389 105.135 C 316.514 89.295 310.903 80.206 322.686 63.474 C 328.737 54.882 351.951 45.201 359.860 47.497 C 367.838 45.055 391.466 54.782 397.616 63.474 C 409.438 80.179 403.789 89.295 412.914 105.135 C 423.892 124.191 438.768 125.708 447.304 145.975 C 454.569 163.223 445.049 173.842 452.167 191.151 C 459.974 210.133 475.792 210.896 483.443 229.941 C 492.238 251.834 483.543 259.958 487.839 287.051 C 491.388 309.432 507.128 309.516 507.302 338.772 C 507.453 364.188 490.936 379.460 481.434 389.276 M 197.902 389.217 C 187.619 375.727 173.109 362.245 175.108 336.664 C 177.806 302.135 196.951 303.813 203.823 277.883 C 211.215 249.991 203.598 240.671 215.152 218.708 C 225.014 199.964 240.942 200.461 250.947 181.793 C 260.244 164.445 251.759 152.365 261.285 135.143 C 271.656 116.396 286.200 116.349 298.507 98.812 C 309.418 83.265 304.391 73.445 317.762 56.914 C 325.072 47.877 351.319 38.559 359.860 41.726 C 368.691 38.462 395.126 47.779 402.541 56.914 C 415.940 73.423 410.885 83.265 421.795 98.812 C 434.103 116.349 448.647 116.396 459.017 135.143 C 468.544 152.365 460.059 164.445 469.356 181.793 C 479.360 200.461 495.289 199.964 505.151 218.708 C 516.705 240.671 509.088 249.991 516.480 277.883 C 523.352 303.813 542.497 302.135 545.195 336.664 C 547.194 362.245 532.684 375.727 522.401 389.217 M 163.836 387.177 C 155.470 375.593 139.720 358.199 141.998 335.698 C 146.282 293.389 169.713 296.248 180.139 265.004 C 189.650 236.502 183.479 226.474 197.356 204.673 C 208.984 186.408 224.932 187.983 236.691 169.802 C 247.816 152.601 240.310 139.428 251.664 122.377 C 263.789 104.168 278.550 105.217 292.360 88.249 C 304.321 73.553 299.757 63.232 314.365 47.850 C 322.815 38.952 351.479 31.960 360.140 36.140 C 369.107 31.281 397.483 38.948 405.938 47.850 C 420.546 63.231 415.982 73.553 427.943 88.249 C 441.752 105.217 456.513 104.168 468.639 122.377 C 479.993 139.428 472.487 152.601 483.612 169.802 C 495.371 187.983 511.319 186.408 522.946 204.673 C 536.824 226.474 530.653 236.502 540.164 265.004 C 550.590 296.248 574.021 293.389 578.305 335.698 C 580.583 358.199 564.833 375.593 556.467 387.177 "/>
</g>
<g id="woman_top">
<path fill="#ffffff" fill-rule="evenodd" stroke="#000000" stroke-width="2" stroke-linecap="round" stroke-linejoin="round" d="M 441.484 389.126 C 441.484 389.125 439.950 383.294 439.444 380.565 C 437.561 372.942 435.359 366.089 432.518 359.854 C 426.836 347.383 419.620 337.146 414.433 326.508 C 402.498 302.034 397.588 282.585 404.424 250.032 C 407.523 235.272 414.960 219.428 414.961 219.425 C 414.966 219.433 440.763 298.306 463.946 294.492 C 480.123 291.830 494.619 272.902 503.640 252.355 C 510.401 236.958 519.230 207.777 521.861 207.440 C 523.992 207.167 537.960 207.854 539.871 207.582 C 543.535 207.059 576.830 191.319 577.146 187.553 C 577.535 182.911 546.641 188.706 546.638 188.706 C 546.634 188.706 511.074 187.601 511.069 187.602 C 511.065 187.609 502.652 205.907 468.449 258.074 C 463.528 265.580 462.729 254.875 455.065 230.721 C 449.226 212.316 441.291 200.182 437.070 183.531 C 430.723 158.492 375.271 153.211 373.824 137.431 C 373.149 130.062 371.543 116.117 374.723 113.828 C 376.018 112.896 388.078 100.877 388.395 82.487 C 388.562 72.797 382.651 51.588 359.928 52.081 C 337.106 51.474 331.270 72.793 331.435 82.487 C 331.748 100.877 343.812 112.896 345.108 113.828 C 348.287 116.117 346.681 130.062 346.006 137.431 C 344.559 153.211 289.107 158.492 282.760 183.531 C 278.539 200.182 270.604 212.316 264.765 230.721 C 257.101 254.875 256.302 265.580 251.381 258.074 C 217.179 205.907 208.765 187.609 208.761 187.602 C 208.756 187.601 173.196 188.555 173.192 188.555 C 173.189 188.555 142.545 184.037 143.156 188.579 C 143.648 192.235 175.019 206.588 179.487 206.638 C 183.121 206.678 195.819 206.942 197.969 207.440 C 204.334 208.915 209.429 236.958 216.190 252.355 C 225.212 272.902 239.707 291.830 255.884 294.492 C 279.067 298.306 304.864 219.433 304.869 219.425 C 304.870 219.428 312.307 235.272 315.406 250.032 C 322.242 282.585 317.333 302.034 305.397 326.508 C 300.210 337.146 292.994 347.383 287.312 359.854 C 284.471 366.089 282.269 372.942 280.386 380.565 C 279.881 383.294 278.346 389.125 278.346 389.126 C 278.362 389.126 441.468 389.126 441.484 389.126 Z"/>
<path fill="#ffffff" fill-rule="evenodd" stroke="#000000" stroke-width="2" stroke-linecap="round" stroke-linejoin="round" d="M 326.647 205.282 C 340.314 205.282 351.339 216.306 351.339 229.972 C 351.339 243.639 340.314 254.663 326.647 254.663 C 312.981 254.663 301.956 243.639 301.957 229.972 C 301.957 216.306 312.981 205.282 326.647 205.282 Z"/>
<path fill="#ffffff" fill-rule="evenodd" stroke="#000000" stroke-width="2" stroke-linecap="round" stroke-linejoin="round" d="M 393.753 205.282 C 380.087 205.282 369.062 216.306 369.062 229.972 C 369.062 243.639 380.087 254.664 393.753 254.664 C 407.420 254.664 418.445 243.639 418.445 229.972 C 418.444 216.306 407.419 205.282 393.753 205.282 Z"/>
<path fill="#ffffff" fill-rule="evenodd" stroke="none" d="M 314.931 190.629 C 314.939 190.629 404.025 190.629 404.034 190.629 C 404.034 190.633 404.034 229.954 404.034 229.958 C 404.025 229.958 314.939 229.958 314.931 229.958 C 314.931 229.954 314.931 190.633 314.931 190.629 Z"/>
<path fill="none" stroke="#000000" stroke-width="2" stroke-linecap="round" stroke-linejoin="round" d="M 530.501 195.724 C 535.950 193.540 541.399 191.356 546.847 189.172 M 537.546 199.350 C 545.677 195.197 553.808 191.043 561.940 186.890 M 547.023 199.526 C 555.154 195.255 563.285 190.985 571.416 186.715 "/>
<path fill="none" stroke="#000000" stroke-width="2" stroke-linecap="round" stroke-linejoin="round" d="M 187.228 195.724 C 182.327 193.540 177.425 191.356 172.523 189.172 M 181.824 199.350 C 173.693 195.197 165.562 191.043 157.431 186.890 M 172.347 199.526 C 164.216 195.255 156.085 190.985 147.954 186.715 "/>
</g>
<g id="specs_3">
<path fill="#ff00ff" fill-rule="evenodd" stroke="none" d="M 95.055 189.675 C 95.071 189.675 255.571 189.675 255.587 189.675 C 255.587 189.659 255.587 29.159 255.587 29.143 C 255.571 29.143 95.071 29.143 95.055 29.143 C 95.055 29.159 95.055 189.659 95.055 189.675 Z"/>
<path fill="#ff0000" fill-rule="evenodd" stroke="none" d="M 360.000 365.527 C 360.001 365.531 372.416 400.293 372.417 400.297 C 372.416 400.296 360.001 388.744 360.000 388.743 C 359.999 388.744 347.584 400.296 347.583 400.297 C 347.584 400.293 359.999 365.531 360.000 365.527 Z"/>
<path fill="#0000ff" fill-rule="evenodd" stroke="none" d="M 360.092 15.846 C 360.093 15.848 367.729 37.232 367.730 37.234 C 367.729 37.233 360.093 30.128 360.092 30.127 C 360.091 30.128 352.454 37.233 352.454 37.234 C 352.454 37.232 360.091 15.848 360.092 15.846 Z"/>
<path fill="#00ff00" fill-rule="evenodd" stroke="none" d="M 110.080 278.061 C 110.085 278.059 161.631 259.355 161.636 259.353 C 161.635 259.355 144.569 277.885 144.567 277.887 C 144.569 277.889 161.821 296.244 161.823 296.246 C 161.817 296.244 110.085 278.063 110.080 278.061 Z"/>
<path fill="#00ff00" fill-rule="evenodd" stroke="none" d="M 609.920 278.061 C 609.915 278.059 558.369 259.355 558.364 259.353 C 558.365 259.355 575.431 277.885 575.433 277.887 C 575.431 277.889 558.179 296.244 558.177 296.246 C 558.183 296.244 609.915 278.063 609.920 278.061 Z"/>
<path fill="#be0027" fill-rule="evenodd" stroke="none" d="M 360.000 411.957 C 360.001 411.954 372.416 377.191 372.417 377.188 C 372.416 377.189 360.001 388.741 360.000 388.742 C 359.999 388.741 347.584 377.189 347.583 377.188 C 347.584 377.191 359.999 411.954 360.000 411.957 Z"/>
<path fill="none" stroke="#ffff00" stroke-width="2" stroke-linecap="round" stroke-linejoin="round" d="M 278.193 388.851 C 332.532 388.850 441.193 388.847 441.210 388.847 "/>
<path fill="#ff00ff" fill-rule="evenodd" stroke="none" d="M 464.412 189.675 C 464.428 189.675 624.929 189.675 624.945 189.675 C 624.945 189.659 624.945 29.159 624.945 29.142 C 624.929 29.142 464.428 29.142 464.412 29.142 C 464.412 29.159 464.412 189.659 464.412 189.675 Z"/>
</g>
</g>
</g>
</svg>
