<?xml version="1.0" encoding="utf-8"?>
<!-- Generator: Moho 12.5 build 22414 -->
<!DOCTYPE svg PUBLIC "-//W3C//DTD SVG 1.1//EN" "http://www.w3.org/Graphics/SVG/1.1/DTD/svg11.dtd">
<svg version="1.1" id="Frame_0" xmlns="http://www.w3.org/2000/svg" xmlns:xlink="http://www.w3.org/1999/xlink" width="720px" height="720px">
<g id="woman_kneel_2">
<g id="woman_kneel">
<path fill="#000000" fill-rule="evenodd" stroke="none" d="M 222.262 348.132 C 217.712 345.523 218.975 337.676 220.232 332.677 C 221.587 327.292 227.950 324.398 229.943 319.296 C 231.795 314.554 229.459 308.698 231.775 304.223 C 234.411 299.128 241.344 297.516 244.567 292.821 C 247.469 288.593 246.789 282.422 250.047 278.494 C 253.857 273.901 261.059 273.402 265.364 269.295 C 269.208 265.628 270.136 259.431 274.260 256.091 C 279.076 252.192 286.357 252.671 291.566 249.304 C 296.262 246.268 298.697 240.299 303.623 237.618 C 309.245 234.558 316.399 235.748 322.402 233.436 C 328.024 231.271 332.438 226.462 338.189 224.520 C 354.137 219.134 370.075 226.311 379.364 237.397 C 400.031 262.062 373.240 284.761 373.239 284.766 C 373.239 284.771 372.895 342.138 372.596 342.907 C 370.964 343.053 226.083 350.323 222.262 348.132 Z"/>
<path fill="none" stroke="#ffffff" stroke-width="4" stroke-linejoin="round" d="M 337.501 260.413 C 341.970 258.521 345.018 253.738 349.728 252.428 M 322.137 263.834 C 326.737 261.331 332.654 262.464 337.501 260.413 M 312.272 273.395 C 316.114 270.911 318.107 266.027 322.137 263.834 M 298.113 278.948 C 302.053 275.758 308.010 276.150 312.272 273.395 M 290.835 289.751 C 293.979 286.751 294.738 281.681 298.113 278.948 M 278.303 297.277 C 281.420 293.520 287.312 293.111 290.835 289.751 M 273.819 309.000 C 276.194 305.540 275.637 300.491 278.303 297.277 M 263.353 318.328 C 265.510 314.160 271.182 312.841 273.819 309.000 M 261.854 330.660 C 263.369 326.781 261.458 321.990 263.353 318.328 M 331.989 252.661 C 336.784 250.631 340.054 245.499 345.108 244.093 M 315.503 256.332 C 320.439 253.646 326.788 254.861 331.989 252.661 M 304.918 266.591 C 309.041 263.926 311.179 258.685 315.503 256.332 M 289.726 272.549 C 293.954 269.126 300.346 269.547 304.918 266.591 M 281.917 284.140 C 285.291 280.921 286.105 275.481 289.726 272.549 M 268.470 292.216 C 271.815 288.184 278.137 287.746 281.917 284.140 M 263.659 304.794 C 266.207 301.082 265.609 295.665 268.470 292.216 M 252.429 314.803 C 254.744 310.331 260.830 308.915 263.659 304.794 M 250.820 328.035 C 252.446 323.873 250.396 318.732 252.429 314.803 M 326.046 244.305 C 331.193 242.126 334.703 236.617 340.128 235.108 M 308.352 248.245 C 313.649 245.362 320.465 246.667 326.046 244.305 M 296.991 259.256 C 301.417 256.395 303.711 250.771 308.352 248.245 M 280.685 265.651 C 285.223 261.977 292.083 262.429 296.991 259.256 M 272.303 278.092 C 275.925 274.637 276.799 268.798 280.685 265.651 M 257.870 286.760 C 261.460 282.433 268.246 281.963 272.303 278.092 M 252.706 300.260 C 255.441 296.276 254.800 290.461 257.870 286.760 M 240.653 311.004 C 243.137 306.203 249.670 304.684 252.706 300.260 M 238.927 325.206 C 240.672 320.738 238.471 315.221 240.653 311.004 M 372.596 342.907 C 370.964 343.053 226.083 350.323 222.262 348.132 C 217.712 345.523 218.975 337.676 220.232 332.677 C 221.587 327.292 227.950 324.398 229.943 319.296 C 231.795 314.554 229.459 308.698 231.775 304.223 C 234.411 299.128 241.344 297.516 244.567 292.821 C 247.469 288.593 246.789 282.422 250.047 278.494 C 253.857 273.901 261.059 273.402 265.364 269.295 C 269.208 265.628 270.136 259.431 274.260 256.091 C 279.076 252.192 286.357 252.671 291.566 249.304 C 296.262 246.268 298.697 240.299 303.623 237.618 C 309.245 234.558 316.399 235.748 322.402 233.436 C 328.024 231.271 332.438 226.462 338.189 224.520 C 354.137 219.134 370.075 226.311 379.364 237.397 C 400.031 262.062 373.240 284.761 373.239 284.766 C 373.239 284.771 372.895 342.138 372.596 342.907 "/>
<path fill="none" stroke="#ffffff" stroke-width="4" stroke-linejoin="round" d="M 301.229 331.441 C 303.130 328.671 302.684 324.628 304.819 322.054 C 307.315 319.046 312.033 318.719 314.854 316.028 C 317.372 313.625 317.980 309.566 320.682 307.378 C 323.837 304.823 328.607 305.137 332.019 302.931 C 335.096 300.942 336.691 297.032 339.918 295.275 C 343.602 293.271 348.340 294.178 352.221 292.535 C 355.799 291.021 358.240 287.191 362.011 286.142 "/>
<path fill="none" stroke="#ffffff" stroke-width="4" stroke-linejoin="round" d="M 283.403 331.731 C 285.244 328.174 290.084 327.049 292.334 323.771 C 294.361 320.818 293.886 316.510 296.161 313.767 C 298.821 310.560 303.849 310.212 306.855 307.344 C 309.539 304.784 310.187 300.458 313.067 298.126 C 316.429 295.403 321.513 295.738 325.150 293.387 C 328.429 291.267 330.129 287.099 333.568 285.227 C 337.494 283.091 342.544 284.058 346.680 282.307 C 350.493 280.693 353.094 276.611 357.114 275.494 "/>
<path fill="none" stroke="#ffffff" stroke-width="4" stroke-linejoin="round" d="M 271.959 335.923 C 273.359 332.339 271.593 327.912 273.343 324.529 C 275.336 320.677 280.577 319.459 283.013 315.910 C 285.208 312.713 284.693 308.048 287.157 305.078 C 290.037 301.606 295.481 301.229 298.736 298.124 C 301.641 295.352 302.343 290.668 305.461 288.143 C 309.101 285.195 314.605 285.558 318.543 283.012 C 322.093 280.717 323.934 276.204 327.658 274.178 C 331.908 271.865 337.376 272.912 341.854 271.017 C 345.983 269.269 348.800 264.849 353.151 263.639 "/>
<path fill="#ffffff" fill-rule="evenodd" stroke="#000000" stroke-width="4" stroke-linejoin="round" d="M 342.088 475.922 C 342.086 475.938 326.473 632.474 326.472 632.490 C 326.490 632.490 511.684 632.490 511.703 632.490 C 511.701 632.488 494.801 622.034 491.039 619.443 C 430.309 577.608 379.460 596.597 379.449 596.595 C 379.455 596.583 446.063 548.417 436.731 481.127 C 396.765 412.995 342.097 475.923 342.088 475.922 Z"/>
<path fill="#ffffff" fill-rule="evenodd" stroke="#000000" stroke-width="4" stroke-linejoin="round" d="M 214.921 321.030 C 210.936 325.445 212.227 450.295 212.227 450.308 C 212.230 450.299 242.168 363.710 242.171 363.702 C 242.178 363.701 309.583 355.860 309.590 355.859 C 309.591 355.863 309.991 379.099 315.182 396.179 C 322.834 421.362 342.085 449.822 342.088 449.827 C 342.075 449.827 211.628 449.827 211.615 449.827 C 211.615 449.847 211.615 642.036 211.615 642.055 C 211.616 642.053 217.443 625.488 221.751 619.505 C 281.210 536.930 267.546 507.496 267.550 507.485 C 267.560 507.488 322.865 544.531 368.182 541.159 C 408.737 538.141 441.620 528.182 440.112 484.102 C 438.806 445.969 395.813 436.597 392.631 413.016 C 389.059 386.547 412.732 357.724 412.734 357.718 C 412.743 357.716 499.093 346.991 504.446 335.107 C 510.583 321.484 448.125 241.443 450.761 241.070 C 480.750 236.824 487.596 228.024 487.599 228.023 C 487.594 228.023 437.718 228.023 437.713 228.023 C 437.715 228.031 449.116 305.212 449.117 305.220 C 449.110 305.220 379.502 307.125 379.618 306.307 C 382.770 284.095 384.794 278.756 384.795 278.753 C 384.796 278.752 394.924 270.731 394.925 270.730 C 394.921 270.726 376.712 236.730 361.429 231.979 C 352.441 229.185 337.338 230.149 331.876 237.814 C 323.493 249.579 366.077 307.641 339.347 307.422 C 261.256 306.783 218.087 317.520 214.921 321.030 Z"/>
<path fill="#ffffff" fill-rule="evenodd" stroke="#000000" stroke-width="4" stroke-linejoin="round" d="M 315.687 354.057 C 326.226 354.057 334.728 362.559 334.728 373.098 C 334.728 383.637 326.226 392.139 315.687 392.139 C 305.148 392.139 296.646 383.637 296.647 373.098 C 296.647 362.559 305.148 354.057 315.687 354.057 Z"/>
<path fill="#ffffff" fill-rule="evenodd" stroke="#000000" stroke-width="4" stroke-linejoin="round" d="M 370.469 354.057 C 381.008 354.057 389.510 362.559 389.510 373.098 C 389.510 383.637 381.008 392.139 370.469 392.139 C 359.930 392.139 351.428 383.637 351.428 373.098 C 351.429 362.559 359.930 354.057 370.469 354.057 Z"/>
<path fill="none" stroke="#000000" stroke-width="4" stroke-linejoin="round" d="M 353.805 257.328 C 353.088 258.823 352.372 260.319 351.656 261.814 M 359.967 258.584 C 359.992 260.359 360.016 262.134 360.040 263.910 M 366.516 257.167 C 367.206 258.770 367.896 260.372 368.586 261.975 M 346.174 257.138 C 347.192 256.215 349.229 254.369 349.230 254.369 C 349.230 254.369 353.804 257.328 353.805 257.328 C 353.805 257.328 359.967 258.584 359.967 258.584 C 359.968 258.584 366.515 257.167 366.516 257.167 C 366.517 257.167 372.409 254.369 372.410 254.369 C 372.410 254.369 374.268 256.645 375.197 257.783 "/>
</g>
<g id="specs_2">
<path fill="#ff00ff" fill-rule="evenodd" stroke="none" d="M 311.520 225.338 C 311.541 225.338 528.042 225.338 528.064 225.338 C 528.064 225.316 528.064 8.815 528.064 8.793 C 528.042 8.793 311.541 8.793 311.520 8.793 C 311.520 8.815 311.520 225.316 311.520 225.338 Z"/>
<path fill="#ff0000" fill-rule="evenodd" stroke="none" d="M 341.561 678.060 C 341.563 678.063 353.744 712.173 353.746 712.176 C 353.744 712.175 341.563 700.841 341.561 700.840 C 341.560 700.841 329.378 712.175 329.377 712.176 C 329.378 712.173 341.560 678.063 341.561 678.060 Z"/>
<path fill="#0000ff" fill-rule="evenodd" stroke="none" d="M 355.992 206.444 C 355.993 206.446 363.069 226.259 363.070 226.261 C 363.069 226.261 355.993 219.677 355.992 219.676 C 355.991 219.677 348.915 226.261 348.915 226.261 C 348.915 226.259 355.991 206.446 355.992 206.444 Z"/>
<path fill="#00ff00" fill-rule="evenodd" stroke="none" d="M 119.366 410.535 C 119.368 410.534 139.145 403.357 139.147 403.356 C 139.147 403.357 132.599 410.467 132.598 410.468 C 132.599 410.469 139.218 417.511 139.219 417.512 C 139.217 417.511 119.368 410.535 119.366 410.535 Z"/>
<path fill="#ffff00" fill-rule="evenodd" stroke="none" d="M 211.657 647.553 C 211.657 647.551 204.346 627.823 204.346 627.821 C 204.346 627.821 211.500 634.321 211.501 634.322 C 211.502 634.321 218.500 627.654 218.500 627.654 C 218.500 627.656 211.658 647.551 211.657 647.553 Z"/>
<path fill="#ffff00" fill-rule="evenodd" stroke="none" d="M 517.782 630.772 C 517.780 630.772 497.909 623.859 497.907 623.858 C 497.907 623.859 504.550 630.881 504.550 630.882 C 504.550 630.882 498.024 638.013 498.023 638.013 C 498.025 638.013 517.780 630.773 517.782 630.772 Z"/>
<path fill="#00ff00" fill-rule="evenodd" stroke="none" d="M 438.568 410.535 C 438.566 410.534 418.788 403.357 418.786 403.356 C 418.786 403.357 425.335 410.467 425.335 410.468 C 425.335 410.469 418.715 417.511 418.714 417.512 C 418.716 417.511 438.566 410.535 438.568 410.535 Z"/>
<path fill="#00ffff" fill-rule="evenodd" stroke="none" d="M 510.162 313.801 C 510.161 313.803 503.138 333.635 503.137 333.637 C 503.137 333.636 501.807 324.063 501.807 324.062 C 501.806 324.062 492.161 324.698 492.160 324.699 C 492.162 324.697 510.160 313.802 510.162 313.801 Z"/>
<path fill="#00ffff" fill-rule="evenodd" stroke="none" d="M 212.859 269.817 C 212.860 269.819 221.190 289.139 221.191 289.141 C 221.191 289.140 221.880 279.499 221.880 279.498 C 221.881 279.498 231.546 279.490 231.547 279.490 C 231.545 279.489 212.861 269.818 212.859 269.817 Z"/>
<path fill="#be0027" fill-rule="evenodd" stroke="none" d="M 449.699 525.232 C 449.697 525.229 434.192 492.496 434.191 492.492 C 434.190 492.494 433.592 509.123 433.591 509.124 C 433.590 509.124 416.961 509.724 416.959 509.724 C 416.963 509.725 449.695 525.230 449.699 525.232 Z"/>
</g>
</g>
</svg>
