<?xml version="1.0" encoding="utf-8"?>
<!-- Generator: Moho 13.5 build 20210422 -->
<!DOCTYPE svg PUBLIC "-//W3C//DTD SVG 1.1//EN" "http://www.w3.org/Graphics/SVG/1.1/DTD/svg11.dtd">
<svg version="1.1" id="Frame_0" xmlns="http://www.w3.org/2000/svg" xmlns:xlink="http://www.w3.org/1999/xlink" width="720px" height="720px">
<g id="halves">
<g id="woman_top">
<g id="woman_top">
<path fill="#000000" fill-rule="evenodd" stroke="#ffffff" stroke-width="2" stroke-linecap="round" stroke-linejoin="round" d="M 360.387 383.482 C 381.103 383.474 388.625 389.771 410.626 381.163 C 424.126 375.882 427.779 369.350 440.964 363.325 C 449.475 359.436 455.686 362.365 462.426 355.873 C 472.144 346.511 467.824 337.308 473.248 324.952 C 477.740 314.720 486.310 315.420 485.963 300.988 C 485.461 280.117 476.089 283.542 473.248 270.067 C 469.963 254.486 477.713 246.454 472.475 231.416 C 467.762 217.884 457.784 216.514 451.603 203.587 C 444.109 187.910 451.183 177.081 441.554 162.617 C 435.074 152.882 427.476 155.263 419.191 145.127 C 410.494 134.488 413.228 127.765 405.927 118.441 C 394.959 104.434 381.029 97.601 360.387 97.524 C 339.453 97.445 325.231 104.271 314.073 118.448 C 306.750 127.752 309.504 134.490 300.809 145.127 C 292.523 155.262 284.926 152.882 278.446 162.617 C 268.817 177.081 275.891 187.910 268.397 203.587 C 262.217 216.514 252.238 217.884 247.525 231.416 C 242.287 246.454 250.037 254.486 246.752 270.067 C 243.911 283.542 234.539 280.117 234.037 300.988 C 233.691 315.420 242.260 314.720 246.752 324.952 C 252.176 337.308 247.855 346.511 257.574 355.873 C 264.314 362.365 270.525 359.436 279.036 363.325 C 292.221 369.350 295.823 376.014 309.373 381.164 C 330.965 389.370 339.352 383.491 360.387 383.482 Z"/>
<path fill="#ffffff" fill-rule="evenodd" stroke="#000000" stroke-width="2" stroke-linecap="round" stroke-linejoin="round" d="M 439.444 443.122 C 437.561 435.499 435.359 428.646 432.518 422.411 C 426.836 409.940 419.620 399.703 414.433 389.065 C 402.498 364.591 397.588 345.143 404.424 312.589 C 407.523 297.829 414.960 281.985 414.961 281.982 C 414.965 281.990 439.054 341.027 456.144 354.747 C 465.032 361.883 471.784 375.989 482.630 384.491 C 492.665 392.356 509.857 402.704 511.344 407.430 C 511.931 409.294 516.781 421.083 517.871 422.460 C 520.971 426.376 556.513 453.681 556.757 448.174 C 556.904 444.837 535.039 430.575 535.602 429.453 C 536.247 428.169 560.447 450.423 562.595 447.260 C 564.589 444.325 540.563 427.047 541.056 426.376 C 541.573 425.672 563.653 446.908 566.612 444.660 C 570.277 441.875 544.830 423.789 545.462 423.134 C 546.075 422.500 569.341 444.277 568.696 440.880 C 567.419 434.157 541.877 409.799 544.040 411.124 C 552.740 416.456 567.241 424.907 562.643 419.918 C 552.390 408.794 546.891 400.319 526.685 397.818 C 518.370 396.789 506.173 368.749 479.898 347.099 C 475.622 343.575 471.365 342.534 460.174 307.327 C 452.593 283.479 442.663 267.636 437.070 246.088 C 430.581 221.085 375.271 215.768 373.824 199.988 C 373.149 192.619 371.543 178.674 374.723 176.385 C 376.018 175.453 388.078 163.434 388.395 145.044 C 388.562 135.354 382.651 114.145 359.928 114.638 C 337.495 115.125 330.684 136.492 330.714 147.605 C 330.750 160.951 343.520 175.539 344.752 176.385 C 347.981 178.604 346.326 192.619 345.650 199.988 C 344.204 215.768 288.894 221.085 282.405 246.088 C 276.812 267.636 266.881 283.479 259.301 307.327 C 248.110 342.534 243.853 343.575 239.577 347.099 C 213.302 368.749 201.105 396.789 192.790 397.818 C 172.584 400.319 167.085 408.794 156.831 419.918 C 152.234 424.907 166.735 416.456 175.435 411.124 C 177.597 409.799 152.055 434.157 150.779 440.880 C 150.134 444.277 173.400 422.500 174.012 423.134 C 174.645 423.789 149.198 441.875 152.863 444.660 C 155.822 446.908 177.902 425.672 178.419 426.376 C 178.912 427.047 154.886 444.325 156.879 447.260 C 159.028 450.423 183.228 428.169 183.873 429.453 C 184.436 430.575 162.570 444.837 162.718 448.174 C 162.962 453.681 198.504 426.376 201.604 422.460 C 202.694 421.083 207.544 409.294 208.131 407.430 C 209.618 402.704 226.809 392.356 236.844 384.491 C 247.691 375.989 254.443 361.883 263.331 354.747 C 280.420 341.027 304.510 281.990 304.514 281.982 C 304.515 281.985 311.951 297.829 315.051 312.589 C 321.886 345.143 316.977 364.591 305.042 389.065 C 299.854 399.703 292.576 409.943 286.862 422.416 C 284.006 428.652 281.456 435.429 279.924 443.128 C 279.264 445.675 279.024 447.169 278.091 451.408 C 278.107 451.408 441.468 451.683 441.484 451.683 C 441.484 451.682 439.950 445.851 439.444 443.122 Z"/>
<path fill="#ffffff" fill-rule="evenodd" stroke="#000000" stroke-width="2" stroke-linecap="round" stroke-linejoin="round" d="M 326.647 267.839 C 340.314 267.839 351.339 278.863 351.339 292.530 C 351.339 306.196 340.314 317.221 326.647 317.220 C 312.981 317.220 301.956 306.196 301.957 292.530 C 301.957 278.863 312.981 267.839 326.647 267.839 Z"/>
<path fill="#ffffff" fill-rule="evenodd" stroke="#000000" stroke-width="2" stroke-linecap="round" stroke-linejoin="round" d="M 393.753 267.839 C 380.087 267.839 369.062 278.863 369.062 292.530 C 369.062 306.196 380.087 317.221 393.753 317.221 C 407.420 317.221 418.445 306.196 418.445 292.530 C 418.444 278.863 407.419 267.839 393.753 267.839 Z"/>
<path fill="#ffffff" fill-rule="evenodd" stroke="none" d="M 314.931 253.187 C 314.939 253.187 404.025 253.187 404.034 253.187 C 404.034 253.190 404.034 292.511 404.034 292.515 C 404.025 292.515 314.939 292.515 314.931 292.515 C 314.931 292.511 314.931 253.190 314.931 253.187 Z"/>
<path fill="none" stroke="#000000" stroke-width="2" stroke-linecap="round" stroke-linejoin="round" d="M 358.802 401.017 C 358.802 398.512 359.585 397.511 360.150 397.511 C 360.716 397.511 361.499 398.512 361.499 401.017 C 361.499 403.522 360.716 404.523 360.150 404.523 C 359.585 404.523 358.802 403.522 358.802 401.017 "/>
</g>
<g id="specs_3">
<path fill="#ff00ff" fill-rule="evenodd" stroke="none" d="M 259.613 237.988 C 259.633 237.988 460.367 237.988 460.387 237.988 C 460.387 237.968 460.387 37.233 460.387 37.213 C 460.367 37.213 259.633 37.213 259.613 37.213 C 259.613 37.233 259.613 237.968 259.613 237.988 Z"/>
<path fill="#ff0000" fill-rule="evenodd" stroke="none" d="M 360.000 428.084 C 360.001 428.088 372.416 462.850 372.417 462.854 C 372.416 462.853 360.001 451.301 360.000 451.300 C 359.999 451.301 347.584 462.853 347.583 462.854 C 347.584 462.850 359.999 428.088 360.000 428.084 Z"/>
<path fill="#00ff00" fill-rule="evenodd" stroke="none" d="M 261.989 241.654 C 261.991 241.653 282.147 234.339 282.149 234.338 C 282.149 234.339 275.475 241.585 275.475 241.586 C 275.475 241.586 282.221 248.764 282.222 248.765 C 282.220 248.764 261.991 241.654 261.989 241.654 Z"/>
<path fill="#00ff00" fill-rule="evenodd" stroke="none" d="M 457.444 241.654 C 457.442 241.653 437.285 234.339 437.283 234.338 C 437.284 234.339 443.957 241.585 443.958 241.586 C 443.957 241.586 437.211 248.764 437.211 248.765 C 437.213 248.764 457.442 241.654 457.444 241.654 Z"/>
<path fill="#be0027" fill-rule="evenodd" stroke="none" d="M 360.000 474.515 C 360.001 474.511 372.416 439.749 372.417 439.745 C 372.416 439.746 360.001 451.298 360.000 451.299 C 359.999 451.298 347.584 439.746 347.583 439.745 C 347.584 439.749 359.999 474.511 360.000 474.515 Z"/>
<path fill="none" stroke="#ffff00" stroke-width="2" stroke-linecap="round" stroke-linejoin="round" d="M 278.193 451.408 C 332.532 451.407 441.193 451.404 441.210 451.404 "/>
</g>
</g>
</g>
</svg>
