<?xml version="1.0" encoding="utf-8"?>
<!-- Generator: Moho 12.5 build 22414 -->
<!DOCTYPE svg PUBLIC "-//W3C//DTD SVG 1.1//EN" "http://www.w3.org/Graphics/SVG/1.1/DTD/svg11.dtd">
<svg version="1.1" id="Frame_0" xmlns="http://www.w3.org/2000/svg" xmlns:xlink="http://www.w3.org/1999/xlink" width="720px" height="720px">
<g id="woman_kneel">
<g id="woman_kneel">
<path fill="#000000" fill-rule="evenodd" stroke="none" d="M 113.637 481.999 C 113.638 481.996 123.644 462.362 124.801 451.802 C 125.855 442.184 118.738 432.514 121.057 423.293 C 123.556 413.360 135.293 408.022 138.969 398.611 C 142.386 389.864 138.078 379.062 142.349 370.807 C 147.212 361.410 160.001 358.436 165.945 349.775 C 171.299 341.975 170.044 330.592 176.055 323.347 C 183.083 314.875 196.366 313.955 204.308 306.378 C 211.398 299.614 213.109 288.184 220.718 282.023 C 229.601 274.830 243.032 275.715 252.640 269.503 C 261.303 263.903 265.794 252.892 274.880 247.947 C 285.251 242.303 298.592 244.858 309.520 240.234 C 319.595 235.970 326.672 225.842 337.086 222.231 C 355.751 215.760 375.889 223.990 385.122 238.235 C 402.130 264.475 370.505 282.283 370.504 282.287 C 370.504 282.307 369.070 478.473 367.900 481.037 C 364.879 481.135 113.662 481.999 113.637 481.999 Z"/>
<path fill="none" stroke="#ffffff" stroke-width="4" stroke-linejoin="round" d="M 335.683 420.037 C 338.141 416.455 337.622 411.275 340.325 407.901 M 324.848 429.694 C 327.081 425.379 332.953 424.013 335.683 420.037 M 323.296 442.461 C 324.865 438.445 322.887 433.485 324.848 429.694 M 315.071 453.795 C 316.219 449.234 321.608 446.783 323.296 442.461 M 316.790 466.885 C 317.340 462.477 314.006 458.029 315.071 453.795 M 311.663 479.692 C 312.055 475.057 316.226 471.402 316.790 466.885 M 313.607 410.899 C 316.442 406.768 315.843 400.794 318.961 396.904 M 301.113 422.035 C 303.688 417.059 310.459 415.484 313.607 410.899 M 299.323 436.758 C 301.132 432.126 298.851 426.406 301.113 422.035 M 289.839 449.828 C 291.162 444.568 297.376 441.741 299.323 436.758 M 291.820 464.924 C 292.454 459.840 288.610 454.711 289.839 449.828 M 285.908 479.692 C 286.360 474.346 291.170 470.133 291.820 464.924 M 322.293 359.521 C 327.694 355.148 335.914 355.770 341.700 351.910 M 312.318 374.328 C 316.628 370.216 317.668 363.267 322.293 359.521 M 295.142 384.644 C 299.414 379.494 307.490 378.934 312.318 374.328 M 288.995 400.711 C 292.250 395.969 291.487 389.049 295.142 384.644 M 274.651 413.497 C 277.607 407.784 285.382 405.976 288.995 400.711 M 272.596 430.400 C 274.673 425.082 272.054 418.516 274.651 413.497 M 261.707 445.405 C 263.226 439.367 270.361 436.121 272.596 430.400 M 263.982 462.737 C 264.710 456.900 260.297 451.011 261.707 445.405 M 257.195 479.692 C 257.714 473.555 263.236 468.717 263.982 462.737 M 291.835 361.442 C 296.672 356.827 297.840 349.028 303.031 344.824 M 272.558 373.020 C 277.353 367.239 286.416 366.611 291.835 361.442 M 265.660 391.052 C 269.313 385.730 268.457 377.963 272.558 373.020 M 249.561 405.401 C 252.879 398.989 261.604 396.960 265.660 391.052 M 247.255 424.371 C 249.586 418.403 246.647 411.034 249.561 405.401 M 235.034 441.212 C 236.739 434.435 244.747 430.793 247.255 424.371 M 237.588 460.663 C 238.405 454.112 233.451 447.503 235.034 441.212 M 229.970 479.692 C 230.552 472.804 236.750 467.375 237.588 460.663 M 272.839 349.491 C 278.165 344.410 279.450 335.823 285.166 331.195 M 251.613 362.239 C 256.893 355.875 266.872 355.183 272.839 349.491 M 244.018 382.093 C 248.041 376.234 247.098 367.682 251.613 362.239 M 226.293 397.893 C 229.946 390.833 239.553 388.599 244.018 382.093 M 223.754 418.780 C 226.320 412.210 223.084 404.095 226.293 397.893 M 210.297 437.323 C 212.174 429.861 220.992 425.851 223.754 418.780 M 213.109 458.740 C 214.009 451.527 208.554 444.250 210.297 437.323 M 204.722 479.692 C 205.363 472.108 212.187 466.130 213.109 458.740 M 340.482 283.774 C 348.725 280.286 354.347 271.462 363.035 269.046 M 312.141 290.085 C 320.626 285.468 331.542 287.558 340.482 283.774 M 293.944 307.722 C 301.032 303.140 304.707 294.131 312.141 290.085 M 267.827 317.965 C 275.095 312.080 286.083 312.804 293.944 307.722 M 254.401 337.892 C 260.201 332.358 261.602 323.006 267.827 317.965 M 231.285 351.775 C 237.035 344.844 247.903 344.091 254.401 337.892 M 223.013 373.398 C 227.394 367.017 226.367 357.704 231.285 351.775 M 203.708 390.606 C 207.687 382.917 218.150 380.484 223.013 373.398 M 200.943 413.354 C 203.738 406.198 200.213 397.360 203.708 390.606 M 186.288 433.548 C 188.332 425.422 197.935 421.054 200.943 413.354 M 189.350 456.873 C 190.330 449.018 184.390 441.093 186.288 433.548 M 180.216 479.692 C 180.914 471.432 188.346 464.921 189.350 456.873 M 330.314 269.476 C 339.159 265.732 345.192 256.264 354.514 253.672 M 299.904 276.247 C 309.009 271.292 320.721 273.535 330.314 269.476 M 280.379 295.171 C 287.984 290.255 291.928 280.588 299.904 276.247 M 252.356 306.162 C 260.155 299.847 271.945 300.624 280.379 295.171 M 237.950 327.543 C 244.175 321.605 245.677 311.570 252.356 306.162 M 213.147 342.439 C 219.317 335.002 230.978 334.194 237.950 327.543 M 204.272 365.641 C 208.972 358.793 207.871 348.800 213.147 342.439 M 183.558 384.104 C 187.827 375.854 199.053 373.243 204.272 365.641 M 180.591 408.512 C 183.590 400.834 179.808 391.351 183.558 384.104 M 164.866 430.181 C 167.059 421.461 177.363 416.775 180.591 408.512 M 168.152 455.208 C 169.204 446.779 162.830 438.276 164.866 430.181 M 158.351 479.692 C 159.101 470.829 167.075 463.843 168.152 455.208 M 319.352 254.061 C 328.846 250.043 335.321 239.881 345.327 237.098 M 286.714 261.329 C 296.485 256.011 309.056 258.419 319.352 254.061 M 265.757 281.641 C 273.920 276.364 278.152 265.989 286.714 261.329 M 235.679 293.438 C 244.049 286.660 256.704 287.493 265.757 281.641 M 220.217 316.386 C 226.897 310.013 228.510 299.243 235.679 293.438 M 193.595 332.375 C 200.217 324.393 212.733 323.525 220.217 316.386 M 184.069 357.277 C 189.113 349.928 187.931 339.202 193.595 332.375 M 161.836 377.095 C 166.418 368.240 178.467 365.437 184.069 357.277 M 158.651 403.293 C 161.870 395.052 157.811 384.873 161.836 377.095 M 141.773 426.550 C 144.128 417.191 155.187 412.161 158.651 403.293 M 145.300 453.413 C 146.429 444.366 139.588 435.239 141.773 426.550 M 134.781 479.692 C 135.585 470.180 144.144 462.681 145.300 453.413 M 367.900 481.037 C 364.879 481.135 113.662 481.999 113.637 481.999 C 113.638 481.996 123.644 462.362 124.801 451.802 C 125.855 442.184 118.738 432.514 121.057 423.293 C 123.556 413.360 135.293 408.022 138.969 398.611 C 142.386 389.864 138.078 379.062 142.349 370.807 C 147.212 361.410 160.001 358.436 165.945 349.775 C 171.299 341.975 170.044 330.592 176.055 323.347 C 183.083 314.875 196.366 313.955 204.308 306.378 C 211.398 299.614 213.109 288.184 220.718 282.023 C 229.601 274.830 243.032 275.715 252.640 269.503 C 261.303 263.903 265.794 252.892 274.880 247.947 C 285.251 242.303 298.592 244.858 309.520 240.234 C 319.595 235.970 326.672 225.842 337.086 222.231 C 355.751 215.760 375.889 223.990 385.122 238.235 C 402.130 264.475 370.505 282.283 370.504 282.287 C 370.504 282.307 369.070 478.473 367.900 481.037 "/>
<path fill="#ffffff" fill-rule="evenodd" stroke="#000000" stroke-width="4" stroke-linejoin="round" d="M 342.088 475.922 C 342.086 475.938 326.473 632.474 326.472 632.490 C 326.490 632.490 511.684 632.490 511.703 632.490 C 511.701 632.488 494.801 622.034 491.039 619.443 C 430.309 577.608 379.461 596.597 379.449 596.595 C 379.455 596.583 446.063 548.417 436.731 481.127 C 396.765 412.996 342.097 475.923 342.088 475.922 Z"/>
<path fill="#ffffff" fill-rule="evenodd" stroke="#000000" stroke-width="4" stroke-linejoin="round" d="M 215.767 325.261 C 211.422 330.745 231.691 476.529 231.693 476.544 C 231.694 476.533 242.170 363.713 242.171 363.702 C 242.178 363.701 309.583 355.860 309.590 355.860 C 309.591 355.864 309.991 379.099 315.182 396.179 C 322.834 421.362 342.085 449.822 342.088 449.828 C 342.075 449.828 211.628 449.828 211.615 449.828 C 211.615 449.847 211.615 642.036 211.615 642.055 C 211.616 642.053 217.443 625.488 221.751 619.506 C 281.211 536.931 267.546 507.496 267.550 507.485 C 267.560 507.488 322.865 544.531 368.182 541.159 C 408.737 538.140 441.620 528.182 440.112 484.102 C 438.806 445.969 395.813 436.597 392.631 413.016 C 389.059 386.547 412.732 357.724 412.734 357.719 C 412.743 357.716 499.093 346.991 504.446 335.107 C 510.582 321.484 448.117 241.380 450.761 241.070 C 492.172 236.230 502.945 228.024 502.950 228.023 C 502.943 228.023 437.720 228.023 437.713 228.023 C 437.714 228.031 449.116 305.212 449.117 305.220 C 449.110 305.220 379.502 307.126 379.618 306.307 C 382.770 284.095 384.794 278.756 384.795 278.753 C 384.796 278.753 394.924 270.731 394.925 270.730 C 394.921 270.726 377.502 238.528 362.995 233.858 C 353.578 230.827 337.602 231.627 331.876 239.694 C 323.737 251.159 365.362 307.138 339.346 307.422 C 261.449 308.274 218.696 321.565 215.767 325.261 Z"/>
<path fill="#ffffff" fill-rule="evenodd" stroke="#000000" stroke-width="4" stroke-linejoin="round" d="M 324.211 345.770 C 339.337 345.770 351.539 357.972 351.539 373.098 C 351.539 388.224 339.337 400.426 324.211 400.426 C 309.085 400.426 296.883 388.224 296.883 373.098 C 296.883 357.972 309.085 345.770 324.211 345.770 Z"/>
<path fill="#ffffff" fill-rule="evenodd" stroke="#000000" stroke-width="4" stroke-linejoin="round" d="M 388.905 345.770 C 404.031 345.770 416.233 357.972 416.233 373.098 C 416.233 388.224 404.031 400.426 388.905 400.426 C 373.779 400.426 361.577 388.224 361.577 373.098 C 361.577 357.972 373.780 345.770 388.905 345.770 Z"/>
<path fill="none" stroke="#000000" stroke-width="4" stroke-linejoin="round" d="M 353.805 257.328 C 353.088 258.824 352.372 260.319 351.656 261.814 M 359.967 258.584 C 359.992 260.359 360.016 262.134 360.040 263.910 M 366.516 257.167 C 367.206 258.770 367.896 260.372 368.586 261.975 M 346.174 257.138 C 347.192 256.215 349.230 254.369 349.230 254.368 C 349.230 254.369 353.804 257.328 353.805 257.328 C 353.805 257.328 359.967 258.584 359.967 258.584 C 359.968 258.584 366.515 257.167 366.516 257.167 C 366.517 257.167 372.409 254.369 372.410 254.368 C 372.410 254.369 374.268 256.645 375.197 257.783 "/>
</g>
<g id="specs_2">
<path fill="#ff00ff" fill-rule="evenodd" stroke="none" d="M 311.520 225.338 C 311.541 225.338 528.042 225.338 528.064 225.338 C 528.064 225.316 528.064 8.815 528.064 8.794 C 528.042 8.794 311.541 8.794 311.520 8.794 C 311.520 8.815 311.520 225.316 311.520 225.338 Z"/>
<path fill="#ff0000" fill-rule="evenodd" stroke="none" d="M 341.561 678.060 C 341.563 678.063 353.744 712.173 353.746 712.176 C 353.744 712.175 341.563 700.841 341.561 700.839 C 341.560 700.841 329.378 712.175 329.377 712.176 C 329.378 712.173 341.560 678.063 341.561 678.060 Z"/>
<path fill="#0000ff" fill-rule="evenodd" stroke="none" d="M 355.992 206.444 C 355.993 206.446 363.069 226.260 363.070 226.262 C 363.069 226.261 355.993 219.677 355.992 219.677 C 355.991 219.677 348.915 226.261 348.915 226.262 C 348.915 226.260 355.991 206.446 355.992 206.444 Z"/>
<path fill="#00ff00" fill-rule="evenodd" stroke="none" d="M 119.366 410.535 C 119.368 410.534 139.145 403.357 139.147 403.357 C 139.147 403.357 132.599 410.467 132.598 410.468 C 132.599 410.469 139.218 417.511 139.219 417.512 C 139.217 417.511 119.368 410.535 119.366 410.535 Z"/>
<path fill="#ffff00" fill-rule="evenodd" stroke="none" d="M 211.657 647.553 C 211.657 647.551 204.347 627.823 204.346 627.821 C 204.347 627.821 211.500 634.321 211.501 634.322 C 211.502 634.321 218.500 627.654 218.500 627.654 C 218.500 627.656 211.658 647.551 211.657 647.553 Z"/>
<path fill="#ffff00" fill-rule="evenodd" stroke="none" d="M 517.782 630.772 C 517.780 630.772 497.909 623.859 497.907 623.858 C 497.907 623.859 504.549 630.881 504.550 630.881 C 504.549 630.882 498.024 638.013 498.024 638.013 C 498.026 638.013 517.780 630.773 517.782 630.772 Z"/>
<path fill="#00ff00" fill-rule="evenodd" stroke="none" d="M 438.567 410.535 C 438.566 410.534 418.788 403.357 418.786 403.357 C 418.786 403.357 425.335 410.467 425.335 410.468 C 425.335 410.469 418.715 417.511 418.714 417.512 C 418.716 417.511 438.566 410.535 438.567 410.535 Z"/>
<path fill="#00ffff" fill-rule="evenodd" stroke="none" d="M 510.162 313.801 C 510.161 313.803 503.138 333.635 503.137 333.637 C 503.137 333.636 501.807 324.063 501.807 324.062 C 501.806 324.062 492.161 324.699 492.160 324.699 C 492.162 324.698 510.160 313.802 510.162 313.801 Z"/>
<path fill="#00ffff" fill-rule="evenodd" stroke="none" d="M 212.859 269.817 C 212.860 269.819 221.190 289.139 221.191 289.141 C 221.191 289.140 221.880 279.499 221.880 279.498 C 221.881 279.498 231.546 279.491 231.547 279.491 C 231.545 279.490 212.861 269.818 212.859 269.817 Z"/>
<path fill="#be0027" fill-rule="evenodd" stroke="none" d="M 449.699 525.232 C 449.697 525.229 434.192 492.496 434.190 492.493 C 434.190 492.494 433.591 509.123 433.591 509.125 C 433.590 509.125 416.961 509.724 416.959 509.724 C 416.963 509.725 449.696 525.231 449.699 525.232 Z"/>
</g>
</g>
</svg>
