<?xml version="1.0" encoding="utf-8"?>
<!-- Generator: Moho 12.5 build 22414 -->
<!DOCTYPE svg PUBLIC "-//W3C//DTD SVG 1.1//EN" "http://www.w3.org/Graphics/SVG/1.1/DTD/svg11.dtd">
<svg version="1.1" id="Frame_0" xmlns="http://www.w3.org/2000/svg" xmlns:xlink="http://www.w3.org/1999/xlink" width="720px" height="720px">
<g id="woman_libra">
<g id="hair">
<path fill="#000000" fill-rule="evenodd" stroke="#ffffff" stroke-width="4" stroke-linecap="round" stroke-linejoin="round" d="M 360.000 11.268 C 351.304 6.086 320.529 11.362 311.071 20.158 C 295.719 34.435 299.757 45.017 287.007 58.734 C 271.845 75.046 256.896 72.818 243.129 90.323 C 229.970 107.056 236.480 121.242 223.548 138.151 C 210.142 155.679 194.238 153.022 180.952 170.641 C 164.774 192.097 170.110 202.913 157.865 231.656 C 144.524 262.973 120.828 258.223 112.926 301.455 C 107.235 332.595 135.032 368.574 135.035 368.581 C 135.057 368.581 359.694 369.710 359.716 369.710 C 359.739 369.710 586.002 368.581 586.025 368.581 C 586.027 368.574 613.824 332.595 608.133 301.455 C 600.231 258.223 576.535 262.973 563.194 231.656 C 550.949 202.913 556.285 192.097 540.107 170.641 C 526.822 153.022 510.917 155.679 497.511 138.151 C 484.579 121.242 491.090 107.056 477.930 90.323 C 464.164 72.818 449.214 75.046 434.052 58.734 C 421.302 45.017 425.295 34.484 409.989 20.158 C 400.346 11.133 368.908 5.582 360.000 11.268 Z"/>
<path fill="none" stroke="#ffffff" stroke-width="4" stroke-linecap="round" stroke-linejoin="round" d="M 238.869 369.651 C 229.367 359.836 212.849 344.563 213.001 319.147 C 213.175 289.892 228.915 289.807 232.464 267.426 C 236.760 240.333 228.065 232.209 236.860 210.317 C 244.511 191.271 260.329 190.508 268.136 171.526 C 275.254 154.217 265.734 143.598 272.999 126.350 C 281.535 106.083 296.411 104.566 307.389 85.510 C 316.514 69.670 310.903 60.581 322.686 43.849 C 328.737 35.257 351.951 25.576 359.860 27.872 C 367.838 25.430 391.466 35.157 397.616 43.849 C 409.438 60.554 403.789 69.670 412.914 85.510 C 423.892 104.566 438.768 106.083 447.304 126.350 C 454.569 143.598 445.049 154.217 452.167 171.526 C 459.974 190.508 475.792 191.271 483.443 210.317 C 492.238 232.209 483.543 240.333 487.839 267.426 C 491.388 289.807 507.128 289.892 507.302 319.147 C 507.453 344.563 490.936 359.836 481.434 369.651 M 197.902 369.593 C 187.619 356.102 173.109 342.620 175.108 317.039 C 177.806 282.510 196.951 284.188 203.823 258.258 C 211.215 230.367 203.598 221.046 215.152 199.083 C 225.014 180.339 240.942 180.836 250.947 162.168 C 260.244 144.821 251.759 132.741 261.285 115.519 C 271.656 96.771 286.200 96.724 298.507 79.187 C 309.418 63.640 304.391 53.821 317.762 37.290 C 325.072 28.252 351.319 18.935 359.860 22.101 C 368.691 18.838 395.126 28.154 402.541 37.290 C 415.940 53.798 410.885 63.640 421.795 79.187 C 434.103 96.724 448.647 96.771 459.017 115.519 C 468.544 132.741 460.059 144.821 469.356 162.168 C 479.360 180.836 495.289 180.339 505.151 199.083 C 516.705 221.046 509.088 230.367 516.480 258.258 C 523.352 284.188 542.497 282.510 545.195 317.039 C 547.194 342.620 532.684 356.102 522.401 369.593 M 163.836 367.552 C 155.470 355.968 139.720 338.574 141.998 316.073 C 146.282 273.764 169.713 276.623 180.139 245.379 C 189.650 216.877 183.479 206.849 197.356 185.048 C 208.984 166.783 224.932 168.358 236.691 150.177 C 247.816 132.976 240.310 119.803 251.664 102.752 C 263.789 84.543 278.550 85.592 292.360 68.625 C 304.321 53.928 299.757 43.607 314.365 28.225 C 322.815 19.327 351.479 12.335 360.140 16.516 C 369.107 11.656 397.483 19.323 405.938 28.225 C 420.546 43.607 415.982 53.928 427.943 68.625 C 441.752 85.592 456.513 84.543 468.639 102.752 C 479.993 119.803 472.487 132.976 483.612 150.177 C 495.371 168.358 511.319 166.783 522.946 185.048 C 536.824 206.849 530.653 216.877 540.164 245.379 C 550.590 276.623 574.021 273.764 578.305 316.073 C 580.583 338.574 564.833 355.968 556.467 367.552 "/>
</g>
<g id="woman_top">
<path fill="#ffffff" fill-rule="evenodd" stroke="#000000" stroke-width="2" stroke-linecap="round" stroke-linejoin="round" d="M 441.484 369.501 C 441.484 369.500 439.950 363.669 439.444 360.940 C 437.561 353.317 435.359 346.464 432.518 340.229 C 426.836 327.758 419.620 317.522 414.433 306.883 C 402.498 282.409 397.588 262.961 404.424 230.408 C 407.523 215.647 414.960 199.803 414.961 199.800 C 414.966 199.808 440.763 278.681 463.946 274.867 C 480.123 272.205 494.619 253.277 503.640 232.731 C 510.401 217.333 519.230 188.152 521.861 187.815 C 523.992 187.542 537.960 188.229 539.871 187.957 C 543.535 187.435 576.830 171.694 577.146 167.928 C 577.535 163.286 546.641 169.081 546.638 169.082 C 546.634 169.081 511.074 167.976 511.069 167.977 C 511.065 167.984 502.652 186.282 468.449 238.449 C 463.528 245.955 462.729 235.250 455.065 211.096 C 449.226 192.691 441.291 180.557 437.070 163.906 C 430.723 138.867 375.271 133.586 373.824 117.806 C 373.149 110.437 371.543 96.492 374.723 94.203 C 376.018 93.271 388.078 81.253 388.395 62.862 C 388.562 53.173 382.651 31.963 359.928 32.456 C 337.106 31.849 331.270 53.168 331.435 62.862 C 331.748 81.253 343.812 93.271 345.108 94.203 C 348.287 96.492 346.681 110.437 346.006 117.806 C 344.559 133.586 289.107 138.867 282.760 163.906 C 278.539 180.557 270.604 192.691 264.765 211.096 C 257.101 235.250 256.302 245.955 251.381 238.449 C 217.179 186.282 208.765 167.984 208.761 167.977 C 208.756 167.976 173.196 168.930 173.192 168.930 C 173.189 168.930 142.545 164.412 143.156 168.954 C 143.648 172.610 175.019 186.964 179.487 187.013 C 183.121 187.053 195.819 187.317 197.969 187.815 C 204.334 189.290 209.429 217.333 216.190 232.731 C 225.212 253.277 239.707 272.205 255.884 274.867 C 279.067 278.681 304.864 199.808 304.869 199.800 C 304.870 199.803 312.307 215.647 315.406 230.408 C 322.242 262.961 317.333 282.409 305.397 306.883 C 300.210 317.522 292.994 327.758 287.312 340.229 C 284.471 346.464 282.269 353.317 280.386 360.940 C 279.881 363.669 278.346 369.500 278.346 369.501 C 278.362 369.501 441.468 369.501 441.484 369.501 Z"/>
<path fill="#ffffff" fill-rule="evenodd" stroke="#000000" stroke-width="2" stroke-linecap="round" stroke-linejoin="round" d="M 326.647 185.657 C 340.314 185.657 351.339 196.681 351.339 210.348 C 351.339 224.014 340.314 235.039 326.647 235.039 C 312.981 235.039 301.956 224.014 301.957 210.348 C 301.957 196.681 312.981 185.657 326.647 185.657 Z"/>
<path fill="#ffffff" fill-rule="evenodd" stroke="#000000" stroke-width="2" stroke-linecap="round" stroke-linejoin="round" d="M 393.753 185.657 C 380.087 185.657 369.062 196.682 369.062 210.348 C 369.062 224.014 380.087 235.039 393.753 235.039 C 407.420 235.039 418.445 224.014 418.445 210.348 C 418.444 196.681 407.419 185.657 393.753 185.657 Z"/>
<path fill="#ffffff" fill-rule="evenodd" stroke="none" d="M 314.931 171.005 C 314.939 171.005 404.025 171.005 404.034 171.005 C 404.034 171.009 404.034 210.329 404.034 210.333 C 404.025 210.333 314.939 210.333 314.931 210.333 C 314.931 210.329 314.931 171.009 314.931 171.005 Z"/>
<path fill="none" stroke="#000000" stroke-width="2" stroke-linecap="round" stroke-linejoin="round" d="M 530.501 176.099 C 535.950 173.915 541.399 171.731 546.847 169.547 M 537.546 179.725 C 545.677 175.572 553.808 171.419 561.940 167.266 M 547.023 179.901 C 555.154 175.631 563.285 171.360 571.416 167.090 "/>
<path fill="none" stroke="#000000" stroke-width="2" stroke-linecap="round" stroke-linejoin="round" d="M 187.229 176.099 C 182.327 173.915 177.425 171.731 172.523 169.547 M 181.824 179.725 C 173.693 175.572 165.562 171.419 157.431 167.265 M 172.347 179.901 C 164.216 175.631 156.085 171.360 147.954 167.090 "/>
</g>
<g id="specs_3">
<path fill="#ff00ff" fill-rule="evenodd" stroke="none" d="M 95.055 170.050 C 95.071 170.050 255.571 170.050 255.587 170.050 C 255.587 170.034 255.587 9.534 255.587 9.518 C 255.571 9.518 95.071 9.518 95.055 9.518 C 95.055 9.534 95.055 170.034 95.055 170.050 Z"/>
<path fill="#ff0000" fill-rule="evenodd" stroke="none" d="M 360.000 345.902 C 360.001 345.906 372.416 380.668 372.417 380.672 C 372.416 380.671 360.001 369.119 360.000 369.118 C 359.999 369.119 347.584 380.671 347.583 380.672 C 347.584 380.668 359.999 345.906 360.000 345.902 Z"/>
<path fill="#0000ff" fill-rule="evenodd" stroke="none" d="M 360.092 -3.778 C 360.092 -3.776 367.729 17.607 367.730 17.609 C 367.729 17.609 360.092 10.503 360.092 10.503 C 360.091 10.503 352.454 17.609 352.454 17.609 C 352.454 17.607 360.091 -3.776 360.092 -3.778 Z"/>
<path fill="#00ff00" fill-rule="evenodd" stroke="none" d="M 110.080 258.436 C 110.085 258.434 161.631 239.731 161.636 239.729 C 161.635 239.731 144.569 258.260 144.567 258.262 C 144.569 258.264 161.821 276.620 161.822 276.621 C 161.817 276.620 110.085 258.438 110.080 258.436 Z"/>
<path fill="#ffff00" fill-rule="evenodd" stroke="none" d="M 126.142 377.404 C 126.143 377.401 136.269 355.356 136.270 355.354 C 136.270 355.355 136.803 366.487 136.803 366.488 C 136.804 366.488 147.945 366.758 147.946 366.758 C 147.944 366.759 126.144 377.402 126.142 377.404 Z"/>
<path fill="#ffff00" fill-rule="evenodd" stroke="none" d="M 594.375 377.133 C 594.374 377.131 583.809 355.294 583.808 355.291 C 583.808 355.292 583.498 366.433 583.498 366.434 C 583.497 366.434 572.363 366.928 572.362 366.928 C 572.364 366.929 594.373 377.132 594.375 377.133 Z"/>
<path fill="#00ff00" fill-rule="evenodd" stroke="none" d="M 609.920 258.436 C 609.915 258.434 558.369 239.731 558.364 239.729 C 558.365 239.731 575.431 258.260 575.433 258.262 C 575.431 258.264 558.179 276.620 558.178 276.621 C 558.183 276.620 609.915 258.438 609.920 258.436 Z"/>
<path fill="#00ffff" fill-rule="evenodd" stroke="none" d="M 412.044 5.634 C 412.043 5.636 404.463 27.040 404.462 27.042 C 404.462 27.041 403.027 16.709 403.027 16.708 C 403.026 16.708 392.617 17.395 392.616 17.395 C 392.618 17.394 412.042 5.635 412.044 5.634 Z"/>
<path fill="#00ffff" fill-rule="evenodd" stroke="none" d="M 307.956 6.343 C 307.957 6.345 316.947 27.196 316.948 27.198 C 316.948 27.197 317.691 16.792 317.692 16.791 C 317.693 16.791 328.123 16.783 328.124 16.783 C 328.122 16.782 307.958 6.344 307.956 6.343 Z"/>
<path fill="#be0027" fill-rule="evenodd" stroke="none" d="M 360.000 392.333 C 360.001 392.329 372.416 357.567 372.417 357.563 C 372.416 357.564 360.001 369.116 360.000 369.117 C 359.999 369.116 347.584 357.564 347.583 357.563 C 347.584 357.567 359.999 392.329 360.000 392.333 Z"/>
<path fill="none" stroke="#ffff00" stroke-width="2" stroke-linecap="round" stroke-linejoin="round" d="M 278.193 369.226 C 332.532 369.225 441.193 369.223 441.210 369.223 "/>
<path fill="#ff00ff" fill-rule="evenodd" stroke="none" d="M 464.412 170.050 C 464.428 170.050 624.929 170.050 624.945 170.050 C 624.945 170.034 624.945 9.534 624.945 9.518 C 624.929 9.518 464.428 9.518 464.412 9.518 C 464.412 9.534 464.412 170.034 464.412 170.050 Z"/>
</g>
</g>
</svg>
