<?xml version="1.0" encoding="utf-8"?>
<!-- Generator: Moho 13.5 build 20210422 -->
<!DOCTYPE svg PUBLIC "-//W3C//DTD SVG 1.1//EN" "http://www.w3.org/Graphics/SVG/1.1/DTD/svg11.dtd">
<svg version="1.1" id="Frame_0" xmlns="http://www.w3.org/2000/svg" xmlns:xlink="http://www.w3.org/1999/xlink" width="720px" height="720px">
<g id="yoni">
<g id="yoni">
<radialGradient id="734A6FEA-CE16-44BD-8DD9-BF259C65C781_0" cx="50.00%" cy="50.00%" r="50.00%">
<stop offset="18.04%" style="stop-color:rgb(0,0,0);stop-opacity:1.00" />
<stop offset="87.84%" style="stop-color:rgb(255,255,255);stop-opacity:1.00" />
</radialGradient>
<path fill="url(#734A6FEA-CE16-44BD-8DD9-BF259C65C781_0)" fill-rule="evenodd" stroke="#000000" stroke-width="4" stroke-linecap="round" stroke-linejoin="round" d="M 360.000 638.375 C 234.913 638.375 160.455 494.050 160.455 360.000 C 160.455 225.950 234.913 81.625 360.000 81.625 C 485.087 81.625 559.545 225.950 559.545 360.000 C 559.545 494.050 485.087 638.375 360.000 638.375 Z"/>
<radialGradient id="734A6FEA-CE16-44BD-8DD9-BF259C65C781_1" cx="50.00%" cy="50.00%" r="50.00%">
<stop offset="0.00%" style="stop-color:rgb(0,0,0);stop-opacity:1.00" />
<stop offset="56.08%" style="stop-color:rgb(255,255,255);stop-opacity:1.00" />
</radialGradient>
<path fill="url(#734A6FEA-CE16-44BD-8DD9-BF259C65C781_1)" fill-rule="evenodd" stroke="#000000" stroke-width="4" stroke-linecap="round" stroke-linejoin="round" d="M 360.000 86.905 C 360.003 86.914 366.890 128.457 393.960 182.347 C 440.563 261.884 515.690 287.927 515.690 360.000 C 515.690 432.073 440.564 458.116 393.960 537.654 C 366.890 591.543 360.003 633.086 360.000 633.095 C 359.997 633.086 353.110 591.543 326.040 537.654 C 279.437 458.116 204.310 432.073 204.310 360.000 C 204.310 287.927 279.436 261.884 326.040 182.347 C 353.110 128.457 359.997 86.914 360.000 86.905 Z"/>
<path fill="#000000" fill-rule="evenodd" stroke="#000000" stroke-width="4" stroke-linecap="round" stroke-linejoin="round" d="M 360.000 86.905 C 360.001 86.914 361.792 126.076 372.695 182.347 C 392.566 258.291 418.203 298.625 418.203 360.000 C 418.203 421.375 392.566 461.709 372.695 537.654 C 361.792 593.924 360.001 633.086 360.000 633.095 C 359.999 633.086 358.208 593.924 347.305 537.654 C 327.434 461.709 301.797 421.375 301.797 360.000 C 301.797 298.625 327.434 258.291 347.305 182.347 C 358.208 126.076 359.999 86.914 360.000 86.905 Z"/>
</g>
<g id="specs_2">
<path fill="#ff00ff" fill-rule="evenodd" stroke="none" d="M 298.128 451.007 C 298.141 451.007 421.859 451.007 421.872 451.007 C 421.872 450.989 421.872 269.011 421.872 268.993 C 421.859 268.993 298.141 268.993 298.128 268.993 C 298.128 269.011 298.128 450.989 298.128 451.007 Z"/>
<path fill="#ff0000" fill-rule="evenodd" stroke="none" d="M 360.000 678.040 C 360.001 678.043 372.432 712.849 372.433 712.852 C 372.432 712.851 360.001 701.285 360.000 701.284 C 359.999 701.285 347.568 712.851 347.567 712.852 C 347.568 712.849 359.999 678.043 360.000 678.040 Z"/>
<path fill="#0000ff" fill-rule="evenodd" stroke="none" d="M 360.000 70.474 C 360.001 70.476 367.221 90.694 367.222 90.696 C 367.221 90.696 360.001 83.978 360.000 83.977 C 359.999 83.978 352.779 90.696 352.778 90.696 C 352.779 90.694 359.999 70.476 360.000 70.474 Z"/>
<path fill="#00ff00" fill-rule="evenodd" stroke="none" d="M 144.884 361.004 C 144.886 361.003 165.067 353.680 165.069 353.679 C 165.068 353.680 158.387 360.935 158.386 360.935 C 158.387 360.936 165.141 368.122 165.142 368.123 C 165.140 368.122 144.886 361.004 144.884 361.004 Z"/>
<path fill="#ffff00" fill-rule="evenodd" stroke="none" d="M 203.776 568.226 C 203.777 568.224 215.524 542.647 215.525 542.645 C 215.525 542.646 216.144 555.561 216.144 555.563 C 216.145 555.563 229.071 555.876 229.072 555.876 C 229.070 555.877 203.779 568.225 203.776 568.226 Z"/>
<path fill="#ffff00" fill-rule="evenodd" stroke="none" d="M 516.224 567.913 C 516.223 567.910 503.965 542.574 503.964 542.572 C 503.964 542.573 503.604 555.498 503.604 555.500 C 503.603 555.500 490.685 556.072 490.684 556.072 C 490.687 556.074 516.221 567.912 516.224 567.913 Z"/>
<path fill="#00ff00" fill-rule="evenodd" stroke="none" d="M 575.116 361.004 C 575.114 361.003 554.933 353.680 554.931 353.679 C 554.932 353.680 561.613 360.935 561.614 360.935 C 561.613 360.936 554.859 368.122 554.858 368.123 C 554.860 368.122 575.114 361.004 575.116 361.004 Z"/>
<path fill="#be0027" fill-rule="evenodd" stroke="none" d="M 360.000 662.886 C 360.001 662.883 372.432 628.077 372.433 628.073 C 372.432 628.074 360.001 639.640 360.000 639.641 C 359.999 639.640 347.568 628.074 347.567 628.073 C 347.568 628.077 359.999 662.883 360.000 662.886 Z"/>
<path fill="#00ffff" fill-rule="evenodd" stroke="none" d="M 203.776 152.572 C 203.777 152.575 215.524 178.152 215.525 178.154 C 215.525 178.153 216.144 165.237 216.144 165.236 C 216.145 165.236 229.071 164.923 229.072 164.923 C 229.070 164.922 203.779 152.574 203.776 152.572 Z"/>
<path fill="#00ffff" fill-rule="evenodd" stroke="none" d="M 516.224 152.886 C 516.223 152.889 503.965 178.224 503.964 178.227 C 503.964 178.226 503.604 165.300 503.604 165.299 C 503.603 165.299 490.685 164.726 490.684 164.726 C 490.687 164.725 516.221 152.887 516.224 152.886 Z"/>
</g>
</g>
</svg>
