<?xml version="1.0" encoding="utf-8"?>
<!-- Generator: Moho 12.5 build 22414 -->
<!DOCTYPE svg PUBLIC "-//W3C//DTD SVG 1.1//EN" "http://www.w3.org/Graphics/SVG/1.1/DTD/svg11.dtd">
<svg version="1.1" id="Frame_0" xmlns="http://www.w3.org/2000/svg" xmlns:xlink="http://www.w3.org/1999/xlink" width="720px" height="720px">
<g id="yoni">
<g id="yoni">
<path fill="#ffffff" fill-rule="evenodd" stroke="#000000" stroke-width="4" stroke-linecap="round" stroke-linejoin="round" d="M 360.000 638.029 C 235.069 638.029 160.703 493.883 160.703 360.000 C 160.703 226.117 235.069 81.971 360.000 81.971 C 484.931 81.971 559.297 226.117 559.297 360.000 C 559.297 493.883 484.931 638.029 360.000 638.029 Z"/>
<path fill="#ffffff" fill-rule="evenodd" stroke="#000000" stroke-width="4" stroke-linecap="round" stroke-linejoin="round" d="M 360.000 87.245 C 360.003 87.254 366.882 128.745 393.918 182.568 C 440.464 262.006 515.496 288.016 515.496 360.000 C 515.496 431.984 440.464 457.994 393.918 537.432 C 366.882 591.255 360.003 632.746 360.000 632.755 C 359.997 632.746 353.118 591.255 326.082 537.432 C 279.537 457.994 204.504 431.984 204.504 360.000 C 204.504 288.016 279.536 262.006 326.082 182.568 C 353.118 128.746 359.997 87.254 360.000 87.245 Z"/>
<path fill="#000000" fill-rule="evenodd" stroke="#000000" stroke-width="4" stroke-linecap="round" stroke-linejoin="round" d="M 360.000 87.245 C 360.001 87.254 361.789 126.367 372.680 182.568 C 392.525 258.418 418.131 298.702 418.131 360.000 C 418.131 421.298 392.525 461.582 372.680 537.432 C 361.789 593.633 360.001 632.746 360.000 632.755 C 359.999 632.746 358.211 593.633 347.320 537.432 C 327.475 461.582 301.869 421.298 301.869 360.000 C 301.869 298.702 327.475 258.418 347.320 182.568 C 358.211 126.367 359.999 87.254 360.000 87.245 Z"/>
</g>
<g id="specs_2">
<path fill="#ff00ff" fill-rule="evenodd" stroke="none" d="M 298.205 450.893 C 298.218 450.893 421.782 450.893 421.795 450.893 C 421.795 450.875 421.795 269.125 421.795 269.107 C 421.782 269.107 298.218 269.107 298.205 269.107 C 298.205 269.125 298.205 450.875 298.205 450.893 Z"/>
<path fill="#ff0000" fill-rule="evenodd" stroke="none" d="M 360.000 677.644 C 360.001 677.647 372.416 712.410 372.417 712.413 C 372.416 712.412 360.001 700.861 360.000 700.860 C 359.999 700.861 347.584 712.412 347.583 712.413 C 347.584 712.410 359.999 677.647 360.000 677.644 Z"/>
<path fill="#0000ff" fill-rule="evenodd" stroke="none" d="M 360.000 70.834 C 360.001 70.836 367.212 91.029 367.213 91.031 C 367.212 91.031 360.001 84.321 360.000 84.320 C 359.999 84.321 352.788 91.031 352.787 91.031 C 352.788 91.029 359.999 70.836 360.000 70.834 Z"/>
<path fill="#00ff00" fill-rule="evenodd" stroke="none" d="M 145.151 361.002 C 145.153 361.002 165.310 353.687 165.312 353.687 C 165.311 353.687 158.638 360.933 158.637 360.934 C 158.638 360.935 165.384 368.112 165.384 368.113 C 165.382 368.112 145.153 361.003 145.151 361.002 Z"/>
<path fill="#ffff00" fill-rule="evenodd" stroke="none" d="M 203.971 567.967 C 203.972 567.965 215.704 542.420 215.705 542.417 C 215.705 542.419 216.323 555.318 216.323 555.319 C 216.324 555.319 229.234 555.632 229.235 555.632 C 229.233 555.634 203.973 567.966 203.971 567.967 Z"/>
<path fill="#ffff00" fill-rule="evenodd" stroke="none" d="M 516.029 567.654 C 516.028 567.652 503.786 542.347 503.785 542.345 C 503.785 542.346 503.426 555.255 503.426 555.256 C 503.425 555.257 490.523 555.828 490.522 555.828 C 490.524 555.830 516.027 567.653 516.029 567.654 Z"/>
<path fill="#00ff00" fill-rule="evenodd" stroke="none" d="M 574.849 361.002 C 574.847 361.002 554.690 353.687 554.688 353.687 C 554.689 353.687 561.362 360.933 561.363 360.934 C 561.362 360.935 554.616 368.112 554.616 368.113 C 554.618 368.112 574.847 361.003 574.849 361.002 Z"/>
<path fill="#be0027" fill-rule="evenodd" stroke="none" d="M 360.000 662.509 C 360.001 662.506 372.416 627.743 372.417 627.740 C 372.416 627.741 360.001 639.292 360.000 639.293 C 359.999 639.292 347.584 627.741 347.583 627.740 C 347.584 627.743 359.999 662.506 360.000 662.509 Z"/>
<path fill="#00ffff" fill-rule="evenodd" stroke="none" d="M 203.971 152.830 C 203.972 152.833 215.704 178.378 215.705 178.380 C 215.705 178.379 216.323 165.480 216.323 165.478 C 216.324 165.478 229.234 165.166 229.235 165.165 C 229.233 165.164 203.973 152.832 203.971 152.830 Z"/>
<path fill="#00ffff" fill-rule="evenodd" stroke="none" d="M 516.029 153.144 C 516.028 153.146 503.786 178.451 503.785 178.453 C 503.785 178.452 503.426 165.543 503.426 165.541 C 503.425 165.541 490.523 164.969 490.522 164.969 C 490.524 164.968 516.027 153.145 516.029 153.144 Z"/>
</g>
</g>
</svg>
