<?xml version="1.0" encoding="utf-8"?>
<!-- Generator: Moho 13.5 build 20210422 -->
<!DOCTYPE svg PUBLIC "-//W3C//DTD SVG 1.1//EN" "http://www.w3.org/Graphics/SVG/1.1/DTD/svg11.dtd">
<svg version="1.1" id="Frame_0" xmlns="http://www.w3.org/2000/svg" xmlns:xlink="http://www.w3.org/1999/xlink" width="720px" height="720px">
<g id="BW_gradients">
<g id="hill_new">
<radialGradient id="1BF10256-5B56-4B65-A9D4-149CCA163B66_0" cx="50.00%" cy="100.93%" r="100.00%">
<stop offset="72.94%" style="stop-color:rgb(255,255,255);stop-opacity:1.00" />
<stop offset="100.00%" style="stop-color:rgb(0,0,0);stop-opacity:1.00" />
</radialGradient>
<path id="S1" fill="url(#1BF10256-5B56-4B65-A9D4-149CCA163B66_0)" fill-rule="evenodd" stroke="none" d="M 700.000 530.000 C 700.000 330.000 548.188 190.000 360.000 190.000 C 171.812 190.000 20.000 330.000 20.000 530.000 C 20.000 530.000 699.932 530.000 700.000 530.000 Z"/>
</g>
<g id="specs">
<path fill="#ff00ff" fill-rule="evenodd" stroke="none" d="M 223.420 526.594 C 223.447 526.594 496.553 526.594 496.580 526.594 C 496.580 526.567 496.580 253.462 496.580 253.434 C 496.553 253.434 223.447 253.434 223.420 253.434 C 223.420 253.462 223.420 526.567 223.420 526.594 Z"/>
<path fill="#ff0000" fill-rule="evenodd" stroke="none" d="M 360.000 540.049 C 360.001 540.053 372.416 574.815 372.417 574.819 C 372.416 574.818 360.001 563.266 360.000 563.265 C 359.999 563.266 347.584 574.818 347.583 574.819 C 347.584 574.815 359.999 540.053 360.000 540.049 Z"/>
<path fill="#0000ff" fill-rule="evenodd" stroke="none" d="M 360.000 18.197 C 360.001 18.199 367.212 38.392 367.213 38.394 C 367.212 38.394 360.001 31.684 360.000 31.683 C 359.999 31.684 352.788 38.394 352.787 38.394 C 352.788 38.392 359.999 18.199 360.000 18.197 Z"/>
<path fill="#00ff00" fill-rule="evenodd" stroke="none" d="M 18.822 361.002 C 18.824 361.002 38.981 353.687 38.983 353.687 C 38.982 353.687 32.308 360.933 32.308 360.934 C 32.308 360.935 39.055 368.112 39.055 368.113 C 39.053 368.112 18.824 361.003 18.822 361.002 Z"/>
<path fill="#ffff00" fill-rule="evenodd" stroke="none" d="M 118.004 537.395 C 118.005 537.393 126.954 517.908 126.955 517.906 C 126.955 517.907 127.426 527.747 127.426 527.748 C 127.427 527.748 137.274 527.986 137.275 527.986 C 137.273 527.987 118.006 537.394 118.004 537.395 Z"/>
<path fill="#ffff00" fill-rule="evenodd" stroke="none" d="M 601.996 537.157 C 601.995 537.155 592.657 517.853 592.656 517.851 C 592.656 517.852 592.383 527.699 592.383 527.700 C 592.382 527.700 582.540 528.136 582.539 528.136 C 582.541 528.137 601.994 537.156 601.996 537.157 Z"/>
<path fill="#00ff00" fill-rule="evenodd" stroke="none" d="M 701.178 361.002 C 701.176 361.002 681.019 353.687 681.017 353.687 C 681.018 353.687 687.692 360.933 687.692 360.934 C 687.692 360.935 680.945 368.112 680.945 368.113 C 680.947 368.112 701.176 361.003 701.178 361.002 Z"/>
<path fill="#00ffff" fill-rule="evenodd" stroke="none" d="M 601.061 118.017 C 601.060 118.019 593.902 138.231 593.901 138.233 C 593.901 138.232 592.546 128.475 592.546 128.474 C 592.545 128.474 582.716 129.123 582.715 129.123 C 582.717 129.122 601.059 118.018 601.061 118.017 Z"/>
<path fill="#00ffff" fill-rule="evenodd" stroke="none" d="M 119.051 118.687 C 119.051 118.689 127.541 138.379 127.542 138.381 C 127.542 138.380 128.244 128.554 128.244 128.553 C 128.245 128.553 138.095 128.546 138.096 128.546 C 138.094 128.545 119.052 118.688 119.051 118.687 Z"/>
<path fill="#be0027" fill-rule="evenodd" stroke="none" d="M 360.000 554.057 C 360.001 554.053 372.416 519.291 372.417 519.287 C 372.416 519.288 360.001 530.840 360.000 530.841 C 359.999 530.840 347.584 519.288 347.583 519.287 C 347.584 519.291 359.999 554.053 360.000 554.057 Z"/>
</g>
</g>
</svg>
