<?xml version="1.0" encoding="utf-8"?>
<!-- Generator: Moho 13.0.3 build 635 -->
<!DOCTYPE svg PUBLIC "-//W3C//DTD SVG 1.1//EN" "http://www.w3.org/Graphics/SVG/1.1/DTD/svg11.dtd">
<svg version="1.1" id="Frame_0" xmlns="http://www.w3.org/2000/svg" xmlns:xlink="http://www.w3.org/1999/xlink" width="1280px" height="720px">
<g id="mountain_3">
<path fill="#89a8a5" fill-rule="evenodd" stroke="none" d="M 840.668 88.230 C 840.695 88.252 1109.610 316.905 1109.637 316.927 C 1109.583 316.927 571.753 316.927 571.699 316.927 C 571.726 316.905 840.641 88.252 840.668 88.230 Z"/>
<path fill="#ffffff" fill-rule="evenodd" stroke="none" d="M 736.785 176.561 C 736.795 176.552 840.658 88.240 840.668 88.231 C 840.678 88.240 944.541 176.552 944.551 176.561 C 944.547 176.560 902.822 163.594 902.817 163.593 C 902.817 163.596 900.734 191.856 900.733 191.859 C 900.730 191.856 865.403 167.382 865.399 167.379 C 865.397 167.382 840.671 196.748 840.668 196.751 C 840.665 196.748 812.924 168.490 812.921 168.487 C 812.918 168.489 781.881 192.964 781.878 192.966 C 781.877 192.964 773.420 165.258 773.420 165.255 C 773.416 165.256 736.788 176.560 736.785 176.561 Z"/>
</g>
<g id="trees_and_hills">
</g>
</svg>
