<?xml version="1.0" encoding="utf-8"?>
<!-- Generator: Moho 13.5 build 20210422 -->
<!DOCTYPE svg PUBLIC "-//W3C//DTD SVG 1.1//EN" "http://www.w3.org/Graphics/SVG/1.1/DTD/svg11.dtd">
<svg version="1.1" id="Frame_0" xmlns="http://www.w3.org/2000/svg" xmlns:xlink="http://www.w3.org/1999/xlink" width="720px" height="720px">
<g id="old">
</g>
<g id="tree2">
<radialGradient id="832DE945-0EE8-41A1-AB69-971418EC9CB3_0" cx="49.99%" cy="71.26%" r="55.07%">
<stop offset="21.57%" style="stop-color:rgb(77,102,72);stop-opacity:1.00" />
<stop offset="100.00%" style="stop-color:rgb(156,203,100);stop-opacity:1.00" />
</radialGradient>
<path id="S1" fill="url(#832DE945-0EE8-41A1-AB69-971418EC9CB3_0)" fill-rule="evenodd" stroke="none" d="M 360.000 546.962 C 504.834 546.962 621.672 430.124 621.672 285.291 C 621.672 140.457 504.834 23.619 360.000 23.619 C 215.166 23.619 98.328 140.457 98.328 285.291 C 98.328 430.124 215.166 546.962 360.000 546.962 Z"/>
<path id="S2" fill="#745b33" fill-rule="evenodd" stroke="none" d="M 341.133 417.525 C 342.938 357.054 344.744 296.582 346.550 236.111 C 301.966 214.996 212.449 174.142 212.798 172.767 C 213.126 171.475 347.195 211.929 347.208 211.933 C 347.209 211.916 357.989 40.000 360.000 40.000 C 362.046 40.000 368.528 154.622 372.792 211.933 C 372.805 211.929 506.873 171.475 507.202 172.766 C 507.552 174.141 418.108 214.898 373.561 235.963 C 375.482 296.290 377.403 356.617 379.324 416.944 C 379.344 416.937 570.739 343.403 571.381 345.240 C 572.074 347.221 380.050 453.250 380.031 453.261 C 380.031 453.285 383.318 699.975 383.318 700.000 C 383.313 700.000 336.687 700.000 336.682 700.000 C 336.682 699.975 339.270 536.055 340.564 454.083 C 276.582 417.802 147.922 347.223 148.619 345.240 C 149.272 343.382 341.114 417.518 341.133 417.525 Z"/>
</g>
</svg>
