<?xml version="1.0" encoding="utf-8"?>
<!-- Generator: Moho 13.0.3 build 635 -->
<!DOCTYPE svg PUBLIC "-//W3C//DTD SVG 1.1//EN" "http://www.w3.org/Graphics/SVG/1.1/DTD/svg11.dtd">
<svg version="1.1" id="Frame_0" xmlns="http://www.w3.org/2000/svg" xmlns:xlink="http://www.w3.org/1999/xlink" width="1280px" height="720px">
<g id="trees_and_hills">
<g id="tree2">
<radialGradient id="B100B14A-796D-40ED-A648-D6EFCCCCCA94_0" cx="49.89%" cy="49.27%" r="50.25%">
<stop offset="42.35%" style="stop-color:rgb(98,126,67);stop-opacity:1.00" />
<stop offset="100.00%" style="stop-color:rgb(144,177,86);stop-opacity:1.00" />
</radialGradient>
<path fill="url(#B100B14A-796D-40ED-A648-D6EFCCCCCA94_0)" fill-rule="evenodd" stroke="none" d="M 633.731 150.722 C 689.331 150.722 749.768 221.843 729.207 309.571 C 715.935 366.197 667.112 381.651 633.731 381.651 C 600.349 381.651 551.526 366.197 538.254 309.571 C 517.693 221.843 578.131 150.722 633.731 150.722 Z"/>
<path fill="#756140" d="M 554.585 296.122 C 581.251 311.851 637.675 338.048 637.695 338.060 L 630.051 350.966 C 630.055 350.969 579.829 314.263 553.162 298.534 L 554.585 296.122 Z"/>
<path fill="#756140" d="M 630.073 338.047 C 630.066 338.051 686.399 311.851 713.018 296.123 L 714.443 298.534 C 687.824 314.262 637.696 350.966 637.674 350.979 L 630.073 338.047 Z"/>
<path fill="none" stroke="#756140" stroke-width="1" stroke-linecap="butt" stroke-linejoin="round" d="M 630.073 338.047 L 637.674 350.979 "/>
<path fill="#756140" d="M 574.752 236.238 C 594.752 252.368 637.571 281.119 637.599 281.141 L 630.147 290.291 C 630.163 290.304 592.994 254.547 572.994 238.418 L 574.752 236.238 Z"/>
<path fill="none" stroke="#756140" stroke-width="1" stroke-linecap="butt" stroke-linejoin="round" d="M 574.752 236.238 L 572.994 238.418 "/>
<path fill="#756140" d="M 630.193 281.104 C 630.170 281.123 672.898 252.369 692.851 236.239 L 694.611 238.417 C 674.658 254.546 637.588 290.300 637.553 290.328 L 630.193 281.104 Z"/>
<path fill="none" stroke="#756140" stroke-width="1" stroke-linecap="butt" stroke-linejoin="round" d="M 630.193 281.104 L 637.553 290.328 "/>
<path fill="#756140" d="M 674.464 198.521 C 661.130 206.718 636.353 226.177 636.351 226.178 L 631.110 217.661 C 631.116 217.658 659.664 204.333 672.997 196.136 L 674.464 198.521 Z"/>
<path fill="none" stroke="#756140" stroke-width="1" stroke-linecap="butt" stroke-linejoin="round" d="M 674.464 198.521 L 672.997 196.136 "/>
<path fill="#756140" d="M 631.110 226.178 C 631.101 226.172 606.424 206.717 593.138 198.520 L 594.608 196.137 C 607.894 204.334 636.352 217.662 636.351 217.661 L 631.110 226.178 Z"/>
<path fill="none" stroke="#756140" stroke-width="1" stroke-linecap="butt" stroke-linejoin="round" d="M 631.110 226.178 L 636.351 217.661 "/>
<path fill="#756140" d="M 635.031 177.328 C 635.031 192.192 638.731 221.915 638.731 221.919 L 628.731 221.919 C 628.731 221.915 632.431 192.192 632.431 177.328 L 635.031 177.328 Z"/>
<path fill="none" stroke="#756140" stroke-width="1" stroke-linecap="butt" stroke-linejoin="round" d="M 635.031 177.328 L 632.431 177.328 "/>
<path fill="#756140" d="M 638.731 221.919 C 638.731 221.915 639.773 285.697 639.773 285.716 L 627.973 285.716 C 627.973 285.723 628.731 221.937 628.731 221.919 L 638.731 221.919 Z"/>
<path fill="none" stroke="#756140" stroke-width="1" stroke-linecap="butt" stroke-linejoin="round" d="M 638.731 221.919 L 628.731 221.919 "/>
<path fill="#756140" d="M 639.773 285.716 C 639.773 285.722 641.373 344.507 641.373 344.513 L 626.373 344.513 C 626.373 344.507 627.973 285.722 627.973 285.716 L 639.773 285.716 Z"/>
<path fill="none" stroke="#756140" stroke-width="1" stroke-linecap="butt" stroke-linejoin="round" d="M 639.773 285.716 L 627.973 285.716 "/>
<path fill="#756140" d="M 641.373 344.513 C 641.373 344.534 643.478 406.468 643.431 437.437 L 624.031 437.408 C 624.078 406.438 626.373 344.511 626.373 344.513 L 641.373 344.513 Z"/>
<path fill="none" stroke="#756140" stroke-width="1" stroke-linecap="butt" stroke-linejoin="round" d="M 641.373 344.513 L 626.373 344.513 "/>
</g>
</g>
</svg>
