<?xml version="1.0" encoding="utf-8"?>
<!-- Generator: Moho 13.5 build 20210422 -->
<!DOCTYPE svg PUBLIC "-//W3C//DTD SVG 1.1//EN" "http://www.w3.org/Graphics/SVG/1.1/DTD/svg11.dtd">
<svg version="1.1" id="Frame_0" xmlns="http://www.w3.org/2000/svg" xmlns:xlink="http://www.w3.org/1999/xlink" width="720px" height="720px">
<g id="old">
</g>
<g id="gradients">
</g>
<g id="black_and_white">
<g id="tree1">
<path id="S1" fill="#ffffff" fill-rule="evenodd" stroke="#000000" stroke-width="4" stroke-linecap="round" stroke-linejoin="round" d="M 360.000 9.479 C 360.022 9.523 639.277 216.190 579.984 446.590 C 545.544 580.416 439.312 626.576 360.000 626.576 C 280.688 626.576 174.456 580.416 140.016 446.590 C 80.723 216.190 359.978 9.523 360.000 9.479 Z"/>
<path id="S2" fill="#000000" fill-rule="evenodd" stroke="none" d="M 343.817 530.987 C 345.366 464.010 346.915 397.033 348.463 330.056 C 303.242 281.968 211.489 187.166 212.798 185.791 C 213.978 184.552 349.015 303.092 349.028 303.103 C 349.029 303.077 356.928 40.000 360.000 40.000 C 363.125 40.000 367.314 215.402 370.972 303.103 C 370.985 303.092 506.021 184.552 507.202 185.791 C 508.513 187.165 416.822 281.902 371.632 329.957 C 373.279 396.842 374.927 463.727 376.575 530.611 C 376.594 530.594 569.667 356.489 571.381 358.264 C 573.262 360.212 377.200 564.739 377.181 564.759 C 377.181 564.773 380.000 699.986 380.000 700.000 C 379.996 700.000 340.004 700.000 340.000 700.000 C 340.000 699.986 342.219 610.194 343.329 565.292 C 278.426 496.282 146.739 360.213 148.619 358.264 C 150.352 356.467 343.798 530.970 343.817 530.987 Z"/>
</g>
</g>
</svg>
