<?xml version="1.0" encoding="utf-8"?>
<!-- Generator: Moho 13.5 build 20210422 -->
<!DOCTYPE svg PUBLIC "-//W3C//DTD SVG 1.1//EN" "http://www.w3.org/Graphics/SVG/1.1/DTD/svg11.dtd">
<svg version="1.1" id="Frame_0" xmlns="http://www.w3.org/2000/svg" xmlns:xlink="http://www.w3.org/1999/xlink" width="720px" height="720px">
<g id="old">
</g>
<g id="gradients">
</g>
<g id="black_and_white">
<g id="tree4">
<path id="S1" fill="#000000" fill-rule="evenodd" stroke="none" d="M 341.764 570.226 C 341.767 570.226 378.233 570.226 378.236 570.226 C 378.236 570.237 378.236 683.405 378.236 683.416 C 378.233 683.416 341.767 683.416 341.764 683.416 C 341.764 683.405 341.764 570.237 341.764 570.226 Z"/>
<path id="S2" fill="#ffffff" fill-rule="evenodd" stroke="#000000" stroke-width="4" stroke-linecap="round" stroke-linejoin="round" d="M 360.000 36.584 C 360.004 36.593 400.495 129.642 400.499 129.651 C 400.497 129.651 383.186 124.454 383.184 124.454 C 383.189 124.464 430.140 230.254 430.145 230.265 C 430.142 230.264 407.433 224.632 407.430 224.632 C 407.437 224.645 476.901 358.533 476.908 358.547 C 476.904 358.546 442.488 346.631 442.485 346.630 C 442.493 346.645 523.663 499.391 523.671 499.406 C 523.666 499.405 480.648 489.179 480.644 489.178 C 480.652 489.195 557.319 659.658 557.326 659.675 C 557.307 659.670 360.020 605.055 360.000 605.050 C 359.980 605.055 162.693 659.670 162.674 659.675 C 162.681 659.658 239.348 489.195 239.356 489.178 C 239.352 489.179 196.334 499.405 196.329 499.406 C 196.337 499.391 277.507 346.645 277.515 346.630 C 277.512 346.631 243.096 358.546 243.093 358.547 C 243.099 358.533 312.563 224.645 312.570 224.632 C 312.567 224.632 289.858 230.264 289.855 230.265 C 289.860 230.254 336.811 124.464 336.816 124.454 C 336.814 124.454 319.503 129.651 319.501 129.651 C 319.505 129.642 359.996 36.593 360.000 36.584 Z"/>
</g>
</g>
</svg>
