<?xml version="1.0" encoding="utf-8"?>
<!-- Generator: Moho 13.5 build 20210422 -->
<!DOCTYPE svg PUBLIC "-//W3C//DTD SVG 1.1//EN" "http://www.w3.org/Graphics/SVG/1.1/DTD/svg11.dtd">
<svg version="1.1" id="Frame_0" xmlns="http://www.w3.org/2000/svg" xmlns:xlink="http://www.w3.org/1999/xlink" width="720px" height="720px">
<g id="BW_gradients">
<g id="tree1">
<radialGradient id="96CD3641-8761-4EDA-BBC7-B375063AFA62_0" cx="49.97%" cy="76.69%" r="68.79%">
<stop offset="0.00%" style="stop-color:rgb(0,0,0);stop-opacity:1.00" />
<stop offset="100.00%" style="stop-color:rgb(255,255,255);stop-opacity:1.00" />
</radialGradient>
<path id="S1" fill="url(#96CD3641-8761-4EDA-BBC7-B375063AFA62_0)" fill-rule="evenodd" stroke="none" d="M 360.000 9.479 C 360.022 9.523 639.277 216.190 579.984 446.590 C 545.544 580.416 439.312 626.576 360.000 626.576 C 280.688 626.576 174.456 580.416 140.016 446.590 C 80.723 216.190 359.978 9.523 360.000 9.479 Z"/>
<path id="S2" fill="#000000" fill-rule="evenodd" stroke="none" d="M 343.817 530.987 C 345.366 464.010 346.915 397.033 348.463 330.056 C 303.242 281.968 211.489 187.166 212.798 185.791 C 213.978 184.552 349.015 303.092 349.028 303.103 C 349.029 303.077 356.928 40.000 360.000 40.000 C 363.125 40.000 367.314 215.402 370.972 303.103 C 370.985 303.092 506.021 184.552 507.202 185.791 C 508.513 187.165 416.822 281.902 371.632 329.957 C 373.279 396.842 374.927 463.727 376.575 530.611 C 376.594 530.594 569.667 356.489 571.381 358.264 C 573.262 360.212 377.200 564.739 377.181 564.759 C 377.181 564.773 380.000 699.986 380.000 700.000 C 379.996 700.000 340.004 700.000 340.000 700.000 C 340.000 699.986 342.219 610.194 343.329 565.292 C 278.426 496.282 146.739 360.213 148.619 358.264 C 150.352 356.467 343.798 530.970 343.817 530.987 Z"/>
</g>
<g id="specs">
<path fill="#ff00ff" fill-rule="evenodd" stroke="none" d="M 223.420 496.580 C 223.447 496.580 496.553 496.580 496.580 496.580 C 496.580 496.553 496.580 223.447 496.580 223.420 C 496.553 223.420 223.447 223.420 223.420 223.420 C 223.420 223.447 223.420 496.553 223.420 496.580 Z"/>
<path fill="#ff0000" fill-rule="evenodd" stroke="none" d="M 360.000 677.423 C 360.001 677.427 372.416 712.189 372.417 712.193 C 372.416 712.192 360.001 700.640 360.000 700.639 C 359.999 700.640 347.584 712.192 347.583 712.193 C 347.584 712.189 359.999 677.427 360.000 677.423 Z"/>
<path fill="#0000ff" fill-rule="evenodd" stroke="none" d="M 360.000 18.197 C 360.001 18.199 367.212 38.392 367.213 38.394 C 367.212 38.394 360.001 31.684 360.000 31.683 C 359.999 31.684 352.788 38.394 352.787 38.394 C 352.788 38.392 359.999 18.199 360.000 18.197 Z"/>
<path fill="#00ff00" fill-rule="evenodd" stroke="none" d="M 18.822 361.002 C 18.824 361.002 38.981 353.687 38.983 353.687 C 38.982 353.687 32.308 360.933 32.308 360.934 C 32.308 360.935 39.055 368.112 39.055 368.113 C 39.053 368.112 18.824 361.003 18.822 361.002 Z"/>
<path fill="#ffff00" fill-rule="evenodd" stroke="none" d="M 118.004 603.196 C 118.005 603.194 126.954 583.709 126.955 583.707 C 126.955 583.708 127.426 593.548 127.426 593.549 C 127.427 593.549 137.274 593.787 137.275 593.787 C 137.273 593.788 118.006 603.195 118.004 603.196 Z"/>
<path fill="#ffff00" fill-rule="evenodd" stroke="none" d="M 601.996 602.958 C 601.995 602.956 592.657 583.654 592.656 583.652 C 592.656 583.653 592.383 593.500 592.383 593.501 C 592.382 593.501 582.540 593.937 582.539 593.937 C 582.541 593.938 601.994 602.957 601.996 602.958 Z"/>
<path fill="#00ff00" fill-rule="evenodd" stroke="none" d="M 701.178 361.002 C 701.176 361.002 681.019 353.687 681.017 353.687 C 681.018 353.687 687.692 360.933 687.692 360.934 C 687.692 360.935 680.945 368.112 680.945 368.113 C 680.947 368.112 701.176 361.003 701.178 361.002 Z"/>
<path fill="#00ffff" fill-rule="evenodd" stroke="none" d="M 601.061 118.017 C 601.060 118.019 593.902 138.231 593.901 138.233 C 593.901 138.232 592.546 128.475 592.546 128.474 C 592.545 128.474 582.716 129.123 582.715 129.123 C 582.717 129.122 601.059 118.018 601.061 118.017 Z"/>
<path fill="#00ffff" fill-rule="evenodd" stroke="none" d="M 119.051 118.687 C 119.051 118.689 127.541 138.379 127.542 138.381 C 127.542 138.380 128.244 128.554 128.244 128.553 C 128.245 128.553 138.095 128.546 138.096 128.546 C 138.094 128.545 119.052 118.688 119.051 118.687 Z"/>
<path fill="#be0027" fill-rule="evenodd" stroke="none" d="M 360.000 691.430 C 360.001 691.427 372.416 656.664 372.417 656.661 C 372.416 656.662 360.001 668.214 360.000 668.215 C 359.999 668.214 347.584 656.662 347.583 656.661 C 347.584 656.664 359.999 691.427 360.000 691.430 Z"/>
</g>
</g>
</svg>
