<?xml version="1.0" encoding="utf-8"?>
<!-- Generator: Moho 13.5 build 20210422 -->
<!DOCTYPE svg PUBLIC "-//W3C//DTD SVG 1.1//EN" "http://www.w3.org/Graphics/SVG/1.1/DTD/svg11.dtd">
<svg version="1.1" id="Frame_0" xmlns="http://www.w3.org/2000/svg" xmlns:xlink="http://www.w3.org/1999/xlink" width="720px" height="720px">
<g id="old">
</g>
<g id="tree3">
<radialGradient id="BFC68F4F-56EB-4794-8215-0415F0121AAE_0" cx="50.21%" cy="54.28%" r="50.00%">
<stop offset="37.65%" style="stop-color:rgb(150,186,86);stop-opacity:1.00" />
<stop offset="90.98%" style="stop-color:rgb(74,96,51);stop-opacity:1.00" />
</radialGradient>
<path fill="url(#BFC68F4F-56EB-4794-8215-0415F0121AAE_0)" fill-rule="evenodd" stroke="none" d="M 360.000 9.479 C 360.022 9.523 639.277 216.190 579.984 446.590 C 545.544 580.416 439.312 626.576 360.000 626.576 C 280.688 626.576 174.456 580.416 140.016 446.590 C 80.723 216.190 359.978 9.523 360.000 9.479 Z"/>
<path id="S2" fill="#695637" fill-rule="evenodd" stroke="none" d="M 350.865 219.383 C 350.866 219.365 357.905 40.000 360.000 40.000 C 362.131 40.000 366.090 159.588 369.135 219.383 C 369.145 219.375 470.522 145.994 471.249 146.939 C 472.063 147.995 403.539 210.179 369.684 241.799 C 371.056 284.509 372.428 327.219 373.800 369.928 C 428.040 336.981 535.566 269.550 536.520 271.085 C 537.565 272.768 374.321 400.312 374.305 400.325 C 374.305 400.337 376.702 524.261 376.702 524.274 C 376.720 524.266 555.433 440.611 556.195 442.322 C 557.022 444.181 377.312 557.836 377.339 558.230 C 375.004 600.704 380.000 699.986 380.000 700.000 C 379.996 700.000 340.004 700.000 340.000 700.000 C 340.000 699.986 342.868 557.984 342.868 557.970 C 283.180 519.420 162.974 444.180 163.805 442.321 C 164.573 440.606 343.505 525.524 343.523 525.533 C 343.523 525.520 345.255 442.376 346.120 400.798 C 290.230 357.561 177.416 272.820 178.450 271.085 C 179.406 269.480 346.510 370.253 346.527 370.263 C 347.816 327.469 349.105 284.675 350.395 241.881 C 316.514 210.234 247.938 147.996 248.751 146.939 C 249.477 145.994 350.855 219.375 350.865 219.383 Z"/>
</g>
</svg>
