<?xml version="1.0" encoding="utf-8"?>
<!-- Generator: Moho 12.5 build 22414 -->
<!DOCTYPE svg PUBLIC "-//W3C//DTD SVG 1.1//EN" "http://www.w3.org/Graphics/SVG/1.1/DTD/svg11.dtd">
<svg version="1.1" id="Frame_0" xmlns="http://www.w3.org/2000/svg" xmlns:xlink="http://www.w3.org/1999/xlink" width="720px" height="720px">
<g id="chair">
<g id="chair_2">
<path fill="#ffffff" fill-rule="evenodd" stroke="#000000" stroke-width="4" stroke-linecap="round" stroke-linejoin="round" d="M 418.083 419.119 C 418.083 419.130 418.083 529.135 418.083 529.146 C 418.080 529.147 388.463 536.762 388.460 536.763 C 388.457 536.762 362.225 526.608 362.223 526.607 C 362.223 526.598 362.223 435.209 362.223 435.199 C 362.219 435.200 326.137 445.125 326.133 445.126 C 326.133 445.148 326.133 667.697 326.133 667.719 C 326.131 667.721 297.360 679.567 297.357 679.568 C 297.354 679.566 264.352 657.565 264.349 657.563 C 264.349 657.541 265.195 442.608 265.195 442.587 C 265.188 442.583 189.030 403.658 189.023 403.654 C 189.023 403.674 189.023 600.837 189.023 600.857 C 189.020 600.858 161.095 610.552 161.092 610.553 C 161.089 610.551 130.627 594.087 130.623 594.086 C 130.623 594.059 130.623 327.508 130.623 327.481 C 130.647 327.476 361.888 276.474 361.911 276.469 C 361.914 276.443 390.454 18.584 390.457 18.559 C 390.460 18.558 423.462 8.403 423.465 8.402 C 423.482 8.407 588.490 61.718 588.506 61.723 C 588.503 61.752 556.348 351.997 556.344 352.026 C 556.344 352.052 556.344 616.065 556.344 616.091 C 556.341 616.092 526.724 623.708 526.721 623.708 C 526.719 623.707 497.948 605.936 497.945 605.935 C 497.945 605.914 497.945 395.190 497.945 395.190 C 497.945 395.190 418.091 419.116 418.083 419.119 Z"/>
<path fill="none" stroke="#000000" stroke-width="1" stroke-linecap="butt" stroke-linejoin="round" d="M 361.911 276.469 C 361.914 276.443 390.454 18.584 390.457 18.559 "/>
<path fill="#000000" fill-rule="evenodd" stroke="#000000" stroke-width="4" stroke-linecap="round" stroke-linejoin="round" d="M 525.886 350.368 C 525.870 350.361 361.927 276.476 361.911 276.469 C 361.914 276.443 390.454 18.584 390.457 18.559 C 446.281 37.758 557.912 76.152 557.928 76.158 C 557.925 76.185 525.889 350.341 525.886 350.368 Z"/>
<path fill="none" stroke="#000000" stroke-width="1" stroke-linecap="butt" stroke-linejoin="round" d="M 130.623 327.481 C 130.623 327.508 130.623 594.059 130.623 594.086 "/>
<path fill="none" stroke="#000000" stroke-width="1" stroke-linecap="butt" stroke-linejoin="round" d="M 130.623 594.086 C 130.627 594.087 161.089 610.551 161.092 610.553 "/>
<path fill="none" stroke="#000000" stroke-width="1" stroke-linecap="butt" stroke-linejoin="round" d="M 189.023 403.654 C 189.030 403.658 265.188 442.583 265.195 442.587 "/>
<path fill="none" stroke="#000000" stroke-width="1" stroke-linecap="butt" stroke-linejoin="round" d="M 265.195 442.587 C 265.195 442.608 264.349 657.541 264.349 657.563 "/>
<path fill="none" stroke="#000000" stroke-width="1" stroke-linecap="butt" stroke-linejoin="round" d="M 264.349 657.563 C 264.352 657.565 297.354 679.566 297.357 679.568 "/>
<path fill="#000000" fill-rule="evenodd" stroke="#000000" stroke-width="4" stroke-linecap="round" stroke-linejoin="round" d="M 297.357 407.886 C 297.340 407.878 130.640 327.489 130.623 327.481 C 130.623 327.508 130.623 594.059 130.623 594.086 C 130.627 594.087 161.089 610.551 161.092 610.553 C 161.092 536.508 161.092 388.442 161.092 388.419 C 161.095 388.421 179.712 398.576 189.023 403.654 C 189.030 403.658 265.188 442.583 265.195 442.587 C 265.195 442.608 264.349 657.541 264.349 657.563 C 264.352 657.565 297.354 679.566 297.357 679.568 C 297.357 589.007 297.357 407.913 297.357 407.886 Z"/>
<path fill="none" stroke="#000000" stroke-width="1" stroke-linecap="butt" stroke-linejoin="round" d="M 388.460 536.763 C 388.457 536.762 362.225 526.608 362.223 526.607 "/>
<path fill="none" stroke="#000000" stroke-width="1" stroke-linecap="butt" stroke-linejoin="round" d="M 362.223 526.607 C 362.223 526.598 362.223 435.209 362.223 435.199 "/>
<path fill="#000000" fill-rule="evenodd" stroke="#000000" stroke-width="4" stroke-linecap="round" stroke-linejoin="round" d="M 387.856 428.010 C 387.856 428.021 388.259 500.512 388.460 536.763 C 388.457 536.762 362.225 526.608 362.223 526.607 C 362.223 526.598 362.223 435.209 362.223 435.199 C 370.767 432.803 387.854 428.011 387.856 428.010 Z"/>
<path fill="none" stroke="#000000" stroke-width="1" stroke-linecap="butt" stroke-linejoin="round" d="M 497.945 395.190 C 497.945 395.190 497.945 605.914 497.945 605.935 "/>
<path fill="none" stroke="#000000" stroke-width="1" stroke-linecap="butt" stroke-linejoin="round" d="M 497.945 605.935 C 497.948 605.936 526.719 623.707 526.721 623.708 "/>
<path fill="#000000" fill-rule="evenodd" stroke="#000000" stroke-width="4" stroke-linecap="round" stroke-linejoin="round" d="M 527.123 386.156 C 517.397 389.167 497.948 395.189 497.945 395.190 C 497.945 395.190 497.945 605.914 497.945 605.935 C 497.948 605.936 526.719 623.707 526.721 623.708 C 526.722 623.685 527.123 386.179 527.123 386.156 Z"/>
<path fill="none" stroke="#000000" stroke-width="4" stroke-linecap="round" stroke-linejoin="round" d="M 387.856 428.010 C 397.932 425.046 408.007 422.082 418.083 419.119 M 297.357 407.886 C 373.533 388.713 449.710 369.541 525.886 350.368 "/>
</g>
<g id="specs">
<path fill="#ff00ff" fill-rule="evenodd" stroke="none" d="M 183.870 352.282 C 183.901 352.282 493.605 352.282 493.636 352.282 C 493.636 352.251 493.636 42.547 493.636 42.516 C 493.605 42.516 183.901 42.516 183.870 42.516 C 183.870 42.547 183.870 352.251 183.870 352.282 Z"/>
<path fill="#ff0000" fill-rule="evenodd" stroke="none" d="M 298.192 675.628 C 298.193 675.631 310.375 709.742 310.377 709.746 C 310.375 709.745 298.193 698.409 298.192 698.408 C 298.190 698.409 286.008 709.745 286.007 709.746 C 286.008 709.742 298.190 675.631 298.192 675.628 Z"/>
<path fill="#0000ff" fill-rule="evenodd" stroke="none" d="M 497.137 20.384 C 497.138 20.386 504.215 40.201 504.215 40.203 C 504.215 40.202 497.138 33.618 497.137 33.617 C 497.137 33.618 490.060 40.202 490.060 40.203 C 490.060 40.201 497.137 20.386 497.137 20.384 Z"/>
<path fill="#00ff00" fill-rule="evenodd" stroke="none" d="M 117.474 343.247 C 117.476 343.246 137.255 336.069 137.257 336.069 C 137.256 336.069 130.708 343.179 130.707 343.180 C 130.708 343.181 137.328 350.224 137.328 350.225 C 137.326 350.224 117.476 343.248 117.474 343.247 Z"/>
<path fill="#ffff00" fill-rule="evenodd" stroke="none" d="M 128.016 600.219 C 128.017 600.217 136.799 581.097 136.799 581.096 C 136.799 581.096 137.262 590.752 137.262 590.753 C 137.263 590.753 146.926 590.987 146.927 590.987 C 146.925 590.988 128.018 600.218 128.016 600.219 Z"/>
<path fill="#ffff00" fill-rule="evenodd" stroke="none" d="M 559.482 624.129 C 559.481 624.127 550.317 605.187 550.316 605.185 C 550.316 605.186 550.048 614.848 550.048 614.849 C 550.047 614.849 540.390 615.277 540.389 615.278 C 540.391 615.278 559.480 624.128 559.482 624.129 Z"/>
<path fill="#00ff00" fill-rule="evenodd" stroke="none" d="M 570.715 343.247 C 570.713 343.246 550.935 336.069 550.932 336.069 C 550.933 336.069 557.482 343.179 557.482 343.180 C 557.482 343.181 550.862 350.224 550.861 350.225 C 550.863 350.224 570.713 343.248 570.715 343.247 Z"/>
<path fill="#00ffff" fill-rule="evenodd" stroke="none" d="M 588.818 62.320 C 588.818 62.322 581.794 82.155 581.793 82.157 C 581.793 82.156 580.463 72.582 580.463 72.581 C 580.462 72.581 570.817 73.218 570.816 73.218 C 570.818 73.217 588.817 62.321 588.818 62.320 Z"/>
<path fill="#00ffff" fill-rule="evenodd" stroke="none" d="M 423.574 11.232 C 423.573 11.235 420.593 32.063 420.593 32.065 C 420.593 32.064 426.214 24.200 426.214 24.199 C 426.215 24.200 434.463 29.239 434.464 29.240 C 434.463 29.238 423.575 11.234 423.574 11.232 Z"/>
<path fill="#be0027" fill-rule="evenodd" stroke="none" d="M 562.893 378.233 C 562.892 378.230 551.611 354.414 551.609 354.411 C 551.609 354.413 551.173 366.512 551.173 366.513 C 551.172 366.513 539.073 366.949 539.072 366.949 C 539.074 366.950 562.891 378.232 562.893 378.233 Z"/>
</g>
</g>
</svg>
