<?xml version="1.0" encoding="utf-8"?>
<!-- Generator: Moho 12.5 build 22414 -->
<!DOCTYPE svg PUBLIC "-//W3C//DTD SVG 1.1//EN" "http://www.w3.org/Graphics/SVG/1.1/DTD/svg11.dtd">
<svg version="1.1" id="Frame_0" xmlns="http://www.w3.org/2000/svg" xmlns:xlink="http://www.w3.org/1999/xlink" width="720px" height="720px">
<g id="cone">
<g id="cone">
<path fill="#ffffff" fill-rule="evenodd" stroke="#000000" stroke-width="2" stroke-linecap="round" stroke-linejoin="round" d="M 360.000 680.047 C 360.015 680.010 509.598 309.768 509.613 309.731 C 509.613 316.623 467.270 334.132 360.000 334.132 C 252.730 334.132 210.387 317.645 210.387 309.731 C 260.258 433.170 359.985 680.010 360.000 680.047 Z"/>
<path fill="none" stroke="#000000" stroke-width="1" stroke-linecap="butt" stroke-linejoin="round" d="M 360.000 334.132 C 467.270 334.132 509.613 316.623 509.613 309.731 "/>
<path fill="none" stroke="#000000" stroke-width="1" stroke-linecap="butt" stroke-linejoin="round" d="M 210.387 309.731 C 210.387 317.645 252.730 334.132 360.000 334.132 "/>
<path fill="#000000" fill-rule="evenodd" stroke="#ffffff" stroke-width="2" stroke-linecap="round" stroke-linejoin="round" d="M 360.000 334.132 C 467.270 334.132 509.613 316.623 509.613 309.731 C 509.613 302.839 467.270 285.330 360.000 285.330 C 252.730 285.330 210.387 301.817 210.387 309.731 C 210.387 317.645 252.730 334.132 360.000 334.132 Z"/>
<path fill="#000000" fill-rule="evenodd" stroke="none" d="M 360.000 388.315 C 396.484 388.315 425.916 417.746 425.916 454.231 C 425.916 490.715 396.484 520.147 360.000 520.147 C 323.516 520.147 294.084 490.715 294.084 454.231 C 294.084 417.746 323.516 388.315 360.000 388.315 Z"/>
</g>
<g id="specs_2">
<path fill="#ff0000" fill-rule="evenodd" stroke="none" d="M 360.000 689.229 C 360.001 689.231 367.180 709.333 367.181 709.335 C 367.180 709.334 360.001 702.654 360.000 702.654 C 359.999 702.654 352.820 709.334 352.819 709.335 C 352.820 709.333 359.999 689.231 360.000 689.229 Z"/>
<path fill="#0000ff" fill-rule="evenodd" stroke="none" d="M 360.000 685.379 C 360.000 685.378 364.171 673.701 364.171 673.700 C 364.171 673.700 360.000 677.580 360.000 677.581 C 360.000 677.580 355.829 673.700 355.829 673.700 C 355.829 673.701 360.000 685.378 360.000 685.379 Z"/>
<path fill="#00ff00" fill-rule="evenodd" stroke="none" d="M 263.336 459.357 C 263.338 459.357 276.414 464.102 276.415 464.103 C 276.415 464.102 272.085 459.401 272.085 459.401 C 272.085 459.401 276.462 454.744 276.462 454.744 C 276.461 454.744 263.338 459.356 263.336 459.357 Z"/>
<path fill="#ffff00" fill-rule="evenodd" stroke="none" d="M 208.558 300.551 C 208.559 300.552 214.159 312.746 214.160 312.747 C 214.160 312.747 214.455 306.589 214.455 306.589 C 214.456 306.589 220.618 306.439 220.619 306.439 C 220.617 306.439 208.560 300.552 208.558 300.551 Z"/>
<path fill="#ffff00" fill-rule="evenodd" stroke="none" d="M 511.442 300.700 C 511.441 300.702 505.597 312.781 505.597 312.782 C 505.597 312.781 505.425 306.619 505.425 306.619 C 505.425 306.619 499.266 306.346 499.265 306.346 C 499.267 306.345 511.440 300.701 511.442 300.700 Z"/>
<path fill="#00ff00" fill-rule="evenodd" stroke="none" d="M 456.664 459.357 C 456.662 459.357 443.586 464.102 443.585 464.103 C 443.585 464.102 447.915 459.401 447.915 459.401 C 447.915 459.401 443.538 454.744 443.538 454.744 C 443.539 454.744 456.662 459.356 456.664 459.357 Z"/>
<path fill="#00ffff" fill-rule="evenodd" stroke="none" d="M 402.611 583.430 C 402.611 583.429 400.507 577.486 400.506 577.485 C 400.506 577.486 400.108 580.355 400.108 580.355 C 400.107 580.355 397.217 580.164 397.217 580.164 C 397.218 580.165 402.611 583.430 402.611 583.430 Z"/>
<path fill="#00ffff" fill-rule="evenodd" stroke="none" d="M 317.389 583.233 C 317.389 583.232 319.885 577.443 319.885 577.442 C 319.885 577.442 320.092 580.332 320.092 580.332 C 320.092 580.332 322.989 580.334 322.989 580.334 C 322.988 580.334 317.389 583.233 317.389 583.233 Z"/>
<path fill="#be0027" fill-rule="evenodd" stroke="none" d="M 360.000 274.487 C 360.001 274.488 367.180 294.591 367.181 294.593 C 367.180 294.592 360.001 287.912 360.000 287.911 C 359.999 287.912 352.820 294.592 352.819 294.593 C 352.820 294.591 359.999 274.488 360.000 274.487 Z"/>
<path fill="#ff00ff" fill-rule="evenodd" stroke="none" d="M 208.819 24.622 C 208.849 24.622 511.151 24.622 511.181 24.622 C 511.181 24.652 511.181 326.954 511.181 326.984 C 511.151 326.984 208.849 326.984 208.819 326.984 C 208.819 326.954 208.819 24.652 208.819 24.622 Z"/>
<path fill="#ff00ff" fill-rule="evenodd" stroke="none" d="M 312.682 407.101 C 312.692 407.101 407.308 407.101 407.318 407.101 C 407.318 407.111 407.318 501.727 407.318 501.736 C 407.308 501.736 312.692 501.736 312.682 501.736 C 312.682 501.727 312.682 407.111 312.682 407.101 Z"/>
</g>
</g>
</svg>
