<?xml version="1.0" encoding="utf-8"?>
<!-- Generator: Moho 12.5 build 22414 -->
<!DOCTYPE svg PUBLIC "-//W3C//DTD SVG 1.1//EN" "http://www.w3.org/Graphics/SVG/1.1/DTD/svg11.dtd">
<svg version="1.1" id="Frame_0" xmlns="http://www.w3.org/2000/svg" xmlns:xlink="http://www.w3.org/1999/xlink" width="720px" height="720px">
<g id="cross_tall">
<g id="cross_tall">
<path fill="#ffffff" fill-rule="evenodd" stroke="#000000" stroke-width="4" stroke-linecap="round" stroke-linejoin="round" d="M 143.752 192.899 C 143.769 192.899 249.087 192.899 320.671 192.899 C 320.682 120.817 320.682 15.986 320.682 15.969 C 320.690 15.969 399.310 15.969 399.318 15.969 C 399.318 15.986 399.318 131.825 399.371 192.899 C 458.033 192.899 576.231 192.899 576.248 192.899 C 576.248 192.907 576.248 271.527 576.248 271.535 C 576.231 271.535 458.033 271.535 399.374 271.535 C 399.316 432.423 399.318 703.988 399.318 704.031 C 399.310 704.031 320.690 704.031 320.682 704.031 C 320.682 703.988 320.682 414.602 320.674 271.535 C 249.087 271.535 143.769 271.535 143.752 271.535 C 143.752 271.527 143.752 192.907 143.752 192.899 Z"/>
</g>
<g id="specs_2">
<path fill="#ff00ff" fill-rule="evenodd" stroke="none" d="M 212.722 380.203 C 212.752 380.203 507.581 380.203 507.611 380.203 C 507.611 380.173 507.611 85.343 507.611 85.313 C 507.581 85.313 212.752 85.313 212.722 85.313 C 212.722 85.343 212.722 380.173 212.722 380.203 Z"/>
<path fill="#ff0000" fill-rule="evenodd" stroke="none" d="M 360.167 687.522 C 360.168 687.525 368.413 710.614 368.414 710.616 C 368.413 710.615 360.168 702.943 360.167 702.942 C 360.166 702.943 351.920 710.615 351.919 710.616 C 351.920 710.614 360.166 687.525 360.167 687.522 Z"/>
<path fill="#0000ff" fill-rule="evenodd" stroke="none" d="M 360.167 5.735 C 360.167 5.736 364.957 19.148 364.957 19.150 C 364.957 19.149 360.167 14.693 360.167 14.692 C 360.166 14.693 355.376 19.149 355.376 19.150 C 355.376 19.148 360.166 5.736 360.167 5.735 Z"/>
<path fill="#00ff00" fill-rule="evenodd" stroke="none" d="M 133.392 233.421 C 133.393 233.420 146.781 228.563 146.782 228.562 C 146.782 228.563 142.349 233.375 142.349 233.376 C 142.349 233.376 146.830 238.144 146.831 238.144 C 146.829 238.144 133.393 233.421 133.392 233.421 Z"/>
<path fill="#ffff00" fill-rule="evenodd" stroke="none" d="M 199.268 394.304 C 199.268 394.303 205.212 381.361 205.213 381.360 C 205.213 381.360 205.526 387.896 205.526 387.896 C 205.527 387.896 212.067 388.055 212.068 388.055 C 212.066 388.056 199.269 394.304 199.268 394.304 Z"/>
<path fill="#ffff00" fill-rule="evenodd" stroke="none" d="M 520.732 394.146 C 520.732 394.144 514.529 381.324 514.529 381.323 C 514.529 381.323 514.347 387.864 514.347 387.865 C 514.346 387.865 507.810 388.154 507.809 388.154 C 507.810 388.155 520.731 394.145 520.732 394.146 Z"/>
<path fill="#00ff00" fill-rule="evenodd" stroke="none" d="M 586.608 233.421 C 586.607 233.420 573.219 228.563 573.218 228.562 C 573.218 228.563 577.651 233.375 577.651 233.376 C 577.651 233.376 573.170 238.144 573.169 238.144 C 573.171 238.144 586.607 233.421 586.608 233.421 Z"/>
<path fill="#00ffff" fill-rule="evenodd" stroke="none" d="M 520.074 72.024 C 520.074 72.025 515.319 85.450 515.319 85.452 C 515.318 85.451 514.418 78.971 514.418 78.970 C 514.417 78.970 507.889 79.401 507.889 79.401 C 507.890 79.400 520.073 72.025 520.074 72.024 Z"/>
<path fill="#00ffff" fill-rule="evenodd" stroke="none" d="M 199.926 72.469 C 199.926 72.470 205.566 85.548 205.566 85.550 C 205.566 85.549 206.032 79.023 206.032 79.022 C 206.033 79.022 212.575 79.017 212.576 79.017 C 212.575 79.016 199.927 72.470 199.926 72.469 Z"/>
<path fill="#be0027" fill-rule="evenodd" stroke="none" d="M 360.167 711.917 C 360.168 711.914 368.413 688.825 368.414 688.823 C 368.413 688.824 360.168 696.496 360.167 696.497 C 360.166 696.496 351.920 688.824 351.919 688.823 C 351.920 688.825 360.166 711.914 360.167 711.917 Z"/>
</g>
</g>
</svg>
