<?xml version="1.0" encoding="utf-8"?>
<!-- Generator: Moho 12.5 build 22414 -->
<!DOCTYPE svg PUBLIC "-//W3C//DTD SVG 1.1//EN" "http://www.w3.org/Graphics/SVG/1.1/DTD/svg11.dtd">
<svg version="1.1" id="Frame_0" xmlns="http://www.w3.org/2000/svg" xmlns:xlink="http://www.w3.org/1999/xlink" width="720px" height="720px">
<g id="cube">
<g id="cube">
<path fill="#ffffff" fill-rule="evenodd" stroke="none" d="M 360.000 14.187 C 360.028 14.204 640.946 176.392 640.974 176.408 C 640.974 176.440 640.974 500.816 640.974 500.849 C 640.946 500.865 453.658 608.996 360.000 663.069 C 359.972 663.053 79.051 500.863 79.026 500.849 C 79.026 392.702 79.026 284.555 79.026 176.408 C 79.054 176.392 359.975 14.202 360.000 14.187 Z"/>
<path fill="none" stroke="#000000" stroke-width="4" stroke-linecap="round" stroke-linejoin="round" d="M 360.000 14.187 C 359.975 14.202 79.054 176.392 79.026 176.408 C 176.899 230.984 359.972 338.612 360.000 338.628 C 360.028 338.612 542.683 232.079 640.974 176.408 C 640.946 176.392 360.028 14.204 360.000 14.187 M 79.026 176.408 C 79.026 284.555 79.026 392.702 79.026 500.849 C 79.051 500.863 359.972 663.053 360.000 663.069 C 358.696 550.771 360.000 338.661 360.000 338.628 M 640.974 500.849 C 640.974 500.816 640.974 176.440 640.974 176.408 M 360.000 663.069 C 453.658 608.996 640.946 500.865 640.974 500.849 "/>
<path fill="none" stroke="#000000" stroke-width="1" stroke-linecap="butt" stroke-linejoin="round" d="M 360.000 663.069 C 359.972 663.053 79.051 500.863 79.026 500.849 "/>
<path fill="none" stroke="#000000" stroke-width="1" stroke-linecap="butt" stroke-linejoin="round" d="M 79.026 500.849 C 79.026 392.702 79.026 284.555 79.026 176.408 "/>
<path fill="#000000" fill-rule="evenodd" stroke="none" d="M 360.000 663.069 C 359.972 663.053 79.051 500.863 79.026 500.849 C 79.026 392.702 79.026 284.555 79.026 176.408 C 176.899 230.984 359.972 338.612 360.000 338.628 C 360.000 338.661 358.696 550.771 360.000 663.069 Z"/>
<path fill="none" stroke="#000000" stroke-width="4" stroke-linecap="round" stroke-linejoin="round" d="M 79.026 176.408 C 79.026 284.555 79.026 392.702 79.026 500.849 C 79.051 500.863 359.972 663.053 360.000 663.069 "/>
<path fill="none" stroke="#ffffff" stroke-width="4" stroke-linecap="round" stroke-linejoin="round" d="M 360.000 663.069 C 359.972 663.053 79.051 500.863 79.026 500.849 C 79.026 392.702 79.026 284.555 79.026 176.408 "/>
</g>
<g id="specs_2">
<path fill="#ff00ff" fill-rule="evenodd" stroke="none" d="M 206.612 492.016 C 206.643 492.016 513.357 492.016 513.388 492.016 C 513.388 491.985 513.388 185.271 513.388 185.241 C 513.357 185.241 206.643 185.241 206.612 185.241 C 206.612 185.271 206.612 491.985 206.612 492.016 Z"/>
<path fill="#ff0000" fill-rule="evenodd" stroke="none" d="M 359.561 689.834 C 359.562 689.837 370.010 719.093 370.011 719.096 C 370.010 719.095 359.562 709.373 359.561 709.372 C 359.559 709.373 349.111 719.095 349.110 719.096 C 349.111 719.093 359.559 689.837 359.561 689.834 Z"/>
<path fill="#0000ff" fill-rule="evenodd" stroke="none" d="M 359.488 3.357 C 359.488 3.359 366.561 23.164 366.562 23.166 C 366.561 23.166 359.488 16.585 359.488 16.584 C 359.487 16.585 352.414 23.166 352.413 23.166 C 352.414 23.164 359.487 3.359 359.488 3.357 Z"/>
<path fill="#00ff00" fill-rule="evenodd" stroke="none" d="M 69.519 348.571 C 69.521 348.570 86.682 342.343 86.684 342.342 C 86.683 342.343 81.001 348.512 81.000 348.512 C 81.001 348.513 86.745 354.624 86.745 354.625 C 86.744 354.624 69.521 348.571 69.519 348.571 Z"/>
<path fill="#ffff00" fill-rule="evenodd" stroke="none" d="M 191.793 575.948 C 191.793 575.946 194.583 559.574 194.583 559.573 C 194.583 559.573 196.908 566.840 196.908 566.841 C 196.909 566.841 204.324 565.045 204.325 565.045 C 204.324 565.046 191.794 575.946 191.793 575.948 Z"/>
<path fill="#ffff00" fill-rule="evenodd" stroke="none" d="M 528.207 575.784 C 528.207 575.783 525.090 559.469 525.089 559.468 C 525.089 559.469 522.910 566.780 522.910 566.781 C 522.909 566.781 515.459 565.135 515.458 565.135 C 515.460 565.136 528.206 575.783 528.207 575.784 Z"/>
<path fill="#00ff00" fill-rule="evenodd" stroke="none" d="M 650.481 348.571 C 650.479 348.570 633.318 342.343 633.316 342.342 C 633.317 342.343 638.999 348.512 639.000 348.512 C 638.999 348.513 633.255 354.624 633.255 354.625 C 633.256 354.624 650.479 348.571 650.481 348.571 Z"/>
<path fill="#be0027" fill-rule="evenodd" stroke="none" d="M 359.488 679.788 C 359.489 679.784 371.666 645.689 371.667 645.685 C 371.666 645.687 359.489 657.016 359.488 657.017 C 359.486 657.016 347.310 645.687 347.308 645.685 C 347.310 645.689 359.486 679.784 359.488 679.788 Z"/>
<path fill="#00ffff" fill-rule="evenodd" stroke="none" d="M 211.106 90.442 C 211.106 90.444 213.575 104.936 213.575 104.937 C 213.575 104.936 215.634 98.504 215.634 98.503 C 215.634 98.504 222.198 100.093 222.199 100.093 C 222.198 100.092 211.107 90.443 211.106 90.442 Z"/>
<path fill="#00ffff" fill-rule="evenodd" stroke="none" d="M 508.894 90.587 C 508.894 90.588 506.135 105.028 506.135 105.030 C 506.134 105.029 504.206 98.557 504.206 98.556 C 504.205 98.556 497.610 100.013 497.610 100.013 C 497.611 100.012 508.893 90.588 508.894 90.587 Z"/>
</g>
</g>
</svg>
