<?xml version="1.0" encoding="utf-8"?>
<!-- Generator: Moho 12.5 build 22414 -->
<!DOCTYPE svg PUBLIC "-//W3C//DTD SVG 1.1//EN" "http://www.w3.org/Graphics/SVG/1.1/DTD/svg11.dtd">
<svg version="1.1" id="Frame_0" xmlns="http://www.w3.org/2000/svg" xmlns:xlink="http://www.w3.org/1999/xlink" width="720px" height="720px">
<g id="eagle_head_3">
<g id="eagle_head_2">
<path fill="#000000" fill-rule="evenodd" stroke="#000000" stroke-width="4" stroke-linejoin="round" d="M 248.042 220.366 C 277.136 187.906 258.904 160.585 253.332 152.219 C 266.344 154.303 292.878 165.302 293.554 170.211 C 295.927 187.445 273.115 216.807 259.188 227.797 C 225.264 254.567 202.537 245.442 202.531 245.444 C 202.535 245.442 231.120 239.246 248.042 220.366 Z"/>
<path fill="#ffffff" fill-rule="evenodd" stroke="#000000" stroke-width="4" stroke-linejoin="round" d="M 326.062 165.567 C 308.948 143.260 264.874 143.688 226.656 166.691 C 198.144 183.852 197.776 210.439 168.166 215.722 C 132.846 222.025 106.871 211.078 106.865 211.078 C 106.871 211.080 135.076 234.797 168.166 231.512 C 207.872 227.569 213.875 206.580 237.019 199.224 C 285.520 183.809 321.418 210.149 321.418 210.149 C 321.418 210.149 333.778 175.625 326.062 165.567 Z"/>
<path fill="#ffffff" fill-rule="evenodd" stroke="#000000" stroke-width="4" stroke-linejoin="round" d="M 361.646 241.444 C 362.818 211.213 332.800 189.684 332.797 189.679 C 332.796 189.684 332.643 233.438 324.908 243.742 C 303.206 272.652 278.705 278.922 278.701 278.925 C 278.709 278.922 359.679 292.167 361.646 241.444 M 307.928 353.658 C 343.048 339.824 333.350 285.882 333.352 285.875 C 333.346 285.879 291.717 323.314 275.285 325.663 C 233.539 331.631 207.791 319.840 207.784 319.839 C 207.794 319.843 227.647 385.282 307.928 353.658 M 235.003 445.118 C 261.310 418.790 243.371 376.049 243.372 376.042 C 243.367 376.046 211.972 417.965 197.540 424.004 C 167.300 436.656 146.378 435.150 146.216 435.813 C 145.942 436.938 199.813 480.336 235.003 445.118 M 243.700 561.010 C 260.082 528.172 229.608 493.873 229.606 493.866 C 229.603 493.872 213.154 542.471 201.551 552.480 C 176.730 573.892 156.284 578.353 156.373 579.545 C 156.524 581.565 221.475 605.559 243.700 561.010 M 307.995 638.891 C 301.189 602.489 254.902 594.468 254.897 594.463 C 254.898 594.469 269.174 642.141 266.101 656.744 C 259.481 688.196 247.802 704.757 248.204 705.183 C 248.899 705.920 317.144 687.828 307.995 638.891 M 495.952 558.191 C 456.667 544.962 451.535 494.696 451.530 494.690 C 451.537 494.692 481.353 513.069 513.830 516.832 C 551.871 521.240 574.714 511.993 575.240 513.068 C 576.021 514.662 544.168 574.428 495.952 558.191 M 440.924 445.274 C 404.874 436.801 398.990 390.194 398.986 390.188 C 398.992 390.190 445.711 409.493 460.558 407.015 C 492.890 401.618 509.647 388.365 509.897 388.597 C 510.321 388.991 489.388 456.666 440.924 445.274 M 458.095 341.592 C 427.831 320.251 439.805 274.826 439.803 274.819 C 439.808 274.823 475.917 310.198 490.613 313.452 C 522.618 320.539 543.133 314.553 543.260 314.823 C 543.475 315.282 498.783 370.282 458.095 341.592 M 489.268 252.006 C 453.447 242.610 448.762 195.868 448.758 195.862 C 448.764 195.864 494.972 216.360 509.877 214.263 C 542.338 209.697 559.520 196.968 559.672 197.117 C 559.931 197.370 537.424 264.637 489.268 252.006 M 468.913 155.414 C 432.268 160.757 409.697 119.558 409.691 119.554 C 409.697 119.553 460.241 120.372 473.143 112.619 C 501.241 95.737 512.126 77.324 512.285 77.386 C 512.555 77.491 518.178 148.232 468.913 155.414 M 403.152 83.833 C 366.488 90.033 339.071 56.900 339.065 56.897 C 339.072 56.896 393.745 55.563 408.725 48.538 C 433.331 36.998 437.227 35.168 446.806 27.175 C 448.988 25.355 442.481 77.182 403.152 83.833 Z"/>
<path fill="#ffffff" fill-rule="evenodd" stroke="none" d="M 379.502 67.257 C 379.498 67.259 368.121 75.526 345.566 80.117 C 342.392 106.408 334.646 118.978 311.201 124.700 C 273.086 134.001 256.407 108.912 256.402 108.910 C 256.406 108.908 273.663 92.320 298.637 85.715 C 324.603 78.847 337.310 81.798 345.566 80.117 M 483.958 189.716 C 505.501 287.954 418.321 347.356 422.657 420.058 C 425.500 467.731 472.722 507.466 472.727 507.474 C 472.716 507.479 381.105 539.939 367.479 551.296 C 353.391 563.038 303.519 650.295 303.511 650.304 C 303.500 650.296 173.498 557.914 223.893 403.340 C 250.713 321.077 353.501 310.332 336.279 235.227 C 332.417 218.389 290.772 233.369 290.767 233.369 C 290.760 233.360 344.371 140.416 223.893 138.632 C 218.281 138.549 208.425 107.085 215.534 91.263 C 225.391 69.330 303.477 54.344 327.919 52.253 C 390.829 46.873 456.764 65.711 483.958 189.716 Z"/>
<path fill="none" stroke="#000000" stroke-width="4" stroke-linejoin="round" d="M 379.502 67.257 C 379.498 67.259 368.121 75.526 345.566 80.117 C 342.392 106.408 334.646 118.978 311.201 124.700 C 273.086 134.001 256.407 108.912 256.402 108.910 C 256.406 108.908 273.663 92.320 298.637 85.715 C 324.603 78.847 337.310 81.798 345.566 80.117 M 483.958 189.716 C 505.501 287.954 418.321 347.356 422.657 420.058 C 425.500 467.731 472.722 507.466 472.727 507.474 C 472.716 507.479 381.105 539.939 367.479 551.296 C 353.391 563.038 303.519 650.295 303.511 650.304 C 303.500 650.296 173.498 557.914 223.893 403.340 C 250.713 321.077 353.501 310.332 336.279 235.227 C 332.417 218.389 290.772 233.369 290.767 233.369 C 290.760 233.360 344.371 140.416 223.893 138.632 C 218.281 138.549 208.425 107.085 215.534 91.263 C 225.391 69.330 303.477 54.344 327.919 52.253 C 390.829 46.873 456.764 65.711 483.958 189.716 "/>
<path fill="none" stroke="#ffffff" stroke-width="1" stroke-linecap="butt" stroke-linejoin="round" d="M 202.531 245.444 C 202.537 245.442 225.264 254.567 259.188 227.797 "/>
<path fill="none" stroke="#ffffff" stroke-width="1" stroke-linecap="butt" stroke-linejoin="round" d="M 259.188 227.797 C 273.115 216.807 295.927 187.445 293.554 170.211 "/>
<path fill="none" stroke="#ffffff" stroke-width="1" stroke-linecap="butt" stroke-linejoin="round" d="M 293.554 170.211 C 292.878 165.302 266.344 154.303 253.332 152.219 "/>
<path fill="#ffffff" fill-rule="evenodd" stroke="#000000" stroke-width="4" stroke-linejoin="round" d="M 305.628 162.780 C 309.742 184.473 325.306 229.527 271.263 246.373 C 226.069 260.460 202.538 245.444 202.531 245.444 C 202.537 245.442 225.264 254.567 259.188 227.797 C 273.115 216.807 295.927 187.445 293.554 170.211 C 292.878 165.302 266.344 154.303 253.332 152.219 C 251.559 151.935 191.791 141.202 171.296 149.770 C 140.902 162.477 142.020 186.928 142.017 186.932 C 142.017 186.925 113.748 160.467 148.652 122.090 C 164.992 104.123 216.682 86.274 226.048 89.580 C 232.087 91.711 235.647 133.211 255.132 135.229 C 268.563 136.621 285.408 142.763 285.411 142.764 C 285.413 142.766 303.780 153.040 305.628 162.780 Z"/>
<path fill="none" stroke="#000000" stroke-width="4" stroke-linejoin="round" d="M 285.411 142.764 C 285.418 142.763 333.662 156.032 358.723 131.737 C 378.804 112.270 379.500 67.264 379.502 67.257 "/>
<path fill="#ffffff" fill-rule="evenodd" stroke="#000000" stroke-width="4" stroke-linejoin="round" d="M 389.068 605.547 C 359.748 578.266 323.847 568.788 323.841 568.784 C 323.842 568.791 328.748 619.000 336.102 632.388 C 364.597 684.264 420.629 679.054 419.885 677.361 C 402.868 638.676 420.974 635.234 389.068 605.547 M 424.647 605.905 C 389.060 577.997 384.510 531.500 384.506 531.492 C 384.513 531.495 443.488 556.182 461.204 564.852 C 501.206 584.429 496.903 592.193 514.855 612.195 C 517.646 615.304 464.329 637.025 424.647 605.905 Z"/>
<path fill="none" stroke="#000000" stroke-width="1" stroke-linecap="butt" stroke-linejoin="round" d="M 311.201 124.700 C 334.646 118.978 342.392 106.408 345.566 80.117 "/>
<path fill="none" stroke="#000000" stroke-width="1" stroke-linecap="butt" stroke-linejoin="round" d="M 345.566 80.117 C 337.310 81.798 324.603 78.847 298.637 85.715 "/>
<path fill="none" stroke="#000000" stroke-width="1" stroke-linecap="butt" stroke-linejoin="round" d="M 298.637 85.715 C 273.663 92.320 256.406 108.908 256.402 108.910 "/>
<path fill="none" stroke="#000000" stroke-width="1" stroke-linecap="butt" stroke-linejoin="round" d="M 256.402 108.910 C 256.407 108.912 273.086 134.001 311.201 124.700 "/>
<path fill="#000000" fill-rule="evenodd" stroke="#000000" stroke-width="4" stroke-linejoin="round" d="M 311.201 124.700 C 334.646 118.978 342.392 106.408 345.566 80.117 C 337.310 81.798 324.603 78.847 298.637 85.715 C 273.663 92.320 256.406 108.908 256.402 108.910 C 256.407 108.912 273.086 134.001 311.201 124.700 Z"/>
<path fill="#ffffff" fill-rule="evenodd" stroke="none" d="M 302.414 88.437 C 311.831 88.437 319.428 96.034 319.428 105.451 C 319.428 114.868 311.831 122.465 302.414 122.465 C 292.996 122.465 285.400 114.868 285.400 105.451 C 285.400 96.034 292.996 88.437 302.414 88.437 Z"/>
<path fill="#000000" fill-rule="evenodd" stroke="none" d="M 218.151 99.493 C 220.992 99.493 223.284 101.785 223.284 104.626 C 223.284 107.467 220.992 109.758 218.151 109.758 C 215.310 109.758 213.019 107.467 213.019 104.626 C 213.018 101.785 215.310 99.493 218.151 99.493 Z"/>
</g>
<g id="eagle_head_details">
<path fill="#ffffff" fill-rule="evenodd" stroke="#000000" stroke-width="4" stroke-linejoin="round" d="M 226.170 395.930 C 226.169 395.939 207.918 443.899 218.934 480.812 C 229.704 516.902 270.212 546.435 270.217 546.442 C 270.217 546.437 269.685 516.710 275.690 493.320 C 280.619 474.126 292.521 452.861 292.522 452.857 C 292.524 452.863 291.371 489.347 308.149 510.521 C 326.638 533.855 366.331 541.321 366.337 541.324 C 366.336 541.319 354.003 515.592 353.386 492.960 C 352.840 472.980 362.219 449.653 362.220 449.649 C 362.221 449.654 363.536 482.699 381.481 497.788 C 404.962 517.531 448.239 509.832 448.246 509.834 C 448.244 509.830 432.035 491.497 426.053 472.990 C 419.121 451.544 422.265 423.295 422.264 423.290 C 422.269 423.298 437.321 481.892 473.441 504.234 C 474.190 504.697 475.074 521.595 480.950 534.331 C 492.225 558.771 516.761 581.867 516.765 581.872 C 516.757 581.871 476.876 582.090 445.741 573.315 C 430.200 568.935 412.996 559.083 412.993 559.081 C 412.993 559.084 412.989 575.398 416.342 588.239 C 422.427 611.537 437.763 636.986 437.765 636.990 C 437.759 636.989 402.869 629.265 376.239 617.238 C 360.330 610.053 342.873 597.831 342.869 597.829 C 342.869 597.833 340.126 620.543 343.758 638.642 C 348.190 660.732 362.305 684.880 362.307 684.884 C 362.301 684.881 294.916 647.089 294.908 647.086 C 294.903 647.080 204.863 571.618 204.389 492.505 C 203.978 424.101 226.168 395.940 226.170 395.930 Z"/>
<path fill="none" stroke="#000000" stroke-width="4" stroke-linejoin="round" d="M 432.393 368.177 C 432.390 368.179 417.171 379.478 409.390 392.440 C 399.916 408.220 396.829 431.153 396.828 431.157 C 396.826 431.153 376.842 417.108 371.286 399.617 C 366.030 383.069 373.637 361.295 373.637 361.291 C 373.635 361.294 355.336 376.029 346.553 392.535 C 338.574 407.532 336.602 428.756 336.601 428.760 C 336.599 428.756 318.089 412.996 313.651 395.127 C 309.296 377.596 318.056 355.427 318.056 355.423 C 318.053 355.426 297.466 371.555 286.421 389.411 C 277.698 403.513 273.249 423.630 273.248 423.633 C 273.246 423.628 256.743 398.362 257.729 375.526 C 258.582 355.760 274.274 335.026 274.275 335.022 M 335.207 272.756 C 335.207 272.758 336.868 288.405 334.238 300.834 C 331.196 315.208 321.954 330.911 321.953 330.914 C 321.958 330.911 357.629 321.729 373.275 299.455 C 382.532 286.274 381.935 264.908 381.936 264.904 C 381.937 264.907 389.172 280.938 391.189 295.057 C 393.660 312.346 390.401 333.669 390.401 333.673 C 390.404 333.669 416.675 317.579 427.551 296.420 C 436.319 279.362 435.102 254.687 435.102 254.683 C 435.103 254.686 442.691 273.240 444.325 289.400 C 445.763 303.612 442.621 320.941 442.621 320.944 C 442.624 320.941 461.970 304.459 472.064 286.711 M 330.290 227.752 C 348.282 228.220 364.626 244.587 364.629 244.589 C 364.630 244.586 371.261 229.036 370.210 215.831 C 368.898 199.335 357.215 181.625 357.214 181.622 C 357.217 181.625 377.398 193.193 390.753 206.569 C 404.259 220.095 415.917 240.530 415.919 240.534 C 415.920 240.529 422.699 212.701 420.647 189.712 C 419.180 173.282 411.306 154.454 411.305 154.451 C 411.308 154.453 431.122 163.695 444.079 175.696 C 456.697 187.384 467.174 205.915 467.177 205.918 C 467.177 205.912 470.871 176.971 467.244 153.588 C 464.061 133.066 453.452 109.785 453.451 109.781 "/>
<path fill="none" stroke="#000000" stroke-width="4" stroke-linejoin="round" d="M 412.993 559.081 C 393.355 547.312 377.571 520.444 370.667 484.954 M 342.869 597.829 C 315.958 566.706 309.202 545.909 301.934 501.714 M 294.908 647.086 C 256.062 592.782 244.474 567.551 235.069 512.228 "/>
</g>
<g id="specs_2">
<path fill="#ff0000" fill-rule="evenodd" stroke="none" d="M 361.356 525.022 C 361.357 525.025 373.004 557.636 373.005 557.639 C 373.004 557.638 361.357 546.802 361.356 546.800 C 361.355 546.802 349.708 557.638 349.707 557.639 C 349.708 557.636 361.355 525.025 361.356 525.022 Z"/>
<path fill="#0000ff" fill-rule="evenodd" stroke="none" d="M 361.356 37.027 C 361.357 37.029 368.122 55.972 368.122 55.974 C 368.122 55.973 361.357 49.679 361.356 49.678 C 361.355 49.679 354.590 55.973 354.590 55.974 C 354.590 55.972 361.355 37.029 361.356 37.027 Z"/>
<path fill="#00ff00" fill-rule="evenodd" stroke="none" d="M 185.040 432.406 C 185.043 432.407 215.955 443.624 215.958 443.625 C 215.957 443.624 205.722 432.512 205.721 432.510 C 205.722 432.509 216.068 421.502 216.069 421.501 C 216.066 421.502 185.043 432.405 185.040 432.406 Z"/>
<path fill="#ffff00" fill-rule="evenodd" stroke="none" d="M 217.838 571.775 C 217.838 571.773 224.934 556.324 224.935 556.322 C 224.935 556.323 225.308 564.124 225.309 564.125 C 225.309 564.125 233.117 564.315 233.118 564.315 C 233.116 564.315 217.839 571.774 217.838 571.775 Z"/>
<path fill="#ffff00" fill-rule="evenodd" stroke="none" d="M 503.326 571.586 C 503.326 571.584 495.921 556.280 495.920 556.278 C 495.920 556.279 495.703 564.086 495.703 564.087 C 495.703 564.087 487.900 564.433 487.899 564.433 C 487.900 564.434 503.325 571.585 503.326 571.586 Z"/>
<path fill="#00ff00" fill-rule="evenodd" stroke="none" d="M 447.057 432.406 C 447.054 432.407 416.142 443.624 416.139 443.625 C 416.140 443.624 426.374 432.512 426.375 432.510 C 426.374 432.509 416.029 421.502 416.027 421.501 C 416.031 421.502 447.054 432.405 447.057 432.406 Z"/>
<path fill="#be0027" fill-rule="evenodd" stroke="none" d="M 431.060 613.299 C 431.059 613.296 416.119 582.056 416.118 582.053 C 416.118 582.055 415.604 597.954 415.604 597.956 C 415.602 597.956 399.707 598.588 399.705 598.588 C 399.708 598.589 431.057 613.297 431.060 613.299 Z"/>
</g>
</g>
</svg>
