<?xml version="1.0" encoding="utf-8"?>
<!-- Generator: Moho 12.5 build 22414 -->
<!DOCTYPE svg PUBLIC "-//W3C//DTD SVG 1.1//EN" "http://www.w3.org/Graphics/SVG/1.1/DTD/svg11.dtd">
<svg version="1.1" id="Frame_0" xmlns="http://www.w3.org/2000/svg" xmlns:xlink="http://www.w3.org/1999/xlink" width="720px" height="720px">
<g id="goat_head">
<g id="goat_head">
<path fill="#000000" fill-rule="evenodd" stroke="#ffffff" stroke-width="4" stroke-linejoin="round" d="M 327.736 581.000 C 327.737 581.002 337.451 594.968 339.367 607.995 C 340.811 617.815 334.682 620.335 337.150 630.039 C 340.027 641.352 346.848 640.710 351.940 651.215 C 356.820 661.281 359.123 674.899 359.124 674.901 C 359.125 674.898 370.016 657.669 371.363 641.958 C 371.817 636.650 369.158 634.505 370.283 628.513 C 372.514 616.620 379.138 616.394 382.879 604.886 C 386.345 594.222 386.376 580.324 386.376 580.324 C 386.376 580.324 327.742 581.000 327.736 581.000 Z"/>
<path fill="#ffffff" fill-rule="evenodd" stroke="none" d="M 278.261 81.193 C 330.637 126.107 350.644 241.102 350.568 242.077 C 350.570 242.077 369.969 242.128 369.971 242.128 C 369.978 242.112 390.373 126.534 443.209 81.630 C 496.376 36.444 561.722 14.095 640.165 61.990 C 706.939 102.761 713.153 209.779 713.160 209.794 C 713.152 209.785 682.197 148.074 630.602 125.777 C 566.983 98.283 513.495 112.209 486.736 156.194 C 472.997 178.779 460.101 256.053 460.098 256.063 C 460.100 256.064 476.035 270.941 476.037 270.942 C 476.042 270.939 513.889 247.251 528.609 243.690 C 543.079 240.189 572.088 246.010 586.817 243.844 C 599.790 241.936 626.633 219.892 635.932 229.137 C 648.901 242.030 619.212 281.379 606.085 294.112 C 591.339 308.418 546.339 310.196 531.819 324.732 C 525.637 330.920 523.079 349.316 516.901 355.508 C 511.368 361.052 489.475 369.130 489.472 369.131 C 489.472 369.139 495.811 426.499 486.994 443.310 C 480.917 454.897 453.592 463.881 446.964 475.161 C 440.667 485.876 445.489 512.569 438.847 523.075 C 435.291 528.701 422.010 533.498 418.261 538.998 C 413.158 546.488 413.819 565.513 409.040 573.214 C 403.915 581.473 389.619 595.044 380.441 598.247 C 375.480 599.977 365.152 598.206 359.898 598.192 C 354.352 598.177 343.436 599.999 338.213 598.135 C 329.058 594.867 314.828 581.237 309.747 572.951 C 305.009 565.225 305.770 546.204 300.707 538.687 C 296.988 533.167 283.732 528.300 280.205 522.655 C 273.620 512.114 278.583 485.447 272.343 474.698 C 265.774 463.384 239.538 456.265 232.482 442.636 C 222.244 422.863 230.396 368.453 230.396 368.446 C 230.393 368.444 208.544 360.250 203.041 354.677 C 196.895 348.452 194.434 330.044 188.285 323.822 C 173.842 309.210 128.853 307.193 114.182 292.810 C 101.123 280.008 71.643 240.502 84.680 227.678 C 94.028 218.483 120.754 240.668 133.716 242.645 C 148.434 244.889 177.473 239.221 191.924 242.799 C 206.625 246.438 244.346 270.326 244.351 270.329 C 244.353 270.327 260.367 255.535 260.368 255.534 C 260.768 254.566 247.947 178.184 234.340 155.526 C 207.832 111.389 154.401 97.191 90.637 124.348 C 38.925 146.372 7.643 207.918 7.635 207.926 C 7.642 207.911 14.423 100.928 81.412 60.511 C 160.107 13.032 225.295 35.772 278.261 81.193 M 266.863 389.085 C 276.360 397.952 307.910 402.889 307.914 402.890 C 307.913 402.886 303.733 369.010 295.468 361.770 C 287.022 354.370 252.121 354.807 252.117 354.807 C 252.119 354.810 258.681 381.445 266.863 389.085 M 452.896 389.578 C 443.353 398.394 411.778 403.164 411.774 403.165 C 411.775 403.161 416.133 369.308 424.437 362.111 C 432.922 354.756 467.819 355.378 467.824 355.378 C 467.822 355.381 461.119 381.981 452.896 389.578 Z"/>
<path fill="none" stroke="#000000" stroke-width="4" stroke-linejoin="round" d="M 278.261 81.193 C 330.637 126.107 350.644 241.102 350.568 242.077 C 350.570 242.077 369.969 242.128 369.971 242.128 C 369.978 242.112 390.373 126.534 443.209 81.630 C 496.376 36.444 561.722 14.095 640.165 61.990 C 706.939 102.761 713.153 209.779 713.160 209.794 C 713.152 209.785 682.197 148.074 630.602 125.777 C 566.983 98.283 513.495 112.209 486.736 156.194 C 472.997 178.779 460.101 256.053 460.098 256.063 C 460.100 256.064 476.035 270.941 476.037 270.942 C 476.042 270.939 513.889 247.251 528.609 243.690 C 543.079 240.189 572.088 246.010 586.817 243.844 C 599.790 241.936 626.633 219.892 635.932 229.137 C 648.901 242.030 619.212 281.379 606.085 294.112 C 591.339 308.418 546.339 310.196 531.819 324.732 C 525.637 330.920 523.079 349.316 516.901 355.508 C 511.368 361.052 489.475 369.130 489.472 369.131 C 489.472 369.139 495.811 426.499 486.994 443.310 C 480.917 454.897 453.592 463.881 446.964 475.161 C 440.667 485.876 445.489 512.569 438.847 523.075 C 435.291 528.701 422.010 533.498 418.261 538.998 C 413.158 546.488 413.819 565.513 409.040 573.214 C 403.915 581.473 389.619 595.044 380.441 598.247 C 375.480 599.977 365.152 598.206 359.898 598.192 C 354.352 598.177 343.436 599.999 338.213 598.135 C 329.058 594.867 314.828 581.237 309.747 572.951 C 305.009 565.225 305.770 546.204 300.707 538.687 C 296.988 533.167 283.732 528.300 280.205 522.655 C 273.620 512.114 278.583 485.447 272.343 474.698 C 265.774 463.384 239.538 456.265 232.482 442.636 C 222.244 422.863 230.396 368.453 230.396 368.446 C 230.393 368.444 208.544 360.250 203.041 354.677 C 196.895 348.452 194.434 330.044 188.285 323.822 C 173.842 309.210 128.853 307.193 114.182 292.810 C 101.123 280.008 71.643 240.502 84.680 227.678 C 94.028 218.483 120.754 240.668 133.716 242.645 C 148.434 244.889 177.473 239.221 191.924 242.799 C 206.625 246.438 244.346 270.326 244.351 270.329 C 244.353 270.327 260.367 255.535 260.368 255.534 C 260.768 254.566 247.947 178.184 234.340 155.526 C 207.832 111.389 154.401 97.191 90.637 124.348 C 38.925 146.372 7.643 207.918 7.635 207.926 C 7.642 207.911 14.423 100.928 81.412 60.511 C 160.107 13.032 225.295 35.772 278.261 81.193 M 416.976 353.040 C 427.272 344.265 451.500 345.856 468.762 342.264 M 383.032 481.839 C 377.720 448.190 391.049 375.137 416.976 353.040 M 397.793 510.412 C 397.831 502.186 384.315 489.964 383.032 481.839 M 383.487 537.765 C 401.069 545.353 397.757 518.306 397.793 510.412 M 387.519 511.526 C 403.604 516.811 368.368 531.239 383.487 537.765 M 377.177 537.748 C 382.071 532.454 370.438 505.913 387.519 511.526 M 362.319 545.698 C 365.081 542.389 374.252 540.913 377.177 537.748 M 358.965 554.820 C 361.446 554.969 360.726 547.607 362.319 545.698 M 356.613 545.683 C 358.051 547.621 356.556 554.676 358.965 554.820 M 341.797 537.655 C 344.705 540.835 354.044 542.222 356.613 545.683 M 331.595 511.378 C 348.704 505.855 336.931 532.334 341.797 537.655 M 335.487 537.638 C 350.641 531.192 315.481 516.578 331.595 511.378 M 321.326 510.209 C 321.321 518.104 317.866 545.133 335.487 537.638 M 336.238 481.715 C 334.913 489.833 321.331 501.984 321.326 510.209 M 302.977 352.739 C 328.608 375.179 341.729 448.094 336.238 481.715 M 249.134 340.641 C 249.139 340.643 292.357 343.441 302.977 352.739 M 311.704 264.800 C 335.788 260.706 350.515 242.070 350.519 242.068 M 260.526 255.643 C 260.531 255.643 285.274 269.294 311.704 264.800 M 266.863 389.085 C 276.360 397.952 307.910 402.889 307.914 402.890 C 307.913 402.886 303.733 369.010 295.468 361.770 C 287.022 354.370 252.121 354.807 252.117 354.807 C 252.119 354.810 258.681 381.445 266.863 389.085 M 408.714 265.057 C 387.597 259.806 370.423 242.523 370.419 242.520 M 459.941 256.170 C 459.935 256.171 432.899 271.071 408.714 265.057 M 452.896 389.578 C 443.353 398.394 411.778 403.164 411.774 403.165 C 411.775 403.161 416.133 369.308 424.437 362.111 C 432.922 354.756 467.819 355.378 467.824 355.378 C 467.822 355.381 461.119 381.981 452.896 389.578 "/>
<path fill="none" stroke="#000000" stroke-width="4" stroke-linejoin="round" d="M 301.912 514.723 C 301.912 514.723 308.556 518.320 309.885 520.451 C 313.762 526.661 308.862 542.420 312.093 548.989 C 315.377 555.667 326.831 565.649 333.726 568.449 C 339.953 570.977 353.253 569.650 359.973 569.660 C 366.402 569.669 379.115 570.968 385.085 568.585 C 391.997 565.826 403.501 555.901 406.821 549.240 C 410.087 542.688 405.270 526.903 409.179 520.713 C 410.520 518.590 417.183 515.028 417.183 515.028 M 100.028 245.979 C 100.156 245.069 116.797 259.016 123.394 262.020 C 140.798 269.944 180.986 266.867 196.395 278.192 C 214.192 291.271 238.420 353.622 238.424 353.629 M 597.036 263.273 C 603.518 260.311 613.148 245.091 619.905 247.355 M 523.951 279.059 C 539.420 267.815 579.644 271.223 597.036 263.273 M 481.523 354.273 C 481.527 354.265 506.085 292.044 523.951 279.059 "/>
<path fill="none" stroke="#000000" stroke-width="4" stroke-linejoin="round" d="M 466.615 224.698 C 466.610 224.699 439.573 239.599 415.389 233.585 C 394.271 228.334 377.097 211.050 377.094 211.048 "/>
<path fill="none" stroke="#000000" stroke-width="4" stroke-linejoin="round" d="M 474.587 192.541 C 474.582 192.541 447.926 202.738 425.946 194.880 C 405.955 187.733 390.443 170.013 390.439 170.010 "/>
<path fill="none" stroke="#000000" stroke-width="4" stroke-linejoin="round" d="M 481.782 166.966 C 481.778 166.965 458.218 168.536 440.265 158.710 C 421.523 148.453 408.539 128.771 408.536 128.768 "/>
<path fill="none" stroke="#000000" stroke-width="4" stroke-linejoin="round" d="M 495.499 146.073 C 495.496 146.071 475.594 135.565 462.694 120.276 C 449.639 104.804 438.902 86.476 438.899 86.473 "/>
<path fill="none" stroke="#000000" stroke-width="4" stroke-linejoin="round" d="M 515.753 125.923 C 515.751 125.919 504.028 108.477 495.906 91.038 C 487.833 73.706 478.212 56.240 478.210 56.237 "/>
<path fill="none" stroke="#000000" stroke-width="4" stroke-linejoin="round" d="M 544.344 114.719 C 544.343 114.715 537.957 95.032 533.404 75.562 C 528.965 56.581 521.072 37.720 521.070 37.716 "/>
<path fill="none" stroke="#000000" stroke-width="4" stroke-linejoin="round" d="M 570.243 111.458 C 570.243 111.454 575.479 91.933 574.513 73.785 C 573.500 54.749 566.061 36.946 566.061 36.942 "/>
<path fill="none" stroke="#000000" stroke-width="4" stroke-linejoin="round" d="M 597.061 114.728 C 597.063 114.725 607.056 100.668 612.401 86.001 C 618.580 69.047 615.627 49.299 615.628 49.296 "/>
<path fill="none" stroke="#000000" stroke-width="4" stroke-linejoin="round" d="M 622.392 121.183 C 622.394 121.181 635.233 111.481 643.157 99.446 C 651.391 86.942 651.766 70.116 651.767 70.113 "/>
<path fill="none" stroke="#000000" stroke-width="4" stroke-linejoin="round" d="M 643.697 131.497 C 643.699 131.495 657.688 126.904 667.560 118.356 C 675.273 111.676 678.364 100.543 678.365 100.541 "/>
<path fill="none" stroke="#000000" stroke-width="4" stroke-linejoin="round" d="M 666.006 148.061 C 666.008 148.060 675.812 148.243 683.217 144.154 C 691.536 139.559 695.149 128.852 695.150 128.851 "/>
<path fill="none" stroke="#000000" stroke-width="4" stroke-linejoin="round" d="M 683.591 167.084 C 683.592 167.083 689.285 166.265 694.214 164.479 C 699.701 162.489 704.223 158.009 704.224 158.008 "/>
<path fill="none" stroke="#000000" stroke-width="4" stroke-linejoin="round" d="M 697.852 185.852 C 697.852 185.852 701.645 186.389 704.820 185.322 C 707.682 184.361 709.611 181.444 709.612 181.444 "/>
<path fill="none" stroke="#000000" stroke-width="4" stroke-linejoin="round" d="M 254.852 224.137 C 254.858 224.138 281.814 239.181 306.031 233.295 C 327.176 228.156 344.441 210.964 344.445 210.961 "/>
<path fill="none" stroke="#000000" stroke-width="4" stroke-linejoin="round" d="M 247.051 191.938 C 247.055 191.939 273.658 202.276 295.679 194.535 C 315.707 187.494 331.313 169.856 331.317 169.854 "/>
<path fill="none" stroke="#000000" stroke-width="4" stroke-linejoin="round" d="M 239.991 166.326 C 239.995 166.325 263.546 168.021 281.551 158.290 C 300.347 148.133 313.435 128.519 313.439 128.516 "/>
<path fill="none" stroke="#000000" stroke-width="4" stroke-linejoin="round" d="M 226.385 145.361 C 226.388 145.358 246.345 134.958 259.326 119.738 C 272.463 104.335 283.297 86.064 283.299 86.061 "/>
<path fill="none" stroke="#000000" stroke-width="4" stroke-linejoin="round" d="M 206.238 125.103 C 206.240 125.099 218.054 107.720 226.269 90.324 C 234.434 73.035 244.148 55.621 244.149 55.617 "/>
<path fill="none" stroke="#000000" stroke-width="4" stroke-linejoin="round" d="M 177.707 113.748 C 177.708 113.744 184.198 94.095 188.854 74.650 C 193.393 55.692 201.386 36.874 201.388 36.870 "/>
<path fill="none" stroke="#000000" stroke-width="4" stroke-linejoin="round" d="M 151.825 110.351 C 151.825 110.347 146.692 90.798 147.754 72.655 C 148.868 53.625 156.401 35.861 156.402 35.858 "/>
<path fill="none" stroke="#000000" stroke-width="4" stroke-linejoin="round" d="M 124.990 113.479 C 124.988 113.476 115.070 99.365 109.802 84.671 C 103.714 67.684 106.771 47.953 106.770 47.949 "/>
<path fill="none" stroke="#000000" stroke-width="4" stroke-linejoin="round" d="M 99.625 119.799 C 99.623 119.797 86.836 110.029 78.975 97.953 C 70.808 85.406 70.522 68.577 70.521 68.574 "/>
<path fill="none" stroke="#000000" stroke-width="4" stroke-linejoin="round" d="M 78.266 130.000 C 78.264 129.999 64.299 125.333 54.473 116.733 C 46.795 110.013 43.763 98.863 43.762 98.861 "/>
<path fill="none" stroke="#000000" stroke-width="4" stroke-linejoin="round" d="M 55.869 146.446 C 55.868 146.445 46.063 146.577 38.680 142.448 C 30.385 137.809 26.829 127.083 26.828 127.082 "/>
<path fill="none" stroke="#000000" stroke-width="4" stroke-linejoin="round" d="M 38.184 165.375 C 38.183 165.375 32.495 164.527 27.576 162.714 C 22.098 160.696 17.600 156.192 17.599 156.191 "/>
<path fill="none" stroke="#000000" stroke-width="4" stroke-linejoin="round" d="M 23.825 184.067 C 23.824 184.067 20.029 184.585 16.859 183.501 C 14.002 182.525 12.088 179.598 12.088 179.598 "/>
<path fill="none" stroke="#000000" stroke-width="1" stroke-linecap="butt" stroke-linejoin="round" d="M 266.863 389.085 C 276.360 397.952 307.910 402.889 307.914 402.890 "/>
<path fill="none" stroke="#000000" stroke-width="1" stroke-linecap="butt" stroke-linejoin="round" d="M 307.914 402.890 C 307.913 402.886 303.733 369.010 295.468 361.770 "/>
<path fill="none" stroke="#000000" stroke-width="1" stroke-linecap="butt" stroke-linejoin="round" d="M 295.468 361.770 C 287.022 354.370 252.121 354.807 252.117 354.807 "/>
<path fill="none" stroke="#000000" stroke-width="1" stroke-linecap="butt" stroke-linejoin="round" d="M 252.117 354.807 C 252.119 354.810 258.681 381.445 266.863 389.085 "/>
<path fill="none" stroke="#000000" stroke-width="1" stroke-linecap="butt" stroke-linejoin="round" d="M 452.896 389.578 C 443.353 398.394 411.778 403.164 411.774 403.165 "/>
<path fill="none" stroke="#000000" stroke-width="1" stroke-linecap="butt" stroke-linejoin="round" d="M 411.774 403.165 C 411.775 403.161 416.133 369.308 424.437 362.111 "/>
<path fill="none" stroke="#000000" stroke-width="1" stroke-linecap="butt" stroke-linejoin="round" d="M 424.437 362.111 C 432.922 354.756 467.819 355.378 467.824 355.378 "/>
<path fill="none" stroke="#000000" stroke-width="1" stroke-linecap="butt" stroke-linejoin="round" d="M 467.824 355.378 C 467.822 355.381 461.119 381.981 452.896 389.578 "/>
<path fill="#000000" fill-rule="evenodd" stroke="#000000" stroke-width="4" stroke-linejoin="round" d="M 266.863 389.085 C 276.360 397.952 307.910 402.889 307.914 402.890 C 307.913 402.886 303.733 369.010 295.468 361.770 C 287.022 354.370 252.121 354.807 252.117 354.807 C 252.119 354.810 258.681 381.445 266.863 389.085 M 452.896 389.578 C 443.353 398.394 411.778 403.164 411.774 403.165 C 411.775 403.161 416.133 369.308 424.437 362.111 C 432.922 354.756 467.819 355.378 467.824 355.378 C 467.822 355.381 461.119 381.981 452.896 389.578 Z"/>
<path fill="#000000" fill-rule="evenodd" stroke="#000000" stroke-width="4" stroke-linejoin="round" d="M 334.168 510.743 C 337.782 510.587 340.525 513.255 340.893 517.957 C 341.222 522.160 341.141 527.432 338.776 527.826 C 335.648 528.348 336.882 523.079 328.671 517.321 C 325.740 515.266 331.026 510.878 334.168 510.743 Z"/>
<path fill="#000000" fill-rule="evenodd" stroke="#000000" stroke-width="4" stroke-linejoin="round" d="M 385.188 510.878 C 381.574 510.703 378.816 513.356 378.424 518.057 C 378.073 522.257 378.126 527.530 380.489 527.937 C 383.614 528.475 382.408 523.199 390.649 517.485 C 393.591 515.445 388.328 511.030 385.188 510.878 Z"/>
<path fill="#000000" fill-rule="evenodd" stroke="none" d="M 260.366 255.501 C 261.522 256.604 285.886 269.341 311.701 264.767 C 335.757 260.505 350.512 242.037 350.516 242.034 C 349.650 240.082 330.620 126.073 278.259 81.160 C 225.298 35.732 160.104 12.999 81.409 60.478 C 14.421 100.895 7.640 207.878 7.632 207.893 C 7.641 207.885 38.923 146.338 90.635 124.315 C 154.398 97.158 207.830 111.356 234.337 155.493 C 247.945 178.151 260.766 254.532 260.366 255.501 M 408.712 265.024 C 432.637 271.464 459.933 258.126 460.096 256.029 C 460.098 256.020 472.995 178.746 486.734 156.161 C 513.492 112.176 566.980 98.250 630.599 125.744 C 682.194 148.041 713.150 209.752 713.158 209.760 C 713.151 209.746 706.936 102.728 640.162 61.957 C 561.720 14.062 496.374 36.411 443.207 81.596 C 390.371 126.500 369.976 242.079 369.969 242.095 C 369.427 243.483 387.423 259.294 408.712 265.024 Z"/>
<path fill="none" stroke="#ffffff" stroke-width="6" stroke-linejoin="round" d="M 260.366 255.501 C 261.522 256.604 285.886 269.341 311.701 264.767 C 335.757 260.505 350.512 242.037 350.516 242.034 C 349.650 240.082 330.620 126.073 278.259 81.160 C 225.298 35.732 160.104 12.999 81.409 60.478 C 14.421 100.895 7.640 207.878 7.632 207.893 C 7.641 207.885 38.923 146.338 90.635 124.315 C 154.398 97.158 207.830 111.356 234.337 155.493 C 247.945 178.151 260.766 254.532 260.366 255.501 M 408.712 265.024 C 432.637 271.464 459.933 258.126 460.096 256.029 C 460.098 256.020 472.995 178.746 486.734 156.161 C 513.492 112.176 566.980 98.250 630.599 125.744 C 682.194 148.041 713.150 209.752 713.158 209.760 C 713.151 209.746 706.936 102.728 640.162 61.957 C 561.720 14.062 496.374 36.411 443.207 81.596 C 390.371 126.500 369.976 242.079 369.969 242.095 C 369.427 243.483 387.423 259.294 408.712 265.024 M 16.856 183.468 C 14.000 182.491 12.086 179.565 12.085 179.564 M 23.822 184.034 C 23.822 184.034 20.026 184.552 16.856 183.468 M 27.573 162.682 C 22.096 160.663 17.598 156.158 17.597 156.158 M 38.182 165.342 C 38.181 165.342 32.492 164.494 27.573 162.682 M 38.677 142.414 C 30.383 137.776 26.827 127.050 26.825 127.049 M 55.867 146.413 C 55.865 146.413 46.061 146.543 38.677 142.414 M 54.471 116.700 C 46.793 109.980 43.761 98.830 43.760 98.828 M 78.264 129.967 C 78.262 129.966 64.297 125.301 54.471 116.700 M 78.973 97.919 C 70.806 85.372 70.520 68.544 70.519 68.541 M 99.623 119.766 C 99.621 119.764 86.834 109.996 78.973 97.919 M 109.800 84.638 C 103.711 67.652 106.768 47.920 106.768 47.916 M 124.987 113.446 C 124.986 113.443 115.067 99.332 109.800 84.638 M 147.752 72.622 C 148.866 53.592 156.399 35.828 156.400 35.825 M 151.823 110.318 C 151.822 110.314 146.690 90.765 147.752 72.622 M 188.852 74.617 C 193.391 55.659 201.384 36.841 201.385 36.837 M 177.704 113.715 C 177.705 113.711 184.195 94.062 188.852 74.617 M 226.267 90.291 C 234.431 73.002 244.145 55.588 244.147 55.584 M 206.235 125.070 C 206.238 125.066 218.052 107.687 226.267 90.291 M 259.324 119.704 C 272.460 104.302 283.294 86.032 283.297 86.028 M 226.383 145.327 C 226.386 145.325 246.343 134.925 259.324 119.704 M 281.549 158.257 C 300.345 148.099 313.433 128.486 313.436 128.483 M 239.988 166.292 C 239.993 166.292 263.544 167.988 281.549 158.257 M 295.676 194.502 C 315.704 187.461 331.311 169.823 331.314 169.820 M 247.048 191.905 C 247.053 191.906 273.655 202.243 295.676 194.502 M 306.028 233.262 C 327.173 228.123 344.438 210.930 344.442 210.928 M 254.850 224.104 C 254.855 224.105 281.812 239.148 306.028 233.262 M 704.818 185.289 C 707.679 184.328 709.609 181.411 709.609 181.411 M 697.849 185.819 C 697.850 185.819 701.642 186.356 704.818 185.289 M 694.211 164.445 C 699.699 162.456 704.221 157.976 704.222 157.975 M 683.589 167.050 C 683.590 167.050 689.282 166.232 694.211 164.445 M 683.215 144.120 C 691.534 139.526 695.147 128.819 695.148 128.818 M 666.004 148.028 C 666.006 148.028 675.809 148.210 683.215 144.120 M 667.557 118.323 C 675.271 111.643 678.362 100.510 678.363 100.508 M 643.694 131.464 C 643.697 131.462 657.686 126.871 667.557 118.323 M 643.155 99.413 C 651.388 86.909 651.764 70.083 651.765 70.080 M 622.390 121.150 C 622.392 121.148 635.230 111.448 643.155 99.413 M 612.399 85.968 C 618.578 69.014 615.625 49.267 615.625 49.263 M 597.059 114.695 C 597.060 114.692 607.054 100.635 612.399 85.968 M 574.511 73.752 C 573.498 54.716 566.059 36.913 566.058 36.909 M 570.240 111.425 C 570.241 111.422 575.477 91.900 574.511 73.752 M 533.401 75.529 C 528.962 56.548 521.069 37.687 521.068 37.683 M 544.341 114.686 C 544.340 114.682 537.954 94.998 533.401 75.529 M 495.903 91.004 C 487.831 73.673 478.209 56.207 478.208 56.204 M 515.750 125.890 C 515.748 125.886 504.026 108.444 495.903 91.004 M 462.691 120.243 C 449.637 104.770 438.899 86.444 438.897 86.440 M 495.497 146.040 C 495.493 146.037 475.592 135.532 462.691 120.243 M 440.262 158.677 C 421.521 148.420 408.537 128.738 408.534 128.735 M 481.780 166.933 C 481.775 166.932 458.216 168.503 440.262 158.677 M 425.943 194.846 C 405.953 187.700 390.440 169.979 390.437 169.977 M 474.584 192.508 C 474.580 192.508 447.923 202.704 425.943 194.846 M 415.386 233.552 C 394.269 228.301 377.095 211.017 377.091 211.015 M 466.612 224.665 C 466.607 224.665 439.571 239.566 415.386 233.552 "/>
<path fill="#000000" fill-rule="evenodd" stroke="none" d="M 583.268 286.755 C 567.752 296.297 533.465 297.678 524.819 303.194 C 515.284 309.278 481.527 354.268 481.523 354.273 C 481.527 354.265 506.085 292.044 523.951 279.059 C 539.420 267.815 579.644 271.223 597.036 263.273 C 603.518 260.311 613.148 245.091 619.905 247.355 C 620.225 247.462 597.017 278.301 583.268 286.755 Z"/>
<path fill="#000000" fill-rule="evenodd" stroke="none" d="M 194.817 302.321 C 186.216 296.735 151.921 295.196 136.456 285.573 C 122.752 277.045 99.708 246.084 100.028 245.979 C 100.156 245.069 116.797 259.016 123.394 262.020 C 140.798 269.944 180.986 266.867 196.395 278.192 C 214.192 291.271 238.420 353.622 238.424 353.629 C 237.381 353.623 204.261 308.454 194.817 302.321 Z"/>
</g>
<g id="specs_2">
<path fill="#ff00ff" fill-rule="evenodd" stroke="none" d="M 309.133 355.971 C 309.143 355.971 410.795 356.240 410.805 356.240 C 410.805 356.230 411.074 254.578 411.074 254.568 C 411.064 254.568 309.412 254.299 309.402 254.299 C 309.402 254.309 309.133 355.961 309.133 355.971 Z"/>
<path fill="#ff0000" fill-rule="evenodd" stroke="none" d="M 359.112 679.956 C 359.113 679.960 371.451 714.798 371.453 714.802 C 371.451 714.801 359.052 703.202 359.050 703.201 C 359.049 703.202 346.588 714.735 346.587 714.736 C 346.588 714.733 359.111 679.960 359.112 679.956 Z"/>
<path fill="#0000ff" fill-rule="evenodd" stroke="none" d="M 360.308 228.183 C 360.309 228.185 367.475 248.422 367.476 248.424 C 367.475 248.424 360.273 241.686 360.272 241.686 C 360.271 241.686 353.033 248.385 353.032 248.386 C 353.033 248.384 360.307 228.185 360.308 228.183 Z"/>
<path fill="#00ff00" fill-rule="evenodd" stroke="none" d="M 82.918 261.806 C 82.920 261.805 103.121 254.536 103.123 254.535 C 103.122 254.536 96.421 261.773 96.421 261.773 C 96.421 261.774 103.157 268.979 103.157 268.979 C 103.155 268.979 82.920 261.806 82.918 261.806 Z"/>
<path fill="#ffff00" fill-rule="evenodd" stroke="none" d="M 228.318 455.486 C 228.319 455.484 237.332 435.999 237.332 435.997 C 237.332 435.998 237.778 445.851 237.778 445.852 C 237.779 445.852 247.638 446.117 247.639 446.117 C 247.637 446.118 228.320 455.486 228.318 455.486 Z"/>
<path fill="#ffff00" fill-rule="evenodd" stroke="none" d="M 490.596 455.942 C 490.595 455.940 481.296 436.589 481.295 436.587 C 481.295 436.588 480.995 446.447 480.995 446.448 C 480.994 446.448 471.140 446.858 471.139 446.858 C 471.141 446.859 490.594 455.941 490.596 455.942 Z"/>
<path fill="#00ff00" fill-rule="evenodd" stroke="none" d="M 637.651 263.274 C 637.649 263.273 617.487 255.897 617.485 255.896 C 617.486 255.897 624.148 263.170 624.149 263.170 C 624.148 263.171 617.375 270.340 617.374 270.340 C 617.376 270.340 637.649 263.275 637.651 263.274 Z"/>
<path fill="#00ffff" fill-rule="evenodd" stroke="none" d="M 602.185 33.558 C 602.184 33.560 594.964 53.778 594.963 53.780 C 594.963 53.779 593.631 44.006 593.631 44.005 C 593.630 44.005 583.788 44.629 583.787 44.629 C 583.788 44.628 602.183 33.559 602.185 33.558 Z"/>
<path fill="#00ffff" fill-rule="evenodd" stroke="none" d="M 119.574 32.951 C 119.575 32.953 128.023 52.690 128.024 52.692 C 128.024 52.691 128.753 42.855 128.753 42.854 C 128.754 42.854 138.617 42.872 138.618 42.872 C 138.616 42.871 119.576 32.952 119.574 32.951 Z"/>
<path fill="#be0027" fill-rule="evenodd" stroke="none" d="M 359.096 686.169 C 359.097 686.165 371.619 651.393 371.621 651.389 C 371.619 651.390 359.158 662.923 359.157 662.924 C 359.156 662.923 346.756 651.325 346.755 651.323 C 346.756 651.327 359.094 686.165 359.096 686.169 Z"/>
</g>
</g>
</svg>
