<?xml version="1.0" encoding="utf-8"?>
<!-- Generator: Moho 12.5 build 22414 -->
<!DOCTYPE svg PUBLIC "-//W3C//DTD SVG 1.1//EN" "http://www.w3.org/Graphics/SVG/1.1/DTD/svg11.dtd">
<svg version="1.1" id="Frame_0" xmlns="http://www.w3.org/2000/svg" xmlns:xlink="http://www.w3.org/1999/xlink" width="720px" height="720px">
<g id="hand_claddagh">
<g id="hand_claddagh">
<path fill="#ffffff" fill-rule="evenodd" stroke="#000000" stroke-width="3" stroke-linejoin="round" d="M 535.658 137.208 C 467.548 115.573 398.684 109.620 326.333 134.104 C 206.146 174.777 145.336 132.792 150.780 158.927 C 156.831 187.970 179.613 206.519 253.553 201.396 C 372.506 193.153 376.934 244.296 382.606 288.233 C 386.134 315.562 373.695 356.954 366.775 367.388 C 303.415 462.916 239.952 494.279 154.642 534.139 C 136.006 542.847 139.182 574.018 213.744 555.247 C 244.015 547.626 324.560 506.065 396.326 439.154 C 401.212 434.599 322.360 512.085 223.242 556.302 C 186.474 572.705 235.217 589.769 285.510 568.967 C 403.452 520.184 471.889 456.814 468.093 460.262 C 432.709 492.399 393.847 517.532 307.673 562.635 C 289.430 572.183 314.275 582.468 355.166 577.410 C 438.307 567.127 533.718 476.466 529.305 481.370 C 499.397 514.598 432.475 554.446 391.049 570.023 C 383.892 572.714 413.993 594.044 478.646 566.856 C 569.258 528.753 593.527 482.551 623.805 418.490 C 646.116 371.285 652.140 311.864 643.456 266.809 C 632.819 211.619 614.262 162.177 535.658 137.208 Z"/>
</g>
<g id="specs_2">
<path fill="#ff00ff" fill-rule="evenodd" stroke="none" d="M 8.989 517.425 C 9.033 517.425 442.361 517.425 442.404 517.425 C 442.404 517.394 442.404 202.606 442.404 202.575 C 442.361 202.575 9.033 202.575 8.989 202.575 C 8.989 202.606 8.989 517.394 8.989 517.425 Z"/>
<path fill="#ff0000" fill-rule="evenodd" stroke="none" d="M 689.631 315.382 C 689.633 315.381 716.558 305.765 716.561 305.764 C 716.560 305.765 707.613 315.381 707.612 315.382 C 707.613 315.383 716.560 324.999 716.561 325.000 C 716.558 324.999 689.633 315.383 689.631 315.382 Z"/>
<path fill="#0000ff" fill-rule="evenodd" stroke="none" d="M 448.967 108.877 C 448.968 108.879 454.553 124.519 454.554 124.520 C 454.553 124.520 448.968 119.323 448.967 119.322 C 448.966 119.323 443.381 124.520 443.380 124.520 C 443.381 124.519 448.966 108.879 448.967 108.877 Z"/>
<path fill="#00ff00" fill-rule="evenodd" stroke="none" d="M 138.873 553.533 C 138.874 553.532 150.455 541.628 150.456 541.627 C 150.456 541.628 148.251 548.932 148.251 548.932 C 148.251 548.933 155.377 551.658 155.378 551.658 C 155.376 551.659 138.875 553.533 138.873 553.533 Z"/>
<path fill="#ffff00" fill-rule="evenodd" stroke="none" d="M 305.147 578.659 C 305.148 578.658 314.304 564.802 314.305 564.801 C 314.305 564.802 313.501 572.389 313.501 572.390 C 313.502 572.390 321.011 573.738 321.012 573.738 C 321.010 573.738 305.149 578.659 305.147 578.659 Z"/>
<path fill="#ffff00" fill-rule="evenodd" stroke="none" d="M 612.745 169.218 C 612.743 169.219 597.793 176.452 597.792 176.453 C 597.793 176.453 605.419 176.664 605.420 176.664 C 605.420 176.665 605.758 184.287 605.758 184.288 C 605.759 184.287 612.744 169.220 612.745 169.218 Z"/>
<path fill="#00ff00" fill-rule="evenodd" stroke="none" d="M 656.041 316.304 C 656.039 316.303 640.428 310.638 640.426 310.638 C 640.427 310.638 645.595 316.250 645.596 316.251 C 645.595 316.252 640.370 321.811 640.370 321.811 C 640.371 321.811 656.039 316.304 656.041 316.304 Z"/>
<path fill="#00ffff" fill-rule="evenodd" stroke="none" d="M 211.916 579.740 C 211.917 579.739 220.122 565.300 220.122 565.298 C 220.122 565.299 219.830 572.923 219.830 572.924 C 219.831 572.924 227.414 573.765 227.415 573.765 C 227.413 573.765 211.917 579.740 211.916 579.740 Z"/>
<path fill="#00ffff" fill-rule="evenodd" stroke="none" d="M 148.836 148.752 C 148.837 148.753 157.418 162.973 157.419 162.974 C 157.419 162.973 156.927 155.359 156.926 155.359 C 156.927 155.359 164.485 154.319 164.486 154.319 C 164.485 154.319 148.838 148.752 148.836 148.752 Z"/>
<path fill="#be0027" fill-rule="evenodd" stroke="none" d="M 609.150 480.023 C 609.149 480.020 596.910 454.182 596.909 454.180 C 596.909 454.181 596.436 467.307 596.436 467.308 C 596.434 467.308 583.308 467.781 583.307 467.781 C 583.310 467.783 609.148 480.022 609.150 480.023 Z"/>
</g>
</g>
</svg>
