<?xml version="1.0" encoding="utf-8"?>
<!-- Generator: Moho 12.5 build 22414 -->
<!DOCTYPE svg PUBLIC "-//W3C//DTD SVG 1.1//EN" "http://www.w3.org/Graphics/SVG/1.1/DTD/svg11.dtd">
<svg version="1.1" id="Frame_0" xmlns="http://www.w3.org/2000/svg" xmlns:xlink="http://www.w3.org/1999/xlink" width="720px" height="720px">
<g id="hourglass">
<g id="hourglass">
<path fill="#ffffff" fill-rule="evenodd" stroke="#000000" stroke-width="4" stroke-linecap="round" stroke-linejoin="round" d="M 523.280 196.453 C 511.439 257.961 443.739 297.043 421.031 315.531 C 406.106 326.851 405.824 337.073 420.569 345.621 C 441.836 362.135 507.623 387.013 523.280 464.639 C 533.552 515.568 523.119 637.801 523.118 637.819 C 523.102 637.819 358.814 637.242 358.798 637.242 C 358.781 637.242 194.424 636.665 194.407 636.665 C 194.408 636.647 186.657 515.261 196.720 464.639 C 209.610 399.799 269.704 366.815 294.813 349.119 C 314.229 335.436 313.715 328.598 293.633 311.973 C 267.517 290.353 210.053 259.409 196.720 196.453 C 185.956 145.627 196.881 23.291 196.882 23.274 C 198.242 24.638 361.186 23.851 361.202 23.851 C 361.219 23.851 525.576 24.428 525.593 24.428 C 525.593 24.445 533.037 145.772 523.280 196.453 Z"/>
<path fill="none" stroke="#000000" stroke-width="4" stroke-linecap="round" stroke-linejoin="round" d="M 216.892 187.438 C 276.285 189.705 298.750 256.642 361.129 256.411 C 422.715 256.183 446.158 188.560 503.108 187.438 C 510.678 145.549 503.108 44.344 503.108 44.330 C 503.094 44.330 360.014 44.330 360.000 44.330 C 359.986 44.330 218.085 45.509 216.892 44.330 C 216.892 44.344 210.412 151.096 216.892 187.438 C 225.589 236.217 292.009 287.369 360.000 330.546 C 428.945 285.134 493.849 238.674 503.108 187.438 M 216.892 473.654 C 229.680 413.088 296.768 372.196 360.000 330.546 C 423.326 370.761 489.206 410.900 503.108 473.654 C 506.807 490.351 506.875 526.597 506.929 530.529 C 507.010 536.484 503.108 616.754 503.108 616.763 C 503.094 616.763 360.014 616.763 360.000 616.763 C 359.986 616.763 216.906 616.763 216.892 616.763 C 216.892 616.755 213.310 532.878 213.310 532.870 C 213.310 532.864 213.215 491.068 216.892 473.654 "/>
<path fill="#000000" fill-rule="evenodd" stroke="none" d="M 360.000 489.225 C 418.700 488.785 440.874 530.525 506.929 530.529 C 507.010 536.484 503.108 616.754 503.108 616.763 C 503.094 616.763 360.014 616.763 360.000 616.763 C 359.986 616.763 216.906 616.763 216.892 616.763 C 216.892 616.755 213.310 532.878 213.310 532.870 C 284.082 531.686 301.138 489.666 360.000 489.225 Z"/>
<path fill="#000000" fill-rule="evenodd" stroke="none" d="M 216.892 187.438 C 276.285 189.705 298.750 256.642 361.129 256.411 C 422.715 256.183 446.158 188.560 503.108 187.438 C 493.849 238.674 428.945 285.134 360.000 330.546 C 292.009 287.369 225.589 236.217 216.892 187.438 Z"/>
<path fill="none" stroke="#000000" stroke-width="4" stroke-linecap="round" stroke-linejoin="round" d="M 360.000 339.659 C 360.000 339.659 360.000 344.580 360.000 344.580 M 360.000 359.345 C 360.000 359.345 360.000 364.266 360.000 364.266 M 360.000 379.031 C 360.000 379.031 360.000 383.952 360.000 383.952 M 360.000 398.717 C 360.000 398.717 360.000 403.638 360.000 403.638 "/>
<path fill="none" stroke="#000000" stroke-width="4" stroke-linecap="round" stroke-linejoin="round" d="M 360.000 418.582 C 360.000 418.582 360.000 423.503 360.000 423.504 M 360.000 438.268 C 360.000 438.269 360.000 443.189 360.000 443.190 M 360.000 457.954 C 360.000 457.954 360.000 462.875 360.000 462.875 M 360.000 477.640 C 360.000 477.640 360.000 482.561 360.000 482.562 "/>
</g>
<g id="specs_2">
<path fill="#ff0000" fill-rule="evenodd" stroke="none" d="M 360.000 667.121 C 360.001 667.124 371.289 698.731 371.290 698.734 C 371.289 698.733 360.001 688.230 360.000 688.229 C 359.999 688.230 348.711 698.733 348.710 698.734 C 348.711 698.731 359.999 667.124 360.000 667.121 Z"/>
<path fill="#0000ff" fill-rule="evenodd" stroke="none" d="M 360.000 12.833 C 360.001 12.834 366.558 31.195 366.558 31.197 C 366.558 31.196 360.001 25.095 360.000 25.095 C 359.999 25.095 353.442 31.196 353.442 31.197 C 353.442 31.195 359.999 12.834 360.000 12.833 Z"/>
<path fill="#00ff00" fill-rule="evenodd" stroke="none" d="M 220.177 331.458 C 220.178 331.457 238.505 324.807 238.507 324.806 C 238.507 324.807 232.439 331.395 232.438 331.396 C 232.439 331.396 238.573 337.922 238.573 337.923 C 238.571 337.922 220.178 331.458 220.177 331.458 Z"/>
<path fill="#ffff00" fill-rule="evenodd" stroke="none" d="M 191.896 641.701 C 191.897 641.699 198.113 628.164 198.114 628.162 C 198.114 628.163 198.441 634.998 198.441 634.999 C 198.442 634.999 205.282 635.164 205.283 635.164 C 205.282 635.165 191.897 641.700 191.896 641.701 Z"/>
<path fill="#ffff00" fill-rule="evenodd" stroke="none" d="M 528.104 641.535 C 528.103 641.533 521.616 628.125 521.616 628.124 C 521.616 628.124 521.426 634.965 521.426 634.965 C 521.425 634.966 514.589 635.269 514.588 635.269 C 514.589 635.269 528.103 641.534 528.104 641.535 Z"/>
<path fill="#00ff00" fill-rule="evenodd" stroke="none" d="M 499.823 331.458 C 499.822 331.457 481.495 324.807 481.493 324.806 C 481.493 324.807 487.561 331.395 487.562 331.396 C 487.561 331.396 481.427 337.922 481.427 337.923 C 481.429 337.922 499.822 331.458 499.823 331.458 Z"/>
<path fill="#00ffff" fill-rule="evenodd" stroke="none" d="M 529.142 17.541 C 529.142 17.542 524.119 31.723 524.119 31.724 C 524.119 31.724 523.168 24.878 523.168 24.877 C 523.167 24.878 516.271 25.333 516.270 25.333 C 516.271 25.332 529.141 17.541 529.142 17.541 Z"/>
<path fill="#00ffff" fill-rule="evenodd" stroke="none" d="M 190.959 18.011 C 190.960 18.012 196.917 31.827 196.917 31.828 C 196.917 31.827 197.410 24.934 197.410 24.933 C 197.411 24.933 204.321 24.928 204.322 24.928 C 204.321 24.927 190.961 18.011 190.959 18.011 Z"/>
<path fill="#be0027" fill-rule="evenodd" stroke="none" d="M 360.000 656.708 C 360.001 656.705 371.289 625.098 371.290 625.095 C 371.289 625.096 360.001 635.599 360.000 635.600 C 359.999 635.599 348.711 625.096 348.710 625.095 C 348.711 625.098 359.999 656.705 360.000 656.708 Z"/>
<path fill="#ff00ff" fill-rule="evenodd" stroke="none" d="M 307.992 508.224 C 308.002 508.224 411.998 508.224 412.008 508.224 C 412.008 508.235 412.008 612.229 412.008 612.240 C 411.998 612.240 308.002 612.240 307.992 612.240 C 307.992 612.229 307.992 508.235 307.992 508.224 Z"/>
</g>
</g>
</svg>
