<?xml version="1.0" encoding="utf-8"?>
<!-- Generator: Moho 12.5 build 22414 -->
<!DOCTYPE svg PUBLIC "-//W3C//DTD SVG 1.1//EN" "http://www.w3.org/Graphics/SVG/1.1/DTD/svg11.dtd">
<svg version="1.1" id="Frame_0" xmlns="http://www.w3.org/2000/svg" xmlns:xlink="http://www.w3.org/1999/xlink" width="720px" height="720px">
<g id="impossible_triangle_shaded">
<g id="impossible_triangle">
<path fill="#000000" fill-rule="evenodd" stroke="#ffffff" stroke-width="4" stroke-linejoin="round" d="M 549.597 433.422 C 517.757 433.422 454.088 433.423 454.079 433.423 C 422.670 378.776 359.862 269.498 359.853 269.482 C 359.848 269.474 328.316 214.835 312.547 187.511 C 233.506 324.129 75.447 597.322 75.423 597.363 C 59.614 570.040 43.804 542.717 27.995 515.394 C 122.799 351.453 217.603 187.512 312.407 23.571 C 391.470 160.188 470.534 296.805 549.597 433.422 Z"/>
<path fill="none" stroke="#ffffff" stroke-width="1" stroke-linecap="butt" stroke-linejoin="round" d="M 454.079 433.423 C 454.088 433.423 517.757 433.422 549.597 433.422 "/>
<path fill="none" stroke="#ffffff" stroke-width="1" stroke-linecap="butt" stroke-linejoin="round" d="M 549.597 433.422 C 470.534 296.805 391.470 160.188 312.407 23.571 "/>
<path fill="#ffffff" fill-rule="evenodd" stroke="#000000" stroke-width="4" stroke-linejoin="round" d="M 692.005 515.394 C 691.958 515.394 375.802 515.394 217.701 515.393 C 233.362 488.070 264.679 433.430 264.684 433.422 C 327.815 433.422 454.060 433.423 454.079 433.423 C 454.088 433.423 517.757 433.422 549.597 433.422 C 470.534 296.805 391.470 160.188 312.407 23.571 C 344.017 23.571 407.226 23.571 407.236 23.571 C 407.264 23.620 691.977 515.345 692.005 515.394 Z"/>
<path fill="none" stroke="#ffffff" stroke-width="1" stroke-linecap="butt" stroke-linejoin="round" d="M 264.684 433.422 C 264.679 433.430 233.362 488.070 217.701 515.393 "/>
<path fill="none" stroke="#ffffff" stroke-width="1" stroke-linecap="butt" stroke-linejoin="round" d="M 217.701 515.393 C 375.802 515.394 691.958 515.394 692.005 515.394 "/>
<path fill="none" stroke="#ffffff" stroke-width="1" stroke-linecap="butt" stroke-linejoin="round" d="M 75.423 597.363 C 75.447 597.322 233.506 324.129 312.547 187.511 "/>
<path fill="none" stroke="#ffffff" stroke-width="1" stroke-linecap="butt" stroke-linejoin="round" d="M 312.547 187.511 C 328.316 214.835 359.848 269.474 359.853 269.482 "/>
<path fill="#ffffff" fill-rule="evenodd" stroke="#000000" stroke-width="4" stroke-linejoin="round" d="M 264.684 433.422 C 264.679 433.430 233.362 488.070 217.701 515.393 C 375.802 515.394 691.958 515.394 692.005 515.394 C 675.994 542.717 643.977 597.355 643.972 597.364 C 643.915 597.364 75.480 597.363 75.423 597.363 C 75.447 597.322 233.506 324.129 312.547 187.511 C 328.316 214.835 359.848 269.474 359.853 269.482 C 328.130 324.129 264.693 433.406 264.684 433.422 Z"/>
</g>
<g id="specs_2">
<path fill="#ff00ff" fill-rule="evenodd" stroke="none" d="M 496.232 496.232 C 496.205 496.232 223.795 496.232 223.768 496.232 C 223.768 496.205 223.768 223.795 223.768 223.768 C 223.795 223.768 496.205 223.768 496.232 223.768 C 496.232 223.795 496.232 496.205 496.232 496.232 Z"/>
<path fill="#ff0000" fill-rule="evenodd" stroke="none" d="M 360.000 662.708 C 359.999 662.711 347.568 697.517 347.567 697.521 C 347.568 697.520 359.999 685.954 360.000 685.952 C 360.001 685.954 372.432 697.520 372.433 697.521 C 372.432 697.517 360.001 662.711 360.000 662.708 Z"/>
<path fill="#0000ff" fill-rule="evenodd" stroke="none" d="M 360.000 11.801 C 359.999 11.803 352.779 32.022 352.778 32.024 C 352.779 32.023 359.999 25.305 360.000 25.304 C 360.001 25.305 367.221 32.023 367.222 32.024 C 367.221 32.022 360.001 11.803 360.000 11.801 Z"/>
<path fill="#ffff00" fill-rule="evenodd" stroke="none" d="M 678.308 561.811 C 678.307 561.809 664.376 545.240 664.375 545.239 C 664.375 545.240 666.552 554.943 666.552 554.944 C 666.551 554.945 657.030 557.815 657.029 557.815 C 657.031 557.815 678.306 561.810 678.308 561.811 Z"/>
<path fill="#00ff00" fill-rule="evenodd" stroke="none" d="M 158.383 263.723 C 158.385 263.723 179.524 267.472 179.526 267.472 C 179.525 267.472 170.111 270.415 170.111 270.415 C 170.111 270.416 172.367 280.017 172.367 280.018 C 172.366 280.016 158.384 263.724 158.383 263.723 Z"/>
<path fill="#be0027" fill-rule="evenodd" stroke="none" d="M 360.000 618.808 C 359.999 618.804 347.568 583.998 347.567 583.995 C 347.568 583.996 359.999 595.562 360.000 595.563 C 360.001 595.562 372.432 583.996 372.433 583.995 C 372.432 583.998 360.001 618.804 360.000 618.808 Z"/>
<path fill="#00ff00" fill-rule="evenodd" stroke="none" d="M 561.617 263.723 C 561.615 263.723 540.476 267.472 540.474 267.472 C 540.475 267.472 549.889 270.415 549.889 270.415 C 549.889 270.416 547.633 280.017 547.633 280.018 C 547.634 280.016 561.616 263.724 561.617 263.723 Z"/>
<path fill="#ffff00" fill-rule="evenodd" stroke="none" d="M 41.692 561.811 C 41.693 561.809 55.624 545.240 55.625 545.239 C 55.625 545.240 53.448 554.943 53.448 554.944 C 53.449 554.944 62.970 557.815 62.971 557.815 C 62.969 557.815 41.694 561.810 41.692 561.811 Z"/>
</g>
</g>
</svg>
