<?xml version="1.0" encoding="utf-8"?>
<!-- Generator: Moho 12.5 build 22414 -->
<!DOCTYPE svg PUBLIC "-//W3C//DTD SVG 1.1//EN" "http://www.w3.org/Graphics/SVG/1.1/DTD/svg11.dtd">
<svg version="1.1" id="Frame_0" xmlns="http://www.w3.org/2000/svg" xmlns:xlink="http://www.w3.org/1999/xlink" width="720px" height="720px">
<g id="knot_3pt">
<g id="knot_3pt">
<path fill="#ffffff" fill-rule="evenodd" stroke="#000000" stroke-width="4" stroke-linecap="round" stroke-linejoin="round" d="M 457.480 270.352 C 442.893 215.912 409.765 166.440 360.481 131.825 C 354.761 127.806 348.469 123.787 341.940 120.017 C 328.882 112.478 315.433 106.259 302.676 101.655 C 253.215 83.795 201.688 82.340 153.977 95.124 C 140.030 98.861 126.410 103.814 113.088 110.031 C 114.339 124.394 116.871 138.795 120.640 152.864 C 133.424 200.576 160.449 244.471 200.648 278.377 C 196.306 301.094 194.601 324.512 195.451 347.880 C 161.921 326.601 125.220 291.278 97.457 244.876 C 69.694 198.474 50.871 140.994 53.096 75.399 C 100.492 38.698 159.680 26.181 215.821 27.474 C 271.962 28.766 325.057 43.868 360.268 62.403 C 364.218 64.481 367.924 66.516 371.603 68.639 C 388.525 78.409 404.164 89.532 418.463 101.791 C 466.333 142.831 499.178 196.604 514.822 254.987 C 516.853 262.569 518.595 270.229 520.025 277.846 C 503.113 292.220 484.530 304.070 465.012 313.228 C 463.738 298.571 461.217 284.298 457.480 270.352 Z"/>
<path fill="none" stroke="#ffffff" stroke-width="1" stroke-linecap="butt" stroke-linejoin="round" d="M 360.268 62.403 C 364.218 64.481 367.924 66.516 371.603 68.639 "/>
<path fill="none" stroke="#ffffff" stroke-width="1" stroke-linecap="butt" stroke-linejoin="round" d="M 371.603 68.639 C 388.525 78.409 404.164 89.532 418.463 101.791 "/>
<path fill="none" stroke="#ffffff" stroke-width="1" stroke-linecap="butt" stroke-linejoin="round" d="M 520.025 277.846 C 503.113 292.220 484.530 304.070 465.012 313.228 "/>
<path fill="#ffffff" fill-rule="evenodd" stroke="#000000" stroke-width="4" stroke-linecap="round" stroke-linejoin="round" d="M 255.495 313.268 C 253.633 334.692 254.607 356.886 258.427 378.501 C 318.134 399.519 381.125 401.077 439.508 385.434 C 447.091 383.402 454.595 381.080 461.947 378.595 C 484.192 370.678 505.649 360.684 525.003 347.853 C 553.073 329.242 589.643 295.547 618.649 249.311 C 647.654 203.076 669.095 144.301 666.904 75.534 C 626.000 49.910 579.623 36.651 536.174 31.753 C 492.726 26.854 452.205 30.317 423.014 38.139 C 412.239 41.026 401.622 44.499 391.164 48.547 C 380.705 52.594 370.406 57.217 360.268 62.403 C 364.218 64.481 367.924 66.516 371.603 68.639 C 388.525 78.409 404.164 89.532 418.463 101.791 C 425.239 99.294 431.830 97.455 438.378 95.481 C 495.309 78.318 562.997 92.977 606.885 110.176 C 604.937 136.147 593.388 179.800 574.478 212.552 C 559.743 238.074 541.193 259.980 520.025 277.846 C 503.113 292.220 484.530 304.070 465.012 313.228 C 451.711 319.401 438.091 324.355 424.144 328.092 C 369.704 342.679 310.296 338.727 255.495 313.268 Z"/>
<path fill="none" stroke="#ffffff" stroke-width="1" stroke-linecap="butt" stroke-linejoin="round" d="M 302.676 101.655 C 315.433 106.259 328.882 112.478 341.940 120.017 "/>
<path fill="none" stroke="#ffffff" stroke-width="1" stroke-linecap="butt" stroke-linejoin="round" d="M 341.940 120.017 C 348.469 123.787 354.761 127.806 360.481 131.825 "/>
<path fill="none" stroke="#ffffff" stroke-width="1" stroke-linecap="butt" stroke-linejoin="round" d="M 255.495 313.268 C 253.633 334.692 254.607 356.886 258.427 378.501 "/>
<path fill="none" stroke="#ffffff" stroke-width="1" stroke-linecap="butt" stroke-linejoin="round" d="M 461.947 378.595 C 484.192 370.678 505.649 360.684 525.003 347.853 "/>
<path fill="none" stroke="#ffffff" stroke-width="1" stroke-linecap="butt" stroke-linejoin="round" d="M 195.451 347.880 C 194.601 324.512 196.306 301.094 200.648 278.377 "/>
<path fill="#ffffff" fill-rule="evenodd" stroke="#000000" stroke-width="4" stroke-linecap="round" stroke-linejoin="round" d="M 200.648 278.377 C 207.006 244.757 218.872 212.178 236.666 181.358 C 254.506 150.457 276.858 123.833 302.676 101.655 C 315.433 106.259 328.882 112.478 341.940 120.017 C 348.469 123.787 354.761 127.806 360.481 131.825 C 331.979 151.648 306.892 178.376 288.044 211.021 C 269.440 243.245 258.868 277.852 255.495 313.268 C 253.633 334.692 254.607 356.886 258.427 378.501 C 259.828 385.452 261.526 392.211 263.151 398.985 C 273.501 442.139 312.641 505.803 360.172 537.553 C 415.546 503.043 451.890 430.858 461.947 378.595 C 484.192 370.678 505.649 360.684 525.003 347.853 C 521.803 385.367 507.858 438.338 481.103 487.809 C 454.349 537.280 413.053 576.320 360.349 606.757 C 309.531 573.948 274.807 540.442 250.832 507.840 C 226.856 475.239 213.630 443.541 205.808 414.350 C 202.863 403.355 200.527 392.198 198.801 381.059 C 197.074 369.920 195.958 358.800 195.451 347.880 C 194.601 324.512 196.306 301.094 200.648 278.377 Z"/>
</g>
<g id="specs_2">
<path fill="#ff00ff" fill-rule="evenodd" stroke="none" d="M 230.455 374.103 C 230.481 374.103 489.519 374.103 489.545 374.103 C 489.545 374.077 489.545 115.039 489.545 115.013 C 489.519 115.013 230.481 115.013 230.455 115.013 C 230.455 115.039 230.455 374.077 230.455 374.103 Z"/>
<path fill="#ff0000" fill-rule="evenodd" stroke="none" d="M 360.000 671.955 C 360.001 671.958 372.432 706.764 372.433 706.768 C 372.432 706.766 360.001 695.201 360.000 695.199 C 359.999 695.201 347.568 706.766 347.567 706.768 C 347.568 706.764 359.999 671.958 360.000 671.955 Z"/>
<path fill="#0000ff" fill-rule="evenodd" stroke="none" d="M 360.000 49.911 C 360.001 49.913 367.221 70.132 367.222 70.134 C 367.221 70.133 360.001 63.415 360.000 63.414 C 359.999 63.415 352.779 70.133 352.778 70.134 C 352.779 70.132 359.999 49.913 360.000 49.911 Z"/>
<path fill="#ffff00" fill-rule="evenodd" stroke="none" d="M 536.840 355.167 C 536.838 355.167 515.699 351.418 515.696 351.417 C 515.697 351.417 525.111 348.475 525.112 348.475 C 525.112 348.474 522.856 338.873 522.856 338.872 C 522.857 338.874 536.838 355.165 536.840 355.167 Z"/>
<path fill="#be0027" fill-rule="evenodd" stroke="none" d="M 360.000 628.400 C 360.001 628.397 372.432 593.591 372.433 593.587 C 372.432 593.588 360.001 605.154 360.000 605.155 C 359.999 605.154 347.568 593.588 347.567 593.587 C 347.568 593.591 359.999 628.397 360.000 628.400 Z"/>
<path fill="#00ff00" fill-rule="evenodd" stroke="none" d="M 42.692 70.340 C 42.694 70.340 63.814 74.196 63.816 74.197 C 63.815 74.197 54.387 77.091 54.386 77.091 C 54.386 77.092 56.594 86.705 56.594 86.706 C 56.593 86.704 42.694 70.342 42.692 70.340 Z"/>
<path fill="#00ff00" fill-rule="evenodd" stroke="none" d="M 676.756 70.340 C 676.753 70.340 655.634 74.196 655.632 74.197 C 655.632 74.197 665.061 77.091 665.062 77.091 C 665.062 77.092 662.854 86.705 662.853 86.706 C 662.855 86.704 676.754 70.342 676.756 70.340 Z"/>
<path fill="#ffff00" fill-rule="evenodd" stroke="none" d="M 183.637 355.167 C 183.639 355.167 204.778 351.418 204.780 351.417 C 204.779 351.417 195.365 348.475 195.364 348.475 C 195.364 348.474 197.621 338.873 197.621 338.872 C 197.619 338.874 183.638 355.165 183.637 355.167 Z"/>
</g>
</g>
</svg>
