<?xml version="1.0" encoding="utf-8"?>
<!-- Generator: Moho 12.5 build 22414 -->
<!DOCTYPE svg PUBLIC "-//W3C//DTD SVG 1.1//EN" "http://www.w3.org/Graphics/SVG/1.1/DTD/svg11.dtd">
<svg version="1.1" id="Frame_0" xmlns="http://www.w3.org/2000/svg" xmlns:xlink="http://www.w3.org/1999/xlink" width="720px" height="720px">
<g id="leg_eagle">
<g id="leg_eagle">
<path fill="#ffffff" fill-rule="evenodd" stroke="#000000" stroke-width="3" stroke-linejoin="round" d="M 369.717 539.374 C 369.717 539.374 350.285 539.374 350.283 539.374 C 350.284 539.378 359.999 584.329 360.000 584.334 C 360.001 584.329 369.716 539.378 369.717 539.374 M 439.379 501.575 C 439.396 501.109 446.166 490.752 446.820 491.344 C 470.603 512.844 465.420 531.334 465.422 531.338 C 465.420 531.335 454.262 511.079 439.379 501.575 M 280.621 501.575 C 280.604 501.109 273.834 490.752 273.180 491.344 C 249.397 512.844 254.580 531.334 254.578 531.338 C 254.580 531.335 265.738 511.079 280.621 501.575 Z"/>
<path fill="#ffffff" fill-rule="evenodd" stroke="#000000" stroke-width="3" stroke-linejoin="round" d="M 339.538 346.548 C 339.538 346.552 341.188 372.187 342.359 390.381 C 343.070 401.418 343.780 412.455 344.384 421.836 C 344.924 430.222 346.053 447.764 346.053 447.767 C 346.051 447.767 333.522 450.133 324.596 452.487 C 317.553 454.344 309.474 456.951 302.851 460.929 C 301.892 461.504 301.031 462.198 300.228 462.753 C 291.117 469.053 283.330 474.102 277.519 478.842 C 269.960 485.007 265.390 490.736 264.809 498.040 C 264.666 499.831 271.960 507.021 274.668 507.899 C 284.372 511.046 286.804 499.790 316.154 486.233 C 326.003 481.683 344.685 477.349 344.688 477.348 C 344.688 477.350 345.828 490.386 345.830 500.401 C 346.297 510.785 345.919 522.751 343.774 532.172 C 341.473 542.284 356.064 551.068 359.215 551.158 C 362.499 551.252 378.363 542.761 376.226 532.172 C 375.674 529.440 375.252 526.500 375.041 523.659 C 374.224 516.123 374.059 507.835 374.305 500.393 C 374.340 490.228 375.312 477.350 375.312 477.348 C 375.315 477.349 393.997 481.683 403.846 486.233 C 411.770 489.893 417.733 493.386 422.458 496.507 C 435.040 504.818 438.248 510.197 445.332 507.899 C 448.041 507.021 455.334 499.831 455.191 498.040 C 454.598 490.599 449.865 484.792 442.100 478.535 C 436.168 473.755 428.302 468.668 419.250 462.392 C 418.537 461.897 417.837 461.430 417.149 460.929 C 412.148 457.285 404.441 454.417 397.776 452.860 C 387.883 449.926 373.949 447.767 373.946 447.767 C 373.946 447.764 374.964 431.953 375.616 421.837 C 376.266 411.737 376.978 400.664 377.639 390.395 C 379.153 366.884 380.462 346.553 380.462 346.548 C 380.462 346.548 339.542 346.548 339.538 346.548 Z"/>
<path fill="none" stroke="#000000" stroke-width="3" stroke-linejoin="round" d="M 359.606 473.497 C 354.274 473.461 344.689 477.348 344.688 477.348 C 344.688 477.350 345.828 490.386 345.830 500.401 C 349.692 499.020 355.010 496.914 360.000 496.911 C 365.078 496.908 370.500 499.068 374.305 500.393 C 374.340 490.228 375.312 477.350 375.312 477.348 C 375.312 477.347 365.232 473.536 359.606 473.497 M 397.776 452.860 C 392.180 457.161 385.542 465.117 382.841 478.680 M 360.474 444.387 C 366.307 445.091 373.945 447.767 373.946 447.767 C 373.946 447.764 374.964 431.953 375.616 421.837 C 371.837 420.892 365.602 419.569 360.000 419.569 C 354.398 419.569 348.163 420.892 344.384 421.836 C 344.924 430.222 346.053 447.764 346.053 447.767 C 346.055 447.767 353.100 443.496 360.474 444.387 M 342.359 390.381 C 345.808 389.560 354.070 387.762 359.500 387.736 C 365.211 387.709 373.914 389.536 377.639 390.395 C 379.153 366.884 380.462 346.553 380.462 346.548 C 380.462 346.548 339.542 346.548 339.538 346.548 C 339.538 346.552 341.188 372.187 342.359 390.381 C 343.070 401.418 343.780 412.455 344.384 421.836 M 337.885 479.037 C 337.884 479.035 336.466 468.591 332.211 461.350 C 330.194 457.918 327.006 454.777 324.596 452.487 C 317.553 454.344 309.474 456.951 302.851 460.929 C 301.892 461.504 301.031 462.198 300.228 462.753 C 302.995 465.032 306.765 467.621 308.727 471.109 C 313.337 477.175 316.153 486.231 316.154 486.233 C 326.003 481.683 344.685 477.349 344.688 477.348 M 297.051 497.221 C 297.050 497.220 292.270 489.937 286.912 485.331 C 284.013 482.838 280.528 480.565 277.519 478.842 C 269.960 485.007 265.390 490.736 264.809 498.040 C 264.666 499.831 271.960 507.021 274.668 507.899 C 284.372 511.046 286.804 499.790 316.154 486.233 M 403.846 486.233 C 403.846 486.231 405.977 477.146 410.324 471.109 C 412.766 467.717 416.344 464.770 419.250 462.392 C 418.537 461.897 417.837 461.430 417.149 460.929 C 412.148 457.285 404.441 454.417 397.776 452.860 C 387.883 449.926 373.949 447.767 373.946 447.767 M 422.458 496.507 C 424.709 493.320 428.257 488.726 432.139 485.331 C 435.151 482.696 438.850 480.357 442.100 478.535 C 436.168 473.755 428.302 468.668 419.250 462.392 M 345.418 523.957 C 345.420 523.956 353.317 521.643 360.000 521.536 C 367.350 521.419 371.245 522.737 375.041 523.659 C 374.224 516.123 374.059 507.835 374.305 500.393 M 375.616 421.837 C 376.266 411.737 376.978 400.664 377.639 390.395 M 455.191 498.040 C 454.598 490.599 449.865 484.792 442.100 478.535 M 445.332 507.899 C 448.041 507.021 455.334 499.831 455.191 498.040 M 422.458 496.507 C 435.040 504.818 438.248 510.197 445.332 507.899 M 403.846 486.233 C 411.770 489.893 417.733 493.386 422.458 496.507 M 375.312 477.348 C 375.315 477.349 393.997 481.683 403.846 486.233 M 376.226 532.172 C 375.674 529.440 375.252 526.500 375.041 523.659 M 359.215 551.158 C 362.499 551.252 378.363 542.761 376.226 532.172 M 343.774 532.172 C 341.473 542.284 356.064 551.068 359.215 551.158 M 345.830 500.401 C 346.297 510.785 345.919 522.751 343.774 532.172 M 300.228 462.753 C 291.117 469.053 283.330 474.102 277.519 478.842 M 346.053 447.767 C 346.051 447.767 333.522 450.133 324.596 452.487 "/>
<path fill="#ffffff" fill-rule="evenodd" stroke="none" d="M 360.000 378.141 C 371.975 354.191 391.773 349.857 402.319 325.243 C 411.635 303.498 404.885 282.609 402.319 272.345 C 391.739 230.026 328.260 230.027 317.681 272.345 C 315.116 282.608 308.365 303.498 317.681 325.243 C 328.227 349.857 348.025 354.191 360.000 378.141 Z"/>
<path fill="none" stroke="#000000" stroke-width="3" stroke-linejoin="round" d="M 360.000 251.185 C 360.000 289.977 360.000 328.770 360.000 367.562 M 317.681 325.243 C 328.227 349.857 348.025 354.191 360.000 378.141 C 371.975 354.191 391.773 349.857 402.319 325.243 C 411.635 303.498 404.885 282.609 402.319 272.345 C 391.739 230.026 328.260 230.027 317.681 272.345 C 315.116 282.608 308.365 303.498 317.681 325.243 "/>
<path fill="#ffffff" fill-rule="evenodd" stroke="none" d="M 297.136 335.547 C 314.903 315.512 335.147 316.450 351.704 295.404 C 366.331 276.811 365.217 254.886 365.395 244.308 C 366.129 200.693 304.813 184.265 283.642 222.403 C 278.507 231.652 266.579 250.083 269.951 273.498 C 273.767 300.003 291.768 309.313 297.136 335.547 Z"/>
<path fill="none" stroke="#000000" stroke-width="3" stroke-linejoin="round" d="M 329.995 212.917 C 319.955 250.387 309.915 287.858 299.875 325.328 M 269.951 273.498 C 273.767 300.003 291.768 309.313 297.136 335.547 C 314.903 315.512 335.147 316.450 351.704 295.404 C 366.331 276.811 365.217 254.886 365.395 244.308 C 366.129 200.693 304.813 184.265 283.642 222.403 C 278.507 231.652 266.579 250.083 269.951 273.498 "/>
<path fill="#ffffff" fill-rule="evenodd" stroke="none" d="M 422.864 335.547 C 428.232 309.313 446.233 300.003 450.049 273.498 C 453.421 250.083 441.493 231.653 436.358 222.403 C 415.186 184.264 353.871 200.695 354.605 244.309 C 354.783 254.886 353.669 276.812 368.296 295.404 C 384.853 316.450 405.097 315.512 422.864 335.547 Z"/>
<path fill="none" stroke="#000000" stroke-width="3" stroke-linejoin="round" d="M 390.005 212.917 C 400.045 250.387 410.085 287.858 420.125 325.328 M 368.296 295.404 C 384.853 316.450 405.097 315.512 422.864 335.547 C 428.232 309.313 446.233 300.003 450.049 273.498 C 453.421 250.083 441.493 231.653 436.358 222.403 C 415.186 184.264 353.871 200.695 354.605 244.309 C 354.783 254.886 353.669 276.812 368.296 295.404 "/>
<path fill="#ffffff" fill-rule="evenodd" stroke="none" d="M 459.624 255.244 C 464.993 229.010 482.994 219.699 486.810 193.195 C 490.181 169.779 478.254 151.349 473.119 142.099 C 451.947 103.961 390.631 120.391 391.365 164.005 C 391.543 174.583 390.429 196.508 405.057 215.101 C 421.614 236.146 441.858 235.208 459.624 255.244 Z"/>
<path fill="none" stroke="#000000" stroke-width="3" stroke-linejoin="round" d="M 426.282 132.614 C 436.322 170.084 446.362 207.554 456.402 245.025 M 405.057 215.101 C 421.614 236.146 441.858 235.208 459.624 255.244 C 464.993 229.010 482.994 219.699 486.810 193.195 C 490.181 169.779 478.254 151.349 473.119 142.099 C 451.947 103.961 390.631 120.391 391.365 164.005 C 391.543 174.583 390.429 196.508 405.057 215.101 "/>
<path fill="#ffffff" fill-rule="evenodd" stroke="none" d="M 260.376 255.244 C 278.142 235.209 298.386 236.146 314.943 215.101 C 329.571 196.508 328.457 174.583 328.635 164.005 C 329.368 120.390 268.052 103.962 246.881 142.099 C 241.746 151.349 229.819 169.780 233.190 193.195 C 237.006 219.699 255.007 229.009 260.376 255.244 Z"/>
<path fill="none" stroke="#000000" stroke-width="3" stroke-linejoin="round" d="M 293.234 132.614 C 283.194 170.084 273.154 207.554 263.114 245.025 M 233.190 193.195 C 237.006 219.699 255.007 229.009 260.376 255.244 C 278.142 235.209 298.386 236.146 314.943 215.101 C 329.571 196.508 328.457 174.583 328.635 164.005 C 329.368 120.390 268.052 103.962 246.881 142.099 C 241.746 151.349 229.819 169.780 233.190 193.195 "/>
<path fill="#ffffff" fill-rule="evenodd" stroke="none" d="M 360.000 257.407 C 371.976 233.456 391.773 229.122 402.319 204.508 C 411.636 182.763 404.885 161.874 402.319 151.610 C 391.739 109.291 328.261 109.292 317.682 151.610 C 315.116 161.873 308.365 182.763 317.682 204.508 C 328.227 229.122 348.025 233.456 360.000 257.407 Z"/>
<path fill="none" stroke="#000000" stroke-width="3" stroke-linejoin="round" d="M 360.000 130.450 C 360.000 169.243 360.000 208.035 360.000 246.827 M 317.682 204.508 C 328.227 229.122 348.025 233.456 360.000 257.407 C 371.976 233.456 391.773 229.122 402.319 204.508 C 411.636 182.763 404.885 161.874 402.319 151.610 C 391.739 109.291 328.261 109.292 317.682 151.610 C 315.116 161.873 308.365 182.763 317.682 204.508 "/>
<path fill="#ffffff" fill-rule="evenodd" stroke="none" d="M 262.550 161.666 C 284.896 146.912 304.208 153.057 325.648 137.014 C 344.589 122.840 349.188 101.374 352.097 91.202 C 364.094 49.263 309.120 17.525 278.799 48.884 C 271.446 56.489 255.154 71.205 252.350 94.695 C 249.176 121.284 264.154 134.936 262.550 161.666 Z"/>
<path fill="none" stroke="#000000" stroke-width="3" stroke-linejoin="round" d="M 326.028 51.718 C 306.632 85.313 287.236 118.908 267.840 152.504 M 252.350 94.695 C 249.176 121.284 264.154 134.936 262.550 161.666 C 284.896 146.912 304.208 153.057 325.648 137.014 C 344.589 122.840 349.188 101.374 352.097 91.202 C 364.094 49.263 309.120 17.525 278.799 48.884 C 271.446 56.489 255.154 71.205 252.350 94.695 "/>
<path fill="#ffffff" fill-rule="evenodd" stroke="none" d="M 459.139 160.822 C 457.534 134.092 472.512 120.440 469.338 93.851 C 466.534 70.361 450.243 55.646 442.889 48.040 C 412.568 16.681 357.594 48.421 369.591 90.358 C 372.501 100.530 377.099 121.996 396.040 136.170 C 417.480 152.213 436.792 146.067 459.139 160.822 Z"/>
<path fill="none" stroke="#000000" stroke-width="3" stroke-linejoin="round" d="M 395.660 50.875 C 415.056 84.469 434.453 118.065 453.849 151.660 M 396.040 136.170 C 417.480 152.213 436.792 146.067 459.139 160.822 C 457.534 134.092 472.512 120.440 469.338 93.851 C 466.534 70.361 450.243 55.646 442.889 48.040 C 412.568 16.681 357.594 48.421 369.591 90.358 C 372.501 100.530 377.099 121.996 396.040 136.170 "/>
<path fill="#ffffff" fill-rule="evenodd" stroke="none" d="M 360.000 159.705 C 371.975 135.754 391.773 131.420 402.319 106.806 C 411.635 85.061 404.885 64.172 402.319 53.908 C 391.739 11.589 328.260 11.590 317.681 53.908 C 315.116 64.171 308.365 85.061 317.681 106.806 C 328.227 131.420 348.025 135.754 360.000 159.705 Z"/>
<path fill="none" stroke="#000000" stroke-width="3" stroke-linejoin="round" d="M 360.000 32.748 C 360.000 71.541 360.000 110.333 360.000 149.125 M 317.681 106.806 C 328.227 131.420 348.025 135.754 360.000 159.705 C 371.975 135.754 391.773 131.420 402.319 106.806 C 411.635 85.061 404.885 64.172 402.319 53.908 C 391.739 11.589 328.260 11.590 317.681 53.908 C 315.116 64.171 308.365 85.061 317.681 106.806 "/>
<path fill="none" stroke="#000000" stroke-width="3" stroke-linejoin="round" d="M 397.776 452.860 C 392.180 457.161 385.542 465.117 382.841 478.680 M 360.474 444.387 C 366.307 445.091 373.945 447.767 373.946 447.767 C 373.946 447.770 374.931 470.108 375.312 477.348 C 375.312 477.347 365.232 473.536 359.606 473.497 C 354.274 473.461 344.689 477.348 344.688 477.348 C 344.688 477.345 346.053 447.770 346.053 447.767 C 346.055 447.767 353.100 443.496 360.474 444.387 M 397.776 452.860 C 387.883 449.926 373.949 447.767 373.946 447.767 "/>
</g>
<g id="specs_2">
<path fill="#ff0000" fill-rule="evenodd" stroke="none" d="M 360.000 100.384 C 360.001 100.381 369.956 72.508 369.957 72.505 C 369.956 72.506 360.001 81.768 360.000 81.769 C 359.999 81.768 350.044 72.506 350.043 72.505 C 350.044 72.508 359.999 100.381 360.000 100.384 Z"/>
<path fill="#0000ff" fill-rule="evenodd" stroke="none" d="M 360.000 13.248 C 360.001 13.250 365.783 29.441 365.783 29.443 C 365.783 29.442 360.001 24.062 360.000 24.061 C 359.999 24.062 354.217 29.442 354.217 29.443 C 354.217 29.441 359.999 13.250 360.000 13.248 Z"/>
<path fill="#00ff00" fill-rule="evenodd" stroke="none" d="M 220.359 186.409 C 220.361 186.408 237.224 180.289 237.226 180.288 C 237.225 180.289 231.642 186.351 231.641 186.351 C 231.642 186.352 237.286 192.357 237.287 192.357 C 237.285 192.357 220.361 186.409 220.359 186.409 Z"/>
<path fill="#ffff00" fill-rule="evenodd" stroke="none" d="M 253.211 523.281 C 253.212 523.279 263.088 501.776 263.089 501.774 C 263.089 501.775 263.609 512.633 263.609 512.634 C 263.610 512.634 274.477 512.898 274.478 512.898 C 274.475 512.899 253.213 523.280 253.211 523.281 Z"/>
<path fill="#ffff00" fill-rule="evenodd" stroke="none" d="M 466.789 523.018 C 466.788 523.015 456.483 501.715 456.482 501.713 C 456.482 501.714 456.180 512.580 456.180 512.581 C 456.179 512.582 445.319 513.063 445.318 513.063 C 445.320 513.064 466.787 523.017 466.789 523.018 Z"/>
<path fill="#00ff00" fill-rule="evenodd" stroke="none" d="M 499.641 186.409 C 499.639 186.408 482.776 180.289 482.774 180.288 C 482.775 180.289 488.358 186.351 488.359 186.351 C 488.358 186.352 482.714 192.357 482.713 192.357 C 482.715 192.357 499.639 186.409 499.641 186.409 Z"/>
<path fill="#00ffff" fill-rule="evenodd" stroke="none" d="M 446.282 62.807 C 446.281 62.809 439.833 81.017 439.832 81.019 C 439.832 81.018 438.611 72.228 438.611 72.227 C 438.610 72.227 429.756 72.812 429.755 72.812 C 429.757 72.811 446.280 62.808 446.282 62.807 Z"/>
<path fill="#00ffff" fill-rule="evenodd" stroke="none" d="M 273.718 63.411 C 273.719 63.413 281.367 81.150 281.368 81.152 C 281.368 81.151 282.000 72.299 282.000 72.298 C 282.001 72.298 290.874 72.292 290.875 72.292 C 290.873 72.291 273.720 63.412 273.718 63.411 Z"/>
<path fill="#be0027" fill-rule="evenodd" stroke="none" d="M 360.000 581.071 C 360.001 581.068 369.956 553.195 369.957 553.192 C 369.956 553.193 360.001 562.455 360.000 562.456 C 359.999 562.455 350.044 553.193 350.043 553.192 C 350.044 553.195 359.999 581.068 360.000 581.071 Z"/>
<path fill="#ff00ff" fill-rule="evenodd" stroke="none" d="M 255.380 501.460 C 255.401 501.460 464.599 501.460 464.620 501.460 C 464.620 501.481 464.620 710.679 464.620 710.700 C 464.599 710.700 255.401 710.700 255.380 710.700 C 255.380 710.679 255.380 501.481 255.380 501.460 Z"/>
</g>
</g>
</svg>
