<?xml version="1.0" encoding="utf-8"?>
<!-- Generator: Moho 12.5 build 22414 -->
<!DOCTYPE svg PUBLIC "-//W3C//DTD SVG 1.1//EN" "http://www.w3.org/Graphics/SVG/1.1/DTD/svg11.dtd">
<svg version="1.1" id="Frame_0" xmlns="http://www.w3.org/2000/svg" xmlns:xlink="http://www.w3.org/1999/xlink" width="720px" height="720px">
<g id="pillar">
<g id="pillar">
<path fill="#ffffff" fill-rule="evenodd" stroke="#000000" stroke-width="3" stroke-linejoin="round" d="M 447.528 609.632 C 436.589 609.824 283.407 609.272 272.472 609.632 C 257.855 610.113 259.969 641.857 259.968 641.861 C 259.988 641.861 460.012 641.861 460.032 641.861 C 460.031 641.857 462.145 609.376 447.528 609.632 C 447.527 609.629 448.486 582.493 435.024 582.245 C 426.027 582.078 293.000 582.096 284.976 582.245 C 271.514 582.493 272.473 609.629 272.472 609.632 C 272.490 609.632 447.510 609.632 447.528 609.632 M 291.531 582.245 C 291.531 582.210 291.531 239.936 291.531 239.902 C 291.545 239.902 428.455 239.902 428.469 239.902 C 428.469 239.936 428.469 582.210 428.469 582.245 C 428.455 582.245 291.545 582.245 291.531 582.245 Z"/>
<path fill="none" stroke="#000000" stroke-width="3" stroke-linejoin="round" d="M 411.105 239.902 C 411.105 354.016 411.105 468.131 411.105 582.245 M 308.895 239.902 C 308.895 354.016 308.895 468.131 308.895 582.245 M 333.402 239.626 C 333.139 353.832 332.876 468.038 332.613 582.245 M 387.387 239.902 C 387.387 354.016 387.387 468.131 387.387 582.245 M 360.000 239.902 C 360.000 354.016 360.000 468.131 360.000 582.245 "/>
<path fill="#ffffff" fill-rule="evenodd" stroke="#000000" stroke-width="3" stroke-linejoin="round" d="M 291.531 198.821 C 291.538 198.821 359.993 198.821 360.000 198.821 C 360.007 198.821 428.462 198.821 428.469 198.821 C 428.469 198.825 428.469 232.738 428.469 232.741 C 428.469 232.744 428.469 260.492 428.469 260.495 C 428.462 260.495 360.007 260.495 360.000 260.495 C 359.993 260.495 291.538 260.495 291.531 260.495 C 291.531 260.492 291.531 232.744 291.531 232.741 C 291.531 232.738 291.531 198.825 291.531 198.821 Z"/>
<path fill="none" stroke="#000000" stroke-width="3" stroke-linejoin="round" d="M 291.531 232.741 C 337.177 232.741 382.823 232.741 428.469 232.741 "/>
<path fill="#ffffff" fill-rule="evenodd" stroke="none" d="M 323.687 205.443 C 348.480 205.473 373.273 205.502 398.066 205.532 C 392.837 209.653 383.400 224.422 387.811 239.910 C 394.994 265.134 418.474 273.392 427.679 273.382 C 441.228 273.366 472.083 265.843 474.502 227.454 C 476.268 199.439 449.307 177.008 428.469 177.600 C 420.481 177.827 299.519 177.827 291.531 177.600 C 270.693 177.008 243.017 196.741 245.498 227.454 C 248.594 265.794 278.772 273.366 292.321 273.382 C 301.526 273.392 324.387 264.950 332.189 239.910 C 336.930 224.696 327.767 209.080 323.687 205.443 Z"/>
<path fill="none" stroke="#000000" stroke-width="3" stroke-linejoin="round" d="M 323.687 205.443 C 319.744 201.929 304.851 194.781 289.682 200.937 C 262.132 212.118 263.850 246.635 288.820 245.439 C 311.508 244.352 301.795 217.354 292.492 223.540 M 323.687 205.443 C 348.480 205.473 373.273 205.502 398.066 205.532 C 392.837 209.653 383.400 224.422 387.811 239.910 C 394.994 265.134 418.474 273.392 427.679 273.382 C 441.228 273.366 472.083 265.843 474.502 227.454 C 476.268 199.439 449.307 177.008 428.469 177.600 C 420.481 177.827 299.519 177.827 291.531 177.600 C 270.693 177.008 243.017 196.741 245.498 227.454 C 248.594 265.794 278.772 273.366 292.321 273.382 C 301.526 273.392 324.387 264.950 332.189 239.910 C 336.930 224.696 327.767 209.080 323.687 205.443 M 438.335 204.020 C 419.644 192.073 403.939 200.903 398.066 205.532 M 431.180 245.439 C 454.787 245.488 460.634 218.274 438.335 204.020 M 427.508 221.690 C 412.076 219.104 407.745 245.390 431.180 245.439 "/>
</g>
<g id="specs_2">
<path fill="#ff00ff" fill-rule="evenodd" stroke="none" d="M 278.583 178.438 C 278.600 178.438 441.400 178.438 441.417 178.438 C 441.417 178.422 441.417 15.621 441.417 15.605 C 441.400 15.605 278.600 15.605 278.583 15.605 C 278.583 15.621 278.583 178.422 278.583 178.438 Z"/>
<path fill="#ff0000" fill-rule="evenodd" stroke="none" d="M 360.000 165.045 C 360.001 165.042 368.501 141.241 368.502 141.238 C 368.501 141.239 360.001 149.148 360.000 149.149 C 359.999 149.148 351.499 141.239 351.498 141.238 C 351.499 141.241 359.999 165.042 360.000 165.045 Z"/>
<path fill="#0000ff" fill-rule="evenodd" stroke="none" d="M 360.000 170.615 C 360.000 170.616 364.938 184.442 364.939 184.443 C 364.938 184.443 360.000 179.849 360.000 179.848 C 360.000 179.849 355.062 184.443 355.061 184.443 C 355.062 184.442 360.000 170.616 360.000 170.615 Z"/>
<path fill="#00ff00" fill-rule="evenodd" stroke="none" d="M 281.686 417.990 C 281.687 417.990 295.488 412.982 295.490 412.982 C 295.489 412.982 290.920 417.943 290.919 417.944 C 290.920 417.944 295.539 422.858 295.539 422.859 C 295.538 422.858 281.687 417.991 281.686 417.990 Z"/>
<path fill="#ffff00" fill-rule="evenodd" stroke="none" d="M 256.866 645.492 C 256.867 645.490 264.865 628.076 264.866 628.074 C 264.866 628.075 265.287 636.868 265.287 636.869 C 265.288 636.869 274.088 637.082 274.089 637.082 C 274.088 637.083 256.868 645.491 256.866 645.492 Z"/>
<path fill="#ffff00" fill-rule="evenodd" stroke="none" d="M 463.134 645.278 C 463.133 645.276 454.787 628.026 454.786 628.024 C 454.786 628.025 454.542 636.825 454.542 636.826 C 454.541 636.826 445.746 637.216 445.745 637.216 C 445.747 637.217 463.132 645.277 463.134 645.278 Z"/>
<path fill="#00ff00" fill-rule="evenodd" stroke="none" d="M 438.314 417.990 C 438.313 417.990 424.512 412.982 424.510 412.982 C 424.511 412.982 429.080 417.943 429.081 417.944 C 429.080 417.944 424.461 422.858 424.461 422.859 C 424.462 422.858 438.313 417.991 438.314 417.990 Z"/>
<path fill="#00ffff" fill-rule="evenodd" stroke="none" d="M 470.218 193.326 C 470.217 193.326 466.945 202.567 466.945 202.568 C 466.945 202.567 466.325 198.107 466.325 198.106 C 466.324 198.106 461.831 198.403 461.830 198.403 C 461.831 198.403 470.217 193.326 470.218 193.326 Z"/>
<path fill="#00ffff" fill-rule="evenodd" stroke="none" d="M 249.859 193.632 C 249.859 193.633 253.741 202.634 253.741 202.635 C 253.741 202.635 254.062 198.143 254.062 198.142 C 254.062 198.142 258.565 198.139 258.566 198.139 C 258.565 198.138 249.860 193.632 249.859 193.632 Z"/>
<path fill="#be0027" fill-rule="evenodd" stroke="none" d="M 360.000 653.917 C 360.001 653.915 368.501 630.113 368.502 630.111 C 368.501 630.112 360.001 638.021 360.000 638.022 C 359.999 638.021 351.499 630.112 351.498 630.111 C 351.499 630.113 359.999 653.915 360.000 653.917 Z"/>
</g>
</g>
</svg>
