<?xml version="1.0" encoding="utf-8"?>
<!-- Generator: Moho 12.5 build 22414 -->
<!DOCTYPE svg PUBLIC "-//W3C//DTD SVG 1.1//EN" "http://www.w3.org/Graphics/SVG/1.1/DTD/svg11.dtd">
<svg version="1.1" id="Frame_0" xmlns="http://www.w3.org/2000/svg" xmlns:xlink="http://www.w3.org/1999/xlink" width="720px" height="720px">
<g id="star_7pt_BW">
<g id="7-pointed_star.svg">
<path fill="#000000" fill-rule="evenodd" stroke="none" d="M 359.959 358.183 C 359.959 358.150 360.049 136.101 360.094 25.059 C 360.100 25.082 411.460 251.349 411.465 251.371 C 394.296 286.975 359.964 358.173 359.959 358.183 Z"/>
<path fill="#000000" fill-rule="evenodd" stroke="none" d="M 359.959 358.183 C 359.933 358.163 186.667 220.074 100.021 151.019 C 100.042 151.029 308.358 251.403 308.379 251.413 C 325.572 287.003 359.954 358.173 359.959 358.183 Z"/>
<path fill="#000000" fill-rule="evenodd" stroke="none" d="M 359.959 358.183 C 359.947 358.181 282.927 340.609 244.411 331.822 C 244.390 331.832 35.276 432.538 35.255 432.548 C 143.490 407.760 359.926 358.191 359.959 358.183 Z"/>
<path fill="#000000" fill-rule="evenodd" stroke="none" d="M 359.959 358.183 C 359.944 358.213 263.229 558.167 214.864 658.159 C 214.870 658.136 266.692 432.646 266.698 432.624 C 297.785 407.810 359.950 358.191 359.959 358.183 Z"/>
<path fill="#000000" fill-rule="evenodd" stroke="none" d="M 359.959 358.183 C 359.973 358.213 456.211 558.363 504.337 658.453 C 504.322 658.435 359.695 477.057 359.681 477.039 C 359.773 437.421 359.959 358.195 359.959 358.183 Z"/>
<path fill="#000000" fill-rule="evenodd" stroke="none" d="M 684.745 432.758 C 576.483 407.900 359.991 358.191 359.959 358.183 C 359.968 358.191 421.694 407.850 452.561 432.684 C 452.584 432.684 684.722 432.758 684.745 432.758 Z"/>
<path fill="#000000" fill-rule="evenodd" stroke="none" d="M 359.959 358.183 C 359.971 358.181 437.151 340.646 475.747 331.877 C 475.761 331.859 620.659 150.638 620.673 150.620 C 533.768 219.808 359.985 358.163 359.959 358.183 Z"/>
<path fill="none" stroke="#ffffff" stroke-width="1" stroke-linecap="butt" stroke-linejoin="round" d="M 452.561 432.684 C 421.694 407.850 359.968 358.191 359.959 358.183 "/>
<path fill="none" stroke="#ffffff" stroke-width="1" stroke-linecap="butt" stroke-linejoin="round" d="M 359.959 358.183 C 359.973 358.213 456.211 558.363 504.337 658.453 "/>
<path fill="#ffffff" fill-rule="evenodd" stroke="none" d="M 452.561 432.684 C 421.694 407.850 359.968 358.191 359.959 358.183 C 359.973 358.213 456.211 558.363 504.337 658.453 C 504.331 658.431 452.566 432.706 452.561 432.684 Z"/>
<path fill="none" stroke="#ffffff" stroke-width="1" stroke-linecap="butt" stroke-linejoin="round" d="M 359.959 358.183 C 359.971 358.181 437.151 340.646 475.747 331.877 "/>
<path fill="none" stroke="#ffffff" stroke-width="1" stroke-linecap="butt" stroke-linejoin="round" d="M 684.745 432.758 C 576.483 407.900 359.991 358.191 359.959 358.183 "/>
<path fill="#ffffff" fill-rule="evenodd" stroke="none" d="M 359.959 358.183 C 359.971 358.181 437.151 340.646 475.747 331.877 C 475.768 331.887 684.724 432.748 684.745 432.758 C 576.483 407.900 359.991 358.191 359.959 358.183 Z"/>
<path fill="none" stroke="#ffffff" stroke-width="1" stroke-linecap="butt" stroke-linejoin="round" d="M 411.465 251.371 C 394.296 286.975 359.964 358.173 359.959 358.183 "/>
<path fill="none" stroke="#ffffff" stroke-width="1" stroke-linecap="butt" stroke-linejoin="round" d="M 359.959 358.183 C 359.985 358.163 533.768 219.808 620.673 150.620 "/>
<path fill="#ffffff" fill-rule="evenodd" stroke="none" d="M 411.465 251.371 C 394.296 286.975 359.964 358.173 359.959 358.183 C 359.985 358.163 533.768 219.808 620.673 150.620 C 620.652 150.630 411.486 251.361 411.465 251.371 Z"/>
<path fill="none" stroke="#ffffff" stroke-width="1" stroke-linecap="butt" stroke-linejoin="round" d="M 359.959 358.183 C 359.944 358.213 263.229 558.167 214.864 658.159 "/>
<path fill="none" stroke="#ffffff" stroke-width="1" stroke-linecap="butt" stroke-linejoin="round" d="M 359.681 477.039 C 359.773 437.421 359.959 358.195 359.959 358.183 "/>
<path fill="#ffffff" fill-rule="evenodd" stroke="none" d="M 359.959 358.183 C 359.944 358.213 263.229 558.167 214.864 658.159 C 214.879 658.141 359.666 477.057 359.681 477.039 C 359.773 437.421 359.959 358.195 359.959 358.183 Z"/>
<path fill="none" stroke="#ffffff" stroke-width="1" stroke-linecap="butt" stroke-linejoin="round" d="M 266.698 432.624 C 297.785 407.810 359.950 358.191 359.959 358.183 "/>
<path fill="none" stroke="#ffffff" stroke-width="1" stroke-linecap="butt" stroke-linejoin="round" d="M 359.959 358.183 C 359.926 358.191 143.490 407.760 35.255 432.548 "/>
<path fill="#ffffff" fill-rule="evenodd" stroke="none" d="M 266.698 432.624 C 297.785 407.810 359.950 358.191 359.959 358.183 C 359.926 358.191 143.490 407.760 35.255 432.548 C 35.278 432.548 266.674 432.624 266.698 432.624 Z"/>
<path fill="none" stroke="#ffffff" stroke-width="1" stroke-linecap="butt" stroke-linejoin="round" d="M 359.959 358.183 C 359.933 358.163 186.667 220.074 100.021 151.019 "/>
<path fill="none" stroke="#ffffff" stroke-width="1" stroke-linecap="butt" stroke-linejoin="round" d="M 244.411 331.822 C 282.927 340.609 359.947 358.181 359.959 358.183 "/>
<path fill="#ffffff" fill-rule="evenodd" stroke="none" d="M 359.959 358.183 C 359.933 358.163 186.667 220.074 100.021 151.019 C 100.035 151.037 244.397 331.804 244.411 331.822 C 282.927 340.609 359.947 358.181 359.959 358.183 Z"/>
<path fill="none" stroke="#ffffff" stroke-width="1" stroke-linecap="butt" stroke-linejoin="round" d="M 308.379 251.413 C 325.572 287.003 359.954 358.173 359.959 358.183 "/>
<path fill="none" stroke="#ffffff" stroke-width="1" stroke-linecap="butt" stroke-linejoin="round" d="M 359.959 358.183 C 359.959 358.150 360.049 136.101 360.094 25.059 "/>
<path fill="#ffffff" fill-rule="evenodd" stroke="none" d="M 308.379 251.413 C 325.572 287.003 359.954 358.173 359.959 358.183 C 359.959 358.150 360.049 136.101 360.094 25.059 C 360.089 25.082 308.384 251.390 308.379 251.413 Z"/>
<path fill="none" stroke="#ffffff" stroke-width="4" stroke-linecap="round" stroke-linejoin="round" d="M 360.094 25.059 C 360.100 25.082 411.460 251.349 411.465 251.371 "/>
<path fill="none" stroke="#ffffff" stroke-width="4" stroke-linecap="round" stroke-linejoin="round" d="M 620.673 150.620 C 620.659 150.638 475.761 331.859 475.747 331.877 "/>
<path fill="none" stroke="#ffffff" stroke-width="4" stroke-linecap="round" stroke-linejoin="round" d="M 684.745 432.758 C 684.722 432.758 452.584 432.684 452.561 432.684 "/>
<path fill="none" stroke="#ffffff" stroke-width="4" stroke-linecap="round" stroke-linejoin="round" d="M 504.337 658.453 C 504.322 658.435 359.695 477.057 359.681 477.039 "/>
<path fill="none" stroke="#ffffff" stroke-width="4" stroke-linecap="round" stroke-linejoin="round" d="M 214.864 658.159 C 214.870 658.136 266.692 432.646 266.698 432.624 "/>
<path fill="none" stroke="#ffffff" stroke-width="4" stroke-linecap="round" stroke-linejoin="round" d="M 35.255 432.548 C 35.276 432.538 244.390 331.832 244.411 331.822 "/>
<path fill="none" stroke="#ffffff" stroke-width="4" stroke-linecap="round" stroke-linejoin="round" d="M 100.021 151.019 C 100.042 151.029 308.358 251.403 308.379 251.413 "/>
<path fill="none" stroke="#000000" stroke-width="4" stroke-linecap="round" stroke-linejoin="round" d="M 308.379 251.413 C 308.384 251.390 360.089 25.082 360.094 25.059 "/>
<path fill="none" stroke="#000000" stroke-width="4" stroke-linecap="round" stroke-linejoin="round" d="M 244.411 331.822 C 244.397 331.804 100.035 151.037 100.021 151.019 "/>
<path fill="none" stroke="#000000" stroke-width="4" stroke-linecap="round" stroke-linejoin="round" d="M 266.698 432.624 C 266.674 432.624 35.278 432.548 35.255 432.548 "/>
<path fill="none" stroke="#000000" stroke-width="4" stroke-linecap="round" stroke-linejoin="round" d="M 359.681 477.039 C 359.666 477.057 214.879 658.141 214.864 658.159 "/>
<path fill="none" stroke="#000000" stroke-width="4" stroke-linecap="round" stroke-linejoin="round" d="M 452.561 432.684 C 452.566 432.706 504.331 658.431 504.337 658.453 "/>
<path fill="none" stroke="#000000" stroke-width="4" stroke-linecap="round" stroke-linejoin="round" d="M 475.747 331.877 C 475.768 331.887 684.724 432.748 684.745 432.758 "/>
<path fill="none" stroke="#000000" stroke-width="4" stroke-linecap="round" stroke-linejoin="round" d="M 411.465 251.371 C 411.486 251.361 620.652 150.630 620.673 150.620 "/>
</g>
<g id="specs_2">
<path fill="#ff00ff" fill-rule="evenodd" stroke="none" d="M 236.145 480.407 C 236.170 480.407 483.830 480.407 483.855 480.407 C 483.855 480.383 483.855 232.722 483.855 232.697 C 483.830 232.697 236.170 232.697 236.145 232.697 C 236.145 232.722 236.145 480.383 236.145 480.407 Z"/>
<path fill="#ff0000" fill-rule="evenodd" stroke="none" d="M 360.000 676.057 C 360.001 676.061 372.432 710.866 372.433 710.870 C 372.432 710.869 360.001 699.303 360.000 699.302 C 359.999 699.303 347.568 710.869 347.567 710.870 C 347.568 710.866 359.999 676.061 360.000 676.057 Z"/>
<path fill="#0000ff" fill-rule="evenodd" stroke="none" d="M 360.000 18.800 C 360.001 18.802 367.221 39.020 367.222 39.022 C 367.221 39.022 360.001 32.304 360.000 32.303 C 359.999 32.304 352.779 39.022 352.778 39.022 C 352.779 39.020 359.999 18.802 360.000 18.800 Z"/>
<path fill="#00ffff" fill-rule="evenodd" stroke="none" d="M 98.803 149.807 C 98.805 149.808 118.759 156.619 118.761 156.620 C 118.760 156.620 109.182 158.062 109.181 158.062 C 109.181 158.063 109.930 167.720 109.930 167.721 C 109.929 167.720 98.804 149.809 98.803 149.807 Z"/>
<path fill="#00ffff" fill-rule="evenodd" stroke="none" d="M 621.197 149.807 C 621.195 149.808 601.241 156.619 601.239 156.620 C 601.240 156.620 610.818 158.062 610.819 158.062 C 610.819 158.063 610.070 167.720 610.070 167.721 C 610.071 167.720 621.196 149.809 621.197 149.807 Z"/>
<path fill="#00ff00" fill-rule="evenodd" stroke="none" d="M 34.409 432.597 C 34.411 432.596 52.487 421.012 52.489 421.011 C 52.488 421.011 47.566 429.559 47.566 429.559 C 47.567 429.560 55.737 435.084 55.738 435.084 C 55.736 435.084 34.412 432.597 34.409 432.597 Z"/>
<path fill="#00ff00" fill-rule="evenodd" stroke="none" d="M 685.591 432.597 C 685.589 432.596 667.513 421.012 667.511 421.011 C 667.511 421.012 672.433 429.559 672.434 429.559 C 672.433 429.560 664.263 435.084 664.262 435.085 C 664.264 435.084 685.588 432.597 685.591 432.597 Z"/>
<path fill="#ffff00" fill-rule="evenodd" stroke="none" d="M 215.279 658.240 C 215.279 658.238 217.503 636.884 217.504 636.882 C 217.504 636.883 221.113 646.061 221.113 646.062 C 221.114 646.062 230.529 643.124 230.529 643.123 C 230.528 643.125 215.280 658.238 215.279 658.240 Z"/>
<path fill="#ffff00" fill-rule="evenodd" stroke="none" d="M 504.721 658.239 C 504.721 658.237 502.497 636.884 502.497 636.882 C 502.496 636.883 498.888 646.061 498.887 646.062 C 498.886 646.062 489.472 643.123 489.471 643.123 C 489.472 643.124 504.720 658.238 504.721 658.239 Z"/>
<path fill="#be0027" fill-rule="evenodd" stroke="none" d="M 360.000 488.417 C 360.001 488.415 367.221 468.197 367.222 468.195 C 367.221 468.195 360.001 474.914 360.000 474.914 C 359.999 474.914 352.779 468.195 352.778 468.195 C 352.779 468.197 359.999 488.415 360.000 488.417 Z"/>
</g>
</g>
</svg>
