<?xml version="1.0" encoding="utf-8"?>
<!-- Generator: Moho 12.5 build 22414 -->
<!DOCTYPE svg PUBLIC "-//W3C//DTD SVG 1.1//EN" "http://www.w3.org/Graphics/SVG/1.1/DTD/svg11.dtd">
<svg version="1.1" id="Frame_0" xmlns="http://www.w3.org/2000/svg" xmlns:xlink="http://www.w3.org/1999/xlink" width="720px" height="720px">
<g id="triskele">
<g id="triskele">
<path fill="#ffffff" fill-rule="evenodd" stroke="#000000" stroke-width="4" stroke-linecap="round" stroke-linejoin="round" d="M 410.634 561.235 C 435.883 594.003 483.115 612.495 524.061 606.604 C 565.245 600.679 606.324 569.674 620.607 530.594 C 631.861 499.800 623.457 461.470 603.780 435.245 C 585.914 411.434 554.933 392.663 525.311 395.610 C 492.852 398.839 458.993 424.585 450.275 456.018 C 443.032 482.137 453.956 515.960 475.919 531.843 C 492.538 543.861 519.437 546.087 536.422 534.593 C 553.135 523.282 563.816 497.043 556.175 478.365 C 552.126 468.467 540.027 461.872 529.334 461.723 C 523.644 461.644 516.349 463.877 514.270 469.174 C 508.046 485.029 523.314 482.735 527.057 489.733 C 532.251 499.445 525.231 507.693 518.123 510.694 C 505.638 515.965 489.079 503.916 482.780 491.916 C 476.425 479.810 479.924 463.205 487.486 451.815 C 496.058 438.904 512.114 430.501 527.594 429.773 C 545.710 428.921 565.076 437.654 576.407 451.815 C 590.607 469.560 594.219 495.887 588.388 517.853 C 583.126 537.675 568.197 555.368 549.886 564.605 C 525.998 576.656 495.444 577.519 470.903 566.858 C 446.688 556.338 427.885 533.395 419.265 508.440 C 410.102 481.914 411.963 450.818 424.544 425.732 C 438.079 398.743 463.759 376.567 492.824 368.389 C 529.378 358.104 572.014 366.010 603.325 387.494 C 631.695 406.961 651.070 440.204 656.277 474.214 C 662.087 512.160 651.632 553.832 627.835 583.956 C 602.953 615.454 562.929 636.491 522.869 639.039 C 470.788 642.352 426.476 622.074 393.217 588.736 C 349.289 544.703 356.478 485.214 324.912 437.268 C 292.525 388.073 241.124 369.797 192.000 376.164 C 150.976 381.480 111.367 413.304 95.996 451.709 C 80.535 490.338 86.847 541.416 113.550 573.326 C 134.591 598.469 171.988 610.356 204.538 606.428 C 234.092 602.861 265.838 585.416 278.097 558.289 C 291.531 528.564 286.163 486.368 263.300 463.102 C 244.302 443.770 209.549 436.319 184.812 447.398 C 166.095 455.781 150.717 477.963 152.179 498.420 C 153.618 518.549 171.001 540.918 190.997 543.640 C 201.593 545.083 213.354 537.902 218.830 528.716 C 221.743 523.828 223.457 516.394 219.909 511.945 C 209.290 498.627 203.643 512.996 195.711 512.739 C 184.703 512.382 181.070 502.178 182.025 494.522 C 183.702 481.074 202.417 472.758 215.959 473.303 C 229.620 473.852 242.251 485.185 248.334 497.429 C 255.230 511.308 254.479 529.414 247.370 543.185 C 239.050 559.300 221.803 571.704 203.874 574.437 C 181.407 577.861 156.800 567.827 140.693 551.794 C 126.158 537.326 118.299 515.550 119.455 495.074 C 120.963 468.361 135.493 441.468 156.996 425.546 C 178.214 409.835 207.485 405.023 233.407 410.035 C 260.960 415.362 286.960 432.522 302.395 455.961 C 319.000 481.177 325.365 514.505 317.915 543.765 C 308.546 580.564 280.380 613.535 246.118 629.909 C 215.075 644.745 176.599 644.902 144.541 632.407 C 108.774 618.466 77.913 588.574 63.723 552.905 C 48.886 515.607 50.680 470.426 68.503 434.460 C 91.674 387.700 131.400 359.498 176.892 347.329 C 229.307 333.309 274.170 359.599 324.122 364.523 C 377.152 369.751 441.145 330.762 463.861 280.423 C 480.877 242.718 472.014 192.023 446.440 159.509 C 420.716 126.804 373.326 106.731 332.339 113.902 C 300.044 119.553 271.051 145.996 258.178 176.149 C 246.490 203.527 245.725 239.743 263.088 263.923 C 282.114 290.419 321.341 306.869 352.921 298.701 C 379.162 291.915 402.991 265.543 405.765 238.581 C 407.864 218.180 396.342 193.771 377.896 184.809 C 359.744 175.991 331.679 179.860 319.324 195.816 C 312.777 204.272 313.115 218.047 318.333 227.382 C 321.109 232.350 326.689 237.551 332.317 236.703 C 349.160 234.166 339.539 222.090 343.728 215.350 C 349.542 205.995 360.195 207.951 366.348 212.606 C 377.155 220.783 375.000 241.148 367.757 252.603 C 360.451 264.159 344.321 269.431 330.675 268.577 C 315.208 267.609 299.903 257.906 291.533 244.864 C 281.736 229.601 279.617 208.463 286.215 191.570 C 294.483 170.400 315.476 154.108 337.415 148.175 C 357.213 142.821 380.000 146.904 397.155 158.143 C 419.535 172.805 435.560 198.834 438.597 225.417 C 441.595 251.648 431.126 279.404 413.825 299.347 C 395.434 320.545 367.574 334.482 339.558 336.129 C 309.417 337.902 277.372 326.750 255.757 305.668 C 228.573 279.155 214.102 238.277 217.053 200.419 C 219.726 166.116 238.828 132.716 265.678 111.201 C 295.635 87.196 336.952 75.415 374.938 80.961 C 414.658 86.761 452.888 110.905 475.125 144.323 C 504.034 187.770 510.556 236.847 496.387 281.757 C 474.390 351.481 424.729 361.398 396.502 408.190 C 371.194 450.142 378.849 519.985 410.634 561.235 Z"/>
</g>
<g id="specs_2">
<path fill="#ff0000" fill-rule="evenodd" stroke="none" d="M 357.188 676.394 C 357.189 676.397 369.604 711.160 369.605 711.163 C 369.604 711.162 357.189 699.611 357.188 699.610 C 357.186 699.611 344.771 711.162 344.770 711.163 C 344.771 711.160 357.186 676.397 357.188 676.394 Z"/>
<path fill="#00ff00" fill-rule="evenodd" stroke="none" d="M 357.188 36.478 C 357.188 36.480 364.400 56.674 364.401 56.676 C 364.400 56.675 357.188 49.965 357.188 49.964 C 357.187 49.965 349.975 56.675 349.975 56.676 C 349.975 56.674 357.187 36.480 357.188 36.478 Z"/>
<path fill="#00ffff" fill-rule="evenodd" stroke="none" d="M 547.644 296.656 C 547.643 296.658 532.821 318.222 532.820 318.224 C 532.820 318.223 534.304 306.294 534.304 306.293 C 534.303 306.293 522.512 303.953 522.511 303.953 C 522.513 303.952 547.642 296.657 547.644 296.656 Z"/>
<path fill="#00ffff" fill-rule="evenodd" stroke="none" d="M 357.188 643.619 C 357.189 643.615 372.339 601.193 372.341 601.189 C 372.339 601.191 357.189 615.287 357.188 615.289 C 357.186 615.287 342.036 601.191 342.034 601.189 C 342.036 601.193 357.186 643.615 357.188 643.619 Z"/>
<path fill="#00ff00" fill-rule="evenodd" stroke="none" d="M 33.046 576.145 C 33.047 576.143 46.929 559.801 46.931 559.800 C 46.930 559.801 44.725 569.401 44.725 569.402 C 44.726 569.402 54.143 572.292 54.143 572.293 C 54.141 572.293 33.048 576.144 33.046 576.145 Z"/>
<path fill="#00ff00" fill-rule="evenodd" stroke="none" d="M 681.329 576.145 C 681.328 576.143 667.446 559.801 667.444 559.800 C 667.444 559.801 669.649 569.401 669.650 569.402 C 669.649 569.402 660.233 572.292 660.232 572.293 C 660.234 572.293 681.327 576.144 681.329 576.145 Z"/>
<path fill="#00ffff" fill-rule="evenodd" stroke="none" d="M 166.731 296.656 C 166.732 296.658 181.554 318.222 181.555 318.224 C 181.555 318.223 180.071 306.295 180.071 306.293 C 180.072 306.293 191.863 303.953 191.864 303.953 C 191.862 303.952 166.733 296.657 166.731 296.656 Z"/>
</g>
</g>
</svg>
