<?xml version="1.0" encoding="utf-8"?>
<!-- Generator: Moho 12.5 build 22414 -->
<!DOCTYPE svg PUBLIC "-//W3C//DTD SVG 1.1//EN" "http://www.w3.org/Graphics/SVG/1.1/DTD/svg11.dtd">
<svg version="1.1" id="Frame_0" xmlns="http://www.w3.org/2000/svg" xmlns:xlink="http://www.w3.org/1999/xlink" width="720px" height="720px">
<g id="trumpet">
<g id="trumpet">
<path fill="#ffffff" fill-rule="evenodd" stroke="#000000" stroke-width="1" stroke-linejoin="round" d="M 701.471 372.385 C 701.471 386.115 697.485 391.822 694.661 391.822 C 691.837 391.822 687.851 386.115 687.851 372.385 C 687.851 358.654 691.837 352.947 694.661 352.947 C 697.485 352.947 701.471 358.654 701.471 372.385 Z"/>
<path fill="#ffffff" fill-rule="evenodd" stroke="#000000" stroke-width="1" stroke-linejoin="round" d="M 254.539 468.227 C 254.553 468.220 310.633 400.232 389.677 393.465 C 527.309 381.681 694.766 386.255 694.797 386.254 C 694.797 386.253 697.059 382.133 697.059 372.385 C 697.059 362.637 694.797 358.517 694.797 358.516 C 694.766 358.515 527.309 362.266 389.677 351.305 C 310.594 345.006 254.553 276.549 254.539 276.542 C 254.539 276.561 254.539 468.208 254.539 468.227 Z"/>
<path fill="#ffffff" fill-rule="evenodd" stroke="#000000" stroke-width="1" stroke-linejoin="round" d="M 254.697 273.827 C 263.513 273.801 274.056 305.392 274.234 372.359 C 274.412 439.291 264.044 470.917 255.232 470.943 C 246.417 470.968 235.873 439.377 235.696 372.410 C 235.518 305.478 245.886 273.852 254.697 273.827 M 254.551 286.970 C 257.557 286.970 266.577 307.400 266.577 372.385 C 266.577 437.369 257.557 457.800 254.551 457.800 C 251.546 457.800 242.526 437.369 242.526 372.385 C 242.526 307.400 251.546 286.970 254.551 286.970 Z"/>
<path fill="none" stroke="#000000" stroke-width="1" stroke-linecap="butt" stroke-linejoin="round" d="M 266.577 372.385 C 266.577 437.369 257.557 457.800 254.551 457.800 "/>
<path fill="none" stroke="#000000" stroke-width="1" stroke-linecap="butt" stroke-linejoin="round" d="M 254.551 457.800 C 251.546 457.800 242.526 437.369 242.526 372.385 "/>
<path fill="none" stroke="#000000" stroke-width="1" stroke-linecap="butt" stroke-linejoin="round" d="M 242.526 372.385 C 242.526 307.400 251.546 286.970 254.551 286.970 "/>
<path fill="none" stroke="#000000" stroke-width="1" stroke-linecap="butt" stroke-linejoin="round" d="M 254.551 286.970 C 257.557 286.970 266.577 307.400 266.577 372.385 "/>
<path fill="#000000" fill-rule="evenodd" stroke="#ffffff" stroke-width="1" stroke-linejoin="round" d="M 266.577 372.385 C 266.577 437.369 257.557 457.800 254.551 457.800 C 251.546 457.800 242.526 437.369 242.526 372.385 C 242.526 307.400 251.546 286.970 254.551 286.970 C 257.557 286.970 266.577 307.400 266.577 372.385 Z"/>
</g>
<g id="specs_2">
<path fill="#ff00ff" fill-rule="evenodd" stroke="none" d="M 7.731 290.217 C 7.731 290.233 7.731 454.536 7.731 454.552 C 7.756 454.552 255.107 454.553 255.132 454.553 C 255.132 454.536 255.132 290.233 255.132 290.217 C 255.107 290.217 7.756 290.217 7.731 290.217 Z"/>
<path fill="#ff0000" fill-rule="evenodd" stroke="none" d="M 671.275 372.385 C 671.278 372.386 695.384 380.995 695.386 380.996 C 695.386 380.995 687.375 372.386 687.374 372.385 C 687.375 372.384 695.386 363.775 695.386 363.774 C 695.384 363.775 671.278 372.384 671.275 372.385 Z"/>
<path fill="#00ff00" fill-rule="evenodd" stroke="none" d="M 681.647 283.461 C 681.649 283.465 698.565 330.084 698.567 330.089 C 698.565 330.087 681.806 314.652 681.805 314.651 C 681.803 314.652 665.203 330.256 665.201 330.257 C 665.203 330.253 681.645 283.465 681.647 283.461 Z"/>
<path fill="#ffff00" fill-rule="evenodd" stroke="none" d="M 514.158 288.020 C 514.162 288.022 554.051 306.343 554.055 306.345 C 554.053 306.345 533.911 307.310 533.909 307.310 C 533.909 307.312 533.420 327.471 533.420 327.473 C 533.418 327.469 514.160 288.024 514.158 288.020 Z"/>
<path fill="#ffff00" fill-rule="evenodd" stroke="none" d="M 514.647 456.749 C 514.651 456.747 554.165 437.629 554.169 437.628 C 554.167 437.627 534.008 437.068 534.006 437.068 C 534.006 437.066 533.113 416.920 533.113 416.918 C 533.111 416.922 514.649 456.745 514.647 456.749 Z"/>
<path fill="#00ff00" fill-rule="evenodd" stroke="none" d="M 681.647 461.309 C 681.648 461.304 698.565 414.685 698.567 414.681 C 698.565 414.682 681.806 430.117 681.804 430.119 C 681.803 430.117 665.203 414.514 665.201 414.512 C 665.203 414.517 681.645 461.304 681.647 461.309 Z"/>
<path fill="#0000ff" fill-rule="evenodd" stroke="none" d="M 714.248 372.385 C 714.246 372.386 690.139 380.995 690.137 380.996 C 690.138 380.995 698.148 372.386 698.149 372.385 C 698.148 372.384 690.138 363.775 690.137 363.774 C 690.139 363.775 714.246 372.384 714.248 372.385 Z"/>
</g>
</g>
</svg>
