<?xml version="1.0" encoding="utf-8"?>
<!-- Generator: Moho 12.5 build 22414 -->
<!DOCTYPE svg PUBLIC "-//W3C//DTD SVG 1.1//EN" "http://www.w3.org/Graphics/SVG/1.1/DTD/svg11.dtd">
<svg version="1.1" id="Frame_0" xmlns="http://www.w3.org/2000/svg" xmlns:xlink="http://www.w3.org/1999/xlink" width="720px" height="720px">
<g id="wing_egypt">
<g id="wing_Egypt_2">
<path fill="#000000" fill-rule="evenodd" stroke="#ffffff" stroke-width="4" stroke-linecap="round" stroke-linejoin="round" d="M 661.254 284.544 C 651.501 282.407 446.493 286.614 413.967 284.543 C 281.132 276.085 217.620 277.520 32.570 223.593 C -0.170 214.052 10.583 263.061 69.814 282.496 C 94.163 290.485 239.938 303.792 239.955 303.794 C 239.938 303.792 105.197 293.858 70.496 286.145 C 31.782 277.538 28.663 322.772 78.449 339.609 C 103.546 348.097 258.419 336.518 258.437 336.518 C 258.420 336.518 109.649 346.548 84.864 343.469 C 50.566 339.209 44.929 391.350 99.268 395.976 C 118.013 397.572 272.086 362.224 272.103 362.221 C 272.086 362.224 163.770 391.688 99.079 398.000 C 68.761 400.958 93.686 449.163 139.692 444.644 C 169.406 441.726 310.340 383.398 310.357 383.392 C 310.340 383.399 238.929 419.151 141.966 446.924 C 107.149 456.896 148.250 491.082 187.172 485.558 C 218.606 481.097 341.592 393.747 341.608 393.738 C 341.596 393.745 276.651 443.687 230.252 468.328 C 185.384 492.156 236.241 516.695 279.991 492.577 C 299.962 481.567 362.128 412.178 362.136 412.170 C 362.128 412.178 337.056 449.848 286.019 489.388 C 264.745 505.869 322.783 516.536 345.429 493.641 C 367.938 470.885 413.906 410.472 413.913 410.463 C 413.906 410.472 380.260 455.167 347.840 496.407 C 335.530 512.067 387.879 511.260 404.323 495.130 C 414.643 485.007 459.424 413.031 459.430 413.023 C 459.424 413.031 446.769 444.114 408.457 493.003 C 397.051 507.558 441.969 510.894 459.257 493.428 C 472.991 479.553 506.265 408.777 506.270 408.769 C 506.266 408.777 493.575 445.103 460.807 496.407 C 449.235 514.525 490.013 514.770 504.547 494.067 C 520.678 471.090 548.972 399.418 548.976 399.409 C 548.972 399.418 537.367 440.455 508.336 493.854 C 498.289 512.334 540.884 514.505 554.830 492.365 C 563.347 478.843 594.435 401.120 594.439 401.110 C 594.435 401.120 590.497 435.846 556.554 494.705 C 548.268 509.073 592.048 507.512 600.637 493.216 C 613.707 471.463 628.188 402.822 628.191 402.813 C 628.189 402.822 623.558 432.609 606.149 494.705 C 605.266 497.854 629.619 505.819 639.213 493.003 C 652.328 475.483 662.630 407.926 662.633 407.917 C 662.631 407.926 659.392 451.902 648.167 492.153 C 644.817 504.168 670.939 498.758 677.098 487.047 C 687.490 467.283 684.396 448.595 686.741 405.365 C 688.852 366.467 692.068 291.292 661.254 284.544 Z"/>
<path fill="#ffffff" fill-rule="evenodd" stroke="#000000" stroke-width="4" stroke-linecap="round" stroke-linejoin="round" d="M 424.300 282.842 C 424.278 282.839 276.882 277.061 206.460 255.190 C 192.940 250.991 190.799 304.617 231.054 312.265 C 263.486 318.427 394.664 309.218 394.680 309.218 C 394.663 309.219 258.138 321.445 219.206 316.364 C 203.502 314.315 209.026 362.537 254.160 364.524 C 279.728 365.650 416.018 321.985 416.034 321.981 C 416.017 321.985 284.795 365.605 251.556 368.453 C 229.174 370.371 260.850 415.448 288.264 406.928 C 324.885 395.546 429.796 337.304 429.810 337.297 C 429.797 337.304 339.406 391.982 300.575 404.328 C 275.536 412.288 317.077 447.648 351.924 430.396 C 375.476 418.735 453.220 348.366 453.231 348.358 C 453.222 348.366 390.727 405.593 365.750 424.935 C 342.892 442.635 396.015 447.007 406.391 442.802 C 428.087 434.010 483.531 356.024 483.538 356.016 C 483.533 356.023 440.041 411.652 424.989 432.593 C 417.640 442.816 449.365 446.755 469.073 438.548 C 485.851 431.562 517.974 362.830 517.979 362.822 C 517.975 362.829 492.917 416.498 480.784 434.294 C 476.274 440.909 501.518 453.881 520.046 440.250 C 531.778 431.620 562.749 361.129 562.753 361.121 C 562.750 361.128 539.201 416.131 529.689 433.443 C 525.988 440.179 551.702 452.389 567.575 437.698 C 578.403 427.676 596.503 370.487 596.506 370.480 C 596.503 370.486 578.581 420.627 572.397 435.145 C 569.505 441.933 598.227 452.261 608.904 437.698 C 616.424 427.440 632.322 370.487 632.325 370.480 C 632.323 370.486 616.622 417.398 612.348 433.443 C 610.561 440.155 635.716 453.157 646.789 434.294 C 653.129 423.494 661.253 373.889 661.254 373.883 C 661.253 373.889 653.403 414.921 650.922 430.891 C 649.727 438.590 668.598 453.421 681.919 435.145 C 687.114 428.019 686.817 408.807 687.430 391.752 C 690.325 311.185 684.459 315.274 659.877 307.516 C 659.853 307.513 424.323 282.844 424.300 282.842 Z"/>
<path fill="#000000" fill-rule="evenodd" stroke="#ffffff" stroke-width="4" stroke-linecap="round" stroke-linejoin="round" d="M 571.019 321.130 C 559.174 319.458 441.192 286.166 418.789 283.693 C 410.028 282.726 383.980 284.643 357.484 283.692 C 344.338 283.220 341.704 320.503 380.216 322.832 C 386.297 323.200 421.540 313.473 421.544 313.472 C 421.540 313.473 386.029 325.127 376.771 328.788 C 360.934 335.051 383.511 360.391 402.946 357.716 C 417.795 355.673 452.536 318.581 452.541 318.577 C 452.537 318.581 423.589 348.752 411.213 358.568 C 398.425 368.711 430.383 382.014 442.210 374.734 C 450.524 369.616 489.733 326.240 489.738 326.235 C 489.734 326.240 457.968 363.562 449.098 375.585 C 439.950 387.984 461.307 398.694 481.472 388.348 C 492.907 382.481 516.599 335.600 516.602 335.595 C 516.599 335.600 491.513 380.712 491.804 389.199 C 492.107 398.046 511.402 400.208 523.491 390.900 C 530.723 385.332 551.041 339.003 551.043 338.998 C 551.041 339.003 531.741 382.363 529.690 390.050 C 525.791 404.659 553.424 405.198 561.375 395.154 C 566.525 388.650 582.727 341.556 582.729 341.551 C 582.727 341.556 570.971 380.496 567.575 393.453 C 565.544 401.203 590.232 408.298 600.639 391.752 C 604.248 386.013 614.414 346.661 614.415 346.656 C 614.414 346.660 609.982 374.843 604.082 390.900 C 596.933 410.360 624.588 412.446 634.391 401.962 C 644.072 391.608 648.855 342.407 648.856 342.401 C 648.856 342.406 641.968 386.091 642.656 393.453 C 643.809 405.776 663.836 407.536 672.965 401.111 C 688.349 390.285 687.128 351.273 681.919 326.235 C 671.153 320.886 579.407 322.314 571.019 321.130 Z"/>
<path fill="#ffffff" fill-rule="evenodd" stroke="#000000" stroke-width="4" stroke-linecap="round" stroke-linejoin="round" d="M 633.702 274.333 C 633.679 274.334 414.908 282.307 409.871 282.347 C 355.636 282.775 396.044 325.295 427.105 317.015 C 435.153 314.870 459.514 306.033 459.517 306.032 C 459.515 306.033 438.349 312.690 431.790 315.483 C 402.237 328.062 447.043 348.784 465.943 339.245 C 474.237 335.059 494.645 314.078 494.647 314.076 C 494.645 314.078 478.925 330.147 466.831 339.276 C 454.056 348.921 483.930 365.878 501.898 351.514 C 510.049 344.998 529.287 319.432 529.289 319.429 C 529.287 319.432 514.576 339.187 504.854 350.445 C 495.965 360.740 526.468 373.399 543.090 355.412 C 554.900 342.632 561.261 324.536 561.263 324.533 C 561.262 324.536 551.816 346.449 547.224 352.534 C 536.506 366.736 566.419 374.005 580.462 358.954 C 588.230 350.628 594.325 326.594 594.326 326.591 C 594.325 326.594 586.126 350.055 582.064 356.897 C 573.483 371.352 605.840 380.055 615.905 363.178 C 620.433 355.586 627.589 328.791 627.590 328.788 C 627.589 328.791 621.822 351.831 619.262 358.212 C 610.294 380.564 644.823 375.428 650.922 361.971 C 655.115 352.720 658.586 330.245 658.587 330.242 C 658.586 330.245 653.285 352.469 651.348 359.558 C 645.344 381.525 678.423 381.641 683.986 361.121 C 686.426 352.121 685.021 344.806 685.363 322.832 C 686.185 270.149 633.707 274.338 633.702 274.333 Z"/>
</g>
<g id="specs_2">
<path fill="#ff0000" fill-rule="evenodd" stroke="none" d="M 612.119 382.901 C 612.123 382.900 646.142 370.751 646.145 370.749 C 646.144 370.751 634.840 382.900 634.839 382.901 C 634.840 382.902 646.144 395.052 646.145 395.053 C 646.142 395.052 612.123 382.902 612.119 382.901 Z"/>
<path fill="#0000ff" fill-rule="evenodd" stroke="none" d="M 588.355 264.350 C 588.355 264.352 595.413 284.113 595.413 284.115 C 595.413 284.114 588.355 277.548 588.355 277.547 C 588.354 277.548 581.297 284.114 581.296 284.115 C 581.297 284.113 588.354 264.352 588.355 264.350 Z"/>
<path fill="#00ff00" fill-rule="evenodd" stroke="none" d="M 55.248 360.981 C 55.250 360.980 74.975 353.822 74.977 353.822 C 74.976 353.822 68.446 360.914 68.445 360.914 C 68.446 360.915 75.048 367.939 75.048 367.939 C 75.046 367.939 55.250 360.982 55.248 360.981 Z"/>
<path fill="#ffff00" fill-rule="evenodd" stroke="none" d="M 389.983 498.962 C 389.984 498.960 398.741 479.892 398.742 479.890 C 398.742 479.891 399.203 489.520 399.203 489.521 C 399.204 489.521 408.841 489.754 408.842 489.754 C 408.840 489.755 389.985 498.961 389.983 498.962 Z"/>
<path fill="#ffff00" fill-rule="evenodd" stroke="none" d="M 645.753 498.728 C 645.752 498.727 636.613 479.838 636.612 479.836 C 636.612 479.837 636.344 489.473 636.344 489.474 C 636.344 489.474 626.713 489.901 626.712 489.901 C 626.714 489.902 645.751 498.728 645.753 498.728 Z"/>
<path fill="#00ffff" fill-rule="evenodd" stroke="none" d="M 678.624 276.984 C 678.624 276.986 671.619 296.765 671.618 296.767 C 671.618 296.766 670.291 287.218 670.291 287.217 C 670.290 287.217 660.671 287.852 660.670 287.852 C 660.672 287.851 678.623 276.985 678.624 276.984 Z"/>
<path fill="#00ffff" fill-rule="evenodd" stroke="none" d="M 11.420 221.555 C 11.421 221.557 21.659 239.874 21.660 239.876 C 21.660 239.875 21.359 230.240 21.359 230.239 C 21.360 230.238 30.948 229.244 30.949 229.244 C 30.947 229.243 11.422 221.556 11.420 221.555 Z"/>
<path fill="#be0027" fill-rule="evenodd" stroke="none" d="M 705.564 382.108 C 705.561 382.107 671.542 369.958 671.538 369.957 C 671.540 369.958 682.844 382.107 682.845 382.108 C 682.844 382.110 671.540 394.259 671.538 394.260 C 671.542 394.259 705.561 382.110 705.564 382.108 Z"/>
</g>
</g>
</svg>
